<svg width="20" height="20" viewBox="0 0 20 20" fill="none" xmlns="http://www.w3.org/2000/svg">
<path fill-rule="evenodd" clip-rule="evenodd" d="M11.414 10L17.707 3.70701C18.098 3.31601 18.098 2.68401 17.707 2.29301C17.316 1.90201 16.684 1.90201 16.293 2.29301L10 8.58601L3.70701 2.29301C3.31601 1.90201 2.68401 1.90201 2.29301 2.29301C1.90201 2.68401 1.90201 3.31601 2.29301 3.70701L8.58601 10L2.29301 16.293C1.90201 16.684 1.90201 17.316 2.29301 17.707C2.48801 17.902 2.74401 18 3.00001 18C3.25601 18 3.51201 17.902 3.70701 17.707L10 11.414L16.293 17.707C16.488 17.902 16.744 18 17 18C17.256 18 17.512 17.902 17.707 17.707C18.098 17.316 18.098 16.684 17.707 16.293L11.414 10Z" fill="#31373D"/>
<mask id="mask0" mask-type="alpha" maskUnits="userSpaceOnUse" x="1" y="1" width="18" height="17">
<path fill-rule="evenodd" clip-rule="evenodd" d="M11.414 10L17.707 3.70701C18.098 3.31601 18.098 2.68401 17.707 2.29301C17.316 1.90201 16.684 1.90201 16.293 2.29301L10 8.58601L3.70701 2.29301C3.31601 1.90201 2.68401 1.90201 2.29301 2.29301C1.90201 2.68401 1.90201 3.31601 2.29301 3.70701L8.58601 10L2.29301 16.293C1.90201 16.684 1.90201 17.316 2.29301 17.707C2.48801 17.902 2.74401 18 3.00001 18C3.25601 18 3.51201 17.902 3.70701 17.707L10 11.414L16.293 17.707C16.488 17.902 16.744 18 17 18C17.256 18 17.512 17.902 17.707 17.707C18.098 17.316 18.098 16.684 17.707 16.293L11.414 10Z" fill="white"/>
</mask>
<g mask="url(#mask0)">
<rect width="21" height="21" fill="#637381"/>
</g>
</svg>
