<?xml version="1.0" standalone="no"?>
<!-- Generator: Adobe Fireworks 10, Export SVG Extension by Aaron Beall (http://fireworks.abeall.com) . Version: 0.6.1  -->
<!DOCTYPE svg PUBLIC "-//W3C//DTD SVG 1.1//EN" "http://www.w3.org/Graphics/SVG/1.1/DTD/svg11.dtd">
<svg id="Untitled-Page%201" viewBox="0 0 400 496" style="background-color:#ffffff00" version="1.1"
	xmlns="http://www.w3.org/2000/svg" xmlns:xlink="http://www.w3.org/1999/xlink" xml:space="preserve"
	x="0px" y="0px" width="400px" height="496px"
>
	<path d="M 343.75 56.6971 C 306.25 18.9878 258.4822 0.1328 200.5737 0.1328 C 142.794 0.1328 94.9618 19.2529 56.9508 57.4276 C 18.9414 95.602 0 143.1377 0 200.0345 C 0 257.196 18.8771 304.7321 56.6323 342.6408 C 91.8757 378.0898 136.0113 396.9147 189.0908 399.265 L 189.0908 297.1445 C 165.2444 295.1511 145.9855 286.1875 131.3133 270.2753 C 114.477 252.0842 106.1207 227.8519 106.1207 197.5114 C 106.1207 166.9722 114.477 142.7388 131.3133 124.8137 C 148.0868 106.8886 170.8546 97.8589 199.6177 97.8589 C 228.3164 97.8589 251.2118 106.8886 268.3033 124.9467 C 285.331 143.0048 293.8771 167.2376 293.8771 197.5114 C 293.8771 223.4102 287.5971 244.8853 275.091 261.9242 L 351.9997 333.5446 C 383.9727 297.2123 400 252.7261 400 200.0345 C 400 142.1416 381.25 94.4072 343.75 56.6971 ZM 142.8922 201.3805 C 142.8922 229.7512 162.9206 253.2527 189.0908 257.4764 L 189.0908 181.6803 L 243.3633 232.3319 C 248.933 223.436 252.2089 212.7832 252.2089 201.3805 C 252.2089 170.02 227.7377 144.5976 197.5497 144.5976 C 167.3623 144.5976 142.8922 170.02 142.8922 201.3805 Z" fill="#ffffff"/>
	<path id="iconfinder_cursor_309088" d="M 222.5569 267.6322 L 359.2613 395.0327 L 293.1874 400.7204 L 330.7806 483.7578 L 305.7184 495.1328 L 269.2638 410.9576 L 222.5569 455.3201 L 222.5569 267.6322 " fill="#ffffff"/>
</svg>