<svg width="14" height="14" viewBox="0 0 6 6" fill="currentColor" xmlns="http://www.w3.org/2000/svg"><polygon points="5.9,5.9 5.6,5.9 5.3,6 5,5.7 4.7,5.8 4.4,5.8 4.1,5.8 3.9,5.7 3.6,5.7 3.3,5.8 3,5.9 2.7,5.8 2.4,5.8 2.1,5.8 1.9,5.7 1.6,5.7 1.3,5.7 1,5.8 0.7,5.8 0.4,5.8 0.1,5.9 0,5.5 0.1,5.3 0,5 0.3,4.7 0.3,4.4 0.2,4.1 0.2,3.8 0.1,3.5 0.3,3.3 0.1,3 0.1,2.7 0.2,2.4 0.1,2.1 0.1,1.8 0.1,1.5 0.2,1.3 0.3,1 0,0.7 0,0.4 0.3,0.2 0.4,0.1 0.7,0.1 1,0.2 1.3,0.1 1.6,0.3 1.9,0.1 2.1,0.1 2.4,0.2 2.7,0.1 3,0.3 3.3,0.2 3.6,0.2 3.8,0.2 4.1,0.1 4.4,0.3 4.7,0.1 5,0.2 5.3,0.1 5.6,0 5.9,0 5.8,0.4 6,0.7 6,1 5.9,1.2 5.7,1.5 5.7,1.8 5.9,2.1 5.7,2.4 5.8,2.7 6,3 5.9,3.3 5.8,3.5 5.8,3.8 5.8,4.1 6,4.4 5.8,4.7 5.7,5 5.7,5.3 5.8,5.5"></polygon></svg>