<?xml version="1.0" encoding="utf-8"?>
<!-- Generator: Adobe Illustrator 16.0.0, SVG Export Plug-In . SVG Version: 6.00 Build 0)  -->
<!DOCTYPE svg PUBLIC "-//W3C//DTD SVG 1.1//EN" "http://www.w3.org/Graphics/SVG/1.1/DTD/svg11.dtd">
<svg version="1.1" id="yith-wcms-billing2-icon" class="yith-wcms-icon" data-name="yith-wcms-billing2-icon" xmlns="http://www.w3.org/2000/svg" xmlns:xlink="http://www.w3.org/1999/xlink" x="0px" y="0px"
	  viewBox="0 0 18.417 28.125" enable-background="new 0 0 18.417 28.125" xml:space="preserve">
<g>
	<g>
		<path d="M4.292,28.125c-0.24,0-0.465-0.122-0.596-0.324l-1.121-1.738l-1.305,1.701c-0.185,0.241-0.505,0.336-0.79,0.24
			C0.193,27.907,0,27.637,0,27.333V0.708C0,0.317,0.317,0,0.708,0h17c0.392,0,0.708,0.317,0.708,0.708v26.625
			c0,0.309-0.199,0.582-0.493,0.675c-0.295,0.093-0.614-0.014-0.793-0.265l-1.188-1.674L15.075,27.6
			c-0.123,0.215-0.349,0.352-0.596,0.359c-0.238-0.002-0.482-0.116-0.616-0.324l-1.021-1.583l-0.887,1.621
			c-0.115,0.211-0.33,0.349-0.569,0.367c-0.238,0.018-0.472-0.087-0.617-0.278l-1.387-1.83l-1.354,1.824
			c-0.137,0.185-0.345,0.287-0.587,0.286c-0.23-0.006-0.444-0.124-0.572-0.315l-1.035-1.553l-0.929,1.6
			c-0.124,0.213-0.35,0.347-0.596,0.353C4.303,28.125,4.297,28.125,4.292,28.125z M5.792,24.125c0.236,0,0.458,0.118,0.59,0.315
			l1.108,1.662l1.317-1.774c0.133-0.18,0.371-0.264,0.569-0.286c0.222,0,0.431,0.104,0.565,0.28l1.296,1.711l0.934-1.706
			c0.12-0.219,0.346-0.359,0.596-0.368c0.261-0.017,0.486,0.114,0.622,0.324l1.032,1.6l0.839-1.481
			c0.12-0.21,0.339-0.346,0.581-0.358c0.251-0.019,0.474,0.1,0.614,0.297L17,25.11V1.417H1.417v23.828l0.646-0.842
			c0.141-0.183,0.365-0.292,0.591-0.277c0.23,0.009,0.442,0.13,0.567,0.324l1.039,1.611l0.919-1.583
			c0.123-0.211,0.346-0.345,0.591-0.353C5.777,24.125,5.785,24.125,5.792,24.125z"/>
	</g>
	<g>
		<g>
			<path d="M3.159,4.484H2.875c-0.313,0-0.567-0.254-0.567-0.567S2.563,3.35,2.875,3.35h0.284c0.313,0,0.567,0.254,0.567,0.567
				S3.472,4.484,3.159,4.484z"/>
		</g>
		<g>
			<path d="M13.6,4.484h-0.597c-0.313,0-0.567-0.254-0.567-0.567S12.69,3.35,13.003,3.35H13.6c0.313,0,0.567,0.254,0.567,0.567
				S13.913,4.484,13.6,4.484z M11.512,4.484h-0.597c-0.313,0-0.567-0.254-0.567-0.567s0.254-0.567,0.567-0.567h0.597
				c0.313,0,0.567,0.254,0.567,0.567S11.825,4.484,11.512,4.484z M9.424,4.484H8.827c-0.313,0-0.567-0.254-0.567-0.567
				S8.514,3.35,8.827,3.35h0.597c0.313,0,0.567,0.254,0.567,0.567S9.737,4.484,9.424,4.484z M7.335,4.484H6.739
				c-0.313,0-0.567-0.254-0.567-0.567S6.426,3.35,6.739,3.35h0.597c0.313,0,0.567,0.254,0.567,0.567S7.648,4.484,7.335,4.484z
				 M5.247,4.484H4.65c-0.313,0-0.567-0.254-0.567-0.567S4.337,3.35,4.65,3.35h0.597c0.313,0,0.567,0.254,0.567,0.567
				S5.56,4.484,5.247,4.484z"/>
		</g>
		<g>
			<path d="M15.375,4.484h-0.284c-0.313,0-0.567-0.254-0.567-0.567s0.254-0.567,0.567-0.567h0.284c0.313,0,0.567,0.254,0.567,0.567
				S15.688,4.484,15.375,4.484z"/>
		</g>
	</g>
	<g>
		<path d="M6.292,8.509h-3.25c-0.235,0-0.425-0.19-0.425-0.425s0.19-0.425,0.425-0.425h3.25c0.235,0,0.425,0.19,0.425,0.425
			S6.527,8.509,6.292,8.509z"/>
	</g>
	<g>
		<path d="M10.542,11.009h-7.5c-0.235,0-0.425-0.19-0.425-0.425s0.19-0.425,0.425-0.425h7.5c0.235,0,0.425,0.19,0.425,0.425
			S10.777,11.009,10.542,11.009z"/>
	</g>
	<g>
		<path d="M15.375,11.009h-3.333c-0.235,0-0.425-0.19-0.425-0.425s0.19-0.425,0.425-0.425h3.333c0.235,0,0.425,0.19,0.425,0.425
			S15.61,11.009,15.375,11.009z"/>
	</g>
	<g>
		<g>
			<path d="M10.542,13.676h-7.5c-0.235,0-0.425-0.19-0.425-0.425s0.19-0.425,0.425-0.425h7.5c0.235,0,0.425,0.19,0.425,0.425
				S10.777,13.676,10.542,13.676z"/>
		</g>
		<g>
			<path d="M15.375,13.676h-3.333c-0.235,0-0.425-0.19-0.425-0.425s0.19-0.425,0.425-0.425h3.333c0.235,0,0.425,0.19,0.425,0.425
				S15.61,13.676,15.375,13.676z"/>
		</g>
	</g>
	<g>
		<g>
			<path d="M10.542,16.342h-7.5c-0.235,0-0.425-0.19-0.425-0.425s0.19-0.425,0.425-0.425h7.5c0.235,0,0.425,0.19,0.425,0.425
				S10.777,16.342,10.542,16.342z"/>
		</g>
		<g>
			<path d="M15.375,16.342h-3.333c-0.235,0-0.425-0.19-0.425-0.425s0.19-0.425,0.425-0.425h3.333c0.235,0,0.425,0.19,0.425,0.425
				S15.61,16.342,15.375,16.342z"/>
		</g>
	</g>
	<g>
		<g>
			<path d="M10.542,19.009h-7.5c-0.235,0-0.425-0.19-0.425-0.425s0.19-0.425,0.425-0.425h7.5c0.235,0,0.425,0.19,0.425,0.425
				S10.777,19.009,10.542,19.009z"/>
		</g>
		<g>
			<path d="M15.375,19.009h-3.333c-0.235,0-0.425-0.19-0.425-0.425s0.19-0.425,0.425-0.425h3.333c0.235,0,0.425,0.19,0.425,0.425
				S15.61,19.009,15.375,19.009z"/>
		</g>
	</g>
	<g>
		<g>
			<path d="M10.542,21.676h-7.5c-0.235,0-0.425-0.19-0.425-0.425s0.19-0.425,0.425-0.425h7.5c0.235,0,0.425,0.19,0.425,0.425
				S10.777,21.676,10.542,21.676z"/>
		</g>
		<g>
			<path d="M15.375,21.676h-3.333c-0.235,0-0.425-0.19-0.425-0.425s0.19-0.425,0.425-0.425h3.333c0.235,0,0.425,0.19,0.425,0.425
				S15.61,21.676,15.375,21.676z"/>
		</g>
	</g>
</g>
</svg>
