<svg id="yith-wcms-billing-icon" class="yith-wcms-icon" data-name="yith-wcms-billing-icon" xmlns="http://www.w3.org/2000/svg" viewBox="0 0 21.91 20.15">
  <g>
    <path d="M25,24.11H3.06V7.46H25Zm-21-.88H24.09V8.33H3.93Z" transform="translate(-3.06 -3.95)"/>
    <rect x="13.14" y="8.32" width="6.13" height="0.88"/>
    <rect x="1.75" y="1.75" width="18.4" height="0.88"/>
    <rect x="3.51" width="14.9" height="0.88"/>
    <rect x="13.14" y="10.95" width="6.13" height="0.88"/>
    <rect x="13.14" y="13.58" width="6.13" height="0.88"/>
    <path d="M15.33,20.16H5.69v-.43c0-2.5,1.17-2.84,2.2-3.13l.45-.14c.81-.27.85-.37.85-.53s-.09-.32-.27-.57a2.78,2.78,0,0,1-.6-1.74,2.09,2.09,0,0,1,2.19-2.22,2.09,2.09,0,0,1,2.19,2.22,2.72,2.72,0,0,1-.61,1.74c-.18.25-.27.38-.27.57s0,.26.85.53l.45.14c1,.29,2.21.63,2.21,3.13Zm-8.75-.87h7.86c-.1-1.43-.67-1.6-1.56-1.85-.16-.05-.32-.09-.48-.15-.68-.23-1.46-.48-1.46-1.36a1.8,1.8,0,0,1,.43-1.08,1.87,1.87,0,0,0,.45-1.23,1.22,1.22,0,0,0-1.31-1.34,1.22,1.22,0,0,0-1.32,1.34,1.87,1.87,0,0,0,.45,1.23,1.8,1.8,0,0,1,.43,1.08c0,.88-.77,1.13-1.45,1.36l-.49.15C7.24,17.69,6.67,17.86,6.58,19.29Z" transform="translate(-3.06 -3.95)"/>
  </g>
</svg>
