<?xml version="1.0" encoding="utf-8"?>
<!-- Generator: Adobe Illustrator 16.0.0, SVG Export Plug-In . SVG Version: 6.00 Build 0)  -->
<!DOCTYPE svg PUBLIC "-//W3C//DTD SVG 1.1//EN" "http://www.w3.org/Graphics/SVG/1.1/DTD/svg11.dtd">
<svg version="1.1" id="yith-wcms-login2-icon" class="yith-wcms-icon" data-name="yith-wcms-login2-icon" xmlns="http://www.w3.org/2000/svg" xmlns:xlink="http://www.w3.org/1999/xlink" x="0px" y="0px"
	  viewBox="0 0 21 25.583" enable-background="new 0 0 21 25.583" xml:space="preserve">
<g>
	<g>
		<path class="cls-1" d="M20.292,25.583H8.625c-0.392,0-0.708-0.317-0.708-0.708s0.317-0.708,0.708-0.708h10.958V1.417H8.458
			C8.067,1.417,7.75,1.1,7.75,0.708S8.067,0,8.458,0h11.833C20.684,0,21,0.317,21,0.708v24.167
			C21,25.267,20.684,25.583,20.292,25.583z"/>
	</g>
	<g>
		<path d="M12.458,13.917H0.708C0.317,13.917,0,13.6,0,13.208S0.317,12.5,0.708,12.5h10.196L7.798,8.923
			c-0.256-0.296-0.225-0.743,0.07-1c0.296-0.256,0.743-0.225,1,0.07l4.125,4.75c0.182,0.21,0.225,0.506,0.11,0.759
			C12.988,13.755,12.736,13.917,12.458,13.917z"/>
	</g>
	<g>
		<path d="M8.708,18.792c-0.151,0-0.303-0.048-0.432-0.147c-0.31-0.238-0.368-0.684-0.129-0.994l3.75-4.875
			c0.239-0.31,0.684-0.368,0.994-0.129c0.31,0.238,0.368,0.684,0.129,0.994l-3.75,4.875C9.131,18.697,8.92,18.792,8.708,18.792z"/>
	</g>
</g>
</svg>
