<svg id="yith-wcms-order-icon" class="yith-wcms-icon" data-name="yith-wcms-order-icon" xmlns="http://www.w3.org/2000/svg" viewBox="0 0 17.65 21.01">
  <defs>
  </defs>
  <g>
    <path class="cls-1" d="M18.71,3.93H5.51v21H23.16V8.38ZM19,5.36l2.77,2.77H19ZM6.35,24.1V4.77H18.12V9h4.2V24.1Z" transform="translate(-5.51 -3.93)"/>
    <rect class="cls-1" x="4.2" y="4.2" width="7.56" height="0.84"/>
    <rect class="cls-1" x="4.2" y="6.72" width="9.24" height="0.84"/>
    <rect class="cls-1" x="4.2" y="9.24" width="9.24" height="0.84"/>
    <path class="cls-1" d="M18.92,19a4.79,4.79,0,0,0-3.6,1.77c0-.14.07-.27.1-.38.37-1.36.55-2,.07-2.29s-.85.3-1.46,1.33c-.34.57-1.36,2.29-1.76,2.14-.24-.1-.5-.72-.66-1.51.87-1.35,1.68-2.92,1.39-3.74a.91.91,0,0,0-.7-.61c-.33-.08-1.12-.12-1.5,1.1a7.63,7.63,0,0,0-.08,3.05c-.41.63-.87,1.27-1.33,1.85a.41.41,0,0,0,.06.59.41.41,0,0,0,.59-.07c.22-.27.57-.72,1-1.26a2.12,2.12,0,0,0,1,1.38.84.84,0,0,0,.35.07c.86,0,1.63-1.22,2.32-2.37l0,.12c-.36,1.31-.53,1.92-.06,2.15s.78-.25,1-.55A4.15,4.15,0,0,1,19,19.86a.42.42,0,1,0-.07-.84ZM11.6,17.08c.15-.47.32-.55.43-.55h.08c.08,0,.09.05.1.07a3.94,3.94,0,0,1-.77,2.11A5.28,5.28,0,0,1,11.6,17.08Z" transform="translate(-5.51 -3.93)"/>
  </g>
</svg>
