<?xml version="1.0" encoding="utf-8"?>
<!-- Generator: Adobe Illustrator 16.0.0, SVG Export Plug-In . SVG Version: 6.00 Build 0)  -->
<!DOCTYPE svg PUBLIC "-//W3C//DTD SVG 1.1//EN" "http://www.w3.org/Graphics/SVG/1.1/DTD/svg11.dtd">
<svg version="1.1" id="yith-wcms-shipping2-icon" class="yith-wcms-icon" data-name="yith-wcms-shipping2-icon" xmlns="http://www.w3.org/2000/svg" xmlns:xlink="http://www.w3.org/1999/xlink" x="0px" y="0px"
	  viewBox="0 0 28 29.417" enable-background="new 0 0 28 29.417" xml:space="preserve">
<g>
	<g>
		<path d="M9.333,29.417c-2.734,0-4.958-2.224-4.958-4.958S6.599,19.5,9.333,19.5s4.958,2.224,4.958,4.958
			S12.068,29.417,9.333,29.417z M9.333,20.917c-1.953,0-3.542,1.589-3.542,3.542S7.381,28,9.333,28s3.542-1.589,3.542-3.542
			S11.286,20.917,9.333,20.917z"/>
	</g>
	<g>
		<path d="M8.375,20.834c-0.333,0-0.63-0.236-0.695-0.576L4.492,3.586L0.368,1.33C0.025,1.143-0.101,0.712,0.087,0.368
			c0.188-0.343,0.619-0.469,0.962-0.281l4.417,2.417c0.186,0.102,0.316,0.281,0.356,0.488l3.25,17
			c0.073,0.385-0.179,0.756-0.563,0.83C8.464,20.83,8.419,20.834,8.375,20.834z"/>
	</g>
	<g>
		<path d="M13.583,25.167c-0.321,0-0.612-0.22-0.689-0.545c-0.09-0.381,0.145-0.763,0.526-0.853l13.708-3.25
			c0.381-0.091,0.763,0.145,0.853,0.526s-0.145,0.763-0.526,0.853l-13.708,3.25C13.692,25.161,13.637,25.167,13.583,25.167z"/>
	</g>
	<g>
		<path d="M13.252,19.928c-0.129,0-0.257-0.037-0.367-0.107c-0.154-0.097-0.263-0.252-0.302-0.429l-1.784-7.97
			c-0.083-0.37,0.15-0.737,0.52-0.819l11.355-2.542c0.179-0.039,0.364-0.007,0.517,0.09c0.154,0.097,0.263,0.251,0.302,0.429
			l1.784,7.97c0.04,0.178,0.007,0.364-0.09,0.517c-0.097,0.154-0.252,0.263-0.429,0.302l-11.355,2.542
			C13.352,19.922,13.302,19.928,13.252,19.928z M12.288,11.792l1.484,6.631l10.017-2.242l-1.484-6.631L12.288,11.792z"/>
	</g>
	<g>
		<path d="M11.483,11.813c-0.299,0-0.569-0.207-0.637-0.511L9.23,4.08C9.192,3.911,9.223,3.734,9.316,3.588
			c0.093-0.146,0.24-0.25,0.409-0.288l6.02-1.346c0.353-0.08,0.701,0.143,0.78,0.495l1.617,7.221
			c0.038,0.169,0.007,0.346-0.086,0.492c-0.093,0.146-0.24,0.25-0.409,0.288l-6.02,1.347C11.579,11.807,11.53,11.813,11.483,11.813z
			 M10.647,4.432l1.332,5.947l4.746-1.062l-1.332-5.946L10.647,4.432z"/>
	</g>
</g>
</svg>
