<?xml version="1.0" encoding="UTF-8"?>
<svg id="Layer_1" data-name="Layer 1" xmlns="http://www.w3.org/2000/svg" viewBox="0 0 500 500">
  <g>
    <path d="m447.91,203.89c.13.02.24.69-.15,1.92-.4,1.19-1.42,2.93-3.51,4.27-1.03.67-2.32,1.24-3.83,1.5-1.5.27-3.27.24-5.02-.44-3.49-1.26-6.5-4.84-7.25-9.39-.36-2.26-.1-4.85.95-7.15,1.03-2.31,2.73-4.39,4.88-5.99,2.13-1.6,4.82-2.73,7.65-3.1,2.83-.39,5.78-.09,8.59.8,2.82.88,5.5,2.34,7.89,4.33,2.34,2.02,4.35,4.52,5.74,7.47,1.41,2.92,2.13,6.33,1.81,9.8-.34,3.48-1.84,6.77-3.96,9.48-4.25,5.44-10.54,8.54-16.73,9.49-6.23.98-12.5-.16-17.6-2.98-5.1-2.86-8.81-7.19-11.04-11.76-2.24-4.58-3-9.46-2.55-13.75.23-2.15.73-4.15,1.38-5.97.67-1.81,1.51-3.42,2.4-4.85,1.83-2.84,3.89-4.91,5.75-6.33,3.78-2.82,6.42-3.27,6.49-3.05.17.35-2.16,1.39-5.31,4.41-1.55,1.52-3.24,3.59-4.69,6.27-.69,1.35-1.34,2.84-1.84,4.48-.48,1.64-.81,3.42-.9,5.28-.2,3.73.63,7.89,2.7,11.76,2.06,3.86,5.35,7.47,9.64,9.74,4.28,2.25,9.6,3.14,14.85,2.25,5.21-.85,10.42-3.52,13.79-7.85,1.67-2.14,2.76-4.6,3.02-7.1.24-2.51-.24-5.09-1.33-7.4-1.06-2.33-2.66-4.38-4.52-6.03-1.88-1.61-4.05-2.86-6.31-3.63s-4.59-1.05-6.79-.81c-2.19.23-4.19,1-5.9,2.18-1.69,1.17-3.03,2.72-3.88,4.39-.86,1.68-1.13,3.47-.95,5.18.38,3.47,2.51,6.35,5,7.44,2.45,1.17,5.16.64,6.97-.24,1.86-.9,2.95-2.18,3.57-3.1.59-.95.8-1.56.99-1.51h0Z" style="fill: #f90;"/>
    <path d="m48.37,330.92c-.48-1.06-5.05-.01-10.12,2.98-2.02-5.93-3.4-10.51-4.52-10.39-.63.08-1.02,1.8-.92,4.56.08,2.28.56,5.28,1.51,8.5-3.97,3.09-6.21,6.19-5.51,6.99.65.75,3.43-.56,7.05-2.72,1.24,2.93,2.69,5.42,4,7.17,1.65,2.2,3.05,3.3,3.58,2.97,1.03-.67-1.23-5.89-3.63-12.6,5.09-3.32,9.08-6.3,8.55-7.44h.01Z" style="fill: #f7354d;"/>
    <path d="m120.56,37.06c-.02-.3.93-.74,2.77-.75,1.81,0,4.6.41,7.46,2.45,2.83,1.98,5.4,6.15,4.84,11.09-.24,2.44-1.52,5.07-3.52,6.84-1.99,1.81-4.47,2.97-7.14,3.48-2.67.51-5.42.32-7.9-.61-2.48-.91-4.61-2.68-5.91-4.72-2.67-4.07-2.5-8.99-.74-12.08,1.72-3.14,4.27-4.63,6.01-5.21,1.8-.59,2.85-.34,2.9-.07.07.34-.82.73-2.09,1.68-1.25.92-2.94,2.52-3.85,4.97-.43,1.22-.65,2.57-.44,4.02.19,1.44.76,2.97,1.72,4.26.97,1.31,2.28,2.31,3.94,2.88,1.65.57,3.58.69,5.48.33,1.89-.35,3.68-1.18,4.97-2.31,1.31-1.13,2.06-2.5,2.33-4.06.27-1.55.07-3.16-.44-4.53-.5-1.39-1.33-2.51-2.26-3.44-1.91-1.84-4.11-2.69-5.63-3.19-1.55-.51-2.5-.69-2.51-1.03h.02Z" style="fill: #06f;"/>
    <path d="m408.33,460.79c-.01-7.01-.88-12.44-2.06-12.47-1.17-.02-2.25,5.36-2.53,12.38-6.97.06-12.25,1.03-12.24,2.17,0,1.15,5.26,2.07,12.17,2.39.08,6.64.92,11.68,2.05,11.71,1.14.02,2.17-4.97,2.5-11.58,7.18.03,12.77-.64,12.83-1.81.06-1.17-5.48-2.43-12.73-2.77h.01Z" style="fill: #0c0;"/>
  </g>
  <rect width="500" height="500" style="fill: none;"/>
</svg>