<?xml version="1.0" encoding="UTF-8"?>
<svg id="Layer_1" data-name="Layer 1" xmlns="http://www.w3.org/2000/svg" viewBox="0 0 500 500">
  <g>
    <path d="m295.09,489.75c-7.74,0-15.55-.44-23.19-1.3-7.15-.81-12.29-7.25-11.48-14.4s7.26-12.28,14.4-11.48c6.69.75,13.51,1.14,20.28,1.14,72.84,0,137.85-43.51,165.63-110.84,2.74-6.65,10.35-9.82,17-7.07,6.65,2.74,9.81,10.36,7.07,17-15.31,37.11-40.99,68.71-74.27,91.41-34.1,23.25-74.02,35.54-115.44,35.54h0Z" style="fill: #06f;"/>
    <path d="m258.35,89.04c-3.02,0-6.04-1.15-8.34-3.45-4.6-4.61-4.6-12.07,0-16.68l55.22-55.22c4.61-4.6,12.07-4.6,16.68,0,4.6,4.61,4.6,12.07,0,16.68l-55.22,55.22c-2.3,2.3-5.32,3.45-8.34,3.45Z" style="fill: #06f;"/>
    <path d="m372.04,59.19l-5.54-5.54,5.54-5.54c1.36-1.36,1.36-3.56,0-4.92s-3.56-1.36-4.92,0l-5.54,5.54-5.54-5.54c-1.36-1.36-3.56-1.36-4.92,0s-1.36,3.56,0,4.92l5.54,5.54-5.54,5.54c-1.36,1.36-1.36,3.56,0,4.92s3.56,1.36,4.92,0l5.54-5.54,5.54,5.54c1.36,1.36,3.56,1.36,4.92,0,1.36-1.36,1.36-3.56,0-4.92Z"/>
    <path d="m185.93,462.68l-5.54-5.54,5.54-5.54c1.36-1.36,1.36-3.56,0-4.92-1.36-1.36-3.56-1.36-4.92,0l-5.54,5.54-5.54-5.54c-1.36-1.36-3.56-1.36-4.92,0s-1.36,3.56,0,4.92l5.54,5.54-5.54,5.54c-1.36,1.36-1.36,3.56,0,4.92,1.36,1.36,3.56,1.36,4.92,0l5.54-5.54,5.54,5.54c1.36,1.36,3.56,1.36,4.92,0s1.36-3.56,0-4.92Z" style="fill: #2fd6ff;"/>
    <g>
      <path d="m101.64,240.81l-69.11,69.11c.41.33.82.65,1.23.96l68.84-68.84c-.31-.41-.63-.83-.96-1.23h0Z" style="fill: #06f;"/>
      <path d="m110.47,257.62l-61.13,61.13c.57.17,1.14.32,1.72.47l59.88-59.88c-.15-.58-.3-1.15-.47-1.72Z" style="fill: #06f;"/>
      <path d="m105.18,245.81l-67.65,67.65c.45.28.91.55,1.37.82l67.09-67.09c-.26-.46-.54-.92-.82-1.37h.01Z" style="fill: #06f;"/>
      <path d="m108.15,251.39l-65.04,65.04c.51.23,1.02.45,1.53.66l64.17-64.17c-.21-.51-.43-1.02-.66-1.53h0Z" style="fill: #06f;"/>
      <path d="m112.01,264.64l-55.64,55.64c.65.09,1.3.17,1.95.24l53.92-53.92c-.07-.65-.14-1.3-.24-1.96h0Z" style="fill: #06f;"/>
      <path d="m98.11,236.88c-.18-.18-.37-.36-.56-.54l-69.49,69.49c.18.19.36.37.54.56s.37.36.56.54l69.49-69.49c-.18-.19-.36-.37-.54-.56h0Z" style="fill: #06f;"/>
      <path d="m64.43,320.77c.77-.02,1.53-.05,2.3-.1l45.66-45.66c.05-.76.09-1.53.1-2.3,0,0-48.06,48.06-48.06,48.06Z" style="fill: #06f;"/>
      <path d="m77.12,318.82l33.42-33.42c.28-.98.54-1.96.76-2.95l-37.13,37.13c.99-.22,1.97-.48,2.95-.76h0Z" style="fill: #06f;"/>
      <path d="m59.98,222.6l-45.66,45.66c-.05.76-.09,1.53-.1,2.3l48.06-48.06c-.77.02-1.53.05-2.3.1h0Z" style="fill: #06f;"/>
      <path d="m68.39,222.75l-53.92,53.92c.07.65.14,1.3.24,1.96l55.64-55.64c-.65-.09-1.3-.17-1.96-.24h0Z" style="fill: #06f;"/>
      <path d="m98.11,306.39c3-3,5.53-6.3,7.6-9.79l-17.39,17.39c3.49-2.06,6.79-4.6,9.79-7.6Z" style="fill: #06f;"/>
      <path d="m49.59,224.45l-33.42,33.42c-.28.98-.54,1.96-.76,2.95l37.13-37.13c-.99.22-1.97.48-2.95.76h0Z" style="fill: #06f;"/>
      <path d="m28.6,236.88c-3,3-5.53,6.3-7.6,9.79l17.39-17.39c-3.49,2.06-6.79,4.6-9.79,7.6Z" style="fill: #06f;"/>
      <path d="m87.8,228.99l-67.09,67.09c.26.46.54.92.82,1.37l67.65-67.65c-.45-.28-.91-.55-1.37-.82h0Z" style="fill: #06f;"/>
      <path d="m92.95,232.39l-68.84,68.84c.31.41.63.83.96,1.23l69.11-69.11c-.41-.33-.82-.65-1.23-.96Z" style="fill: #06f;"/>
      <path d="m75.65,224.04l-59.89,59.88c.15.58.3,1.15.47,1.72l61.13-61.13c-.57-.17-1.14-.32-1.72-.47h.01Z" style="fill: #06f;"/>
      <path d="m82.07,226.17l-64.17,64.17c.21.51.43,1.02.66,1.53l65.04-65.04c-.51-.23-1.02-.45-1.53-.66Z" style="fill: #06f;"/>
    </g>
    <path d="m90.7,454.02c-3.32,0-6.64-1.27-9.17-3.8-5.06-5.06-5.06-13.27,0-18.33l83.28-83.28c5.06-5.06,13.27-5.06,18.33,0s5.06,13.27,0,18.33l-83.28,83.28c-2.53,2.53-5.85,3.8-9.17,3.8h.01Z"/>
  </g>
  <rect width="500" height="500" style="fill: none;"/>
</svg>