<?xml version="1.0" encoding="UTF-8"?>
<svg id="Layer_1" data-name="Layer 1" xmlns="http://www.w3.org/2000/svg" viewBox="0 0 500 500">
  <rect width="500" height="500" style="fill: none;"/>
  <g>
    <path d="m227.83,448.8c-.29.67-1.17,1.06-2.6,1.15-.72.05-1.57.02-2.56-.07-1-.09-2.12-.26-3.34-.57-4.95-1.08-11.77-3.77-19.49-8.51-1.97-1.13-3.86-2.56-5.9-3.98-2.01-1.45-3.99-3.11-6.06-4.81-1.96-1.82-4.09-3.61-6.04-5.71-.99-1.03-2.02-2.06-3.01-3.16-.96-1.12-1.93-2.26-2.92-3.41-3.81-4.7-7.59-9.89-10.77-15.73-3.22-5.81-6.06-12.13-8.28-18.86-2.15-6.76-3.56-13.54-4.35-20.13-.84-6.59-.82-13.01-.5-19.06.12-1.51.25-3,.37-4.47.16-1.47.39-2.9.58-4.32.34-2.84,1.02-5.55,1.54-8.17.67-2.6,1.31-5.1,2.08-7.45.82-2.34,1.52-4.6,2.45-6.68,3.47-8.37,7.42-14.54,10.8-18.32.8-.97,1.61-1.77,2.37-2.42.75-.66,1.43-1.18,2.03-1.56,1.22-.76,2.15-.97,2.78-.59,2.69,1.61-.97,11.47-3.55,27.09-.39,1.93-.56,4.01-.89,6.12-.28,2.12-.44,4.35-.68,6.62-.08,2.3-.35,4.64-.33,7.08-.01,1.21-.07,2.44-.07,3.69.03,1.24.06,2.5.09,3.78.31,10.18,1.99,21.24,5.49,32.25,3.63,10.97,8.74,20.92,14.46,29.34.72,1.05,1.44,2.09,2.15,3.11.73,1.01,1.49,1.97,2.21,2.95,1.41,1.98,3,3.72,4.42,5.54,1.52,1.7,2.96,3.41,4.43,4.97,1.5,1.52,2.86,3.1,4.31,4.44,11.25,11.14,20,16.98,18.76,19.86h.02Z" style="fill: #06f;"/>
    <path d="m319.38,81.79c-2.89.89-6.82-3.84-12.72-10.16-5.86-6.36-14.1-14.31-24.67-20.37-10.58-6.05-21.61-9.13-30.06-10.97-8.44-1.9-14.5-2.89-15.2-5.83-.32-1.41.8-3.13,3.37-4.85,2.55-1.73,6.57-3.35,11.8-4.34,5.22-1,11.66-1.23,18.71-.14,7.04,1.07,14.67,3.56,21.94,7.69,7.24,4.18,13.25,9.5,17.74,15.03,4.51,5.53,7.56,11.2,9.35,16.21,1.79,5.01,2.43,9.3,2.23,12.38-.19,3.08-1.1,4.92-2.48,5.36h-.01Z" style="fill: #f60;"/>
    <path d="m286.47,463.48c.78,2.8-.61,6.01-4.11,8.52-1.74,1.25-3.98,2.26-6.58,2.91-2.59.62-5.53.86-8.57.55-3.04-.32-5.87-1.16-8.28-2.29-2.41-1.16-4.4-2.61-5.85-4.19-2.92-3.17-3.62-6.6-2.29-9.18,1.35-2.63,4.27-4.08,7.55-4.9,3.32-.8,7.06-1,11.04-.58,3.98.4,7.6,1.36,10.69,2.82,3.05,1.47,5.61,3.48,6.4,6.33h0Z" style="fill: #2fd6ff;"/>
    <path d="m331.58,115.6c-1.48-.14-2.66-1.45-3.67-3.19-1.01-1.76-1.88-3.96-2.62-6.42-.76-2.45-1.26-4.77-1.41-6.79-.13-2.01.12-3.76,1.27-4.7,1.12-.92,3.03-.75,5.09.7,2.05,1.42,4.14,4.18,5.22,7.7,1.07,3.52.87,6.98-.04,9.3-.9,2.35-2.4,3.56-3.84,3.42v-.02Z" style="fill: #ffb400;"/>
  </g>
</svg>