<svg version="1.1" xmlns="http://www.w3.org/2000/svg" x="0px" y="0px"
	 viewBox="0 0 226.9 229.4" enable-background="new 0 0 226.9 229.4" xml:space="preserve">
<g id="_x30_5_1_">
	<g>
		<path fill="#FFFFFF" stroke="#231F20" stroke-miterlimit="10" d="M25.1,200.7h64.5l23.9,25.3c3.6,3.8,9.4,3.8,13,0l23.9-25.3h64.5
			c6.3,0,11.5-5.4,11.5-12.1V54.9c0-11.8-7.5-22.1-18.2-25.2L126.5,6.3c-4.2-1.2-8.6-1.2-12.9,0L31.9,29.7
			c-10.7,3.1-18.2,13.4-18.2,25.2v133.7C13.7,195.3,18.8,200.7,25.1,200.7z"/>
		<line fill="#FFFFFF" stroke="#231F20" stroke-miterlimit="10" x1="7.3" y1="177" x2="7.3" y2="102.2"/>
		<line fill="#FFFFFF" stroke="#231F20" stroke-miterlimit="10" x1="0.5" y1="166.4" x2="0.5" y2="139.6"/>
		<line fill="#FFFFFF" stroke="#231F20" stroke-miterlimit="10" x1="206.7" y1="21.5" x2="132.9" y2="0.5"/>
		<polyline fill="#FFFFFF" stroke="#231F20" stroke-miterlimit="10" points="164.3,207.6 152.5,207.6 140.6,219.9 		"/>
		<path d="M35.7,191.5H93l21.2,22.5c3.2,3.4,8.4,3.4,11.5,0l21.2-22.5h57.3c5.6,0,10.2-4.8,10.2-10.8V61.8
			c0-10.5-6.6-19.7-16.2-22.4l-72.6-20.8c-3.7-1.1-7.7-1.1-11.4,0L41.7,39.4c-9.5,2.7-16.2,11.9-16.2,22.4v118.8
			C25.5,186.6,30,191.5,35.7,191.5z"/>
	</g>
</g>
</svg>
