<?xml version="1.0" encoding="UTF-8"?>
<svg id="Layer_1" data-name="Layer 1" xmlns="http://www.w3.org/2000/svg" viewBox="0 0 475.82 475.59">
  <path d="m475.82,233.27c-.39,48.78-34.12,82.5-79.26,83.93-37.88,1.17-68.1,24.65-76.8,59.8-1.55,7.13-2.33,14.53-2.46,21.79-1.81,43.46-36.58,76.92-79.78,76.79-43.2-.13-77.58-34.11-78.87-77.57-1.43-47.61-32.95-79.13-80.95-80.82C34.12,315.51.13,281.01,0,238.2c0-42.94,33.99-78.22,76.93-79.78,49.42-1.94,80.04-32.56,81.73-81.85C160.21,34.67,194.07,1.07,235.97.03c41.51-1.17,77.44,30.62,80.95,71.61,3.5,40.99-25.16,79.39-66.8,85.75-8.04,1.29-16.47.91-24.52,2.2-41.64,6.62-70.96,44.62-66.67,85.88,4.28,41.25,39.83,72.91,81.08,71.74,42.29-1.04,76.28-35.15,77.18-77.44,1.04-34.77,16.35-60.71,48.26-74.59,31.91-13.88,58.89-7.78,83.8,13.62,17.9,15.44,26.2,35.8,26.59,54.49Zm-401.23,96.25c36.19-.26,65.9,28.93,66.16,64.73.39,36.45-28.67,66.29-65.12,66.68h-.13c-36.06.39-66.03-29.32-66.16-65.77-.13-36.45,29.32-65.38,65.25-65.64Zm3.5-317.56c36.19-.26,65.9,28.93,66.16,64.73.39,36.45-28.67,66.29-65.12,66.67h-.13c-36.06.39-66.03-29.45-66.16-65.77S42.16,12.22,78.09,11.96Zm319.64,317.56c36.06-.26,65.9,28.93,66.16,64.73.39,36.45-28.67,66.29-65.12,66.68h-.13c-36.06.39-66.03-29.32-66.29-65.77s29.45-65.38,65.38-65.64Zm.91-321.97c-35.93,0-65.64,29.45-65.64,65.25-.13,1.29,0,2.59,0,4.02s-.13,2.99-.13,4.54c-.78,8.43-1.81,22.7-5.58,30.23-11.28,22.18-52.8,59.02-77.7,58.76-3.11,0-6.23.26-9.34.65h-1.82c-35.93,0-65.64,29.45-65.64,65.25s29.71,66.29,65.77,66.16c36.45-.13,65.77-29.71,65.64-66.16v-.13c0-.78,0-1.43-.13-2.21h.13c.39-5.45-1.29-16.86.39-22.18,8.17-25.81,63.7-73.29,91.32-72.65h2.85c36.45-.26,65.77-29.83,65.64-66.29,0-35.93-29.58-65.25-65.77-65.25Z"/>
</svg>