<?xml version="1.0" encoding="UTF-8"?>
<svg id="Layer_1" data-name="Layer 1" xmlns="http://www.w3.org/2000/svg" viewBox="0 0 382.66 359.15">
  <path d="m378.12,235.78c-6.87-17.25-21.45-29.18-33.85-42.35-29.62-31.45-29.79-74.85-39.85-114.49C295.19,42.59,273.69,7.04,233.69.95c-20.13-3.06-40.88,1.69-59.94,7.95-20.54,6.74-38.66,16.97-57.89,26.84-18.8,9.64-43.76,18.72-62.49,28.49-12.97,6.76-26.1,20-27.98,21.86C-.43,111.61-5.29,151.11,5.11,184.78c11.6,37.56,38.41,69.83,66.22,96.79,56.89,55.15,136.83,91.44,216.89,72.53,35.77-8.45,72.8-28.66,88.09-63.79,7.42-17.04,8.74-37.11,1.81-54.52Z"/>
</svg>