<svg version="1.1" xmlns="http://www.w3.org/2000/svg" x="0px" y="0px"
	 viewBox="0 0 187.7 197.9" enable-background="new 0 0 187.7 197.9" xml:space="preserve">
<path opacity="0.5" fill="#231F20" d="M8.7,96.9c-5.7,20-5.4,41.2,9.8,55.1c25,22.9,69,26.6,99.1,24c12.9-1.1,25.9-3.8,37.5-10.8
	c11.5-7,21.5-18.6,25.5-33.2c6.4-23.8-4-49.4-16.5-69.5c-10.4-16.7-22.6-32.1-37.4-42.9C96.3-2.8,64.1,0.7,41,33.7
	C30.7,48.5,15.6,72.8,8.7,96.9z"/>
<path d="M13.9,91.7c-5.7,20-5.4,41.2,9.8,55.1c25,22.9,69,26.6,99.1,24c12.9-1.1,25.9-3.8,37.5-10.8c11.5-7,21.5-18.6,25.5-33.2
	c6.4-23.8-4-49.4-16.5-69.5c-10.4-16.7-22.6-32.1-37.4-42.9C101.5-8,69.3-4.5,46.2,28.5C35.9,43.3,20.8,67.6,13.9,91.7z"/>
<path fill="none" stroke="#231F20" stroke-width="2" stroke-miterlimit="10" d="M17.3,57.4C4.2,73.4-4,93.1,4.4,111.8
	c13.8,30.9,52.8,51.8,81.5,61.4c12.3,4.1,25.3,6.8,38.7,5c13.4-1.8,27.1-8.5,36.6-20.4c15.3-19.3,15.9-46.9,12.5-70.3
	c-2.9-19.4-8-38.4-17.3-54.3C137.2,0.7,106.3-8.9,72,12.3C56.7,21.7,33.2,38,17.3,57.4z"/>
<ellipse transform="matrix(0.6394 -0.7689 0.7689 0.6394 -109.2995 97.1315)" opacity="0.21" cx="48.9" cy="165.1" rx="32.8" ry="32.8"/>
<ellipse transform="matrix(3.763331e-02 -0.9993 0.9993 3.763331e-02 -106.5149 205.849)" cx="53.6" cy="158.2" rx="32.8" ry="32.8"/>
<path d="M26.7,49.4l0.1-6.3c0.1-4.1-4.4-6.8-8-4.8l-5.5,3.1c-3.6,2-3.7,7.2-0.1,9.3l5.4,3.3C22.1,56.1,26.6,53.6,26.7,49.4z"/>
<path d="M179.9,65.7l-8-0.9c-5.2-0.6-9.1,4.7-7,9.5l3.2,7.4c2.1,4.8,8.6,5.6,11.8,1.3l4.8-6.5C187.7,72.3,185.1,66.3,179.9,65.7z"/>
<path d="M169.6,48.6l7.5-5.2c4.9-3.4,4.3-10.8-1-13.3l-8.3-3.9c-5.4-2.6-11.5,1.6-11,7.6l0.7,9.1C158,48.7,164.7,51.9,169.6,48.6z"
	/>
</svg>
