<svg version="1.1" xmlns="http://www.w3.org/2000/svg" x="0px" y="0px"
	 viewBox="0 0 234.8 224.5" enable-background="new 0 0 234.8 224.5" xml:space="preserve">
<g>
	<g>
		<path fill="#FFFFFF" stroke="#231F20" stroke-miterlimit="10" d="M205.4,199.6v-63.8l25.9-23.6c3.9-3.5,3.9-9.3,0-12.9l-25.9-23.6
			V11.8c0-6.3-5.6-11.3-12.4-11.3H56.2c-12.1,0-22.7,7.4-25.8,18l-24,80.9c-1.2,4.2-1.2,8.6,0,12.7l24,80.9
			c3.2,10.6,13.7,18,25.8,18H193C199.9,211,205.4,205.9,205.4,199.6z"/>
		<line fill="none" stroke="#231F20" stroke-miterlimit="10" x1="181.1" y1="217.3" x2="104.5" y2="217.3"/>
		<line fill="none" stroke="#231F20" stroke-miterlimit="10" x1="170.3" y1="224" x2="142.8" y2="224"/>
		<line fill="none" stroke="#231F20" stroke-miterlimit="10" x1="22" y1="20" x2="0.5" y2="93"/>
		<path d="M191.4,191.2v-57.2l22.1-21.2c3.3-3.2,3.3-8.3,0-11.5L191.4,80V22.8c0-5.6-4.7-10.2-10.6-10.2H64.3
			c-10.3,0-19.3,6.6-22,16.1L22,101.3c-1.1,3.7-1.1,7.7,0,11.4l20.4,72.5c2.7,9.5,11.7,16.1,22,16.1h116.5
			C186.7,201.3,191.4,196.8,191.4,191.2z"/>
	</g>
</g>
</svg>
