<?xml version="1.0" encoding="UTF-8"?>
<svg id="Layer_1" data-name="Layer 1" xmlns="http://www.w3.org/2000/svg" viewBox="0 0 452.26 285.48">
  <path d="m451.44,112.69c-.63.07-1.19.55-1.91.13-.26-.15-.64-.19-.79.11-.61-.07-.72-.72-1.12-1.04-.46.02-.91.04-1.37.06-.06.06-.12.13-.16.2-.92-.05-1.47.65-2.16,1.07-.46.28-.96.5-1.42.12-.55-.46.01-.81.24-1.14.36-.54.19-.95-.23-1.34-.54-1.52-1.14,1.02-1.69-.11.62-.82.84-1.55-.71-1.5-.32,0-.7.11-.78-.39.4-.21.4-.81.26-.87-1.27-.52-.58-1.55-.59-2.33-.01-.79-.72-.91-.99-1.41-.88,1.09-2.25.21-3.24.82-.76-.83-2.2-.18-2.82-1.31-.21.17-.42.35-.63.53-1.21.29.19-.93-.57-.93-.22.28-.45.57-.68.86-.41-.32.25-1.17-.57-1.17-.32,0-.23.58-.3.89-.07,0-.15,0-.22,0-.45-.62-1.3-1.03-1-2.04.03-.1-.12-.43-.56-.42-1.1.03-2.12-.68-2.74-1.68.22-.66-.14-1.47.55-2,1.03-1.49,2.6-2.52,3.32-4.3-.07-.13-1.28.61-.64-.6.55-.46.25-1.4,1-1.74.46-.26.93-.5,1.38-.78.11-.07.15-.25.22-.37-.08,0-.16.01-.23,0-1.21-.15-.15-.84-.3-1.25,1.15-.52.47-1.94,1.3-2.62-.2-.07-.4-.14-.61-.22.8-1.55.65-1.82-1-1.82-.14,0-.28-.18-.42-.27.25-.39.58-.76.41-1.27-.95-.05-.6,1.4-1.56,1.27-.3-.41.56-.73.16-.97-.3-.17-.74.13-.74.64-.36.21-.81.26-1.05.66-.18-1.29-.96-1.36-2.02-1.01-.19.06-.49-.21-.73-.33.33-.69.66-1.37.98-2.06.85-.9,1.09-2.14,1.79-3.13.04-1.15,1.76-1.43,1.43-2.77,1.69.22.39-1.34,1.03-1.74.59-.57.49,1.51.89.34.54-1.57,1.58-2.7,2.44-4,.09-.13.08-.33.11-.5-1.29.21-2.59.61-3.87.57-1.81-.05-2.34.48-1.69,2.19.2.52.71,1.21-.07,1.45-.72.23-.53-.64-.69-1.07-.05-.13-.23-.22-.36-.32-.63-1.27-2.37-.61-3.06-1.78-.67-1.23.09-2.68-.64-3.93-.16-.27.15-.7.51-.77.48-.09.49.37.58.67.1.33.19.66.25.99.09.48.31.93.77,1.04.52.12.77-.4,1.06-.73.81-.91,1.07-2.09,1.52-3.17.11-.06.23-.11.34-.17.24-.17.38-.39.46-.65.43.37.75.84,1.18,1.21,1.32,1.16,1.85,1.07,2.9-.45.16-.44.16-.9.19-1.36.02-.34-.05-.76.33-.91.49-.2.72.24.95.55.34.46.58,1.01,1.03,1.38.45.38.93.8,1.43.04.32-.84-.65-1.57-.17-2.46,1.1-2.06.99-2.64-.73-4.67-.17.48-.18,1.06-.81,1.21-.09-.25-.19-.51-.28-.76-1.01.73-2.16.3-3.25.43-.73.08-1.35.12-1.65-.71.09-.34.5-.65-.09-1-1.1-.64-2.03-.36-2.92.39-.28-1.16-1.16-1.46-2.22-.75.14-1.32-.94-1.14-1.68-1.38-.3-.61-.93-.2-1.37-.45-2.09-1.19-2.71-1.06-4.24.78-.99-.09-1.57.74-2.36,1.08h-.02c-.87.21-1.38-.32-1.19-1.01.16-.63-.04-1.19-.35-1.32-.69-.28-.51.69-.93.9-1.69-.12-3.31-.45-4.76-1.39-.07-.78-.81-.83-1.3-1.16,1.02-.86,1.29-3,.49-3.99-.38-.46-.63-.43-.53.25-2.93-.67-5.62-2.01-8.39-3.1-1.05-.28-2.23.42-3.51,2.09-.12.11-.24.23-.36.34-.95.2-1.36.82-1.36,1.76-.45.36-1.08.49-1.38,1.05-1.44,1.28-2.02,3.22-3.44,4.53-.56.43-1.04.91-1.08,1.68-.34.13-.31.45-.36.72-.85.33-.75,1.34-1.33,1.87-.74.35-1,1.05-1.3,1.74-.48,1.07-.81,2.23-1.84,2.96-.61,1.5-2.01,2.43-2.77,3.82-.74.38-.71,1.05-.68,1.73-.88.26-.52,1.28-1.07,1.75-.35.11-.56.35-.7.67-.75.58-.52,2.02-1.22,2.21-1.21.32.03.67-.16.92-1.04.66-1.53,1.7-1.99,2.77-.79.49-1.38,1.12-1.48,2.09-.34.57-.68,1.14-1.03,1.71-.6.89-1.24,1.75-2.08,2.43-.68.76-.64,1.94-1.16,2.61-1.58,2-1.7,1.9-1.94,2.95-1.24.51-1.53,1.75-2.13,2.75-.86.53-1.26,1.36-1.6,2.27-1.11,2.97-1.65,3.33-4.22,2.98.42-1.19,1.83-1.98,1.43-3.51.44-.85,1.07-1.66.7-2.71.29-.42.22-.59-.55-1.75-.47-.71-.82.3-1.24.06-.35.03-.61.43-1.01.24-.02-.1-.01-.2.03-.3,1.07-.28.65-1.55,1.36-2.07.79-.68.23-2.31,1.84-2.51.38-.05-.04-.51-.35-.64.23-.26-.22-.76.28-.91,1.4-.43,1.61-1.75,2.15-2.82.14-.29.19-.8.39-.86,1.49-.46,1.8-1.78,2.28-2.97,1.43-.31.33-1.14.35-1.74.98-.57,2-1.1,2.06-2.45.68.05,1.15-.41,1.29-.91.45-1.59,1.57-2.82,2.16-4.31.32-.15.32-.42.28-.71.34-.49.09-1.46,1.12-1.39.17.46-.53.77-.14,1.37.41-.89,1.46-1.24,1.67-2.33-.73-.09-.82.98-1.51.63.32-.68.64-1.36.95-2.04.15-.34.29-.69.44-1.03.38-.53.43-1.41,1.37-1.39.08-.14.16-.29.24-.43.8-.64,1.32-1.5,1.84-2.36.89.08,1.6-.83,1.24-1.12-.58-.48-.21-.91-.12-1,.97-1.01.44-2.29.88-3.47-1.24.21-2.32.03-3.02-.73-.92-1-1.16-.49-1.44.39-.33-1.05-1.13-1.15-2.05-1.01-.44-.33-.85-.71-1.33-.98-.37-.21-.25-1.55-1.23-.5-.47.51-1.44-.43-1.97.39-.5-.57-1.71-.98-.78-1.94.51-.53-.16-.76.03-1.1.42-.85.72-1.77,1.48-2.41.13-.1.26-.2.39-.29.28-.18.64-.31.83-.57.2-.28.87,0,.71-.7-.14-.59-.62-.36-.92-.53.02-.11.02-.21,0-.32.22-.14.45-.28.67-.42.32-.58,1.5-.61,1.07-1.67.72-.31.95-.89,1.01-1.62.03-.39.24-.68.64-.27.08.08-.06.35.02.47.25.41.36-.01.35-.12-.03-.3,1.2-.64-.06-.92-.51-.11-.58-.29.02-.8,1.15-.97,2.53-2.06,1.87-3.98-.05-.05-.1-.1-.15-.15,0,0,0,0,0,0,.05.05.1.1.15.15.79.12.95-.11.76-.93-.14-.6.62-.94,1.02-1.37.14.26.28.52.47.86.44-.8.86-1.56,1.3-2.35-.31-.06-.64-.11-.96-.17.49-.15.95-.34,1.12-.89-.54-.13-1.12-.59-1.61-.3-1.11.67-1.62.19-2.04-.47-.02-.18-.03-.36-.01-.54.54-1.26,1.74-1.24,2.82-1.4.65-.1,1.37.11,1.89-.48.23-.54-.08-1.21.39-1.7-.83-.43-1.37-1.21-2.1-1.76-.87.41-1.9,1.5-2.14-.58-.05-.42-.65-.31-.95-.28-.48.05-.95.31-1.42.48-.65.05-1.51-.16-1.25-.82.51-1.3-.95-.72-1.14-1.44-.16-.59-.7.08-1.05.29-.94.09-1.57.73-2.25,1.29-.66-.75-1.53-2.07-2.3-1.62-1.75,1.04-2.01-.31-2.68-1.17.02-.74-.49-.91-1.08-1.01-.13-.42.86-.95-.03-1.23-2.09-.66-3.62.24-4.58,2.47-.16.38-.23,1.08-.98.9-.26-.12-.23-.95-.5-.53-.52.8-1.93.94-1.69,2.38.07.4-.34,1.18-.9,1.55-.31.16-.59.34-.7.69-.55.46-.82,1-.5,1.7-.99.73-2.34.35-3.32,1.09-1.28-.29-2.22-1.86-3.8-1.02-.01-.4-.16-.88-.56-.82-.3.04-.94.09-.85.75-.1.01-.21.01-.31,0-.46-.7-.36-1.84-1.14-2.18-.8-.35-1.77-.87-2.7-.13-1.02.33-.69-1.38-1.68-1.11-.09-.42-.12-1.3-.27-1.19-.95.66-1.33-.17-1.96-.5-1.13-.58-2.96.65-3.73,2.38-.09.02-.18.04-.27.07-.29-.05-.61-.17-.73.26-.66.26-1.2.69-1.69,1.18-.59.75-.7,1.96-2.11,1.93-.41,0-.8.61-.44,1.21-1-.76-1.44.54-2.22.62-.43.05-.53.44-.39.76.16.39.55.24.87.2-.97,1.2-1.64,2.73-3.36,3.11.28-.42.81-.73.13-1.34-.48-.43-.9-.64-1.4-.3-.27.18-.23.8-.81.57.03-.11.02-.21-.04-.31-.03-.54-.09-.94-.82-1.04-1.19-.16-2.35-.5-3.52-.77-.21-.05-.41-.14-.64-.22.71-.65,1.14.55,1.56-.29-.62-.97-1.79.12-2.39-.55-.87-.97-1.19-.12-1.87.23-.62.32-1.66-.77-2.34.33-.1.16-.32.36-.1.59-.27-.23-1.5,1.2-.76-.77-.67.57-1.59,1.09-1.53,1.35.35,1.34-.5,1.58-1.4,1.87-1.15.02-2.3.05-3.44.07-1.33.33-2.93.16-3.51,1.9-.19.57-.71-.06-1.02.19-.77.05-.55.82-.82,1.18-.99-.43-.48-1.27-.6-1.94.02-.17,0-.46.06-.49.95-.33.68-2.17,2.19-1.78-.1-1.13.98-1.71,1.24-2.67.87-1.31,2.05-2.43,2.46-4.03,1.41.03,1.47-1.74,2.67-2.02,0,0,0-.27-.05-.29-1.42-.65.21-1.05.13-1.59.56.06.12.87.78.97.19-.86.63-1.74.5-2.54-.12-.74,1.49-.72.5-1.55,0,0,0,0,0,0,0,0,0,0,0,0,1.17-.09,2-.94,2.7-1.66.43-.43.65-1.97,1.11-2.41.87,0,.55-.8.79-1.21-1.75-.21-.02-.85-.16-1.26.85-1.42.44-4.67-.72-5.71-.7,1.41-2.12,1.31-3.35,1.62.45-.55.31-.46-.32-.51-1.18-.09-2.41-.19-3.04-1.63-.6-1.39-1.51-.96-2.31-.05-.23-.09-.38-.4-.69-.25-1.32.4-.97-1.1-1.65-1.43q.13-.33-.7-.4c-.73,1.46-3.18,2.08-1.8,4.59.98,1.78,1.75,2.18,3.16.67.36-.03.64-.17.87-.46.41-.52-.17-1.7.7-1.64.49.04.89,1.15,1.34,1.77.3.42,0,1.05.52,1.38.11.12.22.24.33.37,0,0,0,0,0,0,.33,1.68-.32,2.53-2.08,2.43-.23-.12-.45-.24-.68-.35-1.88-1.08-3.91-1.26-6.06-1.01-.07-.51.62-1.44-.49-1.42-.67.01-1.54-.77-1.99.11-.44.86.23,1.57.93,1.99.87.53,1.83.9,2.75,1.34.11.12.23.24.35.36,0,.51-.03,1.03,0,1.54.06.89.06,2.17.81,2.41,1.07.34,1.26-1.02,1.74-1.74.15-.23.21-.53.31-.79.11-.12.22-.24.34-.36.2.11.4.22.6.32.23.23.45.46.68.7-.18.86-1.2,1.29-1.09,2.37.06.57-.71.89-1.17.69-1.72-.73-2.8.24-3.96,1.22-.43.37-.98.62-1.6.46-.03-.2-.07-.4-.1-.6.71-.76,1.42-1.71,1.24-2.65-.19-1.01-1.54-.06-2.18-.67-.04-.04-.07-.08-.11-.13.01-.9-.16-1.92,1.3-1.8.34.03.66-.23.67-.64,0-.4-.3-.57-.65-.68-1.01-.3-3.06.96-3.38,2.09h0c-.42.13-.84.25-1.39.41.1-1.18-.33-3-.02-3.3,1.1-1.1.54-2.27.73-3.38-.9-.37-1.44-2.16-2.81-.72,0,0,0,0,.01.01-.11-.02-.21,0-.29.07-1.83,1.87-2.07,1.89-3.47.35-.13.19-.25.39-.38.58-.44-.12-1.05-.65-1.05.4-1.55.52-1.62,2.49-3.06,3.14-.09.04-.03.43-.04.65-.92.88-3.09.92-2.09,3.1-.51.41-.99.91-1.73.86-.24-.08-.08-.95-.31-.46-.39.84-1.09,1.18-1.63,1.76-.23.24-.83.55-.31,1.12.32.35.19.71-.12,1.06-.29.33-.53,0-.74-.05-.9-.19.55-.74-.08-1.01-.48-.02-.5.46-.79.63-.46.26-.9.87-1.42.43-.22-.19-.97-.63-.26-1.31.3-.29-.22-.6-.57-.5-.59.17-1.15.44-1.72.67-.67.03.04-2.86-1.63-.77,0,0-.19-.11-.25-.19-.67-.82-1.1-.11-1.6.23-.4.83-1.07.3-1.62.31-.14-.91-.71-.26-.99-.2-.82.18-1.51.43-2.43-.02-.88-.42-.21-1.56-1.14-1.74-1.11-1.17-1.32.7-2.11.62-.12-.19-.39-.48-.34-.55.9-1.35-1.12-1.33-1.05-2.27-.7-.03-1.33.08-1.74.72-.14-.08-.27-.16-.41-.24-.78-.3-1.65-.28-2.38-.73-1.39.82-3.53.79-3.62,3.12,0,.06-.12.16-.2.17-1.68.25.1.49.05.74-.02.02-.03.04-.04.06-1.12.54-1.55,2.14-3.1,2.03-.82-.87-1.69-1.61-3.03-1.25.02-.4-.36-1.03.26-1.52.72-.81.55-2.3-.28-3.43-.39-.53-.67-.94-1.27-.31-.55.57-1.56.54-1.87,1.4-.18.48-.42.2-.64.08-.17-.09-.53-.13-.26-.42.64-.69-.07-.55-.35-.54-.55.02-.4.78-.87.92-.63-.2.43-.87-.28-1.03-.52-.12-.86.17-1.11.58-.12.04-.23.07-.35.11.48-2.31-1.76-1.75-2.71-2.55-1.05-.89-1.1.99-1.99.67.17-1.07-.66-2.34-1.22-2.28-1.6.17-1.87-1.15-2.71-1.8-.98-1.01-2.15.31-3.17-.27-.27-.07-.61-.02-.7-.39-.65-.96-1.17-.65-1.71.13-.68.99-.98.38-1.2-.52-.9,1.38-2.35,2.04-2.96,3.46-.65.36-1.38.61-1.71,1.37-1.11.16-2.23.3-2.35,1.77-1.55,1.29-3.83,1.56-4.75,3.83-.32.8-1.76,1.02-2.5,1.97-.36.47.18,1.1-.6,1.38-1.09.39-1.57,1.6-2.98,1.94-1.12.27-1.91,1.93-2.83,2.99-.04.05.04.21.07.32-.67.72-1.67,1.12-2.08,2.1-.43.1-.07.56-.28.69-1.62,1.01-2.85,2.35-3.58,4.13-.07.16-.07.28-.23.06-.53-.72-.61.27-.96.26.02.78-.43,1.11-1.14,1.17-.95-.4.54-1.43-.47-1.81.19-.22,0-.66.44-.72,1.97.4,1.34-1.34,1.81-2.18.06-.07.11-.15.17-.22.07-.39.3-.81-.22-1.07,1.45-.99.79-3.05,2.09-4.11.33-1.15.51-2.38,1.05-3.43.41-.79-.32-.73-.45-1.09.18-.68,1.35-.32,1.29-1.24-.08-.02-.13-.06-.16-.1.05.03.11.06.16.1,1.19-1.04,1.54-2.78.77-3.91.44-.73.96-1.43,1.27-2.21.13-.33.88-.99-.13-1.3.39-1.57-1.68.21-1.49-1.09-.39,0-.43.4-.52.6-.17.37-.33.55-.74.44.69-1.52-.94-1.04-1.09-.96-.56.29-1.11.25-1.67.31.68-1.3-.88-.33-.91-.9-1.86.61-.74-.61-.71-1.24-.88.15-1.75.3-2.61.45-.13-.24-.27-.47-.4-.71-.45-.85-1.46-1.38-2.12-1.36-1.75.07-2.14.1-2.89-.99-.11-.16-.39-.21-.6-.29-1.61-.64-2.01,1.06-3.03,1.56-.48-.28-.87-.32-.96.39.23.42-.74.77-.06,1.21-1.7,1.57-3.1,3.4-4.41,5.29-.09.13.16.48.25.73-1.1.81-2.09,1.72-2.43,3.13-.43.27-.87.54-1.3.81.85,1.14-.48,1.54-.78,2.29-1.56.44-3.35-.3-4.72.96.17-.44.34-.89.52-1.34-1.16-.34-2.63.71-3.35-.93-.52.38-.75-.08-1.04-.36-.64-.12-1.09,1.09-1.83.25.4-.73.61-1.37-.64-1.29-.89.16-1.39-.92-2.31-.74-.35.07-.52-.11-.2-.47.08-.09.65-.33.05-.5-.14-.04-.37.22-.55.34-.15.09-.26.21-.32.38.02.1.02.21.03.31-.38.92-.55,2.06-2.14,1.77-.47-.08-.37.58-.43.97-.08.49.42.99-.1,1.52-.55-.36-1.12-.71-1.67-1.09-.37-.25-.74-.53-1.12-.41-.15,0-.31,0-.48.05-.34.1-.54.36-.74.62-.59.91-1.17,1.82-1.76,2.73.32.56.9.64,1.45.75.47.1.87.3.98.81.04.18-.1.31-.26.39-.49.24-.96.27-1.43-.09-.41-.33-.66-.98-1.38-.74-.15.2-.3.4-.45.6-.48.19-.27.67-.41,1-1.04.33-.98,1.34-1.31,2.11-.8.8-1.12,1.88-1.66,2.83-.26.22-.52.44-.78.66-.56.46-.62.91.02,1.36-1.08.77-2.22,1.5-1.75,3.14-.43-.07-.68.25-.98.44-1.56,1.39-1.62,3.71-3.18,5.09-.34.22-.58.47-.66.93-.1.61-.91,1.07-.4,1.83-1.8.47-1.72,2.38-2.18,3.53-.66,1.65-1.69,3.08-2.45,4.64-.73,1.52-1.68,3.01-2.55,4.5-.97,1.63-1.67,3.4-2.8,4.98-1.19,1.65-2.35,3.4-3.06,5.28-.32.85-.47,1.33-1.19.85-1.56-1.04-2.35.19-3.36.89-2-1.04-1.35.5-1.36,1.39-.11.94-1.22,1.99-2.53,2.32.36-.4.94-.77.89-1.05-.26-1.67.7-2.99,1.69-3.83,1.35-1.14,1.52-2.97,2.9-4.05.38-.29.92-1.12.89-2.04-.01-.42,0-1.33.63-1.75.72-.78.55-2.07,1.56-2.69.03-.02-.09-.28-.15-.43.62-1.21,1.54-2.31,1.39-3.81.58-.47.97-3.13.52-3.53-.16-.15-.51-.08-.54-.1-.81-.53-1.33.1-2.23.9.44-.93.64-1.36.84-1.78.23-.23.46-.45.69-.68.41-.14.81-.19,1.06-.7,1.11-2.32,2.3-4.6,3.46-6.89.12-.85,1.47-1.35.7-2.45,1.49-.92,1.27-2.43,1.51-3.87.21-1.26-.57-1.54-1.22-1.28-.78.31-1.3-.19-1.94-.14-.07-.89-1.32.73-1.2-.56-.6-1.32-1.36-.19-2.18-.12,1.13-2.11-2.6-.55-1.79-2.49-.28.05-.57.1-.85.15-1.3-.14-2.7-.59-3.44,1.06-1.65-.33-1.78,1.16-2.44,2.02-.84-.09-1.31.39-1.65,1.06-.13.24-.26.47-.4.71-.56.45-1.12.9-1.7,1.36-.25-.79.57-1.35.48-1.89-.13-.82,1.03-1.13.55-1.93.4-.38.66-.82.61-1.4.15-.4-.31-.74.01-1.25.83-1.29.79-2.79.69-4.26.26-2.08-1.19-4.02-3.39-4.56-.37-.52-.95-.13-1.4-.34-.03-.82-.48-.62-1.05-.54-1.81.25-2.07,2.02-3.1,3.02-.6.07-.74.48-.75.99-.48.49-1.14.88-1.04,1.73-1.25.32-1.62,1.28-1.72,2.42-.75.65-1.61,1.24-1.36,2.45-.86.72-.99,1.74-1.09,2.76-1.27-.04.05.8-.36,1.05-1.09.45-.91,1.75-1.65,2.44-.02.1-.04.21-.06.31-.83,1.14-1.23,2.43-1.38,3.82-.11.12-.21.24-.32.36-.87.81-.96,2.13-1.92,2.9-.38.3.11.58.17.88-.72,1-1.04,2.24-2.1,3.05-.63.48-.83,1.34-.36,2.17-.49.03-.35.39-.34.67-1.06.29-1.24,1.19-1.42,2.08-.99,1.83-2.03,3.63-3.38,5.23-.44.22-.24.69-.38,1.03-.41.12-.31.42-.25.71-1.47,1.14-1.77,2.94-2.52,4.49-.35.46-.7.92-1.05,1.38-.5.34-.83.81-1,1.39-1.55,1.92-1.9,4.58-3.84,6.28-.11.1-.03.42-.04.64-.66,1.3-1.32,2.61-1.97,3.91-.64.18-.92.68-1.28,1.2-.72,1.03-1.03,2.3-1.99,3.17-.04,1.22-.61,1.85-1.75,1.78.12-1.12.4-2.29.71-3.11.56-1.47,1.11-2.99,1.61-4.51.37-1.11,1.01-2.26,1.05-3.3.08-2.09,1.29-3.74,1.62-5.69.46-.88,1.27-1.63.98-2.78,1.02-2.97,1.88-5.99,2.46-9.08.57-3.01,1.52-5.92,2.42-8.84.68-2.22,1.5-4.53.15-6.97-.48.99-1.3,1.36-2.24,1.64.12-.53,0-.77-.4-.85-1.45-.32-1.82-1.24-1.22-2.61.78-1.78,1.89-3.45,2.01-5.48.78-2.71,1.92-5.34,1.21-8.29-.31-1.31-.75-1.65-1.75-.83-.85.7-1.41.89-2.28-.08-.49-.55-1.26-1.87-2.06-1.19-1.38,1.18-1.42.13-1.72-.69-.14-.41-.4-.32-.68-.28-.53-.3-.86.46-1.37.27-.12-.82.62-.67,1.19-.88-1.32-.57-2.64-.99-3.78-1.06-1.62-.1-2.72,1.35-3.65,2.65-.29.07-.35-.15-.44-.34.35-.83-.22-.92-.8-.99-2.09-.26-2.1,1.43-2.54,2.71-.01.59-.22,1.04-.66,1.5-.8.83-1.93,1.31-2.23,2.67-.37,1.64-1.72,2.94-1.98,4.65-.19,1.24-.96,2.12-1.64,3.1-1.08,1.53-2.56,2.63-3.91,3.87-1.8,1.64-3.14,3.69-4.91,5.38-2.73,2.6-5.44,5.28-7.72,8.26-2.14,2.79-4.32,5.56-6.54,8.28-1.65,2.03-2.77,4.4-4.69,6.26-1.31,1.26-2.16,3.05-3.04,4.7-.85,1.57-2.4,2.74-2.62,4.66-.63.12-.07.93-.63,1.1-1.78,1.12-2.42,2.96-3.05,4.81-.33,1.01-1.26,1.56-1.82,2.39-.76,1.18-1.67,2.3-1.68,3.81,0,.4.05.93-.4.99-.96.12-.74.96-1.04,1.47-.21.76-1.24.88-1.34,1.73-.26.81-.51,1.61-.77,2.42-.16.51-1.02.37-1,1.05.87.64,1.34,1.66,1.96,2.27-.67-.53-1.56-.92-2.68-.25-.44.23-.7.53-.36,1.04-.43.24-.67.59-.66,1.09-.26.45-1.22.74-.83,1.25.61.79.02,1.06-.29,1.51.53.33.92.78,1.2,1.34.56.25,1.12.42,1.71.23.06.05.11.1.17.16.25.18.5.24.77.14,0,.02-.02.01-.02.04-.01.07.02.13.09.19.66,1.31,2.14.77,3.11,1.39.14,1.35,1.03-.11,1.4.38-.28.42-.65.92-.09,1.3.51.35,1.06.07,1.5-.33.78.03,1.94-.59,1.8,1.05-.02.24.29.25.94.05.04.5.23.92.66.32.54-.75,1.53-.7,2.09-1.36.08-.1.42-.02.62.05.05.02.09.39.02.44-1.12.8.37.96.42,1.5-.85.34-1.82.57-1.34,1.81-.12.8-.23,1.61-.35,2.42-.96.36-.46,1.71-1.42,2.07-.19.2-.38.41-.57.61l-1.51,5.63c-.26.39-1.74.54-.26,1.29-.12.17-.24.34-.37.51-.44-.18-.79.02-.93.4-.29.78.81.35.84.9-.47,1.06-1.57,2.11-.42,3.28,1.19,1.21,2.19.17,3.18-.51.44-.3.94-.55,1.43-.14.48.41.33.94.07,1.42-.59,1.15-.37,2.21.29,3.25.95.69,2.21,1.52,3.13,1.01,1.6-.88,1.49.75,2.11,1.14.85.53-.7.66-.39,1.43.29-.46.82.23,1.25-.66.54-1.11,1.49-.19,2.23.23.31.51.11,1.37,1.06,1.44.83.06,1.11-.32,1.04-1.08.27-.02.58.02.65-.37.77.08,1.15-.23,1.04-1.04.9-.04,1.13-.6,1.09-1.38.2-.03.4-.07.6-.1,1.26-.07.27-.85.4-1.27.27-.07.61.03.71-.37.96-.57,1.68-1.36,2.04-2.43.04.27.08.55.12.82.17-.1.43-.16.51-.31.34-.64,1.03-1.09,1.01-1.91-.42.22-.83.44-1.24.65,0-.24-.65-.43-.06-.72.61-.2.27-1.25.89-1.24,1.34.03.29-.82.52-1.18,2.14-.89,2.61-2.85,3.08-4.8.36-.94,1.46-.94,1.94-1.35,1.91-1.64,1.99.12,2.5,1.12.18-.13.31-.17.34-.26.17-.45.19-1.23.92-.82.66.37-.12.78-.29,1.08-.44.75-1.2,1.28-1.5,2.16-.38,1.12-.97,2.18-1.29,3.32-.53,1.9-1.94,3.31-2.61,5.12-1.07.74-1.21,2-1.64,3.08-.15.37.1.52.97.79.46.24,1.14.37,1.34.76.6,1.13.99.57,1.44-.05.39.53.66,1.19,1.41,1.34-.37.79-.51,1.61-1.41,2.21-.63.42-1.44,1.45,0,2.34,1.2.74,1.15,2.75,0,3.67-.7.56-.84,1.46-1.38,2.03-.99,1.04-.16,2.92-1.76,3.61-.36.92-.73,1.84-1.09,2.76-.1.12-.19.24-.29.36-.16.22-.22.48-.21.73-.26,1.08-.31,2.23-1.16,3.1-.08.12-.15.24-.23.36-.28.57-.55,1.14-.83,1.71-.22.38.28,1.62.68,1.84,1.24.68,2.49,1.35,3.54,2.31-.46.55-.91,1.11-1.39,1.64-.38.43-.97.77-.41,1.45-.93,1.5-1.86,3.01-2.79,4.51-1.24,1.84-2.03,3.92-3.1,5.84-1.06,1.89-2.19,3.75-3.08,5.73-.31.7-.51,1.54-1.03,2.04-1.9,1.81-2.99,4.06-3.86,6.47.1.09.16.15.23.21-.07-.04-.15-.1-.23-.21-1.58,1.58-2.73,3.43-3.41,5.56,0,.23,0,.45.01.68.48.54.66,1.12.41,1.85-.19.55-.28,1.16.19,1.65-.29-.08-.38.07-.35.37.2,1.22.89.47,1.41.35,0,.11.03.21.08.31-.23.65.36,1.42-.17,1.97-.81.84-1.52,1.62-.98,2.93.14.34-.37.29-.63.29-.07-.05-.15-.11-.23-.15-.02,0-.1.05-.11.09-.13.65.54,1.92-.08,1.85-1.39-.15-.37.74-.64.99.3.51,1.03.5,1.31,1.08-.46.49-1.42.16-1.64,1,.05.26,0,.58.34.7-.14.63.83.7.69,1.34,1.53.1,2.93.94,4.51.77-.55,1.48,1.14.09,1.13.88.3-.74.12-1.55.42-2.32.74-1.86,1.3-1.99,2.65-.5.06.11.13.2.2.29,0,0,0,.01,0,.02-.38.9-.11,1.75.49,2.37.55.58,1.15-.25,1.71-.26,1.31-.03,2.04-1.53,3.43-1.24.11.12.23.24.34.37.65-.26.96-1.07,1.77-1.06.21.14.41.29.62.43.15.34.39.59.75.71,1.19-.57,2.34-1.17,2.12-2.8.64-.38.62,1.29,1.1.49.34-.57,1.07-1.08.93-1.92.48-.68,2.77-.21,1.34-2.1.25-.33.49-.67.74-1,.49-.72.84-1.6,1.49-2.13,1.56-1.27,2.07-3.04,2.7-4.79.26-.21.69-.37.76-.64.63-2.29,2.31-3.81,3.83-5.47,1.14-1.24,2.19-2.56,2.3-4.36.74.26,1.05-.84,1.99-.51-.74.54.58,1.45-.53,1.96-.34.48-.89.9-.51,1.61-1.31,1.2-1.39,2.84-1.82,4.42-.27.98,0,2.19-1.05,3.13-.77.69-2.17,1.93-.55,3.31-.09.14-.18.28-.27.42-1.15.46-1.28,1.08-.42,2.01-.42.33-.82.71-1.27.98-.39.23-.53.59-.08.64,1.2.14.55.56.11.74-.94.38-.72,1.5-.5,1.62.81.4-.21.68.04.95-1.02.34-.57,1.02-.37,1.64-.96.55-1,.62-.3,1.08.49.32.02.46-.03.61-.15.47-.44.89-.36,1.42-1.36,1.13.96,1.19.65,2.14-.07.22.77.57,1.19-.03-.14.4-.34.82.27,1.04.81-.19,1.11.99,1.54.86,1.59-.5,2.61.51,3.62,1.28.88.67,1.42.67,2.06-.14.56-1.32-.37-2.53-.26-3.81-.01,0-.02-.01-.04-.02.55-.47,1.35-.72,1.42-1.62.83-.31.49-1.77,1.68-1.72.2.38,1.79.48.26,1.22-.59.28-.73.76-.49,1.28.35.78.19,1.27-.56,1.71-.66.38-.99,1.16-.52,1.73.52.62,1.36.93,2.04,0h0s.16-.02.16-.02h.16c0,.11,0,.21,0,.31.62-.71,1.24-1.43,1.85-2.15,0,0,0,0,0,0,.57.52,1.27.71,2.05.76-.54.43-2,.3-1.5,1.15.93,1.57-.07,2.69-.35,3.99q-.15.75,1.1.65c.27.02.58.57.66.28.27-1,1.24-1.43,1.67-2.28.18-.48,1.35.38,1.05-.77,1.46-1.19,1.63-1.84,3.3-4.56.91-1.49,1.77-3.09,3.03-4.38.9-1.74,2.14-3.19,3.77-4.28.92.35,1.85.67,2.75,1.07.71.31,1.45-.87,2.11.08-.35.07-.35.36-.39.63-1.32.47-1.73,1.62-2.08,2.81-1.46.26-.18,1.13-.38,1.66-.22.26-.45.52-.67.77-1.24.18-1.55.96-1.34,2.08-.24.24-.93-.47-.89.49.05,1.25-.69,2.29-1.15,3.4-.66.19-1.08.58-1.09,1.31-.61.42-.72,1.04-.7,1.71-.67.48-.34,1.5-1.14,1.98-.94.56-1.12,1.52-.93,2.56-1.31.7-1.89,1.65-1.04,3.08-.59,1.17-1.53,2.21-2.27,3.17-1.32,1.73-.69,2.22.64,2.99.09.05.21.17.21.25-.03,1.78.74,0,1.05.24.13,1.69,1.54,2.45,3.15,1.7h.16s.16.02.16.02c1.34.32,2.11,1.53,3.29,2.08.61.28,1.16.93,1.95.23.34-.3.57.14.62.48.07.47-.22,1.03.4,1.34.55.18.62-.51.92-.56.66-.09,1.11-1.02,1.91-.49.63.42,1.06.9.71,1.75-.09.22-.02.76.32.56.77-.45,1.77.37,2.4-.53.78-.36.87-1.29,1.55-1.81,1.62-1.23,3.09-2.65,4.29-4.32.89-1.24,1.04-2.93,2.24-3.97,1.71-1.47,2.55-3.5,3.7-5.33.23-.36.3-.72.39-1.1.43.18.59-.26.88-.39.02.28.16.67.03.81-1.47,1.63-1.43,4.11-3.17,5.59-.16.14-.36.51-.31.58.81,1-.41.84-.67,1.2-.3-.09-.71-.38-.88,0-.21.47-.39,1.06.25,1.44-.11,1.78-1.64,2.91-2.05,4.7-.3,1.33-.03,1.74.71,2.31.98.75.57,1.88.65,2.74.13,1.45-1.82,1.96-2.11,3.38-.34.14-.57.38-.72.72-.26.39-.24,1.08-.19,1.25.26.99-1.29,1.48-.58,2.48-.49.34-2.13-.16-.97,1.38.19.26-.58.64-.14,1.08-2.35,1.18-2.06,3.55-2.51,5.58-.12.14-.24.27-.36.41-.62-.22-.86.25-1.14.63.85-.07,1.44.66,2.4.6,1.69-.1,3.37-.02,4.9-.92l.05-.05c-.34,1.53,1.23,2.93.3,4.5-.55.09-1.09.03-1.66.28-1.39.61-1.91,1.62-1.94,3.07,0,.37-.03,1.02-.62,1.1-.73.1-.46-.62-.68-.95-.79-1.2-.77-2.48-.43-3.79.23-.89.02-1.27-.9-.89-.92.37-1.06-.35-1.35-.87-.26.03-.56-.05-.71.26-1.03.96-.52,2.63-1.62,3.56.2,0,.4-.01.6-.02,1.1-.13,1.13.81,1.49,1.42-.44.35-.99.64-.85,1.36,1.83.93,3.68,1.78,5.68,2.28.48.12,1.03.24,1.38.56,1.1,1.01,2.32,1.29,3.73.95.28,0,.6.1.77-.24-.26.81-1.22,1.28-1.08,2.28.75.08,1.04-.73,1.66-.91-.21.33-.25.67.04,1,.7-.26,1.4-.52,2.1-.78.62.27,1.31.56,1.58,1.18.17.38-.02,1.12.52,1.06.38-.04,1.07-.43.95-1.17-.05-.78.31-1.16,1.11-1.2.54-.03,1.45-1.29,1.4-1.85.07-.84,1.44-.41,1.36-1.4.28,0,.71-.09.81.05.27.39-.43.24-.38.44.23.81-.74,1.88.43,2.46.57.28,1.26.34,1.89.5,1.41,1.28,1.8,1.34,2.47.36.38-.07.83.04.65.47-.35.83-.4,1.19.69.95.25-.05.61.26.88.45.77.52,1.45,1.32,2.49.37.11-.1,1.2-.27,1.47.53.07.47-.69.88-.13,1.38.42.38.92.09,1.28-.04.63-.23-.05-.62-.04-.96,1.56-.41,2.99.3,2.98,1.74,0,.68.21,1.23.56,1.37.45.18,1-.2,1.22-.77.89-2.03,2.19-3.66,4.29-4.55.59-.25,1.03-1.13.92-1.28-.65-.96.43-.98.66-1.43.37-1.25,1.05-2.34,1.93-3.28.69-.74,1.49-1.27,2.36-.17.03,1.31,1,1.55,2.01,1.76.13,1.19,1.27.53,1.9.97,1.12.79,2.64,1,3.99,1.45.32.54,1,.25,1.4.63,1.15.07,2.28,1.07,3.45.07,1.03,1.21-.18,1.69-.85,2.41.92-.55,2.24.21,2.82-1.06.1-.23.57-.21.52-.07-.39,1.04,1.19.88,1.01,1.78-.16.8.32.59.79.46,1.84-.5,3.68-.98,4.66-2.87,0-.78,1.56-.62,1.04-1.72,2.36-2.11,4.57-4.33,5.3-7.57.81-.34.67-1.37,1.34-1.81.28.07.46-.15.5-.32.19-.81,2.04-.68,1.18-2.07.45-.59.65-1.29,1.27-1.83.84-.74,1.94-1.54,1.65-2.98.3-.05.08-1.04.76-.4.48.46.36-.16.53-.27.98-.6-.29-1.97.78-2.35,1.45-.51,1.72-2,2.38-2.99.86-1.29,1.59-2.63,2.78-3.67.46-.41,1.06-1.12.81-1.59-.52-.97.16-1.54.57-1.94,1.87-1.83,3.03-4.09,4.17-6.39.28-.56,1.07-.75,1.31-.47.77.87,1.31.16,1.91-.1.26-.11.45-.33.71,0,.19.24.05.4-.06.59-.94,1.74-1.97,3.42-3.48,4.75-.69.24-.67.83-.71,1.4-.16.74-1.59,1.18-.52,2.25.12.12-.66.26-1.16.55-.77.45-1.38,1.2-1.36,2.25,0,.5-.66,1.57-.84,1.75-.81.78-2.15,1.26-1.68,2.81-.66,1.58-1.56,3-2.82,4.17-.58,2.25-3.08,3.27-3.54,5.68-.12.62-1.59.87-.91,2.04-1.53.09-.86,1.6-1.47,2.29-.98.56-1.67,1.58-1.91,2.47-.17.65-.51.95-.84,1.38.06.8-2.01,1.89.33,2.37.58,2.41,2.65,2.54,4.45,2.49.84-.02.51.88,1.08.7.21.42.47.45.94.33,1.08-.27,1.72.1,2,.97.53.03,1.06.05,1.59.08,1.18.81,1.13-.87,1.95-.88.89.26-.4,1.3.47,1.64.55.62.85.34,1.12-.03.03.07.05.14.1.21,0,0,0,0,.01.01-.41,0-.47.46-.57.82-.06.23.12.43.37.43.4.01.57-.26.65-.61.79-.3,1.35.37,2.04.53-.38.78.64,1.29.43,2.04h.69c.27-.33.5-.9.82-.97,1.62-.31,2.12-1.84,3.18-2.74.33-.28.96-.64.19-1.15.4-.28.34-1.51,1.33-.62.42.37.61-.15.7-.36.78-1.81,1.95-3.41,3.31-4.75.66-.65.79-1.16.79-1.91,1.12-.4,1.78-1.43,2.84-2.01,1.23-.68,2.87-1.39,3.19-3.26.08-.45.88-.82,1.4-1.14.15-.09.51.07.73.19.33.18.05.34-.06.5-.29.44-.84,1.02-.23,1.39.67.41.87-.47,1.23-.84.07-.07.17-.11.33-.21.04.42.08.81.13,1.33.86-.9,2.05-.4,2.88-.99.5.45-.57.77-.27,1.02.6-.05.99-.09,1.38-.12-.27.33-.51.69-.8,1-.49.5,1,.62.22,1.19-.07.05.19.24.3.07.54-.81,1.96-.64,2.11-1.88,1.06-1.36,2.28-2.6,3.09-4.15,1.73.09,2.52-.86,2.35-2.81.06-.68.18-1.35.74-1.83q.95-.1,1.79-.92c-.2-.01-.46-.03-.72-.04-.16-.78.71-1.01.86-1.63,1,1.07.61-.7,1.15-.57-.29-1.47.71-2.08,1.76-2.66.45.26.9.51,1.35.77-.25.47-.78.83-1.1,1.11-.93.82-.41,2.41-1.31,2.77-2.11.84-1.86,2.91-2.73,4.38-1.27.79-1.92,1.91-1.81,3.42-.42.61-1.83.82-1.36,1.66.57,1.01.68,1.28-.52,1.69-.61.21-1.22.98-1.41,1.63-.16.53.79.17,1.14.48-.58.37-1.66.38-.95,1.5-.26.22-.52.43-.79.65.68.12.91,1.35,1.88.78.25,1.13.96,1.85,1.71,1.75.34.91.95,1.02,1.74.59.66.93,1.04.21,1.47-.24,1.12.28,2.27.3,3.4.62,1.01.29,2.23.2,2.42-1.35,2.02-1.63,2.06-1.8.54-3.76-.32-.42-.69-.78-.5-1.34.24-.69.85-.36,1.31-.42h0c1.12,1.18,3.06.46,4.12,1.77h0c.72.68,1.43-.13,2.14-.1-.43.86-1.3.56-2.01.64-.85.11-1.91.34-1.64,1.31.37,1.34-.38,1.65-1.2,2.15-.73.45-1.43.97-2.06,1.56-.47.44-.93.93-.35,1.61.32-.21.65-.41.97-.62-.42,1.48,2.25.94,1.43,2.86.52-.65.75-1.03,1.07-1.32.3-.28.61-.31.64.26.06.89.25,1.11.72.75,1.15-.87,1.65.36,2.37.69.46.21.54,1.12,1.42.72.93-.42,2.13-.49,2.15-1.92.72.82,1.05.14,1.42-.37-1.83-1.01-1.85-1.38-.12-2.42.59-.35,1.16-.73,1.79-.99.4-.02,1.22.19,1.12.07-.86-1.04.55-.94.64-1.45.21-.07.31-.2.22-.42.2-.67.55-1.25,1.13-1.66.24-.91,1.79-.56,1.72-1.78-.29-.28-.94-.31-.79-.91.12-.5.58-.61,1.05-.63.37-.01.78.18,1.07-.21.03-.21.06-.42.08-.63.34-.24.68-.48,1.02-.72,1.05-1.11,2.3-2.08,2.42-3.78.83-.17,1.07-1.09,1.82-1.43.41-.19.31-.66-.29-.71.89-.24.93-1.36,1.77-1.66,1.64-.59-.37-.66-.16-1.05.66-.91,2.01-1.15,2.32-2.4.71.09.72,1.49,1.76.93q1.16-.19,1.15.84c0,.22-.07.49.26.48.34-.02.63-.19.7-.57.49-.23.15,1.72,1.05.39.55-.15,1.65.92,1.44-.83.6.3-.12,1.5.97,1.12.64.47,1.28.93,1.92,1.39.23-.53.99-.13,1.22-.67,1.19-.17,1.74.48,1.99,1.52.02-.05.05-.1.07-.15,2,.25.25,1.65.77,2.44,1.52-.7,2.85-1.63,3.75-3.1.35-.23.7-.46,1.05-.69,1.17-.01,1.02,1.53,2.03,1.72.09.53.66.25.98.59.68.72,1.63,1.36,2.49.07.72.56,1.18,2.11,2.45.66.85.21.03,1.73,1.62,1.74.83,0,.86.77,1.52-.65.6-1.06,1.47-.23,2.2-.31.02,0,.03,0,.05,0,.31.52.79.99.46,1.71.04.3.02.63-.26.75-.64.28-.48.79-.39,1.25.09.47.5.31.83.31.82,0,.88-.53.84-1.15.27.04.57.18.73-.19.71-.07,1.55.94,2.11-.28.72.66-.68,1.04-.23,1.74.1.15-.05.57.31.59.61.04,1.28.12,1.83-.08.37-.13-.08-.57-.2-.86.71-.01,1.1-1.21,2.12-.8.07-.28.03-.8-.14-1.31q.42.18.44-.66c.64.01.19.69.67.95.4-1.43,1.57-2.29,2.46-3.37.78.28,1.41-.31,1.09-.79-.8-1.22.07-1.55.77-2.01.65-.43.9-1.1,1.24-1.73.24-.19.47-.37.71-.56.99-.77,1.11-2.14,2.02-2.97,1.78-.31.93-2.17,1.78-3.02.3-.37,1.01-.31.9-1.19-.06-.44.69-.99,1.07-1.49l1.7-1.36c-.69-.8.31-1.02.52-1.51,1.21-.3,1.8-1.43,2.64-2.03,1.87-1.36,2.81-3.32,4.26-4.91.68-.71,1.36-1.42,2.04-2.14.14-.05.28-.12.43-.16,1.55-.41,1.5-2.47,3-2.92.12-1.23,1.36-1.73,1.8-2.75,1.13-.56,1.93-1.39,2.38-2.61.24-.65.31-1.62,1.41-1.56.12.12.14.62.38.29.51-.73,1.11-1.44,1.68-2.07.9-1,.9-2.45,2.44-3.29.97-.53,2.87-1.63,2.77-3.59.61.14.74-.4,1.02-.72.79-.69,1.59-1.38,2.38-2.08.45-.29.9-.58,1.3-.84.48.62-.29.97-.19,1.49.08.45.25.43.48.1-.33.52-.45,1.04.41.87.71-.14,1.02-.77,1.42-1.42,1.07-1.73,1.73-3.87,3.88-4.73,1.27-.36,1.14-1.36,1.07-2.33.67-.6,1.39.28,2.06-.08,1.12.9,2.36.28,3.83.09-1.29,1-.04,1.77-.21,2.57.22.03.62.1.62.08.26-1.28,1.63-.69,2.25-1.33.03-.05.06-.1.1-.14.04-.03.13-.07.13-.06.36.48.4,1.09.62,1.62.37.93.74,1.45,2.11.9,1.04-.43,1.37-1.39,2.24-1.76,1.04-.44,1.5-.98.75-2.02.92.4,1.3-.29,1.74-.87.03.05.06.1.1.14.03.03.12.05.13.03.54-.84,1.69-1.2,1.88-2.33.71-.21-.04-1.17.7-1.36,1.07-.01,1.16-1.52,2.26-1.49-.97-.66.09-1.08.2-1.61.56-.15,1.12-.3,1.68-.45.94.05,1.88.42,2.81-.03.96.4.99,1.36,1.28,2.16-.1-.02-.17.02-.23.1-.76.9-.69,2.27-1.74,3.03-.26.19-.62.84.31.75,0,.21,0,.42,0,.63-.33.27-.96-.34-.93-.03.14,1.69-1.36,2.53-1.86,3.86-1.74,1.65-1.79,1.94-.51,2.68-.17.82-1.58.02-1.51,1.2.04.68.53.61.98.63.03.1.04.2.02.3-1.97.89-1.51,2.83-2.18,4.43.73-.06.92-.72,1.47-.54,0,.38-.63.9-.46.88.95-.15,1.16,1.46,2.27.83.49-.27.62.31.71.71.02.29-.22.65.44.64.87-.02,1.83-.46,2.61.32.57.99,1.17-.08,1.75.03.59-.55.69.22,1.01.38.17.29-.64.25-.2.7,1.03,1.08,2.4.86,3.67,1.06.51.4.25.84.05,1.27,1.08-.55,2.54.99,3.43-.61.34-.36.68-.27,1,.03.13.06.74,1.86.74,2.14,0,.44.08.8.68.64.47-.12,1.32.02,1.06-.76-.3-.87.53-.69.7-1.07.25-1.02,1.45-1.37,1.71-2.38,1.37.19.64-1.66,1.71-1.77.46-.12.92-.24,1.37-.36q.6-.23.46-.89c-.06-.28.12-.41.34-.48,1.33-.43,1.59-1.51,1.68-2.7.36-.14.35-.42.26-.72.56-.92,1.13-1.83,1.66-2.77.34-.6,1.17-.7,1.23-1.73.06-1.03,1.47-1.47,2.03-2.41.77-.37,1.17-1.07,1.37-1.83.15-.58.39-.94,1-.93,1.39.02,1.64-1.16,1.46-1.95-.3-1.25.67-1.55,1.13-2.23.15-.22.7-.27.26-.7.12-.63.77-.84,1.03-1.37.99-.02.96-.92,1.09-1.47.34-1.49,2.7-1.85,2.08-3.83-.01-.04.23-.23.37-.25.82-.14.84-.2.31-.98,1.14-.04,1.56-.77,1.69-1.77,1.25-.02,1.55-.84,1.74-1.91.22-1.25,1.94-1.8,1.66-3.33.38-.34.76-.68,1.14-1.02.21-.14.42-.28.63-.42.87-.65,1.71-1.36,1.56-2.59-.08-.65.6-.34.72-.69.55.56.87.14.59-.29-.62-.96-.02-1.04.64-1.2-.24-1.02.44-1.32,1.32-1.59-.34-.11-.6-.2-1.15-.38.79-.03.99-.49,1.33-.79,1.11-.71.22.48.74.6.18-1.02.99-1.66,1.66-2.42.41-.46.88-.94.54-1.67.12-.14.23-.28.35-.42.72-.3,1.02-.89,1.07-1.64.53-.11,1.25.09,1.07-.94-.11-.62.54-.88,1.01-1.15.33-.57.04-.72-.29-.85.78-.03,1.52-.1,1.53-1.25.05-.11.1-.22.15-.32.72-.5.26-1.59,1.04-2.07.19-.19.51-.56.54-.54.38.27.03.73.22,1.29.28-1.01,1.14-1.51,1.06-2.46,1.11-.12.77-1.5,1.62-1.84.91.02.89-.73,1.07-1.31.63-1.57,2.44-2.38,2.73-4.17,1.09-.51,2.27-.93,2.36-2.42.6-.85,1.21-1.7,1.81-2.55.48-.52.95-1.04,1.43-1.57.33-.48.67-.95,1.01-1.43,1.08-.08,1.28-.87,1.41-1.73,1.32-.47,2.11-1.32,1.98-2.81.05-.2.1-.41.15-.61.25-1.86.57-3.72.1-5.94-.4,1.63-1.85,1.06-2.58,1.79-.46.19-.92.38-1.31.54-.33-.49.79-.88-.1-1.28.32-.54.34-1.14.28-1.74.2-.21-.03-.65.39-.74q.76-.04.4-.65c.12-.25.24-.49.36-.74,1.07.58,1.12-.33,1.37-.94.89-.11,1.03-.71.95-1.45.73-1.03.58-2.44,1.47-3.4,1.36.01,1.41-1.52,2.19-1.92.86-.44,1.01-1.15,1.03-1.67.02-.63-.94.6-1.2-.27.12-.13.25-.26.37-.39,1.47-.11,1.25-1.71,2.09-2.37,1.01-.02.82-1.64,2.03-1.49.4.05.04-.35-.02-.41-1.12-.95-.03-1.35.45-1.91.34-.12.54-.36.64-.7.48-.37,1.08-.64,1.06-1.39.33-.87,1.81-1.08,1.35-2.39-.47-.82-.76-1.51.18-2.35.46-.41.57-1.43-.49-1.78Z"/>
  <path d="m371.76,54.77s0,.02,0,.03c0,0-.01,0-.02-.01,0,0,.01-.02.02-.02Z"/>
  <path d="m372.13,34.36s-.01.03-.02.04c0,0,0,0-.01,0,.01-.01.02-.02.04-.03Z"/>
  <path d="m370.37,32.71s-.02-.03-.03-.05c.02,0,.04-.01.06-.02-.01.02-.02.04-.03.06Z"/>
  <path d="m370.29,21.99c.45,1.34-.76,1.97-.69,2.93-.05-.04-.11-.04-.18,0-.5-1.16.28-1.87.87-2.93Z"/>
  <path d="m368.12,31.76c.33-.18.78-.15,1.06.24-.38,1.09-1.77.59-2.28,1.45-.05.02-.09.04-.13.06-.57-.49-.96-.75-1.3-.77.86-.38,1.82-.54,2.66-.98Z"/>
  <path d="m360.86,37.29c.02.1.02.21-.05.34-.05,0-.09,0-.14-.01.06-.08.12-.19.19-.33Z"/>
  <path d="m356.25,24.96s.02.02.03.03c-.04,0-.07,0-.11-.01.02,0,.05-.01.07-.02Z"/>
  <path d="m295.59,10.07s0,0-.01,0c0,0,0,0,.01,0,0,0,0,0,0,0,0,0,0,0,0,0h0Z"/>
  <path d="m295.77,11.84s.02-.06.03-.09c.01.02.03.04.04.06-.02.01-.05.02-.07.03Z"/>
  <path d="m116.22,36.2c.02.17.04.34.06.51-.14-.14-.14-.32-.06-.51Z"/>
  <path d="m113.19,48.09c-.09.04-.18.05-.28.02.09,0,.19-.01.28-.02Z"/>
  <path d="m10.25,96.3c.07.22.14.43.23.6-.17-.16-.28-.37-.23-.6Z"/>
  <path d="m11.93,94.74c-.09-.09-.18-.18-.25-.26-.53-.6-.43-1.09.2-1.57.02-.02.05-.04.08-.06-.06.44,0,.94-.03,1.89Z"/>
  <path d="m12.24,86.65s0,0,0,0c0,0,0,0,0,0,0-.01,0-.02,0-.04.01,0,.02-.01.03-.02,0,.02-.02.03-.03.05,0,0,0,0,0,0Z"/>
  <path d="m14.34,97.43s-.01-.01-.01-.02l.02.02s0,0,0,0Z"/>
  <path d="m16.02,105.04h0s-.05-.06-.07-.08c.02,0,.05-.01.07-.02,0,.03,0,.07,0,.1Z"/>
  <path d="m19.85,118.91s0,0,0-.01c0,0,.01,0,.02,0h0s-.02.01-.03.02Z"/>
  <path d="m21.54,117.94c.02-.06.02-.11.04-.17.09.04.18.06.27.09-.1.04-.2.07-.31.09Z"/>
  <path d="m21.93,96.48c.14.15.28.3.45.43-.2-.1-.35-.25-.45-.43Z"/>
  <path d="m20.91,205.49s0-.03,0-.04h0s0,0,0,0c.02.01.03.03.05.04-.02,0-.04,0-.06,0Z"/>
  <path d="m25.75,204.43s0-.02,0-.04c0,0,0,0,.01,0,0,0,0,.02,0,.03Z"/>
  <path d="m33.33,212.42s-.04-.03-.06-.05c.02,0,.04,0,.06,0,0,.02,0,.03,0,.05Z"/>
  <path d="m51.19,217.59c-.14-.58.26-1.02.36-1.5.1.12.23.19.42.17-.17.47,0,1.15-.78,1.33Z"/>
  <path d="m52.07,216.17s0-.06,0-.09c.02.01.04.02.06.03-.02.01-.04.04-.06.05Z"/>
  <path d="m63.15,212.04s.05-.05.07-.07c0,.03,0,.05,0,.08-.03,0-.05,0-.08,0Z"/>
  <path d="m78.07,234.18h0s-.04,0-.06,0c0,0,.01-.01.02-.02.01,0,.03.01.04.02,0,0,0,0,0,0,0,0,0,0,0,0Z"/>
  <polygon points="84.6 55.48 84.59 55.47 84.6 55.47 84.6 55.47 84.6 55.48"/>
  <path d="m95.35,264.7s0,0,0,0c.01-.01.02-.03.03-.04,0,0,0,0,.01,0l-.04.04Z"/>
  <path d="m97.79,29.16s0,0,0,0c0,0,0,0,0,0h0s.02-.05.02-.08c0,.02.01.04.02.06-.01.01-.03.02-.04.03Z"/>
  <path d="m99.41,273.18s0-.01-.01-.02c-.07-.09-.07-.22-.03-.34,0,.03,0,.06.01.08.02.08.03.15.04.22,0,.02,0,.03,0,.05Z"/>
  <path d="m100.52,271.63s0,0,0-.01c0,0,0,0,0,0,0,.01,0,.02,0,.04,0,0-.01-.02-.02-.03Z"/>
  <path d="m101.94,273.36s0,0,.01,0c0,0,0,0,0,0,0,0,0,0-.01,0Z"/>
  <path d="m101.95,273.36s0-.02,0-.02c0,0,.01,0,.02,0,0,0-.01.01-.02.02Z"/>
  <path d="m106.41,271.6s.03-.01.04-.02c0,.01,0,.02,0,.03-.02,0-.03-.01-.05-.02Z"/>
  <polygon points="120.63 270.96 120.64 270.96 120.64 270.97 120.63 270.96"/>
  <path d="m142.84,28.79s-.01,0-.02-.01c0,0,.02-.02.03-.03,0,.02,0,.03,0,.04Z"/>
  <polygon points="150.71 19.09 150.71 19.09 150.71 19.09 150.71 19.09"/>
  <path d="m169.7,272.6s.02-.01.03-.02c0,.01,0,.02,0,.03,0,0-.02,0-.03,0Z"/>
  <path d="m217.58,273.35s.01-.03.02-.05c.02.01.02.03.04.04-.02,0-.04,0-.06,0Z"/>
  <path d="m218.35,274.02s.02.01.03.02c-.02.02-.03.03-.05.05,0-.02.01-.05.02-.07Z"/>
  <path d="m229.92,275.33c-.76.67-.79-1.1-1.57-.55,0,0,0,0,0,0h0s.02-.02.03-.03c-.27-.79-.42-1.63-.77-2.4.03,0,.06-.01.08-.02.82-.04,1.64-.01,2.41-.36-.31.45-.08,1.02-.27,1.48-.27.67.76,1.29.09,1.88Z"/>
  <path d="m231.46,260.21s-.01,0-.02-.01c0,0,.01,0,.02,0,0,0,0,0,0,.01Z"/>
  <path d="m234.32,16.28c.06.16.14.32.23.47-.17-.13-.27-.31-.23-.47Z"/>
  <path d="m257.63,260.63s.07-.04.11-.07c0,.05.02.1.03.15-.05-.03-.09-.06-.13-.09Z"/>
  <path d="m270.68,258.74c-.51.08-1.18.29-1.49-.41-.1-.22-.05-.5-.16-.73,0,0,0,0,0,0,.61-.54,1.3-1,1.78-1.67.04.03.09.04.14.05-.32.61.02,1.2.1,1.79.05.4.15.9-.38.98Z"/>
  <path d="m276.72,254.78c-.21-.18-.5-.4-.35-.68.34-.64.79-.17,1.21-.08.09.19.2.36.34.52.03.02.04.04.07.07-.33.37-.68.68-1.26.18Z"/>
  <path d="m280.32,259.49s.04-.03.06-.05c.02.03.05.06.07.09-.05,0-.1-.02-.14-.03Z"/>
  <path d="m282.3,264.55s.08-.02.12-.03c0,.04,0,.08.02.12-.05-.03-.09-.06-.14-.09Z"/>
  <path d="m282.67,258.13c.04-.06.08-.11.12-.17,0,.06.02.13.04.2-.05,0-.11-.02-.16-.03Z"/>
  <path d="m313.76,232.08c.02-.11.04-.21.03-.33.12.01.24.04.35.08-.12.05-.24.14-.38.25Z"/>
  <path d="m315.43,29.56c-.04-.14-.02-.26.05-.36,0,0,0,0,0,0-.02.1-.04.22-.05.36Z"/>
  <path d="m318.23,32.2c-.55.46-.91,1.01-.3,1.58-.26.19-.59.24-.84.43-1.15-1.83-1.11-1.86,1.23-2.27.12-.02.23-.04.34-.07-.14.11-.29.21-.43.33Z"/>
  <path d="m350.99,37.12c-.02.06-.05.12-.09.18.02-.06.03-.11.05-.17.01,0,.03,0,.04,0,.02-.03.02-.06.04-.09.02.03.04.07.06.1-.03,0-.07,0-.1-.01Z"/>
  <path d="m355.44,36.77s0-.02,0-.03c.02.01.04.03.06.04-.02,0-.04,0-.05-.01Z"/>
  <path d="m355.54,18.49s-.02,0-.04,0c.02-.01.03-.02.05-.03,0,.01,0,.03-.01.04Z"/>
  <path d="m369.71,222.08s0,0-.01,0c.03-.04.03-.07.05-.11,0,.03-.02.07-.03.11Z"/>
  <path d="m376.32,74.42c.15-.05.28,0,.39.11-.11-.05-.24-.09-.39-.11Z"/>
  <path d="m383.68,222.78s-.02-.02-.02-.04c.01,0,.02,0,.03,0,0,.02,0,.03,0,.05Z"/>
  <path d="m386.99,67.24s-.01.01-.02.02c0,0,0-.02-.01-.02.01,0,.02,0,.03,0t0,0Z"/>
  <path d="m394.99,55.48s0,0,0,0c0,0,0-.01,0-.02,0,0,.01,0,.02.01,0,0,0,0-.01.01Z"/>
  <path d="m404.3,55.81s0-.02.01-.02c0,0,.02.01.03.02-.01,0-.03,0-.04,0Z"/>
  <path d="m408.31,187.29s0-.01,0-.02c.11.17.23.32.36.45-.19-.14-.34-.28-.36-.43Z"/>
  <path d="m424.42,163.86s.01,0,.02-.01c0,.01,0,.02,0,.03,0,0-.02-.01-.03-.02Z"/>
  <path d="m428.91,149.69s0,0,0,0c0,0,0,0,.02,0,0,0-.01,0-.02,0Z"/>
  <polygon points="438.97 123.01 438.97 123.01 438.97 123.02 438.97 123.01"/>
  <path d="m439.09,135.24s.08-.07.14-.11c0,0,0,0,0,0-.05.04-.1.07-.14.11Z"/>
  <path d="m439.31,134.5s0-.02,0-.03c0,0,.02-.01.02-.02,0,0,.02,0,.03,0-.02.02-.03.03-.05.05Z"/>
  <path d="m440.37,123.74s-.01-.01-.02-.02c.01,0,.03,0,.04,0,0,0-.01.01-.02.02Z"/>
  <path d="m442.45,123.16c-.9-.36-1.83-.49-2.8-.47,0-.01-.01-.02-.02-.03,1.86-.85,2.08-.82,2.86.49-.01,0-.03,0-.04.01Z"/>
  <path d="m443.84,117.5s0-.03,0-.04c.02.01.02.03.04.04-.01,0-.02,0-.04,0Z"/>
  <polygon points="449.33 118.58 449.32 118.57 449.33 118.57 449.33 118.58"/>
</svg>