<?xml version="1.0" encoding="UTF-8"?>
<svg id="Layer_1" data-name="Layer 1" xmlns="http://www.w3.org/2000/svg" viewBox="0 0 381.55 368.88">
  <path d="m377.57,147.74c-4.28-20.7-10.56-42.8-30.26-53.87-10.56-5.94-23.24-6.8-35.33-6.04-12.09.75-24.12,2.97-36.24,2.64-20.5-.56-39.78-11.64-49.1-30.24-8.64-17.23-8.55-36.83-25.5-49.1-26.06-18.86-63.2-10.23-90.92.11-29.92,11.16-57.08,29.87-77.83,54.18-1.87,2.19-3.68,4.42-5.44,6.69-10.93,14.12-19.98,30.88-24.27,48.48-3.64,14.96-3.84,30.53,1.18,45.63,3.38,10.17,9.22,19.77,17.85,26.13,13.64,10.06,32.04,10.69,48.83,8.46s33.46-6.89,50.37-5.94c7.03.39,14.68,2.16,18.88,7.82,5.73,7.71,2.49,18.51-.35,27.69-12.89,41.75-10.27,97.21,28.83,124.77,28.63,20.17,70.01,15.36,100.95,3.23,25.25-9.89,47.65-26.52,65.48-46.95,23.5-26.93,39.17-60.6,44.65-95.91,3.48-22.45,2.83-45.52-1.77-67.77Z"/>
</svg>