<?xml version="1.0" encoding="UTF-8"?>
<svg id="Layer_1" data-name="Layer 1" xmlns="http://www.w3.org/2000/svg" viewBox="0 0 475.22 436.83">
  <path d="m430.59,234.49c38.63-32.56,57.15-63.37,35.33-96.69-26.51-40.5-108.65-61.79-184.27-49.67,3.9-39.65,4.07-60.76-16.96-77.73-36.35-29.32-76.17,6.45-126.73,69.12C87.4,142.19,12.65,208.01,48.99,237.33c6.21,5,13.96,8.72,22.8,11.13-23.31,54.32-15.1,81.94,6.89,115.54,23.32,35.63,83.34,41.43,132.21,15.62.17,15.87,3.79,30.09,10.82,40.84,25.58,39.09,77.41,1.49,144.79-42.6,67.39-44.1,124.8-78.01,99.22-117.1-7.23-11.04-19.6-20.05-35.14-26.28ZM289.87,9.03c.14.54.28,1.14.47,1.74.35,1.22.87,2.48,1.31,3.94.24.72.5,1.45.79,2.2.28.75.5,1.57.79,2.38.61,1.6,1.09,3.37,1.7,5.15,1.08,3.64,2.17,7.6,3.07,11.83.84,4.24,1.41,8.31,1.87,12.08.15,1.88.41,3.7.48,5.4.05.85.17,1.7.22,2.5.03.8.08,1.58.15,2.33.17,1.52.19,2.88.36,4.14.07.63.18,1.23.26,1.78.07.55.15,1.07.26,1.54.42,1.91,1.14,3.21,2.2,3.59,1.06.38,2.37-.21,3.88-1.74.38-.38.76-.82,1.16-1.31.38-.5.73-1.06,1.1-1.67.72-1.23,1.55-2.67,2.15-4.34.32-.83.65-1.72.96-2.64.31-.93.52-1.92.78-2.94.54-2.05.81-4.28,1.08-6.64.38-4.72.16-9.99-.92-15.38-1.14-5.37-3.03-10.3-5.25-14.49-1.18-2.07-2.31-4.01-3.62-5.67-.64-.84-1.23-1.66-1.88-2.39-.66-.73-1.31-1.41-1.93-2.05-1.22-1.3-2.54-2.29-3.69-3.13-.59-.41-1.13-.79-1.68-1.1-.56-.3-1.09-.54-1.58-.74-1.98-.8-3.42-.83-4.25-.06-.82.77-.97,2.25-.6,4.17.09.48.22.99.37,1.52Zm35.78,52.4c.36.07.74.1,1.15.12.4,0,.82-.05,1.26-.12.88-.15,1.9-.38,2.87-.85.5-.22,1.02-.48,1.54-.77.52-.29,1.01-.66,1.53-1.04,1.06-.75,2.01-1.72,2.98-2.78,1.85-2.19,3.44-4.97,4.38-8.13.91-3.17,1.08-6.38.71-9.21-.24-1.43-.51-2.75-1.01-3.95-.23-.6-.44-1.17-.72-1.7-.29-.53-.58-1.03-.88-1.49-.56-.92-1.3-1.67-1.96-2.27-.34-.3-.66-.56-1-.78-.35-.21-.7-.39-1.03-.53-1.34-.55-2.51-.5-3.5.04-.99.54-1.72,1.51-2.27,2.61-.14.28-.26.56-.38.85-.12.3-.27.61-.39.93-.25.64-.4,1.26-.66,1.95-.11.34-.21.68-.3,1.02-.09.34-.23.71-.33,1.06-.16.7-.44,1.44-.61,2.18-.45,1.5-.87,3.05-1.33,4.7-.5,1.63-.99,3.17-1.42,4.67-.26.71-.43,1.49-.67,2.16-.11.35-.19.73-.3,1.07-.11.33-.21.67-.3,1.02-.16.72-.37,1.33-.5,2-.07.33-.12.67-.18.99-.06.31-.11.61-.14.92-.13,1.23-.03,2.44.5,3.42.54.99,1.49,1.66,2.92,1.92ZM45.5,263.91c-.96-.59-2.44-.15-4.35,1.2-.47.34-.98.74-1.5,1.19-.51.46-1.02.99-1.56,1.57-1.06,1.17-2.26,2.52-3.35,4.16-.56.81-1.13,1.67-1.71,2.58-.58.91-1.09,1.9-1.65,2.92-1.14,2.03-2.11,4.3-3.11,6.71-1.88,4.86-3.44,10.42-4.32,16.39-.84,5.97-.91,11.75-.48,16.94.28,2.6.57,5.05,1.09,7.32.25,1.13.46,2.23.76,3.26.3,1.04.61,2.02.92,2.96.58,1.88,1.35,3.52,2.04,4.93.35.71.69,1.36,1.05,1.95.38.58.74,1.11,1.1,1.57,1.44,1.84,2.74,2.67,3.83,2.38,2.23-.61,2.91-5.4,3.41-12.41.07-.88.13-1.8.17-2.74.05-.95.16-1.93.22-2.95.08-2.02.32-4.17.45-6.41.4-4.49.89-9.37,1.59-14.47.76-5.09,1.67-9.91,2.55-14.33.5-2.19.89-4.32,1.38-6.28.23-.99.4-1.97.62-2.89.23-.92.43-1.81.61-2.68,1.5-6.87,2.21-11.65.23-12.87Zm-34.84,6.07c-1.76,1.01-3.56,2.58-5.21,4.61-1.61,2.05-3.06,4.57-4.05,7.4C.43,284.84,0,287.71,0,290.32c.04,2.62.48,4.96,1.24,6.84,1.5,3.8,3.96,5.6,6.14,5.25,2.25-.36,3.92-2.54,5.39-5.26.72-1.37,1.44-2.91,2.09-4.55.69-1.64,1.33-3.4,1.96-5.26.66-1.85,1.24-3.62,1.72-5.34.51-1.69.89-3.34,1.18-4.87.53-3.04.57-5.79-.98-7.47-1.49-1.63-4.54-1.74-8.07.32Zm410.74,96.91c-5.94.85-13.77,3.42-21.65,7.76-7.88,4.35-14.22,9.6-18.11,14.17-3.9,4.58-5.41,8.41-4.03,10.16,1.4,1.79,5.36,1.23,10.69-.74,5.34-1.98,12.09-5.3,19.33-9.31,7.25-3.99,13.66-7.93,18.18-11.39,4.51-3.46,7.09-6.51,6.33-8.65-.75-2.1-4.79-2.87-10.74-2.01ZM108.27,91.78c2.64-1.32,5.55-3.23,8.55-5.64,2.97-2.43,6.01-5.39,8.85-8.78,2.83-3.41,5.19-6.93,7.05-10.29,1.84-3.38,3.19-6.59,4.02-9.42,1.66-5.68,1.36-9.71-.63-10.71-2.03-1.03-5.32,1.04-9.27,4.78-1.97,1.88-4.15,4.16-6.44,6.74-2.31,2.57-4.74,5.42-7.26,8.45-2.53,3.02-4.9,5.92-7.01,8.66-2.13,2.72-3.98,5.27-5.47,7.55-2.97,4.56-4.42,8.16-3.04,9.98,1.35,1.77,5.37,1.35,10.65-1.31Z"/>
</svg>