<svg version="1.1" xmlns="http://www.w3.org/2000/svg" x="0px" y="0px"
	 viewBox="0 0 190.8 196.2" enable-background="new 0 0 190.8 196.2" xml:space="preserve">
<path opacity="0.4" fill="#231F20" d="M167,105.1l-3.8-33.4c-2.1-18.6-14-34.6-31.2-42.1L100.6,16c-17-7.4-36.7-5.1-51.7,5.9
	L21.3,42.2c-15.1,11.1-23.1,29.4-21,48l3.8,33.4c2.1,18.6,14,34.6,31.2,42.1l31.5,13.6c17,7.4,36.7,5.1,51.7-5.9l27.6-20.3
	C161.1,142,169.1,123.7,167,105.1z"/>
<path d="M171.1,96.6l-3.8-33.4c-2.1-18.6-14-34.6-31.2-42.1L104.7,7.5c-17-7.4-36.7-5.1-51.7,5.9L25.4,33.7
	c-15.1,11.1-23.1,29.4-21,48L8.2,115c2.1,18.6,14,34.6,31.2,42.1l31.5,13.6c17,7.4,36.7,5.1,51.7-5.9l27.6-20.3
	C165.2,133.5,173.2,115.2,171.1,96.6z"/>
<path opacity="0.8" fill="none" stroke="#6111AE" stroke-width="2" stroke-miterlimit="10" d="M185.3,101l-4.9-43.4
	c-1.8-15.7-11.8-29.2-26.2-35.5l-40-17.4c-14.5-6.3-31.2-4.4-43.9,5l-35.1,26C22.4,45,15.7,60.4,17.4,76.1l4.9,43.4
	c1.8,15.7,11.8,29.2,26.2,35.5l40,17.4c14.5,6.3,31.2,4.4,43.9-5l35.1-26C180.3,132.1,187.1,116.7,185.3,101z"/>
<ellipse transform="matrix(0.9998 -1.871865e-02 1.871865e-02 0.9998 -3.0492 1.0946)" opacity="0.21" fill="#231F20" cx="56.9" cy="163.4" rx="32.8" ry="32.8"/>
<ellipse transform="matrix(0.9987 -5.056840e-02 5.056840e-02 0.9987 -7.8386 3.3184)" fill="#231F20" cx="61.7" cy="156.6" rx="32.8" ry="32.8"/>
<path d="M19.2,31.6l0.1-6.3c0.1-4.1-4.4-6.8-8-4.8l-5.5,3.1c-3.6,2-3.7,7.2-0.1,9.3l5.4,3.3C14.7,38.2,19.2,35.7,19.2,31.6z"/>
<path d="M166.2,165.1l0.1-6.3c0.1-4.1-4.4-6.8-8-4.8l-5.5,3.1c-3.6,2-3.7,7.2-0.1,9.3l5.4,3.3C161.6,171.8,166.1,169.3,166.2,165.1z
	"/>
<path d="M29.1,9.2l0.1-3.9c0-2.5-2.7-4.2-4.9-2.9l-3.4,1.9c-2.2,1.2-2.3,4.4-0.1,5.7l3.3,2C26.3,13.3,29.1,11.7,29.1,9.2z"/>
<path opacity="0.76" fill="#231F20" d="M187.2,104.9l3.1-8.6c2-5.6-2.8-11.3-8.6-10.2l-9,1.6c-5.9,1-8.4,8-4.6,12.6l5.9,7
	C177.8,111.8,185.1,110.5,187.2,104.9z"/>
</svg>
