<?xml version="1.0" encoding="UTF-8"?>
<svg id="Layer_1" data-name="Layer 1" xmlns="http://www.w3.org/2000/svg" viewBox="0 0 400 449.83">
  <path d="m15.76,413.01c.32.8.78,1.45,1.4,2.08.23.23.58.74.91.83.43.12.77-.39,1.06-.6.41-.3.92-.48,1.34-.77.47-.32.64-1.15.79-1.67.23-.76.61-1.75.32-2.53-.13-.36-.41-.59-.56-.92-.1-.24-.1-.2,0-.48.09-.27.17-.54.26-.81.27-.8.39-1.63.38-2.48-.01-.64-.18-1.24-.27-1.87-.04-.26-.04-.49-.2-.71.14.09.25.38.31.53.14.33.26.64.45.94.37.58.37,1.31.61,1.96.28.77.65,1.52.91,2.29.19.55.59,1.01.92,1.48.2.29.44.5.61.83.09.17.17.35.28.51.38.54.64,1.1.67,1.78.01.31.14.56.15.89,0,.35,0,.69,0,1.04,0,.69.35,1.19.6,1.78.22.53.48,1.08.49,1.66.02,1.13.97,1.23,2.02,1.42.36.06.72.18,1.08.19.22,0,.48-.06.69.02-.14.42-1.09.48-1.19.99.32.11.75-.1,1.07-.13.65-.06,1.22-.34,1.86-.43,1.07-.14,2.21-.02,3.3-.02.53,0,1.06-.02,1.58,0,.66.02,1.32.22,1.97.3.27.03.64.06.9.14.55.24,1.03.15,1.31.15h1.19c.9,0,2.07-.21,2.91.14.32.13.77.48.26.71.08.24.56.27.76.35.28.11.53.24.83.32,1.85.44,3.8-.27,5.61-.48.89-.1,1.76-.26,2.64-.4.42-.07.84-.11,1.25-.2.25-.06.8-.06.67-.41-.08-.22-.51-.33-.7-.36.08-.32.85-.43,1.13-.52.7-.22,1.38-.45,2.12-.49.49-.03.9.02,1.36.12.24.06.46.02.7.03.81.04,1.54.31,2.33,0,.27-.11.52-.27.8-.37.95-.35,2.02-.31,2.99-.61.57-.18,1.1-.53,1.63-.81.47-.24.86-.49.69-1.11-.16-.58-.93-.71-1.36-1.07-.49-.41-.29-.99.04-1.45.28-.4.82-.48,1.24-.66.38-.16.77-.29,1.18-.3.61,0,1.3-.15,1.89-.29.67-.17,1.44-.33,2.06-.63.25-.12.72-.26.89-.48.28-.35-.22-.44-.53-.59-.27-.13-.84-.3-.83-.67.01-.39.74-.96,1-1.18.52-.42,1.26-.81,1.89-1.03.52-.18,1.07-.42,1.61-.57.85-.23,1.73-.48,2.56-.78.3-.11.61-.19.91-.3.17-.06.53-.11.63-.23-.51.15-.97.39-1.48.57-.15.05-.33.18-.46.22-.24.07-.48.07-.72.17-.41.18-.8.42-1.2.61-.09.04-.53.16-.56.33-.07.4.64.14.72.35.1.28-.81.65-1,.84-.22.21-.63.78-.64,1.08-.02.9,1.86,1.28,2.48,1.41.94.21,1.89.25,2.83.44.34.07.94.1,1.22.33-.08.25-.62.39-.87.41-.68.05-1.3.23-1.95.48.15.32.65.26.94.26.6,0,1.18.06,1.76-.14,2.06-.69,4.24-.73,6.38-.95.46-.05.93-.15,1.39-.11.3.03.59.15.88.21,1.02.22,2.14.3,3.19.38.46.03,1.01-.1,1.45.04-.82.45-1.79.38-2.69.41-.45.01-.91.08-1.34.19-.24.06-.92.16-1.03.41.12.34,1.4.4,1.6.42.4.03,1.07-.11,1.44.02.33.11.6.27.97.35,1.21.24,2.49.09,3.72.24.62.07,1.44.61,2.05.46-.27.12-.54.23-.82.31,1.12-.04,2.21.07,3.32.15.72.05,1.42.3,2.15.29.27,0,.33-.06.55-.15.36-.15.95-.31,1.35-.31.31,0,.58.18.89.18.2,0,.4-.09.59-.13.33-.07,2.04.17,2.06-.44,0-.09-.23-.37-.28-.48-.07-.16-.07-.36-.14-.52-.06-.14-.08-.36-.18-.49-.08-.11-.23-.17-.3-.29-.26-.4.24-.51.55-.65.6-.26,1.21.02,1.85.01.64,0,1.23.09,1.85-.07.89-.23,1.82-.41,2.57-.97.35-.26.66-.54,1.07-.7.28-.11.57-.17.88-.17.66,0,1.24.08,1.9-.07,1.81-.42,3.51-.61,5.18.38.44.26.98.45,1.39.74.24.17.39.4.64.56.54.35,1.13.61,1.58,1.08.2.21.52.54.59.84.06.3.04.54.21.82.15.25.46.33.77.35.9.07,1.8,0,2.69-.14,1.95-.32,3.87-.64,5.81-.87.71-.08,1.62-.1,1.91.65.18.45,0,.53-.42.63-.39.1-.89.04-1.3.03.21,0,.45.1.65.15.4.09.77.22,1.15.37.84.34,1.77.21,2.64.48.64.2,1.27.41,1.92.6.55.16,1.23.24,1.61.74.32.27.78.19,1.17.19.7,0,1.41,0,2.12,0,.8,0,1.6,0,2.4,0-.47-.01-.93.07-1.39.17-.26.74,1.06.61,1.46.56,1.46-.19,2.86-.99,4.15-1.65.98-.5,2.07-1,2.92-1.71.59-.49.32-.67-.3-.77-.47-.08-.67-.25-.43-.73.38-.77,1.13-1.31,1.72-1.91.17-.17.94-.74.83-1.07-.13-.38-1-.28-1.28-.43.07.04,1.7-1.42,1.88-1.56.38-.29.7-.48,1.08-.63.72-.28,1.43-.56,2.11-.93.92-.5,1.88-.91,2.83-1.34.25-.11.48-.26.75-.33.25-.07.44.06.6-.19.46.06.43.76.57,1.1.25.6.58.9,1.3.93,1.54.09,2.98-.46,4.36-1.04.65-.27,1.47-.58,1.86-1.18.36-.56-.19-.57-.08-1.08.08-.41.77-.61,1.11-.77.51-.23.74-.47,1.3-.46,1.12.02,2.21-.23,3.3-.39.62-.09,1.14-.22,1.78-.22.81,0,1.61.11,2.41.19.69.07,1.02.38,1.68.02.54-.3,1.03-.5,1.32-1.03.31-.57,1.07-1.38,1.76-1.62.83-.29,2.12.89,2.81,1.2,1.28.58,2.59.98,3.83,1.65.77.41,1.43.9,2.13,1.4.99.69,2.25,1.12,3.48,1.25.59.06,1.58.18,2.17,0-.04-.39-.61-.46-.8-.84.42-.36.97-.43,1.51-.31.93.2,1.61.82,2.58.99.63.11,1.26.13,1.87.33.6.21,1.15.56,1.74.79.96.38,1.87.74,2.66,1.39-.33.45-3.22.56-3.04,1.13.98.29,2.13.47,3.16.47.51,0,.81-.04,1.22.25-.2.33,1.95,1.92,2.2,2.28.14.2.17.41.22.64.14.72.48,1.29,1.07,1.73.4.29,1.01.39,1.47.59.43.19.75.43,1.12.71.35.27.75.49,1.1.75.25.19.52.4.8.57.37.22.8.21,1.19.3.42.09.78.21,1.21.23-.11-.15-.51-.32-.68-.42-.18-.09-.7-.3-.73-.45.28-.13.74.07,1.03.15.45.12.88.36,1.32.5,1.48.48,3.03.76,4.54,1.13.78.19,1.75.31,2.12,1.08.23.47.17,1.04.31,1.55.17.62.76.87,1.3,1.07.25.09.64.13.84.33.16.16.24.41.39.59.4.47.99.74,1.44,1.16.23.22.41.45.59.7.22.32.45.29.78.44.59.27,1.24.3,1.92.3.76,0,1.54.13,2.3,0,.45-.08.68-.09,1.14,0,.44.09.88.17,1.32.27.32.07,1.42.6,1.65.21.43.04.44,1.16.73,1.46.26.27,2.2.56,2.04,1.15,0,.04,2.06.77,2.31.68.32-.11.46-.65.6-.92.23-.44.46-.89.67-1.34.32-.04.67.49.88.65.88.67,1.83.95,2.93,1,.73.03.86.17,1.33.62.35.34.65.44,1.14.61,1.1.39,2.22.71,3.11,1.48.58.51,1.15,1.08,1.85,1.43.35.18.59.34.89.6.34.29.62.57.93.89.8.83,1.7,1.54,2.52,2.37.79.79,1.61,1.57,2.45,2.3.3.26.62.5.89.78.12.12.44.42.46.56-.51.17-1.42.08-1.9-.07-.63-.2-1.19-.45-1.75-.76-.65-.36-1.38-.53-2.12-.59-.51-.04-.98-.22-1.47-.33-.21-.05-.52-.19-.72-.12.03.23.55.38.73.52.38.29.56.75.88,1.09.27.29.67.57,1.03.74.38.18.81.16,1.2.32.51.22.73.73,1.06,1.15.19.24.47.42.71.63.27.23.47.52.74.75.2.16.47.42.7.52.27.12.64.13.93.21.81.24,1.37.81,2.07,1.24.58.36,1.15.61,1.77.88.58.25,1.14.56,1.72.8.64.27,1.82,1.03,2.54.72-.34-.27-.66-.41-.89-.81-.25-.44-.28-.99-.39-1.46-.12-.49-.26-.92-.7-1.26.46-.48,1.51.2,1.94.44.58.33,1.08.67,1.56,1.12.52.48.71,1.2,1.21,1.67.75.71,1.8.51,2.64.12.18-.08.44-.17.59-.27.23-.15.36-.34.67-.4.72-.14,1.24.57,2.03.41.71-.15,1.34-.57,2.03-.78,1-.3,1.93-.75,2.94-.99.99-.24,1.99-.52,3.01-.58.31-.02.59-.06.89-.15.16-.05.5-.23.69-.12-.24.29-.93.09-1.22.04-.9-.13-1.79,0-2.7-.04-.62-.02-1.19.14-1.81.13-.21,0-.67,0-.82-.16-.24-.46-.34-.45-.53-.49-.37-.08-.72-.09-1.09-.11-.19,0-.49.08-.6-.14-.26-.52.97-1.49,1.27-1.66.61-.33,1.28-.48,1.92-.73.15-.06.26.11.3-.14.44-.43,1.05-.69,1.66-.83.88-.2,1.73-.51,2.58-.8.63-.21,1.22-.37,1.79-.66.41-.21.87-.16,1.32-.26,1.23-.28,2.42-.86,3.7-.79.77.04.95.58,1.53.92.62.04.82-.34,1-.53.6-.65,1.53-1.01,2.41-1.05.6-.02,1.26-.2,1.86-.3.6-.11,1.21-.28,1.79-.43-.26.43-.74.62-1,1.08-.08.15-.25.22-.07.38.22.19,1.17-.09,1.34-.14.8-.24,1.64-.38,2.46-.44.37-.02.71-.15,1.09-.16.2,0,.41,0,.61,0-.29.27-.59.48-.93.69-.51.32-.89.76-1.41,1.07-.23.14-1.37.82-1.15,1.2.67-.08,1.19-.56,1.76-.88.61-.34,1.22-.61,1.78-1.03.81-.61,1.71-1.11,2.49-1.73.43-.34.88-.64,1.38-.84.64-.26,1.34-.49,1.9-.86.44-.29.94-.75,1.26-1.16.16-.21.29-.16.07-.4-.07-.08-.3-.07-.41-.17.45-.18.91-.44,1.35-.67.29-.16.55-.37.77-.62.66-.77,1.38-1.48,2.08-2.21.14-.14.42-.37.44-.59.02-.24-.1-.34-.3-.51-.43-.37-.92-.68-.29-1.18.64-.51,1.39-.57,2.13-.88.61-.25,1.1-.87,1.49-1.38.36-.47.66-1.06.48-1.64-.12-.37-.37-.65-.53-1-.09-.19-.3-.53-.27-.74.18-.79.24-1,.34-1.18.17-.32.44-.51.71-.74.34-.3.6-.68,1-.9.39-.21.82-.34,1.23-.47.21-.07.74-.25.72-.53-.74-.11-1.34-.95-.44-1.43.46-.24.83-.41,1.25-.74.33-.26.8-.67.99-1.05.21-.43.33-.81.26-1.28-.09-.55-.19-1.12-.3-1.67-.19-.98-.35-1.99-.41-2.98.67.66.91,1.63,1.04,2.51.09.61.34,1.22.48,1.82.1.42.24.97.5,1.32.45.58,1.27.8,1.9,1.1.24.11.38.36.38.62,0,.46-.07.81-.17,1.25-.1.42-.3,1.02-.02,1.42.23.34.8.38,1.16.48.42.12.83.16,1.25.29.4.12.79.25,1.18.37.94.28,1.89.23,2.83.52.34.1.71.16,1.04.26.2.06.82.19.95.35,0,.81-.22,1.44.16,1.87.12.13.63.48.81.38.12-.06.18-.57.35-.72.29-.24.7-.26,1.07-.27.21,0,.85.12,1.01,0-.78.56.82,1.14,1.26,1.02,1-.27,2.16-.46,3.04-1.06.56-.38,1.05-.86,1.63-1.2.45-.26.91-.57,1.27-.95.15-.17.25-.38.4-.54.19-.2.39-.28.6-.46.27-.24.43-.56.7-.79.21-.18.45-.37.68-.52.4-.25.75-.34,1.17-.44.43-.11.89-.13,1.34-.21.54-.1.96-.38,1.48-.57.58-.21,1.04-.4,1.59-.7.63-.35,1.4-.86,2.1-1.06.12.25-.5.87.17,1,.3.06.7-.24.95-.38.37-.21.69-.5.99-.79.43-.42.71-.98,1.2-1.36.31-.24.73-.38,1.02-.63.14-.12.23-.28.37-.4.98-.86,2.42-1.77,3.69-2.08,1.11-.27,2.22-.67,3.31-1.02.7-.22,1.6-.77,2.35-.76-.52.02-1.23.13-1.73-.02.07-.3.62-.35.87-.49.45-.25.89-.45,1.36-.67.73-.34,1.58-.78,2.16-1.34-.67.03-1.37-.16-2.02-.33-.45-.11-.89-.24-1.34-.37-.32-.1-.84-.11-1.1-.33-.12-.1-.38-.51-.36-.66.03-.2.5-.49.65-.59.84-.57,1.96-.63,2.82-1.19.55-.36.95-.92,1.57-1.18.98-.42,2.22-.46,3.27-.6,1.21-.16,2.42-.28,3.63-.38V11.33c0-6.26-5.07-11.33-11.33-11.33H11.33C5.07,0,0,5.07,0,11.33v380.53c1.06,2,2.28,3.9,3.38,5.88.14.26.26.53.37.8.41,1.05.84,1.74,1.85,2.34.26.15.48.29.76.39.19.06.63.08.74.28.16.31-.34,1.11-.47,1.43-.23.58-.5,1.46-.16,2.04.23.39.93.93,1.35,1.22.67.44,1.61.66,2.36.97.65.27,1.06.52,1.48,1.08.79,1.04,1.92,1.7,2.78,2.67.53.6.98,1.09,1.32,2.04Z"/>
</svg>