<svg version="1.1" xmlns="http://www.w3.org/2000/svg" x="0px" y="0px"
	 viewBox="0 0 15.3 14.3" style="enable-background:new 0 0 15.3 14.3;" xml:space="preserve">
<g>
	<g>
		<path d="M15,8.4c-0.1,0.2-0.1,0.4-0.2,0.6c0-0.1,0-0.2,0.1-0.3C14.8,8.6,14.8,8.5,15,8.4c-0.1,0-0.1-0.2-0.1-0.3
			c0-0.1,0-0.2,0.1-0.3c0.1-0.1,0-0.2,0-0.3c0-0.1,0.1-0.2,0.1-0.3c-0.1,0-0.3,0-0.4,0c0-0.1,0-0.2,0-0.3c0,0,0-0.1,0-0.1
			c0,0,0-0.1,0-0.1c0,0,0,0,0,0c0-0.1,0-0.1,0-0.2c0-0.1,0-0.2,0-0.3c0-0.1,0-0.1,0-0.2c0-0.1,0-0.1,0-0.1c0,0,0,0,0,0c0,0,0,0,0,0
			c0-0.1,0.1,0,0.1-0.1c0-0.1-0.1,0-0.1-0.1c0,0,0,0,0-0.1c0,0,0.1-0.1,0.1-0.1c0,0-0.1,0-0.1-0.1c0,0,0-0.1,0-0.1c0,0,0-0.1,0-0.1
			c0-0.2-0.1-0.4-0.2-0.6c-0.1-0.2-0.1-0.4-0.2-0.6c-0.1-0.1-0.1-0.3-0.2-0.4c0-0.1-0.1-0.2-0.1-0.2c0,0.1,0,0.2,0,0.3
			c0-0.1-0.1,0-0.1,0c-0.1,0-0.1,0-0.1-0.1c-0.1-0.1-0.1-0.2-0.2-0.3c0-0.1-0.1-0.1-0.1-0.2c0,0,0-0.1,0-0.1c0.1,0,0.1,0.1,0.2,0.2
			c0,0-0.1-0.2-0.1-0.2c-0.1,0-0.2-0.1-0.2-0.2c0.1,0,0.1,0.1,0.2,0c-0.1,0-0.1-0.1-0.1-0.2c-0.1-0.1-0.1-0.3-0.2-0.4
			c-0.1-0.2-0.3-0.3-0.5-0.4c0,0,0,0.1,0.1,0.1c0.1,0,0.1,0.1,0,0.1c-0.1-0.1-0.2-0.1-0.2-0.2c0-0.1,0-0.1-0.1-0.1
			c-0.1,0-0.1,0-0.1-0.1c0,0,0.1,0,0.1,0c0-0.1,0-0.1,0-0.2c0,0-0.1,0-0.1,0c0,0,0-0.1,0-0.1c0-0.1,0-0.2-0.1-0.2c0,0,0,0.1,0,0.1
			c0,0-0.1,0.1-0.1,0.1c0,0.1,0.1,0.1,0.1,0.2c0,0.1-0.1,0-0.1,0c0,0-0.1,0-0.1-0.1c-0.1,0-0.1-0.1-0.1-0.2C11.9,1.1,11.8,1,11.7,1
			c-0.1,0-0.4-0.3-0.4-0.2c0,0,0.1,0.1,0.1,0.1C11.4,0.9,11.5,1,11.6,1c0.1,0.1,0.3,0.2,0.4,0.3c0.1,0.1,0.1,0.1,0.2,0.2
			c0,0,0.1,0.1,0.1,0.2c0,0.1-0.1,0-0.1,0c-0.1,0-0.1-0.1-0.2-0.1c0,0,0,0,0,0.1c-0.1-0.1-0.2-0.1-0.3-0.2c0.1,0,0.1,0,0-0.1
			c-0.1-0.1-0.1-0.1-0.2-0.1c0,0,0,0.1,0.1,0.1c-0.1,0-0.1-0.1-0.2-0.1c0,0,0.1,0,0.1,0c-0.1,0-0.1-0.1-0.1-0.1c0,0-0.2-0.1-0.2,0
			c0,0,0,0,0,0.1C11.2,1.1,11.1,1.1,11,1c-0.1,0-0.2-0.1-0.3-0.1c-0.1,0-0.1-0.1-0.1-0.1c0,0,0,0,0,0c0,0,0,0-0.1,0
			c-0.1,0-0.1,0-0.1-0.1c0,0.1,0,0-0.1,0c0,0-0.1,0-0.1,0c-0.1,0-0.2-0.1-0.2-0.1c0,0,0,0,0,0c0,0,0,0,0,0c-0.5-0.2-1-0.3-1.5-0.3
			c-0.3,0-0.5,0-0.8,0c-0.1,0-0.2,0-0.4,0c0,0-0.3,0-0.3,0.1c0,0-0.1,0-0.1,0c0-0.1-0.1-0.1,0,0C6.3,0.4,5.9,0.5,5.4,0.7
			c-0.1,0-0.1,0-0.2,0c0,0,0,0,0,0c0,0,0,0,0,0C5.1,0.8,5,0.8,4.9,0.9c-0.1,0-0.1,0.1-0.2,0.1C4.6,1,4.6,1,4.5,1
			c0,0-0.1,0.1-0.1,0.1c0,0,0,0,0.1,0C4.4,1.2,4.2,1.2,4.1,1.3c0,0,0.1-0.1,0.1-0.1c-0.1,0-0.3,0.1-0.4,0.2c0,0-0.1,0-0.1,0.1
			c-0.1,0.1,0,0.1,0,0.1c0,0-0.1,0-0.1,0.1c0,0,0,0,0,0c0,0,0,0,0,0C2.9,2.2,2.2,3,1.8,3.8c0-0.1-0.1,0.1-0.1,0.1
			c0,0-0.1,0.1-0.1,0.1C1.6,4.1,1.5,4.2,1.5,4.3c0,0,0,0,0.1-0.1c0,0,0,0.1,0,0.1c0,0,0,0,0,0c0,0-0.1,0.1-0.1,0.1
			c0,0.1,0,0.1,0,0.1c0,0.1-0.1,0.1-0.1,0.2c0,0,0,0.1,0,0.1c0,0,0,0,0,0.1c0,0,0,0,0,0.1c0,0,0,0.1-0.1,0.1c0,0.1,0,0.1,0,0.2
			c0,0,0,0-0.1,0c0,0,0,0,0.1,0c0,0.1-0.1,0.3-0.1,0.4c0,0,0,0.2,0,0.2c0,0-0.1-0.1-0.1-0.1C0.8,6,0.8,6.2,0.8,6.4
			c0,0.2,0,0.4,0,0.7c0,0.2,0,0.4,0,0.6c0,0.1,0,0.1,0,0.2c0,0,0,0.1,0,0.1c0,0.1-0.1,0-0.1,0.1c0,0.3,0.1,0.6,0.1,0.9
			C0.9,9.1,1,9.2,1,9.3c0,0,0,0.1,0,0.1c0,0,0,0-0.1,0.1c0,0,0,0,0,0.1c0,0,0,0.1,0,0.1c0,0,0-0.1,0-0.1c0.1,0.1,0.1,0.2,0.2,0.3
			c0,0.1,0.1,0.2,0.2,0.2c0,0,0,0,0,0c0.1,0,0.1,0.1,0.1,0.2c0,0,0.1,0,0.1,0.1c0,0,0,0.1,0.1,0.1c0.1,0.1,0.2,0.3,0.2,0.4
			c0.2,0.3,0.4,0.6,0.6,0.8c0.4,0.5,0.9,1,1.5,1.3c0.6,0.4,1.2,0.7,1.8,0.8c0.2,0.1,0.3,0.1,0.5,0.2C6.5,14,6.7,14,6.9,14
			c0.4,0.1,0.9,0.1,1.3,0c0.3,0,0.6-0.1,0.9-0.1c0.1,0,0.2,0,0.4-0.1c0.1,0,0.2-0.1,0.3-0.1c0,0,0,0,0.1,0c0,0,0,0.1,0.1,0.1
			c0,0,0.1,0,0.1,0c0,0,0.1,0,0.1,0c0,0,0,0,0,0c0,0,0.1-0.1,0.1-0.1c0,0,0,0,0,0c0.2-0.1,0.4-0.2,0.5-0.3c0.1,0,0.2-0.1,0.3-0.1
			c0.1-0.1,0.1-0.1,0.2-0.1c0,0,0,0,0.1,0c0,0,0,0,0,0c0,0,0.1,0,0.1,0c0,0,0.1,0,0.1,0c0.1,0,0.2-0.1,0.3-0.1
			c0.1-0.1,0.2-0.2,0.3-0.2c0,0,0,0,0,0c0.1-0.1,0.2-0.1,0.3-0.2c0.3-0.2,0.5-0.4,0.8-0.6c0.1-0.1,0.2-0.2,0.3-0.3
			c0.1-0.1,0.2-0.2,0.3-0.3c0.1-0.1,0.2-0.2,0.3-0.4c0.1-0.1,0.1-0.2,0.3-0.3c-0.1,0.1-0.1,0.3-0.2,0.4c0-0.1,0.6-0.8,0.5-0.9
			c-0.1,0-0.1,0-0.1-0.1c0-0.1,0.1-0.2,0.2-0.3c0,0,0.1-0.1,0.1-0.2c0,0,0.1,0,0.1-0.1C14.9,9.7,15,9.6,15,9.5
			c-0.1,0.1-0.2,0.2-0.3,0.3c-0.1,0.1-0.1,0.3-0.2,0.4c0,0,0,0,0-0.1c0,0,0,0,0-0.1c0-0.1,0-0.1,0.1-0.2c0-0.1,0-0.1,0.1-0.2
			c0-0.1,0.1-0.2,0.1-0.2C14.9,9,15,8.7,15.1,8.3C15,8.3,15,8.3,15,8.4z M11.4,1.2C11.3,1.2,11.4,1.2,11.4,1.2
			C11.3,1.2,11.4,1.2,11.4,1.2z M14.8,7.4C14.8,7.4,14.8,7.4,14.8,7.4C14.8,7.4,14.8,7.4,14.8,7.4z M14.8,7.6
			C14.8,7.6,14.8,7.6,14.8,7.6C14.8,7.6,14.8,7.7,14.8,7.6C14.8,7.7,14.8,7.7,14.8,7.6z M14.6,8C14.6,8,14.6,8,14.6,8
			C14.6,8,14.6,8,14.6,8z M14.3,10.7C14.3,10.7,14.3,10.7,14.3,10.7C14.3,10.7,14.3,10.7,14.3,10.7z M14.2,9.9
			C14.2,9.9,14.2,9.9,14.2,9.9C14.2,9.9,14.2,9.9,14.2,9.9C14.2,9.9,14.2,9.9,14.2,9.9z M14.6,5.1C14.6,5.1,14.6,5.2,14.6,5.1
			C14.6,5.2,14.5,5.2,14.6,5.1C14.5,5.1,14.6,5.1,14.6,5.1z M14.4,4.9C14.4,4.9,14.4,4.9,14.4,4.9C14.4,4.9,14.4,4.9,14.4,4.9z
			 M14.5,5.4c0-0.2-0.1-0.3-0.1-0.5c0,0.1,0.1,0.2,0.1,0.2C14.4,5.2,14.4,5.3,14.5,5.4z M14.3,4.3C14.3,4.3,14.3,4.3,14.3,4.3
			C14.3,4.3,14.3,4.4,14.3,4.3C14.3,4.3,14.3,4.3,14.3,4.3z M14.3,4.6c0,0.1,0,0.1,0,0.2C14.2,4.7,14.2,4.7,14.3,4.6
			c-0.1,0-0.1-0.1-0.1-0.1C14.2,4.4,14.2,4.5,14.3,4.6z M13.9,3.6C13.9,3.6,13.9,3.6,13.9,3.6c0.1,0,0,0.1,0,0.2
			c0.1-0.1,0.1,0,0.2,0.1c0,0.1,0.1,0.2,0.1,0.3c0-0.1-0.1-0.1-0.1-0.2c0,0-0.1-0.1-0.1,0c0,0,0.2,0.4,0,0.3c0,0-0.1-0.1-0.1-0.2
			c0-0.1-0.1-0.2-0.1-0.2C13.9,3.7,13.8,3.7,13.9,3.6z M13.3,3C13.3,3,13.3,3,13.3,3C13.3,2.9,13.4,3,13.3,3z M13.2,2.8
			c0,0,0.1,0.1,0.1,0.1C13.3,2.9,13.2,2.8,13.2,2.8z M12.9,2L12.9,2C12.8,1.9,12.9,1.9,12.9,2z M12.7,2.1c0.1,0,0.1,0.1,0.2,0.2
			C12.9,2.4,13,2.5,13,2.5c-0.1,0-0.1-0.1-0.2-0.2C12.8,2.3,12.7,2.2,12.7,2.1z M12.5,1.9C12.5,1.9,12.5,1.9,12.5,1.9
			C12.5,1.9,12.5,2,12.5,1.9C12.5,1.9,12.5,1.9,12.5,1.9z M12.5,2c0.1,0.1,0.1,0.1,0.2,0.2C12.6,2.2,12.4,2.1,12.5,2
			C12.4,2,12.4,2,12.5,2z M12.2,1.9C12.3,1.8,12.3,1.9,12.2,1.9C12.3,1.9,12.3,1.9,12.2,1.9C12.2,1.9,12.2,1.9,12.2,1.9z M3.8,1.5
			C3.8,1.5,3.9,1.4,4,1.4C3.9,1.4,3.8,1.5,3.8,1.5z M1.5,4.4C1.5,4.4,1.5,4.4,1.5,4.4C1.5,4.4,1.5,4.4,1.5,4.4z M0.9,6.1
			C0.9,6.1,1,6.1,0.9,6.1c0.1,0,0,0.2,0,0.2C0.9,6.3,0.9,6.1,0.9,6.1z M0.9,6.6C0.9,6.6,0.9,6.6,0.9,6.6c0,0,0.1,0.2,0,0.2
			C0.8,6.9,0.9,6.7,0.9,6.6z M0.9,7C0.9,7,0.9,7,0.9,7C0.9,7,0.9,6.9,0.9,7z M0.8,7.2C0.8,7.2,0.8,7.2,0.8,7.2
			C0.9,7.3,0.9,7.3,0.8,7.2z M0.9,8.5C0.9,8.5,0.9,8.5,0.9,8.5C0.9,8.5,0.9,8.5,0.9,8.5C0.9,8.5,0.9,8.5,0.9,8.5z M0.9,8.6
			C0.9,8.6,0.9,8.6,0.9,8.6C0.9,8.6,0.9,8.6,0.9,8.6z M0.9,7.9c0-0.2-0.1-0.4,0-0.6c0,0.1,0,0.2,0,0.3C0.9,7.7,0.9,7.8,0.9,7.9
			C0.9,7.9,0.9,7.9,0.9,7.9z M1,9c0,0-0.1-0.1,0-0.1C1,8.9,1,9,1,9z M1.1,9C1.1,9,1.1,9,1.1,9c0,0,0,0.1,0.1,0.1
			C1.2,9.1,1.1,9.1,1.1,9z M1.3,9.7C1.2,9.7,1.2,9.7,1.3,9.7C1.3,9.7,1.3,9.7,1.3,9.7z M1.2,9.2C1.2,9.3,1.2,9.3,1.2,9.2
			C1.2,9.3,1.2,9.3,1.2,9.2z M10,13.8C10,13.8,10,13.8,10,13.8C10,13.8,10,13.8,10,13.8z M13.3,11.9C13.2,11.9,13.2,11.9,13.3,11.9
			C13.2,11.9,13.3,11.8,13.3,11.9z M13.4,11.6c0,0,0.1-0.1,0.1-0.1C13.5,11.6,13.4,11.6,13.4,11.6z M13.7,11.3
			c-0.1,0.1-0.1,0.1-0.2,0.2C13.6,11.4,13.6,11.3,13.7,11.3C13.7,11.3,13.7,11.3,13.7,11.3z M14.3,10.7c-0.1,0.2-0.2,0.3-0.4,0.5
			c0,0-0.2,0.2-0.2,0.1c0-0.1,0.1-0.1,0.1-0.1c0.1-0.1,0.2-0.1,0.3-0.2C14.1,10.7,14.2,10.7,14.3,10.7
			C14.3,10.6,14.3,10.7,14.3,10.7z M14.3,10.4C14.3,10.4,14.3,10.4,14.3,10.4C14.3,10.4,14.3,10.4,14.3,10.4z M14.4,10.7
			C14.4,10.7,14.4,10.7,14.4,10.7C14.4,10.7,14.4,10.7,14.4,10.7z M14.5,8.9C14.5,8.9,14.5,8.9,14.5,8.9C14.5,8.9,14.5,8.8,14.5,8.9
			C14.5,8.8,14.5,8.8,14.5,8.9z M14.7,9.4c0,0.1,0,0.1-0.1,0.2c0-0.1,0.1-0.2,0.1-0.3C14.7,9.3,14.7,9.3,14.7,9.4z M14.7,8.2
			C14.7,8.2,14.7,8.2,14.7,8.2C14.7,8.2,14.7,8.2,14.7,8.2z M14.7,8.1c0,0,0-0.2,0-0.2C14.8,8,14.8,8,14.7,8.1z"/>
	</g>
	<g>
		<path d="M15.3,7.2C15.3,7.2,15.3,7.2,15.3,7.2C15.3,7.2,15.3,7.2,15.3,7.2C15.3,7.2,15.3,7.1,15.3,7.2z"/>
	</g>
	<g>
		<path d="M10.4,0.7C10.3,0.7,10.3,0.7,10.4,0.7C10.3,0.7,10.3,0.7,10.4,0.7z"/>
	</g>
	<g>
		<path d="M0.9,4.2C1.1,4,1.2,3.8,1.3,3.5c0.2-0.3,0.4-0.6,0.6-0.8c0.2-0.2,0.4-0.4,0.6-0.6c0,0,0.1-0.1,0.1-0.1
			c0.1-0.1,0.2-0.1,0.2-0.2C2.7,1.8,2.6,1.9,2.5,2C2.4,2.1,2.3,2.2,2.2,2.3C2,2.5,1.8,2.7,1.6,3C1.4,3.2,1.3,3.5,1.1,3.7
			C1.1,3.8,1,3.9,1,4C0.9,4.2,0.8,4.3,0.8,4.5C0.9,4.4,0.9,4.3,0.9,4.2z"/>
	</g>
	<g>
		<path d="M14.8,5.4c0,0.1,0,0.2,0.1,0.3c0.1-0.3,0-0.5,0-0.8c-0.1-0.3-0.1-0.6-0.3-0.8c0,0.1,0,0.2,0,0.3c0,0.1,0.1,0.2,0.1,0.3
			C14.8,4.9,14.8,5.1,14.8,5.4z"/>
	</g>
	<g>
		<path d="M5.6,0.5C5.6,0.5,5.6,0.5,5.6,0.5c0.1,0.1,0.2,0,0.2,0c0.1,0,0.2-0.1,0.3-0.1c0.2,0,0.4,0,0.5-0.1c-0.1,0-0.3,0-0.5,0
			c-0.1,0-0.3,0-0.4,0.1C5.7,0.4,5.5,0.4,5.6,0.5z"/>
	</g>
	<g>
		<path d="M13,1.4c0.1,0.1,0.2,0.2,0.3,0.3c0,0,0.2,0.3,0.2,0.2c0.1,0.1,0.1,0.2,0.2,0.2c0-0.1-0.1-0.2-0.1-0.2
			c-0.1-0.1-0.2-0.2-0.2-0.3c-0.1-0.1-0.2-0.2-0.3-0.3c-0.1-0.1-0.1-0.2-0.2-0.3c0,0-0.1-0.1-0.1,0c-0.1,0,0,0,0,0.1
			c0,0.1,0.1,0.1,0.1,0.1C12.9,1.2,12.9,1.3,13,1.4z"/>
	</g>
	<g>
		<path d="M14.9,6c0,0.2,0,0.3,0,0.5c0,0.1,0,0.2,0,0.2c0,0.1,0,0.1,0.1,0.1c0,0,0-0.2,0-0.2c0-0.1,0-0.2,0-0.3c0-0.1,0-0.2,0-0.2
			c0-0.1,0-0.3,0-0.4c0-0.1-0.1-0.1-0.1,0c0,0,0,0.1,0,0.1C14.9,5.9,14.9,5.9,14.9,6z"/>
	</g>
	<g>
		<path d="M2.3,11.9c0,0-0.2-0.2-0.2-0.3c-0.1-0.2-0.2-0.4-0.4-0.5c0.1,0.2,0.2,0.4,0.4,0.6C2.2,11.8,2.2,11.9,2.3,11.9
			c0.1,0.2,0.1,0.3,0.2,0.3C2.5,12,2.4,12,2.3,11.9z"/>
	</g>
	<g>
		<path d="M10.2,0.3c0.1,0,0.3,0,0.4,0c-0.1-0.1-0.1,0-0.2,0c-0.1,0-0.1-0.1-0.2-0.2c0,0-0.2-0.1-0.2,0C9.9,0.1,10.1,0.2,10.2,0.3z"
			/>
	</g>
	<g>
		<path d="M13.9,2.5C13.9,2.6,13.9,2.5,13.9,2.5c0.1,0,0.1,0,0.1,0.1c0,0.1,0.1,0.1,0.2,0.2c0-0.1-0.1-0.4-0.2-0.4c0,0-0.1,0-0.1,0
			C13.8,2.5,13.9,2.5,13.9,2.5z"/>
	</g>
	<g>
		<path d="M15.2,7.6c-0.1,0.1,0,0.2-0.1,0.4c0,0.1,0,0.2,0,0.3c0-0.1,0.1-0.2,0.1-0.3C15.2,7.8,15.2,7.7,15.2,7.6z"/>
	</g>
	<g>
		<path d="M15.1,8.3C15.1,8.3,15.1,8.2,15.1,8.3C15.1,8.2,15.1,8.3,15.1,8.3z"/>
	</g>
	<g>
		<path d="M2.6,2.5C2.5,2.6,2.4,2.7,2.3,2.7c0,0,0,0.1,0,0.1c0,0,0.1-0.1,0.2-0.2C2.5,2.6,2.6,2.6,2.6,2.5C2.6,2.6,2.6,2.5,2.6,2.5z
			"/>
	</g>
	<g>
		<path d="M4.9,0.7C5,0.7,5,0.6,4.9,0.7c0-0.1-0.1-0.1-0.2,0c-0.1,0-0.1,0-0.2,0.1C4.7,0.7,4.8,0.6,4.9,0.7z"/>
	</g>
	<g>
		<path d="M12.3,0.7c0.1,0.1,0.2,0.2,0.2,0.2c0-0.1-0.2-0.2-0.3-0.3c0,0-0.1-0.1-0.1,0C12.2,0.6,12.3,0.6,12.3,0.7z"/>
	</g>
	<g>
		<path d="M10.6,0.5c0,0.1,0.2,0,0.2,0c0,0-0.1-0.2-0.2-0.2C10.7,0.3,10.7,0.4,10.6,0.5C10.7,0.4,10.6,0.5,10.6,0.5
			C10.6,0.4,10.6,0.5,10.6,0.5z"/>
	</g>
	<g>
		<path d="M10,13.9c0,0-0.1,0.1-0.1,0.1c-0.1,0-0.3,0.1-0.4,0.1c0.1,0,0.2,0,0.3-0.1c0.1,0,0.2-0.1,0.3-0.1
			C10.1,13.9,10,13.9,10,13.9z"/>
	</g>
	<g>
		<path d="M13.7,3.2c0,0.1,0.1,0.1,0.1,0.1c0-0.1,0-0.2-0.1-0.2C13.7,3.2,13.7,3.2,13.7,3.2z"/>
	</g>
	<g>
		<path d="M15.2,8.5c0,0.1,0,0.2,0,0.2c0.1-0.2,0.1-0.3,0.1-0.5C15.2,8.4,15.2,8.5,15.2,8.5z"/>
	</g>
	<g>
		<path d="M0.1,5.8c0-0.1,0-0.2,0-0.2c0,0.2-0.1,0.3-0.1,0.5C0.1,6,0.1,5.9,0.1,5.8z"/>
	</g>
	<g>
		<path d="M1.1,9.7C1.1,9.8,1.2,9.9,1.2,10C1.2,9.9,1.2,9.8,1.1,9.7z"/>
	</g>
	<g>
		<path d="M4,1C4,1,4.1,1,4,1c0,0-0.1,0.1-0.2,0c0,0-0.1,0.1-0.1,0.1C3.8,1.1,3.9,1.1,4,1z"/>
	</g>
	<g>
		<path d="M1.4,10.4C1.4,10.4,1.4,10.4,1.4,10.4c0-0.1,0-0.2-0.1-0.2C1.2,10.3,1.4,10.3,1.4,10.4z"/>
	</g>
	<g>
		<path d="M3.1,12.6c0,0-0.1-0.1-0.1,0C3,12.6,3.1,12.7,3.1,12.6C3.1,12.7,3.3,12.7,3.1,12.6z"/>
	</g>
	<g>
		<path d="M0.5,5.4C0.5,5.5,0.5,5.5,0.5,5.4C0.6,5.5,0.5,5.4,0.5,5.4C0.5,5.4,0.5,5.4,0.5,5.4z"/>
	</g>
	<g>
		<path d="M5.8,14.1c-0.1,0-0.2,0-0.2-0.1C5.6,14.1,5.7,14.1,5.8,14.1C5.8,14.1,5.8,14.1,5.8,14.1z"/>
	</g>
	<g>
		<path d="M0.7,4.7c0,0.1,0,0.1-0.1,0.2C0.7,4.8,0.7,4.8,0.7,4.7C0.7,4.7,0.7,4.7,0.7,4.7z"/>
	</g>
	<g>
		<path d="M10.2,14C10.2,14,10.2,14,10.2,14C10.2,14,10.3,14,10.2,14C10.3,14,10.3,14,10.2,14z"/>
	</g>
	<g>
		<path d="M11.1,0.6C11.1,0.6,11,0.5,11.1,0.6C11.1,0.6,11.1,0.6,11.1,0.6z"/>
	</g>
	<g>
		<path d="M14.5,3.9c0-0.1-0.1-0.2-0.1-0.3C14.4,3.7,14.5,3.8,14.5,3.9z"/>
	</g>
	<g>
		<path d="M4.6,0.8C4.6,0.8,4.7,0.8,4.6,0.8c0,0-0.1,0-0.1,0C4.6,0.9,4.6,0.9,4.6,0.8z"/>
	</g>
	<g>
		<path d="M3.3,1.4c-0.1,0-0.1,0-0.1,0C3.2,1.5,3.2,1.5,3.3,1.4z"/>
	</g>
	<g>
		<path d="M0.1,9C0.1,9,0.1,9,0.1,9c0.1,0,0.1,0,0-0.1C0.1,8.9,0.1,9,0.1,9z"/>
	</g>
	<g>
		<path d="M1.6,10.7C1.5,10.7,1.5,10.7,1.6,10.7C1.5,10.7,1.5,10.8,1.6,10.7C1.6,10.8,1.6,10.7,1.6,10.7z"/>
	</g>
	<g>
		<path d="M2.8,12.4C2.8,12.4,2.8,12.4,2.8,12.4C2.9,12.4,2.8,12.4,2.8,12.4z"/>
	</g>
	<g>
		<path d="M2.8,2.2c0.1,0,0.1-0.1,0.1-0.1C2.8,2.2,2.8,2.2,2.8,2.2z"/>
	</g>
	<g>
		<path d="M9.6,14.2C9.5,14.2,9.5,14.2,9.6,14.2C9.6,14.3,9.6,14.3,9.6,14.2C9.6,14.3,9.6,14.2,9.6,14.2z"/>
	</g>
	<g>
		<path d="M3.5,1.3C3.4,1.3,3.4,1.3,3.5,1.3C3.4,1.3,3.5,1.3,3.5,1.3z"/>
	</g>
	<g>
		<path d="M1.3,4.7C1.3,4.7,1.3,4.7,1.3,4.7C1.3,4.7,1.3,4.7,1.3,4.7z"/>
	</g>
	<g>
		<path d="M15.1,9.1C15.1,9.1,15.1,9.1,15.1,9.1C15.1,9.1,15.1,9,15.1,9.1C15.1,9,15.1,9,15.1,9.1z"/>
	</g>
	<g>
		<path d="M5.2,0.7C5.2,0.6,5.2,0.6,5.2,0.7C5.2,0.6,5.2,0.6,5.2,0.7C5.1,0.7,5.2,0.7,5.2,0.7z"/>
	</g>
	<g>
		<path d="M11.6,1.1C11.5,1.1,11.5,1.1,11.6,1.1C11.5,1.2,11.5,1.2,11.6,1.1C11.6,1.2,11.6,1.2,11.6,1.1z"/>
	</g>
	<g>
		<path d="M8,14.3C8,14.3,8,14.3,8,14.3C8,14.3,8,14.3,8,14.3z"/>
	</g>
	<g>
		<path d="M0.4,5.7C0.4,5.7,0.4,5.7,0.4,5.7C0.4,5.7,0.4,5.7,0.4,5.7C0.4,5.7,0.4,5.7,0.4,5.7z"/>
	</g>
	<g>
		<path d="M9.6,0.5C9.7,0.5,9.7,0.5,9.6,0.5C9.7,0.4,9.7,0.4,9.6,0.5C9.6,0.5,9.6,0.5,9.6,0.5z"/>
	</g>
	<g>
		<path d="M0,8.2C0,8.3,0,8.3,0,8.2C0,8.2,0,8.2,0,8.2C0,8.2,0,8.2,0,8.2z"/>
	</g>
	<g>
		<path d="M14.9,9.3C14.9,9.3,14.9,9.3,14.9,9.3C14.9,9.3,14.9,9.3,14.9,9.3z"/>
	</g>
	<g>
		<path d="M1.2,10C1.2,10,1.2,10,1.2,10C1.2,10,1.2,10,1.2,10z"/>
	</g>
	<g>
		<path d="M1.3,10.2c0,0-0.1-0.1-0.1-0.1C1.2,10.1,1.3,10.2,1.3,10.2z"/>
	</g>
	<g>
		<path d="M14.4,3.6c0,0,0-0.1,0-0.1C14.3,3.5,14.4,3.6,14.4,3.6z"/>
	</g>
	<g>
		<path d="M14.4,3.6C14.4,3.6,14.4,3.6,14.4,3.6C14.4,3.6,14.4,3.6,14.4,3.6z"/>
	</g>
	<g>
		<path d="M3.1,1.9C3.1,1.9,3.1,1.9,3.1,1.9C3.1,1.9,3.1,1.9,3.1,1.9z"/>
	</g>
	<g>
		<path d="M11,0.8C11,0.8,11,0.8,11,0.8C11,0.8,11,0.8,11,0.8z"/>
	</g>
	<g>
		<path d="M11.7,13.5C11.7,13.5,11.7,13.5,11.7,13.5C11.7,13.4,11.7,13.4,11.7,13.5z"/>
	</g>
	<g>
		<path d="M9.6,14C9.6,14,9.6,14,9.6,14C9.6,14,9.6,14,9.6,14z"/>
	</g>
	<g>
		<path d="M14.7,10.2C14.7,10.2,14.7,10.2,14.7,10.2C14.7,10.2,14.7,10.2,14.7,10.2z"/>
	</g>
	<g>
		<path d="M3,1.6C3,1.6,2.9,1.7,3,1.6C3,1.7,3,1.7,3,1.6z"/>
	</g>
	<g>
		<path d="M8.3,14.3C8.3,14.3,8.3,14.3,8.3,14.3C8.3,14.3,8.3,14.3,8.3,14.3z"/>
	</g>
	<g>
		<path d="M0.1,8.7C0.1,8.7,0.1,8.7,0.1,8.7C0.1,8.7,0.1,8.7,0.1,8.7C0.1,8.7,0.1,8.7,0.1,8.7z"/>
	</g>
	<g>
		<path d="M0.6,4.4C0.6,4.4,0.6,4.4,0.6,4.4C0.6,4.4,0.6,4.4,0.6,4.4z"/>
	</g>
	<g>
		<path d="M13.7,2.2C13.7,2.2,13.7,2.2,13.7,2.2C13.7,2.2,13.7,2.2,13.7,2.2z"/>
	</g>
	<g>
		<path d="M14.8,10.1C14.8,10,14.8,10,14.8,10.1C14.8,10,14.8,10,14.8,10.1C14.8,10,14.8,10,14.8,10.1z"/>
	</g>
	<g>
		<path d="M12.1,1C12.1,1,12.1,1,12.1,1C12.1,1,12.1,1,12.1,1C12.1,1,12.1,1,12.1,1z"/>
	</g>
	<g>
		<path d="M5.2,0.5C5.1,0.5,5.1,0.5,5.2,0.5C5.2,0.5,5.1,0.5,5.2,0.5z"/>
	</g>
	<g>
		<path d="M0.9,5.7C1,5.7,1,5.7,0.9,5.7C0.9,5.6,0.9,5.7,0.9,5.7z"/>
	</g>
	<g>
		<path d="M9.3,14.1C9.3,14.1,9.3,14.1,9.3,14.1C9.3,14.1,9.3,14.1,9.3,14.1z"/>
	</g>
	<g>
		<path d="M4,1.2C3.9,1.2,3.9,1.2,4,1.2C4,1.2,3.9,1.2,4,1.2z"/>
	</g>
	<g>
		<path d="M12,13.2C12,13.3,12,13.3,12,13.2C12.1,13.2,12,13.2,12,13.2z"/>
	</g>
	<g>
		<path d="M11.8,13.4C11.8,13.4,11.8,13.4,11.8,13.4C11.8,13.4,11.8,13.4,11.8,13.4z"/>
	</g>
	<g>
		<path d="M0.4,5.9C0.4,6,0.4,6,0.4,5.9C0.4,6,0.4,6,0.4,5.9C0.5,6,0.5,5.9,0.4,5.9z"/>
	</g>
	<g>
		<path d="M12.6,1.6C12.7,1.6,12.7,1.6,12.6,1.6C12.7,1.6,12.6,1.5,12.6,1.6z"/>
	</g>
	<g>
		<path d="M5.4,0.5C5.4,0.5,5.4,0.5,5.4,0.5C5.4,0.6,5.4,0.6,5.4,0.5z"/>
	</g>
	<g>
		<path d="M14.7,6.8C14.7,6.8,14.7,6.8,14.7,6.8C14.7,6.8,14.7,6.8,14.7,6.8C14.7,6.8,14.7,6.8,14.7,6.8z"/>
	</g>
	<g>
		<path d="M14.7,4.8C14.7,4.8,14.7,4.8,14.7,4.8C14.7,4.8,14.7,4.8,14.7,4.8z"/>
	</g>
	<g>
		<path d="M4.9,13.8C4.8,13.8,4.9,13.8,4.9,13.8C4.8,13.7,4.8,13.8,4.9,13.8z"/>
	</g>
	<g>
		<path d="M13.9,2.6C13.9,2.6,13.9,2.6,13.9,2.6C13.9,2.6,13.9,2.6,13.9,2.6z"/>
	</g>
	<g>
		<path d="M13.9,2.6C13.9,2.6,13.9,2.6,13.9,2.6C13.9,2.6,13.9,2.6,13.9,2.6z"/>
	</g>
	<g>
		<path d="M12.7,1.3C12.7,1.3,12.7,1.3,12.7,1.3C12.7,1.3,12.7,1.3,12.7,1.3z"/>
	</g>
	<g>
		<path d="M15,9.2C15,9.2,15,9.2,15,9.2C15,9.2,15,9.2,15,9.2C15,9.2,15,9.2,15,9.2z"/>
	</g>
	<g>
		<path d="M0.3,6.6C0.3,6.6,0.3,6.6,0.3,6.6C0.3,6.6,0.3,6.6,0.3,6.6C0.3,6.6,0.3,6.6,0.3,6.6z"/>
	</g>
	<g>
		<path d="M14.6,4C14.6,4,14.6,4,14.6,4C14.6,4,14.6,4,14.6,4z"/>
	</g>
	<g>
		<path d="M15.2,7.6C15.2,7.5,15.2,7.5,15.2,7.6C15.2,7.5,15.2,7.5,15.2,7.6z"/>
	</g>
	<g>
		<path d="M12.6,12.7C12.6,12.7,12.6,12.7,12.6,12.7C12.6,12.7,12.6,12.7,12.6,12.7C12.7,12.7,12.6,12.7,12.6,12.7z"/>
	</g>
	<g>
		<path d="M9.7,14.2C9.7,14.2,9.7,14.2,9.7,14.2C9.7,14.2,9.7,14.2,9.7,14.2z"/>
	</g>
	<g>
		<path d="M6.2,14.3C6.2,14.3,6.2,14.3,6.2,14.3C6.2,14.3,6.2,14.3,6.2,14.3z"/>
	</g>
	<g>
		<path d="M13.6,2.8C13.6,2.8,13.6,2.8,13.6,2.8C13.6,2.8,13.6,2.8,13.6,2.8z"/>
	</g>
	<g>
		<path d="M5.3,14C5.3,13.9,5.3,14,5.3,14C5.3,13.9,5.3,13.9,5.3,14z"/>
	</g>
	<g>
		<path d="M2.9,12.5C2.9,12.5,2.9,12.5,2.9,12.5C2.9,12.5,2.9,12.5,2.9,12.5z"/>
	</g>
	<g>
		<path d="M8.6,14.2C8.6,14.2,8.6,14.2,8.6,14.2C8.6,14.2,8.6,14.2,8.6,14.2z"/>
	</g>
	<g>
		<path d="M3.4,1.8C3.4,1.8,3.4,1.8,3.4,1.8C3.4,1.8,3.4,1.8,3.4,1.8z"/>
	</g>
	<g>
		<path d="M14.8,7C14.8,7,14.8,7,14.8,7C14.8,7,14.8,7,14.8,7z"/>
	</g>
	<g>
		<path d="M9.9,0.5C9.8,0.5,9.9,0.5,9.9,0.5C9.8,0.5,9.8,0.5,9.9,0.5z"/>
	</g>
	<g>
		<path d="M3,2.1C3,2.1,3,2.1,3,2.1C3,2.1,3,2.1,3,2.1C3,2.1,3,2.1,3,2.1z"/>
	</g>
	<g>
		<path d="M9.6,13.9C9.6,14,9.6,13.9,9.6,13.9C9.6,13.9,9.6,14,9.6,13.9z"/>
	</g>
	<g>
		<path d="M3.4,1.8C3.4,1.8,3.4,1.8,3.4,1.8C3.4,1.8,3.4,1.8,3.4,1.8z"/>
	</g>
	<g>
		<path d="M3.3,1.8C3.3,1.8,3.4,1.8,3.3,1.8C3.3,1.8,3.3,1.8,3.3,1.8z"/>
	</g>
	<g>
		<path d="M14,3.9C14,3.8,14,3.8,14,3.9C14,3.8,14,3.8,14,3.9C14,3.9,14,3.9,14,3.9z"/>
	</g>
</g>
</svg>
