<?xml version="1.0" encoding="UTF-8"?>
<svg id="Layer_1" data-name="Layer 1" xmlns="http://www.w3.org/2000/svg" viewBox="0 0 491.58 498.72">
  <path d="m127.28,283.76l180.46-124.17c17.97-12.36,22.51-36.95,10.15-54.91h0c-.07-.1-.14-.19-.21-.29l47.06-32.38c17.97-12.36,22.51-36.95,10.15-54.91h0c-12.36-17.97-36.95-22.51-54.91-10.15l-65.67,45.19c-.56-.99-1.17-1.98-1.83-2.93h0c-12.36-17.97-36.95-22.51-54.91-10.15L17.11,163.23c-17.97,12.36-22.51,36.95-10.15,54.91h0c12.36,17.97,36.95,22.51,54.91,10.15l65.67-45.19c.56.99,1.17,1.98,1.83,2.93h0c.07.1.14.19.21.29l-47.06,32.38c-17.97,12.36-22.51,36.95-10.15,54.91h0c12.36,17.97,36.95,22.51,54.91,10.15Zm357.34,19.11h0c-12.36-17.97-36.95-22.51-54.91-10.15l-35.36,24.33c-.77-1.49-1.62-2.95-2.6-4.37h0c-12.36-17.97-36.95-22.51-54.91-10.15l-180.46,124.17c-17.97,12.36-22.51,36.95-10.15,54.91h0c12.36,17.97,36.95,22.51,54.91,10.15l35.36-24.33c.77,1.49,1.62,2.95,2.6,4.37h0c12.36,17.97,36.95,22.51,54.91,10.15l180.46-124.17c17.97-12.36,22.51-36.95,10.15-54.91Zm-307.14,46.24c1.1,2.87,2.54,5.66,4.36,8.31h0c12.36,17.97,36.95,22.51,54.91,10.15l180.46-124.17c17.97-12.36,22.51-36.95,10.15-54.91h0c-12.36-17.97-36.95-22.51-54.91-10.15l-21.89,15.06c-1.1-2.87-2.54-5.66-4.36-8.31h0c-12.36-17.97-36.95-22.51-54.91-10.15l-180.46,124.17c-17.97,12.36-22.51,36.95-10.15,54.91h0c12.36,17.97,36.95,22.51,54.91,10.15l21.89-15.06Z"/>
</svg>