<svg version="1.1" xmlns="http://www.w3.org/2000/svg" x="0px" y="0px"
	 viewBox="0 0 232 196.1" enable-background="new 0 0 232 196.1" xml:space="preserve">
<g>
	<g>
		
			<ellipse transform="matrix(0.9462 -0.3236 0.3236 0.9462 -28.7957 43.3688)" opacity="0.16" cx="116" cy="108.3" rx="119.5" ry="80"/>
		<path d="M116.3,23.3c-11.8,0-23,2.4-33.3,6.7c-5.6-2.3-11.7-3.5-18.1-3.5c-26.6,0-48.2,21.6-48.2,48.2c0,12.9,5.1,24.5,13.3,33.2
			c0,0.6,0,1.2,0,1.8c0,47.7,38.7,86.4,86.4,86.4c47.7,0,86.4-38.7,86.4-86.4C202.7,62,164,23.3,116.3,23.3z"/>
		<circle cx="195.9" cy="178.2" r="14.6"/>
		<path d="M40,8c0,4.4-3.6,8-8,8c-4.4,0-8-3.6-8-8c0-4.4,3.6-8,8-8C36.4,0,40,3.6,40,8z"/>
	</g>
</g>
</svg>
