<svg version="1.1" xmlns="http://www.w3.org/2000/svg" x="0px" y="0px"
	 viewBox="0 0 293.1 352.3" style="enable-background:new 0 0 293.1 352.3;" xml:space="preserve">
<g>
	<path d="M64.2,55.8c-0.4,0.3-0.7,0.7-0.9,1.2c-1.5,3.4,1.7,6.6,0.9,10c-0.2,0.7-0.2,1.5,0,2.2c0.6,1.7,1.8,2.8,3.6,3.5
		c0.2,0.1,0.5,0.1,0.7,0.2c0.8,0.1,1.5,0.1,2.2-0.2c0.6-0.2,1-0.5,1.4-1c0.7-0.8,1.1-1.9,1.4-3c0.4-1.9-0.3-3.6-0.9-5.4
		c-0.5-1.6-0.3-3,1.2-3.8c2.2-1.2,3-3.7,5-5c0.4-0.2,0.8-0.4,1.2-0.7c0.1-0.1,0.2-0.1,0.3-0.2c2-1.5,4-3,2.1-6
		c-0.3-0.6-0.5-1.3-0.9-1.9c-1.3-1.6-2-4.4-4.5-4.1c-3,0.4-3.8,2.9-3.5,5.8c0.1,1.2,0.4,3.1-1.4,2.9c-4-0.5-5.2,2.6-7.3,4.8
		C64.7,55.4,64.4,55.6,64.2,55.8z M65.7,76.2c-2.9-2.2-0.5-7-4.3-8.9c-2.4,0.1-4.1,0.8-2.8,3.7c0.7,1.5,1.8,3.3-0.5,4.2
		c-2.8,1.1-2.3,3.3-2.5,5.4c-0.2,2.5,0.4,5.1-0.7,7.6c-0.9,4.9,3.1,3.7,5.6,4.4c1.9-0.5,4.8,1.3,5.5-2.2c-1-4-8.6-8-0.1-12.1
		C66.4,77.6,66.1,76.9,65.7,76.2z M100.2,56.3c2.3-3.9-1.5-4.7-3.3-6.5c-1.2,0-2.5-0.8-3.4,0.7c-2,1.6-4.3,0.3-6.4,0.9
		c-2.1,0.9-3.3,2.5-3.3,4.8c0.3,1.5,0.7,3.1,2.9,2.3c2.9,1,4.8,3.5,7.1,5.4C98,63.3,99,59.8,100.2,56.3z M42.9,107.1
		c1.4,0.6,2-1.1,3.2-1.1c0.7-1.2,0.6-2.9,1.7-3.9c0.6-1.6,2-2.6,3-3.9c0.4-2.1-1.2-3.9-1.1-6c-0.2-1.3,1.2-2.3,0.7-3.7
		c-2.1,0.8-4.4-3.2-6-0.2c-1.1,2-2.9,4.5,0,7.2c1.8,1.7-0.4,3-2,3.9c-2.4,1.4-5.3,2.2-6.3,5.4C37.8,107.7,40.3,107.4,42.9,107.1z
		 M32.8,92.9C29.9,92,28,94.1,26,95.5c-1.9,1.3-3.5,3.8-2.3,5.4c2.7,3.6,0.6,5.1-1.8,7.1c-0.7,0.6-2.8,1.2-1.2,2.8
		c1.3,1.3,2.7,1.9,3.9-0.3c1.2-2,3.4-2.6,5.4-3.6c1.2-0.5,3.1-0.3,3.1-2.3c0-1.6-1.6-1.6-2.7-2.3c-1-0.6-2.8-0.2-3-1.9
		c-0.2-1.9,1.5-2.3,2.7-3.1c1.5-1,3.2-1.7,4-3.6C33.6,93.5,33.3,93,32.8,92.9z M32,29.7c-1.2-0.4-2,0.5-2.9,1.1
		c-0.8,0.6-1.5,1.6-1,2.3c1.2,1.5,0.3,2.2-0.7,3c-0.3,0.3-1.2,0.5-0.5,1.2c0.5,0.5,1.1,0.8,1.7-0.1c0.5-0.9,1.4-1.1,2.3-1.5
		c0.5-0.2,1.3-0.1,1.3-1c0-0.7-0.7-0.7-1.2-1c-0.4-0.2-1.2-0.1-1.3-0.8c-0.1-0.8,0.6-1,1.1-1.3c0.6-0.4,1.4-0.7,1.7-1.6
		C32.3,30,32.1,29.8,32,29.7z M29.5,81.9c-0.9-1.8-1.7-3.5-2.7-5.4c-6.7,10.8-6.7,10.8-4.4,19.9c2-4.9,7.8-6.1,8.3-11.5
		C29.9,84.1,30.9,82.5,29.5,81.9z M47.2,101.6c-1.6,1.2-0.6,3-1.1,4.4c2,0.7,0.8-2.2,2.3-2.1c6.8,0.8,6.6-5.1,8.6-8.9
		c0.1-2.1,3.4-1,3.3-3.3c-2.1-0.7-4.7-0.6-5.4-3.5c-0.9,0.4-1.7,0.8-2.6,1.3c-1.3,0.8-3.2,0.7-3.9,2.4c-0.4,2.4,1.5,4.1,2,6.3
		C50.8,100.7,47.7,99.8,47.2,101.6z M36,84.2c4.2,1,4.4-2.3,5.2-4.6c1.1-3.2-2-2.8-3.5-3.5c-1.9-0.9-3.9-1.4-5.7-2
		c-2,2.5,2.2,6.4-2.5,7.8c0.1,1.1-0.1,2.4,1.2,3C32.2,82.7,34.5,83.8,36,84.2z M43.3,32.8c-2,0.7-5.2,1.1-5.2,4
		c0,2.1,2.6,1.9,4.3,1.9c1.7-0.1,2.5,0.4,2.8,2.3c0.2,1.8,2.3,2,3.7,2.8c0.6-1.5,1.3-3,1.7-4C50.6,36.6,45.7,31.9,43.3,32.8z
		 M91,74.8c2.3,0.4,4.6,0.8,6.8,1.3c3.5-5.1-3.4-0.6-2.6-3.8c4.5-2.7-0.6-4-1.8-6.1c-1.2-0.3-2.5-1-3.6-0.9c-1.5,0.1-4-2.1-4.3,0.8
		c-0.1,0.8-0.1,5.5,3.9,4.8C90.2,72,90.2,73.6,91,74.8z M11.6,84.8c2.4-3.7,0.9-5.9-2.7-7.6c-4.4-2.2-4.7,2.3-6.4,4
		c-2.9,2.9,0,4.6,2.1,6.6C5.5,82.3,5.5,82.3,11.6,84.8z M57.6,113.4c1.5-2.2,0.5-3.5-1.6-4.6c-2.7-1.3-2.8,1.4-3.8,2.4
		c-1.7,1.7,0,2.8,1.3,4C54,111.9,54,111.9,57.6,113.4z M110.1,39.2c0.3,1.9,1.5,5.4,2.4,4.6c2.8-2.5,4.9-6,6.8-9.4
		c0.4-0.7-1.9-1.8-3.3-2.1C113.5,32.5,109.7,36.9,110.1,39.2z M132.4,34.9c0.1-0.3,0-0.6-0.3-0.8c-1.2,1.4-2.5,1.9-4.2,0.6
		c-1.2-0.9-2.8-0.4-3.3,0.7c-0.7,1.5-1.3,3.3-1,4.9c0.2,1.7,2.1,0.6,3.2,0.9c5.6,1.6,3.7-3.8,5.4-5.8
		C132.3,35.3,132.3,35.2,132.4,34.9z M121.8,22.8c0.1-0.3,0-0.6-0.3-0.8c-1.2,1.4-2.5,1.9-4.2,0.6c-1.2-0.9-2.8-0.4-3.3,0.7
		c-0.7,1.5-1.3,3.3-1,4.9c0.2,1.7,2.1,0.6,3.2,0.9c5.6,1.6,3.7-3.8,5.4-5.8C121.7,23.2,121.8,23.1,121.8,22.8z M60.2,57
		c-0.9,0.7-1.6,1.5-1,2.8c1.2,2.1,2.3,4.2,3.5,6.4c0.4,0.9,0.9,1.7,2,1.4c1.1-2.2,1.9-4.3,0-6.5c-1.6-1.7-0.5-3.4,0-5
		C63,55.1,61.6,56.1,60.2,57z M101.1,13.6c-0.2-2.6-4.1-3.3-6.5-3.8c-2-0.4-1.9,2.4-2.1,4c-0.3,3.1,2.1,1.5,3.5,1.8
		C97.7,14.9,101.3,16.5,101.1,13.6z M91.6,34.3c0,3.7,0,7.4,0,11.5C97.8,37.9,97.7,36.8,91.6,34.3z M135.3,44.2
		c-5.5,1.8-9.7,4.7-14.6,5.1c0,0.4,0,0.8,0.1,1.3C126.1,51.9,131.1,50,135.3,44.2z M109.5,26.6c-5.5,1.8-9.7,4.7-14.6,5.1
		c0,0.4,0,0.8,0.1,1.3C100.4,34.3,105.3,32.4,109.5,26.6z M61.5,67.4c2.2,2.9,0.3,7,3,9.7c1.6-1.5,6.6-0.7,3.6-5.3
		c-1.7-0.9-3.2-2-3.3-4.2c-0.7-0.5-1.4-1-2-1.4C62.3,66.5,61.9,67,61.5,67.4z M81.5,126.9c1.8-1,2.8-2.4,1.4-4.3
		c-1.4-1.9-3.2-0.9-4.8-0.1c-1.2,1.2-3.6,1.8-2.2,4.3c0.4,0.4,0.8,0.8,1.2,1.2C79,129.4,80.1,127.5,81.5,126.9z M85.8,50.7
		c-0.9-1.2-1.7-2.7-3.3-3.1c0.3,2.8-1.3,4.4-3.7,5.6c0.8,3.1,2.7,4.3,5.9,3.2c-0.1-1.9,1.5-3,2.3-4.4C86.9,51.3,86.2,51.1,85.8,50.7
		z M51.3,82.8c1.8-5.7-0.9-8.9-7.5-8.8C46.4,77.1,48.8,79.9,51.3,82.8z M40.6,125.9c1.7,0.5,3.4,1,5.2,1.5c0.6-3.2-0.2-5.2-3.6-5.4
		c-2.5-0.1-3.2,1.2-2.5,3.5C39.8,126.2,40.1,126.3,40.6,125.9z M14.5,59c1.6,2.2,3.3,4.2,5.7,5.7C21.8,57.8,21.6,57.7,14.5,59z
		 M27.3,47.2c1.6,2.2,3.3,4.2,5.7,5.7C34.6,46.1,34.5,45.9,27.3,47.2z M67.3,94.8c0.5-0.7,0.4-1.3-0.2-1.9c-0.1-0.9-0.1-1.8-1-2.4
		c-1.5,2.2-3.8,0.9-5.7,1.3c-0.8,1.3-3.6,0.8-3.3,3.3C60.5,93,63.9,93.7,67.3,94.8z M64.5,28.3c0.5,2.6-0.1,5.1,1.8,8
		C69,29.7,69,29.7,64.5,28.3z M96.9,49.8c0.1,1.2,0,3.3,1,3.2c3.4-0.4,2.1,1.9,2.4,3.3C103.3,49.7,103.3,49.7,96.9,49.8z M34.1,109
		c3.4,0.7,6.1-0.6,8.8-2c-2.2-0.8-4.5-1.5-6.7-2.3C35.5,106.2,34.8,107.6,34.1,109z M16.1,27.8c-0.4,1.5,1.2,2,2.6,2.1
		c3.4,0.2,1.7-2.8,2.6-4.3C19.3,26,16.7,25.5,16.1,27.8z M85.8,88.2c1-1.1,2.1-2.2,3.1-3.4c0.3-0.1,0.5-0.2,0.8-0.4
		c-0.3-0.1-0.5-0.3-0.8-0.4c-1.3-0.7-2.4-2.3-3.9-0.2c-1.1,1.5-2.1,2.8-0.3,4.5C85.1,88.8,85.5,88.7,85.8,88.2z M62,119.9
		c-0.1,0.1,1.4,1.4,2.1,1.3c3.1-0.4,1.6-3.4,3.7-5.4C64.5,116.7,62.9,117.9,62,119.9z M41.5,53.4c-0.1,0.1,1.4,1.4,2.1,1.3
		c3.1-0.4,1.6-3.4,3.7-5.4C44,50.1,42.4,51.3,41.5,53.4z M84.4,32c-1.5-0.1-2.6,0.8-2.9,2c-0.3,1.7,1.3,1.2,2.3,1.3
		c1.3,0.2,2.6,0.2,3-1.5C86.4,32.7,85.7,32.1,84.4,32z M99.7,95.8c1.7-0.7,3.1-1.4,5.5-2.4C102.1,92.6,98.8,89,99.7,95.8z
		 M31.3,135.6c0.5,0.7,1.6-0.2,2.2-0.8c2.2-2.1-0.6-3-1.2-4.8C30.2,132.2,30.3,134,31.3,135.6z M73.7,100c0.2-0.1,0.2-1.2,0-1.4
		c-2.1-1.5-4.4,0.2-6.7,0.1C69.3,98.9,71.3,101,73.7,100z M27.6,1.2c0,0.1,0.2,0.5,0.4,0.5c1.1,0,1.4-1.2,2.2-1.7
		C29.3,0.5,28.1,0.3,27.6,1.2z M56.5,62.7c0.2-0.1,0.2-1.2,0-1.4c-2.1-1.5-4.4,0.2-6.7,0.1C52.1,61.6,54.1,63.7,56.5,62.7z
		 M71.2,95.9c0.5-0.2,1.2-0.2,1.2-1c-0.3-4.6-3.5-1.5-5.3-2c0.1,0.6,0.1,1.3,0.2,1.9C68.6,95.1,69.9,95.5,71.2,95.9z M129.6,94.4
		c0.1,0.2,1.2,0.4,1.4,0.2c1.6-1.6,1.8-3.6,0.8-5.7C131.5,90.9,129,92,129.6,94.4z M129.2,55.3c-1.4,0.2-1.5,1.4-1.4,2.5
		c0.1,1,0.6,1.2,1.5,0.8c1-0.4,2.1-0.7,2.1-2.1C131,55.6,130.2,55.2,129.2,55.3z M94.5,79.4c-0.7,0.1-1.4,0.2-2.1,0.2
		c-0.1,2.3-1.7,3.4-3.5,4.4c-0.1,0.3-0.1,0.5,0,0.8C92.2,84.4,94.1,82.8,94.5,79.4z M64.9,55.2c-0.4-0.4-0.8-0.8-1.2-1.2
		c-0.9-0.7-1.7-0.7-2.5,0c-1,0.4-1.6,1-1.3,2.1c-0.4,0.1-0.8,0.3-0.7,0.5c0.2,0.6,0.7,0.7,1.3,0.6c1.4-0.4,2.9-0.8,4.3-1.3
		C64.9,55.8,64.9,55.5,64.9,55.2z M40.5,114.5c0-0.9-0.9-0.9-1.5-0.9c-1.4,0-2.4,0.6-2.6,2.1c-0.1,0.8,0.2,1.3,1.5,1.2
		C38.5,116.1,40.4,116.3,40.5,114.5z M0.9,32.6c1.3-2.1,1.9-4-0.9-6.2C0.4,28.9,0.7,30.7,0.9,32.6z M78.4,113.1
		c0.3,0.7,0.9,1.3,1.4,2c0.7-0.7,1.8-1.4,2-2.3c0.2-0.7-0.9-1.3-1.9-1.3C78.8,111.6,78,112,78.4,113.1z M4.3,46.5
		c0.4-0.1,0.9-0.9,0.8-1.2c-0.5-1.8-2.2-1.3-4.2-1.7C2,45.4,2.4,47,4.3,46.5z M56.2,59.1c1,0.2,2,0.4,3,0.6c0.4-0.8,0.8-1.6,1.2-2.5
		c-0.2-0.4-0.4-0.7-0.5-1.1C57.7,55.9,57,57.6,56.2,59.1z M50.5,88.5c-0.9,1-2.5,1.7-2,3.5c1.6-0.3,3.7,0.2,3.9-2.4
		C51.7,89.2,51.1,88.8,50.5,88.5z M102.3,83.2c0.6,1.8-1.1,3.2-0.7,5.9C103.2,86.8,104.2,85.2,102.3,83.2z M71.2,134.4
		c-1.4-0.5-2.3,0.1-1.5,1.4c0.9,1.5,2.1,0.2,3.6-0.7C72.2,134.7,71.7,134.6,71.2,134.4z M81.5,126.9c-1.5,0.4-3,0.7-4.4,1.1
		C78.6,130.6,78.6,130.6,81.5,126.9z M63.6,51c-2.3-0.6-2.1,1.6-2.4,3c0.8,0,1.7,0,2.5,0C64.9,52.9,64.8,51.4,63.6,51z M93.5,50.5
		c-2.5,0.1-5.1,0.1-7.6,0.2c0.4,0.4,0.8,0.8,1.2,1.2C89.1,51.4,91.7,53,93.5,50.5z M75.9,126.8c-0.2-1.9,1.7-2.8,2.2-4.3
		C75.6,123,72.5,123.2,75.9,126.8z M11.5,41.5c0.2,0.2,1.2-0.1,1.3-0.4c0.4-1.4-0.4-2.3-1.6-3.4C10.6,39.4,10.5,40.6,11.5,41.5z
		 M17.8,11.9L17.8,11.9L17.8,11.9L17.8,11.9z M35.9,9.7c0.2,0.2,1.2-0.1,1.3-0.4C37.6,8,36.8,7,35.6,5.9C35,7.5,34.9,8.7,35.9,9.7z
		 M78.9,16.9c-2,0.7-5.2,1.1-5.2,4c0,2.1,2.6,1.9,4.3,1.9c1.7-0.1,2.5,0.4,2.8,2.3c0.2,1.8,2.3,2,3.7,2.8c0.6-1.5,1.3-3,1.7-4
		C86.1,20.7,81.2,16.1,78.9,16.9z M51.7,12c-0.4,1.5,1.2,2,2.6,2.1c3.4,0.2,1.7-2.8,2.6-4.3C54.8,10.1,52.2,9.7,51.7,12z M47,25.7
		c0.2,0.2,1.2-0.1,1.3-0.4c0.4-1.4-0.4-2.3-1.6-3.4C46.1,23.5,46,24.7,47,25.7z M30.2,23.8c0.2,0.2,1.2-0.1,1.3-0.4
		C32,22,31.2,21.1,30,20C29.3,21.6,29.3,22.8,30.2,23.8z M95.1,101.4c-0.4,0.7-1,1.5-1.2,2.3c-0.2,0.6,0.5,1.1,1,0.7
		c0.5-0.4,0.7-1.1,1-1.7C95.6,102.1,95.4,101.7,95.1,101.4z M60.5,102.4c1.9,0.1,2.4-0.9,2.3-3.3C61.9,100.5,61.2,101.5,60.5,102.4z
		 M195,58.8c-1.5-0.5-2.9-0.5-5.3,0.4C192.2,59.4,193.7,60.3,195,58.8z M39.1,60.7c-0.7,0.2-1.4,1-1.7,1.7c-0.2,0.5-0.1,1.6,1,1.3
		c0.8-0.2,1.4-0.9,2.9-1.9C40.3,61.3,39.5,60.6,39.1,60.7z M29.3,57.7c-0.7,0.2-1.4,1-1.7,1.7c-0.2,0.5-0.1,1.6,1,1.3
		c0.8-0.2,1.4-0.9,2.9-1.9C30.5,58.3,29.8,57.5,29.3,57.7z M82.5,92.9c1.6-1.2,3.4-2.3,3.3-4.7c-0.3,0.1-0.7,0.2-1,0.1
		C84.1,89.9,82.2,90.8,82.5,92.9z M119.7,84.9c-0.1-0.3-1-0.6-1.1-0.5c-0.5,0.5-0.9,1-1.1,1.7c-0.2,0.6,0.2,0.9,0.9,0.8
		C119.1,86.4,119.9,85.9,119.7,84.9z M188.2,45.1c-1.1-1-2.1-1.2-4.4,0C185.9,44.9,186.7,46.2,188.2,45.1z M106.7,60.9
		c0.9,1.2,2.1,1.1,3.4,0.6c-0.4-0.7-0.8-1.4-1.2-2.1C107.7,59.3,107,59.7,106.7,60.9z M41.4,129.8c-0.3-1.6-0.6-2.8-0.8-3.9
		c-0.2-0.3-0.5-0.5-0.9-0.4C39.4,127,39.2,128.6,41.4,129.8z M112.4,55.1c-0.4-1.1-0.5-2.5-2-2.8c-0.2,0-0.7,0.3-0.8,0.6
		c-0.6,1.5,1.7,1.1,1.6,2.3C111.6,55.5,112,55.5,112.4,55.1z M88.9,126.6c-0.4,0.9-0.3,2.1,0.9,1.7c0.9-0.3,0.7-1.8,0.1-3
		C89.4,125.9,89,126.2,88.9,126.6z M156.9,52.7c-0.6,1.5-0.8,2.6,0,3.8C157.8,55.2,157.7,54.1,156.9,52.7z M106.9,58.2
		c-1.9,0.1-1.9,1.1-1.2,2.5c0.4,0,0.7,0.1,1,0.2c0.7-0.5,1.4-1,2.2-1.5C108.7,58.3,107.7,58.4,106.9,58.2z M104.8,58.3
		c-0.3,0.7-1.3,2.3,0.9,2.4c-0.3-1.2-0.2-2.2,1.2-2.5C106.1,57.6,105.2,57.3,104.8,58.3z M121.9,54.9c-0.4,0.5-1,0.9-1.3,1.5
		c-0.1,0.3,0.2,1.2,0.5,1.3c1.2,0.5,0.9-0.6,1.1-1.3C122.2,56,122,55.5,121.9,54.9z M77,96c-1.2-1.7-3.1-0.9-4.7-1.2
		c-0.4,0.3-0.8,0.7-1.2,1C73.1,95.9,75.1,96,77,96z M111.1,57.3c0.4,0.2,1.1,0.2,1.5-0.1c1.2-0.8,0.2-1.5-0.2-2.1
		c-0.4,0-0.8,0.1-1.2,0.1C111.2,55.9,109.7,56.6,111.1,57.3z M69.5,79.7c0.8,3.5,1.1,7.3,5.8,8.1C79.7,80,79.7,80,77,76.2
		C72.6,73.5,71.4,77.4,69.5,79.7z M66,78.4c0.7-0.1,1.3-0.1,2-0.2c2.5-0.6,5-1.3,6.1-4c-0.5-1.3-1.4-2.1-2.8-2.5
		c-1.1,0-2.1,0-3.2,0.1c0.7,3-2.9,3.2-3.6,5.3C65,77.5,65.5,77.9,66,78.4z M73.3,58.2c-3.4,1-3.2,3.4-1.8,6.1
		c0.6,1.2,0.7,2.8,1.1,4.2c2.8,0.1,1.2-2.5,2.1-3.5c1.3-4,2.5-7.9,3.8-11.9C75.4,53.4,76.2,57.4,73.3,58.2z M91,74.8
		c1-1.9,0.3-3.2-1.5-4.1C89,72.5,88.3,74.3,91,74.8z M47.2,101.6c1.9-0.4,5.1,0.6,3.3-3.4C48.4,98.3,47.3,99.5,47.2,101.6z
		 M116.5,67.5l0.6,6L122,70L116.5,67.5z M57.7,40.7l0.6,6l4.9-3.5L57.7,40.7z M98.2,19.5l0.6,6l4.9-3.5L98.2,19.5z M221.7,286.5
		c0.5-0.1,1-0.2,1.4-0.5c3.1-2,2.2-6.5,4.8-8.8c0.5-0.5,1-1.1,1.2-1.8c0.5-1.7,0-3.4-1.1-4.9c-0.1-0.2-0.3-0.4-0.5-0.5
		c-0.6-0.5-1.2-0.9-2-1.1c-0.6-0.1-1.2-0.1-1.7,0c-1.1,0.3-2,0.9-2.8,1.7c-1.4,1.4-1.7,3.2-2.2,5c-0.4,1.6-1.4,2.7-3.1,2.5
		c-2.5-0.2-4.5,1.4-6.9,1.4c-0.5,0-0.9-0.1-1.4-0.1c-0.1,0-0.3,0-0.4,0c-2.5,0.2-5,0.4-5,3.8c-0.1,0.7-0.3,1.4-0.3,2.1
		c0.2,2.1-0.8,4.8,1.5,5.9c2.8,1.3,4.8-0.4,6.1-3c0.5-1,1.3-2.9,2.8-1.6c3.1,2.6,5.8,0.7,8.7,0C221.1,286.6,221.4,286.6,221.7,286.5
		z M231.6,268.5c1.2,3.5-3.4,6.2-1.3,9.8c2.1,1.2,3.9,1.6,4.4-1.6c0.3-1.6,0.3-3.7,2.7-3.2c3,0.6,3.7-1.5,5.1-3.2
		c1.6-2,2.5-4.5,4.8-5.9c3.4-3.7-0.6-4.8-2.3-6.7c-1.9-0.7-3.3-3.7-5.8-1.2c-1.3,3.9,2.8,11.4-6.6,10.2
		C231.8,267,231.7,267.8,231.6,268.5z M191.9,266.3c-4.1,2-1.3,4.8-0.8,7.3c1,0.6,1.7,2,3.2,1.2c2.5-0.3,3.8,2.1,5.9,2.8
		c2.3,0.4,4.1-0.3,5.4-2.2c0.6-1.5,1.1-2.9-1.1-3.5c-1.9-2.5-2.1-5.5-2.9-8.4C197.6,261.7,194.8,264.1,191.9,266.3z M267.6,255.3
		c-0.8-1.3-2.3-0.2-3.3-0.9c-1.3,0.6-2.1,2.1-3.6,2.3c-1.4,1-3.1,1.1-4.6,1.7c-1.5,1.6-1.1,3.9-2.4,5.6c-0.6,1.2-2.3,1.3-2.7,2.7
		c2.2,0.5,1.9,5.1,4.9,3.4c2-1.1,4.9-2.2,3.9-6c-0.6-2.4,2-2.3,3.9-2.2c2.8,0.1,5.7,1.1,8.2-1.1C272.3,257.6,270,256.4,267.6,255.3z
		 M268.3,272.7c1.9,2.3,4.6,1.6,7.1,1.6c2.3-0.1,5-1.3,4.9-3.2c-0.3-4.5,2.3-4.6,5.3-5c0.9-0.1,3,0.5,2.5-1.7
		c-0.4-1.8-1.2-3-3.4-1.9c-2.1,1-4.3,0.3-6.4,0c-1.3-0.2-2.8-1.5-3.8,0.2c-0.9,1.3,0.4,2.3,1,3.4c0.5,1,2.2,1.7,1.5,3.2
		c-0.8,1.7-2.5,1.1-3.9,1.1c-1.8,0-3.6-0.3-5.3,0.9C267.9,271.8,268,272.4,268.3,272.7z M234.3,326c0.8,1,2,0.7,3,0.7
		c1,0,2.1-0.5,2.1-1.4c-0.1-1.9,1-2,2.3-2.1c0.4,0,1.3,0.2,1.1-0.7c-0.2-0.7-0.5-1.3-1.5-0.8c-0.9,0.4-1.8,0.1-2.8,0
		c-0.5-0.1-1.2-0.6-1.6,0.1c-0.4,0.6,0.2,1,0.4,1.4c0.2,0.4,1,0.7,0.6,1.4c-0.4,0.7-1.1,0.5-1.7,0.5c-0.8,0-1.5-0.1-2.3,0.4
		C234.2,325.6,234.2,325.8,234.3,326z M265,283.7c-0.2,1.9-0.5,3.9-0.7,6c11.5-5.3,11.5-5.3,14.6-14.3c-4.3,3-9.9,0.8-13.2,5.1
		C265.9,281.6,264.2,282.4,265,283.7z M261,257.5c2-0.1,2.1-2.2,3.3-3.1c-1.3-1.6-1.9,1.4-3.1,0.4c-5.2-4.4-8.3,0.6-12.1,2.7
		c-1.2,1.7-3.4-1-4.6,1c1.4,1.7,3.5,3.1,2.6,5.9c1,0.1,1.9,0.3,2.9,0.4c1.5,0.1,3,1.1,4.6,0.1c1.7-1.8,1-4.3,1.7-6.4
		C257.5,256.3,259.7,258.7,261,257.5z M260.8,278.2c-3-3.1-4.9-0.5-6.9,1c-2.7,2,0.1,3.4,1,4.8c1.1,1.7,2.5,3.3,3.7,4.8
		c3-1,1.7-6.6,6.3-5.1c0.5-1,1.4-2,0.6-3.2C263.2,281.6,261.9,279.4,260.8,278.2z M226.5,317.2c2,0.5,5,1.9,6.5-0.5
		c1.1-1.8-1.1-3-2.6-3.9c-1.5-0.9-1.9-1.7-1.1-3.4c0.8-1.7-0.8-3-1.6-4.3c-1.3,0.9-2.7,1.8-3.6,2.4
		C222.6,310,224.1,316.6,226.5,317.2z M209.8,255.9c-1.7-1.6-3.3-3.2-5-4.8c-5.7,2.3,2.5,2.4,0.1,4.6c-5.2-0.2-1.7,3.7-1.9,6.1
		c0.8,1,1.5,2.2,2.5,2.8c1.4,0.8,2.2,4,4,1.8c0.5-0.6,3.1-4.5-0.7-6.1C208.9,258.7,209.8,257.4,209.8,255.9z M281.6,291.1
		c-4.1,1.8-3.9,4.4-1.9,7.8c2.5,4.3,5.2,0.6,7.5,0.1c4-0.8,2.5-3.8,1.9-6.7C285.3,296.6,285.3,296.6,281.6,291.1z M258.8,241.9
		c-2.5,1.1-2.4,2.7-1.2,4.7c1.5,2.6,3.1,0.4,4.6,0.1c2.4-0.5,1.5-2.3,1.1-4C261,245.2,261,245.2,258.8,241.9z M174.2,275.2
		c0.8-1.7,1.7-5.4,0.6-5.2c-3.7,0.5-7.4,2.3-10.8,4.1c-0.7,0.4,0.6,2.6,1.6,3.6C167.7,278.8,173.3,277.3,174.2,275.2z M153.2,266.5
		c-0.2,0.2-0.3,0.5-0.2,0.9c1.8-0.5,3.1-0.2,3.8,1.8c0.5,1.4,2.1,1.9,3.1,1.3c1.4-0.8,2.9-2.1,3.6-3.5c0.7-1.5-1.4-1.7-2.2-2.5
		c-3.8-4.4-5.1,1.1-7.7,1.9C153.6,266.3,153.4,266.3,153.2,266.5z M155.4,282.5c-0.2,0.2-0.3,0.5-0.2,0.9c1.8-0.5,3.1-0.2,3.8,1.8
		c0.5,1.4,2.1,1.9,3.1,1.3c1.4-0.8,2.9-2.1,3.6-3.5c0.7-1.5-1.4-1.7-2.2-2.5c-3.8-4.4-5.1,1.1-7.7,1.9
		C155.8,282.2,155.6,282.3,155.4,282.5z M225.7,287.7c1.1-0.1,2.2-0.4,2.4-1.8c0.2-2.4,0.4-4.8,0.6-7.2c0.1-0.9,0.2-1.9-0.9-2.3
		c-2.1,1.2-4,2.6-3.5,5.4c0.4,2.3-1.5,3.1-2.8,4.2C222.3,287.7,224,287.7,225.7,287.7z M167.7,301.5c-1.3,2.3,1.6,5,3.4,6.7
		c1.5,1.4,3-1,4-2.2c2-2.4-0.9-2.4-1.9-3.4C171.3,302.3,169.1,299,167.7,301.5z M187,289.4c2-3.1,4.1-6.2,6.3-9.6
		C183.8,283,183.3,283.9,187,289.4z M155.9,257.2c5.6,1.5,10.7,1.4,15,3.8c0.2-0.4,0.4-0.7,0.6-1.1
		C167.8,255.7,162.6,254.6,155.9,257.2z M167.8,286.1c5.6,1.5,10.7,1.4,15,3.8c0.2-0.4,0.4-0.7,0.6-1.1
		C179.7,284.6,174.5,283.5,167.8,286.1z M230.3,278.3c-0.3-3.6,3.6-6,2.8-9.8c-2.2,0.3-5.9-3-5.9,2.5c1,1.7,1.6,3.5,0.4,5.3
		c0.3,0.8,0.6,1.5,0.9,2.3C229.2,278.5,229.8,278.4,230.3,278.3z M246.3,217.6c-2.1-0.2-3.7,0.5-3.6,2.8c0.1,2.4,2.2,2.5,4,2.7
		c1.7-0.3,4,0.5,4.2-2.4c-0.1-0.5-0.2-1.1-0.3-1.6C249.8,216.8,247.8,217.9,246.3,217.6z M200.8,278.8c0.1,1.5-0.1,3.2,1.1,4.5
		c1.3-2.5,3.5-3,6.1-2.6c1-3.1,0.1-5.1-3.1-5.9c-1,1.6-2.9,1.7-4.4,2.5C200.3,277.8,200.7,278.3,200.8,278.8z M247.3,271
		c-4.7,3.7-4.2,7.9,1.5,11.5C248.3,278.5,247.8,274.8,247.3,271z M279.9,240.8c-1.2-1.3-2.3-2.7-3.5-4.1c-2.2,2.4-2.7,4.5,0.1,6.5
		c2,1.5,3.3,0.8,4-1.5C280.7,241.1,280.5,240.8,279.9,240.8z M265,311.1c-0.1-2.8-0.4-5.4-1.7-7.9
		C258.3,308.1,258.3,308.3,265,311.1z M247.8,313.9c-0.1-2.8-0.4-5.4-1.7-7.9C241.1,310.8,241.2,311,247.8,313.9z M240.5,252.2
		c-0.8,0.3-1.1,0.9-0.9,1.7c-0.5,0.8-0.9,1.6-0.4,2.6c2.5-1.1,3.6,1.3,5.4,2c1.4-0.7,3.5,1.3,4.6-1
		C245.3,257.4,242.8,255,240.5,252.2z M206.3,309.3c1-2.4,2.9-4.2,2.9-7.7C203.4,305.7,203.4,305.7,206.3,309.3z M191.1,273.6
		c0.6-1,1.9-2.8,0.9-3.2c-3.1-1.5-0.7-2.7-0.1-4.1C185.7,270.2,185.7,270.2,191.1,273.6z M276.1,258.5c-2.5-2.4-5.5-2.9-8.5-3.2
		c1.5,1.9,2.9,3.7,4.4,5.6C273.3,260.1,274.7,259.3,276.1,258.5z M246.5,336.2c1.1-1,0.1-2.4-1-3.2c-2.7-2.1-3,1.5-4.6,2.2
		C242.9,336.1,244.8,337.9,246.5,336.2z M221.4,247.6c-1.5,0.4-3,0.7-4.5,1.1c-0.3,0-0.6-0.1-0.9-0.1c0.1,0.3,0.3,0.5,0.4,0.8
		c0.7,1.3,0.7,3.2,3.1,2.3c1.8-0.7,3.3-1.2,2.7-3.6C222.3,247.4,222,247.3,221.4,247.6z M258.8,234.1c0.1-0.1-0.4-2-1-2.3
		c-2.8-1.4-3.2,1.9-6.1,2.5C254.9,235.4,256.9,235.3,258.8,234.1z M239.4,301c0.1-0.1-0.4-2-1-2.3c-2.8-1.4-3.2,1.9-6.1,2.5
		C235.5,302.3,237.5,302.2,239.4,301z M191.7,295.2c1.2,0.9,2.6,0.8,3.5-0.1c1.2-1.3-0.5-1.7-1.2-2.3c-1-0.8-2.1-1.6-3.4-0.4
		C190.5,293.6,190.7,294.5,191.7,295.2z M214,233.5c-1.8-0.3-3.4-0.6-5.9-1C210.2,234.9,211,239.7,214,233.5z M293.1,237.8
		c0-0.9-1.5-0.7-2.3-0.6c-3,0.6-1.1,2.8-1.7,4.7C292,241.3,293,239.7,293.1,237.8z M238,244.3c-0.2,0-0.9,0.9-0.8,1.2
		c1,2.4,3.8,2.2,5.6,3.6C241.1,247.6,240.6,244.8,238,244.3z M222.4,352.2c0.1,0,0.1-0.5,0-0.6c-0.9-0.6-1.8,0.2-2.8,0.2
		C220.5,351.9,221.4,352.7,222.4,352.2z M231.9,284.9c-0.2,0-0.9,0.9-0.8,1.2c1,2.4,3.8,2.2,5.6,3.6
		C235,288.2,234.5,285.4,231.9,284.9z M237.9,249.2c-0.5-0.1-1.1-0.5-1.6,0.2c-2.3,4,2.1,3.2,3.3,4.6c0.3-0.6,0.6-1.1,0.9-1.7
		C239.6,251.2,238.7,250.2,237.9,249.2z M188.2,218.3c0.1-0.2-0.8-1-1.1-1c-2.2,0.5-3.5,2-3.8,4.4
		C184.8,220.2,187.4,220.6,188.2,218.3z M167.1,251.2c1.3,0.6,2-0.4,2.6-1.3c0.5-0.8,0.1-1.3-0.8-1.5c-1.1-0.2-2.2-0.5-2.9,0.6
		C165.8,250,166.2,250.8,167.1,251.2z M209.3,250.1c0.6,0.3,1.3,0.7,1.9,1c1.4-1.8,3.3-2,5.3-1.8c0.2-0.2,0.3-0.4,0.4-0.6
		C214.1,247.2,211.5,247.5,209.3,250.1z M220.8,286.6c0.1,0.5,0.2,1.1,0.3,1.6c0.3,1,1.1,1.5,2.1,1.4c1,0.2,1.8,0,2.2-1.1
		c0.4,0.2,0.8,0.2,0.9,0c0.2-0.6-0.2-1-0.7-1.2c-1.4-0.4-2.9-0.9-4.3-1.3C221.1,286.2,221,286.4,220.8,286.6z M273.7,250.5
		c-0.5,0.8,0.2,1.2,0.8,1.6c1.2,0.7,2.3,0.8,3.3-0.3c0.5-0.6,0.6-1.2-0.6-1.8C276.3,250.2,274.8,248.9,273.7,250.5z M261.8,340.6
		c-2.2,1-3.8,2.3-2.6,5.7C260.3,344,261.1,342.3,261.8,340.6z M241.3,230.7c0.2-0.8,0-1.6,0-2.4c-1,0.2-2.3,0.2-2.9,0.8
		c-0.5,0.5,0,1.6,0.9,2.2C240.1,231.8,241,231.9,241.3,230.7z M266.7,327.1c-0.4-0.1-1.2,0.3-1.3,0.6c-0.6,1.8,1.1,2.3,2.5,3.7
		C268,329.3,268.5,327.8,266.7,327.1z M230.2,288.1c-0.7-0.7-1.4-1.5-2.2-2.2c-0.8,0.5-1.6,0.9-2.3,1.4c-0.1,0.4-0.1,0.8-0.2,1.2
		C227.2,290,228.7,288.9,230.2,288.1z M251.1,266.7c1.3-0.4,3,0,3.6-1.8c-1.5-0.6-3-2.3-4.6-0.1
		C250.4,265.4,250.8,266.1,251.1,266.7z M204.9,242.7c0.5-1.9,2.6-2.1,3.8-4.5C206.1,239.1,204.4,240,204.9,242.7z M259,216.9
		c0.9,1.2,2,1.2,2-0.3c0-1.8-1.7-1.3-3.5-1.4C258.3,216.1,258.7,216.5,259,216.9z M246.3,217.6c1.4,0.5,2.9,1,4.3,1.5
		C250.8,216,250.8,216,246.3,217.6z M219.6,290.8c1.6,1.8,2.6-0.2,3.7-1.2c-0.7-0.5-1.4-0.9-2.1-1.4
		C219.6,288.5,218.7,289.8,219.6,290.8z M194.4,274.8c2.2,1.3,4.3,2.7,6.5,4c-0.1-0.5-0.2-1.1-0.3-1.6
		C198.4,276.5,197.1,273.7,194.4,274.8z M250.9,220.7c-0.9,1.7-2.9,1.4-4.2,2.4C249.1,224,251.8,225.5,250.9,220.7z M258,327.3
		c0-0.2-1.1-0.6-1.3-0.4c-1.1,0.9-0.9,2.1-0.5,3.7C257.5,329.7,258.2,328.7,258,327.3z M236.4,348.6L236.4,348.6L236.4,348.6
		L236.4,348.6z M220.1,340.6c0-0.2-1.1-0.6-1.3-0.4c-1.1,0.9-0.9,2.1-0.5,3.7C219.6,342.9,220.4,341.9,220.1,340.6z M188.1,310.9
		c2,0.5,5,1.9,6.5-0.5c1.1-1.8-1.1-3-2.6-3.9c-1.5-0.9-1.9-1.7-1.1-3.4c0.8-1.7-0.8-3-1.6-4.3c-1.3,0.9-2.7,1.8-3.6,2.4
		C184.2,303.8,185.7,310.3,188.1,310.9z M208.1,330c1.1-1,0.1-2.4-1-3.2c-2.7-2.1-3,1.5-4.6,2.2C204.5,329.8,206.4,331.6,208.1,330z
		 M219.6,321.1c0-0.2-1.1-0.6-1.3-0.4c-1.1,0.9-0.9,2.1-0.5,3.7C219.1,323.4,219.8,322.4,219.6,321.1z M232.5,331.9
		c0-0.2-1.1-0.6-1.3-0.4c-1.1,0.9-0.9,2.1-0.5,3.7C232.1,334.2,232.8,333.2,232.5,331.9z M220.9,231.4c0.8-0.4,1.6-0.7,2.2-1.2
		c0.4-0.4,0.2-1.2-0.5-1.1c-0.6,0-1.2,0.5-1.8,0.9C220.9,230.5,220.9,231,220.9,231.4z M250.3,249.5c-1.5-1.1-2.5-0.6-3.8,1.5
		C248.2,250.3,249.3,249.9,250.3,249.5z M114,212.2c1,1.2,2.1,2,4.7,2.5C116.7,213.2,115.9,211.7,114,212.2z M245.4,296.1
		c0.7,0.2,1.7-0.1,2.3-0.5c0.4-0.3,1-1.3-0.1-1.6c-0.8-0.2-1.7,0-3.4,0C244.7,295,244.9,296,245.4,296.1z M251.9,304.1
		c0.7,0.2,1.7-0.1,2.3-0.5c0.4-0.3,1-1.3-0.1-1.6c-0.8-0.2-1.7,0-3.4,0C251.2,302.9,251.4,304,251.9,304.1z M226.8,245.4
		c-2,0.1-4.1,0-5.3,2.1c0.3,0.1,0.7,0.3,0.9,0.5C223.8,247.1,225.9,247.3,226.8,245.4z M191.3,231.7c-0.1,0.2,0.5,1.1,0.6,1
		c0.6-0.1,1.3-0.4,1.8-0.8c0.5-0.4,0.3-0.9-0.3-1.1C192.6,230.8,191.7,230.8,191.3,231.7z M112.1,227.4c0.4,1.4,1.1,2.1,3.7,2.4
		C113.9,228.8,114,227.3,112.1,227.4z M189,258.9c-0.1-1.5-1.2-2.1-2.5-2.4c0,0.8-0.1,1.6-0.1,2.4
		C187.2,259.7,188.1,259.7,189,258.9z M281.4,237.1c-0.6,1.5-1.1,2.6-1.5,3.7c0,0.4,0.2,0.7,0.5,0.9
		C281.5,240.5,282.5,239.4,281.4,237.1z M181,260.6c-0.3,1.2-1,2.4,0.1,3.4c0.2,0.2,0.8,0.1,1-0.1c1.4-0.9-0.8-1.8-0.1-2.8
		C181.9,260.7,181.5,260.5,181,260.6z M240,213.7c0.9-0.5,1.4-1.7,0.2-1.9c-0.9-0.2-1.6,1.1-1.7,2.5
		C239.1,214.1,239.6,214,240,213.7z M142.5,238.2c1.4-0.9,2.1-1.8,2-3.2C143.1,235.6,142.6,236.6,142.5,238.2z M187.3,261
		c1.7,1,2.2,0.1,2.4-1.4c-0.3-0.2-0.5-0.5-0.8-0.7c-0.9,0-1.7,0-2.6,0C185.8,260,186.8,260.4,187.3,261z M189.2,262.1
		c0.6-0.5,2.3-1.3,0.5-2.5c-0.4,1.2-1,1.9-2.4,1.4C187.6,262,188.3,262.8,189.2,262.1z M173,255.5c0.6-0.2,1.4-0.2,1.9-0.5
		c0.3-0.2,0.5-1.1,0.3-1.3c-0.7-1-1.1,0-1.6,0.5C173.4,254.5,173.2,255,173,255.5z M233,245.8c0.1,2.1,2.1,2.5,3.2,3.5
		c0.5-0.1,1.1-0.1,1.6-0.2C236.2,248.1,234.6,246.9,233,245.8z M183.3,259.5c-0.2-0.4-0.9-0.8-1.3-0.8c-1.4,0-1,1.1-1,1.9
		c0.4,0.2,0.7,0.4,1.1,0.6C182.4,260.6,184.1,260.8,183.3,259.5z M230.4,263.6c1.3-3.4,3.1-6.8-0.4-10c-8,4.1-8,4.1-7.8,8.8
		C224.3,267.1,227.5,264.5,230.4,263.6z M232.6,266.6c-0.6-0.3-1.2-0.6-1.7-0.9c-2.4-0.9-4.9-1.6-7.3,0c-0.3,1.4,0,2.6,1,3.6
		c0.9,0.6,1.8,1.1,2.7,1.7c1.1-2.9,4.2-1.1,5.9-2.5C233,267.9,232.8,267.3,232.6,266.6z M215.4,279.4c3.4,1.1,4.5-1.1,4.8-4.1
		c0.1-1.4,0.9-2.7,1.4-4.1c-2.3-1.6-2.4,1.4-3.7,1.8c-3.2,2.6-6.5,5.2-9.7,7.8C211,282.3,212.6,278.6,215.4,279.4z M209.8,255.9
		c-1.9,1.1-2,2.5-1,4.2C210.1,258.9,211.7,257.8,209.8,255.9z M261,257.5c-1.8-0.7-3.9-3.3-4.6,1C258.3,259.6,259.8,259.3,261,257.5
		z M184.4,248l2.8-5.3l-6,0.3L184.4,248z M218.9,302.7l2.8-5.3l-6,0.3L218.9,302.7z M173.4,298.2l2.8-5.3l-6,0.3L173.4,298.2z
		 M147,327.8L16.1,252.2V101.1L147,25.5l130.9,75.6v151.1L147,327.8z"/>
</g>
</svg>
