<svg version="1.1" xmlns="http://www.w3.org/2000/svg" x="0px" y="0px"
	 viewBox="0 0 199.4 236.3" enable-background="new 0 0 199.4 236.3" xml:space="preserve">
<g id="_x30_4_1_">
	<g>
		<g>
			<path fill="#FFFFFF" d="M198.8,145.2c-0.1-18.8-0.1-39-0.1-55.5c0-11.3,0-20.8,0-26.8c0-29.5-31.5-48.6-50.8-48.6
				c-19.3,0-132.9-0.1-132.9-0.1c-3.9,0-7,3.1-7,7c0,0,0.1,99.7,0.1,130.7c0,31.1,32.2,51.8,49.8,51.8c8.2,0,63.3,0.1,63.3,0.1
				c3.9,0,8.5,2.8,10.3,6.2l12.7,23.3c1.8,3.4,4.9,3.4,6.7,0l12.6-23.2c1.8-3.4,6.5-6.1,10.3-6.1c0,0,14.7,0,18.4,0
				c3.7,0,6.7-3.1,6.7-7C198.9,197,198.8,176.5,198.8,145.2z"/>
			<path fill="none" stroke="#231F20" stroke-miterlimit="10" d="M198.8,145.2c-0.1-18.8-0.1-39-0.1-55.5c0-11.3,0-20.8,0-26.8
				c0-29.5-31.5-48.6-50.8-48.6c-19.3,0-132.9-0.1-132.9-0.1c-3.9,0-7,3.1-7,7c0,0,0.1,99.7,0.1,130.7c0,31.1,32.2,51.8,49.8,51.8
				c8.2,0,63.3,0.1,63.3,0.1c3.9,0,8.5,2.8,10.3,6.2l12.7,23.3c1.8,3.4,4.9,3.4,6.7,0l12.6-23.2c1.8-3.4,6.5-6.1,10.3-6.1
				c0,0,14.7,0,18.4,0c3.7,0,6.7-3.1,6.7-7C198.9,197,198.8,176.5,198.8,145.2z"/>
		</g>
		<path d="M20,28.2C20,28.2,20,121,20,148s27.7,45,42.9,45c15.2,0,121.5,0.2,121.5,0.2s-0.3-97-0.3-122.6
			c0-25.6-27.1-42.3-43.7-42.3C123.8,28.4,20,28.2,20,28.2z"/>
		<line fill="none" stroke="#231F20" stroke-miterlimit="10" x1="25.2" y1="6.4" x2="137.9" y2="6.4"/>
		<line fill="none" stroke="#231F20" stroke-miterlimit="10" x1="87.2" y1="0.5" x2="137.3" y2="0.5"/>
		<path fill="none" stroke="#231F20" stroke-miterlimit="10" d="M0.5,154.7c0,25.9,19.4,57.2,51,57.2"/>
	</g>
</g>
</svg>
