<svg version="1.1" xmlns="http://www.w3.org/2000/svg" x="0px" y="0px"
	 viewBox="0 0 235.3 229" enable-background="new 0 0 235.3 229" xml:space="preserve">
<g id="_x30_3_1_">
	<g>
		<path fill="#FFFFFF" stroke="#231F20" stroke-miterlimit="10" d="M219.2,115.9l-40.9-75.2c-4.2-7.7-12-12.5-20.4-12.5H86.8
			L82.3,3.9c-0.7-3.8-5.6-4.6-7.4-1.2L49.3,51.9c-0.2,0.4-0.3,0.8-0.4,1.2l-34.2,62.8c-4.2,7.7-4.2,17.2,0,24.9L55.6,216
			c4.2,7.7,12,12.5,20.4,12.5h81.9c8.4,0,16.2-4.8,20.4-12.5l40.9-75.2C223.4,133.1,223.4,123.6,219.2,115.9z"/>
		<line fill="none" stroke="#231F20" stroke-miterlimit="10" x1="222.7" y1="150.4" x2="192.8" y2="205.3"/>
		<line fill="none" stroke="#231F20" stroke-miterlimit="10" x1="234.9" y1="145.3" x2="213.1" y2="186.7"/>
		<line fill="none" stroke="#231F20" stroke-miterlimit="10" x1="65.8" y1="4.4" x2="13.7" y2="102.9"/>
		<line fill="none" stroke="#231F20" stroke-miterlimit="10" x1="23.4" y1="69.9" x2="0.4" y2="111.4"/>
		<line fill="none" stroke="#231F20" stroke-miterlimit="10" x1="195.9" y1="58.9" x2="204.3" y2="73.7"/>
		<g>
			<path d="M81.1,216.5c-6.6,0-14.5-4.8-17.7-10.6l-36.5-68.4c-3.1-5.8-3.1-15.3,0-21.2L63.4,48c3.1-5.8,11.1-10.6,17.7-10.6h71.7
				c6.6,0,14.5,4.8,17.7,10.6l36.5,68.4c3.1,5.8,3.1,15.3,0,21.2l-36.5,68.4c-3.1,5.8-11.1,10.6-17.7,10.6H81.1z"/>
		</g>
	</g>
</g>
</svg>
