<svg version="1.1" xmlns="http://www.w3.org/2000/svg" x="0px" y="0px"
	 viewBox="0 0 231.5 228.2" enable-background="new 0 0 231.5 228.2" xml:space="preserve">
<g id="_x30_2_1_">
	<g>
		<path fill="#FFFFFF" stroke="#231F20" stroke-miterlimit="10" d="M153.3,13.4H73C36.7,13.4,7.3,44.6,7.3,83v33.7
			c0,47.3,36.1,85.6,80.7,85.6h91.3c-2.4,9.1-7.1,15.6-11.1,19.7c-2,2.1-0.7,5.7,2.1,5.7h18.8c29.5,0,29.8-31,29.8-31v-45.4V83
			C219,44.6,189.5,13.4,153.3,13.4z"/>
		<line fill="none" stroke="#231F20" stroke-miterlimit="10" x1="73.6" y1="6.9" x2="125.3" y2="6.9"/>
		<path fill="none" stroke="#231F20" stroke-miterlimit="10" d="M225.2,108.7v81.9c0,6.1-0.7,12.2-2.4,18c-1.7,6-4.5,12.4-9.1,15.2"
			/>
		<line fill="none" stroke="#231F20" stroke-miterlimit="10" x1="231" y1="148.7" x2="231" y2="129.5"/>
		<path fill="none" stroke="#231F20" stroke-miterlimit="10" d="M0.8,98.6c0,0-3,47.6,10.3,60.3"/>
		<line fill="none" stroke="#231F20" stroke-miterlimit="10" x1="121.2" y1="0.5" x2="139.2" y2="0.5"/>
		<path d="M149.1,25.2H77.6C45.2,25.2,19,52.6,19,86.3v29.6c0,41.4,32.2,75,71.9,75h81.4c28.6-0.4,35.3-2.1,35.3-2.1v-42.7V86.3
			C207.6,52.6,181.4,25.2,149.1,25.2z"/>
	</g>
</g>
</svg>
