<?xml version="1.0" encoding="UTF-8"?>
<svg id="Layer_1" data-name="Layer 1" xmlns="http://www.w3.org/2000/svg" viewBox="0 0 300 200">
  <path d="m18.41,141.95c-.2-.06-.42-.1-.61-.19-.39-.17-.76-.2-1.08.12-.31.32-.49.08-.68-.14-.5-.27-.62-.6-.2-1.02.26-.17.5-.38.82-.46.28-.06.47-.23.41-.49-.05-.24-.3-.36-.57-.39-.32-.04-.64-.07-.96-.09-.37-.03-.65-.25-.96-.4-.2-.09-.45-.3-.17-.41.49-.18.26-.51.34-.78.58-.16,1.21-.2,1.72-.55.16-.11.31-.08.5-.05,1.36.18,1.64.04,2.31-1.1.1-.16.25-.24.43-.25.25-.01.5.02.75,0,.13,0,.29-.03.3-.21.01-.17-.13-.22-.26-.26-.2-.06-.41-.2-.62-.13-.91.3-1.75-.04-2.6-.24-.35-.08-.69-.1-1.04.06-.48.21-1.01.33-1.49.54-.26.11-.37-.01-.56-.1-.51-.23-.52-.21-.53.45-.22.07-.42-.01-.62-.08-.95-.33-.96-.34-1.48.54-.15.25-.3.23-.51.14-.52-.25-.94-.58-1.04-1.15-.1-.55.4-.45.7-.57.37-.2.7-.45,1.19-.33.28.07.46-.21.52-.41.07-.24-.18-.32-.41-.34-.36-.69.46-.32.59-.58q.67-.3,1.47.34c.08-.57.52-.65,1-.77.56-.14,1.21-.11,1.65-.56.34-.32.85-.02,1.21-.28.17-.05.38.04.51-.15.08-.2.17-.41.25-.61l-.02.02c.81.44,1.68.1,2.53.17.14-.11.36-.04.48-.2.37-.38.65-.01.95.1.59.23.85.15,1.17-.43.35-.63.31-.79-.31-1.12-.09-.05-.2-.08-.3-.11-.4-.12-.42-.64-.85-.73-.51-.11-.41.6-.89.58-.16,0-.36.13-.51.03-.92-.65-1.96-.24-2.92-.23-.6,0-1.2.09-1.8,0-.32-.05-.65-.1-.96.04-.32.15-.54-.07-.81-.15-.34-.09-.27-.34-.28-.57-.02-.32.18-.4.46-.43.77-.07,1.39-.34,1.96-.87.42-.39,1.01-.63,1.64-.72.24-.03.4-.16.38-.4-.02-.23-.21-.36-.44-.37-.42-.03-.85-.17-1.27.03-.63.3-1.28.43-1.95.08-.09-.05-.22-.08-.31-.06-1.03.21-1.42-.31-1.54-1.18.4-.32.95-.37,1.46-.48.31-.07.51-.19.68-.42.3-.36-.31-.69-.04-1.04.19-.4.81-.58.69-1.22-.33.2-.66.3-1.01.26-.29-.03-.46-.23-.47-.47-.01-.23.21-.35.43-.36.53-.03,1.15-.09,1.15-.65,0-.45-.63-.58-1.08-.68-.33-.07-.62-.18-.79-.46-.11-.38.97-.29.38-.86-.06-.06,0-.13.1-.13.62-.03.74-.55,1.05-.9.81-.91,1.97-1.03,3.1-1.1.75-.05,1.49-.07,2.23-.24.51-.12,1.06-.14,1.6-.16.86-.03,1.72-.04,2.56-.25.52-.13,1.05-.24,1.59-.05.13.04.29.05.42,0,1.99-.57,4.07-.27,6.09-.55,1.21-.16,2.43-.21,3.65-.34.41-.05.88.02,1.24-.39-.3-.45-.84-.42-1.29-.46-1.57-.14-3.14-.18-4.72-.16-2.04.02-4.08.09-6.12.24-1.85.14-3.71.22-5.56.43-1.12.13-2.25.31-3.37.44-.07,0-.18-.01-.2.02-1.02,1.27-2.33-.01-3.46.33-.17.05-.28-.27-.15-.37.58-.44.51-.81-.06-1.17-.13-.08-.22-.22-.12-.34.12-.14.43-.15.47-.03.21.53.62.36,1.04.38.7.03,1.34.45,2.09.34.17-.03.37.05.53,0,1.51-.45,3.16-.29,4.61-.81,1-.36,1.92-.34,2.9-.29.11,0,.23.02.32-.01,2.23-.82,4.59-.51,6.89-.64.92-.05,1.86-.24,2.77.12.11.05.28-.01.41-.03.28-.04.56-.12.85-.12,1.35-.04,2.7-.08,4.03-.38.36-.08.94-.1.76.58.21.17.24.44.38.64.36.23.64.24,1.01-.09.72-.64.74-.58,1.69-.1.64.32,1.24.02,1.79-.26.37-.19.6-.55.83-.87-.04.04-.08.07-.12.11.03-.04.07-.08.1-.12.71.43,1.19-.3,1.84-.39-.78-.21-1.56-.42-2.35-.63-.21-.05-.43-.08-.62-.15-.57-.21-.6-.3-.35-.88.05-.12.12-.25.13-.37.05-.49.37-.5.77-.39.38.11.76.2,1.14.3.27.13.52.23.45-.22h0c-.07-.03-.09-.06-.07-.09.02-.03.05-.04.07-.04l-.04-.04.05.03c.01-.1.09-.17.16-.24.08-.13.16-.26.23-.39.17-.24.37-.48.15-.79-.03-.09,0-.16.06-.23h0c.12-.11.32-.07.43-.2.1-.05.19-.19.12-.23-.4-.21-.89-.48-1.28-.34-.78.26-1.39-.13-2.07-.27-.67-.17-1.63-.05-1.31-1.18.48-.13.78-.54,1.29-.64.24-.05.41-.28.39-.53-.02-.24-.27-.26-.47-.32-.24-.06-.47-.14-.71-.22.5-.72.48-.77-.32-.95-.24-.05-.49-.12-.73-.09-.43.05-.44-.24-.53-.48-.13-.23.07-.28.22-.37.27-.06.49-.32.8-.18.71.31,1.49.1,2.22.31.31.09.64.03.95-.08.55-.19.6-.36.45-.91-.15-.54-.61-.97-.49-1.64.06-.34-.58-.25-.9-.36-.08-.03-.11-.07-.08-.11.03-.04.05-.06.08-.06.68-.2,1.37-.36,1.93-.81.12-.1.21-.19.16-.32-.03-.08-.15-.18-.24-.19-1.15-.05-2.27-.5-3.45-.2-.7.18-.71.14-1.53-.48.48-.61.93-1.19,1.88-1.23.56-.02.98-.56,1.61-.47.06,0,.22-.14.21-.18-.13-.57.3-.94.5-1.41.29-.7.31-.85,1.11-.86.49,0,.83-.11,1.05-.51.25-.12.3.07.39.21,1,.35,2.15-.23,2.33-1.19.09-.47-.34-.64-.66-.59-.96.15-1.87-.49-2.96.02.52-.99,1.98-.69,2.03-1.97-.03-.06-.27-.06-.53,0-.48.12-.95.33-1.47.3-.28-.15-.49-.37-.61-.66-.21-.31-.47-.5-.85-.21-.37.28-.74.33-1.14.08-.26-.36-.94.2-1.08-.42.41-.46.55-1.18,1.37-1.25.13-.51.46-.92.79-1.33.08-.11.1-.24.27-.19.16.05.16.19.11.33-.02.06-.08.12-.09.18-.07.35-.29.8.08,1,.47.24.66-.26.85-.55.23-.36.69-.32.95-.59.19-.2-.21-.4-.01-.61.56-.48,1.37-.46,2.12-.85-.59-.31-1.09-.49-1.34-1-.19-.39-.68-.25-.97-.13-.75.32-1.38.1-2.04-.2-.27-.12-.55-.26-.53-.56.02-.28.29-.45.53-.59.35-.2.41.1.55.28.27.35.58.18.84.02.41-.26.78-.59,1.32-.62.14,0,.34-.17.29-.25-.41-.66.25-.75.6-1,.41-.29.43-.67.32-1.08-.09-.1-.09-.2.02-.29.4-.44,1.2-.42,1.44-.99.2-.48.07-1.04.29-1.51-.16-.14-.3-.16-.45-.14-2.02.33-4.08.27-6.08.73-.14.03-.28.09-.42.08-1.81-.16-3.52.61-5.32.47-.14-.01-.29.01-.42.06-2.17.77-4.48.44-6.71.73-1.17.15-2.37.08-3.49.54-.54.22-.81,0-.97-.46-.29-.88-.84-1.72-.57-2.71.08-.28-.07-.43-.4-.45-.57-.03-1.14-.09-1.71-.13-.25.05-.56.28-.65-.18.34-.02.69-.03,1.03-.05.28-.17.63.02.9-.16.78-.01,1.34-.55,2.09-.69,1.39-.26,2.8-.09,4.18-.27,2.23-.28,4.47-.4,6.69-.73,1.37-.2,2.73-.43,4.15-.09.75.18,1.63-.02,2.44-.15,1.91-.31,3.84-.44,5.77-.64.34-.03.72.17,1.05.1,1.66-.34,3.4-.3,4.99-.95.38-.16.78-.25,1.24-.05.52.23,1.07.12,1.66-.03,1.2-.3,2.46-.51,3.7-.56.81-.03,1.61-.36,2.44-.09.17.06.5-.05.52-.26.09-.79.64-1.25,1.3-1.59-.18-.41-.47-.3-.7-.3-1.18.03-2.35.16-3.51.41-1.71.37-3.47.37-5.2.52-.72.06-1.43.15-2.11.32-1.36.34-2.75.45-4.14.62-.98.12-2.06.21-2.9.85-.27.21-.54.17-.8.05-.31-.13-.62-.16-.95-.11-1.62.21-3.28,0-4.89.35-1.4.3-2.85.3-4.24.67-.46.12-.92.06-1.38.1-2.28.19-4.58.16-6.84.59-.59.11-1.21.11-1.74-.29-.18-.14-.46-.23-.7-.24-.97-.06-1.39-.57-1.5-1.41-.03-.2-.12-.39-.16-.58-.07-.31-.15-.61-.61-.5-.17.04-.27-.03-.29-.19-.02-.15.04-.26.19-.32.22-.09.52.03.71-.29-.19-.4-.61-.51-1.02-.52-.9-.03-1.66-.36-2.4-.79-.6-.35-1.25-.63-1.94-.97.87-.31,1.76-.18,2.59-.34.28-.05.57-.07.84-.15.34-.09.56-.32.58-.66.02-.32-.24-.48-.53-.56-1.27-.33-2.25-1.36-3.67-1.35-.2,0-.29-.14-.31-.33-.12-1.11-.04-1.21,1.23-1.27.61-.03,1.22-.08,1.81-.25.3-.08.54-.25.2-.56-.06-.05-.08-.1-.05-.14.03-.04.05-.06.08-.06,1.43-.05,2.87.08,4.45-.33-.73-.48-1.37-.84-2.2-.93-1.28-.13-2.6-.13-3.76-.76.15-.54.57-.24.89-.24.56.07,1.11.08,1.79-.03-.33-.42-.72-.55-1.08-.58-1.48-.14-2.75-.74-3.92-1.52-.75-.51-1.36-1.18-2.14-1.67-.33-.21-.19-.43.11-.62.41-.26.87-.33,1.34-.32,2.05.05,4.08-.29,6.13-.14.09,0,.19-.06.39-.14-.52-.55-.99-1.08-1.5-1.56-.72-.68-1.24-1.53-2.16-2.05-.4-.23-.83-.38-1.24-.57-.74-.33-1.11-.74-1.02-1.15.1-.43.77-.83,1.51-.69,1.4.27,2.78.05,4.17.06.36,0,.71.01,1.05.14.37.13.75.13,1.16.05,1.01-.22,2.04-.41,3.09-.27.17.02.36-.02.53-.06.31-.07.46-.26.23-.5-.69-.72-1.12-1.54-1.41-2.45-.12-.4-.5-.52-.94-.54-.83-.03-1.66-.03-2.48.07-1.61.2-3.22.24-4.83.18-1.09-.04-1.87-.68-2.51-1.41-.34-.39-.3-.96-.32-1.44-.01-.34.39-.58.76-.6.35-.03.7-.11,1.06-.13,2.44-.15,4.87-.35,7.31-.53.29-.02.56-.11.86-.25-.33-.66-.99-.92-1.63-1.21-.85-.38-1.65-.82-2.23-1.53-.69-.83-.74-1.87-.97-2.83-.09-.37.35-.58.64-.48.73.24,1.55-.08,2.25.48.36.28,1.02.27,1.56.19.64-.1.96-.91.57-1.54-.2-.32-.32-.68-.53-.97-.54-.75.39-1.22.35-1.86,0-.06.22-.16.35-.19.17-.04.36-.04.53-.02,1.38.2,2.72.11,4.1-.13,1.29-.22,2.63-.28,3.96-.16.41.03.83-.14,1.26-.18,1.97-.19,3.97-.07,5.92-.35.07-.39-.37-.42-.42-.66,0-.11.06-.12.14-.14.78-.17,1.57.29,2.38-.05.25-.11.51.19.69.4.24.29.55.37.95.36,1.75-.05,3.49-.36,5.25-.26.1,0,.23,0,.31-.05.96-.58,2.11-.22,3.1-.52,1.18-.36,2.4-.26,3.6-.41,1.05-.13,2.09-.46,3.19-.27.29.05.64.08.94-.11.29-.18.65-.17.94-.11,1.5.3,2.86-.36,4.29-.52,1.09-.12,2.14-.5,3.26-.28.17.03.36.02.54,0,1.2-.16,2.39-.32,3.58-.51.81-.13,1.61-.3,2.45-.23.64.05,1.28-.13,1.91-.25.54-.1,1.07-.19,1.52.22.2.18.47.22.71.15.38-.1.73-.16,1.13-.04.19.06.29-.15.27-.34-.03-.2.04-.3.28-.26.94.02,1.8-.48,2.75-.4.26-.09.35.09.46.24.44.16,1.62.32,1.96.21.29-.09.63-.16.82-.01.87.68,1.83-.03,2.73.2.18.05.26-.18.3-.35-.09-.16-.1-.31.03-.45.24-.24.62-.3.7,0,.14.55.53.43.89.43.65.01,1.29,0,1.9,0,.3-.39-.29-.55-.13-.9.39.14.81.11,1.24.07.59-.05,1.17-.16,1.79-.14.39.01.99.14,1.31-.42.12-.21.54-.11.82-.13,1.06-.06,2.13-.11,3.19-.17.14,0,.27-.09.4-.14.43-.19.76-.2.81.35-.14.19-.16.48.13.4,1.55-.43,3.19-.01,4.74-.51.52-.17,1.14-.1,1.71-.11.34,0,.69-.03.81-.35.24-.63.65-.37,1.02-.2.75.35.97.33,1.5-.11.18-.15.21-.55.47-.47.33.09.71.1.99.27.87.54,1.63.41,2.42-.18.47-.35,1.03-.43,1.67-.5,1.25-.13,2.49.13,3.73-.03.72-.1,1.43-.24,2.15-.37.8.41,1.6.94,2.47.12.15-.23.43-.23.66-.32,1.37-.1,2.74-.24,4.1.1.2.05.43.07.63.03,1.03-.18,2.07-.1,3.11-.26,1.61-.25,3.24-.17,4.87-.09.05.05.07.1.06.16,0,.06-.02.09-.03.08-.11.14-.19.28.11.3.53.04,1.04-.08,1.54-.23.1,0,.2.01.29.06.12.16.33.06.33-.02,0-.54.51-.46.83-.59.25-.1.42-.02.57.26.52.96,1,1.12,2.12.68.48-.19.68.19.72.36.35,1.28,1.55,2.37,1.07,3.85-.09.27.09.44.36.53.2.23-.08.27-.17.37-.34.22-.33.53-.12.79.3.36.68.66.66,1.19,0,.17.25.21.43.22.25,0,.42.02.51.35.13.47.74.39,1.1.45.8.12,1.61.18,2.45.03,2.22-.39,4.49-.43,6.74-.58,2.32-.15,4.65-.26,6.97-.4,1.42-.08,2.84-.13,4.26-.21.49-.03.99-.08,1.48-.16,1.27-.2,2.56.05,3.83-.21,1.92-.39,3.88-.43,5.83-.63.82-.09,1.64.16,2.46-.08.74-.22,1.49-.47,2.29-.39.32.03.65.06.97.05.35,0,.76.13,1.05-.07.71-.5,1.53-.34,2.29-.33,1.4.02,2.78.06,4.17-.19,1.19-.21,2.43-.41,3.62-.34,1.04.06,2.07,0,3.1.05,1.29.06,2.57-.07,3.85-.12,2.04-.08,4.07-.02,6.11.04,1.11.03,2.22-.01,3.33-.05.68-.02,1.32.33,2.02.18.2-.04.43,0,.59-.17.21-.24.33-.48-.06-.64-.26-.11-.54-.21-.82-.24-.96-.09-1.95-.29-2.88-.18-1.1.13-2.15-.07-3.22-.11-1.79-.07-3.57.08-5.35.05-1.36-.02-2.72.14-4.08-.03-.39-.05-.8-.04-1.18.03-.96.19-1.92-.06-2.89.06-.77.1-1.55.08-2.33.12-.21.01-.43.09-.64.08-2.21-.09-4.4.2-6.61.23-1.39.02-2.79.13-4.16.31-1.18.16-2.36.14-3.54.23-1.36.1-2.71.3-4.08.31-.46-.03-1,.35-1.36-.23.49-.19,1.09-.15,1.46-.59.27-.66.96-.11,1.36-.41,1.74-.13,3.5-.2,5.22-.42,1.74-.23,3.5-.22,5.24-.41.85-.09,1.71-.12,2.57-.13,1.1,0,2.2-.08,3.31-.07,1.01.02,2.07.01,3.05-.13.69-.09,1.26-.08,1.91.05.76.15,1.55.04,2.33-.04.78-.08,1.55-.14,2.34-.1.92.05,1.85-.11,2.78-.13,1.29-.03,2.57-.03,3.86-.02.24,0,.49.09.73.14.21.05.46.19.62.13,1.57-.61,3.17-.04,4.74-.15,1.25-.09,2.45.18,3.68.25.83.05,1.62.03,2.26-.56.52.56,1.03,1.07,1.86,1.17.23.03,1.07,1.05,1.01,1.25-.37,1.3.67,1.8,1.54,2.4.05.04.08.1.13.17-.06.31-.36.52-.56.68-.52.42-.73.81-.5,1.47.19.54-.3.94-.76,1.2-.23.13-.51.2-.7.41-.2.22-.61.3-.61.65,0,.37.33.47.65.56.06.02.12.08.14.14.37,1.08,1.31,1.29,2.37,1.35.75.04,1.43.36,2.09.54.12.18,0,.21-.07.27-.23.18-.74.18-.62.57.1.35.55.18.84.25.67.18,1.35.15,2.03.2.95.07,1.7.45,2.06,1.33.09.21.45.27.34.58-.02,0-.05.03-.08.03-.4.08-.99-.11-1.14.35-.15.46.24.87.58,1.22.09.1.28.13.34.24.15.26.27.55-.16.73-.23.09-.51.07-.68.27-.1.11-.09.25-.04.38.04.1.13.17.25.14.73-.24,1.11.3,1.58.62.18.12.29.25.31.48.11,1.05.81,1.57,1.9,1.68.15.12.15.25.06.4-.09.31-.18.62.36.58.65-.05,1.29.19,1.92.12.53-.06.9.58,1.46.19.46-.32.97-.05,1.46-.03.71.02,1.42.14,2.1.33.13.09.32.07.45.16h0c0,.46-.38.28-.61.3-.66.06-1.34-.08-2,.08-.86.17-1.71-.08-2.57-.05-.49.02-.88.24-1.33.3-.21.03-.29.19-.26.36.03.2.24.31.39.26,1.02-.34,1.99.47,3.01.1.95.54,1.99-.12,3,.23.96.34,2.02.43,3.04.61.46.08.79.33,1.08.63.43.44.88.68,1.57.69.55,0,1.12.23,1.34.83.22.64.19,1.25-.28,1.79-.11.12-.29.2-.42.31-.49.43-.51.6-.13,1.1.21.28.44.52.74.72.79.54.85.93.23,1.61-.14.15-.31.27-.47.41-.26.12-.33.39-.48.59-.31.48-.53,1.02-1.14,1.28-.11.05-.24.23-.21.32.16.59-.17,1.31.49,1.78.05.09.11.17.22.2h0c.3.48-.27.45-.44.66-.56.23-.36.74-.47,1.13-.14.49.07.81.58,1.02.38.15.47.55.75.8-.95.5-1.61,1.22-2.35,1.87-.13.12-.22.31-.11.45.53.69.49,1.78,1.65,2.03.19.04.35.22.52.33.15.04.15.1.01.16h0c-.1.12-.05.33-.26.39-.48.28-.29.64-.08.94.19.27.46.49.72.76-.23.25-.56.24-.82.35-.42.17-.61.45-.19.82.08.04.11.08.08.12-.03.03-.06.05-.09.05-.52-.02-.88.42-1.42.41-.26,0-.26.23-.23.45.07.54.64.57.96.89-.12.08-.27.14-.35.24-.5.65-1.09.55-1.74.21-.38-.2-1.15.01-1.41.32-.19.22-.02.37.12.52.09.1.23.27.31.25.88-.14.83.49.97.97.3.19.84,0,.96.49.1.39-.34.35-.51.52-.75.67-1.8.76-2.68,1.18-.6.29-1.21.53-1.73.96-.48.4-1.2.43-1.65.89-.12.12-.31.17-.36.45.57.12,1.12.29,1.46.87.15.26.68.33,1.03.48.33.35.14.58-.2.77-.39.35-.61.93-1.33.85-.09,0-.25.07-.27.13-.25.81-1.07.61-1.65.81-.34.12-.75.06-.43.58.09.14-.08.31-.23.41-.22.17-.47.31-.66.5-.19.19-.66.05-.65.41.02.41.45.46.77.58.16.06.34.09.51.13.18-.06.35-.13.54-.14.92.11,1.86.07,2.75.37.61.22,1.24.33,1.88.38.38.03.75-.06.9.45.09.3.51.17.78.16.75-.02,1.5-.1,2.25-.11.63-.01,1.29-.03,1.77.48-.25.8-.97.23-1.43.33-.64.14-1.41.1-2.11-.06-2.26-.03-4.52-.05-6.77-.07-.22,0-.56-.12-.61.21-.04.23.06.47.39.49.3.02.39.26.56.42.33.33.76.51,1.24.54,1.29.07,2.57.11,3.86.18.28.02.61-.11.8.29.12.24.54.14.8.09,1.36-.29,2.7,0,4.05.11,1.74.14,3.48.29,5.23.28.79,0,1.57.07,2.36.09.36.06.64.2.67.58.22.2.56.28.78.19.85-.33,1.66.6,2.49.02.2-.19.41-.19.63-.02.21.24.52.21.79.25,1.66.23,3.33.46,4.98.56,2.29.14,4.53.49,6.79.8,1.97.27,3.91.69,5.87,1.03.47.08.88.25,1.23.55.07.06.1.13.11.21,1.16,1.09.92,1.94-.7,2.56-.36.14-.7.32-1.02.51-.04.14.07.19.17.25.11.07.21.15.31.23.29.25.66.22,1.01.27.73.18.8.79.98,1.33.14.43-.28.46-.55.6-.56.29-1.09-.21-1.63-.04-.05.14.01.22.14.27.8.07,1.45.55,2.22.71.24.09.47.2.56.45.02.15-.02.29-.07.42-.04.09-.09.17-.15.25-.05.05-.12.12-.17.1-1.6-.6-2.66.5-3.89,1.06-.09.03-.19.04-.29.04-.4-.06-.81-.14-1.04.32-.09.11-.2.2-.34.26-.37.15-.76.09-1.1.11.66.2,1.36.38,2.11.3,1.14.14,1.14.14.75.93-.49.18-.83.57-1.27.81-.1.02-.2.01-.3-.02-1.31-.53-2.63-.43-3.94-.02-.12.64.39.91.84,1.12.81.38,1.55.96,2.56.85.17-.02.34.08.49.17.8.47,1.22,1.16,1.37,2.01.04.23.1.45.28.63.07.06.14.12.23.17l-.02.02c.06.31-.26.55-.19.86.02.03.01.07,0,.1.35.31.41.66.19,1.05-.08.46-.43.63-.85.8-.63.25-.64.48-.08.85.34.23.46.72,1.07.65.25-.03.01.33.09.5.51.46.12.65-.29.83-1.34-.03-2.65.31-4,.3-.52.01-.9.38-1.47.5.54.54,1.18.39,1.78.39.5-.02.98.06,1.39.34.37.55-.02.72-.42.84.32.03.76-.08.88.44-.52.29-.97.72-1.61.81-.52-.04-1.1-.22-1.24.51.02.16.09.33-.03.48-.23,0-.37.17-.56.26-.21.07-.25.29-.41.4-.29.23-.54.48.11.5.74.03,1.48.06,2.2.26.29.07.57.13.86.2.05.42.6.52.69.9-.03.03-.05.05-.05.05.03.09.06.09.08,0h.09s.04.07.04.07c.24.35.61.4,1.01.45.46.06.51.27.34.62-.13.26-.87.39-.27.86-.08.05-.16.09-.24.14-.34.18-.62.43-.82.75-.25.21-.21.47-.13.73,0,.09,0,.18-.03.26-.04.08-.09.15-.17.21-.08.05-.17.08-.26.1-.41.28-.87.37-1.37.3-.23.04-.46.05-.63.23-.16.12-.27.3-.5.33-1.17.55-2.33,1.11-3.51,1.64-.67.3-1.38.53-2.08.79-.56.21-1.12.43-1.68.64-.05.04-.1.08-.15.12-.04.04-.09.08-.14.11-.04.04-.07.08-.07.14.04.05.08.1.13.14.06.06.1.12.12.19.1.39.46.8-.12,1.11-.52-.14-1.26.26-1.54-.52-.02-.05-.22-.12-.28-.08-.75.42-1.67.18-2.45.61-.78.44-1.69.57-2.66.43-.6-.09-1.36-.3-1.81.45-.12.2-.57.06-.75.32-.04.15-.43.04-.29.22.59.77.15,1.03-.6,1.16-.03.63.48,1.04.77,1.59-.28.03-.49.06-.7.06-.27,0-.53,0-.62.27-.1.28.05.52.29.7.16.13.37.22.51.36.13.13.35.28.1.5-.24.21-.05.36.13.47.42.26.72.61,1.2,1.11-1.08-.24-1.64.59-2.5.59-.5.22-1.07-.05-1.58.16-.19.08-.47.09-.45.34.02.25.36.17.5.31h0c.19.16.49-.01.66.21.55.62,1.37.32,1.7.04.61-.52.65.04.83.23.17.18-.03.54.28.71.12.1.26.1.4.1.18,0,.43-.03.47.15.06.28-.29.21-.44.33-.18.14-.3.29-.03.46.19.12.5.04.61.32-.32.11-.62.03-.93-.04-.41-.09-.73-.09-.5.47.09.23.03.52.04.78-.08.58-.43.11-.65.15-.08-.02-.17-.05-.25-.07-.08-.01-.17-.04-.25-.06-.04-.01-.08-.03-.12-.04-.04-.01-.08-.03-.12-.05-.16-.06-.31-.13-.47-.18-.17-.05-.34-.06-.52-.04-.36.04-.69.18-1.04.24-.55.08-1.11-.06-1.19-.58-.1-.68.58-.48,1.03-.58-.38-.14-.74-.27-1.11-.09-.33.17-.85.25-.83.67.02.39.51.25.79.34.58.19,1.01.63,1.61.77.27.14.77.1.54.61-.21.11-.17.23-.02.35.23.09.46.16.68.26.56.24,1.19.42,1.19,1.17,0,.1.17.19.27.29-.24.24-.53.3-.86.27-.43-.07-.76-.37-1.16-.49-.14-.02-.28-.05-.43-.07-.15-.03-.27-.11-.38-.2-.5-.34-1.22-.3-1.75,0-.8.44-1.66.55-2.55.19-.57.05-.85-.43-1.31-.59-.6-.03-1.18-.04-1.8-.21-.68-.18-1.5.12-2.32.22.26.44.66.63,1.01.63,1.38-.02,2.61.62,3.95.73.36.03.7.14,1.06.18.43.04.62.28.72.62.14.33.35.64.35,1.02-.03.09-.08.17-.14.24-.58.34-1.09.78-1.9.38-.51-.25-1.67.37-1.8.8-.09.32-.02.51.32.61.37.11.74.29,1.12.32.53.04.95.24,1.38.49.41.13.76.38,1.17.5.17.04.26.19.39.28.1.04.21.05.32,0,.08-.03.16-.04.24-.03.19.05.35.14.51.22h0c.1.4-.35.27-.48.43-.04.04-.1.06-.16.04-.31.07-.62.12-.92-.04-.11,0-.22,0-.32-.02-.93-.24-.95-.25-.98.6,0,.27-.05.44-.37.49-.32.05-.42.21-.24.49.13.72-.39.95-.97,1.07-.32.07-.61.11-.79.38-.65.22-1.22.6-1.89.72-.09.42.98.34.36.89-.26.12-.5-.1-.76-.04-.65.13-1.15-.64-1.84-.27-.08.04-.16.07-.24.1-.08.04-.16.08-.23.12-.04.02-.08.04-.11.06-.16.06-.32.14-.5.1h.01c-.38-.35-.9-.01-1.31-.23-.68.24-1.49-.11-2.12.37-.41.28-.89.28-1.37.28-.17,0-.34,0-.51,0-1.03.12-2.01-.18-3.01-.26-.1-.02-.2-.04-.3-.08-.46-.29-.92-.25-1.39,0-.29.06-.53-.03-.71-.24-.07-.05-.14-.09-.22-.11-.17-.01-.32.13-.49.04h0c-.06-.09-.13-.17-.24-.19h0c0-1-.82-.68-1.4-.75-.15-.05-.23-.16-.32-.26h0c-.09-.16-.29-.11-.42-.21l.02-.03c-.07-.39.36-.4.54-.59.33-.19.57-.58,1.06-.49-.88-.22-1.84-.01-2.72-.32-.05-.07-.08-.15-.09-.24,0-.12.05-.23.1-.34.03-.1.04-.2,0-.29-.04-.05-.07-.11-.11-.16-.06-.08-.14-.13-.24-.16-.07,0-.15,0-.22,0-.08,0-.16,0-.24.01-.09,0-.18.01-.27.01-.62-.02-1.13.29-1.66.51-.18.07-.36.12-.53.2-.29.26-.56.55-1,.25l-.23-.17c-.08-.1-.03-.2-.04-.3-.05-.05-.11-.08-.19-.09-.08,0-.16.01-.23.03-.12.04-.2.11-.25.21-.03.07-.07.13-.12.19-.93.31-1.88.16-2.83.15-.24-.21-.46-.3-.65.05-.94.02-1.89-.2-2.8.15-.32.18-.68.14-1.02.13-.38-.01-.27.19-.22.38-.04.15-.16.23-.3.28-.34.1-.69.08-1.04.03-.17-.03-.31-.11-.45-.18,0,0-.07.05-.06.05.06.03.1.06.16.1.06.05.11.1.16.15.1.16.31.32.13.5-.15.14-.36.14-.53-.03-.06-.04-.09-.09-.08-.16-.05-.09-.13-.16-.23-.21h-.09s-.09,0-.09,0c-.15.1-.31.1-.46,0h0c-.08-.08-.2-.12-.31-.16-.15-.04-.3-.05-.43.04-.18.15-.29.41-.59.41-.67-.05-1.33-.21-2-.1-.11.26.2.28.27.43.1.13.14.25.04.4-.44.15-.88.13-1.32.01-1.06,0-1.97.45-2.94.75-.15-.01-.35-.16-.41.11-.03.12-.12.19-.24.22-.22.07-.14.2-.07.33.06.18-.07.27-.21.35-.12.18-.37.38-.51.26-.63-.53-1.4-.21-2.09-.35-.23-.16-.45-.32-.77-.24-.88.24-1.72.11-2.54-.21-.06.06-.12.12-.18.18-.27.26-.58.41-.98.37-.18-.02-.35-.08-.52-.11-.09,0-.17-.02-.26-.03-.13,0-.26-.01-.39-.01-.13,0-.26.02-.38.04-.27.06-.45.25-.7.34-.51.2-1.06.13-1.58.24-.36.03-.73.02-1.09.02-.26,0-.52-.01-.78-.08-.1-.03-.19-.06-.28-.11-.28-.2-.52-.09-.77.08-.3.21-.62.32-.98.14-.03-.03-.06-.06-.1-.09.03.06.04.12,0,.2-.74.66-1.7.32-2.55.46-1.04.18-2.13.07-3.01.49.76.13,1.72-.17,2.54.37.3.41-.16.56-.31.82.15.19.46.28.37.6-.35.46-.85.27-1.15.35.34.06.9-.03,1.36.27.37.26.8.22,1.22.21.18-.01.35-.04.53-.04.27-.01.34-.51.72-.28.11.05.21.11.32.13.17,0,.26-.14.39-.21.26-.06.47.19.73.08.08-.04.16-.07.25-.1.35-.15.73-.16,1.1-.16.28,0,.56,0,.82-.08.09-.03.18-.05.28-.07.29-.05.57-.13.87-.16.51.04,1.01.1,1.52.17.52.2,1.03.03,1.55-.05.19-.04.39-.07.54-.19.06-.11.14.08.06-.03-.07-.1-.15.02-.23,0-.09,0-.18,0-.26-.02-.53-.15-1.06.24-1.58-.02-.09-.05-.16-.12-.22-.2-.13-.27-.29-.55.1-.76.21-.01.39.1.6.11.71.05.62-.29.37-.69-.04-.1-.06-.19-.08-.3.09-1.08.95-.64,1.56-.69,1.76.19,3.53.18,5.3.06.52.18,1.24-.26,1.6.43.38.36.87-.02,1.28.17.44,0,.67-.54,1.17-.39.15-.04.31-.06.46-.03.22.11.57.01.67.34-.02.5-.52.24-.74.42-.65.23-1.39-.02-2.02.37-.28.18-.39.33-.32.62.05.06.09.14.11.21-.03.36.32.25.51.35.25.24.6.21.9.29.09.04.16.09.22.16.07.22-.11.31-.26.42-.64.4-1.29.28-1.93.01-.68.54-1.52.23-2.27.39-.64-.03-1.27-.21-1.91-.03-.76.35-.76.38-1.67.25-.36-.05-.7-.05-1.06-.03-2.69.15-5.37.3-8.06.44-.28.02-.57-.03-.8.21-.13.13-.35.16-.5.07-.58-.33-1.18-.1-1.77-.11-.63-.01-1.27-.06-1.89-.1-.68-.05-1.48.02-2.17.31-.33.14-.69.22-1.05.21-1.3-.04-2.55.3-3.82.47-.56.08-1.12.21-1.68-.04-.15-.07-.38-.08-.53-.03-.86.35-1.76.54-2.68.69-.16.03-.32.11-.24.24.21.31,0,.34-.23.35-.6,0-1.2.21-1.81.11-.06-.04-.09-.09-.07-.13.02-.05.04-.07.06-.07,0-.12,0-.25,0-.37-.28-.32-.64-.13-.96-.13-.17-.04-.34-.09-.51-.11-.12-.03-.23-.08-.33-.14-.06-.05-.11-.1-.15-.16-.07-.17-.13.04-.19.01-.07.02-.14.03-.22.03-.07,0-.13-.04-.18-.09-.05-.04-.08-.09-.1-.14,0-.05,0-.09-.03-.13v.07c.01.06.04.11.08.15.07.08.14.16.12.27-.07.17-.18.26-.38.19-.36-.11-.61-.64-1.11-.26-.05.04-.16.06-.2.03-.95-.56-1.93-.22-2.84.02-1.25.33-2.52.23-3.78.32-.63.05-1.17.22-1.72.45-.42.14-.86.16-1.29.2-.18-.17-.4-.2-.64-.19-.15.12-.3.12-.46,0-.44.14-.86-.1-1.3-.03-.48.18-1.04-.1-1.5.2-.98.04-1.96.14-2.95.05-.5.18-1.06.46-.9-.46.5-.39,1.16-.09,1.68-.36,1.22-.63,2.43-1.29,3.92-.89.1-.08.22-.12.33-.16.05-.04.12-.05.18-.04-.1-.13-.18.04-.27.02-.27.04-.47-.04-.6-.26-.05-.13-.06-.27-.03-.41.2-.43.15-.94.43-1.34.04-.03.1-.04.16-.03,0,0-.08-.04-.08-.04l-.08.03c-.11.03-.21.08-.32.09-.23.03-.46.01-.68-.02-.1-.02-.19-.04-.28-.06-.36-.11-.69.05-1.03.11-.69.09-1.39.05-2.09.05-1.06.03-2.12-.08-3.17.06-.7.2-1.44.27-2.16.43-.68.15-.27.38-.1.61.14.23.33.39.64.36.18-.02.37-.04.55-.03.46.22,1.6-.27,1.11.93-.19.49-.48.78-1.07.47-.14-.03-.27-.04-.41-.05-.19,0-.38-.02-.57-.06-.37-.08-.74-.31-1.1-.01-.09.07-.08.18-.01.27.29.36.68.27,1.07.2.42-.05.84.02,1.26,0,.09,0,.17.02.26.04.12.04.23.08.35.11.12.02.24.03.36.02.17-.02.33-.06.49-.09.05,0,.09,0,.14,0,.1,0,.19.02.28.04.24.06.61.1.59.33-.05.48-.65.04-.85.35h.01c-.14.09-.33.06-.45.19h0c-.1.06-.18.14-.2.26.03.06.01.11-.05.14-.06.07-.13.13-.2.19-.08.05-.15.05-.21-.03-.14-.09-.1-.27-.21-.37h0c-.6-.44-.52.38-.87.41-.17.03-.4.14-.51.08-.93-.57-1.95-.22-2.92-.29-.22-.21-.45.16-.67,0-.64-.07-1.26.35-1.9.03-.17.09-.26,0-.33-.13-.01-.14.03-.26.07-.39.02-.07.03-.14.02-.2-.11.07-.13.18-.19.27-.18.29-.46.42-.81.41.22.18.65-.33.76.2-.22.24-.48.43-.82.38-.49-.08-.8.17-1.13.42-.11.15-.25.26-.44.3-.1.01-.18-.01-.26-.07-1.05-.14-2.09-.33-3.12-.59-.39.18-.76.1-1.13-.04h0c-.09-.08-.21-.11-.3-.2-.09-.09-.2-.15-.31-.21-.19-.14-.34-.3-.41-.51-.04-.18-.02-.36.1-.52.33-.23.63-.06.94.04.26,0,.44-.09.54-.32.06-.16.1-.33.17-.48.1-.19.24-.37.36-.55.05-.07.12-.14.19-.2.27-.19.55-.07.83-.04.1.02.2.05.31.03-.14-.06-.3-.04-.46-.07-.51-.06-1.06-.27-1.34.37-.13.15-.26.28-.45.36-.38.1-.68,0-.89-.31-.03-.07-.05-.14-.05-.2.04-.08.06-.15-.1-.08-.08.01-.15.02-.23.01-1.36-.17-2.71-.29-3.98.37-.2.03-.38-.02-.56-.09-.24-.08-.47-.22-.72-.03-.13.12-.24.25-.42.31-.59-.17-1.02.5-1.62.25-.25-.28-.39-.65-.97-.52-.54.12-1.1-.07-1.63-.24-.41.05-.57.41-.88.59-.42-.12-.84-.35-1.09.28-.14.33-.48.14-.74-.01-.21.34.08.86-.48,1.13-.27-.3-.53-.7-1.09-.52-.08.03-.27-.03-.28-.08-.28-.77-1.06-.65-1.68-.81-.38-.12-.49-.39-.48-.72,0-.09.05-.18.06-.27.02-.16.25-.12.26-.27-.13.03-.25.08-.38.11-.94.12-1.89.14-2.79.45-.15.09-.28.22-.42.31-.06.05-.14,0-.2.05.04.05.1.06.18.03.14,0,.25.04.35.14.04.08.02.15-.06.21l-.07.05-.09-.02c-.17.07-.35.09-.51-.02-.07-.02-.14-.04-.21-.06-.3-.06-.48-.21-.44-.52.04-.09.12-.16.14-.26l-.04-.08s-.08-.05-.08-.05c-.14-.05-.28-.09-.41-.16-.07-.05-.12-.11-.17-.19-.13-.33-.23-.67.04-.99.14-.18.32-.31.53-.41.03-.06.16-.05.14-.16-.05.08-.13.11-.22.16-.67.38-1.22-.28-1.86-.16-.79-.19-1.28.48-1.96.6-.39.07-.81.11-1.17.08-.84-.08-.93.85-1.61.9-.33,0-.61.12-.84.35-.09.04-.18.06-.28.06-.1-.01-.19-.04-.27-.09-.35-.71-1.29-.17-1.72-.72-.19.08.05.14.01.21.01.14-.03.25-.13.35-.13.07-.27.1-.41.11-.72.03-1.45-.03-2.1.33.02.12.1.21.17.31.03.09.01.17-.04.24-.1.08-.22.14-.3.23-.02.07-.04.15-.04.22,0,.17,0,.33-.2.41-.59-.01-1.17-.08-1.74-.17-.44-.19-.99,0-1.39-.34-.07-.11-.06-.23-.12-.34-.11-.03-.23-.01-.34,0-.09,0-.17,0-.26,0-.49-.05-.97.03-1.43.16l-.04.06.09.03c.5.03.98.01,1.46-.09.21,0,.39.04.52.21.04.09.05.18.03.27-.03.08-.08.16-.14.23-.24.26-.53.46-.83.66-.34.11-.64.54-1.04.07-.04-.04-.3.08-.46.13-.23.3-.63-.04-.87.2-.06.04-.12.07-.17.12q-.53.49-1.09-.01c-.08-.07-.15-.14-.27-.1l.02-.02c.08.43-.2.51-.55.45-1.03-.16-1.9.27-2.8.6.05.32.25.4.53.38-.39.65-1.09.05-1.57.34-.32-.02-.43.12-.34.4.13.38-.18.4-.44.47-.45.49-1.01.27-1.54.19-.09-.14-.08-.28-.05-.43.08-.27.24-.49.51-.62.08-.05.16-.09.25-.11l-.08-.04s-.07.03-.08.03c-.19.11-.39.15-.6.17-.1.01-.2.02-.3.02-.41.07-.8-.13-1.21-.07-.51-.14-.95.08-1.37.28-.22.11-.03.26.11.35.12.11.17.23.12.38-.01.43-.58.56-.6.99-.78,0-1.56,0-2.34,0-.79.18-1.53.5-2.3.74-.52.1-1.01.27-1.47.52-.63.35-1.35.22-2.02.38-.24.04-.48.09-.71.17-.85.09-1.44.67-2.13,1.04-.64-.02-1.26,0-1.85.26-.36.15-.76.14-1.15.15-.39.26-.61-.09-.9-.21-.91.24-1.82.46-2.71.73-.2.06-.3-.01-.46-.03-.8-.1-1.61-.35-2.42-.05-.12.08-.21.21-.37.24-.6.04-1.22.28-1.8-.1l-.05.02c-.19-.27.28-.63-.14-.87-.13-.23,0-.35.19-.47.28-.16.13-.32-.04-.46-.15-.19-.33-.37-.2-.63.34-.08.69-.05,1.03-.21.57-.26.69-.45.51-.99-.2-.58-.63-.84-1.18-.7-.27.07-.53.19-.79.28-.43.03-.29-.22-.24-.43.08-.24.39-.41.19-.79-.4.14-.81.29-1.23.44-.56.35-.65-.28-.98-.41-.24-.03-.49,0-.72-.08-.15-.06-.27-.15-.38-.26-.12-.21-.37-.42-.02-.64.04.03.07.03.1,0,.17.07.33.12.48-.03h0c.06-.06.12-.1.21-.12.17,0,.32.05.48.08.08,0,.16.02.24.03.08,0,.16,0,.24,0,.16,0,.32,0,.48,0,.12,0,.24.01.35.04.07.02.13.05.19.09,0,0,.04.07.04.07l.07-.05c.05-.03.08-.08.06-.14-.12-.02-.22-.02-.33-.03-.09,0-.17-.03-.25-.06-.12-.05-.22-.12-.3-.21-.05-.06-.1-.12-.15-.18-.08-.09-.18-.15-.3-.19-.22-.06-.45,0-.67-.04-.14-.05-.23-.14-.25-.29-.03-.21.06-.44-.1-.64h0c-.21-.16,0-.45-.21-.62h0c-.12,0-.19-.09-.24-.17-.21-.17-.41-.34-.71-.58.48-.02.88-.05,1.24-.29.34-.23.76-.12,1.15-.1.72.03.79-.03,1.1-.8-.14-.26.1-.38.22-.54.05-.05.11-.1.16-.15-.16-.25-.3.06-.44,0-.19.05-.39.06-.59.05-.16-.01-.3-.05-.44-.12-.47-.19-.16-.84-.74-1-.73-.2-1.41-.52-1.92.37-.37.64-1.06.02-1.56.22-.4-.21-.77-.49-1.26-.49-.19-.04-.37-.1-.52-.21-.08-.06-.14-.12-.2-.2-.07-.12-.13-.25-.03-.38,1.01-.27,2.01-.55,3.02-.82.34-.18.7-.32,1.08-.45-.31.04-.65.25-.88-.11-.36-.22-.89.36-1.2-.21q.92-.52.57-1.04c-.55-.44-1.13-.3-1.72-.1-.08,0-.16,0-.23-.03,0,0-.06-.08-.06-.08l-.05.08c0,.07-.02.13-.08.18-.73.27-1.25.2-1.86-.25-.07-.05-.18-.19-.25-.05-.4.7-1.54.26-1.88,1.05-.61-.3-.83.61-1.41.4-.14-.07-.14-.12.02-.16.03-.06.11-.14.09-.16-.42-.51-.18-.72.4-.8.23-.03.38-.18.47-.37.06-.12.04-.26-.13-.32-.31-.18-.67-.28-.89-.57-.12-.06-.27-.2-.37-.18-.88.2-1.79-.17-2.65.12-.41.24-.52,0-.5-.3.02-.34.17-.65.41-.89l.05-.05-.07-.05c-.17.06-.31.23-.52.12-.07-.06-.15-.12-.22-.18-.46-.35-1.09.11-1.54-.28-.04-.16.04-.29.15-.4.71-.5,1.74-.42,2.33-1.14.07-.2.22-.36.3-.56.02-.08.05-.16.08-.24.05-.13.12-.24.26-.3.24-.08.47-.1.7.02.08.05.14.11.19.17.06.02-.06.13.07.13-.03-.12-.13-.2-.22-.27-.56-.29-.93-.03-1.25.37-.16.17-.34.32-.52.47-.49.38-1.38.06-1.63.84-.14.12-.32.18-.49.25-.08.04-.17.06-.26.09-.22.06-.42.16-.62.28-.83.62-1.67-.01-2.5.02-.55-.4-1.2-.02-1.78-.21-.26-.2-.52-.4-.89-.44.22-.53.71-.51,1.06-.69.38-.44.8-.84,1.39-1.03.25-.21-.02-.36-.08-.53,0-.1.02-.18.09-.25.23-.14.49-.15.71-.05.42.19.45-.15.6-.34.15-.13.33-.19.53-.23.15,0,.27.08.39.15.08.04.16.08.25.11.3.11.61.14.93.09.92.08,1.67-.02,1.29-1.22-.53.02-.94.32-1.31.68-.24.24-.47.52-.9.41-.14-.05-.27-.11-.38-.19-.18-.15-.32-.55-.59-.07-.19,0-.38-.02-.57-.03-.54.05-.85-.28-1.15-.62-.04,0-.08-.02-.12-.03-.09,0-.17-.02-.26-.03-.13-.03-.25-.08-.28-.22-.22-.34.1-.41.31-.44.99-.17,1.66-.86,2.47-1.32.56-.89-.59-.27-.64-.63,0-.05.01-.1.02-.15.04-.07.09-.13.16-.17.07-.02.12-.05.14-.06,0,0-.03-.01-.09-.01-.18-.02-.34-.08-.5-.03-.74-.02-1.44-.26-2.21-.17-.56.06-1.07.18-1.61.33-.83.23-1.73.18-2.6.1-.33.16-.7.04-1.04.09-.16.02-.38.01-.24.27.1.04.2.12.17.21-.07.2-.3.11-.46.17-.36.13-.39-.43-.69-.31-.22.09-.32.3-.67.32-1.29.08-2.4-.48-3.58-.8-.23-.06-.45-.26-.37-.53.07-.21.33-.23.54-.24.14,0,.29,0,.43,0,.28,0,.52-.13.61-.34.11-.26-.12-.41-.37-.51-.31-.12-.29-.34-.15-.57.11-.43-.53-.73-.23-1.19.19-.23.59-.28.61-.74-.75-.19-1.45.01-2.13.32-.95.12-1.89-.33-2.85-.03-.14.03-.28.06-.42.1-.71.2-1.68.18-2.46-.06-.56-.17-1.14-.3-1.74-.29.06-.51.62-.53.76-.96-.64-.31-1.35-.28-1.89.02-1.32.73-2.37.31-3.43-.46.31-.46.77-.39,1.16-.29.49.13.75-.06.95-.42.36-.19.73-.39.45-.87.02-.33.27-.44.56-.52.31-.08.61-.18.92-.27.79-.27,1.58.05,2.39,0,.63-.03.46-.41.68-.57.58-.25,1.23-.17,1.85-.3.82-.18,1.55-.41,2.26-.82.38-.21.7-.57,1.21-.57.1,0,.22-.12.27-.27.23-.62.44-.7,1.09-.45.7.27.74.28,1-.41.11-.29.41-.34.55-.55-.05-.06-.12-.16-.12-.16-.84.46-1.54-.09-2.29-.26-.17.08-.32.07-.46-.05-.42-.35-.8-.48-1.41-.22-.68.29-1.52.06-2.27.28-.11.03-.29-.04-.4-.11-1.31-.8-2.7-.58-4.09-.27-.37.08-.67.28-.46.72-.16.55-.56.28-.89.23Z"/>
  <rect width="300" height="200" style="fill: none;"/>
</svg>