<?xml version="1.0" encoding="utf-8"?>
<!-- Generator: Adobe Illustrator 21.0.0, SVG Export Plug-In . SVG Version: 6.00 Build 0)  -->
<svg version="1.1" id="Layer_1" xmlns="http://www.w3.org/2000/svg" xmlns:xlink="http://www.w3.org/1999/xlink" x="0px" y="0px"
	 viewBox="0 0 264 88" style="enable-background:new 0 0 264 88;" xml:space="preserve">
<style type="text/css">
	.st0{opacity:0;fill:#FFFFFF;}
	.st1{fill:#020202;}
	.st2{fill:none;stroke:#000000;stroke-width:1.5;}
</style>
<rect class="st0" width="264" height="88"/>
<title>default-skin 2</title>
<g>
	<path id="Shape" d="M67,59.5v3.8c-6.3,0.8-9.2,5.8-10,9.7c2.2-2.8,5.6-5.1,10-5.1v3.6l6-5.9L67,59.5z"/>
	<g>
		<path id="Shape_1_" class="st1" d="M13,29v-5h2v3h3v2H13z M13,15h5v2h-3v3h-2V15z M31,15v5h-2v-3h-3v-2H31z M31,29h-5v-2h3v-3h2
			V29z"/>
	</g>
	<g>
		<path class="st1" d="M62,24v5h-2v-3h-3v-2H62z M62,20h-5v-2h3v-3h2V20z M70,20v-5h2v3h3v2H70z M70,24h5v2h-3v3h-2V24z"/>
	</g>
	<path d="M20.6,66l-5.7-5.7l1.4-1.4l5.7,5.7l5.7-5.7l1.4,1.4L23.4,66l5.7,5.7l-1.4,1.4L22,67.4l-5.7,5.7l-1.4-1.4L20.6,66z"/>
	<path d="M111.8,65l-1.8-1.5l3-3.5h-10v-2h10l-3-3.5l1.8-1.5l5.2,6L111.8,65z"/>
	<path d="M152.2,65l1.8-1.5l-3-3.5h10v-2h-10l3-3.5l-1.8-1.5l-5.2,6L152.2,65z"/>
	<path id="Rectangle-11" d="M161,28.5l-3.3-3.3l-1.4,1.4l3.3,3.3L161,28.5z"/>
	<path id="Oval-1" class="st2" d="M152.5,27c3,0,5.5-2.5,5.5-5.5s-2.5-5.5-5.5-5.5s-5.5,2.5-5.5,5.5S149.5,27,152.5,27z"/>
	<path d="M150,21h5v1h-5V21z"/>
	<path d="M117,28.5l-1.4,1.4l-3.3-3.3l1.4-1.4L117,28.5z"/>
	<path class="st2" d="M108.5,27c3,0,5.5-2.5,5.5-5.5s-2.5-5.5-5.5-5.5s-5.5,2.5-5.5,5.5S105.5,27,108.5,27z"/>
	<path d="M106,21h5v1h-5V21z"/>
	<path d="M109,19l-0.1,5l-1,0l0.1-5L109,19z"/>
</g>
</svg>
