<?xml version="1.0" encoding="UTF-8"?>
<svg width="512px" height="512px" viewBox="0 0 512 512" version="1.1" xmlns="http://www.w3.org/2000/svg" xmlns:xlink="http://www.w3.org/1999/xlink">
    <!-- Generator: Sketch 55.2 (78181) - https://sketchapp.com -->
    <title>FAVICON</title>
    <desc>Created with Sketch.</desc>
    <g id="Page-1" stroke="none" stroke-width="1" fill="none" fill-rule="evenodd">
        <g id="FAVICON" fill="#FFFFFF" fill-rule="nonzero">
            <path d="M256,512 C114.6,512 0,397.4 0,256 C0,114.6 114.6,0 256,0 C397.4,0 512,114.6 512,256 C512,397.4 397.4,512 256,512 Z M243.9,167.8 L243.9,323.3 L283.4,323.3 L283.4,167.8 L243.9,167.8 Z M452.7,207.4 C439.4,183.8 414,167.9 385,167.9 C371.1,167.9 358.1,171.5 346.8,177.9 C334.5,184.9 324.3,195.1 317.3,207.4 C310.9,218.7 307.3,231.7 307.3,245.6 C307.3,259.5 310.9,272.5 317.3,283.8 C324.3,296.1 334.5,306.3 346.8,313.3 C358.1,319.7 371.1,323.3 385,323.3 C414,323.3 439.4,307.4 452.7,283.8 C459.1,272.5 462.7,259.5 462.7,245.6 C462.7,231.7 459.1,218.6 452.7,207.4 Z M385,283.8 C363.9,283.8 346.8,266.7 346.8,245.6 C346.8,224.5 363.9,207.4 385,207.4 C406.1,207.4 423.2,224.5 423.2,245.6 C423.2,266.7 406.1,283.8 385,283.8 Z M209.7,207.4 C196.4,183.8 171,167.9 142,167.9 C128.1,167.9 115.1,171.5 103.8,177.9 C91.5,184.9 81.3,195.1 74.3,207.4 C67.9,218.7 64.3,231.7 64.3,245.6 L64.3,362.9 L103.8,362.9 L103.8,313.3 C115.1,319.7 128.1,323.3 142,323.3 C171,323.3 196.4,307.4 209.7,283.8 C216.1,272.5 219.7,259.5 219.7,245.6 C219.8,231.7 216.1,218.6 209.7,207.4 Z M142,283.8 C120.9,283.8 103.8,266.7 103.8,245.6 C103.8,224.5 120.9,207.4 142,207.4 C163.1,207.4 180.2,224.5 180.2,245.6 C180.2,266.7 163.1,283.8 142,283.8 Z" id="Combined-Shape"></path>
        </g>
    </g>
</svg>