<svg xmlns="http://www.w3.org/2000/svg" xmlns:xlink="http://www.w3.org/1999/xlink" width="1000" height="700" viewBox="0 0 1000 700">
  <defs>
    <clipPath id="clip-path">
      <circle id="Ellipse_299" data-name="Ellipse 299" cx="31" cy="31" r="31" fill="#d5d5d5"/>
    </clipPath>
    <clipPath id="clip-Social_Feed_-_Style_2-A">
      <rect width="1000" height="700"/>
    </clipPath>
  </defs>
  <g id="Social_Feed_-_Style_2-A" data-name="Social Feed - Style 2-A" clip-path="url(#clip-Social_Feed_-_Style_2-A)">
    <rect width="1000" height="700" fill="#fcfcff"/>
    <rect id="Rectangle_632" data-name="Rectangle 632" width="530" height="575" rx="5" transform="translate(234 63)" fill="#f2f2f2"/>
    <line id="Line_1" data-name="Line 1" x2="449.05" transform="translate(264 218.201)" fill="none" stroke="#888" stroke-width="8"/>
    <line id="Line_2" data-name="Line 2" x2="471" transform="translate(264 252.893)" fill="none" stroke="#d5d5d5" stroke-width="8"/>
    <line id="Line_118" data-name="Line 118" x2="455.5" transform="translate(264 287.893)" fill="none" stroke="#d5d5d5" stroke-width="8"/>
    <line id="Line_6" data-name="Line 6" x2="200.162" transform="translate(338.337 137)" fill="none" stroke="#d5d5d5" stroke-width="12"/>
    <line id="Line_8" data-name="Line 8" x2="229.768" transform="translate(336.728 110.671)" fill="none" stroke="#888" stroke-width="15"/>
    <rect id="Rectangle_631" data-name="Rectangle 631" width="530" height="250" transform="translate(234 325)" fill="#d5d5d5"/>
    <path id="image" d="M86.546,135.624H8.953A8.953,8.953,0,0,1,0,126.671V72.953A8.953,8.953,0,0,1,8.953,64H86.546A8.953,8.953,0,0,1,95.5,72.953v53.718A8.953,8.953,0,0,1,86.546,135.624ZM20.89,74.445A10.445,10.445,0,1,0,31.336,84.89,10.445,10.445,0,0,0,20.89,74.445Zm-8.953,49.242H83.562V102.8L67.238,86.473a2.238,2.238,0,0,0-3.165,0L38.8,111.75,28.442,101.395a2.238,2.238,0,0,0-3.165,0L11.937,114.734Z" transform="translate(452 350.625)" fill="#888" opacity="0.207"/>
    <g id="Mask_Group_1" data-name="Mask Group 1" transform="translate(264 93)" clip-path="url(#clip-path)">
      <path id="user-circle" d="M30.893,1.548A30.893,30.893,0,1,0,61.786,32.442,30.888,30.888,0,0,0,30.893,1.548Zm0,11.959A10.962,10.962,0,1,1,19.931,24.469,10.962,10.962,0,0,1,30.893,13.507Zm0,42.852a23.871,23.871,0,0,1-18.249-8.5,13.889,13.889,0,0,1,12.27-7.449,3.048,3.048,0,0,1,.884.137,16.493,16.493,0,0,0,5.095.86,16.431,16.431,0,0,0,5.095-.86,3.048,3.048,0,0,1,.884-.137,13.889,13.889,0,0,1,12.27,7.449A23.871,23.871,0,0,1,30.893,56.359Z" transform="translate(0 -1.549)" fill="#888"/>
    </g>
    <line id="Line_117" data-name="Line 117" x2="531" transform="translate(234.5 182.5)" fill="none" stroke="#888" stroke-width="1" opacity="0.492"/>
    <path id="thumbs-up" d="M20.445,12.571a4.146,4.146,0,0,0,.6-2.185,3.816,3.816,0,0,0-3.763-3.753h-1.6a5.6,5.6,0,0,0,.388-2.041C16.073,1.4,14.42,0,11.9,0c-2.7,0-2.547,4.163-3.147,4.762-1,1-2.176,2.914-3.015,3.657H1.4A1.4,1.4,0,0,0,0,9.822V20.346a1.4,1.4,0,0,0,1.4,1.4H4.209A1.4,1.4,0,0,0,5.568,20.7c1.952.044,3.291,1.751,7.8,1.751h.974c3.381,0,4.91-1.729,4.952-4.18a4.228,4.228,0,0,0,.76-2.937A4.072,4.072,0,0,0,20.445,12.571Zm-2.708,2.36a1.947,1.947,0,0,1-.611,2.524c.338,2.139-.772,2.89-2.329,2.89H13.139c-3.141,0-5.175-1.658-7.526-1.658V10.524h.479c1.244,0,2.981-3.108,4.145-4.273C11.48,5.007,11.066,2.934,11.9,2.1c2.073,0,2.073,1.446,2.073,2.488,0,1.718-1.244,2.487-1.244,4.145h4.56A1.713,1.713,0,0,1,18.943,10.4c0,.829-.562,1.658-.977,1.658A2.107,2.107,0,0,1,17.738,14.931ZM3.859,18.943A1.052,1.052,0,1,1,2.806,17.89,1.052,1.052,0,0,1,3.859,18.943Z" transform="translate(264 595)" fill="#888"/>
    <path id="share" d="M24.641,8.334,16.923.619A2.106,2.106,0,0,0,13.33,2.107V5.646C7.281,5.828,0,7,0,14.473A9.01,9.01,0,0,0,4.281,22.1a2.106,2.106,0,0,0,3.166-2.388C6.379,16.306,6.9,14.479,13.33,14.1v3.433a2.106,2.106,0,0,0,3.593,1.488l7.717-7.715A2.1,2.1,0,0,0,24.641,8.334ZM15.435,17.54V11.931c-7.214.078-12.166,1.483-10,8.4A6.937,6.937,0,0,1,2.1,14.473c0-6.237,7.052-6.726,13.33-6.754V2.1l7.718,7.718Z" transform="translate(486 595)" fill="#888"/>
    <path id="comment-alt" d="M19.645,0H2.806A2.809,2.809,0,0,0,0,2.806V15.435a2.809,2.809,0,0,0,2.806,2.806h4.21v3.683a.525.525,0,0,0,.526.526.5.5,0,0,0,.311-.105l5.477-4.1h6.314a2.809,2.809,0,0,0,2.806-2.806V2.806A2.809,2.809,0,0,0,19.645,0Zm.7,15.435a.7.7,0,0,1-.7.7H12.629l-.561.421-2.947,2.21V16.137H2.806a.7.7,0,0,1-.7-.7V2.806a.7.7,0,0,1,.7-.7H19.645a.7.7,0,0,1,.7.7Z" transform="translate(713 595)" fill="#888"/>
    <path id="facebook-f" d="M36.442,15.231l.752-4.9h-4.7V7.151A2.45,2.45,0,0,1,35.255,4.5h2.138V.331A26.069,26.069,0,0,0,33.6,0c-3.872,0-6.4,2.347-6.4,6.6v3.735h-4.3v4.9h4.3V27.078h5.3V15.231Z" transform="translate(697.11 101.922)" fill="#888"/>
  </g>
</svg>
