<svg xmlns="http://www.w3.org/2000/svg" xmlns:xlink="http://www.w3.org/1999/xlink" width="1000" height="700" viewBox="0 0 1000 700">
  <defs>
    <clipPath id="clip-path">
      <ellipse id="Ellipse_300" data-name="Ellipse 300" cx="23" cy="23.5" rx="23" ry="23.5" transform="translate(0.358 0.246)" fill="#d5d5d5"/>
    </clipPath>
    <clipPath id="clip-Social_Feed_-_Style_3">
      <rect width="1000" height="700"/>
    </clipPath>
  </defs>
  <g id="Social_Feed_-_Style_3" data-name="Social Feed - Style 3" clip-path="url(#clip-Social_Feed_-_Style_3)">
    <rect width="1000" height="700" fill="#fcfcff"/>
    <path id="Rectangle_633" data-name="Rectangle 633" d="M5,0H400a0,0,0,0,1,0,0V253a0,0,0,0,1,0,0H5a5,5,0,0,1-5-5V5A5,5,0,0,1,5,0Z" transform="translate(100 224)" fill="#f2f2f2"/>
    <line id="Line_120" data-name="Line 120" x2="335.092" transform="translate(122.642 261.887)" fill="none" stroke="#d5d5d5" stroke-width="8"/>
    <line id="Line_121" data-name="Line 121" x2="351.472" transform="translate(122.642 288.07)" fill="none" stroke="#d5d5d5" stroke-width="8"/>
    <line id="Line_122" data-name="Line 122" x2="351.472" transform="translate(122.642 314.484)" fill="none" stroke="#d5d5d5" stroke-width="8"/>
    <line id="Line_124" data-name="Line 124" x2="151.066" transform="translate(178.745 380.962)" fill="none" stroke="#d5d5d5" stroke-width="10"/>
    <line id="Line_123" data-name="Line 123" x2="173.41" transform="translate(177.53 361.091)" fill="none" stroke="#888" stroke-width="10"/>
    <path id="Rectangle_634" data-name="Rectangle 634" d="M0,0H395a5,5,0,0,1,5,5V248a5,5,0,0,1-5,5H0a0,0,0,0,1,0,0V0A0,0,0,0,1,0,0Z" transform="translate(500 224)" fill="#d5d5d5"/>
    <path id="image" d="M65.318,118.056H6.757A6.757,6.757,0,0,1,0,111.3V70.757A6.757,6.757,0,0,1,6.757,64H65.318a6.757,6.757,0,0,1,6.757,6.757V111.3A6.757,6.757,0,0,1,65.318,118.056ZM15.766,71.883a7.883,7.883,0,1,0,7.883,7.883A7.883,7.883,0,0,0,15.766,71.883ZM9.009,109.047H63.065V93.28l-12.32-12.32a1.689,1.689,0,0,0-2.389,0L29.28,100.037l-7.815-7.815a1.689,1.689,0,0,0-2.389,0L9.009,102.29Z" transform="translate(663.774 259.623)" fill="#888" opacity="0.207"/>
    <g id="Mask_Group_2" data-name="Mask Group 2" transform="translate(122.642 344.755)" clip-path="url(#clip-path)">
      <path id="user-circle" d="M23.316,1.548A23.316,23.316,0,1,0,46.631,24.864,23.312,23.312,0,0,0,23.316,1.548Zm0,9.025a8.273,8.273,0,1,1-8.273,8.273A8.273,8.273,0,0,1,23.316,10.574Zm0,32.341A18.016,18.016,0,0,1,9.542,36.5a10.482,10.482,0,0,1,9.26-5.622,2.3,2.3,0,0,1,.668.1,12.448,12.448,0,0,0,3.845.649,12.4,12.4,0,0,0,3.845-.649,2.3,2.3,0,0,1,.668-.1,10.482,10.482,0,0,1,9.26,5.622A18.016,18.016,0,0,1,23.316,42.915Z" transform="translate(0 -1.549)" fill="#888"/>
    </g>
    <line id="Line_125" data-name="Line 125" x2="400.755" transform="translate(100.377 413.811)" fill="none" stroke="#888" stroke-width="1" opacity="0.492"/>
    <path id="thumbs-up" d="M15.43,9.488a3.129,3.129,0,0,0,.454-1.649,2.88,2.88,0,0,0-2.84-2.832H11.837a4.225,4.225,0,0,0,.293-1.54C12.13,1.057,10.883,0,8.978,0,6.939,0,7.055,3.142,6.6,3.594c-.753.753-1.642,2.2-2.275,2.76H1.059A1.059,1.059,0,0,0,0,7.413v7.942a1.059,1.059,0,0,0,1.059,1.059H3.177A1.059,1.059,0,0,0,4.2,15.622c1.473.033,2.484,1.322,5.884,1.322h.735c2.552,0,3.706-1.3,3.738-3.155a3.191,3.191,0,0,0,.574-2.217A3.074,3.074,0,0,0,15.43,9.488Zm-2.044,1.781a1.469,1.469,0,0,1-.461,1.905c.255,1.614-.583,2.181-1.758,2.181H9.916c-2.371,0-3.906-1.252-5.68-1.252V7.942H4.6c.939,0,2.25-2.346,3.129-3.225.939-.939.626-2.5,1.252-3.129,1.564,0,1.564,1.091,1.564,1.877,0,1.3-.939,1.877-.939,3.129h3.441A1.292,1.292,0,0,1,14.3,7.846c0,.625-.424,1.251-.737,1.251A1.59,1.59,0,0,1,13.387,11.269ZM2.912,14.3a.794.794,0,1,1-.794-.794A.794.794,0,0,1,2.912,14.3Z" transform="translate(122.642 434.566)" fill="#888"/>
    <path id="share" d="M18.6,6.29,12.772.467A1.59,1.59,0,0,0,10.061,1.59V4.261C5.495,4.4,0,5.285,0,10.923A6.8,6.8,0,0,0,3.231,16.68a1.59,1.59,0,0,0,2.389-1.8c-.806-2.571-.411-3.949,4.441-4.232v2.591a1.59,1.59,0,0,0,2.712,1.123L18.6,8.536A1.588,1.588,0,0,0,18.6,6.29Zm-6.948,6.948V9C6.2,9.064,2.468,10.124,4.1,15.346a5.236,5.236,0,0,1-2.516-4.423c0-4.707,5.322-5.076,10.061-5.1V1.589l5.825,5.825Z" transform="translate(165.838 434.566)" fill="#888"/>
    <path id="comment-alt" d="M14.826,0H2.118A2.12,2.12,0,0,0,0,2.118v9.531a2.12,2.12,0,0,0,2.118,2.118H5.3v2.78a.4.4,0,0,0,.4.4.38.38,0,0,0,.235-.079l4.133-3.1h4.766a2.12,2.12,0,0,0,2.118-2.118V2.118A2.12,2.12,0,0,0,14.826,0Zm.53,11.649a.531.531,0,0,1-.53.53h-5.3l-.424.318L6.884,14.164V12.179H2.118a.531.531,0,0,1-.53-.53V2.118a.531.531,0,0,1,.53-.53H14.826a.531.531,0,0,1,.53.53Z" transform="translate(212.274 434.566)" fill="#888"/>
    <path id="facebook-f" d="M33.118,11.5l.568-3.7H30.137V5.4a1.849,1.849,0,0,1,2.085-2h1.613V.25A19.674,19.674,0,0,0,30.972,0c-2.923,0-4.833,1.771-4.833,4.978V7.8H22.89v3.7h3.249v8.941h4V11.5Z" transform="translate(440.278 351.488)" fill="#888"/>
  </g>
</svg>
