<svg xmlns="http://www.w3.org/2000/svg" xmlns:xlink="http://www.w3.org/1999/xlink" width="1000" height="700" viewBox="0 0 1000 700">
  <defs>
    <clipPath id="clip-path">
      <circle id="Ellipse_301" data-name="Ellipse 301" cx="31" cy="31" r="31" fill="#fff"/>
    </clipPath>
    <clipPath id="clip-Social_Feed_-_Style_4">
      <rect width="1000" height="700"/>
    </clipPath>
  </defs>
  <g id="Social_Feed_-_Style_4" data-name="Social Feed - Style 4" clip-path="url(#clip-Social_Feed_-_Style_4)">
    <rect width="1000" height="700" fill="#fcfcff"/>
    <rect id="Rectangle_635" data-name="Rectangle 635" width="530" height="575" rx="5" transform="translate(234 63)" fill="#d5d5d5"/>
    <path id="image" d="M162.173,198.212H16.776A16.776,16.776,0,0,1,0,181.435V80.776A16.776,16.776,0,0,1,16.776,64h145.4a16.776,16.776,0,0,1,16.776,16.776V181.435A16.776,16.776,0,0,1,162.173,198.212ZM39.145,83.573a19.573,19.573,0,1,0,19.573,19.573A19.573,19.573,0,0,0,39.145,83.573ZM22.369,175.843H156.581V136.7l-30.587-30.587a4.194,4.194,0,0,0-5.932,0L72.7,153.475l-19.4-19.4a4.194,4.194,0,0,0-5.932,0l-24.995,25Z" transform="translate(411 210.625)" fill="#888" opacity="0.514"/>
    <path id="facebook-f" d="M36.442,15.231l.752-4.9h-4.7V7.151A2.45,2.45,0,0,1,35.255,4.5h2.138V.331A26.069,26.069,0,0,0,33.6,0c-3.872,0-6.4,2.347-6.4,6.6v3.735h-4.3v4.9h4.3V27.078h5.3V15.231Z" transform="translate(697.607 102.922)" fill="#fff"/>
    <path id="Rectangle_636" data-name="Rectangle 636" d="M5,0H525a5,5,0,0,1,5,5V575a0,0,0,0,1,0,0H0a0,0,0,0,1,0,0V5A5,5,0,0,1,5,0Z" transform="translate(234 63)" fill="#888" opacity="0.346"/>
    <line id="Line_126" data-name="Line 126" x2="449.05" transform="translate(264 224.201)" fill="none" stroke="#f2f2f2" stroke-width="8"/>
    <line id="Line_127" data-name="Line 127" x2="471" transform="translate(264 258.893)" fill="none" stroke="#f2f2f2" stroke-width="8"/>
    <line id="Line_128" data-name="Line 128" x2="471" transform="translate(264 293.893)" fill="none" stroke="#f2f2f2" stroke-width="8"/>
    <line id="Line_130" data-name="Line 130" x2="200.162" transform="translate(338.337 378)" fill="none" stroke="#f2f2f2" stroke-width="9"/>
    <line id="Line_129" data-name="Line 129" x2="229.768" transform="translate(336.728 351.67)" fill="none" stroke="#fff" stroke-width="15"/>
    <g id="Mask_Group_3" data-name="Mask Group 3" transform="translate(264 334)" clip-path="url(#clip-path)">
      <path id="user-circle" d="M30.893,1.548A30.893,30.893,0,1,0,61.786,32.442,30.888,30.888,0,0,0,30.893,1.548Zm0,11.959A10.962,10.962,0,1,1,19.931,24.469,10.962,10.962,0,0,1,30.893,13.507Zm0,42.852a23.871,23.871,0,0,1-18.249-8.5,13.889,13.889,0,0,1,12.27-7.449,3.048,3.048,0,0,1,.884.137,16.493,16.493,0,0,0,5.095.86,16.431,16.431,0,0,0,5.095-.86,3.048,3.048,0,0,1,.884-.137,13.889,13.889,0,0,1,12.27,7.449A23.871,23.871,0,0,1,30.893,56.359Z" transform="translate(0 -1.549)" fill="#fff"/>
    </g>
    <line id="Line_131" data-name="Line 131" x2="531" transform="translate(234.5 425.5)" fill="none" stroke="#f2f2f2" stroke-width="1" opacity="0.492"/>
    <path id="thumbs-up" d="M20.445,12.571a4.146,4.146,0,0,0,.6-2.185,3.816,3.816,0,0,0-3.763-3.753h-1.6a5.6,5.6,0,0,0,.388-2.041C16.073,1.4,14.42,0,11.9,0c-2.7,0-2.547,4.163-3.147,4.762-1,1-2.176,2.914-3.015,3.657H1.4A1.4,1.4,0,0,0,0,9.822V20.346a1.4,1.4,0,0,0,1.4,1.4H4.209A1.4,1.4,0,0,0,5.568,20.7c1.952.044,3.291,1.751,7.8,1.751h.974c3.381,0,4.91-1.729,4.952-4.18a4.228,4.228,0,0,0,.76-2.937A4.072,4.072,0,0,0,20.445,12.571Zm-2.708,2.36a1.947,1.947,0,0,1-.611,2.524c.338,2.139-.772,2.89-2.329,2.89H13.139c-3.141,0-5.175-1.658-7.526-1.658V10.524h.479c1.244,0,2.981-3.108,4.145-4.273C11.48,5.007,11.066,2.934,11.9,2.1c2.073,0,2.073,1.446,2.073,2.488,0,1.718-1.244,2.487-1.244,4.145h4.56A1.713,1.713,0,0,1,18.943,10.4c0,.829-.562,1.658-.977,1.658A2.107,2.107,0,0,1,17.738,14.931ZM3.859,18.943A1.052,1.052,0,1,1,2.806,17.89,1.052,1.052,0,0,1,3.859,18.943Z" transform="translate(264 453)" fill="#fff"/>
    <path id="share" d="M24.641,8.334,16.923.619A2.106,2.106,0,0,0,13.33,2.107V5.646C7.281,5.828,0,7,0,14.473A9.01,9.01,0,0,0,4.281,22.1a2.106,2.106,0,0,0,3.166-2.388C6.379,16.306,6.9,14.479,13.33,14.1v3.433a2.106,2.106,0,0,0,3.593,1.488l7.717-7.715A2.1,2.1,0,0,0,24.641,8.334ZM15.435,17.54V11.931c-7.214.078-12.166,1.483-10,8.4A6.937,6.937,0,0,1,2.1,14.473c0-6.237,7.052-6.726,13.33-6.754V2.1l7.718,7.718Z" transform="translate(321.235 453)" fill="#fff"/>
    <path id="comment-alt" d="M19.645,0H2.806A2.809,2.809,0,0,0,0,2.806V15.435a2.809,2.809,0,0,0,2.806,2.806h4.21v3.683a.525.525,0,0,0,.526.526.5.5,0,0,0,.311-.105l5.477-4.1h6.314a2.809,2.809,0,0,0,2.806-2.806V2.806A2.809,2.809,0,0,0,19.645,0Zm.7,15.435a.7.7,0,0,1-.7.7H12.629l-.561.421-2.947,2.21V16.137H2.806a.7.7,0,0,1-.7-.7V2.806a.7.7,0,0,1,.7-.7H19.645a.7.7,0,0,1,.7.7Z" transform="translate(382.763 453)" fill="#fff"/>
  </g>
</svg>
