<svg xmlns="http://www.w3.org/2000/svg" width="33" height="29" viewBox="0 0 32.129 28.566"><g fill="none" stroke="#293f54" stroke-width=".567" stroke-miterlimit="10"><path d="M31.846 27.283a1 1 0 0 1-1 1H1.283a1 1 0 0 1-1-1v-26a1 1 0 0 1 1-1h29.563a1 1 0 0 1 1 1v26z"/><path d="M.096 7.22h31.687"/></g><g fill="#00b1cc"><circle cx="2.846" cy="3.846" r=".813"/><circle cx="6.846" cy="3.846" r=".813"/><circle cx="10.846" cy="3.846" r=".813"/></g><g fill="#293f54"><circle cx="16.221" cy="3.846" r=".5"/><circle cx="18.746" cy="3.846" r=".5"/><circle cx="21.271" cy="3.846" r=".5"/><circle cx="23.797" cy="3.846" r=".5"/><circle cx="26.321" cy="3.846" r=".5"/><circle cx="28.846" cy="3.846" r=".5"/></g><circle fill="#00b1cc" cx="9.201" cy="11.434" r="1.015"/><g fill="#ffc500"><circle cx="13.91" cy="13.039" r="1.015"/><circle cx="12.673" cy="10.164" r="1.015"/></g><circle fill="#00b1cc" cx="17.464" cy="9.914" r="1.015"/><g fill="#ffc500"><circle cx="17.735" cy="12.815" r="1.015"/><circle cx="14.925" cy="25.19" r="1.015"/></g><g fill="#00b1cc"><circle cx="22.786" cy="10.419" r="1.015"/><circle cx="21.577" cy="12.815" r="1.015"/></g><g fill="#ffc500"><circle cx="16.721" cy="26.897" r=".692"/><circle cx="17.464" cy="25.19" r=".692"/><circle cx="12.351" cy="26.575" r=".692"/><circle cx="14.925" cy="8.457" r=".692"/><circle cx="10.846" cy="13.731" r=".692"/></g><g fill="#00b1cc"><circle cx="4.632" cy="10.164" r=".692"/><circle cx="15.247" cy="11.111" r=".692"/><circle cx="9.711" cy="8.899" r=".692"/></g><g fill="#ffc500"><circle cx="6.966" cy="9.842" r=".692"/><circle cx="21.079" cy="8.457" r=".692"/><circle cx="19.938" cy="10.534" r=".692"/><circle cx="26.138" cy="9.592" r=".692"/><circle cx="19.246" cy="26.575" r=".692"/></g><path fill="#293f54" d="M10.403 15.285H21.77l-5.05 4v3.423h-1.63v-3.333z"/></svg>