<?xml version="1.0" encoding="utf-8"?>
<!-- Generator: Adobe Illustrator 16.0.0, SVG Export Plug-In . SVG Version: 6.00 Build 0)  -->
<!DOCTYPE svg PUBLIC "-//W3C//DTD SVG 1.1//EN" "http://www.w3.org/Graphics/SVG/1.1/DTD/svg11.dtd">
<svg version="1.1" xmlns="http://www.w3.org/2000/svg" xmlns:xlink="http://www.w3.org/1999/xlink" x="0px" y="0px" width="32.13px"
	 height="28.567px" viewBox="0 0 32.13 28.567" enable-background="new 0 0 32.13 28.567" xml:space="preserve">
<g id="Layer_1">
	<g>
		<g>
			<path fill="none" stroke="#293F54" stroke-width="0.5669" stroke-miterlimit="10" d="M31.846,27.284c0,0.552-0.448,1-1,1H1.284
				c-0.552,0-1-0.448-1-1v-26c0-0.552,0.448-1,1-1h29.563c0.552,0,1,0.448,1,1V27.284z"/>
			
				<line fill="none" stroke="#293F54" stroke-width="0.5669" stroke-miterlimit="10" x1="0.096" y1="7.221" x2="31.784" y2="7.221"/>
			<circle fill="#00B1CC" cx="2.846" cy="3.846" r="0.813"/>
			<circle fill="#00B1CC" cx="6.846" cy="3.846" r="0.813"/>
			<circle fill="#00B1CC" cx="10.846" cy="3.846" r="0.813"/>
			<circle fill="#293F54" cx="16.221" cy="3.846" r="0.5"/>
			<circle fill="#293F54" cx="18.746" cy="3.846" r="0.5"/>
			<circle fill="#293F54" cx="21.271" cy="3.846" r="0.5"/>
			<circle fill="#293F54" cx="23.796" cy="3.846" r="0.5"/>
			<circle fill="#293F54" cx="26.321" cy="3.846" r="0.5"/>
			<circle fill="#293F54" cx="28.846" cy="3.846" r="0.5"/>
		</g>
		<g>
			
				<path fill="none" stroke="#293F54" stroke-width="0.4544" stroke-linecap="round" stroke-linejoin="round" stroke-miterlimit="10" d="
				M29.39,24.74c0,0.782-0.635,1.417-1.418,1.417H10.52c-0.783,0-1.418-0.635-1.418-1.417v-9.582c0-0.782,0.635-1.417,1.418-1.417
				h17.452c0.783,0,1.418,0.635,1.418,1.417V24.74z"/>
			<path fill="#FFC500" d="M28.244,23.866c0,0.64-0.563,1.159-1.257,1.159H11.505c-0.695,0-1.257-0.519-1.257-1.159v-7.834
				c0-0.64,0.563-1.159,1.257-1.159h15.481c0.695,0,1.257,0.519,1.257,1.159V23.866z"/>
			<text transform="matrix(1 0 0 1 11.6846 23.1992)"><tspan x="0" y="0" fill="#293F54" font-family="'Montserrat-Bold'" font-size="3.8272">c</tspan><tspan x="2.782" y="0" fill="#293F54" font-family="'Montserrat-Bold'" font-size="3.8272">ard</tspan></text>
			
				<path fill="none" stroke="#293F54" stroke-width="0.4544" stroke-linecap="round" stroke-linejoin="round" stroke-miterlimit="10" d="
				M29.39,24.74c0,0.782-0.635,1.417-1.418,1.417H10.52c-0.783,0-1.418-0.635-1.418-1.417v-9.582c0-0.782,0.635-1.417,1.418-1.417
				h17.452c0.783,0,1.418,0.635,1.418,1.417V24.74z"/>
			<path fill="#00B1CC" d="M28.244,23.866c0,0.64-0.563,1.159-1.257,1.159H11.505c-0.695,0-1.257-0.519-1.257-1.159v-7.834
				c0-0.64,0.563-1.159,1.257-1.159h15.481c0.695,0,1.257,0.519,1.257,1.159V23.866z"/>
			<text transform="matrix(1 0 0 1 11.6846 19.9492)" fill="#293F54" font-family="'Montserrat-Bold'" font-size="3.8272">gift</text>
			<g>
				<path fill="#FFFFFF" d="M24.59,22.001h0.59v1.206h0.511c-0.026-0.09-0.04-0.194-0.04-0.311c0-0.294,0.089-0.547,0.267-0.76
					c0.178-0.212,0.417-0.319,0.719-0.319c0.302,0,0.551,0.11,0.748,0.33c0.196,0.22,0.295,0.491,0.295,0.815
					c0,0.414-0.153,0.759-0.459,1.035l-0.498-0.358c0.026-0.026,0.058-0.062,0.096-0.105c0.038-0.044,0.088-0.124,0.15-0.24
					c0.063-0.117,0.094-0.233,0.094-0.35c0-0.117-0.035-0.22-0.105-0.311c-0.07-0.09-0.173-0.135-0.31-0.135
					c-0.137,0-0.243,0.049-0.317,0.146s-0.111,0.224-0.111,0.378s0.055,0.333,0.166,0.538l-0.306,0.284h-1.49V22.001z"/>
				<path fill="#FFFFFF" d="M27.679,20.1c0,0.422-0.144,0.738-0.431,0.948c-0.287,0.209-0.67,0.314-1.149,0.314
					c-0.479,0-0.862-0.105-1.149-0.314c-0.287-0.21-0.431-0.526-0.431-0.948s0.144-0.739,0.431-0.948
					c0.287-0.21,0.67-0.315,1.149-0.315c0.479,0,0.863,0.105,1.149,0.315C27.536,19.361,27.679,19.678,27.679,20.1z M25.363,20.55
					c0.186,0.096,0.433,0.145,0.738,0.145s0.552-0.048,0.738-0.145c0.187-0.096,0.28-0.246,0.28-0.45c0-0.204-0.093-0.354-0.28-0.45
					c-0.186-0.096-0.433-0.145-0.738-0.145s-0.552,0.048-0.738,0.145c-0.187,0.096-0.28,0.246-0.28,0.45
					C25.083,20.304,25.177,20.454,25.363,20.55z"/>
				<path fill="#FFFFFF" d="M25.983,18.391h-0.367v-0.424c-0.333-0.087-0.598-0.254-0.798-0.5c-0.199-0.246-0.299-0.545-0.299-0.898
					c0-0.437,0.176-0.812,0.529-1.123l0.507,0.389c-0.259,0.213-0.389,0.463-0.389,0.751c0,0.327,0.15,0.552,0.45,0.677v-1.018
					h0.367v1.097c0.029,0.003,0.073,0.004,0.131,0.004s0.101-0.001,0.126-0.004v-1.097h0.367v0.997
					c0.137-0.07,0.242-0.166,0.314-0.286c0.073-0.121,0.109-0.254,0.109-0.4c0-0.289-0.115-0.524-0.345-0.708l0.446-0.402
					c0.184,0.157,0.32,0.338,0.411,0.544c0.09,0.205,0.136,0.41,0.136,0.614c0,0.329-0.097,0.616-0.291,0.861
					c-0.193,0.245-0.454,0.412-0.78,0.502v0.424h-0.367v-0.367c-0.026,0.003-0.068,0.004-0.126,0.004s-0.102-0.001-0.131-0.004
					V18.391z"/>
			</g>
		</g>
		<g>
			
				<path fill="none" stroke="#293F54" stroke-width="0.4544" stroke-linecap="round" stroke-linejoin="round" stroke-miterlimit="10" d="
				M23.134,21.49c0,0.782-0.635,1.417-1.418,1.417H4.264c-0.783,0-1.418-0.635-1.418-1.417v-9.582c0-0.782,0.635-1.417,1.418-1.417
				h17.452c0.783,0,1.418,0.635,1.418,1.417V21.49z"/>
			<path fill="#FFC500" d="M21.988,20.616c0,0.64-0.563,1.159-1.257,1.159H5.25c-0.695,0-1.257-0.519-1.257-1.159v-7.834
				c0-0.64,0.563-1.159,1.257-1.159h15.481c0.695,0,1.257,0.519,1.257,1.159V20.616z"/>
			<text transform="matrix(1 0 0 1 5.4287 19.9492)"><tspan x="0" y="0" fill="#293F54" font-family="'Montserrat-Bold'" font-size="3.8272">c</tspan><tspan x="2.782" y="0" fill="#293F54" font-family="'Montserrat-Bold'" font-size="3.8272">ard</tspan></text>
			
				<path fill="#FFFFFF" stroke="#293F54" stroke-width="0.4544" stroke-linecap="round" stroke-linejoin="round" stroke-miterlimit="10" d="
				M23.134,21.49c0,0.782-0.635,1.417-1.418,1.417H4.264c-0.783,0-1.418-0.635-1.418-1.417v-9.582c0-0.782,0.635-1.417,1.418-1.417
				h17.452c0.783,0,1.418,0.635,1.418,1.417V21.49z"/>
			<path fill="#FFC500" d="M21.988,20.616c0,0.64-0.563,1.159-1.257,1.159H5.25c-0.695,0-1.257-0.519-1.257-1.159v-7.834
				c0-0.64,0.563-1.159,1.257-1.159h15.481c0.695,0,1.257,0.519,1.257,1.159V20.616z"/>
			<g>
				<path fill="#293F54" d="M7.496,15.337h0.601v0.949c-0.265,0.296-0.633,0.444-1.102,0.444c-0.393,0-0.723-0.13-0.989-0.391
					s-0.4-0.589-0.4-0.985c0-0.397,0.136-0.728,0.407-0.993c0.272-0.266,0.6-0.398,0.984-0.398c0.384,0,0.717,0.126,1,0.379
					l-0.31,0.448c-0.12-0.104-0.23-0.177-0.331-0.216c-0.101-0.04-0.21-0.06-0.328-0.06c-0.227,0-0.418,0.078-0.574,0.232
					c-0.156,0.154-0.233,0.357-0.233,0.61c0,0.252,0.074,0.455,0.224,0.606s0.327,0.228,0.534,0.228c0.207,0,0.379-0.04,0.517-0.119
					V15.337z"/>
				<path fill="#293F54" d="M8.628,14.024h0.597v2.675H8.628V14.024z"/>
				<path fill="#293F54" d="M11.721,14.024v0.524h-1.24v0.578h1.179v0.524h-1.179v1.049H9.884v-2.675H11.721z"/>
				<path fill="#293F54" d="M13.359,14.541v2.159h-0.597v-2.159h-0.758v-0.517h2.113v0.517H13.359z"/>
			</g>
			<g>
				<path fill="#293F54" d="M6.986,19.421c0.293,0,0.533-0.116,0.72-0.348l0.383,0.394c-0.304,0.342-0.662,0.513-1.074,0.513
					s-0.751-0.13-1.018-0.391s-0.4-0.589-0.4-0.985c0-0.397,0.136-0.728,0.408-0.993c0.271-0.266,0.604-0.398,0.997-0.398
					c0.439,0,0.807,0.167,1.103,0.501l-0.371,0.421c-0.189-0.235-0.424-0.352-0.705-0.352c-0.225,0-0.417,0.073-0.576,0.22
					c-0.16,0.147-0.239,0.345-0.239,0.593c0,0.249,0.075,0.449,0.226,0.599C6.59,19.346,6.772,19.421,6.986,19.421z"/>
				<path fill="#293F54" d="M10.446,19.949l-0.249-0.578H9.076l-0.249,0.578H8.192l1.156-2.675h0.578l1.156,2.675H10.446z
					 M9.639,18.07l-0.337,0.777h0.67L9.639,18.07z"/>
				<path fill="#293F54" d="M13.561,18.162c0,0.428-0.169,0.705-0.509,0.83l0.677,0.957h-0.735l-0.593-0.854h-0.413v0.854h-0.597
					v-2.675h1.014c0.416,0,0.712,0.07,0.89,0.21C13.473,17.625,13.561,17.851,13.561,18.162z M12.842,18.479
					c0.074-0.066,0.111-0.171,0.111-0.316c0-0.144-0.038-0.243-0.115-0.296s-0.21-0.081-0.402-0.081h-0.448v0.792h0.436
					C12.628,18.579,12.768,18.546,12.842,18.479z"/>
				<path fill="#293F54" d="M16.217,17.624c0.255,0.233,0.382,0.558,0.382,0.974s-0.124,0.745-0.373,0.987
					c-0.249,0.243-0.628,0.364-1.139,0.364h-0.915v-2.675h0.945C15.596,17.274,15.962,17.391,16.217,17.624z M15.779,19.214
					c0.147-0.138,0.22-0.338,0.22-0.601c0-0.263-0.073-0.465-0.22-0.606c-0.146-0.142-0.372-0.212-0.675-0.212h-0.333v1.626h0.379
					C15.422,19.421,15.632,19.352,15.779,19.214z"/>
			</g>
			<g>
				<path fill="#FFFFFF" d="M18.915,20.634h-0.581v-1.87h0.472l0.712,0.625c0.041-0.245,0.144-0.434,0.308-0.568
					s0.354-0.201,0.57-0.201c0.32,0,0.571,0.109,0.753,0.326c0.182,0.217,0.273,0.495,0.273,0.833s-0.12,0.68-0.358,1.027
					l-0.542-0.28c0.204-0.289,0.306-0.546,0.306-0.773c0-0.137-0.034-0.25-0.101-0.338s-0.164-0.133-0.291-0.133
					c-0.127,0-0.228,0.051-0.302,0.153s-0.111,0.243-0.111,0.424c0,0.096,0.028,0.231,0.083,0.406h-0.502l-0.69-0.585V20.634z"/>
				<path fill="#FFFFFF" d="M21.423,16.872c0,0.422-0.144,0.738-0.431,0.948c-0.287,0.209-0.67,0.314-1.149,0.314
					c-0.479,0-0.862-0.105-1.149-0.314c-0.287-0.21-0.431-0.526-0.431-0.948s0.144-0.739,0.431-0.948
					c0.287-0.21,0.67-0.315,1.149-0.315c0.479,0,0.863,0.105,1.149,0.315C21.28,16.133,21.423,16.45,21.423,16.872z M19.107,17.322
					c0.186,0.096,0.433,0.145,0.738,0.145s0.552-0.048,0.738-0.145c0.187-0.096,0.28-0.246,0.28-0.45c0-0.204-0.093-0.354-0.28-0.45
					c-0.186-0.096-0.433-0.145-0.738-0.145s-0.552,0.048-0.738,0.145c-0.187,0.096-0.28,0.246-0.28,0.45
					C18.828,17.076,18.921,17.226,19.107,17.322z"/>
				<path fill="#FFFFFF" d="M19.728,15.163h-0.367v-0.424c-0.333-0.087-0.598-0.254-0.798-0.5c-0.199-0.246-0.299-0.545-0.299-0.898
					c0-0.437,0.176-0.812,0.529-1.123l0.507,0.389c-0.259,0.213-0.389,0.463-0.389,0.751c0,0.327,0.15,0.552,0.45,0.677v-1.018
					h0.367v1.097c0.029,0.003,0.073,0.004,0.131,0.004s0.101-0.001,0.126-0.004v-1.097h0.367v0.997
					c0.137-0.07,0.242-0.166,0.314-0.286c0.073-0.121,0.109-0.254,0.109-0.4c0-0.289-0.115-0.524-0.345-0.708l0.446-0.402
					c0.184,0.157,0.32,0.338,0.411,0.544c0.09,0.205,0.136,0.41,0.136,0.614c0,0.329-0.097,0.616-0.291,0.861
					c-0.193,0.245-0.454,0.412-0.78,0.502v0.424h-0.367v-0.367c-0.026,0.003-0.068,0.004-0.126,0.004s-0.102-0.001-0.131-0.004
					V15.163z"/>
			</g>
		</g>
	</g>
</g>
<g id="txt">
</g>
</svg>
