<svg xmlns="http://www.w3.org/2000/svg" width="33" height="29" viewBox="0 0 32.13 28.567"><g fill="none" stroke="#293f54" stroke-width=".567" stroke-miterlimit="10"><path d="M31.846 27.284a1 1 0 0 1-1 1H1.284a1 1 0 0 1-1-1v-26a1 1 0 0 1 1-1h29.563a1 1 0 0 1 1 1v26z"/><path d="M.096 7.22h31.688"/></g><g fill="#00b1cc"><circle cx="2.846" cy="3.846" r=".813"/><circle cx="6.846" cy="3.846" r=".813"/><circle cx="10.846" cy="3.846" r=".813"/></g><g fill="#293f54"><circle cx="16.221" cy="3.846" r=".5"/><circle cx="18.747" cy="3.846" r=".5"/><circle cx="21.272" cy="3.846" r=".5"/><circle cx="23.797" cy="3.846" r=".5"/><circle cx="26.322" cy="3.846" r=".5"/><circle cx="28.846" cy="3.846" r=".5"/></g><g fill="#ffc500"><path d="M21.452 10.055a1.95 1.95 0 0 0-.468.059l.12.493c.96-.236 1.798.495 1.798 1.407 0 2.138-2.434 3.712-3.448 4l.143.488c1.3-.377 3.814-2.137 3.814-4.497-.001-1.08-.88-1.96-1.96-1.96zm-10.932 1.96c0-.912.837-1.644 1.8-1.407l.122-.493a1.96 1.96 0 0 0-2.428 1.9c0 2.36 2.525 4.12 3.814 4.497l.143-.488c-1.016-.297-3.45-1.872-3.45-4zm7.073 6.844H15.83c-.14 0-.254.114-.254.254v.964c0 .077.035.15.095.198a.25.25 0 0 0 .159.056c.018 0 .036-.002.054-.006.523-.113 1.132-.113 1.655 0 .075.016.154-.002.213-.05s.095-.12.095-.198v-.964c0-.14-.114-.254-.254-.254zm-.254.916a4.7 4.7 0 0 0-1.254 0v-.408h1.254v.408zm2.803 4.44h-6.86c-.14 0-.254.113-.254.254v.94c0 .14.114.254.254.254h6.86c.14 0 .254-.114.254-.254v-.94c0-.14-.114-.254-.254-.254zm-.255.94h-6.35v-.43h6.35v.43z"/><path d="M19.7 20.635h-5.98c-.14 0-.254.113-.254.254v3.58c0 .14.114.254.254.254h5.98c.14 0 .254-.114.254-.254v-3.58c.001-.14-.113-.254-.254-.254zm-.254 3.58h-5.47v-3.072h5.47v3.072zm-.76-2.565h-3.947c-.14 0-.254.114-.254.254v1.547c0 .14.113.254.254.254h3.947c.14 0 .254-.114.254-.254v-1.547c0-.14-.113-.254-.254-.254zm-.255 1.55h-3.438v-1.04h3.438v1.04zM21.2 9.527a.43.43 0 0 0-.305-.127h-8.347c-.115 0-.223.045-.304.126s-.126.2-.125.306l.017.537.026.466c.126 1.882.545 3.6 1.212 4.972l.315.587c.5.865 1.092 1.485 1.734 1.845.067.037.147.042.217.014l.2.002h1.967a.25.25 0 0 0 .089.016c.042 0 .085-.01.124-.032.642-.36 1.225-.98 1.734-1.844l.314-.587c.667-1.372 1.087-3.1 1.213-4.973l.025-.466.016-.536a.42.42 0 0 0-.122-.306zm-.4.822l-.025.453c-.122 1.816-.524 3.47-1.163 4.785l-.295.55c-.433.736-.937 1.3-1.46 1.6H15.59c-.524-.32-1.028-.873-1.46-1.6l-.295-.55c-.638-1.313-1.04-2.968-1.163-4.785l-.025-.476-.014-.418h8.185l-.015.44zm-1.035.15l-.014.23c-.105 1.574-.464 3.058-1 4.178l-.247.46c-.3.5-.638.908-.975 1.148l.295.414c.395-.28.78-.732 1.12-1.304l.265-.495c.572-1.178.95-2.73 1.06-4.367l.014-.236-.507-.027z"/><path d="M17.593 17.748H15.82c-.427 0-.47.83-.47.838s.05.782.48.782h1.774c.42 0 .47-.774.47-.782s-.042-.838-.48-.838zm-.093 1.1h-1.577c-.033-.083-.065-.222-.066-.273 0-.062.038-.23.074-.33h1.562c.037.098.073.268.074.33a1.16 1.16 0 0 1-.067.274zm.146.972a4.6 4.6 0 0 0-1.87 0c-.842.182-1.345.58-1.345 1.06 0 .14.114.254.254.254h4.05c.14 0 .254-.114.254-.254.002-.483-.5-.88-1.343-1.06zm-2.526.806c.157-.118.415-.234.765-.3.523-.113 1.132-.113 1.655 0 .35.076.607.192.764.3H15.12z"/></g></svg>