<svg xmlns="http://www.w3.org/2000/svg" xmlns:xlink="http://www.w3.org/1999/xlink" width="33" height="29" viewBox="0 0 32.13 28.566"><g fill="none" stroke="#293f54" stroke-width=".567" stroke-miterlimit="10"><path d="M31.846 27.283a1 1 0 0 1-1 1H1.284a1 1 0 0 1-1-1v-26a1 1 0 0 1 1-1h29.563a1 1 0 0 1 1 1v26z"/><path d="M.096 7.22h31.688"/></g><g fill="#00b1cc"><circle cx="2.846" cy="3.846" r=".813"/><circle cx="6.846" cy="3.846" r=".813"/><circle cx="10.846" cy="3.846" r=".813"/></g><g fill="#293f54"><circle cx="16.221" cy="3.846" r=".5"/><circle cx="18.747" cy="3.846" r=".5"/><circle cx="21.272" cy="3.846" r=".5"/><circle cx="23.797" cy="3.846" r=".5"/><circle cx="26.322" cy="3.846" r=".5"/><circle cx="28.846" cy="3.846" r=".5"/></g><path fill="#fff" stroke="#00b1cc" stroke-width=".454" stroke-linejoin="round" stroke-miterlimit="10" d="M29.67 18.216c0 .553-.6 1-1.34 1H3.55c-.74 0-1.34-.447-1.34-1V12.9c0-.553.6-1 1.34-1h24.78c.74 0 1.34.447 1.34 1v5.326z"/><path fill="#ffc500" d="M28.59 17.215c0 .33-.536.597-1.2.597H5.183c-.664 0-1.202-.267-1.202-.597v-3.182c0-.33.538-.597 1.202-.597H27.39c.665 0 1.2.267 1.2.597v3.182z"/><path fill="#fff" d="M23.133 19.435c-.125-.473-.293-1.426.445-1.448.58-.017.857.84 1.013 1.267l.04-2.914c-.005-.57.333-2.44 1.03-1.227.262.455.16 1.188.094 1.682.386-.186.855.01 1.045.386.613-.178 1.165.038 1.3.695 1.59-.086 1.013 2.002.374 2.778-.97 1.18-3.068.942-4.31.274-.598-.32-.816-.93-1.064-1.534"/><g fill="#293f54"><path d="M25.8 18.417c-.104 0-.188-.084-.188-.188v-1.426c0-.104.084-.188.188-.188h.558c.412 0 .746.334.746.746 0 .104-.084.188-.188.188s-.188-.084-.188-.188a.37.37 0 0 0-.371-.371h-.37v1.238c.001.105-.083.2-.187.2zm2.663 4.823h-2.397c-.104 0-.188-.084-.188-.188s.083-.188.188-.188h2.246l.128-.45a10.96 10.96 0 0 0 .518-3.062c.002-.104.093-.2.192-.183.104.003.186.1.183.193-.027 1.083-.208 2.148-.535 3.166a5.02 5.02 0 0 0-.149.56c-.02.1-.096.153-.186.153z"/><path d="M24.882 23.24c-.1 0-.17-.064-.185-.154-.002-.01-.182-.998-.822-1.713-.177-.197-.343-.428-.497-.684a3.9 3.9 0 0 1-.546-2.002.85.85 0 0 1 .85-.849c.35 0 .667.22.792.544l.022.058v-3.12c0-.412.334-.746.746-.746s.745.334.745.746v1.482c0 .104-.084.188-.188.188s-.188-.084-.188-.188V15.32a.37.37 0 1 0-.74 0v4.132a.19.19 0 0 1-.154.185c-.09.017-.177-.033-.2-.117l-.385-1.002c-.07-.182-.248-.303-.442-.303-.262 0-.475.213-.475.473a3.52 3.52 0 0 0 .493 1.81c.142.236.294.447.454.626.714.798.904 1.854.912 1.898.02.103-.05.2-.15.217-.01.002-.02.002-.032.002zm3.15-3.923c-.104 0-.188-.084-.188-.188v-1.352a.37.37 0 0 0-.371-.369h-.37v1.236c0 .104-.084.188-.188.188s-.188-.084-.188-.188V17.22c0-.104.084-.188.188-.188h.558c.412 0 .746.334.746.745v1.352c0 .105-.084.2-.187.2z"/><path d="M29.15 19.546c-.104 0-.188-.084-.188-.188v-.867a.37.37 0 0 0-.37-.37h-.56c-.104 0-.188-.085-.188-.188s.084-.188.188-.188h.56a.75.75 0 0 1 .746.746v.867c0 .104-.085.188-.188.188zm-.378 6.164h-4.328c-.104 0-.188-.084-.188-.188v-1.718c0-.104.084-.188.188-.188h4.328c.104 0 .188.084.188.188v1.718c-.001.104-.085.188-.188.188zm-4.14-.375h3.952V24h-3.952v1.343zm3.168-.322a.35.35 0 1 1 0-.7.35.35 0 1 1 0 .7zm0-.376c-.015 0-.026.012-.026.026 0 .028.052.028.052 0-.001-.015-.01-.026-.026-.026zM6.62 16.363l-.23-.33h-.25v.33h-.274v-1.186h.513c.317 0 .515.164.515.43 0 .18-.1.3-.244.375l.266.38H6.62zm-.257-.962H6.14v.413h.224c.167 0 .252-.078.252-.207s-.085-.206-.252-.206z"/><path d="M8.026 16.144v.22h-.918v-1.186h.896v.22H7.38v.258h.55v.214h-.55v.274h.646z"/><use xlink:href="#B"/><use xlink:href="#C"/><path d="M11.918 16.144v.22H11v-1.186h.896v.22h-.624v.258h.55v.214h-.55v.274h.646z"/><path d="M12.042 16.246l.093-.206c.1.072.25.123.39.123.163 0 .23-.054.23-.127 0-.222-.69-.07-.69-.5 0-.2.163-.37.5-.37.15 0 .3.036.412.105l-.085.208c-.1-.063-.223-.093-.33-.093-.162 0-.225.06-.225.135 0 .22.69.068.69.503 0 .198-.165.368-.503.368-.19.001-.38-.055-.483-.137z"/><path d="M13.442 15.4h-.38v-.224h1.033v.224h-.38v.962h-.274V15.4zm2.06.7h-.55l-.105.254h-.28l.528-1.186h.27l.53 1.186h-.288l-.105-.254zm-.086-.208l-.188-.454-.188.454h.376z"/><use xlink:href="#B" x="8.258"/><use xlink:href="#C" x="8.256"/><path d="M19.182 15.77c0-.353.274-.613.65-.613s.648.26.648.613-.276.613-.648.613-.65-.26-.65-.613zm1.02 0a.36.36 0 0 0-.371-.38.36.36 0 0 0-.371.38.36.36 0 0 0 .371.379.36.36 0 0 0 .371-.379z"/><path d="M20.913 15.4h-.38v-.224h1.033v.224h-.38v.962h-.274V15.4zm1.717.744v.22h-.918v-1.186h.896v.22h-.624v.258h.55v.214h-.55v.274h.646z"/></g><defs ><path id="B" d="M9.52 16.5c-.078.095-.2.146-.32.146-.176 0-.3-.064-.482-.257-.325-.04-.554-.287-.554-.608 0-.353.274-.613.65-.613s.648.26.648.613c0 .277-.17.498-.423.58.058.062.108.083.168.083.073 0 .137-.028.193-.088l.12.145zm-.708-.34a.36.36 0 0 0 .371-.379.36.36 0 0 0-.371-.38.36.36 0 0 0-.371.38.36.36 0 0 0 .371.379z"/><path id="C" d="M9.657 15.842v-.664h.274v.653c0 .226.098.318.264.318s.264-.093.264-.318v-.653h.27v.664c0 .35-.2.542-.537.542s-.536-.194-.536-.542z"/></defs></svg>