<svg xmlns="http://www.w3.org/2000/svg" width="33" height="29" viewBox="0 0 32.13 28.566"><g fill="none" stroke="#293f54" stroke-width=".567" stroke-miterlimit="10"><path d="M31.846 27.283a1 1 0 0 1-1 1H1.284a1 1 0 0 1-1-1v-26a1 1 0 0 1 1-1h29.563a1 1 0 0 1 1 1v26z"/><path d="M.096 7.22h31.688"/></g><g fill="#00b1cc"><circle cx="2.846" cy="3.846" r=".813"/><circle cx="6.846" cy="3.846" r=".813"/><circle cx="10.846" cy="3.846" r=".813"/></g><g fill="#293f54"><circle cx="16.221" cy="3.846" r=".5"/><circle cx="18.747" cy="3.846" r=".5"/><circle cx="21.272" cy="3.846" r=".5"/><circle cx="23.797" cy="3.846" r=".5"/><circle cx="26.322" cy="3.846" r=".5"/><circle cx="28.846" cy="3.846" r=".5"/></g><path d="M9.743 19.86a1 1 0 0 1-1 1H4.356a1 1 0 0 1-1-1v-4.387a1 1 0 0 1 1-1h4.387a1 1 0 0 1 1 1v4.387zm9.4 0a1 1 0 0 1-1 1h-4.387a1 1 0 0 1-1-1v-4.387a1 1 0 0 1 1-1h4.387a1 1 0 0 1 1 1v4.387zm9.39 0a1 1 0 0 1-1 1h-4.387a1 1 0 0 1-1-1v-4.387a1 1 0 0 1 1-1h4.387a1 1 0 0 1 1 1v4.387z" fill="none" stroke-miterlimit="10" stroke="#ffc500" stroke-width=".384" stroke-linejoin="round"/><path d="M6.72 15.68l.645 1.306 1.442.2-1.043 1.018L8 19.65l-1.3-.677-1.3.677.246-1.436-1.043-1.018 1.443-.2zm18.6-.36l.45 1.263 1.2-.575-.575 1.2 1.262.45-1.262.45.575 1.2-1.2-.575-.45 1.263-.45-1.263-1.2.575.576-1.2-1.263-.45 1.263-.45-.576-1.2 1.2.575zM14.164 19.4c.046-.135 1.68-3.444 1.68-3.444l1.872 3.444h-3.552z" fill="#ffc500"/><g stroke="#293f54" stroke-miterlimit="10" stroke-linejoin="round" stroke-width=".454" stroke-linecap="round"><path fill="#fff" d="M19.49 22.57l1.208-1.208-5.157-1.38 1.382 5.157 1.208-1.208"/><path fill="none" d="M19.13 23.57l1.508 1.508"/></g><path d="M11.5 13.68c0-.68-.48-1.146-1.02-1.15-.507-.006-.77.364-.905.636-.135-.27-.398-.642-.905-.636-.54.005-1.02.47-1.02 1.15 0 1.48 1.724 2.262 1.907 2.343l.001.015c.02-.008.035 0 .035 0v-.015c.185-.082 1.9-.862 1.9-2.343zm9.55 0c0-.68-.48-1.146-1.02-1.15-.507-.006-.77.364-.905.636-.135-.27-.398-.642-.905-.636-.54.005-1.02.47-1.02 1.15 0 1.48 1.724 2.262 1.907 2.343l.001.015c.02-.008.035 0 .035 0l.001-.015c.184-.082 1.908-.862 1.908-2.343z" fill="#00b1cc"/></svg>