<?xml version="1.0" encoding="utf-8"?>
<!-- Generator: Adobe Illustrator 16.0.0, SVG Export Plug-In . SVG Version: 6.00 Build 0)  -->
<!DOCTYPE svg PUBLIC "-//W3C//DTD SVG 1.1//EN" "http://www.w3.org/Graphics/SVG/1.1/DTD/svg11.dtd">
<svg version="1.1" id="Layer_1" xmlns="http://www.w3.org/2000/svg" xmlns:xlink="http://www.w3.org/1999/xlink" x="0px" y="0px"
	 width="314.52px" height="41.175px" viewBox="0 0 314.52 41.175" enable-background="new 0 0 314.52 41.175" xml:space="preserve">
<g>
	<g>
		<g>
			<rect x="12.56" y="12.105" fill="#D9DADA" width="16.965" height="16.965"/>
			<rect x="37.536" y="12.162" fill="#D9DADA" width="46.249" height="4.764"/>
			<rect x="37.536" y="20.105" fill="#D9DADA" width="29.749" height="4.764"/>
		</g>
		<g>
			<g>
				<g>
					<rect x="119.617" y="18.921" fill="#BBBCBC" width="33.333" height="3.334"/>
					<g>
						<g>
							<g>
								<path fill="#BBBCBC" d="M111.569,18.772c-0.097-0.098-0.25-0.111-0.364-0.033c-0.429,0.291-2.58,1.762-2.811,1.992
									c-0.335,0.336-0.335,0.881,0,1.217c0.168,0.166,0.388,0.25,0.608,0.25c0.22,0,0.44-0.084,0.608-0.25
									c0.23-0.232,1.7-2.383,1.993-2.811C111.682,19.022,111.667,18.87,111.569,18.772z M109.205,21.542
									c-0.112,0.113-0.293,0.113-0.405,0c-0.112-0.111-0.112-0.293,0-0.404c0.09-0.09,0.7-0.525,1.451-1.047
									C109.729,20.843,109.294,21.452,109.205,21.542z"/>
								<path fill="#BBBCBC" d="M106.656,22.673l-0.354,0.172c-0.259-0.461-0.395-0.977-0.395-1.506
									c0-0.387,0.071-0.756,0.201-1.098l0.406,0.193c0.04,0.02,0.082,0.029,0.124,0.029c0.106,0,0.209-0.061,0.259-0.162
									c0.068-0.145,0.008-0.314-0.134-0.383l-0.401-0.191c0.498-0.813,1.358-1.377,2.354-1.469v0.43
									c0,0.158,0.128,0.287,0.287,0.287c0.158,0,0.286-0.129,0.286-0.287v-0.432c0.341,0.031,0.672,0.119,0.986,0.26
									c0.144,0.066,0.313,0.002,0.379-0.143s0.001-0.314-0.143-0.379c-0.475-0.215-0.982-0.324-1.508-0.324
									c-0.98,0-1.901,0.383-2.594,1.074c-0.692,0.693-1.074,1.615-1.074,2.594c0,0.725,0.215,1.43,0.622,2.037
									c0.055,0.082,0.146,0.127,0.238,0.127c0.042,0,0.085-0.01,0.126-0.029l0.587-0.285c0.143-0.07,0.202-0.242,0.132-0.385
									C106.97,22.663,106.798,22.603,106.656,22.673z"/>
								<path fill="#BBBCBC" d="M112.347,19.833c-0.065-0.146-0.234-0.209-0.379-0.145c-0.144,0.064-0.208,0.234-0.144,0.379
									c0.182,0.4,0.273,0.828,0.273,1.271c0,0.529-0.136,1.047-0.396,1.508l-0.369-0.176c-0.143-0.068-0.314-0.006-0.382,0.137
									c-0.067,0.143-0.007,0.313,0.136,0.381l0.601,0.287c0.04,0.02,0.082,0.027,0.124,0.027c0.093,0,0.184-0.045,0.238-0.127
									c0.407-0.607,0.622-1.313,0.622-2.037C112.671,20.815,112.562,20.308,112.347,19.833z"/>
							</g>
						</g>
					</g>
				</g>
			</g>
			<g>
				<rect x="189.483" y="19.188" fill="#BBBCBC" width="33.333" height="3.332"/>
				<g>
					<g>
						<g>
							<path fill="#BBBCBC" d="M179.41,20.731c-0.03-0.066-0.098-0.11-0.172-0.11h-0.756v-2.456c0-0.105-0.085-0.189-0.188-0.189
								h-0.757c-0.104,0-0.188,0.084-0.188,0.189v2.456h-0.756c-0.074,0-0.142,0.044-0.172,0.11
								c-0.031,0.068-0.02,0.147,0.029,0.203l1.323,1.512c0.036,0.041,0.088,0.064,0.142,0.064c0.055,0,0.106-0.023,0.143-0.064
								l1.323-1.512C179.429,20.879,179.441,20.8,179.41,20.731z"/>
						</g>
					</g>
					<g>
						<g>
							<path fill="#BBBCBC" d="M179.994,22.134v1.133h-4.157v-1.133h-0.756v1.512c0,0.209,0.169,0.377,0.378,0.377h4.913
								c0.209,0,0.378-0.168,0.378-0.377v-1.512H179.994z"/>
						</g>
					</g>
				</g>
			</g>
			<g>
				<rect x="259.618" y="19.521" fill="#BBBCBC" width="33.333" height="3.334"/>
				<g>
					<g>
						<g>
							<path fill="#BBBCBC" d="M249.832,22.259c-0.39,0-0.707,0.316-0.707,0.707c0,0.389,0.317,0.707,0.707,0.707
								s0.707-0.318,0.707-0.707C250.539,22.575,250.222,22.259,249.832,22.259z M249.832,23.248c-0.156,0-0.283-0.127-0.283-0.282
								c0-0.156,0.126-0.283,0.283-0.283c0.156,0,0.283,0.127,0.283,0.283C250.115,23.121,249.988,23.248,249.832,23.248z"/>
						</g>
					</g>
					<g>
						<g>
							<path fill="#BBBCBC" d="M250.967,19.526c-0.04-0.051-0.102-0.082-0.167-0.082h-4.148l-0.191-0.798
								c-0.023-0.096-0.108-0.163-0.207-0.163h-0.7c-0.117,0-0.212,0.096-0.212,0.213s0.095,0.211,0.212,0.211h0.532l0.689,2.885
								c0.023,0.096,0.108,0.162,0.206,0.162h3.301c0.098,0,0.183-0.066,0.206-0.16l0.516-2.086
								C251.022,19.645,251.007,19.577,250.967,19.526z M250.119,21.53h-2.968l-0.397-1.661h3.776L250.119,21.53z"/>
						</g>
					</g>
					<g>
						<g>
							<path fill="#BBBCBC" d="M247.266,22.259c-0.39,0-0.707,0.316-0.707,0.707c0,0.389,0.317,0.707,0.707,0.707
								c0.39,0,0.707-0.318,0.707-0.707C247.973,22.575,247.656,22.259,247.266,22.259z M247.266,23.248
								c-0.156,0-0.283-0.127-0.283-0.282c0-0.156,0.127-0.283,0.283-0.283c0.156,0,0.283,0.127,0.283,0.283
								C247.549,23.121,247.422,23.248,247.266,23.248z"/>
						</g>
					</g>
				</g>
			</g>
		</g>
	</g>
	<polyline fill="none" stroke="#9C9C9C" stroke-linecap="round" stroke-linejoin="round" stroke-miterlimit="10" points="
		300.859,29.571 166.609,29.571 166.609,12.821 99.859,12.821 99.859,31.238 	"/>
	<polyline fill="none" stroke="#9C9C9C" stroke-linecap="round" stroke-linejoin="round" stroke-miterlimit="10" points="
		166.609,12.821 300.859,12.821 300.859,29.321 	"/>
	
		<line fill="none" stroke="#9C9C9C" stroke-linecap="round" stroke-linejoin="round" stroke-miterlimit="10" x1="234.609" y1="12.821" x2="234.609" y2="29.321"/>
	<rect x="0.75" y="0.75" fill="none" stroke="#D9D9D9" stroke-width="1.5" stroke-miterlimit="10" width="313.02" height="39.675"/>
</g>
</svg>
