<?xml version="1.0" encoding="utf-8"?>
<!-- Generator: Adobe Illustrator 16.0.0, SVG Export Plug-In . SVG Version: 6.00 Build 0)  -->
<!DOCTYPE svg PUBLIC "-//W3C//DTD SVG 1.1//EN" "http://www.w3.org/Graphics/SVG/1.1/DTD/svg11.dtd">
<svg version="1.1" id="Layer_1" xmlns="http://www.w3.org/2000/svg" xmlns:xlink="http://www.w3.org/1999/xlink" x="0px" y="0px"
	 width="94.52px" height="116.508px" viewBox="0 0 94.52 116.508" enable-background="new 0 0 94.52 116.508" xml:space="preserve">
<g>
	<g>
		<rect x="26.464" y="47.118" fill="#BBBCBC" width="33.333" height="3.333"/>
		<g>
			<g>
				<g>
					<path fill="#BBBCBC" d="M18.417,46.969c-0.097-0.098-0.25-0.111-0.364-0.034c-0.429,0.292-2.58,1.762-2.811,1.993
						c-0.335,0.335-0.335,0.881,0,1.216c0.168,0.167,0.388,0.251,0.608,0.251c0.22,0,0.44-0.084,0.608-0.251
						c0.23-0.231,1.7-2.382,1.993-2.811C18.529,47.219,18.514,47.067,18.417,46.969z M16.052,49.739
						c-0.112,0.112-0.293,0.112-0.405,0c-0.112-0.111-0.112-0.294,0-0.405c0.09-0.089,0.7-0.524,1.451-1.047
						C16.577,49.039,16.142,49.649,16.052,49.739z"/>
					<path fill="#BBBCBC" d="M13.503,50.87l-0.354,0.172c-0.259-0.462-0.395-0.978-0.395-1.506c0-0.387,0.071-0.757,0.201-1.099
						l0.406,0.194c0.04,0.02,0.082,0.028,0.124,0.028c0.106,0,0.209-0.06,0.259-0.162c0.068-0.144,0.008-0.314-0.134-0.383
						l-0.401-0.191c0.498-0.812,1.358-1.377,2.354-1.469v0.431c0,0.158,0.128,0.286,0.287,0.286c0.158,0,0.286-0.128,0.286-0.286
						v-0.432c0.341,0.031,0.672,0.118,0.986,0.26c0.144,0.065,0.313,0.001,0.379-0.144c0.065-0.144,0.001-0.313-0.143-0.379
						c-0.475-0.214-0.982-0.323-1.508-0.323c-0.98,0-1.901,0.382-2.594,1.074c-0.692,0.692-1.074,1.614-1.074,2.594
						c0,0.725,0.215,1.429,0.622,2.037c0.055,0.081,0.146,0.127,0.238,0.127c0.042,0,0.085-0.01,0.126-0.029l0.587-0.286
						c0.143-0.069,0.202-0.241,0.132-0.384C13.817,50.859,13.646,50.799,13.503,50.87z"/>
					<path fill="#BBBCBC" d="M19.194,48.029c-0.065-0.146-0.234-0.209-0.379-0.144c-0.144,0.064-0.208,0.234-0.144,0.379
						c0.182,0.4,0.273,0.828,0.273,1.271c0,0.529-0.136,1.046-0.396,1.508l-0.369-0.176c-0.143-0.068-0.314-0.007-0.382,0.136
						c-0.067,0.143-0.007,0.313,0.136,0.382l0.601,0.286c0.04,0.02,0.082,0.028,0.124,0.028c0.093,0,0.184-0.046,0.238-0.127
						c0.407-0.608,0.622-1.313,0.622-2.037C19.518,49.011,19.409,48.503,19.194,48.029z"/>
				</g>
			</g>
		</g>
	</g>
	<g>
		<rect x="26.584" y="63.194" fill="#BBBCBC" width="33.333" height="3.333"/>
		<g>
			<g>
				<g>
					<path fill="#BBBCBC" d="M16.511,64.738c-0.031-0.067-0.098-0.111-0.172-0.111h-0.756V62.17c0-0.104-0.085-0.189-0.189-0.189
						h-0.756c-0.104,0-0.189,0.084-0.189,0.189v2.457h-0.756c-0.074,0-0.141,0.043-0.172,0.111c-0.031,0.068-0.019,0.147,0.03,0.203
						l1.323,1.512c0.036,0.042,0.088,0.065,0.142,0.065c0.055,0,0.106-0.024,0.143-0.065l1.323-1.512
						C16.53,64.885,16.542,64.806,16.511,64.738z"/>
				</g>
			</g>
			<g>
				<g>
					<path fill="#BBBCBC" d="M17.095,66.139v1.134h-4.158v-1.134h-0.756v1.512c0,0.209,0.169,0.378,0.378,0.378h4.914
						c0.209,0,0.378-0.169,0.378-0.378v-1.512H17.095z"/>
				</g>
			</g>
		</g>
	</g>
	<g>
		<rect x="26.456" y="79.348" fill="#BBBCBC" width="33.333" height="3.333"/>
		<g>
			<g>
				<g>
					<path fill="#BBBCBC" d="M16.67,82.085c-0.39,0-0.707,0.317-0.707,0.707S16.281,83.5,16.67,83.5s0.707-0.317,0.707-0.707
						S17.06,82.085,16.67,82.085z M16.67,83.075c-0.156,0-0.283-0.127-0.283-0.283s0.126-0.283,0.283-0.283
						c0.156,0,0.283,0.127,0.283,0.283S16.826,83.075,16.67,83.075z"/>
				</g>
			</g>
			<g>
				<g>
					<path fill="#BBBCBC" d="M17.806,79.354c-0.04-0.051-0.102-0.082-0.167-0.082h-4.148L13.3,78.474
						c-0.023-0.096-0.108-0.163-0.207-0.163h-0.7c-0.117,0-0.212,0.095-0.212,0.212s0.095,0.212,0.212,0.212h0.532l0.689,2.884
						c0.023,0.096,0.108,0.163,0.206,0.163h3.301c0.098,0,0.183-0.067,0.206-0.161l0.516-2.085
						C17.86,79.472,17.846,79.405,17.806,79.354z M16.957,81.357h-2.968l-0.397-1.661h3.776L16.957,81.357z"/>
				</g>
			</g>
			<g>
				<g>
					<path fill="#BBBCBC" d="M14.104,82.085c-0.39,0-0.707,0.317-0.707,0.707s0.317,0.707,0.707,0.707
						c0.39,0,0.707-0.317,0.707-0.707S14.494,82.085,14.104,82.085z M14.104,83.075c-0.156,0-0.283-0.127-0.283-0.283
						s0.127-0.283,0.283-0.283c0.156,0,0.283,0.127,0.283,0.283S14.26,83.075,14.104,83.075z"/>
				</g>
			</g>
		</g>
	</g>
	<rect x="26.456" y="96.536" fill="#BBBCBC" width="33.333" height="3.333"/>
	<rect x="0.75" y="0.75" fill="none" stroke="#D9D9D9" stroke-width="1.5" stroke-miterlimit="10" width="93.02" height="115.008"/>
	<rect x="10.692" y="10.977" fill="#D9DADA" width="16.965" height="16.965"/>
	<rect x="35.668" y="11.035" fill="#D9DADA" width="46.249" height="4.763"/>
	<rect x="35.668" y="18.978" fill="#D9DADA" width="29.749" height="4.763"/>
	<g>
		<g>
			<g>
				<path fill="#BBBCBC" d="M15.395,94.905c-1.278,0-2.318,1.04-2.318,2.318c0,0.432,0.12,0.853,0.346,1.219l1.84,2.965
					c0.035,0.057,0.097,0.091,0.164,0.091c0,0,0.001,0,0.001,0c0.067,0,0.13-0.036,0.164-0.094l1.793-2.995
					c0.214-0.358,0.327-0.769,0.327-1.188C17.713,95.945,16.673,94.905,15.395,94.905z M17.054,98.213l-1.63,2.723l-1.673-2.697
					c-0.188-0.304-0.291-0.655-0.291-1.015c0-1.065,0.869-1.935,1.935-1.935c1.065,0,1.933,0.869,1.933,1.935
					C17.328,97.573,17.232,97.915,17.054,98.213z"/>
			</g>
		</g>
		<g>
			<g>
				<path fill="#BBBCBC" d="M15.395,96.064c-0.639,0-1.159,0.52-1.159,1.159c0,0.635,0.511,1.159,1.159,1.159
					c0.656,0,1.159-0.531,1.159-1.159C16.554,96.584,16.034,96.064,15.395,96.064z M15.395,97.999c-0.428,0-0.775-0.348-0.775-0.775
					c0-0.426,0.349-0.775,0.775-0.775c0.426,0,0.774,0.349,0.774,0.775C16.169,97.645,15.83,97.999,15.395,97.999z"/>
			</g>
		</g>
	</g>
</g>
</svg>
