<svg id="Layer_1" data-name="Layer 1" xmlns="http://www.w3.org/2000/svg" viewBox="0 0 274.22 167.74"><defs><style>.cls-1,.cls-2{fill:#a6afb9;stroke:#a6afb9;stroke-miterlimit:10;}.cls-1{stroke-width:4px;}.cls-2{stroke-width:6px;}</style></defs><title>responsive_icon_02</title><path class="cls-1" d="M390.1,453.65h0a9.46,9.46,0,0,0-6.91-2.85H326.82a9.73,9.73,0,0,0-9.76,9.77V563a9.75,9.75,0,0,0,9.76,9.77h56.36A9.75,9.75,0,0,0,393,563V460.56A9.48,9.48,0,0,0,390.1,453.65ZM383.66,563a3.2,3.2,0,0,1,0,.42,1.29,1.29,0,0,1-.45.06H326.82a4.11,4.11,0,0,1-.41,0h0a1.52,1.52,0,0,1,0-.45V460.56c0-.25,0-.39,0-.43a2,2,0,0,1,.45-.05h56.36c.26,0,.4,0,.43,0a1.52,1.52,0,0,1,.05.45Z" transform="translate(-120.73 -407.78)"/><path class="cls-2" d="M355,544.36a5.19,5.19,0,1,0,0,10.37,5.13,5.13,0,0,0,3.71-1.47,5.19,5.19,0,0,0-3.71-8.9Z" transform="translate(-120.73 -407.78)"/><path class="cls-2" d="M306.38,565.52h-170a5.63,5.63,0,0,1-5.63-5.63V423.42a5.64,5.64,0,0,1,5.63-5.64H348.2a5.64,5.64,0,0,1,5.63,5.64V440.6a3.5,3.5,0,0,0,7,0V423.42a12.65,12.65,0,0,0-12.63-12.64H136.36a12.65,12.65,0,0,0-12.63,12.64V559.89a12.64,12.64,0,0,0,12.63,12.63h170a3.5,3.5,0,0,0,0-7Z" transform="translate(-120.73 -407.78)"/><path class="cls-2" d="M236.94,548.86a5.34,5.34,0,1,0,5.34-5.33A5.34,5.34,0,0,0,236.94,548.86Z" transform="translate(-120.73 -407.78)"/></svg>