<?xml version="1.0" standalone="no"?>
<!DOCTYPE svg PUBLIC "-//W3C//DTD SVG 1.1//EN" "http://www.w3.org/Graphics/SVG/1.1/DTD/svg11.dtd" >
<svg xmlns="http://www.w3.org/2000/svg">
<metadata>Generated by IcoMoon</metadata>
<defs>
<font id="vcpb-plugin-icons" horiz-adv-x="1024">
<font-face units-per-em="1024" ascent="960" descent="-64" />
<missing-glyph horiz-adv-x="1024" />
<glyph unicode="&#x20;" horiz-adv-x="512" d="" />
<glyph unicode="&#xe5c4;" glyph-name="icon-arrow_back" d="M854 468.667v-84h-520l238-240-60-60-342 342 342 342 60-60-238-240h520z" />
<glyph unicode="&#xe5c5;" glyph-name="icon-arrow_drop_down" d="M298 512.667h428l-214-214z" />
<glyph unicode="&#xe5c7;" glyph-name="icon-arrow_drop_up" d="M298 340.667l214 214 214-214h-428z" />
<glyph unicode="&#xe5c8;" glyph-name="icon-arrow_forward" d="M512 768.667l342-342-342-342-60 60 238 240h-520v84h520l-238 240z" />
<glyph unicode="&#xe5ca;" glyph-name="icon-check" d="M384 248.667l452 452 60-60-512-512-238 238 60 60z" />
<glyph unicode="&#xe5d8;" glyph-name="icon-arrow_upward" d="M170 426.667l342 342 342-342-62-60-238 238v-520h-84v520l-240-238z" />
<glyph unicode="&#xe5db;" glyph-name="icon-arrow_downward" d="M854 426.667l-342-342-342 342 62 60 238-238v520h84v-520l240 238z" />
<glyph unicode="&#xe627;" glyph-name="icon-sync" d="M512 170.667v128l170-170-170-172v128c-188 0-342 154-342 342 0 66 20 130 54 182l62-62c-20-36-30-76-30-120 0-142 114-256 256-256zM512 768.667c188 0 342-154 342-342 0-66-20-130-54-182l-62 62c20 36 30 76 30 120 0 142-114 256-256 256v-128l-170 170 170 172v-128z" />
<glyph unicode="&#xe8b6;" glyph-name="icon-search" d="M406 340.667c106 0 192 86 192 192s-86 192-192 192-192-86-192-192 86-192 192-192zM662 340.667l212-212-64-64-212 212v34l-12 12c-48-42-112-66-180-66-154 0-278 122-278 276s124 278 278 278 276-124 276-278c0-68-24-132-66-180l12-12h34z" />
<glyph unicode="&#xe900;" glyph-name="icon-1-1" horiz-adv-x="2487" d="M0 82.286h2486.857v-146.286h-2486.857v146.286zM0 521.143h2486.857v-146.286h-2486.857v146.286zM0 960h2486.857v-146.286h-2486.857v146.286z" />
<glyph unicode="&#xe901;" glyph-name="icon-1-2_1-2" horiz-adv-x="2487" d="M0 82.286h1170.286v-146.286h-1170.286v146.286zM0 521.143h1170.286v-146.286h-1170.286v146.286zM0 960h1170.286v-146.286h-1170.286v146.286zM1316.571 82.286h1170.286v-146.286h-1170.286v146.286zM1316.571 521.143h1170.286v-146.286h-1170.286v146.286zM1316.571 960h1170.286v-146.286h-1170.286v146.286z" />
<glyph unicode="&#xe902;" glyph-name="icon-1-3_1-3_1-3" horiz-adv-x="2487" d="M0 82.286h731.429v-146.286h-731.429v146.286zM0 521.143h731.429v-146.286h-731.429v146.286zM0 960h731.429v-146.286h-731.429v146.286zM877.714 82.286h804.571v-146.286h-804.571v146.286zM877.714 521.143h804.571v-146.286h-804.571v146.286zM877.714 960h804.571v-146.286h-804.571v146.286zM1828.571 82.286h658.286v-146.286h-658.286v146.286zM1828.571 521.143h658.286v-146.286h-658.286v146.286zM1828.571 960h658.286v-146.286h-658.286v146.286z" />
<glyph unicode="&#xe903;" glyph-name="icon-text-block" horiz-adv-x="1229" d="M68.267 106.667h1092.267c37.703 0 68.267-30.564 68.267-68.267 0-35.010-26.354-63.864-60.305-67.807l-7.961-0.459h-1092.267c-37.703 0-68.267 30.564-68.267 68.267 0 35.010 26.354 63.864 60.305 67.807l7.961 0.459zM68.267 516.267h546.133c37.703 0 68.267-30.564 68.267-68.267 0-35.010-26.354-63.864-60.305-67.807l-7.961-0.459h-546.133c-37.703 0-68.267 30.564-68.267 68.267 0 35.010 26.354 63.864 60.305 67.807l7.961 0.459zM68.267 925.867h1092.267c37.703 0 68.267-30.564 68.267-68.267 0-35.010-26.354-63.864-60.305-67.807l-7.961-0.459h-1092.267c-37.703 0-68.267 30.564-68.267 68.267 0 35.010 26.354 63.864 60.305 67.807l7.961 0.459z" />
<glyph unicode="&#xe904;" glyph-name="icon-1-4_1-2_1-4" horiz-adv-x="2487" d="M0 82.286h585.143v-146.286h-585.143v146.286zM0 521.143h585.143v-146.286h-585.143v146.286zM0 960h585.143v-146.286h-585.143v146.286zM731.429 82.286h1024v-146.286h-1024v146.286zM731.429 521.143h1024v-146.286h-1024v146.286zM731.429 960h1024v-146.286h-1024v146.286zM1901.714 82.286h585.143v-146.286h-585.143v146.286zM1901.714 521.143h585.143v-146.286h-585.143v146.286zM1901.714 960h585.143v-146.286h-585.143v146.286z" />
<glyph unicode="&#xe905;" glyph-name="icon-1-4_1-4_1-4_1-4" horiz-adv-x="2487" d="M0 82.286h512v-146.286h-512v146.286zM0 521.143h512v-146.286h-512v146.286zM0 960h512v-146.286h-512v146.286zM658.286 82.286h512v-146.286h-512v146.286zM658.286 521.143h512v-146.286h-512v146.286zM658.286 960h512v-146.286h-512v146.286zM1316.571 82.286h512v-146.286h-512v146.286zM1316.571 521.143h512v-146.286h-512v146.286zM1316.571 960h512v-146.286h-512v146.286zM1974.857 82.286h512v-146.286h-512v146.286zM1974.857 521.143h512v-146.286h-512v146.286zM1974.857 960h512v-146.286h-512v146.286z" />
<glyph unicode="&#xe906;" glyph-name="icon-1-4_3-4" horiz-adv-x="2487" d="M0 82.286h658.286v-146.286h-658.286v146.286zM0 521.143h658.286v-146.286h-658.286v146.286zM0 960h658.286v-146.286h-658.286v146.286zM804.571 82.286h1682.286v-146.286h-1682.286v146.286zM804.571 521.143h1682.286v-146.286h-1682.286v146.286zM804.571 960h1682.286v-146.286h-1682.286v146.286z" />
<glyph unicode="&#xe907;" glyph-name="icon-1-6_1-6_1-6_1-2" horiz-adv-x="2487" d="M0 82.286h292.571v-146.286h-292.571v146.286zM0 521.143h292.571v-146.286h-292.571v146.286zM0 960h292.571v-146.286h-292.571v146.286zM438.857 82.286h292.571v-146.286h-292.571v146.286zM438.857 521.143h292.571v-146.286h-292.571v146.286zM438.857 960h292.571v-146.286h-292.571v146.286zM877.714 82.286h292.571v-146.286h-292.571v146.286zM877.714 521.143h292.571v-146.286h-292.571v146.286zM877.714 960h292.571v-146.286h-292.571v146.286zM1316.571 82.286h1170.286v-146.286h-1170.286v146.286zM1316.571 521.143h1170.286v-146.286h-1170.286v146.286zM1316.571 960h1170.286v-146.286h-1170.286v146.286z" />
<glyph unicode="&#xe908;" glyph-name="icon-1-6_1-6_1-6_1-6_1-6_1-6" horiz-adv-x="2487" d="M0 82.286h292.571v-146.286h-292.571v146.286zM0 521.143h292.571v-146.286h-292.571v146.286zM0 960h292.571v-146.286h-292.571v146.286zM438.857 82.286h292.571v-146.286h-292.571v146.286zM438.857 521.143h292.571v-146.286h-292.571v146.286zM438.857 960h292.571v-146.286h-292.571v146.286zM877.714 82.286h292.571v-146.286h-292.571v146.286zM877.714 521.143h292.571v-146.286h-292.571v146.286zM877.714 960h292.571v-146.286h-292.571v146.286zM1316.571 82.286h292.571v-146.286h-292.571v146.286zM1316.571 521.143h292.571v-146.286h-292.571v146.286zM1316.571 960h292.571v-146.286h-292.571v146.286zM1755.429 82.286h292.571v-146.286h-292.571v146.286zM1755.429 521.143h292.571v-146.286h-292.571v146.286zM1755.429 960h292.571v-146.286h-292.571v146.286zM2194.286 82.286h292.571v-146.286h-292.571v146.286zM2194.286 521.143h292.571v-146.286h-292.571v146.286zM2194.286 960h292.571v-146.286h-292.571v146.286z" />
<glyph unicode="&#xe909;" glyph-name="icon-l_15_15_15_15_15" horiz-adv-x="2487" d="M0 82.28h355.597v-146.286h-355.597v146.286zM0 521.138h355.597v-146.286h-355.597v146.286zM0 959.996h355.597v-146.286h-355.597v146.286zM533.396 82.28h355.597v-146.286h-355.597v146.286zM533.396 521.138h355.597v-146.286h-355.597v146.286zM533.396 959.996h355.597v-146.286h-355.597v146.286zM1066.792 82.28h355.597v-146.286h-355.597v146.286zM1066.792 521.138h355.597v-146.286h-355.597v146.286zM1066.792 959.996h355.597v-146.286h-355.597v146.286zM1600.188 82.28h355.597v-146.286h-355.597v146.286zM1600.188 521.138h355.597v-146.286h-355.597v146.286zM1600.188 959.996h355.597v-146.286h-355.597v146.286zM2133.585 82.28h355.597v-146.286h-355.597v146.286zM2133.585 521.138h355.597v-146.286h-355.597v146.286zM2133.585 959.996h355.597v-146.286h-355.597v146.286z" />
<glyph unicode="&#xe90a;" glyph-name="icon-1-6_2-3_1-6" horiz-adv-x="2121" d="M0 9.143c0 40.396 32.428 73.143 73.828 73.143h144.915c40.774 0 73.828-32.466 73.828-73.143 0-40.396-32.428-73.143-73.828-73.143h-144.915c-40.774 0-73.828 32.466-73.828 73.143zM0 448c0 40.396 32.428 73.143 73.828 73.143h144.915c40.774 0 73.828-32.466 73.828-73.143 0-40.396-32.428-73.143-73.828-73.143h-144.915c-40.774 0-73.828 32.466-73.828 73.143zM0 886.857c0 40.396 32.428 73.143 73.828 73.143h144.915c40.774 0 73.828-32.466 73.828-73.143 0-40.396-32.428-73.143-73.828-73.143h-144.915c-40.774 0-73.828 32.466-73.828 73.143zM365.714 9.143c0 40.396 32.982 73.143 72.76 73.143h1244.193c40.184 0 72.76-32.466 72.76-73.143 0-40.396-32.982-73.143-72.76-73.143h-1244.193c-40.184 0-72.76 32.466-72.76 73.143zM365.714 448c0 40.396 32.982 73.143 72.76 73.143h1244.193c40.184 0 72.76-32.466 72.76-73.143 0-40.396-32.982-73.143-72.76-73.143h-1244.193c-40.184 0-72.76 32.466-72.76 73.143zM365.714 886.857c0 40.396 32.982 73.143 72.76 73.143h1244.193c40.184 0 72.76-32.466 72.76-73.143 0-40.396-32.982-73.143-72.76-73.143h-1244.193c-40.184 0-72.76 32.466-72.76 73.143zM1828.571 9.143c0 40.396 32.428 73.143 73.828 73.143h144.915c40.774 0 73.828-32.466 73.828-73.143 0-40.396-32.428-73.143-73.828-73.143h-144.915c-40.774 0-73.828 32.466-73.828 73.143zM1828.571 448c0 40.396 32.428 73.143 73.828 73.143h144.915c40.774 0 73.828-32.466 73.828-73.143 0-40.396-32.428-73.143-73.828-73.143h-144.915c-40.774 0-73.828 32.466-73.828 73.143zM1828.571 886.857c0 40.396 32.428 73.143 73.828 73.143h144.915c40.774 0 73.828-32.466 73.828-73.143 0-40.396-32.428-73.143-73.828-73.143h-144.915c-40.774 0-73.828 32.466-73.828 73.143z" />
<glyph unicode="&#xe90b;" glyph-name="icon-2-3_1-3" horiz-adv-x="2487" d="M0 82.286h1536v-146.286h-1536v146.286zM0 521.143h1536v-146.286h-1536v146.286zM0 960h1536v-146.286h-1536v146.286zM1682.286 82.286h804.571v-146.286h-804.571v146.286zM1682.286 521.143h804.571v-146.286h-804.571v146.286zM1682.286 960h804.571v-146.286h-804.571v146.286z" />
<glyph unicode="&#xe90c;" glyph-name="icon-5-6_1-6" horiz-adv-x="2487" d="M0 82.286h2048v-146.286h-2048v146.286zM0 521.143h2048v-146.286h-2048v146.286zM0 960h2048v-146.286h-2048v146.286zM2194.286 82.286h292.571v-146.286h-292.571v146.286zM2194.286 521.143h292.571v-146.286h-292.571v146.286zM2194.286 960h292.571v-146.286h-292.571v146.286z" />
<glyph unicode="&#xe90d;" glyph-name="icon-fullscreen_exit" horiz-adv-x="1063" d="M412.428 309.044c11.187-11.187 14.237-27.429 9.151-41.373l0.068-2.693v-222.407c0-21.752-17.633-39.385-39.385-39.385-20.198 0-36.845 15.204-39.12 34.792l-0.265 4.593v141.282l-208.459-208.516c-14.198-14.198-36.538-15.29-51.988-3.276l-3.71 3.276c-14.198 14.198-15.29 36.538-3.276 51.988l3.276 3.71 208.428 208.468-141.194-0.009c-20.198 0-36.845 15.204-39.12 34.792l-0.265 4.593c0 20.198 15.204 36.845 34.792 39.12l4.593 0.265 225.022-0.097c13.961 5.127 30.244 2.086 41.452-9.122zM734.407 318.262h222.407c21.752 0 39.385-17.633 39.385-39.385 0-20.198-15.204-36.845-34.792-39.12l-4.593-0.265-141.242 0.009 208.476-208.468c15.381-15.381 15.381-40.318 0-55.698-14.198-14.198-36.538-15.29-51.988-3.276l-3.71 3.276-208.468 208.476 0.009-141.242c0-20.198-15.204-36.845-34.792-39.12l-4.593-0.265c-20.198 0-36.845 15.204-39.12 34.792l-0.265 4.593v222.407c0 0.903 0.030 1.799 0.090 2.687-5.114 13.92-2.069 30.182 9.129 41.38 9.953 9.953 23.909 13.466 36.686 10.537l4.726-1.4 2.654 0.082zM1024.048 920.664c14.198-14.198 15.29-36.538 3.276-51.988l-3.276-3.71-208.516-208.459h141.282c20.198 0 36.845-15.204 39.12-34.792l0.265-4.593c0-20.198-15.204-36.845-34.792-39.12l-4.593-0.265-225.061 0.082c-13.953-5.107-30.215-2.061-41.412 9.136s-14.243 27.46-9.136 41.412l-0.082 2.654v222.407c0 21.752 17.633 39.385 39.385 39.385 20.198 0 36.845-15.204 39.12-34.792l0.265-4.593-0.009-141.194 208.468 208.428c15.381 15.381 40.318 15.381 55.698 0zM91.324 923.94l3.71-3.276 247.843-247.852v180.618c0 20.198 15.204 36.845 34.792 39.12l4.593 0.265c20.198 0 36.845-15.204 39.12-34.792l0.265-4.593v-222.407c0-14.448-7.779-27.078-19.378-33.932-6.070-10.288-16.725-17.578-29.164-19.071l-4.743-0.283-10.079-0.088c-8.455-2.972-17.722-2.972-26.177 0l-186.151 0.088c-21.752 0-39.385 17.633-39.385 39.385 0 20.198 15.204 36.845 34.792 39.12l4.593 0.265h101.849l-208.467 208.459c-14.198 14.198-15.29 36.538-3.276 51.988l3.276 3.71c14.198 14.198 36.538 15.29 51.988 3.276z" />
<glyph unicode="&#xe90e;" glyph-name="icon-1-6_4-6_1-6" horiz-adv-x="2487" d="M0 82.286h292.571v-146.286h-292.571v146.286zM0 521.143h292.571v-146.286h-292.571v146.286zM0 960h292.571v-146.286h-292.571v146.286zM438.857 82.286h1609.143v-146.286h-1609.143v146.286zM438.857 521.143h1609.143v-146.286h-1609.143v146.286zM438.857 960h1609.143v-146.286h-1609.143v146.286zM2194.286 82.286h292.571v-146.286h-292.571v146.286zM2194.286 521.143h292.571v-146.286h-292.571v146.286zM2194.286 960h292.571v-146.286h-292.571v146.286z" />
<glyph unicode="&#xe90f;" glyph-name="icon-add" d="M448 512h-383.944c-35.599 0-64.056-28.654-64.056-64 0-35.593 28.679-64 64.056-64h383.944v-383.944c0-35.599 28.654-64.056 64-64.056 35.593 0 64 28.679 64 64.056v383.944h383.944c35.599 0 64.056 28.654 64.056 64 0 35.593-28.679 64-64.056 64h-383.944v383.944c0 35.599-28.654 64.056-64 64.056-35.593 0-64-28.679-64-64.056v-383.944z" />
<glyph unicode="&#xe910;" glyph-name="icon-fullscreen" d="M956.814-36.199h-222.407c-21.752 0-39.385 17.633-39.385 39.385 0 20.198 15.204 36.845 34.792 39.12l4.593 0.265 127.328 0.005-210.779 210.771c-15.381 15.381-15.381 40.318 0 55.698 14.198 14.198 36.538 15.29 51.988 3.276l3.71-3.276 210.771-210.779 0.005 127.328c0 20.198 15.204 36.845 34.792 39.12l4.593 0.265c20.198 0 36.845-15.204 39.12-34.792l0.265-4.593-0.069-224.739-0.365-3.535-0.973-4.603-0.563-1.856-1.252-3.301-2.053-4.081-2.085-3.222-2.656-3.312-1.52-1.608-1.443-1.373-3.493-2.818-3.208-2.070-4.077-2.051-3.312-1.258-4.408-1.17-2.995-0.491-4.913-0.303zM373.044 309.044c14.198-14.198 15.29-36.538 3.276-51.988l-3.276-3.71-210.818-210.771 127.368-0.005c20.198 0 36.845-15.204 39.12-34.792l0.265-4.593c0-20.198-15.204-36.845-34.792-39.12l-4.593-0.265-225.75 0.162-2.524 0.272-4.603 0.973-1.856 0.563-3.301 1.252-4.081 2.053-3.222 2.085-1.721 1.35-3.199 2.827-3.004 3.368-1.999 2.75-2.253 3.857-1.945 4.483-0.923 2.915-0.978 4.629-0.413 4.547-0.021 223.708c0 21.752 17.633 39.385 39.385 39.385 20.198 0 36.845-15.204 39.12-34.792l0.265-4.593-0.035-127.368 210.81 210.818c15.381 15.381 40.318 15.381 55.698 0zM289.593 932.199c21.752 0 39.385-17.633 39.385-39.385 0-20.198-15.204-36.845-34.792-39.12l-4.593-0.265-127.407 0.035 210.858-210.81c14.198-14.198 15.29-36.538 3.276-51.988l-3.276-3.71c-14.198-14.198-36.538-15.29-51.988-3.276l-3.71 3.276-210.81 210.858 0.035-127.407c0-20.198-15.204-36.845-34.792-39.12l-4.593-0.265c-20.198 0-36.845 15.204-39.12 34.792l-0.265 4.593v222.407l0.142 3.357 0.292 2.51 0.973 4.603 0.563 1.856 1.252 3.301 2.053 4.081 2.085 3.222 1.35 1.721 2.827 3.199c1.064 1.064 2.188 2.067 3.368 3.004l2.75 1.999 3.857 2.253 4.483 1.945 2.915 0.923 4.629 0.978 4.547 0.413 223.708 0.021zM734.407 932.199l225.711-0.162 2.563-0.272 4.603-0.973 3.864-1.283 3.481-1.56 2.61-1.449 2.426-1.604 1.721-1.367 3.278-2.866 1.55-1.641 2.049-2.491 2.184-3.212 1.991-3.687 1.412-3.388 0.937-2.954 1.147-5.883 0.265-4.593v-222.407c0-21.752-17.633-39.385-39.385-39.385-20.198 0-36.845 15.204-39.12 34.792l-0.265 4.593-0.005 127.368-210.771-210.818c-14.198-14.198-36.538-15.29-51.988-3.276l-3.71 3.276c-14.198 14.198-15.29 36.538-3.276 51.988l3.276 3.71 210.818 210.81-127.368-0.035c-20.198 0-36.845 15.204-39.12 34.792l-0.265 4.593c0 20.198 15.204 36.845 34.792 39.12l4.593 0.265z" />
<glyph unicode="&#xe911;" glyph-name="icon-content_copy" d="M0 550.594c0 113.001 92.079 204.606 205.196 204.606h340.542c113.327 0 205.196-91.588 205.196-204.606v-409.989c0-113.001-92.079-204.606-205.196-204.606h-340.542c-113.327 0-205.196 91.588-205.196 204.606v409.989zM136.533 482.263v-273.326c0-75.871 61.309-136.404 136.937-136.404h203.992c76.415 0 136.937 61.070 136.937 136.404v273.326c0 75.871-61.309 136.404-136.937 136.404h-203.992c-76.415 0-136.937-61.070-136.937-136.404zM750.933 140.8h67.871c113.117 0 205.196 91.605 205.196 204.606v409.989c0 113.017-91.869 204.606-205.196 204.606h-340.542c-113.117 0-205.196-91.605-205.196-204.606v-0.194h154.644c23.492 40.807 67.586 68.267 118.827 68.267h203.992c75.628 0 136.937-60.532 136.937-136.404v-273.326c0-75.201-60.309-136.188-136.533-136.403v-136.534z" />
<glyph unicode="&#xe912;" glyph-name="icon-delete_empty" d="M512 568.68l-361.986 361.986c-33.563 33.563-87.407 33.377-120.732 0.053-33.557-33.557-33.301-87.378 0.053-120.732l361.986-361.986-361.986-361.986c-33.563-33.563-33.377-87.407-0.053-120.732 33.557-33.557 87.378-33.301 120.732 0.053l361.986 361.986 361.986-361.986c33.563-33.563 87.407-33.377 120.732-0.053 33.557 33.557 33.301 87.378-0.053 120.732l-361.986 361.986 361.986 361.986c33.563 33.563 33.377 87.407 0.053 120.732-33.557 33.557-87.378 33.301-120.732-0.053l-361.986-361.986z" />
<glyph unicode="&#xe913;" glyph-name="icon-dragndrop" d="M960.804 342.927c-39.719 6.856-77.475-19.784-84.331-59.501-0.769-4.449-1.122-8.963-1.056-13.478v-36.49c-0.011-16.831 3.861-33.439 11.312-48.532l10.217-20.799-113.484 113.119-2.189 1.824-72.98 72.98c-28.517 28.517-74.75 28.517-103.267 0s-28.517-74.75 0-103.267l187.194-187.194-18.975 9.122c-14.471 7.998-30.563 12.614-47.072 13.501h-36.49c-40.305 0.13-73.085-32.44-73.213-72.745-0.007-2.027 0.071-4.053 0.233-6.073 4.495-38.746 37.628-67.776 76.629-67.142h255.43c40.305 0 72.98 32.674 72.98 72.98v255.43c1.049 36.896-24.72 69.146-60.938 76.264zM344.83 83.157c-4.449 0.769-8.963 1.122-13.478 1.056h-36.49c-16.831 0.011-33.439-3.861-48.532-11.312l-20.799-10.217 669.591 667.402-8.758-18.61c-6.931-14.598-10.546-30.549-10.582-46.707v-36.49c-0.13-40.305 32.44-73.085 72.745-73.213 2.027-0.007 4.053 0.071 6.073 0.233 38.606 4.481 67.589 37.402 67.142 76.264v255.43c0 40.305-32.674 72.98-72.98 72.98h-255.43c-36.647 0.901-68.649-24.64-75.899-60.573-6.856-39.719 19.784-77.475 59.501-84.331 4.449-0.769 8.963-1.122 13.478-1.056h36.49c16.831-0.011 33.439 3.861 48.532 11.312l20.799 10.217-285.352-283.162-280.973 280.973 18.61-8.758c14.598-6.931 30.549-10.546 46.707-10.582h36.49c40.305-0.13 73.085 32.44 73.213 72.745 0.007 2.027-0.071 4.053-0.233 6.073-4.481 38.606-37.402 67.589-76.264 67.142h-255.43c-40.305 0-72.98-32.674-72.98-72.98v-255.43c-0.901-36.647 24.64-68.649 60.573-75.899 39.719-6.856 77.475 19.784 84.331 59.501 0.769 4.449 1.122 8.963 1.056 13.478v36.49c0.011 16.831-3.861 33.439-11.312 48.532l-10.582 18.245 283.527-282.797-281.703-281.703 9.122 18.975c7.111 14.678 10.851 30.761 10.947 47.072v36.49c0.13 40.305-32.44 73.085-72.745 73.213-2.027 0.007-4.053-0.071-6.073-0.233-38.606-4.481-67.589-37.402-67.142-76.264v-255.43c0-40.305 32.674-72.98 72.98-72.98h255.43c36.647-0.901 68.649 24.64 75.899 60.573 6.856 39.719-19.784 77.475-59.501 84.331z" />
<glyph unicode="&#xe914;" glyph-name="icon-close" d="M10.737 940.18l4.259 4.823c18.457 18.457 47.499 19.877 67.584 4.259l4.823-4.259 424.596-424.556 424.596 424.556c18.457 18.457 47.499 19.877 67.584 4.259l4.823-4.259c18.457-18.457 19.877-47.499 4.259-67.584l-4.259-4.823-424.607-424.596 424.607-424.596c18.457-18.457 19.877-47.499 4.259-67.584l-4.259-4.823c-18.457-18.457-47.499-19.877-67.584-4.259l-4.823 4.259-424.596 424.607-424.596-424.607c-18.457-18.457-47.499-19.877-67.584-4.259l-4.823 4.259c-18.457 18.457-19.877 47.499-4.259 67.584l4.259 4.823 424.556 424.596-424.556 424.596c-18.457 18.457-19.877 47.499-4.259 67.584v0z" />
<glyph unicode="&#xe915;" glyph-name="icon-add_element" d="M507.407 959.735l4.593 0.265c20.198 0 36.845-15.204 39.12-34.792l0.265-4.593v-433.231h433.231c20.198 0 36.845-15.204 39.12-34.792l0.265-4.593c0-20.198-15.204-36.845-34.792-39.12l-4.593-0.265h-433.231v-433.231c0-20.198-15.204-36.845-34.792-39.12l-4.593-0.265c-20.198 0-36.845 15.204-39.12 34.792l-0.265 4.593v433.231h-433.231c-20.198 0-36.845 15.204-39.12 34.792l-0.265 4.593c0 20.198 15.204 36.845 34.792 39.12l4.593 0.265h433.231v433.231c0 20.198 15.204 36.845 34.792 39.12v0z" />
<glyph unicode="&#xe916;" glyph-name="icon-arrow_drop_right" d="M426.667 233.344v427.989l214.016-214.016z" />
<glyph unicode="&#xe917;" glyph-name="icon-layout_portrait-smartphones" d="M274.551-41.739h460.058c90.158 0 163.246 73.088 163.246 163.246v652.986c0 90.158-73.088 163.246-163.246 163.246h-460.058c-90.158 0-163.246-73.088-163.246-163.246v-652.986c0-90.158 73.088-163.246 163.246-163.246zM274.551 47.304c-40.981 0-74.203 33.222-74.203 74.203v652.986c0 40.981 33.222 74.203 74.203 74.203h460.058c40.981 0 74.203-33.222 74.203-74.203v-652.986c0-40.981-33.222-74.203-74.203-74.203h-460.058zM578.783 225.391c0-36.883-29.9-66.783-66.783-66.783s-66.783 29.9-66.783 66.783c0 36.883 29.9 66.783 66.783 66.783s66.783-29.9 66.783-66.783z" />
<glyph unicode="&#xe918;" glyph-name="icon-layout_landscape-smartphones" d="M994.319 217.971v460.058c0 90.158-73.088 163.246-163.246 163.246h-652.986c-90.158 0-163.246-73.088-163.246-163.246v-460.058c0-90.158 73.088-163.246 163.246-163.246h652.986c90.158 0 163.246 73.088 163.246 163.246zM905.275 217.971c0-40.981-33.222-74.203-74.203-74.203h-652.986c-40.981 0-74.203 33.222-74.203 74.203v460.058c0 40.981 33.222 74.203 74.203 74.203h652.986c40.981 0 74.203-33.222 74.203-74.203v-460.058zM801.391 448c0-36.883-29.9-66.783-66.783-66.783s-66.783 29.9-66.783 66.783c0 36.883 29.9 66.783 66.783 66.783s66.783-29.9 66.783-66.783z" />
<glyph unicode="&#xe919;" glyph-name="icon-layout_portrait-tablets" horiz-adv-x="872" d="M158.025-45.037h543.605c76.802 0 139.062 62.26 139.062 139.062v707.951c0 76.802-62.26 139.062-139.062 139.062h-543.605c-76.802 0-139.062-62.26-139.062-139.062v-707.951c0-76.802 62.26-139.062 139.062-139.062zM158.025 30.815c-34.91 0-63.21 28.3-63.21 63.21v707.951c0 34.91 28.3 63.21 63.21 63.21h543.605c34.91 0 63.21-28.3 63.21-63.21v-707.951c0-34.91-28.3-63.21-63.21-63.21h-543.605zM493.037 182.519c0-31.419-25.47-56.889-56.889-56.889s-56.889 25.47-56.889 56.889c0 31.419 25.47 56.889 56.889 56.889s56.889-25.47 56.889-56.889z" />
<glyph unicode="&#xe91a;" glyph-name="icon-layout_landscape-tablets" d="M998.716 176.198v543.605c0 76.802-62.26 139.062-139.062 139.062h-707.951c-76.802 0-139.062-62.26-139.062-139.062v-543.605c0-76.802 62.26-139.062 139.062-139.062h707.951c76.802 0 139.062 62.26 139.062 139.062zM922.864 176.198c0-34.91-28.3-63.21-63.21-63.21h-707.951c-34.91 0-63.21 28.3-63.21 63.21v543.605c0 34.91 28.3 63.21 63.21 63.21h707.951c34.91 0 63.21-28.3 63.21-63.21v-543.605zM796.444 448c0-31.419-25.47-56.889-56.889-56.889s-56.889 25.47-56.889 56.889c0 31.419 25.47 56.889 56.889 56.889s56.889-25.47 56.889-56.889z" />
<glyph unicode="&#xe91b;" glyph-name="icon-layout_default" d="M144.41 960h735.179c77.183 0 140.223-60.551 144.21-136.741l0.2-7.669v-525.128c0-77.183-60.551-140.223-136.741-144.21l-7.669-0.2-199.024 0.026 24.535-98.045 44.799-44.799c23.732-23.732 8.687-63.578-23.374-66.998l-4.475-0.236h-420.103c-33.562 0-51.099 38.814-30.847 63.903l2.998 3.331 44.799 44.799 24.496 98.045-198.984-0.026c-77.183 0-140.223 60.551-144.21 136.741l-0.2 7.669v525.128c0 77.183 60.551 140.223 136.741 144.21l7.669 0.2zM599.355 146.078h-174.75l-31.935-127.732-1.076-3.576h240.813l-1.076 3.576-31.975 127.732zM945.231 356.116h-866.462v-65.654c0-34.345 26.376-62.528 59.977-65.4l5.664-0.241h735.179c34.345 0 62.528 26.376 65.4 59.977l0.241 5.664v65.654zM879.59 881.231h-735.179c-34.345 0-62.528-26.376-65.4-59.977l-0.241-5.664v-380.705h866.462v380.705c0 34.345-26.376 62.528-59.977 65.4l-5.664 0.241z" />
<glyph unicode="&#xe91c;" glyph-name="icon-minimize" d="M213.333 192h597.333v-85.333h-597.333v85.333z" />
<glyph unicode="&#xe91d;" glyph-name="icon-mode_edit" horiz-adv-x="956" d="M925.768 793.574l-103.765 103.801c-41.083 41.083-112.688 41.083-153.771 0l-560.561-560.525-77.25-283.322-18.903-18.903c-14.132-14.131-14.168-36.931-0.219-51.172l-0.182-0.728 0.728 0.182c7.066-6.92 16.244-10.453 25.422-10.453 9.324 0 18.648 3.569 25.75 10.671l18.903 18.903 283.322 77.25 560.525 560.561c20.542 20.542 31.869 47.821 31.869 76.886s-11.327 56.344-31.869 76.849zM260.034 317.911l304.797 304.797 86.269-86.269-304.797-304.797-86.269 86.269zM806.001 691.34l-35.134-35.134-86.269 86.269 35.134 35.134c13.549 13.549 37.186 13.585 50.735 0l35.534-35.534c6.774-6.774 10.526-15.77 10.526-25.349-0.036-9.579-3.751-18.611-10.526-25.386z" />
<glyph unicode="&#xe91e;" glyph-name="icon-row_default_fe" horiz-adv-x="2121" d="M0 9.143c0 40.396 33.318 73.143 73.015 73.143h1975.114c40.325 0 73.015-32.466 73.015-73.143 0-40.396-33.318-73.143-73.015-73.143h-1975.114c-40.325 0-73.015 32.466-73.015 73.143zM0 448c0 40.396 33.318 73.143 73.015 73.143h1975.114c40.325 0 73.015-32.466 73.015-73.143 0-40.396-33.318-73.143-73.015-73.143h-1975.114c-40.325 0-73.015 32.466-73.015 73.143zM0 886.857c0 40.396 33.318 73.143 73.015 73.143h1975.114c40.325 0 73.015-32.466 73.015-73.143 0-40.396-33.318-73.143-73.015-73.143h-1975.114c-40.325 0-73.015 32.466-73.015 73.143z" />
<glyph unicode="&#xe91f;" glyph-name="icon-cog" d="M387.793 868.24c37.273 124.798 218.952 122.298 250.443-7.509 3.846-15.874 15.043-28.957 30.132-35.208s32.258-4.921 46.216 3.59c116.291 70.845 249.409-62.241 178.582-178.578-8.491-13.94-9.818-31.094-3.574-46.175s19.311-26.275 35.149-30.126c132.345-32.106 132.345-220.36-0.011-252.469-15.874-3.846-28.957-15.043-35.208-30.132s-4.921-32.258 3.59-46.216c70.845-116.291-62.241-249.409-178.578-178.582-13.94 8.491-31.094 9.818-46.175 3.574s-26.275-19.311-30.126-35.149c-32.106-132.345-220.36-132.345-252.469 0.011-3.846 15.874-15.043 28.957-30.132 35.208s-32.258 4.921-46.216-3.59c-116.291-70.845-249.409 62.241-178.582 178.578 8.491 13.94 9.818 31.094 3.574 46.175s-19.311 26.275-35.149 30.126c-132.345 32.106-132.345 220.36 0.011 252.469 15.874 3.846 28.957 15.043 35.208 30.132s4.921 32.258-3.59 46.216c-70.845 116.291 62.241 249.409 178.611 178.562 28.049-17.122 64.243-3.578 74.818 26.69l3.476 12.404zM462.315 842.171l-1.974-7.239c-23.687-78.172-113.441-115.331-185.358-76.758l-10.798 6.098c-43.256 21.52-89.932-25.166-68.418-68.386l6.458-11.497c17.886-34.024 19.844-74.396 5.023-110.169s-44.756-62.932-81.455-74.335l-13.345-3.783c-44.906-15.663-44.905-80.539 0.019-96.207l13.342-3.789c36.673-11.426 66.572-38.579 81.375-74.33s12.852-76.092-5.005-110.093l-6.452-11.497c-21.52-43.256 25.166-89.932 68.386-68.418l11.497 6.458c34.024 17.886 74.396 19.844 110.169 5.023s62.932-44.756 74.335-81.455l3.783-13.345c15.663-44.906 80.539-44.905 96.207 0.019l3.789 13.342c11.426 36.673 38.579 66.572 74.33 81.375s76.092 12.852 110.093-5.005l11.497-6.452c43.256-21.52 89.932 25.166 68.418 68.386l-6.458 11.497c-17.886 34.024-19.844 74.396-5.023 110.169s44.756 62.932 81.455 74.335l13.345 3.783c44.906 15.663 44.905 80.539-0.019 96.207l-13.342 3.789c-36.673 11.426-66.572 38.579-81.375 74.33s-12.852 76.092 5.005 110.093l6.452 11.497c21.52 43.256-25.166 89.932-68.386 68.418l-11.497-6.458c-34.024-17.886-74.396-19.844-110.169-5.023s-62.932 44.756-74.335 81.455l-3.783 13.345c-16.266 46.633-85.603 44.839-97.786-5.381zM708.923 448c0-108.758-88.165-196.923-196.923-196.923s-196.923 88.165-196.923 196.923c0 108.758 88.165 196.923 196.923 196.923s196.923-88.165 196.923-196.923zM630.154 448c0 65.255-52.899 118.154-118.154 118.154s-118.154-52.899-118.154-118.154c0-65.255 52.899-118.154 118.154-118.154s118.154 52.899 118.154 118.154z" />
<glyph unicode="&#xe920;" glyph-name="icon-add_template" d="M452.923 487.385c54.379 0 98.462-44.083 98.462-98.462v-354.462c0-54.379-44.083-98.462-98.462-98.462h-354.462c-54.379 0-98.462 44.083-98.462 98.462v354.462c0 54.379 44.083 98.462 98.462 98.462h354.462zM925.538 487.385c54.379 0 98.462-44.083 98.462-98.462v-354.462c0-54.379-44.083-98.462-98.462-98.462h-118.154c-54.379 0-98.462 44.083-98.462 98.462v354.462c0 54.379 44.083 98.462 98.462 98.462h118.154zM452.923 408.615h-354.462c-10.876 0-19.692-8.817-19.692-19.692v-354.462c0-10.876 8.817-19.692 19.692-19.692h354.462c10.876 0 19.692 8.817 19.692 19.692v354.462c0 10.876-8.817 19.692-19.692 19.692zM925.538 408.615h-118.154c-10.876 0-19.692-8.817-19.692-19.692v-354.462c0-10.876 8.817-19.692 19.692-19.692h118.154c10.876 0 19.692 8.817 19.692 19.692v354.462c0 10.876-8.817 19.692-19.692 19.692zM925.538 960c54.379 0 98.462-44.083 98.462-98.462v-118.154c0-54.379-44.083-98.462-98.462-98.462h-827.077c-54.379 0-98.462 44.083-98.462 98.462v118.154c0 54.379 44.083 98.462 98.462 98.462h827.077zM925.538 881.231h-827.077c-10.876 0-19.692-8.817-19.692-19.692v-118.154c0-10.876 8.817-19.692 19.692-19.692h827.077c10.876 0 19.692 8.817 19.692 19.692v118.154c0 10.876-8.817 19.692-19.692 19.692z" />
<glyph unicode="&#xe921;" glyph-name="icon-redo" horiz-adv-x="1117" d="M779.792 286.105c-14.875 0.063-29.106 6.157-39.518 16.923-21.581 22.003-21.581 57.538 0 79.54l185.347 185.594h-563.833c-138.33 0-250.469-113.653-250.469-253.851s112.139-253.851 250.469-253.851h139.706c30.74 0 55.66-25.256 55.66-56.411s-24.92-56.411-55.66-56.411h-139.706c-199.81 0-361.788 164.166-361.788 366.674s161.978 366.674 361.788 366.674h564.389l-185.347 185.594c-19.080 22.244-18.047 55.626 2.371 76.615s53.336 22.509 75.553 3.489l282.195-282.057c10.419-10.646 16.227-25.058 16.143-40.052-0.064-15.076-6.077-29.499-16.7-40.052l-281.638-282.057c-10.367-10.422-24.36-16.297-38.962-16.359z" />
<glyph unicode="&#xe922;" glyph-name="icon-undo" horiz-adv-x="1117" d="M337.299 286.105c14.875 0.063 29.106 6.157 39.518 16.923 21.581 22.003 21.581 57.538 0 79.54l-185.347 185.594h563.833c138.33 0 250.469-113.653 250.469-253.851s-112.139-253.851-250.469-253.851h-139.706c-30.74 0-55.66-25.256-55.66-56.411s24.92-56.411 55.66-56.411h139.706c199.81 0 361.788 164.166 361.788 366.674s-161.978 366.674-361.788 366.674h-564.389l185.347 185.594c19.080 22.244 18.047 55.626-2.371 76.615s-53.336 22.509-75.553 3.489l-282.195-282.057c-10.419-10.646-16.227-25.058-16.142-40.052 0.063-15.076 6.076-29.499 16.699-40.052l281.638-282.057c10.367-10.422 24.36-16.297 38.962-16.359z" />
<glyph unicode="&#xe923;" glyph-name="icon-more" horiz-adv-x="256" d="M108.8 153.6c60.089 0 108.8-48.711 108.8-108.8s-48.711-108.8-108.8-108.8c-60.089 0-108.8 48.711-108.8 108.8s48.711 108.8 108.8 108.8zM108.8 51.2c-3.535 0-6.4-2.865-6.4-6.4s2.865-6.4 6.4-6.4c3.535 0 6.4 2.865 6.4 6.4s-2.865 6.4-6.4 6.4zM108.8 556.8c60.089 0 108.8-48.711 108.8-108.8s-48.711-108.8-108.8-108.8c-60.089 0-108.8 48.711-108.8 108.8s48.711 108.8 108.8 108.8zM108.8 454.4c-3.535 0-6.4-2.865-6.4-6.4s2.865-6.4 6.4-6.4c3.535 0 6.4 2.865 6.4 6.4s-2.865 6.4-6.4 6.4zM108.8 960c60.089 0 108.8-48.711 108.8-108.8s-48.711-108.8-108.8-108.8c-60.089 0-108.8 48.711-108.8 108.8s48.711 108.8 108.8 108.8zM108.8 857.6c-3.535 0-6.4-2.865-6.4-6.4s2.865-6.4 6.4-6.4c3.535 0 6.4 2.865 6.4 6.4s-2.865 6.4-6.4 6.4z" />
<glyph unicode="&#xe924;" glyph-name="icon-paste" horiz-adv-x="887" d="M546.133 960c92.405 0 170.517-61.198 196.015-145.275 84.12-25.542 145.318-103.653 145.318-196.058v-477.867c0-113.108-91.692-204.8-204.8-204.8h-477.867c-113.108 0-204.8 91.692-204.8 204.8v477.867c0 92.405 61.198 170.517 145.275 196.015 25.542 84.12 103.653 145.318 196.058 145.318h204.8zM546.133 550.4h-204.8c-80.791 0-150.656 46.782-183.984 114.734l-0.821 1.804c-10.589-10.589-17.716-24.64-19.536-40.31l-0.459-7.961v-477.867c0-35.010 26.354-63.864 60.305-67.807l7.961-0.459h477.867c35.010 0 63.864 26.354 67.807 60.305l0.459 7.961v477.867c0 18.851-7.641 35.918-19.995 48.272l-0.821-1.804c-33.328-67.952-103.193-114.734-183.984-114.734zM546.133 823.467h-204.8c-37.703 0-68.267-30.564-68.267-68.267 0-35.010 26.354-63.864 60.305-67.807l7.961-0.459h204.8c37.703 0 68.267 30.564 68.267 68.267s-30.564 68.267-68.267 68.267z" />
<glyph unicode="&#xe925;" glyph-name="icon-copy" d="M873.813 686.933c82.946 0 150.187-67.241 150.187-150.187v-450.56c0-82.946-67.241-150.187-150.187-150.187h-450.56c-82.946 0-150.187 67.241-150.187 150.187v450.56c0 82.946 67.241 150.187 150.187 150.187h450.56zM600.747 960c79.339 0 144.31-61.521 149.81-139.461l0.377-10.726h-600.747v-600.747c-79.339 0-144.31 61.521-149.81 139.461l-0.377 10.726v450.56c0 79.339 61.521 144.31 139.461 149.81l10.726 0.377h450.56z" />
<glyph unicode="&#xe926;" glyph-name="icon-duplicate" d="M0 345.6v409.6c0 113.108 91.692 204.8 204.8 204.8h409.6c109.068 0 198.223-85.26 204.452-192.766l0.348-12.034c113.108 0 204.8-91.692 204.8-204.8v-409.6c0-113.108-91.692-204.8-204.8-204.8h-409.6c-113.108 0-204.8 91.692-204.8 204.8-113.108 0-204.8 91.692-204.8 204.8zM819.2 618.667h-409.6c-35.010 0-63.864-26.354-67.807-60.305l-0.459-7.961v-409.6c0-35.010 26.354-63.864 60.305-67.807l7.961-0.459h409.6c35.010 0 63.864 26.354 67.807 60.305l0.459 7.961v409.6c0 35.010-26.354 63.864-60.305 67.807l-7.961 0.459zM614.4 823.467h-409.6c-35.010 0-63.864-26.354-67.807-60.305l-0.459-7.961v-409.6c0-35.010 26.354-63.864 60.305-67.807l7.961-0.459v273.067c0 113.108 91.692 204.8 204.8 204.8h273.067c0 35.010-26.354 63.864-60.305 67.807l-7.961 0.459z" />
</font>
</defs>
</svg>
