<svg xmlns="http://www.w3.org/2000/svg" xmlns:xlink="http://www.w3.org/1999/xlink" enable-background="new 0 0 30.59 24.352" height="30.769911511893383" version="1.1" width="30.769911511893497" xml:space="preserve" style=""><rect id="backgroundrect" width="100%" height="100%" x="0" y="0" fill="none" stroke="none" class="selected" style=""/><g class="currentLayer" style=""><title>Layer 1</title><path d="M29.421,1.952 l-0.78,-0.779 C27.887,0.41700000000000004 26.878,0 25.805,0 c-1.074,0 -2.082,0.41700000000000004 -2.838,1.174 L11.031,13.109 L7.623,9.703 C6.869,8.946 5.86,8.529 4.787,8.529 c-1.075,0 -2.083,0.41800000000000004 -2.839,1.176 l-0.774,0.774 c-1.564,1.565 -1.564,4.11 -0.0020000000000000005,5.674 l7.018,7.023 c0.7570000000000001,0.7580000000000001 1.7650000000000001,1.174 2.838,1.174 c1.074,0 2.082,-0.41700000000000004 2.838,-1.175 L29.419,7.6240000000000006 C30.98,6.059 30.98,3.515 29.421,1.952 zM28.139,6.3420000000000005 L12.583,21.896 c-0.42800000000000005,0.42800000000000005 -0.991,0.6420000000000001 -1.556,0.6420000000000001 c-0.5630000000000001,0 -1.1280000000000001,-0.21400000000000002 -1.556,-0.6420000000000001 l-7.018,-7.023 c-0.8540000000000001,-0.8540000000000001 -0.8540000000000001,-2.255 0,-3.11 l0.777,-0.777 c0.42700000000000005,-0.42800000000000005 0.992,-0.6440000000000001 1.556,-0.6440000000000001 s1.127,0.21600000000000003 1.5550000000000002,0.6440000000000001 l4.689,4.688000000000001 L24.249,2.454 c0.42800000000000005,-0.42700000000000005 0.991,-0.6420000000000001 1.556,-0.6420000000000001 c0.5630000000000001,0 1.127,0.21500000000000002 1.5550000000000002,0.6430000000000001 l0.779,0.777 C28.992,4.086 28.992,5.487 28.139,6.3420000000000005 z" id="svg_1" class="" fill="#ffffff" fill-opacity="1"/></g></svg>