<?xml version="1.0" encoding="utf-8"?>
<!-- Generator: Adobe Illustrator 18.0.0, SVG Export Plug-In . SVG Version: 6.00 Build 0)  -->
<!DOCTYPE svg PUBLIC "-//W3C//DTD SVG 1.1//EN" "http://www.w3.org/Graphics/SVG/1.1/DTD/svg11.dtd">
<svg version="1.1" id="Layer_1" xmlns="http://www.w3.org/2000/svg" xmlns:xlink="http://www.w3.org/1999/xlink" x="0px" y="0px"
	 width="265px" height="130px" viewBox="0 0 265 130" style="enable-background:new 0 0 265 130;" xml:space="preserve">
<style type="text/css">
	.st0{fill:#D5D5D5;}
</style>
<path class="st0" d="M191.6,60h-51.4c-2.2,0-4-1.8-4-4V4c0-2.2,1.8-4,4-4h51.4c2.2,0,4,1.8,4,4v52C195.6,58.2,193.8,60,191.6,60z"/>
<path class="st0" d="M261,130H140.6c-2.2,0-4-1.8-4-4V74c0-2.2,1.8-4,4-4H261c2.2,0,4,1.8,4,4v52C265,128.2,263.2,130,261,130z"/>
<path class="st0" d="M261,60h-51.4c-2.2,0-4-1.8-4-4V4c0-2.2,1.8-4,4-4H261c2.2,0,4,1.8,4,4v52C265,58.2,263.2,60,261,60z"/>
<path class="st0" d="M122.2,130H4c-2.2,0-4-1.8-4-4V4c0-2.2,1.8-4,4-4h118.2c2.2,0,4,1.8,4,4v122C126.2,128.2,124.4,130,122.2,130z"
	/>
</svg>
