<?xml version="1.0" encoding="utf-8"?>
<!-- Generator: Adobe Illustrator 18.0.0, SVG Export Plug-In . SVG Version: 6.00 Build 0)  -->
<!DOCTYPE svg PUBLIC "-//W3C//DTD SVG 1.1//EN" "http://www.w3.org/Graphics/SVG/1.1/DTD/svg11.dtd">
<svg version="1.1" id="Layer_1" xmlns="http://www.w3.org/2000/svg" xmlns:xlink="http://www.w3.org/1999/xlink" x="0px" y="0px"
	 width="265px" height="130px" viewBox="0 0 265 130" style="enable-background:new 0 0 265 130;" xml:space="preserve">
<style type="text/css">
	.st0{fill:#D5D5D5;}
</style>
<path class="st0" d="M191,70H72.2c-2.2,0-3.9,1.8-3.9,4v52c0,2.2,1.8,4,3.9,4H191c2.2,0,3.9-1.8,3.9-4V74C195,71.8,193.2,70,191,70z
	"/>
<path class="st0" d="M210.6,70H261c2.2,0,4,1.8,4,4v52c0,2.2-1.8,4-4,4h-50.4c-2.2,0-4-1.8-4-4V74C206.6,71.8,208.4,70,210.6,70z"/>
<path class="st0" d="M72.3,0h50.4c2.2,0,4,1.8,4,4v52c0,2.2-1.8,4-4,4H72.3c-2.2,0-4-1.8-4-4V4C68.3,1.8,70.1,0,72.3,0z"/>
<path class="st0" d="M4,0h50.4c2.2,0,4,1.8,4,4v122c0,2.2-1.8,4-4,4H4c-2.2,0-4-1.8-4-4V4C0,1.8,1.8,0,4,0z"/>
<path class="st0" d="M265,4.4v51.1c0,2.2-1.8,4-4,4H140.5c-2.2,0-4-1.8-4-4V4.4c0-2.2,1.8-4,4-4H261C263.2,0.4,265,2.2,265,4.4z"/>
</svg>
