<?xml version="1.0" encoding="utf-8"?>
<!-- Generator: Adobe Illustrator 18.0.0, SVG Export Plug-In . SVG Version: 6.00 Build 0)  -->
<!DOCTYPE svg PUBLIC "-//W3C//DTD SVG 1.1//EN" "http://www.w3.org/Graphics/SVG/1.1/DTD/svg11.dtd">
<svg version="1.1" id="Layer_1" xmlns="http://www.w3.org/2000/svg" xmlns:xlink="http://www.w3.org/1999/xlink" x="0px" y="0px"
	 width="265px" height="130px" viewBox="0 0 265 130" style="enable-background:new 0 0 265 130;" xml:space="preserve">
<style type="text/css">
	.st0{fill:#D5D5D5;}
</style>
<path class="st0" d="M184.9,130H80.1c-2.2,0-4-1.8-4-4V4c0-2.2,1.8-4,4-4h104.8c2.2,0,4,1.8,4,4v122
	C188.9,128.2,187.1,130,184.9,130z"/>
<path class="st0" d="M62,59.4H4c-2.2,0-4-1.8-4-4V4c0-2.2,1.8-4,4-4h58c2.2,0,4,1.8,4,4v51.4C66,57.6,64.2,59.4,62,59.4z"/>
<path class="st0" d="M62,130H4c-2.2,0-4-1.8-4-4V74c0-2.2,1.8-4,4-4h58c2.2,0,4,1.8,4,4v52C66,128.2,64.2,130,62,130z"/>
<path class="st0" d="M261,59.4h-58c-2.2,0-4-1.8-4-4V4c0-2.2,1.8-4,4-4h58c2.2,0,4,1.8,4,4v51.4C265,57.6,263.2,59.4,261,59.4z"/>
<path class="st0" d="M261,129.9h-58c-2.2,0-4-1.8-4-4V74c0-2.2,1.8-4,4-4h58c2.2,0,4,1.8,4,4v51.9C265,128.1,263.2,129.9,261,129.9z
	"/>
</svg>
