<?xml version="1.0" encoding="utf-8"?>
<!-- Generator: Adobe Illustrator 18.0.0, SVG Export Plug-In . SVG Version: 6.00 Build 0)  -->
<!DOCTYPE svg PUBLIC "-//W3C//DTD SVG 1.1//EN" "http://www.w3.org/Graphics/SVG/1.1/DTD/svg11.dtd">
<svg version="1.1" id="Layer_1" xmlns="http://www.w3.org/2000/svg" xmlns:xlink="http://www.w3.org/1999/xlink" x="0px" y="0px"
	 width="265px" height="130px" viewBox="0 0 265 130" style="enable-background:new 0 0 265 130;" xml:space="preserve">
<style type="text/css">
	.st0{fill:#D5D5D5;}
</style>
<g>
	<path class="st0" d="M191.6,129.9h-51.4c-2.2,0-4-1.8-4-4v-52c0-2.2,1.8-4,4-4h51.4c2.2,0,4,1.8,4,4v52
		C195.6,128.1,193.8,129.9,191.6,129.9z"/>
	<path class="st0" d="M261,129.9h-51.4c-2.2,0-4-1.8-4-4v-52c0-2.2,1.8-4,4-4H261c2.2,0,4,1.8,4,4v52
		C265,128.1,263.2,129.9,261,129.9z"/>
	<path class="st0" d="M191.6,59.9h-51.4c-2.2,0-4-1.8-4-4v-52c0-2.2,1.8-4,4-4h51.4c2.2,0,4,1.8,4,4v52
		C195.6,58.1,193.8,59.9,191.6,59.9z"/>
	<path class="st0" d="M261,59.9h-51.4c-2.2,0-4-1.8-4-4v-52c0-2.2,1.8-4,4-4H261c2.2,0,4,1.8,4,4v52C265,58.1,263.2,59.9,261,59.9z"
		/>
	<path class="st0" d="M122.2,129.9H4c-2.2,0-4-1.8-4-4V3.9c0-2.2,1.8-4,4-4h118.2c2.2,0,4,1.8,4,4v122
		C126.2,128.1,124.5,129.9,122.2,129.9z"/>
</g>
</svg>
