<?xml version="1.0" encoding="utf-8"?>
<!-- Generator: Adobe Illustrator 18.0.0, SVG Export Plug-In . SVG Version: 6.00 Build 0)  -->
<!DOCTYPE svg PUBLIC "-//W3C//DTD SVG 1.1//EN" "http://www.w3.org/Graphics/SVG/1.1/DTD/svg11.dtd">
<svg version="1.1" id="Layer_1" xmlns="http://www.w3.org/2000/svg" xmlns:xlink="http://www.w3.org/1999/xlink" x="0px" y="0px"
	 width="265px" height="130px" viewBox="0 0 265 130" style="enable-background:new 0 0 265 130;" xml:space="preserve">
<style type="text/css">
	.st0{fill:#D5D5D5;}
</style>
<path class="st0" d="M54.5,130H4c-2.2,0-4-1.8-4-4V4c0-2.2,1.8-4,4-4h50.5c2.2,0,4,1.8,4,4v122C58.5,128.2,56.7,130,54.5,130z"/>
<path class="st0" d="M122.9,130H72.4c-2.2,0-4-1.8-4-4V4c0-2.2,1.8-4,4-4h50.5c2.2,0,4,1.8,4,4v122C126.9,128.2,125.1,130,122.9,130
	z"/>
<path class="st0" d="M191.2,130h-50.5c-2.2,0-4-1.8-4-4V4c0-2.2,1.8-4,4-4h50.5c2.2,0,4,1.8,4,4v122
	C195.2,128.2,193.4,130,191.2,130z"/>
<path class="st0" d="M261,130h-50.5c-2.2,0-4-1.8-4-4V4c0-2.2,1.8-4,4-4H261c2.2,0,4,1.8,4,4v122C265,128.2,263.2,130,261,130z"/>
</svg>
