<?xml version="1.0" encoding="utf-8"?>
<!-- Generator: Adobe Illustrator 18.0.0, SVG Export Plug-In . SVG Version: 6.00 Build 0)  -->
<!DOCTYPE svg PUBLIC "-//W3C//DTD SVG 1.1//EN" "http://www.w3.org/Graphics/SVG/1.1/DTD/svg11.dtd">
<svg version="1.1" id="Layer_1" xmlns="http://www.w3.org/2000/svg" xmlns:xlink="http://www.w3.org/1999/xlink" x="0px" y="0px"
	 width="265px" height="130px" viewBox="0 0 265 130" style="enable-background:new 0 0 265 130;" xml:space="preserve">
<style type="text/css">
	.st0{fill:#D5D5D5;}
</style>
<path class="st0" d="M56.7,59.9H4c-2.2,0-4-1.8-4-4V4c0-2.2,1.8-4,4-4h52.7c2.2,0,4,1.8,4,4v51.9C60.7,58.1,59,59.9,56.7,59.9z"/>
<path class="st0" d="M261,59.9h-52.7c-2.2,0-4-1.8-4-4V4c0-2.2,1.8-4,4-4H261c2.2,0,4,1.8,4,4v51.9C265,58.1,263.2,59.9,261,59.9z"
	/>
<path class="st0" d="M189.5,59.9H75.1c-2.2,0-4-1.8-4-4V4c0-2.2,1.8-4,4-4h114.3c2.2,0,4,1.8,4,4v51.9
	C193.5,58.1,191.7,59.9,189.5,59.9z"/>
<path class="st0" d="M143,130H4.2c-2.2,0-4-1.8-4-4V74.1c0-2.2,1.8-4,4-4H143c2.2,0,4,1.8,4,4V126C147,128.2,145.2,130,143,130z"/>
<path class="st0" d="M261,130h-99c-2.2,0-4-1.8-4-4V74.1c0-2.2,1.8-4,4-4h99c2.2,0,4,1.8,4,4V126C265,128.2,263.2,130,261,130z"/>
</svg>
