<?xml version="1.0" encoding="utf-8"?>
<!-- Generator: Adobe Illustrator 18.0.0, SVG Export Plug-In . SVG Version: 6.00 Build 0)  -->
<!DOCTYPE svg PUBLIC "-//W3C//DTD SVG 1.1//EN" "http://www.w3.org/Graphics/SVG/1.1/DTD/svg11.dtd">
<svg version="1.1" id="Layer_1" xmlns="http://www.w3.org/2000/svg" xmlns:xlink="http://www.w3.org/1999/xlink" x="0px" y="0px"
	 width="265px" height="130px" viewBox="0 0 265 130" style="enable-background:new 0 0 265 130;" xml:space="preserve">
<style type="text/css">
	.st0{fill:#D5D5D5;}
</style>
<path class="st0" d="M191.6,47.6h-51.4c-2.2,0-4-1.8-4-4V4c0-2.2,1.8-4,4-4h51.4c2.2,0,4,1.8,4,4v39.6
	C195.6,45.8,193.8,47.6,191.6,47.6z"/>
<path class="st0" d="M191.6,130h-51.4c-2.2,0-4-1.8-4-4V62.2c0-2.2,1.8-4,4-4h51.4c2.2,0,4,1.8,4,4V126
	C195.6,128.2,193.8,130,191.6,130z"/>
<path class="st0" d="M261,71.8h-51.4c-2.2,0-4-1.8-4-4V4c0-2.2,1.8-4,4-4H261c2.2,0,4,1.8,4,4v63.8C265,70,263.2,71.8,261,71.8z"/>
<path class="st0" d="M261,130h-51.4c-2.2,0-4-1.8-4-4V86.4c0-2.2,1.8-4,4-4H261c2.2,0,4,1.8,4,4V126C265,128.2,263.2,130,261,130z"
	/>
<path class="st0" d="M122.2,129.9H4c-2.2,0-4-1.8-4-4V4c0-2.2,1.8-4,4-4h118.2c2.2,0,4,1.8,4,4v121.9
	C126.2,128.1,124.4,129.9,122.2,129.9z"/>
</svg>
