<?xml version="1.0" encoding="utf-8"?>
<!-- Generator: Adobe Illustrator 18.0.0, SVG Export Plug-In . SVG Version: 6.00 Build 0)  -->
<!DOCTYPE svg PUBLIC "-//W3C//DTD SVG 1.1//EN" "http://www.w3.org/Graphics/SVG/1.1/DTD/svg11.dtd">
<svg version="1.1" id="Layer_1" xmlns="http://www.w3.org/2000/svg" xmlns:xlink="http://www.w3.org/1999/xlink" x="0px" y="0px"
	 width="265px" height="130px" viewBox="0 0 265 130" style="enable-background:new 0 0 265 130;" xml:space="preserve">
<style type="text/css">
	.st0{fill:#D5D5D5;}
</style>
<path class="st0" d="M261,47.6h-51.4c-2.2,0-4-1.8-4-4V4c0-2.2,1.8-4,4-4H261c2.2,0,4,1.8,4,4v39.6C265,45.8,263.2,47.6,261,47.6z"
	/>
<path class="st0" d="M261,130h-51.4c-2.2,0-4-1.8-4-4V62.2c0-2.2,1.8-4,4-4H261c2.2,0,4,1.8,4,4V126C265,128.2,263.2,130,261,130z"
	/>
<path class="st0" d="M55.4,71.8H4c-2.2,0-4-1.8-4-4V4c0-2.2,1.8-4,4-4h51.4c2.2,0,4,1.8,4,4v63.8C59.4,70,57.6,71.8,55.4,71.8z"/>
<path class="st0" d="M55.4,130H4c-2.2,0-4-1.8-4-4l0-39.6c0-2.2,1.8-4,4-4h51.4c2.2,0,4,1.8,4,4V126C59.4,128.2,57.6,130,55.4,130z"
	/>
<path class="st0" d="M191.6,129.9H73.4c-2.2,0-4-1.8-4-4V4c0-2.2,1.8-4,4-4h118.2c2.2,0,4,1.8,4,4v121.9
	C195.6,128.1,193.8,129.9,191.6,129.9z"/>
</svg>
