<svg width="46" height="41" viewBox="0 0 46 41" fill="none" xmlns="http://www.w3.org/2000/svg">
<g clip-path="url(#clip0_46_2745)">
<path fill-rule="evenodd" clip-rule="evenodd" d="M7.8017 11.1469H37.9694V17.393H7.8017V11.1469Z" fill="#BFD7EA"/>
<path fill-rule="evenodd" clip-rule="evenodd" d="M20.4446 18.9172H25.3266V23.1133H20.4446V18.9172Z" fill="#839788"/>
<path fill-rule="evenodd" clip-rule="evenodd" d="M12.8212 18.9172H17.7034V23.1133H12.8212V18.9172Z" fill="#BAA898"/>
<path fill-rule="evenodd" clip-rule="evenodd" d="M28.068 18.9172H32.95V23.1133H28.068V18.9172Z" fill="#EEE0CB"/>
<path fill-rule="evenodd" clip-rule="evenodd" d="M17.7034 8.04291H28.0678V9.56869H17.7034V8.04291Z" fill="#FF6B6B"/>
<path fill-rule="evenodd" clip-rule="evenodd" d="M22.1221 25.7463H23.6477V32.422H22.1221V25.7463Z" fill="#494949"/>
<path fill-rule="evenodd" clip-rule="evenodd" d="M27.1682 40.2237H18.603V31.659H27.1682V40.2239V40.2237ZM20.1286 38.6979H25.6426V33.1848H20.1288V38.6979H20.1286Z" fill="#494949"/>
<path fill-rule="evenodd" clip-rule="evenodd" d="M21.3598 35.1783H24.4111V36.7041H21.3598V35.1783Z" fill="#FF6B6B"/>
<path fill-rule="evenodd" clip-rule="evenodd" d="M45.7711 36.7039H37.206V28.1401H45.7711V36.7046V36.7039ZM38.732 35.1783H44.2451V29.6652H38.732V35.1783Z" fill="#494949"/>
<path fill-rule="evenodd" clip-rule="evenodd" d="M39.9628 31.659H43.0141V33.185H39.9628V31.659Z" fill="#FF6B6B"/>
<path fill-rule="evenodd" clip-rule="evenodd" d="M37.9694 33.185H31.4242V25.7463H32.95V31.659H37.9692M8.56446 36.7039H0V28.1401H8.5647V36.7046L8.56446 36.7039ZM1.52556 35.1783H7.03868V29.6652H1.52556V35.1783Z" fill="#494949"/>
<path fill-rule="evenodd" clip-rule="evenodd" d="M2.75725 31.659H5.80858V33.185H2.75795L2.75725 31.659Z" fill="#FF6B6B"/>
<path fill-rule="evenodd" clip-rule="evenodd" d="M14.347 33.185H7.8017V31.659H12.8212V25.7463H14.3467" fill="#494949"/>
<path fill-rule="evenodd" clip-rule="evenodd" d="M38.732 26.5091H7.03915V4.93872H38.732V26.5091ZM8.5647 24.9835H37.206V6.4645H8.5647V24.9835Z" fill="#494949"/>
<path fill-rule="evenodd" clip-rule="evenodd" d="M38.732 6.46472H7.03915V0.0549316H38.732V6.46472ZM8.5647 4.93871H37.206V1.58071H8.5647V4.93871Z" fill="#494949"/>
<path fill-rule="evenodd" clip-rule="evenodd" d="M10.0903 2.49683H11.6158V4.02284H10.09L10.0903 2.49683ZM13.1409 2.49683H14.6664V4.02284H13.1407L13.1409 2.49683ZM16.1922 2.49683H17.718V4.02284H16.1922V2.49683Z" fill="#494949"/>
</g>
<defs>
<clipPath id="clip0_46_2745">
<rect width="46" height="40.2786" fill="white"/>
</clipPath>
</defs>
</svg>
