<svg width="46" height="46" viewBox="0 0 46 46" fill="none" xmlns="http://www.w3.org/2000/svg">
<g clip-path="url(#clip0_46_3140)">
<path fill-rule="evenodd" clip-rule="evenodd" d="M16.5449 19.0706V6.32104H0V27.2202H4.35375V33.1413L10.2752 27.2202H34.8309V19.0706" fill="#BFCDC2"/>
<path fill-rule="evenodd" clip-rule="evenodd" d="M5.26987 22.0942H6.88559V23.8892H5.26987V22.0942ZM8.50131 22.0942H10.117V23.8892H8.50131V22.0942ZM11.7318 22.0942H13.3476V23.8892H11.7318V22.0942Z" fill="#494949"/>
<path fill-rule="evenodd" clip-rule="evenodd" d="M23.1838 5.76038H38.2928V7.50196H23.1838V5.76038Z" fill="#FF6B6B"/>
<path fill-rule="evenodd" clip-rule="evenodd" d="M23.1838 9.14392H38.2928V10.8855H23.1838V9.14392Z" fill="#BAA898"/>
<path fill-rule="evenodd" clip-rule="evenodd" d="M23.1838 12.5271H30.7388V14.2687H23.1838V12.5271Z" fill="#EEE0CB"/>
<path fill-rule="evenodd" clip-rule="evenodd" d="M45.7711 19.9098H15.7054V0.119019H45.7711V19.9098ZM17.3839 18.2316H44.0932V1.7979H17.3839V18.2316Z" fill="#494949"/>
<path fill-rule="evenodd" clip-rule="evenodd" d="M13.5842 32.306H40.4038V45.1943H13.5842V32.306Z" fill="#BFD7EA"/>
<path fill-rule="evenodd" clip-rule="evenodd" d="M17.4159 34.3964H19.1575V36.138H17.4159V34.3964ZM20.8987 34.3964H22.6402V36.138H20.8987V34.3964ZM24.3814 34.3964H26.123V36.138H24.3814V34.3964ZM27.8655 34.3964H29.6066V36.138H27.865L27.8655 34.3964ZM31.3482 34.3964H33.0898V36.138H31.3482V34.3964ZM34.8309 34.3964H36.5725V36.138H34.8309V34.3964ZM17.4159 41.3623H19.1575V43.1039H17.4159V41.3623ZM34.8309 41.3623H36.5725V43.1039H34.8309V41.3623ZM20.8987 41.3623H33.0898V43.1039H20.8987V41.3623ZM15.6743 37.8795H17.4155V39.6211H15.6739L15.6743 37.8795ZM19.1571 37.8795H20.8987V39.6211H19.1571V37.8795ZM22.6402 37.8795H24.3818V39.6211H22.6402V37.8795ZM26.123 37.8795H27.8653V39.6211H26.1214L26.123 37.8795ZM29.6066 37.8795H31.3482V39.6211H29.6066V37.8795ZM33.0898 37.8795H34.8314V39.6211H33.0898V37.8795ZM36.5725 37.8795H38.3141V39.6211H36.5725V37.8795Z" fill="white"/>
<path fill-rule="evenodd" clip-rule="evenodd" d="M38.8231 25.4403H44.3827V27.1819H38.8233L38.8231 25.4403ZM32.2188 28.8228H44.3824V30.5644H32.2188V28.8228Z" fill="#494949"/>
<path d="M7.43781 19.4528C10.6608 19.4528 13.2736 16.84 13.2736 13.6169C13.2736 10.3939 10.6608 7.78113 7.43781 7.78113C4.21478 7.78113 1.60199 10.3939 1.60199 13.6169C1.60199 16.84 4.21478 19.4528 7.43781 19.4528Z" fill="white"/>
<path fill-rule="evenodd" clip-rule="evenodd" d="M7.43782 8.49353C8.12942 8.49353 8.79264 8.62901 9.42657 8.90021C10.0605 9.17117 10.6059 9.53528 11.0629 9.99185C11.5195 10.4489 11.8836 10.9942 12.1545 11.6282C12.4257 12.2621 12.5612 12.9253 12.5612 13.6169C12.5612 14.3085 12.4257 14.9717 12.1545 15.6057C11.8836 16.2396 11.5195 16.785 11.0629 17.242C10.6059 17.6986 10.0605 18.0627 9.42657 18.3336C8.79264 18.6048 8.12942 18.7403 7.43782 18.7403C6.74621 18.7403 6.08299 18.6048 5.44906 18.3336C4.81513 18.0627 4.26977 17.6986 3.81274 17.242C3.35617 16.785 2.99206 16.2396 2.7211 15.6057C2.44991 14.9717 2.31442 14.3085 2.31442 13.6169C2.31442 12.9253 2.44991 12.2621 2.7211 11.6282C2.99206 10.9942 3.35617 10.4489 3.81274 9.99185C4.26977 9.53528 4.81513 9.17117 5.44906 8.90021C6.08299 8.62901 6.74621 8.49353 7.43782 8.49353ZM7.43782 18.4201C8.09097 18.4201 8.71323 18.2931 9.30459 18.0391C9.89596 17.7851 10.4061 17.4436 10.8352 17.0145C11.2643 16.5854 11.606 16.0751 11.86 15.4839C12.114 14.8926 12.241 14.2703 12.241 13.6169C12.241 12.9638 12.114 12.3415 11.86 11.7501C11.606 11.1588 11.2643 10.6487 10.8352 10.2196C10.4061 9.79046 9.89596 9.449 9.30459 9.19497C8.71323 8.94094 8.09097 8.81393 7.43782 8.81393C6.78466 8.81393 6.1624 8.94094 5.57104 9.19497C4.97968 9.449 4.46956 9.79046 4.04045 10.2196C3.61135 10.6487 3.26967 11.159 3.01564 11.7501C2.76161 12.3415 2.63459 12.9638 2.63459 13.6169C2.63459 14.569 2.89503 15.4443 3.41591 16.2428C3.59098 16.5033 3.79352 16.7532 4.02466 16.9921C4.46864 17.4406 4.98494 17.7908 5.57401 18.0425C6.16332 18.2943 6.78466 18.4201 7.43782 18.4201ZM7.43782 9.30025C8.02277 9.30025 8.58209 9.41467 9.11579 9.64307C9.64948 9.87147 10.1083 10.1777 10.4926 10.5619C10.8771 10.9464 11.1833 11.4064 11.4117 11.9396C11.6401 12.4729 11.7543 13.0336 11.7543 13.6172C11.7543 14.2007 11.6421 14.7614 11.4133 15.297C11.1844 15.8325 10.88 16.2902 10.4956 16.6747C10.1111 17.0591 9.65337 17.3658 9.11968 17.5947C8.58598 17.8231 8.02666 17.9373 7.44171 17.9373C6.5629 17.9373 5.76419 17.6963 5.04719 17.2141C5.3804 17.1967 5.70286 17.1065 6.01456 16.9449C6.32626 16.7825 6.59517 16.5712 6.82151 16.311C6.9071 16.5582 7.07783 16.7719 7.33414 16.9514C7.59046 17.131 7.91315 17.2207 8.30129 17.2207C8.85741 17.2207 9.37004 17.0331 9.84149 16.6566C10.3136 16.2813 10.6049 15.8281 10.7157 15.2995C10.8393 14.7571 10.7798 14.3017 10.5372 13.9355C10.2935 13.5675 9.90557 13.3839 9.37142 13.3839C9.17918 13.3839 8.97435 13.4286 8.75648 13.519C8.53907 13.6082 8.34683 13.719 8.17977 13.8513L8.84574 10.7837C8.85443 10.7235 8.84711 10.6777 8.82285 10.6457C8.79996 10.6136 8.7606 10.6068 8.70499 10.6239C8.46561 10.688 7.98089 10.7567 7.25084 10.8288C7.1744 10.8372 7.12199 10.8736 7.0943 10.9375C7.06684 11.0016 7.07142 11.0634 7.10735 11.1229C7.14396 11.1824 7.20072 11.2098 7.27762 11.2052C7.37145 11.2007 7.44468 11.203 7.49846 11.2121C7.55247 11.2201 7.59618 11.2425 7.63028 11.2785C7.66461 11.3151 7.68635 11.3577 7.69436 11.4066C7.70352 11.4558 7.70123 11.5293 7.68841 11.6277C7.67514 11.7261 7.65683 11.8323 7.63349 11.9481C7.6106 12.063 7.57902 12.2124 7.54057 12.3967C7.53599 12.4088 7.53371 12.4173 7.53371 12.4218L7.18813 13.9781C6.94486 13.5808 6.54734 13.3821 5.99717 13.3821C5.80035 13.3821 5.59438 13.4274 5.37926 13.5171C5.16413 13.6064 4.97304 13.7178 4.80666 13.8501C5.23371 11.882 5.45364 10.859 5.46645 10.7828C5.47973 10.7274 5.47446 10.6821 5.45043 10.6484C5.42755 10.6141 5.38795 10.605 5.33143 10.6223C5.15292 10.6693 4.77073 10.7249 4.18486 10.7887C4.58765 10.3241 5.07053 9.96027 5.63581 9.69708C6.20245 9.4339 6.80526 9.30345 7.44605 9.30345L7.43782 9.30025ZM3.85783 11.2025H3.89627C4.00727 11.1979 4.09149 11.2048 4.14916 11.2217C4.20683 11.2389 4.25054 11.2721 4.28052 11.321C4.31027 11.37 4.32217 11.4394 4.31577 11.5293C4.3089 11.6186 4.29219 11.7353 4.2645 11.8781C4.23658 12.0211 4.19928 12.1953 4.15236 12.3999C4.14779 12.4086 4.14595 12.415 4.14595 12.4193L3.49921 15.3846C3.24747 14.8296 3.1216 14.2403 3.1216 13.6169C3.1216 12.7335 3.36693 11.9284 3.85783 11.2025ZM6.49653 15.2949C6.39812 15.7389 6.2219 16.1062 5.96788 16.3964C5.71385 16.687 5.40764 16.8319 5.04902 16.8319C4.81421 16.8319 4.62403 16.7445 4.47917 16.5694C4.33385 16.3955 4.29746 16.1483 4.37 15.8279L4.58788 14.7591C4.65195 14.4868 4.80025 14.2579 5.033 14.0749C5.26575 13.8918 5.51016 13.8002 5.76625 13.8002C6.1164 13.8002 6.34984 13.9389 6.46747 14.2168C6.58487 14.4937 6.59448 14.8548 6.4963 15.2988L6.49653 15.2949ZM9.87147 15.2949C9.77764 15.7389 9.60256 16.1062 9.34624 16.3964C9.08993 16.687 8.78097 16.8319 8.42395 16.8319C8.18823 16.8319 7.99828 16.7445 7.8541 16.5694C7.70764 16.3955 7.67102 16.1483 7.74425 15.8279L7.96853 14.7591C8.03261 14.4868 8.17908 14.2579 8.41022 14.0749C8.64137 13.8918 8.88396 13.8002 9.14027 13.8002C9.49042 13.8002 9.72386 13.9389 9.84057 14.2168C9.95729 14.4937 9.96644 14.8548 9.86803 15.2988L9.87147 15.2949Z" fill="#444444"/>
</g>
<defs>
<clipPath id="clip0_46_3140">
<rect width="46" height="45.3134" fill="white"/>
</clipPath>
</defs>
</svg>
