<svg width="46" height="40" viewBox="0 0 46 40" fill="none" xmlns="http://www.w3.org/2000/svg">
<g clip-path="url(#clip0_46_2934)">
<path fill-rule="evenodd" clip-rule="evenodd" d="M1.21072 7.13H14.95V18.1086H1.21072V7.13Z" fill="#839788"/>
<path fill-rule="evenodd" clip-rule="evenodd" d="M46 39.5039H0V5.62811H46V39.5039ZM1.78296 37.7209H44.217V7.41061H1.78296V37.7209Z" fill="#494949"/>
<path fill-rule="evenodd" clip-rule="evenodd" d="M46 7.41062H0V0.0561523H46V7.41086V7.41062ZM1.78296 5.62812H44.217V1.8391H1.78296V5.6279V5.62812Z" fill="#494949"/>
<path fill-rule="evenodd" clip-rule="evenodd" d="M14.2637 6.51937H16.0466V38.6124H14.2637V6.51937ZM10.6978 2.84167H12.4807V4.62486H10.6978V2.84167ZM7.13184 2.84167H8.9148V4.62486H7.13184V2.84167ZM3.56593 2.84167H5.34887V4.62486H3.56593V2.84167ZM28.1704 14.5429H22.8217V9.19382H28.1706V14.5427L28.1704 14.5429ZM24.6047 12.7597H26.3877V10.9768H24.6033V12.7597H24.6047ZM35.302 14.5429H29.9534V9.19382H35.3022V14.5427L35.302 14.5429ZM31.7363 12.7597H33.5193V10.9768H31.7363V12.7597Z" fill="#494949"/>
<path fill-rule="evenodd" clip-rule="evenodd" d="M37.0852 9.19385H42.4341V14.5427H37.0852V9.19385Z" fill="#BFD7EA"/>
<path fill-rule="evenodd" clip-rule="evenodd" d="M24.15 17.02H41.63V20.7H24.15V17.02Z" fill="#EEE0CB"/>
<path fill-rule="evenodd" clip-rule="evenodd" d="M42.4341 21.6743H22.822V16.3254H42.4341V21.6743ZM24.6045 19.8914H40.6516V18.1084H24.6045V19.8914Z" fill="#BAA898"/>
<path fill-rule="evenodd" clip-rule="evenodd" d="M22.8217 23.4573H42.4339V28.8062H22.8217V23.4573Z" fill="#FF6B6B"/>
<path fill-rule="evenodd" clip-rule="evenodd" d="M31.7363 35.938H22.8215V30.5891H31.7363V35.938ZM24.6047 34.155H29.9536V32.3721H24.6047V34.155Z" fill="#BFD7EA"/>
<path fill-rule="evenodd" clip-rule="evenodd" d="M21.217 34.155H17.8296V10.9767H21.217V12.7597H19.6123V32.3718H21.2177" fill="#494949"/>
<path fill-rule="evenodd" clip-rule="evenodd" d="M18.7211 18.1083H21.2173V19.8913H18.7195L18.7211 18.1083ZM18.7211 25.2402H21.2173V27.0231H18.7195L18.7211 25.2402Z" fill="#494949"/>
<path fill-rule="evenodd" clip-rule="evenodd" d="M40.6511 32.3721H42.4341V34.155H40.6511V32.3721ZM37.0852 32.3721H38.8682V34.155H37.0852V32.3721ZM33.5193 32.3721H35.3022V34.155H33.5193V32.3721ZM3.56593 19.8914H12.4807V21.6743H3.56593V19.8914ZM3.56593 23.4573H12.4807V25.2402H3.56593V23.4573ZM3.56593 27.0232H12.4807V28.8062H3.56593V27.0232ZM3.56593 30.5891H12.4807V32.3721H3.56593V30.5891ZM3.56593 34.155H12.4807V35.938H3.56593V34.155Z" fill="#494949"/>
<path fill-rule="evenodd" clip-rule="evenodd" d="M5.08875 12.1194L5.49677 13.2775L4.69637 13.285C4.70603 13.1926 4.84749 12.8228 4.88498 12.7055L5.07403 12.142C5.08438 12.1213 5.08002 12.1304 5.08738 12.1208L5.08875 12.1194ZM9.67495 12.2542H10.2182V13.0758L9.67473 13.0767C9.60504 13.3669 9.39021 13.6363 9.16297 13.8058C8.33957 14.4199 7.07458 13.8334 7.06998 12.671C7.06676 11.9465 7.58057 11.3958 8.19513 11.2933C8.84833 11.1858 9.51763 11.6277 9.67334 12.2528L9.67495 12.2542ZM2.76 15.1345V15.1453L4.00108 15.1471L4.25363 14.4548C4.27571 14.4079 4.2527 14.4351 4.28398 14.418L5.91238 14.4196C5.93584 14.5024 6.15848 15.0981 6.18838 15.1361L7.48098 15.1476L7.41015 14.9574C7.76205 15.0715 8.03436 15.1839 8.50609 15.1782C9.04153 15.1713 9.55397 14.9206 9.89667 14.634C9.95693 14.5834 10.0006 14.5466 10.0577 14.4845C10.1094 14.4298 10.1612 14.3764 10.2152 14.3212L10.2166 15.1782H11.3705V14.2651C11.3705 14.1209 11.3533 13.4302 11.3774 13.3478L13.2197 13.3432V12.2197L11.3797 12.2201L11.3694 12.2054C11.3579 12.1673 11.3648 11.8121 11.3648 11.7677C11.3648 11.6734 11.3434 11.3652 11.3767 11.3015L13.3382 11.2969V10.1354H10.212L10.2166 11.0076C10.0165 10.8128 10.0545 10.8121 9.79294 10.6143C9.27038 10.2187 8.53576 10.0558 7.87704 10.2141C7.41934 10.3238 7.03525 10.5453 6.70865 10.8797C6.67185 10.9172 6.64792 10.948 6.6102 10.9864C6.46346 11.1341 6.26198 11.4782 6.1801 11.6939L6.14331 11.7698C6.09616 11.6162 5.74219 10.7571 5.65272 10.5292C5.60902 10.4188 5.53656 10.2054 5.48343 10.1175H4.67015L2.76 15.1359V15.1345Z" fill="white"/>
</g>
<defs>
<clipPath id="clip0_46_2934">
<rect width="46" height="39.56" fill="white"/>
</clipPath>
</defs>
</svg>
