<svg width="46" height="49" viewBox="0 0 46 49" fill="none" xmlns="http://www.w3.org/2000/svg">
<g clip-path="url(#clip0_46_3259)">
<path fill-rule="evenodd" clip-rule="evenodd" d="M0.968422 16.7053H9.68421V25.4211H0.968422V16.7053Z" fill="#BFCDC2"/>
<path fill-rule="evenodd" clip-rule="evenodd" d="M0.968422 30.2632H9.68421V38.979H0.968422V30.2632Z" fill="#BAA898"/>
<path fill-rule="evenodd" clip-rule="evenodd" d="M36.0737 29.5369H44.7895V38.2527H36.0737V29.5369Z" fill="#839788"/>
<path fill-rule="evenodd" clip-rule="evenodd" d="M36.0737 16.7053H44.7895V25.4211H36.0737V16.7053Z" fill="#EEE0CB"/>
<path fill-rule="evenodd" clip-rule="evenodd" d="M18.6421 38.979H27.3579V47.6948H18.6421V38.979Z" fill="#FF6B6B"/>
<path fill-rule="evenodd" clip-rule="evenodd" d="M25.3353 16.79L23.0005 21.1857L20.6666 16.79H14.2096V25.5809H31.7901V16.79" fill="#BFD7EA"/>
<path fill-rule="evenodd" clip-rule="evenodd" d="M32.6547 26.4471H13.3453V15.9261H20.6656V17.6553H15.0747V24.717H30.9253V17.6553H25.3351V15.9261H32.6547M10.6788 39.6316H0.159782V29.1107H10.6788V39.6316ZM1.88914 37.9025H8.94966V30.8403H1.88914V37.9025ZM19.4701 35.2355H12.2353V33.5057H17.7403V28.0014H19.4701M45.8402 39.6316H35.3212V29.1107H45.8402V39.6316ZM37.0504 37.9025H44.1109V30.8403H37.0504V37.9025ZM33.765 35.2355H26.5316V28.0014H28.2607V33.5057H33.7638" fill="#494949"/>
<path fill-rule="evenodd" clip-rule="evenodd" d="M45.8402 26.4451H35.3212V15.9257H45.8402V26.4458V26.4451ZM37.0504 24.7165H44.1109V17.655H37.0504V24.7162V24.7165Z" fill="#494949"/>
<path fill-rule="evenodd" clip-rule="evenodd" d="M31.7901 20.321H36.1858V22.0504H31.7901V20.321Z" fill="#494949"/>
<path fill-rule="evenodd" clip-rule="evenodd" d="M10.6788 26.4451H0.159782V15.9257H10.6788V26.4458V26.4451ZM1.88914 24.7165H8.94966V17.655H1.88914V24.7162V24.7165Z" fill="#494949"/>
<path fill-rule="evenodd" clip-rule="evenodd" d="M9.81422 20.321H14.2099V22.0504H9.81422V20.321Z" fill="#494949"/>
<path fill-rule="evenodd" clip-rule="evenodd" d="M22.1357 25.5808H23.8648V38.7671H22.1354L22.1357 25.5808Z" fill="#494949"/>
<path fill-rule="evenodd" clip-rule="evenodd" d="M28.2609 48.421H17.7403V37.9025H28.2607V48.421H28.2609ZM19.4701 46.6916H26.5316V39.6318H19.4701V46.6916Z" fill="#494949"/>
<path fill-rule="evenodd" clip-rule="evenodd" d="M23.0005 23.0291L16.6569 11.0831C15.9886 9.93794 15.6429 8.6572 15.6429 7.35588C15.6429 3.29989 18.9438 0 23.0005 0C27.0572 0 30.3581 3.29989 30.3581 7.35588C30.3581 8.65502 30.0131 9.93334 29.3589 11.0553L29.3516 11.0705L23.0005 23.0291ZM23.0005 1.7296C19.8974 1.7296 17.3725 4.25355 17.3725 7.35613C17.3725 8.36183 17.6425 9.35107 18.1533 10.2166L18.1775 10.2582L23.0015 19.3418L27.847 10.2156C28.3588 9.35059 28.629 8.3611 28.629 7.35637C28.629 4.25379 26.1043 1.72984 23.0005 1.72984V1.7296Z" fill="#494949"/>
<path d="M23.0005 10.612C24.7988 10.612 26.2566 9.15421 26.2566 7.35593C26.2566 5.55765 24.7988 4.09985 23.0005 4.09985C21.2022 4.09985 19.7444 5.55765 19.7444 7.35593C19.7444 9.15421 21.2022 10.612 23.0005 10.612Z" fill="#494949"/>
</g>
<defs>
<clipPath id="clip0_46_3259">
<rect width="46" height="48.4211" fill="white"/>
</clipPath>
</defs>
</svg>
