<svg width="46" height="39" viewBox="0 0 46 39" fill="none" xmlns="http://www.w3.org/2000/svg">
<g clip-path="url(#clip0_46_3086)">
<path fill-rule="evenodd" clip-rule="evenodd" d="M5.8587 7.32336H29.1715V9.15421H5.8587V7.32336ZM36.1288 7.32336H39.9124V9.15421H36.1288V7.32336Z" fill="#839788"/>
<path fill-rule="evenodd" clip-rule="evenodd" d="M31.3686 11.3512C29.6521 11.3512 28.2561 9.9552 28.2561 8.23878C28.2561 6.52236 29.6521 5.12634 31.3686 5.12634C33.0845 5.12634 34.481 6.52236 34.481 8.23878C34.481 9.9552 33.0845 11.3512 31.3686 11.3512ZM31.3686 6.95719C30.6619 6.95719 30.087 7.5323 30.087 8.23878C30.087 8.94526 30.6619 9.52038 31.3686 9.52038C32.075 9.52038 32.6502 8.94526 32.6502 8.23878C32.6502 7.5323 32.075 6.95719 31.3686 6.95719Z" fill="#494949"/>
<path fill-rule="evenodd" clip-rule="evenodd" d="M5.8587 29.2935H17.3473V31.1244H5.8587V29.2935ZM24.3045 29.2935H39.9124V31.1244H24.3045V29.2935Z" fill="#BAA898"/>
<path fill-rule="evenodd" clip-rule="evenodd" d="M19.5443 33.3214C17.8279 33.3214 16.4318 31.9254 16.4318 30.2089C16.4318 28.4925 17.8279 27.0965 19.5443 27.0965C21.2607 27.0965 22.6567 28.4925 22.6567 30.2089C22.6567 31.9254 21.2607 33.3214 19.5443 33.3214ZM19.5443 28.9273C18.8378 28.9273 18.2627 29.5022 18.2627 30.2089C18.2627 30.9156 18.8378 31.4905 19.5443 31.4905C20.2508 31.4905 20.8259 30.9156 20.8259 30.2089C20.8259 29.5022 20.2508 28.9273 19.5443 28.9273Z" fill="#494949"/>
<path fill-rule="evenodd" clip-rule="evenodd" d="M5.8587 12.8159H20.8716V14.6468H5.8587V12.8159ZM27.8289 12.8159H39.9124V14.6468H27.8289V12.8159Z" fill="#EEE0CB"/>
<path fill-rule="evenodd" clip-rule="evenodd" d="M23.0687 16.8438C21.3522 16.8438 19.9562 15.4478 19.9562 13.7313C19.9562 12.0149 21.3522 10.6189 23.0687 10.6189C24.7851 10.6189 26.1811 12.0149 26.1811 13.7313C26.1811 15.4478 24.7851 16.8438 23.0687 16.8438ZM23.0687 12.4497C22.3622 12.4497 21.7871 13.0249 21.7871 13.7313C21.7871 14.4378 22.362 15.0129 23.0687 15.0129C23.7754 15.0129 24.3503 14.4378 24.3503 13.7313C24.3503 13.0249 23.7754 12.4497 23.0687 12.4497Z" fill="#494949"/>
<path fill-rule="evenodd" clip-rule="evenodd" d="M5.8587 18.3085H9.09335V20.1393H5.8587V18.3085ZM16.0506 18.3085H39.9124V20.1393H16.0506V18.3085Z" fill="#BFD7EA"/>
<path fill-rule="evenodd" clip-rule="evenodd" d="M11.2904 22.3363C9.57395 22.3363 8.17793 20.9403 8.17793 19.2239C8.17793 17.5075 9.57395 16.1115 11.2904 16.1115C13.0068 16.1115 14.4028 17.5075 14.4028 19.2239C14.4028 20.9403 13.0068 22.3363 11.2904 22.3363ZM11.2904 17.9423C10.5839 17.9423 10.0088 18.5174 10.0088 19.2239C10.0088 19.9306 10.5839 20.5055 11.2904 20.5055C11.9968 20.5055 12.572 19.9306 12.572 19.2239C12.572 18.5174 11.9971 17.9423 11.2904 17.9423Z" fill="#494949"/>
<path fill-rule="evenodd" clip-rule="evenodd" d="M5.8587 23.801H24.6249V25.6319H5.8587V23.801ZM31.5821 23.801H39.9124V25.6319H31.5821V23.801Z" fill="#FF6B6B"/>
<path fill-rule="evenodd" clip-rule="evenodd" d="M26.8219 27.8289C25.1055 27.8289 23.7095 26.4329 23.7095 24.7164C23.7095 23 25.1055 21.604 26.8219 21.604C28.5379 21.604 29.9343 23 29.9343 24.7164C29.9343 26.4329 28.5379 27.8289 26.8219 27.8289ZM26.8219 23.4348C26.1152 23.4348 25.5403 24.0097 25.5403 24.7164C25.5403 25.4231 26.1152 25.998 26.8219 25.998C27.5284 25.998 28.1035 25.4231 28.1035 24.7164C28.1035 24.0097 27.5284 23.4348 26.8219 23.4348Z" fill="#494949"/>
<path fill-rule="evenodd" clip-rule="evenodd" d="M45.7711 20.1393C44.9393 20.1393 44.1577 19.8152 43.5702 19.2275C42.9828 18.6405 42.6589 17.859 42.6589 17.0269V3.11244C42.6589 2.76984 42.5262 2.4483 42.2836 2.20663C42.041 1.96404 41.7206 1.83085 41.3773 1.83085H39.9127V0H41.3773C42.2104 0 42.9908 0.324058 43.5789 0.91176C44.1671 1.49877 44.4912 2.28032 44.4912 3.11244V17.0269C44.4912 17.3695 44.6239 17.691 44.8665 17.9327C45.1091 18.1753 45.4308 18.3085 45.7727 18.3085V20.1393H45.7711Z" fill="#494949"/>
<path fill-rule="evenodd" clip-rule="evenodd" d="M41.3771 38.4478H39.9124V36.6169H41.3771C41.719 36.6169 42.0408 36.4842 42.2834 36.2416C42.5253 35.9995 42.6587 35.6777 42.6587 35.3353V21.4209C42.6587 20.5895 42.9825 19.8079 43.5705 19.22C44.1579 18.6318 44.9397 18.3085 45.7711 18.3085V20.1393C45.429 20.1393 45.1075 20.272 44.8649 20.5146C44.6227 20.7568 44.4896 21.0785 44.4896 21.4209V35.3353C44.4896 36.1668 44.1655 36.9483 43.5778 37.5362C42.9903 38.1244 42.2085 38.4478 41.3771 38.4478ZM0 20.1393V18.3085C0.342597 18.3085 0.663682 18.1757 0.905811 17.9331C1.1484 17.691 1.28159 17.3695 1.28159 17.0269V3.11244C1.28159 2.28078 1.60565 1.49901 2.19335 0.911533C2.7806 0.32406 3.56191 0 4.39403 0H5.85871V1.83085H4.39403C4.05143 1.83085 3.72989 1.96358 3.48822 2.20617C3.24563 2.4483 3.11244 2.76984 3.11244 3.11244V17.0269C3.11244 17.8585 2.78838 18.6403 2.20068 19.2278C1.61343 19.8152 0.831662 20.1393 0 20.1393Z" fill="#494949"/>
<path fill-rule="evenodd" clip-rule="evenodd" d="M5.85871 38.4478H4.39403C3.5626 38.4478 2.78128 38.1242 2.19335 37.5365C1.60565 36.9483 1.28159 36.1668 1.28159 35.3353V21.4209C1.28159 21.0785 1.14817 20.7568 0.906268 20.5146C0.663681 20.2721 0.342368 20.1393 0 20.1393V18.3085C0.831433 18.3085 1.61275 18.6321 2.20068 19.22C2.78884 19.8082 3.11244 20.5895 3.11244 21.4209V35.3353C3.11244 35.6777 3.24586 35.9995 3.48776 36.2416C3.72989 36.4842 4.05143 36.6169 4.39403 36.6169H5.85871V38.4478Z" fill="#494949"/>
</g>
<defs>
<clipPath id="clip0_46_3086">
<rect width="46" height="38.4478" fill="white"/>
</clipPath>
</defs>
</svg>
