<svg width="46" height="51" viewBox="0 0 46 51" fill="none" xmlns="http://www.w3.org/2000/svg">
<g clip-path="url(#clip0_46_2987)">
<path fill-rule="evenodd" clip-rule="evenodd" d="M35.6313 50.5494H0.0748215V5.67163H35.6313V10.399H33.7407V7.56269H1.96638V48.6589H33.7405V45.8226H35.631" fill="#494949"/>
<path fill-rule="evenodd" clip-rule="evenodd" d="M35.6305 7.56321H0.0750656V0H35.6303V7.56321H35.6305ZM1.96638 5.67266H33.7392V1.89055H1.96638V5.67241V5.67266Z" fill="#494949"/>
<path fill-rule="evenodd" clip-rule="evenodd" d="M4.8022 2.8363H6.69325V4.72685H4.80271L4.8022 2.8363ZM8.58406 2.8363H10.4746V4.72685H8.58406V2.8363ZM12.3657 2.8363H14.2562V4.72685H12.3657V2.8363Z" fill="#494949"/>
<path fill-rule="evenodd" clip-rule="evenodd" d="M4.8022 10.3998H12.2595V17.8568H4.8022V10.3998Z" fill="#BFD7EA"/>
<path fill-rule="evenodd" clip-rule="evenodd" d="M4.8022 19.7209H12.2595V27.1787H4.8022V19.7209Z" fill="#839788"/>
<path fill-rule="evenodd" clip-rule="evenodd" d="M4.8022 29.0427H12.2595V36.5002H4.8022V29.0427Z" fill="#BAA898"/>
<path fill-rule="evenodd" clip-rule="evenodd" d="M4.8022 38.3645H12.2595V45.8216H4.8022V38.3645Z" fill="#BFD7EA"/>
<path fill-rule="evenodd" clip-rule="evenodd" d="M14.124 10.3998H21.5808V17.8568H14.124V10.3998Z" fill="#EEE0CB"/>
<path fill-rule="evenodd" clip-rule="evenodd" d="M14.124 19.7209H21.5808V27.1787H14.124V19.7209Z" fill="#BAA898"/>
<path fill-rule="evenodd" clip-rule="evenodd" d="M14.124 29.0427H21.5808V36.5002H14.124V29.0427Z" fill="#BFD7EA"/>
<path fill-rule="evenodd" clip-rule="evenodd" d="M14.124 38.3645H21.5808V45.8216H14.124V38.3645Z" fill="#839788"/>
<path fill-rule="evenodd" clip-rule="evenodd" d="M23.4456 10.3998V17.8568H30.9034V10.4008H23.4456V10.3998ZM29.0121 15.966H25.3364V12.2906H29.0121V15.966ZM23.4456 19.7208V27.1787H30.9034V19.7208H23.4456ZM29.0121 25.2879H25.3364V21.6124H29.0121V25.2879Z" fill="#494949"/>
<path fill-rule="evenodd" clip-rule="evenodd" d="M23.4456 29.0427H30.9034V36.5002H23.4456V29.0427Z" fill="#BFD7EA"/>
<path fill-rule="evenodd" clip-rule="evenodd" d="M23.4456 38.3645H30.9034V45.8216H23.4456V38.3645Z" fill="#EEE0CB"/>
<path fill-rule="evenodd" clip-rule="evenodd" d="M38.4674 10.3998H45.9247V17.8568H38.4674V10.3998ZM38.4674 19.7211H45.9247V27.1787H38.4674V19.7211Z" fill="#FF6B6B"/>
<path fill-rule="evenodd" clip-rule="evenodd" d="M38.4674 29.0427V36.5002H45.9247V29.0427H38.4674ZM44.0336 34.6094H40.3582V30.9337H44.0336V34.6094ZM38.4674 38.3645V45.8216H45.9247V38.3645H38.4674ZM44.0336 43.9308H40.3582V40.2551H44.0336V43.9308ZM32.4161 13.1828H36.9542V15.0734H32.4161V13.1828ZM32.4161 22.5046H36.9542V24.3952H32.4161V22.5046ZM32.4161 31.8259H36.9542V33.7175H32.4161V31.8259ZM32.4161 41.1483H36.9542V43.0388H32.4161V41.1483Z" fill="#494949"/>
</g>
<defs>
<clipPath id="clip0_46_2987">
<rect width="46" height="50.8022" fill="white"/>
</clipPath>
</defs>
</svg>
