<svg width="46" height="46" viewBox="0 0 46 46" fill="none" xmlns="http://www.w3.org/2000/svg">
<path fill-rule="evenodd" clip-rule="evenodd" d="M22.8856 35.4108L12.0387 29.1493V16.6229L22.8856 10.3621L33.7322 16.6229L33.7329 29.1487L22.8856 35.4108ZM13.7341 28.1705L22.886 33.4537L32.038 28.1698L32.0373 17.6013L22.8856 12.3193L13.7336 17.6013V28.1705H13.7341Z" fill="#494949"/>
<path fill-rule="evenodd" clip-rule="evenodd" d="M22.8856 23.8642L12.4626 17.8462L13.3102 16.3781L22.8856 21.9067L32.4613 16.3781L33.309 17.8462" fill="#494949"/>
<path fill-rule="evenodd" clip-rule="evenodd" d="M22.0384 22.8856H23.7335V34.4322H22.0384V22.8856Z" fill="#494949"/>
<path fill-rule="evenodd" clip-rule="evenodd" d="M12.4626 17.8462L9.77238 16.2934H6.66681V14.5982H10.2278L13.3114 16.378" fill="#494949"/>
<path fill-rule="evenodd" clip-rule="evenodd" d="M0 12.0287H6.66657V18.6952H0V12.0287Z" fill="#BAA898"/>
<path fill-rule="evenodd" clip-rule="evenodd" d="M33.3086 17.8462L32.4609 16.378L35.5443 14.5982H39.1048V16.2934H35.999" fill="#494949"/>
<path fill-rule="evenodd" clip-rule="evenodd" d="M39.1046 12.0287H45.7712V18.6952H39.1046V12.0287Z" fill="#839788"/>
<path fill-rule="evenodd" clip-rule="evenodd" d="M39.1046 31.1736H35.5443L32.4609 29.3935L33.3086 27.9252L35.9988 29.4791H39.1044" fill="#494949"/>
<path fill-rule="evenodd" clip-rule="evenodd" d="M39.1046 27.0764H45.7712V33.743H39.1046V27.0764Z" fill="#EEE0CB"/>
<path fill-rule="evenodd" clip-rule="evenodd" d="M10.2266 31.1736H6.66656V29.4784H9.77214L12.4626 27.9252L13.3102 29.3945" fill="#494949"/>
<path fill-rule="evenodd" clip-rule="evenodd" d="M0 27.0764H6.66657V33.743H0V27.0764Z" fill="#BFCDC2"/>
<path fill-rule="evenodd" clip-rule="evenodd" d="M22.0384 6.66656H23.7335V11.3407H22.0384V6.66656Z" fill="#494949"/>
<path fill-rule="evenodd" clip-rule="evenodd" d="M19.5527 0H26.2193V6.66657H19.5527V0Z" fill="#BFD7EA"/>
<path fill-rule="evenodd" clip-rule="evenodd" d="M22.0384 34.4323H23.7335V39.1069H22.0384V34.4323Z" fill="#494949"/>
<path fill-rule="evenodd" clip-rule="evenodd" d="M19.5527 39.1046H26.2193V45.7712H19.5527V39.1046Z" fill="#FF6B6B"/>
<path fill-rule="evenodd" clip-rule="evenodd" d="M6.66658 4.97119H8.36171V6.66633H6.66635L6.66658 4.97119ZM37.4097 4.97119H39.1048V6.66633H37.4108L37.4097 4.97119ZM6.66658 39.1069H8.36171V40.802H6.66635L6.66658 39.1069ZM37.4097 39.1069H39.1048V40.802H37.4108L37.4097 39.1069Z" fill="#494949"/>
</svg>
