<svg width="46" height="35" viewBox="0 0 46 35" fill="none" xmlns="http://www.w3.org/2000/svg">
<g clip-path="url(#clip0_46_3057)">
<path fill-rule="evenodd" clip-rule="evenodd" d="M4.60001 31.97V24.38L45.54 8.73999L45.77 32.2" fill="#BFD7EA"/>
<path fill-rule="evenodd" clip-rule="evenodd" d="M40.9998 0.668152L36.3037 7.15024L33.0317 7.66889L29.7597 10.5103L26.4877 7.5371L23.2157 10.9404L20.8042 11.2104L18.3924 14.4879L13.9403 12.5329L9.48818 20.7738L6.89999 20.5459L4.31088 22.6175V26.5735L6.89999 25.3545L9.48841 26.3608L13.9401 22.2691L18.3906 24.1482L20.8014 21.3031L23.213 20.2368L26.485 17.3664L29.7579 19.7363L33.0296 17.3668L36.3016 17.0439L40.9982 13.8879L45.6929 15.6644V2.58474" fill="#BFCDC2"/>
<path fill-rule="evenodd" clip-rule="evenodd" d="M9.67678 26.5728L6.93196 25.2544L4.67796 26.5645L3.94196 24.6371L6.86526 22.9383L9.29866 24.1063L13.763 19.0375L18.1447 21.321L20.24 17.25L22.7463 16.8663L26.4362 12.8676L29.7597 14.72L32.7147 13.1974L38.18 10.81L42.55 11.04L45.6895 7.35999V15.18L40.8882 13.57L37.03 16.1L33.58 16.8663L29.7597 19.32L26.68 17.25L24.15 19.32L21.85 20.7L18.6406 23.891L14.1158 21.533" fill="#BAA898"/>
<path fill-rule="evenodd" clip-rule="evenodd" d="M9.67678 27.3597L6.93196 26.2925L4.67796 27.3528L3.94196 25.7929L6.86526 24.4175L9.29866 25.3628L13.763 21.2596L18.1422 23.1081L20.272 20.5947L22.7445 19.5022L26.4337 16.2652L29.7572 18.6721L32.712 16.532L36 16.2077L40.8852 12.924L46 14.858L45.3898 16.4708L41.1111 14.8516L36.6043 17.8807L33.3475 18.2018L29.7572 20.8008L26.5362 18.4686L23.6819 20.9726L21.3313 22.0117L18.638 25.1887L14.113 23.2797" fill="#494949"/>
<path fill-rule="evenodd" clip-rule="evenodd" d="M45.695 24.7997V31.9067H4.31113V30.2199L6.90001 29.3296L9.4882 29.4782L13.9398 26.9206L18.392 28.1212L20.8037 27.2748L23.2164 26.9381L26.4893 25.113L29.7618 27.1876L33.0338 25.113L36.3057 24.8018L41.0023 22.6812" fill="#EEE0CB"/>
<path fill-rule="evenodd" clip-rule="evenodd" d="M0 31.0445H45.695V32.7688H0V31.0445Z" fill="#494949"/>
<path fill-rule="evenodd" clip-rule="evenodd" d="M3.44861 0.00689697H5.17292V34.4931H3.44999L3.44861 0.00689697Z" fill="#494949"/>
<path fill-rule="evenodd" clip-rule="evenodd" d="M0 0.00689697H1.72431V1.73075H0V0.00689697ZM0 3.45529H1.72431V5.1796H0V3.45529ZM0 6.90368H1.72431V8.62868H0V6.90368ZM0 10.3523H1.72431V12.0773H0V10.3523ZM0 13.8014H1.72431V15.5257H0V13.8014ZM0 17.25H1.72431V18.9743H0V17.25ZM0 20.6984H1.72431V22.4229H0V20.6984ZM0 24.147H1.72431V25.8715H0V24.147ZM0 27.5959H1.72431V29.3202H0V27.5959Z" fill="#494949"/>
<path fill-rule="evenodd" clip-rule="evenodd" d="M11.8784 0.00689697H21.842V1.73098H11.8784V0.00689697ZM6.89725 3.45529H16.8599V5.1796H6.89725V3.45529ZM6.89725 0.00689697H10.218V1.73098H6.89725V0.00689697Z" fill="#FF6B6B"/>
</g>
<defs>
<clipPath id="clip0_46_3057">
<rect width="46" height="34.5" fill="white"/>
</clipPath>
</defs>
</svg>
