<svg width="46" height="53" viewBox="0 0 46 53" fill="none" xmlns="http://www.w3.org/2000/svg">
<g clip-path="url(#clip0_46_2975)">
<path fill-rule="evenodd" clip-rule="evenodd" d="M14.6364 33.4545H6.27274V25.0909H14.6364V33.4545ZM8.36364 31.3636H12.5455V27.1818H8.36364V31.3636Z" fill="#839788"/>
<path fill-rule="evenodd" clip-rule="evenodd" d="M27.1818 33.4545H18.8182V25.0909H27.1818V33.4545ZM20.9091 31.3636H25.0909V27.1818H20.9091V31.3636Z" fill="#BFD7EA"/>
<path fill-rule="evenodd" clip-rule="evenodd" d="M39.7273 33.4545H31.3636V25.0909H39.7273V33.4545ZM33.4546 31.3636H37.6364V27.1818H33.4546V31.3636Z" fill="#EEE0CB"/>
<path fill-rule="evenodd" clip-rule="evenodd" d="M14.6364 46H6.27274V37.6364H14.6364V46ZM8.36364 43.9091H12.5455V39.7273H8.36364V43.9091Z" fill="#BAA898"/>
<path fill-rule="evenodd" clip-rule="evenodd" d="M27.1818 46H18.8182V37.6364H27.1818V46ZM20.9091 43.9091H25.0909V39.7273H20.9091V43.9091Z" fill="#494949"/>
<path fill-rule="evenodd" clip-rule="evenodd" d="M31.3636 37.6364H39.7273V46H31.3636V37.6364Z" fill="#FF6B6B"/>
<path fill-rule="evenodd" clip-rule="evenodd" d="M46 52.2727H0V0H46V52.2727ZM2.09091 50.1818H43.9091V2.09091H2.09091V50.1818Z" fill="#494949"/>
<path fill-rule="evenodd" clip-rule="evenodd" d="M6.27274 6.27271H39.7273V20.9091H6.27274V6.27271Z" fill="#494949"/>
<path fill-rule="evenodd" clip-rule="evenodd" d="M9.81891 10.9851H17.6533C18.1491 10.9851 18.5505 11.3868 18.5505 11.8832V14.8763C18.5505 15.3724 18.1491 15.7741 17.6533 15.7741H14.8436L15.2294 16.7194L13.5331 15.7741H9.82178C9.32519 15.7741 8.92269 15.3724 8.92269 14.8763V11.8832C8.91746 11.3907 9.31997 10.9851 9.81656 10.9851H9.81891Z" fill="#9B5C8F"/>
<path fill-rule="evenodd" clip-rule="evenodd" d="M9.4057 11.8005C9.46058 11.7255 9.54344 11.6861 9.654 11.6782C9.85446 11.6626 9.96842 11.7572 9.99638 11.9618C10.1179 12.7851 10.2517 13.4822 10.3937 14.0527L11.2551 12.4108C11.3335 12.2611 11.4323 12.1824 11.5504 12.1746C11.7235 12.1641 11.8296 12.2739 11.873 12.5065C11.9712 13.0318 12.0972 13.4761 12.2467 13.8551C12.3492 12.8567 12.5222 12.1354 12.766 11.691C12.8251 11.5813 12.9119 11.5264 13.0258 11.5185C13.1163 11.5107 13.1991 11.5394 13.2741 11.5969C13.3486 11.6571 13.3878 11.7329 13.3957 11.8217C13.3996 11.8923 13.3878 11.9524 13.3565 12.0125C13.2031 12.2974 13.0768 12.7731 12.9749 13.4343C12.8763 14.0773 12.8411 14.5765 12.8646 14.9346C12.8724 15.0339 12.8567 15.1201 12.8175 15.1959C12.7705 15.2848 12.6999 15.3318 12.6111 15.3397C12.5091 15.3475 12.402 15.3005 12.3 15.1933C11.9341 14.8196 11.644 14.2602 11.4323 13.5154C11.1762 14.0198 10.988 14.3988 10.8651 14.6497C10.6325 15.0966 10.4365 15.324 10.2719 15.3371C10.1673 15.3449 10.0758 15.2553 9.99742 15.0652C9.79878 14.5504 9.58186 13.554 9.34924 12.0771C9.33879 11.9751 9.35708 11.8837 9.41197 11.8131L9.4057 11.8005ZM17.866 12.4187C17.7241 12.1704 17.5158 12.0209 17.2362 11.9618C17.1614 11.9461 17.0906 11.9383 17.0237 11.9383C16.646 11.9383 16.3389 12.1351 16.099 12.529C15.8943 12.8635 15.7921 13.2339 15.7921 13.6398C15.7921 13.943 15.8549 14.2027 15.9811 14.4194C16.1227 14.6677 16.3313 14.8172 16.6104 14.8763C16.6855 14.892 16.756 14.8998 16.8229 14.8998C17.2045 14.8998 17.5116 14.703 17.7476 14.3091C17.9523 13.9704 18.0547 13.6003 18.0547 13.1947C18.0547 12.8873 17.9894 12.6314 17.8639 12.4184L17.866 12.4187ZM17.37 13.5096C17.3125 13.7684 17.2158 13.9618 17.0694 14.0925C16.9544 14.1944 16.8472 14.2362 16.7505 14.2179C16.6564 14.197 16.578 14.116 16.5179 13.9618C16.4709 13.8389 16.4474 13.7161 16.4474 13.6037C16.4474 13.5044 16.4552 13.4051 16.4735 13.3162C16.5075 13.1542 16.5754 12.9973 16.6826 12.8457C16.8106 12.6523 16.9492 12.5739 17.0903 12.6001C17.1844 12.6184 17.2628 12.702 17.3229 12.8562C17.37 12.9764 17.3935 13.0993 17.3935 13.2143C17.3935 13.3162 17.3804 13.4155 17.3647 13.5044L17.37 13.5096ZM15.3967 12.4171C15.2555 12.1688 15.0412 12.0198 14.7668 11.9597C14.691 11.944 14.6204 11.9362 14.5525 11.9362C14.1735 11.9362 13.8677 12.1322 13.6272 12.5269C13.4208 12.8614 13.3188 13.2299 13.3188 13.6377C13.3188 13.9409 13.3816 14.1996 13.507 14.4165C13.6482 14.6648 13.8572 14.8138 14.1369 14.8713C14.2101 14.887 14.2833 14.8948 14.3486 14.8948C14.7302 14.8948 15.036 14.6962 15.2738 14.3042C15.4777 13.9644 15.5796 13.5959 15.5796 13.1881C15.5796 12.8797 15.5169 12.6236 15.3888 12.4119L15.3967 12.4171ZM14.9001 13.507C14.8452 13.7657 14.7459 13.9592 14.5995 14.0898C14.4845 14.1918 14.3774 14.2336 14.2806 14.2153C14.1866 14.1944 14.1082 14.1134 14.048 13.9592C14.001 13.8363 13.9775 13.7135 13.9775 13.6011C13.9775 13.5018 13.9853 13.4024 14.0036 13.3136C14.0376 13.1515 14.1055 12.9947 14.2127 12.8431C14.3408 12.6497 14.4793 12.5713 14.6204 12.5974C14.7145 12.6157 14.7929 12.6994 14.853 12.8536C14.9001 12.9738 14.9236 13.0967 14.9236 13.2117C14.9236 13.3136 14.9158 13.4129 14.8949 13.5018L14.9001 13.507ZM19.5419 12.3805C19.2779 12.6393 19.1472 12.9712 19.1472 13.3711C19.1472 13.7997 19.2753 14.1499 19.5367 14.4139C19.7954 14.6779 20.1326 14.8112 20.556 14.8112C20.6762 14.8112 20.8147 14.7903 20.9637 14.7485V14.1136C20.8252 14.1528 20.7076 14.1727 20.6056 14.1727C20.3966 14.1727 20.2319 14.1021 20.1065 13.9636C19.9784 13.8225 19.9156 13.6327 19.9156 13.3925C19.9156 13.1677 19.9784 12.9848 20.0986 12.841C20.2241 12.6973 20.3783 12.6241 20.5665 12.6241C20.6893 12.6241 20.8174 12.645 20.9585 12.6842V12.0465C20.8278 12.0125 20.6815 11.9968 20.5299 11.9968C20.1274 11.9942 19.7954 12.1249 19.5341 12.3837L19.5419 12.3805ZM22.2732 11.9911C21.9099 11.9911 21.6276 12.1113 21.4237 12.3518C21.2199 12.5922 21.1205 12.9294 21.1205 13.3632C21.1205 13.8311 21.2225 14.1892 21.4237 14.4375C21.6224 14.6857 21.9177 14.8112 22.3045 14.8112C22.6783 14.8112 22.9658 14.6831 23.167 14.4348C23.3656 14.1865 23.4702 13.8363 23.4702 13.3868C23.4702 12.9372 23.3683 12.5896 23.1618 12.3465C22.9527 12.1061 22.6574 11.9832 22.2732 11.9832V11.9911ZM22.5842 14.0376C22.5136 14.1473 22.4064 14.2022 22.2732 14.2022C22.1477 14.2022 22.051 14.1473 21.9857 14.0349C21.9177 13.9252 21.8863 13.703 21.8863 13.3685C21.8863 12.851 22.0144 12.5948 22.2784 12.5948C22.5528 12.5948 22.6939 12.8536 22.6939 13.3789C22.6887 13.7004 22.6495 13.9226 22.5789 14.0323L22.5842 14.0376ZM25.4121 12.0643L25.271 12.6654C25.2344 12.817 25.2004 12.9764 25.1691 13.1359L25.0907 13.5514C25.0149 13.1332 24.9129 12.6367 24.7822 12.059H23.8675L23.5251 14.7406H24.2099L24.3954 12.8928L24.8633 14.7406H25.3523L25.8018 12.898L25.9939 14.7406H26.7101L26.3481 12.059H25.4124L25.4121 12.0643ZM28.6896 12.0643L28.5485 12.6654C28.5119 12.817 28.4779 12.9764 28.4466 13.1359L28.3682 13.5514C28.2924 13.1332 28.1904 12.6367 28.0597 12.059H27.145L26.8026 14.7406H27.4874L27.6729 12.8928L28.1408 14.7406H28.6269L29.0712 12.898L29.2646 14.7406H29.9808L29.6175 12.059H28.6844L28.6896 12.0643ZM30.9164 13.6873H31.5568V13.1306H30.9164V12.6367H31.6561V12.0643H30.1925V14.7459H31.6587V14.1735H30.9164V13.6795V13.6873ZM33.6974 13.2613C33.7705 13.1385 33.8097 13.013 33.8097 12.8823C33.8097 12.6288 33.7104 12.4276 33.5144 12.2838C33.3158 12.1374 33.0466 12.0616 32.7068 12.0616H31.8626V14.7432H32.5866V13.5201H32.597L33.1825 14.7406H33.9457L33.3662 13.5305C33.5032 13.4678 33.6132 13.3763 33.6877 13.2535L33.6974 13.2613ZM32.5866 13.2169V12.5792C32.7591 12.5818 32.8819 12.6105 32.9551 12.6654C33.0283 12.7203 33.0648 12.8065 33.0648 12.932C33.0648 13.1149 32.9028 13.2117 32.584 13.2143L32.5866 13.2169ZM34.2358 12.3779C33.9718 12.6367 33.8411 12.9686 33.8411 13.3685C33.8411 13.7971 33.9692 14.1473 34.2305 14.4113C34.4893 14.6753 34.8291 14.8086 35.2499 14.8086C35.3701 14.8086 35.5086 14.7877 35.6576 14.7459V14.1136C35.5191 14.1528 35.4015 14.1722 35.2995 14.1722C35.0904 14.1722 34.9258 14.1016 34.8003 13.9631C34.6722 13.8219 34.6095 13.633 34.6095 13.3928C34.6095 13.168 34.6723 12.9835 34.7951 12.8413C34.9205 12.696 35.0721 12.6252 35.2629 12.6252C35.3832 12.6252 35.5138 12.645 35.655 12.6845V12.0468C35.5269 12.0107 35.3805 11.995 35.2263 11.995C34.8291 11.9906 34.4945 12.1205 34.2305 12.3803L34.2358 12.3779ZM36.5854 14.1682V13.6795H37.2258V13.1228H36.5909V12.6288H37.3345V12.0564H35.8709V14.738H37.3384V14.1669H36.5909V14.1625L36.5854 14.1682Z" fill="white"/>
</g>
<defs>
<clipPath id="clip0_46_2975">
<rect width="46" height="52.2727" fill="white"/>
</clipPath>
</defs>
</svg>
