<svg width="46" height="51" viewBox="0 0 46 51" fill="none" xmlns="http://www.w3.org/2000/svg">
<g clip-path="url(#clip0_42_2591)">
<path fill-rule="evenodd" clip-rule="evenodd" d="M29.687 50.1261H0.0877686V0H28.7863L37.1704 8.42526V12.6803H35.2517V9.223L27.9916 1.92776H2.00645V48.1971H29.687" fill="#494949"/>
<path fill-rule="evenodd" clip-rule="evenodd" d="M36.2105 9.7871H27.4293V0.965393H29.348V7.86055H36.2105" fill="#494949"/>
<path fill-rule="evenodd" clip-rule="evenodd" d="M42.1578 21.3555C42.1578 24.656 39.4934 27.3319 36.2105 27.3319C32.9269 27.3319 30.2632 24.6566 30.2632 21.3555C30.2632 18.055 32.9263 15.3791 36.2105 15.3791C39.494 15.3791 42.1578 18.0544 42.1578 21.3531V21.3555Z" fill="#BFD7EA"/>
<path fill-rule="evenodd" clip-rule="evenodd" d="M33.9353 21.3555H32.0166C32.0166 19.0313 33.8978 17.1417 36.2111 17.1417V19.0725C34.9558 19.0725 33.9353 20.0984 33.9353 21.3585V21.3555Z" fill="white"/>
<path fill-rule="evenodd" clip-rule="evenodd" d="M36.2105 30.9955C30.9205 30.9955 26.6171 26.6709 26.6171 21.3555C26.6171 16.0401 30.9205 11.7155 36.2105 11.7155C41.5005 11.7155 45.8039 16.0401 45.8039 21.3555C45.8039 26.6709 41.5005 30.9949 36.2105 30.9949V30.9955ZM36.2105 13.6439C31.9797 13.6439 28.5357 17.1035 28.5357 21.3549C28.5357 25.6081 31.9797 29.0678 36.2105 29.0678C40.4425 29.0678 43.8852 25.6081 43.8852 21.3555C43.8852 17.1035 40.4413 13.6445 36.2105 13.6445V13.6439Z" fill="#494949"/>
<path fill-rule="evenodd" clip-rule="evenodd" d="M36.2105 50.1261C35.2372 50.1261 34.3221 49.7448 33.6321 49.053C32.9445 48.3611 32.5656 47.4411 32.5656 46.4624V29.5369H34.4843V46.463C34.4843 46.9267 34.6634 47.3625 34.9897 47.6899C35.3129 48.0167 35.7463 48.1983 36.2075 48.1983C36.6687 48.1983 37.1033 48.0167 37.4289 47.6899C37.7557 47.3619 37.9349 46.9261 37.9349 46.4624V29.5369H39.8524V46.4624C39.8524 47.4411 39.4735 48.3605 38.7853 49.053C38.0977 49.7448 37.1813 50.1261 36.2069 50.1261H36.2105ZM8.72186 27.14H23.7403V29.0672H8.72186V27.14ZM8.72186 23.2833H23.7403V25.211H8.72186V23.2833ZM8.72186 19.4277H23.7403V21.3555H8.72186V19.4277ZM8.72186 15.5722H23.7403V17.4994H8.72186V15.5722ZM8.72186 11.7155H23.7403V13.6432H8.72186V11.7155Z" fill="#494949"/>
<path fill-rule="evenodd" clip-rule="evenodd" d="M4.88449 27.14H6.80318V29.0672H4.88449V27.14ZM4.88449 23.2833H6.80318V25.211H4.88449V23.2833ZM4.88449 19.4277H6.80318V21.3555H4.88449V19.4277ZM4.88449 15.5722H6.80318V17.4994H4.88449V15.5722ZM4.88449 11.7155H6.80318V13.6432H4.88449V11.7155Z" fill="#FF6B6B"/>
<path fill-rule="evenodd" clip-rule="evenodd" d="M4.88449 7.85995H6.80318V9.78772H4.88449V7.85995ZM8.72186 7.85995H10.6405V9.78772H8.72186V7.85995ZM12.558 7.85995H14.4767V9.78772H12.558V7.85995Z" fill="#494949"/>
<path d="M23.1011 43.2999C25.6322 43.2999 27.6841 41.2505 27.6841 38.7223C27.6841 36.1942 25.6322 34.1447 23.1011 34.1447C20.5699 34.1447 18.518 36.1942 18.518 38.7223C18.518 41.2505 20.5699 43.2999 23.1011 43.2999Z" fill="#BAA898"/>
<path d="M9.07228 43.2999C11.6034 43.2999 13.6553 41.2505 13.6553 38.7223C13.6553 36.1942 11.6034 34.1447 9.07228 34.1447C6.54113 34.1447 4.48923 36.1942 4.48923 38.7223C4.48923 41.2505 6.54113 43.2999 9.07228 43.2999Z" fill="#EEE0CB"/>
<path d="M16.152 43.8604C18.9773 43.8604 21.2677 41.56 21.2677 38.7223C21.2677 35.8846 18.9773 33.5842 16.152 33.5842C13.3267 33.5842 11.0363 35.8846 11.0363 38.7223C11.0363 41.56 13.3267 43.8604 16.152 43.8604Z" fill="#BFCDC2"/>
</g>
<defs>
<clipPath id="clip0_42_2591">
<rect width="46" height="50.8421" fill="white"/>
</clipPath>
</defs>
</svg>
