<svg width="46" height="39" viewBox="0 0 46 39" fill="none" xmlns="http://www.w3.org/2000/svg">
<g clip-path="url(#clip0_44_2645)">
<path fill-rule="evenodd" clip-rule="evenodd" d="M18.4 10.12H23.2277V11.96H18.4V10.12Z" fill="#FF6B6B"/>
<path fill-rule="evenodd" clip-rule="evenodd" d="M23.2277 16.4289H28.4241V18.2689H23.2277V16.4289ZM23.2277 19.5822H28.4241V21.4222H23.2277V19.5822Z" fill="#494949"/>
<path fill-rule="evenodd" clip-rule="evenodd" d="M23.2277 29.046H28.4241V30.886H23.2277V29.046ZM23.2277 32.2H28.4241V34.04H23.2277V32.2Z" fill="#BAA898"/>
<path fill-rule="evenodd" clip-rule="evenodd" d="M18.4 13.2737H28.4241V15.1137H18.4V13.2737Z" fill="#BFD7EA"/>
<path fill-rule="evenodd" clip-rule="evenodd" d="M18.4 22.7378H23.2277V24.5778H18.4V22.7378Z" fill="#FF6B6B"/>
<path fill-rule="evenodd" clip-rule="evenodd" d="M18.4 25.8911H28.4241V27.7311H18.4V25.8911Z" fill="#BFD7EA"/>
<path fill-rule="evenodd" clip-rule="evenodd" d="M30.4559 16.4289H35.6523V18.2689H30.4559V16.4289Z" fill="#FF6B6B"/>
<path fill-rule="evenodd" clip-rule="evenodd" d="M30.4559 19.5822H40.48V21.4222H30.4559V19.5822Z" fill="#494949"/>
<path fill-rule="evenodd" clip-rule="evenodd" d="M30.4559 29.046H35.6523V30.886H30.4559V29.046Z" fill="#FF6B6B"/>
<path fill-rule="evenodd" clip-rule="evenodd" d="M30.4559 32.2H40.48V34.04H30.4559V32.2ZM30.4559 13.2737H35.6523V15.1137H30.4559V13.2737ZM30.4559 25.8911H35.6523V27.7311H30.4559V25.8911Z" fill="#494949"/>
<path fill-rule="evenodd" clip-rule="evenodd" d="M46 38.5783H0V5.58139H46V38.5783ZM1.84 36.7383H44.16V7.42139H1.84V36.7383Z" fill="#494949"/>
<path fill-rule="evenodd" clip-rule="evenodd" d="M46 7.4214H0V0.0614014H46V7.4214ZM1.84 5.5814H44.16V1.9014H1.84V5.5814Z" fill="#494949"/>
<path fill-rule="evenodd" clip-rule="evenodd" d="M2.76 2.82141H4.6V4.66141H2.76V2.82141ZM6.44 2.82141H8.28V4.66141H6.44V2.82141ZM10.12 2.82141H11.96V4.66141H10.12V2.82141ZM12.88 6.50141H14.72V37.6584H12.88V6.50141Z" fill="#494949"/>
<path fill-rule="evenodd" clip-rule="evenodd" d="M3.68 10.12H11.04V18.2689H3.68V10.12Z" fill="#EEE0CB"/>
<path fill-rule="evenodd" clip-rule="evenodd" d="M3.68 19.5822H11.04V21.4222H3.68V19.5822Z" fill="#BFD7EA"/>
<path fill-rule="evenodd" clip-rule="evenodd" d="M3.68 22.736H11.04V24.576H3.68V22.736ZM3.68 25.8893H11.04V27.7293H3.68V25.8893ZM3.68 29.0426H11.04V30.8826H3.68V29.0426Z" fill="#839788"/>
</g>
<defs>
<clipPath id="clip0_44_2645">
<rect width="46" height="38.64" fill="white"/>
</clipPath>
</defs>
</svg>
