<svg width="46" height="46" viewBox="0 0 46 46" fill="none" xmlns="http://www.w3.org/2000/svg">
<g clip-path="url(#clip0_46_3170)">
<path fill-rule="evenodd" clip-rule="evenodd" d="M9.04038 32.2432H10.7723V45.9485H9.04038V32.2432ZM3.91552 27.0222H5.64742V45.9482H3.91552V27.0222ZM14.165 27.0222H15.8969V45.9482H14.165V27.0222Z" fill="#494949"/>
<path fill-rule="evenodd" clip-rule="evenodd" d="M46 45.9483H9.74648V44.2164H44.2681V7.83153L38.2318 1.79403H18.4863V0.0621338H38.9489L46 7.11325" fill="#494949"/>
<path fill-rule="evenodd" clip-rule="evenodd" d="M45.1334 8.33707H37.7246V0.927856H39.4565V6.60518H45.1334" fill="#494949"/>
<path fill-rule="evenodd" clip-rule="evenodd" d="M21.4183 36.048H26.614V41.2437H21.4183V36.048Z" fill="#BAA898"/>
<path fill-rule="evenodd" clip-rule="evenodd" d="M28.3459 36.048H35.2735V37.7799H28.3459V36.048ZM28.3459 39.5118H42.2016V41.2437H28.3459V39.5118Z" fill="#494949"/>
<path fill-rule="evenodd" clip-rule="evenodd" d="M21.4183 29.1204H26.614V34.3161H21.4183V29.1204Z" fill="#839788"/>
<path fill-rule="evenodd" clip-rule="evenodd" d="M28.3459 29.1204H35.2735V30.8523H28.3459V29.1204ZM28.3459 32.5842H42.2016V34.3161H28.3459V32.5842Z" fill="#494949"/>
<path fill-rule="evenodd" clip-rule="evenodd" d="M21.4183 22.1927H26.614V27.3885H21.4183V22.1927Z" fill="#EEE0CB"/>
<path fill-rule="evenodd" clip-rule="evenodd" d="M23.1502 23.9247H24.8821V25.6565H23.1502V23.9247ZM28.3459 22.1927H35.2735V23.9247H28.3459V22.1927ZM28.3459 25.6565H42.2016V27.3885H28.3459V25.6565Z" fill="#494949"/>
<path fill-rule="evenodd" clip-rule="evenodd" d="M21.4183 15.2651H26.614V20.4608H21.4183V15.2651Z" fill="#BFD7EA"/>
<path fill-rule="evenodd" clip-rule="evenodd" d="M23.1502 16.997H24.8821V18.7289H23.1502V16.997ZM28.3459 15.2651H35.2735V16.997H28.3459V15.2651ZM28.3459 18.7289H42.2016V20.4608H28.3459V18.7289Z" fill="#494949"/>
<path fill-rule="evenodd" clip-rule="evenodd" d="M21.4183 8.33704H26.614V13.5327H21.4183V8.33704Z" fill="#F96232"/>
<path fill-rule="evenodd" clip-rule="evenodd" d="M23.1502 10.0689H24.8821V11.8008H23.1502V10.0689ZM28.3459 8.33702H35.2735V10.0689H28.3459V8.33702ZM28.3459 11.8008H42.2016V13.5327H28.3459V11.8008ZM21.4183 4.87322H23.1502V6.60512H21.4183V4.87322ZM24.8826 4.87322H26.6145V6.60512H24.8826V4.87322ZM28.3459 4.87322H30.0778V6.60512H28.3459V4.87322ZM11.5474 17.342H8.22664L9.44725 19.3867L7.73835 24.9906L9.89115 27.309L12.0359 24.9906L10.327 19.3867L11.5474 17.342ZM15.7187 17.0986L9.89 27.0951L4.06134 17.0986H3.47024C1.68705 17.0986 0.230003 18.5532 0.230003 20.3324V30.13H4.6V28.919H15.18V30.13H19.55V20.3327C19.55 18.5532 18.093 17.0989 16.31 17.0989H15.7189L15.7187 17.0986ZM11.2206 9.73059H13.9944C13.9944 8.97067 13.3734 8.3499 12.604 8.3499C11.8427 8.3499 11.2206 8.96952 11.2206 9.73059ZM5.7845 9.73059H8.5583C8.5514 8.97067 7.92925 8.3499 7.16772 8.3499C6.40642 8.3499 5.7845 8.96952 5.7845 9.73059ZM13.3584 5.03537L12.7737 3.57372H10.3408V2.59852C10.8001 2.42096 11.1175 1.97913 11.1175 1.46232C11.1175 0.782901 10.5623 0.22998 9.88172 0.22998C9.20092 0.22998 8.64593 0.784281 8.64593 1.46232C8.64593 1.97913 8.97253 2.42211 9.42333 2.59852V3.57372H6.9897L6.4055 5.03537H5.16948C2.81037 5.03537 1.00533 7.09524 1.44118 9.39847L2.72849 15.9765H17.0329L18.3202 9.39847C18.7641 7.09524 16.966 5.03537 14.5999 5.03537H13.3584ZM3.197 9.23609C3.197 8.05527 4.10711 7.07317 5.2831 6.96898H14.4923C15.6752 7.07202 16.5853 8.05412 16.5853 9.23609C16.5842 14.2121 3.197 14.2121 3.197 9.23609Z" fill="#494949"/>
</g>
<defs>
<clipPath id="clip0_46_3170">
<rect width="46" height="46" fill="white"/>
</clipPath>
</defs>
</svg>
