<svg width="46" height="50" viewBox="0 0 46 50" fill="none" xmlns="http://www.w3.org/2000/svg">
<path fill-rule="evenodd" clip-rule="evenodd" d="M30.4001 48.9362H15.6003V44.0034H17.4367V47.0999H28.5638V44.0034H30.3989" fill="#494949"/>
<path fill-rule="evenodd" clip-rule="evenodd" d="M12.8203 47.0998H33.1814V48.9362H12.8213L12.8203 47.0998ZM45.955 37.1653H0.0455017V7.94479C0.0455017 7.28489 0.302422 6.66388 0.769762 6.19679C1.23637 5.72945 1.85859 5.47253 2.52094 5.47253H10.6962V7.30886H2.52094C2.39933 7.30886 2.22243 7.34214 2.06829 7.49653C1.94766 7.61692 1.88159 7.7762 1.88159 7.94577V35.3295H44.1184V7.94479C44.1184 7.77743 44.0509 7.61838 43.9285 7.49531C43.8081 7.3737 43.6513 7.30886 43.4832 7.30886H35.3043V5.47376H43.483C44.1461 5.47376 44.7666 5.73263 45.2307 6.20242C45.6964 6.66804 45.955 7.2888 45.955 7.94601V37.1668V37.1653Z" fill="#494949"/>
<path fill-rule="evenodd" clip-rule="evenodd" d="M43.4815 42.3486H2.51824C1.85344 42.3486 1.23171 42.0907 0.767303 41.6219C0.303388 41.1605 0.0450134 40.539 0.0450134 39.8756V35.3287H45.9545V39.8756C45.9545 40.5387 45.6951 41.1602 45.2253 41.6276C44.7668 42.09 44.1455 42.3486 43.4815 42.3486ZM1.88158 37.1653V39.8759C1.88158 40.0472 1.94765 40.2062 2.06681 40.3256C2.22977 40.49 2.41915 40.514 2.51849 40.514H43.4817C43.5803 40.514 43.7692 40.49 43.9271 40.331C44.0523 40.2062 44.1186 40.0472 44.1186 39.8771V37.1665H1.88158V37.1653Z" fill="#494949"/>
<path fill-rule="evenodd" clip-rule="evenodd" d="M35.304 10.0637H41.3648V32.5744H35.304V10.0637ZM4.63669 10.0637H10.6962V32.5744H4.63669V10.0637Z" fill="#BFD7EA"/>
<path fill-rule="evenodd" clip-rule="evenodd" d="M36.2221 32.5744H34.3857V6.77228L29.4488 1.83633H11.614V32.5744H9.77792V0H30.2093L36.2221 6.01181" fill="#494949"/>
<path fill-rule="evenodd" clip-rule="evenodd" d="M35.304 7.30909H28.9105V0.917542H30.7473V5.47252H35.304" fill="#494949"/>
<path fill-rule="evenodd" clip-rule="evenodd" d="M21.7027 23.9371H31.2521V25.7732H21.7027V23.9371ZM21.7027 26.8748H31.2521V28.7116H21.7027V26.8748Z" fill="#494949"/>
<path fill-rule="evenodd" clip-rule="evenodd" d="M16.6072 28.7108L14.0586 26.163L15.4369 24.7837L16.6065 25.9528L18.8531 23.7047L20.2321 25.0832" fill="#839788"/>
<path fill-rule="evenodd" clip-rule="evenodd" d="M21.7027 17.3259H31.2521V19.1622H21.7027V17.3259ZM21.7027 20.2645H31.2521V22.1006H21.7027V20.2645Z" fill="#494949"/>
<path fill-rule="evenodd" clip-rule="evenodd" d="M16.6072 22.1L14.0586 19.5522L15.4369 18.1722L16.6065 19.3418L18.8531 17.0931L20.2321 18.4707" fill="#BAA898"/>
<path fill-rule="evenodd" clip-rule="evenodd" d="M21.7027 10.7146H31.2521V12.5522H21.7027V10.7146ZM21.7027 13.6532H31.2521V15.4895H21.7027V13.6532Z" fill="#494949"/>
<path fill-rule="evenodd" clip-rule="evenodd" d="M16.6072 15.489L14.0586 12.9412L15.4369 11.5612L16.6065 12.7307L18.8531 10.4821L20.2321 11.8609" fill="#F96232"/>
</svg>
