<svg width="46" height="53" viewBox="0 0 46 53" fill="none" xmlns="http://www.w3.org/2000/svg">
<path fill-rule="evenodd" clip-rule="evenodd" d="M1.07864 15.1591H44.7264V20.6477H1.07864V15.1591Z" fill="#BFD7EA"/>
<path fill-rule="evenodd" clip-rule="evenodd" d="M18.0516 21.459H0V14.1324H15.1539V15.9994H1.86667V19.5921H18.0513M45.5416 21.4608H27.4918V19.5947H43.6754V16.0009H30.3877V14.1348H45.5416" fill="#494949"/>
<path fill-rule="evenodd" clip-rule="evenodd" d="M4.57308 16.8619H6.44V18.7289H4.57308V16.8619ZM8.30666 16.8619H10.1736V18.7289H8.30666V16.8619ZM12.0402 16.8619H13.9074V18.7289H12.0405L12.0402 16.8619ZM45.5439 52.2728H0V20.5255H1.86667V50.4059H43.677V20.5255H45.5439" fill="#494949"/>
<path fill-rule="evenodd" clip-rule="evenodd" d="M22.7718 29.4144L19.9841 24.1652H17.5221V34.6641H28.0219V24.1652H25.5593" fill="#EEE0CB"/>
<path fill-rule="evenodd" clip-rule="evenodd" d="M4.57309 24.1652H15.0731V34.6641H4.57309V24.1652Z" fill="#FF6B6B"/>
<path fill-rule="evenodd" clip-rule="evenodd" d="M30.4716 24.1652H40.9706V34.6641H30.4716V24.1652Z" fill="#839788"/>
<path fill-rule="evenodd" clip-rule="evenodd" d="M4.57309 44.9467H15.0729V46.8137H4.57309V44.9467ZM4.57309 41.307H15.0729V43.1739H4.57309V41.307ZM4.57309 37.6672H15.0729V39.5342H4.57309V37.6672ZM30.4708 44.9467H40.9706V46.8137H30.4708V44.9467ZM30.4708 41.307H40.9706V43.1739H30.4708V41.307ZM30.4708 37.6672H40.9706V39.5342H30.4708V37.6672ZM17.5221 44.9467H28.0219V46.8137H17.5221V44.9467ZM17.5221 41.307H28.0219V43.1739H17.5221V41.307ZM17.5221 37.6672H28.0219V39.5342H17.5221V37.6672Z" fill="#494949"/>
<path fill-rule="evenodd" clip-rule="evenodd" d="M22.7718 31.4054L14.1186 15.1079C13.2213 13.592 12.7394 11.8277 12.7394 10.0327C12.7394 4.50068 17.2395 0 22.7718 0C28.3038 0 32.8045 4.50068 32.8045 10.0327C32.8045 11.8277 32.3228 13.5919 31.4109 15.1335L22.7718 31.4054Z" fill="white"/>
<path fill-rule="evenodd" clip-rule="evenodd" d="M22.7718 31.4054L14.1186 15.1079C13.2213 13.592 12.7394 11.8277 12.7394 10.0327C12.7394 4.50068 17.2395 0 22.7718 0C28.3038 0 32.8045 4.50068 32.8045 10.0327C32.8045 11.8277 32.3228 13.5919 31.4109 15.1335L22.7718 31.4054ZM22.7718 1.86692C18.2693 1.86692 14.606 5.52993 14.606 10.0327C14.606 11.4937 14.9981 12.9291 15.7396 14.1824L15.7605 14.2205L22.7718 27.4223L29.8038 14.1803C30.5456 12.9268 30.9376 11.4916 30.9376 10.0306C30.9376 5.5281 27.2743 1.86509 22.7718 1.86509V1.86692Z" fill="#494949"/>
<path fill-rule="evenodd" clip-rule="evenodd" d="M28.893 4.0708C27.347 2.52457 25.2103 1.56824 22.8513 1.56824C20.4912 1.56824 18.3553 2.52483 16.8086 4.0708C15.2623 5.61702 14.306 7.75341 14.306 10.1135C14.306 12.4726 15.26 14.609 16.8072 16.1555C18.3519 17.7022 20.4899 18.658 22.85 18.658C25.2101 18.658 27.3454 17.7014 28.8901 16.1555C30.4347 14.609 31.3913 12.4728 31.3913 10.1133C31.3913 7.75366 30.4347 5.61701 28.8875 4.07053L28.893 4.0708ZM28.6107 15.8729C27.1371 17.347 25.1006 18.2592 22.851 18.2592C20.6015 18.2592 18.5647 17.347 17.0906 15.8729C15.6165 14.4015 14.7043 12.3628 14.7043 10.1151C14.7043 7.86736 15.6165 5.82873 17.0906 4.35464C18.5647 2.88055 20.6012 1.971 22.8505 1.971C25.1008 1.971 27.1369 2.88316 28.611 4.35725C30.085 5.83134 30.9972 7.86998 30.9972 10.1177C30.9972 12.368 30.085 14.4041 28.6136 15.8782L28.6107 15.8729Z" fill="#494949"/>
<path fill-rule="evenodd" clip-rule="evenodd" d="M30.2016 10.0416C30.1632 6.01475 26.8875 2.76208 22.8513 2.76208C18.8148 2.76208 15.5383 6.01502 15.5007 10.0421L18.8715 6.67156L20.0016 7.80197L17.537 10.2692H28.1693L25.702 7.80458L26.8337 6.67549L30.2053 10.0471L30.2016 10.0416ZM22.851 8.77868L19.7189 5.49203H21.7993V3.8721C21.7993 3.4513 22.2724 3.10683 22.85 3.10683C23.4276 3.10683 23.9007 3.4513 23.9007 3.8721V5.49203H25.9811L22.85 8.77868H22.851ZM23.7645 14.2501C23.5972 14.1416 23.386 14.0441 23.131 13.9592C22.9357 13.8912 22.775 13.8285 22.65 13.7658C22.5254 13.7056 22.4336 13.6377 22.3748 13.5671C22.3147 13.4939 22.2886 13.4077 22.2886 13.3084C22.2886 13.2274 22.3121 13.1542 22.3644 13.081C22.4166 13.0104 22.4951 12.9503 22.6022 12.9059C22.7094 12.8588 22.8479 12.8353 23.0178 12.8327C23.1563 12.8327 23.2818 12.8431 23.3941 12.8641C23.5065 12.885 23.6059 12.9085 23.6921 12.9372C23.7783 12.966 23.8489 12.9921 23.9038 13.0183L24.0938 12.4459C23.9788 12.3884 23.8351 12.3403 23.661 12.3021C23.512 12.2687 23.3434 12.2498 23.1508 12.2433V11.6526H22.6302V12.2747C22.5465 12.2877 22.4666 12.306 22.3897 12.328C22.1984 12.3847 22.0337 12.4631 21.8973 12.5658C21.7614 12.6678 21.6569 12.788 21.5852 12.9239C21.5128 13.0616 21.477 13.2127 21.4755 13.3753C21.4768 13.5635 21.5259 13.7286 21.6231 13.8719C21.7199 14.0148 21.8584 14.139 22.0377 14.2456C22.2164 14.3515 22.4289 14.4429 22.6746 14.5201C22.8594 14.5791 23.0092 14.6408 23.1242 14.704C23.2392 14.7681 23.3228 14.8374 23.3751 14.9131C23.4287 14.9889 23.455 15.077 23.4535 15.1745C23.4535 15.2832 23.4221 15.3758 23.3604 15.4568C23.2993 15.5378 23.2088 15.6 23.0897 15.6444C22.971 15.6889 22.8257 15.7108 22.6558 15.7124C22.5173 15.7114 22.3829 15.6993 22.252 15.6771C22.1213 15.6536 21.999 15.623 21.8866 15.5856C21.7726 15.5475 21.6736 15.5072 21.5873 15.4607L21.4044 16.0566C21.488 16.1016 21.5913 16.1429 21.718 16.1805C21.845 16.2187 21.9846 16.249 22.1362 16.272C22.2878 16.2944 22.4446 16.3059 22.6014 16.3075H22.6302V16.9191H23.1516V16.2579C23.2182 16.2448 23.281 16.2302 23.3411 16.2124C23.5502 16.1497 23.7237 16.0634 23.8612 15.9536C23.9997 15.8449 24.1024 15.7184 24.1704 15.5762C24.2384 15.4333 24.271 15.2835 24.271 15.1222C24.271 14.9341 24.231 14.7686 24.1482 14.6256C24.064 14.4819 23.9391 14.3551 23.7718 14.2456L23.7645 14.2501Z" fill="#494949"/>
</svg>
