<svg id="Слой_1" data-name="Слой 1" xmlns="http://www.w3.org/2000/svg" viewBox="0 0 8 15"><title>facebook</title><path d="M0.25546,7.989h1.736v6.76907A0.24891,0.24891,0,0,0,2.24687,15H5.19029a0.24891,0.24891,0,0,0,.25543-0.24193V8.0209H7.44141a0.251,0.251,0,0,0,.25376-0.21431l0.3031-2.492a0.2337,0.2337,0,0,0-.063-0.18867A0.262,0.262,0,0,0,7.74457,5.045H5.44585V3.48281A0.66987,0.66987,0,0,1,6.2416,2.77312h1.503A0.249,0.249,0,0,0,8,2.53119V0.24372A0.24891,0.24891,0,0,0,7.74457.00179H5.67323C5.65863,0.00111,5.62618,0,5.57836,0A4.11094,4.11094,0,0,0,2.98292.92666a2.49423,2.49423,0,0,0-.90506,2.29151V5.04489H0.25543A0.24891,0.24891,0,0,0,0,5.28683V7.747A0.249,0.249,0,0,0,.25546,7.989Z" transform="translate(0)" style="fill:#385c8e"/></svg>