<svg width="25" height="25" viewBox="0 0 25 25" fill="none" xmlns="http://www.w3.org/2000/svg">
<path d="M12.3865 24.773C5.57392 24.773 0 19.1991 0 12.3865C0 5.57392 5.57392 0 12.3865 0C19.1991 0 24.773 5.57392 24.773 12.3865C24.773 19.1991 19.1991 24.773 12.3865 24.773ZM12.3865 2.4773C6.93643 2.4773 2.4773 6.93643 2.4773 12.3865C2.4773 17.8365 6.93643 22.2957 12.3865 22.2957C17.8365 22.2957 22.2957 17.8365 22.2957 12.3865C22.2957 6.93643 17.8365 2.4773 12.3865 2.4773Z" fill="#F57F17"/>
<path d="M17.0935 14.8638L12.1389 13.6252C11.6434 13.5013 11.1479 13.0059 11.1479 12.3865V6.1933C11.1479 5.45011 11.6434 4.95465 12.3866 4.95465C13.1298 4.95465 13.6252 5.45011 13.6252 6.1933V11.3956L17.5889 12.3865C18.2082 12.5104 18.7037 13.2536 18.456 13.8729C18.3321 14.6161 17.7128 14.9877 17.0935 14.8638Z" fill="#F57F17"/>
</svg>
