<svg width="26" height="25" viewBox="0 0 26 25" fill="none" xmlns="http://www.w3.org/2000/svg">
<path d="M13.0051 4.2114L14.4915 8.91827L14.9869 10.6524H16.8449H21.7995L17.8358 13.6251L16.3494 14.7399L16.8449 16.474L18.3313 21.1809L14.2437 18.2081L12.7574 17.0933L11.271 18.2081L7.43117 21.057L8.91754 16.3502L9.413 14.6161L8.05049 13.6251L4.08682 10.6524H9.04141H10.8994L11.3948 8.91827L13.0051 4.2114ZM13.0051 0C12.2619 0 11.5187 0.371595 11.271 1.23865L9.04141 8.17508H1.73338C-0.000724117 8.17508 -0.620048 10.2808 0.742465 11.2717L6.68798 15.607L4.45841 22.5434C3.96295 23.7821 4.95387 24.773 6.06865 24.773C6.44025 24.773 6.81184 24.6491 7.05957 24.4014L13.0051 20.0661L18.9506 24.4014C19.3222 24.6491 19.5699 24.773 19.9415 24.773C21.0563 24.773 21.9234 23.7821 21.5518 22.5434L19.3222 15.607L25.2677 11.2717C26.6302 10.2808 25.887 8.17508 24.2768 8.17508H16.9688L14.6153 1.23865C14.3676 0.371595 13.6244 0 13.0051 0Z" fill="#F57F17"/>
</svg>
