<svg width="23" height="25" viewBox="0 0 23 25" fill="none" xmlns="http://www.w3.org/2000/svg">
<path d="M21.057 24.773H1.23865C0.495459 24.773 0 24.2775 0 23.5343C0 22.7911 0.495459 22.2957 1.23865 22.2957H21.057C21.8002 22.2957 22.2957 22.7911 22.2957 23.5343C22.2957 24.2775 21.8002 24.773 21.057 24.773Z" fill="#F57F17"/>
<path d="M7.43177 19.8184H2.47717C1.73398 19.8184 1.23853 19.3229 1.23853 18.5797V13.6251C1.23853 13.2535 1.36239 13.0058 1.61012 12.7581L13.9966 0.371595C14.4921 -0.123865 15.2353 -0.123865 15.7307 0.371595L20.6853 5.32619C21.1808 5.82165 21.1808 6.56484 20.6853 7.0603L8.29882 19.4468C8.05109 19.6945 7.80336 19.8184 7.43177 19.8184ZM3.71582 17.3411H6.93631L18.0841 6.19324L14.8637 2.97276L3.71582 14.1206V17.3411Z" fill="#F57F17"/>
</svg>
