<svg xmlns="http://www.w3.org/2000/svg" viewBox="0 0 48 48" width="64px"><path fill="#d32f2f" d="M24 4A20 20 0 1 0 24 44A20 20 0 1 0 24 4Z"></path><path fill="#fff" d="M19.562,27c0-3.329-0.562-4.482-0.562-5.788C19,18.243,21.131,18,22.032,18C23.316,18,25,18.871,25,20.5c0,2.371-2,2.671-2,2.671S23,24,23,25.46C23,27,23.372,29,26.123,29C30.537,29,31,22.848,31,21.163C31,18.834,29.51,14,24.213,14C17.148,14,16,20.313,16,22c0,0.722,0.132,2.122,0.269,2.667c2.106,0.52,1.615,2.375,1.044,2.895C16.484,28.328,13,28.477,13,21.325C13,14.513,19.072,11,24.402,11C29.474,11,35,14.502,35,21.246c0,6.018-4.327,10.757-8.872,10.757c-2.728,0-4.175-2.248-4.175-2.248C21.953,34,18.495,40.083,18,41C18,41,19.562,33.146,19.562,27z"></path></svg>