<svg version="1.1" id="Layer_1" xmlns="http://www.w3.org/2000/svg" xmlns:xlink="http://www.w3.org/1999/xlink" x="0px" y="0px"
	 viewBox="0 0 1689.7 100.8" style="enable-background:new 0 0 1689.7 100.8;" xml:space="preserve" preserveAspectRatio="none">
<style type="text/css">
	.st0{fill:#E5E5E5;}
</style>
	<path class="elementor-shape-fill uael-shape-divider st0" d="M41.6,19.1l-5.1,33.8l-0.7-0.7L31.5,52L50,70.1l21.9-15.6l-5.1-0.1L66.1,55l2.1-28.7c5.9,1.4,11.8,2.8,17.9,4
	v4.8l-8.2-3.3l4.3,9.3l-3.4-1.1l3.6,10l-3.5-0.6l4.3,11.1l8.1-9.5l-3.7,0.4l7.4-8.9l-5.6-0.1l8.3-8.5l-8.8,1.8l1-4.5
	c4.8,0.8,9.8,1.7,14.7,2.3l-0.1,35.4h-5.8l2.1,5.4h0.2l7,18.6h6.2v6h9.1v-6l39,0.1l7.1-18.5h0.2l2.1-5.4h-5.8l0.1-33.6
	c3.9-0.2,7.8-0.6,11.8-1l6.4,40V75l-0.1-0.6l-3.1-1.6l-2.4,3.5l11,5.4l1.9,11.8l7.4-1.2l-1.1-6.6l10.9,5.3l24-23.4l-3.4-2.5
	l-2.4,2.4L220.5,28c5.4-1.2,11-2.5,16.7-4l1.2,3.7l-8.8-0.6l7,7.5h-3.6l6.6,8.3l-3.5,0.6l7.7,9.2l4.6-11.7l-3.4,1.6l4.2-10.7
	l-5.3,1.7l5.2-10.6l-7.7,4.5l-0.5-4.2c8.3-2.3,16.8-4.8,25.4-7.6l1.3,3.9l-5.9-0.4l4.7,5.1h-2.4l4.5,5.7l-2.4,0.4l5.2,6.2l3.1-7.8
	l-2.3,1.1l2.8-7.4l-3.6,1.1l3.5-7.2l-5.3,3l-0.4-4l-2.1,0.2c8.2-2.8,16.7-5.8,25.1-9.2h6.2l1.1,5.6l-14.1-2.7l9.9,13.5l-5.8-0.7
	l8.9,14.8l-5.8,0.2l10.5,16.4l9.9-18l-5.8,1.8l8.9-16.7l-8.9,1.6l8.6-13.2c4.1,1.2,8.1,2.2,12.1,3.3L325,48l-0.7-0.7l-4.2-0.1
	l18.5,18.1l21.9-15.6l-5.1-0.1l-0.7,0.6l2.3-31.9c3.1,0.5,6.2,1,9.1,1.3v21.1h-4.7l1.7,3.4h0.1l5.8,11.5H414l5.8-11.5h0.1l1.7-3.4
	h-4.7V21.5c4.8-0.2,9.4-0.7,13.8-1.2l1.3,6.4l-13-2.5l9.2,12.4l-5.4-0.6l8.3,13.6l-5.4,0.2l9.8,15.1l9.2-16.5l-5.4,1.7l8.3-15.3
	l-8.3,1.4l9.8-15l-12.4,5.2l0.1-7c4.1-0.6,8-1.3,11.7-2.2l4.1,16.7l-3.1,0.7l1.8,2.7h0.1l6.2,8.9l3.3-0.8l0.8,3.1l4.8-1.2l-0.8-3.1
	l20.9-5.2l1.3-10.9h0.1l0.4-3.1l-3.1,0.7l-3.7-14.8c6,2.4,12.1,4.6,18.1,6.8l-2.5,35.1l-0.7-0.7l-4.2-0.1L510.3,70l21.9-15.6
	l-5.1-0.1l-0.7,0.6l2.1-28.7c5.9,1.4,11.8,2.8,17.9,4V35l-8.2-3.3l4.3,9.3l-3.4-1.1l3.6,10l-3.5-0.6l4.3,11.1l8.1-9.5l-3.7,0.4
	l7.4-8.9l-5.6-0.1l8.3-8.5l-8.8,1.8l1-4.5c4.8,0.8,9.8,1.7,14.7,2.3l-0.1,35.4H559l2.1,5.4h0.2l7,18.6h6.2v6h9.1v-6l39,0.1l7.1-18.5
	h0.2l2.1-5.4h-5.8l0.1-33.6c3.9-0.2,7.8-0.6,11.8-1l6.4,40v0.4l-0.1-0.6l-3.1-1.6l-2.4,3.5l11,5.4l1.9,11.8l7.4-1.2l-1.1-6.6
	l10.9,5.3l24-23.4l-3.4-2.5l-2.4,2.4l-6.3-39.5c5.4-1.2,11-2.5,16.7-4l1.2,3.7l-8.8-0.6l7,7.5h-3.6l6.6,8.3l-3.5,0.6l7.7,9.2
	l4.6-11.7l-3.4,1.6l4.2-10.7l-5.3,1.7l5.2-10.6l-7.7,4.5l-0.5-4.2c8.3-2.3,16.8-4.8,25.4-7.6l1.3,3.9L722,19l4.7,5.1h-2.4l4.5,5.7
	l-2.4,0.4l5.2,6.2l3.1-7.8l-2.3,1.1l2.8-7.4l-3.6,1.1l3.5-7.2l-5.3,3l-0.4-4l-2.1,0.2c8.2-2.8,16.7-5.8,25.1-9.2h6.2l1.1,5.6
	l-14.1-2.7l9.9,13.5l-5.8-0.7l8.9,14.8l-5.8,0.2l10.5,16.4l9.4-18.3l-5.8,1.8l8.9-16.7l-8.9,1.6l8.6-13.2c4.1,1.2,8.1,2.2,12.1,3.3
	l-2.7,35.9l-0.7-0.7l-4.2-0.1l18.5,18.1l21.9-15.6l-5.1-0.1l-0.7,0.6l2.3-31.9c3.1,0.5,6.2,1,9.1,1.3v21.6h-4.7l1.7,3.4h0.1
	l5.8,11.5h45.1l5.8-11.5h0.1l1.7-3.4h-4.7V21.5c4.8-0.2,9.4-0.7,13.8-1.2l1.3,6.4L878.9,24l9.2,12.4l-5.4-0.6l8.3,13.6l-5.4,0.2
	l9.8,15.1l9.2-16.5l-5.4,1.7l8.3-15.3l-8.3,1.4l9.8-15l-12.4,5.2l0.1-7c4.1-0.6,8-1.3,11.7-2.2l4.1,16.7l-3.1,0.7l1.8,2.7h0.1
	l6.2,8.9l3.3-0.8l0.8,3.1l4.8-1.2l-0.8-3.1l20.9-5.2l1.3-10.9h0.1l0.4-3.1l-3.1,0.7L941.1,10c6.6,2.7,13.3,5.2,19.9,7.5l-2.5,35.1
	l-0.7-0.7l-4.2-0.1L972,69.9l21.9-15.6l-5.1-0.1l-0.7,0.6l2.1-28.7c5.9,1.4,11.8,2.8,17.9,4v4.8l-8.2-3.3l4.3,9.3l-3.4-1.1l3.6,10
	l-3.5-0.6l4.3,11.1l8.1-9.5l-3.7,0.4l7.4-8.9l-5.6-0.1l8.3-8.5l-8.8,1.8l1-4.5c4.8,0.8,9.8,1.7,14.7,2.3l-0.1,35.4h-5.8l2.1,5.4h0.2
	l7,18.6h6.2v6h9.1v-6l39,0.1l7.1-18.5h0.2l2.1-5.4h-5.8l0.1-33.6c3.9-0.2,7.8-0.6,11.8-1l6.4,40v0.4l-0.1-0.6l-3.1-1.6l-2.4,3.5
	l11,5.4l1.9,11.8l7.4-1.2l-1.1-6.6l10.9,5.3l24-23.4l-3.4-2.5l-2.4,2.4l-6.3-39.5c5.4-1.2,11-2.5,16.7-4l1.2,3.7l-8.8-0.6l7,7.5
	h-3.6l6.6,8.3l-3.5,0.6l7.7,9.2l4.6-11.7l-3.4,1.6l4.2-10.7l-5.3,1.7l5.2-10.6l-7.7,4.5l-0.5-4.2c8.3-2.3,16.8-4.8,25.4-7.6l1.3,3.9
	l-5.9-0.4l4.7,5.1h-2.4l4.5,5.7l-2.4,0.4l5.2,6.2l3.1-7.8l-2.3,1.1l2.8-7.4l-3.6,1.1l3.5-7.2l-5.3,3l-0.4-4l-2.1,0.2
	c8.2-2.8,16.7-5.8,25.1-9.2h6.2l1.1,5.6l-14.1-2.7l9.9,13.5l-5.8-0.7l8.9,14.8l-5.8,0.2l10.5,16.4l9.7-18.2l-5.8,1.8l8.9-16.7
	l-8.9,1.6l8.6-13.2c4.1,1.2,8.1,2.2,12.1,3.3l-2.7,35.9l-0.7-0.7l-4.2-0.1l18.5,18.1l21.9-15.7L1277,49l-0.7,0.6l2.3-31.9
	c3.1,0.5,6.2,1,9.1,1.3v21.7h-4.7l1.7,3.4h0.1l5.8,11.5h45.1l5.8-11.5h0.1l1.7-3.4h-4.7V21.5c4.8-0.2,9.4-0.7,13.8-1.2l1.3,6.4
	l-13-2.5l9.2,12.4l-5.4-0.6l8.3,13.6l-5.4,0.2l9.8,15.1l9.2-16.5l-5.4,1.7l8.3-15.3l-8.3,1.4l9.8-15l-12.4,5.2l0.1-7
	c4.1-0.6,8-1.3,11.7-2.2l4.1,16.7l-3.1,0.7l1.8,2.7h0.1l6.2,8.9l3.3-0.8l0.8,3.1l4.8-1.2l-0.8-3.1L1408,39l1.3-10.9h0.1l0.4-3.1
	l-3.1,0.7l-3.7-14.8c6,2.4,12.1,4.6,18.1,6.8l-2.5,35.1l-0.7-0.7l-4.2-0.1L1432,70l21.9-15.6l-5.1-0.1l-0.7,0.6l2.1-28.7
	c5.9,1.4,11.8,2.8,17.9,4V35l-8.2-3.3l4.3,9.3l-3.4-1.1l3.6,10l-3.5-0.6l4.3,11.1l8.1-9.5l-3.7,0.4l7.4-8.9l-5.6-0.1l8.3-8.5
	l-8.8,1.8l1-4.5c4.8,0.8,9.8,1.7,14.7,2.3l-0.1,35.4h-5.8l2.1,5.4h0.2l7,18.6h6.2v6h9.1v-6l39,0.1l7.1-18.5h0.2l2.1-5.4h-5.8
	l0.1-33.6c3.9-0.2,7.8-0.6,11.8-1l6.4,40v0.4l-0.1-0.6l-3.1-1.6l-2.4,3.5l11,5.4l1.9,11.8l7.4-1.2l-1.1-6.6l10.9,5.3l24-23.4
	l-3.4-2.5l-2.4,2.4l-6.3-39.5c5.4-1.2,11-2.5,16.7-4l1.2,3.7l-8.8-0.6l7,7.5h-3.6l6.6,8.3l-3.5,0.6l7.7,9.2l4.6-11.7l-3.4,1.6
	l4.2-10.7l-5.3,1.7l5.2-10.6l-7.7,4.5l-0.5-4.2c8.3-2.3,16.8-4.8,25.4-7.6l1.3,3.9l-5.9-0.4l4.7,5.1h-2.4l4.5,5.7l-2.4,0.4l5.2,6.2
	l3.1-7.8l-2.3,1.1l2.8-7.4l-3.6,1.1l3.5-7.2l-5.3,3l-0.4-4l-2.1,0.2c7.1-2.4,33.4-12.4,40.7-15.1V0H6.7L1.5,0
	C-0.7-0.3,26.3,14.5,41.6,19.1z M1592.2,29.9c1-0.2,2.1-0.4,3.1-0.5l0,0h0L1599,52l-12.3,1.9l-3.6-22.5c1.5-0.3,3.1-0.5,4.6-0.8
	S1590.7,30.2,1592.2,29.9z M1582.3,64.7l1,6.4l-4.7,0.7l0,0h0l-1-6.4l2.4-0.4L1582.3,64.7L1582.3,64.7L1582.3,64.7z M1581.1,56.9
	L1581.1,56.9L1581.1,56.9l1,6.4l-2.4,0.4l-2.4,0.4l0,0h0l-1-6.4l4.2-0.6L1581.1,56.9z M1577.4,72.1l-4.7,0.7l-1-6.4l4.7-0.7
	L1577.4,72.1z M1575.1,57.8l1,6.4l-4.7,0.7l-1-6.4L1575.1,57.8z M1536.8,49.6h5.8v5.1h-5.8V49.6z M1536.7,61v-5.1h5.8V61v0
	L1536.7,61L1536.7,61z M1529.7,49.5L1529.7,49.5l5.8,0v0v5.1h-5.8V49.5z M1529.6,61v-5.1h5.8V61v0L1529.6,61L1529.6,61z M1511,35.6
	c4.2,0.2,8.6,0.4,12.8,0.5l-0.1,22.9l0,0v0h-12.8L1511,35.6z M1499.2,49.4L1499.2,49.4h5.8h0v5.1h0h-5.8h0V49.4z M1499.2,55.8
	L1499.2,55.8h5.8h0v5.1h0h-5.8h0V55.8z M1492,49.4L1492,49.4h5.8h0v5.1h0h-5.8h0V49.4z M1492,55.8L1492,55.8h5.8h0v5.1h0h-5.8h0
	V55.8z M1433.1,53.7l-5.9-0.5l0.2-3l0,0l0,0l3,0.2l3,0.2L1433.1,53.7z M1441.7,26.9l2.5,0.2l-0.2,3.5l-2.5-0.2L1441.7,26.9z
	 M1441.5,31.3L1441.5,31.3L1441.5,31.3l2.5,0.2l-0.2,3.5l-2.5-0.2L1441.5,31.3z M1438.6,26.7L1438.6,26.7L1438.6,26.7l2.5,0.2
	l-0.2,3.5l-2.5-0.2L1438.6,26.7z M1438.2,31l2.5,0.2l-0.2,3.5h0l0,0l-2.5-0.2L1438.2,31z M1434.4,47l5.9,0.5l-0.2,3h0l0,0l-3-0.2
	l-3-0.2L1434.4,47z M1434.2,50.8L1434.2,50.8L1434.2,50.8l5.9,0.5l-0.2,3l0,0l0,0l-5.9-0.5L1434.2,50.8z M1433.4,50L1433.4,50
	L1433.4,50l-5.9-0.5v0l0,0l0.2-3h0l0,0l5.9,0.5L1433.4,50z M1429.9,26.1L1429.9,26.1L1429.9,26.1l2.5,0.2l-0.2,3.5l-2.5-0.2
	L1429.9,26.1z M1429.6,30.3L1429.6,30.3L1429.6,30.3l2.5,0.2l-0.2,3.5h0l0,0l-2.5-0.2L1429.6,30.3z M1426.7,25.8l2.5,0.2l-0.2,3.5h0
	l0,0l-2.5-0.2L1426.7,25.8z M1426.4,30.1l2.5,0.2l-0.2,3.5h0l0,0l-2.5-0.2L1426.4,30.1z M1376,29L1376,29L1376,29l-0.7-2.7l3.1-0.7
	l0,0h0l0.7,2.7L1376,29z M1396.1,24L1396.1,24L1396.1,24l-0.7-2.7l3.1-0.7l0,0l0,0l0.7,2.7L1396.1,24z M1402.3,19.7l0.4,1.3l0.4,1.3
	l-1.6,0.4l-1.6,0.4l0,0l0,0l-0.6-2.7L1402.3,19.7L1402.3,19.7L1402.3,19.7z M1401.5,16.2l0.7,2.7l-3.1,0.7l-0.7-2.7L1401.5,16.2z
	 M1397.6,17.1l0.7,2.7l-3.1,0.7l-0.7-2.7L1397.6,17.1z M1389.7,12l2.9,11.8l-6.8,1.7l-2.9-11.5C1385.2,13.3,1387.5,12.7,1389.7,12z
	 M1382.2,24.6l0.7,2.7l-3.1,0.7l0,0h0l-0.6-2.1l-0.2-0.6l0,0v0l2.6-0.6L1382.2,24.6L1382.2,24.6L1382.2,24.6z M1378.2,22l2.6-0.6
	l0.6-0.1l0,0l0,0l0.7,2.7l-3.1,0.7l0,0h0l-0.6-2.1L1378.2,22L1378.2,22L1378.2,22z M1377.6,22.2l0.2,0.6l0.6,2.1l-3.1,0.7l-0.7-2.7
	L1377.6,22.2z M1331.7,29.3h3.6l0,0v3.1l0,0h-3.6V29.3z M1331.7,36.3v-3.1h3.6l0,0v3.1l0,0v0L1331.7,36.3L1331.7,36.3z M1327.4,29.3
	h3.6l0,0v3.1l0,0h-3.6V29.3z M1327.4,36.3v-3.1h3.6l0,0v3.1l0,0v0L1327.4,36.3L1327.4,36.3z M1320.1,29.3L1320.1,29.3h3.6h0v3.1h0
	h-3.6h0V29.3z M1320.1,33.2L1320.1,33.2h3.6h0v3.1h-3.6v0h0V33.2z M1315.7,29.3L1315.7,29.3h3.6v3.1h-3.6h0V29.3z M1315.7,33.2
	L1315.7,33.2h3.6v3.1v0h-3.6v0h0V33.2z M1299.4,29.2L1299.4,29.2h7.1v3.1h-7.1h0V29.2z M1299.4,33.2L1299.4,33.2h7.1v3.1v0h-7.1v0h0
	V33.2z M1291.3,29.2L1291.3,29.2h7.1v3.1h-7.1l0,0V29.2z M1291.3,33.2L1291.3,33.2h7.1v3.1v0h-7.1V33.2z M1261,48.4l-5.9-0.5l0.2-3
	l5.9,0.5L1261,48.4z M1269.7,21.6l2.5,0.2l-0.2,3.3l0,0.2l-2.5-0.2v0h0L1269.7,21.6z M1269.3,26L1269.3,26L1269.3,26l2.5,0.2
	l-0.2,3.5l-2.5-0.2l0.2-2.3L1269.3,26z M1266.5,21.4L1266.5,21.4L1266.5,21.4l2.5,0.2l-0.2,3.5l0,0v0l-2.5-0.2L1266.5,21.4z
	 M1266.2,25.7l2.5,0.2l-0.1,1.8l-0.1,1.8h0l0,0l-2.5-0.2L1266.2,25.7z M1262.4,41.6l5.9,0.5l-0.2,3l-5.9-0.5L1262.4,41.6z
	 M1262.1,45.4L1262.1,45.4L1262.1,45.4l3,0.2l3,0.2l-0.2,3l-5.9-0.5L1262.1,45.4z M1261.3,44.5L1261.3,44.5L1261.3,44.5l-3-0.2
	l-3-0.2l0.2-3l5.9,0.5L1261.3,44.5z M1257.8,20.8L1257.8,20.8L1257.8,20.8l2.5,0.2l-0.2,3.5h0l0,0l-2.5-0.2L1257.8,20.8z M1257.5,25
	l2.5,0.2l-0.2,3.5h0l0,0l-2.5-0.2L1257.5,25L1257.5,25L1257.5,25z M1254.7,20.4L1254.7,20.4L1254.7,20.4l2.5,0.2l-0.2,3.5l0,0l0,0
	l-2.5-0.2L1254.7,20.4z M1254.3,24.9l2.5,0.2l-0.2,3.5l-2.5-0.2L1254.3,24.9z M1225.8,5.8h2.3c1.9,0.6,4,1.2,5.9,1.8l-8.3,3.5l0,0
	l0,0L1225.8,5.8z M1112.6,72.8L1112.6,72.8L1112.6,72.8l-1-6.4l4.7-0.7l1,6.4l-2.4,0.4L1112.6,72.8z M1129,30.4c1-0.2,2-0.4,3.1-0.5
	c1-0.2,2.1-0.4,3.1-0.5l0,0h0l3.6,22.7l-12.3,1.9l0,0h0l-3.6-22.5C1124.9,31.1,1126.9,30.8,1129,30.4z M1123.2,71.1l-4.7,0.7l-1-6.4
	l4.7-0.7L1123.2,71.1z M1116.2,57.6l4.7-0.7l1,6.4l-4.7,0.7L1116.2,57.6L1116.2,57.6L1116.2,57.6z M1115,57.8l1,6.4l-4.7,0.7l-1-6.4
	L1115,57.8z M1076.6,49.6h5.8v5.1h-5.8V49.6z M1076.6,61v-5.1h5.8V61v0L1076.6,61L1076.6,61z M1069.5,49.5L1069.5,49.5l5.8,0v0v5.1
	h-5.8V49.5z M1069.5,61v-5.1h5.8V61v0L1069.5,61L1069.5,61z M1050.9,35.6c2.1,0.1,4.3,0.2,6.4,0.3s4.3,0.1,6.4,0.2l-0.1,22.9h-12.8
	L1050.9,35.6z M1039,49.4h5.8v5.1h-5.8V49.4z M1039,55.8h5.8v5.1h-5.8V55.8z M1031.8,49.4h5.8h0v5.1h0h-5.8V49.4z M1031.8,55.8h5.8
	h0v5.1h0h-5.8V55.8z M972.9,53.7l-5.9-0.5l0.2-3l5.9,0.5L972.9,53.7z M981.6,26.9l2.5,0.2l-0.2,3.5l-2.5-0.2L981.6,26.9z
	 M981.3,31.3L981.3,31.3L981.3,31.3l1.3,0.1l1.3,0.1l-0.2,3.5l-2.5-0.2L981.3,31.3z M978.4,26.7l2.5,0.2l-0.2,3.5l-2.5-0.2
	L978.4,26.7z M978,31L978,31L978,31l2.5,0.2l-0.2,3.5h0l0,0l-2.5-0.2L978,31z M974.3,47l5.9,0.5l-0.2,3h0l0,0L974,50L974.3,47z
	 M974,50.8l5.9,0.5l-0.2,3l-5.9-0.5L974,50.8z M973.2,50L973.2,50L973.2,50l-5.9-0.5v0l0,0l0.2-3h0l0,0l5.9,0.5L973.2,50z
	 M969.7,26.1l2.5,0.2l-0.2,3.5l-2.5-0.2L969.7,26.1z M969.4,30.3L969.4,30.3L969.4,30.3l2.5,0.2l-0.2,3.5h0l0,0l-2.5-0.2L969.4,30.3
	z M966.5,25.8L966.5,25.8L966.5,25.8l2.5,0.2l-0.2,3.5h0l0,0l-2.5-0.2L966.5,25.8z M966.2,30.1l2.5,0.2l-0.2,3.5h0l0,0l-2.5-0.2
	L966.2,30.1z M914.1,29l-0.7-2.7l3.1-0.7l0.7,2.7L914.1,29z M934.2,24l-0.7-2.7l3.1-0.7l0.7,2.7L934.2,24z M941.2,22.3l-3.1,0.7
	l-0.7-2.7l3.1-0.7L941.2,22.3z M939.6,16.2l0.7,2.7l-3.1,0.7l-0.7-2.7L939.6,16.2z M935.9,17.1L935.9,17.1L935.9,17.1l0.7,2.7
	l-3.1,0.7l0,0h0l-0.7-2.7l2.1-0.5L935.9,17.1z M924.4,13c1.1-0.3,2.2-0.7,3.3-1l0,0h0l1.4,5.9l1.4,5.9l-3.4,0.8l-3.4,0.8l0,0h0
	l-1.4-5.7L921,14C922.2,13.6,923.3,13.3,924.4,13z M921,27.3l-3.1,0.7l-0.7-2.7l0,0v0l3.1-0.7L921,27.3z M916.3,22l3.1-0.7l0.7,2.7
	l-3.1,0.7L916.3,22L916.3,22L916.3,22z M915.7,22.2l0.4,1.5l0.3,1.2l-3.1,0.7l0,0h0l-0.7-2.7L915.7,22.2z M869.8,29.3h3.6v3.1h-3.6
	V29.3z M869.8,36.3v-3.1h3.6v3.1v0L869.8,36.3L869.8,36.3z M865.5,29.3h3.6v3.1h-3.6V29.3z M865.5,36.3v-3.1h3.6v3.1v0L865.5,36.3
	L865.5,36.3z M858.2,29.3h3.6v3.1h-3.6V29.3z M858.2,36.3v-3.1h3.6v3.1v0L858.2,36.3L858.2,36.3z M853.9,29.3h3.6v3.1h-3.6V29.3z
	 M853.9,36.3v-3.1h3.6v3.1v0L853.9,36.3L853.9,36.3z M837.5,29.2L837.5,29.2h7.1v3.1h-7.1h0V29.2z M837.5,33.2L837.5,33.2h7.1v3.1v0
	h-7.1v0h0V33.2z M829.4,29.2L829.4,29.2h7.1v3.1h-7.1h0V29.2z M829.4,33.2L829.4,33.2h7.1v3.1v0h-7.1v0h0V33.2z M799.2,48.4
	l-5.9-0.5l0.2-3l5.9,0.5L799.2,48.4z M807.5,25.1l0.2-3.5l2.5,0.2l-0.2,3.5L807.5,25.1L807.5,25.1L807.5,25.1z M807.5,26l2.5,0.2
	l-0.2,3.5h0l0,0l-2.5-0.2L807.5,26z M804.6,21.4l2.5,0.2l-0.2,3.5l-2.5-0.2L804.6,21.4z M804.3,25.7l2.5,0.2l-0.2,3.5l-2.5-0.2
	L804.3,25.7z M800.5,41.6l5.9,0.5l-0.2,3l-5.9-0.5L800.5,41.6z M800.3,45.4l5.9,0.5l-0.2,3l-5.9-0.5L800.3,45.4z M799.5,44.5
	l-5.9-0.5l0.2-3h0l0,0l5.9,0.5L799.5,44.5z M796,20.8l2.5,0.2l-0.2,3.5l-2.5-0.2L796,20.8z M795.7,25l2.5,0.2l-0.2,3.5l-2.5-0.2
	L795.7,25z M792.8,20.4l2.5,0.2l-0.2,3.5l-2.5-0.2L792.8,20.4z M792.5,24.9l2.5,0.2v0l0,0l-0.2,3.5l-2.5-0.2L792.5,24.9z M764,5.8
	h2.3c1.9,0.6,4,1.2,5.9,1.8l-8.3,3.5L764,5.8z M650.7,72.8l-1-6.4l4.7-0.7l1,6.4L650.7,72.8z M673.4,29.3L677,52L664.7,54l-3.6-22.5
	C665.2,30.8,669.2,30.1,673.4,29.3z M661.4,71.1l-4.7,0.7l-1-6.4l4.7-0.7L661.4,71.1z M654.3,57.6l4.7-0.7l1,6.4l-4.7,0.7
	L654.3,57.6L654.3,57.6L654.3,57.6z M653.1,57.8l1,6.4l-4.7,0.7l-1-6.4L653.1,57.8z M614.8,49.6h5.8v5.1h-5.8V49.6z M614.8,61v-5.1
	h5.8V61v0L614.8,61L614.8,61z M607.6,49.5L607.6,49.5l5.8,0v0v5.1h-5.8V49.5z M607.6,61v-5.1h5.8V61v0L607.6,61L607.6,61z M588.9,59
	l0.1-23.4c4.2,0.2,8.6,0.4,12.8,0.5L601.7,59L588.9,59L588.9,59L588.9,59z M577.2,49.4h5.8v5.1h-5.8V49.4z M577.1,55.8h5.8v5.1h-5.8
	V55.8z M570.1,49.4h5.8v5.1h-5.8V49.4z M570.1,55.8h5.8v5.1h-5.8V55.8z M511.1,53.7L511.1,53.7L511.1,53.7l-5.9-0.5l0.2-3l5.9,0.5
	L511.1,53.7z M519.7,26.9l2.5,0.2l-0.2,3.5l-2.5-0.2L519.7,26.9z M519.4,31.3l2.5,0.2l-0.2,3.5l-2.5-0.2L519.4,31.3z M516.5,26.7
	l2.5,0.2l-0.2,3.5l-2.5-0.2L516.5,26.7z M516.2,31l2.5,0.2l-0.2,3.5l-2.5-0.2L516.2,31z M512.4,47l5.9,0.5l-0.2,3l-5.9-0.5L512.4,47
	z M512.1,50.8l5.9,0.5l-0.2,3l-5.9-0.5L512.1,50.8z M511.3,50l-5.9-0.5v0l0,0l0.2-3l5.9,0.5L511.3,50z M507.9,26.1l2.5,0.2l-0.2,3.5
	l-2.5-0.2L507.9,26.1z M507.6,30.3L507.6,30.3L507.6,30.3l2.5,0.2l-0.2,3.5l-2.5-0.2L507.6,30.3z M504.7,25.8l2.5,0.2l-0.2,3.5
	l-2.5-0.2L504.7,25.8z M504.4,30.1l2.5,0.2l-0.2,3.5l-2.5-0.2L504.4,30.1z M454,29l-0.7-2.7l3.1-0.7l0.7,2.7L454,29z M474.1,24
	l-0.7-2.7l3.1-0.7l0.7,2.7L474.1,24z M481,22.3l-3.1,0.7l-0.7-2.7l3.1-0.7L481,22.3z M479.4,16.2l0.7,2.7l-3.1,0.7l-0.7-2.7
	L479.4,16.2z M475.7,17.1l0.7,2.7l-3.1,0.7l-0.7-2.7L475.7,17.1z M467.7,12l2.9,11.8l-6.8,1.7L461,14
	C463.2,13.3,465.5,12.7,467.7,12z M461,27.3l-3.1,0.7l-0.7-2.7l0,0v0l3.1-0.7L461,27.3z M456.1,22l3.1-0.7l0,0h0l0.7,2.7l-3.1,0.7
	L456.1,22L456.1,22L456.1,22z M455.6,22.2l0.7,2.7l-3.1,0.7l-0.7-2.7L455.6,22.2z M409.8,29.3h3.6v3.1h-3.6V29.3z M409.8,36.3v-3.1
	h3.6v3.1v0L409.8,36.3L409.8,36.3z M405.3,29.3h3.6v3.1h-3.6V29.3z M405.3,36.3v-3.1h3.6v3.1v0L405.3,36.3L405.3,36.3z M398.1,29.3
	h3.6v3.1h-3.6V29.3z M398.1,36.3v-3.1h3.6v3.1v0L398.1,36.3L398.1,36.3z M393.7,29.3h3.6v3.1h-3.6V29.3z M393.7,36.3v-3.1h3.6v3.1v0
	L393.7,36.3L393.7,36.3z M377.3,29.2h7.1v3.1h-7.1V29.2z M377.3,36.3v-3.1h7.1v3.1v0L377.3,36.3L377.3,36.3z M369.2,29.2h7.1v3.1
	h-7.1V29.2z M369.2,36.3v-3.1h7.1v3.1v0L369.2,36.3L369.2,36.3z M339,48.4l-5.9-0.5l0.2-3l5.9,0.5L339,48.4z M347.5,25.1l0.2-3.5
	l2.5,0.2l-0.2,3.5L347.5,25.1L347.5,25.1L347.5,25.1z M347.4,26l2.5,0.2l-0.2,3.5l-2.5-0.2L347.4,26z M344.5,21.4L344.5,21.4
	L344.5,21.4l2.5,0.2l-0.2,3.5l-2.5-0.2L344.5,21.4z M344.2,25.7l2.5,0.2l-0.2,3.5l-2.5-0.2L344.2,25.7z M340.4,41.6l5.9,0.5l-0.2,3
	l-5.9-0.5L340.4,41.6z M340.1,45.4l5.9,0.5l-0.2,3l-5.9-0.5L340.1,45.4z M339.3,44.5l-5.9-0.5l0.2-3l5.9,0.5L339.3,44.5z
	 M335.9,20.8l2.5,0.2l-0.2,3.5l-2.5-0.2L335.9,20.8z M335.5,25l2.5,0.2l-0.2,3.5l-2.5-0.2L335.5,25z M332.6,20.4l2.5,0.2l-0.2,3.5
	l-2.5-0.2L332.6,20.4z M332.4,24.9l2.5,0.2v0l0,0l-0.2,3.5l0,0l0,0l-2.5-0.2L332.4,24.9z M303.9,5.8h2.3c1.9,0.6,4,1.2,5.9,1.8
	l-8.3,3.5L303.9,5.8z M190.5,72.8l-1-6.4l4.7-0.7l1,6.4L190.5,72.8z M213.2,29.3l3.6,22.7L204.5,54l-3.6-22.5
	C205,30.8,209,30.1,213.2,29.3z M201.2,71.1l-4.7,0.7l-1-6.4l4.7-0.7L201.2,71.1z M194.2,57.6l4.7-0.7l1,6.4l-4.7,0.7L194.2,57.6
	L194.2,57.6L194.2,57.6z M193,57.8l1,6.4l-4.7,0.7l-1-6.4L193,57.8z M154.6,49.6h5.8v5.1h-5.8V49.6z M154.6,61v-5.1h5.8V61v0
	L154.6,61L154.6,61z M147.4,49.5L147.4,49.5l5.8,0v0v5.1h-5.8V49.5z M147.4,61v-5.1h5.8V61v0L147.4,61L147.4,61z M128.7,59l0.1-23.4
	c4.2,0.2,8.6,0.4,12.8,0.5L141.5,59L128.7,59L128.7,59L128.7,59z M117,49.4h5.8v5.1H117V49.4z M117,55.8h5.8v5.1H117V55.8z
	 M109.9,49.4h5.8v5.1h-5.8V49.4z M109.9,55.8h5.8v5.1h-5.8V55.8z M50.9,53.7l-5.9-0.5l0.2-3l5.9,0.5L50.9,53.7z M51.2,50l-5.9-0.5v0
	l0,0l0.2-3l5.9,0.5L51.2,50z M57.6,54.3l-5.9-0.5l0.2-3l5.9,0.5L57.6,54.3z M58,50.5L52.1,50l0.2-3l5.9,0.5L58,50.5z M62.1,27.2
	l0,0.4l1.6,0.3l-0.9,4.8l-1.1-0.2l-0.1,1.2l0.9,0.2l-0.9,4.8l-3.4-0.7L59,33l0,0l0.1-1.8l0.3,0l0.2-0.8l-0.3,0l0.2-3.5L62.1,27.2z
	 M54.8,32.2l1.2,0.3l0.1-1.2l-1-0.2l0.9-4.8l2.8,0.6l0.2,0l0,0l0.4,0.1l-0.8,4.4l-0.2,3.4l-0.5,0l-0.6,3L53.9,37L54.8,32.2z
	 M44.5,25.8l0.8,0.1l0.2-1.2l3.2,0.6l-0.1,0.8l0.9,0.1l0.1-0.8l3.2,0.6L52,30.5l-3.2-0.6l0-0.2L48,29.6l0,0.2l-1.2-0.2l0,0l-2.5-0.2
	L44.5,25.8z M44,33.6l0.2-3.5l0.4,0l0,0l0.1,0l2,0.2l0,0.2l0.6,0.1l0-0.3l2.5,0.2l0,0.5l1.9,0.4L51,35.8l-3.2-0.6l0.2-1.3l-0.8-0.1
	l-0.2,1.3l-3.2-0.6L44,33.6L44,33.6z"/>
</svg>
