<svg id="Layer_1" data-name="Layer 1" xmlns="http://www.w3.org/2000/svg" xmlns:xlink="http://www.w3.org/1999/xlink" viewBox="0 0 114.32 114.32"><defs><style>.cls-1{fill:url(#linear-gradient);}</style><linearGradient id="linear-gradient" x1="116.49" y1="532.93" x2="230.81" y2="532.93" gradientUnits="userSpaceOnUse"><stop offset="0" stop-color="#6a14d1"/><stop offset="1" stop-color="#df1dc6"/></linearGradient></defs><title>support</title><path class="cls-1" d="M209,534.56a11,11,0,1,0,0-3.26H205.7A32,32,0,0,0,198,512.08l3.39-3.6a16.08,16.08,0,1,0-2.5-2.36l-3.26,3.47a32,32,0,0,0-20.38-8.7v-3.25a11,11,0,1,0-3.26,0v3.25a31.93,31.93,0,0,0-19.86,8.22l-2.8-3a16,16,0,1,0-2.51,2.36l2.89,3.07a31.92,31.92,0,0,0-8.13,19.75h-3.25a11,11,0,1,0,0,3.26h3.25a31.9,31.9,0,0,0,7.59,19.13l-2.35,2.49a16,16,0,1,0,2.51,2.36l2.2-2.35A31.91,31.91,0,0,0,172,565v3.25a11,11,0,1,0,3.26,0V565a31.92,31.92,0,0,0,21-9.27l2.67,2.84a16,16,0,1,0,2.5-2.36l-2.85-3a32,32,0,0,0,7.13-18.58Zm10.86-8.2a6.57,6.57,0,1,1-6.57,6.57A6.58,6.58,0,0,1,219.81,526.36Zm-17-38.47a11.38,11.38,0,1,1,.5,16.08A11.38,11.38,0,0,1,202.8,487.89ZM145,504a11.38,11.38,0,1,1,.5-16.08A11.39,11.39,0,0,1,145,504ZM127.49,539.5a6.57,6.57,0,1,1,6.57-6.57A6.57,6.57,0,0,1,127.49,539.5Zm18,37.27a11.38,11.38,0,1,1-.5-16.08A11.39,11.39,0,0,1,145.47,576.77Zm57.83-16.08a11.38,11.38,0,1,1-.5,16.08A11.39,11.39,0,0,1,203.3,560.69Zm-36.22-73.92a6.57,6.57,0,1,1,6.57,6.57A6.57,6.57,0,0,1,167.08,486.77Zm13.14,92.32a6.57,6.57,0,1,1-6.57-6.57A6.58,6.58,0,0,1,180.22,579.09Zm-6.57-18.74a27.42,27.42,0,1,1,27.42-27.42A27.45,27.45,0,0,1,173.65,560.35Z" transform="translate(-116.49 -475.77)"/></svg>