<svg id="Layer_1" data-name="Layer 1" xmlns="http://www.w3.org/2000/svg" xmlns:xlink="http://www.w3.org/1999/xlink" viewBox="0 0 71.41 87.08"><defs><style>.cls-1{fill:url(#linear-gradient);}.cls-2{fill:url(#linear-gradient-2);}.cls-3{fill:url(#linear-gradient-3);}.cls-4{fill:url(#linear-gradient-4);}.cls-5{fill:url(#linear-gradient-5);}.cls-6{fill:url(#linear-gradient-6);}.cls-7{fill:url(#linear-gradient-7);}.cls-8{fill:url(#linear-gradient-8);}.cls-9{fill:url(#linear-gradient-9);}.cls-10{fill:url(#linear-gradient-10);}.cls-11{fill:url(#linear-gradient-11);}.cls-12{fill:url(#linear-gradient-12);}</style><linearGradient id="linear-gradient" x1="508.22" y1="396.15" x2="561.9" y2="396.15" gradientUnits="userSpaceOnUse"><stop offset="0" stop-color="#6a14d1"/><stop offset="1" stop-color="#df1dc6"/></linearGradient><linearGradient id="linear-gradient-2" x1="18.1" y1="20.57" x2="53.31" y2="20.57" xlink:href="#linear-gradient"/><linearGradient id="linear-gradient-3" x1="18.1" y1="27.68" x2="53.31" y2="27.68" xlink:href="#linear-gradient"/><linearGradient id="linear-gradient-4" x1="18.1" y1="34.8" x2="39.34" y2="34.8" xlink:href="#linear-gradient"/><linearGradient id="linear-gradient-5" x1="18.1" y1="56.25" x2="39.34" y2="56.25" xlink:href="#linear-gradient"/><linearGradient id="linear-gradient-6" x1="43.03" y1="52.62" x2="53.57" y2="52.62" xlink:href="#linear-gradient"/><linearGradient id="linear-gradient-7" x1="43.03" y1="59.88" x2="53.57" y2="59.88" xlink:href="#linear-gradient"/><linearGradient id="linear-gradient-8" x1="18.1" y1="66.81" x2="53.57" y2="66.81" xlink:href="#linear-gradient"/><linearGradient id="linear-gradient-9" x1="556.28" y1="359.98" x2="570.76" y2="359.98" xlink:href="#linear-gradient"/><linearGradient id="linear-gradient-10" x1="556.28" y1="432.33" x2="570.76" y2="432.33" xlink:href="#linear-gradient"/><linearGradient id="linear-gradient-11" x1="499.35" y1="359.98" x2="513.83" y2="359.98" xlink:href="#linear-gradient"/><linearGradient id="linear-gradient-12" x1="499.35" y1="432.33" x2="513.83" y2="432.33" xlink:href="#linear-gradient"/></defs><title>docs</title><path class="cls-1" d="M561.9,424.3V368a6.06,6.06,0,0,0-6.06-6.06H514.28a6.06,6.06,0,0,0-6.06,6.06V424.3a6.06,6.06,0,0,0,6.06,6.06h41.56A6.06,6.06,0,0,0,561.9,424.3Zm-3.56,0a2.5,2.5,0,0,1-2.5,2.5H514.28a2.51,2.51,0,0,1-2.51-2.5V368a2.51,2.51,0,0,1,2.51-2.5h41.56a2.5,2.5,0,0,1,2.5,2.5Z" transform="translate(-499.35 -352.62)"/><rect class="cls-2" x="18.1" y="18.82" width="35.21" height="3.5"/><rect class="cls-3" x="18.1" y="25.94" width="35.21" height="3.5"/><rect class="cls-4" x="18.1" y="33.05" width="21.24" height="3.5"/><rect class="cls-5" x="18.1" y="50.84" width="21.24" height="10.81"/><rect class="cls-6" x="43.03" y="50.84" width="10.54" height="3.54"/><rect class="cls-7" x="43.03" y="58.11" width="10.54" height="3.54"/><rect class="cls-8" x="18.1" y="65.08" width="35.47" height="3.46"/><path class="cls-9" d="M569.57,352.62H556.28v3.49h11v11.24h3.49V353.81A1.19,1.19,0,0,0,569.57,352.62Z" transform="translate(-499.35 -352.62)"/><path class="cls-10" d="M567.27,436.2h-11v3.49h13.29a1.19,1.19,0,0,0,1.19-1.19V425h-3.49Z" transform="translate(-499.35 -352.62)"/><path class="cls-11" d="M502.85,356.11h11v-3.49H500.55a1.19,1.19,0,0,0-1.2,1.19v13.54h3.5Z" transform="translate(-499.35 -352.62)"/><path class="cls-12" d="M502.85,425h-3.5V438.5a1.19,1.19,0,0,0,1.2,1.19h13.28V436.2h-11Z" transform="translate(-499.35 -352.62)"/></svg>