<?xml version="1.0" encoding="utf-8"?>
<!-- Generator: Adobe Illustrator 24.0.1, SVG Export Plug-In . SVG Version: 6.00 Build 0)  -->
<svg version="1.1" id="Layer_1" xmlns="http://www.w3.org/2000/svg" xmlns:xlink="http://www.w3.org/1999/xlink" x="0px" y="0px"
	 viewBox="0 0 195.4 86.2" style="enable-background:new 0 0 195.4 86.2;" xml:space="preserve">
<style type="text/css">
	.st0{fill:url(#SVGID_1_);}
	.st1{fill:url(#SVGID_2_);}
	.st2{fill:url(#SVGID_3_);}
	.st3{fill:url(#SVGID_4_);}
	.st4{fill:url(#SVGID_5_);}
	.st5{fill:url(#SVGID_6_);}
</style>
<title>fb_group</title>
<g>
	<linearGradient id="SVGID_1_" gradientUnits="userSpaceOnUse" x1="155.285" y1="18.82" x2="155.285" y2="64.43">
		<stop  offset="0" style="stop-color:#6A14D1"/>
		<stop  offset="1" style="stop-color:#DF1DC6"/>
	</linearGradient>
	<path class="st0" d="M155.3,64.4c12.2,0,22.1-10.2,22.1-22.8c0-12.6-9.9-22.8-22.1-22.8s-22.1,10.2-22.1,22.8
		C133.2,54.2,143.1,64.4,155.3,64.4z M155.3,23.2L155.3,23.2c9.8,0,17.7,8.2,17.7,18.4c0,10.2-8,18.4-17.7,18.4s-17.7-8.3-17.7-18.4
		C137.6,31.5,145.6,23.2,155.3,23.2z"/>
	<linearGradient id="SVGID_2_" gradientUnits="userSpaceOnUse" x1="29.485" y1="62.49" x2="29.485" y2="86.24">
		<stop  offset="0" style="stop-color:#6A14D1"/>
		<stop  offset="1" style="stop-color:#DF1DC6"/>
	</linearGradient>
	<path class="st1" d="M55,67.9l3.9-3.2C57,64,55,63.3,53,62.8l-0.8-0.2l-0.2,0l-0.2,0.1l-0.7,0.5c-6.6,4.8-15.6,4.8-22.2,0l-0.7-0.5
		l-0.2-0.1l-0.2,0l-0.8,0.2c-13.2,3.6-23.3,12.3-27,23.3v0.1h4.7c3.5-8.9,11.8-15.8,22.6-19c7.8,5.1,17.8,5.1,25.5,0
		C53.6,67.4,54.3,67.7,55,67.9z"/>
	<linearGradient id="SVGID_3_" gradientUnits="userSpaceOnUse" x1="97.695" y1="55.43" x2="97.695" y2="86.12">
		<stop  offset="0" style="stop-color:#6A14D1"/>
		<stop  offset="1" style="stop-color:#DF1DC6"/>
	</linearGradient>
	<path class="st2" d="M137.4,67.9c0,0-3.5-2.9-3.9-3.2c-5.7-4.2-12.2-7.2-19-9l-1.1-0.3l-0.9,0.7c-0.9,0.7-1.9,1.3-2.9,1.8
		c-7.4,4-16.4,4-23.8,0c-1-0.5-2-1.1-2.9-1.8L82,55.4l-1.1,0.3c-6.8,1.8-13.3,4.9-19,9L58,67.9c-5.6,4.9-9.7,11.2-12.1,18.2h0.1h4.9
		c4.5-11.9,15.7-21.4,30.2-25.7c10.1,6.7,23.1,6.7,33.2,0c14.6,4.3,25.7,13.7,30.3,25.7h4.9h0.1C147.1,79.1,142.9,72.9,137.4,67.9z"
		/>
	<linearGradient id="SVGID_4_" gradientUnits="userSpaceOnUse" x1="165.9249" y1="62.43" x2="165.9249" y2="86.2199">
		<stop  offset="0" style="stop-color:#6A14D1"/>
		<stop  offset="1" style="stop-color:#DF1DC6"/>
	</linearGradient>
	<path class="st3" d="M195.3,86.1c-3.7-11-13.8-19.8-27-23.3l-0.8-0.2l-0.2-0.1l-0.2,0.1l-0.7,0.5c-6.6,4.8-15.6,4.8-22.2,0
		l-0.7-0.5l-0.2-0.1l-0.2,0l-0.8,0.2c-2,0.5-4,1.2-5.9,2l3.9,3.2c0.7-0.2,1.4-0.5,2.2-0.7c7.8,5.1,17.8,5.1,25.5,0
		c10.8,3.2,19,10.1,22.6,19h4.7L195.3,86.1z"/>
	<linearGradient id="SVGID_5_" gradientUnits="userSpaceOnUse" x1="40.045" y1="18.82" x2="40.045" y2="64.43">
		<stop  offset="0" style="stop-color:#6A14D1"/>
		<stop  offset="1" style="stop-color:#DF1DC6"/>
	</linearGradient>
	<path class="st4" d="M40.1,64.4c12.2,0,22.1-10.2,22.1-22.8c0-12.6-9.9-22.8-22.1-22.8S17.9,29.1,17.9,41.6
		C17.9,54.2,27.9,64.4,40.1,64.4z M40.1,23.2L40.1,23.2c9.8,0,17.7,8.2,17.7,18.4c0,10.2-8,18.4-17.7,18.4s-17.8-8.2-17.8-18.4
		C22.3,31.5,30.3,23.2,40.1,23.2z"/>
	<linearGradient id="SVGID_6_" gradientUnits="userSpaceOnUse" x1="97.665" y1="-1.525879e-05" x2="97.665" y2="58.51">
		<stop  offset="0" style="stop-color:#6A14D1"/>
		<stop  offset="1" style="stop-color:#DF1DC6"/>
	</linearGradient>
	<path class="st5" d="M97.7,58.5c15.7,0,28.4-13.1,28.4-29.2C126.1,13.1,113.4,0,97.7,0S69.3,13.1,69.3,29.3S82,58.5,97.7,58.5z
		 M97.7,4.7c13,0,23.7,11,23.7,24.5s-10.6,24.5-23.7,24.5S74,42.8,74,29.3C74,15.7,84.6,4.7,97.7,4.7z"/>
</g>
</svg>
