<svg id="Layer_1" data-name="Layer 1" xmlns="http://www.w3.org/2000/svg" xmlns:xlink="http://www.w3.org/1999/xlink" viewBox="0 0 68.57 74.29"><defs><style>.cls-1{fill:url(#linear-gradient);}</style><linearGradient id="linear-gradient" x1="509.7" y1="193.92" x2="578.27" y2="193.92" gradientUnits="userSpaceOnUse"><stop offset="0" stop-color="#6a14d1"/><stop offset="1" stop-color="#df1dc6"/></linearGradient></defs><title>fb_page</title><path class="cls-1" d="M578.27,191a12.9,12.9,0,0,1-2.19,7.28,11.56,11.56,0,0,1,.4,3.08,12.85,12.85,0,0,1-1.69,6.43,13.36,13.36,0,0,1,.13,1.92,12.53,12.53,0,0,1-2.68,7.94q0,6.21-3.79,9.8a14.22,14.22,0,0,1-10.13,3.6h-5.76a36,36,0,0,1-8.46-1q-4.19-1-9.67-2.92a33.31,33.31,0,0,0-6.16-1.79H515.41a5.7,5.7,0,0,1-5.71-5.71V191.07a5.72,5.72,0,0,1,5.71-5.72h12.24q1.61-1.07,6.11-6.92,2.6-3.35,4.78-5.71a7.6,7.6,0,0,0,1.58-3.82q.52-2.7,1.36-5.65a10.8,10.8,0,0,1,2.77-4.82,5.67,5.67,0,0,1,4-1.65,15.33,15.33,0,0,1,6.74,1.45,9.86,9.86,0,0,1,4.56,4.53,18.56,18.56,0,0,1,1.56,8.31,19.62,19.62,0,0,1-2.15,8.57h7.86A11.58,11.58,0,0,1,578.27,191Zm-58,27.77a2.75,2.75,0,0,0,.85-2,2.86,2.86,0,0,0-5.72,0,2.84,2.84,0,0,0,4.87,2Zm52.28-27.72a5.46,5.46,0,0,0-1.74-4,5.56,5.56,0,0,0-4-1.72H551.13c0-1.72.71-4.1,2.14-7.12s2.14-5.41,2.14-7.16c0-2.92-.47-5.08-1.43-6.48s-2.85-2.09-5.71-2.09a7.4,7.4,0,0,0-1.7,3.79c-.35,1.76-.81,3.62-1.36,5.6a11.33,11.33,0,0,1-2.65,4.89c-.66.69-1.8,2-3.44,4.06l-1,1.34c-.56.75-1,1.36-1.4,1.83s-.89,1.11-1.54,1.9-1.25,1.44-1.79,2-1.11,1-1.72,1.58a7.49,7.49,0,0,1-1.78,1.21,4,4,0,0,1-1.59.4h-1.43v28.57h1.43a8.86,8.86,0,0,1,1.41.13c.55.09,1,.19,1.47.29s1,.27,1.7.49l1.56.52,1.58.55,1.3.47q9.42,3.27,15.27,3.26H558q8.56,0,8.57-7.45a15,15,0,0,0-.22-2.5,5,5,0,0,0,2.12-2.35,7.51,7.51,0,0,0,.78-3.28,6.14,6.14,0,0,0-.81-3.08,7.06,7.06,0,0,0,2.37-5.31,8,8,0,0,0-.45-2.48,6,6,0,0,0-1.11-2.12c.95,0,1.75-.73,2.39-2.1A8.74,8.74,0,0,0,572.56,191.07Z" transform="translate(-509.7 -156.78)"/></svg>