<svg id="Layer_1" data-name="Layer 1" xmlns="http://www.w3.org/2000/svg" xmlns:xlink="http://www.w3.org/1999/xlink" viewBox="0 0 341 341"><defs><style>.cls-1{fill:url(#linear-gradient);}.cls-2{fill:url(#linear-gradient-2);}</style><linearGradient id="linear-gradient" x1="854.25" y1="540.59" x2="1066.75" y2="540.59" gradientUnits="userSpaceOnUse"><stop offset="0" stop-color="#6a14d1"/><stop offset="1" stop-color="#df1dc6"/></linearGradient><linearGradient id="linear-gradient-2" x1="789.5" y1="540" x2="1130.5" y2="540" xlink:href="#linear-gradient"/></defs><title>MA_icon</title><path class="cls-1" d="M1003.19,466.81H987.88l-47.14,70.71-21.93-70.71H880.28l-26,147.56h36.89l14.76-83.21,13.93,49.6h26.85l31.56-49.6-14.75,83.21h37.09l6-33.77h17.24l6.1,33.77h36.87l-26-147.56Zm6.72,94.68,5.16-29.1,5.26,29.1Z" transform="translate(-789.5 -369.5)"/><path class="cls-2" d="M960,369.5A170.5,170.5,0,1,0,1130.5,540,170.51,170.51,0,0,0,960,369.5ZM1070,650a155.52,155.52,0,1,1,45.54-110A154.48,154.48,0,0,1,1070,650Z" transform="translate(-789.5 -369.5)"/></svg>