<svg id="Layer_1" data-name="Layer 1" xmlns="http://www.w3.org/2000/svg" xmlns:xlink="http://www.w3.org/1999/xlink" viewBox="0 0 127.72 127.72"><defs><style>.cls-1{fill:url(#linear-gradient);}.cls-2{fill:url(#linear-gradient-2);}</style><linearGradient id="linear-gradient" x1="336.13" y1="733.55" x2="438.31" y2="733.55" gradientUnits="userSpaceOnUse"><stop offset="0" stop-color="#6a14d1"/><stop offset="1" stop-color="#df1dc6"/></linearGradient><linearGradient id="linear-gradient-2" x1="323.36" y1="733.7" x2="451.08" y2="733.7" xlink:href="#linear-gradient"/></defs><title>wp</title><path class="cls-1" d="M387.23,682.46a51.09,51.09,0,1,0,51.08,51.09A51.1,51.1,0,0,0,387.23,682.46Zm-43.06,78.31a49.46,49.46,0,0,1-7.87-27.22,50.23,50.23,0,0,1,4.43-20.73L365,779.39A50.56,50.56,0,0,1,344.17,760.77Zm43.06,23.71a48.74,48.74,0,0,1-14.38-2.12L388.09,738l15.7,42.86a1.46,1.46,0,0,0,.32.73A50.89,50.89,0,0,1,387.23,784.48Zm7-74.78q3-.19,5.83-.53A2,2,0,0,0,401.8,708a2.08,2.08,0,0,0-.17-2.06,2,2,0,0,0-1.89-.89l-13.58.67q-5-.07-13.38-.67a2,2,0,0,0-1.35.34,1.9,1.9,0,0,0-.76,1,2.46,2.46,0,0,0-.1,1.23,1.9,1.9,0,0,0,.59,1.1,2,2,0,0,0,1.29.52l5.3.53,7.95,21.72-11.13,33.39L356,709.7q3-.19,5.83-.53a2,2,0,0,0,1.72-1.22,2.1,2.1,0,0,0-.16-2.06,2,2,0,0,0-1.9-.89l-13.58.67-1.51,0c-.71,0-1.29,0-1.72,0a50.75,50.75,0,0,1,18.17-16.78,50.84,50.84,0,0,1,42.92-2.68A51.12,51.12,0,0,1,421.6,696h-.66a7.9,7.9,0,0,0-6.1,2.68,9.06,9.06,0,0,0-2.45,6.32,10.44,10.44,0,0,0,.13,1.59c.09.53.18,1,.27,1.42a7.48,7.48,0,0,0,.54,1.53c.25.59.46,1.05.59,1.4a9.89,9.89,0,0,0,.79,1.48l.83,1.39c.14.27.47.8,1,1.59l.92,1.53a27.45,27.45,0,0,1,4.18,14,20.13,20.13,0,0,1-.17,2.56,29.42,29.42,0,0,1-.66,3.27c-.34,1.33-.59,2.3-.77,2.91s-.56,1.93-1.16,3.92-1,3.26-1.15,3.84l-5,17Zm18.54,67.83,15.56-44.9q3.9-11.21,3.91-18.28a34.57,34.57,0,0,0-.39-5.24,50.43,50.43,0,0,1,6.29,24.44,49.33,49.33,0,0,1-6.9,25.53A50.74,50.74,0,0,1,412.79,777.53Z" transform="translate(-323.36 -669.84)"/><path class="cls-2" d="M387.22,673.84a59.86,59.86,0,1,1-59.86,59.86,59.92,59.92,0,0,1,59.86-59.86m0-4a63.86,63.86,0,1,0,63.86,63.86,63.86,63.86,0,0,0-63.86-63.86Z" transform="translate(-323.36 -669.84)"/></svg>