<svg id="Layer_1" data-name="Layer 1" xmlns="http://www.w3.org/2000/svg" xmlns:xlink="http://www.w3.org/1999/xlink" viewBox="0 0 74.53 59.37"><defs><style>.cls-1{fill:url(#linear-gradient);}.cls-2{fill:url(#linear-gradient-2);}.cls-3{fill:url(#linear-gradient-3);}.cls-4{fill:url(#linear-gradient-4);}</style><linearGradient id="linear-gradient" x1="214.62" y1="340.62" x2="289.14" y2="340.62" gradientUnits="userSpaceOnUse"><stop offset="0" stop-color="#6a14d1"/><stop offset="1" stop-color="#df1dc6"/></linearGradient><linearGradient id="linear-gradient-2" x1="16.58" y1="52.58" x2="58.42" y2="52.58" xlink:href="#linear-gradient"/><linearGradient id="linear-gradient-3" x1="27.39" y1="46.58" x2="47.61" y2="46.58" xlink:href="#linear-gradient"/><linearGradient id="linear-gradient-4" x1="19.5" y1="8.58" x2="55.5" y2="8.58" xlink:href="#linear-gradient"/></defs><title>newsletter</title><path class="cls-1" d="M281.56,310.93H222.2a7.58,7.58,0,0,0-7.58,7.58v44.21a7.58,7.58,0,0,0,7.58,7.58h59.36a7.58,7.58,0,0,0,7.58-7.58V318.51A7.58,7.58,0,0,0,281.56,310.93Zm-59.36,3h59.36a4.57,4.57,0,0,1,3.33,1.45l-30.72,25.86a3.75,3.75,0,0,1-4.58,0l-30.72-25.86A4.57,4.57,0,0,1,222.2,313.93Zm-4.58,4.58c0-.08,0-.16,0-.25l20.45,17.22-20.47,18.23Zm68.52,44.21a4.59,4.59,0,0,1-4.58,4.58H222.2a4.59,4.59,0,0,1-4.58-4.58v-5l22.79-20.29,7.25,6.1a6.76,6.76,0,0,0,8.44,0l7.06-6,23,20.46Zm0-8.69-20.66-18.39,20.64-17.38c0,.09,0,.17,0,.25Z" transform="translate(-214.62 -310.93)"/><rect class="cls-2" x="16.58" y="51" width="41.84" height="3.16"/><rect class="cls-3" x="27.39" y="45" width="20.21" height="3.16"/><rect class="cls-4" x="19.5" y="7" width="36" height="3.16"/></svg>