<svg id="Layer_1" data-name="Layer 1" xmlns="http://www.w3.org/2000/svg" xmlns:xlink="http://www.w3.org/1999/xlink" viewBox="0 0 72.4 72.4"><defs><style>.cls-1{fill:url(#linear-gradient);}.cls-2{fill:url(#linear-gradient-2);}.cls-3{fill:url(#linear-gradient-3);}.cls-4{fill:url(#linear-gradient-4);}.cls-5{fill:url(#linear-gradient-5);}.cls-6{fill:url(#linear-gradient-6);}.cls-7{fill:url(#linear-gradient-7);}.cls-8{fill:url(#linear-gradient-8);}.cls-9{fill:url(#linear-gradient-9);}</style><linearGradient id="linear-gradient" x1="363.41" y1="610.1" x2="435.81" y2="610.1" gradientUnits="userSpaceOnUse"><stop offset="0" stop-color="#6a14d1"/><stop offset="1" stop-color="#df1dc6"/></linearGradient><linearGradient id="linear-gradient-2" x1="36.2" y1="60.25" x2="36.2" y2="45.25" xlink:href="#linear-gradient"/><linearGradient id="linear-gradient-3" x1="30.28" y1="60.25" x2="30.28" y2="48.37" xlink:href="#linear-gradient"/><linearGradient id="linear-gradient-4" x1="24.36" y1="60.25" x2="24.36" y2="52.75" xlink:href="#linear-gradient"/><linearGradient id="linear-gradient-5" x1="18.12" y1="60.25" x2="18.12" y2="55.53" xlink:href="#linear-gradient"/><linearGradient id="linear-gradient-6" x1="42.12" y1="60.25" x2="42.12" y2="48.37" xlink:href="#linear-gradient"/><linearGradient id="linear-gradient-7" x1="48.04" y1="60.25" x2="48.04" y2="52.75" xlink:href="#linear-gradient"/><linearGradient id="linear-gradient-8" x1="54.28" y1="60.25" x2="54.28" y2="55.53" xlink:href="#linear-gradient"/><linearGradient id="linear-gradient-9" x1="24.5" y1="26.68" x2="47.91" y2="26.68" xlink:href="#linear-gradient"/></defs><title>reviews</title><path class="cls-1" d="M428.05,573.89H371.17a7.76,7.76,0,0,0-7.76,7.77v56.88a7.76,7.76,0,0,0,7.76,7.76h56.88a7.77,7.77,0,0,0,7.76-7.76V581.66A7.77,7.77,0,0,0,428.05,573.89Zm4.76,64.65a4.77,4.77,0,0,1-4.76,4.76H371.17a4.76,4.76,0,0,1-4.76-4.76V581.66a4.77,4.77,0,0,1,4.76-4.77h56.88a4.77,4.77,0,0,1,4.76,4.77Z" transform="translate(-363.41 -573.89)"/><rect class="cls-2" x="34.23" y="45.25" width="3.95" height="15"/><rect class="cls-3" x="28.31" y="48.37" width="3.95" height="11.88"/><rect class="cls-4" x="22.39" y="52.75" width="3.95" height="7.5"/><rect class="cls-5" x="16.15" y="55.53" width="3.95" height="4.72"/><rect class="cls-6" x="40.15" y="48.37" width="3.95" height="11.88"/><rect class="cls-7" x="46.07" y="52.75" width="3.95" height="7.5"/><rect class="cls-8" x="52.31" y="55.53" width="3.95" height="4.72"/><polygon class="cls-9" points="28.9 37.75 36.15 33.99 43.37 37.83 42.03 29.76 47.91 24.09 39.83 22.87 36.24 15.53 32.59 22.84 24.5 23.97 30.32 29.71 28.9 37.75"/></svg>