<svg id="Layer_1" data-name="Layer 1" xmlns="http://www.w3.org/2000/svg" xmlns:xlink="http://www.w3.org/1999/xlink" viewBox="0 0 71.05 68.84"><defs><style>.cls-1{fill:url(#linear-gradient);}.cls-2{fill:url(#linear-gradient-2);}</style><linearGradient id="linear-gradient" x1="818.72" y1="233.88" x2="889.77" y2="233.88" gradientUnits="userSpaceOnUse"><stop offset="0" stop-color="#6a14d1"/><stop offset="1" stop-color="#df1dc6"/></linearGradient><linearGradient id="linear-gradient-2" x1="849.28" y1="233.88" x2="867.21" y2="233.88" xlink:href="#linear-gradient"/></defs><title>video</title><path class="cls-1" d="M882.05,199.46h-55.6a7.73,7.73,0,0,0-7.73,7.72v53.39a7.73,7.73,0,0,0,7.73,7.73h55.6a7.73,7.73,0,0,0,7.72-7.73V207.18A7.72,7.72,0,0,0,882.05,199.46Zm-8.86,3.84h6.42v6.42h-6.42Zm-8.65,0H871v6.42h-6.42Zm-8.66,0h6.42v6.42h-6.42Zm-8.65,0h6.42v6.42h-6.42Zm-8.66,0H845v6.42h-6.42Zm-8.65,0h6.42v6.42h-6.42Zm-7.86,2.51a2.5,2.5,0,0,1,2.5-2.51h2.77v6.42h-5.27Zm5.27,58.91h-2.77a2.5,2.5,0,0,1-2.5-2.5V258.3h5.27Zm9,0h-6.42V258.3h6.42Zm8.65,0h-6.42V258.3H845Zm8.66,0h-6.42V258.3h6.42Zm8.65,0h-6.42V258.3h6.42Zm8.66,0h-6.42V258.3H871Zm8.65,0h-6.42V258.3h6.42Zm7.16-2.29a2.29,2.29,0,0,1-2.29,2.29h-2.72V258.3h5Zm0-7.08h-65V212.41h65Zm0-45.63h-5V203.3h2.72a2.29,2.29,0,0,1,2.29,2.29Z" transform="translate(-818.72 -199.46)"/><path class="cls-2" d="M850.72,245.63a1.42,1.42,0,0,0,.8-.25l15.07-10.32a1.43,1.43,0,0,0,0-2.36l-15.07-10.32a1.36,1.36,0,0,0-.8-.26,1.44,1.44,0,0,0-1.44,1.44V244.2A1.43,1.43,0,0,0,850.72,245.63Zm1.56-19.1L863,233.88l-10.73,7.35Z" transform="translate(-818.72 -199.46)"/></svg>