<?xml version="1.0" encoding="UTF-8"?><svg xmlns="http://www.w3.org/2000/svg" viewBox="0 0 64 64"><path d="M40.586 20.586L32 29.172l-8.586-8.586-2.828 2.828L29.172 32l-8.586 8.586 2.828 2.828L32 34.828l8.586 8.586 2.828-2.828L34.828 32l8.586-8.586z"/><path d="M32 4C16.537 4 4 16.537 4 32s12.537 28 28 28 28-12.537 28-28S47.463 4 32 4zm0 54C17.664 58 6 46.336 6 32S17.664 6 32 6s26 11.664 26 26-11.664 26-26 26z"/><metadata><rdf:RDF xmlns:rdf="http://www.w3.org/1999/02/22-rdf-syntax-ns#" xmlns:rdfs="http://www.w3.org/2000/01/rdf-schema#" xmlns:dc="http://purl.org/dc/elements/1.1/"><rdf:Description about="https://iconscout.com/legal#licenses" dc:title="close" dc:description="close" dc:publisher="Iconscout" dc:date="2017-09-15" dc:format="image/svg+xml" dc:language="en"><dc:creator><rdf:Bag><rdf:li>IBM-Design</rdf:li></rdf:Bag></dc:creator></rdf:Description></rdf:RDF></metadata></svg>