<svg xmlns="http://www.w3.org/2000/svg" width="33" height="29" viewBox="0 0 32.129 28.567"><style><![CDATA[.B{stroke-linejoin:round}.C{stroke-width:.454}.D{stroke-miterlimit:10}.E{stroke-linecap:round}]]></style><g fill="none" stroke="#293f54" stroke-width=".567" class="D"><path d="M31.846 27.284a1 1 0 0 1-1 1H1.283a1 1 0 0 1-1-1v-26a1 1 0 0 1 1-1h29.563a1 1 0 0 1 1 1v26z"/><path d="M.096 7.222h31.687"/></g><g fill="#00b1cc"><circle cx="2.846" cy="3.846" r=".813"/><circle cx="6.846" cy="3.846" r=".813"/><circle cx="10.846" cy="3.846" r=".813"/></g><g fill="#293f54"><circle cx="16.221" cy="3.846" r=".5"/><circle cx="18.745" cy="3.846" r=".5"/><circle cx="21.27" cy="3.846" r=".5"/><circle cx="23.795" cy="3.846" r=".5"/><circle cx="26.32" cy="3.846" r=".5"/><circle cx="28.846" cy="3.846" r=".5"/></g><g fill="none" stroke="#293f54" class="B"><g class="D E"><path d="M15.295 14.804H7.72l1.228 3.76 5.446-.001.875-3.69" class="C"/><path stroke-width=".256" d="M15.295 14.804H7.72l1.228 3.76 5.446-.001.875-3.69"/><path d="M7.72 14.804l-.297-.783c-.107-.28-.375-.465-.674-.465h-.39" class="C"/></g><circle cx="10.213" cy="20.714" r=".594" class="C"/><circle cx="13.127" cy="20.714" r=".594" class="C"/><path d="M9.45 19.386h4.44" class="C D E"/></g><path fill="#ffc500" d="M9.287 18.097h3.237c-.634-.287-1.262-.587-1.85-.955-.17-.107-.34-.223-.458-.386s-.175-.384-.096-.567c.087-.207.306-.316.5-.443a1.87 1.87 0 0 0 .476-.475h-2.72l.922 2.826z"/><path fill="none" stroke="#ffc500" stroke-width="2.835" d="M17.074 19.257L19.1 21.68l5.882-6.565" class="B D E"/></svg>