<svg xmlns="http://www.w3.org/2000/svg" x="0px" y="0px" viewBox="0 0 100 30">
<g>
	<path fill="none" stroke="#798184" stroke-linecap="round" stroke-miterlimit="10" d="M0,15c0,0,0.3-0.1,1-0.2"/>
	
		<path fill="none" stroke="#798184" stroke-linecap="round" stroke-miterlimit="10" stroke-dasharray="1.9816,5.9447,1.9816,5.9447" d="
		M6.8,13.9c3.3-0.4,7.6-0.8,12.8-1"/>
	
		<path fill="none" stroke="#798184" stroke-linecap="round" stroke-miterlimit="10" stroke-dasharray="1.9816,5.9447,1.9816,5.9447,1.9816,5.9447" d="
		M22.7,12.8c7.7-0.1,17,0.4,27.3,2.2c27.8,4.7,48.4,0.3,49.9,0c0,0,0-0.1,0-0.1L89.7,4.8"/>
	<line fill="none" stroke="#798184" stroke-linecap="round" stroke-miterlimit="10" x1="87.6" y1="2.6" x2="86.9" y2="1.9"/>
</g>
<g>
	<path fill="none" stroke="#798184" stroke-linecap="round" stroke-miterlimit="10" d="M0,15c0,0,0.3-0.1,1-0.2"/>
	
		<path fill="none" stroke="#798184" stroke-linecap="round" stroke-miterlimit="10" stroke-dasharray="1.9748,5.9243,1.9748,5.9243" d="
		M6.8,13.9c3.3-0.4,7.6-0.8,12.8-1"/>
	
		<path fill="none" stroke="#798184" stroke-linecap="round" stroke-miterlimit="10" stroke-dasharray="1.9748,5.9243,1.9748,5.9243,1.9748,5.9243" d="
		M22.6,12.8c7.7-0.1,17.1,0.4,27.4,2.2c27.4,4.6,47.8,0.5,49.8,0c0,0,0.1,0.1,0,0.1l-9.9,10"/>
	<line fill="none" stroke="#798184" stroke-linecap="round" stroke-miterlimit="10" x1="87.9" y1="27.2" x2="87.2" y2="28"/>
</g>
</svg>
