<svg xmlns="http://www.w3.org/2000/svg" x="0px" y="0px" viewBox="0 0 97.6 28.5">
<path fill="none" stroke="#798184" stroke-linecap="round" stroke-miterlimit="10" stroke-dasharray="2,6,2,6,2,6" d="M0,14.3
	c0,0,25.1,6,48.8,0c12.3-3.1,3.6-17.1-3-9.2c-3.3,4,2.8,9.2,6.6,9.2c6.1,0,24.9-5.3,44.4-0.1c0.1,0,0.1-0.1,0.1-0.1l-14-14"/>
<path fill="none" stroke="#798184" stroke-linecap="round" stroke-miterlimit="10" stroke-dasharray="2,6,2,6,2,6" d="M0,14.3
	c0,0,25.1,6,48.8,0c12.3-3.1,3.6-17.1-3-9.2c-3.3,4,2.8,9.2,6.6,9.2c6.1,0,24.9-5.3,44.4-0.1c0.1,0,0.1-0.1,0.1-0.1l-14-14"/>
<path fill="none" stroke="#798184" stroke-linecap="round" stroke-miterlimit="10" stroke-dasharray="2,6,2,6,2,6" d="M0,14.3
	c0,0,25.1,6,48.8,0c12.3-3.1,3.6-17.1-3-9.2c-3.3,4,2.8,9.2,6.6,9.2c6.1,0,24.9-5.3,44.4-0.1c0.1,0,0.1-0.1,0.1-0.1l-14-14"/>
<path fill="none" stroke="#798184" stroke-linecap="round" stroke-miterlimit="10" stroke-dasharray="2,6,2,6,2,6" d="M0,14.3
	c0,0,25.1,6,48.8,0c12.3-3.1,3.6-17.1-3-9.2c-3.3,4,2.8,9.2,6.6,9.2c6.1,0,25-5.3,44.6,0c0.1,0,0.1,0.1,0,0.1L82.9,28.5"/>
</svg>
