<svg width="60" height="60" viewBox="0 0 60 60" fill="none" xmlns="http://www.w3.org/2000/svg">
<g clip-path="url(#clip0_7904_84890)">
<path d="M60 8V0H0V8H2V48H1C0.448 48 0 48.447 0 49C0 49.553 0.448 50 1 50H2H29V52C29 52.047 29.021 52.088 29.027 52.134C27.293 52.571 26 54.131 26 56C26 58.206 27.794 60 30 60C32.206 60 34 58.206 34 56C34 54.131 32.707 52.571 30.973 52.134C30.979 52.088 31 52.047 31 52V50H58H59C59.552 50 60 49.553 60 49C60 48.447 59.552 48 59 48H58V8H60ZM32 56C32 57.103 31.103 58 30 58C28.897 58 28 57.103 28 56C28 54.897 28.897 54 30 54C31.103 54 32 54.897 32 56ZM2 2H58V6H2V2ZM56 48H4V8H56V48Z" fill="currentColor" fill-opacity="0.87"/>
<path d="M50 41H35C34.448 41 34 41.447 34 42C34 42.553 34.448 43 35 43H50C50.552 43 51 42.553 51 42C51 41.447 50.552 41 50 41Z" fill="currentColor" fill-opacity="0.87"/>
<path d="M10 36H20C20.552 36 21 35.553 21 35C21 34.447 20.552 34 20 34H10C9.448 34 9 34.447 9 35C9 35.553 9.448 36 10 36Z" fill="currentColor" fill-opacity="0.87"/>
<path d="M30 36H45C45.552 36 46 35.553 46 35C46 34.447 45.552 34 45 34H30C29.448 34 29 34.447 29 35C29 35.553 29.448 36 30 36Z" fill="currentColor" fill-opacity="0.87"/>
<path d="M24.29 34.29C24.11 34.479 24 34.729 24 35C24 35.26 24.11 35.52 24.29 35.71C24.48 35.89 24.74 36 25 36C25.26 36 25.52 35.89 25.71 35.71C25.89 35.52 26 35.26 26 35C26 34.74 25.89 34.479 25.71 34.29C25.34 33.92 24.66 33.92 24.29 34.29Z" fill="currentColor" fill-opacity="0.87"/>
<path d="M30 41H15C14.448 41 14 41.447 14 42C14 42.553 14.448 43 15 43H30C30.552 43 31 42.553 31 42C31 41.447 30.552 41 30 41Z" fill="currentColor" fill-opacity="0.87"/>
<path d="M10 43C10.26 43 10.52 42.89 10.71 42.71C10.89 42.52 11 42.26 11 42C11 41.74 10.89 41.479 10.71 41.3C10.34 40.92 9.67 40.92 9.29 41.29C9.11 41.479 9 41.74 9 42C9 42.26 9.11 42.52 9.29 42.71C9.48 42.89 9.74 43 10 43Z" fill="currentColor" fill-opacity="0.87"/>
<path d="M49.29 34.29C49.11 34.479 49 34.729 49 35C49 35.26 49.11 35.52 49.29 35.71C49.48 35.89 49.74 36 50 36C50.26 36 50.52 35.89 50.71 35.71C50.89 35.52 51 35.26 51 35C51 34.74 50.89 34.479 50.71 34.29C50.34 33.92 49.67 33.92 49.29 34.29Z" fill="currentColor" fill-opacity="0.87"/>
<path d="M50 20H35C34.448 20 34 20.447 34 21C34 21.553 34.448 22 35 22H50C50.552 22 51 21.553 51 21C51 20.447 50.552 20 50 20Z" fill="currentColor" fill-opacity="0.87"/>
<path d="M50 27H40C39.448 27 39 27.447 39 28C39 28.553 39.448 29 40 29H50C50.552 29 51 28.553 51 28C51 27.447 50.552 27 50 27Z" fill="currentColor" fill-opacity="0.87"/>
<path d="M30 29H32C32.552 29 33 28.553 33 28C33 27.447 32.552 27 32 27H30C29.448 27 29 27.447 29 28C29 28.553 29.448 29 30 29Z" fill="currentColor" fill-opacity="0.87"/>
<path d="M30 15H45C45.552 15 46 14.553 46 14C46 13.447 45.552 13 45 13H30C29.448 13 29 13.447 29 14C29 14.553 29.448 15 30 15Z" fill="currentColor" fill-opacity="0.87"/>
<path d="M50 15C50.26 15 50.52 14.89 50.71 14.71C50.9 14.52 51 14.26 51 14C51 13.74 50.9 13.479 50.71 13.29C50.33 12.92 49.66 12.92 49.29 13.29C49.11 13.479 49 13.74 49 14C49 14.26 49.11 14.52 49.29 14.71C49.48 14.89 49.74 15 50 15Z" fill="currentColor" fill-opacity="0.87"/>
<path d="M30.29 20.29C30.11 20.479 30 20.729 30 21C30 21.26 30.11 21.52 30.29 21.71C30.48 21.89 30.74 22 31 22C31.26 22 31.52 21.89 31.71 21.71C31.89 21.52 32 21.26 32 21C32 20.729 31.89 20.479 31.71 20.29C31.33 19.92 30.67 19.92 30.29 20.29Z" fill="currentColor" fill-opacity="0.87"/>
<path d="M35.29 27.29C35.11 27.479 35 27.74 35 28C35 28.26 35.11 28.52 35.29 28.71C35.48 28.89 35.74 29 36 29C36.26 29 36.52 28.89 36.71 28.71C36.89 28.52 37 28.26 37 28C37 27.74 36.89 27.479 36.71 27.29C36.34 26.92 35.66 26.92 35.29 27.29Z" fill="currentColor" fill-opacity="0.87"/>
<path d="M25 13H9V29H25V13ZM23 27H11V15H23V27Z" fill="currentColor" fill-opacity="0.87"/>
</g>
<defs>
<clipPath id="clip0_7904_84890">
<rect width="60" height="60" fill="white"/>
</clipPath>
</defs>
</svg>
