<svg version="1.1" xmlns="http://www.w3.org/2000/svg" xmlns:xlink="http://www.w3.org/1999/xlink" x="0px" y="0px"
	 viewBox="0 0 221.15 21.95" style="enable-background:new 0 0 221.15 21.95;" xml:space="preserve">
<g>
	<g>
		<path class="st0" d="M0,3.59c4.12,1.17,8.26,2.26,12.44,3.13c4.17,0.92,8.38,1.65,12.61,2.19c8.46,1.11,16.98,1.48,25.51,1.09
			c8.54-0.24,17.11-0.69,25.68-0.74c4.28-0.04,8.57-0.02,12.85,0.02c4.28,0.12,8.56,0.2,12.84,0.36c-8.56,0.3-17.12,0.43-25.67,0.77
			l-12.82,0.51c-4.27,0.19-8.55,0.42-12.83,0.57c-8.58,0.26-17.23-0.09-25.72-1.45c-4.24-0.69-8.46-1.55-12.61-2.62
			C8.13,6.32,4.02,5.08,0,3.59z"/>
	</g>
	<path class="st1" d="M83.17,10.16c0,0-1.53,2.92-4.52,5.07c-3.9,2.81-9.64,5.27-9.74,4.41c-0.16-1.31,3.31-4.84,6.55-6.69
		C77.87,11.59,82.6,9.9,83.17,10.16z"/>
	<path class="st1" d="M74.14,9.61c0,0-3.91,0.76-7.6-0.2c-4.82-1.25-10.09-3.84-9.62-4.6c0.44-0.72,6.75,0.19,10.31,1.5
		C69.85,7.29,74.05,9.05,74.14,9.61z"/>
	<path class="st2" d="M117.13,4.87c-0.25-0.43-1,0.36-2.63,1.25c-1.79,0.97-3.26,1.82-3.71,2.35c0.12,0.08,0.23,0.19,0.3,0.32
		c0.26,0.46,0.05,1.02-0.47,1.25c-0.52,0.23-1.14,0.04-1.4-0.42c-0.26-0.46-0.05-1.02,0.47-1.25c0.33-0.15,0.7-0.12,0.99,0.03
		c0.95-1.23,1.86-6.38,0.97-6.63c-0.52-0.14-0.42,0.89-0.87,2.54c-0.4,1.48-0.71,2.76-0.76,3.55c-0.38-1.8-2.61-5.72-3.42-5.49
		c-0.52,0.14,0.23,0.94,0.93,2.52c0.62,1.41,1.2,2.63,1.66,3.3c-1.47-1.28-5.82-3.35-6.34-2.75c-0.33,0.38,0.79,0.65,2.39,1.59
		c1.42,0.84,2.68,1.54,3.49,1.85c-2.04-0.3-6.93,0.22-6.97,0.98c-0.02,0.48,1.07,0.13,2.98,0.09c1.71-0.04,3.19-0.1,4.05-0.26
		c-1.86,0.79-5.53,3.72-5.07,4.36c0.29,0.41,0.96-0.44,2.5-1.45c1.38-0.9,2.55-1.71,3.15-2.28c-1.01,1.6-2.14,5.87-1.34,6.16
		c0.5,0.18,0.5-0.85,1.11-2.46c0.55-1.44,0.98-2.7,1.11-3.48c0.2,1.83,2.04,5.9,2.87,5.73c0.53-0.1-0.14-0.95-0.68-2.58
		c-0.48-1.46-0.93-2.71-1.33-3.41c1.34,1.39,5.47,3.79,6.05,3.23c0.36-0.35-0.73-0.71-2.22-1.77c-1.33-0.95-2.51-1.74-3.29-2.12
		c2,0.46,6.93,0.32,7.04-0.44c0.07-0.48-1.05-0.21-2.96-0.32c-1.7-0.1-3.18-0.15-4.06-0.05C113.58,8.18,117.53,5.55,117.13,4.87z"/>
	<path class="st1" d="M102.59,7.91c0,0-4.66,0.58-8.12-0.9c-4.52-1.94-9.24-5.27-8.64-5.95c0.57-0.64,6.62,1.17,9.89,3
		C98.13,5.4,102.62,7.35,102.59,7.91z"/>
	<path class="st1" d="M43.72,11.02c0,0-2.69,2.63-6.32,3.75c-4.74,1.47-11.08,2.05-10.84,1.2c0.35-1.28,4.95-3.55,8.72-4.31
		C38.05,11.1,43.29,10.6,43.72,11.02z"/>
	<path class="st1" d="M16.14,3.59c0,0,3.16,0.04,5.75,1.31c3.39,1.66,7.13,4.15,6.6,4.64c-0.5,0.46-5.42-0.92-7.83-2.45
		C18.87,5.97,16.07,4.02,16.14,3.59z"/>
	<path class="st1" d="M102.59,12.54c0,0-1.14,3.54-3.36,5.14c-2.91,2.09-7.18,3.93-7.26,3.28c-0.12-0.98,2.46-3.6,4.88-4.98
		C98.64,14.97,102.17,12.35,102.59,12.54z"/>
	<g>
		<path class="st0" d="M221.15,3.59c-4.02,1.49-8.13,2.73-12.27,3.84c-4.16,1.07-8.37,1.93-12.61,2.62
			c-8.49,1.37-17.14,1.72-25.72,1.45c-4.29-0.15-8.56-0.39-12.83-0.57l-12.82-0.51c-8.55-0.34-17.11-0.47-25.67-0.77
			c4.28-0.17,8.56-0.25,12.84-0.36c4.28-0.04,8.57-0.05,12.85-0.02c8.57,0.05,17.14,0.49,25.68,0.74
			c8.53,0.39,17.05,0.02,25.51-1.09c4.23-0.54,8.44-1.27,12.61-2.19C212.9,5.85,217.03,4.76,221.15,3.59z"/>
	</g>
	<path class="st1" d="M138.23,10.27c0,0,1.28,2.81,4.27,4.96c3.9,2.81,9.64,5.27,9.74,4.41c0.16-1.31-3.31-4.84-6.55-6.69
		C143.29,11.59,138.8,10.01,138.23,10.27z"/>
	<path class="st1" d="M147.02,9.61c0,0,3.91,0.76,7.6-0.2c4.82-1.25,10.09-3.84,9.62-4.6c-0.44-0.72-6.75,0.19-10.31,1.5
		C151.3,7.29,147.1,9.05,147.02,9.61z"/>
	<path class="st1" d="M117.8,7.54c0,0,5.42,0.95,8.88-0.53c4.52-1.94,9.24-5.27,8.64-5.95c-0.57-0.64-6.62,1.17-9.89,3
		C123.02,5.4,117.78,6.97,117.8,7.54z"/>
	<path class="st1" d="M177.43,11.02c0,0,2.69,2.63,6.32,3.75c4.74,1.47,11.08,2.05,10.84,1.2c-0.35-1.28-4.96-3.55-8.72-4.31
		C183.1,11.1,177.87,10.6,177.43,11.02z"/>
	<path class="st1" d="M205.02,3.59c0,0-3.16,0.04-5.75,1.31c-3.39,1.66-6.82,4.07-6.29,4.56c0.5,0.46,5.11-0.85,7.52-2.37
		C202.28,5.97,205.08,4.02,205.02,3.59z"/>
	<path class="st1" d="M118.56,12.16c0,0,1.14,3.92,3.36,5.52c2.91,2.09,7.18,3.93,7.26,3.28c0.12-0.98-2.46-3.6-4.88-4.98
		C122.51,14.97,118.98,11.97,118.56,12.16z"/>
</g>
</svg>
