<svg version="1.1" xmlns="http://www.w3.org/2000/svg" xmlns:xlink="http://www.w3.org/1999/xlink" x="0px" y="0px"
	 viewBox="0 0 211.05 20.49" style="enable-background:new 0 0 211.05 20.49;" xml:space="preserve">
<g>
	<g>
		<g>
			<path class="st0" d="M0,12.9c3.49-2.88,7.23-5.47,11.23-7.64c4.01-2.14,8.31-3.83,12.84-4.64c2.26-0.42,4.56-0.61,6.86-0.57
				c2.29,0.02,4.6,0.27,6.85,0.7c4.5,0.88,8.85,2.26,13.12,3.79c4.26,1.57,8.45,3.3,12.61,5.1c4.17,1.78,8.22,3.79,12.49,5.07
				c4.28,1.26,8.76,1.89,13.25,2.11c4.49,0.26,9.01,0.04,13.51-0.41c-8.9,1.52-18.18,1.71-27.07-0.59
				c-4.47-1.15-8.55-3.22-12.71-4.92c-4.16-1.75-8.35-3.43-12.58-4.95c-4.22-1.56-8.5-2.97-12.87-3.86
				c-4.36-0.91-8.86-0.97-13.26-0.34c-2.2,0.34-4.37,0.87-6.49,1.58c-2.11,0.74-4.2,1.57-6.2,2.58C7.5,7.84,3.69,10.29,0,12.9z"/>
		</g>
		<g>
			<g>
				<path class="st0" d="M71.12,13.27c1.93,0,1.93-3,0-3C69.18,10.27,69.18,13.27,71.12,13.27L71.12,13.27z"/>
			</g>
		</g>
		<g>
			<g>
				<path class="st0" d="M73.83,13.91c1.93,0,1.93-3,0-3C71.9,10.91,71.89,13.91,73.83,13.91L73.83,13.91z"/>
			</g>
		</g>
		<g>
			<g>
				<path class="st0" d="M70.64,16.94c1.93,0,1.93-3,0-3C68.71,13.94,68.7,16.94,70.64,16.94L70.64,16.94z"/>
			</g>
		</g>
		<g>
			<g>
				<path class="st0" d="M67.66,16.46c1.93,0,1.93-3,0-3C65.73,13.46,65.72,16.46,67.66,16.46L67.66,16.46z"/>
			</g>
		</g>
		<g>
			<path class="st0" d="M74.15,6.08c0.59,0.61,1.05,1.28,1.46,1.96c0.42,0.68,0.76,1.4,1.07,2.12c0.31,0.73,0.57,1.48,0.77,2.25
				c0.2,0.77,0.36,1.56,0.38,2.42c-0.59-0.61-1.05-1.28-1.46-1.96c-0.42-0.68-0.76-1.4-1.07-2.13c-0.3-0.73-0.57-1.48-0.76-2.25
				C74.32,7.72,74.17,6.93,74.15,6.08z"/>
		</g>
		<g>
			<path class="st0" d="M67.88,17.66c0.76-0.38,1.53-0.62,2.31-0.8c0.78-0.19,1.56-0.31,2.35-0.39c0.79-0.07,1.58-0.1,2.38-0.06
				c0.8,0.04,1.6,0.13,2.42,0.36c-0.76,0.38-1.53,0.62-2.31,0.8c-0.78,0.19-1.56,0.31-2.35,0.38c-0.79,0.07-1.58,0.1-2.38,0.05
				C69.5,17.99,68.69,17.9,67.88,17.66z"/>
		</g>
		<g>
			<g>
				<path class="st0" d="M72.6,10.45c1.93,0,1.93-3,0-3C70.67,7.45,70.67,10.45,72.6,10.45L72.6,10.45z"/>
			</g>
		</g>
		<g>
			<g>
				<path class="st0" d="M68.59,11.64c1.93,0,1.93-3,0-3C66.66,8.64,66.66,11.64,68.59,11.64L68.59,11.64z"/>
			</g>
		</g>
		<g>
			<g>
				<path class="st0" d="M65.37,14.55c1.93,0,1.93-3,0-3C63.44,11.55,63.44,14.55,65.37,14.55L65.37,14.55z"/>
			</g>
		</g>
		<g>
			<path class="st0" d="M74.28,20.59c0.65-0.55,1.34-0.96,2.05-1.32c0.71-0.37,1.44-0.67,2.19-0.93c0.75-0.26,1.51-0.47,2.3-0.62
				c0.78-0.15,1.58-0.26,2.43-0.22c-0.65,0.55-1.34,0.97-2.05,1.33c-0.71,0.37-1.44,0.67-2.19,0.93c-0.75,0.25-1.51,0.47-2.3,0.62
				C75.93,20.52,75.13,20.63,74.28,20.59z"/>
		</g>
		<g>
			<path class="st0" d="M78.83,8.59c0.72,0.45,1.32,0.99,1.88,1.56c0.57,0.57,1.07,1.18,1.54,1.81c0.47,0.64,0.9,1.3,1.28,2.01
				c0.38,0.7,0.72,1.43,0.94,2.26c-0.72-0.45-1.32-0.99-1.88-1.56c-0.57-0.57-1.07-1.18-1.54-1.81c-0.47-0.64-0.9-1.3-1.28-2.01
				C79.39,10.14,79.05,9.41,78.83,8.59z"/>
		</g>
	</g>
	<g>
		<g>
			<path class="st0" d="M211.05,12.9c-3.69-2.61-7.5-5.06-11.57-6.99c-2.01-1.01-4.09-1.84-6.2-2.58c-2.12-0.7-4.3-1.24-6.49-1.58
				c-4.4-0.63-8.91-0.57-13.26,0.34c-4.37,0.89-8.65,2.31-12.87,3.86c-4.24,1.52-8.43,3.2-12.58,4.95
				c-4.16,1.7-8.24,3.77-12.71,4.92c-8.89,2.3-18.18,2.12-27.07,0.59c4.5,0.45,9.02,0.67,13.51,0.41c4.49-0.22,8.97-0.85,13.25-2.11
				c4.27-1.28,8.31-3.28,12.49-5.07c4.16-1.8,8.35-3.53,12.61-5.1c4.27-1.53,8.62-2.92,13.12-3.79c2.25-0.44,4.56-0.69,6.85-0.7
				c2.3-0.04,4.6,0.15,6.86,0.57c4.53,0.82,8.83,2.5,12.84,4.64C203.81,7.43,207.56,10.02,211.05,12.9z"/>
		</g>
		<g>
			<g>
				<path class="st0" d="M139.93,13.27c1.93,0,1.93-3,0-3C138,10.27,138,13.27,139.93,13.27L139.93,13.27z"/>
			</g>
		</g>
		<g>
			<g>
				<path class="st0" d="M137.22,13.91c1.93,0,1.93-3,0-3C135.29,10.91,135.29,13.91,137.22,13.91L137.22,13.91z"/>
			</g>
		</g>
		<g>
			<g>
				<path class="st0" d="M140.41,16.94c1.93,0,1.93-3,0-3C138.48,13.94,138.48,16.94,140.41,16.94L140.41,16.94z"/>
			</g>
		</g>
		<g>
			<g>
				<path class="st0" d="M143.39,16.46c1.93,0,1.93-3,0-3C141.46,13.46,141.46,16.46,143.39,16.46L143.39,16.46z"/>
			</g>
		</g>
		<g>
			<path class="st0" d="M136.9,6.08c-0.02,0.85-0.18,1.64-0.38,2.41c-0.2,0.78-0.46,1.52-0.76,2.25c-0.31,0.73-0.65,1.44-1.07,2.13
				c-0.41,0.69-0.86,1.35-1.46,1.96c0.02-0.85,0.17-1.64,0.38-2.42c0.2-0.78,0.46-1.52,0.77-2.25c0.31-0.73,0.66-1.44,1.07-2.12
				C135.85,7.35,136.31,6.69,136.9,6.08z"/>
		</g>
		<g>
			<path class="st0" d="M143.17,17.66c-0.82,0.24-1.62,0.32-2.42,0.36c-0.8,0.05-1.59,0.02-2.38-0.05
				c-0.79-0.07-1.57-0.19-2.35-0.38c-0.78-0.18-1.55-0.42-2.31-0.8c0.82-0.24,1.62-0.33,2.42-0.36c0.8-0.05,1.59-0.02,2.38,0.06
				c0.79,0.08,1.57,0.19,2.35,0.39C141.64,17.05,142.41,17.28,143.17,17.66z"/>
		</g>
		<g>
			<g>
				<path class="st0" d="M138.44,10.45c1.93,0,1.93-3,0-3C136.51,7.45,136.51,10.45,138.44,10.45L138.44,10.45z"/>
			</g>
		</g>
		<g>
			<g>
				<path class="st0" d="M142.46,11.64c1.93,0,1.93-3,0-3C140.53,8.64,140.52,11.64,142.46,11.64L142.46,11.64z"/>
			</g>
		</g>
		<g>
			<g>
				<path class="st0" d="M145.68,14.55c1.93,0,1.93-3,0-3C143.75,11.55,143.74,14.55,145.68,14.55L145.68,14.55z"/>
			</g>
		</g>
		<g>
			<path class="st0" d="M136.76,20.59c-0.85,0.04-1.65-0.07-2.43-0.22c-0.79-0.14-1.55-0.36-2.3-0.62
				c-0.75-0.26-1.48-0.56-2.19-0.93c-0.71-0.36-1.41-0.77-2.05-1.33c0.85-0.04,1.65,0.07,2.43,0.22c0.79,0.15,1.55,0.36,2.3,0.62
				c0.75,0.26,1.48,0.56,2.19,0.93C135.42,19.63,136.12,20.04,136.76,20.59z"/>
		</g>
		<g>
			<path class="st0" d="M132.22,8.59c-0.22,0.82-0.56,1.55-0.94,2.26c-0.37,0.71-0.81,1.37-1.28,2.01
				c-0.47,0.64-0.98,1.25-1.54,1.81c-0.56,0.57-1.16,1.11-1.88,1.56c0.22-0.82,0.56-1.56,0.94-2.26c0.37-0.71,0.81-1.37,1.28-2.01
				c0.47-0.63,0.98-1.24,1.54-1.81C130.9,9.58,131.5,9.04,132.22,8.59z"/>
		</g>
	</g>
</g>
</svg>
