<svg version="1.1" xmlns="http://www.w3.org/2000/svg" xmlns:xlink="http://www.w3.org/1999/xlink" x="0px" y="0px"
	 viewBox="0 0 400 13.48" style="enable-background:new 0 0 400 13.48;" xml:space="preserve">
<g>
	<ellipse cx="213.6" cy="6.74" rx="4.33" ry="4.32"/>
	<ellipse cx="226.58" cy="6.74" rx="4.13" ry="4.12"/>
	<ellipse cx="239.16" cy="6.74" rx="3.94" ry="3.93"/>
	<ellipse cx="251.36" cy="6.74" rx="3.74" ry="3.74"/>
	<ellipse cx="263.18" cy="6.74" rx="3.55" ry="3.54"/>
	<ellipse cx="274.6" cy="6.74" rx="3.36" ry="3.35"/>
	<ellipse cx="285.64" cy="6.74" rx="3.16" ry="3.16"/>
	<ellipse cx="296.29" cy="6.74" rx="2.97" ry="2.96"/>
	<ellipse cx="306.53" cy="6.74" rx="2.78" ry="2.77"/>
	<ellipse cx="316.41" cy="6.74" rx="2.58" ry="2.58"/>
	<ellipse cx="325.9" cy="6.74" rx="2.39" ry="2.38"/>
	<ellipse cx="335" cy="6.74" rx="2.19" ry="2.19"/>
	<ellipse cx="343.71" cy="6.74" rx="2" ry="2"/>
	<ellipse cx="352.04" cy="6.74" rx="1.81" ry="1.8"/>
	<ellipse cx="359.98" cy="6.74" rx="1.61" ry="1.61"/>
	<ellipse cx="367.53" cy="6.74" rx="1.42" ry="1.42"/>
	<ellipse cx="374.7" cy="6.74" rx="1.23" ry="1.22"/>
	<circle cx="381.48" cy="6.74" r="1.03"/>
	<circle cx="387.87" cy="6.74" r="0.84"/>
	<circle cx="393.87" cy="6.74" r="0.65"/>
	<circle cx="399.49" cy="6.74" r="0.45"/>
	<g>
		<ellipse cx="199.76" cy="6.74" rx="4.52" ry="4.51"/>
		<ellipse cx="186.4" cy="6.74" rx="4.33" ry="4.32"/>
		<ellipse cx="173.42" cy="6.74" rx="4.13" ry="4.12"/>
		<ellipse cx="160.84" cy="6.74" rx="3.94" ry="3.93"/>
		<ellipse cx="148.64" cy="6.74" rx="3.74" ry="3.74"/>
		<ellipse cx="136.82" cy="6.74" rx="3.55" ry="3.54"/>
		<ellipse cx="125.4" cy="6.74" rx="3.36" ry="3.35"/>
		<ellipse cx="114.36" cy="6.74" rx="3.16" ry="3.16"/>
		<ellipse cx="103.71" cy="6.74" rx="2.97" ry="2.96"/>
		<ellipse cx="93.47" cy="6.74" rx="2.78" ry="2.77"/>
		<ellipse cx="83.59" cy="6.74" rx="2.58" ry="2.58"/>
		<ellipse cx="74.1" cy="6.74" rx="2.39" ry="2.38"/>
		<ellipse cx="65" cy="6.74" rx="2.19" ry="2.19"/>
		<ellipse cx="56.29" cy="6.74" rx="2" ry="2"/>
		<ellipse cx="47.96" cy="6.74" rx="1.81" ry="1.8"/>
		<ellipse cx="40.02" cy="6.74" rx="1.61" ry="1.61"/>
		<ellipse cx="32.47" cy="6.74" rx="1.42" ry="1.42"/>
		<ellipse cx="25.3" cy="6.74" rx="1.23" ry="1.22"/>
		<circle cx="18.52" cy="6.74" r="1.03"/>
		<circle cx="12.13" cy="6.74" r="0.84"/>
		<circle cx="6.13" cy="6.74" r="0.65"/>
		<circle cx="0.51" cy="6.74" r="0.45"/>
	</g>
</g>
</svg>
