<svg version="1.1" xmlns="http://www.w3.org/2000/svg" xmlns:xlink="http://www.w3.org/1999/xlink" x="0px" y="0px"
	 viewBox="0 0 204.45 23.85" style="enable-background:new 0 0 204.45 23.85;" xml:space="preserve">
<g>
	<path class="st0" d="M95.09,1.6c-0.8-0.24-1.59-0.51-2.62-0.71c-1.01-0.25-2.25-0.46-3.91-0.64c-1.66-0.17-2.91-0.18-3.95-0.24
		c-1.04,0.02-1.88-0.03-2.71,0.01c-0.83,0.05-1.67,0.04-2.7,0.17c-0.52,0.06-1.09,0.11-1.73,0.22c-0.64,0.12-1.36,0.24-2.17,0.41
		c-3.25,0.71-4.79,1.31-6.36,1.84c-1.55,0.58-3.1,1.13-6.14,2.36c-3.04,1.24-4.55,1.86-6.07,2.46c-0.93,0.37-1.86,0.74-3.11,1.28
		c-0.25,0.07-0.53,0.16-0.95,0.32c-0.81,0.35-1.08,0.5-1.49,0.74c-0.14,0.06-0.29,0.13-0.44,0.19c-2.97,1.31-4.45,1.97-5.94,2.61
		c-0.74,0.32-1.49,0.63-2.44,0.98c-0.94,0.36-2.09,0.76-3.64,1.22c-3.1,0.91-4.7,1.15-6.29,1.4c-0.8,0.1-1.59,0.23-2.6,0.3
		c-1,0.1-2.2,0.16-3.81,0.18c-1.38-0.01-2.46-0.08-3.37-0.17c0.08-0.04,0.16-0.08,0.23-0.13c0.5-0.32,0.68-0.59,0.85-0.84
		c0.15-0.26,0.3-0.54,0.38-1.13c0.05-0.58-0.02-0.87-0.07-1.15c-0.07-0.28-0.14-0.56-0.41-1.05c-0.29-0.49-0.5-0.7-0.7-0.9
		c-0.21-0.19-0.41-0.39-0.92-0.66c-0.51-0.25-0.82-0.28-1.1-0.3c-0.29,0-0.58-0.02-1.15,0.12c-0.57,0.18-0.79,0.39-1.02,0.57
		c-0.21,0.2-0.44,0.41-0.65,0.97c-0.19,0.58-0.12,0.92-0.04,1.21c0.09,0.29,0.24,0.65,0.77,0.99c0.54,0.31,0.86,0.33,1.17,0.36
		c0.16,0.01,0.32,0,0.53-0.06c0.2-0.06,0.46-0.16,0.7-0.44c0.32-0.38,0.41-0.79,0.28-1.18c-0.04-0.09-0.09-0.18-0.16-0.26
		c-0.07-0.08-0.2-0.17-0.31-0.19c-0.23-0.06-0.42-0.03-0.63,0.08c-0.19,0.14-0.26,0.44-0.18,0.56c0.07,0.12,0.15,0.09,0.22,0.02
		c0.13-0.15,0.3-0.09,0.37-0.03c-0.03,0.02,0,0.11-0.05,0.22c-0.09,0.19-0.27,0.38-0.52,0.43c-0.15,0.06-0.28,0.09-0.44,0.09
		c-0.16,0-0.37-0.02-0.63-0.18c-0.34-0.23-0.41-0.42-0.47-0.6c-0.05-0.19-0.1-0.41,0.03-0.82c0.16-0.4,0.35-0.55,0.52-0.68
		c0.18-0.11,0.36-0.24,0.73-0.35c0.4-0.1,0.62-0.09,0.83-0.09c0.22,0.02,0.45,0.04,0.85,0.24c0.4,0.22,0.56,0.4,0.7,0.57
		c0.14,0.18,0.27,0.35,0.5,0.73c0.21,0.39,0.29,0.59,0.38,0.8c0.07,0.21,0.15,0.43,0.11,0.87c-0.06,0.43-0.19,0.62-0.31,0.78
		c-0.14,0.16-0.26,0.32-0.62,0.54c-0.36,0.21-0.59,0.26-0.8,0.31c-0.22,0.04-0.44,0.08-0.89,0.05c-0.79-0.08-0.91-0.13-1.53-0.31
		c-0.22-0.03-0.44-0.06-0.63-0.03c-0.13,0.02-0.2,0.07-0.21,0.13c-1.23-0.27-2.67-0.65-4.87-1.47c-2.58-1.01-3.97-1.75-5.19-2.45
		c-0.62-0.33-1.17-0.7-1.78-1.15c-0.31-0.22-0.62-0.47-0.95-0.76c-0.32-0.3-0.69-0.6-1.05-1.01C3.51,8.01,2.61,7,1.69,6.4
		C0.72,5.78,0.05,6.33,0,7.07c-0.05,0.75,0.54,1.67,1.34,2.32C1.85,9.84,2.41,10.23,3,10.61c0.58,0.4,1.2,0.73,1.81,1.1
		c1.24,0.7,2.51,1.41,3.81,2.06c2.63,1.27,5.42,2.22,8.12,2.91c0.13,0.04,0.52,0.14,1.08,0.26c0.57,0.13,1.31,0.29,2.18,0.42
		c1.73,0.29,3.94,0.53,6.05,0.51c1.65-0.02,2.89-0.08,3.92-0.19c1.03-0.07,1.84-0.22,2.66-0.32c0.82-0.11,1.62-0.29,2.64-0.46
		c1-0.23,2.22-0.47,3.81-0.91c1.59-0.43,2.77-0.79,3.75-1.11c0.98-0.31,1.76-0.58,2.53-0.85c1.55-0.54,3.09-1.11,6.13-2.32
		c2.51-1.02,3.97-1.62,5.26-2.15c0.22,0.07,0.47,0.16,0.82,0.39c0.46,0.32,0.62,0.57,0.78,0.79c0.14,0.24,0.31,0.49,0.42,1.03
		c0.09,0.55,0.01,0.82-0.06,1.06c-0.09,0.24-0.19,0.49-0.59,0.9c-0.42,0.4-0.67,0.57-0.9,0.74c-0.25,0.15-0.51,0.33-1.08,0.43
		c-0.57,0.08-0.86-0.01-1.11-0.1c-0.25-0.1-0.52-0.22-0.88-0.63c-0.34-0.43-0.38-0.7-0.4-0.95c-0.01-0.13,0-0.25,0.04-0.39
		c0.04-0.14,0.13-0.32,0.31-0.5c0.38-0.36,0.69-0.37,0.9-0.36c0.11,0.02,0.22,0.04,0.33,0.1c0.1,0.06,0.24,0.16,0.31,0.3
		c0.07,0.17,0.01,0.25-0.1,0.37c-0.11,0.11-0.26,0.2-0.47,0.29c-0.18,0.15-0.31,0.29-0.17,0.43c0.12,0.13,0.39,0.15,0.7,0.06
		c0.3-0.08,0.67-0.33,0.8-0.68c0.13-0.31,0.08-0.69-0.09-0.95c-0.16-0.27-0.41-0.46-0.68-0.58c-0.37-0.13-0.66-0.11-0.96-0.04
		c-0.3,0.09-0.65,0.21-1.05,0.61c-0.52,0.55-0.55,1.04-0.53,1.4c0.04,0.37,0.11,0.78,0.57,1.34c0.49,0.54,0.83,0.7,1.16,0.87
		c0.35,0.14,0.72,0.27,1.46,0.17c0.72-0.13,1.03-0.33,1.33-0.5c0.29-0.19,0.59-0.38,1.09-0.86c0.49-0.5,0.67-0.86,0.82-1.2
		c0.13-0.35,0.26-0.75,0.13-1.48c-0.15-0.73-0.4-1.03-0.61-1.32c-0.23-0.28-0.46-0.57-1.05-0.97c-0.09-0.06-0.17-0.1-0.25-0.15
		c1.44-0.59,2.95-1.21,5.82-2.33c0.66-0.25,1.25-0.48,1.78-0.68c1.26-0.23,2.56-0.36,3.79-0.25c0.13,0.01,0.73,0.06,1.51,0.22
		c0.79,0.16,1.77,0.44,2.66,0.81c1.39,0.58,2.02,1.02,2.64,1.44c0.61,0.44,1.22,0.9,2.19,2.03c0.94,1.17,1.22,1.86,1.47,2.52
		c0.12,0.33,0.2,0.67,0.25,1.1c0.05,0.43,0.08,0.96-0.04,1.66c-0.26,1.4-0.68,2.04-1.05,2.65c-0.2,0.3-0.42,0.59-0.71,0.93
		c-0.3,0.34-0.68,0.72-1.27,1.16c-1.19,0.84-1.88,1.12-2.56,1.4c-0.69,0.25-1.42,0.52-2.91,0.46c-1.48-0.12-2.18-0.43-2.75-0.78
		c-0.29-0.18-0.54-0.39-0.8-0.7c-0.24-0.32-0.52-0.75-0.68-1.4c-0.15-0.66-0.12-1.18-0.05-1.59c0.08-0.41,0.19-0.72,0.34-1.03
		c0.15-0.3,0.35-0.59,0.64-0.91c0.3-0.31,0.69-0.67,1.32-0.99c0.63-0.32,1.16-0.43,1.59-0.47c0.42-0.04,0.76,0.01,1.08,0.08
		c0.31,0.08,0.61,0.19,0.89,0.38c0.28,0.2,0.54,0.45,0.65,0.93c0.07,0.34,0.02,0.66-0.07,0.88c-0.09,0.23-0.2,0.38-0.33,0.5
		c-0.27,0.24-0.61,0.39-1.04,0.39c-0.4,0.14-0.8,0.15-0.76,0.55c0.04,0.37,0.71,0.79,1.58,0.67c0.42-0.05,0.87-0.23,1.24-0.52
		c0.37-0.29,0.64-0.69,0.8-1.04c0.29-0.66,0.33-1.42,0.11-2.13c-0.22-0.72-0.76-1.33-1.37-1.69c-0.84-0.43-1.48-0.47-2.2-0.46
		c-0.73,0.04-1.58,0.16-2.77,0.74c-0.79,0.41-1.3,0.86-1.68,1.27c-0.38,0.42-0.63,0.8-0.84,1.2c-0.2,0.4-0.36,0.85-0.46,1.4
		c-0.1,0.56-0.13,1.25,0.08,2.14c0.22,0.88,0.58,1.49,0.93,1.96c0.36,0.46,0.73,0.78,1.11,1.05c0.78,0.51,1.63,0.93,3.39,1.07
		c1.77,0.06,2.63-0.24,3.45-0.51c0.41-0.15,0.81-0.31,1.29-0.56c0.48-0.25,1.05-0.55,1.75-1.07c0.69-0.52,1.17-0.97,1.54-1.37
		c0.37-0.4,0.65-0.74,0.91-1.09c0.49-0.72,1.04-1.48,1.38-3.26c0.15-0.9,0.1-1.6,0-2.16c-0.1-0.57-0.24-1.01-0.42-1.42
		c-0.37-0.82-0.78-1.61-1.85-2.93c-1.1-1.3-1.77-1.84-2.43-2.38c-0.67-0.51-1.36-1.05-2.94-1.71c-1.59-0.62-2.44-0.77-3.28-0.93
		c-0.15-0.02-0.3-0.04-0.46-0.07c1.34-0.47,2.84-1,5.57-1.59c0.79-0.15,1.48-0.28,2.09-0.4c0.62-0.11,1.16-0.17,1.66-0.24
		c0.99-0.16,1.79-0.18,2.58-0.26c1.59-0.07,3.19-0.2,6.34,0.08c1.57,0.17,2.74,0.36,3.7,0.59c0.97,0.18,1.72,0.44,2.47,0.66
		c0.19,0.06,0.38,0.11,0.57,0.17c0.18,0.07,0.36,0.13,0.54,0.2c0.36,0.16,0.75,0.33,1.15,0.57c0.41,0.23,0.83,0.52,1.27,0.88
		c0.43,0.36,0.89,0.82,1.22,1.39c0.33,0.57,0.43,1.1,0.38,1.55c-0.05,0.46-0.2,0.85-0.43,1.16c-0.46,0.64-1.09,1.08-1.69,1.41
		c-0.62,0.32-1.28,0.55-2.08,0.6c-0.4,0.01-0.83-0.02-1.27-0.18c-0.4-0.14-0.86-0.43-1.21-0.91c-0.47-0.63-0.55-1.26-0.45-1.71
		c0.05-0.24,0.13-0.37,0.26-0.53c0.12-0.15,0.29-0.27,0.46-0.36c0.35-0.19,0.74-0.26,1.07-0.22c0.34,0.03,0.59,0.18,0.77,0.42l0,0
		l0.73,0.76c0,0.01,0,0.02-0.01,0.03c-0.02,0.07-0.02,0.14,0.08,0.23c0.07,0.05,0.2,0.08,0.34,0.01c0.15-0.06,0.28-0.22,0.36-0.43
		c0.08-0.21,0.12-0.46,0.04-0.76c-0.04-0.14-0.12-0.31-0.27-0.44c-0.08-0.08-0.19-0.13-0.3-0.17c-0.23-0.4-0.61-0.75-1.09-0.93
		c-0.52-0.21-1.1-0.25-1.65-0.15c-0.55,0.09-1.07,0.32-1.51,0.67c-0.44,0.34-0.76,0.83-0.92,1.3c-0.25,0.69-0.23,1.46-0.03,2.13
		c0.2,0.68,0.57,1.28,1.05,1.79c0.48,0.5,1.08,0.9,1.77,1.13c0.66,0.22,1.36,0.3,2.03,0.24c0.88-0.09,1.58-0.35,2.2-0.66
		c0.62-0.31,1.17-0.69,1.7-1.17c0.52-0.49,1.11-1.11,1.47-2.1c0.35-0.96,0.33-2.35-0.41-3.56c-0.48-0.82-1.05-1.38-1.58-1.83
		c-0.53-0.44-1.03-0.79-1.51-1.05C96.73,2.14,95.88,1.81,95.09,1.6z"/>
	<path class="st0" d="M109.36,1.6c0.8-0.24,1.59-0.51,2.62-0.71c1.01-0.25,2.25-0.46,3.91-0.64c1.66-0.17,2.91-0.18,3.95-0.24
		c1.04,0.02,1.88-0.03,2.71,0.01c0.83,0.05,1.67,0.04,2.7,0.17c0.52,0.06,1.09,0.11,1.73,0.22c0.64,0.12,1.36,0.24,2.17,0.41
		c3.25,0.71,4.79,1.31,6.36,1.84c1.55,0.58,3.1,1.13,6.14,2.36c3.04,1.24,4.55,1.86,6.07,2.46c0.93,0.37,1.86,0.74,3.11,1.28
		c0.25,0.07,0.53,0.16,0.95,0.32c0.81,0.35,1.08,0.5,1.49,0.74c0.14,0.06,0.29,0.13,0.44,0.19c2.97,1.31,4.45,1.97,5.94,2.61
		c0.74,0.32,1.49,0.63,2.44,0.98c0.94,0.36,2.09,0.76,3.64,1.22c3.1,0.91,4.7,1.15,6.29,1.4c0.8,0.1,1.59,0.23,2.6,0.3
		c1,0.1,2.2,0.16,3.81,0.18c1.38-0.01,2.46-0.08,3.37-0.17c-0.08-0.04-0.16-0.08-0.23-0.13c-0.5-0.32-0.68-0.59-0.85-0.84
		c-0.15-0.26-0.3-0.54-0.38-1.13c-0.05-0.58,0.02-0.87,0.07-1.15c0.07-0.28,0.14-0.56,0.41-1.05c0.29-0.49,0.5-0.7,0.7-0.9
		c0.21-0.19,0.41-0.39,0.92-0.66c0.51-0.25,0.82-0.28,1.1-0.3c0.29,0,0.58-0.02,1.15,0.12c0.57,0.18,0.79,0.39,1.02,0.57
		c0.21,0.2,0.44,0.41,0.65,0.97c0.19,0.58,0.12,0.92,0.04,1.21c-0.09,0.29-0.24,0.65-0.77,0.99c-0.54,0.31-0.86,0.33-1.17,0.36
		c-0.16,0.01-0.32,0-0.53-0.06c-0.2-0.06-0.46-0.16-0.7-0.44c-0.32-0.38-0.41-0.79-0.28-1.18c0.04-0.09,0.09-0.18,0.16-0.26
		c0.07-0.08,0.2-0.17,0.31-0.19c0.23-0.06,0.42-0.03,0.63,0.08c0.19,0.14,0.26,0.44,0.18,0.56c-0.07,0.12-0.15,0.09-0.22,0.02
		c-0.13-0.15-0.3-0.09-0.37-0.03c0.03,0.02,0,0.11,0.05,0.22c0.09,0.19,0.27,0.38,0.52,0.43c0.15,0.06,0.28,0.09,0.44,0.09
		c0.16,0,0.37-0.02,0.63-0.18c0.34-0.23,0.41-0.42,0.47-0.6c0.05-0.19,0.1-0.41-0.03-0.82c-0.16-0.4-0.35-0.55-0.52-0.68
		c-0.18-0.11-0.36-0.24-0.73-0.35c-0.4-0.1-0.62-0.09-0.83-0.09c-0.22,0.02-0.45,0.04-0.85,0.24c-0.4,0.22-0.56,0.4-0.7,0.57
		c-0.14,0.18-0.27,0.35-0.5,0.73c-0.21,0.39-0.29,0.59-0.38,0.8c-0.07,0.21-0.15,0.43-0.11,0.87c0.06,0.43,0.19,0.62,0.31,0.78
		c0.14,0.16,0.26,0.32,0.62,0.54c0.36,0.21,0.59,0.26,0.8,0.31c0.22,0.04,0.44,0.08,0.89,0.05c0.79-0.08,0.91-0.13,1.53-0.31
		c0.22-0.03,0.44-0.06,0.63-0.03c0.13,0.02,0.2,0.07,0.21,0.13c1.23-0.27,2.67-0.65,4.87-1.47c2.58-1.01,3.97-1.75,5.19-2.45
		c0.62-0.33,1.17-0.7,1.78-1.15c0.31-0.22,0.62-0.47,0.95-0.76c0.32-0.3,0.69-0.6,1.05-1.01c1.02-0.97,1.93-1.98,2.85-2.58
		c0.98-0.62,1.64-0.07,1.69,0.67c0.05,0.75-0.54,1.67-1.34,2.32c-0.51,0.45-1.07,0.84-1.66,1.22c-0.57,0.4-1.2,0.73-1.81,1.1
		c-1.24,0.7-2.51,1.41-3.81,2.06c-2.63,1.27-5.42,2.22-8.12,2.91c-0.13,0.04-0.52,0.14-1.08,0.26c-0.56,0.13-1.31,0.29-2.18,0.42
		c-1.73,0.29-3.94,0.53-6.05,0.51c-1.65-0.02-2.89-0.08-3.92-0.19c-1.03-0.07-1.84-0.22-2.66-0.32c-0.82-0.11-1.62-0.29-2.64-0.46
		c-1-0.23-2.22-0.47-3.81-0.91c-1.59-0.43-2.77-0.79-3.75-1.11c-0.98-0.31-1.76-0.58-2.53-0.85c-1.55-0.54-3.09-1.11-6.13-2.32
		c-2.51-1.02-3.97-1.62-5.26-2.15c-0.22,0.07-0.47,0.16-0.82,0.39c-0.46,0.32-0.62,0.57-0.78,0.79c-0.14,0.24-0.31,0.49-0.42,1.03
		c-0.09,0.55-0.01,0.82,0.06,1.06c0.09,0.24,0.19,0.49,0.59,0.9c0.42,0.4,0.67,0.57,0.9,0.74c0.25,0.15,0.51,0.33,1.08,0.43
		c0.57,0.08,0.86-0.01,1.11-0.1c0.25-0.1,0.52-0.22,0.88-0.63c0.34-0.43,0.38-0.7,0.4-0.95c0.01-0.13,0-0.25-0.04-0.39
		c-0.04-0.14-0.13-0.32-0.31-0.5c-0.38-0.36-0.69-0.37-0.9-0.36c-0.11,0.02-0.22,0.04-0.33,0.1c-0.1,0.06-0.24,0.16-0.31,0.3
		c-0.07,0.17-0.01,0.25,0.1,0.37c0.11,0.11,0.26,0.2,0.47,0.29c0.18,0.15,0.31,0.29,0.17,0.43c-0.12,0.13-0.39,0.15-0.7,0.06
		c-0.3-0.08-0.67-0.33-0.8-0.68c-0.13-0.31-0.08-0.69,0.09-0.95c0.16-0.27,0.41-0.46,0.68-0.58c0.37-0.13,0.66-0.11,0.96-0.04
		c0.3,0.09,0.65,0.21,1.05,0.61c0.52,0.55,0.55,1.04,0.53,1.4c-0.04,0.37-0.11,0.78-0.57,1.34c-0.49,0.54-0.83,0.7-1.16,0.87
		c-0.35,0.14-0.72,0.27-1.46,0.17c-0.72-0.13-1.03-0.33-1.33-0.5c-0.29-0.19-0.59-0.38-1.09-0.86c-0.49-0.5-0.67-0.86-0.82-1.2
		c-0.13-0.35-0.26-0.75-0.13-1.48c0.15-0.73,0.4-1.03,0.61-1.32c0.23-0.28,0.46-0.57,1.05-0.97c0.09-0.06,0.17-0.1,0.25-0.15
		c-1.44-0.59-2.95-1.21-5.82-2.33c-0.66-0.25-1.25-0.48-1.78-0.68c-1.26-0.23-2.56-0.36-3.79-0.25c-0.13,0.01-0.73,0.06-1.51,0.22
		c-0.79,0.16-1.77,0.44-2.66,0.81c-1.39,0.58-2.02,1.02-2.64,1.44c-0.61,0.44-1.22,0.9-2.19,2.03c-0.94,1.17-1.22,1.86-1.47,2.52
		c-0.12,0.33-0.2,0.67-0.25,1.1c-0.05,0.43-0.08,0.96,0.04,1.66c0.26,1.4,0.68,2.04,1.05,2.65c0.2,0.3,0.41,0.59,0.71,0.93
		c0.3,0.34,0.68,0.72,1.27,1.16c1.19,0.84,1.88,1.12,2.56,1.4c0.69,0.25,1.42,0.52,2.91,0.46c1.48-0.12,2.18-0.43,2.75-0.78
		c0.29-0.18,0.54-0.39,0.8-0.7c0.24-0.32,0.52-0.75,0.68-1.4c0.15-0.66,0.12-1.18,0.05-1.59c-0.08-0.41-0.19-0.72-0.34-1.03
		c-0.15-0.3-0.35-0.59-0.64-0.91c-0.3-0.31-0.69-0.67-1.32-0.99c-0.63-0.32-1.16-0.43-1.59-0.47c-0.42-0.04-0.76,0.01-1.08,0.08
		c-0.31,0.08-0.61,0.19-0.89,0.38c-0.28,0.2-0.54,0.45-0.65,0.93c-0.07,0.34-0.02,0.66,0.07,0.88c0.09,0.23,0.2,0.38,0.33,0.5
		c0.27,0.24,0.61,0.39,1.04,0.39c0.4,0.14,0.8,0.15,0.76,0.55c-0.04,0.37-0.71,0.79-1.58,0.67c-0.42-0.05-0.87-0.23-1.24-0.52
		c-0.37-0.29-0.64-0.69-0.8-1.04c-0.29-0.66-0.33-1.42-0.11-2.13c0.22-0.72,0.76-1.33,1.37-1.69c0.84-0.43,1.48-0.47,2.2-0.46
		c0.73,0.04,1.58,0.16,2.77,0.74c0.79,0.41,1.3,0.86,1.68,1.27c0.38,0.42,0.63,0.8,0.84,1.2c0.2,0.4,0.36,0.85,0.46,1.4
		c0.1,0.56,0.13,1.25-0.08,2.14c-0.22,0.88-0.58,1.49-0.93,1.96c-0.36,0.46-0.73,0.78-1.11,1.05c-0.78,0.51-1.63,0.93-3.39,1.07
		c-1.77,0.06-2.63-0.24-3.45-0.51c-0.41-0.15-0.81-0.31-1.29-0.56c-0.48-0.25-1.05-0.55-1.75-1.07c-0.69-0.52-1.17-0.97-1.54-1.37
		c-0.37-0.4-0.65-0.74-0.91-1.09c-0.49-0.72-1.04-1.48-1.38-3.26c-0.15-0.9-0.1-1.6,0-2.16c0.1-0.57,0.24-1.01,0.42-1.42
		c0.37-0.82,0.78-1.61,1.85-2.93c1.1-1.3,1.77-1.84,2.43-2.38c0.67-0.51,1.36-1.05,2.94-1.71c1.59-0.62,2.44-0.77,3.28-0.93
		c0.15-0.02,0.3-0.04,0.46-0.07c-1.34-0.47-2.84-1-5.57-1.59c-0.79-0.15-1.48-0.28-2.09-0.4c-0.62-0.11-1.16-0.17-1.66-0.24
		c-0.99-0.16-1.79-0.18-2.58-0.26c-1.59-0.07-3.19-0.2-6.34,0.08c-1.57,0.17-2.74,0.36-3.7,0.59c-0.97,0.18-1.72,0.44-2.47,0.66
		c-0.19,0.06-0.38,0.11-0.57,0.17c-0.18,0.07-0.36,0.13-0.54,0.2c-0.36,0.16-0.75,0.33-1.15,0.57c-0.41,0.23-0.83,0.52-1.27,0.88
		c-0.43,0.36-0.89,0.82-1.22,1.39c-0.33,0.57-0.43,1.1-0.38,1.55c0.05,0.46,0.2,0.85,0.43,1.16c0.46,0.64,1.09,1.08,1.69,1.41
		c0.62,0.32,1.28,0.55,2.08,0.6c0.4,0.01,0.83-0.02,1.27-0.18c0.4-0.14,0.86-0.43,1.21-0.91c0.47-0.63,0.55-1.26,0.45-1.71
		c-0.05-0.24-0.13-0.37-0.26-0.53c-0.12-0.15-0.29-0.27-0.46-0.36c-0.35-0.19-0.74-0.26-1.07-0.22c-0.34,0.03-0.59,0.18-0.77,0.42
		l0,0l-0.73,0.76c0,0.01,0,0.02,0.01,0.03c0.02,0.07,0.02,0.14-0.08,0.23c-0.07,0.05-0.2,0.08-0.34,0.01
		c-0.15-0.06-0.28-0.22-0.36-0.43c-0.08-0.21-0.12-0.46-0.04-0.76c0.04-0.14,0.12-0.31,0.27-0.44c0.08-0.08,0.19-0.13,0.3-0.17
		c0.23-0.4,0.61-0.75,1.09-0.93c0.52-0.21,1.1-0.25,1.65-0.15c0.55,0.09,1.07,0.32,1.51,0.67c0.44,0.34,0.76,0.83,0.92,1.3
		c0.25,0.69,0.23,1.46,0.03,2.13c-0.2,0.68-0.57,1.28-1.05,1.79c-0.48,0.5-1.08,0.9-1.77,1.13c-0.66,0.22-1.36,0.3-2.03,0.24
		c-0.88-0.09-1.58-0.35-2.2-0.66c-0.62-0.31-1.17-0.69-1.7-1.17c-0.52-0.49-1.11-1.11-1.47-2.1c-0.35-0.96-0.33-2.35,0.41-3.56
		c0.48-0.82,1.05-1.38,1.58-1.83c0.53-0.44,1.03-0.79,1.51-1.05C107.72,2.14,108.57,1.81,109.36,1.6z"/>
</g>
</svg>
