<svg version="1.1" xmlns="http://www.w3.org/2000/svg" xmlns:xlink="http://www.w3.org/1999/xlink" x="0px" y="0px"
	 viewBox="0 0 216.73 8.38" style="enable-background:new 0 0 216.73 8.38;" xml:space="preserve">
<g>
	<path class="st0" d="M202.56,7.67c-2.18-1.33-4.45-2.49-6.79-3.48c2.34-0.99,4.62-2.15,6.79-3.48c0.18-0.11,0.24-0.35,0.13-0.53
		c-0.11-0.18-0.35-0.24-0.53-0.13c-2.36,1.44-4.84,2.68-7.4,3.72c-5.29-2.11-10.92-3.35-16.62-3.63
		c-7.85-0.39-15.76,1.05-22.56,2.42c-1.11,0.22-2.22,0.45-3.32,0.68c-0.88,0.18-1.77,0.37-2.66,0.55
		c-7.54-1.54-15.29-2.92-23.07-2.56c-4.57,0.22-8.88,1.08-12.74,2.54c-1.85-0.72-3.6-1.57-5.21-2.56c-0.12-0.08-0.28-0.08-0.4,0
		c-1.61,0.99-3.36,1.84-5.21,2.56c-3.86-1.45-8.18-2.32-12.74-2.54C82.43,0.87,74.68,2.26,67.14,3.8c-0.89-0.18-1.77-0.36-2.66-0.55
		c-1.11-0.23-2.21-0.46-3.32-0.68c-6.8-1.38-14.72-2.81-22.56-2.42c-5.7,0.28-11.33,1.52-16.62,3.63c-2.56-1.04-5.04-2.28-7.4-3.72
		C14.4-0.05,14.16,0,14.05,0.18c-0.11,0.18-0.05,0.42,0.13,0.53c2.18,1.33,4.45,2.49,6.79,3.48c-2.34,0.99-4.62,2.15-6.79,3.48
		c-0.18,0.11-0.24,0.35-0.13,0.53c0.07,0.12,0.2,0.18,0.33,0.18c0.07,0,0.14-0.02,0.2-0.06c2.36-1.44,4.84-2.68,7.4-3.72
		C27.27,6.71,32.9,7.95,38.6,8.24c0.89,0.04,1.78,0.06,2.67,0.06c6.96,0,13.86-1.27,19.9-2.49c1.11-0.22,2.22-0.45,3.32-0.68
		c0.88-0.18,1.77-0.37,2.66-0.55c7.54,1.54,15.29,2.92,23.07,2.56c4.57-0.22,8.88-1.08,12.74-2.54c1.85,0.71,3.6,1.57,5.21,2.56
		c0.06,0.04,0.13,0.06,0.2,0.06c0.07,0,0.14-0.02,0.2-0.06c1.61-0.99,3.36-1.84,5.21-2.56c3.86,1.45,8.18,2.32,12.74,2.54
		c0.86,0.04,1.72,0.06,2.58,0.06c6.91,0,13.78-1.25,20.49-2.62c0.89,0.18,1.77,0.36,2.66,0.55c1.11,0.23,2.21,0.46,3.32,0.68
		c6.03,1.22,12.94,2.49,19.89,2.49c0.89,0,1.78-0.02,2.67-0.06c5.7-0.28,11.33-1.52,16.62-3.63c2.56,1.04,5.04,2.28,7.4,3.72
		c0.06,0.04,0.13,0.06,0.2,0.06c0.13,0,0.26-0.07,0.33-0.18C202.8,8.02,202.74,7.78,202.56,7.67z M64.33,4.38
		c-1.1,0.23-2.21,0.46-3.32,0.68C54.25,6.43,46.4,7.85,38.64,7.47C33.29,7.2,28.01,6.09,23.03,4.19c4.99-1.9,10.27-3.01,15.61-3.28
		c7.76-0.38,15.61,1.04,22.37,2.41c1.11,0.22,2.22,0.45,3.32,0.68c0.3,0.06,0.6,0.12,0.9,0.19C64.93,4.25,64.63,4.32,64.33,4.38z
		 M90.18,6.37c-7.08,0.34-14.16-0.8-21.09-2.18c6.93-1.38,14.01-2.51,21.09-2.18c4.15,0.2,8.09,0.94,11.66,2.18
		C98.26,5.43,94.33,6.17,90.18,6.37z M108.37,6.38C107,5.55,105.53,4.83,104,4.19c1.54-0.63,3-1.36,4.37-2.19
		c1.37,0.82,2.83,1.55,4.37,2.19C111.2,4.83,109.74,5.55,108.37,6.38z M126.56,6.37c-4.15-0.2-8.09-0.94-11.66-2.18
		c3.57-1.24,7.5-1.98,11.66-2.18c7.08-0.33,14.16,0.8,21.08,2.18C140.72,5.57,133.64,6.71,126.56,6.37z M178.1,7.47
		c-7.76,0.38-15.61-1.04-22.37-2.41c-1.11-0.22-2.22-0.45-3.32-0.68c-0.3-0.06-0.6-0.12-0.9-0.19c0.3-0.06,0.6-0.12,0.9-0.19
		c1.1-0.23,2.21-0.46,3.32-0.68c6.76-1.37,14.61-2.79,22.37-2.41c5.35,0.27,10.62,1.38,15.61,3.28
		C188.72,6.09,183.44,7.2,178.1,7.47z"/>
	<path class="st0" d="M216.73,3.93c-0.11-0.75-0.88-1.45-1.99-1.83c-1.47-0.5-3.32-0.41-4.95-0.14c-2.88,0.48-5.45,1.47-8.11,2.28
		c1.63,0.45,3.25,0.9,4.88,1.35c1.4,0.39,2.83,0.78,4.36,0.92c1.53,0.14,3.22,0,4.4-0.58C216.3,5.44,216.85,4.67,216.73,3.93z"/>
	<path class="st0" d="M10.18,2.71c-1.4-0.39-2.83-0.78-4.36-0.92c-1.53-0.14-3.22,0-4.4,0.58C0.43,2.86-0.11,3.63,0,4.38
		C0.11,5.12,0.88,5.83,1.99,6.2c1.47,0.5,3.32,0.41,4.95,0.14c2.88-0.48,5.45-1.47,8.11-2.28C13.43,3.62,11.8,3.17,10.18,2.71z"/>
</g>
</svg>
