<svg version="1.1" xmlns="http://www.w3.org/2000/svg" xmlns:xlink="http://www.w3.org/1999/xlink" x="0px" y="0px"
	 viewBox="0 0 162 22.1" style="enable-background:new 0 0 162 22.1;" xml:space="preserve">
<g>
	<path class="st0" d="M0.52,19.23c-0.12,0.2-0.2,0.41-0.23,0.64c-0.07,0.38-0.05,0.82,0.09,1.18c0.06,0.19,0.17,0.35,0.32,0.47
		c0.25,0.15,0.43,0.01,0.59-0.18c0.66-0.82,1.38-1.58,2.09-2.35c0.61-0.66,1.22-1.32,1.84-1.97c0.93,1.39,1.87,2.77,2.86,4.12
		c0.17,0.29,0.42,0.45,0.75,0.49c0.54,0,0.86-0.61,1.02-1.03c0.17-0.48,0.25-0.98,0.24-1.49c0-0.7-0.13-1.44-0.52-2.04
		c-0.59-0.91-1.19-1.83-1.79-2.74c0.63-0.65,1.26-1.3,1.89-1.96c0.68-0.71,1.37-1.41,2.06-2.11c0.17-0.14,0.29-0.31,0.35-0.52
		c0.15-0.4,0.18-0.89,0.1-1.31c-0.04-0.25-0.12-0.49-0.26-0.71c-0.09-0.12-0.28-0.29-0.46-0.29c-0.07,0-0.14,0.02-0.2,0.09
		C10.02,8.8,8.77,10.1,7.52,11.4c-0.33,0.34-0.66,0.68-0.99,1.02C5.06,10.2,3.58,7.98,2.1,5.77C1.93,5.47,1.67,5.3,1.32,5.26
		c-0.57,0-0.9,0.64-1.07,1.08C0.08,6.85,0,7.37,0,7.9c0,0.72,0.13,1.52,0.54,2.13c1.14,1.71,2.29,3.42,3.44,5.13
		c-0.38,0.42-0.76,0.84-1.13,1.26C2.04,17.34,1.23,18.24,0.52,19.23z"/>
	<path class="st0" d="M37.54,16.65c0.38-0.52,0.48-1.28,0.48-1.9c0-0.48-0.07-0.94-0.23-1.39c-0.09-0.17-0.17-0.34-0.26-0.51
		c-0.16-0.27-0.39-0.42-0.7-0.45c-1.09-0.22-2.22-0.34-3.33-0.42c-1.22-0.09-2.43-0.15-3.65-0.2c-1.91-0.08-3.82-0.09-5.73-0.09
		c-0.91,0-1.81,0-2.72,0c-0.36,0.04-0.63,0.22-0.81,0.53c-0.44,0.61-0.56,1.5-0.56,2.22c-0.01,0.56,0.08,1.1,0.27,1.63
		c0.18,0.46,0.52,1.13,1.11,1.13c2.78,0,5.56,0.01,8.34,0.03c2.36,0.02,4.72-0.01,7.08-0.13C37.15,17.07,37.38,16.92,37.54,16.65z"
		/>
	<path class="st0" d="M62.56,11.14c0.24-0.63,0.27-1.38,0.16-2.04c-0.09-0.52-0.42-1.53-1.05-1.53c-0.11,0-0.24,0.03-0.37,0.11
		c-1.63,0.92-3.25,1.84-4.84,2.82c-1.29-2.02-2.58-4.05-3.85-6.08c-0.21-0.35-0.51-0.55-0.92-0.6c-0.67,0-1.06,0.76-1.25,1.27
		c-0.21,0.59-0.31,1.21-0.3,1.84c0,0.88,0.17,1.76,0.64,2.51c0.69,1.12,1.39,2.23,2.09,3.34c-1.03,0.67-2.05,1.38-2.8,2.36
		c-0.2,0.33-0.33,0.68-0.39,1.06c-0.11,0.63-0.08,1.35,0.15,1.95c0.1,0.31,0.27,0.57,0.53,0.77c0.11,0.04,0.23,0.07,0.34,0.11
		c0.27-0.03,0.48-0.17,0.63-0.41c0.49-0.46,1.07-0.82,1.63-1.19c0.35-0.23,0.69-0.46,1.04-0.68c0.34-0.21,0.67-0.42,1.01-0.64
		c0.04,0.06,0.08,0.12,0.12,0.19c1.16,1.76,2.36,3.53,3.76,5.11c0.19,0.33,0.47,0.51,0.84,0.55c0.62,0,0.97-0.69,1.15-1.17
		c0.19-0.55,0.28-1.11,0.28-1.69c0-0.75-0.12-1.68-0.58-2.31c-0.69-0.94-1.34-1.91-1.97-2.89c1.13-0.66,2.26-1.31,3.4-1.95
		C62.28,11.74,62.46,11.47,62.56,11.14z"/>
	<path class="st0" d="M77.57,17.29c2.86-0.55,5.73-1.09,8.6-1.58c2.36-0.4,4.72-0.79,7.09-1.1c0.39-0.05,0.77-0.09,1.16-0.13
		c0.29-0.03,0.5-0.17,0.65-0.43c0.36-0.49,0.45-1.2,0.45-1.78c0-0.45-0.07-0.88-0.21-1.3c-0.13-0.33-0.41-0.9-0.86-0.9
		c-0.01,0-0.02,0-0.03,0c-1.27,0.08-2.53,0.29-3.78,0.5c-1.05,0.18-2.1,0.38-3.15,0.57c-2.52,0.47-5.04,0.95-7.56,1.44
		c-0.79,0.15-1.58,0.3-2.37,0.46c-0.28,0.03-0.49,0.17-0.63,0.41c-0.34,0.47-0.44,1.16-0.44,1.72c0,0.43,0.06,0.85,0.21,1.26
		c0.08,0.15,0.15,0.31,0.23,0.46C77.08,17.12,77.29,17.26,77.57,17.29z"/>
	<path class="st0" d="M114.66,17.84c0.5,0,0.78-0.56,0.93-0.94c0.15-0.44,0.23-0.9,0.22-1.36c-0.02-0.24-0.04-0.49-0.06-0.73
		c-0.06-0.41-0.2-0.79-0.41-1.13c-0.22-0.23-0.43-0.46-0.64-0.69c2.31-1.31,4.62-2.62,6.93-3.93c0.23-0.18,0.39-0.42,0.48-0.7
		c0.21-0.55,0.24-1.2,0.14-1.77c-0.08-0.45-0.37-1.33-0.91-1.33c-0.1,0-0.21,0.03-0.32,0.1c-2.49,1.41-4.99,2.81-7.47,4.25
		c-0.4,0.23-0.79,0.46-1.19,0.69c-0.14-0.17-0.29-0.35-0.43-0.52c-1.37-1.64-2.71-3.31-4.02-5c-0.14-0.24-0.35-0.38-0.63-0.41
		c-0.46,0-0.73,0.52-0.86,0.87c-0.14,0.41-0.21,0.83-0.21,1.26c0,0.55,0.09,1.27,0.44,1.72c0.96,1.26,1.94,2.5,2.92,3.74
		c-0.22,0.13-0.44,0.27-0.65,0.41c-0.56,0.36-1.13,0.71-1.62,1.15c-0.21,0.17-0.36,0.38-0.44,0.65c-0.19,0.5-0.22,1.1-0.13,1.63
		c0.07,0.43,0.47,1.6,1.14,1.14c0.53-0.36,1.09-0.67,1.65-0.99c0.49-0.29,0.99-0.56,1.49-0.85c0.24-0.14,0.49-0.28,0.73-0.42
		c0.74,0.92,1.48,1.84,2.26,2.73C114.13,17.66,114.36,17.81,114.66,17.84z"/>
	<path class="st0" d="M142.39,12.88c0.65-0.06,1.31-0.13,1.96-0.19c0.87-0.09,1.74-0.2,2.62-0.16c0.29-0.03,0.51-0.18,0.66-0.43
		c0.36-0.49,0.46-1.22,0.46-1.8c0-0.45-0.07-0.89-0.22-1.32c-0.08-0.16-0.16-0.32-0.24-0.48c-0.15-0.26-0.37-0.4-0.66-0.43
		c-0.61-0.14-1.2-0.17-1.81-0.17c-0.26,0-0.52,0-0.78,0.01c-0.64,0.01-1.27,0.06-1.91,0.1c-1.2,0.06-2.4,0.16-3.59,0.24
		c-3,0.21-5.99,0.49-8.99,0.74c-0.32,0.04-0.57,0.19-0.73,0.48c-0.4,0.55-0.51,1.35-0.51,2c0,0.5,0.07,0.99,0.24,1.46
		c0.14,0.37,0.48,1.06,1,1.02c2.98-0.25,5.96-0.49,8.94-0.74C140.02,13.09,141.21,13,142.39,12.88z"/>
	<path class="st0" d="M156.04,4.85c-0.78-1.29-1.55-2.58-2.31-3.88c-0.15-0.26-0.38-0.41-0.68-0.44c-0.5,0-0.78,0.56-0.93,0.94
		c-0.39,1.01-0.29,2.28,0.25,3.21c0.78,1.34,1.56,2.66,2.36,3.98c0.23,0.38,0.46,0.75,0.68,1.13c-0.35,0.63-0.69,1.27-1.03,1.9
		c-0.23,0.43-0.46,0.86-0.67,1.3c-0.32,0.63-0.66,1.26-0.91,1.92c-0.16,0.47-0.24,0.95-0.24,1.44c0,0.64,0.11,1.43,0.5,1.97
		c0.16,0.28,0.41,0.44,0.72,0.47c0.55,0,0.8-0.6,0.99-1c0.01-0.02,0.02-0.04,0.03-0.07c0.82-1.56,1.7-3.08,2.56-4.61
		c0.05-0.08,0.09-0.17,0.14-0.25c0.21,0.29,0.42,0.59,0.63,0.88c0.27,0.38,0.57,0.74,0.86,1.1c0.45,0.57,0.96,1.13,1.52,1.57
		c0.23,0.15,0.47,0.15,0.7,0c0.45-0.26,0.62-0.95,0.7-1.41c0.16-0.94,0.06-2.15-0.7-2.81c-0.07-0.06-0.14-0.12-0.2-0.19
		c-0.61-0.68-1.15-1.43-1.68-2.18c-0.02-0.03-0.05-0.07-0.07-0.1c0.46-0.82,0.93-1.65,1.39-2.47c0.24-0.39,0.4-0.81,0.46-1.27
		c0.13-0.76,0.09-1.62-0.18-2.34c-0.12-0.37-0.33-0.68-0.63-0.93c-0.13-0.08-0.27-0.12-0.41-0.12c-0.31,0-0.59,0.18-0.76,0.48
		c-0.66,1.18-1.33,2.36-1.99,3.54C156.77,6.06,156.41,5.45,156.04,4.85z"/>
</g>
</svg>
