<svg version="1.1" xmlns="http://www.w3.org/2000/svg" xmlns:xlink="http://www.w3.org/1999/xlink" x="0px" y="0px"
	 viewBox="0 0 400 13.48" style="enable-background:new 0 0 400 13.48;" xml:space="preserve">
<style type="text/css">
	.st0{fill:none;stroke:#000000;stroke-miterlimit:10;}
</style>
<g>
	<rect x="3.07" y="3.74" transform="matrix(0.7071 0.7071 -0.7071 0.7071 6.5431 -2.3196)" class="st0" width="6" height="6"/>
	<rect x="14.48" y="3.74" transform="matrix(0.7071 0.7071 -0.7071 0.7071 9.8843 -10.3859)" class="st0" width="6" height="6"/>
	<rect x="25.89" y="3.74" transform="matrix(0.7071 0.7071 -0.7071 0.7071 13.2255 -18.4523)" class="st0" width="6" height="6"/>
	<rect x="37.29" y="3.74" transform="matrix(0.7071 0.7071 -0.7071 0.7071 16.5667 -26.5186)" class="st0" width="6" height="6"/>
	<rect x="48.7" y="3.74" transform="matrix(0.7071 0.7071 -0.7071 0.7071 19.9079 -34.585)" class="st0" width="6" height="6"/>
	<rect x="60.11" y="3.74" transform="matrix(0.7071 0.7071 -0.7071 0.7071 23.2491 -42.6514)" class="st0" width="6" height="6"/>
	<rect x="71.52" y="3.74" transform="matrix(0.7071 0.7071 -0.7071 0.7071 26.5903 -50.7177)" class="st0" width="6" height="6"/>
	<rect x="82.92" y="3.74" transform="matrix(0.7071 0.7071 -0.7071 0.7071 29.9315 -58.7841)" class="st0" width="6" height="6"/>
	<rect x="94.33" y="3.74" transform="matrix(0.7071 0.7071 -0.7071 0.7071 33.2727 -66.8504)" class="st0" width="6" height="6"/>
	<rect x="105.74" y="3.74" transform="matrix(0.7071 0.7071 -0.7071 0.7071 36.6139 -74.9168)" class="st0" width="6" height="6"/>
	<rect x="117.15" y="3.74" transform="matrix(0.7071 0.7071 -0.7071 0.7071 39.9551 -82.9832)" class="st0" width="6" height="6"/>
	<rect x="128.55" y="3.74" transform="matrix(0.7071 0.7071 -0.7071 0.7071 43.2963 -91.0495)" class="st0" width="6" height="6"/>
	<rect x="139.96" y="3.74" transform="matrix(0.7071 0.7071 -0.7071 0.7071 46.6375 -99.1159)" class="st0" width="6" height="6"/>
	<rect x="151.37" y="3.74" transform="matrix(0.7071 0.7071 -0.7071 0.7071 49.9787 -107.1823)" class="st0" width="6" height="6"/>
	<rect x="162.78" y="3.74" transform="matrix(0.7071 0.7071 -0.7071 0.7071 53.3199 -115.2486)" class="st0" width="6" height="6"/>
	<rect x="174.18" y="3.74" transform="matrix(0.7071 0.7071 -0.7071 0.7071 56.6611 -123.315)" class="st0" width="6" height="6"/>
	<rect x="185.59" y="3.74" transform="matrix(0.7071 0.7071 -0.7071 0.7071 60.0023 -131.3813)" class="st0" width="6" height="6"/>
	<rect x="197" y="3.74" transform="matrix(0.7071 0.7071 -0.7071 0.7071 63.3435 -139.4477)" class="st0" width="6" height="6"/>
	<rect x="208.41" y="3.74" transform="matrix(0.7071 0.7071 -0.7071 0.7071 66.6847 -147.5141)" class="st0" width="6" height="6"/>
	<rect x="219.82" y="3.74" transform="matrix(0.7071 0.7071 -0.7071 0.7071 70.0259 -155.5804)" class="st0" width="6" height="6"/>
	<rect x="231.22" y="3.74" transform="matrix(0.7071 0.7071 -0.7071 0.7071 73.3671 -163.6468)" class="st0" width="6" height="6"/>
	<rect x="242.63" y="3.74" transform="matrix(0.7071 0.7071 -0.7071 0.7071 76.7083 -171.7132)" class="st0" width="6" height="6"/>
	<rect x="254.04" y="3.74" transform="matrix(0.7071 0.7071 -0.7071 0.7071 80.0495 -179.7795)" class="st0" width="6" height="6"/>
	<rect x="265.45" y="3.74" transform="matrix(0.7071 0.7071 -0.7071 0.7071 83.3906 -187.8459)" class="st0" width="6" height="6"/>
	<rect x="276.85" y="3.74" transform="matrix(0.7071 0.7071 -0.7071 0.7071 86.7318 -195.9122)" class="st0" width="6" height="6"/>
	<rect x="288.26" y="3.74" transform="matrix(0.7071 0.7071 -0.7071 0.7071 90.073 -203.9786)" class="st0" width="6" height="6"/>
	<rect x="299.67" y="3.74" transform="matrix(0.7071 0.7071 -0.7071 0.7071 93.4142 -212.045)" class="st0" width="6" height="6"/>
	<rect x="311.08" y="3.74" transform="matrix(0.7071 0.7071 -0.7071 0.7071 96.7554 -220.1113)" class="st0" width="6" height="6"/>
	
		<rect x="322.48" y="3.74" transform="matrix(0.7071 0.7071 -0.7071 0.7071 100.0966 -228.1777)" class="st0" width="6" height="6"/>
	<rect x="333.89" y="3.74" transform="matrix(0.7071 0.7071 -0.7071 0.7071 103.4378 -236.244)" class="st0" width="6" height="6"/>
	<rect x="345.3" y="3.74" transform="matrix(0.7071 0.7071 -0.7071 0.7071 106.779 -244.3104)" class="st0" width="6" height="6"/>
	
		<rect x="356.71" y="3.74" transform="matrix(0.7071 0.7071 -0.7071 0.7071 110.1202 -252.3768)" class="st0" width="6" height="6"/>
	
		<rect x="368.11" y="3.74" transform="matrix(0.7071 0.7071 -0.7071 0.7071 113.4614 -260.4431)" class="st0" width="6" height="6"/>
	
		<rect x="379.52" y="3.74" transform="matrix(0.7071 0.7071 -0.7071 0.7071 116.8026 -268.5095)" class="st0" width="6" height="6"/>
	
		<rect x="390.93" y="3.74" transform="matrix(0.7071 0.7071 -0.7071 0.7071 120.1438 -276.5758)" class="st0" width="6" height="6"/>
</g>
</svg>
