<svg version="1.1" xmlns="http://www.w3.org/2000/svg" xmlns:xlink="http://www.w3.org/1999/xlink" x="0px" y="0px"
	 viewBox="0 0 504.5 28.7" style="enable-background:new 0 0 504.5 28.7;" xml:space="preserve">
<g>
	<g>
		<g>
			<g>
				<g>
					<path class="st0" d="M285.3,18.3c-3.5,2.7-7.7,0.2-10.2-1.7c-2.6-2-5.7-3.3-8.8-3.4c-11.4-0.4-12.7,12.4-12.7,12.4
						s7.3-12.1,15.9-7.9c0,0,6,2.6,7,10.4c0,0,1.9-3.7-0.4-7.2C278.2,21.9,281.8,22.9,285.3,18.3z"/>
					<path class="st0" d="M216.9,18.3c3.5,2.7,7.7,0.2,10.2-1.7c2.6-2,5.7-3.3,8.8-3.4c11.4-0.4,12.7,12.4,12.7,12.4
						s-7.3-12.1-15.9-7.9c0,0-6,2.6-7,10.4c0,0-1.9-3.7,0.4-7.2C224,21.9,220.4,22.9,216.9,18.3z"/>
				</g>
				<path class="st0" d="M261.7,10.5c-4-0.8-7.7,4.2-9.9,8.2c-0.3,0.5-0.5,0.9-0.7,1.4c-0.2-0.4-0.5-0.9-0.7-1.4
					c-2.2-4-5.9-9-9.9-8.2c3.1-4.9,8-2.3,10.7,5.6C253.7,8.1,258.6,5.6,261.7,10.5z"/>
				<path class="st0" d="M249.5,5.7c-0.5-2.4,1.6-5.7,1.6-5.7s2,3.3,1.6,5.7C252.3,7.5,249.9,7.5,249.5,5.7z"/>
			</g>
		</g>
		<g>
			<g>
				<path class="st0" d="M285.4,25.9c22.9,3.2,46.7,3.6,69.7,1.8c9.3-0.7,18.7-1.8,27.9-3.6c9.8-1.9,19.2-4.7,28.7-7.8
					c16.2-5.2,33.4-9,50.5-8.3c5.8,0.3,12.9,0.7,18.2,3.5c0.9,0.4,1.6-0.8,0.8-1.3c-4.1-2.2-9.2-2.9-13.8-3.4
					c-14.7-1.6-29.7,0.8-43.9,4.4c-10.2,2.6-19.9,6.4-30.1,9c-9.5,2.4-19.3,4-29,5c-17.1,1.9-34.4,2.1-51.5,1.3
					c-8.9-0.4-18.2-1-26.9-2.3C284.8,24.4,284.4,25.8,285.4,25.9L285.4,25.9z"/>
			</g>
			<g>
				<path class="st0" d="M218.8,24.5c-23.3,3.3-48,3.6-71.6,1.6c-9.8-0.8-19.5-2.1-29.1-4.1c-10-2.1-19.5-5.5-29.3-8.4
					C73.5,9,57.2,5.8,41.1,6.7c-5.7,0.3-12.4,0.9-17.6,3.7c-0.9,0.5-0.1,1.7,0.8,1.3c4.2-2.2,9.7-2.9,14.4-3.3
					C54.2,7,70,9.9,84.9,14.1c10,2.8,19.6,6.5,29.7,8.8c9.2,2.1,18.6,3.5,27.9,4.4c16.9,1.7,34,1.9,50.9,1c8.6-0.4,17.2-1,25.6-2.2
					C220.1,25.9,219.7,24.4,218.8,24.5L218.8,24.5z"/>
			</g>
		</g>
	</g>
	<g>
		<g>
			<path class="st0" d="M10.5,1.7c-0.8,4,4.2,7.6,8.2,9.9c0.5,0.3,1,0.5,1.4,0.7c-0.4,0.2-0.9,0.5-1.4,0.7c-4,2.2-9,5.9-8.2,9.9
				c-4.9-3.1-2.3-8,5.6-10.6C8.2,9.7,5.6,4.8,10.5,1.7z"/>
			<path class="st0" d="M5.7,13.9C3.3,14.3,0,12.3,0,12.3s3.3-2,5.7-1.6C7.5,11.1,7.5,13.5,5.7,13.9z"/>
		</g>
		<g>
			<path class="st0" d="M494,1.7c0.8,4-4.2,7.6-8.2,9.9c-0.5,0.3-1,0.5-1.4,0.7c0.4,0.2,0.9,0.5,1.4,0.7c4,2.2,9,5.9,8.2,9.9
				c4.9-3.1,2.3-8-5.6-10.6C496.4,9.7,498.9,4.8,494,1.7z"/>
			<path class="st0" d="M498.8,13.9c2.4,0.5,5.7-1.6,5.7-1.6s-3.3-2-5.7-1.6C497,11.1,497,13.5,498.8,13.9z"/>
		</g>
	</g>
</g>
</svg>
