<svg version="1.1" xmlns="http://www.w3.org/2000/svg" xmlns:xlink="http://www.w3.org/1999/xlink" x="0px" y="0px"
	 viewBox="0 0 214.44 13.32" style="enable-background:new 0 0 214.44 13.32;" xml:space="preserve">
<g>
	<path class="st0" d="M0,2.39C9.51,5.17,19.37,6.53,29.21,6.5c4.92,0.11,9.83-0.08,14.71-0.71c2.44-0.3,4.87-0.71,7.32-1.09
		c2.45-0.37,4.9-0.73,7.36-1.07c9.83-1.3,19.72-2.36,29.7-2.28c1.25,0.02,2.49,0.03,3.74,0.12l1.87,0.11l1.87,0.18
		c1.25,0.09,2.49,0.35,3.73,0.52c1.23,0.29,2.48,0.49,3.69,0.93c1.22,0.33,2.43,0.93,3.54,1.49l3.27,1.78
		c1.09,0.61,2.18,1.24,3.23,1.99c0.53,0.38,1.05,0.78,1.53,1.35c0.23,0.3,0.5,0.62,0.6,1.19c0.04,0.28,0,0.63-0.15,0.89
		c-0.14,0.28-0.34,0.46-0.52,0.6c-0.74,0.51-1.4,0.62-2.05,0.76c-0.65,0.11-1.28,0.2-1.95,0.23c-0.67,0.02-1.35,0.02-2.11-0.22
		c-0.38-0.14-0.82-0.36-1.12-0.81c-0.31-0.45-0.36-1-0.3-1.41c0.13-0.84,0.49-1.43,0.85-2c0.36-0.56,0.77-1.07,1.19-1.56
		c0.85-0.97,1.76-1.85,2.72-2.67c1.01-0.88,2.24-1.5,3.43-1.95c1.2-0.47,2.43-0.78,3.66-1.08c2.46-0.56,4.94-0.9,7.42-1.16
		c9.94-0.94,19.9-0.67,29.8,0.11c4.95,0.41,9.89,0.99,14.8,1.78c2.45,0.4,4.9,0.86,7.33,1.38c2.42,0.54,4.82,0.97,7.24,1.29
		c4.83,0.71,9.78,0.77,14.64,0.1c4.87-0.67,9.65-2.06,14.16-4.11c-8.75,4.68-19.01,6.51-28.98,5.5c-2.49-0.26-4.95-0.8-7.37-1.31
		c-2.41-0.51-4.83-0.96-7.26-1.36c-4.87-0.78-9.77-1.36-14.68-1.77c-9.82-0.78-19.74-1.04-29.53-0.12
		c-2.44,0.25-4.87,0.59-7.24,1.13c-2.34,0.57-4.74,1.24-6.45,2.71c-0.91,0.79-1.79,1.63-2.57,2.52c-0.39,0.45-0.76,0.91-1.07,1.39
		c-0.3,0.47-0.57,0.99-0.62,1.38c-0.02,0.2,0,0.3,0.05,0.37c0.04,0.07,0.17,0.16,0.37,0.23c0.42,0.13,1,0.16,1.56,0.14
		c0.57-0.02,1.17-0.11,1.74-0.2c0.55-0.1,1.14-0.27,1.42-0.48c0.13-0.12,0.08-0.07,0.09-0.09c0-0.05-0.11-0.25-0.26-0.43
		c-0.32-0.38-0.78-0.75-1.26-1.09c-0.96-0.69-2.02-1.3-3.09-1.9l-3.25-1.76c-1.1-0.54-2.12-1.05-3.29-1.38
		c-1.12-0.41-2.33-0.6-3.5-0.88c-1.21-0.17-2.4-0.42-3.62-0.5L93.8,3.07l-1.84-0.1c-1.22-0.08-2.45-0.1-3.68-0.11
		C78.44,2.78,68.59,3.82,58.8,5.12c-2.45,0.33-4.89,0.69-7.34,1.06c-2.43,0.38-4.89,0.79-7.37,1.1c-4.95,0.62-9.95,0.86-14.93,0.74
		C24.19,7.8,19.24,7.2,14.35,6.29C9.47,5.37,4.65,4.09,0,2.39z"/>
</g>
</svg>
