<svg version="1.1" xmlns="http://www.w3.org/2000/svg" xmlns:xlink="http://www.w3.org/1999/xlink" x="0px" y="0px"
	 viewBox="0 0 400 10.96" style="enable-background:new 0 0 400 10.96;" xml:space="preserve">
<style type="text/css">
	.st0{fill:none;stroke:#000000;stroke-miterlimit:10;}
</style>
<g>
	<line class="st0" x1="8.54" y1="1.94" x2="1.46" y2="9.02"/>
	<line class="st0" x1="13.54" y1="1.94" x2="6.46" y2="9.02"/>
	<line class="st0" x1="18.54" y1="1.94" x2="11.46" y2="9.02"/>
	<line class="st0" x1="23.54" y1="1.94" x2="16.46" y2="9.02"/>
	<line class="st0" x1="28.54" y1="1.94" x2="21.46" y2="9.02"/>
	<line class="st0" x1="33.54" y1="1.94" x2="26.46" y2="9.02"/>
	<line class="st0" x1="38.54" y1="1.94" x2="31.46" y2="9.02"/>
	<line class="st0" x1="43.54" y1="1.94" x2="36.46" y2="9.02"/>
	<line class="st0" x1="48.54" y1="1.94" x2="41.46" y2="9.02"/>
	<line class="st0" x1="53.54" y1="1.94" x2="46.46" y2="9.02"/>
	<line class="st0" x1="58.54" y1="1.94" x2="51.46" y2="9.02"/>
	<line class="st0" x1="63.54" y1="1.94" x2="56.46" y2="9.02"/>
	<line class="st0" x1="68.54" y1="1.94" x2="61.46" y2="9.02"/>
	<line class="st0" x1="73.54" y1="1.94" x2="66.46" y2="9.02"/>
	<line class="st0" x1="78.54" y1="1.94" x2="71.46" y2="9.02"/>
	<line class="st0" x1="83.54" y1="1.94" x2="76.46" y2="9.02"/>
	<line class="st0" x1="88.54" y1="1.94" x2="81.46" y2="9.02"/>
	<line class="st0" x1="93.54" y1="1.94" x2="86.46" y2="9.02"/>
	<line class="st0" x1="98.54" y1="1.94" x2="91.46" y2="9.02"/>
	<line class="st0" x1="103.54" y1="1.94" x2="96.46" y2="9.02"/>
	<line class="st0" x1="108.54" y1="1.94" x2="101.46" y2="9.02"/>
	<line class="st0" x1="113.54" y1="1.94" x2="106.46" y2="9.02"/>
	<line class="st0" x1="118.54" y1="1.94" x2="111.46" y2="9.02"/>
	<line class="st0" x1="123.54" y1="1.94" x2="116.46" y2="9.02"/>
	<line class="st0" x1="128.54" y1="1.94" x2="121.46" y2="9.02"/>
	<line class="st0" x1="133.54" y1="1.94" x2="126.46" y2="9.02"/>
	<line class="st0" x1="138.54" y1="1.94" x2="131.46" y2="9.02"/>
	<line class="st0" x1="143.54" y1="1.94" x2="136.46" y2="9.02"/>
	<line class="st0" x1="148.54" y1="1.94" x2="141.46" y2="9.02"/>
	<line class="st0" x1="153.54" y1="1.94" x2="146.46" y2="9.02"/>
	<line class="st0" x1="158.54" y1="1.94" x2="151.46" y2="9.02"/>
	<line class="st0" x1="163.54" y1="1.94" x2="156.46" y2="9.02"/>
	<line class="st0" x1="168.54" y1="1.94" x2="161.46" y2="9.02"/>
	<line class="st0" x1="173.54" y1="1.94" x2="166.46" y2="9.02"/>
	<line class="st0" x1="178.54" y1="1.94" x2="171.46" y2="9.02"/>
	<line class="st0" x1="183.54" y1="1.94" x2="176.46" y2="9.02"/>
	<line class="st0" x1="188.54" y1="1.94" x2="181.46" y2="9.02"/>
	<line class="st0" x1="193.54" y1="1.94" x2="186.46" y2="9.02"/>
	<line class="st0" x1="198.54" y1="1.94" x2="191.46" y2="9.02"/>
	<line class="st0" x1="203.54" y1="1.94" x2="196.46" y2="9.02"/>
	<line class="st0" x1="208.54" y1="1.94" x2="201.46" y2="9.02"/>
	<line class="st0" x1="213.54" y1="1.94" x2="206.46" y2="9.02"/>
	<line class="st0" x1="218.54" y1="1.94" x2="211.46" y2="9.02"/>
	<line class="st0" x1="223.54" y1="1.94" x2="216.46" y2="9.02"/>
	<line class="st0" x1="228.54" y1="1.94" x2="221.46" y2="9.02"/>
	<line class="st0" x1="233.54" y1="1.94" x2="226.46" y2="9.02"/>
	<line class="st0" x1="238.54" y1="1.94" x2="231.46" y2="9.02"/>
	<line class="st0" x1="243.54" y1="1.94" x2="236.46" y2="9.02"/>
	<line class="st0" x1="248.54" y1="1.94" x2="241.46" y2="9.02"/>
	<line class="st0" x1="253.54" y1="1.94" x2="246.46" y2="9.02"/>
	<line class="st0" x1="258.54" y1="1.94" x2="251.46" y2="9.02"/>
	<line class="st0" x1="263.54" y1="1.94" x2="256.46" y2="9.02"/>
	<line class="st0" x1="268.54" y1="1.94" x2="261.46" y2="9.02"/>
	<line class="st0" x1="273.54" y1="1.94" x2="266.46" y2="9.02"/>
	<line class="st0" x1="278.54" y1="1.94" x2="271.46" y2="9.02"/>
	<line class="st0" x1="283.54" y1="1.94" x2="276.46" y2="9.02"/>
	<line class="st0" x1="288.54" y1="1.94" x2="281.46" y2="9.02"/>
	<line class="st0" x1="293.54" y1="1.94" x2="286.46" y2="9.02"/>
	<line class="st0" x1="298.54" y1="1.94" x2="291.46" y2="9.02"/>
	<line class="st0" x1="303.54" y1="1.94" x2="296.46" y2="9.02"/>
	<line class="st0" x1="308.54" y1="1.94" x2="301.46" y2="9.02"/>
	<line class="st0" x1="313.54" y1="1.94" x2="306.46" y2="9.02"/>
	<line class="st0" x1="318.54" y1="1.94" x2="311.46" y2="9.02"/>
	<line class="st0" x1="323.54" y1="1.94" x2="316.46" y2="9.02"/>
	<line class="st0" x1="328.54" y1="1.94" x2="321.46" y2="9.02"/>
	<line class="st0" x1="333.54" y1="1.94" x2="326.46" y2="9.02"/>
	<line class="st0" x1="338.54" y1="1.94" x2="331.46" y2="9.02"/>
	<line class="st0" x1="343.54" y1="1.94" x2="336.46" y2="9.02"/>
	<line class="st0" x1="348.54" y1="1.94" x2="341.46" y2="9.02"/>
	<line class="st0" x1="353.54" y1="1.94" x2="346.46" y2="9.02"/>
	<line class="st0" x1="358.54" y1="1.94" x2="351.46" y2="9.02"/>
	<line class="st0" x1="363.54" y1="1.94" x2="356.46" y2="9.02"/>
	<line class="st0" x1="368.54" y1="1.94" x2="361.46" y2="9.02"/>
	<line class="st0" x1="373.54" y1="1.94" x2="366.46" y2="9.02"/>
	<line class="st0" x1="378.54" y1="1.94" x2="371.46" y2="9.02"/>
	<line class="st0" x1="383.54" y1="1.94" x2="376.46" y2="9.02"/>
	<line class="st0" x1="388.54" y1="1.94" x2="381.46" y2="9.02"/>
	<line class="st0" x1="393.54" y1="1.94" x2="386.46" y2="9.02"/>
	<line class="st0" x1="398.54" y1="1.94" x2="391.46" y2="9.02"/>
</g>
</svg>
