<svg version="1.1" xmlns="http://www.w3.org/2000/svg" xmlns:xlink="http://www.w3.org/1999/xlink" x="0px" y="0px"
	 viewBox="0 0 268.18 18.84" style="enable-background:new 0 0 268.18 18.84;" xml:space="preserve">
<g>
	<path class="st0" d="M5.72,9.45c2.13,0.02,4.25-0.1,6.38-0.17c0.86-0.03,1.73-0.07,2.59-0.12c3.81-0.19,7.62-0.38,11.43-0.57
		c4.55-0.23,9.11-0.47,13.66-0.72c6.51-0.36,13.01-0.73,19.51-1.09c1.49-0.08,2.98-0.14,4.47-0.21c3.79-0.18,7.58-0.36,11.37-0.53
		c3.79-0.18,7.58-0.36,11.37-0.53c1.48-0.07,2.97-0.16,4.45-0.21c6.05-0.19,12.1-0.38,18.14-0.57c3.72-0.12,7.44-0.23,11.16-0.35
		c1.46-0.05,2.91-0.11,4.37-0.14c5.85-0.08,11.69-0.18,17.54-0.26c5.77-0.09,11.54-0.17,17.31-0.26c1.52-0.02,3.05-0.01,4.57-0.02
		c3.77-0.01,7.53-0.03,11.3-0.04c5.86-0.02,11.71-0.04,17.57-0.07c1.91-0.01,3.83,0.01,5.75,0.02c4.01,0.01,8.02,0.03,12.03,0.04
		c0.33,0,0.66,0,0.99,0c-9.03,0.12-18.05,0.24-27.08,0.38c-3.77,0.06-7.54,0.11-11.31,0.17c-1.63,0.02-3.25,0.03-4.88,0.07
		c-5.45,0.14-10.91,0.3-16.36,0.44c-6.3,0.17-12.61,0.34-18.91,0.51c-1.06,0.03-2.12,0.09-3.18,0.14
		c-3.36,0.16-6.71,0.31-10.07,0.46c-6.81,0.31-13.62,0.63-20.43,0.94c-1.01,0.05-2.01,0.12-3.02,0.19
		c-3.33,0.23-6.65,0.46-9.98,0.69c-5.96,0.41-11.91,0.82-17.87,1.23c-1.64,0.11-3.28,0.28-4.92,0.41
		c-3.81,0.32-7.63,0.64-11.44,0.96c-4.85,0.41-9.7,0.8-14.54,1.23c-6.75,0.59-13.49,1.18-20.24,1.77c-1.62,0.14-3.24,0.28-4.85,0.42
		c-2.9,0.25-5.79,0.62-8.69,0.94c-0.31,0.03-0.57,0.23-0.57,0.57c0,0.32,0.26,0.55,0.57,0.57c1.06,0.05,2.12,0.09,3.17,0.14
		c-0.13,0.28-0.21,0.58-0.21,0.88c0,1.08,0.94,2.15,2.07,2.08c8.27-0.52,16.54-1.08,24.82-1.47c7.19-0.34,14.37-0.68,21.56-1.03
		c7.95-0.38,15.89-0.76,23.84-1.14c2.5-0.12,5-0.24,7.5-0.36c0.72-0.03,1.44-0.08,2.17-0.1c12.8-0.34,25.6-0.67,38.4-1.01
		c6.84-0.18,13.68-0.36,20.52-0.54c2.47-0.06,4.94-0.12,7.41-0.16c13.09-0.2,26.18-0.41,39.28-0.61c5.61-0.09,11.22-0.18,16.83-0.27
		c4.79-0.08,9.58-0.11,14.37-0.29c3.95-0.15,7.91-0.3,11.87-0.45c1.97-0.07,3.95-0.12,5.92-0.25c4.49-0.28,8.98-0.57,13.47-0.87
		c0,0.01-0.01,0.01-0.01,0.02c-0.25,0.43-0.32,0.96-0.19,1.44c0.13,0.47,0.44,0.87,0.86,1.12c0.39,0.23,1,0.36,1.44,0.19
		c0.98-0.39,1.95-0.79,2.92-1.19c-0.02,0.01-0.04,0.02-0.06,0.03c0.07-0.03,0.14-0.06,0.22-0.09c0.08-0.03,0.17-0.07,0.25-0.1
		c-0.03,0.01-0.06,0.03-0.09,0.04c0.52-0.22,1.04-0.44,1.55-0.66c0.54-0.23,1.08-0.45,1.62-0.69c0.59-0.26,1.15-0.57,1.72-0.87
		c0.64-0.34,1.03-1.09,1.03-1.8c0-0.38-0.1-0.73-0.28-1.05c-0.25-0.43-0.74-0.87-1.24-0.96c-0.5-0.09-1-0.15-1.51-0.22
		c-0.11-0.01-0.22-0.02-0.34-0.02c-0.34,0-0.7,0.05-1.02,0.07c-0.76,0.05-1.52,0.17-2.28,0.22c-0.62,0.05-1.24,0.09-1.87,0.13
		c-1.68,0.12-3.35,0.24-5.02,0.36c-0.43,0.03-0.87,0.06-1.3,0.09c0.16-0.18,0.27-0.38,0.34-0.62c0.08-0.18,0.12-0.38,0.13-0.58
		c0.02-0.14,0.04-0.28,0.06-0.43c0-0.19-0.03-0.36-0.09-0.53c0.04-0.02,0.09-0.04,0.13-0.06c0.31-0.19,0.57-0.44,0.75-0.75
		c0.19-0.33,0.29-0.68,0.29-1.06c0-0.38-0.1-0.73-0.29-1.06c-0.11-0.14-0.22-0.28-0.33-0.43c-0.26-0.26-0.57-0.44-0.93-0.54
		C252.73,0.06,252.05,0,251.37,0c-0.56,0-1.12,0.04-1.68,0.05c-0.8,0.01-1.61,0.02-2.41,0.02c-1.14,0.01-2.28,0.03-3.42,0.03
		c-3.01,0.02-6.02,0.03-9.03,0.05c-2.83,0.02-5.66,0.01-8.49,0.01c-2.57,0-5.15,0-7.72,0.01c-10.26,0.05-20.51,0.06-30.77,0.17
		c-7.69,0.08-15.38,0.16-23.07,0.23c-3.44,0.04-6.87,0.09-10.31,0.16c-7.71,0.16-15.41,0.33-23.12,0.49
		c-2.2,0.05-4.4,0.09-6.59,0.14c-1.27,0.03-2.55,0.09-3.82,0.14c-7.62,0.29-15.23,0.58-22.85,0.87c-2.32,0.09-4.65,0.18-6.97,0.27
		c-1.3,0.05-2.61,0.14-3.91,0.2c-7.56,0.41-15.13,0.81-22.69,1.22C60.6,4.26,56.7,4.5,52.8,4.74c-6.68,0.42-13.37,0.85-20.05,1.27
		c-5.79,0.36-11.58,0.68-17.37,1.02c-0.92,0.05-1.84,0.11-2.75,0.16C11.14,7.27,9.65,7.33,8.17,7.4c-1.32,0.06-2.64,0.1-3.96,0.06
		C4.08,7.12,3.74,6.84,3.36,6.87c-0.85,0.07-1.7,0.16-2.55,0.25C0.4,7.16,0.04,7.37-0.07,7.8C-0.2,8.27,0.08,8.81,0.57,8.93
		c0.37,0.09,0.74,0.18,1.11,0.27C2.04,9.28,2.42,9.3,2.79,9.33C3.76,9.42,4.74,9.44,5.72,9.45z M239.72,6.24c1.24,0,2.49,0,3.73,0
		c0.11,0.28,0.28,0.53,0.5,0.73c-0.48,0.03-0.96,0.06-1.44,0.08c-0.91,0.03-1.81,0.07-2.72,0.1c-3.96,0.15-7.91,0.3-11.87,0.45
		c-1.81,0.07-3.62,0.17-5.43,0.2c-2.83,0.04-5.66,0.09-8.49,0.13c-6.47,0.1-12.93,0.2-19.4,0.31c-12.55,0.2-25.11,0.4-37.66,0.6
		c-8.99,0.14-17.98,0.42-26.96,0.66c-13.54,0.36-27.08,0.72-40.62,1.08c-2.71,0.07-5.43,0.25-8.14,0.38
		c-7.69,0.37-15.37,0.74-23.06,1.11c-7.55,0.36-15.09,0.72-22.64,1.08c-0.7,0.03-1.4,0.07-2.1,0.1c2.03-0.16,4.07-0.33,6.1-0.48
		c7.1-0.54,14.2-1.09,21.31-1.63c2.48-0.19,4.96-0.38,7.44-0.57c1.28-0.1,2.56-0.16,3.84-0.24c7.39-0.45,14.77-0.89,22.16-1.34
		c1.44-0.09,2.89-0.2,4.33-0.26c2.08-0.08,4.16-0.16,6.24-0.24c7.61-0.3,15.23-0.59,22.84-0.89c1.68-0.06,3.35-0.13,5.03-0.2
		c0.44-0.02,0.88-0.02,1.32-0.03c1.18-0.02,2.35-0.05,3.53-0.07c7.63-0.16,15.26-0.31,22.89-0.47c3.52-0.07,7.03-0.16,10.55-0.18
		c11.35-0.09,22.69-0.21,34.04-0.26C216.6,6.33,228.16,6.25,239.72,6.24z"/>
	<circle class="st0" cx="20.75" cy="22.59" r="0.57"/>
</g>
</svg>
