<svg version="1.1" xmlns="http://www.w3.org/2000/svg" xmlns:xlink="http://www.w3.org/1999/xlink" x="0px" y="0px"
	 viewBox="0 0 211.79 7.61" style="enable-background:new 0 0 211.79 7.61;" xml:space="preserve">
<g>
	<path class="st0" d="M0,6.87c1.8-1.6,3.73-3.08,5.87-4.24c2.14-1.14,4.53-1.97,7.04-1.99c1.25,0,2.52,0.19,3.7,0.65
		c1.19,0.46,2.25,1.16,3.24,1.86c0.99,0.7,1.94,1.41,2.95,1.92c1.01,0.52,2.08,0.84,3.19,0.96c2.24,0.27,4.5-0.18,6.6-1.2
		c2.12-0.97,4.16-2.32,6.47-3.27c2.31-0.99,4.86-1.47,7.46-1.16c1.3,0.18,2.58,0.72,3.64,1.45c1.07,0.73,1.95,1.6,2.84,2.33
		c0.89,0.74,1.82,1.34,2.85,1.65c1.03,0.32,2.17,0.33,3.26,0.19c2.21-0.28,4.17-1.6,6.21-2.9c1.03-0.65,2.09-1.3,3.26-1.81
		c1.17-0.5,2.43-0.84,3.71-0.97c1.28-0.11,2.58-0.02,3.84,0.3c1.26,0.31,2.44,0.89,3.5,1.56c2.11,1.34,3.91,2.87,6.07,3.49
		c1.06,0.33,2.19,0.47,3.32,0.41c1.13-0.02,2.24-0.25,3.31-0.64c2.16-0.74,4.09-2.16,6.25-3.36c2.14-1.21,4.76-2.1,7.35-1.74
		c1.29,0.13,2.59,0.56,3.7,1.23c1.12,0.66,2.06,1.5,2.97,2.23c0.91,0.74,1.84,1.37,2.87,1.76c1.02,0.4,2.14,0.58,3.26,0.55
		c0.56,0.03,1.12-0.08,1.68-0.13c0.55-0.13,1.11-0.22,1.65-0.42c1.09-0.33,2.15-0.84,3.2-1.38c2.1-1.08,4.16-2.44,6.58-3.25
		c1.19-0.43,2.49-0.66,3.78-0.66c1.29-0.03,2.61,0.21,3.83,0.74c2.49,1.07,3.99,3.25,5.87,4.3c1.87,1.05,4.29,1.05,6.29,0.12
		c2.05-0.92,3.92-2.56,6.2-3.65c2.27-1.11,4.81-1.72,7.41-1.45c1.29,0.14,2.55,0.52,3.69,1.07c1.14,0.55,2.19,1.2,3.21,1.83
		c2.03,1.27,4.06,2.41,6.32,2.72c2.24,0.38,4.57,0.05,6.69-0.79c2.16-0.79,4.17-2.16,6.44-3.17c1.13-0.5,2.33-0.89,3.55-1.13
		c1.23-0.2,2.48-0.28,3.71-0.19c2.47,0.19,4.85,0.95,7.01,2.06c2.17,1.12,4.13,2.56,5.94,4.15c-3.77-2.95-8.24-5.3-12.99-5.42
		c-1.18-0.02-2.34,0.11-3.48,0.35c-1.13,0.28-2.22,0.7-3.26,1.22c-2.09,1.05-4.03,2.53-6.36,3.53c-2.34,0.99-4.97,1.29-7.49,0.88
		c-2.56-0.36-4.84-1.66-6.87-2.93c-2.04-1.28-4.05-2.48-6.28-2.69c-1.1-0.15-2.24-0.01-3.36,0.19c-1.12,0.2-2.19,0.62-3.23,1.12
		c-2.09,0.98-3.89,2.59-6.25,3.68c-2.35,1.09-5.29,1.14-7.64-0.19c-1.16-0.65-2.07-1.54-2.96-2.32c-0.89-0.78-1.77-1.49-2.77-1.91
		c-0.99-0.43-2.1-0.64-3.22-0.61c-1.11,0-2.23,0.19-3.31,0.58c-2.17,0.72-4.19,2.03-6.36,3.16c-1.09,0.56-2.22,1.11-3.43,1.48
		c-0.59,0.22-1.23,0.33-1.85,0.47c-0.64,0.06-1.27,0.19-1.92,0.15c-1.28,0.04-2.59-0.17-3.82-0.65c-1.23-0.47-2.32-1.22-3.27-1.99
		c-0.96-0.77-1.84-1.55-2.8-2.11c-0.95-0.57-2-0.91-3.1-1.03c-2.24-0.3-4.43,0.43-6.46,1.57c-2.05,1.13-4.05,2.61-6.47,3.46
		c-1.19,0.43-2.47,0.7-3.76,0.73c-1.28,0.06-2.58-0.09-3.81-0.47c-2.52-0.74-4.48-2.43-6.43-3.65c-0.98-0.62-2-1.11-3.08-1.38
		c-1.08-0.27-2.21-0.35-3.33-0.26c-1.12,0.12-2.21,0.4-3.25,0.85c-1.05,0.45-2.04,1.06-3.05,1.7c-1.01,0.64-2.03,1.32-3.15,1.9
		c-1.12,0.58-2.36,1.04-3.65,1.22c-1.29,0.17-2.62,0.15-3.9-0.24c-1.29-0.38-2.42-1.13-3.37-1.93c-0.96-0.8-1.81-1.62-2.74-2.25
		c-0.92-0.64-1.92-1.06-3.01-1.21c-2.2-0.26-4.54,0.14-6.66,1.06c-2.15,0.88-4.16,2.21-6.42,3.25c-2.23,1.05-4.86,1.73-7.43,1.33
		c-1.28-0.19-2.53-0.64-3.63-1.29c-1.11-0.64-2.07-1.43-3-2.17c-0.94-0.74-1.88-1.42-2.92-1.89c-1.04-0.47-2.18-0.7-3.34-0.76
		C10.57,1.33,8.22,2,6.07,3.02C3.91,4.03,1.89,5.38,0,6.87z"/>
</g>
</svg>
