<svg version="1.1" xmlns="http://www.w3.org/2000/svg" xmlns:xlink="http://www.w3.org/1999/xlink" x="0px" y="0px"
	 viewBox="0 0 400 13.48" style="enable-background:new 0 0 400 13.48;" xml:space="preserve">
<g>
	<circle cx="3.59" cy="9.11" r="2"/>
	<circle cx="8.89" cy="4.37" r="2"/>
	<circle cx="14.21" cy="9.11" r="2"/>
	<circle cx="19.51" cy="4.37" r="2"/>
	<circle cx="24.82" cy="9.11" r="2"/>
	<circle cx="30.13" cy="4.37" r="2"/>
	<circle cx="35.44" cy="9.11" r="2"/>
	<circle cx="35.44" cy="9.11" r="2"/>
	<circle cx="40.74" cy="4.37" r="2"/>
	<circle cx="46.06" cy="9.11" r="2"/>
	<circle cx="46.06" cy="9.11" r="2"/>
	<circle cx="51.36" cy="4.37" r="2"/>
	<circle cx="56.67" cy="9.11" r="2"/>
	<circle cx="56.67" cy="9.11" r="2"/>
	<circle cx="61.98" cy="4.37" r="2"/>
	<circle cx="67.29" cy="9.11" r="2"/>
	<circle cx="67.29" cy="9.11" r="2"/>
	<circle cx="72.59" cy="4.37" r="2"/>
	<circle cx="77.91" cy="9.11" r="2"/>
	<circle cx="77.91" cy="9.11" r="2"/>
	<circle cx="83.21" cy="4.37" r="2"/>
	<circle cx="88.52" cy="9.11" r="2"/>
	<circle cx="88.52" cy="9.11" r="2"/>
	<circle cx="93.83" cy="4.37" r="2"/>
	<circle cx="99.14" cy="9.11" r="2"/>
	<circle cx="99.14" cy="9.11" r="2"/>
	<circle cx="104.44" cy="4.37" r="2"/>
	<circle cx="109.76" cy="9.11" r="2"/>
	<circle cx="109.76" cy="9.11" r="2"/>
	<circle cx="115.06" cy="4.37" r="2"/>
	<circle cx="120.37" cy="9.11" r="2"/>
	<circle cx="120.37" cy="9.11" r="2"/>
	<circle cx="125.68" cy="4.37" r="2"/>
	<circle cx="130.99" cy="9.11" r="2"/>
	<circle cx="130.99" cy="9.11" r="2"/>
	<circle cx="136.29" cy="4.37" r="2"/>
	<circle cx="141.61" cy="9.11" r="2"/>
	<circle cx="141.61" cy="9.11" r="2"/>
	<circle cx="146.91" cy="4.37" r="2"/>
	<circle cx="152.22" cy="9.11" r="2"/>
	<circle cx="152.22" cy="9.11" r="2"/>
	<circle cx="157.53" cy="4.37" r="2"/>
	<circle cx="162.84" cy="9.11" r="2"/>
	<circle cx="162.84" cy="9.11" r="2"/>
	<circle cx="168.14" cy="4.37" r="2"/>
	<circle cx="173.46" cy="9.11" r="2"/>
	<circle cx="173.46" cy="9.11" r="2"/>
	<circle cx="178.76" cy="4.37" r="2"/>
	<circle cx="184.07" cy="9.11" r="2"/>
	<circle cx="184.07" cy="9.11" r="2"/>
	<circle cx="189.38" cy="4.37" r="2"/>
	<circle cx="194.69" cy="9.11" r="2"/>
	<circle cx="194.69" cy="9.11" r="2"/>
	<circle cx="199.99" cy="4.37" r="2"/>
	<circle cx="205.31" cy="9.11" r="2"/>
	<circle cx="205.31" cy="9.11" r="2"/>
	<circle cx="210.61" cy="4.37" r="2"/>
	<circle cx="215.93" cy="9.11" r="2"/>
	<circle cx="215.93" cy="9.11" r="2"/>
	<circle cx="221.23" cy="4.37" r="2"/>
	<circle cx="226.54" cy="9.11" r="2"/>
	<circle cx="226.54" cy="9.11" r="2"/>
	<circle cx="231.84" cy="4.37" r="2"/>
	<circle cx="237.16" cy="9.11" r="2"/>
	<circle cx="237.16" cy="9.11" r="2"/>
	<circle cx="242.46" cy="4.37" r="2"/>
	<circle cx="247.78" cy="9.11" r="2"/>
	<circle cx="247.78" cy="9.11" r="2"/>
	<circle cx="253.08" cy="4.37" r="2"/>
	<circle cx="258.39" cy="9.11" r="2"/>
	<circle cx="258.39" cy="9.11" r="2"/>
	<circle cx="263.69" cy="4.37" r="2"/>
	<circle cx="269.01" cy="9.11" r="2"/>
	<circle cx="269.01" cy="9.11" r="2"/>
	<circle cx="274.31" cy="4.37" r="2"/>
	<circle cx="279.63" cy="9.11" r="2"/>
	<circle cx="279.63" cy="9.11" r="2"/>
	<circle cx="284.93" cy="4.37" r="2"/>
	<circle cx="290.24" cy="9.11" r="2"/>
	<circle cx="290.24" cy="9.11" r="2"/>
	<circle cx="295.54" cy="4.37" r="2"/>
	<circle cx="300.86" cy="9.11" r="2"/>
	<circle cx="300.86" cy="9.11" r="2"/>
	<circle cx="306.16" cy="4.37" r="2"/>
	<circle cx="311.48" cy="9.11" r="2"/>
	<circle cx="311.48" cy="9.11" r="2"/>
	<circle cx="316.78" cy="4.37" r="2"/>
	<circle cx="322.09" cy="9.11" r="2"/>
	<circle cx="322.09" cy="9.11" r="2"/>
	<circle cx="327.4" cy="4.37" r="2"/>
	<circle cx="332.71" cy="9.11" r="2"/>
	<circle cx="332.71" cy="9.11" r="2"/>
	<circle cx="338.01" cy="4.37" r="2"/>
	<circle cx="343.33" cy="9.11" r="2"/>
	<circle cx="343.33" cy="9.11" r="2"/>
	<circle cx="348.63" cy="4.37" r="2"/>
	<circle cx="353.94" cy="9.11" r="2"/>
	<circle cx="353.94" cy="9.11" r="2"/>
	<circle cx="359.25" cy="4.37" r="2"/>
	<circle cx="364.56" cy="9.11" r="2"/>
	<circle cx="364.56" cy="9.11" r="2"/>
	<circle cx="369.86" cy="4.37" r="2"/>
	<circle cx="375.18" cy="9.11" r="2"/>
	<circle cx="375.18" cy="9.11" r="2"/>
	<circle cx="380.48" cy="4.37" r="2"/>
	<circle cx="385.79" cy="9.11" r="2"/>
	<circle cx="385.79" cy="9.11" r="2"/>
	<circle cx="391.1" cy="4.37" r="2"/>
	<circle cx="396.41" cy="9.11" r="2"/>
</g>
</svg>
