<svg version="1.1" xmlns="http://www.w3.org/2000/svg" xmlns:xlink="http://www.w3.org/1999/xlink" x="0px" y="0px"
	 viewBox="0 0 226.76 14.31" style="enable-background:new 0 0 226.76 14.31;" xml:space="preserve">
<path class="st0" d="M225.79,2.61c-1.52-2.33-4.72-3.27-7.12-2.1c-1.81,0.88-2.93,2.87-2.67,4.73c0.14,0.99,0.72,1.93,1.58,2.56
	c0.8,0.58,1.72,0.82,2.6,0.68c0.97-0.16,1.87-0.87,2.34-1.84c0.44-0.92,0.45-1.91,0-2.7c-0.08-0.13-0.25-0.18-0.38-0.11
	c-0.14,0.08-0.18,0.25-0.11,0.38c0.35,0.63,0.35,1.43-0.02,2.18c-0.39,0.82-1.13,1.41-1.92,1.54c-0.73,0.12-1.51-0.09-2.18-0.58
	c-0.73-0.54-1.24-1.35-1.36-2.19c-0.23-1.62,0.76-3.36,2.36-4.14c2.12-1.03,5.06-0.16,6.41,1.91c1.3,2,1.13,4.9-0.4,6.89
	c-1.46,1.89-4.04,2.94-6.59,2.66c-2.36-0.26-4.7-1.64-6.27-3.7c-0.47-0.62-0.88-1.31-1.28-1.97c-0.61-1.01-1.23-2.05-2.09-2.91
	c-2.74-2.76-7.66-2.87-10.53-0.24c-0.87,0.8-1.54,1.79-2.18,2.75c-0.16,0.24-0.33,0.47-0.49,0.71c-3.48,0.07-6.95,0.15-10.38,0.24
	c-1.16-0.96-2.38-1.89-3.85-2.29c-1.21-0.32-2.65-0.09-3.67,0.6c-0.73,0.49-1.18,1.15-1.32,1.92c-17.9,0.48-34.93,0.87-52.72-0.11
	c-4.06-1.1-7.56-3.2-9.85-5.93c-0.16-0.19-0.48-0.19-0.64,0c-2.3,2.73-5.79,4.83-9.85,5.93C85.42,8.44,68.38,8.05,50.49,7.57
	c-0.14-0.77-0.59-1.43-1.32-1.92c-1.02-0.69-2.46-0.92-3.67-0.6c-1.48,0.39-2.69,1.32-3.85,2.29c-3.43-0.09-6.89-0.17-10.38-0.24
	c-0.16-0.24-0.33-0.47-0.49-0.71c-0.64-0.96-1.31-1.94-2.18-2.75c-2.87-2.63-7.79-2.51-10.53,0.24c-0.85,0.86-1.48,1.9-2.09,2.91
	c-0.4,0.66-0.81,1.35-1.28,1.97c-1.59,2.09-3.87,3.44-6.27,3.7c-2.54,0.28-5.13-0.77-6.59-2.66C0.3,7.81,0.13,4.91,1.43,2.91
	c1.35-2.07,4.28-2.94,6.41-1.91c1.6,0.78,2.59,2.52,2.36,4.14C10.07,5.98,9.57,6.8,8.83,7.34c-0.67,0.49-1.45,0.7-2.18,0.58
	C5.86,7.79,5.12,7.2,4.73,6.38C4.37,5.63,4.36,4.83,4.71,4.2C4.79,4.07,4.74,3.9,4.6,3.82C4.47,3.75,4.3,3.79,4.22,3.93
	c-0.44,0.79-0.44,1.78,0,2.7C4.7,7.6,5.59,8.31,6.56,8.47c0.88,0.14,1.81-0.1,2.6-0.68c0.86-0.63,1.44-1.57,1.58-2.56
	C11.02,3.37,9.9,1.39,8.08,0.5c-2.41-1.17-5.6-0.23-7.12,2.1c-1.43,2.19-1.25,5.36,0.43,7.54c1.41,1.83,3.78,2.92,6.21,2.92
	c0.29,0,0.58-0.02,0.88-0.05c2.55-0.28,4.97-1.71,6.65-3.92c0.32-0.43,0.61-0.88,0.89-1.33c5.07,0,10.13,0.06,15.14,0.16
	c1.27,1.72,2.58,2.68,4.01,2.93c1.68,0.3,3.52-0.39,5.62-2.1c0.24-0.19,0.48-0.39,0.72-0.6c2.22,0.06,4.42,0.12,6.61,0.17
	c10.63,0.29,20.93,0.56,31.25,0.56c7.81,0,15.63-0.17,23.6-0.6c0.02,0.01,0.03,0.02,0.04,0.02c4.14,1.09,7.71,3.21,10.04,5.98
	c0.08,0.1,0.2,0.15,0.32,0.15c0.12,0,0.24-0.05,0.32-0.15c2.33-2.77,5.9-4.9,10.04-5.98c0.02,0,0.03-0.01,0.04-0.02
	c7.97,0.43,15.79,0.6,23.6,0.6c10.31,0,20.62-0.28,31.25-0.56c2.19-0.06,4.39-0.12,6.61-0.17c0.24,0.2,0.48,0.4,0.72,0.6
	c2.1,1.71,3.94,2.4,5.62,2.1c1.43-0.25,2.74-1.21,4.01-2.93c5.01-0.1,10.07-0.16,15.14-0.16c0.28,0.45,0.57,0.9,0.89,1.33
	c1.68,2.21,4.1,3.64,6.65,3.92c0.29,0.03,0.58,0.05,0.88,0.05c2.44,0,4.81-1.1,6.21-2.92C227.04,7.97,227.22,4.8,225.79,2.61z
	 M18.46,4.28c2.54-2.56,7.1-2.66,9.75-0.23c0.82,0.76,1.47,1.72,2.1,2.65c0.09,0.13,0.18,0.26,0.27,0.39
	C25.93,7,21.24,6.94,16.54,6.93C17.12,5.96,17.69,5.05,18.46,4.28z M40.45,8.33c-1.97,1.6-3.66,2.25-5.17,1.98
	c-1.18-0.21-2.29-0.99-3.39-2.37c2.94,0.06,5.87,0.13,8.78,0.2C40.6,8.21,40.52,8.27,40.45,8.33z M42.5,7.35
	c0.96-0.77,1.98-1.46,3.14-1.77c1.06-0.28,2.32-0.08,3.21,0.52c0.4,0.27,0.89,0.73,1.05,1.44c-0.59-0.02-1.17-0.03-1.76-0.05
	C46.28,7.45,44.39,7.4,42.5,7.35z M113.38,13.4c-2.16-2.41-5.23-4.32-8.77-5.48c3.54-1.16,6.6-3.07,8.77-5.48
	c2.16,2.41,5.23,4.32,8.77,5.48C118.6,9.07,115.54,10.98,113.38,13.4z M196.45,6.7c0.63-0.93,1.27-1.89,2.1-2.65
	c2.66-2.44,7.21-2.33,9.75,0.23c0.77,0.77,1.33,1.69,1.91,2.66c-4.7,0-9.39,0.06-14.04,0.15C196.27,6.95,196.36,6.83,196.45,6.7z
	 M178.61,7.5c-0.59,0.02-1.18,0.03-1.76,0.05c0.17-0.71,0.65-1.17,1.05-1.44c0.89-0.6,2.15-0.8,3.21-0.52
	c1.16,0.31,2.18,1,3.14,1.77C182.36,7.4,180.48,7.45,178.61,7.5z M191.48,10.31c-1.51,0.27-3.2-0.38-5.17-1.98
	c-0.07-0.06-0.15-0.12-0.22-0.18c2.91-0.07,5.83-0.14,8.78-0.2C193.77,9.32,192.66,10.1,191.48,10.31z"/>
</svg>
