<svg width="10" height="7" viewBox="0 0 10 7" fill="none" xmlns="http://www.w3.org/2000/svg">
<path d="M4.46875 6.71423L0.21875 2.46423C0.0729167 2.3184 0 2.14132 0 1.93298C0 1.72465 0.0729167 1.54757 0.21875 1.40173L0.9375 0.714233C1.08333 0.5684 1.26042 0.495483 1.46875 0.495483C1.67708 0.495483 1.85417 0.5684 2 0.714233L5 3.71423L8 0.714233C8.14583 0.5684 8.32292 0.495483 8.53125 0.495483C8.73958 0.495483 8.91667 0.5684 9.0625 0.714233L9.78125 1.40173C9.92708 1.54757 10 1.72465 10 1.93298C10 2.14132 9.92708 2.3184 9.78125 2.46423L5.53125 6.71423C5.38542 6.86007 5.20833 6.93298 5 6.93298C4.79167 6.93298 4.61458 6.86007 4.46875 6.71423Z" fill="#808E9B"/>
</svg>
