<svg width="40" height="27" viewBox="0 0 40 27" fill="none" xmlns="http://www.w3.org/2000/svg">
<path d="M10.8899 17.6763C10.3405 17.5247 10.0167 16.9577 10.1652 16.4074L13.6172 3.61881C13.7335 3.18811 14.1242 2.88892 14.5703 2.88892H26.1167H26.2248C26.8856 2.88892 27.3388 3.62742 27.1686 4.26594C27.0621 4.66525 26.7126 4.95241 26.2994 4.95241H26.1167H16.9881C16.0877 4.95241 15.2983 5.55407 15.0597 6.42225L12.1648 16.9522C12.013 17.5044 11.442 17.8288 10.8899 17.6763ZM32.106 12.6994C32.6318 12.8207 33.0024 13.3349 32.8648 13.8567L32.0771 16.8441C31.9349 17.3835 31.3875 17.7101 30.8453 17.5791C30.2869 17.4442 29.9484 16.8769 30.0948 16.3214L30.871 13.3779C31.0088 12.8552 31.5793 12.5779 32.106 12.6994Z" fill="white"/>
<path d="M29.5534 20.2222C29.527 20.1958 29.4342 20.1211 29.4011 20.1037C29.2131 20.0046 28.9825 19.9672 28.7505 20.0741C28.7359 20.0809 28.7209 20.0872 28.7056 20.0924C28.3034 20.23 27.9662 20.435 27.629 20.7725C27.5872 20.8143 27.5454 20.8561 27.5036 20.9134C27.4421 20.9977 27.3911 21.0895 27.3353 21.1778C27.0729 21.5931 26.9076 22.0933 26.8778 22.6019C26.8714 22.7118 26.859 22.8218 26.8596 22.9319C26.8616 23.2734 27.0478 23.5705 27.2853 23.8677C27.2935 23.8759 27.4273 23.9808 27.4375 23.9862C27.6301 24.0877 27.8674 24.1245 28.105 24.0078C28.1084 24.0061 28.1118 24.0047 28.1154 24.0035C28.5254 23.8659 28.8675 23.6599 29.2097 23.3174C29.2453 23.2818 29.2809 23.2277 29.3165 23.1743C29.3776 23.0827 29.4494 22.9981 29.508 22.9048C29.7678 22.491 29.9313 21.9936 29.9609 21.488C29.9673 21.3781 29.9793 21.2681 29.979 21.158C29.9783 20.8025 29.7916 20.4607 29.5534 20.2222ZM30.6101 18.4732C30.6389 18.4925 30.6671 18.5171 30.6942 18.5387C30.8174 18.6367 30.9231 18.7703 31.0285 18.8873C31.6237 19.5486 32.0218 20.378 31.9589 21.3227C31.9589 22.5608 31.5465 23.6614 30.7217 24.5555C30.1719 25.2434 29.4159 25.7248 28.5912 25.9312C27.7835 26.1333 26.9099 26.0055 26.2286 25.5479C26.1998 25.5286 26.1716 25.504 26.1445 25.4825C26.0213 25.3844 25.9156 25.2508 25.8102 25.1338C25.215 24.4725 24.8169 23.6431 24.8798 22.6984C24.8798 21.7438 25.174 20.8482 25.6534 20.0114C25.7309 19.876 25.8308 19.7549 25.9247 19.6303C25.9834 19.5525 26.0391 19.4746 26.1169 19.3968C26.6668 18.709 27.4228 18.2275 28.2475 18.0211C28.9879 17.8864 29.9261 18.0156 30.6101 18.4732Z" fill="white"/>
<path d="M11.6151 19.8783C11.5694 19.8326 11.5201 19.79 11.4629 19.7598C11.3048 19.6765 11.1167 19.6368 10.9229 19.6898C10.8316 19.7147 10.7449 19.7547 10.6565 19.7888C10.3023 19.9255 9.99652 20.1226 9.69073 20.4286C9.65513 20.4642 9.61954 20.5183 9.58394 20.5717C9.52286 20.6634 9.45103 20.7479 9.39247 20.8412C9.13269 21.2551 8.96917 21.7524 8.93957 22.258C8.93314 22.3679 8.92079 22.4779 8.92141 22.588C8.92333 22.9295 9.10955 23.2267 9.34709 23.5238C9.36859 23.5454 9.4724 23.6282 9.49932 23.6423C9.68892 23.7423 9.92183 23.7795 10.1557 23.6692C10.1665 23.6642 10.1775 23.6595 10.1888 23.6557C10.5936 23.5181 10.9326 23.3128 11.2715 22.9736C11.3071 22.9379 11.3427 22.8839 11.3783 22.8305C11.4394 22.7388 11.5112 22.6542 11.5697 22.5609C11.8578 22.102 12.0275 21.5405 12.0275 20.9789C12.0275 20.5662 11.89 20.1535 11.6151 19.8783ZM12.6618 18.1257C12.6972 18.1473 12.7324 18.1765 12.7652 18.202C12.8842 18.2946 12.9821 18.4239 13.0833 18.5357C13.6824 19.1982 14.0838 20.0304 14.0206 20.9789C14.0206 21.9419 13.7212 22.8451 13.2341 23.6324C13.1649 23.7443 13.0782 23.8444 12.998 23.9489C12.9307 24.0365 12.871 24.1241 12.7835 24.2117C12.2337 24.8995 11.4777 25.381 10.6529 25.5873C9.84525 25.7894 8.97165 25.6617 8.29034 25.2041C8.26161 25.1848 8.23333 25.1601 8.20624 25.1386C8.08302 25.0405 7.97733 24.9069 7.87197 24.7899C7.27673 24.1287 6.87866 23.2993 6.94159 22.3545C6.94159 21.3914 7.24101 20.4883 7.72806 19.701C7.79734 19.589 7.88401 19.4889 7.96422 19.3845C8.03151 19.2969 8.09117 19.2093 8.1787 19.1217C8.72853 18.4339 9.48454 17.9524 10.3093 17.7461C11.0477 17.5445 11.9172 17.6711 12.6618 18.1257Z" fill="white"/>
<path d="M25.4885 6.24268C25.332 6.82078 24.8075 7.22224 24.2086 7.22224C23.3142 7.22224 22.6764 6.35486 22.9429 5.50112L23.1487 4.84207C23.3199 4.29392 23.8275 3.92065 24.4017 3.92065C25.2662 3.92065 25.8947 4.74177 25.6688 5.57623L25.4885 6.24268Z" fill="white"/>
<path d="M14.7175 21.9476C14.793 21.6605 15.0525 21.4603 15.3494 21.4603H23.6201C24.0485 21.4603 24.361 21.8656 24.2521 22.2799C24.1766 22.5671 23.917 22.7672 23.6201 22.7672H15.3494C14.921 22.7672 14.6085 22.3619 14.7175 21.9476Z" fill="white"/>
<path d="M15.4871 19.6477C15.5555 19.456 15.7371 19.328 15.9406 19.328H24.1965C24.5294 19.328 24.7619 19.6578 24.65 19.9713C24.5816 20.163 24.4 20.291 24.1965 20.291H15.9406C15.6077 20.291 15.3752 19.9612 15.4871 19.6477Z" fill="white"/>
<path d="M18.4192 5.67465C18.4192 5.69364 18.4347 5.70898 18.4537 5.70967C18.989 5.72923 19.4502 6.20204 19.4502 6.74079C19.4502 7.29105 18.9691 7.77253 18.4192 7.77253H1.03093C0.412371 7.70375 0 7.22227 0 6.67201C0 6.12174 0.4811 5.64026 1.03093 5.64026H18.3849C18.4038 5.64026 18.4192 5.65566 18.4192 5.67465Z" fill="white"/>
<path d="M17.9383 8.52903C18.4881 8.46025 18.9692 8.94173 18.9692 9.492C18.9692 10.0423 18.5568 10.5237 18.007 10.5237C17.6634 10.5237 3.71147 10.5237 3.64274 10.5237C3.09292 10.5237 2.61182 10.0423 2.61182 9.492C2.61182 8.94173 3.09292 8.52903 3.64274 8.52903C3.71147 8.52903 17.6634 8.52903 17.9383 8.52903Z" fill="white"/>
<path d="M16.976 11.2117C17.5258 11.2117 18.0069 11.6932 18.0069 12.2434C18.0069 12.7937 17.5258 13.2752 16.976 13.2752H6.39177C5.84194 13.2752 5.36084 12.7937 5.36084 12.2434C5.36084 11.6932 5.84194 11.2117 6.39177 11.2117H16.976Z" fill="white"/>
<path d="M39.5876 5.02116L38.9433 4.90737C38.6273 4.85156 38.3786 4.58956 38.2663 4.28895C38.1609 4.00685 38.1942 3.7008 38.3802 3.46394L38.8316 2.88889C38.9691 2.68254 38.9691 2.40741 38.8316 2.20106L38.3505 1.65079C38.2131 1.44444 37.8694 1.44444 37.6632 1.58201L37.3245 1.78545C36.9018 2.03921 36.3758 2.01733 35.9317 1.80328C35.4924 1.5915 35.1353 1.20844 35.0506 0.728137L35.0217 0.564505C34.9959 0.418214 34.9541 0.269997 34.847 0.167087C34.7525 0.0763273 34.6271 0 34.5017 0H33.8145C33.6061 0 33.4372 0.118546 33.3676 0.265786C33.3244 0.357291 33.3245 0.462815 33.3069 0.562476L33.2313 0.991604C33.1671 1.3554 32.9054 1.64446 32.56 1.77549C32.1386 1.93535 31.6369 1.95128 31.2702 1.68919L30.9279 1.44444C30.7217 1.30688 30.4468 1.30688 30.2406 1.51323L29.7595 1.99471C29.5533 2.20106 29.5533 2.47619 29.6907 2.68254L30.005 3.12286C30.2315 3.44026 30.2428 3.853 30.0958 4.21419C29.9393 4.59891 29.6235 4.93189 29.2144 5.00413L28.8574 5.0672C28.7716 5.08233 28.684 5.08589 28.5982 5.10068C28.3335 5.14635 28.1787 5.33308 28.1787 5.57143V6.25926C28.1787 6.47513 28.3056 6.64865 28.4599 6.71339C28.5427 6.74812 28.6355 6.74859 28.7239 6.7642L29.1981 6.84795C29.5366 6.90773 29.7897 7.15508 29.9185 7.47379C30.0428 7.78157 30.0471 8.15354 29.8543 8.42372L29.4846 8.9418C29.3471 9.14815 29.3471 9.42328 29.4846 9.62963L29.9657 10.1799C30.1031 10.3862 30.4468 10.3862 30.6529 10.2487L31.0155 10.031C31.4236 9.78591 31.9082 9.79845 32.3453 9.98699C32.7913 10.1794 33.1815 10.5568 33.2659 11.0352L33.3334 11.418C33.4021 11.6931 33.6083 11.8307 33.8145 11.8307H34.5017C34.7101 11.8307 34.879 11.7121 34.9485 11.5649C34.9918 11.4734 34.9917 11.3679 35.0092 11.2682L35.0743 10.8991C35.145 10.4983 35.4229 10.1779 35.804 10.0351C36.1889 9.89081 36.6354 9.91676 36.9698 10.1558L37.3883 10.455C37.5945 10.5926 37.8694 10.5926 38.0756 10.3862L38.5567 9.90476C38.7629 9.69841 38.7629 9.42328 38.6254 9.21693L38.2942 8.75285C38.0751 8.4459 38.0604 8.03137 38.2092 7.68483C38.3794 7.28808 38.7035 6.96567 39.1287 6.89058L39.5876 6.80952C39.8626 6.74074 40 6.53439 40 6.32804V5.64021C40 5.2963 39.8626 5.08995 39.5876 5.02116ZM34.1581 8.1164C32.921 8.1164 31.9588 7.15344 31.9588 5.91534C31.9588 4.67725 32.921 3.71429 34.1581 3.71429C35.3952 3.71429 36.3574 4.67725 36.3574 5.91534C36.3574 7.15344 35.3265 8.1164 34.1581 8.1164Z" fill="white"/>
</svg>
