<svg width="15" height="11" viewBox="0 0 15 11" fill="none" xmlns="http://www.w3.org/2000/svg">
<path d="M12.7812 0.09375C12.8438 0.03125 12.9062 0 13.0312 0C13.125 0 13.2188 0.03125 13.3125 0.09375L14.1875 1C14.25 1.0625 14.3125 1.15625 14.3125 1.25C14.3125 1.375 14.25 1.46875 14.1875 1.53125L4.8125 10.9062C4.75 10.9688 4.65625 11 4.5625 11C4.4375 11 4.34375 10.9688 4.28125 10.9062L0.125 6.71875C0.03125 6.65625 0 6.59375 0 6.46875C0 6.375 0.03125 6.28125 0.125 6.1875L1 5.3125C1.0625 5.25 1.15625 5.1875 1.28125 5.1875C1.375 5.1875 1.46875 5.25 1.53125 5.3125L4.5625 8.34375L12.7812 0.09375Z" fill="#1DAEEA"/>
</svg>
