<svg id="Слой_1" data-name="Слой 1" xmlns="http://www.w3.org/2000/svg" viewBox="0 0 12 12"><title>earth</title><path d="M0.12193,4.79071q-0.03.1465-.05275,0.29545T0.031,5.38648a6.084,6.084,0,0,0,0,1.22693q0.0154,0.15132.03817,0.3003T0.12193,7.20916q0.02992,0.14643.067,0.29029,0.074,0.2875.17519,0.56348,0.05044,0.1378.10742,0.27245T0.59166,8.60114Q0.62323,8.66671.6564,8.73141q0.06623,0.12933.13853,0.255a6.01377,6.01377,0,0,0,.48483.71782q0.13361,0.17.27894,0.32994,0.09683,0.10658.19868,0.20835t0.20838,0.19867a6.021,6.021,0,0,0,1.04772.76377q0.1256,0.07219.255,0.13851Q3.52723,11.47605,3.8,11.58378q0.13618,0.05371.27568,0.101a6.02034,6.02034,0,0,0,3.84875.00005q0.13938-.04717.27568-0.101,0.27249-.10742.53147-0.24023,0.12933-.06623.255-0.13851a6.01507,6.01507,0,0,0,1.04772-.76377q0.10658-.09691.20838-0.19867t0.19865-.20835q0.14519-.15979.27894-0.33a6.01952,6.01952,0,0,0,.3916-0.56189c0.03173-.05154.063-0.10334,0.09325-0.15594q0.07227-.12564.13851-0.255,0.03307-.06472.06474-0.13029,0.06326-.131.12013-0.26577,0.05695-.13453.10742-0.27242,0.101-.27568.17519-0.5635,0.037-.14377.067-0.29029t0.05275-.29545q0.02272-.149.03817-0.3003a6.084,6.084,0,0,0,0-1.22693q-0.01536-.15132-0.03817-0.30032t-0.05275-.29545q-0.03-.14643-0.067-0.29026Q11.737,4.213,11.63589,3.937,11.61075,3.86811,11.58383,3.8q-0.08059-.20437-0.17552-0.4012-0.03157-.06557-0.06474-0.13027-0.06623-.12937-0.13851-0.255a6.01506,6.01506,0,0,0-.48485-0.71782q-0.13361-.17-0.27894-0.32994Q10.34444,1.8591,10.24262,1.7573t-0.20835-.19865Q9.8279,1.371,9.60432,1.203A6.01791,6.01791,0,0,0,8.98655.79488Q8.86092,0.72269,8.73151.65635,8.67272,0.62624,8.61308.59751C8.56549,0.57449,8.51751.55182,8.46923,0.53l-0.061-.0267C8.33945,0.47307,8.27022.44384,8.20009,0.41614L8.19717,0.415C8.12239,0.38559,8.04677.35792,7.97056,0.33143L7.92444,0.31518Q7.65788,0.225,7.38057.15984c-0.0577-.0136-0.11566-0.02657-0.174-0.0385C7.16457,0.11274,7.12235.10475,7.08,0.09708A6.0223,6.0223,0,0,0,6.10941.00136C6.07294,0.00072,6.03654,0,5.99994,0,5.93774,0,5.87583.00128,5.8141,0.00313A5.98539,5.98539,0,0,0,4.07556.31526q-0.13938.04717-.27568,0.101C3.77177,0.42733,3.744.43893,3.71615,0.45041c-0.06232.02567-.12424,0.052-0.18546,0.07965q-0.133.06018-.26226,0.12644t-0.255.13853a6.02227,6.02227,0,0,0-.945.67257q-0.0519.045-.10273,0.09112Q1.85913,1.6556,1.75732,1.7574t-0.19868.20835q-0.14523.15979-.27894,0.33a6.01175,6.01175,0,0,0-.48483.71782q-0.07227.12564-.13853,0.255Q0.62323,3.33329.59161,3.39883,0.49682,3.59558.41611,3.8,0.38924,3.86822.364,3.9371q-0.101.27568-.17519,0.5635Q0.152,4.64411.12193,4.79071Zm4.8614-4.37863a0.09039,0.09039,0,0,0,.05026.05159,0.377,0.377,0,0,1,.174,0,0.84161,0.84161,0,0,1,.1805-0.0193,0.65743,0.65743,0,0,0,.37381.07085A0.21923,0.21923,0,0,0,5.8007.43154,1.21592,1.21592,0,0,0,5.85961.32263Q5.92968,0.3209,6.00009.32086A5.68351,5.68351,0,0,1,7.13362.43457a0.15712,0.15712,0,0,1-.10809.042,0.448,0.448,0,0,1-.09675.06438A1.71487,1.71487,0,0,1,6.61293.51525,0.10706,0.10706,0,0,0,6.69029.5988a0.5439,0.5439,0,0,0,.29645.03871A0.35705,0.35705,0,0,0,7.18667.61813,0.69234,0.69234,0,0,0,7.25118.50875,0.21954,0.21954,0,0,1,7.30434.47225C7.368,0.48727,7.43119.50357,7.49413,0.52071a0.296,0.296,0,0,0-.08181.091A0.199,0.199,0,0,0,7.60179.55121L7.64855,0.56512q0.1368,0.04158.2706,0.08971,0.19078,0.06873.375,0.15047a0.16845,0.16845,0,0,1-.06951.03162A0.25484,0.25484,0,0,0,8.08921.79175a0.17336,0.17336,0,0,0,.12246.12868,0.26867,0.26867,0,0,1,.12888.12873C8.28811,1.1603,8.20443,1.0433,8.1214,1.04281c-0.09146-.00064-0.225.17383-0.30294,0.03214,0.01938-.07508.10221-0.08676,0.12246-0.16089a0.25768,0.25768,0,0,0-.05211.01566A0.90116,0.90116,0,0,0,7.79674.975a0.5215,0.5215,0,0,1-.13307.055c-0.04492.00988-.08876,0.0075-0.12888,0.01917-0.07713.02259-.131,0.07944-0.21259,0.10955-0.03185.01168-.07,0.00809-0.10321,0.0192a1.7211,1.7211,0,0,0-.25137.11589,1.44966,1.44966,0,0,0-.22565.13515,0.35621,0.35621,0,0,0-.09672.135c0.00331,0.0383.07554,0.051,0.07737,0.09015a0.13346,0.13346,0,0,0-.01283.10943,0.22653,0.22653,0,0,0,.1353.01283,0.68484,0.68484,0,0,1,.23854.13515A0.66567,0.66567,0,0,0,7.29,1.98875c0.08856,0.01111.18771-.0258,0.19975,0.045a0.303,0.303,0,0,1-.09017.13517C7.44729,2.23183,7.3672,2.26189,7.36738,2.317a0.13932,0.13932,0,0,0,.10311.11569,0.23106,0.23106,0,0,0,.187-0.12868A0.65783,0.65783,0,0,1,7.73488,2.066,0.44358,0.44358,0,0,0,8.27,1.62205a0.41925,0.41925,0,0,1-.01283-0.103,0.42293,0.42293,0,0,0,.08371-0.1544A0.124,0.124,0,0,0,8.40922,1.299a0.20714,0.20714,0,0,1,.08984-0.11058l0.00947-.004a0.16574,0.16574,0,0,1,.0827.00783,0.47535,0.47535,0,0,0,.16867.03722,0.59417,0.59417,0,0,1,.10321-0.02567,0.4037,0.4037,0,0,1,.14829.12226,0.17469,0.17469,0,0,1,.09672.0643,0.59069,0.59069,0,0,0-.05806.13969L9.05,1.53193a0.13922,0.13922,0,0,0,.09675.10953,0.30837,0.30837,0,0,0,.1612-0.03868A0.80833,0.80833,0,0,0,9.449,1.49117q0.09483,0.07269.18651,0.14908a0.7101,0.7101,0,0,1,.01412.07187c0.009,0.06956-.00945.1227-0.00637,0.18674a0.3143,0.3143,0,0,0,.21261.15432,0.555,0.555,0,0,1,.04523.08371,0.208,0.208,0,0,1,.07737.09c0.01206,0.11115-.101.12051-0.09038,0.24454a0.19175,0.19175,0,0,0-.07734.10937,0.46407,0.46407,0,0,0,.19341.103,0.18466,0.18466,0,0,1-.01938.135c0.05,0.05947.04967,0.1544-.03861,0.15452a0.593,0.593,0,0,1-.12254-0.07085C9.79355,2.895,9.75248,2.8965,9.71408,2.8897,9.68125,2.88384,9.64213,2.87411,9.611,2.87037A0.38246,0.38246,0,0,1,9.3982,2.83823a2.09564,2.09564,0,0,1,.27722-0.28954c0.02937-.02618.09233-0.0441,0.07737-0.09651a0.15037,0.15037,0,0,0-.174.03214,0.59447,0.59447,0,0,1-.18053.08371,0.89381,0.89381,0,0,0-.33518.02567,0.3235,0.3235,0,0,1,.08371.103,0.12863,0.12863,0,0,1-.11592-0.01941,0.4423,0.4423,0,0,1-.03224-0.08368,0.40006,0.40006,0,0,0-.21277-0.02567,0.14968,0.14968,0,0,0-.13545.10935c0.08137,0.038.21551-.03912,0.245,0.058A0.38414,0.38414,0,0,0,8.76,2.96686a0.14516,0.14516,0,0,0,.09038.103C8.886,3.076,8.906,3.04073,8.94051,3.044a0.19062,0.19062,0,0,0,.071.03871A0.443,0.443,0,0,1,9.179,2.97335c0.08527,0.10337-.077.15373-0.16746,0.18656-0.10321.03735-.23736,0.05719-0.316,0.09023-0.04117.0172-.19713,0.16767-0.21913,0.05134-0.01579-.08388.07713-0.0596,0.09675-0.12868a0.53964,0.53964,0,0,0-.28361.07742,0.51294,0.51294,0,0,0-.38043.22516,0.264,0.264,0,0,1-.00637.10285,1.07132,1.07132,0,0,1-.14829.03216C7.69224,3.6317,7.638,3.67721,7.59958,3.6876c-0.029.008-.07182,0.0057-0.09017,0.013a0.91139,0.91139,0,0,0-.12888.135c-0.02408.01882-.07754,0.0325-0.09675,0.05149a0.26865,0.26865,0,0,1-.09675.12865,0.19934,0.19934,0,0,0-.10321-0.00647A0.82671,0.82671,0,0,1,7.0775,4.286a1.761,1.761,0,0,1-.25787.16087c-0.054.03044-.10237,0.0382-0.16764,0.07087-0.04631.023-.08858,0.078-0.14182,0.10935a0.41167,0.41167,0,0,0-.27073.34106c0.00021,0.03966.02066,0.0824,0.02572,0.12875,0.00305,0.02729-.00326.0539,0,0.08368a0.21766,0.21766,0,0,1,0,.19939,0.76748,0.76748,0,0,1-.25784-0.10935A1.06631,1.06631,0,0,1,6.0332,5.09691a0.20982,0.20982,0,0,0-.10973-0.13522c-0.0392-.00616-0.07541.03542-0.11589,0.03214-0.04818-.00377-0.093-0.07-0.15486-0.07719-0.09066-.0106-0.1574.02066-0.25784,0.00655a0.4191,0.4191,0,0,1-.24483.135c-0.042-.00308-0.08039-0.03509-0.12891-0.045a0.80464,0.80464,0,0,0-.18707-0.02562,0.75178,0.75178,0,0,0-.28356.135,0.40451,0.40451,0,0,0-.22563.18666c-0.01353.04826-.00213,0.1162-0.01938,0.16089a0.7918,0.7918,0,0,1-.05159.08347,0.64689,0.64689,0,0,0-.07731.49561,1.14449,1.14449,0,0,0,.10955.21872,0.35681,0.35681,0,0,0,.18687.09A0.8317,0.8317,0,0,0,4.6213,6.32585,1.44345,1.44345,0,0,0,4.789,6.30018c0.13938-.04451.11184-0.23266,0.25135-0.29609a0.66478,0.66478,0,0,1,.23846-0.0385,0.144,0.144,0,0,1,.04525.12218,0.81452,0.81452,0,0,1-.05159.10943c-0.01463.04112-.01771,0.08925-0.03221,0.12231-0.0192.04338-.062,0.07513-0.07734,0.11595-0.01009.02649-.00454,0.05947-0.01283,0.08347a0.13945,0.13945,0,0,0-.04523.11595,1.8657,1.8657,0,0,0,.42551.00652,0.19427,0.19427,0,0,1,.15465.14808C5.68436,6.8479,5.63975,6.8863,5.63341,6.95039c-0.00783.08055-.04153,0.17919-0.0451,0.24439A0.35492,0.35492,0,0,0,5.859,7.4843a0.59478,0.59478,0,0,1,.3417-0.05781A0.46841,0.46841,0,0,0,6.3556,7.523a0.27946,0.27946,0,0,0,.14179-0.13522,0.2855,0.2855,0,0,1,.10306-0.15442c0.06918-.03576.12424-0.01856,0.21279-0.05154a0.51224,0.51224,0,0,0,.10958-0.06438C6.95409,7.096,6.987,7.03982,7.026,7.07874a0.85816,0.85816,0,0,1-.01941.13525c0.08935,0.04728.1352-.08794,0.19991-0.09a0.45488,0.45488,0,0,1,.12888.06433,0.37442,0.37442,0,0,0,.12246.09c0.03529,0.007.09218-.01345,0.14179-0.00649,0.06579,0.00934.105,0.06576,0.15483,0.0643A0.77739,0.77739,0,0,0,7.89633,7.259a0.17118,0.17118,0,0,1,.20625.0837,0.31973,0.31973,0,0,1,.10955-0.0385,0.12355,0.12355,0,0,0,.03221.1287,0.28689,0.28689,0,0,0,.02585.06435,1.1458,1.1458,0,0,0,.1353.05783,0.78578,0.78578,0,0,1,.12888.14806,0.39112,0.39112,0,0,0,.22563.135c0.07087,0.00459.12847-.02,0.187-0.01283a0.60478,0.60478,0,0,1,.30954.15455,0.29658,0.29658,0,0,1,.11592.11571c0.01173,0.03347.006,0.07829,0.01938,0.11584a0.30811,0.30811,0,0,1,.10321.25738,0.24426,0.24426,0,0,0,.10955.08368,0.39886,0.39886,0,0,0,.10955.07721,0.657,0.657,0,0,0,.07737-0.00647,0.59746,0.59746,0,0,1,.187.058,0.75206,0.75206,0,0,1,.116.03871,0.8301,0.8301,0,0,0,.07737.11571,0.68786,0.68786,0,0,0,.12888,0c0.06918,0.008.16312,0.05039,0.22563,0.05154,0.03794,0.00082.06936-.0155,0.10306-0.01283a0.34812,0.34812,0,0,1,.20052.11055,5.699,5.699,0,0,1-3.497,2.53624c-0.00537-.05639-0.02092-0.11315-0.02346-0.16936A2.29665,2.29665,0,0,0,7.30326,11.03a1.11924,1.11924,0,0,0-.06448-0.27021,0.84459,0.84459,0,0,0-.23849-0.19947c-0.0451-.02505-0.09908-0.03381-0.14826-0.05788a0.85744,0.85744,0,0,1-.35456-0.26387c-0.01337-.0299-0.01153-0.06948-0.02585-0.10288A1.35684,1.35684,0,0,0,6.34271,9.949C6.26306,9.82761,6.19882,9.67535,6.11709,9.55a1.58431,1.58431,0,0,0-.12246-0.18656,0.39934,0.39934,0,0,1-.12244-0.103A0.73362,0.73362,0,0,1,5.82059,9.0737c0.00929-.06143.12911-0.11112,0.12891-0.16715A0.43549,0.43549,0,0,0,5.87218,8.7907a0.28662,0.28662,0,0,1,.05793-0.23805,0.9713,0.9713,0,0,1,.03876-0.09c0.02362-.03545.07162-0.04541,0.10306-0.0837,0.01758-.02143.0287-0.06617,0.05162-0.09651a0.91428,0.91428,0,0,0,.14829-0.14808,1.22234,1.22234,0,0,0,.00634-0.36673,1.23688,1.23688,0,0,0-.07087-0.1287c-0.02913-.0776-0.036-0.16253-0.116-0.16089a0.2,0.2,0,0,0-.1161.09,0.10628,0.10628,0,0,1-.05157.10935,0.42526,0.42526,0,0,1-.18687-0.10285c-0.034-.0104-0.08825-0.00975-0.10955-0.01933-0.06237-.028-0.08252-0.11913-0.14829-0.15452A0.32171,0.32171,0,0,1,5.34343,7.3363a0.50557,0.50557,0,0,1-.00637-0.12868,2.7853,2.7853,0,0,0-.21279-0.23156C5.06973,6.95188,4.98626,6.95414,4.918,6.931a0.78017,0.78017,0,0,0-.09035-0.03214A0.54458,0.54458,0,0,1,4.71178,6.873a0.9122,0.9122,0,0,0-.35456-0.26374C4.28984,6.611,4.2249,6.674,4.16381,6.67363a0.76547,0.76547,0,0,1-.23864-0.0837c-0.07914-.03673-0.16672-0.05675-0.232-0.09-0.05275-.027-0.08938-0.07626-0.13545-0.09672-0.03529-.01558-0.087-0.01835-0.11589-0.032a1.26328,1.26328,0,0,1-.13545-0.09672,0.21856,0.21856,0,0,1-.10319-0.12855,1.0047,1.0047,0,0,1,.05159-0.14172,0.50075,0.50075,0,0,0-.16769-0.35389C3.03434,5.583,2.97248,5.52594,2.9196,5.46369a0.45891,0.45891,0,0,0,0-.09,1.26921,1.26921,0,0,1-.11607-0.15453,0.53744,0.53744,0,0,1-.12244-0.16718,0.90518,0.90518,0,0,0,0-.206c-0.0459-.11646-0.20792-0.06384-0.18707.09017a0.84565,0.84565,0,0,0,.08388.14156c0.01856,0.04294.015,0.09639,0.03221,0.14806C2.62672,5.27523,2.67672,5.318,2.694,5.37375c0.02734,0.08812.02652,0.183,0.05159,0.23808C2.76769,5.6607,2.84927,5.707,2.8035,5.76622a0.14881,0.14881,0,0,1-.12244-0.08368,0.29882,0.29882,0,0,1-.10955-0.10288c-0.00975-.03786.02408-0.08889,0.01283-0.13522a1.57563,1.57563,0,0,1-.20643-0.18656c-0.00031-.05865.07683-0.06566,0.07752-0.12239a0.61675,0.61675,0,0,0-.10319-0.16723,0.96821,0.96821,0,0,1-.02572-0.19305,1.19271,1.19271,0,0,0-.013-0.18666,0.30326,0.30326,0,0,0-.12244-0.12873,0.26943,0.26943,0,0,1-.12891-0.0643A0.529,0.529,0,0,1,2.017,4.22829c-0.00929-.07742-0.0021-0.162-0.00647-0.24457a1.24122,1.24122,0,0,1,0-.25089c0.03191-.06225.09-0.09292,0.12257-0.15458C2.15578,3.53539,2.159,3.48238,2.1846,3.43675A2.09634,2.09634,0,0,1,2.40387,3.1922a1.14058,1.14058,0,0,0,.18687-0.27676,0.41517,0.41517,0,0,0,.05159-0.16089A0.75911,0.75911,0,0,1,2.52625,2.568a0.54547,0.54547,0,0,1,.09035-0.09A0.46008,0.46008,0,0,0,2.636,2.36205,1.05514,1.05514,0,0,1,2.61661,2.169c0.01058-.05652.0949-0.07944,0.05159-0.14156a0.43053,0.43053,0,0,0-.16767-0.00649c-0.04364-.03658.00878-0.08073,0.01283-0.14806C2.515,1.84614,2.49771,1.81554,2.50053,1.7957a0.28739,0.28739,0,0,0,.0451-0.09654c-0.02331-.02944-0.04877-0.08894-0.08522-0.1364A5.6519,5.6519,0,0,1,4.98333.41208Z" transform="translate(0 0)" style="fill:#bdbdbd"/></svg>