<svg width="25" height="23" viewBox="0 0 25 23" fill="none" xmlns="http://www.w3.org/2000/svg">
<path d="M11.4444 21.8002L0.296517 8.17508C-0.0750774 7.80348 -0.0750773 7.18416 0.172652 6.81257L3.8886 0.619324C4.13633 0.24773 4.50792 0 5.00338 0H19.8672C20.3626 0 20.7342 0.24773 20.9819 0.619324L24.6979 6.81257C24.9456 7.30803 24.9456 7.80348 24.574 8.17508L13.4262 21.8002C12.9307 22.4195 11.9398 22.4195 11.4444 21.8002ZM2.77381 7.30803L12.4353 19.0752L22.0967 7.30803L19.2478 2.4773H5.74657L2.77381 7.30803Z" fill="#F57F17"/>
<path d="M18.6286 8.67056H6.24207C5.49888 8.67056 5.00342 8.17511 5.00342 7.43192C5.00342 6.68873 5.49888 6.19327 6.24207 6.19327H18.6286C19.3717 6.19327 19.8672 6.68873 19.8672 7.43192C19.8672 8.17511 19.3717 8.67056 18.6286 8.67056Z" fill="#F57F17"/>
</svg>
