<svg width="122" height="21" viewBox="0 0 122 21" fill="none" xmlns="http://www.w3.org/2000/svg">
<path d="M80.5071 20.0567C79.8486 20.4681 79.437 20.2213 79.6016 19.3984L81.248 12.8157L76.0618 8.45467C75.4033 7.96096 75.5679 7.46726 76.3911 7.38498L83.1414 6.89127L85.6933 0.555416C86.0226 -0.185139 86.5165 -0.185139 86.7635 0.555416L89.3154 6.89127L96.0657 7.38498C96.8889 7.46726 97.0535 7.87868 96.395 8.45467L91.2088 12.8157L92.8552 19.3984C93.0198 20.2213 92.6906 20.4681 91.9497 20.0567L86.1872 16.4362L80.5071 20.0567Z" fill="#FFAB00"/>
<path d="M80.5071 20.0567C79.8486 20.4681 79.437 20.2213 79.6016 19.3984L81.248 12.8157L76.0618 8.45467C75.4033 7.96096 75.5679 7.46726 76.3911 7.38498L83.1414 6.89127L85.6933 0.555416C86.0226 -0.185139 86.5165 -0.185139 86.7635 0.555416L89.3154 6.89127L96.0657 7.38498C96.8889 7.46726 97.0535 7.87868 96.395 8.45467L91.2088 12.8157L92.8552 19.3984C93.0198 20.2213 92.6906 20.4681 91.9497 20.0567L86.1872 16.4362L80.5071 20.0567Z" fill="#FFAB00"/>
<path d="M81.2475 12.4098L76.0613 8.04681C75.8967 7.88217 75.8143 7.79985 75.732 7.71753C75.5674 7.88217 75.6497 8.21145 76.0613 8.54073L81.1652 12.8214L81.2475 12.4098Z" fill="#FFAB00"/>
<path d="M96.3945 8.0468L91.2083 12.4098L91.2906 12.7391L96.3945 8.4584C96.7238 8.12912 96.8884 7.88215 96.7238 7.63519C96.6414 7.79983 96.5591 7.88215 96.3945 8.0468Z" fill="#FFAB00"/>
<path d="M91.9492 19.6469L86.1867 16.0248L80.4243 19.6469C79.9304 19.9762 79.6011 19.8938 79.5188 19.5646C79.4365 20.2231 79.7657 20.4701 80.4243 20.0585L86.1867 16.4364L91.9492 20.0585C92.6077 20.4701 93.0193 20.2231 92.8547 19.5646C92.7724 19.8938 92.4431 19.8938 91.9492 19.6469Z" fill="#FFAB00"/>
<path d="M76.3905 7.79988L83.1408 7.38828L85.6927 1.0496C86.022 0.308718 86.5159 0.308718 86.7629 1.0496L89.3148 7.38828L96.0651 7.8822C96.3944 7.8822 96.6413 7.96452 96.7237 8.12916C96.8883 7.79988 96.6413 7.4706 96.0651 7.4706L89.3148 6.97667L86.7629 0.637999C86.4336 -0.102885 85.9397 -0.102885 85.6927 0.637999L83.1408 6.97667L76.3905 7.4706C75.7319 7.55292 75.5673 7.79988 75.7319 8.12916C75.8143 7.96452 76.0612 7.8822 76.3905 7.79988Z" fill="#FFAB00"/>
<path d="M81.2475 13.2272L81.1651 13.1448L79.601 19.4012C79.5187 19.6482 79.5187 19.8128 79.601 19.9774C79.601 19.8951 79.601 19.8951 79.601 19.8128L81.2475 13.2272Z" fill="#FFAB00"/>
<path d="M91.2906 13.1448L91.2083 13.2272L92.8547 19.8128C92.8547 19.8951 92.8547 19.8951 92.8547 19.9774C92.8547 19.8128 92.8547 19.6482 92.8547 19.4012L91.2906 13.1448Z" fill="#FFAB00"/>
<path d="M81.2474 12.1629L76.0613 7.79988C75.9789 7.71756 75.8966 7.63524 75.8143 7.55292C75.5673 7.71756 75.6496 8.04684 76.0613 8.45844L81.1651 12.7391L81.2474 12.1629Z" fill="#FFAB00"/>
<path d="M96.6414 7.55292C96.5591 7.63524 96.4768 7.71756 96.3944 7.79988L91.2083 12.1629L91.3729 12.6568L96.4768 8.37612C96.806 8.12916 96.8884 7.79988 96.6414 7.55292Z" fill="#FFAB00"/>
<path d="M91.9491 19.4001L86.1867 15.778L80.4242 19.4001C80.0126 19.647 79.6834 19.647 79.5187 19.4001C79.3541 20.2233 79.6834 20.4702 80.4242 20.0586L86.1867 16.4365L91.9491 20.0586C92.6077 20.4702 93.0193 20.2233 92.8546 19.4001C92.7723 19.647 92.443 19.647 91.9491 19.4001Z" fill="#FFAB00"/>
<path d="M76.3909 8.04682L83.1411 7.5529L85.6931 1.21423C86.0224 0.473343 86.5163 0.473343 86.7632 1.21423L89.3152 7.5529L96.0655 8.04682C96.3124 8.04682 96.5594 8.12915 96.6417 8.21147C96.971 7.79986 96.724 7.47058 96.0655 7.38826L89.3152 6.89434L86.7632 0.555663C86.434 -0.185221 85.94 -0.185221 85.6931 0.555663L83.1411 6.89434L76.3909 7.38826C75.7323 7.47058 75.4853 7.79986 75.8146 8.21147C75.8969 8.12915 76.1439 8.04682 76.3909 8.04682Z" fill="#FFAB00"/>
<path d="M81.2475 13.474L81.0829 13.3917L79.5188 19.4834C79.4365 19.7303 79.4365 19.9773 79.5188 20.1419L81.2475 13.474Z" fill="#FFAB00"/>
<path d="M91.3729 13.3094L91.2083 13.3917L92.8547 19.9773C92.937 19.8127 92.937 19.6481 92.8547 19.3188L91.3729 13.3094Z" fill="#FFAB00"/>
<path d="M105.697 20.0567C105.039 20.4681 104.627 20.2213 104.792 19.3984L106.438 12.8157L101.252 8.45467C100.593 7.96096 100.758 7.46726 101.581 7.38498L108.331 6.89127L110.883 0.555416C111.213 -0.185139 111.707 -0.185139 111.954 0.555416L114.505 6.89127L121.256 7.38498C122.079 7.46726 122.244 7.87868 121.585 8.45467L116.399 12.8157L118.045 19.3984C118.21 20.2213 117.881 20.4681 117.14 20.0567L111.377 16.4362L105.697 20.0567Z" fill="#FFAB00"/>
<path d="M105.697 20.0567C105.039 20.4681 104.627 20.2213 104.792 19.3984L106.438 12.8157L101.252 8.45467C100.593 7.96096 100.758 7.46726 101.581 7.38498L108.331 6.89127L110.883 0.555416C111.213 -0.185139 111.707 -0.185139 111.954 0.555416L114.505 6.89127L121.256 7.38498C122.079 7.46726 122.244 7.87868 121.585 8.45467L116.399 12.8157L118.045 19.3984C118.21 20.2213 117.881 20.4681 117.14 20.0567L111.377 16.4362L105.697 20.0567Z" fill="#FFAB00"/>
<path d="M106.438 12.4098L101.251 8.04681C101.087 7.88217 101.004 7.79985 100.922 7.71753C100.757 7.88217 100.84 8.21145 101.251 8.54073L106.355 12.8214L106.438 12.4098Z" fill="#FFAB00"/>
<path d="M121.585 8.0468L116.398 12.4098L116.481 12.7391L121.585 8.4584C121.914 8.12912 122.079 7.88215 121.914 7.63519C121.914 7.79983 121.749 7.88215 121.585 8.0468Z" fill="#FFAB00"/>
<path d="M117.139 19.6469L111.377 16.0248L105.614 19.6469C105.12 19.9762 104.791 19.8938 104.709 19.5646C104.627 20.2231 104.956 20.4701 105.614 20.0585L111.377 16.4364L117.139 20.0585C117.798 20.4701 118.209 20.2231 118.045 19.5646C118.045 19.8938 117.633 19.8938 117.139 19.6469Z" fill="#FFAB00"/>
<path d="M101.581 7.79986L108.331 7.30594L110.883 0.967265C111.212 0.226381 111.706 0.226381 111.953 0.967265L114.505 7.30594L121.256 7.79986C121.585 7.79986 121.832 7.88218 121.914 8.04682C122.079 7.71754 121.832 7.38826 121.256 7.38826L114.505 6.89434L111.953 0.555663C111.624 -0.185221 111.13 -0.185221 110.883 0.555663L108.331 6.89434L101.581 7.38826C100.922 7.47058 100.758 7.71754 100.922 8.04682C101.005 7.9645 101.252 7.88218 101.581 7.79986Z" fill="#FFAB00"/>
<path d="M106.438 13.2272L106.355 13.1448L104.791 19.4012C104.709 19.6482 104.709 19.8128 104.791 19.9774C104.791 19.8951 104.791 19.8951 104.791 19.8128L106.438 13.2272Z" fill="#FFAB00"/>
<path d="M116.481 13.1448L116.398 13.2272L118.045 19.8128C118.045 19.8951 118.045 19.8951 118.045 19.9774C118.045 19.8128 118.045 19.6482 118.045 19.4012L116.481 13.1448Z" fill="#FFAB00"/>
<path d="M106.438 12.1629L101.251 7.79988C101.169 7.71756 101.087 7.63524 101.004 7.55292C100.757 7.71756 100.84 8.04684 101.251 8.45844L106.355 12.7391L106.438 12.1629Z" fill="#FFAB00"/>
<path d="M121.832 7.55292C121.749 7.63524 121.667 7.71756 121.585 7.79988L116.398 12.1629L116.563 12.6568L121.667 8.37612C122.078 8.12916 122.078 7.79988 121.832 7.55292Z" fill="#FFAB00"/>
<path d="M117.139 19.4001L111.377 15.778L105.614 19.4001C105.203 19.647 104.873 19.647 104.709 19.4001C104.544 20.2233 104.873 20.4702 105.614 20.0586L111.377 16.4365L117.139 20.0586C117.798 20.4702 118.209 20.2233 118.045 19.4001C117.962 19.647 117.633 19.647 117.139 19.4001Z" fill="#FFAB00"/>
<path d="M101.581 8.04682L108.331 7.5529L110.883 1.21423C111.212 0.473343 111.706 0.473343 111.953 1.21423L114.505 7.5529L121.255 8.04682C121.502 8.04682 121.749 8.12915 121.832 8.21147C122.161 7.79986 121.914 7.47058 121.255 7.38826L114.505 6.89434L111.953 0.555663C111.624 -0.185221 111.13 -0.185221 110.883 0.555663L108.331 6.89434L101.581 7.38826C100.922 7.47058 100.675 7.79986 101.005 8.21147C101.087 8.12915 101.334 8.04682 101.581 8.04682Z" fill="#FFAB00"/>
<path d="M106.438 13.474L106.273 13.3917L104.709 19.4834C104.627 19.7303 104.627 19.9773 104.709 20.1419L106.438 13.474Z" fill="#FFAB00"/>
<path d="M116.563 13.3094L116.398 13.3917L118.045 19.9773C118.127 19.8127 118.127 19.6481 118.045 19.3188L116.563 13.3094Z" fill="#FFAB00"/>
<path d="M4.85461 20.0567C4.19605 20.4681 3.78445 20.2213 3.94909 19.3984L5.5955 12.8157L0.409308 8.45467C-0.249255 7.96096 -0.0846147 7.46726 0.73859 7.38498L7.48887 6.89127L10.0408 0.555416C10.3701 -0.185139 10.864 -0.185139 11.111 0.555416L13.6629 6.89127L20.4132 7.38498C21.2364 7.46726 21.401 7.87868 20.7425 8.45467L15.6386 12.8157L17.285 19.3984C17.4496 20.2213 17.1204 20.4681 16.3795 20.0567L10.617 16.4362L4.85461 20.0567Z" fill="#FFAB00"/>
<path d="M4.85461 20.0567C4.19605 20.4681 3.78445 20.2213 3.94909 19.3984L5.5955 12.8157L0.409308 8.45467C-0.249255 7.96096 -0.0846147 7.46726 0.73859 7.38498L7.48887 6.89127L10.0408 0.555416C10.3701 -0.185139 10.864 -0.185139 11.111 0.555416L13.6629 6.89127L20.4132 7.38498C21.2364 7.46726 21.401 7.87868 20.7425 8.45467L15.6386 12.8157L17.285 19.3984C17.4496 20.2213 17.1204 20.4681 16.3795 20.0567L10.617 16.4362L4.85461 20.0567Z" fill="#FFAB00"/>
<path d="M5.59497 12.4098L0.408782 8.04681C0.244141 7.88217 0.161821 7.79985 0.0795007 7.71753C-0.0851402 7.88217 -0.00282009 8.21145 0.408782 8.54073L5.51265 12.8214L5.59497 12.4098Z" fill="#FFAB00"/>
<path d="M20.8243 8.0468L15.6381 12.4098L15.7204 12.7391L20.8243 8.4584C21.1535 8.12912 21.3182 7.88215 21.1535 7.63519C21.0712 7.79983 20.9889 7.88215 20.8243 8.0468Z" fill="#FFAB00"/>
<path d="M16.3789 19.6469L10.6165 16.0248L4.85406 19.6469C4.36014 19.9762 4.03086 19.8938 3.94854 19.5646C3.78389 20.2231 4.1955 20.4701 4.85406 20.0585L10.6165 16.4364L16.3789 20.0585C17.0375 20.4701 17.4491 20.2231 17.2845 19.5646C17.2021 19.8938 16.8728 19.8938 16.3789 19.6469Z" fill="#FFAB00"/>
<path d="M0.738377 7.79986L7.48866 7.30594L10.0406 0.967265C10.3699 0.226381 10.8638 0.226381 11.1108 0.967265L13.6627 7.30594L20.413 7.79986C20.7422 7.79986 20.9892 7.88218 21.0715 8.04682C21.2362 7.71754 20.9892 7.38826 20.413 7.38826L13.6627 6.89434L11.1108 0.555663C10.7815 -0.185221 10.2876 -0.185221 10.0406 0.555663L7.48866 6.89434L0.738377 7.38826C0.0798136 7.47058 -0.0848267 7.71754 0.0798143 8.04682C0.162135 7.9645 0.409095 7.88218 0.738377 7.79986Z" fill="#FFAB00"/>
<path d="M5.595 13.2272L5.51268 13.1448L3.94859 19.4012C3.86627 19.6482 3.86627 19.8128 3.94859 19.9774C3.94859 19.8951 3.94859 19.8951 3.94859 19.8128L5.595 13.2272Z" fill="#FFAB00"/>
<path d="M15.7204 13.1448L15.6381 13.2272L17.2845 19.8128C17.2845 19.8951 17.2845 19.8951 17.2845 19.9774C17.2845 19.8128 17.2845 19.6482 17.2845 19.4012L15.7204 13.1448Z" fill="#FFAB00"/>
<path d="M5.59498 12.1629L0.408796 7.79988C0.326476 7.71756 0.244155 7.63524 0.161834 7.55292C-0.085127 7.71756 -0.00280632 8.04684 0.408796 8.45844L5.51266 12.7391L5.59498 12.1629Z" fill="#FFAB00"/>
<path d="M21.0712 7.55292C20.9889 7.63524 20.9066 7.71756 20.8242 7.79988L15.638 12.1629L15.8027 12.6568L20.9066 8.37612C21.2358 8.12916 21.3182 7.79988 21.0712 7.55292Z" fill="#FFAB00"/>
<path d="M16.3789 19.4001L10.6165 15.778L4.85406 19.4001C4.44246 19.647 4.11318 19.647 3.94854 19.4001C3.7839 20.2233 4.11318 20.4702 4.85406 20.0586L10.6165 16.4365L16.3789 20.0586C17.0375 20.4702 17.4491 20.2233 17.2845 19.4001C17.1198 19.647 16.7905 19.647 16.3789 19.4001Z" fill="#FFAB00"/>
<path d="M0.738306 8.04682L7.48858 7.5529L10.0405 1.21423C10.3698 0.473343 10.8637 0.473343 11.1107 1.21423L13.6626 7.5529L20.4129 8.04682C20.6599 8.04682 20.9068 8.12915 20.9891 8.21147C21.3184 7.79986 21.0715 7.47058 20.4129 7.38826L13.6626 6.89434L11.1107 0.555663C10.7814 -0.185221 10.2875 -0.185221 10.0405 0.555663L7.48858 6.89434L0.738306 7.38826C0.0797422 7.47058 -0.167219 7.79986 0.162063 8.21147C0.326704 8.12915 0.491345 8.04682 0.738306 8.04682Z" fill="#FFAB00"/>
<path d="M5.59497 13.474L5.43033 13.3917L3.86624 19.4834C3.78392 19.7303 3.78392 19.9773 3.86624 20.1419L5.59497 13.474Z" fill="#FFAB00"/>
<path d="M15.7204 13.3094L15.6381 13.474L17.2845 20.0597C17.3668 19.895 17.3668 19.7304 17.2845 19.4011L15.7204 13.3094Z" fill="#FFAB00"/>
<path d="M30.0441 20.0567C29.3856 20.4681 28.974 20.2213 29.1386 19.3984L30.785 12.8157L25.5988 8.45467C24.9403 7.96096 25.1049 7.46726 25.9281 7.38498L32.6784 6.89127L35.2303 0.555416C35.5596 -0.185139 36.0535 -0.185139 36.3005 0.555416L38.8524 6.89127L45.6027 7.38498C46.4259 7.46726 46.5905 7.87868 45.932 8.45467L40.7458 12.8157L42.3922 19.3984C42.5568 20.2213 42.2275 20.4681 41.4867 20.0567L35.7242 16.4362L30.0441 20.0567Z" fill="#FFAB00"/>
<path d="M30.0441 20.0567C29.3856 20.4681 28.974 20.2213 29.1386 19.3984L30.785 12.8157L25.5988 8.45467C24.9403 7.96096 25.1049 7.46726 25.9281 7.38498L32.6784 6.89127L35.2303 0.555416C35.5596 -0.185139 36.0535 -0.185139 36.3005 0.555416L38.8524 6.89127L45.6027 7.38498C46.4259 7.46726 46.5905 7.87868 45.932 8.45467L40.7458 12.8157L42.3922 19.3984C42.5568 20.2213 42.2275 20.4681 41.4867 20.0567L35.7242 16.4362L30.0441 20.0567Z" fill="#FFAB00"/>
<path d="M30.8673 12.4098L25.6811 8.04681C25.5164 7.88217 25.4341 7.79985 25.3518 7.71753C25.1871 7.88217 25.2695 8.21145 25.6811 8.54073L30.7849 12.8214L30.8673 12.4098Z" fill="#FFAB00"/>
<path d="M46.0143 8.0468L40.8281 12.4098L40.9104 12.7391L46.0143 8.4584C46.3435 8.12912 46.5082 7.88215 46.3435 7.63519C46.2612 7.79983 46.1789 7.88215 46.0143 8.0468Z" fill="#FFAB00"/>
<path d="M41.569 19.6469L35.8065 16.0248L30.0441 19.6469C29.5502 19.9762 29.2209 19.8938 29.1386 19.5646C29.0563 20.2231 29.3855 20.4701 30.0441 20.0585L35.8065 16.4364L41.569 20.0585C42.2275 20.4701 42.6391 20.2231 42.4745 19.5646C42.3922 19.8938 42.0629 19.8938 41.569 19.6469Z" fill="#FFAB00"/>
<path d="M25.9283 7.79986L32.6786 7.30594L35.2306 0.967265C35.5598 0.226381 36.0538 0.226381 36.3007 0.967265L38.8527 7.30594L45.6029 7.79986C45.9322 7.79986 46.1792 7.88218 46.2615 8.04682C46.4261 7.71754 46.1792 7.38826 45.6029 7.38826L38.8527 6.89434L36.3007 0.555663C35.9714 -0.185221 35.4775 -0.185221 35.2306 0.555663L32.6786 6.89434L25.9283 7.38826C25.2698 7.47058 25.1051 7.71754 25.2698 8.04682C25.4344 7.9645 25.5991 7.88218 25.9283 7.79986Z" fill="#FFAB00"/>
<path d="M30.8673 13.2272L30.7849 13.1448L29.2209 19.4012C29.1385 19.6482 29.1385 19.8128 29.2209 19.9774C29.2209 19.8951 29.2209 19.8951 29.2209 19.8128L30.8673 13.2272Z" fill="#FFAB00"/>
<path d="M40.9104 13.1448L40.8281 13.2272L42.4745 19.8128C42.4745 19.8951 42.4745 19.8951 42.4745 19.9774C42.4745 19.8128 42.4745 19.6482 42.4745 19.4012L40.9104 13.1448Z" fill="#FFAB00"/>
<path d="M30.8673 12.1629L25.6811 7.79988C25.5988 7.71756 25.5164 7.63524 25.4341 7.55292C25.1872 7.71756 25.2695 8.04684 25.6811 8.45844L30.7849 12.7391L30.8673 12.1629Z" fill="#FFAB00"/>
<path d="M46.2612 7.55292C46.1789 7.63524 46.0965 7.71756 46.0142 7.79988L40.828 12.1629L40.9927 12.6568L46.0965 8.37612C46.4258 8.12916 46.5081 7.79988 46.2612 7.55292Z" fill="#FFAB00"/>
<path d="M41.5689 19.4001L35.8065 15.778L30.0441 19.4001C29.6324 19.647 29.3032 19.647 29.1385 19.4001C28.9739 20.2233 29.3032 20.4702 30.0441 20.0586L35.8065 16.4365L41.5689 20.0586C42.2275 20.4702 42.6391 20.2233 42.4744 19.4001C42.3098 19.647 41.9805 19.647 41.5689 19.4001Z" fill="#FFAB00"/>
<path d="M25.9288 8.04682L32.6791 7.5529L35.231 1.21423C35.5603 0.473343 36.0542 0.473343 36.3012 1.21423L38.8531 7.5529L45.6034 8.04682C45.8504 8.04682 46.0973 8.12915 46.1796 8.21147C46.5089 7.79986 46.262 7.47058 45.6034 7.38826L38.8531 6.89434L36.3012 0.555663C35.9719 -0.185221 35.478 -0.185221 35.231 0.555663L32.6791 6.89434L25.9288 7.38826C25.2702 7.47058 25.0233 7.79986 25.3526 8.21147C25.5172 8.12915 25.6818 8.04682 25.9288 8.04682Z" fill="#FFAB00"/>
<path d="M30.8672 13.474L30.7026 13.3917L29.1385 19.4834C29.0562 19.7303 29.0562 19.9773 29.1385 20.1419L30.8672 13.474Z" fill="#FFAB00"/>
<path d="M40.9104 13.3094L40.7458 13.3917L42.3922 19.9773C42.4745 19.8127 42.4745 19.6481 42.3922 19.3188L40.9104 13.3094Z" fill="#FFAB00"/>
<path d="M55.2342 20.0567C54.5756 20.4681 54.164 20.2213 54.3286 19.3984L55.975 12.8157L50.7889 8.45467C50.1303 7.96096 50.2949 7.46726 51.1181 7.38498L57.8684 6.89127L60.4203 0.555416C60.7496 -0.185139 61.2435 -0.185139 61.4905 0.555416L64.0424 6.89127L70.7927 7.38498C71.6159 7.46726 71.7806 7.87868 71.122 8.45467L65.9358 12.8157L67.5822 19.3984C67.7469 20.2213 67.4176 20.4681 66.6767 20.0567L60.9143 16.4362L55.2342 20.0567Z" fill="#FFAB00"/>
<path d="M55.2342 20.0567C54.5756 20.4681 54.164 20.2213 54.3286 19.3984L55.975 12.8157L50.7889 8.45467C50.1303 7.96096 50.2949 7.46726 51.1181 7.38498L57.8684 6.89127L60.4203 0.555416C60.7496 -0.185139 61.2435 -0.185139 61.4905 0.555416L64.0424 6.89127L70.7927 7.38498C71.6159 7.46726 71.7806 7.87868 71.122 8.45467L65.9358 12.8157L67.5822 19.3984C67.7469 20.2213 67.4176 20.4681 66.6767 20.0567L60.9143 16.4362L55.2342 20.0567Z" fill="#FFAB00"/>
<path d="M56.0574 12.4098L50.8712 8.04681C50.7065 7.88217 50.6242 7.79985 50.5419 7.71753C50.3773 7.88217 50.4596 8.21145 50.8712 8.54073L55.9751 12.8214L56.0574 12.4098Z" fill="#FFAB00"/>
<path d="M71.2044 8.0468L66.0182 12.4098L66.1005 12.7391L71.2044 8.4584C71.5337 8.12912 71.6983 7.88215 71.5337 7.63519C71.4513 7.79983 71.369 7.88215 71.2044 8.0468Z" fill="#FFAB00"/>
<path d="M66.7591 19.6469L60.9967 16.0248L55.2342 19.6469C54.7403 19.9762 54.411 19.8938 54.3287 19.5646C54.2464 20.2231 54.5757 20.4701 55.2342 20.0585L60.9967 16.4364L66.7591 20.0585C67.4177 20.4701 67.8293 20.2231 67.6646 19.5646C67.5823 19.8938 67.253 19.8938 66.7591 19.6469Z" fill="#FFAB00"/>
<path d="M51.2005 7.79986L57.9508 7.30594L60.5027 0.967265C60.832 0.226381 61.3259 0.226381 61.5729 0.967265L64.1248 7.30594L70.8751 7.79986C71.2043 7.79986 71.4513 7.88218 71.5336 8.04682C71.6983 7.71754 71.4513 7.38826 70.8751 7.38826L64.1248 6.89434L61.5729 0.555663C61.2436 -0.185221 60.7496 -0.185221 60.5027 0.555663L57.9508 6.89434L51.2005 7.38826C50.5419 7.47058 50.3773 7.71754 50.5419 8.04682C50.6242 7.9645 50.7889 7.88218 51.2005 7.79986Z" fill="#FFAB00"/>
<path d="M56.0575 13.2272L55.9751 13.1448L54.411 19.4012C54.3287 19.6482 54.3287 19.8128 54.411 19.9774C54.411 19.8951 54.411 19.8951 54.411 19.8128L56.0575 13.2272Z" fill="#FFAB00"/>
<path d="M66.1006 13.1448L66.0183 13.2272L67.6647 19.8128C67.6647 19.8951 67.6647 19.8951 67.6647 19.9774C67.6647 19.8128 67.6647 19.6482 67.6647 19.4012L66.1006 13.1448Z" fill="#FFAB00"/>
<path d="M56.0574 12.1629L50.8712 7.79988C50.7889 7.71756 50.7066 7.63524 50.6243 7.55292C50.3773 7.71756 50.4596 8.04684 50.8712 8.45844L55.9751 12.7391L56.0574 12.1629Z" fill="#FFAB00"/>
<path d="M71.4513 7.55292C71.369 7.63524 71.2867 7.71756 71.2043 7.79988L66.0181 12.1629L66.1828 12.6568L71.2866 8.37612C71.6159 8.12916 71.6983 7.79988 71.4513 7.55292Z" fill="#FFAB00"/>
<path d="M66.759 19.4001L60.9966 15.778L55.2341 19.4001C54.8225 19.647 54.4932 19.647 54.3286 19.4001C54.164 20.2233 54.4932 20.4702 55.2341 20.0586L60.9966 16.4365L66.759 20.0586C67.4176 20.4702 67.8292 20.2233 67.6645 19.4001C67.5822 19.647 67.2529 19.647 66.759 19.4001Z" fill="#FFAB00"/>
<path d="M51.2005 8.04682L57.9508 7.5529L60.5027 1.21423C60.832 0.473343 61.3259 0.473343 61.5729 1.21423L64.1248 7.5529L70.8751 8.04682C71.122 8.04682 71.369 8.12915 71.4513 8.21147C71.7806 7.79986 71.5336 7.47058 70.8751 7.38826L64.1248 6.89434L61.5729 0.555663C61.2436 -0.185221 60.7496 -0.185221 60.5027 0.555663L57.9508 6.89434L51.2005 7.38826C50.5419 7.47058 50.2949 7.79986 50.6242 8.21147C50.7065 8.12915 50.8712 8.04682 51.2005 8.04682Z" fill="#FFAB00"/>
<path d="M56.0574 13.474L55.8927 13.3917L54.3286 19.4834C54.2463 19.7303 54.2463 19.9773 54.3286 20.1419L56.0574 13.474Z" fill="#FFAB00"/>
<path d="M66.1828 13.3094L66.0182 13.3917L67.6646 19.9773C67.7469 19.8127 67.7469 19.6481 67.6646 19.3188L66.1828 13.3094Z" fill="#FFAB00"/>
</svg>
