<?xml version="1.0" encoding="UTF-8"?>
<svg width="13px" height="13px" viewBox="0 0 13 13" version="1.1" xmlns="http://www.w3.org/2000/svg" xmlns:xlink="http://www.w3.org/1999/xlink">
    <g id="40,000" stroke="none" stroke-width="1" fill="none" fill-rule="evenodd">
        <g id="mini" transform="translate(-253.000000, -156.000000)" fill="#000000">
            <path d="M266,163.972656 C266,163.439826 265.590031,163.007812 265.084523,163.007812 L263.056102,163.007812 C262.550594,163.007812 262.140625,163.439826 262.140625,163.972656 C262.140625,164.505487 262.550594,164.9375 263.056102,164.9375 L265.084523,164.9375 C265.590031,164.9375 266,164.505487 266,163.972656 M266,160.316406 C266,159.783716 265.590164,159.351562 265.08439,159.351562 L263.056235,159.351562 C262.550594,159.351562 262.140625,159.783716 262.140625,160.316406 C262.140625,160.849237 262.550594,161.28125 263.056235,161.28125 L265.08439,161.28125 C265.590164,161.28125 266,160.849237 266,160.316406 M257.947367,163.712943 L257.947367,160.117286 C257.947367,158.861339 258.946642,157.839604 260.174819,157.839604 L265.10047,157.839604 C265.597231,157.839604 266,157.427729 266,156.919869 C266,156.411876 265.597231,156 265.10047,156 L260.174819,156 C257.954688,156 256.148438,157.846957 256.148438,160.117286 L256.148438,163.712943 C256.148438,164.220937 256.551206,164.632812 257.047968,164.632812 C257.544729,164.632812 257.947367,164.220937 257.947367,163.712943 M257.113348,168.289062 C256.014496,168.289062 254.981619,167.850216 254.204757,167.053361 C253.427895,166.256231 253,165.196588 253,164.069261 L253,160.294335 C253,159.773693 253.411468,159.351562 253.918959,159.351562 C254.42645,159.351562 254.837919,159.773693 254.837919,160.294335 L254.837919,164.069261 C254.837919,164.692935 255.07457,165.279068 255.504334,165.71997 C255.933966,166.160871 256.505427,166.403654 257.113348,166.403654 C258.367919,166.403654 259.388644,165.35648 259.388644,164.069261 L259.388644,160.294335 C259.388644,159.773693 259.800112,159.351562 260.307603,159.351562 C260.815094,159.351562 261.226562,159.773693 261.226562,160.294335 L261.226562,164.069261 C261.226562,166.396119 259.381299,168.289062 257.113348,168.289062" id="Fill-1-Copy"></path>
        </g>
    </g>
</svg>