<?xml version="1.0" encoding="utf-8"?>
<!-- Generator: Adobe Illustrator 25.2.3, SVG Export Plug-In . SVG Version: 6.00 Build 0)  -->
<svg version="1.1" id="Layer_1" xmlns="http://www.w3.org/2000/svg" xmlns:xlink="http://www.w3.org/1999/xlink" x="0px" y="0px"
	 viewBox="0 0 432 432" style="enable-background:new 0 0 432 432;" xml:space="preserve">
<desc>Created with Sketch.</desc>
<g id="_x34_0_x2C_000">
	<g id="loading-copy" transform="translate(-188.000000, -88.000000)">
		<g id="Combined-Shape">
			<path d="M404,520c-57.7,0-111.9-22.5-152.7-63.3c-40.8-40.8-63.3-95-63.3-152.7s22.5-111.9,63.3-152.7
				C292.1,110.5,346.3,88,404,88c57.7,0,111.9,22.5,152.7,63.3c40.8,40.8,63.3,95,63.3,152.7s-22.5,111.9-63.3,152.7
				C515.9,497.5,461.7,520,404,520z M404,96c-114.7,0-208,93.3-208,208c0,114.7,93.3,208,208,208s208-93.3,208-208
				C612,189.3,518.7,96,404,96z M352.1,438.8c-21.7,0-42.1-8.7-57.5-24.5c-15.3-15.8-23.8-36.8-23.8-59.1v-71.2
				c0-12,9.5-21.8,21.3-21.8s21.3,9.8,21.3,21.8v71.2c0,10.7,4,20.8,11.4,28.4c7.3,7.5,17,11.7,27.3,11.7c21.4,0,38.7-18,38.7-40
				v-71.2c0-12,9.5-21.8,21.3-21.8s21.3,9.8,21.3,21.8v71.2C433.3,401.3,396.9,438.8,352.1,438.8z M292.1,270.1
				c-7.3,0-13.3,6.2-13.3,13.8v71.2c0,20.2,7.6,39.2,21.5,53.5c13.8,14.3,32.2,22.1,51.8,22.1c40.4,0,73.2-33.9,73.2-75.6v-71.2
				c0-7.6-5.9-13.8-13.3-13.8s-13.3,6.2-13.3,13.8v71.2c0,26.5-21,48-46.7,48c-12.5,0-24.3-5-33.1-14.1
				c-8.8-9.1-13.6-21.1-13.6-33.9v-71.2C305.4,276.3,299.4,270.1,292.1,270.1z M502.8,375.1h-38.4c-11.8,0-21.3-10-21.3-22.3
				s9.6-22.3,21.3-22.3h38.4c11.8,0,21.3,10,21.3,22.3S514.6,375.1,502.8,375.1z M464.4,338.5c-7.4,0-13.3,6.4-13.3,14.3
				s6,14.3,13.3,14.3h38.4c7.4,0,13.3-6.4,13.3-14.3s-6-14.3-13.3-14.3H464.4z M350.8,370.4c-11.6,0-21-9.6-21-21.5v-68.3
				c0-45.3,36-82.2,80.2-82.2h93.2c11.6,0,21,9.6,21,21.5c0,11.8-9.4,21.5-21,21.5H410c-21,0-38.1,17.6-38.1,39.2v68.3
				C371.8,360.7,362.4,370.4,350.8,370.4z M410,206.5c-39.8,0-72.2,33.3-72.2,74.2v68.3c0,7.4,5.8,13.5,13,13.5c7.2,0,13-6,13-13.5
				v-68.3c0-26.1,20.7-47.2,46.1-47.2h93.2c7.2,0,13-6,13-13.5c0-7.4-5.8-13.5-13-13.5H410z M502.8,306.7h-38.4
				c-11.8,0-21.3-10-21.3-22.3s9.6-22.3,21.3-22.3h38.4c11.8,0,21.3,10,21.3,22.3S514.6,306.7,502.8,306.7z M464.4,270.1
				c-7.4,0-13.3,6.4-13.3,14.3s6,14.3,13.3,14.3h38.4c7.4,0,13.3-6.4,13.3-14.3s-6-14.3-13.3-14.3H464.4z"/>
		</g>
	</g>
</g>
</svg>
