<svg width="25" height="16" viewBox="0 0 25 16" fill="none" xmlns="http://www.w3.org/2000/svg">
<path d="M12.9258 2.56274H0.673857C0.301696 2.56274 0 2.86153 0 3.23011C0 3.59869 0.301696 3.89748 0.673857 3.89748H12.9258C13.298 3.89748 13.5997 3.59869 13.5997 3.23011C13.5997 2.86153 13.298 2.56274 12.9258 2.56274Z" fill="#1B1B1B"/>
<path d="M7.74336 7.11908L7.03887 9.54587L8.41109 9.89169L9.18909 7.11908L9.48313 6.11802L9.72817 5.29291L10.0222 4.29186L10.2673 3.46675L10.5613 2.4657L10.739 1.859H16.1176L15.6459 3.30901H17.5755L18.0166 1.859H23.1195L20.8284 9.87348L22.2006 10.2132L25.0002 0.5H9.68529L9.10945 2.45963L8.8154 3.46069L8.57649 4.29186L8.27632 5.29291L8.03128 6.11802L7.74336 7.11908ZM21.5758 10.7593L21.441 10.6379C21.1936 10.4842 20.9171 10.3822 20.6284 10.3384C20.3397 10.2946 20.045 10.3098 19.7625 10.3831C19.1906 10.5291 18.6763 10.842 18.2861 11.281C18.2081 11.3662 18.1344 11.4553 18.0656 11.548C17.666 12.0859 17.4512 12.7366 17.453 13.4045C17.4481 13.7172 17.5118 14.0273 17.6398 14.3133C17.7678 14.5993 17.957 14.8543 18.1943 15.0608L18.3535 15.176C18.6009 15.3298 18.8775 15.4317 19.1662 15.4756C19.4548 15.5194 19.7495 15.5042 20.032 15.4308C20.6011 15.2857 21.1132 14.9751 21.5023 14.539C22.0388 13.9586 22.3398 13.2024 22.3477 12.4155C22.3527 12.0933 22.285 11.7741 22.1493 11.4812C22.0136 11.1883 21.8135 10.9292 21.5635 10.7229L21.5758 10.7593ZM20.5711 13.5622L20.4364 13.726C20.24 13.9522 19.9797 14.1149 19.689 14.1932C19.6016 14.2185 19.5099 14.2262 19.4194 14.2158C19.3289 14.2054 19.2414 14.1771 19.1622 14.1325L19.1132 14.0961C19.0162 14.0067 18.9401 13.8974 18.8904 13.7758C18.8406 13.6543 18.8184 13.5233 18.8252 13.3923C18.827 12.9978 18.9581 12.6146 19.1989 12.3003L19.3337 12.1365C19.5301 11.9103 19.7904 11.7476 20.0811 11.6693C20.1694 11.6431 20.2622 11.635 20.3538 11.6454C20.4455 11.6558 20.534 11.6846 20.614 11.73L20.663 11.7664C20.76 11.8557 20.8361 11.9651 20.8858 12.0866C20.9355 12.2082 20.9578 12.3391 20.9509 12.4702C20.9448 12.8612 20.8116 13.2399 20.5711 13.5501V13.5622ZM8.99918 10.7471L8.83378 10.6319C8.58641 10.4781 8.30985 10.3762 8.02116 10.3323C7.73248 10.2885 7.43778 10.3037 7.15527 10.377C6.58341 10.5231 6.06905 10.8359 5.67891 11.275C5.59884 11.3601 5.52319 11.4492 5.45225 11.5419C5.05384 12.0781 4.83917 12.7266 4.83965 13.3923C4.83747 13.71 4.90606 14.0242 5.04054 14.3126C5.17501 14.601 5.37207 14.8564 5.61765 15.0608L5.77692 15.176C6.02429 15.3298 6.30085 15.4317 6.58954 15.4756C6.87823 15.5194 7.17292 15.5042 7.45544 15.4308C8.02655 15.2865 8.54082 14.9758 8.9318 14.539C9.01014 14.4519 9.08376 14.3608 9.15233 14.266C9.55113 13.7299 9.76584 13.0814 9.76493 12.4155C9.77001 12.0933 9.70222 11.7741 9.56654 11.4812C9.43086 11.1883 9.23073 10.9292 8.9808 10.7229L8.99918 10.7471ZM7.96389 13.5501L7.83525 13.7078C7.63862 13.9337 7.37839 14.0964 7.08788 14.175C6.99953 14.2012 6.90673 14.2093 6.8151 14.1989C6.72348 14.1885 6.63496 14.1597 6.55492 14.1143L6.50591 14.0779C6.40859 13.9888 6.33232 13.8795 6.28255 13.7579C6.23278 13.6362 6.21073 13.5052 6.21799 13.3741C6.21976 12.9796 6.3509 12.5964 6.59168 12.2821L6.72032 12.1183C6.91671 11.8921 7.17702 11.7294 7.46769 11.6511C7.55604 11.6249 7.64884 11.6168 7.74047 11.6272C7.83209 11.6376 7.92061 11.6664 8.00065 11.7118L8.04966 11.7482C8.14665 11.8375 8.22269 11.9469 8.27243 12.0684C8.32217 12.19 8.34441 12.3209 8.33758 12.452C8.33581 12.8465 8.20467 13.2297 7.96389 13.544V13.5501ZM10.0774 13.3499H16.7118L16.9997 12.5126H10.3837L10.0774 13.3499ZM10.5123 11.9059H17.1528L17.4898 11.1779H10.7818L10.5123 11.9059Z" fill="#1B1B1B"/>
<path d="M12.5767 4.60132H2.59746C2.25913 4.60132 1.98486 4.87295 1.98486 5.20802V5.22622C1.98486 5.56129 2.25913 5.83292 2.59746 5.83292H12.5767C12.915 5.83292 13.1893 5.56129 13.1893 5.22622V5.20802C13.1893 4.87295 12.915 4.60132 12.5767 4.60132Z" fill="#1B1B1B"/>
<path d="M4.28765 6.56689H12.1718C12.3342 6.56689 12.4901 6.63081 12.6049 6.74459C12.7198 6.85837 12.7844 7.01269 12.7844 7.17359C12.7844 7.3345 12.7198 7.48881 12.6049 7.60259C12.4901 7.71637 12.3342 7.78029 12.1718 7.78029H4.28765C4.12517 7.78029 3.96936 7.71637 3.85447 7.60259C3.73959 7.48881 3.67505 7.3345 3.67505 7.17359C3.67505 7.01269 3.73959 6.85837 3.85447 6.74459C3.96936 6.63081 4.12517 6.56689 4.28765 6.56689Z" fill="#1B1B1B"/>
</svg>
