<svg id="_x31__x2C_5" enable-background="new 0 0 24 24" height="512" viewBox="0 0 24 24" width="512" xmlns="http://www.w3.org/2000/svg"><g><path d="m21.25 23h-18.5c-1.517 0-2.75-1.233-2.75-2.75v-16.5c0-1.517 1.233-2.75 2.75-2.75h18.5c1.517 0 2.75 1.233 2.75 2.75v16.5c0 1.517-1.233 2.75-2.75 2.75zm-18.5-20.5c-.689 0-1.25.561-1.25 1.25v16.5c0 .689.561 1.25 1.25 1.25h18.5c.689 0 1.25-.561 1.25-1.25v-16.5c0-.689-.561-1.25-1.25-1.25z"/></g><g><path d="m23.25 6h-22.5c-.414 0-.75-.336-.75-.75s.336-.75.75-.75h22.5c.414 0 .75.336.75.75s-.336.75-.75.75z"/></g><g><path d="m15.532 20h-7.064c-.81 0-1.468-.658-1.468-1.467v-3.533h-1.25c-.313 0-.592-.193-.702-.485-.109-.292-.027-.622.207-.828l6.25-5.5c.283-.249.707-.25.99 0l6.261 5.5c.234.206.316.536.207.828-.11.292-.39.485-.702.485h-1.261v3.533c0 .809-.658 1.467-1.468 1.467zm-7.795-6.5h.013c.414 0 .75.336.75.75v4.283l7.032-.033-.032-4.25c0-.414.336-.75.75-.75h.021l-4.271-3.751z"/></g><g><path d="m15.75 12.647c-.414 0-.75-.336-.75-.75v-3.147c0-.414.336-.75.75-.75s.75.336.75.75v3.147c0 .414-.336.75-.75.75z"/></g></svg>