<?xml version="1.0" ?><!DOCTYPE svg  PUBLIC '-//W3C//DTD SVG 1.1//EN'  'http://www.w3.org/Graphics/SVG/1.1/DTD/svg11.dtd'><svg style="enable-background:new 0 0 512 512;" version="1.1" viewBox="0 0 512 512" xml:space="preserve" xmlns="http://www.w3.org/2000/svg" xmlns:xlink="http://www.w3.org/1999/xlink"><g><g id="_x32_0-Search"/><g id="_x31_9-Web_Page"/><g id="_x31_8-Wifi"/><g id="_x31_7-Hotspot"/><g id="_x31_6-Satelite"/><g id="_x31_5-Receiver"/><g id="_x31_4-Receiver"/><g id="_x31_3-Receiver"/><g id="_x31_2-Ethernet"/><g id="_x31_1-Code"/><g id="_x31_0-Homegroup"/><g id="_x30_9-Sharing_Option"/><g id="_x30_8-Data"/><g id="_x30_7-Connectivity"/><g id="_x30_6-Computer"><g><path d="M256,145.849c-44.196,0-80.151,35.956-80.151,80.151s35.956,80.151,80.151,80.151      s80.151-35.956,80.151-80.151S300.196,145.849,256,145.849z M308.563,213h-15.521c-1.41-11.824-4.742-23.21-9.838-33.793      C295.686,186.492,305.005,198.618,308.563,213z M245.22,213c1.659-10.469,5.31-20.434,10.78-29.438      c5.47,9.005,9.121,18.969,10.78,29.438H245.22z M266.78,239c-1.659,10.469-5.31,20.434-10.78,29.438      c-5.47-9.005-9.121-18.969-10.78-29.438H266.78z M228.796,179.207c-5.096,10.582-8.428,21.968-9.838,33.793h-15.521      C206.995,198.618,216.314,186.492,228.796,179.207z M203.437,239h15.521c1.41,11.824,4.742,23.21,9.838,33.793      C216.314,265.508,206.995,253.382,203.437,239z M283.204,272.793c5.096-10.582,8.428-21.968,9.838-33.793h15.521      C305.005,253.382,295.686,265.508,283.204,272.793z" style="fill:#2175AA;"/><path d="M398.905,96.168h-285.81c-22.684,0-41.139,18.455-41.139,41.139v177.387      c0,22.684,18.455,41.139,41.139,41.139h105.759l-9.859,49.865h-31.964c-7.18,0-13,5.82-13,13s5.82,13,13,13      c8.213,0,149.678,0,157.938,0c7.18,0,13-5.82,13-13s-5.82-13-13-13h-31.964l-9.859-49.865h105.759      c22.684,0,41.139-18.455,41.139-41.139V137.307C440.043,114.623,421.589,96.168,398.905,96.168z M276.501,405.697h-41.003      l9.859-49.865h21.284L276.501,405.697z M414.043,314.693c0,8.348-6.792,15.139-15.139,15.139c-8.051,0-269.626,0-285.809,0      c-8.348,0-15.139-6.791-15.139-15.139V137.307c0-8.348,6.791-15.139,15.139-15.139h285.81c8.348,0,15.139,6.791,15.139,15.139      V314.693z" style="fill:#2175AA;"/></g></g><g id="_x30_5-Laptop"/><g id="_x30_4-Mobile"/><g id="_x30_3-Network"/><g id="_x30_2-Click"/><g id="_x30_1-Website"/></g></svg>