<svg height="512pt" viewBox="-25 0 512 512" width="512pt" xmlns="http://www.w3.org/2000/svg"><path d="m66.804688 60c0-11.027344 8.972656-20 20-20h174.890624v71.109375c0 33.085937 26.914063 60 60 60h71v118.890625h40v-147.144531l-142.132812-142.855469h-203.757812c-33.082032 0-60 26.914062-60 60v230h40zm234.890624 51.109375v-43.210937l62.890626 63.210937h-42.890626c-11.027343 0-20-8.96875-20-20zm160.109376 345.390625c0 30.601562-24.894532 55.5-55.5 55.5h-89.5v-40h89.5c8.546874 0 15.5-6.953125 15.5-15.5s-6.953126-15.5-15.5-15.5h-34c-30.601563 0-55.5-24.898438-55.5-55.5s24.898437-55.5 55.5-55.5h68.5v40h-68.5c-8.546876 0-15.5 6.953125-15.5 15.5s6.953124 15.5 15.5 15.5h34c30.605468 0 55.5 24.898438 55.5 55.5zm-160 0c0 30.601562-24.894532 55.5-55.5 55.5h-89.5v-40h89.5c8.546874 0 15.5-6.953125 15.5-15.5s-6.953126-15.5-15.5-15.5h-34c-30.601563 0-55.5-24.898438-55.5-55.5s24.898437-55.5 55.5-55.5h68.5v40h-68.5c-8.546876 0-15.5 6.953125-15.5 15.5s6.953124 15.5 15.5 15.5h34c30.605468 0 55.5 24.898438 55.5 55.5zm-261.804688-35.5c0 28.121094 22.855469 51 50.945312 51 7.214844 0 14.183594-1.476562 20.710938-4.390625l16.296875 36.53125c-11.6875 5.214844-24.140625 7.859375-37.007813 7.859375-50.148437 0-90.945312-40.824219-90.945312-91 0-50.179688 40.796875-91 90.945312-91 12.867188 0 25.320313 2.644531 37.007813 7.859375l-16.296875 36.527344c-6.527344-2.910157-13.496094-4.390625-20.710938-4.390625-28.089843.003906-50.945312 22.882812-50.945312 51.003906zm0 0"/></svg>