<svg height="512pt" viewBox="0 0 512 512" width="512pt" xmlns="http://www.w3.org/2000/svg"><path d="m197.332031 192h-96c-20.585937 0-37.332031-16.746094-37.332031-37.332031v-53.335938c0-20.585937 16.746094-37.332031 37.332031-37.332031h96c20.589844 0 37.335938 16.746094 37.335938 37.332031v53.335938c0 20.585937-16.746094 37.332031-37.335938 37.332031zm-96-96c-2.941406 0-5.332031 2.390625-5.332031 5.332031v53.335938c0 2.941406 2.390625 5.332031 5.332031 5.332031h96c2.945313 0 5.335938-2.390625 5.335938-5.332031v-53.335938c0-2.941406-2.390625-5.332031-5.335938-5.332031zm0 0"/><path d="m410.667969 448h-96c-20.589844 0-37.335938-16.746094-37.335938-37.332031v-53.335938c0-20.585937 16.746094-37.332031 37.335938-37.332031h96c20.585937 0 37.332031 16.746094 37.332031 37.332031v53.335938c0 20.585937-16.746094 37.332031-37.332031 37.332031zm-96-96c-2.945313 0-5.335938 2.390625-5.335938 5.332031v53.335938c0 2.941406 2.390625 5.332031 5.335938 5.332031h96c2.941406 0 5.332031-2.390625 5.332031-5.332031v-53.335938c0-2.941406-2.390625-5.332031-5.332031-5.332031zm0 0"/><path d="m410.667969 277.332031h-96c-20.589844 0-37.335938-16.746093-37.335938-37.332031v-138.667969c0-20.585937 16.746094-37.332031 37.335938-37.332031h96c20.585937 0 37.332031 16.746094 37.332031 37.332031v138.667969c0 20.585938-16.746094 37.332031-37.332031 37.332031zm-96-181.332031c-2.945313 0-5.335938 2.390625-5.335938 5.332031v138.667969c0 2.945312 2.390625 5.332031 5.335938 5.332031h96c2.941406 0 5.332031-2.386719 5.332031-5.332031v-138.667969c0-2.941406-2.390625-5.332031-5.332031-5.332031zm0 0"/><path d="m197.332031 448h-96c-20.585937 0-37.332031-16.746094-37.332031-37.332031v-138.667969c0-20.585938 16.746094-37.332031 37.332031-37.332031h96c20.589844 0 37.335938 16.746093 37.335938 37.332031v138.667969c0 20.585937-16.746094 37.332031-37.335938 37.332031zm-96-181.332031c-2.941406 0-5.332031 2.386719-5.332031 5.332031v138.667969c0 2.941406 2.390625 5.332031 5.332031 5.332031h96c2.945313 0 5.335938-2.390625 5.335938-5.332031v-138.667969c0-2.945312-2.390625-5.332031-5.335938-5.332031zm0 0"/><path d="m453.332031 512h-394.664062c-32.363281 0-58.667969-26.304688-58.667969-58.667969v-394.664062c0-32.363281 26.304688-58.667969 58.667969-58.667969h394.664062c32.363281 0 58.667969 26.304688 58.667969 58.667969v394.664062c0 32.363281-26.304688 58.667969-58.667969 58.667969zm-394.664062-480c-14.699219 0-26.667969 11.96875-26.667969 26.667969v394.664062c0 14.699219 11.96875 26.667969 26.667969 26.667969h394.664062c14.699219 0 26.667969-11.96875 26.667969-26.667969v-394.664062c0-14.699219-11.96875-26.667969-26.667969-26.667969zm0 0"/></svg>