<svg width="870" height="381" viewBox="0 0 870 381" fill="none"
    xmlns="http://www.w3.org/2000/svg">
    <path d="M224.996 307.24C223.136 308.14 221.816 309.4 220.556 310.78C215.336 316.06 211.136 322.12 207.416 328.54C204.656 333.34 202.076 338.2 200.696 343.6C200.336 345.04 200.276 346.54 200.216 348.04C200.156 349.18 200.456 350.26 201.656 351.04C202.616 351.1 203.576 350.74 204.476 350.32L215.156 345.4C215.936 345.04 216.656 344.62 217.436 344.38C217.796 344.32 218.636 344.5 218.636 344.68C218.756 345.16 218.696 345.76 218.456 346.18C218.216 346.66 217.736 347.08 217.256 347.32C213.596 349.36 209.936 351.46 206.216 353.38C204.236 354.4 202.016 354.4 199.856 354.22C195.536 353.86 192.956 350.62 193.616 346.3C194.156 342.28 195.716 338.56 197.456 334.96C201.536 326.56 206.396 318.7 213.056 312.16C215.036 310.24 217.076 308.5 219.296 306.94C220.616 305.98 222.236 305.26 223.856 304.9C226.856 304.18 229.196 305.68 230.156 308.62C230.696 310.42 230.636 312.16 230.156 313.9C228.776 318.34 226.556 322.3 223.796 325.96C222.596 327.58 222.056 327.64 219.716 326.86C220.016 326.2 220.256 325.54 220.556 324.94L225.656 315.58C226.496 313.96 226.676 312.16 226.496 310.36C226.436 309.22 226.196 308.14 224.996 307.24ZM243.134 334.84C244.214 334.42 245.054 334.18 245.894 333.82C250.574 331.78 250.214 332.86 254.294 329.8C254.894 329.32 255.734 329.02 256.454 328.66C257.354 329.5 257.294 330.34 256.634 331C255.794 331.96 254.834 332.86 253.754 333.58C248.954 336.88 248.894 336.58 243.134 338.26C243.014 339.4 242.954 340.6 242.654 341.8C241.874 345.28 240.374 348.52 238.334 351.46C236.594 353.98 234.134 355.06 231.074 354.64C227.954 354.28 225.674 352.36 225.254 349.18C225.074 347.62 225.074 346 225.434 344.5C225.974 341.92 226.694 339.4 227.654 337C229.154 333.22 231.614 330.22 235.154 328.18C236.474 327.46 237.854 326.92 239.414 326.92C241.694 326.98 242.894 327.88 243.194 330.16C243.314 331.18 243.074 332.2 243.074 333.22C243.014 333.7 243.134 334.12 243.134 334.84ZM232.454 351.1C233.054 350.38 233.714 349.84 234.134 349.18C235.394 346.9 236.594 344.56 237.674 342.22C238.574 340.24 239.174 338.2 237.974 336.16C240.254 333.94 240.554 332.56 239.234 329.86C237.854 330.76 236.894 332.02 236.054 333.28C233.354 337.36 232.034 341.92 231.254 346.6C231.014 348.1 231.374 349.54 232.454 351.1ZM255.811 337.12C256.711 336.46 257.551 335.8 258.511 335.2C261.331 333.34 264.091 331.48 266.971 329.68C268.291 328.9 269.851 328.42 271.471 328.36C274.711 328.36 276.331 330.04 276.031 333.28C275.911 334.9 275.611 336.46 275.431 338.02C275.371 338.44 275.431 338.92 275.431 339.4C276.571 339.94 277.291 339.16 278.011 338.74C284.011 335.32 289.951 331.78 295.951 328.3C296.671 327.88 297.391 327.4 298.111 327.1C298.591 326.92 299.251 326.92 299.731 327.04C300.451 327.16 300.751 328.06 300.331 328.54C299.911 329.14 299.371 329.68 298.771 330.1C294.571 333.1 290.431 336.1 286.171 338.98C284.071 340.36 281.791 341.56 279.571 342.64C277.471 343.6 275.251 343.96 272.971 343.48C270.511 343 269.611 341.92 269.851 339.4C269.971 337.72 270.391 336.1 270.691 334.42L271.111 330.7C270.091 331.18 269.431 331.36 268.831 331.72C263.671 335.26 258.571 338.92 254.131 343.36C253.711 343.72 253.351 344.14 252.931 344.5C251.851 345.46 250.531 345.58 249.211 345.28C247.711 344.98 247.171 344.08 247.771 342.64C249.211 339.46 250.711 336.34 252.271 333.28C253.171 331.54 254.251 329.92 255.331 328.24C255.631 327.7 256.111 327.22 256.651 326.86C257.551 326.32 258.691 327.04 258.511 328.06C258.271 329.26 257.911 330.46 257.491 331.54C256.831 333.28 256.111 335.02 255.391 336.7C255.511 336.88 255.691 337 255.811 337.12ZM307.835 334.36C305.975 335.44 304.535 336.28 303.095 337.06C300.995 338.2 298.775 338.8 296.375 338.5C295.535 338.38 294.695 338.2 293.975 337.84C292.535 337.12 291.995 335.8 292.415 334.3C292.595 333.64 292.895 333.04 293.195 332.5C294.755 329.98 296.735 327.88 299.315 326.44C300.815 325.6 302.435 325.18 304.175 325.3C305.915 325.48 306.875 326.62 306.575 328.36C306.395 329.62 305.915 330.82 305.435 332.38C308.855 330.04 311.735 327.52 314.375 324.76C314.915 324.22 315.395 323.62 315.995 323.2C316.895 322.54 318.155 322.6 318.875 323.26C319.595 323.92 319.355 324.82 318.995 325.54C317.735 328.36 316.475 331.18 315.155 334C314.615 335.14 313.955 336.28 313.175 337.84C313.955 337.6 314.435 337.48 314.855 337.24C319.655 334.96 324.395 332.56 329.255 330.28C330.155 329.8 331.175 329.14 332.495 329.74C332.135 330.94 331.055 331.18 330.215 331.6C325.475 334.12 320.795 336.64 316.055 339.04C312.635 340.72 310.235 343 308.495 346.48C305.375 352.54 301.775 358.36 298.235 364.18C295.835 368.2 292.955 371.92 289.595 375.16C288.155 376.48 286.595 377.74 284.975 378.82C282.995 380.08 280.775 380.38 278.495 379.96C276.275 379.6 275.195 378.28 275.375 376.06C275.495 374.62 275.855 373.06 276.455 371.74C277.475 369.46 278.615 367.18 280.055 365.14C284.735 358.24 290.675 352.54 297.455 347.86C301.055 345.4 303.875 342.52 305.675 338.62C306.215 337.54 306.935 336.52 307.535 335.5C307.595 335.32 307.595 335.14 307.835 334.36ZM303.995 333.28C303.575 331.9 303.575 331.9 304.055 330.46C304.475 329.26 305.075 328.06 304.175 326.86C301.715 327.16 299.375 328.96 297.755 331.66C296.915 333.04 296.315 334.48 297.155 336.04C299.555 335.98 300.935 335.38 303.995 333.28ZM280.355 377.26C281.255 376.66 281.915 376.36 282.395 375.88C283.715 374.44 285.095 373 286.235 371.44C290.855 365.2 294.515 358.36 298.355 351.64C298.415 351.52 298.295 351.34 298.175 350.98C292.775 355.6 287.855 360.52 284.135 366.52C282.875 368.56 281.855 370.78 280.895 373C280.355 374.14 279.875 375.4 280.355 377.26ZM334.565 333.76C330.905 333.46 326.705 333.88 325.205 332.38C323.165 331.12 322.865 329.32 323.525 327.28C323.885 326.32 324.185 325.3 324.665 324.4C326.585 320.5 329.165 317.08 332.285 314.08C333.125 313.24 334.085 312.4 335.165 311.92C336.245 311.38 337.445 311.02 338.585 310.96C341.345 310.84 342.605 312.46 341.825 315.1C341.525 316.24 340.925 317.38 340.325 318.4C337.745 322.48 335.105 326.56 332.405 330.82C332.765 330.88 333.245 331 333.725 331.06C335.105 331.12 336.545 331 337.925 331.24C340.385 331.72 341.225 333.16 340.325 335.5C339.845 336.82 339.125 338.08 338.525 339.34C338.045 340.42 337.505 341.5 337.085 342.64C336.785 343.42 336.605 344.26 336.305 345.46C337.265 345.04 337.925 344.86 338.465 344.5C342.545 341.98 349.685 337.24 353.705 334.66L359.465 331.12C360.065 330.76 360.785 330.34 361.505 331.06C361.625 331.96 360.905 332.38 360.365 332.8C358.865 333.94 357.365 335.02 355.925 336.22C352.865 338.74 349.865 341.2 343.685 345.94C341.525 347.8 339.365 349.48 336.485 350.02C334.565 350.44 332.585 350.5 330.725 349.72C328.865 348.94 328.265 347.68 328.625 345.64C329.225 342.76 330.665 340.24 332.165 337.78L334.565 333.76ZM328.985 329.14C331.865 326.56 334.445 323.74 336.485 320.5C337.265 319.24 337.865 317.86 338.465 316.54C338.945 315.46 339.125 314.38 338.765 313.24C336.425 314.08 334.505 316 331.745 320.5C330.125 323.14 328.565 325.78 328.985 329.14ZM371.698 336.34C372.898 335.74 373.258 334.9 373.738 334.24C374.758 332.74 375.718 331.18 376.858 329.86C378.178 328.24 379.858 328.3 381.598 329.86C381.178 330.7 380.758 331.66 380.278 332.62C378.478 336.04 376.678 339.58 375.658 343.3C375.298 344.5 374.998 345.64 375.238 347.14C375.778 346.84 376.198 346.78 376.558 346.54C376.978 346.3 377.398 346 377.758 345.64C384.718 339.82 390.358 335.32 397.318 329.44C397.978 328.96 398.578 328.48 399.658 327.64C399.478 328.54 399.478 328.96 399.298 329.14C398.698 329.92 398.038 330.64 397.318 331.36C395.278 333.34 394.498 333.82 392.458 335.86C390.358 337.96 388.318 340.18 386.278 342.4C384.238 344.56 382.018 346.66 379.558 348.4C377.878 349.54 376.078 350.08 374.038 350.02C371.278 349.84 369.718 348.46 369.598 345.64C369.538 345.22 369.598 344.86 369.598 344.08C368.818 344.86 368.458 345.34 367.978 345.76C366.418 347.2 364.858 348.7 363.178 349.96C360.598 351.82 357.598 352.54 354.358 351.88C351.478 351.34 350.277 349.84 350.637 346.96C350.697 345.94 350.938 344.86 351.358 343.9C353.398 339.04 356.218 334.72 359.998 331.06C362.158 329.02 364.558 327.58 367.438 327.04C368.458 326.86 369.598 326.86 370.558 327.04C372.358 327.34 373.318 328.42 373.318 330.28C373.258 331.48 372.898 332.68 372.658 333.82C372.478 334.6 372.118 335.32 371.698 336.34ZM357.298 348.64C357.898 348.4 358.378 348.16 358.918 347.92C364.858 344.56 368.518 339.4 370.438 332.86C370.618 332.02 370.678 331.12 370.618 330.28C370.558 329.5 370.258 328.84 369.358 328.54C367.918 328.9 366.538 329.62 365.458 330.76C361.258 335.02 358.318 340 356.938 345.76C356.698 346.66 356.578 347.56 357.298 348.64ZM395.882 346.24C396.602 345.88 397.322 345.7 397.862 345.28C399.602 343.9 401.402 342.52 403.022 340.96C406.982 337.18 410.882 333.22 414.782 329.38C415.322 328.84 415.922 328.36 416.522 327.94C416.702 327.82 417.242 328.06 417.482 328.24C417.662 328.36 417.722 328.84 417.602 329.02C417.302 329.56 416.882 330.1 416.462 330.64C412.442 335.38 408.422 340.18 404.282 344.86C403.022 346.24 401.522 347.38 399.962 348.46C398.102 349.72 395.942 349.96 393.782 349.66C391.622 349.36 390.482 348.22 390.122 346.06C389.762 343.9 390.062 341.74 390.662 339.7C392.102 334.72 394.322 330.1 396.662 325.54L397.922 322.9C395.162 322.66 392.642 324.94 390.242 322.84C390.422 321.46 391.442 321.22 392.282 320.92C394.142 320.38 396.002 319.78 397.922 319.48C399.662 319.24 400.742 318.4 401.582 316.9C403.262 314.08 405.062 311.32 406.862 308.62C407.462 307.66 408.182 306.82 408.962 305.98C409.862 305.02 410.162 305.08 412.022 305.5C412.322 306.58 411.602 307.42 411.182 308.32C409.982 310.6 408.662 312.94 407.462 315.22C407.102 315.88 406.802 316.54 406.502 317.26C407.702 317.98 409.442 316.84 410.342 318.46C409.622 319.66 408.422 319.78 407.402 319.96C405.362 320.26 404.102 321.28 403.202 323.2C401.222 327.58 399.062 331.96 397.022 336.34C396.002 338.56 395.342 340.9 395.282 343.42C395.282 344.32 395.222 345.22 395.882 346.24ZM430.594 347.08C432.034 345.88 432.934 345.1 433.834 344.32C439.894 338.98 441.994 337.72 447.994 332.44C448.894 331.6 449.854 330.82 450.814 330.1C451.294 329.8 451.954 329.68 452.554 329.5C452.974 330.58 452.254 331.06 451.834 331.6C450.094 333.46 448.354 335.26 446.674 337.12C442.834 341.14 443.014 341.08 439.114 344.98C437.554 346.6 435.814 348.04 434.014 349.42C432.334 350.68 430.354 351.1 428.194 350.68C426.394 350.32 425.374 349.3 425.074 347.56C424.594 345.16 424.534 342.76 425.074 340.3C425.254 339.64 425.374 338.92 425.614 337.78C424.774 338.32 424.234 338.62 423.754 338.98C422.134 340.24 420.574 341.56 418.894 342.7C416.734 344.2 414.274 344.68 411.694 344.38C408.934 344.02 407.734 342.52 408.094 339.76C408.154 339.1 408.394 338.5 408.574 337.9C409.894 334.3 411.814 331.12 414.394 328.36C415.114 327.64 416.014 327.16 416.974 326.74C417.454 326.56 418.174 326.8 418.714 326.86C419.314 328.18 418.474 329.02 418.054 329.86C416.854 332.5 415.594 335.14 414.454 337.78C414.034 338.8 413.614 339.88 414.094 341.14C415.294 341.14 416.254 340.54 417.154 339.88C419.554 338.14 421.894 336.28 424.234 334.42C425.854 333.16 427.414 331.78 428.914 330.4C429.994 329.5 431.194 329.08 432.574 329.38C433.954 329.68 434.494 330.4 434.194 331.78C434.014 332.8 433.714 333.76 433.354 334.72C432.634 336.88 431.854 338.98 431.134 341.08C430.534 342.76 430.594 344.56 430.594 347.08ZM451.669 346.42C453.289 346.42 454.609 345.7 455.809 344.92C458.149 343.3 464.269 337.78 466.429 336.04C468.649 334.3 470.629 332.32 472.729 330.46C473.509 329.86 474.229 329.02 475.669 329.56C475.309 330.22 475.129 330.88 474.709 331.24C471.169 334.84 463.849 342.4 460.129 345.82C457.249 348.52 453.649 349.84 449.629 349.6C446.209 349.36 444.469 347.68 444.289 344.32C444.169 342.28 444.529 340.24 445.189 338.26C446.809 332.98 449.389 328.12 452.329 323.44C455.329 318.7 458.629 314.2 462.229 309.88C465.109 306.52 468.229 303.46 471.709 300.76C473.569 299.32 475.549 298.12 477.889 297.64C482.209 296.86 484.249 298.84 483.409 303.1C483.169 304.36 482.689 305.68 481.969 306.7C477.109 314.26 470.389 319.54 461.929 322.54C460.129 323.14 458.929 324.04 457.969 325.72C455.629 329.86 453.349 334 451.849 338.56C451.429 339.88 451.189 341.26 450.889 342.64C450.649 343.96 450.949 345.22 451.669 346.42ZM461.929 319.96C467.329 317.86 474.709 312.22 477.709 308.14C478.909 306.52 479.749 304.78 480.049 302.8C480.169 301.84 480.409 300.76 479.629 299.92C475.369 301.54 466.849 311.14 461.929 319.96ZM483.963 336.34C485.163 335.74 485.523 334.9 486.003 334.24C487.023 332.74 487.983 331.18 489.123 329.86C490.443 328.24 492.123 328.3 493.863 329.86C493.443 330.7 493.023 331.66 492.543 332.62C490.743 336.04 488.943 339.58 487.923 343.3C487.563 344.5 487.263 345.64 487.503 347.14C488.043 346.84 488.463 346.78 488.823 346.54C489.243 346.3 489.663 346 490.023 345.64C496.983 339.82 502.623 335.32 509.583 329.44C510.243 328.96 510.843 328.48 511.923 327.64C511.743 328.54 511.743 328.96 511.563 329.14C510.963 329.92 510.303 330.64 509.583 331.36C507.543 333.34 506.763 333.82 504.723 335.86C502.623 337.96 500.583 340.18 498.543 342.4C496.503 344.56 494.283 346.66 491.823 348.4C490.143 349.54 488.343 350.08 486.303 350.02C483.543 349.84 481.983 348.46 481.863 345.64C481.803 345.22 481.863 344.86 481.863 344.08C481.083 344.86 480.723 345.34 480.243 345.76C478.683 347.2 477.123 348.7 475.443 349.96C472.863 351.82 469.863 352.54 466.623 351.88C463.743 351.34 462.543 349.84 462.903 346.96C462.963 345.94 463.203 344.86 463.623 343.9C465.663 339.04 468.483 334.72 472.263 331.06C474.423 329.02 476.823 327.58 479.703 327.04C480.723 326.86 481.863 326.86 482.823 327.04C484.623 327.34 485.583 328.42 485.583 330.28C485.523 331.48 485.163 332.68 484.923 333.82C484.743 334.6 484.383 335.32 483.963 336.34ZM469.563 348.64C470.163 348.4 470.643 348.16 471.183 347.92C477.123 344.56 480.783 339.4 482.703 332.86C482.883 332.02 482.943 331.12 482.883 330.28C482.823 329.5 482.523 328.84 481.623 328.54C480.183 328.9 478.803 329.62 477.723 330.76C473.523 335.02 470.583 340 469.203 345.76C468.963 346.66 468.843 347.56 469.563 348.64ZM508.148 346.24C508.868 345.88 509.588 345.7 510.128 345.28C511.868 343.9 513.668 342.52 515.288 340.96C519.248 337.18 523.148 333.22 527.048 329.38C527.588 328.84 528.188 328.36 528.788 327.94C528.968 327.82 529.508 328.06 529.748 328.24C529.928 328.36 529.988 328.84 529.868 329.02C529.568 329.56 529.148 330.1 528.728 330.64C524.708 335.38 520.688 340.18 516.548 344.86C515.288 346.24 513.788 347.38 512.228 348.46C510.368 349.72 508.208 349.96 506.048 349.66C503.888 349.36 502.748 348.22 502.388 346.06C502.028 343.9 502.328 341.74 502.928 339.7C504.368 334.72 506.588 330.1 508.928 325.54L510.188 322.9C507.428 322.66 504.908 324.94 502.508 322.84C502.688 321.46 503.708 321.22 504.548 320.92C506.408 320.38 508.268 319.78 510.188 319.48C511.928 319.24 513.008 318.4 513.848 316.9C515.528 314.08 517.328 311.32 519.128 308.62C519.728 307.66 520.448 306.82 521.228 305.98C522.128 305.02 522.428 305.08 524.288 305.5C524.588 306.58 523.868 307.42 523.448 308.32C522.248 310.6 520.928 312.94 519.728 315.22C519.368 315.88 519.068 316.54 518.768 317.26C519.968 317.98 521.708 316.84 522.608 318.46C521.888 319.66 520.688 319.78 519.668 319.96C517.628 320.26 516.368 321.28 515.468 323.2C513.488 327.58 511.328 331.96 509.288 336.34C508.268 338.56 507.608 340.9 507.548 343.42C507.548 344.32 507.488 345.22 508.148 346.24ZM536.612 312.28L534.992 314.5C533.912 316 532.832 317.44 531.692 318.94C531.572 319.18 531.452 319.48 531.212 319.6C530.792 319.84 530.192 320.26 529.772 320.08C529.472 319.96 529.232 319.24 529.112 318.76C529.052 318.46 529.232 318.04 529.412 317.74C530.372 316.12 531.272 314.5 532.352 313.06C533.312 311.86 534.572 311.44 536.612 312.28ZM525.452 345.52C527.312 344.56 528.632 343.54 529.892 342.4C535.532 337.42 536.732 337.66 542.372 332.62C543.452 331.66 544.472 330.76 545.552 329.86C545.972 329.5 546.452 329.38 547.412 328.9C547.112 329.86 547.052 330.4 546.752 330.76C545.792 332.02 544.652 333.16 543.632 334.3C540.692 337.6 543.092 335.08 540.092 338.32C537.872 340.72 534.812 343.66 532.412 345.88C531.152 347.02 529.532 347.92 527.972 348.76C526.352 349.66 524.552 349.6 522.812 349.36C520.532 349 519.332 347.68 519.392 345.28C519.452 343.84 519.692 342.34 519.992 340.9C520.892 336.7 522.812 332.98 525.152 329.44C525.692 328.72 526.352 328 527.132 327.52C527.792 326.98 528.692 326.86 529.472 327.46C530.312 328 529.892 328.78 529.652 329.5C528.872 331.66 527.912 333.82 527.252 336.04C526.532 338.62 525.992 341.32 525.332 343.96C525.272 344.26 525.392 344.68 525.452 345.52ZM555.791 334.84C556.871 334.42 557.711 334.18 558.551 333.82C563.231 331.78 562.871 332.86 566.951 329.8C567.551 329.32 568.391 329.02 569.111 328.66C570.011 329.5 569.951 330.34 569.291 331C568.451 331.96 567.491 332.86 566.411 333.58C561.611 336.88 561.551 336.58 555.791 338.26C555.671 339.4 555.611 340.6 555.311 341.8C554.531 345.28 553.031 348.52 550.991 351.46C549.251 353.98 546.791 355.06 543.731 354.64C540.611 354.28 538.331 352.36 537.911 349.18C537.731 347.62 537.731 346 538.091 344.5C538.631 341.92 539.351 339.4 540.311 337C541.811 333.22 544.271 330.22 547.811 328.18C549.131 327.46 550.511 326.92 552.071 326.92C554.351 326.98 555.551 327.88 555.851 330.16C555.971 331.18 555.731 332.2 555.731 333.22C555.671 333.7 555.791 334.12 555.791 334.84ZM545.111 351.1C545.711 350.38 546.371 349.84 546.791 349.18C548.051 346.9 549.251 344.56 550.331 342.22C551.231 340.24 551.831 338.2 550.631 336.16C552.911 333.94 553.211 332.56 551.891 329.86C550.511 330.76 549.551 332.02 548.711 333.28C546.011 337.36 544.691 341.92 543.911 346.6C543.671 348.1 544.031 349.54 545.111 351.1ZM568.468 337.12C569.368 336.46 570.208 335.8 571.168 335.2C573.988 333.34 576.748 331.48 579.628 329.68C580.948 328.9 582.508 328.42 584.128 328.36C587.368 328.36 588.988 330.04 588.688 333.28C588.568 334.9 588.268 336.46 588.088 338.02C588.027 338.44 588.088 338.92 588.088 339.4C589.228 339.94 589.948 339.16 590.668 338.74C596.668 335.32 602.608 331.78 608.608 328.3C609.328 327.88 610.048 327.4 610.768 327.1C611.248 326.92 611.908 326.92 612.388 327.04C613.108 327.16 613.408 328.06 612.988 328.54C612.568 329.14 612.028 329.68 611.428 330.1C607.228 333.1 603.088 336.1 598.828 338.98C596.728 340.36 594.448 341.56 592.228 342.64C590.128 343.6 587.908 343.96 585.628 343.48C583.168 343 582.268 341.92 582.508 339.4C582.628 337.72 583.048 336.1 583.348 334.42L583.768 330.7C582.748 331.18 582.088 331.36 581.488 331.72C576.328 335.26 571.228 338.92 566.788 343.36C566.368 343.72 566.007 344.14 565.588 344.5C564.508 345.46 563.188 345.58 561.868 345.28C560.368 344.98 559.828 344.08 560.428 342.64C561.868 339.46 563.368 336.34 564.928 333.28C565.828 331.54 566.908 329.92 567.988 328.24C568.288 327.7 568.768 327.22 569.308 326.86C570.208 326.32 571.348 327.04 571.168 328.06C570.928 329.26 570.568 330.46 570.148 331.54C569.488 333.28 568.768 335.02 568.048 336.7C568.168 336.88 568.348 337 568.468 337.12ZM632.714 328C632.474 329.56 631.574 330.28 630.734 330.94C628.454 332.86 626.174 334.78 623.834 336.64C620.654 339.22 617.414 341.8 614.114 344.26C612.674 345.4 612.014 346.6 612.134 348.52C612.494 354.52 611.294 360.22 608.894 365.68C607.874 367.96 606.734 370.06 605.114 371.92C603.434 373.78 601.514 375.16 598.994 375.64C598.394 375.76 597.734 375.88 597.074 375.88C594.134 375.88 592.634 374.38 592.394 371.44C592.214 368.92 592.634 366.4 593.354 364C594.374 360.82 596.054 358 598.094 355.48C599.774 353.32 601.514 351.22 603.494 349.42C605.054 347.98 605.594 346.48 605.474 344.5C605.294 342.28 605.354 340 605.474 337.78C605.594 333.16 607.334 329.26 610.694 326.08C611.534 325.24 612.614 324.58 613.634 324.04C614.474 323.56 615.434 323.38 616.514 324.1C613.994 327.16 611.834 330.34 611.414 334.42C611.174 336.94 611.474 339.4 611.894 342.1C613.634 341.44 614.894 340.36 616.274 339.46C617.654 338.56 619.034 337.6 620.414 336.64L624.374 333.94C625.754 332.92 627.074 331.9 628.454 330.94C629.774 330.04 630.794 328.6 632.714 328ZM604.994 353.5C602.054 356.14 599.894 359.38 598.334 362.98C597.314 365.38 596.534 367.84 596.414 370.54C596.414 371.5 596.294 372.58 597.074 373.54C598.994 373.06 599.894 371.68 600.614 370.18C603.194 364.96 604.754 359.44 604.994 353.5ZM633.208 334.48C633.448 333.34 633.628 331.66 634.108 330.1C636.568 322.12 639.808 314.5 643.348 307C643.948 305.8 644.728 304.72 645.448 303.7C645.988 302.86 646.828 302.5 647.848 302.44C650.188 302.26 650.968 303.1 650.248 305.44C648.208 311.68 646.048 317.98 643.888 324.22C643.048 326.8 642.148 329.32 641.308 331.9C640.588 334.24 639.568 336.46 638.068 338.38C637.708 338.92 637.288 339.46 636.748 339.76C635.368 340.6 633.868 339.94 633.508 338.38C633.448 338.08 633.448 337.78 633.448 337.54C633.328 336.7 633.328 335.86 633.208 334.48ZM625.648 351.7C625.588 348.88 627.388 346.36 629.728 346.06C630.628 345.94 631.588 346.18 632.428 346.42C633.268 346.6 633.628 347.32 633.448 348.16C633.088 350.2 632.488 352.12 630.868 353.62L630.688 353.8C629.728 354.64 628.648 355.06 627.328 354.58C625.948 354.1 625.948 352.78 625.648 351.7Z" fill="#E2498A"/>
    <g clip-path="url(#clip0)">
        <path d="M557.511 150.461C557.511 150.558 557.511 150.656 557.511 150.753C557.511 152.453 558.581 153.521 559.359 154.881C559.943 155.901 560.478 156.922 560.964 157.99C561.84 159.836 562.521 161.73 562.862 163.77C563.689 168.239 563.591 173.242 561.11 177.176C559.456 179.799 556.878 182.374 554.349 184.171C553.473 184.802 553.23 186.017 553.862 186.94C557.511 192.234 567.24 209.72 549.873 225.992C549.435 226.381 549.241 226.964 549.241 227.547C549.241 228.13 549.533 228.664 549.97 229.004C554.884 232.89 566.413 244.887 550.554 262.714C548.219 265.337 544.863 266.842 541.36 266.842H417.362C410.795 266.842 405.395 261.694 405.103 255.136L399.898 130.449C399.509 121.755 403.255 113.351 409.919 107.766C426.313 94.0194 456.571 67.0614 462.311 50.6922C470.289 28.0086 488.288 -3.02955 502.395 21.4998C515.918 44.9606 511.589 79.8846 494.514 95.768C494.174 96.108 494.028 96.6423 494.222 97.0795C494.417 97.5167 494.806 97.9052 495.293 97.9052H529.637C529.637 97.9052 533.334 97.9053 538.393 98.731C538.782 98.7796 539.122 98.8767 539.512 98.8767C550.311 100.82 566.17 106.114 567.483 120.346C567.58 122.095 567.532 123.843 567.532 125.495C567.532 125.689 567.483 125.883 567.483 126.078V126.126C566.996 134.044 563.251 139.97 559.067 146.381C558.338 147.498 557.608 148.907 557.511 150.461Z" fill="#AA6EFF"/>
        <path opacity="0.5" d="M538.149 159.544C538.149 159.642 538.149 159.739 538.149 159.836C538.149 161.39 539.025 162.313 539.657 163.576C540.095 164.499 540.581 165.422 540.971 166.345C541.7 167.996 542.235 169.696 542.527 171.493C543.208 175.525 543.16 179.945 541.068 183.54C539.706 185.871 537.565 188.203 535.474 189.805C534.744 190.388 534.549 191.457 535.084 192.283C538.1 197.043 546.127 212.683 531.776 227.304C531.436 227.644 531.241 228.178 531.241 228.664C531.241 229.198 531.485 229.684 531.874 229.975C535.96 233.473 545.397 244.207 532.312 260.188C530.366 262.519 527.642 263.879 524.723 263.879H422.567C417.118 263.879 412.692 259.265 412.448 253.339L408.168 141.524C407.876 133.704 410.94 126.175 416.437 121.172C429.961 108.834 454.916 84.6448 459.683 69.9758C466.251 49.6236 481.088 21.7913 492.763 43.7949C503.902 64.827 497.287 87.4621 483.228 101.645C482.936 101.937 477.39 113.303 486.049 111.554C486.487 111.457 486.536 112.283 486.925 112.283H515.237C515.237 112.283 518.302 112.331 522.485 113.109C522.777 113.157 523.118 113.254 523.409 113.254C532.312 114.712 545.397 119.666 546.468 132.441C546.516 133.995 546.37 135.549 546.37 137.007C546.37 137.152 546.176 137.347 546.176 137.492C545.689 144.584 542.819 149.927 539.365 155.659C538.684 156.922 538.246 158.184 538.149 159.544Z" fill="url(#paint0_linear)"/>
        <path d="M390.509 116.654C390.509 112.914 387.493 109.903 383.748 109.903H331.113C327.367 109.903 324.351 112.914 324.351 116.654V260.042C324.351 263.782 327.367 266.794 331.113 266.794H383.748C387.493 266.794 390.509 263.782 390.509 260.042V116.654Z" fill="#AA6EFF"/>
        <path opacity="0.5" d="M384.185 132.926C384.185 129.623 381.899 126.903 378.834 126.903H335.88C332.815 126.903 330.188 129.623 330.188 132.926V260.334C330.188 263.637 332.864 266.308 335.88 266.308H378.883C381.948 266.308 384.234 263.637 384.234 260.334V132.926H384.185Z" fill="url(#paint1_linear)"/>
        <g opacity="0.24">
            <path opacity="0.5" d="M342.739 83.2362C339.966 79.2532 335.783 77.6017 331.745 78.816C327.319 80.1275 324.789 85.082 320.703 87.0735C313.503 90.5222 303.531 83.7219 298.082 92.6108C291.418 103.491 286.213 95.3309 286.213 102.714C286.213 110.097 332.426 104.657 355.193 105.046C358.501 105.094 372.802 104.803 366.624 96.8367C364.727 94.3594 362.003 93.9223 359.425 93.3394C356.117 92.5622 348.236 92.1736 345.804 89.1621C344.491 87.5592 344.004 85.2277 342.837 83.4791C342.837 83.3819 342.788 83.3333 342.739 83.2362Z" fill="url(#paint2_linear)"/>
            <path opacity="0.5" d="M426.605 74.6873C424.853 72.2101 422.227 71.1415 419.697 71.9187C416.924 72.7444 415.319 75.8531 412.741 77.116C408.217 79.3018 401.941 74.9788 398.536 80.6132C394.353 87.462 391.093 82.3133 391.093 86.9763C391.093 91.6393 420.135 88.1906 434.485 88.4335C436.577 88.4821 445.528 88.2878 441.685 83.2848C440.469 81.7304 438.766 81.439 437.161 81.099C435.069 80.6132 430.107 80.3704 428.599 78.476C427.772 77.456 427.48 75.9988 426.751 74.8816C426.702 74.7845 426.653 74.7359 426.605 74.6873Z" fill="url(#paint3_linear)"/>
        </g>
        <path opacity="0.24" d="M614 82.7937C609.181 105.869 591 111.294 591 111.294C591 111.294 609.254 116.719 614 139.794C618.819 116.719 637 111.294 637 111.294C637 111.294 618.746 105.869 614 82.7937Z" fill="#A89CFC"/>
        <path opacity="0.24" d="M643.5 28.7937C641.098 40.9003 632 43.7937 632 43.7937C632 43.7937 641.098 46.611 643.5 58.7937C645.902 46.6871 655 43.7937 655 43.7937C655 43.7937 645.902 40.9003 643.5 28.7937Z" fill="#A89CFC"/>
    </g>
    <path d="M164.826 12.634C158.588 6.46617 148.725 8.32497 142.065 13.9858C141.138 14.8308 139.705 14.8308 138.693 13.9858C131.865 8.40946 122.086 6.71964 115.932 13.0564C109.273 19.9002 109.357 30.884 116.185 37.5588L138.862 60.0333C139.873 61.0472 141.559 61.0472 142.571 60.0333L164.994 37.2208C171.738 30.3771 171.654 19.3933 164.826 12.634Z" fill="#FFD05D"/>
    <path d="M725.554 70.7296C745.131 70.7296 761 54.8963 761 35.3648C761 15.8334 745.131 0 725.554 0C705.978 0 690.109 15.8334 690.109 35.3648C690.109 54.8963 705.978 70.7296 725.554 70.7296Z" fill="#FFD05D"/>
    <path d="M695.027 31.3038C699.606 13.7906 717.583 3.21499 735.136 7.78365C745.397 10.4064 753.283 17.6824 757.099 26.7351C754.046 15.8211 745.482 6.68379 733.61 3.63802C716.057 -0.930642 698.08 9.64496 693.5 27.1582C691.635 34.4342 692.313 41.7948 695.027 48.2248C693.67 42.8947 693.5 37.0569 695.027 31.3038Z" fill="#FFD77F"/>
    <path d="M748.279 35.6187C748.279 35.0264 747.855 34.4342 747.262 34.1804L734.881 29.0195L732.168 15.9057C731.998 15.3135 731.574 14.8059 730.981 14.6367C730.387 14.4675 729.709 14.6367 729.285 15.1443L720.55 25.2969L707.237 23.8586C706.644 23.774 705.965 24.1124 705.626 24.62C705.287 25.1277 705.287 25.8045 705.626 26.3967L712.579 37.8184L707.068 50.0015C706.813 50.5937 706.898 51.2706 707.322 51.6936C707.746 52.2012 708.34 52.3704 709.018 52.2858L722.077 49.2401L731.998 58.2082C732.168 58.3774 732.422 58.5466 732.677 58.5466C733.016 58.6312 733.355 58.6312 733.694 58.462C734.288 58.2082 734.712 57.7005 734.712 57.0237L735.814 43.7407L747.431 37.1416C748.025 36.8031 748.279 36.2109 748.279 35.6187Z" fill="white"/>
    <path d="M831.65 246.923C852.444 246.923 869.301 230.105 869.301 209.358C869.301 188.612 852.444 171.794 831.65 171.794C810.857 171.794 794 188.612 794 209.358C794 230.105 810.857 246.923 831.65 246.923Z" fill="#FFD05D"/>
    <path d="M800.869 220.442C796.544 201.659 808.331 182.962 827.156 178.647C838.18 176.109 849.119 179.07 857.175 185.754C848.949 176.87 836.314 172.555 823.679 175.432C804.854 179.747 793.067 198.444 797.392 217.227C799.173 225.01 803.497 231.609 809.179 236.347C805.193 232.032 802.225 226.618 800.869 220.442Z" fill="#FFD77F"/>
    <path d="M817.133 208.043C818.639 207.699 819.395 205.39 818.821 202.885C818.247 200.379 816.56 198.627 815.054 198.971C813.547 199.315 812.791 201.624 813.365 204.129C813.939 206.634 815.626 208.387 817.133 208.043Z" fill="#303030"/>
    <path d="M844.2 201.948C845.707 201.604 846.462 199.294 845.888 196.789C845.314 194.284 843.627 192.532 842.121 192.876C840.614 193.219 839.859 195.529 840.433 198.034C841.007 200.539 842.693 202.291 844.2 201.948Z" fill="#303030"/>
    <path d="M807.822 218.411C812.062 230.425 824.782 237.616 837.502 234.74C850.221 231.863 858.532 219.849 857.09 207.159L807.822 218.411Z" fill="#695342"/>
    <path d="M818.931 231.948C824.358 235.163 830.888 236.347 837.502 234.824C843.777 233.386 849.035 229.748 852.511 224.841L852.172 224.333C833.771 220.018 819.101 231.779 818.931 231.948Z" fill="#F06669"/>
    <path d="M30.5274 263.709C47.3872 263.709 61.0548 250.073 61.0548 233.251C61.0548 216.43 47.3872 202.794 30.5274 202.794C13.6676 202.794 0 216.43 0 233.251C0 250.073 13.6676 263.709 30.5274 263.709Z" fill="#FFD05D"/>
    <path d="M5.08795 240.781C2.45921 225.383 12.8894 210.747 28.3227 208.124C37.3113 206.601 46.1303 209.477 52.3206 215.231C46.0455 207.701 36.0393 203.555 25.6939 205.332C10.2606 208.039 -0.169541 222.676 2.45921 238.074C3.56158 244.504 6.69912 250.003 11.1086 254.064C8.05589 250.342 5.93593 245.858 5.08795 240.781Z" fill="#FFD77F"/>
    <path d="M18.9949 239.851C18.0622 239.258 16.9598 240.274 17.5534 241.204C20.6909 246.365 26.7964 249.411 33.1562 248.311C39.4313 247.211 44.0952 242.558 45.452 236.805C45.7064 235.79 44.2648 235.113 43.6712 235.959C40.0249 240.951 31.7147 248.565 18.9949 239.851Z" fill="#5E4939"/>
    <path d="M19.197 233.451C20.4436 233.24 21.1682 231.388 20.8154 229.315C20.4626 227.242 19.166 225.733 17.9194 225.944C16.6727 226.155 15.9481 228.007 16.3009 230.08C16.6537 232.153 17.9503 233.662 19.197 233.451Z" fill="#303030"/>
    <path d="M41.3376 229.737C42.5842 229.526 43.3088 227.675 42.9561 225.602C42.6033 223.528 41.3067 222.019 40.06 222.23C38.8133 222.442 38.0887 224.293 38.4415 226.366C38.7943 228.439 40.0909 229.949 41.3376 229.737Z" fill="#303030"/>
    <path opacity="0.24" d="M199.5 110.794C192.481 144.799 166 152.794 166 152.794C166 152.794 192.587 160.789 199.5 194.794C206.519 160.789 233 152.794 233 152.794C233 152.794 206.519 144.692 199.5 110.794Z" fill="url(#paint4_linear)"/>
    <path opacity="0.24" d="M243.5 230.794C240.054 247.743 227 251.794 227 251.794C227 251.794 240.054 255.738 243.5 272.794C246.946 255.844 260 251.794 260 251.794C260 251.794 246.842 247.85 243.5 230.794Z" fill="url(#paint5_linear)"/>
    <defs>
        <linearGradient id="paint0_linear" x1="398.687" y1="46.8659" x2="668.145" y2="534.693" gradientUnits="userSpaceOnUse">
            <stop stop-color="#B37CFF"/>
            <stop offset="1" stop-color="#F895E7"/>
        </linearGradient>
        <linearGradient id="paint1_linear" x1="312.853" y1="116.512" x2="487.767" y2="433.177" gradientUnits="userSpaceOnUse">
            <stop stop-color="#B37CFF"/>
            <stop offset="1" stop-color="#F895E7"/>
        </linearGradient>
        <linearGradient id="paint2_linear" x1="286.174" y1="92.5361" x2="368.136" y2="92.5361" gradientUnits="userSpaceOnUse">
            <stop stop-color="#B37CFF"/>
            <stop offset="1" stop-color="#F895E7"/>
        </linearGradient>
        <linearGradient id="paint3_linear" x1="391.076" y1="80.5171" x2="442.607" y2="80.5171" gradientUnits="userSpaceOnUse">
            <stop stop-color="#B37CFF"/>
            <stop offset="1" stop-color="#F895E7"/>
        </linearGradient>
        <linearGradient id="paint4_linear" x1="165.982" y1="152.716" x2="233.059" y2="152.716" gradientUnits="userSpaceOnUse">
            <stop stop-color="#B37CFF"/>
            <stop offset="1" stop-color="#F895E7"/>
        </linearGradient>
        <linearGradient id="paint5_linear" x1="226.986" y1="251.801" x2="259.919" y2="251.801" gradientUnits="userSpaceOnUse">
            <stop stop-color="#B37CFF"/>
            <stop offset="1" stop-color="#F895E7"/>
        </linearGradient>
        <clipPath id="clip0">
            <rect width="458" height="257" fill="white" transform="translate(231 9.79373)"/>
        </clipPath>
    </defs>
</svg>
