<svg width="34" height="32" viewBox="0 0 34 32" fill="none" xmlns="http://www.w3.org/2000/svg">
<path d="M34 29.5V2.5C34 1.1 32.9 0 31.5 0H2.5C1.1 0 0 1.1 0 2.5V29.5C0 30.9 1.1 32 2.5 32H31.5C32.9 32 34 30.9 34 29.5ZM1 29.5V2.5C1 1.7 1.7 1 2.5 1H31.5C32.3 1 33 1.7 33 2.5V29.5C33 30.3 32.3 31 31.5 31H2.5C1.7 31 1 30.3 1 29.5Z" fill="#717791"/>
<path d="M28 4.5C28 5.3 27.2 6 26.3 6H26.2C25.4 6 25 5.3 25 4.5V3H24V4.5C24 5.9 24.8 7 26.2 7H26.3C27.7 7 29 5.9 29 4.5V3H28V4.5Z" fill="#717791"/>
<path d="M19 4.5C19 5.3 17.9 6 17.1 6H17C16.1 6 15 5.3 15 4.5V3H14V4.5C14 5.9 15.6 7 16.9 7H17C18.5 7 20 5.9 20 4.5V3H19V4.5Z" fill="#717791"/>
<path d="M9 4.5C9 5.3 8.6 6 7.8 6H7.7C6.9 6 6 5.3 6 4.5V3H5V4.5C5 5.9 6.3 7 7.7 7H7.8C9.2 7 10 5.9 10 4.5V3H9V4.5Z" fill="#717791"/>
<path d="M7.8 25H7.7C6.3 25 5 26.1 5 27.5V28H6V27.5C6 26.7 6.9 26 7.7 26H7.8C8.6 26 9 26.7 9 27.5V28H10V27.5C10 26.1 9.2 25 7.8 25Z" fill="#717791"/>
<path d="M17.1001 25H17.0001C15.6001 25 14.1001 26.1 14.1001 27.5V28H15.1001V27.5C15.1001 26.7 16.2001 26 17.0001 26H17.1001C17.9001 26 19.0001 26.7 19.0001 27.5V28H20.0001V27.5C20.0001 26.1 18.5001 25 17.1001 25Z" fill="#717791"/>
<path d="M26.3 25H26.2C24.8 25 24 26.1 24 27.5V28H25V27.5C25 26.7 25.4 26 26.2 26H26.3C27.1 26 28 26.7 28 27.5V28H29V27.5C29 26.1 27.7 25 26.3 25Z" fill="#717791"/>
</svg>
