<svg width="44" height="32" viewBox="0 0 44 32" fill="none" xmlns="http://www.w3.org/2000/svg">
<path d="M36.5 0H7.5C6.7 0 6 0.7 6 1.5V30.5C6 31.3 6.7 32 7.5 32H36.5C37.3 32 38 31.3 38 30.5V1.5C38 0.7 37.3 0 36.5 0ZM37 30.5C37 30.8 36.8 31 36.5 31H7.5C7.2 31 7 30.8 7 30.5V1.5C7 1.2 7.2 1 7.5 1H36.5C36.8 1 37 1.2 37 1.5V30.5Z" fill="#717791"/>
<path d="M14.5 17H20.5C21.3 17 22 16.3 22 15.5V9.5C22 8.7 21.3 8 20.5 8H14.5C13.7 8 13 8.7 13 9.5V15.5C13 16.3 13.7 17 14.5 17ZM14 9.5C14 9.2 14.2 9 14.5 9H20.5C20.8 9 21 9.2 21 9.5V15.5C21 15.8 20.8 16 20.5 16H14.5C14.2 16 14 15.8 14 15.5V9.5Z" fill="#717791"/>
<path d="M32 8H26C25.7 8 25.5 8.2 25.5 8.5C25.5 8.8 25.7 9 26 9H32C32.3 9 32.5 8.8 32.5 8.5C32.5 8.2 32.3 8 32 8Z" fill="#717791"/>
<path d="M32 12H26C25.7 12 25.5 12.2 25.5 12.5C25.5 12.8 25.7 13 26 13H32C32.3 13 32.5 12.8 32.5 12.5C32.5 12.2 32.3 12 32 12Z" fill="#717791"/>
<path d="M32 16H26C25.7 16 25.5 16.2 25.5 16.5C25.5 16.8 25.7 17 26 17H32C32.3 17 32.5 16.8 32.5 16.5C32.5 16.2 32.3 16 32 16Z" fill="#717791"/>
<path d="M32 20H13C12.7 20 12.5 20.2 12.5 20.5C12.5 20.8 12.7 21 13 21H32C32.3 21 32.5 20.8 32.5 20.5C32.5 20.2 32.3 20 32 20Z" fill="#717791"/>
<path d="M32 24H13C12.7 24 12.5 24.2 12.5 24.5C12.5 24.8 12.7 25 13 25H32C32.3 25 32.5 24.8 32.5 24.5C32.5 24.2 32.3 24 32 24Z" fill="#717791"/>
<path d="M43.2001 2.2C42.7001 1.9 42.1001 2 41.7001 2.3L39.3001 3.9C39.0001 4 38.9001 4.3 39.1001 4.5C39.2001 4.7 39.6001 4.8 39.8001 4.6L42.2001 3C42.4001 2.9 42.6001 2.9 42.7001 3C42.9001 3.2 43.0001 3.4 43.0001 3.6V28.5C43.0001 28.7 42.9001 28.9 42.7001 29C42.6001 29 42.4001 29.1 42.2001 29L39.9001 27.4C39.7001 27.2 39.4001 27.3 39.2001 27.5C39.0001 27.7 39.1001 28 39.3001 28.2L41.6001 29.8C41.9001 30 42.2001 30.1 42.5001 30.1C42.7001 30.1 43.0001 30 43.2001 29.9C43.7001 29.6 44.0001 29.1 44.0001 28.5V3.6C44.0001 3 43.7001 2.5 43.2001 2.2Z" fill="#717791"/>
<path d="M1.2 3C1.4 2.9 1.7 3 1.8 3.1L4.2 5C4.4 5.2 4.7 5.1 4.9 4.9C5.1 4.7 5 4.4 4.8 4.2L2.4 2.3C2 1.9 1.3 1.9 0.8 2.1C0.3 2.4 0 2.8 0 3.4V28.6C0 29.1 0.3 29.6 0.8 29.8C1 29.9 1.2 30 1.5 30C1.9 30 2.2 29.9 2.5 29.6L4.8 27.7C5 27.5 5 27.2 4.9 27C4.7 26.8 4.4 26.8 4.2 26.9L1.9 28.8C1.7 29 1.4 29 1.2 28.9C1 28.8 1 28.7 1 28.6V3.4C1 3.2 1.1 3.1 1.2 3Z" fill="#717791"/>
</svg>
