<svg width="42" height="36" viewBox="0 0 42 36" fill="none" xmlns="http://www.w3.org/2000/svg">
<path d="M7.33542 22.5705L5.19122 27.1975C5.07837 27.4232 5.19122 27.6489 5.30407 27.8746C5.41693 27.9875 5.52978 27.9875 5.75549 27.9875C5.86834 27.9875 5.86834 27.9875 5.98119 27.9875L13.6552 24.489C14.558 24.6019 15.348 24.6019 16.1379 24.6019C24.9404 24.6019 32.0502 19.0721 32.0502 12.3009C32.0502 5.52978 24.9404 0 16.1379 0C7.33542 0 0 5.41693 0 12.1881C0 16.3636 2.70846 20.2006 7.33542 22.5705ZM16.0251 1.01567C24.1505 1.01567 30.8088 5.98119 30.8088 12.1881C30.8088 18.395 24.1505 23.3605 16.0251 23.3605C15.2351 23.3605 14.4451 23.3605 13.5423 23.1348C13.4295 23.1348 13.3166 23.1348 13.2038 23.1348L6.77116 26.069L8.5768 22.4577C8.68965 22.3448 8.68965 22.1191 8.5768 22.0063C8.46395 21.8934 8.46395 21.7806 8.23824 21.6677C3.83699 19.6364 1.12853 16.0251 1.12853 12.0752C1.12853 5.98119 7.78683 1.01567 16.0251 1.01567Z" fill="#717791"/>
<path d="M8.23838 14.8965C8.46408 14.8965 8.57693 15.0094 8.80264 15.0094C9.47976 15.0094 10.1569 14.6708 10.6083 14.1066C11.0597 13.5423 11.1725 12.8652 11.0597 12.1881C10.834 11.3981 10.2697 10.721 9.3669 10.4953C8.46408 10.2696 7.56126 10.6081 6.997 11.2852C6.54559 11.8495 6.43273 12.5266 6.54559 13.2037C6.77129 14.1066 7.44841 14.7837 8.23838 14.8965ZM7.89982 12.0752C8.12552 11.8495 8.46408 11.6238 8.80264 11.6238C8.91549 11.6238 9.02835 11.6238 9.1412 11.6238C9.47976 11.7367 9.81831 12.0752 9.93117 12.4138C10.044 12.7523 9.93117 13.0909 9.70546 13.4294C9.47976 13.768 9.02835 13.8809 8.57693 13.8809C8.23838 13.768 7.89982 13.4294 7.78697 13.0909C7.56126 12.6395 7.67411 12.3009 7.89982 12.0752Z" fill="#717791"/>
<path d="M14.8966 14.8965C15.1223 14.8965 15.2351 15.0094 15.4608 15.0094C16.138 15.0094 16.8151 14.6708 17.2665 14.1066C17.7179 13.5423 17.8307 12.8652 17.7179 12.1881C17.4922 11.3981 16.9279 10.721 16.0251 10.4953C15.1223 10.2696 14.2195 10.6081 13.6552 11.2852C13.2038 11.8495 13.0909 12.5266 13.2038 13.2037C13.4295 14.1066 14.1066 14.7837 14.8966 14.8965ZM14.558 12.0752C14.7837 11.8495 15.1223 11.6238 15.4608 11.6238C15.5737 11.6238 15.6865 11.6238 15.7994 11.6238C16.138 11.7367 16.4765 12.0752 16.5894 12.4138C16.7022 12.7523 16.5894 13.0909 16.3637 13.4294C16.138 13.768 15.6865 13.8809 15.2351 13.8809C14.8966 13.768 14.558 13.4294 14.4452 13.0909C14.2195 12.6395 14.3323 12.3009 14.558 12.0752Z" fill="#717791"/>
<path d="M21.5548 14.8965C21.7805 14.8965 21.8933 15.0094 22.119 15.0094C22.7962 15.0094 23.4733 14.6708 23.9247 14.1066C24.3761 13.5423 24.489 12.8652 24.3761 12.1881C24.1504 11.3981 23.5861 10.721 22.6833 10.4953C21.7805 10.2696 20.8777 10.6081 20.3134 11.2852C19.862 11.8495 19.7491 12.5266 19.862 13.2037C20.0877 14.1066 20.7648 14.7837 21.5548 14.8965ZM21.2162 12.0752C21.4419 11.8495 21.7805 11.6238 22.119 11.6238C22.2319 11.6238 22.3448 11.6238 22.4576 11.6238C22.7962 11.7367 23.1347 12.0752 23.2476 12.4138C23.3604 12.7523 23.2476 13.0909 23.0219 13.4294C22.7962 13.768 22.3448 13.8809 21.8933 13.8809C21.5548 13.768 21.2162 13.4294 21.1034 13.0909C20.8777 12.6395 20.9905 12.3009 21.2162 12.0752Z" fill="#717791"/>
<path d="M33.8561 13.6552C33.5175 13.5423 33.2918 13.768 33.179 13.9937C33.0661 14.3323 33.2918 14.558 33.5175 14.6708C37.8059 15.9122 40.7401 19.185 40.7401 22.6834C40.7401 25.7304 38.5959 28.5517 35.0975 30.1317C34.8718 30.2445 34.7589 30.4702 34.7589 30.8088L35.436 34.0815L31.8248 31.373C31.7119 31.2602 31.5991 31.2602 31.3733 31.2602C30.5834 31.373 29.9063 31.373 29.2291 31.373C25.0536 31.373 21.1038 29.2288 19.5238 26.2947C19.411 26.069 19.0724 25.9561 18.7338 26.069C18.5081 26.1818 18.3953 26.5204 18.5081 26.8589C20.3138 30.2445 24.715 32.6144 29.2291 32.6144C29.9063 32.6144 30.5834 32.6144 31.3733 32.5016L36.0003 36C36.1132 36 36.226 36 36.3389 36C36.4517 36 36.5646 36 36.6774 35.8871C36.9031 35.7743 37.016 35.5486 36.9031 35.3229L36.0003 31.0345C39.6116 29.2288 41.8686 26.069 41.8686 22.7962C41.9815 18.7335 38.7088 15.1223 33.8561 13.6552Z" fill="#717791"/>
</svg>
