<svg width="48" height="36" viewBox="0 0 48 36" fill="none" xmlns="http://www.w3.org/2000/svg">
<path d="M45.5226 0H1.70323C0.774194 0 0 0.774194 0 1.70323V28.6452C0 29.5742 0.774194 30.3484 1.70323 30.3484H19.1226V34.8387H16.8774C16.5677 34.8387 16.3355 35.071 16.3355 35.3806C16.3355 35.6903 16.5677 35.9226 16.8774 35.9226H31.5097C31.8194 35.9226 32.0516 35.6903 32.0516 35.3806C32.0516 35.071 31.8194 34.8387 31.5097 34.8387H29.2645V30.3484H45.6C46.529 30.3484 47.3032 29.5742 47.3032 28.6452V1.70323C47.2258 0.774194 46.4516 0 45.5226 0ZM28.1032 34.8387H20.2065V30.3484H28.1032V34.8387ZM46.0645 28.6452C46.0645 28.9548 45.8323 29.1871 45.5226 29.1871H1.70323C1.39355 29.1871 1.16129 28.9548 1.16129 28.6452V1.70323C1.16129 1.39355 1.39355 1.16129 1.70323 1.16129H45.5226C45.8323 1.16129 46.0645 1.39355 46.0645 1.70323V28.6452Z" fill="#A89CFC"/>
</svg>
