<svg width="37" height="37" viewBox="0 0 37 37" fill="none" xmlns="http://www.w3.org/2000/svg">
<path d="M14.6066 19.7377C14.3852 19.7377 14.0902 19.5902 13.9426 19.3689L9.44262 12.4345C7.59836 9.63119 4.42623 7.86069 1.03279 7.86069H0.737705C0.295082 7.86069 0 7.49184 0 7.12299C0 6.75414 0.368852 6.38528 0.737705 6.38528H1.03279C4.94262 6.38528 8.55738 8.37709 10.6967 11.623L15.1967 18.5574C15.418 18.9263 15.3443 19.3689 14.9754 19.5902C14.9016 19.664 14.7541 19.7377 14.6066 19.7377Z" fill="#A89CFC"/>
<path d="M1.03279 31.6148H0.737705C0.295082 31.6148 0 31.2459 0 30.8771C0 30.4345 0.368852 30.1394 0.737705 30.1394H1.03279C4.42623 30.1394 7.52459 28.4427 9.36885 25.5656L17.9262 12.3607C20.0656 9.04102 23.6803 7.12299 27.5902 7.12299H34.4508C34.8934 7.12299 35.1885 7.49184 35.1885 7.8607C35.1885 8.30332 34.8197 8.5984 34.4508 8.5984H27.5902C24.1967 8.5984 21.0984 10.2951 19.2541 13.1722L10.6967 26.3771C8.55738 29.6968 4.94262 31.6148 1.03279 31.6148Z" fill="#A89CFC"/>
<path d="M29.1396 14.7951C28.9182 14.7951 28.7707 14.7214 28.6232 14.5738C28.3281 14.2787 28.3281 13.7623 28.6232 13.4673L34.2297 7.8607L28.6232 2.25414C28.3281 1.95906 28.3281 1.44266 28.6232 1.14758C28.9182 0.852499 29.4346 0.852499 29.7297 1.14758L35.8527 7.27053C36.1478 7.56561 36.1478 8.08201 35.8527 8.37709L29.7297 14.5C29.5084 14.7214 29.3609 14.7951 29.1396 14.7951Z" fill="#A89CFC"/>
<path d="M34.4509 30.8771H27.5902C23.6804 30.8771 20.0657 28.8853 17.9263 25.6394L16.0083 22.6148C15.787 22.2459 15.8607 21.8033 16.2296 21.582C16.5984 21.3607 17.0411 21.4345 17.2624 21.8033L19.1804 24.8279C21.0247 27.705 24.123 29.4017 27.5165 29.4017H34.3771C34.8197 29.4017 35.1148 29.7705 35.1148 30.1394C35.2624 30.5082 34.8935 30.8771 34.4509 30.8771Z" fill="#A89CFC"/>
<path d="M29.1396 37C28.9182 37 28.7707 36.9263 28.6232 36.7787C28.3281 36.4836 28.3281 35.9673 28.6232 35.6722L34.2297 30.0656L28.6232 24.4591C28.3281 24.164 28.3281 23.6476 28.6232 23.3525C28.9182 23.0574 29.4346 23.0574 29.7297 23.3525L35.8527 29.4755C36.1478 29.7705 36.1478 30.2869 35.8527 30.582L29.7297 36.705C29.5084 36.9263 29.3609 37 29.1396 37Z" fill="#A89CFC"/>
</svg>
