<svg width="34" height="36" viewBox="0 0 34 36" fill="none" xmlns="http://www.w3.org/2000/svg">
<path d="M4.39604 30.9505H10.2772V31.604C10.2772 34.099 12.297 36 14.6733 36H27.5644C30.0594 36 31.9604 33.9802 31.9604 31.604V17.703C31.9604 16.9307 31.604 16.099 31.0693 15.4455L25.7822 10.1584C25.2475 9.62376 24.4158 9.26733 23.5248 9.26733H19.6634L15.505 5.10891C14.9109 4.51485 14.0792 4.15842 13.1881 4.15842H4.39604C1.90099 4.15842 0 6.17822 0 8.55446V26.495C0 28.9901 1.90099 30.9505 4.39604 30.9505ZM24.9505 11.0495L30.2376 16.3366C30.5941 16.6931 30.7723 17.2277 30.7723 17.8218V31.8416C30.7723 33.6238 29.2871 35.1089 27.505 35.1089H14.6733C12.8911 35.1089 11.4059 33.6238 11.4059 31.8416V13.7822C11.4059 12 12.8911 10.5149 14.6733 10.5149H23.5842C24.0594 10.396 24.5941 10.6337 24.9505 11.0495ZM1.12871 8.55446C1.12871 6.77228 2.61386 5.28713 4.39604 5.28713H13.3069C13.8416 5.28713 14.3168 5.52475 14.7921 5.82178L18.1782 9.20792H14.7921C12.297 9.20792 10.396 11.2277 10.396 13.604V29.7624H4.39604C2.61386 29.7624 1.12871 28.2772 1.12871 26.495V8.55446Z" fill="#A89CFC"/>
<path d="M22.812 0C22.4556 0 22.2773 0.237624 22.2773 0.534653C22.2773 0.831683 22.515 1.06931 22.812 1.06931H25.1882C27.6833 1.06931 29.7031 3.08911 29.7031 5.58416V6.71287L28.0397 5.0495C27.8021 4.81188 27.5051 4.81188 27.2674 5.0495C27.0298 5.28713 27.0298 5.58416 27.2674 5.82178L30.0001 8.55445C30.1189 8.67327 30.2377 8.67327 30.4754 8.67327C30.713 8.67327 30.8318 8.55445 30.9506 8.55445L33.6833 5.82178C33.9209 5.58416 33.9209 5.28713 33.6833 5.0495C33.4457 4.81188 33.1486 4.81188 32.911 5.0495L31.2476 6.71287V5.64356C31.2476 2.61386 28.7526 0 25.6041 0H22.812Z" fill="#A89CFC"/>
</svg>
