<svg width="37" height="36" viewBox="0 0 37 36" fill="none" xmlns="http://www.w3.org/2000/svg">
<path d="M34.6156 10.5H22.0387C21.5771 10.5 21.1156 10.2692 20.7695 10.0385L19.9618 9.23078C19.2695 8.53847 18.1156 8.53847 17.5387 9.23078L16.8464 9.92309C16.5002 10.2692 16.0387 10.3846 15.5771 10.3846H2.30792C1.38484 10.3846 0.577148 11.1923 0.577148 12.1154V34.2692C0.577148 35.1923 1.38484 36 2.30792 36H34.6156C35.5387 36 36.3464 35.1923 36.3464 34.2692V12.2308C36.3464 11.3077 35.5387 10.5 34.6156 10.5ZM35.1925 34.2692C35.1925 34.6154 34.9618 34.8462 34.6156 34.8462H2.30792C1.96176 34.8462 1.73099 34.6154 1.73099 34.2692V12.2308C1.73099 11.8846 1.96176 11.6539 2.30792 11.6539H15.5771C16.3848 11.6539 17.0771 11.3077 17.6541 10.8462L18.4618 9.92309C18.6925 9.69232 19.0387 9.69232 19.2695 9.92309L20.0771 10.7308C20.6541 11.3077 21.3464 11.5385 22.1541 11.5385H34.6156C34.9618 11.5385 35.1925 11.7692 35.1925 12.1154V34.2692Z" fill="#717791"/>
<path d="M14.9998 20.6538H7.49977C7.15362 20.6538 6.92285 20.8846 6.92285 21.2308C6.92285 21.5769 7.15362 21.8077 7.49977 21.8077H14.9998C15.3459 21.8077 15.5767 21.5769 15.5767 21.2308C15.5767 20.8846 15.3459 20.6538 14.9998 20.6538Z" fill="#717791"/>
<path d="M7.49977 17.1923H14.769C15.1152 17.1923 15.3459 16.9615 15.3459 16.6154C15.3459 16.2692 15.1152 16.0385 14.769 16.0385H7.49977C7.15362 16.0385 6.92285 16.2692 6.92285 16.6154C6.92285 16.9615 7.15362 17.1923 7.49977 17.1923Z" fill="#717791"/>
<path d="M14.9998 25.2692H7.49977C7.15362 25.2692 6.92285 25.5 6.92285 25.8461C6.92285 26.1923 7.15362 26.4231 7.49977 26.4231H14.9998C15.3459 26.4231 15.5767 26.1923 15.5767 25.8461C15.5767 25.5 15.3459 25.2692 14.9998 25.2692Z" fill="#717791"/>
<path d="M14.9998 29.8846H7.49977C7.15362 29.8846 6.92285 30.1154 6.92285 30.4615C6.92285 30.8077 7.15362 31.0385 7.49977 31.0385H14.9998C15.3459 31.0385 15.5767 30.8077 15.5767 30.4615C15.5767 30.1154 15.3459 29.8846 14.9998 29.8846Z" fill="#717791"/>
<path d="M29.4231 16.0385H21.9231C21.577 16.0385 21.3462 16.2692 21.3462 16.6154C21.3462 16.9615 21.577 17.1923 21.9231 17.1923H29.4231C29.7693 17.1923 30 16.9615 30 16.6154C30 16.2692 29.7693 16.0385 29.4231 16.0385Z" fill="#717791"/>
<path d="M29.4231 20.6538H21.9231C21.577 20.6538 21.3462 20.8846 21.3462 21.2308C21.3462 21.5769 21.577 21.8077 21.9231 21.8077H29.4231C29.7693 21.8077 30 21.5769 30 21.2308C30 20.8846 29.7693 20.6538 29.4231 20.6538Z" fill="#717791"/>
<path d="M28.2693 24.1154H23.077C22.1539 24.1154 21.3462 24.9231 21.3462 25.8462V29.3077C21.3462 30.2308 22.1539 31.0385 23.077 31.0385H28.2693C29.1923 31.0385 30 30.2308 30 29.3077V25.8462C30 24.9231 29.1923 24.1154 28.2693 24.1154ZM28.8462 29.3077C28.8462 29.6538 28.6154 29.8846 28.2693 29.8846H23.077C22.7308 29.8846 22.5 29.6538 22.5 29.3077V25.8462C22.5 25.5 22.7308 25.2692 23.077 25.2692H28.2693C28.6154 25.2692 28.8462 25.5 28.8462 25.8462V29.3077Z" fill="#717791"/>
<path d="M3.92308 7.84615H7.61538C9.80769 7.84615 11.5385 6.11538 11.5385 3.92308C11.5385 1.73077 9.80769 0 7.61538 0H3.92308C1.73077 0 0 1.73077 0 3.92308C0 6.11538 1.73077 7.84615 3.92308 7.84615ZM3.92308 1.15385H7.61538C9.11538 1.15385 10.3846 2.30769 10.3846 3.92308C10.3846 5.53846 9.11538 6.69231 7.61538 6.69231H3.92308C2.42308 6.69231 1.15385 5.42308 1.15385 3.92308C1.15385 2.42308 2.42308 1.15385 3.92308 1.15385Z" fill="#717791"/>
<path d="M16.6155 7.84615H20.3078C22.5001 7.84615 24.2308 6.11538 24.2308 3.92308C24.2308 1.73077 22.5001 0 20.3078 0H16.6155C14.4232 0 12.6924 1.73077 12.6924 3.92308C12.6924 6.11538 14.4232 7.84615 16.6155 7.84615ZM16.6155 1.15385H20.3078C21.8078 1.15385 23.077 2.42308 23.077 3.92308C23.077 5.42308 21.8078 6.69231 20.3078 6.69231H16.6155C15.1155 6.69231 13.8462 5.42308 13.8462 3.92308C13.8462 2.42308 15.1155 1.15385 16.6155 1.15385Z" fill="#717791"/>
<path d="M29.3078 7.84615H33.0002C35.1925 7.84615 36.9232 6.11538 36.9232 3.92308C36.9232 1.73077 35.1925 0 33.0002 0H29.3078C27.1155 0 25.3848 1.73077 25.3848 3.92308C25.3848 6.11538 27.1155 7.84615 29.3078 7.84615ZM29.3078 1.15385H33.0002C34.5002 1.15385 35.7694 2.42308 35.7694 3.92308C35.7694 5.42308 34.5002 6.69231 33.0002 6.69231H29.3078C27.8078 6.69231 26.5386 5.42308 26.5386 3.92308C26.5386 2.42308 27.8078 1.15385 29.3078 1.15385Z" fill="#717791"/>
<path d="M4.03835 4.49999H7.61527C7.84604 4.49999 8.07681 4.26922 8.07681 3.92307C8.07681 3.57691 7.84604 3.34615 7.49989 3.34615H4.03835C3.69219 3.34615 3.46143 3.57691 3.46143 3.92307C3.46143 4.26922 3.69219 4.49999 4.03835 4.49999Z" fill="#717791"/>
<path d="M16.7307 4.49999H20.3077C20.6538 4.49999 20.8846 4.26922 20.8846 3.92307C20.8846 3.57691 20.6538 3.34615 20.3077 3.34615H16.7307C16.3846 3.34615 16.1538 3.57691 16.1538 3.92307C16.1538 4.26922 16.3846 4.49999 16.7307 4.49999Z" fill="#717791"/>
<path d="M29.4231 4.49999H33C33.3462 4.49999 33.577 4.26922 33.577 3.92307C33.577 3.57691 33.3462 3.34615 33 3.34615H29.4231C29.077 3.34615 28.8462 3.57691 28.8462 3.92307C28.8462 4.26922 29.077 4.49999 29.4231 4.49999Z" fill="#717791"/>
</svg>
