<svg width="36" height="36" viewBox="0 0 36 36" fill="none" xmlns="http://www.w3.org/2000/svg">
<path d="M10.5117 6.51163C12.2791 6.51163 13.7675 5.02326 13.7675 3.25581C13.7675 1.48837 12.2791 0 10.5117 0C8.74423 0 7.25586 1.48837 7.25586 3.25581C7.25586 5.02326 8.74423 6.51163 10.5117 6.51163ZM10.5117 0.930233C11.814 0.930233 12.8373 1.95349 12.8373 3.25581C12.8373 4.55814 11.814 5.5814 10.5117 5.5814C9.20935 5.5814 8.18609 4.55814 8.18609 3.25581C8.18609 1.95349 9.20935 0.930233 10.5117 0.930233Z" fill="#A89CFC"/>
<path d="M33.2094 21.3953C31.721 21.3953 30.5117 22.6046 30.5117 24.093C30.5117 25.5814 31.721 26.7907 33.2094 26.7907C34.6978 26.7907 35.9071 25.5814 35.9071 24.093C35.9071 22.6977 34.6978 21.3953 33.2094 21.3953ZM33.2094 25.9535C32.1861 25.9535 31.442 25.1163 31.442 24.186C31.442 23.2558 32.2792 22.4186 33.2094 22.4186C34.1396 22.4186 34.9768 23.2558 34.9768 24.186C34.9768 25.1163 34.2326 25.9535 33.2094 25.9535Z" fill="#A89CFC"/>
<path d="M11.9072 6.4186C11.6281 6.51163 11.4421 6.88372 11.6281 7.16279L13.8607 12.7442C13.9537 12.9302 14.1397 13.1163 14.4188 13.1163C14.5118 13.1163 14.6049 13.1163 14.6049 13.1163C14.8839 13.0233 15.07 12.6512 14.8839 12.3721L12.6514 6.7907C12.5583 6.4186 12.1863 6.32558 11.9072 6.4186Z" fill="#A89CFC"/>
<path d="M11.7209 22.9767L8.74419 26.0465C7.81395 25.3953 6.69767 24.9302 5.48837 24.9302C2.4186 24.9302 0 27.4419 0 30.4186C0 33.3953 2.51163 35.907 5.48837 35.907C8.46512 35.907 10.9767 33.3953 10.9767 30.4186C10.9767 29.0233 10.4186 27.7209 9.58139 26.7907L12.5581 23.7209C12.7442 23.5349 12.7442 23.1628 12.5581 22.8837C12.2791 22.6977 11.907 22.6977 11.7209 22.9767ZM5.39535 35.0698C2.88372 35.0698 0.837209 33.0233 0.837209 30.5116C0.837209 28 2.88372 25.9535 5.39535 25.9535C7.90698 25.9535 9.95349 28 9.95349 30.5116C10.0465 33.0233 8 35.0698 5.39535 35.0698Z" fill="#A89CFC"/>
<path d="M28.9304 21.7674L22.1397 19.5349C22.2327 19.2558 22.2327 18.8837 22.2327 18.5116C22.2327 15.4419 19.7211 13.0233 16.7444 13.0233C14.5118 13.0233 12.6514 14.3256 11.7211 16.2791L6.23275 15.1628C6.23275 13.6744 5.02345 12.4651 3.53508 12.4651C2.0467 12.4651 0.837402 13.6744 0.837402 15.1628C0.837402 16.6512 2.0467 17.8605 3.53508 17.8605C4.65136 17.8605 5.58159 17.2093 5.95368 16.2791L11.349 17.3023C11.256 17.6744 11.256 18.1395 11.256 18.5116C11.256 21.5814 13.7676 24 16.7444 24C19.07 24 21.0234 22.6047 21.8607 20.5581L28.5583 22.7907C28.6514 22.7907 28.6514 22.7907 28.7444 22.7907C29.0234 22.7907 29.2095 22.6047 29.3025 22.4186C29.3955 22.2326 29.2095 21.8605 28.9304 21.7674ZM3.53508 16.9302C2.51182 16.9302 1.76763 16.093 1.76763 15.1628C1.76763 14.2326 2.60484 13.3953 3.53508 13.3953C4.46531 13.3953 5.30252 14.2326 5.30252 15.1628C5.30252 15.2558 5.30252 15.3488 5.30252 15.4419C5.30252 15.5349 5.2095 15.5349 5.2095 15.6279C5.2095 15.7209 5.2095 15.7209 5.2095 15.814C4.93043 16.3721 4.27926 16.9302 3.53508 16.9302ZM16.7444 23.1628C14.2328 23.1628 12.1862 21.1163 12.1862 18.6047C12.1862 16.093 14.2328 14.0465 16.7444 14.0465C19.256 14.0465 21.3025 16.093 21.3025 18.6047C21.3025 21.1163 19.256 23.1628 16.7444 23.1628Z" fill="#A89CFC"/>
<path d="M22.3256 14.2326C22.5116 14.2326 22.6047 14.1395 22.6977 14.0465L24.8372 11.907C25.5814 12.4651 26.5116 12.8372 27.5349 12.8372C29.9535 12.8372 32 10.8837 32 8.37209C32 5.95349 30.0465 3.90698 27.5349 3.90698C25.0233 3.90698 23.1628 6.04651 23.1628 8.55814C23.1628 9.5814 23.5349 10.4186 24.093 11.1628L21.9535 13.3023C21.7675 13.4884 21.7675 13.8605 21.9535 14.1395C22.0465 14.2326 22.2326 14.2326 22.3256 14.2326ZM27.6279 5.02326C29.5814 5.02326 31.1628 6.60465 31.1628 8.55814C31.1628 10.5116 29.5814 12.093 27.6279 12.093C25.6744 12.093 24.093 10.4186 24.093 8.55814C24.093 6.69767 25.6744 5.02326 27.6279 5.02326Z" fill="#A89CFC"/>
</svg>
