<svg width="37" height="36" viewBox="0 0 37 36" fill="none" xmlns="http://www.w3.org/2000/svg">
<path d="M1.70722 36H34.367C35.2577 36 36.0742 35.1835 36.0742 34.2928V21.9711C36.0742 21.0804 35.2577 20.2639 34.367 20.2639H1.1134V10.1691H23.0845C23.4557 10.1691 23.6784 10.3918 23.6784 10.7629V17.9629C23.6784 18.334 23.901 18.5567 24.2722 18.5567C24.6433 18.5567 24.866 18.334 24.866 17.9629V10.7629C24.866 9.87216 24.0495 9.05567 23.1588 9.05567H1.1134V1.70722C1.1134 1.33608 1.33608 1.1134 1.70722 1.1134H12.9897C13.3608 1.1134 13.5835 1.33608 13.5835 1.70722V7.42268C13.5835 7.79381 13.8062 8.01649 14.1773 8.01649C14.5485 8.01649 14.7711 7.79381 14.7711 7.42268V1.70722C14.7711 0.816495 13.9546 0 13.0639 0H1.70722C0.816495 0 0 0.816495 0 1.70722V9.57526V20.8577V34.367C0 35.2577 0.816495 36 1.70722 36ZM1.1134 21.3773H34.367C34.7381 21.3773 34.9608 21.6 34.9608 21.9711V34.367C34.9608 34.7381 34.7381 34.9608 34.367 34.9608H1.70722C1.33608 34.9608 1.1134 34.7381 1.1134 34.367V21.3773Z" fill="#A89CFC"/>
</svg>
