<svg width="30" height="36" viewBox="0 0 30 36" fill="none" xmlns="http://www.w3.org/2000/svg">
<path d="M27.0216 10.4625C26.9091 8.8875 25.5591 7.65 23.8716 7.65H20.4966V5.85C20.4966 2.7 17.7966 0 14.5341 0C11.2716 0 8.68406 2.7 8.68406 5.85V7.5375H5.19656C3.50906 7.5375 2.15906 8.775 2.04656 10.35L0.0215552 32.5125C-0.0909448 33.4125 0.246555 34.3125 0.809055 34.9875C1.37156 35.6625 2.27156 36 3.05906 36H25.8966C26.7966 36 27.5841 35.6625 28.2591 34.9875C28.8216 34.3125 29.1591 33.4125 29.0466 32.5125L27.0216 10.4625ZM9.80906 5.85C9.80906 3.2625 11.9466 1.125 14.5341 1.125C17.1216 1.125 19.2591 3.2625 19.2591 5.85V7.5375H9.69656V5.85H9.80906ZM27.4716 34.2C27.1341 34.65 26.5716 34.875 26.0091 34.875H3.05906C2.49656 34.875 1.93406 34.65 1.59656 34.2C1.25906 33.75 1.03406 33.1875 1.03406 32.625L3.17156 10.575C3.28406 9.5625 4.18406 8.775 5.19656 8.775H23.8716C24.8841 8.775 25.7841 9.5625 25.8966 10.575L28.0341 32.625C28.0341 33.1875 27.8091 33.75 27.4716 34.2Z" fill="#717791"/>
<path d="M19.2593 21.2625H10.8218C10.4843 21.2625 10.2593 21.4875 10.2593 21.825C10.2593 22.1625 10.4843 22.3875 10.8218 22.3875H19.2593C19.5968 22.3875 19.8218 22.1625 19.8218 21.825C19.8218 21.4875 19.5968 21.2625 19.2593 21.2625Z" fill="#717791"/>
<path d="M10.9341 19.0125H15.9966C16.3341 19.0125 16.5591 18.7875 16.5591 18.45C16.5591 18.1125 16.3341 17.8875 15.9966 17.8875H10.9341C10.5966 17.8875 10.3716 18.1125 10.3716 18.45C10.3716 18.7875 10.5966 19.0125 10.9341 19.0125Z" fill="#717791"/>
<path d="M19.2593 24.6375H10.8218C10.4843 24.6375 10.2593 24.8625 10.2593 25.2C10.2593 25.5375 10.4843 25.7625 10.8218 25.7625H19.2593C19.5968 25.7625 19.8218 25.5375 19.8218 25.2C19.8218 24.8625 19.5968 24.6375 19.2593 24.6375Z" fill="#717791"/>
</svg>
