<?xml version="1.0" encoding="utf-8"?>
<!-- Generator: Adobe Illustrator 26.3.1, SVG Export Plug-In . SVG Version: 6.00 Build 0)  -->
<svg version="1.1" id="Isolation_Mode" xmlns="http://www.w3.org/2000/svg" xmlns:xlink="http://www.w3.org/1999/xlink" x="0px"
	 y="0px" viewBox="0 0 512 512" style="enable-background:new 0 0 512 512;" xml:space="preserve">
<style type="text/css">
	.st0{fill:#6F8191;}
</style>
<path class="st0" d="M448,256c0.4,106.5-85.5,193.2-192,193.6c-106.5,0.4-193.2-85.5-193.6-192C61.9,151.1,147.9,64.4,254.4,64
	c51.4-0.2,100.8,20.1,137.1,56.5l-50.2,50.2h126.1c12.8,0,23.3-10.4,23.3-23.2c0,0,0,0,0,0V21.3l-54,54
	c-100-99.6-261.9-99.2-361.4,0.9S-23.9,338,76.1,437.6s261.9,99.2,361.4-0.9c47.8-48,74.5-113,74.4-180.7H448z"/>
</svg>
