
<!-- Generator: Element Pack Addon  -->
<svg version="1.1" id="Layer_1" xmlns="http://www.w3.org/2000/svg" xmlns:xlink="http://www.w3.org/1999/xlink" x="0px" y="0px"
	 viewBox="0 0 1440 889.6" style="enable-background:new 0 0 1440 889.6;" xml:space="preserve">
<style type="text/css">
	.st0{fill:#010101;fill-opacity:1.000000e-02;}
	.st1{fill:#CAC9C9;}
	.st2{fill:#C9C8C8;}
	.st3{fill:#FFFFFF;}
	.st4{fill-rule:evenodd;clip-rule:evenodd;fill:#606469;}
	.st5{fill:#F2F3F4;}
	.st6{fill:#BABCBE;}
	.st7{fill:#606469;}
	.st8{fill:#E8EAEC;}
	.st9{fill:#85898C;}
	.st10{fill:none;stroke:#85898C;}
	.st11{fill:#ABAFB2;}
	.st12{fill-rule:evenodd;clip-rule:evenodd;fill:#666B6E;}
	.st13{fill:#666B6E;}
	.st14{fill:#FFFFFF;filter:url(#Adobe_OpacityMaskFilter);}
	.st15{mask:url(#mask4_2_);}
	.st16{fill:#F9BB16;}
	.st17{fill:#6287C5;}
	.st18{fill:#2FB44A;}
	.st19{fill:#EF4438;}
	.st20{fill-rule:evenodd;clip-rule:evenodd;fill:#FFFFFF;}
	.st21{fill:#6E7173;}
	.st22{fill:#FFFFFF;filter:url(#Adobe_OpacityMaskFilter_1_);}
	.st23{mask:url(#mask5_2_);}
	.st24{fill:#EF4538;}
	.st25{fill:#488FCC;}
	.st26{fill:#4DAF4F;}
	.st27{fill:#FDC113;}
</style>
<g>
	<path class="st0" d="M0,0v889.6h1440V0H0z M1439,888.6H1V80h1438V888.6z"/>
</g>
<path class="st1" d="M0.1,0v889.6H1440V0H0.1z M1439,888.6H1V80h1438V888.6z"/>
<rect x="1" y="79" class="st2" width="1438" height="1"/>
<rect x="1" y="43" class="st3" width="1438" height="36"/>
<path class="st4" d="M1417.5,58c0.8,0,1.5-0.7,1.5-1.5s-0.7-1.5-1.5-1.5s-1.5,0.7-1.5,1.5S1416.7,58,1417.5,58z M1417.5,63
	c0.8,0,1.5-0.7,1.5-1.5s-0.7-1.5-1.5-1.5s-1.5,0.7-1.5,1.5S1416.7,63,1417.5,63z M1419,66.5c0,0.8-0.7,1.5-1.5,1.5s-1.5-0.7-1.5-1.5
	s0.7-1.5,1.5-1.5S1419,65.7,1419,66.5z"/>
<path class="st5" d="M123,47h1262c7.7,0,14,6.3,14,14l0,0c0,7.7-6.3,14-14,14H123c-7.7,0-14-6.3-14-14l0,0C109,53.3,115.3,47,123,47
	z"/>
<path class="st4" d="M1387.8,58.6c-0.1-0.2-0.3-0.3-0.5-0.3l-3.8-0.5l-1.7-3.4c-0.1-0.2-0.3-0.3-0.5-0.4c-0.2-0.1-0.4-0.1-0.6,0
	c-0.2,0.1-0.3,0.2-0.5,0.4l-1.7,3.4l-3.8,0.5c-0.2,0-0.4,0.1-0.5,0.3c-0.1,0.2-0.2,0.4-0.2,0.6c0,0.2,0.1,0.4,0.3,0.5l2.8,2.6
	l-0.7,3.7c0,0.2,0,0.4,0.1,0.6c0.1,0.2,0.3,0.3,0.5,0.3c0.2,0.1,0.4,0,0.6-0.1l3.4-1.7l3.4,1.7c0.2,0.1,0.4,0.1,0.6,0.1
	c0.2-0.1,0.4-0.2,0.5-0.3c0.1-0.2,0.2-0.4,0.1-0.6l-0.7-3.7l2.8-2.6c0.2-0.2,0.2-0.3,0.3-0.5C1388,59,1387.9,58.8,1387.8,58.6z
	 M1386.3,59.4l-2.6,2.5l0.6,3.5l-3.2-1.7l-3.2,1.7l0.6-3.5l-2.6-2.5l3.6-0.5l1.6-3.2l1.6,3.2L1386.3,59.4z"/>
<path class="st4" d="M131,60c0-0.6-0.4-1-1-1c0,0,0-4-3-4s-3,4-3,4c-0.6,0-1,0.4-1,1v5c0,0.6,0.4,1,1,1h6c0.6,0,1-0.4,1-1V60z
	 M127,56c2.2,0,2,3,2,3h-4C125,59,124.8,56,127,56z"/>
<path class="st6" d="M93.7,54.6c0.1-0.1,0.2-0.1,0.4-0.1c0.1,0.1,0.2,0.2,0.2,0.3v4c0,0.1,0,0.2-0.1,0.2c-0.1,0.1-0.1,0.1-0.2,0.1
	h-4c-0.2,0-0.3-0.1-0.3-0.2c-0.1-0.1,0-0.3,0.1-0.4l1.6-1.6c-0.5-0.5-1.3-0.8-1.9-1.1c-0.7-0.3-1.2-0.3-2-0.3c-1,0-1.9,0.2-2.8,0.7
	c-0.8,0.5-1.4,1.1-1.9,1.9C82,59.1,81.8,60,81.8,61s0.2,1.9,0.7,2.8c0.5,0.8,1.2,1.4,2,1.9c0.8,0.5,1.7,0.8,2.7,0.8
	c0.7,0,1.4-0.2,2-0.4c0.6-0.2,1.1-0.6,1.6-1c0.1-0.1,0.2,0,0.3,0c0.1,0,0.2,0,0.2,0.1l0.6,0.6C92,65.8,92,65.9,92,66s0,0.2-0.1,0.2
	c-0.6,0.6-1.3,1-2.1,1.3c-0.8,0.3-1.7,0.5-2.5,0.5c-1.3,0-2.4-0.3-3.5-0.9c-1.1-0.6-1.9-1.5-2.6-2.5s-0.9-2.2-0.9-3.5
	c0-1.3,0.3-2.4,0.9-3.5s1.5-1.9,2.6-2.6c1.1-0.6,2.2-0.9,3.5-0.9c0.9,0,1.8,0.2,2.7,0.5c0.9,0.4,1.6,0.9,2.2,1.5L93.7,54.6z"/>
<path class="st6" d="M54.8,68c0.1,0.1,0.2,0.1,0.3,0.1c0.1,0,0.2,0,0.3-0.1l6.5-6.7c0.1-0.1,0.1-0.1,0.1-0.3s0-0.2-0.1-0.3l-6.5-6.7
	c-0.1-0.1-0.1-0.1-0.3-0.1c-0.1,0-0.2,0-0.3,0.1l-0.6,0.6c-0.1,0.1-0.1,0.1-0.1,0.3c0,0.1,0,0.2,0.1,0.3L59,60H49c-0.5,0-1,0.4-1,1
	s0.4,1,1,1h10l-4.8,4.9c-0.1,0.1-0.1,0.2-0.1,0.3c0,0.1,0,0.2,0.1,0.3L54.8,68z"/>
<path class="st7" d="M23.2,68c-0.1,0.1-0.2,0.1-0.3,0.1c-0.1,0-0.2,0-0.3-0.1l-6.5-6.7C16,61.3,16,61.2,16,61.1s0-0.2,0.1-0.3
	l6.5-6.7c0.1-0.1,0.1-0.1,0.3-0.1c0.1,0,0.2,0,0.3,0.1l0.6,0.6c0.1,0.1,0.1,0.1,0.1,0.3c0,0.1,0,0.2-0.1,0.3L19,60h10
	c0.5,0,1,0.4,1,1s-0.4,1-1,1H19l4.8,4.9c0.1,0.1,0.1,0.2,0.1,0.3c0,0.1,0,0.2-0.1,0.3L23.2,68z"/>
<rect x="1" y="1" class="st8" width="1438" height="42"/>
<path class="st9" d="M1411.5,9.8l0.3-0.4l-0.3-0.4l-0.3,0.4L1411.5,9.8z M1411.8,10.1l-0.3,0.4L1411.8,10.1z M1410.8,10.5l-0.4-0.4
	l-0.3,0.4l0.3,0.4L1410.8,10.5z M1411.2,10.9l0.3-0.4L1411.2,10.9z M1415.3,15l0.4,0.4l0.3-0.4l-0.3-0.4L1415.3,15z M1411.2,19.1
	l-0.4-0.4l0,0L1411.2,19.1z M1410.8,19.5l-0.4-0.4l-0.3,0.4l0.3,0.4L1410.8,19.5z M1411.5,20.2l-0.3,0.4l0.3,0.4l0.3-0.4
	L1411.5,20.2z M1411.8,19.9l0.4,0.4l0,0L1411.8,19.9z M1416,15.7l0.3-0.4L1416,15l-0.3,0.4L1416,15.7z M1420.2,19.9l-0.4,0.4l0,0
	L1420.2,19.9z M1420.5,20.2l-0.3,0.4l0.3,0.4l0.3-0.4L1420.5,20.2z M1421.2,19.5l0.4,0.4l0.3-0.4l-0.3-0.4L1421.2,19.5z
	 M1420.8,19.1l0.4-0.4l0,0L1420.8,19.1z M1416.7,15l-0.4-0.4L1416,15l0.3,0.4L1416.7,15z M1420.8,10.9l0.4,0.4l0,0L1420.8,10.9z
	 M1421.2,10.5l0.4,0.4l0.3-0.4l-0.3-0.4L1421.2,10.5z M1420.5,9.8l0.3-0.4l-0.3-0.4l-0.3,0.4L1420.5,9.8z M1420.2,10.1l-0.4-0.4l0,0
	L1420.2,10.1z M1416,14.3l-0.3,0.4l0.3,0.4l0.3-0.4L1416,14.3z M1411.2,10.1l0.3,0.4l0.7-0.7l-0.4-0.4L1411.2,10.1z M1411.2,10.9
	l0.7-0.7l-0.7-0.7l-0.7,0.7L1411.2,10.9z M1411.5,10.5l-0.3-0.4l-0.7,0.7l0.4,0.4L1411.5,10.5z M1415.7,14.6l-4.2-4.1l-0.7,0.7
	l4.1,4.1L1415.7,14.6z M1411.5,19.5l4.2-4.1l-0.7-0.7l-4.1,4.1L1411.5,19.5z M1411.2,19.9l0.3-0.4l-0.7-0.7l-0.4,0.4L1411.2,19.9z
	 M1411.8,19.9l-0.7-0.7l-0.7,0.7l0.7,0.7L1411.8,19.9z M1411.5,19.5l-0.3,0.4l0.7,0.7l0.4-0.4L1411.5,19.5z M1415.7,15.4l-4.2,4.1
	l0.7,0.7l4.1-4.1L1415.7,15.4z M1420.5,19.5l-4.2-4.1l-0.7,0.7l4.1,4.1L1420.5,19.5z M1420.8,19.9l-0.3-0.4l-0.7,0.7l0.4,0.4
	L1420.8,19.9z M1420.8,19.1l-0.7,0.7l0.7,0.7l0.7-0.7L1420.8,19.1z M1420.5,19.5l0.3,0.4l0.7-0.7l-0.4-0.4L1420.5,19.5z
	 M1416.3,15.4l4.2,4.1l0.7-0.7l-4.1-4.1L1416.3,15.4z M1420.5,10.5l-4.2,4.1l0.7,0.7l4.1-4.1L1420.5,10.5z M1420.8,10.1l-0.3,0.4
	l0.7,0.7l0.4-0.4L1420.8,10.1z M1420.2,10.1l0.7,0.7l0.7-0.7l-0.7-0.7L1420.2,10.1z M1420.5,10.5l0.3-0.4l-0.7-0.7l-0.4,0.4
	L1420.5,10.5z M1416.3,14.6l4.2-4.1l-0.7-0.7l-4.1,4.1L1416.3,14.6z M1411.5,10.5l4.2,4.1l0.7-0.7l-4.1-4.1L1411.5,10.5z"/>
<rect x="1365.5" y="10.5" class="st10" width="9" height="9"/>
<rect x="1319" y="14" class="st9" width="10" height="1"/>
<rect x="487" y="16" class="st11" width="1" height="21"/>
<path class="st12" d="M510,20c-0.6,0-1,0.4-1,1v4h-4c-0.6,0-1,0.4-1,1s0.4,1,1,1h4v4c0,0.6,0.4,1,1,1s1-0.4,1-1v-4h4
	c0.6,0,1-0.4,1-1s-0.4-1-1-1h-4v-4C511,20.4,510.6,20,510,20z"/>
<path class="st13" d="M472.9,26l3.1,3.1c0,0,0,0.1,0,0.1s0,0.1,0,0.1l-0.6,0.6c0,0-0.1,0-0.1,0c-0.1,0-0.1,0-0.1,0l-3.1-3.1
	l-3.1,3.1c0,0-0.1,0-0.1,0c-0.1,0-0.1,0-0.1,0l-0.6-0.6c0,0,0-0.1,0-0.1s0-0.1,0-0.1l3.1-3.1l-3.1-3.1c0,0,0-0.1,0-0.1s0-0.1,0-0.1
	l0.6-0.6c0,0,0.1,0,0.1,0c0.1,0,0.1,0,0.1,0l3.1,3.1l3.1-3.1c0,0,0.1,0,0.1,0c0.1,0,0.1,0,0.1,0l0.6,0.6c0,0,0,0.1,0,0.1
	s0,0.1,0,0.1L472.9,26z"/>
<path class="st13" d="M291.9,28.8c-0.3,0.4-0.8,0.8-1.3,1c-0.6,0.2-1.2,0.3-2,0.3c-0.8,0-1.4-0.2-2-0.5c-0.6-0.4-1-0.9-1.4-1.5
	c-0.3-0.7-0.5-1.4-0.5-2.3V25c0-1.4,0.3-2.5,1-3.2c0.7-0.8,1.6-1.1,2.7-1.1c1,0,1.7,0.2,2.3,0.7c0.6,0.5,0.9,1.2,1.1,2.1h-1.2
	c-0.2-1.2-1-1.8-2.2-1.8c-0.8,0-1.4,0.3-1.9,0.9c-0.4,0.6-0.6,1.4-0.6,2.5v0.8c0,1,0.2,1.9,0.7,2.5c0.5,0.6,1.1,0.9,1.9,0.9
	c0.5,0,0.9-0.1,1.2-0.2c0.3-0.1,0.6-0.3,0.9-0.5v-2.1h-2.1v-1h3.4V28.8z M293.4,26.5c0-0.7,0.1-1.3,0.4-1.8c0.3-0.5,0.6-1,1.1-1.2
	c0.5-0.3,1-0.4,1.6-0.4c0.9,0,1.7,0.3,2.3,1c0.6,0.6,0.9,1.5,0.9,2.6v0.1c0,0.7-0.1,1.3-0.4,1.8c-0.3,0.5-0.6,0.9-1.1,1.2
	c-0.5,0.3-1,0.4-1.6,0.4c-0.9,0-1.7-0.3-2.3-1C293.7,28.5,293.4,27.7,293.4,26.5L293.4,26.5z M294.6,26.6c0,0.8,0.2,1.4,0.5,1.8
	c0.4,0.5,0.8,0.7,1.4,0.7c0.6,0,1.1-0.2,1.4-0.7c0.4-0.5,0.5-1.1,0.5-2c0-0.8-0.2-1.4-0.5-1.8c-0.4-0.5-0.8-0.7-1.4-0.7
	c-0.6,0-1,0.2-1.4,0.7C294.8,25.1,294.6,25.8,294.6,26.6z M300.9,26.5c0-0.7,0.1-1.3,0.4-1.8c0.3-0.5,0.6-1,1.1-1.2
	c0.5-0.3,1-0.4,1.6-0.4c0.9,0,1.7,0.3,2.3,1c0.6,0.6,0.9,1.5,0.9,2.6v0.1c0,0.7-0.1,1.3-0.4,1.8c-0.3,0.5-0.6,0.9-1.1,1.2
	c-0.5,0.3-1,0.4-1.6,0.4c-0.9,0-1.7-0.3-2.3-1C301.1,28.5,300.9,27.7,300.9,26.5L300.9,26.5z M302,26.6c0,0.8,0.2,1.4,0.5,1.8
	c0.4,0.5,0.8,0.7,1.4,0.7c0.6,0,1.1-0.2,1.4-0.7c0.4-0.5,0.5-1.1,0.5-2c0-0.8-0.2-1.4-0.5-1.8c-0.4-0.5-0.8-0.7-1.4-0.7
	c-0.6,0-1,0.2-1.4,0.7C302.2,25.1,302,25.8,302,26.6z M308.3,26.5c0-1.1,0.2-1.9,0.7-2.6c0.5-0.6,1.2-1,2-1c0.8,0,1.5,0.3,2,0.9
	l0.1-0.8h1.1v6.7c0,0.9-0.3,1.6-0.8,2.1c-0.5,0.5-1.2,0.8-2.1,0.8c-0.5,0-1-0.1-1.5-0.3s-0.8-0.5-1.1-0.9l0.6-0.7
	c0.5,0.6,1.1,0.9,1.8,0.9c0.6,0,1-0.2,1.3-0.5c0.3-0.3,0.5-0.8,0.5-1.4v-0.6c-0.5,0.5-1.1,0.8-1.9,0.8c-0.8,0-1.5-0.3-2-1
	C308.5,28.5,308.3,27.6,308.3,26.5z M309.5,26.6c0,0.8,0.2,1.4,0.5,1.8c0.3,0.4,0.8,0.7,1.3,0.7c0.7,0,1.3-0.3,1.6-1V25
	c-0.4-0.7-0.9-1-1.6-1c-0.6,0-1,0.2-1.3,0.7C309.6,25.1,309.5,25.8,309.5,26.6z M317.2,30H316v-9.8h1.2V30z M321.9,30.1
	c-0.9,0-1.7-0.3-2.3-0.9c-0.6-0.6-0.9-1.4-0.9-2.5v-0.2c0-0.7,0.1-1.3,0.4-1.8c0.3-0.5,0.6-1,1.1-1.3c0.5-0.3,1-0.5,1.5-0.5
	c0.9,0,1.6,0.3,2.1,0.9c0.5,0.6,0.7,1.4,0.7,2.5v0.5h-4.7c0,0.7,0.2,1.2,0.6,1.6c0.4,0.4,0.9,0.6,1.4,0.6c0.4,0,0.8-0.1,1.1-0.3
	c0.3-0.2,0.5-0.4,0.8-0.7l0.7,0.6C323.9,29.7,323,30.1,321.9,30.1z M321.7,24c-0.5,0-0.9,0.2-1.2,0.5c-0.3,0.3-0.5,0.8-0.6,1.4h3.4
	v-0.1c0-0.6-0.2-1.1-0.5-1.4C322.6,24.1,322.2,24,321.7,24z"/>
<defs>
	<filter id="Adobe_OpacityMaskFilter" filterUnits="userSpaceOnUse" x="260" y="18" width="16" height="16">
		<feColorMatrix  type="matrix" values="1 0 0 0 0  0 1 0 0 0  0 0 1 0 0  0 0 0 1 0"/>
	</filter>
</defs>
<mask maskUnits="userSpaceOnUse" x="260" y="18" width="16" height="16" id="mask4_2_">
	<rect x="260" y="18" class="st14" width="16" height="16"/>
</mask>
<g class="st15">
	<path class="st16" d="M263.6,27.6l-0.6,2.1l-2,0c-0.6-1.1-1-2.4-1-3.8c0-1.3,0.3-2.6,0.9-3.7l0,0l1.8,0.3l0.8,1.8
		c-0.2,0.5-0.3,1-0.3,1.5C263.3,26.5,263.4,27.1,263.6,27.6z"/>
	<path class="st17" d="M275.9,24.5c0.1,0.5,0.1,1,0.1,1.5c0,0.6-0.1,1.1-0.2,1.7c-0.4,1.8-1.4,3.4-2.8,4.6v0l-2.3-0.1l-0.3-2
		c0.9-0.5,1.7-1.4,2.1-2.4h-4.3v-3.2h4.3H275.9z"/>
	<path class="st18" d="M273,32.3L273,32.3c-1.4,1.1-3.1,1.7-5,1.7c-3.1,0-5.7-1.7-7.1-4.2l2.6-2.1c0.7,1.8,2.4,3.1,4.5,3.1
		c0.9,0,1.7-0.2,2.4-0.6L273,32.3z"/>
	<path class="st19" d="M273.2,19.8l-2.6,2.1c-0.7-0.5-1.6-0.7-2.5-0.7c-2.1,0-3.9,1.3-4.5,3.2l-2.6-2.1h0c1.3-2.5,4-4.3,7.1-4.3
		C270,18,271.8,18.7,273.2,19.8z"/>
</g>
<path class="st20" d="M9,17c0-4.4,3.6-8,8-8h224c4.4,0,8,3.6,8,8v18c0,0,0.1,3.4,2.4,5.7c2.2,2.2,5.6,2.3,5.6,2.3h-8H9H1
	c0,0,3.5-0.1,5.7-2.4C8.9,38.2,9,35,9,35V17z"/>
<path class="st21" d="M233.9,26l3.1,3.1c0,0,0.1,0.1,0.1,0.1s0,0.1-0.1,0.1l-0.6,0.6c0,0-0.1,0-0.1,0c-0.1,0-0.1,0-0.1,0l-3.1-3.1
	l-3.1,3.1c0,0-0.1,0-0.1,0c-0.1,0-0.1,0-0.1,0l-0.6-0.6c0,0-0.1-0.1-0.1-0.1s0-0.1,0.1-0.1l3.1-3.1l-3.1-3.1c0,0-0.1-0.1-0.1-0.1
	s0-0.1,0.1-0.1l0.6-0.6c0,0,0.1,0,0.1,0c0.1,0,0.1,0,0.1,0l3.1,3.1l3.1-3.1c0,0,0.1,0,0.1,0c0.1,0,0.1,0,0.1,0l0.6,0.6
	c0,0,0.1,0.1,0.1,0.1s0,0.1-0.1,0.1L233.9,26z"/>
<path class="st13" d="M48.9,25.4l2.4-4.6h1.4l-3.2,5.8V30h-1.2v-3.4l-3.2-5.8h1.4L48.9,25.4z M53,26.5c0-0.7,0.1-1.3,0.4-1.8
	c0.3-0.5,0.6-1,1.1-1.2c0.5-0.3,1-0.4,1.6-0.4c0.9,0,1.7,0.3,2.3,1c0.6,0.6,0.9,1.5,0.9,2.6v0.1c0,0.7-0.1,1.3-0.4,1.8
	c-0.3,0.5-0.6,0.9-1.1,1.2c-0.5,0.3-1,0.4-1.6,0.4c-0.9,0-1.7-0.3-2.3-1C53.3,28.5,53,27.7,53,26.5L53,26.5z M54.1,26.6
	c0,0.8,0.2,1.4,0.5,1.8c0.4,0.5,0.8,0.7,1.4,0.7c0.6,0,1.1-0.2,1.4-0.7c0.4-0.5,0.5-1.1,0.5-2c0-0.8-0.2-1.4-0.5-1.8
	c-0.4-0.5-0.8-0.7-1.4-0.7c-0.6,0-1,0.2-1.4,0.7C54.3,25.1,54.1,25.8,54.1,26.6z M64.9,29.3c-0.5,0.5-1.1,0.8-2,0.8
	c-0.7,0-1.3-0.2-1.7-0.6c-0.4-0.4-0.6-1.1-0.6-1.9v-4.5h1.2v4.4c0,1,0.4,1.6,1.3,1.6c0.9,0,1.5-0.3,1.8-1v-5h1.2V30H65L64.9,29.3z
	 M71.2,24.2c-0.2,0-0.4,0-0.6,0c-0.8,0-1.3,0.3-1.6,1V30h-1.2v-6.9H69l0,0.8c0.4-0.6,0.9-0.9,1.6-0.9c0.2,0,0.4,0,0.5,0.1V24.2z
	 M78.4,25.9c-1-0.3-1.8-0.7-2.3-1.1c-0.5-0.4-0.7-1-0.7-1.6c0-0.7,0.3-1.3,0.9-1.8c0.6-0.5,1.3-0.7,2.3-0.7c0.6,0,1.2,0.1,1.7,0.4
	c0.5,0.2,0.9,0.6,1.2,1c0.3,0.4,0.4,0.9,0.4,1.4h-1.2c0-0.6-0.2-1-0.5-1.3c-0.4-0.3-0.9-0.5-1.5-0.5c-0.6,0-1.1,0.1-1.4,0.4
	c-0.3,0.3-0.5,0.6-0.5,1.1c0,0.4,0.2,0.7,0.5,1c0.3,0.3,0.9,0.5,1.6,0.7c0.8,0.2,1.4,0.5,1.8,0.7c0.4,0.3,0.8,0.6,1,0.9
	c0.2,0.3,0.3,0.8,0.3,1.2c0,0.7-0.3,1.3-0.9,1.8c-0.6,0.4-1.4,0.7-2.3,0.7c-0.6,0-1.2-0.1-1.8-0.4c-0.6-0.2-1-0.6-1.3-1
	c-0.3-0.4-0.4-0.9-0.4-1.4h1.2c0,0.6,0.2,1,0.6,1.3c0.4,0.3,1,0.5,1.7,0.5c0.6,0,1.1-0.1,1.5-0.4c0.3-0.3,0.5-0.6,0.5-1.1
	s-0.2-0.8-0.5-1C79.8,26.4,79.2,26.1,78.4,25.9z M84.5,30h-1.2v-6.9h1.2V30z M83.2,21.3c0-0.2,0.1-0.4,0.2-0.5
	c0.1-0.1,0.3-0.2,0.5-0.2s0.4,0.1,0.5,0.2c0.1,0.1,0.2,0.3,0.2,0.5c0,0.2-0.1,0.3-0.2,0.5c-0.1,0.1-0.3,0.2-0.5,0.2
	s-0.4-0.1-0.5-0.2C83.3,21.7,83.2,21.5,83.2,21.3z M88,21.5v1.7h1.3V24H88v4.3c0,0.3,0.1,0.5,0.2,0.6c0.1,0.1,0.3,0.2,0.6,0.2
	c0.1,0,0.3,0,0.6-0.1v1c-0.3,0.1-0.6,0.1-0.9,0.1c-0.5,0-0.9-0.2-1.2-0.5c-0.3-0.3-0.4-0.8-0.4-1.4V24h-1.3v-0.9h1.3v-1.7H88z
	 M93.5,30.1c-0.9,0-1.7-0.3-2.3-0.9c-0.6-0.6-0.9-1.4-0.9-2.5v-0.2c0-0.7,0.1-1.3,0.4-1.8c0.3-0.5,0.6-1,1.1-1.3
	c0.5-0.3,1-0.5,1.5-0.5c0.9,0,1.6,0.3,2.1,0.9c0.5,0.6,0.7,1.4,0.7,2.5v0.5h-4.7c0,0.7,0.2,1.2,0.6,1.6c0.4,0.4,0.9,0.6,1.4,0.6
	c0.4,0,0.8-0.1,1.1-0.3c0.3-0.2,0.5-0.4,0.8-0.7l0.7,0.6C95.5,29.7,94.6,30.1,93.5,30.1z M93.3,24c-0.5,0-0.9,0.2-1.2,0.5
	c-0.3,0.3-0.5,0.8-0.6,1.4H95v-0.1c0-0.6-0.2-1.1-0.5-1.4C94.2,24.1,93.8,24,93.3,24z M107.1,21.8h-3V30h-1.2v-8.2h-3v-1h7.1V21.8z
	 M109.5,30h-1.2v-6.9h1.2V30z M108.3,21.3c0-0.2,0.1-0.4,0.2-0.5c0.1-0.1,0.3-0.2,0.5-0.2c0.2,0,0.4,0.1,0.5,0.2
	c0.1,0.1,0.2,0.3,0.2,0.5c0,0.2-0.1,0.3-0.2,0.5c-0.1,0.1-0.3,0.2-0.5,0.2c-0.2,0-0.4-0.1-0.5-0.2C108.3,21.7,108.3,21.5,108.3,21.3
	z M113,21.5v1.7h1.3V24H113v4.3c0,0.3,0.1,0.5,0.2,0.6c0.1,0.1,0.3,0.2,0.6,0.2c0.1,0,0.3,0,0.6-0.1v1c-0.3,0.1-0.6,0.1-0.9,0.1
	c-0.5,0-0.9-0.2-1.2-0.5c-0.3-0.3-0.4-0.8-0.4-1.4V24h-1.3v-0.9h1.3v-1.7H113z M116.9,30h-1.2v-9.8h1.2V30z M121.7,30.1
	c-0.9,0-1.7-0.3-2.3-0.9c-0.6-0.6-0.9-1.4-0.9-2.5v-0.2c0-0.7,0.1-1.3,0.4-1.8c0.3-0.5,0.6-1,1.1-1.3c0.5-0.3,1-0.5,1.5-0.5
	c0.9,0,1.6,0.3,2.1,0.9c0.5,0.6,0.7,1.4,0.7,2.5v0.5h-4.7c0,0.7,0.2,1.2,0.6,1.6c0.4,0.4,0.9,0.6,1.4,0.6c0.4,0,0.8-0.1,1.1-0.3
	c0.3-0.2,0.5-0.4,0.8-0.7l0.7,0.6C123.7,29.7,122.8,30.1,121.7,30.1z M121.5,24c-0.5,0-0.9,0.2-1.2,0.5c-0.3,0.3-0.5,0.8-0.6,1.4
	h3.4v-0.1c0-0.6-0.2-1.1-0.5-1.4C122.4,24.1,122,24,121.5,24z"/>
<defs>
	<filter id="Adobe_OpacityMaskFilter_1_" filterUnits="userSpaceOnUse" x="21" y="18" width="16" height="16">
		<feColorMatrix  type="matrix" values="1 0 0 0 0  0 1 0 0 0  0 0 1 0 0  0 0 0 1 0"/>
	</filter>
</defs>
<mask maskUnits="userSpaceOnUse" x="21" y="18" width="16" height="16" id="mask5_2_">
	<rect x="21" y="18" class="st22" width="16" height="16"/>
</mask>
<g class="st23">
	<path class="st24" d="M22.9,20.8c3.7-4.3,10.6-3.5,13.2,1.6c-1.8,0-4.6,0-6.2,0c-1.1,0-1.8,0-2.6,0.4c-0.9,0.5-1.6,1.4-1.8,2.4
		L22.9,20.8z"/>
	<path class="st25" d="M26.3,26c0,1.5,1.2,2.7,2.7,2.7c1.5,0,2.7-1.2,2.7-2.7c0-1.5-1.2-2.7-2.7-2.7C27.5,23.3,26.3,24.5,26.3,26z"
		/>
	<path class="st26" d="M30,29.5c-1.5,0.4-3.2,0-4.2-1.7c-0.7-1.3-2.7-4.6-3.5-6.1c-3.1,4.7-0.4,11.1,5.1,12.2L30,29.5z"/>
	<path class="st27" d="M31.4,23.3c1.2,1.2,1.5,3,0.7,4.5c-0.6,1.1-2.7,4.5-3.6,6.2c5.7,0.4,9.9-5.3,8-10.6L31.4,23.3z"/>
</g>
</svg>
