
<!-- Generator: Adobe Illustrator 19.2.1, SVG Export Plug-In . SVG Version: 6.00 Build 0)  -->
<svg version="1.1" xmlns="http://www.w3.org/2000/svg" xmlns:xlink="http://www.w3.org/1999/xlink" x="0px" y="0px"
	 viewBox="0 0 554.1 455" style="enable-background:new 0 0 554.1 455;" xml:space="preserve">
<style type="text/css">
	.st0{opacity:0.23;fill:url(#SVGID_1_);}
	.st1{filter:url(#Adobe_OpacityMaskFilter);}
	.st2{fill:url(#SVGID_3_);}
	.st3{opacity:0.33;mask:url(#SVGID_2_);fill:url(#SVGID_4_);}
	.st4{fill:url(#SVGID_5_);}
	.st5{fill:url(#SVGID_6_);}
	.st6{fill:url(#SVGID_7_);}
	.st7{fill:url(#SVGID_8_);}
	.st8{fill:url(#SVGID_9_);}
	.st9{fill:url(#SVGID_10_);}
	.st10{fill:#231F20;}
	.st11{fill:url(#SVGID_11_);}
</style>
<g id="Layer_1">
</g>
<g id="Layer_2">
</g>
<g id="Layer_3">
</g>
<g id="Layer_4">
	<linearGradient id="SVGID_1_" gradientUnits="userSpaceOnUse" x1="243.5918" y1="165.5002" x2="554.0688" y2="165.5002">
		<stop  offset="0" style="stop-color:#FFFFFF;stop-opacity:0"/>
		<stop  offset="1" style="stop-color:#FFFFFF"/>
	</linearGradient>
	<path class="st0" d="M441.3,0h96.2c0,0,18.4,0.1,16.4,18.9L553.3,331H243.6"/>
	<defs>
		<filter id="Adobe_OpacityMaskFilter" filterUnits="userSpaceOnUse" x="139.6" y="430.1" width="278.5" height="24.9">
			<feColorMatrix  type="matrix" values="1 0 0 0 0  0 1 0 0 0  0 0 1 0 0  0 0 0 1 0"/>
		</filter>
	</defs>
	<mask maskUnits="userSpaceOnUse" x="139.6" y="430.1" width="278.5" height="24.9" id="SVGID_2_">
		<g class="st1">
			
				<radialGradient id="SVGID_3_" cx="278.8628" cy="1807.3981" r="139.2515" gradientTransform="matrix(1 0 0 8.930000e-002 0 281.18)" gradientUnits="userSpaceOnUse">
				<stop  offset="0" style="stop-color:#FFFFFF"/>
				<stop  offset="1" style="stop-color:#14130A"/>
			</radialGradient>
			<ellipse class="st2" cx="278.9" cy="442.6" rx="139.3" ry="12.4"/>
		</g>
	</mask>
	<linearGradient id="SVGID_4_" gradientUnits="userSpaceOnUse" x1="278.8983" y1="454.9851" x2="278.8278" y2="430.3531">
		<stop  offset="0" style="stop-color:#4D4848"/>
		<stop  offset="0.3539" style="stop-color:#14130A"/>
		<stop  offset="1" style="stop-color:#14130A"/>
	</linearGradient>
	<ellipse class="st3" cx="278.9" cy="442.6" rx="139.3" ry="12.4"/>
	<g>
		<linearGradient id="SVGID_5_" gradientUnits="userSpaceOnUse" x1="192.9352" y1="440.0005" x2="368.1597" y2="440.0005">
			<stop  offset="6.060610e-003" style="stop-color:#58595B"/>
			<stop  offset="0.2803" style="stop-color:#757679"/>
			<stop  offset="0.5091" style="stop-color:#88898D"/>
			<stop  offset="1" style="stop-color:#58595B"/>
		</linearGradient>
		<path class="st4" d="M194,437v1.1c0,0.1,0,0.1,0,0.2v0.1c0,3.2,4.5,4.7,18.1,4.7c26.4,0,54.9,0,65.4,0c2.6,0,4.1,0,4.1,0
			c10.4,0,39,0,65.4,0c13.6,0,18.4-2,18.4-5H365v-1H194z"/>
		<linearGradient id="SVGID_6_" gradientUnits="userSpaceOnUse" x1="278.6049" y1="374.5005" x2="278.6049" y2="451.048">
			<stop  offset="8.484850e-002" style="stop-color:#6D6F73"/>
			<stop  offset="0.127" style="stop-color:#97999C"/>
			<stop  offset="0.1841" style="stop-color:#CCCDCE"/>
			<stop  offset="0.2121" style="stop-color:#E0E1E2"/>
			<stop  offset="0.3152" style="stop-color:#A7A9AC"/>
			<stop  offset="0.3893" style="stop-color:#868789"/>
			<stop  offset="0.4606" style="stop-color:#636363"/>
			<stop  offset="0.5264" style="stop-color:#6E6F6F"/>
			<stop  offset="0.6452" style="stop-color:#8B8D8F"/>
			<stop  offset="0.7394" style="stop-color:#A6AAAD"/>
		</linearGradient>
		<path class="st5" d="M347.9,418.5c-12.2-12.4-12.6-39.5-12.6-39.5h-54.6h-4.1H222c0,0-0.5,27.1-12.6,39.5
			c-12.2,12.4-31.2,23.5,1.8,23.5c26.4,0,54.9,0,65.4,0c2.6,0,4.1,0,4.1,0c10.4,0,39,0,65.4,0C379,442,360,430.9,347.9,418.5z"/>
		<radialGradient id="SVGID_7_" cx="362.3013" cy="471.2912" r="64.1876" gradientUnits="userSpaceOnUse">
			<stop  offset="0" style="stop-color:#FFFFFF"/>
			<stop  offset="1" style="stop-color:#FFFFFF;stop-opacity:0"/>
		</radialGradient>
		<path class="st6" d="M289.5,442c6.7-15,28.3-27,55.1-29.7c1.2,2.1,2.6,4,4.2,5.6c11.9,12.2,30.5,23-0.1,24H289.5z"/>
		
			<radialGradient id="SVGID_8_" cx="410.1826" cy="471.2912" r="64.1876" gradientTransform="matrix(-1 0 0 1 606.9258 0)" gradientUnits="userSpaceOnUse">
			<stop  offset="0" style="stop-color:#FFFFFF"/>
			<stop  offset="1" style="stop-color:#FFFFFF;stop-opacity:0"/>
		</radialGradient>
		<path class="st7" d="M269.6,442c-6.7-15-28.3-27-55.1-29.7c-1.2,2.1-2.6,4-4.2,5.6c-11.9,12.2-30.5,23,0.1,24H269.6z"/>
		<linearGradient id="SVGID_9_" gradientUnits="userSpaceOnUse" x1="210.417" y1="442.1255" x2="346.9375" y2="442.1255">
			<stop  offset="6.060610e-003" style="stop-color:#FFFFFF;stop-opacity:0"/>
			<stop  offset="0.5091" style="stop-color:#FFFFFF"/>
			<stop  offset="1" style="stop-color:#FFFFFF;stop-opacity:0"/>
		</linearGradient>
		<path class="st8" d="M210.4,442.1c11.4-0.2,22.8-0.3,34.1-0.4l34.1-0.1l34.1,0.1l17.1,0.1l17.1,0.2l-17.1,0.2l-17.1,0.1l-34.1,0.1
			l-34.1-0.1C233.2,442.4,221.8,442.3,210.4,442.1z"/>
		<linearGradient id="SVGID_10_" gradientUnits="userSpaceOnUse" x1="-9.6752" y1="374.268" x2="592.571" y2="334.7916">
			<stop  offset="0" style="stop-color:#78797D"/>
			<stop  offset="0.3173" style="stop-color:#737478"/>
			<stop  offset="0.4909" style="stop-color:#6D6F73"/>
			<stop  offset="1" style="stop-color:#6D6F73"/>
		</linearGradient>
		<path class="st9" d="M0,363.2c0,9.1,7.9,16.8,17,16.8h255.9h8.7h255.9c9.1,0,16.5-7.6,16.5-16.8V332H0V363.2z"/>
		<path class="st10" d="M537.5,0H281.6h-8.7H17C7.9,0,0,6.5,0,15.6V331h554V15.6C554,6.5,546.6,0,537.5,0z M531,308H23V22h508V308z"
			/>
		<linearGradient id="SVGID_11_" gradientUnits="userSpaceOnUse" x1="-9.62" y1="373.2627" x2="592.5671" y2="333.7901">
			<stop  offset="0" style="stop-color:#898A8F"/>
			<stop  offset="4.993153e-002" style="stop-color:#909196"/>
			<stop  offset="0.3137" style="stop-color:#B1B2B6"/>
			<stop  offset="0.5663" style="stop-color:#C8CACD"/>
			<stop  offset="0.801" style="stop-color:#D6D8DB"/>
			<stop  offset="1" style="stop-color:#DBDDE0"/>
		</linearGradient>
		<path class="st11" d="M0,361.4c0,9.1,7.9,17.6,17,17.6h255.9h8.7h255.9c9.1,0,16.5-8.5,16.5-17.6V331H0V361.4z"/>
	</g>
</g>
<g id="Layer_5">
</g>
</svg>
