
<!-- Generator: Element Pack Addon  -->
<svg version="1.1" id="Layer_1" xmlns="http://www.w3.org/2000/svg" xmlns:xlink="http://www.w3.org/1999/xlink" x="0px" y="0px"
	 viewBox="0 0 1442.4 811" style="enable-background:new 0 0 1442.4 811;" xml:space="preserve">
<style type="text/css">
	.st0{display:none;}
	.st1{display:inline;}
	.st2{fill:#010101;fill-opacity:1.000000e-02;}
	.st3{display:inline;fill:#E9E8E8;}
	.st4{display:inline;fill:#CECECD;}
	.st5{display:inline;fill:#F3F3F3;}
	.st6{display:inline;fill-rule:evenodd;clip-rule:evenodd;fill:#020202;}
	.st7{display:inline;fill:none;stroke:#020202;stroke-linecap:round;stroke-linejoin:round;}
	.st8{display:inline;fill:none;stroke:#020202;}
	.st9{display:inline;fill-rule:evenodd;clip-rule:evenodd;fill:#D8D9D8;}
	.st10{display:inline;fill-rule:evenodd;clip-rule:evenodd;fill:#FFFFFF;filter:url(#Adobe_OpacityMaskFilter);}
	.st11{display:inline;mask:url(#path-68-inside-2_2_);fill:#979797;}
	.st12{display:inline;fill-rule:evenodd;clip-rule:evenodd;fill:#9F9F9F;}
	.st13{display:inline;fill-rule:evenodd;clip-rule:evenodd;fill:#3A3A39;}
	.st14{display:inline;fill:#FFFFFF;stroke:#CCCCCC;}
	.st15{display:inline;fill:#020202;}
	.st16{display:inline;fill-rule:evenodd;clip-rule:evenodd;fill:#939393;}
	.st17{display:inline;fill:#CCCCCC;}
	.st18{display:inline;fill-rule:evenodd;clip-rule:evenodd;fill:#010101;}
	.st19{display:inline;fill:#7D7D7D;}
	.st20{display:inline;fill:#292929;}
	.st21{display:inline;fill:#FFFFFF;filter:url(#Adobe_OpacityMaskFilter_1_);}
	.st22{display:inline;mask:url(#mask4_2_);}
	.st23{fill:#F9BB16;}
	.st24{fill:#6287C5;}
	.st25{fill:#2FB44A;}
	.st26{fill:#EF4438;}
	.st27{display:inline;fill-rule:evenodd;clip-rule:evenodd;fill:#C7C6C5;}
	.st28{display:inline;fill:#010101;}
	.st29{display:inline;fill:#FFFFFF;filter:url(#Adobe_OpacityMaskFilter_2_);}
	.st30{display:inline;mask:url(#mask5_2_);}
	.st31{fill:#488FCC;}
	.st32{display:inline;fill:#040404;}
	.st33{display:inline;fill-rule:evenodd;clip-rule:evenodd;fill:#040404;}
	.st34{display:inline;fill:none;stroke:#010101;}
	.st35{fill:#E0E1E0;}
	.st36{fill:#5C5C5C;}
	.st37{fill:#181818;}
	.st38{fill-rule:evenodd;clip-rule:evenodd;fill:#FFFFFF;}
	.st39{fill:none;stroke:#FFFFFF;stroke-linecap:round;stroke-linejoin:round;}
	.st40{fill:none;stroke:#EBEBEB;}
	.st41{fill-rule:evenodd;clip-rule:evenodd;fill:#EAEAEA;}
	.st42{fill-rule:evenodd;clip-rule:evenodd;fill:#D8D9D8;}
	.st43{fill-rule:evenodd;clip-rule:evenodd;fill:#FFFFFF;filter:url(#Adobe_OpacityMaskFilter_3_);}
	.st44{mask:url(#path-16-inside-1_2_);fill:#979797;}
	.st45{fill-rule:evenodd;clip-rule:evenodd;fill:#9F9F9F;}
	.st46{fill:#373737;stroke:#5C5C5C;}
	.st47{fill:#9F9F9F;}
	.st48{fill:#FFFFFF;}
	.st49{fill-rule:evenodd;clip-rule:evenodd;fill:#787878;}
	.st50{fill:#2B2C2B;}
	.st51{fill:#EAEAEA;}
	.st52{fill:#FFFFFF;filter:url(#Adobe_OpacityMaskFilter_4_);}
	.st53{mask:url(#mask1_2_);}
	.st54{fill-rule:evenodd;clip-rule:evenodd;fill:#C7C6C5;}
	.st55{fill:#F3F3F3;}
	.st56{fill:#FFFFFF;filter:url(#Adobe_OpacityMaskFilter_5_);}
	.st57{mask:url(#mask2_2_);}
	.st58{fill:#5D5D5D;}
	.st59{fill:none;stroke:#FFFFFF;}
</style>
<g class="st0">
	<g class="st1">
		<path class="st2" d="M1,2v808h1440V2H1z M1440,809H2V79h1438V809z"/>
	</g>
	<path class="st3" d="M0,0v811h1442V0H0z M1440,809H2V79h1438V809z"/>
	<rect x="2" y="78" class="st4" width="1438" height="1"/>
	<rect x="2" y="34" class="st5" width="1438" height="44"/>
	<path class="st6" d="M1287,53h7v1h-7V53z M1287,56h7v1h-7V56z M1294,59h-7v1h7V59z"/>
	<path class="st7" d="M1287.6,53.5l-1.6-5.3l-1.6,5.3h-5.8l5.1,3.5l-2.3,5.5l4.6-4.1"/>
	<path class="st8" d="M1328.1,62.4c4.9-3.5,4.5,1.2,10.1-0.7"/>
	<path class="st6" d="M1332.4,49.2c0.4,0.2,0.6,0.5,0.7,0.9c0.1,0.4,0,0.8-0.2,1.1l-4.5,7.8c-0.4,0.7-1,1.4-1.6,2
		c-0.7,0.6-1.4,1-2.2,1.3l-0.1,0c-0.2,0-0.3,0-0.5-0.1c-0.1-0.1-0.2-0.2-0.3-0.4c-0.1-0.9-0.1-1.7,0.1-2.6c0.2-0.9,0.5-1.7,0.9-2.4
		l2.8-4.9l-1-0.6l-1.9,3.2c-0.1,0.1-0.1,0.1-0.2,0.2c-0.1,0-0.2,0-0.3,0l-0.3-0.2c-0.1,0-0.1-0.1-0.2-0.2s0-0.2,0-0.3l2-3.4
		c0.1-0.2,0.3-0.4,0.6-0.4s0.5,0,0.7,0.1l1.1,0.7l1.1-2c0.2-0.4,0.5-0.6,0.9-0.7c0.4-0.1,0.8-0.1,1.2,0.2L1332.4,49.2z M1327.5,58.5
		l2.8-4.9l-1.8-1l-2.8,4.9c-0.6,1.1-0.9,2.3-0.9,3.5C1326,60.4,1326.9,59.6,1327.5,58.5z M1332.1,50.4c0,0.1,0,0.2,0,0.3l-1.1,2
		l-1.7-1l1.1-2c0.1-0.1,0.1-0.2,0.2-0.2c0.1,0,0.2,0,0.3,0l1.1,0.6C1332,50.3,1332,50.3,1332.1,50.4z"/>
	<path class="st9" d="M1367,52h-1v9v1h1h10h1v-1v-1h-1v1h-10V52z"/>
	<defs>
		<filter id="Adobe_OpacityMaskFilter" filterUnits="userSpaceOnUse" x="1365" y="51" width="14" height="12">
			<feColorMatrix  type="matrix" values="1 0 0 0 0  0 1 0 0 0  0 0 1 0 0  0 0 0 1 0"/>
		</filter>
	</defs>
	<mask maskUnits="userSpaceOnUse" x="1365" y="51" width="14" height="12" id="path-68-inside-2_2_" class="st1">
		<path style="fill-rule:evenodd;clip-rule:evenodd;fill:#FFFFFF;filter:url(#Adobe_OpacityMaskFilter);" d="M1367,52h-1v9v1h1h10h1
			v-1v-1h-1v1h-10V52z"/>
	</mask>
	<path class="st11" d="M1366,52v-1h-1v1H1366z M1367,52h1v-1h-1V52z M1366,62h-1v1h1V62z M1378,62v1h1v-1H1378z M1378,60h1v-1h-1V60
		z M1377,60v-1h-1v1H1377z M1377,61v1h1v-1H1377z M1367,61h-1v1h1V61z M1366,53h1v-2h-1V53z M1367,61v-9h-2v9H1367z M1365,61v1h2v-1
		H1365z M1366,63h1v-2h-1V63z M1367,63h10v-2h-10V63z M1377,63h1v-2h-1V63z M1379,62v-1h-2v1H1379z M1379,61v-1h-2v1H1379z M1378,59
		h-1v2h1V59z M1376,60v1h2v-1H1376z M1377,60h-10v2h10V60z M1366,52v9h2v-9H1366z"/>
	<path class="st12" d="M1382,53.2c0,0.3-0.1,0.5-0.3,0.7l-4,3.8c-0.2,0.2-0.5,0.3-0.8,0.3c-0.3,0-0.5-0.1-0.8-0.3
		c-0.2-0.2-0.3-0.4-0.3-0.7v-1.7c-1.1,0.1-1.9,0.2-2.4,0.4c-0.5,0.2-0.8,0.5-0.9,0.9c-0.1,0.3,0,0.8,0.2,1.4
		c0.1,0.3,0.1,0.6-0.1,0.8c-0.2,0.3-0.4,0.4-0.7,0.5c-0.3,0.1-0.6,0-0.9-0.1c-0.7-0.4-1.2-1-1.6-1.6c-0.4-0.7-0.6-1.4-0.6-2.1
		c0-1.6,0.8-2.8,2.3-3.5c1.1-0.5,2.6-0.8,4.6-0.8v-1.7c0-0.3,0.1-0.5,0.3-0.7c0.2-0.2,0.5-0.3,0.8-0.3c0.3,0,0.6,0.1,0.8,0.3l4,3.8
		C1381.9,52.7,1382,52.9,1382,53.2z M1376.9,57l4-3.8l-4-3.8v2.8c-1.3,0-2.4,0.1-3.2,0.2c-1.1,0.2-2,0.5-2.6,0.9
		c-0.7,0.5-1.1,1.3-1.1,2.2c0,0.7,0.2,1.3,0.6,1.8c0.3,0.4,0.7,0.8,1.2,1.1c-0.4-1.1-0.4-1.9,0-2.6c0.3-0.6,1-1,1.9-1.2
		c0.8-0.2,1.9-0.3,3.2-0.3V57z"/>
	<path class="st13" d="M1411,55h2v2h-2V55z M1417,55h2v2h-2V55z M1425,55h-2v2h2V55z"/>
	<rect x="194.5" y="39.5" class="st14" width="1053" height="33"/>
	<path class="st12" d="M1232.8,54.6c-0.1-0.2-0.3-0.3-0.5-0.3l-3.8-0.5l-1.7-3.4c-0.1-0.2-0.3-0.3-0.5-0.4c-0.2-0.1-0.4-0.1-0.6,0
		c-0.2,0.1-0.3,0.2-0.5,0.4l-1.7,3.4l-3.8,0.5c-0.2,0-0.4,0.1-0.5,0.3s-0.2,0.4-0.2,0.6c0,0.2,0.1,0.4,0.3,0.5l2.8,2.6l-0.7,3.7
		c0,0.2,0,0.4,0.1,0.6c0.1,0.2,0.3,0.3,0.5,0.3c0.2,0.1,0.4,0,0.6-0.1l3.4-1.7l3.4,1.7c0.2,0.1,0.4,0.1,0.6,0.1
		c0.2-0.1,0.4-0.2,0.5-0.3c0.1-0.2,0.2-0.4,0.1-0.6l-0.7-3.7l2.8-2.6c0.2-0.2,0.2-0.3,0.3-0.5C1233,55,1232.9,54.8,1232.8,54.6z
		 M1231.3,55.4l-2.6,2.5l0.6,3.5l-3.2-1.7l-3.2,1.7l0.6-3.5l-2.6-2.5l3.6-0.5l1.6-3.2l1.6,3.2L1231.3,55.4z"/>
	<path class="st12" d="M219.8,54.9c0.3,0,0.6,0.1,0.8,0.4c0.2,0.2,0.3,0.5,0.3,0.9v5.7c0,0.3-0.1,0.6-0.3,0.9
		c-0.2,0.2-0.5,0.4-0.8,0.4h-8.6c-0.3,0-0.6-0.1-0.8-0.4c-0.2-0.2-0.3-0.5-0.3-0.9v-5.7c0-0.3,0.1-0.6,0.3-0.9
		c0.2-0.2,0.5-0.4,0.8-0.4h0.8v-1.2c0-0.7,0.2-1.3,0.5-1.8c0.3-0.6,0.7-1,1.3-1.3c0.5-0.3,1.1-0.5,1.8-0.5s1.2,0.2,1.8,0.5
		c0.5,0.3,1,0.8,1.3,1.3c0.3,0.6,0.5,1.2,0.5,1.8v1.2H219.8z M213.1,53.7v1.2h4.7v-1.2c0-0.7-0.2-1.3-0.7-1.7
		c-0.5-0.5-1-0.7-1.7-0.7s-1.2,0.2-1.7,0.7C213.4,52.4,213.1,53,213.1,53.7z M219.8,56.1v5.7h-8.6v-5.7H219.8z"/>
	<path class="st6" d="M163,55.7c0-0.1,0-0.1-0.1-0.2l-1.2-1.2v-3.1c0-0.1,0-0.1-0.1-0.2c0-0.1-0.1-0.1-0.2-0.1h-0.9
		c-0.1,0-0.1,0-0.2,0.1c0,0.1-0.1,0.1-0.1,0.2v1.9l-4.2-3.8c-0.2-0.2-0.4-0.3-0.7-0.3s-0.5,0.1-0.7,0.3l-6.7,6.3
		c-0.1,0-0.1,0.1-0.1,0.2s0,0.1,0.1,0.2l0.6,0.8c0,0,0.1,0.1,0.2,0.1c0.1,0,0.1,0,0.2,0l0.4-0.4v6.2c0,0.1,0,0.3,0.1,0.4
		c0.1,0.1,0.2,0.1,0.3,0.1h4.6c0.1,0,0.1,0,0.2-0.1c0-0.1,0.1-0.1,0.1-0.2v-4h1.8v4c0,0.1,0,0.1,0.1,0.2c0,0.1,0.1,0.1,0.2,0.1h4.6
		c0.1,0,0.2,0,0.3-0.1c0.1-0.1,0.1-0.2,0.1-0.4v-6.2l0.4,0.4c0,0,0.1,0.1,0.2,0c0.1,0,0.1,0,0.2-0.1l0.6-0.8
		C163,55.8,163,55.8,163,55.7z M160.4,55.1v6.4h-2.6v-4c0-0.1,0-0.1-0.1-0.2c0-0.1-0.1-0.1-0.2-0.1h-4c-0.1,0-0.1,0-0.2,0.1
		c0,0.1-0.1,0.1-0.1,0.2v4h-2.6v-6.4l4.7-4.4c0.1-0.1,0.2-0.1,0.3,0L160.4,55.1z"/>
	<path class="st15" d="M105.9,49h4.8c0.1,0,0.2,0,0.2,0.1s0.1,0.1,0.1,0.2v4.9h-1.4v-3.1c-1,0.4-1.8,1.1-2.4,2
		c-0.6,0.9-0.9,1.9-0.9,3c0,1,0.2,1.9,0.7,2.7c0.5,0.8,1.2,1.5,2,2c0.8,0.5,1.8,0.7,2.8,0.7s1.9-0.2,2.8-0.7c0.8-0.5,1.5-1.2,2-2
		c0.5-0.8,0.7-1.7,0.7-2.7c0-0.7-0.1-1.3-0.4-2c-0.2-0.6-0.6-1.2-1-1.7c-0.1-0.1-0.1-0.2-0.1-0.3c0-0.1,0-0.2,0.1-0.2l0.6-0.6
		c0.1-0.1,0.1-0.1,0.2-0.1c0.1,0,0.2,0,0.2,0.1c0.6,0.6,1,1.3,1.3,2.1s0.5,1.6,0.5,2.5c0,1.2-0.3,2.4-0.9,3.4
		c-0.6,1.1-1.5,1.9-2.5,2.5c-1.1,0.6-2.2,0.9-3.5,0.9s-2.4-0.3-3.5-0.9s-1.9-1.4-2.6-2.5c-0.6-1.1-0.9-2.2-0.9-3.4
		c0-1.2,0.3-2.3,0.8-3.3c0.6-1,1.3-1.8,2.3-2.5h-2.2V49z"/>
	<path class="st16" d="M76,56.4L76,56.4c-0.1-0.2-0.2-0.3-0.3-0.3l-6-6l-0.7,0.7l5.3,5.3H61v1h13.3l-5.4,5.4l0.7,0.7l6.2-6.2
		c0,0,0,0,0,0l0.1-0.1l0,0c0-0.1,0-0.1,0-0.2C76,56.5,76,56.4,76,56.4L76,56.4z"/>
	<path class="st16" d="M17,56.4L17,56.4c0.1-0.2,0.2-0.3,0.3-0.3l6-6l0.7,0.7L18.8,56H32v1H18.7l5.4,5.4l-0.7,0.7l-6.2-6.2
		c0,0,0,0,0,0L17,56.7l0,0c0-0.1,0-0.1,0-0.2C17,56.5,17,56.4,17,56.4L17,56.4z"/>
	<rect x="2" y="2" class="st17" width="1438" height="32"/>
	<path class="st18" d="M510.5,14.8c-0.2-0.2-0.5-0.2-0.7,0c-0.2,0.2-0.2,0.5,0,0.7l6.4,6.4c0.1,0.1,0.3,0.2,0.5,0.1
		c0.2,0,0.3,0,0.5-0.1l6.4-6.4c0.2-0.2,0.2-0.5,0-0.7c-0.2-0.2-0.5-0.2-0.7,0l-6.1,6.1L510.5,14.8z"/>
	<path class="st18" d="M485,12h-1v6h-6v1h6v6h1v-6h6v-1h-6V12z"/>
	<rect x="467" y="3" class="st19" width="1" height="31"/>
	<rect x="267" y="3" class="st19" width="1" height="31"/>
	<path class="st20" d="M309.9,21.8c-0.3,0.4-0.8,0.8-1.3,1c-0.6,0.2-1.2,0.3-2,0.3c-0.8,0-1.4-0.2-2-0.5c-0.6-0.4-1-0.9-1.4-1.5
		c-0.3-0.7-0.5-1.4-0.5-2.3V18c0-1.4,0.3-2.5,1-3.2c0.7-0.8,1.6-1.1,2.7-1.1c1,0,1.7,0.2,2.3,0.7c0.6,0.5,0.9,1.2,1.1,2.1h-1.2
		c-0.2-1.2-1-1.8-2.2-1.8c-0.8,0-1.4,0.3-1.9,0.9c-0.4,0.6-0.6,1.4-0.6,2.5v0.8c0,1,0.2,1.9,0.7,2.5c0.5,0.6,1.1,0.9,1.9,0.9
		c0.5,0,0.9-0.1,1.2-0.2c0.3-0.1,0.6-0.3,0.9-0.5v-2.1h-2.1v-1h3.4V21.8z M311.4,19.5c0-0.7,0.1-1.3,0.4-1.8c0.3-0.5,0.6-1,1.1-1.2
		c0.5-0.3,1-0.4,1.6-0.4c0.9,0,1.7,0.3,2.3,1c0.6,0.6,0.9,1.5,0.9,2.6v0.1c0,0.7-0.1,1.3-0.4,1.8c-0.3,0.5-0.6,0.9-1.1,1.2
		c-0.5,0.3-1,0.4-1.6,0.4c-0.9,0-1.7-0.3-2.3-1C311.7,21.5,311.4,20.7,311.4,19.5L311.4,19.5z M312.6,19.6c0,0.8,0.2,1.4,0.5,1.8
		c0.4,0.5,0.8,0.7,1.4,0.7c0.6,0,1.1-0.2,1.4-0.7c0.4-0.5,0.5-1.1,0.5-2c0-0.8-0.2-1.4-0.5-1.8c-0.4-0.5-0.8-0.7-1.4-0.7
		c-0.6,0-1,0.2-1.4,0.7C312.8,18.1,312.6,18.8,312.6,19.6z M318.9,19.5c0-0.7,0.1-1.3,0.4-1.8c0.3-0.5,0.6-1,1.1-1.2
		c0.5-0.3,1-0.4,1.6-0.4c0.9,0,1.7,0.3,2.3,1c0.6,0.6,0.9,1.5,0.9,2.6v0.1c0,0.7-0.1,1.3-0.4,1.8c-0.3,0.5-0.6,0.9-1.1,1.2
		c-0.5,0.3-1,0.4-1.6,0.4c-0.9,0-1.7-0.3-2.3-1C319.1,21.5,318.9,20.7,318.9,19.5L318.9,19.5z M320,19.6c0,0.8,0.2,1.4,0.5,1.8
		c0.4,0.5,0.8,0.7,1.4,0.7c0.6,0,1.1-0.2,1.4-0.7c0.4-0.5,0.5-1.1,0.5-2c0-0.8-0.2-1.4-0.5-1.8c-0.4-0.5-0.8-0.7-1.4-0.7
		c-0.6,0-1,0.2-1.4,0.7C320.2,18.1,320,18.8,320,19.6z M326.3,19.5c0-1.1,0.2-1.9,0.7-2.6c0.5-0.6,1.2-1,2-1c0.8,0,1.5,0.3,2,0.9
		l0.1-0.8h1.1v6.7c0,0.9-0.3,1.6-0.8,2.1c-0.5,0.5-1.2,0.8-2.1,0.8c-0.5,0-1-0.1-1.5-0.3c-0.5-0.2-0.8-0.5-1.1-0.9l0.6-0.7
		c0.5,0.6,1.1,0.9,1.8,0.9c0.6,0,1-0.2,1.3-0.5c0.3-0.3,0.5-0.8,0.5-1.4v-0.6c-0.5,0.5-1.1,0.8-1.9,0.8c-0.8,0-1.5-0.3-2-1
		C326.5,21.5,326.3,20.6,326.3,19.5z M327.5,19.6c0,0.8,0.2,1.4,0.5,1.8c0.3,0.4,0.8,0.7,1.3,0.7c0.7,0,1.3-0.3,1.6-1V18
		c-0.4-0.7-0.9-1-1.6-1c-0.6,0-1,0.2-1.3,0.7C327.6,18.1,327.5,18.8,327.5,19.6z M335.2,23H334v-9.8h1.2V23z M339.9,23.1
		c-0.9,0-1.7-0.3-2.3-0.9c-0.6-0.6-0.9-1.4-0.9-2.5v-0.2c0-0.7,0.1-1.3,0.4-1.8c0.3-0.5,0.6-1,1.1-1.3c0.5-0.3,1-0.5,1.5-0.5
		c0.9,0,1.6,0.3,2.1,0.9c0.5,0.6,0.7,1.4,0.7,2.5v0.5h-4.7c0,0.7,0.2,1.2,0.6,1.6c0.4,0.4,0.9,0.6,1.4,0.6c0.4,0,0.8-0.1,1.1-0.3
		c0.3-0.2,0.5-0.4,0.8-0.7l0.7,0.6C341.9,22.7,341,23.1,339.9,23.1z M339.7,17c-0.5,0-0.9,0.2-1.2,0.5c-0.3,0.3-0.5,0.8-0.6,1.4h3.4
		v-0.1c0-0.6-0.2-1.1-0.5-1.4C340.6,17.1,340.2,17,339.7,17z"/>
	<defs>
		<filter id="Adobe_OpacityMaskFilter_1_" filterUnits="userSpaceOnUse" x="276" y="10" width="16" height="16">
			<feColorMatrix  type="matrix" values="1 0 0 0 0  0 1 0 0 0  0 0 1 0 0  0 0 0 1 0"/>
		</filter>
	</defs>
	<mask maskUnits="userSpaceOnUse" x="276" y="10" width="16" height="16" id="mask4_2_" class="st1">
		<rect x="276" y="10" style="fill:#FFFFFF;filter:url(#Adobe_OpacityMaskFilter_1_);" width="16" height="16"/>
	</mask>
	<g class="st22">
		<path class="st23" d="M279.6,19.6l-0.6,2.1l-2,0c-0.6-1.1-1-2.4-1-3.8c0-1.3,0.3-2.6,0.9-3.7l0,0l1.8,0.3l0.8,1.8
			c-0.2,0.5-0.3,1-0.3,1.5C279.3,18.5,279.4,19.1,279.6,19.6z"/>
		<path class="st24" d="M291.9,16.5c0.1,0.5,0.1,1,0.1,1.5c0,0.6-0.1,1.1-0.2,1.7c-0.4,1.8-1.4,3.4-2.8,4.6v0l-2.3-0.1l-0.3-2
			c0.9-0.5,1.7-1.4,2.1-2.4h-4.3v-3.2h4.3H291.9z"/>
		<path class="st25" d="M289,24.3L289,24.3c-1.4,1.1-3.1,1.7-5,1.7c-3.1,0-5.7-1.7-7.1-4.2l2.6-2.1c0.7,1.8,2.4,3.1,4.5,3.1
			c0.9,0,1.7-0.2,2.4-0.6L289,24.3z"/>
		<path class="st26" d="M289.2,11.8l-2.6,2.1c-0.7-0.5-1.6-0.7-2.5-0.7c-2.1,0-3.9,1.3-4.5,3.2l-2.6-2.1h0c1.3-2.5,4-4.3,7.1-4.3
			C286,10,287.8,10.7,289.2,11.8z"/>
	</g>
	<rect x="67" y="3" class="st5" width="200" height="31"/>
	<path class="st27" d="M251,17.3l-4.3-4.3l-0.7,0.7l4.3,4.3l-4.3,4.3l0.7,0.7l4.3-4.3l4.3,4.3l0.7-0.7l-4.3-4.3l4.3-4.3l-0.7-0.7
		L251,17.3z"/>
	<path class="st28" d="M104.9,18.4l2.4-4.6h1.4l-3.2,5.8V23h-1.2v-3.4l-3.2-5.8h1.4L104.9,18.4z M109,19.5c0-0.7,0.1-1.3,0.4-1.8
		c0.3-0.5,0.6-1,1.1-1.2c0.5-0.3,1-0.4,1.6-0.4c0.9,0,1.7,0.3,2.3,1c0.6,0.6,0.9,1.5,0.9,2.6v0.1c0,0.7-0.1,1.3-0.4,1.8
		c-0.3,0.5-0.6,0.9-1.1,1.2c-0.5,0.3-1,0.4-1.6,0.4c-0.9,0-1.7-0.3-2.3-1C109.3,21.5,109,20.7,109,19.5L109,19.5z M110.1,19.6
		c0,0.8,0.2,1.4,0.5,1.8c0.4,0.5,0.8,0.7,1.4,0.7c0.6,0,1.1-0.2,1.4-0.7c0.4-0.5,0.5-1.1,0.5-2c0-0.8-0.2-1.4-0.5-1.8
		c-0.4-0.5-0.8-0.7-1.4-0.7c-0.6,0-1,0.2-1.4,0.7C110.3,18.1,110.1,18.8,110.1,19.6z M120.9,22.3c-0.5,0.5-1.1,0.8-2,0.8
		c-0.7,0-1.3-0.2-1.7-0.6c-0.4-0.4-0.6-1.1-0.6-1.9v-4.5h1.2v4.4c0,1,0.4,1.6,1.3,1.6c0.9,0,1.5-0.3,1.8-1v-5h1.2V23H121L120.9,22.3
		z M127.2,17.2c-0.2,0-0.4,0-0.6,0c-0.8,0-1.3,0.3-1.6,1V23h-1.2v-6.9h1.1l0,0.8c0.4-0.6,0.9-0.9,1.6-0.9c0.2,0,0.4,0,0.5,0.1V17.2z
		 M134.4,18.9c-1-0.3-1.8-0.7-2.3-1.1c-0.5-0.4-0.7-1-0.7-1.6c0-0.7,0.3-1.3,0.9-1.8c0.6-0.5,1.3-0.7,2.3-0.7c0.6,0,1.2,0.1,1.7,0.4
		c0.5,0.2,0.9,0.6,1.2,1c0.3,0.4,0.4,0.9,0.4,1.4h-1.2c0-0.6-0.2-1-0.5-1.3c-0.4-0.3-0.9-0.5-1.5-0.5c-0.6,0-1.1,0.1-1.4,0.4
		c-0.3,0.3-0.5,0.6-0.5,1.1c0,0.4,0.2,0.7,0.5,1c0.3,0.3,0.9,0.5,1.6,0.7c0.8,0.2,1.4,0.5,1.8,0.7c0.4,0.3,0.8,0.6,1,0.9
		c0.2,0.3,0.3,0.8,0.3,1.2c0,0.7-0.3,1.3-0.9,1.8c-0.6,0.4-1.4,0.7-2.3,0.7c-0.6,0-1.2-0.1-1.8-0.4c-0.5-0.2-1-0.6-1.3-1
		c-0.3-0.4-0.4-0.9-0.4-1.4h1.2c0,0.6,0.2,1,0.6,1.3c0.4,0.3,1,0.5,1.7,0.5c0.6,0,1.1-0.1,1.5-0.4c0.3-0.3,0.5-0.6,0.5-1.1
		c0-0.5-0.2-0.8-0.5-1C135.8,19.4,135.2,19.1,134.4,18.9z M140.5,23h-1.2v-6.9h1.2V23z M139.2,14.3c0-0.2,0.1-0.4,0.2-0.5
		c0.1-0.1,0.3-0.2,0.5-0.2c0.2,0,0.4,0.1,0.5,0.2c0.1,0.1,0.2,0.3,0.2,0.5c0,0.2-0.1,0.3-0.2,0.5c-0.1,0.1-0.3,0.2-0.5,0.2
		c-0.2,0-0.4-0.1-0.5-0.2C139.3,14.7,139.2,14.5,139.2,14.3z M144,14.5v1.7h1.3V17H144v4.3c0,0.3,0.1,0.5,0.2,0.6
		c0.1,0.1,0.3,0.2,0.6,0.2c0.1,0,0.3,0,0.6-0.1v1c-0.3,0.1-0.6,0.1-0.9,0.1c-0.5,0-0.9-0.2-1.2-0.5c-0.3-0.3-0.4-0.8-0.4-1.4V17
		h-1.3v-0.9h1.3v-1.7H144z M149.5,23.1c-0.9,0-1.7-0.3-2.3-0.9c-0.6-0.6-0.9-1.4-0.9-2.5v-0.2c0-0.7,0.1-1.3,0.4-1.8
		c0.3-0.5,0.6-1,1.1-1.3c0.5-0.3,1-0.5,1.5-0.5c0.9,0,1.6,0.3,2.1,0.9c0.5,0.6,0.7,1.4,0.7,2.5v0.5h-4.7c0,0.7,0.2,1.2,0.6,1.6
		c0.4,0.4,0.9,0.6,1.4,0.6c0.4,0,0.8-0.1,1.1-0.3c0.3-0.2,0.5-0.4,0.8-0.7l0.7,0.6C151.5,22.7,150.6,23.1,149.5,23.1z M149.3,17
		c-0.5,0-0.9,0.2-1.2,0.5c-0.3,0.3-0.5,0.8-0.6,1.4h3.4v-0.1c0-0.6-0.2-1.1-0.5-1.4C150.2,17.1,149.8,17,149.3,17z M163.1,14.8h-3
		V23h-1.2v-8.2h-3v-1h7.1V14.8z M165.5,23h-1.2v-6.9h1.2V23z M164.3,14.3c0-0.2,0.1-0.4,0.2-0.5c0.1-0.1,0.3-0.2,0.5-0.2
		c0.2,0,0.4,0.1,0.5,0.2c0.1,0.1,0.2,0.3,0.2,0.5c0,0.2-0.1,0.3-0.2,0.5c-0.1,0.1-0.3,0.2-0.5,0.2c-0.2,0-0.4-0.1-0.5-0.2
		C164.3,14.7,164.3,14.5,164.3,14.3z M169,14.5v1.7h1.3V17H169v4.3c0,0.3,0.1,0.5,0.2,0.6c0.1,0.1,0.3,0.2,0.6,0.2
		c0.1,0,0.3,0,0.6-0.1v1c-0.3,0.1-0.6,0.1-0.9,0.1c-0.5,0-0.9-0.2-1.2-0.5s-0.4-0.8-0.4-1.4V17h-1.3v-0.9h1.3v-1.7H169z M172.9,23
		h-1.2v-9.8h1.2V23z M177.7,23.1c-0.9,0-1.7-0.3-2.3-0.9c-0.6-0.6-0.9-1.4-0.9-2.5v-0.2c0-0.7,0.1-1.3,0.4-1.8
		c0.3-0.5,0.6-1,1.1-1.3c0.5-0.3,1-0.5,1.5-0.5c0.9,0,1.6,0.3,2.1,0.9c0.5,0.6,0.7,1.4,0.7,2.5v0.5h-4.7c0,0.7,0.2,1.2,0.6,1.6
		c0.4,0.4,0.9,0.6,1.4,0.6c0.4,0,0.8-0.1,1.1-0.3c0.3-0.2,0.5-0.4,0.8-0.7l0.7,0.6C179.7,22.7,178.8,23.1,177.7,23.1z M177.5,17
		c-0.5,0-0.9,0.2-1.2,0.5c-0.3,0.3-0.5,0.8-0.6,1.4h3.4v-0.1c0-0.6-0.2-1.1-0.5-1.4C178.4,17.1,178,17,177.5,17z"/>
	<defs>
		<filter id="Adobe_OpacityMaskFilter_2_" filterUnits="userSpaceOnUse" x="76" y="10" width="15" height="16">
			<feColorMatrix  type="matrix" values="1 0 0 0 0  0 1 0 0 0  0 0 1 0 0  0 0 0 1 0"/>
		</filter>
	</defs>
	<mask maskUnits="userSpaceOnUse" x="76" y="10" width="15" height="16" id="mask5_2_" class="st1">
		<rect x="75" y="10" style="fill:#FFFFFF;filter:url(#Adobe_OpacityMaskFilter_2_);" width="16" height="16"/>
	</mask>
	<g class="st30">
		<path class="st31" d="M76,17.1L76,17.1c0.1-0.8,0.3-1.5,0.5-2.2c0.3-0.7,0.6-1.3,1-1.9c0.4-0.6,0.9-1.1,1.5-1.6
			c0.6-0.4,1.2-0.8,2-1.1c0.8-0.3,1.6-0.4,2.5-0.4c1.4,0,2.6,0.3,3.8,0.9c1.1,0.6,2,1.5,2.7,2.7c0.6,1.1,0.9,2.4,0.9,4v1.7H80.8
			c0,0.7,0.2,1.2,0.5,1.7c0.3,0.5,0.7,0.9,1.2,1.1c0.5,0.2,1.1,0.4,1.7,0.5c0.6,0.1,1.3,0.1,1.9,0c0.7-0.1,1.3-0.2,1.9-0.4
			c0.6-0.2,1.1-0.5,1.6-0.8v3.4c-0.6,0.3-1.3,0.6-2.1,0.8c-0.8,0.2-1.8,0.3-2.8,0.3c-1.1,0-2-0.2-2.9-0.5c-1.1-0.4-2.1-1.2-2.8-2.2
			c-0.7-1-1.1-2.2-1.1-3.3c0-1.4,0.3-2.7,1-3.7c0.7-1,1.7-1.8,2.9-2.4c-0.3,0.4-0.5,0.7-0.7,1.1c-0.2,0.4-0.3,0.9-0.4,1.4h5.8
			c0-0.5,0-0.9-0.1-1.3c-0.1-0.4-0.2-0.7-0.4-0.9s-0.4-0.4-0.6-0.6c-0.2-0.2-0.5-0.3-0.7-0.4c-0.2-0.1-0.5-0.1-0.7-0.2
			c-0.2,0-0.4-0.1-0.5-0.1l-0.2,0c-0.8,0-1.6,0.2-2.4,0.4c-0.8,0.2-1.4,0.5-2,0.9s-1.1,0.8-1.6,1.3C76.8,16.1,76.4,16.6,76,17.1z"/>
	</g>
	<rect x="66" y="3" class="st19" width="1" height="31"/>
	<rect x="2" y="3" class="st17" width="64" height="31"/>
	<path class="st32" d="M44.8,21.4l-2.7-2.7c-0.1,0-0.1-0.1-0.1-0.2s0-0.1,0.1-0.2l2.7-2.7l0.6,0.6L43.5,18l8.5,0v1h-8.5l1.9,1.8
		L44.8,21.4z"/>
	<path class="st33" d="M57,13h-9h-1v1v1v1v1h1v-1h9v6h-9v-2h-1v2v1h1h9h1v-1v-6v-1v-1v-1H57z M57,15h-9v-1h9V15z"/>
	<path class="st33" d="M15,15h9h1v1v1v1v6v1h-1h-9h-1v-1v-6v-1v-1v-1H15z M15,16v1h9v-1H15z M15,18v6h9v-6H15z"/>
	<path class="st33" d="M12,11h9h1v1v1v1v1h-1v-1h-9v6h3v1h-3h-1v-1v-6v-1v-1v-1H12z M12,12v1h9v-1H12z"/>
	<path class="st28" d="M1412.5,12.8l0.3-0.4l-0.3-0.4l-0.3,0.4L1412.5,12.8z M1412.8,13.1l-0.3,0.4L1412.8,13.1z M1411.8,13.5
		l-0.4-0.4l-0.3,0.4l0.3,0.4L1411.8,13.5z M1412.2,13.9l0.3-0.4L1412.2,13.9z M1416.3,18l0.4,0.4l0.3-0.4l-0.3-0.4L1416.3,18z
		 M1412.2,22.1l-0.4-0.4l0,0L1412.2,22.1z M1411.8,22.5l-0.4-0.4l-0.3,0.4l0.3,0.4L1411.8,22.5z M1412.5,23.2l-0.3,0.4l0.3,0.4
		l0.3-0.4L1412.5,23.2z M1412.8,22.9l0.4,0.4l0,0L1412.8,22.9z M1417,18.7l0.3-0.4L1417,18l-0.3,0.4L1417,18.7z M1421.2,22.9
		l-0.4,0.4l0,0L1421.2,22.9z M1421.5,23.2l-0.3,0.4l0.3,0.4l0.3-0.4L1421.5,23.2z M1422.2,22.5l0.4,0.4l0.3-0.4l-0.3-0.4
		L1422.2,22.5z M1421.8,22.1l0.4-0.4l0,0L1421.8,22.1z M1417.7,18l-0.4-0.4L1417,18l0.3,0.4L1417.7,18z M1421.8,13.9l0.4,0.4l0,0
		L1421.8,13.9z M1422.2,13.5l0.4,0.4l0.3-0.4l-0.3-0.4L1422.2,13.5z M1421.5,12.8l0.3-0.4l-0.3-0.4l-0.3,0.4L1421.5,12.8z
		 M1421.2,13.1l-0.4-0.4l0,0L1421.2,13.1z M1417,17.3l-0.3,0.4l0.3,0.4l0.3-0.4L1417,17.3z M1412.2,13.1l0.3,0.4l0.7-0.7l-0.4-0.4
		L1412.2,13.1z M1412.2,13.9l0.7-0.7l-0.7-0.7l-0.7,0.7L1412.2,13.9z M1412.5,13.5l-0.3-0.4l-0.7,0.7l0.4,0.4L1412.5,13.5z
		 M1416.7,17.6l-4.2-4.1l-0.7,0.7l4.1,4.1L1416.7,17.6z M1412.5,22.5l4.2-4.1l-0.7-0.7l-4.1,4.1L1412.5,22.5z M1412.2,22.9l0.3-0.4
		l-0.7-0.7l-0.4,0.4L1412.2,22.9z M1412.8,22.9l-0.7-0.7l-0.7,0.7l0.7,0.7L1412.8,22.9z M1412.5,22.5l-0.3,0.4l0.7,0.7l0.4-0.4
		L1412.5,22.5z M1416.7,18.4l-4.2,4.1l0.7,0.7l4.1-4.1L1416.7,18.4z M1421.5,22.5l-4.2-4.1l-0.7,0.7l4.1,4.1L1421.5,22.5z
		 M1421.8,22.9l-0.3-0.4l-0.7,0.7l0.4,0.4L1421.8,22.9z M1421.8,22.1l-0.7,0.7l0.7,0.7l0.7-0.7L1421.8,22.1z M1421.5,22.5l0.3,0.4
		l0.7-0.7l-0.4-0.4L1421.5,22.5z M1417.3,18.4l4.2,4.1l0.7-0.7l-4.1-4.1L1417.3,18.4z M1421.5,13.5l-4.2,4.1l0.7,0.7l4.1-4.1
		L1421.5,13.5z M1421.8,13.1l-0.3,0.4l0.7,0.7l0.4-0.4L1421.8,13.1z M1421.2,13.1l0.7,0.7l0.7-0.7l-0.7-0.7L1421.2,13.1z
		 M1421.5,13.5l0.3-0.4l-0.7-0.7l-0.4,0.4L1421.5,13.5z M1417.3,17.6l4.2-4.1l-0.7-0.7l-4.1,4.1L1417.3,17.6z M1412.5,13.5l4.2,4.1
		l0.7-0.7l-4.1-4.1L1412.5,13.5z"/>
	<rect x="1366.5" y="13.5" class="st34" width="9" height="9"/>
	<rect x="1320" y="17" class="st28" width="10" height="1"/>
</g>
<g>
	<path class="st35" d="M0,0l-0.4,811h1442.5l0.4-811H0z M1440.1,809H1.6L2,79h1438.5L1440.1,809z"/>
	<rect x="2.5" y="78" class="st36" width="1438" height="1"/>
	<rect x="2.5" y="34" class="st37" width="1438" height="44"/>
	<path class="st38" d="M1287.5,53h7v1h-7V53z M1287.5,56h7v1h-7V56z M1294.5,59h-7v1h7V59z"/>
	<path class="st39" d="M1288.1,53.5l-1.6-5.3l-1.6,5.3h-5.8l5.1,3.5l-2.3,5.5l4.6-4.1"/>
	<path class="st40" d="M1328.6,62.4c4.9-3.5,4.5,1.2,10.1-0.7"/>
	<path class="st41" d="M1332.9,49.2c0.4,0.2,0.6,0.5,0.7,0.9c0.1,0.4,0.1,0.8-0.2,1.1l-4.5,7.8c-0.4,0.7-1,1.4-1.6,2
		c-0.7,0.6-1.4,1-2.2,1.3l-0.1,0c-0.2,0-0.3,0-0.5-0.1c-0.1-0.1-0.2-0.2-0.3-0.4c-0.1-0.9-0.1-1.7,0.1-2.6c0.2-0.9,0.5-1.7,0.9-2.4
		l2.8-4.9l-1-0.6l-1.9,3.2c-0.1,0.1-0.1,0.1-0.2,0.2c-0.1,0-0.2,0-0.3,0l-0.3-0.2c-0.1,0-0.1-0.1-0.2-0.2s0-0.2,0-0.3l2-3.4
		c0.1-0.2,0.3-0.4,0.6-0.4s0.5,0,0.7,0.1l1.1,0.7l1.1-2c0.2-0.4,0.5-0.6,0.9-0.7c0.4-0.1,0.8-0.1,1.1,0.2L1332.9,49.2z M1328,58.5
		l2.8-4.9l-1.8-1l-2.8,4.9c-0.6,1.1-0.9,2.3-0.9,3.5C1326.5,60.4,1327.4,59.6,1328,58.5z M1332.6,50.4c0,0.1,0,0.2,0,0.3l-1.1,2
		l-1.7-1l1.1-2c0.1-0.1,0.1-0.2,0.2-0.2c0.1,0,0.2,0,0.3,0l1.1,0.6C1332.5,50.3,1332.5,50.3,1332.6,50.4z"/>
	<path class="st42" d="M1367.5,52h-1v9v1h1h10h1v-1v-1h-1v1h-10V52z"/>
	<defs>
		<filter id="Adobe_OpacityMaskFilter_3_" filterUnits="userSpaceOnUse" x="1365.5" y="51" width="14" height="12">
			<feColorMatrix  type="matrix" values="1 0 0 0 0  0 1 0 0 0  0 0 1 0 0  0 0 0 1 0"/>
		</filter>
	</defs>
	<mask maskUnits="userSpaceOnUse" x="1365.5" y="51" width="14" height="12" id="path-16-inside-1_2_">
		<path class="st43" d="M1367.5,52h-1v9v1h1h10h1v-1v-1h-1v1h-10V52z"/>
	</mask>
	<path class="st44" d="M1366.5,52v-1h-1v1H1366.5z M1367.5,52h1v-1h-1V52z M1366.5,62h-1v1h1V62z M1378.5,62v1h1v-1H1378.5z
		 M1378.5,60h1v-1h-1V60z M1377.5,60v-1h-1v1H1377.5z M1377.5,61v1h1v-1H1377.5z M1367.5,61h-1v1h1V61z M1366.5,53h1v-2h-1V53z
		 M1367.5,61v-9h-2v9H1367.5z M1365.5,61v1h2v-1H1365.5z M1366.5,63h1v-2h-1V63z M1367.5,63h10v-2h-10V63z M1377.5,63h1v-2h-1V63z
		 M1379.5,62v-1h-2v1H1379.5z M1379.5,61v-1h-2v1H1379.5z M1378.5,59h-1v2h1V59z M1376.5,60v1h2v-1H1376.5z M1377.5,60h-10v2h10V60z
		 M1366.5,52v9h2v-9H1366.5z"/>
	<path class="st45" d="M1382.5,53.2c0,0.3-0.1,0.5-0.3,0.7l-4,3.8c-0.2,0.2-0.5,0.3-0.8,0.3c-0.3,0-0.5-0.1-0.8-0.3
		c-0.2-0.2-0.3-0.4-0.3-0.7v-1.7c-1.1,0.1-1.9,0.2-2.4,0.4c-0.5,0.2-0.8,0.5-0.9,0.9c-0.1,0.3,0,0.8,0.2,1.4c0.1,0.3,0,0.6-0.1,0.8
		c-0.2,0.3-0.4,0.4-0.7,0.5c-0.3,0.1-0.6,0-0.9-0.1c-0.7-0.4-1.2-1-1.6-1.6c-0.4-0.7-0.6-1.4-0.6-2.1c0-1.6,0.8-2.8,2.3-3.5
		c1.1-0.5,2.6-0.8,4.6-0.8v-1.7c0-0.3,0.1-0.5,0.3-0.7c0.2-0.2,0.5-0.3,0.8-0.3c0.3,0,0.6,0.1,0.8,0.3l4,3.8
		C1382.4,52.7,1382.5,52.9,1382.5,53.2z M1377.4,57l4-3.8l-4-3.8v2.8c-1.3,0-2.4,0.1-3.2,0.2c-1.1,0.2-2,0.5-2.6,0.9
		c-0.7,0.5-1.1,1.3-1.1,2.2c0,0.7,0.2,1.3,0.6,1.8c0.3,0.4,0.7,0.8,1.2,1.1c-0.4-1.1-0.4-1.9,0-2.6c0.3-0.6,0.9-1,1.9-1.2
		c0.8-0.2,1.9-0.3,3.2-0.3V57z"/>
	<path class="st41" d="M1411.5,55h2v2h-2V55z M1417.5,55h2v2h-2V55z M1425.5,55h-2v2h2V55z"/>
	<rect x="195" y="39.5" class="st46" width="1053" height="33"/>
	<path class="st45" d="M1233.3,54.6c-0.1-0.2-0.3-0.3-0.5-0.3l-3.8-0.5l-1.7-3.4c-0.1-0.2-0.3-0.3-0.5-0.4s-0.4-0.1-0.6,0
		s-0.3,0.2-0.5,0.4l-1.7,3.4l-3.8,0.5c-0.2,0-0.4,0.1-0.5,0.3c-0.1,0.2-0.2,0.4-0.2,0.6c0,0.2,0.1,0.4,0.3,0.5l2.8,2.6l-0.6,3.7
		c0,0.2,0,0.4,0.1,0.6c0.1,0.2,0.3,0.3,0.5,0.3c0.2,0.1,0.4,0,0.6-0.1l3.4-1.7l3.4,1.7c0.2,0.1,0.4,0.1,0.6,0.1
		c0.2-0.1,0.4-0.2,0.5-0.3c0.1-0.2,0.2-0.4,0.1-0.6l-0.6-3.7l2.8-2.6c0.2-0.2,0.2-0.3,0.3-0.5C1233.5,55,1233.4,54.8,1233.3,54.6z
		 M1231.8,55.4l-2.6,2.5l0.6,3.5l-3.2-1.7l-3.2,1.7l0.6-3.5l-2.6-2.5l3.6-0.5l1.6-3.2l1.6,3.2L1231.8,55.4z"/>
	<path class="st47" d="M236.6,55c0.5-0.6,1.2-1,2-1c1.5,0,2.2,0.8,2.2,2.5V61h-1.2v-4.5c0-0.5-0.1-0.9-0.3-1.1
		c-0.2-0.2-0.6-0.4-1-0.4c-0.4,0-0.7,0.1-1,0.3c-0.3,0.2-0.5,0.5-0.7,0.8V61h-1.2v-9.8h1.2V55z M244.1,52.5v1.7h1.3V55h-1.3v4.3
		c0,0.3,0.1,0.5,0.2,0.6c0.1,0.1,0.3,0.2,0.6,0.2c0.1,0,0.3,0,0.6-0.1v1c-0.3,0.1-0.6,0.1-0.9,0.1c-0.5,0-0.9-0.2-1.2-0.5
		c-0.3-0.3-0.4-0.8-0.4-1.4V55h-1.3v-0.9h1.3v-1.7H244.1z M248.4,52.5v1.7h1.3V55h-1.3v4.3c0,0.3,0,0.5,0.2,0.6
		c0.1,0.1,0.3,0.2,0.6,0.2c0.1,0,0.3,0,0.6-0.1v1c-0.3,0.1-0.6,0.1-0.9,0.1c-0.5,0-0.9-0.2-1.2-0.5c-0.3-0.3-0.4-0.8-0.4-1.4V55H246
		v-0.9h1.3v-1.7H248.4z M256.9,57.6c0,1-0.2,1.9-0.7,2.5s-1.1,1-1.9,1c-0.8,0-1.5-0.3-2-0.8v3.3h-1.2v-9.5h1.1l0.1,0.8
		c0.5-0.6,1.1-0.9,2-0.9c0.8,0,1.5,0.3,1.9,0.9c0.5,0.6,0.7,1.5,0.7,2.6V57.6z M255.7,57.5c0-0.8-0.2-1.4-0.5-1.8
		c-0.3-0.4-0.8-0.7-1.4-0.7c-0.7,0-1.3,0.3-1.6,0.9v3.3c0.3,0.6,0.9,0.9,1.6,0.9c0.6,0,1-0.2,1.3-0.7
		C255.5,59.1,255.7,58.4,255.7,57.5z M262.3,59.2c0-0.3-0.1-0.6-0.4-0.7c-0.2-0.2-0.7-0.3-1.3-0.5c-0.6-0.1-1.1-0.3-1.4-0.5
		c-0.3-0.2-0.6-0.4-0.8-0.6c-0.2-0.2-0.3-0.5-0.3-0.9c0-0.6,0.2-1,0.7-1.4c0.5-0.4,1.1-0.6,1.8-0.6c0.8,0,1.4,0.2,1.9,0.6
		c0.5,0.4,0.7,0.9,0.7,1.5h-1.2c0-0.3-0.1-0.6-0.4-0.8c-0.3-0.2-0.6-0.3-1-0.3c-0.4,0-0.8,0.1-1,0.3s-0.4,0.4-0.4,0.7
		c0,0.3,0.1,0.5,0.3,0.6c0.2,0.1,0.6,0.3,1.2,0.4c0.6,0.1,1.1,0.3,1.4,0.5c0.4,0.2,0.6,0.4,0.8,0.7c0.2,0.3,0.3,0.6,0.3,0.9
		c0,0.6-0.3,1.1-0.7,1.5c-0.5,0.4-1.1,0.6-1.9,0.6c-0.6,0-1-0.1-1.5-0.3c-0.4-0.2-0.8-0.5-1-0.8c-0.2-0.4-0.4-0.7-0.4-1.1h1.2
		c0,0.4,0.2,0.7,0.5,0.9c0.3,0.2,0.7,0.3,1.2,0.3c0.4,0,0.8-0.1,1.1-0.3C262.2,59.7,262.3,59.5,262.3,59.2z M265,60.4
		c0-0.2,0.1-0.4,0.2-0.5c0.1-0.1,0.3-0.2,0.5-0.2s0.4,0.1,0.6,0.2c0.1,0.1,0.2,0.3,0.2,0.5c0,0.2-0.1,0.4-0.2,0.5
		c-0.1,0.1-0.3,0.2-0.6,0.2s-0.4-0.1-0.5-0.2C265.1,60.7,265,60.6,265,60.4z M265,54.8c0-0.2,0.1-0.4,0.2-0.5
		c0.1-0.1,0.3-0.2,0.6-0.2s0.4,0.1,0.6,0.2c0.1,0.1,0.2,0.3,0.2,0.5c0,0.2-0.1,0.4-0.2,0.5c-0.1,0.1-0.3,0.2-0.6,0.2
		s-0.4-0.1-0.6-0.2C265.1,55.1,265,55,265,54.8z M268.4,61.8h-1l3.9-10h1L268.4,61.8z M272.4,61.8h-1l3.9-10h1L272.4,61.8z"/>
	<path class="st48" d="M279.8,59.3l1.6-5.1h1.3l-2.8,7.9c-0.4,1.1-1.1,1.7-2,1.7l-0.2,0l-0.4-0.1v-1l0.3,0c0.4,0,0.7-0.1,0.9-0.2
		c0.2-0.2,0.4-0.5,0.5-0.9l0.3-0.7l-2.4-6.8h1.3L279.8,59.3z M283.2,57.5c0-0.7,0.1-1.3,0.4-1.8c0.3-0.5,0.6-1,1.1-1.2
		c0.5-0.3,1-0.4,1.6-0.4c0.9,0,1.7,0.3,2.3,1c0.6,0.6,0.9,1.5,0.9,2.6v0.1c0,0.7-0.1,1.3-0.4,1.8c-0.3,0.5-0.6,0.9-1.1,1.2
		c-0.5,0.3-1,0.4-1.6,0.4c-0.9,0-1.7-0.3-2.3-1C283.5,59.5,283.2,58.7,283.2,57.5L283.2,57.5z M284.4,57.6c0,0.8,0.2,1.4,0.5,1.8
		c0.4,0.5,0.8,0.7,1.4,0.7c0.6,0,1.1-0.2,1.4-0.7c0.4-0.5,0.5-1.1,0.5-2c0-0.8-0.2-1.4-0.5-1.8c-0.3-0.5-0.8-0.7-1.4-0.7
		c-0.6,0-1,0.2-1.4,0.7C284.6,56.1,284.4,56.8,284.4,57.6z M295.2,60.3c-0.5,0.5-1.1,0.8-2,0.8c-0.7,0-1.3-0.2-1.7-0.6
		c-0.4-0.4-0.6-1.1-0.6-1.9v-4.5h1.2v4.4c0,1,0.4,1.6,1.3,1.6c0.9,0,1.5-0.3,1.8-1v-5h1.2V61h-1.1L295.2,60.3z M301.5,55.2
		c-0.2,0-0.4,0-0.6,0c-0.8,0-1.3,0.3-1.6,1V61h-1.2v-6.9h1.1l0,0.8c0.4-0.6,0.9-0.9,1.6-0.9c0.2,0,0.4,0,0.5,0.1V55.2z M306.6,59.2
		c0-0.3-0.1-0.6-0.4-0.7c-0.2-0.2-0.7-0.3-1.3-0.5c-0.6-0.1-1.1-0.3-1.4-0.5c-0.3-0.2-0.6-0.4-0.8-0.6c-0.2-0.2-0.2-0.5-0.2-0.9
		c0-0.6,0.2-1,0.7-1.4c0.5-0.4,1.1-0.6,1.8-0.6c0.8,0,1.4,0.2,1.9,0.6c0.5,0.4,0.7,0.9,0.7,1.5h-1.2c0-0.3-0.1-0.6-0.4-0.8
		c-0.3-0.2-0.6-0.3-1-0.3c-0.4,0-0.8,0.1-1,0.3s-0.4,0.4-0.4,0.7c0,0.3,0.1,0.5,0.3,0.6c0.2,0.1,0.6,0.3,1.2,0.4
		c0.6,0.1,1.1,0.3,1.4,0.5c0.4,0.2,0.6,0.4,0.8,0.7c0.2,0.3,0.3,0.6,0.3,0.9c0,0.6-0.3,1.1-0.7,1.5c-0.5,0.4-1.1,0.6-1.9,0.6
		c-0.5,0-1-0.1-1.5-0.3c-0.4-0.2-0.8-0.5-1-0.8c-0.2-0.4-0.4-0.7-0.4-1.1h1.2c0,0.4,0.2,0.7,0.5,0.9c0.3,0.2,0.7,0.3,1.2,0.3
		c0.5,0,0.8-0.1,1.1-0.3C306.4,59.7,306.6,59.5,306.6,59.2z M310.5,61h-1.2v-6.9h1.2V61z M309.3,52.3c0-0.2,0.1-0.4,0.2-0.5
		c0.1-0.1,0.3-0.2,0.5-0.2c0.2,0,0.4,0.1,0.5,0.2c0.1,0.1,0.2,0.3,0.2,0.5c0,0.2-0.1,0.3-0.2,0.5c-0.1,0.1-0.3,0.2-0.5,0.2
		c-0.2,0-0.4-0.1-0.5-0.2C309.3,52.7,309.3,52.5,309.3,52.3z M314,52.5v1.7h1.3V55H314v4.3c0,0.3,0.1,0.5,0.2,0.6
		c0.1,0.1,0.3,0.2,0.6,0.2c0.1,0,0.3,0,0.6-0.1v1c-0.3,0.1-0.6,0.1-0.9,0.1c-0.5,0-0.9-0.2-1.2-0.5c-0.3-0.3-0.4-0.8-0.4-1.4V55
		h-1.3v-0.9h1.3v-1.7H314z M319.5,61.1c-0.9,0-1.7-0.3-2.3-0.9c-0.6-0.6-0.9-1.4-0.9-2.5v-0.2c0-0.7,0.1-1.3,0.4-1.8
		c0.3-0.5,0.6-1,1.1-1.3c0.5-0.3,1-0.5,1.5-0.5c0.9,0,1.6,0.3,2.1,0.9c0.5,0.6,0.7,1.4,0.7,2.5v0.5h-4.6c0,0.7,0.2,1.2,0.6,1.6
		c0.4,0.4,0.9,0.6,1.4,0.6c0.4,0,0.8-0.1,1.1-0.3c0.3-0.2,0.5-0.4,0.8-0.7l0.7,0.6C321.5,60.7,320.7,61.1,319.5,61.1z M319.4,55
		c-0.5,0-0.9,0.2-1.2,0.5c-0.3,0.3-0.5,0.8-0.6,1.4h3.4v-0.1c0-0.6-0.2-1.1-0.5-1.4C320.3,55.1,319.9,55,319.4,55z M323.6,60.4
		c0-0.2,0.1-0.4,0.2-0.5c0.1-0.1,0.3-0.2,0.6-0.2c0.2,0,0.4,0.1,0.5,0.2c0.1,0.1,0.2,0.3,0.2,0.5c0,0.2-0.1,0.4-0.2,0.5
		c-0.1,0.1-0.3,0.2-0.5,0.2c-0.2,0-0.4-0.1-0.6-0.2C323.6,60.7,323.6,60.6,323.6,60.4z M329.7,60.2c0.4,0,0.8-0.1,1.1-0.4
		c0.3-0.3,0.5-0.6,0.5-1h1.1c0,0.4-0.2,0.8-0.4,1.1s-0.6,0.6-1,0.9c-0.4,0.2-0.9,0.3-1.3,0.3c-0.9,0-1.7-0.3-2.2-0.9
		c-0.6-0.6-0.8-1.5-0.8-2.6v-0.2c0-0.7,0.1-1.3,0.4-1.8c0.2-0.5,0.6-0.9,1-1.2c0.5-0.3,1-0.4,1.6-0.4c0.8,0,1.4,0.2,1.9,0.7
		c0.5,0.5,0.8,1.1,0.8,1.8h-1.1c0-0.4-0.2-0.8-0.5-1.1c-0.3-0.3-0.7-0.4-1.1-0.4c-0.6,0-1.1,0.2-1.4,0.6c-0.3,0.4-0.5,1-0.5,1.9v0.2
		c0,0.8,0.2,1.4,0.5,1.8C328.7,60,329.1,60.2,329.7,60.2z M333.5,57.5c0-0.7,0.1-1.3,0.4-1.8c0.3-0.5,0.6-1,1.1-1.2s1-0.4,1.6-0.4
		c0.9,0,1.7,0.3,2.3,1c0.6,0.6,0.9,1.5,0.9,2.6v0.1c0,0.7-0.1,1.3-0.4,1.8c-0.3,0.5-0.6,0.9-1.1,1.2c-0.5,0.3-1,0.4-1.6,0.4
		c-0.9,0-1.7-0.3-2.3-1C333.8,59.5,333.5,58.7,333.5,57.5L333.5,57.5z M334.7,57.6c0,0.8,0.2,1.4,0.5,1.8c0.4,0.5,0.8,0.7,1.4,0.7
		c0.6,0,1.1-0.2,1.4-0.7c0.3-0.5,0.5-1.1,0.5-2c0-0.8-0.2-1.4-0.5-1.8c-0.4-0.5-0.8-0.7-1.4-0.7c-0.6,0-1,0.2-1.4,0.7
		C334.8,56.1,334.7,56.8,334.7,57.6z M342.3,54.1l0,0.8c0.5-0.6,1.2-0.9,2-0.9c1,0,1.6,0.4,2,1.1c0.2-0.3,0.5-0.6,0.9-0.8
		c0.4-0.2,0.8-0.3,1.3-0.3c1.5,0,2.3,0.8,2.3,2.4V61h-1.2v-4.5c0-0.5-0.1-0.9-0.3-1.1c-0.2-0.2-0.6-0.4-1.1-0.4
		c-0.4,0-0.8,0.1-1.1,0.4c-0.3,0.3-0.4,0.6-0.5,1V61h-1.2v-4.5c0-1-0.5-1.5-1.5-1.5c-0.8,0-1.3,0.3-1.6,1v5h-1.2v-6.9H342.3z"/>
	<path class="st45" d="M220.3,54.9c0.3,0,0.6,0.1,0.8,0.4c0.2,0.2,0.3,0.5,0.3,0.9v5.7c0,0.3-0.1,0.6-0.3,0.9
		c-0.2,0.2-0.5,0.4-0.8,0.4h-8.6c-0.3,0-0.6-0.1-0.8-0.4c-0.2-0.2-0.3-0.5-0.3-0.9v-5.7c0-0.3,0.1-0.6,0.3-0.9
		c0.2-0.2,0.5-0.4,0.8-0.4h0.8v-1.2c0-0.7,0.2-1.3,0.5-1.8c0.3-0.6,0.8-1,1.3-1.3c0.5-0.3,1.1-0.5,1.8-0.5s1.2,0.2,1.8,0.5
		c0.5,0.3,1,0.8,1.3,1.3c0.3,0.6,0.5,1.2,0.5,1.8v1.2H220.3z M213.6,53.7v1.2h4.7v-1.2c0-0.7-0.2-1.3-0.7-1.7
		c-0.5-0.5-1-0.7-1.7-0.7s-1.2,0.2-1.7,0.7C213.9,52.4,213.6,53,213.6,53.7z M220.3,56.1v5.7h-8.6v-5.7H220.3z"/>
	<path class="st38" d="M163.5,55.7c0-0.1,0-0.1-0.1-0.2l-1.2-1.2v-3.1c0-0.1,0-0.1-0.1-0.2c0-0.1-0.1-0.1-0.2-0.1h-0.9
		c0,0-0.1,0-0.1,0.1c0,0.1-0.1,0.1-0.1,0.2v1.9l-4.2-3.8c-0.2-0.2-0.4-0.3-0.7-0.3s-0.5,0.1-0.7,0.3l-6.7,6.3c0,0-0.1,0.1-0.1,0.2
		s0,0.1,0.1,0.2l0.5,0.8c0,0,0.1,0.1,0.2,0.1c0.1,0,0.1,0,0.2,0l0.4-0.4v6.2c0,0.1,0,0.3,0.1,0.4c0.1,0.1,0.2,0.1,0.3,0.1h4.6
		c0,0,0.1,0,0.2-0.1c0-0.1,0.1-0.1,0.1-0.2v-4h1.8v4c0,0.1,0,0.1,0.1,0.2c0.1,0.1,0.1,0.1,0.2,0.1h4.6c0.1,0,0.2,0,0.3-0.1
		c0.1-0.1,0.1-0.2,0.1-0.4v-6.2l0.4,0.4c0,0,0.1,0.1,0.2,0c0.1,0,0.1,0,0.2-0.1l0.5-0.8C163.5,55.8,163.5,55.8,163.5,55.7z
		 M160.8,55.1v6.4h-2.6v-4c0-0.1,0-0.1-0.1-0.2c-0.1-0.1-0.1-0.1-0.2-0.1h-4c-0.1,0-0.1,0-0.2,0.1c0,0.1-0.1,0.1-0.1,0.2v4h-2.6
		v-6.4l4.7-4.4c0.1-0.1,0.2-0.1,0.3,0L160.8,55.1z"/>
	<path class="st48" d="M106.4,49h4.8c0.1,0,0.2,0,0.2,0.1c0.1,0.1,0.1,0.1,0.1,0.2v4.9h-1.4v-3.1c-1,0.4-1.8,1.1-2.3,2
		c-0.6,0.9-0.9,1.9-0.9,3c0,1,0.3,1.9,0.8,2.7c0.5,0.8,1.2,1.5,2,2c0.8,0.5,1.8,0.7,2.8,0.7s1.9-0.2,2.8-0.7c0.8-0.5,1.5-1.2,2-2
		c0.5-0.8,0.8-1.7,0.8-2.7c0-0.7-0.1-1.3-0.4-2c-0.3-0.6-0.6-1.2-1.1-1.7c-0.1-0.1-0.1-0.2-0.1-0.3s0-0.2,0.1-0.2l0.6-0.6
		c0.1-0.1,0.1-0.1,0.2-0.1c0.1,0,0.2,0,0.2,0.1c0.6,0.6,1,1.3,1.3,2.1c0.3,0.8,0.5,1.6,0.5,2.5c0,1.2-0.3,2.4-0.9,3.4
		c-0.6,1.1-1.5,1.9-2.5,2.5c-1.1,0.6-2.2,0.9-3.5,0.9s-2.4-0.3-3.5-0.9s-1.9-1.4-2.6-2.5c-0.6-1.1-0.9-2.2-0.9-3.4
		c0-1.2,0.3-2.3,0.8-3.3c0.6-1,1.3-1.8,2.3-2.5h-2.2V49z"/>
	<path class="st49" d="M76.5,56.4L76.5,56.4c-0.1-0.2-0.2-0.3-0.3-0.3l-6-6l-0.7,0.7l5.3,5.3H61.5v1h13.3l-5.4,5.4l0.7,0.7l6.2-6.2
		c0,0,0,0,0,0l0.2-0.1l0,0c0-0.1,0-0.1,0-0.2C76.5,56.5,76.5,56.4,76.5,56.4L76.5,56.4z"/>
	<path class="st49" d="M17.5,56.4L17.5,56.4c0.1-0.2,0.2-0.3,0.3-0.3l6-6l0.7,0.7L19.3,56h13.2v1H19.2l5.4,5.4l-0.7,0.7l-6.2-6.2
		c0,0,0,0,0,0l-0.2-0.1l0,0c0-0.1,0-0.1,0-0.2C17.5,56.5,17.5,56.4,17.5,56.4L17.5,56.4z"/>
	<rect x="2.5" y="2" class="st50" width="1438" height="32"/>
	<path class="st38" d="M511,14.8c-0.2-0.2-0.5-0.2-0.7,0c-0.2,0.2-0.2,0.5,0,0.7l6.4,6.4c0.1,0.1,0.3,0.2,0.5,0.1
		c0.2,0,0.3,0,0.5-0.1l6.4-6.4c0.2-0.2,0.2-0.5,0-0.7c-0.2-0.2-0.5-0.2-0.7,0l-6.1,6.1L511,14.8z"/>
	<path class="st38" d="M485.5,12h-1v6h-6v1h6v6h1v-6h6v-1h-6V12z"/>
	<rect x="467.5" y="3" class="st36" width="1" height="31"/>
	<rect x="267.5" y="3" class="st36" width="1" height="31"/>
	<path class="st51" d="M310.4,21.8c-0.3,0.4-0.8,0.8-1.3,1c-0.6,0.2-1.2,0.3-1.9,0.3c-0.8,0-1.4-0.2-2-0.5c-0.6-0.4-1-0.9-1.4-1.5
		c-0.3-0.7-0.5-1.4-0.5-2.3V18c0-1.4,0.3-2.5,1-3.2c0.7-0.8,1.6-1.1,2.7-1.1c1,0,1.7,0.2,2.3,0.7c0.6,0.5,1,1.2,1.1,2.1h-1.2
		c-0.2-1.2-1-1.8-2.2-1.8c-0.8,0-1.4,0.3-1.9,0.9c-0.4,0.6-0.6,1.4-0.6,2.5v0.8c0,1,0.2,1.9,0.7,2.5c0.5,0.6,1.1,0.9,1.9,0.9
		c0.5,0,0.9-0.1,1.2-0.2c0.4-0.1,0.6-0.3,0.9-0.5v-2.1H307v-1h3.4V21.8z M311.9,19.5c0-0.7,0.1-1.3,0.4-1.8c0.3-0.5,0.6-1,1.1-1.2
		c0.5-0.3,1-0.4,1.6-0.4c0.9,0,1.7,0.3,2.3,1c0.6,0.6,0.9,1.5,0.9,2.6v0.1c0,0.7-0.1,1.3-0.4,1.8c-0.3,0.5-0.6,0.9-1.1,1.2
		c-0.5,0.3-1,0.4-1.6,0.4c-0.9,0-1.7-0.3-2.3-1C312.2,21.5,311.9,20.7,311.9,19.5L311.9,19.5z M313.1,19.6c0,0.8,0.2,1.4,0.5,1.8
		c0.3,0.5,0.8,0.7,1.4,0.7c0.6,0,1.1-0.2,1.4-0.7c0.3-0.5,0.5-1.1,0.5-2c0-0.8-0.2-1.4-0.5-1.8c-0.4-0.5-0.8-0.7-1.4-0.7
		c-0.6,0-1.1,0.2-1.4,0.7C313.3,18.1,313.1,18.8,313.1,19.6z M319.3,19.5c0-0.7,0.1-1.3,0.4-1.8c0.3-0.5,0.6-1,1.1-1.2
		c0.5-0.3,1-0.4,1.6-0.4c0.9,0,1.7,0.3,2.3,1c0.6,0.6,0.9,1.5,0.9,2.6v0.1c0,0.7-0.1,1.3-0.4,1.8c-0.3,0.5-0.6,0.9-1.1,1.2
		c-0.5,0.3-1,0.4-1.6,0.4c-0.9,0-1.7-0.3-2.3-1C319.6,21.5,319.3,20.7,319.3,19.5L319.3,19.5z M320.5,19.6c0,0.8,0.2,1.4,0.5,1.8
		c0.4,0.5,0.8,0.7,1.4,0.7c0.6,0,1.1-0.2,1.4-0.7c0.4-0.5,0.5-1.1,0.5-2c0-0.8-0.2-1.4-0.5-1.8c-0.3-0.5-0.8-0.7-1.4-0.7
		c-0.6,0-1,0.2-1.4,0.7C320.7,18.1,320.5,18.8,320.5,19.6z M326.8,19.5c0-1.1,0.3-1.9,0.7-2.6c0.5-0.6,1.1-1,2-1
		c0.8,0,1.5,0.3,2,0.9l0.1-0.8h1.1v6.7c0,0.9-0.3,1.6-0.8,2.1c-0.5,0.5-1.2,0.8-2.1,0.8c-0.5,0-1-0.1-1.5-0.3
		c-0.5-0.2-0.8-0.5-1.1-0.9l0.6-0.7c0.5,0.6,1.1,0.9,1.8,0.9c0.6,0,1-0.2,1.3-0.5c0.3-0.3,0.5-0.8,0.5-1.4v-0.6
		c-0.5,0.5-1.1,0.8-1.9,0.8s-1.5-0.3-2-1C327.1,21.5,326.8,20.6,326.8,19.5z M328,19.6c0,0.8,0.2,1.4,0.5,1.8
		c0.3,0.4,0.8,0.7,1.3,0.7c0.7,0,1.3-0.3,1.6-1V18c-0.4-0.7-0.9-1-1.6-1c-0.6,0-1,0.2-1.3,0.7C328.1,18.1,328,18.8,328,19.6z
		 M335.7,23h-1.2v-9.8h1.2V23z M340.4,23.1c-0.9,0-1.7-0.3-2.3-0.9c-0.6-0.6-0.9-1.4-0.9-2.5v-0.2c0-0.7,0.1-1.3,0.4-1.8
		c0.3-0.5,0.6-1,1.1-1.3c0.5-0.3,1-0.5,1.5-0.5c0.9,0,1.6,0.3,2.1,0.9c0.5,0.6,0.7,1.4,0.7,2.5v0.5h-4.6c0,0.7,0.2,1.2,0.6,1.6
		c0.4,0.4,0.9,0.6,1.4,0.6c0.4,0,0.8-0.1,1.1-0.3c0.3-0.2,0.5-0.4,0.8-0.7l0.7,0.6C342.4,22.7,341.5,23.1,340.4,23.1z M340.2,17
		c-0.5,0-0.9,0.2-1.2,0.5c-0.3,0.3-0.5,0.8-0.6,1.4h3.4v-0.1c0-0.6-0.2-1.1-0.5-1.4C341.1,17.1,340.7,17,340.2,17z"/>
	<defs>
		<filter id="Adobe_OpacityMaskFilter_4_" filterUnits="userSpaceOnUse" x="276.5" y="10" width="16" height="16">
			<feColorMatrix  type="matrix" values="1 0 0 0 0  0 1 0 0 0  0 0 1 0 0  0 0 0 1 0"/>
		</filter>
	</defs>
	<mask maskUnits="userSpaceOnUse" x="276.5" y="10" width="16" height="16" id="mask1_2_">
		<rect x="276.5" y="10" class="st52" width="16" height="16"/>
	</mask>
	<g class="st53">
		<path class="st23" d="M280.1,19.6l-0.6,2.1l-2,0c-0.6-1.1-1-2.4-1-3.8c0-1.3,0.3-2.6,0.9-3.7l0,0l1.8,0.3l0.8,1.8
			c-0.2,0.5-0.3,1-0.3,1.5C279.8,18.5,279.9,19.1,280.1,19.6z"/>
		<path class="st24" d="M292.4,16.5c0.1,0.5,0.1,1,0.1,1.5c0,0.6-0.1,1.1-0.2,1.7c-0.4,1.8-1.4,3.4-2.8,4.6v0l-2.3-0.1l-0.3-2
			c0.9-0.5,1.7-1.4,2-2.4h-4.3v-3.2h4.3H292.4z"/>
		<path class="st25" d="M289.5,24.3L289.5,24.3c-1.4,1.1-3.1,1.7-5,1.7c-3.1,0-5.7-1.7-7.1-4.2l2.6-2.1c0.7,1.8,2.4,3.1,4.5,3.1
			c0.9,0,1.7-0.2,2.4-0.6L289.5,24.3z"/>
		<path class="st26" d="M289.7,11.8l-2.6,2.1c-0.7-0.5-1.6-0.7-2.5-0.7c-2.1,0-3.9,1.3-4.5,3.2l-2.6-2.1l0,0c1.3-2.5,4-4.3,7.1-4.3
			C286.5,10,288.3,10.7,289.7,11.8z"/>
	</g>
	<rect x="67.5" y="3" class="st37" width="200" height="31"/>
	<path class="st54" d="M251.5,17.3l-4.3-4.3l-0.7,0.7l4.3,4.3l-4.3,4.3l0.7,0.7l4.3-4.3l4.3,4.3l0.7-0.7l-4.3-4.3l4.3-4.3l-0.7-0.7
		L251.5,17.3z"/>
	<path class="st55" d="M105.4,18.4l2.4-4.6h1.4l-3.2,5.8V23h-1.2v-3.4l-3.2-5.8h1.4L105.4,18.4z M109.5,19.5c0-0.7,0.1-1.3,0.4-1.8
		c0.3-0.5,0.6-1,1.1-1.2c0.5-0.3,1-0.4,1.6-0.4c0.9,0,1.7,0.3,2.3,1c0.6,0.6,0.9,1.5,0.9,2.6v0.1c0,0.7-0.1,1.3-0.4,1.8
		c-0.3,0.5-0.6,0.9-1.1,1.2c-0.5,0.3-1,0.4-1.6,0.4c-0.9,0-1.7-0.3-2.3-1C109.8,21.5,109.5,20.7,109.5,19.5L109.5,19.5z M110.7,19.6
		c0,0.8,0.2,1.4,0.5,1.8c0.4,0.5,0.8,0.7,1.4,0.7c0.6,0,1.1-0.2,1.4-0.7c0.3-0.5,0.5-1.1,0.5-2c0-0.8-0.2-1.4-0.5-1.8
		c-0.3-0.5-0.8-0.7-1.4-0.7c-0.6,0-1,0.2-1.4,0.7C110.8,18.1,110.7,18.8,110.7,19.6z M121.4,22.3c-0.5,0.5-1.1,0.8-2,0.8
		c-0.7,0-1.3-0.2-1.7-0.6c-0.4-0.4-0.6-1.1-0.6-1.9v-4.5h1.2v4.4c0,1,0.4,1.6,1.3,1.6c0.9,0,1.5-0.3,1.8-1v-5h1.2V23h-1.1
		L121.4,22.3z M127.7,17.2c-0.2,0-0.4,0-0.6,0c-0.8,0-1.3,0.3-1.6,1V23h-1.2v-6.9h1.2l0,0.8c0.4-0.6,0.9-0.9,1.6-0.9
		c0.2,0,0.4,0,0.5,0.1V17.2z M134.9,18.9c-1-0.3-1.8-0.7-2.3-1.1c-0.5-0.4-0.7-1-0.7-1.6c0-0.7,0.3-1.3,0.9-1.8
		c0.6-0.5,1.3-0.7,2.3-0.7c0.6,0,1.2,0.1,1.7,0.4c0.5,0.2,0.9,0.6,1.2,1c0.3,0.4,0.4,0.9,0.4,1.4h-1.2c0-0.6-0.2-1-0.5-1.3
		c-0.4-0.3-0.9-0.5-1.5-0.5c-0.6,0-1.1,0.1-1.4,0.4c-0.3,0.3-0.5,0.6-0.5,1.1c0,0.4,0.2,0.7,0.5,1c0.3,0.3,0.9,0.5,1.6,0.7
		c0.8,0.2,1.4,0.5,1.8,0.7c0.4,0.3,0.8,0.6,1,0.9s0.3,0.8,0.3,1.2c0,0.7-0.3,1.3-0.9,1.8c-0.6,0.4-1.4,0.7-2.3,0.7
		c-0.6,0-1.2-0.1-1.8-0.4c-0.5-0.2-1-0.6-1.3-1c-0.3-0.4-0.5-0.9-0.5-1.4h1.2c0,0.6,0.2,1,0.6,1.3c0.4,0.3,1,0.5,1.7,0.5
		c0.6,0,1.1-0.1,1.5-0.4c0.3-0.3,0.5-0.6,0.5-1.1c0-0.5-0.2-0.8-0.5-1C136.3,19.4,135.7,19.1,134.9,18.9z M141,23h-1.2v-6.9h1.2V23z
		 M139.7,14.3c0-0.2,0.1-0.4,0.2-0.5c0.1-0.1,0.3-0.2,0.5-0.2s0.4,0.1,0.5,0.2c0.1,0.1,0.2,0.3,0.2,0.5c0,0.2-0.1,0.3-0.2,0.5
		c-0.1,0.1-0.3,0.2-0.5,0.2s-0.4-0.1-0.5-0.2C139.8,14.7,139.7,14.5,139.7,14.3z M144.5,14.5v1.7h1.3V17h-1.3v4.3
		c0,0.3,0.1,0.5,0.2,0.6c0.1,0.1,0.3,0.2,0.6,0.2c0.1,0,0.3,0,0.6-0.1v1c-0.3,0.1-0.6,0.1-0.9,0.1c-0.5,0-0.9-0.2-1.2-0.5
		c-0.3-0.3-0.4-0.8-0.4-1.4V17H142v-0.9h1.3v-1.7H144.5z M150,23.1c-0.9,0-1.7-0.3-2.3-0.9c-0.6-0.6-0.9-1.4-0.9-2.5v-0.2
		c0-0.7,0.1-1.3,0.4-1.8c0.3-0.5,0.6-1,1.1-1.3c0.5-0.3,1-0.5,1.5-0.5c0.9,0,1.6,0.3,2.1,0.9c0.5,0.6,0.8,1.4,0.8,2.5v0.5H148
		c0,0.7,0.2,1.2,0.6,1.6c0.4,0.4,0.9,0.6,1.5,0.6c0.4,0,0.8-0.1,1-0.3c0.3-0.2,0.5-0.4,0.8-0.7l0.7,0.6
		C152,22.7,151.1,23.1,150,23.1z M149.8,17c-0.5,0-0.9,0.2-1.2,0.5c-0.3,0.3-0.5,0.8-0.6,1.4h3.4v-0.1c0-0.6-0.2-1.1-0.5-1.4
		C150.7,17.1,150.3,17,149.8,17z M163.6,14.8h-3V23h-1.2v-8.2h-3v-1h7.2V14.8z M166,23h-1.2v-6.9h1.2V23z M164.8,14.3
		c0-0.2,0.1-0.4,0.2-0.5c0.1-0.1,0.3-0.2,0.5-0.2c0.2,0,0.4,0.1,0.5,0.2c0.1,0.1,0.2,0.3,0.2,0.5c0,0.2-0.1,0.3-0.2,0.5
		c-0.1,0.1-0.3,0.2-0.5,0.2c-0.2,0-0.4-0.1-0.5-0.2C164.8,14.7,164.8,14.5,164.8,14.3z M169.5,14.5v1.7h1.3V17h-1.3v4.3
		c0,0.3,0.1,0.5,0.2,0.6c0.1,0.1,0.3,0.2,0.6,0.2c0.1,0,0.3,0,0.6-0.1v1c-0.3,0.1-0.6,0.1-0.9,0.1c-0.5,0-0.9-0.2-1.2-0.5
		c-0.3-0.3-0.4-0.8-0.4-1.4V17h-1.3v-0.9h1.3v-1.7H169.5z M173.4,23h-1.2v-9.8h1.2V23z M178.2,23.1c-0.9,0-1.7-0.3-2.3-0.9
		c-0.6-0.6-0.9-1.4-0.9-2.5v-0.2c0-0.7,0.1-1.3,0.4-1.8c0.3-0.5,0.6-1,1.1-1.3c0.5-0.3,1-0.5,1.5-0.5c0.9,0,1.6,0.3,2.1,0.9
		c0.5,0.6,0.7,1.4,0.7,2.5v0.5h-4.7c0,0.7,0.2,1.2,0.6,1.6c0.4,0.4,0.9,0.6,1.4,0.6c0.4,0,0.8-0.1,1.1-0.3c0.3-0.2,0.5-0.4,0.8-0.7
		l0.7,0.6C180.2,22.7,179.3,23.1,178.2,23.1z M178,17c-0.5,0-0.9,0.2-1.2,0.5c-0.3,0.3-0.5,0.8-0.6,1.4h3.4v-0.1
		c0-0.6-0.2-1.1-0.5-1.4C178.9,17.1,178.5,17,178,17z"/>
	<defs>
		<filter id="Adobe_OpacityMaskFilter_5_" filterUnits="userSpaceOnUse" x="76.5" y="10" width="15" height="16">
			<feColorMatrix  type="matrix" values="1 0 0 0 0  0 1 0 0 0  0 0 1 0 0  0 0 0 1 0"/>
		</filter>
	</defs>
	<mask maskUnits="userSpaceOnUse" x="76.5" y="10" width="15" height="16" id="mask2_2_">
		<rect x="75.5" y="10" class="st56" width="16" height="16"/>
	</mask>
	<g class="st57">
		<path class="st31" d="M76.5,17.1L76.5,17.1c0.1-0.8,0.3-1.5,0.5-2.2c0.3-0.7,0.6-1.3,1-1.9c0.4-0.6,1-1.1,1.5-1.6
			c0.6-0.4,1.3-0.8,2-1.1c0.8-0.3,1.6-0.4,2.5-0.4c1.4,0,2.6,0.3,3.8,0.9s2,1.5,2.7,2.7c0.6,1.1,0.9,2.4,0.9,4v1.7H81.3
			c0,0.7,0.2,1.2,0.5,1.7c0.3,0.5,0.7,0.9,1.2,1.1c0.5,0.2,1.1,0.4,1.7,0.5c0.6,0.1,1.3,0.1,1.9,0c0.6-0.1,1.3-0.2,1.9-0.4
			c0.6-0.2,1.1-0.5,1.6-0.8v3.4c-0.6,0.3-1.3,0.6-2.1,0.8c-0.8,0.2-1.8,0.3-2.8,0.3c-1,0-2-0.2-2.9-0.5c-1.1-0.4-2.1-1.2-2.8-2.2
			s-1.1-2.2-1.1-3.3c0-1.4,0.3-2.7,1-3.7c0.7-1,1.7-1.8,2.9-2.4c-0.3,0.4-0.5,0.7-0.7,1.1c-0.2,0.4-0.3,0.9-0.4,1.4H87
			c0.1-0.5,0-0.9-0.1-1.3c-0.1-0.4-0.2-0.7-0.4-0.9c-0.2-0.2-0.4-0.4-0.6-0.6c-0.2-0.2-0.5-0.3-0.7-0.4c-0.2-0.1-0.5-0.1-0.7-0.2
			c-0.2,0-0.4-0.1-0.5-0.1l-0.2,0c-0.8,0-1.6,0.2-2.4,0.4c-0.8,0.2-1.4,0.5-2,0.9s-1.1,0.8-1.6,1.3C77.3,16.1,76.9,16.6,76.5,17.1z"
			/>
	</g>
	<rect x="66.5" y="3" class="st58" width="1" height="31"/>
	<rect x="2.5" y="3" class="st50" width="64" height="31"/>
	<path class="st48" d="M45.3,21.4l-2.7-2.7c-0.1,0-0.1-0.1-0.1-0.2s0-0.1,0.1-0.2l2.7-2.7l0.6,0.6L44,18l8.5,0v1H44l1.9,1.8
		L45.3,21.4z"/>
	<path class="st38" d="M57.5,13h-9h-1v1v1v1v1h1v-1h9v6h-9v-2h-1v2v1h1h9h1v-1v-6v-1v-1v-1H57.5z M57.5,15h-9v-1h9V15z"/>
	<path class="st38" d="M15.5,15h9h1v1v1v1v6v1h-1h-9h-1v-1v-6v-1v-1v-1H15.5z M15.5,16v1h9v-1H15.5z M15.5,18v6h9v-6H15.5z"/>
	<path class="st38" d="M12.5,11h9h1v1v1v1v1h-1v-1h-9v6h3v1h-3h-1v-1v-6v-1v-1v-1H12.5z M12.5,12v1h9v-1H12.5z"/>
	<path class="st48" d="M1413,12.8l0.4-0.4l-0.4-0.4l-0.4,0.4L1413,12.8z M1413.4,13.1l-0.4,0.4L1413.4,13.1z M1412.3,13.5l-0.4-0.4
		l-0.3,0.4l0.3,0.4L1412.3,13.5z M1412.6,13.9l0.4-0.4L1412.6,13.9z M1416.8,18l0.4,0.4l0.4-0.4l-0.4-0.4L1416.8,18z M1412.6,22.1
		l-0.4-0.4l0,0L1412.6,22.1z M1412.3,22.5l-0.4-0.4l-0.3,0.4l0.3,0.4L1412.3,22.5z M1413,23.2l-0.4,0.4l0.4,0.4l0.4-0.4L1413,23.2z
		 M1413.4,22.9l0.4,0.4l0,0L1413.4,22.9z M1417.5,18.7l0.4-0.4l-0.4-0.4l-0.4,0.4L1417.5,18.7z M1421.6,22.9l-0.4,0.4l0,0
		L1421.6,22.9z M1422,23.2l-0.4,0.4l0.4,0.4l0.4-0.4L1422,23.2z M1422.7,22.5l0.4,0.4l0.3-0.4l-0.3-0.4L1422.7,22.5z M1422.4,22.1
		l0.4-0.4l0,0L1422.4,22.1z M1418.2,18l-0.4-0.4l-0.4,0.4l0.4,0.4L1418.2,18z M1422.4,13.9l0.4,0.4l0,0L1422.4,13.9z M1422.7,13.5
		l0.4,0.4l0.3-0.4l-0.3-0.4L1422.7,13.5z M1422,12.8l0.4-0.4l-0.4-0.4l-0.4,0.4L1422,12.8z M1421.6,13.1l-0.4-0.4l0,0L1421.6,13.1z
		 M1417.5,17.3l-0.4,0.4l0.4,0.4l0.4-0.4L1417.5,17.3z M1412.6,13.1l0.4,0.4l0.7-0.7l-0.4-0.4L1412.6,13.1z M1412.6,13.9l0.7-0.7
		l-0.7-0.7l-0.7,0.7L1412.6,13.9z M1413,13.5l-0.4-0.4l-0.7,0.7l0.4,0.4L1413,13.5z M1417.1,17.6l-4.1-4.1l-0.7,0.7l4.1,4.1
		L1417.1,17.6z M1413,22.5l4.1-4.1l-0.7-0.7l-4.1,4.1L1413,22.5z M1412.6,22.9l0.4-0.4l-0.7-0.7l-0.4,0.4L1412.6,22.9z M1413.4,22.9
		l-0.7-0.7l-0.7,0.7l0.7,0.7L1413.4,22.9z M1413,22.5l-0.4,0.4l0.7,0.7l0.4-0.4L1413,22.5z M1417.1,18.4l-4.1,4.1l0.7,0.7l4.1-4.1
		L1417.1,18.4z M1422,22.5l-4.1-4.1l-0.7,0.7l4.1,4.1L1422,22.5z M1422.4,22.9l-0.4-0.4l-0.7,0.7l0.4,0.4L1422.4,22.9z M1422.4,22.1
		l-0.7,0.7l0.7,0.7l0.7-0.7L1422.4,22.1z M1422,22.5l0.4,0.4l0.7-0.7l-0.4-0.4L1422,22.5z M1417.9,18.4l4.1,4.1l0.7-0.7l-4.1-4.1
		L1417.9,18.4z M1422,13.5l-4.1,4.1l0.7,0.7l4.1-4.1L1422,13.5z M1422.4,13.1l-0.4,0.4l0.7,0.7l0.4-0.4L1422.4,13.1z M1421.6,13.1
		l0.7,0.7l0.7-0.7l-0.7-0.7L1421.6,13.1z M1422,13.5l0.4-0.4l-0.7-0.7l-0.4,0.4L1422,13.5z M1417.9,17.6l4.1-4.1l-0.7-0.7l-4.1,4.1
		L1417.9,17.6z M1413,13.5l4.1,4.1l0.7-0.7l-4.1-4.1L1413,13.5z"/>
	<rect x="1367" y="13.5" class="st59" width="9" height="9"/>
	<rect x="1320.5" y="17" class="st48" width="10" height="1"/>
</g>
</svg>
