
<!-- Generator: Element Pack Addon  -->
<svg version="1.1" id="Layer_1" xmlns="http://www.w3.org/2000/svg" xmlns:xlink="http://www.w3.org/1999/xlink" x="0px" y="0px"
	 viewBox="0 0 1442 811" style="enable-background:new 0 0 1442 811;" xml:space="preserve">
<style type="text/css">
	.st0{display:none;}
	.st1{display:inline;}
	.st2{fill:#010101;fill-opacity:1.000000e-02;}
	.st3{display:inline;fill:#E9E8E8;}
	.st4{display:inline;fill:#CECECD;}
	.st5{display:inline;fill:#F3F3F3;}
	.st6{display:inline;fill-rule:evenodd;clip-rule:evenodd;fill:#020202;}
	.st7{display:inline;fill:none;stroke:#020202;stroke-linecap:round;stroke-linejoin:round;}
	.st8{display:inline;fill:none;stroke:#020202;}
	.st9{display:inline;fill-rule:evenodd;clip-rule:evenodd;fill:#D8D9D8;}
	.st10{display:inline;fill-rule:evenodd;clip-rule:evenodd;fill:#FFFFFF;filter:url(#Adobe_OpacityMaskFilter);}
	.st11{display:inline;mask:url(#path-68-inside-2_2_);fill:#979797;}
	.st12{display:inline;fill-rule:evenodd;clip-rule:evenodd;fill:#9F9F9F;}
	.st13{display:inline;fill-rule:evenodd;clip-rule:evenodd;fill:#3A3A39;}
	.st14{display:inline;fill:#FFFFFF;stroke:#CCCCCC;}
	.st15{display:inline;fill:#020202;}
	.st16{display:inline;fill-rule:evenodd;clip-rule:evenodd;fill:#939393;}
	.st17{display:inline;fill:#CCCCCC;}
	.st18{display:inline;fill-rule:evenodd;clip-rule:evenodd;fill:#010101;}
	.st19{display:inline;fill:#7D7D7D;}
	.st20{display:inline;fill:#292929;}
	.st21{display:inline;fill:#FFFFFF;filter:url(#Adobe_OpacityMaskFilter_1_);}
	.st22{display:inline;mask:url(#mask4_2_);}
	.st23{fill:#F9BB16;}
	.st24{fill:#6287C5;}
	.st25{fill:#2FB44A;}
	.st26{fill:#EF4438;}
	.st27{display:inline;fill-rule:evenodd;clip-rule:evenodd;fill:#C7C6C5;}
	.st28{display:inline;fill:#010101;}
	.st29{display:inline;fill:#FFFFFF;filter:url(#Adobe_OpacityMaskFilter_2_);}
	.st30{display:inline;mask:url(#mask5_2_);}
	.st31{fill:#488FCC;}
	.st32{display:inline;fill:#040404;}
	.st33{display:inline;fill-rule:evenodd;clip-rule:evenodd;fill:#040404;}
	.st34{display:inline;fill:none;stroke:#010101;}
	.st35{display:inline;fill:#E0E1E0;}
	.st36{display:inline;fill:#5C5C5C;}
	.st37{display:inline;fill:#181818;}
	.st38{display:inline;fill-rule:evenodd;clip-rule:evenodd;fill:#FFFFFF;}
	.st39{display:inline;fill:none;stroke:#FFFFFF;stroke-linecap:round;stroke-linejoin:round;}
	.st40{display:inline;fill:none;stroke:#EBEBEB;}
	.st41{display:inline;fill-rule:evenodd;clip-rule:evenodd;fill:#EAEAEA;}
	.st42{display:inline;fill-rule:evenodd;clip-rule:evenodd;fill:#FFFFFF;filter:url(#Adobe_OpacityMaskFilter_3_);}
	.st43{display:inline;mask:url(#path-16-inside-1_2_);fill:#979797;}
	.st44{display:inline;fill:#373737;stroke:#5C5C5C;}
	.st45{display:inline;fill:#9F9F9F;}
	.st46{display:inline;fill:#FFFFFF;}
	.st47{display:inline;fill-rule:evenodd;clip-rule:evenodd;fill:#787878;}
	.st48{display:inline;fill:#2B2C2B;}
	.st49{display:inline;fill:#EAEAEA;}
	.st50{display:inline;fill:#FFFFFF;filter:url(#Adobe_OpacityMaskFilter_4_);}
	.st51{display:inline;mask:url(#mask1_2_);}
	.st52{display:inline;fill:#FFFFFF;filter:url(#Adobe_OpacityMaskFilter_5_);}
	.st53{display:inline;mask:url(#mask2_2_);}
	.st54{display:inline;fill:#5D5D5D;}
	.st55{display:inline;fill:none;stroke:#FFFFFF;}
	.st56{fill:#E1E1E2;}
	.st57{fill:#F8FAFB;}
	.st58{fill:none;}
	.st59{fill:#FFFFFF;}
	.st60{fill:none;stroke:#BFBEBF;}
	.st61{fill:#D4D4D4;}
	.st62{fill-rule:evenodd;clip-rule:evenodd;fill:#676767;}
	.st63{fill:#676767;}
	.st64{fill:none;stroke:#676767;stroke-width:2;stroke-linejoin:round;}
	.st65{fill-rule:evenodd;clip-rule:evenodd;fill:#2AB34B;}
	.st66{fill-rule:evenodd;clip-rule:evenodd;fill:#535355;}
	.st67{fill:#535355;}
	.st68{fill:#B5B6B6;}
	.st69{fill:#FFFFFF;stroke:#B2B2B3;}
	.st70{fill:#555556;}
	.st71{fill:#E0DFE0;}
	.st72{fill:none;stroke:#535355;stroke-width:2;stroke-linejoin:round;}
	.st73{fill:#1E1E1E;}
	.st74{fill:#262525;}
	.st75{fill:#A8A7A8;}
	.st76{fill:none;stroke:#A8A7A8;}
	.st77{fill:#BBBBBB;}
	.st78{fill:#656566;}
	.st79{fill:#FFFFFF;filter:url(#Adobe_OpacityMaskFilter_6_);}
	.st80{mask:url(#mask4_1_);}
	.st81{fill:#0E0E0F;}
	.st82{fill:#FFFFFF;filter:url(#Adobe_OpacityMaskFilter_7_);}
	.st83{mask:url(#mask5_1_);}
	.st84{fill:url(#SVGID_1_);}
	.st85{fill:url(#SVGID_2_);}
	.st86{fill:url(#SVGID_3_);}
	.st87{fill:url(#SVGID_4_);}
	.st88{fill:url(#SVGID_5_);}
	.st89{fill:url(#SVGID_6_);}
	.st90{fill:url(#SVGID_7_);}
	.st91{fill:url(#SVGID_8_);}
	.st92{fill:url(#SVGID_9_);}
	.st93{fill:url(#SVGID_10_);}
	.st94{fill:url(#SVGID_11_);}
	.st95{fill:url(#SVGID_12_);}
	.st96{fill:url(#SVGID_13_);}
	.st97{fill:url(#SVGID_14_);}
	.st98{fill:#457CBF;}
</style>
<g class="st0">
	<g class="st1">
		<path class="st2" d="M1,2v808h1440V2H1z M1440,809H2V79h1438V809z"/>
	</g>
	<path class="st3" d="M0,0v811h1442V0H0z M1440,809H2V79h1438V809z"/>
	<rect x="2" y="78" class="st4" width="1438" height="1"/>
	<rect x="2" y="34" class="st5" width="1438" height="44"/>
	<path class="st6" d="M1287,53h7v1h-7V53z M1287,56h7v1h-7V56z M1294,59h-7v1h7V59z"/>
	<path class="st7" d="M1287.6,53.5l-1.6-5.3l-1.6,5.3h-5.8l5.1,3.5l-2.3,5.5l4.6-4.1"/>
	<path class="st8" d="M1328.1,62.4c4.9-3.5,4.5,1.2,10.1-0.7"/>
	<path class="st6" d="M1332.4,49.2c0.4,0.2,0.6,0.5,0.7,0.9c0.1,0.4,0,0.8-0.2,1.1l-4.5,7.8c-0.4,0.7-1,1.4-1.6,2
		c-0.7,0.6-1.4,1-2.2,1.3l-0.1,0c-0.2,0-0.3,0-0.5-0.1c-0.1-0.1-0.2-0.2-0.3-0.4c-0.1-0.9-0.1-1.7,0.1-2.6c0.2-0.9,0.5-1.7,0.9-2.4
		l2.8-4.9l-1-0.6l-1.9,3.2c-0.1,0.1-0.1,0.1-0.2,0.2c-0.1,0-0.2,0-0.3,0l-0.3-0.2c-0.1,0-0.1-0.1-0.2-0.2s0-0.2,0-0.3l2-3.4
		c0.1-0.2,0.3-0.4,0.6-0.4s0.5,0,0.7,0.1l1.1,0.7l1.1-2c0.2-0.4,0.5-0.6,0.9-0.7c0.4-0.1,0.8-0.1,1.2,0.2L1332.4,49.2z M1327.5,58.5
		l2.8-4.9l-1.8-1l-2.8,4.9c-0.6,1.1-0.9,2.3-0.9,3.5C1326,60.4,1326.9,59.6,1327.5,58.5z M1332.1,50.4c0,0.1,0,0.2,0,0.3l-1.1,2
		l-1.7-1l1.1-2c0.1-0.1,0.1-0.2,0.2-0.2c0.1,0,0.2,0,0.3,0l1.1,0.6C1332,50.3,1332,50.3,1332.1,50.4z"/>
	<path class="st9" d="M1367,52h-1v9v1h1h10h1v-1v-1h-1v1h-10V52z"/>
	<defs>
		<filter id="Adobe_OpacityMaskFilter" filterUnits="userSpaceOnUse" x="1365" y="51" width="14" height="12">
			<feColorMatrix  type="matrix" values="1 0 0 0 0  0 1 0 0 0  0 0 1 0 0  0 0 0 1 0"/>
		</filter>
	</defs>
	<mask maskUnits="userSpaceOnUse" x="1365" y="51" width="14" height="12" id="path-68-inside-2_2_" class="st1">
		<path style="fill-rule:evenodd;clip-rule:evenodd;fill:#FFFFFF;filter:url(#Adobe_OpacityMaskFilter);" d="M1367,52h-1v9v1h1h10h1
			v-1v-1h-1v1h-10V52z"/>
	</mask>
	<path class="st11" d="M1366,52v-1h-1v1H1366z M1367,52h1v-1h-1V52z M1366,62h-1v1h1V62z M1378,62v1h1v-1H1378z M1378,60h1v-1h-1V60
		z M1377,60v-1h-1v1H1377z M1377,61v1h1v-1H1377z M1367,61h-1v1h1V61z M1366,53h1v-2h-1V53z M1367,61v-9h-2v9H1367z M1365,61v1h2v-1
		H1365z M1366,63h1v-2h-1V63z M1367,63h10v-2h-10V63z M1377,63h1v-2h-1V63z M1379,62v-1h-2v1H1379z M1379,61v-1h-2v1H1379z M1378,59
		h-1v2h1V59z M1376,60v1h2v-1H1376z M1377,60h-10v2h10V60z M1366,52v9h2v-9H1366z"/>
	<path class="st12" d="M1382,53.2c0,0.3-0.1,0.5-0.3,0.7l-4,3.8c-0.2,0.2-0.5,0.3-0.8,0.3c-0.3,0-0.5-0.1-0.8-0.3
		c-0.2-0.2-0.3-0.4-0.3-0.7v-1.7c-1.1,0.1-1.9,0.2-2.4,0.4c-0.5,0.2-0.8,0.5-0.9,0.9c-0.1,0.3,0,0.8,0.2,1.4
		c0.1,0.3,0.1,0.6-0.1,0.8c-0.2,0.3-0.4,0.4-0.7,0.5c-0.3,0.1-0.6,0-0.9-0.1c-0.7-0.4-1.2-1-1.6-1.6c-0.4-0.7-0.6-1.4-0.6-2.1
		c0-1.6,0.8-2.8,2.3-3.5c1.1-0.5,2.6-0.8,4.6-0.8v-1.7c0-0.3,0.1-0.5,0.3-0.7c0.2-0.2,0.5-0.3,0.8-0.3c0.3,0,0.6,0.1,0.8,0.3l4,3.8
		C1381.9,52.7,1382,52.9,1382,53.2z M1376.9,57l4-3.8l-4-3.8v2.8c-1.3,0-2.4,0.1-3.2,0.2c-1.1,0.2-2,0.5-2.6,0.9
		c-0.7,0.5-1.1,1.3-1.1,2.2c0,0.7,0.2,1.3,0.6,1.8c0.3,0.4,0.7,0.8,1.2,1.1c-0.4-1.1-0.4-1.9,0-2.6c0.3-0.6,1-1,1.9-1.2
		c0.8-0.2,1.9-0.3,3.2-0.3V57z"/>
	<path class="st13" d="M1411,55h2v2h-2V55z M1417,55h2v2h-2V55z M1425,55h-2v2h2V55z"/>
	<rect x="194.5" y="39.5" class="st14" width="1053" height="33"/>
	<path class="st12" d="M1232.8,54.6c-0.1-0.2-0.3-0.3-0.5-0.3l-3.8-0.5l-1.7-3.4c-0.1-0.2-0.3-0.3-0.5-0.4c-0.2-0.1-0.4-0.1-0.6,0
		c-0.2,0.1-0.3,0.2-0.5,0.4l-1.7,3.4l-3.8,0.5c-0.2,0-0.4,0.1-0.5,0.3s-0.2,0.4-0.2,0.6c0,0.2,0.1,0.4,0.3,0.5l2.8,2.6l-0.7,3.7
		c0,0.2,0,0.4,0.1,0.6c0.1,0.2,0.3,0.3,0.5,0.3c0.2,0.1,0.4,0,0.6-0.1l3.4-1.7l3.4,1.7c0.2,0.1,0.4,0.1,0.6,0.1
		c0.2-0.1,0.4-0.2,0.5-0.3c0.1-0.2,0.2-0.4,0.1-0.6l-0.7-3.7l2.8-2.6c0.2-0.2,0.2-0.3,0.3-0.5C1233,55,1232.9,54.8,1232.8,54.6z
		 M1231.3,55.4l-2.6,2.5l0.6,3.5l-3.2-1.7l-3.2,1.7l0.6-3.5l-2.6-2.5l3.6-0.5l1.6-3.2l1.6,3.2L1231.3,55.4z"/>
	<path class="st12" d="M219.8,54.9c0.3,0,0.6,0.1,0.8,0.4c0.2,0.2,0.3,0.5,0.3,0.9v5.7c0,0.3-0.1,0.6-0.3,0.9
		c-0.2,0.2-0.5,0.4-0.8,0.4h-8.6c-0.3,0-0.6-0.1-0.8-0.4c-0.2-0.2-0.3-0.5-0.3-0.9v-5.7c0-0.3,0.1-0.6,0.3-0.9
		c0.2-0.2,0.5-0.4,0.8-0.4h0.8v-1.2c0-0.7,0.2-1.3,0.5-1.8c0.3-0.6,0.7-1,1.3-1.3c0.5-0.3,1.1-0.5,1.8-0.5s1.2,0.2,1.8,0.5
		c0.5,0.3,1,0.8,1.3,1.3c0.3,0.6,0.5,1.2,0.5,1.8v1.2H219.8z M213.1,53.7v1.2h4.7v-1.2c0-0.7-0.2-1.3-0.7-1.7
		c-0.5-0.5-1-0.7-1.7-0.7s-1.2,0.2-1.7,0.7C213.4,52.4,213.1,53,213.1,53.7z M219.8,56.1v5.7h-8.6v-5.7H219.8z"/>
	<path class="st6" d="M163,55.7c0-0.1,0-0.1-0.1-0.2l-1.2-1.2v-3.1c0-0.1,0-0.1-0.1-0.2c0-0.1-0.1-0.1-0.2-0.1h-0.9
		c-0.1,0-0.1,0-0.2,0.1c0,0.1-0.1,0.1-0.1,0.2v1.9l-4.2-3.8c-0.2-0.2-0.4-0.3-0.7-0.3s-0.5,0.1-0.7,0.3l-6.7,6.3
		c-0.1,0-0.1,0.1-0.1,0.2s0,0.1,0.1,0.2l0.6,0.8c0,0,0.1,0.1,0.2,0.1c0.1,0,0.1,0,0.2,0l0.4-0.4v6.2c0,0.1,0,0.3,0.1,0.4
		c0.1,0.1,0.2,0.1,0.3,0.1h4.6c0.1,0,0.1,0,0.2-0.1c0-0.1,0.1-0.1,0.1-0.2v-4h1.8v4c0,0.1,0,0.1,0.1,0.2c0,0.1,0.1,0.1,0.2,0.1h4.6
		c0.1,0,0.2,0,0.3-0.1c0.1-0.1,0.1-0.2,0.1-0.4v-6.2l0.4,0.4c0,0,0.1,0.1,0.2,0c0.1,0,0.1,0,0.2-0.1l0.6-0.8
		C163,55.8,163,55.8,163,55.7z M160.4,55.1v6.4h-2.6v-4c0-0.1,0-0.1-0.1-0.2c0-0.1-0.1-0.1-0.2-0.1h-4c-0.1,0-0.1,0-0.2,0.1
		c0,0.1-0.1,0.1-0.1,0.2v4h-2.6v-6.4l4.7-4.4c0.1-0.1,0.2-0.1,0.3,0L160.4,55.1z"/>
	<path class="st15" d="M105.9,49h4.8c0.1,0,0.2,0,0.2,0.1s0.1,0.1,0.1,0.2v4.9h-1.4v-3.1c-1,0.4-1.8,1.1-2.4,2
		c-0.6,0.9-0.9,1.9-0.9,3c0,1,0.2,1.9,0.7,2.7c0.5,0.8,1.2,1.5,2,2c0.8,0.5,1.8,0.7,2.8,0.7s1.9-0.2,2.8-0.7c0.8-0.5,1.5-1.2,2-2
		c0.5-0.8,0.7-1.7,0.7-2.7c0-0.7-0.1-1.3-0.4-2c-0.2-0.6-0.6-1.2-1-1.7c-0.1-0.1-0.1-0.2-0.1-0.3c0-0.1,0-0.2,0.1-0.2l0.6-0.6
		c0.1-0.1,0.1-0.1,0.2-0.1c0.1,0,0.2,0,0.2,0.1c0.6,0.6,1,1.3,1.3,2.1s0.5,1.6,0.5,2.5c0,1.2-0.3,2.4-0.9,3.4
		c-0.6,1.1-1.5,1.9-2.5,2.5c-1.1,0.6-2.2,0.9-3.5,0.9s-2.4-0.3-3.5-0.9s-1.9-1.4-2.6-2.5c-0.6-1.1-0.9-2.2-0.9-3.4
		c0-1.2,0.3-2.3,0.8-3.3c0.6-1,1.3-1.8,2.3-2.5h-2.2V49z"/>
	<path class="st16" d="M76,56.4L76,56.4c-0.1-0.2-0.2-0.3-0.3-0.3l-6-6l-0.7,0.7l5.3,5.3H61v1h13.3l-5.4,5.4l0.7,0.7l6.2-6.2
		c0,0,0,0,0,0l0.1-0.1l0,0c0-0.1,0-0.1,0-0.2C76,56.5,76,56.4,76,56.4L76,56.4z"/>
	<path class="st16" d="M17,56.4L17,56.4c0.1-0.2,0.2-0.3,0.3-0.3l6-6l0.7,0.7L18.8,56H32v1H18.7l5.4,5.4l-0.7,0.7l-6.2-6.2
		c0,0,0,0,0,0L17,56.7l0,0c0-0.1,0-0.1,0-0.2C17,56.5,17,56.4,17,56.4L17,56.4z"/>
	<rect x="2" y="2" class="st17" width="1438" height="32"/>
	<path class="st18" d="M510.5,14.8c-0.2-0.2-0.5-0.2-0.7,0c-0.2,0.2-0.2,0.5,0,0.7l6.4,6.4c0.1,0.1,0.3,0.2,0.5,0.1
		c0.2,0,0.3,0,0.5-0.1l6.4-6.4c0.2-0.2,0.2-0.5,0-0.7c-0.2-0.2-0.5-0.2-0.7,0l-6.1,6.1L510.5,14.8z"/>
	<path class="st18" d="M485,12h-1v6h-6v1h6v6h1v-6h6v-1h-6V12z"/>
	<rect x="467" y="3" class="st19" width="1" height="31"/>
	<rect x="267" y="3" class="st19" width="1" height="31"/>
	<path class="st20" d="M309.9,21.8c-0.3,0.4-0.8,0.8-1.3,1c-0.6,0.2-1.2,0.3-2,0.3c-0.8,0-1.4-0.2-2-0.5c-0.6-0.4-1-0.9-1.4-1.5
		c-0.3-0.7-0.5-1.4-0.5-2.3V18c0-1.4,0.3-2.5,1-3.2c0.7-0.8,1.6-1.1,2.7-1.1c1,0,1.7,0.2,2.3,0.7c0.6,0.5,0.9,1.2,1.1,2.1h-1.2
		c-0.2-1.2-1-1.8-2.2-1.8c-0.8,0-1.4,0.3-1.9,0.9c-0.4,0.6-0.6,1.4-0.6,2.5v0.8c0,1,0.2,1.9,0.7,2.5c0.5,0.6,1.1,0.9,1.9,0.9
		c0.5,0,0.9-0.1,1.2-0.2c0.3-0.1,0.6-0.3,0.9-0.5v-2.1h-2.1v-1h3.4V21.8z M311.4,19.5c0-0.7,0.1-1.3,0.4-1.8c0.3-0.5,0.6-1,1.1-1.2
		c0.5-0.3,1-0.4,1.6-0.4c0.9,0,1.7,0.3,2.3,1c0.6,0.6,0.9,1.5,0.9,2.6v0.1c0,0.7-0.1,1.3-0.4,1.8c-0.3,0.5-0.6,0.9-1.1,1.2
		c-0.5,0.3-1,0.4-1.6,0.4c-0.9,0-1.7-0.3-2.3-1C311.7,21.5,311.4,20.7,311.4,19.5L311.4,19.5z M312.6,19.6c0,0.8,0.2,1.4,0.5,1.8
		c0.4,0.5,0.8,0.7,1.4,0.7c0.6,0,1.1-0.2,1.4-0.7c0.4-0.5,0.5-1.1,0.5-2c0-0.8-0.2-1.4-0.5-1.8c-0.4-0.5-0.8-0.7-1.4-0.7
		c-0.6,0-1,0.2-1.4,0.7C312.8,18.1,312.6,18.8,312.6,19.6z M318.9,19.5c0-0.7,0.1-1.3,0.4-1.8c0.3-0.5,0.6-1,1.1-1.2
		c0.5-0.3,1-0.4,1.6-0.4c0.9,0,1.7,0.3,2.3,1c0.6,0.6,0.9,1.5,0.9,2.6v0.1c0,0.7-0.1,1.3-0.4,1.8c-0.3,0.5-0.6,0.9-1.1,1.2
		c-0.5,0.3-1,0.4-1.6,0.4c-0.9,0-1.7-0.3-2.3-1C319.1,21.5,318.9,20.7,318.9,19.5L318.9,19.5z M320,19.6c0,0.8,0.2,1.4,0.5,1.8
		c0.4,0.5,0.8,0.7,1.4,0.7c0.6,0,1.1-0.2,1.4-0.7c0.4-0.5,0.5-1.1,0.5-2c0-0.8-0.2-1.4-0.5-1.8c-0.4-0.5-0.8-0.7-1.4-0.7
		c-0.6,0-1,0.2-1.4,0.7C320.2,18.1,320,18.8,320,19.6z M326.3,19.5c0-1.1,0.2-1.9,0.7-2.6c0.5-0.6,1.2-1,2-1c0.8,0,1.5,0.3,2,0.9
		l0.1-0.8h1.1v6.7c0,0.9-0.3,1.6-0.8,2.1c-0.5,0.5-1.2,0.8-2.1,0.8c-0.5,0-1-0.1-1.5-0.3c-0.5-0.2-0.8-0.5-1.1-0.9l0.6-0.7
		c0.5,0.6,1.1,0.9,1.8,0.9c0.6,0,1-0.2,1.3-0.5c0.3-0.3,0.5-0.8,0.5-1.4v-0.6c-0.5,0.5-1.1,0.8-1.9,0.8c-0.8,0-1.5-0.3-2-1
		C326.5,21.5,326.3,20.6,326.3,19.5z M327.5,19.6c0,0.8,0.2,1.4,0.5,1.8c0.3,0.4,0.8,0.7,1.3,0.7c0.7,0,1.3-0.3,1.6-1V18
		c-0.4-0.7-0.9-1-1.6-1c-0.6,0-1,0.2-1.3,0.7C327.6,18.1,327.5,18.8,327.5,19.6z M335.2,23H334v-9.8h1.2V23z M339.9,23.1
		c-0.9,0-1.7-0.3-2.3-0.9c-0.6-0.6-0.9-1.4-0.9-2.5v-0.2c0-0.7,0.1-1.3,0.4-1.8c0.3-0.5,0.6-1,1.1-1.3c0.5-0.3,1-0.5,1.5-0.5
		c0.9,0,1.6,0.3,2.1,0.9c0.5,0.6,0.7,1.4,0.7,2.5v0.5h-4.7c0,0.7,0.2,1.2,0.6,1.6c0.4,0.4,0.9,0.6,1.4,0.6c0.4,0,0.8-0.1,1.1-0.3
		c0.3-0.2,0.5-0.4,0.8-0.7l0.7,0.6C341.9,22.7,341,23.1,339.9,23.1z M339.7,17c-0.5,0-0.9,0.2-1.2,0.5c-0.3,0.3-0.5,0.8-0.6,1.4h3.4
		v-0.1c0-0.6-0.2-1.1-0.5-1.4C340.6,17.1,340.2,17,339.7,17z"/>
	<defs>
		<filter id="Adobe_OpacityMaskFilter_1_" filterUnits="userSpaceOnUse" x="276" y="10" width="16" height="16">
			<feColorMatrix  type="matrix" values="1 0 0 0 0  0 1 0 0 0  0 0 1 0 0  0 0 0 1 0"/>
		</filter>
	</defs>
	<mask maskUnits="userSpaceOnUse" x="276" y="10" width="16" height="16" id="mask4_2_" class="st1">
		<rect x="276" y="10" style="fill:#FFFFFF;filter:url(#Adobe_OpacityMaskFilter_1_);" width="16" height="16"/>
	</mask>
	<g class="st22">
		<path class="st23" d="M279.6,19.6l-0.6,2.1l-2,0c-0.6-1.1-1-2.4-1-3.8c0-1.3,0.3-2.6,0.9-3.7l0,0l1.8,0.3l0.8,1.8
			c-0.2,0.5-0.3,1-0.3,1.5C279.3,18.5,279.4,19.1,279.6,19.6z"/>
		<path class="st24" d="M291.9,16.5c0.1,0.5,0.1,1,0.1,1.5c0,0.6-0.1,1.1-0.2,1.7c-0.4,1.8-1.4,3.4-2.8,4.6v0l-2.3-0.1l-0.3-2
			c0.9-0.5,1.7-1.4,2.1-2.4h-4.3v-3.2h4.3H291.9z"/>
		<path class="st25" d="M289,24.3L289,24.3c-1.4,1.1-3.1,1.7-5,1.7c-3.1,0-5.7-1.7-7.1-4.2l2.6-2.1c0.7,1.8,2.4,3.1,4.5,3.1
			c0.9,0,1.7-0.2,2.4-0.6L289,24.3z"/>
		<path class="st26" d="M289.2,11.8l-2.6,2.1c-0.7-0.5-1.6-0.7-2.5-0.7c-2.1,0-3.9,1.3-4.5,3.2l-2.6-2.1h0c1.3-2.5,4-4.3,7.1-4.3
			C286,10,287.8,10.7,289.2,11.8z"/>
	</g>
	<rect x="67" y="3" class="st5" width="200" height="31"/>
	<path class="st27" d="M251,17.3l-4.3-4.3l-0.7,0.7l4.3,4.3l-4.3,4.3l0.7,0.7l4.3-4.3l4.3,4.3l0.7-0.7l-4.3-4.3l4.3-4.3l-0.7-0.7
		L251,17.3z"/>
	<path class="st28" d="M104.9,18.4l2.4-4.6h1.4l-3.2,5.8V23h-1.2v-3.4l-3.2-5.8h1.4L104.9,18.4z M109,19.5c0-0.7,0.1-1.3,0.4-1.8
		c0.3-0.5,0.6-1,1.1-1.2c0.5-0.3,1-0.4,1.6-0.4c0.9,0,1.7,0.3,2.3,1c0.6,0.6,0.9,1.5,0.9,2.6v0.1c0,0.7-0.1,1.3-0.4,1.8
		c-0.3,0.5-0.6,0.9-1.1,1.2c-0.5,0.3-1,0.4-1.6,0.4c-0.9,0-1.7-0.3-2.3-1C109.3,21.5,109,20.7,109,19.5L109,19.5z M110.1,19.6
		c0,0.8,0.2,1.4,0.5,1.8c0.4,0.5,0.8,0.7,1.4,0.7c0.6,0,1.1-0.2,1.4-0.7c0.4-0.5,0.5-1.1,0.5-2c0-0.8-0.2-1.4-0.5-1.8
		c-0.4-0.5-0.8-0.7-1.4-0.7c-0.6,0-1,0.2-1.4,0.7C110.3,18.1,110.1,18.8,110.1,19.6z M120.9,22.3c-0.5,0.5-1.1,0.8-2,0.8
		c-0.7,0-1.3-0.2-1.7-0.6c-0.4-0.4-0.6-1.1-0.6-1.9v-4.5h1.2v4.4c0,1,0.4,1.6,1.3,1.6c0.9,0,1.5-0.3,1.8-1v-5h1.2V23H121L120.9,22.3
		z M127.2,17.2c-0.2,0-0.4,0-0.6,0c-0.8,0-1.3,0.3-1.6,1V23h-1.2v-6.9h1.1l0,0.8c0.4-0.6,0.9-0.9,1.6-0.9c0.2,0,0.4,0,0.5,0.1V17.2z
		 M134.4,18.9c-1-0.3-1.8-0.7-2.3-1.1c-0.5-0.4-0.7-1-0.7-1.6c0-0.7,0.3-1.3,0.9-1.8c0.6-0.5,1.3-0.7,2.3-0.7c0.6,0,1.2,0.1,1.7,0.4
		c0.5,0.2,0.9,0.6,1.2,1c0.3,0.4,0.4,0.9,0.4,1.4h-1.2c0-0.6-0.2-1-0.5-1.3c-0.4-0.3-0.9-0.5-1.5-0.5c-0.6,0-1.1,0.1-1.4,0.4
		c-0.3,0.3-0.5,0.6-0.5,1.1c0,0.4,0.2,0.7,0.5,1c0.3,0.3,0.9,0.5,1.6,0.7c0.8,0.2,1.4,0.5,1.8,0.7c0.4,0.3,0.8,0.6,1,0.9
		c0.2,0.3,0.3,0.8,0.3,1.2c0,0.7-0.3,1.3-0.9,1.8c-0.6,0.4-1.4,0.7-2.3,0.7c-0.6,0-1.2-0.1-1.8-0.4c-0.5-0.2-1-0.6-1.3-1
		c-0.3-0.4-0.4-0.9-0.4-1.4h1.2c0,0.6,0.2,1,0.6,1.3c0.4,0.3,1,0.5,1.7,0.5c0.6,0,1.1-0.1,1.5-0.4c0.3-0.3,0.5-0.6,0.5-1.1
		c0-0.5-0.2-0.8-0.5-1C135.8,19.4,135.2,19.1,134.4,18.9z M140.5,23h-1.2v-6.9h1.2V23z M139.2,14.3c0-0.2,0.1-0.4,0.2-0.5
		c0.1-0.1,0.3-0.2,0.5-0.2c0.2,0,0.4,0.1,0.5,0.2c0.1,0.1,0.2,0.3,0.2,0.5c0,0.2-0.1,0.3-0.2,0.5c-0.1,0.1-0.3,0.2-0.5,0.2
		c-0.2,0-0.4-0.1-0.5-0.2C139.3,14.7,139.2,14.5,139.2,14.3z M144,14.5v1.7h1.3V17H144v4.3c0,0.3,0.1,0.5,0.2,0.6
		c0.1,0.1,0.3,0.2,0.6,0.2c0.1,0,0.3,0,0.6-0.1v1c-0.3,0.1-0.6,0.1-0.9,0.1c-0.5,0-0.9-0.2-1.2-0.5c-0.3-0.3-0.4-0.8-0.4-1.4V17
		h-1.3v-0.9h1.3v-1.7H144z M149.5,23.1c-0.9,0-1.7-0.3-2.3-0.9c-0.6-0.6-0.9-1.4-0.9-2.5v-0.2c0-0.7,0.1-1.3,0.4-1.8
		c0.3-0.5,0.6-1,1.1-1.3c0.5-0.3,1-0.5,1.5-0.5c0.9,0,1.6,0.3,2.1,0.9c0.5,0.6,0.7,1.4,0.7,2.5v0.5h-4.7c0,0.7,0.2,1.2,0.6,1.6
		c0.4,0.4,0.9,0.6,1.4,0.6c0.4,0,0.8-0.1,1.1-0.3c0.3-0.2,0.5-0.4,0.8-0.7l0.7,0.6C151.5,22.7,150.6,23.1,149.5,23.1z M149.3,17
		c-0.5,0-0.9,0.2-1.2,0.5c-0.3,0.3-0.5,0.8-0.6,1.4h3.4v-0.1c0-0.6-0.2-1.1-0.5-1.4C150.2,17.1,149.8,17,149.3,17z M163.1,14.8h-3
		V23h-1.2v-8.2h-3v-1h7.1V14.8z M165.5,23h-1.2v-6.9h1.2V23z M164.3,14.3c0-0.2,0.1-0.4,0.2-0.5c0.1-0.1,0.3-0.2,0.5-0.2
		c0.2,0,0.4,0.1,0.5,0.2c0.1,0.1,0.2,0.3,0.2,0.5c0,0.2-0.1,0.3-0.2,0.5c-0.1,0.1-0.3,0.2-0.5,0.2c-0.2,0-0.4-0.1-0.5-0.2
		C164.3,14.7,164.3,14.5,164.3,14.3z M169,14.5v1.7h1.3V17H169v4.3c0,0.3,0.1,0.5,0.2,0.6c0.1,0.1,0.3,0.2,0.6,0.2
		c0.1,0,0.3,0,0.6-0.1v1c-0.3,0.1-0.6,0.1-0.9,0.1c-0.5,0-0.9-0.2-1.2-0.5s-0.4-0.8-0.4-1.4V17h-1.3v-0.9h1.3v-1.7H169z M172.9,23
		h-1.2v-9.8h1.2V23z M177.7,23.1c-0.9,0-1.7-0.3-2.3-0.9c-0.6-0.6-0.9-1.4-0.9-2.5v-0.2c0-0.7,0.1-1.3,0.4-1.8
		c0.3-0.5,0.6-1,1.1-1.3c0.5-0.3,1-0.5,1.5-0.5c0.9,0,1.6,0.3,2.1,0.9c0.5,0.6,0.7,1.4,0.7,2.5v0.5h-4.7c0,0.7,0.2,1.2,0.6,1.6
		c0.4,0.4,0.9,0.6,1.4,0.6c0.4,0,0.8-0.1,1.1-0.3c0.3-0.2,0.5-0.4,0.8-0.7l0.7,0.6C179.7,22.7,178.8,23.1,177.7,23.1z M177.5,17
		c-0.5,0-0.9,0.2-1.2,0.5c-0.3,0.3-0.5,0.8-0.6,1.4h3.4v-0.1c0-0.6-0.2-1.1-0.5-1.4C178.4,17.1,178,17,177.5,17z"/>
	<defs>
		<filter id="Adobe_OpacityMaskFilter_2_" filterUnits="userSpaceOnUse" x="76" y="10" width="15" height="16">
			<feColorMatrix  type="matrix" values="1 0 0 0 0  0 1 0 0 0  0 0 1 0 0  0 0 0 1 0"/>
		</filter>
	</defs>
	<mask maskUnits="userSpaceOnUse" x="76" y="10" width="15" height="16" id="mask5_2_" class="st1">
		<rect x="75" y="10" style="fill:#FFFFFF;filter:url(#Adobe_OpacityMaskFilter_2_);" width="16" height="16"/>
	</mask>
	<g class="st30">
		<path class="st31" d="M76,17.1L76,17.1c0.1-0.8,0.3-1.5,0.5-2.2c0.3-0.7,0.6-1.3,1-1.9c0.4-0.6,0.9-1.1,1.5-1.6
			c0.6-0.4,1.2-0.8,2-1.1c0.8-0.3,1.6-0.4,2.5-0.4c1.4,0,2.6,0.3,3.8,0.9c1.1,0.6,2,1.5,2.7,2.7c0.6,1.1,0.9,2.4,0.9,4v1.7H80.8
			c0,0.7,0.2,1.2,0.5,1.7c0.3,0.5,0.7,0.9,1.2,1.1c0.5,0.2,1.1,0.4,1.7,0.5c0.6,0.1,1.3,0.1,1.9,0c0.7-0.1,1.3-0.2,1.9-0.4
			c0.6-0.2,1.1-0.5,1.6-0.8v3.4c-0.6,0.3-1.3,0.6-2.1,0.8c-0.8,0.2-1.8,0.3-2.8,0.3c-1.1,0-2-0.2-2.9-0.5c-1.1-0.4-2.1-1.2-2.8-2.2
			c-0.7-1-1.1-2.2-1.1-3.3c0-1.4,0.3-2.7,1-3.7c0.7-1,1.7-1.8,2.9-2.4c-0.3,0.4-0.5,0.7-0.7,1.1c-0.2,0.4-0.3,0.9-0.4,1.4h5.8
			c0-0.5,0-0.9-0.1-1.3c-0.1-0.4-0.2-0.7-0.4-0.9s-0.4-0.4-0.6-0.6c-0.2-0.2-0.5-0.3-0.7-0.4c-0.2-0.1-0.5-0.1-0.7-0.2
			c-0.2,0-0.4-0.1-0.5-0.1l-0.2,0c-0.8,0-1.6,0.2-2.4,0.4c-0.8,0.2-1.4,0.5-2,0.9s-1.1,0.8-1.6,1.3C76.8,16.1,76.4,16.6,76,17.1z"/>
	</g>
	<rect x="66" y="3" class="st19" width="1" height="31"/>
	<rect x="2" y="3" class="st17" width="64" height="31"/>
	<path class="st32" d="M44.8,21.4l-2.7-2.7c-0.1,0-0.1-0.1-0.1-0.2s0-0.1,0.1-0.2l2.7-2.7l0.6,0.6L43.5,18l8.5,0v1h-8.5l1.9,1.8
		L44.8,21.4z"/>
	<path class="st33" d="M57,13h-9h-1v1v1v1v1h1v-1h9v6h-9v-2h-1v2v1h1h9h1v-1v-6v-1v-1v-1H57z M57,15h-9v-1h9V15z"/>
	<path class="st33" d="M15,15h9h1v1v1v1v6v1h-1h-9h-1v-1v-6v-1v-1v-1H15z M15,16v1h9v-1H15z M15,18v6h9v-6H15z"/>
	<path class="st33" d="M12,11h9h1v1v1v1v1h-1v-1h-9v6h3v1h-3h-1v-1v-6v-1v-1v-1H12z M12,12v1h9v-1H12z"/>
	<path class="st28" d="M1412.5,12.8l0.3-0.4l-0.3-0.4l-0.3,0.4L1412.5,12.8z M1412.8,13.1l-0.3,0.4L1412.8,13.1z M1411.8,13.5
		l-0.4-0.4l-0.3,0.4l0.3,0.4L1411.8,13.5z M1412.2,13.9l0.3-0.4L1412.2,13.9z M1416.3,18l0.4,0.4l0.3-0.4l-0.3-0.4L1416.3,18z
		 M1412.2,22.1l-0.4-0.4l0,0L1412.2,22.1z M1411.8,22.5l-0.4-0.4l-0.3,0.4l0.3,0.4L1411.8,22.5z M1412.5,23.2l-0.3,0.4l0.3,0.4
		l0.3-0.4L1412.5,23.2z M1412.8,22.9l0.4,0.4l0,0L1412.8,22.9z M1417,18.7l0.3-0.4L1417,18l-0.3,0.4L1417,18.7z M1421.2,22.9
		l-0.4,0.4l0,0L1421.2,22.9z M1421.5,23.2l-0.3,0.4l0.3,0.4l0.3-0.4L1421.5,23.2z M1422.2,22.5l0.4,0.4l0.3-0.4l-0.3-0.4
		L1422.2,22.5z M1421.8,22.1l0.4-0.4l0,0L1421.8,22.1z M1417.7,18l-0.4-0.4L1417,18l0.3,0.4L1417.7,18z M1421.8,13.9l0.4,0.4l0,0
		L1421.8,13.9z M1422.2,13.5l0.4,0.4l0.3-0.4l-0.3-0.4L1422.2,13.5z M1421.5,12.8l0.3-0.4l-0.3-0.4l-0.3,0.4L1421.5,12.8z
		 M1421.2,13.1l-0.4-0.4l0,0L1421.2,13.1z M1417,17.3l-0.3,0.4l0.3,0.4l0.3-0.4L1417,17.3z M1412.2,13.1l0.3,0.4l0.7-0.7l-0.4-0.4
		L1412.2,13.1z M1412.2,13.9l0.7-0.7l-0.7-0.7l-0.7,0.7L1412.2,13.9z M1412.5,13.5l-0.3-0.4l-0.7,0.7l0.4,0.4L1412.5,13.5z
		 M1416.7,17.6l-4.2-4.1l-0.7,0.7l4.1,4.1L1416.7,17.6z M1412.5,22.5l4.2-4.1l-0.7-0.7l-4.1,4.1L1412.5,22.5z M1412.2,22.9l0.3-0.4
		l-0.7-0.7l-0.4,0.4L1412.2,22.9z M1412.8,22.9l-0.7-0.7l-0.7,0.7l0.7,0.7L1412.8,22.9z M1412.5,22.5l-0.3,0.4l0.7,0.7l0.4-0.4
		L1412.5,22.5z M1416.7,18.4l-4.2,4.1l0.7,0.7l4.1-4.1L1416.7,18.4z M1421.5,22.5l-4.2-4.1l-0.7,0.7l4.1,4.1L1421.5,22.5z
		 M1421.8,22.9l-0.3-0.4l-0.7,0.7l0.4,0.4L1421.8,22.9z M1421.8,22.1l-0.7,0.7l0.7,0.7l0.7-0.7L1421.8,22.1z M1421.5,22.5l0.3,0.4
		l0.7-0.7l-0.4-0.4L1421.5,22.5z M1417.3,18.4l4.2,4.1l0.7-0.7l-4.1-4.1L1417.3,18.4z M1421.5,13.5l-4.2,4.1l0.7,0.7l4.1-4.1
		L1421.5,13.5z M1421.8,13.1l-0.3,0.4l0.7,0.7l0.4-0.4L1421.8,13.1z M1421.2,13.1l0.7,0.7l0.7-0.7l-0.7-0.7L1421.2,13.1z
		 M1421.5,13.5l0.3-0.4l-0.7-0.7l-0.4,0.4L1421.5,13.5z M1417.3,17.6l4.2-4.1l-0.7-0.7l-4.1,4.1L1417.3,17.6z M1412.5,13.5l4.2,4.1
		l0.7-0.7l-4.1-4.1L1412.5,13.5z"/>
	<rect x="1366.5" y="13.5" class="st34" width="9" height="9"/>
	<rect x="1320" y="17" class="st28" width="10" height="1"/>
</g>
<g class="st0">
	<path class="st35" d="M0,0l-0.4,811h1442.5l0.4-811H0z M1440.1,809H1.6L2,79h1438.5L1440.1,809z"/>
	<rect x="2.5" y="78" class="st36" width="1438" height="1"/>
	<rect x="2.5" y="34" class="st37" width="1438" height="44"/>
	<path class="st38" d="M1287.5,53h7v1h-7V53z M1287.5,56h7v1h-7V56z M1294.5,59h-7v1h7V59z"/>
	<path class="st39" d="M1288.1,53.5l-1.6-5.3l-1.6,5.3h-5.8l5.1,3.5l-2.3,5.5l4.6-4.1"/>
	<path class="st40" d="M1328.6,62.4c4.9-3.5,4.5,1.2,10.1-0.7"/>
	<path class="st41" d="M1332.9,49.2c0.4,0.2,0.6,0.5,0.7,0.9c0.1,0.4,0.1,0.8-0.2,1.1l-4.5,7.8c-0.4,0.7-1,1.4-1.6,2
		c-0.7,0.6-1.4,1-2.2,1.3l-0.1,0c-0.2,0-0.3,0-0.5-0.1c-0.1-0.1-0.2-0.2-0.3-0.4c-0.1-0.9-0.1-1.7,0.1-2.6c0.2-0.9,0.5-1.7,0.9-2.4
		l2.8-4.9l-1-0.6l-1.9,3.2c-0.1,0.1-0.1,0.1-0.2,0.2c-0.1,0-0.2,0-0.3,0l-0.3-0.2c-0.1,0-0.1-0.1-0.2-0.2s0-0.2,0-0.3l2-3.4
		c0.1-0.2,0.3-0.4,0.6-0.4s0.5,0,0.7,0.1l1.1,0.7l1.1-2c0.2-0.4,0.5-0.6,0.9-0.7c0.4-0.1,0.8-0.1,1.1,0.2L1332.9,49.2z M1328,58.5
		l2.8-4.9l-1.8-1l-2.8,4.9c-0.6,1.1-0.9,2.3-0.9,3.5C1326.5,60.4,1327.4,59.6,1328,58.5z M1332.6,50.4c0,0.1,0,0.2,0,0.3l-1.1,2
		l-1.7-1l1.1-2c0.1-0.1,0.1-0.2,0.2-0.2c0.1,0,0.2,0,0.3,0l1.1,0.6C1332.5,50.3,1332.5,50.3,1332.6,50.4z"/>
	<path class="st9" d="M1367.5,52h-1v9v1h1h10h1v-1v-1h-1v1h-10V52z"/>
	<defs>
		<filter id="Adobe_OpacityMaskFilter_3_" filterUnits="userSpaceOnUse" x="1365.5" y="51" width="14" height="12">
			<feColorMatrix  type="matrix" values="1 0 0 0 0  0 1 0 0 0  0 0 1 0 0  0 0 0 1 0"/>
		</filter>
	</defs>
	<mask maskUnits="userSpaceOnUse" x="1365.5" y="51" width="14" height="12" id="path-16-inside-1_2_" class="st1">
		<path style="fill-rule:evenodd;clip-rule:evenodd;fill:#FFFFFF;filter:url(#Adobe_OpacityMaskFilter_3_);" d="M1367.5,52h-1v9v1h1
			h10h1v-1v-1h-1v1h-10V52z"/>
	</mask>
	<path class="st43" d="M1366.5,52v-1h-1v1H1366.5z M1367.5,52h1v-1h-1V52z M1366.5,62h-1v1h1V62z M1378.5,62v1h1v-1H1378.5z
		 M1378.5,60h1v-1h-1V60z M1377.5,60v-1h-1v1H1377.5z M1377.5,61v1h1v-1H1377.5z M1367.5,61h-1v1h1V61z M1366.5,53h1v-2h-1V53z
		 M1367.5,61v-9h-2v9H1367.5z M1365.5,61v1h2v-1H1365.5z M1366.5,63h1v-2h-1V63z M1367.5,63h10v-2h-10V63z M1377.5,63h1v-2h-1V63z
		 M1379.5,62v-1h-2v1H1379.5z M1379.5,61v-1h-2v1H1379.5z M1378.5,59h-1v2h1V59z M1376.5,60v1h2v-1H1376.5z M1377.5,60h-10v2h10V60z
		 M1366.5,52v9h2v-9H1366.5z"/>
	<path class="st12" d="M1382.5,53.2c0,0.3-0.1,0.5-0.3,0.7l-4,3.8c-0.2,0.2-0.5,0.3-0.8,0.3c-0.3,0-0.5-0.1-0.8-0.3
		c-0.2-0.2-0.3-0.4-0.3-0.7v-1.7c-1.1,0.1-1.9,0.2-2.4,0.4c-0.5,0.2-0.8,0.5-0.9,0.9c-0.1,0.3,0,0.8,0.2,1.4c0.1,0.3,0,0.6-0.1,0.8
		c-0.2,0.3-0.4,0.4-0.7,0.5c-0.3,0.1-0.6,0-0.9-0.1c-0.7-0.4-1.2-1-1.6-1.6c-0.4-0.7-0.6-1.4-0.6-2.1c0-1.6,0.8-2.8,2.3-3.5
		c1.1-0.5,2.6-0.8,4.6-0.8v-1.7c0-0.3,0.1-0.5,0.3-0.7c0.2-0.2,0.5-0.3,0.8-0.3c0.3,0,0.6,0.1,0.8,0.3l4,3.8
		C1382.4,52.7,1382.5,52.9,1382.5,53.2z M1377.4,57l4-3.8l-4-3.8v2.8c-1.3,0-2.4,0.1-3.2,0.2c-1.1,0.2-2,0.5-2.6,0.9
		c-0.7,0.5-1.1,1.3-1.1,2.2c0,0.7,0.2,1.3,0.6,1.8c0.3,0.4,0.7,0.8,1.2,1.1c-0.4-1.1-0.4-1.9,0-2.6c0.3-0.6,0.9-1,1.9-1.2
		c0.8-0.2,1.9-0.3,3.2-0.3V57z"/>
	<path class="st41" d="M1411.5,55h2v2h-2V55z M1417.5,55h2v2h-2V55z M1425.5,55h-2v2h2V55z"/>
	<rect x="195" y="39.5" class="st44" width="1053" height="33"/>
	<path class="st12" d="M1233.3,54.6c-0.1-0.2-0.3-0.3-0.5-0.3l-3.8-0.5l-1.7-3.4c-0.1-0.2-0.3-0.3-0.5-0.4s-0.4-0.1-0.6,0
		s-0.3,0.2-0.5,0.4l-1.7,3.4l-3.8,0.5c-0.2,0-0.4,0.1-0.5,0.3c-0.1,0.2-0.2,0.4-0.2,0.6c0,0.2,0.1,0.4,0.3,0.5l2.8,2.6l-0.6,3.7
		c0,0.2,0,0.4,0.1,0.6c0.1,0.2,0.3,0.3,0.5,0.3c0.2,0.1,0.4,0,0.6-0.1l3.4-1.7l3.4,1.7c0.2,0.1,0.4,0.1,0.6,0.1
		c0.2-0.1,0.4-0.2,0.5-0.3c0.1-0.2,0.2-0.4,0.1-0.6l-0.6-3.7l2.8-2.6c0.2-0.2,0.2-0.3,0.3-0.5C1233.5,55,1233.4,54.8,1233.3,54.6z
		 M1231.8,55.4l-2.6,2.5l0.6,3.5l-3.2-1.7l-3.2,1.7l0.6-3.5l-2.6-2.5l3.6-0.5l1.6-3.2l1.6,3.2L1231.8,55.4z"/>
	<path class="st45" d="M236.6,55c0.5-0.6,1.2-1,2-1c1.5,0,2.2,0.8,2.2,2.5V61h-1.2v-4.5c0-0.5-0.1-0.9-0.3-1.1
		c-0.2-0.2-0.6-0.4-1-0.4c-0.4,0-0.7,0.1-1,0.3c-0.3,0.2-0.5,0.5-0.7,0.8V61h-1.2v-9.8h1.2V55z M244.1,52.5v1.7h1.3V55h-1.3v4.3
		c0,0.3,0.1,0.5,0.2,0.6c0.1,0.1,0.3,0.2,0.6,0.2c0.1,0,0.3,0,0.6-0.1v1c-0.3,0.1-0.6,0.1-0.9,0.1c-0.5,0-0.9-0.2-1.2-0.5
		c-0.3-0.3-0.4-0.8-0.4-1.4V55h-1.3v-0.9h1.3v-1.7H244.1z M248.4,52.5v1.7h1.3V55h-1.3v4.3c0,0.3,0,0.5,0.2,0.6
		c0.1,0.1,0.3,0.2,0.6,0.2c0.1,0,0.3,0,0.6-0.1v1c-0.3,0.1-0.6,0.1-0.9,0.1c-0.5,0-0.9-0.2-1.2-0.5c-0.3-0.3-0.4-0.8-0.4-1.4V55H246
		v-0.9h1.3v-1.7H248.4z M256.9,57.6c0,1-0.2,1.9-0.7,2.5s-1.1,1-1.9,1c-0.8,0-1.5-0.3-2-0.8v3.3h-1.2v-9.5h1.1l0.1,0.8
		c0.5-0.6,1.1-0.9,2-0.9c0.8,0,1.5,0.3,1.9,0.9c0.5,0.6,0.7,1.5,0.7,2.6V57.6z M255.7,57.5c0-0.8-0.2-1.4-0.5-1.8
		c-0.3-0.4-0.8-0.7-1.4-0.7c-0.7,0-1.3,0.3-1.6,0.9v3.3c0.3,0.6,0.9,0.9,1.6,0.9c0.6,0,1-0.2,1.3-0.7
		C255.5,59.1,255.7,58.4,255.7,57.5z M262.3,59.2c0-0.3-0.1-0.6-0.4-0.7c-0.2-0.2-0.7-0.3-1.3-0.5c-0.6-0.1-1.1-0.3-1.4-0.5
		c-0.3-0.2-0.6-0.4-0.8-0.6c-0.2-0.2-0.3-0.5-0.3-0.9c0-0.6,0.2-1,0.7-1.4c0.5-0.4,1.1-0.6,1.8-0.6c0.8,0,1.4,0.2,1.9,0.6
		c0.5,0.4,0.7,0.9,0.7,1.5h-1.2c0-0.3-0.1-0.6-0.4-0.8c-0.3-0.2-0.6-0.3-1-0.3c-0.4,0-0.8,0.1-1,0.3s-0.4,0.4-0.4,0.7
		c0,0.3,0.1,0.5,0.3,0.6c0.2,0.1,0.6,0.3,1.2,0.4c0.6,0.1,1.1,0.3,1.4,0.5c0.4,0.2,0.6,0.4,0.8,0.7c0.2,0.3,0.3,0.6,0.3,0.9
		c0,0.6-0.3,1.1-0.7,1.5c-0.5,0.4-1.1,0.6-1.9,0.6c-0.6,0-1-0.1-1.5-0.3c-0.4-0.2-0.8-0.5-1-0.8c-0.2-0.4-0.4-0.7-0.4-1.1h1.2
		c0,0.4,0.2,0.7,0.5,0.9c0.3,0.2,0.7,0.3,1.2,0.3c0.4,0,0.8-0.1,1.1-0.3C262.2,59.7,262.3,59.5,262.3,59.2z M265,60.4
		c0-0.2,0.1-0.4,0.2-0.5c0.1-0.1,0.3-0.2,0.5-0.2s0.4,0.1,0.6,0.2c0.1,0.1,0.2,0.3,0.2,0.5c0,0.2-0.1,0.4-0.2,0.5
		c-0.1,0.1-0.3,0.2-0.6,0.2s-0.4-0.1-0.5-0.2C265.1,60.7,265,60.6,265,60.4z M265,54.8c0-0.2,0.1-0.4,0.2-0.5
		c0.1-0.1,0.3-0.2,0.6-0.2s0.4,0.1,0.6,0.2c0.1,0.1,0.2,0.3,0.2,0.5c0,0.2-0.1,0.4-0.2,0.5c-0.1,0.1-0.3,0.2-0.6,0.2
		s-0.4-0.1-0.6-0.2C265.1,55.1,265,55,265,54.8z M268.4,61.8h-1l3.9-10h1L268.4,61.8z M272.4,61.8h-1l3.9-10h1L272.4,61.8z"/>
	<path class="st46" d="M279.8,59.3l1.6-5.1h1.3l-2.8,7.9c-0.4,1.1-1.1,1.7-2,1.7l-0.2,0l-0.4-0.1v-1l0.3,0c0.4,0,0.7-0.1,0.9-0.2
		c0.2-0.2,0.4-0.5,0.5-0.9l0.3-0.7l-2.4-6.8h1.3L279.8,59.3z M283.2,57.5c0-0.7,0.1-1.3,0.4-1.8c0.3-0.5,0.6-1,1.1-1.2
		c0.5-0.3,1-0.4,1.6-0.4c0.9,0,1.7,0.3,2.3,1c0.6,0.6,0.9,1.5,0.9,2.6v0.1c0,0.7-0.1,1.3-0.4,1.8c-0.3,0.5-0.6,0.9-1.1,1.2
		c-0.5,0.3-1,0.4-1.6,0.4c-0.9,0-1.7-0.3-2.3-1C283.5,59.5,283.2,58.7,283.2,57.5L283.2,57.5z M284.4,57.6c0,0.8,0.2,1.4,0.5,1.8
		c0.4,0.5,0.8,0.7,1.4,0.7c0.6,0,1.1-0.2,1.4-0.7c0.4-0.5,0.5-1.1,0.5-2c0-0.8-0.2-1.4-0.5-1.8c-0.3-0.5-0.8-0.7-1.4-0.7
		c-0.6,0-1,0.2-1.4,0.7C284.6,56.1,284.4,56.8,284.4,57.6z M295.2,60.3c-0.5,0.5-1.1,0.8-2,0.8c-0.7,0-1.3-0.2-1.7-0.6
		c-0.4-0.4-0.6-1.1-0.6-1.9v-4.5h1.2v4.4c0,1,0.4,1.6,1.3,1.6c0.9,0,1.5-0.3,1.8-1v-5h1.2V61h-1.1L295.2,60.3z M301.5,55.2
		c-0.2,0-0.4,0-0.6,0c-0.8,0-1.3,0.3-1.6,1V61h-1.2v-6.9h1.1l0,0.8c0.4-0.6,0.9-0.9,1.6-0.9c0.2,0,0.4,0,0.5,0.1V55.2z M306.6,59.2
		c0-0.3-0.1-0.6-0.4-0.7c-0.2-0.2-0.7-0.3-1.3-0.5c-0.6-0.1-1.1-0.3-1.4-0.5c-0.3-0.2-0.6-0.4-0.8-0.6c-0.2-0.2-0.2-0.5-0.2-0.9
		c0-0.6,0.2-1,0.7-1.4c0.5-0.4,1.1-0.6,1.8-0.6c0.8,0,1.4,0.2,1.9,0.6c0.5,0.4,0.7,0.9,0.7,1.5h-1.2c0-0.3-0.1-0.6-0.4-0.8
		c-0.3-0.2-0.6-0.3-1-0.3c-0.4,0-0.8,0.1-1,0.3s-0.4,0.4-0.4,0.7c0,0.3,0.1,0.5,0.3,0.6c0.2,0.1,0.6,0.3,1.2,0.4
		c0.6,0.1,1.1,0.3,1.4,0.5c0.4,0.2,0.6,0.4,0.8,0.7c0.2,0.3,0.3,0.6,0.3,0.9c0,0.6-0.3,1.1-0.7,1.5c-0.5,0.4-1.1,0.6-1.9,0.6
		c-0.5,0-1-0.1-1.5-0.3c-0.4-0.2-0.8-0.5-1-0.8c-0.2-0.4-0.4-0.7-0.4-1.1h1.2c0,0.4,0.2,0.7,0.5,0.9c0.3,0.2,0.7,0.3,1.2,0.3
		c0.5,0,0.8-0.1,1.1-0.3C306.4,59.7,306.6,59.5,306.6,59.2z M310.5,61h-1.2v-6.9h1.2V61z M309.3,52.3c0-0.2,0.1-0.4,0.2-0.5
		c0.1-0.1,0.3-0.2,0.5-0.2c0.2,0,0.4,0.1,0.5,0.2c0.1,0.1,0.2,0.3,0.2,0.5c0,0.2-0.1,0.3-0.2,0.5c-0.1,0.1-0.3,0.2-0.5,0.2
		c-0.2,0-0.4-0.1-0.5-0.2C309.3,52.7,309.3,52.5,309.3,52.3z M314,52.5v1.7h1.3V55H314v4.3c0,0.3,0.1,0.5,0.2,0.6
		c0.1,0.1,0.3,0.2,0.6,0.2c0.1,0,0.3,0,0.6-0.1v1c-0.3,0.1-0.6,0.1-0.9,0.1c-0.5,0-0.9-0.2-1.2-0.5c-0.3-0.3-0.4-0.8-0.4-1.4V55
		h-1.3v-0.9h1.3v-1.7H314z M319.5,61.1c-0.9,0-1.7-0.3-2.3-0.9c-0.6-0.6-0.9-1.4-0.9-2.5v-0.2c0-0.7,0.1-1.3,0.4-1.8
		c0.3-0.5,0.6-1,1.1-1.3c0.5-0.3,1-0.5,1.5-0.5c0.9,0,1.6,0.3,2.1,0.9c0.5,0.6,0.7,1.4,0.7,2.5v0.5h-4.6c0,0.7,0.2,1.2,0.6,1.6
		c0.4,0.4,0.9,0.6,1.4,0.6c0.4,0,0.8-0.1,1.1-0.3c0.3-0.2,0.5-0.4,0.8-0.7l0.7,0.6C321.5,60.7,320.7,61.1,319.5,61.1z M319.4,55
		c-0.5,0-0.9,0.2-1.2,0.5c-0.3,0.3-0.5,0.8-0.6,1.4h3.4v-0.1c0-0.6-0.2-1.1-0.5-1.4C320.3,55.1,319.9,55,319.4,55z M323.6,60.4
		c0-0.2,0.1-0.4,0.2-0.5c0.1-0.1,0.3-0.2,0.6-0.2c0.2,0,0.4,0.1,0.5,0.2c0.1,0.1,0.2,0.3,0.2,0.5c0,0.2-0.1,0.4-0.2,0.5
		c-0.1,0.1-0.3,0.2-0.5,0.2c-0.2,0-0.4-0.1-0.6-0.2C323.6,60.7,323.6,60.6,323.6,60.4z M329.7,60.2c0.4,0,0.8-0.1,1.1-0.4
		c0.3-0.3,0.5-0.6,0.5-1h1.1c0,0.4-0.2,0.8-0.4,1.1s-0.6,0.6-1,0.9c-0.4,0.2-0.9,0.3-1.3,0.3c-0.9,0-1.7-0.3-2.2-0.9
		c-0.6-0.6-0.8-1.5-0.8-2.6v-0.2c0-0.7,0.1-1.3,0.4-1.8c0.2-0.5,0.6-0.9,1-1.2c0.5-0.3,1-0.4,1.6-0.4c0.8,0,1.4,0.2,1.9,0.7
		c0.5,0.5,0.8,1.1,0.8,1.8h-1.1c0-0.4-0.2-0.8-0.5-1.1c-0.3-0.3-0.7-0.4-1.1-0.4c-0.6,0-1.1,0.2-1.4,0.6c-0.3,0.4-0.5,1-0.5,1.9v0.2
		c0,0.8,0.2,1.4,0.5,1.8C328.7,60,329.1,60.2,329.7,60.2z M333.5,57.5c0-0.7,0.1-1.3,0.4-1.8c0.3-0.5,0.6-1,1.1-1.2s1-0.4,1.6-0.4
		c0.9,0,1.7,0.3,2.3,1c0.6,0.6,0.9,1.5,0.9,2.6v0.1c0,0.7-0.1,1.3-0.4,1.8c-0.3,0.5-0.6,0.9-1.1,1.2c-0.5,0.3-1,0.4-1.6,0.4
		c-0.9,0-1.7-0.3-2.3-1C333.8,59.5,333.5,58.7,333.5,57.5L333.5,57.5z M334.7,57.6c0,0.8,0.2,1.4,0.5,1.8c0.4,0.5,0.8,0.7,1.4,0.7
		c0.6,0,1.1-0.2,1.4-0.7c0.3-0.5,0.5-1.1,0.5-2c0-0.8-0.2-1.4-0.5-1.8c-0.4-0.5-0.8-0.7-1.4-0.7c-0.6,0-1,0.2-1.4,0.7
		C334.8,56.1,334.7,56.8,334.7,57.6z M342.3,54.1l0,0.8c0.5-0.6,1.2-0.9,2-0.9c1,0,1.6,0.4,2,1.1c0.2-0.3,0.5-0.6,0.9-0.8
		c0.4-0.2,0.8-0.3,1.3-0.3c1.5,0,2.3,0.8,2.3,2.4V61h-1.2v-4.5c0-0.5-0.1-0.9-0.3-1.1c-0.2-0.2-0.6-0.4-1.1-0.4
		c-0.4,0-0.8,0.1-1.1,0.4c-0.3,0.3-0.4,0.6-0.5,1V61h-1.2v-4.5c0-1-0.5-1.5-1.5-1.5c-0.8,0-1.3,0.3-1.6,1v5h-1.2v-6.9H342.3z"/>
	<path class="st12" d="M220.3,54.9c0.3,0,0.6,0.1,0.8,0.4c0.2,0.2,0.3,0.5,0.3,0.9v5.7c0,0.3-0.1,0.6-0.3,0.9
		c-0.2,0.2-0.5,0.4-0.8,0.4h-8.6c-0.3,0-0.6-0.1-0.8-0.4c-0.2-0.2-0.3-0.5-0.3-0.9v-5.7c0-0.3,0.1-0.6,0.3-0.9
		c0.2-0.2,0.5-0.4,0.8-0.4h0.8v-1.2c0-0.7,0.2-1.3,0.5-1.8c0.3-0.6,0.8-1,1.3-1.3c0.5-0.3,1.1-0.5,1.8-0.5s1.2,0.2,1.8,0.5
		c0.5,0.3,1,0.8,1.3,1.3c0.3,0.6,0.5,1.2,0.5,1.8v1.2H220.3z M213.6,53.7v1.2h4.7v-1.2c0-0.7-0.2-1.3-0.7-1.7
		c-0.5-0.5-1-0.7-1.7-0.7s-1.2,0.2-1.7,0.7C213.9,52.4,213.6,53,213.6,53.7z M220.3,56.1v5.7h-8.6v-5.7H220.3z"/>
	<path class="st38" d="M163.5,55.7c0-0.1,0-0.1-0.1-0.2l-1.2-1.2v-3.1c0-0.1,0-0.1-0.1-0.2c0-0.1-0.1-0.1-0.2-0.1h-0.9
		c0,0-0.1,0-0.1,0.1c0,0.1-0.1,0.1-0.1,0.2v1.9l-4.2-3.8c-0.2-0.2-0.4-0.3-0.7-0.3s-0.5,0.1-0.7,0.3l-6.7,6.3c0,0-0.1,0.1-0.1,0.2
		s0,0.1,0.1,0.2l0.5,0.8c0,0,0.1,0.1,0.2,0.1c0.1,0,0.1,0,0.2,0l0.4-0.4v6.2c0,0.1,0,0.3,0.1,0.4c0.1,0.1,0.2,0.1,0.3,0.1h4.6
		c0,0,0.1,0,0.2-0.1c0-0.1,0.1-0.1,0.1-0.2v-4h1.8v4c0,0.1,0,0.1,0.1,0.2c0.1,0.1,0.1,0.1,0.2,0.1h4.6c0.1,0,0.2,0,0.3-0.1
		c0.1-0.1,0.1-0.2,0.1-0.4v-6.2l0.4,0.4c0,0,0.1,0.1,0.2,0c0.1,0,0.1,0,0.2-0.1l0.5-0.8C163.5,55.8,163.5,55.8,163.5,55.7z
		 M160.8,55.1v6.4h-2.6v-4c0-0.1,0-0.1-0.1-0.2c-0.1-0.1-0.1-0.1-0.2-0.1h-4c-0.1,0-0.1,0-0.2,0.1c0,0.1-0.1,0.1-0.1,0.2v4h-2.6
		v-6.4l4.7-4.4c0.1-0.1,0.2-0.1,0.3,0L160.8,55.1z"/>
	<path class="st46" d="M106.4,49h4.8c0.1,0,0.2,0,0.2,0.1c0.1,0.1,0.1,0.1,0.1,0.2v4.9h-1.4v-3.1c-1,0.4-1.8,1.1-2.3,2
		c-0.6,0.9-0.9,1.9-0.9,3c0,1,0.3,1.9,0.8,2.7c0.5,0.8,1.2,1.5,2,2c0.8,0.5,1.8,0.7,2.8,0.7s1.9-0.2,2.8-0.7c0.8-0.5,1.5-1.2,2-2
		c0.5-0.8,0.8-1.7,0.8-2.7c0-0.7-0.1-1.3-0.4-2c-0.3-0.6-0.6-1.2-1.1-1.7c-0.1-0.1-0.1-0.2-0.1-0.3s0-0.2,0.1-0.2l0.6-0.6
		c0.1-0.1,0.1-0.1,0.2-0.1c0.1,0,0.2,0,0.2,0.1c0.6,0.6,1,1.3,1.3,2.1c0.3,0.8,0.5,1.6,0.5,2.5c0,1.2-0.3,2.4-0.9,3.4
		c-0.6,1.1-1.5,1.9-2.5,2.5c-1.1,0.6-2.2,0.9-3.5,0.9s-2.4-0.3-3.5-0.9s-1.9-1.4-2.6-2.5c-0.6-1.1-0.9-2.2-0.9-3.4
		c0-1.2,0.3-2.3,0.8-3.3c0.6-1,1.3-1.8,2.3-2.5h-2.2V49z"/>
	<path class="st47" d="M76.5,56.4L76.5,56.4c-0.1-0.2-0.2-0.3-0.3-0.3l-6-6l-0.7,0.7l5.3,5.3H61.5v1h13.3l-5.4,5.4l0.7,0.7l6.2-6.2
		c0,0,0,0,0,0l0.2-0.1l0,0c0-0.1,0-0.1,0-0.2C76.5,56.5,76.5,56.4,76.5,56.4L76.5,56.4z"/>
	<path class="st47" d="M17.5,56.4L17.5,56.4c0.1-0.2,0.2-0.3,0.3-0.3l6-6l0.7,0.7L19.3,56h13.2v1H19.2l5.4,5.4l-0.7,0.7l-6.2-6.2
		c0,0,0,0,0,0l-0.2-0.1l0,0c0-0.1,0-0.1,0-0.2C17.5,56.5,17.5,56.4,17.5,56.4L17.5,56.4z"/>
	<rect x="2.5" y="2" class="st48" width="1438" height="32"/>
	<path class="st38" d="M511,14.8c-0.2-0.2-0.5-0.2-0.7,0c-0.2,0.2-0.2,0.5,0,0.7l6.4,6.4c0.1,0.1,0.3,0.2,0.5,0.1
		c0.2,0,0.3,0,0.5-0.1l6.4-6.4c0.2-0.2,0.2-0.5,0-0.7c-0.2-0.2-0.5-0.2-0.7,0l-6.1,6.1L511,14.8z"/>
	<path class="st38" d="M485.5,12h-1v6h-6v1h6v6h1v-6h6v-1h-6V12z"/>
	<rect x="467.5" y="3" class="st36" width="1" height="31"/>
	<rect x="267.5" y="3" class="st36" width="1" height="31"/>
	<path class="st49" d="M310.4,21.8c-0.3,0.4-0.8,0.8-1.3,1c-0.6,0.2-1.2,0.3-1.9,0.3c-0.8,0-1.4-0.2-2-0.5c-0.6-0.4-1-0.9-1.4-1.5
		c-0.3-0.7-0.5-1.4-0.5-2.3V18c0-1.4,0.3-2.5,1-3.2c0.7-0.8,1.6-1.1,2.7-1.1c1,0,1.7,0.2,2.3,0.7c0.6,0.5,1,1.2,1.1,2.1h-1.2
		c-0.2-1.2-1-1.8-2.2-1.8c-0.8,0-1.4,0.3-1.9,0.9c-0.4,0.6-0.6,1.4-0.6,2.5v0.8c0,1,0.2,1.9,0.7,2.5c0.5,0.6,1.1,0.9,1.9,0.9
		c0.5,0,0.9-0.1,1.2-0.2c0.4-0.1,0.6-0.3,0.9-0.5v-2.1H307v-1h3.4V21.8z M311.9,19.5c0-0.7,0.1-1.3,0.4-1.8c0.3-0.5,0.6-1,1.1-1.2
		c0.5-0.3,1-0.4,1.6-0.4c0.9,0,1.7,0.3,2.3,1c0.6,0.6,0.9,1.5,0.9,2.6v0.1c0,0.7-0.1,1.3-0.4,1.8c-0.3,0.5-0.6,0.9-1.1,1.2
		c-0.5,0.3-1,0.4-1.6,0.4c-0.9,0-1.7-0.3-2.3-1C312.2,21.5,311.9,20.7,311.9,19.5L311.9,19.5z M313.1,19.6c0,0.8,0.2,1.4,0.5,1.8
		c0.3,0.5,0.8,0.7,1.4,0.7c0.6,0,1.1-0.2,1.4-0.7c0.3-0.5,0.5-1.1,0.5-2c0-0.8-0.2-1.4-0.5-1.8c-0.4-0.5-0.8-0.7-1.4-0.7
		c-0.6,0-1.1,0.2-1.4,0.7C313.3,18.1,313.1,18.8,313.1,19.6z M319.3,19.5c0-0.7,0.1-1.3,0.4-1.8c0.3-0.5,0.6-1,1.1-1.2
		c0.5-0.3,1-0.4,1.6-0.4c0.9,0,1.7,0.3,2.3,1c0.6,0.6,0.9,1.5,0.9,2.6v0.1c0,0.7-0.1,1.3-0.4,1.8c-0.3,0.5-0.6,0.9-1.1,1.2
		c-0.5,0.3-1,0.4-1.6,0.4c-0.9,0-1.7-0.3-2.3-1C319.6,21.5,319.3,20.7,319.3,19.5L319.3,19.5z M320.5,19.6c0,0.8,0.2,1.4,0.5,1.8
		c0.4,0.5,0.8,0.7,1.4,0.7c0.6,0,1.1-0.2,1.4-0.7c0.4-0.5,0.5-1.1,0.5-2c0-0.8-0.2-1.4-0.5-1.8c-0.3-0.5-0.8-0.7-1.4-0.7
		c-0.6,0-1,0.2-1.4,0.7C320.7,18.1,320.5,18.8,320.5,19.6z M326.8,19.5c0-1.1,0.3-1.9,0.7-2.6c0.5-0.6,1.1-1,2-1
		c0.8,0,1.5,0.3,2,0.9l0.1-0.8h1.1v6.7c0,0.9-0.3,1.6-0.8,2.1c-0.5,0.5-1.2,0.8-2.1,0.8c-0.5,0-1-0.1-1.5-0.3
		c-0.5-0.2-0.8-0.5-1.1-0.9l0.6-0.7c0.5,0.6,1.1,0.9,1.8,0.9c0.6,0,1-0.2,1.3-0.5c0.3-0.3,0.5-0.8,0.5-1.4v-0.6
		c-0.5,0.5-1.1,0.8-1.9,0.8s-1.5-0.3-2-1C327.1,21.5,326.8,20.6,326.8,19.5z M328,19.6c0,0.8,0.2,1.4,0.5,1.8
		c0.3,0.4,0.8,0.7,1.3,0.7c0.7,0,1.3-0.3,1.6-1V18c-0.4-0.7-0.9-1-1.6-1c-0.6,0-1,0.2-1.3,0.7C328.1,18.1,328,18.8,328,19.6z
		 M335.7,23h-1.2v-9.8h1.2V23z M340.4,23.1c-0.9,0-1.7-0.3-2.3-0.9c-0.6-0.6-0.9-1.4-0.9-2.5v-0.2c0-0.7,0.1-1.3,0.4-1.8
		c0.3-0.5,0.6-1,1.1-1.3c0.5-0.3,1-0.5,1.5-0.5c0.9,0,1.6,0.3,2.1,0.9c0.5,0.6,0.7,1.4,0.7,2.5v0.5h-4.6c0,0.7,0.2,1.2,0.6,1.6
		c0.4,0.4,0.9,0.6,1.4,0.6c0.4,0,0.8-0.1,1.1-0.3c0.3-0.2,0.5-0.4,0.8-0.7l0.7,0.6C342.4,22.7,341.5,23.1,340.4,23.1z M340.2,17
		c-0.5,0-0.9,0.2-1.2,0.5c-0.3,0.3-0.5,0.8-0.6,1.4h3.4v-0.1c0-0.6-0.2-1.1-0.5-1.4C341.1,17.1,340.7,17,340.2,17z"/>
	<defs>
		<filter id="Adobe_OpacityMaskFilter_4_" filterUnits="userSpaceOnUse" x="276.5" y="10" width="16" height="16">
			<feColorMatrix  type="matrix" values="1 0 0 0 0  0 1 0 0 0  0 0 1 0 0  0 0 0 1 0"/>
		</filter>
	</defs>
	<mask maskUnits="userSpaceOnUse" x="276.5" y="10" width="16" height="16" id="mask1_2_" class="st1">
		<rect x="276.5" y="10" style="fill:#FFFFFF;filter:url(#Adobe_OpacityMaskFilter_4_);" width="16" height="16"/>
	</mask>
	<g class="st51">
		<path class="st23" d="M280.1,19.6l-0.6,2.1l-2,0c-0.6-1.1-1-2.4-1-3.8c0-1.3,0.3-2.6,0.9-3.7l0,0l1.8,0.3l0.8,1.8
			c-0.2,0.5-0.3,1-0.3,1.5C279.8,18.5,279.9,19.1,280.1,19.6z"/>
		<path class="st24" d="M292.4,16.5c0.1,0.5,0.1,1,0.1,1.5c0,0.6-0.1,1.1-0.2,1.7c-0.4,1.8-1.4,3.4-2.8,4.6v0l-2.3-0.1l-0.3-2
			c0.9-0.5,1.7-1.4,2-2.4h-4.3v-3.2h4.3H292.4z"/>
		<path class="st25" d="M289.5,24.3L289.5,24.3c-1.4,1.1-3.1,1.7-5,1.7c-3.1,0-5.7-1.7-7.1-4.2l2.6-2.1c0.7,1.8,2.4,3.1,4.5,3.1
			c0.9,0,1.7-0.2,2.4-0.6L289.5,24.3z"/>
		<path class="st26" d="M289.7,11.8l-2.6,2.1c-0.7-0.5-1.6-0.7-2.5-0.7c-2.1,0-3.9,1.3-4.5,3.2l-2.6-2.1l0,0c1.3-2.5,4-4.3,7.1-4.3
			C286.5,10,288.3,10.7,289.7,11.8z"/>
	</g>
	<rect x="67.5" y="3" class="st37" width="200" height="31"/>
	<path class="st27" d="M251.5,17.3l-4.3-4.3l-0.7,0.7l4.3,4.3l-4.3,4.3l0.7,0.7l4.3-4.3l4.3,4.3l0.7-0.7l-4.3-4.3l4.3-4.3l-0.7-0.7
		L251.5,17.3z"/>
	<path class="st5" d="M105.4,18.4l2.4-4.6h1.4l-3.2,5.8V23h-1.2v-3.4l-3.2-5.8h1.4L105.4,18.4z M109.5,19.5c0-0.7,0.1-1.3,0.4-1.8
		c0.3-0.5,0.6-1,1.1-1.2c0.5-0.3,1-0.4,1.6-0.4c0.9,0,1.7,0.3,2.3,1c0.6,0.6,0.9,1.5,0.9,2.6v0.1c0,0.7-0.1,1.3-0.4,1.8
		c-0.3,0.5-0.6,0.9-1.1,1.2c-0.5,0.3-1,0.4-1.6,0.4c-0.9,0-1.7-0.3-2.3-1C109.8,21.5,109.5,20.7,109.5,19.5L109.5,19.5z M110.7,19.6
		c0,0.8,0.2,1.4,0.5,1.8c0.4,0.5,0.8,0.7,1.4,0.7c0.6,0,1.1-0.2,1.4-0.7c0.3-0.5,0.5-1.1,0.5-2c0-0.8-0.2-1.4-0.5-1.8
		c-0.3-0.5-0.8-0.7-1.4-0.7c-0.6,0-1,0.2-1.4,0.7C110.8,18.1,110.7,18.8,110.7,19.6z M121.4,22.3c-0.5,0.5-1.1,0.8-2,0.8
		c-0.7,0-1.3-0.2-1.7-0.6c-0.4-0.4-0.6-1.1-0.6-1.9v-4.5h1.2v4.4c0,1,0.4,1.6,1.3,1.6c0.9,0,1.5-0.3,1.8-1v-5h1.2V23h-1.1
		L121.4,22.3z M127.7,17.2c-0.2,0-0.4,0-0.6,0c-0.8,0-1.3,0.3-1.6,1V23h-1.2v-6.9h1.2l0,0.8c0.4-0.6,0.9-0.9,1.6-0.9
		c0.2,0,0.4,0,0.5,0.1V17.2z M134.9,18.9c-1-0.3-1.8-0.7-2.3-1.1c-0.5-0.4-0.7-1-0.7-1.6c0-0.7,0.3-1.3,0.9-1.8
		c0.6-0.5,1.3-0.7,2.3-0.7c0.6,0,1.2,0.1,1.7,0.4c0.5,0.2,0.9,0.6,1.2,1c0.3,0.4,0.4,0.9,0.4,1.4h-1.2c0-0.6-0.2-1-0.5-1.3
		c-0.4-0.3-0.9-0.5-1.5-0.5c-0.6,0-1.1,0.1-1.4,0.4c-0.3,0.3-0.5,0.6-0.5,1.1c0,0.4,0.2,0.7,0.5,1c0.3,0.3,0.9,0.5,1.6,0.7
		c0.8,0.2,1.4,0.5,1.8,0.7c0.4,0.3,0.8,0.6,1,0.9s0.3,0.8,0.3,1.2c0,0.7-0.3,1.3-0.9,1.8c-0.6,0.4-1.4,0.7-2.3,0.7
		c-0.6,0-1.2-0.1-1.8-0.4c-0.5-0.2-1-0.6-1.3-1c-0.3-0.4-0.5-0.9-0.5-1.4h1.2c0,0.6,0.2,1,0.6,1.3c0.4,0.3,1,0.5,1.7,0.5
		c0.6,0,1.1-0.1,1.5-0.4c0.3-0.3,0.5-0.6,0.5-1.1c0-0.5-0.2-0.8-0.5-1C136.3,19.4,135.7,19.1,134.9,18.9z M141,23h-1.2v-6.9h1.2V23z
		 M139.7,14.3c0-0.2,0.1-0.4,0.2-0.5c0.1-0.1,0.3-0.2,0.5-0.2s0.4,0.1,0.5,0.2c0.1,0.1,0.2,0.3,0.2,0.5c0,0.2-0.1,0.3-0.2,0.5
		c-0.1,0.1-0.3,0.2-0.5,0.2s-0.4-0.1-0.5-0.2C139.8,14.7,139.7,14.5,139.7,14.3z M144.5,14.5v1.7h1.3V17h-1.3v4.3
		c0,0.3,0.1,0.5,0.2,0.6c0.1,0.1,0.3,0.2,0.6,0.2c0.1,0,0.3,0,0.6-0.1v1c-0.3,0.1-0.6,0.1-0.9,0.1c-0.5,0-0.9-0.2-1.2-0.5
		c-0.3-0.3-0.4-0.8-0.4-1.4V17H142v-0.9h1.3v-1.7H144.5z M150,23.1c-0.9,0-1.7-0.3-2.3-0.9c-0.6-0.6-0.9-1.4-0.9-2.5v-0.2
		c0-0.7,0.1-1.3,0.4-1.8c0.3-0.5,0.6-1,1.1-1.3c0.5-0.3,1-0.5,1.5-0.5c0.9,0,1.6,0.3,2.1,0.9c0.5,0.6,0.8,1.4,0.8,2.5v0.5H148
		c0,0.7,0.2,1.2,0.6,1.6c0.4,0.4,0.9,0.6,1.5,0.6c0.4,0,0.8-0.1,1-0.3c0.3-0.2,0.5-0.4,0.8-0.7l0.7,0.6
		C152,22.7,151.1,23.1,150,23.1z M149.8,17c-0.5,0-0.9,0.2-1.2,0.5c-0.3,0.3-0.5,0.8-0.6,1.4h3.4v-0.1c0-0.6-0.2-1.1-0.5-1.4
		C150.7,17.1,150.3,17,149.8,17z M163.6,14.8h-3V23h-1.2v-8.2h-3v-1h7.2V14.8z M166,23h-1.2v-6.9h1.2V23z M164.8,14.3
		c0-0.2,0.1-0.4,0.2-0.5c0.1-0.1,0.3-0.2,0.5-0.2c0.2,0,0.4,0.1,0.5,0.2c0.1,0.1,0.2,0.3,0.2,0.5c0,0.2-0.1,0.3-0.2,0.5
		c-0.1,0.1-0.3,0.2-0.5,0.2c-0.2,0-0.4-0.1-0.5-0.2C164.8,14.7,164.8,14.5,164.8,14.3z M169.5,14.5v1.7h1.3V17h-1.3v4.3
		c0,0.3,0.1,0.5,0.2,0.6c0.1,0.1,0.3,0.2,0.6,0.2c0.1,0,0.3,0,0.6-0.1v1c-0.3,0.1-0.6,0.1-0.9,0.1c-0.5,0-0.9-0.2-1.2-0.5
		c-0.3-0.3-0.4-0.8-0.4-1.4V17h-1.3v-0.9h1.3v-1.7H169.5z M173.4,23h-1.2v-9.8h1.2V23z M178.2,23.1c-0.9,0-1.7-0.3-2.3-0.9
		c-0.6-0.6-0.9-1.4-0.9-2.5v-0.2c0-0.7,0.1-1.3,0.4-1.8c0.3-0.5,0.6-1,1.1-1.3c0.5-0.3,1-0.5,1.5-0.5c0.9,0,1.6,0.3,2.1,0.9
		c0.5,0.6,0.7,1.4,0.7,2.5v0.5h-4.7c0,0.7,0.2,1.2,0.6,1.6c0.4,0.4,0.9,0.6,1.4,0.6c0.4,0,0.8-0.1,1.1-0.3c0.3-0.2,0.5-0.4,0.8-0.7
		l0.7,0.6C180.2,22.7,179.3,23.1,178.2,23.1z M178,17c-0.5,0-0.9,0.2-1.2,0.5c-0.3,0.3-0.5,0.8-0.6,1.4h3.4v-0.1
		c0-0.6-0.2-1.1-0.5-1.4C178.9,17.1,178.5,17,178,17z"/>
	<defs>
		<filter id="Adobe_OpacityMaskFilter_5_" filterUnits="userSpaceOnUse" x="76.5" y="10" width="15" height="16">
			<feColorMatrix  type="matrix" values="1 0 0 0 0  0 1 0 0 0  0 0 1 0 0  0 0 0 1 0"/>
		</filter>
	</defs>
	<mask maskUnits="userSpaceOnUse" x="76.5" y="10" width="15" height="16" id="mask2_2_" class="st1">
		<rect x="75.5" y="10" style="fill:#FFFFFF;filter:url(#Adobe_OpacityMaskFilter_5_);" width="16" height="16"/>
	</mask>
	<g class="st53">
		<path class="st31" d="M76.5,17.1L76.5,17.1c0.1-0.8,0.3-1.5,0.5-2.2c0.3-0.7,0.6-1.3,1-1.9c0.4-0.6,1-1.1,1.5-1.6
			c0.6-0.4,1.3-0.8,2-1.1c0.8-0.3,1.6-0.4,2.5-0.4c1.4,0,2.6,0.3,3.8,0.9s2,1.5,2.7,2.7c0.6,1.1,0.9,2.4,0.9,4v1.7H81.3
			c0,0.7,0.2,1.2,0.5,1.7c0.3,0.5,0.7,0.9,1.2,1.1c0.5,0.2,1.1,0.4,1.7,0.5c0.6,0.1,1.3,0.1,1.9,0c0.6-0.1,1.3-0.2,1.9-0.4
			c0.6-0.2,1.1-0.5,1.6-0.8v3.4c-0.6,0.3-1.3,0.6-2.1,0.8c-0.8,0.2-1.8,0.3-2.8,0.3c-1,0-2-0.2-2.9-0.5c-1.1-0.4-2.1-1.2-2.8-2.2
			s-1.1-2.2-1.1-3.3c0-1.4,0.3-2.7,1-3.7c0.7-1,1.7-1.8,2.9-2.4c-0.3,0.4-0.5,0.7-0.7,1.1c-0.2,0.4-0.3,0.9-0.4,1.4H87
			c0.1-0.5,0-0.9-0.1-1.3c-0.1-0.4-0.2-0.7-0.4-0.9c-0.2-0.2-0.4-0.4-0.6-0.6c-0.2-0.2-0.5-0.3-0.7-0.4c-0.2-0.1-0.5-0.1-0.7-0.2
			c-0.2,0-0.4-0.1-0.5-0.1l-0.2,0c-0.8,0-1.6,0.2-2.4,0.4c-0.8,0.2-1.4,0.5-2,0.9s-1.1,0.8-1.6,1.3C77.3,16.1,76.9,16.6,76.5,17.1z"
			/>
	</g>
	<rect x="66.5" y="3" class="st54" width="1" height="31"/>
	<rect x="2.5" y="3" class="st48" width="64" height="31"/>
	<path class="st46" d="M45.3,21.4l-2.7-2.7c-0.1,0-0.1-0.1-0.1-0.2s0-0.1,0.1-0.2l2.7-2.7l0.6,0.6L44,18l8.5,0v1H44l1.9,1.8
		L45.3,21.4z"/>
	<path class="st38" d="M57.5,13h-9h-1v1v1v1v1h1v-1h9v6h-9v-2h-1v2v1h1h9h1v-1v-6v-1v-1v-1H57.5z M57.5,15h-9v-1h9V15z"/>
	<path class="st38" d="M15.5,15h9h1v1v1v1v6v1h-1h-9h-1v-1v-6v-1v-1v-1H15.5z M15.5,16v1h9v-1H15.5z M15.5,18v6h9v-6H15.5z"/>
	<path class="st38" d="M12.5,11h9h1v1v1v1v1h-1v-1h-9v6h3v1h-3h-1v-1v-6v-1v-1v-1H12.5z M12.5,12v1h9v-1H12.5z"/>
	<path class="st46" d="M1413,12.8l0.4-0.4l-0.4-0.4l-0.4,0.4L1413,12.8z M1413.4,13.1l-0.4,0.4L1413.4,13.1z M1412.3,13.5l-0.4-0.4
		l-0.3,0.4l0.3,0.4L1412.3,13.5z M1412.6,13.9l0.4-0.4L1412.6,13.9z M1416.8,18l0.4,0.4l0.4-0.4l-0.4-0.4L1416.8,18z M1412.6,22.1
		l-0.4-0.4l0,0L1412.6,22.1z M1412.3,22.5l-0.4-0.4l-0.3,0.4l0.3,0.4L1412.3,22.5z M1413,23.2l-0.4,0.4l0.4,0.4l0.4-0.4L1413,23.2z
		 M1413.4,22.9l0.4,0.4l0,0L1413.4,22.9z M1417.5,18.7l0.4-0.4l-0.4-0.4l-0.4,0.4L1417.5,18.7z M1421.6,22.9l-0.4,0.4l0,0
		L1421.6,22.9z M1422,23.2l-0.4,0.4l0.4,0.4l0.4-0.4L1422,23.2z M1422.7,22.5l0.4,0.4l0.3-0.4l-0.3-0.4L1422.7,22.5z M1422.4,22.1
		l0.4-0.4l0,0L1422.4,22.1z M1418.2,18l-0.4-0.4l-0.4,0.4l0.4,0.4L1418.2,18z M1422.4,13.9l0.4,0.4l0,0L1422.4,13.9z M1422.7,13.5
		l0.4,0.4l0.3-0.4l-0.3-0.4L1422.7,13.5z M1422,12.8l0.4-0.4l-0.4-0.4l-0.4,0.4L1422,12.8z M1421.6,13.1l-0.4-0.4l0,0L1421.6,13.1z
		 M1417.5,17.3l-0.4,0.4l0.4,0.4l0.4-0.4L1417.5,17.3z M1412.6,13.1l0.4,0.4l0.7-0.7l-0.4-0.4L1412.6,13.1z M1412.6,13.9l0.7-0.7
		l-0.7-0.7l-0.7,0.7L1412.6,13.9z M1413,13.5l-0.4-0.4l-0.7,0.7l0.4,0.4L1413,13.5z M1417.1,17.6l-4.1-4.1l-0.7,0.7l4.1,4.1
		L1417.1,17.6z M1413,22.5l4.1-4.1l-0.7-0.7l-4.1,4.1L1413,22.5z M1412.6,22.9l0.4-0.4l-0.7-0.7l-0.4,0.4L1412.6,22.9z M1413.4,22.9
		l-0.7-0.7l-0.7,0.7l0.7,0.7L1413.4,22.9z M1413,22.5l-0.4,0.4l0.7,0.7l0.4-0.4L1413,22.5z M1417.1,18.4l-4.1,4.1l0.7,0.7l4.1-4.1
		L1417.1,18.4z M1422,22.5l-4.1-4.1l-0.7,0.7l4.1,4.1L1422,22.5z M1422.4,22.9l-0.4-0.4l-0.7,0.7l0.4,0.4L1422.4,22.9z M1422.4,22.1
		l-0.7,0.7l0.7,0.7l0.7-0.7L1422.4,22.1z M1422,22.5l0.4,0.4l0.7-0.7l-0.4-0.4L1422,22.5z M1417.9,18.4l4.1,4.1l0.7-0.7l-4.1-4.1
		L1417.9,18.4z M1422,13.5l-4.1,4.1l0.7,0.7l4.1-4.1L1422,13.5z M1422.4,13.1l-0.4,0.4l0.7,0.7l0.4-0.4L1422.4,13.1z M1421.6,13.1
		l0.7,0.7l0.7-0.7l-0.7-0.7L1421.6,13.1z M1422,13.5l0.4-0.4l-0.7-0.7l-0.4,0.4L1422,13.5z M1417.9,17.6l4.1-4.1l-0.7-0.7l-4.1,4.1
		L1417.9,17.6z M1413,13.5l4.1,4.1l0.7-0.7l-4.1-4.1L1413,13.5z"/>
	<rect x="1367" y="13.5" class="st55" width="9" height="9"/>
	<rect x="1320.5" y="17" class="st46" width="10" height="1"/>
</g>
<g>
	<path class="st56" d="M0,0v811h1442V0H0z M1440,809H2V76h1438V809z"/>
	<rect x="2" y="35" class="st57" width="1438" height="40"/>
	<rect x="2" y="75" class="st56" width="1440" height="1"/>
	<rect x="215" y="40" class="st58" width="1039" height="30"/>
	<g>
		<path class="st59" d="M217,40h1035c1.1,0,2,0.9,2,2v26c0,1.1-0.9,2-2,2H217c-1.1,0-2-0.9-2-2V42C215,40.9,215.9,40,217,40z"/>
		<path class="st60" d="M217,40.5h1035c0.8,0,1.5,0.7,1.5,1.5v26c0,0.8-0.7,1.5-1.5,1.5H217c-0.8,0-1.5-0.7-1.5-1.5V42
			C215.5,41.2,216.2,40.5,217,40.5z"/>
	</g>
	<rect x="1162" y="44" class="st61" width="1" height="22"/>
	<path class="st62" d="M1177,57c1.1,0,2-0.9,2-2s-0.9-2-2-2s-2,0.9-2,2S1175.9,57,1177,57z M1183,57c1.1,0,2-0.9,2-2s-0.9-2-2-2
		s-2,0.9-2,2S1181.9,57,1183,57z M1191,55c0,1.1-0.9,2-2,2s-2-0.9-2-2s0.9-2,2-2S1191,53.9,1191,55z"/>
	<rect x="1139" y="51" class="st63" width="6" height="1"/>
	<rect x="1139" y="53" class="st63" width="6" height="1"/>
	<rect x="1139" y="55" class="st63" width="6" height="1"/>
	<rect x="1139" y="57" class="st63" width="3" height="1"/>
	<path class="st64" d="M1137,48c-0.6,0-1,0.4-1,1v12c0,0.6,0.4,1,1,1h10c0.6,0,1-0.4,1-1V49c0-0.6-0.4-1-1-1H1137z"/>
	<path class="st64" d="M1205,49c-0.6,0-1,0.4-1,1v6c0,0.2,0.1,0.4,0.2,0.6l0.8-0.6c-0.8,0.6-0.8,0.6-0.8,0.6v0v0l0,0l0,0l0,0
		c0,0,0.1,0.1,0.1,0.1c0.1,0.1,0.2,0.3,0.4,0.5c0.3,0.4,0.8,0.9,1.4,1.5c1.2,1,2.9,2.2,4.8,2.2s3.6-1.2,4.8-2.2
		c0.6-0.5,1.1-1.1,1.4-1.5c0.2-0.2,0.3-0.4,0.4-0.5c0-0.1,0.1-0.1,0.1-0.1l0,0l0,0l0,0v0v0c0,0,0,0-0.8-0.6l0.8,0.6
		c0.1-0.2,0.2-0.4,0.2-0.6v-6c0-0.6-0.4-1-1-1H1205z"/>
	<path class="st63" d="M1213.9,52.6c0-0.1,0.1-0.1,0.2-0.1s0.2,0,0.2,0.1l0.8,0.8c0.1,0.1,0.1,0.1,0.1,0.2c0,0.1,0,0.2-0.1,0.2
		l-3.9,3.9c-0.1,0.1-0.1,0.1-0.2,0.1s-0.2,0-0.3-0.1l-3.9-3.9c-0.1-0.1-0.1-0.1-0.1-0.2c0-0.1,0-0.2,0.1-0.2l0.8-0.8
		c0.1-0.1,0.2-0.1,0.3-0.1s0.2,0,0.2,0.1l2.9,2.9L1213.9,52.6z"/>
	<path class="st64" d="M1239.4,48.6c-0.2-0.4-0.5-0.6-0.9-0.6s-0.7,0.2-0.9,0.6l-1.5,3.1l-3.3,0.5c-0.4,0.1-0.7,0.3-0.8,0.7
		c-0.1,0.4,0,0.8,0.3,1l2.4,2.3l-0.6,3.6c-0.1,0.4,0.1,0.8,0.4,1c0.3,0.2,0.7,0.2,1,0.1l2.9-1.6l2.9,1.6c0.3,0.2,0.7,0.2,1-0.1
		c0.3-0.2,0.5-0.6,0.4-1l-0.6-3.5l2.4-2.5c0.3-0.3,0.3-0.7,0.2-1c-0.1-0.4-0.4-0.6-0.8-0.7l-3.3-0.5L1239.4,48.6z"/>
	<path class="st65" d="M257.6,54.5c-0.3-0.3-0.6-0.5-0.9-0.5H256v-1.8c0-0.7-0.1-1.4-0.5-2.1c-0.4-0.6-0.9-1.1-1.5-1.5
		c-0.6-0.4-1.3-0.6-2-0.6s-1.4,0.2-2,0.6c-0.6,0.4-1.1,0.9-1.5,1.5c-0.4,0.6-0.5,1.3-0.5,2.1V54h-0.7c-0.4,0-0.7,0.3-0.9,0.5
		s-0.4,0.6-0.4,0.9v5.3c0,0.4,0.1,0.7,0.4,0.9s0.6,0.4,0.9,0.4h9.4c0.4,0,0.7-0.1,0.9-0.4s0.4-0.6,0.4-0.9v-5.3
		C258,55.1,257.9,54.8,257.6,54.5z M254,52v2h-4v-2c0-0.6,0.2-1,0.6-1.4c0.4-0.4,0.9-0.6,1.4-0.6s1,0.2,1.4,0.6
		C253.8,51,254,51.4,254,52z"/>
	<path class="st62" d="M235.4,48.9c-1-0.6-2.2-0.9-3.4-0.9s-2.4,0.3-3.4,0.9c-1,0.6-1.9,1.5-2.5,2.6c-0.6,1.1-0.9,2.2-0.9,3.5
		s0.3,2.4,0.9,3.5c0.6,1.1,1.4,1.9,2.5,2.6c1,0.6,2.2,0.9,3.4,0.9s2.4-0.3,3.4-0.9c1-0.6,1.9-1.5,2.5-2.6c0.6-1.1,0.9-2.2,0.9-3.5
		s-0.3-2.4-0.9-3.5C237.3,50.4,236.4,49.6,235.4,48.9z M229,49.8c0.9-0.5,1.9-0.8,3-0.8c1.1,0,2,0.3,3,0.8c0.9,0.5,1.6,1.3,2.2,2.2
		c0.5,0.9,0.8,1.9,0.8,3s-0.3,2.1-0.8,3c-0.5,0.9-1.2,1.6-2.1,2.2c-0.9,0.5-1.9,0.8-3,0.8s-2.1-0.3-3-0.8c-0.9-0.5-1.6-1.3-2.1-2.2
		c-0.5-0.9-0.8-1.9-0.8-3s0.3-2.1,0.8-3C227.4,51.1,228.1,50.3,229,49.8z M232,51c0.3,0,0.5,0.1,0.7,0.3c0.2,0.2,0.3,0.4,0.3,0.7
		c0,0.3-0.1,0.5-0.3,0.7c-0.2,0.2-0.4,0.3-0.7,0.3s-0.5-0.1-0.7-0.3c-0.2-0.2-0.3-0.4-0.3-0.7c0-0.3,0.1-0.5,0.3-0.7
		C231.5,51.1,231.7,51,232,51z M232,54c-0.6,0-1,0.4-1,1v3c0,0.6,0.4,1,1,1s1-0.4,1-1v-3C233,54.5,232.6,54,232,54z"/>
	<path class="st66" d="M111.6,55.9h1.3v5.5c0,0.3,0.3,0.6,0.6,0.6h3.8h0.6h0.7h0.9h0.7h0.6h3.6c0.3,0,0.6-0.3,0.6-0.6v-5.5h1.6
		c0.2,0,0.4-0.1,0.5-0.4c0.1-0.2,0-0.5-0.1-0.6l-7.3-7.8c-0.2-0.2-0.8-0.2-1,0l-7.4,7.8c-0.2,0.2-0.2,0.4-0.1,0.6
		C111.1,55.8,111.3,55.9,111.6,55.9z M119,50l4,3.9v1.8V60h-2v-3v-2.2h-4V57v3h-2v-4.4v-0.9v-0.9L119,50z"/>
	<path class="st67" d="M94.7,48c0.1,0,0.2,0,0.2,0.1c0.1,0.1,0.1,0.1,0.1,0.2v5.6c0,0.1,0,0.2-0.1,0.2c-0.1,0.1-0.1,0.1-0.2,0.1
		h-5.6c-0.1,0-0.2,0-0.2-0.1s-0.1-0.1-0.1-0.2v-1.3c0-0.1,0-0.2,0.1-0.2s0.2-0.1,0.3-0.1l2.8,0.1c-0.4-0.7-1-1.2-1.7-1.6
		c-0.7-0.4-1.5-0.6-2.3-0.6c-0.9,0-1.7,0.2-2.5,0.7s-1.3,1-1.8,1.8c-0.4,0.8-0.7,1.6-0.7,2.5s0.2,1.7,0.7,2.5c0.4,0.8,1,1.3,1.8,1.8
		S87,60,87.9,60c0.6,0,1.2-0.1,1.8-0.3c0.6-0.2,1-0.5,1.5-0.9c0.1-0.1,0.2-0.1,0.2-0.1c0.1,0,0.2,0,0.2,0.1l0.9,0.9
		c0.1,0.1,0.1,0.1,0.1,0.2c0,0.1,0,0.2-0.1,0.2c-0.6,0.6-1.3,1-2.1,1.3S88.8,62,87.9,62c-1.2,0-2.4-0.3-3.4-0.9
		c-1.1-0.6-1.9-1.5-2.5-2.5c-0.6-1-0.9-2.2-0.9-3.4s0.3-2.4,0.9-3.5c0.6-1.1,1.5-1.9,2.5-2.5c1.1-0.6,2.2-0.9,3.4-0.9
		c1,0,2,0.2,2.9,0.6c0.9,0.4,1.7,1,2.3,1.8L93,48.4c0-0.1,0-0.2,0.1-0.3s0.1-0.1,0.2-0.1H94.7z"/>
	<path class="st68" d="M55.9,48.4c0.1-0.1,0.2-0.2,0.4-0.2c0.2,0,0.3,0.1,0.4,0.2l6.2,6.2c0.1,0.1,0.2,0.2,0.2,0.4
		c0,0.2-0.1,0.3-0.2,0.4l-6.2,6.2c-0.1,0.1-0.2,0.2-0.4,0.2c-0.2,0-0.3-0.1-0.4-0.2l-0.9-0.9c-0.1-0.1-0.2-0.3-0.2-0.4
		c0-0.2,0.1-0.3,0.2-0.4l3.8-3.9H47.6c-0.2,0-0.4,0-0.4,0S47,55.8,47,55.7v-1.3c0-0.2,0.2-0.3,0.2-0.3s0.2,0,0.4,0h11.2l-3.8-3.9
		c-0.1-0.1-0.2-0.2-0.2-0.4c0-0.2,0.1-0.3,0.2-0.4L55.9,48.4z"/>
	<path class="st69" d="M22,71.5c9.1,0,16.5-7.4,16.5-16.5S31.1,38.5,22,38.5S5.5,45.9,5.5,55S12.9,71.5,22,71.5z"/>
	<path class="st70" d="M21.1,61.6c-0.1,0.1-0.2,0.2-0.4,0.2c-0.2,0-0.3-0.1-0.4-0.2l-6.2-6.2C14.1,55.3,14,55.2,14,55
		c0-0.2,0.1-0.3,0.2-0.4l6.2-6.2c0.1-0.1,0.2-0.2,0.4-0.2c0.2,0,0.3,0.1,0.4,0.2l0.9,0.9c0.1,0.1,0.2,0.3,0.2,0.4
		c0,0.2-0.1,0.3-0.2,0.4L18.3,54h11.2c0.2,0,0.4,0,0.4,0s0.2,0.2,0.2,0.3v1.3c0,0.2-0.2,0.3-0.2,0.3s-0.2,0-0.4,0H18.3l3.8,3.9
		c0.1,0.1,0.2,0.2,0.2,0.4c0,0.2-0.1,0.3-0.2,0.4L21.1,61.6z"/>
	<path class="st66" d="M1415,50c0-0.6,0.4-1,1-1h10c0.6,0,1,0.4,1,1s-0.4,1-1,1h-10C1415.4,51,1415,50.6,1415,50z M1415,55
		c0-0.6,0.4-1,1-1h10c0.6,0,1,0.4,1,1s-0.4,1-1,1h-10C1415.4,56,1415,55.6,1415,55z M1416,59c-0.6,0-1,0.4-1,1s0.4,1,1,1h10
		c0.6,0,1-0.4,1-1s-0.4-1-1-1H1416z"/>
	<rect x="1401" y="38" class="st71" width="1" height="34"/>
	<path class="st72" d="M1376,49c-0.3,0-0.5,0.1-0.7,0.3c-0.2,0.2-0.3,0.4-0.3,0.7v10c0,0.6,0.4,1,1,1h12c0.6,0,1-0.4,1-1V50
		c0-0.6-0.4-1-1-1H1376z"/>
	<path class="st66" d="M1382,50h-1v10h1V50z M1380,51h-3v1h3V51z M1380,53h-3v1h3V53z M1378,55h2v1h-2V55z"/>
	<path class="st66" d="M1344,48c-0.5,0-1,0.4-1,1v12c0,0.5,0.4,1,1,1c0.5,0,1-0.4,1-1V49C1344.9,48.4,1344.5,48,1344,48z
		 M1352.7,48.8c-0.5,0.2-0.8,0.7-0.6,1.2l4,11.3c0.2,0.5,0.8,0.8,1.3,0.6c0.5-0.2,0.8-0.7,0.6-1.2l-4-11.3
		C1353.8,48.9,1353.2,48.7,1352.7,48.8z M1345.9,51c0-0.5,0.4-1,1-1c0.5,0,1,0.4,1,1v10c0,0.5-0.4,1-1,1c-0.5,0-1-0.4-1-1V51z
		 M1349.8,49c-0.5,0-1,0.4-1,1v11c0,0.5,0.4,1,1,1c0.5,0,1-0.4,1-1V50C1350.8,49.4,1350.4,49,1349.8,49z"/>
	<rect x="2" y="34" class="st73" width="1438" height="1"/>
	<rect x="2" y="2" class="st74" width="1438" height="32"/>
	<path class="st75" d="M1412.5,13.8l0.3-0.4l-0.3-0.4l-0.3,0.4L1412.5,13.8z M1412.8,14.1l-0.3,0.4L1412.8,14.1z M1411.8,14.5
		l-0.4-0.4l-0.3,0.4l0.3,0.4L1411.8,14.5z M1412.2,14.9l0.3-0.4L1412.2,14.9z M1416.3,19l0.4,0.4l0.3-0.4l-0.3-0.4L1416.3,19z
		 M1412.2,23.1l-0.4-0.4l0,0L1412.2,23.1z M1411.8,23.5l-0.4-0.4l-0.3,0.4l0.3,0.4L1411.8,23.5z M1412.5,24.2l-0.3,0.4l0.3,0.4
		l0.3-0.4L1412.5,24.2z M1412.8,23.9l0.4,0.4l0,0L1412.8,23.9z M1417,19.7l0.3-0.4L1417,19l-0.3,0.4L1417,19.7z M1421.2,23.9
		l-0.4,0.4l0,0L1421.2,23.9z M1421.5,24.2l-0.3,0.4l0.3,0.4l0.3-0.4L1421.5,24.2z M1422.2,23.5l0.4,0.4l0.3-0.4l-0.3-0.4
		L1422.2,23.5z M1421.8,23.1l0.4-0.4l0,0L1421.8,23.1z M1417.7,19l-0.4-0.4L1417,19l0.3,0.4L1417.7,19z M1421.8,14.9l0.4,0.4l0,0
		L1421.8,14.9z M1422.2,14.5l0.4,0.4l0.3-0.4l-0.3-0.4L1422.2,14.5z M1421.5,13.8l0.3-0.4l-0.3-0.4l-0.3,0.4L1421.5,13.8z
		 M1421.2,14.1l-0.4-0.4l0,0L1421.2,14.1z M1417,18.3l-0.3,0.4l0.3,0.4l0.3-0.4L1417,18.3z M1412.2,14.1l0.3,0.4l0.7-0.7l-0.4-0.4
		L1412.2,14.1z M1412.2,14.9l0.7-0.7l-0.7-0.7l-0.7,0.7L1412.2,14.9z M1412.5,14.5l-0.3-0.4l-0.7,0.7l0.4,0.4L1412.5,14.5z
		 M1416.7,18.6l-4.2-4.1l-0.7,0.7l4.1,4.1L1416.7,18.6z M1412.5,23.5l4.2-4.1l-0.7-0.7l-4.1,4.1L1412.5,23.5z M1412.2,23.9l0.3-0.4
		l-0.7-0.7l-0.4,0.4L1412.2,23.9z M1412.8,23.9l-0.7-0.7l-0.7,0.7l0.7,0.7L1412.8,23.9z M1412.5,23.5l-0.3,0.4l0.7,0.7l0.4-0.4
		L1412.5,23.5z M1416.7,19.4l-4.2,4.1l0.7,0.7l4.1-4.1L1416.7,19.4z M1421.5,23.5l-4.2-4.1l-0.7,0.7l4.1,4.1L1421.5,23.5z
		 M1421.8,23.9l-0.3-0.4l-0.7,0.7l0.4,0.4L1421.8,23.9z M1421.8,23.1l-0.7,0.7l0.7,0.7l0.7-0.7L1421.8,23.1z M1421.5,23.5l0.3,0.4
		l0.7-0.7l-0.4-0.4L1421.5,23.5z M1417.3,19.4l4.2,4.1l0.7-0.7l-4.1-4.1L1417.3,19.4z M1421.5,14.5l-4.2,4.1l0.7,0.7l4.1-4.1
		L1421.5,14.5z M1421.8,14.1l-0.3,0.4l0.7,0.7l0.4-0.4L1421.8,14.1z M1421.2,14.1l0.7,0.7l0.7-0.7l-0.7-0.7L1421.2,14.1z
		 M1421.5,14.5l0.3-0.4l-0.7-0.7l-0.4,0.4L1421.5,14.5z M1417.3,18.6l4.2-4.1l-0.7-0.7l-4.1,4.1L1417.3,18.6z M1412.5,14.5l4.2,4.1
		l0.7-0.7l-4.1-4.1L1412.5,14.5z"/>
	<rect x="1366.5" y="14.5" class="st76" width="9" height="9"/>
	<rect x="1320" y="18" class="st75" width="10" height="1"/>
	<path class="st77" d="M514.7,18.1c0.1,0,0.1,0,0.2,0.1c0.1,0.1,0.1,0.1,0.1,0.2v1.2c0,0.1,0,0.1-0.1,0.2c-0.1,0.1-0.1,0.1-0.2,0.1
		h-5.8v5.8c0,0.1,0,0.1-0.1,0.2c-0.1,0.1-0.1,0.1-0.2,0.1h-1.2c-0.1,0-0.1,0-0.2-0.1c-0.1-0.1-0.1-0.1-0.1-0.2v-5.8h-5.8
		c-0.1,0-0.1,0-0.2-0.1c-0.1-0.1-0.1-0.1-0.1-0.2v-1.2c0-0.1,0-0.1,0.1-0.2c0.1-0.1,0.1-0.1,0.2-0.1h5.8v-5.8c0-0.1,0-0.1,0.1-0.2
		c0.1-0.1,0.1-0.1,0.2-0.1h1.2c0.1,0,0.1,0,0.2,0.1c0.1,0.1,0.1,0.1,0.1,0.2v5.8H514.7z"/>
	<rect x="490" y="2" class="st78" width="1" height="33"/>
	<rect x="266" y="2" class="st74" width="224" height="33"/>
	<path class="st77" d="M474.1,19l3.9,3.9c0,0,0.1,0.1,0.1,0.2c0,0.1,0,0.1-0.1,0.2l-0.7,0.7c0,0-0.1,0.1-0.2,0.1s-0.1,0-0.2-0.1
		l-3.9-3.9l-3.9,3.9c0,0-0.1,0.1-0.2,0.1s-0.1,0-0.2-0.1l-0.7-0.7c0,0-0.1-0.1-0.1-0.2c0-0.1,0-0.1,0.1-0.2l3.9-3.9l-3.9-3.9
		c0,0-0.1-0.1-0.1-0.2s0-0.1,0.1-0.2l0.7-0.7c0,0,0.1-0.1,0.2-0.1s0.1,0,0.2,0.1l3.9,3.9l3.9-3.9c0,0,0.1-0.1,0.2-0.1s0.1,0,0.2,0.1
		l0.7,0.7c0,0,0.1,0.1,0.1,0.2s0,0.1-0.1,0.2L474.1,19z"/>
	<path class="st77" d="M303.7,22c-0.3,0.4-0.6,0.7-1.1,0.9c-0.5,0.2-1,0.3-1.7,0.3c-0.6,0-1.2-0.1-1.7-0.4c-0.5-0.3-0.9-0.7-1.1-1.3
		c-0.3-0.6-0.4-1.2-0.4-1.9v-0.7c0-1.2,0.3-2.1,0.8-2.7c0.6-0.6,1.3-1,2.3-1c0.8,0,1.5,0.2,2,0.6c0.5,0.4,0.8,1,0.9,1.8h-1
		c-0.2-1-0.8-1.6-1.8-1.6c-0.7,0-1.2,0.2-1.6,0.7c-0.4,0.5-0.5,1.2-0.5,2.1v0.6c0,0.9,0.2,1.6,0.6,2.1c0.4,0.5,0.9,0.8,1.6,0.8
		c0.4,0,0.7,0,1-0.1c0.3-0.1,0.5-0.2,0.7-0.4v-1.8h-1.8v-0.8h2.8V22z M305,20c0-0.6,0.1-1.1,0.3-1.5c0.2-0.5,0.5-0.8,0.9-1.1
		c0.4-0.2,0.9-0.4,1.4-0.4c0.8,0,1.4,0.3,1.9,0.8c0.5,0.5,0.7,1.3,0.7,2.2v0.1c0,0.6-0.1,1.1-0.3,1.5c-0.2,0.4-0.5,0.8-0.9,1
		c-0.4,0.3-0.9,0.4-1.4,0.4c-0.8,0-1.4-0.3-1.9-0.8C305.2,21.7,305,21,305,20L305,20z M306,20.2c0,0.6,0.1,1.2,0.4,1.6
		c0.3,0.4,0.7,0.6,1.2,0.6c0.5,0,0.9-0.2,1.2-0.6c0.3-0.4,0.4-1,0.4-1.7c0-0.6-0.2-1.2-0.5-1.5c-0.3-0.4-0.7-0.6-1.2-0.6
		c-0.5,0-0.9,0.2-1.2,0.6C306.1,18.9,306,19.4,306,20.2z M311.3,20c0-0.6,0.1-1.1,0.3-1.5c0.2-0.5,0.5-0.8,0.9-1.1
		c0.4-0.2,0.9-0.4,1.4-0.4c0.8,0,1.4,0.3,1.9,0.8c0.5,0.5,0.7,1.3,0.7,2.2v0.1c0,0.6-0.1,1.1-0.3,1.5c-0.2,0.4-0.5,0.8-0.9,1
		c-0.4,0.3-0.9,0.4-1.4,0.4c-0.8,0-1.4-0.3-1.9-0.8C311.5,21.7,311.3,21,311.3,20L311.3,20z M312.3,20.2c0,0.6,0.1,1.2,0.4,1.6
		c0.3,0.4,0.7,0.6,1.2,0.6c0.5,0,0.9-0.2,1.2-0.6c0.3-0.4,0.4-1,0.4-1.7c0-0.6-0.2-1.2-0.5-1.5c-0.3-0.4-0.7-0.6-1.2-0.6
		c-0.5,0-0.9,0.2-1.2,0.6C312.4,18.9,312.3,19.4,312.3,20.2z M317.6,20c0-0.9,0.2-1.6,0.6-2.2c0.4-0.5,1-0.8,1.7-0.8
		c0.7,0,1.3,0.3,1.7,0.8l0-0.6h0.9v5.7c0,0.8-0.2,1.3-0.7,1.8c-0.4,0.4-1,0.6-1.8,0.6c-0.4,0-0.8-0.1-1.2-0.3
		c-0.4-0.2-0.7-0.4-0.9-0.7l0.5-0.6c0.4,0.5,0.9,0.8,1.6,0.8c0.5,0,0.9-0.1,1.1-0.4c0.3-0.3,0.4-0.7,0.4-1.1v-0.5
		c-0.4,0.5-0.9,0.7-1.6,0.7c-0.7,0-1.2-0.3-1.7-0.8C317.8,21.7,317.6,21,317.6,20z M318.6,20.2c0,0.7,0.1,1.2,0.4,1.5
		c0.3,0.4,0.6,0.6,1.1,0.6c0.6,0,1.1-0.3,1.4-0.9v-2.7c-0.3-0.6-0.8-0.8-1.4-0.8c-0.5,0-0.9,0.2-1.1,0.6
		C318.7,18.9,318.6,19.4,318.6,20.2z M325.1,23h-1v-8.3h1V23z M329.1,23.1c-0.8,0-1.4-0.3-1.9-0.8c-0.5-0.5-0.7-1.2-0.7-2.1v-0.2
		c0-0.6,0.1-1.1,0.3-1.5c0.2-0.5,0.5-0.8,0.9-1.1c0.4-0.3,0.8-0.4,1.3-0.4c0.8,0,1.3,0.2,1.8,0.7c0.4,0.5,0.6,1.2,0.6,2.1v0.4h-3.9
		c0,0.6,0.2,1,0.5,1.4c0.3,0.4,0.7,0.5,1.2,0.5c0.4,0,0.6-0.1,0.9-0.2c0.2-0.1,0.5-0.3,0.6-0.6l0.6,0.5
		C330.8,22.7,330,23.1,329.1,23.1z M328.9,17.9c-0.4,0-0.7,0.1-1,0.4c-0.3,0.3-0.4,0.7-0.5,1.2h2.9v-0.1c0-0.5-0.2-0.9-0.4-1.2
		C329.7,18,329.4,17.9,328.9,17.9z"/>
	<defs>
		<filter id="Adobe_OpacityMaskFilter_6_" filterUnits="userSpaceOnUse" x="275" y="11" width="16" height="16">
			<feColorMatrix  type="matrix" values="1 0 0 0 0  0 1 0 0 0  0 0 1 0 0  0 0 0 1 0"/>
		</filter>
	</defs>
	<mask maskUnits="userSpaceOnUse" x="275" y="11" width="16" height="16" id="mask4_1_">
		<rect x="275" y="11" class="st79" width="16" height="16"/>
	</mask>
	<g class="st80">
		<path class="st23" d="M278.6,20.6l-0.6,2.1l-2,0c-0.6-1.1-1-2.4-1-3.8c0-1.3,0.3-2.6,0.9-3.7l0,0l1.8,0.3l0.8,1.8
			c-0.2,0.5-0.3,1-0.3,1.5C278.3,19.5,278.4,20.1,278.6,20.6z"/>
		<path class="st24" d="M290.9,17.5c0.1,0.5,0.1,1,0.1,1.5c0,0.6-0.1,1.1-0.2,1.7c-0.4,1.8-1.4,3.4-2.8,4.6v0l-2.3-0.1l-0.3-2
			c0.9-0.5,1.7-1.4,2.1-2.4h-4.3v-3.2h4.3H290.9L290.9,17.5z"/>
		<path class="st25" d="M288,25.3L288,25.3c-1.4,1.1-3.1,1.7-5,1.7c-3.1,0-5.7-1.7-7.1-4.2l2.6-2.1c0.7,1.8,2.4,3.1,4.5,3.1
			c0.9,0,1.7-0.2,2.4-0.6L288,25.3z"/>
		<path class="st26" d="M288.2,12.8l-2.6,2.1c-0.7-0.5-1.6-0.7-2.5-0.7c-2.1,0-3.9,1.3-4.5,3.2l-2.6-2.1h0c1.3-2.5,4-4.3,7.1-4.3
			C285,11,286.8,11.7,288.2,12.8z"/>
	</g>
	<rect x="265" y="2" class="st73" width="1" height="33"/>
	<rect x="41" y="2" class="st57" width="224" height="33"/>
	<path class="st67" d="M249.1,19l3.9,3.9c0,0,0.1,0.1,0.1,0.2c0,0.1,0,0.1-0.1,0.2l-0.7,0.7c0,0-0.1,0.1-0.2,0.1s-0.1,0-0.2-0.1
		l-3.9-3.9l-3.9,3.9c0,0-0.1,0.1-0.2,0.1s-0.1,0-0.2-0.1l-0.7-0.7c0,0-0.1-0.1-0.1-0.2c0-0.1,0-0.1,0.1-0.2l3.9-3.9l-3.9-3.9
		c0,0-0.1-0.1-0.1-0.2s0-0.1,0.1-0.2l0.7-0.7c0,0,0.1-0.1,0.2-0.1s0.1,0,0.2,0.1l3.9,3.9l3.9-3.9c0,0,0.1-0.1,0.2-0.1s0.1,0,0.2,0.1
		l0.7,0.7c0,0,0.1,0.1,0.1,0.2s0,0.1-0.1,0.2L249.1,19z"/>
	<path class="st81" d="M75.3,19.1l2-3.9h1.2l-2.7,4.9V23h-1v-2.9l-2.7-4.9h1.2L75.3,19.1z M78.7,20c0-0.6,0.1-1.1,0.3-1.5
		c0.2-0.5,0.5-0.8,0.9-1.1c0.4-0.2,0.9-0.4,1.4-0.4c0.8,0,1.4,0.3,1.9,0.8c0.5,0.5,0.7,1.3,0.7,2.2v0.1c0,0.6-0.1,1.1-0.3,1.5
		c-0.2,0.4-0.5,0.8-0.9,1c-0.4,0.3-0.9,0.4-1.4,0.4c-0.8,0-1.4-0.3-1.9-0.8C79,21.7,78.7,21,78.7,20L78.7,20z M79.7,20.2
		c0,0.6,0.1,1.2,0.4,1.6c0.3,0.4,0.7,0.6,1.2,0.6c0.5,0,0.9-0.2,1.2-0.6c0.3-0.4,0.4-1,0.4-1.7c0-0.6-0.2-1.2-0.5-1.5
		c-0.3-0.4-0.7-0.6-1.2-0.6c-0.5,0-0.9,0.2-1.2,0.6C79.9,18.9,79.7,19.4,79.7,20.2z M88.9,22.4c-0.4,0.5-1,0.7-1.7,0.7
		c-0.6,0-1.1-0.2-1.4-0.5c-0.3-0.4-0.5-0.9-0.5-1.6v-3.8h1v3.8c0,0.9,0.4,1.3,1.1,1.3c0.8,0,1.3-0.3,1.5-0.8v-4.2h1V23h-0.9
		L88.9,22.4z M94.2,18.1c-0.2,0-0.3,0-0.5,0c-0.7,0-1.1,0.3-1.3,0.8V23h-1v-5.8h1l0,0.7c0.3-0.5,0.8-0.8,1.4-0.8
		c0.2,0,0.3,0,0.4,0.1V18.1z M100.3,19.5c-0.9-0.3-1.5-0.6-1.9-0.9c-0.4-0.4-0.6-0.8-0.6-1.4c0-0.6,0.2-1.1,0.7-1.5
		c0.5-0.4,1.1-0.6,1.9-0.6c0.5,0,1,0.1,1.4,0.3c0.4,0.2,0.7,0.5,1,0.9c0.2,0.4,0.3,0.8,0.3,1.2h-1c0-0.5-0.2-0.8-0.5-1.1
		c-0.3-0.3-0.7-0.4-1.3-0.4c-0.5,0-0.9,0.1-1.2,0.3c-0.3,0.2-0.4,0.5-0.4,0.9c0,0.3,0.1,0.6,0.4,0.8c0.3,0.2,0.7,0.4,1.4,0.6
		c0.7,0.2,1.2,0.4,1.5,0.6c0.4,0.2,0.6,0.5,0.8,0.8c0.2,0.3,0.3,0.6,0.3,1c0,0.6-0.2,1.1-0.7,1.5c-0.5,0.4-1.2,0.6-2,0.6
		c-0.5,0-1-0.1-1.5-0.3c-0.5-0.2-0.8-0.5-1.1-0.8c-0.3-0.4-0.4-0.8-0.4-1.2h1c0,0.5,0.2,0.8,0.5,1.1c0.4,0.3,0.8,0.4,1.4,0.4
		c0.5,0,1-0.1,1.3-0.3c0.3-0.2,0.4-0.5,0.4-0.9c0-0.4-0.1-0.7-0.4-0.9C101.5,19.9,101,19.7,100.3,19.5z M105.4,23h-1v-5.8h1V23z
		 M104.3,15.6c0-0.2,0-0.3,0.1-0.4c0.1-0.1,0.2-0.2,0.4-0.2c0.2,0,0.3,0.1,0.4,0.2s0.2,0.2,0.2,0.4c0,0.2-0.1,0.3-0.2,0.4
		c-0.1,0.1-0.2,0.2-0.4,0.2c-0.2,0-0.3-0.1-0.4-0.2C104.4,15.9,104.3,15.8,104.3,15.6z M108.4,15.8v1.4h1.1V18h-1.1v3.6
		c0,0.2,0,0.4,0.1,0.5c0.1,0.1,0.3,0.2,0.5,0.2c0.1,0,0.3,0,0.5-0.1V23c-0.3,0.1-0.5,0.1-0.8,0.1c-0.4,0-0.8-0.1-1-0.4
		c-0.2-0.3-0.3-0.6-0.3-1.1V18h-1.1v-0.8h1.1v-1.4H108.4z M113,23.1c-0.8,0-1.4-0.3-1.9-0.8c-0.5-0.5-0.7-1.2-0.7-2.1v-0.2
		c0-0.6,0.1-1.1,0.3-1.5c0.2-0.5,0.5-0.8,0.9-1.1c0.4-0.3,0.8-0.4,1.3-0.4c0.8,0,1.3,0.2,1.8,0.7c0.4,0.5,0.6,1.2,0.6,2.1v0.4h-3.9
		c0,0.6,0.2,1,0.5,1.4c0.3,0.4,0.7,0.5,1.2,0.5c0.4,0,0.6-0.1,0.9-0.2c0.2-0.1,0.5-0.3,0.6-0.6l0.6,0.5
		C114.7,22.7,114,23.1,113,23.1z M112.9,17.9c-0.4,0-0.7,0.1-1,0.4c-0.3,0.3-0.4,0.7-0.5,1.2h2.9v-0.1c0-0.5-0.2-0.9-0.4-1.2
		C113.6,18,113.3,17.9,112.9,17.9z M124.5,16H122v7h-1v-7h-2.5v-0.8h6V16z M126.6,23h-1v-5.8h1V23z M125.5,15.6c0-0.2,0-0.3,0.1-0.4
		c0.1-0.1,0.2-0.2,0.4-0.2c0.2,0,0.3,0.1,0.4,0.2c0.1,0.1,0.1,0.2,0.1,0.4c0,0.2,0,0.3-0.1,0.4c-0.1,0.1-0.2,0.2-0.4,0.2
		c-0.2,0-0.3-0.1-0.4-0.2C125.6,15.9,125.5,15.8,125.5,15.6z M129.5,15.8v1.4h1.1V18h-1.1v3.6c0,0.2,0,0.4,0.1,0.5
		c0.1,0.1,0.3,0.2,0.5,0.2c0.1,0,0.3,0,0.5-0.1V23c-0.3,0.1-0.5,0.1-0.8,0.1c-0.4,0-0.8-0.1-1-0.4c-0.2-0.3-0.3-0.6-0.3-1.1V18h-1.1
		v-0.8h1.1v-1.4H129.5z M132.9,23h-1v-8.3h1V23z M136.9,23.1c-0.8,0-1.4-0.3-1.9-0.8c-0.5-0.5-0.7-1.2-0.7-2.1v-0.2
		c0-0.6,0.1-1.1,0.3-1.5c0.2-0.5,0.5-0.8,0.9-1.1c0.4-0.3,0.8-0.4,1.3-0.4c0.8,0,1.3,0.2,1.8,0.7c0.4,0.5,0.6,1.2,0.6,2.1v0.4h-3.9
		c0,0.6,0.2,1,0.5,1.4c0.3,0.4,0.7,0.5,1.2,0.5c0.4,0,0.6-0.1,0.9-0.2c0.2-0.1,0.5-0.3,0.6-0.6l0.6,0.5
		C138.6,22.7,137.9,23.1,136.9,23.1z M136.8,17.9c-0.4,0-0.7,0.1-1,0.4c-0.3,0.3-0.4,0.7-0.5,1.2h2.9v-0.1c0-0.5-0.2-0.9-0.4-1.2
		C137.5,18,137.2,17.9,136.8,17.9z"/>
	<defs>
		<filter id="Adobe_OpacityMaskFilter_7_" filterUnits="userSpaceOnUse" x="50" y="11" width="15.5" height="16">
			<feColorMatrix  type="matrix" values="1 0 0 0 0  0 1 0 0 0  0 0 1 0 0  0 0 0 1 0"/>
		</filter>
	</defs>
	<mask maskUnits="userSpaceOnUse" x="50" y="11" width="15.5" height="16" id="mask5_1_">
		<rect x="50" y="11" class="st82" width="16" height="16"/>
	</mask>
	<g class="st83">
		
			<radialGradient id="SVGID_1_" cx="1" cy="1081" r="1" gradientTransform="matrix(5.5865 0.2493 0.6857 -15.3681 -682.0783 16627.6797)" gradientUnits="userSpaceOnUse">
			<stop  offset="4.500000e-02" style="stop-color:#FEE900"/>
			<stop  offset="0.12" style="stop-color:#FEDE00"/>
			<stop  offset="0.254" style="stop-color:#FEBF10"/>
			<stop  offset="0.429" style="stop-color:#F78E1E"/>
			<stop  offset="0.769" style="stop-color:#EE3435"/>
			<stop  offset="0.872" style="stop-color:#E0255B"/>
			<stop  offset="0.953" style="stop-color:#CD2678"/>
			<stop  offset="1" style="stop-color:#C52783"/>
		</radialGradient>
		<path class="st84" d="M62.5,12.5C62.1,12.9,62,14,62.3,15c0.4,1,1,0.8,1.4,1.9c0.5,1.4,0.3,3.3,0.3,3.3s0.6,1.7,1-0.1
			C65.9,16.6,62.5,13.3,62.5,12.5z"/>
		
			<radialGradient id="SVGID_2_" cx="1" cy="1081" r="1" gradientTransform="matrix(15.7603 0 0 -15.8443 45.0221 17141.8281)" gradientUnits="userSpaceOnUse">
			<stop  offset="0" style="stop-color:#39C1D2"/>
			<stop  offset="0.22" style="stop-color:#457ABE"/>
			<stop  offset="0.261" style="stop-color:#4275BA"/>
			<stop  offset="0.33" style="stop-color:#3C65AF"/>
			<stop  offset="0.333" style="stop-color:#3B64AF"/>
			<stop  offset="0.438" style="stop-color:#35459C"/>
			<stop  offset="0.522" style="stop-color:#422D81"/>
			<stop  offset="0.566" style="stop-color:#4C2873"/>
		</radialGradient>
		<path class="st85" d="M57.8,26.8c4,0,7.2-3.2,7.2-7.3s-3.2-7.3-7.2-7.3s-7.2,3.2-7.2,7.3C50.6,23.6,53.8,26.8,57.8,26.8z"/>
		
			<linearGradient id="SVGID_3_" gradientUnits="userSpaceOnUse" x1="58.8801" y1="1059.1738" x2="55.4165" y2="1069.2357" gradientTransform="matrix(1 0 0 -1 0 1082)">
			<stop  offset="0" style="stop-color:#121643;stop-opacity:0.4"/>
			<stop  offset="0.485" style="stop-color:#20275E;stop-opacity:0.173"/>
			<stop  offset="1" style="stop-color:#263171;stop-opacity:1.000000e-02"/>
		</linearGradient>
		<path class="st86" d="M63.2,24.1c-0.2,0.1-0.3,0.2-0.5,0.3c0.2-0.3,0.4-0.7,0.6-1c0.2-0.2,0.3-0.3,0.4-0.5
			c0.1-0.1,0.1-0.2,0.2-0.3c0.4-0.7,0.9-1.9,0.9-3.1v0c0,0,0-0.1,0-0.1c0-0.3,0-0.6-0.1-0.9c0,0,0,0,0,0.1c0,0,0,0,0-0.1
			c0,0,0,0.1,0,0.1c0.1,0.7,0,1.4-0.3,1.9c0,0,0,0,0,0c0.2-0.8,0.2-1.6,0-2.5c0,0-0.1-0.4-0.6-1.7c-0.3-0.7-0.8-1.3-1.3-1.7
			c-0.4-0.5-0.8-0.8-1-1c-0.4-0.4-0.6-0.8-0.7-1c-0.1,0-0.9-0.8-0.9-0.8c-0.3,0.5-1.4,2.2-0.9,3.8c0.2,0.7,0.8,1.5,1.5,1.9
			c0,0,0.4,0.4,0.5,1.3c0.2,0.9,0.1,1.6-0.3,2.6c-0.4,0.9-1.5,1.8-2.5,1.9c-2.1,0.2-2.9-1.1-2.9-1.1c0.8,0.3,1.6,0.2,2.1-0.1
			c0.5-0.3,0.8-0.6,1.1-0.5c0.2,0.1,0.4-0.2,0.3-0.5c-0.3-0.4-0.8-0.7-1.3-0.6c-0.5,0.1-1,0.5-1.6,0.1c0,0-0.1-0.1-0.1-0.1
			c0,0,0.1,0,0.1,0c-0.1-0.1-0.4-0.2-0.4-0.3c0,0,0.1,0,0.1,0c-0.6-0.5-0.5-0.9-0.5-1.1c0-0.2,0.1-0.4,0.3-0.5
			c0.1,0.1,0.2,0.1,0.2,0.1s0-0.1-0.1-0.1c0,0,0,0,0,0c0.1,0,0.2,0.1,0.3,0.2c0.1,0.1,0.2,0.2,0.2,0.2s0,0,0-0.1c0,0,0-0.1-0.2-0.2
			l0,0c0.1,0,0.1,0.1,0.2,0.1c0-0.1,0.1-0.2,0.1-0.5c0-0.2,0-0.2,0-0.3c0-0.1,0-0.1,0.1,0c0,0,0-0.1,0-0.1l0,0
			c0.1-0.2,1.1-0.7,1.2-0.7c0.1-0.1,0.2-0.2,0.3-0.3c0.1-0.1,0.1-0.2,0.1-0.4c0-0.1-0.1-0.2-1.1-0.4c-0.3,0-0.5-0.2-0.6-0.4
			c0,0,0-0.1-0.1-0.1c0,0,0-0.1,0-0.1c0.2-0.5,0.5-0.9,0.9-1.2c0,0-0.1,0-0.1,0c0,0,0.2-0.1,0.2-0.1c0,0-0.2-0.1-0.4-0.1
			c-0.2,0-0.2,0-0.3,0.1c0,0,0.2-0.1,0.1-0.1c-0.2,0-0.5,0.2-0.7,0.3c0,0,0,0,0-0.1c-0.1,0-0.4,0.2-0.4,0.4c0,0,0-0.1,0-0.1
			c-0.1,0.1-0.2,0.1-0.2,0.2l0,0c-0.6-0.2-1.1-0.3-1.6-0.2c-0.1-0.1-0.1,0-0.4-0.5c0,0,0,0,0,0c0-0.1,0,0.1,0,0
			c-0.4,0.3-0.9,0.6-1.1,0.9c0,0,0.3-0.1,0,0C52,14.9,52,15,52,15.5c0,0,0,0.1,0,0.1c-0.2,0.2-0.3,0.4-0.4,0.6
			c-0.2,0.4-0.5,1.1-0.8,2.1c0.1-0.3,0.3-0.6,0.4-0.8c-0.2,0.6-0.4,1.4-0.5,2.8c0.1-0.3,0.1-0.6,0.2-0.8c-0.1,1.1,0.1,2.2,0.6,3.3
			c0.2,0.4,0.4,0.9,0.8,1.6c1.3,1.4,3.2,2.3,5.3,2.3C59.9,26.5,61.8,25.6,63.2,24.1z"/>
		
			<radialGradient id="SVGID_4_" cx="1" cy="1081" r="1" gradientTransform="matrix(5.29 0.5338 0.4937 -4.8929 -472.8421 5310.0078)" gradientUnits="userSpaceOnUse">
			<stop  offset="3.000000e-03" style="stop-color:#FEE900"/>
			<stop  offset="0.497" style="stop-color:#EE3435"/>
			<stop  offset="1" style="stop-color:#C52783"/>
		</radialGradient>
		<path class="st87" d="M61.6,25.1c2.6-0.3,3.8-3,2.3-3.1C62.5,22,60.3,25.2,61.6,25.1z"/>
		
			<radialGradient id="SVGID_5_" cx="1" cy="1081" r="1" gradientTransform="matrix(8.8338 0.8914 1.6344 -16.198 -1709.4583 17525.3047)" gradientUnits="userSpaceOnUse">
			<stop  offset="3.000000e-03" style="stop-color:#FEE800"/>
			<stop  offset="0.157" style="stop-color:#FCAF17"/>
			<stop  offset="0.316" style="stop-color:#F47925"/>
			<stop  offset="0.472" style="stop-color:#F0522F"/>
			<stop  offset="0.621" style="stop-color:#EF3835"/>
			<stop  offset="0.762" style="stop-color:#EE273C"/>
			<stop  offset="0.892" style="stop-color:#EE223F"/>
			<stop  offset="1" style="stop-color:#EE2040"/>
		</radialGradient>
		<path class="st88" d="M64.1,21.4c1.8-1.1,1.3-3.4,1.3-3.4s-0.7,0.8-1.2,2.1C63.8,21.5,63,22.1,64.1,21.4z"/>
		
			<radialGradient id="SVGID_6_" cx="1" cy="1081" r="1" gradientTransform="matrix(8.106 0.8179 0.4474 -4.4339 -425.1351 4816.729)" gradientUnits="userSpaceOnUse">
			<stop  offset="3.000000e-03" style="stop-color:#EE3435"/>
			<stop  offset="0.497" style="stop-color:#C52783"/>
			<stop  offset="0.986" style="stop-color:#60120C"/>
		</radialGradient>
		<path class="st89" d="M58.3,26.4c2.5,0.8,4.7-1.2,3.4-1.9C60.4,24,57.1,26.1,58.3,26.4z"/>
		
			<radialGradient id="SVGID_7_" cx="1" cy="1081" r="1" gradientTransform="matrix(9.9076 0 0 -10.3261 53.7056 11179.9219)" gradientUnits="userSpaceOnUse">
			<stop  offset="0" style="stop-color:#FEE900"/>
			<stop  offset="0.231" style="stop-color:#FEDE00"/>
			<stop  offset="0.365" style="stop-color:#FEBF10"/>
			<stop  offset="0.541" style="stop-color:#F78E1E"/>
			<stop  offset="0.763" style="stop-color:#EE3435"/>
			<stop  offset="0.796" style="stop-color:#EE2E39"/>
			<stop  offset="0.841" style="stop-color:#E73F25"/>
			<stop  offset="0.893" style="stop-color:#CD6028"/>
			<stop  offset="1" style="stop-color:#F15F22"/>
		</radialGradient>
		<path class="st90" d="M64.3,22.4c0.1-0.1,0.1-0.4,0.2-0.5c0.4-0.7,0.5-1.3,0.5-1.3c0.3-1.4,0.2-1.9,0.1-2.9
			c-0.1-0.8-0.7-2-1.2-2.6c-0.5-0.6-0.2-0.4-0.7-0.8c-0.4-0.5-0.9-1-1.1-1.2c-1.7-1.4-1.7-1.7-1.6-1.8c0,0,0,0,0,0
			c0-0.1,0-0.1,0-0.1s-0.9,0.9-1.1,2.5c-0.1,1,0.3,2.1,0.8,2.7c0.3,0.3,0.6,0.7,1,0.9v0c0.4,0.6,0.6,1.3,0.6,2.1
			c0,2-1.6,3.6-3.6,3.6c-0.3,0-0.5,0-0.8-0.1c-0.9-0.2-1.5-0.6-1.7-1c-0.2-0.2-0.2-0.3-0.2-0.3c0.8,0.3,1.8,0.2,2.3-0.1
			c0.6-0.3,0.9-0.5,1.2-0.5c0.3,0.1,0.5-0.2,0.3-0.4c-0.2-0.3-0.7-0.7-1.4-0.6c-0.6,0.1-1.1,0.5-1.8,0.1c0,0-0.1-0.1-0.1-0.1
			c0,0,0.2,0,0.1,0c-0.1-0.1-0.4-0.2-0.5-0.3c0,0,0.1,0,0.1,0c-0.7-0.5-0.6-0.9-0.6-1.1c0-0.2,0.1-0.4,0.4-0.5
			c0.1,0.1,0.2,0.1,0.2,0.1s0-0.1-0.1-0.1c0,0,0,0,0,0c0.1,0,0.3,0.1,0.4,0.2c0.1,0.1,0.2,0.2,0.2,0.2s0,0,0-0.1c0,0,0-0.1-0.2-0.2
			l0,0c0.1,0,0.1,0.1,0.2,0.1c0-0.1,0.1-0.2,0.1-0.5c0-0.2,0-0.2,0-0.3c0-0.1,0-0.1,0.1,0c0,0,0-0.1,0-0.1l0,0
			c0.1-0.2,1.2-0.7,1.3-0.7c0.1-0.1,0.3-0.2,0.3-0.3c0.1-0.1,0.1-0.2,0.1-0.4c0-0.1,0-0.2-0.3-0.2c-0.2,0-0.5-0.1-0.9-0.1
			c-0.3,0-0.5-0.2-0.6-0.4c0,0,0-0.1-0.1-0.1c0,0,0-0.1,0-0.1c0.2-0.5,0.5-0.9,1-1.2c0,0-0.1,0-0.1,0c0,0,0.2-0.1,0.3-0.1
			c0,0-0.2-0.1-0.4-0.1c-0.2,0-0.3,0-0.4,0.1c0,0,0.2-0.1,0.2-0.1c-0.2,0-0.5,0.2-0.8,0.3c0,0,0,0,0-0.1c-0.1,0-0.4,0.2-0.5,0.4
			c0,0,0-0.1,0-0.1c-0.1,0.1-0.2,0.1-0.2,0.2l0,0c-0.7-0.2-1.3-0.3-1.8-0.1c-0.1-0.1-0.3-0.2-0.5-0.7c0,0,0,0.1,0,0
			c-0.1-0.2-0.2-0.6-0.1-0.8c0,0-0.2,0.1-0.4,0.5c0,0.1-0.1,0.1-0.1,0.1c0,0,0-0.1,0-0.1c0,0-0.1,0.1-0.1,0.2c0,0.1-0.1,0.1-0.1,0.2
			l0,0c0,0,0-0.1,0-0.1c-0.1,0.2-0.1,0.3-0.2,0.5c-0.1,0.3-0.2,0.7-0.2,1.2c0,0,0,0.1,0,0.1c-0.2,0.2-0.4,0.4-0.4,0.6
			c-0.3,0.4-0.6,1.1-0.9,2.1c0.1-0.3,0.3-0.6,0.5-0.8C50.3,17.8,50,18.6,50,20c0.1-0.3,0.1-0.5,0.2-0.8c0,0.9,0.1,2,0.6,3.2
			c0.3,0.7,1.1,2.2,3,3.4l0,0c0,0,0.6,0.5,1.7,0.8c0.1,0,0.2,0.1,0.2,0.1c0,0-0.1,0-0.1,0c0.7,0.2,1.5,0.3,2.3,0.3
			c2.8,0,3.7-1.1,3.7-1.1s0,0,0,0c0,0,0.1-0.1,0.1-0.1c-0.4,0.4-1.5,0.5-1.9,0.4c0.7-0.2,1.1-0.4,1.9-0.7c0.1,0,0.2-0.1,0.3-0.1
			c0,0,0,0,0,0c0,0,0,0,0.1,0c0.4-0.2,0.8-0.4,1.1-0.7c0.8-0.7,1-1.3,1.1-1.8c0,0-0.1,0.1-0.1,0.2c-0.2,0.5-0.7,0.7-1.2,1
			c0.2-0.3,0.5-0.7,0.7-1C64.1,22.9,64.1,22.6,64.3,22.4z"/>
		
			<radialGradient id="SVGID_8_" cx="1" cy="1081" r="1" gradientTransform="matrix(15.0181 0 0 -37.8782 45.6541 40957.3555)" gradientUnits="userSpaceOnUse">
			<stop  offset="0.279" style="stop-color:#FEE900"/>
			<stop  offset="0.402" style="stop-color:#FEDC00"/>
			<stop  offset="0.63" style="stop-color:#FDBA12"/>
			<stop  offset="0.856" style="stop-color:#F7911E"/>
			<stop  offset="0.933" style="stop-color:#F26822"/>
			<stop  offset="0.994" style="stop-color:#F04F29"/>
		</radialGradient>
		<path class="st91" d="M63.2,24c0.3-0.4,0.7-0.8,0.9-1.3c0.6-1.3,1.5-3.4,0.8-5.5c-0.6-1.7-1.4-2.7-2.4-3.6
			c-1.6-1.5-2.1-2.2-2.1-2.6c0,0-1.9,2.1-1.1,4.3c0.8,2.2,2.5,2.1,3.6,4.4c1.3,2.7-1.1,5.6-3,6.5c0.1,0,4.3-1,4.6-3.4
			C64.5,22.8,64.4,23.5,63.2,24z"/>
		
			<linearGradient id="SVGID_9_" gradientUnits="userSpaceOnUse" x1="52.9103" y1="1065.246" x2="58.7143" y2="1065.9176" gradientTransform="matrix(1 0 0 -1 0 1082)">
			<stop  offset="0" style="stop-color:#C52783;stop-opacity:0.5"/>
			<stop  offset="0.474" style="stop-color:#EE3435;stop-opacity:0.5"/>
			<stop  offset="0.486" style="stop-color:#EF3733;stop-opacity:0.513"/>
			<stop  offset="0.675" style="stop-color:#F47924;stop-opacity:0.72"/>
			<stop  offset="0.829" style="stop-color:#FCB216;stop-opacity:0.871"/>
			<stop  offset="0.942" style="stop-color:#FED604;stop-opacity:0.964"/>
			<stop  offset="1" style="stop-color:#FFE300"/>
		</linearGradient>
		<path class="st92" d="M57.8,16.2c0-0.1-0.1-0.2-1.2-0.3c-0.5,0-0.7-0.5-0.7-0.7c-0.2,0.4-0.2,0.9-0.2,1.5c0,0.4,0.3,0.8,0.4,1
			c0,0,0,0,0,0c0.2-0.2,1.2-0.6,1.3-0.6C57.4,16.9,57.7,16.6,57.8,16.2z"/>
		
			<linearGradient id="SVGID_10_" gradientUnits="userSpaceOnUse" x1="52.5221" y1="1066.8892" x2="51.2936" y2="1068.8884" gradientTransform="matrix(1 0 0 -1 0 1082)">
			<stop  offset="0" style="stop-color:#891B53;stop-opacity:0.6"/>
			<stop  offset="1" style="stop-color:#C52783;stop-opacity:1.000000e-02"/>
		</linearGradient>
		<path class="st93" d="M52.6,13.5C52.6,13.5,52.5,13.6,52.6,13.5c-0.1-0.2-0.2-0.6-0.2-0.8c0,0-0.2,0.1-0.4,0.5
			c0,0.1-0.1,0.1-0.1,0.1c0,0,0-0.1,0-0.1c0,0-0.1,0.1-0.1,0.2c0,0.1-0.1,0.1-0.1,0.2c0,0,0-0.1,0-0.1c-0.4,0.7-0.5,1.9-0.4,1.8
			c0.8-0.9,1.8-1.1,1.8-1.1C53,14.2,52.8,14,52.6,13.5L52.6,13.5z"/>
		
			<linearGradient id="SVGID_11_" gradientUnits="userSpaceOnUse" x1="53.2818" y1="1062.9779" x2="55.041" y2="1061.6321" gradientTransform="matrix(1 0 0 -1 0 1082)">
			<stop  offset="5.000000e-03" style="stop-color:#891B53;stop-opacity:0.5"/>
			<stop  offset="0.484" style="stop-color:#EE3435;stop-opacity:0.5"/>
			<stop  offset="1" style="stop-color:#EE3435;stop-opacity:1.000000e-02"/>
		</linearGradient>
		<path class="st94" d="M55.7,22.7c-1.1-0.5-2.4-1.2-2.4-2.7c0.1-2,1.9-1.6,1.9-1.6c-0.1,0-0.3,0.1-0.3,0.3c-0.1,0.2-0.2,0.6,0.2,1
			c0.6,0.7-1.2,1.6,1.6,3.2C56.8,22.9,56,22.9,55.7,22.7L55.7,22.7z"/>
		
			<linearGradient id="SVGID_12_" gradientUnits="userSpaceOnUse" x1="56.2713" y1="1060.0779" x2="56.2862" y2="1061.2889" gradientTransform="matrix(1 0 0 -1 0 1082)">
			<stop  offset="0" style="stop-color:#C52783"/>
			<stop  offset="8.299999e-02" style="stop-color:#C52783;stop-opacity:0.81"/>
			<stop  offset="0.206" style="stop-color:#C52783;stop-opacity:0.565"/>
			<stop  offset="0.328" style="stop-color:#C52783;stop-opacity:0.362"/>
			<stop  offset="0.447" style="stop-color:#C52783;stop-opacity:0.204"/>
			<stop  offset="0.562" style="stop-color:#C52783;stop-opacity:9.100000e-02"/>
			<stop  offset="0.673" style="stop-color:#C52783;stop-opacity:2.300000e-02"/>
			<stop  offset="0.773" style="stop-color:#C52783;stop-opacity:1.000000e-02"/>
		</linearGradient>
		<path class="st95" d="M55.3,21.7c0.8,0.3,1.7,0.2,2.3-0.1c0.4-0.2,0.9-0.5,1.2-0.5C58.5,21,58.3,21,58.1,21c0,0-0.1,0-0.1,0
			c-0.1,0-0.2,0-0.3,0c-0.1,0-0.3,0.1-0.5,0.1c0,0,0.1-0.1,0.1-0.1c-0.1,0-0.2,0-0.3,0c-0.1,0-0.1,0-0.2,0c-1.7,0.1-3.1-0.9-3.1-0.9
			C53.7,20.6,54.4,21.4,55.3,21.7L55.3,21.7z"/>
		
			<linearGradient id="SVGID_13_" gradientUnits="userSpaceOnUse" x1="58.0446" y1="1066.0242" x2="66.3831" y2="1062.1378" gradientTransform="matrix(1 0 0 -1 0 1082)">
			<stop  offset="0" style="stop-color:#FEF053"/>
			<stop  offset="0.268" style="stop-color:#FEEE4D"/>
			<stop  offset="0.452" style="stop-color:#FEE645"/>
			<stop  offset="0.612" style="stop-color:#FFD837"/>
			<stop  offset="0.757" style="stop-color:#FFC523"/>
			<stop  offset="0.892" style="stop-color:#FBAA19"/>
			<stop  offset="0.902" style="stop-color:#FBA919"/>
			<stop  offset="0.949" style="stop-color:#F9A01B"/>
			<stop  offset="1" style="stop-color:#F7911E"/>
		</linearGradient>
		<path class="st96" d="M63.2,24c1.7-1.7,2.6-3.7,2.2-6c0,0,0.1,1.2-0.4,2.4c0.3-1.2,0.3-2.6-0.4-4.1c-0.9-2-2.5-3-3.1-3.5
			c-0.9-0.7-1.3-1.3-1.3-1.5c-0.3,0.5-1.1,2.4-0.1,4c0.9,1.5,2.4,2,3.4,3.3C65.5,21.3,63.2,24,63.2,24z"/>
		
			<linearGradient id="SVGID_14_" gradientUnits="userSpaceOnUse" x1="61.2154" y1="1063.9626" x2="58.6849" y2="1057.7128" gradientTransform="matrix(1 0 0 -1 0 1082)">
			<stop  offset="0" style="stop-color:#F78E1E"/>
			<stop  offset="4.000000e-02" style="stop-color:#F78E1E;stop-opacity:0.858"/>
			<stop  offset="8.400000e-02" style="stop-color:#F78E1E;stop-opacity:0.729"/>
			<stop  offset="0.13" style="stop-color:#F78E1E;stop-opacity:0.628"/>
			<stop  offset="0.178" style="stop-color:#F78E1E;stop-opacity:0.557"/>
			<stop  offset="0.227" style="stop-color:#F78E1E;stop-opacity:0.514"/>
			<stop  offset="0.282" style="stop-color:#F78E1E;stop-opacity:0.5"/>
			<stop  offset="0.389" style="stop-color:#F78E1E;stop-opacity:0.478"/>
			<stop  offset="0.524" style="stop-color:#F78E1E;stop-opacity:0.416"/>
			<stop  offset="0.676" style="stop-color:#F78E1E;stop-opacity:0.314"/>
			<stop  offset="0.838" style="stop-color:#F78E1E;stop-opacity:0.172"/>
			<stop  offset="1" style="stop-color:#F78E1E;stop-opacity:1.000000e-02"/>
		</linearGradient>
		<path class="st97" d="M63,19.7c-0.6-1.2-1.3-1.8-2-2.3c0.1,0.1,0.1,0.2,0.1,0.2c0.6,0.7,1.5,2.3,0.9,4.3c-1.2,3.8-6.2,2-6.7,1.5
			c0.2,2.2,3.9,3.2,6.3,1.8C62.9,23.9,64,21.7,63,19.7z"/>
	</g>
	<rect x="41" y="2" class="st98" width="224" height="2"/>
	<rect x="40" y="2" class="st78" width="1" height="33"/>
</g>
</svg>
