
<!-- Generator: Element Pack Addon  -->
<svg version="1.1" id="iMac_24_Blue" xmlns="http://www.w3.org/2000/svg" xmlns:xlink="http://www.w3.org/1999/xlink" x="0px"
	 y="0px" viewBox="0 0 4108 3466.2" style="enable-background:new 0 0 4108 3466.2;" xml:space="preserve">
<style type="text/css">
	.st0{fill:url(#shape_1_);}
	.st1{fill:url(#shape-2_1_);}
	.st2{fill:url(#shape-3_1_);}
	.st3{fill:url(#shape-4_1_);}
	.st4{fill:#F4F4F4;}
	.st5{fill:#EFEFEF;}
	.st6{fill:#ECEEF2;}
	.st7{fill:url(#shape-8_1_);}
	.st8{fill:url(#shape-10_1_);}
	.st9{fill:#BFBFBF;}
	.st10{fill:#101010;}
	.st11{fill:url(#Forma-3_1_);}
</style>
<linearGradient id="shape_1_" gradientUnits="userSpaceOnUse" x1="1967.6288" y1="1804.9147" x2="1967.6288" y2="1805.5087" gradientTransform="matrix(1055.9 0 0 -1009.6 -2075565.25 1825654.75)">
	<stop  offset="0" style="stop-color:#43556B"/>
	<stop  offset="3.100000e-02" style="stop-color:#CADCEC"/>
	<stop  offset="6.700000e-02" style="stop-color:#9BADBD"/>
	<stop  offset="0.55" style="stop-color:#AEC3D6"/>
	<stop  offset="1" style="stop-color:#91A5B7"/>
</linearGradient>
<rect id="shape" x="1526" y="2407.3" class="st0" width="1055.9" height="1009.6"/>
<linearGradient id="shape-2_1_" gradientUnits="userSpaceOnUse" x1="1951.7227" y1="1996.9268" x2="1951.7227" y2="1995.9268" gradientTransform="matrix(137 0 0 -10 -265777.5 23425.4668)">
	<stop  offset="0" style="stop-color:#94AABD"/>
	<stop  offset="1" style="stop-color:#DBE4ED"/>
</linearGradient>
<rect id="shape-2" x="1540" y="3456.2" class="st1" width="137" height="10"/>
<linearGradient id="shape-3_1_" gradientUnits="userSpaceOnUse" x1="1951.7227" y1="1996.9268" x2="1951.7227" y2="1995.9268" gradientTransform="matrix(137 0 0 -10 -264885.5 23425.4668)">
	<stop  offset="0" style="stop-color:#94AABD"/>
	<stop  offset="1" style="stop-color:#DBE4ED"/>
</linearGradient>
<rect id="shape-3" x="2432" y="3456.2" class="st2" width="137" height="10"/>
<linearGradient id="shape-4_1_" gradientUnits="userSpaceOnUse" x1="1967.1288" y1="1849.4349" x2="1968.1288" y2="1849.4349" gradientTransform="matrix(1055.9 0 0 -42 -2075565.25 81114.1641)">
	<stop  offset="0" style="stop-color:#B6C6D5"/>
	<stop  offset="3.000000e-02" style="stop-color:#7A8A9F"/>
	<stop  offset="6.500000e-02" style="stop-color:#CCE0F4"/>
	<stop  offset="0.105" style="stop-color:#AABACB"/>
	<stop  offset="0.893" style="stop-color:#A6B9CB"/>
	<stop  offset="0.936" style="stop-color:#CFE3F7"/>
	<stop  offset="0.972" style="stop-color:#77879A"/>
	<stop  offset="1" style="stop-color:#B6C6D5"/>
</linearGradient>
<rect id="shape-4" x="1526" y="3416.9" class="st3" width="1055.9" height="42"/>
<path id="shape-5" class="st4" d="M63.5,0H4049c32.6,0,59,26.4,59,59c0,0,0,0,0,0v2348H0.5V63C0.5,28.2,28.7,0,63.5,0
	C63.5,0,63.5,0,63.5,0z"/>
<path id="shape-6" class="st5" d="M4106,2407H2c-1.1,0-2-0.9-2-2V63C0.1,28.2,28.2,0.1,63,0h3986c32.6,0.1,58.9,26.4,59,59v2346
	C4108,2406.1,4107.1,2407,4106,2407z M63,2C29.3,2.1,2.1,29.3,2,63v2342h4104V59c-0.1-31.5-25.5-56.9-57-57H63z"/>
<path id="shape-7" class="st6" d="M65,7.7h3981.5c29.8,0,54,24.2,54,54l0,0V2403H8V64.7C8,33.2,33.5,7.7,65,7.7
	C65,7.7,65,7.7,65,7.7z"/>
<linearGradient id="shape-8_1_" gradientUnits="userSpaceOnUse" x1="1969.3905" y1="1808.6714" x2="1969.3905" y2="1807.6714" gradientTransform="matrix(4108 0 0 -413 -8088202 749384.25)">
	<stop  offset="0" style="stop-color:#BDD3E7"/>
	<stop  offset="1" style="stop-color:#98AFC4"/>
</linearGradient>
<path id="shape-8" class="st7" d="M0,2403h4108v352c0,33.7-27.4,61-61.1,61H61.1c-33.7,0-61-27.3-61.1-61V2403z"/>
<linearGradient id="shape-10_1_" gradientUnits="userSpaceOnUse" x1="1969.8811" y1="1808.252" x2="1968.8882" y2="1808.252" gradientTransform="matrix(4092.5 0 0 -406 -8057667 736756.25)">
	<stop  offset="0" style="stop-color:#B2C9DC"/>
	<stop  offset="1" style="stop-color:#AEC7D9"/>
</linearGradient>
<path id="shape-10" class="st8" d="M8,2403h4092.5v348c0,32-26,58-58,58H66c-32,0-58-26-58-58l0,0V2403z"/>
<circle id="Forma" class="st9" cx="2109" cy="44.5" r="3.5"/>
<g id="_1" transform="translate(-4687)">
	<circle id="Forma-2" class="st10" cx="6741.5" cy="44" r="15"/>
	
		<radialGradient id="Forma-3_1_" cx="6500.5" cy="1924.0792" r="0.5" gradientTransform="matrix(16 0 0 -16 -97266.5 30829.2676)" gradientUnits="userSpaceOnUse">
		<stop  offset="0" style="stop-color:#3A6698"/>
		<stop  offset="1" style="stop-color:#000000"/>
	</radialGradient>
	<circle id="Forma-3" class="st11" cx="6741.5" cy="44" r="8"/>
</g>
</svg>
