
<!-- Generator: Element Pack Addon  -->
<svg version="1.1" id="iMac_24_Green" xmlns="http://www.w3.org/2000/svg" xmlns:xlink="http://www.w3.org/1999/xlink" x="0px"
	 y="0px" viewBox="0 0 4108 3466.2" style="enable-background:new 0 0 4108 3466.2;" xml:space="preserve">
<style type="text/css">
	.st0{fill:url(#shape_1_);}
	.st1{fill:url(#shape-2_1_);}
	.st2{fill:url(#shape-3_1_);}
	.st3{fill:url(#shape-4_1_);}
	.st4{fill:#F4F4F4;}
	.st5{fill:#EFEFEF;}
	.st6{fill:#ECEEF2;}
	.st7{fill:url(#shape-8_1_);}
	.st8{fill:url(#shape-10_1_);}
	.st9{fill:#BFBFBF;}
	.st10{fill:#101010;}
	.st11{fill:url(#Forma-3_1_);}
</style>
<g id="iMac_24_Green-2" transform="translate(-354.5 -91)">
	<g id="Stand" transform="translate(-24.5 83)">
		
			<linearGradient id="shape_1_" gradientUnits="userSpaceOnUse" x1="2346.6287" y1="1812.9147" x2="2346.6287" y2="1813.5087" gradientTransform="matrix(1055.9 0 0 -1009.6 -2475372.25 1833739.625)">
			<stop  offset="0" style="stop-color:#4D7E73"/>
			<stop  offset="3.100000e-02" style="stop-color:#CDEDE2"/>
			<stop  offset="6.700000e-02" style="stop-color:#99C1B6"/>
			<stop  offset="0.55" style="stop-color:#ADCEC0"/>
			<stop  offset="1" style="stop-color:#8CAEA5"/>
		</linearGradient>
		<rect id="shape" x="1905" y="2415.3" class="st0" width="1055.9" height="1009.6"/>
		
			<linearGradient id="shape-2_1_" gradientUnits="userSpaceOnUse" x1="2330.7227" y1="2004.9268" x2="2330.7227" y2="2003.9268" gradientTransform="matrix(137 0 0 -10 -317321.5 23513.4668)">
			<stop  offset="0" style="stop-color:#A5C8BC"/>
			<stop  offset="1" style="stop-color:#C7E8DE"/>
		</linearGradient>
		<rect id="shape-2" x="1919" y="3464.2" class="st1" width="137" height="10"/>
		
			<linearGradient id="shape-3_1_" gradientUnits="userSpaceOnUse" x1="2330.7227" y1="2004.9268" x2="2330.7227" y2="2003.9268" gradientTransform="matrix(137 0 0 -10 -316429.5 23513.4668)">
			<stop  offset="0" style="stop-color:#A5C8BC"/>
			<stop  offset="1" style="stop-color:#C7E8DE"/>
		</linearGradient>
		<rect id="shape-3" x="2811" y="3464.2" class="st2" width="137" height="10"/>
		
			<linearGradient id="shape-4_1_" gradientUnits="userSpaceOnUse" x1="2346.1287" y1="1857.4349" x2="2347.1287" y2="1857.4349" gradientTransform="matrix(1055.9 0 0 -42 -2475372.25 81458.1641)">
			<stop  offset="0" style="stop-color:#C5ECDD"/>
			<stop  offset="3.000000e-02" style="stop-color:#7C9F93"/>
			<stop  offset="6.500000e-02" style="stop-color:#ECFCF7"/>
			<stop  offset="0.105" style="stop-color:#C2E3D9"/>
			<stop  offset="0.893" style="stop-color:#C0E4D5"/>
			<stop  offset="0.936" style="stop-color:#ECFBF4"/>
			<stop  offset="0.972" style="stop-color:#7AA393"/>
			<stop  offset="1" style="stop-color:#C8E4DE"/>
		</linearGradient>
		<rect id="shape-4" x="1905" y="3424.9" class="st3" width="1055.9" height="42"/>
	</g>
	<g id="Monitor">
		<path id="shape-5" class="st4" d="M418,91h3985.5c32.6,0,59,26.4,59,59c0,0,0,0,0,0v2348H355V154C355,119.2,383.2,91,418,91
			C418,91,418,91,418,91z"/>
		<path id="shape-6" class="st5" d="M4460.5,2498h-4104c-1.1,0-2-0.9-2-2V154c0.1-34.8,28.2-62.9,63-63h3986
			c32.6,0.1,58.9,26.4,59,59v2346C4462.5,2497.1,4461.6,2498,4460.5,2498z M417.5,93c-33.7,0.1-60.9,27.3-61,61v2342h4104V150
			c-0.1-31.5-25.5-56.9-57-57H417.5z"/>
		<path id="shape-7" class="st6" d="M419.5,98.7H4401c29.8,0,54,24.2,54,54l0,0V2494H362.5V155.7C362.5,124.2,388,98.7,419.5,98.7
			C419.5,98.7,419.5,98.7,419.5,98.7z"/>
		
			<linearGradient id="shape-8_1_" gradientUnits="userSpaceOnUse" x1="2323.8904" y1="1899.6714" x2="2323.8904" y2="1898.6714" gradientTransform="matrix(4108 0 0 -413 -9544134 787058.25)">
			<stop  offset="0" style="stop-color:#BFE0D6"/>
			<stop  offset="1" style="stop-color:#A4CCC6"/>
		</linearGradient>
		<path id="shape-8" class="st7" d="M354.5,2494h4108v352c0,33.7-27.4,61-61.1,61H415.6c-33.7,0-61-27.3-61.1-61V2494z"/>
		
			<linearGradient id="shape-10_1_" gradientUnits="userSpaceOnUse" x1="2324.3811" y1="1899.252" x2="2323.3882" y2="1899.252" gradientTransform="matrix(4092.5 0 0 -406 -9508104 773793.25)">
			<stop  offset="0" style="stop-color:#ABCCC3"/>
			<stop  offset="1" style="stop-color:#B0D4CB"/>
		</linearGradient>
		<path id="shape-10" class="st8" d="M362.5,2494H4455v348c0,32-26,58-58,58H420.5c-32,0-58-26-58-58l0,0V2494z"/>
	</g>
	<g id="Camera" transform="translate(-160)">
		<circle id="Forma" class="st9" cx="2623.5" cy="135.5" r="3.5"/>
		<g id="_1" transform="translate(-4687)">
			<circle id="Forma-2" class="st10" cx="7256" cy="135" r="15"/>
			
				<radialGradient id="Forma-3_1_" cx="7015" cy="2015.0792" r="0.5" gradientTransform="matrix(16 0 0 -16 -104984 32376.2676)" gradientUnits="userSpaceOnUse">
				<stop  offset="0" style="stop-color:#3A6698"/>
				<stop  offset="1" style="stop-color:#000000"/>
			</radialGradient>
			<circle id="Forma-3" class="st11" cx="7256" cy="135" r="8"/>
		</g>
	</g>
</g>
</svg>
