
<!-- Generator: Adobe Illustrator 19.2.1, SVG Export Plug-In . SVG Version: 6.00 Build 0)  -->
<svg version="1.1" id="Layer_1" xmlns="http://www.w3.org/2000/svg" xmlns:xlink="http://www.w3.org/1999/xlink" x="0px" y="0px"
	 viewBox="0 0 205.3 419" style="enable-background:new 0 0 205.3 419;" xml:space="preserve">
<style type="text/css">
	.st0{fill:#151616;}
	.st1{fill:none;}
	.st2{fill:url(#SVGID_1_);}
	.st3{fill:#3A4D57;}
	.st4{opacity:6.000000e-002;}
	.st5{fill:url(#SVGID_2_);}
</style>
<g id="BACKGROUND">
</g>
<g>
	<path class="st0" d="M205.3,99.4v28.8c0,0.6-0.5,1.2-1.2,1.2H203V98.3h1.1C204.8,98.3,205.3,98.8,205.3,99.4z"/>
	<path class="st0" d="M203.1,129.4v264.3c0,14-11.3,25.3-25.4,25.3H27.6c-14,0-25.4-11.3-25.4-25.3V157.5v-31.2v-7.7V87.5v-18v-9.8
		V25.3C2.2,11.3,13.6,0,27.6,0h24v6.7H28.1C17,6.7,8,15.7,8,26.8v365.5c0,11.1,9,20.1,20.1,20.1h149.1c11.1,0,20.1-9,20.1-20.1V26.8
		c0-11.1-9-20.1-20.1-20.1h-23.4V0h24c14,0,25.4,11.3,25.4,25.3v72.9v31.2H203.1z"/>
	<path class="st1" d="M197.3,26.8v365.5c0,11.1-9,20.1-20.1,20.1H28.1c-11.1,0-20.1-9-20.1-20.1V26.8C8,15.7,17,6.7,28.1,6.7h23.4
		v6.8c0,5.6,4.6,10.2,10.2,10.2h81.9c5.6,0,10.2-4.5,10.2-10.2V6.7h23.4C188.3,6.7,197.3,15.7,197.3,26.8z"/>
	<path class="st0" d="M153.7,6.7v6.8c0,5.6-4.6,10.2-10.2,10.2H61.7c-5.6,0-10.2-4.5-10.2-10.2V6.7V0h102.2V6.7z M128.2,13.9
		c0-1.2-1-2.2-2.2-2.2s-2.2,1-2.2,2.2s1,2.2,2.2,2.2S128.2,15.1,128.2,13.9z M117.3,13.9c0-1.1-0.9-2-2-2H90c-1.1,0-2,0.9-2,2
		s0.9,2,2,2h25.3C116.4,15.9,117.3,15,117.3,13.9z"/>
	<g>
		
			<linearGradient id="SVGID_1_" gradientUnits="userSpaceOnUse" x1="-7.3443" y1="19.9421" x2="212.7058" y2="401.0802" gradientTransform="matrix(1 0 0 -1 0 420)">
			<stop  offset="0" style="stop-color:#BFC1BF"/>
			<stop  offset="3.910648e-002" style="stop-color:#BDBFBD"/>
			<stop  offset="6.135572e-002" style="stop-color:#B5B6B5"/>
			<stop  offset="7.938013e-002" style="stop-color:#A7A8A7"/>
			<stop  offset="9.514090e-002" style="stop-color:#939593"/>
			<stop  offset="0.1094" style="stop-color:#7A7B7A"/>
			<stop  offset="0.1226" style="stop-color:#5B5B5B"/>
			<stop  offset="0.135" style="stop-color:#353635"/>
			<stop  offset="0.1465" style="stop-color:#0C0C0C"/>
			<stop  offset="0.1493" style="stop-color:#000000"/>
			<stop  offset="0.2055" style="stop-color:#020202"/>
			<stop  offset="0.226" style="stop-color:#090909"/>
			<stop  offset="0.2406" style="stop-color:#141514"/>
			<stop  offset="0.2525" style="stop-color:#252625"/>
			<stop  offset="0.2626" style="stop-color:#3B3C3B"/>
			<stop  offset="0.2716" style="stop-color:#565756"/>
			<stop  offset="0.2798" style="stop-color:#767776"/>
			<stop  offset="0.287" style="stop-color:#9A9C9A"/>
			<stop  offset="0.2931" style="stop-color:#BFC1BF"/>
			<stop  offset="0.5486" style="stop-color:#000000"/>
			<stop  offset="0.6065" style="stop-color:#020202"/>
			<stop  offset="0.6275" style="stop-color:#090909"/>
			<stop  offset="0.6426" style="stop-color:#141514"/>
			<stop  offset="0.6548" style="stop-color:#252625"/>
			<stop  offset="0.6652" style="stop-color:#3B3C3B"/>
			<stop  offset="0.6745" style="stop-color:#565756"/>
			<stop  offset="0.6829" style="stop-color:#767776"/>
			<stop  offset="0.6903" style="stop-color:#9A9C9A"/>
			<stop  offset="0.6966" style="stop-color:#BFC1BF"/>
			<stop  offset="0.8746" style="stop-color:#000000"/>
			<stop  offset="0.8925" style="stop-color:#040404"/>
			<stop  offset="0.9106" style="stop-color:#101010"/>
			<stop  offset="0.9288" style="stop-color:#242424"/>
			<stop  offset="0.947" style="stop-color:#404140"/>
			<stop  offset="0.9652" style="stop-color:#646564"/>
			<stop  offset="0.9832" style="stop-color:#909190"/>
			<stop  offset="1" style="stop-color:#BFC1BF"/>
		</linearGradient>
		<path class="st2" d="M175.8,417.4H29.5c-14.2,0-25.7-11.7-25.7-26V27.6c0-14.4,11.5-26,25.7-26h146.4c14.2,0,25.7,11.7,25.7,26
			v363.8C201.6,405.7,190,417.4,175.8,417.4z M29.5,3.6c-13.1,0-23.7,10.8-23.7,24v363.8c0,13.3,10.6,24,23.7,24h146.4
			c13.1,0,23.7-10.8,23.7-24V27.6c0-13.3-10.6-24-23.7-24C175.9,3.6,29.5,3.6,29.5,3.6z"/>
	</g>
	<path class="st3" d="M126,11.7c1.2,0,2.2,1,2.2,2.2s-1,2.2-2.2,2.2s-2.2-1-2.2-2.2S124.8,11.7,126,11.7z"/>
	<path class="st3" d="M115.3,12c1.1,0,2,0.9,2,2s-0.9,2-2,2H90c-1.1,0-2-0.9-2-2s0.9-2,2-2H115.3z"/>
	<path class="st0" d="M2.2,126.3v31.2h-1c-0.6,0-1.2-0.5-1.2-1.2v-28.8c0-0.6,0.5-1.2,1.2-1.2H2.2z"/>
	<path class="st0" d="M2.2,87.5v31.2h-1c-0.6,0-1.2-0.5-1.2-1.2V88.6c0-0.6,0.5-1.2,1.2-1.2L2.2,87.5L2.2,87.5z"/>
	<path class="st0" d="M2.2,59.6v9.8h-1c-0.6,0-1.2-0.5-1.2-1.2v-7.5c0-0.6,0.5-1.2,1.2-1.2L2.2,59.6L2.2,59.6z"/>
	<g>
		<g>
			<rect x="197.3" y="37.9" class="st0" width="5.8" height="2.9"/>
			<rect x="2.2" y="37.9" class="st0" width="5.8" height="2.9"/>
		</g>
		<g>
			<rect x="197.3" y="378.2" class="st0" width="5.8" height="2.9"/>
			<rect x="2.2" y="378.2" class="st0" width="5.8" height="2.9"/>
		</g>
	</g>
	<g class="st4">
		
			<linearGradient id="SVGID_2_" gradientUnits="userSpaceOnUse" x1="21.1623" y1="414.1718" x2="90.8627" y2="242.8249" gradientTransform="matrix(1 0 0 -1 0 420)">
			<stop  offset="0" style="stop-color:#6F6E6E"/>
			<stop  offset="1" style="stop-color:#000000"/>
		</linearGradient>
		<path class="st5" d="M49.2,13.5V9H28.1c-4.9,0-9.3,2-12.6,5.2c-3.2,3.2-5.2,7.6-5.2,12.6v209.3L133.9,26H61.7
			C54.8,26,49.2,20.4,49.2,13.5z"/>
	</g>
	<g id="Designed_By_Freepik">
	</g>
</g>
</svg>
