<svg class="large-notch" version="1.1" xmlns="http://www.w3.org/2000/svg" xmlns:xlink="http://www.w3.org/1999/xlink" x="0px" y="0px"
	 viewBox="0 0 52.9 7" style="enable-background:new 0 0 52.9 7;" xml:space="preserve">
<path class="bdt-ds-color-1" d="M0.3,0c1.1,0,2,0.9,2,2c0,2.7,2.2,5,5,5h38.6c2.7,0,5-2.2,5-5c0-1.1,0.9-2,2-2H53v0C35.3,0,17.6,0,0,0v0H0.3z"/>
<path class="bdt-ds-color-2" d="M32.8,2.4H22c-0.4,0-0.7-0.3-0.7-0.7l0,0C21.3,1.3,21.6,1,22,1h10.8c0.4,0,0.7,0.3,0.7,0.7l0,0
	C33.6,2,33.2,2.4,32.8,2.4z"/>
<path class="bdt-ds-color-2" d="M39.9,1.6c0,0.6-0.5,1.1-1.1,1.1s-1.1-0.5-1.1-1.1s0.5-1.1,1.1-1.1C39.4,0.5,39.9,1,39.9,1.6z"/>
</svg>
