<!-- Generator: Element Pack Addon  -->
<svg version="1.1" xmlns="http://www.w3.org/2000/svg" xmlns:xlink="http://www.w3.org/1999/xlink" x="0px" y="0px"
	 viewBox="0 0 103.3 205.4" style="enable-background:new 0 0 103.3 205.4;" xml:space="preserve">

<g class="bdt-ds-buttons">
	<path class="bdt-ds-color-1" d="M0.4,35.7c0.1,0,0.2,0.1,0.3,0.1c0.2,0.1,0.3,0.1,0.5,0.1c0.3,0,0.5-0.2,0.5-0.6
		c0-0.3,0-0.6,0-0.9c0-1.8,0-3.6,0-5.3c0-0.2,0-0.5,0-0.7c0-0.4-0.2-0.5-0.5-0.6c-0.2,0-0.3,0-0.5,0.1c-0.1,0-0.2,0.1-0.3,0.1
		C0.1,28.1,0,28.4,0,28.6c0,2.1,0,4.1,0,6.2C0.1,35.2,0.1,35.5,0.4,35.7z"/>
	<path class="bdt-ds-color-1" d="M0.4,56.8c0.1,0.1,0.2,0.1,0.3,0.2c0.2,0.1,0.3,0.2,0.5,0.1c0.3,0,0.5-0.3,0.5-1
		c0-0.5,0-1,0-1.5c0-3.2,0-6.4,0-9.6c0-0.4,0-0.8,0-1.3c0-0.7-0.2-1-0.5-1c-0.2,0-0.3,0.1-0.5,0.1c-0.1,0.1-0.2,0.1-0.3,0.2
		C0.1,43.2,0,43.3,0,43.8c0,3.9,0,7.9,0,11.8C0.1,56.3,0.1,56.6,0.4,56.8z"/>
	<path class="bdt-ds-color-1" d="M102.8,47.1c-0.1-0.1-0.2-0.1-0.3-0.2c-0.2-0.1-0.3-0.2-0.5-0.1c-0.3,0-0.5,0.3-0.5,1
		c0,0.5,0,1,0,1.5c0,3.2,0,6.4,0,9.6c0,0.4,0,10.6,0,11c0,0.7,0.2,1,0.5,1c0.2,0,0.3-0.1,0.5-0.1c0.1-0.1,0.2-0.1,0.3-0.2
		c0.3-0.2,0.4-0.3,0.4-0.8c0-3.9,0-17.6,0-21.6C103.2,47.6,103.2,47.4,102.8,47.1z"/>
	<path class="bdt-ds-color-1" d="M0.4,75.8c0.1,0.1,0.2,0.1,0.3,0.2c0.2,0.1,0.3,0.2,0.5,0.1c0.3,0,0.5-0.3,0.5-1.1
		c0-0.5,0-1.1,0-1.6c0-3.4,0-6.7,0-10.1c0-0.4,0-0.9,0-1.3c0-0.8-0.2-1-0.5-1.1C1,60.9,0.9,61,0.7,61c-0.1,0.1-0.2,0.1-0.3,0.2
		C0.1,61.4,0,61.5,0,62c0,4.1,0,8.3,0,12.4C0.1,75.3,0.1,75.6,0.4,75.8z"/>
</g>
<g class="bdt-ds-notch">
	<path class="bdt-ds-color-1" d="M77.9,5.6L77.9,5.6c-1.2,0-2.2,1-2.2,2.2c0,2.6-2.1,4.7-4.7,4.7H32.3c-2.6,0-4.7-2.1-4.7-4.7
		c0-1.2-1-2.2-2.2-2.2V4.8h52.4V5.6z"/>
	<path class="bdt-ds-color-2" d="M57.9,8.1H47.1c-0.4,0-0.7-0.3-0.7-0.7l0,0c0-0.4,0.3-0.7,0.7-0.7h10.8c0.4,0,0.7,0.3,0.7,0.7
		l0,0C58.7,7.7,58.3,8.1,57.9,8.1z"/>
	<path class="bdt-ds-color-2" d="M65,7.3c0,0.6-0.5,1.1-1.1,1.1c-0.6,0-1.1-0.5-1.1-1.1s0.5-1.1,1.1-1.1C64.5,6.2,65,6.7,65,7.3
		z"/>
</g>

<path class="bdt-ds-color-1" d="M102,12.5c-0.6-3.1-2.1-5.8-4.2-7.9c-0.7-0.7-1.5-1.4-2.4-1.9c-2.3-1.7-5.2-2.6-8.2-2.6c-0.3,0-0.7,0-1,0
	c-23.4,0-46.8,0-70.2,0c-1.9,0-3.7,0.3-5.3,1C9.4,1.6,8.2,2.2,7.1,3C6.5,3.5,5.9,4,5.3,4.5c-2.1,2.1-3.6,4.9-4.2,7.9
	c-0.1,1-0.2,1.9-0.2,2.8c0,24,0,47.9,0,71.9c0,34.4,0,68.8,0,103.2c0,1.3,0.2,2.7,0.5,3.9c0.4,1.5,1,2.8,1.8,4.1
	c0.6,1,1.3,1.9,2.2,2.7c0.6,0.6,1.1,1.1,1.8,1.5c1.1,0.8,2.3,1.5,3.6,1.9c1.7,0.6,3.5,1,5.3,1c23.4,0,46.8,0,70.1,0c0.3,0,0.7,0,1,0
	c3.1,0,5.9-0.9,8.3-2.5c0.9-0.6,1.6-1.2,2.4-1.9c0.8-0.8,1.5-1.7,2.2-2.7c0.8-1.3,1.4-2.6,1.8-4.1c0.3-1.2,0.5-2.6,0.5-3.9
	c0-34.4,0-68.8,0-103.2c0-24,0-47.9,0-71.9C102.3,14.3,102.2,13.4,102,12.5z M77.8,5.6H86c6,0,10.8,4.9,10.8,10.8v172.3h0.1
	c0,6-4.9,10.8-10.8,10.8H17.2c-6,0-10.8-4.9-10.8-10.8V16.4c0-6,4.9-10.8,10.8-10.8h8.2H77.8z"/>
</svg>