<!-- Generator: Element Pack Addon  -->
<svg version="1.1" id="Layer_1" xmlns="http://www.w3.org/2000/svg" xmlns:xlink="http://www.w3.org/1999/xlink" x="0px" y="0px"
	 viewBox="0 0 205.3 103.2" style="enable-background:new 0 0 205.3 103.2;" xml:space="preserve">
<g class="bdt-ds-buttons">
	<path class="bdt-ds-color-1" d="M35.6,102.8c0-0.1,0.1-0.2,0.1-0.3c0.1-0.2,0.1-0.3,0.1-0.5c0-0.3-0.2-0.5-0.6-0.5c-0.3,0-0.6,0-0.9,0c-1.8,0-3.6,0-5.3,0
		c-0.2,0-0.5,0-0.7,0c-0.4,0-0.5,0.2-0.6,0.5c0,0.2,0,0.3,0.1,0.5c0,0.1,0.1,0.2,0.1,0.3c0.1,0.3,0.4,0.4,0.6,0.4c2.1,0,4.1,0,6.2,0
		C35.1,103.1,35.4,103.1,35.6,102.8z"/>
	<path class="bdt-ds-color-1" d="M56.7,102.8c0.1-0.1,0.1-0.2,0.2-0.3c0.1-0.2,0.2-0.3,0.1-0.5c0-0.3-0.3-0.5-1-0.5c-0.5,0-1,0-1.5,0c-3.2,0-6.4,0-9.6,0
		c-0.4,0-0.8,0-1.3,0c-0.7,0-1,0.2-1,0.5c0,0.2,0.1,0.3,0.1,0.5c0.1,0.1,0.1,0.2,0.2,0.3c0.2,0.3,0.3,0.4,0.8,0.4
		c3.9,0,7.9,0,11.8,0C56.2,103.1,56.5,103.1,56.7,102.8z"/>
	<path class="bdt-ds-color-1" d="M47,0.4c-0.1,0.1-0.1,0.2-0.2,0.3c-0.1,0.2-0.2,0.3-0.1,0.5c0,0.3,0.3,0.5,1,0.5c0.5,0,1,0,1.5,0c3.2,0,6.4,0,9.6,0
		c0.4,0,10.6,0,11,0c0.7,0,1-0.2,1-0.5c0-0.2-0.1-0.3-0.1-0.5c-0.1-0.1-0.1-0.2-0.2-0.3C70.3,0.1,70.2,0,69.7,0
		c-3.9,0-17.6,0-21.6,0C47.5,0,47.3,0,47,0.4z"/>
	<path class="bdt-ds-color-1" d="M75.7,102.8c0.1-0.1,0.1-0.2,0.2-0.3c0.1-0.2,0.2-0.3,0.1-0.5c0-0.3-0.3-0.5-1.1-0.5c-0.5,0-1.1,0-1.6,0
		c-3.4,0-6.7,0-10.1,0c-0.4,0-0.9,0-1.3,0c-0.8,0-1,0.2-1.1,0.5c0,0.2,0.1,0.3,0.1,0.5c0.1,0.1,0.1,0.2,0.2,0.3
		c0.2,0.3,0.3,0.4,0.8,0.4c4.1,0,8.3,0,12.4,0C75.2,103.1,75.5,103.1,75.7,102.8z"/>
</g>
<g class="bdt-ds-notch">
	<path class="bdt-ds-color-1" d="M5.5,25.3L5.5,25.3c0,1.2,1,2.2,2.2,2.2c2.6,0,4.7,2.1,4.7,4.7v38.7c0,2.6-2.1,4.7-4.7,4.7c-1.2,0-2.2,1-2.2,2.2H4.7V25.4
		L5.5,25.3L5.5,25.3z"/>
	<path class="bdt-ds-color-2" d="M8,45.3v10.8c0,0.4-0.3,0.7-0.7,0.7l0,0c-0.4,0-0.7-0.3-0.7-0.7V45.3c0-0.4,0.3-0.7,0.7-0.7l0,0C7.6,44.5,8,44.9,8,45.3z"
		/>
	<path class="bdt-ds-color-2" d="M7.2,38.2c0.6,0,1.1,0.5,1.1,1.1s-0.5,1.1-1.1,1.1s-1.1-0.5-1.1-1.1C6.1,38.7,6.6,38.2,7.2,38.2z"/>
</g>
<path class="bdt-ds-color-1" d="M12.4,1.2C9.3,1.8,6.6,3.3,4.5,5.4C3.8,6.1,3.1,6.9,2.6,7.8C0.9,10.1,0,13,0,16c0,0.3,0,0.7,0,1c0,23.4,0,46.8,0,70.2
	c0,1.9,0.3,3.7,1,5.3c0.5,1.3,1.1,2.5,1.9,3.6c0.5,0.6,1,1.2,1.5,1.8c2.1,2.1,4.9,3.6,7.9,4.2c1,0.1,1.9,0.2,2.8,0.2
	c24,0,47.9,0,71.9,0c34.4,0,68.8,0,103.2,0c1.3,0,2.7-0.2,3.9-0.5c1.5-0.4,2.8-1,4.1-1.8c1-0.6,1.9-1.3,2.7-2.2
	c0.6-0.6,1.1-1.1,1.5-1.8c0.8-1.1,1.5-2.3,1.9-3.6c0.6-1.7,1-3.5,1-5.3c0-23.4,0-46.8,0-70.1c0-0.3,0-0.7,0-1c0-3.1-0.9-5.9-2.5-8.3
	c-0.6-0.9-1.2-1.6-1.9-2.4c-0.8-0.8-1.7-1.5-2.7-2.2c-1.3-0.8-2.6-1.4-4.1-1.8c-1.2-0.3-2.6-0.5-3.9-0.5c-34.4,0-68.8,0-103.2,0
	c-24,0-47.9,0-71.9,0C14.2,0.9,13.3,1,12.4,1.2z M5.5,25.4v-8.2c0-6,4.9-10.8,10.8-10.8h172.3V6.3c6,0,10.8,4.9,10.8,10.8V86
	c0,6-4.9,10.8-10.8,10.8H16.3c-6,0-10.8-4.9-10.8-10.8v-8.2C5.5,77.8,5.5,25.4,5.5,25.4z"/>
</svg>
