
<!-- Generator: Element Pack Addon  -->
<svg version="1.1" id="OnePlusPhone" xmlns="http://www.w3.org/2000/svg" xmlns:xlink="http://www.w3.org/1999/xlink" x="0px" y="0px"
	 viewBox="0 0 323.9 703.7" style="enable-background:new 0 0 323.9 703.7;" xml:space="preserve">
<style type="text/css">
	.st0{fill:#231F20;}
	.st1{opacity:0.25;fill:#FFFFFF;}
	.st2{fill:url(#SVGID_1_);}
	.st3{opacity:0.4;fill:#FFFFFF;}
	.st4{fill:#353535;}
	.st5{fill:url(#SVGID_2_);}
	.st6{fill:url(#SVGID_3_);}
	.st7{fill:url(#SVGID_4_);}
	.st8{fill:url(#SVGID_5_);}
	.st9{fill:url(#SVGID_6_);}
	.st10{fill:url(#SVGID_7_);}
	.st11{fill:url(#SVGID_8_);}
	.st12{fill:url(#SVGID_9_);}
	.st13{fill:url(#SVGID_10_);}
</style>
<path class="st0" d="M286.1,0h-6.8H44.7h-6.8C14.3,0,2.1,13,2.1,36.5v6.1v624.6c0,23.5,12.2,36.5,35.7,36.5h248.3
	c23.5,0,35.7-13,35.7-36.5V42.6v-6.1C321.8,13,309.6,0,286.1,0z"/>
<path class="st1" d="M37.8,1.1h6.8h234.6h6.8c23.2,0,35.4,12.8,35.4,36.1v6.1v623.1c0,23.4-12.1,36.1-35.4,36.1H37.8
	c-23.2,0-35.4-12.8-35.4-36.1V43.7v-6.1c0-0.4,0-1.3,0-1.7C2.9,13.4,15,1.1,37.8,1.1z"/>
<path class="st1" d="M37.8,2.3h6.8h234.6h6.8c23,0,35,12.5,35,35.7v6v621.6c0,23.2-12,35.7-35,35.7H37.8c-23,0-35-12.5-35-35.7V44.9
	v-6c0-0.3,0-1.4,0-1.7C3.1,14.5,15.2,2.3,37.8,2.3z"/>
<path class="st1" d="M37.8,3.4h6.8h234.6h6.8c22.7,0,34.6,12.3,34.6,35.4v6v620.1c0,23-11.9,35.4-34.6,35.4H37.8
	c-22.7,0-34.6-12.3-34.6-35.4V46.1v-6c0-0.1,0-1.6,0-1.7C3.4,15.6,15.3,3.4,37.8,3.4z"/>
<path d="M37.8,699.1c-22.4,0-34.2-12.1-34.2-35V39.5c0-22.9,11.8-35,34.2-35h248.3c22.4,0,34.2,12.1,34.2,35v624.6
	c0,22.9-11.8,35-34.2,35H37.8z"/>
<linearGradient id="SVGID_1_" gradientUnits="userSpaceOnUse" x1="161.9632" y1="697.5916" x2="161.9632" y2="6.0838">
	<stop  offset="0" style="stop-color:#A1A1A1"/>
	<stop  offset="5.000000e-03" style="stop-color:#050505"/>
	<stop  offset="0.995" style="stop-color:#000000"/>
	<stop  offset="1" style="stop-color:#A1A1A1"/>
</linearGradient>
<path class="st2" d="M37.8,697.6c-10.7,0-18.9-2.8-24.4-8.5c-5.5-5.6-8.3-14-8.3-25V39.5c0-11,2.8-19.4,8.3-25
	c5.5-5.6,13.7-8.5,24.4-8.5h79.8l2,2.3h84.7l1.7-2.3h80c10.7,0,18.9,2.8,24.4,8.5c5.5,5.6,8.3,14,8.3,25v624.6c0,11-2.8,19.4-8.3,25
	c-5.5,5.6-13.7,8.5-24.4,8.5H37.8z"/>
<rect x="113.9" y="699.1" class="st3" width="8.3" height="4.6"/>
<rect x="201.7" y="699.1" class="st3" width="8.3" height="4.6"/>
<rect x="49.7" class="st3" width="7.7" height="4.6"/>
<rect x="267.3" class="st3" width="7.1" height="4.6"/>
<g>
	<ellipse class="st4" cx="122.2" cy="6.6" rx="1.5" ry="1"/>
	<path class="st4" d="M127,6.6c0,0.5-0.7,1-1.5,1c-0.8,0-1.5-0.4-1.5-1c0-0.5,0.7-1,1.5-1C126.3,5.7,127,6.1,127,6.6z"/>
	<path class="st4" d="M130.3,6.6c0,0.5-0.7,1-1.5,1c-0.8,0-1.5-0.4-1.5-1c0-0.5,0.7-1,1.5-1C129.7,5.7,130.3,6.1,130.3,6.6z"/>
	<path class="st4" d="M133.6,6.6c0,0.5-0.7,1-1.5,1c-0.8,0-1.5-0.4-1.5-1c0-0.5,0.7-1,1.5-1C133,5.7,133.6,6.1,133.6,6.6z"/>
	<path class="st4" d="M136.9,6.6c0,0.5-0.7,1-1.5,1c-0.8,0-1.5-0.4-1.5-1c0-0.5,0.7-1,1.5-1C136.3,5.7,136.9,6.1,136.9,6.6z"/>
	<path class="st4" d="M140.3,6.6c0,0.5-0.7,1-1.5,1c-0.8,0-1.5-0.4-1.5-1c0-0.5,0.7-1,1.5-1C139.6,5.7,140.3,6.1,140.3,6.6z"/>
	<path class="st4" d="M143.6,6.6c0,0.5-0.7,1-1.5,1c-0.8,0-1.5-0.4-1.5-1c0-0.5,0.7-1,1.5-1C142.9,5.7,143.6,6.1,143.6,6.6z"/>
	<path class="st4" d="M146.9,6.6c0,0.5-0.7,1-1.5,1c-0.8,0-1.5-0.4-1.5-1c0-0.5,0.7-1,1.5-1C146.3,5.7,146.9,6.1,146.9,6.6z"/>
	<path class="st4" d="M150.2,6.6c0,0.5-0.7,1-1.5,1s-1.5-0.4-1.5-1c0-0.5,0.7-1,1.5-1S150.2,6.1,150.2,6.6z"/>
	<path class="st4" d="M153.6,6.6c0,0.5-0.7,1-1.5,1c-0.8,0-1.5-0.4-1.5-1c0-0.5,0.7-1,1.5-1C152.9,5.7,153.6,6.1,153.6,6.6z"/>
	<path class="st4" d="M156.9,6.6c0,0.5-0.7,1-1.5,1c-0.8,0-1.5-0.4-1.5-1c0-0.5,0.7-1,1.5-1C156.2,5.7,156.9,6.1,156.9,6.6z"/>
	<ellipse class="st4" cx="158.7" cy="6.6" rx="1.5" ry="1"/>
	<path class="st4" d="M163.5,6.6c0,0.5-0.7,1-1.5,1c-0.8,0-1.5-0.4-1.5-1c0-0.5,0.7-1,1.5-1C162.9,5.7,163.5,6.1,163.5,6.6z"/>
	<path class="st4" d="M166.8,6.6c0,0.5-0.7,1-1.5,1c-0.8,0-1.5-0.4-1.5-1c0-0.5,0.7-1,1.5-1C166.2,5.7,166.8,6.1,166.8,6.6z"/>
	<path class="st4" d="M170.2,6.6c0,0.5-0.7,1-1.5,1c-0.8,0-1.5-0.4-1.5-1c0-0.5,0.7-1,1.5-1C169.5,5.7,170.2,6.1,170.2,6.6z"/>
	<path class="st4" d="M173.5,6.6c0,0.5-0.7,1-1.5,1c-0.8,0-1.5-0.4-1.5-1c0-0.5,0.7-1,1.5-1C172.8,5.7,173.5,6.1,173.5,6.6z"/>
	<path class="st4" d="M176.8,6.6c0,0.5-0.7,1-1.5,1c-0.8,0-1.5-0.4-1.5-1c0-0.5,0.7-1,1.5-1C176.2,5.7,176.8,6.1,176.8,6.6z"/>
	<path class="st4" d="M180.1,6.6c0,0.5-0.7,1-1.5,1c-0.8,0-1.5-0.4-1.5-1c0-0.5,0.7-1,1.5-1C179.5,5.7,180.1,6.1,180.1,6.6z"/>
	<path class="st4" d="M183.4,6.6c0,0.5-0.7,1-1.5,1c-0.8,0-1.5-0.4-1.5-1c0-0.5,0.7-1,1.5-1C182.8,5.7,183.4,6.1,183.4,6.6z"/>
	<path class="st4" d="M186.8,6.6c0,0.5-0.7,1-1.5,1c-0.8,0-1.5-0.4-1.5-1c0-0.5,0.7-1,1.5-1C186.1,5.7,186.8,6.1,186.8,6.6z"/>
	<path class="st4" d="M190.1,6.6c0,0.5-0.7,1-1.5,1c-0.8,0-1.5-0.4-1.5-1c0-0.5,0.7-1,1.5-1C189.4,5.7,190.1,6.1,190.1,6.6z"/>
	<path class="st4" d="M193.4,6.6c0,0.5-0.7,1-1.5,1c-0.8,0-1.5-0.4-1.5-1c0-0.5,0.7-1,1.5-1C192.8,5.7,193.4,6.1,193.4,6.6z"/>
	<path class="st4" d="M196.7,6.6c0,0.5-0.7,1-1.5,1c-0.8,0-1.5-0.4-1.5-1c0-0.5,0.7-1,1.5-1C196.1,5.7,196.7,6.1,196.7,6.6z"/>
	<path class="st4" d="M200.1,6.6c0,0.5-0.7,1-1.5,1c-0.8,0-1.5-0.4-1.5-1c0-0.5,0.7-1,1.5-1C199.4,5.7,200.1,6.1,200.1,6.6z"/>
	<path class="st4" d="M203.4,6.6c0,0.5-0.7,1-1.5,1c-0.8,0-1.5-0.4-1.5-1c0-0.5,0.7-1,1.5-1C202.7,5.7,203.4,6.1,203.4,6.6z"/>
</g>
<g>
	<linearGradient id="SVGID_2_" gradientUnits="userSpaceOnUse" x1="1.0407" y1="245.7656" x2="1.0407" y2="160.2164">
		<stop  offset="0" style="stop-color:#A6A8AB"/>
		<stop  offset="5.000000e-02" style="stop-color:#231F20"/>
		<stop  offset="0.1" style="stop-color:#58595B"/>
		<stop  offset="0.9" style="stop-color:#58595B"/>
		<stop  offset="0.95" style="stop-color:#231F20"/>
		<stop  offset="1" style="stop-color:#A6A8AB"/>
	</linearGradient>
	<path class="st5" d="M2.1,160.2H1.5c-0.8,0-1.5,0.7-1.5,1.5v82.5c0,0.8,0.7,1.5,1.5,1.5h0.6V160.2z"/>
	<linearGradient id="SVGID_3_" gradientUnits="userSpaceOnUse" x1="0.5207" y1="245.6806" x2="0.5207" y2="160.3005">
		<stop  offset="1.000000e-02" style="stop-color:#D0D2D3"/>
		<stop  offset="8.000000e-02" style="stop-color:#231F20"/>
		<stop  offset="0.115" style="stop-color:#929497"/>
		<stop  offset="0.15" style="stop-color:#E5E6E7"/>
		<stop  offset="0.85" style="stop-color:#E5E6E7"/>
		<stop  offset="0.885" style="stop-color:#929497"/>
		<stop  offset="0.92" style="stop-color:#231F20"/>
		<stop  offset="0.99" style="stop-color:#D0D2D3"/>
	</linearGradient>
	<path class="st6" d="M1,245.7v-85.4c-0.6,0.2-1,0.8-1,1.4v82.5C0,244.9,0.4,245.5,1,245.7z"/>
	<linearGradient id="SVGID_4_" gradientUnits="userSpaceOnUse" x1="0.1302" y1="244.3199" x2="0.1302" y2="161.6616">
		<stop  offset="0" style="stop-color:#808184"/>
		<stop  offset="5.000000e-02" style="stop-color:#231F20"/>
		<stop  offset="0.1" style="stop-color:#6D6E71"/>
		<stop  offset="0.9" style="stop-color:#6D6E71"/>
		<stop  offset="0.95" style="stop-color:#231F20"/>
		<stop  offset="1" style="stop-color:#808184"/>
	</linearGradient>
	<rect y="161.7" class="st7" width="0.3" height="82.7"/>
</g>
<path class="st0" d="M1.5,160.2c-0.2,0-0.3,0-0.5,0.1l0,0c0,0,0,0,0,0c-0.3,0.1-0.6,0.3-0.7,0.5c0,0,0,0,0,0
	c-0.1,0.1-0.1,0.2-0.2,0.4c0,0,0,0.1,0,0.1c0,0.1-0.1,0.2-0.1,0.4h0v0.1v82.5v0.1h0c0,0.1,0,0.2,0.1,0.4c0,0,0,0.1,0,0.1
	c0,0.1,0.1,0.3,0.2,0.4c0,0,0,0,0,0c0.2,0.2,0.4,0.4,0.7,0.5c0,0,0,0,0,0l0,0c0.2,0.1,0.3,0.1,0.5,0.1h0.6v-85.5H1.5z"/>
<g>
	
		<linearGradient id="SVGID_5_" gradientUnits="userSpaceOnUse" x1="469.304" y1="58.2405" x2="469.304" y2="5.3903" gradientTransform="matrix(-1 0 0 -1 792.1901 273.8432)">
		<stop  offset="0" style="stop-color:#A6A8AB"/>
		<stop  offset="5.000000e-02" style="stop-color:#231F20"/>
		<stop  offset="0.1" style="stop-color:#58595B"/>
		<stop  offset="0.9" style="stop-color:#58595B"/>
		<stop  offset="0.95" style="stop-color:#231F20"/>
		<stop  offset="1" style="stop-color:#A6A8AB"/>
	</linearGradient>
	<path class="st8" d="M321.8,268.5h0.6c0.8,0,1.5-0.7,1.5-1.5v-49.8c0-0.8-0.7-1.5-1.5-1.5h-0.6V268.5z"/>
	
		<linearGradient id="SVGID_6_" gradientUnits="userSpaceOnUse" x1="468.7845" y1="58.156" x2="468.7845" y2="5.4749" gradientTransform="matrix(-1 0 0 -1 792.1901 273.8432)">
		<stop  offset="1.000000e-02" style="stop-color:#D0D2D3"/>
		<stop  offset="8.000000e-02" style="stop-color:#231F20"/>
		<stop  offset="0.115" style="stop-color:#929497"/>
		<stop  offset="0.15" style="stop-color:#E5E6E7"/>
		<stop  offset="0.85" style="stop-color:#E5E6E7"/>
		<stop  offset="0.885" style="stop-color:#929497"/>
		<stop  offset="0.92" style="stop-color:#231F20"/>
		<stop  offset="0.99" style="stop-color:#D0D2D3"/>
	</linearGradient>
	<path class="st9" d="M322.9,215.7v52.7c0.6-0.2,1-0.8,1-1.4v-49.8C323.9,216.5,323.5,215.9,322.9,215.7z"/>
	
		<linearGradient id="SVGID_7_" gradientUnits="userSpaceOnUse" x1="468.3935" y1="56.7953" x2="468.3935" y2="6.8356" gradientTransform="matrix(-1 0 0 -1 792.1901 273.8432)">
		<stop  offset="0" style="stop-color:#808184"/>
		<stop  offset="5.000000e-02" style="stop-color:#231F20"/>
		<stop  offset="0.1" style="stop-color:#6D6E71"/>
		<stop  offset="0.9" style="stop-color:#6D6E71"/>
		<stop  offset="0.95" style="stop-color:#231F20"/>
		<stop  offset="1" style="stop-color:#808184"/>
	</linearGradient>
	<rect x="323.7" y="217" class="st10" width="0.3" height="50"/>
</g>
<path class="st0" d="M322.4,268.5c0.2,0,0.3,0,0.5-0.1l0,0c0,0,0,0,0,0c0.3-0.1,0.6-0.3,0.7-0.5c0,0,0,0,0,0
	c0.1-0.1,0.1-0.2,0.2-0.4c0,0,0-0.1,0-0.1c0-0.1,0.1-0.2,0.1-0.4h0v-0.1v-49.8V217h0c0-0.1,0-0.2-0.1-0.4c0,0,0-0.1,0-0.1
	c0-0.1-0.1-0.3-0.2-0.4c0,0,0,0,0,0c-0.2-0.2-0.4-0.4-0.7-0.5c0,0,0,0,0,0l0,0c-0.2-0.1-0.3-0.1-0.5-0.1h-0.6v52.9H322.4z"/>
<g>
	
		<linearGradient id="SVGID_8_" gradientUnits="userSpaceOnUse" x1="469.304" y1="128.8206" x2="469.304" y2="101.0649" gradientTransform="matrix(-1 0 0 -1 792.1901 273.8432)">
		<stop  offset="0" style="stop-color:#A6A8AB"/>
		<stop  offset="5.000000e-02" style="stop-color:#231F20"/>
		<stop  offset="0.1" style="stop-color:#58595B"/>
		<stop  offset="0.9" style="stop-color:#58595B"/>
		<stop  offset="0.95" style="stop-color:#231F20"/>
		<stop  offset="1" style="stop-color:#A6A8AB"/>
	</linearGradient>
	<path class="st11" d="M321.8,172.8h0.6c0.8,0,1.5-0.7,1.5-1.5v-24.7c0-0.8-0.7-1.5-1.5-1.5h-0.6V172.8z"/>
	
		<linearGradient id="SVGID_9_" gradientUnits="userSpaceOnUse" x1="468.7845" y1="128.736" x2="468.7845" y2="101.1495" gradientTransform="matrix(-1 0 0 -1 792.1901 273.8432)">
		<stop  offset="1.000000e-02" style="stop-color:#D0D2D3"/>
		<stop  offset="8.000000e-02" style="stop-color:#231F20"/>
		<stop  offset="0.115" style="stop-color:#929497"/>
		<stop  offset="0.15" style="stop-color:#E5E6E7"/>
		<stop  offset="0.85" style="stop-color:#E5E6E7"/>
		<stop  offset="0.885" style="stop-color:#929497"/>
		<stop  offset="0.92" style="stop-color:#231F20"/>
		<stop  offset="0.99" style="stop-color:#D0D2D3"/>
	</linearGradient>
	<path class="st12" d="M322.9,145.1v27.6c0.6-0.2,1-0.8,1-1.4v-24.7C323.9,145.9,323.5,145.3,322.9,145.1z"/>
	
		<linearGradient id="SVGID_10_" gradientUnits="userSpaceOnUse" x1="468.3935" y1="127.3753" x2="468.3935" y2="102.5106" gradientTransform="matrix(-1 0 0 -1 792.1901 273.8432)">
		<stop  offset="0" style="stop-color:#808184"/>
		<stop  offset="5.000000e-02" style="stop-color:#231F20"/>
		<stop  offset="0.1" style="stop-color:#6D6E71"/>
		<stop  offset="0.9" style="stop-color:#6D6E71"/>
		<stop  offset="0.95" style="stop-color:#231F20"/>
		<stop  offset="1" style="stop-color:#808184"/>
	</linearGradient>
	<rect x="323.7" y="146.5" class="st13" width="0.3" height="24.9"/>
</g>
<path class="st0" d="M322.4,172.8c0.2,0,0.3,0,0.5-0.1l0,0c0,0,0,0,0,0c0.3-0.1,0.6-0.3,0.7-0.5c0,0,0,0,0,0
	c0.1-0.1,0.1-0.2,0.2-0.4c0,0,0-0.1,0-0.1c0-0.1,0.1-0.2,0.1-0.4h0v-0.1v-24.7v-0.1h0c0-0.1,0-0.2-0.1-0.4c0,0,0-0.1,0-0.1
	c0-0.1-0.1-0.3-0.2-0.4c0,0,0,0,0,0c-0.2-0.2-0.4-0.4-0.7-0.5c0,0,0,0,0,0l0,0c-0.2-0.1-0.3-0.1-0.5-0.1h-0.6v27.8H322.4z"/>
</svg>
