
<!-- Generator: Element Pack Addon  -->
<svg version="1.1" id="Camera__x26__Shine" xmlns="http://www.w3.org/2000/svg" xmlns:xlink="http://www.w3.org/1999/xlink" x="0px"
	 y="0px" viewBox="0 0 14.7 14.7" style="enable-background:new 0 0 14.7 14.7;" xml:space="preserve">
<style type="text/css">
	.st0{fill:#1A191C;}
	.st1{fill:#0F0E12;}
	.st2{fill:#1A161C;}
	.st3{fill:url(#SVGID_1_);}
	.st4{fill:none;}
	.st5{fill:#242325;}
	.st6{fill:#1A1819;}
	.st7{opacity:0.1;}
	.st8{fill:url(#SVGID_2_);}
</style>
<g>
	<path class="st0" d="M14.7,7.3c0,4.1-3.3,7.3-7.3,7.3C3.3,14.7,0,11.4,0,7.3C0,3.3,3.3,0,7.3,0C11.4,0,14.7,3.3,14.7,7.3z"/>
	<path d="M14.1,7.3c0,3.7-3,6.7-6.7,6.7c-3.7,0-6.7-3-6.7-6.7c0-3.7,3-6.7,6.7-6.7C11.1,0.6,14.1,3.6,14.1,7.3z"/>
	<path class="st1" d="M13.6,7.3c0,3.4-2.8,6.2-6.2,6.2c-3.4,0-6.2-2.8-6.2-6.2c0-3.4,2.8-6.2,6.2-6.2C10.8,1.1,13.6,3.9,13.6,7.3z"
		/>
	<path class="st2" d="M11.8,7.3c0,2.5-2,4.5-4.5,4.5c-2.5,0-4.5-2-4.5-4.5c0-2.5,2-4.5,4.5-4.5C9.8,2.8,11.8,4.9,11.8,7.3z"/>
	<g>
		<radialGradient id="SVGID_1_" cx="6.9292" cy="6.8974" r="3.3229" gradientUnits="userSpaceOnUse">
			<stop  offset="1.602992e-03" style="stop-color:#190085"/>
			<stop  offset="0.895" style="stop-color:#000000"/>
		</radialGradient>
		<circle class="st3" cx="7.4" cy="7.4" r="3.3"/>
	</g>
	<g>
		<path class="st4" d="M7.3,2.8C5.4,2.8,3.8,4,3.2,5.7h8.4C10.9,4,9.2,2.8,7.3,2.8z"/>
		<path class="st5" d="M1.7,7.3c0,1.4,0.5,2.8,1.4,3.8l0.7-0.9c-0.6-0.8-1-1.8-1-2.8c0-0.6,0.1-1.2,0.3-1.7H1.9
			C1.8,6.2,1.7,6.8,1.7,7.3z"/>
		<path class="st5" d="M7.3,11.9c-0.4,0-0.9-0.1-1.3-0.2l-0.5,1.1c0.6,0.2,1,0.3,1.7,0.3c0.8,0,1.4-0.1,2.1-0.4l-0.5-1.1
			C8.4,11.7,7.9,11.9,7.3,11.9z"/>
		<path class="st6" d="M7.3,1.7c-2.6,0-4.7,1.7-5.4,4h1.2C3.8,4,5.4,2.8,7.3,2.8c1.9,0,3.5,1.2,4.2,2.8h1.2
			C12.1,3.4,9.9,1.7,7.3,1.7z"/>
		<path class="st5" d="M11.5,5.7c0.2,0.5,0.3,1.1,0.3,1.7c0,1.3-0.6,2.5-1.4,3.3l0.6,1c1.2-1,2-2.6,2-4.3c0-0.6-0.1-1.1-0.2-1.7
			H11.5z"/>
	</g>
	<g class="st7">
		<linearGradient id="SVGID_2_" gradientUnits="userSpaceOnUse" x1="7.3383" y1="7.3379" x2="6.6017" y2="6.6012">
			<stop  offset="0" style="stop-color:#000000"/>
			<stop  offset="1" style="stop-color:#FFFFFF"/>
		</linearGradient>
		<path class="st8" d="M7.3,1.1c-3.4,0-6.2,2.8-6.2,6.2c0,1.7,0.7,3.3,1.9,4.4L11.8,3C10.7,1.8,9.1,1.1,7.3,1.1z"/>
	</g>
</g>
</svg>
