
<!-- Generator: Element Pack Addon  -->
<svg version="1.1" id="Layer_1" xmlns="http://www.w3.org/2000/svg" xmlns:xlink="http://www.w3.org/1999/xlink" x="0px" y="0px"
	 viewBox="0 0 1920 1080" style="enable-background:new 0 0 1920 1080;" xml:space="preserve">
<style type="text/css">
	.st0{fill:#E6E6E5;}
	.st1{fill:url(#SVGID_1_);}
	.st2{fill:#F16059;}
	.st3{fill:#FEBF2D;}
	.st4{fill:#4EB748;}
	.st5{fill:#989898;}
	.st6{fill:#FFFFFF;}
	.st7{fill:#FBB03B;}
	.st8{fill:#B4B4B4;}
</style>
<g>
	<path class="st0" d="M0,0v1080h1920V0H0z M1918,1078H2V82h1916V1078z"/>
</g>
<g>
	<linearGradient id="SVGID_1_" gradientUnits="userSpaceOnUse" x1="2" y1="42" x2="1918" y2="42">
		<stop  offset="5.618000e-03" style="stop-color:#EDEBEC"/>
		<stop  offset="1" style="stop-color:#EDEBEC;stop-opacity:0.8"/>
	</linearGradient>
	<rect x="2" y="2" class="st1" width="1916" height="80"/>
</g>
<g id="MacOS">
	<circle class="st2" cx="47" cy="41.5" r="8"/>
	<circle class="st3" cx="75" cy="41.5" r="8"/>
	<circle class="st4" cx="103" cy="41.5" r="8"/>
</g>
<g id="Menu_Icon">
	<path class="st5" d="M1881.9,35.9c0-0.5,0.2-1,0.5-1.3c0.4-0.4,0.8-0.5,1.3-0.5c0.5,0,1,0.2,1.3,0.5c0.4,0.4,0.5,0.8,0.5,1.3
		s-0.2,1-0.5,1.3c-0.4,0.4-0.8,0.5-1.3,0.5c-0.5,0-1-0.2-1.3-0.5C1882.1,36.9,1881.9,36.4,1881.9,35.9z M1883.8,40
		c-0.5,0-1,0.2-1.3,0.5c-0.4,0.4-0.5,0.8-0.5,1.3s0.2,1,0.5,1.3c0.4,0.4,0.8,0.5,1.3,0.5c0.5,0,1-0.2,1.3-0.5
		c0.4-0.4,0.5-0.8,0.5-1.3s-0.2-1-0.5-1.3C1884.8,40.2,1884.3,40,1883.8,40z M1881.9,47.8c0-0.5,0.2-1,0.5-1.3
		c0.4-0.4,0.8-0.5,1.3-0.5c0.5,0,1,0.2,1.3,0.5c0.4,0.4,0.5,0.8,0.5,1.3s-0.2,1-0.5,1.3c-0.4,0.4-0.8,0.5-1.3,0.5
		c-0.5,0-1-0.2-1.3-0.5C1882.1,48.8,1881.9,48.3,1881.9,47.8z"/>
</g>
<path class="st6" d="M1832,62H312c-11,0-20-9-20-20v0c0-11,9-20,20-20h1520c11,0,20,9,20,20v0C1852,53,1843,62,1832,62z"/>
<g>
	<path class="st7" d="M1826.7,36.6c0.1-0.2,0.2-0.3,0.4-0.4s0.4-0.1,0.5,0s0.3,0.2,0.4,0.4l1.5,3.1l3.4,0.5c0.2,0,0.4,0.1,0.5,0.3
		s0.2,0.3,0.2,0.5s-0.1,0.4-0.2,0.5l-2.5,2.4l0.6,3.4c0,0.2,0,0.4-0.1,0.5s-0.2,0.3-0.4,0.3s-0.4,0-0.5-0.1l-3.1-1.6l-3.1,1.6
		c-0.2,0.1-0.4,0.1-0.5,0.1s-0.3-0.2-0.4-0.3s-0.1-0.3-0.1-0.5l0.6-3.4l-2.5-2.4c-0.1-0.1-0.2-0.3-0.2-0.5s0-0.4,0.2-0.5
		s0.3-0.3,0.5-0.3l3.4-0.5L1826.7,36.6z"/>
</g>
<g>
	<path class="st5" d="M323,41.5c0.3,0,0.6,0.1,0.8,0.3s0.3,0.5,0.3,0.8v4.5c0,0.3-0.1,0.6-0.3,0.8s-0.5,0.3-0.8,0.3h-8.3
		c-0.3,0-0.6-0.1-0.8-0.3s-0.3-0.5-0.3-0.8v-4.5c0-0.3,0.1-0.6,0.3-0.8s0.5-0.3,0.8-0.3h0.6v-1.7c0-0.6,0.2-1.2,0.5-1.8
		s0.8-1,1.3-1.3s1.1-0.5,1.8-0.5s1.2,0.2,1.8,0.5s1,0.8,1.3,1.3s0.5,1.1,0.5,1.8v1.7H323z M320.6,41.5v-1.7c0-0.5-0.2-0.9-0.5-1.2
		s-0.7-0.5-1.2-0.5s-0.9,0.2-1.2,0.5s-0.5,0.7-0.5,1.2v1.7H320.6z"/>
</g>
<g id="Page_Navigation">
	<g>
		<path class="st8" d="M246.9,33.7c1,0.4,1.8,1,2.6,1.7l1.2-1.2c0.2-0.2,0.3-0.2,0.6-0.2s0.4,0.1,0.6,0.2s0.2,0.3,0.2,0.6v4.4
			c0,0.2-0.1,0.4-0.2,0.6s-0.3,0.2-0.6,0.2h-4.4c-0.2,0-0.4-0.1-0.6-0.2s-0.2-0.3-0.2-0.6s0.1-0.4,0.2-0.6l1.4-1.4
			c-0.5-0.5-1.1-0.8-1.7-1.1s-1.3-0.4-2-0.4c-1,0-1.9,0.2-2.8,0.7s-1.5,1.2-2.1,2s-0.8,1.8-0.8,2.8s0.2,1.9,0.7,2.8s1.2,1.5,2,2
			s1.8,0.7,2.8,0.7c0.7,0,1.3-0.1,2-0.3s1.2-0.6,1.7-1c0.1-0.1,0.2-0.1,0.3-0.1s0.2,0,0.3,0.1l1.3,1.3c0.1,0.1,0.1,0.2,0.1,0.3
			s0,0.2-0.1,0.3c-0.7,0.7-1.6,1.2-2.5,1.6s-1.9,0.6-3,0.6c-1.5,0-2.9-0.4-4.1-1.1s-2.3-1.7-3-3s-1.1-2.6-1.1-4.1s0.4-2.9,1.1-4.1
			s1.7-2.3,3-3s2.6-1.1,4.1-1.1C244.9,33.1,245.9,33.3,246.9,33.7z"/>
	</g>
	<g>
		<path class="st8" d="M160.5,49.8c-0.2,0.2-0.4,0.3-0.7,0.3s-0.5-0.1-0.7-0.3l-7.6-7.6c-0.2-0.2-0.3-0.4-0.3-0.7s0.1-0.5,0.3-0.7
			l7.6-7.6c0.2-0.2,0.4-0.3,0.7-0.3s0.5,0.1,0.7,0.3l0.9,0.9c0.2,0.2,0.3,0.4,0.3,0.7s-0.1,0.5-0.3,0.7l-4.7,4.5h11.2
			c0.3,0,0.5,0.1,0.7,0.3s0.3,0.4,0.3,0.7v1.3c0,0.3-0.1,0.5-0.3,0.7s-0.4,0.3-0.7,0.3h-11.2l4.7,4.5c0.2,0.2,0.3,0.4,0.3,0.7
			s-0.1,0.5-0.3,0.7L160.5,49.8z"/>
	</g>
	<g>
		<path class="st8" d="M196.6,33.3c0.2-0.2,0.4-0.3,0.7-0.3s0.5,0.1,0.7,0.3l7.6,7.6c0.2,0.2,0.3,0.4,0.3,0.7s-0.1,0.5-0.3,0.7
			l-7.6,7.6c-0.2,0.2-0.4,0.3-0.7,0.3s-0.5-0.1-0.7-0.3l-0.9-0.9c-0.2-0.2-0.3-0.4-0.3-0.7s0.1-0.5,0.3-0.7l4.7-4.5h-11.2
			c-0.3,0-0.5-0.1-0.7-0.3s-0.3-0.4-0.3-0.7v-1.3c0-0.3,0.1-0.5,0.3-0.7s0.4-0.3,0.7-0.3h11.2l-4.7-4.5c-0.2-0.2-0.3-0.4-0.3-0.7
			s0.1-0.5,0.3-0.7L196.6,33.3z"/>
	</g>
</g>
</svg>
