
<!-- Generator: Element Pack Addon  -->
<svg version="1.1" id="Phone" xmlns="http://www.w3.org/2000/svg" xmlns:xlink="http://www.w3.org/1999/xlink" x="0px" y="0px"
	 viewBox="0 0 325.7 705.8" style="enable-background:new 0 0 325.7 705.8;" xml:space="preserve">
<style type="text/css">
	.st0{fill:#3E3F41;}
	.st1{fill:#7A7C7D;}
	.st2{fill:#C3C4C6;}
	.st3{fill:#333333;}
	.st4{fill:#303030;}
	.st5{opacity:0.8;}
	.st6{fill:#010101;}
	.st7{fill:#090909;}
	.st8{fill:#111111;}
	.st9{fill:#1A1A1A;}
	.st10{fill:#222222;}
	.st11{fill:#2A2A2A;}
	.st12{fill:#323232;}
	.st13{fill:#3A3A3A;}
	.st14{fill:#434343;}
	.st15{fill:#4B4B4B;}
	.st16{fill:#535353;}
	.st17{fill:#5B5B5B;}
	.st18{fill:#636363;}
	.st19{fill:#6C6C6C;}
	.st20{fill:#747474;}
	.st21{fill:#7C7C7C;}
	.st22{fill:#848484;}
	.st23{fill:#8C8C8C;}
	.st24{fill:#949494;}
	.st25{fill:#9D9D9D;}
	.st26{fill:#A5A5A5;}
	.st27{fill:#ADADAD;}
	.st28{fill:#B5B5B5;}
	.st29{fill:#BDBDBD;}
	.st30{fill:#C6C6C6;}
	.st31{fill:#CECECE;}
	.st32{fill:#D6D6D6;}
	.st33{fill:#DEDEDE;}
	.st34{fill:#E6E6E6;}
	.st35{fill:#EFEFEF;}
	.st36{fill:#F7F7F7;}
	.st37{fill:#FFFFFF;}
	.st38{opacity:0.4;}
	.st39{fill:#04070E;}
	.st40{fill:#0C0F16;}
	.st41{fill:#14171E;}
	.st42{fill:#1C1F25;}
	.st43{fill:#24272D;}
	.st44{fill:#2C2F35;}
	.st45{fill:#35373D;}
	.st46{fill:#3D3F44;}
	.st47{fill:#45474C;}
	.st48{fill:#4D4F54;}
	.st49{fill:#55575C;}
	.st50{fill:#5D5F64;}
	.st51{fill:#65676B;}
	.st52{fill:#6D6F73;}
	.st53{fill:#75777B;}
	.st54{fill:#7D7F83;}
	.st55{fill:#86878A;}
	.st56{fill:#8E8F92;}
	.st57{fill:#96979A;}
	.st58{fill:#9E9FA2;}
	.st59{fill:#A6A7A9;}
	.st60{fill:#AEAFB1;}
	.st61{fill:#B6B7B9;}
	.st62{fill:#BEBFC1;}
	.st63{fill:#C6C7C9;}
	.st64{fill:#CECFD0;}
	.st65{fill:#D7D7D8;}
	.st66{fill:#DFDFE0;}
	.st67{fill:#E7E7E8;}
	.st68{fill:#5C5C5C;}
	.st69{fill:none;}
	.st70{fill:#616161;}
	.st71{fill:#676767;}
	.st72{fill:#717171;}
	.st73{fill:#767676;}
	.st74{fill:#818181;}
	.st75{fill:#868686;}
	.st76{fill:#8B8B8B;}
	.st77{fill:#919191;}
	.st78{fill:#969696;}
	.st79{fill:#9B9B9B;}
	.st80{fill:#A0A0A0;}
	.st81{fill:#A6A6A6;}
	.st82{fill:#ABABAB;}
	.st83{fill:#B0B0B0;}
	.st84{fill:#BBBBBB;}
	.st85{fill:#C0C0C0;}
	.st86{fill:#C5C5C5;}
	.st87{fill:#CACACA;}
	.st88{fill:#D0D0D0;}
	.st89{fill:#D5D5D5;}
	.st90{fill:#DADADA;}
	.st91{fill:#DFDFDF;}
	.st92{fill:#E5E5E5;}
	.st93{fill:#EAEAEA;}
	.st94{fill:#F4F4F4;}
	.st95{fill:#FAFAFA;}
	.st96{fill:#1A191C;}
	.st97{fill:#0F0E12;}
	.st98{fill:#1A161C;}
	.st99{fill:#F5F4F4;}
	.st100{fill:#E0DFDF;}
	.st101{fill:#D5D4D5;}
	.st102{fill:#CBCACA;}
	.st103{fill:#C0BFBF;}
	.st104{fill:#B6B4B5;}
	.st105{fill:#ABAAAA;}
	.st106{fill:#A19F9F;}
	.st107{fill:#969495;}
	.st108{fill:#8C8A8A;}
	.st109{fill:#817F80;}
	.st110{fill:#777575;}
	.st111{fill:#6C6A6A;}
	.st112{fill:#625F60;}
	.st113{fill:#575555;}
	.st114{fill:#4D4A4B;}
	.st115{fill:#423F40;}
	.st116{fill:#383535;}
	.st117{fill:#2D2A2B;}
	.st118{fill:#242325;}
	.st119{fill:#1A1819;}
	.st120{opacity:0.1;}
	.st121{fill:url(#SVGID_1_);}
</style>
<g>
	<g>
		<path class="st0" d="M325.7,301.8c0,0.7-0.5,1.2-1.2,1.2h-7.3c-0.7,0-1.2-0.5-1.2-1.2v-40c0-0.7,0.5-1.2,1.2-1.2h7.3
			c0.7,0,1.2,0.5,1.2,1.2V301.8z"/>
	</g>
	<g>
		<path class="st1" d="M325.7,301.5c0,0.7-0.5,1.2-1.2,1.2h-6.7c-0.7,0-1.2-0.5-1.2-1.2v-39.4c0-0.7,0.5-1.2,1.2-1.2h6.7
			c0.7,0,1.2,0.5,1.2,1.2V301.5z"/>
	</g>
	<g>
		<path class="st2" d="M324.9,301.5c0,0.7-0.5,1.2-1.2,1.2H317c-0.7,0-1.2-0.5-1.2-1.2v-39.4c0-0.7,0.5-1.2,1.2-1.2h6.7
			c0.7,0,1.2,0.5,1.2,1.2V301.5z"/>
	</g>
</g>
<g>
	<g>
		<path class="st0" d="M325.7,216.5c0,0.8-0.6,1.4-1.4,1.4h-8.3c-0.8,0-1.4-0.6-1.4-1.4V135c0-0.8,0.6-1.4,1.4-1.4h8.3
			c0.8,0,1.4,0.6,1.4,1.4V216.5z"/>
	</g>
	<g>
		<path class="st1" d="M325.7,215.7c0,0.7-0.6,1.4-1.4,1.4h-7.6c-0.8,0-1.4-0.6-1.4-1.4v-79.9c0-0.7,0.6-1.4,1.4-1.4h7.6
			c0.8,0,1.4,0.6,1.4,1.4V215.7z"/>
	</g>
	<g>
		<path class="st2" d="M324.9,215.7c0,0.7-0.6,1.4-1.4,1.4h-7.6c-0.8,0-1.4-0.6-1.4-1.4v-79.9c0-0.7,0.6-1.4,1.4-1.4h7.6
			c0.8,0,1.4,0.6,1.4,1.4V215.7z"/>
	</g>
</g>
<path class="st3" d="M322.5,33.7c0-8.4-1.9-16.2-7-21.6c-5.4-5.6-10.8-8.4-22.4-8.4H30.9c-11.6,0-17.1,2.8-22.4,8.4
	c-5.1,5.4-7,13.2-7,21.6V672c0,0,0,0,0,0c0,1.4,0.1,2.7,0.2,4c1.6,17.3,12.7,26.1,33.1,26.1h254.4c20.4,0,31.5-8.8,33.1-26
	c0.1-1.3,0.2-2.7,0.2-4.1V33.7z"/>
<path class="st4" d="M292.9,4.7H31.1c-17.8,0-29,12.7-29,29.5v637.3c0,17,10,29.6,32.8,29.6h254c22.8,0,32.8-12.6,32.8-29.6V34.2
	C321.8,17.4,310.7,4.7,292.9,4.7z"/>
<g class="st5">
	<path class="st6" d="M11.1,670.4V31.3C11.1,14.5,21.6,3,38.5,3h-7.3c-17.9,0-29,11.5-29,28.3v639.1c0,17,10,29.7,32.9,29.7h7.1
		C20.5,700.1,11.1,687.5,11.1,670.4z"/>
	<path class="st7" d="M10.8,670.4V31.3C10.8,14.5,21.4,3,38.3,3h-7.1c-17.9,0-29,11.5-29,28.3v639.1c0,17,10,29.7,32.9,29.7h6.9
		C20.3,700.1,10.8,687.5,10.8,670.4z"/>
	<path class="st8" d="M10.5,670.4V31.3C10.5,14.5,21.1,3,38,3h-6.9c-17.9,0-29,11.5-29,28.3v639.1c0,17,10,29.7,32.9,29.7h6.7
		C20,700.1,10.5,687.5,10.5,670.4z"/>
	<path class="st9" d="M10.2,670.4V31.3C10.2,14.5,20.8,3,37.8,3h-6.7c-17.9,0-29,11.5-29,28.3v639.1c0,17,10,29.7,32.9,29.7h6.5
		C19.7,700.1,10.2,687.5,10.2,670.4z"/>
	<path class="st10" d="M10,670.4V31.3C10,14.5,20.6,3,37.6,3h-6.4c-17.9,0-29,11.5-29,28.3v639.1c0,17,10,29.7,32.9,29.7h6.3
		C19.5,700.1,10,687.5,10,670.4z"/>
	<path class="st11" d="M9.7,670.4V31.3C9.7,14.5,20.3,3,37.4,3h-6.2c-17.9,0-29,11.5-29,28.3v639.1c0,17,10,29.7,32.9,29.7h6
		C19.2,700.1,9.7,687.5,9.7,670.4z"/>
	<path class="st12" d="M9.4,670.4V31.3C9.4,14.5,20.1,3,37.2,3h-6c-17.9,0-29,11.5-29,28.3v639.1c0,17,10,29.7,32.9,29.7h5.8
		C19,700.1,9.4,687.5,9.4,670.4z"/>
	<path class="st13" d="M9.1,670.4V31.3C9.1,14.5,19.8,3,36.9,3h-5.8c-17.9,0-29,11.5-29,28.3v639.1c0,17,10,29.7,32.9,29.7h5.6
		C18.7,700.1,9.1,687.5,9.1,670.4z"/>
	<path class="st14" d="M8.9,670.4V31.3C8.9,14.5,19.6,3,36.7,3h-5.6c-17.9,0-29,11.5-29,28.3v639.1c0,17,10,29.7,32.9,29.7h5.4
		C18.5,700.1,8.9,687.5,8.9,670.4z"/>
	<path class="st15" d="M8.6,670.4V31.3C8.6,14.5,19.3,3,36.5,3h-5.3c-17.9,0-29,11.5-29,28.3v639.1c0,17,10,29.7,32.9,29.7h5.2
		C18.2,700.1,8.6,687.5,8.6,670.4z"/>
	<path class="st16" d="M8.3,670.4V31.3C8.3,14.5,19.1,3,36.3,3h-5.1c-17.9,0-29,11.5-29,28.3v639.1c0,17,10,29.7,32.9,29.7h5
		C18,700.1,8.3,687.5,8.3,670.4z"/>
	<path class="st17" d="M8,670.4V31.3C8,14.5,18.8,3,36,3h-4.9c-17.9,0-29,11.5-29,28.3v639.1c0,17,10,29.7,32.9,29.7h4.8
		C17.7,700.1,8,687.5,8,670.4z"/>
	<path class="st18" d="M7.8,670.4V31.3C7.8,14.5,18.6,3,35.8,3h-4.7c-17.9,0-29,11.5-29,28.3v639.1c0,17,10,29.7,32.9,29.7h4.5
		C17.4,700.1,7.8,687.5,7.8,670.4z"/>
	<path class="st19" d="M7.5,670.4V31.3C7.5,14.5,18.3,3,35.6,3h-4.5c-17.9,0-29,11.5-29,28.3v639.1c0,17,10,29.7,32.9,29.7h4.3
		C17.2,700.1,7.5,687.5,7.5,670.4z"/>
	<path class="st20" d="M7.2,670.4V31.3C7.2,14.5,18.1,3,35.4,3h-4.2c-17.9,0-29,11.5-29,28.3v639.1c0,17,10,29.7,32.9,29.7h4.1
		C16.9,700.1,7.2,687.5,7.2,670.4z"/>
	<path class="st21" d="M7,670.4V31.3C7,14.5,17.8,3,35.2,3h-4c-17.9,0-29,11.5-29,28.3v639.1c0,17,10,29.7,32.9,29.7h3.9
		C16.7,700.1,7,687.5,7,670.4z"/>
	<path class="st22" d="M6.7,670.4V31.3C6.7,14.5,17.5,3,34.9,3h-3.8c-17.9,0-29,11.5-29,28.3v639.1c0,17,10,29.7,32.9,29.7h3.7
		C16.4,700.1,6.7,687.5,6.7,670.4z"/>
	<path class="st23" d="M6.4,670.4V31.3C6.4,14.5,17.3,3,34.7,3h-3.6c-17.9,0-29,11.5-29,28.3v639.1c0,17,10,29.7,32.9,29.7h3.5
		C16.2,700.1,6.4,687.5,6.4,670.4z"/>
	<path class="st24" d="M6.1,670.4V31.3C6.1,14.5,17,3,34.5,3h-3.3c-17.9,0-29,11.5-29,28.3v639.1c0,17,10,29.7,32.9,29.7h3.3
		C15.9,700.1,6.1,687.5,6.1,670.4z"/>
	<path class="st25" d="M5.9,670.4V31.3C5.9,14.5,16.8,3,34.3,3h-3.1c-17.9,0-29,11.5-29,28.3v639.1c0,17,10,29.7,32.9,29.7h3
		C15.7,700.1,5.9,687.5,5.9,670.4z"/>
	<path class="st26" d="M5.6,670.4V31.3C5.6,14.5,16.5,3,34,3h-2.9c-17.9,0-29,11.5-29,28.3v639.1c0,17,10,29.7,32.9,29.7h2.8
		C15.4,700.1,5.6,687.5,5.6,670.4z"/>
	<path class="st27" d="M5.3,670.4V31.3C5.3,14.5,16.3,3,33.8,3h-2.7c-17.9,0-29,11.5-29,28.3v639.1c0,17,10,29.7,32.9,29.7h2.6
		C15.1,700.1,5.3,687.5,5.3,670.4z"/>
	<path class="st28" d="M5,670.4V31.3C5,14.5,16,3,33.6,3h-2.5c-17.9,0-29,11.5-29,28.3v639.1c0,17,10,29.7,32.9,29.7h2.4
		C14.9,700.1,5,687.5,5,670.4z"/>
	<path class="st29" d="M4.8,670.4V31.3C4.8,14.5,15.8,3,33.4,3h-2.2c-17.9,0-29,11.5-29,28.3v639.1c0,17,10,29.7,32.9,29.7h2.2
		C14.6,700.1,4.8,687.5,4.8,670.4z"/>
	<path class="st30" d="M4.5,670.4V31.3C4.5,14.5,15.5,3,33.2,3h-2c-17.9,0-29,11.5-29,28.3v639.1c0,17,10,29.7,32.9,29.7h2
		C14.4,700.1,4.5,687.5,4.5,670.4z"/>
	<path class="st31" d="M4.2,670.4V31.3C4.2,14.5,15.3,3,32.9,3h-1.8c-17.9,0-29,11.5-29,28.3v639.1c0,17,10,29.7,32.9,29.7h1.7
		C14.1,700.1,4.2,687.5,4.2,670.4z"/>
	<path class="st32" d="M3.9,670.4V31.3C3.9,14.5,15,3,32.7,3h-1.6c-17.9,0-29,11.5-29,28.3v639.1c0,17,10,29.7,32.9,29.7h1.5
		C13.9,700.1,3.9,687.5,3.9,670.4z"/>
	<path class="st33" d="M3.7,670.4V31.3C3.7,14.5,14.8,3,32.5,3h-1.3c-17.9,0-29,11.5-29,28.3v639.1c0,17,10,29.7,32.9,29.7h1.3
		C13.6,700.1,3.7,687.5,3.7,670.4z"/>
	<path class="st34" d="M3.4,670.4V31.3C3.4,14.5,14.5,3,32.3,3h-1.1c-17.9,0-29,11.5-29,28.3v639.1c0,17,10,29.7,32.9,29.7h1.1
		C13.3,700.1,3.4,687.5,3.4,670.4z"/>
	<path class="st35" d="M3.1,670.4V31.3C3.1,14.5,14.2,3,32.1,3h-0.9c-17.9,0-29,11.5-29,28.3v639.1c0,17,10,29.7,32.9,29.7h0.9
		C13.1,700.1,3.1,687.5,3.1,670.4z"/>
	<path class="st36" d="M2.8,670.4V31.3C2.8,14.5,14,3,31.8,3h-0.7c-17.9,0-29,11.5-29,28.3v639.1c0,17,10,29.7,32.9,29.7h0.7
		C12.8,700.1,2.8,687.5,2.8,670.4z"/>
	<path class="st37" d="M2.6,670.4V31.3C2.6,14.5,13.7,3,31.6,3h-0.5c-17.9,0-29,11.5-29,28.3v639.1c0,17,10,29.7,32.9,29.7h0.5
		C12.6,700.1,2.6,687.5,2.6,670.4z"/>
</g>
<g class="st38">
	<path class="st39" d="M34.8,700.6c-0.2,0.2,57,0.5,127.2,0.5c70.3,0,127-0.2,127.2-0.4c1.2-1.1-57-2.3-127.2-2.3
		C91.7,698.3,35.9,699.5,34.8,700.6z"/>
	<path class="st40" d="M34.8,700.6c-0.2,0.2,57,0.5,127.2,0.5c70.3,0,127-0.2,127.2-0.4c1.1-1.1-57-2.2-127.2-2.2
		C91.7,698.4,35.9,699.6,34.8,700.6z"/>
	<path class="st41" d="M34.8,700.6c-0.2,0.2,57,0.5,127.2,0.5c70.3,0,127-0.2,127.2-0.4c1.1-1.1-57-2.2-127.2-2.2
		C91.7,698.5,35.9,699.6,34.8,700.6z"/>
	<path class="st42" d="M34.8,700.6c-0.2,0.2,57,0.5,127.2,0.5c70.3,0,127-0.2,127.2-0.4c1-1-57-2.1-127.2-2.1
		C91.7,698.5,35.8,699.6,34.8,700.6z"/>
	<path class="st43" d="M34.8,700.6c-0.2,0.2,57,0.5,127.2,0.5c70.3,0,127-0.2,127.2-0.4c1-1-57-2.1-127.2-2.1
		C91.7,698.6,35.8,699.6,34.8,700.6z"/>
	<path class="st44" d="M34.8,700.6c-0.2,0.2,57,0.5,127.2,0.5c70.3,0,127-0.2,127.2-0.4c1-1-57-2-127.2-2
		C91.7,698.6,35.7,699.6,34.8,700.6z"/>
	<path class="st45" d="M34.8,700.6c-0.2,0.2,57,0.5,127.2,0.5c70.3,0,127-0.2,127.2-0.4c0.9-1-57-1.9-127.2-1.9
		C91.7,698.7,35.7,699.7,34.8,700.6z"/>
	<path class="st46" d="M34.8,700.6c-0.2,0.2,57,0.5,127.2,0.5c70.3,0,127-0.2,127.2-0.4c0.9-0.9-57-1.9-127.2-1.9
		C91.7,698.8,35.6,699.7,34.8,700.6z"/>
	<path class="st47" d="M34.8,700.6c-0.2,0.2,57,0.5,127.2,0.5c70.3,0,127-0.2,127.2-0.4c0.8-0.9-57-1.8-127.2-1.8
		C91.7,698.8,35.6,699.7,34.8,700.6z"/>
	<path class="st48" d="M34.8,700.6c-0.2,0.2,57,0.5,127.2,0.5c70.3,0,127-0.2,127.2-0.4c0.8-0.9-57-1.8-127.2-1.8
		C91.7,698.9,35.5,699.7,34.8,700.6z"/>
	<path class="st49" d="M34.8,700.6c-0.2,0.2,57,0.5,127.2,0.5c70.3,0,127-0.2,127.2-0.4c0.7-0.9-57-1.7-127.2-1.7
		C91.7,698.9,35.5,699.7,34.8,700.6z"/>
	<path class="st50" d="M34.8,700.6c-0.2,0.2,57,0.5,127.2,0.5c70.3,0,127-0.2,127.2-0.4c0.7-0.9-57-1.6-127.2-1.6
		C91.7,699,35.4,699.8,34.8,700.6z"/>
	<path class="st51" d="M34.8,700.6c-0.1,0.2,57,0.5,127.2,0.5c70.3,0,127-0.2,127.2-0.4c0.6-0.8-57-1.6-127.2-1.6
		C91.7,699.1,35.4,699.8,34.8,700.6z"/>
	<path class="st52" d="M34.8,700.6c-0.1,0.2,57,0.5,127.2,0.5c70.3,0,127.1-0.2,127.2-0.4c0.6-0.8-57-1.5-127.2-1.5
		C91.7,699.1,35.4,699.8,34.8,700.6z"/>
	<path class="st53" d="M34.8,700.6c-0.1,0.2,57,0.5,127.2,0.5c70.3,0,127.1-0.2,127.2-0.4c0.6-0.8-57-1.5-127.2-1.5
		C91.7,699.2,35.3,699.9,34.8,700.6z"/>
	<path class="st54" d="M34.8,700.6c-0.1,0.2,57,0.5,127.2,0.5c70.3,0,127.1-0.2,127.2-0.4c0.5-0.7-57-1.4-127.2-1.4
		C91.7,699.2,35.3,699.9,34.8,700.6z"/>
	<path class="st55" d="M34.8,700.6c-0.1,0.2,57,0.5,127.2,0.5c70.3,0,127.1-0.2,127.2-0.4c0.5-0.7-57-1.3-127.2-1.3
		C91.7,699.3,35.2,699.9,34.8,700.6z"/>
	<path class="st56" d="M34.8,700.6c-0.1,0.2,57,0.5,127.2,0.5c70.3,0,127.1-0.2,127.2-0.4c0.4-0.7-57-1.3-127.2-1.3
		C91.7,699.4,35.2,699.9,34.8,700.6z"/>
	<path class="st57" d="M34.8,700.6c-0.1,0.2,57,0.5,127.2,0.5c70.3,0,127.1-0.2,127.2-0.4c0.4-0.7-57-1.2-127.2-1.2
		C91.7,699.4,35.2,700,34.8,700.6z"/>
	<path class="st58" d="M34.8,700.6c-0.1,0.2,57,0.5,127.2,0.5c70.3,0,127.1-0.2,127.2-0.4c0.4-0.6-57-1.2-127.2-1.2
		C91.7,699.5,35.1,700,34.8,700.6z"/>
	<path class="st59" d="M34.8,700.6c-0.1,0.2,57,0.4,127.2,0.4c70.3,0,127.1-0.2,127.2-0.4c0.3-0.6-57-1.1-127.2-1.1
		C91.7,699.5,35.1,700,34.8,700.6z"/>
	<path class="st60" d="M34.8,700.6c-0.1,0.2,57,0.4,127.2,0.4c70.3,0,127.1-0.2,127.2-0.4c0.3-0.6-57-1-127.2-1
		C91.7,699.6,35.1,700.1,34.8,700.6z"/>
	<path class="st61" d="M34.8,700.6c-0.1,0.2,57,0.4,127.2,0.4c70.3,0,127.1-0.2,127.2-0.4c0.3-0.5-57-1-127.2-1
		C91.7,699.7,35.1,700.2,34.8,700.6z"/>
	<path class="st62" d="M34.8,700.6c-0.1,0.2,57,0.4,127.2,0.4c70.3,0,127.1-0.2,127.2-0.4c0.2-0.5-57-0.9-127.2-0.9
		C91.7,699.7,35.1,700.2,34.8,700.6z"/>
	<path class="st63" d="M34.8,700.6c0,0.2,57,0.4,127.2,0.4c70.3,0,127.1-0.2,127.2-0.4c0.2-0.5-57-0.9-127.2-0.9
		C91.7,699.8,35,700.2,34.8,700.6z"/>
	<path class="st64" d="M34.8,700.6c-0.1,0.2,57,0.4,127.2,0.4c70.3,0,127.1-0.2,127.2-0.4c0.2-0.4-57-0.8-127.2-0.8
		C91.7,699.8,34.9,700.2,34.8,700.6z"/>
	<path class="st65" d="M34.8,700.6c-0.1,0.2,57,0.4,127.2,0.4c70.3,0,127.1-0.2,127.2-0.4c0.1-0.4-57-0.7-127.2-0.7
		C91.7,699.9,34.9,700.2,34.8,700.6z"/>
	<path class="st66" d="M34.8,700.6c-0.1,0.2,57,0.4,127.2,0.4c70.3,0,127.2-0.2,127.2-0.4c0.1-0.4-57-0.7-127.2-0.7
		C91.7,700,34.9,700.3,34.8,700.6z"/>
	<path class="st67" d="M34.8,700.6c0,0.2,57,0.4,127.2,0.4c70.3,0,127.2-0.2,127.2-0.4c0.1-0.3-57-0.6-127.2-0.6
		C91.7,700,34.8,700.3,34.8,700.6z"/>
	<path class="st35" d="M34.8,700.6c0,0.2,57,0.4,127.2,0.4c70.3,0,127.2-0.2,127.2-0.4c0-0.3-57-0.6-127.2-0.6
		C91.7,700.1,34.8,700.3,34.8,700.6z"/>
	<path class="st36" d="M34.8,700.6c0,0.2,57,0.4,127.2,0.4c70.3,0,127.2-0.2,127.2-0.4c0-0.3-57-0.5-127.2-0.5
		C91.7,700.1,34.8,700.4,34.8,700.6z"/>
	<ellipse class="st37" cx="162" cy="700.7" rx="127.2" ry="0.4"/>
</g>
<g class="st5">
	<path class="st6" d="M312.9,670.4V31.3c0-16.8-10.5-28.3-27.4-28.3h7.3c17.9,0,29,11.5,29,28.3v639.1c0,17-10,29.7-32.9,29.7h-7.1
		C303.4,700.1,312.9,687.5,312.9,670.4z"/>
	<path class="st7" d="M313.1,670.4V31.3c0-16.8-10.6-28.3-27.5-28.3h7.1c17.9,0,29,11.5,29,28.3v639.1c0,17-10,29.7-32.9,29.7H282
		C303.7,700.1,313.1,687.5,313.1,670.4z"/>
	<path class="st8" d="M313.4,670.4V31.3c0-16.8-10.6-28.3-27.5-28.3h6.9c17.9,0,29,11.5,29,28.3v639.1c0,17-10,29.7-32.9,29.7h-6.7
		C303.9,700.1,313.4,687.5,313.4,670.4z"/>
	<path class="st9" d="M313.7,670.4V31.3c0-16.8-10.6-28.3-27.6-28.3h6.7c17.9,0,29,11.5,29,28.3v639.1c0,17-10,29.7-32.9,29.7h-6.5
		C304.2,700.1,313.7,687.5,313.7,670.4z"/>
	<path class="st10" d="M314,670.4V31.3C314,14.5,303.3,3,286.3,3h6.4c17.9,0,29,11.5,29,28.3v639.1c0,17-10,29.7-32.9,29.7h-6.3
		C304.4,700.1,314,687.5,314,670.4z"/>
	<path class="st11" d="M314.2,670.4V31.3c0-16.8-10.6-28.3-27.7-28.3h6.2c17.9,0,29,11.5,29,28.3v639.1c0,17-10,29.7-32.9,29.7h-6
		C304.7,700.1,314.2,687.5,314.2,670.4z"/>
	<path class="st12" d="M314.5,670.4V31.3c0-16.8-10.7-28.3-27.7-28.3h6c17.9,0,29,11.5,29,28.3v639.1c0,17-10,29.7-32.9,29.7h-5.8
		C304.9,700.1,314.5,687.5,314.5,670.4z"/>
	<path class="st13" d="M314.8,670.4V31.3C314.8,14.5,304.1,3,287,3h5.8c17.9,0,29,11.5,29,28.3v639.1c0,17-10,29.7-32.9,29.7h-5.6
		C305.2,700.1,314.8,687.5,314.8,670.4z"/>
	<path class="st14" d="M315.1,670.4V31.3c0-16.8-10.7-28.3-27.8-28.3h5.6c17.9,0,29,11.5,29,28.3v639.1c0,17-10,29.7-32.9,29.7h-5.4
		C305.5,700.1,315.1,687.5,315.1,670.4z"/>
	<path class="st15" d="M315.3,670.4V31.3c0-16.8-10.7-28.3-27.9-28.3h5.3c17.9,0,29,11.5,29,28.3v639.1c0,17-10,29.7-32.9,29.7h-5.2
		C305.7,700.1,315.3,687.5,315.3,670.4z"/>
	<path class="st16" d="M315.6,670.4V31.3c0-16.8-10.7-28.3-27.9-28.3h5.1c17.9,0,29,11.5,29,28.3v639.1c0,17-10,29.7-32.9,29.7h-5
		C306,700.1,315.6,687.5,315.6,670.4z"/>
	<path class="st17" d="M315.9,670.4V31.3c0-16.8-10.8-28.3-28-28.3h4.9c17.9,0,29,11.5,29,28.3v639.1c0,17-10,29.7-32.9,29.7h-4.8
		C306.2,700.1,315.9,687.5,315.9,670.4z"/>
	<path class="st18" d="M316.2,670.4V31.3c0-16.8-10.8-28.3-28-28.3h4.7c17.9,0,29,11.5,29,28.3v639.1c0,17-10,29.7-32.9,29.7h-4.5
		C306.5,700.1,316.2,687.5,316.2,670.4z"/>
	<path class="st19" d="M316.4,670.4V31.3c0-16.8-10.8-28.3-28.1-28.3h4.5c17.9,0,29,11.5,29,28.3v639.1c0,17-10,29.7-32.9,29.7h-4.3
		C306.7,700.1,316.4,687.5,316.4,670.4z"/>
	<path class="st20" d="M316.7,670.4V31.3c0-16.8-10.8-28.3-28.2-28.3h4.2c17.9,0,29,11.5,29,28.3v639.1c0,17-10,29.7-32.9,29.7h-4.1
		C307,700.1,316.7,687.5,316.7,670.4z"/>
	<path class="st21" d="M317,670.4V31.3C317,14.5,306.1,3,288.8,3h4c17.9,0,29,11.5,29,28.3v639.1c0,17-10,29.7-32.9,29.7H285
		C307.3,700.1,317,687.5,317,670.4z"/>
	<path class="st22" d="M317.3,670.4V31.3C317.3,14.5,306.4,3,289,3h3.8c17.9,0,29,11.5,29,28.3v639.1c0,17-10,29.7-32.9,29.7h-3.7
		C307.5,700.1,317.3,687.5,317.3,670.4z"/>
	<path class="st23" d="M317.5,670.4V31.3c0-16.8-10.9-28.3-28.3-28.3h3.6c17.9,0,29,11.5,29,28.3v639.1c0,17-10,29.7-32.9,29.7h-3.5
		C307.8,700.1,317.5,687.5,317.5,670.4z"/>
	<path class="st24" d="M317.8,670.4V31.3c0-16.8-10.9-28.3-28.4-28.3h3.3c17.9,0,29,11.5,29,28.3v639.1c0,17-10,29.7-32.9,29.7h-3.3
		C308,700.1,317.8,687.5,317.8,670.4z"/>
	<path class="st25" d="M318.1,670.4V31.3c0-16.8-10.9-28.3-28.4-28.3h3.1c17.9,0,29,11.5,29,28.3v639.1c0,17-10,29.7-32.9,29.7h-3
		C308.3,700.1,318.1,687.5,318.1,670.4z"/>
	<path class="st26" d="M318.3,670.4V31.3c0-16.8-10.9-28.3-28.5-28.3h2.9c17.9,0,29,11.5,29,28.3v639.1c0,17-10,29.7-32.9,29.7h-2.8
		C308.5,700.1,318.3,687.5,318.3,670.4z"/>
	<path class="st27" d="M318.6,670.4V31.3c0-16.8-11-28.3-28.5-28.3h2.7c17.9,0,29,11.5,29,28.3v639.1c0,17-10,29.7-32.9,29.7h-2.6
		C308.8,700.1,318.6,687.5,318.6,670.4z"/>
	<path class="st28" d="M318.9,670.4V31.3c0-16.8-11-28.3-28.6-28.3h2.5c17.9,0,29,11.5,29,28.3v639.1c0,17-10,29.7-32.9,29.7h-2.4
		C309,700.1,318.9,687.5,318.9,670.4z"/>
	<path class="st29" d="M319.2,670.4V31.3c0-16.8-11-28.3-28.6-28.3h2.2c17.9,0,29,11.5,29,28.3v639.1c0,17-10,29.7-32.9,29.7h-2.2
		C309.3,700.1,319.2,687.5,319.2,670.4z"/>
	<path class="st30" d="M319.4,670.4V31.3c0-16.8-11-28.3-28.7-28.3h2c17.9,0,29,11.5,29,28.3v639.1c0,17-10,29.7-32.9,29.7h-2
		C309.6,700.1,319.4,687.5,319.4,670.4z"/>
	<path class="st31" d="M319.7,670.4V31.3c0-16.8-11-28.3-28.7-28.3h1.8c17.9,0,29,11.5,29,28.3v639.1c0,17-10,29.7-32.9,29.7h-1.7
		C309.8,700.1,319.7,687.5,319.7,670.4z"/>
	<path class="st32" d="M320,670.4V31.3C320,14.5,308.9,3,291.2,3h1.6c17.9,0,29,11.5,29,28.3v639.1c0,17-10,29.7-32.9,29.7h-1.5
		C310.1,700.1,320,687.5,320,670.4z"/>
	<path class="st33" d="M320.3,670.4V31.3c0-16.8-11.1-28.3-28.8-28.3h1.3c17.9,0,29,11.5,29,28.3v639.1c0,17-10,29.7-32.9,29.7h-1.3
		C310.3,700.1,320.3,687.5,320.3,670.4z"/>
	<path class="st34" d="M320.5,670.4V31.3c0-16.8-11.1-28.3-28.9-28.3h1.1c17.9,0,29,11.5,29,28.3v639.1c0,17-10,29.7-32.9,29.7h-1.1
		C310.6,700.1,320.5,687.5,320.5,670.4z"/>
	<path class="st35" d="M320.8,670.4V31.3c0-16.8-11.1-28.3-28.9-28.3h0.9c17.9,0,29,11.5,29,28.3v639.1c0,17-10,29.7-32.9,29.7H288
		C310.8,700.1,320.8,687.5,320.8,670.4z"/>
	<path class="st36" d="M321.1,670.4V31.3c0-16.8-11.1-28.3-29-28.3h0.7c17.9,0,29,11.5,29,28.3v639.1c0,17-10,29.7-32.9,29.7h-0.7
		C311.1,700.1,321.1,687.5,321.1,670.4z"/>
	<path class="st37" d="M321.4,670.4V31.3c0-16.8-11.2-28.3-29-28.3h0.5c17.9,0,29,11.5,29,28.3v639.1c0,17-10,29.7-32.9,29.7h-0.5
		C311.3,700.1,321.4,687.5,321.4,670.4z"/>
</g>
<g>
	<path class="st68" d="M315.8,14.7c3.8,4.7,6.1,10.8,6.1,17.4v641.6c0,15.1-12.1,27.5-26.8,27.5H28.9c-14.8,0-26.8-12.4-26.8-27.5
		V32.1c0-6.8,2.5-13.1,6.6-18l-2.4-2.1C2.3,17.3,0,23.8,0,30.8V675c0,16.9,13.5,30.8,30.1,30.8h263.8c16.5,0,30.1-13.9,30.1-30.8
		V30.8c0-7-2.3-13.4-6.1-18.6L315.8,14.7z"/>
	<path class="st69" d="M317.6,674.2c0,1.7,0,2.8,0,2.8v-3.4C317.6,673.5,317.6,673.7,317.6,674.2z"/>
	<path class="st69" d="M317.6,674.2c0,1.7,0,2.8,0,2.8v-3.4C317.6,673.5,317.6,673.7,317.6,674.2z"/>
	<path class="st69" d="M317.6,674.2c0,1.7,0,2.8,0,2.8v-3.4C317.6,673.5,317.6,673.7,317.6,674.2z"/>
	<path class="st69" d="M317.6,674.2c0,1.7,0,2.8,0,2.8v-3.4C317.6,673.5,317.6,673.7,317.6,674.2z"/>
	<g>
		<path class="st68" d="M28.9,4.6H295c8.3,0,15.8,3.9,20.7,10.1l2.1-2.4C312.4,4.8,303.7,0,293.9,0H30.1C20.4,0,11.7,4.8,6.2,12.1
			l2.4,2.1C13.6,8.3,20.9,4.6,28.9,4.6z"/>
		<path class="st70" d="M28.9,4.6H295c8.2,0,15.6,3.9,20.5,9.9c0,0,2-2.4,2-2.4c-3.1-4-7.1-7.2-11.7-9.3c-3.6-1.7-8.1-2.6-12.3-2.6
			H30.4c-4.2,0-8.5,0.9-12.1,2.5c-4.6,2-8.7,5.2-11.8,9.3c0,0,2.3,2,2.3,2C13.8,8.2,21,4.6,28.9,4.6z"/>
		<path class="st71" d="M28.9,4.5H295c8.1,0,15.4,3.8,20.3,9.7c-0.1,0,1.9-2.4,1.8-2.4c-3.1-4-7.1-7.1-11.7-9.1
			c-3.5-1.6-8.2-2.6-12.3-2.6H30.8c-4,0-8.6,0.9-12.1,2.5c-4.6,2-8.7,5.1-11.8,9.1c-0.1,0,2.2,2,2.1,2C13.9,8.1,21.1,4.5,28.9,4.5z"
			/>
		<path class="st19" d="M28.9,4.5H295c8,0,15.3,3.7,20.1,9.5c-0.1-0.1,1.7-2.3,1.7-2.4c-3.1-3.9-7.2-7-11.8-8.9
			c-3.4-1.6-8.3-2.5-12.3-2.5H31.2c-3.9,0-8.7,0.8-12,2.4c-4.6,1.9-8.7,5-11.9,8.9c-0.1,0,2,1.9,2,2C14.1,8,21.1,4.5,28.9,4.5z"/>
		<path class="st72" d="M28.9,4.5H295c7.9,0,15.1,3.6,19.9,9.3c-0.1-0.1,1.6-2.3,1.5-2.3c-3.1-3.8-7.2-6.9-11.8-8.7
			c-3.3-1.5-8.4-2.4-12.2-2.4H31.5c-3.7,0-8.8,0.8-12,2.3c-4.7,1.8-8.7,4.8-11.9,8.7c-0.1,0.1,1.9,1.9,1.8,2
			C14.3,7.9,21.2,4.5,28.9,4.5z"/>
		<path class="st73" d="M28.9,4.5H295c7.8,0,14.9,3.5,19.7,9.1c-0.1-0.1,1.5-2.2,1.4-2.3c-3.2-3.8-7.3-6.7-11.9-8.5
			c-3.2-1.5-8.5-2.3-12.2-2.3H31.9c-3.6,0-8.9,0.8-12,2.2c-4.7,1.8-8.8,4.7-12,8.5c-0.1,0.1,1.8,1.9,1.7,2
			C14.4,7.8,21.3,4.5,28.9,4.5z"/>
		<path class="st21" d="M28.9,4.4H295c7.7,0,14.7,3.5,19.5,8.9c-0.2-0.1,1.4-2.2,1.2-2.3c-3.2-3.7-7.3-6.6-11.9-8.3
			c-3-1.4-8.6-2.2-12.2-2.2H32.3c-3.5,0-9,0.8-12,2.1c-4.7,1.7-8.8,4.6-12,8.3c-0.2,0.1,1.6,1.8,1.5,2C14.6,7.7,21.4,4.4,28.9,4.4z"
			/>
		<path class="st74" d="M28.9,4.4H295c7.6,0,14.6,3.4,19.3,8.7c-0.2-0.1,1.3-2.1,1.1-2.2c-3.2-3.6-7.3-6.5-12-8.1
			c-2.9-1.4-8.8-2.1-12.2-2.1H32.6c-3.3,0-9.1,0.7-11.9,2C16,4.3,11.9,7.1,8.6,10.8c-0.2,0.1,1.5,1.8,1.3,1.9
			C14.7,7.6,21.5,4.4,28.9,4.4z"/>
		<path class="st75" d="M28.9,4.4H295c7.6,0,14.4,3.3,19.2,8.5c-0.2-0.1,1.1-2.1,0.9-2.2c-3.3-3.6-7.4-6.3-12-7.9
			c-2.8-1.3-8.9-2-12.1-2H33c-3.2,0-9.2,0.7-11.9,1.9C16.4,4.2,12.3,7,9,10.6c-0.2,0.1,1.4,1.8,1.2,1.9C14.9,7.5,21.6,4.4,28.9,4.4z
			"/>
		<path class="st76" d="M28.9,4.3H295c7.5,0,14.2,3.2,19,8.3c-0.2-0.2,1-2,0.8-2.2c-3.3-3.5-7.4-6.2-12.1-7.7
			c-2.7-1.2-9-1.9-12.1-1.9H33.4c-3.1,0-9.3,0.7-11.9,1.9c-4.7,1.5-8.9,4.2-12.2,7.7c-0.2,0.1,1.3,1.7,1,1.9
			C15.1,7.4,21.7,4.3,28.9,4.3z"/>
		<path class="st77" d="M28.9,4.3H295c7.4,0,14,3.1,18.8,8.1c-0.3-0.2,0.9-2,0.6-2.2c-3.3-3.5-7.5-6.1-12.1-7.5
			c-2.6-1.2-9.1-1.8-12.1-1.8H33.7c-2.9,0-9.4,0.6-11.9,1.8c-4.7,1.4-8.9,4-12.2,7.5c-0.3,0.2,1.1,1.7,0.9,1.9
			C15.2,7.3,21.8,4.3,28.9,4.3z"/>
		<path class="st78" d="M28.9,4.3H295c7.3,0,13.9,3.1,18.6,8c-0.3-0.2,0.8-2,0.5-2.1c-3.4-3.4-7.5-6-12.2-7.3
			c-2.4-1.1-9.2-1.8-12.1-1.8H34.1c-2.8,0-9.5,0.6-11.9,1.7C17.6,4.1,13.4,6.6,10,10c-0.3,0.2,1,1.7,0.7,1.9
			C15.4,7.2,21.8,4.3,28.9,4.3z"/>
		<path class="st79" d="M28.9,4.2H295c7.2,0,13.7,3,18.4,7.8c-0.3-0.2,0.7-1.9,0.3-2.1c-3.4-3.3-7.6-5.8-12.3-7.1
			c-2.3-1.1-9.4-1.7-12-1.7h-255c-2.6,0-9.6,0.6-11.8,1.6C17.9,4,13.7,6.5,10.3,9.8c-0.3,0.2,0.9,1.6,0.5,1.8
			C15.5,7.1,21.9,4.2,28.9,4.2z"/>
		<path class="st80" d="M28.9,4.2H295c7.1,0,13.5,2.9,18.2,7.6c-0.3-0.2,0.5-1.9,0.2-2.1c-3.4-3.3-7.6-5.7-12.3-6.9
			c-2.2-1-9.5-1.6-12-1.6H34.8c-2.5,0-9.7,0.5-11.8,1.5c-4.7,1.2-8.9,3.6-12.4,6.9c-0.4,0.2,0.7,1.6,0.4,1.8C15.7,7,22,4.2,28.9,4.2
			z"/>
		<path class="st81" d="M28.9,4.2H295c7,0,13.3,2.8,18,7.4c-0.4-0.3,0.4-1.8,0-2c-3.4-3.2-7.7-5.6-12.4-6.7c-2.1-1-9.6-1.5-12-1.5
			H35.2c-2.4,0-9.8,0.5-11.8,1.4c-4.7,1.2-9,3.5-12.4,6.7c-0.4,0.2,0.6,1.6,0.2,1.8C15.9,6.9,22.1,4.2,28.9,4.2z"/>
		<path class="st82" d="M28.9,4.2H295c6.9,0,13.2,2.8,17.8,7.2c-0.4-0.3,0.3-1.8-0.1-2c-3.5-3.2-7.7-5.4-12.4-6.5
			c-1.9-0.9-9.7-1.4-12-1.4H35.6c-2.2,0-9.8,0.5-11.8,1.4c-4.7,1.1-9,3.4-12.5,6.5c-0.4,0.2,0.5,1.5,0.1,1.8
			C16,6.8,22.2,4.2,28.9,4.2z"/>
		<path class="st83" d="M28.9,4.1H295c6.8,0,13,2.7,17.6,7c-0.4-0.3,0.2-1.7-0.3-2c-3.5-3.1-7.8-5.3-12.5-6.3
			c-1.8-0.8-9.8-1.3-11.9-1.3h-252c-2.1,0-9.9,0.5-11.7,1.3c-4.7,1-9,3.2-12.5,6.3c-0.4,0.2,0.3,1.5-0.1,1.8
			C16.2,6.7,22.3,4.1,28.9,4.1z"/>
		<path class="st28" d="M28.9,4.1H295c6.7,0,12.8,2.6,17.4,6.8c-0.4-0.3,0.1-1.7-0.4-2c-3.5-3-7.8-5.2-12.5-6.2
			c-1.7-0.8-9.9-1.2-11.9-1.2H36.3c-1.9,0-10,0.4-11.7,1.2c-4.7,1-9,3.1-12.6,6.1c-0.5,0.3,0.2,1.5-0.3,1.8
			C16.3,6.6,22.4,4.1,28.9,4.1z"/>
		<path class="st84" d="M28.9,4.1H295c6.6,0,12.6,2.5,17.2,6.6c-0.5-0.3-0.1-1.6-0.6-1.9c-3.6-3-7.9-5.1-12.6-6
			c-1.6-0.7-10.1-1.1-11.9-1.1H36.7C34.9,1.7,26.5,2,25,2.8c-4.7,0.9-9.1,3-12.6,5.9c-0.5,0.3,0.1,1.4-0.4,1.7
			C16.5,6.5,22.5,4.1,28.9,4.1z"/>
		<path class="st85" d="M28.9,4H295c6.5,0,12.5,2.4,17,6.4c-0.5-0.3-0.2-1.6-0.7-1.9c-3.6-2.9-7.9-4.9-12.6-5.8
			c-1.5-0.7-10.2-1.1-11.9-1.1H37c-1.7,0-10.2,0.4-11.7,1c-4.7,0.8-9.1,2.8-12.7,5.7c-0.5,0.3-0.1,1.4-0.6,1.7
			C16.7,6.4,22.5,4,28.9,4z"/>
		<path class="st86" d="M28.9,4H295c6.4,0,12.3,2.4,16.8,6.2c-0.5-0.4-0.3-1.6-0.9-1.9c-3.6-2.8-8-4.8-12.7-5.6
			c-1.3-0.6-10.3-1-11.8-1h-249c-1.5,0-10.3,0.3-11.6,0.9C21,3.5,16.7,5.5,13,8.3c-0.5,0.3-0.2,1.4-0.7,1.7C16.8,6.3,22.6,4,28.9,4z
			"/>
		<path class="st87" d="M28.9,4H295c6.3,0,12.1,2.3,16.6,6c-0.5-0.4-0.4-1.5-1-1.8c-3.7-2.8-8-4.7-12.7-5.4
			c-1.2-0.6-10.4-0.9-11.8-0.9H37.8c-1.4,0-10.4,0.3-11.6,0.8C21.4,3.5,17,5.3,13.4,8.1c-0.6,0.3-0.3,1.3-0.9,1.7
			C17,6.2,22.7,4,28.9,4z"/>
		<path class="st88" d="M28.9,3.9H295c6.2,0,11.9,2.2,16.4,5.8c-0.6-0.4-0.6-1.5-1.2-1.8c-3.7-2.7-8.1-4.5-12.8-5.2
			C296.4,2.3,287,2,285.7,2H38.1c-1.2,0-10.5,0.3-11.6,0.8c-4.8,0.6-9.1,2.4-12.8,5.2c-0.6,0.3-0.5,1.3-1,1.7
			C17.1,6.1,22.8,3.9,28.9,3.9z"/>
		<path class="st89" d="M28.9,3.9H295c6.1,0,11.8,2.1,16.2,5.7c-0.6-0.4-0.7-1.4-1.3-1.8c-3.7-2.7-8.1-4.4-12.8-5
			c-1-0.5-10.6-0.7-11.8-0.7H38.5c-1.1,0-10.6,0.2-11.6,0.7c-4.8,0.5-9.2,2.3-12.9,5c-0.6,0.3-0.6,1.3-1.2,1.7
			C17.3,6,22.9,3.9,28.9,3.9z"/>
		<path class="st90" d="M28.9,3.9H295c6,0,11.6,2.1,16,5.5c-0.6-0.4-0.8-1.4-1.5-1.7c-3.7-2.6-8.1-4.3-12.9-4.8
			c-0.9-0.4-10.8-0.6-11.8-0.6H38.9c-1,0-10.7,0.2-11.5,0.6C22.6,3.3,18.2,5,14.4,7.6c-0.7,0.4-0.7,1.2-1.4,1.6
			C17.5,5.9,23,3.9,28.9,3.9z"/>
		<path class="st91" d="M28.9,3.8H295c5.9,0,11.4,2,15.8,5.3c-0.7-0.4-0.9-1.3-1.6-1.7c-3.8-2.5-8.2-4.2-12.9-4.6
			c-0.7-0.3-10.9-0.5-11.7-0.5H39.3c-0.8,0-10.8,0.2-11.5,0.5c-4.8,0.4-9.2,2-13,4.6C14,7.8,13.9,8.6,13.2,9
			C17.6,5.8,23.1,3.8,28.9,3.8z"/>
		<path class="st92" d="M28.9,3.8H295c5.8,0,11.2,1.9,15.6,5.1c-0.7-0.5-1-1.3-1.8-1.7c-3.8-2.5-8.2-4-13-4.4
			c-0.6-0.3-11-0.4-11.7-0.4H39.6c-0.7,0-10.9,0.2-11.5,0.4c-4.8,0.3-9.2,1.9-13,4.4c-0.7,0.4-1,1.2-1.7,1.6
			C17.8,5.7,23.2,3.8,28.9,3.8z"/>
		<path class="st93" d="M28.9,3.8H295c5.7,0,11.1,1.8,15.4,4.9c-0.7-0.5-1.2-1.3-1.9-1.7c-3.8-2.4-8.3-3.9-13.1-4.2
			c-0.5-0.2-11.1-0.4-11.7-0.4H40c-0.6,0-11,0.1-11.5,0.3C23.7,3.1,19.3,4.6,15.4,7c-0.7,0.4-1.1,1.1-1.8,1.6
			C17.9,5.6,23.2,3.8,28.9,3.8z"/>
		<path class="st35" d="M28.9,3.8H295c5.6,0,10.9,1.7,15.2,4.7c-0.7-0.5-1.3-1.2-2.1-1.6c-3.9-2.3-8.3-3.8-13.1-4
			c-0.4-0.2-11.2-0.3-11.7-0.3H40.4c-0.4,0-11.1,0.1-11.5,0.3c-4.8,0.2-9.3,1.6-13.1,4c-0.8,0.4-1.3,1.1-2,1.6
			C18.1,5.5,23.3,3.8,28.9,3.8z"/>
		<path class="st94" d="M28.9,3.7H295c5.5,0,10.7,1.7,15,4.5c-0.8-0.5-1.4-1.2-2.2-1.6c-3.9-2.3-8.4-3.6-13.2-3.8
			c-0.2-0.1-11.3-0.2-11.6-0.2H40.7c-0.3,0-11.2,0.1-11.4,0.2C24.5,3,20,4.3,16.1,6.6c-0.8,0.4-1.4,1-2.2,1.6
			C18.3,5.4,23.4,3.7,28.9,3.7z"/>
		<path class="st95" d="M28.9,3.7H295c5.4,0,10.5,1.6,14.8,4.3c-0.8-0.5-1.5-1.1-2.4-1.6c-3.9-2.2-8.4-3.5-13.2-3.6
			c-0.1-0.1-11.5-0.1-11.6-0.1H41.1c-0.1,0-11.3,0-11.4,0.1c-4.8,0.1-9.3,1.4-13.2,3.6c-0.8,0.5-1.5,1-2.3,1.5
			C18.4,5.3,23.5,3.7,28.9,3.7z"/>
		<path class="st37" d="M295,3.7c5.3,0,10.4,1.5,14.7,4.1c-4.5-3.1-9.9-4.9-15.8-4.9H30.1c-5.8,0-11.3,1.8-15.8,4.9
			c4.3-2.6,9.3-4.1,14.7-4.1H295z"/>
	</g>
	<g>
		<path class="st68" d="M295.2,701.2H29.1c-8.3,0-15.8-3.9-20.7-10.1l-2.1,2.4c5.5,7.4,14.2,12.2,23.9,12.2H294
			c9.7,0,18.3-4.8,23.8-12.1l-2.5-2C310.5,697.5,303.2,701.2,295.2,701.2z"/>
		<path class="st70" d="M8.5,691.3c0,0-2,2.4-2,2.4c3.1,4,7.1,7.2,11.7,9.3c3.6,1.7,8.1,2.6,12.3,2.6h263.1c4.2,0,8.5-0.9,12.1-2.5
			c4.6-2,8.7-5.2,11.8-9.3c0,0-2.3-2-2.3-2c-4.9,5.7-12.1,9.3-20.1,9.3H29.1C20.8,701.2,13.5,697.3,8.5,691.3z"/>
		<path class="st71" d="M8.7,691.5c0.1,0-1.9,2.4-1.8,2.4c3.1,4,7.1,7.1,11.7,9.1c3.5,1.6,8.2,2.6,12.3,2.6h262.4
			c4,0,8.6-0.9,12.1-2.5c4.6-2,8.7-5.1,11.8-9.1c0.1,0-2.2-2-2.1-2c-4.9,5.6-12,9.2-19.9,9.2H29.1C20.9,701.2,13.6,697.5,8.7,691.5z
			"/>
		<path class="st19" d="M8.9,691.8c0.1,0.1-1.7,2.3-1.7,2.4c3.1,3.9,7.2,7,11.8,8.9c3.4,1.6,8.3,2.5,12.3,2.5h261.6
			c3.9,0,8.7-0.8,12-2.4c4.6-1.9,8.7-5,11.9-8.9c0.1,0-2.1-1.9-2-2c-4.9,5.5-11.9,9-19.7,9H29.1C21,701.3,13.8,697.6,8.9,691.8z"/>
		<path class="st72" d="M9.1,692c0.1,0.1-1.6,2.3-1.5,2.3c3.1,3.8,7.2,6.9,11.8,8.7c3.3,1.5,8.4,2.4,12.2,2.4h260.9
			c3.7,0,8.8-0.8,12-2.3c4.7-1.8,8.7-4.8,11.9-8.7c0.1-0.1-1.9-1.9-1.8-2c-4.8,5.4-11.8,8.8-19.5,8.8H29.1
			C21.1,701.3,14,697.7,9.1,692z"/>
		<path class="st73" d="M9.3,692.2c0.1,0.1-1.5,2.2-1.4,2.3c3.2,3.8,7.2,6.7,11.9,8.5c3.2,1.5,8.5,2.3,12.2,2.3h260.1
			c3.6,0,8.9-0.8,12-2.2c4.7-1.8,8.8-4.7,12-8.5c0.1-0.1-1.8-1.9-1.7-2c-4.8,5.3-11.7,8.6-19.4,8.6H29.1
			C21.2,701.3,14.2,697.8,9.3,692.2z"/>
		<path class="st21" d="M9.5,692.4c0.2,0.1-1.4,2.2-1.2,2.3c3.2,3.7,7.3,6.6,11.9,8.3c3,1.4,8.7,2.2,12.2,2.2h259.4
			c3.5,0,9-0.8,12-2.1c4.7-1.7,8.8-4.6,12-8.3c0.2-0.1-1.7-1.8-1.5-1.9c-4.8,5.2-11.6,8.5-19.2,8.5H29.1
			C21.3,701.3,14.3,697.9,9.5,692.4z"/>
		<path class="st74" d="M9.7,692.7c0.2,0.1-1.3,2.1-1.1,2.2c3.2,3.6,7.3,6.5,12,8.1c2.9,1.4,8.8,2.1,12.2,2.1h258.7
			c3.3,0,9.1-0.7,11.9-2c4.7-1.6,8.8-4.4,12.1-8.1c0.2-0.1-1.5-1.8-1.3-1.9c-4.8,5.1-11.5,8.3-19,8.3H29.1
			C21.4,701.4,14.5,698,9.7,692.7z"/>
		<path class="st75" d="M9.9,692.9c0.2,0.1-1.1,2.1-0.9,2.2c3.3,3.6,7.4,6.3,12,7.9c2.8,1.3,8.9,2,12.1,2h257.9
			c3.2,0,9.2-0.7,11.9-1.9c4.7-1.6,8.8-4.3,12.1-7.9c0.2-0.1-1.4-1.8-1.2-1.9c-4.8,5-11.4,8.1-18.8,8.1H29.1
			C21.5,701.4,14.7,698.1,9.9,692.9z"/>
		<path class="st76" d="M10.1,693.1c0.2,0.2-1,2-0.8,2.2c3.3,3.5,7.4,6.2,12.1,7.7c2.7,1.2,9,1.9,12.1,1.9h257.2
			c3.1,0,9.3-0.7,11.9-1.9c4.7-1.5,8.9-4.2,12.2-7.7c0.2-0.1-1.3-1.7-1-1.9c-4.7,4.9-11.4,8-18.6,8H29.1
			C21.6,701.4,14.9,698.2,10.1,693.1z"/>
		<path class="st77" d="M10.3,693.3c0.3,0.2-0.9,2-0.6,2.2c3.3,3.5,7.5,6.1,12.1,7.5c2.6,1.2,9.1,1.8,12.1,1.8h256.4
			c2.9,0,9.4-0.6,11.9-1.8c4.7-1.4,8.9-4,12.2-7.5c0.3-0.2-1.1-1.7-0.9-1.9c-4.7,4.8-11.3,7.8-18.5,7.8H29.1
			C21.7,701.5,15,698.3,10.3,693.3z"/>
		<path class="st78" d="M10.5,693.5c0.3,0.2-0.8,2-0.5,2.1c3.4,3.4,7.5,6,12.2,7.3c2.4,1.1,9.2,1.8,12.1,1.8H290
			c2.8,0,9.5-0.6,11.9-1.7c4.7-1.4,8.9-3.9,12.3-7.3c0.3-0.2-1-1.7-0.7-1.9c-4.7,4.7-11.2,7.6-18.3,7.6H29.1
			C21.8,701.5,15.2,698.4,10.5,693.5z"/>
		<path class="st79" d="M10.7,693.8c0.3,0.2-0.7,1.9-0.3,2.1c3.4,3.3,7.6,5.8,12.3,7.1c2.3,1.1,9.4,1.7,12,1.7h255
			c2.6,0,9.6-0.6,11.8-1.6c4.7-1.3,8.9-3.8,12.3-7.1c0.3-0.2-0.9-1.6-0.5-1.8c-4.7,4.6-11.1,7.4-18.1,7.4H29.1
			C21.9,701.5,15.4,698.5,10.7,693.8z"/>
		<path class="st80" d="M10.9,694c0.3,0.2-0.5,1.9-0.2,2.1c3.4,3.3,7.6,5.7,12.3,6.9c2.2,1,9.5,1.6,12,1.6h254.2
			c2.5,0,9.7-0.5,11.8-1.5c4.7-1.2,8.9-3.6,12.4-6.9c0.4-0.2-0.7-1.6-0.4-1.8c-4.7,4.5-11,7.3-17.9,7.3H29.1
			C22,701.6,15.6,698.7,10.9,694z"/>
		<path class="st81" d="M11.1,694.2c0.4,0.3-0.4,1.8,0,2c3.4,3.2,7.7,5.6,12.4,6.7c2.1,1,9.6,1.5,12,1.5h253.5
			c2.4,0,9.7-0.5,11.8-1.4c4.7-1.2,9-3.5,12.4-6.7c0.4-0.2-0.6-1.6-0.2-1.8c-4.6,4.4-10.9,7.1-17.7,7.1H29.1
			C22.1,701.6,15.7,698.8,11.1,694.2z"/>
		<path class="st82" d="M11.3,694.4c0.4,0.3-0.3,1.8,0.1,2c3.5,3.1,7.7,5.4,12.4,6.5c1.9,0.9,9.7,1.4,12,1.4h252.7
			c2.2,0,9.8-0.5,11.8-1.4c4.7-1.1,9-3.4,12.5-6.5c0.4-0.2-0.5-1.5-0.1-1.8c-4.6,4.3-10.8,6.9-17.5,6.9H29.1
			C22.2,701.6,15.9,698.9,11.3,694.4z"/>
		<path class="st83" d="M11.5,694.7c0.4,0.3-0.2,1.7,0.3,2c3.5,3.1,7.8,5.3,12.5,6.3c1.8,0.8,9.8,1.3,11.9,1.3h252
			c2.1,0,9.9-0.5,11.7-1.3c4.7-1,9-3.2,12.5-6.3c0.4-0.2-0.3-1.5,0.1-1.8c-4.6,4.2-10.7,6.7-17.4,6.7H29.1
			C22.3,701.7,16.1,699,11.5,694.7z"/>
		<path class="st28" d="M11.7,694.9c0.4,0.3-0.1,1.7,0.4,2c3.5,3,7.8,5.2,12.5,6.1c1.7,0.8,9.9,1.2,11.9,1.2h251.2
			c1.9,0,10-0.4,11.7-1.2c4.7-1,9-3.1,12.6-6.1c0.5-0.3-0.2-1.5,0.3-1.8c-4.6,4.1-10.6,6.6-17.2,6.6H29.1
			C22.4,701.7,16.3,699.1,11.7,694.9z"/>
		<path class="st84" d="M11.9,695.1c0.5,0.3,0.1,1.7,0.6,1.9c3.6,3,7.9,5.1,12.6,6c1.6,0.7,10.1,1.1,11.9,1.1h250.5
			c1.8,0,10.1-0.4,11.7-1.1c4.7-0.9,9.1-3,12.6-5.9c0.5-0.3-0.1-1.4,0.4-1.7c-4.6,4-10.5,6.4-17,6.4H29.1
			C22.5,701.7,16.4,699.2,11.9,695.1z"/>
		<path class="st85" d="M12.1,695.3c0.5,0.3,0.2,1.6,0.7,1.9c3.6,2.9,7.9,4.9,12.6,5.8c1.5,0.7,10.2,1.1,11.9,1.1h249.8
			c1.7,0,10.2-0.4,11.7-1c4.7-0.8,9.1-2.8,12.7-5.7c0.5-0.3,0.1-1.4,0.6-1.7c-4.5,3.9-10.4,6.2-16.8,6.2H29.1
			C22.6,701.7,16.6,699.3,12.1,695.3z"/>
		<path class="st86" d="M12.3,695.5c0.5,0.4,0.3,1.6,0.9,1.9c3.6,2.8,8,4.8,12.7,5.6c1.3,0.6,10.3,1,11.9,1h249
			c1.5,0,10.3-0.3,11.6-0.9c4.7-0.7,9.1-2.7,12.7-5.6c0.5-0.3,0.2-1.4,0.7-1.7c-4.5,3.8-10.3,6-16.6,6H29.1
			C22.7,701.8,16.8,699.4,12.3,695.5z"/>
		<path class="st87" d="M12.5,695.8c0.5,0.4,0.4,1.5,1,1.8c3.7,2.8,8,4.7,12.7,5.4c1.2,0.6,10.4,0.9,11.8,0.9h248.3
			c1.4,0,10.4-0.3,11.6-0.8c4.8-0.7,9.1-2.6,12.8-5.4c0.6-0.3,0.3-1.3,0.9-1.7c-4.5,3.6-10.2,5.9-16.5,5.9H29.1
			C22.8,701.8,17,699.5,12.5,695.8z"/>
		<path class="st88" d="M12.7,696c0.6,0.4,0.6,1.5,1.2,1.8c3.7,2.7,8,4.5,12.8,5.2c1.1,0.5,10.5,0.8,11.8,0.8H286
			c1.2,0,10.5-0.3,11.6-0.8c4.8-0.6,9.1-2.4,12.8-5.2c0.6-0.3,0.5-1.3,1-1.7c-4.5,3.5-10.1,5.7-16.3,5.7H29.1
			C22.9,701.8,17.1,699.6,12.7,696z"/>
		<path class="st89" d="M12.8,696.2c0.6,0.4,0.7,1.4,1.3,1.8c3.7,2.7,8.1,4.4,12.8,5c1,0.5,10.6,0.7,11.8,0.7h246.8
			c1.1,0,10.6-0.2,11.6-0.7c4.8-0.5,9.2-2.3,12.9-5c0.6-0.3,0.6-1.3,1.2-1.7c-4.5,3.4-10,5.5-16.1,5.5H29.1
			C23,701.9,17.3,699.7,12.8,696.2z"/>
		<path class="st90" d="M13,696.4c0.6,0.4,0.8,1.4,1.5,1.8c3.7,2.6,8.1,4.3,12.9,4.8c0.9,0.4,10.8,0.6,11.8,0.6h246.1
			c1,0,10.7-0.2,11.5-0.6c4.8-0.5,9.2-2.2,12.9-4.8c0.7-0.4,0.7-1.2,1.4-1.6c-4.4,3.3-10,5.3-15.9,5.3H29.1
			C23,701.9,17.5,699.9,13,696.4z"/>
		<path class="st91" d="M13.2,696.7c0.7,0.5,0.9,1.3,1.6,1.7c3.8,2.5,8.2,4.2,12.9,4.6c0.7,0.3,10.9,0.5,11.7,0.5h245.3
			c0.8,0,10.8-0.2,11.5-0.5c4.8-0.4,9.2-2,13-4.6c0.7-0.4,0.9-1.2,1.5-1.6c-4.4,3.2-9.9,5.2-15.7,5.2H29.1
			C23.1,701.9,17.7,700,13.2,696.7z"/>
		<path class="st92" d="M13.4,696.9c0.7,0.5,1,1.3,1.8,1.7c3.8,2.5,8.2,4,13,4.4c0.6,0.3,11,0.4,11.7,0.4h244.6
			c0.7,0,10.9-0.2,11.5-0.4c4.8-0.3,9.2-1.9,13-4.4c0.7-0.4,1-1.2,1.7-1.6c-4.4,3.1-9.8,5-15.6,5H29.1
			C23.2,702,17.8,700.1,13.4,696.9z"/>
		<path class="st93" d="M13.6,697.1c0.7,0.5,1.2,1.3,1.9,1.7c3.8,2.4,8.3,3.9,13.1,4.2c0.5,0.2,11.1,0.4,11.7,0.4h243.8
			c0.6,0,11-0.1,11.5-0.3c4.8-0.3,9.2-1.8,13.1-4.2c0.7-0.4,1.1-1.1,1.8-1.6c-4.4,3-9.7,4.8-15.4,4.8H29.1
			C23.3,702,18,700.2,13.6,697.1z"/>
		<path class="st35" d="M13.8,697.3c0.7,0.5,1.3,1.2,2.1,1.6c3.9,2.3,8.3,3.8,13.1,4c0.4,0.2,11.2,0.3,11.7,0.3h243.1
			c0.4,0,11.1-0.1,11.5-0.3c4.8-0.2,9.3-1.6,13.1-4c0.8-0.4,1.3-1.1,2-1.6c-4.4,2.9-9.6,4.6-15.2,4.6H29.1
			C23.4,702,18.2,700.3,13.8,697.3z"/>
		<path class="st94" d="M14,697.6c0.8,0.5,1.4,1.2,2.2,1.6c3.9,2.3,8.4,3.6,13.2,3.8c0.2,0.1,11.3,0.2,11.6,0.2h242.4
			c0.3,0,11.2-0.1,11.4-0.2c4.8-0.1,9.3-1.5,13.2-3.8c0.8-0.4,1.4-1,2.2-1.6c-4.3,2.8-9.5,4.5-15,4.5H29.1
			C23.5,702.1,18.4,700.4,14,697.6z"/>
		<path class="st95" d="M14.2,697.8c0.8,0.5,1.5,1.1,2.4,1.6c3.9,2.2,8.4,3.5,13.2,3.6c0.1,0.1,11.5,0.1,11.6,0.1H283
			c0.1,0,11.3,0,11.4-0.1c4.8-0.1,9.3-1.4,13.2-3.6c0.8-0.5,1.5-1,2.3-1.5c-4.3,2.7-9.4,4.3-14.8,4.3H29.1
			C23.6,702.1,18.5,700.5,14.2,697.8z"/>
		<path class="st37" d="M29.1,702.1c-5.3,0-10.4-1.5-14.7-4.1c4.5,3.1,9.9,4.9,15.8,4.9H294c5.8,0,11.3-1.8,15.8-4.9
			c-4.3,2.6-9.3,4.1-14.7,4.1H29.1z"/>
	</g>
	<path class="st37" d="M28.9,702.1c-5.3,0-10.4-1.5-14.7-4.1c4.5,3.1,9.9,4.9,15.8,4.9h263.8c5.8,0,11.3-1.8,15.8-4.9
		c-4.3,2.6-9.3,4.1-14.7,4.1H28.9z"/>
</g>
<g>
	<path class="st96" d="M168.4,24c0,3.1-2.5,5.7-5.7,5.7c-3.1,0-5.7-2.5-5.7-5.7c0-3.1,2.5-5.7,5.7-5.7
		C165.9,18.3,168.4,20.8,168.4,24z"/>
	<path d="M168,24c0,2.9-2.3,5.2-5.2,5.2c-2.9,0-5.2-2.3-5.2-5.2c0-2.9,2.3-5.2,5.2-5.2C165.6,18.8,168,21.1,168,24z"/>
	<path class="st97" d="M167.6,24c0,2.7-2.2,4.8-4.8,4.8c-2.7,0-4.8-2.2-4.8-4.8c0-2.7,2.2-4.8,4.8-4.8
		C165.4,19.1,167.6,21.3,167.6,24z"/>
	<path class="st98" d="M166.2,24c0,1.9-1.6,3.5-3.5,3.5c-1.9,0-3.5-1.6-3.5-3.5c0-1.9,1.6-3.5,3.5-3.5C164.7,20.5,166.2,22,166.2,24
		z"/>
	<g>
		<g>
			<path class="st37" d="M166.1,23.9c0,1.9-1.5,3.5-3.5,3.5c-1.9,0-3.5-1.5-3.5-3.5c0-1.9,1.5-3.5,3.5-3.5
				C164.5,20.4,166.1,22,166.1,23.9z"/>
			<path class="st99" d="M166,23.9c0,1.9-1.5,3.4-3.4,3.4c-1.9,0-3.4-1.5-3.4-3.4c0-1.9,1.5-3.4,3.4-3.4C164.5,20.5,166,22,166,23.9
				z"/>
			<path class="st93" d="M165.9,23.9c0,1.8-1.5,3.3-3.3,3.3c-1.8,0-3.3-1.5-3.3-3.3c0-1.8,1.5-3.3,3.3-3.3
				C164.4,20.6,165.9,22.1,165.9,23.9z"/>
			<path class="st100" d="M165.8,23.9c0,1.8-1.4,3.2-3.2,3.2c-1.8,0-3.2-1.4-3.2-3.2c0-1.8,1.4-3.2,3.2-3.2
				C164.4,20.7,165.8,22.1,165.8,23.9z"/>
			<path class="st101" d="M165.7,23.9c0,1.7-1.4,3.1-3.1,3.1c-1.7,0-3.1-1.4-3.1-3.1c0-1.7,1.4-3.1,3.1-3.1
				C164.4,20.8,165.7,22.2,165.7,23.9z"/>
			<path class="st102" d="M165.7,23.9c0,1.7-1.3,3-3,3c-1.7,0-3-1.3-3-3c0-1.7,1.3-3,3-3C164.3,20.9,165.7,22.2,165.7,23.9z"/>
			<path class="st103" d="M165.6,23.9c0,1.6-1.3,2.9-2.9,2.9c-1.6,0-2.9-1.3-2.9-2.9c0-1.6,1.3-2.9,2.9-2.9
				C164.3,21,165.6,22.3,165.6,23.9z"/>
			<path class="st104" d="M165.5,23.9c0,1.6-1.3,2.8-2.8,2.8c-1.6,0-2.8-1.3-2.8-2.8c0-1.6,1.3-2.8,2.8-2.8
				C164.2,21.1,165.5,22.3,165.5,23.9z"/>
			<path class="st105" d="M165.4,23.9c0,1.5-1.2,2.7-2.7,2.7c-1.5,0-2.7-1.2-2.7-2.7c0-1.5,1.2-2.7,2.7-2.7
				C164.2,21.2,165.4,22.4,165.4,23.9z"/>
			<path class="st106" d="M165.3,23.9c0,1.5-1.2,2.7-2.6,2.7c-1.5,0-2.6-1.2-2.6-2.7c0-1.5,1.2-2.6,2.6-2.6
				C164.1,21.3,165.3,22.4,165.3,23.9z"/>
			<path class="st107" d="M165.2,23.9c0,1.4-1.1,2.6-2.6,2.6c-1.4,0-2.6-1.1-2.6-2.6c0-1.4,1.1-2.6,2.6-2.6
				C164.1,21.3,165.2,22.5,165.2,23.9z"/>
			<path class="st108" d="M165.1,23.9c0,1.4-1.1,2.5-2.5,2.5c-1.4,0-2.5-1.1-2.5-2.5c0-1.4,1.1-2.5,2.5-2.5
				C164,21.4,165.1,22.5,165.1,23.9z"/>
			<path class="st109" d="M165.1,23.9c0,1.3-1.1,2.4-2.4,2.4c-1.3,0-2.4-1.1-2.4-2.4c0-1.3,1.1-2.4,2.4-2.4
				C164,21.5,165.1,22.6,165.1,23.9z"/>
			<path class="st110" d="M165,23.9c0,1.3-1,2.3-2.3,2.3c-1.3,0-2.3-1-2.3-2.3c0-1.3,1-2.3,2.3-2.3C164,21.6,165,22.7,165,23.9z"/>
			<path class="st111" d="M164.9,23.9c0,1.2-1,2.2-2.2,2.2c-1.2,0-2.2-1-2.2-2.2c0-1.2,1-2.2,2.2-2.2
				C163.9,21.7,164.9,22.7,164.9,23.9z"/>
			<path class="st112" d="M164.8,23.9c0,1.2-0.9,2.1-2.1,2.1c-1.2,0-2.1-0.9-2.1-2.1c0-1.2,0.9-2.1,2.1-2.1
				C163.9,21.8,164.8,22.8,164.8,23.9z"/>
			<path class="st113" d="M164.7,23.9c0,1.1-0.9,2-2,2c-1.1,0-2-0.9-2-2c0-1.1,0.9-2,2-2C163.8,21.9,164.7,22.8,164.7,23.9z"/>
			<path class="st114" d="M164.6,23.9c0,1.1-0.9,1.9-1.9,1.9c-1.1,0-1.9-0.9-1.9-1.9c0-1.1,0.9-1.9,1.9-1.9
				C163.8,22,164.6,22.9,164.6,23.9z"/>
			<path class="st115" d="M164.6,23.9c0,1-0.8,1.8-1.8,1.8c-1,0-1.8-0.8-1.8-1.8c0-1,0.8-1.8,1.8-1.8
				C163.7,22.1,164.6,22.9,164.6,23.9z"/>
			<path class="st116" d="M164.5,23.9c0,1-0.8,1.8-1.8,1.8c-1,0-1.7-0.8-1.7-1.8c0-1,0.8-1.8,1.7-1.8
				C163.7,22.2,164.5,23,164.5,23.9z"/>
			<path class="st117" d="M164.4,23.9c0,0.9-0.7,1.7-1.7,1.7c-0.9,0-1.7-0.7-1.7-1.7c0-0.9,0.7-1.7,1.7-1.7
				C163.6,22.3,164.4,23,164.4,23.9z"/>
			<path d="M164.3,23.9c0,0.9-0.7,1.6-1.6,1.6c-0.9,0-1.6-0.7-1.6-1.6c0-0.9,0.7-1.6,1.6-1.6C163.6,22.4,164.3,23.1,164.3,23.9z"/>
		</g>
		
			<image style="overflow:visible;" width="23" height="23" xlink:href="BFFC18EF.png"  transform="matrix(0.24 0 0 0.24 159.9862 21.2077)">
		</image>
	</g>
	<g>
		<path class="st69" d="M162.7,20.5c-1.5,0-2.7,0.9-3.2,2.2h6.5C165.5,21.4,164.2,20.5,162.7,20.5z"/>
		<path class="st118" d="M158.4,24c0,1.1,0.4,2.1,1.1,2.9l0.6-0.7c-0.5-0.6-0.8-1.4-0.8-2.2c0-0.5,0.1-0.9,0.3-1.3h-1
			C158.4,23.1,158.4,23.5,158.4,24z"/>
		<path class="st118" d="M162.7,27.5c-0.3,0-0.7-0.1-1-0.1l-0.3,0.8c0.4,0.1,0.8,0.2,1.3,0.2c0.6,0,1.1-0.1,1.6-0.3l-0.4-0.8
			C163.6,27.4,163.2,27.5,162.7,27.5z"/>
		<path class="st119" d="M162.7,19.6c-2,0-3.6,1.3-4.2,3.1h1c0.5-1.3,1.8-2.2,3.2-2.2c1.5,0,2.7,0.9,3.2,2.2h1
			C166.4,20.9,164.7,19.6,162.7,19.6z"/>
		<path class="st118" d="M166,22.7c0.2,0.4,0.2,0.8,0.2,1.3c0,1-0.4,1.9-1.1,2.6l0.5,0.8c0.9-0.8,1.5-2,1.5-3.3
			c0-0.4-0.1-0.9-0.2-1.3H166z"/>
	</g>
	<g class="st120">
		<linearGradient id="SVGID_1_" gradientUnits="userSpaceOnUse" x1="162.7395" y1="23.9633" x2="162.1702" y2="23.394">
			<stop  offset="0" style="stop-color:#000000"/>
			<stop  offset="1" style="stop-color:#FFFFFF"/>
		</linearGradient>
		<path class="st121" d="M162.7,19.1c-2.7,0-4.8,2.2-4.8,4.8c0,1.3,0.6,2.6,1.4,3.4l6.8-6.8C165.3,19.7,164.1,19.1,162.7,19.1z"/>
	</g>
</g>
</svg>
