<svg class="small-notch" version="1.1" xmlns="http://www.w3.org/2000/svg" xmlns:xlink="http://www.w3.org/1999/xlink" x="0px" y="0px"
	 viewBox="0 0 34.8 7" style="enable-background:new 0 0 34.8 7;" xml:space="preserve">
<path class="bdt-ds-color-1" d="M15.4,0C9,0,6.5,0,0,0v0h0.3c1.1,0,2,0.9,2,2c0,2.7,2.2,5,5,5h8.1h12.1c2.8,0,5-2.3,5-5c0-1.1,0.9-2,2-2h0.3v0
	C28.4,0,21.9,0,15.4,0z"/>
<path class="bdt-ds-color-2" d="M22.8,2.4H12c-0.4,0-0.7-0.3-0.7-0.7l0,0C11.3,1.3,11.6,1,12,1h10.8c0.4,0,0.7,0.3,0.7,0.7l0,0
	C23.6,2,23.2,2.4,22.8,2.4z"/>
<path class="bdt-ds-color-2" d="M27.9,1.7c0,0.6-0.5,1.1-1.1,1.1s-1.1-0.5-1.1-1.1s0.5-1.1,1.1-1.1C27.4,0.6,27.9,1.1,27.9,1.7z"/>
</svg>
