<svg version="1.1" xmlns="http://www.w3.org/2000/svg" xmlns:xlink="http://www.w3.org/1999/xlink" x="0px" y="0px" viewBox="0 0 199.8 154" style="enable-background:new 0 0 199.8 154;" xml:space="preserve">
<g class="bdt-ds-buttons">
	<path class="bdt-ds-color-1" d="M18,0.5c-0.1,0.1-0.1,0.2-0.1,0.4c-0.1,0.2-0.1,0.4-0.1,0.6c0,0.3,0.2,0.6,0.8,0.6
		c0.4,0,0.8,0,1.2,0c2.5,0-0.3,0,2.2,0c0.3,0,2,0,2.4,0c0.6,0,0.8-0.3,0.8-0.6c0-0.2,0-0.4-0.1-0.6c0-0.1-0.1-0.3-0.1-0.4
		C24.8,0.2,24.8,0,24.4,0c-3.1,0-2.2,0-5.3,0C18.4,0,18.2,0,18,0.5z"/>
	<path class="bdt-ds-color-1" d="M0.5,21c0.1,0.1,0.2,0.1,0.4,0.2s0.4,0.2,0.6,0.2c0.3,0,0.6-0.3,0.6-1.1c0-0.6,0-1.1,0-1.7
		c0-3.5,0,0.4,0-3c0-0.5,0-2.8,0-3.2c0-0.8-0.3-1.1-0.6-1.1c-0.2,0-0.4,0.1-0.6,0.2c-0.2,0-0.3,0-0.4,0.1C0.2,11.8,0,11.9,0,12.5
		c0,4.3,0,3.1,0,7.3C0.1,20.4,0.1,20.7,0.5,21z"/>
	<path class="bdt-ds-color-1" d="M27.9,0.5c-0.1,0.1-0.1,0.2-0.1,0.4c-0.1,0.1-0.2,0.4-0.2,0.6c0,0.3,0.2,0.6,0.8,0.6
		c0.4,0,0.8,0,1.2,0c2.5,0-0.3,0,2.2,0c0.3,0,2,0,2.4,0c0.6,0,0.8-0.3,0.8-0.6c0-0.2,0-0.4-0.1-0.6c0-0.1-0.1-0.3-0.1-0.4
		C34.6,0.2,34.6,0,34.2,0c-3.1,0-2.2,0-5.3,0C28.3,0,28.1,0,27.9,0.5z"/>
</g>

<path class="bdt-ds-color-1" d="M10.6,0.6c-0.2,0-0.5,0-0.8,0.1c-0.3,0-0.7,0.1-1.1,0.2c-0.8,0.2-1.6,0.5-2.5,1C5.4,2.4,4.5,3,3.7,3.8
	C3,4.5,2.4,5.4,1.9,6.2c-0.4,0.9-0.8,1.7-1,2.5C0.8,9.1,0.8,9.5,0.7,9.8c0,0.3-0.1,0.6-0.1,0.8c0,0.5,0,0.7,0,0.7v131.3
	c0,0,0,0.3,0,0.7c0,0.2,0,0.5,0.1,0.8c0,0.3,0.1,0.7,0.2,1.1c0.2,0.8,0.5,1.6,1,2.5s1.1,1.7,1.8,2.5c0.8,0.7,1.6,1.4,2.5,1.9
	c0.9,0.4,1.7,0.8,2.5,1c0.4,0.1,0.7,0.2,1.1,0.2c0.3,0.1,0.6,0.1,0.8,0.1c0.5,0,0.7,0,0.7,0h177.2c0,0,0.3,0,0.7,0
	c0.2,0,0.5,0,0.8-0.1c0.3,0,0.7-0.1,1.1-0.2c0.8-0.2,1.6-0.5,2.5-1s1.7-1.1,2.5-1.9c0.7-0.8,1.4-1.6,1.8-2.5c0.4-0.9,0.8-1.7,1-2.5
	c0.1-0.4,0.2-0.7,0.2-1.1c0-0.3,0.1-0.6,0.1-0.8c0-0.5,0-0.7,0-0.7l0,0c0,0,0-43.7,0-131.2c0-2.8-1.1-5.2-2.4-6.8
	c-1.4-1.6-2.9-2.6-4.2-3.1s-2.4-0.7-3.1-0.8c-0.7,0-1.1-0.1-1.1-0.1l-177.1,0C11.3,0.6,11.1,0.6,10.6,0.6z M189.8,7.7
	c1.3,0,2.4,1.1,2.4,2.4v133.8c0,1.3-1.1,2.4-2.4,2.4H10.1c-1.3,0-2.4-1.1-2.4-2.4V10.1c0-1.3,1.1-2.4,2.4-2.4H189.8z"/>

<g class="bdt-ds-notch">
	<path class="bdt-ds-color-2" d="M4.3,75.6c0.8,0,1.4,0.6,1.4,1.4s-0.6,1.4-1.4,1.4S2.9,77.8,2.9,77
		C2.9,76.2,3.6,75.6,4.3,75.6z"/>
</g>
</svg>
