<svg version="1.1" xmlns="http://www.w3.org/2000/svg" xmlns:xlink="http://www.w3.org/1999/xlink" x="0px" y="0px"
	 viewBox="0 0 154 199.9" style="enable-background:new 0 0 154 199.9;" xml:space="preserve">
<g class="bdt-ds-buttons">
	<path class="bdt-ds-color-1" d="M153.5,18c-0.1-0.1-0.2-0.1-0.4-0.1c-0.2-0.1-0.4-0.1-0.6-0.1c-0.3,0-0.6,0.2-0.6,0.8
		c0,0.4,0,0.8,0,1.2c0,2.5,0-0.3,0,2.2c0,0.3,0,2,0,2.4c0,0.6,0.3,0.8,0.6,0.8c0.2,0,0.4,0,0.6-0.1c0.1,0,0.3-0.1,0.4-0.1
		c0.3-0.2,0.5-0.2,0.5-0.6c0-3.1,0-2.2,0-5.3C154,18.4,153.9,18.2,153.5,18z"/>
	<path class="bdt-ds-color-1" d="M133,0.5c-0.1,0.1-0.1,0.2-0.2,0.4c-0.1,0.2-0.2,0.4-0.2,0.6c0,0.3,0.3,0.6,1.1,0.6
		c0.6,0,1.1,0,1.7,0c3.5,0-0.4,0,3,0c0.5,0,2.8,0,3.2,0c0.8,0,1.1-0.3,1.1-0.6c0-0.2-0.1-0.4-0.2-0.6c-0.1-0.1-0.1-0.3-0.2-0.4
		C142.1,0.2,142,0,141.4,0c-4.3,0-3.1,0-7.3,0C133.6,0.1,133.3,0.1,133,0.5z"/>
	<path class="bdt-ds-color-1" d="M153.5,27.9c-0.1-0.1-0.2-0.1-0.4-0.1c-0.2-0.1-0.4-0.1-0.6-0.1c-0.3,0-0.6,0.2-0.6,0.8
		c0,0.4,0,0.8,0,1.2c0,2.5,0-0.3,0,2.2c0,0.3,0,2,0,2.4c0,0.6,0.3,0.8,0.6,0.8c0.2,0,0.4,0,0.6-0.1c0.1,0,0.3-0.1,0.4-0.1
		c0.3-0.2,0.5-0.2,0.5-0.6c0-3.1,0-2.2,0-5.3C154,28.3,153.9,28.1,153.5,27.9z"/>
</g>

<path class="bdt-ds-color-1" d="M153.3,10.6c0-0.2,0-0.5-0.1-0.8c0-0.3-0.1-0.7-0.2-1.1c-0.2-0.8-0.5-1.6-1-2.5s-1.1-1.7-1.9-2.5
	c-0.8-0.7-1.6-1.4-2.5-1.8s-1.7-0.8-2.5-1c-0.4-0.1-0.7-0.2-1.1-0.2c-0.1,0-0.4-0.1-0.6-0.1c-0.5,0-0.7,0-0.7,0H11.4
	c0,0-0.3,0-0.7,0c-0.2,0-0.5,0-0.8,0.1c-0.3,0-0.7,0.1-1.1,0.2C8,1.1,7.2,1.4,6.3,1.9S4.5,3,3.8,3.7C3,4.5,2.4,5.4,1.9,6.2
	c-0.4,0.9-0.8,1.7-1,2.5C0.8,9.1,0.8,9.5,0.7,9.8c0,0.3-0.1,0.6-0.1,0.8c0,0.5,0,0.7,0,0.7v177.2c0,0,0,0.3,0,0.7
	c0,0.2,0,0.5,0.1,0.8c0,0.3,0.1,0.7,0.2,1.1c0.2,0.8,0.5,1.6,1,2.5s1.1,1.7,1.9,2.5c0.8,0.7,1.6,1.4,2.5,1.8c0.9,0.4,1.7,0.8,2.5,1
	c0.4,0.1,0.7,0.2,1.1,0.2c0.3,0,0.6,0.1,0.8,0.1c0.5,0,0.7,0,0.7,0l0,0c0,0,43.7,0,131.2,0c2.8,0,5.2-1.1,6.8-2.4
	c1.6-1.4,2.6-2.9,3.1-4.2s0.7-2.4,0.8-3.1c0-0.7,0.1-1.1,0.1-1.1V11.3C153.4,11.3,153.4,11.1,153.3,10.6z M146.3,189.8
	c0,1.3-1.1,2.4-2.4,2.4H10.1c-1.3,0-2.4-1.1-2.4-2.4V10.1c0-1.3,1.1-2.4,2.4-2.4h133.8c1.3,0,2.4,1.1,2.4,2.4V189.8z"/>

<g class="bdt-ds-notch">
	<path class="bdt-ds-color-2" d="M78.4,4.3c0,0.8-0.6,1.4-1.4,1.4s-1.4-0.6-1.4-1.4s0.6-1.4,1.4-1.4
		C77.8,2.9,78.4,3.6,78.4,4.3z"/>
</g>
</svg>
