<svg xmlns="http://www.w3.org/2000/svg" xmlns:xlink="http://www.w3.org/1999/xlink" id="Layer_1" x="0px" y="0px" viewBox="0 0 859 772" style="enable-background:new 0 0 859 772;" xml:space="preserve">
<style type="text/css">
	.st0{opacity:0.1;}
	.st1{fill:#FFFFFF;}
	.st2{fill:#115CFA;}
	.st3{fill:#8BAFFC;}
	.st4{fill:#F6F6F6;}
	.st5{fill:#F0F0F0;}
	.st6{fill:#F5F5F5;}
	.st7{fill:#D5D5D5;}
	.st8{opacity:0.8;fill:#FFFFFF;enable-background:new    ;}
	.st9{opacity:0.1;fill:#C7C7C7;enable-background:new    ;}
	.st10{opacity:0.4;fill:#8BAFFC;enable-background:new    ;}
	.st11{opacity:0.4;fill:#FFFFFF;enable-background:new    ;}
	.st12{fill:#FFD6CF;}
	.st13{fill:#263238;}
	.st14{opacity:0.2;enable-background:new    ;}
	.st15{fill:#EBB376;}
	.st16{fill:#407BFF;}
	.st17{opacity:0.6;fill:#FFFFFF;enable-background:new    ;}
	.st18{fill:#E4897B;}
	.st19{fill:#CCCCCC;}
	.st20{fill:#DDDDDD;}
	.st21{opacity:0.2;fill:#115CFA;enable-background:new    ;}
	.st22{fill:#2768EF;}
	.st23{opacity:0.2;fill:#FB2D00;enable-background:new    ;}
	.st24{fill:none;stroke:#263238;stroke-width:0.5;stroke-linecap:round;stroke-linejoin:round;stroke-miterlimit:10;}
	.st25{fill:#FFAC9E;}
	.st26{fill:none;stroke:#263238;stroke-width:0.7247;stroke-linecap:round;stroke-linejoin:round;stroke-miterlimit:10;}
	.st27{fill:#316EED;}
	.st28{fill:#E2E2E2;}
	.st29{fill:#EBEBEB;}
	.st30{opacity:0.5;}
	.st31{fill:none;stroke:#8BAFFC;stroke-width:4;}
	.st32{opacity:0.6;fill:#8BAFFC;enable-background:new    ;}
	.st33{fill:none;stroke:#FFFFFF;stroke-width:4;}
	.st34{fill:none;stroke:#FFFFFF;stroke-width:12;}
	.st35{opacity:0.3;fill:#FFFFFF;enable-background:new    ;}
	.st36{opacity:0.8;fill:#F4F4F4;enable-background:new    ;}
	.st37{fill:#E52A3F;}
	.st38{fill:url(#SVGID_1_);}
	.st39{fill:#FF8264;}
	.st40{clip-path:url(#SVGID_3_);}
	.st41{fill:url(#SVGID_4_);}
	.st42{fill:url(#SVGID_5_);}
	.st43{fill:#CDE7FF;}
	.st44{fill:#DAEDFF;}

	
		.rotate-element {
			-webkit-animation: rotation 10s infinite linear;
			transform-origin: center center;
		}

		@-webkit-keyframes rotation {
			0% {
					-webkit-transform: scale(1);
			}
			50% {
					-webkit-transform: scale(1.1);
			}
			100% {
					-webkit-transform: scale(1);
			}
		
		}


		.rotate-element-2 {
			-webkit-animation: rotation 5s infinite linear;
			transform-origin: center center;
		}

		@-webkit-keyframes rotation {
			0% {
					-webkit-transform: (1);
			}
			50% {
					-webkit-transform: Push(1.1);
			}
			100% {
					-webkit-transform: Push(1);
			}
		
		}


		.rotate-element-3 {
			-webkit-animation: rotation 10s infinite linear;
			transform-origin:  bottom;
		}

		@-webkit-keyframes rotation {
			0% {
					-webkit-transform: scaleDown(1);
			}
			70% {
					-webkit-transform: scaleDown(1.7);
			}
			100% {
					-webkit-transform: scaleDown(1.1);
			}
		
		} 

		.rotate-element-4 {
			-webkit-animation: rotation 20s infinite linear;
			transform-origin: center bottom;
		}

		@-webkit-keyframes rotation {
			0% {
					-webkit-transform: scale(1);
			}
			70% {
					-webkit-transform: scale(1.1);
			}
			100% {
					-webkit-transform: scale(1);
			}
		
		}

		.rotate-element-5 {
			-webkit-animation: bounce 10s infinite linear;
			transform-origin: center bottom;
		}

		@-webkit-keyframes bounce {
			0% {
					-webkit-transform: scaleY(1);
			}
			70% {
					-webkit-transform: scaleY(1.1);
			}
			100% {
					-webkit-transform: scaleY(1);
			}
		
		}

	


</style>
<g class="st0">
	<rect x="562" class="st1" width="230" height="483"></rect>
	<path class="st2" d="M776.2,0H577.6C569,0,562,7,562,15.6v451.8c0,8.6,7,15.6,15.6,15.6h198.6c8.6,0,15.6-7,15.6-15.6V15.6   C792,7,785,0,776.2,0z M610.9,54.3c0-3.1,2.4-5.5,5.5-5.5h41.9c3.1,0,5.5,2.4,5.5,5.5v41.8c0,3.1-2.4,5.5-5.5,5.5h-41.9   c-3.1,0-5.5-2.4-5.5-5.5V54.3z M610.9,138.6c0-3.1,2.4-5.5,5.5-5.5h41.9c3.1,0,5.5,2.4,5.5,5.5v41.8c0,3.1-2.4,5.5-5.5,5.5h-41.9   c-3.1,0-5.5-2.4-5.5-5.5V138.6z M743.1,264.7c0,3.1-2.4,5.5-5.5,5.5H616.4c-3.1,0-5.5-2.4-5.5-5.5v-41.8c0-3.1,2.4-5.5,5.5-5.5   h121.2c3.1,0,5.5,2.4,5.5,5.5L743.1,264.7L743.1,264.7z M743.1,180.4c0,3.1-2.4,5.5-5.5,5.5h-41.9c-3.1,0-5.5-2.4-5.5-5.5v-41.8   c0-3.1,2.4-5.5,5.5-5.5h41.9c3.1,0,5.5,2.4,5.5,5.5V180.4z M743.1,96.1c0,3.1-2.4,5.5-5.5,5.5h-41.9c-3.1,0-5.5-2.4-5.5-5.5V54.3   c0-3.1,2.4-5.5,5.5-5.5h41.9c3.1,0,5.5,2.4,5.5,5.5V96.1z"></path>
</g>
<g class="st0">
	<rect x="375" y="71" class="st1" width="230" height="456"></rect>
	<path class="st2" d="M589.2,71H390.6C382,71,375,77.6,375,85.7v426.5c0,8.1,7,14.7,15.6,14.7h198.6c8.6,0,15.6-6.6,15.6-14.7V85.7   C605,77.6,598,71,589.2,71z M423.9,122.3c0-2.9,2.4-5.2,5.5-5.2h41.9c3.1,0,5.5,2.3,5.5,5.2v39.5c0,2.9-2.4,5.2-5.5,5.2h-41.9   c-3.1,0-5.5-2.3-5.5-5.2V122.3z M423.9,201.9c0-2.9,2.4-5.2,5.5-5.2h41.9c3.1,0,5.5,2.3,5.5,5.2v39.5c0,2.9-2.4,5.2-5.5,5.2h-41.9   c-3.1,0-5.5-2.3-5.5-5.2V201.9z M556.1,320.9c0,2.9-2.4,5.2-5.5,5.2H429.4c-3.1,0-5.5-2.3-5.5-5.2v-39.5c0-2.9,2.4-5.2,5.5-5.2   h121.2c3.1,0,5.5,2.3,5.5,5.2V320.9z M556.1,241.3c0,2.9-2.4,5.2-5.5,5.2h-41.9c-3.1,0-5.5-2.3-5.5-5.2v-39.5   c0-2.9,2.4-5.2,5.5-5.2h41.9c3.1,0,5.5,2.3,5.5,5.2V241.3z M556.1,161.8c0,2.9-2.4,5.2-5.5,5.2h-41.9c-3.1,0-5.5-2.3-5.5-5.2v-39.5   c0-2.9,2.4-5.2,5.5-5.2h41.9c3.1,0,5.5,2.3,5.5,5.2V161.8z"></path>
</g>
<path class="st3" d="M201,460.1c0,0-7.4-16.3,1-32.2c8.5-16.1,10.9-19.8,5.6-23.1c-5.4-3.3-7.8,12.8-7.8,12.8s-4.5-11.2-0.8-22.7  c3.7-11.6,6.2-30.4,1-32.4c-5.2-2.1-1,23.6-5.4,32.2c0,0-3.7-9.7-4.3-19s0.4-24.2-3.7-27.9c-4.1-3.7-6.6-1.2-2.7,19.4  c3.9,20.5,3.9,37.2,3.9,37.2s-8.9-26.9-14.7-27.7c-6-0.8-6,7.9-0.8,15.5s14.9,21.1,16.5,28.1c0,0-9.7-20.2-18.4-14.1  c-8.7,6.2,7.6,18.4,14.9,22.9c7.2,4.3,12.4,32.2,12.4,32.2L201,460.1z"></path>
<path class="st3" d="M195,466.9c0,0,7.2-16.3-1.4-32.2c-8.7-15.9-11.2-19.6-5.8-22.9s8.1,12.6,8.1,12.6s4.3-11.2,0.6-22.7  c-3.9-11.6-6.6-30.4-1.4-32.4c5.2-2.1,1.2,23.6,5.8,32.2c0,0,3.7-9.7,4.1-19c0.4-9.3-0.6-24.2,3.3-28.1c3.9-3.9,6.6-1.2,2.9,19.4  c-3.7,20.7-3.5,37.4-3.5,37.4s8.3-27.2,14.3-28s6,7.9,1,15.5S208.3,420,206.9,427c0,0,9.5-20.5,18.2-14.3c8.9,6-7.4,18.6-14.7,23.1  c-7.2,4.5-12,32.4-12,32.4L195,466.9z"></path>
<path class="st3" d="M228.4,455.1h-59.9l5,43h50.2L228.4,455.1z"></path>
<path class="st4" d="M20.2,497.1v171.5h12.4V521.9h196.2v146.7h14.5V497.1H20.2z"></path>
<path class="st4" d="M133.8,497.1v171.5h12.4V521.9h196.2v146.7h14.5V497.1H133.8z"></path>
<path class="st5" d="M398.2,600.8L392,600c1-7.6,7.6-22.3,24.2-22.3c19.6,0,29.3,11.4,30.4,22.5l-6.2,0.6  c-0.8-8.5-8.5-16.9-24.2-16.9C400.9,583.8,398.2,600.2,398.2,600.8z"></path>
<path class="st4" d="M470.7,667.3H370.1c-5.6,0-9.9-4.5-9.9-9.9v-52.1c0-5.6,4.5-9.9,9.9-9.9h100.6c5.6,0,9.9,4.5,9.9,9.9v52.1  C480.6,663,476.1,667.3,470.7,667.3z"></path>
<path class="st5" d="M446.3,668.6c-85.1,0-89.4-58.5-89.4-59.1l3.5-6.8c0.2,2.3,6.8,59.7,85.9,59.7c32.6,0,60.7,0,63.6-6.2  c2.5-5.6-9.7-19.6-29.3-42.2v-8.7c25,28.7,39,44.2,34.9,53.3C511.2,668.2,492.4,668.6,446.3,668.6z"></path>
<path class="st6" d="M172.5,772c95.3,0,172.5-10.5,172.5-23.5S267.8,725,172.5,725S0,735.5,0,748.5S77.2,772,172.5,772z"></path>
<path class="st7" d="M791.9,181.3v345.9c0,8.1-6.6,14.7-14.5,14.7H287.9c-8.1,0-14.7-6.6-14.7-14.7V181.3c0-8.1,6.6-14.7,14.7-14.7  h489.5C785.3,166.7,791.9,173.3,791.9,181.3z"></path>
<path class="st8" d="M791.9,181.3v345.9c0,8.1-6.6,14.7-14.5,14.7H287.9c-8.1,0-14.7-6.6-14.7-14.7V181.3c0-8.1,6.6-14.7,14.7-14.7  h489.5C785.3,166.7,791.9,173.3,791.9,181.3z"></path>
<path class="st9" d="M791.9,181.3v26.9H273.3v-26.9c0-8.1,6.6-14.7,14.7-14.7h489.5C785.3,166.7,791.9,173.3,791.9,181.3z"></path>
<path class="st10" d="M774.6,188.8c0,4.3-3.5,7.6-7.6,7.6c-4.3,0-7.6-3.5-7.6-7.6c0-4.3,3.5-7.6,7.6-7.6  C771.3,181.1,774.6,184.6,774.6,188.8z"></path>
<path class="st10" d="M746.7,188.8c0,4.3-3.5,7.6-7.6,7.6c-4.3,0-7.6-3.5-7.6-7.6c0-4.3,3.5-7.6,7.6-7.6  C743.4,181.1,746.7,184.6,746.7,188.8z"></path>
<path class="st10" d="M718.8,188.8c0,4.3-3.5,7.6-7.6,7.6c-4.3,0-7.6-3.5-7.6-7.6c0-4.3,3.5-7.6,7.6-7.6  C715.5,181.1,718.8,184.6,718.8,188.8z"></path>
<path class="st11" d="M782.4,211H282.8v297.4h499.7L782.4,211L782.4,211z"></path>
<path class="st12" d="M257.1,480.5l12.4-9.7c0,0,0.6-5.6,3.3-7c2.7-1.4,13.8-6,16.3-5.8c2.7,0.2,3.5,10.5,2.7,12.2  s-16.9,6.4-16.9,6.4L260,491.3L257.1,480.5z"></path>
<path class="st3" d="M265.8,487.6c0,0-16.1,21.1-39.9,32.2c-8.1,3.7-16.9,7.2-25.2,10.3c-16.1,5.8-29.7,9.7-29.7,9.7l-3.5-13.2  l-3.1-11.8c18.6-4.5,47.7-9.7,59.1-15.5c11.4-5.8,29.7-19.6,33.3-20.5C256.9,478.9,263.8,483.6,265.8,487.6z"></path>
<path class="st3" d="M256.9,478.9l5.2-4.1l8.7,7.2l-5,5.6L256.9,478.9z"></path>
<path class="st10" d="M201,530.1c-16.1,5.8-29.7,9.7-29.7,9.7l-3.5-13.2C167.9,526.6,185.7,525.8,201,530.1z"></path>
<path class="st13" d="M170.2,628.7l9.9,30.2c30.6-7.2,110.3-22.1,122.3,11.6c15.1,41.9-93.4,75.2-153.3,77.3s-91.5-31.2-53.7-118.6  L170.2,628.7z"></path>
<path class="st14" d="M170.2,628.7l9.9,30.2c30.6-7.2,110.3-22.1,122.3,11.6c15.1,41.9-93.4,75.2-153.3,77.3s-91.5-31.2-53.7-118.6  L170.2,628.7z"></path>
<path class="st13" d="M285,729.7c-0.2,0-0.4,0-0.4,0c-0.2,0-0.2-0.2-0.2-0.4c0.2-0.6,2.3-6.4,4.1-7c0.4-0.2,0.8,0,1.2,0.4  c0.6,0.4,0.8,1.2,0.6,1.9c-0.4,1-1,2.1-1.9,2.7C287.7,728.1,286.5,728.9,285,729.7z M285.6,728.5c1.9-0.8,3.3-2.3,4.3-4.1  c0.2-0.4,0-1-0.4-1.2c-0.2-0.2-0.2-0.2-0.4-0.2s-0.4,0.2-0.4,0.2C287.3,724.8,286.3,726.6,285.6,728.5z"></path>
<path class="st13" d="M285,729.7c-0.2,0-0.2,0-0.4-0.2c-0.2-0.2-2.9-3.7-2.5-6c0.2-0.6,0.4-1,1-1.4c0.4-0.4,1-0.4,1.7-0.2  c1.4,1,1.2,5.8,0.6,7.4L285,729.7C285,729.7,285.2,729.7,285,729.7z M283.4,722.9c-0.2,0.2-0.4,0.4-0.4,0.8c-0.2,1.4,1,3.7,1.9,4.8  c0.4-2.1,0.2-5.4-0.6-5.8C284.2,722.7,284,722.5,283.4,722.9z"></path>
<path class="st13" d="M179.7,739.4c0-0.2,0.2-0.2,0.4-0.2s0.2,0.2,0.2,0.2c0.2,0.6,1.2,6.6-0.2,8.3c-0.4,0.2-0.8,0.4-1.2,0.2  c-0.8-0.2-1.2-0.6-1.7-1.4c-0.2-1-0.2-2.3,0.4-3.3C178.2,742.1,178.9,740.7,179.7,739.4z M179.9,740.7c-1.2,1.7-1.9,3.7-1.7,5.6  c0.2,0.4,0.6,0.8,1,0.8c0.2,0,0.4,0,0.4-0.2c0.2-0.2,0.2-0.2,0.2-0.4C180.3,744.8,180.3,742.7,179.9,740.7z"></path>
<path class="st15" d="M218.9,709.1l-24.6,8.9l-11.8,4.1l2.9,13l11.6-2.5l27.9-6L218.9,709.1z"></path>
<path class="st3" d="M188.8,735.7l-2.1-15.3c-0.2-0.8-0.8-1.4-1.9-1.2l-7.6,1.2c0,0-10.3,1-12.4,3.5c-6,7.6-2.3,41.7,1.7,42.8  c1.4,0.4,2.9-1.7,3.7-2.9c2.1-4.3,5.6-15.9,7.2-19.4c2.1-4.3,7.4-6.4,9.9-7C188.4,737.2,188.8,736.5,188.8,735.7z"></path>
<path class="st13" d="M179.9,739.4c0-0.2,0.2-0.2,0.4,0c0.2,0,4.3,1.9,5.2,4.1c0.2,0.6,0.2,1.2-0.2,1.7c-0.2,0.6-0.8,1-1.2,0.8  c-1.9-0.2-3.9-4.3-4.1-6.2L179.9,739.4C179.7,739.4,179.7,739.4,179.9,739.4z M184.4,744.6c0.2-0.4,0.2-0.6,0-1  c-0.4-1.4-2.7-2.7-3.9-3.3c0.6,2.1,2.3,4.8,3.3,5C184,745.2,184.2,745.2,184.4,744.6z"></path>
<path class="st14" d="M218.9,709.1l-24.6,8.9l2.7,14.7l27.9-6L218.9,709.1z"></path>
<path class="st16" d="M201.4,734.9l7,0.4l-4.8-24.4l-8.1,4.5L201.4,734.9z"></path>
<path class="st17" d="M201.4,734.9l7,0.4l-4.8-24.4l-8.1,4.5L201.4,734.9z"></path>
<path class="st14" d="M98.5,640l37,40.9c0,0,40.9-0.8,90.5,23.3c0,0,53.3-21.9,58-40.3c5-18.2-111.7-5.4-111.7-5.4L98.5,640z"></path>
<path class="st3" d="M170.2,628.7l-45,0.2l-29.7,0.2c1.7-18.2,2.1-47.1-0.6-69.2c-0.8-7.9-2.3-14.9-3.9-20c-0.6-2.3-1.4-4.5-2.3-6.8  c-1-3.3,0.8-6.6,3.9-7.6c7.2-2.1,14.7-3.7,22.3-5c10.1-1.9,20.2-2.9,30.6-3.3c13.2,0,28.5,1.4,28.5,1.4s2.1,0.6,3.5,14.7  C178.9,544.8,183.2,579.3,170.2,628.7z"></path>
<path class="st1" d="M153,562.8c21.1-6.4,21.6,29.7-0.4,34.7S132.9,568.9,153,562.8z"></path>
<path class="st10" d="M95.6,629.1c1.7-18.2,2.1-47.1-0.6-69.2c9.3,13,25.4,39.5,30.2,69L95.6,629.1z"></path>
<g>
	<path class="st2" d="M149.6,586.9l1.9-21.2c0-0.5-0.2-1.2-0.5-1.6l-5.1-3.7c-0.4-0.2-0.7-0.1-0.7,0.5l-2.7,30.2   c0,0.5,0.2,1.2,0.5,1.6l5,4.1c0.4,0.4,1.1,0.3,1.5,0l16.1-11.5c0.4-0.3,0.8-1,0.8-1.7l0.7-8.1c0-0.5-0.3-1.2-0.7-1.4l-10.6-6.8   c-0.4-0.2-0.8-0.1-0.9,0.6l-0.6,7.2c0,0.5,0.3,1.2,0.7,1.4l4.1,2.6c0.4,0.2,0.3,0.7,0,1L149.6,586.9z"></path>
</g>
<path class="st18" d="M144.2,656c0,0,18.6,12.2,20.9,13c2.1,1,15.9,4.3,19.8,4.1c3.9-0.2-1.2-12.6-4.8-14.3  c-3.3-1.7-15.7,0.6-15.7,0.6l-14.5-11L144.2,656z"></path>
<path class="st19" d="M271.8,669v6c0,1.7-1.9,2.3-3.3,2.3H147c-1.7,0-3.5-0.6-3.5-2.3v-6H271.8z"></path>
<path class="st11" d="M271.8,669v6c0,1.7-1.9,2.3-3.3,2.3H147c-1.7,0-3.5-0.6-3.5-2.3v-6H271.8z"></path>
<path class="st14" d="M271.8,669v6c0,1.7-1.9,2.3-3.3,2.3h-80.1c-1.7,0-3.3-0.6-3.3-2.3v-6H271.8z"></path>
<path class="st20" d="M292,606l-14.5,65.5c-0.4,2.1-2.5,3.7-4.8,3.7H194c-2.1,0-3.5-1.9-2.9-4.1l14.5-65.1c0.4-2.1,2.5-3.3,4.8-3.3  h78.9C291.2,602.9,292.5,603.9,292,606z"></path>
<path class="st11" d="M292,606l-14.5,65.5c-0.4,2.1-2.5,3.7-4.8,3.7h-76c-2.1,0-3.5-1.9-2.9-4.1l14.5-65.1c0.4-2.1,2.5-3.3,4.8-3.3  h76.2C291.2,602.9,292.5,603.9,292,606z"></path>
<path class="st21" d="M253.2,639.2c0,5.6-6,10.1-10.3,10.1s-7-4.5-5.8-10.1s5.6-9.9,9.9-10.1c-1.2,5.6,1.4,10.1,5.8,10.1H253.2z"></path>
<path class="st15" d="M236.1,737.2l25.8,4.3l12.4,2.1l3.7-12.8l-11.4-3.5l-27.3-8.3L236.1,737.2z"></path>
<path class="st3" d="M275.5,728.5l-5.6,14.5c-0.4,0.8,0,1.7,0.8,2.1l7.2,2.5c0,0,9.5,4.1,12.6,2.9c8.9-3.9,22.1-35.3,19.2-38.2  c-1-1-3.3,0-4.5,0.8c-3.9,2.9-12.6,11.2-15.7,13.4c-3.7,2.7-9.7,1.9-12.2,1.2C276.4,727.5,275.7,727.9,275.5,728.5z"></path>
<path class="st14" d="M236.1,737.2l25.8,4.3l4.8-14.3l-27.3-8.3L236.1,737.2z"></path>
<path class="st13" d="M262.3,724.6c0,0-105.3-59.3-141.7-57.4c-36.4,1.7-41.5,33.7-26.6,53.7c15.1,20,42.8,25,42.8,25  s-18.8-26.7-16.1-34.1s13.4,2.9,13.4,2.9s66.3,21.5,124.1,26.2L262.3,724.6z"></path>
<path class="st16" d="M264,722.9l-6-3.9l-7.6,23.6h9.3L264,722.9z"></path>
<path class="st17" d="M264,722.9l-6-3.9l-7.6,23.6h9.3L264,722.9z"></path>
<path class="st18" d="M108.4,523.1c-3.7,5.4,43,14.3,43,14.3s27.3-17.8-4.5-20.5C140.2,516.3,114.4,514.6,108.4,523.1z"></path>
<path class="st22" d="M152.8,547.5c0,0,25.2-20.9,12.2-33.3c-13-12.4-74.4-18-69.2,10.3c0,0,7.8-2.3,15.9,5.4  C128.5,545.8,152.8,547.5,152.8,547.5z"></path>
<path class="st23" d="M150.8,541.5c0,0,14.3-11.2,9.3-21.1c-5-9.9-34.7-20.9-56-7.2c0,0,5.6,2.5,14,9.7S150.8,541.5,150.8,541.5z"></path>
<path class="st12" d="M118.1,522.9c0,0,6.8,9.7,32.6,18.4c0,0,11.6-14.7-6-21.3c0,0-3.7-1-4.3-7c-0.4-2.7-0.2-6.6,1.7-12  c0.2-0.6,0.4-1.2,0.6-1.9l-21.3-13.2C121.4,485.9,128.9,513,118.1,522.9z"></path>
<path class="st14" d="M126.2,493.8c0,0,1,15.1,14.3,19.6c-0.4-2.7-0.2-6.6,1.7-12C134.2,497.1,126.2,493.8,126.2,493.8z"></path>
<path class="st24" d="M124.5,496.2c0,0-16.9,6.8-22.9-1.2"></path>
<path class="st24" d="M153.9,450.6c0,0,7.2-8.9-1-17.6c-8.3-8.9-20.2-1.2-20.2-1.2"></path>
<path class="st24" d="M153,451.2c0,0,11.4-7.6,3.5-16.1"></path>
<path class="st13" d="M153.2,449.1c0,0,2.7-17.8-16.3-23.6c-19-5.8-38.4,13-38.4,13s-14.7,60.8,26,57.4  C165.2,492.9,153.2,449.1,153.2,449.1z"></path>
<path class="st12" d="M131.8,442.9c17.6-1.7,24,7.2,27.1,25.2c3.7,22.5,0.2,39.1-22.1,36.2C106.2,500.4,102.6,445.6,131.8,442.9z"></path>
<path class="st25" d="M147.3,468.1c0,0,2.9,4.3,5.8,6.8c0,0-1.2,2.5-4.3,2.5L147.3,468.1z"></path>
<path class="st13" d="M136.5,467.7c0.2,1.4-0.4,2.7-1.4,2.9c-1,0.2-1.9-1-2.1-2.5c-0.2-1.4,0.4-2.7,1.4-2.9  C135.3,465.2,136.3,466.3,136.5,467.7z"></path>
<path class="st13" d="M134,465.4l2.9-1.7C136.9,463.8,135.7,466.7,134,465.4z"></path>
<path class="st13" d="M154.3,465.2c0.2,1.4-0.4,2.7-1.4,2.9c-1,0.2-1.9-1-2.1-2.5c-0.2-1.4,0.4-2.7,1.4-2.9  C153.2,462.8,154.1,463.8,154.3,465.2z"></path>
<path class="st13" d="M151.8,463l2.9-1.7C154.9,461.3,153.7,464.2,151.8,463z"></path>
<path class="st26" d="M135.1,455.5c0,0-5-0.2-7.4,3.3"></path>
<path class="st26" d="M147.9,453.7c0,0,2.9-1.4,7,0.8"></path>
<path class="st13" d="M115.2,474.1c0,0,6.8-15.1,4.5-26.2c0,0,33.5-17.4,38.4,17.6c0,0,0.4-31.6-29.7-29.5  c-30.2,2.1-26,46.3-9.1,57.9C119.4,494,111.1,483.6,115.2,474.1z"></path>
<path class="st18" d="M118.5,477.6c-0.4-2.9-3.7-7.2-8.9-6.2c-5.4,1-7,12.4,6.8,13.8C118.3,485.5,119.4,483.4,118.5,477.6z"></path>
<path class="st13" d="M151.4,484c-1,2.1-1.9,6-1.9,6c-0.4,0-0.8,0-1,0c-5-0.4-7.2-2.3-8.1-4.1c-0.4-1-0.6-2.1-0.6-3.1  s0.2-1.7,0.2-1.7c2.5,1.9,7.2,2.5,9.7,2.9C150.8,484,151.4,484,151.4,484z"></path>
<path class="st1" d="M149.7,483.8l-0.6,1.7c-4.8-0.4-8.1-1.4-9.3-2.9c0-1,0.2-1.7,0.2-1.7C142.5,482.8,147.3,483.6,149.7,483.8z"></path>
<path class="st25" d="M148.3,490c-5-0.4-7.2-2.3-8.1-4.1c1.7,0.2,3.7,0.6,5.4,1.7C147,488,147.9,489,148.3,490z"></path>
<path class="st13" d="M106.4,436.1c0,0,8.5-13.4-5.8-18.8s-28.1,13-19.6,25.8c8.7,12.8,22.3,8.1,22.3,8.1L106.4,436.1z"></path>
<path class="st24" d="M107.2,434.2c0,0,9.1-11,1-17.8"></path>
<path class="st24" d="M98.7,450.6c0,0-3.7,6.8-13.6,1.4s-9.3-22.3,0-23.3"></path>
<path class="st14" d="M145.4,542.9c0,0.8-0.6,1.4-1.4,1.4c-0.8,0-1.4-0.6-1.4-1.4c0-0.8,0.6-1.4,1.4-1.4  C144.8,541.5,145.4,542.1,145.4,542.9z"></path>
<path class="st14" d="M159.6,538.8c0,0.8-0.6,1.4-1.4,1.4c-0.8,0-1.4-0.6-1.4-1.4c0-0.8,0.6-1.4,1.4-1.4  C159,537.4,159.6,538,159.6,538.8z"></path>
<path class="st13" d="M172.9,553.1c0,0.8-0.6,1.4-1.4,1.4c-0.8,0-1.4-0.6-1.4-1.4c0-0.8,0.6-1.4,1.4-1.4  C172.2,551.6,172.9,552.2,172.9,553.1z"></path>
<path class="st13" d="M142.1,560.3c0,0.8-0.6,1.4-1.4,1.4c-0.8,0-1.4-0.6-1.4-1.4c0-0.8,0.6-1.4,1.4-1.4  C141.5,558.8,142.1,559.5,142.1,560.3z"></path>
<path class="st24" d="M158.2,539.2c0,0,6-0.2,6.8,6.6s6,7.4,6,7.4"></path>
<path class="st24" d="M144.4,542.7c0,0,3.9,3.7,0,7.6c-3.9,3.9-3.5,9.3-3.5,9.3"></path>
<path class="st16" d="M89.4,527.8c14.9-12,9.3,55.2,16.1,70.3c7,15.3,48.5,51.2,48.5,51.2l-8.9,10.1c0,0-50.8-28.1-58-46.9  C78.5,588.8,78.7,536.5,89.4,527.8z"></path>
<path class="st3" d="M89.4,527.8c14.9-12,9.3,55.2,16.1,70.3c7,15.3,48.5,51.2,48.5,51.2l-8.9,10.1c0,0-50.8-28.1-58-46.9  C78.5,588.8,78.7,536.5,89.4,527.8z"></path>
<path class="st3" d="M154.3,649.3l5.8,5l-7.8,9.5l-6.8-4.3L154.3,649.3z"></path>
<rect x="167" y="455" class="st27" width="63" height="7"></rect>
<path class="st28" d="M427.8,342h61.8c2.6,0,4.7,2.1,4.7,4.7l0,0c0,2.6-2.1,4.7-4.7,4.7h-61.8c-2.6,0-4.7-2.1-4.7-4.7l0,0  C423.2,344.1,425.2,342,427.8,342z"></path>
<path class="st29" d="M425.7,363.1H523c1.4,0,2.5,1.1,2.5,2.5l0,0c0,1.4-1.1,2.5-2.5,2.5h-97.3c-1.4,0-2.5-1.1-2.5-2.5l0,0  C423.2,364.3,424.3,363.1,425.7,363.1z"></path>
<path class="st29" d="M425.7,372.5h82.1c1.4,0,2.5,1.1,2.5,2.5l0,0c0,1.4-1.1,2.5-2.5,2.5h-82.1c-1.4,0-2.5-1.1-2.5-2.5l0,0  C423.2,373.6,424.3,372.5,425.7,372.5z"></path>
<path class="st29" d="M425.7,381.8h65.2c1.4,0,2.5,1.1,2.5,2.5l0,0c0,1.4-1.1,2.5-2.5,2.5h-65.2c-1.4,0-2.5-1.1-2.5-2.5l0,0  C423.2,382.9,424.3,381.8,425.7,381.8z"></path>
<g class="st30 rotate-element">
	<path class="st1" d="M317.3,326.7h88.2c2.8,0,5,2.2,5,5V397c0,2.8-2.2,5-5,5h-88.2c-2.8,0-5-2.2-5-5v-65.3   C312.3,329,314.5,326.7,317.3,326.7z"></path>
	<path class="st31" d="M317.3,328.7h88.2c1.7,0,3,1.3,3,3V397c0,1.7-1.3,3-3,3h-88.2c-1.7,0-3-1.3-3-3v-65.3   C314.3,330.1,315.6,328.7,317.3,328.7z"></path>
	<path class="st3" d="M312.3,380.8c0-1.6,0.8-3.1,2.1-4l24.6-17.9c2-1.4,4.7-1.2,6.4,0.5l16.6,16.3c1.6,1.6,4,1.9,6,0.8l16.5-9.5   c1.6-0.9,3.5-0.9,5.1,0.1l18.5,11.3c1.5,0.9,2.4,2.5,2.4,4.3v14.5c0,2.8-2.2,5-5,5h-88.2c-2.8,0-5-2.2-5-5V380.8z"></path>
	<path class="st32" d="M372.9,352.4c0,3.4-2.8,6.2-6.2,6.2s-6.2-2.8-6.2-6.2c0-3.4,2.8-6.2,6.2-6.2   C370.1,346.3,372.9,349,372.9,352.4z"></path>
</g>
<g class="st30">
	<path class="st3" d="M666.5,342h61.8c2.6,0,4.7,2.1,4.7,4.7l0,0c0,2.6-2.1,4.7-4.7,4.7h-61.8c-2.6,0-4.7-2.1-4.7-4.7l0,0   C661.9,344.1,663.9,342,666.5,342z"></path>
	<path class="st3" d="M664.4,363.1h97.3c1.4,0,2.5,1.1,2.5,2.5l0,0c0,1.4-1.1,2.5-2.5,2.5h-97.3c-1.4,0-2.5-1.1-2.5-2.5l0,0   C661.9,364.3,663,363.1,664.4,363.1z"></path>
	<path class="st3" d="M664.4,372.5h82.1c1.4,0,2.5,1.1,2.5,2.5l0,0c0,1.4-1.1,2.5-2.5,2.5h-82.1c-1.4,0-2.5-1.1-2.5-2.5l0,0   C661.9,373.6,663,372.5,664.4,372.5z"></path>
	<path class="st3" d="M664.4,381.8h65.2c1.4,0,2.5,1.1,2.5,2.5l0,0c0,1.4-1.1,2.5-2.5,2.5h-65.2c-1.4,0-2.5-1.1-2.5-2.5l0,0   C661.9,382.9,663,381.8,664.4,381.8z"></path>
	<path class="st3" d="M556,326.7h88.2c2.8,0,5,2.2,5,5V397c0,2.8-2.2,5-5,5H556c-2.8,0-5-2.2-5-5v-65.3   C551,329,553.2,326.7,556,326.7z"></path>
	<path class="st33" d="M556,328.7h88.2c1.7,0,3,1.3,3,3V397c0,1.7-1.3,3-3,3H556c-1.7,0-3-1.3-3-3v-65.3   C553,330.1,554.3,328.7,556,328.7z"></path>
	<path class="st8 rotate-element" d="M551,380.8c0-1.6,0.8-3.1,2.1-4l24.6-17.9c2-1.4,4.7-1.2,6.4,0.5l16.6,16.3c1.6,1.6,4,1.9,6,0.8l16.5-9.5   c1.6-0.9,3.5-0.9,5.1,0.1l18.5,11.3c1.5,0.9,2.4,2.5,2.4,4.3v14.5c0,2.8-2.2,5-5,5H556c-2.8,0-5-2.2-5-5V380.8z"></path>
	<path class="st17 rotate-element" d="M611.6,352.4c0,3.4-2.8,6.2-6.2,6.2s-6.2-2.8-6.2-6.2c0-3.4,2.8-6.2,6.2-6.2   C608.8,346.3,611.6,349,611.6,352.4z"></path>
</g>
<path class="st3" d="M411.2,141.4h162.7c2.8,0,5,2.2,5,5v122.5c0,2.8-2.2,5-5,5H411.2c-2.8,0-5-2.2-5-5V146.4  C406.2,143.6,408.5,141.4,411.2,141.4z"></path>
<path class="st34" d="M411.2,141.4h162.7c2.8,0,5,2.2,5,5v122.5c0,2.8-2.2,5-5,5H411.2c-2.8,0-5-2.2-5-5V146.4  C406.2,143.6,408.5,141.4,411.2,141.4z"></path>
<path class="st35 rotate-element" d="M406.2,234.5c0-1.6,0.8-3.1,2.1-4l47.4-34.5c2-1.4,4.7-1.2,6.4,0.5l33.6,32.9c1.6,1.6,4,1.9,6,0.8l33.5-19.2  c1.6-0.9,3.5-0.9,5.1,0.1l36.2,22.2c1.5,0.9,2.4,2.5,2.4,4.3v31.3c0,2.8-2.2,5-5,5H411.2c-2.8,0-5-2.2-5-5V234.5z"></path>
<path class="st17 rotate-element" d="M512.8,186.5c0,6-4.9,10.9-10.9,10.9c-5.9,0-10.9-4.9-10.9-10.9s4.9-10.9,10.9-10.9  C507.9,175.7,512.8,180.5,512.8,186.5z"></path>
<path class="st36" d="M211,277h44c2.8,0,5,2.2,5,5v43c0,2.8-2.2,5-5,5h-44c-2.8,0-5-2.2-5-5v-43C206,279.2,208.2,277,211,277z"></path>
<path class="st37 rotate-element-3" d="M657,438h58c2.8,0,5,2.2,5,5v59c0,2.8-2.2,5-5,5h-58c-2.8,0-5-2.2-5-5v-59C652,440.2,654.2,438,657,438z"></path>
<linearGradient id="SVGID_1_" gradientUnits="userSpaceOnUse" x1="286.5845" y1="77.3093" x2="351.3837" y2="142.1085">
	<stop offset="0" style="stop-color:#E93F3E"></stop>
	<stop offset="1" style="stop-color:#D91C35"></stop>
</linearGradient>

<path class="st38 rotate-element-2" d="M290.6,75.8h58c2.8,0,5,2.2,5,5v59c0,2.8-2.2,5-5,5h-58c-2.8,0-5-2.2-5-5v-59C285.6,78,287.8,75.8,290.6,75.8z  "></path>
<path class="st4 rotate-element-4" d="M595,615h58c2.8,0,5,2.2,5,5v58c0,2.8-2.2,5-5,5h-58c-2.8,0-5-2.2-5-5v-58C590,617.2,592.2,615,595,615z"></path>

<path class="st39 rotate-element-4" d="M622,565h59c2.8,0,5,2.2,5,5v58c0,2.8-2.2,5-5,5h-59c-2.8,0-5-2.2-5-5v-58C617,567.2,619.2,565,622,565z"></path>

<path class="st2 rotate-element" d="M492.5,461.3h79.7c2.8,0,5,2.2,5,5V546c0,2.8-2.2,5-5,5h-79.7c-2.8,0-5-2.2-5-5v-79.7  C487.5,463.6,489.7,461.3,492.5,461.3z"></path>
<g>
	<g>
		<defs>
			<rect id="SVGID_2_" x="515.2" y="485.7" width="35.4" height="42.1"></rect>
		</defs>
		<clipPath id="SVGID_3_">
			<use xlink:href="#SVGID_2_" style="overflow:visible;"></use>
		</clipPath>
		<g class="st40 rotate-element">
			<path class="st1" d="M525.5,516.1v-24.7c0-0.7-0.5-1.5-1.1-1.8l-8.1-3.8c-0.6-0.3-1.1,0-1.1,0.7v35.2c0,0.7,0.5,1.5,1.1,1.8     l8.2,4.2c0.6,0.3,1.6,0.3,2.1-0.1l22.9-14.9c0.6-0.4,1-1.2,1-1.9v-9.7c0-0.7-0.5-1.4-1.2-1.7l-16.9-6.8c-0.6-0.3-1.1,0.1-1.1,0.8     v8.4c0,0.7,0.5,1.4,1.1,1.7l6.5,2.6c0.6,0.3,0.7,0.8,0.1,1.1L525.5,516.1z"></path>
		</g>
	</g>
</g>
<linearGradient id="SVGID_4_" gradientUnits="userSpaceOnUse" x1="724.4384" y1="17.3261" x2="668.8094" y2="-36.2469" gradientTransform="matrix(1 0 0 1 0 272)">
	<stop offset="1.331950e-07" style="stop-color:#08AEEC"></stop>
	<stop offset="1" style="stop-color:#20E2AD"></stop>
</linearGradient>
<path class="st41 rotate-element-5" d="M727.9,297h-61.7c-1.7,0-3.2-1.4-3.2-3.2v-61.7c0-1.7,1.4-3.2,3.2-3.2h61.7c1.7,0,3.2,1.4,3.2,3.2v61.6  C731,295.6,729.6,297,727.9,297z"></path>
<path class="st1 rotate-element-5" d="M687,282.5h-5.9c-0.6,0-1.1-0.5-1.1-1.1v-36.8c0-0.6,0.5-1.1,1.1-1.1h5.9c0.6,0,1.1,0.5,1.1,1.1v36.8  C688.1,282,687.6,282.5,687,282.5z"></path>
<path class="st1 rotate-element-5" d="M714,244.6v6.2c0,0.6-0.5,1.1-1.1,1.1h-20.6c-0.6,0-1.1-0.5-1.1-1.1v-6.2c0-0.6,0.5-1.1,1.1-1.1h20.6  C713.5,243.5,714,244,714,244.6z"></path>
<path class="st1 rotate-element-5" d="M714,259.9v6.2c0,0.6-0.5,1.1-1.1,1.1h-20.6c-0.6,0-1.1-0.5-1.1-1.1v-6.2c0-0.6,0.5-1.1,1.1-1.1h20.6  C713.5,258.8,714,259.3,714,259.9z"></path>
<path class="st1 rotate-element-5" d="M714,275.2v6.2c0,0.6-0.5,1.1-1.1,1.1h-20.6c-0.6,0-1.1-0.5-1.1-1.1v-6.2c0-0.6,0.5-1.1,1.1-1.1h20.6  C713.5,274.1,714,274.6,714,275.2z"></path>
<path class="st1 rotate-element-5" d="M707,243.5h5.9c0.6,0,1.1,0.5,1.1,1.1v21.5c0,0.6-0.5,1.1-1.1,1.1H707c-0.6,0-1.1-0.5-1.1-1.1v-21.5  C706,244,706.4,243.5,707,243.5z"></path>
<linearGradient id="SVGID_5_" gradientUnits="userSpaceOnUse" x1="306.647" y1="-40.7091" x2="239.655" y2="25.3129" gradientTransform="matrix(1 0 0 1 0 272)">
	<stop offset="0" style="stop-color:#FC6A2C"></stop>
	<stop offset="1" style="stop-color:#FE516B"></stop>
</linearGradient>
<path class="st42 rotate-element" d="M304.2,299h-62.5c-1.5,0-2.8-1.2-2.8-2.8v-63.4c0-1.6,1.2-2.8,2.8-2.8h62.5c1.5,0,2.8,1.2,2.8,2.8v63.4  C307,297.8,305.8,299,304.2,299z"></path>
<path class="st1 rotate-element" d="M286.9,254.1H259c-0.7,0-1.4-0.6-1.4-1.4v-4.1c0-0.8,0.6-1.4,1.4-1.4h27.9c0.7,0,1.4,0.6,1.4,1.4v4.1  C288.3,253.5,287.7,254.1,286.9,254.1z"></path>
<path class="st1 rotate-element" d="M286.9,268H259c-0.7,0-1.4-0.6-1.4-1.4v-4.1c0-0.8,0.6-1.4,1.4-1.4h27.9c0.7,0,1.4,0.6,1.4,1.4v4.1  C288.3,267.3,287.7,268,286.9,268z"></path>
<path class="st1 rotate-element" d="M273.3,281.8H259c-0.7,0-1.4-0.6-1.4-1.4v-4.1c0-0.8,0.6-1.4,1.4-1.4h14.3c0.7,0,1.4,0.6,1.4,1.4v4.1  C274.7,281.1,274.1,281.8,273.3,281.8z"></path>
<path class="st1 rotate-element" d="M263.1,268H259c-0.7,0-1.4-0.6-1.4-1.4v-17.9c0-0.8,0.6-1.4,1.4-1.4h4.1c0.7,0,1.4,0.6,1.4,1.4v17.9  C264.5,267.3,263.9,268,263.1,268z"></path>
<path class="st1 rotate-element" d="M286.9,281.8h-4.1c-0.7,0-1.4-0.6-1.4-1.4v-17.9c0-0.8,0.6-1.4,1.4-1.4h4.1c0.7,0,1.4,0.6,1.4,1.4v17.9  C288.3,281.1,287.7,281.8,286.9,281.8z"></path>
<path class="st3 rotate-element-5" d="M314.7,428l-3.1,3.2l4.6,4.7l3.1-3.2L314.7,428L314.7,428z M355.3,428l-4.6,4.7l3.1,3.2l4.6-4.7L355.3,428  L355.3,428z M335,429.4c-0.7,0-1.5,0.1-2.2,0.1c0,0,0,0-0.1,0c-9,1-16.1,8.4-17.4,17.6c-1,7.3,2,14,6.9,18.3c2,1.8,3.4,4.2,3.9,6.8  v13.5h5c0.8,1.3,2.2,2.3,3.8,2.3s3-0.9,3.8-2.3h5v-9h0.2V474c0-3.3,1.7-6.6,4.4-9.2c3.7-3.7,6.4-9.1,6.4-15.2  C354.9,438.5,345.9,429.3,335,429.4L335,429.4z M335,433.9c8.6-0.1,15.5,7,15.5,15.7c0,4.7-2.1,8.9-5.1,11.9l0.1,0.1  c-3,2.8-4.9,6.5-5.4,10.6h-9.7c-0.5-3.9-2.1-7.6-5.2-10.3c-3.9-3.4-6.2-8.5-5.5-14.2c1-7.1,6.6-12.8,13.6-13.6  C333.8,434,334.4,433.9,335,433.9L335,433.9z M304,449.6v4.5h6.6v-4.5H304z M359.4,449.6v4.5h6.6v-4.5H359.4z M316.2,467.9l-4.6,4.7  l3.1,3.2l4.6-4.7L316.2,467.9z M353.8,467.9l-3.1,3.2l4.6,4.7l3.1-3.2L353.8,467.9z M330.6,476.7h8.9v4.5h-8.9V476.7z"></path>
<path class="st43" d="M792.4,601.6c0.4-2.1,7.6-52.1-7-69.2c-3.3-3.7-7.2-5.8-12-6c-29.3-0.6-33.3,22.7-33.3,23.1l3.5,0.6  c0.2-0.8,3.5-20.7,29.7-20c3.7,0,6.8,1.7,9.5,4.8c13.4,16.1,6.2,65.9,6.2,66.5L792.4,601.6z"></path>
<path class="st43" d="M794.3,599.3l3.5-0.2c0-0.4-1.2-46.1,21.3-55.4c21.9-9.3,31.8,9.7,32.2,10.5l3.1-1.7  c-0.2-0.2-11.8-22.7-36.8-12.2C793,551,794.1,597.5,794.3,599.3z"></path>
<path class="st43" d="M794.1,603.1c0-0.8,0.2-72.7,14.3-93.8c13.4-20.2,35.1-10.7,36.1-10.3l1.4-3.1c-0.2-0.2-25.4-11.2-40.5,11.6  c-14.7,21.9-14.9,92.8-14.9,95.7h3.6V603.1z"></path>
<path class="st43" d="M769.3,528.3c0,0,12.8,4.8,8.9,15.9c-3.7,11.2-44.2,29.3-44.2,29.3s-16.9-15.5-1.4-40.7  C748.2,507.6,768.9,520.2,769.3,528.3z"></path>
<path class="st43" d="M809,505.3c0,0-9.1-1-8.3-6.4c0.8-5.6,35.3-19.6,55.6,3.3c0,0-13,22.3-31.8,22.7  C805.4,525.2,809,505.3,809,505.3z"></path>
<path class="st43" d="M818.2,542.3c0,0-6.2-5,0.4-7.4c6.8-2.5,39.9-1.9,40.3,31c0,0-38.6,6.4-43.4-6  C810.8,547.3,818.2,542.3,818.2,542.3z"></path>
<path class="st44" d="M762.5,668.6h59.9l6.4-65.5h-72.7L762.5,668.6z"></path>
<path class="st3" d="M752.9,610.1H832v-14.5h-79.1V610.1z"></path>
<g class="rotate-element-3">
	<path class="st1" d="M666.1,489.6v-25.7c0-0.7,0.5-1.2,1.2-1.2h5.1c0.7,0,1.2,0.5,1.2,1.2v18.2c0,0.7,0.5,1.2,1.2,1.2h5.1   c0.7,0,1.2-0.5,1.2-1.2v-1.6V473v-7.5v-6.3c0-0.7,0.5-1.2,1.2-1.2h6.3h6.3c0.7,0,1.2,0.5,1.2,1.2v6.3h-6.3c-0.7,0-1.2,0.5-1.2,1.2   v5.1c0,0.7,0.5,1.2,1.2,1.2h5.1c0.7,0,1.2-0.5,1.2-1.2v-6.3h6.3c0.7,0,1.2,0.5,1.2,1.2v12.6c0,0.7-0.5,1.2-1.2,1.2H698h-2h-6.3   c-0.7,0-1.2,0.5-1.2,1.2v7.9c0,0.7-0.5,1.2-1.2,1.2h-20.1C666.7,490.8,666.1,490.3,666.1,489.6z"></path>
	<g>
		<rect x="698.5" y="456.3" class="st1" width="1.7" height="1.7"></rect>
		<rect x="701.4" y="459.6" class="st1" width="1.2" height="1.2"></rect>
		<rect x="701.9" y="456.3" class="st1" width="0.9" height="0.9"></rect>
		<rect x="705" y="459.9" class="st1" width="0.9" height="0.9"></rect>
		<rect x="703.2" y="454.5" class="st1" width="0.4" height="0.4"></rect>
		<rect x="705.5" y="454.2" class="st1" width="0.3" height="0.3"></rect>
		<rect x="704.3" y="456.6" class="st1" width="0.4" height="0.4"></rect>
		<rect x="698.7" y="461.2" class="st1" width="1" height="1"></rect>
		<rect x="703.1" y="462.3" class="st1" width="0.7" height="0.7"></rect>
	</g>
</g>
<path class="st2 rotate-element" d="M596.5,63.3h59c2.8,0,5,2.2,5,5v58c0,2.8-2.2,5-5,5h-59c-2.8,0-5-2.2-5-5v-58C591.5,65.6,593.7,63.3,596.5,63.3  z"></path>
<path class="st1 rotate-element-4" d="M673.9,599c0,7.1-5.7,12.8-12.8,12.8c-2.9,0-5.6-1-7.7-2.6c1.4-1.6,2.5-3.6,3.2-5.7c1.1,1.1,2.8,1.9,4.5,1.9  c3.5,0,6.4-2.9,6.4-6.4s-2.9-6.4-6.4-6.4c-1.8,0-3.4,0.7-4.5,1.9s-1.8,2.8-1.9,4.5c-0.2,3.7-1.2,6.2-3.2,8.5  c-0.6,0.6-1.2,1.2-1.9,1.8c-2.1,1.6-4.8,2.6-7.7,2.6c-7.1,0-12.8-5.7-12.8-12.8s5.7-12.8,12.8-12.8c2.9,0,5.6,1,7.7,2.6  c-1.4,1.6-2.5,3.6-3.2,5.7c-1.1-1.1-2.8-1.9-4.5-1.9c-3.5,0-6.4,2.9-6.4,6.4s2.9,6.4,6.4,6.4c1.8,0,3.4-0.7,4.5-1.9s1.8-2.8,1.9-4.5  c0.2-4,1.2-6.2,3.2-8.5c0.6-0.6,1.2-1.2,1.9-1.8c2.1-1.6,4.8-2.6,7.7-2.6C668.2,586.2,673.9,592,673.9,599z"></path>
<path class="st1 rotate-element" d="M642.1,114.8h-6.6c-1.8,0-3.5-0.9-4.5-2.4l-7.3-10.8c-0.6-0.9-0.6-2.1,0-3l0,0c1.1-1.6,3.5-1.6,4.5,0l7.1,10.5  c0.1,0.2,0.3,0.3,0.6,0.3h3.7c1.1,0,1.7-1.2,1.1-2.1L627.1,87c-0.5-0.8-1.7-0.8-2.3,0l-13.5,20.2c-0.6,0.9,0,2.1,1.1,2.1h7.7  c2.2,0,3.5,2.4,2.3,4.2l0,0c-0.5,0.8-1.4,1.2-2.3,1.2h-10.3c-4.4,0-7-4.9-4.5-8.5l16.1-24c2.2-3.2,6.9-3.2,9.1,0l16.1,24  C649,109.9,646.4,114.8,642.1,114.8z"></path>
<g class="rotate-element-2">
	<path class="st1" d="M337.4,117.4l0-20.7c0-0.4-0.3-0.7-0.7-0.7h-5.7c-0.4,0-0.7,0.3-0.7,0.7v20.7h-21.3v-0.7v-20   c0-0.4-0.3-0.7-0.7-0.7h-5.7c-0.4,0-0.7,0.3-0.7,0.7l0,20.7l0,6.4c0,0.4,0.3,0.7,0.7,0.7h34.2c0.4,0,0.7-0.3,0.7-0.7v-5.8   L337.4,117.4z"></path>
	<path class="st1" d="M316.7,110.3h5.7c0.4,0,0.7-0.3,0.7-0.7V96.7c0-0.4-0.3-0.7-0.7-0.7h-5.7c-0.4,0-0.7,0.3-0.7,0.7v12.9   C316,110,316.3,110.3,316.7,110.3z"></path>
</g>
</svg>