<?xml version="1.0" encoding="utf-8"?>
<!-- Generator: Adobe Illustrator 25.3.1, SVG Export Plug-In . SVG Version: 6.00 Build 0)  -->
<svg version="1.1" id="Layer_1" xmlns="http://www.w3.org/2000/svg" xmlns:xlink="http://www.w3.org/1999/xlink" x="0px" y="0px"
	 viewBox="0 0 406.3 419.7" style="enable-background:new 0 0 406.3 419.7;" xml:space="preserve">
<style type="text/css">
	.st0{opacity:0.48;}
	.st1{fill:#ECEFF1;}
	.st2{fill:#BDBDBD;}
	.st3{fill:#FFD600;}
	.st4{fill:#FFFFFF;}
</style>
<g class="st0">
	<g>
		<circle class="st1" cx="196.4" cy="198.6" r="140.4"/>
	</g>
	<g>
		<circle class="st1" cx="349.9" cy="120.3" r="16.5"/>
	</g>
	<g>
		<g>
			<path class="st2" d="M213.6,319.1c0.1-19.9,3.7-37.8,20.7-54.5c5.8-5.7,12-10.5,18-15.1c5.6-4.3,10.8-8.3,15.2-12.7
				c11.3-11.3,18.1-27,18.8-43c0.7-16-4.8-32.2-15-44.4c-9.1-10.9-21.9-19.7-37.5-24c-14.2-3.9-19.2-4.5-36.5-5L199,319L213.6,319.1
				z"/>
		</g>
		<g>
			<path class="st3" d="M189.4,319c-0.4-19.3-3-35.7-22.1-50.1c-6.5-4.9-13.3-8.8-19.8-12.6c-6.1-3.5-11.8-6.8-16.7-10.6
				c-12.6-9.8-21.5-24.4-24.3-40.1c-2.8-15.7,0.5-32.5,9-46c7.6-12,19.3-21.9,34-28.7c13.5-6.2,29.3-9.8,47.1-10.6L199,319
				L189.4,319z"/>
		</g>
		<g>
			<path d="M231,157.3c-1,0-2-0.5-2.6-1.5c-2.9-4.9-8.4-8.2-14-8.4c-5.6-0.2-11.3,2.9-14.2,7.6c-0.9,1.4-2.7,1.9-4.2,1
				c-1.4-0.9-1.9-2.7-1-4.2c4-6.7,11.7-10.8,19.5-10.6c7.6,0.2,15.1,4.7,19,11.3c0.9,1.4,0.4,3.3-1.1,4.1
				C232.1,157.1,231.6,157.3,231,157.3z"/>
		</g>
		<g>
			<path d="M272.6,193c-6,0-12-2.1-16.6-6c-4.9-4-8.2-9.9-9.2-16.2c-0.2-1.7,0.9-3.2,2.5-3.4c1.7-0.3,3.2,0.9,3.4,2.5
				c0.7,4.8,3.3,9.3,7,12.4c3.8,3.1,8.7,4.8,13.5,4.6c1.7-0.1,3.1,1.2,3.1,2.9c0.1,1.7-1.2,3.1-2.9,3.1
				C273.3,193,272.9,193,272.6,193z"/>
		</g>
		<g>
			<path d="M228,227.3c-2.1,0-4.1-0.3-6.1-1c-1.6-0.6-2.4-2.3-1.8-3.9c0.6-1.6,2.3-2.4,3.9-1.8c4,1.4,8.9,0.6,12.3-2.1
				c3.4-2.7,5.5-7.1,5.4-11.6c0-1.5-0.3-4.2-2.1-5.8c-1.1-1.1-2.9-1.5-4.6-1.2c-1.5,0.3-3.1-0.3-4-1.6c-0.9-1.3-0.9-3-0.1-4.3
				c1.6-2.5,2.4-5.2,2.3-7.8c0-1.3-0.3-3.6-1.7-5.1c-1.3-1.4-3.7-2-6.2-1.8c-2.7,0.3-5.4,1.6-8.1,2.7c-1.5,0.7-3.3,0-4-1.5
				c-0.7-1.5,0-3.3,1.5-4c2.9-1.3,6.2-2.8,9.9-3.2c4.5-0.5,8.7,0.8,11.3,3.6c2.1,2.2,3.3,5.5,3.3,9.2c0,2.6-0.5,5.2-1.5,7.8
				c2.3,0.3,4.4,1.3,6,2.8c2.5,2.4,3.9,5.9,4,10.1c0.1,6.4-2.8,12.7-7.7,16.5C236.6,225.9,232.3,227.3,228,227.3z"/>
		</g>
		<g>
			<path d="M230.1,254.5c-2.9,0-5.8-0.7-8.3-2.2c-4.2-2.5-6.7-6.4-9.1-10.1c-0.6-0.9-1.2-1.8-1.8-2.7c-2.6-3.8-6.7-6.3-10.8-6.5
				c-0.5,0-0.9,0-1.4,0c-1.7,0.1-3.1-1.2-3.2-2.9c-0.1-1.7,1.2-3.1,2.9-3.2c0.6,0,1.3,0,2,0c6,0.3,11.7,3.7,15.5,9.1
				c0.6,0.9,1.3,1.9,1.9,2.9c2.1,3.3,4.1,6.4,7.1,8.2c3.3,1.9,7.8,1.8,11-0.3c2.7-1.8,4.5-5.1,4.6-8.5c0-1.4,0.8-2.7,2-3.4
				c1.2-0.7,2.7-0.8,4-0.1c4.2,2.1,10,1,13.3-2.6c3.6-4,4-10.9,0.9-15.5c-3.1-4.7-9.3-7.1-15.1-6c-1.6,0.3-3.2-0.8-3.5-2.4
				c-0.3-1.6,0.8-3.2,2.4-3.5c8.1-1.5,16.8,2,21.2,8.6c4.7,7,4.1,16.9-1.4,22.9c-4.4,4.9-11.8,6.9-18,5c-0.8,4.3-3.4,8.3-7,10.7
				C236.5,253.6,233.3,254.5,230.1,254.5z"/>
		</g>
		<g>
			<path d="M189.2,322c-1.7,0-3-1.3-3-3l0-1.5c-0.3-26.4-0.5-53.6-5.5-78.9c-2.5,1.4-5.3,2.6-8.9,3.1c-8.5,1-15.2-3.1-17.7-4.7
				l-0.4-0.3c-6-3.6-10.1-9.2-11.2-15.3c-1.3-7.1,1.8-14.4,7.5-17.9c7.3-4.4,16.6-1.6,22.1,2.8c7.2,5.9,10.7,14.6,12.8,23.1
				c2.6-1.1,5.6-2.1,9.6-2.6c1.4-0.2,2.8-0.3,4.2-0.3c1.6,0,3,1.3,3.1,3c0,1.7-1.3,3-3,3.1c-1.2,0-2.4,0.1-3.5,0.2
				c-3.8,0.4-6.6,1.4-9,2.6c5.5,26.3,5.7,54.6,6,81.9l0,1.5C192.2,320.6,190.9,322,189.2,322C189.2,322,189.2,322,189.2,322z
				 M158.3,207.3c-1.8,0-3.6,0.4-5.2,1.4c-3.5,2.2-5.5,7-4.7,11.6c0.8,4.3,3.9,8.5,8.4,11.2l0.5,0.3c2,1.3,7.4,4.6,13.8,3.8
				c3.2-0.4,5.6-1.7,8.3-3.3c-1.9-7.9-4.9-16.2-11.1-21.3C165.6,209,161.9,207.3,158.3,207.3z"/>
		</g>
		<g>
			<path d="M228.5,123.3c-1.5,0-2.8-1.1-3-2.7c-0.4-3.3-0.7-6.7-1.8-9.8c-0.7-2.2-2.2-5.2-4.9-7.1c-2.4-1.7-5.9-2.4-9.7-2
				c-3.7,0.4-7.5,1.7-11.1,3c-1.6,0.6-3.3-0.3-3.9-1.8c-0.6-1.6,0.3-3.3,1.8-3.9c4-1.4,8.1-2.9,12.5-3.3c5.3-0.5,10.2,0.6,13.8,3.1
				c3.2,2.2,5.6,5.7,7.1,10.1c1.2,3.7,1.6,7.4,2,11c0.2,1.7-1,3.2-2.7,3.3C228.7,123.3,228.6,123.3,228.5,123.3z"/>
		</g>
		<g>
			<path d="M227.4,321.1c-1.7,0-3-1.3-3-3c-0.1-15.6,7.9-30.6,20.9-39.3c1-0.7,2-1.3,3-1.9c2.9-1.8,5.6-3.4,7.4-5.8
				c1.5-2,2.1-5,1.3-7c-0.6-1.5-0.3-3.1,0.8-4.2c1.1-1.1,2.7-1.4,4.2-0.7c2.6,1.2,5.2,1.8,7.6,1.9c3.4,0.1,7.4-2.1,9.2-3.5
				c3.3-2.6,6.7-7.5,6.2-12.1c-0.2-1.7-0.8-4.4-1.5-5.3c-0.4-0.5-0.7-1.1-1-1.6c-0.2-0.4-0.4-0.7-0.6-0.9c-1.1-1.3-1.5-3-1.1-4.6
				c0.4-1.6,1.6-2.9,3.2-3.4c7.8-2.7,13.2-6.1,14.3-9.2c2-5.5,0.3-12.2-4-15.4c-1.3-1-2-2.5-1.9-4c0.1-1.5,0.8-2.9,2.1-3.8
				c4.2-2.8,8.7-6.3,9.9-11.1c0.7-3,0-6.5-1.9-9.6c-1.7-2.7-4.3-5.3-7.9-7.5c-2.8-1.8-5.5-2.9-7.8-3.2c-1.6-0.2-2.9-1.1-3.8-2.5
				c-0.9-1.4-1.1-3.1-0.5-4.7c1.6-4.7,2.9-9.6,1.8-14.3c-1.1-4.7-4.8-8.9-9.6-10.8c-3.9-1.5-8-1.6-11.8-0.1
				c-1.6,0.6-3.4,0.4-4.7-0.6c-1.3-1-2.1-2.5-2-4.2c0.2-2.9-0.9-6.1-2.9-8.4c-2.5-3-6.5-5.1-11-5.6c-4-0.5-8.5,0.3-13.1,2.1
				c-1.5,0.6-3.3-0.1-3.9-1.7c-0.6-1.5,0.1-3.3,1.7-3.9c5.5-2.2,11-3.1,16-2.5c6,0.7,11.4,3.5,14.9,7.7c2.6,3.1,4.1,6.9,4.3,10.8
				c4.7-1.5,9.9-1.3,14.7,0.6c6.7,2.7,11.7,8.4,13.3,15.1c1.3,5.9-0.1,11.8-1.8,16.9c3.7,0.7,7.1,2.5,9.4,4c4.3,2.8,7.6,5.9,9.8,9.5
				c2.7,4.4,3.7,9.6,2.6,14.1c-1.5,6.2-6.2,10.4-11,13.7c5.4,5.1,7.4,13.7,4.7,21.2c-2.1,6-10,10-16.7,12.4c0.2,0.3,0.3,0.6,0.5,0.8
				c0.2,0.3,0.3,0.6,0.5,0.8c2.1,2.8,2.6,8.1,2.6,8.3c0.7,7.3-4.2,14-8.5,17.4c-2.3,1.9-7.7,5-13.1,4.9c-2,0-4-0.4-6.1-1
				c0,3-1,6.2-2.9,8.6c-2.5,3.2-5.8,5.2-9,7.2c-1,0.6-1.9,1.2-2.8,1.8c-11.1,7.4-18.3,20.9-18.2,34.3
				C230.4,319.8,229,321.1,227.4,321.1C227.4,321.1,227.4,321.1,227.4,321.1z"/>
		</g>
		<g>
			<path d="M199,320.8c-1.7,0-3-1.3-3-3l-1.9-215.9c0-1.7,1.3-3,3-3.1c0,0,0,0,0,0c1.7,0,3,1.3,3,3l1.9,215.9
				C202.1,319.4,200.7,320.7,199,320.8C199.1,320.8,199,320.8,199,320.8z"/>
		</g>
		<g>
			<path d="M176.6,322.2c-0.1,0-0.2,0-0.2,0c-1.7-0.1-2.9-1.6-2.8-3.3c1.2-15.1-11.5-27.1-19.2-32.9c-5.5-4.1-11.7-7.7-17.6-11.1
				c-6.4-3.7-13-7.6-19.1-12.2c-16.8-13-28.6-32.5-32.3-53.4c-3.7-20.9,0.7-43.2,12-61.2c9.8-15.5,24.7-28.2,43.1-36.8
				c16-7.4,34.6-11.6,55.1-12.6c1.6-0.1,3.1,1.2,3.2,2.9c0.1,1.7-1.2,3.1-2.9,3.2c-19.8,0.9-37.6,4.9-52.9,12
				c-17.4,8.1-31.4,20-40.6,34.5C92,168,88,188.8,91.4,208.2c3.4,19.5,14.4,37.6,30,49.6c5.7,4.4,12.2,8.2,18.4,11.8
				c6.1,3.5,12.4,7.2,18.2,11.6c15,11.3,22.6,24.8,21.6,38.2C179.5,321,178.2,322.2,176.6,322.2z"/>
		</g>
		<g>
			<path d="M233.6,339.3C233.6,339.3,233.6,339.3,233.6,339.3l-68.3-0.3c-1.6,0-3-1.3-3-2.9l-0.5-16.2c0-0.8,0.3-1.6,0.8-2.2
				c0.6-0.6,1.3-0.9,2.1-0.9l70-1c0.9,0,1.7,0.3,2.2,0.9c0.6,0.6,0.9,1.4,0.8,2.3l-1.2,17.5C236.5,338.1,235.2,339.3,233.6,339.3z
				 M168.2,333l62.5,0.3l0.8-11.4l-63.6,0.9L168.2,333z"/>
		</g>
		<g>
			<path d="M230,353.4C230,353.4,230,353.4,230,353.4l-58.8,0c-1.6,0-3-1.3-3-2.9l-0.4-13.9c0-0.8,0.3-1.6,0.9-2.2
				c0.6-0.6,1.3-0.9,2.2-0.9c0,0,0,0,0,0l58.8,0.2c1.6,0,3,1.3,3,2.9l0.4,13.7c0,0.8-0.3,1.6-0.9,2.2
				C231.6,353.1,230.8,353.4,230,353.4z M174.1,347.3l52.8,0l-0.2-7.6l-52.8-0.2L174.1,347.3z"/>
		</g>
		<g>
			<path d="M176.6,368.2c-0.8,0-1.5-0.3-2.1-0.9c-0.6-0.6-0.9-1.3-0.9-2.1l-0.1-14.6c0-0.8,0.3-1.6,0.9-2.2c0.6-0.6,1.4-0.9,2.2-0.9
				l50,1.1c1.7,0,3,1.4,3,3.1l-0.2,12.3c0,1.6-1.3,2.9-3,3L176.6,368.2C176.7,368.2,176.6,368.2,176.6,368.2z M179.5,353.6l0.1,8.4
				l43.7-1.1l0.1-6.4L179.5,353.6z"/>
		</g>
		<g>
			<path d="M202.9,385.4c-2.5,0-4.9-0.3-6.9-0.7c-5.5-1.1-9.8-3-12.9-6c-4.2-3.9-5.9-9.6-4.5-14.5c0.5-1.6,2.2-2.5,3.8-2
				c1.6,0.5,2.5,2.2,2,3.8c-0.8,2.7,0.3,6.1,2.8,8.4c2.3,2.1,5.5,3.6,9.9,4.4c4.4,0.8,10.6,1.2,15.4-1.9c3.7-2.4,5.1-6.7,3.9-11.6
				c-0.4-1.6,0.6-3.3,2.2-3.7c1.6-0.4,3.3,0.6,3.7,2.2c1.8,7.4-0.7,14.4-6.5,18.2C211.8,384.6,207.1,385.4,202.9,385.4z"/>
		</g>
		<g>
			<path d="M197.1,82.9c-1.7,0-3-1.3-3-3l-0.2-23c0-1.7,1.3-3,3-3.1c0,0,0,0,0,0c1.7,0,3,1.3,3,3l0.2,23
				C200.1,81.5,198.8,82.9,197.1,82.9C197.1,82.9,197.1,82.9,197.1,82.9z"/>
		</g>
		<g>
			<path d="M274.7,115.5c-0.8,0-1.7-0.3-2.2-1c-1.1-1.2-1-3.2,0.2-4.3l16.9-15.2c1.2-1.1,3.2-1,4.3,0.2c1.1,1.2,1,3.2-0.2,4.3
				l-16.9,15.2C276.2,115.3,275.5,115.5,274.7,115.5z"/>
		</g>
		<g>
			<path d="M325.1,181.2c-1.4,0-2.7-1-3-2.5c-0.3-1.6,0.8-3.2,2.4-3.5l24.8-4.4c1.6-0.3,3.2,0.8,3.5,2.4c0.3,1.6-0.8,3.2-2.4,3.5
				l-24.8,4.4C325.4,181.2,325.3,181.2,325.1,181.2z"/>
		</g>
		<g>
			<path d="M325.5,284.2c-0.6,0-1.2-0.2-1.7-0.5c-7.8-5.3-16.1-10-24.8-13.8c-1.5-0.7-2.2-2.5-1.6-4c0.7-1.5,2.5-2.2,4-1.6
				c9,3.9,17.6,8.8,25.7,14.3c1.4,0.9,1.7,2.8,0.8,4.2C327.5,283.7,326.5,284.2,325.5,284.2z"/>
		</g>
		<g>
			<path d="M106.9,118.2c-0.7,0-1.5-0.3-2-0.8L85.6,99.8c-1.2-1.1-1.3-3-0.2-4.3c1.1-1.2,3-1.3,4.3-0.2l19.2,17.6
				c1.2,1.1,1.3,3,0.2,4.3C108.5,117.9,107.7,118.2,106.9,118.2z"/>
		</g>
		<g>
			<path d="M42.9,197c-1.5,0-2.8-1.1-3-2.6c-0.2-1.7,0.9-3.2,2.6-3.4l24.2-3.2c1.6-0.2,3.2,0.9,3.4,2.6c0.2,1.7-0.9,3.2-2.6,3.4
				L43.3,197C43.2,197,43,197,42.9,197z"/>
		</g>
		<g>
			<path d="M62.2,278.4c-0.9,0-1.8-0.4-2.4-1.2c-1-1.3-0.7-3.2,0.6-4.2c8.1-6.1,17.2-10.9,26.8-14.1c1.6-0.5,3.3,0.3,3.8,1.9
				c0.5,1.6-0.3,3.3-1.9,3.8c-9,3-17.5,7.4-25.1,13.2C63.4,278.2,62.8,278.4,62.2,278.4z"/>
		</g>
		<g>
			<path d="M139,190.4c-1,0-1.9-0.5-2.5-1.3l-14.7-21.8c-0.9-1.4-0.6-3.3,0.8-4.2c1.4-0.9,3.3-0.6,4.2,0.8l14.7,21.8
				c0.9,1.4,0.6,3.3-0.8,4.2C140.1,190.3,139.5,190.4,139,190.4z"/>
		</g>
	</g>
	<g>
		<circle class="st4" cx="150.2" cy="156" r="8.7"/>
	</g>
</g>
</svg>
