<svg xmlns="http://www.w3.org/2000/svg" version="1.1" xmlns:xlink="http://www.w3.org/1999/xlink" xmlns:svgjs="http://svgjs.com/svgjs" width="1680" height="150" preserveAspectRatio="none" viewBox="0 0 1680 150"><g mask="url(&quot;#SvgjsMask1094&quot;)" fill="none"><rect width="1680" height="150" x="0" y="0" fill="rgba(255, 255, 255, 0)"></rect><path d="M0 0L193.93 0L0 34.09z" fill="rgba(255, 255, 255, .1)"></path><path d="M0 34.09L193.93 0L404.62 0L0 80.73z" fill="rgba(255, 255, 255, .075)"></path><path d="M0 80.73L404.62 0L595.85 0L0 110.53z" fill="rgba(255, 255, 255, .05)"></path><path d="M0 110.53L595.85 0L793.38 0L0 112.23z" fill="rgba(255, 255, 255, .025)"></path><path d="M1680 150L1518.72 150L1680 116.28z" fill="rgba(0, 0, 0, .1)"></path><path d="M1680 116.28L1518.72 150L1507.9 150L1680 54.84z" fill="rgba(0, 0, 0, .075)"></path><path d="M1680 54.84L1507.9 150L1271.6000000000001 150L1680 36.99z" fill="rgba(0, 0, 0, .05)"></path><path d="M1680 36.99000000000001L1271.6 150L1059.1 150L1680 21.250000000000007z" fill="rgba(0, 0, 0, .025)"></path></g><defs><mask id="SvgjsMask1094"><rect width="1680" height="150" fill="#ffffff"></rect></mask></defs></svg>