<svg xmlns="http://www.w3.org/2000/svg" version="1.1" xmlns:xlink="http://www.w3.org/1999/xlink" xmlns:svgjs="http://svgjs.com/svgjs" width="1680" height="150" preserveAspectRatio="none" viewBox="0 0 1680 150"><g mask="url(&quot;#SvgjsMask1293&quot;)" fill="none"><rect width="1680" height="150" x="0" y="0" fill="url(#SvgjsLinearGradient1294)"></rect><path d="M0 0L570.86 0L0 53.56z" fill="rgba(255, 255, 255, .1)"></path><path d="M0 53.56L570.86 0L688.16 0L0 88.49000000000001z" fill="rgba(255, 255, 255, .075)"></path><path d="M0 88.49000000000001L688.16 0L770.64 0L0 99.58000000000001z" fill="rgba(255, 255, 255, .05)"></path><path d="M0 99.58000000000001L770.64 0L824.3 0L0 100.66000000000001z" fill="rgba(255, 255, 255, .025)"></path><path d="M1680 150L1572.76 150L1680 86.72z" fill="rgba(0, 0, 0, .1)"></path><path d="M1680 86.72L1572.76 150L1038.9099999999999 150L1680 39.46z" fill="rgba(0, 0, 0, .075)"></path><path d="M1680 39.46000000000001L1038.9099999999999 150L553.5199999999999 150L1680 34.540000000000006z" fill="rgba(0, 0, 0, .05)"></path><path d="M1680 34.540000000000006L553.52 150L410.1 150L1680 10.150000000000006z" fill="rgba(0, 0, 0, .025)"></path></g><defs><mask id="SvgjsMask1293"><rect width="1680" height="150" fill="#ffffff"></rect></mask><linearGradient x1="77.23%" y1="355%" x2="22.77%" y2="-255%" gradientUnits="userSpaceOnUse" id="SvgjsLinearGradient1294"><stop stop-color="rgba(0, 147, 202, 1)" offset="0"></stop><stop stop-color="rgba(0, 232, 169, 1)" offset="1"></stop></linearGradient></defs></svg>