<?xml version="1.0" encoding="utf-8"?>
<!-- Generator: Adobe Illustrator 23.0.2, SVG Export Plug-In . SVG Version: 6.00 Build 0)  -->
<svg version="1.1" xmlns="http://www.w3.org/2000/svg" xmlns:xlink="http://www.w3.org/1999/xlink" x="0px" y="0px"
	 width="374.54px" height="348.82px" viewBox="0 0 374.54 348.82" style="enable-background:new 0 0 374.54 348.82;"
	 xml:space="preserve">
<style type="text/css">
	.st0{opacity:0.51;fill:#FCECED;}
	.st1{opacity:0.51;fill:url(#SVGID_1_);}
	.st2{opacity:0.51;}
	.st3{fill:url(#SVGID_2_);}
	.st4{fill:url(#SVGID_3_);}
	.st5{opacity:0.26;clip-path:url(#SVGID_5_);fill:#FC9691;}
	.st6{fill:url(#SVGID_6_);}
	.st7{fill:#4B63C5;}
	.st8{fill:#EFCBBF;}
	.st9{filter:url(#Adobe_OpacityMaskFilter);}
	.st10{opacity:0.58;clip-path:url(#SVGID_8_);mask:url(#SVGID_9_);fill:#EFCBBF;}
	.st11{fill:#F5CAAA;}
	.st12{opacity:0.64;clip-path:url(#SVGID_11_);}
	.st13{fill:#2C344F;}
	.st14{opacity:0.35;clip-path:url(#SVGID_13_);fill:#2C344F;}
	.st15{fill:none;}
	.st16{fill:#13A9D8;}
	.st17{fill:url(#SVGID_14_);}
	.st18{fill:#FFFFFF;}
	.st19{fill:url(#SVGID_15_);}
	.st20{fill:url(#SVGID_16_);}
	.st21{fill:#192035;}
	.st22{opacity:0.26;clip-path:url(#SVGID_18_);fill:#768CD8;}
	.st23{opacity:0.64;clip-path:url(#SVGID_20_);fill:#F1C8AA;}
	.st24{fill:url(#SVGID_21_);}
	.st25{fill:url(#SVGID_22_);}
	.st26{fill:url(#SVGID_23_);}
	.st27{fill:url(#SVGID_24_);}
	.st28{fill:#7A8DD9;}
	.st29{fill:url(#SVGID_25_);}
	.st30{fill:url(#SVGID_26_);}
	.st31{fill:url(#SVGID_27_);}
	.st32{fill:url(#SVGID_28_);}
	.st33{fill:url(#SVGID_29_);}
	.st34{fill:url(#SVGID_30_);}
	.st35{fill:url(#SVGID_31_);}
	.st36{fill:url(#SVGID_32_);}
	.st37{fill:url(#SVGID_33_);}
	.st38{fill:url(#SVGID_34_);}
	.st39{fill:url(#SVGID_35_);}
	.st40{fill:url(#SVGID_36_);}
	.st41{fill:url(#SVGID_37_);}
	.st42{opacity:0.51;fill:url(#SVGID_38_);}
	.st43{opacity:0.51;fill:url(#SVGID_39_);}
	.st44{opacity:0.51;fill:url(#SVGID_40_);}
	.st45{opacity:0.51;fill:url(#SVGID_41_);}
	.st46{opacity:0.51;fill:url(#SVGID_42_);}
</style>
<g id="BACKGROUND">
</g>
<g id="OBJECTS">
	<path class="st0" d="M148.16,218.54c15.33,73.4-85.28,63.82-123.13,18.91C-12.82,192.55-7.1,125.47,37.81,87.62
		c44.91-37.85,118.62-36.96,149.84,12.78C228.92,166.16,136.15,161.05,148.16,218.54z"/>
	
		<linearGradient id="SVGID_1_" gradientUnits="userSpaceOnUse" x1="62.1076" y1="92.2538" x2="293.0657" y2="92.2538" gradientTransform="matrix(-0.8075 0.5899 -0.5899 -0.8075 430.774 149.9961)">
		<stop  offset="0" style="stop-color:#F4DDE5"/>
		<stop  offset="1" style="stop-color:#CBCBE7"/>
	</linearGradient>
	<path class="st1" d="M164.24,229.88C77.37,241.81,96.7,125.22,152.16,84.7c55.46-40.51,133.25-28.4,173.77,27.06
		c40.51,55.46,33.5,141.38-27.06,173.77C218.8,328.35,232.28,220.53,164.24,229.88z"/>
	<g class="st2">
		<linearGradient id="SVGID_2_" gradientUnits="userSpaceOnUse" x1="176.9474" y1="336.1517" x2="176.9474" y2="341.6186">
			<stop  offset="0" style="stop-color:#D1D3D4"/>
			<stop  offset="1" style="stop-color:#F1F2F2"/>
		</linearGradient>
		<path class="st3" d="M314.51,348.82H39.38c-5.81,0-10.53-4.71-10.53-10.53v-2.4h296.18v2.4
			C325.04,344.1,320.33,348.82,314.51,348.82z"/>
		<linearGradient id="SVGID_3_" gradientUnits="userSpaceOnUse" x1="132.3251" y1="314.0671" x2="165.9214" y2="239.5887">
			<stop  offset="0" style="stop-color:#FDBFC0"/>
			<stop  offset="1" style="stop-color:#FC938D"/>
		</linearGradient>
		<polygon class="st4" points="189.06,214.92 161.87,293 76.47,313.85 87.46,334.71 189.06,312.32 219.27,220.63 		"/>
		<g>
			<defs>
				<polygon id="SVGID_4_" points="189.06,214.92 161.87,293 168.25,316.91 189.06,312.32 219.27,220.63 				"/>
			</defs>
			<clipPath id="SVGID_5_">
				<use xlink:href="#SVGID_4_"  style="overflow:visible;"/>
			</clipPath>
			<path class="st5" d="M178.7,333.21c0.04-1.15,15.91-97.92,15.91-97.92l5.36,87.89L178.7,333.21z"/>
		</g>
		<linearGradient id="SVGID_6_" gradientUnits="userSpaceOnUse" x1="239.581" y1="294.8008" x2="239.581" y2="202.7177">
			<stop  offset="0" style="stop-color:#7C90D9"/>
			<stop  offset="1" style="stop-color:#5D72CD"/>
		</linearGradient>
		<polygon class="st6" points="222.31,201.83 189.06,214.93 196.75,330.9 271.17,330.9 290.1,212.94 254.2,201.92 		"/>
		<path class="st7" d="M207.62,164.23h-1.01c-3.33,0-6.03-2.7-6.03-6.03v-1.01c0-3.33,2.7-6.03,6.03-6.03h1.01
			c3.33,0,6.03,2.7,6.03,6.03v1.01C213.64,161.53,210.95,164.23,207.62,164.23z"/>
		<path class="st8" d="M213.64,151.58v14.77c-4.08,0-7.39-3.31-7.39-7.39C206.26,154.88,209.57,151.58,213.64,151.58z"/>
		<g>
			<defs>
				<path id="SVGID_7_" d="M213.64,151.58v14.77c-4.08,0-7.39-3.31-7.39-7.39C206.26,154.88,209.57,151.58,213.64,151.58z"/>
			</defs>
			<clipPath id="SVGID_8_">
				<use xlink:href="#SVGID_7_"  style="overflow:visible;"/>
			</clipPath>
			<defs>
				<filter id="Adobe_OpacityMaskFilter" filterUnits="userSpaceOnUse" x="204.16" y="148.5" width="8.08" height="22.93">
					<feFlood  style="flood-color:white;flood-opacity:1" result="back"/>
					<feBlend  in="SourceGraphic" in2="back" mode="normal"/>
				</filter>
			</defs>
			<mask maskUnits="userSpaceOnUse" x="204.16" y="148.5" width="8.08" height="22.93" id="SVGID_9_">
				<g class="st9">
				</g>
			</mask>
			<rect x="204.16" y="148.5" class="st10" width="8.08" height="22.93"/>
		</g>
		<path class="st11" d="M250.8,172.55v39.88l-5.85,2.81c-7.78,3.73-17.01,2.64-23.69-2.81l0,0v-39.31L250.8,172.55z"/>
		<g>
			<defs>
				<polygon id="SVGID_10_" points="250.8,181.28 250.8,199.82 221.26,199.82 221.26,181.75 				"/>
			</defs>
			<clipPath id="SVGID_11_">
				<use xlink:href="#SVGID_10_"  style="overflow:visible;"/>
			</clipPath>
			<g class="st12">
				<path class="st8" d="M235.16,197.36L235.16,197.36c12.33,0,22.77-8.1,26.29-19.27h-52.59
					C212.39,189.25,222.83,197.36,235.16,197.36z"/>
			</g>
		</g>
		<path class="st7" d="M214.79,107.61c-6.52,5.81-10.63,14.27-10.63,23.67v4.93v16.03h4.08v-13.17v-7.78
			c0-9.29,4.62-17.51,11.67-22.52C218.26,108.35,216.52,107.95,214.79,107.61z"/>
		<path class="st11" d="M235.16,193.21L235.16,193.21c-13.92,0-25.21-11.29-25.21-25.21v-46.18h50.42V168
			C260.38,181.92,249.09,193.21,235.16,193.21z"/>
		<path class="st13" d="M248.29,133.11c0,0-16.07,13.85-34.38,8.31c-18.31-5.54-16.62-21.69-16.62-21.69l4.92,2.08
			c0,0-1.69-9.62-0.62-13.62c1.08-4,18.08,1.39,24.85,3.54c6.77,2.15-1.92-4.36-2.39-5.18c-0.46-0.82,10.28-4.21,23.14,1.02
			c12.86,5.23,25.33,18.93,20.56,31.23c-4.77,12.31-2.62,16.62-2.62,16.62l-4.77,2.08h-3.54l0.33-25.3l-1.86,0.19L248.29,133.11z"/>
		<g>
			<defs>
				<path id="SVGID_12_" d="M248.29,133.11c0,0-16.07,13.85-34.38,8.31c-18.31-5.54-16.62-21.69-16.62-21.69l4.92,2.08
					c0,0-1.69-9.62-0.62-13.62c1.08-4,18.31,0.31,25.08,2.46c6.77,2.15-2.15-3.28-2.62-4.1c-0.46-0.82,10.28-4.21,23.14,1.02
					c12.86,5.23,25.33,18.93,20.56,31.23c-4.77,12.31-2.62,16.62-2.62,16.62l-4.77,2.08h-3.54l0.33-25.3l-1.86,0.19L248.29,133.11z"
					/>
			</defs>
			<clipPath id="SVGID_13_">
				<use xlink:href="#SVGID_12_"  style="overflow:visible;"/>
			</clipPath>
			<path class="st14" d="M260.15,131.28v22.77c0.13-0.14,0.27-0.26,0.44-0.36c1.18-0.68,2.39-1.19,3.63-1.6v-20.81
				c0-1.93-0.18-3.81-0.51-5.65c-1.73-9.61-7.82-17.71-16.13-22.22c-1.42,0.83-2.85,1.66-4.3,2.44c3.76,1.61,7.1,4.02,9.79,7.02
				C257.45,117.77,260.15,124.21,260.15,131.28z"/>
		</g>
		<g>
			<path class="st15" d="M226.68,110.65c6.77,2.15-2.15-3.28-2.62-4.1c-0.05-0.09,0.05-0.21,0.26-0.35
				c-1.55,0.72-3.03,1.57-4.41,2.55C222.55,109.41,224.96,110.1,226.68,110.65z"/>
			<path class="st15" d="M235.88,103.64c-3.83,0-7.47,0.78-10.79,2.2c2.93-1.12,11.84-2.44,22.12,1.74c3.19,1.3,6.35,3.11,9.23,5.3
				C251.38,107.22,244.05,103.64,235.88,103.64z"/>
			<path class="st16" d="M225.09,105.83c-0.34,0.13-0.59,0.25-0.76,0.37C224.58,106.08,224.83,105.95,225.09,105.83z"/>
			<linearGradient id="SVGID_14_" gradientUnits="userSpaceOnUse" x1="214.7914" y1="129.2623" x2="267.596" y2="129.2623">
				<stop  offset="0" style="stop-color:#7C90D9"/>
				<stop  offset="1" style="stop-color:#5D72CD"/>
			</linearGradient>
			<path class="st17" d="M267.08,125.63c-2.67-14.8-15.64-26.07-31.21-26.07c-8.09,0-15.48,3.05-21.09,8.05
				c1.73,0.34,3.47,0.74,5.12,1.15c1.38-0.98,2.86-1.84,4.41-2.55c0.17-0.12,0.43-0.24,0.76-0.37c3.32-1.41,6.96-2.2,10.79-2.2
				c8.17,0,15.5,3.58,20.56,9.23c4.39,4.89,7.08,11.33,7.08,18.41v24.86v2.83h4.08v-19.7v-7.99
				C267.6,129.35,267.41,127.47,267.08,125.63z"/>
		</g>
		<g>
			<path class="st13" d="M223.4,152.21c-0.25,0.07-0.51,0.07-0.78-0.02c-4.2-1.35-6.5,1.69-6.53,1.72c-0.44,0.6-1.3,0.73-1.9,0.29
				c-0.6-0.45-0.73-1.3-0.29-1.9c1.19-1.61,4.71-4.25,9.55-2.69c0.71,0.23,1.11,1,0.88,1.71
				C224.19,151.77,223.83,152.09,223.4,152.21z"/>
		</g>
		<g>
			<path class="st13" d="M248.81,154.31c-0.25-0.06-0.49-0.18-0.68-0.38c-3.07-3.16-6.53-1.56-6.57-1.54
				c-0.68,0.33-1.49,0.04-1.81-0.64c-0.32-0.68-0.04-1.49,0.64-1.81c1.81-0.87,6.15-1.54,9.69,2.1c0.52,0.54,0.51,1.4-0.03,1.92
				C249.71,154.29,249.24,154.4,248.81,154.31z"/>
		</g>
		<path class="st18" d="M232.36,183.15c5.54,0,10.31-2.96,12.44-7.22c1.11-2.23-0.26-4.98-2.54-4.98h-19.81
			c-2.17,0-3.66,2.59-2.64,4.74C221.87,180.07,226.71,183.15,232.36,183.15z"/>
		<path class="st8" d="M259.24,151.58v17.04c4.71,0,8.52-3.82,8.52-8.52C267.76,155.39,263.95,151.58,259.24,151.58z"/>
		<g>
			<g>
				<linearGradient id="SVGID_15_" gradientUnits="userSpaceOnUse" x1="241.5305" y1="170.9444" x2="266.9763" y2="170.9444">
					<stop  offset="0" style="stop-color:#7C90D9"/>
					<stop  offset="1" style="stop-color:#5D72CD"/>
				</linearGradient>
				<path class="st19" d="M241.53,181.52v-2.72c8.73,0,15.08-2.18,18.88-6.47c4.54-5.13,3.8-11.56,3.8-11.62l2.7-0.33
					c0.04,0.31,0.88,7.72-4.46,13.76C258.11,179.03,251.08,181.52,241.53,181.52z"/>
			</g>
			<linearGradient id="SVGID_16_" gradientUnits="userSpaceOnUse" x1="235.6161" y1="179.9227" x2="244.5182" y2="179.9227">
				<stop  offset="0" style="stop-color:#7C90D9"/>
				<stop  offset="1" style="stop-color:#5D72CD"/>
			</linearGradient>
			<path class="st20" d="M244.52,179.92c0,2.04-1.99,3.69-4.45,3.69c-2.46,0-4.45-1.65-4.45-3.69s1.99-3.69,4.45-3.69
				C242.53,176.23,244.52,177.88,244.52,179.92z"/>
		</g>
		<circle class="st21" cx="220.91" cy="160.28" r="3.49"/>
		<circle class="st21" cx="243.55" cy="160.28" r="3.49"/>
		<g>
			<defs>
				<polygon id="SVGID_17_" points="216.09,204.28 189.06,214.93 196.75,330.9 271.17,330.9 290.1,212.94 260.39,205.54 				"/>
			</defs>
			<clipPath id="SVGID_18_">
				<use xlink:href="#SVGID_17_"  style="overflow:visible;"/>
			</clipPath>
			<polygon class="st22" points="284.57,225.88 268.12,294.05 220.38,314.29 220.38,342.68 295.07,331.94 			"/>
		</g>
		<path class="st11" d="M249.55,308.52c-0.73,0.29-17.77,4.33-27.78,6.7c-4.21,0.99-7.17,4.75-7.17,9.07v4.2l42.64-1.04
			L249.55,308.52z"/>
		<g>
			<defs>
				<path id="SVGID_19_" d="M235.57,323.94c0.38,1.32,0.7,2.66,1.02,4.01l20.66-0.5l-7.7-18.93c-0.5,0.2-8.66,2.16-16.97,4.14
					C233.42,316.44,234.5,320.19,235.57,323.94z"/>
			</defs>
			<clipPath id="SVGID_20_">
				<use xlink:href="#SVGID_19_"  style="overflow:visible;"/>
			</clipPath>
			<polygon class="st23" points="241.53,301.8 252.65,335.89 264.49,327.95 250.8,297.93 			"/>
		</g>
		<linearGradient id="SVGID_21_" gradientUnits="userSpaceOnUse" x1="293.5388" y1="316.1023" x2="288.4155" y2="228.2174">
			<stop  offset="0" style="stop-color:#FDBFC0"/>
			<stop  offset="1" style="stop-color:#FC938D"/>
		</linearGradient>
		<path class="st24" d="M290.1,212.94l49.75,92.24l-79.37,26.76l-14.41-24.86l50.25-18.21l-8.08-14.88
			c-8.67-15.97-9.54-34.61-2.38-51.21L290.1,212.94z"/>
		<path class="st16" d="M266.08,163.77h-1.04c-3.41,0-6.17-2.76-6.17-6.17v-1.04c0-3.41,2.76-6.17,6.17-6.17h1.04
			c3.41,0,6.17,2.76,6.17,6.17v1.04C272.25,161.01,269.49,163.77,266.08,163.77z"/>
		<linearGradient id="SVGID_22_" gradientUnits="userSpaceOnUse" x1="257.5018" y1="157.0768" x2="273.6133" y2="157.0768">
			<stop  offset="0" style="stop-color:#7C90D9"/>
			<stop  offset="1" style="stop-color:#5D72CD"/>
		</linearGradient>
		<path class="st25" d="M266.18,165.13h-1.25c-4.1,0-7.43-3.33-7.43-7.43v-1.25c0-4.1,3.33-7.43,7.43-7.43h1.25
			c4.1,0,7.43,3.33,7.43,7.43v1.25C273.61,161.81,270.29,165.13,266.18,165.13z"/>
		<linearGradient id="SVGID_23_" gradientUnits="userSpaceOnUse" x1="266.1672" y1="163.7874" x2="265.0417" y2="151.4068">
			<stop  offset="0" style="stop-color:#7C90D9"/>
			<stop  offset="1" style="stop-color:#5D72CD"/>
		</linearGradient>
		<path class="st26" d="M264.93,161.86c-2.29,0-4.16-1.87-4.16-4.16v-1.25c0-2.29,1.87-4.16,4.16-4.16h1.25
			c2.29,0,4.16,1.87,4.16,4.16v1.25c0,2.29-1.87,4.16-4.16,4.16H264.93z"/>
		<linearGradient id="SVGID_24_" gradientUnits="userSpaceOnUse" x1="176.9474" y1="323.1974" x2="176.9474" y2="330.2326">
			<stop  offset="0" style="stop-color:#D1D3D4"/>
			<stop  offset="1" style="stop-color:#F1F2F2"/>
		</linearGradient>
		<path class="st27" d="M337.07,336.84H16.83c-2.49,0-4.51-2.02-4.51-4.51v-2.05c0-2.49,2.02-4.51,4.51-4.51h320.24
			c2.49,0,4.51,2.02,4.51,4.51v2.05C341.58,334.82,339.56,336.84,337.07,336.84z"/>
		<g>
			<polygon class="st28" points="143.71,325.77 35.93,325.77 23.84,238.69 131.62,238.69 			"/>
			<polygon class="st7" points="148.64,318.09 137.2,238.69 129.54,238.69 141.64,325.77 146.88,325.77 151.79,325.77 
				203.99,325.77 203.99,318.09 			"/>
		</g>
		<g>
			
				<linearGradient id="SVGID_25_" gradientUnits="userSpaceOnUse" x1="58.716" y1="310.052" x2="83.9244" y2="294.651" gradientTransform="matrix(1.3379 -0.0186 0.0922 0.608 -45.7725 103.5128)">
				<stop  offset="0" style="stop-color:#7C90D9"/>
				<stop  offset="1" style="stop-color:#5D72CD"/>
			</linearGradient>
			<path class="st29" d="M76.86,301.09c-12.92-8.49-12.38-18.26-4.89-29.78c0.92-1.41,5.29-1.44,6.6-0.06
				c10.3,10.8,17.03,18.43,4.27,29.71C81.68,302.01,78.38,302.09,76.86,301.09z"/>
			
				<linearGradient id="SVGID_26_" gradientUnits="userSpaceOnUse" x1="64.6246" y1="306.5482" x2="78.3521" y2="298.1614" gradientTransform="matrix(1.3379 -0.0186 0.0922 0.608 -45.7725 103.5128)">
				<stop  offset="0" style="stop-color:#FBF0F4"/>
				<stop  offset="1" style="stop-color:#DCE3F6"/>
			</linearGradient>
			<path class="st30" d="M77.39,294.23c-7.04-4.62-6.74-9.95-2.66-16.21c0.5-0.77,2.88-0.78,3.6-0.03
				c5.61,5.88,9.27,10.04,2.33,16.18C80.01,294.73,78.21,294.77,77.39,294.23z"/>
		</g>
	</g>
	<g class="st2">
		<linearGradient id="SVGID_27_" gradientUnits="userSpaceOnUse" x1="97.596" y1="219.8908" x2="46.6867" y2="101.5268">
			<stop  offset="0" style="stop-color:#B5C4ED"/>
			<stop  offset="1" style="stop-color:#7085D6"/>
		</linearGradient>
		<path class="st31" d="M121.4,142.12h-86.5c-4.58,0-8.29,3.71-8.29,8.29v48.5c0,4.58,3.71,8.29,8.29,8.29h5.28l17.93,22.25
			l-1.38-22.25h64.68c4.58,0,8.29-3.71,8.29-8.29v-48.5C129.69,145.84,125.98,142.12,121.4,142.12z"/>
		<g>
			<g>
				<g>
					<g>
						<linearGradient id="SVGID_28_" gradientUnits="userSpaceOnUse" x1="39.7819" y1="155.1199" x2="45.9335" y2="155.1199">
							<stop  offset="0" style="stop-color:#FBF0F4"/>
							<stop  offset="1" style="stop-color:#DCE3F6"/>
						</linearGradient>
						<circle class="st32" cx="42.86" cy="155.12" r="3.08"/>
					</g>
					<g>
						<linearGradient id="SVGID_29_" gradientUnits="userSpaceOnUse" x1="53.1456" y1="155.1199" x2="59.2971" y2="155.1199">
							<stop  offset="0" style="stop-color:#FBF0F4"/>
							<stop  offset="1" style="stop-color:#DCE3F6"/>
						</linearGradient>
						<path class="st33" d="M59.3,155.12c0,1.7-1.38,3.08-3.08,3.08s-3.08-1.38-3.08-3.08s1.38-3.08,3.08-3.08
							S59.3,153.42,59.3,155.12z"/>
					</g>
					<g>
						<linearGradient id="SVGID_30_" gradientUnits="userSpaceOnUse" x1="66.5092" y1="155.1199" x2="72.6607" y2="155.1199">
							<stop  offset="0" style="stop-color:#FBF0F4"/>
							<stop  offset="1" style="stop-color:#DCE3F6"/>
						</linearGradient>
						<path class="st34" d="M72.66,155.12c0,1.7-1.38,3.08-3.08,3.08c-1.7,0-3.08-1.38-3.08-3.08s1.38-3.08,3.08-3.08
							C71.28,152.04,72.66,153.42,72.66,155.12z"/>
					</g>
				</g>
				<linearGradient id="SVGID_31_" gradientUnits="userSpaceOnUse" x1="38.0987" y1="167.9622" x2="118.1932" y2="167.9622">
					<stop  offset="0" style="stop-color:#FBF0F4"/>
					<stop  offset="1" style="stop-color:#DCE3F6"/>
				</linearGradient>
				<path class="st35" d="M116.6,169.56H39.69c-0.88,0-1.59-0.71-1.59-1.59l0,0c0-0.88,0.71-1.59,1.59-1.59h76.91
					c0.88,0,1.59,0.71,1.59,1.59l0,0C118.19,168.84,117.48,169.56,116.6,169.56z"/>
				<linearGradient id="SVGID_32_" gradientUnits="userSpaceOnUse" x1="38.0987" y1="178.5172" x2="118.1932" y2="178.5172">
					<stop  offset="0" style="stop-color:#FBF0F4"/>
					<stop  offset="1" style="stop-color:#DCE3F6"/>
				</linearGradient>
				<path class="st36" d="M116.6,180.11H39.69c-0.88,0-1.59-0.71-1.59-1.59l0,0c0-0.88,0.71-1.59,1.59-1.59h76.91
					c0.88,0,1.59,0.71,1.59,1.59l0,0C118.19,179.4,117.48,180.11,116.6,180.11z"/>
				<linearGradient id="SVGID_33_" gradientUnits="userSpaceOnUse" x1="38.0987" y1="190.0742" x2="118.1932" y2="190.0742">
					<stop  offset="0" style="stop-color:#FBF0F4"/>
					<stop  offset="1" style="stop-color:#DCE3F6"/>
				</linearGradient>
				<path class="st37" d="M116.6,191.67H39.69c-0.88,0-1.59-0.71-1.59-1.59l0,0c0-0.88,0.71-1.59,1.59-1.59h76.91
					c0.88,0,1.59,0.71,1.59,1.59l0,0C118.19,190.95,117.48,191.67,116.6,191.67z"/>
			</g>
		</g>
	</g>
	<g class="st2">
		<linearGradient id="SVGID_34_" gradientUnits="userSpaceOnUse" x1="299.4077" y1="176.2304" x2="374.5429" y2="176.2304">
			<stop  offset="0" style="stop-color:#B5C4ED"/>
			<stop  offset="1" style="stop-color:#7085D6"/>
		</linearGradient>
		<circle class="st38" cx="336.98" cy="176.23" r="37.57"/>
		<g>
			<path class="st18" d="M336.51,151.84c0.44,0.05,0.87,0.09,1.31,0.15c6.45,0.8,12.07,3.36,16.73,7.92
				c4.47,4.36,7.13,9.69,8.2,15.82c0.05,0.26,0.1,0.52,0.15,0.79c0,0.22,0,0.45,0,0.67c-0.02,0.04-0.05,0.09-0.07,0.13
				c-0.26,0.7-0.89,1.09-1.6,1c-0.67-0.08-1.16-0.62-1.29-1.33c-0.19-1.05-0.35-2.12-0.63-3.14c-2.01-7.28-6.29-12.78-13.03-16.27
				c-3.16-1.63-6.54-2.53-10.09-2.78c-0.8-0.06-1.38-0.57-1.45-1.32c-0.08-0.77,0.37-1.39,1.16-1.6c0.03-0.01,0.06-0.03,0.09-0.04
				C336.16,151.84,336.34,151.84,336.51,151.84z"/>
			<path class="st18" d="M336.19,159.08c1.31,0.12,2.56,0.36,3.79,0.72c7.62,2.22,13.13,8.19,14.75,15.99
				c0.08,0.37,0.15,0.75,0.13,1.12c-0.05,0.74-0.67,1.29-1.4,1.31c-0.74,0.02-1.38-0.49-1.51-1.22c-0.37-2.19-1.09-4.26-2.23-6.17
				c-2.85-4.76-7.04-7.6-12.48-8.62c-0.41-0.08-0.82-0.11-1.23-0.17c-0.75-0.11-1.28-0.67-1.32-1.38c-0.04-0.71,0.42-1.34,1.11-1.52
				C335.95,159.1,336.09,159.1,336.19,159.08z"/>
			<path class="st18" d="M336.11,166.55c0.96,0.1,1.89,0.32,2.79,0.66c4.41,1.66,7.16,4.81,8.32,9.36c0.21,0.81-0.16,1.54-0.89,1.82
				c-0.68,0.26-1.46-0.01-1.81-0.65c-0.09-0.16-0.14-0.33-0.18-0.51c-0.92-4.05-4.25-7.13-8.35-7.72c-0.81-0.12-1.34-0.67-1.38-1.43
				c-0.03-0.7,0.46-1.33,1.16-1.49C335.88,166.57,335.99,166.56,336.11,166.55z"/>
			<g>
				<path class="st18" d="M346.64,202.23c-0.08,0-0.15-0.01-0.26-0.02c0.5-0.09,0.98-0.14,1.45-0.25c3.68-0.86,6.28-3,7.77-6.49
					c0.35-0.83,0.43-1.67,0.29-2.56c-0.29-1.94-1.36-3.23-3.26-3.66c-2.69-0.6-5.41-1.12-8.12-1.64c-1.14-0.22-2.29-0.32-3.46-0.23
					c-0.76,0.06-1.41,0.31-1.81,1.02c-0.34,0.59-0.69,1.18-1.03,1.76c-0.26,0.43-0.52,0.87-0.78,1.31
					c-6.53-2.99-11.44-7.64-14.9-13.89c0.29-0.18,0.56-0.35,0.84-0.5c0.83-0.44,1.62-0.92,2.36-1.5c0.39-0.31,0.61-0.7,0.68-1.18
					c0.15-0.92,0.07-1.83-0.08-2.73c-0.52-3.24-1.37-6.41-2.22-9.58c-0.15-0.55-0.36-1.09-0.74-1.52c-1.42-1.61-3.87-1.83-5.24-1.35
					c-1.23,0.43-2.32,1.11-3.29,1.98c-2.03,1.83-3.12,4.16-3.57,6.81c-0.09,0.53-0.14,1.06-0.21,1.59c0,0.62,0,1.24,0,1.87
					c0.05,0.41,0.09,0.82,0.14,1.23c0.33,2.68,1.18,5.19,2.37,7.59c2.15,4.32,5.16,7.96,8.78,11.1c3.89,3.38,8.13,6.25,12.82,8.4
					c2.28,1.04,4.63,1.84,7.12,2.23c0.39,0.06,0.78,0.1,1.18,0.18"/>
			</g>
		</g>
	</g>
	<g class="st2">
		<g>
			<linearGradient id="SVGID_35_" gradientUnits="userSpaceOnUse" x1="145.5696" y1="119.2848" x2="181.6519" y2="35.3934">
				<stop  offset="0" style="stop-color:#FDBFC0"/>
				<stop  offset="1" style="stop-color:#FC938D"/>
			</linearGradient>
			<path class="st39" d="M189.27,81.38c0-15.13-12.27-27.4-27.4-27.4c-15.13,0-27.4,12.27-27.4,27.4c0,11.35,6.9,21.08,16.73,25.24
				L143,116.97l25.63-9.04C180.49,104.93,189.27,94.18,189.27,81.38z"/>
			<g>
				<path class="st18" d="M149.43,74.33c0.1-8.8,4.59-11,12.17-11c7.38,0,12.37,2.1,12.37,10.26c0,5.72-2.44,7.14-6.16,9.24
					c-2.64,1.52-3.03,2.35-3.03,6.16h-6.3c0-6.89,1.17-7.77,4.94-10.17c2.25-1.42,3.57-2.25,3.57-5.42c0-3.37-1.47-4.5-5.18-4.5
					c-4.3,0-5.13,1.52-5.57,5.42H149.43z M161.8,91.78c3.18,0,3.91,1.12,3.91,3.67c0,2.54-0.73,3.62-3.91,3.62s-3.86-1.08-3.86-3.62
					C157.93,92.9,158.62,91.78,161.8,91.78z"/>
			</g>
		</g>
		<g>
			
				<linearGradient id="SVGID_36_" gradientUnits="userSpaceOnUse" x1="77.0672" y1="136.3131" x2="102.0828" y2="78.1518" gradientTransform="matrix(-1 0 0 1 198.4427 0)">
				<stop  offset="0" style="stop-color:#B5C4ED"/>
				<stop  offset="1" style="stop-color:#7085D6"/>
			</linearGradient>
			<path class="st40" d="M91.08,110.03c0-10.49,8.5-19,19-19c10.49,0,19,8.5,19,19c0,7.87-4.78,14.62-11.6,17.5l5.69,7.18
				l-17.77-6.27C97.16,126.36,91.08,118.91,91.08,110.03z"/>
			<g>
				<path class="st18" d="M110.04,116.48c2.29,0,2.82,0.81,2.82,2.64c0,1.83-0.53,2.61-2.82,2.61c-2.29,0-2.78-0.77-2.78-2.61
					C107.26,117.29,107.75,116.48,110.04,116.48z M112.71,102.96l-1.34,11.72h-2.64l-1.37-11.72v-6.69h5.35V102.96z"/>
			</g>
		</g>
	</g>
	<g class="st2">
		
			<linearGradient id="SVGID_37_" gradientUnits="userSpaceOnUse" x1="292.3959" y1="110.6345" x2="254.9503" y2="23.5733" gradientTransform="matrix(-1 0 0 1 575.0979 0)">
			<stop  offset="0" style="stop-color:#FDBFC0"/>
			<stop  offset="1" style="stop-color:#FC938D"/>
		</linearGradient>
		<path class="st41" d="M268.14,52.16h57.74c3.34,0,6.04,2.7,6.04,6.04v38.34c0,3.34-2.7,6.04-6.04,6.04h-3.84l-13.06,16.2
			l1.01-16.2h-41.84c-3.34,0-6.04-2.7-6.04-6.04V58.2C262.1,54.87,264.8,52.16,268.14,52.16z"/>
		<g>
			<path class="st18" d="M284.49,70.59c0.55,0.04,1.08,0.15,1.58,0.34c2.17,0.79,3.63,2.27,4.38,4.45c0.05,0.15,0.03,0.27-0.06,0.4
				c-1.97,2.97-4.7,4.79-8.21,5.4c-4.61,0.8-9.42-1.32-12-5.27c-0.16-0.25-0.18-0.44-0.08-0.71c1.03-2.63,2.94-4.17,5.73-4.6
				c0.06-0.01,0.12-0.01,0.18-0.01c0.12,0.91,0.74,1.39,1.48,1.72c1.83,0.79,3.67,0.77,5.51,0c0.16-0.07,0.31-0.16,0.45-0.25
				C284.08,71.66,284.33,71.3,284.49,70.59z"/>
			<path class="st18" d="M280.25,57.82c2.12,0.03,4.07,1.37,4.89,3.4c0.4,0.99,0.5,2.01,0.38,3.06c-0.1,0.96-0.26,1.9-0.6,2.8
				c-0.45,1.2-1.08,2.28-2.09,3.11c-0.81,0.67-1.73,1.03-2.8,0.97c-0.99-0.06-1.83-0.48-2.56-1.14c-0.74-0.67-1.28-1.49-1.68-2.39
				c-0.63-1.43-0.9-2.94-0.86-4.49c0.06-2.49,1.85-4.65,4.24-5.18C279.53,57.89,279.89,57.87,280.25,57.82z"/>
		</g>
		<path class="st18" d="M324.98,88.39h-53.3c-0.46,0-0.83-0.37-0.83-0.83v-0.37c0-0.46,0.37-0.83,0.83-0.83h53.3
			c0.46,0,0.83,0.37,0.83,0.83v0.37C325.81,88.02,325.44,88.39,324.98,88.39z"/>
		<path class="st18" d="M324.98,94.4h-53.3c-0.46,0-0.83-0.37-0.83-0.83V93.2c0-0.46,0.37-0.83,0.83-0.83h53.3
			c0.46,0,0.83,0.37,0.83,0.83v0.37C325.81,94.03,325.44,94.4,324.98,94.4z"/>
		<g>
			<path class="st18" d="M324.98,75.33h-29.28c-0.46,0-0.83-0.37-0.83-0.83v-0.37c0-0.46,0.37-0.83,0.83-0.83h29.28
				c0.46,0,0.83,0.37,0.83,0.83v0.37C325.81,74.96,325.44,75.33,324.98,75.33z"/>
			<path class="st18" d="M324.98,69.01h-29.28c-0.46,0-0.83-0.37-0.83-0.83v-0.37c0-0.46,0.37-0.83,0.83-0.83h29.28
				c0.46,0,0.83,0.37,0.83,0.83v0.37C325.81,68.64,325.44,69.01,324.98,69.01z"/>
			<path class="st18" d="M324.98,62.29h-29.28c-0.46,0-0.83-0.37-0.83-0.83v-0.37c0-0.46,0.37-0.83,0.83-0.83h29.28
				c0.46,0,0.83,0.37,0.83,0.83v0.37C325.81,61.92,325.44,62.29,324.98,62.29z"/>
			<path class="st18" d="M324.98,81.35h-29.28c-0.46,0-0.83-0.37-0.83-0.83v-0.37c0-0.46,0.37-0.83,0.83-0.83h29.28
				c0.46,0,0.83,0.37,0.83,0.83v0.37C325.81,80.98,325.44,81.35,324.98,81.35z"/>
		</g>
	</g>
	
		<ellipse transform="matrix(0.1675 -0.9859 0.9859 0.1675 151.1321 264.7465)" class="st0" cx="232.33" cy="42.88" rx="11.1" ry="11.1"/>
	
		<ellipse transform="matrix(0.1705 -0.9854 0.9854 0.1705 33.9027 538.8268)" class="st0" cx="336.98" cy="249.28" rx="10.59" ry="10.59"/>
	<circle class="st0" cx="7.25" cy="236.71" r="7.25"/>
	<linearGradient id="SVGID_38_" gradientUnits="userSpaceOnUse" x1="21.2565" y1="85.4746" x2="53.1456" y2="85.4746">
		<stop  offset="0" style="stop-color:#F4DDE5"/>
		<stop  offset="1" style="stop-color:#CBCBE7"/>
	</linearGradient>
	<circle class="st42" cx="37.2" cy="85.47" r="15.94"/>
	<linearGradient id="SVGID_39_" gradientUnits="userSpaceOnUse" x1="79.7609" y1="4.7017" x2="4.6062" y2="67.159">
		<stop  offset="0" style="stop-color:#F4DDE5"/>
		<stop  offset="1" style="stop-color:#CBCBE7"/>
	</linearGradient>
	<circle class="st43" cx="56.59" cy="23.96" r="8.33"/>
	<linearGradient id="SVGID_40_" gradientUnits="userSpaceOnUse" x1="142.6678" y1="-7.1998" x2="93.1598" y2="33.9439">
		<stop  offset="0" style="stop-color:#F4DDE5"/>
		<stop  offset="1" style="stop-color:#CBCBE7"/>
	</linearGradient>
	<circle class="st44" cx="127.4" cy="5.49" r="5.49"/>
	<linearGradient id="SVGID_41_" gradientUnits="userSpaceOnUse" x1="197.6981" y1="2.9455" x2="148.1898" y2="44.0894">
		<stop  offset="0" style="stop-color:#F4DDE5"/>
		<stop  offset="1" style="stop-color:#CBCBE7"/>
	</linearGradient>
	<circle class="st45" cx="182.43" cy="15.63" r="5.49"/>
	<linearGradient id="SVGID_42_" gradientUnits="userSpaceOnUse" x1="142.8001" y1="41.8837" x2="109.8515" y2="69.2656">
		<stop  offset="0" style="stop-color:#F4DDE5"/>
		<stop  offset="1" style="stop-color:#CBCBE7"/>
	</linearGradient>
	<path class="st46" d="M136.29,50.33c0,2.02-1.63,3.65-3.65,3.65c-2.02,0-3.65-1.63-3.65-3.65c0-2.02,1.63-3.65,3.65-3.65
		C134.66,46.68,136.29,48.31,136.29,50.33z"/>
</g>
<g id="DESIGNED_BY_FREEPIK">
</g>
</svg>
