<?xml version="1.0" encoding="UTF-8"?>
<!DOCTYPE svg PUBLIC "-//W3C//DTD SVG 1.1//EN" "http://www.w3.org/Graphics/SVG/1.1/DTD/svg11.dtd">
<svg xmlns="http://www.w3.org/2000/svg" version="1.1" width="752px" height="400px" style="shape-rendering:geometricPrecision; text-rendering:geometricPrecision; image-rendering:optimizeQuality; fill-rule:evenodd; clip-rule:evenodd" xmlns:xlink="http://www.w3.org/1999/xlink">
<g><path style="opacity:1" fill="#3e4245" d="M 179.5,-0.5 C 310.167,-0.5 440.833,-0.5 571.5,-0.5C 656.537,11.9455 713.703,58.6122 743,139.5C 746.818,152.767 749.652,166.1 751.5,179.5C 751.5,192.833 751.5,206.167 751.5,219.5C 739.054,304.537 692.388,361.703 611.5,391C 598.233,394.818 584.9,397.652 571.5,399.5C 440.833,399.5 310.167,399.5 179.5,399.5C 94.4634,387.054 37.2967,340.388 8,259.5C 4.18166,246.233 1.34832,232.9 -0.5,219.5C -0.5,206.167 -0.5,192.833 -0.5,179.5C 11.9455,94.4634 58.6122,37.2967 139.5,8C 152.767,4.18166 166.1,1.34832 179.5,-0.5 Z"/></g>
<g><path style="opacity:1" fill="#fefefe" d="M 183.5,15.5 C 309.5,15.3333 435.5,15.5 561.5,16C 623.958,21.1971 672.458,49.6971 707,101.5C 741.29,159.003 744.623,218.337 717,279.5C 683.936,341.851 632.102,376.351 561.5,383C 435.5,383.667 309.5,383.667 183.5,383C 117.43,374.571 68.2633,341.405 36,283.5C 3.68818,215.034 9.35485,150.034 53,88.5C 86.6338,46.5981 130.134,22.2648 183.5,15.5 Z"/></g>
<g><path style="opacity:1" fill="#e94336" d="M 151.5,182.5 C 142.185,175.524 132.852,168.524 123.5,161.5C 135.1,137.742 153.767,122.575 179.5,116C 204.372,110.978 227.372,115.311 248.5,129C 251.645,130.978 254.312,133.478 256.5,136.5C 249.015,144.486 241.348,152.319 233.5,160C 204.577,140.155 179.077,143.988 157,171.5C 155.153,175.193 153.32,178.86 151.5,182.5 Z"/></g>
<g><path style="opacity:1" fill="#7f8284" d="M 393.5,125.5 C 375.5,125.5 357.5,125.5 339.5,125.5C 339.5,174.833 339.5,224.167 339.5,273.5C 345.5,273.5 351.5,273.5 357.5,273.5C 357.17,253.326 357.503,233.326 358.5,213.5C 358.5,233.833 358.5,254.167 358.5,274.5C 351.833,274.5 345.167,274.5 338.5,274.5C 338.5,224.5 338.5,174.5 338.5,124.5C 357.008,124.17 375.341,124.503 393.5,125.5 Z"/></g>
<g><path style="opacity:1" fill="#3b4043" d="M 393.5,125.5 C 413.738,127.235 427.571,137.569 435,156.5C 439.912,183.851 429.412,202.351 403.5,212C 388.536,213.355 373.536,213.855 358.5,213.5C 357.503,233.326 357.17,253.326 357.5,273.5C 351.5,273.5 345.5,273.5 339.5,273.5C 339.5,224.167 339.5,174.833 339.5,125.5C 357.5,125.5 375.5,125.5 393.5,125.5 Z"/></g>
<g><path style="opacity:1" fill="#fefefe" d="M 358.5,143.5 C 371.171,143.333 383.838,143.5 396.5,144C 414.605,150.713 420.439,163.213 414,181.5C 409.869,188.808 403.702,193.141 395.5,194.5C 383.167,194.5 370.833,194.5 358.5,194.5C 358.5,177.5 358.5,160.5 358.5,143.5 Z"/></g>
<g><path style="opacity:1" fill="#f8ba0d" d="M 123.5,161.5 C 132.852,168.524 142.185,175.524 151.5,182.5C 148.898,193.812 148.898,205.145 151.5,216.5C 142.167,223.5 132.833,230.5 123.5,237.5C 110.169,212.146 110.169,186.813 123.5,161.5 Z"/></g>
<g><path style="opacity:1" fill="#3c4144" d="M 476.5,168.5 C 492.173,166.865 506.507,170.365 519.5,179C 526.156,185.478 530.323,193.311 532,202.5C 532.5,226.498 532.667,250.498 532.5,274.5C 526.5,274.5 520.5,274.5 514.5,274.5C 514.666,269.489 514.499,264.489 514,259.5C 501.651,276.282 485.485,281.449 465.5,275C 443.321,264.136 437.154,247.303 447,224.5C 456.644,212.668 469.144,207.335 484.5,208.5C 494.93,207.941 504.93,209.608 514.5,213.5C 512.863,193.378 501.863,184.212 481.5,186C 473.342,188.166 466.842,192.666 462,199.5C 456.414,195.957 450.914,192.291 445.5,188.5C 453.464,178.026 463.797,171.36 476.5,168.5 Z"/></g>
<g><path style="opacity:1" fill="#3d4245" d="M 535.5,171.5 C 542.422,171.188 549.256,171.521 556,172.5C 566,196.5 576,220.5 586,244.5C 596.714,220.525 606.547,196.191 615.5,171.5C 622.5,171.5 629.5,171.5 636.5,171.5C 615.5,220.833 594.5,270.167 573.5,319.5C 566.8,319.83 560.134,319.497 553.5,318.5C 561.444,301.614 569.11,284.614 576.5,267.5C 562.818,235.473 549.151,203.473 535.5,171.5 Z"/></g>
<g><path style="opacity:1" fill="#4285f3" d="M 255.5,263.5 C 246.548,257.216 237.882,250.55 229.5,243.5C 233.497,239.335 237.33,235.002 241,230.5C 243.415,226.089 244.915,221.422 245.5,216.5C 230.167,216.5 214.833,216.5 199.5,216.5C 199.5,205.5 199.5,194.5 199.5,183.5C 226.5,183.5 253.5,183.5 280.5,183.5C 284.843,209.622 279.677,233.622 265,255.5C 262.234,258.777 259.067,261.443 255.5,263.5 Z"/></g>
<g><path style="opacity:1" fill="#afb0b2" d="M 358.5,143.5 C 358.5,160.5 358.5,177.5 358.5,194.5C 370.833,194.5 383.167,194.5 395.5,194.5C 383.011,195.495 370.344,195.829 357.5,195.5C 357.17,177.992 357.503,160.659 358.5,143.5 Z"/></g>
<g><path style="opacity:1" fill="#36a853" d="M 151.5,216.5 C 163.904,244.536 185.237,255.37 215.5,249C 220.3,247.431 224.966,245.597 229.5,243.5C 237.882,250.55 246.548,257.216 255.5,263.5C 253.316,267.779 249.982,270.946 245.5,273C 202.297,294.774 164.463,287.941 132,252.5C 128.636,247.77 125.803,242.77 123.5,237.5C 132.833,230.5 142.167,223.5 151.5,216.5 Z"/></g>
<g><path style="opacity:1" fill="#fbfbfb" d="M 479.5,223.5 C 486.508,223.334 493.508,223.5 500.5,224C 505.153,225.16 509.487,226.993 513.5,229.5C 514.08,234.309 513.246,238.975 511,243.5C 502.378,257.062 490.211,262.229 474.5,259C 459.018,250.448 457.685,240.114 470.5,228C 473.592,226.454 476.592,224.954 479.5,223.5 Z"/></g>
</svg>
