<?xml version="1.0" encoding="UTF-8"?>
<!DOCTYPE svg PUBLIC "-//W3C//DTD SVG 1.1//EN" "http://www.w3.org/Graphics/SVG/1.1/DTD/svg11.dtd">
<svg xmlns="http://www.w3.org/2000/svg" version="1.1" width="640px" height="381px" style="shape-rendering:geometricPrecision; text-rendering:geometricPrecision; image-rendering:optimizeQuality; fill-rule:evenodd; clip-rule:evenodd" xmlns:xlink="http://www.w3.org/1999/xlink">
<g><path style="opacity:0.991" fill="#0365ca" d="M 166.5,-0.5 C 182.167,-0.5 197.833,-0.5 213.5,-0.5C 253.374,4.93878 288.374,20.9388 318.5,47.5C 312.864,54.4708 306.864,61.1375 300.5,67.5C 299.957,67.56 299.624,67.8933 299.5,68.5C 312.149,69.4991 324.816,69.8324 337.5,69.5C 342.81,74.7846 347.144,80.7846 350.5,87.5C 328.5,88.1667 306.5,88.8333 284.5,89.5C 281.233,95.0353 278.233,100.702 275.5,106.5C 274.596,107.209 274.263,108.209 274.5,109.5C 304.167,109.5 333.833,109.5 363.5,109.5C 366.575,115.818 369.241,122.318 371.5,129C 336.162,129.167 300.829,129.667 265.5,130.5C 263.05,136.636 261.383,142.969 260.5,149.5C 299.168,149.333 337.835,149.5 376.5,150C 377.867,152.301 378.534,154.801 378.5,157.5C 363.896,155.262 351.563,159.262 341.5,169.5C 332.345,176.804 329.512,186.137 333,197.5C 334.561,200.783 336.727,203.617 339.5,206C 345.888,209.861 352.554,213.194 359.5,216C 361.037,217.11 361.703,218.61 361.5,220.5C 351.302,222.174 341.302,221.508 331.5,218.5C 331.552,220.903 331.219,223.236 330.5,225.5C 328.883,224.962 327.216,224.629 325.5,224.5C 324.771,228.981 324.104,233.481 323.5,238C 323.629,239.981 324.296,241.647 325.5,243C 336.116,244.541 346.783,244.875 357.5,244C 363.49,243.586 369.156,242.086 374.5,239.5C 373.703,243.223 372.703,246.89 371.5,250.5C 336.16,250.167 300.827,250.5 265.5,251.5C 265.624,252.107 265.957,252.44 266.5,252.5C 268.441,258.657 270.774,264.657 273.5,270.5C 303.167,271.167 332.833,271.833 362.5,272.5C 359.573,278.852 356.24,285.019 352.5,291C 330.159,291.167 307.826,291.667 285.5,292.5C 289.833,298.5 294.167,304.5 298.5,310.5C 311.487,311.333 324.487,311.833 337.5,312C 330.936,319.058 324.603,326.224 318.5,333.5C 290.028,358.554 257.028,374.221 219.5,380.5C 200.167,380.5 180.833,380.5 161.5,380.5C 93.9413,367.64 45.108,330.306 15,268.5C 7.47077,250.701 2.3041,232.368 -0.5,213.5C -0.5,197.833 -0.5,182.167 -0.5,166.5C 13.2048,87.2971 57.8715,34.1305 133.5,7C 144.529,4.03101 155.529,1.53101 166.5,-0.5 Z"/></g>
<g><path style="opacity:0.991" fill="#cb0101" d="M 423.5,-0.5 C 439.167,-0.5 454.833,-0.5 470.5,-0.5C 543.661,11.4818 595.161,51.4818 625,119.5C 649.899,189.973 639.566,254.64 594,313.5C 562.398,349.72 522.898,372.053 475.5,380.5C 456.167,380.5 436.833,380.5 417.5,380.5C 379.972,374.221 346.972,358.554 318.5,333.5C 324.603,326.224 330.936,319.058 337.5,312C 324.487,311.833 311.487,311.333 298.5,310.5C 294.167,304.5 289.833,298.5 285.5,292.5C 307.826,291.667 330.159,291.167 352.5,291C 356.24,285.019 359.573,278.852 362.5,272.5C 363.043,272.44 363.376,272.107 363.5,271.5C 333.507,270.5 303.507,270.167 273.5,270.5C 270.774,264.657 268.441,258.657 266.5,252.5C 301.5,251.833 336.5,251.167 371.5,250.5C 372.703,246.89 373.703,243.223 374.5,239.5C 376.36,238.061 378.027,236.395 379.5,234.5C 384.69,230.983 388.356,226.316 390.5,220.5C 389.1,228.699 391.1,235.865 396.5,242C 400.394,243.999 404.56,244.832 409,244.5C 414.911,244.417 420.745,243.75 426.5,242.5C 426.5,241.167 426.5,239.833 426.5,238.5C 428.218,237.776 430.052,237.109 432,236.5C 432.943,231.173 433.777,225.84 434.5,220.5C 423.853,222.969 419.353,218.969 421,208.5C 422.513,200.049 424.347,191.716 426.5,183.5C 428.833,183.5 431.167,183.5 433.5,183.5C 433.5,181.833 433.5,180.167 433.5,178.5C 435.5,178.5 437.5,178.5 439.5,178.5C 440.036,172.081 441.036,165.748 442.5,159.5C 439.038,158.518 435.371,158.185 431.5,158.5C 431.5,157.167 431.5,155.833 431.5,154.5C 432.167,150.167 432.833,145.833 433.5,141.5C 425.5,141.5 417.5,141.5 409.5,141.5C 409.784,143.415 409.451,145.081 408.5,146.5C 406.856,146.286 405.356,146.62 404,147.5C 399.72,171.666 395.22,195.666 390.5,219.5C 392.793,209.031 389.793,200.698 381.5,194.5C 381.5,190.5 381.5,186.5 381.5,182.5C 382.833,182.5 384.167,182.5 385.5,182.5C 385.325,180.379 385.659,178.379 386.5,176.5C 388.766,176.859 390.599,176.192 392,174.5C 393.067,169.194 393.901,163.861 394.5,158.5C 389.146,158.431 383.813,158.098 378.5,157.5C 378.534,154.801 377.867,152.301 376.5,150C 337.835,149.5 299.168,149.333 260.5,149.5C 261.383,142.969 263.05,136.636 265.5,130.5C 300.829,129.667 336.162,129.167 371.5,129C 369.241,122.318 366.575,115.818 363.5,109.5C 333.986,109.164 304.652,108.164 275.5,106.5C 278.233,100.702 281.233,95.0353 284.5,89.5C 306.843,89.833 329.177,89.4997 351.5,88.5C 351.376,87.8933 351.043,87.56 350.5,87.5C 347.144,80.7846 342.81,74.7846 337.5,69.5C 325.167,68.8333 312.833,68.1667 300.5,67.5C 306.864,61.1375 312.864,54.4708 318.5,47.5C 348.626,20.9388 383.626,4.93878 423.5,-0.5 Z"/></g>
<g><path style="opacity:1" fill="#752b56" d="M 300.5,67.5 C 312.833,68.1667 325.167,68.8333 337.5,69.5C 324.816,69.8324 312.149,69.4991 299.5,68.5C 299.624,67.8933 299.957,67.56 300.5,67.5 Z"/></g>
<g><path style="opacity:1" fill="#354b95" d="M 350.5,87.5 C 351.043,87.56 351.376,87.8933 351.5,88.5C 329.177,89.4997 306.843,89.833 284.5,89.5C 306.5,88.8333 328.5,88.1667 350.5,87.5 Z"/></g>
<g><path style="opacity:1" fill="#b50b17" d="M 275.5,106.5 C 304.652,108.164 333.986,109.164 363.5,109.5C 333.833,109.5 304.167,109.5 274.5,109.5C 274.263,108.209 274.596,107.209 275.5,106.5 Z"/></g>
<g><path style="opacity:1" fill="#6aa4e0" d="M 146.5,141.5 C 159.323,140.505 172.323,140.171 185.5,140.5C 185.784,142.415 185.451,144.081 184.5,145.5C 184.5,144.167 184.5,142.833 184.5,141.5C 171.833,141.5 159.167,141.5 146.5,141.5 Z"/></g>
<g><path style="opacity:1" fill="#fbfbfc" d="M 120.5,190.5 C 120.335,193.518 120.502,196.518 121,199.5C 128.801,181.92 136.301,164.253 143.5,146.5C 144.737,145.035 145.737,143.368 146.5,141.5C 159.167,141.5 171.833,141.5 184.5,141.5C 184.5,142.833 184.5,144.167 184.5,145.5C 178.221,175.394 172.388,205.394 167,235.5C 165.599,237.192 163.766,237.859 161.5,237.5C 155.5,237.5 149.5,237.5 143.5,237.5C 143.5,236.5 143.5,235.5 143.5,234.5C 147.905,212.2 152.239,189.866 156.5,167.5C 156.333,166.833 156.167,166.167 156,165.5C 152.879,172.072 150.045,178.739 147.5,185.5C 139.662,202.314 131.996,219.314 124.5,236.5C 123.311,237.429 121.978,237.762 120.5,237.5C 114.5,237.5 108.5,237.5 102.5,237.5C 101.491,213.829 100.324,190.162 99,166.5C 96.4167,172.514 95.25,178.848 95.5,185.5C 94.8826,185.611 94.3826,185.944 94,186.5C 90.9715,203.536 87.8048,220.536 84.5,237.5C 82.8333,237.5 81.1667,237.5 79.5,237.5C 73.7291,238.113 68.3958,237.446 63.5,235.5C 69.0196,205.861 74.3529,176.195 79.5,146.5C 80.4511,145.081 80.7845,143.415 80.5,141.5C 93.5,141.5 106.5,141.5 119.5,141.5C 119.17,158.009 119.504,174.342 120.5,190.5 Z"/></g>
<g><path style="opacity:1" fill="#fbfafa" d="M 431.5,154.5 C 430.549,155.919 430.216,157.585 430.5,159.5C 434.5,159.5 438.5,159.5 442.5,159.5C 441.036,165.748 440.036,172.081 439.5,178.5C 437.5,178.5 435.5,178.5 433.5,178.5C 431.167,178.5 428.833,178.5 426.5,178.5C 426.5,180.167 426.5,181.833 426.5,183.5C 424.347,191.716 422.513,200.049 421,208.5C 419.353,218.969 423.853,222.969 434.5,220.5C 433.777,225.84 432.943,231.173 432,236.5C 430.052,237.109 428.218,237.776 426.5,238.5C 420.189,239.427 413.856,239.594 407.5,239C 402.115,237.404 398.615,233.904 397,228.5C 396.333,222.833 396.333,217.167 397,211.5C 401.067,189.866 404.9,168.199 408.5,146.5C 409.451,145.081 409.784,143.415 409.5,141.5C 417.5,141.5 425.5,141.5 433.5,141.5C 432.833,145.833 432.167,150.167 431.5,154.5 Z"/></g>
<g><path style="opacity:1" fill="#2b2121" d="M 408.5,146.5 C 404.9,168.199 401.067,189.866 397,211.5C 396.333,217.167 396.333,222.833 397,228.5C 398.615,233.904 402.115,237.404 407.5,239C 413.856,239.594 420.189,239.427 426.5,238.5C 426.5,239.833 426.5,241.167 426.5,242.5C 420.745,243.75 414.911,244.417 409,244.5C 404.56,244.832 400.394,243.999 396.5,242C 391.1,235.865 389.1,228.699 390.5,220.5C 390.5,220.167 390.5,219.833 390.5,219.5C 395.22,195.666 399.72,171.666 404,147.5C 405.356,146.62 406.856,146.286 408.5,146.5 Z"/></g>
<g><path style="opacity:1" fill="#252429" d="M 79.5,146.5 C 74.3529,176.195 69.0196,205.861 63.5,235.5C 62.596,236.209 62.2627,237.209 62.5,238.5C 67.8333,238.5 73.1667,238.5 78.5,238.5C 78.5,240.167 78.5,241.833 78.5,243.5C 71.1667,243.5 63.8333,243.5 56.5,243.5C 62.5,211.167 68.5,178.833 74.5,146.5C 76.1667,146.5 77.8333,146.5 79.5,146.5 Z"/></g>
<g><path style="opacity:1" fill="#26252a" d="M 143.5,146.5 C 136.301,164.253 128.801,181.92 121,199.5C 120.502,196.518 120.335,193.518 120.5,190.5C 126.369,176.068 132.535,161.734 139,147.5C 140.356,146.62 141.856,146.286 143.5,146.5 Z"/></g>
<g><path style="opacity:1" fill="#fdfbfb" d="M 555.5,234.5 C 550.544,236.096 545.544,237.596 540.5,239C 502.43,243.261 486.597,226.427 493,188.5C 494.555,183.986 496.389,179.653 498.5,175.5C 515.423,156.582 535.757,152.082 559.5,162C 574.32,172.778 579.487,187.278 575,205.5C 572.438,217.997 565.938,227.663 555.5,234.5 Z"/></g>
<g><path style="opacity:1" fill="#fafbfc" d="M 238.5,237.5 C 233.833,237.5 229.167,237.5 224.5,237.5C 224.847,234.659 224.513,232.659 223.5,231.5C 214.558,238.069 204.558,240.569 193.5,239C 180.022,233.204 175.189,223.037 179,208.5C 180.122,206.593 180.955,204.593 181.5,202.5C 188.189,194.318 196.855,189.484 207.5,188C 212.823,187.501 218.156,187.334 223.5,187.5C 225.604,187.799 227.604,187.466 229.5,186.5C 231.146,180.607 228.812,177.107 222.5,176C 211.186,174.672 200.186,175.839 189.5,179.5C 190.275,175.186 190.941,170.853 191.5,166.5C 192.089,164.648 192.756,162.815 193.5,161C 208.093,156.846 222.759,156.512 237.5,160C 250.5,164.707 255.333,173.873 252,187.5C 249.652,204.306 246.818,220.972 243.5,237.5C 241.833,237.5 240.167,237.5 238.5,237.5 Z"/></g>
<g><path style="opacity:1" fill="#f9fafb" d="M 322.5,205.5 C 308.5,205.5 294.5,205.5 280.5,205.5C 280.5,207.167 280.5,208.833 280.5,210.5C 282.346,215.845 286.013,219.345 291.5,221C 302.891,222.324 313.891,220.824 324.5,216.5C 324.833,217 325.167,217.5 325.5,218C 323.845,224.108 322.512,230.275 321.5,236.5C 319.585,236.216 317.919,236.549 316.5,237.5C 306.585,239.377 296.585,239.877 286.5,239C 266.618,235.611 256.618,223.778 256.5,203.5C 256.646,192.064 259.979,181.731 266.5,172.5C 281.618,156.114 299.284,152.947 319.5,163C 329.379,171.303 332.879,181.803 330,194.5C 328.69,198.07 327.857,201.737 327.5,205.5C 325.833,205.5 324.167,205.5 322.5,205.5 Z"/></g>
<g><path style="opacity:1" fill="#fafafb" d="M 378.5,157.5 C 383.813,158.098 389.146,158.431 394.5,158.5C 393.901,163.861 393.067,169.194 392,174.5C 390.599,176.192 388.766,176.859 386.5,176.5C 379.825,176.334 373.158,176.5 366.5,177C 364.937,177.759 363.937,178.926 363.5,180.5C 362.058,182.817 362.392,184.984 364.5,187C 370.154,189.604 375.821,192.104 381.5,194.5C 389.793,200.698 392.793,209.031 390.5,219.5C 390.5,219.833 390.5,220.167 390.5,220.5C 388.356,226.316 384.69,230.983 379.5,234.5C 362.803,239.94 345.803,240.94 328.5,237.5C 328.848,233.443 329.514,229.443 330.5,225.5C 331.219,223.236 331.552,220.903 331.5,218.5C 341.302,221.508 351.302,222.174 361.5,220.5C 366.335,219.84 368.168,217.173 367,212.5C 360.405,208.296 353.571,204.463 346.5,201C 336.661,191.769 334.995,181.269 341.5,169.5C 351.563,159.262 363.896,155.262 378.5,157.5 Z"/></g>
<g><path style="opacity:1" fill="#e06464" d="M 431.5,154.5 C 431.5,155.833 431.5,157.167 431.5,158.5C 435.371,158.185 439.038,158.518 442.5,159.5C 438.5,159.5 434.5,159.5 430.5,159.5C 430.216,157.585 430.549,155.919 431.5,154.5 Z"/></g>
<g><path style="opacity:1" fill="#fcfafa" d="M 493.5,180.5 C 485.889,179.625 479.889,182.291 475.5,188.5C 469.479,204.26 465.479,220.594 463.5,237.5C 461.833,237.5 460.167,237.5 458.5,237.5C 452.5,237.5 446.5,237.5 440.5,237.5C 440.5,236.5 440.5,235.5 440.5,234.5C 444.18,211.111 448.18,187.778 452.5,164.5C 453.451,163.081 453.784,161.415 453.5,159.5C 460.863,159.169 468.197,159.503 475.5,160.5C 471.832,171.455 473.165,172.622 479.5,164C 485.223,158.846 491.89,157.18 499.5,159C 500.022,159.561 500.355,160.228 500.5,161C 498.007,167.478 495.673,173.978 493.5,180.5 Z"/></g>
<g><path style="opacity:1" fill="#2c2020" d="M 452.5,164.5 C 448.18,187.778 444.18,211.111 440.5,234.5C 439.566,235.568 439.232,236.901 439.5,238.5C 445.5,238.5 451.5,238.5 457.5,238.5C 457.5,240.167 457.5,241.833 457.5,243.5C 449.833,243.5 442.167,243.5 434.5,243.5C 438.115,217.364 442.615,191.364 448,165.5C 449.356,164.62 450.856,164.286 452.5,164.5 Z"/></g>
<g><path style="opacity:1" fill="#272224" d="M 386.5,176.5 C 385.659,178.379 385.325,180.379 385.5,182.5C 384.167,182.5 382.833,182.5 381.5,182.5C 375.399,181.872 369.399,181.205 363.5,180.5C 363.937,178.926 364.937,177.759 366.5,177C 373.158,176.5 379.825,176.334 386.5,176.5 Z"/></g>
<g><path style="opacity:1" fill="#2b282b" d="M 191.5,166.5 C 190.941,170.853 190.275,175.186 189.5,179.5C 200.186,175.839 211.186,174.672 222.5,176C 228.812,177.107 231.146,180.607 229.5,186.5C 227.604,187.466 225.604,187.799 223.5,187.5C 223.126,184.112 221.126,182.278 217.5,182C 205.982,180.826 194.649,181.659 183.5,184.5C 184.243,178.454 185.243,172.454 186.5,166.5C 188.167,166.5 189.833,166.5 191.5,166.5 Z"/></g>
<g><path style="opacity:1" fill="#272426" d="M 304.5,189.5 C 301.045,181.444 295.045,178.777 286.5,181.5C 290.372,175.853 295.705,174.02 302.5,176C 305.057,176.685 306.891,178.185 308,180.5C 308.498,183.482 308.665,186.482 308.5,189.5C 307.167,189.5 305.833,189.5 304.5,189.5 Z"/></g>
<g><path style="opacity:1" fill="#262428" d="M 341.5,169.5 C 334.995,181.269 336.661,191.769 346.5,201C 353.571,204.463 360.405,208.296 367,212.5C 368.168,217.173 366.335,219.84 361.5,220.5C 361.703,218.61 361.037,217.11 359.5,216C 352.554,213.194 345.888,209.861 339.5,206C 336.727,203.617 334.561,200.783 333,197.5C 329.512,186.137 332.345,176.804 341.5,169.5 Z"/></g>
<g><path style="opacity:1" fill="#2d2323" d="M 542.5,214.5 C 544.805,205.84 544.972,197.173 543,188.5C 537.485,182.277 530.985,180.944 523.5,184.5C 530.614,175.038 538.781,174.038 548,181.5C 551.14,189.757 551.14,198.09 548,206.5C 546.884,209.756 545.051,212.422 542.5,214.5 Z"/></g>
<g><path style="opacity:1" fill="#282223" d="M 433.5,178.5 C 433.5,180.167 433.5,181.833 433.5,183.5C 431.167,183.5 428.833,183.5 426.5,183.5C 426.5,181.833 426.5,180.167 426.5,178.5C 428.833,178.5 431.167,178.5 433.5,178.5 Z"/></g>
<g><path style="opacity:1" fill="#27262b" d="M 143.5,234.5 C 142.566,235.568 142.232,236.901 142.5,238.5C 148.833,238.5 155.167,238.5 161.5,238.5C 161.5,240.167 161.5,241.833 161.5,243.5C 153.167,243.5 144.833,243.5 136.5,243.5C 140.168,224.158 143.834,204.824 147.5,185.5C 150.045,178.739 152.879,172.072 156,165.5C 156.167,166.167 156.333,166.833 156.5,167.5C 152.239,189.866 147.905,212.2 143.5,234.5 Z"/></g>
<g><path style="opacity:1" fill="#1768c6" d="M 304.5,189.5 C 297.137,189.831 289.803,189.497 282.5,188.5C 283.1,185.651 284.433,183.318 286.5,181.5C 295.045,178.777 301.045,181.444 304.5,189.5 Z"/></g>
<g><path style="opacity:1" fill="#2666c2" d="M 363.5,180.5 C 369.399,181.205 375.399,181.872 381.5,182.5C 381.5,186.5 381.5,190.5 381.5,194.5C 375.821,192.104 370.154,189.604 364.5,187C 362.392,184.984 362.058,182.817 363.5,180.5 Z"/></g>
<g><path style="opacity:1" fill="#2c292c" d="M 120.5,237.5 C 119.27,239.297 118.604,241.297 118.5,243.5C 111.5,243.5 104.5,243.5 97.5,243.5C 97.5851,224.137 96.9184,204.803 95.5,185.5C 95.25,178.848 96.4167,172.514 99,166.5C 100.324,190.162 101.491,213.829 102.5,237.5C 108.5,237.5 114.5,237.5 120.5,237.5 Z"/></g>
<g><path style="opacity:1" fill="#cb0503" d="M 542.5,214.5 C 537.714,220.36 531.714,221.86 524.5,219C 521.246,216.658 519.412,213.491 519,209.5C 517.239,200.455 518.739,192.122 523.5,184.5C 530.985,180.944 537.485,182.277 543,188.5C 544.972,197.173 544.805,205.84 542.5,214.5 Z"/></g>
<g><path style="opacity:1" fill="#2c2324" d="M 498.5,175.5 C 496.389,179.653 494.555,183.986 493,188.5C 486.597,226.427 502.43,243.261 540.5,239C 545.544,237.596 550.544,236.096 555.5,234.5C 542.815,244.087 528.482,247.587 512.5,245C 493.627,239.796 484.627,227.296 485.5,207.5C 485.769,201.015 486.602,194.681 488,188.5C 483.866,187.26 479.699,187.26 475.5,188.5C 479.889,182.291 485.889,179.625 493.5,180.5C 494.806,178.527 496.473,176.861 498.5,175.5 Z"/></g>
<g><path style="opacity:1" fill="#252225" d="M 266.5,172.5 C 259.979,181.731 256.646,192.064 256.5,203.5C 256.618,223.778 266.618,235.611 286.5,239C 296.585,239.877 306.585,239.377 316.5,237.5C 315.699,239.042 315.366,240.708 315.5,242.5C 302.889,244.275 290.222,244.775 277.5,244C 263.667,240.833 255.167,232.333 252,218.5C 248.539,200.389 253.372,185.056 266.5,172.5 Z"/></g>
<g><path style="opacity:1" fill="#232021" d="M 322.5,205.5 C 321.699,207.042 321.366,208.708 321.5,210.5C 307.833,210.5 294.167,210.5 280.5,210.5C 280.5,208.833 280.5,207.167 280.5,205.5C 294.5,205.5 308.5,205.5 322.5,205.5 Z"/></g>
<g><path style="opacity:1" fill="#2a2a31" d="M 219.5,218.5 C 220.207,215.214 220.54,211.881 220.5,208.5C 214.455,208.303 208.455,208.637 202.5,209.5C 204.5,206.006 207.5,203.84 211.5,203C 216.489,202.501 221.489,202.334 226.5,202.5C 226.087,208.759 223.754,214.092 219.5,218.5 Z"/></g>
<g><path style="opacity:1" fill="#0a66c9" d="M 219.5,218.5 C 215.087,222.18 210.087,223.18 204.5,221.5C 201.429,217.837 200.762,213.837 202.5,209.5C 208.455,208.637 214.455,208.303 220.5,208.5C 220.54,211.881 220.207,215.214 219.5,218.5 Z"/></g>
<g><path style="opacity:1" fill="#262428" d="M 181.5,202.5 C 180.955,204.593 180.122,206.593 179,208.5C 175.189,223.037 180.022,233.204 193.5,239C 204.558,240.569 214.558,238.069 223.5,231.5C 223.5,233.833 223.5,236.167 223.5,238.5C 228.167,238.5 232.833,238.5 237.5,238.5C 237.5,240.167 237.5,241.833 237.5,243.5C 230.833,243.5 224.167,243.5 217.5,243.5C 217.663,241.143 217.497,238.81 217,236.5C 207.655,243.46 197.155,245.96 185.5,244C 173.948,238.412 169.448,229.245 172,216.5C 173,213.833 174,211.167 175,208.5C 176.535,205.706 178.702,203.706 181.5,202.5 Z"/></g>
<g><path style="opacity:1" fill="#252327" d="M 330.5,225.5 C 329.514,229.443 328.848,233.443 328.5,237.5C 345.803,240.94 362.803,239.94 379.5,234.5C 378.027,236.395 376.36,238.061 374.5,239.5C 369.156,242.086 363.49,243.586 357.5,244C 346.783,244.875 336.116,244.541 325.5,243C 324.296,241.647 323.629,239.981 323.5,238C 324.104,233.481 324.771,228.981 325.5,224.5C 327.216,224.629 328.883,224.962 330.5,225.5 Z"/></g>
<g><path style="opacity:1" fill="#f4c1c1" d="M 575.5,225.5 C 583.571,226.093 585.571,229.926 581.5,237C 574.672,238.824 571.506,236.324 572,229.5C 572.69,227.65 573.856,226.316 575.5,225.5 Z"/></g>
<g><path style="opacity:1" fill="#d43129" d="M 575.5,228.5 C 577.817,227.058 579.984,227.392 582,229.5C 583.025,233.45 581.525,235.783 577.5,236.5C 573.853,235.514 572.686,233.181 574,229.5C 574.383,228.944 574.883,228.611 575.5,228.5 Z"/></g>
<g><path style="opacity:1" fill="#ed9e9c" d="M 575.5,228.5 C 576.833,228.5 578.167,228.5 579.5,228.5C 579.662,230.527 579.495,232.527 579,234.5C 578.259,233.359 577.425,233.359 576.5,234.5C 575.534,232.604 575.201,230.604 575.5,228.5 Z"/></g>
<g><path style="opacity:1" fill="#757373" d="M 63.5,235.5 C 68.3958,237.446 73.7291,238.113 79.5,237.5C 79.5,238.167 79.1667,238.5 78.5,238.5C 73.1667,238.5 67.8333,238.5 62.5,238.5C 62.2627,237.209 62.596,236.209 63.5,235.5 Z"/></g>
<g><path style="opacity:1" fill="#787676" d="M 143.5,234.5 C 143.5,235.5 143.5,236.5 143.5,237.5C 149.5,237.5 155.5,237.5 161.5,237.5C 161.5,237.833 161.5,238.167 161.5,238.5C 155.167,238.5 148.833,238.5 142.5,238.5C 142.232,236.901 142.566,235.568 143.5,234.5 Z"/></g>
<g><path style="opacity:1" fill="#757475" d="M 238.5,237.5 C 238.5,238.167 238.167,238.5 237.5,238.5C 232.833,238.5 228.167,238.5 223.5,238.5C 223.5,236.167 223.5,233.833 223.5,231.5C 224.513,232.659 224.847,234.659 224.5,237.5C 229.167,237.5 233.833,237.5 238.5,237.5 Z"/></g>
<g><path style="opacity:1" fill="#7e7a7a" d="M 440.5,234.5 C 440.5,235.5 440.5,236.5 440.5,237.5C 446.5,237.5 452.5,237.5 458.5,237.5C 458.5,238.167 458.167,238.5 457.5,238.5C 451.5,238.5 445.5,238.5 439.5,238.5C 439.232,236.901 439.566,235.568 440.5,234.5 Z"/></g>
<g><path style="opacity:1" fill="#6b3061" d="M 371.5,250.5 C 336.5,251.167 301.5,251.833 266.5,252.5C 265.957,252.44 265.624,252.107 265.5,251.5C 300.827,250.5 336.16,250.167 371.5,250.5 Z"/></g>
<g><path style="opacity:1" fill="#862346" d="M 273.5,270.5 C 303.507,270.167 333.507,270.5 363.5,271.5C 363.376,272.107 363.043,272.44 362.5,272.5C 332.833,271.833 303.167,271.167 273.5,270.5 Z"/></g>
<g><path style="opacity:0.505" fill="#221e20" d="M 615.5,289.5 C 622.169,289.005 625.336,292.005 625,298.5C 621.468,304.29 617.135,304.957 612,300.5C 610.663,295.872 611.83,292.205 615.5,289.5 Z"/></g>
</svg>
