<?xml version="1.0" encoding="UTF-8"?>
<!DOCTYPE svg PUBLIC "-//W3C//DTD SVG 1.1//EN" "http://www.w3.org/Graphics/SVG/1.1/DTD/svg11.dtd">
<svg xmlns="http://www.w3.org/2000/svg" version="1.1" width="900px" height="600px" style="shape-rendering:geometricPrecision; text-rendering:geometricPrecision; image-rendering:optimizeQuality; fill-rule:evenodd; clip-rule:evenodd" xmlns:xlink="http://www.w3.org/1999/xlink">
<g><path style="opacity:1" fill="#f5f5f5" d="M -0.5,-0.5 C 299.5,-0.5 599.5,-0.5 899.5,-0.5C 899.5,199.5 899.5,399.5 899.5,599.5C 599.5,599.5 299.5,599.5 -0.5,599.5C -0.5,399.5 -0.5,199.5 -0.5,-0.5 Z"/></g>
<g><path style="opacity:1" fill="#161719" d="M 870.5,63.5 C 870.523,65.9267 871.023,68.26 872,70.5C 872.5,220.833 872.667,371.166 872.5,521.5C 867.273,546.558 851.939,561.391 826.5,566C 575.5,566.667 324.5,566.667 73.5,566C 52.6461,561.311 38.9794,548.811 32.5,528.5C 32.1667,525.833 31.8333,523.167 31.5,520.5C 31.1785,367.822 31.5119,215.155 32.5,62.5C 39.4022,42.7659 53.0689,30.5993 73.5,26C 324.833,25.3333 576.167,25.3333 827.5,26C 849.501,29.8415 863.834,42.3415 870.5,63.5 Z"/></g>
<g><path style="opacity:1" fill="#003563" d="M 74.5,29.5 C 326.844,29.1738 579.178,29.5071 831.5,30.5C 848.565,34.0477 860.399,44.0477 867,60.5C 868.079,63.0627 868.579,65.7294 868.5,68.5C 868.667,218.834 868.5,369.167 868,519.5C 866.539,524.76 865.373,530.093 864.5,535.5C 859.789,544.382 853.122,551.548 844.5,557C 840.167,558.667 835.833,560.333 831.5,562C 578.167,562.667 324.833,562.667 71.5,562C 51.3159,556.095 38.9825,542.929 34.5,522.5C 34.1726,370.145 34.5059,217.812 35.5,65.5C 40.7883,45.2139 53.7883,33.2139 74.5,29.5 Z"/></g>
<g><path style="opacity:1" fill="#001e33" d="M 74.5,29.5 C 325.666,28.3337 577,28.167 828.5,29C 829.737,29.2321 830.737,29.7321 831.5,30.5C 579.178,29.5071 326.844,29.1738 74.5,29.5 Z"/></g>
<g><path style="opacity:1" fill="#cfcfcf" d="M 30.5,69.5 C 30.167,220.001 30.5004,370.334 31.5,520.5C 31.8333,523.167 32.1667,525.833 32.5,528.5C 30.3339,526.548 29.0006,524.048 28.5,521C 29.1644,370.36 29.8311,219.86 30.5,69.5 Z"/></g>
<g><path style="opacity:1" fill="#977e4e" d="M 569.5,104.5 C 579.533,103.279 589.533,103.613 599.5,105.5C 589.497,105.25 579.497,104.916 569.5,104.5 Z"/></g>
<g><path style="opacity:1" fill="#ac2c40" d="M 311.5,104.5 C 305.359,105.636 299.026,106.303 292.5,106.5C 298.584,104.823 304.918,104.156 311.5,104.5 Z"/></g>
<g><path style="opacity:1" fill="#c7c7c7" d="M 870.5,63.5 C 871.6,65.2774 872.434,67.2774 873,69.5C 873.833,220.334 873.666,371.001 872.5,521.5C 872.667,371.166 872.5,220.833 872,70.5C 871.023,68.26 870.523,65.9267 870.5,63.5 Z"/></g>
<g><path style="opacity:1" fill="#f68530" d="M 463.5,164.5 C 465.048,164.821 465.715,165.821 465.5,167.5C 456.167,167.5 446.833,167.5 437.5,167.5C 446.381,167.155 455.048,166.155 463.5,164.5 Z"/></g>
<g><path style="opacity:1" fill="#343434" d="M 32.5,62.5 C 31.5119,215.155 31.1785,367.822 31.5,520.5C 30.5004,370.334 30.167,220.001 30.5,69.5C 30.9267,66.9902 31.5933,64.6568 32.5,62.5 Z"/></g>
<g><path style="opacity:1" fill="#f57832" d="M 482.5,189.5 C 461.598,190.177 440.598,190.844 419.5,191.5C 440.14,189.511 461.14,188.845 482.5,189.5 Z"/></g>
<g><path style="opacity:1" fill="#f78530" d="M 415.5,197.5 C 439.983,199.164 464.65,200.164 489.5,200.5C 464.5,200.5 439.5,200.5 414.5,200.5C 414.263,199.209 414.596,198.209 415.5,197.5 Z"/></g>
<g><path style="opacity:1" fill="#012241" d="M 868.5,68.5 C 869.666,219.333 869.833,370.333 869,521.5C 868.631,526.638 867.131,531.305 864.5,535.5C 865.373,530.093 866.539,524.76 868,519.5C 868.5,369.167 868.667,218.834 868.5,68.5 Z"/></g>
<g><path style="opacity:1" fill="#dfa43b" d="M 754.5,218.5 C 759.408,228.227 762.741,238.561 764.5,249.5C 763.349,247.464 762.015,246.297 760.5,246C 762.323,239.407 760.323,234.407 754.5,231C 755.448,230.517 756.448,230.351 757.5,230.5C 757.571,227.976 756.571,225.976 754.5,224.5C 754.92,222.674 754.92,220.674 754.5,218.5 Z"/></g>
<g><path style="opacity:1" fill="#f37833" d="M 504.5,232.5 C 505.434,233.568 505.768,234.901 505.5,236.5C 469.5,236.5 433.5,236.5 397.5,236.5C 432.996,235.502 468.663,235.168 504.5,235.5C 504.5,234.5 504.5,233.5 504.5,232.5 Z"/></g>
<g><path style="opacity:1" fill="#f69234" d="M 396.5,241.5 C 396.5,242.833 396.5,244.167 396.5,245.5C 433.67,245.168 470.67,245.502 507.5,246.5C 470.167,246.5 432.833,246.5 395.5,246.5C 395.216,244.585 395.549,242.919 396.5,241.5 Z"/></g>
<g><path style="opacity:1" fill="#ab8844" d="M 764.5,249.5 C 765.924,251.515 766.59,253.848 766.5,256.5C 765.076,254.485 764.41,252.152 764.5,249.5 Z"/></g>
<g><path style="opacity:1" fill="#fefbf8" d="M 507.5,324.5 C 506.135,320.078 504.802,315.745 503.5,311.5C 503.5,308.167 503.5,304.833 503.5,301.5C 505.108,292.009 508.108,283.009 512.5,274.5C 528.218,255.21 547.885,250.21 571.5,259.5C 571.833,260.5 572.167,261.5 572.5,262.5C 570.958,267.377 570.291,272.377 570.5,277.5C 566.643,276.825 562.977,275.658 559.5,274C 542.809,270.389 531.642,276.555 526,292.5C 521.93,304.699 524.43,315.199 533.5,324C 542.757,327.688 551.757,327.188 560.5,322.5C 563.873,334.926 559.206,341.759 546.5,343C 536.716,344.789 527.716,342.956 519.5,337.5C 514.742,333.747 510.742,329.414 507.5,324.5 Z"/></g>
<g><path style="opacity:1" fill="#fef9f8" d="M 393.5,258.5 C 393.058,262.154 392.724,265.821 392.5,269.5C 391.566,270.568 391.232,271.901 391.5,273.5C 394.833,273.5 398.167,273.5 401.5,273.5C 401.494,278.215 400.994,282.882 400,287.5C 395.934,288.464 391.767,288.797 387.5,288.5C 386.141,298.176 384.641,307.843 383,317.5C 380.536,328.376 384.702,332.042 395.5,328.5C 395.5,329.833 395.5,331.167 395.5,332.5C 394.686,334.631 394.186,336.964 394,339.5C 393.292,340.381 392.458,341.047 391.5,341.5C 385.211,342.372 378.878,342.705 372.5,342.5C 368.438,342.276 365.605,340.276 364,336.5C 363.274,331.448 363.441,326.448 364.5,321.5C 367.018,316.939 368.018,311.939 367.5,306.5C 370.166,290.501 372.833,274.501 375.5,258.5C 381.5,258.5 387.5,258.5 393.5,258.5 Z"/></g>
<g><path style="opacity:1" fill="#ed2933" d="M 392.5,269.5 C 432.5,269.5 472.5,269.5 512.5,269.5C 512.5,271.167 512.5,272.833 512.5,274.5C 508.108,283.009 505.108,292.009 503.5,301.5C 496.745,302.123 490.412,301.456 484.5,299.5C 485.614,296.551 487.614,294.385 490.5,293C 494.44,291.985 498.44,291.485 502.5,291.5C 503.08,285.512 504.747,279.846 507.5,274.5C 504.554,273.345 501.554,273.179 498.5,274C 494.084,276.412 490.251,279.578 487,283.5C 486.982,281.203 487.149,278.869 487.5,276.5C 488.404,275.791 488.737,274.791 488.5,273.5C 481.978,273.177 475.645,273.51 469.5,274.5C 466.764,286.587 464.764,298.921 463.5,311.5C 461.96,313.838 461.294,316.505 461.5,319.5C 460.827,326.222 459.827,332.888 458.5,339.5C 458.167,339.5 457.833,339.5 457.5,339.5C 457.663,337.143 457.497,334.81 457,332.5C 456.683,334.301 456.016,334.634 455,333.5C 454.289,335.899 454.456,338.232 455.5,340.5C 454.3,341.292 452.967,341.292 451.5,340.5C 453.243,335.551 454.576,330.384 455.5,325C 455.167,324.5 454.833,324 454.5,323.5C 446.075,328.177 437.075,329.677 427.5,328C 419.942,325.588 416.275,320.755 416.5,313.5C 430.873,314.149 444.873,313.482 458.5,311.5C 459.998,302.797 459.831,294.13 458,285.5C 449.966,274.583 439.133,270.416 425.5,273C 409.871,276.461 400.538,285.961 397.5,301.5C 394.167,301.5 390.833,301.5 387.5,301.5C 387.5,304.833 387.5,308.167 387.5,311.5C 390.833,311.5 394.167,311.5 397.5,311.5C 397.688,318.729 399.688,325.395 403.5,331.5C 400.512,331.671 398.512,330.338 397.5,327.5C 396.83,329.291 396.163,330.958 395.5,332.5C 395.5,331.167 395.5,329.833 395.5,328.5C 384.702,332.042 380.536,328.376 383,317.5C 384.641,307.843 386.141,298.176 387.5,288.5C 391.767,288.797 395.934,288.464 400,287.5C 400.994,282.882 401.494,278.215 401.5,273.5C 398.167,273.5 394.833,273.5 391.5,273.5C 391.232,271.901 391.566,270.568 392.5,269.5 Z"/></g>
<g><path style="opacity:1" fill="#fef9f8" d="M 458.5,311.5 C 444.402,312.151 430.402,312.817 416.5,313.5C 416.275,320.755 419.942,325.588 427.5,328C 437.075,329.677 446.075,328.177 454.5,323.5C 454.833,324 455.167,324.5 455.5,325C 454.576,330.384 453.243,335.551 451.5,340.5C 436.189,345.625 421.522,344.125 407.5,336C 405.959,334.629 404.625,333.129 403.5,331.5C 399.688,325.395 397.688,318.729 397.5,311.5C 397.5,308.167 397.5,304.833 397.5,301.5C 400.538,285.961 409.871,276.461 425.5,273C 439.133,270.416 449.966,274.583 458,285.5C 459.831,294.13 459.998,302.797 458.5,311.5 Z"/></g>
<g><path style="opacity:1" fill="#f8b8b3" d="M 469.5,274.5 C 475.645,273.51 481.978,273.177 488.5,273.5C 488.737,274.791 488.404,275.791 487.5,276.5C 481.926,274.547 475.926,273.88 469.5,274.5 Z"/></g>
<g><path style="opacity:1" fill="#fdf9f7" d="M 484.5,299.5 C 482.898,303.239 481.898,307.239 481.5,311.5C 480.465,315.739 479.799,320.072 479.5,324.5C 478.833,327.833 478.167,331.167 477.5,334.5C 477.5,334.833 477.5,335.167 477.5,335.5C 476.935,337.952 476.268,340.285 475.5,342.5C 469.833,342.5 464.167,342.5 458.5,342.5C 458.5,341.5 458.5,340.5 458.5,339.5C 459.827,332.888 460.827,326.222 461.5,319.5C 462.768,317.095 463.435,314.428 463.5,311.5C 464.764,298.921 466.764,286.587 469.5,274.5C 475.926,273.88 481.926,274.547 487.5,276.5C 487.149,278.869 486.982,281.203 487,283.5C 490.251,279.578 494.084,276.412 498.5,274C 501.554,273.179 504.554,273.345 507.5,274.5C 504.747,279.846 503.08,285.512 502.5,291.5C 498.44,291.485 494.44,291.985 490.5,293C 487.614,294.385 485.614,296.551 484.5,299.5 Z"/></g>
<g><path style="opacity:1" fill="#ec2532" d="M 441.5,299.5 C 433.757,300.13 426.424,299.463 419.5,297.5C 421.567,288.963 426.9,285.796 435.5,288C 440.871,290.373 442.871,294.206 441.5,299.5 Z"/></g>
<g><path style="opacity:1" fill="#f25f6d" d="M 419.5,297.5 C 426.424,299.463 433.757,300.13 441.5,299.5C 434.018,300.492 426.352,300.825 418.5,300.5C 418.263,299.209 418.596,298.209 419.5,297.5 Z"/></g>
<g><path style="opacity:1" fill="#fbb232" d="M 569.5,104.5 C 579.497,104.916 589.497,105.25 599.5,105.5C 653.974,112.23 698.14,136.897 732,179.5C 741.053,191.607 748.553,204.607 754.5,218.5C 754.92,220.674 754.92,222.674 754.5,224.5C 756.571,225.976 757.571,227.976 757.5,230.5C 756.448,230.351 755.448,230.517 754.5,231C 760.323,234.407 762.323,239.407 760.5,246C 762.015,246.297 763.349,247.464 764.5,249.5C 764.41,252.152 765.076,254.485 766.5,256.5C 769.515,272.981 770.848,289.648 770.5,306.5C 769.239,313.326 768.239,320.326 767.5,327.5C 766.232,329.905 765.565,332.572 765.5,335.5C 764.908,338.127 764.575,340.794 764.5,343.5C 763.076,345.515 762.41,347.848 762.5,350.5C 743.566,406.274 707.233,446.44 653.5,471C 639.226,476.302 624.559,480.135 609.5,482.5C 593.554,484.195 577.554,484.862 561.5,484.5C 519.426,480.453 482.759,464.453 451.5,436.5C 454.146,433.188 457.146,430.188 460.5,427.5C 453.858,426.669 447.191,426.169 440.5,426C 438.356,423.021 436.022,420.188 433.5,417.5C 446.167,416.833 458.833,416.167 471.5,415.5C 474.411,412.01 477.078,408.344 479.5,404.5C 460.509,403.667 441.509,403.167 422.5,403C 420.686,400.521 419.019,398.021 417.5,395.5C 440.833,394.833 464.167,394.167 487.5,393.5C 489.234,389.7 491.234,386.034 493.5,382.5C 494.043,382.44 494.376,382.107 494.5,381.5C 465.841,380.5 437.174,380.167 408.5,380.5C 408.06,377.62 407.06,374.954 405.5,372.5C 436.996,371.502 468.662,371.168 500.5,371.5C 500.5,370.167 500.5,368.833 500.5,367.5C 501.576,364.129 502.576,360.796 503.5,357.5C 468.827,357.833 434.16,357.5 399.5,356.5C 398.628,354.55 397.961,352.55 397.5,350.5C 433.989,348.835 470.655,347.835 507.5,347.5C 507.366,345.708 507.699,344.042 508.5,342.5C 510.04,340.162 510.706,337.495 510.5,334.5C 499.5,334.5 488.5,334.5 477.5,334.5C 478.167,331.167 478.833,327.833 479.5,324.5C 488.833,324.5 498.167,324.5 507.5,324.5C 510.742,329.414 514.742,333.747 519.5,337.5C 527.716,342.956 536.716,344.789 546.5,343C 559.206,341.759 563.873,334.926 560.5,322.5C 551.757,327.188 542.757,327.688 533.5,324C 524.43,315.199 521.93,304.699 526,292.5C 531.642,276.555 542.809,270.389 559.5,274C 562.977,275.658 566.643,276.825 570.5,277.5C 570.291,272.377 570.958,267.377 572.5,262.5C 572.167,261.5 571.833,260.5 571.5,259.5C 547.885,250.21 528.218,255.21 512.5,274.5C 512.5,272.833 512.5,271.167 512.5,269.5C 472.5,269.5 432.5,269.5 392.5,269.5C 392.724,265.821 393.058,262.154 393.5,258.5C 432.5,258.5 471.5,258.5 510.5,258.5C 510.589,255.291 510.256,252.125 509.5,249C 509.316,247.624 508.649,246.791 507.5,246.5C 470.67,245.502 433.67,245.168 396.5,245.5C 396.5,244.167 396.5,242.833 396.5,241.5C 397.038,239.883 397.371,238.216 397.5,236.5C 433.5,236.5 469.5,236.5 505.5,236.5C 505.768,234.901 505.434,233.568 504.5,232.5C 503.508,229.862 502.508,227.195 501.5,224.5C 468.84,223.5 436.173,223.167 403.5,223.5C 403.557,219.495 404.89,215.995 407.5,213C 436.831,212.5 466.165,212.333 495.5,212.5C 494.54,207.914 492.54,203.914 489.5,200.5C 464.65,200.164 439.983,199.164 415.5,197.5C 416.86,195.46 418.193,193.46 419.5,191.5C 440.598,190.844 461.598,190.177 482.5,189.5C 480.419,185.57 478.086,181.736 475.5,178C 460.489,177.833 445.489,177.333 430.5,176.5C 432.506,173.171 434.839,170.171 437.5,167.5C 446.833,167.5 456.167,167.5 465.5,167.5C 465.715,165.821 465.048,164.821 463.5,164.5C 459.467,160.132 455.134,156.132 450.5,152.5C 451.552,152.649 452.552,152.483 453.5,152C 486.327,122.216 524.994,106.383 569.5,104.5 Z"/></g>
<g><path style="opacity:1" fill="#fdd997" d="M 675.5,277.5 C 675.762,276.022 675.429,274.689 674.5,273.5C 672.382,274.946 670.049,275.613 667.5,275.5C 670.084,273.528 673.084,272.528 676.5,272.5C 676.784,274.415 676.451,276.081 675.5,277.5 Z"/></g>
<g><path style="opacity:1" fill="#fefbf7" d="M 667.5,275.5 C 670.049,275.613 672.382,274.946 674.5,273.5C 675.429,274.689 675.762,276.022 675.5,277.5C 675.156,281.228 674.49,284.895 673.5,288.5C 665.655,288.837 659.489,292.171 655,298.5C 650.704,312.869 648.204,327.536 647.5,342.5C 641.167,342.5 634.833,342.5 628.5,342.5C 631.964,320.158 635.464,297.825 639,275.5C 645.211,273.566 651.711,272.899 658.5,273.5C 657.679,276.554 657.679,279.554 658.5,282.5C 660.942,279.385 663.942,277.052 667.5,275.5 Z"/></g>
<g><path style="opacity:1" fill="#fcd38b" d="M 708.5,274.5 C 703.463,274.413 698.463,274.746 693.5,275.5C 693.918,274.778 694.584,274.278 695.5,274C 700.02,273.186 704.354,273.353 708.5,274.5 Z"/></g>
<g><path style="opacity:1" fill="#fefcf8" d="M 611.5,273.5 C 618.746,275.033 624.579,278.7 629,284.5C 629.667,288.833 629.667,293.167 629,297.5C 626.332,312.171 623.666,326.837 621,341.5C 615.593,342.473 610.093,342.807 604.5,342.5C 604.662,340.473 604.495,338.473 604,336.5C 600.345,339.744 596.178,342.078 591.5,343.5C 586.13,343.608 580.797,343.275 575.5,342.5C 566.388,337.94 562.888,330.607 565,320.5C 567.898,309.27 575.064,302.437 586.5,300C 594.439,298.679 602.439,298.179 610.5,298.5C 611.029,294.808 610.029,291.642 607.5,289C 598.833,288.333 590.167,288.333 581.5,289C 579.579,289.36 577.912,290.194 576.5,291.5C 576.167,291.167 575.833,290.833 575.5,290.5C 576.821,286.216 577.988,281.883 579,277.5C 580.129,275.859 581.629,274.859 583.5,274.5C 592.82,273.871 602.154,273.538 611.5,273.5 Z"/></g>
<g><path style="opacity:1" fill="#fedca5" d="M 611.5,273.5 C 602.154,273.538 592.82,273.871 583.5,274.5C 589.274,273.103 595.274,272.436 601.5,272.5C 605.018,272.502 608.351,272.835 611.5,273.5 Z"/></g>
<g><path style="opacity:1" fill="#fefcf8" d="M 729.5,337.5 C 728.766,338.878 728.099,340.378 727.5,342C 721.843,342.499 716.176,342.666 710.5,342.5C 711.519,340.46 711.519,338.46 710.5,336.5C 703.452,343.073 695.119,345.24 685.5,343C 677.29,338.458 672.124,331.625 670,322.5C 667.239,305.697 672.073,291.53 684.5,280C 687.286,277.94 690.286,276.44 693.5,275.5C 698.463,274.746 703.463,274.413 708.5,274.5C 712.729,276.287 716.729,278.62 720.5,281.5C 722.161,273.868 723.494,266.201 724.5,258.5C 730.5,258.5 736.5,258.5 742.5,258.5C 738.258,284.865 733.924,311.198 729.5,337.5 Z"/></g>
<g><path style="opacity:1" fill="#fbb435" d="M 701.5,289.5 C 712.161,288.828 717.161,293.828 716.5,304.5C 716.411,316.364 710.744,324.03 699.5,327.5C 692.242,324.493 689.242,318.993 690.5,311C 690.165,306.524 690.998,302.357 693,298.5C 695.529,295.165 698.363,292.165 701.5,289.5 Z"/></g>
<g><path style="opacity:1" fill="#fcb033" d="M 397.5,301.5 C 397.5,304.833 397.5,308.167 397.5,311.5C 394.167,311.5 390.833,311.5 387.5,311.5C 387.5,308.167 387.5,304.833 387.5,301.5C 390.833,301.5 394.167,301.5 397.5,301.5 Z"/></g>
<g><path style="opacity:1" fill="#fbb133" d="M 484.5,299.5 C 490.412,301.456 496.745,302.123 503.5,301.5C 503.5,304.833 503.5,308.167 503.5,311.5C 496.167,311.5 488.833,311.5 481.5,311.5C 481.898,307.239 482.898,303.239 484.5,299.5 Z"/></g>
<g><path style="opacity:1" fill="#f79d96" d="M 458.5,311.5 C 444.873,313.482 430.873,314.149 416.5,313.5C 430.402,312.817 444.402,312.151 458.5,311.5 Z"/></g>
<g><path style="opacity:1" fill="#fbb8b2" d="M 367.5,306.5 C 368.018,311.939 367.018,316.939 364.5,321.5C 364.882,316.256 365.882,311.256 367.5,306.5 Z"/></g>
<g><path style="opacity:1" fill="#46565d" d="M 770.5,306.5 C 770.713,313.818 769.713,320.818 767.5,327.5C 768.239,320.326 769.239,313.326 770.5,306.5 Z"/></g>
<g><path style="opacity:1" fill="#f59f97" d="M 463.5,311.5 C 463.435,314.428 462.768,317.095 461.5,319.5C 461.294,316.505 461.96,313.838 463.5,311.5 Z"/></g>
<g><path style="opacity:1" fill="#ed2b30" d="M 481.5,311.5 C 488.833,311.5 496.167,311.5 503.5,311.5C 504.802,315.745 506.135,320.078 507.5,324.5C 498.167,324.5 488.833,324.5 479.5,324.5C 479.799,320.072 480.465,315.739 481.5,311.5 Z"/></g>
<g><path style="opacity:1" fill="#fbb538" d="M 595.5,310.5 C 599.5,310.5 603.5,310.5 607.5,310.5C 607.358,324.488 600.524,330.155 587,327.5C 585.517,324.298 585.183,320.964 586,317.5C 588.798,314.528 591.964,312.195 595.5,310.5 Z"/></g>
<g><path style="opacity:1" fill="#fde6c0" d="M 745.5,325.5 C 755.243,324.746 759.41,329.079 758,338.5C 752.255,345.089 746.589,345.089 741,338.5C 739.243,332.825 740.743,328.492 745.5,325.5 Z"/></g>
<g><path style="opacity:1" fill="#eb1d2e" d="M 311.5,104.5 C 364.457,101.898 410.79,117.898 450.5,152.5C 455.134,156.132 459.467,160.132 463.5,164.5C 455.048,166.155 446.381,167.155 437.5,167.5C 434.839,170.171 432.506,173.171 430.5,176.5C 445.489,177.333 460.489,177.833 475.5,178C 478.086,181.736 480.419,185.57 482.5,189.5C 461.14,188.845 440.14,189.511 419.5,191.5C 418.193,193.46 416.86,195.46 415.5,197.5C 414.596,198.209 414.263,199.209 414.5,200.5C 439.5,200.5 464.5,200.5 489.5,200.5C 492.54,203.914 494.54,207.914 495.5,212.5C 466.165,212.333 436.831,212.5 407.5,213C 404.89,215.995 403.557,219.495 403.5,223.5C 436.173,223.167 468.84,223.5 501.5,224.5C 502.508,227.195 503.508,229.862 504.5,232.5C 504.5,233.5 504.5,234.5 504.5,235.5C 468.663,235.168 432.996,235.502 397.5,236.5C 397.371,238.216 397.038,239.883 396.5,241.5C 395.549,242.919 395.216,244.585 395.5,246.5C 432.833,246.5 470.167,246.5 507.5,246.5C 508.649,246.791 509.316,247.624 509.5,249C 510.256,252.125 510.589,255.291 510.5,258.5C 471.5,258.5 432.5,258.5 393.5,258.5C 387.5,258.5 381.5,258.5 375.5,258.5C 372.833,274.501 370.166,290.501 367.5,306.5C 365.882,311.256 364.882,316.256 364.5,321.5C 363.441,326.448 363.274,331.448 364,336.5C 365.605,340.276 368.438,342.276 372.5,342.5C 377.985,343.652 383.651,343.818 389.5,343C 390.416,342.722 391.082,342.222 391.5,341.5C 392.458,341.047 393.292,340.381 394,339.5C 394.186,336.964 394.686,334.631 395.5,332.5C 396.163,330.958 396.83,329.291 397.5,327.5C 398.512,330.338 400.512,331.671 403.5,331.5C 404.625,333.129 405.959,334.629 407.5,336C 421.522,344.125 436.189,345.625 451.5,340.5C 452.967,341.292 454.3,341.292 455.5,340.5C 454.456,338.232 454.289,335.899 455,333.5C 456.016,334.634 456.683,334.301 457,332.5C 457.497,334.81 457.663,337.143 457.5,339.5C 457.5,340.833 457.5,342.167 457.5,343.5C 463.69,343.823 469.69,343.49 475.5,342.5C 476.268,340.285 476.935,337.952 477.5,335.5C 488.167,335.5 498.833,335.5 509.5,335.5C 509.007,337.806 508.674,340.139 508.5,342.5C 507.699,344.042 507.366,345.708 507.5,347.5C 470.5,347.5 433.5,347.5 396.5,347.5C 396.263,348.791 396.596,349.791 397.5,350.5C 397.961,352.55 398.628,354.55 399.5,356.5C 434.16,357.5 468.827,357.833 503.5,357.5C 502.576,360.796 501.576,364.129 500.5,367.5C 499.596,368.209 499.263,369.209 499.5,370.5C 467.826,370.167 436.16,370.5 404.5,371.5C 404.624,372.107 404.957,372.44 405.5,372.5C 407.06,374.954 408.06,377.62 408.5,380.5C 436.833,381.167 465.167,381.833 493.5,382.5C 491.234,386.034 489.234,389.7 487.5,393.5C 463.824,393.167 440.157,393.5 416.5,394.5C 416.624,395.107 416.957,395.44 417.5,395.5C 419.019,398.021 420.686,400.521 422.5,403C 441.509,403.167 460.509,403.667 479.5,404.5C 477.078,408.344 474.411,412.01 471.5,415.5C 458.833,416.167 446.167,416.833 433.5,417.5C 436.022,420.188 438.356,423.021 440.5,426C 447.191,426.169 453.858,426.669 460.5,427.5C 457.146,430.188 454.146,433.188 451.5,436.5C 403.007,478.382 347.007,493.548 283.5,482C 205.829,461.83 157.163,412.996 137.5,335.5C 137.435,332.572 136.768,329.905 135.5,327.5C 124.545,243.929 153.878,178.762 223.5,132C 244.694,118.657 267.694,110.157 292.5,106.5C 299.026,106.303 305.359,105.636 311.5,104.5 Z"/></g>
<g><path style="opacity:1" fill="#f9a2a1" d="M 289.5,298.5 C 280.945,299.25 272.278,300.25 263.5,301.5C 265.811,299.932 268.478,299.098 271.5,299C 277.491,298.501 283.491,298.334 289.5,298.5 Z"/></g>
<g><path style="opacity:1" fill="#f8aaa8" d="M 306.5,281.5 C 308.173,282.343 309.34,283.676 310,285.5C 310.808,289.027 310.641,292.36 309.5,295.5C 309.958,290.449 308.958,285.783 306.5,281.5 Z"/></g>
<g><path style="opacity:1" fill="#fef9f8" d="M 306.5,281.5 C 308.958,285.783 309.958,290.449 309.5,295.5C 306.581,311.1 303.914,326.767 301.5,342.5C 296.167,342.5 290.833,342.5 285.5,342.5C 285.785,340.712 285.452,339.045 284.5,337.5C 276.061,343.199 266.727,345.033 256.5,343C 250.807,340.643 247.307,336.477 246,330.5C 243.708,315.726 249.542,306.06 263.5,301.5C 272.278,300.25 280.945,299.25 289.5,298.5C 290.629,296.372 290.796,294.039 290,291.5C 288.829,290.107 287.329,289.273 285.5,289C 277.833,288.333 270.167,288.333 262.5,289C 260.782,289.346 259.115,289.846 257.5,290.5C 257.322,285.802 258.155,281.135 260,276.5C 273.816,271.014 287.649,271.181 301.5,277C 303.66,277.996 305.327,279.496 306.5,281.5 Z"/></g>
<g><path style="opacity:1" fill="#ed2834" d="M 276.5,310.5 C 280.167,310.5 283.833,310.5 287.5,310.5C 287.23,325.133 280.23,330.466 266.5,326.5C 265.425,323.562 265.259,320.562 266,317.5C 269.154,314.488 272.654,312.155 276.5,310.5 Z"/></g>
<g><path style="opacity:1" fill="#fdf7f6" d="M 332.5,272.5 C 342.852,272.399 353.185,272.733 363.5,273.5C 362.943,278.45 361.943,283.283 360.5,288C 353.53,287.545 346.53,287.545 339.5,288C 334.231,291.819 334.231,295.819 339.5,300C 359.875,303.915 365.375,315.082 356,333.5C 350.516,339.491 343.683,342.657 335.5,343C 326.056,343.939 316.723,343.439 307.5,341.5C 307.503,336.473 307.836,331.473 308.5,326.5C 317.43,328.204 326.43,328.704 335.5,328C 339.126,325.749 340.293,322.582 339,318.5C 333.392,315.292 327.559,312.459 321.5,310C 313.099,300.915 312.265,291.082 319,280.5C 321.46,279.042 323.627,277.209 325.5,275C 328.104,274.61 330.438,273.776 332.5,272.5 Z"/></g>
<g><path style="opacity:1" fill="#fefaf9" d="M 197.5,295.5 C 197.335,299.182 197.501,302.848 198,306.5C 199.147,307.458 200.147,307.125 201,305.5C 201.49,304.207 201.657,302.873 201.5,301.5C 207.118,286.973 213.118,272.64 219.5,258.5C 229.833,258.5 240.167,258.5 250.5,258.5C 250.5,260.167 250.5,261.833 250.5,263.5C 245.353,289.754 240.686,316.087 236.5,342.5C 230.833,342.5 225.167,342.5 219.5,342.5C 219.5,341.5 219.5,340.5 219.5,339.5C 222.265,324.908 224.599,310.242 226.5,295.5C 228.633,291.081 229.299,286.415 228.5,281.5C 226.967,284.768 225.634,288.101 224.5,291.5C 217.65,308.577 210.65,325.577 203.5,342.5C 196.833,342.5 190.167,342.5 183.5,342.5C 183.802,339.941 183.468,337.607 182.5,335.5C 182.77,327.445 182.437,319.445 181.5,311.5C 181.764,300.771 181.097,290.104 179.5,279.5C 178.702,279.957 178.369,280.624 178.5,281.5C 176.389,295.498 174.056,309.498 171.5,323.5C 170.087,328.63 169.087,333.963 168.5,339.5C 168.5,340.167 168.5,340.833 168.5,341.5C 162.925,342.452 157.259,342.786 151.5,342.5C 151.5,341.5 151.5,340.5 151.5,339.5C 155.703,312.485 160.036,285.485 164.5,258.5C 175.167,258.5 185.833,258.5 196.5,258.5C 196.675,270.839 197.008,283.172 197.5,295.5 Z"/></g>
<g><path style="opacity:1" fill="#f37473" d="M 171.5,323.5 C 171.773,329.216 170.773,334.549 168.5,339.5C 169.087,333.963 170.087,328.63 171.5,323.5 Z"/></g>
<g><path style="opacity:1" fill="#fcb2ab" d="M 197.5,295.5 C 198.321,298.641 198.821,301.975 199,305.5C 199.934,304.142 200.768,302.808 201.5,301.5C 201.657,302.873 201.49,304.207 201,305.5C 200.147,307.125 199.147,307.458 198,306.5C 197.501,302.848 197.335,299.182 197.5,295.5 Z"/></g>
<g><path style="opacity:1" fill="#f57877" d="M 181.5,311.5 C 180.721,301.481 179.721,291.481 178.5,281.5C 178.369,280.624 178.702,279.957 179.5,279.5C 181.097,290.104 181.764,300.771 181.5,311.5 Z"/></g>
<g><path style="opacity:1" fill="#f15a5a" d="M 226.5,295.5 C 226.66,293.801 226.494,292.134 226,290.5C 225.617,291.056 225.117,291.389 224.5,291.5C 225.634,288.101 226.967,284.768 228.5,281.5C 229.299,286.415 228.633,291.081 226.5,295.5 Z"/></g>
<g><path style="opacity:1" fill="#f5756d" d="M 219.5,258.5 C 229.987,257.506 240.654,257.172 251.5,257.5C 251.795,259.735 251.461,261.735 250.5,263.5C 250.5,261.833 250.5,260.167 250.5,258.5C 240.167,258.5 229.833,258.5 219.5,258.5 Z"/></g>
<g><path style="opacity:1" fill="#fbbc4d" d="M 745.5,327.5 C 751.651,325.844 755.317,328.01 756.5,334C 756.649,339.184 754.149,341.684 749,341.5C 744.643,341.307 742.476,338.973 742.5,334.5C 743.025,331.971 744.025,329.638 745.5,327.5 Z"/></g>
<g><path style="opacity:1" fill="#fde5be" d="M 746.5,330.5 C 748.5,330.5 750.5,330.5 752.5,330.5C 752.214,333.173 751.88,335.507 751.5,337.5C 748.873,335.916 748.873,334.249 751.5,332.5C 750.311,331.571 748.978,331.238 747.5,331.5C 747.662,333.527 747.495,335.527 747,337.5C 746.503,335.19 746.337,332.857 746.5,330.5 Z"/></g>
<g><path style="opacity:1" fill="#8e2e44" d="M 135.5,327.5 C 136.768,329.905 137.435,332.572 137.5,335.5C 135.96,333.162 135.294,330.495 135.5,327.5 Z"/></g>
<g><path style="opacity:1" fill="#f36330" d="M 477.5,335.5 C 477.5,335.167 477.5,334.833 477.5,334.5C 488.5,334.5 499.5,334.5 510.5,334.5C 510.706,337.495 510.04,340.162 508.5,342.5C 508.674,340.139 509.007,337.806 509.5,335.5C 498.833,335.5 488.167,335.5 477.5,335.5 Z"/></g>
<g><path style="opacity:1" fill="#a18348" d="M 767.5,327.5 C 767.425,330.206 767.092,332.873 766.5,335.5C 766.167,335.5 765.833,335.5 765.5,335.5C 765.565,332.572 766.232,329.905 767.5,327.5 Z"/></g>
<g><path style="opacity:1" fill="#545f58" d="M 765.5,335.5 C 765.833,335.5 766.167,335.5 766.5,335.5C 766.435,338.428 765.768,341.095 764.5,343.5C 764.575,340.794 764.908,338.127 765.5,335.5 Z"/></g>
<g><path style="opacity:1" fill="#f38a8b" d="M 151.5,339.5 C 151.5,340.5 151.5,341.5 151.5,342.5C 157.259,342.786 162.925,342.452 168.5,341.5C 162.926,343.453 156.926,344.12 150.5,343.5C 150.232,341.901 150.566,340.568 151.5,339.5 Z"/></g>
<g><path style="opacity:1" fill="#f48284" d="M 182.5,335.5 C 183.468,337.607 183.802,339.941 183.5,342.5C 190.167,342.5 196.833,342.5 203.5,342.5C 196.687,343.491 189.687,343.825 182.5,343.5C 182.5,340.833 182.5,338.167 182.5,335.5 Z"/></g>
<g><path style="opacity:1" fill="#f48589" d="M 219.5,339.5 C 219.5,340.5 219.5,341.5 219.5,342.5C 225.167,342.5 230.833,342.5 236.5,342.5C 230.69,343.49 224.69,343.823 218.5,343.5C 218.232,341.901 218.566,340.568 219.5,339.5 Z"/></g>
<g><path style="opacity:1" fill="#f46f6e" d="M 391.5,341.5 C 391.082,342.222 390.416,342.722 389.5,343C 383.651,343.818 377.985,343.652 372.5,342.5C 378.878,342.705 385.211,342.372 391.5,341.5 Z"/></g>
<g><path style="opacity:1" fill="#f4858a" d="M 457.5,339.5 C 457.833,339.5 458.167,339.5 458.5,339.5C 458.5,340.5 458.5,341.5 458.5,342.5C 464.167,342.5 469.833,342.5 475.5,342.5C 469.69,343.49 463.69,343.823 457.5,343.5C 457.5,342.167 457.5,340.833 457.5,339.5 Z"/></g>
<g><path style="opacity:1" fill="#fcd58d" d="M 729.5,337.5 C 729.739,339.467 729.406,341.301 728.5,343C 722.319,343.819 716.319,343.653 710.5,342.5C 716.176,342.666 721.843,342.499 727.5,342C 728.099,340.378 728.766,338.878 729.5,337.5 Z"/></g>
<g><path style="opacity:1" fill="#012542" d="M 35.5,65.5 C 34.5059,217.812 34.1726,370.145 34.5,522.5C 33.3339,371.334 33.1672,220.001 34,68.5C 34.2321,67.2625 34.7321,66.2625 35.5,65.5 Z"/></g>
<g><path style="opacity:1" fill="#fed38e" d="M 575.5,342.5 C 580.797,343.275 586.13,343.608 591.5,343.5C 589.527,344.163 587.361,344.496 585,344.5C 581.523,344.672 578.356,344.006 575.5,342.5 Z"/></g>
<g><path style="opacity:1" fill="#585b5a" d="M 764.5,343.5 C 764.59,346.152 763.924,348.485 762.5,350.5C 762.41,347.848 763.076,345.515 764.5,343.5 Z"/></g>
<g><path style="opacity:1" fill="#f89b2e" d="M 507.5,347.5 C 470.655,347.835 433.989,348.835 397.5,350.5C 396.596,349.791 396.263,348.791 396.5,347.5C 433.5,347.5 470.5,347.5 507.5,347.5 Z"/></g>
<g><path style="opacity:1" fill="#f99831" d="M 500.5,367.5 C 500.5,368.833 500.5,370.167 500.5,371.5C 468.662,371.168 436.996,371.502 405.5,372.5C 404.957,372.44 404.624,372.107 404.5,371.5C 436.16,370.5 467.826,370.167 499.5,370.5C 499.263,369.209 499.596,368.209 500.5,367.5 Z"/></g>
<g><path style="opacity:1" fill="#f4662f" d="M 408.5,380.5 C 437.174,380.167 465.841,380.5 494.5,381.5C 494.376,382.107 494.043,382.44 493.5,382.5C 465.167,381.833 436.833,381.167 408.5,380.5 Z"/></g>
<g><path style="opacity:1" fill="#f99830" d="M 487.5,393.5 C 464.167,394.167 440.833,394.833 417.5,395.5C 416.957,395.44 416.624,395.107 416.5,394.5C 440.157,393.5 463.824,393.167 487.5,393.5 Z"/></g>
<g><path style="opacity:1" fill="#a7894b" d="M 744.5,403.5 C 750.166,402.278 754.666,403.945 758,408.5C 759.102,418.716 754.602,422.549 744.5,420C 739.214,414.502 739.214,409.002 744.5,403.5 Z"/></g>
<g><path style="opacity:1" fill="#1f3f61" d="M 746.5,405.5 C 754.33,404.495 757.496,407.828 756,415.5C 751.619,420.821 747.285,420.821 743,415.5C 741.756,411.191 742.923,407.858 746.5,405.5 Z"/></g>
<g><path style="opacity:1" fill="#927d55" d="M 746.5,408.5 C 748.5,408.5 750.5,408.5 752.5,408.5C 752.214,411.173 751.88,413.507 751.5,415.5C 750.5,414.833 749.5,414.167 748.5,413.5C 747.808,414.025 747.308,414.692 747,415.5C 746.503,413.19 746.337,410.857 746.5,408.5 Z"/></g>
<g><path style="opacity:1" fill="#18405a" d="M 748.5,409.5 C 750.337,409.639 750.67,410.306 749.5,411.5C 748.702,411.043 748.369,410.376 748.5,409.5 Z"/></g>
<g><path style="opacity:1" fill="#cb9b41" d="M 609.5,482.5 C 605.056,483.813 600.389,484.646 595.5,485C 583.992,485.826 572.659,485.659 561.5,484.5C 577.554,484.862 593.554,484.195 609.5,482.5 Z"/></g>
</svg>
