<?xml version="1.0" encoding="UTF-8"?>
<!DOCTYPE svg PUBLIC "-//W3C//DTD SVG 1.1//EN" "http://www.w3.org/Graphics/SVG/1.1/DTD/svg11.dtd">
<svg xmlns="http://www.w3.org/2000/svg" version="1.1" width="320px" height="200px" style="shape-rendering:geometricPrecision; text-rendering:geometricPrecision; image-rendering:optimizeQuality; fill-rule:evenodd; clip-rule:evenodd" xmlns:xlink="http://www.w3.org/1999/xlink">
<g><path style="opacity:0.995" fill="#e21936" d="M 55.5,-0.5 C 80.1667,-0.5 104.833,-0.5 129.5,-0.5C 121,2.49545 114.833,8.16212 111,16.5C 106.515,34.4387 102.348,52.4387 98.5,70.5C 97.5178,71.1408 96.5178,71.8075 95.5,72.5C 91.3558,69.9398 87.1891,69.9398 83,72.5C 81.5611,81.1924 80.0611,89.8591 78.5,98.5C 81.8984,98.8204 85.2317,98.487 88.5,97.5C 89.8083,91.4604 91.3083,85.4604 93,79.5C 94.0113,78.6634 95.1779,78.33 96.5,78.5C 88.114,113.213 80.114,148.046 72.5,183C 72.8086,190.797 76.4753,196.297 83.5,199.5C 58.8333,199.5 34.1667,199.5 9.5,199.5C 5.14152,197.142 1.80818,193.808 -0.5,189.5C -0.5,185.167 -0.5,180.833 -0.5,176.5C 12.2821,124.032 24.7821,71.3653 37,18.5C 40.0174,8.98387 46.1841,2.65054 55.5,-0.5 Z"/></g>
<g><path style="opacity:0.999" fill="#05447c" d="M 129.5,-0.5 C 158.833,-0.5 188.167,-0.5 217.5,-0.5C 209.016,2.51641 202.85,8.18308 199,16.5C 194.725,34.491 190.558,52.491 186.5,70.5C 182.416,70.0431 178.583,70.7098 175,72.5C 173.82,71.3159 172.32,70.6493 170.5,70.5C 167.824,70.837 165.157,71.1703 162.5,71.5C 162.118,80.4118 160.451,89.0785 157.5,97.5C 161.167,98.8333 164.833,98.8333 168.5,97.5C 169.942,91.1802 171.275,84.8469 172.5,78.5C 174.167,78.5 175.833,78.5 177.5,78.5C 176.502,85.1602 175.502,91.8269 174.5,98.5C 176.167,98.5 177.833,98.5 179.5,98.5C 178.833,102.5 178.167,106.5 177.5,110.5C 173.97,109.989 170.804,110.656 168,112.5C 164.376,125.622 160.376,138.622 156,151.5C 155.059,153.989 155.559,155.989 157.5,157.5C 159.948,158.473 162.615,158.806 165.5,158.5C 164.525,165.266 163.025,171.932 161,178.5C 159.121,188.75 162.955,195.75 172.5,199.5C 142.833,199.5 113.167,199.5 83.5,199.5C 76.4753,196.297 72.8086,190.797 72.5,183C 80.114,148.046 88.114,113.213 96.5,78.5C 97.1471,79.2739 97.4805,80.2739 97.5,81.5C 96.3901,87.1604 95.3901,92.827 94.5,98.5C 98.1064,98.7892 101.606,98.4558 105,97.5C 106.116,90.2527 107.616,83.086 109.5,76C 109.385,74.1049 108.718,72.4382 107.5,71C 104.518,70.502 101.518,70.3354 98.5,70.5C 102.348,52.4387 106.515,34.4387 111,16.5C 114.833,8.16212 121,2.49545 129.5,-0.5 Z"/></g>
<g><path style="opacity:0.995" fill="#057c85" d="M 217.5,-0.5 C 248.167,-0.5 278.833,-0.5 309.5,-0.5C 314.692,2.01949 318.026,6.01949 319.5,11.5C 319.5,14.1667 319.5,16.8333 319.5,19.5C 306.703,72.298 294.203,125.298 282,178.5C 279.077,188.92 272.577,195.92 262.5,199.5C 232.5,199.5 202.5,199.5 172.5,199.5C 162.955,195.75 159.121,188.75 161,178.5C 163.025,171.932 164.525,165.266 165.5,158.5C 162.615,158.806 159.948,158.473 157.5,157.5C 162.214,157.827 166.88,157.493 171.5,156.5C 172.074,154.941 172.74,153.441 173.5,152C 171.527,151.505 169.527,151.338 167.5,151.5C 169.142,146.267 170.475,140.933 171.5,135.5C 178.615,135.925 185.615,135.425 192.5,134C 193.333,133.167 194.167,132.333 195,131.5C 197.269,124.859 199.436,118.192 201.5,111.5C 195.863,110.337 190.196,110.17 184.5,111C 181.568,111.272 179.068,112.438 177,114.5C 176.805,113.181 176.972,111.847 177.5,110.5C 178.167,106.5 178.833,102.5 179.5,98.5C 181.766,98.8588 183.599,98.1922 185,96.5C 186.166,89.8341 187.333,83.1675 188.5,76.5C 188.637,74.1595 187.97,72.1595 186.5,70.5C 190.558,52.491 194.725,34.491 199,16.5C 202.85,8.18308 209.016,2.51641 217.5,-0.5 Z"/></g>
<g><path style="opacity:1" fill="#fdf9fa" d="M 42.5,50.5 C 47.2137,50.1734 51.8804,50.5067 56.5,51.5C 52.3999,63.2244 49.8999,75.2244 49,87.5C 52.3368,90.9702 56.1702,91.4702 60.5,89C 61.7014,88.0975 62.5348,86.9308 63,85.5C 66.3051,74.3486 68.9717,63.0152 71,51.5C 74.73,50.5399 78.5633,50.2065 82.5,50.5C 79.5985,64.1066 75.7652,77.4399 71,90.5C 65.5008,96.392 58.6675,99.0587 50.5,98.5C 39.1292,98.9664 34.2959,93.6331 36,82.5C 38.4916,71.8795 40.6583,61.2129 42.5,50.5 Z"/></g>
<g><path style="opacity:1" fill="#f9fbfb" d="M 201.5,50.5 C 211.58,50.0766 221.58,50.5766 231.5,52C 235.34,54.5111 236.84,58.0111 236,62.5C 234.445,71.0542 229.612,76.8875 221.5,80C 216.5,80.8333 211.5,81.6667 206.5,82.5C 205.01,87.4614 203.676,92.4614 202.5,97.5C 198.893,98.4892 195.226,98.8226 191.5,98.5C 194.839,82.4813 198.172,66.4813 201.5,50.5 Z"/></g>
<g><path style="opacity:1" fill="#178089" d="M 211.5,57.5 C 222.685,56.1715 225.852,60.5049 221,70.5C 217.248,73.0769 213.081,74.0769 208.5,73.5C 209.5,68.1652 210.5,62.8319 211.5,57.5 Z"/></g>
<g><path style="opacity:1" fill="#f0f3f6" d="M 118.5,67.5 C 120.857,67.3367 123.19,67.5034 125.5,68C 127.211,69.1332 127.711,70.6332 127,72.5C 123.823,74.7832 120.323,75.6165 116.5,75C 115.643,74.3109 114.977,73.4776 114.5,72.5C 115.508,70.5008 116.841,68.8342 118.5,67.5 Z"/></g>
<g><path style="opacity:1" fill="#faf7f8" d="M 98.5,70.5 C 101.518,70.3354 104.518,70.502 107.5,71C 108.718,72.4382 109.385,74.1049 109.5,76C 107.616,83.086 106.116,90.2527 105,97.5C 101.606,98.4558 98.1064,98.7892 94.5,98.5C 95.3901,92.827 96.3901,87.1604 97.5,81.5C 97.4805,80.2739 97.1471,79.2739 96.5,78.5C 95.1779,78.33 94.0113,78.6634 93,79.5C 91.3083,85.4604 89.8083,91.4604 88.5,97.5C 85.2317,98.487 81.8984,98.8204 78.5,98.5C 80.0611,89.8591 81.5611,81.1924 83,72.5C 87.1891,69.9398 91.3558,69.9398 95.5,72.5C 96.5178,71.8075 97.5178,71.1408 98.5,70.5 Z"/></g>
<g><path style="opacity:1" fill="#f7f9fa" d="M 139.5,70.5 C 158.239,69.4451 162.739,77.1117 153,93.5C 151.048,95.8936 148.548,97.3936 145.5,98C 130.444,100.944 125.278,95.1106 130,80.5C 132.022,75.98 135.189,72.6467 139.5,70.5 Z"/></g>
<g><path style="opacity:1" fill="#f7f9fa" d="M 186.5,70.5 C 187.97,72.1595 188.637,74.1595 188.5,76.5C 187.333,83.1675 186.166,89.8341 185,96.5C 183.599,98.1922 181.766,98.8588 179.5,98.5C 177.833,98.5 176.167,98.5 174.5,98.5C 175.502,91.8269 176.502,85.1602 177.5,78.5C 175.833,78.5 174.167,78.5 172.5,78.5C 171.275,84.8469 169.942,91.1802 168.5,97.5C 164.833,98.8333 161.167,98.8333 157.5,97.5C 160.451,89.0785 162.118,80.4118 162.5,71.5C 165.157,71.1703 167.824,70.837 170.5,70.5C 172.32,70.6493 173.82,71.3159 175,72.5C 178.583,70.7098 182.416,70.0431 186.5,70.5 Z"/></g>
<g><path style="opacity:1" fill="#f6fafa" d="M 271.5,70.5 C 273.167,70.5 274.833,70.5 276.5,70.5C 276.999,74.4899 277.499,78.4899 278,82.5C 280.087,79.3272 281.921,75.9939 283.5,72.5C 287.078,71.125 290.744,70.625 294.5,71C 284.954,86.5879 275.788,102.421 267,118.5C 266.097,119.701 264.931,120.535 263.5,121C 260.518,121.498 257.518,121.665 254.5,121.5C 254.833,119.5 255.167,117.5 255.5,115.5C 256.978,115.762 258.311,115.429 259.5,114.5C 262.585,110 265.418,105.333 268,100.5C 268.312,90.7423 267.479,81.0757 265.5,71.5C 267.735,71.7947 269.735,71.4614 271.5,70.5 Z"/></g>
<g><path style="opacity:1" fill="#f6fafa" d="M 240.5,70.5 C 243.97,69.8748 246.804,70.8748 249,73.5C 252.838,71.4932 257.005,70.4932 261.5,70.5C 258.609,79.6198 256.609,88.9531 255.5,98.5C 251.429,98.7662 247.429,98.4328 243.5,97.5C 234.988,101.411 229.988,98.7441 228.5,89.5C 229.244,80.9922 233.244,74.6589 240.5,70.5 Z"/></g>
<g><path style="opacity:1" fill="#f3f6f8" d="M 116.5,76.5 C 119.5,76.5 122.5,76.5 125.5,76.5C 123.957,83.7946 122.624,91.128 121.5,98.5C 117.833,98.5 114.167,98.5 110.5,98.5C 111.982,91.9007 113.149,85.2341 114,78.5C 114.995,77.9341 115.828,77.2674 116.5,76.5 Z"/></g>
<g><path style="opacity:1" fill="#154c82" d="M 143.5,76.5 C 144.5,76.5 145.5,76.5 146.5,76.5C 146.656,80.5817 146.156,84.5817 145,88.5C 142.343,93.7093 140.177,93.7093 138.5,88.5C 138.665,83.8017 140.332,79.8017 143.5,76.5 Z"/></g>
<g><path style="opacity:1" fill="#1b818a" d="M 242.5,77.5 C 244.167,77.5 245.833,77.5 247.5,77.5C 248.041,82.449 247.208,87.1156 245,91.5C 240.747,94.6036 238.913,93.437 239.5,88C 239.597,84.2124 240.597,80.7124 242.5,77.5 Z"/></g>
<g><path style="opacity:1" fill="#f0f3f6" d="M 144.5,110.5 C 148.182,110.335 151.848,110.501 155.5,111C 155.043,111.414 154.709,111.914 154.5,112.5C 157.833,113.167 161.167,113.833 164.5,114.5C 163.253,116.323 162.586,118.323 162.5,120.5C 157.489,120.334 152.489,120.501 147.5,121C 143.775,123.466 139.775,123.966 135.5,122.5C 135.918,118.582 138.084,116.582 142,116.5C 143.122,114.593 143.955,112.593 144.5,110.5 Z"/></g>
<g><path style="opacity:1" fill="#f5f8f9" d="M 177.5,110.5 C 176.972,111.847 176.805,113.181 177,114.5C 179.068,112.438 181.568,111.272 184.5,111C 190.196,110.17 195.863,110.337 201.5,111.5C 199.436,118.192 197.269,124.859 195,131.5C 194.167,132.333 193.333,133.167 192.5,134C 185.615,135.425 178.615,135.925 171.5,135.5C 170.883,135.611 170.383,135.944 170,136.5C 169,139.833 168,143.167 167,146.5C 166.22,148.387 166.387,150.054 167.5,151.5C 169.527,151.338 171.527,151.505 173.5,152C 172.74,153.441 172.074,154.941 171.5,156.5C 166.88,157.493 162.214,157.827 157.5,157.5C 155.559,155.989 155.059,153.989 156,151.5C 160.376,138.622 164.376,125.622 168,112.5C 170.804,110.656 173.97,109.989 177.5,110.5 Z"/></g>
<g><path style="opacity:1" fill="#0c7e87" d="M 175.5,117.5 C 180.511,117.334 185.511,117.501 190.5,118C 190.043,118.414 189.709,118.914 189.5,119.5C 184.379,119.933 179.545,121.267 175,123.5C 174.51,121.455 174.677,119.455 175.5,117.5 Z"/></g>
<g><path style="opacity:1" fill="#f9fbfb" d="M 223.5,157.5 C 214.48,156.731 205.813,155.398 197.5,153.5C 197.606,150.892 198.772,148.892 201,147.5C 204.811,135.236 208.311,122.902 211.5,110.5C 214.85,110.335 218.183,110.502 221.5,111C 220.289,111.893 220.289,112.726 221.5,113.5C 222.912,112.194 224.579,111.36 226.5,111C 234.493,110.5 242.493,110.334 250.5,110.5C 250.5,112.167 250.5,113.833 250.5,115.5C 251.5,115.5 252.5,115.5 253.5,115.5C 253.167,117.5 252.833,119.5 252.5,121.5C 249.15,121.665 245.817,121.498 242.5,121C 240.926,119.174 240.093,117.007 240,114.5C 239.517,115.448 239.351,116.448 239.5,117.5C 238.167,117.5 236.833,117.5 235.5,117.5C 232.707,127.879 229.707,138.213 226.5,148.5C 227.853,149.524 228.52,150.857 228.5,152.5C 229.873,152.657 231.207,152.49 232.5,152C 235.691,148.31 238.691,144.477 241.5,140.5C 238.572,139.516 235.572,139.183 232.5,139.5C 232.421,138.07 232.754,136.736 233.5,135.5C 237.122,134.675 240.789,134.175 244.5,134C 245.167,132.667 245.833,131.333 246.5,130C 242.789,129.825 239.122,129.325 235.5,128.5C 236.309,126.929 236.643,125.262 236.5,123.5C 246.839,123.334 257.172,123.5 267.5,124C 266.74,125.441 266.074,126.941 265.5,128.5C 262.215,129.324 258.882,129.824 255.5,130C 254.62,131.356 254.286,132.856 254.5,134.5C 257.5,134.5 260.5,134.5 263.5,134.5C 263.579,135.93 263.246,137.264 262.5,138.5C 258.878,139.325 255.211,139.825 251.5,140C 250.833,140.667 250.167,141.333 249.5,142C 251.134,142.494 252.801,142.66 254.5,142.5C 254.336,145.187 254.503,147.854 255,150.5C 256.205,151.071 257.372,151.738 258.5,152.5C 257.691,154.071 257.357,155.738 257.5,157.5C 249.138,159.302 245.305,155.969 246,147.5C 243.48,151.016 240.647,154.183 237.5,157C 233.459,157.924 229.626,157.424 226,155.5C 224.989,156.056 224.156,156.722 223.5,157.5 Z"/></g>
<g><path style="opacity:1" fill="#1c828b" d="M 219.5,117.5 C 221.833,117.5 224.167,117.5 226.5,117.5C 226.167,119.5 225.833,121.5 225.5,123.5C 222.728,123.22 220.228,123.887 218,125.5C 217.554,122.667 218.054,120.001 219.5,117.5 Z"/></g>
<g><path style="opacity:1" fill="#f2f5f7" d="M 136.5,124.5 C 144.833,124.5 153.167,124.5 161.5,124.5C 161.167,126.5 160.833,128.5 160.5,130.5C 156.833,130.5 153.167,130.5 149.5,130.5C 149.167,132.5 148.833,134.5 148.5,136.5C 151.898,136.18 155.232,136.513 158.5,137.5C 157.691,139.071 157.357,140.738 157.5,142.5C 153.818,142.335 150.152,142.501 146.5,143C 145.009,145.621 144.342,148.455 144.5,151.5C 147.187,151.336 149.854,151.503 152.5,152C 151.76,153.785 151.093,155.618 150.5,157.5C 145.869,158.662 141.202,158.828 136.5,158C 134.632,157.101 133.632,155.601 133.5,153.5C 134.71,149.872 135.71,146.206 136.5,142.5C 134.833,142.5 133.167,142.5 131.5,142.5C 131.833,140.5 132.167,138.5 132.5,136.5C 134.833,136.5 137.167,136.5 139.5,136.5C 139.833,134.5 140.167,132.5 140.5,130.5C 138.833,130.5 137.167,130.5 135.5,130.5C 135.517,128.435 135.85,126.435 136.5,124.5 Z"/></g>
<g><path style="opacity:1" fill="#318a92" d="M 172.5,127.5 C 177.511,127.334 182.511,127.501 187.5,128C 187.043,128.414 186.709,128.914 186.5,129.5C 181.88,130.493 177.214,130.827 172.5,130.5C 172.5,129.5 172.5,128.5 172.5,127.5 Z"/></g>
<g><path style="opacity:1" fill="#19828a" d="M 215.5,129.5 C 218.187,129.336 220.854,129.503 223.5,130C 222.74,131.441 222.074,132.941 221.5,134.5C 219.106,135.349 216.773,136.349 214.5,137.5C 214.167,137 213.833,136.5 213.5,136C 214.274,133.846 214.941,131.679 215.5,129.5 Z"/></g>
<g><path style="opacity:1" fill="#f9fbfb" d="M 174.5,137.5 C 177.167,137.5 179.833,137.5 182.5,137.5C 182.5,138.5 182.5,139.5 182.5,140.5C 185.622,140.186 188.455,139.186 191,137.5C 192.167,137.667 193.333,137.833 194.5,138C 193.026,144.249 189.026,146.749 182.5,145.5C 182.5,147.5 182.5,149.5 182.5,151.5C 184.924,151.192 187.257,151.526 189.5,152.5C 188.691,154.071 188.357,155.738 188.5,157.5C 183.833,157.5 179.167,157.5 174.5,157.5C 174.5,150.833 174.5,144.167 174.5,137.5 Z"/></g>
<g><path style="opacity:1" fill="#19828a" d="M 211.5,142.5 C 214.187,142.336 216.854,142.503 219.5,143C 218.331,145.007 217.665,147.173 217.5,149.5C 214.813,149.664 212.146,149.497 209.5,149C 210.397,146.913 211.064,144.746 211.5,142.5 Z"/></g>
<g><path style="opacity:1" fill="#2a628c" d="M 171.5,135.5 C 170.475,140.933 169.142,146.267 167.5,151.5C 166.387,150.054 166.22,148.387 167,146.5C 168,143.167 169,139.833 170,136.5C 170.383,135.944 170.883,135.611 171.5,135.5 Z"/></g>
<g><path style="opacity:1" fill="#7dbbbf" d="M 197.5,153.5 C 205.813,155.398 214.48,156.731 223.5,157.5C 222.207,158.158 220.707,158.492 219,158.5C 211.59,156.843 204.09,156.177 196.5,156.5C 196.263,155.209 196.596,154.209 197.5,153.5 Z"/></g>
</svg>
