<?xml version="1.0" encoding="UTF-8"?>
<!DOCTYPE svg PUBLIC "-//W3C//DTD SVG 1.1//EN" "http://www.w3.org/Graphics/SVG/1.1/DTD/svg11.dtd">
<svg xmlns="http://www.w3.org/2000/svg" version="1.1" width="3840px" height="2160px" style="shape-rendering:geometricPrecision; text-rendering:geometricPrecision; image-rendering:optimizeQuality; fill-rule:evenodd; clip-rule:evenodd" xmlns:xlink="http://www.w3.org/1999/xlink">
<g><path style="opacity:1" fill="#1433cb" d="M 2708.5,599.5 C 2706.25,609.761 2704.09,620.094 2702,630.5C 2699.23,636.167 2697.9,642.167 2698,648.5C 2697.09,649.328 2696.42,650.328 2696,651.5C 2696.04,657.546 2694.71,663.212 2692,668.5C 2692.13,673.503 2691.13,678.17 2689,682.5C 2686.08,699.495 2682.91,716.495 2679.5,733.5C 2677.72,740.402 2675.88,747.402 2674,754.5C 2673.77,757.095 2673.27,759.595 2672.5,762C 2672.83,762.333 2673.17,762.667 2673.5,763C 2671.21,767.215 2669.71,771.715 2669,776.5C 2668.33,777.167 2667.67,777.833 2667,778.5C 2666.33,777.748 2665.5,777.414 2664.5,777.5C 2662.46,776.422 2660.29,775.422 2658,774.5C 2657.67,774.833 2657.33,775.167 2657,775.5C 2656.63,774.584 2656.13,773.75 2655.5,773C 2640.23,767.464 2625.56,761.964 2611.5,756.5C 2610.91,756.709 2610.41,757.043 2610,757.5C 2606.44,754.146 2602.44,752.812 2598,753.5C 2597.63,752.584 2597.13,751.75 2596.5,751C 2593.21,750.118 2589.88,749.452 2586.5,749C 2585.83,748.333 2585.17,747.667 2584.5,747C 2581.5,746.667 2578.5,746.333 2575.5,746C 2569.91,743.729 2564.24,741.729 2558.5,740C 2555.57,739.782 2552.74,739.282 2550,738.5C 2548.37,739.097 2546.71,738.763 2545,737.5C 2544.67,737.833 2544.33,738.167 2544,738.5C 2537.27,736.283 2530.6,734.616 2524,733.5C 2523.67,733.833 2523.33,734.167 2523,734.5C 2520.79,733.198 2518.45,732.198 2516,731.5C 2511.94,731.734 2507.6,731.734 2503,731.5C 2502.15,729.875 2501.15,729.542 2500,730.5C 2495.43,729.043 2490.76,728.043 2486,727.5C 2481.37,728.531 2476.37,728.531 2471,727.5C 2467.33,726.5 2463.67,725.5 2460,724.5C 2440.71,724.36 2421.21,724.527 2401.5,725C 2395.94,726.265 2390.11,727.432 2384,728.5C 2379.84,727.998 2375.51,727.998 2371,728.5C 2369.58,729.46 2368.08,730.293 2366.5,731C 2339.03,734.794 2314.03,744.794 2291.5,761C 2278.88,770.768 2269.55,782.935 2263.5,797.5C 2262.44,798.6 2261.61,799.934 2261,801.5C 2260.75,804.919 2260.25,808.253 2259.5,811.5C 2258.79,814.228 2258.13,817.061 2257.5,820C 2259.97,835.771 2266.14,849.938 2276,862.5C 2282.94,870.225 2290.44,877.392 2298.5,884C 2310.53,892.584 2322.53,900.917 2334.5,909C 2359.05,922.105 2383.05,935.105 2406.5,948C 2413.74,950.736 2420.41,954.403 2426.5,959C 2451.69,971.174 2475.85,985.007 2499,1000.5C 2499.33,1000.17 2499.67,999.833 2500,999.5C 2500.48,1000.45 2500.65,1001.45 2500.5,1002.5C 2547.14,1029.98 2586.64,1065.31 2619,1108.5C 2637.12,1134.74 2650.45,1163.41 2659,1194.5C 2661.29,1207.42 2663.62,1220.42 2666,1233.5C 2666.48,1256.54 2666.64,1279.37 2666.5,1302C 2663.69,1317.51 2661.19,1333.01 2659,1348.5C 2641.98,1419.39 2606.81,1479.73 2553.5,1529.5C 2541.64,1539.53 2529.64,1549.36 2517.5,1559C 2504.11,1566.72 2491.11,1574.88 2478.5,1583.5C 2475.68,1584.1 2473.35,1585.43 2471.5,1587.5C 2469.25,1588.13 2467.25,1589.13 2465.5,1590.5C 2462.67,1591.66 2460.01,1592.99 2457.5,1594.5C 2455.01,1595.32 2452.68,1596.32 2450.5,1597.5C 2445.17,1600.16 2439.84,1602.83 2434.5,1605.5C 2408.07,1617.33 2381.07,1626.5 2353.5,1633C 2352.87,1633.75 2352.37,1634.58 2352,1635.5C 2346.24,1634.53 2340.91,1635.86 2336,1639.5C 2331.1,1638.35 2326.6,1639.35 2322.5,1642.5C 2321.91,1642.29 2321.41,1641.96 2321,1641.5C 2318.26,1642.28 2315.43,1642.78 2312.5,1643C 2308.16,1645.33 2303.66,1646.16 2299,1645.5C 2293.92,1646.64 2288.92,1647.97 2284,1649.5C 2283,1649.17 2282,1648.83 2281,1648.5C 2276.67,1649.5 2272.33,1650.5 2268,1651.5C 2264.6,1651.19 2260.93,1651.19 2257,1651.5C 2253.76,1652.57 2250.59,1653.57 2247.5,1654.5C 2247.17,1654.5 2246.83,1654.5 2246.5,1654.5C 2246.17,1653.17 2245.83,1653.17 2245.5,1654.5C 2225.55,1655.12 2205.38,1655.79 2185,1656.5C 2149.89,1656.22 2114.72,1655.55 2079.5,1654.5C 2079.17,1653.17 2078.83,1653.17 2078.5,1654.5C 2078.17,1654.5 2077.83,1654.5 2077.5,1654.5C 2077.17,1653.17 2076.83,1653.17 2076.5,1654.5C 2076.17,1654.5 2075.83,1654.5 2075.5,1654.5C 2074.83,1653.73 2073.99,1653.07 2073,1652.5C 2071.33,1652.83 2069.67,1653.17 2068,1653.5C 2064.72,1652.91 2061.39,1651.91 2058,1650.5C 2056.42,1650.49 2054.75,1650.83 2053,1651.5C 2047.6,1650.28 2042.26,1649.28 2037,1648.5C 2036,1648.83 2035,1649.17 2034,1649.5C 2029.33,1648.07 2024.33,1646.74 2019,1645.5C 2017.73,1645.62 2016.4,1645.95 2015,1646.5C 2007.05,1643.61 1998.55,1641.95 1989.5,1641.5C 1987.58,1640.13 1985.42,1639.13 1983,1638.5C 1980.77,1638.37 1978.43,1638.71 1976,1639.5C 1971.05,1635.98 1965.71,1634.65 1960,1635.5C 1954.64,1632.36 1948.8,1630.86 1942.5,1631C 1939.26,1629.11 1935.76,1627.94 1932,1627.5C 1930.25,1628.3 1928.92,1627.63 1928,1625.5C 1927.67,1625.83 1927.33,1626.17 1927,1626.5C 1923.23,1625.23 1919.39,1624.23 1915.5,1623.5C 1915.17,1622.17 1914.83,1622.17 1914.5,1623.5C 1906.89,1621.39 1899.39,1619.06 1892,1616.5C 1891.67,1616.83 1891.33,1617.17 1891,1617.5C 1887.36,1614.62 1883.19,1613.12 1878.5,1613C 1876.03,1610.51 1873.19,1609.68 1870,1610.5C 1866.38,1607.43 1862.22,1605.76 1857.5,1605.5C 1849.53,1601.34 1840.53,1597.84 1830.5,1595C 1827.37,1591.76 1827.04,1588.43 1829.5,1585C 1828.83,1584.67 1828.17,1584.33 1827.5,1584C 1828.67,1583.5 1829.5,1582.67 1830,1581.5C 1831.06,1576.9 1831.73,1572.23 1832,1567.5C 1833.75,1564.2 1834.91,1560.7 1835.5,1557C 1835.17,1556 1834.83,1555 1834.5,1554C 1837.79,1548.67 1839.29,1542.83 1839,1536.5C 1841.31,1531.93 1842.15,1527.27 1841.5,1522.5C 1844.91,1516.66 1846.41,1510.33 1846,1503.5C 1846.91,1502.67 1847.58,1501.67 1848,1500.5C 1848.21,1497.24 1848.71,1494.08 1849.5,1491C 1848.79,1489.66 1849.12,1488.32 1850.5,1487C 1849.37,1485.98 1849.7,1485.32 1851.5,1485C 1850.94,1484.62 1850.61,1484.12 1850.5,1483.5C 1851.97,1479.97 1852.97,1476.47 1853.5,1473C 1853.5,1470.67 1853.5,1468.33 1853.5,1466C 1854.21,1464.09 1855.21,1462.09 1856.5,1460C 1856.87,1456.41 1856.87,1453.07 1856.5,1450C 1858.39,1447.23 1859.72,1444.23 1860.5,1441C 1860.5,1438 1860.5,1435 1860.5,1432C 1861.43,1431.61 1862.09,1430.95 1862.5,1430C 1863.08,1426.94 1863.74,1423.94 1864.5,1421C 1864.17,1420 1863.83,1419 1863.5,1418C 1865.56,1415.93 1866.73,1413.43 1867,1410.5C 1867.21,1407.24 1867.71,1404.08 1868.5,1401C 1868.17,1400.67 1867.83,1400.33 1867.5,1400C 1868.67,1399.5 1869.5,1398.67 1870,1397.5C 1870.26,1394.44 1870.76,1391.44 1871.5,1388.5C 1871.29,1387.91 1870.96,1387.41 1870.5,1387C 1871.52,1384.8 1872.86,1382.8 1874.5,1381C 1874.17,1380.67 1873.83,1380.33 1873.5,1380C 1874.3,1376.25 1874.8,1372.42 1875,1368.5C 1877.39,1364.35 1878.22,1360.01 1877.5,1355.5C 1878.03,1353.39 1879.03,1351.55 1880.5,1350C 1879.76,1347.73 1879.76,1345.73 1880.5,1344C 1883.03,1342.58 1885.7,1342.25 1888.5,1343C 1912.14,1356.24 1936.3,1367.4 1961,1376.5C 1961.33,1376.17 1961.67,1375.83 1962,1375.5C 1968.12,1378.23 1974.29,1380.89 1980.5,1383.5C 1983.18,1382.78 1985.51,1383.62 1987.5,1386C 1993.96,1388.05 2000.63,1389.72 2007.5,1391C 2008.17,1391.67 2008.83,1392.33 2009.5,1393C 2012.43,1393.22 2015.26,1393.72 2018,1394.5C 2019.36,1393.74 2020.53,1394.24 2021.5,1396C 2026.8,1396.51 2031.8,1397.84 2036.5,1400C 2039.76,1400.21 2042.92,1400.71 2046,1401.5C 2048.18,1400.89 2050.18,1401.56 2052,1403.5C 2053,1403.17 2054,1402.83 2055,1402.5C 2058.57,1403.87 2062.24,1404.87 2066,1405.5C 2067.27,1405.38 2068.6,1405.05 2070,1404.5C 2073.17,1405.56 2076.67,1406.72 2080.5,1408C 2085.09,1408.2 2089.59,1408.7 2094,1409.5C 2095.15,1408.54 2096.15,1408.88 2097,1410.5C 2097.33,1410.17 2097.67,1409.83 2098,1409.5C 2101.9,1410.9 2105.9,1411.9 2110,1412.5C 2113.17,1411.77 2116.51,1411.43 2120,1411.5C 2126.93,1412.46 2133.43,1413.63 2139.5,1415C 2159.83,1415.67 2180.17,1415.67 2200.5,1415C 2205.2,1413.31 2210.03,1412.14 2215,1411.5C 2218,1411.83 2221,1412.17 2224,1412.5C 2227.86,1411.74 2231.53,1410.41 2235,1408.5C 2235.33,1408.83 2235.67,1409.17 2236,1409.5C 2239.76,1408.87 2243.43,1407.87 2247,1406.5C 2247.33,1406.83 2247.67,1407.17 2248,1407.5C 2249.14,1406.64 2250.47,1405.64 2252,1404.5C 2255.41,1404.99 2258.74,1404.32 2262,1402.5C 2263.02,1403.63 2263.68,1403.3 2264,1401.5C 2264.33,1401.83 2264.67,1402.17 2265,1402.5C 2291.63,1394.04 2314.63,1380.04 2334,1360.5C 2348.74,1341.86 2355.74,1321.19 2355,1298.5C 2353.79,1296.8 2353.29,1295.14 2353.5,1293.5C 2352.81,1289.84 2351.97,1286.17 2351,1282.5C 2349.24,1281.53 2348.74,1280.36 2349.5,1279C 2345.73,1270.58 2341.39,1263.08 2336.5,1256.5C 2323.15,1242.15 2308.31,1229.49 2292,1218.5C 2291.67,1218.83 2291.33,1219.17 2291,1219.5C 2290.56,1216.7 2289.23,1215.7 2287,1216.5C 2285.81,1214.39 2284.14,1212.73 2282,1211.5C 2260.22,1199.19 2238.39,1186.69 2216.5,1174C 2214.61,1173.03 2212.61,1172.36 2210.5,1172C 2210.83,1171.67 2211.17,1171.33 2211.5,1171C 2206.56,1169.72 2202.06,1167.55 2198,1164.5C 2197.67,1164.83 2197.33,1165.17 2197,1165.5C 2196.63,1164.58 2196.13,1163.75 2195.5,1163C 2182.69,1156.34 2170.03,1149.51 2157.5,1142.5C 2149.44,1138.3 2141.44,1133.8 2133.5,1129C 2132.33,1127.83 2131.17,1126.67 2130,1125.5C 2129.67,1125.83 2129.33,1126.17 2129,1126.5C 2115.49,1117.87 2102.15,1108.87 2089,1099.5C 2088.67,1099.83 2088.33,1100.17 2088,1100.5C 2087.52,1099.55 2087.35,1098.55 2087.5,1097.5C 2085.69,1097.51 2084.02,1097.01 2082.5,1096C 2058.43,1077.89 2036.27,1058.39 2016,1037.5C 2001.69,1020.95 1988.86,1002.95 1977.5,983.5C 1965.91,961.973 1957.75,937.973 1953,911.5C 1951.2,909.486 1950.7,907.319 1951.5,905C 1950.94,897.939 1949.94,890.939 1948.5,884C 1949.63,882.984 1949.3,882.317 1947.5,882C 1950.17,881.333 1950.17,880.667 1947.5,880C 1947.87,868.891 1947.87,858.225 1947.5,848C 1950.17,847.333 1950.17,846.667 1947.5,846C 1950.17,845.333 1950.17,844.667 1947.5,844C 1948.88,842.676 1949.21,841.343 1948.5,840C 1950.01,832.406 1951.01,824.739 1951.5,817C 1950.98,816.439 1950.64,815.772 1950.5,815C 1952.33,811.506 1953.67,807.84 1954.5,804C 1954.51,802.417 1954.17,800.751 1953.5,799C 1953.99,795.573 1955.15,792.406 1957,789.5C 1957.33,785.5 1957.67,781.5 1958,777.5C 1960.21,772.227 1962.21,766.894 1964,761.5C 1964.24,759.236 1964.74,757.069 1965.5,755C 1975.4,723.697 1990.57,693.53 2011,664.5C 2054.9,607.133 2109.4,564.633 2174.5,537C 2184.58,532.095 2194.74,527.262 2205,522.5C 2205.33,522.833 2205.67,523.167 2206,523.5C 2211.24,520.799 2216.57,518.465 2222,516.5C 2222.33,516.833 2222.67,517.167 2223,517.5C 2225.17,515.545 2227.5,514.879 2230,515.5C 2232.63,514.686 2234.96,513.353 2237,511.5C 2237.33,511.833 2237.67,512.167 2238,512.5C 2240.41,511.726 2242.91,511.226 2245.5,511C 2246.17,510.333 2246.83,509.667 2247.5,509C 2252.59,509.107 2257.09,507.607 2261,504.5C 2261.33,504.833 2261.67,505.167 2262,505.5C 2267.99,503.847 2273.99,502.18 2280,500.5C 2282.95,500.955 2285.62,499.955 2288,497.5C 2288.33,497.833 2288.67,498.167 2289,498.5C 2292.08,497.712 2295.24,497.212 2298.5,497C 2300.33,496.727 2301.83,495.893 2303,494.5C 2306.25,494.042 2309.25,494.042 2312,494.5C 2315.23,494.047 2318.23,493.047 2321,491.5C 2322.27,491.616 2323.6,491.949 2325,492.5C 2326.55,490.854 2328.22,490.521 2330,491.5C 2335.3,490.282 2340.63,489.282 2346,488.5C 2347.27,488.616 2348.6,488.949 2350,489.5C 2350.67,488.833 2351.33,488.167 2352,487.5C 2353.67,487.833 2355.33,488.167 2357,488.5C 2360.16,486.167 2363.16,485.5 2366,486.5C 2366.67,485.833 2367.33,485.167 2368,484.5C 2415.14,484.502 2462.3,484.502 2509.5,484.5C 2510.54,486.991 2511.37,486.991 2512,484.5C 2512.95,486.592 2514.29,486.925 2516,485.5C 2518.04,487.521 2520.04,487.854 2522,486.5C 2523.33,487.167 2524.67,487.833 2526,488.5C 2528.66,487.654 2531.66,487.988 2535,489.5C 2535.33,489.167 2535.67,488.833 2536,488.5C 2541.67,489.5 2547.33,490.5 2553,491.5C 2554.78,490.521 2556.45,490.854 2558,492.5C 2559,492.167 2560,491.833 2561,491.5C 2564.25,492.818 2567.58,493.818 2571,494.5C 2574.4,494.19 2578.07,494.19 2582,494.5C 2583.17,495.893 2584.67,496.727 2586.5,497C 2590.09,497.207 2593.59,497.707 2597,498.5C 2597.33,498.167 2597.67,497.833 2598,497.5C 2601.09,499.98 2604.42,500.98 2608,500.5C 2614.59,502.462 2621.26,504.129 2628,505.5C 2628.33,505.167 2628.67,504.833 2629,504.5C 2630.93,506.102 2633.1,507.269 2635.5,508C 2642.01,509.517 2648.51,511.017 2655,512.5C 2656.36,511.742 2657.53,512.242 2658.5,514C 2667.18,515.673 2675.35,517.839 2683,520.5C 2683.33,520.167 2683.67,519.833 2684,519.5C 2684.5,520.667 2685.33,521.5 2686.5,522C 2688.43,522.251 2690.27,522.751 2692,523.5C 2692.33,523.167 2692.67,522.833 2693,522.5C 2696.21,525.522 2700.05,527.022 2704.5,527C 2709.32,528.872 2714.32,531.205 2719.5,534C 2721.1,539.351 2720.6,544.518 2718,549.5C 2714.94,566.177 2711.78,582.844 2708.5,599.5 Z"/></g>
<g><path style="opacity:1" fill="#1433cb" d="M 2513.5,484.5 C 2514.83,485.167 2514.83,485.167 2513.5,484.5 Z"/></g>
<g><path style="opacity:1" fill="#1433cb" d="M 769.5,862.5 C 770.81,877.09 773.31,891.423 777,905.5C 776.962,912.209 778.295,918.542 781,924.5C 781.333,928.833 781.667,933.167 782,937.5C 782.667,938.833 783.333,940.167 784,941.5C 784.248,946.563 784.915,951.563 786,956.5C 786.419,957.672 787.085,958.672 788,959.5C 788.333,963.833 788.667,968.167 789,972.5C 790.976,979.913 792.809,987.246 794.5,994.5C 794.894,1001.48 796.228,1008.15 798.5,1014.5C 798.958,1021.38 799.958,1028.05 801.5,1034.5C 803.111,1047.67 805.278,1060.67 808,1073.5C 808.915,1074.33 809.581,1075.33 810,1076.5C 810.333,1080.83 810.667,1085.17 811,1089.5C 813.072,1094.24 814.072,1099.24 814,1104.5C 816.864,1110.82 818.198,1117.49 818,1124.5C 819.868,1131.91 821.701,1139.25 823.5,1146.5C 823.894,1153.48 825.228,1160.15 827.5,1166.5C 827.958,1173.38 828.958,1180.05 830.5,1186.5C 831.786,1198.03 833.619,1209.37 836,1220.5C 836.24,1222.85 837.073,1224.85 838.5,1226.5C 839.154,1236.73 840.654,1246.73 843,1256.5C 843.333,1257.83 843.667,1259.17 844,1260.5C 844.667,1261.83 845.333,1261.83 846,1260.5C 847.33,1255.67 848.997,1250.67 851,1245.5C 851.615,1243.88 852.615,1242.55 854,1241.5C 855.94,1235.35 858.273,1229.35 861,1223.5C 868.983,1200.4 878.15,1177.07 888.5,1153.5C 889.699,1148.36 891.699,1143.53 894.5,1139C 893.701,1137.25 894.368,1135.92 896.5,1135C 895.542,1133.85 895.875,1132.85 897.5,1132C 897.167,1131.67 896.833,1131.33 896.5,1131C 901.917,1117.81 907.583,1104.47 913.5,1091C 912.742,1089.64 913.242,1088.47 915,1087.5C 915.273,1085.9 915.773,1084.4 916.5,1083C 916.167,1082.67 915.833,1082.33 915.5,1082C 917.972,1080.4 918.972,1078.4 918.5,1076C 921.045,1070.28 923.712,1064.61 926.5,1059C 926.167,1058.67 925.833,1058.33 925.5,1058C 928.319,1051.19 931.319,1044.53 934.5,1038C 934.167,1037.67 933.833,1037.33 933.5,1037C 936.516,1033.79 938.016,1029.96 938,1025.5C 939.385,1024.45 940.385,1023.12 941,1021.5C 943.48,1012.87 946.813,1004.53 951,996.5C 951.251,994.567 951.751,992.734 952.5,991C 959.031,973.115 966.364,955.115 974.5,937C 973.742,935.636 974.242,934.469 976,933.5C 980.972,919.097 986.472,904.93 992.5,891C 992.167,890.667 991.833,890.333 991.5,890C 994.47,887.055 995.803,883.722 995.5,880C 998.032,876.325 1000.2,872.491 1002,868.5C 1002.33,866.5 1002.67,864.5 1003,862.5C 1005.28,860.634 1006.12,858.468 1005.5,856C 1008.52,852.795 1010.02,848.961 1010,844.5C 1012.83,841.305 1013.99,837.805 1013.5,834C 1014.83,832.333 1016.17,830.667 1017.5,829C 1017.5,827.333 1017.5,825.667 1017.5,824C 1019.56,822.51 1020.89,820.51 1021.5,818C 1021.17,817.667 1020.83,817.333 1020.5,817C 1025.5,806.054 1030.5,795.054 1035.5,784C 1039.25,770.809 1044.25,757.809 1050.5,745C 1050.17,744.667 1049.83,744.333 1049.5,744C 1054.35,734.66 1058.85,724.827 1063,714.5C 1063.27,712.899 1063.77,711.399 1064.5,710C 1064.17,709.667 1063.83,709.333 1063.5,709C 1064.67,707.167 1065.83,705.333 1067,703.5C 1072.16,686.884 1078.66,670.384 1086.5,654C 1086.17,653.667 1085.83,653.333 1085.5,653C 1088.26,649.458 1090.43,645.625 1092,641.5C 1094.91,630.177 1099.08,619.344 1104.5,609C 1104.17,608.667 1103.83,608.333 1103.5,608C 1108.52,597.297 1113.35,586.464 1118,575.5C 1122.05,564.582 1126.21,553.749 1130.5,543C 1130.17,542.667 1129.83,542.333 1129.5,542C 1131.43,537.706 1133.59,533.539 1136,529.5C 1136.33,527.5 1136.67,525.5 1137,523.5C 1139.95,517.271 1142.62,510.938 1145,504.5C 1145.83,503.667 1146.67,502.833 1147.5,502C 1150.09,501.774 1152.59,501.274 1155,500.5C 1253.33,501.833 1351.67,501.833 1450,500.5C 1459.22,501.447 1461.05,505.781 1455.5,513.5C 1449.67,526.953 1444.01,540.62 1438.5,554.5C 1434.5,563.794 1430.5,573.127 1426.5,582.5C 1420.67,595.953 1415.01,609.62 1409.5,623.5C 1405.71,632.844 1401.71,642.177 1397.5,651.5C 1387.31,673.61 1377.97,696.276 1369.5,719.5C 1365.47,727.594 1361.8,735.928 1358.5,744.5C 1353.62,755.888 1348.95,767.554 1344.5,779.5C 1339.49,790.838 1334.49,802.171 1329.5,813.5C 1325.8,821.867 1322.47,830.534 1319.5,839.5C 1312.71,853.67 1306.38,868.003 1300.5,882.5C 1299.01,884.902 1298.01,887.569 1297.5,890.5C 1288.98,910.896 1280.32,931.229 1271.5,951.5C 1268.05,960.03 1264.71,968.697 1261.5,977.5C 1257.23,985.869 1253.57,994.536 1250.5,1003.5C 1248.67,1006.8 1246.83,1010.14 1245,1013.5C 1244.68,1015.59 1244.18,1017.59 1243.5,1019.5C 1187.49,1152.35 1131.82,1285.02 1076.5,1417.5C 1068.45,1434.66 1061.12,1452.32 1054.5,1470.5C 1044.09,1493.02 1034.42,1516.02 1025.5,1539.5C 1020.91,1550.46 1016.24,1561.46 1011.5,1572.5C 1007.68,1581.28 1004.01,1590.28 1000.5,1599.5C 999.167,1602.46 997.833,1605.46 996.5,1608.5C 992.864,1616.62 989.364,1624.95 986,1633.5C 984.667,1636.17 982.667,1638.17 980,1639.5C 878.764,1638.99 778.097,1638.99 678,1639.5C 675.853,1638.89 673.686,1638.22 671.5,1637.5C 669.94,1633.58 668.44,1629.58 667,1625.5C 664.987,1616.15 662.987,1606.82 661,1597.5C 659.35,1596.11 658.85,1594.61 659.5,1593C 659.061,1589.24 657.894,1585.74 656,1582.5C 655.774,1579.91 655.274,1577.41 654.5,1575C 654.833,1574.67 655.167,1574.33 655.5,1574C 652.516,1570.08 651.016,1565.25 651,1559.5C 648.723,1556.71 647.89,1553.71 648.5,1550.5C 645.691,1545.23 644.191,1539.56 644,1533.5C 641.723,1530.71 640.89,1527.71 641.5,1524.5C 640.877,1521.83 639.877,1519.33 638.5,1517C 638.833,1516.67 639.167,1516.33 639.5,1516C 637.832,1510.94 636.166,1505.94 634.5,1501C 634.833,1500.67 635.167,1500.33 635.5,1500C 634.009,1497.9 633.009,1495.57 632.5,1493C 633.159,1489.37 632.159,1486.04 629.5,1483C 629.833,1482.67 630.167,1482.33 630.5,1482C 630.025,1478.25 629.025,1474.75 627.5,1471.5C 624.926,1462.52 622.592,1453.85 620.5,1445.5C 618.672,1437.84 616.839,1430.17 615,1422.5C 613.833,1420 612.667,1417.5 611.5,1415C 611.957,1414.59 612.291,1414.09 612.5,1413.5C 611.837,1409.96 610.503,1406.79 608.5,1404C 609.285,1401.96 608.952,1399.96 607.5,1398C 607.5,1395.67 607.5,1393.33 607.5,1391C 605.875,1390.15 605.542,1389.15 606.5,1388C 606,1387.5 605.5,1387 605,1386.5C 602.143,1374.45 599.476,1362.45 597,1350.5C 595.634,1348.63 594.467,1346.63 593.5,1344.5C 593.709,1343.91 594.043,1343.41 594.5,1343C 593.867,1339.63 592.867,1336.47 591.5,1333.5C 590.79,1330.38 590.123,1327.22 589.5,1324C 589.095,1323.05 588.428,1322.39 587.5,1322C 588.634,1320.98 588.301,1320.32 586.5,1320C 586.833,1319 587.167,1318 587.5,1317C 586.68,1313.69 585.68,1310.52 584.5,1307.5C 580.926,1293.54 577.592,1279.88 574.5,1266.5C 575.902,1265.16 575.569,1264.32 573.5,1264C 573.833,1263.67 574.167,1263.33 574.5,1263C 572.483,1258.29 570.65,1253.45 569,1248.5C 569.296,1242.76 567.796,1237.59 564.5,1233C 564.833,1232.67 565.167,1232.33 565.5,1232C 562.817,1224.94 560.817,1217.77 559.5,1210.5C 558.343,1203.64 556.343,1196.81 553.5,1190C 554.108,1187.82 553.441,1185.82 551.5,1184C 551.833,1183.67 552.167,1183.33 552.5,1183C 551.535,1178.87 550.202,1174.54 548.5,1170C 549.108,1167.82 548.441,1165.82 546.5,1164C 547.199,1158.36 545.866,1153.02 542.5,1148C 542.833,1147.67 543.167,1147.33 543.5,1147C 542.726,1144.59 542.226,1142.09 542,1139.5C 541.581,1138.33 540.915,1137.33 540,1136.5C 540.227,1131.07 538.727,1126.24 535.5,1122C 535.957,1121.59 536.291,1121.09 536.5,1120.5C 534.151,1114.77 532.651,1108.77 532,1102.5C 530.833,1100 529.667,1097.5 528.5,1095C 528.833,1094.67 529.167,1094.33 529.5,1094C 529.023,1091.1 528.023,1088.43 526.5,1086C 526.833,1085.67 527.167,1085.33 527.5,1085C 525.749,1081.24 524.416,1077.57 523.5,1074C 524.458,1072.85 524.125,1071.85 522.5,1071C 522.833,1070.67 523.167,1070.33 523.5,1070C 521.917,1066.09 520.584,1062.09 519.5,1058C 519.833,1057.67 520.167,1057.33 520.5,1057C 518.036,1052.89 516.87,1048.39 517,1043.5C 515.69,1041.05 514.524,1038.55 513.5,1036C 513.833,1035.67 514.167,1035.33 514.5,1035C 514.014,1031.57 512.847,1028.41 511,1025.5C 511.366,1020.01 509.866,1015.18 506.5,1011C 506.833,1010 507.167,1009 507.5,1008C 506.883,1005.72 506.216,1003.56 505.5,1001.5C 505.047,1000.54 504.381,999.708 503.5,999C 504.086,993.715 502.752,988.715 499.5,984C 499.833,983.667 500.167,983.333 500.5,983C 500.023,980.101 499.023,977.434 497.5,975C 498.634,973.984 498.301,973.317 496.5,973C 496.5,970.667 496.5,968.333 496.5,966C 493.512,957.86 491.512,950.194 490.5,943C 489.833,942 489.167,941 488.5,940C 488.5,937.333 488.5,934.667 488.5,932C 485.921,929.297 484.921,926.297 485.5,923C 484.736,920.931 484.236,918.764 484,916.5C 482.363,912.334 480.863,908.167 479.5,904C 480.061,902.434 479.394,901.101 477.5,900C 478.059,899.275 478.392,898.442 478.5,897.5C 476.142,891.762 474.642,885.762 474,879.5C 473.654,877.152 472.487,875.319 470.5,874C 470.833,873 471.167,872 471.5,871C 470.736,868.931 470.236,866.764 470,864.5C 469.5,863.333 468.667,862.5 467.5,862C 467.833,861.667 468.167,861.333 468.5,861C 464.485,843.798 460.152,827.131 455.5,811C 456.079,807.703 455.079,804.703 452.5,802C 453.367,796.855 452.033,792.188 448.5,788C 449.443,785.2 449.276,782.366 448,779.5C 447.5,778.333 446.667,777.5 445.5,777C 445.833,776.667 446.167,776.333 446.5,776C 445.718,773.26 445.218,770.426 445,767.5C 443.513,766.747 443.346,765.914 444.5,765C 441.706,762.786 441.039,760.453 442.5,758C 440.665,753.397 438.998,749.064 437.5,745C 437.5,743 437.5,741 437.5,739C 435.699,738.683 435.366,738.016 436.5,737C 434.838,732.155 433.505,727.321 432.5,722.5C 432.047,721.542 431.381,720.708 430.5,720C 430.833,719.667 431.167,719.333 431.5,719C 420.722,678.989 397.055,650.489 360.5,633.5C 351.5,628.76 342.333,624.093 333,619.5C 332.667,619.833 332.333,620.167 332,620.5C 322.293,615.058 312.126,610.891 301.5,608C 299.288,605.667 296.788,604.834 294,605.5C 291.944,602.497 289.277,601.497 286,602.5C 284.229,601.696 282.729,600.529 281.5,599C 269.039,595.511 256.873,591.344 245,586.5C 244.667,586.833 244.333,587.167 244,587.5C 240.443,584.146 236.443,582.812 232,583.5C 229.749,580.79 227.082,579.79 224,580.5C 219.622,577.427 214.789,575.761 209.5,575.5C 208.378,574.053 206.878,573.053 205,572.5C 204.667,572.833 204.333,573.167 204,573.5C 200.931,572.921 198.097,571.754 195.5,570C 192.905,569.774 190.405,569.274 188,568.5C 187.667,568.833 187.333,569.167 187,569.5C 185.846,568.257 184.512,567.257 183,566.5C 181,566.5 179,566.5 177,566.5C 171.074,564.2 165.074,562.2 159,560.5C 158.667,560.833 158.333,561.167 158,561.5C 153.858,558.828 149.524,557.828 145,558.5C 139.628,555.056 133.961,553.723 128,554.5C 125.836,552.197 123.169,550.863 120,550.5C 119,550.833 118,551.167 117,551.5C 111.381,548.468 105.381,546.801 99,546.5C 97.3908,547.15 95.8908,546.65 94.5,545C 90.1679,544.417 85.8346,543.917 81.5,543.5C 81.1995,535.414 81.5328,527.414 82.5,519.5C 83.1031,517.81 84.1031,516.31 85.5,515C 82.8333,514.333 82.8333,513.667 85.5,513C 85.1667,512 84.8333,511 84.5,510C 86.8075,509.646 87.1408,508.646 85.5,507C 86.0294,505.441 86.696,503.941 87.5,502.5C 90.0272,501.786 92.5272,501.12 95,500.5C 256.667,501.833 418.333,501.833 580,500.5C 587,501.167 594,501.833 601,502.5C 601.333,502.167 601.667,501.833 602,501.5C 602.903,502.701 604.069,503.535 605.5,504C 645.295,509.685 677.129,529.185 701,562.5C 713.946,584.471 721.613,608.137 724,633.5C 725.678,641.197 727.678,648.864 730,656.5C 730.333,660.5 730.667,664.5 731,668.5C 733.288,676.442 735.288,684.442 737,692.5C 739.384,705.422 741.384,718.422 743,731.5C 745.064,737.283 746.064,743.283 746,749.5C 748.306,755.922 749.64,762.589 750,769.5C 750.915,770.328 751.581,771.328 752,772.5C 752.333,776.833 752.667,781.167 753,785.5C 755.072,790.204 756.072,795.204 756,800.5C 758.864,806.824 760.198,813.491 760,820.5C 763.111,834.631 766.278,848.631 769.5,862.5 Z"/></g>
<g><path style="opacity:1" fill="#1433cb" d="M 1850.5,618.5 C 1845.38,641.133 1840.88,664.133 1837,687.5C 1834.84,694.855 1832.84,702.189 1831,709.5C 1830.67,713.167 1830.33,716.833 1830,720.5C 1827.17,725.742 1825.83,731.409 1826,737.5C 1825.09,738.328 1824.42,739.328 1824,740.5C 1823.67,744.167 1823.33,747.833 1823,751.5C 1822.71,753.044 1822.04,754.377 1821,755.5C 1818.52,766.784 1816.35,778.118 1814.5,789.5C 1813.51,794.043 1812.51,798.709 1811.5,803.5C 1811.71,804.086 1812.04,804.586 1812.5,805C 1810.74,807.93 1809.58,811.097 1809,814.5C 1804.5,834.476 1800.33,854.476 1796.5,874.5C 1792.51,891.622 1788.85,908.955 1785.5,926.5C 1776.84,965.231 1768.51,1004.23 1760.5,1043.5C 1756.29,1065.36 1751.63,1087.19 1746.5,1109C 1746.83,1109.33 1747.17,1109.67 1747.5,1110C 1746.49,1113.2 1745.32,1116.36 1744,1119.5C 1741.64,1128.66 1739.81,1137.99 1738.5,1147.5C 1729.98,1187.43 1721.65,1227.43 1713.5,1267.5C 1712.29,1273.76 1710.45,1280.09 1708,1286.5C 1707.67,1290.5 1707.33,1294.5 1707,1298.5C 1706.09,1299.33 1705.42,1300.33 1705,1301.5C 1704.71,1306.64 1703.88,1311.64 1702.5,1316.5C 1699.42,1328.53 1697.08,1340.86 1695.5,1353.5C 1692.39,1366.42 1689.23,1379.42 1686,1392.5C 1685.67,1395.83 1685.33,1399.17 1685,1402.5C 1684.58,1403.67 1683.91,1404.67 1683,1405.5C 1682.93,1411.85 1681.6,1417.85 1679,1423.5C 1678.67,1427.17 1678.33,1430.83 1678,1434.5C 1675.87,1438.83 1674.87,1443.5 1675,1448.5C 1669.62,1473.41 1664.46,1498.41 1659.5,1523.5C 1657.48,1529.68 1655.65,1536.01 1654,1542.5C 1654.04,1548.56 1652.71,1554.23 1650,1559.5C 1649.67,1563.5 1649.33,1567.5 1649,1571.5C 1648.09,1572.33 1647.42,1573.33 1647,1574.5C 1643.87,1594.58 1639.87,1614.58 1635,1634.5C 1634.02,1637.33 1632.02,1639 1629,1639.5C 1532.8,1639.19 1437.14,1639.19 1342,1639.5C 1339.83,1638.75 1337.66,1637.91 1335.5,1637C 1336.83,1634.33 1336.83,1631.67 1335.5,1629C 1337.12,1625.77 1338.45,1622.44 1339.5,1619C 1339.5,1616 1339.5,1613 1339.5,1610C 1340.85,1609.23 1341.68,1608.06 1342,1606.5C 1342.23,1603.91 1342.73,1601.41 1343.5,1599C 1343.04,1598.59 1342.71,1598.09 1342.5,1597.5C 1343.09,1594.92 1344.25,1592.25 1346,1589.5C 1346.72,1581.4 1348.22,1573.57 1350.5,1566C 1350.04,1565.59 1349.71,1565.09 1349.5,1564.5C 1350.24,1562.46 1351.57,1560.29 1353.5,1558C 1352.48,1552.93 1353.31,1547.76 1356,1542.5C 1356.22,1539.57 1356.72,1536.74 1357.5,1534C 1356.9,1532.37 1357.24,1530.71 1358.5,1529C 1358.17,1528.67 1357.83,1528.33 1357.5,1528C 1358.5,1525.67 1359.5,1523.33 1360.5,1521C 1360.5,1518 1360.5,1515 1360.5,1512C 1362.57,1511.68 1362.9,1510.84 1361.5,1509.5C 1363.14,1508.3 1363.47,1506.96 1362.5,1505.5C 1364.97,1500.47 1365.64,1495.97 1364.5,1492C 1367.53,1488.03 1368.53,1484.03 1367.5,1480C 1369.75,1474.5 1371.42,1468.83 1372.5,1463C 1371.98,1462.44 1371.64,1461.77 1371.5,1461C 1374.73,1455.32 1376.23,1449.15 1376,1442.5C 1376.91,1441.67 1377.58,1440.67 1378,1439.5C 1378.22,1436.57 1378.72,1433.74 1379.5,1431C 1378.46,1427.91 1379.46,1424.91 1382.5,1422C 1382.17,1421.67 1381.83,1421.33 1381.5,1421C 1382.2,1417.17 1382.87,1413.34 1383.5,1409.5C 1385.14,1405.12 1385.97,1400.46 1386,1395.5C 1386.47,1394.07 1387.3,1392.9 1388.5,1392C 1388.17,1391 1387.83,1390 1387.5,1389C 1388.76,1387.29 1389.1,1385.63 1388.5,1384C 1389.29,1380.28 1390.29,1376.62 1391.5,1373C 1390.54,1371.85 1390.88,1370.85 1392.5,1370C 1392.17,1369.67 1391.83,1369.33 1391.5,1369C 1392.82,1365.75 1393.82,1362.42 1394.5,1359C 1394.17,1358 1393.83,1357 1393.5,1356C 1395.39,1353.23 1396.72,1350.23 1397.5,1347C 1396.6,1344.12 1396.6,1341.12 1397.5,1338C 1398.85,1337.23 1399.68,1336.06 1400,1334.5C 1400.23,1331.91 1400.73,1329.41 1401.5,1327C 1400.98,1326.44 1400.64,1325.77 1400.5,1325C 1403.94,1318.9 1405.27,1312.56 1404.5,1306C 1405.67,1305.5 1406.5,1304.67 1407,1303.5C 1407.22,1300.57 1407.72,1297.74 1408.5,1295C 1407.98,1294.44 1407.64,1293.77 1407.5,1293C 1409.31,1290.2 1410.64,1287.2 1411.5,1284C 1410.89,1279.43 1411.73,1274.93 1414,1270.5C 1414.21,1267.24 1414.71,1264.08 1415.5,1261C 1414.79,1259.66 1415.12,1258.32 1416.5,1257C 1415.37,1255.98 1415.7,1255.32 1417.5,1255C 1417.04,1254.59 1416.71,1254.09 1416.5,1253.5C 1418.23,1248.34 1418.89,1243.17 1418.5,1238C 1420.3,1237.68 1420.63,1237.02 1419.5,1236C 1421.57,1231.54 1422.9,1226.87 1423.5,1222C 1422.89,1219.82 1423.56,1217.82 1425.5,1216C 1425.96,1212.75 1425.96,1209.75 1425.5,1207C 1426.29,1204.04 1427.45,1201.21 1429,1198.5C 1428.9,1192.12 1430.23,1186.12 1433,1180.5C 1433.21,1177.24 1433.71,1174.08 1434.5,1171C 1434.17,1170.67 1433.83,1170.33 1433.5,1170C 1434.43,1169.61 1435.09,1168.95 1435.5,1168C 1436.08,1164.94 1436.74,1161.94 1437.5,1159C 1436.98,1158.44 1436.64,1157.77 1436.5,1157C 1438.31,1154.2 1439.64,1151.2 1440.5,1148C 1440.5,1144.67 1440.5,1141.33 1440.5,1138C 1441.85,1137.23 1442.68,1136.06 1443,1134.5C 1443.33,1130.83 1443.67,1127.17 1444,1123.5C 1444.27,1121.67 1445.11,1120.17 1446.5,1119C 1446.17,1118 1445.83,1117 1445.5,1116C 1446.5,1113 1447.5,1110 1448.5,1107C 1447.15,1105.04 1447.48,1103.04 1449.5,1101C 1449.17,1100.67 1448.83,1100.33 1448.5,1100C 1450.14,1095.75 1451.48,1091.42 1452.5,1087C 1452.17,1086 1451.83,1085 1451.5,1084C 1454.86,1078.46 1455.86,1073.12 1454.5,1068C 1456.21,1066.56 1457.38,1064.73 1458,1062.5C 1457.66,1055.79 1459.16,1049.62 1462.5,1044C 1462.17,1043.67 1461.83,1043.33 1461.5,1043C 1461.9,1038.91 1463.07,1035.08 1465,1031.5C 1465.33,1027.5 1465.67,1023.5 1466,1019.5C 1468.58,1015.57 1469.42,1011.74 1468.5,1008C 1469.06,1004.66 1470.39,1001.66 1472.5,999C 1472.5,995.333 1472.5,991.667 1472.5,988C 1473.46,986.275 1474.13,984.441 1474.5,982.5C 1475.51,978.467 1476.51,974.634 1477.5,971C 1477.17,970 1476.83,969 1476.5,968C 1479.46,961.711 1480.8,955.544 1480.5,949.5C 1483.04,944.768 1484.04,939.934 1483.5,935C 1486.78,928.963 1488.28,922.463 1488,915.5C 1489.69,913.24 1490.86,910.74 1491.5,908C 1491.13,904.925 1491.13,901.592 1491.5,898C 1492.67,897.5 1493.5,896.667 1494,895.5C 1494.33,891.5 1494.67,887.5 1495,883.5C 1495.91,882.672 1496.58,881.672 1497,880.5C 1497.31,877.628 1497.81,874.795 1498.5,872C 1498.36,871.228 1498.02,870.561 1497.5,870C 1500.33,865.079 1502,859.412 1502.5,853C 1502.17,852.667 1501.83,852.333 1501.5,852C 1502.27,850.53 1502.93,849.03 1503.5,847.5C 1504.03,843.185 1505.03,838.685 1506.5,834C 1505.9,832.372 1506.24,830.705 1507.5,829C 1507.17,828.667 1506.83,828.333 1506.5,828C 1507.5,825.667 1508.5,823.333 1509.5,821C 1509.5,818 1509.5,815 1509.5,812C 1510.26,810.488 1511.26,809.154 1512.5,808C 1511.86,802.071 1513.03,796.238 1516,790.5C 1516.33,786.833 1516.67,783.167 1517,779.5C 1519.58,775.569 1520.42,771.736 1519.5,768C 1522.83,761.627 1524.33,754.793 1524,747.5C 1526.7,742.602 1527.54,737.769 1526.5,733C 1527.25,730.741 1528.58,728.408 1530.5,726C 1530.5,722.667 1530.5,719.333 1530.5,716C 1531.13,714.108 1532.13,712.441 1533.5,711C 1533.04,710.586 1532.71,710.086 1532.5,709.5C 1533.31,705.926 1534.31,702.426 1535.5,699C 1535.17,698 1534.83,697 1534.5,696C 1537.19,689.526 1538.69,683.026 1539,676.5C 1540.49,675.747 1540.65,674.914 1539.5,674C 1540,673.5 1540.5,673 1541,672.5C 1542.11,667.697 1542.61,663.364 1542.5,659.5C 1544.48,650.615 1546.81,641.781 1549.5,633C 1548.91,629.661 1549.74,626.494 1552,623.5C 1552.33,619.5 1552.67,615.5 1553,611.5C 1553.67,610.833 1554.33,610.167 1555,609.5C 1555.22,606.574 1555.72,603.74 1556.5,601C 1556.17,600 1555.83,599 1555.5,598C 1556.25,595.075 1557.59,592.075 1559.5,589C 1559.58,585.395 1559.58,581.729 1559.5,578C 1560.5,577 1561.5,576 1562.5,575C 1561.98,574.439 1561.64,573.772 1561.5,573C 1562.82,567.921 1563.82,563.088 1564.5,558.5C 1564.88,555.51 1565.88,552.343 1567.5,549C 1567.5,546 1567.5,543 1567.5,540C 1569.67,536.659 1571,532.992 1571.5,529C 1570.83,525.308 1571.66,521.808 1574,518.5C 1573.54,512.372 1575.04,506.872 1578.5,502C 1581.09,501.774 1583.59,501.274 1586,500.5C 1679.33,500.5 1772.67,500.5 1866,500.5C 1868.47,501.12 1870.97,501.786 1873.5,502.5C 1874.06,503.939 1874.4,505.439 1874.5,507C 1866.77,544.517 1858.77,581.683 1850.5,618.5 Z"/></g>
<g><path style="opacity:1" fill="#1433cb" d="M 3493.5,642.5 C 3496.88,659.48 3500.04,676.48 3503,693.5C 3503.91,694.328 3504.58,695.328 3505,696.5C 3505.33,700.167 3505.67,703.833 3506,707.5C 3508.98,720.375 3512.14,733.042 3515.5,745.5C 3515.89,751.848 3517.23,758.181 3519.5,764.5C 3520.09,770.699 3521.09,776.699 3522.5,782.5C 3525.95,803.672 3530.12,824.672 3535,845.5C 3535.37,847.491 3536.21,849.158 3537.5,850.5C 3538.04,854.819 3538.54,859.152 3539,863.5C 3542.22,876.573 3545.39,889.573 3548.5,902.5C 3548.77,908.75 3549.77,914.75 3551.5,920.5C 3552.73,926.087 3553.57,931.754 3554,937.5C 3554.91,938.328 3555.58,939.328 3556,940.5C 3556.33,944.5 3556.67,948.5 3557,952.5C 3557.42,953.672 3558.09,954.672 3559,955.5C 3559.23,961.836 3560.56,967.836 3563,973.5C 3563.33,977.167 3563.67,980.833 3564,984.5C 3564.29,986.044 3564.96,987.377 3566,988.5C 3570.95,1011.88 3575.78,1035.21 3580.5,1058.5C 3581.55,1064.12 3582.38,1069.79 3583,1075.5C 3583.42,1076.67 3584.09,1077.67 3585,1078.5C 3585.33,1082.83 3585.67,1087.17 3586,1091.5C 3586.42,1092.67 3587.09,1093.67 3588,1094.5C 3589.39,1104.26 3591.06,1113.93 3593,1123.5C 3595.93,1136.08 3599.09,1148.41 3602.5,1160.5C 3602.77,1166.1 3603.77,1171.43 3605.5,1176.5C 3607.3,1190.19 3609.97,1203.52 3613.5,1216.5C 3614.22,1221.12 3614.72,1225.78 3615,1230.5C 3615.28,1231.42 3615.78,1232.08 3616.5,1232.5C 3621.78,1260.53 3627.78,1288.2 3634.5,1315.5C 3636.67,1328.17 3638.83,1340.83 3641,1353.5C 3641.38,1354.06 3641.88,1354.39 3642.5,1354.5C 3643.15,1359.14 3643.65,1363.8 3644,1368.5C 3646.13,1372.83 3647.13,1377.5 3647,1382.5C 3649.77,1388.17 3651.1,1394.17 3651,1400.5C 3651.67,1401.83 3652.33,1403.17 3653,1404.5C 3657.95,1427.87 3662.78,1451.2 3667.5,1474.5C 3668.91,1485.63 3670.74,1496.63 3673,1507.5C 3673.67,1508.17 3674.33,1508.83 3675,1509.5C 3676.2,1519.65 3677.87,1529.65 3680,1539.5C 3682.11,1543.49 3683.11,1547.82 3683,1552.5C 3685.36,1560.56 3687.52,1568.56 3689.5,1576.5C 3689.5,1582.14 3690.5,1587.48 3692.5,1592.5C 3693.22,1601.92 3695.22,1610.92 3698.5,1619.5C 3699.46,1625.74 3699.79,1632.08 3699.5,1638.5C 3610.24,1639.32 3521.07,1639.66 3432,1639.5C 3429.27,1638.94 3426.61,1638.27 3424,1637.5C 3422.96,1632.35 3421.46,1627.35 3419.5,1622.5C 3419.71,1621.91 3420.04,1621.41 3420.5,1621C 3419.92,1617.86 3418.92,1614.86 3417.5,1612C 3418.63,1610.98 3418.3,1610.32 3416.5,1610C 3416.59,1603.81 3415.59,1597.31 3413.5,1590.5C 3414.04,1590.44 3414.38,1590.11 3414.5,1589.5C 3412.47,1587.51 3411.8,1585.34 3412.5,1583C 3412.05,1578.29 3410.89,1573.79 3409,1569.5C 3409.29,1563.12 3407.79,1557.29 3404.5,1552C 3404.83,1551 3405.17,1550 3405.5,1549C 3404.8,1544.6 3403.63,1540.77 3402,1537.5C 3401.67,1533.83 3401.33,1530.17 3401,1526.5C 3400.48,1523.97 3399.32,1521.8 3397.5,1520C 3397.83,1519 3398.17,1518 3398.5,1517C 3397.22,1510.5 3395.55,1504.17 3393.5,1498C 3393.96,1497.59 3394.29,1497.09 3394.5,1496.5C 3393.83,1493.01 3392.49,1489.85 3390.5,1487C 3390.83,1486.67 3391.17,1486.33 3391.5,1486C 3390.77,1481.08 3389.77,1476.58 3388.5,1472.5C 3388.67,1471.18 3388.34,1470.01 3387.5,1469C 3264.17,1468.33 3140.83,1468.33 3017.5,1469C 3007.61,1498.01 2997.78,1527.18 2988,1556.5C 2985.7,1560.76 2983.7,1565.1 2982,1569.5C 2980.77,1575.68 2979.11,1581.68 2977,1587.5C 2976.33,1588.17 2975.67,1588.83 2975,1589.5C 2971.17,1603.66 2966.84,1617.66 2962,1631.5C 2960.58,1633.34 2959.41,1635.34 2958.5,1637.5C 2956.66,1638.23 2954.83,1638.9 2953,1639.5C 2851.65,1639.49 2750.65,1639.49 2650,1639.5C 2648.75,1638.79 2647.58,1637.96 2646.5,1637C 2647.64,1636.26 2647.64,1635.43 2646.5,1634.5C 2648.15,1629.04 2650.48,1623.87 2653.5,1619C 2652.65,1617.44 2653.32,1616.44 2655.5,1616C 2655.5,1614 2655.5,1612 2655.5,1610C 2656.31,1609.69 2656.97,1609.19 2657.5,1608.5C 2666.83,1584.19 2677.17,1560.03 2688.5,1536C 2687.88,1533.53 2688.72,1531.37 2691,1529.5C 2691.66,1524.18 2693.5,1519.34 2696.5,1515C 2696.17,1514.67 2695.83,1514.33 2695.5,1514C 2698.35,1511.48 2699.85,1508.31 2700,1504.5C 2701.72,1502.13 2703.22,1499.63 2704.5,1497C 2703.74,1495.64 2704.24,1494.47 2706,1493.5C 2708.61,1486.57 2711.44,1479.73 2714.5,1473C 2714.17,1472.67 2713.83,1472.33 2713.5,1472C 2715.89,1467.91 2718.06,1463.74 2720,1459.5C 2720.3,1457.11 2721.14,1454.94 2722.5,1453C 2722.17,1452.67 2721.83,1452.33 2721.5,1452C 2724.21,1449.75 2725.21,1447.08 2724.5,1444C 2726.99,1441.35 2728.99,1438.35 2730.5,1435C 2730.17,1434.67 2729.83,1434.33 2729.5,1434C 2733.42,1425.09 2737.59,1416.25 2742,1407.5C 2745.2,1396.96 2749.37,1386.79 2754.5,1377C 2754.17,1376.67 2753.83,1376.33 2753.5,1376C 2758.82,1363.16 2764.65,1350.66 2771,1338.5C 2771.25,1336.57 2771.75,1334.73 2772.5,1333C 2772.17,1332.67 2771.83,1332.33 2771.5,1332C 2772.42,1331.63 2773.25,1331.13 2774,1330.5C 2776.38,1324.51 2778.55,1318.84 2780.5,1313.5C 2783.4,1305.87 2786.73,1298.37 2790.5,1291C 2789.97,1288.86 2790.8,1287.03 2793,1285.5C 2795.67,1278.17 2798.33,1270.83 2801,1263.5C 2802.41,1261.81 2803.57,1259.98 2804.5,1258C 2804.17,1257.67 2803.83,1257.33 2803.5,1257C 2806.38,1250.33 2809.38,1243.66 2812.5,1237C 2812.17,1236.67 2811.83,1236.33 2811.5,1236C 2813.02,1234.78 2814.19,1233.28 2815,1231.5C 2817.25,1224.53 2819.92,1217.53 2823,1210.5C 2825.15,1206.89 2827.15,1203.23 2829,1199.5C 2829.27,1197.9 2829.77,1196.4 2830.5,1195C 2829.74,1193.64 2830.24,1192.47 2832,1191.5C 2834.91,1183.01 2838.07,1175.01 2841.5,1167.5C 2841.29,1166.91 2840.96,1166.41 2840.5,1166C 2842,1165.17 2843.17,1164 2844,1162.5C 2845.33,1158.5 2846.67,1154.5 2848,1150.5C 2849,1149.17 2850,1147.83 2851,1146.5C 2853.61,1139.18 2856.44,1132.01 2859.5,1125C 2859.17,1124.67 2858.83,1124.33 2858.5,1124C 2859.42,1123.63 2860.25,1123.13 2861,1122.5C 2861.91,1117.6 2863.75,1113.1 2866.5,1109C 2865.37,1107.98 2865.7,1107.32 2867.5,1107C 2867.17,1106.67 2866.83,1106.33 2866.5,1106C 2868.27,1103.9 2869.6,1101.57 2870.5,1099C 2870.17,1098.67 2869.83,1098.33 2869.5,1098C 2871.14,1096.2 2872.48,1094.2 2873.5,1092C 2873.17,1091.67 2872.83,1091.33 2872.5,1091C 2877.99,1080.7 2882.83,1070.53 2887,1060.5C 2896.2,1035.48 2906.36,1010.98 2917.5,987C 2916.74,985.636 2917.24,984.469 2919,983.5C 2919.09,980.993 2919.93,978.826 2921.5,977C 2925.42,965.274 2930.09,953.941 2935.5,943C 2935.17,942.667 2934.83,942.333 2934.5,942C 2935.16,940.668 2936.33,939.502 2938,938.5C 2938.58,934.27 2940.08,930.437 2942.5,927C 2941.74,925.636 2942.24,924.469 2944,923.5C 2952.1,901.534 2960.93,880.367 2970.5,860C 2971.11,858.463 2971.11,857.13 2970.5,856C 2971.42,855.626 2972.25,855.126 2973,854.5C 2975.85,845.914 2979.02,838.08 2982.5,831C 2982.17,830.667 2981.83,830.333 2981.5,830C 2984.08,826.89 2985.41,823.557 2985.5,820C 2987.87,814.266 2990.87,808.6 2994.5,803C 2994.17,802.667 2993.83,802.333 2993.5,802C 2995.41,798.898 2997.24,795.732 2999,792.5C 2999.27,790.899 2999.77,789.399 3000.5,788C 3000.17,787.667 2999.83,787.333 2999.5,787C 3002.25,784.356 3003.58,781.356 3003.5,778C 3005.97,775.772 3007.13,772.938 3007,769.5C 3010.69,761.293 3014.52,753.127 3018.5,745C 3018.17,744.667 3017.83,744.333 3017.5,744C 3023.25,731.331 3029.09,718.831 3035,706.5C 3036.81,700.865 3038.64,695.199 3040.5,689.5C 3047.07,673.775 3054.07,658.275 3061.5,643C 3060.74,640.345 3061.74,638.345 3064.5,637C 3064.17,636.667 3063.83,636.333 3063.5,636C 3064.23,634.601 3064.73,633.101 3065,631.5C 3066.08,628.913 3067.58,626.08 3069.5,623C 3069.17,622.667 3068.83,622.333 3068.5,622C 3072.96,613.879 3076.96,605.546 3080.5,597C 3086.87,581.832 3095.2,566.999 3105.5,552.5C 3115.97,540.425 3127.63,529.592 3140.5,520C 3148.15,516.006 3155.82,512.34 3163.5,509C 3172.34,505.953 3181.34,503.62 3190.5,502C 3199.41,501.819 3208.24,501.319 3217,500.5C 3297,500.5 3377,500.5 3457,500.5C 3462.83,501.68 3465.83,505.346 3466,511.5C 3466.33,514.833 3466.67,518.167 3467,521.5C 3467.42,522.672 3468.09,523.672 3469,524.5C 3468.8,531.545 3470.13,538.212 3473,544.5C 3473.33,547.833 3473.67,551.167 3474,554.5C 3476.13,558.83 3477.13,563.497 3477,568.5C 3479.77,574.119 3481.1,580.119 3481,586.5C 3481.67,587.833 3482.33,589.167 3483,590.5C 3485.91,608.057 3489.41,625.39 3493.5,642.5 Z M 3286.5,978.5 C 3287.6,979.848 3288.6,981.348 3289.5,983C 3287.48,987.855 3288.31,992.355 3292,996.5C 3292.21,1000.09 3292.71,1003.59 3293.5,1007C 3292.9,1008.9 3293.4,1010.74 3295,1012.5C 3295.26,1015.56 3295.76,1018.56 3296.5,1021.5C 3296.29,1022.09 3295.96,1022.59 3295.5,1023C 3297.27,1025.93 3297.94,1028.93 3297.5,1032C 3299.3,1032.32 3299.63,1032.98 3298.5,1034C 3299.92,1038.06 3300.92,1042.06 3301.5,1046C 3301.17,1046.33 3300.83,1046.67 3300.5,1047C 3302,1048.49 3302.84,1050.32 3303,1052.5C 3303.24,1054.76 3303.74,1056.93 3304.5,1059C 3304.17,1060 3303.83,1061 3303.5,1062C 3306.64,1068.11 3308.31,1074.61 3308.5,1081.5C 3309.92,1084.6 3310.92,1087.93 3311.5,1091.5C 3311.29,1092.09 3310.96,1092.59 3310.5,1093C 3313.73,1098.67 3315.23,1104.83 3315,1111.5C 3317.48,1115.51 3318.31,1119.34 3317.5,1123C 3318.23,1125.15 3318.9,1127.32 3319.5,1129.5C 3322.99,1147.58 3326.65,1165.25 3330.5,1182.5C 3329.17,1182.83 3329.17,1183.17 3330.5,1183.5C 3331.66,1186.24 3332.66,1189.41 3333.5,1193C 3332.95,1194.4 3332.62,1195.73 3332.5,1197C 3335.48,1202.77 3336.98,1208.94 3337,1215.5C 3338.49,1216.25 3338.65,1217.09 3337.5,1218C 3339.07,1220.04 3340.07,1222.37 3340.5,1225C 3340.01,1227.03 3340.01,1229.19 3340.5,1231.5C 3262.83,1231.67 3185.17,1231.5 3107.5,1231C 3106.83,1230.67 3106.17,1230.33 3105.5,1230C 3106.89,1227.14 3108.23,1224.31 3109.5,1221.5C 3119.72,1190.47 3130.89,1159.8 3143,1129.5C 3146,1119.86 3149,1110.2 3152,1100.5C 3156.54,1090.81 3160.2,1080.81 3163,1070.5C 3163.38,1069.94 3163.88,1069.61 3164.5,1069.5C 3165.13,1066.3 3166.13,1063.3 3167.5,1060.5C 3171.57,1046.59 3176.07,1032.92 3181,1019.5C 3183.05,1017.3 3184.05,1014.63 3184,1011.5C 3186.89,1004.41 3189.72,997.411 3192.5,990.5C 3196.36,979.353 3200.36,968.353 3204.5,957.5C 3206.84,950.815 3209.17,944.148 3211.5,937.5C 3216.19,924.796 3220.86,912.13 3225.5,899.5C 3233.86,873.088 3243.03,847.088 3253,821.5C 3255.85,828.259 3257.02,835.092 3256.5,842C 3259.08,844.703 3260.08,847.703 3259.5,851C 3260.03,855.005 3261.19,858.839 3263,862.5C 3263.33,866.167 3263.67,869.833 3264,873.5C 3265.79,877.313 3266.95,881.313 3267.5,885.5C 3267.29,886.086 3266.96,886.586 3266.5,887C 3269.75,896.656 3271.75,905.99 3272.5,915C 3274.93,919.407 3275.6,923.74 3274.5,928C 3276.24,930.192 3277.4,932.692 3278,935.5C 3278.21,938.758 3278.71,941.924 3279.5,945C 3279.17,945.333 3278.83,945.667 3278.5,946C 3279.31,946.308 3279.97,946.808 3280.5,947.5C 3282.37,951.561 3282.7,955.394 3281.5,959C 3284.86,964.986 3286.53,971.486 3286.5,978.5 Z"/></g>
<g><path style="opacity:1" fill="#1433cb" d="M 1455.5,513.5 C 1456.83,514.167 1456.83,514.167 1455.5,513.5 Z"/></g>
<g><path style="opacity:1" fill="#1433cb" d="M 82.5,519.5 C 81.8333,518.167 81.8333,518.167 82.5,519.5 Z"/></g>
<g><path style="opacity:1" fill="#1433cb" d="M 1872.5,518.5 C 1873.83,519.167 1873.83,519.167 1872.5,518.5 Z"/></g>
<g><path style="opacity:1" fill="#1433cb" d="M 1869.5,534.5 C 1870.83,535.167 1870.83,535.167 1869.5,534.5 Z"/></g>
<g><path style="opacity:1" fill="#1433cb" d="M 1438.5,554.5 C 1439.83,555.167 1439.83,555.167 1438.5,554.5 Z"/></g>
<g><path style="opacity:1" fill="#1433cb" d="M 1564.5,558.5 C 1563.83,557.167 1563.83,557.167 1564.5,558.5 Z"/></g>
<g><path style="opacity:1" fill="#1433cb" d="M 167.5,564.5 C 168.833,565.167 168.833,565.167 167.5,564.5 Z"/></g>
<g><path style="opacity:1" fill="#1433cb" d="M 209.5,575.5 C 208.833,576.167 208.833,576.167 209.5,575.5 Z"/></g>
<g><path style="opacity:1" fill="#1433cb" d="M 1426.5,582.5 C 1427.83,583.167 1427.83,583.167 1426.5,582.5 Z"/></g>
<g><path style="opacity:1" fill="#1433cb" d="M 2708.5,599.5 C 2709.83,600.167 2709.83,600.167 2708.5,599.5 Z"/></g>
<g><path style="opacity:1" fill="#1433cb" d="M 1850.5,618.5 C 1851.83,619.167 1851.83,619.167 1850.5,618.5 Z"/></g>
<g><path style="opacity:1" fill="#1433cb" d="M 1409.5,623.5 C 1410.83,624.167 1410.83,624.167 1409.5,623.5 Z"/></g>
<g><path style="opacity:1" fill="#1433cb" d="M 360.5,633.5 C 359.833,634.167 359.833,634.167 360.5,633.5 Z"/></g>
<g><path style="opacity:1" fill="#1433cb" d="M 3493.5,641.5 C 3494.83,642.167 3494.83,642.167 3493.5,641.5 Z"/></g>
<g><path style="opacity:1" fill="#1433cb" d="M 1397.5,651.5 C 1398.83,652.167 1398.83,652.167 1397.5,651.5 Z"/></g>
<g><path style="opacity:1" fill="#1433cb" d="M 1843.5,654.5 C 1844.83,655.167 1844.83,655.167 1843.5,654.5 Z"/></g>
<g><path style="opacity:1" fill="#1433cb" d="M 1542.5,659.5 C 1541.83,658.167 1541.83,658.167 1542.5,659.5 Z"/></g>
<g><path style="opacity:1" fill="#1433cb" d="M 3040.5,689.5 C 3039.83,688.167 3039.83,688.167 3040.5,689.5 Z"/></g>
<g><path style="opacity:1" fill="#1433cb" d="M 1369.5,719.5 C 1370.83,720.167 1370.83,720.167 1369.5,719.5 Z"/></g>
<g><path style="opacity:1" fill="#1433cb" d="M 432.5,722.5 C 431.833,723.167 431.833,723.167 432.5,722.5 Z"/></g>
<g><path style="opacity:1" fill="#1433cb" d="M 743.5,729.5 C 744.833,730.167 744.833,730.167 743.5,729.5 Z"/></g>
<g><path style="opacity:1" fill="#1433cb" d="M 2679.5,733.5 C 2680.83,734.167 2680.83,734.167 2679.5,733.5 Z"/></g>
<g><path style="opacity:1" fill="#1433cb" d="M 2351.5,734.5 C 2352.83,735.167 2352.83,735.167 2351.5,734.5 Z"/></g>
<g><path style="opacity:1" fill="#1433cb" d="M 2540.5,737.5 C 2541.83,738.167 2541.83,738.167 2540.5,737.5 Z"/></g>
<g><path style="opacity:1" fill="#1433cb" d="M 1358.5,744.5 C 1359.83,745.167 1359.83,745.167 1358.5,744.5 Z"/></g>
<g><path style="opacity:1" fill="#1433cb" d="M 3515.5,744.5 C 3516.83,745.167 3516.83,745.167 3515.5,744.5 Z"/></g>
<g><path style="opacity:1" fill="#1433cb" d="M 3519.5,763.5 C 3520.83,764.167 3520.83,764.167 3519.5,763.5 Z"/></g>
<g><path style="opacity:1" fill="#1433cb" d="M 2664.5,777.5 C 2663.83,778.167 2663.83,778.167 2664.5,777.5 Z"/></g>
<g><path style="opacity:1" fill="#1433cb" d="M 1344.5,779.5 C 1345.83,780.167 1345.83,780.167 1344.5,779.5 Z"/></g>
<g><path style="opacity:1" fill="#1433cb" d="M 3522.5,781.5 C 3523.83,782.167 3523.83,782.167 3522.5,781.5 Z"/></g>
<g><path style="opacity:1" fill="#1433cb" d="M 1814.5,789.5 C 1815.83,790.167 1815.83,790.167 1814.5,789.5 Z"/></g>
<g><path style="opacity:1" fill="#1433cb" d="M 2263.5,797.5 C 2264.83,798.167 2264.83,798.167 2263.5,797.5 Z"/></g>
<g><path style="opacity:1" fill="#1433cb" d="M 2259.5,811.5 C 2260.83,812.167 2260.83,812.167 2259.5,811.5 Z"/></g>
<g><path style="opacity:1" fill="#1433cb" d="M 1329.5,813.5 C 1330.83,814.167 1330.83,814.167 1329.5,813.5 Z"/></g>
<g><path style="opacity:1" fill="#1433cb" d="M 1319.5,839.5 C 1320.83,840.167 1320.83,840.167 1319.5,839.5 Z"/></g>
<g><path style="opacity:1" fill="#1433cb" d="M 1503.5,847.5 C 1502.83,846.167 1502.83,846.167 1503.5,847.5 Z"/></g>
<g><path style="opacity:1" fill="#1433cb" d="M 3537.5,849.5 C 3538.83,850.167 3538.83,850.167 3537.5,849.5 Z"/></g>
<g><path style="opacity:1" fill="#1433cb" d="M 769.5,861.5 C 770.833,862.167 770.833,862.167 769.5,861.5 Z"/></g>
<g><path style="opacity:1" fill="#1433cb" d="M 1796.5,874.5 C 1797.83,875.167 1797.83,875.167 1796.5,874.5 Z"/></g>
<g><path style="opacity:1" fill="#1433cb" d="M 772.5,881.5 C 773.833,882.167 773.833,882.167 772.5,881.5 Z"/></g>
<g><path style="opacity:1" fill="#1433cb" d="M 1300.5,882.5 C 1301.83,883.167 1301.83,883.167 1300.5,882.5 Z"/></g>
<g><path style="opacity:1" fill="#1433cb" d="M 1297.5,890.5 C 1298.83,891.167 1298.83,891.167 1297.5,890.5 Z"/></g>
<g><path style="opacity:1" fill="#1433cb" d="M 3548.5,901.5 C 3549.83,902.167 3549.83,902.167 3548.5,901.5 Z"/></g>
<g><path style="opacity:1" fill="#1433cb" d="M 3551.5,919.5 C 3552.83,920.167 3552.83,920.167 3551.5,919.5 Z"/></g>
<g><path style="opacity:1" fill="#1433cb" d="M 1785.5,926.5 C 1786.83,927.167 1786.83,927.167 1785.5,926.5 Z"/></g>
<g><path style="opacity:1" fill="#1433cb" d="M 1271.5,951.5 C 1272.83,952.167 1272.83,952.167 1271.5,951.5 Z"/></g>
<g><path style="opacity:1" fill="#1433cb" d="M 1261.5,977.5 C 1262.83,978.167 1262.83,978.167 1261.5,977.5 Z"/></g>
<g><path style="opacity:1" fill="#1433cb" d="M 1474.5,982.5 C 1473.83,981.167 1473.83,981.167 1474.5,982.5 Z"/></g>
<g><path style="opacity:1" fill="#1433cb" d="M 1977.5,983.5 C 1976.83,984.167 1976.83,984.167 1977.5,983.5 Z"/></g>
<g><path style="opacity:1" fill="#1433cb" d="M 794.5,993.5 C 795.833,994.167 795.833,994.167 794.5,993.5 Z"/></g>
<g><path style="opacity:1" fill="#1433cb" d="M 1771.5,995.5 C 1772.83,996.167 1772.83,996.167 1771.5,995.5 Z"/></g>
<g><path style="opacity:1" fill="#1433cb" d="M 505.5,1001.5 C 504.833,1002.17 504.833,1002.17 505.5,1001.5 Z"/></g>
<g><path style="opacity:1" fill="#1433cb" d="M 1250.5,1003.5 C 1251.83,1004.17 1251.83,1004.17 1250.5,1003.5 Z"/></g>
<g><path style="opacity:1" fill="#1433cb" d="M 798.5,1013.5 C 799.833,1014.17 799.833,1014.17 798.5,1013.5 Z"/></g>
<g><path style="opacity:1" fill="#1433cb" d="M 1243.5,1019.5 C 1244.83,1020.17 1244.83,1020.17 1243.5,1019.5 Z"/></g>
<g><path style="opacity:1" fill="#1433cb" d="M 801.5,1033.5 C 802.833,1034.17 802.833,1034.17 801.5,1033.5 Z"/></g>
<g><path style="opacity:1" fill="#1433cb" d="M 1760.5,1043.5 C 1761.83,1044.17 1761.83,1044.17 1760.5,1043.5 Z"/></g>
<g><path style="opacity:1" fill="#1433cb" d="M 3580.5,1057.5 C 3581.83,1058.17 3581.83,1058.17 3580.5,1057.5 Z"/></g>
<g><path style="opacity:1" fill="#1433cb" d="M 1753.5,1081.5 C 1754.83,1082.17 1754.83,1082.17 1753.5,1081.5 Z"/></g>
<g><path style="opacity:1" fill="#1433cb" d="M 2157.5,1142.5 C 2156.83,1143.17 2156.83,1143.17 2157.5,1142.5 Z"/></g>
<g><path style="opacity:1" fill="#1433cb" d="M 823.5,1145.5 C 824.833,1146.17 824.833,1146.17 823.5,1145.5 Z"/></g>
<g><path style="opacity:1" fill="#1433cb" d="M 1738.5,1147.5 C 1739.83,1148.17 1739.83,1148.17 1738.5,1147.5 Z"/></g>
<g><path style="opacity:1" fill="#1433cb" d="M 888.5,1153.5 C 887.833,1152.17 887.833,1152.17 888.5,1153.5 Z"/></g>
<g><path style="opacity:1" fill="#1433cb" d="M 3602.5,1159.5 C 3603.83,1160.17 3603.83,1160.17 3602.5,1159.5 Z"/></g>
<g><path style="opacity:1" fill="#1433cb" d="M 827.5,1165.5 C 828.833,1166.17 828.833,1166.17 827.5,1165.5 Z"/></g>
<g><path style="opacity:1" fill="#1433cb" d="M 3605.5,1175.5 C 3606.83,1176.17 3606.83,1176.17 3605.5,1175.5 Z"/></g>
<g><path style="opacity:1" fill="#1433cb" d="M 830.5,1185.5 C 831.833,1186.17 831.833,1186.17 830.5,1185.5 Z"/></g>
<g><path style="opacity:1" fill="#1433cb" d="M 559.5,1210.5 C 558.833,1211.17 558.833,1211.17 559.5,1210.5 Z"/></g>
<g><path style="opacity:1" fill="#1433cb" d="M 3613.5,1215.5 C 3614.83,1216.17 3614.83,1216.17 3613.5,1215.5 Z"/></g>
<g><path style="opacity:1" fill="#1433cb" d="M 838.5,1225.5 C 839.833,1226.17 839.833,1226.17 838.5,1225.5 Z"/></g>
<g><path style="opacity:1" fill="#1433cb" d="M 3616.5,1231.5 C 3617.83,1232.17 3617.83,1232.17 3616.5,1231.5 Z"/></g>
<g><path style="opacity:1" fill="#1433cb" d="M 1717.5,1251.5 C 1718.83,1252.17 1718.83,1252.17 1717.5,1251.5 Z"/></g>
<g><path style="opacity:1" fill="#1433cb" d="M 1713.5,1267.5 C 1714.83,1268.17 1714.83,1268.17 1713.5,1267.5 Z"/></g>
<g><path style="opacity:1" fill="#1433cb" d="M 2353.5,1293.5 C 2352.83,1294.17 2352.83,1294.17 2353.5,1293.5 Z"/></g>
<g><path style="opacity:1" fill="#1433cb" d="M 584.5,1307.5 C 583.833,1308.17 583.833,1308.17 584.5,1307.5 Z"/></g>
<g><path style="opacity:1" fill="#1433cb" d="M 2780.5,1313.5 C 2779.83,1312.17 2779.83,1312.17 2780.5,1313.5 Z"/></g>
<g><path style="opacity:1" fill="#1433cb" d="M 3634.5,1314.5 C 3635.83,1315.17 3635.83,1315.17 3634.5,1314.5 Z"/></g>
<g><path style="opacity:1" fill="#1433cb" d="M 1702.5,1316.5 C 1703.83,1317.17 1703.83,1317.17 1702.5,1316.5 Z"/></g>
<g><path style="opacity:1" fill="#1433cb" d="M 591.5,1333.5 C 590.833,1334.17 590.833,1334.17 591.5,1333.5 Z"/></g>
<g><path style="opacity:1" fill="#1433cb" d="M 1699.5,1333.5 C 1700.83,1334.17 1700.83,1334.17 1699.5,1333.5 Z"/></g>
<g><path style="opacity:1" fill="#1433cb" d="M 1695.5,1353.5 C 1696.83,1354.17 1696.83,1354.17 1695.5,1353.5 Z"/></g>
<g><path style="opacity:1" fill="#1433cb" d="M 3642.5,1353.5 C 3643.83,1354.17 3643.83,1354.17 3642.5,1353.5 Z"/></g>
<g><path style="opacity:1" fill="#1433cb" d="M 1383.5,1409.5 C 1382.83,1408.17 1382.83,1408.17 1383.5,1409.5 Z"/></g>
<g><path style="opacity:1" fill="#1433cb" d="M 1076.5,1417.5 C 1077.83,1418.17 1077.83,1418.17 1076.5,1417.5 Z"/></g>
<g><path style="opacity:1" fill="#1433cb" d="M 620.5,1445.5 C 619.833,1446.17 619.833,1446.17 620.5,1445.5 Z"/></g>
<g><path style="opacity:1" fill="#1433cb" d="M 1054.5,1470.5 C 1055.83,1471.17 1055.83,1471.17 1054.5,1470.5 Z"/></g>
<g><path style="opacity:1" fill="#1433cb" d="M 627.5,1471.5 C 626.833,1472.17 626.833,1472.17 627.5,1471.5 Z"/></g>
<g><path style="opacity:1" fill="#1433cb" d="M 3388.5,1472.5 C 3387.83,1473.17 3387.83,1473.17 3388.5,1472.5 Z"/></g>
<g><path style="opacity:1" fill="#1433cb" d="M 3667.5,1473.5 C 3668.83,1474.17 3668.83,1474.17 3667.5,1473.5 Z"/></g>
<g><path style="opacity:1" fill="#1433cb" d="M 1850.5,1483.5 C 1849.83,1482.17 1849.83,1482.17 1850.5,1483.5 Z"/></g>
<g><path style="opacity:1" fill="#1433cb" d="M 3397.5,1522.5 C 3398.83,1523.17 3398.83,1523.17 3397.5,1522.5 Z"/></g>
<g><path style="opacity:1" fill="#1433cb" d="M 1659.5,1523.5 C 1660.83,1524.17 1660.83,1524.17 1659.5,1523.5 Z"/></g>
<g><path style="opacity:1" fill="#1433cb" d="M 2553.5,1529.5 C 2554.83,1530.17 2554.83,1530.17 2553.5,1529.5 Z"/></g>
<g><path style="opacity:1" fill="#1433cb" d="M 1025.5,1539.5 C 1026.83,1540.17 1026.83,1540.17 1025.5,1539.5 Z"/></g>
<g><path style="opacity:1" fill="#1433cb" d="M 1011.5,1572.5 C 1012.83,1573.17 1012.83,1573.17 1011.5,1572.5 Z"/></g>
<g><path style="opacity:1" fill="#1433cb" d="M 3689.5,1575.5 C 3690.83,1576.17 3690.83,1576.17 3689.5,1575.5 Z"/></g>
<g><path style="opacity:1" fill="#1433cb" d="M 2478.5,1583.5 C 2479.83,1584.17 2479.83,1584.17 2478.5,1583.5 Z"/></g>
<g><path style="opacity:1" fill="#1433cb" d="M 2471.5,1587.5 C 2472.83,1588.17 2472.83,1588.17 2471.5,1587.5 Z"/></g>
<g><path style="opacity:1" fill="#1433cb" d="M 3413.5,1590.5 C 3412.83,1589.17 3412.83,1589.17 3413.5,1590.5 Z"/></g>
<g><path style="opacity:1" fill="#1433cb" d="M 2465.5,1590.5 C 2466.83,1591.17 2466.83,1591.17 2465.5,1590.5 Z"/></g>
<g><path style="opacity:1" fill="#1433cb" d="M 3692.5,1591.5 C 3693.83,1592.17 3693.83,1592.17 3692.5,1591.5 Z"/></g>
<g><path style="opacity:1" fill="#1433cb" d="M 2457.5,1594.5 C 2458.83,1595.17 2458.83,1595.17 2457.5,1594.5 Z"/></g>
<g><path style="opacity:1" fill="#1433cb" d="M 2450.5,1597.5 C 2451.83,1598.17 2451.83,1598.17 2450.5,1597.5 Z"/></g>
<g><path style="opacity:1" fill="#1433cb" d="M 1836.5,1598.5 C 1837.83,1599.17 1837.83,1599.17 1836.5,1598.5 Z"/></g>
<g><path style="opacity:1" fill="#1433cb" d="M 1000.5,1599.5 C 1001.83,1600.17 1001.83,1600.17 1000.5,1599.5 Z"/></g>
<g><path style="opacity:1" fill="#1433cb" d="M 1857.5,1605.5 C 1856.83,1606.17 1856.83,1606.17 1857.5,1605.5 Z"/></g>
<g><path style="opacity:1" fill="#1433cb" d="M 2434.5,1605.5 C 2435.83,1606.17 2435.83,1606.17 2434.5,1605.5 Z"/></g>
<g><path style="opacity:1" fill="#1433cb" d="M 996.5,1608.5 C 997.833,1609.17 997.833,1609.17 996.5,1608.5 Z"/></g>
<g><path style="opacity:1" fill="#1433cb" d="M 3698.5,1618.5 C 3699.83,1619.17 3699.83,1619.17 3698.5,1618.5 Z"/></g>
<g><path style="opacity:1" fill="#1433cb" d="M 1914.5,1623.5 C 1914.83,1623.5 1915.17,1623.5 1915.5,1623.5C 1915.31,1624.17 1914.98,1624.17 1914.5,1623.5 Z"/></g>
<g><path style="opacity:1" fill="#1433cb" d="M 1637.5,1627.5 C 1638.83,1628.17 1638.83,1628.17 1637.5,1627.5 Z"/></g>
<g><path style="opacity:1" fill="#1433cb" d="M 1989.5,1641.5 C 1988.83,1642.17 1988.83,1642.17 1989.5,1641.5 Z"/></g>
<g><path style="opacity:1" fill="#1433cb" d="M 2055.5,1652.5 C 2056.83,1653.17 2056.83,1653.17 2055.5,1652.5 Z"/></g>
<g><path style="opacity:1" fill="#1433cb" d="M 2060.5,1652.5 C 2061.83,1653.17 2061.83,1653.17 2060.5,1652.5 Z"/></g>
<g><path style="opacity:1" fill="#1433cb" d="M 2259.5,1652.5 C 2260.83,1653.17 2260.83,1653.17 2259.5,1652.5 Z"/></g>
<g><path style="opacity:1" fill="#1433cb" d="M 2072.5,1654.5 C 2073.83,1655.17 2073.83,1655.17 2072.5,1654.5 Z"/></g>
<g><path style="opacity:1" fill="#1433cb" d="M 2075.5,1654.5 C 2074.83,1655.17 2074.83,1655.17 2075.5,1654.5 Z"/></g>
<g><path style="opacity:1" fill="#1433cb" d="M 2076.5,1654.5 C 2076.83,1654.5 2077.17,1654.5 2077.5,1654.5C 2077.31,1655.17 2076.98,1655.17 2076.5,1654.5 Z"/></g>
<g><path style="opacity:1" fill="#1433cb" d="M 2078.5,1654.5 C 2078.83,1654.5 2079.17,1654.5 2079.5,1654.5C 2079.31,1655.17 2078.98,1655.17 2078.5,1654.5 Z"/></g>
<g><path style="opacity:1" fill="#1433cb" d="M 2245.5,1654.5 C 2245.83,1654.5 2246.17,1654.5 2246.5,1654.5C 2246.31,1655.17 2245.98,1655.17 2245.5,1654.5 Z"/></g>
<g><path style="opacity:1" fill="#1433cb" d="M 2247.5,1654.5 C 2248.83,1655.17 2248.83,1655.17 2247.5,1654.5 Z"/></g>
</svg>
