<svg xmlns="http://www.w3.org/2000/svg" viewBox="0 0 1920 110.8" style="enable-background:new 0 0 1920 110.8" xml:space="preserve" preserveAspectRatio="none"><path class="elementor-shape-fill uael-shape-divider" d="M1 6.6c.4 11.9 2.2 38.9 10.2 46.9 0 0 0-38.1 3.2-46.9h2.3c1.1 3.3 6.8 43.6 12.9 53.7 0 0-.2-54 5.6-51 3.3 9.4 17.6 49.6 20.2 51.3 0 0-6.8-40.2-4.1-54h1.3c2.6 16.5 5.9 20.8 9 27.5C60.2 29.2 63 19 63 8.9c1.5 9.6 5.6 33.4 9.7 37.5 0 0 0-25.7 1.8-39.8h7l-3 2.5s1.7 8.5 8.4 18.3c-1.4 10.9-3.1 22.2-3.1 22.2 3.4-3.2 6.4-8.6 9.1-14.7 2.1 2.2 4.6 4.5 7.3 6.6l-1.9 17.4-13.6-1.6v.1-.1s-1.8-.3-2.7.3c-.5-.1-1-.2-1.3-.4 0 0 .4.3 1 .6h.1c.2.1.5.2.8.3-.5 0-1 0-1.4.1 1.1 0 3 .6 3.3.6v.1c-1.3-.1-3-.5-3-.5.4.3 1 .5 1.7.6-.8-.1-1.6-.1-2 .1 0 0 2.5.3 3 .5l.3-.4-.1 1-.4-.3s-.3-.1-.8-.1c-.3-.3-.6-.5-.6-.5 0 .2.1.3.2.4-.5 0-1.1-.1-1.4 0 0 0 .8.1 1.7.3.2.2.4.3.6.4-.9 0-2.2.1-2.4.3 0 0 1.9.1 3 .2v.1c-1 0-1.9.1-2.3.2.4 0 1.4.1 2.3.2v.3h-.4l.3-.3c-1.5-.3-4-.2-4.7-.1.7 0 3.1.3 4 .5-.4 0-.7.1-1.1.1-.1-.1-.2-.1-.2-.1l.1.1c-.3 0-.5.1-.7.2h.9c.1.2.3.3.4.5-.1.1-.2.1-.3.2-.7 0-1.4.1-1.4.1l1.1.1-.3.3.6-.3 1.1.1h.1c-.6 0-1.3.1-1.7.4-.3-.2-.5-.3-.5-.3.2.4.5.7.9 1-.4.1-.8.1-1 .2 0 0 .7 0 1.4.1.4.2.8.4 1 .4v.2c-.9-.1-2.2-.2-2.2-.2.2.2.8.4 1.4.5-.6-.1-1.3-.2-1.6-.3.4.2 1.3.6 2.3.8v.1l-1.2-.1c-.9-.2-1.9-.4-1.9-.4 0 .1.2.1.4.2l-7.2-.9-.2 1.2 9.4 1.1c.2.1.3.1.4.2l-.1.6h-.2l-.2-.5c-.5.1-3-.3-3-.3.3.2 1.2.5 1.9.6-.7 0-1.3 0-1.8.2 0 0 2 .1 3.2.3v.2l-.1-.1s-2.3.1-3.4-.2c.3.1.6.2 1.1.3-1.6 0-2.7.4-2.7.4.4-.1 1.3 0 2.2.1.7.7 2.5 1 2.5 1l.2-.2-.1.5h-.4l.2-.3c-1.1-.3-3.1 0-3.7 0 .5 0 2.2.2 3 .3-.7 0-1.5.1-1.9.3 0 0 1.9.1 2.5.1-.1 0-.3.1-.5.1-.3.1-.7.2-1 .4-.7 0-1.4.1-1.4.1l1.1.1-.3.3s.1 0 .1-.1c0 0 .2-.1.5-.2l1.2.1.3-.3c-.2-.1-.5-.1-.8-.1.1 0 .1 0 .2-.1.2-.1.5-.1.7-.1l-.1.6c-.6 0-1.5 0-2.1.4-.3-.2-.5-.3-.5-.3.2.4.5.7.9 1-.4.1-.8.1-1 .2 0 0 .7 0 1.4.1.6.3 1.1.5 1.1.5v.2c-.9-.1-2.4-.2-2.4-.2.6.5 3.3.8 3.3.8l12.7 1.5 20.8 2.5-.4 3.9c-8.8-1-16.6 4.5-17.5 12.3-.9 7.8 5.6 15 14.4 16.1 8.8 1 16.7-4.5 17.5-12.3.8-7.6-5.3-14.6-13.7-16l.4-4 18 2.1 16.5 1.9s.5.1 1.1.1h.1c.8 0 1.8.1 2.2-.1 0 0-1.2-.1-2.1-.3v-.2c.2 0 .6-.1 1-.2.7.1.9 0 .5-.2.4-.2.8-.4 1-.7 0 0-.2.1-.6.2-.4-.4-1.6-.8-1.6-.8l1.6.5.1.1c0-.1-.1-.2-.2-.3l1.1.1s-.6-.2-1.3-.4c-.3-.3-.6-.5-.9-.7-.1-.1 2 .2 2 .2-.3-.3-2.2-.9-2.2-.9-.1 0-.1 0-.2-.1 0 0-45.7 8.7 9.4-71.9h7.4c.3 13.3.4 32.7-1.8 40.1 3.1-6.5 10.9-24 13.7-40.1h1.8c1.9 15.1-4.4 52.4-4.4 52.4 4.1-2.8 17-29.8 21.2-43.8 11.8-5.9 4.6 43.4 4.6 43.4 3.1-5.2 14.3-52 14.3-52 2.6 16.9 4.1 56.9 4.1 56.9 5.3-5.3 4.3-41.2 5.6-53.3 1.5 10.3 8.1 43 13.9 49.7 0 0-3.4-33.5-2.3-53.3l1.5 4s10.2 35.4 6 54c1.8-4.9 3.4-21.8 5.4-30 4.8 14.5 6.9 28 18.1 39.4-2.8-3.9-7.2-11.8-8.1-20.5-3.7-25.5 7.1-38.3 9.1-41.4-14.5 39.2 15.5 60.6 41.5 60.3 26.3-.3 49-24.7 49-41.6 0-5.7-2.5-11.1-6.7-15.7.2-3 .5-5.9.8-8.4h6.4l-2.4 2s1.7 8.5 8.4 18.3c-1.4 10.9-3.1 22.2-3.1 22.2 3.4-3.2 6.4-8.6 9.1-14.7 5.3 5.6 12.6 11.1 22.2 15 0 0-2.9-3.3-6.9-8.3 7.5-5.9 11.7-14.9 14-23.2l1.3 15c-4.2 4.5-7.5 7.4-7.5 7.4.3-.1.5-.2.8-.2-1.2 1.2-2 1.8-2 1.8 3-.9 5.9-2 8.5-3.3l-.5 17.8s3.9-10.3 6.7-21.6c6.1-4.3 10.8-9.6 14.3-14.6 2.1-2.8 3.8-5.5 5.2-7.9-.3 9.8-4.7 39-4.7 39 5.8-5.5 10.8-17.6 14.3-28.6.4 12.3.9 38.2-1.4 47.1 11.4-29 8.4-62.1 15.5-60.1-.7 14.5-4.2 70.5-7.8 76.8 0 0 24.6-45.2 30.4-70.3 1.8 6.6 8.1 43.9 9.6 48-3.5-15.6 2.9-47.7 5-57.5h2.5c1 19.8-2.4 52.8-2.4 52.8 5.8-6.7 10.6-41.8 12.2-52.1 1.3 12.1 2.1 50.4 7.3 55.7 0 0 .4-36.6 2.2-56.4h4.1c1.2 3.2 3.2 7.6 6.3 12.3-.1 5.1-.4 29.1 5.8 39.2 0 0 .4-14.9 2.1-29.7 1.5-12.3.7-21.2 6.5-18.1 3.3 9.4 14.6 46.5 17.2 48.2 0 0-6.2-36.4-4.5-51.8h2c2.9 16 10.6 33.2 13.6 39.6-1.4-4.9-1.9-14.9-2-25 1.5 9.6 4 18.9 8.1 23.1 0 0-5.6-35.7 12.1-35.9l2.3.5-3.2 38.6c9-18 9.6-33 12.3-39.1 5.3 5.6 9.4 35.5 19 39.4 0 0-24.1-37.1 8-34.8.3.5.5 1 .8 1.4l-.5 17.2c-4.8 5.2-8.6 8.6-8.6 8.6 3-.9 5.9-2 8.5-3.3l-.5 17.8s3.9-10.3 6.7-21.6c2.1-1.5 4.4-19.8 6.1-21.5 3.1 2.8 11.7-6.9 15.9-4.5-1 7.4-7.3 42.5-7.3 42.5 2.6-2.4 13.3-35.2 15.1-40.7 2.3 13.8.3 63.1-2.2 75 3.4-10.2 11.3-51.9 10.8-77.2h2.8c.3 13.2.2 30.9-1.9 37.9 2.5-5.3 8.3-18.2 11.8-31.6 1.3 12 3.8 25.6 9.1 30.8 0 0-3.2-27.1 2.4-36.4l6.6-.5c.6 2.5 4 28.6 33.5 40.4 0 0-42.9-35.8 9.2-40.4l-1.4 47.4s5.7-45.8 22.1-43.3c-.3 9.8-5.3 38.4-5.3 38.4 2.1-2 11.3-37.3 13.1-40.6l-2.6 38.1c0 23.1 18.8 41.8 42.1 41.8 23.2 0 42.1-18.7 42.1-41.8V6.6h2.4c4 9.3 13.4 24.8 34.1 33.1 0 0-15.9-18.2-23.8-33.1h24.6C894 21.9 901.1 37.8 904 44c-1.4-4.9-1.9-14.9-2-25 1.5 9.6 4 18.9 8.1 23.1 0 0 0-21 1.3-35.4h4.9c.9 3 3.1 9.4 7.9 16.4-1.4 10.9-3.1 22.2-3.1 22.2 3.4-3.2 6.4-8.6 9.1-14.7 5.3 5.6 12.6 11.1 22.2 14.9 0 0-49.6-45.8 2.4-37.2.3.5 5.3 44.1 5.3 44.1s7.1-42.5 8.8-44.1c9.6.3 12.7 39 12.7 39 2.6-2.4 11.3-34 13.1-39.6.4 14.2 2.2 61.9-.2 73.8 3.8-11.4 11.2-52.5 8.3-75.8l5.3.8c.2 12.9 0 29.1-1.9 35.7 2.8-5.9 9.5-20.9 12.8-35.7h3c.6 16.9-4.7 48-4.7 48 4.1-2.8 10.6-22.6 14.8-36.6 2.6 3.2 5.7 6.4 9.3 9.3 1.4 13.9 1.8 26.9 1.8 26.9 3.1-5.2 4.6-14 5.3-22.1 3.1 1.7 6.5 3.2 10.2 4.3 0 0-4.5-4.1-9.9-10 .3-7 .1-12.4.1-12.4l-6.4-7.4h11.5c3.3 12.9 7.5 52.5 7.5 52.5 5.3-5.3 3.7-39.3 4.9-51.3 1.5 10.3 8.7 41.1 14.6 47.7 0 0-2.9-29-2.5-48.9h1.7c1.1 3.9 9.8 36.1 5.9 53.6 1.8-4.9 4.2-12.3 6.2-20.5 1.5 4.6 5.4 13.4 5.7 13.3 5.6 10.5 11.6 16.6 11.6 16.6-2.8-3.9-22-57.8 10.1-55.3 1.2 2.5 2.7 5.3 4.7 8.2-1.4 10.9-3.1 22.2-3.1 22.2 3.4-3.2 6.4-8.6 9.1-14.7 5.3 5.6 12.6 11.1 22.2 15L1150.3 8l10.5 43.9s0-32.6 2.9-43.9c6.1-4.3 11.3 29.7 10.9 23.6-1.5-21.3 11.1-21.3 12.5-23.8-.3 9.8-4.7 39-4.7 39 5.8-5.5 10.8-17.6 14.3-28.6 3.4 4.7 1.9 35.8-1.4 47.1 9.9-17.1 13.8-57.8 13.8-57.8s-1.1 36.6 23 45.4c0 0-12.7-27.8-12.3-46.3h13.9c-2.3 18 5.2 41.8 9.3 53.1-3.8-16.8 4.2-47.4 5.8-53.1h1.9c.4 19.9-2.5 48.4-2.5 48.4 5.8-6.7 8.9-17.1 10.4-27.4 1.3 12.1 3.8 25.7 9.1 31 0 0 0-39.7 3.4-47.4l4.7-4.6c1.1 2.4 2.6 5.1 4.5 7.9-.1 5.1-.4 29.1 5.8 39.2 0 0-4.8-55.5 11.2-44.9v51.7c0 17.4 14.2 31.5 31.7 31.5s31.7-14.1 31.7-31.5V6.6h36.5c-14.4 6.5-24.2 19.6-24.2 34.7 0 21.6 19.9 39 44.5 39s44.5-17.5 44.5-39c0-15.1-9.8-28.3-24.2-34.7h41.7c-1.3 9.3-4.3 19.1-4.3 19.1 3.3-2 5.8-4 7.8-6-3.3 12.6-7.2 23.3-7.2 23.3 10.6-6.4 15.6-18.5 18-28.7.3.5.5 1 .8 1.4L1494 33c-4.8 5.2-8.6 8.6-8.6 8.6 3-.9 5.9-2 8.5-3.3l-.5 17.8s3.9-10.3 6.7-21.6c2.1-1.5 4-3.1 5.8-4.7 1.1 1 2.3 2 3.5 2.9.2 1.5.8 3.7.8 3.7l.4.5 8.7 29.8-20.2 5.6v-.1c-1.7.3-4.4 1.6-5.2 1.9.8-.3 3.5-1 4.6-1.3-.4.2-.8.4-1.1.6h-.2l.1.1c-.3.2-.5.4-.7.5 0 0 .4-.2 1-.3.2.1.5.2.7.3l-.3.3c-.8.3-1.5.7-1.5.7l1.3-.4c-.1.1-.1.3-.2.4l.5-.5 1.2-.3h.1c-.6.3-1.3.6-1.7 1.1-.4-.1-.7-.1-.7-.1.4.3.9.5 1.4.6-.4.2-.8.5-1 .7l1.6-.6h1l.1.3c-1 .3-2.3.6-2.3.6.3.1 1.1 0 1.8-.1-.8.2-1.5.4-1.9.4.4 0 1.5 0 2.6-.1v.1l-1.1.3c-1.1.2-2.3.4-2.3.4h.6l-4.6 1.3.4 1.2 7.2-2h.3l.2.6-.3-.3c-.5.3-3.4 1-3.4 1 .4.1 1.5 0 2.4-.2-.7.3-1.5.6-1.9 1 0 0 1.9-.6 3.4-1v.1c-.6.2-2.5 1.1-3.7 1.2.3 0 .8 0 1.3-.1-1.8.7-2.8 1.5-2.8 1.5.4-.3 1.4-.6 2.4-.9 1.1.4 3-.1 3.2-.1l.1.4c-.1 0-.1.1-.2.1l.1-.4c-1.4.2-3.4 1.3-4 1.6.6-.3 2.5-.7 3.4-1-.8.4-1.6.8-1.9 1.1 0 0 2.1-.7 2.8-.9-.1.1-.3.2-.5.3-.3.2-.7.6-.9.9-.8.3-1.5.7-1.5.7l1.3-.4c-.1.1-.1.3-.2.4 0 0 0-.1.1-.1l.5-.5 1.4-.4.1-.2.1.2c-.7.3-1.5.7-1.9 1.2-.4-.1-.7-.1-.7-.1.4.3.9.5 1.4.6-.4.2-.8.5-1 .7l1.6-.6c.5.1.9 0 1.2 0l.1.2c-1 .3-2.5.7-2.5.7.5.1 1.7-.1 2.6-.3v.1l20.3-5.6 20.7-5.7 1.2 4.2c-9.7 3-15.5 11.9-13.1 20.2 2.5 8.5 12.7 13.2 22.8 10.4 10.1-2.8 16.4-12 13.9-20.5-2.5-8.5-12.6-13.2-22.8-10.4l-1.2-4.2 23.9-6.6 14.6-4v.1s3-.9 3.7-1.5c0 0-1.7.5-2.7.7l-.1-.2s.6-.3 1.2-.7c.8-.2 1.7-.3 1.7-.3-.3-.1-.7-.1-1.2-.1.3-.3.7-.7.8-1.2l-.5.5c-.7-.3-1.8-.1-2.5 0l-.2-.7h1.2c-.4.1-.7.2-.9.3l.4.3 1.4-.4c.4.1.6.2.6.2h.2c-.1-.1-.2-.2-.4-.3l1.3-.3s-.8.1-1.7.2c-.4-.2-.9-.3-1.3-.3h-.6c.7-.2 2.9-.6 2.9-.6-.5-.1-1.4-.1-2.2 0 .9-.3 2.8-.8 3.4-.9-.7 0-3 .2-4.3.7l.3.3c-.2 0-.4 0-.5.1l-.2-.6.3.2s2.1-.6 2.8-1.5c1.1-.3 2.1-.5 2.6-.5 0 0-1.3-.2-3.2.1.5-.2.9-.4 1.2-.6-1.3.6-4 .9-4 .9l-.1.1-.1-.2c1.4-.4 3.7-.9 3.7-.9-.6-.1-1.3 0-2.1.1.9-.3 1.8-.7 2.1-1 0 0-2.9.8-3.5.8l-.2.5c-.1 0-.1 0-.2.1l-.2-.6c.1-.1.3-.2.5-.3l10.9-3-.4-1.2-8.3 2.3c.2-.1.4-.3.5-.3l-2.2.8-1.4.4v-.1c1.1-.5 2.2-1.1 2.6-1.3-.3.2-1.1.4-1.8.6.7-.3 1.3-.6 1.6-.8 0 0-1.5.4-2.6.7l-.1-.2c.2-.1.6-.3 1.1-.7.8-.2 1.7-.3 1.7-.3-.3-.1-.7-.1-1.2-.1.3-.3.7-.7.8-1.2l-.5.5c-.5-.2-1.1-.2-1.6-.1v-.1l.8-.2c.4.1.7.2.7.2-.1-.1-.2-.2-.4-.3l1.3-.3s-.8.1-1.7.2c-.1-.1-.3-.1-.4-.1.2-.2.3-.4.4-.6l1-.2c-.2-.1-.5-.1-.9-.1l.1-.1s-.1.1-.2.1h-.4c0-.1.1-.1.1-.2 1.2-.4 2.9-.8 3.6-.9-.5 0-2 .2-3.4.5v-.1c.2 0 .3-.1.4-.1h-.4c.1-.2.1-.4.2-.5.5-.1.9-.2.9-.2h-.9c.1-.3.2-.6.3-1 .1 0 .2-.1.2-.1h-.2l.3-.9c1.4-4.1 3.3-10 4.8-16.2 6.1-4.3 10.8-9.6 14.3-14.6 2.1-2.8 3.8-5.5 5.2-7.9-.3 9.8-4.7 39-4.7 39 5.8-5.5 10.8-17.6 14.3-28.6.4 12.3.9 38.2-1.4 47.1 3.8-8.9 13.2-58 13.2-58l.6.2s24.1 5.8 10.3 76.4c0 0 12.5-15.6 18.3-40.7 1.8 6.6 3.7 12.4 5.2 16.5-3.8-16.8 4.2-47.4 5.8-53.1h1.9c.4 19.9-2.5 48.4-2.5 48.4 5.8-6.7 8.9-17.1 10.4-27.4 1.3 12.1 3.8 25.7 9.1 31 0 0 0-39.7 3.4-47.4l4.7-4.6c1.1 2.4 2.6 5.1 4.5 7.9-.1 5.1-.4 29.1 5.8 39.2 0 0 .4-14.9 2.1-29.7 3.8 3.8 8.6 7.4 14.4 10.5 3.3 9.4 6.8 17.8 9.3 19.6 0 0-5.2-30.4-4.7-47.5h3.1c3.4 14.6 9.9 29.4 12.7 35.2-1.4-4.9-1.9-14.9-2-25 1.5 9.6 4 18.9 8.1 23.1 0 0 0-19 1.1-33.2h5.8c1.2 3.4 3.4 8.6 7.2 14.2-1.4 10.9-3.1 22.2-3.1 22.2 3.4-3.2 6.4-8.6 9.1-14.7-.1.2 1.3 1.4 1.6 1.6 1.8-5.4 6.2-9.7 10.9-12.9 2.4-1.7 5-3.1 7.7-4.4 1.1-.5 19.9-4.8 17.9-3.9-11.4 5.1-20.2 13.7-20.2 26.8 0 14.3 7.3 31 19.1 39.5 11.9 8.6 27.8 11.8 41.9 7.3 15.7-4.9 28.1-19.4 29.8-35.6s-7.6-33.3-22.7-39.9c7.5-.1 6.7-2 14.2-2.1 12.6 8 12.5 31.9 12.9 47.2 5.1-10.8 5.9-23 5.6-34.9-.1-3.9-.7-8.6-4.3-10.3 7.1 0 17.4 34.3 17 50.2 6.5-8.6 7.9-19.9 9.1-30.6 1 9.7 4.6 19.1 10.3 26.9-1.6-15.5-2.4-31-2.5-46.6 1.1-.1 2.3-.1 3.4-.2 0-2.2 0-4.3.1-6.5 0 .2-110.5 0-120.6 0H662.7c-.3 0-2.5.3-2.7 0H-1.7v6.6H1zm1543.8 96.3h-.2c-1.4.2-2.7-1.4-3-3.5-.3-2 .5-3.7 1.8-4h.2c1.4-.2 2.7 1.4 3 3.5.3 1.9-.5 3.7-1.8 4zm14.6-1.8h-.2c-1.4.2-2.7-1.4-3-3.5-.3-2 .5-3.7 1.8-4h.2c1.4-.2 2.7 1.4 3 3.5.3 2-.5 3.7-1.8 4zm-10.2-14.9 6.1-4.5 7 10.6-6.6-4.7-4.9 5.1-5.7-3.9-6.8 7.3 3.7-11.2 7.2 1.3zm276.2-30.7c-.5 4.7-3.3 8.2-6.3 8.2h-.5c-3.2-.4-5.4-4.7-4.8-9.6.5-4.7 3.3-8.2 6.3-8.2h.5c3.2.5 5.4 4.8 4.8 9.6zm34.2 4.1c-.5 4.7-3.3 8.2-6.3 8.2h-.5c-3.2-.4-5.4-4.7-4.8-9.6.5-4.7 3.3-8.2 6.3-8.2h.5c3.2.4 5.4 4.7 4.8 9.6zm-37-38.2 15.6 6.8 16.4-7 10.2 28-12.4-14.2-14 9-10.8-12-19.5 13 14.5-23.6zm-418.7 30.5c-.5 4.8-3.4 8.5-6.6 8.5h-.5c-3.3-.4-5.6-4.8-5-9.9.5-4.8 3.4-8.5 6.6-8.5h.5c3.3.3 5.6 4.8 5 9.9zm35.5 4.2c-.5 4.8-3.4 8.5-6.6 8.5h-.5c-3.3-.4-5.6-4.8-5-9.9.5-4.8 3.4-8.5 6.6-8.5h.5c3.4.3 5.6 4.8 5 9.9zm-22.3-32.7 17-7.3 10.5 29.1-12.9-14.8-14.5 9.4-11.2-12.4-20.2 13.5 15.2-24.5 16.1 7zM787.4 50.5H833V62h-45.6V50.5zm-481.8-10c-.5 3.4-3.4 5.9-6.6 5.9h-.5c-3.3-.3-5.6-3.4-5-6.9.5-3.4 3.4-5.9 6.6-5.9h.5c3.3.3 5.6 3.4 5 6.9zm35.6 2.9c-.5 3.4-3.4 5.9-6.6 5.9h-.5c-3.3-.3-5.6-3.4-5-6.9.5-3.4 3.4-5.9 6.6-5.9h.5c3.3.3 5.5 3.4 5 6.9zm-38.6-27.5 16.2 4.9 17-5.1 10.5 20.2-12.9-10.3-14.6 6.5-11.2-8.6-20.3 9.4 15.3-17zM111.2 98.1c-.3 1.6-1.3 2.9-2.4 2.8h-.2c-1.1-.2-1.8-1.8-1.5-3.5.3-1.6 1.3-2.9 2.4-2.8h.2c1.2.2 1.8 1.7 1.5 3.5zm12.1 2.1c-.3 1.6-1.3 2.9-2.4 2.8h-.2c-1.1-.2-1.8-1.8-1.5-3.5.3-1.6 1.3-2.9 2.4-2.8h.2c1.1.2 1.8 1.8 1.5 3.5zm-1-13.8 3 10.2-4.1-5.3-5.2 2.9-3.6-4.5-7.2 4.2 5.7-8.1 5.4 2.7 6-2.1zm1188.1-34.7h37.4v13.6h-37.4V51.7z"/></svg>