
<svg width="20px" height="20px" viewBox="0 0 20 20" version="1.1" xmlns="http://www.w3.org/2000/svg" xmlns:xlink="http://www.w3.org/1999/xlink">
    <g id="Logo-&amp;-icons" stroke="none" stroke-width="1" fill="none" fill-rule="evenodd">
        <g id="Icon-Squared-/-Select2" transform="translate(-140.000000, -580.000000)">
            <g id="media-library-assistant" transform="translate(140.000000, 580.000000)">
                <rect id="BG" fill="#1547AB" x="0" y="0" width="20" height="20" rx="2"></rect>
                <path d="M12.7558594,10.2617188 L12.7558594,4.98828125 C12.7558594,4.79296875 12.6826172,4.62207031 12.5361328,4.47558594 C12.3896484,4.32910156 12.2089844,4.25585938 11.9941406,4.25585938 L10.734375,4.25585938 L9.73828125,2.76171875 L6.75,2.76171875 L5.75390625,4.25585938 L4.49414062,4.25585938 C4.29882812,4.25585938 4.12792969,4.32910156 3.98144531,4.47558594 C3.83496094,4.62207031 3.76171875,4.79296875 3.76171875,4.98828125 L3.76171875,10.2617188 C3.76171875,10.4570312 3.83496094,10.6279297 3.98144531,10.7744141 C4.12792969,10.9208984 4.29882812,10.9941406 4.49414062,10.9941406 L11.9941406,10.9941406 C12.2089844,10.9941406 12.3896484,10.9208984 12.5361328,10.7744141 C12.6826172,10.6279297 12.7558594,10.4570312 12.7558594,10.2617188 Z M8.24414062,5.36914062 C8.77148438,5.36914062 9.21582031,5.5546875 9.57714844,5.92578125 C9.93847656,6.296875 10.1191406,6.74121094 10.1191406,7.25878906 C10.1191406,7.77636719 9.93847656,8.21582031 9.57714844,8.57714844 C9.21582031,8.93847656 8.77636719,9.11914062 8.25878906,9.11914062 C7.74121094,9.11914062 7.296875,8.93847656 6.92578125,8.57714844 C6.5546875,8.21582031 6.36914062,7.77636719 6.36914062,7.25878906 C6.36914062,6.74121094 6.5546875,6.296875 6.92578125,5.92578125 C7.296875,5.5546875 7.73632812,5.36914062 8.24414062,5.36914062 Z M13.4882812,6.51171875 L17.2382812,6.51171875 L17.2382812,14.3632812 C17.2382812,14.890625 17.0576172,15.3349609 16.6962891,15.6962891 C16.3349609,16.0576172 15.8955078,16.2382812 15.3779297,16.2382812 C14.8603516,16.2382812 14.4160156,16.0576172 14.0449219,15.6962891 C13.6738281,15.3349609 13.4882812,14.8955078 13.4882812,14.3779297 C13.4882812,13.8603516 13.6738281,13.4160156 14.0449219,13.0449219 C14.4160156,12.6738281 14.8554688,12.4882812 15.3632812,12.4882812 C15.4804688,12.4882812 15.6074219,12.5078125 15.7441406,12.546875 L15.7441406,8.73828125 L13.4882812,8.73828125 L13.4882812,6.51171875 Z M10.5,12.546875 L10.5,11.7558594 L11.9941406,11.7558594 L11.9941406,14.3632812 C11.9941406,14.890625 11.8134766,15.3349609 11.4521484,15.6962891 C11.0908203,16.0576172 10.6513672,16.2382812 10.1337891,16.2382812 C9.61621094,16.2382812 9.171875,16.0576172 8.80078125,15.6962891 C8.4296875,15.3349609 8.24414062,14.8955078 8.24414062,14.3779297 C8.24414062,13.8603516 8.4296875,13.4160156 8.80078125,13.0449219 C9.171875,12.6738281 9.61132812,12.4882812 10.1191406,12.4882812 C10.2363281,12.4882812 10.3632812,12.5078125 10.5,12.546875 Z" id="MLA" fill="#FFFFFF" fill-rule="nonzero"></path>
            </g>
        </g>
    </g>
</svg>