<?xml version="1.0" encoding="iso-8859-1"?>
<!-- Generator: Adobe Illustrator 18.0.0, SVG Export Plug-In . SVG Version: 6.00 Build 0)  -->
<!DOCTYPE svg PUBLIC "-//W3C//DTD SVG 1.1//EN" "http://www.w3.org/Graphics/SVG/1.1/DTD/svg11.dtd">
<svg xmlns="http://www.w3.org/2000/svg" xmlns:xlink="http://www.w3.org/1999/xlink" version="1.1" id="Capa_1" x="0px" y="0px" viewBox="0 0 204.376 204.376" style="enable-background:new 0 0 204.376 204.376;" xml:space="preserve" width="512px" height="512px">
<path d="M171.247,204.376c2.485,0,4.5-2.015,4.5-4.5V61.35h-51.744c-7.502,0-13.605-6.107-13.605-13.614V0H33.13  c-2.485,0-4.5,2.015-4.5,4.5v195.376c0,2.485,2.015,4.5,4.5,4.5H171.247z M52.891,87.627h99.717v80H52.891V87.627z M106.749,143.96  h37.858v15.667h-37.858V143.96z M60.891,119.294h37.858v16.666H60.891V119.294z M60.891,143.96h37.858v15.667H60.891V143.96z   M106.749,95.627h37.858v15.667h-37.858V95.627z M106.749,119.294h37.858v16.666h-37.858V119.294z M60.891,95.627h37.858v15.667  H60.891V95.627z M120.397,47.736v-37.34L164.2,51.35h-40.197C122.014,51.35,120.397,49.729,120.397,47.736z" fill="#21a464"/>
<g>
</g>
<g>
</g>
<g>
</g>
<g>
</g>
<g>
</g>
<g>
</g>
<g>
</g>
<g>
</g>
<g>
</g>
<g>
</g>
<g>
</g>
<g>
</g>
<g>
</g>
<g>
</g>
<g>
</g>
</svg>
