<?xml version="1.0" encoding="utf-8"?>
<!-- Generator: Adobe Illustrator 20.0.0, SVG Export Plug-In . SVG Version: 6.00 Build 0)  -->
<svg version="1.1" id="Capa_1" xmlns="http://www.w3.org/2000/svg" xmlns:xlink="http://www.w3.org/1999/xlink" x="0px" y="0px"
	 viewBox="0 0 512 512" style="enable-background:new 0 0 512 512;" xml:space="preserve">
<style type="text/css">
	.st0{fill:#F5B400;}
</style>
<g>
	<path class="st0" d="M310.6,128.6h100.7L301.6,26v93.5C301.6,124.6,305.7,128.6,310.6,128.6z"/>
	<polygon class="st0" points="279.1,343.1 279.1,312.4 279.1,281.7 279.1,250 155.8,250 155.8,343.1 217.5,343.1 232.9,343.1 	"/>
	<path class="st0" d="M310.6,153.7c-18.8,0-34.1-15.3-34.1-34.1V0H83c-6.2,0-11.3,5-11.3,11.3v489.5c0,6.2,5,11.3,11.3,11.3h346
		c6.2,0,11.3-5,11.3-11.3v-347H310.6z M371.6,404c0,9-7.3,16.3-16.3,16.3H233.8c-9,0-16.3-7.3-16.3-16.3v-30.2h-60.7
		c-9,0-16.3-7.3-16.3-16.3V235.7c0-9,7.3-16.3,16.3-16.3h121.5c9,0,16.3,7.3,16.3,16.3v46h60.7c9,0,16.3,7.3,16.3,16.3V404z"/>
	<path class="st0" d="M294.5,357.5c0,9-7.3,16.3-16.3,16.3h-45.4v15.9h123.3v-77.3h-61.7V357.5z"/>
</g>
</svg>
