<?xml version="1.0" encoding="utf-8"?>
<!-- Generator: Adobe Illustrator 23.0.1, SVG Export Plug-In . SVG Version: 6.00 Build 0)  -->
<svg version="1.1" id="Layer_1" xmlns="http://www.w3.org/2000/svg" xmlns:xlink="http://www.w3.org/1999/xlink" x="0px" y="0px"
	 viewBox="0 0 1125 1125" style="enable-background:new 0 0 1125 1125;" xml:space="preserve">
<style type="text/css">
	.st0{fill:#FFFFFF;}
</style>
<g>
	<path class="st0" d="M511.96,980.51v-105c-79.54-1.04-161.82-19.75-209.82-45.74l32.91-69.65c49.37,24.95,120.68,44.7,197.48,44.7
		c97.37,0,163.19-42.62,163.19-101.88c0-57.18-53.48-92.52-154.96-123.71c-139.88-41.58-226.27-89.4-226.27-179.84
		c0-86.28,80.91-151.77,207.07-167.37V127.04h85.02v100.84c82.28,2.08,138.51,18.71,178.28,36.38l-34.28,68.61
		c-28.8-12.47-85.02-35.34-172.79-35.34c-105.59,0-145.36,47.82-145.36,89.4c0,54.06,50.74,81.08,170.05,118.51
		c141.25,43.66,212.56,97.72,212.56,190.24c0,82.13-75.42,159.05-216.67,176.72v108.11H511.96z"/>
</g>
</svg>
