<?xml version="1.0" encoding="UTF-8" standalone="no"?>
<!DOCTYPE svg PUBLIC "-//W3C//DTD SVG 1.1//EN" "http://www.w3.org/Graphics/SVG/1.1/DTD/svg11.dtd">
<svg width="100%" height="100%" viewBox="0 0 500 500" version="1.1" xmlns="http://www.w3.org/2000/svg" xmlns:xlink="http://www.w3.org/1999/xlink" xml:space="preserve" xmlns:serif="http://www.serif.com/" style="fill-rule:evenodd;clip-rule:evenodd;stroke-linejoin:round;stroke-miterlimit:2;">
    <g transform="matrix(3.32005,0,0,3.32005,-1147.74,-711.155)">
        <rect x="345.7" y="228" width="33.6" height="34"/>
    </g>
    <g transform="matrix(3.32005,0,0,3.32005,-1147.74,-711.155)">
        <rect x="389.5" y="228" width="106.8" height="34"/>
    </g>
    <g transform="matrix(3.32005,0,0,3.32005,-1147.74,-711.155)">
        <rect x="345.7" y="272.5" width="33.6" height="34"/>
    </g>
    <g transform="matrix(3.32005,0,0,3.32005,-1147.74,-711.155)">
        <rect x="389.5" y="272.5" width="106.8" height="34"/>
    </g>
    <g transform="matrix(3.32005,0,0,3.32005,-1147.74,-711.155)">
        <rect x="345.7" y="317" width="33.6" height="34"/>
    </g>
    <g transform="matrix(3.32005,0,0,3.32005,-1147.74,-711.155)">
        <rect x="389.5" y="317" width="106.8" height="34"/>
    </g>
</svg>
