<?xml version="1.0" encoding="UTF-8" standalone="no"?>
<!DOCTYPE svg PUBLIC "-//W3C//DTD SVG 1.1//EN" "http://www.w3.org/Graphics/SVG/1.1/DTD/svg11.dtd">
<svg width="100%" height="100%" viewBox="0 0 500 500" version="1.1" xmlns="http://www.w3.org/2000/svg" xmlns:xlink="http://www.w3.org/1999/xlink" xml:space="preserve" xmlns:serif="http://www.serif.com/" style="fill-rule:evenodd;clip-rule:evenodd;stroke-linejoin:round;stroke-miterlimit:2;">
    <g transform="matrix(1.82158,0,0,0.32694,50.0471,176.827)">
        <rect x="15.936" y="281.541" width="231.076" height="195.219"/>
    </g>
    <g transform="matrix(1.82158,0,0,0.32694,50.0471,260.161)">
        <rect x="15.936" y="281.541" width="231.076" height="195.219"/>
    </g>
    <g transform="matrix(1.82158,0,0,0.32694,50.0471,344.128)">
        <rect x="15.936" y="281.541" width="231.076" height="195.219"/>
    </g>
    <g transform="matrix(1.07977,0,0,1.28061,-17.2713,-361.296)">
        <rect x="15.936" y="281.541" width="231.076" height="195.219" style="fill-opacity:0.4;"/>
    </g>
    <g transform="matrix(0.275666,0,0,0.32694,-4.50861,176.827)">
        <rect x="15.936" y="281.541" width="231.076" height="195.219"/>
    </g>
    <g transform="matrix(0.275666,0,0,0.32694,-4.50861,260.161)">
        <rect x="15.936" y="281.541" width="231.076" height="195.219"/>
    </g>
    <g transform="matrix(0.275666,0,0,0.32694,-4.50861,344.128)">
        <rect x="15.936" y="281.541" width="231.076" height="195.219"/>
    </g>
    <g transform="matrix(0.988982,0,0,0.186969,255.176,-52.6394)">
        <rect x="15.936" y="281.541" width="231.076" height="195.219" style="fill-opacity:0.4;"/>
    </g>
    <g transform="matrix(0.423831,0,0,0.046102,264.726,35.5204)">
        <rect x="15.936" y="281.541" width="231.076" height="195.219" style="fill-opacity:0.4;"/>
    </g>
    <g transform="matrix(0.988938,0,0,0.046102,255.72,58.0204)">
        <rect x="15.936" y="281.541" width="231.076" height="195.219" style="fill-opacity:0.4;"/>
    </g>
    <g transform="matrix(0.988938,0,0,0.046102,255.72,78.0204)">
        <rect x="15.936" y="281.541" width="231.076" height="195.219" style="fill-opacity:0.4;"/>
    </g>
    <g transform="matrix(0.988938,0,0,0.046102,255.72,99.0204)">
        <rect x="15.936" y="281.541" width="231.076" height="195.219" style="fill-opacity:0.4;"/>
    </g>
</svg>
