<svg enable-background="new 0 0 64 64" viewBox="0 0 64 64" xmlns="http://www.w3.org/2000/svg"><path d="m51.9 23.4c.3 1-.2 2.1-1.2 2.5l-19 6.2h-11.9l-2.6-8h24.8c1.1 0 2-.9 2-2v-7h3c-.1 2.1 1.4 3.8 3.5 4z" fill="#e9edf5"/><path d="m41 11c-.5 0-1 .2-1.4.6-.1.1-.2.2-.2.3-.8-.3-1.3-1-1.3-1.9h-22.1c0 1.1-.9 2-2 2v6c1.1 0 2 .9 2 2h22c0-1.1.9-2 2-2v-3.3c.3.2.6.3 1 .3h3v7c0 1.1-.9 2-2 2h-30c-1.1 0-2-.9-2-2v-14c0-1.1.9-2 2-2h30c1.1 0 2 .9 2 2v3z" fill="#7e8596"/><path d="m40 14.7v3.3c-1.1 0-2 .9-2 2h-22c0-1.1-.9-2-2-2v-6c1.1 0 2-.9 2-2h22c0 .8.5 1.6 1.3 1.9-.2.3-.3.7-.3 1.1 0 .7.4 1.4 1 1.7z" fill="#f2f6fc"/><path d="m16 18v-6c1.1 0 2-.9 2-2h-2c0 1.1-.9 2-2 2v6c1.1 0 2 .9 2 2h2c0-1.1-.9-2-2-2z" fill="#dce1eb"/><path d="m44 11v-3c0-1.1-.9-2-2-2h-10l9-5 18 3h4v11h-4s0 4-4 4h-4c-.2 0-.4 0-.5 0-2-.2-3.6-1.9-3.5-3.9h-6c-1.1 0-2-.9-2-2 0-.4.1-.8.3-1.1.1-.1.2-.2.2-.3.5-.5 1-.7 1.5-.7z" fill="#ffcdbe"/><path d="m41 1-9 5h3l8.3-4.6z" fill="#ffbeaa"/><path d="m47 8c0-1.1-.9-2-2-2h-3c1.1 0 2 .9 2 2v3h3zm-5 5c0-.4.1-.8.3-1.1.1-.1.2-.2.2-.3.5-.4 1-.6 1.5-.6h-3c-.5 0-1 .2-1.4.6-.1.1-.2.2-.2.3-.3.3-.4.7-.4 1.1 0 1.1.9 2 2 2h3c-1.1 0-2-.9-2-2zm8 2h-3c-.1 2.1 1.4 3.8 3.5 4h.5 3c-.2 0-.4 0-.5 0-2.1-.2-3.6-2-3.5-4z" fill="#ffbeaa"/><path d="m23.7 42c.2.3.3.6.3 1 0 .7-.3 1.4-.9 1.7l-16.5 12.1-2.5 1.9c-1 .6-2.2.3-2.8-.7-.2-.3-.3-.6-.3-1 0-.7.3-1.4.9-1.7l3.8-2.8 15.3-11.2c.3-.2.6-.3 1-.3.7 0 1.3.4 1.7 1zm27.3 15c0 .4-.1.7-.3 1.1-.6.9-1.8 1.2-2.8.6l-2.5-1.9-16.5-12.1c-.6-.4-1-1-.9-1.7 0-.4.1-.7.3-1 .4-.6 1-1 1.7-1 .4 0 .7.1 1.1.3l15.2 11.1 3.8 2.8c.6.4.9 1.1.9 1.8z" fill="#7e8596"/><path d="m3.3 58c-.2-.3-.3-.6-.3-1 0-.7.3-1.4.9-1.7l3.8-2.8 15.3-11.2h.1c-.4-.2-.7-.3-1.1-.3s-.7.1-1.1.3l-15.1 11.2-3.8 2.8c-.6.4-1 1-.9 1.7 0 .4.1.7.3 1.1.5.9 1.7 1.2 2.6.6-.3-.1-.5-.4-.7-.7zm46.7.7-2.5-1.9-16.6-12.1c-.6-.4-1-1-.9-1.7 0-.4.1-.7.3-1s.4-.5.7-.7c-.9-.5-2.1-.2-2.7.7-.2.3-.3.6-.3 1 0 .7.3 1.4.9 1.7l16.5 12.1 2.6 1.9c.6.4 1.4.4 2 0z" fill="#636978"/><path d="m21 53h10c1.1 0 2 .9 2 2v2c0 1.1-.9 2-2 2h-10c-1.1 0-2-.9-2-2v-2c0-1.1.9-2 2-2z" fill="#ff808c"/><path d="m22 57v-2c0-1.1.9-2 2-2h-3c-1.1 0-2 .9-2 2v2c0 1.1.9 2 2 2h3c-1.1 0-2-.9-2-2z" fill="#f25a6b"/><path d="m51 34v2c0 1.1-.9 2-2 2h-46c-1.1 0-2-.9-2-2v-2c0-1.1.9-2 2-2h46c1.1 0 2 .9 2 2z" fill="#ff808c"/><path d="m4 36v-2c0-1.1.9-2 2-2h-3c-1.1 0-2 .9-2 2v2c0 1.1.9 2 2 2h3c-1.1 0-2-.9-2-2z" fill="#f25a6b"/><path d="m30 41c.4 0 .7.1 1.1.3l15.2 11.1 2.7-14.4h-46l2.8 14.5 15.2-11.2c.3-.2.6-.3 1-.3.7 0 1.3.4 1.7 1 .2.3.3.6.3 1 0 .7-.3 1.4-.9 1.7l-16.5 12.1.4 2.2c0 2.2 1.8 4 4 4h30c2.2 0 4-1.8 4-4l.4-2.2-16.5-12.1c-.6-.4-1-1-.9-1.7 0-.4.1-.7.3-1 .4-.6 1-1 1.7-1zm1 12c1.1 0 2 .9 2 2v2c0 1.1-.9 2-2 2h-10c-1.1 0-2-.9-2-2v-2c0-1.1.9-2 2-2z" fill="#e9edf5"/><path d="m6 38h-3l2.8 14.5 2.6-1.9z" fill="#cdd2e1"/><path d="m6.6 56.8.4 2.2c0 2.2 1.8 4 4 4h3c-2.2 0-4-1.8-4-4l-.8-4.1z" fill="#cdd2e1"/><g fill="none" stroke="#404040" stroke-linejoin="round"><path d="m42 38h-2"/><path d="m38 38h-35c-1.1 0-2-.9-2-2v-2c0-1.1.9-2 2-2h46c1.1 0 2 .9 2 2v2c0 1.1-.9 2-2 2h-5"/><path d="m6.6 56.8.4 2.2c0 2.2 1.8 4 4 4h30c2.2 0 4-1.8 4-4l.4-2.2"/><path d="m49 38-2.8 14.5"/><path d="m5.8 52.5-2.8-14.5"/><path d="m22 41c.7 0 1.3.4 1.7 1 .2.3.3.6.3 1 0 .7-.3 1.4-.9 1.7l-16.5 12.1-2.5 1.9c-1 .6-2.2.3-2.8-.7-.2-.3-.3-.6-.3-1 0-.7.3-1.4.9-1.7l3.8-2.8 15.3-11.2c.3-.2.6-.3 1-.3zm8 0c-.7 0-1.3.4-1.7 1-.2.3-.3.6-.3 1 0 .7.3 1.4.9 1.7l16.5 12.1 2.6 1.9c.9.6 2.2.3 2.8-.6.2-.3.3-.7.2-1 0-.7-.3-1.4-.9-1.7l-3.8-2.8-15.3-11.3c-.3-.2-.6-.3-1-.3z"/><path d="m21 53h10c1.1 0 2 .9 2 2v2c0 1.1-.9 2-2 2h-10c-1.1 0-2-.9-2-2v-2c0-1.1.9-2 2-2z"/><path d="m63 15h-4s0 4-4 4h-4c-.2 0-.4 0-.5 0-2-.2-3.6-1.9-3.5-3.9h-6c-1.1 0-2-.9-2-2 0-.4.1-.8.3-1.1.1-.1.2-.2.2-.3.5-.5 1-.7 1.5-.7h6"/><path d="m32 6 9-5 18 3h4"/><path d="m44 15v7c0 1.1-.9 2-2 2h-30c-1.1 0-2-.9-2-2v-14c0-1.1.9-2 2-2h30c1.1 0 2 .9 2 2v3"/><path d="m55 31 4-4"/><path d="m59 43-4-4"/><path d="m55 35h7"/><path d="m40 14.7v3.3c-1.1 0-2 .9-2 2h-22c0-1.1-.9-2-2-2v-6c1.1 0 2-.9 2-2h22c0 .8.5 1.6 1.3 1.9"/><path d="m19.8 32-2.6-8"/><path d="m50.5 19 1.4 4.4c.3 1-.2 2.1-1.2 2.5l-19 6.1"/></g></svg>