<svg enable-background="new 0 0 64 64" viewBox="0 0 64 64" xmlns="http://www.w3.org/2000/svg"><path d="m43 3v14c0 1.1-.9 2-2 2h-8v4l-4-4h-8c-1.1 0-2-.9-2-2v-14c0-1.1.9-2 2-2h20c1.1 0 2 .9 2 2z" fill="#ff808c"/><path d="m22 17v-14c0-1.1.9-2 2-2h-3c-1.1 0-2 .9-2 2v14c0 1.1.9 2 2 2h3c-1.1 0-2-.9-2-2z" fill="#d6475c"/><path d="m32 19h-3l4 4v-3z" fill="#d6475c"/><path d="m33.3 60c1.1-.2 1.8-1.2 1.6-2.2 0 0 0 0 0-.1-.2-1.1-1.3-1.8-2.3-1.5-1.1.2-1.8 1.2-1.6 2.3.1 1 1.2 1.7 2.3 1.5zm-5.3-1c-.3-1.5.2-3.1 1.2-4.2.7-.8 1.7-1.3 2.8-1.5s2.2-.1 3.1.4c2.4 1.1 3.5 4 2.4 6.5-.7 1.5-2 2.5-3.6 2.8-2.7.4-5.3-1.3-5.9-4z" fill="#707789"/><path d="m34.8 57.7c.2 1.1-.5 2.1-1.5 2.3-1.1.2-2.1-.5-2.3-1.5-.2-1.1.5-2.1 1.6-2.3 1-.2 2 .5 2.2 1.5z" fill="#80dbff"/><path d="m29.2 54.8c-1 1.1-1.5 2.7-1.2 4.2l-2 .4c-.1 0-.3 0-.4 0-.9 0-1.6-.6-1.9-1.4v-.1c-.2-1.1.5-2.1 1.6-2.3l2.7-.6h.2z" fill="#dce1eb"/><path d="m61 51c0 1-.6 1.8-1.6 2l-21.6 4.1c-.3-1.5-1.3-2.8-2.7-3.5l20.6-3.9 2.9-.6c1.2-.1 2.2.7 2.4 1.9z" fill="#dce1eb"/><path d="m25.9 53.4c.2 1 1.1 1.7 2.1 1.5l-2.8.5c-1.1.2-1.8 1.2-1.6 2.3v.1h-2.6l-.8-5h5.5z" fill="#9196aa"/><path d="m20.2 53 .8 5h-4l-8-53h-4c-.5 0-1-.2-1.4-.6s-.6-.9-.6-1.4c0-1.1.9-2 2-2h7z" fill="#dce1eb"/><path d="m49.7 34.9 2.3 11.6-21.6 4.1-2.3-11.6z" fill="#f2f6fc"/><path d="m43.5 24.1 1.5 7.7-13.7 2.6-1.5-7.7z" fill="#ffde91"/><path d="m30.4 50.6 21.6-4.1-2.3-11.5-21.6 4zm-4.6 2.4-4.5-22.6c-.2-1.1.5-2.1 1.6-2.3l6.9-1.3 1.5 7.7 13.7-2.7-1.5-7.7 6.9-1.3c1.1-.2 2.1.5 2.3 1.5l4.6 23.1c.2 1.1-.5 2.1-1.6 2.3l-20.6 3.9c-1-.5-2.1-.6-3.1-.4-1.1.2-2 .7-2.8 1.5l-1 .2-.2.1c-1 .1-1.9-.6-2.1-1.6z" fill="#b2876d"/><path d="m43.5 24.1 1.5 7.7-13.7 2.6-1.5-7.7z" fill="#dce1eb"/><path d="m32.9 28.5-.5-2.3-2.7.5 1.5 7.7 13.8-2.6-.7-3.5-9.1 1.7c-1.1.3-2.1-.4-2.3-1.5z" fill="#cdd2e1"/><path d="m37.1 51.7c-1-.5-2.1-.6-3.1-.4-1.1.2-2 .7-2.8 1.5l-1 .2h-.2c-1 .1-1.9-.6-2.1-1.6l-.1-.4-4.5-22.6c0-.1 0-.2 0-.4l-.4.1c-1.1.2-1.8 1.2-1.6 2.3l4.5 22.6.1.5c.2 1 1.1 1.7 2.1 1.5h.2l1-.2c.7-.8 1.7-1.3 2.8-1.5s2.2-.1 3.1.4l20.6-3.9c.9-.2 1.6-1 1.6-1.9z" fill="#966857"/><path d="m31.6 41.2 15.7-3 .4 2-15.7 3z" fill="#bec3d2"/><path d="m46.1 42.4 2-.4.4 2-2 .4z" fill="#bec3d2"/><path d="m32.4 45 11.8-2.3.4 2-11.8 2.3z" fill="#bec3d2"/><ellipse cx="32.9" cy="58.1" fill="#dce1eb" rx="2" ry="2"/><g fill="none" stroke="#404040" stroke-linejoin="round"><path d="m35.1 53.7 23.6-4.5c1.1-.2 2.2.6 2.4 1.8 0 1-.6 1.8-1.6 2l-21.6 4.1"/><path d="m29.2 54.8-3.9.8c-1.1.2-1.8 1.2-1.6 2.3s1.3 1.8 2.3 1.5l2-.4"/><path d="m55.7 49.8c1.1-.2 1.8-1.2 1.6-2.3l-4.6-23.1c-.2-1.1-1.3-1.8-2.3-1.5l-27.5 5.2c-1.1.2-1.8 1.2-1.6 2.3l4.6 23.1c.2 1.1 1.3 1.8 2.3 1.5"/><path d="m43.5 24.1 1.5 7.7-13.7 2.6-1.5-7.7"/><path d="m30.4 50.6 21.6-4.1-2.3-11.5-21.6 4z"/><path d="m47.5 39.3-15.7 3"/><path d="m48.3 43.2-2 .4"/><path d="m44.3 43.9-11.8 2.2"/><path d="m24 58h-3l-9-57h-7c-1.1 0-2 .9-2 2s.9 2 2 2h4l8 53h4"/><path d="m20 53h6"/><path d="m43 3v14c0 1.1-.9 2-2 2h-8v4l-4-4h-8c-1.1 0-2-.9-2-2v-14c0-1.1.9-2 2-2h20c1.1 0 2 .9 2 2z"/><path d="m27 14 8-8"/><path d="m27 7h2"/><path d="m33 13h2"/><ellipse cx="32.9" cy="58.1" rx="5" ry="4.9"/></g></svg>