<svg width="32" height="32" viewBox="0 0 14 14" fill="currentColor" xmlns="http://www.w3.org/2000/svg"><path class="st0" d="M13.8,1.8H14V0.2h-0.2V0h-1.6v0.2H12v0L11.7,0L11,0.4L10.3,0L9.7,0.4L9,0L8.3,0.4L7.7,0L7,0.4L6.3,0L5.7,0.4
	L5,0L4.3,0.4L3.7,0L3,0.4L2.3,0L2,0.2v0H1.8V0H0.2v0.2H0v1.6h0.2V2h0L0,2.3L0.4,3L0,3.7l0.4,0.7L0,5l0.4,0.7L0,6.3L0.4,7L0,7.7
	l0.4,0.7L0,9l0.4,0.7L0,10.3L0.4,11L0,11.7L0.2,12h0v0.2H0v1.6h0.2V14h1.6v-0.2H2v0L2.3,14L3,13.6L3.7,14l0.7-0.4L5,14l0.7-0.4
	L6.3,14L7,13.6L7.7,14l0.7-0.4L9,14l0.7-0.4l0.7,0.4l0.7-0.4l0.7,0.4l0.3-0.2v0h0.2V14h1.6v-0.2H14v-1.6h-0.2V12h0l0.2-0.3L13.6,11
	l0.4-0.7l-0.4-0.7L14,9l-0.4-0.7L14,7.7L13.6,7L14,6.3l-0.4-0.7L14,5l-0.4-0.7L14,3.7L13.6,3L14,2.3L13.8,2h0V1.8z M12.4,3L12,3.7
	l0.4,0.7L12,5l0.4,0.7L12,6.3L12.4,7L12,7.7l0.4,0.7L12,9l0.4,0.7L12,10.3l0.4,0.7L12,11.7l0.2,0.3h0v0.2H12v0L11.7,12L11,12.4
	L10.3,12l-0.7,0.4L9,12l-0.7,0.4L7.7,12L7,12.4L6.3,12l-0.7,0.4L5,12l-0.7,0.4L3.7,12L3,12.4L2.3,12L2,12.2v0H1.8V12h0L2,11.7
	L1.6,11L2,10.3L1.6,9.7L2,9L1.6,8.3L2,7.7L1.6,7L2,6.3L1.6,5.7L2,5L1.6,4.3L2,3.7L1.6,3L2,2.3L1.8,2h0V1.8H2v0L2.3,2L3,1.6L3.7,2
	l0.7-0.4L5,2l0.7-0.4L6.3,2L7,1.6L7.7,2l0.7-0.4L9,2l0.7-0.4L10.3,2L11,1.6L11.7,2L12,1.8v0h0.2V2h0L12,2.3L12.4,3z"></path></svg>