<?xml version="1.0" encoding="utf-8"?>
<!-- Generator: Adobe Illustrator 16.0.0, SVG Export Plug-In . SVG Version: 6.00 Build 0)  -->
<!DOCTYPE svg PUBLIC "-//W3C//DTD SVG 1.1//EN" "http://www.w3.org/Graphics/SVG/1.1/DTD/svg11.dtd">
<svg version="1.1" stroke="#000" id="Layer_1" xmlns="http://www.w3.org/2000/svg" xmlns:xlink="http://www.w3.org/1999/xlink" x="0px" y="0px" width="800px" height="800px" viewBox="0 0 800 800" enable-background="new 0 0 800 800" xml:space="preserve">
<g>
	<path fill="none" stroke-width="28" stroke-linecap="round" stroke-linejoin="round" stroke-miterlimit="10" d="
		M575.25,373.63h-135.3l17.77,268.42c1,4.2,1.53,8.59,1.53,13.09c0,31.9-26.53,57.75-59.25,57.75c-32.72,0-59.25-25.85-59.25-57.75
		c0-4.06-0.63-8.03,0.19-11.85l0,0l17.86-269.66H224.75V87.11h350.5V373.63z"/>
	
		<line fill="none" stroke-width="12" stroke-linecap="round" stroke-linejoin="round" stroke-miterlimit="10" x1="224.75" y1="302.389" x2="575.25" y2="302.389"/>
	<path fill="none" stroke-width="12" stroke-linecap="round" stroke-linejoin="round" stroke-miterlimit="10" d="
		M232.333,223.823c0,19.399,15.727,35.126,35.126,35.126s35.126-15.727,35.126-35.126v1.066c0-14.911,12.088-27,27-27
		s27,12.089,27,27v-0.819c0,25.543,20.707,46.25,46.25,46.25c25.543,0,46.25-20.707,46.25-46.25l0.5,0.819
		c0-9.665,7.834-17.5,17.5-17.5c9.664,0,17.5,7.835,17.5,17.5v0.8c0,15.279,12.387,27.666,27.666,27.666
		s27.666-12.387,27.666-27.666v-1.619c0-9.757,7.91-17.666,17.668-17.666c9.756,0,17.666,7.909,17.666,17.666"/>
</g>
</svg>
