<?xml version="1.0" encoding="utf-8"?>
<!-- Generator: Adobe Illustrator 16.0.0, SVG Export Plug-In . SVG Version: 6.00 Build 0)  -->
<!DOCTYPE svg PUBLIC "-//W3C//DTD SVG 1.1//EN" "http://www.w3.org/Graphics/SVG/1.1/DTD/svg11.dtd">
<svg version="1.1" stroke="#000" id="Layer_1" xmlns="http://www.w3.org/2000/svg" xmlns:xlink="http://www.w3.org/1999/xlink" x="0px" y="0px" width="800px" height="800px" viewBox="0 0 800 800" enable-background="new 0 0 800 800" xml:space="preserve">
<path fill="none" stroke-width="28" stroke-linecap="round" stroke-linejoin="round" stroke-miterlimit="10" d="
	M263.726,510.082c-66.341-62.999-82.226-167.651-32.619-252.681c57.605-98.742,181.711-133.631,277.197-77.925
	c95.487,55.707,126.196,180.912,68.59,279.654c-12.76,21.872-28.783,40.61-47.034,55.925"/>
<line fill="none" stroke-width="28" stroke-linecap="round" stroke-linejoin="round" stroke-miterlimit="10" x1="271.763" y1="516.441" x2="528.237" y2="516.441"/>
<g>
	<path fill="none" stroke-width="28" stroke-linecap="round" stroke-linejoin="round" stroke-miterlimit="10" d="
		M538.603,523.615v56.299c0,27.5-22.5,50-50,50H311.397c-27.5,0-50-22.5-50-50v-56.299"/>
</g>
<rect x="296.429" y="630.363" fill="none" stroke-width="28" stroke-linecap="round" stroke-linejoin="round" stroke-miterlimit="10" width="207.141" height="73.979"/>
<path fill="none" stroke-width="28" stroke-linecap="round" stroke-linejoin="round" stroke-miterlimit="10" d="
	M296.429,704.343c0,0,84.38,122.761,207.141,0"/>
<path fill="none" stroke-width="28" stroke-linecap="round" stroke-linejoin="round" stroke-miterlimit="10" d="
	M400,215.398"/>
<path fill="none" stroke-width="28" stroke-linecap="round" stroke-linejoin="round" stroke-miterlimit="10" d="
	M289.118,273.353c24.465-37.628,67.305-62.571,116.062-62.571c11.627,0,22.918,1.418,33.703,4.089"/>
<path fill="none" stroke-width="28" stroke-linecap="round" stroke-linejoin="round" stroke-miterlimit="10" d="
	M258.471,374.979c0-19.234,3.186-37.725,9.059-54.972"/>
<line fill="none" stroke-width="18" stroke-linecap="round" stroke-linejoin="round" stroke-miterlimit="10" x1="261.397" y1="573.178" x2="538.603" y2="573.178"/>
<line fill="none" stroke-width="7" stroke-linecap="round" stroke-linejoin="round" stroke-miterlimit="10" x1="400" y1="116.093" x2="400" y2="41.097"/>
<line fill="none" stroke-width="7" stroke-linecap="round" stroke-linejoin="round" stroke-miterlimit="10" x1="169.498" y1="321.594" x2="94.502" y2="321.594"/>
<line fill="none" stroke-width="7" stroke-linecap="round" stroke-linejoin="round" stroke-miterlimit="10" x1="294.749" y1="151.069" x2="257.251" y2="86.121"/>
<line fill="none" stroke-width="7" stroke-linecap="round" stroke-linejoin="round" stroke-miterlimit="10" x1="214.474" y1="227.344" x2="149.526" y2="189.846"/>
<line fill="none" stroke-width="7" stroke-linecap="round" stroke-linejoin="round" stroke-miterlimit="10" x1="521.526" y1="151.069" x2="559.024" y2="86.121"/>
<line fill="none" stroke-width="7" stroke-linecap="round" stroke-linejoin="round" stroke-miterlimit="10" x1="601.801" y1="227.344" x2="666.75" y2="189.846"/>
<line fill="none" stroke-width="7" stroke-linecap="round" stroke-linejoin="round" stroke-miterlimit="10" x1="184.474" y1="419.846" x2="119.526" y2="457.344"/>
<line fill="none" stroke-width="7" stroke-linecap="round" stroke-linejoin="round" stroke-miterlimit="10" x1="621.801" y1="419.846" x2="686.75" y2="457.344"/>
<line fill="none" stroke-width="7" stroke-linecap="round" stroke-linejoin="round" stroke-miterlimit="10" x1="641.502" y1="321.833" x2="716.498" y2="321.833"/>
</svg>
