<?xml version="1.0" encoding="utf-8"?>
<!-- Generator: Adobe Illustrator 16.0.0, SVG Export Plug-In . SVG Version: 6.00 Build 0)  -->
<!DOCTYPE svg PUBLIC "-//W3C//DTD SVG 1.1//EN" "http://www.w3.org/Graphics/SVG/1.1/DTD/svg11.dtd">
<svg version="1.1" stroke="#000" id="Layer_1" xmlns="http://www.w3.org/2000/svg" xmlns:xlink="http://www.w3.org/1999/xlink" x="0px" y="0px" width="800px" height="800px" viewBox="0 0 800 800" enable-background="new 0 0 800 800" xml:space="preserve">
<g>
	<circle fill="none" stroke-width="28" stroke-miterlimit="10" cx="400" cy="400" r="305.617"/>
	<circle fill="none" stroke-width="28" stroke-miterlimit="10" cx="400" cy="400" r="134.27"/>
	<path fill="none" stroke-width="10" stroke-linecap="round" stroke-linejoin="round" stroke-miterlimit="10" d="
		M196.718,320.237c12.174-31.361,31.473-59.908,55.892-83.033c21.24-20.114,46.415-36.125,73.906-46.211"/>
	<path fill="none" stroke-width="10" stroke-linecap="round" stroke-linejoin="round" stroke-miterlimit="10" d="
		M156.149,320.358c12.383-39.158,34.25-75.176,63.136-104.356c29.204-29.502,65.389-51.881,104.9-64.652
		c0.828-0.268,1.658-0.531,2.489-0.791"/>
	<path fill="none" stroke-width="10" stroke-linecap="round" stroke-linejoin="round" stroke-miterlimit="10" d="
		M239.277,320.354c14.635-30.948,37.78-58.093,66.994-76.138c6.571-4.059,13.434-7.646,20.527-10.702"/>
	
		<circle fill="none" stroke-width="10" stroke-linecap="round" stroke-linejoin="round" stroke-miterlimit="10" cx="400" cy="400" r="49.287"/>
	<path fill="none" stroke-width="10" stroke-linecap="round" stroke-linejoin="round" stroke-miterlimit="10" d="
		M611.502,475.954c-12.174,31.36-31.473,59.907-55.893,83.032c-21.24,20.115-46.414,36.126-73.906,46.212"/>
	<path fill="none" stroke-width="10" stroke-linecap="round" stroke-linejoin="round" stroke-miterlimit="10" d="
		M652.071,475.833c-12.383,39.157-34.251,75.176-63.136,104.356c-29.204,29.502-65.389,51.881-104.9,64.651
		c-0.828,0.268-1.657,0.531-2.488,0.79"/>
	<path fill="none" stroke-width="10" stroke-linecap="round" stroke-linejoin="round" stroke-miterlimit="10" d="
		M568.943,475.836c-14.636,30.949-37.78,58.094-66.994,76.139c-6.571,4.059-13.434,7.646-20.527,10.701"/>
</g>
</svg>
