<?xml version="1.0" encoding="utf-8"?>
<!-- Generator: Adobe Illustrator 16.0.0, SVG Export Plug-In . SVG Version: 6.00 Build 0)  -->
<!DOCTYPE svg PUBLIC "-//W3C//DTD SVG 1.1//EN" "http://www.w3.org/Graphics/SVG/1.1/DTD/svg11.dtd">
<svg version="1.1" stroke="#000" id="Layer_1" xmlns="http://www.w3.org/2000/svg" xmlns:xlink="http://www.w3.org/1999/xlink" x="0px" y="0px" width="800px" height="800px" viewBox="0 0 800 800" enable-background="new 0 0 800 800" xml:space="preserve">
<g>
	<g>
		<path fill="none"  stroke-width="28" stroke-linecap="round" stroke-linejoin="round" stroke-miterlimit="10" d="
			M653.336,259.395c0,22-18,40-40,40H186.664c-22,0-40-18-40-40v-45.362c0-22,18-40,40-40h426.672c22,0,40,18,40,40V259.395z"/>
	</g>
	<g>
		<path fill="none"  stroke-width="28" stroke-linecap="round" stroke-linejoin="round" stroke-miterlimit="10" d="
			M191.595,170.261l23.084-61.184c7.767-20.583,32.121-37.425,54.121-37.425h262.4c22,0,46.354,16.841,54.12,37.425l23.085,61.184"
			/>
	</g>
	<g>
		<path fill="none" stroke-width="28" stroke-linecap="round" stroke-linejoin="round" stroke-miterlimit="10" d="
			M592,301.348l-50.573,387.337c-2.849,21.814-23.179,39.663-45.179,39.663H303.752c-22,0-42.331-17.849-45.179-39.663L208,301.348"
			/>
	</g>
	
		<line fill="none"  stroke-width="10" stroke-linecap="round" stroke-linejoin="round" stroke-miterlimit="10" x1="220.847" y1="396.085" x2="579.153" y2="396.085"/>
	
		<line fill="none"  stroke-width="10" stroke-linecap="round" stroke-linejoin="round" stroke-miterlimit="10" x1="252.49" y1="636.84" x2="547.51" y2="636.84"/>
</g>
</svg>
