<?xml version="1.0" encoding="utf-8"?>
<!-- Generator: Adobe Illustrator 16.0.0, SVG Export Plug-In . SVG Version: 6.00 Build 0)  -->
<!DOCTYPE svg PUBLIC "-//W3C//DTD SVG 1.1//EN" "http://www.w3.org/Graphics/SVG/1.1/DTD/svg11.dtd">
<svg version="1.1" stroke="#000" id="Layer_1" xmlns="http://www.w3.org/2000/svg" xmlns:xlink="http://www.w3.org/1999/xlink" x="0px" y="0px" width="800px" height="800px" viewBox="0 0 800 800" enable-background="new 0 0 800 800" xml:space="preserve">
<g>
	<path fill="none" stroke-width="28" stroke-linecap="round" stroke-linejoin="round" stroke-miterlimit="10" d="
		M676.045,449.97l-63.69,268.99h-252.24l-130.22-215.58l-19.76-32.721l-8.09-13.39l0.07-5.3c0-21.8,17.67-39.47,39.46-39.47
		c12.88,0,21.08,6.899,27.91,16.35c2.92,4.04,5.59,8.54,8.27,13.18l0.06,0.101l12.7,19.739l69.6,108.15V226.97
		c0-4.86,0.88-9.51,2.49-13.8c5.59-15,20.03-25.67,36.97-25.67c16.66,0,30.91,10.319,36.701,24.92c1.789,4.5,2.77,9.41,2.77,14.55
		v81h0.07c0-21.8,17.67-39.47,39.47-39.47c21.79,0,39.46,17.67,39.46,39.47v72h0.07c0-21.8,17.67-39.47,39.47-39.47
		c21.79,0,39.46,17.67,39.46,39.47v67.65l0.07,2.35c0-21.8,17.67-39.47,39.47-39.47C658.375,410.5,676.045,428.17,676.045,449.97z"
		/>
	<path fill="none" stroke-width="12" stroke-linecap="round" stroke-linejoin="round" stroke-miterlimit="10" d="
		M486.735,170.93c0,34.39-19.32,64.271-47.69,79.37v-23.33c0-5.14-0.98-10.05-2.77-14.55c-5.791-14.601-20.041-24.92-36.701-24.92
		c-16.94,0-31.38,10.67-36.97,25.67c-1.61,4.29-2.49,8.939-2.49,13.8v26.01c-31.34-14.04-53.16-45.49-53.16-82.05
		c0-49.65,40.24-89.89,89.89-89.89C446.485,81.04,486.735,121.279,486.735,170.93z"/>
	<path fill="none" stroke-width="12" stroke-linecap="round" stroke-linejoin="round" stroke-miterlimit="10" d="
		M454.005,171.979c0,16-6.83,30.4-17.729,40.44c-5.791-14.601-20.041-24.92-36.701-24.92c-16.94,0-31.38,10.67-36.97,25.67
		c-11.39-10.07-18.57-24.79-18.57-41.19c0-30.37,24.62-54.99,54.99-54.99C429.395,116.989,454.005,141.609,454.005,171.979z"/>
	<path fill="none" stroke-width="12" stroke-linecap="round" stroke-linejoin="round" stroke-miterlimit="10" d="
		M303.735,414.93c0,17.2-4.83,33.28-13.22,46.939l-12.7-19.739l-0.06-0.101c-2.68-4.64-5.35-9.14-8.27-13.18
		c-6.83-9.45-15.03-16.35-27.91-16.35c-21.79,0-39.46,17.67-39.46,39.47l-0.07,5.3l8.09,13.39l19.76,32.721
		c-5.21,0.939-10.57,1.43-16.05,1.43c-49.65,0-89.89-40.24-89.89-89.88c0-49.65,40.24-89.89,89.89-89.89
		C263.485,325.04,303.735,365.279,303.735,414.93z"/>
	<path fill="none" stroke-width="12" stroke-linecap="round" stroke-linejoin="round" stroke-miterlimit="10" d="
		M271.005,415.979c0,4.431-0.52,8.74-1.52,12.87c-6.83-9.45-15.03-16.35-27.91-16.35c-21.79,0-39.46,17.67-39.46,39.47l-0.07,5.3
		l8.09,13.39c-27.6-2.939-49.1-26.3-49.1-54.68c0-30.37,24.62-54.99,54.99-54.99S271.005,385.609,271.005,415.979z"/>
</g>
</svg>
