<?xml version="1.0" encoding="utf-8"?>
<!-- Generator: Adobe Illustrator 16.0.0, SVG Export Plug-In . SVG Version: 6.00 Build 0)  -->
<!DOCTYPE svg PUBLIC "-//W3C//DTD SVG 1.1//EN" "http://www.w3.org/Graphics/SVG/1.1/DTD/svg11.dtd">
<svg version="1.1" stroke="#000" id="Layer_1" xmlns="http://www.w3.org/2000/svg" xmlns:xlink="http://www.w3.org/1999/xlink" x="0px" y="0px" width="800px" height="800px" viewBox="0 0 800 800" enable-background="new 0 0 800 800" xml:space="preserve">
<g>
	<path fill="none" stroke-width="28" stroke-linecap="round" stroke-linejoin="round" stroke-miterlimit="10" d="
		M400.521,567.796h301.075c0,0-81.741,119.75-95.241,133.25l0.666,31.741H400"/>
	<path fill="none" stroke-width="28" stroke-linecap="round" stroke-linejoin="round" stroke-miterlimit="10" d="
		M399.479,567.796H98.403c0,0,81.741,119.75,95.241,133.25l-0.666,31.741H400"/>
	<path fill="none" stroke-width="15" stroke-linecap="round" stroke-linejoin="round" stroke-miterlimit="10" d="
		M141.284,556.298c0-142.897,115.841-258.738,258.737-258.738c142.897,0,258.737,115.84,258.737,258.738"/>
	<path fill="none" stroke-width="15" stroke-linecap="round" stroke-linejoin="round" stroke-miterlimit="10" d="
		M187.131,556.298c0-117.576,95.314-212.891,212.891-212.891s212.891,95.314,212.891,212.891"/>
	<path fill="none" stroke-width="15" stroke-linecap="round" stroke-linejoin="round" stroke-miterlimit="10" d="
		M235.308,556.298c0-90.968,73.744-164.714,164.714-164.714c90.969,0,164.715,73.746,164.715,164.714"/>
	<path fill="none" stroke-width="15" stroke-linecap="round" stroke-linejoin="round" stroke-miterlimit="10" d="
		M281.308,556.298c0-65.563,53.149-118.714,118.714-118.714c65.563,0,118.715,53.15,118.715,118.714"/>
	<path fill="none" stroke-width="15" stroke-linecap="round" stroke-linejoin="round" stroke-miterlimit="10" d="
		M323.235,556.298c0-42.408,34.378-76.786,76.786-76.786s76.787,34.378,76.787,76.786"/>
	<path fill="none" stroke-width="15" stroke-linecap="round" stroke-linejoin="round" stroke-miterlimit="10" d="
		M368.235,556.298c0-17.556,14.231-31.786,31.786-31.786c17.556,0,31.787,14.23,31.787,31.786"/>
	<path fill="none" stroke-width="15" stroke-linecap="round" stroke-linejoin="round" stroke-miterlimit="10" d="
		M382.308,67.213c0,0,52.001,27,30.001,99c0,0-16.574,46.5-12.287,93"/>
	<path fill="none" stroke-width="15" stroke-linecap="round" stroke-linejoin="round" stroke-miterlimit="10" d="
		M532.309,143.211c0,0,52,21.938,30,80.438c0,0-16.574,37.782-12.287,75.563"/>
	<path fill="none" stroke-width="15" stroke-linecap="round" stroke-linejoin="round" stroke-miterlimit="10" d="
		M232.309,143.211c0,0,52,21.938,30,80.438c0,0-16.574,37.782-12.287,75.563"/>
	
		<line fill="none" stroke-width="28" stroke-linecap="round" stroke-linejoin="round" stroke-miterlimit="10" x1="400.521" y1="567.796" x2="504.012" y2="567.796"/>
	
		<line fill="none" stroke-width="28" stroke-linecap="round" stroke-linejoin="round" stroke-miterlimit="10" x1="400.521" y1="567.796" x2="658.759" y2="415.213"/>
</g>
</svg>
