<?xml version="1.0" encoding="utf-8"?>
<!-- Generator: Adobe Illustrator 16.0.0, SVG Export Plug-In . SVG Version: 6.00 Build 0)  -->
<!DOCTYPE svg PUBLIC "-//W3C//DTD SVG 1.1//EN" "http://www.w3.org/Graphics/SVG/1.1/DTD/svg11.dtd">
<svg version="1.1" stroke="#000" xmlns="http://www.w3.org/2000/svg" xmlns:xlink="http://www.w3.org/1999/xlink" x="0px" y="0px" width="800px" height="800px" viewBox="0 0 800 800" enable-background="new 0 0 800 800" xml:space="preserve">
<g id="Layer_1" display="none">
	
		<image display="inline" overflow="visible" width="512" height="512"   transform="matrix(1.4144 0 0 1.4144 37.9194 37.9204)">
	</image>
</g>
<g id="Layer_2">
</g>
<g id="Layer_3">
</g>
<g id="Layer_4">
	<g>
		<path fill="none" stroke-width="28" stroke-linecap="round" stroke-linejoin="round" stroke-miterlimit="10" d="
			M128.143,435.547l-42.799-25.082V201.481l83.83,37.782l126.334-37.782c0,0,77.938-16.036,106.275,28.83
			c0,0,38.951-53.575,101.527-30.576l138.143,41.89l73.203-47.385v216.225c0,0-149.947,72.021-197.176,110.985
			c0,0-109.807,100.358-178.287,37.782"/>
		<path fill="none" stroke-width="28" stroke-linecap="round" stroke-linejoin="round" stroke-miterlimit="10" d="
			M401.783,230.311l-80.914,76.447c0,0-28.372,21.542,5.955,54.643c0,0,31.26,45.522,99.742-11.152l35.42-29.517l139.133,148.207"/>
		<g>
			
				<path fill="none" stroke-width="28" stroke-linecap="round" stroke-linejoin="round" stroke-miterlimit="10" d="
				M336.987,562.55c-13.605,23.898-44.29,32.321-68.189,18.716l-125.427-71.402c-23.899-13.605-32.321-44.29-18.716-68.188
				l5.597-9.833c13.605-23.898,44.29-32.321,68.189-18.716l125.427,71.401c23.899,13.605,32.321,44.29,18.716,68.188L336.987,562.55
				z"/>
		</g>
	</g>
</g>
</svg>
