<?xml version="1.0" encoding="utf-8"?>
<!-- Generator: Adobe Illustrator 16.0.0, SVG Export Plug-In . SVG Version: 6.00 Build 0)  -->
<!DOCTYPE svg PUBLIC "-//W3C//DTD SVG 1.1//EN" "http://www.w3.org/Graphics/SVG/1.1/DTD/svg11.dtd">
<svg version="1.1" stroke="#000" id="Layer_1" xmlns="http://www.w3.org/2000/svg" xmlns:xlink="http://www.w3.org/1999/xlink" x="0px" y="0px" width="800px" height="800px" viewBox="0 0 800 800" enable-background="new 0 0 800 800" xml:space="preserve">
<g>
	<path fill="none" stroke-width="28" stroke-linecap="round" stroke-linejoin="round" stroke-miterlimit="10" d="
		M671.281,601.281c0,38.5-31.5,70-70,70H198.719c-38.5,0-70-31.5-70-70V198.719c0-38.5,31.5-70,70-70h402.563c38.5,0,70,31.5,70,70
		V601.281z"/>
</g>
<g>
	<path fill="none" stroke-width="10" stroke-linecap="round" stroke-linejoin="round" stroke-miterlimit="10" d="
		M608.427,453c0,16.5-13.5,30-30,30H221.573c-16.5,0-30-13.5-30-30V220.865c0-16.5,13.5-30,30-30h356.854c16.5,0,30,13.5,30,30V453z
		"/>
</g>
<polyline fill="none" stroke-width="10" stroke-linecap="round" stroke-linejoin="round" stroke-miterlimit="10" points="
	191.573,357.022 336.449,250.281 481.394,483 "/>
<polyline fill="none" stroke-width="10" stroke-linecap="round" stroke-linejoin="round" stroke-miterlimit="10" points="
	422.217,387.988 526.449,310.281 608.427,441.902 "/>
<circle fill="none" stroke-width="10" stroke-linecap="round" stroke-linejoin="round" stroke-miterlimit="10" cx="473.5" cy="258.5" r="29.5"/>
</svg>
