<?xml version="1.0" encoding="utf-8"?>
<!-- Generator: Adobe Illustrator 16.0.0, SVG Export Plug-In . SVG Version: 6.00 Build 0)  -->
<!DOCTYPE svg PUBLIC "-//W3C//DTD SVG 1.1//EN" "http://www.w3.org/Graphics/SVG/1.1/DTD/svg11.dtd">
<svg version="1.1" stroke="#000" xmlns="http://www.w3.org/2000/svg" xmlns:xlink="http://www.w3.org/1999/xlink" x="0px" y="0px" width="800px" height="800px" viewBox="0 0 800 800" enable-background="new 0 0 800 800" xml:space="preserve">
<g id="Layer_1" display="none">
	
		<image display="inline" overflow="visible" opacity="0.6" width="512" height="512"   transform="matrix(1.3836 0 0 1.3836 45.7866 45.7866)">
	</image>
	<path display="inline" fill="none" stroke-width="28" stroke-miterlimit="10" d="M132,340.5"/>
	<path display="inline" fill="none" stroke-width="28" stroke-miterlimit="10" d="M146.233,433.616"/>
	<path display="inline" fill="none" stroke-width="28" stroke-miterlimit="10" d="M166.179,481.854"/>
</g>
<g id="Layer_2">
	<path fill="none" stroke-width="28" stroke-linecap="round" stroke-linejoin="round" stroke-miterlimit="10" d="
		M276,662.5c0,0-47.137,81.5,100.542,81.5l308.293-6c0,0-77.467-111.728-68.72-136.75"/>
	<path fill="none" stroke-width="28" stroke-linecap="round" stroke-linejoin="round" stroke-miterlimit="10" d="
		M617.464,599c40.7-51.59,82.104-148.968,82.104-228c0-171.208-123.013-310-285.837-310c-152.366,0-280.568,132.227-269.909,279.5
		c0.731,10.108,2.118,20.288,4.194,30.5c0,0,9.701,44.001-34.494,118.668c0,0-44.196,54.666,29.823,27.999
		c0,0,32.005-15.999,7.02,20.667c0,0-45.107,39.334,7.353,44c0,0,33.057-7.334,4.312,43.333c0,0-26.949,31.333,109.951,34.333"/>
</g>
<g id="Layer_3">
	<path fill="none" stroke-width="28" stroke-linecap="round" stroke-linejoin="round" stroke-miterlimit="10" d="
		M351.333,252.333c0,0,10.001-45.333,66.667-44c0,0,67-5,73,65.167c0,0,8.5,26.5-35,75.5c0,0-40,32-51,51s-9,43.667-9,53"/>
	
		<line fill="none" stroke-width="28" stroke-linecap="round" stroke-linejoin="round" stroke-miterlimit="10" x1="396" y1="491" x2="396" y2="515.5"/>
</g>
</svg>
