<?xml version="1.0" encoding="utf-8"?>
<!-- Generator: Adobe Illustrator 16.0.0, SVG Export Plug-In . SVG Version: 6.00 Build 0)  -->
<!DOCTYPE svg PUBLIC "-//W3C//DTD SVG 1.1//EN" "http://www.w3.org/Graphics/SVG/1.1/DTD/svg11.dtd">
<svg version="1.1" stroke="#000" id="Layer_1" xmlns="http://www.w3.org/2000/svg" xmlns:xlink="http://www.w3.org/1999/xlink" x="0px" y="0px" width="800px" height="800px" viewBox="0 0 800 800" enable-background="new 0 0 800 800" xml:space="preserve">
<g>
	<g>
		<path fill="none" stroke-width="28" stroke-linecap="round" stroke-linejoin="round" stroke-miterlimit="10" d="
			M428.234,494.198v152.88c0,22-18,40-40,40H143.516c-22,0-40-18-40-40V152.922c0-22,18-40,40-40h244.719c22,0,40,18,40,40v95.842"
			/>
	</g>
	<path fill="none" stroke-width="28" stroke-miterlimit="10" d="M696.484,360.73
		c0,67.329-86.029,121.909-192.141,121.909c-11.119,0-22.02-0.6-32.629-1.75l-141.53,43.32l61.58-64.68
		c-48.2-22.15-79.55-58.15-79.55-98.8c0-67.33,86.021-121.91,192.129-121.91C610.455,238.82,696.484,293.4,696.484,360.73z"/>
	
		<line fill="none" stroke-width="12" stroke-linecap="round" stroke-linejoin="round" stroke-miterlimit="10" x1="103.516" y1="215.449" x2="428.234" y2="215.449"/>
	
		<line fill="none" stroke-width="12" stroke-linecap="round" stroke-linejoin="round" stroke-miterlimit="10" x1="108.841" y1="588.596" x2="428.234" y2="588.596"/>
	
		<line fill="none" stroke-width="12" stroke-linecap="round" stroke-linejoin="round" stroke-miterlimit="10" x1="236.065" y1="169.888" x2="305.729" y2="169.888"/>
	
		<rect x="236.065" y="625.562" fill="none" stroke-width="12" stroke-linecap="round" stroke-linejoin="round" stroke-miterlimit="10" width="69.663" height="17.978"/>
</g>
</svg>
