<?xml version="1.0" encoding="utf-8"?>
<!-- Generator: Adobe Illustrator 16.0.0, SVG Export Plug-In . SVG Version: 6.00 Build 0)  -->
<!DOCTYPE svg PUBLIC "-//W3C//DTD SVG 1.1//EN" "http://www.w3.org/Graphics/SVG/1.1/DTD/svg11.dtd">
<svg version="1.1" stroke="#000" id="Layer_1" xmlns="http://www.w3.org/2000/svg" xmlns:xlink="http://www.w3.org/1999/xlink" x="0px" y="0px"
	 width="800px" height="800px" viewBox="0 0 800 800" enable-background="new 0 0 800 800" xml:space="preserve">
<g>
	<g>
		<path fill="none" stroke-width="28" stroke-linecap="round" stroke-linejoin="round" stroke-miterlimit="10" d="
			M691.573,270.478v351.096c0,38.5-31.5,70-70,70H178.427c-38.5,0-70-31.5-70-70V178.427c0-38.5,31.5-70,70-70h354.214"/>
	</g>
	
		<line fill="none" stroke-width="28" stroke-linecap="round" stroke-linejoin="round" stroke-miterlimit="10" x1="533.696" y1="108.449" x2="691.562" y2="266.314"/>
	
		<polyline fill="none" stroke-width="20" stroke-linecap="round" stroke-linejoin="round" stroke-miterlimit="10" points="
		692.629,280 529.696,280 529.696,115.449 	"/>
	
		<rect x="182.602" y="187.382" fill="none" stroke-width="28" stroke-linecap="round" stroke-linejoin="round" stroke-miterlimit="10" width="191.99" height="212.618"/>
	
		<line fill="none" stroke-width="20" stroke-linecap="round" stroke-linejoin="round" stroke-miterlimit="10" x1="419.09" y1="183.382" x2="465.666" y2="183.382"/>
	
		<line fill="none" stroke-width="20" stroke-linecap="round" stroke-linejoin="round" stroke-miterlimit="10" x1="419.09" y1="281.382" x2="465.666" y2="281.382"/>
	
		<line fill="none" stroke-width="20" stroke-linecap="round" stroke-linejoin="round" stroke-miterlimit="10" x1="419.09" y1="380.382" x2="629.667" y2="380.382"/>
	
		<line fill="none" stroke-width="20" stroke-linecap="round" stroke-linejoin="round" stroke-miterlimit="10" x1="173.883" y1="480.382" x2="629.667" y2="480.382"/>
	
		<line fill="none" stroke-width="20" stroke-linecap="round" stroke-linejoin="round" stroke-miterlimit="10" x1="173.883" y1="580.382" x2="629.667" y2="580.382"/>
</g>
</svg>
