<?xml version="1.0" encoding="utf-8"?>
<!-- Generator: Adobe Illustrator 16.0.0, SVG Export Plug-In . SVG Version: 6.00 Build 0)  -->
<!DOCTYPE svg PUBLIC "-//W3C//DTD SVG 1.1//EN" "http://www.w3.org/Graphics/SVG/1.1/DTD/svg11.dtd">
<svg version="1.1" stroke="#000" id="Layer_1" xmlns="http://www.w3.org/2000/svg" xmlns:xlink="http://www.w3.org/1999/xlink" x="0px" y="0px" width="800px" height="800px" viewBox="0 0 800 800" enable-background="new 0 0 800 800" xml:space="preserve">
<g>
	<g>
		<path fill="none" stroke-width="28" stroke-linecap="round" stroke-linejoin="round" stroke-miterlimit="10" d="
			M400,562.36"/>
	</g>
	<g>
		<path fill="none" stroke-width="28" stroke-linecap="round" stroke-linejoin="round" stroke-miterlimit="10" d="
			M130.148,472.473V169.551c0-33,27-60,60-60h419.703c33,0,60,27,60,60v302.922"/>
	</g>
	<path fill="none" stroke-width="28" stroke-linecap="round" stroke-linejoin="round" stroke-miterlimit="10" d="
		M464.04,109.55v110.07C448.05,202.5,425.28,191.8,400,191.8c-25.28,0-48.05,10.7-64.04,27.82V109.55H464.04z"/>
	<path fill="none" stroke-width="28" stroke-linecap="round" stroke-linejoin="round" stroke-miterlimit="10" d="
		M487.64,279.44c0,48.399-39.239,87.64-87.64,87.64c-48.399,0-87.64-39.24-87.64-87.64c0-23.12,8.96-44.16,23.6-59.82
		c15.99-17.12,38.761-27.82,64.04-27.82c25.28,0,48.05,10.7,64.04,27.82C478.68,235.28,487.64,256.32,487.64,279.44z"/>
	<g>
		<path fill="none" stroke-width="28" stroke-linecap="round" stroke-linejoin="round" stroke-miterlimit="10" d="
			M737.641,650.45c0,22-18,40-40,40H102.359c-22,0-40-18-40-40V512.473c0-22,18-40,40-40h595.281c22,0,40,18,40,40V650.45z"/>
	</g>
	
		<line fill="none" stroke-width="12" stroke-linecap="round" stroke-linejoin="round" stroke-miterlimit="10" x1="131" y1="610.45" x2="669" y2="610.45"/>
	
		<circle fill="none" stroke-width="12" stroke-linecap="round" stroke-linejoin="round" stroke-miterlimit="10" cx="222.667" cy="175.783" r="21"/>
	
		<circle fill="none" stroke-width="12" stroke-linecap="round" stroke-linejoin="round" stroke-miterlimit="10" cx="431.333" cy="252.783" r="18.333"/>
</g>
</svg>
