<?xml version="1.0" encoding="utf-8"?>
<!-- Generator: Adobe Illustrator 16.0.0, SVG Export Plug-In . SVG Version: 6.00 Build 0)  -->
<!DOCTYPE svg PUBLIC "-//W3C//DTD SVG 1.1//EN" "http://www.w3.org/Graphics/SVG/1.1/DTD/svg11.dtd">
<svg version="1.1" stroke="#000" id="Layer_1" xmlns="http://www.w3.org/2000/svg" xmlns:xlink="http://www.w3.org/1999/xlink" x="0px" y="0px"
	 width="800px" height="800px" viewBox="0 0 800 800" enable-background="new 0 0 800 800" xml:space="preserve">
<g id="Layer_2" display="none">
</g>
<g>
	<path fill="none" stroke-width="4" stroke-miterlimit="10" d="M130,319c0,29,1.082,54.086,3.25,75.25c0,1.5,1.082,11.711,3.25,30.625c2.164,18.918,3.25,30.711,3.25,35.375
		s-1.293,9.039-3.875,13.125c-2.586,4.082-6.293,6.125-11.125,6.125c-12,0-24.711-5.875-38.125-17.625
		c-13.418-11.75-24.668-26.664-33.75-44.75C43.789,399.043,39.25,381.75,39.25,365.25c0-21.332,3.75-40.5,11.25-57.5
		S69.582,277,85.25,266.5c15.664-10.5,34.332-15.75,56-15.75c20.832,0,36.25,9.168,46.25,27.5c5,9,7.5,18.211,7.5,27.625
		c0,9.418-1.043,18.543-3.125,27.375c-2.086,8.836-4.875,16.461-8.375,22.875c-3.5,6.418-7.043,12.211-10.625,17.375
		c-3.586,5.168-7.375,9.586-11.375,13.25c-6.836,6.168-11.293,9.836-13.375,11c-2.086,1.168-3.711,1.75-4.875,1.75
		c-2.836,0-4.25-1.75-4.25-5.25c0-1.832,1.25-3.332,3.75-4.5c19.832-14,29.75-31.75,29.75-53.25c0-11-1.75-20.582-5.25-28.75
		c-3.5-8.164-7.25-14.539-11.25-19.125c-4-4.582-9.375-8.414-16.125-11.5c-6.75-3.082-14.375-4.625-22.875-4.625
		c-20,0-35.711,7.211-47.125,21.625C58.457,308.543,52.75,326.168,52.75,347c0,14.836,3.75,30,11.25,45.5
		s16.789,28.211,27.875,38.125c11.082,9.918,21.707,14.875,31.875,14.875c2.164,0,3.5-2.25,4-6.75
		c-0.168-3.332-1.086-10.414-2.75-21.25c-3.836-26.832-5.75-57.914-5.75-93.25c0-3.332,0.789-6.164,2.375-8.5
		c1.582-2.332,3.875-3.5,6.875-3.5C129.5,312.25,130,314.5,130,319z"/>
	<path fill="none" stroke-width="4" stroke-miterlimit="10" d="M224.999,421.5c0.5,1.5,1.125,2.25,1.875,2.25s2.039-0.457,3.875-1.375c1.832-0.914,3.414-1.375,4.75-1.375
		c1.332,0,2,0.836,2,2.5c0,1.668-1.793,4.418-5.375,8.25c-3.586,3.836-6.625,5.75-9.125,5.75c-3.5,9.5-9.293,18.293-17.375,26.375
		C197.538,471.957,189.249,476,180.749,476c-6,0-11-1.961-15-5.875c-4-3.918-6-9.664-6-17.25c0-7.582,3.164-15.832,9.5-24.75
		c6.332-8.914,12.832-13.375,19.5-13.375v-1c0-3.664,1.25-6.625,3.75-8.875s5.582-3.375,9.25-3.375
		C213.081,401.5,220.831,408.168,224.999,421.5z M215.249,438.25c-7.836,0-14-2-18.5-6s-7.086-9.082-7.75-15.25
		c-2.668,2-4,5.711-4,11.125c0,5.418,1.539,10.168,4.625,14.25c3.082,4.086,6.914,6.125,11.5,6.125c4.582,0,8.082-1.164,10.5-3.5
		C214.038,442.668,215.249,440.418,215.249,438.25z"/>
	<path fill="none" stroke-width="4" stroke-miterlimit="10" d="M290.25,448.5c1.332,0,3.5-1,6.5-3s5.414-4,7.25-6l2.75-2.75c1.164-1.164,2.332-1.75,3.5-1.75c2,0,3,1.168,3,3.5
		c0,0.836-0.086,1.5-0.25,2c-4.336,10.5-12.336,18.961-24,25.375c-11.668,6.414-22.086,9.625-31.25,9.625
		c-17.836,0-26.75-7-26.75-21c0-1.832,2.164-4.75,6.5-8.75c4.332-4,7.5-6.5,9.5-7.5c1.332-1,2.375-1.5,3.125-1.5
		s1.375,0.336,1.875,1c0.5,0.668,1.082,1.5,1.75,2.5c0.664,1,1.25,1.836,1.75,2.5c0.5,0.668,1.164,1.586,2,2.75
		c0.832,1.168,1.707,2.125,2.625,2.875c0.914,0.75,1.957,1.461,3.125,2.125c2.164,1.668,4.457,2.5,6.875,2.5
		c2.414,0,3.625-1.414,3.625-4.25c0-7-2.586-13.039-7.75-18.125c-5.168-5.082-9.5-7.625-13-7.625c-0.836,0-1.668,0.5-2.5,1.5
		l-9.25,9.25c-1.5,1.5-2.586,2.25-3.25,2.25c-2.5,0-3.75-1.082-3.75-3.25C252.082,410.918,262.664,400,266,400
		c4.664,0,10,3.168,16,9.5c6,6.336,9,12.668,9,19c0,6-0.461,10.586-1.375,13.75c-0.918,3.168-1.375,5-1.375,5.5
		S288.914,448.5,290.25,448.5z"/>
	<path fill="none" stroke-width="4" stroke-miterlimit="10" d="M360.246,441.25c1.664-1.332,3.164-2,4.5-2c2.332,0,3.5,1.5,3.5,4.5c0,4.168-5.168,10.375-15.5,18.625
		c-10.336,8.25-19.25,12.375-26.75,12.375c-7.5,0-13.336-2.668-17.5-8c-4.168-5.332-6.25-12.207-6.25-20.625
		c0-8.414,1.414-16.539,4.25-24.375c2.832-7.832,5.664-11.75,8.5-11.75c1.332,0.168,2,2.211,2,6.125
		c0,3.918,0.582,8.211,1.75,12.875c1.164,4.668,3.707,9.125,7.625,13.375c3.914,4.25,9,6.375,15.25,6.375
		S354.078,446.25,360.246,441.25z M308.372,386.75c-2.586-2.832-3.875-6.332-3.875-10.5c0-4.164,1.289-7.664,3.875-10.5
		c2.582-2.832,5.789-4.25,9.625-4.25c3.832,0,7.039,1.418,9.625,4.25c2.582,2.836,3.875,6.336,3.875,10.5
		c0,4.168-1.293,7.668-3.875,10.5c-2.586,2.836-5.793,4.25-9.625,4.25C314.161,391,310.954,389.586,308.372,386.75z"/>
	<path fill="none" stroke-width="4" stroke-miterlimit="10" d="M417.995,457c0-7.164-0.793-10.75-2.375-10.75c-1.586,0-3.75,2.086-6.5,6.25c-2.75,4.168-5.711,8.375-8.875,12.625
		c-3.168,4.25-6.086,6.375-8.75,6.375c-1.5,0-3.793-2.668-6.875-8c-3.086-5.332-6.461-10.625-10.125-15.875
		c-3.668-5.25-6.918-7.875-9.75-7.875c-0.836,0-1.25-0.414-1.25-1.25c0-2.664,3.164-7.5,9.5-14.5c6.332-7,10.875-10.5,13.625-10.5
		s6.832,4.336,12.25,13c5.414,8.668,9.039,13,10.875,13c1.832,0,5.539-3.414,11.125-10.25c5.582-6.832,10-10.25,13.25-10.25
		s5.664,1.293,7.25,3.875c1.582,2.586,2.5,5.375,2.75,8.375s0.539,5.793,0.875,8.375c0.332,2.586,1,3.875,2,3.875
		c1.664,0,5.957-4.125,12.875-12.375c6.914-8.25,11.957-12.375,15.125-12.375c3.5,0,9.332,5.25,17.5,15.75
		c3,4,6.789,7.625,11.375,10.875c4.582,3.25,8.375,4.875,11.375,4.875s5.914-0.5,8.75-1.5c2.832-1,5.25-1.5,7.25-1.5s3,0.668,3,2
		c0,0.668-0.293,1.25-0.875,1.75c-0.586,0.5-2,1.793-4.25,3.875c-2.25,2.086-4.086,3.711-5.5,4.875
		c-1.418,1.168-3.418,2.793-6,4.875c-2.586,2.082-4.793,3.707-6.625,4.875c-5,3-9.711,4.5-14.125,4.5
		c-4.418,0-9.336-2.461-14.75-7.375c-5.418-4.914-10.086-9.832-14-14.75c-3.918-4.914-6.793-7.375-8.625-7.375
		c-1.836,0-4.793,2.5-8.875,7.5c-4.086,5-8.25,10-12.5,15s-7.918,7.5-11,7.5c-3.086,0-5.418-1.418-7-4.25
		c-1.586-2.836-2.375-5.914-2.375-9.25L417.995,457z"/>
	<path fill="none" stroke-width="4" stroke-miterlimit="10" d="M542.742,409.75l-1,10c0,7.168,2.375,13.211,7.125,18.125c4.75,4.918,10.539,7.461,17.375,7.625
		c4.164-0.164,8.039-1.375,11.625-3.625c3.582-2.25,6.125-4.375,7.625-6.375l2-3.25c0.164-5.664,1-10.414,2.5-14.25
		c2.332-6.5,5.082-9.75,8.25-9.75h0.75c1.832,0.668,2.75,3.336,2.75,8c0,2-1.918,5.918-5.75,11.75l-2,3.25
		c0,12.836,0.082,22.336,0.25,28.5c9.664-9.164,16.832-16.664,21.5-22.5c2.164-1.664,3.875-2.5,5.125-2.5s1.875,0.625,1.875,1.875
		s-1.086,2.793-3.25,4.625c-5,4-13.336,12.418-25,25.25l0.75,38.25c0,20.664-1.418,36.332-4.25,47c-2.836,10.664-8.168,16-16,16
		c-6.336,0-11.586-3.25-15.75-9.75c-4.168-6.5-6.25-13.586-6.25-21.25c0-14.668,3.039-27.375,9.125-38.125
		c6.082-10.75,14.707-21.625,25.875-32.625c-0.336-12-0.5-18.582-0.5-19.75c0-1.164-0.461-1.75-1.375-1.75
		c-0.918,0-1.961,0.836-3.125,2.5c-5.836,6.168-10.086,10.5-12.75,13c-7.168,7-14.375,10.5-21.625,10.5s-13-2.418-17.25-7.25
		s-6.375-11.707-6.375-20.625c0-8.914,1.707-17.082,5.125-24.5c3.414-7.414,6.625-11.125,9.625-11.125
		C541.742,407,542.742,407.918,542.742,409.75z M582.242,539.5c4,0,6-16.5,6-49.5c0-7-0.086-12.168-0.25-15.5
		c-10.5,14.164-15.75,26.914-15.75,38.25c0,6.5,0.789,12.582,2.375,18.25C576.199,536.664,578.742,539.5,582.242,539.5z"/>
	<path fill="none" stroke-width="4" stroke-miterlimit="10" d="M566.242,387.75c0-3.332,2.668-5.832,8-7.5c8.168-3.5,21.5-8.914,40-16.25c3.332-25.332,8.332-38,15-38
		c4.332,0,6.5,6.918,6.5,20.75c0,4-0.086,7-0.25,9c25.332-9.664,42.332-15.582,51-17.75c8.664-2.164,15.582-3.25,20.75-3.25
		c7.832,0,11.75,2.836,11.75,8.5c0,1.836-1.168,3.336-3.5,4.5c-10.336,5.168-16.75,7.75-19.25,7.75c-0.5,0-1.336-0.375-2.5-1.125
		c-1.168-0.75-2.5-1.125-4-1.125s-4.586,0.586-9.25,1.75c-9.5,2.5-25.086,7.336-46.75,14.5c-2,13-4.918,22.336-8.75,28
		c0.664,19,3.164,31.836,7.5,38.5c2,3.168,4.875,5.918,8.625,8.25c3.75,2.336,8.375,3.5,13.875,3.5s10.914-2.5,16.25-7.5
		c1-1,1.832-1.5,2.5-1.5c1.332,0,2,1.086,2,3.25c0,7-4.668,14.043-14,21.125c-9.336,7.082-18.25,10.625-26.75,10.625
		c-16.836,0-25.25-13.664-25.25-41c0-17.164,1-35.664,3-55.5c-13.832,5.336-24.039,9.668-30.625,13c-6.582,3.336-10.457,5-11.625,5
		c-1.164,0-2.164-0.832-3-2.5C566.66,391.086,566.242,389.418,566.242,387.75z"/>
	<path fill="none" stroke-width="4" stroke-miterlimit="10" d="M680.239,452.25c1.664,0,6.5-5.5,14.5-16.5s13.082-16.539,15.25-16.625c2.164-0.082,4.332,1.711,6.5,5.375
		c2.164,3.668,4.289,7.711,6.375,12.125c2.082,4.418,5.457,8.5,10.125,12.25c4.664,3.75,9.332,5.625,14,5.625
		c4.664,0,7.5-0.332,8.5-1c1-0.664,1.789-1,2.375-1c0.582,0,0.875,0.668,0.875,2c-0.168,3.336-2.836,7.375-8,12.125
		c-5.168,4.75-12,7.125-20.5,7.125c-14.336,0-24.336-8.25-30-24.75c-0.5-1-0.961-1.5-1.375-1.5c-0.418,0-1.043,0.336-1.875,1
		c-0.836,0.668-2.586,2.586-5.25,5.75c-2.668,3.168-5.375,6.418-8.125,9.75s-4.461,5.332-5.125,6c-0.668,0.664-1.918,1-3.75,1
		c-1.836,0-2.836-1-3-3c-1.5-15-2.25-30.707-2.25-47.125c0-16.414,0.207-29.125,0.625-38.125c0.414-9,1.289-20.582,2.625-34.75
		c1.332-14.164,3.707-25.75,7.125-34.75c3.414-9,7.707-13.5,12.875-13.5c10.832,0,16.25,7.586,16.25,22.75
		c0,13-3.5,29.375-10.5,49.125S684.739,407,678.239,418.5C678.903,441,679.571,452.25,680.239,452.25z M687.989,322.75
		c-6.836,0-10.25,22.586-10.25,67.75v15c4.332-11,8.375-23.164,12.125-36.5c3.75-13.332,5.625-24.375,5.625-33.125
		S692.989,322.75,687.989,322.75z"/>
</g>
</svg>
