<?xml version="1.0" encoding="utf-8"?>
<!-- Generator: Adobe Illustrator 16.0.0, SVG Export Plug-In . SVG Version: 6.00 Build 0)  -->
<!DOCTYPE svg PUBLIC "-//W3C//DTD SVG 1.1//EN" "http://www.w3.org/Graphics/SVG/1.1/DTD/svg11.dtd">
<svg version="1.1" stroke="#000" id="Layer_1" xmlns="http://www.w3.org/2000/svg" xmlns:xlink="http://www.w3.org/1999/xlink" x="0px" y="0px" width="800px" height="800px" viewBox="0 0 800 800" enable-background="new 0 0 800 800" xml:space="preserve">
<g>
	
		<line fill="none" stroke-width="12" stroke-linecap="round" stroke-linejoin="round" stroke-miterlimit="10" x1="318.205" y1="540.747" x2="280.249" y2="578.703"/>
	
		<line fill="none" stroke-width="12" stroke-linecap="round" stroke-linejoin="round" stroke-miterlimit="10" x1="258.475" y1="481.016" x2="220.518" y2="518.973"/>
	<path fill="none" stroke-width="28" stroke-linecap="round" stroke-linejoin="round" stroke-miterlimit="10" d="
		M135.129,537.228l127.119,127.119l0,0c28.74-28.74,23.583-80.496-11.52-115.6C215.626,513.645,163.869,508.487,135.129,537.228"/>
	
		<line fill="none" stroke-width="12" stroke-linecap="round" stroke-linejoin="round" stroke-miterlimit="10" x1="197.775" y1="601.7" x2="146.252" y2="653.224"/>
	
		<rect x="307.835" y="247.258" transform="matrix(-0.7071 -0.7071 0.7071 -0.7071 401.6549 964.2576)" fill="none" stroke-width="28" stroke-linecap="round" stroke-linejoin="round" stroke-miterlimit="10" width="185.393" height="303.372"/>
	
		<polygon fill="none" stroke-width="28" stroke-linecap="round" stroke-linejoin="round" stroke-miterlimit="10" points="
		246.002,64.902 64.902,246.002 276.707,390.135 390.134,276.708 	"/>
	
		<line fill="none" stroke-width="12" stroke-linecap="round" stroke-linejoin="round" stroke-miterlimit="10" x1="340.102" y1="203.185" x2="202.451" y2="340.834"/>
	
		<line fill="none" stroke-width="12" stroke-linecap="round" stroke-linejoin="round" stroke-miterlimit="10" x1="292.929" y1="133.862" x2="133.35" y2="293.441"/>
	
		<polygon fill="none" stroke-width="28" stroke-linecap="round" stroke-linejoin="round" stroke-miterlimit="10" points="
		735.098,553.998 553.998,735.098 409.865,523.293 523.293,409.866 	"/>
	
		<line fill="none" stroke-width="12" stroke-linecap="round" stroke-linejoin="round" stroke-miterlimit="10" x1="596.816" y1="459.898" x2="459.166" y2="597.549"/>
	
		<line fill="none" stroke-width="12" stroke-linecap="round" stroke-linejoin="round" stroke-miterlimit="10" x1="666.138" y1="507.071" x2="506.559" y2="666.65"/>
</g>
</svg>
