<?xml version="1.0" encoding="utf-8"?>
<!-- Generator: Adobe Illustrator 16.0.0, SVG Export Plug-In . SVG Version: 6.00 Build 0)  -->
<!DOCTYPE svg PUBLIC "-//W3C//DTD SVG 1.1//EN" "http://www.w3.org/Graphics/SVG/1.1/DTD/svg11.dtd">
<svg version="1.1" stroke="#000" id="Layer_1" xmlns="http://www.w3.org/2000/svg" xmlns:xlink="http://www.w3.org/1999/xlink" x="0px" y="0px" width="800px" height="800px" viewBox="0 0 800 800" enable-background="new 0 0 800 800" xml:space="preserve">
<g>
	<g>
		<path fill="none" stroke-width="28" stroke-miterlimit="10" d="M647.639,170.825
			c43.318,7.711,78.762,41.238,78.762,74.503s-23.252,64.795-51.67,70.065c-28.419,5.271-87.067,16.147-130.33,24.171
			l-65.741,12.192c-43.263,8.023-114.102,8.278-157.421,0.566l-65.537-11.667c-43.319-7.712-102.013-18.16-130.432-23.218
			S73.6,280.661,73.6,246.952s35.427-67.685,78.728-75.501l168.945-30.497c43.3-7.816,114.17-7.902,157.489-0.191L647.639,170.825z"
			/>
	</g>
	<g>
		<path fill="none" stroke-width="28" stroke-miterlimit="10" d="M623.06,319.205v223.268c0,55-45,100-100,100
			h-246.12c-55,0-100-45-100-100V320.769"/>
	</g>
	
		<line fill="none" stroke-width="28" stroke-linecap="round" stroke-linejoin="round" stroke-miterlimit="10" x1="676.898" y1="354.832" x2="676.898" y2="571.686"/>
	
		<line fill="none" stroke-width="28" stroke-linecap="round" stroke-linejoin="round" stroke-miterlimit="10" x1="676.898" y1="615.955" x2="676.898" y2="673.258"/>
</g>
</svg>
