<?xml version="1.0" encoding="utf-8"?>
<!-- Generator: Adobe Illustrator 16.0.0, SVG Export Plug-In . SVG Version: 6.00 Build 0)  -->
<!DOCTYPE svg PUBLIC "-//W3C//DTD SVG 1.1//EN" "http://www.w3.org/Graphics/SVG/1.1/DTD/svg11.dtd">
<svg version="1.1" stroke="#000" id="Layer_1" xmlns="http://www.w3.org/2000/svg" xmlns:xlink="http://www.w3.org/1999/xlink" x="0px" y="0px"
	 width="800px" height="800px" viewBox="0 0 800 800" enable-background="new 0 0 800 800" xml:space="preserve">
<g>
	<g>
		<g>
			<path fill="none" stroke-width="28" stroke-miterlimit="10" d="M713.109,610.73c0,33-27,60-60,60H146.143
				c-33,0-60-27-60-60V357.696c0-33,27-60,60-60h506.967c33,0,60,27,60,60V610.73z"/>
		</g>
		<g>
			<path fill="none" stroke-width="28" stroke-miterlimit="10" d="M639.447,297.696V189.27
				c0-33-25.852-52.209-57.448-42.688L143.591,278.698c-31.597,9.522-57.448,44.313-57.448,77.313v190.563"/>
		</g>
		<path fill="none" stroke-width="28" stroke-miterlimit="10" d="M614.604,555.741
			c-38.541,0-69.785-31.245-69.785-69.787s31.244-69.786,69.785-69.786"/>
		
			<line fill="none" stroke-width="28" stroke-miterlimit="10" x1="614.604" y1="416.168" x2="713.857" y2="416.168"/>
		
			<line fill="none" stroke-width="28" stroke-miterlimit="10" x1="614.604" y1="555.741" x2="713.857" y2="555.741"/>
		
			<line fill="none" stroke-width="28" stroke-miterlimit="10" x1="179.559" y1="354.618" x2="253.716" y2="354.618"/>
		
			<line fill="none" stroke-width="28" stroke-miterlimit="10" x1="309.559" y1="354.618" x2="383.716" y2="354.618"/>
		
			<line fill="none" stroke-width="28" stroke-miterlimit="10" x1="429.559" y1="354.618" x2="503.717" y2="354.618"/>
		
			<line fill="none" stroke-width="28" stroke-miterlimit="10" x1="549.559" y1="354.618" x2="623.717" y2="354.618"/>
		
			<line fill="none" stroke-width="28" stroke-miterlimit="10" x1="179.559" y1="615.618" x2="253.716" y2="615.618"/>
		
			<line fill="none" stroke-width="28" stroke-miterlimit="10" x1="309.559" y1="615.618" x2="383.716" y2="615.618"/>
		
			<line fill="none" stroke-width="28" stroke-miterlimit="10" x1="429.559" y1="615.618" x2="503.717" y2="615.618"/>
		
			<line fill="none" stroke-width="28" stroke-miterlimit="10" x1="549.559" y1="615.618" x2="623.717" y2="615.618"/>
	</g>
	<circle fill="none" stroke-width="12" stroke-miterlimit="10" cx="617.915" cy="486.433" r="24.532"/>
</g>
</svg>
