<?xml version="1.0" encoding="UTF-8"?>
<svg width="48px" height="48px" viewBox="0 0 48 48" version="1.1" xmlns="http://www.w3.org/2000/svg" xmlns:xlink="http://www.w3.org/1999/xlink">
    <title>basic / circle_checked</title>
    <defs>
        <rect id="path-1" x="0" y="0" width="56" height="56"></rect>
    </defs>
    <g id="Page-1" stroke="none" stroke-width="1" fill="none" fill-rule="evenodd">
        <g id="Plugin-onboarding---License-activated" transform="translate(-891.000000, -467.000000)">
            <g id="basic-/-circle_checked" transform="translate(887.000000, 463.000000)">
                <mask id="mask-2" fill="white">
                    <use xlink:href="#path-1"></use>
                </mask>
                <g id="basic-/-circle_checked-(Background/Mask)"></g>
                <path d="M4.66666667,28 C4.66666667,40.8866456 15.1133555,51.3333333 28,51.3333333 C40.8866456,51.3333333 51.3333333,40.8866456 51.3333333,28 C51.3333333,15.1133555 40.8866456,4.66666667 28,4.66666667 C15.1133555,4.66666667 4.66666667,15.1133555 4.66666667,28 C4.66666667,36.5910971 4.66666667,36.5910971 4.66666667,28 Z M47.0909087,28 C47.0909087,38.5436169 38.5436169,47.0909087 28,47.0909087 C17.456382,47.0909087 8.90909104,38.5436169 8.90909104,28 C8.90909104,17.456382 17.456382,8.90909104 28,8.90909104 C38.5436169,8.90909104 47.0909087,17.456382 47.0909087,28 C47.0909087,35.029078 47.0909087,35.029078 47.0909087,28 Z M24.5,30.8752104 L36.8500846,18.5251258 L40.1499154,21.8249577 L24.5,37.4748742 L15.8500846,28.8249588 L19.1499165,25.5251258 L24.5,30.8752104 L24.5,30.8752104 Z" fill="#A1C746" mask="url(#mask-2)"></path>
            </g>
        </g>
    </g>
</svg>