<svg height="496pt" viewBox="0 0 496 496" width="496pt" xmlns="http://www.w3.org/2000/svg"><path d="m248 0c-53.222656 0-103.808594 16.640625-146.527344 48h-53.472656v53.488281c-31.359375 42.71875-48 93.289063-48 146.511719 0 136.742188 111.246094 248 248 248s248-111.257812 248-248-111.246094-248-248-248zm88 189.039062 38.183594 42.960938h-38.183594zm-4.40625-29.039062h-235.59375v192h-32v-224h368v224h-32v-115.039062zm148.40625 88c0 42.808594-11.695312 82.910156-32 117.367188v-234.734376c20.304688 34.457032 32 74.558594 32 117.367188zm-232-232c42.808594 0 82.910156 11.695312 117.367188 32h-234.710938c35.457031-20.902344 75.511719-32 117.34375-32zm141.070312 48c16.113282 12.382812 30.546876 26.816406 42.929688 42.929688v5.070312h-368v-48zm-341.070312 66.664062v234.703126c-20.304688-34.457032-32-74.558594-32-117.367188 0-41.839844 11.097656-81.878906 32-117.335938zm1.511719 237.335938h46.488281v55.046875c-18.183594-15.808594-33.929688-34.351563-46.488281-55.046875zm62.488281 67.785156v-259.785156h208v72h64v187.785156c-38.238281 27.773438-85.222656 44.214844-136 44.214844s-97.761719-16.441406-136-44.214844zm288-12.738281v-55.046875h46.488281c-12.558593 20.695312-28.304687 39.238281-46.488281 55.046875zm0 0"/><path d="m248 218.664062-88 117.335938h48v112h16v-128h-32l56-74.664062 56 74.664062h-32v128h16v-112h48zm0 0"/><path d="m80 80h16v16h-16zm0 0"/><path d="m112 80h16v16h-16zm0 0"/><path d="m144 80h16v16h-16zm0 0"/><path d="m304 432h16v16h-16zm0 0"/><path d="m304 400h16v16h-16zm0 0"/><path d="m176 432h16v16h-16zm0 0"/><path d="m176 400h16v16h-16zm0 0"/><path d="m176 368h16v16h-16zm0 0"/><path d="m304 368h16v16h-16zm0 0"/></svg>