<svg height="496pt" viewBox="0 0 496 496" width="496pt" xmlns="http://www.w3.org/2000/svg"><path d="m80 80h16v16h-16zm0 0"/><path d="m112 80h16v16h-16zm0 0"/><path d="m144 80h16v16h-16zm0 0"/><path d="m475.617188 149.71875c2.824218-9.421875 4.382812-19.390625 4.382812-29.71875 0-57.34375-46.65625-104-104-104-10.328125 0-20.296875 1.558594-29.71875 4.382812-31.167969-13.488281-64.210938-20.382812-98.28125-20.382812-53.214844 0-103.808594 16.640625-146.535156 48h-53.464844v53.496094c-31.359375 42.71875-48 93.28125-48 146.503906 0 12.921875 1.105469 25.855469 3.078125 38.527344-1.957031 5.183594-3.078125 10.769531-3.078125 16.632812v145.6875c0 26 21.152344 47.152344 47.160156 47.152344h145.6875c5.855469 0 11.449219-1.121094 16.625-3.078125 12.671875 1.972656 25.605469 3.078125 38.527344 3.078125 136.742188 0 248-111.257812 248-248 0-34.070312-6.894531-67.113281-20.382812-98.28125zm4.382812 98.28125c0 42.808594-11.695312 82.910156-32 117.367188v-170.496094c7.34375-7.0625 13.664062-15.175782 18.6875-24.117188 8.792969 24.773438 13.3125 50.671875 13.3125 77.246094zm-256 68.390625c-10.609375-18.4375-25.953125-33.773437-44.390625-44.390625h13.230469c17.183594 0 31.160156 13.976562 31.160156 31.160156zm-104 107.609375c-26.472656 0-48-21.527344-48-48s21.527344-48 48-48 48 21.527344 48 48-21.527344 48-48 48zm38.855469-98.734375 20.257812-34.730469c10.277344 7.136719 19.214844 16.066406 26.34375 26.34375l-34.730469 20.257813c-3.414062-4.457031-7.40625-8.449219-11.871093-11.871094zm6.417969-42.753906-20.195313 34.617187c-7.703125-3.296875-16.183594-5.128906-25.078125-5.128906s-17.375 1.832031-25.078125 5.128906l-20.195313-34.617187c13.714844-6.664063 29.035157-10.511719 45.273438-10.511719s31.558594 3.847656 45.273438 10.511719zm-104.386719 8.023437 20.257812 34.730469c-4.464843 3.421875-8.457031 7.414063-11.878906 11.878906l-34.730469-20.257812c7.136719-10.285157 16.066406-19.214844 26.351563-26.351563zm-34.375 40.191406 34.617187 20.195313c-3.296875 7.703125-5.128906 16.183594-5.128906 25.078125s1.832031 17.375 5.128906 25.078125l-34.617187 20.195313c-6.664063-13.714844-10.511719-29.035157-10.511719-45.273438s3.847656-31.558594 10.511719-45.273438zm42.753906 84.128907c3.421875 4.464843 7.414063 8.457031 11.878906 11.878906l-20.257812 34.730469c-10.277344-7.136719-19.214844-16.066406-26.34375-26.34375zm5.460937 54.632812 20.195313-34.617187c7.703125 3.296875 16.183594 5.128906 25.078125 5.128906s17.375-1.832031 25.078125-5.128906l20.195313 34.617187c-13.714844 6.664063-29.035157 10.511719-45.273438 10.511719s-31.558594-3.847656-45.273438-10.511719zm104.386719-8.023437-20.257812-34.730469c4.464843-3.421875 8.457031-7.414063 11.878906-11.878906l34.730469 20.257812c-7.136719 10.285157-16.066406 19.214844-26.351563 26.351563zm34.375-40.191406-34.617187-20.195313c3.296875-7.703125 5.128906-16.183594 5.128906-25.078125s-1.832031-17.375-5.128906-25.078125l34.617187-20.195313c6.664063 13.714844 10.511719 29.035157 10.511719 45.273438s-3.847656 31.558594-10.511719 45.273438zm-20.648437-165.273438h-128.839844v-128h208.40625c4.105469 53.609375 48.945312 96 103.59375 96 20.625 0 39.816406-6.105469 56-16.503906v144.503906h-192v-48.839844c0-26.007812-21.152344-47.160156-47.160156-47.160156zm171.183594-131.351562c-7.527344-4.382813-12.023438-12.105469-12.023438-20.648438v-16c0-6.710938 2.839844-13.160156 7.785156-17.695312 5.015625-4.601563 11.535156-6.792969 18.382813-6.207032 12.238281 1.0625 21.832031 12.285156 21.832031 25.566406v14.335938c0 8.542969-4.496094 16.265625-12.023438 20.648438l-3.976562 2.3125v23.070312l38.71875 11.066406c7.578125 2.167969 13.371094 7.78125 15.875 14.902344h-125.1875c2.503906-7.121094 8.296875-12.734375 15.875-14.902344l38.71875-11.066406v-23.070312zm62.417968 67.351562c-14.296875 10.046875-31.671875 16-50.441406 16s-36.136719-5.953125-50.441406-16zm37.558594-72c0 16.574219-4.6875 32.039062-12.6875 45.289062-4.9375-9.328124-13.480469-16.511718-24.191406-19.570312l-27.121094-7.75v-2.128906c9.96875-7.511719 16-19.328125 16-31.832032v-14.335937c0-21.503906-16.007812-39.726563-36.449219-41.503906-11.207031-.976563-22.335937 2.800781-30.582031 10.351562-8.25 7.550781-12.96875 18.304688-12.96875 29.480469v16c0 12.503906 6.03125 24.328125 16 31.832031v2.128907l-27.121094 7.75c-10.710937 3.058593-19.253906 10.25-24.191406 19.570312-8-13.242188-12.6875-28.707031-12.6875-45.28125 0-48.519531 39.480469-88 88-88s88 39.480469 88 88zm-216-104c26.574219 0 52.472656 4.519531 77.246094 13.3125-8.941406 5.023438-17.054688 11.34375-24.117188 18.6875h-170.472656c35.464844-20.902344 75.511719-32 117.34375-32zm40.503906 48c-9.03125 14.0625-14.75 30.414062-16.097656 48h-208.40625v-48zm-240.503906 66.664062v125.335938h-.839844c-11.558594 0-22.152344 4.199219-30.359375 11.128906-.527343-6.351562-.800781-12.746094-.800781-19.128906 0-41.847656 11.105469-81.886719 32-117.335938zm-32 172.496094c0-17.183594 13.976562-31.160156 31.160156-31.160156h13.230469c-18.4375 10.609375-33.78125 25.953125-44.390625 44.390625zm31.160156 176.839844c-17.183594 0-31.160156-13.976562-31.160156-31.160156v-13.230469c10.609375 18.4375 25.953125 33.78125 44.390625 44.390625zm132.449219 0c18.4375-10.609375 33.773437-25.953125 44.390625-44.390625v13.230469c0 17.183594-13.976562 31.160156-31.160156 31.160156zm68.390625 0c-6.382812 0-12.777344-.273438-19.128906-.792969 6.929687-8.214843 11.128906-18.800781 11.128906-30.367187v-80.839844h206.488281c-40.710937 67.078125-114.449219 112-198.488281 112zm0 0"/><path d="m240 144h-160v96h160zm-16 80h-128v-64h128zm0 0"/><path d="m416 240h-160v96h160zm-16 80h-128v-64h128zm0 0"/></svg>