<?xml version="1.0" encoding="iso-8859-1"?>
<!-- Generator: Adobe Illustrator 18.1.1, SVG Export Plug-In . SVG Version: 6.00 Build 0)  -->
<svg version="1.1" id="Capa_1" xmlns="http://www.w3.org/2000/svg" xmlns:xlink="http://www.w3.org/1999/xlink" x="0px" y="0px"
	 viewBox="0 0 15.466 15.466" style="enable-background:new 0 0 15.466 15.466;" xml:space="preserve">
<g>
	<g>
		<path style="fill:#030104;" d="M3.566,4.1H0.69C0.309,4.1,0,4.409,0,4.79v9.24c0,0.381,0.309,0.69,0.69,0.69h2.876
			c0.381,0,0.69-0.31,0.69-0.69V4.79C4.257,4.409,3.947,4.1,3.566,4.1z"/>
		<path style="fill:#030104;" d="M9.203,7.379H6.327c-0.381,0-0.691,0.309-0.691,0.69v5.961c0,0.381,0.31,0.69,0.691,0.69h2.876
			c0.382,0,0.69-0.31,0.69-0.69V8.069C9.893,7.688,9.585,7.379,9.203,7.379z"/>
		<path style="fill:#030104;" d="M14.775,9.967h-2.876c-0.382,0-0.689,0.31-0.689,0.69v3.373c0,0.381,0.308,0.69,0.689,0.69h2.876
			c0.382,0,0.691-0.31,0.691-0.69v-3.373C15.466,10.277,15.157,9.967,14.775,9.967z"/>
		<polygon style="fill:#030104;" points="9.652,6.775 14.092,7.078 11.134,3.753 11.229,5.097 2.355,0.746 1.9,1.675 10.772,6.026 
					"/>
	</g>
</g>
<g>
</g>
<g>
</g>
<g>
</g>
<g>
</g>
<g>
</g>
<g>
</g>
<g>
</g>
<g>
</g>
<g>
</g>
<g>
</g>
<g>
</g>
<g>
</g>
<g>
</g>
<g>
</g>
<g>
</g>
</svg>
