<?xml version="1.0" encoding="UTF-8"?>
<svg xmlns="http://www.w3.org/2000/svg" xmlns:xlink="http://www.w3.org/1999/xlink" width="50pt" height="50pt" viewBox="0 0 50 50" version="1.1">
<g id="surface1">
<path style=" stroke:none;fill-rule:nonzero;fill:#595959;fill-opacity:1;" d="M 50 2.28125 L 48.25 4.34375 L 36.65625 17.84375 L 23.28125 14.03125 L 22.8125 13.90625 L 22.40625 14.1875 L 8.78125 23.90625 L 1.25 22.03125 L 0 21.71875 L 0 33.15625 C 0 33.1875 0 33.21875 0 33.25 L 0 50.15625 L 50 50.15625 L 50 21.3125 C 50.003906 21.261719 50.003906 21.207031 50 21.15625 Z M 48 7.6875 L 48 20.6875 L 40.78125 26.875 L 35.96875 25.15625 C 35.976563 25.101563 36 25.058594 36 25 C 36 24.449219 35.550781 24 35 24 C 34.636719 24 34.332031 24.207031 34.15625 24.5 L 27.34375 22.0625 L 27 21.9375 C 26.964844 21.414063 26.53125 21 26 21 C 25.449219 21 25 21.449219 25 22 C 25 22.480469 25.359375 22.84375 25.8125 22.9375 L 16.5625 35.875 L 9 33.96875 C 8.984375 33.429688 8.542969 33 8 33 C 7.636719 33 7.332031 33.207031 7.15625 33.5 L 2 32.21875 L 2 29 C 2.550781 29 3 28.550781 3 28 C 3 27.449219 2.550781 27 2 27 L 2 24.28125 L 4.0625 24.78125 C 4.042969 24.855469 4 24.917969 4 25 C 4 25.550781 4.449219 26 5 26 C 5.460938 26 5.820313 25.671875 5.9375 25.25 L 8.75 25.96875 L 9.21875 26.09375 L 9.59375 25.8125 L 10.125 25.4375 C 10.289063 25.761719 10.609375 26 11 26 C 11.550781 26 12 25.550781 12 25 C 12 24.722656 11.898438 24.460938 11.71875 24.28125 L 13.625 22.90625 C 13.746094 22.957031 13.863281 23 14 23 C 14.550781 23 15 22.550781 15 22 C 15 21.976563 15 21.957031 15 21.9375 L 23.1875 16.09375 L 25.25 16.6875 C 25.433594 16.886719 25.707031 17 26 17 C 26.070313 17 26.121094 16.953125 26.1875 16.9375 L 34.0625 19.1875 C 34.15625 19.640625 34.519531 20 35 20 C 35.292969 20 35.566406 19.886719 35.75 19.6875 L 36.71875 19.96875 L 37.34375 20.125 L 37.75 19.65625 Z M 48 19 C 48 18.449219 47.550781 18 47 18 C 46.449219 18 46 18.449219 46 19 C 46 19.550781 46.449219 20 47 20 C 47.550781 20 48 19.550781 48 19 Z M 48 13 C 48 12.449219 47.550781 12 47 12 C 46.449219 12 46 12.449219 46 13 C 46 13.550781 46.449219 14 47 14 C 47.550781 14 48 13.550781 48 13 Z M 44 15 C 43.449219 15 43 15.449219 43 16 C 43 16.550781 43.449219 17 44 17 C 44.550781 17 45 16.550781 45 16 C 45 15.449219 44.550781 15 44 15 Z M 23 18 C 22.449219 18 22 18.449219 22 19 C 22 19.550781 22.449219 20 23 20 C 23.550781 20 24 19.550781 24 19 C 24 18.449219 23.550781 18 23 18 Z M 29 18 C 28.449219 18 28 18.449219 28 19 C 28 19.550781 28.449219 20 29 20 C 29.550781 20 30 19.550781 30 19 C 30 18.449219 29.550781 18 29 18 Z M 41 18 C 40.449219 18 40 18.449219 40 19 C 40 19.550781 40.449219 20 41 20 C 41.550781 20 42 19.550781 42 19 C 42 18.449219 41.550781 18 41 18 Z M 20 21 C 19.449219 21 19 21.449219 19 22 C 19 22.550781 19.449219 23 20 23 C 20.550781 23 21 22.550781 21 22 C 21 21.449219 20.550781 21 20 21 Z M 32 21 C 31.449219 21 31 21.449219 31 22 C 31 22.550781 31.449219 23 32 23 C 32.550781 23 33 22.550781 33 22 C 33 21.449219 32.550781 21 32 21 Z M 38 21 C 37.449219 21 37 21.449219 37 22 C 37 22.550781 37.449219 23 38 23 C 38.550781 23 39 22.550781 39 22 C 39 21.449219 38.550781 21 38 21 Z M 44 21 C 43.449219 21 43 21.449219 43 22 C 43 22.550781 43.449219 23 44 23 C 44.550781 23 45 22.550781 45 22 C 45 21.449219 44.550781 21 44 21 Z M 48 23.3125 L 48 48.15625 L 2 48.15625 L 2 34.28125 L 16.75 37.96875 L 17.40625 38.125 L 17.8125 37.59375 L 27.375 24.1875 L 40.65625 28.9375 L 41.21875 29.125 Z M 17 24 C 16.449219 24 16 24.449219 16 25 C 16 25.550781 16.449219 26 17 26 C 17.550781 26 18 25.550781 18 25 C 18 24.449219 17.550781 24 17 24 Z M 23 24 C 22.449219 24 22 24.449219 22 25 C 22 25.550781 22.449219 26 23 26 C 23.550781 26 24 25.550781 24 25 C 24 24.449219 23.550781 24 23 24 Z M 41 24 C 40.449219 24 40 24.449219 40 25 C 40 25.550781 40.449219 26 41 26 C 41.550781 26 42 25.550781 42 25 C 42 24.449219 41.550781 24 41 24 Z M 8 27 C 7.449219 27 7 27.449219 7 28 C 7 28.550781 7.449219 29 8 29 C 8.550781 29 9 28.550781 9 28 C 9 27.449219 8.550781 27 8 27 Z M 14 27 C 13.449219 27 13 27.449219 13 28 C 13 28.550781 13.449219 29 14 29 C 14.550781 29 15 28.550781 15 28 C 15 27.449219 14.550781 27 14 27 Z M 20 27 C 19.449219 27 19 27.449219 19 28 C 19 28.550781 19.449219 29 20 29 C 20.550781 29 21 28.550781 21 28 C 21 27.449219 20.550781 27 20 27 Z M 5 30 C 4.449219 30 4 30.449219 4 31 C 4 31.550781 4.449219 32 5 32 C 5.550781 32 6 31.550781 6 31 C 6 30.449219 5.550781 30 5 30 Z M 11 30 C 10.449219 30 10 30.449219 10 31 C 10 31.550781 10.449219 32 11 32 C 11.550781 32 12 31.550781 12 31 C 12 30.449219 11.550781 30 11 30 Z M 17 30 C 16.449219 30 16 30.449219 16 31 C 16 31.550781 16.449219 32 17 32 C 17.550781 32 18 31.550781 18 31 C 18 30.449219 17.550781 30 17 30 Z M 14 33 C 13.449219 33 13 33.449219 13 34 C 13 34.550781 13.449219 35 14 35 C 14.550781 35 15 34.550781 15 34 C 15 33.449219 14.550781 33 14 33 Z "/>
</g>
</svg>
