<?xml version="1.0" encoding="UTF-8"?>
<svg xmlns="http://www.w3.org/2000/svg" xmlns:xlink="http://www.w3.org/1999/xlink" width="50pt" height="50pt" viewBox="0 0 50 50" version="1.1">
<g id="surface1">
<path style=" stroke:none;fill-rule:nonzero;fill:#595959;fill-opacity:1;" d="M 37.90625 3.96875 C 37.863281 3.976563 37.820313 3.988281 37.78125 4 C 37.40625 4.066406 37.105469 4.339844 37 4.703125 C 36.894531 5.070313 37.003906 5.460938 37.28125 5.71875 L 43.5625 12 L 12 12 C 11.96875 12 11.9375 12 11.90625 12 C 11.355469 12.027344 10.925781 12.496094 10.953125 13.046875 C 10.980469 13.597656 11.449219 14.027344 12 14 L 43.5625 14 L 37.28125 20.28125 C 36.882813 20.679688 36.882813 21.320313 37.28125 21.71875 C 37.679688 22.117188 38.320313 22.117188 38.71875 21.71875 L 46.5625 13.84375 C 46.617188 13.808594 46.671875 13.765625 46.71875 13.71875 C 46.742188 13.6875 46.761719 13.65625 46.78125 13.625 C 46.804688 13.605469 46.824219 13.585938 46.84375 13.5625 C 46.882813 13.503906 46.914063 13.441406 46.9375 13.375 C 46.949219 13.355469 46.960938 13.332031 46.96875 13.3125 C 46.96875 13.300781 46.96875 13.292969 46.96875 13.28125 C 46.980469 13.25 46.992188 13.21875 47 13.1875 C 47.015625 13.082031 47.015625 12.980469 47 12.875 C 47 12.855469 47 12.832031 47 12.8125 C 47 12.800781 47 12.792969 47 12.78125 C 46.992188 12.761719 46.980469 12.738281 46.96875 12.71875 C 46.96875 12.707031 46.96875 12.699219 46.96875 12.6875 C 46.960938 12.667969 46.949219 12.644531 46.9375 12.625 C 46.9375 12.613281 46.9375 12.605469 46.9375 12.59375 C 46.929688 12.574219 46.917969 12.550781 46.90625 12.53125 C 46.894531 12.519531 46.886719 12.511719 46.875 12.5 C 46.867188 12.480469 46.855469 12.457031 46.84375 12.4375 C 46.808594 12.382813 46.765625 12.328125 46.71875 12.28125 L 46.6875 12.28125 C 46.667969 12.257813 46.648438 12.238281 46.625 12.21875 L 38.71875 4.28125 C 38.511719 4.058594 38.210938 3.945313 37.90625 3.96875 Z M 4 12 C 3.449219 12 3 12.449219 3 13 C 3 13.550781 3.449219 14 4 14 C 4.550781 14 5 13.550781 5 13 C 5 12.449219 4.550781 12 4 12 Z M 8 12 C 7.449219 12 7 12.449219 7 13 C 7 13.550781 7.449219 14 8 14 C 8.550781 14 9 13.550781 9 13 C 9 12.449219 8.550781 12 8 12 Z M 11.875 28 C 11.652344 28.023438 11.441406 28.125 11.28125 28.28125 L 3.4375 36.15625 L 3.34375 36.1875 C 3.320313 36.207031 3.300781 36.226563 3.28125 36.25 L 3.28125 36.28125 C 3.257813 36.300781 3.238281 36.320313 3.21875 36.34375 C 3.195313 36.363281 3.175781 36.382813 3.15625 36.40625 C 3.15625 36.417969 3.15625 36.425781 3.15625 36.4375 C 3.132813 36.457031 3.113281 36.476563 3.09375 36.5 C 3.09375 36.511719 3.09375 36.519531 3.09375 36.53125 C 3.03125 36.636719 2.988281 36.753906 2.96875 36.875 C 2.96875 36.886719 2.96875 36.894531 2.96875 36.90625 C 2.96875 36.9375 2.96875 36.96875 2.96875 37 C 2.96875 37.019531 2.96875 37.042969 2.96875 37.0625 C 2.96875 37.074219 2.96875 37.082031 2.96875 37.09375 C 2.984375 37.226563 3.027344 37.351563 3.09375 37.46875 C 3.101563 37.488281 3.113281 37.511719 3.125 37.53125 C 3.136719 37.542969 3.144531 37.550781 3.15625 37.5625 C 3.164063 37.582031 3.175781 37.605469 3.1875 37.625 C 3.199219 37.636719 3.207031 37.644531 3.21875 37.65625 C 3.230469 37.667969 3.238281 37.675781 3.25 37.6875 C 3.261719 37.699219 3.269531 37.707031 3.28125 37.71875 C 3.335938 37.777344 3.398438 37.832031 3.46875 37.875 L 11.28125 45.71875 C 11.679688 46.117188 12.320313 46.117188 12.71875 45.71875 C 13.117188 45.320313 13.117188 44.679688 12.71875 44.28125 L 6.4375 38 L 38 38 C 38.359375 38.003906 38.695313 37.816406 38.878906 37.503906 C 39.058594 37.191406 39.058594 36.808594 38.878906 36.496094 C 38.695313 36.183594 38.359375 35.996094 38 36 L 6.4375 36 L 12.71875 29.71875 C 13.042969 29.417969 13.128906 28.941406 12.933594 28.546875 C 12.742188 28.148438 12.308594 27.929688 11.875 28 Z M 42 36 C 41.449219 36 41 36.449219 41 37 C 41 37.550781 41.449219 38 42 38 C 42.550781 38 43 37.550781 43 37 C 43 36.449219 42.550781 36 42 36 Z M 46 36 C 45.449219 36 45 36.449219 45 37 C 45 37.550781 45.449219 38 46 38 C 46.550781 38 47 37.550781 47 37 C 47 36.449219 46.550781 36 46 36 Z "/>
</g>
</svg>
