<svg xmlns="http://www.w3.org/2000/svg" width="455.201" height="59.298" viewBox="0 0 455.201 59.298"><g transform="translate(-69.649 -290.548)"><path d="M93.531,309.925h.234L99.7,326.851H87.659l5.872-16.926m7.217,38.871h22.484v-2.561c-4.348-.545-5.675-.878-8.515-8.635-3.116-8.306-6.741-18.112-10.183-27.8l-5.41-15.266-4.033,1.111L78.5,337.858c-2.867,7.395-3.939,7.784-8.852,8.377V348.8H88.156v-2.561L86.125,346c-3.8-.425-3.944-1.3-2.74-5.434,1.069-3.559,2.141-7.162,3.15-9.557h14.549c1.24,3.01,2.8,7.309,3.868,10.033,1.39,3.534.966,4.437-2.055,4.882l-2.149.307Z" fill="#004b63"/><path d="M146.751,320.247c0-3-.4-3.529-2.527-3.887l-2.549-.4v-2.384c4.115-.208,11.256-1.008,15.118-1.532v27.9c0,3.4.33,4.32,2.945,4.32h2.553V346.8a146.736,146.736,0,0,0-14.888,3.049l-.652-.564v-5.259c-1.55,1.146-2.932,2.191-4.745,3.3-2.54,1.547-4.608,2.4-7.193,2.4-6.855,0-10.635-4.556-10.635-10.862V320.247c0-3-.4-3.529-2.52-3.887l-2.228-.4v-2.384c3.778-.208,10.512-1.008,14.8-1.532v24.779c0,4.827,2.457,6.722,5.543,6.722,2.307,0,4.6-1.079,6.981-3.146V320.247" fill="#004b63"/><path d="M177.04,336.692c0,6.3,3.111,7.478,4.6,7.478a8.712,8.712,0,0,0,4.276-1.323l1.13,2.458-7.062,3.562a8.3,8.3,0,0,1-3.1.858c-6.342,0-9.873-2.755-9.873-10.055V316.862h-5.26l-.578-1.047,2.635-3.146h3.2v-5.012l8.612-6.483,1.423.693v10.8h8.124c1.062.9.912,3.523-.567,4.193H177.04v19.83" fill="#004b63"/><path d="M203.61,316.963c2.775-2.74,6.923-5.254,11.216-5.254,7.466,0,11.591,4.678,11.591,12.418v16.644c0,4.6.41,4.919,4.953,5.464V348.8H212.081v-2.561c3.972-.545,4.292-.862,4.292-5.464V325.027c0-5.076-2.842-7.232-6.263-7.232a9.1,9.1,0,0,0-6.5,2.7v20.278c0,4.6.394,4.919,3.818,5.464V348.8H187.655v-2.561c5.488-.545,5.9-.862,5.9-5.464V301.1c0-4.859-.156-4.974-5.357-5.29v-2.367c3.641-.563,9.965-1.741,15.408-2.893v26.415" fill="#004b63"/><path d="M244.054,328.343c0-8.892,3.482-13.246,6.837-13.246,5.251,0,8.4,6.332,8.4,17.3,0,11.882-3.686,13.921-6.663,13.921-5.277,0-8.575-7.653-8.575-17.973m8.079-16.634c-9.227,0-19.413,6.914-19.413,19.932,0,8.783,6.332,18.084,18.985,18.084,9.461,0,18.921-6.425,18.921-19.821C270.626,320.352,263.556,311.709,252.133,311.709Z" fill="#004b63"/><path d="M288.207,340.771c0,4.586.4,4.919,6.721,5.464V348.8H272.571v-2.561c5.159-.545,5.582-.878,5.582-5.464V322.556c0-5.012-.155-5.073-5.435-5.673v-2.214c4.8-.68,10.057-1.772,15.489-2.96v8.161h.164a33.213,33.213,0,0,1,3.838-5.255c1.566-1.665,3.376-2.906,5.431-2.906a5.253,5.253,0,0,1,5.511,5.017,6.293,6.293,0,0,1-3.888,5.83,2.41,2.41,0,0,1-2.535-.334,6.806,6.806,0,0,0-4.1-1.729c-1.387,0-3.038.623-4.42,4.046v16.232" fill="#004b63"/><path d="M309.625,322.556c0-5.012-.158-5.073-5.415-5.673v-2.214c4.829-.68,10.275-1.772,15.467-2.96v28.958c0,4.69.408,5.023,5.633,5.568V348.8H303.969v-2.561c5.258-.545,5.656-.878,5.656-5.568V322.556m10.3-23.81a5.886,5.886,0,0,1-5.962,5.932,5.953,5.953,0,1,1,0-11.906A5.914,5.914,0,0,1,319.922,298.746Z" fill="#004b63"/><path d="M357.98,312.654l.725,1.181-18.89,31.47h6.5c5.652,0,7.851-1.028,10.607-5.7l1.208-2.039,2.956,1.094c-1.471,4.082-2.533,7.125-3.781,10.133H327.661l-.819-1.2,19.475-31.459h-5.772c-5.43,0-6.888,1.246-8.77,5.295l-1.169,2.516-2.945-1.1c.967-3.108,2.268-8.312,3.029-11.906h1.819c.415,1.206,1.3,1.718,4.428,1.718H357.98" fill="#004b63"/><path d="M370.58,325.312c.486-5.578,3.531-9.836,6.561-9.836,3.126,0,5.743,4.309,5.743,7.639,0,1.6-.316,1.942-1.537,1.942l-10.767.255m20.379,13.971c-3.305,2.22-5.854,3.179-8.885,3.179-6.261,0-11.853-4.245-11.853-13.451,8.162-.321,19.1-1.082,20.24-1.32,1.637-.315,1.878-.5,1.878-3.578,0-6.349-5.678-12.376-12.806-12.376-10.012,0-18.871,8.817-18.871,20.658,0,9.206,6.379,17.33,17.467,17.33,2.865,0,9.289-1.657,13.969-8.807Z" fill="#004b63"/><path d="M394.987,343.3a6.262,6.262,0,1,1,6.216,6.43,6.1,6.1,0,0,1-6.216-6.43" fill="#004b63"/><path d="M460.509,349.388h-5L422.873,309.32h-.181v17.011a120.859,120.859,0,0,0,.814,15.748c.431,2.847,2.482,3.925,7.934,4.156V348.8H411.05v-2.561c4.117-.158,6.082-1.309,6.467-4.156a108.9,108.9,0,0,0,.855-15.748v-16.3c0-5.226,0-7.256-1.492-9.2-1.564-2-3.622-2.516-6.978-2.79v-2.581h14.287l31.8,36.982h.17v-14.5a115.9,115.9,0,0,0-.816-15.728c-.41-2.894-2.478-3.9-7.919-4.176v-2.581h20.389v2.581c-4.128.158-6.073,1.282-6.488,4.176a118.019,118.019,0,0,0-.811,15.728v31.448" fill="#004b63"/><path d="M473.2,325.312c.473-5.578,3.522-9.836,6.548-9.836,3.115,0,5.737,4.309,5.737,7.639,0,1.6-.294,1.942-1.557,1.942l-10.728.255m20.38,13.971c-3.316,2.22-5.85,3.179-8.913,3.179-6.227,0-11.8-4.245-11.8-13.451,8.126-.321,19.059-1.082,20.208-1.32,1.64-.315,1.877-.5,1.877-3.578,0-6.349-5.654-12.376-12.8-12.376-10.022,0-18.9,8.817-18.9,20.658,0,9.206,6.414,17.33,17.478,17.33,2.891,0,9.308-1.657,13.985-8.807Z" fill="#004b63"/><path d="M510.949,336.692c0,6.3,3.1,7.478,4.606,7.478a8.625,8.625,0,0,0,4.247-1.323l1.154,2.458-7.067,3.562a8.186,8.186,0,0,1-3.12.858c-6.306,0-9.9-2.755-9.9-10.055V316.862h-5.218l-.575-1.047,2.641-3.146h3.152v-5.012l8.662-6.483,1.414.693v10.8h8.121c1.074.9.882,3.523-.576,4.193h-7.545v19.83" fill="#004b63"/><path d="M520.715,309.671a4.119,4.119,0,0,1-4.122-4.124,4.135,4.135,0,0,1,.552-2.07,3.92,3.92,0,0,1,1.523-1.51,4.094,4.094,0,0,1,4.106,0,3.933,3.933,0,0,1,1.515,1.51,4.122,4.122,0,0,1-3.574,6.194m0-.627a3.4,3.4,0,0,0,1.725-.453,3.328,3.328,0,0,0,1.3-1.268,3.381,3.381,0,0,0,.479-1.774,3.624,3.624,0,0,0-.457-1.756,3.462,3.462,0,0,0-1.29-1.281,3.516,3.516,0,0,0-1.757-.466,3.371,3.371,0,0,0-1.73.466,3.282,3.282,0,0,0-1.3,1.281,3.554,3.554,0,0,0-.463,1.756A3.428,3.428,0,0,0,519,308.591,3.385,3.385,0,0,0,520.715,309.044Zm-.773-1.039h-.806v-4.993h1.607a1.835,1.835,0,0,1,.891.171,1.251,1.251,0,0,1,.472.492,1.552,1.552,0,0,1,.169.7,1.691,1.691,0,0,1-.231.836,1.6,1.6,0,0,1-.734.611,2.12,2.12,0,0,1,.561.722l.779,1.464h-.9l-.648-1.226-.159-.316c-.19-.333-.322-.5-.411-.5h-.586Zm0-2.653h.541a.873.873,0,0,0,.754-.291,1.093,1.093,0,0,0,.21-.646.876.876,0,0,0-.081-.391.85.85,0,0,0-.252-.286,1.077,1.077,0,0,0-.586-.117h-.586Z" fill="#004b63"/></g></svg>