<svg xmlns="http://www.w3.org/2000/svg" viewBox="0 0 448 512" fill="#999DA0"><path d="M43.2 466.1a156.7 156.7 0 011.4-217.5L254.4 34A112 112 0 01415 34a116.4 116.4 0 010 162.3L232.2 383a74.6 74.6 0 01-108-1 77.5 77.5 0 011.5-107l143.7-146.8a16 16 0 0122.7-.2l22.8 22.4a16 16 0 01.3 22.6L171.4 320c-5 5-5.2 13.5-.6 18.3a10.7 10.7 0 0015.7.2l182.8-186.9a52.4 52.4 0 000-72.8 48 48 0 00-69.1 0L90.4 293.3a92.6 92.6 0 00-1.2 128.3c34 35.1 89 35.1 123 .3l172.1-176a16 16 0 0122.6-.3l23 22.4a16 16 0 01.2 22.6l-172 176c-59.7 61-156 60.2-214.9-.5z"/></svg>