<svg xmlns="http://www.w3.org/2000/svg" viewBox="0 0 384 512" fill="#999DA0"><path d="M224 136V0H24A24 24 0 000 24v464a24 24 0 0024 24h336a24 24 0 0024-24V160H248a24 24 0 01-24-24zm64 236a12 12 0 01-12 12H108a12 12 0 01-12-12v-8a12 12 0 0112-12h168a12 12 0 0112 12v8zm0-64a12 12 0 01-12 12H108a12 12 0 01-12-12v-8a12 12 0 0112-12h168a12 12 0 0112 12v8zm0-72v8a12 12 0 01-12 12H108a12 12 0 01-12-12v-8a12 12 0 0112-12h168a12 12 0 0112 12zm96-114.1v6.1H256V0h6.1a24 24 0 0117 7l97.9 98a24 24 0 017 16.9z"/></svg>