<?xml version="1.0" encoding="utf-8"?>
<!-- Generator: Adobe Illustrator 16.0.0, SVG Export Plug-In . SVG Version: 6.00 Build 0)  -->
<!DOCTYPE svg PUBLIC "-//W3C//DTD SVG 1.1//EN" "http://www.w3.org/Graphics/SVG/1.1/DTD/svg11.dtd">
<svg version="1.1" id="Layer_1" xmlns="http://www.w3.org/2000/svg" xmlns:xlink="http://www.w3.org/1999/xlink" x="0px" y="0px"
	 width="1000px" height="1000px" viewBox="0 0 1000 1000" enable-background="new 0 0 1000 1000" xml:space="preserve">
<g id="Illsutration">
	<path id="Envelope_1_" fill="#194253" d="M733.064,480.695c-0.795-5.495-3.521-10.809-7.675-14.962l-29.055-29.056V312.905
		c0-14.336-11.663-26-26-26H546.563l-28.584-28.583c-10.136-10.138-26.631-10.137-36.769,0l-28.584,28.583H328.855
		c-14.336,0-26,11.664-26,26v123.771L273.8,465.732c-4.154,4.154-6.879,9.468-7.674,14.963c-0.192,1.331-0.276,2.659-0.264,3.975
		l-0.005,238.609c0,14.337,11.663,26,26,26h415.478c14.337,0,26-11.663,26-26V484.671
		C733.334,484.671,733.257,482.026,733.064,480.695z M720.925,506.611c0.141-0.086,0.271-0.184,0.409-0.271v195.045
		c-0.138-0.088-0.27-0.185-0.41-0.271l-158.625-97.251L720.925,506.611z M716.905,474.218c2.335,2.335,3.855,5.246,4.282,8.193
		c0.803,5.56-1.763,11.044-6.535,13.97l-18.317,11.23v-53.964L716.905,474.218z M489.696,266.808c5.459-5.459,14.341-5.459,19.799,0
		l20.099,20.098h-59.996L489.696,266.808z M328.855,298.905h341.479c7.72,0,14,6.28,14,14v202.063l-133.516,81.856l-37.635-23.074
		c-8.38-5.139-18.796-5.139-27.179,0l-37.636,23.074l-133.515-81.856V312.905C314.855,305.186,321.136,298.905,328.855,298.905z
		 M436.891,603.863l-158.624,97.251c-0.14,0.086-0.272,0.183-0.41,0.271V506.339c0.139,0.089,0.269,0.187,0.41,0.272
		L436.891,603.863z M278.003,482.412c0.426-2.949,1.947-5.859,4.282-8.194l20.57-20.57v53.964l-18.316-11.23
		C279.766,493.455,277.2,487.971,278.003,482.412z M707.334,737.28H291.856c-7.72,0-14-6.28-14-14c0-4.836,2.56-9.409,6.683-11.936
		l207.739-127.363c2.257-1.384,4.787-2.075,7.317-2.075s5.061,0.691,7.317,2.075l207.739,127.363
		c4.121,2.526,6.682,7.1,6.682,11.936C721.334,731,715.054,737.28,707.334,737.28z"/>
	<g id="Tick_1_">
		<circle fill="#94BB00" cx="500" cy="433.744" r="75"/>
		<g>
			<polygon fill="#FFFFFF" points="485.525,469.806 452.249,436.53 462.149,426.63 485.525,450.007 537.852,397.681 
				547.751,407.581 			"/>
		</g>
	</g>
</g>
</svg>
