<?xml version="1.0" encoding="utf-8"?>
<!-- Generator: Adobe Illustrator 16.0.0, SVG Export Plug-In . SVG Version: 6.00 Build 0)  -->
<!DOCTYPE svg PUBLIC "-//W3C//DTD SVG 1.1//EN" "http://www.w3.org/Graphics/SVG/1.1/DTD/svg11.dtd">
<svg version="1.1" id="Layer_1" xmlns="http://www.w3.org/2000/svg" xmlns:xlink="http://www.w3.org/1999/xlink" x="0px" y="0px"
	 width="229px" height="226px" viewBox="0 0 229 226" enable-background="new 0 0 229 226" xml:space="preserve">
<path fill="#3A9BB6" d="M167.073,115.638c0,1.084-0.032,2.168-0.105,3.235v0.009c-0.228,3.527-0.815,6.958-1.736,10.25
	c-0.921,3.269-2.16,6.405-3.683,9.371c-1.898,3.708-4.254,7.139-6.975,10.235c-1.426,1.621-2.958,3.161-4.589,4.587
	c-1.76,1.548-3.625,2.982-5.597,4.27c-2.787,1.843-5.778,3.407-8.915,4.661c-4.8,1.924-9.958,3.121-15.344,3.464h-0.008
	c-1.067,0.073-2.151,0.105-3.234,0.105c-1.092,0-2.176-0.032-3.244-0.105l0,0c-11.408-0.734-21.782-5.288-29.865-12.395
	c-1.622-1.426-3.154-2.966-4.588-4.587c-7.106-8.084-11.661-18.457-12.394-29.856v-0.009c-0.065-1.067-0.106-2.151-0.106-3.235
	c0-1.092,0.041-2.176,0.106-3.243l0,0c0.733-11.408,5.288-21.781,12.394-29.864c1.434-1.63,2.966-3.162,4.588-4.589
	c8.083-7.113,18.465-11.66,29.865-12.394c1.067-0.065,2.151-0.105,3.244-0.105c1.083,0,2.167,0.04,3.234,0.105
	c11.4,0.733,21.782,5.28,29.865,12.394c1.63,1.427,3.163,2.959,4.589,4.589c7.113,8.083,11.66,18.456,12.394,29.864l0,0
	C167.041,113.462,167.073,114.546,167.073,115.638L167.073,115.638z M116.886,58.898c-31.34,0-56.74,25.399-56.74,56.739
	c0,31.332,25.4,56.739,56.74,56.739c5.842,0,11.489-0.889,16.802-2.534c2.494-0.774,4.914-1.711,7.252-2.803
	c3.023-1.418,5.899-3.098,8.597-5.004c6.984-4.922,12.801-11.383,16.974-18.88c1.605-2.885,2.966-5.924,4.05-9.094
	c0.839-2.438,1.507-4.947,2.013-7.522c0.684-3.527,1.043-7.178,1.043-10.902C173.617,84.298,148.217,58.898,116.886,58.898
	L116.886,58.898z"/>
<path fill="#19313E" d="M131.766,115.646l-14.098,3.308c-0.245,0.058-0.497,0.09-0.749,0.09c-0.733,0-1.452-0.253-2.029-0.709
	c-0.791-0.619-1.247-1.572-1.247-2.567V92.316c0-1.81,1.467-3.275,3.276-3.275s3.275,1.466,3.275,3.275v4.677v14.636l8.801-2.063
	l1.271-0.301c1.76-0.416,3.528,0.677,3.944,2.437C134.618,113.462,133.525,115.23,131.766,115.646L131.766,115.646z
	 M154.541,112.362h5.859c-0.008-0.074-0.008-0.139-0.017-0.212c-0.016-0.204-0.033-0.416-0.057-0.62
	c-0.008-0.081-0.008-0.162-0.024-0.235c-0.017-0.245-0.049-0.48-0.073-0.718c-0.033-0.301-0.074-0.594-0.115-0.888
	c-0.961-7.049-3.618-13.576-7.545-19.149c-0.163-0.229-0.326-0.456-0.498-0.686c-0.122-0.178-0.252-0.35-0.382-0.513
	c-0.082-0.114-0.164-0.22-0.253-0.325c-0.041-0.058-0.082-0.106-0.123-0.164c-0.163-0.203-0.326-0.415-0.489-0.619
	c-0.187-0.228-0.383-0.456-0.57-0.684c-0.106-0.114-0.196-0.236-0.302-0.359v0.009l-4.123,4.123c-1.279,1.278-3.356,1.278-4.637,0
	c-1.271-1.279-1.271-3.357,0-4.637l4.124-4.123h0.008c-0.172-0.147-0.351-0.293-0.521-0.44c-0.179-0.146-0.351-0.294-0.53-0.432
	c-0.236-0.188-0.473-0.383-0.709-0.563c-0.204-0.163-0.407-0.317-0.611-0.473c-0.058-0.041-0.114-0.081-0.171-0.122
	c-0.114-0.09-0.229-0.172-0.342-0.252c-0.146-0.106-0.311-0.221-0.465-0.335c-5.565-3.919-12.077-6.575-19.116-7.546l-0.058-0.008
	c-0.284-0.032-0.57-0.073-0.863-0.105c-0.245-0.025-0.489-0.058-0.741-0.073c-0.123-0.018-0.245-0.033-0.375-0.041
	c-0.13-0.017-0.26-0.024-0.398-0.032c-0.042,0-0.09-0.009-0.13-0.009l-0.073-0.009l-0.065-0.007v0.007v5.852
	c0,1.809-1.467,3.275-3.268,3.275c-1.809,0-3.276-1.467-3.276-3.275v-5.852v-0.007c-0.123,0.007-0.236,0.024-0.358,0.032
	c-0.065,0-0.122,0.008-0.195,0.016c-0.188,0.017-0.375,0.032-0.563,0.058c-0.204,0.017-0.416,0.033-0.619,0.065
	c-0.032,0-0.065,0-0.09,0.008c-0.245,0.024-0.489,0.058-0.725,0.09c-0.089,0.008-0.171,0.024-0.26,0.032
	c-0.245,0.032-0.489,0.073-0.742,0.114c-0.293,0.041-0.578,0.09-0.872,0.146c-6.38,1.142-12.289,3.676-17.397,7.269
	c-0.228,0.164-0.456,0.326-0.685,0.497c-0.188,0.131-0.366,0.269-0.545,0.407c-0.171,0.131-0.342,0.262-0.513,0.392
	c-0.164,0.13-0.326,0.261-0.481,0.392c-0.057,0.041-0.113,0.089-0.171,0.13c-0.195,0.163-0.391,0.326-0.587,0.489l-0.024,0.017
	c-0.114,0.098-0.229,0.195-0.342,0.293h0.007l4.124,4.123c1.279,1.279,1.279,3.357,0,4.637c-1.279,1.278-3.358,1.278-4.637,0
	l-4.123-4.123V87.19c-0.367,0.433-0.733,0.864-1.076,1.305c-0.123,0.146-0.236,0.293-0.351,0.447
	c-0.188,0.236-0.367,0.473-0.545,0.709c-0.123,0.163-0.245,0.335-0.359,0.497c-0.09,0.114-0.18,0.236-0.261,0.358
	c-0.024,0.033-0.048,0.074-0.073,0.106c-3.903,5.549-6.536,12.052-7.497,19.076c-0.041,0.294-0.082,0.587-0.114,0.888
	c-0.024,0.237-0.057,0.473-0.073,0.718c-0.008,0.073-0.017,0.154-0.025,0.235c-0.024,0.204-0.041,0.416-0.048,0.62
	c-0.009,0.073-0.017,0.138-0.025,0.212h5.859c1.809,0,3.276,1.467,3.276,3.275c0,1.801-1.467,3.268-3.276,3.268h-5.859
	c0.008,0.074,0.017,0.147,0.025,0.212c0.007,0.204,0.024,0.416,0.048,0.619c0.008,0.082,0.017,0.163,0.025,0.236
	c0.016,0.244,0.048,0.48,0.073,0.718c0.032,0.301,0.073,0.594,0.114,0.888c0.961,7.024,3.594,13.527,7.497,19.076
	c0.025,0.032,0.049,0.073,0.073,0.105c0.106,0.155,0.22,0.302,0.326,0.457c0.065,0.09,0.138,0.188,0.204,0.277
	c0.073,0.097,0.146,0.203,0.228,0.301c0.13,0.18,0.269,0.358,0.407,0.529c0.179,0.236,0.367,0.474,0.554,0.71
	c0.147,0.171,0.285,0.35,0.432,0.521c0.146,0.171,0.293,0.35,0.44,0.521v-0.009l0,0l4.123-4.123c1.279-1.271,3.357-1.271,4.637,0
	c1.279,1.279,1.279,3.357,0,4.636l-4.124,4.124h-0.007c0.333,0.293,0.676,0.578,1.018,0.847l0.049,0.041
	c0.228,0.18,0.457,0.367,0.685,0.547c0.164,0.122,0.326,0.244,0.489,0.375c0.123,0.089,0.253,0.187,0.375,0.276
	c0.058,0.041,0.106,0.081,0.163,0.114c0.188,0.139,0.383,0.277,0.57,0.416c5.574,3.928,12.101,6.584,19.15,7.546
	c0.293,0.04,0.587,0.081,0.888,0.113c0.245,0.025,0.489,0.058,0.733,0.082c0.074,0.008,0.147,0.016,0.221,0.016
	c0.212,0.024,0.423,0.041,0.643,0.058c0.057,0.009,0.123,0.009,0.188,0.016v-5.858c0-1.809,1.467-3.275,3.276-3.275
	c1.801,0,3.268,1.467,3.268,3.275v5.858c0.065-0.007,0.13-0.007,0.195-0.016c0.212-0.017,0.424-0.033,0.636-0.058
	c0.074,0,0.146-0.008,0.22-0.016c0.244-0.024,0.489-0.057,0.733-0.082c0.302-0.032,0.595-0.073,0.888-0.113
	c5.973-0.815,11.571-2.845,16.525-5.835c0.873-0.521,1.72-1.076,2.551-1.662c0.033-0.024,0.073-0.049,0.106-0.074
	c0.154-0.105,0.301-0.219,0.457-0.325c0.089-0.065,0.187-0.139,0.277-0.204c0.098-0.073,0.204-0.146,0.301-0.228
	c0.179-0.131,0.359-0.269,0.53-0.408c0.236-0.179,0.472-0.367,0.709-0.554c0.171-0.146,0.35-0.285,0.521-0.432
	c0.171-0.147,0.35-0.293,0.521-0.44h-0.008l-4.124-4.124c-1.271-1.278-1.271-3.356,0-4.636c1.28-1.271,3.358-1.271,4.637,0
	l4.123,4.123l0,0v0.009c0.473-0.546,0.93-1.108,1.378-1.679c0.032-0.042,0.065-0.081,0.097-0.131
	c0.122-0.155,0.245-0.318,0.359-0.473c0.13-0.172,0.26-0.343,0.383-0.514c0.138-0.187,0.269-0.366,0.399-0.554
	c1.491-2.118,2.804-4.376,3.903-6.747c1.801-3.862,3.047-8.035,3.642-12.402c0.041-0.294,0.082-0.587,0.115-0.888
	c0.024-0.237,0.057-0.474,0.073-0.718c0.016-0.073,0.016-0.154,0.024-0.236c0.024-0.203,0.041-0.415,0.057-0.619
	c0.008-0.064,0.008-0.138,0.017-0.212h-5.859c-1.808,0-3.275-1.467-3.275-3.268C151.266,113.829,152.732,112.362,154.541,112.362
	L154.541,112.362z"/>
<path fill="#3A9BB6" d="M205.413,80.257c-0.741-0.628-1.744-0.93-2.82-0.686l-10.243,2.331c-0.171-0.383-0.333-0.774-0.505-1.157
	c-0.742-1.662-1.532-3.292-2.379-4.905c-3.797-7.203-8.703-13.87-14.619-19.793c-15.475-15.475-36.05-23.99-57.928-23.99
	c-21.88,0-42.447,8.516-57.921,23.99C43.523,71.521,35,92.088,35,113.968c0,21.887,8.523,42.454,23.998,57.929
	c15.474,15.466,36.041,23.99,57.921,23.99c21.878,0,42.454-8.524,57.928-23.99c12.41-12.419,20.356-28.121,23.004-45.152
	c0.22-1.394-0.88-2.615-2.289-2.607h-0.025c-0.538,0-1.067-0.049-1.589-0.131c-1.23-0.195-2.404,0.604-2.599,1.834
	c-5.721,36.05-37.093,63.666-74.773,63.495c-41.754-0.188-75.211-33.964-75.025-75.718c0.196-41.396,33.931-75.01,75.368-75.01
	c28.283,0,52.974,15.654,65.865,38.757c0.783,1.393,1.516,2.819,2.208,4.261c0.277,0.587,0.546,1.174,0.806,1.768l-1.059,0.245
	l-9.135,2.078c-1.703,0.391-2.673,1.964-2.526,3.496c0.065,0.676,0.342,1.337,0.856,1.898l18.057,19.475l0.229,0.253l0.529,0.571
	c0.099,0.104,0.196,0.187,0.294,0.276c1.744,1.483,4.514,0.733,5.207-1.531l0.22-0.701l0.204-0.668l7.749-25.074
	c0.139-0.432,0.179-0.872,0.139-1.279C206.481,81.568,206.049,80.794,205.413,80.257L205.413,80.257z"/>
</svg>
