<?xml version="1.0" encoding="utf-8"?>
<!-- Generator: Adobe Illustrator 16.0.0, SVG Export Plug-In . SVG Version: 6.00 Build 0)  -->
<!DOCTYPE svg PUBLIC "-//W3C//DTD SVG 1.1//EN" "http://www.w3.org/Graphics/SVG/1.1/DTD/svg11.dtd">
<svg version="1.1" id="Layer_1" xmlns="http://www.w3.org/2000/svg" xmlns:xlink="http://www.w3.org/1999/xlink" x="0px" y="0px"
	 width="35.712px" height="30.917px" viewBox="0 0 35.712 30.917" enable-background="new 0 0 35.712 30.917" xml:space="preserve">
<g>
	<path fill="#4B4B4B" d="M26.326,26.645c-2.458,1.868-5.393,2.856-8.488,2.856c-7.743,0-14.042-6.299-14.042-14.042
		c0-0.324,0.029-0.643,0.05-0.963l2.148,0.576c0.042,0.012,0.086,0.017,0.129,0.017c0.003,0,0.007,0,0.01,0
		c0.299,0.007,0.51-0.22,0.51-0.5c0-0.083-0.02-0.161-0.056-0.229l-1.27-6.412C5.28,7.76,5.139,7.61,4.954,7.562
		C4.771,7.514,4.573,7.574,4.448,7.719l-4.327,5.035c-0.112,0.13-0.149,0.309-0.098,0.473c0.05,0.164,0.182,0.291,0.348,0.335
		l2.078,0.558c-0.038,0.443-0.07,0.888-0.07,1.338c0,8.524,6.935,15.459,15.459,15.459c3.408,0,6.64-1.087,9.346-3.145
		c0.312-0.237,0.372-0.681,0.135-0.993C27.081,26.467,26.637,26.406,26.326,26.645z"/>
	<path fill="#4B4B4B" d="M35.405,18.756l-2.304-0.967c0.115-0.767,0.195-1.541,0.195-2.331C33.296,6.935,26.361,0,17.837,0
		c-3.497,0-6.795,1.139-9.539,3.293C7.99,3.535,7.937,3.98,8.178,4.288c0.243,0.309,0.688,0.361,0.995,0.12
		c2.492-1.957,5.488-2.991,8.664-2.991c7.742,0,14.042,6.299,14.042,14.042c0,0.598-0.044,1.187-0.117,1.769l-1.726-0.724
		c-0.159-0.068-0.343-0.047-0.482,0.053c-0.141,0.1-0.22,0.266-0.21,0.438l0.402,6.659c0.011,0.191,0.131,0.358,0.308,0.432
		c0.062,0.025,0.127,0.038,0.191,0.038c0.12,0,0.239-0.043,0.332-0.126l4.966-4.406c0.128-0.114,0.189-0.286,0.161-0.456
		C35.677,18.966,35.564,18.823,35.405,18.756z"/>
	<path fill="#4B4B4B" d="M17.42,4c-0.392,0-0.708,0.317-0.708,0.708v3.125c-0.725,0.101-1.442,0.319-2.05,0.737
		c-0.977,0.671-1.52,1.71-1.615,3.09c-0.213,3.094,1.806,3.915,3.666,4.326v5.898c-1.012-0.049-1.945-0.225-2.439-0.358
		c-0.379-0.106-0.767,0.12-0.87,0.498c-0.103,0.377,0.12,0.767,0.497,0.87c0.095,0.026,1.318,0.35,2.812,0.415v2.735
		c0,0.392,0.317,0.708,0.708,0.708s0.708-0.317,0.708-0.708v-2.764c0.973-0.09,1.95-0.341,2.732-0.89
		c0.957-0.67,1.494-1.665,1.599-2.956c0.291-3.588-2.297-4.223-4.332-4.611V9.186c0.935,0.041,1.806,0.231,2.25,0.367
		c0.375,0.115,0.77-0.097,0.885-0.47c0.115-0.374-0.095-0.77-0.469-0.885c-0.087-0.027-1.258-0.377-2.667-0.431V4.709
		C18.129,4.317,17.812,4,17.42,4z M14.46,11.758c0.064-0.938,0.392-1.598,1.001-2.018c0.353-0.244,0.786-0.392,1.25-0.475v5.261
		C15.138,14.144,14.334,13.589,14.46,11.758z M21.047,19.318c-0.07,0.862-0.396,1.486-0.998,1.909
		c-0.514,0.361-1.199,0.538-1.92,0.617v-5.575C20.118,16.671,21.223,17.149,21.047,19.318z"/>
</g>
</svg>
