<svg xmlns="http://www.w3.org/2000/svg" width="74.517" height="70.447" viewBox="0 0 74.517 70.447">
  <g id="Group_13" data-name="Group 13" transform="translate(-988 -643)">
    <g id="usersub" transform="translate(988.5 643.5)">
      <g id="Group_11" data-name="Group 11" transform="translate(0.5 24.039)">
        <path id="Path_17" data-name="Path 17" d="M313.073,310.426a10.932,10.932,0,1,1-10.916-10.916,10.932,10.932,0,0,1,10.916,10.916Z" transform="translate(-279.097 -299.51)" fill="none" stroke="#343434" stroke-miterlimit="10" stroke-width="2"/>
        <path id="Path_18" data-name="Path 18" d="M329.741,336.26a23.06,23.06,0,0,0-46.121,0Z" transform="translate(-283.62 -291.352)" fill="none" stroke="#343434" stroke-miterlimit="10" stroke-width="2"/>
      </g>
      <g id="Group_12" data-name="Group 12" transform="translate(26.146 0.5)">
        <path id="Path_19" data-name="Path 19" d="M16.57,20.161V.5H63.441V32.354H30.31" transform="translate(-16.57 -0.5)" fill="none" stroke="#343434" stroke-miterlimit="10" stroke-width="2"/>
        <path id="Path_20" data-name="Path 20" d="M42.031,28.088H26.28l1.883-7.628H40.148Z" transform="translate(-10.784 11.394)" fill="none" stroke="#343434" stroke-miterlimit="10" stroke-width="2"/>
        <line id="Line_23" data-name="Line 23" x2="23.252" transform="translate(11.746 39.482)" fill="none" stroke="#343434" stroke-miterlimit="10" stroke-width="2"/>
      </g>
    </g>
    <g id="baseline-slow_motion_video-24px" transform="translate(1027 647)">
      <path id="Path_741" data-name="Path 741" d="M0,0H24V24H0Z" fill="none"/>
      <path id="Path_742" data-name="Path 742" d="M13.05,9.79,10,7.5v9l3.05-2.29L16,12Zm0,0L10,7.5v9l3.05-2.29L16,12Zm0,0L10,7.5v9l3.05-2.29L16,12ZM11,4.07V2.05A9.949,9.949,0,0,0,5.68,4.26L7.1,5.69A7.941,7.941,0,0,1,11,4.07ZM5.69,7.1,4.26,5.68A9.949,9.949,0,0,0,2.05,11H4.07A7.941,7.941,0,0,1,5.69,7.1ZM4.07,13H2.05a9.949,9.949,0,0,0,2.21,5.32l1.43-1.43A7.868,7.868,0,0,1,4.07,13Zm1.61,6.74A9.981,9.981,0,0,0,11,21.95V19.93a7.941,7.941,0,0,1-3.9-1.62L5.68,19.74ZM22,12a10.015,10.015,0,0,1-8.95,9.95V19.93a8,8,0,0,0,0-15.86V2.05A10.015,10.015,0,0,1,22,12Z"/>
    </g>
  </g>
</svg>
