<svg id="Livello_1" data-name="Livello 1" xmlns="http://www.w3.org/2000/svg" viewBox="0 0 24.62 24.62">
  <defs>
    <style>
      .cls-1 {
        fill: #010101;
      }
    </style>
  </defs>
  <g>
    <path class="cls-1" d="M26.36,23.68a.43.43,0,0,0-.43.43v1.3h-1.3a.43.43,0,0,0,0,.86h1.73a.43.43,0,0,0,.43-.43V24.11A.44.44,0,0,0,26.36,23.68Z" transform="translate(-2.17 -1.65)"/>
    <path class="cls-1" d="M20.57,25.41H16.51a.43.43,0,0,0,0,.86h4.06a.43.43,0,0,0,0-.86Z" transform="translate(-2.17 -1.65)"/>
    <path class="cls-1" d="M12.45,25.41h-2V18.62l5.68-5.68v3.42a.44.44,0,0,0,.87,0V11.9s0-.06,0-.08a.08.08,0,0,1,0,0s0,0,0,0a.08.08,0,0,0,0-.05l0,0a.46.46,0,0,0-.12-.12h0l-.05,0H12.08a.43.43,0,0,0,0,.86h3.41L9.81,18H3V16a.43.43,0,0,0-.86,0v9.85a.43.43,0,0,0,.43.43h9.85a.43.43,0,0,0,0-.86Zm-4.07,0H3V18.88H9.56v6.53Z" transform="translate(-2.17 -1.65)"/>
    <path class="cls-1" d="M2.6,12.36A.43.43,0,0,0,3,11.93V7.87a.43.43,0,1,0-.86,0v4.06A.43.43,0,0,0,2.6,12.36Z" transform="translate(-2.17 -1.65)"/>
    <path class="cls-1" d="M2.6,4.23A.43.43,0,0,0,3,3.8V2.51H4.32a.43.43,0,0,0,0-.86H2.6a.43.43,0,0,0-.43.43V3.8A.43.43,0,0,0,2.6,4.23Z" transform="translate(-2.17 -1.65)"/>
    <path class="cls-1" d="M20.57,1.65H16.51a.43.43,0,0,0,0,.86h4.06a.43.43,0,0,0,0-.86Z" transform="translate(-2.17 -1.65)"/>
    <path class="cls-1" d="M8.38,2.51h4.07a.43.43,0,1,0,0-.86H8.38a.43.43,0,0,0,0,.86Z" transform="translate(-2.17 -1.65)"/>
    <path class="cls-1" d="M26.36,1.65H24.63a.43.43,0,1,0,0,.86h1.3V3.8a.43.43,0,0,0,.43.43.43.43,0,0,0,.43-.43V2.08A.43.43,0,0,0,26.36,1.65Z" transform="translate(-2.17 -1.65)"/>
    <path class="cls-1" d="M26.36,7.43a.44.44,0,0,0-.43.44v4.06a.43.43,0,0,0,.43.43.43.43,0,0,0,.43-.43V7.87A.44.44,0,0,0,26.36,7.43Z" transform="translate(-2.17 -1.65)"/>
    <path class="cls-1" d="M26.36,15.56a.43.43,0,0,0-.43.43v4.06a.43.43,0,0,0,.43.43.43.43,0,0,0,.43-.43V16A.43.43,0,0,0,26.36,15.56Z" transform="translate(-2.17 -1.65)"/>
  </g>
</svg>
