<svg width="20px" height="20px" viewBox="0 0 20 20" version="1.1" xmlns="http://www.w3.org/2000/svg">
    <g id="Logo-&amp;-icons" stroke="none" stroke-width="1" fill="none" fill-rule="evenodd">
        <g id="Icon-Squared" transform="translate(-140.000000, -280.000000)">
            <g id="events" transform="translate(140.000000, 280.000000)">
                <rect id="BG" fill="#0F1031" x="0" y="0" width="20" height="20" rx="2"></rect>
                <path d="M13.9936092,4 L6.19326885,4 C6.08689352,4 6,4.08658458 6,4.19326907 L6,15.8067309 C6,15.9131062 6.08689352,16 6.19326885,16 L13.9936092,16 C14.1002939,16 14.186878,15.9131062 14.186878,15.8067309 L14.186878,14.2744936 C14.186878,14.167809 14.1002939,14.0812245 13.9936092,14.0812245 L8.12750577,14.0812245 L8.12750577,10.846364 L13.8714632,10.846364 C13.978148,10.846364 14.0647321,10.7594702 14.0647321,10.6530949 L14.0647321,9.12085759 C14.0647321,9.01417302 13.978148,8.92758851 13.8714632,8.92758851 L8.12750577,8.92758851 L8.12750577,5.91877546 L13.9936092,5.91877546 C14.1002939,5.91877546 14.186878,5.83219088 14.186878,5.72550639 L14.186878,4.19326907 C14.186878,4.08658458 14.1002939,4 13.9936092,4" id="E" fill="#FFFFFF"></path>
            </g>
        </g>
    </g>
</svg>