<?xml version="1.0" standalone="no"?>
<!DOCTYPE svg PUBLIC "-//W3C//DTD SVG 20010904//EN"
 "http://www.w3.org/TR/2001/REC-SVG-20010904/DTD/svg10.dtd">
<svg version="1.0" xmlns="http://www.w3.org/2000/svg"
 width="155.000000pt" height="250.000000pt" viewBox="0 0 1500.000000 2235.000000"
 preserveAspectRatio="xMidYMid meet">

<g transform="translate(0.000000,2235.000000) scale(0.100000,-0.100000)"
fill="#6927bf" stroke="none">
<path d="M2625 21085 c-322 -59 -563 -315 -606 -644 -44 -331 162 -665 481
-782 449 -163 924 127 991 606 15 109 1 231 -40 345 -123 336 -477 540 -826
475z"/>
<path d="M4040 20695 l0 -225 1630 0 1630 0 0 225 0 225 -1630 0 -1630 0 0
-225z"/>
<path d="M4040 20125 l0 -225 915 0 915 0 0 225 0 225 -915 0 -915 0 0 -225z"/>
<path d="M1970 13730 l0 -5450 5465 0 5465 0 0 5450 0 5450 -5465 0 -5465 0 0
-5450z"/>
<path d="M1950 7835 l0 -205 905 0 905 0 0 205 0 205 -905 0 -905 0 0 -205z"/>
<path d="M11100 7835 l0 -205 910 0 910 0 0 205 0 205 -910 0 -910 0 0 -205z"/>
<path d="M1950 6995 l0 -205 5475 0 5475 0 0 205 0 205 -5475 0 -5475 0 0
-205z"/>
<path d="M1950 6255 l0 -205 2860 0 2860 0 0 205 0 205 -2860 0 -2860 0 0
-205z"/>
</g>
</svg>
