<?xml version="1.0" standalone="no"?>
<!DOCTYPE svg PUBLIC "-//W3C//DTD SVG 20010904//EN"
 "http://www.w3.org/TR/2001/REC-SVG-20010904/DTD/svg10.dtd">
<svg version="1.0" xmlns="http://www.w3.org/2000/svg"
 width="155.000000pt" height="250.000000pt" viewBox="0 0 1500.000000 2235.000000"
 preserveAspectRatio="xMidYMid meet">

<g transform="translate(0.000000,2235.000000) scale(0.100000,-0.100000)"
fill="#6927bf" stroke="none">
<path d="M2625 21085 c-322 -59 -563 -315 -606 -644 -44 -331 162 -665 481
-782 449 -163 924 127 991 606 15 109 1 231 -40 345 -123 336 -477 540 -826
475z"/>
<path d="M4040 20695 l0 -225 1630 0 1630 0 0 225 0 225 -1630 0 -1630 0 0
-225z"/>
<path d="M4040 20125 l0 -225 915 0 915 0 0 225 0 225 -915 0 -915 0 0 -225z"/>
<path d="M2000 16465 l0 -2695 2690 0 2690 0 0 2695 0 2695 -2690 0 -2690 0 0
-2695z"/>
<path d="M7590 17815 l0 -1345 1260 0 1260 0 0 1345 0 1345 -1260 0 -1260 0 0
-1345z"/>
<path d="M10290 17815 l0 -1345 1350 0 1350 0 0 1345 0 1345 -1350 0 -1350 0
0 -1345z"/>
<path d="M7590 13665 l0 -2655 2700 0 2700 0 0 2655 0 2655 -2700 0 -2700 0 0
-2655z"/>
<path d="M2000 12300 l0 -1290 1340 0 1340 0 0 1290 0 1290 -1340 0 -1340 0 0
-1290z"/>
<path d="M4860 12300 l0 -1290 1260 0 1260 0 0 1290 0 1290 -1260 0 -1260 0 0
-1290z"/>
<path d="M2000 8235 l0 -2595 2690 0 2690 0 0 2595 0 2595 -2690 0 -2690 0 0
-2595z"/>
<path d="M7590 9585 l0 -1245 1260 0 1260 0 0 1245 0 1245 -1260 0 -1260 0 0
-1245z"/>
<path d="M10290 9585 l0 -1245 1350 0 1350 0 0 1245 0 1245 -1350 0 -1350 0 0
-1245z"/>
<path d="M7590 5475 l0 -2655 2700 0 2700 0 0 2655 0 2655 -2700 0 -2700 0 0
-2655z"/>
<path d="M2000 4170 l0 -1350 1325 0 1325 0 0 1350 0 1350 -1325 0 -1325 0 0
-1350z"/>
<path d="M4830 4170 l0 -1350 1275 0 1275 0 0 1350 0 1350 -1275 0 -1275 0 0
-1350z"/>
</g>
</svg>
