<?xml version="1.0" standalone="no"?>
<!DOCTYPE svg PUBLIC "-//W3C//DTD SVG 20010904//EN"
 "http://www.w3.org/TR/2001/REC-SVG-20010904/DTD/svg10.dtd">
<svg version="1.0" xmlns="http://www.w3.org/2000/svg"
 width="155.000000pt" height="250.000000pt" viewBox="0 0 1500.000000 2235.000000"
 preserveAspectRatio="xMidYMid meet">

<g transform="translate(0.000000,2235.000000) scale(0.100000,-0.100000)"
fill="#6927bf" stroke="none">
<path d="M2725 21165 c-322 -59 -563 -315 -606 -644 -44 -331 162 -665 481
-782 449 -163 924 127 991 606 15 109 1 231 -40 345 -123 336 -477 540 -826
475z"/>
<path d="M4140 20775 l0 -225 1630 0 1630 0 0 225 0 225 -1630 0 -1630 0 0
-225z"/>
<path d="M4140 20205 l0 -225 915 0 915 0 0 225 0 225 -915 0 -915 0 0 -225z"/>
<path d="M2110 16465 l0 -2695 2695 0 2695 0 0 2695 0 2695 -2695 0 -2695 0 0
-2695z"/>
<path d="M7920 16465 l0 -2695 2655 0 2655 0 0 2695 0 2695 -2655 0 -2655 0 0
-2695z"/>
<path d="M2110 10705 l0 -2625 2695 0 2695 0 0 2625 0 2625 -2695 0 -2695 0 0
-2625z"/>
<path d="M7920 10705 l0 -2625 2655 0 2655 0 0 2625 0 2625 -2655 0 -2655 0 0
-2625z"/>
<path d="M2110 4975 l0 -2695 2695 0 2695 0 0 2695 0 2695 -2695 0 -2695 0 0
-2695z"/>
<path d="M7920 4975 l0 -2695 2655 0 2655 0 0 2695 0 2695 -2655 0 -2655 0 0
-2695z"/>
</g>
</svg>
