<?xml version="1.0" standalone="no"?>
<!DOCTYPE svg PUBLIC "-//W3C//DTD SVG 20010904//EN"
 "http://www.w3.org/TR/2001/REC-SVG-20010904/DTD/svg10.dtd">
<svg version="1.0" xmlns="http://www.w3.org/2000/svg"
 width="155.000000pt" height="250.000000pt" viewBox="0 0 1500.000000 2235.000000"
 preserveAspectRatio="xMidYMid meet">

<g transform="translate(0.000000,2235.000000) scale(0.100000,-0.100000)"
fill="#6927bf" stroke="none">
<path d="M2485 21165 c-322 -59 -563 -315 -606 -644 -44 -331 162 -665 481
-782 449 -163 924 127 991 606 15 109 1 231 -40 345 -123 336 -477 540 -826
475z"/>
<path d="M3900 20775 l0 -225 1630 0 1630 0 0 225 0 225 -1630 0 -1630 0 0
-225z"/>
<path d="M3900 20205 l0 -225 915 0 915 0 0 225 0 225 -915 0 -915 0 0 -225z"/>
<path d="M1920 17260 l0 -1900 1860 0 1860 0 0 1900 0 1900 -1860 0 -1860 0 0
-1900z"/>
<path d="M5880 17260 l0 -1900 1830 0 1830 0 0 1900 0 1900 -1830 0 -1830 0 0
-1900z"/>
<path d="M9750 17260 l0 -1900 1875 0 1875 0 0 1900 0 1900 -1875 0 -1875 0 0
-1900z"/>
<path d="M2010 15125 l0 -45 1780 0 1780 0 0 45 0 45 -1780 0 -1780 0 0 -45z"/>
<path d="M5940 15125 l0 -45 1780 0 1780 0 0 45 0 45 -1780 0 -1780 0 0 -45z"/>
<path d="M9880 15085 l0 -45 1780 0 1780 0 0 45 0 45 -1780 0 -1780 0 0 -45z"/>
<path d="M2010 14905 l0 -45 1780 0 1780 0 0 45 0 45 -1780 0 -1780 0 0 -45z"/>
<path d="M5940 14905 l0 -45 1000 0 1000 0 0 45 0 45 -1000 0 -1000 0 0 -45z"/>
<path d="M9880 14865 l0 -45 1780 0 1780 0 0 45 0 45 -1780 0 -1780 0 0 -45z"/>
<path d="M2010 14685 l0 -45 1000 0 1000 0 0 45 0 45 -1000 0 -1000 0 0 -45z"/>
<path d="M9880 14645 l0 -45 1780 0 1780 0 0 45 0 45 -1780 0 -1780 0 0 -45z"/>
<path d="M5880 12810 l0 -1860 1830 0 1830 0 0 1860 0 1860 -1830 0 -1830 0 0
-1860z"/>
<path d="M9880 14425 l0 -45 1000 0 1000 0 0 45 0 45 -1000 0 -1000 0 0 -45z"/>
<path d="M1920 12585 l0 -1875 1860 0 1860 0 0 1875 0 1875 -1860 0 -1860 0 0
-1875z"/>
<path d="M9750 12180 l0 -1890 1875 0 1875 0 0 1890 0 1890 -1875 0 -1875 0 0
-1890z"/>
<path d="M5920 10725 l0 -45 1780 0 1780 0 0 45 0 45 -1780 0 -1780 0 0 -45z"/>
<path d="M5920 10505 l0 -45 1780 0 1780 0 0 45 0 45 -1780 0 -1780 0 0 -45z"/>
<path d="M5920 10285 l0 -45 1780 0 1780 0 0 45 0 45 -1780 0 -1780 0 0 -45z"/>
<path d="M5920 10065 l0 -45 1000 0 1000 0 0 45 0 45 -1000 0 -1000 0 0 -45z"/>
<path d="M9860 10055 l0 -45 1780 0 1780 0 0 45 0 45 -1780 0 -1780 0 0 -45z"/>
<path d="M9860 9835 l0 -45 1780 0 1780 0 0 45 0 45 -1780 0 -1780 0 0 -45z"/>
<path d="M1920 7935 l0 -1875 1860 0 1860 0 0 1875 0 1875 -1860 0 -1860 0 0
-1875z"/>
<path d="M9860 9615 l0 -45 1780 0 1780 0 0 45 0 45 -1780 0 -1780 0 0 -45z"/>
<path d="M9860 9395 l0 -45 1000 0 1000 0 0 45 0 45 -1000 0 -1000 0 0 -45z"/>
<path d="M5880 7560 l0 -1860 1830 0 1830 0 0 1860 0 1860 -1830 0 -1830 0 0
-1860z"/>
<path d="M9750 7050 l0 -1860 1875 0 1875 0 0 1860 0 1860 -1875 0 -1875 0 0
-1860z"/>
<path d="M2000 5795 l0 -45 1780 0 1780 0 0 45 0 45 -1780 0 -1780 0 0 -45z"/>
<path d="M2000 5575 l0 -45 1780 0 1780 0 0 45 0 45 -1780 0 -1780 0 0 -45z"/>
<path d="M5940 5375 l0 -45 1780 0 1780 0 0 45 0 45 -1780 0 -1780 0 0 -45z"/>
<path d="M2000 5355 l0 -45 1780 0 1780 0 0 45 0 45 -1780 0 -1780 0 0 -45z"/>
<path d="M5940 5155 l0 -45 1780 0 1780 0 0 45 0 45 -1780 0 -1780 0 0 -45z"/>
<path d="M2000 5135 l0 -45 1000 0 1000 0 0 45 0 45 -1000 0 -1000 0 0 -45z"/>
<path d="M5940 4935 l0 -45 1000 0 1000 0 0 45 0 45 -1000 0 -1000 0 0 -45z"/>
<path d="M9860 4885 l0 -45 1780 0 1780 0 0 45 0 45 -1780 0 -1780 0 0 -45z"/>
<path d="M9860 4665 l0 -45 1000 0 1000 0 0 45 0 45 -1000 0 -1000 0 0 -45z"/>
</g>
</svg>
