<?xml version="1.0" standalone="no"?>
<!DOCTYPE svg PUBLIC "-//W3C//DTD SVG 20010904//EN"
 "http://www.w3.org/TR/2001/REC-SVG-20010904/DTD/svg10.dtd">
<svg version="1.0" xmlns="http://www.w3.org/2000/svg"
 width="155.000000pt" height="250.000000pt" viewBox="0 0 1500.000000 2235.000000"
 preserveAspectRatio="xMidYMid meet">

<g transform="translate(0.000000,2235.000000) scale(0.100000,-0.100000)"
fill="#6927bf" stroke="none">
<path d="M1885 21165 c-322 -59 -563 -315 -606 -644 -44 -331 162 -665 481
-782 449 -163 924 127 991 606 15 109 1 231 -40 345 -123 336 -477 540 -826
475z"/>
<path d="M3300 20775 l0 -225 1630 0 1630 0 0 225 0 225 -1630 0 -1630 0 0
-225z"/>
<path d="M3300 20205 l0 -225 915 0 915 0 0 225 0 225 -915 0 -915 0 0 -225z"/>
<path d="M1270 17610 l0 -1550 1545 0 1545 0 0 1550 0 1550 -1545 0 -1545 0 0
-1550z"/>
<path d="M4420 17610 l0 -1550 1570 0 1570 0 0 1550 0 1550 -1570 0 -1570 0 0
-1550z"/>
<path d="M7620 17610 l0 -1550 1560 0 1560 0 0 1550 0 1550 -1560 0 -1560 0 0
-1550z"/>
<path d="M10800 17610 l0 -1550 1545 0 1545 0 0 1550 0 1550 -1545 0 -1545 0
0 -1550z"/>
<path d="M1270 14425 l0 -1585 1545 0 1545 0 0 1585 0 1585 -1545 0 -1545 0 0
-1585z"/>
<path d="M4420 14425 l0 -1585 1570 0 1570 0 0 1585 0 1585 -1570 0 -1570 0 0
-1585z"/>
<path d="M7620 14425 l0 -1585 1560 0 1560 0 0 1585 0 1585 -1560 0 -1560 0 0
-1585z"/>
<path d="M10800 14425 l0 -1585 1545 0 1545 0 0 1585 0 1585 -1545 0 -1545 0
0 -1585z"/>
<path d="M1270 11225 l0 -1565 1545 0 1545 0 0 1565 0 1565 -1545 0 -1545 0 0
-1565z"/>
<path d="M4420 11225 l0 -1565 1570 0 1570 0 0 1565 0 1565 -1570 0 -1570 0 0
-1565z"/>
<path d="M7620 11225 l0 -1565 1560 0 1560 0 0 1565 0 1565 -1560 0 -1560 0 0
-1565z"/>
<path d="M10800 11225 l0 -1565 1545 0 1545 0 0 1565 0 1565 -1545 0 -1545 0
0 -1565z"/>
</g>
</svg>
