<?xml version="1.0" standalone="no"?>
<!DOCTYPE svg PUBLIC "-//W3C//DTD SVG 20010904//EN"
 "http://www.w3.org/TR/2001/REC-SVG-20010904/DTD/svg10.dtd">
<svg version="1.0" xmlns="http://www.w3.org/2000/svg"
 width="155.000000pt" height="250.000000pt" viewBox="0 0 1500.000000 2235.000000"
 preserveAspectRatio="xMidYMid meet">

<g transform="translate(0.000000,2235.000000) scale(0.100000,-0.100000)"
fill="#6927bf" stroke="none">
<path d="M2445 21085 c-322 -59 -563 -315 -606 -644 -44 -331 162 -665 481
-782 449 -163 924 127 991 606 15 109 1 231 -40 345 -123 336 -477 540 -826
475z"/>
<path d="M3860 20695 l0 -225 1630 0 1630 0 0 225 0 225 -1630 0 -1630 0 0
-225z"/>
<path d="M3860 20125 l0 -225 915 0 915 0 0 225 0 225 -915 0 -915 0 0 -225z"/>
<path d="M1830 17755 l0 -1405 1425 0 1425 0 0 1405 0 1405 -1425 0 -1425 0 0
-1405z"/>
<path d="M4830 17755 l0 -1405 1375 0 1375 0 0 1405 0 1405 -1375 0 -1375 0 0
-1405z"/>
<path d="M7720 16315 l0 -2845 2885 0 2885 0 0 2845 0 2845 -2885 0 -2885 0 0
-2845z"/>
<path d="M1830 14820 l0 -1350 1425 0 1425 0 0 1350 0 1350 -1425 0 -1425 0 0
-1350z"/>
<path d="M4830 14820 l0 -1350 1375 0 1375 0 0 1350 0 1350 -1375 0 -1375 0 0
-1350z"/>
<path d="M1830 11925 l0 -1395 1425 0 1425 0 0 1395 0 1395 -1425 0 -1425 0 0
-1395z"/>
<path d="M4830 11925 l0 -1395 1375 0 1375 0 0 1395 0 1395 -1375 0 -1375 0 0
-1395z"/>
<path d="M7720 11925 l0 -1395 1375 0 1375 0 0 1395 0 1395 -1375 0 -1375 0 0
-1395z"/>
<path d="M10620 11925 l0 -1395 1435 0 1435 0 0 1395 0 1395 -1435 0 -1435 0
0 -1395z"/>
<path d="M1830 7540 l0 -2840 2875 0 2875 0 0 2840 0 2840 -2875 0 -2875 0 0
-2840z"/>
<path d="M7720 9015 l0 -1365 1375 0 1375 0 0 1365 0 1365 -1375 0 -1375 0 0
-1365z"/>
<path d="M10620 9015 l0 -1365 1435 0 1435 0 0 1365 0 1365 -1435 0 -1435 0 0
-1365z"/>
<path d="M7720 6085 l0 -1385 1375 0 1375 0 0 1385 0 1385 -1375 0 -1375 0 0
-1385z"/>
<path d="M10620 6085 l0 -1385 1435 0 1435 0 0 1385 0 1385 -1435 0 -1435 0 0
-1385z"/>
</g>
</svg>
