<?xml version="1.0" encoding="utf-8"?>
<!-- Generator: Adobe Illustrator 19.2.1, SVG Export Plug-In . SVG Version: 6.00 Build 0)  -->
<svg version="1.1" id="Capa_1" xmlns="http://www.w3.org/2000/svg" xmlns:xlink="http://www.w3.org/1999/xlink" x="0px" y="0px"
	 width="11px" height="14.7px" viewBox="506.5 376.7 11 14.7" style="enable-background:new 506.5 376.7 11 14.7;"
	 xml:space="preserve">
<style type="text/css">
	.st0{fill:#FFFFFF;}
</style>
<path class="st0" d="M517.2,391.3h-10.4c-0.2,0-0.3-0.1-0.3-0.3v-8.6c0-0.2,0.1-0.3,0.3-0.3h8.3v-1.8c0-1.7-1.4-3.1-3.1-3.1
	s-3.1,1.4-3.1,3.1h-0.6c0-2,1.6-3.7,3.7-3.7c2,0,3.7,1.6,3.7,3.7v1.8h1.5c0.2,0,0.3,0.1,0.3,0.3v8.6
	C517.5,391.2,517.4,391.3,517.2,391.3z M507.1,390.7h9.8v-7.9h-9.8V390.7z"/>
</svg>
