<?xml version="1.0" encoding="utf-8"?>
<!-- Generator: Adobe Illustrator 21.1.0, SVG Export Plug-In . SVG Version: 6.00 Build 0)  -->
<svg version="1.1" id="Layer_1" xmlns="http://www.w3.org/2000/svg" xmlns:xlink="http://www.w3.org/1999/xlink" x="0px" y="0px"
	 width="120px" height="20px" viewBox="0 0 120 20" style="enable-background:new 0 0 120 20;" xml:space="preserve">
<style type="text/css">
	.st0{fill:#919090;}
	.st1{fill:#909090;}
</style>
<path class="st0" d="M36.3,12.6c-1.2-1.2-2.6-2-4.2-2.4c1.7-0.7,2.8-2.5,2.8-4.5c0-2.7-2.2-5-5-5c-2.7,0-5,2.2-5,5
	c0,2,1.2,3.7,2.8,4.5c-1.6,0.4-3,1.2-4.2,2.4c-1.7,1.7-2.6,4-2.6,6.4c0,0.2,0.2,0.4,0.4,0.4c0.2,0,0.4-0.2,0.4-0.4
	c0-4.6,3.7-8.3,8.3-8.3s8.3,3.7,8.3,8.3c0,0.2,0.2,0.4,0.4,0.4c0.2,0,0.4-0.2,0.4-0.4C38.9,16.5,38,14.3,36.3,12.6z M25.7,5.7
	c0-2.3,1.9-4.2,4.2-4.2s4.2,1.9,4.2,4.2s-1.9,4.2-4.2,4.2C27.6,9.9,25.7,8,25.7,5.7z"/>
<g>
	<polygon class="st1" points="80.5,19.5 80.5,19.5 80.4,19.5 	"/>
	<path class="st1" d="M94.6,0c-3,0-5.4,2.4-5.4,5.4c0,0.9,0.2,1.7,0.6,2.5l-9.3,9.3c-0.6,0.6-0.6,1.7,0,2.3c0.6,0.6,1.7,0.6,2.3,0
		l1.4-1.4l1.9,1.9l2.3-2.3l-1.9-1.9l1.2-1.2l1.5,1.5l2.3-2.3L90,12.3l2.1-2.1c0.7,0.4,1.6,0.6,2.5,0.6c3,0,5.4-2.4,5.4-5.4
		S97.6,0,94.6,0z M94.6,10c-1,0-1.9-0.3-2.6-0.8l-3.1,3.1l1.5,1.5L89.2,15l-1.5-1.5l-2.3,2.3l1.9,1.9l-1.2,1.2L84.2,17l-2,2
		c-0.3,0.3-0.9,0.3-1.2,0l0,0c-0.3-0.3-0.3-0.9,0-1.2L90.8,8C90.3,7.3,90,6.4,90,5.4c0-2.5,2.1-4.6,4.6-4.6s4.6,2.1,4.6,4.6
		S97.2,10,94.6,10z"/>
	<path class="st1" d="M94.6,2.3c-1.7,0-3.1,1.4-3.1,3.1s1.4,3.1,3.1,3.1c1.7,0,3.1-1.4,3.1-3.1C97.7,3.6,96.3,2.3,94.6,2.3z
		 M94.6,7.7c-1.3,0-2.3-1-2.3-2.3s1-2.3,2.3-2.3c1.3,0,2.3,1,2.3,2.3S95.9,7.7,94.6,7.7z"/>
</g>
</svg>
