<?xml version="1.0" encoding="utf-8"?>
<!-- Generator: Adobe Illustrator 19.0.0, SVG Export Plug-In . SVG Version: 6.00 Build 0)  -->
<svg version="1.1" id="Layer_1" xmlns="http://www.w3.org/2000/svg" xmlns:xlink="http://www.w3.org/1999/xlink" x="0px" y="0px"
	 width="18px" height="18.6px" viewBox="182.1 387.7 18 18.6" style="enable-background:new 182.1 387.7 18 18.6;"
	 xml:space="preserve">
<style type="text/css">
	.st0{fill:#919090;}
</style>
<path class="st0" d="M197.5,399.6c-1.2-1.2-2.6-2-4.2-2.4c1.7-0.8,2.8-2.5,2.8-4.5c0-2.7-2.2-5-5-5c-2.7,0-5,2.2-5,5
	c0,2,1.2,3.7,2.8,4.5c-1.6,0.4-3,1.2-4.2,2.4c-1.7,1.7-2.6,4-2.6,6.4c0,0.2,0.2,0.4,0.4,0.4s0.4-0.2,0.4-0.4c0-4.6,3.7-8.3,8.3-8.3
	s8.3,3.7,8.3,8.3c0,0.2,0.2,0.4,0.4,0.4c0.2,0,0.4-0.2,0.4-0.4C200.1,403.5,199.2,401.3,197.5,399.6z M186.9,392.7
	c0-2.3,1.9-4.2,4.2-4.2c2.3,0,4.2,1.9,4.2,4.2c0,2.3-1.9,4.2-4.2,4.2C188.8,396.9,186.9,395,186.9,392.7z"/>
</svg>
