<?xml version="1.0" encoding="UTF-8"?>
<svg width="20px" height="20px" viewBox="0 0 20 20" version="1.1" xmlns="http://www.w3.org/2000/svg" xmlns:xlink="http://www.w3.org/1999/xlink">
    <title>metabox</title>
    <g id="Logo-&amp;-icons" stroke="none" stroke-width="1" fill="none" fill-rule="evenodd">
        <g id="Icon-Squared" transform="translate(-140.000000, -380.000000)">
            <g id="metabox" transform="translate(140.000000, 380.000000)">
                <rect id="Rectangle-Copy-8" fill="#000000" x="0" y="0" width="20" height="20" rx="2"></rect>
                <polygon id="Path" fill="#FFFFFF" fill-rule="nonzero" points="13.0549944 11.9205387 13.2390572 7.69158249 13.1986532 7.68709315 10.6352413 14.7757576 9.34680135 14.7757576 6.79685746 7.71402918 6.75645342 7.71851852 6.94051627 11.9205387 6.94051627 13.4289562 7.9640853 13.6264871 7.9640853 14.7757576 4 14.7757576 4 13.6264871 5.01907969 13.4289562 5.01907969 6.55578002 4 6.35824916 4 5.2 5.01907969 5.2 7.52413019 5.2 9.96632997 12.2572391 10.0022447 12.2572391 12.4624018 5.2 16 5.2 16 6.35824916 14.976431 6.55578002 14.976431 13.4289562 16 13.6264871 16 14.7757576 12.0359147 14.7757576 12.0359147 13.6264871 13.0549944 13.4289562"></polygon>
            </g>
        </g>
    </g>
</svg>