<svg viewBox="0 0 48 48" xmlns="http://www.w3.org/2000/svg"><path d="m31 13h-4a1 1 0 0 1 0-2h4a1 1 0 0 1 0 2z" fill="#919191"/><path d="m15 34a6 6 0 1 1 -9.12-5.12 6 6 0 0 1 9.12 5.12z" fill="#374f68"/><path d="m14.12 37.12c-5.3 3.26-11.53-2.9-8.24-8.24 5.32-3.28 11.51 2.93 8.24 8.24z" fill="#425b72"/><path d="m11 34a2 2 0 1 1 -2.82-1.82 2 2 0 0 1 2.82 1.82z" fill="#dad7e5"/><path d="m10.82 34.82a2 2 0 0 1 -2.64-2.64 2 2 0 0 1 2.64 2.64z" fill="#edebf2"/><path d="m47 34a6 6 0 1 1 -9.12-5.12 6 6 0 0 1 9.12 5.12z" fill="#374f68"/><path d="m46.12 37.12c-5.3 3.26-11.53-2.9-8.24-8.24 5.32-3.28 11.51 2.93 8.24 8.24z" fill="#425b72"/><path d="m43 34a2 2 0 1 1 -2.82-1.82 2 2 0 0 1 2.82 1.82z" fill="#dad7e5"/><path d="m42.82 34.82a2 2 0 0 1 -2.64-2.64 2 2 0 0 1 2.64 2.64z" fill="#edebf2"/><path d="m47 30.5c-1.16.67-.17.5-5.2.5-3.07 0-2.53 3-5.6 3h-2.26c0-7.16 9.54-9.67 13.06-3.5z" fill="#ffba55"/><path d="m45.84 29c-2.09 0-3.58-.28-4.9 1.58a3.37 3.37 0 0 1 -2.74 1.42 1.88 1.88 0 0 1 -1.79-2.52 6.83 6.83 0 0 1 .67-1.32 7 7 0 0 1 8.76.84z" fill="#fc6"/><path d="m22.4 21.4c-.83.81-1.14.6-7.4.6v-4.5l6.07.38a2.07 2.07 0 0 1 1.33 3.52z" fill="#7c7d7d"/><path d="m23 20h-3.63a2.37 2.37 0 0 1 -2.37-2.37l4.07.25a2.07 2.07 0 0 1 1.93 2.12z" fill="#919191"/><path d="m38 9v4a1 1 0 0 1 -1 1h-5a1 1 0 0 1 -1-1 5 5 0 0 1 2.61-4.39 6 6 0 0 1 3.39-.61 1 1 0 0 1 1 1z" fill="#ffba55"/><path d="m38 9v3h-4c-1.46 0-1.06-2.16-.39-3.39a6 6 0 0 1 3.39-.61 1 1 0 0 1 1 1z" fill="#fc6"/><path d="m40.21 27a7 7 0 0 0 -6.27 7h-14.94a4.39 4.39 0 0 0 -4.16-3h-12.72a1 1 0 0 1 -1-1.11l.39-3.44a5 5 0 0 1 5-4.45h14.49l2 8h8a15.06 15.06 0 0 0 1.51-14.86l-.51-1.14h4c2.19 4.37 4 7.44 4.21 13z" fill="#fc6"/><path d="m40.21 27a7 7 0 0 0 -6 5h-13.21a4.39 4.39 0 0 0 -4.16-3h-12.72a1 1 0 0 1 -1-1.11c.37-3.3.34-4.11 1-5.28 1.47-.83.88-.61 16.88-.61l2 8h8a15.09 15.09 0 0 0 1.51-14.86l-.51-1.14h4c2.11 4.22 4.1 7.59 4.21 13z" fill="#ffde76"/><path d="m42 11a2.35 2.35 0 0 1 -2.34 2.34 6.42 6.42 0 0 1 -1.66-.34v-4l1-.25a2.35 2.35 0 0 1 3 2.25z" fill="#9fdbf3"/><path d="m41.74 12.07c-1 .5-1.67.19-2.74-.07 0-3.61 0-3.24.09-3.27a2.34 2.34 0 0 1 2.65 3.34z" fill="#b2e5fb"/><path d="m11 28h-4a1 1 0 0 1 0-2h4a1 1 0 0 1 0 2z" fill="#ffba55"/><path d="m1 10h14v12h-14z" fill="#df8761"/><path d="m15 10v10h-9a3 3 0 0 1 -3-3v-7z" fill="#f29b75"/><path d="m10 10v5l-2-1-2 1v-5z" fill="#fc6"/><path d="m10 10v3a3 3 0 0 1 -3-3z" fill="#ffde76"/></svg>