<svg enable-background="new 0 0 33.7 31.3" viewBox="0 0 33.7 31.3" xmlns="http://www.w3.org/2000/svg"><path d="m26.1 8.7c.3.6.5 1.3.5 2 .1 1.3-.6 2.4-1.7 3l-3.5-7.2c1.6-.8 3.7.3 4.7 2.2zm-19 13.8 1.5-.7 3.5 7.2c.1.2.2.4.2.7 0 .6-.4 1.2-1 1.4-.8.4-1.8 0-2.2-.8l-3.5-7.2v-.2c.5-.1 1-.2 1.5-.4z" fill="#d25065"/><path d="m4.4 13.2 4.2 8.6-1.5.7c-.5.2-1 .4-1.5.4-2.1.3-4.1-.8-5.1-2.7-.3-.6-.5-1.3-.5-2 0-1.9 1.2-3.6 2.9-4.3z" fill="#d23b54"/><path d="m24.8 13.7 3.2 6.5s-5.2-1.2-19.4 1.6l-4.2-8.6c12.1-9 13.7-13.2 13.7-13.2l3.2 6.5z" fill="#ffd180"/><path d="m7 18.5-1.5.7c-.5.2-1 .4-1.5.4-1.4.2-2.9-.3-4-1.2 0 .6.2 1.2.5 1.8.9 1.9 3 3 5.1 2.7.5-.1 1.1-.2 1.5-.4l1.5-.7z" fill="#bf3f49"/><path d="m7 18.5 1.6 3.3c14.2-2.8 19.4-1.6 19.4-1.6l-1.9-3.8c-4.1-.1-8.1.2-12.1.9-2.1.3-4.1-.7-5.1-2.6l-1.9-3.5c-.8.6-1.7 1.3-2.6 2z" fill="#f2b150"/><path d="m8.3 25.6c-.4-.9-.1-1.9.8-2.3 0 0 .1 0 .1-.1h.1l-.6-1.4-1.5.7c-.5.2-1 .4-1.5.4v.2l3.5 7.2c.4.7 1.2 1.1 2 .9zm15.4-16.8-1.2-2.5c-.4 0-.8.1-1.2.2l3.5 7.2c1.1-.6 1.8-1.7 1.7-3 0-.3 0-.6-.1-.9-1 .4-2.2 0-2.7-1z" fill="#bf3f49"/><path d="m9.5 13.2c-.4 0-.8-.2-1-.6-.4-.6-.2-1.3.3-1.7 1.2-.8 3.8-3 5.2-4.2.5-.4 1.3-.4 1.7.2.4.5.4 1.3-.2 1.7-2 1.6-4.2 3.5-5.4 4.3-.1.2-.4.3-.6.3zm9.8-8.3c0-.7-.5-1.2-1.2-1.2-.1 0-.2 0-.2 0-.1 0-.2 0-.2.1-.1 0-.1.1-.2.1 0 0-.1.1-.1.1l-.8.7c-.5.4-.6 1.2-.1 1.7.2.3.6.4.9.4s.6-.1.8-.3l.8-.7c.2-.2.3-.5.3-.9z" fill="#ffe0b3"/><path d="m27.2 8.2c-.5 0-.8-.3-.8-.8 0-.3.2-.6.4-.7l5.8-3.3c.4-.2.9-.1 1.1.3s.1.9-.3 1.1l-5.8 3.3c-.2.1-.3.1-.4.1zm-1.7-2.4c-.2 0-.4-.1-.5-.2-.3-.3-.4-.8-.1-1.1l3.5-4.1c.3-.3.8-.4 1.2-.1s.4.7.1 1.1l-3.5 4.1c-.2.2-.4.3-.7.3zm7.4 4.9h-4.9c-.5-.1-.8-.5-.7-.9 0-.4.3-.7.7-.7h4.9c.5.1.8.5.7.9 0 .4-.3.7-.7.7z" fill="#d23b54"/></svg>