<svg viewBox="0 0 77.94 73.68" xmlns="http://www.w3.org/2000/svg" xmlns:xlink="http://www.w3.org/1999/xlink"><linearGradient id="a" gradientTransform="matrix(-1 0 0 1 278.59 0)" gradientUnits="userSpaceOnUse" x1="253.22" x2="264.2" y1="24.57" y2="65.52"><stop offset="0" stop-color="#c7a58d"/><stop offset="1" stop-color="#b89882"/></linearGradient><linearGradient id="b" gradientTransform="matrix(-1 0 0 1 278.59 0)" gradientUnits="userSpaceOnUse" x1="223.88" x2="212.68" y1="33.32" y2="72.37"><stop offset="0" stop-color="#aa8c79"/><stop offset="1" stop-color="#9d8472"/></linearGradient><linearGradient id="c" x1="255.88" x2="262.69" xlink:href="#a" y1="13.47" y2="38.88"/><linearGradient id="d" x1="220.87" x2="212.77" xlink:href="#b" y1="22.77" y2="53.01"/><linearGradient id="e" gradientTransform="matrix(-1 0 0 1 278.59 0)" gradientUnits="userSpaceOnUse" x1="239.88" x2="239.88" y1="37.16" y2="27.02"><stop offset="0" stop-color="#bb9c85"/><stop offset="1" stop-color="#f2d3bb"/></linearGradient><linearGradient id="f" gradientTransform="matrix(-1 0 0 1 278.59 0)" gradientUnits="userSpaceOnUse" x1="259.31" x2="263.18" y1="36.21" y2="29.5"><stop offset="0" stop-color="#e9c4aa"/><stop offset=".34" stop-color="#aa8c79"/><stop offset="1" stop-color="#9d8472"/></linearGradient><linearGradient id="g" x1="240.2" x2="239.07" xlink:href="#e" y1="74.17" y2="9.38"/><g fill-rule="evenodd"><path d="m38.97 46.6-37.7 13.54 37.7 13.53 37.7-13.53z" fill="#8f8f8f"/><path d="m38.97 1.22-37.7 13.54 37.7 13.54 37.7-13.54z" fill="#edecec"/><path d="m1.27 60.02v-45.26l37.7 13.54v45.26z" fill="url(#a)"/><path d="m76.67 60.02v-45.26l-37.7 13.54v45.26z" fill="url(#b)"/><path d="m1.27 24.14v-9.38l37.73 13.54v9.38z" fill="#b89983"/><path d="m76.67 24.14v-9.38l-37.67 13.54v9.38z" fill="#9d816e"/><path d="m76.67 14.96v-.2l-37.7 13.54-37.7-13.54v.2l37.7 13.75z" fill="#fff"/><path d="m38.97 0-38.97 14 38.97 13.99 38.97-13.99z" fill="#e9c4aa"/><path d="m0 23.01v-9.01l38.97 13.99v9.01z" fill="url(#c)"/><path d="m77.94 23.01v-9.01l-38.97 13.99v9.01z" fill="url(#d)"/><path d="m38.45 27.8.52.19v9.01l-.52-.18z" fill="url(#e)"/><path d="m77.94 14.21v-.21l-38.97 13.99-38.97-13.99v.21l38.97 14.2z" fill="#f2d3bb"/><path d="m24.1 35.79-8.72-3.11a1.75 1.75 0 0 0 -2.38 1.86 4.38 4.38 0 0 0 2.42 3.81l8.72 3.11c1.33.47 2.42-.59 2.42-2.09a4 4 0 0 0 -2.46-3.58z" fill="url(#f)"/><path d="m24.1 35.79-8.72-3.11c-1.15-.5-2 .47-2 1.74a4 4 0 0 0 2.46 3.58l8.72 3.11c1.15.49 2-.48 2-1.75a4 4 0 0 0 -2.46-3.57z" fill="#5f5243"/><path d="m38.46 37.52.51.18v35.86l-.51-.18z" fill="url(#g)"/></g></svg>