<svg xmlns="http://www.w3.org/2000/svg" viewBox="0 0 48 48"><defs><style>.a{fill:#db5669}.b{fill:#f26674}.c{fill:#c4455e}.d{fill:#ffde76}.e{fill:#edebf2}</style></defs><path class="a" d="M45.93 26.39a3.2 3.2 0 0 0-.76 3.79 3.21 3.21 0 0 1-1.83 4.42 3.19 3.19 0 0 0-2.15 3v.39a3.21 3.21 0 0 1-3.4 3.2 3.19 3.19 0 0 0-3.21 2.14 3.2 3.2 0 0 1-4.42 1.83 3.2 3.2 0 0 0-3.79.76 3.2 3.2 0 0 1-4.78 0 3.2 3.2 0 0 0-3.79-.76 3.2 3.2 0 0 1-4.42-1.83 3.18 3.18 0 0 0-3.21-2.14 3.2 3.2 0 0 1-3.37-3.38 3.19 3.19 0 0 0-2.14-3.21 3.2 3.2 0 0 1-1.83-4.42 3.2 3.2 0 0 0-.76-3.79 3.2 3.2 0 0 1 0-4.78 3.2 3.2 0 0 0 .76-3.79 3.2 3.2 0 0 1 1.83-4.42 3.18 3.18 0 0 0 2.14-3.21 3.2 3.2 0 0 1 3.3-3.39h.29a3.19 3.19 0 0 0 3-2.15 3.21 3.21 0 0 1 4.42-1.83 3.2 3.2 0 0 0 3.79-.76 3.2 3.2 0 0 1 4.78 0 3.21 3.21 0 0 0 3.79.76 3.2 3.2 0 0 1 4.43 1.84 3.19 3.19 0 0 0 3 2.15h.39a3.21 3.21 0 0 1 3.2 3.4 3.19 3.19 0 0 0 2.14 3.21 3.19 3.19 0 0 1 2.15 3c0 1.29-.64 1.52-.64 2.79C44.85 21.68 47 21.53 47 24a3.19 3.19 0 0 1-1.07 2.39z"/><path class="b" d="M45.93 26.39a3.2 3.2 0 0 0-.76 3.79 3.12 3.12 0 0 1 .18 2.3c0 .1-.76 1.28-.82 1.38a3.08 3.08 0 0 1-1.19.74 3.19 3.19 0 0 0-2.15 3v.29C27.32 51.18 4 41.37 4 22a21.9 21.9 0 0 1 6.1-15.2 3.2 3.2 0 0 0 3.3-2.14c.38-1.13 1-1.39 2.11-2a2.89 2.89 0 0 1 .91-.14c1.29 0 1.52.64 2.79.64C21.68 3.15 21.53 1 24 1a3.19 3.19 0 0 1 2.39 1.07 3.21 3.21 0 0 0 3.79.76 3.2 3.2 0 0 1 4.42 1.83 3.18 3.18 0 0 0 3.21 2.14 3.2 3.2 0 0 1 3.39 3.39 3.19 3.19 0 0 0 2.14 3.21 3.2 3.2 0 0 1 1.83 4.42 3.2 3.2 0 0 0 .76 3.79 3.2 3.2 0 0 1 0 4.78z"/><path class="c" d="M41 24a17 17 0 0 1-17 17C8.17 41 1 21.21 13 11c10.87-9.18 28-1.64 28 13z"/><path class="a" d="M41 24a16.91 16.91 0 0 1-4 11 16.91 16.91 0 0 1-11 4C11.38 39 3.81 21.88 13 11c10.87-9.18 28-1.64 28 13z"/><path class="d" d="M31.77 16.23a11 11 0 0 0-15.54 0 1 1 0 0 1-1.42-1.42 13 13 0 0 1 18.38 0 1 1 0 0 1-1.42 1.42zM14.81 33.19a1 1 0 0 1 1.42-1.42 11 11 0 0 0 15.54 0 1 1 0 0 1 1.42 1.42 13 13 0 0 1-18.38 0z"/><path class="e" d="M13 21h2a1 1 0 0 0 0-2h-2a3 3 0 0 0 0 6 1 1 0 0 1 0 2h-2a1 1 0 0 0 0 2h2a3 3 0 0 0 0-6 1 1 0 0 1 0-2zm8.94-1.35a1 1 0 0 0-1.88 0l-3 8a1 1 0 0 0 1.88.7l.5-1.35h3.12l.5 1.35a1 1 0 0 0 1.88-.7zM20.19 25l.81-2.15.81 2.15zM30 27h-2v-7a1 1 0 0 0-2 0v8a1 1 0 0 0 1 1h3a1 1 0 0 0 0-2zm7-2a1 1 0 0 0 0-2h-3v-2h3a1 1 0 0 0 0-2h-4a1 1 0 0 0-1 1v8a1 1 0 0 0 1 1h4a1 1 0 0 0 0-2h-3v-2z"/></svg>