<svg xmlns="http://www.w3.org/2000/svg" viewBox="0 0 48 48"><defs><style>.a{fill:#6fabe6}.b{fill:#82bcf4}.c{fill:#5b9ad8}.d{fill:#dad7e5}.e{fill:#edebf2}.f{fill:#db5669}.g{fill:#f26674}.h{fill:#ffde76}</style></defs><path class="a" d="M1 5H47V15H1z"/><path class="b" d="M47 5v8H7a4 4 0 0 1-4-4V5z"/><path class="c" d="M10 10a2 2 0 1 1-2.82-1.82A2 2 0 0 1 10 10zm4 2a2 2 0 1 1 2-2 2 2 0 0 1-2 2zm0-2zm26 2a2 2 0 1 1 2-2 2 2 0 0 1-2 2zm0-2zm-6 2a2 2 0 1 1 2-2 2 2 0 0 1-2 2zm0-2z"/><path class="d" d="M1 15H47V47H1z"/><path class="e" d="M47 15v30H11a8 8 0 0 1-8-8V15z"/><path class="f" d="M25.72 19.76a2.32 2.32 0 0 0 2.42.65 2.32 2.32 0 0 1 3 1.71 2.29 2.29 0 0 0 1.77 1.77 2.32 2.32 0 0 1 1.71 3 2.33 2.33 0 0 0 .65 2.42 2.33 2.33 0 0 1 0 3.44 2.32 2.32 0 0 0-.65 2.42 2.32 2.32 0 0 1-1.71 3 2.29 2.29 0 0 0-1.77 1.77 2.32 2.32 0 0 1-3 1.71 2.33 2.33 0 0 0-2.42.65 2.33 2.33 0 0 1-3.44 0 2.32 2.32 0 0 0-2.42-.65 2.32 2.32 0 0 1-3-1.71 2.29 2.29 0 0 0-1.77-1.77 2.32 2.32 0 0 1-1.71-3 2.33 2.33 0 0 0-.65-2.42 2.33 2.33 0 0 1 0-3.44 2.32 2.32 0 0 0 .65-2.42 2.32 2.32 0 0 1 1.71-3 2.29 2.29 0 0 0 1.77-1.77 2.32 2.32 0 0 1 3-1.71 2.33 2.33 0 0 0 2.42-.65 2.33 2.33 0 0 1 3.44 0z"/><path class="g" d="M34.59 35.14a2.33 2.33 0 0 1-1.71 3 2.31 2.31 0 0 0-1.77 1.75c-10.14 4.77-20.74-5.84-16-16a2.31 2.31 0 0 0 1.75-1.77 2.33 2.33 0 0 1 2.26-1.82c.66 0 .79.22 1.41.22 1.78 0 1.72-1.52 3.47-1.52a2.34 2.34 0 0 1 1.72.76 2.33 2.33 0 0 0 2.42.65 2.33 2.33 0 0 1 3 1.71 2.3 2.3 0 0 0 1.77 1.77 2.33 2.33 0 0 1 1.82 2.26c0 .66-.22.79-.22 1.41C34.48 29.32 36 29.24 36 31c0 1.92-2.08 1.93-1.41 4.14z"/><path class="h" d="M19 37a1 1 0 0 1-.71-1.71l10-10a1 1 0 0 1 1.42 1.42C18.88 37.53 19.6 37 19 37z"/><path class="a" d="M9.82 10.82a2 2 0 0 1-2.64-2.64 2 2 0 0 1 2.64 2.64zm6 0a2 2 0 0 1-2.64-2.64 2 2 0 0 1 2.64 2.64zm20 0a2 2 0 0 1-2.64-2.64 2 2 0 0 1 2.64 2.64zm6 0a2 2 0 0 1-2.64-2.64 2 2 0 0 1 2.64 2.64z"/><path class="d" d="M7 9V1a1 1 0 0 1 2 0v8a1 1 0 0 1-2 0zm6 0V1a1 1 0 0 1 2 0v8a1 1 0 0 1-2 0zm26 0V1a1 1 0 0 1 2 0v8a1 1 0 0 1-2 0zm-6 0V1a1 1 0 0 1 2 0v8a1 1 0 0 1-2 0z"/><path class="h" d="M21 30a3 3 0 1 0-3-3 3 3 0 0 0 3 3zm0-4a1 1 0 0 1 0 2 1 1 0 0 1 0-2zm6 6a3 3 0 1 0 3 3 3 3 0 0 0-3-3zm0 4a1 1 0 0 1 0-2 1 1 0 0 1 0 2z"/></svg>