<svg width="136" height="150" viewBox="0 0 136 150" fill="none" xmlns="http://www.w3.org/2000/svg"><g filter="url(#filter0_d_20_15088)"><rect x="2" width="131.25" height="150" rx="4" fill="#fff"/></g><rect x="17" y="55" width="47.917" height="2.083" rx="1.042" fill="#437E47" fill-opacity=".5"/><rect x="17" y="67.499" width="90" height="2.083" rx="1.042" fill="#437E47" fill-opacity=".5"/><rect x="17" y="84" width="47.917" height="2.083" rx="1.042" fill="#437E47" fill-opacity=".5"/><rect x="17" y="96.499" width="90" height="2.083" rx="1.042" fill="#437E47" fill-opacity=".5"/><rect x="17" y="113" width="47.917" height="2.083" rx="1.042" fill="#437E47" fill-opacity=".5"/><rect x="17" y="125.499" width="90" height="2.083" rx="1.042" fill="#437E47" fill-opacity=".5"/><rect x="17" y="21" width="48" height="2" rx="1" fill="#437E47" fill-opacity=".5"/><rect x="17" y="14" width="7" height="2" rx="1" fill="#437E47" fill-opacity=".5"/><rect x="29" y="14" width="7" height="2" rx="1" fill="#437E47" fill-opacity=".5"/><rect x="17" y="28" width="103" height="14" rx="7" fill="#437E47" fill-opacity=".07"/><mask id="a" style="mask-type:alpha" maskUnits="userSpaceOnUse" x="22" y="32" width="7" height="7"><path fill="#437E47" d="M22 32h7v7h-7z"/></mask><g mask="url(#a)"><path d="m28.456 39-2.45-2.45a2.369 2.369 0 0 1-1.478.506 2.44 2.44 0 0 1-1.794-.734A2.44 2.44 0 0 1 22 34.528c0-.707.245-1.305.734-1.794A2.44 2.44 0 0 1 24.528 32c.706 0 1.304.245 1.794.734.489.49.734 1.087.734 1.794a2.369 2.369 0 0 1-.506 1.478l2.45 2.45-.544.544Zm-3.928-2.722c.486 0 .9-.17 1.24-.51.34-.34.51-.754.51-1.24s-.17-.9-.51-1.24c-.34-.34-.754-.51-1.24-.51s-.9.17-1.24.51c-.34.34-.51.754-.51 1.24s.17.9.51 1.24c.34.34.754.51 1.24.51Z" fill="#437E47" fill-opacity=".5"/></g></svg>