<svg width="136" height="154" viewBox="0 0 136 154" fill="none" xmlns="http://www.w3.org/2000/svg"><g filter="url(#filter0_d_20_15948)"><rect x="2" width="131.25" height="150" rx="4" fill="#fff"/></g><rect x="12" y="43" width="47.917" height="2.083" rx="1.042" fill="#CDCDCD"/><rect x="12" y="55.499" width="90" height="2.083" rx="1.042" fill="#CDCDCD"/><rect x="12" y="72" width="47.917" height="2.083" rx="1.042" fill="#CDCDCD"/><rect x="12" y="84.499" width="90" height="2.083" rx="1.042" fill="#CDCDCD"/><rect x="12" y="16" width="103" height="14" rx="7" fill="#7A7A7A" fill-opacity=".07"/><mask id="a" style="mask-type:alpha" maskUnits="userSpaceOnUse" x="17" y="20" width="7" height="7"><path fill="#437E47" d="M17 20h7v7h-7z"/></mask><g mask="url(#a)"><path d="m23.456 27-2.45-2.45a2.369 2.369 0 0 1-1.478.506 2.44 2.44 0 0 1-1.794-.734A2.44 2.44 0 0 1 17 22.528c0-.707.245-1.305.734-1.794A2.44 2.44 0 0 1 19.528 20c.706 0 1.304.245 1.794.734.489.49.734 1.087.734 1.794a2.369 2.369 0 0 1-.506 1.478l2.45 2.45-.544.544Zm-3.928-2.722c.486 0 .9-.17 1.24-.51.34-.34.51-.754.51-1.24s-.17-.9-.51-1.24c-.34-.34-.754-.51-1.24-.51s-.9.17-1.24.51c-.34.34-.51.754-.51 1.24s.17.9.51 1.24c.34.34.754.51 1.24.51Z" fill="#CDCDCD"/></g></svg>