<svg width="136" height="150" viewBox="0 0 136 150" fill="none" xmlns="http://www.w3.org/2000/svg"><g filter="url(#filter0_d_3318_789)"><rect x="2" width="131.25" height="150" rx="4" fill="#fff"/></g><rect x="15.25" y="10.623" width="48" height="2" rx="1" fill="#437E47" fill-opacity=".5"/><rect x="15.25" y="42.623" width="25" height="2" rx="1" fill="#437E47" fill-opacity=".5"/><rect x="15.25" y="19.623" width="103" height="14" rx="7" fill="#437E47" fill-opacity=".07"/><path d="m26.706 30.623-2.45-2.45a2.371 2.371 0 0 1-1.478.506 2.44 2.44 0 0 1-1.794-.734 2.44 2.44 0 0 1-.734-1.794c0-.706.245-1.304.734-1.794a2.44 2.44 0 0 1 1.794-.733 2.44 2.44 0 0 1 1.794.733c.489.49.734 1.088.734 1.794a2.37 2.37 0 0 1-.506 1.478l2.45 2.45-.544.544Zm-3.928-2.722c.486 0 .9-.17 1.24-.51.34-.34.51-.754.51-1.24s-.17-.9-.51-1.24c-.34-.34-.754-.51-1.24-.51s-.9.17-1.24.51c-.34.34-.51.754-.51 1.24s.17.9.51 1.24c.34.34.754.51 1.24.51Z" fill="#437E47" fill-opacity=".5"/><rect x="15.25" y="77" width="20.713" height="1.89" rx=".945" fill="#437E47" fill-opacity=".5"/><rect x="15.25" y="85.977" width="27.404" height="1.89" rx=".945" fill="#437E47" fill-opacity=".5"/><rect x="15.75" y="54.75" width="16.5" height="15.5" rx="3.25" stroke="#437E47" stroke-opacity=".5" stroke-width="1.5"/><rect x="51.25" y="77" width="20.713" height="1.89" rx=".945" fill="#437E47" fill-opacity=".5"/><rect x="51.25" y="85.977" width="27.404" height="1.89" rx=".945" fill="#437E47" fill-opacity=".5"/><rect x="51.75" y="54.75" width="16.5" height="15.5" rx="3.25" stroke="#437E47" stroke-opacity=".5" stroke-width="1.5"/><rect x="87.25" y="77" width="20.713" height="1.89" rx=".945" fill="#437E47" fill-opacity=".5"/><rect x="87.25" y="85.977" width="27.404" height="1.89" rx=".945" fill="#437E47" fill-opacity=".5"/><rect x="87.75" y="54.75" width="16.5" height="15.5" rx="3.25" stroke="#437E47" stroke-opacity=".5" stroke-width="1.5"/><rect x="15.25" y="119" width="20.713" height="1.89" rx=".945" fill="#437E47" fill-opacity=".5"/><rect x="15.25" y="127.977" width="27.404" height="1.89" rx=".945" fill="#437E47" fill-opacity=".5"/><rect x="15.75" y="96.75" width="16.5" height="15.5" rx="3.25" stroke="#437E47" stroke-opacity=".5" stroke-width="1.5"/><rect x="51.25" y="119" width="20.713" height="1.89" rx=".945" fill="#437E47" fill-opacity=".5"/><rect x="51.25" y="127.977" width="27.404" height="1.89" rx=".945" fill="#437E47" fill-opacity=".5"/><rect x="51.75" y="96.75" width="16.5" height="15.5" rx="3.25" stroke="#437E47" stroke-opacity=".5" stroke-width="1.5"/><rect x="87.25" y="119" width="20.713" height="1.89" rx=".945" fill="#437E47" fill-opacity=".5"/><rect x="87.25" y="127.977" width="27.404" height="1.89" rx=".945" fill="#437E47" fill-opacity=".5"/><rect x="87.75" y="96.75" width="16.5" height="15.5" rx="3.25" stroke="#437E47" stroke-opacity=".5" stroke-width="1.5"/></svg>