<svg width="136" height="150" viewBox="0 0 136 150" fill="none" xmlns="http://www.w3.org/2000/svg"><g filter="url(#filter0_d_20_16000)"><rect x="2" y=".376" width="131.25" height="150" rx="4" fill="#fff"/></g><rect x="15.25" y="11" width="48" height="2" rx="1" fill="#437E47" fill-opacity=".5"/><rect x="15.25" y="43" width="25" height="2" rx="1" fill="#437E47" fill-opacity=".5"/><rect x="15.25" y="20" width="103" height="14" rx="7" fill="#437E47" fill-opacity=".07"/><path d="m26.706 31-2.45-2.45a2.369 2.369 0 0 1-1.478.506 2.44 2.44 0 0 1-1.794-.734 2.44 2.44 0 0 1-.734-1.794c0-.707.245-1.305.734-1.794A2.44 2.44 0 0 1 22.778 24c.706 0 1.304.245 1.794.734.489.49.734 1.087.734 1.794a2.369 2.369 0 0 1-.506 1.478l2.45 2.45-.544.544Zm-3.928-2.722c.486 0 .9-.17 1.24-.51.34-.34.51-.754.51-1.24s-.17-.9-.51-1.24c-.34-.34-.754-.51-1.24-.51s-.9.17-1.24.51c-.34.34-.51.754-.51 1.24s.17.9.51 1.24c.34.34.754.51 1.24.51Z" fill="#437E47" fill-opacity=".5"/><rect x="15.25" y="89.908" width="20.713" height="1.89" rx=".945" fill="#437E47" fill-opacity=".5"/><rect x="15.25" y="98.885" width="27.404" height="1.89" rx=".945" fill="#437E47" fill-opacity=".5"/><rect x="16" y="54.75" width="27.794" height="27.794" rx="3.25" stroke="#437E47" stroke-opacity=".5" stroke-width="1.5"/><rect x="52.103" y="89.908" width="20.713" height="1.89" rx=".945" fill="#437E47" fill-opacity=".5"/><rect x="52.103" y="98.885" width="27.404" height="1.89" rx=".945" fill="#437E47" fill-opacity=".5"/><rect x="52.853" y="54.75" width="27.794" height="27.794" rx="3.25" stroke="#437E47" stroke-opacity=".5" stroke-width="1.5"/><rect x="88.957" y="89.908" width="20.713" height="1.89" rx=".945" fill="#437E47" fill-opacity=".5"/><rect x="88.957" y="98.885" width="27.404" height="1.89" rx=".945" fill="#437E47" fill-opacity=".5"/><rect x="89.707" y="54.75" width="27.794" height="27.794" rx="3.25" stroke="#437E47" stroke-opacity=".5" stroke-width="1.5"/></svg>