<?xml version="1.0" encoding="utf-8"?>
<!-- Generator: Adobe Illustrator 18.0.0, SVG Export Plug-In . SVG Version: 6.00 Build 0)  -->
<!DOCTYPE svg PUBLIC "-//W3C//DTD SVG 1.1//EN" "http://www.w3.org/Graphics/SVG/1.1/DTD/svg11.dtd">
<svg version="1.1" id="Layer_1" xmlns="http://www.w3.org/2000/svg" xmlns:xlink="http://www.w3.org/1999/xlink" x="0px" y="0px"
	 width="300px" height="300px" viewBox="0 0 300 300" style="enable-background:new 0 0 300 300;" xml:space="preserve">
<g>
	<path d="M232.9,61.8c-14.8-13.4-8.2-23.8-8.2-23.8l2.1-3.5c3.2-4.2,7.4-5.7,12.1-8.1c3.2-1.6,6.2-3.8,8.6-6.5l2.5-2.6
		c4.2-5.4,2.1-13.3-4.3-15.8l-1.2-0.5c-8.1-3.2-17.4,1-20.1,9.4l-0.6,1.8l-2.6,8.8c-1.6,5.6-8,8.4-13.2,5.8l-6.9-3.4
		c-7.9-2.9-16.2,2.9-16.2,11.3V39c0,4.7-5.1,7.5-9.2,5.2l-16.9-9.8c-5.4-3.1-12.1-3.1-17.6,0L55.4,83.9c-5.4,3.1-8.8,8.9-8.8,15.2
		v99.1c0,6.3,3.4,12.1,8.8,15.2l8,4.6c4.7,2.9,15.1,9.8,24.3,20.2c12.1,13.6,12.6,15.1,24.3,15.7c11.7,0.6,18.4,5.9,19.9,15.7
		c1,6.5-6.5,7.7-8,17c-0.5,3.3,0.7,11.2,7.7,13c8.7,2.2,13.1-4.9,13.5-10.5c0.4-7.3-1.9-16.1,11.8-25.2c0.6-0.3,1.2-0.6,1.8-0.9
		l85.8-49.5c5.4-3.1,8.8-8.9,8.8-15.2v-93.1c0.1-0.9,0.1-1.9,0.1-2.9C253.4,75,245.3,73,232.9,61.8z"/>
	<path d="M110.4,268.3l-5.8-3.3c-1.1-0.6-2.5-0.6-3.6,0l-5.8,3.3c-1.1,0.6-1.8,1.8-1.8,3.1v6.7c0,1.3,0.7,2.5,1.8,3.1l5.8,3.3
		c1.1,0.6,2.5,0.6,3.6,0l5.8-3.3c1.1-0.6,1.8-1.8,1.8-3.1v-6.7C112.2,270.1,111.6,268.9,110.4,268.3z"/>
	<path d="M208.5,247l-2.2-1.3c-0.8-0.5-1.9-0.5-2.7,0l-2.2,1.3c-0.8,0.5-1.4,1.4-1.4,2.3v2.5c0,1,0.5,1.9,1.4,2.3l2.2,1.3
		c0.8,0.5,1.9,0.5,2.7,0l2.2-1.3c0.8-0.5,1.4-1.4,1.4-2.3v-2.5C209.8,248.3,209.3,247.4,208.5,247z"/>
	<path d="M206.9,11.5l2.2,1.3c0.8,0.5,1.9,0.5,2.7,0l2.2-1.3c0.8-0.5,1.4-1.4,1.4-2.3V6.6c0-1-0.5-1.9-1.4-2.3L211.8,3
		c-0.8-0.5-1.9-0.5-2.7,0l-2.2,1.3c-0.8,0.5-1.4,1.4-1.4,2.3v2.5C205.5,10.1,206,11,206.9,11.5z"/>
	<path d="M50.6,48.5l7.1,4.1c1.1,0.6,2.5,0.6,3.6,0l7.1-4.1c1.1-0.6,1.8-1.8,1.8-3.1v-8.2c0-1.3-0.7-2.5-1.8-3.1L61.3,30
		c-1.1-0.6-2.5-0.6-3.6,0l-7.1,4.1c-1.1,0.6-1.8,1.8-1.8,3.1v8.2C48.8,46.7,49.5,47.9,50.6,48.5z"/>
</g>
</svg>
