<?xml version="1.0" encoding="utf-8"?>
<!-- Generator: Adobe Illustrator 18.0.0, SVG Export Plug-In . SVG Version: 6.00 Build 0)  -->
<!DOCTYPE svg PUBLIC "-//W3C//DTD SVG 1.1//EN" "http://www.w3.org/Graphics/SVG/1.1/DTD/svg11.dtd">
<svg version="1.1" id="Layer_1" xmlns="http://www.w3.org/2000/svg" xmlns:xlink="http://www.w3.org/1999/xlink" x="0px" y="0px"
	 width="300px" height="300px" viewBox="0 0 300 300" style="enable-background:new 0 0 300 300;" xml:space="preserve">
<g>
	<path d="M163.1,30.8C93.5,40.9,41.5,105.5,23.6,170.4c-7.6,27.6-5.3,59.5,13.1,81.4c10.8,12.9,26.4,21.4,42.9,25
		c28.5,6.2,57.7-1.9,84.1-12.6c26.5-10.7,53.2-24.5,76.5-41.1c20.5-14.6,38.8-33,49.7-55.6c6.9-14.3,10-28.1,10.1-41.2
		C300.4,57.2,223.2,22,163.1,30.8z"/>
	<path d="M37.9,92.2c8.8-4.4,17.2-11.9,23.5-19.4c5.9-7,11.2-15.6,11.4-25.1c0-0.3,0-0.5,0-0.8c-0.1-8.1-3.7-16.4-10.5-21.2
		c-6.7-4.7-15.4-5.6-23.4-4.2C14.3,25.7-3.8,49.3,0.7,74.1c1.5,8.3,6.4,16.3,14.1,19.8C22.1,97.1,30.7,95.7,37.9,92.2z"/>
</g>
</svg>
