<?xml version="1.0" encoding="utf-8"?>
<!-- Generator: Adobe Illustrator 18.0.0, SVG Export Plug-In . SVG Version: 6.00 Build 0)  -->
<!DOCTYPE svg PUBLIC "-//W3C//DTD SVG 1.1//EN" "http://www.w3.org/Graphics/SVG/1.1/DTD/svg11.dtd">
<svg version="1.1" id="Layer_1" xmlns="http://www.w3.org/2000/svg" xmlns:xlink="http://www.w3.org/1999/xlink" x="0px" y="0px"
	 width="300px" height="300px" viewBox="0 0 300 300" style="enable-background:new 0 0 300 300;" xml:space="preserve">
<path d="M279.3,178.4c-0.1-30.8,26.4-54.8,19.6-86.2c-3.7-17.1-16.7-32.6-34.2-36.1c-6.8-1.4-13.9-1.6-20.6-3.3
	c-11.5-2.8-17.3-10.8-24.7-19.4c-16.4-19-42.9-8.3-60.8,2.2c-14.5,8.6-29.9,18.7-47.5,15c-21.5-4.5-42.2-15.2-64.5-14.7
	C18.3,36.7-7.4,63.5,1.9,92.2c2.2,6.8,5.5,13.2,7.6,20c9.2,30-15.7,57.9-5.8,87.4c4.2,12.6,14.4,20.5,26.5,24l-9.6,53.3l75-33
	c1.8,1.3,3.6,2.5,5.4,3.7c10.6,6.6,22.8,11.3,35.4,11c8.6-0.2,17.1-2.9,24.4-7.4c9.2-5.7,16.8-14.4,27.1-18.3
	c20-7.5,41.2,8.5,60.7,11.2c17.1,2.4,27.4-7.5,30.1-23.7c1.9-11.4,1-22.9,0.5-34.3C279.3,183.4,279.3,180.9,279.3,178.4z"/>
</svg>
