<?xml version="1.0" encoding="utf-8"?>
<!-- Generator: Adobe Illustrator 18.0.0, SVG Export Plug-In . SVG Version: 6.00 Build 0)  -->
<!DOCTYPE svg PUBLIC "-//W3C//DTD SVG 1.1//EN" "http://www.w3.org/Graphics/SVG/1.1/DTD/svg11.dtd">
<svg version="1.1" id="Layer_1" xmlns="http://www.w3.org/2000/svg" xmlns:xlink="http://www.w3.org/1999/xlink" x="0px" y="0px"
	 width="300px" height="300px" viewBox="0 0 300 300" style="enable-background:new 0 0 300 300;" xml:space="preserve">
<g>
	<g>
		
			<image style="overflow:visible;opacity:0.15;" width="306" height="262" xlink:href="A9EAA61CE32A7A4A.png"  transform="matrix(1 0 0 1 -2 20)">
		</image>
		<g>
			<path d="M274.4,83.6C238.2,50.6,179.7,63,136.8,45C116.8,36.6,97.9,21.1,75,23c-14.9,1.2-28.1,8.1-38.8,18
				c-9.8,9-17.5,20.6-22.6,32.6C6.4,90.4,3.4,108.8,1.3,127.1c-6.7,59,11.6,127.1,75,145.3C118.9,284.5,165,272,204,254
				C261.2,227.5,341.8,144.9,274.4,83.6z"/>
		</g>
	</g>
</g>
</svg>
