<?xml version="1.0" encoding="utf-8"?>
<!-- Generator: Adobe Illustrator 18.0.0, SVG Export Plug-In . SVG Version: 6.00 Build 0)  -->
<!DOCTYPE svg PUBLIC "-//W3C//DTD SVG 1.1//EN" "http://www.w3.org/Graphics/SVG/1.1/DTD/svg11.dtd">
<svg version="1.1" id="Layer_1" xmlns="http://www.w3.org/2000/svg" xmlns:xlink="http://www.w3.org/1999/xlink" x="0px" y="0px"
	 width="300px" height="300px" viewBox="0 0 300 300" style="enable-background:new 0 0 300 300;" xml:space="preserve">
<path d="M251.7,87c-4.4-22-10.1-43.6-25-60.4C211.9,9.8,189.6,1.7,167.1,1.1C118.7,0,95.5,57.6,89,66.4
	c-12.4,16.9-31.7,28.1-51.6,34.7C11.1,109.8-1.2,127,0.1,147.9c1.7,27.1,20.5,31.6,25.7,59.2c3.9,20.5-22.2,58.9,18.3,84.8
	c38.1,24.3,62.9-22.4,112.3-24.6c19.7-0.9,65.7,11.2,85.4,9.2c19.7-2,40.1-9.8,50.7-26.5c10.7-16.8,8.9-39,1.7-57.6
	c-7.2-18.6-18.9-35-28.5-52.4C251.5,114.6,254.1,98.8,251.7,87z"/>
</svg>
