<?xml version="1.0" encoding="utf-8"?>
<!-- Generator: Adobe Illustrator 18.0.0, SVG Export Plug-In . SVG Version: 6.00 Build 0)  -->
<!DOCTYPE svg PUBLIC "-//W3C//DTD SVG 1.1//EN" "http://www.w3.org/Graphics/SVG/1.1/DTD/svg11.dtd">
<svg version="1.1" id="Layer_1" xmlns="http://www.w3.org/2000/svg" xmlns:xlink="http://www.w3.org/1999/xlink" x="0px" y="0px"
	 width="300px" height="300px" viewBox="0 0 300 300" style="enable-background:new 0 0 300 300;" xml:space="preserve">
<style type="text/css">
	.st0{fill-rule:evenodd;clip-rule:evenodd;}
</style>
<path class="st0" d="M298.2,208c-0.1,0.2-0.2,0.3-0.3,0.5c-0.1,0.4-0.2,0.7-0.4,1.1c-1.1,3.9-4.8,5.3-8.6,5.8c-2.5,0.3-4.8,1-7,2.4
	c-1.7,1.1-3.7,1.4-5.5,1.6c-1.8,0.2-2.5,0.9-2.9,2.3l0,0c0.6,1.4,0.8,2.9-0.2,4.5c-0.2,0.4-0.5,1.1-0.6,1.6c-0.5,2.5-2.5,3.8-4.9,5
	c-3.3,1.6-6.6,3.1-10.1,3.9c-4.8,1.1-9.7,2.7-14.2,0.8l0,0.1l0-0.1c-0.4,0.1-0.7,0.4-1.1,0.4c-3.3,0.6-4.5,2.1-2.8,4.4
	c1.6,2.3,2,5.1,3.8,7.2c1,1.7,2.2,3.2,2.4,5.4c0.1,1.7,1.7,2.5,3,3.4c3.1,2.1,5.4,4.8,6.6,8.2c0.1,0.3,0.1,0.7,0,1.1
	c-0.1,0.2-0.2,0.4-0.3,0.5c-0.8,0.8-1.4,1.6-1.1,2.5c0,0.2,0,0.5,0,0.7c0,1-0.7,1.9-1,2.8c-0.1,0.3-0.2,0.5-0.4,0.7
	c-2,2.1-3.3,1.2-4.6,0.1c-0.1-0.1-0.2-0.1-0.2-0.2c-0.8-0.9-1.4-2-3.1-0.1c-0.9,1-2,1-3,0.6c-0.8-0.3-1.8-0.5-2.4-1
	c-1.1-1-2.4-0.9-3.8-0.4c-0.3,0.1-0.6,0.1-0.9,0c-1.4-0.3-3,0.6-4.4,0.2c-1.7-0.1-3.3,0.1-4.9,1.1c-2.1,1.3-4.1,1.4-6.2,0.8
	c-3.7-1.1-4.1-0.8-5.8,2.9c-1.2,1.9-3.4,2.2-5.2,2.5c-4.1,0.7-8.2,1.4-12.1,0.3c-5.4-1.5-9.7,1.5-13.5,5.5c-1.3,1.4-2.9,2.4-4.6,3.2
	c-5.7,2.6-11.5,3.4-17.4,3.8c-2,0.1-3.8-0.1-5-1.2c-0.5-0.3-1-0.5-1.4-0.8c-0.7-0.2-1.4-0.6-1.9-1.1c-0.2-0.1-0.4-0.3-0.6-0.3
	c-0.9-0.3-1.8-0.5-2.6-0.8c-1.2-0.4-2.1-1.1-3-1.8l0.1,0c-1.6-0.4-2.7-1.5-3.4-2.5c-1.6-2.1-3.7-2.1-6.3-1.6l0.1,0
	c-2.1,0.9-4.2,0.7-6.2,1.2c-0.4,0.1-0.7,0.3-0.9,0.6c-1.3,1.7-1.5,3.6-2.5,5.4c-1.2,2.2-1.6,2.5-3.6,1.4c-0.8-0.4-1.3-1-1.6-1.6
	c-0.4-0.8-1.4-1-2.3-0.5c-0.1,0.1-0.2,0.1-0.3,0.1c-0.9,0-1.8,0.2-2.6,0.3c-0.6,0.1-1.6,0-1.5-0.4c0.5-2.6-1.8-3.9-1.8-6.4
	c-0.1-4.1-2.1-7.5-5.7-9.6c-1.5-0.9-2.6-2.1-3.1-3.7c-0.8-2.6-2.7-4.7-4.8-6.6c-0.6-0.6-1.5-0.5-2.4-0.3c-1.3,0.4-2-0.1-2.6-0.9
	c-1.7-2.6-3.4-5.1-4.4-8.1c-1.1-3.4-4.5-5.1-7.1-7.3c-2.4-1.9-4.3-4.2-6.1-6.6c-1.4-1.9-3.2-3.4-5.3-4.7c-0.1-0.1-0.2-0.1-0.4-0.2
	c-0.8-0.2-1.5-0.6-1.9-1.3c-1.1-1.5-2.6-2.4-4.6-2.6c-0.1,0-0.3,0-0.4-0.1c-1.9-0.7-2.9-2.4-4.7-3.3c-0.2-0.1-0.3-0.2-0.4-0.3
	c-1.7-1.9-4.3-3.1-5.9-5.1c-6.3-6.8-13.4-12.7-22.6-16.4c-3-1.2-6.4-2-9.6-2.9c-2.5-0.7-1.4-2.8-2.1-4.1c-0.6-1,1.4-3.8,3.3-4.8
	c0.6-0.4,1.2-0.7,1.6-1.3c2.2-3.8,5.4-5.9,9.9-6.4c1.4-0.1,2.9-0.9,4.3-1.3c1.5-0.4,2.5-1.5,1.7-3c-0.3-0.7-0.4-1.5-0.9-2.1
	c-0.3-0.4-0.7-0.7-0.9-1.2c-0.5-0.9-1.1-1.7-1.9-2.3c-0.1-0.1-0.1-0.1-0.2-0.2c-3.7-4.4-7.7-8.7-10.9-13.5c-3.7-5.5-8.7-10-12-15.7
	c-1.7-2.9-4.6-4.9-6.7-7.4c-2.7-3-2.6-6.9-2.9-10.8c0-0.7,0.1-1.4,0.2-2.1c0-0.9,0.1-1.8,0.6-2.6c0.9-1.5,2.9-3,1.1-4.5
	c-3.7-3.1-4.1-7.7-5-12.1c0-0.3,0-0.5,0-0.8c0.2-1.4,0.5-2.8,0.8-4.2c1.2-5.5,5.6-8.4,11.3-7.5c0.9,0.1,1.8,0.3,2.7,0.6
	c0.3,0.1,0.5,0.2,0.7,0.2c2.9,1.4,6.1,2.1,9.5,2.3c2,0.1,2.9-0.5,3.1-2.4c0.1-1.3-0.3-2.5-0.5-3.8c0-0.2,0-0.5,0-0.7
	c0.2-0.9,0.5-1.8,0.9-2.6c0.1-0.2,0.3-0.5,0.4-0.7c2.3-3.4,5.7-4.3,9.4-4.6c3.2-0.2,3.2-0.2,3.6-3.2c0.1-0.9,0.2-1.8,0.5-2.7
	c0.1-0.2,0.2-0.5,0.3-0.7c2.4-4.4,2.4-4.4-0.1-6.6c-0.2-0.1-0.4-0.3-0.6-0.5c-1.4-1.3-2.7-2.7-3.9-4.2c-0.3-0.6-0.5-1.2-0.3-1.9
	c0.8-2.2,0.7-3.9-0.4-5.8c-2.2-3.9-1.1-8.6,0.5-13.2c0.1-0.3,0.2-0.5,0.4-0.8c2.8-4,6.5-5,10.8-4.5c0.3-0.4,0.3-0.4-0.6-1.2
	c-1-1.2-2.2-2.2-3.1-3.5c-1.8-2.8-1.5-5.6,1.1-8.6c0.1-0.1,0.2-0.2,0.2-0.2c1.3-1.1,2.9-1.8,4.3-2.9c0.5-0.4,1.1-0.6,1.7-0.7
	c0.6-0.1,1.3-0.3,1.9-0.5c0.1,0,0.2-0.1,0.2-0.1c3.5-1.9,3.6-2.2,2.9-5.7c-0.1-0.6-0.2-1.3,0.5-1.7c0.6-0.4,1.1,0,1.4,0.4
	c1,1,1.6,0.4,3-0.3c2.8-1.3,3.9-4,6-5.3c2.7-1.6,6-3.9,9-1.9c0.8-0.7,0.5-1.1,0.5-1.5c-0.2-1.7,0.7-1.6,1.9-1.2
	c0.8,0.3,1.5,0.7,2.2,1.1c0.1,0.1,0.2,0.1,0.3,0.2c2,2,4.8,2.1,7.9,1.6c0.8-0.1,1.3-0.8,1.4-1.5c0-0.4,0.2-0.9,0.7-1.1
	c1.3-0.6,2.1,0.4,2.8,1.1c4,4.2,9.6,6.8,13.3,11.3c0.2,0.1,0.4,0.3,0.6,0.4c1,1.2,2,2.4,3.3,3.3c0.2,0.1,0.4,0.3,0.5,0.5
	c1,1.6,2.5,2.8,3.7,4.3c0.2,0.1,0.3,0.3,0.5,0.5c0.7,0.8,1,2,2.1,2.4c0.2,0.1,0.4,0.3,0.5,0.5c0.7,0.8,1.1,1.8,2,2.5
	c0.2,0.2,0.4,0.3,0.5,0.5c0.5,0.6,1.1,1,1.5,1.6c0.9,1.1,1.9,1.3,3.4,0.3c1.9-1.2,4-1.8,6.1-2.5c1.8-0.4,3.7-1,5.4-1.9
	c0.3-0.1,0.5-0.2,0.8-0.3c1.4-0.4,2.6-1.2,3.9-1.9c0.3-0.1,0.5-0.2,0.8-0.3c5.4-1.3,10.9-1.4,16.3-2.5c2.6-0.5,4.9,0.9,7.6,0.1
	c0.3,0,0.6,0,0.8,0c2.1,0.6,3.2,2.5,5,3.5c0.2,0.1,0.4,0.3,0.6,0.5c5,4.8,9.7,9.9,14.8,14.6c0.2,0.1,0.4,0.3,0.6,0.5
	c0.9,1.2,2,2.2,3.3,3.1c0.2,0.2,0.4,0.3,0.6,0.5c9,8.7,17.7,17.6,25.1,27.6c0.2,0.2,0.5,0.4,0.6,0.7c1.8,3.3,3.7,6.5,6.3,9.2
	c2.9,3,5,6.5,7.3,9.8c3,4.5,6,9,9.2,13.4c4.5,6.2,8.6,12.7,12.2,19.5c8,15.1,17.1,29.4,26.1,43.8c4.5,7.3,9,14.8,15.1,21.1
	c2.8,2.9,5.2,6.4,3.7,11.3C299.2,206,299,207.1,298.2,208z"/>
</svg>
