<?xml version="1.0" encoding="utf-8"?>
<!-- Generator: Adobe Illustrator 18.0.0, SVG Export Plug-In . SVG Version: 6.00 Build 0)  -->
<!DOCTYPE svg PUBLIC "-//W3C//DTD SVG 1.1//EN" "http://www.w3.org/Graphics/SVG/1.1/DTD/svg11.dtd">
<svg version="1.1" id="Layer_1" xmlns="http://www.w3.org/2000/svg" xmlns:xlink="http://www.w3.org/1999/xlink" x="0px" y="0px"
	 width="300px" height="300px" viewBox="0 0 300 300" style="enable-background:new 0 0 300 300;" xml:space="preserve">
<g>
	<path d="M268.1,43.5c-1.2-0.4-2.6-0.1-3.6,0.9L170,139.6c-1.4,1.4-1.4,3.7,0,5.1l95.2,94.5c1,1,2.4,1.2,3.6,0.9L268.1,43.5z"/>
	<path d="M93.1,153.5L149.2,97c1.2-1.2,1.2-3.2,0-4.4L92.6,36.4c-1.2-1.2-3.2-1.2-4.4,0L32.1,93c-1.2,1.2-1.2,3.2,0,4.4l56.5,56.1
		C89.9,154.8,91.9,154.8,93.1,153.5z"/>
	<path d="M91.3,253.5c-0.4-0.4-1.1-0.4-1.5,0l-22.3,22.5c-0.4,0.4-0.4,1.1,0,1.5L90,299.7c0.4,0.4,1.1,0.4,1.5,0l22.3-22.5
		c0.4-0.4,0.4-1.1,0-1.5L91.3,253.5z"/>
	<path d="M138.8,120.9c-1.2-1.2-3.2-1.2-4.4,0L97.6,158c-1.2,1.2-1.2,3.2,0,4.4l37.1,36.8c1.2,1.2,3.2,1.2,4.4,0l36.8-37.1
		c1.2-1.2,1.2-3.2,0-4.4L138.8,120.9z"/>
	<path d="M93.1,166.9c-1.2-1.2-3.2-1.2-4.4,0L51.9,204c-1.2,1.2-1.2,3.2,0,4.4L89,245.2c1.2,1.2,3.2,1.2,4.4,0l36.8-37.1
		c1.2-1.2,1.2-3.2,0-4.4L93.1,166.9z"/>
	<path d="M57.3,187.3c0.8,0.8,2.1,0.8,2.9,0l24-24.2c0.8-0.8,0.8-2.1,0-2.9l-24.2-24c-0.8-0.8-2.1-0.8-2.9,0l-24,24.2
		c-0.8,0.8-0.8,2.1,0,2.9L57.3,187.3z"/>
	<path d="M56.8,58c0.8,0.8,2.1,0.8,2.9,0l24-24.2c0.8-0.8,0.8-2.1,0-2.9l-24.2-24c-0.8-0.8-2.1-0.8-2.9,0L32.6,31
		c-0.8,0.8-0.8,2.1,0,2.9L56.8,58z"/>
	<path d="M84.8,248.5l-24.2-24c-0.8-0.8-2.1-0.8-2.9,0l-24,24.2c-0.8,0.8-0.8,2.1,0,2.9l24.2,24c0.8,0.8,2.1,0.8,2.9,0l24-24.2
		C85.6,250.6,85.6,249.3,84.8,248.5z"/>
	<path d="M140.3,115.2l23.8,23.6c0.3,0.3,0.9,0.3,1.2,0l23.6-23.8c0.3-0.3,0.3-0.9,0-1.2l-23.8-23.6c-0.3-0.3-0.9-0.3-1.2,0
		L140.3,114C140,114.3,140,114.8,140.3,115.2z"/>
	<path d="M89.7,27.9c0.2,0.2,0.5,0.2,0.7,0l13.5-13.6c0.2-0.2,0.2-0.5,0-0.7L90.2,0.1c-0.2-0.2-0.5-0.2-0.7,0L76.1,13.7
		c-0.2,0.2-0.2,0.5,0,0.7L89.7,27.9z"/>
</g>
</svg>
