<?xml version="1.0" encoding="utf-8"?>
<!-- Generator: Adobe Illustrator 18.0.0, SVG Export Plug-In . SVG Version: 6.00 Build 0)  -->
<!DOCTYPE svg PUBLIC "-//W3C//DTD SVG 1.1//EN" "http://www.w3.org/Graphics/SVG/1.1/DTD/svg11.dtd">
<svg version="1.1" id="Layer_1" xmlns="http://www.w3.org/2000/svg" xmlns:xlink="http://www.w3.org/1999/xlink" x="0px" y="0px"
	 width="300px" height="300px" viewBox="0 0 300 300" style="enable-background:new 0 0 300 300;" xml:space="preserve">
<path d="M54.6,281c17.9-1.5,34.7-9.1,51.1-16.5c41.1-18.6,82.1-37.1,123.2-55.7c16.1-7.3,32.6-14.8,45.5-26.9
	c17.8-16.7,27.5-41.8,25.4-66.1c-2.1-24.3-15.9-47.4-36.3-60.8c-23.7-15.5-53.2-17.5-81-23c-25.3-5-50.2-13.2-75.9-13.3
	c-25.7-0.2-53.6,9.7-66.2,32.1c-10.1,18.1-8.4,40.2-5.7,60.7c2.8,20.5,6.2,42-0.9,61.5c-4.9,13.2-14.2,24.1-21.8,35.8
	C4.2,220.6-2,234.6,0.6,248.4c2.2,11.3,10.3,21,20.4,26.5C31.2,280.4,43.1,282,54.6,281z"/>
</svg>
