<?xml version="1.0" encoding="utf-8"?>
<!-- Generator: Adobe Illustrator 18.0.0, SVG Export Plug-In . SVG Version: 6.00 Build 0)  -->
<!DOCTYPE svg PUBLIC "-//W3C//DTD SVG 1.1//EN" "http://www.w3.org/Graphics/SVG/1.1/DTD/svg11.dtd">
<svg version="1.1" id="Layer_1" xmlns="http://www.w3.org/2000/svg" xmlns:xlink="http://www.w3.org/1999/xlink" x="0px" y="0px"
	 width="300px" height="300px" viewBox="0 0 300 300" style="enable-background:new 0 0 300 300;" xml:space="preserve">
<g>
	<g>
		<path d="M251.9,63.9c-0.5,0-1.1-0.1-1.4,0.4c0,0,0,0,0,0.1l0,0c0,0,0,0,0,0c0,0,0,0,0-0.1c-1-0.1-1,0-1.2,0.1
			c-0.4,0-0.9-0.2-1.2,0.4c-0.2-0.4-0.2-0.4-0.5-0.2c-0.3,0.2-0.5,0.3-0.6-0.1c0-0.1-0.2-0.1-0.3-0.2c-0.4-0.1-0.9-0.1-1.3,0.1
			c0,0-0.1,0-0.1,0c-0.3,0.1-0.5-0.1-0.7-0.1c-0.4-0.1-0.8-0.1-1.2-0.2l0,0c-0.3,0-0.3-0.1-0.1-0.3c0.2-0.2,0.7-0.2,0.8-0.6
			c-0.7,0.1-1.4,0.2-2,0.4c-1.2,0.3-2.4,0.7-3.5,1.2c-0.3,0.1-0.7,0.2-1,0.3c-0.2,0.1-0.3,0-0.2-0.2c0.2-0.1,0.3-0.2,0.5-0.2
			c0.3,0,0.3-0.2,0.2-0.3c0-0.5-1.1,0.1-0.9-0.5c-0.1,0-0.1,0-0.2,0c-0.2,0.1-0.3,0.2-0.5,0.2c-0.4,0.2-0.8,0.3-1.3,0.2
			c0,0,0.1,0,0.1,0c0.3-0.1,0.5-0.2,0.5-0.4c-0.4,0.1-0.7-0.1-1,0.2c-0.3,0.1-0.7,0.2-1,0.3c-0.1,0-0.2,0-0.3,0
			c-0.2-0.1-0.6,0.1-0.7-0.1c-0.1,0.1-0.2,0.2-0.4,0.2c-0.6-0.1-1.1,0.1-1.5,0.4l0,0c-1.3,0.4-2.6,0.6-3.9,1
			c-0.8,0.3-1.6,0.5-2.5,0.6c-1.8,0.3-3.5,0.7-5.2,1.3c-0.5,0.1-0.9,0.3-1.4,0.4c-0.1,0-0.2,0.1-0.4,0.1c-0.7-0.2-1.4,0.1-2.1,0.3
			c-0.4,0.1-0.8,0.4-1.2,0.4c-1.3,0.2-2.6,0.7-3.9,1c-0.4,0.1-0.8,0.2-1.2,0.3c-0.7,0.3-1.5,0.4-2.3,0.6c-0.1,0-0.2,0-0.2,0
			c-0.4,0-0.9,0.2-1.1-0.2c-0.1-0.2-0.4-0.3-0.6,0c-0.1,0.2-0.4,0.3-0.7,0.4c0-0.1-0.1-0.1-0.1-0.2c0.1-0.5,1-1.1,1.6-0.9
			c0.3,0.1,0.5,0,0.8-0.1c-0.1,0.1-0.1,0.3-0.3,0.3c-0.1,0-0.3,0-0.2,0.1c0,0.1,0.2,0.1,0.2,0.1c0.4-0.2,1-0.3,1.2-0.7
			c0.1-0.2,0.1-0.3,0.4-0.3c0.2,0,0.3-0.1,0.4-0.3c0.3-0.2,0.6-0.1,0.9-0.2c0.5,0,0.6-0.4,0.7-0.5c0.2-0.3-0.4-0.1-0.5-0.3
			c0.6-0.2,1.2-0.1,1.8-0.3l0,0c0.2,0.1,0.4,0.1,0.6,0.2c0.3,0,0.6,0.2,0.8,0c0.3-0.4,0.8-0.3,1.2-0.4c0.1,0,0.1-0.1,0.2-0.1
			c0,0,0,0,0,0c0.6,0.1,0.9-0.5,1.5-0.4c0.1,0,0.1-0.2-0.1-0.3c-0.2-0.1-0.4-0.2-0.7-0.1c0-0.1-0.1-0.1-0.1-0.2
			c0.2-0.3,0.8-0.5,1-0.4c0.3,0.2,0.6,0.1,0.9,0.1c0.2,0,0.4,0,0.7,0c0,0.3-0.4,0.3-0.5,0.6c0.4,0.1,0.6-0.1,0.8-0.3
			c0.1-0.2,0.1-0.4,0.5-0.5l0,0c0.1,0.2,0,0.6,0.5,0.5c0.5-0.1,1.1-0.2,1-0.8c0.2,0.1,0.4,0.3,0.5,0c0.1-0.3,0.3-0.4,0.6-0.1
			c0.1,0.1,0.3,0,0.2-0.1c-0.3-0.4,0.3-0.2,0.4-0.4c0.1,0,0.3-0.1,0.4-0.1c0.2,0.2,0.4,0.1,0.6,0c0.5-0.1,0.9-0.3,1.4-0.4
			c0.4-0.1,0.7-0.3,0.6-0.6c-0.1-0.3-0.5-0.2-0.8-0.1c0,0-0.1,0-0.1,0.1c-0.2-0.3-0.6,0-0.8-0.2c-0.4-0.4-0.7-0.1-0.8,0.2
			c-0.2,0.2-0.4,0.3-0.7,0.4c-0.3,0-0.6,0.1-0.8,0.2c-0.7,0.1-1.4,0.4-2,0.2c0.1-0.1,0.2-0.1,0.4-0.2c1.6-0.5,3.1-1.1,4.7-1.6
			c0.9-0.2,1.6-0.6,2.5-0.9c0.1,0,0.2-0.1,0.3-0.1c1.2-0.2,2.1-1,3.3-1.3c0.1,0,0.3-0.2,0.2-0.3c-0.6-0.1-0.4-0.4-0.2-0.8
			c0.1-0.2,0-0.3-0.2-0.5c-0.4-0.2-0.7,0.1-1.1,0.1c0,0-0.1,0-0.1-0.1c0.1-0.4-0.5-0.1-0.5-0.3c0.2-0.1,0.3-0.1,0.4-0.3
			c0.1-0.1,0.1-0.1,0.1-0.2c0.3-0.3,0.6-0.6,0.4-1c0.6-0.6,1.4-1,1.9-1.6c0.1-0.2,0.4-0.3,0.7-0.4c1-0.3,1-0.3,1.7-1.1
			c0.1-0.1,0.3-0.2,0.4-0.4c0.8-0.7,1.6-1.4,2.2-2.2c0.2-0.2,0.3-0.4,0.5-0.6c0.3-0.3,0.4-0.4,0-0.6c-0.4-0.2-0.4-0.4,0.1-0.6
			c0.2-0.1,0.5-0.2,0.3-0.4c-0.3-0.5-0.4-0.5-0.9,0c-0.2-0.3,0.1-0.7-0.1-1c-0.4-0.7,0.1-1.5-0.1-2.2c-0.1-0.3-0.2-0.4-0.6-0.3
			c-0.3,0.1-0.4,0-0.5-0.1c-0.2-0.1,0-0.2,0.1-0.3c0.5-0.3,0.6-0.6,0-0.8c-0.2-0.1-0.3-0.4-0.2-0.6c0.1-0.3-0.1-0.3-0.4-0.2
			c-0.3,0.1-0.5,0.1-0.7,0.2c-0.5,0.2-1.1,0.3-1.6,0.4c-0.6,0.1-1.2,0.2-1.7,0.4c-0.9,0.3-1.6,0.8-2.6,0.8c0.1-0.1-0.5,0.1-0.2-0.2
			c0.1-0.1,0.2-0.2,0.3-0.3c0.2-0.4,0.6-0.7,1.2-0.8c1-0.2,1.9-0.6,2.9-0.9c0.6-0.2,1.1-1.1,0.7-1.3c-0.5-0.2-0.3-0.4-0.2-0.7
			c0.1-0.2,0.3-0.3,0.2-0.5c-0.3-0.5,0.2-0.7,0.7-0.9c0.3-0.1,0.4-0.2,0.3-0.5c-0.1-0.5-0.5-0.8-1.3-0.7c1-0.6,0.9-1.2,0.7-1.8
			c-0.1-0.3-0.2-0.6-0.8-0.3c-0.2,0.1-0.5-0.1-0.5-0.2c0-0.2,0.2-0.2,0.4-0.2c0.3,0,0.6,0,0.5-0.4c-0.1-0.2,0.2-0.3,0.4-0.4
			c0.2-0.1,0.5-0.3,0.3-0.5c-0.2-0.2-0.5-0.1-0.7,0c-0.2,0-0.4,0-0.6,0.1c-0.1-0.1-0.3-0.1-0.4-0.2c-0.4-0.3-1-0.4-1.2-0.9l0,0
			c0,0,0.1,0,0.1,0c0.6-0.2,1.3,0,1.8-0.4c0.4-0.3,1.1-0.3,1.4-0.8c0.1-0.1,0.2-0.1,0.3-0.1c0.3,0,0.6,0.1,0.3-0.3
			c0,0,0.1-0.2,0.2-0.3c0.3-0.2,0.6,0,1-0.3c0.1-0.1,0.1,0.3,0.4,0.3c0.1-0.5,0.7-0.4,1-0.6c0.4-0.2,0.7-0.2,1-0.1
			c0.6,0,0.8-0.5,1.1-0.7c0.2-0.1,0-0.3-0.1-0.4c-0.1-0.1-0.2-0.1-0.4,0c-0.3,0.1-0.4,0.3-0.8,0.4c0.3-0.4,0.7-0.6,1.2-0.7
			c0.2,0,0.4-0.1,0.3-0.3c0-0.2-0.2-0.2-0.4-0.1c-0.1,0.1-0.3,0.2-0.4,0c0,0,0,0,0,0l0,0c0,0,0-0.1,0-0.1c0.2-0.1,0.5-0.1,0.5-0.3
			c0-0.2-0.3-0.2-0.5-0.1c-0.1,0-0.2,0-0.4-0.1c0,0,0,0,0,0c0,0,0,0,0,0c-0.3,0.3-0.8,0.2-1.1,0.4c-0.6,0.4-1.3,0.3-1.9,0.4
			c-0.3,0.1-0.8,0.4-1.2,0.1c0,0-0.2,0.1-0.2,0.1c-0.1,0.4-0.8,0.5-0.9,0.9c0,0.1-0.2,0.2-0.3,0.1c-0.1-0.4-0.5-0.2-0.8-0.1
			c-0.3,0-0.8,0.4-0.9-0.1c0-0.1-0.1,0-0.2,0c-0.3,0.1-0.4,0-0.6,0c-0.3,0-0.6-0.6-0.9,0c0,0.1-0.2,0.1-0.3,0.1
			c-0.4-0.1-0.8,0-1.2,0c-1.2,0.1-2.3,0.3-3.3,0.8c-0.5,0-1,0.2-1.5,0.3l0,0c-0.1,0-0.1,0-0.2,0c-1,0.1-2,0.3-3,0.7
			c0.2-0.2,0.6-0.3,0.5-0.6c0,0,0,0-0.1,0c0,0,0,0,0,0c0,0,0.1,0,0.1,0c0.4-0.2,1,0,1.2-0.5c0.1-0.2,0.2,0.2,0.4,0
			c-0.1-0.6-0.1-0.6-1-0.3c-0.3,0.1-0.6,0.2-0.8,0.4c-0.7,0-1.4,0.4-2.1,0.4c-0.1,0-0.2,0.1-0.2,0.2c-0.1,0.2-0.3,0.3-0.5,0.4
			c-0.9,0.4-2,0.5-2.8,1.1c0,0-0.1,0-0.1,0c-1.5,0.7-3.1,1.1-4.6,1.7c-1.5,0.5-3,1.1-4.5,1.7c-0.3,0.1-0.6,0.3-0.9,0.2
			c-0.6-0.1-1.2,0.2-1.6,0.4c-0.8,0.4-1.6,0.7-2.4,1c-0.8,0.1-1.4,0.5-2.2,0.7c-0.2,0-0.2,0.1-0.2,0.2c-0.3,0.1-0.6,0.2-0.8,0.3
			c-1.9,0.7-3.9,1.4-5.8,2.1c-0.2-0.2,0.7-0.5,0.1-0.7c-0.3-0.1-0.4-0.1-0.6,0.1l0,0c-0.3,0-0.2-0.3-0.5-0.3
			c0.1-0.2,0.3-0.2,0.5-0.2c0.5-0.1,1-0.3,1.5-0.6c0.2-0.1,0.7-0.4,0.8-0.2c0.2,0.3,0.4,0.1,0.5,0c0.8-0.4,1.5-0.9,2.4-1.1
			c0,0,0,0,0,0c0,0,0,0,0,0c0,0,0,0,0,0c0,0,0,0,0,0c0.3,0,0.6-0.1,0.8,0.1c-0.3-0.4-0.2-0.5,0.4-0.6c0.6-0.1,1-0.7,1.7-0.7
			c0,0,0,0,0,0c0.3,0,0.4-0.1,0.6-0.2c0.6-0.6,1.7-0.5,2.3-1.1c0,0,0.1,0,0.1,0c0.2,0,0.3,0,0.3-0.1c0-0.1-0.1-0.2-0.2-0.2
			c-0.5-0.1-0.7,0.2-0.9,0.5c-0.2-0.1-0.5-0.2,0-0.4c0.1,0,0.1-0.1,0.1-0.2l0,0c0.2-0.2,0.4-0.5,0.9-0.4c0.2,0,0.4-0.1,0.7-0.2
			c0.2,0,0.3-0.1,0.5-0.1c0.2,0.1,0.5-0.1,0.6,0.1c0.1,0.2-0.3,0.2-0.4,0.4c-0.1,0.1-0.3,0.1-0.3,0.2c0.9,0,0.9,0,1.1-0.6
			c0.1-0.3,0.3-0.3,0.4-0.1c0.3,0.4,0.7,0.2,1.1,0c0.5-0.3,0.7-0.8,1.4-0.9c0,0,0,0,0,0c0.1-0.2,0.4-0.3,0.6-0.4l0,0
			c1,0,1.7-0.5,2.5-1c0.3-0.2,0.2-0.4-0.2-0.5c-0.2,0-0.4,0-0.6,0.1c-0.3,0-0.7,0.2-1,0.1c-0.6-0.3-0.7,0-0.8,0.3
			c-0.1,0.2,0,0.4-0.4,0.4c-0.5,0-0.9,0.2-1.3,0.4c-0.5,0.2-1,0.3-1.5,0.4c-0.4-0.4-0.6,0.1-0.9,0.2c-0.2,0-0.2,0.4-0.3,0.5
			c-0.4,0.3-0.1-0.2-0.5-0.2c-0.5,0-1.6,0.5-2,0.9c0,0,0,0,0,0c0,0,0,0.1,0,0.1c-0.1,0.1-0.1,0.1-0.2,0.2c-0.1,0-0.1,0-0.2-0.1
			c-0.1-0.1,0.1-0.3-0.2-0.3c-0.2,0-0.3,0.2-0.4,0.3c-0.1,0.2-0.1,0.4-0.4,0.4c-0.1-0.1-0.3-0.3-0.5-0.1c-0.5,0.4-1.5,0.4-1.7,1.1
			c-0.1-0.1-0.1-0.2-0.2-0.2c-0.3,0.1-0.8,0-0.7,0.5c0,0.1-0.2,0.1-0.2,0.1c-0.2,0-0.3,0-0.5,0c0,0,0,0,0,0
			c-0.7,0.1-1.4,0.5-2.2,0.3c0,0,0,0,0,0c-0.2,0.1-0.6,0-0.5,0.4c0.1,0.5-0.1,0.7-0.8,0.6c-0.2,0-0.5,0-0.7,0.1c0,0,0,0,0,0
			c-0.5,0-1.1-0.3-1.2,0.4c0,0,0,0-0.1,0c-0.6,0.1-1.1,0.3-1.7,0.4c-0.2,0-0.3-0.2-0.5,0c-0.2,0.2,0.2,0.2,0.2,0.4
			c-0.2,0-0.4,0.1-0.5,0.1c-0.3-0.1-0.4-0.1-0.3,0.1c0,0.3-0.2,0.5-0.4,0.8c-0.3-0.1-0.1-0.3-0.2-0.4c-0.1-0.1-0.1-0.3-0.4-0.3
			c-0.2,0-0.2,0.2-0.3,0.3c-0.1,0.3-0.3,0.3-0.5,0.2c-0.7-0.2-1-0.1-1.2,0.5l0,0c-0.3,0.2-0.4,0.5,0,0.5c0.7,0,0.3,0.2,0.1,0.4
			c0,0,0,0,0,0c-0.4,0-0.6-0.1-0.6-0.4c0-0.3-0.2-0.4-0.5-0.5c-0.2,0-0.5,0.1-0.4,0.2c0.2,0.3-0.2,0.3-0.3,0.5l0,0
			c-0.7,0.1-1.4,0.4-2.1,0.4c-0.1-0.1-0.3-0.1-0.5,0l0,0c-0.2,0.1-0.7,0.1-0.5,0.3c0.3,0.5-0.3,0.3-0.5,0.4c-0.2,0-0.4,0.1-0.6,0
			c-0.5-0.2-0.9,0.1-1.2,0.3c-0.4,0.4-0.8,0.9-1.6,0.9c-0.1,0.2-0.1,0.4,0.2,0.3c0.8-0.2,0.7,0.3,0.9,0.6c-0.3,0.1-0.8,0.4-0.9,0.2
			c-0.2-0.4-1-0.2-1.2-0.7c-0.1-0.3-0.5-0.4-0.9,0c-0.3,0.2-0.7,0.3-1,0.4c-0.8,0.1-1.4,0.5-2.2,0.6c-0.1,0-0.2-0.1-0.2-0.1
			c-0.2,0.1-0.4,0.2-0.6,0.3l0,0c-0.3,0.3-0.9,0.2-1.1,0.5c0,0.2-0.3,0.3-0.5,0.3c-0.4,0-1-0.2-1.1,0.4c-0.1,0.1-0.3,0.2-0.4,0.2
			c-0.7,0.3-0.8,0.4-0.2,0.7c0,0.1,0,0.2-0.1,0.2c0,0-0.1,0-0.1,0.1c-0.1-0.1-0.2-0.2-0.3-0.2c-0.3-0.1-0.5-0.1-0.9,0
			c-0.5,0.2-1,0.3-1.5,0.5c-0.1,0-0.1,0-0.2,0c-0.2,0-0.4,0.1-0.5,0.2c-0.2,0-0.4,0.1-0.6,0.2c-0.1,0-0.2,0.1-0.3,0.1
			c-0.5,0.1-0.9,0.2-1.4,0.3c-1.5,0.6-3.2,0.8-4.7,1.5c-0.4,0.2-0.8,0.2-1.1,0c0,0-0.1,0-0.1-0.1c0-0.1,0-0.1-0.1-0.2
			c-0.6-0.1-0.2-0.2,0-0.4c0.1,0,0.1,0,0.2-0.1l0,0c0.2,0,0.3-0.1,0.5-0.1c0.2-0.1,0.5-0.1,0.7-0.2c0,0,0.1,0,0.1,0
			c0.3-0.1,0.6-0.1,0.8-0.2c0.3,0,0.6,0,0.9,0.1c0.1,0,0.3,0,0.4,0c0,0,0.1,0,0.1,0c0.1,0,0,0,0.1,0c0.3-0.1,0.7-0.1,1-0.2
			c0.8-0.4,1.7-0.7,2.6-1c0,0,0,0,0,0c0.3,0.1,0.4-0.2,0.6-0.3c0.1-0.1,0.2-0.1,0.3-0.2c0.3-0.1,0.5-0.2,0.7-0.4
			c0.4-0.3,0.8-0.5,1.3-0.7c0.1,0,0.2,0,0.3,0c0.2,0.2,0.5,0.2,0.8,0c0.2-0.1,0.4-0.2,0.5-0.2c0.7,0.1,0.9-0.2,1-0.6c0,0,0,0,0,0
			c0.1,0,0.1,0,0.2,0c0.8-0.1,1.6-0.1,2.2-0.7c0,0,0.1,0,0.1,0c1-0.1,1.8-0.5,2.6-1c0.1-0.1,0.3-0.2,0.5-0.2c0.1,0,0.3-0.1,0.4-0.1
			c0.4-0.2,0.7-0.4,1.1-0.3c0.2-0.1,0.4-0.1,0.4-0.3c0-0.2-0.3,0-0.4-0.1c-0.2-0.1-0.4-0.1-0.3-0.3c0.4-0.2,0.9-0.3,1.3-0.5
			c0.2,0,0.3,0.1,0.5,0.1c0.1,0.5,0.6,0.2,0.9,0.1c0.7-0.2,1.4-0.5,2.1-0.7c0.1,0,0.3-0.1,0.3-0.2c-0.1-0.2-0.3-0.2-0.6-0.2
			c-0.1,0-0.2,0.1-0.2,0c0.1,0,0.1,0,0.2-0.1c0.1-0.1,0.4-0.3,0.4-0.5c0-0.1-0.3-0.1-0.5,0c-0.6,0.3-1.4,0.5-2,0.8
			c-0.2,0-0.4,0.1-0.4-0.1c0.2-0.2,0.3-0.2,0.6-0.1c0.2,0,0.3-0.1,0.4-0.2c0-0.1,0.1-0.2,0-0.2c-0.1-0.1-0.3-0.1-0.4,0
			c-1.1,0.4-2.2,0.7-3.3,1.2c-0.2,0.1-0.5,0.1-0.7,0.2c-0.2,0-0.3,0.1-0.5,0.1c-0.6,0.3-1.3,0.3-1.8,0.7l0,0
			c-0.3,0.1-0.6,0.1-0.9,0.2c-0.4,0.2-0.9,0.4-1.4,0.4c-0.4,0-0.7,0.2-1,0.3c-0.1,0-0.2,0.1-0.4,0.1c-0.1,0-0.2,0-0.3,0
			c-0.1,0-0.2,0.1-0.2,0.2c-0.1,0.1-0.1,0.1-0.2,0.2c-0.3,0.2-0.9,0-0.7,0.6c0,0.2,0.4,0.1,0.5,0.2c0,0-0.1,0.1-0.1,0.1
			c-0.2,0.1-0.3,0.1-0.5,0.1c-0.2-0.2-0.4-0.6-0.8-0.4c-0.7,0.2-1.4,0.4-2.1,0.6c-0.2,0.1-0.5,0.1-0.6,0.3c0,0.1-0.2,0.1-0.3,0.1
			c-0.4-0.1-0.6-0.1-0.9,0.2c-0.7,0.6-1.7,0.8-2.5,1.1c-0.3,0.1-0.5-0.1-0.8,0.1c-0.3,0.3-0.4,0.1-0.4-0.1c0-0.1,0.1-0.3-0.2-0.3
			c0,0-0.2,0-0.2,0.1c0,0.1-0.2,0.3,0,0.4c0.1,0.1,0.2,0.2,0,0.3c-0.8,0.3-1.4,0.7-2.3,0.8c-0.3,0-0.6,0.1-0.7-0.2
			c0-0.2-0.2-0.1-0.4,0c-0.2,0.1-0.6,0.1-0.6,0.3c0,0.2,0.3,0.1,0.4,0.1c0.1,0.1,0.5-0.1,0.4,0.2c-0.3,0.2-0.7,0.2-1,0.4
			c-0.6,0.2-1.2,0.5-1.8,0.7c-0.9,0.1-1,0-1.1-0.6c0-0.1-0.1-0.1-0.3-0.1c-0.2,0.1-0.4,0.1-0.5,0.2c-0.3,0.1-0.6,0.2-0.9,0.3
			c-0.2,0.2-0.2,0.4,0.2,0.4c0.3,0,0.6,0,1.1,0c-0.4,0.3-1,0.3-1.2,0.6c0,0,0,0,0,0c-0.6,0-0.7,0.4-1,0.7c-0.1,0.1-0.2,0.1-0.3,0
			c-0.3-0.2-0.2-0.6-0.6-0.7c-0.2,0-0.4-0.3-0.6-0.2c-0.3,0.2,0.1,0.4,0.1,0.5c0,0.1,0.1,0.2,0.2,0.3c0.1,0.3-0.1,0.5-0.5,0.6
			c-0.5,0.2-1,0.3-1.5,0.5c-0.7,0.3-1.4,0.3-2.2,0.4c0.5-0.3,0.6-0.4,0.4-0.5c-0.3-0.1-0.5,0.1-0.7,0.2c-0.2,0.2-0.2,0.3,0,0.4
			c-0.7,0.3-1.4,0.2-2.1,0.4c-0.4,0.1-0.8,0.4-1.4,0.4c-0.4,0-0.6,0-0.2-0.4c-0.2,0-0.4,0-0.5,0.1c-0.4,0.3-0.9,0.2-1.3,0.4
			c-0.3,0.1-0.3,0.7-0.9,0.4c0,0-0.1,0.1-0.1,0.1c-0.1,0.3-0.3,0.3-0.5,0.1c-0.1-0.1-0.1-0.1-0.2,0c-0.5,0.3-1,0.4-1.6,0.4
			c-0.2,0-0.5,0.1-0.2,0.3c0.4,0.2,0.5,0.5,1,0.6c0,0,0.1,0.1,0.1,0.1c-0.4,0.4-1.3,0.6-1.8,0.4c-0.5-0.2-0.9-0.2-1.4,0.1
			c-0.1,0.1-0.4,0.2-0.5,0.1c-0.6-0.3-1.1,0.1-1.6,0.4c-0.2,0.1-0.4,0.4-0.7,0.1c-0.2-0.1-0.4,0-0.5,0.1c-0.5,0.6-1.3,0.8-2.1,1
			c-0.3-0.1-0.5,0-0.6,0.2c-0.1,0.2,0.1,0.3,0.3,0.5l0,0c0.1,0.2,0.3,0.1,0.5,0.1c0.3-0.1,0.6-0.2,1-0.1c-0.4,0.2-0.8,0.4-0.3,0.7
			c0.2,0.1,0,0.3-0.2,0.4c-0.2,0.1-0.5,0.2-0.7,0.3c-0.4,0.1-0.7,0.3-1.1,0.3c0.1-0.2,0.4-0.3,0-0.4c-0.4-0.2-0.1-0.3,0.2-0.3
			c0.2,0,0.3,0.1,0.5,0.1c0.1,0,0.2,0.1,0.3,0.1c0.1-0.1,0-0.2,0-0.3c0-0.5-0.5-0.7-0.9-1c-0.2-0.1-0.4-0.1-0.6,0.1
			c-0.2,0.2-0.6,0.3-0.9,0.4c-0.5,0.2-1,0-1.5,0.4c-0.2,0.2-0.4,0.3-0.6,0.4c-0.4,0.2-1,0.2-1.3,0.4c-0.9,0.5-1.7,0.9-2.7,1.2
			c-0.8,0.2-1.6,0.5-2.4,0.7c-0.9,0.2-1.8,0.5-2.6,1c-0.7,0.3-1.3,0.6-2,0.7c-0.7,0.2-1,0.6-1.1,0.9c-0.2,0.7-0.5,0.3-0.8,0.2
			c-0.2-0.1-0.5-0.3-0.6-0.2c-0.4,0.4-1,0.4-1.5,0.6c-0.5,0.2-1.1,0.6-1.7,0.5c-0.6-0.1-0.5,0.2-0.6,0.4c-0.2,0.3,0.1,0.4,0.4,0.4
			c0.1,0,0.3-0.1,0.3,0.1c-0.1,0.1-0.3,0.1-0.4,0.2c-0.1,0.1-0.1,0.1-0.1,0.2c0.1,0.1,0.2,0.1,0.3,0c0.4-0.4,0.9-0.3,1.4-0.4
			c0.3-0.2,0.7-0.2,1-0.4c0.3-0.2,0.3,0,0.2,0.2l0,0c-0.6,0.3-0.6,0.3,0,0.5c0,0,0,0,0,0.1l-0.1,0l-0.1,0c-0.2,0-0.2,0.1-0.4,0.2
			c-0.3,0-0.5,0.2-0.7,0.2c-0.4,0.1-0.7,0.2-1.1,0.3c-0.2,0.1-0.5,0.2-0.6,0.1c-0.2-0.2-0.4-0.1-0.7,0c-0.2,0.1-0.5,0.1-0.8,0.2
			c0.1-0.3,0.7-0.6,0-0.6c-0.4,0-0.7,0-1.1,0c-0.6,0.2-1.2,0.1-1.7,0.4c-0.5,0.3-1.1,0.4-1.7,0.6c-0.1,0-0.2,0.1-0.3,0.1
			c-0.6,0.2-1.1,0.7-1.8,0.6c-0.2,0-0.6,0.1-0.7,0.4c-0.2,0.3,0.2,0.3,0.4,0.4c0.3,0.2-0.2,0.2-0.1,0.3c0,0,0,0,0,0l0,0
			c-0.6,0.2-0.1,0.6-0.3,0.9c0,0.1,0,0.1,0,0.2c0,0,0,0,0,0l0,0c-0.1,0.3-0.5,0.4-0.7,0.6c-1,0.2-1.9,0.6-2.8,1.1
			c-1.7,0.9-3.6,1.4-5.4,2.3c-0.9,0.4-1.9,0.8-2.8,1.2c-0.2,0.1-0.5,0.2-0.8,0.3c-0.8,0.2-1.5,0.7-2.4,0.7c0,0,0,0-0.1,0
			c-0.8,0.7-2,0.9-3,1.3c-0.8,0.3-1.8,0.4-2.4,1c-0.2,0.2-0.4,0.2-0.7,0.2c-1.1,0.1-2,0.6-2.9,1c-0.7,0.3-1.4,0.6-2.1,0.9
			c-0.2,0.1-0.4,0.1-0.5,0c-0.3-0.1-0.4,0-0.6,0.2c-0.4,0.5-0.9,1-1.8,0.9c-0.3,0-0.5,0.1-0.7,0.2c-0.3,0.2-0.6,0.5-1.1,0.5
			c-1.2,0-2.3,0.5-3.4,1c-1,0.4-1.2,0.4-1.4-0.4c0-0.1,0-0.3-0.3-0.2c-0.2,0-0.4,0.1-0.5,0.3c-0.1,0.3,0,0.5,0.3,0.7
			c0.3,0.2,0.2,0.3-0.1,0.5c-0.9,0.4-1.8,0.6-2.8,0.9c-0.4,0.1-0.2-0.1-0.1-0.3c0.2-0.4,0.1-0.5-0.4-0.5c-0.2,0-0.4,0.1-0.7,0
			c-0.8-0.2-0.5,0.4-0.7,0.6c-0.2,0.3,0,0.4,0.3,0.4c0.5,0.1,0.7,0.3,0.3,0.5c-0.7,0.4-1.2,0.9-2,1.2c-0.7,0.3-1.5,0.2-2.1,0.7
			c-0.1,0.1-0.5,0.3-0.7,0.2c-0.6-0.2-1.1-0.2-1.8,0c-0.9,0.2-1.8,0.5-2.8,0.4c-0.2,0-0.6,0-0.4,0.3c0.1,0.1-0.2,0.3-0.5,0.3
			c-0.7-0.1-0.7-0.1-0.8,0.5c0,0.1,0.1,0.3-0.2,0.4c-0.2,0.1-0.3-0.1-0.4-0.2c-0.2-0.2-0.5-0.6-0.7,0.1c0,0.1-0.1,0.1-0.2,0.1
			c-0.6-0.1-1.1,0.2-1.6,0.5c-0.7,0.4-1.4,0.8-2.2,1.1c-0.6,0.2-1.2,0.3-1.8,0.5c-0.8,0.3-1.6,0.5-2.4,0.9c-1.2,0.6-2.5,0.9-3.7,1.3
			c-1.4,0.5-2.7,1.1-3.9,1.9c-0.6,0.2-1,0.5-1.3,0.9c-0.5,0.3-0.9,0.6-1.2,1c-0.5,0.8-1.4,1.1-2.4,1.3c-0.6,0.1-1,0.3-1.2,0.8
			c-0.2,0.4-0.5,0.7-0.9,1.1c-0.5,0.4-1,0.8-1.3,1.3c-0.1,0.2-0.3,0.3-0.6,0.4c-0.3,0-0.4,0.2-0.5,0.3c-0.6,0.8-1,1.7-1.9,2.4
			c-0.2,0.2-0.1,0.4,0.1,0.5c0.4,0.3,0.4,0.5-0.2,0.7c-0.6,0.3-0.7,0.4-0.3,0.8c0.1,0.1,0.2,0.3,0.3,0.4c0.1,0.1,0.1,0.2,0.4,0.1
			c0.5,0,0.5-0.4,0.8-0.7c0,0.8,0,1.6,0.3,2.2c0.3,0.7-0.5,1.6,0.1,2.3c0,0,0,0.1,0,0.1c-0.2,0.6,0.1,0.8,0.9,0.6
			c0.3-0.1,0.5,0,0.6,0.1c0.1,0.1,0,0.2-0.1,0.4c-0.1,0.1-0.2,0.2-0.3,0.3c-0.5,0.4-0.5,0.6,0,0.8c0.6,0.2,0.5,0.6,0.6,0.9
			c0.2,0.5,0.1,0.6,0.8,0.3c0.9-0.4,1.8-0.5,2.7-0.8c0.7-0.2,1.5-0.1,2.3-0.4c-0.8,0.8-1.4,1.7-2.3,2.3c-0.3,0.2-0.1,0.3,0.1,0.5
			c0.5,0.5,0.4,0.7-0.5,0.9c-0.1,0-0.4,0-0.3,0.2c0,0.4,0.1,0.8,0.6,1c0.4,0.1,0.5-0.3,0.8-0.4c0.2,0.5-0.3,0.9-0.1,1.4
			c0.2,0.5,0.2,1,0,1.6c-0.2,0.4-0.4,0.9-0.1,1.3c0.1,0.1,0,0.3-0.1,0.4c-0.1,0.1-0.2,0.3,0,0.4c0.2,0.1,0.3,0.3,0.6,0.1
			c0.2-0.1,0.3-0.1,0.5,0c0.4,0.2,0.4,0.4-0.3,0.8c-0.6,0.3-0.5,0.6-0.1,0.8c0.5,0.3,0.4,0.7,0.3,1.1c-0.1,0.4,0.2,0.4,0.5,0.4
			c0.4-0.1,0.7-0.1,1.1-0.2c0.7-0.3,1.5-0.1,2.1-0.4c1.4,0.2,2.7-0.3,4.1-0.7c0.7-0.2,1.5-0.5,2.2-0.5c0.6,0,1-0.1,1.4-0.5
			c0.2-0.2,0.5-0.3,0.8-0.3c0.6,0,1.3-0.1,1.9-0.2c0.5-0.1,1.1-0.2,1.4-0.6c0.4-0.5,0.9-0.6,1.4-0.5c0.5,0.1,0.9,0,1.3-0.1
			c0.2,0,0.4-0.3,0.6-0.2c0.9,0.2,1.7,0,2.5-0.3c0.6-0.3,1.1,0,1.6-0.1c1,0,2-0.2,2.9-0.2c0.5,0,1-0.1,1.6-0.4
			c0.5-0.3,1.3-0.4,2-0.5c0.1,0,0.2,0,0.2,0.1c0.3,0.3,0.7,0.2,1.1,0c0.8-0.3,1.6-0.3,2.4-0.4c0.8-0.1,1.6-0.3,2.5-0.2
			c0.3,0,0.3-0.2,0.3-0.4c0-0.3-0.2-0.1-0.4-0.1c-0.5,0-1.1,0-1.4-0.3c0.5-0.1,1-0.4,1.5-0.3c0.2,0,0.5-0.1,0.6-0.3
			c0.2-0.4,0.7-0.6,1.1-0.7c0.1,0,0.3,0,0.3,0.1c0,0.1-0.1,0.3-0.2,0.3c-0.7,0.1-0.7,0.5-0.9,0.8c-0.2,0.3-0.2,0.5,0.4,0.5
			c0.4,0,0.7,0.4,1.1,0.2c0.7-0.4,1.4-0.1,2.1-0.2c-0.2,0.1-0.5,0.2-0.7,0.3c-0.1,0-0.3,0.1-0.2,0.2c0.3,0.3-0.2,0.4-0.3,0.5
			c-0.6,0.4-1.4,0.3-2,0.5c-1.7,0.5-3.3,1-4.9,1.7c-2.5,1.1-5,2.3-7.6,3.4c-1,0.4-1.9,0.8-2.9,1.3c-0.5,0.2-1,0.4-1.4,0.8
			c-0.2,0.1-0.3,0.1-0.5,0.2c-1.3,0.5-2.6,1-3.8,1.7c-1.8,0.7-3.6,1.6-5.2,2.7c-2.2,1-4,2.5-5.7,4c-0.3,0.3-0.6,0.6-1,0.8
			c-0.7,0.5-1.5,0.9-1.6,1.7c-0.2,0.1-0.4,0.2-0.6,0.4c-0.3,0.3-0.5,0.5-0.4,0.8c-0.1,0.1-0.1,0.1,0,0.2c0,0,0.1,0,0.1,0
			c0,0,0.1,0.1,0.1,0.1c0,0,0,0.1,0,0.2c-0.1,0.2-0.1,0.3,0.2,0.3c0.2,0,0.2,0.1,0.2,0.2c0.2,0.7,0.8,0.9,1.7,0.8
			c0.2,0,0.4-0.1,0.6,0.1c0.1,0.1,0.4,0,0.6,0c1.1-0.1,2.2-0.1,3.3-0.4c0.7-0.2,1.4-0.3,2-0.5c1.3-0.3,2.6-0.2,4-0.4
			c-0.3,0.2-0.4,0.4-0.3,0.6c0,0.3-0.6,0.8-1,0.7c-0.7-0.1-0.8,0.2-0.8,0.6c0,0.2,0,0.4,0.3,0.5c0.2,0,0.2,0.2,0.1,0.3
			c-0.4,0.4,0.5,0.8-0.2,1.3c0.5,0.3-0.1,0.8,0.2,1.2c0.2,0.2,0.2,0.5-0.1,0.7c-0.3,0.2-0.7,0.2-1,0c-0.2-0.1-0.4-0.3-0.9-0.2
			c0.6,0.3,1.2,0.6,1.1,1.2c0,0.2,0.2,0.2,0.3,0.3c0.1,0.1,0.3,0.1,0.3,0.2c0.1,0.6,0.4,1.2,0.6,1.8c-0.1,0.1,0,0.2,0,0.3
			c-1.1,0.3-2.2,0.5-3.3,0.8c-1.6,0.4-3.1,1.1-4.8,1.4c-1.3,0.2-2.4,0.6-3.6,1.1c-0.4,0.2-0.8,0.5-1.3,0.6c-2.4,0.6-4.8,1.1-7.1,1.8
			c-2.8,0.9-5.4,2.1-7.7,3.7c-0.6,0-1.1,0.2-1.7,0c-0.5-0.1-0.8,0-1.1,0.1c-0.3,0.1-0.5,0.4,0,0.6c0.2,0.1,0.5,0.2,0.4,0.4
			c-0.2,0.6,0.3,0.6,0.7,0.7c-0.2,0.3-0.7,0.3-0.9,0.6c-0.4,0.1-0.4,0.5-0.1,0.5c0.6,0,1.1,0.5,1.7,0.4c0.7-0.3,1.4-0.3,2.2-0.3
			c0.2,0,0.4,0,0.5,0.2c0.7,0.8,0.9,0.9,1.9,0.7c0.8-0.2,1.4-0.7,2.2-0.9c0.3,0.1,0.6-0.1,0.8-0.2c0.7-0.3,1.5-0.4,2.4-0.6
			c-0.6,0.5-1,1.1-1.6,1c-0.6-0.1-0.8,0.1-1.2,0.3c-0.8,0.4-1.6,0.8-2.4,1.2c-0.3-0.2-0.5-0.3-0.6,0.1c-0.1,0.4-0.4,0.6-0.8,0.8
			c-0.3,0.2-1,0.1-0.8,0.8c-0.1,0-0.1,0-0.2-0.1c0-0.2-0.1-0.4-0.4-0.3c0.1-0.3,0.1-0.6-0.4-0.3c-0.4,0.2-0.8,0.5-1.1-0.3
			c-0.1,0.4,0.2,0.8,0.1,1.1c0,0,0,0.1,0,0.1c0,0,0,0.1,0,0.1c0.1,0.5-0.3,0.7-0.9,0.7c0.3-0.1,0.6-0.2,0.4-0.6
			c-0.2-0.4-0.5-0.1-0.8-0.1c-0.2,0-0.3,0.1-0.4,0.3c-0.6,0.1-1.2,0.2-1.5,0.8c-0.2,0.3-0.7,0.1-0.8,0.4c-0.6,0.1-1.1,0.4-1.7,0.4
			c0,0.1,0.1,0.3,0.1,0.5c-0.1,0.1,0,0.2,0,0.3c-0.1,0.1-0.2,0.2-0.3,0.2c-0.3,0.1-0.5,0.2-0.4,0.5c0.1,0.2,0.4,0.3,0.7,0.2
			c0.5-0.1,0.9-0.3,1.4-0.4c0.3-0.1,0.7,0.1,0.7,0.1c0.1-0.6,0.5-0.1,0.8-0.1c0.2-0.4-0.2-0.5-0.3-0.7c0.2,0,0.5,0,0.7-0.1
			c0.9-0.5,1.9-0.6,2.9-0.6c0.3,0.1,0,0.6,0.5,0.6c0.4,0-0.1-0.4,0.3-0.4c0.2,0.3,0.5,0.5,0.9,0.5l0,0c0,0.1-0.3,0.2-0.2,0.4
			c0.1,0.1,0.3,0,0.4,0c0.4-0.2,0.7-0.3,1.1-0.5c0.7-0.2,1.4-0.4,2-0.6c0.5-0.2,1-0.2,1.4-0.6c0.1,0,0.1-0.1,0.2-0.1
			c0.6,0.5,1.4,0.5,1.9-0.1c0.1-0.1,0.2-0.1,0.3-0.1l0,0c0.3,0.3,0.5,0,0.7-0.2c0.1-0.1,0.2-0.4,0.4-0.3c0.7,0.2,1-0.3,1.5-0.5
			c0.3,0,0.6,0,0.7-0.3c0.2-0.5,0.5-0.5,1-0.3c0.4,0.2,0.9,0.1,1.1-0.3c0.2-0.4-0.3-0.3-0.4-0.5c0.6-0.3,1.2-0.5,1.9-0.7
			c0.3-0.1,0.7-0.3,1-0.4c0.3-0.2,0.6,0,0.9,0c0.9,0.2,2.5-0.5,2.9-1.2c0.1-0.2,0.3-0.4,0.6-0.3c0.4,0.2,0.7,0.1,1,0
			c0.7-0.3,1.3,0,2,0.2c-0.1,0.2-0.2,0.1-0.3,0.2c-2.1,1-4.5,1.6-6.6,2.6c-1.4,0.6-2.8,1-4.2,1.5c-1.2,0.5-2.4,1.1-3.6,1.5
			c-1.1,0.3-2,0.8-3.1,1.4c0.2,0,0.3,0,0.4,0c1.6-0.5,3.3-0.9,4.9-1.6c1.6-0.7,3.4-1.2,5.1-1.8c1-0.3,1.8-1,3-0.9
			c0.2,0,0.5-0.1,0.8-0.2c1.7-0.9,3.6-1.4,5.4-2.2c0.8-0.4,1.7-0.4,2.6-0.7c0.2,0.1,0.3-0.1,0.5,0c0,0.1,0,0.2,0,0.3
			c0.2,0.4-0.2,0.6-0.3,0.9c-0.7,0.5-1.6,0.6-2.3,0.9c-0.3,0.1-0.7,0.2-1,0.4l0,0c-0.3,0.2-0.5,0.4-0.2,0.7
			c-0.7,0.3-1.5-0.1-2.2,0.2c0.3,0.3,0.6,0.1,0.8,0.3c-0.2,0.2-0.3,0.3-0.5,0.4c-0.1,0-0.1,0-0.2-0.1c-0.1-0.2-0.2-0.4-0.4-0.5
			c-0.2-0.1-0.6,0-0.4,0.2c0.3,0.4-0.1,0.5-0.2,0.7c-0.1,0.1-0.2,0.3-0.3,0.4c-0.6-0.1-1.1,0-1.6,0.2c0,0,0,0,0,0.1c0,0,0,0,0,0
			c0,0,0-0.1,0-0.1c-0.5-0.4,0.4-0.4,0.2-0.7c-0.5,0-0.8,0.2-0.7,0.8c-0.9-0.4-0.9-0.4-1.3,0.3c0,0.1-0.1,0.1-0.2,0.1
			c-0.4,0.1-0.8,0.1-0.9,0.6c-0.4,0.1-0.9,0.1-1.2,0.5c-0.2-0.1-0.4,0.1-0.6,0.2c-0.2,0-0.4,0.1-0.3,0.3c0.1,0.2,0.3,0.2,0.5,0.2
			c0.6-0.2,1.2-0.2,1.6-0.7c0.4,0.2,0.7,0,1-0.2l0,0c0.4,0,0.8-0.1,1.1-0.2c0,0,0.1,0,0.1,0c0.4,0.2,0.5-0.1,0.7-0.3
			c0.1-0.1,0.2-0.4,0.4-0.3c0.1,0.2,0,0.4,0.2,0.5c0.2-0.1,0.5-0.2,0.7-0.3c0,0,0.1,0,0.1,0c0.6,0.1,0.7-0.3,0.8-0.7l0,0
			c0.2,0.2,0.5,0.5,0.6,0c0-0.1,0.1-0.2,0.3-0.2c0.4,0,0.8-0.1,1.1-0.4c0.1-0.1,0.5-0.2,0.7-0.2c0.1,0,0.8,0.1,0.2-0.4
			c-0.1-0.1,0.1-0.1,0.2-0.1c0.5,0.2,0.9,0.2,1.4,0c0.7,0.4,0.9,0.4,1.1-0.4c0-0.2,0.2-0.2,0.3-0.2c0.5-0.1,0.8,0.1,1,0.7
			c0.1-0.5,0.2-0.6,0.5-0.7c0.4-0.1,0.2-0.3,0.1-0.6c0.5-0.3,1.3,0,1.7-0.6c0.1-0.1,0.4-0.2,0.4-0.4c-0.1-0.2-0.4-0.2-0.6-0.2
			c-0.1,0-0.2,0-0.2-0.2c0.6-0.6,1.4-0.4,2.1-0.6c0.2,0.1,0.7,0.2,0.2,0.5c-0.1,0.1-0.2,0.1,0,0.2c0.1,0.1,0.2,0.1,0.3,0.1
			c0.3-0.1,0.4-0.3,0.5-0.5c0.2,0.2,0.3,0.3,0.4,0.6c0.1,0.7,0.6,1.1,1.1,1.6c0.1,0.1,0.3,0.2,0.5,0.2c1.2,0.2,2.3,0.5,3.5,0.6
			c1.9,0.2,3.7,0.1,5.6-0.4c1.2-0.3,2.4-0.7,3.6-1c0.8-0.2,1.5-0.5,2.3-0.7c1.2-0.3,2.4-0.5,3.5-1c0.1,0,0.1,0,0.2,0
			c1.2-0.1,2.3-0.5,3.4-1c0.2-0.1,0.3-0.4,0.5-0.3c0.8,0.3,1.4,0,2.1-0.3c0.1-0.1,0.4,0,0.5-0.2c0.2-0.3,0.4-0.8,1.1-0.4
			c0.1,0.1,0.4,0.1,0.6,0.1c0.9-0.3,1.8-0.3,2.8-0.5c0.2,0,0.3,0,0.3-0.2c-0.1-0.4,0.3-0.3,0.5-0.3c0.2,0,0.4,0,0.6,0
			c-0.4,0.2-0.8,0.4-1.2,0.7c-0.5,0.3-1,0.4-1.4,0.8c-1,0.4-2.1,0.9-2.7,1.8c-1.6,0.5-2.8,1.4-3.7,2.7c-1.2,0.3-2,1.3-3.3,1.5
			c-0.1,0-0.1,0.1-0.1,0.1c0.3,0.6-0.3,0.5-0.6,0.6c-0.3,0.1-0.6,0.2-0.9,0.4c-0.9,0.7-2,0.9-3.1,1.2c-1.7,0.6-3.6,0.9-5.3,1.5
			c-0.5,0.2-1,0.3-1.5,0.4c-0.8,0.2-1.6,0.3-2.2,0.7c-0.5,0.3-1,0.6-1.6,0.8c-1.8,0.5-3.7,0.8-5.4,1.5c-0.4,0.2-1,0.4-1.5,0.3
			c-0.6-0.1-1.1,0-1.5,0.3c-0.4,0.3-0.9,0.4-1.4,0.5c-1.9,0.3-3.8,0.8-5.5,1.5c-0.5,0.2-1.1,0.4-1.7,0.8c0.3,0,0.4,0.1,0.6,0
			c1-0.2,2-0.3,3-0.5c0.8-0.1,1.6-0.1,2.4-0.2c1.9-0.4,3.8-0.8,5.6-1.2c0.2,0.1,0.7-0.1,0.8,0.3c0.1,0.3-0.4,0.3-0.6,0.4
			c-0.1,0.1-0.2,0.2-0.3,0.3c0.3,0.1,0.5,0.2,0.8,0.3c0.2,0,0.4,0,0.4,0.2c0,0.2-0.1,0.3-0.3,0.3c-0.6,0.2-1,0.7-1.5,1.1
			c-0.4,0.1-0.7,0.4-1.2,0.4c-0.4-0.3-0.7-0.1-1,0c-0.9,0.5-2,0.8-3,1.1c-1,0.3-1.7,0.8-2.4,1.5c0.5,0.4,1.2,0.6,1.7,0.4
			c1-0.3,2.1-0.5,3.2-0.8c0.5-0.2,0.9-0.6,1.5-0.5c0.3,0.1,0.6,0,0.9-0.2c0,0,0.1,0,0.1,0c0.5,0.9,1.2,1.4,2.3,1.1
			c0.4,0,0.9,0.2,1.3-0.1c0.3-0.1,0.6-0.1,0.9,0.2c0.8,0.6,1.7,0.5,2.5,0.3c1-0.3,2.1-0.4,3.1-0.5c1.2-0.2,2.4-0.3,3.5-0.6
			c2.1-0.6,4.3-0.5,6.4-1.2c0.4-0.1,0.8-0.1,1.2-0.2c-1.9,0.9-4,1.2-6.1,1.7c-2.1,0.5-4.1,0.9-6.2,1.4c-2,0.5-4.2,0.6-6.3,1.2
			c1,0.5,1.8,0.2,2.6,0.1c1.8-0.3,3.5-0.8,5.3-0.9c0,0,0.1,0,0.1,0c0.6,0,1.1-0.5,1.8-0.1c-0.4,0.3-0.9,0.3-1.3,0.5l0,0
			c-0.6-0.2-1,0.1-1.5,0.4c0.4,0.1,0.7,0.1,1,0c0.4-0.1,0.8,0.5,1.1,0.1c0.3-0.3,0.8-0.4,1.2-0.5c0.4,0,0.8,0.2,1.1-0.2l0,0
			c0.1,0.3,0.7,0.3,0.4,0.6c-0.2,0.2-0.2,0.6-0.6,0.5c-0.1,0-0.2,0.1-0.2,0.2c0,0.1,0.1,0.2,0.2,0.3c0.1,0.1,0.2,0,0.3-0.1
			c0.1-0.4,0.4-0.2,0.6-0.2c0.4,0.1,0.7,0.1,1.1-0.2c0.1,0.4-0.2,0.6-0.3,1c0.3-0.1,0.5-0.2,0.7-0.2c0.1,0.1,0.1,0.1,0.2,0.2
			c0.1,0.1-0.1,0.4,0.3,0.4c0.2,0,0.2-0.2,0.1-0.4c-0.1-0.2,0.1-0.2,0.2-0.1c0.2,0.1,0.3,0.1,0.4,0c0.3,0,0.6,0,0.9,0
			c0,0,0,0.1,0,0.1c0,0-0.1,0-0.1,0c-0.5,0.1-0.5,0.6-1,0.9c-0.2,0.1,0.1,0.4,0.4,0.3c0,0,0.1,0,0.1,0.1c0,0,0,0,0,0.1
			c-0.2,0.5-0.9,0.1-1.2,0.5c-0.3-0.1-0.4-0.5-0.8-0.3c-0.2-0.7-0.2-0.7-1-0.4c0,0-0.1,0-0.1-0.1c-0.1-0.2,0.4-0.2,0.3-0.5
			c-0.1-0.1-1.7-0.4-1.7-0.3c0,0.4-0.4,0.3-0.6,0.5c0.5-0.3,0.4,0.6,0.9,0.4c0.2,0.3,0.5,0.3,0.8,0.3c0.3,0,0,0.2,0.1,0.3
			c-0.3,0-0.6,0.1-0.8,0c-0.4-0.3-0.7-0.2-1,0c-0.4,0.1-0.9-0.1-1.3-0.1c-1,0-2,0-2.8,0.5c-0.2,0.1-0.5,0.3-0.8-0.1
			c-0.1-0.1-0.4-0.1-0.6,0.1c-0.1,0.1-0.2,0.2-0.4,0.2c-0.9,0.1-1.8,0.3-2.5,0.9c-0.1,0.1-0.3,0.2-0.2,0.4c0.1,0.2,0.2,0.2,0.4,0.2
			c0.2,0,0.4,0,0.6,0c0.2,0,0.3,0.1,0.4,0.3c0.1,0.4-0.4,0.5-0.3,0.8c-0.1-0.1-0.3-0.1-0.4-0.2c-0.4-0.3-0.8-0.4-1.1-0.1
			c-0.2,0.2-0.5,0.3-0.8,0.3c-0.4,0.1-0.8,0.1-0.8,0.6c0,0.2-0.2,0.1-0.3,0c-0.1-0.1-0.1-0.3-0.2-0.4c0.7-0.5,1.5-0.9,2-1.6
			c-0.6-0.2-0.8,0.3-1.1,0.3c-0.7,0-1.5-0.1-1.7,0.8c0,0-0.1,0.1-0.1,0.1c-0.7,0.1-1.3,0.5-2.1,0.2c-0.5,0.2-1,0.3-1.5,0.5l0,0
			c-0.4-0.3-0.8-0.2-1,0.1c-0.2,0.2-0.6,0.2-0.5,0.6c-0.1,0-0.3,0.1-0.4,0.1c-0.3,0.1-0.6,0.3-0.9,0.2c-0.4-0.1-0.6,0-0.8,0.2
			c-0.2,0.2-0.3,0.5-0.6,0.1c-0.1-0.1-0.2-0.1-0.3,0c-0.2,0.1,0.1,0.2,0.1,0.2c0.1,0.3,0.4,0.7,0,1c0.3,0,0.4,0,0.7,0.1
			c-0.2,0.1-0.3,0.2-0.4,0.2c0.1,0.2,0.4-0.1,0.4,0.1c0,0.2-0.2,0.4-0.2,0.4c-0.3-0.2-0.5,0.5-0.8,0.1c-0.2-0.4-0.5-0.3-0.8-0.3
			c-1.9,0.3-3.8,0.6-5.3,1.8c-0.6,0.5-1.2,0.7-2,0.6c-0.1,0-0.3,0-0.4,0.2c0.4,0,0.9-0.1,1.3-0.1c0.3,0,0.4-0.1,0.5,0.3
			c0.1,0.5,0.4,0.7,1,0.4c0.3-0.1,0.8-0.5,0.8,0.3c0,0.1,0.2,0.3,0.3,0.4c-0.7,0.3-1.5,0.3-2.3,0.6c0.5,0,1.3,0.6,1.4,1.1
			c0.1,0.7,0.8,1.2,1.1,1.7c0.5,1,1.1,0.2,1.7,0.4c0,0,0,0,0.1,0c-0.6,0.3-1,0.6-1.1,1.2c0,0,0,0.1,0,0.1c0,0,0,0,0,0
			c0,0,0-0.1,0-0.1c-0.2-0.1-0.5,0.2-0.7,0c-0.1-0.3-0.4-0.3-0.7-0.3c-0.1,0-0.2,0.1-0.2,0.2c0,0.2,0.3,0.1,0.4,0.2
			c0,0.2-0.4,0.2-0.4,0.4c-0.1,0-0.1,0.1-0.2,0.1c-0.1-0.1-0.2-0.3-0.4-0.3c-0.5-0.1-0.5-0.3-0.3-0.6c0.1-0.1,0.3-0.2,0.2-0.3
			c-0.1-0.1-0.3-0.1-0.4,0c-0.4,0.3-1,0.4-1.5,0.7c-0.1,0.1-0.4,0.1-0.3,0.4c0.1,0.3,0.4,0,0.6,0.1c-0.1,0.1-0.2,0.2-0.3,0.3
			c-0.1,0.1-0.3,0.2-0.1,0.3c0.1,0.1,0.3,0.2,0.4,0.1c0.2-0.2,0.6-0.3,0.3-0.7c0.4,0.1,1-0.6,1.1,0.4c-0.1,0-0.2,0.1-0.4,0.1
			c-0.6,0.1-0.5,0.7-0.9,1c0,0,0,0,0,0c0,0,0,0,0,0c0,0,0,0,0,0c-0.1,0-0.1,0-0.2,0.1c-0.2,0-0.4,0-0.7,0c0.3-0.5,0.3-0.5-0.3-0.6
			c-0.2-0.2-0.5-0.6-0.7-0.4c-0.3,0.3-0.9,0.3-1,0.8c-0.5,0.1-1,0.5-1.4,0.4c-1.1-0.3-1.6-0.2-2,0.7c0.4,0.1,0.6-0.4,0.9-0.2
			c0.6,0.6,1.1,0.1,1.6,0.2c-0.2,0.1-0.5,0.2-0.7,0.4c-0.4,0.6-1,0.8-1.7,1c-0.3,0.1-0.6,0.4-0.8-0.2c-0.1-0.1-0.3-0.1-0.5,0
			c-0.5,0.5-1.2,0.7-1.7,1.2c-0.2,0.2-0.8,0.1-0.6,0.5c0.2,0.4,0.6,0,1,0.1c0.1,0,0.2-0.1,0.3-0.1c0.7-0.2,1.4-0.4,2.2-0.6
			c0,0.1,0.1,0.1,0.1,0.2c-0.7,0.4-1.3,0.9-2,1.3c-0.1,0.1-0.5,0-0.4,0.3c0.1,0.2,0.3,0.1,0.5,0.1c0.1,0,0.3,0,0.4,0
			c1.4-0.4,2.8-1,4.4-0.8c0.1,0,0.4-0.1,0.4-0.1c0-0.5,0.4-0.3,0.5-0.2c0.3,0.2,0.5,0.1,0.7,0.1c0.8,0.1,1.5-0.4,2.3-0.1
			c0.2,0,0.3-0.1,0.5,0c0.4,0.4,0.8,0.2,1.2,0c0.1,0,0.3-0.1,0.4-0.1c0.9-0.1,1.7-0.2,2.6-0.3c0.4,0,1.1-0.1,1.2-0.7
			c0-0.1,0.1-0.2,0.2-0.2c0.7,0,1.4-0.4,2.1-0.4c0.1,0.1-0.1,0.3,0.3,0.3c0.6,0,1,0,1.2-0.6c0.9-0.2,1.8-0.3,2.7-0.3
			c0.6,0,1.2,0.3,1.7-0.1c0,0,0.1,0,0.2,0.1c0.4,0.2,0.7-0.1,1.1,0c0.1,0,0.3-0.1,0.2-0.3c-0.1-0.2-0.3-0.1-0.4,0
			c-0.3,0.4-0.8,0.1-1.2,0.2c-0.3,0.1-0.3-0.2-0.3-0.3c0-0.2,0.1-0.3,0.4-0.2c0.4,0.2,0.8-0.1,0.8-0.2c0-0.8,0.6-0.5,1-0.5
			c0.5,0,0.9,0,1.3-0.2c0.7-0.3,1.4-0.7,2.1-0.8c0.1,0.1,0.1,0.1,0.2,0.2c-0.2,0.2,0,0.3,0.2,0.3c0.2,0,0.5-0.2,0.4-0.4
			c-0.1-0.3-0.3,0-0.5,0c-0.1-0.4,0.3-0.3,0.4-0.4c0.9-0.1,1.8-0.3,2.8-0.6c0.4,0.3,0.4,0.5-0.1,0.6c-0.5,0.1-1.1,0.1-1.6,0.5
			c-0.1,0.2-0.4,0.3-0.1,0.5c0.2,0.1,0.3,0,0.4-0.1c0.1-0.1,0.4-0.1,0.5-0.1c0.8-0.2,1.7,0,2.4-0.5c0.3-0.2,0.4-0.3,0-0.5
			c0-0.2,0.3-0.3,0.2-0.5c-0.5-0.5,0.2-0.4,0.3-0.6c0.2,0,0.3,0.1,0.5,0c1.7-0.7,3.5-1.1,5.2-1.7c-0.4,0.2-0.8,0.5-1,0.9
			c-0.1,0.2-0.3,0.4-0.5,0.4c-1.1,0.4-1.1,0.4-0.8,1.5c0,0,0,0,0,0.1c-0.2,0.4-0.3,0.8-0.9,0.7c-0.2,0-0.4,0.2-0.4,0.3
			c0.1,0.6-0.4,0.8-0.8,1c-0.2,0.1-0.7,0.1-0.5,0.6c0,0.1,0,0.2-0.1,0.3c-0.8,0.6-1.7,1.1-2.5,1.8c-0.5,0.4-1.1,0.7-1.5,1.3
			c-0.6,0.3-0.8,1-1.1,1.6c0.7-0.3,1.2-0.7,1.7-1.1c0,0,0.1-0.1,0.1-0.1l0,0c0.4-0.1,0.6-0.5,0.9-0.7l0,0c0.2,0,0.3-0.2,0.4-0.3
			c0.5-0.6,1.2-1,1.9-1.2l0,0c0.6,0.1,1.2,0.2,1.7-0.2c0.1-0.1,0.3-0.2,0.4-0.1c0.2,0.2,0,0.3-0.1,0.5c-0.2,0.3-0.6,0.5-0.6,0.9
			c-0.2,0.1-0.4,0.1-0.6,0.1c-0.5,0-1.9,0.9-1.9,1.3c0.1,1-0.6,1.1-1.2,1.4c-0.4,0.2-0.9,0.2-1,0.7c-0.2,1-1,1.5-1.8,2
			c-0.7,0.2-1,0.7-1,1.4c0,0.6-0.2,1-0.8,1.3c-0.2,0.1-0.4,0.2-0.3,0.4c0.2,0.3,0.1,0.7,0.1,1.1c-0.7,0.7-0.8,1.7-1.4,2.4
			c-0.1,0.1,0,0.4-0.1,0.5c-0.1,0.6,0,1.4-0.6,1.8c-1.3,0.8-1.6,2.2-2.4,3.4c-0.3,0.4-0.4,0.9-0.8,1.2c-0.4,0.3-0.5,0.8-0.2,1.3
			c0.6,0.7,0.4,1.4,0.1,2.1c-0.1,0.3-0.2,0.6-0.3,0.9c-0.2,0.5-0.2,1.2-0.8,1.5c-0.4,0.1-0.4,0.5-0.7,0.7c-0.7,0.5-1.1,1.2-1.5,1.9
			c-0.1,0.2,0.4,0.9-0.5,0.7c0,0,0,0.1-0.1,0.2c-0.7,0.5-0.4,1.4-0.6,2.1c-0.1,0.5,0.2,0.5,0.5,0.4c0.2,0,0.3-0.1,0.4-0.2
			c0.7-0.3,1.3-0.2,1.7,0.3c0,0,0.2,0.1,0.2,0.1c0.3-0.3,0.6-0.1,1,0c0.6,0.1,0.9,0.5,1.2,0.8c0.6,0.7,1.2,1,2.1,1.1c0,0,0,0,0,0
			c0.2,0.3,0.2,0.3,0.7,0.2c0.2,0,0.5-0.2,0.6,0.1c0.2,0.5,0.7,0.9,0.6,1.4c-0.2,0.9,0.7,1,1.2,1.3c0.4,0.2,0.2-0.4,0.4-0.6
			c0,0,0.1-0.1,0.2-0.1c0.6-0.2,1-0.7,1.5-1c0.5-0.3,1.1-0.7,1.7-0.8c0.6-0.1,1.2-0.1,1.6-0.6c0.1-0.1,0.3-0.2,0.5,0
			c0.3,0.3,0.6,0.6,0.7,1c0.2,0.5,0.6,0.7,1.1,0.5c0.4,0.1,0.8-0.1,1.1,0.3c0.1,0.1,0.2,0.1,0.3,0c0.4-0.9,1-0.7,1.8-0.4l0,0
			c0.3,0.3,0.5,0.7,0.6,1.1c0.3,0.7,1.1,0.8,1.9,0.2c-0.6,0.2-0.9-0.2-1.2-0.2c0-0.6,0.4-0.4,0.8-0.5c0,0,0,0,0,0
			c0.2-0.1,0.8,0.7,0.7-0.2c0-0.1,0.2-0.1,0.3-0.2c0.2,0,0.2,0.1,0.2,0.2c0.5,0.9,0.8,1,1.8,0.7c0.4-0.1,0.7-0.2,1.2-0.1
			c0.4,0.2,1-0.1,1-0.5c0-0.6,0.3-0.7,0.7-0.8c0.1,0.2,0.5,0.1,0.6,0.4c0.1,0.7,0.5,0.3,0.9,0.2c0.1,0,0.2-0.3,0.3-0.2
			c0.6,0.5,0.8-0.1,1-0.3c0.2-0.2,0.5-0.4,0.5-0.7c0-0.1-0.1-0.1-0.2-0.1c-0.4-0.1-0.7,0.2-0.9,0.4c-0.1,0-0.1,0.2-0.1,0.2
			c-0.1,0.1-0.2,0.2-0.4,0.1c-0.4-0.2-0.9-0.2-1.2-0.6c-0.1-0.1-0.2-0.2,0-0.3c0.4,0.2,0.8-0.2,1.2-0.1c0.5,0.1,0.9-0.2,1.4-0.2
			c0.1,0.1,0.2,0.1,0.2,0c0-0.5,0.3-0.4,0.6-0.5c0.3,0,0.7-0.1,1,0c0.4,0,0.5,0.3,0.2,0.5c-0.4,0.3-0.5,0.6-0.4,1.1
			c0,0.1-0.3,0.1-0.1,0.3c0.1,0.1,0.3,0.1,0.4,0c0.5-0.5,1.2-0.4,1.8-0.7c0.4,0.1,0.5-0.1,0.6-0.4c0,0.6,0.2,0.8,0.6,0.4
			c0.2,0,0.3,0.1,0.4,0.2c0.1,0.1,0.3,0.2,0.4,0.3c0.1,0.1,0.3,0.2,0.4,0c0.3-0.6,0.9-0.5,1.4-0.6c0.4,0.5,0.6,0.6,0.9,0.1
			c-0.2-0.3,0-0.4,0.3-0.5c0.4-0.1,0.7-0.2,0.9-0.6c0.2-0.2,0-0.4-0.1-0.5c0-0.1-0.1-0.2-0.1-0.3c0.3-0.2,0-0.5,0-0.7c0,0,0,0,0,0
			c0.4-0.2,0.7-0.3,1.2-0.1c0,0,0.1,0,0.1,0c0.1,0.1,0.1,0.2,0.1,0.4c-0.3,0.6-0.3,0.6,0.5,0.6c0.2,0,0.4,0,0.5,0
			c-0.1,0.1-0.1,0.3-0.2,0.4c-0.1,0.3,0.1,0.4,0.2,0.6c0.4-0.4,0.7,0.2,1.1,0c0.2-0.1,0.2-0.4,0.4-0.5c-0.1,0.7,0.5,1,1,1.4
			c0.4,0.3,0.8,0.6,1.5,0.6c0.8,0.3,1.6,0.4,2.5,0.3c0.5,0,1.1-0.1,1.6,0c1.1,0.2,2.2,0,3.4,0c1.1-0.1,2.2-0.1,3.3,0.1
			c-1.2,0.5-2.1,1.3-3.3,1.6c0-0.1,0.4-0.2,0.2-0.3c-0.1-0.1-0.3,0.1-0.5,0.1c-0.3,0.1-0.2,0.2-0.1,0.3c-0.7,0.2-1.5,0.4-2.1,0.8
			c-0.3,0.2-0.6,0.2-0.9,0.2c-0.2,0-0.4,0-0.5-0.2c0-0.1,0-0.3-0.4-0.3c-0.7-0.1-1.2,0.2-1.8,0.3c-2,0.4-3.5,1.3-5,2.4
			c-0.2,0.2-0.4,0.2-0.7,0.3c-0.5,0.2-1.1,0-1.6,0.5c0.6-0.1,1.1-0.2,1.5-0.3c0.2,0,0.4-0.1,0.6,0c-0.2,0.2,0.2,0.3,0.1,0.4
			c-0.1,0.2-0.4,0.2-0.6,0.2c-0.3,0-0.5,0.1-0.7,0.4c0.5-0.1,1-0.1,1.5-0.3c0.6-0.2,0.6,0.1,0.7,0.4c0.1,0.3-0.3,0.3-0.5,0.4
			c-0.7,0.2-1.5,0.5-2.2,0.7c0.6,0,1.1-0.3,1.7-0.4c0.2-0.1,0.4-0.2,0.5,0c0.1,0.2,0.4,0.3,0.5,0.5c-0.7,0.2-1.4,0.4-2.1,0.6
			c-0.1,0-0.3,0-0.2,0.2c0,0.2,0.2,0.1,0.3,0c0.6-0.2,1.1-0.3,1.7-0.5c0.4-0.1,0.7-0.2,0.6,0.2c0,0.1,0.1,0.2,0.2,0.3
			c0.3,0.3,0.8,0.5,1,0.8c0.4,0.6,1.2,0.7,2,0.7c2.1,0.1,4.1,0.2,6.2-0.2c0.2,0.1,0.4-0.1,0.5,0c0,0-0.1,0-0.1,0
			c-0.1,0-0.3,0.1-0.4,0.1c-0.5,0.3-0.9,0.7-0.9,1.2c0,0.2-0.2,0.3,0,0.5c0.2,0.1,0.4,0,0.6-0.1c0.1,0,0.2,0,0.3-0.1
			c0.2,0.1,0.4-0.1,0.6-0.1c0.3,0,0.5,0,0.8-0.1c0.2,0.1,0.3,0.4,0.8,0.2c0.2,0,0.4,0,0.6,0c0.6,0.2,1.2-0.2,1.7-0.2
			c0,0,0.1,0,0.1,0c-0.1,0.3,0.2,0.4,0.5,0.6c-0.4,0.3-0.9,0.4-1.4,0.6c-0.3,0.1-0.5,0.2-0.5,0.5c-0.5,0.5-1.3,0.7-2,1.3
			c0.5-0.1,0.7-0.1,1-0.2c0.4,0.1,0.7,0.2,0.1,0.5c-0.1,0-0.2,0.1-0.2,0.2c0,0.1,0.2,0.1,0.3,0.1c0.1,0,0.3,0,0.4,0
			c0,0.1-0.2,0.2,0,0.2c0.5-0.1,1.1,0,1.7-0.3l0,0c0,0,0,0,0,0l0,0c0.1,0.4-0.2,0.8,0.3,1.1c0.1,0.1,0,0.3-0.3,0.4
			c-0.1,0-0.2,0.1-0.1,0.2c0.3,0.1,0.3,0.3,0.2,0.5c-0.1,0.2,0,0.2,0.2,0.2c0.5-0.1,0.5,0.3,0.8,0.4c-0.3,0.2-0.1,0.6-0.4,0.8
			c-0.4,0.1-0.2,0.3-0.2,0.4c0,0.1,0.2,0.1,0,0.2c-0.4,0.3,0,0.3,0.2,0.4c0.3,0.1,0.5,0,0.7-0.1c0.4-0.1,0.7-0.1,1.1-0.2
			c0.1,0.1,0.4-0.2,0.5,0c0.1,0.1-0.1,0.3-0.2,0.4c-0.1,0-0.1,0.1-0.2,0.1c-0.2,0.2-0.3,0.5,0.2,0.4c0.3,0,0.6,0,0.9,0
			c-0.1,0.3-0.3,0.6-0.6,0.7c-0.4,0.1-0.6,0.4-0.8,0.6c-0.2,0.1-0.4,0.2-0.5,0.3c-0.2,0.1-0.6,0.2-0.4,0.5c0.2,0.2,0.4,0.3,0.8,0.2
			l0,0c0.8,0.2,1.6,0.2,2.4,0.1l0,0c0.5,0.1,0.9,0.1,1.4,0c0.2,0,0.4-0.1,0.5,0c0.2,0.2,0.5,0.1,0.7,0.2c0.6,0.1,1.4-0.4,1.8,0.2
			c0,0,0.1,0,0.2,0c0.8-0.3,1.6-0.2,2.4-0.3c1-0.2,1.9-0.4,2.9-0.5c0.7-0.1,1.5-0.1,2.3-0.4c0.3-0.1,0.7-0.1,1-0.2
			c1.6-0.4,3.2-0.5,4.8-1c0.6,0,1.2-0.2,1.8-0.4c1.4-0.3,2.7-0.8,4.1-1.1c1.2-0.2,2.3-0.5,3.4-0.9c1.5-0.4,3.1-0.7,4.6-1.2
			c1.7-0.5,3.4-0.9,5.1-1.3c0.5-0.1,1-0.4,1.5-0.4c1.3-0.1,2.6-0.5,3.8-0.9l0,0c0.3,0.1,0.6,0,0.9-0.1c1.4-0.4,2.8-0.8,4.3-1.1
			c0.6-0.1,1.2-0.3,1.8-0.4c0.4-0.1,0.9-0.2,1.3-0.4c0,0,0,0,0,0c0.1,0,0.2,0,0.2,0c0.4,0.2,0.8,0.1,1.2-0.2
			c0.1-0.1,0.3-0.1,0.4-0.2c0.1,0,0.1-0.1,0.2-0.1c0.1,0,0.1,0,0.2-0.1c0.5-0.2,1.1-0.3,1.6-0.4c0.4,0,0.8-0.2,1.2-0.2
			c0.3,0,0.6,0.1,1,0c0.5-0.2,1-0.4,1.6-0.4c0.3,0,0.3-0.2,0.4-0.4c0.8-0.3,1.7-0.3,2.5-0.6c0.1,0,0.2,0,0.2,0
			c0.3,0.3,0.5-0.1,0.7-0.2c0.1,0.3-0.1,0.6,0.1,0.9c0.3,0.4,0.2,0.8,0.1,1.2c0,0.4,0.1,0.8,0.2,1.1c-0.1,0.1-0.2,0.1-0.3,0.2
			c0,0-0.1,0-0.1,0c-0.6,0-1.1,0.1-1.5,0.4l0,0c-0.5,0.2-0.9,0-1.4,0.1c-1.8,0.1-3.6,0.6-5.3,1.2c-0.3,0.1-0.6,0.2-0.9,0.2
			c-0.9,0-1.8,0.3-2.6,0.6c-0.2,0-0.4,0.1-0.6,0.1c-1.4,0.2-2.8,0.5-4.2,0.9c-0.3-0.2-0.6-0.3-1,0c0,0,0,0,0,0c0,0,0,0,0,0
			c-0.5,0.2-1.2,0.1-1.6,0.5c-0.1,0.1-0.2,0.1-0.3,0c-0.3-0.2-0.5-0.1-0.8,0.1c-0.1,0.1-0.2,0.2-0.4,0.2c-0.6-0.1-1.1,0.2-1.6,0.4
			c-0.3,0.1-0.5,0.1-0.8,0.2c-0.7,0.3-1.5,0.2-2.3,0.4l0,0c-0.7,0.1-1.4,0.3-2.1,0.4c0,0-0.1,0-0.1,0c-0.4,0-0.8,0.2-1.2,0.3
			c-0.1,0-0.3,0.1-0.2,0.3c0.1,0.1,0.2,0.1,0.3,0c0.2,0,0.3-0.1,0.5,0c0.2,0.2,1.1,0.3,1.4,0.2c0.5-0.2,0.9-0.5,1.4-0.3
			c0.2,0.1,1.2-0.2,1.4-0.4c0,0,0-0.1,0-0.1c-0.6-0.4,0.2-0.3,0.3-0.5c0.1,0,0.3,0,0.4,0l0,0c0.9-0.1,1.8,0,2.6-0.5
			c0.3-0.2,0.7-0.2,1.2-0.2c-0.2,0.2-0.5,0.2-0.7,0.4c0.3-0.1,0.6-0.2,0.9-0.3c0.2-0.1,0.4-0.1,0.6,0c0.4,0.2,1.1,0,1.3-0.4
			c0.1-0.3,0.5-0.3,0.7-0.3c0.3,0-0.2,0.2,0.1,0.3c0.5-0.5,1.3-0.4,2-0.6l0,0c0.3-0.1,0.6-0.2,1-0.3c-0.3,0.3-0.5,0.5-0.8,0.7
			c0.5,0,0.9,0.2,1.2-0.1c0.3-0.2,0.6-0.3,1-0.4c0.2,0.2,0.4,0.3,0.8,0.2c0.6-0.1,0.5-0.5,0.8-0.7c0,0,0,0,0,0s0,0,0,0
			c0.2-0.2,0.5-0.3,0.9-0.4c0.4-0.1,0.8-0.1,1.1-0.4l0,0c0.3-0.1,0.6-0.2,0.9-0.3c0,0,0,0,0,0c0.1,0.1,0.5-0.1,0.5,0.2
			c0,0.2-0.2,0.3-0.3,0.4c0.5-0.1,1-0.2,1.5-0.3c0.2-0.1,0.6-0.1,0.6-0.3c0-0.2-0.4,0-0.5-0.1c0,0,0-0.1,0-0.2
			c0.6,0.2,0.8-0.4,1.4-0.4c0.4,0.1,0.7-0.1,1.1-0.2c0.4-0.1,0.7-0.1,0.4,0.3c-0.1,0.1-0.1,0.2,0,0.2c0.1,0.1,0.2-0.1,0.3-0.1
			c0.5-0.2,0.6-0.6,1.1-0.7c0.7,0.2,1.4,0.2,1.9-0.4c0.1-0.1,0.3-0.2,0.4-0.1c0.1,0,0.1,0.1,0.1,0.2c-0.3,0.4,0.1,0.2,0.3,0.2
			c0.4,0,0.4,0.3,0.4,0.5c0,0.6,0.4,0.4,0.8,0.2c0.7-0.3,1.3-0.4,2-0.5c0.2,0,0.4-0.1,0.6-0.1c1-0.3,1.9-0.9,3-1
			c0.1,0,0.3-0.1,0.4-0.2c0.2-0.3,0.6-0.4,1-0.4c0.4-0.1,0.8-0.2,1.1-0.3c0.8-0.1,1.5-0.6,2.3-0.7c0.9-0.1,1.5-0.5,2.2-0.9
			c0.8-0.1,1.6-0.3,2.4-0.3c0.5-0.1,0.8-0.4,1.3-0.5c0.1,0,0.3,0,0.4,0.1c0.2,0.3,0.2,0.3,0.6,0.3c0.1,0,0.2,0,0.4,0
			c0,0.3,0,0.5-0.5,0.4c-0.4-0.1-1.3,0.5-1.5,0.9c0.8-0.4,1.7-0.4,2.4-0.8c0.6-0.3,1.4-0.4,2.1-0.6c0.2,0,0.6-0.1,0.5-0.2
			c-0.2-0.3,0.1-0.2,0.2-0.2c0.3,0,0.5-0.1,0.8-0.2c1.1-0.2,2.1-0.8,3.3-0.6c0.1,0,0.1-0.1,0.2-0.1c0.5-0.1,1-0.3,1.5-0.4
			c1.9-0.4,3.7-0.8,5.6-1.2c1.4-0.3,2.9-0.5,4.2-1c0.2-0.1,0.4-0.1,0.6-0.1c0.7,0.2,1.5,0,2.2-0.2c0.6-0.2,1.2-0.3,1.8-0.4
			c0.6-0.1,1.3-0.2,1.9-0.4c1.5-0.5,3-1,4.5-1.5c3.7-1.3,7.4-2.4,11-4c1.5-0.7,3-1.2,4.5-1.9c2.2-1,4.3-2.1,6.4-3.2
			c0.2-0.1,0.5-0.3,0.7-0.3c0.8-0.1,1.3-0.5,2-0.7c0.9-0.2,1.6-0.8,2.5-1c0.4-0.1,0.7-0.2,1-0.4c0.3-0.2,0.6-0.4,0.9-0.5
			c1.3-0.4,2.6-0.9,3.8-1.5c0.6-0.2,1.3-0.4,1.9-0.7c0.9-0.5,1.7-1,2.7-1.3c0.6-0.2,1.1-0.5,1.6-0.8c0.7-0.2,1.3-0.6,1.9-1
			c0.3-0.2,0.7-0.1,0.9-0.4c0.4-0.5,0.9-0.9,1.6-1.3c1.2-0.6,2.3-1.3,3.8-1.3c0.4,0,0.7-0.2,0.7-0.5c0-0.4,0.3-0.5,0.7-0.7
			c0.7-0.3,1.3-0.6,1.9-0.9c0.9-0.4,1.8-0.7,2.7-1.1c0.6-0.1,1-0.5,1.5-0.7c0.1,0,0.2-0.1,0.1-0.2c-0.2-0.2,0-0.4,0.2-0.6
			c0.3-0.1,0.6-0.2,0.9-0.4c0,0,0-0.1-0.1-0.1c-0.3,0.1-0.6,0.2-0.9,0.3c-0.4,0-0.4-0.1-0.3-0.1c0.2-0.3,0.3-0.6,0.7-0.8
			c0.3-0.1,0.6-0.2,0.8-0.5c0.4-0.1,0.8-0.3,1.1-0.6c0.3-0.1,0.6-0.2,0.9-0.3c1.1-0.3,2-0.7,3-1.2l0.1,0l0,0c1-0.3,2-0.5,3-0.8
			c1.4-0.4,2.7-1,4.1-1.3c1-0.2,2.1-0.6,3-1c0.4-0.2,0.7-0.4,1.1-0.5c2-0.5,4-1,6-1.7c2.3-0.8,4.6-1.8,6.6-3c0.5-0.1,1-0.2,1.4-0.1
			c0.4,0.1,0.7,0,0.9-0.2c0.2-0.1,0.4-0.3,0-0.4c-0.2,0-0.4-0.1-0.3-0.2c0.2-0.4-0.2-0.4-0.5-0.4c0.2-0.2,0.6-0.3,0.8-0.5
			c0.3-0.1,0.3-0.4,0.1-0.4c-0.5,0-0.9-0.3-1.4-0.2c-0.6,0.3-1.2,0.3-1.8,0.3c-0.2,0-0.3,0-0.4-0.1c-0.5-0.5-0.7-0.5-1.5-0.3
			c-0.7,0.2-1.2,0.6-1.9,0.7c-0.2,0-0.5,0.1-0.7,0.2c-0.6,0.2-1.2,0.4-2.1,0.6c0.6-0.4,0.9-0.8,1.4-0.8c0.5,0,0.7-0.1,1-0.3
			c0.7-0.3,1.4-0.6,2.1-1c0.2,0.1,0.4,0.2,0.5-0.1c0.1-0.3,0.4-0.4,0.7-0.6c0.3-0.1,0.9-0.1,0.7-0.6c0.1,0,0.1,0,0.2,0
			c0,0.1,0,0.3,0.3,0.2c-0.1,0.2-0.1,0.4,0.3,0.2c0.3-0.2,0.7-0.4,0.9,0.1c0.1-0.3-0.1-0.5,0-0.8c0,0,0,0,0-0.1l0,0c0,0,0-0.1,0-0.1
			c0-0.4,0.3-0.5,0.8-0.5c-0.2,0.1-0.5,0.2-0.4,0.4c0.1,0.2,0.4,0,0.6,0c0.2,0,0.3-0.1,0.4-0.2c0.5-0.1,1-0.2,1.3-0.6
			c0.1-0.2,0.5-0.1,0.7-0.3c0.5-0.1,1-0.3,1.5-0.4c0-0.1-0.1-0.2-0.1-0.4c0.1-0.1,0-0.1,0-0.2c0.1-0.1,0.1-0.1,0.2-0.1
			c0.2-0.1,0.4-0.2,0.4-0.4c-0.1-0.1-0.3-0.2-0.6-0.1c-0.4,0.1-0.8,0.3-1.2,0.4c-0.3,0.1-0.5,0-0.5,0c-0.1,0.4-0.4,0.1-0.6,0.1
			c-0.2,0.3,0.1,0.3,0.2,0.5c-0.2,0-0.4,0-0.6,0.1c-0.8,0.4-1.6,0.5-2.4,0.6c-0.2,0,0-0.4-0.4-0.3c-0.3,0,0.1,0.3-0.2,0.3
			c-0.1-0.2-0.4-0.3-0.7-0.3c0-0.1,0.3-0.2,0.2-0.3c-0.1-0.1-0.2,0-0.3,0c-0.3,0.1-0.6,0.3-0.9,0.4c-0.6,0.2-1.2,0.4-1.7,0.6
			c-0.4,0.1-0.9,0.2-1.2,0.5c-0.1,0-0.1,0-0.2,0.1c-0.5-0.3-1.1-0.2-1.6,0.2c-0.1,0.1-0.2,0.1-0.3,0.1l0,0c-0.3-0.2-0.4,0.1-0.6,0.2
			c-0.1,0.1-0.2,0.3-0.4,0.2c-0.5-0.1-0.9,0.3-1.3,0.4c-0.2,0-0.5,0.1-0.6,0.2c-0.2,0.4-0.4,0.4-0.8,0.3c-0.3-0.1-0.7,0-0.9,0.3
			c-0.2,0.3,0.3,0.2,0.3,0.3c-0.5,0.3-1.1,0.4-1.6,0.6c-0.3,0.1-0.6,0.2-0.8,0.3c-0.3,0.1-0.5,0.1-0.7,0c-0.8-0.1-2.1,0.5-2.5,1
			c-0.1,0.2-0.3,0.3-0.5,0.2c-0.3-0.1-0.6,0-0.9,0.1c-0.6,0.3-1.1,0.1-1.7,0c0.1-0.2,0.2-0.1,0.3-0.1c1.8-0.8,3.8-1.4,5.6-2.2
			c1.2-0.5,2.4-0.9,3.6-1.3c1-0.4,2-0.9,3.1-1.2c0.9-0.3,1.7-0.7,2.7-1.2c-0.2,0-0.3,0-0.4,0.1c-1.4,0.4-2.8,0.8-4.1,1.4
			c-1.4,0.6-2.9,1.1-4.3,1.5c-0.8,0.3-1.6,0.8-2.6,0.8c-0.1,0-0.4,0.1-0.6,0.2c-1.5,0.7-3.1,1.2-4.6,1.8c-0.7,0.3-1.5,0.4-2.2,0.6
			c-0.1,0-0.3,0.1-0.4,0c0-0.1,0-0.1,0-0.2c-0.1-0.2,0.2-0.4,0.3-0.6c0.6-0.4,1.3-0.5,2-0.8c0.3-0.1,0.6-0.2,0.9-0.3
			c0.3-0.1,0.4-0.3,0.2-0.5c0.6-0.3,1.3,0,1.9-0.3c-0.2-0.2-0.5,0-0.6-0.1c0.2-0.1,0.3-0.2,0.4-0.3c0.1,0,0.1,0,0.2,0
			c0,0.1,0.1,0.3,0.3,0.3c0.2,0,0.5,0,0.4-0.2c-0.2-0.3,0.1-0.3,0.2-0.5c0.1-0.1,0.2-0.2,0.3-0.3c0.5,0,0.9-0.1,1.3-0.2c0,0,0,0,0,0
			c0,0,0,0,0,0c0,0,0,0,0,0.1c0.4,0.2-0.3,0.3-0.2,0.5c0.4,0,0.7-0.2,0.7-0.6c0.7,0.2,0.7,0.2,1.1-0.3c0-0.1,0-0.1,0.1-0.1
			c0.3-0.1,0.7-0.1,0.8-0.5c0.4-0.1,0.7-0.1,1-0.4c0.2,0,0.3-0.1,0.5-0.2c0.1,0,0.3-0.1,0.3-0.2c-0.1-0.1-0.2-0.1-0.4-0.1
			c-0.5,0.2-1,0.2-1.4,0.6c-0.3-0.1-0.6,0-0.8,0.2l0,0c-0.3,0-0.6,0.1-0.9,0.2c0,0-0.1,0-0.1,0c-0.3-0.1-0.4,0.1-0.6,0.2
			c-0.1,0.1-0.2,0.3-0.4,0.3c-0.1-0.1,0-0.3-0.1-0.4c-0.2,0.1-0.4,0.2-0.6,0.2c0,0-0.1,0-0.1,0c-0.5,0-0.6,0.3-0.7,0.5
			c0,0,0,0,0.1,0c0,0,0,0,0,0c0,0,0,0-0.1,0c-0.2-0.1-0.4-0.3-0.5,0.1c0,0.1-0.1,0.2-0.3,0.2c-0.4,0-0.7,0.1-0.9,0.4
			c-0.1,0.1-0.5,0.1-0.6,0.2c-0.1,0-0.6,0-0.2,0.3c0.1,0.1-0.1,0.1-0.2,0.1c-0.4-0.1-0.8-0.1-1.1,0.1c-0.5-0.2-0.7-0.2-0.9,0.3
			c0,0.1-0.1,0.1-0.3,0.2c-0.4,0.1-0.6,0-0.8-0.4c-0.1,0.3-0.2,0.4-0.5,0.5c-0.3,0.1-0.2,0.2-0.1,0.4c-0.4,0.3-1,0.1-1.4,0.5
			c-0.1,0.1-0.4,0.1-0.4,0.3c0,0.1,0.3,0.1,0.4,0.1c0.1,0,0.2,0,0.2,0.1c-0.5,0.4-1.2,0.4-1.8,0.5c-0.1-0.1-0.6-0.1-0.1-0.3
			c0.1-0.1,0.1-0.1,0-0.2c-0.1,0-0.2-0.1-0.3,0c-0.2,0.1-0.4,0.3-0.5,0.4c-0.2,0.2,0.1,0.2,0.3,0.2c0.2,0.1-0.1,0.1,0,0.2
			c-0.1,0-0.1,0.1-0.2,0.1c-0.1-0.2-0.4-0.1-0.4-0.3c0-0.2,0-0.4-0.3-0.4c-0.4,0-0.2,0.3-0.4,0.4c0,0,0,0,0,0
			c-0.4,0.1-0.9,0.2-1.3,0.2c-0.5-0.1-0.4,0.2-0.5,0.4c-0.1,0-0.2,0.1-0.2,0.1c-0.1,0-0.2,0-0.3,0c-0.6-0.1-1,0-1.3,0.4
			c-0.1,0.1-0.3,0.4-0.6,0.3c-0.1,0-0.2,0-0.2,0.1c0,0.1,0.1,0.1,0.2,0.1c0.1,0,0.2,0,0.3,0c0.3,0.4,0.3,0.4-0.3,0.7
			c-0.1-0.1-0.1-0.4-0.5-0.2c-0.1-0.1-1.2-0.1-1.3-0.1c-0.1,0-0.2,0-0.3,0.1c-0.5,0.1-1.2,0.2-1.5,0.4c-0.8,0.5-1.8,0.6-2.5,1.1
			c0.1,0.4-0.2,0.6-1,0.8c0.6-0.2,0.6-0.2,0.7-0.4c-0.9,0-1.8,0.1-2.8,0.3c0.5-0.3,1.1-0.5,1.4-0.9c0.3-0.3,0.7-0.3,1-0.5
			c0.1,0.2,0.3,0.2,0.6,0.1c0.4,0,0.8-0.2,1.1-0.5c0.8,0.1,1.3-0.5,2.1-0.6c0.5-0.1,1-0.5,1.5-0.6c0.3-0.2,0.7-0.1,1.1-0.4
			c-0.3,0-0.5-0.1-0.7-0.1c0.4-0.3,0.9-0.4,1.3-0.5c0.3-0.1,0,0.1,0.1,0.1c-0.1,0-0.2,0.1-0.1,0.1c0.1,0.1,0.3,0.1,0.5,0.1
			c0.5-0.2,1-0.4,1.5-0.5c0.1,0,0.2,0,0.2-0.1c0-0.1-0.1-0.1-0.2-0.1c0,0,0,0,0,0c-0.1-0.1-0.2,0.1-0.3,0c0,0,0.1-0.1,0.1-0.1
			c0.1-0.1,0.4-0.1,0.3-0.3c-0.1-0.1-0.3,0-0.4,0.1c-0.6,0.2-1.2,0.4-1.8,0.6c0.1-0.1,0.2-0.1,0.3-0.3c0.1-0.1,0.2-0.2,0-0.1
			c-0.3,0-0.6,0.1-0.8,0.2c-0.5,0.2-1.1,0.3-1.5,0.6c-0.4,0.1-0.9,0.2-1.2,0.4c-0.1,0-0.2,0-0.2,0.1c-1,0.3-2.1,0.5-3,1.2
			c0.2,0.2,0.4-0.1,0.7-0.1c0.2,0,0.4-0.2,0.8-0.2c-1.9,1-3.7,1.7-5.8,2c1.3-0.7,2.7-0.9,3.9-1.6c-0.5,0.1-1.1,0.1-1.6,0.4
			c-0.5,0.3-1,0.4-1.6,0.6c-1.2,0.4-2.5,0.8-3.7,1.2c-1.3,0.4-2.5,1-3.8,1.3c-0.3,0.1-0.4,0.4-0.8,0.4c-0.3-0.3,0.3-0.3,0.3-0.5
			c0.3-0.1,0.6-0.4,1-0.4c0.1,0,0.4,0.1,0.3-0.1c0-0.1-0.1-0.3-0.4-0.2c-0.3,0.1-0.6,0.1-0.8,0.1c-0.5,0-1,0.1-1.4,0.3
			c0,0-0.1,0-0.1,0c-0.4,0-0.7,0.1-1,0.2c-0.2,0.1-0.5,0.2-0.1,0.3c0.3,0.1,0.3,0.2,0,0.3c-1,0.3-2,0.6-2.9,0.8
			c-0.6,0.1-1.2,0.3-1.9,0.4c1.3-0.9,3-1.3,4.6-1.8c-0.2-0.1-0.4-0.1-0.6-0.1c-0.8,0.1-1.5,0.3-2.3,0.5c-1,0.2-1.9,0.5-2.9,0.3
			c-0.1,0-0.2,0.1-0.2-0.1c0,0,0.1-0.1,0.2-0.1c0.2,0.1,0.2-0.1,0.3-0.1c1-0.4,2-0.9,2.9-1.4c0.8-0.4,1.6-0.7,2.3-1.1
			c0.4-0.2,0.9-0.3,1.2-0.6c0.9-0.4,1.8-0.7,2.4-1.4c1.4-0.4,2.4-1.1,3.2-2.1c1-0.3,1.8-1,2.8-1.2c0,0,0.1-0.1,0.1-0.1
			c-0.2-0.4,0.3-0.3,0.5-0.4c0.3-0.1,0.5-0.2,0.8-0.3c0.8-0.5,1.7-0.7,2.6-1c1.5-0.5,3-0.8,4.5-1.4c0.4-0.2,0.8-0.3,1.2-0.4
			c0.7-0.2,1.3-0.3,1.9-0.6c0.4-0.2,0.9-0.5,1.4-0.6c1.5-0.5,3.1-0.8,4.6-1.4c0.4-0.2,0.8-0.3,1.3-0.3c0.5,0,0.9-0.1,1.2-0.3
			c0.4-0.2,0.8-0.3,1.2-0.4c1.6-0.4,3.2-0.8,4.7-1.4c0.5-0.2,1-0.3,1.5-0.6c-0.2,0-0.4,0-0.5,0c-0.9,0.2-1.7,0.4-2.6,0.5
			c-0.7,0.1-1.3,0.1-2,0.3c-1.6,0.4-3.2,0.8-4.7,1.2c-0.2-0.1-0.6,0.1-0.6-0.1c-0.1-0.2,0.3-0.2,0.5-0.3c0.1-0.1,0.2-0.1,0.3-0.2
			c-0.2,0-0.4-0.1-0.6-0.1c-0.1,0-0.3,0-0.3-0.1c0-0.1,0.1-0.2,0.3-0.2c0.5-0.2,0.9-0.6,1.3-0.8c0.3-0.1,0.6-0.3,1-0.3
			c0.3,0.2,0.6,0,0.8-0.1c0.8-0.4,1.7-0.7,2.5-0.9c0.9-0.2,1.5-0.7,2.1-1.2c-0.4-0.3-0.9-0.3-1.4-0.2c-0.9,0.3-1.8,0.5-2.7,0.8
			c-0.4,0.1-0.8,0.4-1.2,0.4c-0.3,0-0.5,0.1-0.7,0.2c0,0-0.1,0-0.1,0c-0.4-0.6-0.9-0.9-1.8-0.6c-0.4,0-0.8-0.1-1.1,0.2
			c-0.3,0.1-0.5,0.1-0.8-0.1c-0.6-0.3-1.4-0.3-2.1,0c-0.9,0.3-1.7,0.4-2.6,0.6c-1,0.2-2,0.4-3,0.6c-1.8,0.5-3.6,0.6-5.4,1.2
			c-0.3,0.1-0.7,0.1-1,0.2c1.6-0.8,3.4-1.1,5.1-1.5c1.7-0.5,3.5-0.9,5.2-1.4c1.7-0.5,3.5-0.7,5.3-1.2c-0.8-0.3-1.5,0-2.2,0.1
			c-1.5,0.3-2.9,0.8-4.4,1c0,0-0.1,0-0.1,0c-0.5,0-1,0.4-1.5,0.2c0.4-0.3,0.8-0.3,1.1-0.4l0,0c0.5,0.1,0.8-0.1,1.2-0.4
			c-0.3-0.1-0.6,0-0.9,0c-0.3,0.1-0.6-0.3-0.9,0c-0.3,0.2-0.7,0.3-1,0.4c-0.3,0-0.7-0.1-0.9,0.2l0,0c0-0.2-0.6-0.1-0.3-0.4
			c0.1-0.1,0.2-0.4,0.5-0.4c0.1,0,0.2-0.1,0.2-0.1c0-0.1-0.1-0.1-0.1-0.2c-0.1,0-0.2,0-0.2,0.1c-0.1,0.3-0.4,0.2-0.5,0.2
			c-0.3,0-0.6,0-0.9,0.2c-0.1-0.3,0.2-0.4,0.4-0.7c-0.3,0.1-0.4,0.1-0.6,0.2c-0.1,0-0.1-0.1-0.2-0.1c-0.1-0.1,0.1-0.3-0.2-0.2
			c-0.2,0-0.2,0.1-0.1,0.3c0.1,0.1-0.1,0.1-0.2,0.1c-0.1-0.1-0.2-0.1-0.3,0c-0.2,0-0.5,0-0.7,0.1c0,0,0,0,0-0.1c0,0,0.1,0,0.1,0
			c0.4-0.1,0.5-0.5,0.8-0.6c0.2-0.1-0.1-0.3-0.3-0.2c0,0-0.1,0-0.1,0c0,0,0,0,0,0c0.2-0.3,0.8-0.1,1-0.4c0.2,0.1,0.3,0.3,0.6,0.2
			c0.1,0.5,0.1,0.5,0.8,0.2c0,0,0.1,0,0.1,0c0,0.2-0.3,0.2-0.2,0.3c0,0.1,1.4,0.1,1.4,0.1c0-0.2,0.4-0.2,0.5-0.4
			c-0.5,0.2-0.3-0.4-0.7-0.2c-0.1-0.2-0.4-0.2-0.6-0.2c-0.2,0,0-0.1-0.1-0.2c0.2,0,0.5-0.1,0.7,0c0.3,0.2,0.6,0.1,0.8-0.1
			c0.4-0.1,0.8,0,1.1,0c0.8-0.1,1.7-0.1,2.4-0.6c0.2-0.1,0.4-0.2,0.7,0c0.1,0.1,0.3,0.1,0.5-0.1c0.1-0.1,0.2-0.2,0.3-0.2
			c0.8-0.1,1.5-0.3,2.1-0.8c0.1-0.1,0.2-0.1,0.2-0.3c0-0.1-0.2-0.1-0.3-0.1c-0.2,0-0.3,0-0.5,0.1c-0.2,0-0.3,0-0.3-0.2
			c-0.1-0.2,0.3-0.4,0.3-0.6c0.1,0,0.2,0.1,0.3,0.1c0.3,0.2,0.6,0.2,0.9,0c0.2-0.2,0.4-0.2,0.7-0.3c0.3-0.1,0.7-0.1,0.7-0.5
			c0-0.1,0.2-0.1,0.2,0c0,0.1,0.1,0.2,0.1,0.3c-0.6,0.4-1.3,0.7-1.7,1.2c0.5,0.1,0.7-0.2,0.9-0.3c0.6-0.1,1.2,0,1.4-0.6
			c0,0,0.1,0,0.1,0c0.6-0.1,1.1-0.4,1.8-0.3c0.4-0.1,0.8-0.3,1.2-0.4l0,0c0.3,0.2,0.6,0.1,0.9-0.1c0.2-0.1,0.5-0.2,0.5-0.4
			c0.1,0,0.2-0.1,0.3-0.1c0.2-0.1,0.5-0.2,0.7-0.2c0.3,0.1,0.5-0.1,0.7-0.2c0.2-0.2,0.3-0.3,0.5-0.1c0.1,0.1,0.2,0,0.3,0
			c0.1-0.1-0.1-0.1-0.1-0.2c0-0.2-0.3-0.4,0.1-0.7c-0.2,0-0.4,0-0.5,0c0.2-0.1,0.3-0.1,0.4-0.2c-0.1-0.1-0.3,0.1-0.3-0.1
			c0-0.1,0.2-0.3,0.2-0.3c0.2,0.1,0.5-0.4,0.6-0.1c0.1,0.3,0.4,0.2,0.7,0.2c1.6-0.3,3.2-0.6,4.5-1.5c0.5-0.4,1.1-0.6,1.7-0.6
			c0.1,0,0.3,0,0.3-0.2c-0.4,0-0.7,0.1-1.1,0.1c-0.2,0-0.4,0.1-0.4-0.2c-0.1-0.3-0.3-0.5-0.8-0.2c-0.2,0.1-0.7,0.4-0.6-0.2
			c0-0.1-0.1-0.2-0.2-0.3c0.6-0.3,1.3-0.3,1.9-0.6c-0.4,0-1-0.3-1.1-0.6c0-0.5-0.6-0.7-0.8-1.1c-0.4-0.6-0.9-0.1-1.4-0.2
			c0,0,0,0-0.1,0c0.5-0.2,0.9-0.5,1-0.9c0,0,0,0,0-0.1c0,0,0,0,0,0c0,0,0,0,0,0.1c0.2,0.1,0.4-0.2,0.6,0c0.1,0.2,0.3,0.2,0.5,0.1
			c0.1,0,0.2-0.1,0.2-0.2c0-0.2-0.2,0-0.3-0.1c0-0.1,0.3-0.1,0.3-0.3c0.1,0,0.1,0,0.2-0.1c0.1,0.1,0.2,0.2,0.3,0.2
			c0.4,0,0.4,0.2,0.2,0.4c-0.1,0.1-0.3,0.1-0.2,0.2c0,0.1,0.2,0.1,0.3,0c0.4-0.2,0.9-0.3,1.2-0.6c0.1-0.1,0.4-0.1,0.3-0.3
			c-0.1-0.2-0.3,0-0.4,0c0.1-0.1,0.2-0.1,0.2-0.2c0.1-0.1,0.2-0.1,0.1-0.2c-0.1-0.1-0.2-0.1-0.3,0c-0.2,0.1-0.5,0.3-0.3,0.5
			c-0.3,0-0.9,0.5-0.9-0.2c0.1,0,0.2-0.1,0.3-0.1c0.5-0.1,0.5-0.5,0.8-0.7c0,0,0,0,0,0c0,0,0,0,0,0c0,0,0,0,0,0c0.1,0,0.1,0,0.2-0.1
			c0.2,0,0.4,0,0.6-0.1c-0.3,0.4-0.3,0.4,0.2,0.4c0.1,0.2,0.3,0.4,0.5,0.2c0.3-0.2,0.8-0.3,0.9-0.6c0.4-0.1,0.8-0.4,1.2-0.3
			c0.9,0.1,1.3,0,1.7-0.6c-0.3-0.1-0.6,0.3-0.7,0.2c-0.4-0.4-0.9,0-1.3,0c0.2-0.1,0.4-0.1,0.6-0.3c0.4-0.4,0.9-0.6,1.5-0.8
			c0.2-0.1,0.5-0.3,0.7,0.1c0,0.1,0.3,0,0.4-0.1c0.5-0.4,1.1-0.6,1.5-0.9c0.2-0.1,0.7-0.1,0.5-0.4c-0.1-0.2-0.5,0-0.8,0
			c-0.1,0-0.1,0.1-0.2,0.1c-0.6,0.2-1.2,0.3-1.8,0.5c0,0,0-0.1-0.1-0.1c0.6-0.3,1.1-0.7,1.7-1c0.1-0.1,0.4,0,0.3-0.2
			c0-0.2-0.3-0.1-0.4-0.1c-0.1,0-0.2,0-0.4,0.1c-1.2,0.4-2.4,0.9-3.7,0.9c-0.1,0-0.3,0.1-0.3,0.1c0,0.4-0.3,0.2-0.4,0.2
			c-0.2-0.1-0.4,0-0.6,0c-0.7,0-1.3,0.4-1.9,0.2c-0.1,0-0.3,0.1-0.4,0c-0.3-0.2-0.7-0.1-1,0.1c-0.1,0-0.2,0.1-0.3,0.1
			c-0.7,0.1-1.4,0.3-2.1,0.4c-0.3,0-0.9,0.1-1,0.6c0,0.1-0.1,0.1-0.2,0.1c-0.6,0-1.2,0.3-1.8,0.4c0-0.1,0.1-0.2-0.2-0.2
			c-0.5,0-0.8,0.1-1,0.5c-0.7,0.2-1.5,0.3-2.3,0.4c-0.5,0-1-0.2-1.4,0.2c0,0-0.1,0-0.1,0c-0.3-0.1-0.6,0.1-0.9,0.1
			c-0.1,0-0.3,0.1-0.2,0.2c0.1,0.1,0.2,0.1,0.3,0c0.3-0.3,0.7-0.1,1-0.2c0.2-0.1,0.3,0.1,0.3,0.2c0,0.2-0.1,0.2-0.3,0.2
			c-0.3-0.1-0.6,0.1-0.6,0.2c0,0.6-0.5,0.4-0.9,0.4c-0.4,0-0.7,0-1.1,0.2c-0.6,0.3-1.2,0.5-1.8,0.7c-0.1,0-0.1-0.1-0.2-0.1
			c0.2-0.2,0-0.2-0.2-0.2c-0.2,0-0.4,0.1-0.4,0.3c0,0.2,0.2,0,0.4,0c0.1,0.3-0.3,0.2-0.4,0.3c-0.8,0.1-1.6,0.4-2.3,0.6
			c-0.3-0.2-0.3-0.3,0.1-0.4c0.4-0.1,0.9-0.2,1.3-0.4c0.1-0.1,0.3-0.2,0.1-0.3c-0.1-0.1-0.2,0-0.3,0.1c-0.1,0.1-0.3,0.1-0.4,0.1
			c-0.7,0.2-1.4,0.1-2,0.5c-0.3,0.2-0.3,0.2,0,0.3c0,0.1-0.3,0.2-0.2,0.3c0.4,0.3-0.2,0.3-0.3,0.4c-0.1,0-0.3,0-0.4,0
			c-1.4,0.6-3,1-4.4,1.5c0.4-0.2,0.7-0.4,0.9-0.7c0.1-0.2,0.3-0.3,0.5-0.3c0.9-0.3,0.9-0.4,0.7-1.1c0,0,0,0,0,0
			c0.2-0.3,0.3-0.6,0.8-0.5c0.1,0,0.3-0.1,0.3-0.3c0-0.4,0.4-0.5,0.7-0.7c0.2-0.1,0.6-0.1,0.4-0.4c0-0.1,0-0.1,0.1-0.2
			c0.7-0.5,1.5-0.9,2.2-1.4c0.4-0.3,1-0.6,1.3-1c0.6-0.3,0.7-0.7,1-1.1c-0.6,0.2-1,0.6-1.5,0.9c0,0-0.1,0-0.1,0.1l0,0
			c-0.4,0.1-0.5,0.4-0.8,0.5l0,0c-0.2,0-0.3,0.1-0.4,0.2c-0.5,0.4-1,0.7-1.7,0.9l0,0c-0.5,0-1-0.1-1.4,0.3c-0.1,0.1-0.3,0.1-0.4,0.1
			c-0.2-0.1,0-0.2,0.1-0.3c0.2-0.2,0.5-0.4,0.6-0.7c0.2-0.1,0.3-0.1,0.5-0.1c0.4,0,1.7-0.7,1.6-1c-0.1-0.6,0.5-0.8,1.1-1
			c0.3-0.1,0.8-0.2,0.9-0.5c0.3-0.7,1-1.1,1.6-1.5c0.6-0.2,0.9-0.6,0.9-1c0-0.4,0.2-0.7,0.7-0.9c0.2-0.1,0.3-0.1,0.2-0.3
			c-0.1-0.2,0-0.5,0-0.7c0.6-0.5,0.8-1.2,1.3-1.7c0.1-0.1,0.1-0.2,0.1-0.4c0.2-0.4,0.1-1,0.6-1.3c1.1-0.6,1.5-1.6,2.2-2.4
			c0.3-0.3,0.4-0.6,0.8-0.9c0.4-0.3,0.5-0.6,0.3-0.9c-0.4-0.5-0.3-0.9,0-1.4c0.1-0.2,0.2-0.4,0.3-0.6c0.2-0.4,0.2-0.8,0.7-1.1
			c0.4-0.1,0.4-0.4,0.6-0.6c0.6-0.4,1-0.9,1.4-1.4c0.1-0.2-0.3-0.6,0.4-0.5c0,0,0-0.1,0.1-0.1c0.6-0.4,0.4-1,0.6-1.4
			c0.1-0.4-0.1-0.4-0.4-0.3c-0.1,0-0.2,0.1-0.4,0.2c-0.6,0.3-1.1,0.2-1.4-0.1c0,0-0.1,0-0.2,0c-0.3,0.2-0.5,0.1-0.8,0.1
			c-0.5,0-0.7-0.3-0.9-0.5c-0.4-0.4-1-0.6-1.6-0.6c0,0,0,0,0,0c-0.1-0.2-0.2-0.2-0.5-0.1c-0.2,0-0.4,0.1-0.5,0
			c-0.1-0.3-0.5-0.5-0.4-0.9c0.2-0.7-0.5-0.6-0.9-0.8c-0.3-0.1-0.2,0.3-0.4,0.4c0,0-0.1,0.1-0.2,0.1c-0.5,0.2-0.9,0.5-1.3,0.8
			c-0.4,0.3-0.9,0.5-1.5,0.6c-0.5,0.1-1,0.2-1.3,0.5c-0.1,0.1-0.3,0.2-0.4,0.1c-0.2-0.2-0.4-0.4-0.6-0.6c-0.2-0.3-0.4-0.4-0.9-0.3
			c-0.3-0.1-0.7,0.1-0.9-0.1c-0.1-0.1-0.2,0-0.2,0c-0.4,0.6-0.9,0.6-1.5,0.4c0,0,0,0,0,0c0,0,0,0,0,0c0.3-0.5,0.8-0.7,1.1-1.2
			c0.5,0.1,0.7,0,0.9-0.4c0.2-0.5,0.8-0.6,1.3-0.8c0.3-0.1,0.6-0.1,0.6-0.5c0-0.3,0.1-0.4,0.3-0.1c0.1,0.1,0.2,0.1,0.2,0
			c0.3-0.6,0.8-0.8,1.3-1.1c0.3-0.2,0.7-0.4,0.7-0.8c0.2-0.1,0.2-0.5,0.5-0.4c1.3,0.1,1.5-1.2,2.3-1.6c0.3-0.2,0.6-0.6,1-0.9
			c0.2-0.1,0.4-0.2,0.5-0.5c0.4-0.5,1.1-0.7,1.4-1.3c0.2-0.1,0.6-0.3,0.4-0.6c-0.2-0.4-0.4,0-0.7,0c-0.6,0-0.9,0.5-1.3,0.8
			c-1.4,0.8-2.4,1.8-3.7,2.7c-0.7,0.5-1.4,1.1-2.2,1.3c-0.4,0.1-0.6,0.2-0.6,0.6c-0.3,0.3-0.6,0.6-0.9,0.8c-0.8,0.6-1.8,0.9-2.4,1.7
			c-0.8,0.1-1.2,0.8-1.9,1.2c-0.4,0.1-0.7,0.2-1.1,0.4c-0.2,0.1-0.4,0.5-0.6,0.2c-0.2-0.3,0.2-0.4,0.4-0.6c0.1-0.1,0.3-0.1,0.4-0.2
			c0.2-0.2,0.6-0.3,0.5-0.7c0.4-0.4,0.9-0.7,1.4-1c0.5-0.3,1.2-0.7,1.2-1.3c0-1.1,0.9-1.8,1-2.9c0.1-0.6,0.7-1,0.8-1.6
			c0.7-1.4,1.4-2.9,1.9-4.4c0.2-0.2,0.2-0.5,0.2-0.7c-0.3-1.1,0.3-2.2,0-3.4c-0.1-0.2-0.1-0.5,0.1-0.7c0.1-0.1,0.1-0.2,0.1-0.3
			c0.1-1-0.7-1.6-1.4-2.2c-0.5-0.5-1.1-1-1.9-1.1c-1-0.5-2-0.8-3.1-0.7c-0.6,0-1.3,0-1.9-0.2c-1.4-0.4-2.7-0.3-4.1-0.4
			c-1.3,0-2.6,0-4-0.5c1.3-0.7,2.3-1.7,3.8-2c0,0.2-0.5,0.2-0.2,0.4c0.2,0.1,0.4-0.1,0.6-0.1c0.3-0.1,0.2-0.3,0.1-0.4
			c0.9-0.2,1.8-0.5,2.5-0.9c0.3-0.2,0.7-0.2,1-0.2c0.3,0,0.5,0,0.6,0.4c0,0.1,0,0.4,0.5,0.5c0.8,0.2,1.4-0.2,2.1-0.3
			c2.3-0.3,4.1-1.6,5.8-3c0.2-0.2,0.5-0.2,0.8-0.3c0.6-0.2,1.4,0.1,1.9-0.6c-0.7,0.1-1.3,0.2-1.8,0.3c-0.2,0-0.5,0.1-0.7,0
			c0.2-0.3-0.3-0.4-0.2-0.6c0.1-0.2,0.4-0.3,0.7-0.2c0.4,0.1,0.6-0.1,0.8-0.5c-0.7,0.1-1.2,0.1-1.8,0.2c-0.7,0.2-0.8-0.3-0.9-0.7
			c-0.2-0.4,0.3-0.4,0.5-0.5c0.9-0.3,1.7-0.6,2.6-0.9c-0.7-0.1-1.4,0.2-2,0.4c-0.2,0.1-0.5,0.2-0.6-0.1c-0.1-0.3-0.5-0.5-0.6-0.8
			c0.8-0.2,1.6-0.4,2.5-0.6c0.1,0,0.3,0,0.3-0.2c-0.1-0.3-0.2-0.1-0.4-0.1c-0.7,0.2-1.3,0.4-2,0.6c-0.4,0.1-0.8,0.3-0.8-0.4
			c0-0.2-0.2-0.3-0.3-0.5c-0.4-0.5-1-0.9-1.3-1.4c-0.6-1-1.5-1.2-2.5-1.3c-2.5-0.3-5-0.8-7.6-0.4c-0.2-0.2-0.4,0-0.6-0.1
			c0,0,0.1,0,0.1-0.1c0.1-0.1,0.3-0.1,0.4-0.2c0.6-0.4,1-1,1-1.7c0-0.2,0.3-0.5,0-0.7c-0.2-0.2-0.5,0-0.7,0.1c-0.1,0-0.3,0-0.4,0.1
			c-0.3-0.1-0.5,0-0.7,0.1c-0.3-0.1-0.6-0.1-0.9,0c-0.3-0.2-0.5-0.7-0.9-0.4c-0.3,0-0.5,0-0.8-0.1c-0.8-0.4-1.4,0.1-2.1,0.1
			c0,0-0.1,0-0.1,0c0-0.4-0.2-0.7-0.6-0.9c0.5-0.4,1.1-0.5,1.6-0.7c0.3-0.1,0.6-0.3,0.6-0.6c0.6-0.6,1.5-0.9,2.3-1.6
			c-0.6,0-0.9,0.1-1.2,0.2c-0.5-0.2-0.8-0.3-0.2-0.7c0.1-0.1,0.3-0.1,0.2-0.3c0-0.2-0.3-0.2-0.4-0.2c-0.2,0-0.3,0-0.5,0
			c0-0.1,0.2-0.3,0-0.2c-0.7,0.1-1.4-0.1-2,0.2c0,0,0,0,0,0s0,0,0,0l0,0l0,0c-0.2-0.5,0.1-1.2-0.5-1.7c-0.1-0.1,0-0.5,0.3-0.6
			c0.1-0.1,0.3-0.2,0-0.3c-0.4-0.2-0.4-0.4-0.3-0.7c0.1-0.3-0.1-0.3-0.3-0.3c-0.6,0.1-0.6-0.4-1-0.7c0.3-0.3,0-0.9,0.4-1.1
			c0.4-0.2,0.2-0.4,0.2-0.6c0-0.1-0.2-0.2-0.1-0.4c0.5-0.4,0-0.5-0.3-0.6c-0.3-0.1-0.6-0.1-0.9,0.1c-0.4,0-0.9,0.1-1.3,0.1
			c-0.2-0.2-0.5,0.2-0.6-0.1c-0.1-0.2,0-0.4,0.3-0.6c0.1,0,0.2-0.1,0.2-0.2c0.2-0.3,0.3-0.6-0.4-0.7c-0.3,0-0.7-0.1-1.1-0.1
			c0-0.5,0.3-0.8,0.7-0.9c0.5-0.1,0.7-0.4,0.9-0.8c0.2-0.1,0.4-0.2,0.6-0.3c0.2-0.2,0.7-0.3,0.4-0.7c-0.2-0.4-0.6-0.5-1-0.4l0,0
			c-0.9-0.4-1.9-0.5-2.9-0.5l0,0c-0.6-0.1-1.2-0.2-1.7-0.1c-0.2,0-0.4,0.1-0.6-0.1c-0.2-0.3-0.6-0.2-0.9-0.3c-0.2-0.1-0.4-0.1-0.6,0
			c0.1-0.1,0.1-0.1,0.2-0.1c0.2,0,0.2-0.2,0.2-0.4c0-0.2-0.2-0.1-0.4-0.2c-0.2,0-0.4,0.2-0.6,0c0.6-0.1,1.1-0.2,1.5-0.5
			c0.1,0,0.1,0,0.2-0.1c0.2,0.1,0.4,0.2,0.6,0.4c0.9,0.1,1.9,0.4,2.7-0.1c0.1-0.1,0.2-0.1,0.3,0c0.3,0.3,0.7,0.2,1.1,0.1
			c0.1,0,0.4,0,0.5,0.1c0.5,0.6,0.9,0.3,1.3,0c0.3-0.2,0.7-0.3,1.1-0.5c0.2,0,0.4,0.1,0.6,0.1c0.2,0.3,1-0.1,0.9,0.7
			c0,0.1,0.1,0.1,0.2,0.1c1-0.1,2.1,0,2.8-0.9c0.1-0.2,0.4-0.3,0.6-0.5c-0.1,0-0.3,0-0.4-0.1c-1.1-0.4-2.3-0.7-3.3,0c0,0,0,0,0,0
			c-1.2-0.3-2.3-0.3-3.2,0.6c0-0.1-0.1-0.2-0.1-0.2c0.2-0.2,0.3-0.4,0.1-0.7c-0.3-0.3-0.4-0.1-0.7,0c-0.2,0.1-0.3,0-0.3-0.2
			c-0.1-0.2-0.2-0.3-0.4-0.4c0.1-0.1,0.3-0.1,0.4-0.2c0.2-0.1,0.2-0.2,0.2-0.4c0-0.2-0.2-0.1-0.3-0.1c-0.2,0-0.2,0,0.1-0.2
			c0.2-0.1,0.1-0.4,0.4-0.4l0,0c0.2,0.3,0.5,0.5,1,0.3c0.3-0.3,0.7-0.3,1.1-0.4c0,0,0,0.1,0,0.1c-0.3,0.2-0.5,0.5-0.5,0.8
			c0.3-0.2,0.6-0.3,0.9-0.4c0.3,0.1,0.6,0.1,0.8-0.1c0.2-0.3,0.6-0.4,0.9-0.5c0.3-0.1,0.3-0.2,0.1-0.4c0.1-0.1,0.4-0.2,0.4-0.4
			c0.8-0.1,1.1-0.7,1.6-1.1c0.1-0.1,0.2-0.2,0.4-0.3c0-0.3,0.1-0.7,0.5-0.7c0.6,0,0.4-0.2,0.4-0.5c0-0.1,0-0.2,0-0.3
			c0-0.1,0.3-0.2,0.1-0.2c-0.1,0-0.4-0.2-0.5-0.1c-0.3,0.4-0.9,0.3-1.3,0.5c-0.9,0.4-2,0.4-2.9,0.7c-0.2,0.1-0.6,0-0.5-0.1
			c0.1-0.4-0.4-0.3-0.4-0.2c-0.1,0.4-0.5-0.2-0.6,0.1c-0.1,0.3-0.3,0-0.4,0.1c-0.1-0.2-0.1-0.3-0.2-0.5c0.4-0.4,1-0.1,1.4-0.4
			c2.6-0.7,5.1-1.8,7.5-3c0.6-0.3,1.3-0.5,1.8-0.9c0.5-0.1,1.1-0.3,1.6-0.4c0.4,0,0.8,0,1.1-0.3c0.2-0.1,0.3-0.2,0.2-0.3
			c-0.3-0.2-0.5-0.4-0.5-0.7c0.2-0.1,0.5-0.2,0.6-0.5c-0.9,0.1-1.7-0.1-2.6,0.3c-0.6,0.2-1.3,0.4-1.7-0.1c-0.1-0.1-0.3-0.1-0.5,0
			c-0.5,0.1-1,0.2-1.4,0.5c-1,0.5-2.2,0.8-3.2,1.2c-0.3,0.1-0.6,0.2-1,0.2c0.2-0.3,0.6-0.5,0.8-0.8c-0.4,0-0.8,0.1-1.1,0.2
			c-0.7,0.2-1.4,0.6-2.2,0.7c-0.5,0-0.9,0.2-1.3,0.2c-0.2-0.1-0.4,0-0.6,0.1c-0.2,0.1-0.3,0-0.3-0.1l0,0c0.2-0.1,0.5-0.2,0.7-0.2
			c0.4,0,0.4-0.2,0.4-0.4c0.3-0.1,0.3-0.4,0.6-0.5c0.4,0,0.5-0.2,0.7-0.5c0.1,0,0.1,0,0.2,0c0.5-0.2,1-0.6,1.6-0.7
			c0.2-0.1,0-0.2-0.1-0.3l0,0c1.1-0.3,2.3-0.5,2.9-1.5c0,0,0,0,0,0c0.6-0.3,1.2-0.5,1.5-1c0.1-0.2,0.3-0.2,0.5-0.2c0,0,0,0,0.1,0
			c0.2,0,0.3-0.1,0.5-0.2c0.7-0.3,1.8-1,2-1.3c0,0,0-0.1,0-0.1c0.1-0.2,0.4-0.2,0.6-0.3c0.8-0.4,1.6-0.8,2.2-1.4
			c0.1-0.1,0.2-0.1,0.1-0.3c-0.9,0.2-1.8,0.6-2.5,1.1c-1.9,1.3-4.2,2.2-6.2,3.4c-0.8,0.5-1.8,0.9-2.7,1.4c-1.2,0.5-2.2,1.2-3.5,1.6
			c-0.8,0.2-1.4,0.8-2.1,1.1c-0.7,0.4-1.5,0.6-2.2,1c-1,0.5-2.1,1.1-3.3,1c-0.9-0.1-1.7,0.1-2.5,0.4c-0.3-0.1-0.5,0-0.8,0.1
			c-1.2,0.2-2.1,0.9-3.2,1.2c-1,0.3-1.9,0.7-2.7,1.1c-0.1,0-0.1,0.1-0.2,0.1c-0.2,0-0.5,0-0.7,0.1c-0.7,0.3-1.5,0.7-2.2,1.1
			c-1.3,0.5-2.7,0.7-4,1.2c0.2-0.2,0.5-0.2,0.8-0.4c-0.8,0.3-1.6,0.5-2.4,0.6c-0.6,0-1.2,0.2-1.7,0.3c0,0,0,0,0-0.1
			c0-0.1-0.4-0.1-0.2-0.2c0.2-0.2,0.4-0.5,0.8-0.4c0.3-0.1,0.6-0.2,0.6-0.4c0-0.1-0.1-0.1-0.2-0.2c-0.3,0-0.5,0.1-0.5,0.3
			c-0.1,0-0.1,0.1-0.3,0.1c-0.1,0-0.1-0.1-0.1-0.2c0-0.1-0.1-0.3,0.1-0.3c0.7-0.1,1.2-0.4,1.8-0.6c0.2-0.1,0.5-0.2,0.7-0.2
			c0.1-0.4-0.4-0.5-0.6-0.8c0.2-0.1,0.3-0.2,0.4-0.3c0.1-0.2,0.4-0.3,0.6-0.2c0.3,0.2,0.9,0.2,0.3,0.7c-0.1,0.1,0,0.2,0.1,0.3
			c0.5-0.1,0.2,0.3,0.5,0.4c0,0,0,0,0,0c0,0,0,0,0,0c0,0,0,0.1,0,0.1l0,0c-0.2,0-0.3,0-0.5,0c0.1,0.2,0.2,0.4,0.5,0.3
			c0.2-0.1,0.5,0,0.6-0.2c0.5,0,1-0.1,1.3-0.5c0.1-0.1,0.2-0.2,0.4-0.1c0.5,0.2,1-0.1,1.5-0.3c0.2-0.1,0.3-0.2,0.2-0.3
			c-0.1-0.2-0.3,0-0.4,0c-0.5,0.1-1,0.2-1.2-0.3c-0.1-0.2-0.3-0.3-0.6-0.1c-0.2,0.2-0.5,0.1-0.8,0.2c-0.5,0.1-0.6-0.1-0.4-0.4
			c0.1-0.1,0.3-0.3,0.2-0.4c-0.2-0.3-0.1-0.5,0.2-0.6c0.6-0.2,1-0.9,1.8-0.7c0,0.2-0.5,0.2-0.3,0.4c0.2,0.2,0.4,0,0.6-0.1
			c0.2,0.1,0,0.2,0.1,0.3c0.1,0.1,0.4,0.1,0.4-0.1c0-0.2,0.2-0.4-0.1-0.5c-0.2,0-0.4-0.1-0.6-0.1c0.1-0.3,0.1-0.3-0.6-0.4
			c0.1-0.2,0.3-0.3,0.1-0.5c0.3-0.3,0.3,0.2,0.5,0c0.3,0.4,0.7,0.3,1.2,0.1c0,0.2,0.1,0.3,0.4,0.2c0.4-0.1,0.6,0.1,0.8,0.2
			c0,0.1-0.3,0.3,0.1,0.3c0.4,0,0.6,0.2,0.9,0.3c0.1,0,0.2,0.1,0.3,0.1c0.2-0.4,0.7-0.4,1-0.7c0.2-0.3,0.4-0.4,0.7-0.3
			c0.2,0,0.3,0.1,0.5,0c0.4-0.1,0.9-0.3,1,0.2c0,0.1,0.1,0.1,0.2,0.1c0.1,0,0.2-0.1,0.1-0.2c-0.1-0.2,0.2-0.2,0.3-0.4
			c0.5-0.5,1.1-0.5,1.8-0.6c0.1,0,0.1-0.1,0.2-0.1c0.3-0.3,0.7,0,1-0.2c0.2,0,0.3-0.2,0.6-0.3c0,0.3-0.4,0.5-0.1,0.8l0,0l-0.1,0
			c-0.1,0.1-0.4,0-0.4,0.2c0.1,0.3,0.7,0.5,1.1,0.4c0.3-0.1,0.4-0.2,0.3-0.4c-0.2-0.3-0.8-0.6-0.2-1.1c0.1-0.1-0.2-0.1-0.1-0.2
			c0.7,0.3,0.9,0.2,1.6-0.3c0.4-0.2,0.7-0.3,1.1,0c-0.3,0.1-0.6,0.2-0.9,0.3c0.3,0,0.6,0,0.6,0.2c0,0.6,0.7,0.4,1.2,0.5
			c-0.2-0.2-0.1-0.4-0.2-0.6c0-0.1-0.1-0.2-0.1-0.2c-0.2-0.3,0-0.4,0.3-0.5c0.1,0.1-0.2,0.2,0,0.4c1.2-0.5,1.2-0.5,1.1-0.7
			c-0.3,0-0.3,0.3-0.7,0.3c0.1-0.2,0.2-0.4,0.3-0.7c0.3,0.2,0.8,0.3,0.8,0.1c0.2-0.3,1.1-0.4,0.8-0.9c0,0,0,0,0,0
			c0-0.3-0.5-0.2-0.6-0.4c0,0-0.2,0-0.2-0.1c0.3-0.1,0.3-0.5,0.8-0.6c0.5-0.1,1.1-0.1,1.4-0.5c0.1-0.1,0.3-0.1,0.4-0.2
			c0.1-0.1,0.2-0.2,0.1-0.2c-0.1-0.1-0.2,0-0.3,0.1c-0.1-0.4-0.1-0.4-0.4-0.4c-0.4-0.2-0.7,0.3-1.1,0.1c0,0,0,0,0,0c0,0,0,0,0,0
			c-0.3-0.3-0.7-0.1-1.1-0.2c-0.5,0-0.5-0.1-0.1-0.4l0,0c0.1,0.2,0.4,0.2,0.7,0.2c0.2,0,0.4-0.2,0.4-0.3c0-0.1,0-0.3-0.1-0.3
			c-0.1,0-0.4-0.1-0.5,0.1c0,0-0.1,0-0.1,0c0-0.1,0-0.3,0.2-0.3c0.1,0,0.3,0,0.2-0.1c-0.4-0.3,0-0.4,0.2-0.6
			c0.3-0.2,0.6-0.5,0.5-0.9c0.1,0,0.2-0.1,0.2-0.1c0.2,0.1,0.5-0.2,0.7,0c0,0.2,0.2,0.3,0.5,0.1c0.2-0.1,0.4-0.2,0.5-0.4
			c0-0.1,0-0.3-0.2-0.3c-0.1-0.1-0.1-0.2,0.1-0.2c0.2-0.1,0.4-0.1,0.6-0.2c0.1,0,0.2,0,0.3,0c0.5-0.1,1,0.2,1.4-0.2
			c0.3-0.3,0.7-0.6,1-0.8c0.3-0.2-0.1-0.4,0.4-0.5c0,0,0,0,0,0c0.3,0.1-0.2,0.4,0,0.5c-0.3,0.4,0.2,0.2,0.4,0.3
			c0.2-0.1,0.5-0.2,0.7-0.2c0.4-0.1,0.7-0.3,1-0.5c0.5-0.3,0-0.5-0.1-0.7c0,0-0.1-0.1,0.1-0.2c0.2,0.1,0.3,0.3,0.7,0.2
			c0.2,0,0.4,0.1,0.5-0.1c0.3-0.1,0.6-0.1,0.9-0.2l0,0c0.1,0.2,0.1,0.5,0.5,0.3c0.1,0,0.2,0,0.3,0c0.7,0.1,0.8-0.2,0.9-0.6
			c0.1-0.1,0.3-0.2,0.4-0.3c0,0,0,0,0,0c1-0.4,1.7-1,1.7-1.5c0.4,0,0.7,0.1,1.1,0.2c0.1-0.2,0-0.3-0.1-0.4c-0.2-0.1-0.1-0.2,0.2-0.3
			c0.4-0.1,1-0.3,0.7-0.7c-0.1-0.2,0.3-0.2,0.3-0.4c-0.3-0.1-0.6-0.2-0.9,0.1c-0.1,0.1-0.3,0.2-0.4,0.1c-0.1-0.1-0.2-0.1-0.2,0
			c-0.1,0.3-0.4,0.4-0.7,0.4c-0.9,0.1-1.7,0.2-2.6,0.4c-0.1,0-0.3,0.1-0.4-0.1c-0.2-0.4-0.2-0.4-0.6,0c0,0-0.1,0-0.1,0.1
			c0,0-0.1,0-0.1,0c-0.3,0-0.5-0.2-0.8,0c-0.1,0.1-0.3,0.1-0.4,0.1c-0.1,0-0.2,0-0.3,0c-0.2,0-0.4-0.1-0.6-0.1
			c-0.6-0.2-1.2,0-1.8,0.1c-0.4,0.1-0.7,0.1-1.1,0.1c-0.5,0-0.9,0.1-1.3,0.4c-0.2,0.1-0.3,0.2-0.5,0.3c-0.5,0.1-1,0.2-1.5,0.3
			c0.2-0.4-0.3-0.3-0.6-0.3c-0.1-0.2,0.2-0.2,0.3-0.4c0.1-0.1,0.2-0.2,0.3-0.3c0.4-0.1,0.5-0.4,0.7-0.6c0.7-0.2,1-0.6,0.9-1.1
			c0.4-0.3,0.2-0.7,0.6-1c0.1,0-0.1-0.2-0.2-0.1c-0.5,0.1-1-0.2-1.5,0c-0.1,0-0.3,0-0.3-0.1c0.1-0.4-0.2-0.5-0.6-0.5
			c-0.1,0-0.2-0.1-0.3-0.1c0.2-0.2,0.5-0.4,0.7-0.6l0,0l0,0c0.3-0.2,0.7-0.3,0.7-0.6c0-0.3,0.3-0.3,0.5-0.3c0.1,0,0.3,0,0.4-0.1
			c1-0.4,2.1-0.7,2.9-1.3c0.1,0.1-0.2,0.3-0.1,0.5c0.1-0.2,0.4,0,0.4-0.3c0-0.1,0.1-0.2,0.3-0.2c0.6-0.2,1.1-0.4,1.5-0.8
			c0.2-0.2,0.6-0.5,0.8-0.4c0.5,0.2,0.7-0.1,1-0.3c0.1-0.1,0.2-0.2,0.4-0.1c0.1,0.1,0.2,0,0.2-0.1c0-0.1,0-0.2-0.2-0.1
			c-0.3,0-0.4-0.1-0.5-0.3c0.2-0.1,0.3-0.3,0.5-0.5c0.4-0.2,0.8-0.3,1-0.6c0,0,0.1-0.1,0.1-0.1c0.3-0.1,0.3-0.5,0.7-0.4l0,0
			c0.4-0.2,0.5-0.7,1.1-0.4c0,0,0,0,0.1,0c0.2-0.3,0.4-0.2,0.7-0.1c0.7,0.1,1.2-0.3,1.1-0.8c0-0.2-0.2-0.4,0-0.7
			C252.4,64.1,252.3,63.9,251.9,63.9z"/>
	</g>
</g>
</svg>
