<?xml version="1.0" encoding="utf-8"?>
<!-- Generator: Adobe Illustrator 18.0.0, SVG Export Plug-In . SVG Version: 6.00 Build 0)  -->
<!DOCTYPE svg PUBLIC "-//W3C//DTD SVG 1.1//EN" "http://www.w3.org/Graphics/SVG/1.1/DTD/svg11.dtd">
<svg version="1.1" id="Layer_1" xmlns="http://www.w3.org/2000/svg" xmlns:xlink="http://www.w3.org/1999/xlink" x="0px" y="0px"
	 width="300px" height="300px" viewBox="0 0 300 300" style="enable-background:new 0 0 300 300;" xml:space="preserve">
<path d="M206.5,19.7C206.2,18.7,207.7,19.2,206.5,19.7L206.5,19.7z M207.6,18.7c0,0,0.3-0.2,0.3-0.2
	C208.8,18.2,207.3,19.5,207.6,18.7z M207.8,24.4c0.2-0.1,0.7-0.1,1.1,0.2C210.7,26.3,205.7,26,207.8,24.4z M209.5,15.2
	c0,0,0.3-0.2,0.3-0.2C210.8,14.8,209.3,16.1,209.5,15.2z M209.1,14.1c-0.4-0.2,0.4-1.4,1.1-1C210.9,13.5,209.5,14.2,209.1,14.1z
	 M223.4,8.2c0,0,0.3-0.2,0.3-0.2C224.7,7.8,223.2,9,223.4,8.2z M215.2,15.2c0.3-0.2,0.8-0.1,1.2,0.4C218,17.9,212.1,16.7,215.2,15.2
	z M211.3,11.5c0.7,0.2-0.2,1.4-0.6,0.7C210.4,11.7,210.8,11.3,211.3,11.5z M287.9,91c0,0,0.2-0.1,0.2-0.1
	C288.7,92.1,286.1,90.5,287.9,91z M289.8,115.3c0.5,0.4-0.7,0.6-0.8,0C289,114.9,289.5,115,289.8,115.3z M224.8,16.5
	c0.6-0.7,1.8,0.7,1,1.1C226.1,16.6,225.4,17,224.8,16.5z M256.6,68.1C256.2,69.1,255.4,68.1,256.6,68.1L256.6,68.1z M229.4,105.3
	C229.8,104.7,228.9,106.1,229.4,105.3L229.4,105.3z M221,116.9c0-0.1,0-0.1,0.1-0.2c0.1-0.1,0.3-0.4,0.5-0.3c0.2,0.2,0.1,0.5,0,0.7
	c0.4,0.2,0.8,0.4,0.9,0.4c2.4,1.4,4.7,3.7,7.4,5.6c0.3,0.2,0.8,0.4,1.3,0.6c0.1-0.1,0.3-0.2,0.4-0.4c0.6-0.8-0.2-1.5,0.2-2.9
	c0.2-0.6,0.5-0.8,0.7-1c-0.2-0.1-0.3-0.1-0.5-0.2c-0.9,0.4-2.5,0.9-2.1-0.8c0,0,0,0,0,0c-0.5-0.2-0.9-0.4-1.4-0.7c0,0,0,0,0,0
	c-0.2,0.1-1.9-0.4-2.5-0.1c-0.2,0.1-0.3,0.2-0.5,0.3c0,0.2-0.1,0.3-0.3,0.4c0,0-0.1,0-0.1-0.1c-0.4,0.2-0.6,0.2-0.2-0.8
	c0,0,0,0.6,0.2,0.8c0.1-0.1,0.3-0.2,0.4-0.3c-0.1-0.5-1.2-1.1-1.1-1c-0.3-0.4-0.4-0.9-0.5-1.3c0,0,0,0-0.1,0
	c-1.6-0.2-5.8-1.5-5.7-0.5C218.2,115.5,219.8,116.3,221,116.9z M221.2,115.9C222.2,115.7,221.9,116.8,221.2,115.9L221.2,115.9z
	 M220.9,115.4c0.2,0.1,0.1,0.7-0.3,0.6C220.2,115.8,220.3,115.2,220.9,115.4z M250.7,38.3c0.1-0.3,0.6-0.2,0.7-0.2
	C252.1,38.4,250.4,39,250.7,38.3z M198.6,222.8c-0.3,0.2-0.6,0.5-0.9,0.7v-1.1C198,222.5,198.3,222.6,198.6,222.8z M211.6,117
	c0,0,0.3-0.2,0.3-0.2C212.8,116.5,211.3,117.8,211.6,117z M197.7,12.7v-2c0.5,0.2,1,0.3,1.1,0.9C198.8,11.8,198.2,12.3,197.7,12.7z
	 M251.9,18c0.5,0.1,0.2-0.3,0.7-0.2C252.8,18.1,251.9,18.6,251.9,18z M271.5,58.3c0.8,0.3-1,0.7-0.8,0.8
	C270,58.7,270.7,58.1,271.5,58.3z M197.7,130.8v-1.1c0.3,0,0.5,0.1,0.7,0.2c0.5,0.4,0.7,1.1,1,1.6c0,0.5,0.1,1.1-0.4,1.2
	C197.9,132.8,198.2,131.5,197.7,130.8z M279.4,4.6c0,0,0.3-0.2,0.3-0.2C280.6,4.1,279.2,5.4,279.4,4.6z M242.4,82.1
	c-0.7-1.1,1.7-1.2,0.7-0.4C243.2,81.6,242.4,82,242.4,82.1z M212.6,23.6C211.9,24.3,213.9,22.4,212.6,23.6L212.6,23.6z M205.5,16.9
	C205.5,16.8,205.5,16.8,205.5,16.9c0.5-0.1,1,0.7,0.3,0.6C205.5,17.5,205.5,17,205.5,16.9z M217.6,138
	C217.7,139.7,216.2,138.8,217.6,138L217.6,138z M208.5,124.5c-1-1.2,0.7-1,1.4-0.4C209.4,124.3,208.9,124.5,208.5,124.5z
	 M216.1,138.2C215.9,137.3,217.4,137.8,216.1,138.2L216.1,138.2z M233.2,5c0.4-0.5,0.7,0.2,0.8,0.4C234.5,6.6,232.5,5.8,233.2,5z
	 M234,7.8c0.2,0,0.5,0.7,0.3,0.9C233.8,9,233.4,7.9,234,7.8z M252.7,0.8c0,0,0.4,0.1,0.3,0.2C252.8,2,251.7,0.5,252.7,0.8z
	 M238.1,4.8c-0.2-0.3-0.1-0.6,0.5-0.6C239.1,4.1,238.4,5.3,238.1,4.8z M204.8,132.2c0.2-0.1,0.5-0.3,0.8-0.6c0.1,0.2,0.1,0.3,0,0.5
	C205.4,132.2,205.2,132.2,204.8,132.2z M236.1,127.2c-0.2-0.1-0.4-0.2-0.7-0.3c0.5-0.5,0.6-1.4,1.2-0.5c0,0-0.4,0.2-0.6,0.3
	c0-0.1,0-0.1,0,0c0,0,0,0,0,0C236.1,126.8,236.1,127,236.1,127.2z M204.1,132c-0.8-0.3-1.7-0.7-2.4-0.7c0,0,0,0,0,0
	c-0.1,0,1.9,0.2,1.9,0.2C204,131.5,204,131.8,204.1,132z M215.3,15.9c0.1-0.2,0.2-0.5,0.6-0.1C216.6,16.7,215.2,16.4,215.3,15.9z
	 M242.9,81.8c0.1-0.1,0.1-0.1,0.2-0.1C243.1,81.7,243,81.7,242.9,81.8z M228.1,280.5c0.7,0-0.6,0.4-0.6,0.3
	C227.2,280.2,227.8,280.5,228.1,280.5z M226.8,176.8c0.4-0.1,0.6,0.4-0.2,0.7C225.9,177.8,226.9,176.8,226.8,176.8z M208,282.2
	c-0.7-1.1,1.7-1.2,0.7-0.4C208.7,281.7,207.9,282.1,208,282.2z M213.6,206.4c-0.5,0.1-0.4-1,0.1-0.9
	C214.2,205.7,213.3,206.4,213.6,206.4z M233.8,182C235,181.6,234.7,182.7,233.8,182L233.8,182z M237,258.9c0-0.1,0-0.2,0-0.4
	c0,0,0,0,0,0C237.3,258.6,237.2,258.7,237,258.9z M244.4,122.5c0.3,0.3,0.4,1.2-0.4,1.2C243,123.7,243.2,121.3,244.4,122.5z
	 M268.2,123.4c0,0,0.3-0.2,0.3-0.2C269.4,123,267.9,124.3,268.2,123.4z M253.4,291.2c0,0,0.2-0.1,0.2-0.1
	C254.3,292.3,251.6,290.6,253.4,291.2z M222.6,236.4c0.5,0.1,1,1.4,1,1.9C223.1,238.2,222.6,236.9,222.6,236.4z M218.3,200.9
	c0,0,0.4,0.1,0.3,0.2C218.3,202.2,217.2,200.6,218.3,200.9z M208.4,282c0.1-0.1,0.1-0.1,0.2-0.1C208.6,281.8,208.6,281.9,208.4,282z
	 M216.3,238.5c0.1-0.3,0.6-0.2,0.7-0.2C217.6,238.5,216,239.2,216.3,238.5z M217.5,218.2c0.5,0.1,0.2-0.3,0.7-0.2
	C218.4,218.3,217.4,218.8,217.5,218.2z M220,201.1c-0.6-0.6,1-0.5,0.5,0.1C220.4,201.4,220,201.2,220,201.1z M223.2,186.1
	C223,185.1,224.3,185.5,223.2,186.1L223.2,186.1z M218,185c-0.4-0.1,0.1-0.6,0.3-0.6C218.5,184.5,218.4,185.1,218,185z M222.7,172
	c-0.2,0.1-0.1,0-0.2-0.1C221.3,171.6,223.4,171.4,222.7,172z M214.3,175.9C214.8,176.8,213.4,176.4,214.3,175.9L214.3,175.9z
	 M222.1,268.2C221.7,269.2,220.9,268.2,222.1,268.2L222.1,268.2z M244.9,204.7c0,0,0.3-0.2,0.3-0.2
	C246.2,204.3,244.7,205.6,244.9,204.7z M236.2,259.3c-0.5-0.3-0.2-0.7,0.2-0.8c0,0.2,0.1,0.3,0.2,0.4c0.1,0.1,0.1,0.1,0.2,0.1
	C236.5,259.1,236.1,259.2,236.2,259.3z M246.7,195.8c0.1-0.8,1.4-0.7,0.7,0.8C247.4,196.4,246.8,195.4,246.7,195.8z M235.8,165.4
	C237,165.5,236.5,167.1,235.8,165.4L235.8,165.4z M247.4,129.5c-0.1,0.3-0.7,0.2-0.6-0.1C246.8,129.2,247.4,129.3,247.4,129.5z
	 M262.6,80.3c0.7,0-0.6,0.4-0.6,0.3C261.7,80.1,262.3,80.3,262.6,80.3z M239.2,66.3c0.7,0.9-2,2.1-2.2,0.8
	C236.9,66.1,238.5,65.4,239.2,66.3z M251.7,67.1c0.8-0.5,1.9-0.3,2.4,0.3c0.8,0.9,0,2.6-1.7,2.7c-0.6,0-2.4-0.7-2.5-1
	C249.9,69.3,251.4,67.3,251.7,67.1z M209.5,15.2c0,0,0.3-0.2,0.3-0.2C210.8,14.8,209.3,16.1,209.5,15.2z M246.2,82.3
	c0.5,0.4-0.2,1.5-0.9,1.3C244.4,83.3,245,81.4,246.2,82.3z M235.3,68c1.6,1.1-1.9,1.9-1.4,0.4C234.2,67.7,234.8,67.7,235.3,68z
	 M207.6,18.7c0,0,0.3-0.2,0.3-0.2C208.8,18.2,207.3,19.5,207.6,18.7z M251.2,64.3c-0.4-0.8,1.4-2,1.9-1.8
	C254.4,63.3,252.1,66.2,251.2,64.3z M206.5,19.7C206.2,18.7,207.7,19.2,206.5,19.7L206.5,19.7z M247.3,70.5
	c-0.3,0.1-0.3-0.4-0.1-0.6C247.5,69.7,247.4,70.4,247.3,70.5z M208.9,24.6c1.8,1.7-3.2,1.4-1.1-0.2C208,24.2,208.6,24.2,208.9,24.6z
	 M241,96.6C240.6,98.7,238.6,98.3,241,96.6L241,96.6z M240.9,79.5c0.7,0.2,0.1,0.9-0.1,0.9C239.7,80.4,240.5,79.4,240.9,79.5z
	 M271,87.9c-0.1,0.1,0.5,0.4,0,0.8c-0.8,0.6-1.3,0.1-2.3,0.2c-0.2,0-0.6,0.5-0.5,0.5c-0.9,0-3.7-0.6-4.3-2.3
	c-0.2-0.7-0.2-2.7-0.2-2.7c0.1-0.4,0.5,0.2,0.8,0c0.3-0.2-0.3-0.5-0.2-0.7c0.2-0.3,2.3-1.5,3.1-1.7c1.2-0.2,4,0.7,4.4,1.1
	c0.2,0.2,0.8,3.2,0.6,3.7C272.3,87,271.2,87.4,271,87.9z M242.3,73.9c0-0.4,0.4-0.4,0.6-0.3C243.8,73.8,242.3,74.9,242.3,73.9z
	 M209.1,14.1c-0.4-0.2,0.4-1.4,1.1-1C210.9,13.5,209.5,14.2,209.1,14.1z M237.7,94.6c0.9,0.2-0.8,0.9-0.6,0.1
	C237.1,94.8,237.7,94.6,237.7,94.6z M241.2,98.9c0-0.5,3.6-0.3,4.1,0.6C245.1,99.5,241.3,99.8,241.2,98.9z M242.7,82.5
	c1,0.1,1.2-1.1,0.8-1.4C242.2,79.9,241.3,82.3,242.7,82.5z M243.1,81.7c0,0-0.1,0.1-0.2,0.1C243,81.8,243,81.7,243.1,81.7
	c0.1-0.1-0.7,0.3-0.7,0.4C241.8,80.9,244.1,80.8,243.1,81.7z M239.6,93.2c-0.8-1.1,1-3.4,2.4-1.9C243.6,93,240.5,94.5,239.6,93.2z
	 M255.5,68.7c0.4,0.7,1.9-0.4,1.2-0.8C256.2,67.5,255.2,68.1,255.5,68.7z M256.6,68.1C256.2,69.1,255.4,68.1,256.6,68.1L256.6,68.1z
	 M221.2,115.9C222.2,115.7,221.9,116.8,221.2,115.9L221.2,115.9z M220.9,115.4c0.2,0.1,0.1,0.7-0.3,0.6
	C220.2,115.8,220.3,115.2,220.9,115.4z M255.4,85.7c-0.2-0.2,0.1-0.5,0.4-0.4C256.5,85.5,255.6,85.9,255.4,85.7z M225,118.3
	c-0.4,0.2-0.6,0.2-0.2-0.8C224.9,117.5,224.9,118.1,225,118.3z M225,118.3c0.1-0.1,0.3-0.2,0.4-0.3c0,0.2-0.1,0.3-0.3,0.4
	C225.1,118.4,225.1,118.3,225,118.3z M261.1,105.4C259.6,106.7,259,104.8,261.1,105.4L261.1,105.4z M262.8,105.1
	c0.6,0.2-0.8,0.8-1.1,0.6C261.4,105.5,262.3,104.9,262.8,105.1z M257.1,103.1c-0.2-0.3,0.5-0.4,0.7-0.6
	C258,102.9,257.4,103.2,257.1,103.1z M262.2,96.2c0.3-0.2,1,0.3,1.4,0.3c0.7-0.1,0.3-0.6,1.1,0.2c0.8,0.8,0.1,1.1,0.1,0.9
	c0,0,0.2,1.1,0.1,1.3C263.5,101.6,259.8,97.6,262.2,96.2z M236.1,126.7C236.1,126.7,236,126.8,236.1,126.7
	C236.1,126.6,236.1,126.6,236.1,126.7z M259.1,88.4c-0.8,1.2,0.1,2.9,0.4,4.2c0.1,0.3-0.3,0.5-0.2,0.7c0.2,0.5,1.1,0.3,0.7,1.4
	c0-0.1-1.3,1.6-1.1,1.4c-1.2,0.9-4,1.5-5.2,0c-0.9-1.2,0.1-1.8-0.2-3.1c-0.1-0.6-1-1-1.2-1.9c-0.2-1,0.7-3.2,1.8-3.8
	c0.8-0.4,2.8,0.1,2.7,0.2c0.4-0.1,0.3-0.4,0.5-0.5c0.9-0.4,5-0.6,5.5-0.3C263.4,87.1,259.7,87.4,259.1,88.4z M257.2,104.4
	c0.7,0.1-0.1,0.7-0.3,0.6C256.5,104.7,256.9,104.4,257.2,104.4z M257.8,99.1c-0.1-0.8,1.5-1.6,2.2-0.8
	C261,99.6,258.1,101.1,257.8,99.1z M255.8,86.8C255.6,85.4,257.4,86.8,255.8,86.8L255.8,86.8z M271.7,58c-0.8-0.5-2.1,0.5-1.7,1.3
	C270.6,60.5,272.8,58.8,271.7,58z M271.5,58.3c0.8,0.3-1,0.7-0.8,0.8C270,58.7,270.7,58.1,271.5,58.3z M224,17.1
	c0.3,1.7,2.4,1.6,2.8,0.3c0.5-1.6-3.4-2-2.1-0.1C224.3,17.1,223.9,16.8,224,17.1z M225.8,17.6c0.3-0.9-0.5-0.6-1-1.1
	C225.5,15.8,226.7,17.1,225.8,17.6z M223.6,24.6C223.3,25.9,222.1,25.1,223.6,24.6L223.6,24.6z M257.2,62.1
	c-0.7-0.5-0.6-0.1-0.9,0.3C255.5,61.4,257.6,61.1,257.2,62.1z M265.2,109c0,0.6-1,0.1-1,0.7c0.2,0.6,0.9-0.5,1.1,0.2
	C263.5,111.4,263.6,108.3,265.2,109z M269.1,63.7c-0.1,0-0.1-0.1-0.2-0.1C269,63.5,269.1,63.6,269.1,63.7z M210.1,26.8
	C210.1,26.8,210.1,26.8,210.1,26.8C210.1,26.8,210.1,26.8,210.1,26.8C210.1,26.8,210.1,26.8,210.1,26.8z M269.1,63.7
	c0.1,0.1,0.2,0.1,0.3,0.2C269,64.2,269.1,63.9,269.1,63.7z M220.5,35.7c0.9,0.3-0.4,1.1-0.6,0.7C219.7,36.1,220.2,35.6,220.5,35.7z
	 M261.9,81.3c1.1,0.3,1.3-0.9,1.2-1.1C262.2,78.7,260.7,81,261.9,81.3z M261.9,80.7c-0.2-0.6,0.4-0.4,0.6-0.3
	C263.2,80.4,261.9,80.7,261.9,80.7z M262.8,62c1.4-0.9,4.5-0.8,5.8,0.4c-0.3-0.2-0.2,0.6,0.4,1.2c0,0-0.1,0-0.1,0
	c0.7,1.5-0.2,1.7-2,3.5c-0.2,0.2-0.4,0.6-0.6,0.7C263.4,68.8,259.3,64.2,262.8,62z M264.2,69.2c0.8-0.1,0.2,0.5,0.9,0.5
	c1.5,0.1,0.6-0.2,1.6,0.7c0.5,0.5,1.4,0.3,1.7,0.5c0.1,0.1,1.2,2.4,1.2,2.2c0,0.4-1,0.5-0.9,0.5c-0.2,0.3,0.3,1.7-0.3,2.4
	c-0.2,0.2-0.6-0.2-0.7-0.2c-1,0.3-1.9,1.9-3.1,2.1c-0.5,0.1-2.5-0.3-2.9-0.5c-1.1-0.5-2.7-2.5-2.5-4.3c0-0.2,0.5,0,0.6-0.1
	c0.2-0.3,0.4-1.6,0.5-1.7C260.8,70.6,263.5,69.3,264.2,69.2z M268.7,55.4c1,1.5-1.4,3.1-2.6,2.6C263.5,57,266.8,52.5,268.7,55.4z
	 M255.8,26.8c-0.5,0.9,0.8,1.5,0.7,1.4c0.3,1.3-0.5,2.3-1.5,3.2c0,0-0.6,0.9-0.2,0.7c-1.9,0.7-4.7-2.1-3.1-4
	C253,26.7,254.1,28.1,255.8,26.8z M251.3,40.1c-0.1-0.4,0.4-0.4,0.7-0.2C252.5,40.2,251.3,40.7,251.3,40.1z M250,26.9
	c-1.4-1.9,1.4-4.2,3.2-3.1C255.9,25.5,251.5,28.9,250,26.9z M251.5,37.9c-0.7-0.4-1.3,0.3-0.9,0.9C251,39.4,252.5,38.4,251.5,37.9z
	 M250.7,38.3c0.1-0.3,0.6-0.2,0.7-0.2C252.1,38.4,250.4,39,250.7,38.3z M259.5,32.2C258.1,32.1,260,31,259.5,32.2L259.5,32.2z
	 M264.1,5.9c-0.3-0.4,0-1,0.8-0.8C265.9,5.4,264.5,6.5,264.1,5.9z M260.3,29.2c-0.2-0.1-0.2-0.5-0.1-0.6
	C260.5,28.5,260.8,29.4,260.3,29.2z M264.6,22.9c-0.2-0.1-0.5-0.6,0.2-0.7C265.5,22.1,264.8,23,264.6,22.9z M260.4,27.9
	c-0.3,0.3-1.2,0.7-0.5,1.7C258.8,29.6,259.6,27.7,260.4,27.9z M263.7,25c-0.7-1.1,1.4-2.5,2.3-1.6C267.4,24.6,264.4,26.1,263.7,25z
	 M253.3,17.9c-0.8-1-2.2,0-1.6,0.7C251.9,19,253.9,18.8,253.3,17.9z M252.6,17.9c0.2,0.2-0.7,0.7-0.7,0.2
	C252.4,18.1,252.2,17.8,252.6,17.9z M239.1,18.5c1,0.3-1.8,0.9-0.2,0.1C239,18.5,239.1,18.5,239.1,18.5z M239.1,3.7
	C239.5,2.6,240.1,4.2,239.1,3.7L239.1,3.7z M238.7,3.8c-0.4-0.1-1.2,0.1-1.2,0.7C237.3,6.4,240.4,4.3,238.7,3.8z M238.5,4.2
	c0.6-0.1-0.1,1.1-0.5,0.6C237.9,4.6,237.9,4.3,238.5,4.2z M241.2,14.5C241,13.2,243.1,13.9,241.2,14.5L241.2,14.5z M229.9,8.7
	c-0.5-0.1-0.1-0.9,0.3-1C230.9,7.7,230.4,8.9,229.9,8.7z M231,37.4c0.5,0.5-0.2,1.7-0.9,1.3C229.4,38.3,230,36.6,231,37.4z
	 M245.9,30.5c-0.3-0.3,0.3-0.7,0.7-0.6C247.2,30,246.2,30.7,245.9,30.5z M249.2,29.1c0.2-0.5,0.8-0.4,1.1-0.2
	C251.1,29.4,248.9,30.3,249.2,29.1z M244.1,18c0,0.9-1.4,1.3-1.9,2C242.2,19.2,243.7,18.3,244.1,18z M248.5,13.5
	c0.8,0.2-0.2,1.3-0.7,1C247.3,14.1,247.6,13.2,248.5,13.5z M252.1,1.7c0.3,0.2,2.1-0.8,0.9-1.3C252.1,0.1,251.4,1.3,252.1,1.7z
	 M252.7,0.8c0,0,0.4,0.1,0.3,0.2C252.8,2,251.7,0.5,252.7,0.8z M241.4,7.6h2.4C243,8.1,242,8.2,241.4,7.6z M241.3,7.5
	c-1.5-1.8,1.5-5,3.2-2.9c0.8,0.9,0.2,2.3-0.8,3L241.3,7.5C241.3,7.5,241.3,7.5,241.3,7.5z M286.9,72.2c0.1-0.7,1-0.7,1.3-0.5
	C289.5,72.3,286.7,73.6,286.9,72.2z M287.2,6c0.1,0,0.4,0.2,0.4,0.4C287.6,6.5,286,6.3,287.2,6z M290.4,24.4c0,0,0.1-0.1,0.2-0.1
	C291.4,25.1,289,23.9,290.4,24.4z M289.4,44.7c0.9-0.5,3.1-0.3,2.2,0.8C291.8,44.1,290,45.5,289.4,44.7z M279.1,32.6
	c0.5-0.4,2.9-1.3,3.1-1.3c0.5,0,2.2,0.6,2.5,0.9c1,1,0.1,0.9,0.2,1.9c0.1,0.8,0.7,0.5,0.5,0.9c-0.1,0.2-1.7,1.7-2,1.9
	c-2.1,1.2-5.3-0.2-4.9-2.8c0.1-0.6,0.5,0,0.9-0.7C279.5,33.1,278.9,32.9,279.1,32.6z M289.4,45c0,0,0.1,3,1.7,1.7
	C290.2,48.6,287.7,45.7,289.4,45z M284.7,10.8c-0.2-0.3,1.3-2.1,2-2.7c0.1-0.1,0.5-0.3,0.9-0.5h3.5c-1.1,0.9-2.4,1.9-3.1,2.2
	C287.4,10.1,285,11.1,284.7,10.8z M291.1,7.6h-3.5c1.1-0.6,2.8-1.5,3.8-2c0.5-0.2,2.1-0.9,2.1-0.9C294.1,4.9,292.7,6.3,291.1,7.6z
	 M294.5,54.6c0,0.6-1.9,0.8-2.4,0.3C293,54.4,293.7,54.8,294.5,54.6z M290.7,82.3C290.8,81.3,292.3,82.6,290.7,82.3L290.7,82.3z
	 M291,66.1c0.1-0.1,3.3-0.9,2.2,0.7c0,0-0.3-0.6-0.3-0.6c0,0-1.9,1.5-1.2,0.4c-0.1,0.1-0.6,0.7-0.2,1.1c0.5,0.5,2-1.8,2.1-0.5
	C293.7,68.9,288.5,68.3,291,66.1z M279.2,5.3c0.5,0.3,1.8-0.9,0.8-1.2C279.2,3.9,278.6,4.9,279.2,5.3z M279.4,4.6
	c0,0,0.3-0.2,0.3-0.2C280.6,4.1,279.2,5.4,279.4,4.6z M230.5,10.9c0.9,0.8-1.5-0.3-0.2,0.1C230.3,11,230.5,10.9,230.5,10.9z
	 M288,52.5c-0.2-0.5,0.6-0.7,0.9-0.5C289.6,52.4,288.2,53.1,288,52.5z M286.8,91.2c0,1.4,2.6-0.1,1.1-0.6
	C287.5,90.5,286.8,90.7,286.8,91.2z M288.1,90.9c0.7,1.2-2-0.5-0.2,0.1C287.9,91,288.1,90.9,288.1,90.9z M280.3,50.2
	c0.6,0.2-0.2,0.7-0.5,0.6C279.7,50.8,279.8,50,280.3,50.2z M276.1,97.1c0.7,0.2-0.1,0.9-0.5,0.6C275.4,97.6,275.6,97,276.1,97.1z
	 M276.1,22.8c0.5,0.3-0.2,0.9-0.6,0.7C275.1,23.3,275.3,22.3,276.1,22.8z M265.7,9.7c-0.3-0.5,0.2-1.7,1-2.1h1.5c0,0,0,0,0,0
	C270.2,8.8,266.7,11.4,265.7,9.7z M268.2,7.6h-1.5C267.1,7.3,267.7,7.2,268.2,7.6z M271.7,36.3c0.1-0.9,1.5-0.7,2.4-1.5
	C274.2,35.6,272.4,36.2,271.7,36.3z M270.1,16.8c1,0.7-0.8,2.3-1.4,1.1C268.3,17.2,269.4,16.2,270.1,16.8z M278.9,18.7
	c-0.1-0.1-0.1-0.2-0.2-0.3C279.4,17.7,279.8,18.5,278.9,18.7z M285.2,28.1c-0.2-0.2,0.3,1.4-0.8,0.8
	C283.7,28.6,284.4,27.2,285.2,28.1z M277,7.6h3.6c-0.4,1-1.6,1.9-2.4,1.7C277.1,9,276.8,8.3,277,7.6z M280.5,7.6H277
	c0.3-1.4,2.2-2.8,3.5-1.4C280.8,6.5,280.8,7,280.5,7.6z M275.6,52.3c2.2,2-2.2,4.4-3,1.8C272.1,52.5,274.4,51.2,275.6,52.3z
	 M233.7,9.1c0.6,0.3,1.4-0.9,1.4-1.6h-1.6C233.2,8.1,233.2,8.9,233.7,9.1z M234,7.8c0.2,0,0.5,0.7,0.3,0.9
	C233.8,9,233.4,7.9,234,7.8z M234.6,7c0.3,0,0.5,0.2,0.5,0.5h-1.6C233.8,7.2,234.1,7,234.6,7z M221.9,0c0.7,0.2-0.1,0.9-0.5,0.6
	C221.1,0.5,221.3-0.1,221.9,0z M216.4,15.6c-0.4-0.5-0.9-0.5-1.2-0.4C212.1,16.7,218,17.9,216.4,15.6z M215.3,15.9
	c0.1-0.2,0.2-0.5,0.6-0.1C216.6,16.7,215.2,16.4,215.3,15.9z M223.4,8.2c0,0,0.3-0.2,0.3-0.2C224.7,7.8,223.2,9,223.4,8.2z
	 M211.3,11.5c0.7,0.2-0.2,1.4-0.6,0.7C210.4,11.7,210.8,11.3,211.3,11.5z M233.6,10c0-0.1,0.6-0.3,0.9-0.1
	C236.5,10.7,232.2,11.8,233.6,10z M234.5,4.5c-0.3-0.3-2.9,0.2-2.2,1.6C233.1,7.6,235.6,5.5,234.5,4.5z M233.2,5
	c0.4-0.5,0.7,0.2,0.8,0.4C234.5,6.6,232.5,5.8,233.2,5z M257.1,113.9c1.8,0.3,3.5,0.7,5,1.5C260.8,115.5,258.6,114.6,257.1,113.9z
	 M225.5,7.9c0.2-0.1,0.4-0.2,0.7-0.4h1.4C226.8,8,225.9,8.2,225.5,7.9z M227.6,7.6h-1.4c0.9-0.5,2-0.9,3-1
	C228.8,6.8,228.2,7.2,227.6,7.6z M211.5,8.4c0.1-0.3,0.3-0.5,0.6-0.8h0.7C212.3,7.9,211.9,8.2,211.5,8.4z M212.8,7.6h-0.7
	c1-1.1,2.9-2.2,3.6-2.9C215.2,5.7,213.9,6.7,212.8,7.6z M234.6,21.3c0.6-0.7,1.1-1.8,1.7-0.9c0.9,1.4,1.1-0.6,1.9-0.6
	c0.1,0,0.3,0.7,0.4,0.8c0.7,0.5,2.3,0.3,2.9,0.2c-1.4,1-0.1,1.3,0.1,2c0,0.1-0.4,1-0.3,1.4c0.2,0.5,0.9,0.1,0.8,0.8
	c0-0.1-1.9,2.4-1.9,2.4c0.1-0.1-3,1.1-3.2,1.1c-1.1,0-3.4-2-3.6-3.3c0.1,0.3,0.9-2,0.6-2.2c-0.4-0.3-1.4,1.6-1.8,1.9
	c-1.4,1.2-3,1.7-4,2.6C228.5,25.6,232.9,23.1,234.6,21.3z M253.6,136.4c0,0,0.1,0.3,0.2,0.3C254.9,137.6,252.2,136.5,253.6,136.4z
	 M252.6,130.3c0.3-0.9-0.4-0.8-0.6-0.1c-0.5-0.8,1-1.2,1.2-0.4C253.1,130.1,252.9,130.2,252.6,130.3z M253.6,112.8
	c-0.1,0.4-0.8-0.4-0.5-0.5C253.2,112.2,253.7,112.5,253.6,112.8z M251.9,154.6c0.8-0.8,1.5-0.3,2,0.3
	C255.5,157.2,249.9,156.5,251.9,154.6z M244.1,160.2c1.3-1.6,3.7,0.4,3.1,1.3c-0.5,0.9-1.6,0.2-2.2,0.4c-0.7,0.2-1,1.7-1.3,0.1
	C244.8,162.9,243.6,160.7,244.1,160.2z M247.4,129.5c0.1-0.2-0.5-0.3-0.6-0.1C246.6,129.7,247.3,129.8,247.4,129.5
	c-0.2,0.5-1,0.6-1-0.1C246.3,129.1,247.6,128.7,247.4,129.5z M233.7,108.9c0.9,0.2-0.6,0.7-0.4,0C233.3,109,233.7,108.9,233.7,108.9
	z M239.1,112.3C239.4,113.3,238.1,112.1,239.1,112.3L239.1,112.3z M244.9,107.2C246.5,106.7,246,108.3,244.9,107.2L244.9,107.2z
	 M249.5,130.2c-0.9-0.7-2.4-1.5-3.1-2.4c1.2-0.2,3.5,1.9,4.1,2.4c0.3,0.3,0.9,0.8,0.6,1.1C250.6,131.9,249.5,130.2,249.5,130.2z
	 M255.9,148.2c-0.1-0.1-0.1-0.2-0.2-0.3C256.4,147.3,256.8,148,255.9,148.2z M254.8,140.6c-1.1-0.4-1.5-1.1-2.4-1.1
	c0.9-0.2,4.1,0.3,4.8,0.8C258.9,141.5,255,140.6,254.8,140.6z M254.1,144.8C253.9,145.1,254,144.5,254.1,144.8L254.1,144.8z
	 M243.9,125.8c0,0,0.6,0.3,0.5,0.5C244.3,126.8,242.5,125,243.9,125.8z M230.8,142.2c0.2,0.2,0.6,0.4,0.7,0.9c0,0.3-1.7,1.8-1.9,1.8
	c-0.2,0-1.4-1.4-1.4-1.9C228.2,141.8,230,141.3,230.8,142.2z M250.5,146.7c0.9,0.2-0.4,1.1-0.5,0.3
	C250.1,147.2,250.7,146.7,250.5,146.7z M216.7,169.8c-1-1.1,0.6-3,1.9-1.6C220.1,169.6,217.5,170.6,216.7,169.8z M223.3,156.8
	c1,0.1,0.4,0.3,0.8-0.4C225.2,156.8,223.5,158.3,223.3,156.8z M221.2,167.6c-0.3-0.1-0.5-0.8,0.1-0.6
	C221.9,167.1,221.6,167.7,221.2,167.6z M228.7,134.1c0.2,0.3-0.6,1.5-1.5,1C226.1,134.3,228,132.5,228.7,134.1z M221.5,170.8
	c-0.2-0.3,0.1-0.6,0.5-0.5C222.8,170.6,221.7,171.2,221.5,170.8z M242.8,121c0-0.7,0.1-0.4,0.6-0.3C245,120.7,242.8,121.8,242.8,121
	z M245.3,125.4c0.3-0.3,1.2-0.3,0.8,0.4C245.8,126.3,245,125.8,245.3,125.4z M236.4,135.4c0.1-0.2-0.1-0.9,0.1-1
	c0.7-0.4,3.1,0.8,3.7,1c0.9,0.2,1.2-0.4,1.9,0.6c1.4,1.8-1.5,2.8-2.8,3.7c-1.1,0.7-2,1.2-3.2-0.3
	C234.7,137.5,235.9,136.7,236.4,135.4z M231.1,108.8c2.1,1.4,0,3.7-1.6,3.7C226.4,112.4,228.1,106.9,231.1,108.8z M244.5,122
	c-1.1-0.9-2.1,0.6-1.6,1.5C243.6,124.8,246.5,123.5,244.5,122z M244,123.7c-1,0-0.8-2.4,0.4-1.2C244.7,122.8,244.8,123.7,244,123.7z
	 M224.4,170.7c0.2-0.1,0.1,0,0.2,0.1C225.8,171.1,223.7,171.3,224.4,170.7z M278.2,75.4c-0.3,1-1.6-0.8-0.4-0.4
	C277.8,75,278.2,75.2,278.2,75.4z M282,74.3c-1.3,0-3.3-2.1-3.5-2.4c-0.6-0.9-0.8-3.1-0.2-4.1c0.1-0.1,0.5,0.1,0.6,0.1
	c-0.2,0.1,0.6-2.7,2.2-3c-0.1,0,0.7,0.8,1.1,0.8c1.2,0.2,3-1.3,4.1,0.2c0.5,0.6,0.3,2.9,0.2,3.3c-0.3,1-1.4,1.1-1.1,2
	c0-0.1,0.7,0.8,0.7,0.9C285.9,73.1,283.5,74.3,282,74.3z M285.4,77.3c1,0.3-0.7,1.2-0.8,0.4C284.6,77.5,285,77.2,285.4,77.3z
	 M275.9,94.8c0.1-0.7,1-0.7,1.4-0.4C278.2,95.2,275.8,96.1,275.9,94.8z M282.6,132.8c1.6,1.5-2,2.9-2.6,1.2
	C279.5,132.6,281.8,132.1,282.6,132.8z M273.7,69c-1.7,0.7-1.2-2.3,0.1-1.3C274,67.8,274.5,68.6,273.7,69z M277.1,116.6
	c0.9,1.6-3,2.1-2.4,0.1C275.1,115.6,276.7,115.9,277.1,116.6z M291.4,139.7c1.3,1.3-2.6,1.5-1.4,0
	C290.5,139,291.1,139.3,291.4,139.7z M284,116.4C286.8,115.9,286.4,117.5,284,116.4L284,116.4z M292,118.1c0.3-0.9,2.6,0.3,2.8,0.3
	c0.6,0.1,1.2-0.5,1.7,0.1C297.4,119.7,291.6,119.4,292,118.1z M289.7,99.3c-1.5,0.6-3.2,1.4-3.9-0.5c-0.2-0.6-0.1-1.8,1.1-2.4
	c0.4-0.2,0.6,0.3,1.3,0.1c1.8-0.4,3-1.7,3.9-1.7c0.1,0,1.8,0.5,1.9,0.6c0.6,0.7,0.1,2.9-1.5,3.6C292.1,99.2,290.7,98.9,289.7,99.3z
	 M290.1,114.9c-0.3-0.3-0.8-0.6-1.3-0.1C287.6,116.1,291.3,116.3,290.1,114.9z M289.1,115.3c-0.1-0.4,0.5-0.3,0.8,0
	C290.3,115.7,289.1,115.8,289.1,115.3z M204.8,120.4C204.7,119,206.7,119.6,204.8,120.4L204.8,120.4z M223,145.1
	c0,0,0.4,0.1,0.3,0.2C223.1,146,222.1,144.9,223,145.1z M274.1,100.4c-0.2,0.8-2.2-0.3-2.4-0.3c-1.8-0.4-2.3-0.1-3.8-0.4
	c0.3-0.7,1.8-0.4,3.1-0.2C271.4,99.5,274.4,99.6,274.1,100.4z M222.4,127.4c1.2,0.6-0.4,1.8-1,1.1
	C220.8,127.9,221.6,127,222.4,127.4z M208.2,115.6c0,0,0.3-0.2,0.3-0.2C209.4,115.1,208,116.4,208.2,115.6z M215.3,117.2
	c-0.8-0.1-1.7-0.2-2.3-1C213.9,116.2,214.6,116.5,215.3,117.2z M212,123c0,0,0.2-0.5,0.3-0.6C212.8,122.3,212.3,123.1,212,123z
	 M212.2,116.6c-0.7-0.4-1,0.2-1,0.3C211,118.1,213.4,117.3,212.2,116.6z M211.6,117c0,0,0.3-0.2,0.3-0.2
	C212.8,116.5,211.3,117.8,211.6,117z M268.8,123.1c-0.2-0.2-1.3-0.4-1.4,0.4C267.2,124.8,269.7,123.8,268.8,123.1z M268.2,123.4
	c0,0,0.3-0.2,0.3-0.2C269.4,123,267.9,124.3,268.2,123.4z M213.6,158.6C212.2,157.6,213.9,157,213.6,158.6L213.6,158.6z M269.8,116
	c0.3,0.4,0.4,1.8-0.2,2.3c-1.1,1-2.2,0-2.7,0.2c-0.8,0.4,0.4,0.4-0.1,1c-0.7,1.1-2.6,0.2-2.2-0.8c0.2-0.6,1.2,0,1.6-0.7
	c0.2-0.3-0.2-1.1,0-1.6C266.9,114.8,269.2,115.3,269.8,116z M265.7,124.1c0-0.1-2.1,1.3-2.4,1.9c-0.4,0.8,0.7,1.1-0.6,1.9
	c0.1-0.1-1.2,0.3-1.5,0.2c-0.4-0.1-0.6-0.8-1.1-1c-1-0.3-1.1,0.3-1.6-0.4c-0.3-0.4-1.4-0.4-1.5-0.6c-0.6-0.5-1.7-2.5-1.7-2.9
	c0,0,0.5-0.4,0.5-0.5c0.1-0.9-0.3-1.8,0.8-2.6c1.5-1.3-1.2-0.1-1.8-1.1c0.6-0.5,1.3,0.2,2.1,0.1c0.3,0,0.6-0.5,0.9-0.5
	c0.6,0,0.8,0.5,1.4,0.3c1.2-0.5,0.1-0.7,1.6,0c0.3,0.1,3.2,0.1,3,0.4c-0.7,1,2.2,1.5,1.5,2.8C264.8,123.1,266,123.2,265.7,124.1z
	 M267.3,140.9c-0.3-0.2-0.1-0.9,0.5-0.5C268.2,140.8,267.5,141.1,267.3,140.9z M291.4,131.3c0-0.1,0.5-0.1,0.6-0.1
	C292.8,131.4,291.2,131.9,291.4,131.3z M232.6,135.2c2,1.8-3.2,2-2,0.1C231.2,134.3,232.1,134.8,232.6,135.2z M234.5,149.8
	c0.6,0.9-0.4,3.3-2.4,3.1C228.2,152.4,232.3,146.4,234.5,149.8z M230.1,146.4c0.3-0.9,1.4-0.7,1.8-0.4
	C233.7,147.5,229.5,148.4,230.1,146.4z M246,206.4c0.9,0.9-1.1,3.4-2.4,3.1C240.6,208.7,243.9,204.2,246,206.4z M216.5,197.4
	c-0.7-1-0.8-2.6,0.2-3.9c0.7-0.8,1-0.1,0.9-0.1c0.9-0.6,1.3-3.3,2.3-2c0.2,0.2,0.5,0.7,1,1.1c0.5,0.5,2.4,1.3,2.6,3
	c0.1,0.4-0.5,0.4-0.6,0.7c-0.4,1.1,0,1.7-1.3,2.5c-0.7,0.4-2.4,0.8-2.8,0.7c-0.1,0-0.3-0.2-0.6-0.4c-0.4,1.1-2.4,2-3,0.4
	C214.9,198.6,215.6,197.6,216.5,197.4z M244.4,218.8c-0.1-0.1-0.1-0.2-0.2-0.3C245,217.9,245.3,218.6,244.4,218.8z M245.5,204.2
	c-0.8-0.2-1.3,0.8-0.8,1.2C245.2,205.7,246.5,204.5,245.5,204.2z M244.9,204.7c0,0,0.3-0.2,0.3-0.2
	C246.2,204.3,244.7,205.6,244.9,204.7z M248,195.5c-0.7-0.9-2.5-0.4-2.4,0.7C245.7,198.2,248.9,196.7,248,195.5z M247.4,196.6
	c0-0.1-0.6-1.2-0.7-0.8C246.8,195.1,248.1,195.2,247.4,196.6z M225,232.4C223.7,232.3,225.6,231.1,225,232.4L225,232.4z
	 M213.3,214.6c-0.5-0.3-0.2-1.2,0.7-1C214.8,213.9,213.8,214.9,213.3,214.6z M211.5,230.6c-0.3-0.3,0.3-0.7,0.7-0.6
	C212.7,230.2,211.7,230.8,211.5,230.6z M214.7,229.3c0.2-0.5,0.8-0.4,1.1-0.2C216.7,229.6,214.4,230.4,214.7,229.3z M235.1,198.3
	c0,0-1.3,2-1.1,1.8c-2.1,1.6-5.3-0.8-3.3-2.8c1.2-1.3,2.7-1.3,3.6-0.3C234.7,197.2,235.1,198.5,235.1,198.3z M248.8,190.2
	c-0.3-0.3,0.6-1.5,1.2-0.8C250.5,190,249.2,190.6,248.8,190.2z M237.6,196.2C237.1,195.3,238.5,195.8,237.6,196.2L237.6,196.2z
	 M237.3,236.5c0.1-0.9,1.5-0.7,2.4-1.5C239.7,235.8,237.9,236.3,237.3,236.5z M240.4,190.1c2,1.3-2.7,3-2,0.7
	C238.5,190.3,239.7,189.7,240.4,190.1z M241,223.7c-0.4-0.2-0.2-1.2,0.6-0.7C242.1,223.2,241.4,223.9,241,223.7z M242.8,191.8
	c-0.1,0.1-3.5,3.6-4.1,3.2c-0.8-0.6,1.9-1.8,2.4-2.3c1.4-1.2,2.2-2.8,3.9-3.9c2-1.3,3.6-2,5.1-3.3c0.4-0.4,1.1-1.9,1.9-1.4
	c0.6,0.4-2.1,2.9-2.9,3.6C247.7,188.8,244.5,190.7,242.8,191.8z M237.3,283.2c0.2,0.2,0.8,3.2,0.6,3.7c-0.1,0.3-1.2,0.7-1.4,1.1
	c-0.1,0.1,0.5,0.4,0,0.8c-0.8,0.6-1.3,0.1-2.3,0.2c-0.2,0-0.6,0.5-0.5,0.5c-0.9,0-3.7-0.6-4.3-2.3c-0.2-0.7-0.2-2.7-0.2-2.7
	c0.1-0.4,0.5,0.2,0.8,0c0.3-0.2-0.3-0.5-0.2-0.7c0.2-0.3,2.3-1.5,3.1-1.7C234.2,281.9,237,282.8,237.3,283.2z M253.1,206.6
	c0,0.1-1.6-0.1-0.4-0.4C252.9,206.2,253.1,206.4,253.1,206.6z M249.9,229.1c-0.7-0.4-0.1-1.7,0.8-0.8
	C250.5,228.1,251,229.7,249.9,229.1z M228.3,262.1c1.4-0.9,4.5-0.8,5.8,0.4c-0.3-0.2-0.2,0.6,0.4,1.2c0,0-0.1,0-0.1,0
	c0.7,1.5-0.2,1.7-2,3.5c-0.2,0.2-0.4,0.6-0.6,0.7C228.9,269,224.8,264.3,228.3,262.1z M234.2,255.6c1,1.5-1.4,3.1-2.6,2.6
	C229.1,257.2,232.3,252.7,234.2,255.6z M234.6,263.8c-0.1,0-0.1-0.1-0.2-0.1C234.5,263.7,234.6,263.7,234.6,263.8z M234.6,263.8
	c0.1,0.1,0.2,0.1,0.3,0.2C234.5,264.3,234.6,264,234.6,263.8z M230.5,297.4h-3.6c0.1-0.4,0.3-0.8,0.8-1.1c0.3-0.2,1,0.3,1.4,0.3
	c0.7-0.1,0.3-0.6,1.1,0.2C230.4,297.1,230.5,297.3,230.5,297.4z M234.1,273.8c-0.2,0.3,0.3,1.7-0.3,2.4c-0.2,0.2-0.6-0.2-0.7-0.2
	c-1,0.3-1.9,1.9-3.1,2.1c-0.5,0.1-2.5-0.3-2.9-0.5c-1.1-0.5-2.7-2.5-2.5-4.3c0-0.2,0.5,0,0.6-0.1c0.2-0.3,0.4-1.6,0.5-1.7
	c0.7-0.8,3.3-2,4.1-2.2c0.8-0.1,0.2,0.5,0.9,0.5c1.5,0.1,0.6-0.2,1.6,0.7c0.5,0.5,1.4,0.3,1.7,0.5c0.1,0.1,1.2,2.4,1.2,2.2
	C235.1,273.8,234.1,273.9,234.1,273.8z M236.8,258C236.7,258,236.7,258,236.8,258c-0.2-0.1-0.3-0.1-0.3,0c-0.6,0.2-1.2,0.8-0.9,1.4
	c0.6,1.2,2.9-0.5,1.7-1.3C237.1,258.1,236.9,258,236.8,258z M236.2,259.3c-0.5-0.3-0.2-0.7,0.2-0.8c0,0.2,0.1,0.3,0.2,0.4
	c0.1,0.1,0.1,0.1,0.2,0.1C236.5,259.1,236.1,259.2,236.2,259.3z M237,258.9c0-0.1,0-0.2,0-0.4c0,0,0,0,0,0
	C237.3,258.6,237.2,258.7,237,258.9z M227.4,281.5c1.1,0.3,1.3-0.9,1.2-1.1C227.8,278.8,226.2,281.2,227.4,281.5z M227.5,280.8
	c-0.2-0.6,0.4-0.4,0.6-0.3C228.8,280.5,227.5,280.9,227.5,280.8z M221.3,286.9C221.1,285.5,222.9,287,221.3,286.9L221.3,286.9z
	 M220.9,285.9c-0.2-0.2,0.1-0.5,0.4-0.4C222,285.7,221.1,286,220.9,285.9z M222.8,262.3c-0.7-0.5-0.6-0.1-0.9,0.3
	C221,261.6,223.1,261.3,222.8,262.3z M225.5,294.9c0-0.1-1.3,1.6-1.1,1.4c-1.2,0.9-4,1.5-5.2,0c-0.9-1.2,0.1-1.8-0.2-3.1
	c-0.1-0.6-1-1-1.2-1.9c-0.2-1,0.7-3.2,1.8-3.8c0.8-0.4,2.8,0.1,2.7,0.2c0.4-0.1,0.3-0.4,0.5-0.5c0.9-0.4,5-0.6,5.5-0.3
	c0.7,0.4-3,0.7-3.7,1.8c-0.8,1.2,0.1,2.9,0.4,4.2c0.1,0.3-0.3,0.5-0.2,0.7C225,294,225.9,293.8,225.5,294.9z M231.2,209.8
	c-0.5-0.8,1-3.1,2.5-2.1C235.7,209,232.2,211.5,231.2,209.8z M232.8,193c0.2,0.1,0.1,0.7-0.3,0.6C232.1,193.4,232.2,192.8,232.8,193
	z M241.4,295c0.1-0.7,1-0.7,1.4-0.4C243.7,295.4,241.3,296.2,241.4,295z M243.7,275.6c-0.3,1-1.6-0.8-0.4-0.4
	C243.3,275.2,243.7,275.3,243.7,275.6z M239.2,269.1c-1.7,0.7-1.2-2.3,0.1-1.3C239.5,268,240,268.8,239.2,269.1z M251.6,272.3
	c-0.2,0.9-2.6,2.2-4.1,2.2c-1.3,0-3.3-2.1-3.5-2.4c-0.6-0.9-0.8-3.1-0.2-4.1c0.1-0.1,0.5,0.1,0.6,0.1c-0.2,0.1,0.6-2.7,2.2-3
	c-0.1,0,0.7,0.8,1.1,0.8c1.2,0.2,3-1.3,4.1,0.2c0.5,0.6,0.3,2.9,0.2,3.3c-0.3,1-1.4,1.1-1.1,2C250.9,271.4,251.6,272.3,251.6,272.3z
	 M250.2,277.9c0-0.3,0.3-0.6,0.8-0.4C252,277.8,250.3,278.7,250.2,277.9z M259.6,295.5c0.3,0.4,0.3,1.1,0,1.9h-8.1
	c0.2-0.3,0.5-0.7,0.9-0.9c0.4-0.2,0.6,0.3,1.3,0.1c1.8-0.4,3-1.7,3.9-1.7C257.7,295,259.5,295.4,259.6,295.5z M244.1,234.3
	c0.1-0.6,0.5,0,0.9-0.7c0.1-0.3-0.6-0.6-0.3-0.9c0.5-0.4,2.9-1.3,3.1-1.3c0.5,0,2.2,0.6,2.5,0.9c1,1,0.1,0.9,0.2,1.9
	c0.1,0.8,0.7,0.5,0.5,0.9c-0.1,0.2-1.7,1.7-2,1.9C246.9,238.3,243.7,236.9,244.1,234.3z M253.5,252.7c-0.2-0.5,0.6-0.7,0.9-0.5
	C255.1,252.6,253.8,253.2,253.5,252.7z M257.2,245.7c0.1-1.5-1.7-0.1-2.2-0.8C255.8,244.4,258.1,244.6,257.2,245.7z M254.9,245.1
	c0,0,0.1,3,1.7,1.7C255.8,248.7,253.2,245.8,254.9,245.1z M255.9,224.5c0,0,0.1-0.1,0.2-0.1C257,225.3,254.5,224.1,255.9,224.5z
	 M260.1,254.8c0,0.6-1.9,0.8-2.4,0.3C258.5,254.6,259.2,254.9,260.1,254.8z M257.2,266.7c-0.1,0.1-0.6,0.7-0.2,1.1
	c0.5,0.5,2-1.8,2.1-0.5c0.1,1.8-5.1,1.1-2.6-1c0.1-0.1,3.3-0.9,2.2,0.7c0,0-0.3-0.6-0.3-0.6C258.4,266.3,256.5,267.8,257.2,266.7z
	 M256.2,282.5C256.3,281.5,257.8,282.8,256.2,282.5L256.2,282.5z M252.4,272.3c0.1-0.7,1-0.7,1.3-0.5
	C255,272.5,252.2,273.8,252.4,272.3z M252.3,291.4c0,1.4,2.6-0.1,1.1-0.6C253,290.7,252.4,290.9,252.3,291.4z M253.6,291.1
	c0.7,1.2-2-0.5-0.2,0.1C253.5,291.2,253.6,291.1,253.6,291.1z M238.1,254.3c-0.5-1.6,1.8-2.9,3-1.8
	C243.3,254.4,238.9,256.8,238.1,254.3z M241.9,297.4h-0.7c0.1-0.1,0.3-0.2,0.5-0.1C241.8,297.3,241.8,297.4,241.9,297.4z M221,268.8
	c0.4,0.7,1.9-0.4,1.2-0.8C221.7,267.7,220.7,268.2,221,268.8z M222.1,268.2C221.7,269.2,220.9,268.2,222.1,268.2L222.1,268.2z
	 M245.9,250.3c0.6,0.2-0.2,0.7-0.5,0.6C245.3,251,245.4,250.2,245.9,250.3z M253.5,210c-0.6,0.3-3,1.3-3.3,1c-0.2-0.3,1.3-2.1,2-2.7
	c0.4-0.3,3.3-1.8,4.7-2.5c0.5-0.2,2.1-0.9,2.1-0.9C260,205.2,255.2,209.1,253.5,210z M205.8,297.4c0.2-0.2,0.4-0.4,0.8-0.6
	c0,0.2-0.1,0.4-0.2,0.6H205.8z M205.1,293.4c-0.8-1.1,1-3.4,2.4-1.9C209.1,293.2,206,294.6,205.1,293.4z M207.8,274.1
	c0-0.4,0.4-0.4,0.6-0.3C209.4,274,207.8,275,207.8,274.1z M203.2,294.8c0.9,0.2-0.8,0.9-0.6,0.1C202.6,295,203.2,294.8,203.2,294.8z
	 M206.4,279.6c0.7,0.2,0.1,0.9-0.1,0.9C205.2,280.6,206,279.5,206.4,279.6z M212.8,270.6c-0.3,0.1-0.3-0.4-0.1-0.6
	C213,269.9,212.9,270.5,212.8,270.6z M217.2,267.3c0.8-0.5,1.9-0.3,2.4,0.3c0.8,0.9,0,2.6-1.7,2.7c-0.6,0-2.4-0.7-2.5-1
	C215.4,269.5,216.9,267.4,217.2,267.3z M216.7,264.5c-0.4-0.8,1.4-2,1.9-1.8C219.9,263.5,217.6,266.3,216.7,264.5z M208.2,282.7
	c1,0.1,1.2-1.1,0.8-1.4C207.7,280,206.8,282.5,208.2,282.7z M208.6,281.8c0,0-0.1,0.1-0.2,0.1C208.5,281.9,208.6,281.9,208.6,281.8
	c0.1-0.1-0.7,0.3-0.7,0.4C207.3,281.1,209.6,281,208.6,281.8z M204.8,266.5c0.7,0.9-2,2.1-2.2,0.8
	C202.4,266.3,204,265.6,204.8,266.5z M211.7,282.4c0.5,0.4-0.2,1.5-0.9,1.3C209.9,283.5,210.5,281.5,211.7,282.4z M200.8,268.2
	c1.6,1.1-1.9,1.9-1.4,0.4C199.7,267.9,200.3,267.8,200.8,268.2z M218.7,223.9c2.7,1.7-1.7,5.1-3.2,3.1
	C214.2,225.2,217,222.8,218.7,223.9z M217.2,218.8c0.3,0.3,2.3,0.2,1.6-0.7C218,217.1,216.6,218.1,217.2,218.8z M218.2,218
	c0.2,0.2-0.7,0.7-0.7,0.2C217.9,218.3,217.7,217.9,218.2,218z M222.9,186.4c0.5,0.3,1.6-1.1,0.9-1.3
	C223,184.9,222.3,186,222.9,186.4z M223.2,186.1C223,185.1,224.3,185.5,223.2,186.1L223.2,186.1z M235,193.6
	C234.8,192.5,236.3,192.9,235,193.6L235,193.6z M204.3,297.4c-0.3-0.1-0.9-0.3-1.1-0.6c-0.3-0.5,0.2-0.7-0.1-1
	c-1.4-1.2-5.3-1.2-5.4-2.6v-0.3c0.1-1.2,2.2-1,2.9-1.6c0.2-0.1-0.2-0.6,0-0.6c0.5-0.2,1.1,0.3,1.6,0.2c0,0,0.1,0,0.1-0.1
	c0.9,0.7,2.2,0.9,3,0c0.4-0.4,0.5-1.2,0.3-1.9c0.2-0.7-0.3-2.2,0-2.6c0.4-0.4,0.3,0.3,0.8,0.3c0.5-0.1,0.7-0.7,1.9-0.6
	c1.4,0.1,2.2,1.1,4,1.3c0.7,0.1,2.1-0.4,2-0.3c1.5-2-2.9-1.7-4.1-2.2c-0.9-0.3-1.6-1.4-2.3-1.9c-3-2.1-6.1-5.6-3.6-7.5
	c2.3-1.8,7.8-3,11.2-1.5c0.4,0.2,0.9,0.5,1.3,0.8c-0.2,0-0.4,0.1-0.4,0c-0.1,0.4,0.5,0.3,0.7,0.2c0.3,0.2,0.5,0.3,0.8,0.4
	c0.9,0.3,1.7,0,2.6,0.2c1.3,0.4,4.1,1.4,3.1-0.6c-0.3-0.6-4.2-1.6-5.1-1.8c-1.2-0.4-3.1-0.2-3.1-0.2c-0.6-0.1-0.6-0.6-2.1-0.7
	c-0.7-0.1-1.3,0.4-2,0.3c-1-0.1-2.2-0.4-3.2-0.6c-1.2-0.3-2.1-0.5-3.1-0.7c-2.2-0.5-4.2-1.3-6.4-2.1c0.4-0.5,0.7-0.9,0.5-1.3
	c-0.1-0.2-0.8-0.1-0.8-0.4c0-0.7,1-0.8,0.6-1.9c-0.1-0.1-0.8-0.6-1.3-1.1v-1.3c0.3,0,0.5,0,0.7,0c0.7,0.1,2.9,1,4.5,1.5
	c1.9,0.6,3.4,0.6,5.2,1.3c0.2,0.1,0.4,0.1,0.7,0.2c0,0.1,0,0.1,0,0.2c0-0.1,0-0.1,0-0.2c0.2,0.1,0.4,0.2,0.7,0.2
	c-0.3,0.1-0.6,0.2-0.7,0c0.1,0.5,0.7,0.4,1,0.1c1.4,0.5,3,0.8,3.9,0.3c1.5-0.9,0.7-3.5,1.1-4.7c0.1-0.4,0.6-0.2,0.6-0.6
	c0.1-1.5-0.7-2.9,0.5-4c0,0,0.7,0.3,0.8,0.3c0.5-0.7,0.4-1.8,1.1-2.5c0.1,0.1,0.2,0.1,0.3,0.2c0.7,0.5,2.6,0.1,2.8-0.1
	c0.1-0.1,0.3-0.6,0.4-1.1c0.5,0.1,1.1,0.4,1.6,0.3c0.3-0.1,0.6-0.7,1.3-0.8c0.6-0.1,1.6,0.1,2.3,0c1.1-0.3,2-0.9,2.8-1
	c0.7-0.1,1.5,0.3,2.2,0.3c2.4-0.2,5.8-1.4,6.7-2.5c0.7-0.8,0.8-3,0.4-3.8c-0.1-0.2-2.7-3.3-2.5-3.2c-1.3-0.7-2.2,0.4-3.5,0.4
	c0.1,0-0.5-0.4-0.7-0.4c-0.8-0.1-1.7-0.1-2.5,0c-0.2-0.3-0.6-0.6-0.8-0.1c0,0,0,0.1,0,0.1c-0.9,0.1-1.9,0.2-2.8,0.3
	c0,0-0.1,0-0.1-0.1c-0.5-0.6-0.4-1.7-0.9-2.1c-0.7,0.7-0.1,1.4,0.4,2.3c-0.7,0.1-1.4,0.2-2.1,0.2c-1.6,0.1-4.7,0.7-6,0.4
	c-1.3-0.3-2.9-1.6-3.8-1.9c-0.8-0.2-1.5-0.3-2.7-0.7c-1.5-0.6-3.2-0.4-4.7-0.7c0.8-0.4-0.3-0.7-0.2,0c-0.2,0-0.4-0.1-0.5-0.1
	c-0.3-0.1-0.6-0.3-0.8-0.4c1.1-0.9,2-1.8,2.2-2c0.8-0.5,3.5-1.1,2-1.9c-0.8-0.4-2,1-3.4,1.6c-0.8,0.3-2.5,1-3.7,1.7
	c-0.2,0-0.4,0-0.6,0c-0.8-0.1-1.5-0.8-2.2-0.9c-0.4-0.1-0.7,0-1.1,0v-3.3c0.8,0.7,1.8,1,1.3-1.2c-0.2-0.7-0.7-1.7-1.3-2.5v-6.9
	c0.1,0,0.1-0.1,0.2-0.1c0.3-0.3,1.1-1.6,1.5-1.9c0.1,0.1,0.2,0.1,0.3,0.1c0,0.6-0.6,2.3-0.7,2c0.2,1.3,2.5,3.2,3.6,3.3
	c0.1,0,0.6-0.2,1.2-0.4c0,0,0,0,0,0.1c0,0,2.6,1.2,2.6,1.2c0.4,0,0.5-0.7,0.8-0.8c0.8-0.3,0.9,0.5,1.4,0.3c0,0-0.1-0.5,0.1-0.6
	c0.8-0.5,0.4-0.9,0.9-1.7c0.1-0.2,0.7-0.2,0.8-0.4c0.2-0.6-0.1-3.3-0.3-3.6c-0.2-0.3-2.2-1.1-3.1-1.4c0.1-0.1,0.2-0.1,0.3-0.2
	c-0.6,0-2.2,0.3-2.9-0.2c-0.1-0.1-0.3-0.8-0.4-0.8c-0.2,0-0.4,0.2-0.6,0.4c-0.2-0.6-0.5-1.2-0.8-1.5c-0.6-0.8-1.5-0.8-1.7-1.3
	c-0.3-1,0.7-2.1,1.4-2.4c0.4,0.1,0.9-0.1,1.2,0.4c0.4,0.6-0.1,4.1,1.2,4.6c0.1,0,0.5,0.1,0.5-0.2c0-1.4,0.2,0.3,0-1.8
	c0-0.3-0.4-0.5-0.5-0.9c-0.1-0.5,0.1-1.2,0.3-1.8c0.4,0.3,0.4,1,1.2,1.3c1,0.3,2.9-0.2,3.2-0.8c0.5-1.2-1.3-2.2-1.9-3.7
	c-0.5-1,0.3-1.6,0.4-2.6c0-0.3-0.1-0.8-0.2-1.3c1.4,0.3,3.3-1.6,2.7-3c0.4-0.2,0.9-0.3,1-0.5c0.9-1.5-0.3-2.3-1.6-2.8
	c-0.8-0.3-2.4-1.4-2.7-2c-1.2-2.3,1.9-3.3,0.7-5.2c-0.4-0.5-0.5-2.1-0.3-2.5c0.2,0.3,0.5,0.5,0.5,0.8c0.2,0.5-0.8,0.8,0.3,1.3
	c0.9,0.4,1.2-0.7,1.6-0.8c0.7-0.3,1.5,0.5,3.1,0.2c-0.3-0.4-0.3-0.7-0.2-1c0.9,0.1,2.8,0.8,3.7,0.6c0.7-0.2,0.6-0.4,0.1-0.6
	c0.4-0.5-0.6-0.4-0.7-0.2c-1.1-0.3-2.6-0.5-2.6-0.5c0,0,0,0,0,0c0.2-0.2,0.3-0.4,0.4-0.6c0.4-1.6-1.2-3.5-2.5-3.9
	c-0.5-0.2-1.6,0-2.4-0.2c-0.6-0.6-1-1.1-1.3-1.7c0-0.1,0.1-0.2,0.2-0.3c0,0,0.3,0.6,0.3,0.6c1.7,1.2,4.4-0.9,3.1-2.9
	c-0.9-1.2-3.3,0.1-2.9-0.9c0.1-0.1,0.1-0.2,0.1-0.4c0.4-0.1,0.8-0.2,1.3-0.2c0.7,0,3.2-0.4,3.3-1.8c0.2-2.5-3.2-0.2-5.1-1.1
	c-0.1,0-0.1-0.1-0.2-0.1c0.3-0.4,0.8-0.9,1-1.4c0.2-0.3-0.1-0.8,0.1-1c0.3-0.5,0.9-0.6,1-0.7c0-0.1,0.1-0.2,0.1-0.3
	c0.7,0.7,1.8,1.1,3,0.7c1.8-0.6,1.6-2.2,2.1-3.1c0.5-1,1.5-1.3,0.6-2.3c0.1-0.8-1.3-1.6-1.3-2.2c0-0.7,0.8-0.5,1-1.1
	c0.1-0.4-0.6-1.2-0.5-2.1c0-0.5,0.5-0.8,0.4-1c-0.1-0.8-1.4-1.3-0.6-2.3c0.3-0.4,2.4,0.3,1.9-1.4c-0.5-1.5-2.5-0.1-2.2,0
	c-1.2-0.2-2.7-2.7-2.6-4c0-0.3,0.8-0.8,0.8-1.2c-0.1-0.8-1.3-0.9-1.2-1.5c0-0.5,1.7-0.3,1.1-1c-2.1,0.5-1.7-3.8,0.7-3.2
	c-1.7-1.7,1.6-1.9,1.6-2.7c-0.1-2.4-2-0.5-2.2-0.4c-1.7,1-3.2-1.1-2.2-1.8c0.8-0.6,0.9,0.5,1.5,0.6c0.9,0.1,1.9-0.3,3-0.8
	c0.3,0.4,0.8,0.7,1.4,1.1c0,0,0,0,0,0c-0.7,0.5-0.6,1.3,0.1,1.7c1,0.6,1.4-0.2,1.4-0.9c0.9,0.5,1.8,0.8,1.9,0.9
	c0.6,0.2,1.6,0.5,2.6,0.8c-0.1,0.2,0,0.5,0.1,0.7c0.5,0.7,1.1,0.4,1.4-0.1c1,0.5,1.6,1,1.3,1.9c-0.1,0.3-1.3,0.5-1.3,0.5
	c-1.5,1.3,0.8,4,2.5,2.9c0.8-0.5,0.3-2.5,0.6-2.9c0.3-0.4,1.6,0.5,1.2-0.8c-0.5-1.6-4.2-2.6-5.3-3.2c-0.7-0.3-1.8-1.3-3-2.2
	c-0.1-0.3-0.2-0.5-0.4-0.3c-0.5-0.4-1.1-0.7-1.6-1l3.7-0.7c0.3,0,2.6,0.3,2.2-0.4c-0.2-0.3-1.4,0-1.4,0c-0.3,0-4.2-1.2-5.6-0.6
	c-0.7,0.3-1.2,0.9-1.8,1.4c-0.1,0.1-0.2,0.1-0.3,0.2c0,0,0,0,0,0.1c-0.5,0.4-1,0.7-1.7,0.7c-1.8,0-1.2-1.9-1.7-2.9
	c-0.6-1.1-2.8-1.6-2.4-2.5c0.5-1.1,1.7-0.1,2-0.1c0.2,0,2.3-0.4,2.5,0.1c0,0.1-1.1,1-1.2,1.2c-0.7,3.1,4.2,3.3,4.7,0.9
	c0.1-0.3,0-0.5,0-0.7c1,0.1,2.1-0.6,1.4-1.7c-0.1-0.1-0.2-0.2-0.3-0.3c0.3-0.3,0.6-0.8,0-1.1c-0.4-0.2-0.9,0.3-1,0.8
	c-0.6,0-1.3,0.4-1.3,1c-0.4-0.3-0.7-0.5-0.8-0.8c-0.2-1.6,1.3-0.8,1.9-1.2c1.3-0.8,0.2-2.6,0.6-4c0.4,0.5,0.8,0.9,1.1,1
	c0.4,0.1,1.5-0.9,1.9-1c1.5-0.6,4.2-1.6,5.4-0.9c0.6,0.4,0.9,1.6,1.4,1.9c0.4,0.2,1.2-0.2,1.9-0.2c1.1,0.1,1.9,0.6,2.8,0.7
	c0.5,0,1-0.3,1.7-0.3c0.7,0.1-0.4,0.3,0.9,0.5c2.3,0.5-0.4-0.9-0.5-0.9c-0.3-0.2-0.4-0.8-0.7-1c-1.2-0.9-2.8-1.4-3.3-2
	c-0.4-0.5-1.3-1-2.1-0.9c-0.8,0.1-1.2,1.1-1.9,1.2c-0.5,0.1-1.1-0.6-1.8-0.8c-0.9-0.3-2.1-0.4-3-0.8c-1.1-0.5-2-1.2-2.9-1.6
	c-0.5-0.7-1.2-1.5-1.3-1.5c-0.7-0.3-1.5,0.2-2.2,0.5c-0.1-0.1-0.2-0.2-0.2-0.3c-0.2-0.4,0.4-0.6,0-0.8c-0.3-0.2-1,0.2-1.3,0.1
	c-0.7-0.2-0.9-1-1.5-1.2c-0.3-0.1-0.6-0.1-0.9,0c-0.6-0.6-1.3-0.7-2.1-1.3c-0.5-0.4-0.6-1.6-2.1-1.7c-0.4,0.4,0.4,1.5,0.9,2.5
	c-0.9-1.1-2.1-2.7-2.7-3c-0.6-0.4-1.4-0.4-2.1-0.4c0,0,0,0,0,0c-0.4-0.6,0-0.5,0-1.1c0-0.3,0-0.6,0-0.8c0.6,0.6,1.3,0.5,2.1,0.2
	c0.5,0.4,0.9,0.8,1.3,1.1c0.3,0.3,1.3,1.8,2.1,1.8c0.7,0,1-1,0.9-1.3c-0.4-1-2-1.2-3.6-1.9c0.2-0.1,0.4-0.2,0.6-0.3
	c0.1-0.1,0.8,0.2,0.9-0.1c0.4-0.6-0.1-2-0.8-2.6c-1.1-1-2.7-0.6-3.6,0.3c-0.6-0.3-1.3-0.3-1.5-1.2c-0.1-0.3-0.1-0.7,0-1.2
	c0.4-0.6,0.8-1.2,1.2-1.7c0.6-0.1,1.3,0,2.1,0.1c-0.3,0.2-0.4,0.7-0.2,1c0.8,0.7,1.4-0.4,0.9-0.9c0.4,0,0.7,0,1.1,0
	c2.1-0.1,2.8-0.6,4.7-0.3c1,0.1,2.8,2,4.3,2.9c1.8,1.1,2.8,1.3,3.7,2c1.1,0.8,2.2,2.1,3.3,3c-0.1,0.5,0.1,1.2,0.7,1
	c-0.5-0.2-0.5-0.5-0.4-0.8c0.4,0.3,0.8,0.5,1.2,0.6c0.9,0.3,0.1-0.1,0.8,0.6c0.3,0.2,0.7,0.5,1.1,0.8c-0.3,0-0.6,0.3-0.5,0.8
	c0,0.6,3.1,1.8,2.5,0.3c0.9,0.4,1.8,0.9,2.5,1.3c0.3,0.2,0.5,0.4,0.8,0.6c-0.1,0-0.2,0.1-0.2,0.2c-0.4,1.8,2.6,2.8,4.1,2.9
	c0.5,0.4,1,0.9,1.5,1.3c0,0.2-0.1,0.2-0.2,0.1c0.3,0.5,0.1,0.4,0.6,0.5c0.1,0,0.2,0,0.2,0c1.1,0.8,2.1,1.5,2.9,1.9
	c1,0.4,1.3,0.3,1.4,0.3c1-0.9-3.2-2.7-3.9-3.3c0,0,0,0,0,0c-0.1-0.8-0.3-1.5,0.5-1c1.1,0.7-0.1-1,0.8-1.1c0.5,0,0.1,1.5,0.6,1.5
	c1.2,0-0.5-2.1-0.4-2.2c0.5-0.5,2.4,1.7,2.9,0.2c0-0.1-1.1-1.5-1.1-1.2c0-0.4,0.6-0.4,1-1.1c0.3-0.5,0.6-2.1,0.7-1.8
	c-0.3-1.5-2.2-1.2-1.3-3.1c-1.2,1.3-1.7-1.1-2.6-1.2c-0.7,0-0.9,1.2-1.6,0.7c-0.9-0.6,0.6-2.2-0.8-2.6c-0.9-0.3-2.2,1.5-0.9,2.1
	c1,0.4,0.5,0.9-0.4,1.2c-0.4-0.3-0.9-0.7-1.3-0.8c-1-0.5-2.1-0.6-3.1-0.9c0.3-0.8-0.1-2.2-0.8-2.9c-1.6-1.6-3.9-1.2-4.9,0.2
	c-1.3-0.7-2.5-1.4-3.6-1.9c-1-0.4-4.3-2.2-4.4-3.1c-0.1-0.5,1.1-2.8,1.7-3.2c0.3-0.2,1,0,1.1-0.1c0.2-0.1,0.1-0.6,0.2-0.7
	c0.1-0.1,0.3,0.4,0.5,0.3c0.8-0.2,1.4-1.9,2.5-1.9c0.6,0,2,1.1,2.5,1.3c2.3,1,4.3,1.3,6.4,2.3c1.4,0.7,2.3,0.5,3.5,0.8
	c0.9,0.3,1.9,0.7,2.8,1.1c-0.9-0.2-1.8-0.3-0.9,0.3c0.6,0.4,5.9,2.6,5.7,1.8c0.3,0.1,0.6,0.2,0.9,0.3c2.7,0.8,6,2.5,7.6,3
	c0.5,0.1,0,0.3,1.2,0.2c3.7-0.2-3.4-2.4-4.2-2.6c-1.4-0.5-2.7-1.4-4-1.8c-1.4-0.4-3.4-0.6-4.3-1.1c-0.4-0.2,0.2-0.4-0.4-0.6
	c-0.7-0.3-1.8-0.2-2.7-0.6c-1.2-0.5-2.2-1.3-3.2-1.7c-0.9-0.3-2.3-0.4-3.3-0.9c-0.3-0.2-0.7-0.5-1.1-0.9c0.5-0.3,0.8-0.9,0.2-1.5
	c-0.6-0.6-1.2-0.5-1.6-0.1c-0.2-0.3-0.4-0.6-0.4-0.8c-0.1-0.4,0.5-0.5,0.3-0.9c-0.3-0.4-2.3-0.7-1.6-1.6c0.8-1.1,2.6,0.5,3.9,1.4
	c0,0.2,0.2,0.6,0.4,0.6c0.1,0,0.2-0.1,0.3-0.2c0.1,0,0.1,0.1,0.2,0.1c0.5,0.2,1,0.4,1.6,0.6c-0.3,1-0.2,2.2,0.5,3.1
	c0.4,0.5,3.2,2.2,3.5,2.1c0.4-0.1,0.8-1.4,1.1-1.6c0.2-0.1,1.1,0.3,1.7-0.3c0.1-0.1,0.1-0.6,0.2-0.7c0.2-0.1,0.7,0.1,0.8,0
	c0.3-0.4,0.5-1,0.5-1.7c0.7,0.6,0.6,1.5,1.9,2c1.5,0.6,2.5,1,3.8,1.5c0,1,0.1,2.3,0.7,3.1c0-0.1,0.6,0,0.6,0.1
	c0.7,0.4,1.7,1.7,2.4,1.9c0.6,0.2,0.2-0.5,0.7-0.6c0.7-0.1,1.7,0.8,2.2,0.7c-0.1,0-0.1-0.6-0.1-0.6c0.1-0.5,1.3-0.4,1.9-0.5
	c0.1,0,0.2,0.1,0.3,0.1c0.5,0.3,1.1,0.6,1.6,0.9c-0.2,0.1-0.4,0.2-0.3,0.4c0.1,0.1,0.5,0,0.6-0.2c0.5,0.3,1,0.6,1.4,0.8
	c1.5,0.6,1.9,1.4,3.3,2.2c0.8,0.5,3.6,1.6,3.4,1.6c0.5,0,2.2-1.4,1.8-2.3c-0.4-0.7-1.7-1.2-3-1.5c0,0,0,0,0,0c0,0,0,0,0,0
	c-0.9-0.3-1.8-0.5-2.3-0.7c-1.2-0.5-3.5-2-5.2-3c0.3-0.5,0.8-2.7,0.8-2.8c0-0.2-0.7-0.8-0.7-1c-0.2-0.7-0.1-1-0.4-1.6
	c-0.1-0.2-0.4-1-0.7-1.2c-0.1-0.1-0.8,0.2-1-0.1c-0.2-0.1,0.1-0.7,0-0.8c-0.5-0.6-1,0.3-1.7,0.3c-0.2,0-0.5-0.6-0.7-0.6
	c-1.2,0-1.7,1.1-2.5,0.9c-0.8-0.2-0.5-1.5-1.1-1.6c-0.8-0.2-1.4,0.8-1.2,1.2c0.3,0.6,1.6-0.3,1.7,0.5c0-0.3-1.3,0.9-1.7,1.3
	c-0.2-0.1-0.3-0.3-0.5-0.4c-0.2-0.1-0.3,0.2-0.5,0.2c-0.3-0.2-3.3-3-3.9-3.4c-0.7-0.3-1.7-0.2-2.4-0.5c-1.4-0.7-0.6-1.2-0.9-1.7
	c-0.1-0.1-0.9-0.2-1.2-0.7c-0.3-0.5,0.2-0.7-0.1-1c-1.4-1.2-5.3-1.2-5.4-2.6c-0.1-1.5,2.1-1.3,2.9-1.9c0.2-0.1-0.2-0.6,0-0.6
	c0.5-0.2,1.1,0.3,1.6,0.2c0,0,0.1,0,0.1-0.1c0.9,0.7,2.2,0.9,3,0c0.4-0.4,0.5-1.2,0.3-1.9c0.2-0.7-0.3-2.2,0-2.6
	c0.4-0.4,0.3,0.3,0.8,0.3c0.5-0.1,0.7-0.7,1.9-0.6c1.4,0.1,2.2,1.1,4,1.3c0.7,0.1,2.1-0.4,2-0.3c1.5-2-2.9-1.7-4.1-2.2
	c-0.9-0.3-1.6-1.4-2.3-1.9c-3-2.1-6.1-5.6-3.6-7.5c2.3-1.8,7.8-3,11.2-1.5c0.4,0.2,0.9,0.5,1.3,0.8c-0.2,0-0.4,0.1-0.4,0
	c-0.1,0.4,0.5,0.3,0.7,0.2c0.3,0.2,0.5,0.3,0.8,0.4c0.9,0.3,1.7,0,2.6,0.2c1.3,0.4,4.1,1.4,3.1-0.6c-0.3-0.6-4.2-1.6-5.1-1.8
	c-1.2-0.4-3.1-0.2-3.1-0.2c-0.6-0.1-0.6-0.6-2.1-0.7c-0.7-0.1-1.3,0.4-2,0.3c-1-0.1-2.2-0.4-3.2-0.6c-1.2-0.3-2.1-0.5-3.1-0.7
	c-2.2-0.5-4.2-1.3-6.4-2.1c0.4-0.5,0.7-0.9,0.5-1.3c-0.1-0.2-0.8-0.1-0.8-0.4c0-0.7,1-0.8,0.6-1.9c-0.1-0.2-1.8-1.2-2-1.9
	c0-0.1,0-0.3,0-0.4c0.5-0.1,1-0.1,1.4,0c0.7,0.1,2.9,1,4.5,1.5c1.9,0.6,3.4,0.6,5.2,1.3c0.2,0.1,0.4,0.1,0.7,0.2c0,0.1,0,0.1,0,0.2
	c0-0.1,0-0.1,0-0.2c0.2,0.1,0.4,0.2,0.7,0.2c-0.3,0.1-0.6,0.2-0.7,0c0.1,0.5,0.7,0.4,1,0.1c1.4,0.5,3,0.8,3.9,0.3
	c1.5-0.9,0.7-3.5,1.1-4.7c0.1-0.4,0.6-0.2,0.6-0.6c0.1-1.5-0.7-2.9,0.5-4c0,0,0.7,0.3,0.8,0.3c0.5-0.8,0.4-2,1.3-2.7
	c0.3-0.2,0.6,0.2,1,0c0.6-0.2,1-0.8,1.7-0.8c0.6,0,1.3,0.5,2,0.3c0.3-0.1,0.6-0.7,1.3-0.8c0.6-0.1,1.6,0.1,2.3,0
	c1.1-0.3,2-0.9,2.8-1c0.7-0.1,1.5,0.3,2.2,0.3c2.4-0.2,5.8-1.4,6.7-2.5c0.7-0.8,0.8-3,0.4-3.8c-0.1-0.2-2.7-3.3-2.5-3.2
	c-1.3-0.7-2.2,0.4-3.5,0.4c0.1,0-0.5-0.4-0.7-0.4c-3-0.2-6,0.4-8.8,0.6c-1.6,0.1-4.7,0.7-6,0.4c-1.3-0.3-2.9-1.6-3.8-1.9
	c-0.8-0.2-1.5-0.3-2.7-0.7c-1.5-0.6-3.2-0.4-4.7-0.7c0.8-0.4-0.3-0.7-0.2,0c-0.2,0-0.4-0.1-0.5-0.1c-0.3-0.1-0.6-0.3-0.8-0.4
	c1.1-0.9,2-1.8,2.2-2c0.8-0.5,3.5-1.1,2-1.9c-0.8-0.4-2,1-3.4,1.6c-0.8,0.3-2.5,1-3.7,1.7c-0.2,0-0.4,0-0.6,0
	c-0.8-0.1-1.5-0.8-2.2-0.9c-1-0.1-2.2,0.3-3.4,0.5c0,0,0,0-0.1,0c0,0,0,0,0,0.1c-0.6,0.1-1.2,0.2-1.8,0.1c-0.2,0-0.5-0.1-0.7-0.2
	c0.2-0.1,0.3-0.3,0.5-0.5c1.2-1.3,0.7-3.7-0.2-4.5c0,0-0.2,0.2-0.3,0.2c0-0.1-1.3-1.2-1.2-1.1c-2.3-0.2-4.9,3.5-4.2,5.4
	c-0.9,0-1.7,0.2-2.6,0.4c0.7-0.4,1.3-0.8,1.3-0.9c-0.1,0.2-0.7-1.4-0.5-1.3c-0.3-0.3-2.6,0.1-2.8,0.3c-0.1,0.1,0.2,0.8,0,1.2
	c-0.1,0.2-0.4,0.7-0.8,1.1c-0.2,0-0.3,0-0.5-0.1c0.7-1.1,0.3-2.7,0.8-3.8c0.1-0.1,0.8,0.1,0.9-0.1c0.2-0.2,0.1-1.4,0.5-2.1
	c0.8-1.2,2.8-3.6,3.1-3.6c0.5-0.1,0.2,0.7,1,1.1c0.2,0.1,2.2,0.2,2.6,0c0.3-0.1,0.4-0.5,0.7-0.6c0.2,0,1,0.5,1.4,0
	c0.6-0.7-0.4-0.3-0.5-1.3c0-0.1,0.5-0.3,0.5-0.6c0-0.3-0.4-0.5-0.4-0.8c0-0.1,0.5-0.2,0.5-0.3c-0.1-0.8-0.3,0.1-0.6-0.5
	c-0.2-0.4,0.2-1.2,0-1.4c0,0-0.6,0.2-0.6-0.1c-0.2-2.1,3.3-3.2,3.7-5c0.6-2.6-2.9,2.6-3.1,2.9c-1.7,1.9-3.6,2.2-4.5,2.4
	c1.5,0.5,0.1,0.7,0,0.8c-0.1,0.1-0.5,1.9-1.1,2.8c-0.8,1.1-4,4.2-5,4.9c-1.1,0.8-1.2-0.3-2-0.3c0,0-1.6,0.4-1.7,0.5
	c-0.8,0.5-1.8,2-2.1,3.1c-0.1-0.1-0.2-0.2-0.3-0.4c-0.6-0.8,0.2-1.1-0.3-2.3c-0.2-0.5-0.8-0.7-1.1-1.2c0.3-0.2,0.7-0.5,0.7-0.6
	c0.6-1.2,2.2-2.5,3.4-3.8c0.5-0.6,0.9-1.3,1.5-2c0.4-0.4,1.1-0.1,1.2-0.7c0.4-1.3,1.3-1.4,2.3-2.4c0.1-0.1,0-0.6,0.3-1
	c0.2-0.2,0.8-0.3,0.9-0.5c0.9-1.3,0.2-2.1,1.8-1.5c0.8,0.3,2.1,0,2.7-1c0.6-1-0.7-2-0.7-2.4c0-0.9,1.9-3.8,2.9-4.3
	c1.4-0.8,1,0.1,1-1.5c0-1,1.6-2.9,3-4.3h-1.1c-0.2,0.1-0.3,0.2-0.4,0.3c-0.6,0.5-2.7,3.3-3.1,3.2c-0.3,0-0.6-1.7-0.2-2.3
	c-0.6,0.4-2,0.6-2.5,1.3c-0.3,0.4,0.4,0.3,0.3,0.9c-0.1,0.6-0.7,0.5-0.7,1c0,0.7,0.9,2.4,0.9,2.3c0.3,0.1,1.2-1.5,1.3-0.3
	c0,0.5-2.5,3.3-2.9,2.4c-0.2-0.4,1.3-0.9,1-1.9c-3.3,2.1-4.5,4.4-7.6,7.2c-1.6,1.5-4.1,3.2-5.2,5c-1.4,2.3,0.9,0.2,1,0
	c2-1.9,3.5-3.2,5.2-4.8c0.6-0.6,2.9-3.6,3.3-3.6c1.6,0.2-0.5,1.9-0.4,1.8c-0.3,0.3-0.2,0.7-0.5,1.3c-1.2,2.1-3.4,4-5.5,5.5
	c-0.4,0.3-1,0.8-1.4,1.1c-1,1.1-1.3,2.5-2,3.7c0,0-0.4,0.4-0.7,0.8c0-0.5,0-1.1,0.1-1.7c0.5,0.1,0.7-0.5,0-0.3
	c0-0.8-0.1-1.6-0.7-2.3c-0.7-0.8-2.7-1.1-3.1-2.1c-0.1-0.3,0.4-1.1,0.5-1.4c0-0.3,0-0.6,0-1c0.1,0.1,0.2,0.2,0.3,0.2
	c0.8,0.2,3.5-2.6,2.2-3c-0.6-0.2-2.3,1.2-2.6,2.2c-0.1-0.6-0.1-1.2-0.1-1.8c0.2-0.2,0.4-0.4,0.4-0.6c-0.1,0.1-0.3,0.2-0.4,0.2
	c0-0.2,0-0.4,0.1-0.6c0.3-1.1,2-1.4,2.5-2.4c0,0.1,0.1-1.4-0.3-1.7c-0.2-0.1-0.3-0.2-0.6-0.3c1.3-0.9,2.9-1.9,2.1-2
	c-0.4-0.1-2.5,1.2-3.3,1.9c-0.2,0-0.5,0-0.7,0c0,0-0.1-0.1-0.2,0c0,0-0.1,0-0.1,0.1c-0.3,0-0.5,0-0.7,0c-0.6,0-1.1,0-1.7,0
	c0.3-0.2,0.6-0.5,0.7-0.9c0.1-0.6-1.3-2-0.6-2.7c0.3-0.3,0.9,0.4,1.6,0.4c0.7-0.1,1.6-0.8,2-0.8c0.4,0,1,0.7,1.3,0.5
	c1.2-0.6,0-0.7,0.6-1.5c0.6-0.9,2.4-1.2,2.9-1.7c0.5-0.5,0.3-1,0.4-1.4c0-0.1,0.1-0.2,0.1-0.3H3.5v289.9L204.3,297.4z M217.6,138
	C217.7,139.7,216.2,138.8,217.6,138L217.6,138z M216.1,138.2C215.9,137.3,217.4,137.8,216.1,138.2L216.1,138.2z M209.9,124.1
	c-0.5,0.2-0.9,0.4-1.4,0.4C207.5,123.4,209.2,123.6,209.9,124.1z M205.6,131.6c0.1,0.2,0.1,0.3,0,0.5c-0.1,0.1-0.4,0.1-0.7,0.1
	C205,132,205.3,131.8,205.6,131.6z M201.8,131.2c-0.1,0,1.9,0.2,1.9,0.2c0.3,0.1,0.4,0.3,0.5,0.5
	C203.3,131.7,202.4,131.3,201.8,131.2C201.7,131.3,201.7,131.2,201.8,131.2z M236.7,126.4c0,0-0.4,0.2-0.6,0.3c0,0.1,0,0.3,0,0.5
	c-0.2-0.1-0.4-0.2-0.7-0.3C236,126.4,236,125.5,236.7,126.4z M223.9,115.7C223.9,115.7,223.9,115.7,223.9,115.7
	c0.1,0.4,0.3,0.8,0.5,1.3c-0.1-0.1,1,0.6,1.1,1c0.2-0.1,0.3-0.2,0.5-0.3c0.6-0.3,2.2,0.2,2.5,0.1c0,0,0,0,0,0
	c0.4,0.2,0.9,0.5,1.4,0.7c0,0,0,0,0,0c-0.4,1.6,1.2,1.2,2.1,0.8c0.2,0.1,0.4,0.1,0.5,0.2c-0.2,0.2-0.6,0.5-0.7,1
	c-0.4,1.4,0.3,2.2-0.2,2.9c-0.2,0.2-0.3,0.3-0.4,0.4c-0.5-0.2-0.9-0.4-1.3-0.6c-2.7-1.9-4.9-4.2-7.4-5.6c-0.1-0.1-0.5-0.2-0.9-0.4
	c0.2-0.2,0.3-0.4,0-0.7c-0.2-0.1-0.4,0.1-0.5,0.3c0,0.1-0.1,0.1-0.1,0.2c-1.2-0.6-2.8-1.4-2.9-1.7
	C218,114.1,222.2,115.5,223.9,115.7z M229.4,105.3C229.8,104.7,228.9,106.1,229.4,105.3L229.4,105.3z M212.6,23.6
	C211.9,24.3,213.9,22.4,212.6,23.6L212.6,23.6z M205.6,16.8c0.4-0.1,0.9,0.8,0.2,0.7C205.5,17.5,205.5,17,205.6,16.8
	C205.5,16.8,205.5,16.8,205.6,16.8z M197.7,10.7c0.5,0.2,1,0.3,1.1,0.9c0,0.3-0.6,0.8-1.1,1.2V10.7z M197.7,129.6
	c0.3,0,0.5,0.1,0.7,0.2c0.5,0.4,0.7,1.1,1,1.6c0,0.5,0.1,1.1-0.4,1.2c-1.1,0.2-0.8-1.1-1.3-1.8V129.6z M197.7,222.4
	c0.3,0.1,0.6,0.3,0.9,0.4c-0.3,0.2-0.6,0.5-0.9,0.7V222.4z M229.3,7.6h-1.1c1-0.7,3.1-2.3,3.3-2.2c0.8,0.5-1,1.2-1,1.1
	C230.2,6.7,229.8,7.1,229.3,7.6z M225.8,192.6c0.3,0.4-0.1,1-0.3,1c-0.1,0-0.3,0-0.3-0.1c-0.3,0.3-1,0.5-0.8-0.2
	c0.1-0.3,0.6-0.2,0.7-0.2C225.1,192.6,225.5,192.1,225.8,192.6z M217,238.1c-0.7-0.4-1.3,0.3-0.9,0.9
	C216.5,239.6,218,238.6,217,238.1z M216.3,238.5c0.1-0.3,0.6-0.2,0.7-0.2C217.6,238.5,216,239.2,216.3,238.5z M216.8,240.2
	c-0.1-0.4,0.4-0.4,0.7-0.2C218,240.4,216.9,240.8,216.8,240.2z M218.5,200.6c-0.9-0.4-1.6,0.8-0.9,1.3
	C217.9,202.1,219.7,201.1,218.5,200.6z M218.3,200.9c0,0,0.4,0.1,0.3,0.2C218.3,202.2,217.2,200.6,218.3,200.9z M234.2,218.1
	c-0.4-0.8,0.7-1.7,1.4-1.1C236.6,217.7,234.8,219.2,234.2,218.1z M229.6,206.1c-0.3-0.4,0-1,0.8-0.8
	C231.4,205.6,230,206.6,229.6,206.1z M222.3,191.5c-0.7-1-0.6-2.9,0.5-3.7c0.3-0.3,1.6-0.1,2.1-0.5c0.6-0.4,0.8-1.5,1.6-0.7
	c0.7,0.7-0.6,0.3-0.4,1.2c0.1,0.6,0.8,0.4,0.8,0.8C227.2,191.1,224.4,194.5,222.3,191.5z M221,182.4c-0.7,0-1.2-1-1.9-1
	C219.4,180.8,220.4,182,221,182.4z M219.5,187.4c0.3,0.1,0.2,0.8-0.2,0.7C218.6,187.9,219.1,187.3,219.5,187.4z M220.9,165
	c-0.1,0-0.6-0.3-0.5-0.5C220.7,163.6,221.9,164.9,220.9,165z M227.9,152.6c0.5-0.3,2.6-0.9,3.1,1.3c0.1,0.4-0.4,1.3-0.3,2
	c0.1,1,1,3.4-1.5,3.2c-0.1,0-0.9-0.5-0.9-0.5c-1.4-1.1-0.3-1.8-0.5-2.4c-0.3-0.9-2.8-2.7-1.1-3.8
	C227.1,152.2,227.6,152.8,227.9,152.6z M231.1,181.8c-0.6-0.6-0.7-1.8,0.5-2.1C233.8,179.3,232.9,183.6,231.1,181.8z M228.1,160.7
	c0.3,0.1,0.3,0.9-0.2,0.7C227.1,161.3,227.7,160.6,228.1,160.7z M226.6,157.7c0.3-0.4,0.7,0.5,0.3,0.6
	C226.5,158.4,226.7,157.7,226.6,157.7z M216.4,216.7c0.2,0.1,0.2,0.5,0.1,0.6C216.2,217.4,216,216.5,216.4,216.7z M218.5,184.1
	c-0.5-0.3-1.8,0.9-0.5,1.3C218.8,185.6,219.1,184.5,218.5,184.1z M218,185c-0.4-0.1,0.1-0.6,0.3-0.6
	C218.5,184.5,218.4,185.1,218,185z M233.9,181.1c-0.7,0.4-0.5,1.1,0,1.4C235.5,183.6,235.7,180.2,233.9,181.1z M233.8,182
	C235,181.6,234.7,182.7,233.8,182L233.8,182z M227.2,203.5c-0.9-0.3-0.2-1.2,0.3-1C228,202.8,227.6,203.6,227.2,203.5z M230.6,179.8
	c-0.8,0-0.3-1.4,0.3-1C231.3,179.1,231,179.8,230.6,179.8z M225.5,175.8c0,0-0.4,1.2-0.1,1.7C227.5,180.8,228,174,225.5,175.8z
	 M226.6,177.6c-0.7,0.3,0.3-0.7,0.2-0.7C227.2,176.7,227.4,177.2,226.6,177.6z M226.3,204.8c0.7-1.2,1.8,1,0.5,0.9
	C226.4,205.7,226.1,205.1,226.3,204.8z M222.4,171.2c-0.9-0.1-0.5,1-0.4,1C222.9,173.2,223.3,171.3,222.4,171.2z M222.7,172
	c-0.2,0.1-0.1,0-0.2-0.1C221.3,171.6,223.4,171.4,222.7,172z M234,164.8c-1.1-0.4,0.2-1.5,0.7-1C235.1,164.2,234.6,165,234,164.8z
	 M223.3,175.5c-0.4-0.4-0.7-1.5,0.3-1.7C225.4,173.2,225,177,223.3,175.5z M226.2,239.1c0.4,0.3,0.2,0.9-0.4,0.8
	C225,239.7,225.8,238.9,226.2,239.1z M224,236.1c-0.7-0.4,0.4-1.2,0.8-0.8C225.2,235.7,224.7,236.5,224,236.1z M224.3,239.6
	c-0.3-1.7-1.2-3.2-2-4.5C221.9,236.2,222.9,238.7,224.3,239.6z M223.6,238.3c-0.5-0.1-1-1.4-1-1.9
	C223.1,236.6,223.6,237.9,223.6,238.3z M225.8,232.3c-0.5-0.1-1.6-1.5-2.4-1.5c0.1,0-0.6,0.6-0.8,0.4c-0.7-0.7,0.1-0.5,0-0.8
	c-0.1-0.3-0.3-0.7-0.5-1.1c-0.2,0.8-0.8,1.6-1.5,2.3c0,0-0.6,0.9-0.2,0.7c-1.9,0.7-4.7-2.1-3.1-4c1.1-1.3,2-0.4,3.3-0.9
	c-0.1-0.2-0.1-0.4-0.1-0.6c0-0.1,0.7-1,0.6-1.5c-0.1-0.7-0.7-0.7-0.6-1.1c0.2-0.8,1.4-1,2.3-1.6c0.7-0.5,1-1.4,1.5-1.6
	c0.8-0.3,1.3,0.5,1.9,0.6c0.2,0,0.5-0.6,0.7-0.6c0.6-0.1,2.3,0.8,3.3,1.5c0,0,0.1,0,0.1,0c0.4-0.1,0.4,0.1,0.3,0.3
	c0.1,0.1,0.2,0.2,0.3,0.3c0,0.1,0.1,0.2,0.1,0.3c0.2,0,0.4,0.1,0.5,0.2c0.6,0.5,0.4,1.1,0,1.5c0,0,0,0,0,0.1
	c0.2,0.5,0.7,2.7,0.7,2.8c-0.1,0.2-0.7,0.6-0.9,0.9c-0.4,0.5-0.2,1.2-0.4,1.4c-0.5,0.6-0.3-0.5-1-0.1c-0.4,0.2-0.4,1.2-0.5,1.3
	c-0.8,0.5-1.3-0.6-1.6,1.1C227.4,231,226.3,232.4,225.8,232.3z M226.9,186.8c-0.5-0.3,0-1.3,0.6-0.7
	C226.6,185.5,228.5,187.7,226.9,186.8z M220.5,184.8c0.3-0.3,0.9,0.5,0.3,0.6C220.4,185.5,220.4,184.9,220.5,184.8z M224.7,180.4
	c-0.5-0.1-0.6-0.9-0.2-1.1C225.5,178.7,225.7,180.7,224.7,180.4z M226.8,185.1c-0.8-0.3-0.4-1.2,0.3-1.4
	C227.8,183.6,228.1,185.5,226.8,185.1z M200.8,236.6C199.6,236.8,200,235.4,200.8,236.6L200.8,236.6z M232.6,241.3
	c-1.6-2.4,3-3.4,3.1-0.6C235.7,241.5,233.8,243.1,232.6,241.3z M211.7,220.8c-0.9,0-1.8-1.2-2.2-2.2c-0.4,0.6-1.3,1-1.8,1.6
	c0-0.7,1.1-1.5,1.7-1.9c-0.1-0.4-0.2-0.7-0.1-0.8c0.3-0.6,1.5-0.8,2-0.3C212.5,218.5,210.5,219.7,211.7,220.8z M214.4,204.5
	c-2.3,1.3-2.3-2-3.7-3.9c0.7-0.4,0.9,0.9,1.3,0.9c0.5,0,0.8-0.9,1.6-0.8C215.6,200.8,215.2,204.1,214.4,204.5z M200.7,230.3
	c-0.9-0.5,0-1.5,0.4-1.2C201.5,229.4,201.4,230.7,200.7,230.3z M209.8,197.8c0,0-0.1,0.1-0.2,0.1C208.8,197,211,198.2,209.8,197.8z
	 M213.9,123.4c0.3,0.1-0.1,0.8-0.5,0.6C213,123.9,213.7,123.3,213.9,123.4z M210.9,235.1c-0.1,0-0.5-0.2-0.4-0.4
	C210.6,234.2,211.5,235,210.9,235.1z M227,123.4c0.1,0.8-0.1,1.5-0.7,2.2C226.2,124.8,226.3,124,227,123.4z M218.1,123.4
	c0.3,0.2,0.1,0.8-0.5,0.6C217,123.8,217.8,123.1,218.1,123.4z M220.1,120.3c0.9,0.5-0.2,2.7-1,1.1
	C219.1,121.5,219.1,119.7,220.1,120.3z M210.4,176.4C209.9,175.5,211.2,175.8,210.4,176.4L210.4,176.4z M214.2,205.3
	c-0.5-0.4-2,0.7-0.9,1.3C214,207,214.7,205.7,214.2,205.3z M213.6,206.4c-0.5,0.1-0.4-1,0.1-0.9
	C214.2,205.7,213.3,206.4,213.6,206.4z M233.4,236.9c-1.4-1.4,0.9-3,1.9-2C236.4,235.9,235,238.4,233.4,236.9z M213.8,216.3
	c-0.6-0.2-0.4-0.8,0-0.8C214.2,215.4,214.5,216.5,213.8,216.3z M209.5,122.6c-0.3,0.2-0.6-0.7-0.1-0.6
	C209.6,122.1,209.6,122.5,209.5,122.6z M218.9,241.4c0.2-0.9,1,1,0.1,0.6C218.8,241.8,219.4,241.3,218.9,241.4z M210.9,122.6
	c-0.1,0-0.7-0.5-1-0.7c-0.7-0.7-0.5-2.4,0.2-2.9C212.5,117.4,214.4,122.8,210.9,122.6z M213.5,149.7c0.2-0.7,1.5,1.1,0.4,0.4
	C213.9,150,213.5,149.9,213.5,149.7z M214.2,176.8c0.1,0,0.6,0,0.7-0.2C215.9,175,212,176.1,214.2,176.8z M214.3,175.9
	C214.8,176.8,213.4,176.4,214.3,175.9L214.3,175.9z M223.5,132.7c-0.1,0-0.6-0.3-0.5-0.5C223.3,131.3,224.5,132.6,223.5,132.7z
	 M215.6,153.6c0.1-0.4,1.4-1,1.5-1.8c0.1-0.5-0.7-0.5-0.9-0.9c-0.1-0.5,0.8-1.7-0.5-1.7c0.9-0.3,0.7,0.6,1.2,0.4
	c0.2-0.1,0.4-0.8,0.2-0.9c0.2,0,0.6,0.2,1.1,0c0.4-0.2,0.3-0.7,0.6-0.7c0.8-0.1,2.1,0.6,2.9,1.4c0.7,0.4,1.4,0.9,1.3,1.4
	c-0.1,0.3-0.3,0.3-0.6,0.2c0.1,0.7,0.1,1.4,0.4,1.8c0.2,0.3,1.5,0.8,1.5,1.2c0,0.6-1.3,0.5-1.9,1c-0.6,0.4-0.8,1.5-1.8,1.9
	c-1.6,0.8-3.8,0-4.6-1.5C216.1,155.4,215.7,153.3,215.6,153.6z M235.4,165.1c-0.1,0.3-0.2,0.9,0.5,1.3c0.5,0.3,1,0.4,1.5-0.2
	C238.3,165.1,236,163.7,235.4,165.1z M235.8,165.4C237,165.5,236.5,167.1,235.8,165.4L235.8,165.4z M239.9,243.6
	c1.7-0.4,1.6,3.4-0.2,2.3C238.8,245.4,238.8,243.9,239.9,243.6z M229.7,187.5c-0.6-0.6,4-0.8,3.9-0.3
	C233.4,187.9,230,187.8,229.7,187.5z M227.7,127.5c0.3-0.2,1,0.6,0.3,0.6C227.5,128.1,227.8,127.4,227.7,127.5z M221.2,222.2
	c-0.3,0.2-0.4,0.1-0.6-0.1C218.9,221.1,222.9,221,221.2,222.2z M225.3,162.2c-0.6-0.3-0.5-1.3,0.3-1.4
	C226.4,160.8,226.5,162.9,225.3,162.2z M219.9,200.2c-0.7,0.3-0.5,0.8-0.2,1.1C221,202.7,221.3,199.6,219.9,200.2z M220.5,201.3
	c-0.1,0.1-0.4-0.1-0.5-0.1C219.4,200.6,221,200.6,220.5,201.3z M229.7,170.5c-0.1-0.1-0.7,0-0.3-0.6
	C230.2,168.3,231.3,171.5,229.7,170.5z M235.9,151.1c0.2-1,0.6-2,1.1-2.6c0.3-0.3,0.3,0.2,0.8,0c0.5-0.2,0.4-0.9,0.7-1
	c0.3-0.1,0.8,0.2,1.3,0.1c0.8-0.1,1.7-1,2.3-1c0.7-0.1,1.3,0.6,2.2,0.8c0.6,0.1,1.2-0.2,1.6,0c0.1,0,2.6,1.9,2.8,2.3
	c0.2,0.5-0.3,1-0.2,1.5c0.1,0.2,0.7,0.6,0.7,1c0,0.2-0.6,0.6-0.7,1c-0.1,0.8,1,1.6,0.5,2.5c-0.4,0.8-1.7,0.4-2.4,1.1
	c-0.5,0.5,0,1.2-0.6,1.5c-0.8,0.4-0.7-0.7-1.8-0.4c-0.5,0.1-1,0.9-1.3,0.9c-0.9,0.1-2.7-1.6-3.3,0.2c-1.2-2.3-2.8-3.2-3.5-4.7
	c-0.3-0.6-0.4-1.5-0.3-2.3c-0.1,0-0.3,0-0.5,0c-0.4-0.1-0.6-0.5-0.4-0.8C235.3,150.5,235.7,150.7,235.9,151.1z M230,242.1
	c-0.8-3.3,3.8-0.8,1.7,0.5c-0.5,0.3-1.1,0-1.5-0.6C230.2,242,230,242.1,230,242.1z M211.9,213.5c0.6,0.4,0.1,1.3-0.6,1.1
	C210.2,214.3,211.5,213.2,211.9,213.5z M213.7,195.1c-1.5-0.7,0.1-2.7,0.9-1.7C215.2,194.1,214.7,195.5,213.7,195.1z M232.5,217.7
	c-0.1,0.8-1.2,1.7-2.1,0.9C227.9,216.6,232.6,215.3,232.5,217.7z M229.1,166c0,0.1-0.4,2-0.3,1.7c-0.5,0.9-2.1,1.3-2.8,1.5
	c-1.4,0.3-1.6,0.4-2.6-1c-0.6-0.8-0.9-1.7-0.8-2C222.8,163.7,228.4,161.2,229.1,166z M211,205.7c0.6-0.4,0.8,0.6,0,0.7
	C211.2,206.3,211.2,205.6,211,205.7z M230.3,177.8C229.9,176.7,231.3,176.6,230.3,177.8L230.3,177.8z M216.6,147.6
	c0,0-0.3,0.2-0.3,0.2C215.4,148,216.9,146.8,216.6,147.6z M217.1,148.6C217,148.6,217,148.6,217.1,148.6
	C217,148.6,217,148.6,217.1,148.6z M234.8,173c-1-1.3-0.7-2.6,0.2-3.3c1.8-1.5,6,0.1,4.5,3.2C238.7,174.7,235.9,174.4,234.8,173z
	 M230.3,297.8c0,0,0.2,1.1,0.1,1.3c-1.1,2.2-3.7,0-3.5-1.7h3.6C230.6,297.7,230.3,297.9,230.3,297.8z M241.9,297.4
	c0.2,0.3-0.4,0.7-0.7,0.5c-0.1-0.1-0.2-0.3-0.1-0.5H241.9z M210.9,299.7c-0.3,0-4.1,0.2-4.1-0.6
	C206.7,298.6,210.3,298.8,210.9,299.7z M205.8,297.4h0.6C205.8,298.6,204.8,298.4,205.8,297.4z"/>
</svg>
