<?xml version="1.0" encoding="utf-8"?>
<!-- Generator: Adobe Illustrator 18.0.0, SVG Export Plug-In . SVG Version: 6.00 Build 0)  -->
<!DOCTYPE svg PUBLIC "-//W3C//DTD SVG 1.1//EN" "http://www.w3.org/Graphics/SVG/1.1/DTD/svg11.dtd">
<svg version="1.1" id="Layer_1" xmlns="http://www.w3.org/2000/svg" xmlns:xlink="http://www.w3.org/1999/xlink" x="0px" y="0px"
	 width="300px" height="300px" viewBox="0 0 300 300" style="enable-background:new 0 0 300 300;" xml:space="preserve">
<g>
	<path d="M299.8,91.1L299.8,91.1c-0.1-0.1-0.1-0.1-0.2,0l0,0c-0.1,0.1-0.2,0.2-0.2,0.2c0,0.1,0,0.3,0,0.4c0.1,0.1,0.2,0.2,0.2,0.2
		c0.1,0,0.1,0,0.2,0c0.1-0.1,0.2-0.1,0.2-0.2c0-0.2,0-0.3,0-0.5C299.9,91.3,299.9,91.2,299.8,91.1z"/>
	<polygon points="266.8,104.9 266.8,104.9 266.8,104.9 	"/>
	<polygon points="263.8,72.8 263.8,72.8 263.8,72.8 	"/>
	<polygon points="260.4,70.5 260.4,70.5 260.4,70.5 	"/>
	<path d="M138.7,222.9C138.7,222.9,138.7,222.9,138.7,222.9C138.7,223,138.7,223,138.7,222.9L138.7,222.9z"/>
	<path d="M131.6,222.2L131.6,222.2C131.6,222.2,131.6,222.2,131.6,222.2C131.6,222.2,131.6,222.2,131.6,222.2z"/>
	<polygon points="96.8,65.4 96.7,65.4 96.8,65.4 	"/>
	<polygon points="202.8,218.1 202.8,218.1 202.8,218.1 	"/>
	<polygon points="205.8,219 205.8,219 205.8,219 	"/>
	<path d="M256,200.3L256,200.3C256,200.3,256,200.3,256,200.3C256,200.3,256,200.3,256,200.3z"/>
	<polygon points="144,217 144,217 144,217 	"/>
	<polygon points="149.2,220.2 149.2,220.2 149.2,220.2 	"/>
	<path d="M166.6,223.4C166.6,223.4,166.6,223.4,166.6,223.4C166.6,223.4,166.6,223.4,166.6,223.4L166.6,223.4z"/>
	<polygon points="165,222 165,222 165,222 	"/>
	<polygon points="202.4,214.2 202.4,214.2 202.4,214.2 	"/>
	<polygon points="143.2,55.1 143.2,55.1 143.2,55.1 	"/>
	<polygon points="40.2,165 40.2,165 40.2,165 	"/>
	<polygon points="273.9,116.8 273.9,116.8 273.9,116.8 	"/>
	<polygon points="127.7,71.3 127.7,71.3 127.7,71.3 	"/>
	<polygon points="126.1,72.3 126.1,72.3 126.1,72.3 	"/>
	<polygon points="252.8,155 252.8,155 252.8,155 	"/>
	<path d="M253.7,156.4C253.7,156.4,253.7,156.4,253.7,156.4C253.7,156.4,253.7,156.4,253.7,156.4L253.7,156.4z"/>
	<path d="M220.7,213L220.7,213C220.7,213.1,220.7,213.1,220.7,213C220.7,213,220.7,213,220.7,213z"/>
	<path d="M166.3,49.4L166.3,49.4C166.3,49.4,166.3,49.4,166.3,49.4L166.3,49.4z"/>
	<path d="M160,50.9c0.2,0.1,0.1,0.3,0.2,0.5c0,0.1,0,0.3,0,0.4c0.1,0,0.1,0,0.2,0c0.1,0.1,0.2,0.2,0.2,0.2c0,0.1,0,0.1,0,0.2
		c0.2,0,0.4,0,0.4,0.2c0.1,0,0.2,0.1,0.3,0.1c0,0.1,0.1,0.3,0.2,0.4l0,0c0,0.1,0.1,0.2,0.3,0.2l0,0c0.4,0.3,0.9,0.2,1.3,0.3l0,0
		c0.2-0.2,0.5,0,0.7-0.3c0.3-0.1,0.6-0.1,0.7-0.5c0-0.1,0-0.1,0.1-0.2c0.1-0.2,0.3-0.1,0.4-0.3l0,0c0.1-0.1,0.2-0.1,0.3-0.2l0,0
		c0.1-0.1,0.2-0.1,0.2-0.2c0.1-0.1,0.3-0.1,0.4-0.2c0.1,0,0.2-0.1,0.2-0.2c0.1,0,0.2-0.1,0.2-0.2l0,0c0.3-0.6,0.3-1.2,0-1.8
		c0-0.1-0.1-0.2-0.2-0.2c-0.3-0.5-0.1-1.2-0.6-1.6l0,0c-0.1-0.1-0.2-0.2-0.3-0.2l0,0c-0.7-0.6-1.4-1.1-2.3-0.4c0,0,0,0.1,0,0.1
		c-0.6,0-1.1,0.2-1.5,0.7c-0.3,0.1-0.6,0.1-0.7,0.6c0,0.3-0.2,0.5-0.3,0.8c0,0,0,0,0,0c-0.2,0.1-0.2,0.3-0.2,0.5
		c-0.2,0.3,0,0.7-0.2,0.9C160,50.7,160,50.8,160,50.9z"/>
	<path d="M265.7,152.7L265.7,152.7C265.7,152.7,265.7,152.7,265.7,152.7L265.7,152.7z"/>
	<polygon points="273.4,152.9 273.4,152.9 273.4,152.9 	"/>
	<polygon points="255.8,204.7 255.8,204.7 255.8,204.7 	"/>
	<path d="M256.7,204c0-0.1,0-0.1,0-0.2c0.2-0.4,0.2-0.8,0-1.1v0c-0.1-0.1-0.1-0.3-0.2-0.5c0,0,0,0,0,0l0,0c0,0,0,0,0,0
		c-0.1-0.1-0.1-0.2-0.2-0.2l0,0c-0.1-0.1-0.2-0.2-0.2-0.2l0,0c-0.3-0.2-0.6-0.2-0.9,0c-0.1,0-0.1,0-0.2,0c-0.1,0.1-0.3,0.1-0.5,0.2
		c-0.1,0-0.1,0-0.2,0c-0.1,0.1-0.2,0.1-0.2,0.2l0,0c-0.1,0.1-0.1,0.3-0.2,0.5l0,0c-0.1,0.6-0.4,1.3,0.2,1.8v0
		c0.1,0.1,0.3,0.1,0.5,0.2l0,0c0.5,0.2,0.9,0.2,1.4,0c0.2-0.2,0.5-0.3,0.7-0.5l0,0C256.6,204.1,256.7,204.1,256.7,204z"/>
	<polygon points="164.1,56.3 164.1,56.2 164.1,56.2 	"/>
	<polygon points="97,64.6 97,64.6 97,64.6 	"/>
	<polygon points="145.4,235.1 145.4,235.1 145.4,235.1 	"/>
	<polygon points="94.9,64.8 94.9,64.8 94.9,64.8 	"/>
	<polygon points="146.8,235.1 146.8,235.1 146.8,235.1 	"/>
	<polygon points="147.2,235.3 147.2,235.3 147.3,235.3 	"/>
	<path d="M147.7,236.4c-0.2-0.2,0-0.5-0.2-0.7l0,0c-0.1-0.1-0.1-0.3-0.2-0.5c-0.1-0.1-0.3-0.1-0.4-0.2c-0.5-0.2-0.9-0.2-1.4,0
		c-0.1,0.1-0.2,0.1-0.2,0.2l0,0c-0.1,0.1-0.1,0.2-0.2,0.3c0,0.1,0,0.1,0,0.2c-0.1,0.4-0.2,0.8,0,1.1l0,0c0.1,0.1,0.1,0.3,0.2,0.5
		l0,0c0.1,0.1,0.1,0.2,0.2,0.2c0.1,0.1,0.2,0.2,0.3,0.2l0.1,0l0.1,0c0.1,0.1,0.3,0.1,0.5,0c0.1,0,0.3,0,0.4,0
		c0.1-0.1,0.2-0.1,0.3-0.2l0,0c0.1-0.2,0.3-0.1,0.4-0.2c0.1-0.1,0.1-0.3,0.2-0.5l0,0C147.8,236.7,147.8,236.6,147.7,236.4z"/>
	<path d="M87.6,243.8c-0.2-0.2,0-0.5-0.2-0.7l0,0c-0.1-0.1-0.2-0.1-0.2-0.2l0,0c-0.1-0.1-0.2-0.1-0.2-0.2c-0.1-0.2-0.3-0.2-0.5-0.2
		c-0.2-0.2-0.5-0.2-0.7,0l0,0c-0.6,0.4-0.7,1-0.7,1.6c0,0.1,0,0.1,0,0.2c0.1,0.1,0.1,0.3,0.2,0.5c0,0.1,0,0.1,0,0.2
		c0.1,0.1,0.2,0.2,0.2,0.2l0.1,0l0.1,0c0.3,0.2,0.6,0.2,0.9,0c0.1-0.1,0.3-0.1,0.5-0.2l0,0c0.1-0.1,0.2-0.1,0.2-0.2
		c0.1,0,0.1,0,0.2,0c0.2-0.2,0.2-0.5,0-0.7C87.6,243.9,87.6,243.9,87.6,243.8z"/>
	<path d="M264.9,139.9C264.9,139.9,264.9,139.9,264.9,139.9C264.9,139.9,264.9,139.9,264.9,139.9L264.9,139.9z"/>
	<path d="M2.9,201.9c-0.1-0.1-0.1-0.2-0.2-0.2c0-0.1,0-0.2,0-0.2c-0.1-0.2-0.1-0.3,0-0.5c0-0.1,0-0.2,0-0.2c0,0,0,0-0.1-0.1
		c0-0.1,0-0.1,0.1-0.2c0-0.1,0-0.2,0-0.2c-0.1-0.1-0.2-0.1-0.2-0.2l0,0c-0.1,0-0.2,0-0.2,0c-0.1,0.1-0.2,0.1-0.3,0.1
		c-0.1,0-0.2,0.1-0.3,0.3c0,0.1,0,0.2,0,0.4c0,0.1,0,0.1,0.1,0.2c0,0.1,0,0.1,0,0.2c0,0,0,0.1,0,0.1c0,0.1-0.1,0.1-0.1,0.1
		c0,0-0.1,0.1-0.2,0.1c-0.1,0-0.1-0.1-0.1-0.1c0-0.1,0-0.2-0.1-0.2c0-0.1-0.1-0.2-0.1-0.2c-0.1-0.1-0.1-0.1-0.2-0.2
		c-0.1,0-0.2-0.1-0.3-0.1c0,0-0.1,0-0.1,0c0,0-0.1,0-0.1,0c-0.1,0-0.2,0.1-0.3,0.1C0,200.8,0,200.9,0,201c0,0.2,0.1,0.3,0.2,0.4
		c0,0.1,0,0.2,0,0.2c0.1,0.1,0.2,0.2,0.2,0.2c0.2,0.2,0.1,0.4,0.1,0.7c0.1,0.2,0.2,0.3,0.4,0.4c0.1,0.1,0.2,0.3,0.2,0.5
		c0,0.1,0.1,0.3,0.2,0.4c0.2,0.1,0.4,0,0.5,0.2c0.1,0.1,0.2,0.2,0.2,0.2c0,0,0,0-0.1,0.1c0,0.1,0,0.1,0.1,0.2
		c0.1-0.1,0.2-0.2,0.2-0.2c0.2-0.4,0.5-0.7,0.2-1.1c0-0.2,0-0.3,0-0.5c0.1-0.1,0.1-0.2,0.2-0.2C2.8,202.2,3.1,202.1,2.9,201.9
		L2.9,201.9z"/>
	<polygon points="260.4,150.9 260.4,150.9 260.4,150.9 	"/>
	<polygon points="257.9,151.3 257.9,151.3 257.9,151.3 	"/>
	<path d="M66.5,97.2c0,0.1,0.1,0.1,0.1,0.2c0,0.5,0.1,1,0.2,1.6c0.2,0.1,0.3,0.3,0.6,0.3c0,0,0,0,0,0c0,0.2,0.1,0.3,0.2,0.4
		c0.1,0.1,0.2,0.1,0.3,0.2c0,0,0,0,0.1,0c0.2,0.2,0.6,0.3,0.9,0.3c0.3,0.2,0.1,0.7,0.5,1c0,0.1,0,0.2,0.1,0.4
		c0.1,0.1,0.3,0.2,0.4,0.2c0,0.1,0,0.1,0,0.2c0.7,0.1,1.2-0.1,1.8-0.4c0.7-0.4,0.8-0.5,0.7-1.3c-0.1-0.7-0.6-0.7-1.1-0.8
		c-0.3-0.1-0.6,0-0.9,0.2c-0.2,0.1-0.4,0.1-0.6-0.1c0.5-0.8,0.3-1.6-0.3-2.2c0,0,0-0.1,0-0.1c0-0.2,0-0.3-0.2-0.4l0,0c0,0,0,0,0,0
		c-0.6-1-1.5-0.4-2.3-0.4l-0.1,0c-0.2,0.1-0.4,0.1-0.5,0.2C66.1,96.8,66.4,97,66.5,97.2z"/>
	<path d="M66.3,96.5C66.4,96.5,66.4,96.5,66.3,96.5C66.4,96.5,66.4,96.5,66.3,96.5L66.3,96.5z"/>
	<path d="M18,142.8L18,142.8c-0.2-0.2-0.3-0.5-0.5-0.7c-0.1-0.2-0.3-0.4-0.5-0.5l0,0c-0.2-0.2-0.5,0-0.7-0.2c-0.1,0-0.1,0-0.2,0
		c-0.1,0-0.1,0.1-0.2,0.1c-0.2-0.1-0.4-0.1-0.5,0.1l0,0c-0.1,0.1-0.2,0.1-0.2,0.2l0,0c-0.1,0.1-0.2,0.2-0.2,0.2
		c-0.1,0.1-0.2,0.2-0.2,0.2l0,0c-0.2,0.2-0.2,0.5,0,0.7c0,0.1,0,0.1,0,0.2c0.1,0.1,0.1,0.2,0.2,0.2l0,0c0.1,0.1,0.2,0.2,0.2,0.2l0,0
		c0.1,0.1,0.2,0.2,0.2,0.2l0,0c0.1,0.1,0.1,0.1,0.2,0c0,0,0.1,0.1,0.1,0.1c0.1,0.1,0.2,0.1,0.3,0.2c0.3,0,0.7,0.1,1-0.1
		c0.1-0.1,0.2-0.2,0.2-0.2l0,0c0.1-0.1,0.2-0.1,0.2-0.2l0,0c0.2-0.1,0.1-0.3,0.2-0.4l0,0c0.1-0.1,0.2-0.2,0.2-0.2l0,0
		c0,0,0,0,0.1-0.1C18.1,142.9,18,142.9,18,142.8z"/>
	<polygon points="17.5,142.1 17.5,142.1 17.5,142.1 	"/>
	<polygon points="17.1,144.2 17.1,144.2 17.1,144.2 	"/>
	<polygon points="44.1,132.7 44.1,132.7 44.1,132.7 	"/>
	<polygon points="44.5,129.1 44.5,129.1 44.6,129.1 	"/>
	<polygon points="39.3,167.3 39.3,167.3 39.3,167.3 	"/>
	<polygon points="233.1,217.5 233.1,217.5 233.1,217.5 	"/>
	<polygon points="30.6,134.8 30.6,134.8 30.6,134.8 	"/>
	<path d="M30.4,134.6L30.4,134.6c0,0.1,0.1,0.2,0.2,0.2c0.5,0.3,0.8,0,1.1-0.2l0,0c0.1-0.1,0.2-0.1,0.2-0.2l0,0
		c0.5-1.1-0.2-1.5-0.9-2l0,0c-0.6-0.1-0.9,0.2-1.1,0.7c0,0.1,0,0.1,0,0.2c-0.1,0.2-0.1,0.3,0,0.4l0,0c0,0,0,0,0,0
		c0.1,0.1,0.1,0.3,0.2,0.5C30.3,134.2,30.2,134.5,30.4,134.6z"/>
	<path d="M68.4,243.1L68.4,243.1c-0.1-0.1-0.3-0.1-0.4,0c0,0.1-0.1,0.1-0.1,0.2c0,0-0.1,0-0.1,0c-0.1,0.1-0.2,0.2-0.2,0.2
		c-0.1,0.1-0.2,0.2-0.2,0.2c-0.1,0-0.1,0-0.2,0c-0.1,0.1-0.2,0.2-0.2,0.2l0,0c0,0,0,0,0,0.1c0,0,0,0,0,0.1c-0.1,0-0.1,0-0.2,0.1
		c-0.1,0.1-0.2,0.2-0.2,0.2l0,0c-0.2,0.3-0.2,0.6,0,0.9c0,0.1,0,0.1,0,0.2c0.3,0.2,0.6,0.2,0.9,0c0.1-0.1,0.2-0.2,0.2-0.2h0
		c0.2-0.2,0.5,0,0.7-0.2l0.1,0l0.1,0c0.1-0.1,0.2-0.1,0.2-0.2c0.1,0,0.1,0,0.2,0c0.2-0.5,0.2-1.1,0-1.6
		C68.7,243.2,68.5,243.2,68.4,243.1z"/>
	<polygon points="67.9,243.1 68,243.1 68,243.1 	"/>
	<polygon points="67.3,245.6 67.3,245.6 67.3,245.6 	"/>
	<polygon points="176,214.2 176,214.3 176,214.2 	"/>
	<polygon points="154.1,234.3 154.1,234.2 154.1,234.2 	"/>
	<path d="M105.2,63.3C105.2,63.3,105.2,63.3,105.2,63.3L105.2,63.3C105.2,63.3,105.2,63.3,105.2,63.3z"/>
	<polygon points="154.2,235.8 154.1,235.8 154.1,235.8 	"/>
	<polygon points="121.5,52.1 121.5,52.1 121.5,52.1 	"/>
	<path d="M121.5,53.9c0.1,0.1,0.2,0.2,0.2,0.2l0,0c0.1,0.1,0.3,0.1,0.5,0.2l0,0c0.3,0.2,0.6,0.2,0.9,0l0.1,0l0.1,0
		c0.1-0.1,0.2-0.1,0.2-0.2l0,0c0-0.1,0.1-0.1,0.1-0.2l0.1,0c0.1,0,0.1-0.1,0.2-0.1c0,0,0,0,0-0.1c0,0,0.1,0,0.1,0c0,0,0-0.1,0-0.1
		c0,0,0,0,0.1-0.1c0.1-0.1,0.1-0.2,0.2-0.3c0-0.1,0-0.1,0-0.2c0.1-0.2,0.1-0.3,0-0.5l0,0c-0.1-0.1-0.1-0.3-0.2-0.4
		c-0.1-0.1-0.3-0.1-0.4-0.2c-0.1-0.1-0.2-0.2-0.3-0.2c-0.1,0-0.1,0-0.2,0c-0.2-0.1-0.5-0.2-0.7,0l0,0c0,0,0,0,0,0
		c-0.2,0.1-0.5,0.1-0.6,0.4c0,0,0,0,0,0c-0.1,0-0.2,0-0.3,0.1c-0.1,0.1-0.1,0.3-0.2,0.5c0,0.3,0,0.6,0,0.9
		C121.4,53.6,121.4,53.8,121.5,53.9L121.5,53.9z"/>
	<polygon points="156.1,223.9 156.1,223.9 156.1,223.9 	"/>
	<path d="M51.1,231.4C51.1,231.3,51.1,231.3,51.1,231.4c-0.2-0.2-0.2-0.2-0.3-0.3c-0.1-0.1-0.1-0.1-0.2-0.1
		c-0.1-0.1-0.2-0.1-0.4-0.1c-0.1,0-0.3,0-0.4,0.1c-0.1,0-0.1,0-0.2,0c-0.1,0.1-0.2,0.1-0.2,0.2l0,0c-0.1,0.1-0.1,0.3-0.2,0.5l0,0
		c-0.1,0.2-0.4,0.4-0.2,0.7l0,0c0.1,0.1,0.1,0.3,0.2,0.5l0,0c0.1,0.1,0.1,0.2,0.2,0.3c0,0,0,0,0,0.1c0,0.1,0,0.1,0.1,0.2l0,0
		c0.1,0.1,0.2,0.2,0.2,0.2c0.1,0,0.1,0,0.2,0c0.3,0.2,0.6,0.2,0.9,0l0,0c0.1-0.1,0.2-0.1,0.2-0.2l0,0c0.1-0.1,0.1-0.2,0.1-0.4
		c0,0-0.1-0.1-0.1-0.1c0.1,0.1,0.2,0.1,0.2,0c0-0.1,0-0.1,0-0.2c0,0,0-0.1,0-0.1c0,0,0,0,0,0c0.1-0.2,0.1-0.4,0.1-0.5
		c0-0.1,0-0.2-0.1-0.3C51.2,231.5,51.2,231.4,51.1,231.4z"/>
	<path d="M41.4,234.8c-0.1-0.1-0.1-0.2-0.2-0.2c-0.1-0.2-0.3-0.2-0.5-0.2c-0.1-0.1-0.2-0.2-0.2-0.2c-0.2-0.3-0.4-0.2-0.7-0.2
		c-0.1,0.1-0.2,0.1-0.2,0.2c-0.1,0.2-0.2,0.5-0.2,0.7c-0.1,0.3-0.2,0.4-0.5,0.4c0,0,0,0,0,0.1c0,0.1,0,0.1,0,0.2c0.7,0,1.4,0,2,0
		C41.5,235.6,41.5,235.2,41.4,234.8L41.4,234.8z"/>
	<polygon points="90.6,259.1 90.6,259.1 90.6,259.1 	"/>
	<polygon points="89.5,257.7 89.5,257.7 89.5,257.7 	"/>
	<path d="M91.1,257.5c-0.1-0.1-0.2-0.2-0.2-0.2l0,0c-0.1-0.1-0.2-0.2-0.2-0.2c-0.1,0-0.3,0-0.4,0c-0.2,0.1-0.3,0.3-0.5,0.5
		c-0.1,0.1-0.2,0.2-0.2,0.2c-0.1,0.3-0.5,0.5-0.2,0.9c0,0.1,0,0.1,0,0.2c0.1,0.1,0.2,0.2,0.2,0.2h0.1l0.1,0c0.3,0.2,0.6,0.2,0.9,0
		c0.1-0.1,0.2-0.2,0.2-0.2c0-0.1,0-0.1,0-0.2c0.1-0.1,0.1-0.3,0.2-0.5c0-0.1,0-0.2,0-0.2C91.2,257.8,91.2,257.7,91.1,257.5
		L91.1,257.5z"/>
	<path d="M88.8,87c0.1,0.2,0.2,0.5,0.2,0.8l0.1,0.1c0,0,0.1,0,0.1,0l0,0c0,0,0,0,0,0c0,0,0,0,0,0c0,0,0,0.1,0,0.1l0,0
		c0.1,0.1,0.1,0.1,0.2,0c0,0,0,0,0,0c0,0,0,0.1,0,0.1c0.2,0.3,0.4,0.2,0.7,0.1c0.2,0.1,0.4,0.1,0.5,0.2l0,0c0.5,0.4,1,0.3,1.5,0.2
		c0.3-0.2,0.5-0.6,0.7-0.9c0-0.2,0-0.4,0-0.6c-0.2-0.4-0.5-0.6-0.8-0.7c0.2-0.3,0.2-0.7,0.4-1.1c0.1,0,0.1,0,0.2,0
		c0.1-0.6,0-1.2-0.3-1.7c-0.5-0.1-0.7,0.1-0.9,0.4c-0.1,0.1-0.1,0.2-0.2,0.3c0,0,0,0,0,0c0,0,0-0.1,0-0.1l0,0
		c0.1-0.1,0.1-0.1,0.2-0.2c0.1-0.2,0.1-0.3-0.2-0.5c-0.2-0.1-0.3-0.3-0.5-0.4c-0.2,0-0.4,0-0.6,0c-0.1,0.1-0.2,0.1-0.3,0.2
		c0,0.3,0,0.5,0,0.8c-0.2,0.1-0.3,0.3-0.5,0.1c-0.1,0-0.2,0-0.2,0c-0.4-0.1-0.5,0.1-0.5,0.5c0,0.1,0,0.2,0,0.2
		c0.3,0.3,0.3,0.6,0.1,0.9C88.4,86.1,88.6,86.5,88.8,87z"/>
	<path d="M134.2,218.1c-0.1,0.2-0.1,0.5,0,0.7l0,0c0.1,0.1,0.2,0.1,0.2,0.2c0.1,0.1,0.2,0.2,0.2,0.2c0.1,0.1,0.3,0.1,0.5,0.2
		c0.1,0,0.3,0,0.4,0c0.2-0.3,0.8-0.5,0.5-1.1l0,0c-0.1-0.1-0.1-0.3-0.2-0.5h0c0,0,0,0,0,0l0,0c-0.1-0.1-0.2-0.1-0.2-0.2l0,0
		c-0.1-0.1-0.2-0.1-0.2-0.2c-0.2,0-0.3,0-0.5,0c-0.1,0.1-0.3,0.1-0.5,0.2c-0.1,0.1-0.2,0.2-0.2,0.2C134.2,218,134.2,218,134.2,218.1
		z"/>
	<polygon points="134.4,217.7 134.4,217.7 134.4,217.7 	"/>
	<polygon points="124,52.1 124,52.1 124,52.1 	"/>
	<polygon points="25.5,182.9 25.5,182.9 25.6,182.9 	"/>
	<path d="M25.6,184c0.1-0.1,0.1-0.3,0.2-0.5c0.1-0.2,0.1-0.3,0-0.5l0,0c-0.1-0.1-0.2-0.2-0.2-0.2c-0.1-0.1-0.3-0.1-0.5-0.2
		c-0.1,0-0.1,0-0.2,0c-0.1-0.1-0.2-0.1-0.2,0l0,0c-0.1,0.1-0.3,0.1-0.5,0.2l0,0c-0.1,0.1-0.3,0.1-0.5,0.2c-0.2,0.5-0.2,1,0.3,1.2
		C24.6,184.6,25.1,184.6,25.6,184z"/>
	<polygon points="23.7,183.1 23.7,183.1 23.7,183.1 	"/>
	<polygon points="166.6,246.5 166.6,246.5 166.6,246.5 	"/>
	<polygon points="164.8,246.5 164.8,246.5 164.8,246.5 	"/>
	<polygon points="166.2,245.2 166.2,245.2 166.2,245.2 	"/>
	<path d="M166.6,245.8c0-0.1,0-0.1,0-0.2c-0.1-0.2-0.3-0.4-0.5-0.5c-0.8-0.1-1.4,0-1.6,0.9c0,0.1,0,0.1,0,0.2
		c0.1,0.1,0.1,0.2,0.2,0.2c0.2,0.2,0.5,0,0.7,0.2h0c0.4,0.2,0.8,0.2,1.1-0.2C166.8,246.3,166.8,246.1,166.6,245.8z"/>
	<polygon points="173.5,254.8 173.5,254.8 173.5,254.8 	"/>
	<path d="M175.1,253.6c-0.1-0.1-0.2-0.1-0.2-0.2c-0.5,0.1-0.9-0.1-1.4-0.2c-0.1,0.1-0.2,0.1-0.2,0.2l0,0c-0.2,0.3-0.2,0.6,0,0.9l0,0
		c0.1,0.1,0.1,0.3,0.2,0.5c0.1,0.1,0.3,0.1,0.5,0.2c0.1,0,0.3,0,0.4,0c0.1-0.1,0.2-0.1,0.2-0.2l0,0c0.1-0.1,0.1-0.2,0.2-0.2l0,0
		c0.1-0.1,0.1-0.2,0.2-0.2l0,0C175.2,254.1,175.3,253.8,175.1,253.6L175.1,253.6z"/>
	<polygon points="20.1,162 20.1,162.1 20.1,162.1 	"/>
	<path d="M21.6,161.6L21.6,161.6c-0.2-0.2,0-0.5-0.2-0.7c0-0.1,0-0.1,0-0.2c-0.4-0.2-0.7-0.5-1.1-0.1c-0.5,0.4-0.4,0.9-0.2,1.5
		c0.1,0.1,0.1,0.2,0.2,0.2l0,0c0.1,0.1,0.2,0.1,0.2,0.2l0,0c0.2,0.1,0.5,0.2,0.7,0l0,0c0.1-0.1,0.2-0.2,0.2-0.2
		c0.1-0.1,0.2-0.2,0.2-0.2l0,0C21.8,161.9,21.8,161.7,21.6,161.6z"/>
	<polygon points="76.2,235.8 76.2,235.8 76.2,235.8 	"/>
	<path d="M77.3,235.1L77.3,235.1c-0.1-0.1-0.3-0.1-0.5,0c-0.1,0-0.1,0-0.2,0c-0.1,0.1-0.2,0.1-0.2,0.2c-0.1,0.1-0.1,0.3-0.2,0.5
		c-0.2,0.4-0.2,0.8,0,1.1l0,0c0.4,0.2,0.8,0.2,1.1,0l0,0c0.1-0.1,0.2-0.2,0.2-0.2l0,0c0.2-0.2,0-0.5,0.2-0.7l0,0
		C78.1,235.4,77.8,235.2,77.3,235.1z"/>
	<polygon points="76.4,235.3 76.4,235.3 76.4,235.3 	"/>
	<path d="M135.1,225.2c0.2,0.1,0.3,0.1,0.5,0l0,0c0.1,0,0.1-0.1,0.1-0.2c0.1,0.1,0.2,0,0.4,0c0.1,0,0.1,0,0.2,0
		c0.1-0.1,0.2-0.1,0.3-0.2l0,0c0.1-0.1,0.3-0.1,0.4-0.2c0.1-0.1,0.1-0.3,0.2-0.5c0-0.1,0-0.3,0-0.4c-0.1-0.1-0.1-0.1-0.2,0
		c0,0,0,0,0,0c0.3-0.8-0.4-0.9-0.9-1.1c-0.2-0.2-0.5-0.1-0.7-0.2c-0.1,0-0.1,0-0.2,0c-0.2-0.2-0.5-0.2-0.7,0l0,0
		c-0.1,0-0.1,0.1-0.1,0.1c-0.1,0-0.1,0-0.2,0l0,0c-0.1,0.1-0.1,0.2-0.2,0.2l0,0c-0.1,0.5-0.5,1-0.2,1.6l0,0c0.1,0.1,0.1,0.1,0.2,0.1
		c0,0,0,0.1,0,0.1c0.1,0,0.2,0.1,0.2,0.2c0,0,0.1,0,0.1,0c0,0.1,0,0.2,0.1,0.2c0.1,0,0.2,0,0.2,0C134.8,225.1,135,225.1,135.1,225.2
		L135.1,225.2z"/>
	<polygon points="61.1,225.5 61.1,225.5 61.1,225.5 	"/>
	<path d="M62.7,223.9c-0.1-0.2-0.3-0.1-0.5-0.2l0,0c-0.2-0.1-0.3-0.1-0.5,0l0,0c-0.1,0.1-0.3,0.1-0.5,0.2c-0.3,0.2-0.5,0.4-0.6,0.7
		c0,0.1,0,0.3,0,0.4c0.1,0.2,0.3,0.3,0.5,0.5c0.2,0.1,0.3,0.1,0.5,0c0.1-0.1,0.3-0.1,0.5-0.2l0,0c0.3-0.2,0.5-0.4,0.7-0.7l0,0
		c0.1-0.2,0.1-0.3,0-0.5C62.7,224,62.7,223.9,62.7,223.9z"/>
	<polygon points="135.8,235.1 135.8,235.1 135.8,235.1 	"/>
	<polygon points="237.3,231.7 237.3,231.7 237.3,231.7 	"/>
	<path d="M237.5,231L237.5,231c-0.1-0.1-0.1-0.2-0.2-0.2l0,0c-0.1-0.1-0.2-0.2-0.2-0.2c-0.1,0-0.1,0-0.2,0c-0.1-0.1-0.2-0.1-0.2-0.2
		c-0.1-0.1-0.3-0.1-0.5-0.1c-0.2,0-0.3,0-0.5,0.1l0,0c-0.1,0.1-0.2,0.2-0.2,0.2l0,0c-0.2,0.2-0.5,0.3-0.5,0.6
		c0.4,0.6,1.3,0.2,1.6,0.8c0.1,0.1,0.1,0.1,0.2,0l0,0c0.1-0.1,0.3-0.1,0.5-0.2c0.1-0.1,0.2-0.2,0.2-0.2l0,0
		C237.6,231.3,237.6,231.2,237.5,231z"/>
	<polygon points="236.6,230.3 236.6,230.3 236.6,230.3 	"/>
	<polygon points="236.6,231.9 236.6,231.9 236.6,231.9 	"/>
	<path d="M157.5,220.9c-0.4-0.5-1-0.4-1.5-0.2c-0.1,0.1-0.2,0.1-0.3,0.2c-0.1,0.1-0.2,0.1-0.2,0.2c0,0.1,0,0.2,0,0.4
		c-0.1,0-0.2,0.1-0.2,0.1c0,0.1,0,0.1,0,0.2c-0.1,0.4-0.2,0.7,0,1.1c0.2,0.2,0.3,0.3,0.5,0.5l0,0c0.1,0.2,0.3,0.1,0.5,0.3
		c0.1,0,0.3,0,0.4,0c0.1-0.1,0.3-0.1,0.5-0.2c0,0,0-0.1,0.1-0.1c0,0,0.1,0,0.1,0c0-0.1,0-0.1,0-0.2c0,0,0,0,0,0c0.1,0,0.3,0,0.4,0
		c0.1-0.1,0.1-0.2,0.2-0.2c0.1-0.7-0.1-1.3-0.2-2C157.7,220.9,157.6,220.9,157.5,220.9z"/>
	<path d="M155.3,222.9C155.3,222.9,155.3,222.9,155.3,222.9C155.3,222.9,155.3,222.9,155.3,222.9L155.3,222.9z"/>
	<polygon points="155.7,233.5 155.7,233.5 155.7,233.5 	"/>
	<path d="M156.6,233.3C156.6,233.3,156.6,233.3,156.6,233.3C156.6,233.3,156.6,233.3,156.6,233.3L156.6,233.3z"/>
	<polygon points="32,145.1 32,145.1 32,145.1 	"/>
	<polygon points="32.9,146.2 32.9,146.2 32.9,146.3 	"/>
	<path d="M32.9,146L32.9,146c-0.1-0.1-0.1-0.2-0.2-0.2l0,0c-0.3-0.2-0.5-0.4-0.7-0.7c-0.1-0.1-0.1-0.1-0.2-0.1c0,0,0-0.1,0-0.1
		c-0.1-0.1-0.2-0.2-0.2-0.2c-0.1-0.1-0.2-0.2-0.2-0.2c-0.3,0-0.6,0-0.9,0c-0.1,0.1-0.2,0.2-0.2,0.2c-0.1,0.5,0.1,0.9,0.2,1.4
		c0.1,0,0.1,0,0.2,0c0.1,0.1,0.2,0.2,0.3,0.2l0,0c0.1,0.1,0.3,0.1,0.5,0.2l0.1,0l0.1,0c0.5,0.1,1,0.3,1.4-0.2c0,0,0,0,0.1-0.1
		C32.9,146.1,32.9,146.1,32.9,146z"/>
	<polygon points="49.8,178.8 49.8,178.8 49.8,178.8 	"/>
	<polygon points="160.7,224.3 160.7,224.3 160.7,224.3 	"/>
	<path d="M48.9,240.3c-0.1,0.1-0.1,0.2-0.2,0.2h0c0.8,0.7,1.7,0.6,2.5,0c0-0.1,0-0.3,0-0.5c-0.3-0.3-0.7,0-0.9-0.2
		C49.8,239.9,49.3,239.9,48.9,240.3z"/>
	<path d="M252.8,231c-0.1-0.2-0.3-0.4-0.5-0.5c-0.2-0.2-0.5,0.2-0.7,0c-0.1,0-0.3,0-0.4,0c-0.6,0.4-0.4,0.9-0.2,1.4v0
		c0.1,0.1,0.1,0.1,0.2,0c0,0,0,0,0,0l0,0c0,0,0,0,0,0c0,0,0,0,0,0c-0.1,0.1-0.1,0.3,0.1,0.4c0.1,0.1,0.3,0.1,0.4,0
		c0.4-0.4,1.4-0.1,1.1-1.1C252.8,231.2,252.8,231.1,252.8,231z"/>
	<polygon points="252.4,230.5 252.4,230.5 252.4,230.5 	"/>
	<polygon points="251.7,232.4 251.7,232.4 251.7,232.4 	"/>
	<polygon points="251.2,232.4 251.2,232.4 251.2,232.4 	"/>
	<polygon points="269.5,93.4 269.5,93.4 269.5,93.4 	"/>
	<path d="M264.5,95.2c1.1,0.9,2,1,3.2,0.2c0.1,0,0.3,0,0.4-0.1c0.1-0.4,0.4-0.4,0.7-0.5c0.3-0.3-0.2-0.8,0.2-1.1
		c0.1,0,0.1,0.1,0.2,0.1c0,0,0.1-0.1,0.1-0.1c0-0.1,0-0.2,0-0.2c0.1-0.1,0.1-0.2,0.2-0.2c-0.1-1-0.9-1.3-1.6-1.9
		c0,0-0.1,0.1-0.1,0.1c0,0,0,0,0,0c-0.1-0.1-0.3-0.2-0.4-0.2l0,0c0-0.1,0-0.2,0-0.2c-0.1,0-0.2,0-0.2,0c-0.6-0.1-1.2-0.2-1.8,0.2
		l0,0c-1.4,0.7-2.1,1.9-1.3,3.7C264.2,95,264.4,95.1,264.5,95.2z"/>
	<polygon points="158.7,224.6 158.7,224.6 158.7,224.6 	"/>
	<polygon points="159.8,224.2 159.9,224.2 159.9,224.2 	"/>
	<polygon points="160.1,225.8 160.1,225.8 160.1,225.8 	"/>
	<path d="M160.3,224.9c0-0.1,0-0.1,0-0.2c-0.1-0.2-0.2-0.4-0.5-0.5c-0.2-0.2-0.4-0.2-0.7,0l0,0c-0.1,0.1-0.2,0.2-0.2,0.2l0,0
		c-0.1,0.1-0.2,0.1-0.2,0.2c-0.2,1.2,0,1.4,1.3,1.1c0.2-0.2,0-0.5,0.2-0.7l0,0c0,0,0,0,0.1-0.1C160.4,225,160.4,224.9,160.3,224.9z"
		/>
	<polygon points="37.2,166.4 37.2,166.4 37.2,166.4 	"/>
	<path d="M37.2,166.4c-0.1-0.1-0.3-0.1-0.5-0.2c-0.2-0.2,0-0.5-0.2-0.7c0,0,0,0,0,0c0-0.4,0-0.7,0-1.1c-0.1,0-0.2,0-0.4,0
		c-0.1,0.4-0.4,0.7-0.7,0.9c-0.1,0.2-0.1,0.4-0.2,0.6c0.1,0.1,0.1,0.1,0.2,0.2c0,0,0,0,0,0c0,0,0,0,0,0.1c0,0.1,0,0.1,0.1,0.2
		c0.1,0,0.2,0,0.2,0c0.1,0.1,0.2,0.1,0.2,0.2c0,0.1,0,0.1,0,0.2c0.3,0.3,0,0.7,0.2,0.9l0,0c0.1,0.1,0.2,0.2,0.2,0.2l0.1,0l0.1,0
		c0.1-0.1,0.2-0.1,0.2-0.2l0,0c0.1-0.1,0.2-0.2,0.2-0.2h0C37.3,167.2,37.3,166.8,37.2,166.4z"/>
	<path d="M213.5,214.2L213.5,214.2c-0.3-0.2-0.6-0.2-0.9,0l0,0c-0.2,0.1-0.1,0.3-0.2,0.5c0,0.1,0,0.1,0,0.2c0.2,0.2,0,0.5,0.2,0.7
		c0.1,0.1,0.1,0.2,0.2,0.2l0,0c1.1,0.2,1.3,0,1.1-1.1c-0.1-0.1-0.1-0.2-0.2-0.2l0,0C213.7,214.4,213.6,214.3,213.5,214.2z"/>
	<polygon points="212.7,215.6 212.7,215.6 212.6,215.6 	"/>
	<path d="M214,214.7L214,214.7C214,214.7,214,214.7,214,214.7L214,214.7z"/>
	<polygon points="290.6,90.2 290.6,90.2 290.6,90.2 	"/>
	<path d="M290.2,91.3c0,0.2,0.1,0.3,0.3,0.4c0.1,0,0.2,0,0.4,0c0.7,0.1,1.1-0.2,1-0.9c-0.1-0.8-0.6-0.8-1.2-0.5
		c-0.1,0.1-0.2,0.1-0.2,0.2l0,0c-0.1,0.1-0.1,0.3-0.2,0.5C290.2,91,290.2,91.2,290.2,91.3z"/>
	<polygon points="32,166.4 32,166.4 32,166.4 	"/>
	<path d="M32.6,166.9c-0.1-0.1-0.1-0.3-0.2-0.5c-0.2-0.1-0.3-0.1-0.4,0c-0.1,0.1-0.1,0.3-0.2,0.4l0,0c-0.1,0.1-0.1,0.2-0.2,0.2l0,0
		c-0.1,0.1-0.1,0.3-0.2,0.5l0,0c-0.2,0.2-0.2,0.5,0,0.7l0,0c0.1,0.1,0.1,0.2,0.2,0.2l0,0c0.1,0.1,0.1,0.1,0.2,0l0.1,0l0.1,0
		c0.2-0.1,0.4-0.3,0.5-0.5l0,0c0.1-0.1,0.2-0.2,0.2-0.3c0-0.1,0-0.3,0-0.4C32.8,167.2,32.8,167,32.6,166.9L32.6,166.9z"/>
	<polygon points="32.4,166.4 32.4,166.4 32.4,166.4 	"/>
	<polygon points="26.5,156.3 26.5,156.3 26.5,156.3 	"/>
	<path d="M26.7,157.2L26.7,157.2c0.6,0.3,1,0.1,1.4-0.5c0.2-0.2,0.2-0.5,0-0.7c0-0.1,0-0.1,0-0.2c-0.4-0.2-0.8-0.2-1.1,0
		c-0.1,0.1-0.2,0.1-0.2,0.2l0,0c-0.1,0.1-0.1,0.2-0.2,0.2C26.2,156.7,26.4,157,26.7,157.2z"/>
	<polygon points="26.9,155.9 26.9,155.9 26.9,155.9 	"/>
	<polygon points="137,224.5 136.9,224.5 136.9,224.5 	"/>
	<path d="M217.7,215.1L217.7,215.1c0.1-0.1,0.1-0.1,0.2-0.2l0,0c0.1-0.1,0.1-0.1,0.2-0.2l0,0c0.1-0.1,0.1-0.2,0.2-0.3
		c0-0.1,0-0.1,0-0.2c-0.1-0.1-0.1-0.3-0.2-0.5c-0.3-0.2-0.6-0.2-0.9,0c-0.1,0.1-0.1,0.1-0.2,0.2l0,0c-0.1,0.1-0.1,0.2-0.2,0.2
		c0,0.1,0,0.1,0,0.2c0,0,0,0,0,0.1c0,0.1,0,0.1,0.1,0.1c0,0.1,0,0.1,0,0.2c0.1,0.1,0.1,0.2,0.2,0.3l0,0
		C217.2,215.3,217.5,215.3,217.7,215.1z"/>
	<polygon points="218.1,213.8 218.1,213.8 218.1,213.8 	"/>
	<polygon points="217.2,213.8 217.2,213.8 217.2,213.8 	"/>
	<path d="M2,186.8L2,186.8c0.2,0.1,0.3,0.1,0.5,0c0-0.1,0-0.2,0-0.2c-0.1-0.7-0.6-1.3-0.2-2.1c0-0.2,0-0.3,0-0.5
		c0-0.4-0.2-0.4-0.5-0.2c-0.3,0.9-0.3,1.8,0,2.7C1.9,186.6,1.9,186.7,2,186.8z"/>
	<path d="M212,220.9C212,220.9,212,220.9,212,220.9C212,220.9,212,220.9,212,220.9L212,220.9z"/>
	<path d="M213.3,220.9L213.3,220.9c-0.2-0.3-0.5-0.5-0.9-0.2l0,0c-0.1,0.1-0.3,0.1-0.4,0.2c-0.1,0.5,0.2,0.8,0.5,1.1
		c0.1,0,0.1,0,0.2,0c0.1,0.1,0.3,0.1,0.5,0c0.1,0,0.1,0,0.2,0c0.2-0.1,0.1-0.3,0.3-0.5c0-0.1,0-0.3,0-0.4
		C213.5,221,213.4,221,213.3,220.9z"/>
	<polygon points="116,251.6 116,251.6 116,251.6 	"/>
	<path d="M117,250.6c-0.1,0.2-0.3,0.3-0.5,0.5l0,0c-0.1,0.1-0.2,0.2-0.2,0.2l0,0c-0.1,0.1-0.2,0.1-0.2,0.2c-0.2,0.3-0.2,0.6,0,0.9
		c0.2,0.2,0.5,0.1,0.7,0l0,0c0.1-0.1,0.1-0.2,0.2-0.2l0,0c0.1-0.1,0.1-0.2,0.2-0.2l0,0c0.2-0.5,0.2-0.9,0-1.4
		C117.1,250.6,117,250.7,117,250.6z"/>
	<polygon points="273.9,84.9 273.9,84.9 273.9,84.9 	"/>
	<polygon points="275.3,85.4 275.3,85.4 275.3,85.4 	"/>
	<polygon points="246,202.2 246,202.1 246,202.1 	"/>
	<polygon points="246.2,200.8 246.2,200.8 246.2,200.8 	"/>
	<polygon points="245.7,201.9 245.7,201.9 245.7,201.9 	"/>
	<polygon points="245.1,201.2 245.1,201.2 245.1,201.2 	"/>
	<polygon points="141.9,219.5 141.9,219.5 141.9,219.5 	"/>
	<polygon points="272.3,104.9 272.3,104.9 272.3,104.9 	"/>
	<path d="M229.5,221.4L229.5,221.4c-0.1-0.1-0.1-0.1-0.2-0.2l0,0c-0.1-0.1-0.3-0.1-0.5,0c-0.1,0-0.1,0-0.2,0
		c-0.1,0.1-0.2,0.1-0.2,0.2c-0.2,0.2-0.2,0.5,0,0.7c0.1,0.1,0.2,0.2,0.2,0.2c0.2,0.2,0.5,0.2,0.7,0v0c0.1-0.1,0.2-0.2,0.2-0.2
		C229.6,221.8,229.6,221.6,229.5,221.4z"/>
	<polygon points="229.5,222.1 229.5,222.1 229.5,222.1 	"/>
	<polygon points="235.3,51.6 235.3,51.6 235.3,51.6 	"/>
	<path d="M147.8,225.9C147.8,225.9,147.8,225.9,147.8,225.9c0-0.1,0-0.2-0.1-0.2l0,0c-0.1-0.1-0.3-0.1-0.5-0.2l0,0
		c-0.1,0.1-0.3,0.2-0.4,0.2c-0.1,0.1-0.2,0.1-0.2,0.2h0c-0.2,0.1-0.4,0.3-0.7,0.1c-0.2-0.1-0.3-0.1-0.5,0.1c0.1,0.1,0.2,0.2,0.2,0.2
		c0.1,0.1,0.2,0.1,0.2,0.2c0.2,0,0.3,0,0.5,0c0.1,0.1,0.1,0.1,0.2,0c0.1,0.2,0.3,0.3,0.5,0.4c0.1,0,0.3,0,0.4,0
		c0.1-0.1,0.2-0.1,0.3-0.2l0,0c0.1-0.1,0.1-0.1,0.1-0.2c0.1,0,0.1,0,0.1-0.1c0-0.2,0-0.3,0-0.5C147.9,225.9,147.8,225.9,147.8,225.9
		z"/>
	<path d="M26.5,174.2L26.5,174.2c-0.1-0.1-0.2-0.1-0.2-0.2l0,0c-0.1-0.1-0.2-0.1-0.2-0.2l0,0c-0.2-0.2-0.5-0.2-0.7,0
		c-0.1,0.1-0.1,0.3-0.2,0.5c0,0.1,0,0.1,0,0.2c0.1,0.1,0.1,0.2,0.2,0.2l0,0c0.1,0.1,0.2,0.2,0.2,0.2c0.1,0,0.1,0,0.2,0
		c0.1,0.1,0.1,0.1,0.2,0c0.1,0,0.1,0,0.2,0c0.1-0.1,0.2-0.1,0.2-0.2l0,0C26.6,174.5,26.6,174.3,26.5,174.2z"/>
	<polygon points="25.3,173.7 25.3,173.7 25.3,173.7 	"/>
	<polygon points="207.5,231.2 207.5,231.2 207.5,231.2 	"/>
	<polygon points="93.1,65 93.1,65.1 93.1,65.1 	"/>
	<polygon points="92.4,65.3 92.4,65.3 92.4,65.3 	"/>
	<path d="M92.9,65.3L92.9,65.3c0.1-0.1,0.2-0.1,0.2-0.2c0.2-0.3,0.2-0.6,0-0.9c-0.3-0.2-0.6-0.2-0.9,0l0,0c-0.1,0.1-0.2,0.2-0.2,0.3
		c0,0.1,0,0.3,0,0.4c0.1,0.2,0.3,0.3,0.5,0.5C92.6,65.4,92.7,65.4,92.9,65.3z"/>
	<polygon points="93.1,64.1 93.1,64.2 93.1,64.2 	"/>
	<polygon points="212.8,210.4 212.9,210.4 212.9,210.4 	"/>
	<polygon points="212.9,211.2 212.9,211.3 212.9,211.3 	"/>
	<polygon points="212.6,211.5 212.6,211.5 212.6,211.5 	"/>
	<polygon points="212.2,211.5 212.2,211.5 212.2,211.5 	"/>
	<path d="M212,211.3c0.1,0.1,0.1,0.2,0.2,0.2c0.2,0.1,0.3,0.1,0.4,0c0.1-0.1,0.2-0.1,0.2-0.2c0.2-0.3,0.2-0.6,0-0.9
		c-0.4-0.2-0.8-0.3-1.1,0.2v0c0,0,0,0-0.1,0.1c0,0.1,0,0.1,0.1,0.2c0,0.1,0,0.1,0,0.2C211.8,211.1,211.9,211.2,212,211.3L212,211.3z
		"/>
	<polygon points="98.2,236.2 98.2,236.2 98.2,236.2 	"/>
	<polygon points="96.8,234.9 96.8,234.9 96.8,234.8 	"/>
	<path d="M98.4,235.3c-0.1-0.1-0.1-0.3-0.2-0.5c-0.5-0.2-0.9-0.2-1.4,0c-0.1,0.1-0.1,0.3,0,0.4c0,0,0,0,0,0c0,0,0,0,0,0l0,0
		c-0.1,0-0.2,0-0.2,0c0,0.2,0,0.3,0,0.5l0.1,0l0.1,0h0c0,0,0,0,0,0c0,0,0,0,0,0c-0.1,0.1-0.1,0.3,0,0.4c0.5,0.2,0.9,0.2,1.4,0
		c0.2-0.2,0-0.5,0.2-0.7C98.4,235.5,98.4,235.4,98.4,235.3z"/>
	<polygon points="98.2,234.8 98.2,234.9 98.2,234.9 	"/>
	<polygon points="96.8,236.2 96.8,236.2 96.8,236.2 	"/>
	<polygon points="169.2,214.4 169.2,214.5 169.2,214.5 	"/>
	<path d="M139.2,223.6C139.2,223.6,139.2,223.6,139.2,223.6C139.2,223.6,139.2,223.6,139.2,223.6L139.2,223.6z"/>
	<path d="M139.2,223.6c-0.1-0.2-0.3-0.1-0.5-0.2h0c-0.3,0.1-0.5,0.2-0.5,0.5c0,0,0,0.1,0,0.1c0,0.1,0,0.1,0,0.2
		c0.3,0.4,0.6,0.6,1.1,0.3C139.4,224.2,139.4,223.9,139.2,223.6z"/>
	<path d="M139.2,224.5C139.2,224.5,139.2,224.5,139.2,224.5C139.2,224.5,139.2,224.5,139.2,224.5L139.2,224.5z"/>
	<path d="M131,225c-0.2,0.2-0.2,0.4,0,0.7l0,0c0.1,0.1,0.2,0.1,0.2,0.2l0,0c0.3,0.1,0.6,0.2,0.9,0c0-0.1,0-0.1,0-0.2
		c0.1-0.2,0.1-0.3,0-0.5C131.8,224.8,131.4,224.8,131,225z"/>
	<polygon points="132.1,225.2 132.1,225.2 132.1,225.2 	"/>
	<polygon points="131,225 131,225 131,225 	"/>
	<polygon points="208.5,223.2 208.5,223.2 208.5,223.2 	"/>
	<polygon points="49,122 49,122 48.9,122 	"/>
	<path d="M220.8,52.4L220.8,52.4c0.1,0.1,0.1,0.2,0.2,0.2c0.1,0.1,0.3,0.1,0.5,0c0.1-0.1,0.2-0.2,0.2-0.2c0.1-0.2,0.1-0.5,0-0.7l0,0
		c-0.1-0.1-0.2-0.1-0.2-0.2c-0.2-0.1-0.3-0.1-0.5,0c-0.1,0.1-0.2,0.2-0.2,0.2l0,0C220.6,52,220.6,52.2,220.8,52.4z"/>
	<polygon points="221,52.6 221,52.6 221,52.6 	"/>
	<path d="M159.8,230.7c-0.1-0.1-0.2-0.3-0.4-0.4c-0.3,0-0.5,0.1-0.7,0.4c0,0.3-0.1,0.6,0.1,0.8c0.1,0.1,0.3,0.1,0.5,0.2l0.1,0l0.1,0
		c0.1-0.1,0.2-0.3,0.3-0.5c0-0.1,0.1-0.2,0.1-0.3C159.9,231,159.9,230.8,159.8,230.7L159.8,230.7z"/>
	<path d="M240.2,205.8c-0.2-0.2-0.5-0.2-0.7,0c-0.1,0-0.2,0-0.2,0c-0.1,0.1-0.2,0.2-0.2,0.2v0c-0.1,0.2-0.1,0.3,0,0.5v0
		c0.1,0.1,0.2,0.2,0.2,0.2c0.2,0.1,0.3,0.1,0.5,0l0.1,0h0.1c0.1-0.1,0.2-0.2,0.2-0.2v0C240.4,206.3,240.4,206,240.2,205.8
		L240.2,205.8z"/>
	<polygon points="239.3,206.7 239.3,206.7 239.3,206.7 	"/>
	<polygon points="122,67 122,67 122,67 	"/>
	<path d="M122.6,66.1L122.6,66.1c-0.1-0.1-0.2-0.2-0.2-0.2l0,0c-0.1-0.1-0.1-0.1-0.2,0c-0.1,0-0.2,0-0.2,0c-0.1,0.2-0.3,0.4-0.4,0.5
		c0,0.1,0,0.1,0,0.2c0.1,0.2,0.3,0.3,0.4,0.5C122.8,67.1,122.8,66.7,122.6,66.1z"/>
	<path d="M288.8,99.1c-0.1-0.1-0.2-0.1-0.3-0.1c-0.2,0-0.5-0.1-0.7,0.1c-0.1,0.2-0.1,0.4,0.1,0.6l0,0c0.1,0.1,0.1,0.3,0.3,0.4
		c0.2,0.1,0.4,0.1,0.6,0c0.1-0.1,0.2-0.2,0.3-0.4c0-0.1,0-0.3,0-0.4C288.9,99.3,288.9,99.2,288.8,99.1L288.8,99.1z"/>
	<path d="M113,66.7C113,66.7,113,66.7,113,66.7C113,66.7,113,66.7,113,66.7L113,66.7z"/>
	<path d="M212.9,212.7L212.9,212.7c-0.1,0.1-0.3,0.1-0.5,0.2l0,0c-0.2,0.3-0.2,0.6,0,0.9l0.1,0l0.1,0c0.2,0.1,0.3,0.1,0.4,0l0,0
		c0.1-0.1,0.2-0.2,0.2-0.3c0-0.1,0-0.1,0-0.2c0.1-0.2,0.1-0.3,0-0.5l0,0C213.2,212.7,213.1,212.5,212.9,212.7z"/>
	<path d="M23,176.9L23,176.9c-0.1-0.1-0.2-0.2-0.2-0.2l0,0c-0.1-0.1-0.2-0.1-0.2-0.2c-0.1,0-0.1,0-0.2,0c-0.1,0.1-0.2,0.2-0.2,0.2
		c0,0.1,0,0.2,0,0.2c-0.1,0.2-0.1,0.3,0,0.5l0,0c0.1,0.1,0.2,0.1,0.2,0.2l0,0c0.1,0.1,0.2,0.1,0.2,0.2l0.1,0l0.1,0
		c0.1-0.1,0.1-0.3,0.2-0.5C23.2,177.2,23.2,177.1,23,176.9z"/>
	<path d="M142.4,54.1c0.2,0,0.4,0,0.6-0.1c0.1,0,0.1,0,0.2,0c0-0.1,0-0.2,0-0.2c0-0.1,0-0.3,0-0.4c0-0.1,0-0.2,0-0.2
		c0.2-0.4,0.5-0.7,0.2-1.1v0c-0.7,0-1.1,0.8-1.8,0.8c0.1,0.4,0.5,0.6,0.4,1C142.1,53.9,142.1,54.1,142.4,54.1z"/>
	<path d="M27.2,194.3c-0.2-0.2-0.5-0.2-0.7,0c0,0.2,0,0.3,0,0.5c0.1,0.1,0.1,0.2,0.2,0.2c0.1,0.1,0.2,0.2,0.2,0.2
		c0.1,0.1,0.1,0.3,0.2,0.5c0.2,0.1,0.2-0.1,0.2-0.2c0-0.3,0-0.6,0-1C27.3,194.5,27.2,194.4,27.2,194.3L27.2,194.3z"/>
	<polygon points="27.8,174.2 27.8,174.2 27.8,174.2 	"/>
	<path d="M29,174.4c-0.1-0.1-0.2-0.2-0.2-0.2c-0.3-0.1-0.6-0.2-0.9,0c-0.1,0.1-0.2,0.2-0.2,0.2l0,0c-0.2,0.3,0.1,0.3,0.2,0.4l0.1,0
		l0.1,0c0.2,0.2,0.5,0.1,0.7,0l0,0c0.1-0.1,0.1-0.2,0.2-0.2l0,0c0,0,0,0,0.1-0.1C29.1,174.5,29,174.5,29,174.4z"/>
	<path d="M218.1,224.8c0.1-0.2,0.2-0.5,0-0.7c-0.4-0.2-0.7-0.1-0.9,0.2l0,0c-0.1,0.2-0.1,0.3,0,0.5c0,0.1,0,0.1,0,0.2
		c0.3,0.2,0.6,0.2,0.9,0C218.1,224.9,218.1,224.8,218.1,224.8z"/>
	<polygon points="218.1,224.1 218.1,224.1 218.1,224.1 	"/>
	<path d="M214.2,51.2c0.3,0.3,0.6,0.2,0.9,0.1c0.1-0.1,0.1-0.3,0-0.4c0-0.1,0-0.1,0-0.2c-0.1-0.1-0.1-0.2-0.2-0.3l0,0
		c-0.2-0.1-0.3-0.1-0.5,0l0,0c-0.1,0.1-0.1,0.2-0.2,0.3c0,0.1,0,0.1,0,0.2c0,0,0,0,0,0.1c0,0.1,0,0.1,0.1,0.1
		C214.2,51.1,214.2,51.1,214.2,51.2z"/>
	<polygon points="215.1,51.3 215,51.3 215,51.3 	"/>
	<path d="M234.8,44.4c0.3,0.2,0.5,0,0.7-0.2c0-0.1,0-0.2,0-0.2c-0.1-0.1-0.1-0.3-0.2-0.5c-0.2,0-0.4,0-0.7,0
		c-0.1,0.1-0.1,0.3-0.2,0.5c0,0.1,0,0.1,0,0.2c0.1,0.1,0.2,0.2,0.2,0.2C234.6,44.4,234.7,44.4,234.8,44.4z"/>
	<path d="M140.4,233.9c-0.1,0-0.1,0-0.2,0c-0.2-0.1-0.3-0.1-0.4,0l0,0c-0.1,0.1-0.2,0.2-0.2,0.3c0,0.1,0,0.1,0,0.2
		c0.1,0.1,0.1,0.3,0.2,0.5c0.2,0.2,0.4,0.2,0.7,0C140.5,234.5,140.6,234.2,140.4,233.9z"/>
	<polygon points="139.7,234.8 139.7,234.8 139.7,234.8 	"/>
	<polygon points="140.4,234.8 140.4,234.8 140.4,234.8 	"/>
	<polygon points="142,223.4 142,223.4 142,223.4 	"/>
	<path d="M142.7,222.5c-0.1-0.1-0.2-0.1-0.2-0.2c-0.1,0-0.1,0-0.2,0c-0.1,0.1-0.2,0.1-0.2,0.2l0,0c-0.2,0.3-0.2,0.6,0,0.9
		c0.2,0.2,0.5,0.2,0.7,0l0,0C142.8,223.1,142.8,222.8,142.7,222.5L142.7,222.5z"/>
	<polygon points="256.3,216.6 256.3,216.6 256.3,216.6 	"/>
	<polygon points="256.3,215.7 256.3,215.7 256.3,215.7 	"/>
	<path d="M257.2,216.1c-0.2-0.3-0.4-0.8-0.9-0.5c-0.2,0.3-0.2,0.6,0,0.9c0.2,0.2,0.5,0.2,0.7,0l0,0c0.1-0.1,0.1-0.2,0.2-0.2
		C257.2,216.3,257.2,216.2,257.2,216.1z"/>
	<polygon points="221.4,220.6 221.3,220.6 221.3,220.6 	"/>
	<polygon points="222,220.4 222,220.4 222,220.4 	"/>
	<path d="M221.8,219.5c-0.1,0-0.1,0-0.2,0c-0.1,0.1-0.2,0.1-0.2,0.2l0,0c-0.1,0.3-0.2,0.6,0,0.9c0.1,0.1,0.3,0.1,0.4,0
		c0.1-0.1,0.2-0.1,0.2-0.2C222.2,220,222.2,219.7,221.8,219.5z"/>
	<polygon points="221.8,220.6 221.8,220.6 221.8,220.6 	"/>
	<polygon points="273.2,102.8 273.2,102.8 273.2,102.8 	"/>
	<path d="M273.3,102.3c-0.4-0.4-0.8-0.5-1.2,0.1c0,0.1,0,0.1,0,0.2c0.3,0.5,0.7,0.4,1.1,0.2C273.3,102.6,273.4,102.5,273.3,102.3z"
		/>
	<path d="M45.7,146.2c-0.1-0.1-0.2-0.1-0.2-0.2c-0.1,0-0.1,0-0.2,0c-0.2,0.3-0.2,0.6,0,0.9l0,0c0.1,0.1,0.2,0.1,0.2,0.2
		c0.1,0,0.3,0,0.4,0c0.2-0.2,0.2-0.5,0-0.7C45.9,146.4,45.8,146.3,45.7,146.2z"/>
	<path d="M119.7,223.2c-0.1-0.1-0.1-0.2-0.2-0.2c-0.2,0-0.4,0-0.5,0.2c-0.1,0.2-0.1,0.5,0,0.7c0.1,0.1,0.2,0.1,0.2,0.2l0.1,0l0.1,0
		c0.1-0.1,0.2-0.1,0.3-0.3c0-0.1,0-0.2,0-0.3C119.8,223.4,119.8,223.3,119.7,223.2L119.7,223.2z"/>
	<path d="M286.3,96.8c0.1-0.1,0.1-0.2,0.2-0.3c0-0.1,0-0.1,0-0.2c-0.3-0.3-0.6-0.2-0.9,0c-0.1,0.1-0.2,0.1-0.2,0.2
		c-0.1,0.1-0.1,0.3,0,0.5l0,0c0.1,0.1,0.2,0.1,0.2,0.2l0.1,0l0.1,0c0.1-0.1,0.2-0.1,0.2-0.2l0,0C286.1,97,286.2,96.9,286.3,96.8
		L286.3,96.8z"/>
	<path d="M203,220.7c-0.1-0.1-0.2-0.2-0.2-0.2c-0.2-0.1-0.5-0.2-0.7,0c0,0.1,0,0.3,0,0.4c0.1,0.1,0.2,0.2,0.2,0.2c0.1,0,0.1,0,0.2,0
		c0.2,0.1,0.3,0.1,0.4,0C203.2,221,203.2,220.8,203,220.7z"/>
	<polygon points="203,221.1 203,221.1 203,221.1 	"/>
	<path d="M277.5,89.9c0,0.3,0.3,0.4,0.6,0.3c0.1,0,0.2-0.2,0.4-0.3l0-0.1c0-0.1-0.1-0.2-0.2-0.3l0,0c-0.1,0-0.1,0-0.2,0
		C277.7,89.5,277.4,89.5,277.5,89.9z"/>
	<path d="M100,93.2c0.1-0.1,0.1-0.2,0.2-0.2c0-0.1,0-0.2,0-0.2c-0.4,0.2-1.2,0.1-1.1,1.1C99.4,93.6,99.7,93.4,100,93.2L100,93.2z"/>
	<path d="M205.7,217.3c-0.1-0.1-0.3-0.1-0.5-0.2c-0.1,0-0.1,0-0.2,0c-0.1,0.1-0.1,0.3,0,0.5l0,0c0.1,0.1,0.2,0.1,0.2,0.2
		c0.1,0.1,0.2,0.1,0.2,0.2v0c0.1,0.1,0.2,0.1,0.2,0.2l0,0c0.2,0,0.4,0,0.5-0.2v0c-0.1-0.1-0.1-0.3-0.2-0.5l0,0
		C205.8,217.4,205.7,217.3,205.7,217.3z"/>
	<path d="M122.4,238c-0.2-0.1-0.5-0.2-0.7,0c-0.1,0.1-0.2,0.2-0.2,0.2c-0.1,0.3,0.1,0.3,0.2,0.5c0.1,0,0.2,0,0.2,0
		C122.7,238.9,122.6,238.5,122.4,238L122.4,238z"/>
	<polygon points="111.4,64.4 111.4,64.4 111.4,64.4 	"/>
	<path d="M111.1,64.4c0.1,0,0.2,0,0.3,0c0.1-0.1,0.2-0.2,0.2-0.3l0-0.1c-0.1-0.1-0.2-0.2-0.3-0.3c-0.2-0.1-0.5,0-0.5,0.2
		C110.7,64.2,110.8,64.3,111.1,64.4z"/>
	<polygon points="213.3,224.1 213.3,224.1 213.3,224.1 	"/>
	<path d="M213.3,223.6c-0.1-0.1-0.2-0.2-0.2-0.2c-0.2-0.1-0.3-0.1-0.5,0v0c-0.1,0.1-0.1,0.2-0.2,0.2c0,0.1,0,0.1,0,0.2
		c0.1,0.1,0.2,0.2,0.2,0.2c0.1,0,0.1,0,0.2,0c0.2,0.1,0.3,0.1,0.4,0C213.5,223.9,213.5,223.8,213.3,223.6z"/>
	<path d="M215.1,43.2c0.1,0.1,0.2,0.2,0.2,0.2c0.1,0,0.1,0,0.2,0c0.1,0.1,0.2,0.1,0.2,0c0.1-0.1,0.1-0.3,0-0.4c0-0.1,0-0.1,0-0.2
		c-0.1-0.2-0.3-0.1-0.4-0.3l0,0c-0.2-0.1-0.3-0.1-0.5,0c0,0.1,0,0.1,0,0.2c0.1,0.1,0.1,0.2,0.2,0.2
		C215.1,43.1,215.1,43.2,215.1,43.2z"/>
	<polygon points="215.7,43.5 215.7,43.5 215.7,43.5 	"/>
	<polygon points="236.4,57.5 236.4,57.5 236.3,57.5 	"/>
	<path d="M236.6,57C236.6,57,236.6,57,236.6,57c0.1-0.1,0.1-0.2,0-0.2c-0.1-0.2-0.3-0.2-0.5-0.2c-0.1,0.1-0.2,0.2-0.2,0.2
		c0,0.1,0,0.2,0,0.2c-0.1,0.2-0.1,0.3,0,0.5c0.1,0,0.2,0,0.2,0c0.1,0.1,0.2,0.1,0.2,0c0.1-0.1,0.1-0.2,0.2-0.2
		C236.6,57.1,236.6,57.1,236.6,57z"/>
	<path d="M72.1,258.2c-0.1,0.2-0.1,0.3,0,0.5l0,0c0.1,0.1,0.2,0.1,0.2,0.2c0.1,0,0.1,0,0.2,0c0.1,0.1,0.2,0.1,0.2,0l0,0
		c0.1-0.1,0.1-0.2,0.2-0.2l0,0c0.1-0.2,0.1-0.3,0-0.5C72.7,258,72.4,258,72.1,258.2z"/>
	<polygon points="72.1,258.2 72.1,258.2 72.1,258.2 	"/>
	<polygon points="73,258.2 73,258.2 73,258.2 	"/>
	<path d="M218.8,212.9c-0.2-0.1-0.3-0.1-0.5,0c0,0.1,0,0.3,0,0.4c0.1,0.1,0.2,0.1,0.2,0.2c0.1,0,0.3,0,0.4,0
		c0.1-0.1,0.2-0.2,0.2-0.2c0-0.1,0-0.1,0-0.2c-0.1-0.1-0.2-0.2-0.2-0.2C219,212.9,218.9,212.9,218.8,212.9z"/>
	<path d="M280.7,91.9c-0.1,0-0.2,0-0.3,0l0,0c-0.1,0.1-0.2,0.2-0.2,0.3l0,0.1c0.1,0.1,0.1,0.2,0.2,0.2c0.2,0.1,0.5,0.2,0.6-0.1
		C281.1,92.1,280.9,92,280.7,91.9z"/>
	<path d="M35.2,187.5c-0.1-0.1-0.1-0.2-0.2-0.2c-0.1-0.1-0.2-0.2-0.2-0.2c-0.1-0.1-0.2-0.1-0.2,0c0,0.2,0,0.3,0,0.5
		c0.2,0.2,0.2,0.6,0.5,0.7c0.1,0,0.2,0,0.2,0c0.1-0.2,0.1-0.3,0-0.5C35.2,187.6,35.2,187.5,35.2,187.5z"/>
	<path d="M295.4,94.5c0.1-0.1,0.1-0.1,0.1-0.2c0-0.1,0-0.2-0.1-0.3c0,0-0.1-0.1-0.1-0.1c-0.1,0-0.2-0.1-0.2-0.1
		c-0.2-0.2-0.5-0.2-0.7,0c0,0.2,0,0.3,0,0.5c0.2,0.1,0.3,0.2,0.5,0.3C295.2,94.7,295.3,94.7,295.4,94.5z"/>
	<polygon points="295.2,93.9 295.2,93.9 295.2,93.9 	"/>
	<polygon points="295.4,94.5 295.4,94.5 295.4,94.5 	"/>
	<path d="M110.2,64.1c0.1-0.2,0.1-0.4,0-0.6l0,0c-0.1-0.2-0.3-0.2-0.4,0l0,0c-0.1,0.1-0.2,0.2-0.2,0.3c0,0.1,0,0.2,0,0.3
		C109.8,64.2,110,64.2,110.2,64.1z"/>
	<path d="M84.6,83.9c0.1-0.1,0.2-0.2,0.2-0.2c0,0,0,0,0-0.1c0,0,0-0.1,0-0.1c-0.1-0.1-0.2-0.2-0.2-0.2c-0.4-0.1-0.4,0.4-0.7,0.5
		c0,0.1,0,0.1,0,0.2C84.2,84,84.4,84,84.6,83.9z"/>
	<polygon points="285.6,85.9 285.6,85.9 285.6,85.8 	"/>
	<path d="M286,86.5c0.1-0.1,0.2-0.2,0.2-0.3c0-0.1,0-0.2,0-0.3c-0.2-0.3-0.4-0.2-0.7-0.1C285.5,86.3,285.2,86.7,286,86.5z"/>
	<polygon points="286,86.5 286,86.5 286,86.5 	"/>
	<path d="M38.8,137.8c-0.1-0.1-0.2-0.2-0.2-0.2c-0.1,0-0.2,0-0.2,0c-0.1-0.1-0.2-0.1-0.2,0l0,0c-0.1,0.2-0.2,0.5,0,0.7l0,0
		c0.3,0.2,0.5,0,0.7-0.2C38.8,137.9,38.8,137.9,38.8,137.8z"/>
	<path d="M105,93.9L105,93.9l0.2,0c0.1-0.2,0.3-0.3,0.1-0.5c-0.1-0.1-0.2-0.1-0.3-0.1c-0.3,0.1-0.2,0.4-0.2,0.6l0,0
		C104.9,94,104.9,94,105,93.9z"/>
	<path d="M109.1,68.4c0.2-0.3-0.1-0.4-0.3-0.6l-0.1,0c-0.1,0-0.3,0-0.3,0.2c0,0.1,0,0.2,0,0.4C108.7,68.5,108.9,68.6,109.1,68.4z"/>
	<path d="M213.5,212.4L213.5,212.4c0.1-0.1,0.1-0.3,0.2-0.5c0-0.1,0-0.1,0-0.2c-0.2-0.2-0.4-0.2-0.7,0l0,0
		C213.1,212.1,213.1,212.4,213.5,212.4z"/>
	<path d="M213.3,219.3c0-0.1,0-0.1,0-0.2c-0.1-0.2-0.3-0.2-0.4-0.1l0,0c-0.1,0.2-0.1,0.3-0.2,0.5l0,0c0.1,0.1,0.1,0.2,0.2,0.2
		C213.4,219.9,213.5,219.7,213.3,219.3z"/>
	<polygon points="212.9,219.7 212.9,219.7 212.9,219.7 	"/>
	<path d="M274.9,90.4c0,0.1,0,0.2,0.1,0.3c0.3,0,0.4-0.2,0.5-0.5c-0.1-0.2-0.3-0.2-0.5-0.2C274.9,90.1,274.9,90.2,274.9,90.4z"/>
	<polygon points="152.8,231 152.8,231 152.8,231 	"/>
	<path d="M152.8,230.6L152.8,230.6c-0.1-0.1-0.2-0.1-0.2-0.2c-0.1,0-0.1,0-0.2,0c-0.1,0.1-0.2,0.2-0.2,0.2c0,0.1,0,0.1,0,0.2
		c0.1,0.1,0.1,0.2,0.2,0.2v0c0.2,0.1,0.3,0.1,0.5,0C152.9,230.9,152.9,230.7,152.8,230.6z"/>
	<path d="M89.9,78.3c0.1,0.1,0.2,0.1,0.4,0.1c0.1,0,0.1-0.1,0.2-0.2c0,0-0.1-0.1-0.1-0.1c-0.2-0.3-0.4-0.2-0.7-0.2c0,0,0,0-0.1,0.1
		c0,0.1,0,0.1,0.1,0.2C89.7,78.2,89.8,78.3,89.9,78.3z"/>
	<polygon points="130.7,223.6 130.7,223.6 130.7,223.6 	"/>
	<path d="M131.2,223.6L131.2,223.6c-0.2-0.1-0.3-0.1-0.5,0c-0.1,0.2-0.2,0.5,0.1,0.7l0.1,0l0.1,0
		C131.2,224.2,131.2,223.9,131.2,223.6z"/>
	<polygon points="224.4,226.9 224.4,226.9 224.4,226.9 	"/>
	<path d="M38,193.2c-0.2-0.1-0.3-0.1-0.5,0c0,0.1,0,0.3,0,0.4c0.1,0.1,0.2,0.1,0.2,0.2l0,0c0.1,0,0.2,0,0.2,0c0.1-0.2,0.1-0.3,0-0.5
		C38,193.3,38,193.3,38,193.2z"/>
	<polygon points="114.8,77.6 114.8,77.6 114.8,77.6 	"/>
	<path d="M115.4,77.7c0,0-0.1,0.1-0.1,0.1c0.1,0.1,0.2,0.2,0.2,0.2c0.2-0.1,0.5-0.2,0.7-0.2c-0.1-0.2-0.3-0.2-0.5-0.2
		c-0.1,0-0.1-0.1-0.2-0.1c0,0,0,0,0,0c0-0.1,0-0.1-0.1-0.2c-0.1-0.1-0.2-0.1-0.2-0.2c-0.1,0-0.2,0-0.2,0c-0.1-0.1-0.2-0.1-0.2,0l0,0
		c-0.1,0.2-0.1,0.3,0,0.5C115,77.8,115.2,77.8,115.4,77.7z"/>
	<path d="M151.8,227.4c-0.1-0.1-0.2-0.1-0.2-0.2c-0.1,0-0.1,0-0.2,0c-0.2,0.2-0.2,0.5,0,0.7c0.2,0,0.4-0.1,0.5-0.2c0,0,0,0,0-0.1
		C151.9,227.5,151.9,227.4,151.8,227.4L151.8,227.4z"/>
	<path d="M217.6,49.7c0-0.3-0.2-0.4-0.5-0.5c-0.1,0.1-0.1,0.2-0.2,0.2c0,0.1,0,0.1,0,0.2C217.1,49.8,217.3,49.8,217.6,49.7z"/>
	<polygon points="157.1,235.5 157.1,235.5 157.1,235.5 	"/>
	<path d="M102.7,66c0.2,0,0.2-0.1,0.1-0.2c0-0.1,0-0.1,0-0.2c-0.1-0.2-0.3-0.2-0.5-0.1l0,0c-0.1,0.2-0.1,0.3,0,0.5
		C102.4,66,102.5,66,102.7,66z"/>
	<polygon points="103.4,66.2 103.4,66.2 103.4,66.2 	"/>
	<polygon points="103.2,66.2 103.2,66.2 103.2,66.2 	"/>
	<path d="M103,65.9c0.1,0.1,0.1,0.2,0.2,0.3c0.1,0.1,0.1,0.1,0.2,0c0.1-0.1,0.2-0.2,0.2-0.3l0,0c-0.2-0.3-0.4-0.3-0.7-0.1l0,0
		c0,0-0.1,0-0.1,0.1C102.9,65.9,102.9,65.9,103,65.9L103,65.9z"/>
	<path d="M109.1,66.9c0.1,0.1,0.1,0.1,0.2,0c0.3-0.3,0.1-0.4-0.2-0.5C109,66.6,109,66.7,109.1,66.9L109.1,66.9z"/>
	<path d="M289.9,95.7L289.9,95.7c-0.1-0.1-0.2-0.2-0.3-0.2c0,0-0.1,0-0.1,0c-0.3,0.2-0.2,0.4,0,0.7
		C289.7,96.1,289.9,95.9,289.9,95.7z"/>
	<path d="M110.8,65.3L110.8,65.3l0.1,0c0.1-0.1,0.2-0.2,0.3-0.3l0-0.1C110.8,64.8,110.7,64.9,110.8,65.3z"/>
	<path d="M51,185.4c0.1,0,0.1,0,0.2,0c0.1-0.2,0.1-0.3,0-0.5l0,0c-0.1,0-0.1,0-0.2,0c0-0.1,0-0.1,0-0.2c0,0,0,0,0.1-0.1
		c0-0.3,0.1-0.6-0.1-0.9h0c-0.1-0.1-0.2-0.2-0.2-0.2l0,0c-0.1-0.1-0.2-0.2-0.2-0.2l0,0c-0.1-0.1-0.2-0.1-0.2,0c-0.3,0-0.5,0-0.7,0.2
		c-0.2,0.2,0,0.5-0.2,0.7c-0.1,0.1-0.1,0.2-0.2,0.2c0,0.1,0,0.3,0,0.4c0.1,0,0.2,0,0.2,0.1c0,0.1,0,0.1,0,0.2c0.1,0,0.2,0,0.2,0l0,0
		c0,0.1,0,0.2,0,0.2c0.2,0.1,0.2,0.3,0.2,0.5c0.2,0,0.3,0,0.5,0c0.1-0.2,0.3-0.2,0.5-0.2c0-0.1,0-0.1,0-0.2l0,0c0,0,0,0,0,0
		C50.8,185.4,50.9,185.5,51,185.4z"/>
	<path d="M212.2,219c0.4-0.4,0.1-0.4-0.2-0.4c0,0.1,0,0.1,0,0.2C212,218.9,212.1,219,212.2,219L212.2,219z"/>
	<path d="M173.5,219.5c0,0.1,0,0.1,0,0.2c0.1,0.1,0.3,0.1,0.4,0.1c0.1-0.1,0.1-0.1,0.1-0.2c-0.1-0.1-0.2-0.2-0.3-0.3l0,0
		c-0.1-0.1-0.1-0.1-0.2,0C173.4,219.3,173.4,219.4,173.5,219.5z"/>
	<polygon points="173.5,219.3 173.5,219.3 173.5,219.3 	"/>
	<path d="M213.6,220c0.2,0,0.4,0,0.5-0.2c-0.1-0.1-0.2-0.2-0.2-0.2C213.6,219.6,213.6,219.8,213.6,220z"/>
	<path d="M218.1,221.1L218.1,221.1c-0.1,0.2-0.1,0.3,0,0.5c0.2,0.1,0.3,0.1,0.5,0c0-0.1,0-0.1,0-0.2c-0.1-0.1-0.1-0.2-0.2-0.2l0,0
		C218.3,221,218.2,221,218.1,221.1z"/>
	<path d="M215.4,221.1c-0.2,0.1-0.2,0.3-0.2,0.5c0.1,0,0.1,0,0.2,0C215.5,221.4,215.5,221.3,215.4,221.1L215.4,221.1z"/>
	<polygon points="105.2,66.9 105.2,66.9 105.2,66.9 	"/>
	<path d="M105.3,67.3l0.1,0c0-0.1,0-0.3,0-0.4l0,0c-0.1-0.1-0.1-0.1-0.2,0c-0.1,0.2-0.1,0.3,0,0.5H105.3z"/>
	<path d="M109.8,65.5L109.8,65.5c0.1-0.1,0.1-0.2,0-0.2l0,0c-0.2-0.1-0.3-0.1-0.5,0c0,0.1,0,0.1,0,0.2
		C109.5,65.5,109.7,65.5,109.8,65.5z"/>
	<path d="M227.4,216.8c0.2,0,0.3,0,0.5,0c0-0.1,0-0.2,0-0.2c-0.2,0-0.3,0-0.5,0C227.4,216.7,227.4,216.7,227.4,216.8z"/>
	<path d="M8.9,203.2c-0.1-0.1-0.1-0.2-0.2-0.2c-0.1-0.1-0.2-0.2-0.2-0.2c-0.1-0.1-0.2-0.1-0.2-0.2h0c-0.1-0.1-0.2-0.1-0.2,0
		c0,0.2,0,0.5,0,0.7c-0.1,0.1-0.3,0.1-0.5,0.2c0,0.1,0,0.2,0,0.2c0.1,0.1,0.1,0.3,0.2,0.5c0.1,0.1,0.3,0.1,0.5,0.2
		c0.1,0.1,0.2,0.2,0.2,0.2c0.1-0.1,0.2-0.1,0.2-0.2c0.1-0.1,0.1-0.3,0.2-0.5c0-0.1,0-0.2,0-0.2c0,0,0,0,0.1-0.1c0-0.1,0-0.1-0.1-0.2
		C8.9,203.4,8.9,203.3,8.9,203.2z"/>
	<path d="M34.1,233.2c-0.3-0.1-0.3,0.1-0.5,0.2c-0.1,0.2-0.2,0.3-0.2,0.5c-0.1,0.2-0.1,0.3,0,0.5l0,0c0.3,0.2,0.3,0.4,0,0.7
		c-0.2,0.1-0.2,0.3-0.3,0.5c0.6,0,1.2,0.1,2-0.2C34,234.8,34.2,234,34.1,233.2z"/>
	<path d="M25.1,222.5c0.6,0.6,0.6,1.3,0.2,2.1c-0.1,0.2-0.1,0.3,0,0.5c0,0.2,0,0.3,0,0.5c0,0.4,0.2,0.4,0.5,0.2c0-0.1,0-0.2,0-0.2
		c-0.1-0.2-0.1-0.3,0-0.5h0c0.1-0.1,0.1-0.2,0.2-0.2c0-0.2,0-0.5-0.1-0.7c-0.1-0.4,0-0.6,0.3-0.7C25.9,222.4,25.9,222.4,25.1,222.5z
		"/>
	<rect x="26.3" y="223.4" width="0" height="0"/>
	<path d="M24.4,222c0.1,0.1,0.1,0.2,0.2,0.2l0,0c0.1,0.1,0.2,0.1,0.2,0.2c0.1,0,0.2,0,0.2,0C25,222.1,25,221.6,24.4,222z"/>
	<path d="M26.4,223.4C26.4,223.4,26.3,223.4,26.4,223.4C26.3,223.5,26.4,223.5,26.4,223.4z"/>
	<path d="M165,215.8L165,215.8c-0.2-0.1-0.2-0.3-0.2-0.4c-0.3,0.2-0.3,0.5,0,0.7c0.1,0.1,0.2,0,0.2,0
		C165.1,216,165.1,215.9,165,215.8z"/>
	<polygon points="165,216.1 165,216.1 165,216.1 	"/>
	<path d="M124,223.4L124,223.4C124.1,223.4,124.1,223.4,124,223.4C124.1,223.4,124.1,223.4,124,223.4z"/>
	<polygon points="123.6,222.7 123.6,222.7 123.6,222.7 	"/>
	<path d="M127.2,224.1L127.2,224.1C127.2,224.1,127.2,224.1,127.2,224.1C127.2,224.1,127.2,224.1,127.2,224.1z"/>
	<path d="M95.3,91.7c0.4,0,0.4-0.3,0.3-0.5c-0.3-0.1-0.5-0.1-0.6,0.2C95,91.6,95.1,91.8,95.3,91.7z"/>
	<polygon points="95.6,91.2 95.6,91.2 95.6,91.2 	"/>
	<path d="M99.5,92.5c0.3-0.1,0.3-0.3,0-0.4c-0.2-0.4-0.5-0.4-0.6,0.1c0,0.1,0,0.2,0,0.3C99,92.9,99.2,92.9,99.5,92.5z"/>
	<path d="M275.4,156.2c-0.1-0.1-0.1-0.3-0.2-0.5l0,0c-0.1-0.1-0.1-0.3-0.2-0.5v0c-0.1-0.1-0.2-0.2-0.2-0.2v0
		c-0.8-0.2-0.6,0.4-0.6,0.7c0,0.4,0.3,0.7,0.1,1.1c-0.1,0-0.1,0-0.2,0c0,0,0,0,0,0c-0.2-0.8,0.2-1.5,0-2.3c0-0.2,0-0.3,0-0.5
		c0.1-0.2,0.1-0.3,0-0.5c-0.1-0.1-0.2-0.1-0.2-0.2v0c-0.1-0.1-0.2-0.1-0.3,0c0,0,0,0,0,0c-0.2-0.1-0.3-0.2-0.4-0.4
		c-0.1-0.1-0.2-0.1-0.2-0.2c-0.1,0-0.1,0-0.2,0c0-0.1,0-0.1,0-0.2c-0.1,0-0.2,0-0.2,0c-0.3-0.2-0.6-0.1-0.9,0c0,0,0,0.1,0,0.1
		c0,0,0,0,0-0.1v0c0-0.1,0-0.2,0-0.2c-0.3,0-0.6,0-0.9,0c-0.5-0.4-1-0.3-1.6-0.2c-0.1,0.1-0.2,0.2-0.2,0.2c0,0.2,0,0.4,0.2,0.5l0,0
		c0.1,0.1,0.2,0.1,0.2,0.2c0,0,0,0,0,0c0,0,0,0,0,0c-0.2,0.3-0.2,0.8,0.2,0.7c0.7-0.2,0.8,0.5,1.1,0.7c0.1,0.1,0.1,0.3,0.2,0.5v0
		c0.1,0.1,0.3,0.2,0.5,0.2c0.4,0,0.9-0.1,1,0.5c0.1,0.3,0,0.4-0.1,0.6c-0.1-0.1-0.1-0.1-0.2-0.2c-0.4,0-0.8-0.1-1.1-0.4c0,0,0,0,0,0
		c0,0,0,0,0-0.1c0-0.1,0-0.1-0.1-0.2c-0.1,0-0.2,0-0.2,0c-0.5-0.2-1.1-0.2-1.6,0h0c-0.1,0.1-0.1,0.2-0.2,0.2l0,0
		c0,0.1-0.1,0.1-0.1,0.1c-0.3-0.2-0.7-0.3-1.2-0.2c-0.2,0-0.5,0.1-0.5-0.2c0-0.8-0.5-0.7-0.9-0.5c-0.3,0.1-0.6,0.2-0.9,0.1
		c-0.5,0-0.7,0.3-0.8,0.7c-0.2,1.1,0,2.2,0.9,3c0.6,1.4,1.5,1.7,2.7,1c0.3-0.2,0.6-0.2,0.9-0.2c0.7,0,1,0.6,1.4,1
		c0.1,0.1,0.2,0.2,0.2,0.2c0.2,0.2,0.3,0.6,0.7,0.2c0.6,0.1,1.2,0.6,1.6-0.2c0.4-0.1,0.8-0.3,0.8-0.6c-0.2-0.8,0.4-0.9,0.8-1.2
		c0.1,0,0.2,0,0.2,0c0-0.1,0-0.2,0-0.2c0.1-0.1,0.1-0.2,0.2-0.2l0,0c0.1-0.1,0.1-0.3,0.2-0.5c0.2-0.3,0-0.7,0.2-0.9v0
		c0.1-0.2,0.1-0.3,0-0.5C275.4,156.3,275.4,156.2,275.4,156.2z"/>
	<path d="M23.9,188.4c0-0.1,0-0.2,0-0.2c-0.1-0.1-0.2-0.2-0.2-0.2c-0.2-0.1-0.3-0.1-0.5,0l0,0c-0.1,0.1-0.1,0.2-0.2,0.2v0
		c-0.1,0.1-0.1,0.2-0.2,0.2l0,0c0,0.2,0,0.5,0,0.7c0.2,0.1,0.4,0.2,0.5,0.5c0,0.1,0,0.2,0,0.2c0.1,0.1,0.1,0.3,0.2,0.5
		c0.1,0,0.2,0,0.2,0c0.1-0.2,0.1-0.3,0-0.5c0-0.2,0-0.3,0-0.5c0.1-0.1,0.4-0.2,0.2-0.5C23.8,188.7,23.8,188.5,23.9,188.4z"/>
	<path d="M291.1,160c-0.1-0.1-0.2-0.1-0.2-0.2l0,0c-0.3-0.2-0.5-0.4-0.7-0.7c-0.2-0.1-0.4-0.2-0.7-0.2c-0.2,0.2-0.2,0.5,0,0.7h0
		c0.1,0.1,0.1,0.2,0.2,0.2c0,0.1,0,0.2,0,0.2c0.1,0.1,0.2,0.2,0.2,0.2l0,0c0.1,0.1,0.2,0.1,0.2,0.2l0,0c0.2,0.2,0.5,0,0.7,0.2
		c0.2,0.1,0.3,0.1,0.5,0v0c0.1-0.2,0.1-0.3,0-0.5C291.2,160.2,291.1,160.1,291.1,160z"/>
	<path d="M289.5,157.5c-0.1,0-0.2,0-0.2,0c-0.1-0.1-0.2-0.2-0.2-0.2c-0.8-0.1-0.8-0.1-0.7,0.6c0,0.1,0,0.2,0,0.3h0
		c0,0.1,0,0.2,0,0.2c0.1,0,0.2,0,0.2,0c0,0.2,0,0.5,0,0.7c0.1,0.1,0.2,0.2,0.2,0.2c0.4-0.2,0.5-0.5,0.5-0.9c0.1,0,0.2,0,0.2,0
		C289.5,158.1,289.5,157.8,289.5,157.5z"/>
	<path d="M294.3,159.6c0,0.1,0,0.2,0,0.2c-0.2,0-0.4,0-0.5-0.2c-0.1-0.1-0.2-0.2-0.2-0.2c-0.1-0.1-0.2-0.1-0.2,0
		c-0.2,0.2-0.5,0-0.7,0.2c-0.1,0.1-0.1,0.3-0.2,0.5c-0.5,0.4-0.5,0.5,0,0.7c0.2-0.2,0.5,0,0.7-0.2c0.3-0.3,1.2,0.2,1.1-0.7h0
		c0.1-0.1,0.2-0.2,0.2-0.2C294.4,159.6,294.4,159.6,294.3,159.6z"/>
	<path d="M278.9,99.7c0.2,0.4,0.5,0.7,1,0.6l0,0c0.1-0.1,0.2-0.1,0.2-0.2l0,0c0-0.3,0.1-0.5,0-0.8c-0.1-0.4-0.5-0.7-0.8-0.5
		C278.9,98.9,278.7,99.2,278.9,99.7z"/>
	<path d="M273.8,99.8c0.2-0.2,0.5-0.5,0.2-0.9c-0.2-0.4-0.6-0.3-0.9-0.1c-0.1,0-0.2,0.1-0.3,0.1c-0.1,1-0.1,1,0.9,1.1
		C273.7,99.9,273.7,99.9,273.8,99.8z"/>
	<path d="M276.4,99.8c0.6,0.3,0.8-0.1,1.1-0.5c0.9-0.1,0.9-0.1,0.9-0.9c0-0.1,0-0.3,0-0.4c-0.5-0.2-1-0.4-1.5-0.4
		c0,0.4,0,0.7-0.1,1.1c-0.1,0.1-0.2,0.2-0.2,0.2l0,0l0,0c-0.4,0-0.8,0-1.1,0c-0.1,0-0.3,0-0.4,0.1c-0.2,0.1-0.5,0.3-0.4,0.6
		c0.1,0.3,0.4,0.3,0.7,0.2C275.7,99.8,276.1,99.8,276.4,99.8z"/>
	<path d="M274.9,101.2c0.2-0.2,0.5-0.4,0.3-0.6c-0.3-0.3-0.5,0-0.7,0.2c-0.1,0.1,0,0.2-0.1,0.3c0.1,0.1,0.2,0.2,0.2,0.2
		C274.7,101.4,274.8,101.3,274.9,101.2z"/>
	<path d="M294.5,108.7L294.5,108.7c-0.2,0-0.5,0-0.7,0v0c-0.1,0.1-0.2,0.2-0.2,0.2l0,0c-0.1,0.1-0.1,0.2-0.2,0.2h0
		c0,0.4,0,0.8,0,1.1c0.1,0,0.1,0,0.2,0c0.2,0,0.3,0,0.5,0c0.1-0.2,0.3-0.2,0.4-0.2c0.1-0.1,0.2-0.1,0.2-0.2c0-0.2,0-0.5,0-0.7
		c0-0.1,0-0.1,0-0.2C294.7,108.9,294.6,108.8,294.5,108.7z"/>
	<path d="M298.4,102.8L298.4,102.8c0-0.1,0-0.3,0-0.4c-0.1,0-0.1,0-0.2,0c-0.2-0.2-0.3-0.4-0.5-0.6c-0.2,0-0.3-0.1-0.5-0.2
		c-0.1,0-0.1,0-0.2-0.1c-0.1,0-0.2,0-0.2,0c-0.1-0.1-0.2-0.1-0.3-0.2c-0.7,0-1.5,0-2.2,0c-0.3,0-0.7,0-0.8,0.3
		c-0.4,0.6-1.1,0.8-1.5,1.3c-0.1,0-0.3,0-0.4,0l0,0c-0.1,0.1-0.2,0.2-0.2,0.2h0c0,0.1,0,0.3,0,0.4c-0.3,0.1-0.6,0.4-0.7,0.7
		c0,0.1,0,0.1,0,0.2c-0.2,0.2-0.2,0.4-0.2,0.6c-0.1,1,1.6,3.1,2.7,3.1c1.3,0,2.6-0.1,3.9-0.3c1-0.2,1.5-0.8,1.6-2
		c0.3-0.9,0.4-1.8-0.1-2.7C298.6,102.9,298.5,102.8,298.4,102.8z"/>
	<path d="M261.8,95.9c0.1,0,0.2-0.1,0.2-0.2c-0.1-0.1-0.2-0.2-0.3-0.1c-0.1,0-0.1,0.2-0.1,0.3C261.6,95.8,261.7,95.9,261.8,95.9z"/>
	<path d="M96.8,83.4c-0.1,0-0.2,0.1-0.3,0.2c-0.1,0.1-0.2,0.2-0.3,0.3l0,0c-0.3,0.3-0.2,0.6,0,0.9c0.1,0,0.1,0.1,0,0.1
		c0.1,0,0.1,0.1,0.2,0.1c0,0.1,0.1,0.2,0.2,0.3c0,0,0,0,0,0l0,0h0h0c0.7,0.7,1.4,0.9,2.5,0.4c0.2-0.2,0-0.5,0.2-0.7l0,0
		c0.2-0.5-0.2-0.8-0.5-1.1l0,0c0-0.1-0.1-0.2-0.2-0.2c0-0.1-0.1-0.2-0.2-0.2l0,0c-0.1,0-0.2-0.1-0.2-0.2c-0.3-0.1-0.6-0.2-0.8-0.2
		c0,0,0,0,0,0c-0.1,0.1-0.4,0.1-0.5,0.2C96.8,83.2,96.8,83.3,96.8,83.4z"/>
	<path d="M100,87.9c-0.3,0.1-0.4,0.2-0.5,0.5c-0.3,0.2-0.1,0.6-0.3,0.8c-0.4-0.2-0.7-0.7-1.2-0.7c-0.4-0.1-0.9-0.1-1.3,0
		c0,0.1-0.1,0.2-0.2,0.2c-0.2,0.6-0.3,1.2,0.4,1.6c0.3,0.3,0.7,0.6,1,0.8c0.4,0.3,0.9,0.4,1.3,0.1c0,0,0,0,0,0
		c0.6-0.5,0.4-1.1,0.4-1.7c0.1,0,0.3,0.1,0.4,0.1c0.5,0.8,0.9,0,1.4-0.1c0-0.1,0.1-0.3,0.1-0.4c0.2-0.4,0-0.7,0.1-1.1
		c-0.1,0-0.1,0-0.2,0c0,0,0,0,0,0C100.8,87.3,100.8,87.3,100,87.9z"/>
	<path d="M99,86.6c0,0.2,0,0.4,0.2,0.4c0.5,0,1,0,1.4-0.1c0.3-0.1,0.3-0.5,0.3-0.8c-0.1-0.1-0.2-0.1-0.2-0.2
		c-0.5-0.1-0.8,0.3-1.3,0.3C99.2,86.2,99,86.4,99,86.6z"/>
	<path d="M97.6,87.4c0-0.2-0.2-0.3-0.3-0.2c-0.2,0-0.2,0.2-0.2,0.3c0,0.1,0.1,0.2,0.2,0.2C97.4,87.7,97.5,87.6,97.6,87.4z"/>
	<polygon points="96.8,88 96.9,88.1 96.9,88.1 	"/>
	<path d="M136.8,62.9c-0.2,0.8,0,1.4,0.6,1.9c0.6,0.5,1,0.4,1.4-0.3c0.3-0.5,0.5-1.1,0.7-1.7c0.3-0.3,0.6-0.5,1.1-0.2
		c0.1,0.1,0.3,0.1,0.4,0c0.2-0.2,0.1-0.4,0-0.5c-0.2-0.3-0.5-0.5-0.6-0.9c-0.2-0.1-0.4-0.3-0.7-0.3c-0.1,0-0.2,0-0.2,0
		c-0.4-0.4-0.8,0-1.2,0C137.3,61.2,137.1,62.1,136.8,62.9z"/>
	<polygon points="140.4,61.3 140.4,61.3 140.4,61.3 	"/>
	<path d="M117.4,82.5c0,0.1,0,0.3,0,0.4c-0.2,0.4-0.2,0.9-0.2,1.3c0.3,0,0.3,0.3,0.4,0.5c0.1,0.5,0.6,0.7,0.9,1.2
		c0.2,0.2,0.5,0.3,0.7,0.5c0.2,0,0.3,0,0.5,0c0.4,0.2,0.8-0.2,1.1-0.2c0.3,0,0.7,0.1,0.9-0.3c0.1-0.1,0.2-0.3,0.3-0.4
		c0.4,0,0.9-0.1,1.3-0.1c0.4-0.3,1,0.1,1.4-0.3c0.2,0,0.3-0.1,0.5,0.1c0.3,0.1,0.6-0.1,0.8-0.2c0.1-0.2,0.3-0.2,0.5-0.2l0,0
		c0.1-0.1,0.1-0.1,0.1-0.2c0.1,0.1,0.3,0.1,0.4,0l0,0c0.1-0.2,0.4-0.2,0.5-0.4c0.1,0,0.1,0,0.2,0c0-0.1,0-0.1,0-0.2l0,0
		c0.1,0,0.1,0,0.2,0c0-0.2,0.1-0.3,0.3-0.4c0-0.1,0-0.2,0-0.2c0-0.2,0-0.5,0-0.7c0.1,0,0.1,0,0.2,0c0-0.1,0.1-0.3,0.1-0.4h0
		c0.1,0,0.1,0,0.2,0c0-0.4,0-0.7,0.5-0.9c0.5-0.8,0-1.5,0-2.3c0-0.1,0-0.2,0-0.2c0.1-0.1,0.1-0.1,0.1-0.2c0.2-0.1,0.1-0.3,0.1-0.4
		c-0.1,0-0.2-0.1-0.2-0.3c-0.2-0.2-0.5-0.5-0.7-0.7c0-0.1,0-0.1,0-0.2c-0.1,0-0.1,0-0.2,0l0,0c0,0,0-0.1,0.1-0.1
		c0-0.4-0.2-0.7-0.6-0.8l0,0c-0.3,0.2-0.6,0-0.9-0.1c0,0,0,0,0,0c0,0,0,0,0,0c-0.2-0.2-0.4-0.4-0.6-0.6c0-0.1,0-0.1,0-0.2
		c-0.3-0.1-0.8,0-0.9-0.5c-0.1-0.2-0.3-0.3-0.4-0.5c-0.3-0.1-0.5-0.2-0.7-0.4c-0.1,0-0.1,0-0.2,0c-0.2-0.2-0.4-0.4-0.7-0.2
		c-0.4,0.2-0.7,0-1.1,0c-0.2,0.2-0.4,0.2-0.7,0.2c-0.3,0-0.6,0.1-0.7,0.4c-0.2,0.1-0.3,0.2-0.3,0.4l0,0c-0.1,0.1-0.2,0.1-0.2,0.2
		c-0.1,0-0.3,0.1-0.4,0.1c0,0.1,0,0.1,0,0.2c-0.1,0-0.1,0-0.2,0c0,0.1,0,0.1,0,0.2l0,0c-0.2,0.1-0.4,0.2-0.5,0.4c0,0,0,0,0,0
		c-0.1,0-0.3,0.1-0.4,0.1c-0.1,0.1-0.2,0.2-0.4,0.4c-0.6,0-0.9,0.4-1.1,1c-0.2,0.6-0.4,1.2-0.6,1.8c-0.1,0.3-0.1,0.6,0.1,0.9
		C116.8,80.7,117.5,81.4,117.4,82.5z"/>
	<path d="M276.1,126.4c0.2-0.2,0.3-0.5,0.5-0.7l0,0c0.1-0.2,0.3-0.5,0.2-0.7c-0.2-1,0.1-1.9,0.2-2.9c-0.4-0.5-0.6-1.2-1.1-1.5
		c-0.8-0.6-1.8-0.8-2.8-0.8c-0.8,0-1.7,0.1-2.2,0.8c-0.2,0.1-0.4,0.2-0.6,0.3c-0.1,0.4-0.4,0.7-0.7,0.9c-0.2,0.5-0.6,0.9-0.5,1.5
		c-0.1,0-0.1,0-0.2,0.1c0,0.1,0,0.2,0.1,0.3h0c0,0,0,0,0,0c0,0.1,0,0.1,0,0.2c0,0.1,0,0.2-0.1,0.2c0,0.1,0,0.1,0,0.2
		c0,0.1,0.1,0.1,0.1,0.1c0,0,0,0,0,0c0,0.1,0,0.3,0.1,0.4c0,0.1,0.1,0.2,0.2,0.2c0.1,0.1,0.1,0.3,0.2,0.5l0,0
		c0.3,0.3,0.3,0.9,0.7,1.1l0,0c0.1,0.1,0.1,0.2,0.3,0.2l0,0c0.1,0.2,0.3,0.3,0.5,0.5l0,0c0.6,0.1,1.3,0.3,1.9,0
		c0.4-0.2,0.8-0.2,1.3-0.3c0.3-0.4,0.8-0.2,1.1-0.2l0,0c0.2-0.2,0.5,0,0.7-0.2C276,126.5,276,126.5,276.1,126.4L276.1,126.4z"/>
	<polygon points="275.9,126.6 275.9,126.6 275.9,126.6 	"/>
	<path d="M268.6,218.2c0.3-0.2,0.1-0.5-0.1-0.6c-0.2-0.1-0.5-0.1-0.8-0.1c0.1-0.8,0-1.7-0.3-2.5c-0.3-0.1-0.5-0.4-0.8-0.5
		c-0.9-0.3-1-0.3-1.5,0.7c-0.4,0.9-0.2,1.6,0.5,2.3c0.1,0.3,0.5,0.3,0.7,0.4c0,0.1,0.1,0.2,0.2,0.2l0,0c-0.1,0.6,0.2,1.1,0.2,1.6
		c0.1,0.1,0.2,0.1,0.2,0.2c0.6,0.1,1.1,0.5,1.7,0c0-0.2-0.1-0.3-0.2-0.5C268.2,219.1,268,218.6,268.6,218.2z"/>
	<path d="M262.9,142.8c0,0,0.1,0.1,0.1,0.1c0.1,0.1,0.2,0.1,0.3,0.1c0.1,0,0.1,0,0.2,0c0.4,0.1,0.8,0,1.1,0c0.1-0.1,0.2-0.1,0.3-0.2
		c0,0,0,0,0-0.1c0,0,0.1,0,0.1,0c0.5-0.4,0.9-0.8,0.6-1.5c0-0.1,0-0.1,0-0.2c-0.1-0.3-0.2-0.7-0.5-1l0,0c-0.1-0.1-0.1-0.2-0.2-0.2
		c-0.9-0.4-1.8-0.8-2.6,0.2c-0.1,0.2-0.1,0.4-0.1,0.5C261.8,141.7,262,142.3,262.9,142.8z"/>
	<path d="M91.3,90.9C91.3,90.9,91.3,90.9,91.3,90.9c0-0.1,0-0.2,0-0.3c0-0.1,0-0.1,0-0.2c-0.2,0-0.4,0-0.6,0c-0.1,0.3-0.1,0.6,0,0.9
		C90.9,91.4,91.2,91.3,91.3,90.9z"/>
	<polygon points="90.8,92.8 90.8,92.8 90.8,92.8 	"/>
	<path d="M92,89.7C92,89.7,92,89.7,92,89.7c0.1,0.1,0.1,0,0.1,0C92.1,89.7,92.1,89.6,92,89.7C92.1,89.6,92,89.6,92,89.7z"/>
	<path d="M262.7,223.9c-0.6-1-1.7-1.4-2.8-1.7c-0.5-0.1-1-0.4-1.6-0.1c-0.6,0-0.7,0.5-0.9,0.9c-0.1,0-0.1,0-0.2,0c0,0.3,0,0.6,0,0.9
		c-0.3,0.3-0.2,0.6-0.2,0.9c0.4,0.3,1.2,0.1,1.3,1c0,0.2,0.5,0.1,0.6-0.3c0.3-0.7,0.5-0.9,1.2-0.8c0.6,0.1,1.3,0.1,1.9,0.1
		c0,0.4,0,0.9,0,1.3c0,0.7,0.1,0.7,0.9,0.4c0.1-0.8,0.1-1.6,0-2.5C262.8,224.1,262.7,224,262.7,223.9z"/>
	<path d="M293.2,153.4C293.2,153.4,293.3,153.4,293.2,153.4c0.4-0.6,0.3-0.9-0.3-1c-0.7-0.1-1.4,0-2,0.2l0,0
		c-0.2,0.3-0.4,0.6-0.7,0.7c-0.4,0.1-0.6,0.4-0.9,0.6c-0.3,0.3-0.5,0.6-0.3,1c0.2,0.4,0.6,0.1,0.9,0.1c0.6-0.1,1-0.5,1.6-0.5
		C292.2,154.5,292.9,154.4,293.2,153.4z"/>
	<path d="M110.2,227.3c0.6,0,1-0.5,1-1.2c0-0.8-0.2-1.1-0.8-1.1c-0.7,0-1.1,0.4-1.1,1C109.2,226.7,109.7,227.3,110.2,227.3z"/>
	<path d="M111.3,229.1c0.1-0.1,0.1-0.3,0.1-0.4c-0.2-0.2-0.5-0.4-0.6-0.6c-0.5-0.6-1.4-0.2-1.5,0.5c-0.1,0.5,0.2,0.7,0.4,1
		c0.1,0,0.2,0.1,0.3,0.1C110.8,230,111,229.9,111.3,229.1z"/>
	<path d="M285.9,145.4c-0.1,0-0.3,0-0.3,0.1c0,0.3,0.2,0.3,0.4,0.3l0,0C286,145.7,286.2,145.5,285.9,145.4z"/>
	<polygon points="35.9,186.5 35.9,186.5 35.9,186.5 	"/>
	<polygon points="278.9,117.4 278.9,117.4 278.9,117.4 	"/>
	<path d="M279.4,117.4c0.1-0.1,0.2-0.2,0.2-0.2c0.1-0.2,0.1-0.3,0-0.5c-0.1-0.1-0.2-0.2-0.2-0.2c-0.2-0.1-0.3-0.1-0.5,0
		c-0.1,0.2-0.2,0.4-0.2,0.7c0.1,0.1,0.2,0.2,0.2,0.2C279.1,117.6,279.2,117.6,279.4,117.4z"/>
	<path d="M44.3,132c0-0.1,0-0.1,0-0.2c0.1-0.1,0.1-0.3,0.2-0.5l0,0c0.1-0.1,0.1-0.3,0.2-0.4l0,0c0.2-0.2,0-0.5,0.2-0.7
		c0-0.1,0-0.1,0-0.2c-0.1-0.1-0.1-0.3-0.2-0.5l0,0c-0.1-0.1-0.1-0.3-0.2-0.4c-0.8-0.4-0.4,0.5-0.7,0.7l0,0c-0.2,0.5-0.8,0.2-1.1,0.5
		c-0.1,0-0.3,0-0.4,0c-0.1,0-0.1,0.1-0.1,0.2c0,0,0,0,0,0c-0.3,0.2-0.6,0.3-0.8,0.5c0,0.6-0.4,1.4,0.4,1.8c0,0.1,0,0.1,0,0.2
		c0.2,0,0.4,0,0.6,0c0,0,0,0,0,0c0,0.1,0,0.1,0.1,0.2l0,0c0.3,0.2,0.6,0.2,0.9,0l0,0c0.1-0.1,0.2-0.1,0.2-0.2l0,0
		c0.1-0.1,0.3-0.1,0.4-0.2C44.3,132.5,44.1,132.2,44.3,132z"/>
	<path d="M209.1,224.6c0-0.1,0-0.2,0-0.2c0,0-0.1,0-0.1,0c0-0.1,0-0.1-0.1-0.2c0.1,0,0.2,0,0.3-0.1l0,0c0.1-0.1,0.1-0.2,0.2-0.2l0,0
		c0.2-0.4,0.1-0.7-0.2-0.9c-0.1-0.1-0.2-0.1-0.2,0c-0.1,0-0.1,0-0.2,0c-0.1,0.1-0.2,0.2-0.2,0.2c-0.1,0.1-0.1,0.3-0.2,0.5
		c0,0.1,0,0.1,0,0.2c0,0,0.1,0.1,0.1,0.1c-0.2-0.1-0.3-0.3-0.4-0.5c0,0,0,0,0.1-0.1c0-0.1,0-0.1-0.1-0.2c-0.1-0.3-0.4-0.5-0.7-0.5
		c-0.1-0.1-0.2-0.1-0.2-0.2c-0.2,0-0.3,0-0.5,0c-0.1,0.1-0.3,0.1-0.5,0.2c-0.3,0.2-0.6,0.3-0.9,0.2c-0.1,0.1-0.2,0.2-0.2,0.2
		c-0.1,0.1-0.2,0.1-0.2,0.2c-0.2,0.2-0.5,0.3-0.7,0.5c-0.1,0.1-0.1,0.2-0.2,0.2c0,0.1,0,0.2,0,0.2c-0.1,0.1-0.1,0.2-0.2,0.2
		c0,0.1,0,0.2,0,0.2c-0.1,0.1-0.1,0.2-0.2,0.2c0,0.2,0,0.3,0,0.5c0.1,0.1,0.2,0.2,0.2,0.2c0.2,0.9,0.2,0.9,1.3,0.8
		c0,0.3,0,0.7,0.1,1c-0.1,0.1-0.1,0.2-0.2,0.2c-0.3,0-0.5,0.2-0.5,0.5c0,0,0,0-0.1,0.1c0,0.1,0,0.1,0,0.2c-0.1,0.1-0.1,0.1-0.2,0.2
		c0,0.2,0,0.3,0,0.5c-0.4,0.5,0.1,0.9,0,1.4c0.2,0.1,0.4,0.2,0.4,0.5c0.3,0.2,0.7,0.2,0.9,0.5l0.1,0l0.1,0c0,0.1,0,0.2,0,0.2
		c0.1,0,0.2,0,0.2,0c0.1,0,0.1,0,0.2,0c0,0,0,0,0,0c0,0,0,0.1,0,0.1c0.2,0.1,0.3,0.1,0.4-0.1c0.1,0,0.1,0,0.2,0
		c0.1-0.1,0.2-0.2,0.2-0.2c0.1-0.1,0.3-0.1,0.5-0.2c0.2-0.3,0.2-0.7,0.5-0.9c0-0.2,0-0.3,0-0.5c0-0.3,0.1-0.7-0.2-0.9
		c0.1-0.7,0.1-1.4,0.2-2v0c0.2-0.2,0.4-0.5,0.7-0.6c0.8-0.2,1-0.8,0.9-1.5c-0.1-0.1-0.2-0.2-0.2-0.2
		C209.3,224.6,209.2,224.6,209.1,224.6z"/>
	<path d="M136,54.9c0.2,0.1,0.5,0,0.6,0.2l0,0c0.6,0,1.3,0.1,1.9-0.1c-0.2-0.5-0.3-0.9-0.6-1.2c-0.2-0.2-0.4-0.5-0.7-0.1
		c-0.3,0.4-0.7,0.6-1.1,0.4c-0.3-0.1-0.3,0.1-0.4,0.2C135.7,54.6,135.7,54.8,136,54.9z"/>
	<path d="M255.1,209.4c0-0.1,0-0.3,0-0.4c-0.3-0.3-0.1-0.8-0.2-1.1c-0.2-0.5-0.3-1-0.9-1.2c-0.2,0-0.2-0.2-0.2-0.4
		c-0.1,0-0.2-0.1-0.2-0.2c-0.4-0.2-0.6-0.6-0.8-0.9c-0.2-0.4-0.4-0.7-0.8-0.9c-0.6,0-1.3-0.1-1.8-0.4c0,0-0.1,0-0.1,0
		c0-0.1,0-0.2-0.1-0.3l0,0c-0.1-0.1-0.2-0.4-0.5-0.2c-0.1,0.1-0.2,0.2-0.2,0.2c-0.2,0.2-0.5,0-0.7,0.2c-0.1,0.1-0.2,0.1-0.2,0.2
		c-0.1,0.1-0.2,0.2-0.2,0.2c-0.2,0.1-0.3,0.1-0.5,0c-0.1,0-0.2,0-0.2,0c-0.1,0.1-0.2,0.2-0.2,0.2l0,0c-0.1,0.1-0.1,0.2-0.2,0.2l0,0
		c-0.1,0.1-0.1,0.2-0.2,0.2c-0.2,0-0.3,0-0.5,0c-0.1,0.1-0.2,0.2-0.2,0.2c-0.1,0.1-0.2,0.1-0.2,0l0,0c-0.2-0.1-0.3-0.1-0.5,0
		c0,0.2,0,0.3,0,0.5c-0.1,0.2,0,0.3,0.1,0.5c-0.1,0-0.1,0.1-0.2,0.2c-0.1,0.2-0.2,0.3-0.3,0.5c0,0.1,0,0.1,0,0.2
		c-0.1,0.2-0.1,0.3,0,0.5v0c0.4,0.5,0,1,0.2,1.5c0,0.1-0.1,0.1-0.1,0.2c0,0.3-0.1,0.6,0.1,0.8l0,0c0.3,0.4-0.1,0.8,0.2,1.2l0,0
		c0.2,0.3-0.1,0.7,0.2,0.9l0,0c0.1,0.1,0.1,0.1,0.2,0.2c0,0,0.1,0.1,0,0.2c0.1,0.2,0.1,0.4,0.2,0.5l0,0c0,0.1,0.1,0.2,0.2,0.3l0,0
		c0.1,0,0.1,0,0.2,0c0,0,0,0,0,0c0,0.1,0,0.1,0,0.2c0.1,0.1,0.2,0.1,0.3,0.2c0.2,0,0.3,0.1,0.4,0.3c0.1,0,0.3,0,0.4,0
		c0.1-0.2,0.2-0.1,0.2,0l0.1,0l0.1,0c0,0.1,0,0.1,0.1,0.2l0.1,0l0.1,0c0.2,0,0.4,0,0.6,0c0.1,0.1,0.2,0.2,0.3,0.4c0.3,0,0.6,0,0.9,0
		c0.5-0.4,1.1-0.1,1.6-0.2c0-0.1,0.1-0.2,0.2-0.2c0.4-0.7,1.3-0.9,1.3-1.9c0.1-0.1,0.1-0.2,0.2-0.2c0.1-0.1,0.1-0.2,0.2-0.2
		c0.1-0.1,0.2-0.3,0.3-0.4c0-0.4,0.1-0.6,0.5-0.7C254.6,210.2,254.7,209.7,255.1,209.4z"/>
	<path d="M288.6,119.7L288.6,119.7c0.1,0.1,0.3,0.1,0.5,0c0.1,0,0.1,0,0.2,0c0.1-0.1,0.2-0.1,0.2-0.2l0,0c0.3-0.6,0.1-1.1-0.5-1.4
		c-0.1,0-0.1,0-0.2,0c-0.1,0.1-0.3,0.1-0.5,0.2l0,0c-0.1,0.1-0.1,0.3-0.2,0.5c0,0.1,0,0.3,0,0.4c0.1,0.1,0.1,0.2,0.2,0.2
		C288.4,119.6,288.5,119.7,288.6,119.7z"/>
	<path d="M82.1,89.1c0.2,0.1,0.2,0.3,0.3,0.4c0.1,0.1,0.1,0.2,0.2,0.2c0.1,0.1,0.1,0.2,0.2,0.2l0.1,0l0.1,0c0.6,0.8,1.4,0.7,2.3,0.6
		c0.3-0.4,1-0.3,1.2-0.9c0.4-0.3,0.3-0.8,0.6-1.2c0.1,0,0.2,0,0.2,0l0,0c0,0.1,0,0.1,0,0.2c0.1,0,0.1,0,0.2,0.1
		c0.2,0.1,0.3,0.1,0.5,0l0,0c0.1-0.1,0.2-0.1,0.3-0.2l0,0c0-0.1,0-0.2,0-0.2c0.1-0.4,0-0.7-0.4-0.7c-0.3,0-0.5-0.1-0.7-0.3
		c0-0.3-0.2-0.5-0.5-0.6c0-0.1-0.1-0.2-0.2-0.2c0-0.1,0-0.1-0.1-0.2c0-0.2-0.1-0.2-0.2-0.3c-0.1-0.1-0.2-0.1-0.3-0.2
		c0-0.1,0-0.1,0-0.2c-0.6-0.1-1.2,0-1.8,0.2c-0.4,0-0.6,0.2-0.7,0.6c0,0.4,0,0.8,0.1,1.2c0.1,0.6,0.3,1.2-0.3,1.6
		c-0.1-0.3-0.7,0-0.5-0.6c0.1-0.3-0.3-0.5-0.4-0.8C81.9,88.3,82.2,88.7,82.1,89.1z"/>
	<path d="M264,165.3c0-0.1,0-0.3,0-0.4c0,0,0,0,0,0c0,0,0,0,0,0c0.1,0,0.1,0,0.2-0.1c0-0.1,0-0.1,0-0.2c0-0.3,0-0.6,0-0.9
		c-0.3-0.4-0.6-0.8-0.9-1.1c-0.2,0-0.4-0.1-0.6-0.1c-0.4-0.1-0.9-0.2-1.3,0.2c-0.4,0.5-0.1,0.8,0.2,1.2c0.3,0.5,0.2,0.8-0.5,0.7
		c-0.7-0.1-0.6,0.3-0.6,0.7l0,0c0,0,0.1,0.1,0.2,0.1c0,0,0,0,0,0c0,0.1,0,0.1,0.1,0.1h0c0.1,0.1,0.1,0.2,0.2,0.2l0,0
		c0.5,0.1,0.7,0.8,1.3,0.7c0.2-0.2,0.4-0.2,0.6-0.3c0.1-0.1,0.2-0.1,0.2-0.2c0.1-0.1,0.2-0.1,0.2-0.2c0-0.1,0.1-0.2,0.2-0.2
		C263.8,165.4,263.8,165.3,264,165.3z"/>
	<path d="M280.2,147.7c0-0.1,0-0.1,0-0.2c-0.1-0.1-0.2-0.1-0.3-0.1c0,0,0,0,0,0.1c-0.4-0.3-0.8-0.2-1.3-0.2c0,0.1,0,0.1,0,0.2
		c-0.3,0.1-0.5,0.4-0.7,0.7c-0.1,0-0.1,0-0.2,0c0,0.1,0,0.1,0,0.2c0,0.3,0,0.6,0,0.9c0,0.1,0,0.1,0,0.2c0,0.1,0.1,0.1,0.2,0.1
		c0,0,0,0.1-0.1,0.1c0,0,0.1,0.1,0.1,0.1l0,0c0.1,0.1,0.1,0.2,0.2,0.2c0,0,0,0,0,0c0.1,0.1,0.2,0.2,0.2,0.2c0.1,0.1,0.2,0.1,0.2,0.2
		c0.7,0.1,0.7-0.4,0.7-0.9v0c0,0,0,0,0,0c0,0,0.1,0,0.1,0c0.4,0,0.8,0,1-0.4c0.3-0.4-0.2-0.5-0.2-0.8
		C280.2,148.1,280.2,147.9,280.2,147.7z"/>
	<path d="M49.2,109.9c0.1,0.1,0.3,0.2,0.4,0.2c0.2,0,0.4,0,0.5,0.2c0.1,0,0.3,0,0.4,0c0.7-0.2,1.1-0.8,1.8-0.9
		c0.1-0.1,0.3-0.2,0.4-0.3c0.1-0.1,0.2-0.1,0.2-0.2c0-0.2,0-0.5,0.2-0.7c-0.1-0.4-0.1-0.7-0.2-1.1c-0.3-0.3-0.1-0.8-0.3-1.1
		c-0.2-0.2-0.4-0.3-0.6-0.5c-0.8-0.5-2.2-0.3-2.9,0.5c0,0-0.1,0-0.1,0c-0.3,0.1-0.5,0.4-0.6,0.7c0,0.1,0,0.1,0,0.1
		c-0.1,0.1-0.1,0.2-0.1,0.3c0,0.1,0,0.1,0.1,0.2c0,0,0,0.1,0,0.1c0,0,0,0,0,0c-0.1,0-0.1,0-0.2,0.1l0,0c-0.1,0.4-0.2,0.8,0,1.1l0,0
		c0.1,0.1,0.1,0.1,0.2,0.1c0,0.1,0.1,0.2,0.1,0.3C48.9,109.3,49.1,109.6,49.2,109.9z"/>
	<path d="M146.5,61.5c0.6,0,1-0.2,1-0.5c0-0.3-0.7-1-1-1c-0.3,0-0.8,0.6-0.8,1C145.8,61.5,146.1,61.6,146.5,61.5z"/>
	<path d="M146.5,224.2c0.1-0.1,0.2-0.3,0.2-0.4c0.1-0.5-0.2-0.9-0.2-1.3c-0.1,0-0.1,0-0.2-0.1c0-0.5-0.4-0.9-0.5-1.3
		c-0.6-0.2-1.2,0-1.7,0c-0.2,0.1-0.3,0.3-0.5,0.4c0,0.1-0.1,0.2-0.2,0.3c0,0.4-0.2,0.7,0,1.1c0,0.1,0,0.3,0,0.4
		c0.2,0.5,0.8,0.7,1.1,1.1C145.2,224.6,145.8,224.3,146.5,224.2z"/>
	<path d="M149.2,54.2c0.7,0.4,1.4,0.1,2.1,0.2c0-0.1,0-0.1,0-0.2c0.1-0.1,0.2-0.1,0.2-0.2c0.3-0.2,0.6-0.5,0.8-0.9
		c0.3-0.7,0.2-0.9-0.5-1.4c-0.4-0.6-0.8-0.9-1.5-0.5c-0.1,0.1-0.4,0-0.6,0c-0.1,0.1-0.1,0.2-0.2,0.2c0,0.1,0,0.3,0,0.4l0,0
		c-0.1,0.1-0.1,0.2-0.2,0.2v0c-0.1,0-0.3,0-0.4,0c0,0.1,0,0.3,0,0.4l0,0c-0.1,0.1-0.1,0.2-0.2,0.2c-0.7,0.1-0.7,0.1-0.7,1.1
		C148.3,54.3,148.7,54.2,149.2,54.2z"/>
	<path d="M106,246.3c-0.5,0-0.8,0.3-0.7,0.8c0,0.4,0.7,0.9,1.2,0.8c0.4,0,0.7-0.3,0.6-0.7C107,246.6,106.5,246.2,106,246.3z"/>
	<path d="M102.3,91.8c0.2-0.1,0.4-0.1,0.6-0.2c0.3,0.6,0.7,0.8,1.4,0.8c0.1-0.1,0.2-0.1,0.3-0.2c0.1-0.2,0.3-0.3,0.4-0.5
		c0-0.3,0-0.6,0-0.9c0.1,0,0.3,0,0.4,0c0.5-0.4,0.8-0.9,0.7-1.6c0.2-0.2,0.3-0.4,0.2-0.6c-0.2-0.8,0.2-1,0.7-1.2
		c0.1,0,0.1,0,0.2-0.1c0.1,0,0.2,0,0.4,0c0.1-0.1,0.1-0.1,0.1-0.2c0,0,0.1,0,0.1,0c0.7-1.1,0.6-1.4-0.2-2.5c-0.7-0.4-1.3-0.1-2,0
		c-0.1,0.1-0.2,0.1-0.2,0.2c-0.1,0-0.1,0-0.2,0c0,0.2,0,0.5,0,0.7c0,0.1,0,0.1,0,0.2c0,0.4-0.3,0.6-0.5,0.9
		c-0.7,0.5-0.4,1.2-0.4,1.8c0,0-0.1,0.1-0.2,0.1c0,0.1-0.1,0.2-0.2,0.2c-0.3,0.5-0.1,1-0.1,1.5c-0.4,0-0.6,0.3-0.9,0.5
		c-0.3-0.1-0.6-0.7-1-0.3C101.5,91.1,101.9,91.4,102.3,91.8C102.2,91.8,102.2,91.8,102.3,91.8z"/>
	<path d="M35.5,138.3c0.2,0,0.4,0,0.6,0c0.3,0,0.6-0.2,0.7-0.5c0.1-0.3,0-0.6-0.3-0.8c-0.4-0.3-0.8-0.4-1.3-0.3l0,0
		c-0.1,0.2-0.3,0.3-0.3,0.5C34.5,137.8,34.8,138.2,35.5,138.3z"/>
	<path d="M254.8,219.3c-0.4,0.3-0.6,0.7-0.6,1.2c0.2,0.2,0.4,0.4,0.5,0.7c0.6,0.3,1,0.2,1.4-0.3c0.4-0.4,0.2-0.9,0-1.3
		C255.9,218.9,255.3,218.8,254.8,219.3z"/>
	<path d="M157.1,233.9c0,0,0-0.1,0-0.1c0-0.1-0.1-0.2-0.2-0.3l0,0c0,0-0.1-0.1-0.1-0.1c0-0.1-0.1-0.1-0.1-0.2
		c-0.1-0.2-0.3-0.2-0.4,0l0,0c0,0,0,0,0,0c-0.1,0.1-0.3,0.1-0.5,0.2c-0.1,0.1-0.2,0.2-0.2,0.3c0,0.1,0,0.1,0,0.2c0,0,0,0,0,0
		c-0.2-0.1-0.4-0.1-0.6-0.2l0,0c-0.1,0.1-0.3,0.1-0.5,0.2l0,0c-0.1,0.1-0.2,0.1-0.2,0.2c-0.1,0.1-0.2,0.1-0.2,0.2l0,0
		c-0.2,0.2-0.2,0.5,0,0.7c0,0.1,0,0.1,0,0.2c0.1,0.2,0.1,0.4,0.2,0.5c0.2,0.2,0.5,0,0.7,0.2l0,0c0.3,0.2,0.6,0.2,0.9,0
		c0.1-0.1,0.1-0.3,0.2-0.4l0,0c0-0.1,0-0.1,0-0.2c0,0,0,0,0,0c0.1,0,0.2,0,0.3,0c0,0,0,0,0,0c0.1,0,0.2,0,0.3,0c0,0,0-0.1,0-0.1
		c0,0,0,0,0.1,0c0.2,0.1,0.3-0.1,0.4-0.3l0,0C157.3,234.7,157.3,234.3,157.1,233.9z"/>
	<path d="M281.6,137.4c0-0.4,0-0.8,0-1.1c0-0.1,0-0.2,0-0.2l-0.1,0c0-0.1,0-0.1,0-0.2c-0.1,0-0.1,0-0.2-0.1c0-0.1,0-0.1,0-0.2
		c-0.2-0.1-0.4-0.2-0.5-0.4l0,0c-0.1-0.1-0.1-0.2-0.2-0.3l0,0c-0.1-0.1-0.2-0.2-0.2-0.2l0,0c-0.1-0.1-0.3-0.1-0.5-0.2l0,0
		c-0.5-0.2-1,0-1.5,0l0,0c-0.1,0.1-0.2,0.1-0.2,0.2c-0.1,0.1-0.2,0.1-0.2,0.2c0,0-0.1,0.1-0.2,0c-0.1,0-0.2,0.1-0.3,0.2v0
		c-0.1,0.1-0.3,0.1-0.5,0.2l0,0c-0.1,0.2-0.3,0.1-0.4,0.3c-0.1,0.1-0.1,0.3-0.2,0.4l0,0c-0.2,0.2,0,0.5-0.2,0.7l0,0c0,0,0,0-0.1,0.1
		c0,0,0,0.1,0.1,0.1l0,0c0.1,0.1,0.1,0.4,0.2,0.5l0,0c0.3,0.4,0.2,0.9,0.2,1.4l0,0c0.1,0.1,0.1,0.2,0.2,0.2l0,0
		c0.2,0.3,0.4,0.6,0.7,0.7l0,0c1,0.1,2,0,2.9-0.4c0.2-0.1,0.2-0.3,0.3-0.4c0.1-0.1,0.1-0.2,0.2-0.2l0,0c0.1,0,0.1,0,0.2,0l0,0
		c0.2-0.1,0.1-0.3,0.2-0.5c0-0.1,0-0.2,0.1-0.2c0,0,0-0.1,0-0.1C281.5,137.6,281.5,137.5,281.6,137.4z"/>
	<polygon points="276.6,135.6 276.6,135.6 276.6,135.6 	"/>
	<path d="M265.9,97.1c0.2,0,0.4,0,0.6,0c0-0.3,0.1-0.6-0.3-0.6C265.8,96.4,265.9,96.8,265.9,97.1z"/>
	<path d="M238.6,225.3c-0.1,0-0.2,0-0.2,0c-0.1-0.1-0.2-0.2-0.2-0.2c-0.9-0.9-2.1-1.4-3.4-1.4c-0.3,0.4-0.6,0.8-0.9,1.1
		c-0.3,0.1-0.4,0.3-0.4,0.6c-0.1,0-0.1,0-0.2,0c-0.1,0.1-0.1,0.2-0.1,0.3c0,0.3,0.2,0.5,0.3,0.7c0.1,0.1,0.2,0.2,0.2,0.2
		c0.2,0.2,0,0.5,0.2,0.7v0c0.1,0.1,0.2,0.2,0.2,0.2l0,0c0.1,0.1,0.2,0.2,0.2,0.2c0.1,0.1,0.2,0.1,0.2,0.2c0.1,0,0.1,0,0.2,0
		c0.1,0.1,0.2,0.1,0.2,0.2c0.3,0.2,0.5,0.2,0.8,0.1c0,0,0.1-0.1,0.1-0.1c0,0,0,0,0,0c0.8,0.6,1.7,0.1,2.5,0.2
		c0.1-0.1,0.2-0.2,0.2-0.2c0-0.2,0.1-0.4,0.2-0.5c0-0.3-0.1-0.7,0.2-0.9c-0.1-0.5-0.2-0.9-0.2-1.4
		C238.8,225.4,238.7,225.4,238.6,225.3z"/>
	<path d="M101.8,93.4c0.2,0.1,0.4,0.2,0.7,0.2c0.2-0.3,0.4-0.7-0.1-0.8C101.9,92.7,101.8,93.1,101.8,93.4z"/>
	<path d="M279.4,103.8c0.1-0.3-0.1-0.5-0.3-0.7l0,0c-0.2,0-0.5-0.1-0.7,0c-0.5,0.1-0.7,0.4-0.7,0.9c0.1,0.6,0.6,0.5,1,0.6
		C279.3,104.6,279.3,104.1,279.4,103.8z"/>
	<polygon points="127.9,229.3 127.9,229.3 127.9,229.3 	"/>
	<path d="M266.7,146.8c0.3,0,0.7,0,1-0.1c1.1-0.1,1.1-0.1,1-1.3c-0.1-0.1-0.1-0.2-0.2-0.3c-0.1-0.1-0.2-0.1-0.3-0.2
		c-0.4,0-0.7,0-1.1,0c-0.2,0.2-0.3,0.4-0.5,0.7C266.7,146,266.7,146.4,266.7,146.8z"/>
	<path d="M104.5,79c0.1-0.1,0.2-0.1,0.2-0.2c0-0.3-0.1-0.6-0.4-0.6c-0.4,0-0.3,0.4-0.3,0.6l0,0c0.1,0.1,0.2,0.2,0.3,0.2
		C104.4,79,104.5,79,104.5,79z"/>
	<path d="M103.4,77.1c-0.1,0-0.1,0-0.2,0.1c0,0.1,0,0.1,0,0.2c0,0,0,0,0,0.1c0,0.1,0,0.1,0.1,0.1h0c0.1,0,0.2,0,0.2,0
		c0,0.2,0,0.3,0,0.5c0,0.1,0,0.1,0,0.2c0.7,0,0.1-0.5,0.2-0.7h0c0.1,0,0.2-0.1,0.2-0.3c0-0.3,0.6-0.6,0-0.9
		c-0.2,0.1-0.3,0.3-0.5,0.4C103.4,77,103.4,77.1,103.4,77.1z"/>
	<path d="M88.7,95.7c0.1-0.1,0.1-0.2,0.2-0.3c-0.1-0.2-0.1-0.4-0.2-0.6c-0.3-0.1-0.6-0.1-0.8,0.2C87.9,95.7,88.2,95.8,88.7,95.7z"/>
	<path d="M87.8,96.6c0.2,0,0.4,0,0.4-0.3c0,0,0-0.1-0.1-0.1C87.9,96.2,87.9,96.5,87.8,96.6z"/>
	<polygon points="87.8,96.6 87.8,96.6 87.8,96.6 	"/>
	<path d="M227.9,42.9c0.1,0,0.1,0,0.2-0.1c0.2-0.3,0.3-0.5,0.2-0.9c-0.1,0-0.1,0-0.2,0c0-0.2-0.1-0.4-0.2-0.5
		c-0.1-0.2-0.2-0.4-0.3-0.6c-0.5-0.1-0.9-0.2-1.3,0.2c-0.1,0-0.1,0-0.2,0c-0.3,0.6-0.5,1.2,0.1,1.8
		C226.8,43.4,227.4,43.3,227.9,42.9z"/>
	<path d="M90.8,89.8c0.1-0.2,0.3-0.4,0.2-0.6c-0.2-0.1-0.4-0.3-0.7-0.2l0,0c-0.1,0.1-0.2,0.1-0.2,0.2l0,0c0,0.1,0,0.3,0,0.4l0,0
		c0.1,0.1,0.1,0.2,0.2,0.2l0,0C90.5,89.9,90.7,89.9,90.8,89.8z"/>
	<path d="M28.3,152.6c0.1-0.6,0-1.2,0-1.8c-0.1-0.1-0.1-0.2-0.2-0.2c-0.5,0-1,0-1.3,0.5c-0.2,0.5,0,0.9,0.2,1.2
		C27.4,152.8,27.8,152.6,28.3,152.6z"/>
	<path d="M78.7,219.9c0-0.3,0-0.6-0.4-0.6c-0.4,0-0.5,0.4-0.5,0.8c0,0.2,0.1,0.4,0.5,0.5C78.6,220.5,78.7,220.2,78.7,219.9z"/>
	<path d="M280.1,120.7l0.1,0h0.1c0.2-0.3,0.4-0.2,0.7-0.2c0.1-0.1,0.2-0.2,0.2-0.2c0-0.1,0-0.1,0-0.2c0-0.4,0-0.8,0-1.1
		c0-0.1,0-0.1,0-0.2c-0.1-0.1-0.2-0.2-0.2-0.2c-0.1,0-0.3,0-0.4,0c-0.5,0.2-0.7,0.8-1.2,1.1c0.6,0.3,0.6,0.8,0.6,1.2l0,0
		C279.9,120.7,280,120.7,280.1,120.7z"/>
	<path d="M45.5,192.3c-0.1-0.1-0.2-0.2-0.2-0.2c-0.1-0.1-0.3-0.1-0.5-0.2c-0.1,0-0.1,0-0.2,0c-0.2,0.5-1,0.5-0.9,1.1
		c0.3,0.5,0.9,0.4,1.4,0.5C45.5,193.1,45.6,192.7,45.5,192.3L45.5,192.3z"/>
	<polygon points="45.3,192 45.3,192 45.3,192 	"/>
	<path d="M41.1,142.6c-0.3,0-0.5-0.1-0.7,0.2c-0.1,0.2-0.1,0.4-0.1,0.5c0.1,0.3,0.4,0.3,0.7,0.3c0.2,0,0.4-0.1,0.6-0.2
		C41.6,143.1,41.6,142.7,41.1,142.6z"/>
	<polygon points="41.6,143.5 41.5,143.5 41.5,143.5 	"/>
	<path d="M262.7,97.9c0.1,0,0.1-0.1,0.1-0.2c-0.1,0-0.1-0.1-0.2-0.1c0,0.1-0.1,0.1-0.1,0.2C262.5,98,262.6,98,262.7,97.9z"/>
	<path d="M270,119c0.5-0.1,1-0.3,1.5-0.4c0-0.1,0-0.1,0-0.2c0.1,0,0.2,0,0.2,0c0.1-0.1,0.2-0.1,0.2-0.2c0.1-0.1,0.2-0.2,0.2-0.2
		c0.2-0.9,0.5-1.8,0-2.7c-0.2-0.1-0.3-0.3-0.4-0.5c-0.1,0-0.2-0.1-0.2-0.2c-0.1-0.1-0.2-0.1-0.2-0.2c-0.3-0.1-0.6-0.2-0.9-0.3
		c0-0.1,0-0.1,0-0.2c-0.4-0.4-1-0.6-1.5-0.4c-0.1,0.2-0.2,0.4-0.3,0.6c0,0.2,0,0.3,0,0.5c0,0,0,0,0,0.1c0,0,0,0,0,0.1
		c-0.1,0-0.1,0.1-0.2,0.1l0,0c-0.1,0.1-0.2,0.2-0.2,0.2l0,0c-0.1,0.8-0.7,1.6-0.7,2.5l0,0c0.1,0.1,0.1,0.4,0.2,0.5l0,0
		c0.2,0.1,0.4,0.2,0.6,0.3c0.1,0.4,0.3,0.6,0.7,0.7C269.3,119.2,269.6,119.1,270,119z"/>
	<path d="M265.7,100.3c-0.1-0.1-0.1-0.1-0.2,0c-0.1,0-0.1,0-0.2,0c-0.1,0.1-0.2,0.1-0.3,0.2c0,0.2,0,0.3,0,0.5
		c0.3,0,0.5-0.1,0.7-0.2C265.8,100.6,265.8,100.4,265.7,100.3z"/>
	<polygon points="265.7,100.3 265.7,100.3 265.7,100.3 	"/>
	<polygon points="265,101 265,101 265,101 	"/>
	<path d="M109.4,89.1c-0.1,0.1-0.2,0.2-0.2,0.3c0.1,1.2,0.2,1.3,1.3,1.3c0.1-0.4,0.1-0.7,0-1.1C110.2,89.3,109.9,88.9,109.4,89.1z"
		/>
	<polygon points="271.3,113.1 271.3,113.1 271.3,113.1 	"/>
	<path d="M271.5,112.6c-0.1,0.1-0.1,0.3-0.1,0.5c0.1,0,0.3,0,0.4,0c0.2,0,0.4,0,0.4-0.3c0-0.2-0.1-0.4-0.2-0.5
		C271.7,112.3,271.6,112.4,271.5,112.6z"/>
	<path d="M213.4,216.1c-0.5,0.2-0.5,0.5-0.3,0.9c0.4,0,0.7,0,1.1,0c0.1-0.1,0.2-0.1,0.2-0.2c0.1-0.3,0-0.6-0.2-0.9
		C214,215.9,213.7,216,213.4,216.1z"/>
	<path d="M166.9,217.2c0,0.2,0,0.4,0.2,0.4c0-0.2,0-0.3,0-0.5C167,217.2,166.9,217.2,166.9,217.2z"/>
	<path d="M165.9,217.5c-0.2,0-0.4,0-0.5,0.2C165.7,217.7,165.8,217.6,165.9,217.5z"/>
	<path d="M137,235.3c-0.1,0.1-0.2,0.1-0.2,0.2c-0.1,0.1-0.1,0.2-0.2,0.3c0,0.3,0,0.6,0.2,0.9c0,0.1,0,0.1,0,0.2
		c1.1,0.1,1.4-0.5,0.9-1.5C137.4,235.2,137.2,235.3,137,235.3z"/>
	<path d="M104.8,69.6c0.1,0.1,0.1,0.2,0.2,0.2c0.2,0,0.4,0,0.5-0.1c0.2-0.2,0.3-0.4,0.1-0.7c-0.2-0.2-0.4-0.2-0.6-0.1
		c-0.1,0.1-0.2,0.1-0.3,0.2C104.8,69.3,104.8,69.5,104.8,69.6z"/>
	<path d="M104.6,68.7C104.6,68.7,104.6,68.7,104.6,68.7C104.6,68.7,104.6,68.7,104.6,68.7L104.6,68.7z"/>
	<path d="M104.7,68.3C104.7,68.3,104.7,68.3,104.7,68.3c-0.2,0.1-0.2,0.2-0.1,0.3C104.7,68.6,104.8,68.5,104.7,68.3z"/>
	<path d="M274.6,105.3c-0.1-0.1-0.2-0.1-0.2-0.2c-0.2,0-0.4,0.1-0.6,0.2c-0.2-0.3-0.4-0.5-0.8-0.7c-0.1,0-0.3,0-0.4,0
		c-0.1,0.1-0.2,0.1-0.2,0.2c-0.5,1.3,0.7,0.9,1.1,1.1c0.1,0.1,0.1,0.1,0.2,0c0,0.1,0,0.1,0.1,0.2c0.4,0.1,0.6-0.3,0.9-0.4
		C274.6,105.6,274.6,105.5,274.6,105.3z"/>
	<path d="M93.6,239c0,0.3-0.2,0.5-0.5,0.7c-0.1,0.7-0.1,1.3,0.5,1.8c1.8-0.4,1.9-0.6,2-2C95.1,238.8,94.3,238.9,93.6,239z"/>
	<path d="M272.2,92.3c0,0.2,0.2,0.3,0.4,0.3c0.3-0.1,0.2-0.3,0.3-0.5c-0.2-0.2-0.2-0.4-0.2-0.7c-0.2,0-0.3-0.1-0.4-0.3
		C271.7,91.5,272.2,91.9,272.2,92.3z"/>
	<path d="M273.4,103.7c-0.1,0-0.3,0-0.4,0c0,0.1,0,0.3,0,0.4c0.1,0.1,0.1,0.2,0.2,0.2C273.8,104.3,273.6,104,273.4,103.7z"/>
	<path d="M103.6,85.4c0.1-0.1,0.2-0.3,0.2-0.4c-0.2-0.3-0.6-0.3-0.9-0.3C102.8,85.4,102.8,85.4,103.6,85.4z"/>
	<path d="M109.8,67.4c0.1,0.3,0.4,0.5,0.2,0.9c0.1,0,0.1,0,0.2,0.1c-0.1,0.2-0.1,0.4-0.2,0.6c0.1,0.1,0.2,0.3,0.2,0.5
		c0.1,0,0.1,0,0.2,0c0,0.1,0,0.1,0,0.2l0.1,0l0.1,0l0,0c0,0.1,0,0.1,0,0.2c0.1,0,0.3,0.1,0.4,0.1c0.1,0.2,0.3,0.2,0.5,0.2
		c0.2,0.1,0.5,0.1,0.7,0c0.1,0,0.3,0,0.4,0c0-0.1,0-0.1,0-0.2c0.2-0.1,0.4-0.2,0.5-0.4l0,0c0.1,0,0.1,0,0.2,0c0-0.2,0-0.3,0-0.5l0,0
		c0.1,0,0.1,0,0.2,0c-0.1-0.2,0.1-0.4,0.1-0.6c0.1,0,0.1,0,0.1,0c0.2,0,0.2,0,0.3-0.2c0,0,0,0,0,0l0,0c0,0,0,0,0,0c0,0,0,0,0,0
		c0.1,0,0.1,0,0.2,0l0,0c0.2-0.2,0.2-0.5,0-0.7c0,0-0.1-0.1,0-0.1c0-0.3-0.2-0.4-0.5-0.5c-0.3-0.2-0.6-0.2-0.8,0
		c-0.1,0-0.1,0.1-0.1,0.2c-0.1,0-0.1,0-0.2,0c-0.1,0-0.2,0-0.2,0c-0.2,0-0.3,0-0.5,0c-0.5-0.2-0.9,0.3-1.3,0.3
		c-0.1,0.1-0.2,0.1-0.3,0.2C110.3,67.3,110.1,67.3,109.8,67.4z"/>
	<polygon points="104.3,64.6 104.3,64.6 104.3,64.6 	"/>
	<path d="M104.9,64.2c0-0.1-0.2-0.2-0.4-0.2c-0.3,0.1-0.2,0.3-0.2,0.5C104.6,64.6,104.9,64.6,104.9,64.2z"/>
	<path d="M269.7,101.4c0.5,0.1,0.7-0.2,0.7-0.6c-0.1-0.1-0.1-0.2-0.2-0.3c-0.1-0.1-0.2-0.1-0.3-0.2c-0.1,0-0.1,0-0.2-0.1
		c-0.1-0.1-0.2-0.1-0.2,0c0,0,0,0,0,0C269.3,101,269.3,101.3,269.7,101.4z"/>
	<path d="M219.9,44.5c0.1-0.4-0.2-0.6-0.5-0.9c-0.3,0-0.6,0-0.9,0C218.9,44.7,218.9,44.7,219.9,44.5z"/>
	<path d="M89,91.6c0,0.3,0.1,0.5,0.4,0.4c0-0.1,0-0.1,0-0.2c-0.1-0.1-0.2-0.2-0.2-0.2C89.1,91.6,89.1,91.6,89,91.6z"/>
	<path d="M85.8,93.5c0,0.2,0,0.4,0,0.6c0.2,0,0.4,0,0.7,0c0.1-0.1,0.1-0.2,0.2-0.2C86.5,93.4,86.2,93.4,85.8,93.5z"/>
	<path d="M284.9,169.2c0-0.1,0-0.1,0-0.2c-0.2-0.1-0.2-0.2-0.3-0.4c-0.1-0.1-0.2-0.1-0.2-0.2c-0.5-0.1-1-0.3-1.6-0.3
		c-0.1,0-0.1,0-0.2,0c-0.2,0.1-0.4,0.1-0.5,0.2l0,0c0,0.1,0,0.1,0,0.2c-0.1,0.1-0.2,0.2-0.2,0.2l0,0c-0.3,0.4-0.4,0.9-0.4,1.4
		c0.2,0.2,0.2,0.4,0.2,0.7c0.2,0.1,0.2,0.3,0.2,0.4c0.1,0,0.1,0,0.2,0c0,0.1,0,0.1,0,0.2c0.1,0,0.3,0,0.4,0c0.1,0,0.1,0,0.2,0
		c0,0.1,0,0.1,0,0.2c0.4,0,0.8,0,1.1,0c0.1,0,0.1,0,0.2,0c0.1-0.1,0.1-0.1,0.1-0.2c0,0,0,0,0,0c0,0,0.1,0,0.1,0c0-0.1,0-0.1,0-0.2
		l0,0l0.1,0l0.1,0c0.1-0.1,0.1-0.2,0.2-0.2c0.3-0.6,0.3-1.2,0.2-1.8C285,169.2,285,169.2,284.9,169.2z"/>
	<path d="M94.8,86.6c0.1,0,0.1-0.1,0-0.1c0,0,0,0-0.1,0C94.8,86.4,94.7,86.5,94.8,86.6C94.8,86.5,94.8,86.6,94.8,86.6z"/>
	<path d="M281.9,114.4c0-0.1,0-0.1,0-0.2c-0.1-0.1-0.2-0.2-0.2-0.2l0,0c-0.2,0-0.3,0-0.5,0c0,0.2,0,0.5,0,0.7c0.2,0,0.3,0,0.5,0v0
		C281.8,114.6,281.8,114.5,281.9,114.4z"/>
	<path d="M135.5,228.4c0,0.2-0.1,0.3-0.2,0.5c0,0.1,0,0.3,0,0.4c1,0,1,0,0.7-0.9C135.8,228.4,135.6,228.4,135.5,228.4z"/>
	<path d="M279.4,87c-0.3,0.3-0.3,0.7-0.2,1.1c1.1,0,1.1,0,1.1-1.1C280,86.9,279.7,87,279.4,87z"/>
	<path d="M100.8,83.9c-0.2-0.1-0.3-0.2-0.5-0.2l-0.1,0c-0.2,0.1-0.3,0.2-0.5,0.2c-0.1,0.1-0.1,0.3-0.2,0.4c0.1,0.2,0.1,0.4,0.2,0.6
		C100.9,85,101,84.9,100.8,83.9z"/>
	<path d="M109.3,84.7c0-0.2,0.2-0.5-0.2-0.7c-0.4-0.2-0.6,0.1-0.7,0.5C108.7,84.8,109,84.9,109.3,84.7z"/>
	<path d="M285.8,93c0,0.1,0,0.3-0.1,0.4c-0.2,0.1-0.3,0.3-0.4,0.5c0,0.1,0,0.3,0,0.4c0.2,0.1,0.3,0.3,0.5,0.4c0.1,0,0.3,0,0.4,0
		c0.1-0.1,0.1-0.1,0.2-0.2c0-0.4,0-0.7,0-1.1c0-0.1,0-0.3,0-0.4c-0.1,0-0.3,0-0.4,0C286,93,285.9,93,285.8,93z"/>
	<polygon points="285.4,93.9 285.4,93.9 285.4,93.9 	"/>
	<path d="M281.5,106.7c0-0.2,0-0.3,0-0.5c-0.2,0-0.4,0-0.5,0.2c0,0,0,0,0,0.1c0,0.1,0,0.1,0.1,0.1v0
		C281.1,106.7,281.3,106.7,281.5,106.7z"/>
	<path d="M112.9,85.8c0.3,0.1,0.7,0.1,1,0c0.2-0.4,0.1-0.8-0.2-1.1C112.7,84.8,112.7,84.9,112.9,85.8z"/>
	<path d="M222.7,219.7c0.1-0.1,0.1-0.2,0.2-0.2c0-0.1,0-0.3,0-0.4c-0.1-0.1-0.1-0.2-0.2-0.2c-0.2,0-0.4,0-0.7,0
		C222,219.3,222.1,219.7,222.7,219.7z"/>
	<path d="M281.2,94.1c-0.3,0-0.6,0-0.9,0c0-0.1,0-0.3,0-0.4c-0.4-0.1-0.7-0.1-0.7,0.4c0.2,0,0.4,0,0.7,0c0,0.5,0,0.9,0.7,0.9l0,0
		c0.1-0.1,0.2-0.2,0.2-0.2l0,0C281.2,94.6,281.2,94.3,281.2,94.1z"/>
	<path d="M223.4,57.1c0,0.1,0,0.2,0,0.2c0,0.1,0,0.2,0,0.2c0,0.2,0,0.3,0,0.5c0.1,0,0.1,0,0.2,0.1c0,0.1,0.1,0.2,0.1,0.3
		c0.1,0.1,0.1,0.2,0.2,0.2c0.3,0,0.4,0.2,0.6,0.3c0.1,0.1,0.2,0.2,0.3,0.2l0,0c0,0.1,0,0.1,0.1,0.2c0,0.1,0,0.1,0,0.2
		c0.1,0,0.1,0,0.2,0c0.1,0.1,0.2,0.2,0.2,0.2c0.6-0.2,1,0.4,1.6,0.2c0.3-0.2,0.6-0.3,0.9-0.2c0.1-0.2,0.1-0.3,0.3-0.4
		c0.1-0.2,0.3-0.2,0.4-0.2c0.2-0.2,0.3-0.5,0.7-0.5c0.1-0.1,0.3-0.2,0.4-0.2c0-0.1,0.1-0.2,0.3-0.2c0.1-0.1,0.2-0.1,0.2-0.2
		c0-0.2,0-0.5,0.2-0.7c-0.1-0.4,0.1-0.7,0-1.1c-0.1-0.1-0.2-0.1-0.2-0.3c-0.2-0.5-0.5-0.9-0.3-1.5c0.5,0.1,0.6,0.6,0.8,0.8
		c0.2,0.1,0.2,0.3,0.3,0.4c0.1,0,0.2,0.1,0.2,0.2c0.2,0.3,0.6,0.2,0.9,0.4c0.4,0,0.7,0,1.1-0.2c0.9-0.4,1.8-0.6,2.3-1.6
		c0-0.4,0-0.7,0-1.1c0,0,0,0,0,0c0.1,0,0.2-0.2,0.3-0.3c0-0.1,0-0.3,0-0.4c-0.3-0.3,0-0.8-0.2-1.2c-0.1-0.1-0.3-0.1-0.4-0.2
		c-0.1-0.3-0.4-0.5-0.7-0.5c-0.1,0.1-0.1,0.1-0.1,0.2c-0.1,0-0.2,0-0.3,0v0c-0.1-0.1-0.2-0.2-0.3-0.3c-0.2,0-0.4-0.1-0.6-0.1
		c0,0,0,0.1-0.1,0.1c0,0,0,0,0,0c0,0,0,0,0,0c0,0,0,0,0,0c0,0,0.1-0.1,0.1-0.1c0-0.7-0.1-1.2-0.6-1.8c-0.2-0.2-0.3-0.6-0.4-0.9
		c-0.1-0.1-0.2-0.3-0.3-0.4c-0.1,0-0.1,0-0.2,0c0-0.1,0-0.1,0-0.2c-0.3,0-0.6,0-0.9,0c0-0.1,0-0.1,0-0.2c-0.2,0-0.4,0-0.7,0
		c-1.1,0.1-1.1,0.1-0.9,1.1c0,0.2,0.1,0.3,0.2,0.5c0.1,0.1,0.2,0.1,0.2,0.2c0.3,0,0.6,0,0.9,0c0.4,0.1,0.7,0.3,1.1,0.2c0,0,0,0,0,0
		l0,0c0.4,0.4,0.6,0.8,0.4,1.4c-0.1,0-0.1,0-0.2,0c-0.1,0-0.3,0-0.4,0.1c-0.1,0.1-0.1,0.1-0.1,0.2c-0.1,0-0.1,0-0.2,0
		c-0.1,0-0.2,0-0.2,0c0,0.1,0,0.1,0,0.2h0c-0.2,0.1-0.2,0.4-0.4,0.5c-0.1,0-0.1,0-0.2,0c0,0.1,0,0.1,0,0.2c-0.1,0.1-0.2,0.2-0.3,0.3
		c-0.1,0-0.1,0-0.2,0c0,0.1,0,0.1,0,0.2c-0.1,0.2-0.2,0.5-0.2,0.7c-0.1,0-0.2,0-0.3,0c-0.1,0.1-0.2,0.2-0.2,0.2
		c0.1,0.2,0.3,0.5-0.2,0.4c-0.1-0.1-0.2-0.1-0.3-0.2c-0.1,0-0.1,0-0.2,0c0-0.2,0-0.4-0.2-0.5c0-0.1,0-0.1,0-0.2c0-0.1,0-0.3,0-0.4
		c-0.1,0-0.2-0.1-0.2-0.3c-0.2-0.1-0.2-0.3-0.2-0.4c-0.2-0.1-0.2-0.3-0.2-0.4c-0.1-0.1-0.3-0.2-0.4-0.2c-0.6,0.1-1.2,0.1-1.8,0.2
		c-0.4,0.5-0.9,1-0.6,1.6c0.1,0.3,0.1,0.5,0.1,0.7c-0.1,0-0.2,0.1-0.2,0.2c0,0.1,0,0.2,0,0.3c0,0.1,0.1,0.2,0.2,0.3
		c0,0.2-0.1,0.4-0.1,0.5c-0.3,0.1-0.4,0.4-0.5,0.7c-0.1,0-0.1,0-0.2,0c0,0.1,0,0.3,0,0.4c-0.1,0.1-0.1,0.2-0.2,0.3
		C223.5,56.3,223.3,56.7,223.4,57.1z"/>
	<path d="M270.9,93.4c0.1,0.1,0.1,0.1,0.2,0l0,0c0.1-0.1,0.2-0.1,0.2-0.2l0,0c0,0,0,0,0.1-0.1c0,0,0-0.1-0.1-0.1
		c-0.2-0.3-0.4-0.3-0.7-0.2C270.6,93,270.8,93.2,270.9,93.4L270.9,93.4z"/>
	<path d="M266.8,103.4c0.5,0.1,0.7-0.1,0.6-0.6c-0.2,0-0.4,0-0.7,0C266.8,103,266.8,103.2,266.8,103.4z"/>
	<path d="M280.6,103.7c0.6,0.6,0.9,0.1,1.3-0.2c0-0.1,0-0.3,0-0.4c-0.1-0.1-0.2-0.1-0.2-0.2c-0.3,0-0.5,0-0.8,0
		C280.7,103.1,280.7,103.4,280.6,103.7z"/>
	<path d="M136.7,231.2c0,0.2,0.3,0.2,0.4,0.2c0-0.1,0-0.3,0-0.4C137,231,136.7,230.9,136.7,231.2z"/>
	<path d="M274.3,107.9c-0.1-0.1-0.1-0.1-0.2-0.2c-0.7,0.2-0.7,0.2-0.6,1.1C274.3,108.7,274.3,108.7,274.3,107.9z"/>
	<path d="M17.3,152.2c-0.2,0-0.4,0-0.7,0c-0.1,0.2-0.3,0.2-0.4,0.2c-0.1,0.5,0,1,0.2,1.5c0.1,0,0.3,0,0.4,0c0.2-0.3,0.4-0.2,0.7-0.2
		c0.1-0.1,0.2-0.1,0.2-0.2c0-0.1,0-0.3,0-0.4c-0.3-0.2-0.2-0.4-0.2-0.7C17.5,152.4,17.4,152.3,17.3,152.2z"/>
	<path d="M286.3,100.3c-0.1,0.1-0.1,0.2-0.2,0.3c0,0.5,0,0.9,0.6,0.9l0,0c0.1-0.1,0.2-0.1,0.2-0.2c0,0,0,0,0,0c0-0.2,0-0.4,0-0.7
		C286.7,100.3,286.5,100.2,286.3,100.3z"/>
	<polygon points="83.4,95.8 83.3,95.8 83.4,95.9 	"/>
	<path d="M225.3,227.4c-0.1,0-0.1,0-0.2,0c0-0.1,0-0.2,0-0.2c-0.1,0-0.2,0-0.2,0c-0.1,0-0.3,0-0.4,0c0-0.1,0-0.1,0-0.2
		c-0.2-0.2-0.4-0.1-0.7,0c-0.2,0-0.3,0-0.5,0c-0.1,0.1-0.1,0.1,0,0.2c-0.1,0-0.3,0-0.4,0.1c0,0.1,0,0.1,0,0.2c-0.1,0-0.2,0-0.2,0
		c-0.1,0.1-0.1,0.1-0.2,0.2c0,0,0,0,0,0c-0.1,0.1-0.2,0.2-0.2,0.2c-0.1,0.1-0.1,0.2-0.1,0.3c0,0.1,0,0.2,0.1,0.2
		c0,0.1,0.1,0.2,0.2,0.3c0,0,0.1,0,0.1,0.1c0.6,0.1,1.3-0.4,1.6,0.5c0.2,0.1,0.3,0.1,0.5,0c0,0,0,0,0,0c0.1,0,0.3,0,0.4,0
		c0.1,0.3,0.4,0.4,0.7,0.4c0-0.2,0-0.4,0-0.7c0-0.4,0-0.8,0-1.1C225.4,227.7,225.4,227.5,225.3,227.4z"/>
	<path d="M137.3,229.8c-0.1,0.1-0.1,0.2-0.2,0.2c0,0.3,0,0.6,0,0.9c0.2,0,0.3,0.1,0.4,0.2c0.1,0,0.3,0,0.4,0
		c0.1-0.2,0.3-0.2,0.5-0.2c0.1-0.1,0.1-0.2,0.2-0.2c0-0.4-0.1-0.8-0.4-1.1C138,229.9,137.6,229.8,137.3,229.8z"/>
	<path d="M292.7,85.6c-0.1,0.1-0.2,0.1-0.3,0.2l0,0c0,0.3,0,0.6,0,0.9c0.3,0.1,0.6,0,0.9-0.2c0-0.1,0-0.3,0-0.4
		c-0.2-0.1-0.2-0.2-0.3-0.4C293,85.7,292.8,85.6,292.7,85.6z"/>
	<path d="M284.2,86.7c0.4-0.4,0.3-0.9,0.2-1.3c-0.1-0.1-0.1-0.1-0.2-0.2c-0.2,0-0.4,0-0.6,0c-0.1,0.2-0.2,0.2-0.4,0.3
		c-0.1,0.5,0.1,0.9,0.4,1.3C283.8,86.7,284,86.7,284.2,86.7z"/>
	<path d="M270.7,89.8c-0.4,0-1-0.4-1.1,0.4c0.3,0,0.6,0,0.9,0C270.5,90.1,270.6,89.9,270.7,89.8z"/>
	<path d="M275.5,97.9c0-0.2,0-0.4,0-0.6c-0.2,0-0.4,0-0.6,0C274.8,98,274.8,98,275.5,97.9z"/>
	<path d="M260.6,98c-0.1,0-0.3,0-0.4,0c0,0.1,0,0.3,0,0.4C260.5,98.4,260.9,98.6,260.6,98z"/>
	<path d="M106.2,67.3c0.3,0,0.6,0,0.8,0c0.1-0.1,0.1-0.2,0.2-0.2c0-0.2,0-0.4,0-0.6c-0.3-0.3-0.6-0.5-1.1-0.4
		c-0.1,0.1-0.3,0.2-0.4,0.4c0.2,0.2,0.1,0.5,0.2,0.7C106,67.2,106.1,67.2,106.2,67.3z"/>
	<path d="M86,80.3c0-0.2,0-0.4,0.1-0.6c-0.3-0.1-0.5,0.1-0.7,0.3C85.4,80.4,85.6,80.5,86,80.3z"/>
	<path d="M94,82c-0.5-0.1-0.7,0.1-0.6,0.6c0.2,0,0.4,0,0.6,0C94.1,82.5,94.1,82.2,94,82z"/>
	<path d="M92.2,230.3c-0.4,0-0.6,0.3-0.9,0.4c0,0.1,0,0.3,0,0.4c0.2,0.1,0.4,0.3,0.5,0.5c0.3,0,0.6,0,0.9,0c0.1-0.2,0.2-0.4,0.2-0.7
		c-0.2-0.1-0.2-0.3-0.2-0.5C92.5,230.5,92.3,230.5,92.2,230.3z"/>
	<path d="M95,247.7c-0.3,0-0.6,0.2-0.9,0.3c0,0.4,0,0.7,0,1.1c0.2,0.1,0.2,0.3,0.2,0.5c0.3,0.2,0.5,0.5,0.9,0.5
		c0.1-0.3-0.1-0.7,0.2-0.9c0-0.3,0-0.6,0-0.9C95.2,248,95.1,247.9,95,247.7z"/>
	<path d="M288.1,90.6l0.1,0l0.1,0c0.1-0.1,0.3-0.2,0.4-0.3c0.1-0.4,0.1-0.8-0.2-1.1c-0.4,0-0.6,0.2-0.9,0.5c0,0.2,0,0.4,0,0.6
		C287.8,90.5,288,90.6,288.1,90.6z"/>
	<path d="M157.6,236c0.1-0.2,0.1-0.3,0-0.5c-0.1,0-0.3,0-0.4,0c0,0.1,0,0.3,0,0.4C157.3,236.1,157.4,236.1,157.6,236
		c0,0.1,0,0.1,0,0.2c0.1,0.1,0.1,0.2,0.2,0.2c0.1,0,0.1,0,0.2,0c0-0.1,0-0.3,0-0.4C157.9,236,157.7,236,157.6,236
		C157.6,236,157.6,236,157.6,236z"/>
	<path d="M291,87.2c0.1-0.4,0.1-0.7,0-1.1c-0.1-0.1-0.2-0.1-0.3-0.2c-0.2,0-0.4,0-0.6,0c-0.1,0.1-0.1,0.2-0.2,0.2
		c-0.1,0.4,0.1,0.7,0.3,1.1C290.5,87.2,290.8,87.2,291,87.2z"/>
	<path d="M161.3,61.5c0,0.3,0,0.6,0,0.9c0.3,0,0.6,0,0.9,0c0.1-0.1,0.2-0.2,0.2-0.2c0-0.1,0-0.3,0-0.4
		C162.1,61.5,161.7,61.5,161.3,61.5z"/>
	<path d="M99.5,252.9c-0.2,0-0.5,0-0.7,0c0,0.2,0,0.4,0,0.7c0.3,0.1,0.6,0.2,0.9,0.2c0-0.2,0-0.5,0-0.7
		C99.7,253.1,99.6,253,99.5,252.9z"/>
	<path d="M218.1,227.4c0,0.1,0,0.3,0,0.4c0.1,0.1,0.2,0.1,0.2,0.2c0.1,0,0.1,0,0.2,0c0.1-0.1,0.2-0.1,0.2-0.2
		c0.1-0.2,0.3-0.4,0.2-0.7c-0.2,0-0.5,0-0.7,0C218.2,227.2,218.1,227.3,218.1,227.4z"/>
	<path d="M91.5,245.8c-0.1,0.3,0.1,0.6,0.2,0.9c0.2,0,0.3,0,0.5,0c0.1-0.1,0.2-0.2,0.2-0.2c0-0.2,0-0.4,0-0.7
		C92.1,245.8,91.8,245.8,91.5,245.8z"/>
	<path d="M267.5,100c-0.2,0.1-0.2,0.2,0,0.2C267.5,100.2,267.5,100.1,267.5,100z"/>
	<path d="M116.3,236c0.1,0.3,0.2,0.6,0.2,0.9c0.3,0,0.6,0,0.9-0.2c0-0.2,0-0.4,0-0.7c-0.1-0.1-0.2-0.1-0.2-0.2
		C116.9,235.9,116.6,235.9,116.3,236z"/>
	<path d="M221.1,218.6c0-0.2,0-0.3,0-0.5c-0.2,0-0.3,0-0.5,0C220.6,218.4,220.8,218.6,221.1,218.6z"/>
	<path d="M168.8,234.8c0-0.1-0.1-0.2-0.3-0.2c-0.1-0.1-0.2-0.3-0.3-0.4c-0.1,0-0.2-0.1-0.3-0.1c0-0.1,0-0.1-0.1-0.2
		c-0.2,0-0.4,0-0.5-0.2c-0.1,0-0.3,0-0.4,0c-0.3,0.2-0.6,0.1-0.9,0.2c0,0.1-0.1,0.1-0.1,0.2c-0.1,0-0.2,0.1-0.3,0.1
		c-0.1,0.1-0.2,0.1-0.2,0.2c0,0.1-0.1,0.2-0.2,0.2c0,0.1-0.1,0.2-0.2,0.2c0,0.2-0.1,0.3-0.3,0.4c0,0.3,0,0.6,0,0.9
		c0.1,0.2,0.1,0.3,0.2,0.5c0,0.1,0,0.3,0,0.4c0.1,0,0.1,0,0.2,0c0,0.1,0,0.1,0,0.2c0.1,0,0.2,0.1,0.3,0.1h0c0.1,0.1,0.2,0.1,0.2,0.2
		c0,0,0-0.1,0.1-0.1c0,0,0,0,0,0c0,0-0.1,0.1-0.1,0.1c0,0.1,0,0.1,0.1,0.2c0.1,0,0.2,0,0.2,0c0,0,0.1,0.1,0.2,0.1
		c0,0.1,0,0.1,0.1,0.2c0.3,0,0.6,0,0.9,0c0,0,0,0,0,0c0,0,0,0.1,0,0.2c0.1,0,0.3,0,0.4,0c0.1-0.2,0.3-0.2,0.5-0.2
		c0-0.1,0-0.1,0.1-0.2c0.1,0,0.2-0.1,0.4-0.1c0.2-0.3,0.5-0.6,0.7-0.9c0-0.3,0-0.5,0.2-0.7C169.4,235.6,169.4,235.1,168.8,234.8z"/>
	<path d="M250.8,63.4c0-0.2,0-0.4,0-0.7c-0.3,0-0.6,0-0.9,0c0,0.3,0.1,0.5,0.2,0.7C250.3,63.4,250.5,63.4,250.8,63.4z"/>
	<path d="M244.4,60.9c0-0.3,0-0.6,0-0.9c-0.2,0-0.4,0-0.7,0c-0.1,0.1-0.2,0.2-0.2,0.2c0,0.3,0,0.6,0,0.9c0.2,0,0.5,0,0.7,0
		C244.2,61,244.3,61,244.4,60.9z"/>
	<path d="M128.2,228.2c-0.1,0-0.1,0-0.2,0c0-0.1,0-0.3,0-0.4c-0.1,0-0.2,0-0.2,0l0,0c0-0.1,0-0.2,0-0.2c-0.1,0-0.3,0-0.4,0
		c-0.1,0-0.3,0-0.4,0c0,0.1,0,0.2,0,0.2l0,0c-0.1,0-0.2,0-0.2,0c0,0.1,0,0.1,0,0.2c-0.1,0.1-0.2,0.2-0.2,0.2c0,0.1,0,0.3,0,0.4
		c0.1,0.1,0.1,0.4,0.2,0.5l0,0c0.1,0.1,0.2,0.2,0.2,0.2l0,0c0.1,0.1,0.2,0.2,0.3,0.2l0.1,0l0.1,0c0.2-0.2,0.5,0,0.7-0.2
		c0.1-0.1,0.2-0.2,0.2-0.2l0,0c0-0.2,0-0.3,0-0.5C128.2,228.5,128.2,228.4,128.2,228.2z"/>
	<path d="M227.4,50.6c0.3,0,0.6,0,0.9,0c0-0.2,0-0.4,0-0.6c-0.3,0-0.6,0-0.9,0C227.5,50.2,227.4,50.4,227.4,50.6z"/>
	<path d="M281.7,98.4c-0.1,0-0.3,0-0.4,0c0,0.3,0,0.6,0,0.9c0.2,0,0.3,0,0.5,0C281.7,99.1,281.7,98.7,281.7,98.4z"/>
	<path d="M276.7,91.2c-0.1,0.3-0.1,0.6,0,0.8c0.1,0.1,0.1,0.2,0.2,0.2c0.2,0,0.4,0,0.6,0c0-0.3,0-0.6,0-0.8
		c-0.1-0.1-0.2-0.1-0.2-0.2C277.1,91.2,276.9,91.2,276.7,91.2z"/>
	<path d="M149.5,222.2c0-0.1,0-0.2,0-0.2c-0.1,0-0.1,0-0.2,0c0-0.1,0-0.1,0-0.2c-0.1,0-0.2,0-0.2,0c0-0.1,0-0.1-0.1-0.2
		c-0.2,0-0.4,0-0.6,0c-0.1,0.1-0.2,0.1-0.3,0.2c0,0.3,0,0.6,0,0.9c0.1,0.1,0.2,0.2,0.2,0.2c0.1,0,0.1,0,0.2,0c0,0.1,0,0.1,0,0.2
		c0.3,0,0.6,0,0.9,0c0.1-0.1,0.2-0.1,0.2-0.2c0-0.1,0-0.3,0-0.4c-0.1,0-0.1,0-0.2,0C149.6,222.4,149.5,222.3,149.5,222.2z"/>
	<path d="M136.7,233.7c0-0.1,0-0.3,0-0.4c-0.1,0-0.3,0-0.4,0c0,0.1,0,0.2,0,0.2c-0.1-0.1-0.1-0.2-0.2-0.2l0,0
		c-0.1-0.2-0.3-0.1-0.5-0.2l0,0c-0.7,0-1,0.4-0.9,1.5c0.1,0.8,0.5,0.8,1.1,0.6c0.1-0.1,0.2-0.1,0.2-0.2l0,0c0.1-0.1,0.1-0.3,0.2-0.5
		c0-0.1,0-0.1,0-0.2c0.1-0.1,0.1-0.3,0.1-0.4c0,0,0,0,0,0C136.5,233.7,136.6,233.7,136.7,233.7z"/>
	<path d="M158.5,234.8c-0.1,0.2,0,0.4,0,0.6c0.1,0,0.2,0,0.4,0c0.1-0.2,0.1-0.4,0-0.6C158.8,234.8,158.6,234.8,158.5,234.8z"/>
	<path d="M108.2,67.8c-0.1,0-0.1,0-0.2,0c0,0.1,0.1,0.2,0.2,0.2C108.2,68,108.2,67.9,108.2,67.8z"/>
	<path d="M96,82c0,0.6,0.4,0.5,0.7,0.4c0-0.2,0.1-0.3,0.2-0.4c0-0.2,0-0.4,0-0.6c-0.1-0.1-0.1-0.2-0.2-0.2c-0.1-0.1-0.2-0.1-0.3-0.2
		c-0.1,0-0.1,0-0.2-0.1c-0.1,0-0.1,0-0.2,0c-0.1,0.2-0.3,0.2-0.4,0.2c-0.1,0.1-0.1,0.3-0.2,0.4C95.6,81.7,96,81.8,96,82z"/>
	<path d="M277.3,111c0.1,0,0.3,0,0.4,0c0.1-0.1,0.2-0.1,0.2-0.2c0-0.2,0-0.5,0-0.7c-0.1-0.1-0.2-0.2-0.2-0.2c-0.2,0-0.5,0-0.7,0
		c-0.1,0.1-0.2,0.2-0.2,0.2c0,0.2,0,0.3,0,0.5C277.1,110.7,277.2,110.8,277.3,111z"/>
	<path d="M210.4,228.2c0.1,0,0.2,0,0.2,0c0.1,0,0.2,0,0.2,0c0-0.2,0-0.3,0-0.5c-0.2,0-0.3,0-0.5,0
		C210.4,227.9,210.4,228.1,210.4,228.2z"/>
	<path d="M235.2,45.7c-0.2,0.2-0.4,0.3-0.3,0.7c0.1,0.4,0.4,0.3,0.6,0.3c0.3,0.1,0.3,0.3,0.3,0.5c0.4,0.3,0.7-0.1,1.1,0
		c0-0.2,0-0.4,0-0.7c-0.2-0.1-0.2-0.3-0.2-0.4c-0.1,0-0.1,0-0.2,0l0,0c0-0.1,0-0.2,0-0.2c-0.1,0-0.1,0-0.2,0
		c-0.1-0.1-0.2-0.1-0.2-0.2c0-0.1,0-0.1,0-0.2c-0.2,0-0.4,0-0.7,0C235.3,45.5,235.2,45.6,235.2,45.7z"/>
	<path d="M209.3,213.4L209.3,213.4c0-0.1,0-0.3,0-0.4c-0.3,0-0.5-0.2-0.7-0.5c-0.3,0-0.6,0-0.9,0c-0.1,0.1-0.2,0.1-0.2,0.2
		c-0.1,0.2-0.3,0.2-0.4,0.2c0,0.2-0.1,0.3-0.2,0.4c0,0.3,0,0.5-0.2,0.7c0,0.5-0.1,0.9,0.2,1.4c0,0.1,0,0.2,0,0.2c0.1,0,0.1,0,0.2,0
		c0.2,0,0.3,0,0.5,0c0.2,0,0.3,0,0.5,0c0.2,0,0.3,0,0.5,0c0-0.1,0-0.1,0-0.2c0.1,0,0.1,0,0.2,0c0-0.1,0-0.2,0-0.2c0.1,0,0.1,0,0.2,0
		c0.1-0.1,0.1-0.2,0.2-0.2c0-0.2,0-0.4,0.2-0.5c0-0.2,0-0.3,0-0.5l0,0c0.1,0,0.1,0,0.2,0c0-0.2,0-0.3,0-0.5c0-0.1,0-0.2,0-0.2
		C209.5,213.4,209.4,213.4,209.3,213.4z"/>
	<path d="M160.8,233.9c0.2,0,0.3,0,0.5,0c0-0.1,0-0.2,0-0.2c-0.2,0-0.3,0-0.5,0C160.8,233.8,160.8,233.8,160.8,233.9z"/>
	<path d="M288.3,107.6c0.2-0.1,0.4-0.3,0.5-0.5c0-0.1,0-0.1,0-0.2c-0.1-0.1-0.1-0.2-0.2-0.3l0,0c-0.1-0.1-0.3-0.1-0.5-0.2
		c-0.1-0.1-0.2-0.1-0.2-0.2v0c-0.1,0-0.1,0-0.2,0c-0.4-0.5-1.1-0.5-1.7-0.5c-0.6-0.1-1,0.6-0.9,1.2c0,0.1,0,0.1,0,0.2
		c0,0.2,0,0.4,0.2,0.5c0,0.2,0.1,0.4,0.3,0.4c0,0.1,0,0.1,0,0.2c0.8,0.2,1.5,0.1,2.2-0.4c0-0.1,0-0.1,0-0.1c0.1,0,0.2,0,0.3,0l0.1,0
		L288.3,107.6z"/>
	<path d="M243.9,195.2c0.2-0.4,0.1-0.8-0.2-1.2c-0.1,0-0.1-0.1-0.2-0.1c0.2-1.4,1-2.2,2.1-2.9c0,0,0,0,0,0c0,0.1,0.1,0.1,0.1,0.2
		c1.9-0.2,3.5-1,4-2.9c0.4-1.9,1.1-3.8,1.3-5.7c0-0.1,0-0.3,0.1-0.4c0.3-0.5,0.3-1,0.3-1.5c-0.1-0.1-0.2-0.1-0.2-0.2c0,0,0,0,0,0
		c0.2-0.7,0.5-1.4,0.8-2.1c0.1-0.9,0.2-1.8,0.3-2.7c0.5-3.4,0.6-6.8-1.5-9.8c-4.7-1.1-9.3-0.2-13.8,0.8h0h0
		c-6.6,1.4-13.1,2.8-19.7,4.2c-3,0.5-6,0.7-8.9,1.6c-0.5,0-1.1,0.1-1.6,0.1c-1.4,0.1-2.9,0.2-4.2,0.8c0,0,0,0,0,0c0,0,0,0,0,0
		c-0.6-0.1-1.2,0.2-1.7-0.2c0.2-0.2,0.3-0.4,0.5-0.6h0c0.1,0,0.3,0,0.4-0.1l0,0h0c1.1-0.3,2.3-0.5,3.4-0.8c3.5-1,7.1-1.2,10.5-2.4
		c0,0,0,0,0,0h0c3.1-0.2,6-1.2,9-1.8c3.7-0.7,7.6-0.9,11.2-2c0.7,0,1.5,0.1,2.1-0.4c0,0,0,0,0,0c3.3-0.1,6.3-1.1,9.1-2.6
		c0.2-0.3,0.3-0.5,0.5-0.8h0c0.9-0.9,1.9-1.7,2.8-2.6c1.9-2.9,3-6,2.6-9.6c-0.1-1.5-0.1-3-0.1-4.6c-0.5-1.6-0.7-3.2-0.8-4.9
		c-0.3-4.7,0.5-9.3,0.8-14c0.1,0,0.2,0,0.4-0.1c0-0.7,0-1.4,0-2.1l0,0l0,0c0-0.3,0-0.5,0.1-0.8c0.1,0,0.3,0,0.4-0.1
		c0-0.4,0-0.8,0.1-1.3c0.3-1.4,0.5-2.8,0.8-4.2c-0.2-1.2,0.2-2.3,0.8-3.3c0.1-0.8,0.6-1.5,0.6-2.4c-0.1,0-0.2-0.1-0.3-0.1
		c0.1,0,0.1,0,0.2,0c1.3-0.9,1.1-2.5,1.7-3.8c0-0.4-0.1-0.9,0.4-1.2c0.4-0.3,0.3-0.7,0.4-1.1c0-0.1,0-0.2,0-0.3
		c0.8-0.4-0.1-1.5,0.5-2c0-0.5-0.1-0.9,0.4-1.3c0.4-0.4,0.4-0.7,0.1-1.1c0,0,0.1-0.1,0.1-0.1c0.1-0.3,0-0.5-0.1-0.8
		c0.1,0,0.2,0,0.4-0.1l0,0c0.2-1.3,0.3-2.6,0.3-3.8c0,0,0.1,0,0.1,0c0.5,0,0.7-0.2,0.7-0.6c0-0.4-0.2-0.7-0.6-0.8
		c-0.1,0-0.2,0-0.2,0c0-2.1-0.3-4.1-1.1-6.1l0,0c-0.4-0.9-0.7-1.9,0-2.7c2.5-3.1,0.7-6.3,0.3-9.5c-0.1,0.1-0.2,0.1-0.3,0.1
		c0,0,0-0.1,0-0.1c-0.2-1.2-1.2-1.6-2.1-2c-0.8-0.4-1.5-0.9-2.4-0.9c0,0,0,0,0,0c-0.6-0.7-1.6-0.1-2.2-0.8c-0.4,0-0.8-0.1-1.3-0.1
		l0,0.1c-1.1,0-2.2,0-3.4,0l0,0l0,0c-0.1,0-0.3,0-0.4,0c0,0,0,0,0,0c-0.1-0.1-0.2-0.3-0.4-0.4c-3.8-0.1-7.5-0.3-11.3,0.4
		c-0.1,0-0.3,0-0.4,0c-1.8,0.2-3.5,0.1-5.3,0.5c-0.1,0.1-0.1,0.2-0.2,0.3c-0.3,0-0.6,0-0.8,0l0,0c-1.3-0.2-2.5,0.3-3.8,0.4h0
		c-1,0.1-2,0.3-2.9,0.4c-0.1,0-0.3,0-0.4,0v0c-0.7,0-1.4,0-2.1,0c-0.5,0.6-1.1,0.3-1.7,0.4l0,0c-1.5,0.5-3.2,0.1-4.6,0.8l0,0
		c-0.6,0-1.2,0.1-1.7,0.4l0,0h0c-1,0.1-2-0.3-2.9,0.4c0,0,0,0,0,0c-2,0.5-4.1,0.3-5.9,1.2c-0.1,0-0.2,0-0.3,0l0,0
		c-3.1,0.3-6.2,0.9-9.2,1.7c-1.8,0.3-3.6,0.5-5.4,0.8h0c-0.4-0.1-0.9-0.1-1.3-0.2c0,0,0,0,0,0c0.2,0,0.4-0.1,0.6-0.1
		c3.7-0.8,7.4-1.9,11.1-2.6c0.7-0.1,1.4-0.3,1.8-1c0-0.1-0.1-0.2-0.2-0.3c0.1,0,0.1,0,0.2,0c0.7,0.6,1.4,0.5,2.2,0.3
		c2.4-0.6,4.8-0.8,7.2-1.6c0.6-0.3,1.1-0.5,1.7-0.8c2.6-0.5,5.2-1,7.8-1.6c2.5-0.6,2.9-1.9,1.5-3.9c-0.7,0-1.4,0-2,0c0,0,0,0,0,0
		c0-0.1-0.3-0.3-0.5-0.3c-1.4-0.1-2.8-0.1-4.2,0.3c-0.4,0-0.8,0-1.2,0c-2.2,0.5-4.6-0.1-6.8,0.8c-0.1,0.1-0.3,0.1-0.4,0
		c-1.8,0.5-3.7,0-5.5,0.9c-1,0-2-0.1-3,0.4c-0.3,0.2-0.7,0.3-1,0.4c-0.4,0-0.7,0.1-1.1,0.3c-0.2,0-0.5,0.1-0.7,0.1
		c-0.2,0.1-0.4,0.2-0.5,0.3c0,0.1-0.1,0.1-0.1,0.2c0-0.1-0.1-0.3-0.1-0.4c-0.5-0.2-1-0.1-1.5,0.3l0,0c-1.1,0.4-2.3,0.2-3.4,0.9l0,0
		c-2.1,0.6-4.3,0.7-6.3,1.7l0,0c-0.9,0.4-2.1,0.2-3,0.8c-0.1,0.1-0.2,0.1-0.3,0c-1.8,0.4-3.5,0.7-5.2,1.5c0,0.1-0.1,0.1-0.1,0.2
		c-0.4,0-0.7,0-1.1,0c-1.4,0.9-3.2,0.6-4.7,1.4c-0.2-0.1-0.4-0.1-0.6-0.2c-0.6,0.1-1.3-0.1-1.8,0.5c-0.1,0.1-0.2,0.1-0.3,0
		c-2,0.3-3.9,0.9-5.9,1.3c-0.1,0.1-0.2,0.1-0.4,0.2c-0.3-0.2-0.7-0.1-1,0.2c-0.1,0-0.2,0.1-0.4,0c-1.3,0.3-2.6,0.4-3.8,0.8l0,0
		c-1.2,0.5-2.7-0.1-3.8,0.8l0,0c-0.8,0.5-1.9-0.1-2.5,0.8c0,0,0,0.1,0,0.1c0-0.1,0-0.2-0.1-0.3c-0.4-0.2-0.8-0.1-1.1,0.2l0,0
		c-0.9,0.4-2,0.2-2.9,0.8c-0.3,0-0.5,0.1-0.8,0.1c-1,0.1-2,0.3-3,0.8c-0.1,0-0.3,0.1-0.4,0c-0.5-0.1-0.9,0.2-1.2,0.5
		c-0.6-0.3-1.2-0.1-1.8,0.3c-0.1,0-0.2,0-0.4,0c-2.3,0.5-4.6,0.7-6.7,1.7l0,0c-1.7,0.6-3.7,0.3-5.4,1.3c-0.3,0.1-0.5,0.2-0.8,0.1
		c-0.5-0.2-0.3-0.7-0.5-1.1c-0.4-0.7-0.9-0.9-1.6-0.5c-0.7,0.4-1.3,1-1.7,1.7c-0.1,0.2-0.3,0.4-0.2,0.6c0.1,0.3,0.1,0.6,0.2,1
		c-0.1,0-0.2-0.1-0.3-0.1c-0.3,0.1-0.7,0-1,0.2c0.5-1.1,0-2.5-1.3-3.2c-0.1-0.2-0.4-0.2-0.6-0.2c-0.9-0.2-1.6,0.6-2.4,0.5
		c-0.1,0,0,0.3,0.1,0.4c0,0.1,0,0.1,0,0.2c-0.3,0.4-0.7,0.8-0.5,1.5c0,0.4-0.1,0.8,0.3,1.1c0,0.1,0,0.3,0.1,0.4
		c0.1,0.2,0.3,0.4,0.4,0.5c0.1,0.1,0.1,0.1,0.2,0.2c-0.4,0.1-0.7,0.2-1,0.4c-0.1,0-0.2,0.1-0.4,0c-0.7,0.4-1.5,0.5-2.3,0.7
		c0,0,0-0.1-0.1-0.1c-0.1,0-0.3,0-0.4,0c-0.4-0.2-0.6,0-0.7,0.4c0,0,0,0.1,0,0.1c-0.3,0.1-0.6,0.3-0.8,0.6c-0.1,0-0.2,0.1-0.4,0
		c-1.5,0.3-2.9,0.9-4.2,1.6c-0.1,0-0.2,0.1-0.4,0c-0.7,0.4-1.6,0.2-2.1,0.8l0,0c-0.7,0.3-1.5,0.3-2.1,0.8c-0.4,0.2-0.8,0.3-1.2,0.5
		c-1.2,0.2-2.5,0.3-3.4,1.2l0,0c-0.7,0.6-1.8,0.1-2.5,0.9l0,0c-0.6,0.4-1.4,0.1-1.9,0.7c0,0,0,0,0,0c-0.2-0.1-0.4,0-0.6,0.1l0,0
		c-0.6,0.4-1.5,0.3-2.1,0.8c-0.1,0-0.3,0-0.4,0c-0.8,0.3-1.8,0.4-2.5,0.8l0,0c-0.8,0.3-1.8,0.3-2.5,0.8c-0.1,0-0.3,0-0.4,0
		c-0.8,0.3-1.7,0.4-2.5,0.8c-0.1,0-0.3,0-0.4,0c-1.7,0.3-3.3,0.9-4.9,1.3c-0.7,0.2-1.4,0.3-1.4,1.2c-0.1,0-0.1,0.1-0.2,0.1
		c0-0.1,0-0.2,0-0.3c-0.5-0.3-1-0.1-1.5,0.2c-0.1,0-0.3,0-0.4,0c-0.8,0.4-1.9,0-2.5,0.8c-0.1,0-0.3,0-0.4,0
		c-1.9,0.6-4.2,0.2-5.9,1.7l0,0c-0.6,0.4-1.5,0.3-2.1,0.9c-0.4,0.6-1.6,0.1-1.7,1.2c0,0,0,0.1-0.1,0.1c-0.1-0.1-0.2-0.2-0.4-0.3
		c-2.4,1.4-3.2,4.3-2.1,7.8c0,0.1,0,0.3,0,0.4c0.2,1.1,0.1,2-0.5,3c-1.3,2.1-2.1,4.3-1.9,6.8c0.2,1.5,0.6,3,1,4.5
		c0.4,1.6,0.5,3.1-0.3,4.7l0,0c-0.5,1-0.2,2.1-0.2,3.1c0.1,1.1,0,2.1-0.8,2.9c-1.1,1.1-1.1,2.3-0.7,3.7c0,0.1,0,0.3,0,0.4
		c0.4,0.4,0,1,0.5,1.4c0.2,0,0.3-0.1,0.3-0.1c-0.2,0.1-0.3,0.3-0.4,0.4c0,1.4,0,2.8,1.2,3.7l0,0c0.1,0.1,0.3,0.1,0.4,0
		c0.6,0.8,1.1,1.7,1.7,2.5c1,0.9,0.8,2.1,0.8,3.2c-0.1,0-0.1,0-0.2,0.1c-1.9,1.4-1.6,3.6-1.9,5.5l0,0c-0.5,0.5-0.2,1.1-0.4,1.7l0,0
		c-0.4,1-0.3,2,0,2.9c0,0.5-0.1,0.9,0.4,1.3c0.4,1,0.5,2,0.1,3.2c-0.4,1.1-0.7,2.3-0.1,3.5l0,0c0.5,0.7,0.6,1.6,1.3,2.1l0,0
		c2.2,1.5,4.9,0.3,7,1.1c-1,0.5-2.4,0.7-3.1,2c-0.2,0.6-0.3,1.2-0.5,1.8c-1,1.8-2.2,3.4-4.3,4.3c-0.4,0.7-0.8,1.4-1.3,2.1
		c-0.3,2,0.3,3.8,1.3,5.4c0.2,0,0.4,0,0.6,0c0,0,0.1,0.1,0.1,0.1c0.1,0.1,0.2,0.1,0.3,0.2c0.2,0.3,0.6,0.5,1,0.5
		c0,0,0.1,0.1,0.1,0.1c-0.2,0.6,0.6,0.4,0.8,0.8l0,0c0.4,0.8,0.3,1.6,0,2.5c-0.3,0.2-0.4,0.5-0.4,0.9c-0.9,0.6-0.7,1.8-1.2,2.5
		c-0.6,0.7-1.1,1.6-1.3,2.5l0,0c-1.1,0.9-1.1,2.2-1.7,3.3l0,0c-0.3,0.2-0.2,0.6-0.4,0.8l0,0c-1,1.2-1.5,2.7-1.7,4.2l0,0
		c-0.3,1-0.3,2,0,2.9c0,0.1,0,0.3,0,0.4c0.7,2.7,2,3.8,4.9,3.8c1.2,0,2.3-0.1,3.5-0.4c0.5,0,1.1,0,1.6,0c0.7-0.4,1.5-0.1,2.2-0.2
		c1.3-0.1,2.6,0.3,3.7-0.6c0.3,0,0.5,0,0.8,0c2.2-0.6,4.6,0,6.7-0.8l0.2,0l0.2,0c2.2-0.5,4.6,0.2,6.7-0.8c0.3,0,0.5,0,0.8,0
		c0.4-0.3,0.8-0.2,1.2-0.2c5,0,9.9-1.3,14.8-2.3l0.2,0l0.2,0c1.5-0.5,3.2,0,4.6-0.8c0.1,0,0.3,0,0.4,0c3.1-0.3,6.2-1.1,9.2-1.7
		c0.6-0.5,1.7,0.4,2.2-0.6c0-0.1-0.1-0.1-0.1-0.2c0,0,0,0,0,0c0.7,0.4,1.4,0.3,2.1,0l0.2,0l0.2,0c1.5-0.4,3.2-0.2,4.6-0.8l0.2,0
		l0.2,0c0.8-0.5,2,0.6,2.6-0.6c0-0.1,0-0.2,0-0.2c5.5-0.2,10.9-1.3,16.3-1.8c8.8-0.8,17.7-1.9,26.6-2c0.6,0,1.1,0.1,1.6-0.4l0,0h0
		c0.7,0,1.4,0,2,0c0.1-0.1,0.2-0.2,0.2-0.3c0.1,0.2,0.1,0.4,0.2,0.7c0.2,0.1,0.5,0.1,0.7,0.1c-4.4,0.4-8.7,1.2-13.1,1.6
		c-0.2,0.1-0.4,0.1-0.6,0.2c-0.5-0.3-1-0.3-1.6-0.4c-3.7-0.2-7.3,0.5-10.9,0.6c-0.9,0-2,0-2.7,0.9c0,0,0,0-0.1,0.1
		c0-0.1-0.1-0.2-0.2-0.4c-2.5-0.7-5,0-7.5,0.5c0,0.4-0.1,0.6-0.2,0.6c0,0,0,0,0,0c-0.1,0-0.1,0-0.2,0c-0.2-0.1-0.5-0.4-0.7-0.4
		c-0.7-0.2-1.4-0.1-2.1,0c-5.4,0.7-10.6,2.3-15.9,3.8c-0.1,0-0.3,0-0.4,0c-0.9,0.4-2.1,0.2-3,0.8l0,0c-0.9,0.4-2.1,0.1-2.9,0.8
		c-0.1,0-0.3,0-0.4,0c-0.9,0.5-2.1,0.1-3,0.8l0,0c-0.6,0.4-1.5,0.1-2,0.7c0,0-0.1,0-0.1,0c-0.3,0-0.6,0-0.8,0.2c-0.1,0-0.3,0-0.4,0
		c-1.1,0.3-2.1,0.5-3.2,0.8c-0.1,0-0.1,0-0.2,0c-0.1,0-0.3,0-0.4,0.1c0,0,0,0,0,0c-0.3,0.1-0.6,0.1-0.9,0.2c0-0.5,0-1-0.6-1
		c-0.6,0-0.6,0.8-0.8,1.2c0,0.1-0.1,0.2-0.1,0.3c-0.1,0-0.1,0-0.2,0.1l0,0c-3.2,0.7-6.4,1.3-9.5,2.2c0.1-0.2,0.3-0.4,0.3-0.7
		c0-0.6-0.4-1-0.8-1c-0.4,0-0.8,0.3-0.8,0.6c0,0.5,0.3,1.1,0.6,1.3c-0.1,0-0.2,0.1-0.3,0.1c-0.3,0-0.5,0-0.8,0
		c-1.1,0.4-2.4,0-3.4,0.8c-0.3,0-0.5,0-0.8,0c-1.1,0.4-2.3,0.1-3.4,0.6c-0.1,0-0.3,0.1-0.4,0.2c0,0,0,0,0,0c-0.3,0-0.5,0-0.8,0
		c-1.1,0.2-2.2,0.3-3.2,0.5c-0.1-0.2-0.2-0.3-0.5-0.3c-0.3,0-0.5,0.2-0.5,0.5c-0.1,0-0.3,0.1-0.4,0.1c-0.1,0-0.3,0-0.4,0
		c-1.7,0.4-3.5,0.2-5.3,0.3c-1.2,0.1-2.5-0.2-3.1,1.3c-0.6,0.4-0.1,0.9,0,1.3c1,0.9,2,1.6,3.4,1.7c0.2,0.5,1,0,1.3,0.4l0.2,0l0.2,0
		c2.8,0.6,5.6,0.7,8.4,0c0.3,0,0.5,0,0.8,0c1.7-0.4,3.4-0.3,5.1-0.8c0.3,0,0.5,0,0.8,0c0.1,0,0.1,0,0.2-0.1c0,0,0-0.1,0-0.1
		c1.4,0,2.8,0,4.1-0.6c0.3,0,0.5,0,0.8,0c0.8-0.1,1.6-0.2,2.3-0.3c0,0.3,0.1,0.5,0.3,0.8c0.1,0.2,0.3,0.3,0.4,0.5
		c0.4-0.2,0.9-0.2,1.3-0.2c0.1-0.1,0.1-0.2,0.2-0.2c0-0.2,0-0.3,0-0.5c0.1-0.2,0.1-0.5,0.1-0.7c1.1-0.2,2.2-0.5,3.2-1.1
		c0.3,0,0.5,0,0.8,0c1.1-0.4,2.4-0.1,3.4-0.8l0.2,0l0.2,0c0.8-0.4,1.8-0.1,2.6-0.8c0.3,0,0.5,0,0.8,0c1.1-0.6,2.4-0.1,3.4-0.8l0,0
		c0.3-0.5,1.3,0.1,1.4-0.8c0.4,0.2,0.8,0.2,1.1,0l0.2,0l0.2,0c1.1-0.5,2.4,0,3.4-0.8l0,0c0.9-0.5,2.1-0.1,2.9-0.8l0,0
		c2.2-0.4,4.5-0.9,6.6-1.6c0.1,0.1,0.3,0.1,0.4,0.2l0,0c0.1,0.1,0.2,0.1,0.2,0.2c0.5,0.3,0.9-0.1,1.4-0.2l0,0c0-0.1,0-0.3,0-0.4
		c0.1,0,0.1-0.1,0.2-0.1c0.6-0.1,1.2-0.2,1.7-0.5l0,0c1.1-0.4,2.3-0.1,3.4-0.8c0.3,0,0.5,0,0.8,0c1.3-0.4,2.6-0.3,3.8-0.8
		c0.3,0,0.5,0,0.8,0c0.9-0.6,2.3,0.9,3-0.7c0,0-0.1-0.1-0.1-0.1c0,0,0,0,0,0c0.8,0.8,1.7,0.4,2.5,0c0.5,0,1.1,0,1.6,0
		c0.7-0.4,1.4-0.1,2-0.2c2.7-0.2,5.4-0.1,8.1-0.6l0.2,0l0.2,0c0.8-0.4,1.6-0.1,2.4-0.2c0.4-0.1,1,0.2,1.3-0.1c0.3,0,0.5,0,0.8,0
		c1.1,0,2.2-0.1,3.3-0.2c0.1,0.3,0.3,0.6,0.5,0.7c0.1,0.1,0.3,0.1,0.3,0.2c-0.2,0.7,0.2,1.3,0,2c-0.1,0.4-0.3,0.7-0.8,0.6
		c-0.2,0.1-0.2,0.3-0.1,0.4c0.1,0.1,0.3,0.2,0.2,0.5c-0.4,1,0.6,1.1,1.1,1.6c0.2,0.1,0.4,0.1,0.5,0.3l0,0c0.2,0.2,0.5,0,0.7,0.2
		c0.2,0.2,0,0.5,0.2,0.7c0.1,0.1,0.1,0.2,0.2,0.2l0,0c0.1,0.1,0.1,0.1,0.2,0.2c0,0,0.1,0.1,0,0.2c0,0.1,0.1,0.2,0.2,0.3l0,0
		c0,0,0,0,0,0c0.1,0.1,0.1,0.2,0.2,0.2l0,0c0.1,0.1,0.1,0.2,0.2,0.2l0,0c0.1,0.1,0.3,0.1,0.4,0c0.2-0.1,0.3-0.2,0.3-0.4
		c0-0.1,0-0.2,0-0.3c-0.1-0.2-0.2-0.3-0.3-0.5c0-0.1-0.1-0.1,0-0.2c-0.1-0.1-0.1-0.3-0.2-0.5l0,0c-0.1-0.2-0.1-0.3,0-0.5
		c0.2-0.2,0-0.5,0.2-0.7l0,0c0.3-0.5,0.1-0.8-0.2-1.1l0,0c-0.3-0.2,0.1-0.7-0.5-0.7c-0.1,0-0.2,0-0.2,0c-0.1-0.1-0.3-0.1-0.5-0.2
		l0,0c-0.6-0.1-0.1,0.6-0.4,0.7c0,0.2,0,0.4-0.1,0.6c-0.1,0.1-0.1,0.1-0.2,0v0c-0.1-0.1-0.1-0.2,0-0.3l0-0.1c0-0.2-0.3-0.2-0.4-0.3
		c0-0.2,0-0.3,0-0.5c0-0.1,0-0.1,0-0.2c-0.1-0.3,0.2-0.6,0.2-0.9c0.2-0.6-0.7-0.7-0.7-1.2c-0.1-0.5-0.2-1.1-0.3-1.6
		c2-0.2,4-0.4,6.1-0.5c2.5-0.1,5-0.2,7.4-0.6l0.2,0l0.2,0c0.8-0.4,1.6-0.1,2.4-0.2c0.5-0.1,1.3,0.3,1.7-0.2c0.1,0,0.1,0,0.2,0
		c0,0.3-0.4,0.6-0.6,0.9c0,0.2,0,0.3,0,0.5c0,0.2,0,0.4,0.2,0.5l0,0c-0.1,0.3-0.4,0.5-0.2,0.9c0,0.2,0,0.3,0,0.5
		c-0.3,0.6-0.7,1.2-0.2,1.8c0,0.2-0.1,0.4-0.3,0.6c-0.2,0.3-0.2,0.5,0.1,0.8c0.1,0.6,0.2,1.2,0.2,1.8c0,0,0,0.1,0,0.2
		c0,0.1,0.1,0.1,0.2,0.1c0,0.1,0,0.1,0,0.2c0.1,0,0.2,0.1,0.2,0.2c0.2,0.1,0.5,0.3,0.5,0.6c0.1,0.1,0.1,0.1,0.2,0.2
		c0.1,0,0.2,0,0.3,0c-0.1,0.2-0.2,0.4,0.1,0.5c0.2,0.1,0.5,0.1,0.7,0c0,0,0.1,0,0.1,0c0,0.1,0,0.1,0,0.2c0.5,0.1,0.8,0.4,1,0.9
		c0.1,0.1,0.1,0.2,0.2,0.2c0.1,0,0.3,0.1,0.4,0.1c0.2,0.2,0.5,0.2,0.7,0.2c0.2,0,0.5,0,0.7,0l0,0c0,0.1,0,0.1,0,0.2
		c0.3,0,0.6,0,0.9,0c0.3,0.3,0.7,0.3,1.1,0.2c0.3-0.2,0.7-0.5,1.1-0.5c0-0.1,0.1-0.2,0.3-0.2c0.1-0.1,0.2-0.2,0.2-0.2
		c0.2,0,0.3,0,0.5,0c0.1,0,0.1,0,0.2,0c0.1,0,0.1,0,0.2,0c0-0.1,0-0.3,0-0.4c0.1-0.4,0.1-0.9,0.7-0.9c0.1-0.2,0.2-0.2,0.4-0.3
		c0.1-0.2,0.3-0.2,0.4-0.2c0.1-0.1,0.1-0.1,0.2-0.2c0-0.2,0.1-0.4,0.2-0.5c0-0.1,0.1-0.2,0.2-0.2c0-0.1,0-0.1,0.1-0.2
		c0.2,0,0.4,0,0.6,0c0-0.1,0-0.1,0-0.2c0.1,0,0.1,0,0.2,0c0.1-0.1,0.2-0.3,0.3-0.4c0.2-0.1,0.3-0.3,0.4-0.5c0.1,0,0.2-0.1,0.3-0.2
		c0.1-0.1,0.2-0.2,0.4-0.3c0-0.2-0.2-0.5,0-0.7c0.1-0.8,0.2-1.6,0.3-2.3c0-0.1-0.1-0.3-0.2-0.4c0-0.1-0.1-0.2-0.2-0.2
		c0-0.1-0.1-0.2-0.2-0.2c0-0.1-0.1-0.2-0.2-0.2c0,0,0,0,0,0c-0.1-0.4-0.2-0.7-0.3-1.1c-0.1,0-0.1,0-0.2,0c-0.3-0.8-0.6-1.5-0.7-2.4
		c0-0.2-0.1-0.3-0.2-0.4c0.1,0,0.2,0,0.3,0c0.5-0.5,1.3-0.3,1.9-0.4c0.3,0,0.5,0,0.8,0.1c1.1,0.2,2.2-0.1,3.2-0.5c0.3,0,0.5,0,0.8,0
		c0.6-0.4,1.4-0.1,2-0.2c1.7-0.2,3.5,0.1,5.1-0.6c0.3,0,0.5,0,0.8,0c0.7-0.4,1.5-0.2,2.3-0.2c2.1,0.2,4.2,0.1,6.2-0.6
		c0.5,0,1.1,0,1.6,0c1-0.6,2.1,0.3,3.1-0.5c0-0.1-0.1-0.2-0.1-0.3c0,0,0.1,0,0.1,0.1c1.2,0.7,2.5,0.2,3.7,0l0.2,0l0.2,0
		c0.1-0.1,0.3-0.1,0.4-0.2c0,0.3-0.4,0.5-0.2,0.8c0.4,0.6,0.3,1.3,0.5,1.9c0,0.8-0.3,1.5,0,2.3c0,0.1,0.1,0.2,0.1,0.4
		c0.1,0,0.1,0,0.2,0c0.1,0.2,0.2,0.4,0.4,0.5c0.1,0.2,0.2,0.4,0.4,0.5c0.1,0.2,0.3,0.4,0.3,0.7l0,0c0,0.1,0,0.2,0,0.3
		c0.1,0,0.2,0,0.4,0c-0.2,0.2-0.3,0.4,0.1,0.7c0.1,0,0.1,0,0.2,0c0.4-0.2,0.8,0.4,1.1,0h0c0.2,0.2,0.5,0,0.7,0.2
		c0.1,0.1,0.2,0.1,0.2,0.2c0.2,0,0.5,0,0.7,0c0.4,0.3,1-0.1,1.4,0.2c0.2,0.2,0.3,0.3,0.5,0.5c0.1,0.1,0.2,0.1,0.2,0
		c0.1-0.1,0.1-0.3,0.2-0.5c0.1,0,0.1,0,0.2,0c0.1-0.2,0.1-0.4,0.3-0.5c0-0.3,0.2,0,0.2,0c0.1,0,0.3,0,0.4-0.1
		c0.2-0.1,0.3-0.2,0.5-0.2c0.1-0.1,0.1-0.1,0.1-0.2c0.1,0,0.1,0,0.2,0c0-0.1,0-0.1,0-0.2c-0.1-0.1-0.2-0.2-0.3-0.3
		c0-0.3,0-0.5,0-0.8c0.2-0.1,0.5,0,0.6-0.3l0,0c0.2-0.1,0.2-0.2,0.3-0.4c0.7-0.3,1.5,0.1,2.2-0.1c0.3-0.2,0.6-0.4,0.9-0.7
		c0.1-0.1,0.1-0.2,0.2-0.3c-0.1-0.2,0-0.4,0-0.6c0.1,0,0.1-0.1,0.2-0.1c0-0.1,0-0.1,0-0.2c0-0.1,0-0.1,0-0.2c0,0,0,0,0,0
		c0-0.1,0-0.2,0.1-0.2c0.1,0,0.1,0,0.2,0c0.1-0.4,0-0.7,0-1.1c-0.2-0.1-0.2-0.3-0.2-0.5c-0.1,0-0.1,0-0.2-0.1
		c-0.2-1.8-0.6-2.2-2.3-2.3c-0.1,0-0.1,0-0.2,0c0-0.1-0.1-0.3-0.1-0.4c-0.1-0.1-0.2-0.2-0.4-0.3c0-0.1-0.1-0.3-0.1-0.4
		c0,0,0-0.1-0.1-0.1c0.2-0.1,0.4-0.2,0.6-0.4l0.2,0l0.2,0c1.2-0.4,2.6-0.4,3.4-1.6l0,0c0.2-0.2,0.5-0.2,0.8-0.3
		c2.1-0.9,3.8-3.8,2.9-5.3C243.5,197.6,243.2,196.5,243.9,195.2z M55.9,192.1C55.9,192.1,55.9,192.1,55.9,192.1
		C55.9,192.1,55.9,192.1,55.9,192.1C55.9,192.1,55.9,192.1,55.9,192.1z M116.2,208.1C116.2,208.1,116.2,208.1,116.2,208.1
		C116.2,208.1,116.2,208.1,116.2,208.1C116.2,208.1,116.2,208.1,116.2,208.1z"/>
</g>
</svg>
