<?xml version="1.0" encoding="utf-8"?>
<!-- Generator: Adobe Illustrator 18.0.0, SVG Export Plug-In . SVG Version: 6.00 Build 0)  -->
<!DOCTYPE svg PUBLIC "-//W3C//DTD SVG 1.1//EN" "http://www.w3.org/Graphics/SVG/1.1/DTD/svg11.dtd">
<svg version="1.1" id="Layer_1" xmlns="http://www.w3.org/2000/svg" xmlns:xlink="http://www.w3.org/1999/xlink" x="0px" y="0px"
	 width="300px" height="300px" viewBox="0 0 300 300" style="enable-background:new 0 0 300 300;" xml:space="preserve">
<path d="M94.1,30.6c-24.7,0.9-49.4,8.9-68.5,24.6C15,64,6,75.4,2.2,88.7c-6.3,21.9,2,45.3,12.7,65.4c22.2,41.4,55.7,76.7,96,100.9
	c6,3.6,12.1,7.1,18.8,9.1c32.4,9.6,53.4,3.7,65.4,0.7c11.2-2.8,21.6-8.4,31.3-14.7c29.3-18.7,55.2-44.6,67.2-77.2
	c11.9-32.6,7.5-72.5-16.7-97.4c-12.8-13.3-30.1-21.6-48-26.4c-20.9-5.6-41.8-5.8-63.1-7.8C141.5,39,119.1,29.7,94.1,30.6z"/>
</svg>
