<?xml version="1.0" encoding="utf-8"?>
<!-- Generator: Adobe Illustrator 18.0.0, SVG Export Plug-In . SVG Version: 6.00 Build 0)  -->
<!DOCTYPE svg PUBLIC "-//W3C//DTD SVG 1.1//EN" "http://www.w3.org/Graphics/SVG/1.1/DTD/svg11.dtd">
<svg version="1.1" id="Layer_1" xmlns="http://www.w3.org/2000/svg" xmlns:xlink="http://www.w3.org/1999/xlink" x="0px" y="0px"
	 width="300px" height="300px" viewBox="0 0 300 300" style="enable-background:new 0 0 300 300;" xml:space="preserve">
<path d="M288.3,48.7c-8.4-20.7-33.4-29.9-55.8-29.5c-22.4,0.4-44.1,7.6-66.4,9c-19.2,1.2-38.5-2.1-57.7-0.8
	c-39.1,2.5-76.4,24.7-97.2,57.9C4,96.6-1.4,109.8,0.3,123C3,144.6,23.4,159.8,44,166.9c20.6,7.2,42.8,9,62.7,18
	c18.2,8.2,33.3,21.9,47.3,36.1c14,14.2,27.4,29.2,43.6,40.9c16.2,11.7,35.7,20.1,55.6,18.7c19.9-1.3,39.8-14.1,45.2-33.3
	c4.9-17.2-2.1-35.5-10.2-51.5c-8.1-16-17.6-32.2-18-50.1c-0.4-16.8,7.3-32.5,13.5-48.1C289.9,82,294.5,64.2,288.3,48.7z"/>
</svg>
