<?xml version="1.0" encoding="utf-8"?>
<!-- Generator: Adobe Illustrator 18.0.0, SVG Export Plug-In . SVG Version: 6.00 Build 0)  -->
<!DOCTYPE svg PUBLIC "-//W3C//DTD SVG 1.1//EN" "http://www.w3.org/Graphics/SVG/1.1/DTD/svg11.dtd">
<svg version="1.1" id="Layer_1" xmlns="http://www.w3.org/2000/svg" xmlns:xlink="http://www.w3.org/1999/xlink" x="0px" y="0px"
	 width="300px" height="300px" viewBox="0 0 300 300" style="enable-background:new 0 0 300 300;" xml:space="preserve">
<g>
	<path d="M115.7,36.4c0,0-60.4-18-95,4.1c-36,23.1-6.9,106.5,12,192.2c18.9,85.8,74.7,75.6,118,45.2
		c43.3-30.4,168.7-54.4,106.5-138.8C195,54.9,115.7,36.4,115.7,36.4z"/>
	<path d="M245.2,0c-29.5,0-53,15.2-53,44.7c0,29.5,16.1,46.6,45.6,46.6s58.6-12.4,58.6-42C296.4,19.8,274.8,0,245.2,0z"/>
	<circle cx="261.8" cy="108.1" r="15.9"/>
</g>
</svg>
