<?xml version="1.0" encoding="utf-8"?>
<!-- Generator: Adobe Illustrator 18.0.0, SVG Export Plug-In . SVG Version: 6.00 Build 0)  -->
<!DOCTYPE svg PUBLIC "-//W3C//DTD SVG 1.1//EN" "http://www.w3.org/Graphics/SVG/1.1/DTD/svg11.dtd">
<svg version="1.1" id="Layer_1" xmlns="http://www.w3.org/2000/svg" xmlns:xlink="http://www.w3.org/1999/xlink" x="0px" y="0px"
	 width="300px" height="300px" viewBox="0 0 300 300" style="enable-background:new 0 0 300 300;" xml:space="preserve">
<g>
	
		<image style="overflow:visible;opacity:0.15;" width="307" height="250" xlink:href="2CD7328D6A5E3848.png"  transform="matrix(1 0 0 1 -3 26)">
	</image>
	<g>
		<g>
			<path d="M292.6,54.9c-6.3-13.1-18.4-24.1-32.8-26.2c-17.4-2.5-34,8-47.4,19.4c-13.4,11.5-26.2,24.8-43.1,29.9
				c-30.2,9.1-61.4-10.8-92.9-11c-20.6-0.1-41,8.7-55.1,23.8c-52.2,56.1-0.1,146.2,59.7,170.9c48.3,20,106.1,8.7,148.4-22
				c40.3-29.3,65.1-80.8,69.7-130.4c0.4-3.9,0.6-7.8,0.7-11.7C300.3,83,299,68,292.6,54.9z"/>
		</g>
	</g>
</g>
</svg>
