<?xml version="1.0" encoding="utf-8"?>
<!-- Generator: Adobe Illustrator 18.0.0, SVG Export Plug-In . SVG Version: 6.00 Build 0)  -->
<!DOCTYPE svg PUBLIC "-//W3C//DTD SVG 1.1//EN" "http://www.w3.org/Graphics/SVG/1.1/DTD/svg11.dtd">
<svg version="1.1" id="Layer_1" xmlns="http://www.w3.org/2000/svg" xmlns:xlink="http://www.w3.org/1999/xlink" x="0px" y="0px"
	 width="300px" height="300px" viewBox="0 0 300 300" style="enable-background:new 0 0 300 300;" xml:space="preserve">
<g>
	<g>
		<path d="M0.1,213.3c-0.9,10.5,6.9,20,17.4,21.1l110.7,11.5c10.5,1.1,12.4,7.4,4.1,14l-22.6,18.2c-8.2,6.6-6.9,8.9,3,5.1l84.1-32.6
			c9.8-3.8,26.5-7.5,37-8.3l48.3-3.3c10.5-0.7,18.6-9.9,17.9-20.5l-8.7-146.7c-0.7-10.5-9.5-21.7-19.6-24.9l-92.6-29.1
			c-10.1-3.2-26.8-4-37.1-1.8L32.6,39c-10.3,2.2-19.6,12.5-20.5,23L0.1,213.3z"/>
	</g>
</g>
</svg>
