<?xml version="1.0" encoding="utf-8"?>
<!-- Generator: Adobe Illustrator 18.0.0, SVG Export Plug-In . SVG Version: 6.00 Build 0)  -->
<!DOCTYPE svg PUBLIC "-//W3C//DTD SVG 1.1//EN" "http://www.w3.org/Graphics/SVG/1.1/DTD/svg11.dtd">
<svg version="1.1" id="Layer_1" xmlns="http://www.w3.org/2000/svg" xmlns:xlink="http://www.w3.org/1999/xlink" x="0px" y="0px"
	 width="300px" height="300px" viewBox="0 0 300 300" style="enable-background:new 0 0 300 300;" xml:space="preserve">
<g>
	<g>
		
			<image style="overflow:visible;opacity:0.15;" width="274" height="233" xlink:href="6107B03CAA1E95C9.png"  transform="matrix(1 0 0 1 0 43)">
		</image>
		<g>
			<path d="M246.5,99.4C214.2,70,162.2,81.1,124.1,65.1c-17.9-7.5-34.7-21.3-55-19.6c-13.3,1.1-25,7.2-34.6,16
				c-8.7,8-15.6,18.3-20.1,29C8,105.5,5.3,121.8,3.5,138.1c-6,52.5,10.3,113.1,66.7,129.3c37.9,10.8,78.9-0.3,113.6-16.3
				C234.7,227.4,306.4,154,246.5,99.4z"/>
		</g>
	</g>
	<g>
		
			<image style="overflow:visible;opacity:0.15;" width="83" height="79" xlink:href="6107B03CAA1E95CB.png"  transform="matrix(1 0 0 1 205 201)">
		</image>
		<g>
			<path d="M217.7,246.1c-5.6,5.1-11.6,11.8-9.9,19.1c1.3,5.3,6.5,8.9,11.8,9.7c5.4,0.8,10.8-0.8,15.8-2.8
				c17.3-7.1,55.3-37.7,47.2-60.7C272.9,183.6,226.2,238.4,217.7,246.1z"/>
		</g>
	</g>
	<g>
		
			<image style="overflow:visible;opacity:0.15;" width="62" height="62" xlink:href="6107B03CAA1E95CE.png"  transform="matrix(1 0 0 1 143 -2)">
		</image>
		<g>
			<path d="M156.7,50.3c9.1,6.6,22.3,7,31.8,0.9c23-14.8,8.8-46.9-15.1-50.8C146.1-4.1,136.6,35.6,156.7,50.3z"/>
		</g>
	</g>
	<g>
		
			<image style="overflow:visible;opacity:0.15;" width="31" height="31" xlink:href="6107B03CAA1E95CF.png"  transform="matrix(1 0 0 1 107 273)">
		</image>
		<g>
			<path d="M114.6,277.7c-5.3,3.3-7.2,11.1-4,16.5c8.2,13.8,29.4,0.5,20.6-12.9C127.8,276,119.9,274.3,114.6,277.7z"/>
		</g>
	</g>
	<g>
		
			<image style="overflow:visible;opacity:0.15;" width="35" height="34" xlink:href="6107B03CAA1E95CA.png"  transform="matrix(1 0 0 1 267 71)">
		</image>
		<g>
			<path d="M297.4,83.7c-1.3-6-7.6-10.6-13.7-10.1c-0.7,0.1-1.5,0.2-2.2,0.4c-6.8,1.8-12.8,8.9-11.4,15.9
				c1.4,7.2,9.5,12.4,16.7,10.7C293.9,98.9,298.9,90.9,297.4,83.7z"/>
		</g>
	</g>
</g>
</svg>
