<?xml version="1.0" encoding="utf-8"?>
<!-- Generator: Adobe Illustrator 18.0.0, SVG Export Plug-In . SVG Version: 6.00 Build 0)  -->
<!DOCTYPE svg PUBLIC "-//W3C//DTD SVG 1.1//EN" "http://www.w3.org/Graphics/SVG/1.1/DTD/svg11.dtd">
<svg version="1.1" id="Layer_1" xmlns="http://www.w3.org/2000/svg" xmlns:xlink="http://www.w3.org/1999/xlink" x="0px" y="0px"
	 width="300px" height="300px" viewBox="0 0 300 300" style="enable-background:new 0 0 300 300;" xml:space="preserve">
<path d="M113.2,62.9c-16.1,3-32.6,3.5-48.7,6.4C42.6,73.1,21.7,79.6,9.9,99.9c-11.5,19.8-13.6,46-3.4,66.7
	c7.4,15,19.1,29.3,33.2,38.2c18.1,11.4,38,20,58.8,25.4c22.6,5.9,46.7,8.3,66.5,20.5c10.4,6.4,19.2,15.2,29.5,21.7
	c22.1,13.8,51.9,15.5,74.4,2.3s35.7-41.5,29.5-66.8c-3.9-15.9-14.5-29.4-20.4-44.7c-5-13.1-6.5-27.6-4.3-41.5
	c2.3-14.3,8.4-27.8,9.8-42.3c1.2-12.1-3.1-27.5-9.8-37.7c-13.7-20.7-38.6-28.1-62.1-24.4c-17.7,2.8-35.2,11.7-50,21.6
	c-7,4.7-12.5,10.9-20.3,14.9c-8,4.1-16.7,6.8-25.5,8.6C115.1,62.5,114.1,62.7,113.2,62.9z"/>
</svg>
