<?xml version="1.0" encoding="utf-8"?>
<!-- Generator: Adobe Illustrator 18.0.0, SVG Export Plug-In . SVG Version: 6.00 Build 0)  -->
<!DOCTYPE svg PUBLIC "-//W3C//DTD SVG 1.1//EN" "http://www.w3.org/Graphics/SVG/1.1/DTD/svg11.dtd">
<svg version="1.1" id="Layer_1" xmlns="http://www.w3.org/2000/svg" xmlns:xlink="http://www.w3.org/1999/xlink" x="0px" y="0px"
	 width="300px" height="300px" viewBox="0 0 300 300" style="enable-background:new 0 0 300 300;" xml:space="preserve">
<g>
	<path d="M156.4,37.2v146.3c0,6.5,7,10.6,12.7,7.3l126.7-73.2c5.6-3.3,5.6-11.4,0-14.6L169,29.9C163.4,26.6,156.4,30.7,156.4,37.2z"
		/>
	<path d="M76.4,74.1v37.8c0,6.5,7,10.6,12.7,7.3l32.7-18.9c5.6-3.3,5.6-11.4,0-14.6L89.1,66.8C83.4,63.5,76.4,67.6,76.4,74.1z"/>
	<path d="M143.6,262.8V116.5c0-6.5-7-10.6-12.7-7.3L4.2,182.3c-5.6,3.3-5.6,11.4,0,14.6L131,270.1
		C136.6,273.4,143.6,269.3,143.6,262.8z"/>
</g>
</svg>
