<?xml version="1.0" encoding="utf-8"?>
<!-- Generator: Adobe Illustrator 18.0.0, SVG Export Plug-In . SVG Version: 6.00 Build 0)  -->
<!DOCTYPE svg PUBLIC "-//W3C//DTD SVG 1.1//EN" "http://www.w3.org/Graphics/SVG/1.1/DTD/svg11.dtd">
<svg version="1.1" id="Layer_1" xmlns="http://www.w3.org/2000/svg" xmlns:xlink="http://www.w3.org/1999/xlink" x="0px" y="0px"
	 width="300px" height="300px" viewBox="0 0 300 300" style="enable-background:new 0 0 300 300;" xml:space="preserve">
<g>
	<g>
		<path d="M247.6,236.3c-6.2-0.9-12.5-0.1-18.7,0.7c-13.7,1.8-26.2,3.6-39.5,6.9c-5.5,1.4-12.1,3.8-17.4,5.7
			c-1.7,0.6-3.4,1.3-4.8,2.5c-1.3,1.2-2.2,3.1-1.8,4.9c0.5,2,2.5,3.3,4.5,3.6c2,0.3,4-0.2,6-0.6c16.6-3.7,34.4-4.9,50.4,1
			c4.5,1.6,8.7,3.8,13.2,5.5c4.5,1.7,9.2,2.9,13.9,2.4c4.7-0.4,9.5-2.7,12.1-6.6c3.4-5.3,2.3-12.6-1.6-17.5
			C260.1,239.8,253.9,237.1,247.6,236.3z"/>
		<circle cx="152.8" cy="262.7" r="5.1"/>
		<circle cx="136.6" cy="270" r="3.3"/>
		<path d="M24.5,196.1c8.2-8.8,19.5-28.9,14.3-28.9c-1.6,0-8.2,3.6-20.7,15.2C5.7,194,16.2,204.9,24.5,196.1z"/>
		<circle cx="7.2" cy="211.7" r="7.2"/>
		<circle cx="271.5" cy="233.2" r="5.9"/>
		<circle cx="154.9" cy="24.1" r="7.5"/>
		<circle cx="177.5" cy="26.5" r="4.9"/>
		<path d="M278.3,115.5c-15-14.8-35.4-22.8-55.8-28.1c-3.7-1-7.5-1.8-11.3-2.7c-13.2-3-25.5-9.4-35.4-18.7c-0.1-0.1-0.1-0.1-0.2-0.2
			c-10.7-10.1-19.8-22-32.1-30.1c-17.4-11.4-40.6-13.8-59.7-5.4c-19.1,8.3-33.3,27.3-35.3,48c-2.4,24.8,11.5,49.6,6.6,74.1
			c-5.9,30.2-38.8,51.6-39.1,82.3c-0.2,15.2,8.4,29.8,20.9,38.5c12.5,8.6,28.4,11.6,43.5,9.6c22.9-3,43-16.3,63.8-26.3
			c22.4-10.8,46.5-18.1,71.1-21.6c16.7-2.3,34.1-3,49.3-10.4c19.3-9.4,32.6-29.4,35-50.7C301.9,152.5,293.5,130.5,278.3,115.5z"/>
	</g>
</g>
</svg>
