<?xml version="1.0" encoding="utf-8"?>
<!-- Generator: Adobe Illustrator 25.4.1, SVG Export Plug-In . SVG Version: 6.00 Build 0)  -->
<svg version="1.1" id="Layer_1" focusable="false" xmlns="http://www.w3.org/2000/svg" xmlns:xlink="http://www.w3.org/1999/xlink"
	 x="0px" y="0px" viewBox="0 0 100 100" style="enable-background:new 0 0 100 100;" xml:space="preserve" fill="#ffffff">
<path d="M86.5,65.1l-5.7-3.3l4.4-1.2c1.4-0.4,2.2-1.8,1.8-3.2l-0.7-2.5c-0.4-1.4-1.8-2.2-3.2-1.8l-12,3.2L60.4,50l10.8-6.2l12,3.2
	c1.4,0.4,2.8-0.5,3.2-1.8l0.7-2.5c0.4-1.4-0.5-2.8-1.8-3.2l-4.4-1.2l5.7-3.3c1.3-0.7,1.7-2.3,1-3.6l-2.6-4.5c-0.7-1.3-2.3-1.7-3.6-1
	l-5.7,3.3l1.2-4.4c0.4-1.4-0.5-2.8-1.8-3.2l-2.5-0.7c-1.4-0.4-2.8,0.5-3.2,1.8l-3.2,12l-10.6,6.1V27.7l9.1-9.1c1-1,1-2.8,0-3.8
	L62.6,13c-1-1-2.8-1-3.8,0l-3.3,3.3V9.5c0-1.5-1.2-2.7-2.7-2.7h-5.4c-1.5,0-2.7,1.2-2.7,2.7v6.8L41.3,13c-1-1-2.8-1-3.8,0l-1.9,1.9
	c-1.1,1-1.1,2.8,0,3.8l9.1,9.1v13.1L34,34.7l-3.2-12c-0.4-1.4-1.8-2.2-3.2-1.8l-2.5,0.7c-1.4,0.4-2.2,1.8-1.8,3.2l1.2,4.4l-5.7-3.3
	c-1.3-0.7-2.8-0.3-3.6,1l-2.6,4.5c-0.7,1.3-0.3,2.8,1,3.6l5.7,3.3l-4.4,1.2c-1.4,0.4-2.2,1.8-1.9,3.2l0.7,2.5
	c0.4,1.4,1.8,2.2,3.2,1.8l12-3.2L39.5,50l-10.8,6.2l-12-3.2c-1.4-0.4-2.8,0.5-3.2,1.8l-0.7,2.5c-0.4,1.4,0.5,2.8,1.8,3.2l4.4,1.2
	l-5.7,3.3c-1.3,0.7-1.7,2.3-1,3.6l2.6,4.5c0.7,1.3,2.3,1.7,3.6,1l5.7-3.3l-1.2,4.4c-0.4,1.4,0.5,2.8,1.8,3.2l2.5,0.7
	c1.4,0.4,2.8-0.5,3.2-1.8l3.2-12l10.6-6.1v13.1l-9.1,9.1c-1.1,1-1.1,2.8,0,3.8l1.9,1.9c1,1,2.8,1,3.8,0l3.3-3.3v6.8
	c0,1.5,1.2,2.7,2.7,2.7h5.4c1.5,0,2.7-1.2,2.7-2.7v-6.8l3.3,3.3c1,1,2.8,1,3.8,0l1.9-1.9c1-1,1-2.8,0-3.8l-9-9.1V59.2L66,65.3
	l3.2,12c0.4,1.4,1.8,2.2,3.2,1.8l2.5-0.7c1.4-0.4,2.2-1.8,1.8-3.2l-1.2-4.4l5.7,3.3c1.3,0.7,2.8,0.3,3.6-1l2.6-4.5
	C88.2,67.4,87.8,65.8,86.5,65.1L86.5,65.1z"/>
</svg>
