<?xml version="1.0" encoding="UTF-8" standalone="no"?>
<svg width="237px" height="248px" viewBox="0 0 237 248" version="1.1" xmlns="http://www.w3.org/2000/svg" xmlns:xlink="http://www.w3.org/1999/xlink" xmlns:sketch="http://www.bohemiancoding.com/sketch/ns">
    <!-- Generator: Sketch 3.3.3 (12072) - http://www.bohemiancoding.com/sketch -->
    <title>DEV Man</title>
    <desc>Created with Sketch.</desc>
    <defs>
        <rect id="path-1" x="0" y="0" width="339" height="266"></rect>
    </defs>
    <g id="WPMU-DEV-Plugin" stroke="none" stroke-width="1" fill="none" fill-rule="evenodd" sketch:type="MSPage">
        <g id="Dashboard---Login" sketch:type="MSArtboardGroup" transform="translate(-640.000000, -173.000000)">
            <g id="DEV-Man" sketch:type="MSLayerGroup" transform="translate(591.000000, 155.000000)">
                <mask id="mask-2" sketch:name="Mask" fill="white">
                    <use xlink:href="#path-1"></use>
                </mask>
                <g id="Mask"></g>
                <g id="DEV-MAN" mask="url(#mask-2)" sketch:type="MSShapeGroup">
                    <g transform="translate(38.000000, 18.000000)">
                        <path d="M239.305077,223.504176 C237.374534,204.10475 224.265525,133.523784 218.895986,105 L30.2753637,105 C26.3520022,132.670701 14.0854428,220.020897 9.01863246,265.926471 C2.94330367,320.940828 -1.31046441,363.172779 0.369246365,373.210784 C8.76953014,364.422123 20.3821959,367.799848 34.9667907,383.593137 C49.5496557,399.386426 116.937023,448.477652 124.920406,458 C132.005983,447.351167 201.320433,399.772304 209.68439,393.97549 C218.046616,388.180407 226.400193,372.032387 240.82218,387.053922 C245.382136,374.283627 241.742474,247.997877 239.305077,223.504176" id="Fill-1" fill="#FFD000"></path>
                        <path d="M131.616875,229 C131.616875,229 128.624692,429.250298 128.026974,435.020606 C127.42746,440.790915 137.001726,443.100423 138.796676,433.289341 C140.591627,423.478259 141.787064,234.193797 131.616875,229" id="Fill-2" fill="#FFF200"></path>
                        <path d="M41.5796667,160 C41.5796667,160 27.9410879,310.691609 26.1881671,331.441188 C24.4335361,352.190767 35.5034447,386.231367 36.4491669,369.53923 C37.3931788,352.847092 45,163.463458 45,163.463458 L41.5796667,160" id="Fill-3" fill="#FFF200"></path>
                        <path d="M57.5038351,193.006515 C57.5038351,193.006515 53.6501485,337.819415 54.0257786,365.88235 C54.3996697,393.945284 71.416061,397 71.416061,397 C71.416061,397 81.5858982,170.788512 78.372174,167.07514 C75.1567108,163.361767 69.4300908,298.400268 66.1989763,324.392149 C62.9661228,350.384031 61.5957685,198.085607 57.5038351,193.006515" id="Fill-4" fill="#FFF200"></path>
                        <path d="M208.035891,167 C208.035891,167 221.111362,317.640641 222.802666,338.385513 C224.492279,359.128652 214.802798,393.236359 213.860742,376.546238 C212.916994,359.856117 205,170.483171 205,170.483171 L208.035891,167" id="Fill-5" fill="#FFF200"></path>
                        <path d="M194.749103,199.897916 C194.749103,199.897916 199.164271,344.713377 198.995269,372.783228 C198.826268,400.853078 183.283398,404 183.283398,404 C183.283398,404 172.587002,177.807217 175.504041,174.075867 C178.42108,170.344517 184.489295,305.373397 187.607023,331.352792 C190.722991,357.330459 191.036348,205.000425 194.749103,199.897916" id="Fill-6" fill="#FFF200"></path>
                        <path d="M60.9245589,251 C61.1362429,243.151596 60.9073489,237.025045 59.2190402,234.052348 C64,226.902692 64,218.962848 64,218.962848 L55.4224968,114.314592 C55.4224968,114.314592 43.0656603,98.9697469 34.1646076,100.054963 C24.9916357,102.613587 15.865131,108.881613 13.5779116,123.864144 C9.02584576,153.684282 16.2833359,167.070908 16.2833359,167.070908 C16.2833359,167.070908 8.32023254,173.335484 11.9463961,202.051428 C15.5725597,230.765646 22.9178212,235.82596 22.9178212,235.82596 C22.9178212,235.82596 20.0970894,236.683435 22.0848534,250.335758 C22.1089476,250.504838 22.1382047,250.685995 22.1640198,250.858525 C24.5803148,249.906158 29.4679772,248.958967 39.2949321,248.676017 C53.1851866,248.275747 58.7285529,249.830245 60.9245589,251" id="Fill-8" fill="#00AEEF"></path>
                        <path d="M62.3383565,199.327659 L34.2604374,135 C34.2604374,135 22.5027321,142.049297 27.0424543,160.322937 C31.5821766,178.596577 39.9640112,196.587134 41.0104259,202.297429 C42.0585935,208.005988 49.3922606,226.382094 52.1844527,219.270275 C54.9783976,212.158457 61.1394492,231 61.1394492,231 C63.9877305,224.961467 64,219.369268 64,219.369268 L62.3383565,199.327659" id="Fill-10" fill="#008ABE"></path>
                        <path d="M198.077162,251 C197.863757,243.151596 198.092651,237.025045 199.782681,234.052348 C195,226.902692 195,218.962848 195,218.962848 L203.579224,114.314592 C203.579224,114.314592 215.93434,98.9697469 224.835392,100.054963 C234.010085,102.613587 243.134869,108.881613 245.422088,123.864144 C249.975875,153.684282 242.716664,167.070908 242.716664,167.070908 C242.716664,167.070908 250.679767,173.335484 247.053604,202.051428 C243.42744,230.765646 236.082179,235.82596 236.082179,235.82596 C236.082179,235.82596 238.902911,236.683435 236.915147,250.335758 C236.891052,250.504838 236.861795,250.685995 236.83598,250.858525 C234.419685,249.906158 229.532023,248.958967 219.705068,248.676017 C205.814813,248.275747 200.271447,249.830245 198.077162,251" id="Fill-12" fill="#00AEEF"></path>
                        <path d="M229.101722,132.574377 C219.975957,127.733968 207.785352,154.473282 198.551296,175.695813 L195,219.287242 C195,219.287242 195.006876,221.671894 195.78211,225 C195.785548,224.993063 198.546139,217.032663 204.4197,215.825595 C208.653409,214.954981 211.257578,214.850923 212.62756,212.086462 C213.997542,209.322 219.458562,194.811179 224.947084,187.208043 C230.435607,179.606642 242.052091,139.442174 229.101722,132.574377" id="Fill-14" fill="#008ABE"></path>
                        <path d="M210.105506,205.12305 C215.243419,198.688042 219.535677,193.551127 224.630356,181.684575 C229.725035,169.818024 247.575435,104.431542 224.396893,100.048527 C218.797243,100.467938 210.743638,101.684575 202.494616,105.084922 C187.549532,111.246101 129.863446,141.480069 129.863446,141.480069 C129.863446,141.480069 72.1756316,111.246101 57.230548,105.084922 C48.6858063,101.561525 40.3295643,100.376083 34.7160789,100 C11.1622675,103.934142 33.7822273,179.227036 33.7822273,179.227036 C33.7822273,179.227036 42.9512661,196.769497 49.6196579,205.12305 C56.2880497,213.476603 84.2119405,237.701906 84.2119405,237.701906 C84.2119405,237.701906 83.1172589,242 129.863446,242 C167.461348,242 170.285384,237.701906 170.285384,237.701906 C170.285384,237.701906 203.437114,213.476603 210.105506,205.12305" id="Fill-15" fill="#00AEEF"></path>
                        <path d="M130.000865,117 C130.000865,117 166.293556,102.912697 196,97.2062754 C193.10911,96.1814348 187.458813,94.6373642 177.336374,93.3929149 C160.658829,91.3415312 130.000865,92.1620846 130.000865,92.1620846 C130.000865,92.1620846 99.3411709,91.3415312 82.663626,93.3929149 C72.5411866,94.6373642 66.8926198,96.1814348 64,97.2062754 C93.7081744,102.912697 130.000865,117 130.000865,117" id="Fill-16" fill="#008ABE"></path>
                        <path d="M162.864865,96 L130,96 L97.1351351,96 C76.7952432,96 66,101.076923 66,101.076923 L91.9459459,107.846154 L130,118 L168.054054,107.846154 L194,101.076923 C194,101.076923 183.204757,96 162.864865,96" id="Fill-17" fill="#DFB28B"></path>
                        <path d="M171.140183,237 C171.140183,237 158.123969,239.550713 125.398728,239.550713 C92.6717524,239.550713 84.8186658,237 84.8186658,237 C84.8186658,237 81.6066701,239.981577 82.0402548,258.508716 C85.9425174,263.248217 103.719491,285.65313 111.524017,301.595087 C119.328542,317.537044 121.496465,324 125.398728,324 C129.30099,324 131.468914,317.537044 139.273439,301.595087 C147.077964,285.65313 170.057955,264.971672 173.960218,260.232171 C174.393802,241.705032 171.140183,237 171.140183,237" id="Fill-21" fill="#2E2E2E"></path>
                        <path d="M224,100 C224.484,100.038 224.998,100.084 225.524,100.138 C224.998,100.084 224.484,100.038 224,100" id="Fill-22" fill="#00AEEF"></path>
                        <path id="Fill-23" fill="#00AEEF"></path>
                        <path d="M108,50 C108,53.86575 104.86575,57 101,57 C97.1325,57 94,53.86575 94,50 C94,46.13425 97.1325,43 101,43 C104.86575,43 108,46.13425 108,50" id="Fill-24" fill="#DFB28B"></path>
                        <path d="M167,50 C167,53.86575 163.86575,57 160,57 C156.1325,57 153,53.86575 153,50 C153,46.13425 156.1325,43 160,43 C163.86575,43 167,46.13425 167,50" id="Fill-25" fill="#DFB28B"></path>
                        <path d="M162.818182,86 L97.1818182,86 L92,108.285714 L130,122 L168,108.285714 L162.818182,86" id="Fill-26" fill="#DFB28B"></path>
                        <path d="M159.925547,68.3 C157.616575,59.24375 153.289416,53.925575 146.078638,51.05 C153.289416,48.4625 154.587564,33.656825 153.002093,26.9 C151.414891,20.143175 130.500865,20 130.500865,20 C130.500865,20 109.585109,20.143175 107.999638,26.9 C106.412436,33.656825 107.710584,48.4625 114.923093,51.05 C107.710584,53.925575 103.383425,59.24375 101.076184,68.3 C99.6689917,73.818275 98.0523651,80.925275 97,85.644875 C106.786303,88.097825 124.745744,89 127.039138,89 C130.211811,89 130.500865,85.55 130.500865,85.55 C130.500865,85.55 130.788189,89 133.962593,89 C136.254256,89 154.213697,88.097825 164,85.644875 C162.947635,80.925275 161.331008,73.818275 159.925547,68.3" id="Fill-27" fill="#ECC19C"></path>
                        <path d="M152.608696,15.6427929 C152.608696,15.6427929 148.984348,0 130,0 C111.013913,0 107.391304,15.6427929 107.391304,15.6427929 C107.391304,15.6427929 90.2886957,83.7184897 90,83.4282289 C90,84.8743182 92.5669565,86.0510039 96.3391304,87 C97.3965217,82.2445909 99.0208696,75.083668 100.434783,69.5235241 C102.753043,60.3985616 107.10087,55.040036 114.347826,52.1426431 C107.10087,49.5355109 105.796522,34.6175007 107.391304,27.8094096 C108.984348,21.0013185 130,20.8570572 130,20.8570572 C130,20.8570572 151.013913,21.0013185 152.608696,27.8094096 C154.201739,34.6175007 152.897391,49.5355109 145.652174,52.1426431 C152.897391,55.040036 157.245217,60.3985616 159.565217,69.5235241 C160.977391,75.083668 162.601739,82.2445909 163.65913,87 C167.431304,86.0510039 170,84.8743182 170,83.4282289 C169.709565,83.7184897 152.608696,15.6427929 152.608696,15.6427929" id="Fill-28" fill="#00AEEF"></path>
                        <path d="M129.766525,13 L129.766525,61.2758621 L121,61.2758621 C121,61.2758621 122.793631,63 131.51983,63 C133.245082,61.3034483 129.766525,13 129.766525,13" id="Fill-29" fill="#BB906D"></path>
                        <path d="M107.593817,26.9333333 C106.93542,29.7621333 106.785471,33.9932 107.342178,38.1566667 L121.382237,46 L130,37.3333333 L130,20 C130,20 109.172591,20.1438667 107.593817,26.9333333" id="Fill-30" fill="#2E2E2E"></path>
                        <path d="M152.657672,38.1566667 C153.214418,33.9932 153.064458,29.7621333 152.407739,26.9333333 C150.827132,20.1438667 130,20 130,20 L130,37.3333333 L138.618361,46 L152.657672,38.1566667" id="Fill-31" fill="#2E2E2E"></path>
                        <path d="M130.538,20.0087084 C130.196,20.0017417 130,20 130,20 L130,37.4168118 L131.818,39 C131.408,32.0245669 130.91,24.9968833 130.538,20.0087084" id="Fill-32" fill="#5A5A5A"></path>
                        <path d="M127,31.7680251 L121.47124,35 L111,31 L127,31.7680251" id="Fill-33" fill="#FFFFFF"></path>
                        <path d="M133,31.882247 L140.89347,36 L149,31 L133,31.882247" id="Fill-34" fill="#FFFFFF"></path>
                        <path d="M130,13 L130,19.9912609 C130,19.9912609 130.196,19.9930087 130.538,20 C130.224,15.7737828 130,13 130,13" id="Fill-35" fill="#008ABE"></path>
                        <path d="M61.7943719,98.1194443 C61.7943719,98.1194443 41.7505738,99.3607914 36.3220451,99.7745737 C35.9010006,99.8071955 35.4556984,99.8466851 35,99.8930425 C40.624323,100.2536 49.0850653,101.421118 57.7277403,104.944278 C72.7016774,111.047996 130.500866,141 130.500866,141 C130.500866,141 188.298323,111.047996 203.273992,104.944278 C211.914935,101.421118 220.375677,100.2536 226,99.8930425 C225.544302,99.8466851 225.098999,99.8071955 224.679688,99.7745737 C219.249426,99.3607914 199.205628,98.1194443 199.205628,98.1194443 C199.205628,98.1194443 198.477897,97.6678893 196.60139,97 C166.84931,102.75518 130.500866,116.962852 130.500866,116.962852 C130.500866,116.962852 94.1524226,102.75518 64.3986102,97" id="Fill-36" fill="#FFF200"></path>
                        <path d="M164,161.5 C164,180.55435 148.552625,196 129.5,196 C110.44565,196 95,180.55435 95,161.5 C95,142.44565 110.44565,127 129.5,127 C148.552625,127 164,142.44565 164,161.5" id="Fill-37" fill="#FFD000"></path>
                        <path d="M160,162.5 C160,178.792676 146.790941,192 130.5,192 C114.207324,192 101,178.792676 101,162.5 C101,146.207324 114.207324,133 130.5,133 C146.790941,133 160,146.207324 160,162.5" id="Fill-38" fill="#2E2E2E"></path>
                        <path d="M147.998248,167.744106 L147.998248,143 L143.932891,146.10548 L143.932891,167.744106 L143.929387,167.744106 C143.929387,169.011403 142.997158,170.037966 141.847644,170.037966 C140.698129,170.037966 139.765901,169.011403 139.765901,167.744106 L139.771158,156.255894 C139.771158,152.510747 137.016529,149.474049 133.617049,149.474049 C130.219323,149.474049 127.464693,152.510747 127.464693,156.255894 L127.462941,167.744106 C127.462941,169.011403 126.530713,170.037966 125.381198,170.037966 C124.231684,170.037966 123.299455,169.011403 123.299455,167.744106 L123.306465,156.255894 C123.306465,152.510747 120.551835,149.474049 117.152356,149.474049 C113.754629,149.474049 111,152.510747 111,156.255894 L111.001752,156.255894 L111.001752,181 L115.067109,177.89452 L115.070613,156.255894 C115.070613,154.988597 116.002842,153.962034 117.152356,153.962034 C118.303623,153.962034 119.234099,154.988597 119.234099,156.255894 L119.22709,167.744106 C119.22709,171.489253 121.981719,174.525951 125.381198,174.525951 C128.778925,174.525951 131.535307,171.489253 131.535307,167.744106 L131.531802,167.744106 L131.535307,156.255894 C131.535307,154.988597 132.467535,153.962034 133.617049,153.962034 C134.768316,153.962034 135.698792,154.988597 135.698792,156.255894 L135.693535,167.744106 C135.693535,171.489253 138.448165,174.525951 141.847644,174.525951 C145.245371,174.525951 148,171.489253 148,167.744106 L147.998248,167.744106" id="Fill-39" fill="#FFF200"></path>
                        <path d="M130.000009,209 C76.4447642,209 64.3917717,214.499906 66.1636617,215.731831 C74.25535,221.356275 83.5875338,218.611371 92.0432619,215.731831 C100.497265,212.85229 130.000009,212.365915 130.000009,212.365915 C130.000009,212.365915 159.501028,212.85229 167.956756,215.731831 C176.410759,218.611371 185.742942,221.356275 193.836356,215.731831 C195.608246,214.499906 183.553528,209 130.000009,209" id="Fill-40" fill="#008ABE"></path>
                        <path d="M129.5,87 C129.5,87 129.383,84.1557206 128,83.2868415 C129.542,82.9043862 129.689,82.9043862 131,83.2868415 C129.776,84.189139 129.5,87 129.5,87" id="Fill-41" fill="#DFB28B"></path>
                        <path d="M107.016545,32 C107.016545,32 108.686939,24.6861199 128.660405,29.1710464 C130.633243,29.6126391 131,30.0525069 131,24.9414157 C131,19.8320495 130.210865,13.0028865 130.210865,13.0028865 C130.210865,13.0028865 114.713221,12.6820417 110.630228,18.8056913 C106.545497,24.927616 107.016545,32 107.016545,32" id="Fill-43" fill="#00AEEF"></path>
                        <path d="M130.006859,18.0723555 C130.006859,18.0723555 129.883174,26.3159791 130.686253,26.9320131 C131.48759,27.5480471 148.907956,23.7395176 150.953107,25.0733805 L153,26.4072434 L150.853811,17 L130.006859,18.0723555" id="Fill-44" fill="#00AEEF"></path>
                        <path d="M132,26.9062131 C131.142653,26.6478569 130.473609,21.5869052 130.105563,18 L130,18.0070783 L130.540656,26.9416044 C130.540656,26.9416044 130.751783,26.9681479 131.028531,27 C131.275321,26.9929217 131.596291,26.9610696 132,26.9062131" id="Fill-45" fill="#008ABE"></path>
                        <path id="Fill-46" fill="#00AEEF"></path>
                        <path d="M129.197616,74.0106681 C130.812489,72.539191 131.426901,71.5633512 133.25564,72.1961893 C135.084379,72.8290274 135.173188,74.5594708 134.86145,74.9384876 C134.549713,75.3192195 133.567378,73.8082971 132.275117,73.8031521 C130.981044,73.7997221 128.24428,74.8784623 129.197616,74.0106681" id="Fill-47" fill="#DFB28B"></path>
                        <path d="M121.045054,71.9034249 C121.776702,72.0900752 126.291969,72.1632715 134.013779,70.5950424 C141.799136,69.014004 138.207876,66.3057438 137.953689,66.0806654 C137.699501,65.8537572 136.536764,66.1062841 136.663858,66.8290968 C136.790952,67.5500796 138.735144,68.0404943 135.538905,69.1183086 C134.206137,69.5666355 120.103872,71.6655372 121.045054,71.9034249" id="Fill-48" fill="#BB906D"></path>
                        <path d="M135.356046,21.7815847 C136.320886,22.1238997 140.153591,17.5991509 145.276304,19.7094864 C150.397239,21.8180011 150.750836,23.4567432 150.990713,22.8850043 C151.232367,22.3150862 146.704906,16.177087 143.593609,16.0041086 C140.484089,15.8329511 133.328639,21.062359 135.356046,21.7815847" id="Fill-49" fill="#008ABE"></path>
                        <path d="M113.108396,25.7741623 C114.45667,26.4148996 124.41398,26.3816373 128.398327,26.9891123 C129.675453,27.1834343 128.540625,24.7167706 128.423229,24.3648902 C128.019459,23.170948 127.160334,25.2787288 126.571575,25.4012741 C125.982817,25.5255702 111.617823,25.0669003 113.108396,25.7741623" id="Fill-50" fill="#008ABE"></path>
                    </g>
                </g>
            </g>
        </g>
    </g>
</svg>