<svg width="30" height="36" viewBox="0 0 30 36" fill="none" xmlns="http://www.w3.org/2000/svg">
<path d="M22.2738 32.0778C22.6995 33.0062 22.634 34.4319 23.2235 35.1614C23.289 35.1945 23.3217 35.2277 23.3872 35.2608C26.9568 35.0619 27.1532 30.9505 25.4176 29.0275C24.6317 28.298 23.5182 27.9665 22.1428 28.5633C15.0692 31.6468 8.29042 29.6906 4.19692 25.4134C1.97006 23.192 0.463655 20.2742 0.103427 17.1244C-1.01 7.14435 7.11149 0.811507 12.6786 0.115226C17.6891 -0.481586 22.3393 1.27569 25.5159 4.55816C28.9544 8.00641 30.7883 13.2119 29.6748 19.1801C29.1836 21.8989 27.579 25.314 23.9767 25.314C22.503 25.314 21.0949 24.684 20.0797 23.5898C19.1627 22.6946 18.5078 21.4678 18.4423 20.0421C18.0821 14.6377 24.9919 13.1456 24.5334 7.708C24.4679 6.74647 24.0422 5.88441 23.3872 5.18813C21.2914 3.1656 17.0996 2.40301 13.3009 3.19876C8.58515 4.16029 4.06593 8.50375 3.27998 13.7093C2.62502 17.9201 4.09868 22.7278 7.20974 25.9771C9.96056 28.7291 13.9231 30.2542 18.8353 29.0938C20.4072 28.7291 21.6188 27.237 24.2059 27.6349C25.1229 27.7675 25.8761 28.1986 26.4 28.7954C28.4632 30.7516 28.1357 34.863 25.4504 35.7913C24.0422 36.2887 21.5206 35.8908 20.4072 34.664L20.3744 34.6309C20.2434 34.5645 20.1124 34.4319 19.9814 34.2993C19.5557 33.9346 19.261 33.2383 19.3265 32.4426C19.392 31.3152 20.1124 30.4532 20.8984 30.5195C21.2259 30.5526 21.5206 30.7184 21.7171 30.9837C21.9791 31.2489 22.1756 31.6136 22.2738 32.0778Z" fill="#373737"/>
</svg>
