<svg width="60" height="90" viewBox="0 0 60 90" fill="none" xmlns="http://www.w3.org/2000/svg">
<g clip-path="url(#clip0_110_2588)">
<path fill-rule="evenodd" clip-rule="evenodd" d="M55.3152 36.1032C55.3152 34.5094 53.7859 32.8797 51.5759 32.8797V29.0115C55.5551 29.0115 59.1834 32.0236 59.1834 36.1032V73.2378C59.1834 77.3174 55.5551 80.3295 51.5759 80.3295H46.1605V76.4613H51.5759C53.7859 76.4613 55.3152 74.8316 55.3152 73.2378V36.1032Z" fill="#456B47"/>
<path fill-rule="evenodd" clip-rule="evenodd" d="M0.128937 36.1032C0.128937 32.0236 3.7572 29.0115 7.73639 29.0115V32.8797C5.52646 32.8797 3.99713 34.5094 3.99713 36.1032V73.2378C3.99713 74.8316 5.52646 76.4613 7.73639 76.4613H12.894V80.3295H7.73639C3.7572 80.3295 0.128937 77.3174 0.128937 73.2378V36.1032Z" fill="#456B47"/>
<path fill-rule="evenodd" clip-rule="evenodd" d="M13.3856 36.4627C13.9705 35.0997 14.5753 33.6902 15.264 32.1981L18.7761 33.8191C18.1902 35.0887 17.6108 36.4343 17.0268 37.7904C16.1617 39.7996 15.2866 41.8318 14.366 43.673C12.3861 47.6328 11.2921 51.5699 11.962 55.3659L11.972 55.4229L11.9787 55.4803C12.6838 61.5913 15.7073 66.5264 21.2191 70.3607L19.0101 73.5362C12.676 69.1298 8.99723 63.2531 8.14257 55.9805C7.28674 51.0289 8.76832 46.2188 10.9062 41.9431C11.807 40.1415 12.5773 38.3465 13.3856 36.4627Z" fill="#456B47"/>
<path fill-rule="evenodd" clip-rule="evenodd" d="M47.5418 39.7978C47.918 40.5978 48.3015 41.4134 48.6902 42.2554L48.6983 42.273L48.706 42.2907C50.559 46.526 52.0069 51.0282 51.4352 56.1735L51.4333 56.1904L51.4332 56.1904C50.5872 63.2404 46.9009 69.1084 40.6052 73.7617L38.306 70.651C43.8701 66.5384 46.8884 61.5782 47.5915 55.738C48.0483 51.6089 46.9216 47.8663 45.1699 43.8588C44.8108 43.0811 44.4471 42.3078 44.0835 41.5348C42.9157 39.052 41.7494 36.5725 40.745 33.9608L44.3553 32.5722C45.3048 35.0408 46.3887 37.3458 47.5418 39.7978Z" fill="#456B47"/>
<path fill-rule="evenodd" clip-rule="evenodd" d="M10.0534 38.8162C10.6913 37.9595 11.903 37.7822 12.7598 38.4202L49.1208 65.4975C49.9775 66.1355 50.1548 67.3472 49.5168 68.2039C48.8789 69.0606 47.6672 69.238 46.8104 68.6L10.4494 41.5226C9.59269 40.8846 9.41537 39.6729 10.0534 38.8162Z" fill="#456B47"/>
<path fill-rule="evenodd" clip-rule="evenodd" d="M49.5168 38.8162C50.1548 39.6729 49.9775 40.8846 49.1208 41.5226L12.7598 68.6C11.903 69.238 10.6913 69.0606 10.0534 68.2039C9.41537 67.3472 9.59269 66.1355 10.4494 65.4975L46.8104 38.4202C47.6672 37.7822 48.8789 37.9595 49.5168 38.8162Z" fill="#456B47"/>
<path d="M40.745 25.2722H18.8252C18.0516 25.2722 17.5358 24.7565 17.5358 23.9828V20.6304C17.5358 17.0201 20.3725 14.4413 23.7249 14.4413H35.5874C39.1977 14.4413 41.7765 17.278 41.7765 20.6304V23.725C42.0344 24.7565 41.5186 25.2722 40.745 25.2722Z" fill="#77A872"/>
<path fill-rule="evenodd" clip-rule="evenodd" d="M23.7249 16.3754C21.3874 16.3754 19.4699 18.1407 19.4699 20.6304V23.3381H39.8424V20.6304C39.8424 18.2929 38.0771 16.3754 35.5874 16.3754H23.7249ZM15.6017 20.6304C15.6017 15.8995 19.3575 12.5072 23.7249 12.5072H35.5874C40.3183 12.5072 43.7106 16.263 43.7106 20.6304V23.522C43.8582 24.3243 43.7889 25.2539 43.1948 26.0459C42.5309 26.9311 41.5407 27.2063 40.745 27.2063H18.8252C17.9989 27.2063 17.16 26.9225 16.5228 26.2853C15.8856 25.6481 15.6017 24.8092 15.6017 23.9828V20.6304Z" fill="#456B47"/>
<path fill-rule="evenodd" clip-rule="evenodd" d="M11.3467 27.7221C10.6097 27.7221 10.1862 28.1455 10.1862 28.8825V30.3009H48.8682V28.8825C48.8682 28.1455 48.4447 27.7221 47.7077 27.7221H11.3467ZM6.31805 28.8825C6.31805 26.0092 8.47338 23.8539 11.3467 23.8539H47.7077C50.5811 23.8539 52.7364 26.0092 52.7364 28.8825V30.9456C52.7364 31.7719 52.4525 32.6108 51.8153 33.248C51.1781 33.8852 50.3392 34.1691 49.5129 34.1691H9.54155C8.71521 34.1691 7.8763 33.8852 7.23912 33.248C6.60194 32.6108 6.31805 31.7719 6.31805 30.9456V28.8825Z" fill="#456B47"/>
<path fill-rule="evenodd" clip-rule="evenodd" d="M17.4069 12.6361C17.4069 5.63673 22.9146 0.128967 29.914 0.128967C36.9134 0.128967 42.4212 5.63673 42.4212 12.6361C42.4212 13.6747 42.1041 15.1742 41.8477 16.1998L41.2629 18.5389L39.1064 17.4606C38.1406 16.9777 37.1849 16.6333 36.361 16.6333H23.2092C22.236 16.6333 21.6405 16.8105 21.0172 17.278L18.5621 19.1193L17.9602 16.11C17.9141 15.8797 17.863 15.6343 17.812 15.3895C17.7355 15.0225 17.6594 14.6569 17.6012 14.3464C17.5001 13.8075 17.4069 13.2106 17.4069 12.6361ZM29.914 3.99716C25.051 3.99716 21.2751 7.77307 21.2751 12.6361C21.2751 12.7228 21.2818 12.8297 21.2971 12.9634C21.9163 12.8219 22.5511 12.7651 23.2092 12.7651H36.361C37.1162 12.7651 37.847 12.8923 38.5219 13.081C38.5421 12.9065 38.553 12.7556 38.553 12.6361C38.553 7.77307 34.7771 3.99716 29.914 3.99716Z" fill="#456B47"/>
<path d="M44.8711 88.1949H14.1834C11.6046 88.1949 9.54155 86.1319 9.54155 83.5531V77.364C9.54155 74.5273 11.8625 72.2064 14.6991 72.2064H44.3553C47.192 72.2064 49.5129 74.5273 49.5129 77.364V83.5531C49.5129 86.1319 47.4499 88.1949 44.8711 88.1949Z" fill="#77A872"/>
<path fill-rule="evenodd" clip-rule="evenodd" d="M14.6991 74.1404C12.9306 74.1404 11.4756 75.5954 11.4756 77.3639V83.553C11.4756 85.0636 12.6728 86.2608 14.1834 86.2608H44.8711C46.3817 86.2608 47.5788 85.0636 47.5788 83.553V77.3639C47.5788 75.5954 46.1238 74.1404 44.3553 74.1404H14.6991ZM7.60745 77.3639C7.60745 73.4591 10.7943 70.2722 14.6991 70.2722H44.3553C48.2602 70.2722 51.447 73.4591 51.447 77.3639V83.553C51.447 87.2 48.518 90.129 44.8711 90.129H14.1834C10.5364 90.129 7.60745 87.2 7.60745 83.553V77.3639Z" fill="#456B47"/>
</g>
<defs>
<clipPath id="clip0_110_2588">
<rect width="59.0544" height="90" fill="white"/>
</clipPath>
</defs>
</svg>
