<svg xmlns="http://www.w3.org/2000/svg" width="33" height="29" viewBox="0 0 32.13 28.566"><g fill="none" stroke="#293f54" stroke-width=".567" stroke-miterlimit="10"><path d="M31.846 27.283a1 1 0 0 1-1 1H1.284a1 1 0 0 1-1-1v-26a1 1 0 0 1 1-1h29.563a1 1 0 0 1 1 1v26z"/><path d="M.096 7.22h31.688"/></g><g fill="#00b1cc"><circle cx="2.846" cy="3.846" r=".813"/><circle cx="6.846" cy="3.846" r=".813"/><circle cx="10.846" cy="3.846" r=".813"/></g><g fill="#293f54"><circle cx="16.221" cy="3.846" r=".5"/><circle cx="18.747" cy="3.846" r=".5"/><circle cx="21.272" cy="3.846" r=".5"/><circle cx="23.797" cy="3.846" r=".5"/><circle cx="26.322" cy="3.846" r=".5"/><circle cx="28.846" cy="3.846" r=".5"/></g><path d="M15.95 13.187v9.973s2.333-2.042 7.25-1.996l-.74-8.745c-4.214-1.107-5.785.63-6.5.768m-.01 9.973s-2.333-2.042-7.25-1.996l.738-8.745c.96-.052 3.522-1.064 6.282.686m6.838.395c.136-.07.396-.1.64-.1.32-.016.6.228.617.546l.65 7.786c.03.378-.292.688-.667.64-1.05-.135-3.165-.172-5.913.972 0 0-.026.084-.088.213-.743 1.528-2.952 1.528-3.694 0-.063-.13-.088-.213-.088-.213-2.75-1.144-4.863-1.106-5.913-.972-.376.048-.7-.263-.667-.64l.65-7.786c.026-.318.3-.562.617-.546.245.012.505.04.64.1" fill="none" stroke="#293f54" stroke-miterlimit="10" stroke-width=".454" stroke-linecap="round" stroke-linejoin="round"/></svg>