<svg xmlns="http://www.w3.org/2000/svg" xmlns:xlink="http://www.w3.org/1999/xlink" width="33" height="29" viewBox="0 0 32.129 28.567"><style><![CDATA[.B{stroke:#293f54}.C{stroke-miterlimit:10}.D{stroke-width:.454}.E{stroke-linejoin:round}.F{stroke-linecap:round}]]></style><g fill="none" stroke-width=".567" class="B C"><path d="M31.846 27.284a1 1 0 0 1-1 1H1.283a1 1 0 0 1-1-1v-26a1 1 0 0 1 1-1h29.563a1 1 0 0 1 1 1v26z"/><path d="M.096 7.22h31.687"/></g><g fill="#00b1cc"><circle cx="2.846" cy="3.846" r=".813"/><circle cx="6.846" cy="3.846" r=".813"/><circle cx="10.846" cy="3.846" r=".813"/></g><g fill="#293f54"><circle cx="16.221" cy="3.846" r=".5"/><circle cx="18.746" cy="3.846" r=".5"/><circle cx="21.271" cy="3.846" r=".5"/><circle cx="23.797" cy="3.846" r=".5"/><circle cx="26.321" cy="3.846" r=".5"/><circle cx="28.846" cy="3.846" r=".5"/><path d="M18.085 17.402l-.002-.73-.358.602h-.127l-.356-.586v.715h-.265v-1.218h.233l.455.757.45-.757h.23l.003 1.218h-.263zm1.13-.432v.432h-.28v-.435l-.472-.783h.3l.326.54.325-.54h.276l-.473.786zm-4.574 2.252h-.565l-.107.26h-.3l.543-1.218h.278l.544 1.218h-.296l-.107-.26zm-.1-.215l-.193-.466-.192.466h.385z"/><path d="M15.073 18.874c0-.367.282-.63.66-.63.2 0 .387.077.5.216l-.18.167c-.082-.094-.185-.143-.306-.143-.23 0-.4.16-.4.4s.16.4.4.4a.39.39 0 0 0 .306-.145l.18.167c-.114.14-.3.218-.502.218-.378-.001-.66-.263-.66-.63zm1.245 0c0-.367.282-.63.66-.63.2 0 .387.077.5.216l-.18.166c-.082-.094-.185-.143-.306-.143-.23 0-.4.16-.4.4s.16.4.4.4a.39.39 0 0 0 .306-.145l.18.167c-.114.14-.3.218-.502.218-.378 0-.66-.262-.66-.63zm1.245 0c0-.362.282-.63.667-.63s.666.267.666.63-.283.63-.666.63-.667-.27-.667-.63zm1.047 0a.37.37 0 0 0-.381-.39.37.37 0 0 0-.381.39.37.37 0 0 0 .381.39c.217-.001.38-.16.38-.4z"/><path d="M19.092 18.947v-.682h.282v.67c0 .23.1.327.27.327s.27-.096.27-.327v-.67h.278v.682a.5.5 0 0 1-.551.557.5.5 0 0 1-.551-.557zm2.493-.682v1.218h-.23l-.607-.74v.74h-.278v-1.218h.233l.604.74v-.74h.278zm.537.23h-.4v-.23h1.062v.23h-.4v.988h-.282v-.988z"/></g><g fill="none" class="B D E"><circle cx="16.252" cy="22.242" r=".142"/><g class="C"><path d="M16.252 23.136h2.54s-.06.65.068 1.287c.098.49.457.923.988 1.194.148.077.08.256-.1.256h-6.997c-.178 0-.248-.18-.1-.256.533-.27.892-.706 1-1.194.128-.638.067-1.287.067-1.287h2.542z"/><path d="M8.87 21.34h14.766" class="F"/><path d="M24.117 23.136H7.764c-.45 0-.813-.364-.813-.813v-9.8c0-.45.364-.814.813-.814h16.354c.45 0 .813.364.813.814v9.8c0 .448-.365.813-.814.813z"/></g></g><use xlink:href="#B" fill="#fff"/><g fill="none"><g class="C"><use xlink:href="#B" stroke="#fff" stroke-width="1.417"/><use xlink:href="#B" class="B D"/></g><circle cx="24.385" cy="13.272" r="2.194" class="B D"/></g><path fill="#ffc500" d="M21.327 13.272h.465c0-1.432 1.16-2.594 2.594-2.594s2.595 1.162 2.595 2.594h.464a3.06 3.06 0 0 0-3.059-3.058 3.06 3.06 0 0 0-3.059 3.058z"/><g fill="none" stroke="#00b1cc" class="C D E F"><path d="M9.523 16.438c-.102.03-.174.15-.174.298 0 .164.088.293.205.304.064.248.2.46.383.602l-.03.258c-.005.042-.026.08-.062.102-.013.008-.025.015-.04.02l-.65.2a.62.62 0 0 0-.256.133.76.76 0 0 0-.259.432l-.152 1.198h3.06m-.17-3.537c.1.03.176.15.176.298 0 .164-.1.293-.207.303a1.12 1.12 0 0 1-.383.602l.03.26c.005.042.027.08.063.102.012.008.025.015.04.02l.65.2a.62.62 0 0 1 .256.133.75.75 0 0 1 .258.432l.153 1.198h-.865"/><path d="M11.366 16.436s.012-.206-.06-.438m-.326 1.842l-.533.478-.534-.478m-.278-1.965c.004-.4.35-.643.672-.685.08-.01.345-.042.526-.115l.001.002a.14.14 0 0 1 .012.126.75.75 0 0 0 .522-.042c.001.12.005.358-.044.467a.42.42 0 0 1-.249.239c-.074.022-.152.02-.228.01-.153-.02-.3-.066-.453-.095a.95.95 0 0 0-.456.003"/><path d="M11.116 15.465c-.022.077-.088.14-.165.16s-.16 0-.237-.02"/></g><defs ><path id="B" d="M24.644 9.158h-.517c-.23 0-.418.187-.418.417 0 .184-.12.348-.295.4-.236.07-.46.163-.672.277-.16.09-.362.06-.492-.07a.42.42 0 0 0-.592 0l-.365.366a.42.42 0 0 0 0 .59c.13.13.16.33.073.492a3.17 3.17 0 0 0-.278.672c-.052.175-.216.295-.398.295a.42.42 0 0 0-.419.417v.518a.42.42 0 0 0 .419.417c.183 0 .347.12.398.295.068.235.16.46.278.672.088.162.058.363-.073.493a.42.42 0 0 0 0 .59l.365.366c.164.163.43.163.6 0h.002c.13-.13.33-.16.49-.072.212.115.437.21.672.278.177.052.296.215.296.4 0 .23.187.417.418.417h.517c.232 0 .42-.187.42-.417 0-.185.12-.348.296-.4.235-.07.46-.163.67-.278.16-.087.36-.058.49.072a.42.42 0 0 0 .593 0l.365-.366a.42.42 0 0 0 0-.59c-.13-.13-.16-.33-.073-.493a3.45 3.45 0 0 0 .279-.672c.052-.175.215-.295.4-.295.23 0 .416-.187.416-.417v-.518a.42.42 0 0 0-.416-.417c-.185 0-.348-.12-.4-.295a3.4 3.4 0 0 0-.279-.672c-.087-.162-.058-.362.073-.492a.42.42 0 0 0 0-.59l-.365-.366a.42.42 0 0 0-.593 0 .41.41 0 0 1-.491.071c-.212-.114-.436-.208-.67-.277-.176-.052-.296-.215-.296-.4 0-.23-.187-.417-.42-.417z"/></defs></svg>