<svg xmlns="http://www.w3.org/2000/svg" xmlns:xlink="http://www.w3.org/1999/xlink" width="33" height="29" viewBox="0 0 32.129 28.567"><g fill="none" stroke="#293f54" stroke-width=".567" stroke-miterlimit="10"><path d="M31.846 27.284a1 1 0 0 1-1 1H1.283a1 1 0 0 1-1-1v-26a1 1 0 0 1 1-1h29.563a1 1 0 0 1 1 1v26z"/><path d="M.096 7.22h31.687"/></g><g fill="#00b1cc"><circle cx="2.846" cy="3.846" r=".813"/><circle cx="6.846" cy="3.846" r=".813"/><circle cx="10.846" cy="3.846" r=".813"/></g><g fill="#293f54"><circle cx="16.221" cy="3.846" r=".5"/><circle cx="18.746" cy="3.846" r=".5"/><circle cx="21.271" cy="3.846" r=".5"/><circle cx="23.797" cy="3.846" r=".5"/><circle cx="26.321" cy="3.846" r=".5"/><circle cx="28.846" cy="3.846" r=".5"/></g><path fill="#fff" stroke="#ffc500" stroke-width=".454" stroke-linejoin="round" stroke-miterlimit="10" d="M26.17 23.287c0 .552-.402 1-.9 1H7.403c-.497 0-.9-.448-.9-1V12.932c0-.552.402-1 .9-1H25.27c.497 0 .9.448.9 1v10.355z"/><path fill="#ffc500" d="M24.737 22.124c0 .428-.34.775-.756.775H8.927c-.418 0-.757-.347-.757-.775v-8.028c0-.428.34-.775.757-.775h15.055c.417 0 .756.347.756.775v8.028z"/><g fill="#293f54"><path d="M12.015 16.537c0 .364-.273.6-.7.6h-.33v.45h-.38v-1.634h.708c.436-.001.7.226.7.593zm-.384 0c0-.18-.116-.285-.348-.285h-.308v.567h.308c.232 0 .348-.105.348-.282zm1.696 1.04l-.315-.455h-.348v.455h-.38v-1.634h.708c.437 0 .7.227.7.593a.53.53 0 0 1-.337.516l.367.525h-.406zm-.355-1.327h-.308v.57h.308c.23 0 .348-.107.348-.285s-.117-.285-.348-.285zm2.298 1.023v.304h-1.266v-1.634h1.235v.304h-.86v.354h.76v.294h-.76v.378h.9zm1.8.304v-.98l-.48.808h-.17l-.48-.787v.96h-.355v-1.634h.313l.6 1.016.603-1.016h.3l.005 1.634h-.356zm.747-1.635h.38v1.634h-.38v-1.634zm.753.915v-.915h.378v.9c0 .3.136.44.364.44s.364-.128.364-.44v-.9h.374v.915c0 .48-.275.747-.74.747s-.74-.266-.74-.747zm3.343.72l-.002-.98-.48.808h-.17l-.48-.787v.96h-.355v-1.634h.313l.6 1.016.603-1.016h.3l.005 1.634H21.9z"/><use xlink:href="#B"/><use xlink:href="#B" y="1.308"/></g><defs ><path id="B" d="M22.504 19.5c0 .102-.082.184-.184.184H10.587c-.102 0-.184-.082-.184-.184s.082-.183.184-.183H22.32c.102 0 .184.082.184.183z"/></defs></svg>