<svg xmlns="http://www.w3.org/2000/svg" width="33" height="29" viewBox="0 0 32.13 28.567"><g fill="none" stroke="#293f54" stroke-width=".567" stroke-miterlimit="10"><path d="M31.846 27.284a1 1 0 0 1-1 1H1.284a1 1 0 0 1-1-1v-26a1 1 0 0 1 1-1h29.563a1 1 0 0 1 1 1v26z"/><path d="M.096 7.22h31.688"/></g><g fill="#00b1cc"><circle cx="2.846" cy="3.846" r=".813"/><circle cx="6.846" cy="3.846" r=".813"/><circle cx="10.846" cy="3.846" r=".813"/></g><g fill="#293f54"><circle cx="16.221" cy="3.846" r=".5"/><circle cx="18.747" cy="3.846" r=".5"/><circle cx="21.272" cy="3.846" r=".5"/><circle cx="23.797" cy="3.846" r=".5"/><circle cx="26.322" cy="3.846" r=".5"/><circle cx="28.846" cy="3.846" r=".5"/></g><path d="M18.2 12.497h-.948c-.267 0-.484.216-.484.483v.948c0 .267.217.483.484.483h.948c.267 0 .484-.216.484-.483v-.948c0-.267-.217-.483-.484-.483zm3.73 0h-.948c-.268 0-.484.216-.484.483v.948c0 .267.216.483.484.483h.948c.268 0 .484-.216.484-.483v-.948c0-.267-.216-.483-.484-.483zm3.728 0h-.948c-.267 0-.483.216-.483.483v.948c0 .267.216.483.483.483h.948c.267 0 .484-.216.484-.483v-.948c0-.267-.216-.483-.484-.483zm-7.458 3.36h-.948c-.267 0-.484.216-.484.483v.948c0 .268.217.484.484.484h.948c.267 0 .484-.216.484-.484v-.948c0-.266-.217-.483-.484-.483zm3.73 0h-.948c-.268 0-.484.216-.484.483v.948c0 .268.216.484.484.484h.948c.268 0 .484-.216.484-.484v-.948c0-.266-.216-.483-.484-.483zm3.728 0h-.948c-.267 0-.483.216-.483.483v.948c0 .268.216.484.483.484h.948c.267 0 .484-.216.484-.484v-.948c0-.266-.216-.483-.484-.483zM18.2 19.2h-.948c-.267 0-.484.216-.484.483v.948c0 .267.217.483.484.483h.948c.267 0 .484-.216.484-.483v-.948c0-.266-.217-.483-.484-.483zm3.73 0h-.948c-.268 0-.484.216-.484.483v.948c0 .267.216.483.484.483h.948c.268 0 .484-.216.484-.483v-.948c0-.266-.216-.483-.484-.483zm3.728 0h-.948c-.267 0-.483.216-.483.483v.948c0 .267.216.483.483.483h.948c.267 0 .484-.216.484-.483v-.948c0-.266-.216-.483-.484-.483zm-10.806 1.23c0 .526-.426.953-.953.953H6.93c-.526 0-.952-.427-.952-.953v-6.98a.95.95 0 0 1 .952-.952h6.98c.526 0 .953.426.953.952v6.98z" fill="#ffc500"/><path fill="#fff" d="M23.118 18.053c-.125-.472-.293-1.426.445-1.448.58-.017.857.838 1.013 1.267l.04-2.915c-.005-.57.333-2.44 1.03-1.227.262.456.16 1.188.094 1.682.386-.186.855.01 1.045.386.613-.178 1.165.038 1.3.695 1.59-.086 1.013 2.002.374 2.778-.97 1.18-2.157 3.037-3.397 2.37-.598-.322-1.728-3.022-1.976-3.628"/><g fill="#293f54"><path d="M25.785 17.036c-.104 0-.188-.084-.188-.188v-1.425c0-.104.084-.188.188-.188h.558c.412 0 .746.334.746.746 0 .104-.084.188-.188.188s-.188-.084-.188-.188a.37.37 0 0 0-.371-.371h-.37v1.238c0 .103-.084.188-.187.188zm2.663 4.824H26.05c-.104 0-.188-.084-.188-.188s.083-.188.188-.188h2.246l.128-.452a10.6 10.6 0 0 0 .518-3.06c.002-.104.093-.2.192-.182.104.002.186.1.183.192a11.26 11.26 0 0 1-.535 3.166 5.15 5.15 0 0 0-.149.56c-.018.1-.095.153-.185.153z"/><path d="M24.867 21.86c-.1 0-.17-.064-.185-.155-.002-.01-.182-.998-.822-1.713-.177-.197-.343-.427-.497-.683a3.93 3.93 0 0 1-.546-2 .85.85 0 0 1 .85-.849c.35 0 .667.22.792.544l.022.057v-3.12c0-.412.334-.746.746-.746s.745.334.745.746v1.482c0 .104-.084.188-.188.188s-.188-.084-.188-.188V13.94a.37.37 0 1 0-.74 0v4.132a.18.18 0 0 1-.154.184c-.09.016-.177-.032-.2-.117l-.385-1c-.07-.182-.248-.304-.442-.304-.262 0-.475.213-.475.474 0 .644.17 1.27.493 1.8.142.236.294.447.454.625.714.797.904 1.854.912 1.898.02.102-.05.2-.15.217-.01.002-.022.003-.032.003zm3.15-3.923c-.104 0-.188-.084-.188-.188V16.4a.37.37 0 0 0-.371-.37h-.37v1.237c0 .104-.084.188-.188.188s-.188-.084-.188-.188V15.84c0-.104.084-.188.188-.188h.558c.412 0 .746.334.746.746v1.35c.001.104-.083.188-.187.188z"/><path d="M29.133 18.165c-.104 0-.188-.084-.188-.188V17.1a.37.37 0 0 0-.37-.37h-.56c-.104 0-.188-.084-.188-.188s.084-.188.188-.188h.56a.75.75 0 0 1 .746.746v.868c.001.103-.084.187-.188.187zm-.377 6.163h-4.328c-.104 0-.188-.084-.188-.188v-1.718c0-.104.084-.188.188-.188h4.328c.104 0 .188.084.188.188v1.718c0 .104-.084.188-.188.188zm-4.14-.375h3.952V22.6h-3.952v1.343zm3.178-.323a.35.35 0 0 1-.35-.35.35.35 0 0 1 .35-.349.35.35 0 0 1 .349.349.35.35 0 0 1-.349.35zm0-.376c-.015 0-.026.012-.026.026 0 .03.052.03.052 0 0-.014-.01-.026-.026-.026z"/></g></svg>