<svg xmlns="http://www.w3.org/2000/svg" xmlns:xlink="http://www.w3.org/1999/xlink" width="33" height="29" viewBox="0 0 32.129 28.567"><g fill="none" stroke="#293f54" stroke-width=".567" stroke-miterlimit="10"><path d="M31.846 27.284a1 1 0 0 1-1 1H1.283a1 1 0 0 1-1-1v-26a1 1 0 0 1 1-1h29.563a1 1 0 0 1 1 1v26z"/><path d="M.096 7.22h31.687"/></g><g fill="#00b1cc"><circle cx="2.846" cy="3.846" r=".813"/><circle cx="6.846" cy="3.846" r=".813"/><circle cx="10.846" cy="3.846" r=".813"/></g><g fill="#293f54"><circle cx="16.221" cy="3.846" r=".5"/><circle cx="18.746" cy="3.846" r=".5"/><circle cx="21.271" cy="3.846" r=".5"/><circle cx="23.797" cy="3.846" r=".5"/><circle cx="26.321" cy="3.846" r=".5"/><circle cx="28.846" cy="3.846" r=".5"/></g><path fill="#fff" stroke="#ffc500" stroke-width=".454" stroke-linejoin="round" stroke-miterlimit="10" d="M27.748 21.296c0 .552-.525 1-1.174 1H4.865c-.648 0-1.174-.448-1.174-1V15.97c0-.552.525-1 1.174-1h21.71c.648 0 1.174.448 1.174 1v5.327z"/><path fill="#ffc500" d="M26.113 20.295c0 .33-.44.597-1 .597H6.826c-.547 0-1-.267-1-.597v-3.182c0-.33.443-.597 1-.597h18.297c.55 0 1 .267 1 .597v3.182z"/><g fill="#293f54"><use xlink:href="#B"/><path d="M10.524 18.917v-.784h.323v.772c0 .266.116.375.313.375s.312-.1.312-.375v-.772h.32v.784c0 .412-.235.64-.634.64s-.633-.228-.633-.64zm2.87.233c0 .242-.192.382-.56.382h-.724v-1.4h.684c.35 0 .53.146.53.364 0 .14-.07.248-.186.308.157.05.257.17.257.345zm-.962-.774v.33h.322c.158 0 .244-.056.244-.166s-.086-.164-.244-.164h-.322zm.635.74c0-.118-.1-.174-.258-.174h-.378v.346h.378c.17 0 .258-.052.258-.172z"/><use xlink:href="#B" x="4.38"/><path d="M14.83 18.833c0-.422.323-.724.76-.724.24 0 .443.088.575.248l-.208.192a.45.45 0 0 0-.352-.164c-.262 0-.447.184-.447.448s.186.448.447.448c.14 0 .258-.056.352-.166l.208.192c-.132.162-.334.25-.577.25-.435 0-.758-.302-.758-.724zm2.445.7l-.27-.4h-.298v.4h-.323v-1.4h.605c.374 0 .607.194.607.508 0 .2-.105.364-.287.442l.313.45h-.346zm-.303-1.136h-.265v.488h.265c.197 0 .298-.092.298-.244s-.1-.244-.298-.244zm.882-.264h.323v1.4h-.323v-1.4zm1.94 1.017c0 .242-.192.382-.56.382H18.5v-1.4h.684c.35 0 .53.146.53.364 0 .14-.07.248-.186.308.156.05.256.17.256.345zm-.962-.774v.33h.322c.158 0 .244-.056.244-.166s-.086-.164-.244-.164h-.322zm.636.74c0-.118-.1-.174-.258-.174h-.378v.346h.378c.168 0 .258-.052.258-.172zm1.656.157v.26H20.04v-1.4h1.058v.26h-.736v.304h.65v.252h-.65v.324h.76z"/><path d="M21.313 19.367c0-.102.08-.178.192-.178s.19.076.19.178-.08.182-.19.182-.192-.082-.192-.182zm.006-1.234h.372l-.062.914h-.248l-.062-.914z"/></g><path d="M9.77 12.728v-.853l-.418.702h-.15l-.416-.684v.834H8.48v-1.42h.272l.53.883.524-.883h.27l.004 1.42h-.3zm.563-.71c0-.422.33-.734.777-.734s.777.3.777.734-.33.735-.777.735-.777-.313-.777-.735zm1.222 0c0-.27-.2-.455-.444-.455s-.444.185-.444.455.2.455.444.455.444-.185.444-.455zm1.887-.7v1.42h-.27l-.708-.862v.862h-.325v-1.42h.272l.706.862v-.862h.326zm.635.268h-.455v-.268h1.238v.268h-.455v1.153h-.328v-1.153zm.963-.268h.33v1.152h.713v.268H15.04v-1.42zm1.765.917v.503h-.33v-.507l-.55-.913h.35l.38.63.38-.63h.322l-.552.917zm2.5-.402c0 .317-.237.514-.617.514h-.286v.392h-.33v-1.42h.615c.38-.001.617.196.617.514zm-.333 0c0-.156-.102-.248-.303-.248h-.268v.493h.268c.2.001.303-.1.303-.245zm.57-.515h.33v1.152h.713v.268h-1.042v-1.42zm2.178 1.116h-.66l-.126.304h-.337l.634-1.42h.324l.636 1.42h-.346l-.126-.304zm-.103-.25l-.226-.544-.226.544h.452zm2.03-.866v1.42h-.27l-.708-.862v.862h-.325v-1.42h.272l.706.862v-.862h.326z" fill="#ffc500"/><path d="M27.512 22.5l1.07-1.07-4.57-1.224 1.224 4.57 1.07-1.07m.884-.32l1.338 1.337" stroke="#293f54" stroke-miterlimit="10" fill="#fff" stroke-width=".454" stroke-linejoin="round" stroke-linecap="round"/><defs ><path id="B" d="M9.15 19.395l.1-.244c.118.086.294.146.462.146.19 0 .27-.064.27-.15 0-.262-.813-.082-.813-.602 0-.238.19-.436.6-.436.176 0 .355.042.485.124l-.1.246a.79.79 0 0 0-.388-.11c-.192 0-.266.072-.266.16 0 .258.813.08.813.594 0 .234-.194.434-.594.434-.22 0-.445-.066-.57-.162z"/></defs></svg>