<?xml version="1.0" encoding="UTF-8" standalone="no"?><!DOCTYPE svg PUBLIC "-//W3C//DTD SVG 1.1//EN" "http://www.w3.org/Graphics/SVG/1.1/DTD/svg11.dtd"><svg width="100%" height="100%" viewBox="0 0 250 250" version="1.1" xmlns="http://www.w3.org/2000/svg" xmlns:xlink="http://www.w3.org/1999/xlink" xml:space="preserve" xmlns:serif="http://www.serif.com/" style="fill-rule:evenodd;clip-rule:evenodd;stroke-linejoin:round;stroke-miterlimit:2;"><g><g><path d="M125.002,4.943c-65.98,0 -119.45,53.764 -119.45,120.048c0,66.307 53.47,120.066 119.45,120.066c65.972,-0 119.446,-53.759 119.446,-120.066c-0,-66.298 -53.484,-120.048 -119.446,-120.048Zm-2.305,142.013c-1.461,5.096 -3.64,9.599 -6.636,13.463c-2.916,3.818 -6.729,6.855 -11.298,9.049c-4.61,2.179 -10.033,3.271 -16.379,3.271c-6.566,-0 -12.133,-1.176 -16.777,-3.5c-4.624,-2.277 -8.357,-5.385 -11.307,-9.277c-2.851,-3.864 -4.993,-8.358 -6.323,-13.482c-1.367,-5.156 -2.02,-10.509 -2.02,-16.123l-0,-43.53l18.964,0l0,43.53c0,3.309 0.308,6.445 0.91,9.38c0.621,3.001 1.587,5.614 3.015,7.947c1.405,2.315 3.15,4.167 5.395,5.516c2.165,1.358 4.876,2.044 8.138,2.044c3.262,0 5.955,-0.686 8.199,-2.091c2.245,-1.4 4.093,-3.252 5.423,-5.548c1.404,-2.319 2.394,-4.998 2.982,-8.031c0.569,-2.978 0.872,-6.025 0.872,-9.203l0,-43.502l18.965,0l0,43.502l0.01,0c-0.005,5.959 -0.724,11.461 -2.133,16.585Zm75.342,25.792l-57.446,0l0,-17.793l57.446,-0l-0,17.793Zm-0,-34.056l-57.446,-0l0,-17.794l57.446,0l-0,17.794Zm-0,-34.043l-57.446,0l0,-17.794l57.446,0l-0,17.794Z" style="fill:#c3c8cb;fill-rule:nonzero;"/></g></g></svg>