<svg width="1000" height="80" xmlns="http://www.w3.org/2000/svg">
 <!-- Created with Method Draw - http://github.com/duopixel/Method-Draw/ -->
 <defs>
  <pattern id="Pattern" x="0" y="0" width="400" height="80" patternUnits="userSpaceOnUse">
   <path class="fill_class" id="svg_12"
         d="m-4.333333,-7c0,0 3.333333,59.333333 3.333333,59.333333c0,0 10.666667,-2.666666 18.666667,2.666667c5.333333,13.333333 16,15.999999 36.666666,2c20.666667,-14 18,-19.333333 34.666667,-17.333333c16.666668,2.000001 5.999999,23.333333 29.333333,23.333333c23.333334,0 15.333333,-20.666667 38.666667,-22c23.333333,-1.333333 17.333333,28.666667 35.333333,21.333334c18,-7.333334 52,-22.000001 52,-22.000001c14,25.333334 34,6 34,6c12.666668,20.666667 38.666667,-10.666666 38.666667,-10.666666c0,0 9.333333,26.666666 9.333333,26.666666c0,0 12,-12.666666 12,-12.666666c0,0 14.666667,17.333333 15.333334,23.333333c0,0 17.333333,-28 46,-22c38,-16.666667 2.666666,-55.333333 2.666666,-55.333333c0,0 -406.666666,-2.666667 -406.666666,-2.666667z"
         fill-opacity="null" stroke-opacity="null" stroke-width="1.5" stroke="#000" fill="#CE7975" />
  </pattern>
 </defs>
 <g>
  <rect fill="url(#Pattern)" stroke="transparent" width="100%" height="80" />
 </g>
</svg>