<?xml version="1.0" encoding="UTF-8"?>
<svg viewBox="0 0 106.67 106.67" xmlns="http://www.w3.org/2000/svg">
 <path d="m25.322 8.5559l2.0575 3.6297-4.0085-1.058-0.6455 2.4392 6.3932 1.697 2.0246 3.5726-5.9815-2.2136-0.8816 2.3599 8.7944 3.2647 1.9532 3.449-4.3169 2.4923 1.2627 2.1869 4.2978-2.4813 2.7138 4.8102 0.6712 1.1846-2.7575 1.592 1.2626 2.187 2.7385-1.5811 1.0734 1.9031c-0.57289 0.33078-1.6384 0.94595-1.759 1.0156l1.2626 2.187c0.11937-0.068932 1.1767-0.67936 1.74-1.0046l4.5887 8.1016-5.2497-3.625c0.29616-0.43688 0.49935-0.73865 0.70487-1.0409l-1.3592-0.9268c-0.20386 0.29985-0.40173 0.60236-0.69534 1.0354l-1.4931-1.027 1.1527-1.6925-1.3591-0.9268-1.1433 1.687-4.3208-2.9822 1.6763-2.4766-1.3537-0.9173-1.6723 2.4614-2.422-1.6698-3.1574-6.8741-1.4881 0.6944 2.0132 4.3652-2.5859-1.7779-1.3016-3.9013-1.5529 0.5162 0.6114 1.8276-2.0832-1.4343-0.9267 1.3592 2.4014 1.6562-2.3702 0.1767 0.123 1.6405 4.4178-0.3193 0.1843 0.1217 2.2022 1.5305-3.8952-0.0712-0.0295 1.6398 6.3671 0.1146 2.5654 1.7644-1.564 2.2976 1.3592 0.9268 1.5545-2.2921 4.3208 2.9823-0.981 1.4411 1.3592 0.9268 0.9714-1.4356 1.4931 1.027c-0.19007 0.28043-0.56832 0.8358-0.61022 0.89748l1.3592 0.9268c0.041443-0.061008 0.41335-0.61553 0.60071-0.89196l1.6679 1.1542 1.8318 1.2624-7.4018-0.0623c-1.6e-4 -0.99483-0.0037-1.6715-0.0037-2.356l-2.5235-9e-4c0 0.67733 0.002079 1.3477 0.002228 2.3314l-2.1749-0.0122 0.0024-3.7286-2.533 0.0045 0.0056 3.6987-6.8858-0.0687-6e-4 -5.3371-2.5235-1e-3 0.0047 5.3221-3.7207-0.0325-8.7907-6.7278-1.5367 2.0155 6.1246 4.6793-4.4493-0.0429-4.4028-4.2662-1.765 1.8178 2.4866 2.4184-3.6321-0.0328-0.0256 2.525 4.1783 0.0345-2.9177 2.9396 1.7892 1.7815 4.6571-4.6919 4.1048 0.0389-4.9103 4.0774 1.6169 1.9443 7.2156-5.9916 3.7847 0.0335 0.192 0.0032-1e-3 4.983 2.5235 1e-3 0.0024-4.9584 6.8803 0.0592-8e-4 3.1827 2.5235 1e-3 -0.0032-3.1677 0.8962 0.0152 1.2842 0.0065c9.9e-5 0.66667-4.69e-4 1.9013-4.69e-4 2.0414l2.5235 1e-3c1.11e-4 -0.13888-0.003429-1.3674-0.00354-2.0264l9.4938 0.0844-5.56 3.1719c-0.26513-0.4592-0.4476-0.77534-0.63131-1.0934l-1.4262 0.8235c0.1821 0.31537 0.36315 0.62902 0.62584 1.084l-1.5649 0.8909-1.0266-1.7782-1.4262 0.8235 1.0211 1.7686-4.5671 2.586-1.4932-2.5862-1.4262 0.8234 1.4877 2.5768-2.5307 1.4358-7.5833-0.1351-0.0295 1.6398 4.8063 0.0902-2.7303 1.5511-4.0702-0.528-0.212 1.6311 1.9091 0.2543-2.1884 1.2381 0.814 1.4318 2.5402-1.4412-0.8713 2.2018 1.5265 0.602 1.6322-4.1119 2.5307-1.4357-1.759 3.475 1.4619 0.7534 2.8849-5.6972 2.6924-1.5291 1.3889 2.4056 1.4262-0.8234-1.3833-2.3961 4.5615-2.5955 0.8728 1.5118 1.4262-0.8235-0.8673-1.5023 0.58-0.3349 0.9849-0.556c0.16982 0.29424 0.50617 0.87671 0.54349 0.94142l1.4263-0.8235c-0.03701-0.064079-0.37086-0.6423-0.53802-0.9319l5.8221-3.3106-4.455 7.5672c-0.85813-0.49465-1.4418-0.83038-2.033-1.1717l-1.2609 2.1859c0.58508 0.33775 1.1639 0.669 2.0125 1.1581l-0.3703 0.6322-0.7366 1.2494-3.2154-1.8582-1.2608 2.1859 3.1949 1.8447-3.4953 5.9355-4.6272-2.6785-1.2609 2.1859 4.6067 2.665-1.8882 3.2074-10.213 4.2482 0.9664 2.3326 7.1024-2.9596-1.1014 1.891-1.1421 1.9525-5.8962 1.6673 0.6972 2.4373 3.3323-0.9477-1.8436 3.1309 2.1724 1.2814 2.1247-3.6101 1.0869 4.0126 2.4347-0.6577-1.7267-6.3943 2.0801-3.5337 1.0712 6.291 2.493-0.4251-1.5827-9.2412 2.018-3.4218 4.3159 2.4907 1.2608-2.1859-4.2954-2.4771 3.4953-5.9355 2.7621 1.6002 1.2704-2.1914-2.7512-1.5812 1.107-1.8815c0.57779 0.33291 1.6466 0.95017 1.7681 1.0203l1.2609-2.1859c-0.11994-0.069298-1.1805-0.68004-1.7476-1.0068l3.371-5.7116 0.1335 3.3713 0.015 0.3336c-0.52938 0.023899-0.89473 0.039089-1.2608 0.055962l0.074 1.6434c0.36321-0.016708 0.72637-0.02676 1.2513-0.050499l0.0734 1.7959-2.0506 0.0936 0.074 1.6434 2.0355-0.0976 0.2073 5.2558-2.9778 0.1345 0.0686 1.6339 2.9777-0.1345 0.03 0.9082 0.0811 2.0071-3.6037 6.67 1.4389 0.7794 2.2935-4.2401 0.1298 3.1453-0.0095 0.0055-2.3355 3.3769 1.3497 0.9323 1.1001-1.586 0.097 2.5176 1.6394-0.0591-0.1166-2.9247 1.5687 1.7947 1.229-1.0772-2.8966-3.3481-0.115-2.9003 2.2801 3.1589 1.3344-0.9606-3.7341-5.172-0.1173-3.1017 2.7762-0.1322-0.0781-1.6284-2.7667 0.1268-0.2073-5.2558 1.7414-0.0799-0.0686-1.6339-1.7319 0.0744-0.0734-1.7959c0.33822-0.015209 1.0094-0.0518 1.0838-0.055229l-0.0741-1.6434c-0.073551 0.00338-0.74073 0.034721-1.0742 0.049709l-0.2047-5.2953 1.9807 3.4966 2.3046 4.0576c-0.85895 0.49596-1.4425 0.83288-2.0348 1.1748l1.2626 2.1869c0.58674-0.33874 1.1653-0.6728 2.0158-1.1639l1.0734 1.9032-3.2233 1.861 1.2626 2.1869 3.2044-1.85 0.77 1.3558 2.6149 4.639-4.6306 2.6734 1.2626 2.187 4.6116-2.6626 1.842 3.2343 0.0055 0.0095-1.4424 10.962 2.5086 0.3266 0.9929-7.6348 2.1948 3.8673-1.503 5.9389 2.4623 0.6196 0.8457-3.3661 1.7885 3.1637 2.198-1.2436-2.0576-3.6297 4.0085 1.058 0.6456-2.4392-6.3933-1.697-2.0246-3.5726 5.987 2.2231 0.876-2.3694-8.7889-3.2551-1.9587-3.4585 4.3169-2.4924-1.2626-2.187-4.2979 2.4813-3.385-5.9948 2.7574-1.592-1.2626-2.1869-2.7384 1.5811-1.0735-1.9032c0.57316-0.33094 1.6381-0.9458 1.7591-1.0156l-1.2627-2.1869c-0.11958 0.069019-1.1765 0.6792-1.74 1.0046l-2.5147-4.4434-1.6993-2.9871 4.0858 2.1798c-0.24608 0.46743-0.41688 0.78842-0.58742 1.1125l1.4428 0.7644c0.17023-0.32328 0.34077-0.64552 0.58747-1.1125l1.5957 0.8536-0.9629 1.8237 1.4579 0.7684 0.9533-1.8182 4.1882 2.2475 0.4423 0.239-1.4005 2.6468 1.4579 0.7684 1.3909-2.6414 0.4013 0.2121 2.1706 1.1683 3.921 6.4839 1.4098-0.852-2.49-4.1153 0.5487 0.2917 2.206 1.1859 1.7339 3.7278 1.4935-0.6849-0.818-1.7463 2.2305 1.1843 0.7738-1.4483-2.5718-1.3804 2.3255-0.4298-0.3041-1.6247-4.3338 0.8159-0.0095 0.0055-2.5568-1.3763 3.8687-0.3699-0.1475-1.639-6.3435 0.607-2.7493-1.4681 1.2937-2.4584-1.4483-0.7738-1.2937 2.4584-4.6249-2.4771 0.8075-1.5438-1.4484-0.7739-0.813 1.5344-1.5903-0.8441c0.1595-0.30168 0.47289-0.89884 0.50777-0.96505l-1.4524-0.7589c-0.0341 0.064808-0.34072 0.65291-0.49419 0.94459l-5.4276-2.9011 9.8969 0.0799c1.11e-4 0.99472 0.0037 1.6714 0.003651 2.3559l2.5235 0.0011c0-0.67744-0.002136-1.3477-0.002251-2.3315l2.1804 0.0216 0.0016 3.7138 2.5235 1e-3 -0.0056-3.6988 2.2049 0.0202 4.6809 0.0486 6e-4 5.337 2.5235 1e-3 -0.0047-5.322 3.7207 0.0324 8.8002 6.7224 1.5326-2.0006-6.1301-4.6888 4.4738 0.0414 4.3878 4.2621 1.7555-1.8123-2.4866-2.4184 3.6322 0.0328 0.0256-2.525-4.1783-0.0345 2.9271-2.9451-1.7987-1.776-4.6571 4.6919-4.1048-0.0389 4.9104-4.0774-1.617-1.9443-7.2061 5.9861-3.9862-0.0312 1e-3 -4.983-2.5236-1e-3 -0.0025 4.9585-6.8803-0.0592 9e-4 -3.1826-2.5236-1e-3 0.0033 3.1676-2.1804-0.0216c-1.07e-4 -0.6666 4.73e-4 -1.9013 4.73e-4 -2.0414l-2.5235-1e-3c0 0.139 0.003471 1.3674 0.003582 2.0264l-8.057-0.0771 3.1393-1.7871c0.26514 0.45925 0.44744 0.7755 0.63131 1.0935l1.4168-0.8179c-0.18226-0.31526-0.36321-0.62902-0.62585-1.084l1.5744-0.8963 1.0266 1.7781 1.4168-0.818-1.0211-1.7686 4.571-2.601 1.4987 2.5958 1.4112-0.8275-1.4877-2.5768 0.0381-0.022 2.5022-1.4193 7.5684 0.1311 0.0295-1.6398-4.8064-0.0903 2.7304-1.551 4.0796 0.5224 0.2025-1.6255-1.9036-0.2448 2.1829-1.2477-0.8085-1.4222-2.5497 1.4467 0.8754-2.2169-1.5266-0.602-1.6172 4.1159-2.5497 1.4468 1.7725-3.4955-1.4659-0.7384-2.8849 5.6971-2.6868 1.5386-1.3944-2.4151-1.4263 0.8235 1.3889 2.4057-4.5615 2.5955-0.8784-1.5213-1.4263 0.8235 0.8729 1.5118-1.5649 0.8908c-0.16972-0.29413-0.50611-0.87676-0.54344-0.94132l-1.4167 0.8179c0.036953 0.06403 0.3708 0.64223 0.53796 0.93178l-3.934 2.2332 4.263-7.2409c0.85813 0.49466 1.4418 0.83038 2.033 1.1717l1.2704-2.1914c-0.58425-0.33739-1.1642-0.66833-2.0125-1.1582l1.1069-1.8815 3.2154 1.8583 1.2609-2.186-3.195-1.8447 3.4858-5.9299 4.6367 2.6731 1.2609-2.1859-4.6067-2.6651 1.8882-3.2074 10.213-4.2481-0.9759-2.3271-7.1024 2.9596 2.2531-3.8491 0.0095-0.0055 5.8716-1.6658-0.6917-2.4277-3.3228 0.9422 1.8436-3.131-2.1818-1.2758-2.1207 3.5952-1.0815-4.0031-2.4442 0.6632 1.7361 6.3888-2.0801 3.5337-1.0767-6.3005-2.4875 0.4346 1.5773 9.2317-0.196 0.3413-1.822 3.0804-4.3104-2.4811-1.2704 2.1914 4.2954 2.4771-0.3663 0.6172-3.1195 5.3128-2.7716-1.5946-1.2609 2.1859 2.7417 1.5866-1.103 1.8665c-0.57726-0.33338-1.647-0.95031-1.7682-1.0203l-1.2649 2.2009c0.1201 0.069389 1.1804 0.68003 1.7476 1.0068l-2.3072 3.9311-2.2545 3.8245 0.3785-4.922c0.52678 0.036388 0.88931 0.061268 1.2546 0.08704l0.118-1.6402c-0.36092-0.025459-0.71981-0.047119-1.2397-0.082981l0.1282-1.7982 2.0503 0.1474 0.118-1.6401-2.0352-0.1435 0.3989-5.238 2.9888 0.2141 0.118-1.6401-2.9739-0.2101 0.2241-2.9058 4.3547-6.2035-1.3456-0.9473-2.7592 3.9385 0.2448-3.1334 2.7222-3.0803-1.236-1.0867-1.2805 1.4492 0.193-2.5202-1.6306-0.1235-0.2335 2.9113-1.3324-1.9565-1.3564 0.9226 2.4921 3.6577-0.224 2.9058-1.9068-3.4125-1.4278 0.7989 3.1039 5.5739-0.2422 3.0939-2.7763-0.1974-0.1085 1.6347 2.7613 0.1934-0.4083 5.2435-1.7437-0.1216-0.1084 1.6347 1.7342 0.1271-0.1432 1.7942c-0.33755-0.023182-1.0073-0.067581-1.0816-0.072842l-0.118 1.6402c0.073769 0.005249 0.73897 0.055389 1.0721 0.078289l-0.2448 3.1334-0.0579 0.7561-3.4548-6.0938c0.86323-0.4984 1.4502-0.8373 2.0443-1.1803l-1.2626-2.187c-0.58856 0.33984-1.1706 0.67582-2.0253 1.1693l-1.0734-1.9031 3.2234-1.861-1.2626-2.187-3.2044 1.8501-3.385-5.9948 4.6306-2.6735-1.2627-2.187-4.6116 2.6625-0.9402-1.6504-0.9017-1.5839-0.0055-0.0095 1.4424-10.962-2.5086-0.3266-0.9929 7.6348-2.1948-3.8674 1.5029-5.9388-2.4567-0.61-0.8457 3.3662-1.7941-3.1733-2.1979 1.2436z" fill="#fff" fill-rule="evenodd" stroke="#00007f" stroke-width=".703"/>
</svg>
