<svg width="60" height="60" viewBox="0 0 60 60" fill="none" xmlns="http://www.w3.org/2000/svg">
<path d="M18.9501 10.2L15.3751 6.625C9.37507 11.2 5.42507 18.25 5.07507 26.25H10.0751C10.4501 19.625 13.8501 13.825 18.9501 10.2ZM49.9251 26.25H54.9251C54.5501 18.25 50.6001 11.2 44.6251 6.625L41.0751 10.2C46.1251 13.825 49.5501 19.625 49.9251 26.25ZM45.0001 27.5C45.0001 19.825 40.9001 13.4 33.7501 11.7V10C33.7501 7.925 32.0751 6.25 30.0001 6.25C27.9251 6.25 26.2501 7.925 26.2501 10V11.7C19.0751 13.4 15.0001 19.8 15.0001 27.5V40L10.0001 45V47.5H50.0001V45L45.0001 40V27.5ZM30.0001 55C30.3501 55 30.6751 54.975 31.0001 54.9C32.6251 54.55 33.9501 53.45 34.6001 51.95C34.8501 51.35 34.9751 50.7 34.9751 50H24.9751C25.0001 52.75 27.2251 55 30.0001 55Z" fill="#DD4A1F"/>
</svg>
