<svg width="168" height="32" viewBox="0 0 168 32" fill="none" xmlns="http://www.w3.org/2000/svg">
<path fill-rule="evenodd" clip-rule="evenodd" d="M0 0C0 0 0.688779 0.0466778 14.8355 1.89331C28.9823 3.73994 33.8785 18.0693 25.2168 30.5755C26.5567 19.4011 24.1044 7.80883 14.2544 6.45362C4.40442 5.09841 5.26233 5.30605 5.26233 5.30605C5.26233 5.30605 5.42554 7.76726 6.34981 14.3835C7.27407 20.9997 12.4462 24.2444 16.9725 25.9147C16.9725 25.9147 17.238 18.1716 14.7126 14.7635C12.1872 11.3553 9.04536 9.09193 9.04536 9.09193C9.04536 9.09193 16.4288 9.97645 19.2165 15.1199C22.0041 20.2633 21.7325 31.1351 21.7325 31.1351L18.7253 30.9798C10.6337 30.0089 3.07407 25.1419 1.78869 14.9307C0.503317 4.71952 0 0 0 0Z" fill="url(#paint0_linear)"/>
<path d="M37.4605 28.3638C38.737 29.6974 42.0996 31.7133 45.4932 31.7133C51.0041 31.7133 54.2109 28.4878 54.2109 24.8591C54.2109 16.5783 43.6563 17.5087 43.6563 13.3838C43.6563 11.771 45.1819 11.0887 46.7698 11.0887C48.3576 11.0887 50.07 11.9571 51.2843 13.1667L53.4326 9.87917C52.9655 9.38294 50.3814 7.1499 46.7386 7.1499C42.8157 7.1499 39.0484 9.38294 39.0484 13.5699C39.0484 20.7342 49.5096 19.9588 49.5096 24.9212C49.5096 26.6269 48.2331 27.7435 45.8357 27.7435C43.1893 27.7435 40.9787 26.3168 39.7645 25.2003L37.4605 28.3638Z" fill="#230820"/>
<path d="M70.0767 26.8751C69.4851 27.4333 67.7727 28.4258 65.3442 28.4258C62.8535 28.4258 60.1759 27.7435 59.74 24.7971H71.8514V23.2464C71.8514 18.7803 69.2983 14.8725 64.13 14.8725C59.1796 14.8725 55.6302 18.4702 55.6302 23.3084C55.6302 28.3948 59.1796 31.6513 64.4413 31.6513C67.9907 31.6513 70.4192 30.4107 71.2598 29.6974L70.0767 26.8751ZM59.74 21.7577C60.207 19.4316 61.826 18.036 64.1611 18.036C66.3717 18.036 67.7416 19.7418 67.7727 21.7577H59.74Z" fill="#230820"/>
<path d="M87.4464 26.8751C86.8548 27.4333 85.1424 28.4258 82.7139 28.4258C80.2232 28.4258 77.5456 27.7435 77.1097 24.7971H89.2211V23.2464C89.2211 18.7803 86.668 14.8725 81.4997 14.8725C76.5493 14.8725 72.9999 18.4702 72.9999 23.3084C72.9999 28.3948 76.5493 31.6513 81.811 31.6513C85.3604 31.6513 87.7889 30.4107 88.6295 29.6974L87.4464 26.8751ZM77.1097 21.7577C77.5767 19.4316 79.1957 18.036 81.5308 18.036C83.7414 18.036 85.1113 19.7418 85.1424 21.7577H77.1097Z" fill="#230820"/>
<path d="M102.076 27.6504C101.173 28.2087 100.021 28.3327 99.1496 28.3327C96.7522 28.3327 94.6662 26.4098 94.6662 23.4635C94.6662 20.3931 96.2852 18.2531 98.8383 18.2531C100.021 18.2531 101.36 18.7183 102.076 19.4626V27.6504ZM102.076 15.8029C101.08 15.1516 99.8346 14.8725 98.7137 14.8725C93.8256 14.8725 90.3696 18.4081 90.3696 23.4635C90.3696 28.829 94.6662 31.6513 99.1496 31.6513C101.422 31.6513 103.913 31.093 106.155 29.7284V7.70816H102.076V15.8029Z" fill="#230820"/>
<path d="M113.052 31.1861V22.2849H114.982C121.178 22.2849 124.042 19.1525 124.042 14.6554C124.042 9.35192 119.746 7.70816 114.951 7.70816H110.063V31.1861H113.052ZM113.052 19.6487V10.3754H115.729C118.749 10.3754 120.929 11.8021 120.929 14.6864C120.929 17.7258 118.718 19.6487 114.92 19.6487H113.052Z" fill="#230820"/>
<path d="M128.818 31.1861V21.5096C128.911 20.176 129.97 18.16 131.744 18.16C132.616 18.16 133.239 18.5632 133.644 18.8423L134.733 16.2681C134.329 15.989 133.363 15.5548 132.118 15.5548C130.343 15.5548 129.036 17.4777 128.818 18.222V15.927H126.078V31.1861H128.818Z" fill="#230820"/>
<path d="M151.168 23.5875C151.168 19.1525 147.618 15.5238 143.01 15.5238C138.371 15.5238 134.76 19.0594 134.76 23.5875C134.76 28.0846 138.371 31.6203 142.979 31.6203C147.587 31.6203 151.168 28.0226 151.168 23.5875ZM142.917 29.3562C140.146 29.3562 137.624 26.9681 137.624 23.6806C137.624 20.269 139.835 17.8499 142.979 17.8499C145.844 17.8499 148.272 20.238 148.272 23.5875C148.272 27.0301 146.093 29.3562 142.917 29.3562Z" fill="#230820"/>
<path d="M164.942 28.2707C163.728 29.0771 162.265 29.3252 161.175 29.3252C158.248 29.3252 155.664 27.3093 155.664 23.7736C155.664 20.1449 157.688 17.8809 160.77 17.8809C162.451 17.8809 164.164 18.5942 164.942 19.6797V28.2707ZM164.942 16.9194C163.821 15.989 162.202 15.5238 160.677 15.5238C156.038 15.5238 152.769 18.8423 152.769 23.7736C152.769 29.0151 156.878 31.6203 161.175 31.6203C163.385 31.6203 165.689 31 167.682 29.6353V7.70816H164.942V16.9194Z" fill="#230820"/>
<defs>
<linearGradient id="paint0_linear" x1="0" y1="0" x2="29.0158" y2="28.692" gradientUnits="userSpaceOnUse">
<stop offset="0.109375" stop-color="#FFB800"/>
<stop offset="0.510417" stop-color="#EB5500"/>
<stop offset="1" stop-color="#6712D2"/>
</linearGradient>
</defs>
</svg>
