<svg width="171" height="106" viewBox="0 0 171 106" fill="none" xmlns="http://www.w3.org/2000/svg">
<rect width="171" height="106" rx="5" fill="#F7F6F7"/>
<rect x="16" y="4" width="142" height="6" rx="3" fill="white"/>
<rect x="28" y="38" width="37" height="5" rx="2.5" fill="#D3CED2"/>
<rect x="28" y="46" width="55" height="5" rx="2.5" fill="#D3CED2"/>
<path d="M6 8.5L5 7L6 5.5" stroke="#D3CED2" stroke-linecap="round" stroke-linejoin="round"/>
<rect x="28.5" y="61" width="20" height="7" rx="3" fill="#D3CED2"/>
<path d="M10 8.5L11 7L10 5.5" stroke="#D3CED2" stroke-linecap="round" stroke-linejoin="round"/>
<path fill-rule="evenodd" clip-rule="evenodd" d="M165.75 5C165.75 5.27614 165.526 5.5 165.25 5.5L162.25 5.5C161.974 5.5 161.75 5.27614 161.75 5C161.75 4.72386 161.974 4.5 162.25 4.5H165.25C165.526 4.5 165.75 4.72386 165.75 5ZM165.75 7C165.75 7.27614 165.526 7.5 165.25 7.5L162.25 7.5C161.974 7.5 161.75 7.27614 161.75 7C161.75 6.72386 161.974 6.5 162.25 6.5L165.25 6.5C165.526 6.5 165.75 6.72386 165.75 7ZM165.25 9.5C165.526 9.5 165.75 9.27614 165.75 9C165.75 8.72386 165.526 8.5 165.25 8.5L162.25 8.5C161.974 8.5 161.75 8.72386 161.75 9C161.75 9.27614 161.974 9.5 162.25 9.5H165.25Z" fill="#D3CED2"/>
<rect x="97" y="31" width="48" height="44" rx="5" fill="white"/>
<path d="M110.941 55.4138L102 67H140L127.706 51L118.206 63.1379L110.941 55.4138Z" fill="#D3CED2"/>
</svg>
