<svg xmlns="http://www.w3.org/2000/svg" width="79px" height="63px" viewBox="0 0 79 63" version="1.1">
    <!-- Generator: Sketch 58 (84663) - https://sketch.com -->
    <title>Shape</title>
    <desc>Created with Sketch.</desc>
    <g id="WPB-Editor" stroke="none" stroke-width="1" fill="none" fill-rule="evenodd">
        <g id="Artboard" transform="translate(-618.000000, -393.000000)" fill="#BDCBD1">
            <g id="wpb-blank-page" transform="translate(107.000000, 353.000000)">
                <g id="symbol" transform="translate(511.000000, 40.000000)">
                    <path d="M28.7272727,0 C39.4884275,0 48.8676006,5.91504645 53.7888559,14.6702016 C54.9800552,14.4653322 56.2048757,14.3589744 57.4545455,14.3589744 C69.3537714,14.3589744 79,24.0020721 79,35.8974359 C79,47.6738461 69.5457314,57.2428103 57.8108389,57.4330119 L57.4545455,57.4358974 L55.7488636,57.4358077 L55.7488636,58.9615385 C55.7488636,61.1919192 53.9401958,63 51.7090909,63 L27.4704545,63 C25.2393497,63 23.4306818,61.1919192 23.4306818,58.9615385 L23.4310538,56.9488572 C10.0953774,54.4642599 0,42.7696725 0,28.7179487 C0,12.8574636 12.8616381,0 28.7272727,0 Z M16.3949022,16.3951879 C16.0638683,16.7264612 15.9303531,17.2032558 16.0348491,17.6538649 L16.0692795,17.77598 L21.1720484,33.1021055 C21.3683474,33.6556022 21.8999139,34.0184201 22.4865001,33.9992774 C23.0329373,33.9899412 23.5154385,33.6521483 23.7153363,33.1511819 L23.7537663,33.0413946 L25.5872579,26.9298322 C25.7693077,26.3292415 26.218417,25.8499209 26.7991287,25.6274258 L26.9354135,25.5807015 L33.0425583,23.7458836 C33.6029747,23.5760356 33.9897529,23.0635926 33.9997488,22.4777007 C34.0102502,21.9310969 33.6906751,21.4364504 33.1979262,21.2182367 L33.0897438,21.1757895 L17.7746963,16.0693296 C17.2902151,15.9076433 16.7560301,16.0337988 16.3949022,16.3951879 Z" id="Shape"/>
                </g>
            </g>
        </g>
    </g>
</svg>
