<svg viewBox="0 0 224 180" xmlns="http://www.w3.org/2000/svg"><defs><style>.a{fill:#e0e0e0;}.b{fill:#b7b7b7;}</style></defs><path class="a" d="M48 48h128v94H48z"/><path class="b" d="M182 42v106H42V42h140m4-4H38v114h148V38z"/><path class="b" d="M48 112.1V142h128v-30l-20-20-22 20-44-41-42 41.1"/><g id="blimpIcon"><g id="Layer_1"><g id="Group"><g id="blimpIcon"><g id="Layer_1"><g id="Group" stroke="#B5B5B5" fill="#B5B5B5"><path d="M148.93 69.854c.428.71.428 1.628 0 2.338-2.733 4.615-10.053 5.237-15.208 5.118-5.383-.118-10.026-1.36-11.678-1.952-2.42-.888-4.984-2.338-6.864-4.172-.17-.148-.17-.385 0-.533 1.88-1.834 4.415-3.106 6.864-3.964 1.652-.593 6.295-1.836 11.678-1.954 5.155-.118 12.475.503 15.21 5.118z" id="Shape" stroke-width=".86"/><path d="M132.09 76.397c-1.014-.04-1.99-.083-2.93-.165v3.6h7.2v-3.518c-1.485.124-2.932.124-4.27.083z" id="Shape" stroke-width=".86"/><path d="M118.79 73.8l.32 3.6 2.096-.062c1.282-.042 2.44-.708 2.983-1.686M118.79 68.4l.32-3.6 2.096.062c1.282.042 2.44.708 2.983 1.686" id="Shape" stroke-width=".688"/></g></g></g></g></g></g></svg>