<svg xmlns="http://www.w3.org/2000/svg" x="0px" y="0px" viewBox="0 0 1202 10">
<line fill="none" stroke="#798184" stroke-width="2" stroke-miterlimit="10" x1="1" y1="1" x2="21" y2="1"/>
<line fill="none" stroke="#798184" stroke-width="2" stroke-miterlimit="10" x1="41" y1="1" x2="61" y2="1"/>
<line fill="none" stroke="#798184" stroke-width="2" stroke-miterlimit="10" x1="81" y1="1" x2="101" y2="1"/>
<line fill="none" stroke="#798184" stroke-width="2" stroke-miterlimit="10" x1="121" y1="1" x2="141" y2="1"/>
<line fill="none" stroke="#798184" stroke-width="2" stroke-miterlimit="10" x1="161" y1="1" x2="181" y2="1"/>
<line fill="none" stroke="#798184" stroke-width="2" stroke-miterlimit="10" x1="201" y1="1" x2="221" y2="1"/>
<line fill="none" stroke="#798184" stroke-width="2" stroke-miterlimit="10" x1="241" y1="1" x2="261" y2="1"/>
<line fill="none" stroke="#798184" stroke-width="2" stroke-miterlimit="10" x1="281" y1="1" x2="301" y2="1"/>
<line fill="none" stroke="#798184" stroke-width="2" stroke-miterlimit="10" x1="321" y1="1" x2="341" y2="1"/>
<line fill="none" stroke="#798184" stroke-width="2" stroke-miterlimit="10" x1="361" y1="1" x2="381" y2="1"/>
<line fill="none" stroke="#798184" stroke-width="2" stroke-miterlimit="10" x1="401" y1="1" x2="421" y2="1"/>
<line fill="none" stroke="#798184" stroke-width="2" stroke-miterlimit="10" x1="441" y1="1" x2="461" y2="1"/>
<line fill="none" stroke="#798184" stroke-width="2" stroke-miterlimit="10" x1="481" y1="1" x2="501" y2="1"/>
<line fill="none" stroke="#798184" stroke-width="2" stroke-miterlimit="10" x1="521" y1="1" x2="541" y2="1"/>
<line fill="none" stroke="#798184" stroke-width="2" stroke-miterlimit="10" x1="561" y1="1" x2="581" y2="1"/>
<line fill="none" stroke="#798184" stroke-width="2" stroke-miterlimit="10" x1="601" y1="1" x2="621" y2="1"/>
<line fill="none" stroke="#798184" stroke-width="2" stroke-miterlimit="10" x1="641" y1="1" x2="661" y2="1"/>
<line fill="none" stroke="#798184" stroke-width="2" stroke-miterlimit="10" x1="681" y1="1" x2="701" y2="1"/>
<line fill="none" stroke="#798184" stroke-width="2" stroke-miterlimit="10" x1="721" y1="1" x2="741" y2="1"/>
<line fill="none" stroke="#798184" stroke-width="2" stroke-miterlimit="10" x1="761" y1="1" x2="781" y2="1"/>
<line fill="none" stroke="#798184" stroke-width="2" stroke-miterlimit="10" x1="801" y1="1" x2="821" y2="1"/>
<line fill="none" stroke="#798184" stroke-width="2" stroke-miterlimit="10" x1="841" y1="1" x2="861" y2="1"/>
<line fill="none" stroke="#798184" stroke-width="2" stroke-miterlimit="10" x1="881" y1="1" x2="901" y2="1"/>
<line fill="none" stroke="#798184" stroke-width="2" stroke-miterlimit="10" x1="921" y1="1" x2="941" y2="1"/>
<line fill="none" stroke="#798184" stroke-width="2" stroke-miterlimit="10" x1="961" y1="1" x2="981" y2="1"/>
<line fill="none" stroke="#798184" stroke-width="2" stroke-miterlimit="10" x1="1001" y1="1" x2="1021" y2="1"/>
<line fill="none" stroke="#798184" stroke-width="2" stroke-miterlimit="10" x1="1041" y1="1" x2="1061" y2="1"/>
<line fill="none" stroke="#798184" stroke-width="2" stroke-miterlimit="10" x1="1081" y1="1" x2="1101" y2="1"/>
<line fill="none" stroke="#798184" stroke-width="2" stroke-miterlimit="10" x1="1121" y1="1" x2="1141" y2="1"/>
<line fill="none" stroke="#798184" stroke-width="2" stroke-miterlimit="10" x1="1161" y1="1" x2="1181" y2="1"/>
</svg>
