<svg xmlns="http://www.w3.org/2000/svg" x="0px" y="0px" viewBox="0 0 1163.2 18.2">
<path fill="none" stroke="#798184" stroke-width="2" stroke-miterlimit="10" d="M0.5,7.1c0,0,15.3-14.9,36.3,0s36.3,0,36.3,0
	s15.3-14.9,36.3,0s36.3,0,36.3,0s15.3-14.9,36.3,0s36.3,0,36.3,0s15.3-14.9,36.3,0s36.3,0,36.3,0s15.3-14.9,36.3,0
	c21.1,14.9,36.3,0,36.3,0s15.3-14.9,36.3,0c21.1,14.9,36.3,0,36.3,0s15.3-14.9,36.3,0c21.1,14.9,36.3,0,36.3,0s15.3-14.9,36.3,0
	c21.1,14.9,36.3,0,36.3,0s15.3-14.9,36.3,0s36.3,0,36.3,0s15.3-14.9,36.3,0c21.1,14.9,36.3,0,36.3,0s15.3-14.9,36.3,0s36.3,0,36.3,0
	s15.3-14.9,36.3,0c21.1,14.9,36.3,0,36.3,0s15.3-14.9,36.3,0c21.1,14.9,36.3,0,36.3,0s15.3-14.9,36.3,0c21.1,14.9,36.3,0,36.3,0
	s15.3-14.9,36.3,0c21.1,14.9,36.3,0,36.3,0s15.3-14.9,36.3,0s36.3,0,36.3,0"/>
<path fill="none" stroke="#798184" stroke-width="2" stroke-miterlimit="10" d="M1162.7,7.1c0,0-15.3-14.9-36.3,0
	s-36.3,0-36.3,0s-15.3-14.9-36.3,0c-21.1,14.9-36.3,0-36.3,0s-15.3-14.9-36.3,0c-21.1,14.9-36.3,0-36.3,0s-15.3-14.9-36.3,0
	c-21.1,14.9-36.3,0-36.3,0s-15.3-14.9-36.3,0c-21.1,14.9-36.3,0-36.3,0s-15.3-14.9-36.3,0s-36.3,0-36.3,0s-15.3-14.9-36.3,0
	c-21.1,14.9-36.3,0-36.3,0s-15.3-14.9-36.3,0s-36.3,0-36.3,0s-15.3-14.9-36.3,0c-21.1,14.9-36.3,0-36.3,0s-15.3-14.9-36.3,0
	c-21.1,14.9-36.3,0-36.3,0s-15.3-14.9-36.3,0c-21.1,14.9-36.3,0-36.3,0s-15.3-14.9-36.3,0c-21.1,14.9-36.3,0-36.3,0
	s-15.3-14.9-36.3,0s-36.3,0-36.3,0s-15.3-14.9-36.3,0s-36.3,0-36.3,0s-15.3-14.9-36.3,0s-36.3,0-36.3,0s-15.3-14.9-36.3,0
	s-36.3,0-36.3,0"/>
</svg>
