<svg xmlns="http://www.w3.org/2000/svg" x="0px" y="0px" viewBox="0 0 629.3 60.8">
<path fill="none" stroke="#798184" stroke-miterlimit="10" stroke-width="2" d="M60.3,31c0,0,111.8-7.5,150.6-5c0,0,25.2,2.4,22.5-21.7
	c0,0-24.1-5-21.2,21.7c0,0-3.7,24.3,21.2,21.7c0,0,5-22.7-21.2-21.7c0,0,13.8,20,29.8,0.5c0,0-13.3-19.9-29.8-0.5l29.8,0.5
	c0,0,100.6,3.6,196.6,15.9c96.8,12.4,154.8-0.9,190.6-9.9"/>
<path fill="none" stroke="#798184" stroke-miterlimit="10" stroke-width="2" d="M30.4,30.4c0,0-8.3-4-8.6-14.9s8.6-14.9,8.6-14.9s8.7,4.4,8.6,14.9
	C39,26,26.6,39,15.5,39C4.4,39.1,0.6,30.4,0.6,30.4s4.5-8.7,14.9-8.6C25.9,21.9,38.8,34.4,39,45.3c0.2,11-8.6,14.9-8.6,14.9
	s-8.5-4.4-8.6-14.9S33.9,22,45.3,21.8C56.8,21.6,60.3,31,60.3,31s-5.5,8.4-14.9,8c-9.4-0.3-23.2-8.9-10.5-25.3c0,0,5.8-7.1,16.7-4.5
	c0,0,2.8,9.8-4.5,16.7s-18.3,5.6-18.3,5.6s-10.1,0-15-5.6S7.9,14.2,9.3,9.3c0,0,10.3-2.9,16.7,4.5s9.2,22.3,0,33.3
	c0,0-4.7,6.4-16.7,4.5c0,0-2.4-11,4.5-16.7s21.5-9.2,33.3,0c0,0,6.4,4.2,4.5,16.7c0,0-9.2,2.9-16.7-4.5c0,0-8.4-8.9-3.5-17"/>
</svg>

