<svg xmlns="http://www.w3.org/2000/svg" x="0px" y="0px" viewBox="0 0 1200 115.3">
<g>
	<path fill="none" stroke="#798184" stroke-width="2" stroke-miterlimit="10" d="M0,52.2c0,0,519.4,0,525.8,0
		c6.4,0,22.6-2.6,26.2-23.3c3-17.2-18.9-15-19.9-4.3c0,0-10-15.3-19.1-3.5c-5.4,7,4.5,29.9,21.1,33.5c33.6,7.1,40,16.2,42.6,24
		c5.5,16.3-11.8,23.6-19,13c0,0-10.4,14-19,1.3c-4.4-6.4-3.2-17,5.8-26.9c8.2-8.9,19.8-13.8,32-13.8h47.1c12.1,0,23.8-4.9,31.9-13.8
		c9.1-9.9,10.2-20.5,5.8-26.9c-8.6-12.7-19,1.3-19,1.3c-7.2-10.6-24.5-3.3-19,13c2.6,7.8,9,16.9,42.6,24
		c16.7,3.5,26.6,26.5,21.1,33.5c-9.1,11.8-19.1-3.5-19.1-3.5c-1,10.7-22.8,12.9-19.9-4.3c3.6-20.6,19.8-23.3,26.2-23.3
		c6.4,0,525.8,0,525.8,0"/>
	<circle fill="none" stroke="#798184" stroke-miterlimit="10" cx="616.4" cy="40.4" r="4.1"/>
	<circle fill="none" stroke="#798184" stroke-miterlimit="10" cx="557.9" cy="112.5" r="2.3"/>
	<circle fill="none" stroke="#798184" stroke-miterlimit="10" cx="692" cy="98.3" r="2.8"/>
	<circle fill="none" stroke="#798184" stroke-miterlimit="10" cx="506.8" cy="76.6" r="3.3"/>
	<circle fill="none" stroke="#798184" stroke-miterlimit="10" cx="395" cy="29.8" r="3.3"/>
	<circle fill="none" stroke="#798184" stroke-miterlimit="10" cx="585.7" cy="4.1" r="3.6"/>
	<circle fill="none" stroke="#798184" stroke-miterlimit="10" cx="689.2" cy="35.2" r="2.9"/>
	<circle fill="none" stroke="#798184" stroke-miterlimit="10" cx="580.6" cy="64.4" r="2.5"/>
	<circle fill="none" stroke="#798184" stroke-miterlimit="10" cx="736.8" cy="67" r="2.5"/>
	<circle fill="none" stroke="#798184" stroke-miterlimit="10" cx="765.4" cy="32.3" r="2.5"/>
	<path fill="none" stroke="#798184" stroke-miterlimit="10" d="M478.7,35.7c0,0,2.2-2.7,3.9,0.1c1.5,2.6-3.9,5.6-3.9,5.6
		s-4.4-2.5-4.6-4.6C473.9,34.4,476.5,33.8,478.7,35.7z"/>
	<path fill="none" stroke="#798184" stroke-miterlimit="10" d="M630.7,78.6c0,0,1.4-1.7,2.4,0.1c0.9,1.6-2.4,3.5-2.4,3.5
		s-2.8-1.5-2.8-2.9C627.8,77.8,629.4,77.5,630.7,78.6z"/>
	<path fill="none" stroke="#798184" stroke-miterlimit="10" d="M422.4,75.6c0,0,2.2-2.7,3.9,0.1c1.5,2.6-3.9,5.6-3.9,5.6
		s-4.4-2.5-4.6-4.6C417.6,74.3,420.2,73.7,422.4,75.6z"/>
	<path fill="none" stroke="#798184" stroke-miterlimit="10" d="M808.8,70.8c0,0,2.2-2.7,3.9,0.1c1.5,2.6-3.9,5.6-3.9,5.6
		s-4.4-2.5-4.6-4.6C804.1,69.5,806.7,68.9,808.8,70.8z"/>
	<path fill="none" stroke="#798184" stroke-miterlimit="10" d="M558,43c0,0,1.4-1.7,2.4,0.1c0.9,1.6-2.4,3.5-2.4,3.5
		s-2.8-1.5-2.8-2.9C555.1,42.2,556.7,41.9,558,43z"/>
	<path fill="none" stroke="#798184" stroke-miterlimit="10" d="M721.8,8.9c0,0,2.2-2.7,3.9,0.1c1.5,2.6-3.9,5.6-3.9,5.6
		s-4.4-2.5-4.6-4.6C717,7.5,719.6,7,721.8,8.9z"/>
</g>
</svg>
