<svg xmlns="http://www.w3.org/2000/svg" x="0px" y="0px" viewBox="0 0 689.5 115.3">
<path fill="none" stroke="#798184" stroke-width="2" stroke-miterlimit="10" d="M21.1,53.9c6.4,0,19.1-6.6,20.4-25
	c1.3-17.4-18.9-15-19.9-4.3c0,0-10-15.3-19.1-3.5c-5.4,7,4.5,29.9,21.1,33.5c33.6,7.1,40,16.2,42.6,24c5.5,16.3-11.8,23.6-19,13
	c0,0-10.4,14-19,1.3C23.8,86.5,24.9,76,34,66c8.2-8.9,19.8-13.8,32-13.8H113c12.1,0,23.8-4.9,31.9-13.8c9.1-9.9,10.2-20.5,5.8-26.9
	c-8.6-12.7-19,1.3-19,1.3c-7.2-10.6-24.5-3.3-19,13c2.6,7.8,9,16.9,42.6,24c16.7,3.5,26.6,26.5,21.1,33.5
	c-9.1,11.8-19.1-3.5-19.1-3.5c-1,10.7-22.8,12.9-19.9-4.3c3.6-20.6,19.8-23.3,26.2-23.3c6.4,0,525.8,0,525.8,0"/>
<circle fill="none" stroke="#798184" stroke-width="2" stroke-miterlimit="10" cx="105.9" cy="40.4" r="4.1"/>
<circle fill="none" stroke="#798184" stroke-width="2" stroke-miterlimit="10" cx="47.3" cy="112.5" r="2.3"/>
<circle fill="none" stroke="#798184" stroke-width="2" stroke-miterlimit="10" cx="181.5" cy="98.3" r="2.8"/>
<circle fill="none" stroke="#798184" stroke-width="2" stroke-miterlimit="10" cx="75.2" cy="4.1" r="3.6"/>
<circle fill="none" stroke="#798184" stroke-width="2" stroke-miterlimit="10" cx="178.6" cy="35.2" r="2.9"/>
<circle fill="none" stroke="#798184" stroke-width="2" stroke-miterlimit="10" cx="70.1" cy="64.4" r="2.5"/>
<circle fill="none" stroke="#798184" stroke-width="2" stroke-miterlimit="10" cx="226.2" cy="67" r="2.5"/>
<circle fill="none" stroke="#798184" stroke-width="2" stroke-miterlimit="10" cx="254.8" cy="32.3" r="2.5"/>
<path fill="none" stroke="#798184" stroke-width="2" stroke-miterlimit="10" d="M120.2,78.6c0,0,1.4-1.7,2.4,0.1c0.9,1.6-2.4,3.5-2.4,3.5
	s-2.8-1.5-2.8-2.9C117.2,77.8,118.8,77.5,120.2,78.6z"/>
<path fill="none" stroke="#798184" stroke-width="2" stroke-miterlimit="10" d="M298.3,70.8c0,0,2.2-2.7,3.9,0.1c1.5,2.6-3.9,5.6-3.9,5.6
	s-4.4-2.5-4.6-4.6C293.6,69.5,296.1,68.9,298.3,70.8z"/>
<path fill="none" stroke="#798184" stroke-width="2" stroke-miterlimit="10" d="M47.5,43c0,0,1.4-1.7,2.4,0.1c0.9,1.6-2.4,3.5-2.4,3.5
	s-2.8-1.5-2.8-2.9C44.5,42.2,46.1,41.9,47.5,43z"/>
<path fill="none" stroke="#798184" stroke-width="2" stroke-miterlimit="10" d="M211.2,8.9c0,0,2.2-2.7,3.9,0.1c1.5,2.6-3.9,5.6-3.9,5.6
	s-4.4-2.5-4.6-4.6C206.5,7.5,209.1,7,211.2,8.9z"/>
<circle fill="none" stroke="#798184" stroke-width="2" stroke-miterlimit="10" cx="8.5" cy="69.9" r="3.3"/>
</svg>
