<svg xmlns="http://www.w3.org/2000/svg" x="0px" y="0px" viewBox="0 0 1014.8 42.2">
<g>
	<path fill="none" stroke="#798184" stroke-width="2" stroke-miterlimit="10" d="M989.8,11.8c-77.6,25.6-166.6,8.3-298.7-8.1
		S505,40.4,505,40.4S450.9-12.8,318.8,3.7S97.7,37.4,20.1,11.8"/>
	<path fill="none" stroke="#798184" stroke-width="2" stroke-miterlimit="10" d="M20.1,30.5c77.6-25.6,166.6-8.3,298.7,8.1
		S505,1.9,505,1.9S559,55,691.1,38.6s221.1-33.7,298.7-8.1"/>
	<path fill="none" stroke="#798184" stroke-width="2" stroke-miterlimit="10" d="M727.4,21.3c-101.8,17.2-143,0-143,0
		S625.7,4.1,727.4,21.3z"/>
	<path fill="none" stroke="#798184" stroke-width="2" stroke-miterlimit="10" d="M1011.8,21.3c-24.4,4.1-34.2,0-34.2,0
		S987.5,17.2,1011.8,21.3z"/>
	<path fill="none" stroke="#798184" stroke-width="2" stroke-miterlimit="10" d="M3,21.3c24.4-4.1,34.2,0,34.2,0
		S27.4,25.4,3,21.3z"/>
	<path fill="none" stroke="#798184" stroke-width="2" stroke-miterlimit="10" d="M287.5,21.3c101.8-17.2,143,0,143,0
		S389.3,38.5,287.5,21.3z"/>
</g>
</svg>
