<svg xmlns="http://www.w3.org/2000/svg" x="0px" y="0px" viewBox="0 0 1225.4 38.4">
<g>
	<path fill="none" stroke="#798184" stroke-width="2" stroke-miterlimit="10" d="M31.6,19.1
		c0,0,15.3-14.9,36.3,0s36.3,0,36.3,0s15.3-14.9,36.3,0s36.3,0,36.3,0s15.3-14.9,36.3,0s36.3,0,36.3,0s15.3-14.9,36.3,0
		c21.1,14.9,36.3,0,36.3,0s15.3-14.9,36.3,0s36.3,0,36.3,0s15.3-14.9,36.3,0s36.3,0,36.3,0s15.3-14.9,36.3,0
		c21.1,14.9,36.3,0,36.3,0s15.3-14.9,36.3,0c21.1,14.9,36.3,0,36.3,0s15.3-14.9,36.3,0c21.1,14.9,36.3,0,36.3,0s15.3-14.9,36.3,0
		c21.1,14.9,36.3,0,36.3,0s15.3-14.9,36.3,0s36.3,0,36.3,0s15.3-14.9,36.3,0c21.1,14.9,36.3,0,36.3,0s15.3-14.9,36.3,0
		s36.3,0,36.3,0s15.3-14.9,36.3,0c21.1,14.9,36.3,0,36.3,0s15.3-14.9,36.3,0c21.1,14.9,36.3,0,36.3,0s15.3-14.9,36.3,0
		s36.3,0,36.3,0"/>
	<g>
		
			<circle fill="none" stroke="#798184" stroke-width="2" stroke-miterlimit="10" cx="1175.6" cy="12.5" r="3.5"/>
		
			<circle fill="none" stroke="#798184" stroke-width="2" stroke-miterlimit="10" cx="1103" cy="12.5" r="3.5"/>
		
			<circle fill="none" stroke="#798184" stroke-width="2" stroke-miterlimit="10" cx="1030.3" cy="12.5" r="3.5"/>
		
			<circle fill="none" stroke="#798184" stroke-width="2" stroke-miterlimit="10" cx="957.7" cy="12.5" r="3.5"/>
		
			<circle fill="none" stroke="#798184" stroke-width="2" stroke-miterlimit="10" cx="885.1" cy="12.5" r="3.5"/>
		
			<circle fill="none" stroke="#798184" stroke-width="2" stroke-miterlimit="10" cx="812.4" cy="12.5" r="3.5"/>
		
			<circle fill="none" stroke="#798184" stroke-width="2" stroke-miterlimit="10" cx="739.8" cy="12.5" r="3.5"/>
		
			<circle fill="none" stroke="#798184" stroke-width="2" stroke-miterlimit="10" cx="667.2" cy="12.5" r="3.5"/>
		
			<circle fill="none" stroke="#798184" stroke-width="2" stroke-miterlimit="10" cx="594.5" cy="12.5" r="3.5"/>
		
			<circle fill="none" stroke="#798184" stroke-width="2" stroke-miterlimit="10" cx="521.8" cy="12.5" r="3.5"/>
		
			<circle fill="none" stroke="#798184" stroke-width="2" stroke-miterlimit="10" cx="449.2" cy="12.5" r="3.5"/>
		
			<circle fill="none" stroke="#798184" stroke-width="2" stroke-miterlimit="10" cx="376.6" cy="12.5" r="3.5"/>
		
			<circle fill="none" stroke="#798184" stroke-width="2" stroke-miterlimit="10" cx="304" cy="12.5" r="3.5"/>
		
			<circle fill="none" stroke="#798184" stroke-width="2" stroke-miterlimit="10" cx="231.3" cy="12.5" r="3.5"/>
		
			<circle fill="none" stroke="#798184" stroke-width="2" stroke-miterlimit="10" cx="158.7" cy="12.5" r="3.5"/>
		
			<circle fill="none" stroke="#798184" stroke-width="2" stroke-miterlimit="10" cx="86.1" cy="12.5" r="3.5"/>
	</g>
	<g>
		
			<circle fill="none" stroke="#798184" stroke-width="2" stroke-miterlimit="10" cx="1138.4" cy="25.9" r="3.5"/>
		
			<circle fill="none" stroke="#798184" stroke-width="2" stroke-miterlimit="10" cx="1065.8" cy="25.9" r="3.5"/>
		
			<circle fill="none" stroke="#798184" stroke-width="2" stroke-miterlimit="10" cx="993.2" cy="25.9" r="3.5"/>
		
			<circle fill="none" stroke="#798184" stroke-width="2" stroke-miterlimit="10" cx="920.5" cy="25.9" r="3.5"/>
		
			<circle fill="none" stroke="#798184" stroke-width="2" stroke-miterlimit="10" cx="847.9" cy="25.9" r="3.5"/>
		
			<circle fill="none" stroke="#798184" stroke-width="2" stroke-miterlimit="10" cx="775.3" cy="25.9" r="3.5"/>
		
			<circle fill="none" stroke="#798184" stroke-width="2" stroke-miterlimit="10" cx="702.6" cy="25.9" r="3.5"/>
		
			<circle fill="none" stroke="#798184" stroke-width="2" stroke-miterlimit="10" cx="630" cy="25.9" r="3.5"/>
		
			<circle fill="none" stroke="#798184" stroke-width="2" stroke-miterlimit="10" cx="557.3" cy="25.9" r="3.5"/>
		
			<circle fill="none" stroke="#798184" stroke-width="2" stroke-miterlimit="10" cx="484.7" cy="25.9" r="3.5"/>
		
			<circle fill="none" stroke="#798184" stroke-width="2" stroke-miterlimit="10" cx="412" cy="25.9" r="3.5"/>
		
			<circle fill="none" stroke="#798184" stroke-width="2" stroke-miterlimit="10" cx="339.4" cy="25.9" r="3.5"/>
		
			<circle fill="none" stroke="#798184" stroke-width="2" stroke-miterlimit="10" cx="266.8" cy="25.9" r="3.5"/>
		
			<circle fill="none" stroke="#798184" stroke-width="2" stroke-miterlimit="10" cx="194.2" cy="25.9" r="3.5"/>
		
			<circle fill="none" stroke="#798184" stroke-width="2" stroke-miterlimit="10" cx="121.5" cy="25.9" r="3.5"/>
		
			<circle fill="none" stroke="#798184" stroke-width="2" stroke-miterlimit="10" cx="48.9" cy="25.9" r="3.5"/>
	</g>
</g>
</svg>
