<svg xmlns="http://www.w3.org/2000/svg" x="0px" y="0px" viewBox="0 0 542.1 70.2">
<path fill="none" stroke="#798184" stroke-width="2" stroke-miterlimit="10" d="M61.8,35.2c0,0,182.5,0,183.6,0
	c1,0,11.7-3.7,14.2-13.2s-13.1,2-14,12s11.7,18.4,14.3,19.6c2.6,1.2,4.3-10.6-14.4-18.3c0,0,60.8,0.1,62.6,0
	c1.8-0.1,10.9-5.6,13-11.7s-11.3,2.8-12.9,11.1s11.6,15.6,13.2,15.6s-1-9.2-13.2-15c0,0,56.9,0.4,60.6,0c3.3-0.3,13.9-8.6,13.4-13.2
	s-12.9,9.5-13.4,13.2c-0.5,3.6,8.7,14,13.4,14.6c4.7,0.6-6-12.3-13.4-14.6c0,0,56.5,0,59.4,0c2.1,0,10.1-7.7,8.6-12.5
	c-1.4-4.7-10.2,6.9-8.6,12.5c1.5,5.6,2.6,9.9,7.2,12c5.5,2.4,1.3-8.6-7.2-12h78.2c0,0,14.6,13.5,34.2,0c0,0-18.4-13.9-34.2,0"/>
<path fill="none" stroke="#798184" stroke-width="2" stroke-miterlimit="10" d="M34.8,35.3L17.3,17.5c0,0-7.1-7.8,1.3-14.5
	s16.4,5.3,16.4,5.3s8.9-13,17.7-4.2c6.4,6.3,0,13.4,0,13.4L34.4,35.7L17.3,52.9c0,0-6.7,6.8-13.4,0C-3,46,4.2,38.2,8.1,35.2
	c0,0-12.3-7.9-4.2-17.7c0,0,6.7-7.2,15,1.6c8.4,8.9,33.8,33.8,33.8,33.8s6.7,6.5,0,13.4c-6.6,6.9-15-0.6-17.7-4.2
	c0,0-9.6,12.7-17.7,4.2c-7-7.4,1.7-15.1,1.7-15.1l34.9-34.8c0,0,6.9-4.3,12.2,1.1s2.5,13.5-4.2,17.7c0,0,12.5,8.5,4.2,17.7
	c-6.5,7.3-15-1.5-15-1.5L34.8,35.3"/>
</svg>
