<svg xmlns="http://www.w3.org/2000/svg" x="0px" y="0px" viewBox="0 0 1012.7 69.2">
<g>
	<path fill="none" stroke="#798184" stroke-width="2" stroke-miterlimit="10" d="M552.4,34.7c0,0,163.4,0,164.4,0c1,0,11.7-3.7,14.2-13.2
		c2.5-9.5-13.1,2-14,12s11.7,18.4,14.3,19.6c2.6,1.2,4.3-10.6-14.4-18.3c0,0,60.8,0.1,62.6,0c1.8-0.1,10.9-5.6,13-11.7
		c2.1-6.1-11.3,2.8-12.9,11.1s11.6,15.6,13.2,15.6s-1-9.2-13.2-15c0,0,56.9,0.4,60.6,0c3.3-0.3,13.9-8.6,13.4-13.2
		C853,17,840.6,31.1,840,34.7c-0.5,3.6,8.7,14,13.4,14.6c4.7,0.6-6-12.3-13.4-14.6c0,0,56.5,0,59.4,0c2.1,0,10.1-7.7,8.6-12.5
		s-10.2,6.9-8.6,12.5s2.6,9.9,7.2,12c5.5,2.4,1.3-8.6-7.2-12h78.2c0,0,14.6,13.5,34.2,0c0,0-18.4-13.9-34.2,0"/>
	<path fill="none" stroke="#798184" stroke-width="2" stroke-miterlimit="10" d="M458.6,34.7c0,0-163.4,0-164.4,0S282.5,31,280,21.5s13.1,2,14,12
		c1,9.9-11.7,18.4-14.3,19.6c-2.6,1.2-4.3-10.6,14.4-18.3c0,0-60.8,0.1-62.6,0c-1.8-0.1-10.9-5.6-13-11.7s11.3,2.8,12.9,11.1
		c1.6,8.2-11.6,15.6-13.2,15.6c-1.6,0,1-9.2,13.2-15c0,0-56.9,0.4-60.6,0c-3.3-0.3-13.9-8.6-13.4-13.2s12.9,9.5,13.4,13.2
		c0.5,3.6-8.7,14-13.4,14.6c-4.7,0.6,6-12.3,13.4-14.6c0,0-56.5,0-59.4,0c-2.1,0-10.1-7.7-8.6-12.5c1.4-4.7,10.2,6.9,8.6,12.5
		c-1.5,5.6-2.6,9.9-7.2,12c-5.5,2.4-1.3-8.6,7.2-12H33.3c0,0-15.5,11.5-32.4,0c0,0,17.7-13.7,32.4,0"/>
	<path fill="none" stroke="#798184" stroke-width="2" stroke-miterlimit="10" d="M506.3,34.8L488.7,17c0,0-7.1-7.8,1.3-14.5
		c8.4-6.7,16.4,5.3,16.4,5.3s8.9-13,17.7-4.2c6.4,6.3,0,13.4,0,13.4l-18.2,18.2l-17.2,17.2c0,0-6.7,6.8-13.4,0
		c-6.8-6.8,0.4-14.7,4.2-17.7c0,0-12.3-7.9-4.2-17.7c0,0,6.7-7.2,15,1.6c8.4,8.9,33.8,33.8,33.8,33.8s6.7,6.5,0,13.4
		c-6.6,6.9-15-0.6-17.7-4.2c0,0-9.6,12.7-17.7,4.2c-7-7.4,1.7-15.1,1.7-15.1l34.9-34.8c0,0,6.9-4.3,12.2,1.1
		c5.3,5.4,2.5,13.5-4.2,17.7c0,0,12.5,8.5,4.2,17.7c-6.5,7.3-15-1.5-15-1.5L506.3,34.8"/>
</g>
</svg>
