<svg xmlns="http://www.w3.org/2000/svg" x="0px" y="0px" viewBox="0 0 1188.7 31.1">
<g>
	
		<line fill="none" stroke="#798184" stroke-width="2" stroke-miterlimit="10" x1="24.4" y1="15.6" x2="44.4" y2="15.6"/>
	
		<line fill="none" stroke="#798184" stroke-width="2" stroke-miterlimit="10" x1="104.4" y1="15.6" x2="124.4" y2="15.6"/>
	
		<line fill="none" stroke="#798184" stroke-width="2" stroke-miterlimit="10" x1="184.4" y1="15.6" x2="204.4" y2="15.6"/>
	
		<line fill="none" stroke="#798184" stroke-width="2" stroke-miterlimit="10" x1="264.4" y1="15.6" x2="284.4" y2="15.6"/>
	
		<line fill="none" stroke="#798184" stroke-width="2" stroke-miterlimit="10" x1="344.4" y1="15.6" x2="364.4" y2="15.6"/>
	
		<line fill="none" stroke="#798184" stroke-width="2" stroke-miterlimit="10" x1="424.4" y1="15.6" x2="444.4" y2="15.6"/>
	
		<line fill="none" stroke="#798184" stroke-width="2" stroke-miterlimit="10" x1="504.4" y1="15.6" x2="524.4" y2="15.6"/>
	
		<line fill="none" stroke="#798184" stroke-width="2" stroke-miterlimit="10" x1="584.4" y1="15.6" x2="604.4" y2="15.6"/>
	
		<line fill="none" stroke="#798184" stroke-width="2" stroke-miterlimit="10" x1="664.4" y1="15.6" x2="684.4" y2="15.6"/>
	
		<line fill="none" stroke="#798184" stroke-width="2" stroke-miterlimit="10" x1="744.4" y1="15.6" x2="764.4" y2="15.6"/>
	
		<line fill="none" stroke="#798184" stroke-width="2" stroke-miterlimit="10" x1="824.4" y1="15.6" x2="844.4" y2="15.6"/>
	
		<line fill="none" stroke="#798184" stroke-width="2" stroke-miterlimit="10" x1="904.4" y1="15.6" x2="924.4" y2="15.6"/>
	
		<line fill="none" stroke="#798184" stroke-width="2" stroke-miterlimit="10" x1="984.4" y1="15.6" x2="1004.4" y2="15.6"/>
	
		<line fill="none" stroke="#798184" stroke-width="2" stroke-miterlimit="10" x1="1064.4" y1="15.6" x2="1084.4" y2="15.6"/>
	
		<line fill="none" stroke="#798184" stroke-width="2" stroke-miterlimit="10" x1="1144.4" y1="15.6" x2="1164.4" y2="15.6"/>
	
		<circle fill="none" stroke="#798184" stroke-width="2" stroke-miterlimit="10" cx="74.4" cy="15.6" r="10"/>
	
		<circle fill="none" stroke="#798184" stroke-width="2" stroke-miterlimit="10" cx="154.4" cy="15.6" r="10"/>
	
		<circle fill="none" stroke="#798184" stroke-width="2" stroke-miterlimit="10" cx="234.4" cy="15.6" r="10"/>
	
		<circle fill="none" stroke="#798184" stroke-width="2" stroke-miterlimit="10" cx="314.4" cy="15.6" r="10"/>
	
		<circle fill="none" stroke="#798184" stroke-width="2" stroke-miterlimit="10" cx="394.4" cy="15.6" r="10"/>
	
		<circle fill="none" stroke="#798184" stroke-width="2" stroke-miterlimit="10" cx="474.4" cy="15.6" r="10"/>
	
		<circle fill="none" stroke="#798184" stroke-width="2" stroke-miterlimit="10" cx="554.4" cy="15.6" r="10"/>
	
		<circle fill="none" stroke="#798184" stroke-width="2" stroke-miterlimit="10" cx="634.4" cy="15.6" r="10"/>
	
		<circle fill="none" stroke="#798184" stroke-width="2" stroke-miterlimit="10" cx="714.4" cy="15.6" r="10"/>
	
		<circle fill="none" stroke="#798184" stroke-width="2" stroke-miterlimit="10" cx="794.4" cy="15.6" r="10"/>
	
		<circle fill="none" stroke="#798184" stroke-width="2" stroke-miterlimit="10" cx="874.4" cy="15.6" r="10"/>
	
		<circle fill="none" stroke="#798184" stroke-width="2" stroke-miterlimit="10" cx="954.4" cy="15.6" r="10"/>
	
		<circle fill="none" stroke="#798184" stroke-width="2" stroke-miterlimit="10" cx="1034.4" cy="15.6" r="10"/>
	
		<circle fill="none" stroke="#798184" stroke-width="2" stroke-miterlimit="10" cx="1114.4" cy="15.6" r="10"/>
</g>
</svg>
