<svg xmlns="http://www.w3.org/2000/svg" x="0px" y="0px" viewBox="0 0 1142 16.1">
<line fill="none" stroke="#798184" stroke-width="2" stroke-miterlimit="10" x1="1" y1="8.1" x2="21" y2="8.1"/>
<line fill="none" stroke="#798184" stroke-width="2" stroke-miterlimit="10" x1="81" y1="8.1" x2="101" y2="8.1"/>
<line fill="none" stroke="#798184" stroke-width="2" stroke-miterlimit="10" x1="161" y1="8.1" x2="181" y2="8.1"/>
<line fill="none" stroke="#798184" stroke-width="2" stroke-miterlimit="10" x1="241" y1="8.1" x2="261" y2="8.1"/>
<line fill="none" stroke="#798184" stroke-width="2" stroke-miterlimit="10" x1="321" y1="8.1" x2="341" y2="8.1"/>
<line fill="none" stroke="#798184" stroke-width="2" stroke-miterlimit="10" x1="401" y1="8.1" x2="421" y2="8.1"/>
<line fill="none" stroke="#798184" stroke-width="2" stroke-miterlimit="10" x1="481" y1="8.1" x2="501" y2="8.1"/>
<line fill="none" stroke="#798184" stroke-width="2" stroke-miterlimit="10" x1="561" y1="8.1" x2="581" y2="8.1"/>
<line fill="none" stroke="#798184" stroke-width="2" stroke-miterlimit="10" x1="641" y1="8.1" x2="661" y2="8.1"/>
<line fill="none" stroke="#798184" stroke-width="2" stroke-miterlimit="10" x1="721" y1="8.1" x2="741" y2="8.1"/>
<line fill="none" stroke="#798184" stroke-width="2" stroke-miterlimit="10" x1="801" y1="8.1" x2="821" y2="8.1"/>
<line fill="none" stroke="#798184" stroke-width="2" stroke-miterlimit="10" x1="881" y1="8.1" x2="901" y2="8.1"/>
<line fill="none" stroke="#798184" stroke-width="2" stroke-miterlimit="10" x1="961" y1="8.1" x2="981" y2="8.1"/>
<line fill="none" stroke="#798184" stroke-width="2" stroke-miterlimit="10" x1="1041" y1="8.1" x2="1061" y2="8.1"/>
<line fill="none" stroke="#798184" stroke-width="2" stroke-miterlimit="10" x1="1121" y1="8.1" x2="1141" y2="8.1"/>
<g>

<line fill="none" stroke="#798184" stroke-width="2" stroke-miterlimit="10" x1="43.9" y1="1" x2="58.1" y2="15.1"/>
<line fill="none" stroke="#798184" stroke-width="2" stroke-miterlimit="10" x1="58.1" y1="1" x2="43.9" y2="15.1"/>
</g>
<g>
<line fill="none" stroke="#798184" stroke-width="2" stroke-miterlimit="10" x1="123.9" y1="1" x2="138.1" y2="15.1"/>
<line fill="none" stroke="#798184" stroke-width="2" stroke-miterlimit="10" x1="138.1" y1="1" x2="123.9" y2="15.1"/>
</g>
<g>
<line fill="none" stroke="#798184" stroke-width="2" stroke-miterlimit="10" x1="203.9" y1="1" x2="218.1" y2="15.1"/>
<line fill="none" stroke="#798184" stroke-width="2" stroke-miterlimit="10" x1="218.1" y1="1" x2="203.9" y2="15.1"/>
</g>
<g>
<line fill="none" stroke="#798184" stroke-width="2" stroke-miterlimit="10" x1="283.9" y1="1" x2="298.1" y2="15.1"/>
<line fill="none" stroke="#798184" stroke-width="2" stroke-miterlimit="10" x1="298.1" y1="1" x2="283.9" y2="15.1"/>
</g>
<g>
<line fill="none" stroke="#798184" stroke-width="2" stroke-miterlimit="10" x1="363.9" y1="1" x2="378.1" y2="15.1"/>
<line fill="none" stroke="#798184" stroke-width="2" stroke-miterlimit="10" x1="378.1" y1="1" x2="363.9" y2="15.1"/>
</g>
<g>
<line fill="none" stroke="#798184" stroke-width="2" stroke-miterlimit="10" x1="443.9" y1="1" x2="458.1" y2="15.1"/>
<line fill="none" stroke="#798184" stroke-width="2" stroke-miterlimit="10" x1="458.1" y1="1" x2="443.9" y2="15.1"/>
</g>
<g>
<line fill="none" stroke="#798184" stroke-width="2" stroke-miterlimit="10" x1="523.9" y1="1" x2="538.1" y2="15.1"/>
<line fill="none" stroke="#798184" stroke-width="2" stroke-miterlimit="10" x1="538.1" y1="1" x2="523.9" y2="15.1"/>
</g>
<g>
<line fill="none" stroke="#798184" stroke-width="2" stroke-miterlimit="10" x1="603.9" y1="1" x2="618.1" y2="15.1"/>
<line fill="none" stroke="#798184" stroke-width="2" stroke-miterlimit="10" x1="618.1" y1="1" x2="603.9" y2="15.1"/>
</g>
<g>
<line fill="none" stroke="#798184" stroke-width="2" stroke-miterlimit="10" x1="683.9" y1="1" x2="698.1" y2="15.1"/>
<line fill="none" stroke="#798184" stroke-width="2" stroke-miterlimit="10" x1="698.1" y1="1" x2="683.9" y2="15.1"/>
</g>
<g>
<line fill="none" stroke="#798184" stroke-width="2" stroke-miterlimit="10" x1="763.9" y1="1" x2="778.1" y2="15.1"/>
<line fill="none" stroke="#798184" stroke-width="2" stroke-miterlimit="10" x1="778.1" y1="1" x2="763.9" y2="15.1"/>
</g>
<g>
<line fill="none" stroke="#798184" stroke-width="2" stroke-miterlimit="10" x1="843.9" y1="1" x2="858.1" y2="15.1"/>
<line fill="none" stroke="#798184" stroke-width="2" stroke-miterlimit="10" x1="858.1" y1="1" x2="843.9" y2="15.1"/>
</g>
<g>
<line fill="none" stroke="#798184" stroke-width="2" stroke-miterlimit="10" x1="923.9" y1="1" x2="938.1" y2="15.1"/>
<line fill="none" stroke="#798184" stroke-width="2" stroke-miterlimit="10" x1="938.1" y1="1" x2="923.9" y2="15.1"/>
</g>
<g>
<line fill="none" stroke="#798184" stroke-width="2" stroke-miterlimit="10" x1="1003.9" y1="1" x2="1018.1" y2="15.1"/>
<line fill="none" stroke="#798184" stroke-width="2" stroke-miterlimit="10" x1="1018.1" y1="1" x2="1003.9" y2="15.1"/>
</g>
<line fill="none" stroke="#798184" stroke-width="2" stroke-miterlimit="10" x1="1083.9" y1="1" x2="1098.1" y2="15.1"/>
<line fill="none" stroke="#798184" stroke-width="2" stroke-miterlimit="10" x1="1098.1" y1="1" x2="1083.9" y2="15.1"/>
</svg>