<svg xmlns="http://www.w3.org/2000/svg" x="0px" y="0px" viewBox="0 0 1142 22">
<line fill="none" stroke="#798184" stroke-width="2" stroke-miterlimit="10" x1="1" y1="11" x2="21" y2="11"/>
<line fill="none" stroke="#798184" stroke-width="2" stroke-miterlimit="10" x1="81" y1="11" x2="101" y2="11"/>
<line fill="none" stroke="#798184" stroke-width="2" stroke-miterlimit="10" x1="161" y1="11" x2="181" y2="11"/>
<line fill="none" stroke="#798184" stroke-width="2" stroke-miterlimit="10" x1="241" y1="11" x2="261" y2="11"/>
<line fill="none" stroke="#798184" stroke-width="2" stroke-miterlimit="10" x1="321" y1="11" x2="341" y2="11"/>
<line fill="none" stroke="#798184" stroke-width="2" stroke-miterlimit="10" x1="401" y1="11" x2="421" y2="11"/>
<line fill="none" stroke="#798184" stroke-width="2" stroke-miterlimit="10" x1="481" y1="11" x2="501" y2="11"/>
<line fill="none" stroke="#798184" stroke-width="2" stroke-miterlimit="10" x1="561" y1="11" x2="581" y2="11"/>
<line fill="none" stroke="#798184" stroke-width="2" stroke-miterlimit="10" x1="641" y1="11" x2="661" y2="11"/>
<line fill="none" stroke="#798184" stroke-width="2" stroke-miterlimit="10" x1="721" y1="11" x2="741" y2="11"/>
<line fill="none" stroke="#798184" stroke-width="2" stroke-miterlimit="10" x1="801" y1="11" x2="821" y2="11"/>
<line fill="none" stroke="#798184" stroke-width="2" stroke-miterlimit="10" x1="881" y1="11" x2="901" y2="11"/>
<line fill="none" stroke="#798184" stroke-width="2" stroke-miterlimit="10" x1="961" y1="11" x2="981" y2="11"/>
<line fill="none" stroke="#798184" stroke-width="2" stroke-miterlimit="10" x1="1041" y1="11" x2="1061" y2="11"/>
<line fill="none" stroke="#798184" stroke-width="2" stroke-miterlimit="10" x1="1121" y1="11" x2="1141" y2="11"/>
<g>
	
		<line fill="none" stroke="#798184" stroke-width="2" stroke-miterlimit="10" x1="43.9" y1="3.9" x2="58.1" y2="18.1"/>
	
		<line fill="none" stroke="#798184" stroke-width="2" stroke-miterlimit="10" x1="58.1" y1="3.9" x2="43.9" y2="18.1"/>
</g>
<g>
	
		<line fill="none" stroke="#798184" stroke-width="2" stroke-miterlimit="10" x1="41" y1="11" x2="61" y2="11"/>
	
		<line fill="none" stroke="#798184" stroke-width="2" stroke-miterlimit="10" x1="51" y1="1" x2="51" y2="21"/>
</g>
<g>
	
		<line fill="none" stroke="#798184" stroke-width="2" stroke-miterlimit="10" x1="121" y1="11" x2="141" y2="11"/>
	
		<line fill="none" stroke="#798184" stroke-width="2" stroke-miterlimit="10" x1="131" y1="1" x2="131" y2="21"/>
</g>
<g>
	
		<line fill="none" stroke="#798184" stroke-width="2" stroke-miterlimit="10" x1="200.4" y1="11" x2="220.4" y2="11"/>
	
		<line fill="none" stroke="#798184" stroke-width="2" stroke-miterlimit="10" x1="210.4" y1="1" x2="210.4" y2="21"/>
</g>
<g>
	
		<line fill="none" stroke="#798184" stroke-width="2" stroke-miterlimit="10" x1="281.6" y1="11" x2="301.6" y2="11"/>
	
		<line fill="none" stroke="#798184" stroke-width="2" stroke-miterlimit="10" x1="291.6" y1="1" x2="291.6" y2="21"/>
</g>
<g>
	
		<line fill="none" stroke="#798184" stroke-width="2" stroke-miterlimit="10" x1="361.6" y1="11" x2="381.6" y2="11"/>
	
		<line fill="none" stroke="#798184" stroke-width="2" stroke-miterlimit="10" x1="371.6" y1="1" x2="371.6" y2="21"/>
</g>
<g>
	
		<line fill="none" stroke="#798184" stroke-width="2" stroke-miterlimit="10" x1="441" y1="11" x2="461" y2="11"/>
	
		<line fill="none" stroke="#798184" stroke-width="2" stroke-miterlimit="10" x1="451" y1="1" x2="451" y2="21"/>
</g>
<g>
	
		<line fill="none" stroke="#798184" stroke-width="2" stroke-miterlimit="10" x1="521.3" y1="11" x2="541.3" y2="11"/>
	
		<line fill="none" stroke="#798184" stroke-width="2" stroke-miterlimit="10" x1="531.3" y1="1" x2="531.3" y2="21"/>
</g>
<g>
	
		<line fill="none" stroke="#798184" stroke-width="2" stroke-miterlimit="10" x1="601.3" y1="11" x2="621.3" y2="11"/>
	
		<line fill="none" stroke="#798184" stroke-width="2" stroke-miterlimit="10" x1="611.3" y1="1" x2="611.3" y2="21"/>
</g>
<g>
	
		<line fill="none" stroke="#798184" stroke-width="2" stroke-miterlimit="10" x1="680.7" y1="11" x2="700.7" y2="11"/>
	
		<line fill="none" stroke="#798184" stroke-width="2" stroke-miterlimit="10" x1="690.7" y1="1" x2="690.7" y2="21"/>
</g>
<g>
	
		<line fill="none" stroke="#798184" stroke-width="2" stroke-miterlimit="10" x1="761" y1="11" x2="781" y2="11"/>
	
		<line fill="none" stroke="#798184" stroke-width="2" stroke-miterlimit="10" x1="771" y1="1" x2="771" y2="21"/>
</g>
<g>
	
		<line fill="none" stroke="#798184" stroke-width="2" stroke-miterlimit="10" x1="841" y1="11" x2="861" y2="11"/>
	
		<line fill="none" stroke="#798184" stroke-width="2" stroke-miterlimit="10" x1="851" y1="1" x2="851" y2="21"/>
</g>
<g>
	
		<line fill="none" stroke="#798184" stroke-width="2" stroke-miterlimit="10" x1="920.4" y1="11" x2="940.4" y2="11"/>
	
		<line fill="none" stroke="#798184" stroke-width="2" stroke-miterlimit="10" x1="930.4" y1="1" x2="930.4" y2="21"/>
</g>
<g>
	
		<line fill="none" stroke="#798184" stroke-width="2" stroke-miterlimit="10" x1="1001" y1="11" x2="1021" y2="11"/>
	
		<line fill="none" stroke="#798184" stroke-width="2" stroke-miterlimit="10" x1="1011" y1="1" x2="1011" y2="21"/>
</g>
<g>
	
		<line fill="none" stroke="#798184" stroke-width="2" stroke-miterlimit="10" x1="1081" y1="11" x2="1101" y2="11"/>
	
		<line fill="none" stroke="#798184" stroke-width="2" stroke-miterlimit="10" x1="1091" y1="1" x2="1091" y2="21"/>
</g>
<g>
	
		<line fill="none" stroke="#798184" stroke-width="2" stroke-miterlimit="10" x1="123.9" y1="3.9" x2="138.1" y2="18.1"/>
	
		<line fill="none" stroke="#798184" stroke-width="2" stroke-miterlimit="10" x1="138.1" y1="3.9" x2="123.9" y2="18.1"/>
</g>
<g>
	
		<line fill="none" stroke="#798184" stroke-width="2" stroke-miterlimit="10" x1="203.9" y1="3.9" x2="218.1" y2="18.1"/>
	
		<line fill="none" stroke="#798184" stroke-width="2" stroke-miterlimit="10" x1="218.1" y1="3.9" x2="203.9" y2="18.1"/>
</g>
<g>
	
		<line fill="none" stroke="#798184" stroke-width="2" stroke-miterlimit="10" x1="283.9" y1="3.9" x2="298.1" y2="18.1"/>
	
		<line fill="none" stroke="#798184" stroke-width="2" stroke-miterlimit="10" x1="298.1" y1="3.9" x2="283.9" y2="18.1"/>
</g>
<g>
	
		<line fill="none" stroke="#798184" stroke-width="2" stroke-miterlimit="10" x1="363.9" y1="3.9" x2="378.1" y2="18.1"/>
	
		<line fill="none" stroke="#798184" stroke-width="2" stroke-miterlimit="10" x1="378.1" y1="3.9" x2="363.9" y2="18.1"/>
</g>
<g>
	
		<line fill="none" stroke="#798184" stroke-width="2" stroke-miterlimit="10" x1="443.9" y1="3.9" x2="458.1" y2="18.1"/>
	
		<line fill="none" stroke="#798184" stroke-width="2" stroke-miterlimit="10" x1="458.1" y1="3.9" x2="443.9" y2="18.1"/>
</g>
<g>
	
		<line fill="none" stroke="#798184" stroke-width="2" stroke-miterlimit="10" x1="523.9" y1="3.9" x2="538.1" y2="18.1"/>
	
		<line fill="none" stroke="#798184" stroke-width="2" stroke-miterlimit="10" x1="538.1" y1="3.9" x2="523.9" y2="18.1"/>
</g>
<g>
	
		<line fill="none" stroke="#798184" stroke-width="2" stroke-miterlimit="10" x1="603.9" y1="3.9" x2="618.1" y2="18.1"/>
	
		<line fill="none" stroke="#798184" stroke-width="2" stroke-miterlimit="10" x1="618.1" y1="3.9" x2="603.9" y2="18.1"/>
</g>
<g>
	
		<line fill="none" stroke="#798184" stroke-width="2" stroke-miterlimit="10" x1="683.9" y1="3.9" x2="698.1" y2="18.1"/>
	
		<line fill="none" stroke="#798184" stroke-width="2" stroke-miterlimit="10" x1="698.1" y1="3.9" x2="683.9" y2="18.1"/>
</g>
<g>
	
		<line fill="none" stroke="#798184" stroke-width="2" stroke-miterlimit="10" x1="763.9" y1="3.9" x2="778.1" y2="18.1"/>
	
		<line fill="none" stroke="#798184" stroke-width="2" stroke-miterlimit="10" x1="778.1" y1="3.9" x2="763.9" y2="18.1"/>
</g>
<g>
	
		<line fill="none" stroke="#798184" stroke-width="2" stroke-miterlimit="10" x1="843.9" y1="3.9" x2="858.1" y2="18.1"/>
	
		<line fill="none" stroke="#798184" stroke-width="2" stroke-miterlimit="10" x1="858.1" y1="3.9" x2="843.9" y2="18.1"/>
</g>
<g>
	
		<line fill="none" stroke="#798184" stroke-width="2" stroke-miterlimit="10" x1="923.9" y1="3.9" x2="938.1" y2="18.1"/>
	
		<line fill="none" stroke="#798184" stroke-width="2" stroke-miterlimit="10" x1="938.1" y1="3.9" x2="923.9" y2="18.1"/>
</g>
<g>
	
		<line fill="none" stroke="#798184" stroke-width="2" stroke-miterlimit="10" x1="1003.9" y1="3.9" x2="1018.1" y2="18.1"/>
	
		<line fill="none" stroke="#798184" stroke-width="2" stroke-miterlimit="10" x1="1018.1" y1="3.9" x2="1003.9" y2="18.1"/>
</g>
<line fill="none" stroke="#798184" stroke-width="2" stroke-miterlimit="10" x1="1083.9" y1="3.9" x2="1098.1" y2="18.1"/>
<line fill="none" stroke="#798184" stroke-width="2" stroke-miterlimit="10" x1="1098.1" y1="3.9" x2="1083.9" y2="18.1"/>
</svg>