<svg xmlns="http://www.w3.org/2000/svg" x="0px" y="0px" viewBox="0 0 431.4 46.3">
<circle fill="none" stroke="#798184" stroke-width="2" stroke-miterlimit="10" cx="22.3" cy="22.7" r="7.2"/>
<circle fill="none" stroke="#798184" stroke-width="2" stroke-dasharray="3.862,2.8965" cx="22.3" cy="22.7" r="10.8"/>
<path fill="none" stroke="#798184" stroke-width="2" stroke-miterlimit="10" d="M40.3,4.6c6.7,6.3,6.8,11.5-0.5,16.7
	c-1.3,0.9-1.4,2.7-0.3,3.8c3,3,6.9,8.7,0.7,14.9c-6.1,6.1-11.9,2.4-14.9-0.4c-1.1-1-2.8-0.9-3.8,0.3c-2.8,3.7-8.9,9.2-16.6,1.5
	C-0.9,35.6,0,29.7,6.2,24.9c1.3-1,1.3-2.8,0.1-3.9c-3.5-3.1-8.4-9.4-1.6-16.1C12-2.4,18.2,2.2,21.2,5.5c1,1.1,2.8,1.1,3.8,0
	C27.8,2.3,33.3-2,40.3,4.6z"/>
<path fill="none" stroke="#798184" stroke-width="2" stroke-miterlimit="10" d="M46.6,22c2.4-10.2,11-11,11-11
	c-0.2,3.8-1.9,6.3-3.9,7.9c-0.1,0.1,0,0.3,0.1,0.3c2.6-0.2,5.6,0.3,8.4,2.8c0,0-3.6,2.9-8.9,2.4c-0.2,0-0.3,0.2-0.1,0.3
	c1.4,1,4.7,4,4.5,8.4C57.7,33.1,49.1,32.2,46.6,22z"/>
<g>
	<path fill="none" stroke="#798184" stroke-width="2" stroke-miterlimit="10" d="M114.1,23.3c0,0,1.3-6.5,13.2-8.7
		C127.3,14.6,127,22.5,114.1,23.3z"/>
	<path fill="none" stroke="#798184" stroke-width="2" stroke-miterlimit="10" d="M142.6,38.5c0,0-10.3-0.8-13.7-8.3
		C128.9,30.1,141.3,30.3,142.6,38.5z"/>
	<path fill="none" stroke="#798184" stroke-width="2" stroke-miterlimit="10" d="M178.5,39.4c0,0-10.3-0.8-13.7-8.3
		C164.8,31.1,177.2,31.3,178.5,39.4z"/>
	<path fill="none" stroke="#798184" stroke-width="2" stroke-miterlimit="10" d="M217.5,37.3c0,0-10.3-0.8-13.7-8.3
		C203.8,29,216.3,29.2,217.5,37.3z"/>
	<path fill="none" stroke="#798184" stroke-width="2" stroke-miterlimit="10" d="M257.9,33.1c0,0-10.3-0.8-13.7-8.3
		C244.2,24.8,256.7,25,257.9,33.1z"/>
	<path fill="none" stroke="#798184" stroke-width="2" stroke-miterlimit="10" d="M297.4,28c0,0-10.3-0.8-13.7-8.3
		C283.7,19.6,296.2,19.8,297.4,28z"/>
	<path fill="none" stroke="#798184" stroke-width="2" stroke-miterlimit="10" d="M339.1,26.3c0,0-10.3-0.8-13.7-8.3
		C325.4,18,337.8,18.1,339.1,26.3z"/>
	<path fill="none" stroke="#798184" stroke-width="2" stroke-miterlimit="10" d="M378.6,27.4c0,0-10.3-0.8-13.7-8.3
		C364.9,19.1,377.3,19.3,378.6,27.4z"/>
	<path fill="none" stroke="#798184" stroke-width="2" stroke-miterlimit="10" d="M429.9,28.9c0,0-10.4,0.3-15.8-6.7
		C414.1,22.2,426.4,21,429.9,28.9z"/>
	<path fill="none" stroke="#798184" stroke-width="2" stroke-miterlimit="10" d="M145.7,25.1c0,0,1.3-6.5,13.2-8.7
		C158.9,16.4,158.6,24.2,145.7,25.1z"/>
	<path fill="none" stroke="#798184" stroke-width="2" stroke-miterlimit="10" d="M182.2,25.1c0,0,1.3-6.5,13.2-8.7
		C195.3,16.4,195,24.2,182.2,25.1z"/>
	<path fill="none" stroke="#798184" stroke-width="2" stroke-miterlimit="10" d="M219.3,21.3c0,0,1.3-6.5,13.2-8.7
		C232.4,12.6,232.1,20.5,219.3,21.3z"/>
	<path fill="none" stroke="#798184" stroke-width="2" stroke-miterlimit="10" d="M258.8,16.6c0,0,1.3-6.5,13.2-8.7
		C272,7.9,271.7,15.8,258.8,16.6z"/>
	<path fill="none" stroke="#798184" stroke-width="2" stroke-miterlimit="10" d="M302.7,13.3c0,0,1.3-6.5,13.2-8.7
		C315.8,4.6,315.6,12.4,302.7,13.3z"/>
	<path fill="none" stroke="#798184" stroke-width="2" stroke-miterlimit="10" d="M343.7,12.6c0,0,1.3-6.5,13.2-8.7
		C356.9,3.9,356.6,11.8,343.7,12.6z"/>
	<path fill="none" stroke="#798184" stroke-width="2" stroke-miterlimit="10" d="M382,14.8c0,0,1.3-6.5,13.2-8.7
		C395.2,6.1,394.9,14,382,14.8z"/>
	<path fill="none" stroke="#798184" stroke-width="2" stroke-miterlimit="10" d="M62.3,22c0,0,16.4-0.2,49,3.7
		c43.8,5.3,111.4-0.3,144.9-5c53.1-7.4,132.5-5.6,157.9,1.5"/>
</g>
</svg>
