<svg xmlns="http://www.w3.org/2000/svg" x="0px" y="0px" viewBox="0 0 435.7 46.3" >
<g>
	<path fill="none" stroke="#798184" stroke-width="2" stroke-miterlimit="10" d="M321.4,24.6c0,0-1.3-6.5-13.3-8.7
		C308.1,15.9,308.4,23.8,321.4,24.6z"/>
	<path fill="none" stroke="#798184" stroke-width="2" stroke-miterlimit="10" d="M292.5,39.8c0,0,10.4-0.8,13.9-8.3
		C306.5,31.5,293.9,31.6,292.5,39.8z"/>
	<path fill="none" stroke="#798184" stroke-width="2" stroke-miterlimit="10" d="M256.2,40.8c0,0,10.4-0.8,13.9-8.3
		C270.1,32.4,257.5,32.6,256.2,40.8z"/>
	<path fill="none" stroke="#798184" stroke-width="2" stroke-miterlimit="10" d="M216.6,38.7c0,0,10.4-0.8,13.9-8.3
		C230.6,30.3,217.9,30.5,216.6,38.7z"/>
	<path fill="none" stroke="#798184" stroke-width="2" stroke-miterlimit="10" d="M175.7,34.5c0,0,10.4-0.8,13.9-8.3
		C189.6,26.2,177,26.3,175.7,34.5z"/>
	<path fill="none" stroke="#798184" stroke-width="2" stroke-miterlimit="10" d="M135.7,29.3c0,0,10.4-0.8,13.9-8.3
		C149.6,21,137,21.2,135.7,29.3z"/>
	<path fill="none" stroke="#798184" stroke-width="2" stroke-miterlimit="10" d="M93.4,27.7c0,0,10.4-0.8,13.9-8.3
		C107.4,19.3,94.8,19.5,93.4,27.7z"/>
	<path fill="none" stroke="#798184" stroke-width="2" stroke-miterlimit="10" d="M53.4,28.8c0,0,10.4-0.8,13.9-8.3
		C67.4,20.4,54.8,20.6,53.4,28.8z"/>
	<path fill="none" stroke="#798184" stroke-width="2" stroke-miterlimit="10" d="M1.5,30.2c0,0,10.5,0.3,16-6.7
		C17.5,23.5,5.1,22.3,1.5,30.2z"/>
	<path fill="none" stroke="#798184" stroke-width="2" stroke-miterlimit="10" d="M289.4,26.4c0,0-1.3-6.5-13.3-8.7
		C276,17.7,276.3,25.6,289.4,26.4z"/>
	<path fill="none" stroke="#798184" stroke-width="2" stroke-miterlimit="10" d="M252.5,26.4c0,0-1.3-6.5-13.3-8.7
		C239.1,17.7,239.4,25.6,252.5,26.4z"/>
	<path fill="none" stroke="#798184" stroke-width="2" stroke-miterlimit="10" d="M214.9,22.7c0,0-1.3-6.5-13.3-8.7
		C201.6,14,201.8,21.8,214.9,22.7z"/>
	<path fill="none" stroke="#798184" stroke-width="2" stroke-miterlimit="10" d="M174.8,18c0,0-1.3-6.5-13.3-8.7
		C161.5,9.3,161.7,17.2,174.8,18z"/>
	<path fill="none" stroke="#798184" stroke-width="2" stroke-miterlimit="10" d="M130.4,14.6c0,0-1.3-6.5-13.3-8.7
		C117,5.9,117.3,13.8,130.4,14.6z"/>
	<path fill="none" stroke="#798184" stroke-width="2" stroke-miterlimit="10" d="M88.8,14c0,0-1.3-6.5-13.3-8.7
		C75.4,5.2,75.7,13.1,88.8,14z"/>
	<path fill="none" stroke="#798184" stroke-width="2" stroke-miterlimit="10" d="M50,16.2c0,0-1.3-6.5-13.3-8.7
		C36.6,7.5,36.9,15.3,50,16.2z"/>
</g>
<circle fill="none" stroke="#798184" stroke-width="2" stroke-miterlimit="10" cx="411.7" cy="22.7" r="7.2"/>
<circle fill="none" stroke="#798184" stroke-width="2" stroke-dasharray="3.862,2.8965" cx="411.7" cy="22.7" r="10.8"/>
<path fill="none" stroke="#798184" stroke-width="2" stroke-miterlimit="10" d="M429.7,4.6c6.7,6.3,6.8,11.5-0.5,16.7
	c-1.3,0.9-1.4,2.7-0.3,3.8c3,3,6.9,8.7,0.7,14.9c-6.1,6.1-11.9,2.4-14.9-0.4c-1.1-1-2.8-0.9-3.8,0.3c-2.8,3.7-8.9,9.2-16.6,1.5
	c-5.8-5.8-4.9-11.7,1.3-16.5c1.3-1,1.3-2.8,0.1-3.9c-3.5-3.1-8.4-9.4-1.6-16.1c7.3-7.3,13.5-2.7,16.5,0.6c1,1.1,2.8,1.1,3.8,0
	C417.2,2.3,422.7-2,429.7,4.6z"/>
<path fill="none" stroke="#798184" stroke-width="2" stroke-miterlimit="10" d="M390,23c-2.4,10.2-11,11-11,11
	c0.2-3.8,1.9-6.3,3.9-7.9c0.1-0.1,0-0.3-0.1-0.3c-2.6,0.2-5.6-0.3-8.4-2.8c0,0,3.6-2.9,8.9-2.4c0.2,0,0.3-0.2,0.1-0.3
	c-1.4-1-4.7-4-4.5-8.4C379,11.9,387.6,12.8,390,23z"/>
<path fill="none" stroke="#798184" stroke-width="2" stroke-miterlimit="10" d="M374.4,23c0,0-18.1-1.1-39.5,2.2
	c-20.8,3.5-70.1,8.7-146.2-1.8C86.3,9.2,17.1,23.7,17.1,23.7"/>
</svg>
