<svg xmlns="http://www.w3.org/2000/svg" x="0px" y="0px" viewBox="0 0 818.8 45.3">
<g>
	<g>
		<path fill="none" stroke="#798184" stroke-width="2" stroke-miterlimit="10" d="M320.4,24.1
			c0,0-1.3-6.5-13.3-8.7C307.1,15.4,307.4,23.3,320.4,24.1z"/>
		<path fill="none" stroke="#798184" stroke-width="2" stroke-miterlimit="10" d="M291.5,39.3
			c0,0,10.4-0.8,13.9-8.3C305.5,31,292.9,31.1,291.5,39.3z"/>
		<path fill="none" stroke="#798184" stroke-width="2" stroke-miterlimit="10" d="M255.2,40.3
			c0,0,10.4-0.8,13.9-8.3C269.1,31.9,256.5,32.1,255.2,40.3z"/>
		<path fill="none" stroke="#798184" stroke-width="2" stroke-miterlimit="10" d="M215.6,38.2
			c0,0,10.4-0.8,13.9-8.3C229.6,29.8,216.9,30,215.6,38.2z"/>
		<path fill="none" stroke="#798184" stroke-width="2" stroke-miterlimit="10" d="M174.7,34
			c0,0,10.4-0.8,13.9-8.3C188.6,25.7,176,25.8,174.7,34z"/>
		<path fill="none" stroke="#798184" stroke-width="2" stroke-miterlimit="10" d="M134.7,28.8
			c0,0,10.4-0.8,13.9-8.3C148.6,20.5,136,20.7,134.7,28.8z"/>
		<path fill="none" stroke="#798184" stroke-width="2" stroke-miterlimit="10" d="M92.4,27.2
			c0,0,10.4-0.8,13.9-8.3C106.4,18.8,93.8,19,92.4,27.2z"/>
		<path fill="none" stroke="#798184" stroke-width="2" stroke-miterlimit="10" d="M52.4,28.3
			c0,0,10.4-0.8,13.9-8.3C66.4,19.9,53.8,20.1,52.4,28.3z"/>
		<path fill="none" stroke="#798184" stroke-width="2" stroke-miterlimit="10" d="M0.5,29.7
			c0,0,10.5,0.3,16-6.7C16.5,23,4.1,21.8,0.5,29.7z"/>
		<path fill="none" stroke="#798184" stroke-width="2" stroke-miterlimit="10" d="M288.4,25.9
			c0,0-1.3-6.5-13.3-8.7C275,17.2,275.3,25.1,288.4,25.9z"/>
		<path fill="none" stroke="#798184" stroke-width="2" stroke-miterlimit="10" d="M251.5,25.9
			c0,0-1.3-6.5-13.3-8.7C238.1,17.2,238.4,25.1,251.5,25.9z"/>
		<path fill="none" stroke="#798184" stroke-width="2" stroke-miterlimit="10" d="M213.9,22.2
			c0,0-1.3-6.5-13.3-8.7C200.6,13.5,200.8,21.3,213.9,22.2z"/>
		<path fill="none" stroke="#798184" stroke-width="2" stroke-miterlimit="10" d="M173.8,17.5
			c0,0-1.3-6.5-13.3-8.7C160.5,8.8,160.7,16.7,173.8,17.5z"/>
		<path fill="none" stroke="#798184" stroke-width="2" stroke-miterlimit="10" d="M129.4,14.1
			c0,0-1.3-6.5-13.3-8.7C116,5.4,116.3,13.3,129.4,14.1z"/>
		<path fill="none" stroke="#798184" stroke-width="2" stroke-miterlimit="10" d="M87.8,13.5
			c0,0-1.3-6.5-13.3-8.7C74.4,4.7,74.7,12.6,87.8,13.5z"/>
		<path fill="none" stroke="#798184" stroke-width="2" stroke-miterlimit="10" d="M49,15.7
			c0,0-1.3-6.5-13.3-8.7C35.6,7,35.9,14.8,49,15.7z"/>
	</g>
	
		<circle fill="none" stroke="#798184" stroke-width="2" stroke-miterlimit="10" cx="410.7" cy="22.2" r="7.2"/>
	
		<circle fill="none" stroke="#798184" stroke-width="2" stroke-dasharray="3.862,2.8965" cx="410.7" cy="22.2" r="10.8"/>
	<path fill="none" stroke="#798184" stroke-width="2" stroke-miterlimit="10" d="M428.7,4.1
		c6.7,6.3,6.8,11.5-0.5,16.7c-1.3,0.9-1.4,2.7-0.3,3.8c3,3,6.9,8.7,0.7,14.9c-6.1,6.1-11.9,2.4-14.9-0.4c-1.1-1-2.8-0.9-3.8,0.3
		c-2.8,3.7-8.9,9.2-16.6,1.5c-5.8-5.8-4.9-11.7,1.3-16.5c1.3-1,1.3-2.8,0.1-3.9c-3.5-3.1-8.4-9.4-1.6-16.1
		c7.3-7.3,13.5-2.7,16.5,0.6c1,1.1,2.8,1.1,3.8,0C416.2,1.8,421.7-2.5,428.7,4.1z"/>
	<path fill="none" stroke="#798184" stroke-width="2" stroke-miterlimit="10" d="M389,22.5
		c-2.4,10.2-11,11-11,11c0.2-3.8,1.9-6.3,3.9-7.9c0.1-0.1,0-0.3-0.1-0.3c-2.6,0.2-5.6-0.3-8.4-2.8c0,0,3.6-2.9,8.9-2.4
		c0.2,0,0.3-0.2,0.1-0.3c-1.4-1-4.7-4-4.5-8.4C378,11.4,386.6,12.3,389,22.5z"/>
	<path fill="none" stroke="#798184" stroke-width="2" stroke-miterlimit="10" d="M435,21.5
		c2.4-10.2,11-11,11-11c-0.2,3.8-1.9,6.3-3.9,7.9c-0.1,0.1,0,0.3,0.1,0.3c2.6-0.2,5.6,0.3,8.4,2.8c0,0-3.6,2.9-8.9,2.4
		c-0.2,0-0.3,0.2-0.1,0.3c1.4,1,4.7,4,4.5,8.4C446.1,32.6,437.5,31.7,435,21.5z"/>
	<path fill="none" stroke="#798184" stroke-width="2" stroke-miterlimit="10" d="M373.4,22.5
		c0,0-18.1-1.1-39.5,2.2c-20.8,3.5-70.1,8.7-146.2-1.8C85.3,8.7,16.1,23.2,16.1,23.2"/>
	<g>
		<path fill="none" stroke="#798184" stroke-width="2" stroke-miterlimit="10" d="M502.5,22.8
			c0,0,1.3-6.5,13.2-8.7C515.7,14.1,515.4,22,502.5,22.8z"/>
		<path fill="none" stroke="#798184" stroke-width="2" stroke-miterlimit="10" d="M531,38
			c0,0-10.3-0.8-13.7-8.3C517.3,29.6,529.7,29.8,531,38z"/>
		<path fill="none" stroke="#798184" stroke-width="2" stroke-miterlimit="10" d="M566.9,38.9
			c0,0-10.3-0.8-13.7-8.3C553.2,30.6,565.6,30.8,566.9,38.9z"/>
		<path fill="none" stroke="#798184" stroke-width="2" stroke-miterlimit="10" d="M605.9,36.8
			c0,0-10.3-0.8-13.7-8.3C592.2,28.5,604.7,28.7,605.9,36.8z"/>
		<path fill="none" stroke="#798184" stroke-width="2" stroke-miterlimit="10" d="M646.3,32.6
			c0,0-10.3-0.8-13.7-8.3C632.6,24.3,645.1,24.5,646.3,32.6z"/>
		<path fill="none" stroke="#798184" stroke-width="2" stroke-miterlimit="10" d="M685.8,27.5
			c0,0-10.3-0.8-13.7-8.3C672.1,19.1,684.6,19.3,685.8,27.5z"/>
		<path fill="none" stroke="#798184" stroke-width="2" stroke-miterlimit="10" d="M727.5,25.8
			c0,0-10.3-0.8-13.7-8.3C713.8,17.5,726.2,17.6,727.5,25.8z"/>
		<path fill="none" stroke="#798184" stroke-width="2" stroke-miterlimit="10" d="M767,26.9
			c0,0-10.3-0.8-13.7-8.3C753.3,18.6,765.7,18.8,767,26.9z"/>
		<path fill="none" stroke="#798184" stroke-width="2" stroke-miterlimit="10" d="M818.3,28.4
			c0,0-10.4,0.3-15.8-6.7C802.5,21.7,814.8,20.5,818.3,28.4z"/>
		<path fill="none" stroke="#798184" stroke-width="2" stroke-miterlimit="10" d="M534.1,24.6
			c0,0,1.3-6.5,13.2-8.7C547.3,15.9,547,23.7,534.1,24.6z"/>
		<path fill="none" stroke="#798184" stroke-width="2" stroke-miterlimit="10" d="M570.6,24.6
			c0,0,1.3-6.5,13.2-8.7C583.7,15.9,583.4,23.7,570.6,24.6z"/>
		<path fill="none" stroke="#798184" stroke-width="2" stroke-miterlimit="10" d="M607.7,20.8
			c0,0,1.3-6.5,13.2-8.7C620.8,12.1,620.5,20,607.7,20.8z"/>
		<path fill="none" stroke="#798184" stroke-width="2" stroke-miterlimit="10" d="M647.2,16.1
			c0,0,1.3-6.5,13.2-8.7C660.4,7.4,660.1,15.3,647.2,16.1z"/>
		<path fill="none" stroke="#798184" stroke-width="2" stroke-miterlimit="10" d="M691.1,12.8
			c0,0,1.3-6.5,13.2-8.7C704.2,4.1,704,11.9,691.1,12.8z"/>
		<path fill="none" stroke="#798184" stroke-width="2" stroke-miterlimit="10" d="M732.1,12.1
			c0,0,1.3-6.5,13.2-8.7C745.3,3.4,745,11.3,732.1,12.1z"/>
		<path fill="none" stroke="#798184" stroke-width="2" stroke-miterlimit="10" d="M770.4,14.3
			c0,0,1.3-6.5,13.2-8.7C783.6,5.6,783.3,13.5,770.4,14.3z"/>
		<path fill="none" stroke="#798184" stroke-width="2" stroke-miterlimit="10" d="M450.7,21.5
			c0,0,16.4-0.2,49,3.7c43.8,5.3,111.4-0.3,144.9-5c53.1-7.4,132.5-5.6,157.9,1.5"/>
	</g>
</g>
</svg>
