<svg xmlns="http://www.w3.org/2000/svg" x="0px" y="0px" viewBox="0 0 1214 62.1">
<g>
	<g>
		<circle fill="none" stroke="#798184" stroke-width="2" stroke-miterlimit="10" cx="606.9" cy="29" r="8.4"/>
		<path fill="none" stroke="#798184" stroke-width="2" stroke-miterlimit="10" d="M600.2,24c0,0-7.5-12.5-7.3-16c0.2-3.5,18.3-5.3,21.8-1.7
			c3,3-1.4,12.3-2.8,15c-0.1,0.2,0.1,0.3,0.2,0.2c2.3-2,10.5-8.4,14.9-6.7c4.3,1.6,6.3,15.5,4.7,17.4c-1.6,1.9-11.2,2.3-16.5-0.4
			c0,0,13.2,7.6,11.5,13.2c-1.7,5.6-10.9,10.6-12.7,9.3c-2.5-1.6-8.6-9.6-7.1-16.9c0,0-5.9,20.3-14,17.2c-8.1-3.1-11.1-12-11-13.2
			c0.1-1.2,4.3-8.3,17.2-9.4c0,0-9.1,1.1-16.1-2.4s-1.3-11.8,1-14.1C587,12.5,595.7,18.9,600.2,24z"/>
	</g>
	<path fill="none" stroke="#798184" stroke-width="2" stroke-miterlimit="10" d="M615.2,31.8c0,0,26.7,27.3,196.6,5.1l6.7-1.1c0,0,13.7-6.1,18.4-13
		c0,0-8.4-0.4-6.9-8.8c1.5-8.2,13.7-6.8,18.7-13c0,0,3.6,13.6-2.3,19.9c-4,4.3-8.4,2.5-8.4,2.5s-2.7,5.3-15.2,11.9
		c0,0,42.1-2.5,54.2,0c0,0,2.5,0.7,4.4,4c5.4,10.3,9.8,12.5,9.8,12.5s-1.4,3.6,2.1,6.9c5.2,4.9,16.4,1.9,16.4,1.9
		c-5.1-4.1-3.9-14.1-10.7-15.4c-6.9-1.3-7.2,5.6-7.2,5.6c-5.7-3.9-10.7-15.2-10.7-15.2s30.4,2.5,41.5,0c0,0,5.7-1.6,8.5-3
		c0,0,11.2-5,15.2-10.7c0,0-6.9-0.3-5.6-7.2c1.3-6.8,11.3-5.6,15.4-10.7c0,0,3,11.2-1.9,16.4c-3.3,3.5-6.9,2.1-6.9,2.1
		s-2.2,4.4-12.5,9.8c0,0,25.9-2.7,36.8,0c2.5,0.6,12.7,3.8,12.7,3.8s2,3.4,3.6,5.9c4.4,6.9,7.8,8.8,7.8,8.8s-1.1,2.8,1.6,5.3
		c4,3.7,12.6,1.4,12.6,1.4c-3.9-3.2-3-10.9-8.2-11.8c-5.3-1-5.5,4.3-5.5,4.3c-4.3-3-9.8-13.9-9.8-13.9s17.8,2.4,32.3,1.8
		c7.1-0.3,23.3-2.3,23.3-2.3s9-4,12.1-8.5c0,0-5.5-0.3-4.5-5.8c1-5.4,9-4.4,12.3-8.5c0,0,2.4,8.9-1.5,13.1c-2.6,2.8-5.5,1.7-5.5,1.7
		s-1.8,3.5-10,7.8c0,0,34.7-5.4,45.7,5.1c3.7,6.9,6.6,8.4,6.6,8.4s-1,2.4,1.4,4.7c3.5,3.3,11.1,1.3,11.1,1.3
		c-3.5-2.8-2.7-9.6-7.2-10.4c-4.7-0.9-4.9,3.8-4.9,3.8c-3.8-2.7-7.2-10.2-7.2-10.2s31.6,2.4,42.9-2.3c0,0,7.7-2,10.7-5.2
		c0,0-4.3-0.9-2.8-5.2c1.5-4.2,7.7-2.3,10.9-5.2c0,0,0.7,7.4-2.9,10.2c-2.5,1.9-4.6,0.6-4.6,0.6s-1.9,2.5-8.9,4.9
		c0,0,10.7,8.4,31.7,6.8s23.6-1.4,23.6-1.4s-4.8-7.7,2.4-10s15.8,6.9,20,5.8c0,0-6.9,13.5-19,9.1c0,0-1.5-0.8-3.4-4.9"/>
	<path fill="none" stroke="#798184" stroke-width="2" stroke-miterlimit="10" d="M598.8,31.8c0,0-46.5,19.1-196.6,5.1l-6.7-1.1c0,0-13.7-6.1-18.4-13
		c0,0,8.4-0.4,6.9-8.8c-1.5-8.2-13.7-6.8-18.7-13c0,0-3.6,13.6,2.3,19.9c4,4.3,8.4,2.5,8.4,2.5s2.7,5.3,15.2,11.9
		c0,0-42.1-2.5-54.2,0c0,0-2.5,0.7-4.4,4c-5.4,10.3-9.8,12.5-9.8,12.5s1.4,3.6-2.1,6.9c-5.2,4.9-16.4,1.9-16.4,1.9
		c5.1-4.1,3.9-14.1,10.7-15.4c6.9-1.3,7.2,5.6,7.2,5.6c5.7-3.9,10.7-15.2,10.7-15.2s-30.4,2.5-41.5,0c0,0-5.7-1.6-8.5-3
		c0,0-11.2-5-15.2-10.7c0,0,6.9-0.3,5.6-7.2c-1.3-6.8-11.3-5.6-15.4-10.7c0,0-3,11.2,1.9,16.4c3.3,3.5,6.9,2.1,6.9,2.1
		s2.2,4.4,12.5,9.8c0,0-25.9-2.7-36.8,0c-2.5,0.6-12.7,3.8-12.7,3.8s-2,3.4-3.6,5.9c-4.4,6.9-7.8,8.8-7.8,8.8s1.1,2.8-1.6,5.3
		c-4,3.7-12.6,1.4-12.6,1.4c3.9-3.2,3-10.9,8.2-11.8c5.3-1,5.5,4.3,5.5,4.3c4.3-3,9.8-13.9,9.8-13.9s-17.8,2.4-32.3,1.8
		c-7.1-0.3-23.3-2.3-23.3-2.3s-9-4-12.1-8.5c0,0,5.5-0.3,4.5-5.8c-1-5.4-9-4.4-12.3-8.5c0,0-2.4,8.9,1.5,13.1
		c2.6,2.8,5.5,1.7,5.5,1.7s1.8,3.5,10,7.8c0,0-34.7-5.4-45.7,5.1C120,47.5,117,49,117,49s1,2.4-1.4,4.7c-3.5,3.3-11.1,1.3-11.1,1.3
		c3.5-2.8,2.7-9.6,7.2-10.4c4.7-0.9,4.9,3.8,4.9,3.8c3.8-2.7,7.2-10.2,7.2-10.2S92.3,40.5,81,35.7c0,0-7.7-2-10.7-5.2
		c0,0,4.3-0.9,2.8-5.2c-1.5-4.2-7.7-2.3-10.9-5.2c0,0-0.7,7.4,2.9,10.2c2.5,1.9,4.6,0.6,4.6,0.6s1.9,2.5,8.9,4.9
		c0,0-10.7,8.4-31.7,6.8s-23.6-1.4-23.6-1.4s4.8-7.7-2.4-10s-15.8,6.9-20,5.8c0,0,6.9,13.5,19,9.1c0,0,1.5-0.8,3.4-4.9"/>
</g>
</svg>
