<svg xmlns="http://www.w3.org/2000/svg" x="0px" y="0px" viewBox="0 0 247.1 54.2" >
<g>
	<g>
		<circle fill="none" stroke="#798184" stroke-width="2" stroke-miterlimit="10" cx="28.3" cy="25.7" r="8.4"/>
		<path fill="none" stroke="#798184" stroke-width="2" stroke-miterlimit="10" d="M21.6,20.7c0,0-7.5-12.5-7.3-16S32.6-0.6,36.1,3
			c3,3-1.4,12.3-2.8,15c-0.1,0.2,0.1,0.3,0.2,0.2c2.3-2,10.5-8.4,14.9-6.7c4.3,1.6,6.3,15.5,4.7,17.4s-11.2,2.3-16.5-0.4
			c0,0,13.2,7.6,11.5,13.2S37.2,52.3,35.4,51c-2.5-1.6-8.6-9.6-7.1-16.9c0,0-5.9,20.3-14,17.2s-11.1-12-11-13.2s4.3-8.3,17.2-9.4
			c0,0-9.1,1.1-16.1-2.4s-1.3-11.8,1-14.1C8.4,9.2,17.1,15.6,21.6,20.7z"/>
	</g>
	<g>
		<path fill="none" stroke="#798184" stroke-width="2" stroke-miterlimit="10" d="M42.4,30.1c0,0,47.6,10.6,79.6-3.2l1.7-0.8
			c0,0,3.9-6.1,4-6.3c0-0.2-3.3,3.6-4.6,0.3c-1.5-3.8,6.2-7.6,8.8-10.1c0,0,3.4,6.8-1.5,10.1c-4.9,3.3-3.7,6.4-3.7,6.4
			s17.9,6.4,34.9-0.4c0,0,3.9-6.1,4-6.3c0-0.2-3.3,3.6-4.6,0.3c-1.5-3.8,6.2-7.6,8.8-10.1c0,0,3.4,6.8-1.5,10.1s-3.7,6.4-3.7,6.4
			s16.5,3.4,35.1,0.1c0,0,3.9-6.6,3.9-6.8c0-0.2-3.3,3.6-4.6,0.3c-1.5-3.8,6.2-7.6,8.8-10.1c0,0,3.4,6.8-1.5,10.1s-3.7,6.4-3.7,6.4
			s24.2-3,31.4-2.1c0,0,4.6,0.5,4.8,0.5c0.7,0-3-0.9-1.4-2.6c1.8-1.9,6.1,1.5,8.3,2.3c0,0-1.4,2.7-5.2,3.2c-2.8,0.4-3.5-1.7-3.5-1.7
			c-3.6-0.9-9.1-0.8-12.7-0.3c-0.9,0.1-1.1,1.4-1.1,1.4s-0.8,2.2,2.6,4.5s1,7.1,1,7.1c-1.8-1.8-7.1-4.4-6.1-7.1
			c0.9-2.3,3.2,0.4,3.2,0.2c0-0.2-2.8-4.4-2.8-4.4c0-0.4-1.2-1.9-5.9-0.9c-4.9,1-12.2,1.3-17.9,1.9c-4.4,0.5-8.9,0.8-10.2,1.1
			c-1.4,0.4-1.7,1.9-1.7,1.9s-1.2,3.1,3.7,6.4s1.5,10.1,1.5,10.1c-2.6-2.5-10.2-6.3-8.8-10.1c1.3-3.3,4.8,0.5,4.6,0.3
			c-2.8-3-4.2-8.3-4.2-8.3s-4.5-0.2-12.9-1.4c-3.2-0.4-6.9-1.2-15.2,1.3c-5.2,1.6-6.8,1.6-6.8,1.6s-1.2,3.1,3.7,6.4
			s1.5,10.1,1.5,10.1c-2.6-2.5-10.2-6.3-8.8-10.1c1.3-3.3,4.6,0.6,4.6,0.3c0-0.2-4.3-6.8-4.3-6.8c-2.2-0.5-6.8-0.5-11.4-1.6
			c-3.9-0.9-6.4-1.2-7.7-1.2c-1.3-0.1-7.8,2.7-10.7,3.5c-2.6,0.7-8.8,2.5-21.5,3.5c-4,0.3-4,0.7-4,0.7s-1.2,3.1,3.6,6.4
			c4.8,3.3,1.4,10,1.4,10c-2.5-2.5-10.1-6.3-8.7-10c1.3-3.3,4.6,0.5,4.6,0.3s-3.9-6.3-3.9-6.3c-5.4-1.1-26.1-0.4-43.8-4.9"/>
	</g>
</g>
</svg>
