<svg xmlns="http://www.w3.org/2000/svg" x="0px" y="0px" viewBox="0 0 1188.7 31.1">
<g>
	
	<rect x="5.6" y="5.6" transform="matrix(0.7071 0.7071 -0.7071 0.7071 15.5563 -6.4437)" fill="none" stroke="#798184" stroke-width="2" stroke-miterlimit="10" width="20" height="20"/>

	<rect x="53.8" y="5.6" transform="matrix(0.7071 0.7071 -0.7071 0.7071 29.6826 -40.5474)" fill="none" stroke="#798184" stroke-width="2" stroke-miterlimit="10" width="20" height="20"/>

	<rect x="101.8" y="5.6" transform="matrix(0.7071 0.7071 -0.7071 0.7071 43.736 -74.4753)" fill="none" stroke="#798184" stroke-width="2" stroke-miterlimit="10" width="20" height="20"/>

	<rect x="150" y="5.6" transform="matrix(0.7071 0.7071 -0.7071 0.7071 57.8622 -108.5791)" fill="none" stroke="#798184" stroke-width="2" stroke-miterlimit="10" width="20" height="20"/>

	<rect x="199" y="5.6" transform="matrix(0.7071 0.7071 -0.7071 0.7071 72.2136 -143.2264)" fill="none" stroke="#798184" stroke-width="2" stroke-miterlimit="10" width="20" height="20"/>

	<rect x="247.2" y="5.6" transform="matrix(0.7071 0.7071 -0.7071 0.7071 86.3399 -177.3302)" fill="none" stroke="#798184" stroke-width="2" stroke-miterlimit="10" width="20" height="20"/>

	<rect x="295.2" y="5.6" transform="matrix(0.7071 0.7071 -0.7071 0.7071 100.3932 -211.258)" fill="none" stroke="#798184" stroke-width="2" stroke-miterlimit="10" width="20" height="20"/>

	<rect x="343.4" y="5.6" transform="matrix(0.7071 0.7071 -0.7071 0.7071 114.5195 -245.3618)" fill="none" stroke="#798184" stroke-width="2" stroke-miterlimit="10" width="20" height="20"/>

	<rect x="391.4" y="5.6" transform="matrix(0.7071 0.7071 -0.7071 0.7071 128.5799 -279.3066)" fill="none" stroke="#798184" stroke-width="2" stroke-miterlimit="10" width="20" height="20"/>

	<rect x="439.7" y="5.6" transform="matrix(0.7071 0.7071 -0.7071 0.7071 142.7061 -313.4103)" fill="none" stroke="#798184" stroke-width="2" stroke-miterlimit="10" width="20" height="20"/>

	<rect x="487.7" y="5.6" transform="matrix(0.7071 0.7071 -0.7071 0.7071 156.7595 -347.3382)" fill="none" stroke="#798184" stroke-width="2" stroke-miterlimit="10" width="20" height="20"/>

	<rect x="535.9" y="5.6" transform="matrix(0.7071 0.7071 -0.7071 0.7071 170.8857 -381.442)" fill="none" stroke="#798184" stroke-width="2" stroke-miterlimit="10" width="20" height="20"/>

	<rect x="584.9" y="5.6" transform="matrix(0.7071 0.7071 -0.7071 0.7071 185.2371 -416.0893)" fill="none" stroke="#798184" stroke-width="2" stroke-miterlimit="10" width="20" height="20"/>

	<rect x="633.1" y="5.6" transform="matrix(0.7071 0.7071 -0.7071 0.7071 199.3634 -450.1931)" fill="none" stroke="#798184" stroke-width="2" stroke-miterlimit="10" width="20" height="20"/>

	<rect x="681.1" y="5.6" transform="matrix(0.7071 0.7071 -0.7071 0.7071 213.4168 -484.1209)" fill="none" stroke="#798184" stroke-width="2" stroke-miterlimit="10" width="20" height="20"/>

	<rect x="729.3" y="5.6" transform="matrix(0.7071 0.7071 -0.7071 0.7071 227.543 -518.2247)" fill="none" stroke="#798184" stroke-width="2" stroke-miterlimit="10" width="20" height="20"/>

	<rect x="777.3" y="5.6" transform="matrix(0.7071 0.7071 -0.7071 0.7071 241.5883 -552.1332)" fill="none" stroke="#798184" stroke-width="2" stroke-miterlimit="10" width="20" height="20"/>

	<rect x="825.5" y="5.6" transform="matrix(0.7071 0.7071 -0.7071 0.7071 255.7146 -586.2369)" fill="none" stroke="#798184" stroke-width="2" stroke-miterlimit="10" width="20" height="20"/>

	<rect x="873.5" y="5.6" transform="matrix(0.7071 0.7071 -0.7071 0.7071 269.768 -620.1648)" fill="none" stroke="#798184" stroke-width="2" stroke-miterlimit="10" width="20" height="20"/>

	<rect x="921.7" y="5.6" transform="matrix(0.7071 0.7071 -0.7071 0.7071 283.8942 -654.2686)" fill="none" stroke="#798184" stroke-width="2" stroke-miterlimit="10" width="20" height="20"/>

	<rect x="970.7" y="5.6" transform="matrix(0.7071 0.7071 -0.7071 0.7071 298.2456 -688.9159)" fill="none" stroke="#798184" stroke-width="2" stroke-miterlimit="10" width="20" height="20"/>

	<rect x="1018.9" y="5.6" transform="matrix(0.7071 0.7071 -0.7071 0.7071 312.3719 -723.0197)" fill="none" stroke="#798184" stroke-width="2" stroke-miterlimit="10" width="20" height="20"/>

	<rect x="1066.9" y="5.6" transform="matrix(0.7071 0.7071 -0.7071 0.7071 326.4252 -756.9475)" fill="none" stroke="#798184" stroke-width="2" stroke-miterlimit="10" width="20" height="20"/>

	<rect x="1115.2" y="5.6" transform="matrix(0.7071 0.7071 -0.7071 0.7071 340.5515 -791.0513)" fill="none" stroke="#798184" stroke-width="2" stroke-miterlimit="10" width="20" height="20"/>

	<rect x="1163.2" y="5.6" transform="matrix(0.7071 0.7071 -0.7071 0.7071 354.6119 -824.9961)" fill="none" stroke="#798184" stroke-width="2" stroke-miterlimit="10" width="20" height="20"/>
</g>
</svg>
