<svg xmlns="http://www.w3.org/2000/svg" x="0px" y="0px" viewBox="0 0 1225.4 38.4">
<path fill="none" stroke="#798184" stroke-width="2" stroke-miterlimit="10" d="M1,5.7
	c11.1,6.6,10.7,15.1,17.7,13.5C28.2,17.1,26.5,3.9,37,4.5s6.4,17.2,17.4,14.9s11.3-15.6,17.4-15s8,18.1,15.6,15.2s12.9-17,17.8-15.2
	c4.9,1.8,11,17.4,16.2,15.5S136.1,3.7,141,4.3c4.9,0.6,6.4,16.2,13.2,15.8C160.9,19.8,164.3,3,171,4.3c6.7,1.3,6.1,15.9,12,15.9
	s13.8-16.4,18.2-15.9c4.4,0.5,9,15.5,12.3,15.9c3.3,0.4,14.5-16.5,17.8-15.9c3.3,0.6,8.6,16.3,12.9,15.9c4.4-0.3,16.5-16.8,19.8-16
	c3.3,0.8,7,16.3,13.6,16c6.6-0.3,11.7-16,17.8-16c4.3,0,10.2,16.1,16.2,16c3.7-0.1,11.5-15.8,17.6-15.8c6.3,0,14.2,17.6,21.2,15.8
	c7-1.9,14.5-17.6,17.8-16.2c3.3,1.4,6.6,15.7,16.7,16.3c10,0.6,13.1-17.5,21.1-16.4s8.5,19.7,18.6,16.4s13.7-15.8,19.7-15.5
	c7.8,0.4,13.2,19.5,20.6,16.3s12.4-18.3,18.1-17.3c6.2,1.1,8.2,17.3,13.6,17.5c5.4,0.3,12.8-19.5,17.3-18c4.6,1.5,10,19.6,14.4,18.8
	c4.4-0.8,9.5-20.6,13.3-19.3s8.9,22.4,12.7,20.5s14.6-23,19.2-20.6c4.6,2.4,0.8,20.5,10.5,19.8c9.7-0.7,12.9-21.6,19.1-20
	s3.7,20.6,11,20.2c7.3-0.4,11.7-22.4,16.5-20.2s8.4,19.5,13.8,20.1c5.3,0.7,15.5-21.5,20.5-20.3c5,1.2,5.8,19.8,12.1,20.3
	c6.3,0.5,13.1-21.9,17.6-20.4s8.3,21.5,13.6,20.4s13.5-22.6,19.6-20.5s6.1,19.6,11.9,20.5c5.8,0.9,16.2-22,23.1-20.6
	s6.6,20.7,16.3,20.7c9.7-0.1,14.8-22.4,19.9-20.7c5.2,1.7,11.5,21.6,19.2,20.7c7.7-0.8,15-20.8,20.7-20.8s10.7,21.8,14.9,20.8
	s15.9-22.5,20-20.8s8.7,21.7,14.6,21c5.9-0.7,14.3-24.1,20.3-21s11,21,14.3,21c3.9,0,18.4-23.3,23.9-21.3s9.8,21.1,14.7,21.3
	c4.2,0.2,18.1-23.4,22.4-21.4c4.2,2,9.4,22.8,16.6,21.5c7.2-1.3,18.3-23.5,21.6-21.6c3.2,1.9,9.1,21.7,13.4,21.7
	c4.3-0.1,18.6-23.3,24.3-21.8c5.7,1.6,8.3,21,14,21.8c5.7,0.9,14.7-23.3,22.6-22s12.3,21.9,19.2,21.9c6.9,0,13.5-21.9,19.5-21.9
	s12.4,21.9,18.4,21.9s14.3-21.9,21.6-21.9s6.3,22.8,16.1,22.8c7.4,0,19-27.1,25.8-21.4c5,4.3,12.2,17.1,3.4,31.1
	c-3.9,6.3-11.8,3.9-14.6,0c-5.1-7.1-8.8-22.8-16.1-22.8c-7.3,0-15.7,21.9-21.6,21.9c-5.9,0-9-22.4-14.9-22.4s-16,22.4-22.9,22.4
	s-6.6-20.5-14.6-21.9c-8-1.4-17.3,22.7-23,21.9c-5.7-0.9-12.6-20.2-18.2-21.8c-5.7-1.6-20,21.7-24.3,21.8
	c-4.3,0.1-10.2-19.8-13.4-21.7s-14.4,20.3-21.6,21.6c-7.2,1.3-9.6-21.5-15.6-21.5c-4.7,0-17.2,19.9-21.9,21.4
	c-4.6,1.5-10.7-19.2-16.2-21.3s-19.6,20.6-22.8,21.3c-3.2,0.6-8.5-21-14.4-21c-6.8,0-11.4,20.2-17.3,21
	c-5.9,0.7-14.5-19.2-18.6-20.9c-4.1-1.7-15.8,19.8-20,20.8c-4.2,1-9.3-20.9-14.9-20.8s-9.3,20-17,20.8c-7.7,0.8-12.6-19-17.8-20.7
	s-11.6,20.7-21.3,20.7s-13.1-19.4-20-20.7s-17.3,21.5-23.1,20.6c-5.8-0.9-5.8-18.4-11.9-20.5c-6.1-2.1-14.3,19.4-19.6,20.5
	c-5.3,1.1-9.1-18.8-13.6-20.4s-11.3,20.9-17.6,20.4c-6.3-0.5-7.1-19.1-12.1-20.3c-5-1.2-15.2,21-20.5,20.3
	c-5.3-0.7-8.9-18-13.8-20.1s-12.1,19.7-19.4,20.1c-7.3,0.4-4.2-17.3-10.4-18.9s-7.1,18.2-16.8,18.9c-9.7,0.7-8.7-16-13.2-18.5
	c-4.6-2.4-14.2,16.5-18,18.4c-3.8,1.9-9.5-16.5-13.3-17.8c-3.8-1.3-12.5,16.9-16.9,17.7c-4.4,0.8-4.1-16.5-8.7-18
	c-4.6-1.5-13.6,16.9-19,16.6c-5.4-0.3-7.6-14.2-10.3-17.4c-3.7-4.5-10.6,13.8-18,17c-7.3,3.2-10.2-14.5-15.8-16.8
	c-5.5-2.4-11.6,13.2-21.7,16.5s-12.3-15.9-20.3-17s-10.9,17.7-21,17.1c-10-0.6-12.9-15-16.2-16.5c-3.3-1.4-14,14.2-21.1,16.1
	s-10.2-16-16.5-16c-6.1,0-14.8,15.8-18.6,15.9c-6.1,0.1-15.6-15.9-20-15.9c-6.1,0-11.2,15.6-17.8,16s-10.3-15.1-13.6-16
	c-3.3-0.8-15.4,15.6-19.8,16c-4.4,0.3-9.7-15.3-12.9-15.9s-14.5,16.3-17.8,15.9c-3.3-0.4-7.9-15.4-12.3-15.9s-12.3,15.9-18.2,15.9
	c-5.9,0-5.2-14.6-12-15.9c-6.7-1.3-10.1,15.5-16.8,15.8c-6.7,0.4-8.3-15.2-13.2-15.8S141.2,27.8,136,29.7
	c-5.2,1.9-11.3-13.7-16.2-15.5c-4.9-1.8-10.1,12.3-17.8,15.2s-9.5-14.6-15.6-15.2S80,26.9,69,29.1s-7-14.4-17.4-14.9
	s-8.8,12.6-18.2,14.7c-7,1.6-6.6-6.9-17.7-13.5"/>
</svg>
