<svg xmlns="http://www.w3.org/2000/svg" x="0px" y="0px" viewBox="0 0 1011.3 42.8">
<polyline fill="none" stroke="#798184" stroke-width="2" stroke-miterlimit="10" points="929.7,19.9 533,19.9 505.7,39 478.3,19.8 "/>
<polyline fill="none" stroke="#798184" stroke-width="2" stroke-miterlimit="10" points="532.9,19.8 505.6,0.6 478.3,19.8 81.6,19.8 "/>
<path fill="none" stroke="#798184" stroke-width="2" stroke-miterlimit="10" d="M157.8,19.9c0,0-5.6-10.7-16.7-10.7c-15.3,0-16.4,27.3-32.7,27.3
	C87,36.6,80,9.3,66.3,9.3c-17.7,0-17.1,26.4-35.9,32C11.3,46.9-7,28.1,3.7,11.2c5.8-9.1,22.2-10.6,28.9,0.3
	c4.8,7.9-0.7,20.6-10.5,19.2c-11.5-1.6-9.2-13-4.1-16"/>
<path fill="none" stroke="#798184" stroke-width="2" stroke-miterlimit="10" d="M853.6,19.9c0,0,5.6-10.7,16.7-10.7c15.3,0,16.4,27.3,32.7,27.3
	c21.3,0,28.3-27.3,42-27.3c17.7,0,17.1,26.4,35.9,32c19.1,5.6,37.4-13.1,26.7-30c-5.8-9.1-22.2-10.6-28.9,0.3
	c-4.8,7.9,0.7,20.6,10.5,19.2c11.5-1.6,9.2-13,4.1-16"/>
</svg>
