<svg xmlns="http://www.w3.org/2000/svg" x="0px" y="0px" viewBox="0 0 1198.7 21.1">
<line fill="none" stroke="#798184" stroke-width="2" stroke-miterlimit="10" x1="17.5" y1="1" x2="11.5" y2="20.1"/>
<line fill="none" stroke="#798184" stroke-width="2" stroke-miterlimit="10" x1="28.4" y1="1" x2="22.4" y2="20.1"/>
<line fill="none" stroke="#798184" stroke-width="2" stroke-miterlimit="10" x1="38.9" y1="1" x2="32.9" y2="20.1"/>
<line fill="none" stroke="#798184" stroke-width="2" stroke-miterlimit="10" x1="49.9" y1="1" x2="43.9" y2="20.1"/>
<line fill="none" stroke="#798184" stroke-width="2" stroke-miterlimit="10" x1="60.4" y1="1" x2="54.4" y2="20.1"/>
<line fill="none" stroke="#798184" stroke-width="2" stroke-miterlimit="10" x1="71.3" y1="1" x2="65.3" y2="20.1"/>
<line fill="none" stroke="#798184" stroke-width="2" stroke-miterlimit="10" x1="81.8" y1="1" x2="75.8" y2="20.1"/>
<line fill="none" stroke="#798184" stroke-width="2" stroke-miterlimit="10" x1="92.9" y1="1" x2="86.9" y2="20.1"/>
<line fill="none" stroke="#798184" stroke-width="2" stroke-miterlimit="10" x1="103.4" y1="1" x2="97.4" y2="20.1"/>
<line fill="none" stroke="#798184" stroke-width="2" stroke-miterlimit="10" x1="114.3" y1="1" x2="108.3" y2="20.1"/>
<line fill="none" stroke="#798184" stroke-width="2" stroke-miterlimit="10" x1="124.8" y1="1" x2="118.8" y2="20.1"/>
<line fill="none" stroke="#798184" stroke-width="2" stroke-miterlimit="10" x1="135.8" y1="1" x2="129.8" y2="20.1"/>
<line fill="none" stroke="#798184" stroke-width="2" stroke-miterlimit="10" x1="146.3" y1="1" x2="140.3" y2="20.1"/>
<line fill="none" stroke="#798184" stroke-width="2" stroke-miterlimit="10" x1="157.2" y1="1" x2="151.2" y2="20.1"/>
<line fill="none" stroke="#798184" stroke-width="2" stroke-miterlimit="10" x1="167.7" y1="1" x2="161.7" y2="20.1"/>
<line fill="none" stroke="#798184" stroke-width="2" stroke-miterlimit="10" x1="178.8" y1="1" x2="172.8" y2="20.1"/>
<line fill="none" stroke="#798184" stroke-width="2" stroke-miterlimit="10" x1="189.3" y1="1" x2="183.3" y2="20.1"/>
<line fill="none" stroke="#798184" stroke-width="2" stroke-miterlimit="10" x1="200.2" y1="1" x2="194.2" y2="20.1"/>
<line fill="none" stroke="#798184" stroke-width="2" stroke-miterlimit="10" x1="210.7" y1="1" x2="204.7" y2="20.1"/>
<line fill="none" stroke="#798184" stroke-width="2" stroke-miterlimit="10" x1="221.7" y1="1" x2="215.7" y2="20.1"/>
<line fill="none" stroke="#798184" stroke-width="2" stroke-miterlimit="10" x1="232.2" y1="1" x2="226.2" y2="20.1"/>
<line fill="none" stroke="#798184" stroke-width="2" stroke-miterlimit="10" x1="243.1" y1="1" x2="237.1" y2="20.1"/>
<line fill="none" stroke="#798184" stroke-width="2" stroke-miterlimit="10" x1="253.6" y1="1" x2="247.6" y2="20.1"/>
<line fill="none" stroke="#798184" stroke-width="2" stroke-miterlimit="10" x1="264.7" y1="1" x2="258.7" y2="20.1"/>
<line fill="none" stroke="#798184" stroke-width="2" stroke-miterlimit="10" x1="275.2" y1="1" x2="269.2" y2="20.1"/>
<line fill="none" stroke="#798184" stroke-width="2" stroke-miterlimit="10" x1="286.1" y1="1" x2="280.1" y2="20.1"/>
<line fill="none" stroke="#798184" stroke-width="2" stroke-miterlimit="10" x1="296.6" y1="1" x2="290.6" y2="20.1"/>
<line fill="none" stroke="#798184" stroke-width="2" stroke-miterlimit="10" x1="307.6" y1="1" x2="301.6" y2="20.1"/>
<line fill="none" stroke="#798184" stroke-width="2" stroke-miterlimit="10" x1="318.1" y1="1" x2="312.1" y2="20.1"/>
<line fill="none" stroke="#798184" stroke-width="2" stroke-miterlimit="10" x1="329" y1="1" x2="323" y2="20.1"/>
<line fill="none" stroke="#798184" stroke-width="2" stroke-miterlimit="10" x1="339.5" y1="1" x2="333.5" y2="20.1"/>
<line fill="none" stroke="#798184" stroke-width="2" stroke-miterlimit="10" x1="350.2" y1="1" x2="344.2" y2="20.1"/>
<line fill="none" stroke="#798184" stroke-width="2" stroke-miterlimit="10" x1="360.7" y1="1" x2="354.7" y2="20.1"/>
<line fill="none" stroke="#798184" stroke-width="2" stroke-miterlimit="10" x1="371.6" y1="1" x2="365.6" y2="20.1"/>
<line fill="none" stroke="#798184" stroke-width="2" stroke-miterlimit="10" x1="382.1" y1="1" x2="376.1" y2="20.1"/>
<line fill="none" stroke="#798184" stroke-width="2" stroke-miterlimit="10" x1="393.1" y1="1" x2="387.1" y2="20.1"/>
<line fill="none" stroke="#798184" stroke-width="2" stroke-miterlimit="10" x1="403.6" y1="1" x2="397.6" y2="20.1"/>
<line fill="none" stroke="#798184" stroke-width="2" stroke-miterlimit="10" x1="414.5" y1="1" x2="408.5" y2="20.1"/>
<line fill="none" stroke="#798184" stroke-width="2" stroke-miterlimit="10" x1="425" y1="1" x2="419" y2="20.1"/>
<line fill="none" stroke="#798184" stroke-width="2" stroke-miterlimit="10" x1="436.1" y1="1" x2="430.1" y2="20.1"/>
<line fill="none" stroke="#798184" stroke-width="2" stroke-miterlimit="10" x1="446.6" y1="1" x2="440.6" y2="20.1"/>
<line fill="none" stroke="#798184" stroke-width="2" stroke-miterlimit="10" x1="457.5" y1="1" x2="451.5" y2="20.1"/>
<line fill="none" stroke="#798184" stroke-width="2" stroke-miterlimit="10" x1="468" y1="1" x2="462" y2="20.1"/>
<line fill="none" stroke="#798184" stroke-width="2" stroke-miterlimit="10" x1="479" y1="1" x2="473" y2="20.1"/>
<line fill="none" stroke="#798184" stroke-width="2" stroke-miterlimit="10" x1="489.5" y1="1" x2="483.5" y2="20.1"/>
<line fill="none" stroke="#798184" stroke-width="2" stroke-miterlimit="10" x1="500.4" y1="1" x2="494.4" y2="20.1"/>
<line fill="none" stroke="#798184" stroke-width="2" stroke-miterlimit="10" x1="510.9" y1="1" x2="504.9" y2="20.1"/>
<line fill="none" stroke="#798184" stroke-width="2" stroke-miterlimit="10" x1="522" y1="1" x2="516" y2="20.1"/>
<line fill="none" stroke="#798184" stroke-width="2" stroke-miterlimit="10" x1="532.5" y1="1" x2="526.5" y2="20.1"/>
<line fill="none" stroke="#798184" stroke-width="2" stroke-miterlimit="10" x1="543.4" y1="1" x2="537.4" y2="20.1"/>
<line fill="none" stroke="#798184" stroke-width="2" stroke-miterlimit="10" x1="553.9" y1="1" x2="547.9" y2="20.1"/>
<line fill="none" stroke="#798184" stroke-width="2" stroke-miterlimit="10" x1="564.9" y1="1" x2="558.9" y2="20.1"/>
<line fill="none" stroke="#798184" stroke-width="2" stroke-miterlimit="10" x1="575.4" y1="1" x2="569.4" y2="20.1"/>
<line fill="none" stroke="#798184" stroke-width="2" stroke-miterlimit="10" x1="586.3" y1="1" x2="580.3" y2="20.1"/>
<line fill="none" stroke="#798184" stroke-width="2" stroke-miterlimit="10" x1="596.8" y1="1" x2="590.8" y2="20.1"/>
<line fill="none" stroke="#798184" stroke-width="2" stroke-miterlimit="10" x1="607.9" y1="1" x2="601.9" y2="20.1"/>
<line fill="none" stroke="#798184" stroke-width="2" stroke-miterlimit="10" x1="618.4" y1="1" x2="612.4" y2="20.1"/>
<line fill="none" stroke="#798184" stroke-width="2" stroke-miterlimit="10" x1="629.3" y1="1" x2="623.3" y2="20.1"/>
<line fill="none" stroke="#798184" stroke-width="2" stroke-miterlimit="10" x1="639.8" y1="1" x2="633.8" y2="20.1"/>
<line fill="none" stroke="#798184" stroke-width="2" stroke-miterlimit="10" x1="650.8" y1="1" x2="644.8" y2="20.1"/>
<line fill="none" stroke="#798184" stroke-width="2" stroke-miterlimit="10" x1="661.3" y1="1" x2="655.3" y2="20.1"/>
<line fill="none" stroke="#798184" stroke-width="2" stroke-miterlimit="10" x1="672.2" y1="1" x2="666.2" y2="20.1"/>
<line fill="none" stroke="#798184" stroke-width="2" stroke-miterlimit="10" x1="682.7" y1="1" x2="676.7" y2="20.1"/>
<line fill="none" stroke="#798184" stroke-width="2" stroke-miterlimit="10" x1="693.8" y1="1" x2="687.8" y2="20.1"/>
<line fill="none" stroke="#798184" stroke-width="2" stroke-miterlimit="10" x1="704.3" y1="1" x2="698.3" y2="20.1"/>
<line fill="none" stroke="#798184" stroke-width="2" stroke-miterlimit="10" x1="715.2" y1="1" x2="709.2" y2="20.1"/>
<line fill="none" stroke="#798184" stroke-width="2" stroke-miterlimit="10" x1="725.7" y1="1" x2="719.7" y2="20.1"/>
<line fill="none" stroke="#798184" stroke-width="2" stroke-miterlimit="10" x1="736.7" y1="1" x2="730.7" y2="20.1"/>
<line fill="none" stroke="#798184" stroke-width="2" stroke-miterlimit="10" x1="747.2" y1="1" x2="741.2" y2="20.1"/>
<line fill="none" stroke="#798184" stroke-width="2" stroke-miterlimit="10" x1="758.1" y1="1" x2="752.1" y2="20.1"/>
<line fill="none" stroke="#798184" stroke-width="2" stroke-miterlimit="10" x1="768.6" y1="1" x2="762.6" y2="20.1"/>
<line fill="none" stroke="#798184" stroke-width="2" stroke-miterlimit="10" x1="779.7" y1="1" x2="773.7" y2="20.1"/>
<line fill="none" stroke="#798184" stroke-width="2" stroke-miterlimit="10" x1="790.2" y1="1" x2="784.2" y2="20.1"/>
<line fill="none" stroke="#798184" stroke-width="2" stroke-miterlimit="10" x1="801.1" y1="1" x2="795.1" y2="20.1"/>
<line fill="none" stroke="#798184" stroke-width="2" stroke-miterlimit="10" x1="811.6" y1="1" x2="805.6" y2="20.1"/>
<line fill="none" stroke="#798184" stroke-width="2" stroke-miterlimit="10" x1="822.6" y1="1" x2="816.6" y2="20.1"/>
<line fill="none" stroke="#798184" stroke-width="2" stroke-miterlimit="10" x1="833.1" y1="1" x2="827.1" y2="20.1"/>
<line fill="none" stroke="#798184" stroke-width="2" stroke-miterlimit="10" x1="844" y1="1" x2="838" y2="20.1"/>
<line fill="none" stroke="#798184" stroke-width="2" stroke-miterlimit="10" x1="854.5" y1="1" x2="848.5" y2="20.1"/>
<line fill="none" stroke="#798184" stroke-width="2" stroke-miterlimit="10" x1="865.2" y1="1" x2="859.2" y2="20.1"/>
<line fill="none" stroke="#798184" stroke-width="2" stroke-miterlimit="10" x1="875.7" y1="1" x2="869.7" y2="20.1"/>
<line fill="none" stroke="#798184" stroke-width="2" stroke-miterlimit="10" x1="886.6" y1="1" x2="880.6" y2="20.1"/>
<line fill="none" stroke="#798184" stroke-width="2" stroke-miterlimit="10" x1="897.1" y1="1" x2="891.1" y2="20.1"/>
<line fill="none" stroke="#798184" stroke-width="2" stroke-miterlimit="10" x1="908.1" y1="1" x2="902.1" y2="20.1"/>
<line fill="none" stroke="#798184" stroke-width="2" stroke-miterlimit="10" x1="918.6" y1="1" x2="912.6" y2="20.1"/>
<line fill="none" stroke="#798184" stroke-width="2" stroke-miterlimit="10" x1="929.5" y1="1" x2="923.5" y2="20.1"/>
<line fill="none" stroke="#798184" stroke-width="2" stroke-miterlimit="10" x1="940" y1="1" x2="934" y2="20.1"/>
<line fill="none" stroke="#798184" stroke-width="2" stroke-miterlimit="10" x1="951.1" y1="1" x2="945.1" y2="20.1"/>
<line fill="none" stroke="#798184" stroke-width="2" stroke-miterlimit="10" x1="961.6" y1="1" x2="955.6" y2="20.1"/>
<line fill="none" stroke="#798184" stroke-width="2" stroke-miterlimit="10" x1="972.5" y1="1" x2="966.5" y2="20.1"/>
<line fill="none" stroke="#798184" stroke-width="2" stroke-miterlimit="10" x1="983" y1="1" x2="977" y2="20.1"/>
<line fill="none" stroke="#798184" stroke-width="2" stroke-miterlimit="10" x1="994" y1="1" x2="988" y2="20.1"/>
<line fill="none" stroke="#798184" stroke-width="2" stroke-miterlimit="10" x1="1004.5" y1="1" x2="998.5" y2="20.1"/>
<line fill="none" stroke="#798184" stroke-width="2" stroke-miterlimit="10" x1="1015.4" y1="1" x2="1009.4" y2="20.1"/>
<line fill="none" stroke="#798184" stroke-width="2" stroke-miterlimit="10" x1="1025.9" y1="1" x2="1019.9" y2="20.1"/>
<line fill="none" stroke="#798184" stroke-width="2" stroke-miterlimit="10" x1="1037" y1="1" x2="1031" y2="20.1"/>
<line fill="none" stroke="#798184" stroke-width="2" stroke-miterlimit="10" x1="1047.5" y1="1" x2="1041.5" y2="20.1"/>
<line fill="none" stroke="#798184" stroke-width="2" stroke-miterlimit="10" x1="1058.4" y1="1" x2="1052.4" y2="20.1"/>
<line fill="none" stroke="#798184" stroke-width="2" stroke-miterlimit="10" x1="1068.9" y1="1" x2="1062.9" y2="20.1"/>
<line fill="none" stroke="#798184" stroke-width="2" stroke-miterlimit="10" x1="1079.9" y1="1" x2="1073.9" y2="20.1"/>
<line fill="none" stroke="#798184" stroke-width="2" stroke-miterlimit="10" x1="1090.4" y1="1" x2="1084.4" y2="20.1"/>
<line fill="none" stroke="#798184" stroke-width="2" stroke-miterlimit="10" x1="1101.3" y1="1" x2="1095.3" y2="20.1"/>
<line fill="none" stroke="#798184" stroke-width="2" stroke-miterlimit="10" x1="1111.8" y1="1" x2="1105.8" y2="20.1"/>
<line fill="none" stroke="#798184" stroke-width="2" stroke-miterlimit="10" x1="1122.9" y1="1" x2="1116.9" y2="20.1"/>
<line fill="none" stroke="#798184" stroke-width="2" stroke-miterlimit="10" x1="1133.4" y1="1" x2="1127.4" y2="20.1"/>
<line fill="none" stroke="#798184" stroke-width="2" stroke-miterlimit="10" x1="1144.3" y1="1" x2="1138.3" y2="20.1"/>
<line fill="none" stroke="#798184" stroke-width="2" stroke-miterlimit="10" x1="1154.8" y1="1" x2="1148.8" y2="20.1"/>
<line fill="none" stroke="#798184" stroke-width="2" stroke-miterlimit="10" x1="1165.8" y1="1" x2="1159.8" y2="20.1"/>
<line fill="none" stroke="#798184" stroke-width="2" stroke-miterlimit="10" x1="1176.3" y1="1" x2="1170.3" y2="20.1"/>
<line fill="none" stroke="#798184" stroke-width="2" stroke-miterlimit="10" x1="1187.2" y1="1" x2="1181.2" y2="20.1"/>
<line fill="none" stroke="#798184" stroke-width="2" stroke-miterlimit="10" x1="1197.7" y1="1" x2="1191.7" y2="20.1"/>
</svg>
