
<svg xmlns="http://www.w3.org/2000/svg" x="0px" y="0px" viewBox="0 0 1188.7 31.1">
<g>
	<g>
		<polygon fill="none" stroke="#798184" stroke-width="2" stroke-miterlimit="10" points="12.8,5.5 
			1.2,25.6 24.4,25.6 		"/>
		<polygon fill="none" stroke="#798184" stroke-width="2" stroke-miterlimit="10" points="95.9,5.5 
			84.4,25.6 107.5,25.6 		"/>
		<polygon fill="none" stroke="#798184" stroke-width="2" stroke-miterlimit="10" points="54.4,25.6 
			65.9,5.5 42.8,5.5 		"/>
		<polygon fill="none" stroke="#798184" stroke-width="2" stroke-miterlimit="10" points="137.5,25.6 
			149.1,5.5 125.9,5.5 		"/>
	</g>
	<g>
		<polygon fill="none" stroke="#798184" stroke-width="2" stroke-miterlimit="10" points="178.9,5.5 
			167.3,25.6 190.4,25.6 		"/>
		<polygon fill="none" stroke="#798184" stroke-width="2" stroke-miterlimit="10" points="262,5.5 
			250.4,25.6 273.6,25.6 		"/>
		<polygon fill="none" stroke="#798184" stroke-width="2" stroke-miterlimit="10" points="220.4,25.6 
			232,5.5 208.9,5.5 		"/>
		<polygon fill="none" stroke="#798184" stroke-width="2" stroke-miterlimit="10" points="303.6,25.6 
			315.1,5.5 292,5.5 		"/>
	</g>
	<g>
		<polygon fill="none" stroke="#798184" stroke-width="2" stroke-miterlimit="10" points="345.1,5.5 
			333.6,25.6 356.7,25.6 		"/>
		<polygon fill="none" stroke="#798184" stroke-width="2" stroke-miterlimit="10" points="428.3,5.5 
			416.7,25.6 439.8,25.6 		"/>
		<polygon fill="none" stroke="#798184" stroke-width="2" stroke-miterlimit="10" points="386.7,25.6 
			398.3,5.5 375.1,5.5 		"/>
		<polygon fill="none" stroke="#798184" stroke-width="2" stroke-miterlimit="10" points="469.8,25.6 
			481.4,5.5 458.3,5.5 		"/>
	</g>
	<g>
		<polygon fill="none" stroke="#798184" stroke-width="2" stroke-miterlimit="10" points="511.2,5.5 
			499.7,25.6 522.8,25.6 		"/>
		<polygon fill="none" stroke="#798184" stroke-width="2" stroke-miterlimit="10" points="594.4,5.5 
			582.8,25.6 605.9,25.6 		"/>
		<polygon fill="none" stroke="#798184" stroke-width="2" stroke-miterlimit="10" points="552.8,25.6 
			564.4,5.5 541.2,5.5 		"/>
		<polygon fill="none" stroke="#798184" stroke-width="2" stroke-miterlimit="10" points="635.9,25.6 
			647.5,5.5 624.4,5.5 		"/>
	</g>
	<g>
		<polygon fill="none" stroke="#798184" stroke-width="2" stroke-miterlimit="10" points="677.5,5.5 
			665.9,25.6 689.1,25.6 		"/>
		<polygon fill="none" stroke="#798184" stroke-width="2" stroke-miterlimit="10" points="760.6,5.5 
			749.1,25.6 772.2,25.6 		"/>
		<polygon fill="none" stroke="#798184" stroke-width="2" stroke-miterlimit="10" points="719.1,25.6 
			730.6,5.5 707.5,5.5 		"/>
		<polygon fill="none" stroke="#798184" stroke-width="2" stroke-miterlimit="10" points="802.2,25.6 
			813.8,5.5 790.6,5.5 		"/>
	</g>
	<g>
		<polygon fill="none" stroke="#798184" stroke-width="2" stroke-miterlimit="10" points="843.6,5.5 
			832,25.6 855.1,25.6 		"/>
		<polygon fill="none" stroke="#798184" stroke-width="2" stroke-miterlimit="10" points="926.7,5.5 
			915.1,25.6 938.3,25.6 		"/>
		<polygon fill="none" stroke="#798184" stroke-width="2" stroke-miterlimit="10" points="885.1,25.6 
			896.7,5.5 873.6,5.5 		"/>
		<polygon fill="none" stroke="#798184" stroke-width="2" stroke-miterlimit="10" points="968.3,25.6 
			979.8,5.5 956.7,5.5 		"/>
	</g>
	<g>
		<polygon fill="none" stroke="#798184" stroke-width="2" stroke-miterlimit="10" points="1009.8,5.5 
			998.3,25.6 1021.4,25.6 		"/>
		<polygon fill="none" stroke="#798184" stroke-width="2" stroke-miterlimit="10" points="1093,5.5 
			1081.4,25.6 1104.6,25.6 		"/>
		<polygon fill="none" stroke="#798184" stroke-width="2" stroke-miterlimit="10" points="1051.4,25.6 
			1063,5.5 1039.8,5.5 		"/>
		<polygon fill="none" stroke="#798184" stroke-width="2" stroke-miterlimit="10" points="1134.6,25.6 
			1146.1,5.5 1123,5.5 		"/>
	</g>
	<polygon fill="none" stroke="#798184" stroke-width="2" stroke-miterlimit="10" points="1175.9,5.5 
		1164.4,25.6 1187.5,25.6 	"/>
</g>
</svg>
