<svg xmlns="http://www.w3.org/2000/svg" x="0px" y="0px" viewBox="0 0 1170.4 28.1">
<polyline fill="none" stroke="#798184" stroke-width="2" stroke-miterlimit="10" points="584.7,28.1 584.7,1 611.6,1 611.6,20.6 
	597.8,20.6 597.8,14.1 605,14.1 605,7.5 591.2,7.5 591.2,27.1 619.1,27.1 619.1,1 646,1 646,20.6 632.2,20.6 632.2,14.1 639.4,14.1 
	639.4,7.5 625.6,7.5 625.6,27.1 653.5,27.1 653.5,1 680.3,1 680.3,20.6 666.5,20.6 666.5,14.1 673.8,14.1 673.8,7.5 660,7.5 
	660,27.1 687.9,27.1 687.9,1 714.7,1 714.7,20.6 700.9,20.6 700.9,14.1 708.2,14.1 708.2,7.5 694.4,7.5 694.4,27.1 722.3,27.1 
	722.3,1 749.1,1 749.1,20.6 735.3,20.6 735.3,14.1 742.6,14.1 742.6,7.5 728.8,7.5 728.8,27.1 756.7,27.1 756.7,1 783.5,1 
	783.5,20.6 769.7,20.6 769.7,14.1 777,14.1 777,7.5 763.2,7.5 763.2,27.1 791.1,27.1 791.1,1 817.9,1 817.9,20.6 804.1,20.6 
	804.1,14.1 811.4,14.1 811.4,7.5 797.6,7.5 797.6,27.1 825.5,27.1 825.5,1 852.3,1 852.3,20.6 838.5,20.6 838.5,14.1 845.8,14.1 
	845.8,7.5 832,7.5 832,27.1 859.8,27.1 859.8,1 886.7,1 886.7,20.6 872.9,20.6 872.9,14.1 880.2,14.1 880.2,7.5 866.4,7.5 
	866.4,27.1 894.2,27.1 894.2,1 921.1,1 921.1,20.6 907.3,20.6 907.3,14.1 914.6,14.1 914.6,7.5 900.8,7.5 900.8,27.1 928.6,27.1 
	928.6,1 955.5,1 955.5,20.6 941.7,20.6 941.7,14.1 949,14.1 949,7.5 935.2,7.5 935.2,27.1 963,27.1 963,1 989.9,1 989.9,20.6 
	976.1,20.6 976.1,14.1 983.4,14.1 983.4,7.5 969.6,7.5 969.6,27.1 997.4,27.1 997.4,1 1024.3,1 1024.3,20.6 1010.5,20.6 
	1010.5,14.1 1017.8,14.1 1017.8,7.5 1004,7.5 1004,27.1 1031.8,27.1 1031.8,1 1058.7,1 1058.7,20.6 1044.9,20.6 1044.9,14.1 
	1052.1,14.1 1052.1,7.5 1038.3,7.5 1038.3,27.1 1066.2,27.1 1066.2,1 1093.1,1 1093.1,20.6 1079.3,20.6 1079.3,14.1 1086.5,14.1 
	1086.5,7.5 1072.7,7.5 1072.7,27.1 1100.6,27.1 1100.6,1 1127.5,1 1127.5,20.6 1113.7,20.6 1113.7,14.1 1120.9,14.1 1120.9,7.5 
	1107.1,7.5 1107.1,27.1 1135,27.1 1135,1 1161.9,1 1161.9,20.6 1148.1,20.6 1148.1,14.1 1155.3,14.1 1155.3,7.5 1141.5,7.5 
	1141.5,27.1 1169.4,27.1 1169.4,1 "/>
<polyline fill="none" stroke="#798184" stroke-width="2" stroke-miterlimit="10" points="584.7,27.1 557.8,27.1 557.8,7.5 
	571.6,7.5 571.6,14.1 564.4,14.1 564.4,20.6 578.2,20.6 578.2,1 550.3,1 550.3,27.1 523.4,27.1 523.4,7.5 537.2,7.5 537.2,14.1 
	530,14.1 530,20.6 543.8,20.6 543.8,1 515.9,1 515.9,27.1 489,27.1 489,7.5 502.8,7.5 502.8,14.1 495.6,14.1 495.6,20.6 509.4,20.6 
	509.4,1 481.5,1 481.5,27.1 454.6,27.1 454.6,7.5 468.4,7.5 468.4,14.1 461.2,14.1 461.2,20.6 475,20.6 475,1 447.1,1 447.1,27.1 
	420.3,27.1 420.3,7.5 434.1,7.5 434.1,14.1 426.8,14.1 426.8,20.6 440.6,20.6 440.6,1 412.7,1 412.7,27.1 385.9,27.1 385.9,7.5 
	399.7,7.5 399.7,14.1 392.4,14.1 392.4,20.6 406.2,20.6 406.2,1 378.3,1 378.3,27.1 351.5,27.1 351.5,7.5 365.3,7.5 365.3,14.1 
	358,14.1 358,20.6 371.8,20.6 371.8,1 343.9,1 343.9,27.1 317.1,27.1 317.1,7.5 330.9,7.5 330.9,14.1 323.6,14.1 323.6,20.6 
	337.4,20.6 337.4,1 309.5,1 309.5,27.1 282.7,27.1 282.7,7.5 296.5,7.5 296.5,14.1 289.2,14.1 289.2,20.6 303,20.6 303,1 275.2,1 
	275.2,27.1 248.3,27.1 248.3,7.5 262.1,7.5 262.1,14.1 254.8,14.1 254.8,20.6 268.6,20.6 268.6,1 240.8,1 240.8,27.1 213.9,27.1 
	213.9,7.5 227.7,7.5 227.7,14.1 220.4,14.1 220.4,20.6 234.2,20.6 234.2,1 206.4,1 206.4,27.1 179.5,27.1 179.5,7.5 193.3,7.5 
	193.3,14.1 186,14.1 186,20.6 199.8,20.6 199.8,1 172,1 172,27.1 145.1,27.1 145.1,7.5 158.9,7.5 158.9,14.1 151.6,14.1 151.6,20.6 
	165.4,20.6 165.4,1 137.6,1 137.6,27.1 110.7,27.1 110.7,7.5 124.5,7.5 124.5,14.1 117.2,14.1 117.2,20.6 131,20.6 131,1 103.2,1 
	103.2,27.1 76.3,27.1 76.3,7.5 90.1,7.5 90.1,14.1 82.8,14.1 82.8,20.6 96.6,20.6 96.6,1 68.8,1 68.8,27.1 41.9,27.1 41.9,7.5 
	55.7,7.5 55.7,14.1 48.5,14.1 48.5,20.6 62.3,20.6 62.3,1 34.4,1 34.4,27.1 7.5,27.1 7.5,7.5 21.3,7.5 21.3,14.1 14.1,14.1 
	14.1,20.6 27.9,20.6 27.9,1 0,1 0,28.1 "/>
</svg>
