<?xml version="1.0" encoding="utf-8"?>
<!-- Generator: Adobe Illustrator 25.0.0, SVG Export Plug-In . SVG Version: 6.00 Build 0)  -->
<svg version="1.1" id="Layer_1" xmlns="http://www.w3.org/2000/svg" xmlns:xlink="http://www.w3.org/1999/xlink" x="0px" y="0px"
	 viewBox="0 0 80 80" style="enable-background:new 0 0 80 80;" xml:space="preserve">
<g>
	<g>
		<polyline points="0.6,51.2 18.4,51.2 18.4,38.6 0.6,38.6 		"/>
		<path d="M0.6,63.1c0,1,0,1.9,0.2,2.8h17.6V53.5H0.6"/>
		<path d="M0.6,22.6"/>
		<path d="M0.6,21.5h78.8v-4.7c0-9-7.5-16.2-16.7-16.2H20.4h-3C8.1,0.5,0.6,7.8,0.6,16.7"/>
		<polyline points="0.6,36.3 18.4,36.3 18.4,23.8 0.6,23.8 		"/>
		<rect x="20.6" y="38.6" width="58.8" height="12.5"/>
		<rect x="20.6" y="23.8" width="58.8" height="12.4"/>
		<path d="M79.3,65.9c0.1-1.1,0.1-1.8,0.1-2.7v-9.7H20.6v12.4L79.3,65.9"/>
	</g>
	<path d="M18.4,79.3L18.4,79.3v-11H1.5v0.1c2.2,6.4,8.5,11,15.9,11L18.4,79.3L18.4,79.3z"/>
	<path d="M78.6,68.3h-58v11v0.1h42.1C70.1,79.4,76.4,74.8,78.6,68.3C78.6,68.4,78.6,68.4,78.6,68.3"/>
</g>
</svg>
