<?xml version="1.0" encoding="UTF-8"?>
<!-- Generator: Adobe Illustrator 17.1.0, SVG Export Plug-In . SVG Version: 6.00 Build 0)  -->
<!DOCTYPE svg PUBLIC "-//W3C//DTD SVG 1.1//EN" "http://www.w3.org/Graphics/SVG/1.1/DTD/svg11.dtd">
<svg version="1.1" id="Layer_1" xmlns="http://www.w3.org/2000/svg" xmlns:xlink="http://www.w3.org/1999/xlink" x="0px" y="0px" viewBox="0 0 150 100" enable-background="new 0 0 150 100" xml:space="preserve">
<g>
	<path fill="#58595B" d="M46.684,74.858c0.01-0.185,0.029-0.339,0.043-0.441c0.162-3.341,1.451-6.363,3.491-8.704H28.633v6.298   c0,0.752,0.308,1.488,0.841,2.021c0.525,0.535,1.264,0.833,2.018,0.833L46.684,74.858z"/>
	<path fill="#58595B" d="M136.907,48.73c-0.268-3.534-1.17-7.797-3.093-11.791c-2.22-4.734-6.747-9.619-13.625-9.612h-12.243   c-0.607,0.089-1.178,0.368-1.613,0.797c-0.459,0.461-0.75,1.07-0.822,1.712v30.47c0,1.081-0.876,1.957-1.957,1.957   s-1.957-0.876-1.957-1.957V27.328h-0.014V16.402c0-0.754-0.308-1.488-0.841-2.023c-0.532-0.525-1.269-0.831-2.026-0.831H73.012   c-0.179-0.024-0.361-0.041-0.547-0.041h-0.27H19.738c-1.179,0.003-2.181,0.892-2.316,2.068c-0.004,0.037-0.01,0.074-0.013,0.112   c-0.085,1.286,0.888,2.398,2.174,2.483l0.155,0.01l8.894,0.59l40.596,2.694c-0.256,2.734-2.555,4.874-5.356,4.874h-35.24v6.856   H13.266c-1.166,0.003-2.157,0.895-2.264,2.068c-0.002,0.017-0.005,0.034-0.006,0.051c-0.086,1.254,0.861,2.34,2.114,2.425   l0.156,0.011l15.367,1.054l34.124,2.341c-0.253,2.737-2.553,4.881-5.356,4.881H28.633v6.856H6.793   c-1.179,0.002-2.178,0.894-2.309,2.069c-0.004,0.04-0.011,0.079-0.013,0.119c-0.076,1.282,0.902,2.383,2.184,2.459l0.138,0.008   l21.848,1.297l34.114,2.026c-0.003,0.03-0.008,0.06-0.011,0.09c6.774,0.857,12.072,6.448,12.429,13.448   c0.015,0.106,0.035,0.261,0.046,0.447l34.526-0.016c0.007-0.095,0.015-0.179,0.024-0.247c0.138-3.677,1.657-7.112,4.285-9.684   c2.671-2.615,6.205-4.058,9.949-4.065h0.006h0.006c3.742,0.006,7.274,1.45,9.946,4.064c2.619,2.563,4.137,5.98,4.288,9.652   c0.009,0.071,0.019,0.162,0.027,0.266l2.783-0.001c1.058,0,2.102-0.431,2.854-1.183c0.747-0.747,1.177-1.789,1.177-2.846V58.331   c-0.094-2.398-1.165-3.631-2.021-4.683C141.21,51.594,138.588,49.838,136.907,48.73z M114.604,49.726V35.403h5.584   c2.75,0.01,4.607,1.659,6.373,5.078c1.427,2.867,2.143,6.584,2.298,9.245H114.604z"/>
	<path fill="#58595B" d="M134.669,74.813c-0.168-5.759-4.857-10.384-10.659-10.394c-5.809,0.01-10.493,4.635-10.659,10.394   c0,0.005-0.001,0.009-0.001,0.013c-0.002,0.099-0.027,0.193-0.027,0.29c0,5.904,4.786,10.682,10.687,10.692   c5.904-0.01,10.69-4.788,10.69-10.692c0-0.101-0.027-0.197-0.03-0.3C134.669,74.815,134.669,74.814,134.669,74.813z M124.01,79.514   c-2.42,0-4.396-1.971-4.406-4.398c0-0.114,0.015-0.212,0.033-0.293c0.014-0.062,0.029-0.115,0.04-0.152   c0.242-2.26,2.096-3.958,4.333-3.958c2.236,0,4.091,1.698,4.333,3.957c0.011,0.037,0.026,0.089,0.039,0.149   c0.018,0.083,0.034,0.183,0.034,0.301C128.406,77.543,126.429,79.514,124.01,79.514z"/>
	<path fill="#58595B" d="M71.641,75.116c0-0.092-0.013-0.181-0.026-0.27c-0.008-0.054-0.017-0.109-0.02-0.166   c-0.239-5.698-4.88-10.251-10.644-10.261c-0.019,0-0.038,0.001-0.058,0.002c-1.818,0.013-3.525,0.48-5.016,1.292   c-3.206,1.747-5.414,5.091-5.57,8.967c-0.003,0.06-0.012,0.118-0.02,0.176c-0.012,0.086-0.024,0.171-0.024,0.26   c0,5.904,4.785,10.682,10.687,10.692C66.855,85.798,71.641,81.02,71.641,75.116z M56.545,75.116c0-0.098,0.011-0.184,0.024-0.263   c0.018-0.106,0.043-0.197,0.064-0.266c0.005-0.017,0.011-0.034,0.015-0.051c0.309-2.216,2.117-3.823,4.303-3.823   c2.195,0,4.007,1.613,4.308,3.836c0.004,0.017,0.009,0.033,0.014,0.049c0.019,0.065,0.042,0.15,0.059,0.251   c0.014,0.08,0.025,0.17,0.025,0.271c-0.01,2.423-1.986,4.394-4.406,4.394C58.532,79.514,56.555,77.543,56.545,75.116z"/>
</g>
</svg>