<svg width="32" height="32" viewBox="0 0 32 32" fill="none" xmlns="http://www.w3.org/2000/svg">
<path d="M1.53033 7.46967C1.23744 7.17678 0.762563 7.17678 0.46967 7.46967C0.176777 7.76256 0.176777 8.23744 0.46967 8.53033L1.53033 7.46967ZM9.84467 17.9053C10.1376 18.1982 10.6124 18.1982 10.9053 17.9053C11.1982 17.6124 11.1982 17.1376 10.9053 16.8447L9.84467 17.9053ZM15.4697 22.4697C15.1768 22.7626 15.1768 23.2374 15.4697 23.5303C15.7626 23.8232 16.2374 23.8232 16.5303 23.5303L15.4697 22.4697ZM31.5303 8.53033C31.8232 8.23744 31.8232 7.76256 31.5303 7.46967C31.2374 7.17678 30.7626 7.17678 30.4697 7.46967L31.5303 8.53033ZM0.46967 8.53033L9.84467 17.9053L10.9053 16.8447L1.53033 7.46967L0.46967 8.53033ZM16.5303 23.5303L31.5303 8.53033L30.4697 7.46967L15.4697 22.4697L16.5303 23.5303Z" fill="currentColor"/>
</svg>
