<svg width="32" height="32" viewBox="0 0 32 32" fill="none" xmlns="http://www.w3.org/2000/svg">
<path d="M14.8767 11.3698V14.8767H11.3698C10.7494 14.8767 10.2465 15.3796 10.2465 16C10.2465 16.6204 10.7494 17.1233 11.3698 17.1233H14.8767V20.6302C14.8767 21.2506 15.3796 21.7535 16 21.7535C16.6204 21.7535 17.1167 21.2506 17.1167 20.6302V17.1233H20.6237C21.2441 17.1233 21.7469 16.6204 21.7469 16C21.7469 15.3796 21.2441 14.8767 20.6237 14.8767H17.1167V11.3698C17.1167 10.7494 16.6139 10.2465 16 10.2465C15.3861 10.2465 14.8767 10.7494 14.8767 11.3698Z" fill="currentColor"/>
<path d="M4.68245 4.68245C1.66531 7.70612 0 11.7224 0 16C0 20.2776 1.66531 24.2939 4.68898 27.3175C7.70612 30.3347 11.729 32 16 32C20.271 32 24.2939 30.3347 27.3175 27.311C30.3347 24.2939 32 20.271 32 16C32 11.729 30.3347 7.70612 27.311 4.68245C24.2939 1.66531 20.2776 0 16 0C11.729 0 7.70612 1.66531 4.68245 4.68245ZM29.76 16C29.76 19.6767 28.3298 23.1314 25.7306 25.7306C23.1314 28.3298 19.6767 29.76 16 29.76C12.3233 29.76 8.86857 28.3298 6.26939 25.7306C3.6702 23.1314 2.24 19.6767 2.24 16C2.24 12.3233 3.6702 8.86857 6.26939 6.26939C8.86857 3.6702 12.3233 2.24 16 2.24C19.6767 2.24 23.1314 3.6702 25.7306 6.26939C28.3298 8.86857 29.76 12.3233 29.76 16Z" fill="currentColor"/>
</svg>
