<svg width="32" height="32" viewBox="0 0 32 32" fill="none" xmlns="http://www.w3.org/2000/svg">
<path d="M16 0C7.17785 0 0 7.17723 0 16C0 24.8228 7.17785 32 16 32C24.8222 32 32 24.8228 32 16C32 7.17723 24.8222 0 16 0ZM16 30.7692C7.85662 30.7692 1.23077 24.1434 1.23077 16C1.23077 7.85662 7.85662 1.23077 16 1.23077C24.1434 1.23077 30.7692 7.85662 30.7692 16C30.7692 24.1434 24.1434 30.7692 16 30.7692Z" fill="currentColor"/>
<path d="M23.6923 15.3846H16.6154V8.61538C16.6154 8.27508 16.3397 8 16 8C15.6603 8 15.3846 8.27508 15.3846 8.61538V15.3846H8.30771C7.96801 15.3846 7.69232 15.6597 7.69232 16C7.69232 16.3403 7.96801 16.6154 8.30771 16.6154H15.3846V24C15.3846 24.3403 15.6603 24.6154 16 24.6154C16.3397 24.6154 16.6154 24.3403 16.6154 24V16.6154H23.6923C24.032 16.6154 24.3077 16.3403 24.3077 16C24.3077 15.6597 24.032 15.3846 23.6923 15.3846Z" fill="currentColor"/>
</svg>
