<svg width="38" height="38" viewBox="0 0 6 6" xmlns="http://www.w3.org/2000/svg"><polygon points="0.3,2 0.7,2 0.7,1.7 1,1.7 1,1.3 0.7,1.3 0.7,1 0.7,0.7 1,0.7 1,0.3 0.7,0.3 0.7,0 0.3,0 0.3,0.3 0,0.3 0,0.7 0.3,0.7 0.3,1 0.3,1.3 0,1.3 0,1.7 0.3,1.7 "></polygon>
<polygon points="2.3,1 2.7,1 2.7,0.7 3,0.7 3,0.3 2.7,0.3 2.7,0 2.3,0 2.3,0.3 2,0.3 2,0.7 2.3,0.7 "></polygon>
<polygon points="5.7,0.3 5.7,0 5.3,0 5.3,0.3 5,0.3 4.7,0.3 4.7,0 4.3,0 4.3,0.3 4,0.3 4,0.7 4.3,0.7 4.3,1 4.3,1.3 4,1.3 3.7,1.3 3.7,1 3.3,1 3.3,1.3 3,1.3 3,1.7 3.3,1.7 3.3,2 3.7,2 3.7,1.7 4,1.7 4,1.7 4.3,1.7 4.3,2 4.7,2 4.7,1.7 5,1.7 5,1.3 4.7,1.3 4.7,1 4.7,0.7 5,0.7 5,0.7 5.3,0.7 5.3,1 5.7,1 5.7,0.7 6,0.7 6,0.3 "></polygon>
<polygon points="2.3,3 2.7,3 2.7,2.7 3,2.7 3,2.3 2.7,2.3 2.7,2 2.3,2 2.3,2.3 2,2.3 2,2.7 2.3,2.7 "></polygon>
<polygon points="1.7,3 1.3,3 1.3,3.3 1,3.3 0.7,3.3 0.7,3 0.3,3 0.3,3.3 0,3.3 0,3.7 0.3,3.7 0.3,4 0.7,4 0.7,3.7 1,3.7 1,3.7 1.3,3.7 1.3,4 1.7,4 1.7,3.7 2,3.7 2,3.3 1.7,3.3 "></polygon>
<polygon points="4.7,3 4.3,3 4.3,3.3 4,3.3 4,3.7 4.3,3.7 4.3,4 4.7,4 4.7,3.7 5,3.7 5,3.3 4.7,3.3 "></polygon>
<polygon points="5.7,4 5.3,4 5.3,4.3 5,4.3 5,4.7 5.3,4.7 5.3,5 5.7,5 5.7,4.7 6,4.7 6,4.3 5.7,4.3 "></polygon>
<polygon points="3.7,5 3.3,5 3.3,5.3 3,5.3 2.7,5.3 2.7,5 2.3,5 2.3,5.3 2,5.3 2,5.7 2.3,5.7 2.3,6 2.7,6 2.7,5.7 3,5.7 3,5.7 3.3,5.7 3.3,6 3.7,6 3.7,5.7 4,5.7 4,5.3 3.7,5.3 "></polygon>
<polygon points="0.7,5 0.3,5 0.3,5.3 0,5.3 0,5.7 0.3,5.7 0.3,6 0.7,6 0.7,5.7 1,5.7 1,5.3 0.7,5.3 "></polygon></svg>