<svg width="38" height="38" viewBox="0 0 6 6" xmlns="http://www.w3.org/2000/svg"><polygon points="2.9,0.5 3,0.4 3,0 2.6,0 2.5,0.1 2.4,0 2,0 2,0.4 2.1,0.5 2,0.6 2,1 2.4,1 2.5,0.9 2.6,1 3,1 3,0.6"></polygon>
	<path d="M6,0H5.6L5.5,0.1L5.4,0H5H4.6L4.5,0.1L4.4,0H4v0.4l0.1,0.1L4,0.6V1H3.6L3.5,1.1L3.4,1H3v0.4l0.1,0.1L3,1.6V2 h0.4l0.1-0.1L3.6,2H4h0.4l0.1-0.1L4.6,2H5V1.6L4.9,1.5L5,1.4V1h0.4l0.1-0.1L5.6,1H6V0.6L5.9,0.5L6,0.4V0z M4,1.6L3.9,1.5L4,1.4 l0.1,0.1L4,1.6z M4.5,1.1L4.4,1l0.1-0.1L4.6,1L4.5,1.1z M5,0.6L4.9,0.5L5,0.4l0.1,0.1L5,0.6z"></path>
	<polygon points="2.5,2.1 2.4,2 2,2 2,2.4 2.1,2.5 2,2.6 2,3 2.4,3 2.5,2.9 2.6,3 3,3 3,2.6 2.9,2.5 3,2.4 3,2 2.6,2"></polygon>
	<path d="M0.5,1.9L0.6,2H1V1.6L0.9,1.5L1,1.4V1V0.6L0.9,0.5L1,0.4V0H0.6L0.5,0.1L0.4,0H0v0.4l0.1,0.1L0,0.6V1v0.4 l0.1,0.1L0,1.6V2h0.4L0.5,1.9z M0.5,0.9L0.6,1L0.5,1.1L0.4,1L0.5,0.9z"></path>
	<path d="M1.5,3.1L1.4,3H1H0.6L0.5,3.1L0.4,3H0v0.4l0.1,0.1L0,3.6V4h0.4l0.1-0.1L0.6,4H1h0.4l0.1-0.1L1.6,4H2V3.6 L1.9,3.5L2,3.4V3H1.6L1.5,3.1z M1,3.6L0.9,3.5L1,3.4l0.1,0.1L1,3.6z"></path>
	<polygon points="0.5,5.1 0.4,5 0,5 0,5.4 0.1,5.5 0,5.6 0,6 0.4,6 0.5,5.9 0.6,6 1,6 1,5.6 0.9,5.5 1,5.4 1,5 0.6,5"></polygon>
	<path d="M3.5,5.1L3.4,5H3H2.6L2.5,5.1L2.4,5H2v0.4l0.1,0.1L2,5.6V6h0.4l0.1-0.1L2.6,6H3h0.4l0.1-0.1L3.6,6H4V5.6 L3.9,5.5L4,5.4V5H3.6L3.5,5.1z M3,5.6L2.9,5.5L3,5.4l0.1,0.1L3,5.6z"></path>
	<polygon points="4.9,3.5 5,3.4 5,3 4.6,3 4.5,3.1 4.4,3 4,3 4,3.4 4.1,3.5 4,3.6 4,4 4.4,4 4.5,3.9 4.6,4 5,4 5,3.6"></polygon>
	<polygon points="5.5,4.1 5.4,4 5,4 5,4.4 5.1,4.5 5,4.6 5,5 5.4,5 5.5,4.9 5.6,5 6,5 6,4.6 5.9,4.5 6,4.4 6,4 5.6,4"></polygon></svg>