<svg width="38" height="38" viewBox="0 0 6 6" xmlns="http://www.w3.org/2000/svg"><rect x="0.1" y="0.1" transform="matrix(0.7071 -0.7071 0.7071 0.7071 -0.2075 0.4992)" width="0.7" height="0.7"></rect>
<rect x="0.1" y="1.1" transform="matrix(0.7071 -0.7071 0.7071 0.7071 -0.9146 0.7923)" width="0.7" height="0.7"></rect>
<rect x="2.1" y="0.1" transform="matrix(0.7071 -0.7071 0.7071 0.7071 0.3783 1.9134)" width="0.7" height="0.7"></rect>
<rect x="4.1" y="0.1" transform="matrix(0.7071 -0.7071 0.7071 0.7071 0.9641 3.3276)" width="0.7" height="0.7"></rect>
<rect x="5.1" y="0.1" transform="matrix(0.7071 -0.7071 0.7071 0.7071 1.257 4.0347)" width="0.7" height="0.7"></rect>
<rect x="4.1" y="1.1" transform="matrix(0.7071 -0.7071 0.7071 0.7071 0.257 3.6205)" width="0.7" height="0.7"></rect>
<rect x="3.1" y="1.1" transform="matrix(0.7071 -0.7071 0.7071 0.7071 -3.593460e-02 2.9134)" width="0.7" height="0.7"></rect>
<rect x="3.1" y="2.1" transform="matrix(0.7071 -0.7071 0.7071 0.7071 -0.743 3.2063)" width="0.7" height="0.7"></rect>
<rect x="2.1" y="2.1" transform="matrix(0.7071 -0.7071 0.7071 0.7071 -1.0359 2.4992)" width="0.7" height="0.7"></rect>
<rect x="1.1" y="3.1" transform="matrix(0.7071 -0.7071 0.7071 0.7071 -2.0359 2.0849)" width="0.7" height="0.7"></rect>
<rect x="0.1" y="3.1" transform="matrix(0.7071 -0.7071 0.7071 0.7071 -2.3287 1.3777)" width="0.7" height="0.7"></rect>
<rect x="0.1" y="5.1" transform="matrix(0.7071 -0.7071 0.7071 0.7071 -3.7428 1.9634)" width="0.7" height="0.7"></rect>
<rect x="2.1" y="5.1" transform="matrix(0.7071 -0.7071 0.7071 0.7071 -3.1573 3.3778)" width="0.7" height="0.7"></rect>
<rect x="3.1" y="5.1" transform="matrix(0.7071 -0.7071 0.7071 0.7071 -2.8644 4.0849)" width="0.7" height="0.7"></rect>
<rect x="5.1" y="4.1" transform="matrix(0.7071 -0.7071 0.7071 0.7071 -1.5715 5.2063)" width="0.7" height="0.7"></rect>
<rect x="4.1" y="3.1" transform="matrix(0.7071 -0.7071 0.7071 0.7071 -1.1573 4.2063)" width="0.7" height="0.7"></rect></svg>