<svg width="38" height="38" viewBox="0 0 6 6" xmlns="http://www.w3.org/2000/svg"><rect x="0.1" y="0.1" transform="matrix(0.9962 -8.720575e-02 8.720575e-02 0.9962 -4.170330e-02 4.550928e-02)" width="0.8" height="0.8"></rect>
<rect x="2.1" y="0.1" transform="matrix(6.981014e-02 -0.9976 0.9976 6.981014e-02 1.8266 2.9591)" width="0.8" height="0.8"></rect>
<rect x="4.1" y="0.1" transform="matrix(0.1045 -0.9945 0.9945 0.1045 3.5323 4.9232)" width="0.8" height="0.8"></rect>
<rect x="5.1" y="0.1" transform="matrix(0.9962 -8.713004e-02 8.713004e-02 0.9962 -2.265348e-02 0.4811)" width="0.8" height="0.8"></rect>
<rect x="4.1" y="1.1" transform="matrix(0.9986 -5.233859e-02 5.233859e-02 0.9986 -7.234332e-02 0.2376)" width="0.8" height="0.8"></rect>
<rect x="3.1" y="1.1" transform="matrix(0.1736 -0.9848 0.9848 0.1736 1.415 4.6864)" width="0.8" height="0.8"></rect>
<rect x="2.1" y="2.1" transform="matrix(0.9962 -8.720575e-02 8.720575e-02 0.9962 -0.2085 0.2275)" width="0.8" height="0.8"></rect>
<rect x="0.1" y="1.1" transform="matrix(5.233460e-02 -0.9986 0.9986 5.233460e-02 -1.0241 1.9209)" width="0.8" height="0.8"></rect>
<rect x="0.1" y="3.1" transform="matrix(0.9998 -1.747158e-02 1.747158e-02 0.9998 -6.107527e-02 9.270038e-03)" width="0.8" height="0.8"></rect>
<rect x="1.1" y="3.1" transform="matrix(3.486695e-02 -0.9994 0.9994 3.486695e-02 -2.0502 4.8771)" width="0.8" height="0.8"></rect>
<rect x="4.1" y="3.1" transform="matrix(0.1564 -0.9877 0.9877 0.1564 0.3392 7.3973)" width="0.8" height="0.8"></rect>
<rect x="5.1" y="4.1" transform="matrix(0.1045 -0.9945 0.9945 0.1045 0.4498 9.4996)" width="0.8" height="0.8"></rect>
<rect x="3.1" y="5.1" transform="matrix(0.9962 -8.720575e-02 8.720575e-02 0.9962 -0.4663 0.3262)" width="0.8" height="0.8"></rect>
<rect x="2.1" y="5.1" transform="matrix(8.719913e-02 -0.9962 0.9962 8.719913e-02 -3.1971 7.511)" width="0.8" height="0.8"></rect>
<rect x="0.1" y="5.1" transform="matrix(8.719913e-02 -0.9962 0.9962 8.719913e-02 -5.0227 5.5186)" width="0.8" height="0.8"></rect></svg>