<svg width="38" height="38" viewBox="0 0 6 6" xmlns="http://www.w3.org/2000/svg"><rect x="4.1" y="3.1" transform="matrix(0.7071 -0.7071 0.7071 0.7071 -1.1563 4.2076)" width="0.7" height="0.7"></rect>
<polygon points="1,1.5 1,1 1,1 2.5,1 3,0.5 2.5,0 0.5,0 0,0.5 0,1.5 0.5,2 "></polygon>
<path d="M3,2"></path>
<rect x="5.1" y="4.1" transform="matrix(0.7071 -0.7071 0.7071 0.7071 -1.5707 5.2069)" width="0.7" height="0.7"></rect>
<polygon points="0.5,3 0,3.5 0,5.5 0.5,6 1,5.5 1,4 2,4 2,5.5 2.5,6 4.5,6 5,5.5 4.5,5 3,5 3,3.5 2.5,3"></polygon>
<polygon points="5.5,0 4.5,0 4,0.5 4,1 3.5,1 3,1.5 3,2.5 3.5,3 4,2.5 4,2 4.5,2 5,1.5 5,1 5.5,1 6,0.5"></polygon></svg>