<svg width="38" height="38" viewBox="0 0 6 6" xmlns="http://www.w3.org/2000/svg"><path d="M0.5,0.9l1,0c0.2,0,0.4-0.2,0.4-0.4c0-0.2-0.2-0.4-0.4-0.4l-1,0c-0.2,0-0.4,0.2-0.4,0.4S0.3,0.9,0.5,0.9z"></path>
	<path d="M1.5,1.9l2,0c0.2,0,0.4-0.2,0.4-0.4c0-0.2-0.2-0.4-0.4-0.4l-2,0c-0.2,0-0.4,0.2-0.4,0.4S1.3,1.9,1.5,1.9z"></path>
	<path d="M3.5,0.9c0.2,0,0.4-0.2,0.4-0.4c0-0.2-0.2-0.4-0.4-0.4S3.1,0.3,3.1,0.5C3.1,0.7,3.3,0.9,3.5,0.9z"></path>
	<path d="M4.5,2.1l-3,0c-0.2,0-0.4,0.2-0.4,0.4s0.2,0.4,0.4,0.4l3,0c0.2,0,0.4-0.2,0.4-0.4S4.7,2.1,4.5,2.1z"></path>
	<path d="M1.9,3.5c0-0.2-0.2-0.4-0.4-0.4H0v0.8h1.5C1.7,3.9,1.9,3.7,1.9,3.5z"></path>
	<path d="M4.5,3.1c-0.2,0-0.4,0.2-0.4,0.4s0.2,0.4,0.4,0.4s0.4-0.2,0.4-0.4S4.7,3.1,4.5,3.1z"></path>
	<path d="M5.9,4.5c0-0.2-0.2-0.4-0.4-0.4l-1,0c-0.2,0-0.4,0.2-0.4,0.4s0.2,0.4,0.4,0.4l1,0C5.7,4.9,5.9,4.7,5.9,4.5z"></path>
	<path d="M3.5,4.1l-2,0c-0.2,0-0.4,0.2-0.4,0.4s0.2,0.4,0.4,0.4l2,0c0.2,0,0.4-0.2,0.4-0.4S3.7,4.1,3.5,4.1z"></path>
	<path d="M2.5,5.1l-2,0c-0.2,0-0.4,0.2-0.4,0.4c0,0.2,0.2,0.4,0.4,0.4l2,0c0.2,0,0.4-0.2,0.4-0.4S2.7,5.1,2.5,5.1z"></path>
	<path d="M6,0.1l-1.5,0c-0.2,0-0.4,0.2-0.4,0.4s0.2,0.4,0.4,0.4l1.5,0h0L6,0.1L6,0.1z"></path>
	<path d="M5.1,5.5c0,0.2,0.2,0.4,0.4,0.4H6V5.1H5.5C5.3,5.1,5.1,5.3,5.1,5.5z"></path></svg>