<svg width="38" height="38" viewBox="0 0 6 6" xmlns="http://www.w3.org/2000/svg"><path d="M2.5,3C2.8,3,3,2.8,3,2.5L3,2h1.5C4.8,2,5,1.8,5,1.5C5,1.2,4.8,1,4.5,1H4V0L2,0l0,2.5C2,2.8,2.2,3,2.5,3z M4,1 L4,1L4,1L4,1z"></path>
<path d="M5.5,3C5.2,3,5,3.2,5,3.5S5.2,4,5.5,4C5.8,4,6,3.8,6,3.5S5.8,3,5.5,3z"></path>
<path d="M0.5,1C0.8,1,1,0.8,1,0.5V0L0,0v0v0.5C0,0.8,0.2,1,0.5,1z"></path>
<path d="M4,4L4,4L3,4l0,0v0C2.4,4,2,4.4,2,5h0H1V2.5C1,2.2,0.8,2,0.5,2S0,2.2,0,2.5V5h0c0,0.6,0.4,1,1,1h2v0V5h1v0h0v1 l1,0V5h0C5,4.4,4.6,4,4,4z"></path></svg>