<?xml version="1.0" encoding="utf-8"?>
<!-- Generator: Adobe Illustrator 19.0.0, SVG Export Plug-In . SVG Version: 6.00 Build 0)  -->
<svg version="1.1" id="Layer_1" xmlns="http://www.w3.org/2000/svg" xmlns:xlink="http://www.w3.org/1999/xlink" x="0px" y="0px"
	 viewBox="-121 58 16 16" style="enable-background:new -121 58 16 16;" xml:space="preserve">
<style type="text/css">
	.st0{fill:#231F20;}
</style>
<path class="st0" d="M-113,59"/>
<path class="st0" d="M-108,59v13.4l-0.6-0.3l-0.4-0.2l-0.4,0.2l-1.6,0.8l-1.6-0.8l-0.4-0.2l-0.4,0.2l-1.6,0.8l-1.6-0.8l-0.4-0.2
	l-0.4,0.2l-0.6,0.3V59H-108 M-107,58h-12v16l2-1l2,1l2-1l2,1l2-1l2,1V58L-107,58z"/>
<g>
	<path class="st0" d="M-113.5,70.3v-1.2c-0.8,0-1.5-0.2-1.9-0.5l0.3-1.1c0.5,0.3,1.1,0.5,1.9,0.5c0.8,0,1.3-0.4,1.3-0.9
		c0-0.5-0.4-0.9-1.3-1.2c-1.3-0.5-2.1-1-2.1-2.1c0-1,0.7-1.8,1.9-2v-1.2h1v1.1c0.8,0,1.3,0.2,1.7,0.4l-0.3,1.1
		c-0.3-0.1-0.8-0.4-1.6-0.4c-0.8,0-1.1,0.4-1.1,0.8c0,0.5,0.4,0.8,1.5,1.2c1.3,0.5,1.9,1.2,1.9,2.2c0,1-0.7,1.9-2,2.1v1.2H-113.5z"
		/>
</g>
</svg>
