<?xml version="1.0" encoding="UTF-8"?>
<!DOCTYPE svg PUBLIC "-//W3C//DTD SVG 1.1//EN" "http://www.w3.org/Graphics/SVG/1.1/DTD/svg11.dtd">
<!-- Creator: CorelDRAW 2018 (64-Bit) -->
<svg xmlns="http://www.w3.org/2000/svg" xml:space="preserve" width="20px" height="16px" version="1.1" style="shape-rendering:geometricPrecision; text-rendering:geometricPrecision; image-rendering:optimizeQuality; fill-rule:evenodd; clip-rule:evenodd"
viewBox="0 0 22.89 20.83"
 xmlns:xlink="http://www.w3.org/1999/xlink">
 <defs>
  <style type="text/css">
   <![CDATA[
    .fil1 {fill:#098FE2}
    .fil0 {fill:white}
   ]]>
  </style>
 </defs>
 <g id="Layer_x0020_1">
  <metadata id="CorelCorpID_0Corel-Layer"/>
  <path class="fil0" d="M4.46 7.99c-0.12,-0.27 -0.18,-0.53 -0.19,-0.78 0.01,-0.08 0.01,-0.16 0.03,-0.23l0.05 -0.22c0.04,-0.13 0.1,-0.25 0.17,-0.37 0.07,-0.11 0.16,-0.22 0.26,-0.32 0.09,-0.1 0.2,-0.19 0.31,-0.26 0.11,-0.07 0.24,-0.14 0.37,-0.19 0.3,-0.12 0.63,-0.16 0.95,-0.11 0.29,0.04 0.58,0.16 0.83,0.38l4.12 3.97c3.31,-3.18 6.55,-6.43 9.91,-9.55l0.14 -0.1 0.15 -0.08 0.16 -0.05 0.17 -0.01c0.12,0 0.24,0.02 0.35,0.07 0.12,0.05 0.22,0.11 0.31,0.2 0.08,0.08 0.15,0.18 0.2,0.28 0.05,0.11 0.08,0.22 0.08,0.34l0 2.68c-3.32,3.26 -6.72,6.93 -10.12,10.02 -0.23,0.2 -0.45,0.36 -0.67,0.47 -0.21,0.12 -0.43,0.19 -0.64,0.21l-0.09 0.01c-0.19,-0.01 -0.39,-0.06 -0.6,-0.15 -0.2,-0.09 -0.41,-0.23 -0.62,-0.42l-5.12 -5.04c-0.23,-0.26 -0.4,-0.51 -0.51,-0.75z"/>
  <path class="fil1" d="M1.54 0.24l0 0.01 0.01 0.01 0.01 0.01 6.61 6.42 3.19 3.07 9.87 -9.5c0.09,-0.08 0.19,-0.15 0.31,-0.19 0.11,-0.05 0.23,-0.07 0.35,-0.07 0.26,0 0.52,0.11 0.7,0.29 0.18,0.17 0.3,0.41 0.3,0.67l0 2.59 0 0.12 0 15.46c0,0.94 -0.76,1.7 -1.7,1.7l-19.49 0c-0.94,0 -1.7,-0.76 -1.7,-1.7l0 -18.22 0 0c0,-0.5 0.41,-0.91 0.91,-0.91 0.24,0 0.46,0.09 0.63,0.24zm2.83 6.97c0.02,0.45 0.21,0.95 0.67,1.45l5.11 5.05c0.42,0.35 0.8,0.52 1.17,0.53 0.02,0 0.04,0 0.07,0 0.4,-0.04 0.8,-0.27 1.25,-0.66l10.08 -9.98 0 -2.64c0,-0.21 -0.09,-0.41 -0.24,-0.55 -0.16,-0.15 -0.37,-0.24 -0.59,-0.24 -0.1,0 -0.2,0.02 -0.29,0.05 -0.1,0.04 -0.18,0.1 -0.26,0.16 -3.36,3.12 -6.67,6.43 -9.98,9.62l-0.06 -0.06 -4.12 -3.97c-0.49,-0.43 -1.14,-0.47 -1.69,-0.25 -0.24,0.09 -0.46,0.24 -0.64,0.42 -0.18,0.18 -0.32,0.4 -0.4,0.65 -0.05,0.13 -0.07,0.27 -0.08,0.42z"/>
 </g>
</svg>
