<svg viewBox="0 0 54.04 56.25" xmlns="http://www.w3.org/2000/svg"><path d="M52.93 18.56v22.73L27.02 56.25V33.51z" fill="#f2b150"/><path d="M27.02 33.44l27.01-15.6-27.01-15.6L0 17.84z" fill="#ffeac9"/><path d="M53.61 17.66L27.02 2.31.42 17.66l26.6 15.36z" fill="#ffe0b3"/><path d="M38.9 9.07l4.59 2.65-8.22 4.72-7.79 2.6-3.95 4.18-7.17 4.14-4.59-2.65 7.69-4.45 7.34-2.1 4.55-4.76z" fill="#d25065"/><path d="M15.23 9.07l7.17 4.17 4.84 5.33 5.91.87 9.12 5.27-4.6 2.65-6.49-3.75-3.97-3.97-7.38-3.46-9.19-4.46z" fill="#d25065"/><path d="M12.11 24.51l4.59 2.65-.34.2-4.59-2.65zm29.81 0l.35.2-4.6 2.65-.34-.2z" fill="#dd6ca8"/><path d="M27.02 33.52v22.73L1.11 41.29V18.56z" fill="#ffca79"/><path d="M42.27 24.71v22.73l-4.6 2.65V27.36zm-25.91 2.65V50.1l-4.59-2.65V24.71z" fill="#d25065"/><path d="M54.03 17.84l-.11 8.66-26.9 15.54v-8.6z" fill="#f7b957"/><path d="M27.02 33.44v8.6L.11 26.5 0 17.84z" fill="#ffd180"/><path d="M42.86 24.36v8.53l-4.78 2.75v-8.53zm-26.91 2.75v8.54l-4.77-2.76v-8.54z" fill="#e7687e"/><path d="M35.05 13.89c5.12-2.1 6.61-7.63 5.71-10.25-.51-1.49-.48-1 .62-1.56 2 1.85 5.74 1.42 5.59 5.73-.13 3.48-2.45 7.72-5.47 9.46s-10.57-.2-10.57-.2l-4.27-2.52s5.09.69 8.39-.66z" fill="#d25065"/><path d="M36.65 2.22c1.58-.91 8.82 2 8.82 2a4.07 4.07 0 0 0-4 .43c-3 1.74-10.56 12.4-10.57 12.41l-4.27-2.52S33.63 4 36.65 2.22z" fill="#f499ac"/><path d="M34.93.83c1.59-.92 3-1 4-.31a59.38 59.38 0 0 0 6.64 3.76 4 4 0 0 0-4.33.19c-4.32 3.08-10.27 12.59-10.28 12.6l-4.27-2.52a54.78 54.78 0 0 0 3.92-6.19c1.57-2.95 2.94-6.74 4.32-7.53z" fill="#f17283"/><path d="M30.93 17.07h.12a30 30 0 0 0 6.81 1 7.67 7.67 0 0 0 3.69-.73 12.18 12.18 0 0 0 5.51-9.54 3.91 3.91 0 0 0-1.65-3.6 3.9 3.9 0 0 0-3.95.38C38.46 6.31 31.31 16.53 31 17zm.3-.11C32 15.84 38.75 6.35 41.55 4.74A4.88 4.88 0 0 1 43.94 4a2.77 2.77 0 0 1 1.38.35 3.77 3.77 0 0 1 1.56 3.46 12 12 0 0 1-5.42 9.38c-2.74 1.58-9.25.02-10.23-.19z" fill="#e7687e"/><path d="M37 .09l6.5 3.65a3.68 3.68 0 0 0-2.31.76 14.34 14.34 0 0 0-1.63 1.35l-5.9-3.61A3.89 3.89 0 0 1 37 .09z" fill="#f499ac"/><path d="M18.94 13.84c-5.12-2.1-6.61-7.63-5.71-10.25.51-1.49.48-1-.62-1.56C10.65 3.88 6.87 3.45 7 7.76c.13 3.48 2.45 7.72 5.47 9.46S23.06 17 23.06 17l4.27-2.51s-5.09.69-8.39-.65z" fill="#d25065"/><path d="M17.34 2.17c-1.58-.91-8.82 2-8.82 2a4.07 4.07 0 0 1 4 .43C15.5 6.35 23.05 17 23.06 17l4.27-2.51S20.36 3.91 17.34 2.17z" fill="#f499ac"/><path d="M19.06.77c-1.59-.91-3-1-4-.3a59.38 59.38 0 0 1-6.61 3.76 4 4 0 0 1 4.33.19C17.1 7.5 23.05 17 23.06 17l4.27-2.51a54.78 54.78 0 0 1-3.92-6.19c-1.59-2.94-2.97-6.73-4.35-7.53z" fill="#f17283"/><path d="M23 16.91c-.31-.43-7.46-10.65-10.46-12.38a3.9 3.9 0 0 0-3.95-.38 3.91 3.91 0 0 0-1.66 3.61 12.19 12.19 0 0 0 5.51 9.54 7.69 7.69 0 0 0 3.7.73 30 30 0 0 0 6.8-1h.12zm-10.46.23a12 12 0 0 1-5.42-9.38A3.76 3.76 0 0 1 8.67 4.3a2.77 2.77 0 0 1 1.38-.3 5 5 0 0 1 2.39.73C15.24 6.3 22 15.79 22.76 16.91c-.98.25-7.49 1.81-10.23.23z" fill="#e7687e"/><path d="M17 0l-6.5 3.65a3.68 3.68 0 0 1 2.31.76 14.19 14.19 0 0 1 1.59 1.38l5.9-3.6A3.89 3.89 0 0 0 17 0z" fill="#f499ac"/><path d="M30.46 19.41H25.2l-2-2.81 4.18-2.42a1 1 0 0 1 1 .07l1.57.91A3.56 3.56 0 0 1 31.37 18a1.3 1.3 0 0 1-.52 1.19z" fill="#e7687e"/><path d="M23.1 19.41a3.57 3.57 0 0 1-.43-1.63c0-1.08.66-1.58 1.48-1.12l1.57.91A3.3 3.3 0 0 1 27 19.41z" fill="#d25065"/><path d="M24.76 16.92l-.49-.29 4.01-2.3.56.32z" fill="#f499ac"/><path d="M22.77 16.92c-2.2 3-9 7.38-11.16 8.08 0 0-.3 9.09 5.93 5.63C20 29.25 27 19.36 27 19.36s-3.43-.93-4.23-2.44z" fill="#d25065"/><path d="M12.26 27.89a11.1 11.1 0 0 1 5-8.71c2.77-1.61 9.73.19 9.73.19l-3.91-2.15S14.77 15.09 12 16.7s-4.83 4.24-4.83 7.44c0 1.59 6.45 7 6.45 7h.09a3.55 3.55 0 0 1-1.45-3.25z" fill="#f499ac"/><path d="M12.06 27.38c.09-3.11 2.36-7.27 5.31-8.55 3.32-1.45 9.65.54 9.65.54l-4.25-2.45s-7.59-1.54-10.64-.52c-3.2 1.06-6.22 4.2-6.22 7.41 0 1.59.49 3.09 1.39 3.62l6.29 3.71h.09c-.87-.55-1.68-1.64-1.62-3.76z" fill="#f17283"/><path d="M15 31.57a2.69 2.69 0 0 1-1.35-.35 3.62 3.62 0 0 1-1.52-3.33 11.26 11.26 0 0 1 5.07-8.79c2.78-1.6 9.35.16 9.63.23h.12l-.07.11c-.28.39-6.83 9.8-9.59 11.4a4.68 4.68 0 0 1-2.29.73zm5.57-13a6.89 6.89 0 0 0-3.28.64 10.87 10.87 0 0 0-5 8.55A3.45 3.45 0 0 0 13.78 31a3.44 3.44 0 0 0 3.46-.36c2.58-1.48 8.73-10.1 9.46-11.15a27.44 27.44 0 0 0-6.09-.88z" fill="#e7687e"/><path d="M8.85 18.29l5.54 3.3a15.07 15.07 0 0 1 2.39-2.4l-4.89-2.71a9.36 9.36 0 0 0-3.04 1.81z" fill="#f499ac"/><path d="M31.24 16.92c2.2 3 9 7.38 11.16 8.08 0 0 .3 9.09-5.93 5.63C34 29.25 27 19.36 27 19.36s3.44-.93 4.24-2.44z" fill="#d25065"/><path d="M41.75 27.89a11.1 11.1 0 0 0-5-8.71c-2.78-1.61-9.73.19-9.73.19l3.91-2.15s8.31-2.13 11.07-.52 4.83 4.24 4.83 7.44c0 1.59-6.45 7-6.45 7h-.1a3.53 3.53 0 0 0 1.47-3.25z" fill="#f499ac"/><path d="M41.94 27.38c-.08-3.11-2.35-7.27-5.3-8.55-3.32-1.45-9.65.54-9.65.54l4.25-2.45s7.59-1.54 10.63-.52c3.21 1.06 6.23 4.2 6.23 7.41 0 1.59-.5 3.09-1.39 3.62l-6.31 3.73h-.1c.9-.57 1.7-1.66 1.64-3.78z" fill="#f17283"/><path d="M36.68 30.87c-2.77-1.6-9.31-11-9.59-11.4l-.09-.11h.12c.28-.07 6.85-1.83 9.62-.23a11.23 11.23 0 0 1 5.07 8.79 3.62 3.62 0 0 1-1.51 3.33 2.69 2.69 0 0 1-1.35.35 4.68 4.68 0 0 1-2.27-.73zm-9.38-11.4c.74 1.05 6.89 9.67 9.46 11.15a3.46 3.46 0 0 0 3.47.36 3.47 3.47 0 0 0 1.43-3.18 10.9 10.9 0 0 0-5-8.55 6.91 6.91 0 0 0-3.28-.64 27.67 27.67 0 0 0-6.08.86z" fill="#e7687e"/><path d="M45.16 18.29l-5.54 3.3a15.5 15.5 0 0 0-2.39-2.4l4.89-2.71a9.36 9.36 0 0 1 3.04 1.81z" fill="#f499ac"/></svg>