<svg enable-background="new 0 0 64 64" viewBox="0 0 64 64" xmlns="http://www.w3.org/2000/svg"><path d="m42 55h-39c-1.1 0-2-.9-2-2v-26c0-1.1.9-2 2-2h39z" fill="#ffd180"/><path d="m30.4 14.8-20.2-5.7c-.9-.3-1.9.2-2.2 1.1l-4.8 14.8h39.3l2-6.2z" fill="#f2b150"/><path d="m63 24.1-18.5-5.2-2 6.2h20.5z" fill="#d23b54"/><circle cx="27" cy="47" fill="#ff6161" r="1"/><circle cx="23" cy="41" fill="#ff6161" r="1"/><path d="m63 25h-21v30h21v-3l-2-3 2-3-2-3 2-3-2-3 2-3-2-3 2-3z" fill="#f17283"/><path d="m3 25c-1.1 0-2 .9-2 2v26c0 1.1.9 2 2 2h39v-7.3c-22.7-3.3-39-12.2-39-22.7z" fill="#f7b957"/><path d="m42 47.7v7.3h21v-3l-2-3c-6.4 0-12.7-.4-19-1.3z" fill="#d23b54"/><path d="m63 25h-2v3l-2 3 2 3-2 3 2 3-2 3 2 3-2 3 2 3v3h2v-3l-2-3 2-3-2-3 2-3-2-3 2-3-2-3 2-3z" fill="#d23b54"/><g fill="#2b2b37"><path d="m41.5 25h1v2h-1z"/><path d="m41.5 29h1v2h-1z"/><path d="m41.5 33h1v2h-1z"/><path d="m41.5 37h1v2h-1z"/><path d="m41.5 41h1v2h-1z"/><path d="m41.5 45h1v2h-1z"/><path d="m41.5 49h1v2h-1z"/><path d="m41.5 53h1v2h-1z"/></g><path d="m53.5 39h-3c-1.4 0-2.5-1.1-2.5-2.5s1.1-2.5 2.5-2.5h4.5c.6 0 1-.4 1-1s-.4-1-1-1h-2v-1c0-.6-.4-1-1-1s-1 .4-1 1v1h-.5c-2.5 0-4.5 2-4.5 4.5s2 4.5 4.5 4.5h3c1.4 0 2.5 1.1 2.5 2.5s-1.1 2.5-2.5 2.5h-4.5c-.6 0-1 .4-1 1s.4 1 1 1h2v1c0 .6.4 1 1 1s1-.4 1-1v-1h.5c2.5 0 4.5-2 4.5-4.5s-2-4.5-4.5-4.5z" fill="#fbfbfb"/><path d="m29 27.5h-3c-.2 0-.4.2-.5.4l-.6 2.6h-15.9c-.1 0-.3.1-.4.2s-.1.3-.1.4l2 10c0 .2.3.4.5.4h13c.8 0 1.5.7 1.5 1.5s-.7 1.5-1.5 1.5h-14c-.3 0-.5.2-.5.5v.6c-.8.3-1.2 1.1-.9 1.9s1.1 1.2 1.9.9 1.2-1.1.9-1.9c-.2-.4-.5-.8-.9-.9v-.1h12v.1c-.8.3-1.2 1.1-.9 1.9s1.1 1.2 1.9.9 1.2-1.1.9-1.9c-.2-.4-.5-.8-.9-.9v-.1h.5c1.4 0 2.5-1.1 2.5-2.5s-1.1-2.5-2.5-2.5h-.4l2.8-12h2.6c.3 0 .5-.2.5-.5s-.2-.5-.5-.5zm-19 20c-.3 0-.5-.2-.5-.5s.2-.5.5-.5.5.2.5.5-.2.5-.5.5zm13 0c-.3 0-.5-.2-.5-.5s.2-.5.5-.5.5.2.5.5-.2.5-.5.5zm-13.4-16h15.1l-.5 2h-12.2c-.3 0-.5.2-.5.5s.2.5.5.5h12l-.7 3h-11.3c-.3 0-.5.2-.5.5s.2.5.5.5h11.1l-.5 2h-11.2z" fill="#2b2b37"/><path d="m25 36c4.4 0 8 3.6 8 8s-3.6 8-8 8-8-3.6-8-8c0-.8.1-1.6.4-2.4.9-3.1 3.6-5.3 6.8-5.6z" fill="#2b2b37"/><circle cx="25" cy="44" fill="#ff6161" r="7"/><circle cx="27" cy="47" fill="#fbfbfb" r="1"/><circle cx="23" cy="41" fill="#fbfbfb" r="1"/><path d="m21 48.5c-.1 0-.3-.1-.4-.2-.2-.2-.2-.5 0-.7l8-8c.2-.2.5-.2.7 0s.2.5 0 .7l-8 8c0 .1-.2.2-.3.2z" fill="#fbfbfb"/><path d="m3.9 23-.6 2h9.7 12 1 16 .6l.6-2z" fill="#e69e2d"/><path d="m43.2 23-.6 2h20.4v-.9l-3.8-1.1z" fill="#c23b54"/><path d="m42.5 23.7.5-1.7 1 .3-.6 1.7z" fill="#222430"/><path d="m43.5 20.3.5-1.7 1 .3-.5 1.7z" fill="#222430"/><path d="m32.5 17.6-2.6-.8c-.2-.1-.4 0-.6.2l-1.2 2-14-4c-.1 0-.3 0-.4.1s-.2.2-.2.4l-1 9.5h1l.9-8.8 13.1 3.7-.9 1.4-10.7-3c-.3-.1-.6.1-.6.4-.1.3.1.6.4.6l10.4 3-1.2 1.8-10.1-2.6c-.3-.1-.6.1-.6.4-.1.3.1.6.4.6l9.4 2.5h1.6l4.3-7.1 2.3.6c.3.1.6-.1.6-.4s0-.5-.3-.5z" fill="#222430"/></svg>