<?xml version="1.0" encoding="UTF-8" standalone="no"?>
<!DOCTYPE svg PUBLIC "-//W3C//DTD SVG 1.1//EN" "http://www.w3.org/Graphics/SVG/1.1/DTD/svg11.dtd">
<svg width="100%" height="100%" viewBox="0 0 500 500" version="1.1" xmlns="http://www.w3.org/2000/svg" xmlns:xlink="http://www.w3.org/1999/xlink" xml:space="preserve" xmlns:serif="http://www.serif.com/" style="fill-rule:evenodd;clip-rule:evenodd;stroke-linejoin:round;stroke-miterlimit:2;">
    <g transform="matrix(0.750228,0,0,0.207492,314.685,80.4565)">
        <rect x="15.936" y="281.541" width="231.076" height="195.219"/>
    </g>
    <g transform="matrix(0.750228,0,0,0.207492,314.685,136.517)">
        <rect x="15.936" y="281.541" width="231.076" height="195.219"/>
    </g>
    <g transform="matrix(0.750228,0,0,0.207492,314.685,191.076)">
        <rect x="15.936" y="281.541" width="231.076" height="195.219"/>
    </g>
    <g transform="matrix(0.194088,0,0,0.207492,267.791,80.4565)">
        <rect x="15.936" y="281.541" width="231.076" height="195.219"/>
    </g>
    <g transform="matrix(0.194088,0,0,0.207492,267.791,136.517)">
        <rect x="15.936" y="281.541" width="231.076" height="195.219"/>
    </g>
    <g transform="matrix(0.194088,0,0,0.207492,267.791,191.076)">
        <rect x="15.936" y="281.541" width="231.076" height="195.219"/>
    </g>
    <g transform="matrix(0.750228,0,0,0.207492,314.685,245.076)">
        <rect x="15.936" y="281.541" width="231.076" height="195.219"/>
    </g>
    <g transform="matrix(0.194088,0,0,0.207492,267.791,245.076)">
        <rect x="15.936" y="281.541" width="231.076" height="195.219"/>
    </g>
</svg>
