<?xml version="1.0" encoding="UTF-8" standalone="no"?>
<!DOCTYPE svg PUBLIC "-//W3C//DTD SVG 1.1//EN" "http://www.w3.org/Graphics/SVG/1.1/DTD/svg11.dtd">
<svg width="100%" height="100%" viewBox="0 0 500 500" version="1.1" xmlns="http://www.w3.org/2000/svg" xmlns:xlink="http://www.w3.org/1999/xlink" xml:space="preserve" xmlns:serif="http://www.serif.com/" style="fill-rule:evenodd;clip-rule:evenodd;stroke-linejoin:round;stroke-miterlimit:2;">
    <g transform="matrix(0.392092,0,0,0.392092,-0.000784183,49.6827)">
        <path d="M396.34,295.413L396.34,153.968C485.48,102.4 573.882,50.831 661.549,0C750.689,51.568 839.091,103.137 926.758,153.968L926.758,276.995C936.335,271.838 945.175,266.681 954.016,261.524C970.96,251.947 987.167,241.633 1004.11,232.793C1007.06,231.32 1012.95,231.32 1016.63,233.53C1037.26,244.58 1057.15,256.367 1077.04,268.154C1111.67,288.045 1146.29,307.935 1180.92,328.563C1211.12,346.244 1242.06,363.924 1272.27,381.605C1273.74,382.342 1274.48,383.078 1275.21,384.552L1275.21,640.92C1187.55,691.752 1099.14,743.32 1010,794.888C968.75,771.314 928.232,747.74 886.241,723.429L886.241,867.82C797.838,918.652 710.172,970.22 620.296,1021.79C531.893,970.956 443.49,919.388 355.087,867.82L355.087,733.006C324.883,750.687 295.415,767.63 264.474,785.311C176.808,734.479 88.405,682.911 0.002,632.079L0.002,374.974C13.262,367.607 26.523,359.503 39.783,352.137C71.461,333.72 103.138,315.302 134.816,296.885C169.44,276.994 204.065,257.104 238.689,236.476C245.319,232.793 251.949,229.109 258.58,224.689C263,221.742 266.684,221.742 271.104,224.689C311.622,248.263 352.14,271.837 392.658,294.675C393.395,293.938 394.131,293.938 396.341,295.412L396.34,295.413ZM1013.69,538.521L1013.69,781.629C1098.4,732.271 1182.39,683.649 1266.37,635.028L1266.37,391.92C1181.65,441.278 1097.67,489.9 1013.69,538.521ZM877.399,618.82C792.68,668.178 707.96,716.8 624.714,765.421L624.714,1008.53C709.433,959.171 793.416,910.549 877.399,861.928L877.399,618.82ZM269.629,528.944L269.629,772.052C298.36,755.108 327.091,738.901 355.822,721.957L355.822,609.243C411.81,576.829 467.062,544.414 522.314,512.737L522.314,383.079C437.595,431.701 353.612,480.322 269.629,528.944ZM1141.13,455.275C1054.94,405.917 970.958,358.032 885.502,308.674C842.774,333.721 799.309,358.769 755.108,384.553C840.564,433.911 924.547,482.533 1008.53,531.891C1052.73,506.844 1096.2,481.796 1141.13,455.275ZM366.872,611.453C387.499,623.24 406.653,634.29 425.807,646.077C460.431,665.968 495.056,686.595 529.68,706.486C558.411,722.693 586.405,739.637 615.136,755.844C618.819,758.054 622.503,758.054 626.186,755.844C658.6,736.69 691.751,718.273 724.166,699.119C733.006,693.962 741.847,688.805 752.16,682.912C665.967,633.554 581.984,585.669 497.265,537.047C453.8,561.358 411.072,585.669 366.871,611.453L366.872,611.453ZM11.05,375.712C13.997,377.922 16.207,379.395 18.417,380.869C55.988,402.97 93.559,424.334 131.131,446.434C173.122,470.745 215.85,495.792 257.842,520.103C262.262,522.313 265.946,522.313 270.366,520.103C304.99,499.476 339.615,479.585 374.239,459.694C380.869,456.011 387.499,451.59 395.603,447.17C309.41,397.812 224.691,349.19 140.708,301.305C97.98,324.879 55.252,349.927 11.05,375.711L11.05,375.712ZM537.784,80.299C495.056,105.346 451.591,130.394 407.39,156.178C492.846,205.536 576.829,254.158 660.812,303.516C705.013,277.732 748.478,252.684 792.68,226.9C707.961,177.542 623.241,129.657 537.785,80.299L537.784,80.299ZM665.968,481.796C686.595,493.583 706.486,505.37 727.113,517.157C733.007,513.474 738.9,510.527 744.057,506.843L744.057,382.342C802.256,348.454 860.454,314.566 918.653,280.679L918.653,162.808C833.934,212.166 749.951,260.788 665.968,309.409L665.968,481.796ZM893.606,304.253C979.062,353.611 1063.78,401.496 1149.24,450.854C1186.81,428.753 1224.38,407.389 1263.42,384.552C1177.97,335.194 1093.99,285.835 1010,237.214C970.958,260.051 932.65,282.152 893.606,304.253ZM504.633,531.891C590.826,581.249 674.809,629.871 760.265,678.492C797.836,656.391 836.144,634.291 874.452,612.19C788.996,562.832 705.013,513.473 621.03,464.852C581.249,486.953 543.677,509.053 504.633,531.891ZM518.63,375.712C433.174,326.354 349.191,276.995 265.208,228.374C226.163,250.475 187.855,272.575 148.811,295.413C170.175,307.937 190.802,318.987 210.693,330.774C242.371,349.191 274.048,366.872 305.726,385.289C336.667,402.97 367.608,420.65 398.549,438.331C402.232,440.541 405.916,440.541 409.599,438.331C428.753,427.281 447.17,416.23 466.324,405.18C483.268,395.603 500.212,386.026 518.629,375.712L518.63,375.712ZM545.888,75.879C631.344,125.237 716.8,173.859 801.52,221.744C839.828,199.643 877.399,177.543 914.97,155.442C912.76,153.969 912.023,153.232 911.287,152.495C871.506,129.658 832.461,106.82 792.68,83.983C752.162,60.409 711.644,36.835 671.126,13.261C663.022,8.841 657.866,10.314 651.235,13.998C630.608,26.522 609.244,38.309 588.616,50.833C573.882,58.937 560.622,67.777 545.888,75.88L545.888,75.879ZM529.681,508.317C536.311,504.634 541.468,501.687 547.362,498.003C540.732,494.32 535.575,491.373 529.681,487.689L529.681,508.317ZM744.058,516.42C741.111,517.893 738.901,519.367 735.218,521.577C738.901,523.787 741.112,524.524 744.058,526.734L744.058,516.42Z" style="fill-rule:nonzero;"/>
    </g>
</svg>
