<?xml version="1.0" encoding="UTF-8" standalone="no"?>
<!DOCTYPE svg PUBLIC "-//W3C//DTD SVG 1.1//EN" "http://www.w3.org/Graphics/SVG/1.1/DTD/svg11.dtd">
<svg width="100%" height="100%" viewBox="0 0 500 500" version="1.1" xmlns="http://www.w3.org/2000/svg" xmlns:xlink="http://www.w3.org/1999/xlink" xml:space="preserve" xmlns:serif="http://www.serif.com/" style="fill-rule:evenodd;clip-rule:evenodd;stroke-linejoin:round;stroke-miterlimit:2;">
    <g transform="matrix(0.39605,0,0,0.39605,5.63346e-14,48.1948)">
        <path d="M1262.47,247.584L1262.47,248.987C1243.53,259.508 1224.59,270.729 1205.65,281.25C1164.98,304.395 1124.3,328.242 1083.62,351.387C1073.8,356.998 1063.98,362.609 1053.46,368.921C1122.19,408.899 1190.23,448.176 1259.66,488.855C1188.82,529.534 1119.39,570.214 1049.95,610.192L1049.95,772.91C1031.71,783.431 1014.18,793.951 996.647,803.77C949.655,831.123 901.962,858.477 854.97,886.532C817.797,908.274 780.625,930.017 743.452,951.759C708.384,972.099 674.016,992.438 638.948,1012.78C636.844,1014.18 636.143,1016.99 634.74,1019.09L627.025,1019.09C625.622,1016.99 625.622,1014.18 623.518,1012.78C620.011,1009.97 615.803,1007.87 612.296,1005.76C570.915,981.917 529.534,957.369 488.154,933.523C442.565,906.871 396.976,880.92 352.088,854.268C317.721,834.63 284.055,814.29 249.688,794.652C237.063,787.638 224.439,779.923 211.814,772.208L211.814,609.49C142.378,569.512 72.943,528.832 2.104,488.153C71.54,448.175 138.871,408.898 208.307,368.219C138.17,327.54 69.436,288.263 -0,248.285C2.104,246.882 2.805,245.48 4.208,244.778C30.86,229.348 56.811,213.918 83.463,199.189C143.079,164.822 202.696,130.455 262.312,95.386C310.005,68.033 356.997,40.679 404.69,12.624C411.002,9.117 416.613,4.909 422.224,0.701L425.029,0.701C426.432,2.104 427.133,4.208 429.237,4.909C455.889,20.339 482.541,35.769 509.193,51.199C547.768,73.643 586.344,95.385 624.919,117.829C629.127,119.933 631.933,120.634 636.141,117.829C659.286,104.503 681.73,91.177 704.875,77.851C746.957,53.303 789.741,29.456 831.823,4.909C833.927,3.506 834.628,2.104 836.733,-0.001L839.538,-0.001C840.941,1.402 842.343,3.506 844.448,4.207C883.023,26.651 921.599,49.095 960.174,71.539C1000.15,94.684 1040.13,117.829 1080.11,140.975C1127.1,168.328 1174.09,195.682 1221.08,223.035C1234.41,232.153 1248.44,239.868 1262.46,247.583L1262.47,247.584ZM814.29,499.375C852.865,476.931 891.441,454.487 930.016,432.043C942.641,425.029 954.564,418.016 966.487,411.002L966.487,297.38C914.586,327.539 863.386,357.698 811.484,387.155L811.484,498.673C812.185,499.374 813.588,499.374 814.289,499.374L814.29,499.375ZM1045.74,373.83C910.378,453.085 775.013,531.638 638.246,610.893C705.578,648.767 771.506,685.94 838.136,723.814C972.799,645.962 1108.16,568.11 1244.23,488.855C1177.6,449.578 1111.67,411.704 1045.74,373.83L1045.74,373.83ZM17.534,488.153C20.339,489.556 21.742,490.958 23.145,492.361C77.15,523.221 131.156,554.783 184.46,585.643C227.244,610.191 269.326,634.739 312.109,659.287C347.177,679.627 382.246,699.966 416.613,719.605C420.821,721.709 424.328,721.709 428.536,719.605C445.369,709.786 461.5,700.668 478.333,690.849C519.012,667.704 560.393,644.559 601.073,621.413C607.385,617.906 613.698,613.698 621.413,609.49C484.646,530.235 349.983,450.98 214.618,372.427C150.092,411.704 84.163,449.578 17.533,488.153L17.534,488.153ZM1045.74,364.712C1113.07,326.137 1179.7,287.561 1247.04,248.986C1110.27,169.731 974.202,90.476 838.136,11.923C771.506,50.498 705.577,88.372 638.246,126.948C685.238,154.301 731.528,180.953 777.117,207.606C787.638,201.294 797.457,195.683 807.276,190.072C862.684,222.335 918.092,254.598 973.501,287.562L973.501,322.63C998.75,336.657 1021.9,350.685 1045.74,364.712ZM838.137,732.23C770.104,693.655 702.773,655.781 635.441,617.907L635.441,1005.76C771.507,926.51 906.871,847.255 1042.24,768.702C1044.34,754.675 1042.94,623.518 1040.83,615.803C972.8,654.378 906.17,693.655 838.137,732.23ZM14.729,248.285C82.762,287.562 149.392,325.436 216.022,364.011C249.688,344.373 282.652,325.436 315.617,305.797L315.617,187.967C318.422,186.564 320.527,185.162 323.332,183.759C372.428,155.003 422.225,126.247 471.321,97.491C479.737,92.581 485.348,92.581 493.765,97.491C523.223,115.025 553.381,132.559 583.54,150.094C596.165,142.379 609.491,134.664 623.518,126.949C556.186,88.374 490.258,49.798 423.628,11.924C287.562,90.477 151.496,169.031 14.729,248.286L14.729,248.285ZM326.838,190.773C379.441,221.633 430.641,251.091 481.841,281.25C533.742,251.091 584.942,221.634 636.844,190.773C634.74,189.37 633.337,187.968 631.934,187.266C584.241,159.211 536.548,131.858 488.855,103.803C483.945,100.998 479.737,100.998 474.126,103.803C439.759,124.143 404.69,144.482 370.323,164.822C356.296,173.238 342.268,181.655 326.838,190.773ZM652.274,289.666C704.877,320.526 756.077,349.984 807.277,380.143C859.178,349.984 910.378,319.825 962.981,289.666C910.378,258.806 859.178,229.348 807.978,199.189C756.778,229.348 705.578,258.805 652.274,289.666ZM486.049,436.953C537.95,406.794 589.15,376.635 640.35,347.178L640.35,198.488C588.449,228.647 536.547,258.806 486.049,288.263L486.049,436.953ZM481.841,518.312C533.742,488.153 584.942,457.994 637.545,427.835C616.504,415.912 596.866,403.988 577.227,392.767C547.769,409.6 518.312,427.134 489.556,443.967C483.945,447.474 479.737,447.474 474.827,443.967C451.682,429.94 427.835,416.614 404.69,402.586C399.079,399.079 392.767,395.572 387.156,392.767C366.816,404.69 347.879,415.912 327.54,427.835C379.441,458.695 430.641,488.153 481.841,518.312ZM641.052,434.849C589.852,464.307 540.055,493.764 488.855,523.222C532.34,548.471 574.422,573.019 616.504,597.567C624.92,592.657 632.636,587.748 640.351,583.54C641.052,534.444 641.052,485.348 641.052,434.85L641.052,434.849ZM648.767,587.748C640.351,592.658 633.337,597.567 624.219,602.477C627.024,603.88 629.129,604.581 631.233,605.984C652.975,593.359 674.017,580.735 696.46,568.11C680.328,558.992 664.898,549.874 648.767,540.055L648.767,587.748Z" style="fill-rule:nonzero;"/>
    </g>
</svg>
