<svg width="269" height="242" viewBox="0 0 269 242" fill="none" xmlns="http://www.w3.org/2000/svg">
<g filter="url(#filter0_d)">
<path d="M255.842 51.9124L151.39 42.774C147.429 42.4274 143.936 45.3578 143.59 49.3191L132.173 179.816C131.826 183.777 134.757 187.269 138.718 187.616L243.17 196.754C247.131 197.101 250.623 194.17 250.97 190.209L262.387 59.7125C262.734 55.7512 259.803 52.2589 255.842 51.9124Z" fill="white"/>
<path d="M255.885 51.4143L151.433 42.2759C147.197 41.9053 143.462 45.0391 143.092 49.2755L131.675 179.772C131.304 184.008 134.438 187.743 138.674 188.114L243.126 197.252C247.363 197.623 251.097 194.489 251.468 190.253L262.885 59.7561C263.256 55.5197 260.122 51.7849 255.885 51.4143Z" stroke="#D5D7E9"/>
</g>
<path d="M153.202 68.3835C152.657 68.5556 152.199 68.9395 151.935 69.4464L152.29 69.6312C152.186 69.8299 152.119 70.0522 152.098 70.2906L152.013 71.2689L151.614 71.234L151.443 73.1906L151.842 73.2254L151.67 75.182L151.272 75.1471L151.101 77.1036L151.499 77.1385L151.328 79.095L150.93 79.0602L150.758 81.0167L151.157 81.0515L150.986 83.0081L150.587 82.9732L150.416 84.9297L150.815 84.9646L150.643 86.9211L150.245 86.8863L150.074 88.8428L150.472 88.8776L150.301 90.8342L149.903 90.7993L149.731 92.7558L150.13 92.7907L150.044 93.769C150.023 94.0074 150.051 94.238 150.118 94.4516L149.737 94.5721C149.909 95.1171 150.293 95.5747 150.8 95.8388L150.985 95.4841C151.184 95.5876 151.406 95.6548 151.644 95.6757L152.627 95.7617L152.592 96.1601L154.558 96.3321L154.593 95.9336L156.559 96.1056L156.524 96.5041L158.49 96.6761L158.524 96.2776L160.49 96.4496L160.455 96.8481L162.421 97.02L162.456 96.6216L164.422 96.7935L164.387 97.192L166.353 97.364L166.387 96.9655L168.353 97.1375L168.318 97.536L170.284 97.708L170.319 97.3095L172.285 97.4815L172.25 97.8799L174.216 98.0519L174.25 97.6535L176.216 97.8254L176.181 98.2239L178.147 98.3959L178.182 97.9974L180.148 98.1694L180.113 98.5679L182.079 98.7399L182.114 98.3414L184.079 98.5134L184.044 98.9118L186.01 99.0838L186.045 98.6853L188.011 98.8573L187.976 99.2558L189.942 99.4278L189.977 99.0293L191.942 99.2013L191.907 99.5998L193.873 99.7717L193.908 99.3733L195.874 99.5453L195.839 99.9437L197.805 100.116L197.84 99.7172L199.805 99.8892L199.771 100.288L201.736 100.46L201.771 100.061L203.737 100.233L203.702 100.632L205.668 100.804L205.703 100.405L207.668 100.577L207.634 100.976L209.599 101.148L209.634 100.749L211.6 100.921L211.565 101.32L213.531 101.492L213.566 101.093L215.531 101.265L215.497 101.664L217.462 101.836L217.497 101.437L219.463 101.609L219.428 102.008L221.394 102.179L221.429 101.781L223.395 101.953L223.36 102.351L225.325 102.523L225.36 102.125L227.326 102.297L227.291 102.695L229.257 102.867L229.292 102.469L231.258 102.641L231.223 103.039L233.189 103.211L233.223 102.813L235.189 102.985L235.154 103.383L237.12 103.555L237.155 103.157L239.121 103.329L239.086 103.727L241.052 103.899L241.086 103.501L243.052 103.673L243.017 104.071L244.983 104.243L245.018 103.845L246.001 103.931C246.239 103.952 246.47 103.924 246.683 103.857L246.804 104.238C247.349 104.066 247.807 103.682 248.071 103.175L247.716 102.99C247.819 102.792 247.887 102.569 247.908 102.331L247.993 101.353L248.392 101.387L248.563 99.431L248.164 99.3961L248.335 97.4396L248.734 97.4744L248.905 95.5179L248.507 95.483L248.678 93.5265L249.076 93.5614L249.247 91.6048L248.849 91.57L249.02 89.6135L249.419 89.6483L249.59 87.6918L249.191 87.6569L249.362 85.7004L249.761 85.7353L249.932 83.7787L249.534 83.7439L249.705 81.7874L250.103 81.8222L250.274 79.8657L249.876 79.8308L249.962 78.8526C249.982 78.6141 249.955 78.3836 249.887 78.1699L250.269 78.0495C250.097 77.5044 249.713 77.0469 249.206 76.7827L249.021 77.1375C248.822 77.0339 248.6 76.9667 248.362 76.9459L247.379 76.8599L247.414 76.4614L245.448 76.2894L245.413 76.6879L243.447 76.5159L243.482 76.1174L241.516 75.9455L241.482 76.3439L239.516 76.1719L239.551 75.7735L237.585 75.6015L237.55 76L235.584 75.828L235.619 75.4295L233.653 75.2575L233.618 75.656L231.653 75.484L231.688 75.0855L229.722 74.9136L229.687 75.312L227.721 75.1401L227.756 74.7416L225.79 74.5696L225.755 74.9681L223.79 74.7961L223.825 74.3976L221.859 74.2256L221.824 74.6241L219.858 74.4521L219.893 74.0537L217.927 73.8817L217.892 74.2801L215.927 74.1082L215.961 73.7097L213.996 73.5377L213.961 73.9362L211.995 73.7642L212.03 73.3657L210.064 73.1937L210.029 73.5922L208.064 73.4202L208.098 73.0218L206.133 72.8498L206.098 73.2483L204.132 73.0763L204.167 72.6778L202.201 72.5058L202.166 72.9043L200.201 72.7323L200.235 72.3338L198.27 72.1619L198.235 72.5603L196.269 72.3883L196.304 71.9899L194.338 71.8179L194.303 72.2164L192.337 72.0444L192.372 71.6459L190.407 71.4739L190.372 71.8724L188.406 71.7004L188.441 71.3019L186.475 71.13L186.44 71.5284L184.474 71.3565L184.509 70.958L182.544 70.786L182.509 71.1845L180.543 71.0125L180.578 70.614L178.612 70.442L178.577 70.8405L176.611 70.6685L176.646 70.2701L174.68 70.0981L174.646 70.4965L172.68 70.3246L172.715 69.9261L170.749 69.7541L170.714 70.1526L168.748 69.9806L168.783 69.5821L166.817 69.4101L166.783 69.8086L164.817 69.6366L164.852 69.2382L162.886 69.0662L162.851 69.4647L160.885 69.2927L160.92 68.8942L158.954 68.7222L158.919 69.1207L156.954 68.9487L156.989 68.5502L155.023 68.3782L154.988 68.7767L154.005 68.6907C153.767 68.6699 153.536 68.6975 153.322 68.7649L153.202 68.3835Z" fill="#FEFEFE" stroke="#C3C5DB" stroke-width="0.8" stroke-linejoin="round" stroke-dasharray="2 2"/>
<path d="M149.83 106.92C149.285 107.092 148.828 107.476 148.564 107.983L148.918 108.168C148.815 108.367 148.748 108.589 148.727 108.827L148.641 109.806L148.243 109.771L148.072 111.727L148.47 111.762L148.299 113.719L147.9 113.684L147.729 115.64L148.128 115.675L147.957 117.632L147.558 117.597L147.387 119.553L147.785 119.588L147.614 121.545L147.216 121.51L147.045 123.466L147.443 123.501L147.272 125.458L146.873 125.423L146.702 127.379L147.101 127.414L146.929 129.371L146.531 129.336L146.36 131.292L146.758 131.327L146.673 132.306C146.652 132.544 146.679 132.775 146.747 132.988L146.365 133.109C146.538 133.654 146.921 134.111 147.428 134.375L147.613 134.021C147.812 134.124 148.034 134.191 148.273 134.212L149.256 134.298L149.221 134.697L151.186 134.869L151.221 134.47L153.187 134.642L153.152 135.041L155.118 135.213L155.153 134.814L157.119 134.986L157.084 135.385L159.049 135.557L159.084 135.158L161.05 135.33L161.015 135.729L162.981 135.901L163.016 135.502L164.982 135.674L164.947 136.073L166.913 136.245L166.947 135.846L168.913 136.018L168.878 136.417L170.844 136.589L170.879 136.19L172.845 136.362L172.81 136.761L174.776 136.933L174.81 136.534L176.776 136.706L176.741 137.104L178.707 137.276L178.742 136.878L180.708 137.05L180.673 137.448L182.639 137.62L182.673 137.222L184.639 137.394L184.604 137.792L186.57 137.964L186.605 137.566L188.571 137.738L188.536 138.136L190.502 138.308L190.537 137.91L192.502 138.082L192.467 138.48L194.433 138.652L194.468 138.254L196.434 138.426L196.399 138.824L198.365 138.996L198.4 138.598L200.365 138.77L200.33 139.168L202.296 139.34L202.331 138.942L204.297 139.114L204.262 139.512L206.228 139.684L206.263 139.286L208.228 139.458L208.194 139.856L210.159 140.028L210.194 139.63L212.16 139.802L212.125 140.2L214.091 140.372L214.126 139.974L216.091 140.146L216.057 140.544L218.022 140.716L218.057 140.318L220.023 140.49L219.988 140.888L221.954 141.06L221.989 140.662L223.954 140.834L223.92 141.232L225.885 141.404L225.92 141.006L227.886 141.178L227.851 141.576L229.817 141.748L229.852 141.35L231.818 141.522L231.783 141.92L233.748 142.092L233.783 141.693L235.749 141.865L235.714 142.264L237.68 142.436L237.715 142.037L239.681 142.209L239.646 142.608L241.612 142.78L241.646 142.381L242.629 142.467C242.868 142.488 243.098 142.461 243.312 142.393L243.432 142.775C243.977 142.603 244.435 142.219 244.699 141.712L244.344 141.527C244.448 141.328 244.515 141.106 244.536 140.868L244.622 139.889L245.02 139.924L245.191 137.968L244.793 137.933L244.964 135.976L245.362 136.011L245.534 134.055L245.135 134.02L245.306 132.063L245.705 132.098L245.876 130.141L245.477 130.107L245.649 128.15L246.047 128.185L246.218 126.228L245.82 126.194L245.991 124.237L246.389 124.272L246.561 122.315L246.162 122.28L246.333 120.324L246.732 120.359L246.903 118.402L246.504 118.367L246.59 117.389C246.611 117.151 246.583 116.92 246.516 116.707L246.897 116.586C246.725 116.041 246.341 115.583 245.834 115.319L245.65 115.674C245.451 115.571 245.229 115.503 244.99 115.482L244.007 115.396L244.042 114.998L242.076 114.826L242.041 115.225L240.076 115.053L240.111 114.654L238.145 114.482L238.11 114.881L236.144 114.709L236.179 114.31L234.213 114.138L234.178 114.537L232.213 114.365L232.248 113.966L230.282 113.794L230.247 114.193L228.281 114.021L228.316 113.622L226.35 113.45L226.315 113.849L224.35 113.677L224.384 113.278L222.419 113.106L222.384 113.505L220.418 113.333L220.453 112.934L218.487 112.762L218.452 113.161L216.487 112.989L216.521 112.59L214.556 112.418L214.521 112.817L212.555 112.645L212.59 112.246L210.624 112.074L210.589 112.473L208.624 112.301L208.658 111.902L206.693 111.73L206.658 112.129L204.692 111.957L204.727 111.558L202.761 111.386L202.726 111.785L200.76 111.613L200.795 111.214L198.83 111.042L198.795 111.441L196.829 111.269L196.864 110.87L194.898 110.698L194.863 111.097L192.897 110.925L192.932 110.526L190.967 110.355L190.932 110.753L188.966 110.581L189.001 110.183L187.035 110.011L187 110.409L185.034 110.237L185.069 109.839L183.103 109.667L183.069 110.065L181.103 109.893L181.138 109.495L179.172 109.323L179.137 109.721L177.171 109.549L177.206 109.151L175.24 108.979L175.206 109.377L173.24 109.205L173.275 108.807L171.309 108.635L171.274 109.033L169.308 108.861L169.343 108.463L167.377 108.291L167.342 108.689L165.377 108.517L165.412 108.119L163.446 107.947L163.411 108.345L161.445 108.173L161.48 107.775L159.514 107.603L159.479 108.001L157.514 107.829L157.549 107.431L155.583 107.259L155.548 107.657L153.582 107.485L153.617 107.087L151.651 106.915L151.616 107.313L150.634 107.227C150.395 107.206 150.165 107.234 149.951 107.302L149.83 106.92Z" fill="#FEFEFE" stroke="#C3C5DB" stroke-width="0.8" stroke-linejoin="round" stroke-dasharray="2 2"/>
<path d="M146.459 145.457C145.914 145.629 145.456 146.013 145.192 146.52L145.547 146.704C145.443 146.903 145.376 147.125 145.355 147.364L145.27 148.342L144.871 148.307L144.7 150.264L145.098 150.299L144.927 152.255L144.529 152.22L144.358 154.177L144.756 154.212L144.585 156.168L144.186 156.133L144.015 158.09L144.414 158.125L144.243 160.081L143.844 160.046L143.673 162.003L144.071 162.038L143.9 163.994L143.502 163.96L143.331 165.916L143.729 165.951L143.558 167.907L143.159 167.873L142.988 169.829L143.387 169.864L143.301 170.842C143.28 171.081 143.308 171.311 143.375 171.525L142.994 171.645C143.166 172.19 143.55 172.648 144.057 172.912L144.242 172.557C144.44 172.661 144.663 172.728 144.901 172.749L145.884 172.835L145.849 173.233L147.815 173.405L147.85 173.007L149.815 173.179L149.781 173.577L151.746 173.749L151.781 173.351L153.747 173.523L153.712 173.921L155.678 174.093L155.713 173.695L157.679 173.867L157.644 174.265L159.609 174.437L159.644 174.039L161.61 174.211L161.575 174.609L163.541 174.781L163.576 174.383L165.542 174.555L165.507 174.953L167.472 175.125L167.507 174.727L169.473 174.899L169.438 175.297L171.404 175.469L171.439 175.071L173.405 175.243L173.37 175.641L175.336 175.813L175.37 175.415L177.336 175.587L177.301 175.985L179.267 176.157L179.302 175.759L181.268 175.931L181.233 176.329L183.199 176.501L183.233 176.103L185.199 176.275L185.164 176.673L187.13 176.845L187.165 176.447L189.131 176.618L189.096 177.017L191.062 177.189L191.096 176.79L193.062 176.962L193.027 177.361L194.993 177.533L195.028 177.134L196.994 177.306L196.959 177.705L198.925 177.877L198.96 177.478L200.925 177.65L200.89 178.049L202.856 178.221L202.891 177.822L204.857 177.994L204.822 178.393L206.788 178.565L206.823 178.166L208.788 178.338L208.753 178.737L210.719 178.909L210.754 178.51L212.72 178.682L212.685 179.081L214.651 179.253L214.686 178.854L216.651 179.026L216.617 179.425L218.582 179.597L218.617 179.198L220.583 179.37L220.548 179.769L222.514 179.941L222.549 179.542L224.514 179.714L224.48 180.113L226.445 180.285L226.48 179.886L228.446 180.058L228.411 180.457L230.377 180.629L230.412 180.23L232.378 180.402L232.343 180.801L234.308 180.973L234.343 180.574L236.309 180.746L236.274 181.145L238.24 181.317L238.275 180.918L239.258 181.004C239.496 181.025 239.727 180.997 239.94 180.93L240.061 181.311C240.606 181.139 241.063 180.755 241.327 180.248L240.973 180.064C241.076 179.865 241.143 179.643 241.164 179.404L241.25 178.426L241.648 178.461L241.82 176.504L241.421 176.469L241.592 174.513L241.991 174.548L242.162 172.591L241.763 172.556L241.935 170.6L242.333 170.635L242.504 168.678L242.106 168.643L242.277 166.687L242.675 166.722L242.847 164.765L242.448 164.73L242.619 162.774L243.018 162.809L243.189 160.852L242.79 160.817L242.962 158.861L243.36 158.895L243.531 156.939L243.133 156.904L243.218 155.926C243.239 155.687 243.212 155.457 243.144 155.243L243.526 155.123C243.354 154.578 242.97 154.12 242.463 153.856L242.278 154.211C242.079 154.107 241.857 154.04 241.619 154.019L240.636 153.933L240.67 153.535L238.705 153.363L238.67 153.761L236.704 153.589L236.739 153.191L234.773 153.019L234.738 153.417L232.773 153.245L232.807 152.847L230.842 152.675L230.807 153.073L228.841 152.901L228.876 152.503L226.91 152.331L226.875 152.729L224.91 152.557L224.944 152.159L222.979 151.987L222.944 152.385L220.978 152.213L221.013 151.815L219.047 151.643L219.012 152.041L217.046 151.869L217.081 151.471L215.116 151.299L215.081 151.697L213.115 151.525L213.15 151.127L211.184 150.955L211.149 151.353L209.183 151.181L209.218 150.783L207.253 150.611L207.218 151.009L205.252 150.837L205.287 150.439L203.321 150.267L203.286 150.665L201.32 150.493L201.355 150.095L199.389 149.923L199.355 150.322L197.389 150.15L197.424 149.751L195.458 149.579L195.423 149.978L193.457 149.806L193.492 149.407L191.526 149.235L191.492 149.634L189.526 149.462L189.561 149.063L187.595 148.891L187.56 149.29L185.594 149.118L185.629 148.719L183.663 148.547L183.629 148.946L181.663 148.774L181.698 148.375L179.732 148.203L179.697 148.602L177.731 148.43L177.766 148.031L175.8 147.859L175.765 148.258L173.8 148.086L173.835 147.687L171.869 147.515L171.834 147.914L169.868 147.742L169.903 147.343L167.937 147.171L167.902 147.57L165.937 147.398L165.972 146.999L164.006 146.827L163.971 147.226L162.005 147.054L162.04 146.655L160.074 146.483L160.039 146.882L158.074 146.71L158.108 146.311L156.143 146.139L156.108 146.538L154.142 146.366L154.177 145.967L152.211 145.795L152.176 146.194L150.211 146.022L150.245 145.623L148.28 145.451L148.245 145.85L147.262 145.764C147.023 145.743 146.793 145.771 146.579 145.838L146.459 145.457Z" fill="#FEFEFE" stroke="#C3C5DB" stroke-width="0.8" stroke-linejoin="round" stroke-dasharray="2 2"/>
<g filter="url(#filter1_d)">
<path d="M117.116 42.7951L12.6638 51.9335C8.70249 52.2801 5.77216 55.7723 6.11873 59.7336L17.5357 190.23C17.8823 194.191 21.3745 197.122 25.3358 196.775L129.788 187.637C133.749 187.29 136.679 183.798 136.333 179.837L124.916 49.3402C124.569 45.3789 121.077 42.4486 117.116 42.7951Z" fill="white"/>
<path d="M117.072 42.297L12.6202 51.4354C8.38382 51.8061 5.25 55.5408 5.62063 59.7772L17.0376 190.274C17.4082 194.51 21.143 197.644 25.3794 197.273L129.831 188.135C134.068 187.764 137.202 184.03 136.831 179.793L125.414 49.2966C125.043 45.0602 121.309 41.9264 117.072 42.297Z" stroke="#D5D7E9"/>
</g>
<path d="M18.8954 76.8391C18.3885 77.1032 18.0045 77.5607 17.8325 78.1058L18.2139 78.2262C18.1464 78.4399 18.1188 78.6704 18.1397 78.9089L18.2253 79.8872L17.8268 79.922L17.998 81.8786L18.3965 81.8437L18.5676 83.8002L18.1692 83.8351L18.3403 85.7916L18.7388 85.7568L18.91 87.7133L18.5115 87.7481L18.6827 89.7047L19.0812 89.6698L19.2523 91.6263L18.8539 91.6612L19.025 93.6177L19.4235 93.5829L19.5947 95.5394L19.1962 95.5742L19.3674 97.5308L19.7659 97.4959L19.937 99.4524L19.5386 99.4873L19.7097 101.444L20.1082 101.409L20.1938 102.387C20.2147 102.626 20.2819 102.848 20.3854 103.047L20.0307 103.231C20.2948 103.738 20.7523 104.122 21.2974 104.294L21.4178 103.913C21.6315 103.98 21.862 104.008 22.1005 103.987L23.0834 103.901L23.1182 104.3L25.084 104.128L25.0491 103.729L27.0149 103.557L27.0498 103.956L29.0155 103.784L28.9807 103.385L30.9464 103.213L30.9813 103.612L32.947 103.44L32.9122 103.041L34.8779 102.869L34.9128 103.268L36.8786 103.096L36.8437 102.697L38.8095 102.525L38.8443 102.924L40.8101 102.752L40.7752 102.353L42.741 102.181L42.7759 102.58L44.7416 102.408L44.7068 102.009L46.6725 101.837L46.7074 102.236L48.6731 102.064L48.6383 101.665L50.604 101.493L50.6389 101.892L52.6047 101.72L52.5698 101.321L54.5356 101.149L54.5704 101.548L56.5362 101.376L56.5013 100.977L58.4671 100.805L58.5019 101.204L60.4677 101.032L60.4328 100.633L62.3986 100.462L62.4335 100.86L64.3992 100.688L64.3644 100.29L66.3301 100.118L66.365 100.516L68.3308 100.344L68.2959 99.9456L70.2617 99.7736L70.2965 100.172L72.2623 100L72.2274 99.6016L74.1932 99.4296L74.228 99.8281L76.1938 99.6561L76.1589 99.2576L78.1247 99.0857L78.1596 99.4841L80.1253 99.3121L80.0905 98.9137L82.0562 98.7417L82.0911 99.1402L84.0569 98.9682L84.022 98.5697L85.9878 98.3977L86.0226 98.7962L87.9884 98.6242L87.9535 98.2257L89.9193 98.0538L89.9541 98.4522L91.9199 98.2803L91.8851 97.8818L93.8508 97.7098L93.8857 98.1083L95.8514 97.9363L95.8166 97.5378L97.7823 97.3658L97.8172 97.7643L99.783 97.5923L99.7481 97.1938L101.714 97.0219L101.749 97.4203L103.715 97.2484L103.68 96.8499L105.645 96.6779L105.68 97.0764L107.646 96.9044L107.611 96.5059L109.577 96.3339L109.612 96.7324L111.578 96.5604L111.543 96.162L113.508 95.99L113.543 96.3885L115.509 96.2165L115.474 95.818L116.457 95.732C116.696 95.7111 116.918 95.6439 117.116 95.5404L117.301 95.8951C117.808 95.631 118.192 95.1735 118.364 94.6284L117.983 94.508C118.05 94.2943 118.078 94.0638 118.057 93.8253L117.971 92.847L118.37 92.8122L118.199 90.8557L117.8 90.8905L117.629 88.934L118.028 88.8991L117.856 86.9426L117.458 86.9775L117.287 85.0209L117.685 84.9861L117.514 83.0296L117.116 83.0644L116.944 81.1079L117.343 81.073L117.172 79.1165L116.773 79.1514L116.602 77.1948L117 77.16L116.829 75.2034L116.431 75.2383L116.26 73.2818L116.658 73.2469L116.487 71.2904L116.088 71.3253L116.003 70.347C115.982 70.1085 115.915 69.8863 115.811 69.6876L116.166 69.5027C115.902 68.9958 115.444 68.6119 114.899 68.4398L114.779 68.8213C114.565 68.7538 114.335 68.7262 114.096 68.7471L113.113 68.8331L113.078 68.4346L111.113 68.6066L111.148 69.0051L109.182 69.177L109.147 68.7786L107.181 68.9505L107.216 69.349L105.25 69.521L105.215 69.1225L103.25 69.2945L103.285 69.693L101.319 69.865L101.284 69.4665L99.3181 69.6385L99.353 70.0369L97.3872 70.2089L97.3524 69.8105L95.3866 69.9824L95.4215 70.3809L93.4557 70.5529L93.4208 70.1544L91.4551 70.3264L91.4899 70.7249L89.5242 70.8969L89.4893 70.4984L87.5236 70.6704L87.5584 71.0688L85.5926 71.2408L85.5578 70.8423L83.592 71.0143L83.6269 71.4128L81.6611 71.5848L81.6263 71.1863L79.6605 71.3583L79.6954 71.7568L77.7296 71.9287L77.6947 71.5303L75.729 71.7023L75.7638 72.1007L73.7981 72.2727L73.7632 71.8742L71.7975 72.0462L71.8323 72.4447L69.8666 72.6167L69.8317 72.2182L67.8659 72.3902L67.9008 72.7887L65.935 72.9606L65.9002 72.5622L63.9344 72.7341L63.9693 73.1326L62.0035 73.3046L61.9686 72.9061L60.0029 73.0781L60.0378 73.4766L58.072 73.6486L58.0371 73.2501L56.0714 73.4221L56.1062 73.8205L54.1405 73.9925L54.1056 73.5941L52.1398 73.766L52.1747 74.1645L50.2089 74.3365L50.1741 73.938L48.2083 74.11L48.2432 74.5085L46.2774 74.6805L46.2425 74.282L44.2768 74.454L44.3116 74.8524L42.3459 75.0244L42.311 74.6259L40.3452 74.7979L40.3801 75.1964L38.4143 75.3684L38.3795 74.9699L36.4137 75.1419L36.4486 75.5404L34.4828 75.7124L34.448 75.3139L32.4822 75.4859L32.517 75.8843L30.5513 76.0563L30.5164 75.6578L28.5507 75.8298L28.5855 76.2283L26.6198 76.4003L26.5849 76.0018L24.6191 76.1738L24.654 76.5723L22.6882 76.7442L22.6534 76.3458L20.6876 76.5177L20.7225 76.9162L19.7396 77.0022C19.5012 77.0231 19.2789 77.0903 19.0802 77.1938L18.8954 76.8391Z" fill="#FEFEFE" stroke="#C3C5DB" stroke-width="0.8" stroke-linejoin="round" stroke-dasharray="2 2"/>
<path d="M22.267 115.376C21.7601 115.64 21.3761 116.097 21.204 116.642L21.5855 116.763C21.518 116.977 21.4904 117.207 21.5113 117.446L21.5969 118.424L21.1984 118.459L21.3696 120.415L21.7681 120.38L21.9392 122.337L21.5408 122.372L21.7119 124.328L22.1104 124.293L22.2816 126.25L21.8831 126.285L22.0543 128.241L22.4528 128.206L22.6239 130.163L22.2254 130.198L22.3966 132.154L22.7951 132.119L22.9663 134.076L22.5678 134.111L22.739 136.067L23.1374 136.033L23.3086 137.989L22.9101 138.024L23.0813 139.98L23.4798 139.946L23.5654 140.924C23.5862 141.162 23.6534 141.385 23.757 141.583L23.4022 141.768C23.6664 142.275 24.1239 142.659 24.669 142.831L24.7894 142.45C25.0031 142.517 25.2336 142.545 25.4721 142.524L26.455 142.438L26.4898 142.836L28.4556 142.664L28.4207 142.266L30.3865 142.094L30.4213 142.492L32.3871 142.32L32.3522 141.922L34.318 141.75L34.3529 142.148L36.3186 141.976L36.2838 141.578L38.2495 141.406L38.2844 141.804L40.2502 141.632L40.2153 141.234L42.1811 141.062L42.2159 141.46L44.1817 141.288L44.1468 140.89L46.1126 140.718L46.1474 141.116L48.1132 140.944L48.0783 140.546L50.0441 140.374L50.079 140.772L52.0447 140.6L52.0099 140.202L53.9756 140.03L54.0105 140.428L55.9762 140.257L55.9414 139.858L57.9071 139.686L57.942 140.085L59.9078 139.913L59.8729 139.514L61.8387 139.342L61.8735 139.741L63.8393 139.569L63.8044 139.17L65.7702 138.998L65.8051 139.397L67.7708 139.225L67.736 138.826L69.7017 138.654L69.7366 139.053L71.7023 138.881L71.6675 138.482L73.6332 138.31L73.6681 138.709L75.6339 138.537L75.599 138.138L77.5648 137.966L77.5996 138.365L79.5654 138.193L79.5305 137.794L81.4963 137.622L81.5312 138.021L83.4969 137.849L83.4621 137.45L85.4278 137.278L85.4627 137.677L87.4284 137.505L87.3936 137.106L89.3593 136.934L89.3942 137.333L91.36 137.161L91.3251 136.762L93.2909 136.59L93.3257 136.989L95.2915 136.817L95.2566 136.418L97.2224 136.246L97.2573 136.645L99.223 136.473L99.1882 136.074L101.154 135.902L101.189 136.301L103.155 136.129L103.12 135.73L105.085 135.558L105.12 135.957L107.086 135.785L107.051 135.387L109.017 135.215L109.052 135.613L111.018 135.441L110.983 135.043L112.949 134.871L112.983 135.269L114.949 135.097L114.914 134.699L116.88 134.527L116.915 134.925L118.881 134.753L118.846 134.355L119.829 134.269C120.067 134.248 120.289 134.181 120.488 134.077L120.673 134.432C121.18 134.168 121.564 133.71 121.736 133.165L121.354 133.045C121.422 132.831 121.449 132.6 121.429 132.362L121.343 131.384L121.741 131.349L121.57 129.392L121.172 129.427L121.001 127.471L121.399 127.436L121.228 125.479L120.829 125.514L120.658 123.558L121.057 123.523L120.886 121.566L120.487 121.601L120.316 119.645L120.714 119.61L120.543 117.653L120.145 117.688L119.974 115.731L120.372 115.697L120.201 113.74L119.802 113.775L119.631 111.818L120.03 111.784L119.859 109.827L119.46 109.862L119.374 108.884C119.354 108.645 119.286 108.423 119.183 108.224L119.538 108.039C119.273 107.532 118.816 107.149 118.271 106.976L118.15 107.358C117.937 107.29 117.706 107.263 117.468 107.284L116.485 107.37L116.45 106.971L114.484 107.143L114.519 107.542L112.553 107.714L112.519 107.315L110.553 107.487L110.588 107.886L108.622 108.058L108.587 107.659L106.621 107.831L106.656 108.23L104.69 108.402L104.655 108.003L102.69 108.175L102.725 108.574L100.759 108.746L100.724 108.347L98.7582 108.519L98.793 108.918L96.8273 109.09L96.7924 108.691L94.8267 108.863L94.8615 109.261L92.8958 109.433L92.8609 109.035L90.8951 109.207L90.93 109.605L88.9642 109.777L88.9294 109.379L86.9636 109.551L86.9985 109.949L85.0327 110.121L84.9978 109.723L83.0321 109.895L83.0669 110.293L81.1012 110.465L81.0663 110.067L79.1006 110.239L79.1354 110.637L77.1697 110.809L77.1348 110.411L75.169 110.583L75.2039 110.981L73.2381 111.153L73.2033 110.755L71.2375 110.927L71.2724 111.325L69.3066 111.497L69.2718 111.099L67.306 111.271L67.3409 111.669L65.3751 111.841L65.3402 111.443L63.3745 111.615L63.4093 112.013L61.4436 112.185L61.4087 111.787L59.4429 111.959L59.4778 112.357L57.512 112.529L57.4772 112.131L55.5114 112.303L55.5463 112.701L53.5805 112.873L53.5457 112.475L51.5799 112.647L51.6148 113.045L49.649 113.217L49.6141 112.819L47.6484 112.991L47.6832 113.389L45.7175 113.561L45.6826 113.163L43.7168 113.335L43.7517 113.733L41.7859 113.905L41.7511 113.507L39.7853 113.679L39.8202 114.077L37.8544 114.249L37.8195 113.85L35.8538 114.022L35.8886 114.421L33.9229 114.593L33.888 114.194L31.9222 114.366L31.9571 114.765L29.9913 114.937L29.9565 114.538L27.9907 114.71L28.0256 115.109L26.0598 115.281L26.0249 114.882L24.0592 115.054L24.094 115.453L23.1112 115.539C22.8727 115.56 22.6505 115.627 22.4518 115.73L22.267 115.376Z" fill="#FEFEFE" stroke="#C3C5DB" stroke-width="0.8" stroke-linejoin="round" stroke-dasharray="2 2"/>
<path d="M25.6385 153.913C25.1316 154.177 24.7477 154.634 24.5756 155.18L24.9571 155.3C24.8896 155.514 24.862 155.744 24.8829 155.983L24.9685 156.961L24.57 156.996L24.7412 158.952L25.1396 158.917L25.3108 160.874L24.9123 160.909L25.0835 162.865L25.482 162.83L25.6532 164.787L25.2547 164.822L25.4259 166.778L25.8243 166.744L25.9955 168.7L25.597 168.735L25.7682 170.691L26.1667 170.657L26.3379 172.613L25.9394 172.648L26.1106 174.605L26.509 174.57L26.6802 176.526L26.2817 176.561L26.4529 178.518L26.8514 178.483L26.937 179.461C26.9578 179.699 27.025 179.922 27.1286 180.12L26.7738 180.305C27.038 180.812 27.4955 181.196 28.0406 181.368L28.161 180.987C28.3747 181.054 28.6052 181.082 28.8437 181.061L29.8265 180.975L29.8614 181.373L31.8272 181.201L31.7923 180.803L33.7581 180.631L33.7929 181.029L35.7587 180.857L35.7238 180.459L37.6896 180.287L37.7245 180.685L39.6902 180.513L39.6554 180.115L41.6211 179.943L41.656 180.341L43.6217 180.169L43.5869 179.771L45.5526 179.599L45.5875 179.997L47.5533 179.826L47.5184 179.427L49.4842 179.255L49.519 179.654L51.4848 179.482L51.4499 179.083L53.4157 178.911L53.4505 179.31L55.4163 179.138L55.3814 178.739L57.3472 178.567L57.3821 178.966L59.3478 178.794L59.313 178.395L61.2787 178.223L61.3136 178.622L63.2794 178.45L63.2445 178.051L65.2103 177.879L65.2451 178.278L67.2109 178.106L67.176 177.707L69.1418 177.535L69.1766 177.934L71.1424 177.762L71.1075 177.363L73.0733 177.191L73.1082 177.59L75.0739 177.418L75.0391 177.019L77.0048 176.847L77.0397 177.246L79.0054 177.074L78.9706 176.675L80.9363 176.503L80.9712 176.902L82.937 176.73L82.9021 176.331L84.8679 176.159L84.9027 176.558L86.8685 176.386L86.8336 175.987L88.7994 175.815L88.8343 176.214L90.8 176.042L90.7652 175.643L92.7309 175.471L92.7658 175.87L94.7315 175.698L94.6967 175.299L96.6625 175.127L96.6973 175.526L98.6631 175.354L98.6282 174.956L100.594 174.784L100.629 175.182L102.595 175.01L102.56 174.612L104.526 174.44L104.56 174.838L106.526 174.666L106.491 174.268L108.457 174.096L108.492 174.494L110.458 174.322L110.423 173.924L112.389 173.752L112.423 174.15L114.389 173.978L114.354 173.58L116.32 173.408L116.355 173.806L118.321 173.634L118.286 173.236L120.252 173.064L120.286 173.462L122.252 173.29L122.217 172.892L123.2 172.806C123.439 172.785 123.661 172.718 123.86 172.614L124.044 172.969C124.551 172.705 124.935 172.247 125.107 171.702L124.726 171.582C124.793 171.368 124.821 171.138 124.8 170.899L124.715 169.921L125.113 169.886L124.942 167.929L124.543 167.964L124.372 166.008L124.771 165.973L124.6 164.016L124.201 164.051L124.03 162.095L124.428 162.06L124.257 160.103L123.859 160.138L123.688 158.182L124.086 158.147L123.915 156.19L123.516 156.225L123.345 154.269L123.744 154.234L123.572 152.277L123.174 152.312L123.003 150.356L123.401 150.321L123.23 148.364L122.832 148.399L122.746 147.421C122.725 147.182 122.658 146.96 122.554 146.761L122.909 146.576C122.645 146.07 122.188 145.686 121.642 145.514L121.522 145.895C121.308 145.828 121.078 145.8 120.839 145.821L119.856 145.907L119.822 145.508L117.856 145.68L117.891 146.079L115.925 146.251L115.89 145.852L113.924 146.024L113.959 146.423L111.993 146.595L111.959 146.196L109.993 146.368L110.028 146.767L108.062 146.939L108.027 146.54L106.061 146.712L106.096 147.111L104.13 147.283L104.096 146.884L102.13 147.056L102.165 147.455L100.199 147.627L100.164 147.228L98.1982 147.4L98.2331 147.799L96.2673 147.971L96.2325 147.572L94.2667 147.744L94.3016 148.143L92.3358 148.315L92.3009 147.916L90.3352 148.088L90.3701 148.487L88.4043 148.659L88.3694 148.26L86.4037 148.432L86.4385 148.83L84.4728 149.002L84.4379 148.604L82.4721 148.776L82.507 149.174L80.5412 149.346L80.5064 148.948L78.5406 149.12L78.5755 149.518L76.6097 149.69L76.5749 149.292L74.6091 149.464L74.644 149.862L72.6782 150.034L72.6433 149.636L70.6776 149.808L70.7124 150.206L68.7467 150.378L68.7118 149.98L66.7461 150.152L66.7809 150.55L64.8151 150.722L64.7803 150.324L62.8145 150.496L62.8494 150.894L60.8836 151.066L60.8488 150.668L58.883 150.84L58.9179 151.238L56.9521 151.41L56.9172 151.012L54.9515 151.184L54.9863 151.582L53.0206 151.754L52.9857 151.356L51.0199 151.528L51.0548 151.926L49.089 152.098L49.0542 151.7L47.0884 151.872L47.1233 152.27L45.1575 152.442L45.1226 152.044L43.1569 152.216L43.1917 152.614L41.226 152.786L41.1911 152.388L39.2253 152.56L39.2602 152.958L37.2944 153.13L37.2596 152.732L35.2938 152.904L35.3287 153.302L33.3629 153.474L33.3281 153.076L31.3623 153.248L31.3971 153.646L29.4314 153.818L29.3965 153.419L27.4308 153.591L27.4656 153.99L26.4828 154.076C26.2443 154.097 26.0221 154.164 25.8234 154.268L25.6385 153.913Z" fill="#FEFEFE" stroke="#C3C5DB" stroke-width="0.8" stroke-linejoin="round" stroke-dasharray="2 2"/>
<path fill-rule="evenodd" clip-rule="evenodd" d="M83.6309 41.6736C83.6309 37.7036 86.8279 34.8236 90.7949 35.2456L194.438 46.2816L202.883 47.8856V185.276C202.883 189.251 199.65 192.472 196.057 192.472L150.443 184.432H118.441L90.7179 189.347C86.8039 190.042 83.6309 187.379 83.6309 183.413V41.6726V41.6736Z" fill="#1A207F" fill-opacity="0.02"/>
<g filter="url(#filter2_d)">
<path d="M187.051 31.4868H82.2C78.2235 31.4868 75 34.7104 75 38.6868V182.277C75 186.253 78.2235 189.477 82.2 189.477H187.051C191.027 189.477 194.251 186.253 194.251 182.277V38.6868C194.251 34.7104 191.027 31.4868 187.051 31.4868Z" fill="white"/>
<path d="M187.051 30.9868H82.2C77.9474 30.9868 74.5 34.4342 74.5 38.6868V182.277C74.5 186.529 77.9474 189.977 82.2 189.977H187.051C191.304 189.977 194.751 186.529 194.751 182.277V38.6868C194.751 34.4342 191.304 30.9868 187.051 30.9868Z" stroke="#D5D7E9"/>
</g>
<path d="M85.8652 56.8407C85.3372 57.0596 84.9148 57.4819 84.6959 58.0099L84.973 58.1249C84.8822 58.3437 84.832 58.584 84.832 58.8368V59.8188H84.532V61.7828H84.832V63.7468H84.532V65.7108H84.832V67.6748H84.532V69.6388H84.832V71.6028H84.532V73.5668H84.832V75.5308H84.532V77.4948H84.832V79.4588H84.532V81.4228H84.832V82.4048C84.832 82.6575 84.8822 82.8978 84.973 83.1167L84.6959 83.2316C84.9148 83.7596 85.3372 84.1819 85.8652 84.4009L85.9801 84.1237C86.199 84.2145 86.4392 84.2648 86.692 84.2648H87.6786V84.5648H89.6519V84.2648H91.6252V84.5648H93.5984V84.2648H95.5717V84.5648H97.545V84.2648H99.5182V84.5648H101.492V84.2648H103.465V84.5648H105.438V84.2648H107.411V84.5648H109.385V84.2648H111.358V84.5648H113.331V84.2648H115.304V84.5648H117.278V84.2648H119.251V84.5648H121.224V84.2648H123.197V84.5648H125.171V84.2648H127.144V84.5648H129.117V84.2648H131.091V84.5648H133.064V84.2648H135.037V84.5648H137.01V84.2648H138.984V84.5648H140.957V84.2648H142.93V84.5648H144.903V84.2648H146.877V84.5648H148.85V84.2648H150.823V84.5648H152.797V84.2648H154.77V84.5648H156.743V84.2648H158.716V84.5648H160.69V84.2648H162.663V84.5648H164.636V84.2648H166.609V84.5648H168.583V84.2648H170.556V84.5648H172.529V84.2648H174.503V84.5648H176.476V84.2648H178.449V84.5648H180.422V84.2648H181.409C181.662 84.2648 181.902 84.2145 182.121 84.1237L182.236 84.4009C182.764 84.1819 183.186 83.7596 183.405 83.2316L183.128 83.1167C183.219 82.8978 183.269 82.6575 183.269 82.4048V81.4228H183.569V79.4588H183.269V77.4948H183.569V75.5308H183.269V73.5668H183.569V71.6028H183.269V69.6388H183.569V67.6748H183.269V65.7108H183.569V63.7468H183.269V61.7828H183.569V59.8188H183.269V58.8368C183.269 58.584 183.219 58.3437 183.128 58.1249L183.405 58.0099C183.186 57.4819 182.764 57.0596 182.236 56.8407L182.121 57.1178C181.902 57.027 181.662 56.9768 181.409 56.9768H180.422V56.6768H178.449V56.9768H176.476V56.6768H174.503V56.9768H172.529V56.6768H170.556V56.9768H168.583V56.6768H166.609V56.9768H164.636V56.6768H162.663V56.9768H160.69V56.6768H158.716V56.9768H156.743V56.6768H154.77V56.9768H152.797V56.6768H150.823V56.9768H148.85V56.6768H146.877V56.9768H144.903V56.6768H142.93V56.9768H140.957V56.6768H138.984V56.9768H137.01V56.6768H135.037V56.9768H133.064V56.6768H131.091V56.9768H129.117V56.6768H127.144V56.9768H125.171V56.6768H123.197V56.9768H121.224V56.6768H119.251V56.9768H117.278V56.6768H115.304V56.9768H113.331V56.6768H111.358V56.9768H109.385V56.6768H107.411V56.9768H105.438V56.6768H103.465V56.9768H101.491V56.6768H99.5182V56.9768H97.5449V56.6768H95.5717V56.9768H93.5984V56.6768H91.6251V56.9768H89.6518V56.6768H87.6786V56.9768H86.692C86.4392 56.9768 86.199 57.027 85.9801 57.1178L85.8652 56.8407Z" fill="#FEFEFE" stroke="#D5D7E9" stroke-width="0.6" stroke-linejoin="round" stroke-dasharray="2 2"/>
<path d="M181.877 97.5H87.16C85.6909 97.5 84.5 98.6909 84.5 100.16V123.728C84.5 125.197 85.6909 126.388 87.16 126.388H181.877C183.346 126.388 184.537 125.197 184.537 123.728V100.16C184.537 98.6909 183.346 97.5 181.877 97.5Z" fill="white" stroke="#D5D7E9"/>
<path d="M181.877 138.043H87.16C85.6909 138.043 84.5 139.234 84.5 140.703V164.271C84.5 165.74 85.6909 166.931 87.16 166.931H181.877C183.346 166.931 184.537 165.74 184.537 164.271V140.703C184.537 139.234 183.346 138.043 181.877 138.043Z" fill="white" stroke="#D5D7E9"/>
<path fill-rule="evenodd" clip-rule="evenodd" d="M99 104C95.69 104 93 106.69 93 110C93 112.02 94.17 113.71 95.53 114.89C95.96 115.26 96.71 115.85 97.38 116.72C98.12 117.69 98.79 118.73 99 119.43C99.21 118.73 99.88 117.69 100.62 116.72C101.29 115.85 102.04 115.26 102.47 114.89C103.83 113.71 105 112.02 105 110C105 106.69 102.31 104 99 104ZM99 106.56C100.9 106.56 102.44 108.1 102.44 110C102.44 111.9 100.9 113.44 99 113.44C97.1 113.44 95.56 111.9 95.56 110C95.56 108.1 97.1 106.56 99 106.56Z" fill="#555D66"/>
<path d="M118.896 116L118.183 114.018H115.454L114.755 116H113.525L116.196 108.832H117.465L120.136 116H118.896ZM117.875 113.012L117.207 111.068C117.158 110.938 117.089 110.733 117.001 110.453C116.917 110.173 116.858 109.968 116.826 109.838C116.738 110.238 116.609 110.676 116.44 111.151L115.795 113.012H117.875ZM122.778 116.098C122.104 116.098 121.578 115.854 121.201 115.365C120.823 114.877 120.634 114.192 120.634 113.31C120.634 112.424 120.825 111.736 121.206 111.244C121.59 110.749 122.12 110.502 122.797 110.502C123.507 110.502 124.047 110.764 124.418 111.288H124.477C124.422 110.901 124.394 110.595 124.394 110.37V108.402H125.546V116H124.648L124.448 115.292H124.394C124.026 115.829 123.487 116.098 122.778 116.098ZM123.085 115.17C123.557 115.17 123.901 115.038 124.116 114.774C124.331 114.507 124.441 114.076 124.448 113.48V113.319C124.448 112.639 124.337 112.156 124.116 111.869C123.894 111.583 123.548 111.439 123.076 111.439C122.672 111.439 122.361 111.604 122.143 111.933C121.925 112.258 121.816 112.724 121.816 113.329C121.816 113.928 121.922 114.385 122.133 114.701C122.345 115.014 122.662 115.17 123.085 115.17ZM129.008 116.098C128.334 116.098 127.809 115.854 127.431 115.365C127.054 114.877 126.865 114.192 126.865 113.31C126.865 112.424 127.055 111.736 127.436 111.244C127.82 110.749 128.351 110.502 129.028 110.502C129.737 110.502 130.278 110.764 130.649 111.288H130.708C130.652 110.901 130.625 110.595 130.625 110.37V108.402H131.777V116H130.878L130.678 115.292H130.625C130.257 115.829 129.718 116.098 129.008 116.098ZM129.316 115.17C129.788 115.17 130.131 115.038 130.346 114.774C130.561 114.507 130.672 114.076 130.678 113.48V113.319C130.678 112.639 130.568 112.156 130.346 111.869C130.125 111.583 129.778 111.439 129.306 111.439C128.903 111.439 128.592 111.604 128.374 111.933C128.155 112.258 128.046 112.724 128.046 113.329C128.046 113.928 128.152 114.385 128.364 114.701C128.575 115.014 128.893 115.17 129.316 115.17ZM136.157 110.502C136.388 110.502 136.578 110.518 136.728 110.551L136.616 111.62C136.453 111.581 136.284 111.562 136.108 111.562C135.649 111.562 135.276 111.711 134.99 112.011C134.707 112.31 134.565 112.699 134.565 113.178V116H133.417V110.6H134.316L134.467 111.552H134.526C134.705 111.229 134.938 110.974 135.224 110.785C135.514 110.596 135.825 110.502 136.157 110.502ZM140.092 116.098C139.252 116.098 138.595 115.854 138.12 115.365C137.648 114.874 137.412 114.198 137.412 113.339C137.412 112.457 137.631 111.763 138.071 111.259C138.51 110.754 139.114 110.502 139.882 110.502C140.595 110.502 141.158 110.718 141.572 111.151C141.985 111.584 142.192 112.18 142.192 112.938V113.559H138.593C138.61 114.083 138.751 114.486 139.018 114.77C139.285 115.049 139.661 115.189 140.146 115.189C140.465 115.189 140.761 115.16 141.035 115.102C141.311 115.04 141.608 114.939 141.923 114.799V115.731C141.643 115.865 141.36 115.959 141.074 116.015C140.787 116.07 140.46 116.098 140.092 116.098ZM139.882 111.371C139.518 111.371 139.225 111.487 139.003 111.718C138.785 111.949 138.655 112.286 138.613 112.729H141.064C141.057 112.283 140.95 111.946 140.742 111.718C140.533 111.487 140.247 111.371 139.882 111.371ZM147.124 114.462C147.124 114.989 146.931 115.395 146.547 115.678C146.163 115.958 145.613 116.098 144.897 116.098C144.178 116.098 143.6 115.989 143.164 115.771V114.779C143.798 115.072 144.389 115.219 144.936 115.219C145.642 115.219 145.996 115.006 145.996 114.579C145.996 114.442 145.957 114.328 145.878 114.237C145.8 114.146 145.672 114.052 145.493 113.954C145.314 113.856 145.065 113.746 144.746 113.622C144.124 113.381 143.702 113.14 143.481 112.899C143.263 112.659 143.154 112.346 143.154 111.962C143.154 111.5 143.339 111.142 143.71 110.888C144.085 110.631 144.593 110.502 145.234 110.502C145.869 110.502 146.469 110.631 147.036 110.888L146.665 111.752C146.082 111.511 145.592 111.391 145.195 111.391C144.589 111.391 144.287 111.563 144.287 111.908C144.287 112.077 144.365 112.221 144.521 112.338C144.681 112.455 145.026 112.616 145.556 112.821C146.002 112.994 146.326 113.152 146.528 113.295C146.73 113.438 146.879 113.604 146.977 113.793C147.075 113.979 147.124 114.201 147.124 114.462ZM151.997 114.462C151.997 114.989 151.805 115.395 151.42 115.678C151.036 115.958 150.486 116.098 149.77 116.098C149.051 116.098 148.473 115.989 148.037 115.771V114.779C148.671 115.072 149.262 115.219 149.809 115.219C150.515 115.219 150.869 115.006 150.869 114.579C150.869 114.442 150.83 114.328 150.751 114.237C150.673 114.146 150.545 114.052 150.366 113.954C150.187 113.856 149.938 113.746 149.619 113.622C148.997 113.381 148.575 113.14 148.354 112.899C148.136 112.659 148.027 112.346 148.027 111.962C148.027 111.5 148.212 111.142 148.583 110.888C148.958 110.631 149.466 110.502 150.107 110.502C150.742 110.502 151.342 110.631 151.909 110.888L151.538 111.752C150.955 111.511 150.465 111.391 150.068 111.391C149.462 111.391 149.16 111.563 149.16 111.908C149.16 112.077 149.238 112.221 149.394 112.338C149.554 112.455 149.899 112.616 150.429 112.821C150.875 112.994 151.199 113.152 151.401 113.295C151.603 113.438 151.752 113.604 151.85 113.793C151.948 113.979 151.997 114.201 151.997 114.462ZM158.549 111.469H157.231V116H156.079V111.469H155.19V110.932L156.079 110.58V110.229C156.079 109.59 156.228 109.118 156.528 108.812C156.827 108.503 157.285 108.349 157.9 108.349C158.304 108.349 158.701 108.415 159.091 108.549L158.789 109.418C158.505 109.327 158.235 109.281 157.978 109.281C157.718 109.281 157.527 109.363 157.407 109.525C157.29 109.685 157.231 109.926 157.231 110.248V110.6H158.549V111.469ZM160.615 116H159.467V110.6H160.615V116ZM159.399 109.169C159.399 108.964 159.454 108.806 159.565 108.695C159.679 108.585 159.84 108.529 160.048 108.529C160.25 108.529 160.406 108.585 160.517 108.695C160.631 108.806 160.688 108.964 160.688 109.169C160.688 109.364 160.631 109.519 160.517 109.633C160.406 109.743 160.25 109.799 160.048 109.799C159.84 109.799 159.679 109.743 159.565 109.633C159.454 109.519 159.399 109.364 159.399 109.169ZM164.624 116.098C163.784 116.098 163.126 115.854 162.651 115.365C162.179 114.874 161.943 114.198 161.943 113.339C161.943 112.457 162.163 111.763 162.602 111.259C163.042 110.754 163.645 110.502 164.414 110.502C165.126 110.502 165.69 110.718 166.103 111.151C166.516 111.584 166.723 112.18 166.723 112.938V113.559H163.125C163.141 114.083 163.282 114.486 163.549 114.77C163.816 115.049 164.192 115.189 164.677 115.189C164.996 115.189 165.292 115.16 165.566 115.102C165.843 115.04 166.139 114.939 166.455 114.799V115.731C166.175 115.865 165.891 115.959 165.605 116.015C165.319 116.07 164.991 116.098 164.624 116.098ZM164.414 111.371C164.049 111.371 163.756 111.487 163.535 111.718C163.317 111.949 163.186 112.286 163.144 112.729H165.595C165.589 112.283 165.481 111.946 165.273 111.718C165.065 111.487 164.778 111.371 164.414 111.371ZM169.174 116H168.027V108.402H169.174V116ZM172.641 116.098C171.967 116.098 171.442 115.854 171.064 115.365C170.686 114.877 170.498 114.192 170.498 113.31C170.498 112.424 170.688 111.736 171.069 111.244C171.453 110.749 171.984 110.502 172.661 110.502C173.37 110.502 173.911 110.764 174.282 111.288H174.34C174.285 110.901 174.257 110.595 174.257 110.37V108.402H175.41V116H174.511L174.311 115.292H174.257C173.889 115.829 173.351 116.098 172.641 116.098ZM172.949 115.17C173.421 115.17 173.764 115.038 173.979 114.774C174.194 114.507 174.305 114.076 174.311 113.48V113.319C174.311 112.639 174.2 112.156 173.979 111.869C173.758 111.583 173.411 111.439 172.939 111.439C172.535 111.439 172.224 111.604 172.006 111.933C171.788 112.258 171.679 112.724 171.679 113.329C171.679 113.928 171.785 114.385 171.997 114.701C172.208 115.014 172.526 115.17 172.949 115.17Z" fill="#555D66"/>
<g filter="url(#filter3_d)">
<path d="M172.405 50H68.6849C67.492 50 66.5249 50.9671 66.5249 52.16V75.728C66.5249 76.9209 67.492 77.888 68.6849 77.888H172.405C173.598 77.888 174.565 76.9209 174.565 75.728V52.16C174.565 50.9671 173.598 50 172.405 50Z" fill="white"/>
<path d="M172.405 49.5H68.6849C67.2158 49.5 66.0249 50.6909 66.0249 52.16V75.728C66.0249 77.1971 67.2158 78.388 68.6849 78.388H172.405C173.874 78.388 175.065 77.1971 175.065 75.728V52.16C175.065 50.6909 173.874 49.5 172.405 49.5Z" stroke="#D5D7E9"/>
</g>
<path d="M104.417 68H102.986L99.4751 62.3115H99.436L99.4604 62.6289C99.506 63.2344 99.5288 63.7878 99.5288 64.2891V68H98.4692V60.8613H99.8853L103.386 66.5205H103.416C103.409 66.4456 103.396 66.1738 103.376 65.7051C103.357 65.2331 103.347 64.8652 103.347 64.6016V60.8613H104.417V68ZM109.558 68L109.329 67.248H109.29C109.029 67.5768 108.767 67.8014 108.503 67.9219C108.24 68.0391 107.901 68.0977 107.488 68.0977C106.957 68.0977 106.542 67.9544 106.243 67.668C105.946 67.3815 105.798 66.9762 105.798 66.4521C105.798 65.8955 106.005 65.4756 106.418 65.1924C106.832 64.9092 107.462 64.7546 108.308 64.7285L109.241 64.6992V64.4111C109.241 64.0661 109.159 63.8089 108.997 63.6396C108.837 63.4671 108.588 63.3809 108.25 63.3809C107.973 63.3809 107.708 63.4215 107.454 63.5029C107.2 63.5843 106.956 63.6803 106.721 63.791L106.35 62.9707C106.643 62.8177 106.964 62.7021 107.312 62.624C107.66 62.5426 107.989 62.502 108.298 62.502C108.985 62.502 109.503 62.6517 109.851 62.9512C110.203 63.2507 110.378 63.721 110.378 64.3623V68H109.558ZM107.849 67.2188C108.266 67.2188 108.599 67.1032 108.85 66.8721C109.104 66.6377 109.231 66.3105 109.231 65.8906V65.4219L108.538 65.4512C107.997 65.4707 107.603 65.5618 107.356 65.7246C107.112 65.8841 106.99 66.1299 106.99 66.4619C106.99 66.7028 107.061 66.89 107.205 67.0234C107.348 67.1536 107.563 67.2188 107.849 67.2188ZM116.531 68H115.378V64.6699C115.378 64.2565 115.3 63.9489 115.144 63.7471C114.988 63.542 114.744 63.4395 114.412 63.4395C113.969 63.4395 113.643 63.5843 113.435 63.874C113.23 64.1605 113.127 64.639 113.127 65.3096V68H111.98V62.5996H112.878L113.04 63.3076H113.098C113.248 63.0505 113.464 62.8519 113.748 62.7119C114.034 62.5719 114.348 62.502 114.69 62.502C115.52 62.502 116.07 62.7852 116.34 63.3516H116.418C116.578 63.0846 116.803 62.8763 117.092 62.7266C117.382 62.5768 117.714 62.502 118.088 62.502C118.733 62.502 119.202 62.6647 119.495 62.9902C119.791 63.3158 119.939 63.8122 119.939 64.4795V68H118.792V64.6699C118.792 64.2565 118.712 63.9489 118.552 63.7471C118.396 63.542 118.152 63.4395 117.82 63.4395C117.374 63.4395 117.047 63.5794 116.838 63.8594C116.633 64.1361 116.531 64.5625 116.531 65.1387V68ZM123.899 68.0977C123.059 68.0977 122.402 67.8535 121.926 67.3652C121.454 66.8737 121.218 66.1982 121.218 65.3389C121.218 64.4567 121.438 63.7633 121.877 63.2588C122.317 62.7542 122.921 62.502 123.689 62.502C124.402 62.502 124.965 62.7184 125.378 63.1514C125.792 63.5843 125.999 64.18 125.999 64.9385V65.5586H122.4C122.416 66.0827 122.558 66.4863 122.825 66.7695C123.092 67.0495 123.468 67.1895 123.953 67.1895C124.272 67.1895 124.568 67.1602 124.841 67.1016C125.118 67.0397 125.414 66.9388 125.73 66.7988V67.7314C125.45 67.8649 125.167 67.9593 124.88 68.0146C124.594 68.07 124.267 68.0977 123.899 68.0977ZM123.689 63.3711C123.324 63.3711 123.031 63.4867 122.81 63.7178C122.592 63.9489 122.462 64.2858 122.419 64.7285H124.871C124.864 64.2826 124.757 63.9456 124.548 63.7178C124.34 63.4867 124.054 63.3711 123.689 63.3711ZM132.61 63.4688H131.292V68H130.139V63.4688H129.25V62.9316L130.139 62.5801V62.2285C130.139 61.5905 130.289 61.1185 130.588 60.8125C130.888 60.5033 131.345 60.3486 131.96 60.3486C132.364 60.3486 132.761 60.4154 133.152 60.5488L132.849 61.418C132.566 61.3268 132.296 61.2812 132.039 61.2812C131.778 61.2812 131.588 61.3626 131.467 61.5254C131.35 61.6849 131.292 61.9258 131.292 62.248V62.5996H132.61V63.4688ZM134.675 68H133.528V62.5996H134.675V68ZM133.459 61.1689C133.459 60.9639 133.515 60.806 133.625 60.6953C133.739 60.5846 133.901 60.5293 134.109 60.5293C134.311 60.5293 134.467 60.5846 134.578 60.6953C134.692 60.806 134.749 60.9639 134.749 61.1689C134.749 61.3643 134.692 61.5189 134.578 61.6328C134.467 61.7435 134.311 61.7988 134.109 61.7988C133.901 61.7988 133.739 61.7435 133.625 61.6328C133.515 61.5189 133.459 61.3643 133.459 61.1689ZM138.684 68.0977C137.844 68.0977 137.187 67.8535 136.711 67.3652C136.239 66.8737 136.003 66.1982 136.003 65.3389C136.003 64.4567 136.223 63.7633 136.663 63.2588C137.102 62.7542 137.706 62.502 138.474 62.502C139.187 62.502 139.75 62.7184 140.164 63.1514C140.577 63.5843 140.784 64.18 140.784 64.9385V65.5586H137.185C137.201 66.0827 137.343 66.4863 137.61 66.7695C137.877 67.0495 138.253 67.1895 138.738 67.1895C139.057 67.1895 139.353 67.1602 139.626 67.1016C139.903 67.0397 140.199 66.9388 140.515 66.7988V67.7314C140.235 67.8649 139.952 67.9593 139.666 68.0146C139.379 68.07 139.052 68.0977 138.684 68.0977ZM138.474 63.3711C138.11 63.3711 137.817 63.4867 137.595 63.7178C137.377 63.9489 137.247 64.2858 137.205 64.7285H139.656C139.649 64.2826 139.542 63.9456 139.333 63.7178C139.125 63.4867 138.839 63.3711 138.474 63.3711ZM143.235 68H142.087V60.4023H143.235V68ZM146.702 68.0977C146.028 68.0977 145.502 67.8535 145.125 67.3652C144.747 66.877 144.558 66.1917 144.558 65.3096C144.558 64.4242 144.749 63.7357 145.129 63.2441C145.514 62.7493 146.044 62.502 146.721 62.502C147.431 62.502 147.971 62.764 148.342 63.2881H148.401C148.346 62.9007 148.318 62.5947 148.318 62.3701V60.4023H149.47V68H148.572L148.372 67.292H148.318C147.95 67.8291 147.411 68.0977 146.702 68.0977ZM147.009 67.1699C147.481 67.1699 147.825 67.0381 148.04 66.7744C148.254 66.5075 148.365 66.0762 148.372 65.4805V65.3193C148.372 64.639 148.261 64.1556 148.04 63.8691C147.818 63.5827 147.472 63.4395 147 63.4395C146.596 63.4395 146.285 63.6038 146.067 63.9326C145.849 64.2581 145.74 64.7236 145.74 65.3291C145.74 65.9281 145.846 66.3854 146.057 66.7012C146.269 67.0137 146.586 67.1699 147.009 67.1699Z" fill="#555D66"/>
<path fill-rule="evenodd" clip-rule="evenodd" d="M86.23 69H88.13L84 58H82L78 69H79.88L80.95 66H85.13L86.23 69ZM84.7 64.46H81.51L83 59.6L84.7 64.46Z" fill="#555D66"/>
<path fill-rule="evenodd" clip-rule="evenodd" d="M107 152.903V145.321C107 144.281 106.213 143.739 105.251 144.123L94.7489 148.295C93.787 148.679 93 149.842 93 150.892V158.464C93 159.514 93.787 160.047 94.7489 159.662L105.251 155.491C106.213 155.107 107 153.952 107 152.903ZM105.75 146.379L100.468 154.538L94.6527 150.516C94.5653 150.454 94.3379 150.236 94.5041 149.956C94.6877 149.641 95.0725 149.772 95.0725 149.772L100.582 151.801C100.582 151.801 104.805 146.257 105.05 145.942C105.164 145.793 105.426 145.645 105.688 145.828C105.942 146.003 105.828 146.257 105.75 146.379Z" fill="#555D66"/>
<path d="M118.98 156H114.942V148.861H118.98V149.847H116.109V151.791H118.8V152.767H116.109V155.008H118.98V156ZM124.957 156H123.805V152.669C123.805 152.256 123.727 151.948 123.57 151.747C123.414 151.542 123.17 151.439 122.838 151.439C122.395 151.439 122.07 151.584 121.861 151.874C121.656 152.16 121.554 152.639 121.554 153.309V156H120.406V150.599H121.305L121.466 151.307H121.524C121.674 151.05 121.891 150.851 122.174 150.711C122.46 150.571 122.774 150.501 123.116 150.501C123.946 150.501 124.496 150.785 124.767 151.351H124.845C125.004 151.084 125.229 150.876 125.519 150.726C125.808 150.576 126.14 150.501 126.515 150.501C127.159 150.501 127.628 150.664 127.921 150.99C128.217 151.315 128.365 151.812 128.365 152.479V156H127.218V152.669C127.218 152.256 127.138 151.948 126.979 151.747C126.822 151.542 126.578 151.439 126.246 151.439C125.8 151.439 125.473 151.579 125.265 151.859C125.06 152.136 124.957 152.562 124.957 153.138V156ZM133.346 156L133.116 155.248H133.077C132.817 155.576 132.555 155.801 132.291 155.921C132.027 156.039 131.689 156.097 131.275 156.097C130.745 156.097 130.33 155.954 130.03 155.667C129.734 155.381 129.586 154.976 129.586 154.452C129.586 153.895 129.793 153.475 130.206 153.192C130.619 152.909 131.249 152.754 132.096 152.728L133.028 152.699V152.411C133.028 152.066 132.947 151.808 132.784 151.639C132.625 151.467 132.376 151.38 132.037 151.38C131.76 151.38 131.495 151.421 131.241 151.502C130.987 151.584 130.743 151.68 130.509 151.791L130.138 150.97C130.431 150.817 130.751 150.702 131.1 150.624C131.448 150.542 131.777 150.501 132.086 150.501C132.773 150.501 133.29 150.651 133.639 150.951C133.99 151.25 134.166 151.721 134.166 152.362V156H133.346ZM131.637 155.218C132.053 155.218 132.387 155.103 132.638 154.872C132.892 154.637 133.019 154.31 133.019 153.89V153.421L132.325 153.451C131.785 153.47 131.391 153.561 131.144 153.724C130.899 153.884 130.777 154.129 130.777 154.461C130.777 154.702 130.849 154.889 130.992 155.023C131.135 155.153 131.35 155.218 131.637 155.218ZM136.915 156H135.768V150.599H136.915V156ZM135.699 149.168C135.699 148.963 135.755 148.806 135.865 148.695C135.979 148.584 136.14 148.529 136.349 148.529C136.55 148.529 136.707 148.584 136.817 148.695C136.931 148.806 136.988 148.963 136.988 149.168C136.988 149.364 136.931 149.518 136.817 149.632C136.707 149.743 136.55 149.798 136.349 149.798C136.14 149.798 135.979 149.743 135.865 149.632C135.755 149.518 135.699 149.364 135.699 149.168ZM139.708 156H138.561V148.402H139.708V156ZM146.661 151.468H145.343V156H144.19V151.468H143.302V150.931L144.19 150.58V150.228C144.19 149.59 144.34 149.118 144.64 148.812C144.939 148.503 145.396 148.348 146.012 148.348C146.415 148.348 146.812 148.415 147.203 148.548L146.9 149.417C146.617 149.326 146.347 149.281 146.09 149.281C145.829 149.281 145.639 149.362 145.519 149.525C145.401 149.684 145.343 149.925 145.343 150.248V150.599H146.661V151.468ZM148.727 156H147.579V150.599H148.727V156ZM147.511 149.168C147.511 148.963 147.566 148.806 147.677 148.695C147.791 148.584 147.952 148.529 148.16 148.529C148.362 148.529 148.518 148.584 148.629 148.695C148.743 148.806 148.8 148.963 148.8 149.168C148.8 149.364 148.743 149.518 148.629 149.632C148.518 149.743 148.362 149.798 148.16 149.798C147.952 149.798 147.791 149.743 147.677 149.632C147.566 149.518 147.511 149.364 147.511 149.168ZM152.735 156.097C151.896 156.097 151.238 155.853 150.763 155.365C150.291 154.873 150.055 154.198 150.055 153.338C150.055 152.456 150.274 151.763 150.714 151.258C151.153 150.754 151.757 150.501 152.525 150.501C153.238 150.501 153.801 150.718 154.215 151.151C154.628 151.584 154.835 152.18 154.835 152.938V153.558H151.236C151.253 154.082 151.394 154.486 151.661 154.769C151.928 155.049 152.304 155.189 152.789 155.189C153.108 155.189 153.404 155.16 153.678 155.101C153.954 155.039 154.251 154.938 154.566 154.798V155.731C154.286 155.864 154.003 155.959 153.717 156.014C153.43 156.069 153.103 156.097 152.735 156.097ZM152.525 151.371C152.161 151.371 151.868 151.486 151.646 151.717C151.428 151.948 151.298 152.285 151.256 152.728H153.707C153.701 152.282 153.593 151.945 153.385 151.717C153.176 151.486 152.89 151.371 152.525 151.371ZM157.286 156H156.139V148.402H157.286V156ZM160.753 156.097C160.079 156.097 159.553 155.853 159.176 155.365C158.798 154.876 158.609 154.191 158.609 153.309C158.609 152.424 158.8 151.735 159.181 151.244C159.565 150.749 160.095 150.501 160.772 150.501C161.482 150.501 162.022 150.764 162.394 151.288H162.452C162.397 150.9 162.369 150.594 162.369 150.37V148.402H163.521V156H162.623L162.423 155.292H162.369C162.001 155.829 161.463 156.097 160.753 156.097ZM161.061 155.169C161.533 155.169 161.876 155.038 162.091 154.774C162.306 154.507 162.416 154.076 162.423 153.48V153.319C162.423 152.639 162.312 152.155 162.091 151.869C161.869 151.582 161.523 151.439 161.051 151.439C160.647 151.439 160.336 151.603 160.118 151.932C159.9 152.258 159.791 152.723 159.791 153.329C159.791 153.928 159.897 154.385 160.108 154.701C160.32 155.013 160.637 155.169 161.061 155.169Z" fill="#555D66"/>
<defs>
<filter id="filter0_d" x="126.462" y="41.063" width="141.636" height="165.402" filterUnits="userSpaceOnUse" color-interpolation-filters="sRGB">
<feFlood flood-opacity="0" result="BackgroundImageFix"/>
<feColorMatrix in="SourceAlpha" type="matrix" values="0 0 0 0 0 0 0 0 0 0 0 0 0 0 0 0 0 0 127 0"/>
<feOffset dy="4"/>
<feGaussianBlur stdDeviation="2"/>
<feColorMatrix type="matrix" values="0 0 0 0 0.0687866 0 0 0 0 0.097585 0 0 0 0 0.37981 0 0 0 0.0405344 0"/>
<feBlend mode="normal" in2="BackgroundImageFix" result="effect1_dropShadow"/>
<feBlend mode="normal" in="SourceGraphic" in2="effect1_dropShadow" result="shape"/>
</filter>
<filter id="filter1_d" x="0.407959" y="41.0845" width="141.636" height="165.402" filterUnits="userSpaceOnUse" color-interpolation-filters="sRGB">
<feFlood flood-opacity="0" result="BackgroundImageFix"/>
<feColorMatrix in="SourceAlpha" type="matrix" values="0 0 0 0 0 0 0 0 0 0 0 0 0 0 0 0 0 0 127 0"/>
<feOffset dy="4"/>
<feGaussianBlur stdDeviation="2"/>
<feColorMatrix type="matrix" values="0 0 0 0 0.0687866 0 0 0 0 0.097585 0 0 0 0 0.37981 0 0 0 0.0405344 0"/>
<feBlend mode="normal" in2="BackgroundImageFix" result="effect1_dropShadow"/>
<feBlend mode="normal" in="SourceGraphic" in2="effect1_dropShadow" result="shape"/>
</filter>
<filter id="filter2_d" x="70" y="30.4868" width="129.251" height="167.99" filterUnits="userSpaceOnUse" color-interpolation-filters="sRGB">
<feFlood flood-opacity="0" result="BackgroundImageFix"/>
<feColorMatrix in="SourceAlpha" type="matrix" values="0 0 0 0 0 0 0 0 0 0 0 0 0 0 0 0 0 0 127 0"/>
<feOffset dy="4"/>
<feGaussianBlur stdDeviation="2"/>
<feColorMatrix type="matrix" values="0 0 0 0 0.0687866 0 0 0 0 0.097585 0 0 0 0 0.37981 0 0 0 0.0405344 0"/>
<feBlend mode="normal" in2="BackgroundImageFix" result="effect1_dropShadow"/>
<feBlend mode="normal" in="SourceGraphic" in2="effect1_dropShadow" result="shape"/>
</filter>
<filter id="filter3_d" x="59.5249" y="45" width="122.04" height="41.888" filterUnits="userSpaceOnUse" color-interpolation-filters="sRGB">
<feFlood flood-opacity="0" result="BackgroundImageFix"/>
<feColorMatrix in="SourceAlpha" type="matrix" values="0 0 0 0 0 0 0 0 0 0 0 0 0 0 0 0 0 0 127 0"/>
<feOffset dy="2"/>
<feGaussianBlur stdDeviation="3"/>
<feColorMatrix type="matrix" values="0 0 0 0 0.109804 0 0 0 0 0.121569 0 0 0 0 0.247059 0 0 0 0.11 0"/>
<feBlend mode="normal" in2="BackgroundImageFix" result="effect1_dropShadow"/>
<feBlend mode="normal" in="SourceGraphic" in2="effect1_dropShadow" result="shape"/>
</filter>
</defs>
</svg>
