<?xml version="1.0" encoding="utf-8"?>
<!-- Generator: Adobe Illustrator 24.2.1, SVG Export Plug-In . SVG Version: 6.00 Build 0)  -->
<svg version="1.1" id="Layer_1" xmlns="http://www.w3.org/2000/svg" xmlns:xlink="http://www.w3.org/1999/xlink" x="0px" y="0px"
	 viewBox="0 0 297.3 63" style="enable-background:new 0 0 297.3 63;" xml:space="preserve">
<style type="text/css">
	.st0{fill-rule:evenodd;clip-rule:evenodd;fill:url(#SVGID_1_);}
	.st1{fill-rule:evenodd;clip-rule:evenodd;fill:#FFFFFF;}
	.st2{fill:#FFFFFF;}
</style>
<linearGradient id="SVGID_1_" gradientUnits="userSpaceOnUse" x1="0" y1="31.5" x2="297.276" y2="31.5">
	<stop  offset="0" style="stop-color:#FFA62C"/>
	<stop  offset="0.3256" style="stop-color:#F24F30"/>
	<stop  offset="1" style="stop-color:#5119BA"/>
</linearGradient>
<path class="st0" d="M265.8,63H31.5C14.1,63,0,48.9,0,31.5v0C0,14.1,14.1,0,31.5,0h234.3c17.4,0,31.5,14.1,31.5,31.5v0
	C297.3,48.9,283.2,63,265.8,63z"/>
<g>
	<g>
		<path class="st1" d="M51.7,24.6c-0.1-1.7-0.6-3.3-1.6-4.7c-1.6-2.2-3.8-3.1-6.4-3.3c-2.4-0.2-4.7-0.1-7.1-0.1c-0.3,0-0.6,0-0.9,0
			c-2.1,0-4.2,0-6.3,0.2c-3.6,0.4-6.2,2.6-7,6c-0.4,1.5-0.4,3.1-0.4,4.6c0,2.4,0,4.8,0,7.2c0,1.5,0,2.9,0.2,4.4c0.4,3.5,2.6,6.1,6,7
			c1.5,0.4,3.1,0.4,4.6,0.4c2.4,0,4.9,0,7.3,0c1.5,0,2.9,0,4.3-0.2c3.9-0.5,6.6-3,7.2-6.9c0.3-1.4,0.3-2.9,0.3-4.4
			C51.8,31.5,51.9,28.1,51.7,24.6z M49.1,33.4c0,1.6,0,3.2-0.1,4.8c-0.1,1.6-0.6,3-1.8,4.1c-0.9,0.8-1.9,1.1-3.1,1.3
			c-1.2,0.2-2.4,0.2-3.5,0.2c-2.5,0-4.9,0-7.4,0c-1.3,0-2.6,0-3.8-0.2c-2.6-0.5-4.2-2.2-4.5-4.8c-0.2-1.2-0.2-2.4-0.2-3.6
			c0-2.4,0-4.9,0-7.3c0-1.3,0-2.6,0.2-3.9c0.5-2.6,2.2-4.2,4.8-4.5c1.2-0.1,2.4-0.1,3.5-0.2c1.2,0,2.5,0,3.7,0c2.2,0,4.4,0,6.6,0.1
			c1.6,0.1,3.1,0.6,4.2,1.9c0.9,1,1.2,2.2,1.3,3.5C49.2,27.6,49.1,30.5,49.1,33.4z"/>
		<path class="st1" d="M44.9,25.3c-1,0-1.8-0.8-1.8-1.8c0-1,0.8-1.8,1.8-1.8c1,0,1.8,0.8,1.8,1.8C46.7,24.5,45.9,25.3,44.9,25.3z"/>
		<path class="st1" d="M36.9,23.8c-4.3,0-7.7,3.4-7.7,7.7c0,4.3,3.4,7.7,7.7,7.7c4.2,0,7.7-3.4,7.7-7.7
			C44.6,27.3,41.1,23.8,36.9,23.8z M36.8,36.5c-2.7,0-4.9-2.2-4.9-5c0-2.8,2.2-5,5-5c2.7,0,4.9,2.2,4.9,5
			C41.8,34.3,39.6,36.5,36.8,36.5z"/>
	</g>
	<g>
		<path class="st1" d="M51.7,24.6c-0.1-1.7-0.6-3.3-1.6-4.7c-1.6-2.2-3.8-3.1-6.4-3.3c-2.4-0.2-4.7-0.1-7.1-0.1c-0.3,0-0.6,0-0.9,0
			c-2.1,0-4.2,0-6.3,0.2c-3.6,0.4-6.2,2.6-7,6c-0.4,1.5-0.4,3.1-0.4,4.6c0,2.4,0,4.8,0,7.2c0,1.5,0,2.9,0.2,4.4c0.4,3.5,2.6,6.1,6,7
			c1.5,0.4,3.1,0.4,4.6,0.4c2.4,0,4.9,0,7.3,0c1.5,0,2.9,0,4.3-0.2c3.9-0.5,6.6-3,7.2-6.9c0.3-1.4,0.3-2.9,0.3-4.4
			C51.8,31.5,51.9,28.1,51.7,24.6z M49.1,33.4c0,1.6,0,3.2-0.1,4.8c-0.1,1.6-0.6,3-1.8,4.1c-0.9,0.8-1.9,1.1-3.1,1.3
			c-1.2,0.2-2.4,0.2-3.5,0.2c-2.5,0-4.9,0-7.4,0c-1.3,0-2.6,0-3.8-0.2c-2.6-0.5-4.2-2.2-4.5-4.8c-0.2-1.2-0.2-2.4-0.2-3.6
			c0-2.4,0-4.9,0-7.3c0-1.3,0-2.6,0.2-3.9c0.5-2.6,2.2-4.2,4.8-4.5c1.2-0.1,2.4-0.1,3.5-0.2c1.2,0,2.5,0,3.7,0c2.2,0,4.4,0,6.6,0.1
			c1.6,0.1,3.1,0.6,4.2,1.9c0.9,1,1.2,2.2,1.3,3.5C49.2,27.6,49.1,30.5,49.1,33.4z"/>
		<path class="st1" d="M44.9,25.3c-1,0-1.8-0.8-1.8-1.8c0-1,0.8-1.8,1.8-1.8c1,0,1.8,0.8,1.8,1.8C46.7,24.5,45.9,25.3,44.9,25.3z"/>
		<path class="st1" d="M36.9,23.8c-4.3,0-7.7,3.4-7.7,7.7c0,4.3,3.4,7.7,7.7,7.7c4.2,0,7.7-3.4,7.7-7.7
			C44.6,27.3,41.1,23.8,36.9,23.8z M36.8,36.5c-2.7,0-4.9-2.2-4.9-5c0-2.8,2.2-5,5-5c2.7,0,4.9,2.2,4.9,5
			C41.8,34.3,39.6,36.5,36.8,36.5z"/>
	</g>
</g>
<g>
	<path class="st2" d="M73,38.1V24.8h1.8v13.4H73z"/>
	<path class="st2" d="M79.4,27.5v1.7c0.7-1.3,1.9-1.9,3.5-1.9c1.2,0,2.1,0.4,2.9,1.2c0.8,0.8,1.2,1.9,1.2,3.3v6.3h-1.7v-6
		c0-1.1-0.3-1.9-0.8-2.4c-0.5-0.6-1.2-0.8-2.1-0.8s-1.6,0.3-2.1,0.8c-0.5,0.6-0.8,1.4-0.8,2.4v6h-1.8V27.5H79.4z"/>
	<path class="st2" d="M89.4,30.5c0-0.9,0.4-1.6,1.1-2.2s1.7-0.9,2.9-0.9s2.1,0.3,2.8,0.9c0.7,0.6,1,1.4,1.1,2.5h-1.8
		c0-0.6-0.2-1.1-0.6-1.4c-0.4-0.4-0.9-0.5-1.6-0.5c-0.7,0-1.2,0.2-1.6,0.5c-0.4,0.3-0.6,0.7-0.6,1.2c0,0.5,0.2,0.9,0.6,1.1
		s1,0.5,1.6,0.6s1.2,0.3,1.8,0.4c0.6,0.2,1.1,0.5,1.6,0.9s0.6,1.1,0.6,1.9c0,0.8-0.4,1.5-1.1,2.1s-1.7,0.8-2.9,0.8
		c-1.2,0-2.1-0.3-2.8-0.9c-0.7-0.6-1.1-1.4-1.2-2.5h1.8c0,0.6,0.2,1.1,0.6,1.4s0.9,0.5,1.6,0.5c0.7,0,1.2-0.1,1.6-0.4
		s0.6-0.7,0.6-1.1c0-0.5-0.2-0.8-0.5-1.1c-0.3-0.3-0.7-0.5-1.2-0.6s-1-0.2-1.5-0.4C92,33.2,91.5,33,91,32.9
		c-0.5-0.2-0.8-0.4-1.2-0.8C89.6,31.6,89.4,31.1,89.4,30.5z"/>
	<path class="st2" d="M103.4,36.7h1.4v1.4h-1.8c-1.8,0-2.8-0.9-2.8-2.7V29H99v-1.4h1.4v-2.6h1.8v2.6h2.7V29h-2.7v6.4
		c0,0.5,0.1,0.8,0.3,1C102.6,36.6,102.9,36.7,103.4,36.7z"/>
	<path class="st2" d="M107.6,36.7c-1-1-1.4-2.4-1.4-4s0.5-2.9,1.4-3.9c1-1,2.2-1.5,3.6-1.5c0.9,0,1.7,0.2,2.4,0.6s1.2,1,1.5,1.7
		v-2.1h1.8v10.6h-1.8V36c-0.3,0.7-0.9,1.3-1.5,1.7s-1.5,0.6-2.4,0.6C109.7,38.3,108.5,37.8,107.6,36.7z M114,35.7
		c0.7-0.7,1.1-1.7,1.1-2.9c0-1.2-0.4-2.2-1.1-2.9s-1.5-1.1-2.5-1.1s-1.8,0.3-2.5,1c-0.7,0.7-1.1,1.6-1.1,2.8s0.4,2.2,1.1,2.9
		c0.7,0.7,1.6,1.1,2.5,1.1S113.3,36.4,114,35.7z"/>
	<path class="st2" d="M120.5,36.7c-1-1-1.4-2.4-1.4-4s0.5-2.9,1.4-3.9c1-1,2.2-1.5,3.6-1.5c0.9,0,1.7,0.2,2.4,0.6s1.2,1,1.5,1.7
		v-2.1h1.8v10.9c0,1.5-0.5,2.6-1.4,3.6s-2.1,1.4-3.6,1.4s-2.6-0.3-3.6-1c-0.9-0.7-1.5-1.5-1.6-2.6h1.7c0.2,0.6,0.6,1.1,1.2,1.5
		c0.6,0.4,1.4,0.6,2.3,0.6s1.7-0.3,2.3-0.9c0.6-0.6,0.9-1.4,0.9-2.5V36c-0.3,0.7-0.9,1.3-1.5,1.7s-1.5,0.6-2.4,0.6
		C122.7,38.3,121.5,37.8,120.5,36.7z M127,35.7c0.7-0.7,1.1-1.7,1.1-2.9c0-1.2-0.4-2.2-1.1-2.9s-1.5-1.1-2.5-1.1s-1.8,0.3-2.5,1
		c-0.7,0.7-1.1,1.6-1.1,2.8s0.4,2.2,1.1,2.9c0.7,0.7,1.6,1.1,2.5,1.1S126.3,36.4,127,35.7z"/>
	<path class="st2" d="M134.4,27.5v1.8c0.6-1.3,1.7-2,3.2-2v1.8h-0.5c-0.9,0-1.6,0.2-2.1,0.7c-0.5,0.5-0.7,1.3-0.7,2.4v5.8h-1.8V27.5
		H134.4z"/>
	<path class="st2" d="M140.5,36.7c-1-1-1.4-2.4-1.4-4s0.5-2.9,1.4-3.9c1-1,2.2-1.5,3.6-1.5c0.9,0,1.7,0.2,2.4,0.6
		c0.7,0.4,1.2,1,1.5,1.7v-2.1h1.8v10.6h-1.8V36c-0.3,0.7-0.9,1.3-1.5,1.7c-0.7,0.4-1.5,0.6-2.4,0.6
		C142.7,38.3,141.5,37.8,140.5,36.7z M147,35.7c0.7-0.7,1.1-1.7,1.1-2.9c0-1.2-0.4-2.2-1.1-2.9c-0.7-0.7-1.5-1.1-2.5-1.1
		s-1.8,0.3-2.5,1s-1.1,1.6-1.1,2.8s0.4,2.2,1.1,2.9c0.7,0.7,1.6,1.1,2.5,1.1C145.5,36.8,146.3,36.4,147,35.7z"/>
	<path class="st2" d="M154.5,27.5v1.7c0.7-1.3,1.9-1.9,3.5-1.9c0.8,0,1.5,0.2,2.2,0.6c0.7,0.4,1.2,1,1.5,1.7
		c0.4-0.7,0.9-1.3,1.6-1.7s1.4-0.6,2.3-0.6c1.2,0,2.2,0.4,3,1.2c0.8,0.8,1.2,1.9,1.2,3.3v6.3h-1.7v-6c0-1.1-0.3-1.9-0.8-2.4
		c-0.5-0.6-1.2-0.8-2.1-0.8c-0.9,0-1.6,0.3-2.1,0.8c-0.5,0.6-0.8,1.4-0.8,2.4v6h-1.7v-6c0-1.1-0.3-1.9-0.8-2.4
		c-0.5-0.6-1.2-0.8-2.1-0.8s-1.6,0.3-2.1,0.8c-0.5,0.6-0.8,1.4-0.8,2.4v6h-1.8V27.5H154.5z"/>
	<path class="st2" d="M179.5,36.3c-1.3-1.3-2-2.9-2-4.9c0-2,0.7-3.6,2-4.9c1.3-1.3,2.9-1.9,4.8-1.9c1.4,0,2.6,0.3,3.7,1
		c1.1,0.7,1.9,1.6,2.4,2.8h-2.1c-0.8-1.5-2.1-2.3-4-2.3c-1.5,0-2.7,0.5-3.6,1.4c-0.9,1-1.4,2.2-1.4,3.8c0,1.6,0.5,2.9,1.4,3.8
		c0.9,1,2.1,1.4,3.6,1.4c0.9,0,1.7-0.2,2.4-0.6c0.7-0.4,1.2-1,1.6-1.7h2.1c-0.5,1.2-1.3,2.2-2.4,2.8c-1.1,0.7-2.3,1-3.7,1
		C182.4,38.2,180.8,37.6,179.5,36.3z"/>
	<path class="st2" d="M194,36.8c-1-1-1.5-2.3-1.5-4c0-1.6,0.5-3,1.5-4c1-1,2.3-1.5,3.8-1.5c1.5,0,2.8,0.5,3.8,1.5c1,1,1.5,2.3,1.5,4
		s-0.5,2.9-1.6,4c-1.1,1-2.4,1.5-3.9,1.5C196.2,38.3,194.9,37.8,194,36.8z M197.7,36.9c1,0,1.8-0.4,2.6-1.1s1.1-1.7,1.1-3
		c0-1.3-0.3-2.2-1-3c-0.7-0.7-1.5-1.1-2.5-1.1c-1,0-1.8,0.4-2.5,1.1c-0.7,0.7-1,1.7-1,3c0,1.3,0.3,2.3,1,3S196.7,36.9,197.7,36.9z"
		/>
	<path class="st2" d="M207.2,27.5v1.7c0.7-1.3,1.9-1.9,3.5-1.9c1.2,0,2.1,0.4,2.9,1.2c0.8,0.8,1.2,1.9,1.2,3.3v6.3H213v-6
		c0-1.1-0.3-1.9-0.8-2.4c-0.5-0.6-1.2-0.8-2.1-0.8s-1.6,0.3-2.1,0.8c-0.5,0.6-0.8,1.4-0.8,2.4v6h-1.8V27.5H207.2z"/>
	<path class="st2" d="M219.3,27.5v1.7c0.7-1.3,1.9-1.9,3.5-1.9c1.2,0,2.1,0.4,2.9,1.2c0.8,0.8,1.2,1.9,1.2,3.3v6.3h-1.7v-6
		c0-1.1-0.3-1.9-0.8-2.4c-0.5-0.6-1.2-0.8-2.1-0.8s-1.6,0.3-2.1,0.8c-0.5,0.6-0.8,1.4-0.8,2.4v6h-1.8V27.5H219.3z"/>
	<path class="st2" d="M234.1,38.3c-1.5,0-2.8-0.5-3.7-1.5c-1-1-1.4-2.3-1.4-4c0-1.6,0.5-3,1.4-4c1-1,2.2-1.5,3.8-1.5
		s2.8,0.5,3.7,1.4c0.9,0.9,1.4,2.2,1.4,3.6c0,0.4,0,0.7-0.1,1h-8.4c0.1,1.1,0.4,1.9,1,2.5s1.4,0.9,2.3,0.9c0.7,0,1.3-0.2,1.8-0.5
		s0.9-0.7,1.1-1.3h1.9c-0.3,0.9-0.9,1.7-1.7,2.3C236.4,38,235.3,38.3,234.1,38.3z M236.5,29.7c-0.6-0.6-1.4-0.9-2.3-0.9
		c-0.9,0-1.7,0.3-2.3,0.9c-0.6,0.6-1,1.4-1,2.5h6.7C237.4,31.1,237.1,30.3,236.5,29.7z"/>
	<path class="st2" d="M242.2,36.8c-1-1-1.4-2.3-1.4-4s0.5-3,1.4-4c1-1,2.2-1.5,3.7-1.5c1.3,0,2.3,0.3,3.1,0.9
		c0.8,0.6,1.4,1.4,1.7,2.5h-1.9c-0.2-0.6-0.6-1.1-1.1-1.4s-1.1-0.5-1.9-0.5c-1,0-1.8,0.4-2.4,1.1c-0.6,0.7-0.9,1.7-0.9,3
		c0,1.3,0.3,2.3,0.9,3s1.4,1.1,2.4,1.1c1.5,0,2.5-0.7,2.9-2h1.9c-0.3,1-0.9,1.9-1.7,2.5s-1.9,0.9-3.1,0.9
		C244.4,38.3,243.1,37.8,242.2,36.8z"/>
	<path class="st2" d="M256.5,36.7h1.4v1.4h-1.8c-1.8,0-2.8-0.9-2.8-2.7V29h-1.4v-1.4h1.4v-2.6h1.8v2.6h2.7V29h-2.7v6.4
		c0,0.5,0.1,0.8,0.3,1C255.7,36.6,256,36.7,256.5,36.7z"/>
</g>
</svg>
