<?xml version="1.0" encoding="UTF-8"?>
<svg width="294px" height="63px" viewBox="0 0 294 63" version="1.1" xmlns="http://www.w3.org/2000/svg" xmlns:xlink="http://www.w3.org/1999/xlink">
    <!-- Generator: Sketch 64 (93537) - https://sketch.com -->
    <title>logo</title>
    <desc>Created with Sketch.</desc>
    <defs>
        <linearGradient x1="1.4609375%" y1="98.5390625%" x2="98.5390625%" y2="1.4609375%" id="linearGradient-1">
            <stop stop-color="#6F00D8" offset="0%"></stop>
            <stop stop-color="#1C6AFF" offset="100%"></stop>
        </linearGradient>
    </defs>
    <g id="logo" stroke="none" stroke-width="1" fill="none" fill-rule="evenodd">
        <path d="M133,39 C137.418278,39 141,42.581722 141,47 C141,51.418278 137.418278,55 133,55 L61.9835287,55.0013526 C65.6203754,50.4247641 68.1961096,44.9670706 69.3386996,39.0003039 L133,39 Z" id="Combined-Shape" fill="#FF0080"></path>
        <circle id="Oval" fill="url(#linearGradient-1)" cx="32.5" cy="31.5" r="31.5"></circle>
        <path d="M50,38.2941176 C50,36.7348368 48.8039657,35.4705882 47.3292062,35.4705882 L41.4115346,35.4705882 C39.936775,35.4705882 38.7407407,36.7348368 38.7407407,38.2941176 C38.7407407,39.8533985 39.936775,41.1176471 41.4115346,41.1176471 L47.3292062,41.1176471 C48.8039657,41.1176471 50,39.8533985 50,38.2941176 M50,27.7058824 C50,26.1470118 48.8043539,24.8823529 47.328818,24.8823529 L41.4119227,24.8823529 C39.936775,24.8823529 38.7407407,26.1470118 38.7407407,27.7058824 C38.7407407,29.2651632 39.936775,30.5294118 41.4119227,30.5294118 L47.328818,30.5294118 C48.8043539,30.5294118 50,29.2651632 50,27.7058824 M26.4165974,37.704015 L26.4165974,27.1197476 C26.4165974,23.4227111 29.3431308,20.4151059 32.9400409,20.4151059 L47.365584,20.4151059 C48.8204279,20.4151059 50,19.2026983 50,17.7077497 C50,16.2124076 48.8204279,15 47.365584,15 L32.9400409,15 C26.4380372,15 21.1481481,20.436749 21.1481481,27.1197476 L21.1481481,37.704015 C21.1481481,39.1993571 22.3277203,40.4117647 23.7825642,40.4117647 C25.2374081,40.4117647 26.4165974,39.1993571 26.4165974,37.704015 M23.9631572,51 C20.7672852,51 17.7632898,49.71758 15.5038844,47.3889646 C13.2444791,45.0595485 12,41.9630026 12,38.6686686 L12,27.6373739 C12,26.1159265 13.1967041,24.8823529 14.6726781,24.8823529 C16.148652,24.8823529 17.3453561,26.1159265 17.3453561,27.6373739 L17.3453561,38.6686686 C17.3453561,40.4912024 18.0336261,42.2040319 19.283543,43.4924577 C20.5330714,44.7808834 22.1950958,45.4903584 23.9631572,45.4903584 C27.6119201,45.4903584 30.5805698,42.4302472 30.5805698,38.6686686 L30.5805698,27.6373739 C30.5805698,26.1159265 31.7772739,24.8823529 33.2532479,24.8823529 C34.7292218,24.8823529 35.9259259,26.1159265 35.9259259,27.6373739 L35.9259259,38.6686686 C35.9259259,45.4683374 30.559207,51 23.9631572,51" id="Fill-1" fill="#FFFFFF"></path>
        <path d="M80.7618621,36 C81.9589652,36 83.0378061,35.7901974 83.9983848,35.3705921 C84.9589635,34.9509869 85.7747314,34.3728099 86.4456884,33.6360612 C87.1166454,32.8993125 87.6307239,32.0357064 87.987924,31.0452428 C88.3451242,30.0547793 88.5237242,28.9886893 88.5237242,27.8469727 L88.5237242,27.8469727 L88.5237242,15.0392548 L87.0466534,15.0392548 L87.0466534,27.8469727 C87.0466534,28.8130406 86.9042561,29.7132402 86.6194614,30.5475715 C86.3346667,31.3819029 85.9219558,32.1064538 85.3813285,32.7212242 C84.8407013,33.3359947 84.1818119,33.816589 83.4046603,34.1630073 C82.6275087,34.5094256 81.746576,34.6826347 80.7618621,34.6826347 C79.7771483,34.6826347 78.8962155,34.506986 78.1190639,34.1556886 C77.3419123,33.8043912 76.6854364,33.3213573 76.1496362,32.7065868 C75.613836,32.0918164 75.2035386,31.3672655 74.9187439,30.5329341 C74.6339492,29.6986028 74.4915519,28.7984032 74.4915519,27.8323353 L74.4915519,27.8323353 L74.4915519,15.0392548 L73,15.0392548 L73,27.8469727 C73,28.9886893 73.1786001,30.0547793 73.5358002,31.0452428 C73.8930003,32.0357064 74.4070789,32.8993125 75.0780358,33.6360612 C75.7489928,34.3728099 76.5647607,34.9509869 77.5253394,35.3705921 C78.4859181,35.7901974 79.564759,36 80.7618621,36 Z M93.9986886,35.7511643 L93.9986886,24.83167 C94.6358564,23.972943 95.3599107,23.2971834 96.1708515,22.8043912 C96.9817923,22.311599 97.8603116,22.0652029 98.8064092,22.0652029 C100.080745,22.0652029 101.026842,22.4530938 101.644702,23.2288756 C102.262562,24.0046574 102.571492,25.0756265 102.571492,26.4417831 L102.571492,26.4417831 L102.571492,35.7511643 L103.947195,35.7511643 L103.947195,26.4417831 C103.947195,25.5928144 103.845827,24.83167 103.643092,24.15835 C103.440357,23.4850299 103.141081,22.9092925 102.745265,22.4311377 C102.349448,21.9529829 101.849851,21.5870481 101.246472,21.3333333 C100.643094,21.0796185 99.9455879,20.9527611 99.1539552,20.9527611 C98.0823549,20.9527611 97.1097086,21.2089155 96.2360164,21.7212242 C95.3623242,22.2335329 94.5972402,22.9092925 93.9407643,23.748503 L93.9407643,23.748503 L93.8104345,21.5528942 C93.7718183,21.3089377 93.6270074,21.1869594 93.3760019,21.1869594 L93.3760019,21.1869594 L92.6229854,21.1869594 L92.6229854,35.7511643 L93.9986886,35.7511643 Z M108.958764,35.7511643 L108.958764,14.4537591 L107.583061,14.4537591 L107.583061,35.7511643 L108.958764,35.7511643 Z M114.042739,17.4397871 C114.216512,17.4397871 114.380631,17.4056332 114.535096,17.3373253 C114.689561,17.2690175 114.824718,17.176314 114.940567,17.0592149 C115.056415,16.9421158 115.150543,16.8079397 115.222948,16.6566866 C115.295353,16.5054336 115.331556,16.3419827 115.331556,16.166334 C115.331556,15.9906853 115.295353,15.8223553 115.222948,15.661344 C115.150543,15.5003327 115.056415,15.3612774 114.940567,15.2441783 C114.824718,15.1270792 114.689561,15.0343757 114.535096,14.9660679 C114.380631,14.89776 114.216512,14.8636061 114.042739,14.8636061 C113.868966,14.8636061 113.704847,14.89776 113.550383,14.9660679 C113.395918,15.0343757 113.260761,15.1270792 113.144912,15.2441783 C113.029063,15.3612774 112.93735,15.5003327 112.869771,15.661344 C112.802193,15.8223553 112.768404,15.9906853 112.768404,16.166334 C112.768404,16.3419827 112.802193,16.5054336 112.869771,16.6566866 C112.93735,16.8079397 113.029063,16.9421158 113.144912,17.0592149 C113.260761,17.176314 113.395918,17.2690175 113.550383,17.3373253 C113.704847,17.4056332 113.868966,17.4397871 114.042739,17.4397871 Z M114.72335,35.7511643 L114.72335,21.1869594 L113.347647,21.1869594 L113.347647,35.7511643 L114.72335,35.7511643 Z M120.082466,35.7511643 L120.082466,24.7438456 C120.603785,23.9046352 121.19751,23.2483921 121.86364,22.7751164 C122.52977,22.3018408 123.253824,22.0652029 124.035803,22.0652029 C125.107403,22.0652029 125.923171,22.440896 126.483106,23.1922821 C127.043042,23.9436682 127.323009,25.0268352 127.323009,26.4417831 L127.323009,26.4417831 L127.323009,35.7511643 L128.698712,35.7511643 L128.698712,26.4417831 C128.698712,25.7196718 128.802494,25.0853848 129.010056,24.5389222 C129.217618,23.9924595 129.497586,23.5362608 129.849959,23.170326 C130.202332,22.8043912 130.607802,22.5287203 131.06637,22.3433134 C131.524938,22.1579064 132.005227,22.0652029 132.507238,22.0652029 C133.636763,22.0652029 134.505628,22.4384564 135.113834,23.1849634 C135.722039,23.9314704 136.026142,25.017077 136.026142,26.4417831 L136.026142,26.4417831 L136.026142,35.7511643 L137.416326,35.7511643 L137.416326,26.4417831 C137.416326,25.5635396 137.310132,24.7828787 137.097742,24.0998004 C136.885353,23.4167221 136.578837,22.8409847 136.178193,22.3725882 C135.77755,21.9041916 135.292434,21.5504546 134.722844,21.3113772 C134.153255,21.0722998 133.51126,20.9527611 132.79686,20.9527611 C132.294849,20.9527611 131.804905,21.0235085 131.32703,21.1650033 C130.849154,21.3064981 130.407481,21.5211799 130.00201,21.8090486 C129.59654,22.0969173 129.236926,22.4604125 128.923169,22.8995343 C128.609412,23.338656 128.365647,23.860723 128.191874,24.4657352 C127.969831,23.3630517 127.545053,22.5018851 126.917539,21.8822355 C126.290025,21.2625859 125.450122,20.9527611 124.39783,20.9527611 C123.944089,20.9527611 123.51207,21.0186294 123.101773,21.1503659 C122.691475,21.2821025 122.305313,21.4675094 121.943286,21.7065868 C121.581259,21.9456642 121.240953,22.2310934 120.922369,22.5628743 C120.603785,22.8946551 120.30451,23.2605899 120.024542,23.6606786 L120.024542,23.6606786 L119.894212,21.5528942 C119.855596,21.3089377 119.710785,21.1869594 119.45978,21.1869594 L119.45978,21.1869594 L118.706763,21.1869594 L118.706763,35.7511643 L120.082466,35.7511643 Z M141.732804,17.4397871 C141.906577,17.4397871 142.070696,17.4056332 142.225161,17.3373253 C142.379626,17.2690175 142.514782,17.176314 142.630631,17.0592149 C142.74648,16.9421158 142.840607,16.8079397 142.913012,16.6566866 C142.985418,16.5054336 143.02162,16.3419827 143.02162,16.166334 C143.02162,15.9906853 142.985418,15.8223553 142.913012,15.661344 C142.840607,15.5003327 142.74648,15.3612774 142.630631,15.2441783 C142.514782,15.1270792 142.379626,15.0343757 142.225161,14.9660679 C142.070696,14.89776 141.906577,14.8636061 141.732804,14.8636061 C141.559031,14.8636061 141.394912,14.89776 141.240447,14.9660679 C141.085982,15.0343757 140.950825,15.1270792 140.834976,15.2441783 C140.719128,15.3612774 140.627414,15.5003327 140.559836,15.661344 C140.492257,15.8223553 140.458468,15.9906853 140.458468,16.166334 C140.458468,16.3419827 140.492257,16.5054336 140.559836,16.6566866 C140.627414,16.8079397 140.719128,16.9421158 140.834976,17.0592149 C140.950825,17.176314 141.085982,17.2690175 141.240447,17.3373253 C141.394912,17.4056332 141.559031,17.4397871 141.732804,17.4397871 Z M142.413415,35.7511643 L142.413415,21.1869594 L141.037712,21.1869594 L141.037712,35.7511643 L142.413415,35.7511643 Z M150.335683,35.9853626 C150.943888,35.9853626 151.530372,35.8609448 152.095135,35.6121091 C152.659897,35.3632735 153.125705,35.0339321 153.492559,34.6240852 L153.492559,34.6240852 L153.116051,34.0093147 C153.038819,33.9117321 152.961586,33.8629408 152.884354,33.8629408 C152.816775,33.8629408 152.725062,33.9141717 152.609213,34.0166334 C152.493365,34.1190951 152.343727,34.2313151 152.1603,34.3532934 C151.976872,34.4752717 151.759656,34.5874917 151.508651,34.6899534 C151.257645,34.7924152 150.958369,34.843646 150.610823,34.843646 C150.330856,34.843646 150.070196,34.7997339 149.828845,34.7119095 C149.587493,34.6240852 149.377518,34.4874695 149.198917,34.3020625 C149.020317,34.1166556 148.880334,33.8800177 148.778966,33.592149 C148.677598,33.3042803 148.626915,32.9603016 148.626915,32.5602129 L148.626915,32.5602129 L148.626915,22.6799734 L153.159494,22.6799734 L153.159494,21.6407186 L148.626915,21.6407186 L148.626915,16.0785096 L147.975266,16.0785096 C147.869071,16.0785096 147.784598,16.1126636 147.721847,16.1809714 C147.659095,16.2492792 147.622893,16.3273453 147.613239,16.4151697 L147.613239,16.4151697 L147.265692,21.6260812 L144.803908,21.8017299 L144.803908,22.3433134 C144.803908,22.4506542 144.837697,22.5335995 144.905275,22.592149 C144.972854,22.6506986 145.05974,22.6799734 145.165935,22.6799734 L145.165935,22.6799734 L147.23673,22.6799734 L147.23673,32.6333999 C147.23673,33.7751164 147.509457,34.619206 148.054912,35.1656687 C148.600366,35.7121313 149.360623,35.9853626 150.335683,35.9853626 Z M161.125206,35.9414504 C161.665833,35.9414504 162.204047,35.88778 162.739847,35.7804391 C163.275647,35.6730982 163.777658,35.5291639 164.24588,35.3486361 C164.714101,35.1681082 165.13888,34.9509869 165.520215,34.6972721 C165.901551,34.4435573 166.208067,34.170326 166.439764,33.8775782 L166.439764,33.8775782 L166.063256,33.4091816 C165.995678,33.311599 165.899137,33.2628077 165.773634,33.2628077 C165.677094,33.2628077 165.522629,33.3433134 165.31024,33.5043247 C165.09785,33.665336 164.810642,33.8458638 164.448615,34.0459082 C164.086588,34.2459525 163.640088,34.4264804 163.109114,34.5874917 C162.578141,34.748503 161.950628,34.8290086 161.226573,34.8290086 C160.415632,34.8290086 159.681924,34.6875139 159.025448,34.4045243 C158.368972,34.1215347 157.809037,33.6994899 157.345642,33.1383899 C156.882247,32.5772899 156.525047,31.8820138 156.274042,31.0525615 C156.023036,30.2231093 155.897534,29.2619206 155.897534,28.1689953 L155.897534,28.1689953 L155.897534,27.8908849 L166.309434,27.8908849 C166.444591,27.8908849 166.543545,27.8518519 166.606297,27.7737858 C166.669048,27.6957197 166.700424,27.5493458 166.700424,27.334664 C166.700424,26.3100466 166.558026,25.4025283 166.273232,24.6121091 C165.988437,23.82169 165.592621,23.1556886 165.085783,22.6141051 C164.578945,22.0725216 163.980393,21.6602351 163.290128,21.3772455 C162.599863,21.0942559 161.84926,20.9527611 161.038319,20.9527611 C160.014989,20.9527611 159.100267,21.133289 158.294153,21.4943446 C157.48804,21.8554003 156.807429,22.3555112 156.25232,22.9946773 C155.697212,23.6338434 155.272433,24.3949878 154.977985,25.2781104 C154.683536,26.1612331 154.536312,27.1248614 154.536312,28.1689953 C154.536312,29.4082945 154.69319,30.5085385 155.006947,31.4697272 C155.320704,32.4309159 155.767204,33.2432912 156.346447,33.906853 C156.925691,34.5704147 157.620783,35.0754047 158.431724,35.421823 C159.242664,35.7682413 160.140492,35.9414504 161.125206,35.9414504 Z M165.45505,26.998004 L155.955458,26.998004 C156.042344,26.2368596 156.218531,25.5489022 156.484018,24.9341317 C156.749504,24.3193613 157.09705,23.7924152 157.526656,23.3532934 C157.956261,22.9141717 158.465513,22.5775116 159.05441,22.3433134 C159.643308,22.1091151 160.309438,21.992016 161.0528,21.992016 C161.709276,21.992016 162.307828,22.1066755 162.848455,22.3359947 C163.389082,22.5653138 163.852477,22.8946551 164.238639,23.3240186 C164.624801,23.7533821 164.924077,24.2778887 165.136467,24.8975383 C165.348856,25.5171878 165.45505,26.2173431 165.45505,26.998004 L165.45505,26.998004 Z M173.826232,35.9414504 C174.888178,35.9414504 175.846344,35.6828565 176.700728,35.1656687 C177.555112,34.6484808 178.300888,33.9507651 178.938055,33.0725216 L178.938055,33.0725216 L179.082866,35.3705921 C179.121482,35.6243069 179.261466,35.7511643 179.502818,35.7511643 L179.502818,35.7511643 L180.270315,35.7511643 L180.270315,14.4537591 L178.880131,14.4537591 L178.880131,23.0898204 C178.358812,22.3872255 177.740952,21.8529607 177.026552,21.4870259 C176.312152,21.1210912 175.467422,20.9381238 174.492362,20.9381238 C173.478686,20.9381238 172.583272,21.133289 171.806121,21.5236194 C171.028969,21.9139499 170.372493,22.4482147 169.836693,23.1264138 C169.300893,23.804613 168.895422,24.6047904 168.620282,25.5269461 C168.345141,26.4491018 168.207571,27.4420049 168.207571,28.5056554 C168.207571,30.9842537 168.702341,32.8432025 169.691882,34.0825017 C170.681423,35.3218008 172.05954,35.9414504 173.826232,35.9414504 Z M174.217221,34.8143713 C172.740151,34.8143713 171.605799,34.3045021 170.814166,33.2847638 C170.022533,32.2650255 169.626717,30.6719894 169.626717,28.5056554 C169.626717,27.5493458 169.735325,26.6735418 169.952541,25.8782435 C170.169758,25.0829452 170.493169,24.3998669 170.922774,23.8290086 C171.35238,23.2581504 171.885766,22.816589 172.522934,22.5043247 C173.160102,22.1920603 173.903464,22.0359281 174.753022,22.0359281 C175.602579,22.0359281 176.362836,22.2066977 177.033793,22.5482369 C177.70475,22.889776 178.320196,23.4752717 178.880131,24.3047239 L178.880131,24.3047239 L178.880131,31.9893546 C178.271925,32.8773564 177.58166,33.5701929 176.809336,34.0678643 C176.037011,34.5655356 175.172973,34.8143713 174.217221,34.8143713 Z M196.968121,35.7511643 L196.968121,32.6041251 L187.685745,32.6041251 L187.685745,26.6174318 L194.998694,26.6174318 L194.998694,23.5874917 L187.685745,23.5874917 L187.685745,17.7178975 L196.968121,17.7178975 L196.968121,14.5854957 L183.761371,14.5854957 L183.761371,35.7511643 L196.968121,35.7511643 Z M202.834075,35.7511643 L202.834075,14 L199.257247,14 L199.257247,35.7511643 L202.834075,35.7511643 Z M212.074122,35.9707252 C212.595441,35.9707252 213.133655,35.9316922 213.688763,35.8536261 C214.243871,35.77556 214.789325,35.6413839 215.325126,35.4510978 C215.860926,35.2608117 216.375004,35.0070969 216.867361,34.6899534 C217.359718,34.3728099 217.803805,33.9800399 218.199621,33.5116434 L218.199621,33.5116434 L217.156983,32.1942781 C217.079751,32.0869372 216.988037,32.003992 216.881842,31.9454424 C216.775648,31.8868929 216.650145,31.8576181 216.505334,31.8576181 C216.283291,31.8576181 216.054007,31.9259259 215.817483,32.0625416 C215.580958,32.1991572 215.305818,32.3504103 214.992061,32.5163007 C214.678304,32.6821912 214.31145,32.8334442 213.891498,32.9700599 C213.471547,33.1066755 212.971949,33.1749834 212.392706,33.1749834 C211.214911,33.1749834 210.268813,32.8139277 209.554413,32.0918164 C208.840013,31.369705 208.429715,30.2377467 208.323521,28.6959415 L208.323521,28.6959415 L217.504529,28.6959415 C217.668648,28.6959415 217.803805,28.6739854 217.91,28.6300732 C218.016194,28.586161 218.100667,28.5129741 218.163419,28.4105123 C218.22617,28.3080506 218.269613,28.1665558 218.293748,27.9860279 C218.317883,27.8055001 218.329951,27.5786205 218.329951,27.3053892 C218.329951,26.2222222 218.170659,25.2585939 217.852075,24.4145043 C217.533491,23.5704147 217.089405,22.8580617 216.519815,22.2774451 C215.950226,21.6968286 215.272028,21.2552672 214.485223,20.9527611 C213.698417,20.650255 212.836792,20.499002 211.900349,20.499002 C210.790132,20.499002 209.793351,20.6941672 208.910005,21.0844977 C208.026658,21.4748281 207.278469,22.0042138 206.665436,22.6726547 C206.052404,23.3410956 205.581768,24.1266356 205.25353,25.0292748 C204.925292,25.9319139 204.761173,26.8955422 204.761173,27.9201597 C204.761173,29.237525 204.949428,30.3963185 205.325936,31.3965403 C205.702444,32.396762 206.218936,33.2359725 206.875412,33.9141717 C207.531888,34.5923708 208.304212,35.1046795 209.192386,35.4510978 C210.080559,35.7975161 211.041138,35.9707252 212.074122,35.9707252 Z M215.11515,26.5149701 L208.395926,26.5149701 C208.560045,25.4220448 208.936553,24.5779552 209.525451,23.9827013 C210.114348,23.3874473 210.930116,23.0898204 211.972754,23.0898204 C212.503727,23.0898204 212.967122,23.1800843 213.362939,23.3606121 C213.758755,23.5411399 214.086993,23.787536 214.347652,24.0998004 C214.608312,24.4120648 214.801393,24.77556 214.926896,25.1902861 C215.052399,25.6050122 215.11515,26.0465735 215.11515,26.5149701 L215.11515,26.5149701 Z M223.703548,35.7511643 L223.703548,24.758483 C224.08971,24.309603 224.507248,23.955866 224.956162,23.6972721 C225.405075,23.4386782 225.885365,23.3093812 226.39703,23.3093812 C227.179008,23.3093812 227.770319,23.5387004 228.170963,23.9973387 C228.571606,24.4559769 228.771928,25.1878465 228.771928,26.1929474 L228.771928,26.1929474 L228.771928,35.7511643 L232.363237,35.7511643 L232.363237,26.1929474 C232.363237,25.7245509 232.430816,25.3098248 232.565972,24.9487691 C232.701129,24.5877135 232.88697,24.2876469 233.123494,24.0485695 C233.360019,23.8094921 233.635159,23.6265247 233.948916,23.4996673 C234.262673,23.3728099 234.602979,23.3093812 234.969833,23.3093812 C235.77112,23.3093812 236.379325,23.5508982 236.79445,24.0339321 C237.209574,24.5169661 237.417136,25.2366378 237.417136,26.1929474 L237.417136,26.1929474 L237.417136,35.7511643 L240.993965,35.7511643 L240.993965,26.1929474 C240.993965,25.2854291 240.880529,24.4803726 240.653659,23.7777778 C240.426789,23.075183 240.096137,22.479929 239.661705,21.992016 C239.227272,21.5041029 238.691472,21.133289 238.054304,20.8795742 C237.417136,20.6258594 236.688255,20.499002 235.86766,20.499002 C235.394611,20.499002 234.923976,20.5526724 234.455754,20.6600133 C233.987532,20.7673542 233.545859,20.9332446 233.130735,21.1576846 C232.71561,21.3821246 232.334275,21.6724329 231.986729,22.0286094 C231.639183,22.384786 231.349561,22.8117099 231.117864,23.3093812 C230.818588,22.4604125 230.367261,21.7797738 229.763882,21.2674651 C229.160504,20.7551564 228.390593,20.499002 227.454149,20.499002 C227.010062,20.499002 226.602179,20.5502329 226.230497,20.6526946 C225.858816,20.7551564 225.51127,20.8942116 225.187859,21.0698603 C224.864448,21.245509 224.560345,21.4553116 224.275551,21.6992681 C223.990756,21.9432247 223.718029,22.2115768 223.457369,22.5043247 L223.457369,22.5043247 L223.225672,21.3918829 C223.080861,20.9527611 222.776758,20.7332003 222.313364,20.7332003 L222.313364,20.7332003 L220.12672,20.7332003 L220.12672,35.7511643 L223.703548,35.7511643 Z M249.712692,35.9707252 C250.234011,35.9707252 250.772225,35.9316922 251.327333,35.8536261 C251.882442,35.77556 252.427896,35.6413839 252.963696,35.4510978 C253.499496,35.2608117 254.013575,35.0070969 254.505932,34.6899534 C254.998289,34.3728099 255.442375,33.9800399 255.838192,33.5116434 L255.838192,33.5116434 L254.795553,32.1942781 C254.718321,32.0869372 254.626607,32.003992 254.520413,31.9454424 C254.414218,31.8868929 254.288715,31.8576181 254.143905,31.8576181 C253.921861,31.8576181 253.692577,31.9259259 253.456053,32.0625416 C253.219529,32.1991572 252.944388,32.3504103 252.630631,32.5163007 C252.316874,32.6821912 251.95002,32.8334442 251.530069,32.9700599 C251.110117,33.1066755 250.61052,33.1749834 250.031276,33.1749834 C248.853481,33.1749834 247.907383,32.8139277 247.192983,32.0918164 C246.478583,31.369705 246.068286,30.2377467 245.962091,28.6959415 L245.962091,28.6959415 L255.143099,28.6959415 C255.307218,28.6959415 255.442375,28.6739854 255.54857,28.6300732 C255.654765,28.586161 255.739238,28.5129741 255.801989,28.4105123 C255.86474,28.3080506 255.908184,28.1665558 255.932319,27.9860279 C255.956454,27.8055001 255.968521,27.5786205 255.968521,27.3053892 C255.968521,26.2222222 255.809229,25.2585939 255.490646,24.4145043 C255.172062,23.5704147 254.727975,22.8580617 254.158386,22.2774451 C253.588796,21.6968286 252.910599,21.2552672 252.123793,20.9527611 C251.336987,20.650255 250.475363,20.499002 249.538919,20.499002 C248.428703,20.499002 247.431921,20.6941672 246.548575,21.0844977 C245.665229,21.4748281 244.917039,22.0042138 244.304007,22.6726547 C243.690974,23.3410956 243.220339,24.1266356 242.892101,25.0292748 C242.563863,25.9319139 242.399744,26.8955422 242.399744,27.9201597 C242.399744,29.237525 242.587998,30.3963185 242.964506,31.3965403 C243.341014,32.396762 243.857506,33.2359725 244.513982,33.9141717 C245.170458,34.5923708 245.942783,35.1046795 246.830956,35.4510978 C247.719129,35.7975161 248.679708,35.9707252 249.712692,35.9707252 Z M252.75372,26.5149701 L246.034496,26.5149701 C246.198615,25.4220448 246.575124,24.5779552 247.164021,23.9827013 C247.752919,23.3874473 248.568686,23.0898204 249.611325,23.0898204 C250.142298,23.0898204 250.605693,23.1800843 251.001509,23.3606121 C251.397325,23.5411399 251.725563,23.787536 251.986223,24.0998004 C252.246882,24.4120648 252.439963,24.77556 252.565466,25.1902861 C252.690969,25.6050122 252.75372,26.0465735 252.75372,26.5149701 L252.75372,26.5149701 Z M261.342118,35.7511643 L261.342118,24.8902196 C261.824821,24.4023065 262.336486,24.0168552 262.877113,23.7338656 C263.417741,23.450876 263.996984,23.3093812 264.614844,23.3093812 C265.454747,23.3093812 266.084674,23.5606565 266.504625,24.0632069 C266.924577,24.5657574 267.134553,25.2756709 267.134553,26.1929474 L267.134553,26.1929474 L267.134553,35.7511643 L270.711381,35.7511643 L270.711381,26.1929474 C270.711381,25.353737 270.602773,24.5852739 270.385556,23.8875582 C270.16834,23.1898425 269.849756,22.5897095 269.429805,22.087159 C269.009853,21.5846086 268.486121,21.1942781 267.858607,20.9161677 C267.231093,20.6380572 266.511866,20.499002 265.700925,20.499002 C265.198914,20.499002 264.735519,20.5477933 264.310741,20.6453759 C263.885962,20.7429585 263.487732,20.8844533 263.116051,21.0698603 C262.74437,21.2552672 262.391997,21.4748281 262.058932,21.7285429 C261.725867,21.9822577 261.409697,22.2652473 261.110421,22.5775116 L261.110421,22.5775116 L260.864242,21.3918829 C260.719431,20.9527611 260.415329,20.7332003 259.951934,20.7332003 L259.951934,20.7332003 L257.76529,20.7332003 L257.76529,35.7511643 L261.342118,35.7511643 Z M277.996481,35.9853626 C278.720535,35.9853626 279.420454,35.8731426 280.096238,35.6487026 C280.772022,35.4242626 281.370574,35.0924817 281.891893,34.6533599 L281.891893,34.6533599 L280.820293,32.8968729 C280.74306,32.789532 280.670655,32.7090264 280.603076,32.655356 C280.535498,32.6016855 280.448612,32.5748503 280.342417,32.5748503 C280.25553,32.5748503 280.168644,32.6016855 280.081757,32.655356 C279.994871,32.7090264 279.895917,32.7651364 279.784895,32.823686 C279.673873,32.8822355 279.543544,32.9383455 279.393906,32.992016 C279.244268,33.0456864 279.058427,33.0725216 278.836384,33.0725216 C278.450222,33.0725216 278.141292,32.9407851 277.909594,32.677312 C277.677897,32.413839 277.562048,32.0479042 277.562048,31.5795077 L277.562048,31.5795077 L277.562048,23.4411178 L281.471942,23.4411178 L281.471942,20.8649368 L277.562048,20.8649368 L277.562048,16.1370592 L275.708469,16.1370592 C275.49608,16.1370592 275.319894,16.1907297 275.17991,16.2980705 C275.039926,16.4054114 274.950626,16.5566644 274.91201,16.7518297 L274.91201,16.7518297 L274.158993,20.8502994 L271.769614,21.245509 L271.769614,22.6799734 C271.769614,22.9336882 271.839606,23.1239743 271.97959,23.2508317 C272.119574,23.3776891 272.286106,23.4411178 272.479187,23.4411178 L272.479187,23.4411178 L273.98522,23.4411178 L273.98522,31.8283433 C273.98522,33.1261921 274.332766,34.1434908 275.027858,34.8802395 C275.72295,35.6169882 276.712491,35.9853626 277.996481,35.9853626 Z M287.062755,35.9853626 C288.018506,35.9853626 288.86565,35.8609448 289.604185,35.6121091 C290.342721,35.3632735 290.962994,35.0168552 291.465005,34.5728543 C291.967016,34.1288534 292.348351,33.6019073 292.609011,32.992016 C292.86967,32.3821246 293,31.7161233 293,30.994012 C293,30.3889998 292.896219,29.8718119 292.688657,29.4424484 C292.481094,29.0130849 292.205954,28.6447106 291.863235,28.3373253 C291.520516,28.0299401 291.13194,27.7762253 290.697507,27.576181 C290.263075,27.3761366 289.818988,27.1980483 289.365247,27.0419162 C288.911507,26.885784 288.46742,26.7418496 288.032987,26.6101131 C287.598555,26.4783766 287.209979,26.3295631 286.86726,26.1636727 C286.524541,25.9977822 286.2494,25.8050566 286.041838,25.5854957 C285.834276,25.3659348 285.730495,25.095143 285.730495,24.7731204 C285.730495,24.2852074 285.93323,23.8899978 286.3387,23.5874917 C286.744171,23.2849856 287.299279,23.1337325 288.004025,23.1337325 C288.457766,23.1337325 288.851169,23.1825238 289.184234,23.2801065 C289.517299,23.3776891 289.814161,23.4874695 290.074821,23.6094478 C290.33548,23.731426 290.564764,23.8412065 290.762672,23.9387891 C290.96058,24.0363717 291.146421,24.085163 291.320194,24.085163 C291.484313,24.085163 291.61947,24.0534487 291.725664,23.99002 C291.831859,23.9265913 291.933227,23.8168108 292.029767,23.6606786 L292.029767,23.6606786 L292.840708,22.3579508 C292.280773,21.8017299 291.580854,21.3528499 290.740951,21.0113107 C289.901048,20.6697716 288.969431,20.499002 287.946101,20.499002 C287.028966,20.499002 286.220438,20.6234198 285.520519,20.8722555 C284.8206,21.1210912 284.236529,21.452872 283.768308,21.8675981 C283.300086,22.2823242 282.945299,22.7677977 282.703948,23.3240186 C282.462596,23.8802395 282.341921,24.4657352 282.341921,25.0805057 C282.341921,25.7440674 282.445702,26.3100466 282.653264,26.7784431 C282.860826,27.2468397 283.135967,27.6420492 283.478686,27.9640719 C283.821405,28.2860945 284.212394,28.5520071 284.651654,28.7618097 C285.090914,28.9716123 285.539827,29.1545797 285.998395,29.3107119 C286.456963,29.4668441 286.905876,29.6107784 287.345136,29.742515 C287.784396,29.8742515 288.175385,30.023065 288.518104,30.1889554 C288.860823,30.3548459 289.135964,30.5500111 289.343526,30.7744511 C289.551088,30.9988911 289.654869,31.2867598 289.654869,31.6380572 C289.654869,31.8722555 289.609012,32.0991351 289.517299,32.3186959 C289.425585,32.5382568 289.280774,32.7309825 289.082866,32.8968729 C288.884958,33.0627634 288.633953,33.1969395 288.32985,33.2994012 C288.025747,33.4018629 287.661306,33.4530938 287.236528,33.4530938 C286.695901,33.4530938 286.2494,33.3896651 285.897027,33.2628077 C285.544654,33.1359503 285.238138,32.9993347 284.977478,32.8529607 C284.716819,32.7065868 284.487535,32.5699712 284.289627,32.4431138 C284.091719,32.3162564 283.881743,32.2528277 283.6597,32.2528277 C283.437656,32.2528277 283.254229,32.2967399 283.109418,32.3845642 C282.964607,32.4723886 282.839105,32.599246 282.73291,32.7651364 L282.73291,32.7651364 L281.907488,34.1410512 C282.19711,34.4045243 282.532588,34.6484808 282.913924,34.8729208 C283.295259,35.0973608 283.710383,35.2925261 284.159297,35.4584165 C284.608211,35.6243069 285.076432,35.7536039 285.563962,35.8463074 C286.051492,35.9390109 286.55109,35.9853626 287.062755,35.9853626 Z" id="UnlimitedElements" fill="#000000" fill-rule="nonzero"></path>
        <path d="M222.468971,53 C222.794644,53 222.994391,52.840302 223.068211,52.5209059 L223.068211,52.5209059 L223.367831,51.1986063 L224.025692,45.883856 L225.628008,45.883856 L225.738737,45.0662021 L224.090827,45.0662021 L224.168989,44.4721254 C224.203727,44.1953155 224.262348,43.9610918 224.344853,43.7694541 C224.427357,43.5778165 224.529401,43.4223771 224.650986,43.3031359 C224.772571,43.1838947 224.912611,43.0976578 225.071105,43.0444251 C225.2296,42.9911924 225.402207,42.9645761 225.588927,42.9645761 C225.641035,42.9645761 225.689886,42.9656407 225.73548,42.96777 C225.781075,42.9698993 225.823412,42.970964 225.862493,42.970964 C225.940655,42.970964 226.004704,42.9635114 226.054641,42.9486063 C226.104578,42.9337011 226.133888,42.8964383 226.142573,42.8368177 L226.142573,42.8368177 L226.253302,42.2491289 C226.031844,42.1639566 225.786503,42.1213705 225.517279,42.1213705 C225.200289,42.1213705 224.903926,42.1724739 224.628189,42.2746806 C224.352452,42.3768873 224.107111,42.5270035 223.892166,42.725029 C223.677221,42.9230546 223.499186,43.1657956 223.35806,43.453252 C223.216935,43.7407085 223.12249,44.0696864 223.074724,44.4401858 L223.074724,44.4401858 L222.996562,45.0662021 L222.052108,45.0662021 L222,45.5644599 C222,45.6368564 222.021712,45.6922184 222.065135,45.7305459 C222.108558,45.7688734 222.167179,45.7986837 222.240999,45.8199768 L222.240999,45.8199768 L222.892347,45.9030197 L222.013027,53 L222.468971,53 Z M228.344129,51.4988386 C228.817442,51.4988386 229.260358,51.3934379 229.672879,51.1826365 C230.085399,50.9718351 230.442555,50.6854433 230.744346,50.3234611 C231.046137,49.9614789 231.283879,49.5398761 231.457572,49.0586527 C231.631265,48.5774293 231.718111,48.0663957 231.718111,47.5255517 C231.718111,47.1039489 231.657319,46.7259969 231.535734,46.3916957 C231.414149,46.0573945 231.244798,45.7752613 231.027682,45.5452962 C230.810566,45.315331 230.552198,45.1396632 230.252578,45.0182927 C229.952958,44.8969222 229.622942,44.8362369 229.262529,44.8362369 C228.784874,44.8362369 228.340872,44.940573 227.930523,45.1492451 C227.520174,45.3579172 227.164103,45.6432443 226.862312,46.0052265 C226.560521,46.3672087 226.322779,46.7888115 226.149086,47.2700348 C225.975394,47.7512582 225.888547,48.2644212 225.888547,48.8095238 C225.888547,49.2353852 225.94934,49.6144019 226.070925,49.9465738 C226.192509,50.2787456 226.36186,50.5598142 226.578976,50.7897793 C226.796092,51.0197445 227.05446,51.1954123 227.35408,51.3167828 C227.6537,51.4381533 227.983716,51.4988386 228.344129,51.4988386 Z M228.448344,50.6109175 C227.992401,50.6109175 227.646101,50.4586721 227.409445,50.1541812 C227.172788,49.8496903 227.05446,49.3993419 227.05446,48.8031359 C227.05446,48.3985676 227.104397,48.0110337 227.20427,47.6405343 C227.304143,47.2700348 227.445269,46.9431862 227.627646,46.6599884 C227.810024,46.3767906 228.030396,46.151084 228.288764,45.9828688 C228.547132,45.8146535 228.836982,45.7305459 229.158314,45.7305459 C229.609915,45.7305459 229.955129,45.8817267 230.193957,46.1840883 C230.432785,46.4864499 230.552198,46.9357336 230.552198,47.5319396 C230.552198,47.9365079 230.502262,48.3240418 230.402388,48.6945412 C230.302515,49.0650407 230.16139,49.3918893 229.979012,49.6750871 C229.796635,49.9582849 229.575176,50.1850561 229.314637,50.3554007 C229.054098,50.5257453 228.765334,50.6109175 228.448344,50.6109175 Z M233.672155,51.4094077 L234.03691,48.4070848 C234.258368,47.5894309 234.534105,46.9793844 234.864122,46.5769454 C235.194138,46.1745064 235.569749,45.9732869 235.990954,45.9732869 C236.182016,45.9732869 236.379591,46.0137437 236.58368,46.0946574 L236.58368,46.0946574 L236.792111,45.0023229 C236.609734,44.9256678 236.427357,44.8873403 236.244979,44.8873403 C235.858513,44.8873403 235.490501,45.0491676 235.140944,45.3728223 C234.791388,45.696477 234.475484,46.1564073 234.193233,46.7526132 L234.193233,46.7526132 L234.284422,45.5772358 C234.284422,45.5729772 234.285508,45.558072 234.287679,45.5325203 C234.28985,45.5069686 234.292021,45.4771583 234.294192,45.4430894 C234.296363,45.4090205 234.298534,45.3760163 234.300706,45.3440767 C234.302877,45.312137 234.303962,45.28765 234.303962,45.2706156 C234.303962,45.155633 234.269224,45.0704607 234.199747,45.0150987 C234.13027,44.9597367 234.034739,44.9320557 233.913154,44.9320557 L233.913154,44.9320557 L233.333454,44.9320557 L232.538809,51.4094077 L233.672155,51.4094077 Z M245.116338,51.4094077 L245.240094,50.4384437 L241.143116,50.4384437 L241.540438,47.257259 L244.842772,47.257259 L244.966528,46.3182346 L241.65768,46.3182346 L242.048489,43.2328688 L246.132441,43.2328688 L246.256197,42.2555168 L240.947711,42.2555168 L239.794825,51.4094077 L245.116338,51.4094077 Z M247.825945,51.4094077 L248.991858,42 L247.851999,42 L246.686086,51.4094077 L247.825945,51.4094077 Z M252.020626,51.4988386 C252.298534,51.4988386 252.557988,51.4743515 252.798987,51.4253775 C253.039986,51.3764034 253.271214,51.2986837 253.492672,51.1922184 C253.714131,51.085753 253.930161,50.9526713 254.140764,50.7929733 C254.351366,50.6332753 254.567396,50.440573 254.788855,50.2148664 L254.788855,50.2148664 L254.502262,49.8635308 C254.437127,49.7911343 254.365479,49.7549361 254.287317,49.7549361 C254.21784,49.7549361 254.148363,49.7762292 254.078885,49.8188153 C254.009408,49.8614015 253.933418,49.9135695 253.850914,49.9753194 C253.76841,50.0370693 253.678306,50.1052071 253.580604,50.1797329 C253.482902,50.2542586 253.370002,50.3223964 253.241903,50.3841463 C253.113805,50.4458962 252.968337,50.4980643 252.8055,50.5406504 C252.642663,50.5832365 252.457029,50.6045296 252.248598,50.6045296 C251.736204,50.6045296 251.352994,50.4544135 251.098969,50.1541812 C250.844943,49.8539489 250.71793,49.4185056 250.71793,48.8478513 L250.71793,48.8478513 L250.71793,48.710511 C250.71793,48.6657956 250.720101,48.6200155 250.724444,48.5731707 C251.584223,48.4879985 252.287679,48.3751452 252.834811,48.2346109 C253.381943,48.0940767 253.811833,47.9290554 254.12448,47.739547 C254.437127,47.5500387 254.652072,47.337108 254.769314,47.1007549 C254.886557,46.8644019 254.945178,46.6056911 254.945178,46.3246225 C254.945178,46.1670538 254.907183,46.0009679 254.831192,45.8263647 C254.755202,45.6517615 254.639045,45.4920635 254.482721,45.3472706 C254.326398,45.2024777 254.126651,45.0832365 253.883481,44.989547 C253.640311,44.8958575 253.351547,44.8490128 253.017188,44.8490128 C252.66546,44.8490128 252.33653,44.9022455 252.030396,45.0087108 C251.724263,45.1151762 251.444183,45.2610337 251.190157,45.4462834 C250.936132,45.6315331 250.710331,45.8519164 250.512756,46.1074332 C250.31518,46.3629501 250.148001,46.63976 250.011218,46.937863 C249.874435,47.2359659 249.770219,47.5500387 249.698571,47.8800813 C249.626922,48.2101239 249.591098,48.5412311 249.591098,48.873403 C249.591098,49.2737127 249.647548,49.6356949 249.760449,49.9593496 C249.873349,50.2830043 250.034015,50.5587495 250.242446,50.7865854 C250.450878,51.0144212 250.704903,51.190089 251.004523,51.3135889 C251.304143,51.4370887 251.642844,51.4988386 252.020626,51.4988386 Z M250.835173,47.8193961 C250.90465,47.5170345 251.002352,47.2349013 251.128279,46.9729965 C251.254207,46.7110918 251.406188,46.4832559 251.584223,46.289489 C251.762258,46.095722 251.966347,45.9434766 252.19649,45.8327526 C252.426633,45.7220286 252.678487,45.6666667 252.952054,45.6666667 C253.125746,45.6666667 253.273385,45.6890244 253.39497,45.7337398 C253.516555,45.7784553 253.615343,45.8348819 253.691333,45.9030197 C253.767324,45.9711576 253.822689,46.046748 253.857427,46.1297909 C253.892166,46.2128339 253.909535,46.2926829 253.909535,46.369338 C253.909535,46.5226481 253.874796,46.6695703 253.805319,46.8101045 C253.735842,46.9506388 253.592546,47.0815912 253.37543,47.2029617 C253.158314,47.3243322 252.847838,47.4371854 252.444002,47.5415215 C252.040166,47.6458575 251.50389,47.7384824 250.835173,47.8193961 Z M256.808033,51.4094077 L257.218382,48.0365854 C257.339967,47.687379 257.474579,47.3733062 257.622218,47.094367 C257.769857,46.8154278 257.929437,46.5790747 258.100959,46.3853078 C258.272481,46.1915408 258.454858,46.043554 258.648091,45.9413473 C258.841324,45.8391405 259.042157,45.7880372 259.250588,45.7880372 C259.506785,45.7880372 259.685906,45.8604336 259.78795,46.0052265 C259.889995,46.1500194 259.941017,46.3735966 259.941017,46.6759582 C259.941017,46.7653891 259.936675,46.8612079 259.92799,46.9634146 C259.919305,47.0656214 259.908449,47.174216 259.895422,47.2891986 L259.895422,47.2891986 L259.393885,51.4094077 L260.540257,51.4094077 L260.963633,47.8896632 C261.080876,47.5489741 261.214402,47.2476771 261.364212,46.9857724 C261.514022,46.7238676 261.675773,46.504549 261.849466,46.3278165 C262.023159,46.151084 262.203365,46.0169377 262.390085,45.9253775 C262.576805,45.8338173 262.763525,45.7880372 262.950244,45.7880372 C263.206441,45.7880372 263.388819,45.8636276 263.497377,46.0148084 C263.605935,46.1659892 263.660213,46.4012776 263.660213,46.7206736 C263.660213,46.8910182 263.647187,47.0805265 263.621133,47.2891986 L263.621133,47.2891986 L263.126108,51.4094077 L264.265967,51.4094077 L264.760991,47.2891986 C264.774018,47.174216 264.784874,47.0634921 264.793559,46.9570267 C264.802244,46.8505614 264.806586,46.7483546 264.806586,46.6504065 C264.806586,46.0669764 264.686086,45.6198219 264.445088,45.3089431 C264.204089,44.9980643 263.84042,44.8426249 263.35408,44.8426249 C262.902479,44.8426249 262.471504,44.9842238 262.061154,45.2674216 C261.650805,45.5506194 261.280622,45.988192 260.950606,46.5801394 C260.950606,46.0222609 260.844219,45.5932056 260.631446,45.2929733 C260.418672,44.992741 260.088656,44.8426249 259.641397,44.8426249 C259.211507,44.8426249 258.803329,44.9799652 258.416863,45.2546458 C258.030396,45.5293264 257.674326,45.9349593 257.348652,46.4715447 L257.348652,46.4715447 L257.439841,45.315331 C257.439841,45.0598142 257.309571,44.9320557 257.049032,44.9320557 L257.049032,44.9320557 L256.469332,44.9320557 L255.674688,51.4094077 L256.808033,51.4094077 Z M268.232676,51.4988386 C268.510584,51.4988386 268.770038,51.4743515 269.011037,51.4253775 C269.252035,51.3764034 269.483264,51.2986837 269.704722,51.1922184 C269.926181,51.085753 270.142211,50.9526713 270.352813,50.7929733 C270.563416,50.6332753 270.779446,50.440573 271.000905,50.2148664 L271.000905,50.2148664 L270.714312,49.8635308 C270.649177,49.7911343 270.577528,49.7549361 270.499367,49.7549361 C270.42989,49.7549361 270.360413,49.7762292 270.290935,49.8188153 C270.221458,49.8614015 270.145468,49.9135695 270.062964,49.9753194 C269.98046,50.0370693 269.890356,50.1052071 269.792654,50.1797329 C269.694952,50.2542586 269.582052,50.3223964 269.453953,50.3841463 C269.325855,50.4458962 269.180387,50.4980643 269.01755,50.5406504 C268.854713,50.5832365 268.669079,50.6045296 268.460648,50.6045296 C267.948254,50.6045296 267.565044,50.4544135 267.311019,50.1541812 C267.056993,49.8539489 266.92998,49.4185056 266.92998,48.8478513 L266.92998,48.8478513 L266.92998,48.710511 C266.92998,48.6657956 266.932151,48.6200155 266.936494,48.5731707 C267.796273,48.4879985 268.499729,48.3751452 269.046861,48.2346109 C269.593993,48.0940767 270.023883,47.9290554 270.33653,47.739547 C270.649177,47.5500387 270.864122,47.337108 270.981364,47.1007549 C271.098607,46.8644019 271.157228,46.6056911 271.157228,46.3246225 C271.157228,46.1670538 271.119233,46.0009679 271.043242,45.8263647 C270.967252,45.6517615 270.851095,45.4920635 270.694771,45.3472706 C270.538448,45.2024777 270.338701,45.0832365 270.095531,44.989547 C269.852361,44.8958575 269.563597,44.8490128 269.229238,44.8490128 C268.87751,44.8490128 268.54858,44.9022455 268.242446,45.0087108 C267.936313,45.1151762 267.656233,45.2610337 267.402207,45.4462834 C267.148182,45.6315331 266.922381,45.8519164 266.724806,46.1074332 C266.52723,46.3629501 266.360051,46.63976 266.223268,46.937863 C266.086485,47.2359659 265.982269,47.5500387 265.910621,47.8800813 C265.838972,48.2101239 265.803148,48.5412311 265.803148,48.873403 C265.803148,49.2737127 265.859598,49.6356949 265.972499,49.9593496 C266.085399,50.2830043 266.246065,50.5587495 266.454496,50.7865854 C266.662927,51.0144212 266.916953,51.190089 267.216573,51.3135889 C267.516193,51.4370887 267.854894,51.4988386 268.232676,51.4988386 Z M267.047223,47.8193961 C267.1167,47.5170345 267.214402,47.2349013 267.340329,46.9729965 C267.466257,46.7110918 267.618238,46.4832559 267.796273,46.289489 C267.974308,46.095722 268.178397,45.9434766 268.40854,45.8327526 C268.638683,45.7220286 268.890537,45.6666667 269.164103,45.6666667 C269.337796,45.6666667 269.485435,45.6890244 269.60702,45.7337398 C269.728605,45.7784553 269.827393,45.8348819 269.903383,45.9030197 C269.979374,45.9711576 270.034739,46.046748 270.069477,46.1297909 C270.104216,46.2128339 270.121585,46.2926829 270.121585,46.369338 C270.121585,46.5226481 270.086846,46.6695703 270.017369,46.8101045 C269.947892,46.9506388 269.804596,47.0815912 269.58748,47.2029617 C269.370364,47.3243322 269.059888,47.4371854 268.656052,47.5415215 C268.252216,47.6458575 267.71594,47.7384824 267.047223,47.8193961 Z M273.046137,51.4094077 L273.423919,48.1196283 C273.545504,47.7661634 273.692057,47.4457027 273.863579,47.1582462 C274.0351,46.8707898 274.220735,46.6259195 274.420481,46.4236353 C274.620228,46.2213511 274.827574,46.0648471 275.042519,45.9541231 C275.257463,45.8433991 275.469151,45.7880372 275.677583,45.7880372 C275.959834,45.7880372 276.167179,45.8721448 276.29962,46.04036 C276.432061,46.2085753 276.498281,46.4672861 276.498281,46.8164925 C276.498281,46.8888889 276.495024,46.9644793 276.488511,47.0432636 C276.481997,47.122048 276.474398,47.2040263 276.465714,47.2891986 L276.465714,47.2891986 L275.970689,51.4094077 L277.130089,51.4094077 L277.625113,47.2891986 C277.63814,47.1912505 277.646825,47.097561 277.651167,47.0081301 C277.655509,46.9186992 277.65768,46.8313976 277.65768,46.7462253 C277.65768,46.1244677 277.521983,45.6517615 277.250588,45.3281069 C276.979193,45.0044522 276.598155,44.8426249 276.107472,44.8426249 C275.63416,44.8426249 275.17713,44.9874177 274.736385,45.2770035 C274.29564,45.5665892 273.899403,45.9967093 273.547675,46.5673635 L273.547675,46.5673635 L273.645377,45.315331 C273.645377,45.0598142 273.515108,44.9320557 273.254568,44.9320557 L273.254568,44.9320557 L272.674869,44.9320557 L271.886738,51.4094077 L273.046137,51.4094077 Z M280.686448,51.5116144 C280.960014,51.5116144 281.232495,51.4594464 281.50389,51.3551103 C281.775285,51.2507743 282.015198,51.1070461 282.223629,50.9239257 L282.223629,50.9239257 L281.982631,50.3809524 C281.960919,50.3426249 281.940293,50.3149439 281.920753,50.2979094 C281.901212,50.280875 281.874073,50.2723577 281.839334,50.2723577 C281.804596,50.2723577 281.765515,50.2883275 281.722092,50.3202671 C281.678668,50.3522067 281.625475,50.3873403 281.562511,50.4256678 C281.499548,50.4639954 281.424643,50.4991289 281.337796,50.5310685 C281.25095,50.5630081 281.151077,50.5789779 281.038176,50.5789779 C280.860141,50.5789779 280.720101,50.5268099 280.618057,50.4224739 C280.516012,50.3181378 280.46499,50.1573751 280.46499,49.9401858 C280.46499,49.92741 280.466076,49.9082462 280.468247,49.8826945 C280.470418,49.8571429 280.47476,49.8124274 280.481274,49.7485482 C280.487787,49.684669 280.496472,49.5994967 280.507328,49.4930314 C280.518183,49.386566 280.534467,49.2460317 280.556179,49.0714286 L280.556179,49.0714286 L280.953501,45.8902439 L282.6926,45.8902439 L282.790302,45.0662021 L281.057717,45.0662021 L281.34431,42.8368177 L280.732043,42.8368177 C280.662566,42.8368177 280.603944,42.8570461 280.556179,42.8975029 C280.508413,42.9379597 280.475846,42.9901278 280.458477,43.054007 L280.458477,43.054007 L279.969966,45.0534262 L278.953863,45.1875726 C278.949521,45.2344173 278.944093,45.2833914 278.937579,45.3344948 C278.931066,45.3855981 278.924552,45.4356369 278.918039,45.4846109 C278.911525,45.533585 278.906097,45.5772358 278.901755,45.6155633 C278.897413,45.6538908 278.895242,45.6794425 278.895242,45.6922184 C278.895242,45.7603562 278.913696,45.8103949 278.950606,45.8423345 C278.987516,45.8742741 279.034196,45.8902439 279.090646,45.8902439 L279.090646,45.8902439 L279.826669,45.8902439 L279.41632,49.1289199 C279.390266,49.3290747 279.370726,49.4909021 279.357699,49.6144019 C279.344672,49.7379017 279.334901,49.8379791 279.328388,49.9146341 C279.321874,49.9912892 279.317532,50.0498451 279.315361,50.090302 C279.31319,50.1307588 279.312104,50.1637631 279.312104,50.1893148 C279.320789,50.6194348 279.446716,50.947348 279.689886,51.1730546 C279.933056,51.3987611 280.265243,51.5116144 280.686448,51.5116144 Z M285.552017,51.4988386 C286.02533,51.4988386 286.468247,51.3934379 286.880767,51.1826365 C287.293287,50.9718351 287.650443,50.6854433 287.952234,50.3234611 C288.254026,49.9614789 288.491768,49.5398761 288.66546,49.0586527 C288.839153,48.5774293 288.926,48.0663957 288.926,47.5255517 C288.926,47.1039489 288.865207,46.7259969 288.743622,46.3916957 C288.622037,46.0573945 288.452687,45.7752613 288.235571,45.5452962 C288.018455,45.315331 287.760087,45.1396632 287.460467,45.0182927 C287.160847,44.8969222 286.83083,44.8362369 286.470418,44.8362369 C285.992763,44.8362369 285.548761,44.940573 285.138411,45.1492451 C284.728062,45.3579172 284.371992,45.6432443 284.070201,46.0052265 C283.76841,46.3672087 283.530668,46.7888115 283.356975,47.2700348 C283.183282,47.7512582 283.096436,48.2644212 283.096436,48.8095238 C283.096436,49.2353852 283.157228,49.6144019 283.278813,49.9465738 C283.400398,50.2787456 283.569749,50.5598142 283.786864,50.7897793 C284.00398,51.0197445 284.262348,51.1954123 284.561969,51.3167828 C284.861589,51.4381533 285.191605,51.4988386 285.552017,51.4988386 Z M285.656233,50.6109175 C285.200289,50.6109175 284.85399,50.4586721 284.617333,50.1541812 C284.380677,49.8496903 284.262348,49.3993419 284.262348,48.8031359 C284.262348,48.3985676 284.312285,48.0110337 284.412158,47.6405343 C284.512032,47.2700348 284.653157,46.9431862 284.835535,46.6599884 C285.017912,46.3767906 285.238285,46.151084 285.496653,45.9828688 C285.755021,45.8146535 286.044871,45.7305459 286.366202,45.7305459 C286.817804,45.7305459 287.163018,45.8817267 287.401845,46.1840883 C287.640673,46.4864499 287.760087,46.9357336 287.760087,47.5319396 C287.760087,47.9365079 287.71015,48.3240418 287.610277,48.6945412 C287.510403,49.0650407 287.369278,49.3918893 287.186901,49.6750871 C287.004523,49.9582849 286.783065,50.1850561 286.522526,50.3554007 C286.261987,50.5257453 285.973222,50.6109175 285.656233,50.6109175 Z M290.880043,51.4094077 L291.244798,48.4070848 C291.466257,47.5894309 291.741994,46.9793844 292.07201,46.5769454 C292.402026,46.1745064 292.777637,45.9732869 293.198842,45.9732869 C293.389904,45.9732869 293.58748,46.0137437 293.791569,46.0946574 L293.791569,46.0946574 L294,45.0023229 C293.817623,44.9256678 293.635245,44.8873403 293.452868,44.8873403 C293.066401,44.8873403 292.69839,45.0491676 292.348833,45.3728223 C291.999276,45.696477 291.683373,46.1564073 291.401122,46.7526132 L291.401122,46.7526132 L291.49231,45.5772358 C291.49231,45.5729772 291.493396,45.558072 291.495567,45.5325203 C291.497738,45.5069686 291.49991,45.4771583 291.502081,45.4430894 C291.504252,45.4090205 291.506423,45.3760163 291.508594,45.3440767 C291.510765,45.312137 291.511851,45.28765 291.511851,45.2706156 C291.511851,45.155633 291.477112,45.0704607 291.407635,45.0150987 C291.338158,44.9597367 291.242627,44.9320557 291.121042,44.9320557 L291.121042,44.9320557 L290.541343,44.9320557 L289.746698,51.4094077 L290.880043,51.4094077 Z" id="forElementor" fill="#000000" fill-rule="nonzero" opacity="0.5"></path>
        <text id="Pro" font-family="Lato-Italic, Lato" font-size="13" font-style="italic" font-weight="normal" fill="#FFFFFF">
            <tspan x="73" y="51">Pro Version</tspan>
        </text>
    </g>
</svg>