<svg width="235" height="50" viewBox="0 0 235 50" fill="none" xmlns="http://www.w3.org/2000/svg">
<g clip-path="url(#clip0_3358_439)">
<path d="M25.1639 0C11.2624 0 0 11.1913 0 25.0049C0 38.8185 11.2624 50.0097 25.1639 50.0097C39.0653 50.0097 50.3277 38.8185 50.3277 25.0049C50.3277 11.1913 39.0555 0 25.1639 0ZM28.7054 30.6687C28.7054 36.0694 24.4183 40.466 19.15 40.466C16.5993 40.466 14.1958 39.4424 12.3906 37.5999C10.5855 35.7477 9.59464 33.2911 9.59464 30.6687V21.9049C9.59464 20.696 10.5463 19.7114 11.7333 19.7114C12.9204 19.7114 13.872 20.696 13.872 21.9049V30.6687C13.872 32.1213 14.4214 33.4763 15.4221 34.4999C16.4227 35.5235 17.7471 36.0889 19.1598 36.0889C22.0736 36.0889 24.4477 33.6615 24.4477 30.6687V21.9049C24.4477 20.696 25.3993 19.7114 26.5864 19.7114C27.7734 19.7114 28.7251 20.696 28.7251 21.9049V30.6687H28.7054ZM37.8096 32.6184H33.0809C31.9037 32.6184 30.952 31.6144 30.952 30.3763C30.952 29.1382 31.9037 28.1341 33.0809 28.1341H37.8096C38.9868 28.1341 39.9384 29.1382 39.9384 30.3763C39.9384 31.6144 38.9868 32.6184 37.8096 32.6184ZM37.8096 24.2055H33.0809C31.9037 24.2055 30.952 23.2014 30.952 21.9633C30.952 20.7253 31.9037 19.7212 33.0809 19.7212H37.8096C38.9868 19.7212 39.9384 20.7253 39.9384 21.9633C39.9384 23.2014 38.9868 24.2055 37.8096 24.2055ZM37.839 16.163H26.3215C23.447 16.163 21.1121 18.5514 21.1121 21.4954V29.9084C21.1121 31.0977 20.1703 32.0628 19.0127 32.0628C17.8551 32.0628 16.9133 31.0977 16.9133 29.9084V21.4954C16.9133 16.1825 21.1416 11.8639 26.3313 11.8639H37.8488C39.0064 11.8639 39.9482 12.829 39.9482 14.0183C39.9482 15.2076 39.0064 16.1727 37.8488 16.1727L37.839 16.163Z" fill="white"/>
<path d="M64.5625 28.6118C65.5239 28.6118 66.3774 28.446 67.1524 28.1146C67.9275 27.7831 68.575 27.3152 69.1047 26.7303C69.6443 26.1454 70.0563 25.4533 70.3408 24.6636C70.6253 23.874 70.7725 23.0259 70.7725 22.1193V11.9126H69.5953V22.1193C69.5953 22.8894 69.4775 23.6108 69.2519 24.2737C69.0262 24.9366 68.6927 25.5117 68.261 26.0089C67.8294 26.4963 67.2996 26.8863 66.6815 27.1592C66.0635 27.4322 65.3571 27.5687 64.5723 27.5687C63.7874 27.5687 63.0811 27.4322 62.463 27.1495C61.845 26.8668 61.3152 26.4866 60.8934 25.9992C60.4617 25.5117 60.138 24.9366 59.9123 24.2639C59.6867 23.5913 59.5689 22.8797 59.5689 22.1095V11.9126H58.3721V22.1193C58.3721 23.0259 58.5192 23.874 58.8037 24.6636C59.0882 25.4533 59.5003 26.1454 60.0399 26.7303C60.5794 27.3152 61.2269 27.7734 61.9921 28.1146C62.7573 28.4558 63.6207 28.6118 64.5821 28.6118H64.5625ZM75.148 28.4168V19.7211C75.6581 19.0388 76.2369 18.5026 76.8844 18.1029C77.5319 17.713 78.2383 17.518 78.9937 17.518C80.014 17.518 80.7694 17.8299 81.2599 18.4441C81.7504 19.0582 82.0055 19.9161 82.0055 21.0079V28.4265H83.1043V21.0079C83.1043 20.3353 83.0258 19.7211 82.859 19.185C82.6922 18.6488 82.4568 18.1906 82.1428 17.8104C81.8289 17.4303 81.4267 17.1378 80.946 16.9331C80.4653 16.7284 79.9061 16.6309 79.2684 16.6309C78.4149 16.6309 77.63 16.8356 76.9335 17.245C76.2369 17.6545 75.6189 18.1906 75.0989 18.8633L74.991 17.1183C74.9616 16.9233 74.8438 16.8258 74.6476 16.8258H74.0492V28.4265H75.148V28.4168ZM87.1069 28.4168V11.4447H86.0082V28.4071H87.1069V28.4168ZM91.1685 13.8331C91.3058 13.8331 91.4432 13.8038 91.5609 13.7551C91.6884 13.6966 91.7963 13.6283 91.8846 13.5309C91.9729 13.4334 92.0514 13.3261 92.1103 13.2092C92.1691 13.0922 92.1986 12.9557 92.1986 12.8192C92.1986 12.6827 92.1691 12.5463 92.1103 12.4195C92.0514 12.2928 91.9729 12.1758 91.8846 12.0881C91.7963 12.0003 91.6884 11.9224 91.5609 11.8639C91.4334 11.8054 91.3058 11.7859 91.1685 11.7859C91.0311 11.7859 90.8938 11.8151 90.7761 11.8639C90.6485 11.9224 90.5406 11.9906 90.4523 12.0881C90.364 12.1856 90.2855 12.2928 90.2365 12.4195C90.1776 12.5463 90.158 12.6827 90.158 12.8192C90.158 12.9557 90.1874 13.0922 90.2365 13.2092C90.2953 13.3261 90.364 13.4334 90.4523 13.5309C90.5406 13.6283 90.6485 13.6966 90.7761 13.7551C90.9036 13.8136 91.0311 13.8331 91.1685 13.8331ZM91.7081 28.4168V16.8161H90.6093V28.4168H91.7081ZM95.9952 28.4168V19.6432C96.4073 18.9705 96.888 18.4538 97.4177 18.0737C97.9475 17.6935 98.5263 17.5082 99.1542 17.5082C100.008 17.5082 100.665 17.8104 101.106 18.4051C101.558 18.9998 101.774 19.8674 101.774 20.9982V28.4168H102.872V20.9982C102.872 20.423 102.951 19.9161 103.118 19.4774C103.284 19.0388 103.51 18.6781 103.785 18.3856C104.069 18.0931 104.393 17.8787 104.756 17.7227C105.119 17.5765 105.511 17.4985 105.904 17.4985C106.806 17.4985 107.503 17.8007 107.984 18.3954C108.474 18.99 108.71 19.8576 108.71 20.9885V28.4071H109.818V20.9885C109.818 20.2866 109.73 19.6627 109.563 19.1265C109.396 18.5806 109.151 18.1224 108.827 17.752C108.504 17.3815 108.121 17.0988 107.66 16.9038C107.199 16.7089 106.689 16.6211 106.12 16.6211C105.717 16.6211 105.325 16.6796 104.942 16.7869C104.56 16.9038 104.207 17.0696 103.883 17.3035C103.559 17.5375 103.275 17.8202 103.02 18.1711C102.764 18.5221 102.578 18.9413 102.431 19.4189C102.254 18.5416 101.911 17.8592 101.411 17.362C100.91 16.8648 100.233 16.6211 99.3995 16.6211C99.0365 16.6211 98.6931 16.6699 98.3595 16.7771C98.0358 16.8843 97.7219 17.0306 97.4374 17.2158C97.1529 17.4108 96.8782 17.635 96.6231 17.8982C96.368 18.1614 96.1326 18.4538 95.9069 18.7755L95.799 17.0988C95.7696 16.9038 95.6519 16.8063 95.4557 16.8063H94.8572V28.4071H95.956L95.9952 28.4168ZM113.301 13.8331C113.438 13.8331 113.576 13.8038 113.693 13.7551C113.811 13.7063 113.929 13.6283 114.017 13.5309C114.105 13.4334 114.184 13.3261 114.243 13.2092C114.302 13.0922 114.331 12.9557 114.331 12.8192C114.331 12.6827 114.302 12.5463 114.243 12.4195C114.184 12.2928 114.105 12.1758 114.017 12.0881C113.929 12.0003 113.821 11.9224 113.693 11.8639C113.566 11.8054 113.438 11.7859 113.301 11.7859C113.164 11.7859 113.026 11.8151 112.908 11.8639C112.781 11.9224 112.673 11.9906 112.585 12.0881C112.496 12.1856 112.418 12.2928 112.369 12.4195C112.31 12.5463 112.29 12.6827 112.29 12.8192C112.29 12.9557 112.32 13.0922 112.369 13.2092C112.428 13.3261 112.496 13.4334 112.585 13.5309C112.673 13.6283 112.781 13.6966 112.908 13.7551C113.036 13.8136 113.164 13.8331 113.301 13.8331ZM113.84 28.4168V16.8161H112.742V28.4168H113.84ZM120.178 28.602C120.669 28.602 121.13 28.5045 121.581 28.2998C122.032 28.1048 122.405 27.8416 122.699 27.5102L122.395 27.0228C122.336 26.9448 122.268 26.9058 122.209 26.9058C122.15 26.9058 122.081 26.9448 121.993 27.0325C121.905 27.1105 121.777 27.208 121.63 27.3055C121.483 27.403 121.306 27.4907 121.11 27.5784C120.914 27.6564 120.669 27.7052 120.394 27.7052C120.168 27.7052 119.962 27.6662 119.766 27.5979C119.57 27.5297 119.403 27.4225 119.266 27.2762C119.128 27.13 119.011 26.9448 118.932 26.7108C118.854 26.4768 118.814 26.2039 118.814 25.8919V18.0249H122.434V17.1963H118.814V12.7607H118.294C118.206 12.7607 118.137 12.79 118.088 12.8387C118.039 12.8875 118.01 12.9557 118 13.0239L117.725 17.1768L115.754 17.3133V17.7422C115.754 17.8299 115.783 17.8982 115.832 17.9372C115.891 17.9859 115.96 18.0054 116.038 18.0054H117.696V25.9309C117.696 26.8375 117.912 27.5102 118.353 27.9489C118.785 28.3876 119.393 28.602 120.178 28.602ZM128.801 28.563C129.233 28.563 129.665 28.524 130.096 28.4363C130.528 28.3486 130.93 28.2316 131.303 28.0951C131.676 27.9489 132.019 27.7831 132.323 27.5784C132.628 27.3737 132.873 27.1592 133.059 26.9253L132.755 26.5548C132.696 26.4768 132.628 26.4379 132.52 26.4379C132.441 26.4379 132.323 26.5061 132.147 26.6328C131.97 26.7596 131.745 26.9058 131.46 27.0618C131.176 27.2177 130.813 27.364 130.391 27.4907C129.969 27.6174 129.469 27.6857 128.89 27.6857C128.242 27.6857 127.654 27.5687 127.134 27.3445C126.614 27.1203 126.162 26.7791 125.79 26.3404C125.417 25.8919 125.132 25.3363 124.936 24.6831C124.74 24.0202 124.632 23.2598 124.632 22.3825V22.1583H132.951C133.059 22.1583 133.138 22.129 133.187 22.0608C133.236 22.0023 133.265 21.8853 133.265 21.7098C133.265 20.891 133.147 20.1696 132.922 19.5457C132.696 18.912 132.382 18.3856 131.97 17.9567C131.568 17.5277 131.087 17.1963 130.538 16.9721C129.989 16.7479 129.39 16.6309 128.743 16.6309C127.928 16.6309 127.193 16.7771 126.545 17.0598C125.898 17.3523 125.358 17.7422 124.916 18.2589C124.475 18.7658 124.132 19.3702 123.896 20.0818C123.661 20.7935 123.543 21.5539 123.543 22.3825C123.543 23.3671 123.671 24.2444 123.916 25.0146C124.161 25.7847 124.524 26.4281 124.985 26.9545C125.446 27.4809 126.005 27.8806 126.653 28.1633C127.3 28.446 128.017 28.5728 128.801 28.5728V28.563ZM132.265 21.4369H124.671C124.74 20.8325 124.877 20.2866 125.093 19.7894C125.309 19.2922 125.584 18.8828 125.927 18.5318C126.27 18.1809 126.673 17.9177 127.143 17.7227C127.614 17.5277 128.144 17.44 128.743 17.44C129.263 17.44 129.743 17.5277 130.175 17.713C130.607 17.8982 130.979 18.1614 131.283 18.5026C131.588 18.8438 131.833 19.263 132 19.7601C132.166 20.2573 132.255 20.813 132.255 21.4369H132.265ZM138.955 28.563C139.809 28.563 140.574 28.3583 141.251 27.9489C141.928 27.5394 142.526 26.9838 143.036 26.2819L143.154 28.1146C143.184 28.3193 143.301 28.4168 143.488 28.4168H144.106V11.4447H142.997V18.3271C142.585 17.7714 142.085 17.3425 141.516 17.0501C140.947 16.7576 140.27 16.6114 139.495 16.6114C138.72 16.6114 137.964 16.7674 137.346 17.0793C136.728 17.3913 136.199 17.8202 135.777 18.3564C135.345 18.8925 135.021 19.5359 134.805 20.2671C134.59 20.9982 134.472 21.7976 134.472 22.6359C134.472 24.6149 134.864 26.0869 135.659 27.0813C136.454 28.0659 137.552 28.563 138.965 28.563H138.955ZM139.269 27.6662C138.092 27.6662 137.18 27.2567 136.552 26.4476C135.914 25.6385 135.6 24.3614 135.6 22.6359C135.6 21.8756 135.688 21.1737 135.865 20.54C136.042 19.9064 136.297 19.3605 136.64 18.912C136.983 18.4538 137.405 18.1029 137.915 17.8592C138.426 17.6057 139.014 17.4887 139.701 17.4887C140.388 17.4887 140.986 17.6252 141.526 17.8982C142.065 18.1711 142.556 18.6391 142.997 19.302V25.424C142.507 26.1357 141.957 26.6816 141.339 27.0813C140.721 27.4809 140.034 27.6759 139.269 27.6759V27.6662ZM157.458 28.4168V25.9114H150.041V21.1444H155.888V18.7268H150.041V14.0475H157.458V11.5519H146.902V28.4071H157.458V28.4168ZM162.147 28.4168V11.084H159.292V28.4071H162.147V28.4168ZM169.535 28.5923C169.947 28.5923 170.378 28.563 170.829 28.4948C171.271 28.4363 171.712 28.3291 172.134 28.1731C172.556 28.0171 172.978 27.8221 173.37 27.5687C173.763 27.3152 174.116 27.0033 174.44 26.6328L173.606 25.58C173.547 25.4923 173.469 25.424 173.39 25.385C173.302 25.3363 173.204 25.3168 173.086 25.3168C172.909 25.3168 172.723 25.3753 172.537 25.4825C172.35 25.5897 172.124 25.7165 171.879 25.8432C171.624 25.9797 171.34 26.0967 170.996 26.2039C170.663 26.3111 170.26 26.3696 169.799 26.3696C168.858 26.3696 168.102 26.0772 167.533 25.502C166.964 24.9268 166.631 24.0202 166.552 22.7919H173.89C174.018 22.7919 174.126 22.7724 174.214 22.7432C174.302 22.7042 174.371 22.6457 174.42 22.5677C174.469 22.4897 174.508 22.3727 174.528 22.2265C174.548 22.0803 174.557 21.9048 174.557 21.6806C174.557 20.813 174.43 20.0526 174.175 19.3799C173.92 18.7073 173.567 18.1419 173.106 17.674C172.644 17.206 172.105 16.8551 171.477 16.6211C170.849 16.3774 170.162 16.2604 169.407 16.2604C168.524 16.2604 167.72 16.4164 167.013 16.7284C166.307 17.0403 165.708 17.4595 165.218 17.9957C164.727 18.5318 164.355 19.1557 164.09 19.8771C163.825 20.5985 163.697 21.3686 163.697 22.1778C163.697 23.2306 163.844 24.147 164.149 24.9463C164.453 25.7457 164.865 26.4086 165.385 26.9545C165.905 27.4907 166.523 27.9001 167.239 28.1828C167.955 28.4655 168.72 28.5923 169.544 28.5923H169.535ZM171.967 21.0567H166.601C166.729 20.1891 167.033 19.5164 167.504 19.0388C167.975 18.5611 168.622 18.3271 169.456 18.3271C169.878 18.3271 170.251 18.3954 170.565 18.5416C170.879 18.6878 171.143 18.8828 171.349 19.1265C171.555 19.38 171.712 19.6627 171.811 19.9941C171.909 20.3256 171.958 20.6765 171.958 21.0469L171.967 21.0567ZM178.835 28.4168V19.6627C179.139 19.302 179.473 19.0193 179.836 18.8145C180.198 18.6098 180.581 18.5026 180.983 18.5026C181.611 18.5026 182.082 18.6878 182.406 19.0485C182.73 19.4092 182.887 19.9941 182.887 20.7935V28.4071H185.761V20.7935C185.761 20.423 185.82 20.0916 185.928 19.7991C186.036 19.5067 186.183 19.2727 186.369 19.0777C186.556 18.8828 186.781 18.7463 187.027 18.6391C187.282 18.5416 187.547 18.4831 187.841 18.4831C188.479 18.4831 188.969 18.6781 189.303 19.0582C189.636 19.4384 189.803 20.0136 189.803 20.774V28.3876H192.658V20.774C192.658 20.0526 192.57 19.4092 192.383 18.8535C192.197 18.2979 191.942 17.8202 191.588 17.4303C191.245 17.0403 190.813 16.7479 190.303 16.5431C189.793 16.3384 189.214 16.2409 188.557 16.2409C188.174 16.2409 187.802 16.2799 187.429 16.3677C187.056 16.4554 186.703 16.5821 186.369 16.7674C186.036 16.9428 185.732 17.1768 185.457 17.4595C185.182 17.7422 184.947 18.0834 184.76 18.4831C184.525 17.8104 184.162 17.2645 183.681 16.8551C183.2 16.4457 182.582 16.2409 181.837 16.2409C181.484 16.2409 181.16 16.2799 180.856 16.3677C180.552 16.4554 180.277 16.5626 180.022 16.6991C179.767 16.8356 179.522 17.0111 179.296 17.1963C179.07 17.3913 178.854 17.6057 178.639 17.8397L178.452 16.9526C178.334 16.6016 178.089 16.4262 177.726 16.4262H175.98V28.3876H178.835V28.4168ZM199.623 28.5923C200.035 28.5923 200.467 28.563 200.918 28.4948C201.36 28.4363 201.801 28.3291 202.223 28.1731C202.655 28.0171 203.067 27.8221 203.459 27.5687C203.852 27.3152 204.205 27.0033 204.528 26.6328L203.695 25.58C203.636 25.4923 203.557 25.424 203.479 25.385C203.39 25.3363 203.292 25.3168 203.175 25.3168C202.998 25.3168 202.812 25.3753 202.625 25.4825C202.439 25.5897 202.213 25.7165 201.968 25.8432C201.713 25.9797 201.428 26.0967 201.085 26.2039C200.751 26.3111 200.349 26.3696 199.888 26.3696C198.946 26.3696 198.191 26.0772 197.622 25.502C197.053 24.9268 196.719 24.0202 196.641 22.7919H203.979C204.107 22.7919 204.215 22.7724 204.303 22.7432C204.391 22.7042 204.46 22.6457 204.509 22.5677C204.558 22.4897 204.597 22.3727 204.617 22.2265C204.636 22.0803 204.646 21.9048 204.646 21.6806C204.646 20.813 204.519 20.0526 204.264 19.3799C204.009 18.7073 203.655 18.1419 203.194 17.674C202.733 17.206 202.194 16.8551 201.566 16.6211C200.938 16.3774 200.251 16.2604 199.496 16.2604C198.613 16.2604 197.808 16.4164 197.102 16.7284C196.396 17.0403 195.797 17.4595 195.307 17.9957C194.816 18.5318 194.443 19.1557 194.178 19.8771C193.914 20.5985 193.786 21.3686 193.786 22.1778C193.786 23.2306 193.933 24.147 194.237 24.9463C194.541 25.7457 194.953 26.4086 195.473 26.9545C195.993 27.5004 196.611 27.9001 197.328 28.1828C198.044 28.4655 198.809 28.5923 199.633 28.5923H199.623ZM202.056 21.0567H196.69C196.817 20.1891 197.122 19.5164 197.592 19.0388C198.063 18.5611 198.711 18.3271 199.545 18.3271C199.967 18.3271 200.339 18.3954 200.653 18.5416C200.967 18.6878 201.232 18.8828 201.438 19.1265C201.644 19.38 201.801 19.6627 201.899 19.9941C201.997 20.3256 202.046 20.6765 202.046 21.0469L202.056 21.0567ZM208.924 28.4168V19.7601C209.306 19.3702 209.718 19.068 210.15 18.834C210.582 18.6001 211.043 18.4928 211.543 18.4928C212.21 18.4928 212.72 18.6976 213.054 19.0972C213.387 19.4969 213.554 20.0623 213.554 20.7935V28.4071H216.409V20.7935C216.409 20.1208 216.321 19.5164 216.144 18.9608C215.967 18.4051 215.712 17.9274 215.379 17.5277C215.045 17.128 214.623 16.8161 214.123 16.5919C213.623 16.3677 213.044 16.2604 212.396 16.2604C211.994 16.2604 211.621 16.2994 211.288 16.3774C210.954 16.4554 210.631 16.5724 210.336 16.7186C210.042 16.8648 209.757 17.0403 209.493 17.245C209.228 17.4497 208.973 17.674 208.737 17.9177L208.541 16.9721C208.423 16.6211 208.178 16.4457 207.815 16.4457H206.069V28.4071H208.924V28.4168ZM222.236 28.602C222.815 28.602 223.374 28.5143 223.914 28.3291C224.454 28.1536 224.934 27.8904 225.346 27.5394L224.493 26.1357C224.434 26.0479 224.375 25.9894 224.316 25.9407C224.257 25.8919 224.189 25.8724 224.11 25.8724C224.041 25.8724 223.973 25.8919 223.904 25.9407C223.835 25.9797 223.757 26.0284 223.669 26.0772C223.58 26.1259 223.472 26.1649 223.355 26.2136C223.237 26.2526 223.09 26.2819 222.913 26.2819C222.609 26.2819 222.354 26.1746 222.168 25.9699C221.981 25.7652 221.893 25.4728 221.893 25.0926V18.6098H225.023V16.5529H221.893V12.79H220.412C220.245 12.79 220.098 12.829 219.99 12.9167C219.882 13.0044 219.803 13.1214 219.774 13.2774L219.175 16.5431L217.262 16.8551V17.9957C217.262 18.2004 217.321 18.3466 217.429 18.4538C217.537 18.5611 217.674 18.6098 217.831 18.6098H219.038V25.2875C219.038 26.3209 219.313 27.13 219.872 27.7149C220.431 28.2998 221.216 28.5923 222.246 28.5923L222.236 28.602ZM229.486 28.602C230.252 28.602 230.928 28.5045 231.517 28.2998C232.106 28.1048 232.606 27.8221 233.008 27.4712C233.41 27.1203 233.715 26.7011 233.921 26.2136C234.127 25.7262 234.235 25.1998 234.235 24.6246C234.235 24.147 234.156 23.7278 233.989 23.3866C233.823 23.0454 233.607 22.7529 233.332 22.5092C233.057 22.2655 232.743 22.0608 232.4 21.9048C232.057 21.7488 231.694 21.6026 231.331 21.4759C230.968 21.3491 230.615 21.2322 230.261 21.1347C229.918 21.0274 229.604 20.9105 229.329 20.7837C229.055 20.6473 228.839 20.501 228.672 20.3256C228.505 20.1501 228.427 19.9356 228.427 19.6822C228.427 19.2922 228.594 18.9803 228.917 18.7365C229.241 18.4928 229.683 18.3759 230.252 18.3759C230.614 18.3759 230.928 18.4148 231.193 18.4928C231.458 18.5708 231.694 18.6586 231.909 18.756C232.115 18.8535 232.302 18.9413 232.459 19.0193C232.616 19.0972 232.763 19.1362 232.9 19.1362C233.028 19.1362 233.136 19.107 233.224 19.0582C233.312 19.0095 233.391 18.9218 233.469 18.795L234.117 17.7617C233.666 17.323 233.106 16.9623 232.439 16.6894C231.772 16.4164 231.027 16.2799 230.202 16.2799C229.467 16.2799 228.819 16.3774 228.26 16.5821C227.701 16.7771 227.23 17.0403 226.857 17.3718C226.484 17.7032 226.2 18.0931 226.004 18.5318C225.807 18.9705 225.719 19.4384 225.719 19.9356C225.719 20.462 225.798 20.9105 225.964 21.2907C226.131 21.6611 226.347 21.9828 226.622 22.2363C226.896 22.4897 227.21 22.7042 227.563 22.8699C227.917 23.0356 228.27 23.1819 228.643 23.3086C229.006 23.4353 229.369 23.5523 229.722 23.6498C230.075 23.757 230.389 23.874 230.664 24.0007C230.938 24.1275 231.154 24.2932 231.321 24.4687C231.488 24.6441 231.566 24.8781 231.566 25.1608C231.566 25.346 231.527 25.5312 231.458 25.7067C231.39 25.8822 231.272 26.0382 231.115 26.1649C230.958 26.3014 230.752 26.4086 230.516 26.4866C230.281 26.5646 229.987 26.6133 229.643 26.6133C229.212 26.6133 228.858 26.5646 228.574 26.4574C228.289 26.3501 228.044 26.2429 227.838 26.1357C227.632 26.0187 227.446 25.9114 227.289 25.814C227.132 25.7165 226.965 25.658 226.788 25.658C226.612 25.658 226.465 25.697 226.347 25.7652C226.229 25.8334 226.131 25.9407 226.043 26.0674L225.386 27.1592C225.621 27.3737 225.886 27.5589 226.19 27.7442C226.494 27.9196 226.828 28.0756 227.181 28.2121C227.544 28.3486 227.917 28.446 228.299 28.524C228.692 28.602 229.084 28.6313 229.496 28.6313L229.486 28.602Z" fill="white"/>
<path d="M177.795 42.0159C178.06 42.0159 178.217 41.8892 178.276 41.6358L178.511 40.5829L179.041 36.3521H180.326L180.415 35.6989H179.1L179.159 35.2213C179.188 34.997 179.237 34.8118 179.296 34.6656C179.355 34.5194 179.443 34.3926 179.541 34.2951C179.64 34.1977 179.747 34.1294 179.875 34.0904C180.003 34.0514 180.14 34.0222 180.287 34.0222C180.326 34.0222 180.365 34.0222 180.405 34.0222C180.444 34.0222 180.473 34.0222 180.503 34.0222C180.562 34.0222 180.621 34.0222 180.66 34.0027C180.699 33.9929 180.719 33.9637 180.728 33.915L180.817 33.447C180.64 33.3788 180.444 33.3495 180.228 33.3495C179.973 33.3495 179.738 33.3885 179.522 33.4763C179.306 33.5543 179.11 33.681 178.933 33.837C178.757 33.9929 178.619 34.1879 178.502 34.4219C178.384 34.6461 178.315 34.9093 178.276 35.2115L178.217 35.7087H177.462L177.422 36.1084C177.422 36.1669 177.442 36.2059 177.471 36.2448C177.511 36.2741 177.55 36.3033 177.609 36.3131L178.129 36.3813L177.422 42.0354H177.785L177.795 42.0159ZM182.494 40.8169C182.877 40.8169 183.23 40.7292 183.554 40.5634C183.887 40.3977 184.172 40.1637 184.407 39.881C184.643 39.5983 184.839 39.2571 184.976 38.8769C185.114 38.4967 185.182 38.0873 185.182 37.6584C185.182 37.3269 185.133 37.0247 185.035 36.7518C184.937 36.4788 184.8 36.2643 184.633 36.0791C184.456 35.8939 184.25 35.7574 184.015 35.6599C183.78 35.5625 183.515 35.5137 183.22 35.5137C182.838 35.5137 182.485 35.6014 182.151 35.7672C181.827 35.9329 181.543 36.1571 181.297 36.4496C181.052 36.742 180.866 37.0735 180.728 37.4537C180.591 37.8338 180.522 38.2433 180.522 38.682C180.522 39.0232 180.572 39.3254 180.67 39.5886C180.768 39.8518 180.905 40.076 181.072 40.2612C181.239 40.4464 181.454 40.5829 181.69 40.6804C181.925 40.7779 182.19 40.8266 182.485 40.8266L182.494 40.8169ZM182.573 40.1052C182.21 40.1052 181.935 39.9883 181.739 39.7446C181.553 39.5008 181.454 39.1401 181.454 38.6722C181.454 38.3505 181.494 38.0386 181.572 37.7461C181.651 37.4537 181.768 37.1904 181.916 36.9662C182.063 36.742 182.239 36.5568 182.445 36.4301C182.651 36.3033 182.887 36.2253 183.142 36.2253C183.505 36.2253 183.78 36.3423 183.966 36.586C184.152 36.8298 184.25 37.1807 184.25 37.6584C184.25 37.9801 184.211 38.292 184.133 38.5845C184.054 38.8769 183.937 39.1401 183.789 39.3644C183.642 39.5886 183.466 39.7738 183.26 39.9103C183.054 40.0468 182.818 40.115 182.563 40.115L182.573 40.1052ZM186.752 40.7389L187.046 38.3505C187.223 37.6974 187.449 37.2099 187.704 36.8882C187.969 36.5665 188.273 36.4106 188.606 36.4106C188.763 36.4106 188.92 36.4398 189.077 36.5081L189.244 35.6404C189.097 35.5819 188.95 35.5527 188.802 35.5527C188.489 35.5527 188.194 35.6794 187.92 35.9426C187.645 36.1961 187.39 36.5665 187.164 37.0442L187.233 36.1084C187.233 36.1084 187.233 36.0889 187.233 36.0694C187.233 36.0499 187.233 36.0206 187.233 36.0011C187.233 35.9719 187.233 35.9524 187.233 35.9231C187.233 35.8939 187.233 35.8744 187.233 35.8647C187.233 35.7769 187.203 35.7087 187.154 35.6599C187.095 35.6112 187.027 35.5917 186.929 35.5917H186.468L185.83 40.7486H186.732L186.752 40.7389ZM195.905 40.7389L196.003 39.9688H192.727L193.041 37.4342H195.68L195.778 36.6835H193.129L193.443 34.2269H196.71L196.808 33.447H192.56L191.638 40.7389H195.895H195.905ZM198.073 40.7389L199.005 33.2423H198.093L197.161 40.7389H198.073ZM201.429 40.8071C201.654 40.8071 201.86 40.7876 202.047 40.7486C202.243 40.7097 202.419 40.6512 202.606 40.5634C202.782 40.4757 202.959 40.3685 203.126 40.2417C203.293 40.115 203.469 39.959 203.646 39.7835L203.42 39.5008C203.371 39.4424 203.312 39.4131 203.244 39.4131C203.185 39.4131 203.136 39.4326 203.077 39.4618C203.018 39.4911 202.959 39.5398 202.89 39.5886C202.822 39.6373 202.753 39.6958 202.675 39.7543C202.596 39.8128 202.508 39.8713 202.4 39.92C202.302 39.9688 202.184 40.0078 202.047 40.0468C201.919 40.076 201.772 40.0955 201.605 40.0955C201.193 40.0955 200.889 39.9785 200.683 39.7348C200.477 39.4911 200.379 39.1499 200.379 38.6917V38.5845C200.379 38.5845 200.379 38.5162 200.379 38.4773C201.066 38.409 201.625 38.3213 202.066 38.2043C202.508 38.0971 202.851 37.9606 203.096 37.8144C203.342 37.6681 203.518 37.4927 203.616 37.3074C203.714 37.1222 203.754 36.9175 203.754 36.6933C203.754 36.5665 203.724 36.4398 203.665 36.2936C203.607 36.1571 203.508 36.0304 203.391 35.9134C203.263 35.7964 203.106 35.6989 202.91 35.6307C202.714 35.5527 202.488 35.5235 202.213 35.5235C201.929 35.5235 201.674 35.5625 201.429 35.6502C201.183 35.7379 200.958 35.8549 200.761 36.0011C200.565 36.1474 200.379 36.3228 200.222 36.5276C200.065 36.7323 199.928 36.9565 199.82 37.1905C199.712 37.4244 199.623 37.6779 199.574 37.9411C199.516 38.2043 199.486 38.4675 199.486 38.7307C199.486 39.0524 199.535 39.3351 199.623 39.5983C199.712 39.8518 199.839 40.076 200.006 40.2612C200.173 40.4464 200.379 40.5829 200.614 40.6804C200.85 40.7779 201.124 40.8266 201.429 40.8266V40.8071ZM200.477 37.8728C200.536 37.6291 200.614 37.4049 200.712 37.2002C200.811 36.9955 200.938 36.8103 201.075 36.6543C201.223 36.4983 201.38 36.3813 201.566 36.2936C201.752 36.2059 201.949 36.1571 202.174 36.1571C202.312 36.1571 202.429 36.1766 202.527 36.2059C202.625 36.2351 202.704 36.2838 202.763 36.3423C202.822 36.4008 202.871 36.4593 202.9 36.5276C202.93 36.5958 202.939 36.6543 202.939 36.7225C202.939 36.8493 202.91 36.9662 202.861 37.0735C202.802 37.1807 202.694 37.2879 202.518 37.3854C202.341 37.4829 202.096 37.5706 201.772 37.6584C201.448 37.7461 201.017 37.8144 200.487 37.8826L200.477 37.8728ZM205.255 40.7291L205.578 38.0386C205.677 37.7559 205.784 37.5121 205.902 37.2879C206.02 37.0637 206.147 36.8785 206.285 36.7225C206.422 36.5665 206.569 36.4496 206.726 36.3716C206.883 36.2936 207.04 36.2448 207.207 36.2448C207.413 36.2448 207.55 36.3033 207.639 36.4203C207.717 36.5373 207.756 36.7128 207.756 36.9565C207.756 37.0247 207.756 37.1027 207.747 37.1807C207.747 37.2587 207.727 37.3464 207.717 37.4439L207.315 40.7291H208.227L208.571 37.9216C208.669 37.6486 208.767 37.4147 208.894 37.2002C209.022 36.9857 209.14 36.82 209.287 36.6738C209.424 36.5373 209.571 36.4301 209.718 36.3521C209.866 36.2838 210.013 36.2448 210.17 36.2448C210.376 36.2448 210.523 36.3033 210.611 36.4301C210.699 36.5568 210.739 36.742 210.739 36.9955C210.739 37.132 210.729 37.2782 210.709 37.4439L210.317 40.7291H211.229L211.622 37.4439C211.631 37.3562 211.641 37.2684 211.651 37.1807C211.651 37.093 211.661 37.015 211.661 36.937C211.661 36.4691 211.563 36.1181 211.376 35.8647C211.18 35.6209 210.896 35.4942 210.503 35.4942C210.14 35.4942 209.797 35.6112 209.473 35.8354C209.149 36.0596 208.845 36.4106 208.58 36.8785C208.58 36.4301 208.492 36.0889 208.325 35.8549C208.159 35.6112 207.894 35.4942 207.531 35.4942C207.168 35.4942 206.864 35.6014 206.55 35.8257C206.236 36.0499 205.951 36.3716 205.696 36.7908L205.765 35.8744C205.765 35.6697 205.657 35.5722 205.451 35.5722H204.99L204.352 40.7291H205.255ZM214.388 40.7974C214.614 40.7974 214.82 40.7779 215.006 40.7389C215.202 40.6999 215.379 40.6414 215.565 40.5537C215.742 40.4659 215.919 40.3587 216.085 40.232C216.252 40.1052 216.429 39.9493 216.605 39.7738L216.38 39.4911C216.331 39.4326 216.272 39.4034 216.203 39.4034C216.144 39.4034 216.095 39.4229 216.036 39.4521C215.978 39.4813 215.919 39.5301 215.85 39.5788C215.781 39.6276 215.713 39.6861 215.634 39.7446C215.556 39.803 215.467 39.8615 215.359 39.9103C215.261 39.959 215.144 39.998 215.006 40.037C214.879 40.0663 214.732 40.0857 214.565 40.0857C214.153 40.0857 213.849 39.9688 213.643 39.7251C213.437 39.4813 213.338 39.1401 213.338 38.682V38.5747C213.338 38.5747 213.338 38.5065 213.338 38.4675C214.025 38.3993 214.584 38.3115 215.026 38.1945C215.467 38.0776 215.811 37.9508 216.056 37.8046C216.301 37.6584 216.478 37.4829 216.576 37.2977C216.674 37.1125 216.713 36.9077 216.713 36.6835C216.713 36.5568 216.684 36.4301 216.625 36.2838C216.566 36.1474 216.468 36.0206 216.35 35.9037C216.223 35.7867 216.066 35.6892 215.87 35.6209C215.673 35.5527 215.448 35.5137 215.173 35.5137C214.889 35.5137 214.633 35.5527 214.388 35.6404C214.143 35.7282 213.917 35.8452 213.721 35.9914C213.515 36.1376 213.338 36.3131 213.182 36.5178C213.025 36.7225 212.887 36.9467 212.779 37.1807C212.671 37.4147 212.583 37.6681 212.534 37.9313C212.475 38.1945 212.446 38.4578 212.446 38.721C212.446 39.0427 212.495 39.3254 212.583 39.5886C212.671 39.842 212.799 40.0663 212.966 40.2515C213.132 40.4367 213.338 40.5732 213.574 40.6707C213.809 40.7681 214.084 40.8169 214.388 40.8169V40.7974ZM213.437 37.8631C213.495 37.6194 213.574 37.3952 213.672 37.1905C213.77 36.9857 213.898 36.8005 214.035 36.6445C214.182 36.4886 214.339 36.3716 214.526 36.2838C214.712 36.1961 214.908 36.1474 215.134 36.1474C215.271 36.1474 215.389 36.1669 215.487 36.1961C215.585 36.2253 215.664 36.2741 215.722 36.3326C215.781 36.3911 215.83 36.4496 215.86 36.5178C215.889 36.586 215.899 36.6445 215.899 36.7128C215.899 36.8395 215.87 36.9565 215.821 37.0637C215.762 37.171 215.654 37.2782 215.477 37.3757C215.301 37.4732 215.055 37.5609 214.732 37.6486C214.408 37.7364 213.976 37.8046 213.446 37.8728L213.437 37.8631ZM218.234 40.7194L218.538 38.0971C218.636 37.8144 218.754 37.5609 218.891 37.3269C219.029 37.1027 219.176 36.898 219.333 36.742C219.49 36.586 219.656 36.4593 219.833 36.3716C220.01 36.2838 220.176 36.2351 220.343 36.2351C220.569 36.2351 220.736 36.3033 220.843 36.4398C220.951 36.5763 221 36.781 221 37.054C221 37.1125 221 37.171 221 37.2392C221 37.3074 220.991 37.3659 220.981 37.4342L220.588 40.7194H221.52L221.913 37.4342C221.923 37.3562 221.932 37.2782 221.932 37.2099C221.932 37.1417 221.932 37.0735 221.932 37.0052C221.932 36.5081 221.825 36.1376 221.609 35.8744C221.393 35.6209 221.089 35.4845 220.696 35.4845C220.304 35.4845 219.951 35.6014 219.598 35.8257C219.244 36.0596 218.93 36.4008 218.646 36.8493L218.724 35.8549C218.724 35.6502 218.617 35.5527 218.411 35.5527H217.949L217.322 40.7097H218.254L218.234 40.7194ZM224.346 40.7974C224.562 40.7974 224.787 40.7584 225.003 40.6707C225.219 40.5829 225.415 40.4757 225.582 40.3295L225.386 39.9005C225.386 39.9005 225.356 39.8518 225.337 39.8323C225.317 39.8225 225.297 39.8128 225.268 39.8128C225.239 39.8128 225.209 39.8225 225.17 39.8518C225.131 39.881 225.091 39.9005 225.042 39.9395C224.993 39.9688 224.934 39.998 224.866 40.0273C224.797 40.0565 224.719 40.0663 224.63 40.0663C224.483 40.0663 224.375 40.0273 224.297 39.9395C224.218 39.8518 224.179 39.7251 224.179 39.5593C224.179 39.5496 224.179 39.5301 224.179 39.5106C224.179 39.4911 224.179 39.4521 224.189 39.4034C224.199 39.3546 224.199 39.2864 224.208 39.1986C224.208 39.1109 224.228 39.0037 224.248 38.8672L224.562 36.3326H225.955L226.033 35.6794H224.65L224.876 33.9052H224.385C224.326 33.9052 224.287 33.9247 224.248 33.954C224.208 33.9832 224.179 34.0319 224.169 34.0807L223.777 35.6697L222.963 35.7769C222.963 35.7769 222.963 35.8549 222.953 35.8939C222.953 35.9329 222.943 35.9719 222.933 36.0109C222.933 36.0499 222.933 36.0889 222.923 36.1181C222.923 36.1474 222.923 36.1669 222.923 36.1766C222.923 36.2351 222.943 36.2741 222.972 36.2936C223.002 36.3228 223.041 36.3326 223.08 36.3326H223.669L223.345 38.9159C223.326 39.0719 223.306 39.2084 223.296 39.3059C223.286 39.4034 223.276 39.4813 223.276 39.5496C223.276 39.6081 223.276 39.6568 223.267 39.6861C223.267 39.7153 223.267 39.7446 223.267 39.7641C223.267 40.1052 223.375 40.3685 223.571 40.5439C223.767 40.7194 224.032 40.8169 224.365 40.8169L224.346 40.7974ZM228.241 40.7876C228.623 40.7876 228.976 40.6999 229.3 40.5342C229.634 40.3685 229.918 40.1345 230.154 39.8518C230.389 39.5691 230.585 39.2279 230.723 38.8477C230.86 38.4675 230.929 38.0581 230.929 37.6291C230.929 37.2977 230.88 36.9955 230.782 36.7225C230.683 36.4496 230.546 36.2351 230.379 36.0499C230.203 35.8647 229.997 35.7282 229.761 35.6307C229.526 35.5332 229.261 35.4845 228.967 35.4845C228.584 35.4845 228.231 35.5722 227.897 35.7379C227.573 35.9036 227.289 36.1279 227.044 36.4203C226.798 36.7128 226.612 37.0442 226.475 37.4244C226.337 37.8046 226.269 38.214 226.269 38.6527C226.269 38.9939 226.318 39.2961 226.416 39.5593C226.514 39.8225 226.651 40.0468 226.818 40.232C226.985 40.4172 227.201 40.5537 227.436 40.6512C227.672 40.7486 227.936 40.7974 228.231 40.7974L228.241 40.7876ZM228.319 40.076C227.956 40.076 227.681 39.959 227.485 39.7153C227.299 39.4716 227.201 39.1109 227.201 38.643C227.201 38.3213 227.24 38.0093 227.318 37.7169C227.397 37.4244 227.515 37.1612 227.662 36.937C227.809 36.7128 227.986 36.5276 228.192 36.4008C228.398 36.2741 228.633 36.1961 228.888 36.1961C229.251 36.1961 229.526 36.3131 229.712 36.5568C229.899 36.8005 229.997 37.1515 229.997 37.6291C229.997 37.9508 229.957 38.2628 229.879 38.5552C229.8 38.8477 229.683 39.1109 229.536 39.3351C229.388 39.5593 229.212 39.7446 229.006 39.881C228.8 40.0175 228.564 40.0857 228.309 40.0857L228.319 40.076ZM232.498 40.7097L232.793 38.3213C232.969 37.6681 233.195 37.1807 233.45 36.859C233.715 36.5373 234.019 36.3813 234.353 36.3813C234.509 36.3813 234.666 36.4106 234.823 36.4788L234.99 35.6112C234.843 35.5527 234.696 35.5235 234.549 35.5235C234.235 35.5235 233.94 35.6502 233.666 35.9134C233.391 36.1669 233.136 36.5373 232.91 37.015L232.979 36.0791C232.979 36.0791 232.979 36.0596 232.979 36.0401C232.979 36.0206 232.979 35.9914 232.979 35.9719C232.979 35.9426 232.979 35.9231 232.979 35.8939C232.979 35.8647 232.979 35.8452 232.979 35.8354C232.979 35.7477 232.95 35.6794 232.901 35.6307C232.842 35.5819 232.773 35.5625 232.675 35.5625H232.214L231.576 40.7194H232.479L232.498 40.7097Z" fill="white"/>
</g>
<defs>
<clipPath id="clip0_3358_439">
<rect width="235" height="50" fill="white"/>
</clipPath>
</defs>
</svg>
