<?xml version="1.0" encoding="UTF-8"?>
<svg width="194px" height="194px" viewBox="0 0 194 194" version="1.1" xmlns="http://www.w3.org/2000/svg" xmlns:xlink="http://www.w3.org/1999/xlink">
    <defs>
        <linearGradient x1="1.4609375%" y1="98.5390625%" x2="98.5390625%" y2="1.4609375%" id="linearGradient-1-ue">
            <stop stop-color="#6F00D8" offset="0%"></stop>
            <stop stop-color="#1C6AFF" offset="100%"></stop>
        </linearGradient>
    </defs>
    <g id="40,000" stroke="none" stroke-width="1" fill="none" fill-rule="evenodd">
        <g id="3-copy" transform="translate(-147.000000, -203.000000)" fill-rule="nonzero">
            <g id="logo" transform="translate(147.000000, 203.000000)">
                <g id="Group">
                    <circle id="Oval" fill="url(#linearGradient-1-ue)" cx="97" cy="97" r="97"></circle>
                    <path d="M154,117.823529 C154,113.015747 150.317473,109.117647 145.776766,109.117647 L127.556567,109.117647 C123.01586,109.117647 119.333333,113.015747 119.333333,117.823529 C119.333333,122.631312 123.01586,126.529412 127.556567,126.529412 L145.776766,126.529412 C150.317473,126.529412 154,122.631312 154,117.823529 M154,85.1764707 C154,80.3699531 150.318669,76.4705881 145.775571,76.4705881 L127.557762,76.4705881 C123.01586,76.4705881 119.333333,80.3699531 119.333333,85.1764707 C119.333333,89.9842532 123.01586,93.882353 127.557762,93.882353 L145.775571,93.882353 C150.318669,93.882353 154,89.9842532 154,85.1764707 M81.3879446,116.004046 L81.3879446,83.3692218 C81.3879446,71.9700259 90.3985869,62.6965765 101.473284,62.6965765 L145.888772,62.6965765 C150.36816,62.6965765 154,58.9583198 154,54.3488949 C154,49.7382568 150.36816,46 145.888772,46 L101.473284,46 C81.4539566,46 65.1666665,62.7633094 65.1666665,83.3692218 L65.1666665,116.004046 C65.1666665,120.614684 68.7985072,124.352941 73.277895,124.352941 C77.7572828,124.352941 81.3879446,120.614684 81.3879446,116.004046 M73.8339314,157 C63.9940097,157 54.744866,153.045872 47.7882757,145.865974 C40.8316856,138.683608 37,129.135925 37,118.978395 L37,84.9652362 C37,80.2741067 40.6845889,76.4705881 45.2290352,76.4705881 C49.7734812,76.4705881 53.4580701,80.2741067 53.4580701,84.9652362 L53.4580701,118.978395 C53.4580701,124.597874 55.5772172,129.879098 59.4256456,133.851745 C63.2728777,137.82439 68.3901634,140.011938 73.8339314,140.011938 C85.0682803,140.011938 94.2085965,130.576596 94.2085965,118.978395 L94.2085965,84.9652362 C94.2085965,80.2741067 97.8931854,76.4705881 102.437632,76.4705881 C106.982078,76.4705881 110.666667,80.2741067 110.666667,84.9652362 L110.666667,118.978395 C110.666667,139.94404 94.1428216,157 73.8339314,157" id="Fill-1" fill="#FFFFFF"></path>
                </g>
            </g>
        </g>
    </g>
</svg>