<svg version="1.1" id="Layer_1" xmlns="http://www.w3.org/2000/svg" xmlns:xlink="http://www.w3.org/1999/xlink" x="0px" y="0px"
	 viewBox="0 0 600 600" style="height: 1em; width: 1em; enable-background:new 0 0 600 600;" xml:space="preserve">
<style type="text/css">
	.employees_st0{fill:none;stroke:currentcolor;stroke-width:10;stroke-linecap:round;stroke-linejoin:round;stroke-miterlimit:10;}
	.employees_st1{fill:none;stroke:currentcolor;stroke-miterlimit:10;}
</style>
<g>
	<line class="employees_st0" x1="299.2" y1="340.4" x2="260.7" y2="378.8"/>
	<polyline class="employees_st0" points="299.2,297.9 299.2,340.4 337.2,378.3 	"/>
	<line class="employees_st0" x1="324.4" y1="229.2" x2="324.4" y2="271"/>
	<polyline class="employees_st0" points="273.3,229.2 273.3,271 324.4,271 	"/>
	<circle class="employees_st0" cx="299.2" cy="157.1" r="23.7"/>
	<path class="employees_st0" d="M254,271v-60c0-8.5,6.9-15.4,15.4-15.4H329c8.5,0,15.4,6.9,15.4,15.4v54.2"/>
	<line class="employees_st0" x1="220.4" y1="424.9" x2="220.4" y2="466.6"/>
	<polyline class="employees_st0" points="169.3,424.9 169.3,466.6 220.4,466.6 	"/>
	<circle class="employees_st0" cx="195.2" cy="352.8" r="23.7"/>
	<path class="employees_st0" d="M150,466.6v-60c0-8.5,6.9-15.4,15.4-15.4h59.5c8.5,0,15.4,6.9,15.4,15.4v54.2"/>
	<line class="employees_st0" x1="430" y1="424.9" x2="430" y2="466.6"/>
	<polyline class="employees_st0" points="378.9,424.9 378.9,466.6 430,466.6 	"/>
	<circle class="employees_st0" cx="404.8" cy="352.8" r="23.7"/>
	<path class="employees_st0" d="M359.6,466.6v-60c0-8.5,6.9-15.4,15.4-15.4h59.5c8.5,0,15.4,6.9,15.4,15.4v54.2"/>
	<polygon class="employees_st1" points="195.2,439.4 206.5,429.8 199.9,403.7 195.2,403.7 195.2,403.7 190.5,403.7 183.9,429.8 195.2,439.4 
		195.2,439.4 	"/>
	<polygon class="employees_st1" points="299.2,242.9 310.5,233.3 304,207.2 299.2,207.2 299.2,207.2 294.5,207.2 287.9,233.3 299.2,242.9 
		299.2,242.9 299.2,242.9 	"/>
	<polygon class="employees_st1" points="404.8,438.7 416.1,429.1 409.5,402.9 404.8,402.9 404.8,402.9 400.1,402.9 393.5,429.1 404.8,438.7 
		404.8,438.7 	"/>
</g>
</svg>
