<svg version="1.1" id="Layer_1" xmlns="http://www.w3.org/2000/svg" xmlns:xlink="http://www.w3.org/1999/xlink" x="0px" y="0px"
	 viewBox="0 0 600 600" style="height: 1em; width: 1em; enable-background:new 0 0 600 600;" xml:space="preserve">
<style type="text/css">
	.folder_ok_st0{fill:currentcolor;}
</style>
<g>
	<g>
		<g>
			<g>
				<g>
					<polygon class="folder_ok_st0" points="403.9,201.7 403.9,118.6 320.8,118.6 					"/>
				</g>
			</g>
		</g>
	</g>
	<g>
		<g>
			<g>
				<g>
					<polygon class="folder_ok_st0" points="155.1,375.3 155.1,458.3 238.2,458.3 					"/>
				</g>
			</g>
		</g>
	</g>
	<g>
		<g>
			<g>
				<g>
					<g>
						<polygon class="folder_ok_st0" points="329.3,465.4 150.1,465.4 150.1,113.6 238.2,113.6 238.2,123.6 160.1,123.6 160.1,455.4 
							329.3,455.4 						"/>
					</g>
				</g>
			</g>
		</g>
		<g>
			<g>
				<g>
					<g>
						<polygon class="folder_ok_st0" points="408.8,385.8 398.9,385.8 398.9,123.6 320.8,123.6 320.8,113.6 408.8,113.6 						"/>
					</g>
				</g>
			</g>
		</g>
		<g>
			<g>
				<g>
					<g>
						<g>
							<rect x="211.4" y="213.9" class="folder_ok_st0" width="136.2" height="10"/>
						</g>
					</g>
				</g>
			</g>
			<g>
				<g>
					<g>
						<g>
							<rect x="211.4" y="261" class="folder_ok_st0" width="136.2" height="10"/>
						</g>
					</g>
				</g>
			</g>
			<g>
				<g>
					<g>
						<g>
							<rect x="211.4" y="308" class="folder_ok_st0" width="136.2" height="10"/>
						</g>
					</g>
				</g>
			</g>
			<g>
				<g>
					<g>
						<g>
							<rect x="211.4" y="355.1" class="folder_ok_st0" width="136.2" height="10"/>
						</g>
					</g>
				</g>
			</g>
		</g>
		<g>
			<g>
				<g>
					<g>
						<path class="folder_ok_st0" d="M313.5,159c-6.1,0-11.4-4.6-12.2-10.7l-0.1-0.9c-1.3-10.2-10.1-17.8-20.3-17.8c-10.2,0-19,7.7-20.3,17.8
							l-0.1,0.9c-0.8,6.1-6,10.7-12.2,10.7h-2.9c-6.8,0-12.3-5.5-12.3-12.3v-42.5c0-5.8,4.8-10.6,10.6-10.6h71.4
							c5.8,0,10.6,4.8,10.6,10.6v42.5C325.8,153.5,320.3,159,313.5,159z M280.9,119.6c15.2,0,28.2,11.4,30.2,26.5l0.1,0.9
							c0.1,1.1,1.1,2,2.3,2c1.3,0,2.3-1,2.3-2.3v-42.5c0-0.3-0.3-0.6-0.6-0.6h-71.4c-0.3,0-0.6,0.3-0.6,0.6v42.5
							c0,1.3,1,2.3,2.3,2.3h2.9c1.1,0,2.1-0.9,2.3-2l0.1-0.9C252.7,131,265.7,119.6,280.9,119.6z"/>
					</g>
				</g>
			</g>
		</g>
		<g>
			<g>
				<g>
					<g>
						<path class="folder_ok_st0" d="M385.8,506.7c-35.5,0-64.3-28.9-64.3-64.3s28.9-64.3,64.3-64.3s64.3,28.9,64.3,64.3
							S421.2,506.7,385.8,506.7z M385.8,388c-30,0-54.4,24.4-54.4,54.4s24.4,54.4,54.4,54.4s54.4-24.4,54.4-54.4
							C440.1,412.4,415.8,388,385.8,388z"/>
					</g>
				</g>
			</g>
		</g>
		<g>
			<g>
				<g>
					<g>
						<g>
							<path class="folder_ok_st0" d="M384.4,470.7l-27.9-24.8c-2.1-1.8-2.2-5-0.4-7c1.8-2.1,5-2.2,7-0.4l20.1,17.9l31.3-38.3
								c1.7-2.1,4.9-2.4,7-0.7c2.1,1.7,2.4,4.9,0.7,7L384.4,470.7z"/>
						</g>
					</g>
				</g>
			</g>
		</g>
	</g>
</g>
</svg>
