<svg version="1.1" id="Layer_1" xmlns="http://www.w3.org/2000/svg" xmlns:xlink="http://www.w3.org/1999/xlink" x="0px" y="0px"
	 viewBox="0 0 600 600" style="height: 1em; width: 1em; enable-background:new 0 0 600 600;" xml:space="preserve">
<style type="text/css">
	.store_st0{fill:none;stroke:currentcolor;stroke-width:10;stroke-linecap:round;stroke-linejoin:round;stroke-miterlimit:10;}
	.store_st1{fill:currentcolor;stroke:currentcolor;stroke-miterlimit:10;}
</style>
<g>
	<polyline class="store_st0" points="180.4,261.5 180.4,430.2 200.1,430.2 	"/>
	<line class="store_st0" x1="420.5" y1="261.5" x2="420.5" y2="430.2"/>
	<path class="store_st0" d="M155.4,218.7c-9.9,9.9-4.3,27.5,9.7,28.8c0.6,0.1,1.3,0.1,1.9,0.1c8.8,0,16.2-5.6,19.1-13.4
		c2.8,7.8,10.3,13.4,19.1,13.4s16.2-5.6,19.1-13.4c2.8,7.8,10.3,13.4,19.1,13.4s16.2-5.6,19.1-13.4c2.8,7.8,10.3,13.4,19.1,13.4
		s16.2-5.6,19.1-13.4c2.8,7.8,10.3,13.4,19.1,13.4c8.8,0,16.2-5.6,19.1-13.4c2.8,7.8,10.3,13.4,19.1,13.4c8.8,0,16.2-5.6,19.1-13.4
		c2.8,7.8,10.3,13.4,19.1,13.4s16.2-5.6,19.1-13.4c2.8,7.8,10.3,13.4,19.1,13.4c0.1,0,0.2,0,0.3,0c14.8-0.2,21.7-18.6,11.2-29
		l-49.3-49.3h-93.3c-23,0,48,0-98,0L155.4,218.7z"/>
	<rect x="216.8" y="303.9" class="store_st0" width="54.6" height="126.3"/>
	<circle class="store_st0" cx="230.5" cy="348.8" r="0.9"/>
	<path class="store_st1" d="M257.8,372l-1.5,4.3c-5.2,15.2-13.9,28.9-25.3,40.2l0,0h26.8V372L257.8,372z"/>
</g>
</svg>
