<svg width="24" height="24" viewBox="0 0 24 24" fill="none" xmlns="http://www.w3.org/2000/svg">
<path fill-rule="evenodd" clip-rule="evenodd" d="M19.1548 4.16403C18.9361 3.94534 18.5815 3.94534 18.3628 4.16403L11.9705 10.5563L5.57824 4.16403C5.35955 3.94533 5.00497 3.94533 4.78628 4.16403L4.16403 4.78628C3.94533 5.00497 3.94533 5.35952 4.16403 5.57822L10.5563 11.9706L4.44699 18.0799C4.22829 18.2986 4.22829 18.6532 4.44699 18.8719L5.06923 19.4941C5.28793 19.7128 5.64251 19.7128 5.8612 19.4941L11.9705 13.3848L18.0798 19.4941C18.2985 19.7128 18.6531 19.7128 18.8718 19.4941L19.4941 18.8719C19.7128 18.6532 19.7128 18.2986 19.4941 18.0799L13.3847 11.9706L19.777 5.57823C19.9957 5.35953 19.9957 5.00498 19.777 4.78629L19.1548 4.16403Z" fill="#E6E5FF"/>
</svg>
