<svg width="24" height="24" viewBox="0 0 24 24" fill="none" xmlns="http://www.w3.org/2000/svg">
<path fill-rule="evenodd" clip-rule="evenodd" d="M4.4 5H20.4C20.6209 5 20.8 5.17909 20.8 5.4V18.2C20.8 18.4209 20.6209 18.6 20.4 18.6H4.4C4.17908 18.6 4 18.4209 4 18.2V5.4C4 5.17909 4.17908 5 4.4 5ZM2 5.4C2 4.07452 3.07451 3 4.4 3H20.4C21.7255 3 22.8 4.07452 22.8 5.4V18.2C22.8 19.5255 21.7255 20.6 20.4 20.6H4.4C3.07451 20.6 2 19.5255 2 18.2V5.4ZM18.2995 7.2142C18.2995 6.66192 17.8517 6.2142 17.2995 6.2142H13.3999C12.8476 6.2142 12.3999 6.66192 12.3999 7.2142C12.3999 7.76649 12.8476 8.2142 13.3999 8.2142H14.731L8.3999 14.0249V12.8C8.3999 12.2477 7.95219 11.8 7.3999 11.8C6.84762 11.8 6.3999 12.2477 6.3999 12.8V16.3C6.3999 16.5652 6.50526 16.8196 6.69279 17.0071C6.88033 17.1946 7.13468 17.3 7.3999 17.3H11.3999C11.9522 17.3 12.3999 16.8523 12.3999 16.3C12.3999 15.7477 11.9522 15.3 11.3999 15.3H9.96837L16.2995 9.48933V10.8C16.2995 11.3523 16.7472 11.8 17.2995 11.8C17.8517 11.8 18.2995 11.3523 18.2995 10.8V7.2142Z" fill="#E6E5FF"/>
</svg>
