<svg width="24" height="24" viewBox="0 0 24 24" fill="none" xmlns="http://www.w3.org/2000/svg">
<path fill-rule="evenodd" clip-rule="evenodd" d="M4 5.4C4 5.17909 4.17909 5 4.4 5H20.4C20.6209 5 20.8 5.17909 20.8 5.4V18.2C20.8 18.4209 20.6209 18.6 20.4 18.6H12.4V14.2C12.4 12.8746 11.3255 11.8 10 11.8H4V5.4ZM4 13.8V18.2C4 18.4209 4.17909 18.6 4.4 18.6H10.4V14.2C10.4 13.9791 10.2209 13.8 10 13.8H4ZM2 11.8V5.4C2 4.07452 3.07452 3 4.4 3H20.4C21.7255 3 22.8 4.07452 22.8 5.4V18.2C22.8 19.5255 21.7255 20.6 20.4 20.6H12.4V20.6H4.4C3.07452 20.6 2 19.5255 2 18.2V18.2V11.8Z" fill="#E6E5FF"/>
</svg>
