<svg width="32" height="32" viewBox="0 0 32 32" fill="none" xmlns="http://www.w3.org/2000/svg">
<path fill-rule="evenodd" clip-rule="evenodd" d="M10.6667 1.91675C11.0809 1.91675 11.4167 2.25253 11.4167 2.66675V6.66675C11.4167 7.08096 11.0809 7.41675 10.6667 7.41675C10.2525 7.41675 9.91669 7.08096 9.91669 6.66675V2.66675C9.91669 2.25253 10.2525 1.91675 10.6667 1.91675Z" fill="#525252"/>
<path fill-rule="evenodd" clip-rule="evenodd" d="M21.3333 1.91675C21.7475 1.91675 22.0833 2.25253 22.0833 2.66675V6.66675C22.0833 7.08096 21.7475 7.41675 21.3333 7.41675C20.9191 7.41675 20.5833 7.08096 20.5833 6.66675V2.66675C20.5833 2.25253 20.9191 1.91675 21.3333 1.91675Z" fill="#525252"/>
<path fill-rule="evenodd" clip-rule="evenodd" d="M3.91675 12.1201C3.91675 11.7059 4.25253 11.3701 4.66675 11.3701H27.3334C27.7476 11.3701 28.0834 11.7059 28.0834 12.1201C28.0834 12.5343 27.7476 12.8701 27.3334 12.8701H4.66675C4.25253 12.8701 3.91675 12.5343 3.91675 12.1201Z" fill="#525252"/>
<path fill-rule="evenodd" clip-rule="evenodd" d="M24.0001 20.75C21.4676 20.75 19.4167 22.8009 19.4167 25.3333C19.4167 26.1926 19.6573 27.0033 20.0785 27.6864L20.0879 27.7021C20.3249 28.1084 20.6291 28.4683 20.9753 28.7586C20.982 28.7642 20.9886 28.77 20.9951 28.7758C21.7923 29.4933 22.8407 29.9167 24.0001 29.9167C25.6726 29.9167 27.1257 29.0244 27.9155 27.6966L27.9216 27.6863L27.9217 27.6864C28.3429 27.0033 28.5834 26.1927 28.5834 25.3333C28.5834 24.18 28.1505 23.1263 27.4359 22.3075C26.5976 21.355 25.3731 20.75 24.0001 20.75ZM17.9167 25.3333C17.9167 21.9725 20.6392 19.25 24.0001 19.25C25.8266 19.25 27.4548 20.0577 28.5632 21.318L28.565 21.32C29.5032 22.3944 30.0834 23.7938 30.0834 25.3333C30.0834 26.4718 29.7651 27.5526 29.2016 28.4685C28.1507 30.2313 26.2187 31.4167 24.0001 31.4167C22.4707 31.4167 21.0697 30.8567 20.0014 29.8995C19.5275 29.5001 19.1169 29.0124 18.7969 28.4658C18.2345 27.5506 17.9167 26.4707 17.9167 25.3333Z" fill="#525252"/>
<path fill-rule="evenodd" clip-rule="evenodd" d="M26.6308 23.5174C26.9121 23.8215 26.8936 24.296 26.5895 24.5772L23.7495 27.2039C23.4537 27.4774 22.9947 27.4685 22.7099 27.1836L21.3899 25.8636C21.097 25.5708 21.097 25.0959 21.3899 24.803C21.6828 24.5101 22.1577 24.5101 22.4506 24.803L23.2605 25.6129L25.571 23.476C25.8751 23.1948 26.3496 23.2133 26.6308 23.5174Z" fill="#525252"/>
<path fill-rule="evenodd" clip-rule="evenodd" d="M6.13293 7.01041C5.22137 7.99209 4.75 9.44836 4.75 11.3334V22.6668C4.75 24.5518 5.22137 26.0081 6.13293 26.9897C7.03515 27.9613 8.47629 28.5834 10.6667 28.5834H18.8675C18.8435 28.5445 18.8199 28.5054 18.7968 28.4659C18.2344 27.5506 17.9167 26.4708 17.9167 25.3334C17.9167 21.9726 20.6391 19.2501 24 19.2501C25.1991 19.2501 26.3128 19.5982 27.25 20.194V11.3334C27.25 9.44836 26.7786 7.99209 25.8671 7.01041C24.9648 6.0388 23.5237 5.41675 21.3333 5.41675H10.6667C8.4763 5.41675 7.03515 6.0388 6.13293 7.01041ZM5.03374 5.98973C6.2982 4.62803 8.1904 3.91675 10.6667 3.91675H21.3333C23.8096 3.91675 25.7018 4.62803 26.9663 5.98973C28.2214 7.34138 28.75 9.21842 28.75 11.3334V21.8134C28.75 22.1255 28.5567 22.405 28.2647 22.5151C27.9727 22.6253 27.6429 22.543 27.4368 22.3087C26.5986 21.3555 25.3735 20.7501 24 20.7501C21.4675 20.7501 19.4167 22.801 19.4167 25.3334C19.4167 26.1928 19.6572 27.0034 20.0784 27.6864L20.0878 27.7022C20.3249 28.1085 20.629 28.4684 20.9752 28.7587C21.2168 28.9613 21.3059 29.2935 21.1981 29.5898C21.0903 29.8861 20.8086 30.0834 20.4933 30.0834H10.6667C8.19041 30.0834 6.2982 29.3721 5.03375 28.0104C3.77863 26.6588 3.25 24.7817 3.25 22.6668V11.3334C3.25 9.21842 3.77863 7.34138 5.03374 5.98973Z" fill="#525252"/>
<path fill-rule="evenodd" clip-rule="evenodd" d="M14.9941 18.2666C14.9941 17.7143 15.4418 17.2666 15.9941 17.2666H16.006C16.5583 17.2666 17.006 17.7143 17.006 18.2666C17.006 18.8189 16.5583 19.2666 16.006 19.2666H15.9941C15.4418 19.2666 14.9941 18.8189 14.9941 18.2666Z" fill="#525252"/>
<path fill-rule="evenodd" clip-rule="evenodd" d="M10.059 18.2666C10.059 17.7143 10.5067 17.2666 11.059 17.2666H11.071C11.6233 17.2666 12.071 17.7143 12.071 18.2666C12.071 18.8189 11.6233 19.2666 11.071 19.2666H11.059C10.5067 19.2666 10.059 18.8189 10.059 18.2666Z" fill="#525252"/>
<path fill-rule="evenodd" clip-rule="evenodd" d="M10.059 22.2666C10.059 21.7143 10.5067 21.2666 11.059 21.2666H11.071C11.6233 21.2666 12.071 21.7143 12.071 22.2666C12.071 22.8189 11.6233 23.2666 11.071 23.2666H11.059C10.5067 23.2666 10.059 22.8189 10.059 22.2666Z" fill="#525252"/>
</svg>
