<svg width="32" height="32" viewBox="0 0 32 32" fill="none" xmlns="http://www.w3.org/2000/svg">
<path fill-rule="evenodd" clip-rule="evenodd" d="M4.30308 4.30309C6.01255 2.59362 8.59278 1.91675 12.0001 1.91675H20.0001C23.4074 1.91675 25.9876 2.59362 27.6971 4.30309C29.4065 6.01255 30.0834 8.59277 30.0834 12.0001V16.0001C30.0834 16.4143 29.7476 16.7501 29.3334 16.7501C28.9192 16.7501 28.5834 16.4143 28.5834 16.0001V12.0001C28.5834 8.74072 27.9269 6.65428 26.6364 5.36375C25.3459 4.07321 23.2594 3.41675 20.0001 3.41675H12.0001C8.74073 3.41675 6.65428 4.07321 5.36374 5.36375C4.07321 6.65428 3.41675 8.74072 3.41675 12.0001V20.0001C3.41675 23.2595 4.07321 25.3459 5.36374 26.6364C6.65427 27.9269 8.74072 28.5834 12.0001 28.5834H16.0001C16.4143 28.5834 16.7501 28.9192 16.7501 29.3334C16.7501 29.7476 16.4143 30.0834 16.0001 30.0834H12.0001C8.59279 30.0834 6.01256 29.4065 4.30309 27.6971C2.59361 25.9876 1.91675 23.4074 1.91675 20.0001V12.0001C1.91675 8.59278 2.59361 6.01255 4.30308 4.30309Z" fill="#525252"/>
<path fill-rule="evenodd" clip-rule="evenodd" d="M18.1567 19.7795C18.1569 19.7801 18.1571 19.7807 18.1572 19.7812L20.6225 27.71C20.6226 27.7101 20.6225 27.7099 20.6225 27.71C20.9951 28.9028 22.6547 28.9171 23.0484 27.7362L23.0492 27.7336L23.7814 25.5636C24.0582 24.7192 24.7185 24.0815 25.5347 23.809C25.5351 23.8089 25.5356 23.8087 25.536 23.8086L27.7079 23.0757C28.89 22.6789 28.864 21.004 27.6961 20.6359C27.6957 20.6358 27.6954 20.6357 27.695 20.6356L19.7508 18.1697L19.7471 18.1685C18.7806 17.8629 17.8492 18.7672 18.1567 19.7795ZM20.1973 16.7376C18.045 16.0587 16.0718 18.086 16.7225 20.2189L19.1904 28.1561C19.9912 30.7224 23.6104 30.7895 24.4709 28.2119C24.4711 28.2115 24.4712 28.211 24.4714 28.2106L25.2038 26.0399L25.2062 26.0326C25.3301 25.6528 25.6284 25.3589 26.0104 25.2316L26.013 25.2307L28.1853 24.4977C28.1851 24.4978 28.1854 24.4976 28.1853 24.4977C30.7355 23.6411 30.709 20.0105 28.1448 19.2046L20.1993 16.7383C20.1986 16.7381 20.198 16.7379 20.1973 16.7376Z" fill="#525252"/>
</svg>
