<svg width="32" height="32" viewBox="0 0 32 32" fill="none" xmlns="http://www.w3.org/2000/svg">
<path fill-rule="evenodd" clip-rule="evenodd" d="M4.30308 4.30308C6.01256 2.59361 8.59278 1.91675 12.0001 1.91675H20.0001C23.4074 1.91675 25.9876 2.59361 27.6971 4.30308C29.4065 6.01255 30.0834 8.59277 30.0834 12.0001V20.0001C30.0834 23.4074 29.4065 25.9876 27.6971 27.6971C25.9876 29.4065 23.4074 30.0834 20.0001 30.0834H12.0001C8.59279 30.0834 6.01256 29.4065 4.30309 27.6971C2.59361 25.9876 1.91675 23.4074 1.91675 20.0001V12.0001C1.91675 8.59277 2.59361 6.01255 4.30308 4.30308ZM5.36374 5.36374C4.07321 6.65427 3.41675 8.74072 3.41675 12.0001V20.0001C3.41675 23.2595 4.07321 25.3459 5.36374 26.6364C6.65427 27.9269 8.74072 28.5834 12.0001 28.5834H20.0001C23.2594 28.5834 25.3459 27.9269 26.6364 26.6364C27.9269 25.3459 28.5834 23.2595 28.5834 20.0001V12.0001C28.5834 8.74072 27.9269 6.65427 26.6364 5.36374C25.3459 4.07321 23.2594 3.41675 20.0001 3.41675H12.0001C8.74072 3.41675 6.65428 4.07321 5.36374 5.36374Z" fill="#525252"/>
<path fill-rule="evenodd" clip-rule="evenodd" d="M22.332 12.5244C18.3427 10.5361 13.6572 10.5361 9.66778 12.5244C9.29706 12.7092 8.84675 12.5584 8.66198 12.1877C8.47722 11.817 8.62796 11.3667 8.99868 11.1819C13.4094 8.98363 18.5905 8.98363 23.0011 11.1819C23.3719 11.3667 23.5226 11.817 23.3378 12.1877C23.1531 12.5585 22.7028 12.7092 22.332 12.5244Z" fill="#525252"/>
<path fill-rule="evenodd" clip-rule="evenodd" d="M16 9.82324C16.4142 9.82324 16.75 10.159 16.75 10.5732V21.7332C16.75 22.1475 16.4142 22.4832 16 22.4832C15.5858 22.4832 15.25 22.1475 15.25 21.7332V10.5732C15.25 10.159 15.5858 9.82324 16 9.82324Z" fill="#525252"/>
</svg>
