<svg width="26" height="26" viewBox="0 0 26 26" fill="none" xmlns="http://www.w3.org/2000/svg">
<path d="M20.9298 11.6459H5.08059C3.03309 11.6459 1.36475 9.9775 1.36475 7.93V5.08083C1.36475 3.03333 3.03309 1.36499 5.08059 1.36499H20.9298C22.9773 1.36499 24.6456 3.03333 24.6456 5.08083V7.93C24.6456 9.9775 22.9773 11.6459 20.9298 11.6459ZM5.06974 2.97916C3.91058 2.97916 2.97892 3.92166 2.97892 5.06999V7.91916C2.97892 9.07833 3.92141 10.01 5.06974 10.01H20.9189C22.0781 10.01 23.0098 9.06749 23.0098 7.91916V5.06999C23.0098 3.91082 22.0673 2.97916 20.9189 2.97916H5.06974Z" fill="#525252"/>
<path d="M20.9298 24.6458H5.08059C3.03309 24.6458 1.36475 22.9775 1.36475 20.93V18.0808C1.36475 16.0333 3.03309 14.365 5.08059 14.365H20.9298C22.9773 14.365 24.6456 16.0333 24.6456 18.0808V20.93C24.6456 22.9775 22.9773 24.6458 20.9298 24.6458ZM5.06974 15.9791C3.91058 15.9791 2.97892 16.9216 2.97892 18.0699V20.9191C2.97892 22.0783 3.92141 23.01 5.06974 23.01H20.9189C22.0781 23.01 23.0098 22.0675 23.0098 20.9191V18.0699C23.0098 16.9108 22.0673 15.9791 20.9189 15.9791H5.06974Z" fill="#525252"/>
<path d="M6.5 8.39591C6.05583 8.39591 5.6875 8.02758 5.6875 7.58341V5.41675C5.6875 4.97258 6.05583 4.60425 6.5 4.60425C6.94417 4.60425 7.3125 4.97258 7.3125 5.41675V7.58341C7.3125 8.02758 6.94417 8.39591 6.5 8.39591Z" fill="#525252"/>
<path d="M10.8333 8.39591C10.3891 8.39591 10.0208 8.02758 10.0208 7.58341V5.41675C10.0208 4.97258 10.3891 4.60425 10.8333 4.60425C11.2774 4.60425 11.6458 4.97258 11.6458 5.41675V7.58341C11.6458 8.02758 11.2774 8.39591 10.8333 8.39591Z" fill="#525252"/>
<path d="M6.5 21.3957C6.05583 21.3957 5.6875 21.0274 5.6875 20.5832V18.4165C5.6875 17.9724 6.05583 17.604 6.5 17.604C6.94417 17.604 7.3125 17.9724 7.3125 18.4165V20.5832C7.3125 21.0274 6.94417 21.3957 6.5 21.3957Z" fill="#525252"/>
<path d="M10.8333 21.3957C10.3891 21.3957 10.0208 21.0274 10.0208 20.5832V18.4165C10.0208 17.9724 10.3891 17.604 10.8333 17.604C11.2774 17.604 11.6458 17.9724 11.6458 18.4165V20.5832C11.6458 21.0274 11.2774 21.3957 10.8333 21.3957Z" fill="#525252"/>
<path d="M19.5001 7.3125H15.1667C14.7226 7.3125 14.3542 6.94417 14.3542 6.5C14.3542 6.05583 14.7226 5.6875 15.1667 5.6875H19.5001C19.9442 5.6875 20.3126 6.05583 20.3126 6.5C20.3126 6.94417 19.9442 7.3125 19.5001 7.3125Z" fill="#525252"/>
<path d="M19.5001 20.3125H15.1667C14.7226 20.3125 14.3542 19.9442 14.3542 19.5C14.3542 19.0558 14.7226 18.6875 15.1667 18.6875H19.5001C19.9442 18.6875 20.3126 19.0558 20.3126 19.5C20.3126 19.9442 19.9442 20.3125 19.5001 20.3125Z" fill="#525252"/>
</svg>
