<svg width="32" height="32" viewBox="0 0 32 32" fill="none" xmlns="http://www.w3.org/2000/svg">
<path d="M6.41141 9.63647V14.0001H5.22675V10.7274H5.20118L4.24664 11.2984V10.2927L5.3205 9.63647H6.41141Z" fill="#525252"/>
<path d="M14.3503 14V13.1477L15.9782 11.8011C16.0861 11.7116 16.1784 11.6278 16.2551 11.5497C16.3333 11.4702 16.3929 11.3885 16.4341 11.3047C16.4767 11.2209 16.498 11.1278 16.498 11.0256C16.498 10.9134 16.4739 10.8175 16.4256 10.7379C16.3787 10.6584 16.3134 10.5973 16.2296 10.5547C16.1458 10.5107 16.0492 10.4886 15.9398 10.4886C15.8304 10.4886 15.7338 10.5107 15.65 10.5547C15.5676 10.5987 15.5037 10.6634 15.4583 10.7486C15.4128 10.8338 15.3901 10.9375 15.3901 11.0597H14.2651C14.2651 10.7528 14.334 10.4886 14.4718 10.267C14.6096 10.0455 14.8042 9.87496 15.0556 9.75564C15.307 9.63632 15.6017 9.57666 15.9398 9.57666C16.2892 9.57666 16.5918 9.63277 16.8475 9.74499C17.1046 9.85578 17.3027 10.0121 17.4419 10.2138C17.5826 10.4155 17.6529 10.652 17.6529 10.9233C17.6529 11.0909 17.6181 11.2578 17.5485 11.424C17.4789 11.5888 17.3539 11.7713 17.1735 11.9716C16.9931 12.1719 16.7367 12.4105 16.4043 12.6875L15.9952 13.0284V13.054H17.6998V14H14.3503Z" fill="#525252"/>
<path d="M26.4699 14.0597C26.1262 14.0597 25.8208 14.0007 25.5537 13.8828C25.2881 13.7635 25.0793 13.5994 24.9273 13.3906C24.7753 13.1818 24.6986 12.9418 24.6972 12.6705H25.8904C25.8918 12.7543 25.9173 12.8295 25.9671 12.8963C26.0182 12.9616 26.0878 13.0128 26.1759 13.0497C26.2639 13.0866 26.3648 13.1051 26.4784 13.1051C26.5878 13.1051 26.6844 13.0859 26.7682 13.0476C26.852 13.0078 26.9173 12.9531 26.9642 12.8835C27.0111 12.8139 27.0338 12.7344 27.0324 12.6449C27.0338 12.5568 27.0068 12.4787 26.9514 12.4105C26.8975 12.3423 26.8215 12.2891 26.7235 12.2507C26.6254 12.2124 26.5125 12.1932 26.3847 12.1932H25.9415V11.375H26.3847C26.5026 11.375 26.6063 11.3558 26.6958 11.3175C26.7867 11.2791 26.857 11.2259 26.9067 11.1577C26.9578 11.0895 26.9827 11.0114 26.9813 10.9233C26.9827 10.8381 26.9621 10.7628 26.9195 10.6974C26.8769 10.6321 26.8172 10.581 26.7405 10.544C26.6652 10.5071 26.5779 10.4886 26.4784 10.4886C26.3705 10.4886 26.2739 10.5078 26.1887 10.5462C26.1048 10.5845 26.0388 10.6378 25.9905 10.706C25.9422 10.7741 25.9173 10.8523 25.9159 10.9403H24.7824C24.7838 10.6733 24.857 10.4375 25.0019 10.233C25.1482 10.0284 25.3485 9.86786 25.6027 9.75138C25.857 9.6349 26.1489 9.57666 26.4784 9.57666C26.8009 9.57666 27.0857 9.63135 27.3328 9.74073C27.5814 9.8501 27.7753 10.0007 27.9145 10.1925C28.0551 10.3828 28.1247 10.6009 28.1233 10.8466C28.1262 11.0909 28.0423 11.2912 27.8719 11.4474C27.7029 11.6037 27.4884 11.696 27.2284 11.7244V11.7585C27.5807 11.7969 27.8456 11.9048 28.0232 12.0824C28.2007 12.2585 28.2881 12.4801 28.2852 12.7472C28.2867 13.0028 28.21 13.2294 28.0551 13.4268C27.9017 13.6243 27.6879 13.7791 27.4138 13.8913C27.1411 14.0036 26.8264 14.0597 26.4699 14.0597Z" fill="#525252"/>
<path fill-rule="evenodd" clip-rule="evenodd" d="M2.25 19.6667C2.25 17.7858 3.78578 16.25 5.66667 16.25C7.54755 16.25 9.08333 17.7858 9.08333 19.6667C9.08333 21.5475 7.54753 23.0833 5.66667 23.0833C3.7858 23.0833 2.25 21.5475 2.25 19.6667ZM5.66667 17.75C4.61422 17.75 3.75 18.6142 3.75 19.6667C3.75 20.7191 4.6142 21.5833 5.66667 21.5833C6.71913 21.5833 7.58333 20.7191 7.58333 19.6667C7.58333 18.6142 6.71911 17.75 5.66667 17.75Z" fill="#525252"/>
<path fill-rule="evenodd" clip-rule="evenodd" d="M12.5833 19.6667C12.5833 17.7858 14.1191 16.25 15.9999 16.25C17.8808 16.25 19.4166 17.7858 19.4166 19.6667C19.4166 21.5475 17.8808 23.0833 15.9999 23.0833C14.1191 23.0833 12.5833 21.5475 12.5833 19.6667ZM15.9999 17.75C14.9475 17.75 14.0833 18.6142 14.0833 19.6667C14.0833 20.7191 14.9475 21.5833 15.9999 21.5833C17.0524 21.5833 17.9166 20.7191 17.9166 19.6667C17.9166 18.6142 17.0524 17.75 15.9999 17.75Z" fill="#525252"/>
<path fill-rule="evenodd" clip-rule="evenodd" d="M23.25 19.5C23.25 17.7108 24.7108 16.25 26.5 16.25C28.2892 16.25 29.75 17.7108 29.75 19.5C29.75 21.2892 28.2892 22.75 26.5 22.75C24.7108 22.75 23.25 21.2892 23.25 19.5ZM26.5 17.75C25.5392 17.75 24.75 18.5392 24.75 19.5C24.75 20.4608 25.5392 21.25 26.5 21.25C27.4608 21.25 28.25 20.4608 28.25 19.5C28.25 18.5392 27.4608 17.75 26.5 17.75Z" fill="#525252"/>
</svg>
