<svg width="32" height="32" viewBox="0 0 32 32" fill="none" xmlns="http://www.w3.org/2000/svg">
<path fill-rule="evenodd" clip-rule="evenodd" d="M4.5 4.5C3.39543 4.5 2.5 5.39543 2.5 6.5C2.5 7.60457 3.39543 8.5 4.5 8.5H26.5C27.6046 8.5 28.5 7.60457 28.5 6.5C28.5 5.39543 27.6046 4.5 26.5 4.5H4.5ZM1.5 6.5C1.5 4.84315 2.84315 3.5 4.5 3.5H26.5C28.1569 3.5 29.5 4.84315 29.5 6.5C29.5 8.15685 28.1569 9.5 26.5 9.5H4.5C2.84315 9.5 1.5 8.15685 1.5 6.5Z" fill="#515253"/>
<path fill-rule="evenodd" clip-rule="evenodd" d="M4.5 13.5C3.39543 13.5 2.5 14.3954 2.5 15.5C2.5 16.6046 3.39543 17.5 4.5 17.5H26.5C27.6046 17.5 28.5 16.6046 28.5 15.5C28.5 14.3954 27.6046 13.5 26.5 13.5H4.5ZM1.5 15.5C1.5 13.8431 2.84315 12.5 4.5 12.5H26.5C28.1569 12.5 29.5 13.8431 29.5 15.5C29.5 17.1569 28.1569 18.5 26.5 18.5H4.5C2.84315 18.5 1.5 17.1569 1.5 15.5Z" fill="#515253"/>
<path fill-rule="evenodd" clip-rule="evenodd" d="M4 22H14C15.1046 22 16 22.8954 16 24C16 25.1046 15.1046 26 14 26H8.83067H4C2.89543 26 2 25.1046 2 24C2 22.8954 2.89543 22 4 22Z" fill="#515253"/>
<path fill-rule="evenodd" clip-rule="evenodd" d="M4 22.5C3.17157 22.5 2.5 23.1716 2.5 24C2.5 24.8284 3.17157 25.5 4 25.5H14C14.8284 25.5 15.5 24.8284 15.5 24C15.5 23.1716 14.8284 22.5 14 22.5H4ZM1.5 24C1.5 22.6193 2.61929 21.5 4 21.5H14C15.3807 21.5 16.5 22.6193 16.5 24C16.5 25.3807 15.3807 26.5 14 26.5H4C2.61929 26.5 1.5 25.3807 1.5 24Z" fill="#515253"/>
</svg>
