<svg width="32" height="32" viewBox="0 0 32 32" fill="none" xmlns="http://www.w3.org/2000/svg">
<path fill-rule="evenodd" clip-rule="evenodd" d="M10.0841 5.48223C9.08364 6.72421 8.75 8.50496 8.75 10.6668V13.3334C8.75 13.7476 8.41421 14.0834 8 14.0834C7.58579 14.0834 7.25 13.7476 7.25 13.3334V10.6668C7.25 8.41523 7.58303 6.19597 8.91592 4.54126C10.277 2.85153 12.5383 1.91675 16 1.91675C19.4617 1.91675 21.723 2.85153 23.0841 4.54127C24.417 6.19597 24.75 8.41523 24.75 10.6668V13.3334C24.75 13.7476 24.4142 14.0834 24 14.0834C23.5858 14.0834 23.25 13.7476 23.25 13.3334V10.6668C23.25 8.50496 22.9164 6.7242 21.9159 5.48223C20.9437 4.2753 19.205 3.41675 16 3.41675C12.795 3.41675 11.0563 4.2753 10.0841 5.48223Z" fill="#525252"/>
<path fill-rule="evenodd" clip-rule="evenodd" d="M4.53041 15.1969C3.76892 15.9584 3.41675 17.3279 3.41675 20V22.6667C3.41675 25.3387 3.76892 26.7081 4.53041 27.4696C5.2919 28.2311 6.66138 28.5833 9.33341 28.5833H22.6667C25.3388 28.5833 26.7083 28.2311 27.4697 27.4696C28.2312 26.7081 28.5834 25.3387 28.5834 22.6667V20C28.5834 17.3279 28.2312 15.9584 27.4697 15.1969C26.7082 14.4354 25.3388 14.0833 22.6667 14.0833H9.33341C6.66139 14.0833 5.29191 14.4354 4.53041 15.1969ZM3.46975 14.1363C4.70825 12.8978 6.6721 12.5833 9.33341 12.5833H22.6667C25.328 12.5833 27.2919 12.8978 28.5304 14.1363C29.7689 15.3748 30.0834 17.3387 30.0834 20V22.6667C30.0834 25.3279 29.7689 27.2918 28.5304 28.5303C27.2919 29.7688 25.328 30.0833 22.6667 30.0833H9.33341C6.67211 30.0833 4.70826 29.7688 3.46975 28.5303C2.23124 27.2918 1.91675 25.3279 1.91675 22.6667V20C1.91675 17.3387 2.23125 15.3748 3.46975 14.1363Z" fill="#525252"/>
<path fill-rule="evenodd" clip-rule="evenodd" d="M20.3285 21.3333C20.3285 20.781 20.7762 20.3333 21.3285 20.3333H21.3405C21.8928 20.3333 22.3405 20.781 22.3405 21.3333C22.3405 21.8855 21.8928 22.3333 21.3405 22.3333H21.3285C20.7762 22.3333 20.3285 21.8855 20.3285 21.3333Z" fill="#525252"/>
<path fill-rule="evenodd" clip-rule="evenodd" d="M14.9941 21.3333C14.9941 20.781 15.4418 20.3333 15.9941 20.3333H16.006C16.5583 20.3333 17.006 20.781 17.006 21.3333C17.006 21.8855 16.5583 22.3333 16.006 22.3333H15.9941C15.4418 22.3333 14.9941 21.8855 14.9941 21.3333Z" fill="#525252"/>
<path fill-rule="evenodd" clip-rule="evenodd" d="M9.6593 21.3333C9.6593 20.781 10.107 20.3333 10.6593 20.3333H10.6713C11.2236 20.3333 11.6713 20.781 11.6713 21.3333C11.6713 21.8855 11.2236 22.3333 10.6713 22.3333H10.6593C10.107 22.3333 9.6593 21.8855 9.6593 21.3333Z" fill="#525252"/>
</svg>
