<svg width="32" height="32" viewBox="0 0 32 32" fill="none" xmlns="http://www.w3.org/2000/svg">
<path fill-rule="evenodd" clip-rule="evenodd" d="M3.25 16C3.25 14.119 4.78578 12.5833 6.66667 12.5833C8.54755 12.5833 10.0833 14.119 10.0833 16C10.0833 17.8809 8.54755 19.4167 6.66667 19.4167C4.78578 19.4167 3.25 17.8809 3.25 16ZM6.66667 14.0833C5.61422 14.0833 4.75 14.9475 4.75 16C4.75 17.0524 5.61422 17.9167 6.66667 17.9167C7.71911 17.9167 8.58333 17.0524 8.58333 16C8.58333 14.9475 7.71911 14.0833 6.66667 14.0833Z" fill="#525252"/>
<path fill-rule="evenodd" clip-rule="evenodd" d="M21.9167 16C21.9167 14.119 23.4525 12.5833 25.3334 12.5833C27.2143 12.5833 28.7501 14.119 28.7501 16C28.7501 17.8809 27.2143 19.4167 25.3334 19.4167C23.4525 19.4167 21.9167 17.8809 21.9167 16ZM25.3334 14.0833C24.2809 14.0833 23.4167 14.9475 23.4167 16C23.4167 17.0524 24.2809 17.9167 25.3334 17.9167C26.3859 17.9167 27.2501 17.0524 27.2501 16C27.2501 14.9475 26.3859 14.0833 25.3334 14.0833Z" fill="#525252"/>
<path fill-rule="evenodd" clip-rule="evenodd" d="M12.5833 16C12.5833 14.1191 14.1191 12.5833 15.9999 12.5833C17.8808 12.5833 19.4166 14.119 19.4166 16C19.4166 17.8809 17.8808 19.4167 15.9999 19.4167C14.1191 19.4167 12.5833 17.8808 12.5833 16ZM15.9999 14.0833C14.9475 14.0833 14.0833 14.9474 14.0833 16C14.0833 17.0525 14.9475 17.9167 15.9999 17.9167C17.0524 17.9167 17.9166 17.0524 17.9166 16C17.9166 14.9475 17.0524 14.0833 15.9999 14.0833Z" fill="#525252"/>
</svg>
