<svg width="32" height="32" viewBox="0 0 32 32" fill="none" xmlns="http://www.w3.org/2000/svg">
<path fill-rule="evenodd" clip-rule="evenodd" d="M4.30284 4.30284C6.01231 2.59337 8.59253 1.9165 11.9998 1.9165H19.9998C23.4071 1.9165 25.9874 2.59337 27.6968 4.30284C29.4063 6.01231 30.0832 8.59253 30.0832 11.9998V19.9998C30.0832 23.4071 29.4063 25.9874 27.6968 27.6968C25.9874 29.4063 23.4071 30.0832 19.9998 30.0832H11.9998C8.59253 30.0832 6.01231 29.4063 4.30284 27.6968C2.59337 25.9874 1.9165 23.4071 1.9165 19.9998V11.9998C1.9165 8.59253 2.59337 6.01231 4.30284 4.30284ZM5.3635 5.3635C4.07297 6.65403 3.4165 8.74048 3.4165 11.9998V19.9998C3.4165 23.2592 4.07297 25.3456 5.3635 26.6362C6.65403 27.9267 8.74048 28.5832 11.9998 28.5832H19.9998C23.2592 28.5832 25.3456 27.9267 26.6362 26.6362C27.9267 25.3456 28.5832 23.2592 28.5832 19.9998V11.9998C28.5832 8.74048 27.9267 6.65403 26.6362 5.3635C25.3456 4.07297 23.2592 3.4165 19.9998 3.4165H11.9998C8.74048 3.4165 6.65403 4.07297 5.3635 5.3635Z" fill="#525252"/>
<path fill-rule="evenodd" clip-rule="evenodd" d="M13.7902 10.7619C14.0836 10.4694 14.5584 10.4701 14.8509 10.7634L19.5442 15.4701C19.8361 15.7628 19.8361 16.2365 19.5442 16.5292L14.8509 21.2359C14.5584 21.5292 14.0836 21.5299 13.7902 21.2374C13.4969 20.9449 13.4963 20.47 13.7887 20.1767L17.954 15.9996L13.7887 11.8225C13.4963 11.5292 13.4969 11.0544 13.7902 10.7619Z" fill="#525252"/>
</svg>
