<svg width="32" height="32" viewBox="0 0 32 32" fill="none" xmlns="http://www.w3.org/2000/svg">
<path fill-rule="evenodd" clip-rule="evenodd" d="M13.9167 26C13.9167 25.5858 14.2525 25.25 14.6667 25.25H28.0001C28.4143 25.25 28.7501 25.5858 28.7501 26C28.7501 26.4142 28.4143 26.75 28.0001 26.75H14.6667C14.2525 26.75 13.9167 26.4142 13.9167 26Z" fill="#525252"/>
<path fill-rule="evenodd" clip-rule="evenodd" d="M13.9167 16.6667C13.9167 16.2525 14.2525 15.9167 14.6667 15.9167H28.0001C28.4143 15.9167 28.7501 16.2525 28.7501 16.6667C28.7501 17.081 28.4143 17.4167 28.0001 17.4167H14.6667C14.2525 17.4167 13.9167 17.081 13.9167 16.6667Z" fill="#525252"/>
<path fill-rule="evenodd" clip-rule="evenodd" d="M13.9167 7.33325C13.9167 6.91904 14.2525 6.58325 14.6667 6.58325H28.0001C28.4143 6.58325 28.7501 6.91904 28.7501 7.33325C28.7501 7.74747 28.4143 8.08325 28.0001 8.08325H14.6667C14.2525 8.08325 13.9167 7.74747 13.9167 7.33325Z" fill="#525252"/>
<path fill-rule="evenodd" clip-rule="evenodd" d="M9.86366 4.13642C10.1566 4.42931 10.1566 4.90418 9.86366 5.19708L5.86366 9.19708C5.72301 9.33773 5.53224 9.41675 5.33333 9.41675C5.13442 9.41675 4.94365 9.33773 4.803 9.19708L3.46967 7.86374C3.17678 7.57084 3.17678 7.09597 3.46967 6.80308C3.76257 6.51018 4.23744 6.51019 4.53033 6.80308L5.33333 7.60609L8.803 4.13642C9.09589 3.84352 9.57077 3.84352 9.86366 4.13642Z" fill="#525252"/>
<path fill-rule="evenodd" clip-rule="evenodd" d="M9.86366 13.4697C10.1566 13.7626 10.1566 14.2374 9.86366 14.5303L5.86366 18.5303C5.57077 18.8232 5.0959 18.8232 4.80301 18.5303L3.46968 17.197C3.17678 16.9041 3.17677 16.4293 3.46966 16.1364C3.76255 15.8435 4.23743 15.8435 4.53032 16.1364L5.33332 16.9393L8.803 13.4697C9.09589 13.1768 9.57077 13.1768 9.86366 13.4697Z" fill="#525252"/>
<path fill-rule="evenodd" clip-rule="evenodd" d="M9.86366 22.8029C10.1566 23.0958 10.1566 23.5707 9.86366 23.8636L5.86366 27.8636C5.57077 28.1565 5.0959 28.1565 4.80301 27.8636L3.46968 26.5303C3.17678 26.2374 3.17677 25.7625 3.46966 25.4696C3.76255 25.1767 4.23743 25.1767 4.53032 25.4696L5.33332 26.2726L8.803 22.8029C9.09589 22.51 9.57077 22.51 9.86366 22.8029Z" fill="#525252"/>
</svg>
