<svg width="32" height="32" viewBox="0 0 32 32" fill="none" xmlns="http://www.w3.org/2000/svg">
<path fill-rule="evenodd" clip-rule="evenodd" d="M1.91675 2.66675C1.91675 2.25253 2.25253 1.91675 2.66675 1.91675H4.98676C6.52404 1.91675 7.79203 2.99748 8.11765 4.41008H24.9734C27.6331 4.41008 29.6597 6.57731 29.4681 9.2275L28.7482 19.2272L28.7479 19.2309C28.5714 21.5246 26.5691 23.4034 24.2534 23.4034H10.0534C7.43012 23.4034 5.36222 21.1637 5.58607 18.5502C5.5861 18.5499 5.58613 18.5496 5.58616 18.5492L6.69267 5.27113C6.77596 4.28086 5.98668 3.41675 4.98676 3.41675H2.66675C2.25253 3.41675 1.91675 3.08096 1.91675 2.66675ZM8.14462 5.91008L7.08082 18.6757L7.08066 18.6776C6.93183 20.4105 8.3037 21.9034 10.0534 21.9034H24.2534C25.7771 21.9034 27.1342 20.6367 27.2522 19.1178C27.2522 19.1171 27.2523 19.1165 27.2523 19.1158L27.972 9.11957C28.1005 7.34309 26.7671 5.91008 24.9734 5.91008H8.14462Z" fill="#525252"/>
<path fill-rule="evenodd" clip-rule="evenodd" d="M19.25 27.6667C19.25 26.332 20.332 25.25 21.6667 25.25C23.0013 25.25 24.0833 26.332 24.0833 27.6667C24.0833 29.0013 23.0013 30.0833 21.6667 30.0833C20.332 30.0833 19.25 29.0013 19.25 27.6667ZM21.6667 26.75C21.1604 26.75 20.75 27.1604 20.75 27.6667C20.75 28.1729 21.1604 28.5833 21.6667 28.5833C22.1729 28.5833 22.5833 28.1729 22.5833 27.6667C22.5833 27.1604 22.1729 26.75 21.6667 26.75Z" fill="#525252"/>
<path fill-rule="evenodd" clip-rule="evenodd" d="M8.58325 27.6667C8.58325 26.332 9.66516 25.25 10.9999 25.25C12.3346 25.25 13.4166 26.332 13.4166 27.6667C13.4166 29.0013 12.3346 30.0833 10.9999 30.0833C9.66519 30.0833 8.58325 29.0013 8.58325 27.6667ZM10.9999 26.75C10.4936 26.75 10.0833 27.1604 10.0833 27.6667C10.0833 28.1729 10.4936 28.5833 10.9999 28.5833C11.5062 28.5833 11.9166 28.1729 11.9166 27.6667C11.9166 27.1604 11.5062 26.75 10.9999 26.75Z" fill="#525252"/>
<path fill-rule="evenodd" clip-rule="evenodd" d="M11.25 10.6667C11.25 10.2525 11.5858 9.91675 12 9.91675H28C28.4142 9.91675 28.75 10.2525 28.75 10.6667C28.75 11.081 28.4142 11.4167 28 11.4167H12C11.5858 11.4167 11.25 11.081 11.25 10.6667Z" fill="#525252"/>
</svg>
