<svg style="position: absolute; width: 0; height: 0;" width="0" height="0" version="1.1" xmlns="http://www.w3.org/2000/svg" xmlns:xlink="http://www.w3.org/1999/xlink">
<defs>
<symbol id="icon-logo" viewBox="0 0 45 32">
<path fill="#fff" class="path1" d="M38.586 0h-23.014c-1.32 0-2.643 0.44-3.653 1.485l-10.403 10.656c-2.019 2.090-2.019 5.456 0 7.544l10.403 10.723c1.010 1.045 2.333 1.592 3.653 1.592h23.014c2.856 0 6.181-2.466 6.181-5.419v-21.397c0-2.954-3.325-5.184-6.181-5.184zM14.366 20.8c-2.651 0-4.8-2.149-4.8-4.8s2.149-4.8 4.8-4.8 4.8 2.149 4.8 4.8-2.147 4.8-4.8 4.8z"></path>
</symbol>

<symbol id="icon-info" viewBox="0 0 512 512">
<path d="m460 98l-234 234-46-46 234-234z m-76 286l-256 0 0-256 128 0 0-64-128 0c-35 0-64 29-64 64l0 256c0 35 29 64 64 64l256 0c35 0 64-29 64-64l0-128-64 0z"></path>
</symbol>

<symbol id="icon-arrow-right" viewBox="0 0 610 1024">
<path class="path1" d="M581.055 442.945l-414.327-414.327c-38.19-38.19-99.919-38.19-138.109 0-38.19 38.092-38.19 99.919 0 138.109l345.273 345.273-345.273 345.273c-38.19 38.19-38.19 100.017 0 138.207 38.19 38.092 99.919 38.092 138.109 0l414.327-414.425c38.19-38.092 38.19-99.919 0-138.109z"></path>
</symbol>

<symbol id="icon-loop" viewBox="0 0 512 512">
<path d="m363 315c23-32 37-72 37-115 0-111-90-200-200-200-111 0-200 89-200 200 0 110 89 200 200 200 43 0 83-14 115-38l150 150 47-48z m-163 18c-74 0-133-60-133-133 0-74 59-133 133-133 73 0 133 59 133 133 0 73-60 133-133 133z"></path>
</symbol>

<symbol id="icon-arrow-down" viewBox="0 0 512 512">
<path d="m439 236l-144 138 0-374-79 0 0 374-144-138-52 50 236 226 236-226z"></path>
</symbol>

<symbol id="icon-add" viewBox="0 0 512 512">
<path d="m512 213l-213 0 0-213-86 0 0 213-213 0 0 86 213 0 0 213 86 0 0-213 213 0z"></path>
</symbol>

<symbol id="icon-remove" viewBox="0 0 512 512">
<path d="m507 72l-73-72-181 181-181-181-72 72 181 181-181 181 72 73 181-181 181 181 73-73-181-181z"></path>
</symbol>

<symbol id="icon-small-cross" viewBox="0 0 512 512">
<path d="m497 80l-81-80-168 168-168-168-80 80 168 168-168 168 80 81 168-168 168 168 81-81-168-168z"></path>
</symbol>

<symbol id="icon-selected" viewBox="0 0 512 512">
<path d="m453 85l-242 242-151-151-60 60 211 211 302-301z"></path>
</symbol>

<symbol id="icon-settings" viewBox="0 0 512 512">
<path d="m512 284l0-56-62-16c-5-21-13-41-24-59l39-66-40-40-66 39c-18-11-38-19-59-24l-16-62-56 0-16 62c-21 5-41 13-59 24l-66-39-40 40 39 66c-11 18-19 38-24 59l-62 16 0 56 62 16c5 21 13 41 24 59l-39 66 40 40 66-39c18 11 38 19 59 24l16 62 56 0 16-62c21-5 41-13 59-24l66 39 40-40-39-66c11-18 19-38 24-59z m-256 86c-63 0-114-51-114-114 0-63 51-114 114-114 63 0 114 51 114 114 0 63-51 114-114 114z"></path>
</symbol>

<symbol id="icon-arrow-right" viewBox="0 0 610 1024">
<path class="path1" d="M581.055 442.945l-414.327-414.327c-38.19-38.19-99.919-38.19-138.109 0-38.19 38.092-38.19 99.919 0 138.109l345.273 345.273-345.273 345.273c-38.19 38.19-38.19 100.017 0 138.207 38.19 38.092 99.919 38.092 138.109 0l414.327-414.425c38.19-38.092 38.19-99.919 0-138.109z"></path>
</symbol>

<symbol id="icon-cross" viewBox="0 0 512 512">
<path d="m341 213l43 0 0-42 43 0 0-43 42 0 0-43 43 0 0-85-85 0 0 43-43 0 0 42-43 0 0 43-42 0 0 43-86 0 0-43-42 0 0-43-43 0 0-42-43 0 0-43-85 0 0 85 43 0 0 43 42 0 0 43 43 0 0 42 43 0 0 86-43 0 0 42-43 0 0 43-42 0 0 43-43 0 0 85 85 0 0-43 43 0 0-42 43 0 0-43 42 0 0-43 86 0 0 43 42 0 0 43 43 0 0 42 43 0 0 43 85 0 0-85-43 0 0-43-42 0 0-43-43 0 0-42-43 0z"></path>
</symbol>

<symbol id="icon-orders" viewBox="0 0 512 512">
<path d="m238 307l16 16 149-149-45-45-120 120-52-52-45 45 81 81z m210-307l-384 0c-35 0-64 29-64 64l0 384c0 35 29 64 64 64l384 0c35 0 64-29 64-64l0-384c0-35-29-64-64-64z m0 322c-5-1-11-2-16-2-44 0-80 36-80 80 0 5 1 11 2 16l-196 0c1-5 2-11 2-16 0-44-36-80-80-80-5 0-11 1-16 2l0-258 384 0z"></path>
</symbol>

<symbol id="icon-bell" viewBox="0 0 512 512">
<path d="m256 512c48 0 88-31 103-73l-206 0c15 42 55 73 103 73z m219-183l-36 0 0-153c0-97-82-176-183-176-101 0-183 79-183 176l0 153-36 0c-21 0-37 16-37 37 0 20 16 36 37 36l438 0c21 0 37-16 37-36 0-21-16-37-37-37z"></path>
</symbol>

<symbol id="icon-note" viewBox="0 0 512 512">
<path d="m256 96l0 128 128 0z m-32 128l0-128-64 0c-35 0-64 29-64 64l0 192c0 35 29 64 64 64l160 0c35 0 64-29 64-64l0-96-128 0c-18 0-32-14-32-32"></path>
</symbol>

<symbol id="icon-calendar" viewBox="0 0 512 512">
<path d="m469 85l-42 0 0-42c0-24-19-43-43-43-24 0-43 19-43 43l0 42-170 0 0-42c0-24-19-43-43-43-24 0-43 19-43 43l0 42-42 0c-24 0-43 19-43 43l0 341c0 24 19 43 43 43l426 0c24 0 43-19 43-43l0-341c0-24-19-43-43-43z m-42 342l-342 0 0-171 342 0z"></path>
</symbol>

<symbol id="icon-open" viewBox="0 0 512 512">
<path d="m0 43l512 0-256 426z"></path>
</symbol>

<symbol id="icon-product" viewBox="0 0 768 1024">
<path class="path1" d="M384 0c-123.456 0-384 384-384 384v512c0 70.656 57.344 128 128 128h512c70.656 0 128-57.344 128-128v-512c0 0-260.352-384-384-384zM384 512c-70.656 0-128-57.344-128-128s57.344-128 128-128 128 57.344 128 128-57.344 128-128 128z"></path>
</symbol>

<symbol id="icon-gone" viewBox="0 0 1024 1024">
<path fill="rgb(252, 116, 67)" class="path1" d="M512 0c-282.784 0-512 229.248-512 512 0 282.784 229.216 512 512 512s512-229.216 512-512c0-282.752-229.216-512-512-512zM693.056 694.592c-12.576 12.544-32.8 12.512-45.312 0l-135.744-135.712-135.744 135.744c-12.512 12.512-32.768 12.512-45.248 0-12.544-12.512-12.512-32.768 0-45.248l135.744-135.776-135.744-135.744c-12.512-12.512-12.512-32.768 0-45.28 12.48-12.512 32.736-12.48 45.248 0l135.744 135.744 135.744-135.776c12.512-12.416 32.736-12.48 45.248 0 12.544 12.576 12.512 32.832 0 45.312l-135.712 135.744 135.776 135.744c12.448 12.512 12.512 32.736 0 45.248z"></path>
</symbol>

<symbol id="icon-small-arrow-down" viewBox="0 0 512 512">
<path d="m452 64l-181 181-181-181-90 90 271 272 272-272z"></path>
</symbol>

<symbol id="icon-pricechanged" viewBox="0 0 1105 1024">
<path fill="rgb(124, 190, 89)" class="path1" d="M552.561 505.974c-76.288 0-138.14 61.852-138.14 138.14s61.852 138.14 138.14 138.14 138.14-61.852 138.14-138.14-61.852-138.14-138.14-138.14z"></path>
<path fill="rgb(124, 190, 89)" class="path2" d="M1036.053 264.228h-966.983c-38.127 0-69.070 30.909-69.070 69.070v621.632c0 38.161 30.943 69.070 69.070 69.070h966.983c38.161 0 69.070-30.909 69.070-69.070v-621.632c0-38.161-30.909-69.070-69.070-69.070zM172.675 954.93h-69.070c-19.063 0-34.535-15.472-34.535-34.535s15.472-34.535 34.535-34.535h69.070c19.063 0 34.535 15.472 34.535 34.535s-15.472 34.535-34.535 34.535zM552.561 851.325c-114.415 0-207.211-92.796-207.211-207.211 0-114.449 92.796-207.211 207.211-207.211s207.211 92.761 207.211 207.211c0 114.415-92.796 207.211-207.211 207.211zM1001.518 402.368h-69.070c-19.063 0-34.535-15.472-34.535-34.535s15.472-34.535 34.535-34.535h69.070c19.063 0 34.535 15.472 34.535 34.535s-15.472 34.535-34.535 34.535z"></path>
<path fill="rgb(124, 190, 89)" class="path3" d="M1033.428 195.158c2.901 0 5.664-0.345 8.461 0.035l-38.576-144.564c-9.877-36.849-47.762-58.088-84.611-48.211l-717.328 192.74h832.054z"></path>
</symbol>

<symbol id="icon-full-arrow-right" viewBox="0 0 512 512">
<path d="m286 20l-50 52 138 144-374 0 0 79 374 0-138 144 50 52 226-235z"></path>
</symbol>

<symbol id="icon-order" viewBox="0 0 512 512">
<path d="m284 8c-11-11-45-11-56 0-25 24-171 135-171 190l0 227c0 46 38 85 85 85l228 0c47 0 85-39 85-85l0-227c0-55-144-164-171-190z m71 332l-76 72c-5 8-13 13-23 13-10 0-18-5-23-13l-76-72c-11-11-11-29 0-40l2-2c11-11 29-11 40 0l29 27 0-127c0-15 12-28 28-28 16 0 28 13 28 28l0 127 29-27c11-11 29-11 40 0l2 2c11 11 11 29 0 40z"></path>
</symbol>

<symbol id="icon-star" viewBox="0 0 512 512">
<path d="m256 16l84 151 172 32-120 126 22 171-158-73-158 73 21-171-119-126 172-32 84-151"></path>
</symbol>

<symbol id="icon-arrow-left" viewBox="0 0 512 512">
<path d="m512 216l-374 0 138-144-51-52-225 236 225 235 51-52-138-144 374 0z"></path>
</symbol>

<symbol id="icon-order-done" viewBox="0 0 991 1024">
<path class="path1" d="M668.639 277.24l-206.154 206.22-107.124-107.091c-12.916-12.916-33.825-12.949-46.708 0-12.916 12.916-12.916 33.792 0 46.708l128.76 128.76c6.871 6.871 15.955 9.811 25.005 9.381 8.985 0.462 18.168-2.444 25.071-9.348l227.857-227.857c12.916-12.916 12.949-33.792 0-46.774-12.883-12.949-33.792-12.883-46.708 0z"></path>
<path class="path2" d="M924.903 0h-198.194c-18.267 0-33.032 14.798-33.032 33.032s14.765 33.032 33.032 33.032h198.194v660.645h-267.726c-16.021 0-29.101 11.693-32.372 27.384-12.651 59.821-65.734 104.745-129.321 104.745s-116.67-44.924-129.288-104.745c-3.303-15.69-16.351-27.384-32.405-27.384h-267.726v-660.645h198.194c18.267 0 33.032-14.798 33.032-33.032s-14.765-33.032-33.032-33.032h-198.194c-36.501 0-66.065 29.564-66.065 66.065v891.871c0 36.501 29.564 66.065 66.065 66.065h858.839c36.501 0 66.065-29.564 66.065-66.065v-891.871c0-36.501-29.564-66.065-66.065-66.065z"></path>
</symbol>

<symbol id="icon-attention-circle" viewBox="0 0 1024 1024">
<path class="path1" d="M1024 512c0 282.752-229.248 512-512 512s-512-229.248-512-512 229.248-512 512-512 512 229.248 512 512z"></path>
<path fill="#fff" class="path2" d="M512 576v0c-35.328 0-64-28.672-64-64v-192c0-35.328 28.672-64 64-64s64 28.672 64 64v192c0 35.328-28.672 64-64 64z"></path>
<path fill="#fff" class="path3" d="M576 704c0 35.328-28.672 64-64 64s-64-28.672-64-64 28.672-64 64-64 64 28.672 64 64z"></path>
</symbol>

<symbol id="icon-danger-circle" viewBox="0 0 1024 1024">
<path class="path1" d="M512 0c-282.784 0-512 229.248-512 512 0 282.784 229.216 512 512 512s512-229.216 512-512c0-282.752-229.216-512-512-512zM693.056 694.592c-12.576 12.544-32.8 12.512-45.312 0l-135.744-135.712-135.744 135.744c-12.512 12.512-32.768 12.512-45.248 0-12.544-12.512-12.512-32.768 0-45.248l135.744-135.776-135.744-135.744c-12.512-12.512-12.512-32.768 0-45.28 12.48-12.512 32.736-12.48 45.248 0l135.744 135.744 135.744-135.776c12.512-12.416 32.736-12.48 45.248 0 12.544 12.576 12.512 32.832 0 45.312l-135.712 135.744 135.776 135.744c12.448 12.512 12.512 32.736 0 45.248z"></path>
</symbol>

<symbol id="icon-done-circle" viewBox="0 0 1024 1024">
<path class="path1" d="M512 0c-282.784 0-512 229.248-512 512 0 282.784 229.216 512 512 512s512-229.216 512-512c0-282.752-229.216-512-512-512zM756.992 409.888l-284.736 284.736c-6.688 6.688-15.584 9.504-24.288 9.056-8.768 0.416-17.568-2.432-24.224-9.056l-156.768-156.768c-12.48-12.512-12.48-32.736 0-45.248 12.512-12.544 32.768-12.512 45.28 0l135.776 135.744 263.712-263.776c12.512-12.448 32.736-12.512 45.248 0 12.544 12.576 12.512 32.768 0 45.312z"></path>
</symbol>

<symbol id="icon-dontdo" viewBox="0 0 1024 1024">
<path class="path1 fill-color1" d="M512 1024c-136.768 0-265.344-53.248-362.048-149.952-199.552-199.616-199.552-524.48 0-724.096 96.704-96.704 225.28-149.952 362.048-149.952s265.344 53.248 362.048 149.952c199.552 199.616 199.552 524.48 0 724.096-96.704 96.704-225.28 149.952-362.048 149.952zM512 128c-102.592 0-199.040 39.936-271.552 112.448-149.632 149.696-149.632 393.344 0 543.104 72.512 72.512 168.96 112.448 271.552 112.448s198.976-39.936 271.552-112.448c149.696-149.76 149.696-393.344 0-543.104-72.576-72.512-168.96-112.448-271.552-112.448z"></path>
<path class="path2 fill-color1" d="M240.486 149.952l633.607 633.607-90.509 90.509-633.607-633.607 90.509-90.509z"></path>
</symbol>

<symbol id="icon-empty-import" viewBox="0 0 896 1024">
<path fill="#c6cfd8" class="path1" d="M652.8 281.6h-422.4c-14.131 0-25.6-11.469-25.6-25.6v-128c0-14.131 11.469-25.6 25.6-25.6h38.4v-51.2c0-28.237 22.963-51.2 51.2-51.2h243.2c28.237 0 51.2 22.963 51.2 51.2v51.2h38.4c14.131 0 25.6 11.469 25.6 25.6v128c0 14.131-11.469 25.6-25.6 25.6zM256 230.4h371.2v-76.8h-38.4c-14.131 0-25.6-11.469-25.6-25.6v-76.8h-243.2v76.8c0 14.131-11.469 25.6-25.6 25.6h-38.4v76.8z"></path>
<path fill="#c6cfd8" class="path2" d="M793.6 1024h-691.2c-56.461 0-102.4-45.939-102.4-102.4v-716.8c0-56.461 45.939-102.4 102.4-102.4h307.2c14.131 0 25.6 11.469 25.6 25.6s-11.469 25.6-25.6 25.6h-307.2c-28.237 0-51.2 22.963-51.2 51.2v716.8c0 28.237 22.963 51.2 51.2 51.2h691.2c28.237 0 51.2-22.963 51.2-51.2v-716.8c0-28.237-22.963-51.2-51.2-51.2h-198.4c-14.131 0-25.6-11.469-25.6-25.6s11.469-25.6 25.6-25.6h198.4c56.461 0 102.4 45.939 102.4 102.4v716.8c0 56.461-45.939 102.4-102.4 102.4z"></path>
<path fill="#c6cfd8" class="path3" d="M793.6 947.2h-691.2c-14.131 0-25.6-11.469-25.6-25.6v-716.8c0-14.131 11.469-25.6 25.6-25.6h128v51.2h-102.4v665.6h640v-665.6h-115.2v-51.2h140.8c14.131 0 25.6 11.469 25.6 25.6v716.8c0 14.131-11.469 25.6-25.6 25.6z"></path>
<path fill="#c6cfd8" class="path4" d="M640 435.2h-384c-14.131 0-25.6-11.469-25.6-25.6s11.469-25.6 25.6-25.6h384c14.131 0 25.6 11.469 25.6 25.6s-11.469 25.6-25.6 25.6z"></path>
<path fill="#c6cfd8" class="path5" d="M640 614.4h-384c-14.131 0-25.6-11.469-25.6-25.6s11.469-25.6 25.6-25.6h384c14.131 0 25.6 11.469 25.6 25.6s-11.469 25.6-25.6 25.6z"></path>
<path fill="#c6cfd8" class="path6" d="M640 793.6h-384c-14.131 0-25.6-11.469-25.6-25.6s11.469-25.6 25.6-25.6h384c14.131 0 25.6 11.469 25.6 25.6s-11.469 25.6-25.6 25.6z"></path>
</symbol>

<symbol id="icon-arrow-more" viewBox="0 0 512 512">
<path d="m479 117c-20-20-52-20-72 0l-160 160-160-160c-20-20-52-20-72 0-20 20-20 53 0 73l196 196c20 20 52 20 72 0l196-196c20-20 20-53 0-73z"></path>
</symbol>

<symbol id="icon-change" viewBox="0 0 512 512">
<path d="m245 301l-45-45-136 136 136 136 45-46-59-58 270 0 0-64-270 0z m37-75l46 46 135-136-135-136-46 45 59 59-269 0 0 64 269 0z"></path>
</symbol>

<symbol id="icon-delivered" viewBox="0 0 1024 1024">
<title>ico_delivered</title>
<path class="path1" d="M512 0c-282.784 0-512 229.248-512 512 0 282.784 229.216 512 512 512s512-229.216 512-512c0-282.752-229.216-512-512-512zM756.992 409.888l-284.736 284.736c-6.688 6.688-15.584 9.504-24.288 9.056-8.768 0.416-17.568-2.432-24.224-9.056l-156.768-156.768c-12.48-12.512-12.48-32.736 0-45.248 12.512-12.544 32.768-12.512 45.28 0l135.776 135.744 263.712-263.776c12.512-12.448 32.736-12.512 45.248 0 12.544 12.576 12.512 32.768 0 45.312z"></path>
</symbol>

<symbol id="icon-pickup" viewBox="0 0 1035 1024">
<title>ico_pickup</title>
<path class="path1" d="M1005.301 193.167c-0.032-0.097-0.065-0.097-0.065-0.194l-2.62-1.262c-2.879-1.65-5.823-3.17-8.929-4.4l-374.558-183.72c-20.155-8.767-37.3-0.679-42.832 15.108 0 0-10.643 27.692 16.984 42.994l250.169 121.154h-651.675l250.169-121.154c28.663-13.296 16.984-42.994 16.984-42.994-9.576-20.446-32.804-20.446-44.838-14.040l-376.24 184.044c-0.032 0.097-0.097 0.129-0.129 0.226-22.225 10.223-37.721 32.61-37.721 58.62v711.718c0 35.715 28.954 64.702 64.702 64.702h905.823c35.715 0 64.702-28.986 64.702-64.702v-711.718c0-22.904-11.97-42.865-29.924-54.382zM668.465 661.93l-126.2 158.454c-9.835 9.867-24.651 9.188-24.651 9.188s-15.27 0.097-24.522-9.155l-126.103-158.454c-12.649-12.649-15.205-36.201-2.556-48.914 7.085-7.085 16.272-9.091 23.778-9.608h97.052v-199.507c0-14.881 12.067-26.948 26.948-26.948h10.805c14.881 0 26.948 12.067 26.948 26.948v199.507h97.182c7.473 0.518 16.758 2.523 23.81 9.608 12.682 12.682 10.158 36.265-2.491 48.882z"></path>
</symbol>

<symbol id="icon-deliver" viewBox="0 0 1170 1024">
<title>ico-deliver</title>
<path class="path1" d="M1148.855 417.426l-176.567-176.567c-13.714-13.714-32.329-21.431-51.712-21.431h-116.005v-146.286c0-40.411-32.731-73.143-73.143-73.143h-658.286c-40.411 0-73.143 32.731-73.143 73.143v731.429c0 40.411 32.731 73.143 73.143 73.143 0-121.198 98.231-219.429 219.429-219.429s219.429 98.231 219.429 219.429h146.286c0-121.198 98.231-219.429 219.429-219.429s219.429 98.231 219.429 219.429c40.411 0 73.143-32.731 73.143-73.143v-335.433c0-19.383-7.717-37.998-21.431-51.712zM1097.143 512h-292.571v-219.429h79.433c19.383 0 37.998 7.717 51.712 21.431l139.995 139.995c13.714 13.714 21.431 32.329 21.431 51.712v6.29z"></path>
<path class="path2" d="M877.714 731.429c-80.786 0-146.286 65.499-146.286 146.286s65.499 146.286 146.286 146.286 146.286-65.499 146.286-146.286-65.499-146.286-146.286-146.286zM877.714 950.857c-40.411 0-73.143-32.731-73.143-73.143s32.731-73.143 73.143-73.143 73.143 32.731 73.143 73.143-32.731 73.143-73.143 73.143z"></path>
<path class="path3" d="M292.571 731.429c-80.786 0-146.286 65.499-146.286 146.286s65.499 146.286 146.286 146.286 146.286-65.499 146.286-146.286-65.499-146.286-146.286-146.286zM292.571 950.857c-40.411 0-73.143-32.731-73.143-73.143s32.731-73.143 73.143-73.143 73.143 32.731 73.143 73.143-32.731 73.143-73.143 73.143z"></path>
</symbol>

<symbol id="icon-shipped" viewBox="0 0 1024 1024">
<title>shipped</title>
<path class="path1" d="M64.016 447.856h896.224c35.209 0 64.016-28.807 64.016-64.016 0-35.241-28.807-64.016-64.016-64.016h-116.349c-111.324-112.252-306.605-309.197-308.653-311.214-6.306-6.338-14.756-9.026-23.11-8.578-8.354-0.448-16.804 2.241-23.142 8.578-1.984 2.017-197.329 198.962-308.621 311.214h-116.349c-35.209 0-64.016 28.775-64.016 64.016 0 35.209 28.807 64.016 64.016 64.016zM512.128 74.771l245.053 245.053h-490.107l245.053-245.053z"></path>
<path class="path2" d="M72.018 511.872l56.014 448.112c5.505 37.001 28.807 64.016 64.016 64.016h640.16c35.209 0 59.023-27.495 64.016-64.016l56.014-448.112h-880.22zM352.088 863.96c0 17.604-14.404 32.008-32.008 32.008s-32.008-14.404-32.008-32.008v-192.048c0-17.604 14.404-32.008 32.008-32.008s32.008 14.404 32.008 32.008v192.048zM544.136 863.96c0 17.604-14.404 32.008-32.008 32.008s-32.008-14.404-32.008-32.008v-192.048c0-17.604 14.404-32.008 32.008-32.008s32.008 14.404 32.008 32.008v192.048zM736.184 863.96c0 17.604-14.404 32.008-32.008 32.008s-32.008-14.404-32.008-32.008v-192.048c0-17.604 14.404-32.008 32.008-32.008s32.008 14.404 32.008 32.008v192.048z"></path>
</symbol>

<symbol id="icon-reload" viewBox="0 0 896 1024">
<title>reload</title>
<path class="path1" d="M64 0v384h384z"></path>
<path class="path2" d="M448 640l383.936 384v-384z"></path>
<path class="path3" d="M448 960c-119.68 0-232.128-46.656-316.736-131.264-84.672-84.544-131.264-196.992-131.264-316.672h128c0 85.44 33.344 165.76 93.76 226.112 60.416 60.48 140.8 93.824 226.24 93.824s165.824-33.344 226.24-93.76l90.496 90.496c-84.544 84.608-197.056 131.264-316.736 131.264z"></path>
<path class="path4" d="M896 512h-128c0-85.44-33.344-165.76-93.76-226.24-124.8-124.8-327.744-124.736-452.544 0l-90.496-90.56c174.72-174.656 458.944-174.656 633.536 0 84.608 84.672 131.264 197.12 131.264 316.8z"></path>
</symbol>

<symbol id="icon-sidebar-search" viewBox="0 0 512 512">
<path d="m224 448c-60 0-116-23-158-66-43-42-66-98-66-158 0-60 23-116 66-158 42-43 98-66 158-66 60 0 116 23 158 66 43 42 66 98 66 158 0 60-23 116-66 158-42 43-98 66-158 66z m0-384c-43 0-83 17-113 47-30 30-47 70-47 113 0 43 17 83 47 113 30 30 70 47 113 47 43 0 83-17 113-47 30-30 47-70 47-113 0-43-17-83-47-113-30-30-70-47-113-47z m256 448c-8 0-16-3-23-9l-120-121c-12-12-12-32 0-45 13-12 33-12 45 0l121 120c12 13 12 33 0 46-7 6-15 9-23 9z"></path>
</symbol>
<!--/icon search-->

<symbol id="icon-sidebar-support" viewBox="0 0 512 512">
<path d="m256 512c-141 0-256-115-256-256 0-141 115-256 256-256 141 0 256 115 256 256 0 141-115 256-256 256z m0-455c-110 0-199 89-199 199 0 110 89 199 199 199 110 0 199-89 199-199 0-110-89-199-199-199z m-97 138c0-12 4-25 12-37 8-13 20-23 35-32 15-8 33-12 53-12 19 0 35 3 50 10 14 7 25 17 33 29 8 11 12 24 12 38 0 11-2 21-7 29-4 9-10 16-16 22-6 6-17 16-33 30-4 4-8 8-11 11-2 3-4 6-6 8-1 3-2 5-3 8 0 2-1 7-3 13-2 14-10 20-23 20-7 0-12-2-17-6-4-5-7-11-7-20 0-11 2-20 5-28 4-8 8-15 14-21 5-6 13-13 22-22 9-7 15-12 18-16 4-4 7-8 10-12 2-5 3-10 3-15 0-11-4-19-11-26-8-8-18-11-30-11-14 0-25 3-32 11-6 7-12 17-17 31-4 15-12 22-25 22-7 0-13-2-18-7-5-5-8-11-8-17z m95 213c-8 0-15-2-20-7-6-6-9-13-9-22 0-8 3-15 8-21 6-5 13-8 21-8 8 0 15 3 21 8 5 6 8 13 8 21 0 9-3 16-9 21-5 6-12 8-20 8z"></path>
</symbol>
<!--/icon question circle-->

<symbol id="icon-sidebar-products" viewBox="0 0 512 512">
<path d="m384 512l-256 0c-54 0-96-42-96-96l0-224c0-10 3-16 10-22l160-160c6-7 12-10 22-10l64 0c10 0 16 3 22 10l160 160c7 6 10 12 10 22l0 224c0 54-42 96-96 96z m-288-307l0 211c0 19 13 32 32 32l256 0c19 0 32-13 32-32l0-211-141-141-38 0z m192-13c0 18-14 32-32 32-18 0-32-14-32-32 0-18 14-32 32-32 18 0 32 14 32 32z m0 0c0 18-14 32-32 32-18 0-32-14-32-32 0-18 14-32 32-32 18 0 32 14 32 32z"></path>
</symbol>
<!--/icon products-->

<symbol id="icon-sidebar-file" viewBox="0 0 512 512">
<path d="m384 512l-256 0c-54 0-96-42-96-96l0-320c0-54 42-96 96-96l192 0c10 0 19 3 26 13l128 160c3 6 6 13 6 19l0 224c0 54-42 96-96 96z m-256-448c-19 0-32 13-32 32l0 320c0 19 13 32 32 32l256 0c19 0 32-13 32-32l0-211-112-141z m160 160c-19 0-32-13-32-32l0-160c0-19 13-32 32-32 19 0 32 13 32 32l0 160c0 19-13 32-32 32z m128 0l-128 0c-19 0-32-13-32-32 0-19 13-32 32-32l128 0c19 0 32 13 32 32 0 19-13 32-32 32z"></path>
</symbol>
<!--/icon file-->

<symbol id="icon-sidebar-bell" viewBox="0 0 512 512">
<path d="m448 256c-19 0-32-13-32-32 0-90-70-160-160-160-90 0-160 70-160 160 0 19-13 32-32 32-19 0-32-13-32-32 0-125 99-224 224-224 125 0 224 99 224 224 0 19-13 32-32 32z m-192 256c-70 0-128-58-128-128 0-19 13-32 32-32 19 0 32 13 32 32 0 35 29 64 64 64 35 0 64-29 64-64 0-19 13-32 32-32 19 0 32 13 32 32 0 70-58 128-128 128z m224-96l-448 0c-19 0-32-13-32-32 0-19 13-32 32-32l448 0c19 0 32 13 32 32 0 19-13 32-32 32z m-416 0c-19 0-32-13-32-32l0-160c0-19 13-32 32-32 19 0 32 13 32 32l0 160c0 19-13 32-32 32z m384 0c-19 0-32-13-32-32l0-160c0-19 13-32 32-32 19 0 32 13 32 32l0 160c0 19-13 32-32 32z"></path>
</symbol>

<symbol id="icon-sidebar-store" viewBox="0 0 512 512">
<path d="m510 131c-2-3-4-6-6-9l-114-114c-3-2-6-4-9-6-4-1-8-2-11-2l-228 0c-3 0-7 1-11 2-3 2-6 4-9 6l-114 114c-2 3-4 6-6 9-1 4-2 8-2 11l0 86c0 25 11 47 28 63l0 136c0 47 39 85 86 85l284 0c47 0 86-38 86-85l0-136c17-16 28-38 28-63l0-86c0-3-1-7-2-11m-140 68c-16 0-29 13-29 29 0 15-12 28-28 28-16 0-29-13-29-28 0-16-12-29-28-29-16 0-28 13-28 29 0 15-13 28-29 28-16 0-28-13-28-28 0-16-13-29-29-29-16 0-28 13-28 29 0 15-13 28-29 28-15 0-28-13-28-28l0-74 97-97 204 0 97 97 0 74c0 15-13 28-28 28-16 0-29-13-29-28 0-16-12-29-28-29m57 228c0 15-13 28-29 28l-284 0c-16 0-29-13-29-28l0-114c22 0 42-9 57-22 15 13 35 22 57 22 22 0 42-9 57-22 15 13 35 22 57 22 22 0 42-9 57-22 15 13 35 22 57 22z"></path>
</symbol>

<symbol id="icon-sidebar-settings" viewBox="0 0 512 512">
<path d="m256 171c-47 0-85 38-85 85 0 47 38 85 85 85 47 0 85-38 85-85 0-47-38-85-85-85m0 113c-16 0-28-12-28-28 0-16 12-28 28-28 16 0 28 12 28 28 0 16-12 28-28 28m240-79l-49-24c-1-3-2-5-3-7l18-52c3-10 0-22-7-29l-36-36c-7-8-19-10-29-7l-52 18c-2-1-4-2-7-3l-24-49c-5-10-15-16-26-16l-50 0c-11 0-21 6-26 16l-24 49c-3 1-5 2-7 3l-52-18c-10-3-22 0-29 7l-36 36c-8 7-10 19-7 29l18 52c-1 2-2 5-3 7l-49 24c-10 5-16 15-16 26l0 50c0 11 6 21 16 26l49 24c1 2 2 5 3 7l-18 52c-3 10-1 22 7 29l36 36c7 8 19 10 29 7l52-18c2 1 4 2 7 3l24 49c5 10 15 16 26 16l50 0c11 0 21-6 26-16l24-49c3-1 5-2 7-3l52 18c10 3 22 0 29-7l36-36c8-7 10-19 7-29l-18-52c1-2 2-4 3-7l49-24c10-5 16-15 16-26l0-50c0-11-6-21-16-26m-41 59l-44 22c-6 3-11 9-14 16-2 7-5 14-9 21-3 7-4 15-1 22l15 46-11 11-46-15c-7-3-15-2-22 1-7 4-14 7-21 9-7 3-13 8-17 15l-21 43-16 0-22-43c-3-7-9-12-16-15-7-2-14-5-21-9-7-3-15-4-22-1l-46 15-11-11 15-46c3-7 2-15-1-22-4-7-7-14-9-21-3-7-8-13-14-16l-44-22 0-16 44-22c6-3 11-9 14-16 2-7 5-14 9-21 3-7 4-15 1-22l-15-46 11-11 46 15c7 3 15 2 22-1 7-4 14-7 21-9 7-2 13-8 16-14l22-44 16 0 22 44c3 6 9 12 16 14 7 2 14 5 21 9 7 3 15 4 22 1l46-15 11 11-15 46c-3 7-2 15 1 22 4 7 7 14 9 21 3 7 8 13 14 16l44 22z"></path>
</symbol>

<symbol id="icon-empty-search" viewBox="0 0 1024 1024">
<path fill="#c6cfd8" class="path1" d="M409.6 76.8c-183.040 0-332.8 149.76-332.8 332.8s149.76 332.8 332.8 332.8c183.040 0 332.8-149.76 332.8-332.8s-149.76-332.8-332.8-332.8zM409.6 691.2c-154.88 0-281.6-126.72-281.6-281.6s126.72-281.6 281.6-281.6 281.6 126.72 281.6 281.6-126.72 281.6-281.6 281.6z"></path>
<path fill="#c6cfd8" class="path2" d="M999.68 892.16l-171.52-172.8c-23.040-23.040-58.88-28.16-87.040-15.36l-24.32-23.040c64-71.68 102.4-166.4 102.4-271.36 0-225.28-184.32-409.6-409.6-409.6s-409.6 184.32-409.6 409.6c0 225.28 184.32 409.6 409.6 409.6 103.68 0 198.4-38.4 271.36-102.4l24.32 24.32c-14.080 28.16-8.96 64 15.36 87.040l171.52 171.52c15.36 15.36 34.56 23.040 53.76 23.040s39.68-7.68 53.76-23.040c0 0 0 0 0 0 30.72-29.44 30.72-78.080 0-107.52zM51.2 409.6c0-197.12 161.28-358.4 358.4-358.4s358.4 161.28 358.4 358.4-161.28 358.4-358.4 358.4-358.4-161.28-358.4-358.4zM963.84 963.84c-10.24 10.24-25.6 10.24-35.84 0l-171.52-171.52c-10.24-10.24-10.24-25.6 0-35.84 5.12-5.12 11.52-7.68 17.92-7.68s12.8 2.56 17.92 7.68l171.52 171.52c10.24 10.24 10.24 25.6 0 35.84z"></path>
</symbol>

<symbol id="icon-attention-big" viewBox="0 0 1024 1024">
<path class="path1" d="M512 0c-282.784 0-512 229.248-512 512 0 282.784 229.216 512 512 512s512-229.216 512-512c0-282.752-229.216-512-512-512zM512 736c-17.664 0-32-14.336-32-32s14.336-32 32-32 32 14.336 32 32-14.336 32-32 32zM544 576c0 17.6-14.4 32-32 32s-32-14.4-32-32v-256c0-17.6 14.4-32 32-32s32 14.4 32 32v256z"></path>
</symbol>

<symbol id="icon-secure" viewBox="0 0 896 1024">
<path class="path1" d="M640 192h-128c0-35.264-28.672-64-64-64s-64 28.736-64 64h-128c0-105.856 86.144-192 192-192s192 86.144 192 192z"></path>
<path class="path2" d="M256 192h128v192h-128v-192z"></path>
<path class="path3" d="M512 192h128v128h-128v-128z"></path>
<path class="path4" d="M704 832h-512v-384h512v384zM704 320h-512c-70.72 0-128 57.28-128 128v384c0 70.72 57.28 128 128 128h512c70.72 0 128-57.28 128-128v-384c0-70.72-57.28-128-128-128z"></path>
<path class="path5" d="M512 640c0 35.328-28.672 64-64 64s-64-28.672-64-64 28.672-64 64-64 64 28.672 64 64z"></path>
</symbol>

<symbol id="icon-empty-notifications" viewBox="0 0 1024 1024">
<path fill="#c6cfd8" class="path1" d="M512 179.2c-169.382 0-307.2 137.818-307.2 307.2 0 14.131 11.469 25.6 25.6 25.6s25.6-11.469 25.6-25.6c0-141.158 114.842-256 256-256 14.131 0 25.6-11.469 25.6-25.6s-11.469-25.6-25.6-25.6z"></path>
<path fill="#c6cfd8" class="path2" d="M998.4 806.4h-25.6c-28.237 0-51.2-22.963-51.2-51.2v-268.8c0-204.083-150.054-373.747-345.6-404.57v-17.83c0-35.29-28.71-64-64-64s-64 28.71-64 64v17.83c-195.558 30.822-345.6 200.486-345.6 404.57v268.8c0 28.237-22.963 51.2-51.2 51.2h-25.6c-14.131 0-25.6 11.469-25.6 25.6s11.469 25.6 25.6 25.6h296.307c12.582 93.786 92.928 166.4 190.093 166.4 97.178 0 177.51-72.614 190.093-166.4h296.307c14.131 0 25.6-11.469 25.6-25.6s-11.469-25.6-25.6-25.6zM499.2 64c0-7.053 5.747-12.8 12.8-12.8 7.066 0 12.8 5.747 12.8 12.8v13.12c-4.262-0.128-8.512-0.32-12.8-0.32s-8.538 0.192-12.8 0.32v-13.12zM153.6 755.2v-268.8c0-197.619 160.781-358.4 358.4-358.4s358.4 160.781 358.4 358.4v268.8c0 18.662 5.094 36.109 13.85 51.2h-744.512c8.768-15.091 13.862-32.538 13.862-51.2zM512 972.8c-68.89 0-126.272-49.766-138.355-115.2h276.71c-12.096 65.434-69.466 115.2-138.355 115.2z"></path>
<path fill="#c6cfd8" class="path3" d="M230.4 563.2c-14.131 0-25.6 11.469-25.6 25.6v64c0 14.131 11.469 25.6 25.6 25.6s25.6-11.469 25.6-25.6v-64c0-14.131-11.469-25.6-25.6-25.6z"></path>
</symbol>

<symbol id="icon-dashboard" viewBox="0 0 512 512">
<path d="m480 448l-416 0 0-42 125-163 115 74c13 9 32 6 42-7l160-204c9-13 9-36-7-45-13-10-35-10-45 6l-140 179-116-73c-12-10-32-7-41 6l-93 122 0-269c0-19-13-32-32-32-19 0-32 13-32 32l0 448c0 19 13 32 32 32l448 0c19 0 32-13 32-32 0-19-13-32-32-32z"></path>
</symbol>

<symbol id="icon-avatar" viewBox="0 0 512 512">
<path d="m392 128c0 71-58 128-128 128-71 0-128-57-128-128 0-71 57-128 128-128 70 0 128 57 128 128z m84 319c-26-74-97-127-180-127l-64 0c-83 0-154 53-181 127-11 32 12 65 45 65l335 0c34 0 57-33 45-65z"></path>
</symbol>

<symbol id="icon-done-small-circle" viewBox="0 0 512 512">
<path d="m512 256c0 141-115 256-256 256-141 0-256-115-256-256 0-141 115-256 256-256 141 0 256 115 256 256m-121-87c-11-12-30-12-41 0l-114 113-64-60c-11-11-30-11-41 0-12 11-12 30 0 41l85 80c6 6 14 9 21 9 8 0 15-3 21-9l133-133c12-12 12-30 0-41z"></path>
</symbol>

<symbol id="icon-user-profile" viewBox="0 0 512 512">
<path d="m256 256c-70 0-128-58-128-128 0-70 58-128 128-128 70 0 128 58 128 128 0 70-58 128-128 128z m0-192c-35 0-64 29-64 64 0 35 29 64 64 64 35 0 64-29 64-64 0-35-29-64-64-64z m192 448l-384 0c-19 0-32-13-32-32 0-106 99-192 224-192 125 0 224 86 224 192 0 19-13 32-32 32z m-346-64l311 0c-19-54-80-96-154-96-77 0-141 42-157 96z"></path>
</symbol>

<symbol id="icon-plus" viewBox="0 0 512 512">
<path d="m512 205l-205 0 0-205-102 0 0 205-205 0 0 102 205 0 0 205 102 0 0-205 205 0z"></path>
</symbol>

<symbol id="icon-bookmark" viewBox="0 0 27 32">
<path d="M0 0h26.667v32l-13.413-10.667-13.253 10.667v-32z"></path>
</symbol>

<symbol id="icon-bookmark-o" viewBox="0 0 512 512">
<path fill="#d2dbe2" d="m427 43l0 359-146-115-26-22-27 22-143 115 0-359 342 0m42-43l-426 0 0 491 212-171 214 171z"></path>
</symbol>

<symbol id="icon-exclamation-circle" viewBox="0 0 1024 1024">
<path d="M1024 512c0 282.752-229.248 512-512 512s-512-229.248-512-512 229.248-512 512-512 512 229.248 512 512z"></path>
<path fill="#fff" d="M512 576v0c-35.328 0-64-28.672-64-64v-192c0-35.328 28.672-64 64-64s64 28.672 64 64v192c0 35.328-28.672 64-64 64z"></path>
<path fill="#fff" d="M576 704c0 35.328-28.672 64-64 64s-64-28.672-64-64 28.672-64 64-64 64 28.672 64 64z"></path>
</symbol>
<!--/icon exclamation circle-->

<symbol id="icon-edit" viewBox="0 0 512 512">
<path d="m215 357l-60-60 270-270 60 60z m-130 70l299 0 0-128 85 0 0 128c0 47-38 85-85 85l-299 0c-47 0-85-38-85-85l0-299c0-47 38-85 85-85l128 0 0 85-128 0z"></path>
</symbol>
<!--/icon edit-->

<symbol id="icon-unfulfilled" viewBox="0 0 512 512">
<path d="m475 0l-73 0c-31 0-31 37 0 37l73 0 0 329-146 0c0 36-2 73-73 73-71 0-73-37-73-73l-146 0 0-329 73 0c24 0 27-37 0-37l-73 0c-19 0-37 18-37 37l0 438c0 19 18 37 37 37l438 0c19 0 37-18 37-37l0-438c0-19-18-37-37-37z"></path>
</symbol>
<!--/icon unfulfilled-->

<symbol id="icon-financial" viewBox="0 0 512 512">
<path d="m256 0c-141 0-256 115-256 256 0 141 115 256 256 256 141 0 256-115 256-256 0-141-115-256-256-256z m37 406l0 13c0 16-21 29-37 29-16 0-37-13-37-29l0-13c-36-8-64-33-76-57-3-5-2-9-2-15 0-18 15-31 33-31 11 0 21 5 27 15 8 13 25 29 55 29 50 0 51-24 51-34 0-20-17-28-56-40-40-13-100-31-100-94 0-43 32-74 68-83l0-15c0-15 21-28 37-28 16 0 37 13 37 28l0 15c36 6 53 22 69 46 4 5 5 11 5 18 0 17-15 31-32 31-10 0-19-4-25-12-9-12-24-25-50-25-18 0-40 4-40 25 0 15 17 23 53 35 41 14 100 33 100 99 0 50-44 84-80 93z"></path>
</symbol>
<!--/icon dollar-->

<symbol id="icon-envelope" viewBox="0 0 512 512">
<path d="m286 320c-19 10-41 10-60 0l-194-102 0 134c0 53 43 96 96 96l256 0c53 0 96-43 96-96l0-134z m-60-63c19 9 41 9 60 0l194-103 0 0c0-50-40-90-90-90l-268 0c-50 0-90 40-90 90l0 0z"></path>
</symbol>
<!--icon evelope-->

<symbol id="icon-fulfillment" viewBox="0 0 512 512">
<path d="m475 512l-438 0c-19 0-37-18-37-37l0-438c0-19 18-37 37-37l73 0c27 0 24 37 0 37l-73 0 0 329 146 0c0 36 2 73 73 73 71 0 73-37 73-73l146 0 0-329-73 0c-31 0-31-37 0-37l73 0c19 0 37 18 37 37l0 438c0 19-18 37-37 37z m-71-347l-130 129c-14 14-37 14-51 0l-78-78c-14-14-14-37 0-51 14-15 37-15 52 0l51 51 104-103c14-14 37-14 52 0 14 14 14 37 0 52z"></path>
</symbol>
<symbol id="icon-small-note" viewBox="0 0 512 512">
<path d="m256 96l0 128 128 0z m-32 128l0-128-64 0c-35 0-64 29-64 64l0 192c0 35 29 64 64 64l160 0c35 0 64-29 64-64l0-96-128 0c-18 0-32-14-32-32"></path>
</symbol>
<symbol id="icon-first-order" viewBox="0 0 512 512">
<path d="m434 512l-356 0c-43 0-78-35-78-79l0-354c0-44 35-79 78-79l356 0c43 0 78 35 78 79l0 354c0 44-35 79-78 79z m-356-496c-34 0-62 28-62 63l0 354c0 35 28 63 62 63l356 0c34 0 62-28 62-63l0-354c0-35-28-63-62-63z m271 403l-186 0c-21 0-39-17-39-39l0-248c0-22 18-39 39-39l118 0c6 0 12 3 16 7l84 84c4 4 7 10 7 16l0 180c0 22-18 39-39 39z m-186-310c-13 0-23 10-23 23l0 248c0 13 10 23 23 23l186 0c13 0 23-10 23-23l0-180c0-2 0-4-2-5l-84-84c-1-2-3-2-5-2z m209 93l-69 0c-13 0-24-11-24-24l0-69c0-5 4-8 8-8 4 0 8 3 8 8l0 69c0 5 3 8 8 8l69 0c5 0 8 4 8 8 0 4-3 8-8 8z m-132 46l-46 0c-4 0-8-3-8-8 0-4 4-7 8-7l46 0c5 0 8 3 8 7 0 5-3 8-8 8z m78 47l-124 0c-4 0-8-4-8-8 0-4 4-8 8-8l124 0c4 0 8 4 8 8 0 4-4 8-8 8z m0 46l-124 0c-4 0-8-3-8-7 0-5 4-8 8-8l124 0c4 0 8 3 8 8 0 4-4 7-8 7z"></path>
</symbol>
<symbol id="icon-video" viewBox="0 0 24 32">
<path fill="#d2dbe2" class="path1" d="M2.667 32c-0.416 0-0.835-0.096-1.221-0.293-0.888-0.461-1.445-1.376-1.445-2.373v-26.667c0-1 0.557-1.915 1.445-2.373 0.888-0.456 1.957-0.373 2.771 0.203l18.667 13.333c0.701 0.501 1.117 1.309 1.117 2.171 0 0.859-0.416 1.669-1.117 2.171l-18.667 13.333c-0.461 0.328-1.003 0.496-1.549 0.496zM5.333 7.848v16.301l11.411-8.149-11.411-8.152z"></path>
</symbol>
<symbol id="icon-notification-danger" viewBox="0 0 32 32">
<path fill="#f97442" class="path1 fill-color2" d="M26.182 0h-20.364c-3.213 0-5.818 2.605-5.818 5.818v20.364c0 3.213 2.605 5.818 5.818 5.818h20.364c3.213 0 5.818-2.605 5.818-5.818v-20.364c0-3.213-2.605-5.818-5.818-5.818zM22.121 20.064c0.569 0.569 0.569 1.488 0 2.057-0.284 0.284-0.656 0.426-1.028 0.426s-0.745-0.143-1.028-0.426l-4.064-4.064-4.064 4.064c-0.284 0.284-0.656 0.426-1.028 0.426s-0.745-0.143-1.028-0.426c-0.569-0.569-0.569-1.488 0-2.057l4.064-4.064-4.064-4.064c-0.569-0.569-0.569-1.488 0-2.057s1.488-0.569 2.057 0l4.064 4.064 4.064-4.064c0.569-0.569 1.488-0.569 2.057 0s0.569 1.488 0 2.057l-4.064 4.064 4.064 4.064z"></path>
</symbol>
<symbol id="icon-notification-dollar" viewBox="0 0 32 32">
<path fill="#82c853" class="path1 fill-color1" d="M26.182 0h-20.364c-3.213 0-5.818 2.607-5.818 5.818v20.364c0 3.213 2.605 5.818 5.818 5.818h20.364c3.215 0 5.818-2.605 5.818-5.818v-20.364c0-3.212-2.604-5.818-5.818-5.818zM20.751 20.892c-0.63 1.318-1.879 2.231-3.296 2.464v1.372c0 0.804-0.65 1.455-1.455 1.455-0.803 0-1.455-0.65-1.455-1.455v-1.37c-1.78-0.292-3.255-1.674-3.633-3.484-0.163-0.787 0.34-1.575 1.127-1.738 0.785-0.159 1.558 0.304 1.721 1.088 0.147 0.703 0.775 1.14 1.495 1.14h1.491c0.585 0 1.124-0.269 1.379-0.799 0.097-0.205 0.148-0.353 0.148-0.582 0-0.844-0.685-1.529-1.527-1.529h-2.201c-0.314 0-0.589-0.121-0.826-0.289-1.689-0.63-2.9-2.243-2.9-4.147 0-2.204 1.619-4.023 3.727-4.365v-1.38c0-0.804 0.652-1.455 1.455-1.455 0.804 0 1.455 0.65 1.455 1.455v1.372c1.417 0.233 2.666 1.153 3.296 2.47 0.346 0.724 0.039 1.603-0.685 1.949-0.204 0.097-0.416 0.161-0.628 0.161-0.543 0-1.062-0.269-1.311-0.791-0.256-0.528-0.796-0.797-1.38-0.797h-1.491c-0.842 0-1.527 0.612-1.527 1.455s0.685 1.455 1.527 1.455h2.199c0.314 0 0.589 0.121 0.826 0.289 1.689 0.628 2.9 2.243 2.9 4.148 0 0.668-0.144 1.308-0.431 1.908z"></path>
</symbol>
<symbol id="icon-notification-quest" viewBox="0 0 32 32">
<path fill="#ffcf63" class="path1 fill-color3" d="M26.182 0h-20.364c-3.213 0-5.818 2.605-5.818 5.818v20.364c0 3.213 2.605 5.818 5.818 5.818h20.364c3.215 0 5.818-2.605 5.818-5.818v-20.364c0-3.213-2.604-5.818-5.818-5.818zM15.699 25.309c-1.123 0-2.036-0.913-2.036-2.036 0-1.121 0.913-2.035 2.036-2.035s2.036 0.913 2.036 2.035c0 1.123-0.913 2.036-2.036 2.036zM19.148 16.804c-0.239 0.182-0.473 0.349-0.698 0.509-0.602 0.423-0.948 0.678-1.082 1.002-0.23 0.566-0.772 0.906-1.347 0.906-0.182 0-0.368-0.033-0.548-0.108-0.745-0.303-1.101-1.152-0.797-1.897 0.461-1.13 1.332-1.744 2.1-2.285 0.193-0.135 0.394-0.276 0.596-0.433 0.975-0.751 1.002-1.715 1.002-1.823 0-2.223-1.615-2.223-2.223-2.223-1.699 0-2.524 0.671-2.524 2.049 0 0.803-0.652 1.455-1.455 1.455-0.804 0-1.455-0.652-1.455-1.455 0-2.287 1.423-4.959 5.433-4.959 3.788 0 5.132 2.765 5.132 5.132 0 1.2-0.56 2.915-2.135 4.128z"></path>
</symbol>
<symbol id="icon-onboard-store-icon" viewBox="0 0 32 32">
<path class="path1" fill="var(--color1, #27b7d8)" d="M21 25h-10c-1.7 0-3-1.3-3-3v-5c0-0.6 0.4-1 1-1s1 0.4 1 1v5c0 0.6 0.4 1 1 1h10c0.6 0 1-0.4 1-1v-5c0-0.6 0.4-1 1-1s1 0.4 1 1v5c0 1.7-1.3 3-3 3z"></path>
<path class="path2" fill="var(--color1, #27b7d8)" d="M10 18c-1.7 0-3-1.3-3-3 0-0.6 0.4-1 1-1s1 0.4 1 1c0 0.6 0.4 1 1 1s1-0.4 1-1c0-0.6 0.4-1 1-1s1 0.4 1 1c0 1.7-1.3 3-3 3z"></path>
<path class="path3" fill="var(--color1, #27b7d8)" d="M14 18c-1.7 0-3-1.3-3-3 0-0.6 0.4-1 1-1s1 0.4 1 1c0 0.6 0.4 1 1 1s1-0.4 1-1c0-0.6 0.4-1 1-1s1 0.4 1 1c0 1.7-1.3 3-3 3z"></path>
<path class="path4" fill="var(--color1, #27b7d8)" d="M18 18c-1.7 0-3-1.3-3-3 0-0.6 0.4-1 1-1s1 0.4 1 1c0 0.6 0.4 1 1 1s1-0.4 1-1c0-0.6 0.4-1 1-1s1 0.4 1 1c0 1.7-1.3 3-3 3z"></path>
<path class="path5" fill="var(--color1, #27b7d8)" d="M22 18c-1.7 0-3-1.3-3-3 0-0.6 0.4-1 1-1s1 0.4 1 1c0 0.6 0.4 1 1 1s1-0.4 1-1c0-0.6 0.4-1 1-1s1 0.4 1 1c0 1.7-1.3 3-3 3z"></path>
<path class="path6" fill="var(--color1, #27b7d8)" d="M8 16c-0.6 0-1-0.4-1-1v-3c0-0.6 0.4-1 1-1s1 0.4 1 1v3c0 0.6-0.4 1-1 1z"></path>
<path class="path7" fill="var(--color1, #27b7d8)" d="M24 16c-0.6 0-1-0.4-1-1v-3c0-0.6 0.4-1 1-1s1 0.4 1 1v3c0 0.6-0.4 1-1 1z"></path>
<path class="path8" fill="var(--color1, #27b7d8)" d="M8 13c-0.3 0-0.5-0.1-0.7-0.3-0.4-0.4-0.4-1 0-1.4l4-4c0.4-0.4 1-0.4 1.4 0s0.4 1 0 1.4l-4 4c-0.2 0.2-0.4 0.3-0.7 0.3z"></path>
<path class="path9" fill="var(--color1, #27b7d8)" d="M24 13c-0.3 0-0.5-0.1-0.7-0.3l-4-4c-0.4-0.4-0.4-1 0-1.4s1-0.4 1.4 0l4 4c0.4 0.4 0.4 1 0 1.4-0.2 0.2-0.4 0.3-0.7 0.3z"></path>
<path class="path10" fill="var(--color1, #27b7d8)" d="M20 9h-8c-0.6 0-1-0.4-1-1s0.4-1 1-1h8c0.6 0 1 0.4 1 1s-0.4 1-1 1z"></path>
<path class="path11" fill="var(--color2, #cfdde1)" opacity="0.5" d="M25 32h-18c-3.9 0-7-3.1-7-7v-18c0-3.9 3.1-7 7-7h18c3.9 0 7 3.1 7 7v18c0 3.9-3.1 7-7 7zM7 2c-2.8 0-5 2.2-5 5v18c0 2.8 2.2 5 5 5h18c2.8 0 5-2.2 5-5v-18c0-2.8-2.2-5-5-5h-18z"></path>
</symbol>
<symbol id="icon-onboard-multiplier" viewBox="0 0 32 32">
<path opacity="0.5" fill="#cfdde1" class="path1 fill-color5" d="M25 32h-18c-3.86 0-7-3.141-7-7v-18c0-3.86 3.14-7 7-7h18c3.859 0 7 3.14 7 7v18c0 3.859-3.141 7-7 7zM7 2c-2.757 0-5 2.243-5 5v18c0 2.757 2.243 5 5 5h18c2.757 0 5-2.243 5-5v-18c0-2.757-2.243-5-5-5h-18z"></path>
<path fill="#27b7d8" class="path2 fill-color1" d="M15 17c-2.757 0-5-2.243-5-5s2.243-5 5-5c0.552 0 1 0.448 1 1s-0.448 1-1 1c-1.654 0-3 1.346-3 3s1.346 3 3 3c0.552 0 1 0.448 1 1 0 0.553-0.448 1-1 1z"></path>
<path fill="#27b7d8" class="path3 fill-color1" d="M17 25c-0.553 0-1-0.447-1-1s0.447-1 1-1c1.149 0 2.213-0.671 2.709-1.709 0.193-0.403 0.291-0.838 0.291-1.291 0-1.654-1.346-3-3-3-0.553 0-1-0.447-1-1 0-0.552 0.447-1 1-1 2.757 0 5 2.243 5 5 0 0.753-0.164 1.478-0.486 2.153-0.828 1.73-2.6 2.847-4.514 2.847z"></path>
<path fill="#27b7d8" class="path4 fill-color1" d="M16 27c-0.552 0-1-0.447-1-1v-20c0-0.552 0.448-1 1-1 0.553 0 1 0.448 1 1v20c0 0.553-0.447 1-1 1z"></path>
<path fill="#27b7d8" class="path5 fill-color1" d="M17 17h-2c-0.552 0-1-0.447-1-1 0-0.552 0.448-1 1-1h2c0.553 0 1 0.448 1 1 0 0.553-0.447 1-1 1z"></path>
<path fill="#27b7d8" class="path6 fill-color1" d="M15 25c-2.355 0-4.413-1.671-4.894-3.974-0.113-0.54 0.234-1.070 0.774-1.183 0.542-0.112 1.071 0.233 1.184 0.774 0.288 1.381 1.523 2.383 2.936 2.383 0.552 0 1 0.447 1 1s-0.448 1-1 1z"></path>
<path fill="#27b7d8" class="path7 fill-color1" d="M17 25h-2c-0.552 0-1-0.447-1-1s0.448-1 1-1h2c0.553 0 1 0.447 1 1s-0.447 1-1 1z"></path>
<path fill="#27b7d8" class="path8 fill-color1" d="M20.612 11.277c-0.373 0-0.731-0.209-0.903-0.568-0.496-1.039-1.56-1.709-2.709-1.709-0.553 0-1-0.448-1-1s0.447-1 1-1c1.914 0 3.687 1.117 4.514 2.845 0.238 0.498 0.027 1.095-0.471 1.333-0.14 0.068-0.286 0.099-0.431 0.099z"></path>
<path fill="#27b7d8" class="path9 fill-color1" d="M17 9h-2c-0.552 0-1-0.448-1-1s0.448-1 1-1h2c0.553 0 1 0.448 1 1s-0.447 1-1 1z"></path>
</symbol>
<symbol id="icon-onboard-product" viewBox="0 0 32 32">
<path fill="#27b7d8" class="path1 fill-color1" d="M21 27h-10c-1.832 0-4-2.168-4-4v-9.632c0-0.896 0.345-1.739 0.971-2.374l5.652-5.989c1.291-1.31 3.479-1.292 4.739-0.016l5.683 6.021c0.61 0.619 0.955 1.462 0.955 2.358v9.632c0 1.832-2.168 4-4 4zM16 6c-0.354 0-0.687 0.141-0.938 0.395l-5.652 5.988c-0.27 0.274-0.41 0.618-0.41 0.985v9.632c0 0.748 1.252 2 2 2h10c0.748 0 2-1.252 2-2v-9.632c0-0.367-0.141-0.711-0.395-0.969l-5.683-6.021c-0.234-0.238-0.568-0.378-0.922-0.378z"></path>
<path fill="#27b7d8" class="path2 fill-color1" d="M16.055 21.778c-0.244 0-0.489-0.089-0.682-0.269l-4.055-3.778c-0.404-0.376-0.426-1.009-0.050-1.413 0.377-0.405 1.011-0.426 1.413-0.050l4.055 3.778c0.404 0.376 0.427 1.009 0.050 1.413-0.197 0.213-0.464 0.319-0.731 0.319z"></path>
<path fill="#27b7d8" class="path3 fill-color1" d="M16.055 21.778c-0.263 0-0.526-0.104-0.722-0.309-0.382-0.398-0.368-1.031 0.030-1.414l3.946-3.778c0.396-0.382 1.029-0.368 1.414 0.031 0.382 0.398 0.368 1.031-0.031 1.414l-3.945 3.778c-0.194 0.187-0.443 0.278-0.692 0.278z"></path>
<path fill="#27b7d8" class="path4 fill-color1" d="M16 21c-0.552 0-1-0.447-1-1v-7c0-0.552 0.448-1 1-1 0.553 0 1 0.448 1 1v7c0 0.553-0.447 1-1 1z"></path>
<path opacity="0.5" fill="#cfdde1" class="path5 fill-color5" d="M25 32h-18c-3.86 0-7-3.141-7-7v-18c0-3.86 3.14-7 7-7h18c3.859 0 7 3.14 7 7v18c0 3.859-3.141 7-7 7zM7 2c-2.757 0-5 2.243-5 5v18c0 2.757 2.243 5 5 5h18c2.757 0 5-2.243 5-5v-18c0-2.757-2.243-5-5-5h-18z"></path>
</symbol>
<symbol id="icon-onboard-chrome" viewBox="0 0 32 32">
<path opacity="0.5" fill="#cfdde1" class="path1 fill-color5" d="M25 32h-18c-3.86 0-7-3.141-7-7v-18c0-3.86 3.14-7 7-7h18c3.859 0 7 3.14 7 7v18c0 3.859-3.141 7-7 7zM7 2c-2.757 0-5 2.243-5 5v18c0 2.757 2.243 5 5 5h18c2.757 0 5-2.243 5-5v-18c0-2.757-2.243-5-5-5h-18z"></path>
<path fill="#27b7d8" class="path2 fill-color1" d="M16 27c-6.065 0-11-4.935-11-11s4.935-11 11-11 11 4.935 11 11-4.935 11-11 11zM16 7c-4.962 0-9 4.038-9 9 0 4.963 4.038 9 9 9 4.963 0 9-4.037 9-9 0-4.962-4.037-9-9-9z"></path>
<path fill="#27b7d8" class="path3 fill-color1" d="M16 21c-1.336 0-2.591-0.521-3.536-1.465s-1.464-2.199-1.464-3.535 0.52-2.591 1.464-3.536 2.2-1.464 3.536-1.464 2.591 0.52 3.535 1.464 1.465 2.2 1.465 3.536-0.521 2.592-1.465 3.535c-0.943 0.944-2.199 1.465-3.535 1.465zM16 13c-0.801 0-1.555 0.312-2.122 0.878s-0.878 1.321-0.878 2.122c0 0.802 0.312 1.555 0.878 2.121 1.134 1.133 3.111 1.133 4.243 0 0.567-0.566 0.879-1.319 0.879-2.121 0-0.801-0.312-1.555-0.879-2.122-0.566-0.566-1.319-0.878-2.121-0.878z"></path>
<path fill="#27b7d8" class="path4 fill-color1" d="M25 13h-9c-0.552 0-1-0.448-1-1s0.448-1 1-1h9c0.553 0 1 0.448 1 1s-0.447 1-1 1z"></path>
<path fill="#27b7d8" class="path5 fill-color1" d="M13.172 19.828c-0.327 0-0.647-0.16-0.839-0.454l-5.472-8.408c-0.301-0.463-0.17-1.083 0.293-1.384s1.083-0.169 1.384 0.293l5.472 8.407c0.301 0.463 0.17 1.083-0.293 1.384-0.169 0.109-0.358 0.162-0.545 0.162z"></path>
<path fill="#27b7d8" class="path6 fill-color1" d="M14.631 26.904c-0.173 0-0.349-0.045-0.509-0.14-0.475-0.282-0.631-0.896-0.35-1.37l4.196-7.076c0.281-0.477 0.896-0.631 1.37-0.351 0.476 0.282 0.632 0.896 0.351 1.37l-4.196 7.076c-0.187 0.316-0.52 0.491-0.862 0.491z"></path>
</symbol>
<symbol id="icon-onboard-done" viewBox="0 0 32 32">
<path fill="#82c853" class="path1 fill-color2" d="M26 32h-20c-3.314 0-6-2.686-6-6v-20c0-3.314 2.686-6 6-6h20c3.314 0 6 2.686 6 6v20c0 3.314-2.686 6-6 6z"></path>
<path fill="#fff" class="path2 fill-color6" d="M16 27.5c-6.341 0-11.5-5.159-11.5-11.5s5.159-11.5 11.5-11.5c6.341 0 11.5 5.159 11.5 11.5s-5.159 11.5-11.5 11.5zM16 6.5c-5.238 0-9.5 4.262-9.5 9.5s4.262 9.5 9.5 9.5 9.5-4.262 9.5-9.5-4.262-9.5-9.5-9.5z"></path>
<path fill="#fff" class="path3 fill-color6" d="M15.013 20.127v0c-0.265 0-0.52-0.105-0.707-0.293l-2.889-2.89c-0.391-0.391-0.391-1.024 0-1.414 0.391-0.391 1.023-0.391 1.414 0l2.182 2.183 4.657-4.657c0.391-0.391 1.023-0.391 1.414 0s0.391 1.023 0 1.414l-5.364 5.364c-0.188 0.187-0.442 0.293-0.707 0.293z"></path>
</symbol>
<symbol id="icon-player-done" viewBox="0 0 45 32">
<path fill="#9c3" class="path1 fill-color1" d="M39.414 0l-20.547 20.543-13.138-13.138-5.728 5.728 18.866 18.866 26.276-26.272z"></path>
</symbol>
<symbol id="icon-player-list" viewBox="0 0 24 32">
<path class="path1 fill-color2" d="M2.667 32c-0.416 0-0.835-0.096-1.221-0.293-0.888-0.461-1.445-1.376-1.445-2.373v-26.667c0-1 0.557-1.915 1.445-2.373 0.888-0.456 1.957-0.373 2.771 0.203l18.667 13.333c0.701 0.501 1.117 1.309 1.117 2.171 0 0.859-0.416 1.669-1.117 2.171l-18.667 13.333c-0.461 0.328-1.003 0.496-1.549 0.496zM5.333 7.848v16.301l11.411-8.149-11.411-8.152z"></path>
</symbol>
<symbol id="icon-search" viewBox="0 0 512 512">
<path d="m224 448c-60 0-116-23-158-66-43-42-66-98-66-158 0-60 23-116 66-158 42-43 98-66 158-66 60 0 116 23 158 66 43 42 66 98 66 158 0 60-23 116-66 158-42 43-98 66-158 66z m0-384c-43 0-83 17-113 47-30 30-47 70-47 113 0 43 17 83 47 113 30 30 70 47 113 47 43 0 83-17 113-47 30-30 47-70 47-113 0-43-17-83-47-113-30-30-70-47-113-47z m256 448c-8 0-16-3-23-9l-120-121c-12-12-12-32 0-45 13-12 33-12 45 0l121 120c12 13 12 33 0 46-7 6-15 9-23 9z"></path>
</symbol>
<symbol id="icon-file-o" viewBox="0 0 512 512">
<path d="m456 109c5 5 10 12 14 21 4 9 5 18 5 25l0 330c0 7-2 14-8 19-5 5-11 8-19 8l-384 0c-8 0-14-3-19-8-6-5-8-12-8-19l0-458c0-7 2-14 8-19 5-5 11-8 19-8l256 0c8 0 16 2 25 6 9 4 17 8 22 13z m-127-70l0 107 108 0c-2-5-4-9-7-11l-89-90c-2-2-6-4-12-6z m110 436l0-292-119 0c-8 0-14-3-19-8-6-5-8-12-8-20l0-118-220 0 0 438z"></path>
</symbol>
<symbol id="icon-down-dir" viewBox="0 0 512 512">
<path d="m374 154c0 0-118 204-118 204c0 0-118-204-118-204c0 0 236 0 236 0"></path>
</symbol>
<symbol id="icon-up-dir" viewBox="0 0 512 512">
<path d="m138 358c0 0 118-204 118-204c0 0 118 204 118 204c0 0-236 0-236 0"></path>
</symbol>
<symbol id="icon-fb" viewBox="0 0 16 32">
<path class="path1" fill="#37569b" d="M0 12.444h3.556v-1.778c0-1.34 0.002-3.812 0-5.333-0.005-1.71 2.983-3.817 5.447-3.817 4.014 0 5.703 0.562 5.703 0.562l-0.795 4.631c0 0-1.326-0.375-2.564-0.375s-2.459 1.34-2.459 2.555v3.556h5.333v3.556h-5.333v16h-5.333v-16h-3.556z"></path>
</symbol>
<symbol id="icon-review" viewBox="0 0 38 32">
<path class="path1" fill="#fff" d="M20.804 3.966l-1.623 1.664-1.626-1.664c-3.494-3.575-9.169-4.156-12.981-0.934-4.371 3.695-4.602 10.334-0.689 14.34l12.457 12.749c1.568 1.604 4.111 1.604 5.679 0l12.454-12.749c3.913-4.006 3.684-10.645-0.687-14.34-3.812-3.221-9.489-2.641-12.983 0.934z"></path>
</symbol>
<symbol id="icon-do-not" viewBox="0 0 32 32">
<path fill="#b5c6da" d="M27.4 4.6c-3-3-7-4.6-11.4-4.6-4.2 0-8.2 1.6-11.4 4.6-3 3-4.6 7-4.6 11.4 0 4.2 1.6 8.2 4.6 11.4 3.2 3.2 7.2 4.6 11.4 4.6s8.2-1.6 11.4-4.6c6.2-6.4 6.2-16.4 0-22.8zM24.4 7.6c4.2 4.2 4.6 10.8 1.2 15.4l-16.8-16.8c2-1.4 4.4-2.2 7-2.2 3.4 0 6.4 1.2 8.6 3.6zM7.6 24.4c-2.2-2.2-3.6-5.2-3.6-8.4 0-2.6 0.8-5 2.2-7l16.8 16.8c-4.8 3.2-11.2 2.8-15.4-1.4z"></path>
</symbol>
<symbol id="icon-done-circle-small" viewBox="0 0 32 32">
<path class="path1" d="M16 3.2c-7.069 0-12.8 5.731-12.8 12.8s5.731 12.8 12.8 12.8 12.8-5.731 12.8-12.8-5.731-12.8-12.8-12.8zM21.91 14.4l-5.91 5.91c-0.653 0.653-1.712 0.653-2.365 0l-3.547-3.547c-0.653-0.653-0.653-1.712 0-2.365s1.712-0.653 2.365 0l2.365 2.365 4.728-4.728c0.653-0.653 1.712-0.653 2.365 0v0c0.653 0.653 0.653 1.712 0 2.365z"></path>
</symbol>
<symbol version="1.1" id="icon-equal" xmlns="http://www.w3.org/2000/svg" xmlns:xlink="http://www.w3.org/1999/xlink" x="0px" y="0px"
  width="46px" height="46px" viewBox="0 0 46 46" style="enable-background:new 0 0 46 46;" xml:space="preserve">
  <path d="M46,10.494C46,8.841,44.659,7.5,43.006,7.5H2.994C1.341,7.5,0,8.841,0,10.494v6.012C0,18.159,1.341,19.5,2.994,19.5
   h40.012c1.653,0,2.994-1.341,2.994-2.994V10.494z"/>
  <path d="M46,29.494c0-1.653-1.341-2.994-2.994-2.994H2.994C1.341,26.5,0,27.841,0,29.494v6.012C0,37.159,1.341,38.5,2.994,38.5
   h40.012c1.653,0,2.994-1.341,2.994-2.994V29.494z"/>
</symbol>
<symbol id="icon-csv" viewBox="-4 0 64 64">
  <path d="M5.106 0c-2.802 0-5.073 2.272-5.073 5.074v53.841c0 2.803 2.271 5.074 5.073 5.074h45.774c2.801 0 5.074-2.271 5.074-5.074v-38.605l-18.903-20.31h-31.945z" fill-rule="evenodd" clip-rule="evenodd" fill="#45B058"/>
  <path d="M20.306 43.197c.126.144.198.324.198.522 0 .378-.306.72-.703.72-.18 0-.378-.072-.504-.234-.702-.846-1.891-1.387-3.007-1.387-2.629 0-4.627 2.017-4.627 4.88 0 2.845 1.999 4.879 4.627 4.879 1.134 0 2.25-.486 3.007-1.369.125-.144.324-.233.504-.233.415 0 .703.359.703.738 0 .18-.072.36-.198.504-.937.972-2.215 1.693-4.015 1.693-3.457 0-6.176-2.521-6.176-6.212s2.719-6.212 6.176-6.212c1.8.001 3.096.721 4.015 1.711zm6.802 10.714c-1.782 0-3.187-.594-4.213-1.495-.162-.144-.234-.342-.234-.54 0-.361.27-.757.702-.757.144 0 .306.036.432.144.828.739 1.98 1.314 3.367 1.314 2.143 0 2.827-1.152 2.827-2.071 0-3.097-7.112-1.386-7.112-5.672 0-1.98 1.764-3.331 4.123-3.331 1.548 0 2.881.467 3.853 1.278.162.144.252.342.252.54 0 .36-.306.72-.703.72-.144 0-.306-.054-.432-.162-.882-.72-1.98-1.044-3.079-1.044-1.44 0-2.467.774-2.467 1.909 0 2.701 7.112 1.152 7.112 5.636.001 1.748-1.187 3.531-4.428 3.531zm16.994-11.254l-4.159 10.335c-.198.486-.685.81-1.188.81h-.036c-.522 0-1.008-.324-1.207-.81l-4.142-10.335c-.036-.09-.054-.18-.054-.288 0-.36.323-.793.81-.793.306 0 .594.18.72.486l3.889 9.992 3.889-9.992c.108-.288.396-.486.72-.486.468 0 .81.378.81.793.001.09-.017.198-.052.288z" fill="#fff"/>
  <g fill-rule="evenodd" clip-rule="evenodd">
    <path d="M56.001 20.357v1h-12.8s-6.312-1.26-6.128-6.707c0 0 .208 5.707 6.003 5.707h12.925z" fill="#349C42"/>
    <path d="M37.098.006v14.561c0 1.656 1.104 5.791 6.104 5.791h12.8l-18.904-20.352z" opacity=".5" fill="#fff"/>
  </g>
</symbol>
</defs>
</svg>