<svg width="25" height="12" viewBox="0 0 25 12" fill="none" xmlns="http://www.w3.org/2000/svg">
<path fill-rule="evenodd" clip-rule="evenodd" d="M9.89738 0.764824C10.3078 0.321847 11.0871 0.465446 11.3901 0.966777C11.5541 1.22962 11.5685 1.58126 11.4366 1.86136C10.8657 3.00153 10.6272 4.27211 10.4073 5.52036C10.1473 7.14817 9.93137 8.79728 10.0154 10.4499C10.0388 10.8711 9.83789 11.3826 9.39248 11.481C8.97106 11.5764 8.58764 11.2963 8.32319 10.9944C7.11293 9.67309 6.42806 7.96156 5.93416 6.25358C5.43476 7.25371 4.93385 8.25383 4.44945 9.26208C4.11052 9.94354 3.75309 10.6387 3.21119 11.1801C2.98274 11.4105 2.59631 11.6185 2.30137 11.3821C1.85746 10.9883 1.74848 10.3601 1.56002 9.82075C0.845658 7.31917 0.440238 4.74147 0.0253194 2.17494C-0.0696619 1.74719 0.106803 1.23469 0.527221 1.06369C0.867154 0.934302 1.30207 0.916035 1.59151 1.17025C1.79297 1.35292 1.84896 1.63606 1.88645 1.89485C2.1779 3.8814 2.52483 5.86135 2.99724 7.81238C3.80658 6.2546 4.61192 4.69378 5.41876 3.13447C5.53874 2.90614 5.68221 2.67678 5.90266 2.5347C6.19761 2.34239 6.63502 2.35609 6.88147 2.62503C7.08843 2.84525 7.15742 3.15173 7.21491 3.44146C7.45586 4.73082 7.78229 6.00749 8.2567 7.22986C8.46116 5.38793 8.71111 3.52367 9.37398 1.78474C9.52345 1.43259 9.65543 1.06268 9.89738 0.764824ZM14.448 1.75125C15.3193 1.64317 16.2596 1.93696 16.8535 2.6093C17.3374 3.16543 17.6094 3.88698 17.7008 4.61665C17.8488 5.8649 17.6274 7.16288 17.0355 8.27007C16.701 8.9013 16.2636 9.50665 15.6467 9.87808C14.7429 10.4347 13.5312 10.3667 12.6578 9.77914C11.9605 9.29404 11.5685 8.46796 11.4091 7.64442C11.0881 5.78067 11.637 3.70329 13.0273 2.40227C13.4262 2.05266 13.9236 1.81569 14.448 1.75125ZM14.6299 3.66879C14.211 3.80985 13.9466 4.19955 13.7216 4.56134C13.1577 5.48332 12.9948 6.6991 13.4482 7.70176C13.5677 7.96562 13.7591 8.24318 14.0616 8.29849C14.3825 8.35227 14.6809 8.16554 14.9149 7.96257C15.4303 7.51402 15.6867 6.83965 15.8112 6.17798C15.9512 5.42446 15.8792 4.59026 15.4438 3.94482C15.2693 3.68249 14.9259 3.56324 14.6299 3.66879ZM21.4401 1.75328C22.2919 1.6457 23.2163 1.91261 23.8121 2.55754C24.3455 3.14158 24.6345 3.92351 24.716 4.70849C24.8414 5.91514 24.6225 7.16288 24.0586 8.23557C23.7197 8.88456 23.2722 9.50868 22.6379 9.8862C21.77 10.4139 20.6243 10.3657 19.7644 9.8451C19.1836 9.49042 18.7971 8.88405 18.5747 8.24724C17.9653 6.29925 18.4797 4.00673 19.8844 2.53623C20.3058 2.11964 20.8527 1.82787 21.4401 1.75328ZM21.6246 3.67132C21.1672 3.83674 20.8932 4.28023 20.6553 4.68211C20.1409 5.60307 20.0144 6.78891 20.4798 7.75605C20.6053 8.02347 20.8277 8.2929 21.1422 8.30762C21.4846 8.32031 21.7795 8.10009 22.017 7.87276C22.5344 7.35469 22.7708 6.61537 22.8533 5.89738C22.9383 5.22504 22.8283 4.50248 22.4429 3.93823C22.2664 3.67488 21.9195 3.56324 21.6246 3.67132Z" fill="#9C5D90"/>
</svg>
