<svg width="21" height="20" viewBox="0 0 21 20" fill="none" xmlns="http://www.w3.org/2000/svg">
<path d="M10.7502 0C5.23644 0 0.750244 4.4864 0.750244 10C0.750244 15.514 5.23644 20 10.7502 20C16.2638 20 20.7502 15.514 20.7502 10C20.7502 4.4864 16.2638 0 10.7502 0ZM10.7502 0.4562C16.0112 0.4562 20.2878 4.7392 20.2878 10C20.2878 15.261 16.0112 19.5376 10.7502 19.5376C5.48944 19.5376 1.21264 15.261 1.21264 10C1.21264 4.7392 5.48944 0.4562 10.7502 0.4562ZM10.7502 1.425C7.75324 1.425 5.11524 2.9588 3.58144 5.2874C3.78284 5.2938 3.97684 5.2998 4.13764 5.2998C5.03464 5.2998 6.41884 5.1874 6.41884 5.1874C6.88104 5.1604 6.93704 5.839 6.47504 5.8936C6.47504 5.8936 6.01064 5.954 5.49384 5.9812L8.61884 15.2688L10.4938 9.6376L9.15624 5.9814C8.69404 5.9542 8.25624 5.8938 8.25624 5.8938C7.79384 5.8664 7.85004 5.1604 8.31244 5.1876C8.31244 5.1876 9.72584 5.3 10.5686 5.3C11.4654 5.3 12.8562 5.1876 12.8562 5.1876C13.3186 5.1606 13.375 5.8392 12.9124 5.8938C12.9124 5.8938 12.4476 5.9542 11.9312 5.9814L15.0314 15.2L15.8876 12.3376C16.258 11.1504 16.5434 10.3028 16.5434 9.5688C16.5434 8.5082 16.1638 7.7714 15.8376 7.2C15.4028 6.493 14.9934 5.8944 14.9934 5.1876C14.9934 4.3992 15.5888 3.6688 16.431 3.6688C16.4688 3.6688 16.5066 3.673 16.5434 3.675C15.0178 2.2766 12.9834 1.425 10.7502 1.425ZM18.2752 5.8812C18.312 6.1544 18.3376 6.4528 18.3376 6.7688C18.3376 7.639 18.1708 8.6138 17.6814 9.8376L15.0626 17.4124C17.6126 15.9256 19.3252 13.1646 19.3252 10C19.3252 8.5086 18.9448 7.103 18.2752 5.8812ZM2.91264 6.5062C2.43684 7.573 2.17524 8.7564 2.17524 10C2.17524 13.3954 4.14484 16.3286 7.00644 17.7188L2.91264 6.5062ZM10.9002 10.75L8.32524 18.2312C9.09404 18.4574 9.90844 18.575 10.7502 18.575C11.749 18.575 12.7086 18.4074 13.6002 18.0938C13.5776 18.057 13.5548 18.0174 13.5378 17.975L10.9002 10.75Z" fill="#346DA6"/>
</svg>
