<?xml version="1.0" encoding="UTF-8" standalone="no"?>
<svg
   xmlns:ooo="http://xml.openoffice.org/svg/export"
   xmlns:dc="http://purl.org/dc/elements/1.1/"
   xmlns:cc="http://creativecommons.org/ns#"
   xmlns:rdf="http://www.w3.org/1999/02/22-rdf-syntax-ns#"
   xmlns:svg="http://www.w3.org/2000/svg"
   xmlns="http://www.w3.org/2000/svg"
   xmlns:sodipodi="http://sodipodi.sourceforge.net/DTD/sodipodi-0.dtd"
   xmlns:inkscape="http://www.inkscape.org/namespaces/inkscape"
   version="1.2"
   width="200mm"
   height="200mm"
   viewBox="0 0 20000 20000"
   preserveAspectRatio="xMidYMid"
   fill-rule="evenodd"
   stroke-width="28.222"
   stroke-linejoin="round"
   xml:space="preserve"
   id="svg3520"
   inkscape:version="0.91 r13725"
   sodipodi:docname="instagram.svg"><metadata
     id="metadata3591"><rdf:RDF><cc:Work
         rdf:about=""><dc:format>image/svg+xml</dc:format><dc:type
           rdf:resource="http://purl.org/dc/dcmitype/StillImage" /><dc:title></dc:title></cc:Work></rdf:RDF></metadata><sodipodi:namedview
     pagecolor="#ffffff"
     bordercolor="#666666"
     borderopacity="1"
     objecttolerance="10"
     gridtolerance="10"
     guidetolerance="10"
     inkscape:pageopacity="0"
     inkscape:pageshadow="2"
     inkscape:window-width="1362"
     inkscape:window-height="723"
     id="namedview3589"
     showgrid="false"
     inkscape:document-units="mm"
     inkscape:zoom="0.78598889"
     inkscape:cx="354.33071"
     inkscape:cy="354.33071"
     inkscape:window-x="4"
     inkscape:window-y="1"
     inkscape:window-maximized="1"
     inkscape:current-layer="svg3520" /><defs
     class="ClipPathGroup"
     id="defs3522"><clipPath
       id="presentation_clip_path"
       clipPathUnits="userSpaceOnUse"><rect
         x="0"
         y="0"
         width="20000"
         height="20000"
         id="rect3525" /></clipPath></defs><defs
     class="TextShapeIndex"
     id="defs3527"><g
       ooo:slide="id1"
       ooo:id-list="id3 id4 id5"
       id="g3529" /></defs><defs
     class="EmbeddedBulletChars"
     id="defs3531"><g
       id="bullet-char-template(57356)"
       transform="scale(0.00048828125,-0.00048828125)"><path
         d="M 580,1141 L 1163,571 580,0 -4,571 580,1141 Z"
         id="path3534" /></g><g
       id="bullet-char-template(57354)"
       transform="scale(0.00048828125,-0.00048828125)"><path
         d="M 8,1128 L 1137,1128 1137,0 8,0 8,1128 Z"
         id="path3537" /></g><g
       id="bullet-char-template(10146)"
       transform="scale(0.00048828125,-0.00048828125)"><path
         d="M 174,0 L 602,739 174,1481 1456,739 174,0 Z M 1358,739 L 309,1346 659,739 1358,739 Z"
         id="path3540" /></g><g
       id="bullet-char-template(10132)"
       transform="scale(0.00048828125,-0.00048828125)"><path
         d="M 2015,739 L 1276,0 717,0 1260,543 174,543 174,936 1260,936 717,1481 1274,1481 2015,739 Z"
         id="path3543" /></g><g
       id="bullet-char-template(10007)"
       transform="scale(0.00048828125,-0.00048828125)"><path
         d="M 0,-2 C -7,14 -16,27 -25,37 L 356,567 C 262,823 215,952 215,954 215,979 228,992 255,992 264,992 276,990 289,987 310,991 331,999 354,1012 L 381,999 492,748 772,1049 836,1024 860,1049 C 881,1039 901,1025 922,1006 886,937 835,863 770,784 769,783 710,716 594,584 L 774,223 C 774,196 753,168 711,139 L 727,119 C 717,90 699,76 672,76 641,76 570,178 457,381 L 164,-76 C 142,-110 111,-127 72,-127 30,-127 9,-110 8,-76 1,-67 -2,-52 -2,-32 -2,-23 -1,-13 0,-2 Z"
         id="path3546" /></g><g
       id="bullet-char-template(10004)"
       transform="scale(0.00048828125,-0.00048828125)"><path
         d="M 285,-33 C 182,-33 111,30 74,156 52,228 41,333 41,471 41,549 55,616 82,672 116,743 169,778 240,778 293,778 328,747 346,684 L 369,508 C 377,444 397,411 428,410 L 1163,1116 C 1174,1127 1196,1133 1229,1133 1271,1133 1292,1118 1292,1087 L 1292,965 C 1292,929 1282,901 1262,881 L 442,47 C 390,-6 338,-33 285,-33 Z"
         id="path3549" /></g><g
       id="bullet-char-template(9679)"
       transform="scale(0.00048828125,-0.00048828125)"><path
         d="M 813,0 C 632,0 489,54 383,161 276,268 223,411 223,592 223,773 276,916 383,1023 489,1130 632,1184 813,1184 992,1184 1136,1130 1245,1023 1353,916 1407,772 1407,592 1407,412 1353,268 1245,161 1136,54 992,0 813,0 Z"
         id="path3552" /></g><g
       id="bullet-char-template(8226)"
       transform="scale(0.00048828125,-0.00048828125)"><path
         d="M 346,457 C 273,457 209,483 155,535 101,586 74,649 74,723 74,796 101,859 155,911 209,963 273,989 346,989 419,989 480,963 531,910 582,859 608,796 608,723 608,648 583,586 532,535 482,483 420,457 346,457 Z"
         id="path3555" /></g><g
       id="bullet-char-template(8211)"
       transform="scale(0.00048828125,-0.00048828125)"><path
         d="M -4,459 L 1135,459 1135,606 -4,606 -4,459 Z"
         id="path3558" /></g></defs><defs
     class="TextEmbeddedBitmaps"
     id="defs3560" /><g
     id="g3562"><g
       id="id2"
       class="Master_Slide"><g
         id="bg-id2"
         class="Background" /><g
         id="bo-id2"
         class="BackgroundObjects" /></g></g><g
     class="SlideGroup"
     id="g3567"
     transform="matrix(1,0,0,1.0005615,0,-1.1130521)"><g
       id="g3569"><g
         id="id1"
         class="Slide"
         clip-path="url(#presentation_clip_path)"><g
           class="Page"
           id="g3572"><g
             class="com.sun.star.drawing.ClosedBezierShape"
             id="g3574"><g
               id="id3"><path
                 d="m 10000,1966 c 2616,0 2926,9 3960,57 955,43 1474,203 1820,337 170,63 309,128 466,219 256,147 455,303 661,514 211,206 366,404 514,660 90,157 155,295 219,466 133,345 293,864 336,1819 48,1032 58,1342 58,3958 0,2615 -10,2925 -58,3958 -43,954 -203,1473 -336,1819 -65,165 -129,300 -219,454 -298,517 -670,889 -1187,1188 -154,88 -289,152 -454,217 -346,133 -865,294 -1820,337 -1034,47 -1343,57 -3960,57 -2617,0 -2927,-10 -3960,-57 -956,-43 -1475,-204 -1820,-337 -171,-64 -310,-128 -466,-219 -257,-148 -455,-303 -661,-514 -211,-206 -367,-405 -514,-660 -91,-157 -156,-296 -219,-466 -134,-345 -294,-865 -337,-1819 -48,-1033 -57,-1343 -57,-3958 0,-2616 9,-2926 57,-3958 43,-955 203,-1474 337,-1819 63,-171 128,-309 219,-466 147,-256 303,-454 514,-660 206,-211 404,-367 661,-514 156,-91 295,-156 466,-219 345,-134 864,-294 1820,-337 1033,-48 1343,-57 3960,-57 z m 0,-1765 c -2662,0 -2995,11 -4041,59 -1043,47 -1755,213 -2378,455 -259,97 -471,198 -710,336 -397,229 -705,468 -1027,794 -326,321 -565,629 -794,1025 -138,240 -238,451 -336,710 -242,623 -408,1335 -455,2378 -48,1044 -59,1378 -59,4038 0,2660 11,2994 59,4038 48,1042 213,1755 456,2378 97,259 197,470 336,709 228,396 467,705 794,1025 321,326 629,566 1026,795 240,138 451,238 710,335 623,242 1335,408 2378,455 1046,48 1379,59 4041,59 2662,0 2995,-11 4041,-59 1043,-47 1755,-213 2378,-455 254,-98 462,-198 698,-333 799,-462 1373,-1036 1834,-1834 136,-236 235,-443 334,-697 242,-624 408,-1336 455,-2378 49,-1045 60,-1379 60,-4038 0,-2660 -11,-2994 -60,-4038 -47,-1043 -213,-1755 -455,-2378 -98,-259 -197,-471 -336,-710 -228,-396 -468,-705 -794,-1025 -321,-326 -630,-565 -1027,-795 -239,-137 -450,-238 -709,-335 -623,-242 -1336,-408 -2378,-455 -1046,-48 -1379,-59 -4041,-59 z"
                 id="path3577"
                 inkscape:connector-curvature="0"
                 style="fill:#e4405f;stroke:none" /></g></g><g
             class="com.sun.star.drawing.ClosedBezierShape"
             id="g3579"><g
               id="id4"><path
                 d="m 9999,4966 c -926,0 -1714,210 -2516,674 -802,463 -1379,1039 -1842,1841 -463,802 -674,1589 -674,2514 0,927 211,1714 674,2516 463,802 1040,1378 1842,1841 802,463 1590,674 2516,674 927,0 1715,-211 2517,-674 802,-463 1379,-1039 1842,-1841 463,-802 674,-1589 674,-2516 0,-925 -211,-1712 -674,-2514 -463,-802 -1040,-1378 -1842,-1841 -802,-464 -1590,-674 -2517,-674 z m 0,8295 c -601,0 -1112,-137 -1633,-437 -521,-301 -894,-675 -1196,-1195 -301,-521 -437,-1032 -437,-1634 0,-600 136,-1111 437,-1632 302,-520 675,-895 1196,-1195 521,-301 1032,-437 1634,-437 601,0 1112,136 1633,437 521,300 895,675 1196,1195 301,521 437,1032 437,1632 0,602 -136,1113 -437,1634 -301,520 -675,894 -1196,1195 -521,300 -1032,437 -1634,437 z"
                 id="path3582"
                 inkscape:connector-curvature="0"
                 style="fill:#e4405f;stroke:none" /></g></g><g
             class="com.sun.star.drawing.ClosedBezierShape"
             id="g3584"><g
               id="id5"><path
                 d="m 16408,4767 c 0,217 -49,401 -158,589 -109,187 -243,321 -430,430 -188,108 -372,158 -589,158 -216,0 -400,-50 -588,-158 -188,-109 -322,-243 -431,-430 -108,-188 -157,-372 -157,-589 0,-216 49,-400 157,-587 109,-188 243,-323 431,-431 188,-108 372,-157 588,-157 217,0 401,49 589,157 187,108 321,243 430,431 109,187 158,371 158,587 z"
                 id="path3587"
                 inkscape:connector-curvature="0"
                 style="fill:#e4405f;stroke:none" /></g></g></g></g></g></g></svg>