<?xml version="1.0" encoding="UTF-8"?>

<svg version="1.2" baseProfile="tiny" width="200mm" height="200mm" viewBox="0 0 20000 20000" preserveAspectRatio="xMidYMid" fill-rule="evenodd" stroke-width="28.222" stroke-linejoin="round" xmlns="http://www.w3.org/2000/svg" xmlns:ooo="http://xml.openoffice.org/svg/export" xmlns:xlink="http://www.w3.org/1999/xlink" xml:space="preserve">
 <defs class="ClipPathGroup">
  <clipPath id="presentation_clip_path" clipPathUnits="userSpaceOnUse">
   <rect x="0" y="0" width="20000" height="20000"/>
  </clipPath>
 </defs>
 <defs class="TextShapeIndex">
  <g ooo:slide="id1" ooo:id-list="id3 id4 id5 id6"/>
 </defs>
 <defs class="EmbeddedBulletChars">
  <g id="bullet-char-template(57356)" transform="scale(0.00048828125,-0.00048828125)">
   <path d="M 580,1141 L 1163,571 580,0 -4,571 580,1141 Z"/>
  </g>
  <g id="bullet-char-template(57354)" transform="scale(0.00048828125,-0.00048828125)">
   <path d="M 8,1128 L 1137,1128 1137,0 8,0 8,1128 Z"/>
  </g>
  <g id="bullet-char-template(10146)" transform="scale(0.00048828125,-0.00048828125)">
   <path d="M 174,0 L 602,739 174,1481 1456,739 174,0 Z M 1358,739 L 309,1346 659,739 1358,739 Z"/>
  </g>
  <g id="bullet-char-template(10132)" transform="scale(0.00048828125,-0.00048828125)">
   <path d="M 2015,739 L 1276,0 717,0 1260,543 174,543 174,936 1260,936 717,1481 1274,1481 2015,739 Z"/>
  </g>
  <g id="bullet-char-template(10007)" transform="scale(0.00048828125,-0.00048828125)">
   <path d="M 0,-2 C -7,14 -16,27 -25,37 L 356,567 C 262,823 215,952 215,954 215,979 228,992 255,992 264,992 276,990 289,987 310,991 331,999 354,1012 L 381,999 492,748 772,1049 836,1024 860,1049 C 881,1039 901,1025 922,1006 886,937 835,863 770,784 769,783 710,716 594,584 L 774,223 C 774,196 753,168 711,139 L 727,119 C 717,90 699,76 672,76 641,76 570,178 457,381 L 164,-76 C 142,-110 111,-127 72,-127 30,-127 9,-110 8,-76 1,-67 -2,-52 -2,-32 -2,-23 -1,-13 0,-2 Z"/>
  </g>
  <g id="bullet-char-template(10004)" transform="scale(0.00048828125,-0.00048828125)">
   <path d="M 285,-33 C 182,-33 111,30 74,156 52,228 41,333 41,471 41,549 55,616 82,672 116,743 169,778 240,778 293,778 328,747 346,684 L 369,508 C 377,444 397,411 428,410 L 1163,1116 C 1174,1127 1196,1133 1229,1133 1271,1133 1292,1118 1292,1087 L 1292,965 C 1292,929 1282,901 1262,881 L 442,47 C 390,-6 338,-33 285,-33 Z"/>
  </g>
  <g id="bullet-char-template(9679)" transform="scale(0.00048828125,-0.00048828125)">
   <path d="M 813,0 C 632,0 489,54 383,161 276,268 223,411 223,592 223,773 276,916 383,1023 489,1130 632,1184 813,1184 992,1184 1136,1130 1245,1023 1353,916 1407,772 1407,592 1407,412 1353,268 1245,161 1136,54 992,0 813,0 Z"/>
  </g>
  <g id="bullet-char-template(8226)" transform="scale(0.00048828125,-0.00048828125)">
   <path d="M 346,457 C 273,457 209,483 155,535 101,586 74,649 74,723 74,796 101,859 155,911 209,963 273,989 346,989 419,989 480,963 531,910 582,859 608,796 608,723 608,648 583,586 532,535 482,483 420,457 346,457 Z"/>
  </g>
  <g id="bullet-char-template(8211)" transform="scale(0.00048828125,-0.00048828125)">
   <path d="M -4,459 L 1135,459 1135,606 -4,606 -4,459 Z"/>
  </g>
 </defs>
 <defs class="TextEmbeddedBitmaps"/>
 <g>
  <g id="id2" class="Master_Slide">
   <g id="bg-id2" class="Background"/>
   <g id="bo-id2" class="BackgroundObjects"/>
  </g>
 </g>
 <g class="SlideGroup">
  <g>
   <g id="id1" class="Slide" clip-path="url(#presentation_clip_path)">
    <g class="Page">
     <g class="com.sun.star.drawing.ClosedBezierShape">
      <g id="id3">
       <path fill="rgb(39,52,106)" stroke="none" d="M 15543,1679 C 14635,643 12993,200 10895,200 L 4805,200 C 4375,200 4011,512 3943,937 L 1406,17022 C 1357,17339 1602,17625 1923,17625 L 5684,17625 6629,11635 6599,11823 C 6666,11400 7029,11086 7457,11086 L 9244,11086 C 12753,11086 15502,9661 16305,5537 16329,5415 16351,5295 16368,5179 16266,5125 16266,5125 16368,5179 16608,3656 16366,2618 15543,1679 Z"/>
      </g>
     </g>
     <g class="com.sun.star.drawing.ClosedBezierShape">
      <g id="id4">
       <path fill="rgb(39,52,106)" stroke="none" d="M 8067,4631 C 8168,4583 8279,4557 8397,4557 L 13171,4557 C 13737,4557 14263,4594 14745,4671 14884,4693 15018,4719 15148,4747 15279,4776 15404,4810 15528,4845 15589,4863 15648,4882 15707,4900 15945,4980 16165,5072 16368,5179 16608,3654 16366,2618 15543,1679 14635,643 12993,200 10895,200 L 4805,200 C 4375,200 4011,512 3943,937 L 1406,17022 C 1357,17339 1602,17625 1923,17625 L 5684,17625 7644,5199 C 7683,4944 7847,4736 8067,4631 Z"/>
      </g>
     </g>
     <g class="com.sun.star.drawing.ClosedBezierShape">
      <g id="id5">
       <path fill="rgb(39,144,195)" stroke="none" d="M 16304,5535 C 15501,9659 12753,11086 9242,11086 L 7455,11086 C 7027,11086 6663,11398 6597,11823 L 5423,19270 C 5378,19549 5592,19800 5873,19800 L 9044,19800 C 9419,19800 9738,19527 9798,19156 L 9827,18995 10425,15209 10464,14998 C 10523,14629 10842,14356 11217,14356 L 11691,14356 C 14761,14356 17167,13108 17870,9499 18161,7992 18010,6733 17235,5849 16999,5581 16707,5360 16367,5179 16349,5295 16328,5413 16304,5535 Z"/>
      </g>
     </g>
     <g class="com.sun.star.drawing.ClosedBezierShape">
      <g id="id6">
       <path fill="rgb(31,38,79)" stroke="none" d="M 15525,4843 C 15403,4808 15276,4775 15147,4747 15016,4717 14881,4692 14744,4669 14261,4592 13735,4555 13168,4555 L 8394,4555 C 8276,4555 8164,4581 8064,4631 7844,4736 7680,4944 7641,5199 L 6626,11635 6596,11823 C 6663,11398 7025,11086 7455,11086 L 9242,11086 C 12753,11086 15501,9661 16304,5535 16328,5413 16348,5295 16367,5179 16162,5072 15942,4978 15706,4900 15647,4880 15586,4861 15525,4843 Z"/>
      </g>
     </g>
    </g>
   </g>
  </g>
 </g>
</svg>