<?xml version="1.0" encoding="UTF-8"?>

<svg version="1.2" baseProfile="tiny" width="200mm" height="200mm" viewBox="0 0 20000 20000" preserveAspectRatio="xMidYMid" fill-rule="evenodd" stroke-width="28.222" stroke-linejoin="round" xmlns="http://www.w3.org/2000/svg" xmlns:ooo="http://xml.openoffice.org/svg/export" xmlns:xlink="http://www.w3.org/1999/xlink" xml:space="preserve">
 <defs class="ClipPathGroup">
  <clipPath id="presentation_clip_path" clipPathUnits="userSpaceOnUse">
   <rect x="0" y="0" width="20000" height="20000"/>
  </clipPath>
 </defs>
 <defs class="TextShapeIndex">
  <g ooo:slide="id1" ooo:id-list="id3 id4"/>
 </defs>
 <defs class="EmbeddedBulletChars">
  <g id="bullet-char-template(57356)" transform="scale(0.00048828125,-0.00048828125)">
   <path d="M 580,1141 L 1163,571 580,0 -4,571 580,1141 Z"/>
  </g>
  <g id="bullet-char-template(57354)" transform="scale(0.00048828125,-0.00048828125)">
   <path d="M 8,1128 L 1137,1128 1137,0 8,0 8,1128 Z"/>
  </g>
  <g id="bullet-char-template(10146)" transform="scale(0.00048828125,-0.00048828125)">
   <path d="M 174,0 L 602,739 174,1481 1456,739 174,0 Z M 1358,739 L 309,1346 659,739 1358,739 Z"/>
  </g>
  <g id="bullet-char-template(10132)" transform="scale(0.00048828125,-0.00048828125)">
   <path d="M 2015,739 L 1276,0 717,0 1260,543 174,543 174,936 1260,936 717,1481 1274,1481 2015,739 Z"/>
  </g>
  <g id="bullet-char-template(10007)" transform="scale(0.00048828125,-0.00048828125)">
   <path d="M 0,-2 C -7,14 -16,27 -25,37 L 356,567 C 262,823 215,952 215,954 215,979 228,992 255,992 264,992 276,990 289,987 310,991 331,999 354,1012 L 381,999 492,748 772,1049 836,1024 860,1049 C 881,1039 901,1025 922,1006 886,937 835,863 770,784 769,783 710,716 594,584 L 774,223 C 774,196 753,168 711,139 L 727,119 C 717,90 699,76 672,76 641,76 570,178 457,381 L 164,-76 C 142,-110 111,-127 72,-127 30,-127 9,-110 8,-76 1,-67 -2,-52 -2,-32 -2,-23 -1,-13 0,-2 Z"/>
  </g>
  <g id="bullet-char-template(10004)" transform="scale(0.00048828125,-0.00048828125)">
   <path d="M 285,-33 C 182,-33 111,30 74,156 52,228 41,333 41,471 41,549 55,616 82,672 116,743 169,778 240,778 293,778 328,747 346,684 L 369,508 C 377,444 397,411 428,410 L 1163,1116 C 1174,1127 1196,1133 1229,1133 1271,1133 1292,1118 1292,1087 L 1292,965 C 1292,929 1282,901 1262,881 L 442,47 C 390,-6 338,-33 285,-33 Z"/>
  </g>
  <g id="bullet-char-template(9679)" transform="scale(0.00048828125,-0.00048828125)">
   <path d="M 813,0 C 632,0 489,54 383,161 276,268 223,411 223,592 223,773 276,916 383,1023 489,1130 632,1184 813,1184 992,1184 1136,1130 1245,1023 1353,916 1407,772 1407,592 1407,412 1353,268 1245,161 1136,54 992,0 813,0 Z"/>
  </g>
  <g id="bullet-char-template(8226)" transform="scale(0.00048828125,-0.00048828125)">
   <path d="M 346,457 C 273,457 209,483 155,535 101,586 74,649 74,723 74,796 101,859 155,911 209,963 273,989 346,989 419,989 480,963 531,910 582,859 608,796 608,723 608,648 583,586 532,535 482,483 420,457 346,457 Z"/>
  </g>
  <g id="bullet-char-template(8211)" transform="scale(0.00048828125,-0.00048828125)">
   <path d="M -4,459 L 1135,459 1135,606 -4,606 -4,459 Z"/>
  </g>
 </defs>
 <defs class="TextEmbeddedBitmaps"/>
 <g>
  <g id="id2" class="Master_Slide">
   <g id="bg-id2" class="Background"/>
   <g id="bo-id2" class="BackgroundObjects"/>
  </g>
 </g>
 <g class="SlideGroup">
  <g>
   <g id="id1" class="Slide" clip-path="url(#presentation_clip_path)">
    <g class="Page">
     <g class="com.sun.star.drawing.ClosedBezierShape">
      <g id="id3">
       <path fill="rgb(101,187,242)" stroke="none" d="M 340,199 C 316,199 298,220 298,244 L 298,250 C 257,242 236,230 214,206 201,233 215,255 231,268 221,268 211,266 204,260 204,259 203,260 203,260 209,283 230,299 245,304 231,304 222,306 211,299 211,299 210,299 210,300 218,322 234,329 256,329 245,338 230,346 201,347 200,347 199,348 201,349 211,358 237,365 274,365 334,365 382,310 382,242 L 382,239 C 392,235 397,226 400,218 400,217 400,217 399,217 L 379,224 379,223 C 387,216 394,208 396,199 386,203 377,207 370,209 369,209 368,209 367,209 362,206 348,199 340,199 Z"/>
      </g>
     </g>
     <g class="com.sun.star.drawing.ClosedBezierShape">
      <g id="id4">
       <path fill="rgb(76,117,163)" stroke="none" d="M 19696,14498 C 19672,14448 19650,14405 19630,14371 19289,13759 18640,13007 17681,12116 L 17660,12095 17650,12085 17640,12075 17630,12075 C 17194,11660 16919,11381 16803,11238 16591,10966 16545,10690 16660,10412 16741,10201 17047,9755 17578,9075 17858,8714 18079,8425 18242,8207 19419,6643 19929,5642 19773,5208 L 19712,5105 C 19670,5045 19565,4988 19396,4937 19226,4887 19008,4878 18742,4912 L 15803,4932 C 15756,4915 15688,4917 15599,4937 15510,4958 15466,4968 15466,4968 L 15415,4993 15375,5024 C 15340,5045 15303,5080 15262,5131 15222,5182 15187,5242 15161,5310 14841,6133 14477,6899 14069,7606 13816,8028 13585,8393 13375,8703 13163,9012 12987,9241 12844,9387 12701,9532 12571,9650 12456,9738 12340,9827 12252,9865 12190,9851 12130,9837 12072,9823 12017,9810 11922,9748 11845,9665 11787,9560 11729,9454 11691,9322 11671,9162 11650,9002 11638,8864 11634,8748 11631,8633 11633,8470 11639,8259 11646,8047 11650,7904 11650,7831 11650,7571 11654,7291 11665,6988 11676,6686 11684,6446 11691,6268 11698,6092 11701,5905 11701,5707 11701,5511 11689,5356 11665,5243 11641,5131 11606,5022 11558,4917 11511,4812 11441,4730 11348,4672 11257,4614 11143,4569 11007,4534 10646,4452 10187,4408 9629,4401 8364,4388 7551,4469 7191,4647 7048,4722 6918,4823 6803,4952 6680,5102 6663,5183 6752,5198 7160,5258 7449,5404 7619,5636 L 7680,5759 C 7728,5847 7775,6004 7823,6228 7870,6453 7902,6701 7915,6972 7948,7470 7948,7894 7915,8248 7881,8602 7849,8878 7818,9075 7787,9272 7742,9432 7680,9555 7619,9677 7578,9751 7557,9779 7537,9806 7520,9823 7507,9830 7419,9864 7326,9881 7231,9881 7136,9881 7020,9833 6885,9738 6748,9643 6607,9512 6461,9345 6314,9179 6149,8946 5966,8646 5782,8347 5592,7994 5394,7585 L 5231,7289 C 5129,7098 4990,6822 4813,6458 4635,6093 4479,5742 4344,5401 4289,5258 4207,5149 4099,5075 L 4047,5044 C 4013,5016 3959,4988 3884,4958 3809,4926 3731,4905 3650,4891 L 853,4911 C 568,4911 373,4976 272,5105 L 230,5166 C 210,5201 200,5254 200,5329 200,5404 220,5496 261,5605 669,6564 1113,7489 1593,8381 2072,9272 2490,9989 2843,10533 3197,11078 3558,11592 3924,12074 4292,12557 4535,12867 4655,13003 4773,13140 4866,13241 4935,13309 L 5190,13554 C 5354,13717 5593,13913 5910,14141 6226,14369 6577,14594 6961,14814 7346,15035 7792,15216 8303,15355 8813,15495 9309,15551 9792,15524 L 10967,15524 C 11205,15503 11385,15428 11508,15300 L 11548,15248 C 11575,15208 11601,15145 11624,15060 11648,14975 11660,14881 11660,14779 11652,14486 11675,14223 11726,13988 11777,13754 11835,13577 11900,13458 11964,13338 12037,13238 12119,13157 12201,13075 12258,13025 12293,13008 12327,12992 12353,12980 12374,12973 12538,12919 12729,12972 12951,13131 13172,13291 13380,13488 13573,13723 13768,13958 14001,14222 14272,14514 14545,14806 14783,15024 14987,15167 L 15191,15290 C 15327,15372 15504,15446 15722,15514 15939,15582 16129,15599 16293,15565 L 18905,15525 C 19164,15525 19364,15481 19507,15397 19650,15312 19735,15218 19763,15116 19790,15014 19791,14899 19768,14769 19743,14640 19720,14550 19696,14498 Z"/>
      </g>
     </g>
    </g>
   </g>
  </g>
 </g>
</svg>