<?xml version="1.0" encoding="utf-8"?>
<!-- Generator: Adobe Illustrator 19.2.1, SVG Export Plug-In . SVG Version: 6.00 Build 0)  -->
<svg version="1.1" xmlns="http://www.w3.org/2000/svg" xmlns:xlink="http://www.w3.org/1999/xlink" x="0px" y="0px"
	 viewBox="0 0 800 800" style="enable-background:new 0 0 800 800;" xml:space="preserve">
<style type="text/css">
	.st0{fill:#73DEDC;}
	.st1{clip-path:url(#SVGID_4_);fill:#B9EEEE;}
	.st2{fill:#F2F2F2;}
	.st3{fill:#274471;}
	.st4{opacity:0.15;}
	.st5{fill:#0F2F61;}
	.st6{opacity:0.3;}
	.st7{opacity:0.1;}
	.st8{fill:#EAC1A4;}
	.st9{opacity:0.7;fill:#0F2F61;}
	.st10{fill:#FFFFFF;}
	.st11{opacity:0.25;}
	.st12{fill:#808080;}
	.st13{opacity:0.5;fill:#294E87;}
	.st14{fill:#E8B999;}
	.st15{fill:#E5B18D;}
	.st16{opacity:0.35;fill:#ECC4AA;}
	.st17{opacity:0.2;}
	.st18{fill:#D01431;}
	.st19{opacity:0.5;}
	.st20{fill:#53729F;}
	.st21{opacity:0.35;}
	.st22{fill:#262626;}
	.st23{fill:#602323;}
	.st24{fill:#C2827C;}
	.st25{opacity:0.5;fill:#E5B18D;}
	.st26{fill:#333333;}
	.st27{opacity:5.000000e-002;}
</style>
<g id="Background">
	<g>
		<rect x="0" y="0" class="st0" width="800" height="799.6"/>
		<g>
			<defs>
				
					<rect id="SVGID_1_" y="0" transform="matrix(-1 -1.224647e-016 1.224647e-016 -1 800.9995 799.6067)" width="801" height="799.6"/>
			</defs>
			<clipPath id="SVGID_2_">
				<use xlink:href="#SVGID_1_"  style="overflow:visible;"/>
			</clipPath>
		</g>
		<g>
			<defs>
				<rect id="SVGID_3_" x="0" y="0" width="800" height="799.6"/>
			</defs>
			<clipPath id="SVGID_4_">
				<use xlink:href="#SVGID_3_"  style="overflow:visible;"/>
			</clipPath>
			<circle class="st1" cx="400" cy="493.3" r="357"/>
		</g>
	</g>
</g>
<g id="Designed_by_Freepik">
</g>
<g id="Objects">
	<g>
		<g>
			<path class="st2" d="M416.9,683.1c4.2,8.4,7.3,16.7,9.4,26.2c2,6.1,6.1,11.3,9.2,17.4c39.2-117.4,61-239.8,34.5-367.2
				c-0.3-0.3-0.5-0.5-0.7-0.7c-23.4-19.6-46.8-34.2-74.8-35.5c-27-1.2-41.5-1.3-64,15.2c-0.7,0.5-1.4,1.1-2.1,1.6
				c0.9,49.3-1.8,98.9,14.2,145.2C364.6,553.4,383.4,619.3,416.9,683.1z"/>
			<path class="st3" d="M649.9,801.6c0,0-1.3-26.8-4.8-47.2c-3.5-20.3-11.3-67.5-16-92.2c-4.8-24.7-5.2-39.8-3.5-53.3
				c1.7-13.4-2.6-25.1-5.2-32.5c-2.6-7.4-3.5-19-3.5-19s2.6-23.4,0-35.9c-2.6-12.6-9.5-42-9.1-55.8c0.4-13.9,1.3-16.9-0.4-27.7
				c-1.7-10.8-6.1-14.7-6.1-14.7s0-3,0-4.8c0-1.7-3.9-4.3-11.7-6.9c-7.8-2.6-25.5-10.4-38.1-14.3c-12.6-3.9-52-22.5-65.8-26.8
				c-2.2-0.7-8.5-2.8-8.5-2.8s-4.8-5.6-7.3-8.1c26.6,127.4,4.7,249.8-34.5,367.2c0.1,0.1,0.1,0.3,0.2,0.4c1,3.1,1,6.3,1,9.4
				c0-3.1,0-6.3-1-9.4c-0.1-0.1-0.1-0.3-0.2-0.4c-0.6,1.9-1.3,3.7-1.9,5.6c0.6-1.9,1.3-3.7,1.9-5.6c-3.1-6.1-7.2-11.3-9.2-17.4
				c-2.1-9.4-5.2-17.8-9.4-26.2c-33.5-63.8-52.3-129.7-74.3-197.7c-16.1-46.3-13.4-96-14.2-145.2c-8.9,7.4-18.2,19.9-18.2,19.9
				c-5.6,1.3-6.6,1-8.9,1.6c-9.5,2.6-61.5,20.8-74,23.8c-12.6,3-43.3,13.9-44.2,15.6c-0.9,1.7,0,3.5,0,3.5s-3,6.1-6.9,16
				c-3.9,10-7.8,27.3-8.2,36.8c-0.4,9.5-1.7,27.7-1.3,38.5c0.4,10.8,7.4,23.8,7.4,23.8s0,2.6-0.4,4.3c-0.4,1.7-8.7,17.8-10,24.2
				c-1.3,6.5,0,22.9-1.3,29.4c-1.3,6.5-6.5,14.7-8.2,20.3c-1.7,5.6-3,9.5-3.5,15.6c-0.4,6.1-1.7,18.2-1.7,18.2s-3.9,1.3-6.1,8.7
				c-2.2,7.4-3,18.6-3,18.6s-5.6,8.2-8.7,13.4c-3,5.2-3,8.7-1.3,20.8c1.7,12.1,11.7,29,22.5,36.8c10.8,7.8,34.2,10.8,34.2,10.8
				s6.9,3.5,16.9,7.8c10,4.3,29.4,3.9,29.4,3.9l-12.6,48.9H649.9z"/>
			<g class="st4">
				<path class="st5" d="M433.3,801.6c0.2-14.2,0.5-28.9,0.7-43c0.1-7.6,0.2-15.3-2-22.5c-2.3-7.3-6.8-13.7-11-20.1
					c-10.9-16.6-20.2-34.2-27.8-52.5c-5-12.2-9.2-24.8-16.2-35.9c-8.7-14.1-21.3-25.3-33.7-36.2l-13.5-16.5
					c10.4,33.3,30.5,62.6,46.6,91.5c6.7,12,20.2,32.2,25.3,45c12.6,31.9,11.1,59.3,8.6,90.3H433.3
					C433.3,801.5,433.3,801.6,433.3,801.6z"/>
			</g>
			<g>
				<g class="st4">
					<path class="st5" d="M299.6,724.4c-22.8,37.4-40.4,38.8-59.7,30.2c-3.5-1.6-7-1.9-7-1.9l-12.6,48.9l72.4,0.1
						C296.5,781.2,301.2,750.9,299.6,724.4z"/>
				</g>
				<g class="st4">
					<path class="st5" d="M599.2,782.4c-1.7-12.1,0.1-24.3,1.3-36.5c0.5-5.7,0.9-11.5,0.5-17.3c-1.1-16.1-8.1-31.2-11-47.1
						c-3.2-17.3-1.5-35,0.1-52.5c1.5-16,3-32.1,1.5-48.1c-1.1-11-3.5-21.9-4.8-32.8c-2.6-22.8,0.3-45.9,3.1-68.7
						c2.2-17.5,4.4-34.9,6.5-52.4l0.5-4.2c-17.3,29.4-29.2,62-34.7,95.6c-1.7,10.2-3.3,21.5-11.1,28.4c-3.2,2.8-6.7,5-10.2,7.3
						c-22.7,15.5,5.6,22.8,2.5,39.6c-1.6,8.8-13,16.6-20.9,20.9c-12.1,6.6-6.6,28.6,2.2,40.6c9,12.3,4.4,37.3,3.3,56
						c-0.9,15.2-15.1,32.2-29.2,38c-4.4,1.8-9.9,2.5-14.3,4.1c12.4,13.6,18.9,30.6,21,48.5l100.7,0.1
						C602.5,796.2,600.2,789.3,599.2,782.4z"/>
				</g>
			</g>
			<g class="st6">
				<path class="st5" d="M232.9,752.6l-0.1,0.6c0.1,0,0.3,0,0.4-0.1l0.3-1.2c5.2,1.9,10.2,4.4,15.7,6c2.1,0.7,4.2,1,6.3,1.1
					c-5.1-1.3-12.5-4.4-13.8-8.1c-1.4-4.2-4.3-8.2-4.9-12.5c-0.1,0-0.2,0.1-0.2,0.1c-4.1,1.5-7.2,3.1-13.9,2.1c-7-1-14-1.6-20.8-3.4
					c-15.1-4.1-28.2-15.2-35-29.3c0.9,3.1,1.3,6.4,0.9,9.6c-0.3,2.3-1.4,4.9-3.6,5.2c-1.5,0.1-2.9-1-3.9-2.1
					c-5.6-6.2-6.8-15.1-7.6-23.4c-0.6-6.5-1-13.3,0.5-19.6c1.2-10.1,6-19.5,11.3-28.3c3.1-5.1,6.8-10,11.1-14.2
					c-7.2,4.4-14.2,9.3-20.9,14.5c7.5-15,23-25.8,39.7-27.8c-13.5-5.4-30.4-0.2-38.5,11.9c4.9-11.9,15.3-21,27.1-26.1
					c11.8-5.2,24.8-6.7,37.7-6.8c-11.5-5.7-25.3-6.8-37.5-2.8c7.7-9,15-18.4,21.8-28.2c-10.1,9.9-21.8,20.5-35.9,20.2
					c-2-14.6,10-26.9,21-36.7c-5.8,4.1-13.1,5.9-20.1,5.2c1.2-8.9,6.1-17.3,13.2-22.7c-3-4.8-6-9.6-9-14.4c-0.1,0.9-0.2,2-0.4,2.8
					c-0.4,1.7-8.7,17.8-10,24.2c-1.3,6.5,0,22.9-1.3,29.4c-1.3,6.5-6.5,14.7-8.2,20.3c-1.7,5.6-3,9.5-3.5,15.6
					c-0.4,6.1-1.7,18.2-1.7,18.2s-3.9,1.3-6.1,8.7c-2.2,7.4-3,18.6-3,18.6s-5.6,8.2-8.7,13.4c-3,5.2-3,8.7-1.3,20.8
					c1.7,12.1,11.7,29,22.5,36.8c10.8,7.8,34.2,10.8,34.2,10.8s6.9,3.5,16.9,7.8C213.5,753.1,232.9,752.6,232.9,752.6z"/>
			</g>
			<g class="st7">
				<g>
					<path d="M346.3,332.4c1.2,0.1,2.3,0.2,3.5,0.3c0.1,0,0.2,0,0.4,0L346.3,332.4z"/>
				</g>
				<g>
					<path d="M495.9,455.7c-1.3-17.1-3.7-33.4-7.6-47.5c-7.8-28.6-25.7-53-53.9-62.1c-9.2-2.9-12.8-7.3-22.4-8.2
						c-20.7-1.8-41.5-3.5-62.2-5.3c-10.9,0.1-20.4,8.8-24.5,19c-4.1,10.3-3.8,21.8-2.9,32.9c4.8,57.7,24.4,113,43.8,167.5
						c6.7,18.8,13.4,37.7,20.1,56.5c15.1,42.5,30.3,85.1,49.2,126c5.7-20.6,13.4-40.7,20-61.1c19-58.5,31.5-110.2,36-171.5
						C492.7,484.9,496.9,469.8,495.9,455.7z M454.5,520.7c-6.4-5.1-7.2-9.6-9.8-17.4c-1.2-3.6-3.6-8.5-7.3-7.3
						c1.9,16.9,3.9,33.8,5.8,50.7c0.2,1.4,0.3,2.9-0.1,4.3c-1.3,3.8-6.3,4.4-10.3,4.4c-5.8,0-11.6-0.1-17.3-0.1
						c-1.3,0-2.7,0-3.8-0.7c-1.2-0.7-1.8-1.9-2.4-3.1c-17-33.1-23.9-71.6-35-107.1c-3.2-10.1-3.5-21.4,3.2-25.4
						c4.1-2.4,14.7-4.2,19.7-3.7c13.1,1.3,22.6,0.7,34.3,6.8c4,2.1,7.4,3.3,8.7,4.4c4.7,3.6,5.6-5.8,7-9.9c2.2-6.4,3-14.2,8.9-10.5
						c3.6,2.2,4.2,6.8,4.6,11C463.8,455.9,463.2,486.1,454.5,520.7z"/>
				</g>
			</g>
			<polygon class="st8" points="347.4,341.7 347.2,296.6 438.7,300.6 440.6,358.3 401.9,385.2 			"/>
			<path class="st9" d="M233,681.2c1.2,10.8,4.7,43.6,6.1,50.8c1.4,7.2,1.8,17.7,11.5,21.3c9.7,3.6,19.5,1.8,28.1-7.6
				c8.6-9.4,27.4-41.4,32.1-57.6c4.7-16.2,11.2-46.8,8.3-62c-2.9-15.1-9.7-20.5-18.4-27c-8.6-6.5-29.9-10.8-38.9-7.6
				c-9,3.2-14.1,6.5-20.2,13.7c-6.1,7.2-9.4,20.5-9.7,33.9C231.5,652.4,230.8,662.1,233,681.2z"/>
			<path class="st10" d="M266.6,591c0,0-12.4,4-18.9,7.5c-6.5,3.5-16.9,15.4-16.9,28.8c0,13.4,0.5,39.8,2.5,55.2
				c2,15.4,5,41.3,5,41.3s33.3-20.4,42.8-25.4c9.4-5,18.4-10.4,19.9-19.9c1.5-9.4,3.5-24.1,0-49.7c-2.5-18.4-7-23.4-12.4-28.8
				C280.5,592,276,590,266.6,591z"/>
			<path class="st7" d="M230.8,630.8c0.1,14.1,0.6,37.6,2.5,51.8c2,15.4,5,41.3,5,41.3s33.3-20.4,42.8-25.4
				c9.4-5,18.4-10.4,19.9-19.9c1.5-9.4,3.5-24.1,0-49.7c0-0.3-0.1-0.5-0.1-0.8c-17.3,13.9-23.5,28.9-54.8,33.7
				C238.9,662.8,231.4,641.3,230.8,630.8z"/>
			<g class="st4">
				<path class="st5" d="M449.6,773c0-15.9,4.3-27.5,2-33.8c-0.5-1.4,3.5-9.8,3.5-11.3c-0.1-2,2.3-3.5,2.3-5.5
					c0.2-17,5.8-13.1,8.1-34.9c3-9,11.6-30.2,13.3-32.7c11.6-16.5,4.9-18.4,16.5-34.9c5-13.9,11.4-24.1,13.1-29.7
					c1.7-5.6,2.6-11.1,5.8-16.1c12.9-20.4,13.4-47.2,27.6-66.7c1.8-2.4,4.6-7.5,4.6-7.5s-2.2-4.7-3.4-6.5
					c-6.4-9.5-12.7-19-20.5-27.3c-9.1-9.6-10.7-13.7-10.7-13.7l21.3-18.4c0,0-0.9-1.3-8.5-10.2c-13.3-15.6-24.6-30.3-38.9-45.7
					l-0.5,3c1.1,15.4,2.3,30.7,3.4,46.1c0.5,6.3,0.9,12.6,2.6,18.6c4.8,17.2,19.4,31.3,20.1,49.1c0.3,8.8-2.8,17.2-6,25.4
					c-32.5,84.2-70.4,169.2-71.9,259.4c-0.1,6.5-1.1,14.2-1,21.6h19.2C450.6,795.8,449.6,787.8,449.6,773z"/>
			</g>
			<g class="st6">
				<path class="st5" d="M232.8,542.1c5.8,3.4,11.2,7.6,15.9,12.4c-3,2.6-6.8,4.3-10.8,4.6c4.1,3.5,6.9,8.5,7.7,13.8
					c-3,1-6,2.1-8.9,3.1c7.3,3.1,8.1,15.3,1.2,19.3c0.9,3.1,1.7,6.2,2.4,9.3c2.5-2.8,5.2-5,7.4-6.2c3-1.6,7.2-3.3,10.9-4.7
					c2.9-8.6,7.5-16.4,15.2-21c-4.6,0.3-8.2-4.1-9.5-8.5c-1.4-4.4-1.4-9.2-3.2-13.4c-1-2.4-2.7-4.6-2.9-7.3
					c-0.6-6.9,7.9-10.5,14.7-11.9c-4.8-5.3-14.6-6.6-21.3-9.2c8-6,18.7-8.5,26.5-10.1c-8.6-3.5-18.1-1.1-25.5-6.8
					c-7.4-5.7-12.6-20-13.5-29.3c-0.3-2.8,0-5.7-0.4-8.5c-0.6-3.9-2.3-7.6-4.1-11.1c-3.7-7.5-7.5-15.2-13.5-21
					c-7.7-7.5-19.3-12.4-22.2-22.8c-0.6-2-0.8-4.2-1.8-5.9c-2.4-4.1-8.2-4.7-12.8-3.8c-0.5,0.1-1.1,0.2-1.6,0.3
					c0.1,0.7,0.3,1.1,0.3,1.1s-1.1,2.2-2.8,6l0.1,0c3.6-4.7,11.5-1.9,14.7,3.1c3.2,5,3.7,11.2,6.6,16.4c2.2,3.9,5.5,6.9,8.5,10.3
					c8.8,10,13.7,22.6,18.6,35c3.8,9.8,7.7,19.7,9.1,30.2C239.6,517.8,237.8,530.7,232.8,542.1z"/>
			</g>
			<g class="st11">
				<path d="M325,767.6c0.7-0.6,1.2-1.3,1.7-1.9c-1.9,0.4-3.7,1.3-5.6,1.4c-3.3,0.3-5.3-0.2-8.3-2c-2.5-1.5-4.9-3.4-6.1-5.5
					c-2.3-3.9-6.3-8.8-9.4-12.8c-2.7-3.4-5-4.9-7.5-8.5c-0.8-1.2-2.2-3.3-3.2-4.3c4.8,8.4,11.9,19.9,16.8,26.8
					C309.4,769,319.2,773.3,325,767.6z"/>
			</g>
			<g>
				<path class="st12" d="M198,744c-4.1-8-0.8-7.5,1.2-8.5c2-1,5.1,1.4,7.1,5.3c2,3.9,2,7.9,0.1,8.9C204.4,750.7,202.1,752,198,744z
					"/>
				<path class="st13" d="M197,736.7c2-1,5.1,1.4,7.1,5.3c1.8,3.5,2,7,0.6,8.4c0.6-0.1,1.1-0.4,1.6-0.7c2-1,1.9-5-0.1-8.9
					c-2-3.9-5.2-6.3-7.1-5.3c-0.9,0.4-2,0.6-2.6,1.3C196.7,736.8,196.8,736.7,197,736.7z"/>
			</g>
			<g>
				<path class="st12" d="M206.7,745.8c-4.5-8.8-0.9-8.2,1.3-9.2c2.1-1.1,5.6,1.5,7.8,5.8c2.2,4.3,2.2,8.6,0.1,9.7
					C213.7,753.1,211.2,754.5,206.7,745.8z"/>
				<path class="st13" d="M205.6,737.7c2.1-1.1,5.6,1.5,7.8,5.8c1.9,3.8,2.2,7.6,0.7,9.2c0.6-0.2,1.2-0.5,1.8-0.7
					c2.1-1.1,2.1-5.4-0.1-9.7c-2.2-4.3-5.7-6.8-7.8-5.8c-1,0.5-2.2,0.6-2.9,1.4C205.3,737.9,205.4,737.8,205.6,737.7z"/>
			</g>
			<g>
				<path class="st12" d="M216.5,748.1c-4.8-9.5-0.9-8.8,1.4-10s6.1,1.6,8.4,6.2c2.3,4.6,2.4,9.3,0.1,10.5
					C224,756,221.3,757.6,216.5,748.1z"/>
				<path class="st13" d="M215.3,739.4c2.3-1.2,6.1,1.6,8.4,6.2c2.1,4.1,2.3,8.3,0.8,10c0.7-0.2,1.3-0.5,1.9-0.8
					c2.3-1.2,2.3-5.9-0.1-10.5c-2.3-4.6-6.1-7.4-8.4-6.2c-1,0.5-2.4,0.7-3.1,1.6C214.9,739.6,215.1,739.5,215.3,739.4z"/>
			</g>
			<path class="st5" d="M346.9,328.3c0,0-20.6,4.2-41.5,38c-20.9,33.8-22.9,54.7-22.9,54.7l21.9,23.9c0,0-18.9,22.9-20.9,26.9
				c-2,4-5,6-1,11.9c4,6,47.7,97.5,64.6,126.3c16.9,28.8,49.7,74.6,63.7,93.5c13.9,18.9,14.9,27.8,18.9,37.8c4,9.9,4,26.9,4,26.9
				s3-34.8-3-54.7c-6-19.9-26.9-82.5-32.8-116.4c-6-33.8-42.8-171.1-50.7-203.9c-8-32.8-11.6-39.4-6.5-48.9
				C344.9,336.1,346.9,328.3,346.9,328.3z"/>
			<path class="st5" d="M439.7,767.1c0-11.9,11.9-53.7,26.9-100.5c14.9-46.7,62.7-145.2,67.6-157.1c5-11.9,6-9.9,5-12.9
				c-1-3-7-12.9-14.9-23.9c-8-10.9-17.9-19.9-17.9-19.9l23.9-22.9c0,0-26.8-35.8-41.8-52.7c-17.4-19.6-40-34.2-40-34.2l-1.8,12.4
				c0,0,0,0,9.9,15.9c9.9,15.9,11.2,57.8,12.2,89.6c1,31.8-8,96.9-15.9,131.8c-6.6,29.2-20.1,126.7-20.1,126.7l0.9,82.2h6
				C439.7,791.6,439.7,775.2,439.7,767.1z"/>
			<g>
				<path class="st14" d="M251.6,596.3c3.2-5.8,12.3-19,16.8-28c4.5-9,5-22.6,7.3-27.8c2.2-5.2,13.2-9.8,14.4-16.1
					c0.9-5.3-0.7-18,3-25.4c3.7-7.5,11.9-9,17.2-3.7c5.2,5.2,12.9,22.2,13.2,35.8c0.2,11.2-3,10.7-6,12.9c-3,2.2-4.6,3-4.6,3
					s3.8,4.1,5.8,14.7c1.9,10,0.3,19.2-1,28c-1.3,8.1-6.7,23.3-6.7,27.8s-1.5,11.2-1.5,11.2s10.4,14.2,13.4,20.1
					c3,6,5.4,13.9,4.5,18.6c-0.8,3.8-2.7,6-2.7,6s5.7,2.2,13.2,8.9c7.5,6.7,10.4,13.4,8.2,19.4c-2.2,6-9,9-9,9s6.7,3.7,9.7,10.4
					c3,6.7,1.5,14.9-4.5,19.4s-9.7,2.2-14.2,0.7c-4.5-1.5-14.2-10.4-14.2-10.4s11.2,11.4,13.4,18.1c2.2,6.7,4,12.4-2.2,18.5
					c-5.9,5.8-15.7,1.5-21.6-6.7c-6-8.2-14.9-23.1-19.4-31.3c-4.5-8.2-9-24.6-9-24.6s-5.9-8.1-8.9-13.3c-3-5.2-3.6-14.3-3.6-14.3
					s-14.3-12.1-19-35.7C240.6,626.7,243.4,611.3,251.6,596.3z"/>
				<g class="st6">
					<path class="st15" d="M300.9,579.5c0.6-2.9,1.7-5.7,3.2-8.3c2.3-4,5.4-9,8.2-10.6c1.1-0.7,4.2-1.1,4.9,0
						c0.5,0.7,0.9,1.5,1.5,2.2c-0.1-0.3-0.1-0.7-0.2-1c-2.1-10.6-5.8-14.7-5.8-14.7s1.6-0.8,4.6-3c0.5-0.4,1-0.6,1.4-0.9
						c-2.9,1.1-5.8,2.1-8.9,2.6c-5,0.8-7,1-11.3-0.6c0.3,3.2-0.3,5.8-1.9,9.6c-1.5,3.9-8.2,8.8-10.1,12.5c-4.6,9.2-6,15.4-3.2,22.6
						c1.8,4.7,4.5,8.9,7.3,13c3.6,5.4,7.2,10.9,10.8,16.3c2,3.1,4.1,6.1,6.6,8.8c0.7,0.7,1.4,1.4,2.1,2.1c-0.6-0.8-1-1.3-1-1.3
						s1.5-6.7,1.5-11.2c0-0.7,0.1-1.6,0.4-2.8C301.8,606,297.2,591.5,300.9,579.5z"/>
				</g>
				<g class="st6">
					<path class="st15" d="M329.1,676c-1.7-1-2.9-1.7-3.7-2c0,0-0.8-0.4-0.9-0.4c-9,6-17.4,1-22.8-6.2c-5.7-7.5-10.7-13.7-16.4-20.9
						c-1-1-3-2.5-3.7-3c-7.5-8.2-12.4-19.1-24.1-22.4c-2.6-0.8-3.9-4.2-3.8-7.4c-3.4,6.5,4.1,11.1,8.5,15.9
						c7.4,8,11.8,13.6,16.2,20.6c2.5,4,7.6,8.4,10.7,11.9c4.7,5.5,8.5,7.5,16.2,14.9c1.2,1.1,8.8,6.3,14.2,6.5
						C323.3,683.7,326.8,678.3,329.1,676z"/>
				</g>
				<g class="st6">
					<path class="st15" d="M337.2,710.7c-1.7,1-3.9,0.9-6.2,0.5c-10.7-1.7-19.1-9.6-27.5-16.5c-3.8-3.1-7.8-6.1-12-8.4
						c-2.4-1.3-4.9-2.5-7.2-4c-5.7-3.6-9.9-9-14.6-13.8c-4-4.2-8.3-8-12.8-11.6c-1-0.8-2.1-1.6-2.8-2.8c-1.8-3.1,0.3-5.5-0.7-8.9
						l-0.7,2.5c-0.5,2.9-0.4,3.2-0.9,6.1c-0.1,0.7-0.3,1.5-0.1,2.2c0.2,0.9,0.8,1.7,1.5,2.4c4.1,4.7,9.8,9.9,14,14.7
						c3.4,3.9,6.4,8.4,10.4,11.7c3.6,3,6.6,4.5,10.5,7.2c8.1,5.5,15.7,11.6,23.9,16.9c7.9,5,14.6,7.3,22.5,10.5
						c3.1,0.2,6.9-1.1,9.4-2.5C341.7,714.2,338.5,711.6,337.2,710.7z"/>
				</g>
				<g class="st6">
					<path class="st15" d="M327.3,749.1c0-0.1-0.1-0.2-0.1-0.4c0,0,0-0.1,0-0.1c0-0.1-0.1-0.2-0.1-0.3c0,0,0-0.1-0.1-0.1
						c0-0.1-0.1-0.2-0.1-0.3c0,0,0-0.1,0-0.1c-0.1-0.1-0.1-0.3-0.2-0.4c0,0,0-0.1-0.1-0.1c0-0.1-0.1-0.2-0.2-0.3c0,0,0-0.1-0.1-0.1
						c-0.1-0.1-0.1-0.2-0.2-0.3c0,0,0-0.1-0.1-0.1c-0.1-0.1-0.2-0.3-0.2-0.4c0,0,0,0,0-0.1c-0.1-0.1-0.1-0.2-0.2-0.4
						c0,0-0.1-0.1-0.1-0.1c-0.1-0.1-0.1-0.2-0.2-0.3c0,0-0.1-0.1-0.1-0.1c-0.1-0.1-0.2-0.2-0.2-0.4c0,0,0,0,0-0.1
						c-0.1-0.1-0.2-0.3-0.3-0.4c0,0-0.1-0.1-0.1-0.1c-0.1-0.1-0.1-0.2-0.2-0.3c0-0.1-0.1-0.1-0.1-0.2c-0.1-0.1-0.1-0.2-0.2-0.3
						c0,0-0.1-0.1-0.1-0.1c-0.1-0.1-0.2-0.3-0.3-0.4c0,0,0-0.1-0.1-0.1c-0.1-0.1-0.2-0.2-0.2-0.3c0,0-0.1-0.1-0.1-0.1
						c-0.1-0.1-0.2-0.2-0.2-0.3c0,0-0.1-0.1-0.1-0.1c-0.1-0.1-0.2-0.3-0.3-0.4c0,0,0,0,0,0c-0.1-0.1-0.2-0.3-0.3-0.4
						c0,0-0.1-0.1-0.1-0.1c-0.1-0.1-0.2-0.2-0.3-0.3c0,0-0.1-0.1-0.1-0.1c-0.1-0.1-0.2-0.3-0.3-0.4c0,0,0,0,0,0
						c-0.1-0.1-0.2-0.3-0.3-0.4c0,0,0-0.1-0.1-0.1c-0.1-0.1-0.2-0.2-0.3-0.4c0,0-0.1-0.1-0.1-0.1c-0.1-0.1-0.2-0.2-0.3-0.4
						c0,0,0,0-0.1-0.1c-0.1-0.1-0.2-0.3-0.4-0.4c0,0,0,0,0,0c-0.1-0.1-0.2-0.3-0.3-0.4c0,0,0,0-0.1-0.1c-0.1-0.1-0.2-0.2-0.3-0.4
						c0,0,0,0-0.1-0.1c-0.2-0.3-0.5-0.6-0.7-0.8c0,0,0,0,0,0c-0.1-0.1-0.2-0.2-0.3-0.4c0,0,0,0,0,0c-0.3-0.4-0.7-0.8-1-1.1
						c-0.1-0.1-3.3-3.5-3.5-3.6c-3-1.9-6-4.2-9-6.1c-5.2-3.3-10.2-6.9-15.1-10.6c-2-1.5-13-12.7-20.7-21.7c-4.6-5.5-6.3-15-6.3-15
						s0,0,0,0c0.1,1.1,0.8,9.3,3.6,14.1c3,5.2,8.9,13.3,8.9,13.3s0.1,0.3,0.3,1c4.5,4.6,13.6,15,21.4,19.4
						c3.8,2.2,10.9,8.6,14.3,11.3c5.9,4.8,8.1,9.1,11.8,13.6c2.3,2.8,4.7,3.6,5.8,3.1C328.2,751.9,327.7,750.5,327.3,749.1
						C327.3,749.1,327.3,749.1,327.3,749.1C327.3,749.1,327.3,749.1,327.3,749.1z"/>
				</g>
				<path class="st16" d="M317.6,658.5c0,0-3.2-5.9-6.3-6.7c-3.2-0.8-6.7,1.2-8.3,3.5c-1.6,2.4-2.4,5.5-0.8,7.9
					c1.6,2.4,6.3,5.9,6.3,5.9s-1.6-2,2.4-6.7C314.1,658.5,317.6,658.5,317.6,658.5z"/>
				<path class="st16" d="M333.7,693.5c0,0-6.3-2-9.5-1.6c-3.2,0.4-4.7,3.5-5.1,5.9c-0.4,2.4-0.4,4.3,2.4,6.3
					c2.8,2,10.6,3.5,10.6,3.5s-2.8-1.6-2-7.1C330.9,695.9,333.7,693.5,333.7,693.5z"/>
				<path class="st16" d="M334.4,725.8c0,0-2.6-1.9-6.2-2.8c-3.8-1-7.1,1.3-7.9,3.6c-0.8,2.4-1.2,4.7,0.4,7.1
					c1.6,2.4,7.9,5.5,7.9,5.5s-2-2.8,0.8-7.5C332.2,727.1,334.4,725.8,334.4,725.8z"/>
				<path class="st16" d="M319.4,756.1c-1-1.2-2.7-2.6-4.9-4.3c-2.4-1.8-4.9-1.3-6.9,2.1c-2.2,3.7-0.3,6.4,1.3,8.4
					c1.6,2,4.3,4.2,4.3,4.2s-1.5-1.9,1-5.7C317.2,756.2,319.4,756.1,319.4,756.1z"/>
			</g>
			<g class="st6">
				<g class="st17">
					<path class="st5" d="M617,557.4c0,0,0.3-2.8,0.6-7.1c-0.9,3.5-1.7,7-2.7,10.4c-2.3,8.3-6.1,16.7-13.4,21.3
						c5.9-2.9,12.1-5.1,18.5-6.6C617.7,568,617,557.4,617,557.4z"/>
				</g>
				<g class="st17">
					<path class="st5" d="M621.6,644.8c2,0.6,4,1.9,5.1,3.6c-2.5-16.9-2.5-28.8-1.1-39.5c0.4-2.9,0.5-5.7,0.4-8.4
						c-1.6,17.3-14.2,32.4-18.8,49.5C610.3,645.5,616.4,643.3,621.6,644.8z"/>
				</g>
			</g>
			<g class="st6">
				<path class="st5" d="M585.3,794.1c-2.5-3.2-5.3-6.3-6.7-10.1c-1.3-3.8-0.6-8.8,2.8-10.9c0.3-0.2,0.7-0.4,0.9-0.7
					c0.5-0.8-0.3-1.8-0.9-2.5c-2.8-3.2-4.2-7.6-3.6-11.8c0.5-3.3,2.2-6.4,4.7-8.7c1.7-0.6,3.5-1.2,5.5-1.7
					c-5.1-2.6-10.2-5.2-15.2-7.8c-1.2-0.6-2.4-1.3-3-2.5c-1.2-2.8,2.3-5.8,1.7-8.8c-0.2-1.2-1.1-2.2-1.8-3.2c-0.5-0.8-1-1.6-1.3-2.5
					c0.4-1.7,0.8-3.4,1.2-5.1c1.8-7.9,8.7-16.4,16.6-15.3c-3.5-1.9-5.4-3.5-8.2-6.3c-3.6-4.7-1.9-17.1-2.5-28.2
					c-0.2-3.2,0.7-10.5,2.2-13.3c1.5-2.8,5.4-3.5,8.9-4.1c-5.1-1.9-7.9-4.5-10.5-11.2c-3.4-8.8-3.3-24.3,5.8-25.6
					c-10-11.3-13.1-35.4-11.3-55.9c0.6-6.7,2.2-9.5,3-21.6c1.4-19,4.1-41.8,8.8-60.3c3.3-12.8,7-25.5,10.9-38.1
					c1.6-5.3,4.2-11.2,8.6-13.9c-0.4-0.5-0.7-0.7-0.7-0.7s0-1.8,0-3.4c-2.2-0.6-5-0.1-6.8,1.4c-3,2.4-4.4,6.2-5.6,9.9
					c-4.2,12.7-8.5,25.4-12.7,38.2c0,5-4.2,9-6.1,13.7c-1.2,3.1-1.4,6.4-1.7,9.7c-0.8,12.4-1.5,24.8-2.3,37.3
					c-0.4,6.4-0.9,13.1-4.2,18.6c-5.2,8.6-15.8,11.8-25.5,14.5c8.6,0,17.2,3.1,23.9,8.5c-5.3,2.5-11.1,4.2-17,4.8
					c2.2,0.9,15.4,3.9,17.6,4.7c-2.9,1.7-4.3,2.3-7.2,4c4.3,2.2,0.8,2.8,4.8,4.8c2.6,1.3,1.7,10.2-3.5,15.1c-5.1,5-12.8,6-19.9,6.8
					c7.7,5.2,19.7-1,26.8,5c6.1,5.1,3.2,16-3.4,20.4c-6.7,4.4-15.3,4.3-23.2,4c4.5,4.7,11.7,5.1,18.2,6.2
					c6.4,1.1,13.8,4.6,14.3,11.1c0.3,3.8-1.9,7.3-3.7,10.7c-6.5,12.2-8,26.5-8.9,40.3c-0.2,3.4-0.4,6.9,0.4,10.3
					c0.6,2.7,1.9,5.3,1.8,8.1c-0.2,4.1-3.4,7.4-6.3,10.3c-3.9,3.7-7.8,7.5-11.6,11.2c-4.4,4.3-10.3,8.9-16.1,6.9
					c6.4,6.1,14.2,10.8,22.7,13.5c2.5,0.8,5.1,1.5,7,3.4c1.9,1.8,2.5,5.2,0.5,6.9c5.2,1.1,3,8.7,1.7,13.8c-0.7,2.7-0.7,5-0.4,7.7
					h2.6h32C588.8,798.7,587.1,796.4,585.3,794.1z"/>
			</g>
			<g class="st7">
				<path d="M230.7,752.7c-0.1,0-0.1-0.1-0.2-0.1c0,0,0,0.1,0,0.1C230.6,752.7,230.6,752.7,230.7,752.7z"/>
			</g>
			<g class="st6">
				<path class="st5" d="M251.4,791.3c0.8-1.3,1.9-2.3,2.7-3.6c1.1-2,1.2-4.3,1.9-6.5c1.3-3.9,4.7-6.7,7.2-9.9
					c4.1-5.2,6.8-8.5,6.4-15.1c-6.4,3.2-13.3,3.8-20.4,1.6c-5.5-1.6-10.5-4.1-15.7-6l-13.1,49.7h30.9
					C250,798.2,249.6,794.4,251.4,791.3z"/>
			</g>
			<path class="st18" d="M432.7,719.3c0,0,13.5-97.5,20.1-126.7c2.1-9.4,4.3-21,6.4-33.5c-3.8-15.8-10.3-41.1-19.1-68.9
				c-14.8-46.1-28.3-88.4-28.3-88.4s3.3-4.3,5.1-6.4c1.8-2,5.3-9.2,5.3-9.2s-7.6-9.9-11-13.2c-3.3-3.3-5.6-2.8-5.6-2.8l-9.9,0.3
				c0,0-4.3,2.8-8.4,7.6c-3.5,4.1-4.8,7.6-4.8,7.6c0.5,0.8,12.2,15.8,12.2,15.8s-4.6,1.5-5.9,27s3.6,117.7,3.1,127.4
				c-0.2,3.6-0.4,7.6-0.6,11c3.1,12.9,5.4,23.4,6.5,30c6,33.8,26.9,96.5,32.8,116.4c0.8,2.8,1.5,5.9,2,9.2L432.7,719.3z"/>
			<g class="st19">
				<path class="st15" d="M347.2,296.6l0.1,22.5c1.7,1.6,3.5,4.3,6.1,7.3c2.7,3.1,5.5,6.1,7.7,8.6c1.3,1.5,2.6,3.1,4,4.5
					c4.5,3.2,8.5,5.2,12.2,5.6c6.2,0.6,23.8,1.5,30.1,1.5c3.7,0,8.9-1.5,14.6-3.9c2.2-1.9,4.2-4.1,6.4-5.9c3.5-2.7,6.5-6.2,9.4-9.4
					c0.4-0.6,1.1-1.5,1.6-2.1l-0.8-24.5L347.2,296.6z"/>
			</g>
			<path class="st8" d="M324.2,258.4c0,0,2.2,11.4,8.7,25.1c6.5,13.6,24.5,33.8,31.1,39.2c6.5,5.4,12,6,19.1,7.1
				c7.1,1.1,16.9,0.5,27.2,0c10.4-0.5,15.3-4.4,21.3-12c6-7.6,9.8-15.3,15.8-25.1c6-9.8,10.9-14.2,13.6-22.3
				c2.7-8.2,3.3-18.5,3.3-18.5s1.6,7.1,4.9,6c3.3-1.1,7.6-15.3,8.7-28.9c1.1-13.6,2.7-19.6-0.5-22.3c-3.3-2.7-7.6,0.5-7.6,0.5
				s6-48.5-3.3-75.7c-9.3-27.2-30.6-40.2-62.7-42c-39.2-2.2-63.8,9.8-70.8,16.9c-7.1,7.1-16.3,19.1-19.1,35.4
				c-2.7,16.3-2.2,38.7-1.1,48.5c1.1,9.8,4.4,24,4.4,24s-3.8-5.4-9.3-3.3c-5.4,2.2-6,8.7-4.9,15.8c1.1,7.1,6.5,25.1,9.3,30
				s5.4,6.5,8.2,6.5S324.2,258.4,324.2,258.4z"/>
			<g class="st7">
				<path d="M432.7,719.3c0,0,6.7-48.6,13-87.4c-4.2-2.3-10.5-4.9-15-8c-19.4-13.4-25.4-49.7-28.8-81.6c-1.3-11.6-1.7-27.7-2.5-39.3
					c-2.1-30.7-2.6-47.3-3-78.1c0-2.5,0.9-11.6,2.5-13.4c2.4-2.8,3.7-4.2,7-2.5c3.2,1.7,6.3,3.8,9.8,4.7c-0.1-0.3-0.2-0.6-0.3-0.9
					c0-0.1-0.1-0.3-0.1-0.4c-0.3-0.8-0.5-1.6-0.7-2.3c0-0.1-0.1-0.2-0.1-0.3c-1.6-5.1-2.5-7.9-2.5-7.9s0.1-0.1,0.2-0.3c0,0,0,0,0,0
					c0,0,0-0.1,0.1-0.1c0,0,0.1-0.1,0.1-0.1c0,0,0,0,0,0c0.4-0.6,1.1-1.5,1.9-2.5c-4.8-4.4-16.5-1.9-19.2-8.6
					c-1.7-4.3,2.6-9.2,7.2-9.5c4.6-0.3,8.9,2.6,12,6.1c1.7,1.9,3.2,4,4.5,6.2c0,0,0,0,0,0c1.4-2.3,2.9-5.3,3.5-6.3c0,0,0,0,0,0
					c0.1-0.1,0.1-0.2,0.1-0.2c0,0,0,0,0,0c0,0,0,0,0,0c0,0,0,0,0,0c0,0,0,0,0,0c0,0,0,0,0,0s-0.2-0.2-0.4-0.5
					c-0.1-0.1-0.1-0.2-0.2-0.3c-0.1-0.1-0.1-0.2-0.2-0.3c-0.2-0.3-0.5-0.7-0.9-1.1c-0.2-0.2-0.3-0.4-0.5-0.7c-2-2.6-5.1-6.4-7.3-8.9
					c-0.1-0.1-0.1-0.1-0.2-0.2c-0.3-0.3-0.5-0.6-0.7-0.8c-0.1-0.1-0.1-0.1-0.2-0.2c-0.1-0.1-0.2-0.2-0.3-0.3
					c-0.1-0.1-0.2-0.2-0.3-0.3c-0.2-0.2-0.4-0.4-0.6-0.5c-0.1-0.1-0.2-0.2-0.3-0.2c-0.3-0.2-0.6-0.4-0.8-0.6c-1-0.6-1.8-0.9-2.4-1.1
					c-0.1,0-0.2,0-0.3-0.1c0,0-0.1,0-0.1,0c-0.1,0-0.2,0-0.2,0c0,0-0.1,0-0.1,0c-0.3,0-0.4,0-0.4,0l-9.9,0.3c0,0-0.1,0.1-0.3,0.2
					c-0.1,0.1-0.2,0.1-0.3,0.2c-0.3,0.2-0.7,0.5-1.3,0.9c-0.2,0.1-0.4,0.3-0.5,0.4c-0.1,0.1-0.2,0.2-0.3,0.2c-0.5,0.4-1,0.9-1.6,1.4
					c-0.5,0.4-0.9,0.9-1.4,1.4c-0.2,0.2-0.5,0.5-0.8,0.8c-0.1,0.1-0.3,0.3-0.4,0.4c-0.5,0.5-1,1.1-1.5,1.7c-0.3,0.4-0.6,0.8-0.9,1.1
					c-0.7,0.9-1.2,1.7-1.7,2.5c-1.5,2.4-2.2,4-2.2,4c0.2,0.2,1.4,1.9,3.1,4c0.1,0.1,0.2,0.2,0.3,0.3c0.2,0.2,0.3,0.4,0.5,0.7
					c0.1,0.1,0.2,0.2,0.3,0.3c0.2,0.2,0.4,0.5,0.5,0.7c0.5,0.7,1.1,1.4,1.7,2.2c0.2,0.2,0.4,0.5,0.6,0.7c0.5,0.6,0.9,1.2,1.4,1.8
					c2.2,2.8,4,5.1,4,5.1s-1.4,0.5-2.8,5c0,0.1-0.1,0.3-0.1,0.4c-0.2,0.7-0.4,1.5-0.6,2.3c-0.4,1.7-0.8,3.9-1.2,6.5
					c-0.5,3.4-0.9,7.6-1.1,12.7c-0.5,9.2-0.1,26.9,0.5,46.4c0,0.4,0,0.8,0,1.3c0.1,1.7,0.1,3.4,0.2,5.1c0,0.9,0.1,1.7,0.1,2.6
					c0,1.3,0.1,2.6,0.1,3.9c0,0.4,0,0.9,0,1.3c0,0.9,0.1,1.7,0.1,2.6c0,0.4,0,0.9,0,1.3c0.1,1.7,0.1,3.4,0.2,5.2c0,0.4,0,0.9,0,1.3
					c0,0.9,0.1,1.7,0.1,2.6c0,1.3,0.1,2.5,0.1,3.8c0,0.8,0.1,1.7,0.1,2.5c0,0.4,0,0.8,0,1.2c0.1,3.7,0.3,7.4,0.4,10.9
					c0.1,2.3,0.2,4.6,0.3,6.8c0,0.7,0.1,1.5,0.1,2.2c0.2,4.6,0.3,8.9,0.4,12.5c0,0.8,0.1,1.7,0.1,2.5c0,0.8,0,1.5,0.1,2.3
					c0,0.5,0,1,0,1.4c0,1.1,0,2.2,0.1,3.1c0,1.7,0,3,0,4c0,0.1,0,0.2,0,0.3c0,0.2,0,0.4,0,0.5c-0.2,3.6-0.4,7.6-0.6,11
					c3.1,12.9,5.4,23.4,6.5,30c6,33.8,26.9,96.5,32.8,116.4c0.8,2.8,1.5,5.9,2,9.2L432.7,719.3z"/>
			</g>
			<g>
				<path class="st10" d="M442.2,213c-9.3,5.9-24.6,6.8-33.4,0.1c-0.6,0.3-1,0.3-1.7,0.3c-1.1-0.1-1-1.1-0.6-1.5
					c0.3-0.3,1.4-0.4,1.8-0.6c1.7-1,3.1-3.1,6.2-4.5c9.9-4.2,21.6-2.5,28.2,5.9L442.2,213z"/>
			</g>
			<path class="st20" d="M419,205.4c-0.8,1.1-1.2,2.5-1.2,4c0,3.9,3.2,7,7,7c3.9,0,7-3.2,7-7c0-1.6-0.5-3-1.4-4.2
				C426.8,204.4,422.9,204.5,419,205.4z"/>
			<g>
				<path class="st10" d="M339.8,212.8c9.3,5.9,24.9,7,33.7,0.3c0.5,0.7,1.1,0.7,1.6,0.7c1-0.1,1.5-1.4,0.6-2
					c-0.8-0.5-1.3-0.6-1.7-0.8c-2.3-1.1-3.1-2.9-6.2-4.2c-9.9-4.2-21.6-2.5-28.2,5.9L339.8,212.8z"/>
			</g>
			<path class="st20" d="M363.3,205.4c0.8,1.1,1.2,2.5,1.2,4c0,3.9-3.2,7-7,7c-3.9,0-7-3.2-7-7c0-1.6,0.5-3,1.4-4.2
				C355.5,204.4,359.5,204.5,363.3,205.4z"/>
			<g class="st21">
				<path class="st15" d="M397.7,258.4c-1.7-0.8,1.3-3,3.2-2.8c1.9,0.2,4.4,1.6,4.6,2.4c-0.6,1.1-2.1,1.5-4.9,0.4
					c-0.5,0.2-1-0.3-1.5-0.2C398.7,258.3,398,258.6,397.7,258.4z"/>
			</g>
			<circle cx="424.8" cy="209.7" r="2.6"/>
			<circle cx="357.7" cy="209.9" r="2.6"/>
			<g>
				<path class="st10" d="M428.7,205.7c-0.6,0.1-1.1,0.8-1.4,1.3c-0.4,0.5-0.5,1.3-0.2,1.8c0.5,0.9,1.8,0.9,2.5,0.2
					c0.7-0.7,0.9-2.1,0.3-2.7C429.6,206,429,205.7,428.7,205.7z"/>
			</g>
			<g>
				<path class="st10" d="M361,205.7c-0.6,0.1-1.1,0.8-1.4,1.3c-0.4,0.5-0.5,1.3-0.2,1.8c0.5,0.9,1.8,0.9,2.5,0.2
					c0.7-0.7,0.9-2.1,0.3-2.7C361.9,206,361.3,205.7,361,205.7z"/>
			</g>
			<g class="st6">
				<path class="st15" d="M447,204.7c0.2-2.2-0.8-4.5-2.7-5.5c-0.9-0.5-2-0.7-3-1c-6.6-1.4-13.4-2.3-20.1-2.8
					c-3.9-0.3-7.9-0.4-11.6,0.7c-4,1.2-7.5,4.2-8,7.8c-0.2,1.4,1.5,4,3.4,3.9c0.7,0,1.3-0.4,1.8-0.7c2.4-1.3,4.8-2.7,7.1-4
					c0.9-0.5,1.9-1.1,3-1.3c2-0.4,4,0.6,6,0.9c4.4,0.8,8.8-1.1,13.2-0.7c3.3,0.3,6.4,1.9,8.6,4.4c0.3,0.4,0.8,0.8,1.3,0.6
					c0.2-0.1,0.3-0.3,0.4-0.5C446.7,206,446.9,205.3,447,204.7z"/>
			</g>
			<g class="st21">
				<path class="st15" d="M336.3,257.2c-1.1-4.5-1.9-9.2-1.2-13.8c1.1-6.3,0.8-9.1,2.4-14.7c-4-4.4-5.9-5.7-5.7-12.6
					c0.1-2.6,1.4-5,2.4-7.5c5.4-6,14.1-7,22.1-7c1.9,0,3.9,0.1,5.8,0.3c4.1,1,9,1.8,10.8,3.2c1.5,1.2,2.9,4.3,3.8,5.9
					c0.7,1.2,0.7,2.7,0.6,4.1c-0.3,7-0.6,13.9-0.9,20.9c-0.1,1.7-0.2,3.4-1,4.8c-0.7,1.2-1.9,2-2.9,3c-3.3,3.5-2.9,11.5,0.8,14.5
					c3.5,2.9,8,3.8,10.8,0.6c1.6,0,3.2,0,4.8,0c0.4,0,0.9,0,1.2-0.2c0.8-0.5,0.7-1.7,0-2.3c-0.6-0.6-1.6-0.7-2.5-0.7
					c-2.1,0.1-4.1,0.9-5.8,2.2c-3-0.4-7-1.1-6.2-4.9c1.8-6.5,10.9-7.1,11.2-11.5c0.2-3.2-1-6.4-1.2-9.6c-0.3-4,1-8,2-11.9
					c1-3.9,1.6-8.2,0.2-12c-1.5-3.8-9.6-11.7-13.4-10.3l-4.2,0.5c-0.1-0.1-0.3-0.1-0.4-0.2c-11.5-4.4-24.9-3.8-35.9,1.7l-0.2,0
					c-1-1.6-2.1-3.2-2.5-5.1c-0.7-3.2,1-6.4,2.5-9.4c6.6-13,10.8-27.3,12.1-41.8c0.4-3.8,1.6-8.8,5.4-9.1c1.3-0.1,2.5,0.4,3.7,0.5
					c2.4,0.2,4.6-1.2,6.9-2.2c9.1-4.1,19.6-1.5,29.5-0.4c23.3,2.5,48.9-3.7,69,8.4l0.3-1.8c2.2-1.9,4.3-4,6.3-6.2
					c-0.2-0.5-0.3-1-0.5-1.4c-9.3-27.2-30.6-40.2-62.7-42c-39.2-2.2-63.8,9.8-70.8,16.9c-7.1,7.1-16.3,19.1-19.1,35.4
					c-2.7,16.3-2.2,38.7-1.1,48.5c1.1,9.8,4.4,24,4.4,24s-3.8-5.4-9.3-3.3c-5.4,2.2-6,8.7-4.9,15.8c1.1,7.1,6.5,25.1,9.3,30
					c2.7,4.9,5.4,6.5,8.2,6.5s3.8-4.9,3.8-4.9s2.2,11.4,8.7,25.1c6.5,13.6,24.5,33.8,31.1,39.2c3.6,3,6.9,4.5,10.2,5.4
					C358.8,307.7,342.2,281.8,336.3,257.2z"/>
			</g>
			<path class="st22" d="M463.7,215.9c0,0,6-10.4,8.2-12c2.2-1.6,2.2-1.6,2.2-1.6s6-18.5,3.3-42s-4.9-29.4-4.9-29.4l4.9,4.9
				c0,0-4.9-31.1-36-45.2c-31.1-14.2-36.5-13.6-47.4-13.6c-10.9,0-12,2.2-12,2.2s-0.5-2.2-9.3-2.2c-8.7,0-22.9,13.6-22.9,13.6v3.3
				l-7.1-3.3l-1.1,7.1c0,0-4.9-3.3-15.8,3.3c-10.9,6.5-16.9,19.6-19.1,32.7c-2.2,13.1-1.6,27.2-0.5,38.7c1.1,11.4,4.9,37.1,4.9,37.1
				s7.1,6,8.7,7.1c1.6,1.1,1.6,1.1,1.6,1.1s-0.5-20.7-0.5-23.4c0-2.7,0.8-11.1,1.6-14.7c1.3-5.4,3.1-10,5.6-19
				c2.3-8.6,2.6-15.4,3.7-21.9c1.1-6.5,3.8-13.1,3.8-13.1s12-3.3,17.4-1.6c5.4,1.6,9.8,3.3,9.8,3.3l-4.9-12c0,0,3.8,4.9,12,6.5
				c8.2,1.6,8.2,4.4,28.3,4.9c20.2,0.5,30.5-1.1,37.1-2.2c6.5-1.1,19.1,4.4,19.1,4.4s1.1,15.3,1.1,21.8c0,6.5,3.8,13.1,3.8,13.1
				s0-1.1,0.5,8.7c0.5,9.8,2.7,14.2,3.8,22.9C464.8,203.9,463.7,215.9,463.7,215.9z"/>
			<g class="st4">
				<path d="M432.7,110.6c-20.1-1.7-41.9,0.5-58.9-10.3c-5.4-3.4-10.3-10.8-6.2-15.7c1.2-1.5,3-2.3,4.7-3.2c2.5-1.2,5-2.4,7.6-3.6
					c-1.3-0.4-3.6-0.8-7.2-0.8c-8.7,0-22.9,13.6-22.9,13.6v3.3l-7.1-3.3l-1.1,7.1c0,0-4.9-3.3-15.8,3.3
					c-10.9,6.5-16.9,19.6-19.1,32.7c-2.2,13.1-1.6,27.2-0.5,38.7c1.1,11.4,4.9,37.1,4.9,37.1s7.1,6,8.7,7.1c1.6,1.1,1.6,1.1,1.6,1.1
					s-0.5-20.7-0.5-23.4c0-2.7,0.8-11.1,1.6-14.7c1.3-5.4,3.1-10,5.6-19c2.3-8.6,2.6-15.4,3.7-21.9c1.1-6.5,3.8-13.1,3.8-13.1
					s12-3.3,17.4-1.6c5.4,1.6,9.8,3.3,9.8,3.3l-4.9-12c0,0,3.8,4.9,12,6.5c8.2,1.6,8.2,4.4,28.3,4.9c20.2,0.5,30.5-1.1,37.1-2.2
					c4.7-0.8,12.5,1.8,16.5,3.3c0.5-2.7,0.4-5.3-0.7-7.8C448.3,113.2,439.9,111.2,432.7,110.6z"/>
			</g>
			<g class="st6">
				<path class="st15" d="M464.1,230.3c5.7-3.3,3.2-13.7,9-16.9c2.1-0.5,2,1.4,2.1,4.2c0.1,2.8-1.5,9.8-1.4,12.6
					c0,0.3,0,0.6-0.1,0.8c-0.2,0.3-0.6,0.4-1,0.5c-1.9,0.6-2.9,2.6-3.1,4.5s0.4,3.9,0.7,5.8c0.2,1.1,0.3,2.3-0.1,3.3
					c-0.5,1-1.7,1.7-2.7,1.2c-0.8-0.4-1.1-1.4-1.6-2.2c-0.5-0.8-1.5-1.5-2.2-0.9c-0.2-4-0.4-8.1-0.6-12.1"/>
			</g>
			<path class="st23" d="M361.6,271.4c0,0,9,5.5,32,5.8c25.2,0.3,32.9-6.5,32.9-6.5s-9.3,19.8-32.6,20.1
				C366.3,291.1,361.6,271.4,361.6,271.4z"/>
			<path class="st24" d="M361.6,271.4c0,0,11,6.8,32.4,6.7c26.4-0.1,32.5-7.5,32.5-7.5s-18.2,5.1-37.4,4.1
				C369.8,273.6,361.6,271.4,361.6,271.4z"/>
			<path class="st10" d="M377.8,288.1c4.2,1.7,9.5,2.7,16.1,2.6c6.2-0.1,11.4-1.5,15.6-3.6C407.2,284.5,378.3,284.3,377.8,288.1z"/>
			<path class="st10" d="M410,282.4c5.7-1.6,11.3-5.7,15.2-10.9c-3,1.8-12,5.9-31.6,5.7c-23-0.2-32-5.8-32-5.8s0,0,0,0.1
				C373.4,286.2,394,286.8,410,282.4z"/>
			<path class="st25" d="M383,296.2c3.3,1.7,8,1.2,11.6,1.2c3,0,6-0.4,8.9-1.2c1-0.3,2.3-1.1,3.3-1c-0.4,1.2-3.7,2.1-4.9,2.6
				c-1.9,0.8-4.3,1.3-6.4,1.4c-3.5,0.2-6.9-0.1-10.2-1.3C384.7,297.7,383.2,297.3,383,296.2z"/>
		</g>
		<g class="st7">
			<path d="M441.7,213.9l1.1-1.2c-6.7-8.4-18.4-10.1-28.2-5.9c-3.1,1.3-4.1,3.4-6.5,4l-1.4,1c0,1.1-0.5,1.4,0.6,1.7
				c1.1,0.2,1.2,0.6,1.7-0.4c0.2,0.2,0.5,0.3,0.7,0.5C418.3,204.1,433.7,204.7,441.7,213.9z"/>
		</g>
		<g class="st7">
			<path d="M375.1,213.6c1.1-0.2,0.6-0.5,0.6-1.7l-1.4-1c-2.5-0.6-3.4-2.7-6.5-4c-9.9-4.2-21.6-2.5-28.2,5.9l1.4,1.5
				c0.6,0.3,1.1,0.7,1.7,1c2.6-9.2,14.1-9.5,21.6-8.4c4.1,1.6,7,3.1,9.1,6.4c0,0,0,0,0,0C373.9,214.2,374,213.8,375.1,213.6z"/>
		</g>
		<g>
			<path class="st26" d="M332,199c0,0.7,0.3,1.5,0.9,1.9c0.9,0.6,2.2,0.3,3.3,0.2c4.5-0.5,8.3-2.3,12.9-2.3c2.5,0,5.4,1.2,9.6,1.2
				c4,0,6.1,0.7,10.1,0.9c1.6,0.1,3.3,0.3,4.7-0.5c1.1-0.5,2.2-1.9,1.7-2.9c-2.5-4.7-9.5-2.8-14.7-5.9c-1.6-0.9-5.6-0.9-7.4-1.3
				c-1.4-0.3-6.1,1.4-7.5,1.9c-4.1,1.4-5,1.5-9.1,2.9c-1.3,0.4-2.8,0.9-3.7,2C332.2,197.7,332,198.4,332,199z"/>
		</g>
		<g>
			<path class="st26" d="M407.2,194.4c7.1-0.7,13.5-5.6,20.6-5c5.5,0.4,10,3.9,15.4,5.1c1.9,0.5,4.1,0.6,5.5,1.9
				c1.5,1.3,1.4,4.4-0.6,4.7c-0.5,0.1-1,0-1.5-0.2c-11.8-2.8-24.1-3.7-36.2-2.6l0,0c-1.7,0.2-4.2,0.9-5,0.6c-0.8-0.3-1.3-2-0.7-3.7
				C404.8,195.3,406.6,194.5,407.2,194.4z"/>
		</g>
		<path class="st10" d="M398.9,371.2c0,0-4,0-9.9,10.9c-6,10.9-9,15.9-14.9,23.9c-6,8-10.9,10.9-10.9,10.9s-21.9-53.7-22.9-61.7
			c-1-8-2.7-15.9,0-20.9c2.1-3.9,7.2-8.5,7.2-7.7c0,0.8-0.3,4.9,1.7,8.5c2,3.6,50,34.6,50,34.6s24.2-11,29.8-14.3
			c5.6-3.3,9-7.3,9.8-11.2c1.4-7.3,1-12.1,1-12.1s3.8,0.2,6.8,4.5c3.3,4.8,4.1,11,3.3,18.3c-0.8,7.4-10.4,65-10.4,65
			s-10.2-18.3-16-28.5c-5.9-10.2-11.2-17.6-15.3-18.9S398.9,371.2,398.9,371.2z"/>
		<g class="st27">
			<path d="M387.2,377.5c-2.9,3.2-5.3,7.2-9.3,8.7c-3.8,1.4-8.2,0.1-11.4-2.4c-3.2-2.5-5.5-6-7.7-9.4c-8.4-13.2-17.2-27.8-16.4-43.1
				c-0.8,1-1.6,2.1-2.2,3.2c-2.7,5-1,12.9,0,20.9c1,8,22.9,61.7,22.9,61.7s5-3,10.9-10.9c6-8,9-12.9,14.9-23.9
				c2.4-4.5,4.5-7.1,6.2-8.7C392.3,373.5,389.2,375.3,387.2,377.5z"/>
		</g>
		<g class="st27">
			<path d="M439.3,419.9c0,0,7.5-44.6,9.8-60.3c-3.5,9.4-8.4,18.3-14.6,26.2c-2,2.6-5.1,5.5-8.3,4.4c-1.1-0.4-2-1.2-2.8-2
				c-1.6-1.5-3.3-3-4.9-4.5c1.5,2.3,3.1,4.9,4.7,7.7C429.2,401.6,439.3,419.9,439.3,419.9z"/>
		</g>
	</g>
</g>
</svg>
