<svg xmlns="http://www.w3.org/2000/svg" width="233" height="430" viewBox="0 0 233 430">
  <defs>
    <style>
      .cls-1 {
        fill: #f1f3f5;
      }

      .cls-1, .cls-2 {
        fill-rule: evenodd;
      }

      .cls-2 {
        fill: #c2cbd2;
      }
    </style>
  </defs>
  <path class="cls-1" d="M5,401s-1.624,5.988,11,13,11.519,8.274,15,13,3.519,7.131,47,12h70s35.462-3.19,43-5c0,0,9.6-1.476,14-10a26.694,26.694,0,0,1,13-9s12.462-5.048,13-16V64s-0.3-6.352-5-10c0,0-13.869-22.067-15-30,0,0-.8-8.245-1-11,0,0,2.2-7.245-1-8L115,2S54.952,3.13,42,3,27.077,4.5,25,6s-1.173,6.88,1,8-0.173,10.255-2,12S10.952,47.755,9,52,1.2,70.255,3,85V273Z"/>
  <path class="cls-2" d="M14,412s12.291,6.92,18,16c0,0,6.791,9.67,36,10l62,1s54.665-3.2,64-6a17.38,17.38,0,0,0,11-10s11.415-9.2,16-11c0,0-15.835,4.545-23,5s-48.085,5.67-61,5-45.335.42-54-1c0,0-40.209-1.455-49-5C34,416,18.5,412.375,14,412Z"/>
  <path class="cls-2" d="M21.4,13.219S61.439,7.358,98.915,9.443c0,0,68.1-1.091,83.853.508l32.885,3.384s2.671-5.733-1.01-8.5A703.917,703.917,0,0,0,130.816.083S61.437,1.874,37.39,2.7l-9.559,1s-8.067.04-9.579,4.188C18.252,7.893,18.228,11.785,21.4,13.219Z"/>
</svg>
