<?xml version="1.0" encoding="utf-8"?>
<!-- Generator: Adobe Illustrator 22.0.1, SVG Export Plug-In . SVG Version: 6.00 Build 0)  -->
<svg version="1.1" id="Layer_1" xmlns="http://www.w3.org/2000/svg" xmlns:xlink="http://www.w3.org/1999/xlink" x="0px" y="0px"
	 viewBox="0 0 50 50" style="enable-background:new 0 0 50 50;" xml:space="preserve">
<style type="text/css">
	.st0{fill:#F90000;}
</style>
<g>
	<g>
		<g>
			<path class="st0" d="M25,0C15.8,0,8.3,7.5,8.3,16.7c0,2.8,0.7,5.5,2,7.9l13.8,24.9c0.2,0.3,0.5,0.5,0.9,0.5
				c0.4,0,0.7-0.2,0.9-0.5l13.8-24.9c1.3-2.4,2-5.2,2-7.9C41.7,7.5,34.2,0,25,0z M25,25c-4.6,0-8.3-3.7-8.3-8.3s3.7-8.3,8.3-8.3
				s8.3,3.7,8.3,8.3S29.6,25,25,25z"/>
		</g>
	</g>
</g>
</svg>
