<?xml version="1.0" encoding="utf-8"?>
<!-- Generator: Adobe Illustrator 24.0.0, SVG Export Plug-In . SVG Version: 6.00 Build 0)  -->
<svg version="1.1" id="Layer_1" xmlns="http://www.w3.org/2000/svg" xmlns:xlink="http://www.w3.org/1999/xlink" x="0px" y="0px"
	 viewBox="0 0 512 512" style="enable-background:new 0 0 512 512;" xml:space="preserve">
<style type="text/css">
	.st0{fill:url(#SVGID_1_);}
	.st1{fill:#FFFFFF;}
</style>
<linearGradient id="SVGID_1_" gradientUnits="userSpaceOnUse" x1="462.038" y1="90.3437" x2="43.5534" y2="-312.5129" gradientTransform="matrix(1 0 0 1 0 364)">
	<stop  offset="1.331947e-07" style="stop-color:#08AEEC"/>
	<stop  offset="1" style="stop-color:#20E2AD"/>
</linearGradient>
<path class="st0" d="M488.1,511.8h-464c-13,0-23.8-10.5-23.8-23.8V24C0.4,11.2,10.9,0.2,24.2,0.2H488c13,0,23.8,10.5,23.8,23.8
	v463.8C511.7,501.2,501.2,511.8,488.1,511.8z"/>
<g>
	<path class="st1" d="M383.8,117.7v44.1c0,4.6-3.7,8.3-8.3,8.3H221.1c-4.6,0-8.3-3.7-8.3-8.3v-44.1c0-4.6,3.7-8.3,8.3-8.3h154.3
		C380,109.4,383.8,113.1,383.8,117.7z"/>
	<path class="st1" d="M383.8,350.2v44.1c0,4.6-3.7,8.3-8.3,8.3H221.1c-4.6,0-8.3-3.7-8.3-8.3v-44.1c0-4.6,3.7-8.3,8.3-8.3h154.3
		C380,341.9,383.8,345.7,383.8,350.2z"/>
	<path class="st1" d="M383.8,233.9v44.1c0,4.6-3.7,8.3-8.3,8.3H221.1c-4.6,0-8.3-3.7-8.3-8.3v-44.1c0-4.6,3.7-8.3,8.3-8.3h154.3
		C380,225.6,383.8,229.4,383.8,233.9z"/>
	<path class="st1" d="M375.5,286.4h-44.1c-4.6,0-8.3-3.7-8.3-8.3V117.7c0-4.6,3.7-8.3,8.3-8.3h44.1c4.6,0,8.3,3.7,8.3,8.3v160.4
		C383.8,282.6,380,286.4,375.5,286.4z"/>
	<path class="st1" d="M180.7,402.6h-44.1c-4.6,0-8.3-3.7-8.3-8.3V117.7c0-4.6,3.7-8.3,8.3-8.3h44.1c4.6,0,8.3,3.7,8.3,8.3v276.7
		C189,398.9,185.2,402.6,180.7,402.6z"/>
</g>
</svg>
