<?xml version="1.0" encoding="utf-8"?>
<!-- Generator: Adobe Illustrator 24.0.0, SVG Export Plug-In . SVG Version: 6.00 Build 0)  -->
<svg version="1.1" id="Layer_1" xmlns="http://www.w3.org/2000/svg" xmlns:xlink="http://www.w3.org/1999/xlink" x="0px" y="0px"
	 viewBox="0 0 1280 720" style="enable-background:new 0 0 1280 720;" xml:space="preserve">
<style type="text/css">
	.st0{fill:#FFFFFF;}
	.st1{fill:url(#SVGID_1_);fill-opacity:0.32;}
	.st2{fill:url(#SVGID_2_);fill-opacity:0.43;}
	.st3{fill:url(#SVGID_3_);fill-opacity:0.42;}
	.st4{fill:url(#SVGID_4_);fill-opacity:0.45;}
	.st5{fill:url(#SVGID_5_);}
	.st6{fill:url(#SVGID_6_);}
	.st7{fill:url(#SVGID_7_);fill-opacity:0.23;}
	.st8{fill:url(#SVGID_8_);fill-opacity:0.36;}
</style>
<g>
	<rect x="1.6" y="1" class="st0" width="1280" height="720"/>
</g>
<g>
	
		<linearGradient id="SVGID_1_" gradientUnits="userSpaceOnUse" x1="-133.3716" y1="378.0458" x2="706.6647" y2="1414.0907" gradientTransform="matrix(0 1 -1 0 1415.6625 249.9295)">
		<stop  offset="0" style="stop-color:#00F1CD"/>
		<stop  offset="1" style="stop-color:#0075B7"/>
	</linearGradient>
	<polygon class="st1" points="1.8,155.3 1281.4,341.7 1281.4,720 1.8,720 	"/>
	
		<linearGradient id="SVGID_2_" gradientUnits="userSpaceOnUse" x1="-92.5648" y1="80.169" x2="893.319" y2="1296.0924" gradientTransform="matrix(0 1 -1 0 1415.6625 249.9295)">
		<stop  offset="0" style="stop-color:#00B4D4;stop-opacity:0.3"/>
		<stop  offset="0.1573" style="stop-color:#04A6CD;stop-opacity:0.4101"/>
		<stop  offset="0.4571" style="stop-color:#1080BC;stop-opacity:0.6199"/>
		<stop  offset="0.865" style="stop-color:#22439F;stop-opacity:0.9055"/>
		<stop  offset="1" style="stop-color:#292D95"/>
	</linearGradient>
	<polygon class="st2" points="1281.4,2 1.8,720 1281.4,720 	"/>
	
		<linearGradient id="SVGID_3_" gradientUnits="userSpaceOnUse" x1="-303.9189" y1="818.5905" x2="376.2981" y2="745.626" gradientTransform="matrix(0 1 -1 0 1415.6625 249.9295)">
		<stop  offset="0" style="stop-color:#00ACE4;stop-opacity:0"/>
		<stop  offset="0.438" style="stop-color:#0096D2;stop-opacity:0.438"/>
		<stop  offset="1" style="stop-color:#0075B7"/>
	</linearGradient>
	<polygon class="st3" points="1281.4,2 1.8,46.3 1.8,720 641.6,720 	"/>
	
		<linearGradient id="SVGID_4_" gradientUnits="userSpaceOnUse" x1="-0.729" y1="270.4977" x2="839.3074" y2="1306.5426" gradientTransform="matrix(0 1 -1 0 1415.6625 249.9295)">
		<stop  offset="0" style="stop-color:#00B4D4"/>
		<stop  offset="0.1175" style="stop-color:#0998C7"/>
		<stop  offset="0.3013" style="stop-color:#1471B5"/>
		<stop  offset="0.4841" style="stop-color:#1D54A7"/>
		<stop  offset="0.6633" style="stop-color:#243E9D"/>
		<stop  offset="0.8373" style="stop-color:#283197"/>
		<stop  offset="1" style="stop-color:#292D95"/>
	</linearGradient>
	<polygon class="st4" points="1281.4,341.7 2.6,594.3 1.8,720 1281.4,720 	"/>
	
		<linearGradient id="SVGID_5_" gradientUnits="userSpaceOnUse" x1="89.8616" y1="774.0768" x2="470.0631" y2="774.0768" gradientTransform="matrix(0 1 -1 0 1415.6625 249.9295)">
		<stop  offset="0" style="stop-color:#00ACE4"/>
		<stop  offset="1" style="stop-color:#0075B7"/>
	</linearGradient>
	<polygon class="st5" points="1281.4,720 1.8,720 1.8,339.8 	"/>
	<g>
		
			<linearGradient id="SVGID_6_" gradientUnits="userSpaceOnUse" x1="835.7906" y1="56.4751" x2="9.2585" y2="1438.5453" gradientTransform="matrix(0 1 -1 0 1415.6625 249.9295)">
			<stop  offset="0" style="stop-color:#00F1CD"/>
			<stop  offset="1" style="stop-color:#0075B7"/>
		</linearGradient>
		<polygon class="st6" points="1281.4,593.1 1.8,468.7 1.8,720 1281.4,720 		"/>
	</g>
	
		<linearGradient id="SVGID_7_" gradientUnits="userSpaceOnUse" x1="36.9711" y1="239.9301" x2="877.0075" y2="1275.975" gradientTransform="matrix(0 1 -1 0 1415.6625 249.9295)">
		<stop  offset="0" style="stop-color:#00B4D4"/>
		<stop  offset="5.573583e-02" style="stop-color:#06A2CB"/>
		<stop  offset="0.1812" style="stop-color:#107EBB"/>
		<stop  offset="0.3139" style="stop-color:#1960AD"/>
		<stop  offset="0.454" style="stop-color:#204AA2"/>
		<stop  offset="0.6049" style="stop-color:#253A9B"/>
		<stop  offset="0.7741" style="stop-color:#283096"/>
		<stop  offset="1" style="stop-color:#292D95"/>
	</linearGradient>
	<polygon class="st7" points="1.8,720 1281.4,341.7 1281.4,720 	"/>
	
		<linearGradient id="SVGID_8_" gradientUnits="userSpaceOnUse" x1="85.4104" y1="953.0549" x2="511.0221" y2="1477.976" gradientTransform="matrix(0 1 -1 0 1415.6625 249.9295)">
		<stop  offset="0" style="stop-color:#224370;stop-opacity:0"/>
		<stop  offset="0.2303" style="stop-color:#163257;stop-opacity:0.2303"/>
		<stop  offset="0.5108" style="stop-color:#0A2140;stop-opacity:0.5108"/>
		<stop  offset="0.7739" style="stop-color:#031732;stop-opacity:0.7739"/>
		<stop  offset="1" style="stop-color:#01142D"/>
	</linearGradient>
	<polygon class="st8" points="805.5,720 1.8,46.3 1.8,720 	"/>
</g>
<g>
	<path class="st0" d="M282.5,300.7h27.8l44.8,92.4l-2,2.2v-94.5h21.7v120.5H347l-44.7-90.9l2-2.2v93.1h-21.7V300.7z"/>
	<path class="st0" d="M419.9,417c-6.7-3.7-11.8-8.9-15.5-15.6c-3.6-6.7-5.5-14.5-5.5-23.3v-34.2c0-8.8,1.8-16.6,5.5-23.3
		c3.6-6.7,8.8-11.9,15.5-15.6c6.7-3.7,14.4-5.5,23.1-5.5c8.7,0,16.4,1.8,23.1,5.5c6.7,3.7,11.8,8.9,15.5,15.6
		c3.6,6.7,5.5,14.5,5.5,23.3v34.2c0,8.8-1.8,16.6-5.5,23.3c-3.6,6.7-8.8,11.9-15.5,15.6c-6.7,3.7-14.4,5.5-23.1,5.5
		C434.2,422.5,426.5,420.7,419.9,417z M453.7,397.2c3.1-1.7,5.5-4.2,7.2-7.4c1.7-3.2,2.5-6.9,2.5-11.1v-35.3c0-4.2-0.8-7.9-2.5-11.1
		c-1.7-3.2-4.1-5.7-7.2-7.4c-3.1-1.7-6.7-2.6-10.8-2.6c-4.1,0-7.7,0.9-10.8,2.6c-3.1,1.7-5.5,4.2-7.2,7.4c-1.7,3.2-2.5,6.9-2.5,11.1
		v35.3c0,4.2,0.8,7.9,2.5,11.1c1.7,3.2,4.1,5.7,7.2,7.4c3.1,1.7,6.7,2.6,10.8,2.6C447,399.8,450.6,398.9,453.7,397.2z"/>
	<path class="st0" d="M544.2,300.7h23.4l25.6,80.4l25.6-80.4h23.4L602,421.3h-17.7L544.2,300.7z"/>
	<path class="st0" d="M679,421.3h-23.5V300.7H679V421.3z"/>
	<path class="st0" d="M703.8,300.7h22.7v120.5h-22.7V300.7z M715.3,399.4h28.9c7.5,0,13.2-1.8,17.3-5.4c4.1-3.6,6.1-8.7,6.1-15.3
		v-35.5c0-6.6-2-11.7-6.1-15.3c-4.1-3.6-9.9-5.4-17.3-5.4h-28.9v-21.9h28.4c10.1,0,18.6,1.7,25.7,5.1c7.1,3.4,12.5,8.3,16.2,14.8
		c3.7,6.5,5.6,14.3,5.6,23.4v34.2c0,8.7-1.8,16.2-5.3,22.7c-3.6,6.5-8.9,11.5-16,15.1c-7.1,3.6-15.9,5.4-26.2,5.4h-28.4V399.4z"/>
	<path class="st0" d="M813.6,300.7h22.7v120.5h-22.7V300.7z M821.8,300.7h72.5v21.9h-72.5V300.7z M821.8,350.5h63.4v21.9h-63.4
		V350.5z M821.8,399.4h72.5v21.9h-72.5V399.4z"/>
	<path class="st0" d="M933.5,417c-6.7-3.7-11.8-8.9-15.5-15.6c-3.6-6.7-5.5-14.5-5.5-23.3v-34.2c0-8.8,1.8-16.6,5.5-23.3
		c3.6-6.7,8.8-11.9,15.5-15.6c6.7-3.7,14.4-5.5,23.1-5.5c8.7,0,16.4,1.8,23.1,5.5c6.7,3.7,11.8,8.9,15.5,15.6
		c3.6,6.7,5.5,14.5,5.5,23.3v34.2c0,8.8-1.8,16.6-5.5,23.3c-3.6,6.7-8.8,11.9-15.5,15.6c-6.7,3.7-14.4,5.5-23.1,5.5
		C947.9,422.5,940.2,420.7,933.5,417z M967.4,397.2c3.1-1.7,5.5-4.2,7.2-7.4c1.7-3.2,2.5-6.9,2.5-11.1v-35.3c0-4.2-0.8-7.9-2.5-11.1
		c-1.7-3.2-4.1-5.7-7.2-7.4c-3.1-1.7-6.7-2.6-10.8-2.6c-4.1,0-7.7,0.9-10.8,2.6c-3.1,1.7-5.5,4.2-7.2,7.4c-1.7,3.2-2.5,6.9-2.5,11.1
		v35.3c0,4.2,0.8,7.9,2.5,11.1c1.7,3.2,4.1,5.7,7.2,7.4c3.1,1.7,6.7,2.6,10.8,2.6C960.7,399.8,964.3,398.9,967.4,397.2z"/>
</g>
</svg>
