<?xml version="1.0" encoding="utf-8"?>
<!-- Generator: Adobe Illustrator 19.2.1, SVG Export Plug-In . SVG Version: 6.00 Build 0)  -->
<svg version="1.1" id="Layer_1" xmlns="http://www.w3.org/2000/svg" xmlns:xlink="http://www.w3.org/1999/xlink" x="0px" y="0px"
	 viewBox="0 0 300 500" style="enable-background:new 0 0 300 500;" xml:space="preserve">
<style type="text/css">
	.st0{fill:#5590CC;}
	.st1{opacity:0.6;}
	.st2{fill:#FFFFFF;}
	.st3{opacity:0.4;}
</style>
<rect x="0.1" y="1" class="st0" width="300.3" height="500"/>
<g class="st1">
	<g>
		<g>
			<path class="st2" d="M229.4,188.6H71.1c-4.8,0-8.7,3.9-8.7,8.7v117.1c0,4.8,3.9,8.7,8.7,8.7h158.3c4.8,0,8.7-3.9,8.7-8.7V197.3
				C238.1,192.5,234.2,188.6,229.4,188.6z M231.6,314.4c0,1.2-1,2.2-2.2,2.2H71.1c-1.2,0-2.2-1-2.2-2.2V197.3c0-1.2,1-2.2,2.2-2.2
				h158.3c1.2,0,2.2,1,2.2,2.2L231.6,314.4L231.6,314.4z"/>
		</g>
	</g>
	<g>
		<g>
			<path class="st2" d="M212.4,299.3l-47.7-58.5c-0.6-0.8-1.5-1.2-2.5-1.2c-1,0-1.9,0.4-2.5,1.2l-30.1,36.1l-12.7-14.5
				c-0.6-0.7-1.5-1.1-2.5-1.1s-1.9,0.4-2.5,1.2l-30.4,36.9c-1.1,1.4-0.9,3.4,0.4,4.6c1.4,1.1,3.4,0.9,4.6-0.4l27.9-33.9l12.7,14.5
				c0.6,0.7,1.5,1.1,2.5,1.1c1,0,1.9-0.4,2.5-1.2l30-36l45.2,55.5c1.1,1.4,3.2,1.6,4.6,0.5C213.3,302.8,213.5,300.7,212.4,299.3z"/>
		</g>
	</g>
	<g>
		<g>
			<path class="st2" d="M199,210.3c-8.4,0-15.2,6.8-15.2,15.2c0,8.4,6.8,15.2,15.2,15.2c8.4,0,15.2-6.8,15.2-15.2
				C214.2,217.1,207.4,210.3,199,210.3z M199,234.2c-4.8,0-8.7-3.9-8.7-8.7c0-4.8,3.9-8.7,8.7-8.7c4.8,0,8.7,3.9,8.7,8.7
				C207.7,230.3,203.8,234.2,199,234.2z"/>
		</g>
	</g>
</g>
<g class="st3">
	<path class="st2" d="M73,134.7h-7v4.7h8.2v2.9H62.4v-17.6h11.8v2.9H66v4.2h7V134.7z"/>
	<path class="st2" d="M80,139.5h7.7v2.9H76.4v-17.6H80V139.5z"/>
	<path class="st2" d="M100.4,134.7h-7v4.7h8.2v2.9H89.8v-17.6h11.8v2.9h-8.2v4.2h7V134.7z"/>
	<path class="st2" d="M108.4,124.8l4.5,12.8l4.5-12.8h4.8v17.6h-3.6v-4.8l0.4-8.3l-4.8,13.1h-2.5l-4.7-13.1l0.4,8.3v4.8h-3.6v-17.6
		H108.4z"/>
	<path class="st2" d="M136,134.7h-7v4.7h8.2v2.9h-11.8v-17.6h11.8v2.9H129v4.2h7V134.7z"/>
	<path class="st2" d="M153.7,142.4H150l-7.1-11.6v11.6h-3.6v-17.6h3.6l7.1,11.6v-11.6h3.6V142.4z"/>
	<path class="st2" d="M169.8,127.7h-5.4v14.7h-3.6v-14.7h-5.3v-2.9h14.3V127.7z"/>
	<path class="st2" d="M180.9,136.2v6.2h-3.6v-17.6h6.9c1.3,0,2.5,0.2,3.5,0.7c1,0.5,1.8,1.2,2.3,2.1c0.5,0.9,0.8,1.9,0.8,3
		c0,1.7-0.6,3.1-1.8,4.1s-2.8,1.5-4.9,1.5H180.9z M180.9,133.2h3.2c1,0,1.7-0.2,2.2-0.7c0.5-0.5,0.8-1.1,0.8-1.9
		c0-0.9-0.3-1.6-0.8-2.1c-0.5-0.5-1.2-0.8-2.1-0.8h-3.3V133.2z"/>
	<path class="st2" d="M201,138.7h-6.4l-1.2,3.6h-3.9l6.6-17.6h3.4l6.6,17.6h-3.9L201,138.7z M195.7,135.8h4.4l-2.2-6.6L195.7,135.8z
		"/>
	<path class="st2" d="M221.3,136.5c-0.1,1.9-0.8,3.4-2.1,4.5c-1.3,1.1-2.9,1.6-5,1.6c-2.3,0-4-0.8-5.3-2.3s-1.9-3.6-1.9-6.3V133
		c0-1.7,0.3-3.2,0.9-4.5c0.6-1.3,1.4-2.3,2.6-3c1.1-0.7,2.4-1,3.9-1c2,0,3.7,0.5,4.9,1.6c1.2,1.1,2,2.6,2.2,4.6h-3.6
		c-0.1-1.1-0.4-2-0.9-2.5c-0.5-0.5-1.4-0.8-2.5-0.8c-1.2,0-2.1,0.4-2.7,1.3c-0.6,0.9-0.9,2.2-0.9,4v1.3c0,1.9,0.3,3.3,0.9,4.2
		s1.5,1.3,2.7,1.3c1.1,0,2-0.3,2.5-0.8c0.6-0.5,0.9-1.3,0.9-2.4H221.3z"/>
	<path class="st2" d="M229.2,135.3l-1.9,2v5h-3.6v-17.6h3.6v8l1.6-2.2l4.5-5.8h4.5l-6.3,7.8l6.4,9.8h-4.3L229.2,135.3z"/>
</g>
</svg>
