<?xml version="1.0" encoding="utf-8"?>
<!-- Generator: Adobe Illustrator 24.0.0, SVG Export Plug-In . SVG Version: 6.00 Build 0)  -->
<svg version="1.1" id="Layer_1" xmlns="http://www.w3.org/2000/svg" xmlns:xlink="http://www.w3.org/1999/xlink" x="0px" y="0px"
	 viewBox="0 0 243.3 336.1" style="enable-background:new 0 0 243.3 336.1;" xml:space="preserve">
<style type="text/css">
	.st0{fill:#D1D3D4;}
	.st1{fill:#BCBEC0;}
	.st2{fill:#E6E7E8;}
	.blob {
		animation: pulse 1s infinite;
	}

	@keyframes pulse {
		0% {
			opacity: 0.5;
		}

		50% {
			opacity: 1;
		}

		100% {
			opacity: 0.5;
		}
	}

	.rotating {
		animation: rotate 3s infinite linear;
		transform-origin : center center;
		transform-box: fill-box;
		opacity: 0.3;
	}

	@keyframes rotate {
		0% {
			transform: rotate(0deg);
		}

		100% {
			transform: rotate(359deg);
		}
	}
</style>
<g>
	<rect class="st0" width="243.3" height="336.1"/>
	<rect x="41.1" y="294.8" class="st1 blob" width="161.1" height="12.2"/>
	<rect class="st2" width="243.3" height="266.2"/>
</g>
<g class="rotating">
	<rect x="121.1" y="113.7" width="1.2" height="11"/>
	<rect x="121.1" y="141.7" width="1.2" height="11"/>
	<rect x="111.1" y="117.8" transform="matrix(0.7071 -0.7071 0.7071 0.7071 -54.439 115.1084)" width="1.2" height="11"/>
	<rect x="131" y="137.6" transform="matrix(0.7071 -0.7071 0.7071 0.7071 -62.658 134.9513)" width="1.2" height="11"/>
	<rect x="102.1" y="132.6" width="11" height="1.2"/>
	<rect x="130.2" y="132.6" width="11" height="1.2"/>
	<rect x="106.2" y="142.5" transform="matrix(0.7071 -0.7071 0.7071 0.7071 -68.4702 120.9218)" width="11" height="1.2"/>
	<rect x="126.1" y="122.7" transform="matrix(0.7071 -0.7071 0.7071 0.7071 -48.6278 129.1384)" width="11" height="1.2"/>
</g>
</svg>
