<?xml version="1.0" encoding="utf-8"?>
<!-- Generator: Adobe Illustrator 23.0.2, SVG Export Plug-In . SVG Version: 6.00 Build 0)  -->
<svg version="1.1" id="Layer_1" xmlns="http://www.w3.org/2000/svg" xmlns:xlink="http://www.w3.org/1999/xlink" x="0px" y="0px"
	 viewBox="0 0 1280 720" style="enable-background:new 0 0 1280 720;" xml:space="preserve">
<style type="text/css">
	.st0{display:none;}
	.st1{display:inline;}
	.st2{fill:#FF9800;}
	.st3{fill:#1E87F0;}
	.st4{opacity:0.22;}
	.st5{fill:#FFFFFF;}
	.st6{opacity:0.8;fill:#FFFFFF;enable-background:new    ;}
	.st7{opacity:0.9;fill:#FFFFFF;enable-background:new    ;}
	.st8{fill:none;}
	.st9{opacity:0.18;}
</style>
<g class="st0">
	<g class="st1">
		<polygon class="st2" points="1201.1,264.8 1215,334.6 1112,231 		"/>
	</g>
</g>
<rect x="-5.8" y="-6.3" class="st3" width="1292.8" height="739.1"/>
<g class="st4">
	<polygon class="st5" points="1181.6,443.4 969.9,231.8 943.4,138.7 1181.6,377 	"/>
	<polygon class="st5" points="1287.1,250.9 1287.1,270.2 1010.8,-6.2 1027.9,-6.3 1029.9,-6.2 1286.9,250.7 	"/>
	<polygon class="st5" points="873.6,-6.3 1145.6,265.8 1135.4,173.7 955.4,-6.2 	"/>
	<polygon class="st6" points="1287.1,284.4 1287.1,287.3 1286.9,287 993.6,-6.2 996.5,-6.2 	"/>
	<polygon class="st7" points="1286.9,375.5 905.1,-6.3 813.6,-6 1194.3,376.7 	"/>
	<g>
		<polygon class="st6" points="1272.4,112 1156.3,-5.7 1063,-6.3 1272.4,203.1 		"/>
	</g>
	<polygon class="st5" points="1140.3,205.3 1246.3,311.2 1236.3,241 	"/>
</g>
<line class="st8" x1="955.3" y1="498.5" x2="954.2" y2="499.6"/>
<g class="st9">
	<polygon class="st5" points="208.1,594.3 308.5,694.6 300.5,702.6 192.1,594.3 	"/>
	<polygon class="st5" points="92.2,671.5 92.2,727.1 -0.9,634 -0.9,578.4 	"/>
	<polygon class="st5" points="190.3,576.3 174.3,576.3 -0.9,401.2 -0.9,385.2 	"/>
	<polygon class="st5" points="62.2,578.7 -0.9,515.7 -0.9,447.4 53.6,501.9 55.7,520.5 55.7,521 58.9,549.2 	"/>
	<path class="st6" d="M243.8,661.4c-0.4,0.3-1,0.2-1.5-0.3L139,557.7l-9.7-9.7L-0.9,417.8v-2.4L133,549.3l5.6,5.6l104.9,104.9
		C244,660.4,244.2,661.1,243.8,661.4z"/>
	<polygon class="st7" points="204,694.2 129.9,698.5 -0.9,567 -0.9,489.3 58.9,549.2 	"/>
	<polygon class="st6" points="159.8,442.5 -0.9,280.6 -0.9,357.9 159.8,518.6 	"/>
	<polygon class="st5" points="55,520.3 146.7,612 138.1,551.3 	"/>
	<line class="st5" x1="-0.9" y1="447.4" x2="-0.9" y2="417.8"/>
	<line class="st5" x1="-0.9" y1="415.5" x2="-0.9" y2="401.2"/>
	<line class="st5" x1="-0.9" y1="711" x2="-0.9" y2="634"/>
	<line class="st5" x1="-0.9" y1="578.4" x2="-0.9" y2="567"/>
</g>
</svg>
