<svg width="171" height="106" viewBox="0 0 171 106" fill="none" xmlns="http://www.w3.org/2000/svg">
<rect width="171" height="106" rx="5" fill="#F7F6F7"/>
<path d="M36.625 46.6094L36.9531 51.8594C36.9531 52.1875 37.1875 52.375 37.5156 52.375H39.4375C39.7188 52.375 40 52.1406 40 51.8594L40.3281 46.6094C40.3281 46.2812 40.0938 46 39.7656 46H37.1875C36.8594 46 36.625 46.2812 36.625 46.6094ZM40.4688 55C40.4688 53.9219 39.5781 53.0312 38.5 53.0312C37.375 53.0312 36.5312 53.9219 36.5312 55C36.5312 56.125 37.375 56.9688 38.5 56.9688C39.5781 56.9688 40.4688 56.125 40.4688 55ZM40.4219 38.125C39.5781 36.6719 37.375 36.625 36.5312 38.125L25.2812 57.6719C24.4375 59.125 25.5156 61 27.25 61H49.7031C51.4375 61 52.5156 59.1719 51.6719 57.6719L40.4219 38.125ZM27.4844 58.375L38.2188 39.7188C38.3594 39.5312 38.5938 39.5312 38.7344 39.7188L49.4688 58.375C49.6094 58.5625 49.4688 58.75 49.2344 58.75H27.7188C27.4844 58.75 27.3438 58.5625 27.4844 58.375Z" fill="#D3CED2"/>
<rect x="16" y="4" width="142" height="6" rx="3" fill="white"/>
<rect x="67" y="39" width="52" height="5" rx="2.5" fill="#D3CED2"/>
<rect x="67" y="47" width="78" height="5" rx="2.5" fill="#D3CED2"/>
<rect x="67" y="61" width="51" height="13" rx="3" fill="white"/>
<path d="M77.9093 70.0507L76.5411 68.6849C76.4727 68.6302 76.3906 68.5893 76.3085 68.5893H76.0896C76.459 68.1112 76.6916 67.5102 76.6916 66.841C76.6916 65.2839 75.4055 64 73.8458 64C72.2724 64 71 65.2839 71 66.841C71 68.4117 72.2724 69.682 73.8458 69.682C74.5025 69.682 75.1045 69.4634 75.5971 69.081V69.3132C75.5971 69.3951 75.6244 69.4771 75.6928 69.5454L77.0473 70.8976C77.1842 71.0341 77.3894 71.0341 77.5125 70.8976L77.8956 70.5151C78.0324 70.3922 78.0324 70.1873 77.9093 70.0507ZM73.8458 68.5893C72.8744 68.5893 72.0945 67.8107 72.0945 66.841C72.0945 65.8849 72.8744 65.0927 73.8458 65.0927C74.8035 65.0927 75.5971 65.8849 75.5971 66.841C75.5971 67.8107 74.8035 68.5893 73.8458 68.5893Z" fill="#D3CED2"/>
<path d="M6 8.5L5 7L6 5.5" stroke="#D3CED2" stroke-linecap="round" stroke-linejoin="round"/>
<path d="M10 8.5L11 7L10 5.5" stroke="#D3CED2" stroke-linecap="round" stroke-linejoin="round"/>
<path fill-rule="evenodd" clip-rule="evenodd" d="M165.75 5C165.75 5.27614 165.526 5.5 165.25 5.5L162.25 5.5C161.974 5.5 161.75 5.27614 161.75 5C161.75 4.72386 161.974 4.5 162.25 4.5H165.25C165.526 4.5 165.75 4.72386 165.75 5ZM165.75 7C165.75 7.27614 165.526 7.5 165.25 7.5L162.25 7.5C161.974 7.5 161.75 7.27614 161.75 7C161.75 6.72386 161.974 6.5 162.25 6.5L165.25 6.5C165.526 6.5 165.75 6.72386 165.75 7ZM165.25 9.5C165.526 9.5 165.75 9.27614 165.75 9C165.75 8.72386 165.526 8.5 165.25 8.5L162.25 8.5C161.974 8.5 161.75 8.72386 161.75 9C161.75 9.27614 161.974 9.5 162.25 9.5H165.25Z" fill="#D3CED2"/>
</svg>
