<svg width="171" height="106" viewBox="0 0 171 106" fill="none" xmlns="http://www.w3.org/2000/svg">
<rect width="171" height="106" rx="5" fill="#F7F6F7"/>
<path d="M38 28.375C31.5781 28.375 26.375 33.5781 26.375 40C26.375 46.4219 31.5781 51.625 38 51.625C44.4219 51.625 49.625 46.4219 49.625 40C49.625 33.5781 44.4219 28.375 38 28.375ZM38 49.375C32.7969 49.375 28.625 45.2031 28.625 40C28.625 34.8438 32.7969 30.625 38 30.625C43.1562 30.625 47.375 34.8438 47.375 40C47.375 45.2031 43.1562 49.375 38 49.375ZM40.8594 44.5C41.1406 44.6875 41.4688 44.6406 41.6562 44.3594L42.5469 43.1875C42.7344 42.9062 42.6875 42.5781 42.4062 42.3906L39.3125 40.0938V33.4375C39.3125 33.1562 39.0312 32.875 38.75 32.875H37.25C36.9219 32.875 36.6875 33.1562 36.6875 33.4375V41.1719C36.6875 41.3125 36.7344 41.5 36.875 41.5938L40.8594 44.5Z" fill="#D3CED2"/>
<rect x="16" y="4" width="142" height="6" rx="3" fill="white"/>
<rect x="67" y="30" width="52" height="5" rx="2.5" fill="#D3CED2"/>
<rect x="67" y="65" width="16" height="18" rx="3" fill="#D3CED2"/>
<rect x="86" y="65" width="15" height="18" rx="3" fill="#D3CED2"/>
<rect x="104" y="65" width="15" height="18" rx="3" fill="#D3CED2"/>
<rect x="122" y="65" width="16" height="18" rx="3" fill="#D3CED2"/>
<rect x="67" y="38" width="78" height="5" rx="2.5" fill="#D3CED2"/>
<rect x="67" y="48" width="78" height="9" rx="3" fill="white"/>
<path d="M6 8.5L5 7L6 5.5" stroke="#D3CED2" stroke-linecap="round" stroke-linejoin="round"/>
<rect x="129" y="50" width="14" height="5" rx="2.5" fill="#D3CED2"/>
<path d="M10 8.5L11 7L10 5.5" stroke="#D3CED2" stroke-linecap="round" stroke-linejoin="round"/>
<path fill-rule="evenodd" clip-rule="evenodd" d="M165.75 5C165.75 5.27614 165.526 5.5 165.25 5.5L162.25 5.5C161.974 5.5 161.75 5.27614 161.75 5C161.75 4.72386 161.974 4.5 162.25 4.5H165.25C165.526 4.5 165.75 4.72386 165.75 5ZM165.75 7C165.75 7.27614 165.526 7.5 165.25 7.5L162.25 7.5C161.974 7.5 161.75 7.27614 161.75 7C161.75 6.72386 161.974 6.5 162.25 6.5L165.25 6.5C165.526 6.5 165.75 6.72386 165.75 7ZM165.25 9.5C165.526 9.5 165.75 9.27614 165.75 9C165.75 8.72386 165.526 8.5 165.25 8.5L162.25 8.5C161.974 8.5 161.75 8.72386 161.75 9C161.75 9.27614 161.974 9.5 162.25 9.5H165.25Z" fill="#D3CED2"/>
</svg>
