<svg width="88" height="86" viewBox="0 0 88 86" fill="none" xmlns="http://www.w3.org/2000/svg">
<rect x="0.5" y="1.05981" width="87" height="84" rx="4.5" fill="#DD4A1F" stroke="#DD4A1F"/>
<path d="M25.0724 63.6956C24.3348 63.6956 23.7547 63.9569 23.3322 64.4797C22.9096 65.0025 22.6984 65.724 22.6984 66.6443C22.6984 67.6075 22.9007 68.3362 23.3053 68.8303C23.7135 69.3245 24.3025 69.5715 25.0724 69.5715C25.4054 69.5715 25.7277 69.5393 26.0392 69.4749C26.3507 69.4068 26.6748 69.3209 27.0114 69.217V70.3181C26.3955 70.5509 25.6972 70.6672 24.9166 70.6672C23.7672 70.6672 22.8846 70.3199 22.2687 69.6252C21.6528 68.927 21.3449 67.9298 21.3449 66.6335C21.3449 65.8171 21.4935 65.1028 21.7907 64.4905C22.0914 63.8782 22.5247 63.4091 23.0905 63.0833C23.6562 62.7574 24.3204 62.5945 25.0831 62.5945C25.8852 62.5945 26.6264 62.7628 27.3068 63.0994L26.8449 64.1682C26.5799 64.0429 26.2988 63.9337 26.0016 63.8406C25.708 63.7439 25.3982 63.6956 25.0724 63.6956ZM33.838 67.5789C33.838 68.5492 33.5892 69.3066 33.0914 69.8508C32.5937 70.3951 31.9008 70.6672 31.0128 70.6672C30.4578 70.6672 29.9673 70.5419 29.5411 70.2913C29.115 70.0406 28.7874 69.6807 28.5582 69.2117C28.3291 68.7426 28.2145 68.1983 28.2145 67.5789C28.2145 66.6156 28.4616 65.8637 28.9557 65.323C29.4498 64.7823 30.1463 64.512 31.0451 64.512C31.9044 64.512 32.5848 64.7895 33.0861 65.3445C33.5874 65.8959 33.838 66.6407 33.838 67.5789ZM29.5143 67.5789C29.5143 68.9503 30.021 69.636 31.0343 69.636C32.0369 69.636 32.5382 68.9503 32.5382 67.5789C32.5382 66.2218 32.0333 65.5432 31.0236 65.5432C30.4936 65.5432 30.1087 65.7187 29.8688 66.0696C29.6325 66.4205 29.5143 66.9236 29.5143 67.5789ZM36.5558 70.5598H35.2936V62.2024H36.5558V70.5598ZM42.5553 70.5598L42.3781 69.781H42.3136C42.1382 70.0567 41.8875 70.2734 41.5617 70.4309C41.2394 70.5885 40.8706 70.6672 40.4552 70.6672C39.7355 70.6672 39.1984 70.4882 38.8439 70.1301C38.4894 69.7721 38.3121 69.2296 38.3121 68.5027V64.6194H39.5851V68.2825C39.5851 68.7372 39.6782 69.0792 39.8644 69.3083C40.0506 69.5339 40.3424 69.6467 40.7399 69.6467C41.2698 69.6467 41.6583 69.4892 41.9054 69.1741C42.1561 68.8554 42.2814 68.3236 42.2814 67.5789V64.6194H43.549V70.5598H42.5553ZM50.3541 70.5598H49.0866V66.8967C49.0866 66.442 49.0006 66.1036 48.8287 65.8816C48.6569 65.656 48.3883 65.5432 48.0231 65.5432C47.5361 65.5432 47.178 65.7026 46.9489 66.0212C46.7233 66.3363 46.6105 66.8627 46.6105 67.6003V70.5598H45.3483V64.6194H46.3366L46.5138 65.3982H46.5783C46.743 65.1153 46.9811 64.8969 47.2926 64.7429C47.6077 64.5889 47.9533 64.512 48.3292 64.512C49.2423 64.512 49.8475 64.8235 50.1447 65.4465H50.2306C50.4061 65.1529 50.6531 64.9237 50.9718 64.759C51.2905 64.5943 51.6557 64.512 52.0675 64.512C52.7765 64.512 53.2921 64.691 53.6144 65.0491C53.9402 65.4071 54.1032 65.9532 54.1032 66.6873V70.5598H52.841V66.8967C52.841 66.442 52.7532 66.1036 52.5778 65.8816C52.4059 65.656 52.1373 65.5432 51.7721 65.5432C51.2815 65.5432 50.9217 65.6972 50.6925 66.0051C50.4669 66.3095 50.3541 66.7786 50.3541 67.4124V70.5598ZM61.091 70.5598H59.8234V66.9075C59.8234 66.4491 59.7303 66.1072 59.5441 65.8816C59.3615 65.656 59.0696 65.5432 58.6686 65.5432C58.1351 65.5432 57.7448 65.7008 57.4977 66.0159C57.2506 66.331 57.1271 66.8591 57.1271 67.6003V70.5598H55.8649V64.6194H56.8532L57.0304 65.3982H57.0949C57.2739 65.1153 57.5281 64.8969 57.8576 64.7429C58.187 64.5889 58.5522 64.512 58.9533 64.512C60.3784 64.512 61.091 65.2371 61.091 66.6873V70.5598ZM66.838 68.8679C66.838 69.448 66.6268 69.8938 66.2042 70.2053C65.7817 70.5133 65.1766 70.6672 64.3888 70.6672C63.5975 70.6672 62.9619 70.5473 62.4821 70.3074V69.217C63.1803 69.5393 63.8302 69.7004 64.4318 69.7004C65.2088 69.7004 65.5973 69.4659 65.5973 68.9968C65.5973 68.8464 65.5543 68.7211 65.4684 68.6208C65.3825 68.5206 65.241 68.4167 65.0441 68.3093C64.8471 68.2019 64.5732 68.0802 64.2223 67.9441C63.5384 67.6791 63.0747 67.4141 62.8312 67.1492C62.5913 66.8842 62.4713 66.5404 62.4713 66.1179C62.4713 65.6095 62.6754 65.2156 63.0836 64.9363C63.4954 64.6534 64.054 64.512 64.7594 64.512C65.4576 64.512 66.1183 64.6534 66.7413 64.9363L66.3331 65.887C65.6922 65.622 65.1533 65.4895 64.7164 65.4895C64.0504 65.4895 63.7174 65.6793 63.7174 66.0588C63.7174 66.245 63.8034 66.4026 63.9752 66.5315C64.1507 66.6604 64.5302 66.8376 65.1139 67.0632C65.6045 67.253 65.9607 67.4267 66.1827 67.5842C66.4048 67.7418 66.5695 67.9244 66.6769 68.1321C66.7843 68.3362 66.838 68.5815 66.838 68.8679Z" fill="white"/>
<path fill-rule="evenodd" clip-rule="evenodd" d="M35 24.5598H53C53.55 24.5598 54 25.0098 54 25.5598V39.5598C54 40.1098 53.55 40.5598 53 40.5598H35C34.45 40.5598 34 40.1098 34 39.5598V25.5598C34 25.0098 34.45 24.5598 35 24.5598ZM36 38.5598H40V26.5598H36V38.5598ZM46 38.5598H42V26.5598H46V38.5598ZM48 38.5598H52V26.5598H48V38.5598Z" fill="white"/>
</svg>
