<svg fill="none" height="106" viewBox="0 0 171 106" width="171" xmlns="http://www.w3.org/2000/svg"><rect fill="#f7f6f7" height="106" rx="5" width="171"/><rect fill="#d3ced2" height="7" rx="3" width="20" x="75" y="41"/><rect fill="#fff" height="6" rx="3" width="142" x="16" y="4"/><path d="m6 8.5-1-1.5 1-1.5" stroke="#d3ced2" stroke-linecap="round" stroke-linejoin="round"/><path d="m10 8.5 1-1.5-1-1.5" stroke="#d3ced2" stroke-linecap="round" stroke-linejoin="round"/><g fill="#d3ced2"><path clip-rule="evenodd" d="m165.75 5c0 .27614-.224.5-.5.5h-3c-.276 0-.5-.22386-.5-.5s.224-.5.5-.5h3c.276 0 .5.22386.5.5zm0 2c0 .27614-.224.5-.5.5h-3c-.276 0-.5-.22386-.5-.5s.224-.5.5-.5h3c.276 0 .5.22386.5.5zm-.5 2.5c.276 0 .5-.22386.5-.5s-.224-.5-.5-.5h-3c-.276 0-.5.22386-.5.5s.224.5.5.5z" fill-rule="evenodd"/><rect height="5" rx="2.5" width="55" x="58" y="21"/><rect height="5" rx="2.5" width="81" x="45" y="29"/></g><rect fill="#fff" height="40" rx="5" width="48" x="34" y="55"/><path d="m47.9412 75.4138-8.9412 11.5862h38l-12.2941-16-9.5 12.1379z" fill="#d3ced2"/><rect fill="#fff" height="40" rx="5" width="48" x="89" y="55"/><path d="m102.941 75.4138-8.941 11.5862h38l-12.294-16-9.5 12.1379z" fill="#d3ced2"/></svg>