<svg width="387" height="457" viewBox="0 0 387 457" fill="none" xmlns="http://www.w3.org/2000/svg">
<path opacity="0.4" fill-rule="evenodd" clip-rule="evenodd" d="M191.885 456.516C191.885 456.516 185.209 448.871 57.3045 282.635C-70.5997 116.398 27.2217 -83.2261 247.07 -122.978C117.163 -20.9302 22.341 124.878 110.677 241.345C199.012 357.811 192.248 346.737 192.248 346.737C192.248 346.737 216.096 319.496 275.156 241.218C334.217 162.941 314.124 75.4945 284.404 11.1026C284.404 11.1026 201.279 88.7077 192.16 150.335C183.041 211.962 192.213 268.116 192.213 268.116C192.213 268.116 124.634 182.177 149.037 99.8135C173.44 17.4505 289.101 -92.564 289.101 -92.564L318.751 -59.6886C392.795 34.5085 420.872 163.613 328.254 282.956C235.636 402.3 191.885 456.516 191.885 456.516Z" fill="#EDEBED"/>
</svg>
