<svg width="171" height="106" viewBox="0 0 171 106" fill="none" xmlns="http://www.w3.org/2000/svg">
<rect width="171" height="106" rx="5" fill="#F7F6F7"/>
<path d="M36.5 39.5469V41.7969L37.8594 43.2031C37.5312 41.5625 38.0469 39.9219 39.2188 38.75C40.1562 37.7656 41.4219 37.2969 42.7344 37.2969H42.7812L40.1094 39.9688L40.8125 44.1875L45.0312 44.8906L47.75 42.2188C47.75 43.5312 47.2344 44.8438 46.25 45.7812C45.8281 46.25 45.3125 46.5781 44.7969 46.8125C44.8438 46.8594 44.9375 46.9531 45.0312 47L46.4844 48.4531C46.9531 48.1719 47.4219 47.7969 47.8438 47.375C49.625 45.5938 50.375 42.9688 49.7656 40.5312C49.625 39.9219 49.2031 39.5 48.6406 39.3125C48.0312 39.1719 47.4219 39.3594 47.0469 39.7344L44.2812 42.5L42.7344 42.2656L42.5 40.7188L45.2656 38C45.6875 37.5781 45.8281 36.9688 45.6875 36.4062C45.5 35.8438 45.0781 35.375 44.4688 35.2344C41.9844 34.625 39.4062 35.3281 37.625 37.1562C37.1562 37.625 36.7344 38.1406 36.4062 38.75H36.5V39.5469ZM30.9688 56.2812C30.3594 56.8906 29.2812 56.8906 28.6719 56.2812C28.3906 56 28.2031 55.5781 28.2031 55.1562C28.2031 54.7344 28.3906 54.3594 28.6719 54.0312L35 47.75L33.4062 46.1562L27.125 52.4375C26.375 53.1875 26 54.1719 26 55.1562C26 56.1875 26.375 57.1719 27.125 57.875C27.8281 58.625 28.8125 59 29.8438 59C30.8281 59 31.8125 58.625 32.5625 57.875L37.25 53.1875C36.8281 52.4375 36.5469 51.5938 36.5469 50.7031L30.9688 56.2812ZM49.4844 53.5625L44 48.0781C42.875 47 41.2812 46.7656 39.9688 47.4219L35 42.4531V39.5L29 35L26 38L30.5 44H33.4062L38.375 49.0156C37.7656 50.3281 37.9531 51.9219 39.0312 53L44.5156 58.5312C45.2188 59.1875 46.2969 59.1875 47 58.5312L49.4844 56.0469C50.1406 55.3438 50.1406 54.2656 49.4844 53.5625Z" fill="#D3CED2"/>
<rect x="16" y="4" width="142" height="6" rx="3" fill="white"/>
<rect x="67" y="37" width="52" height="5" rx="2.5" fill="#D3CED2"/>
<rect x="67" y="60" width="16" height="18" rx="3" fill="#D3CED2"/>
<rect x="86" y="60" width="15" height="18" rx="3" fill="#D3CED2"/>
<rect x="104" y="60" width="15" height="18" rx="3" fill="#D3CED2"/>
<rect x="122" y="60" width="16" height="18" rx="3" fill="#D3CED2"/>
<rect x="67" y="45" width="78" height="5" rx="2.5" fill="#D3CED2"/>
<path d="M6 8.5L5 7L6 5.5" stroke="#D3CED2" stroke-linecap="round" stroke-linejoin="round"/>
<path d="M10 8.5L11 7L10 5.5" stroke="#D3CED2" stroke-linecap="round" stroke-linejoin="round"/>
<path fill-rule="evenodd" clip-rule="evenodd" d="M165.75 5C165.75 5.27614 165.526 5.5 165.25 5.5L162.25 5.5C161.974 5.5 161.75 5.27614 161.75 5C161.75 4.72386 161.974 4.5 162.25 4.5H165.25C165.526 4.5 165.75 4.72386 165.75 5ZM165.75 7C165.75 7.27614 165.526 7.5 165.25 7.5L162.25 7.5C161.974 7.5 161.75 7.27614 161.75 7C161.75 6.72386 161.974 6.5 162.25 6.5L165.25 6.5C165.526 6.5 165.75 6.72386 165.75 7ZM165.25 9.5C165.526 9.5 165.75 9.27614 165.75 9C165.75 8.72386 165.526 8.5 165.25 8.5L162.25 8.5C161.974 8.5 161.75 8.72386 161.75 9C161.75 9.27614 161.974 9.5 162.25 9.5H165.25Z" fill="#D3CED2"/>
</svg>
