<svg width="561" height="148" viewBox="0 0 561 148" fill="none" xmlns="http://www.w3.org/2000/svg">
<path fill-rule="evenodd" clip-rule="evenodd" d="M0 13.7429C0 13.7429 2.3216 13.8998 50.0047 20.107C97.6878 26.3142 114.191 74.4808 84.9957 116.519C89.512 78.9575 81.2465 39.9913 48.046 35.4359C14.8455 30.8806 17.7372 31.5785 17.7372 31.5785C17.7372 31.5785 18.2873 39.8516 21.4027 62.0912C24.518 84.3309 41.9512 95.2377 57.2077 100.852C57.2077 100.852 58.1025 74.8246 49.5904 63.3685C41.0783 51.9124 30.4883 44.3043 30.4883 44.3043C30.4883 44.3043 55.3751 47.2775 64.7711 64.5665C74.167 81.8555 73.2517 118.4 73.2517 118.4L63.1157 117.878C35.8419 114.614 10.3615 98.2545 6.02897 63.9307C1.69648 29.607 0 13.7429 0 13.7429Z" fill="black"/>
<path fill-rule="evenodd" clip-rule="evenodd" d="M0 13.7429C0 13.7429 2.3216 13.8998 50.0047 20.107C97.6878 26.3142 114.191 74.4808 84.9957 116.519C89.512 78.9575 81.2465 39.9913 48.046 35.4359C14.8455 30.8806 17.7372 31.5785 17.7372 31.5785C17.7372 31.5785 18.2873 39.8516 21.4027 62.0912C24.518 84.3309 41.9512 95.2377 57.2077 100.852C57.2077 100.852 58.1025 74.8246 49.5904 63.3685C41.0783 51.9124 30.4883 44.3043 30.4883 44.3043C30.4883 44.3043 55.3751 47.2775 64.7711 64.5665C74.167 81.8555 73.2517 118.4 73.2517 118.4L63.1157 117.878C35.8419 114.614 10.3615 98.2545 6.02897 63.9307C1.69648 29.607 0 13.7429 0 13.7429Z" fill="white"/>
<path d="M125.96 109.27C130.225 113.747 141.458 120.514 152.796 120.514C171.206 120.514 181.92 109.687 181.92 97.5054C181.92 69.7074 146.659 72.8307 146.659 58.9838C146.659 53.5699 151.756 51.2794 157.06 51.2794C162.365 51.2794 168.086 54.1946 172.142 58.255L179.319 47.219C177.759 45.5533 169.126 38.0571 156.956 38.0571C143.851 38.0571 131.265 45.5533 131.265 59.6084C131.265 83.6584 166.214 81.0556 166.214 97.7136C166.214 103.44 161.949 107.188 153.94 107.188C145.099 107.188 137.714 102.399 133.657 98.6506L125.96 109.27Z" fill="white"/>
<path d="M234.923 104.273C232.947 106.147 227.226 109.478 219.113 109.478C210.792 109.478 201.847 107.188 200.391 97.2972H240.852V92.0916C240.852 77.0994 232.323 63.9812 215.057 63.9812C198.519 63.9812 186.661 76.0582 186.661 92.2998C186.661 109.374 198.519 120.306 216.097 120.306C227.955 120.306 236.068 116.142 238.876 113.747L234.923 104.273ZM200.391 87.0942C201.951 79.2857 207.36 74.6006 215.161 74.6006C222.546 74.6006 227.122 80.3268 227.226 87.0942H200.391Z" fill="white"/>
<path d="M292.952 104.273C290.975 106.147 285.255 109.478 277.142 109.478C268.82 109.478 259.875 107.188 258.419 97.2972H298.88V92.0916C298.88 77.0994 290.351 63.9812 273.085 63.9812C256.547 63.9812 244.689 76.0582 244.689 92.2998C244.689 109.374 256.547 120.306 274.125 120.306C285.983 120.306 294.096 116.142 296.904 113.747L292.952 104.273ZM258.419 87.0942C259.979 79.2857 265.388 74.6006 273.189 74.6006C280.574 74.6006 285.151 80.3268 285.255 87.0942H258.419Z" fill="white"/>
<path d="M341.827 106.876C338.81 108.75 334.962 109.166 332.049 109.166C324.04 109.166 317.071 102.711 317.071 92.8204C317.071 82.5132 322.48 75.3294 331.009 75.3294C334.962 75.3294 339.434 76.8911 341.827 79.3898V106.876ZM341.827 67.1045C338.498 64.9182 334.338 63.9812 330.593 63.9812C314.263 63.9812 302.717 75.85 302.717 92.8204C302.717 110.832 317.071 120.306 332.049 120.306C339.642 120.306 347.963 118.432 355.452 113.851V39.9312H341.827V67.1045Z" fill="white"/>
<path d="M378.493 118.744V88.8641H384.942C405.64 88.8641 415.21 78.3487 415.21 63.2524C415.21 45.4491 400.856 39.9312 384.838 39.9312H368.508V118.744H378.493ZM378.493 80.0145V48.8849H387.438C397.527 48.8849 404.808 53.674 404.808 63.3565C404.808 73.5595 397.423 80.0145 384.734 80.0145H378.493Z" fill="white"/>
<path d="M431.164 118.744V86.2613C431.476 81.7844 435.012 75.0171 440.941 75.0171C443.853 75.0171 445.933 76.3706 447.286 77.3076L450.926 68.6662C449.574 67.7292 446.35 66.2716 442.189 66.2716C436.26 66.2716 431.892 72.7266 431.164 75.2253V67.521H422.01V118.744H431.164Z" fill="white"/>
<path d="M505.829 93.2368C505.829 78.3487 493.971 66.1675 478.577 66.1675C463.079 66.1675 451.014 78.0364 451.014 93.2368C451.014 108.333 463.079 120.202 478.473 120.202C493.867 120.202 505.829 108.125 505.829 93.2368ZM478.265 112.602C469.008 112.602 460.583 104.585 460.583 93.5491C460.583 82.0968 467.968 73.976 478.473 73.976C488.043 73.976 496.156 81.9926 496.156 93.2368C496.156 104.793 488.875 112.602 478.265 112.602Z" fill="white"/>
<path d="M551.847 108.958C547.79 111.665 542.902 112.498 539.261 112.498C529.484 112.498 520.851 105.73 520.851 93.8615C520.851 81.6803 527.612 74.0801 537.909 74.0801C543.526 74.0801 549.247 76.4747 551.847 80.1186V108.958ZM551.847 70.8526C548.102 67.7292 542.694 66.1675 537.597 66.1675C522.099 66.1675 511.178 77.3076 511.178 93.8615C511.178 111.456 524.907 120.202 539.261 120.202C546.646 120.202 554.343 118.12 561 113.539V39.9312H551.847V70.8526Z" fill="white"/>
</svg>
