<svg width="220" height="30" viewBox="0 0 220 30" fill="none" xmlns="http://www.w3.org/2000/svg">
<path d="M30.546 8.58682L23.1062 22.6839C21.3752 25.9639 17.9711 28.0165 14.2623 28.0165L1.24784 28.0165C0.972891 28.0165 0.75 28.2394 0.75 28.5143C0.75 28.789 0.972401 29.0117 1.24704 29.0122L218.575 29.3634C218.948 29.364 219.25 29.0623 219.25 28.6899C219.25 28.318 218.948 28.0165 218.577 28.0165L210.225 28.0165C206.516 28.0165 203.112 25.9639 201.381 22.6839L193.941 8.58681C191.345 3.66682 186.239 0.587945 180.675 0.587946L43.8119 0.587952C38.2488 0.587952 33.1426 3.66683 30.546 8.58682Z" fill="#7036BB"/>
</svg>
