<?xml version="1.0" encoding="utf-8"?>
<!-- Generator: Adobe Illustrator 22.0.1, SVG Export Plug-In . SVG Version: 6.00 Build 0)  -->
<svg version="1.1" id="Layer_1" xmlns="http://www.w3.org/2000/svg" xmlns:xlink="http://www.w3.org/1999/xlink" x="0px" y="0px"
	 viewBox="0 0 730 194" style="enable-background:new 0 0 730 194;" xml:space="preserve">
<style type="text/css">
	.st0{fill:url(#SVGID_1_);}
	.st1{fill:#230820;}
</style>
<linearGradient id="SVGID_1_" gradientUnits="userSpaceOnUse" x1="-0.8539" y1="177.1898" x2="126.5081" y2="51.3478" gradientTransform="matrix(1 0 0 -1 0 196)">
	<stop  offset="0.1094" style="stop-color:#FFB800"/>
	<stop  offset="0.5104" style="stop-color:#EB5500"/>
	<stop  offset="1" style="stop-color:#6712D2"/>
</linearGradient>
<path class="st0" d="M0,17.9c0,0,3,0.2,65.1,8.3c62,8.1,83.5,71,45.5,125.9c5.9-49-4.9-99.9-48.1-105.9c-43.2-5.9-39.4-5-39.4-5
	s0.7,10.8,4.8,39.8c4.1,29,26.7,43.3,46.6,50.6c0,0,1.2-34-9.9-48.9c-11.1-15-24.9-24.9-24.9-24.9s32.4,3.9,44.6,26.5
	c12.2,22.6,11,70.3,11,70.3l-13.2-0.7c-35.5-4.3-68.6-25.6-74.3-70.4C2.2,38.7,0,17.9,0,17.9z"/>
<path class="st1" d="M163.9,142.7c5.5,5.8,20.2,14.7,34.9,14.7c24,0,37.9-14.1,37.9-30c0-36.3-45.9-32.2-45.9-50.3
	c0-7.1,6.6-10.1,13.5-10.1c6.9,0,14.3,3.8,19.6,9.1l9.3-14.4c-2-2.2-13.3-12-29.1-12c-17.1,0-33.4,9.8-33.4,28.1
	c0,31.4,45.5,28,45.5,49.8c0,7.5-5.5,12.4-16,12.4c-11.5,0-21.1-6.3-26.4-11.1L163.9,142.7z"/>
<path class="st1" d="M305.7,136.2c-2.6,2.4-10,6.8-20.6,6.8c-10.8,0-22.5-3-24.4-15.9h52.7v-6.8c0-19.6-11.1-36.7-33.6-36.7
	c-21.5,0-36.9,15.8-36.9,37c0,22.3,15.4,36.6,38.3,36.6c15.4,0,26-5.4,29.6-8.6L305.7,136.2z M260.8,113.7
	c2-10.2,9.1-16.3,19.2-16.3c9.6,0,15.6,7.5,15.7,16.3H260.8z"/>
<path class="st1" d="M381.2,136.2c-2.6,2.4-10,6.8-20.6,6.8c-10.8,0-22.5-3-24.4-15.9h52.6v-6.8c0-19.6-11.1-36.7-33.6-36.7
	c-21.5,0-36.9,15.8-36.9,37c0,22.3,15.4,36.6,38.3,36.6c15.4,0,26-5.4,29.6-8.6L381.2,136.2z M336.3,113.7
	c2-10.2,9.1-16.3,19.2-16.3c9.6,0,15.6,7.5,15.7,16.3H336.3z"/>
<path class="st1" d="M444.8,139.6c-3.9,2.4-8.9,3-12.7,3c-10.4,0-19.5-8.4-19.5-21.3c0-13.5,7-22.8,18.1-22.8c5.1,0,11,2,14.1,5.3
	V139.6z M444.8,87.6c-4.3-2.9-9.7-4.1-14.6-4.1c-21.2,0-36.3,15.5-36.3,37.7c0,23.5,18.7,35.9,38.2,35.9c9.9,0,20.7-2.4,30.5-8.4
	V52.1h-17.7V87.6z"/>
<path class="st1" d="M492.5,155.1v-39h8.4c26.9,0,39.4-13.7,39.4-33.4c0-23.2-18.7-30.5-39.5-30.5h-21.2v102.9H492.5z M492.5,104.5
	V63.8h11.6c13.1,0,22.6,6.3,22.6,18.9c0,13.3-9.6,21.8-26.1,21.8H492.5z"/>
<path class="st1" d="M561.1,155.1v-42.4c0.4-5.8,5-14.7,12.7-14.7c3.8,0,6.5,1.8,8.3,3l4.7-11.3c-1.8-1.2-6-3.1-11.4-3.1
	c-7.7,0-13.4,8.4-14.3,11.7V88.2h-11.9v66.9H561.1z"/>
<path class="st1" d="M658.2,121.8c0-19.4-15.4-35.3-35.5-35.3c-20.2,0-35.9,15.5-35.9,35.3c0,19.7,15.7,35.2,35.7,35.2
	C642.6,157,658.2,141.2,658.2,121.8z M622.3,147c-12,0-23-10.5-23-24.9c0-15,9.6-25.6,23.3-25.6c12.5,0,23,10.5,23,25.2
	C645.6,136.8,636.1,147,622.3,147z"/>
<path class="st1" d="M718.1,142.3c-5.3,3.5-11.6,4.6-16.4,4.6c-12.7,0-24-8.8-24-24.3c0-15.9,8.8-25.8,22.2-25.8
	c7.3,0,14.8,3.1,18.1,7.9V142.3z M718.1,92.5c-4.9-4.1-11.9-6.1-18.5-6.1c-20.2,0-34.4,14.5-34.4,36.2c0,23,17.9,34.4,36.5,34.4
	c9.6,0,19.6-2.7,28.3-8.7V52.1h-11.9V92.5z"/>
</svg>
