<svg width="20" height="72" viewBox="0 0 20 72" fill="none" xmlns="http://www.w3.org/2000/svg">
<path d="M13.6086 19.5023L10.604 16.9985C8.32409 15.0985 7.00586 12.284 7.00586 9.31625V3.75C7.00586 1.95507 5.55078 0.5 3.75586 0.5C1.96093 0.5 0.505859 1.95507 0.505859 3.75V68.75C0.505859 70.5449 1.96093 72 3.75586 72C5.55078 72 7.00586 70.5449 7.00586 68.75V66.2838C7.00586 63.316 8.32409 60.5015 10.604 58.6015L13.6086 56.0977C17.0285 53.2478 19.0059 49.0261 19.0059 44.5744V31.0256C19.0059 26.5739 17.0285 22.3522 13.6086 19.5023Z" fill="#F7F6F7"/>
</svg>
