<svg width="171" height="106" viewBox="0 0 171 106" fill="none" xmlns="http://www.w3.org/2000/svg">
<rect width="171" height="106" rx="5" fill="#F7F6F7"/>
<rect x="16" y="4" width="142" height="6" rx="3" fill="white"/>
<path d="M6 8.5L5 7L6 5.5" stroke="#D3CED2" stroke-linecap="round" stroke-linejoin="round"/>
<path d="M10 8.5L11 7L10 5.5" stroke="#D3CED2" stroke-linecap="round" stroke-linejoin="round"/>
<path fill-rule="evenodd" clip-rule="evenodd" d="M165.75 5C165.75 5.27614 165.526 5.5 165.25 5.5L162.25 5.5C161.974 5.5 161.75 5.27614 161.75 5C161.75 4.72386 161.974 4.5 162.25 4.5H165.25C165.526 4.5 165.75 4.72386 165.75 5ZM165.75 7C165.75 7.27614 165.526 7.5 165.25 7.5L162.25 7.5C161.974 7.5 161.75 7.27614 161.75 7C161.75 6.72386 161.974 6.5 162.25 6.5L165.25 6.5C165.526 6.5 165.75 6.72386 165.75 7ZM165.25 9.5C165.526 9.5 165.75 9.27614 165.75 9C165.75 8.72386 165.526 8.5 165.25 8.5L162.25 8.5C161.974 8.5 161.75 8.72386 161.75 9C161.75 9.27614 161.974 9.5 162.25 9.5H165.25Z" fill="#D3CED2"/>
<rect x="28" y="23" width="36" height="41" rx="5" fill="white"/>
<rect x="32" y="71" width="28" height="3" rx="1.5" fill="#D3CED2"/>
<path d="M38.5882 49.0345L32 57H60L50.9412 46L43.9412 54.3448L38.5882 49.0345Z" fill="#D3CED2"/>
<rect x="36" y="78" width="20" height="7" rx="3" fill="#D3CED2"/>
<rect x="68" y="23" width="36" height="41" rx="5" fill="white"/>
<rect x="72" y="71" width="28" height="3" rx="1.5" fill="#D3CED2"/>
<path d="M78.5882 49.0345L72 57H100L90.9412 46L83.9412 54.3448L78.5882 49.0345Z" fill="#D3CED2"/>
<rect x="76" y="78" width="20" height="7" rx="3" fill="#D3CED2"/>
<rect x="109" y="23" width="36" height="41" rx="5" fill="white"/>
<rect x="113" y="71" width="28" height="3" rx="1.5" fill="#D3CED2"/>
<path d="M119.588 49.0345L113 57H141L131.941 46L124.941 54.3448L119.588 49.0345Z" fill="#D3CED2"/>
<rect x="117" y="78" width="20" height="7" rx="3" fill="#D3CED2"/>
</svg>
