<?xml version="1.0" encoding="utf-8"?>
<!-- Generator: Adobe Illustrator 16.0.0, SVG Export Plug-In . SVG Version: 6.00 Build 0)  -->
<!DOCTYPE svg PUBLIC "-//W3C//DTD SVG 1.1//EN" "http://www.w3.org/Graphics/SVG/1.1/DTD/svg11.dtd">
<svg version="1.1" id="Layer_1" xmlns="http://www.w3.org/2000/svg" xmlns:xlink="http://www.w3.org/1999/xlink" x="0px" y="0px"
	 width="600px" height="600px" viewBox="0 0 600 600" enable-background="new 0 0 600 600" xml:space="preserve">
<g display="none">
	<line display="inline" fill="none" x1="77.8" y1="482.6" x2="481.5" y2="83"/>
	<polygon display="inline" fill="#FFFFFF" points="91.5,496.2 64.2,469.1 467.8,69.5 495.2,96.5 	"/>
</g>
<g display="none">
	<line display="inline" fill="none" stroke="#757575" stroke-miterlimit="10" x1="109.7" y1="499" x2="488.3" y2="120.4"/>
	
		<rect x="31.268" y="291.492" transform="matrix(-0.7071 0.7071 -0.7071 -0.7071 729.3159 317.1916)" display="inline" fill="#757575" stroke="#757575" stroke-miterlimit="10" width="535.395" height="36.3"/>
</g>
<g>
	<path fill="#757575" d="M539.2,287.7C469.3,196,386.6,147.6,300,147.6c-33.572,0-66.572,7.279-98.465,21.529l41.532,31.497
		c18.764-5.854,37.789-8.827,56.933-8.827c68.2,0,134.8,37.7,193.6,109.301c-16.22,19.723-33.043,36.859-50.328,51.356
		l35.992,27.295c20.812-18.462,40.853-40.243,59.937-65.252l10.2-13.399L539.2,287.7z"/>
	<path fill="#757575" d="M299,213.8c-10.943,0-21.424,2.005-31.102,5.658l119.067,90.297c0.217-2.523,0.335-5.075,0.335-7.654
		C387.3,253.4,347.7,213.8,299,213.8z"/>
	<path fill="#757575" d="M511.629,429.914l-418-317c-12.474-9.46-30.254-7.016-39.714,5.458s-7.017,30.254,5.458,39.714
		l72.357,54.874C106.95,233.302,83.204,258.266,60.8,287.7l-10.2,13.4L60.8,314.5c69.8,91.601,152.6,140,239.2,140
		c38.62,0,76.462-9.636,112.741-28.428l64.63,49.014c5.123,3.885,11.139,5.762,17.107,5.762c8.566,0,17.032-3.867,22.607-11.219
		C526.546,457.154,524.103,439.374,511.629,429.914z M306.555,345.543c-2.456,0.428-4.979,0.657-7.555,0.657
		c-22.802,0-41.641-17.435-43.876-39.661L306.555,345.543z M300,410.3c-68.2,0-134.8-37.699-193.6-109.3
		c19.737-24.04,40.383-44.227,61.682-60.471l46.603,35.343c-2.584,8.29-3.984,17.098-3.984,26.229c0,48.699,39.6,88.3,88.3,88.3
		c17.679,0,34.154-5.225,47.975-14.204l25.803,19.568C348.902,405.378,324.544,410.3,300,410.3z"/>
</g>
</svg>
