<?xml version="1.0" encoding="UTF-8"?>
<svg width="126px" height="77px" viewBox="0 0 126 77" version="1.1" xmlns="http://www.w3.org/2000/svg" xmlns:xlink="http://www.w3.org/1999/xlink">
    <title>Group</title>
    <g id="Page-1" stroke="none" stroke-width="1" fill="none" fill-rule="evenodd">
        <g id="Faq-" transform="translate(-558.000000, -244.000000)">
            <g id="Group" transform="translate(559.000000, 245.186486)">
                <rect id="Rectangle" stroke="#000000" stroke-width="1.3" x="0" y="-2.84217094e-14" width="124" height="24.1297297"></rect>
                <line x1="23.345679" y1="13.0702703" x2="115.197531" y2="13.0702703" id="Line" stroke="#000000" stroke-width="1.5" stroke-linecap="square"></line>
                <g id="title" transform="translate(7.492000, 7.629514)" fill="#000000" fill-rule="nonzero">
                    <g id="+" transform="translate(0.000000, 0.000000)">
                        <polygon id="Path" points="0 3.52 3.52 3.52 3.52 0 5.152 0 5.152 3.52 8.672 3.52 8.672 5.152 5.152 5.152 5.152 8.672 3.52 8.672 3.52 5.152 0 5.152"></polygon>
                    </g>
                </g>
                <rect id="Rectangle" stroke="#000000" stroke-width="1.3" x="0" y="34.1837838" width="124" height="40"></rect>
                <line x1="23.345679" y1="47.2540541" x2="115.197531" y2="47.2540541" id="Line" stroke="#000000" stroke-width="1.5" stroke-linecap="square"></line>
                <line x1="23.345679" y1="55.2540541" x2="115.197531" y2="55.2540541" id="Line" stroke="#000000" stroke-width="1.5" stroke-linecap="square"></line>
                <line x1="23.345679" y1="63.2540541" x2="115.197531" y2="63.2540541" id="Line" stroke="#000000" stroke-width="1.5" stroke-linecap="square"></line>
                <g id="title" transform="translate(9.720000, 44.967514)" fill="#000000" fill-rule="nonzero">
                    <g id="-" transform="translate(0.000000, 0.000000)">
                        <polygon id="Path" points="4.32 0 4.32 1.836 0 1.836 0 0"></polygon>
                    </g>
                </g>
            </g>
        </g>
    </g>
</svg>