<?xml version="1.0" encoding="utf-8"?>
<!-- Generator: Adobe Illustrator 20.0.0, SVG Export Plug-In . SVG Version: 6.00 Build 0)  -->
<svg version="1.0" id="Layer_1" xmlns="http://www.w3.org/2000/svg" xmlns:xlink="http://www.w3.org/1999/xlink" x="0px" y="0px"
	 viewBox="0 0 30 20" enable-background="new 0 0 30 20" xml:space="preserve">
<g>
	<path fill="#0096ED" d="M0,19.8V0h7.3c1.4,0,2.5,0.1,3.5,0.4c1,0.3,1.7,0.6,2.3,1.1c0.6,0.5,1,1,1.3,1.7c0.3,0.7,0.4,1.4,0.4,2.2
		c0,0.4-0.1,0.9-0.2,1.3c-0.1,0.4-0.3,0.8-0.6,1.2c-0.3,0.4-0.6,0.7-1,1c-0.4,0.3-0.9,0.5-1.5,0.8c1.3,0.3,2.3,0.8,2.9,1.5
		c0.6,0.7,0.9,1.6,0.9,2.7c0,0.8-0.2,1.6-0.5,2.3c-0.3,0.7-0.8,1.4-1.4,1.9c-0.6,0.5-1.4,1-2.3,1.3c-0.9,0.3-2,0.5-3.2,0.5H0z
		 M4.6,8.3H7c0.5,0,1,0,1.4-0.1c0.4-0.1,0.8-0.2,1-0.4C9.7,7.7,9.9,7.4,10,7.1c0.1-0.3,0.2-0.7,0.2-1.2c0-0.5-0.1-0.9-0.2-1.2
		C10,4.4,9.8,4.2,9.5,4C9.3,3.8,9,3.6,8.6,3.6C8.2,3.5,7.8,3.4,7.3,3.4H4.6V8.3z M4.6,11.4v4.9h3.2c0.6,0,1.1-0.1,1.5-0.2
		c0.4-0.2,0.7-0.4,0.9-0.6c0.2-0.2,0.4-0.5,0.4-0.8c0.1-0.3,0.1-0.6,0.1-0.9c0-0.4,0-0.7-0.1-1c-0.1-0.3-0.3-0.5-0.5-0.7
		c-0.2-0.2-0.5-0.4-0.9-0.5c-0.4-0.1-0.9-0.2-1.4-0.2H4.6z"/>
	<path fill="#0096ED" d="M22.8,5.5c0.9,0,1.8,0.1,2.6,0.4c0.8,0.3,1.4,0.7,2,1.3c0.6,0.6,1,1.2,1.3,2c0.3,0.8,0.5,1.7,0.5,2.7
		c0,0.3,0,0.6,0,0.8c0,0.2-0.1,0.4-0.1,0.5s-0.2,0.2-0.3,0.2c-0.1,0-0.3,0.1-0.5,0.1H20c0.1,1.2,0.5,2,1.1,2.6
		c0.6,0.5,1.3,0.8,2.2,0.8c0.5,0,0.9-0.1,1.3-0.2c0.4-0.1,0.7-0.2,0.9-0.4c0.3-0.1,0.5-0.3,0.8-0.4c0.2-0.1,0.5-0.2,0.7-0.2
		c0.3,0,0.6,0.1,0.8,0.4l1.2,1.5c-0.4,0.5-0.9,0.9-1.4,1.2c-0.5,0.3-1,0.6-1.5,0.7s-1.1,0.3-1.6,0.4c-0.5,0.1-1,0.1-1.5,0.1
		c-1,0-1.9-0.2-2.8-0.5c-0.9-0.3-1.6-0.8-2.3-1.4c-0.6-0.6-1.2-1.4-1.5-2.4c-0.4-0.9-0.6-2-0.6-3.3c0-0.9,0.2-1.8,0.5-2.7
		c0.3-0.8,0.8-1.6,1.4-2.2C18.3,6.9,19,6.4,19.9,6C20.7,5.7,21.7,5.5,22.8,5.5z M22.8,8.4c-0.8,0-1.4,0.2-1.9,0.7
		c-0.5,0.5-0.8,1.1-0.9,2h5.3c0-0.3,0-0.7-0.1-1c-0.1-0.3-0.2-0.6-0.4-0.8C24.6,9,24.3,8.8,24,8.6C23.7,8.5,23.3,8.4,22.8,8.4z"/>
</g>
</svg>