<svg enable-background="new 0 0 256 256" height="256" viewBox="0 0 256 256" width="256" xmlns="http://www.w3.org/2000/svg"><path d="m-.046 0h256v256h-256z" fill="#1d2428"/><g fill="#fff"><path d="m190.113 65.838c-15.904-15.908-37.885-25.746-62.155-25.746-24.277 0-46.254 9.838-62.162 25.746-15.912 15.908-25.75 37.888-25.75 62.162s9.838 46.254 25.746 62.162c15.908 15.911 37.888 25.746 62.166 25.746 24.274 0 46.255-9.842 62.159-25.746 15.908-15.911 25.746-37.888 25.746-62.162s-9.843-46.254-25.75-62.162zm-2.901 121.419c-15.164 15.164-36.116 24.545-59.257 24.545s-44.097-9.38-59.261-24.545c-15.165-15.164-24.546-36.115-24.546-59.257s9.381-44.093 24.545-59.258c15.164-15.164 36.116-24.545 59.258-24.545s44.093 9.381 59.257 24.545 24.545 36.116 24.545 59.258c.003 23.142-9.377 44.093-24.541 59.257z"/><path d="m203.577 127.267c-.395-41.43-34.097-74.894-75.619-74.894-41.526 0-75.231 33.467-75.619 74.898l34.676-34.676 11.629 11.629-25.376 25.376h109.38l-25.376-25.376 11.629-11.629zm-75.623-12.995-32.222-33.812h21.413v-16.666c0-4.326 4.864-7.872 10.809-7.872s10.809 3.542 10.809 7.872v16.666h21.413z"/><path d="m137.353 164.702c-1.718-1.117-3.894-2.121-6.52-2.992-2.007-.692-3.659-1.344-4.949-1.974-1.278-.623-2.223-1.315-2.828-2.044-.619-.743-.909-1.634-.909-2.655 0-.817.245-1.593.773-2.33.517-.733 1.326-1.344 2.425-1.806 1.11-.469 2.524-.722 4.278-.729 1.414.007 2.703.121 3.872.322 1.154.209 2.176.461 3.051.751.886.3 1.604.582 2.168.85l1.952-5.886c-1.18-.594-2.659-1.084-4.454-1.484-1.524-.337-3.267-.531-5.249-.597v-6.091h-5.366v6.395c-.861.139-1.685.326-2.465.553-1.974.582-3.67 1.392-5.073 2.447-1.392 1.051-2.469 2.282-3.209 3.692-.743 1.41-1.11 2.963-1.124 4.634.011 1.934.516 3.637 1.516 5.11s2.425 2.751 4.264 3.846c1.831 1.091 4.018 2.033 6.545 2.824 1.897.608 3.443 1.242 4.622 1.894 1.18.648 2.044 1.363 2.582 2.143.55.78.82 1.685.81 2.696 0 1.11-.326 2.073-.963 2.905-.63.82-1.56 1.465-2.784 1.923-1.223.462-2.718.689-4.469.703-1.425-.011-2.806-.132-4.154-.363-1.337-.242-2.593-.553-3.751-.941-1.169-.388-2.19-.81-3.077-1.282l-1.886 6.132c.853.469 1.919.89 3.223 1.278 1.304.392 2.74.703 4.311.941 1.56.231 3.165.348 4.795.363l.286-.004v6.296h5.366v-6.802c.681-.132 1.33-.289 1.945-.472 2.154-.648 3.941-1.531 5.355-2.663 1.425-1.121 2.48-2.421 3.179-3.886.696-1.465 1.044-3.015 1.044-4.666 0-1.934-.414-3.645-1.267-5.117-.858-1.489-2.14-2.79-3.865-3.914z"/></g></svg>