<svg xmlns="http://www.w3.org/2000/svg" viewBox="0 0 256 256"><defs><style>.a{fill:#fff;}.c{fill:#7dc242;}.d{fill:#c9c9c9;}</style></defs><rect class="a" x="1.44" y="1.44" width="253.12" height="253.12" rx="49.76"/><path class="c" d="M101.18,176.68A20.74,20.74,0,0,1,80.48,156V129.16A47,47,0,0,1,83.4,112.8L48.05,91.93c0,.36,0,.72,0,1.09v72.27h.07a17.34,17.34,0,0,0,8.7,15L87.1,197.83l.9.56,31.1,18,.25.13v-39.8Z" transform="translate(0 0)"/><path class="d" d="M207.93,93a17.33,17.33,0,0,0-8.71-15L168.9,60.48l-.9-.56L136.9,42a17.35,17.35,0,0,0-17.6-.12L88,59.92l0,0L58.18,77.18c-.2.09-.38.21-.57.31L92.25,97.94A47.39,47.39,0,0,1,128,81.64h26.82a20.72,20.72,0,0,1,20.7,20.69V156a20.74,20.74,0,0,1-20.7,20.7H136.65v39.81s0,0,.06,0L168,198.39l0,0,29.84-17.23A17.41,17.41,0,0,0,208,165.29V93Z" transform="translate(0 0)"/><path class="c" d="M153.11,98.1H128a30.92,30.92,0,0,0-23.23,10.58c-.17.19-.35.36-.52.56a30.77,30.77,0,0,0-5.34,9.2h0c-.14.36-.24.74-.36,1.1A30.85,30.85,0,0,0,97,129.09V154.2a5.89,5.89,0,0,0,5.88,5.88h50.22A5.89,5.89,0,0,0,159,154.2V104A5.88,5.88,0,0,0,153.11,98.1Z" transform="translate(0 0)"/></svg>