<?xml version="1.0" encoding="utf-8"?>
<!-- Generator: Adobe Illustrator 16.0.0, SVG Export Plug-In . SVG Version: 6.00 Build 0)  -->
<!DOCTYPE svg PUBLIC "-//W3C//DTD SVG 1.1//EN" "http://www.w3.org/Graphics/SVG/1.1/DTD/svg11.dtd">
<svg version="1.1" id="Layer_1" xmlns="http://www.w3.org/2000/svg" xmlns:xlink="http://www.w3.org/1999/xlink" x="0px" y="0px"
	 width="52.538px" height="50.106px" viewBox="0 0 52.538 50.106" enable-background="new 0 0 52.538 50.106" xml:space="preserve">
<g opacity="0.2">
	<defs>
		<rect id="SVGID_1_" x="-508.979" y="-99.647" opacity="0.2" width="189" height="115"/>
	</defs>
	<clipPath id="SVGID_2_">
		<use xlink:href="#SVGID_1_"  overflow="visible"/>
	</clipPath>
	<g clip-path="url(#SVGID_2_)">
		
			<image overflow="visible" width="1920" height="2368" xlink:href="../store-locator/store locator sara/store locator sara/Store page - Layout 1.png"  transform="matrix(1 0 0 1 -612.9795 -1229.7563)">
		</image>
	</g>
</g>
<rect x="-3.562" y="-1.526" fill="#454545" width="10.281" height="36.045"/>
<rect x="12.766" y="-1.478" fill="#454545" width="4.815" height="36.044"/>
<rect x="29.322" y="-1.526" fill="#454545" width="4.639" height="36.045"/>
<rect x="44.796" y="-1.602" fill="#454545" width="7.742" height="36.044"/>
<rect x="22.46" y="-1.487" fill="#454545" width="2.688" height="36.044"/>
<rect x="37.98" y="-1.487" fill="#454545" width="2.688" height="36.044"/>
<g>
	<path fill="#464646" d="M9.507,40.819H9.491l-1.045,0.497l-0.21-0.96l1.449-0.674h1.062v5.475H9.507V40.819z"/>
	<path fill="#464646" d="M14.231,45.157v-0.774l0.708-0.641c1.196-1.069,1.777-1.685,1.793-2.324c0-0.447-0.269-0.801-0.901-0.801
		c-0.472,0-0.885,0.236-1.171,0.455l-0.362-0.918c0.413-0.312,1.053-0.564,1.794-0.564c1.238,0,1.92,0.725,1.92,1.718
		c0,0.919-0.665,1.651-1.457,2.358l-0.505,0.422v0.017h2.063v1.053H14.231z"/>
	<path fill="#464646" d="M20.815,43.902c0.228,0.118,0.75,0.337,1.272,0.337c0.665,0,1.002-0.32,1.002-0.733
		c0-0.539-0.539-0.783-1.104-0.783h-0.522v-0.918h0.497c0.43-0.008,0.978-0.168,0.978-0.632c0-0.328-0.27-0.572-0.809-0.572
		c-0.446,0-0.919,0.193-1.146,0.328l-0.262-0.927c0.329-0.21,0.985-0.412,1.693-0.412c1.171,0,1.819,0.615,1.819,1.364
		c0,0.581-0.329,1.036-1.003,1.272v0.017c0.657,0.118,1.188,0.614,1.188,1.331c0,0.968-0.851,1.676-2.241,1.676
		c-0.707,0-1.305-0.186-1.625-0.388L20.815,43.902z"/>
	<path fill="#464646" d="M29.212,45.157v-1.306h-2.426v-0.834l2.072-3.335h1.566v3.209h0.657v0.96h-0.657v1.306H29.212z
		 M29.212,42.891v-1.213c0-0.329,0.018-0.665,0.042-1.02h-0.033c-0.177,0.354-0.32,0.674-0.506,1.02l-0.732,1.196v0.017H29.212z"/>
	<path fill="#464646" d="M36.961,40.735h-2.123l-0.118,0.842c0.118-0.017,0.22-0.017,0.354-0.017c0.521,0,1.053,0.118,1.439,0.396
		c0.413,0.277,0.666,0.732,0.666,1.372c0,1.02-0.876,1.921-2.351,1.921c-0.665,0-1.221-0.151-1.524-0.312l0.228-0.96
		c0.244,0.117,0.741,0.27,1.238,0.27c0.53,0,1.095-0.253,1.095-0.834c0-0.564-0.446-0.91-1.541-0.91
		c-0.304,0-0.514,0.017-0.741,0.051l0.362-2.872h3.016V40.735z"/>
	<path fill="#464646" d="M43.159,40.591c-0.144-0.008-0.295,0-0.497,0.018c-1.138,0.092-1.643,0.674-1.786,1.313h0.025
		c0.27-0.278,0.648-0.438,1.162-0.438c0.919,0,1.693,0.649,1.693,1.786c0,1.087-0.834,1.979-2.021,1.979
		c-1.457,0-2.173-1.087-2.173-2.393c0-1.027,0.379-1.887,0.969-2.434c0.547-0.497,1.255-0.767,2.113-0.809
		c0.236-0.018,0.388-0.018,0.515-0.009V40.591z M42.46,43.337c0-0.506-0.27-0.943-0.817-0.943c-0.346,0-0.632,0.211-0.758,0.488
		c-0.034,0.067-0.051,0.169-0.051,0.32c0.025,0.581,0.304,1.104,0.885,1.104C42.174,44.306,42.46,43.893,42.46,43.337z"/>
</g>
</svg>
