<?xml version="1.0" encoding="utf-8"?>
<!-- Generator: Adobe Illustrator 16.0.0, SVG Export Plug-In . SVG Version: 6.00 Build 0)  -->
<!DOCTYPE svg PUBLIC "-//W3C//DTD SVG 1.1//EN" "http://www.w3.org/Graphics/SVG/1.1/DTD/svg11.dtd">
<svg version="1.1" id="Layer_1" xmlns="http://www.w3.org/2000/svg" xmlns:xlink="http://www.w3.org/1999/xlink" x="0px" y="0px"
	 width="52.538px" height="50.106px" viewBox="0 0 52.538 50.106" enable-background="new 0 0 52.538 50.106" xml:space="preserve">
<g opacity="0.2">
	<defs>
		<rect id="SVGID_1_" x="-577.646" y="-99.647" opacity="0.2" width="189" height="115"/>
	</defs>
	<clipPath id="SVGID_2_">
		<use xlink:href="#SVGID_1_"  overflow="visible"/>
	</clipPath>
	<g clip-path="url(#SVGID_2_)">
		
			<image overflow="visible" width="1920" height="2368" xlink:href="../store-locator/store locator sara/store locator sara/Store page - Layout 1.png"  transform="matrix(1 0 0 1 -681.6455 -1229.7563)">
		</image>
	</g>
</g>
<path fill="#464646" d="M7.687,12.613c0.677,0,1.226-0.549,1.226-1.225V6.078h5.31c0.677,0,1.226-0.549,1.226-1.226
	s-0.549-1.226-1.226-1.226H7.687c-0.677,0-1.226,0.549-1.226,1.226v6.536C6.461,12.064,7.01,12.613,7.687,12.613z"/>
<path fill="#464646" d="M47.063,3.626h-6.535c-0.677,0-1.226,0.549-1.226,1.226s0.549,1.226,1.226,1.226h5.31v5.311
	c0,0.676,0.549,1.225,1.226,1.225s1.226-0.549,1.226-1.225V4.852C48.289,4.175,47.74,3.626,47.063,3.626z"/>
<path fill="#464646" d="M14.222,43.003h-5.31v-5.31c0-0.677-0.549-1.226-1.226-1.226s-1.226,0.549-1.226,1.226v6.535
	c0,0.677,0.549,1.226,1.226,1.226h6.535c0.677,0,1.226-0.549,1.226-1.226C15.447,43.553,14.898,43.003,14.222,43.003z"/>
<path fill="#464646" d="M47.063,36.468c-0.677,0-1.226,0.549-1.226,1.226v5.31h-5.31c-0.677,0-1.226,0.55-1.226,1.226
	c0,0.677,0.549,1.226,1.226,1.226h6.535c0.677,0,1.226-0.549,1.226-1.226v-6.535C48.289,37.017,47.74,36.468,47.063,36.468z"/>
<path fill="#464646" d="M32.276,20.865h9.804c0.677,0,1.226-0.549,1.226-1.227V9.835c0-0.677-0.549-1.226-1.226-1.226h-9.804
	c-0.676,0-1.225,0.549-1.225,1.226v9.803C31.052,20.316,31.601,20.865,32.276,20.865z M33.502,11.06h7.353v7.354h-7.353V11.06z"/>
<path fill="#464646" d="M22.474,28.217H12.67c-0.677,0-1.226,0.549-1.226,1.225v9.804c0,0.677,0.549,1.226,1.226,1.226h9.804
	c0.676,0,1.225-0.549,1.225-1.226v-9.804C23.698,28.766,23.149,28.217,22.474,28.217z M21.248,38.02h-7.353v-7.353h7.353V38.02z"/>
<path fill="#464646" d="M43.306,39.246v-9.804c0-0.676-0.549-1.225-1.226-1.225s-1.226,0.549-1.226,1.225v8.578h-8.578
	c-0.676,0-1.225,0.549-1.225,1.226s0.549,1.226,1.225,1.226h9.804C42.757,40.471,43.306,39.922,43.306,39.246z"/>
<path fill="#464646" d="M22.474,8.61H12.67c-0.677,0-1.226,0.549-1.226,1.226v9.803c0,0.678,0.549,1.227,1.226,1.227h9.804
	c0.676,0,1.225-0.549,1.225-1.227V9.835C23.698,9.159,23.149,8.61,22.474,8.61z M21.248,18.414h-7.353V11.06h7.353V18.414z"/>
<path fill="#464646" d="M27.375,20.865c0.677,0,1.226-0.549,1.226-1.227V9.835c0-0.677-0.549-1.226-1.226-1.226
	s-1.226,0.549-1.226,1.226v9.803C26.149,20.316,26.698,20.865,27.375,20.865z"/>
<path fill="#464646" d="M35.953,24.541c0-0.677-0.549-1.226-1.226-1.226h-7.353c-0.677,0-1.226,0.549-1.226,1.226v14.705
	c0,0.677,0.549,1.226,1.226,1.226s1.226-0.549,1.226-1.226V25.766h6.127C35.404,25.766,35.953,25.217,35.953,24.541z"/>
<path fill="#464646" d="M12.67,25.766h2.451c0.676,0,1.225-0.549,1.225-1.226s-0.549-1.226-1.225-1.226H12.67
	c-0.677,0-1.226,0.549-1.226,1.226S11.993,25.766,12.67,25.766z"/>
<path fill="#464646" d="M35.953,29.442v4.902c0,0.676,0.549,1.226,1.226,1.226c0.676,0,1.226-0.55,1.226-1.226v-4.902
	c0-0.676-0.55-1.225-1.226-1.225C36.502,28.217,35.953,28.766,35.953,29.442z"/>
<path fill="#464646" d="M31.052,29.442v4.902c0,0.676,0.549,1.226,1.225,1.226c0.677,0,1.226-0.55,1.226-1.226v-4.902
	c0-0.676-0.549-1.225-1.226-1.225C31.601,28.217,31.052,28.766,31.052,29.442z"/>
<path fill="#464646" d="M42.08,23.315h-2.451c-0.676,0-1.225,0.549-1.225,1.226s0.549,1.226,1.225,1.226h2.451
	c0.677,0,1.226-0.549,1.226-1.226S42.757,23.315,42.08,23.315z"/>
<circle fill="#464646" cx="37.179" cy="14.737" r="1.226"/>
<circle fill="#464646" cx="17.571" cy="14.737" r="1.226"/>
<circle fill="#464646" cx="17.571" cy="34.344" r="1.226"/>
<path fill="#464646" d="M22.474,23.315h-2.451c-0.677,0-1.226,0.549-1.226,1.226s0.549,1.226,1.226,1.226h2.451
	c0.676,0,1.225-0.549,1.225-1.226S23.149,23.315,22.474,23.315z"/>
</svg>
