<svg width="14" height="10" viewBox="0 0 14 10" fill="none" xmlns="http://www.w3.org/2000/svg">
<path d="M8.7002 0.823242C8.75879 0.764648 8.81738 0.706055 8.93457 0.706055C9.02246 0.706055 9.11035 0.764648 9.16895 0.823242L13.0361 4.69043C13.0947 4.74902 13.1533 4.83691 13.1533 4.9248C13.1533 5.04199 13.0947 5.10059 13.0361 5.15918L9.16895 9.02637C9.11035 9.11426 9.02246 9.14355 8.93457 9.14355C8.81738 9.14355 8.75879 9.11426 8.7002 9.02637L8.11426 8.46973C8.02637 8.41113 7.99707 8.32324 7.99707 8.20605C7.99707 8.11816 8.02637 8.03027 8.11426 7.97168L10.4873 5.68652H0.379883C0.262695 5.68652 0.174805 5.65723 0.116211 5.59863C0.0576172 5.54004 0.0283203 5.45215 0.0283203 5.33496V4.51465C0.0283203 4.42676 0.0576172 4.33887 0.116211 4.28027C0.174805 4.22168 0.262695 4.16309 0.379883 4.16309H10.4873L8.11426 1.87793C8.02637 1.81934 7.99707 1.76074 7.99707 1.64355C7.99707 1.55566 8.02637 1.46777 8.11426 1.37988L8.7002 0.823242Z" fill="white"/>
</svg>
