<svg width="373" height="109" viewBox="0 0 373 109" fill="none" xmlns="http://www.w3.org/2000/svg">
<path d="M91.7888 58.361C91.7888 50.5103 98.1632 44.1359 106.014 44.1359C113.864 44.1359 120.239 50.5103 120.239 58.361V92.112C120.239 97.4799 124.6 101.841 129.968 101.841C135.336 101.841 139.698 97.4799 139.698 92.112V58.361C139.698 39.7744 124.6 24.677 106.014 24.677C96.6199 24.677 88.1654 28.5017 82.0593 34.7419C88.0983 40.848 91.7888 49.1683 91.7888 58.361Z" fill="#20D1CC"/>
<path d="M72.3967 58.361C72.3967 49.1683 76.0871 40.848 82.1261 34.7419C76.02 28.5688 67.5655 24.677 58.1716 24.677C48.7776 24.677 40.3231 28.5017 34.217 34.7419C40.1889 40.7809 43.8794 49.1012 43.9465 58.2939C44.0136 50.4432 50.388 44.1359 58.1716 44.1359C66.0222 44.1359 72.3967 50.5103 72.3967 58.361Z" fill="#05D0E0"/>
<path d="M91.7904 92.1128V58.3617C91.7904 49.1691 88.0999 40.8487 82.061 34.7427C76.0891 40.8487 72.3315 49.1691 72.3315 58.3617V92.1128C72.3315 94.7967 73.4051 97.2123 75.1497 98.9569C76.8943 100.701 79.3099 101.775 81.9939 101.775C87.496 101.842 91.7904 97.4807 91.7904 92.1128Z" fill="#01A9B2"/>
<path d="M10.2634 24.6779C4.8954 24.6779 0.533936 29.0393 0.533936 34.4073C0.533936 39.7752 4.8954 44.1367 10.2634 44.1367C18.114 44.1367 24.4885 50.5112 24.4885 58.2947C24.4885 49.1021 28.1789 40.8488 34.2179 34.7428C28.1118 28.5696 19.5902 24.6779 10.2634 24.6779Z" fill="#0282C9"/>
<path d="M24.4878 58.2932V58.3603V92.1113C24.4878 97.4793 28.8493 101.841 34.2172 101.841C35.8947 101.841 37.438 101.438 38.8471 100.7C41.8666 99.0897 43.9466 95.8689 43.9466 92.1784V58.4274V58.3603C43.9466 49.1676 40.2562 40.9144 34.2172 34.8083C28.1783 40.7802 24.4878 49.1005 24.4878 58.2932Z" fill="#016BB1"/>
<path d="M10.2639 44.1371C15.6373 44.1371 19.9933 39.7811 19.9933 34.4077C19.9933 29.0342 15.6373 24.6782 10.2639 24.6782C4.89044 24.6782 0.534424 29.0342 0.534424 34.4077C0.534424 39.7811 4.89044 44.1371 10.2639 44.1371Z" fill="#06429E"/>
<path d="M34.2172 101.84C39.5906 101.84 43.9466 97.4844 43.9466 92.111C43.9466 86.7376 39.5906 82.3816 34.2172 82.3816C28.8438 82.3816 24.4878 86.7376 24.4878 92.111C24.4878 97.4844 28.8438 101.84 34.2172 101.84Z" fill="#01569A"/>
<path d="M82.1274 101.84C87.5008 101.84 91.8568 97.4844 91.8568 92.111C91.8568 86.7376 87.5008 82.3816 82.1274 82.3816C76.754 82.3816 72.3979 86.7376 72.3979 92.111C72.3979 97.4844 76.754 101.84 82.1274 101.84Z" fill="#008C9D"/>
<path d="M130.035 101.84C135.409 101.84 139.765 97.4844 139.765 92.111C139.765 86.7376 135.409 82.3816 130.035 82.3816C124.662 82.3816 120.306 86.7376 120.306 92.111C120.306 97.4844 124.662 101.84 130.035 101.84Z" fill="#03ABA3"/>
<g clip-path="url(#clip0)">
<path d="M222.706 55.9077C217.16 44.9095 204.188 53.8397 204.188 56.2838C204.188 53.8397 191.122 44.9095 185.575 55.9077C181.251 64.4619 195.916 78.1862 204.188 81.4763C212.366 78.2802 227.03 64.5559 222.706 55.9077Z" fill="#DB3157"/>
</g>
<path d="M330.384 58.7748C348.386 65.2588 359.918 79.6364 355.98 90.631C352.042 101.626 334.603 102.753 316.602 95.9874C298.6 89.2214 286.505 78.2268 290.443 66.9503C294.381 55.6737 312.383 52.2907 330.384 58.7748Z" fill="#F5D10E"/>
<path d="M368.919 31.1481C366.387 24.664 356.824 24.1002 350.917 25.2279C342.76 26.9193 335.728 31.9938 329.822 37.914C330.103 36.7863 330.384 35.9406 330.384 34.8129C330.665 32.5576 330.947 30.3023 330.947 28.3289C331.228 20.7173 329.54 4.64818 319.696 3.23862C312.945 2.11096 307.601 10.2865 305.632 15.9247C302.819 23.8183 303.944 32.8395 306.195 40.7331C308.164 48.6267 311.539 55.9564 318.571 60.749L319.133 61.5947C319.414 61.0309 320.54 62.7224 320.821 62.1585C329.822 63.0043 338.26 59.9032 346.698 56.8022C348.667 55.9564 350.917 55.1107 352.886 54.265C359.637 49.7543 372.575 40.4512 368.919 31.1481Z" fill="white"/>
<path d="M366.387 103.877C363.011 102.467 359.636 101.058 356.261 99.6483C357.105 93.1643 355.698 86.1165 351.479 81.042C350.073 79.3505 348.104 77.659 345.854 77.0952C343.885 76.5314 341.916 76.5314 339.947 76.8133C337.134 71.7389 332.352 66.9463 327.008 64.4091C333.759 63.8453 340.509 61.59 347.541 59.0528C349.791 58.207 351.76 57.3613 354.01 56.2336C356.261 55.106 376.794 44.1113 371.45 30.2976C368.355 21.2763 356.261 21.2763 350.635 22.404C345.291 23.5316 339.666 26.0689 334.04 30.5795C334.04 29.7337 334.04 29.1699 334.321 28.3242C334.321 25.787 334.884 2.38813 320.539 0.13282C311.538 -1.27675 305.35 8.87214 303.381 14.5104C300.85 21.8402 301.131 30.5795 303.662 41.0103C304.506 44.3933 305.913 48.34 307.882 52.0049C307.038 51.723 305.913 51.723 304.787 51.723C302.819 51.723 301.131 52.2868 299.443 52.8507C298.318 48.6219 294.38 45.5209 289.88 44.1113C286.223 42.9837 282.286 43.5475 279.192 45.5209C276.379 47.7762 274.691 50.8773 273.003 54.2602V54.5421C273.003 54.824 273.003 54.8241 272.722 55.106C273.566 52.2868 274.691 50.0315 276.098 47.7762C277.223 46.0847 274.41 44.3932 273.285 46.0847C269.347 52.5687 267.378 60.4623 271.035 67.5102C272.722 70.8931 275.816 73.7123 279.473 75.1218C282.848 76.2495 286.786 75.6857 290.161 73.9942C295.787 71.175 298.881 65.5368 300.006 59.6166C301.975 58.4889 303.944 57.9251 306.194 57.9251C307.038 57.9251 307.319 57.9251 308.163 58.207C308.444 58.207 308.725 58.4889 309.007 58.4889C311.257 59.8985 312.663 61.0261 314.07 63.2815C307.038 65.5368 301.131 71.457 297.756 77.941C294.662 84.425 293.255 95.1377 300.85 99.3664C307.319 102.749 313.226 95.4196 316.038 90.6271C319.976 84.1431 322.226 76.2495 321.383 68.6378C324.758 69.2016 328.415 71.7389 330.946 74.2761C332.352 75.4037 333.477 76.8133 334.321 78.2229C330.665 79.6324 327.289 81.8878 325.039 84.9888C321.945 89.2175 320.539 95.1377 321.101 100.494C321.945 105.568 325.602 109.515 330.946 108.106C336.29 106.696 340.228 100.776 342.197 95.9834C343.885 91.7547 343.885 86.6803 342.478 82.4516C343.322 82.4516 344.166 82.7335 345.01 83.0154L345.572 83.2973C345.854 83.5792 346.416 83.8611 346.697 84.1431C347.541 84.7069 348.104 85.5526 348.666 86.3984C349.791 88.0899 350.354 89.4994 350.916 91.4728C351.76 94.2919 351.76 97.393 351.479 100.212V100.494V100.776V101.058C351.198 102.467 352.042 103.877 353.448 104.441C357.386 106.132 361.324 107.542 365.261 108.951C367.23 109.515 369.199 105.005 366.387 103.877ZM308.725 58.207C309.007 58.4889 309.007 58.4889 308.725 58.207V58.207ZM313.226 81.8878C312.382 84.425 310.694 87.526 309.007 90.0632C308.725 90.3452 308.725 90.6271 308.163 91.1909C307.6 91.7547 307.319 92.0366 306.756 92.6005C306.475 92.8824 306.475 92.8824 306.194 93.1643C306.194 93.1643 305.913 93.1643 305.913 93.4462C305.631 93.4462 305.631 93.7281 305.35 93.7281C305.35 93.7281 305.069 93.7281 304.787 94.01L303.944 94.2919H303.662L303.381 94.01C303.381 94.01 302.819 93.7281 302.819 93.4462C302.819 93.4462 301.975 92.6005 302.256 92.8824C301.412 91.7547 301.131 91.1909 300.85 89.7813C300.85 89.2175 300.85 89.7813 300.85 89.2175C300.85 88.9356 300.85 88.6537 300.85 88.0899C300.85 87.8079 300.85 87.2441 300.85 86.9622C300.85 86.9622 300.85 85.8345 300.85 86.1165C301.693 79.9144 306.194 73.7123 311.538 70.3293C312.663 69.4836 314.07 68.9197 315.195 68.6378C315.195 69.7655 315.195 70.8931 315.195 72.3027C314.913 75.4037 314.351 78.7867 313.226 81.8878ZM321.383 58.4889L321.101 58.207L320.539 57.6432C315.195 54.2602 311.819 48.622 309.569 39.3188C307.038 30.0157 307.038 22.404 309.007 16.2019C310.413 11.4094 314.913 4.92535 319.695 5.48918C327.008 6.61683 328.977 19.3029 328.696 27.7603C328.696 29.7337 328.415 31.9891 328.133 33.9624C327.852 35.0901 327.852 35.9358 327.571 37.0635L325.321 46.6486L332.352 39.8826C339.103 33.1167 345.572 29.1699 352.042 28.0423C357.105 27.1965 364.98 27.7603 366.668 32.271C369.199 39.0369 359.355 47.2124 351.76 51.1592C349.791 52.0049 348.104 52.8507 346.135 53.6964C337.134 56.5155 329.258 59.0527 321.383 58.4889ZM335.165 96.2653C334.04 97.9568 332.915 99.6483 331.227 101.058C330.665 101.622 329.821 101.904 329.258 102.186C328.696 102.186 328.415 102.186 328.133 102.186C328.133 102.186 327.571 101.904 327.852 101.904C327.852 101.904 327.571 101.34 327.289 101.058C327.289 100.776 326.727 99.6483 326.727 99.0845C326.446 97.1111 326.727 95.1377 327.289 93.1643C328.415 88.9356 330.946 85.8345 334.884 83.8611C335.446 83.5792 336.009 83.2973 336.571 83.0154C337.978 87.2441 337.697 92.0366 335.165 96.2653Z" fill="black"/>
<defs>
<clipPath id="clip0">
<rect width="38.7288" height="31.0206" fill="white" transform="translate(184.823 50.5496)"/>
</clipPath>
</defs>
</svg>
