<svg width="144" height="35" viewBox="0 0 144 35" fill="none" xmlns="http://www.w3.org/2000/svg">
<g clip-path="url(#clip0_302:44)">
<path fill-rule="evenodd" clip-rule="evenodd" d="M111.466 15.4189C111.035 18.2425 108.871 18.2426 106.778 18.2426H105.587L106.422 12.9706C106.473 12.6521 106.748 12.4173 107.072 12.4173H107.618C109.043 12.4173 110.389 12.4173 111.083 13.2262C111.498 13.7102 111.623 14.4275 111.466 15.4189ZM110.555 8.05225H102.661C102.122 8.05225 101.662 8.44361 101.578 8.97497L98.3865 29.1452C98.3234 29.543 98.632 29.9029 99.0365 29.9029H103.086C103.464 29.9029 103.786 29.6289 103.845 29.2569L104.75 23.5389C104.834 23.0075 105.293 22.6161 105.833 22.6161H108.331C113.53 22.6161 116.531 20.1085 117.315 15.1389C117.668 12.9653 117.33 11.2574 116.308 10.0617C115.186 8.7473 113.196 8.05225 110.555 8.05225Z" fill="#2790C3"/>
<path fill-rule="evenodd" clip-rule="evenodd" d="M55.1659 15.4189C54.7345 18.2425 52.5704 18.2426 50.4777 18.2426H49.2867L50.1218 12.9706C50.1726 12.6521 50.4482 12.4173 50.7718 12.4173H51.3178C52.7425 12.4173 54.0885 12.4173 54.7821 13.2262C55.1975 13.7102 55.3231 14.4275 55.1659 15.4189ZM54.2552 8.05225H46.3613C45.8217 8.05225 45.3623 8.44361 45.2782 8.97497L42.086 29.1452C42.0232 29.543 42.3319 29.9029 42.7359 29.9029H46.505C47.0446 29.9029 47.5044 29.5115 47.5885 28.9805L48.4498 23.5389C48.5336 23.0075 48.9933 22.6161 49.5329 22.6161H52.0308C57.23 22.6161 60.2309 20.1085 61.0153 15.1389C61.3683 12.9653 61.0295 11.2574 60.0081 10.0617C58.8853 8.7473 56.8958 8.05225 54.2552 8.05225Z" fill="#27346A"/>
<path fill-rule="evenodd" clip-rule="evenodd" d="M72.5807 22.66C72.2157 24.8123 70.5011 26.2572 68.3143 26.2572C67.2181 26.2572 66.3404 25.9058 65.7763 25.2404C65.2172 24.5807 65.0068 23.641 65.1838 22.5946C65.5244 20.4617 67.2663 18.9701 69.4197 18.9701C70.4933 18.9701 71.3646 19.3251 71.94 19.9964C72.519 20.6728 72.7464 21.6188 72.5807 22.66ZM77.8483 15.3287H74.0686C73.7447 15.3287 73.4691 15.5631 73.4187 15.8824L73.2523 16.9355L72.988 16.5537C72.1696 15.3697 70.3453 14.9741 68.5236 14.9741C64.3476 14.9741 60.7805 18.1277 60.0862 22.5507C59.7247 24.7572 60.2377 26.8656 61.4932 28.3374C62.6465 29.6897 64.2927 30.2525 66.2538 30.2525C69.6198 30.2525 71.4866 28.0977 71.4866 28.0977L71.3178 29.1445C71.2546 29.5426 71.5633 29.9029 71.9677 29.9029H75.3717C75.9113 29.9029 76.3707 29.5118 76.4548 28.9805L78.4982 16.0863C78.5614 15.6883 78.2527 15.3287 77.8483 15.3287Z" fill="#27346A"/>
<path fill-rule="evenodd" clip-rule="evenodd" d="M128.881 22.66C128.516 24.8123 126.802 26.2572 124.615 26.2572C123.518 26.2572 122.641 25.9058 122.076 25.2404C121.517 24.5807 121.307 23.641 121.484 22.5946C121.825 20.4617 123.566 18.9701 125.72 18.9701C126.793 18.9701 127.665 19.3251 128.24 19.9964C128.819 20.6728 129.047 21.6188 128.881 22.66ZM134.148 15.3287H130.369C130.045 15.3287 129.769 15.5631 129.719 15.8824L129.552 16.9355L129.288 16.5537C128.47 15.3697 126.645 14.9741 124.824 14.9741C120.648 14.9741 117.081 18.1277 116.386 22.5507C116.025 24.7572 116.538 26.8656 117.793 28.3374C118.947 29.6897 120.593 30.2525 122.554 30.2525C125.92 30.2525 127.787 28.0977 127.787 28.0977L127.618 29.1445C127.555 29.5426 127.863 29.9029 128.268 29.9029H131.672C132.211 29.9029 132.671 29.5118 132.755 28.9805L134.798 16.0863C134.862 15.6883 134.553 15.3287 134.148 15.3287Z" fill="#2790C3"/>
<mask id="mask0_302:44" style="mask-type:alpha" maskUnits="userSpaceOnUse" x="0" y="0" width="144" height="36">
<path d="M0.0212402 35.0003H143.558V0.290527H0.0212402V35.0003Z" fill="white"/>
</mask>
<g mask="url(#mask0_302:44)">
<path fill-rule="evenodd" clip-rule="evenodd" d="M97.9796 15.3291H94.1804C93.8171 15.3291 93.4772 15.5087 93.2732 15.8081L88.0326 23.5L85.8114 16.1086C85.6727 15.6462 85.2456 15.3291 84.761 15.3291H81.0263C80.5754 15.3291 80.2579 15.771 80.4033 16.1963L84.5868 28.4329L80.652 33.9657C80.343 34.3999 80.6549 35.0005 81.1888 35.0005H84.9845C85.3442 35.0005 85.6809 34.8248 85.8859 34.53L98.5206 16.3586C98.8228 15.9237 98.5106 15.3291 97.9796 15.3291Z" fill="#27346A"/>
<path fill-rule="evenodd" clip-rule="evenodd" d="M138.604 8.60624L135.364 29.1452C135.301 29.5433 135.61 29.9029 136.014 29.9029H139.272C139.812 29.9029 140.271 29.5115 140.355 28.9805L143.55 8.81023C143.613 8.41214 143.304 8.05225 142.9 8.05225H139.254C138.93 8.05225 138.654 8.28735 138.604 8.60624Z" fill="#2790C3"/>
<path fill-rule="evenodd" clip-rule="evenodd" d="M14.9538 33.5689L16.0149 26.8637L16.0833 26.4922C16.1344 26.169 16.3005 25.8735 16.5506 25.6606C16.8007 25.4478 17.1196 25.3304 17.4485 25.3304H18.2911C19.6956 25.3304 20.9859 25.1809 22.1264 24.886C23.3433 24.5718 24.4257 24.0821 25.3431 23.432C26.3159 22.7426 27.1329 21.8513 27.7718 20.7836C28.4459 19.6573 28.9408 18.3011 29.2431 16.7533C29.5102 15.3866 29.5602 14.163 29.3924 13.1162C29.2147 12.0103 28.7872 11.0667 28.122 10.3108C27.7186 9.85302 27.2024 9.45635 26.588 9.13181L26.5734 9.12403L26.5731 9.10635C26.7877 7.74206 26.7796 6.60403 26.5486 5.62439C26.3166 4.64262 25.8469 3.75913 25.1115 2.92408C23.5877 1.19388 20.8163 0.316406 16.8745 0.316406H6.04875C5.68688 0.316406 5.33566 0.445447 5.06036 0.679841C4.78506 0.914234 4.60271 1.23984 4.54595 1.5962L0.03828 30.0816C-0.00287303 30.3415 0.0719828 30.6055 0.24369 30.8049C0.415397 31.0054 0.665154 31.1203 0.9291 31.1203H7.6452L7.63917 31.1521L7.17797 34.0667C7.14249 34.2933 7.20777 34.5231 7.35713 34.697C7.50648 34.8713 7.72396 34.9717 7.95384 34.9717H13.5868C13.9029 34.9717 14.2091 34.8589 14.4493 34.6542C14.6895 34.4495 14.8491 34.1656 14.8984 33.8549L14.9538 33.5689Z" fill="#27346A"/>
<path fill-rule="evenodd" clip-rule="evenodd" d="M11.0961 9.14482C11.1674 8.69336 11.4579 8.32391 11.8492 8.13689C12.0273 8.05204 12.226 8.00467 12.4343 8.00467H20.9199C21.9253 8.00467 22.8626 8.07043 23.7198 8.20795C23.9645 8.24719 24.2026 8.29245 24.4343 8.34371C24.6659 8.39497 24.8905 8.45189 25.108 8.51553C25.2169 8.54699 25.3237 8.58022 25.429 8.61522C25.8498 8.75452 26.2414 8.91856 26.6019 9.10876C27.0269 6.40881 26.599 4.57149 25.1335 2.9074C23.52 1.07538 20.6053 0.290527 16.8759 0.290527H6.05022C5.28818 0.290527 4.63932 0.843103 4.52047 1.59331L0.012797 30.0787C-0.0762495 30.6408 0.359759 31.1489 0.93058 31.1489H7.61368L11.0961 9.14482Z" fill="#27346A"/>
</g>
<path fill-rule="evenodd" clip-rule="evenodd" d="M26.6008 9.10889C26.5686 9.315 26.5327 9.52464 26.4902 9.74065C25.0629 17.045 20.1785 19.5704 13.9403 19.5704H10.7637C10.0016 19.5704 9.35809 20.1233 9.23924 20.8735L7.15144 34.0642C7.07374 34.5557 7.45512 35.0004 7.95427 35.0004H13.5876C14.2542 35.0004 14.8219 34.5171 14.9258 33.8606L14.9811 33.5753L16.0423 26.8694L16.1107 26.4989C16.2147 25.8424 16.7823 25.3591 17.4489 25.3591H18.2915C23.7489 25.3591 28.022 23.1495 29.2708 16.7597C29.7923 14.0898 29.5227 11.8612 28.143 10.2943C27.7258 9.82055 27.2064 9.42848 26.6008 9.10889Z" fill="#2790C3"/>
<path fill-rule="evenodd" clip-rule="evenodd" d="M25.1068 8.51574C24.8893 8.45211 24.6648 8.39519 24.4331 8.34392C24.2014 8.29266 23.9634 8.24741 23.7186 8.20817C22.8615 8.07064 21.9242 8.00488 20.9188 8.00488H12.4331C12.2249 8.00488 12.0262 8.05226 11.8481 8.1371C11.4568 8.32413 11.1662 8.69357 11.0949 9.14503L9.29129 20.5409L9.23914 20.8736C9.35798 20.1234 10.0015 19.5704 10.7636 19.5704H13.9402C20.1784 19.5704 25.0628 17.0451 26.49 9.74074C26.5326 9.52473 26.5684 9.31509 26.6007 9.10897C26.2403 8.91877 25.8486 8.75473 25.4279 8.61544C25.3225 8.58044 25.2157 8.54721 25.1068 8.51574Z" fill="#1F264F"/>
</g>
<defs>
<clipPath id="clip0_302:44">
<rect width="144" height="35" fill="white"/>
</clipPath>
</defs>
</svg>
