
<svg width="20px" height="20px" viewBox="0 0 20 20" version="1.1" xmlns="http://www.w3.org/2000/svg" xmlns:xlink="http://www.w3.org/1999/xlink">
    <g id="Logo-&amp;-icons" stroke="none" stroke-width="1" fill="none" fill-rule="evenodd">
        <g id="Icon-Squared" transform="translate(-40.000000, -180.000000)">
            <g id="buddypress" transform="translate(40.000000, 180.000000)">
                <rect id="Rectangle-Copy" fill="#D93D21" x="0" y="0" width="20" height="20" rx="2"></rect>
                <path d="M6.46300568,16 L9.39044413,16 C12.0773656,16 13.8,14.5701721 13.8,12.3446209 C13.8,10.4986477 12.5771676,9.5943962 11.1875034,9.19576711 C12.262272,8.58071358 12.9852561,7.69406858 12.9852561,6.59009624 C12.9852561,5.30558962 11.8548769,3.93016125 9.40916591,4.00275418 L6.12929581,4.0930439 L6,4.40061581 C6.20367442,4.7088649 6.48103405,4.97973404 6.48103405,6.40956196 L6.48103405,14.7698026 C6.48103405,14.7698026 6.49984828,15.402553 6.46300568,16 Z M9.14214839,10.0363501 C10.7453016,10.1098723 12,11.1166698 12,13.1852008 C12,14.2832846 11.3030903,15.4 9.56059855,15.4 L8.44523865,15.4 C8.39293782,13.972208 8.39293782,11.9771992 8.4105888,10 L9.14214839,10.0363501 Z M9.36384832,9.28796153 L8.4,9.28796153 C8.4,8.57857078 8.43674136,7.88808595 8.45452236,7.21650704 C8.4729384,6.41323867 8.4729384,5.72275384 8.4729384,5.2192792 L9.36380296,5.20032672 C10.4914452,5.18142081 11.4,5.98394412 11.4,7.36565884 C11.4,8.39230566 10.9457679,9.0449321 10.5821646,9.4 C10.1639481,9.32502829 9.74586773,9.28796153 9.36380296,9.28796153 L9.36384832,9.28796153 Z" id="B" fill="#FFFFFF" fill-rule="nonzero"></path>
            </g>
        </g>
    </g>
</svg>