<?xml version="1.0" encoding="utf-8"?>
<!-- Generator: Adobe Illustrator 16.0.0, SVG Export Plug-In . SVG Version: 6.00 Build 0)  -->
<!DOCTYPE svg PUBLIC "-//W3C//DTD SVG 1.1//EN" "http://www.w3.org/Graphics/SVG/1.1/DTD/svg11.dtd">
<svg version="1.1" stroke="#000" id="Layer_1" xmlns="http://www.w3.org/2000/svg" xmlns:xlink="http://www.w3.org/1999/xlink" x="0px" y="0px" width="800px" height="800px" viewBox="0 0 800 800" enable-background="new 0 0 800 800" xml:space="preserve">
<g>
	<g>
		<path fill="none" stroke-width="28" stroke-linecap="round" stroke-linejoin="round" stroke-miterlimit="10" d="
			M717.568,498.876c0,33-27,60-60,60H142.432c-33,0-60-27-60-60V245.843c0-33,27-60,60-60h515.137c33,0,60,27,60,60V498.876z"/>
	</g>
	<g>
		<path fill="none" stroke-width="28" stroke-linecap="round" stroke-linejoin="round" stroke-miterlimit="10" d="
			M548.809,603.482c0,5.871-9,10.675-20,10.675H276.674c-11,0-20-4.804-20-10.675c0-5.87,9-10.674,20-10.674h252.134
			C539.809,592.809,548.809,597.612,548.809,603.482z"/>
	</g>
	
		<polygon fill="none" stroke-width="10" stroke-linecap="round" stroke-linejoin="round" stroke-miterlimit="10" points="
		185.667,371.862 291.666,286.692 291.666,331.637 374.334,331.14 374.334,413.331 292.334,413.331 292.666,458.026 	"/>
	
		<polygon fill="none" stroke-width="10" stroke-linecap="round" stroke-linejoin="round" stroke-miterlimit="10" points="
		614.334,371.862 508.334,286.692 508.334,331.637 425.666,331.14 425.666,413.331 507.666,413.331 507.334,458.026 	"/>
</g>
</svg>
