<?xml version="1.0" encoding="utf-8"?>
<!-- Generator: Adobe Illustrator 16.0.0, SVG Export Plug-In . SVG Version: 6.00 Build 0)  -->
<!DOCTYPE svg PUBLIC "-//W3C//DTD SVG 1.1//EN" "http://www.w3.org/Graphics/SVG/1.1/DTD/svg11.dtd">
<svg version="1.1" stroke="#000" id="Layer_1" xmlns="http://www.w3.org/2000/svg" xmlns:xlink="http://www.w3.org/1999/xlink" x="0px" y="0px" width="800px" height="800px" viewBox="0 0 800 800" enable-background="new 0 0 800 800" xml:space="preserve">
<g>
	<g>
		<path fill="none" stroke-width="28" stroke-linecap="round" stroke-linejoin="round" stroke-miterlimit="10" d="
			M727.527,648.82c0,27.5-22.5,50-50,50H122.473c-27.5,0-50-22.5-50-50V237.584c0-27.5,22.5-50,50-50h555.055c27.5,0,50,22.5,50,50
			V648.82z"/>
	</g>
	<g>
		<path fill="none" stroke-width="28" stroke-miterlimit="10" d="M295.506,167.584c0,11-9,20-20,20H220
			c-11,0-20-9-20-20V121.18c0-11,9-20,20-20h55.506c11,0,20,9,20,20V167.584z"/>
	</g>
	<g>
		<path fill="none" stroke-width="28" stroke-linecap="round" stroke-linejoin="round" stroke-miterlimit="10" d="
			M600,167.584c0,11-9,20-20,20h-55.506c-11,0-20-9-20-20V121.18c0-11,9-20,20-20H580c11,0,20,9,20,20V167.584z"/>
	</g>
	
		<line fill="none" stroke-width="28" stroke-linecap="round" stroke-linejoin="round" stroke-miterlimit="10" x1="72.473" y1="327.022" x2="727.527" y2="327.022"/>
	<g>
		<path fill="none" stroke-width="20" stroke-linecap="round" stroke-linejoin="round" stroke-miterlimit="10" d="
			M295.506,474.314c0,5.5-4.5,10-10,10H210c-5.5,0-10-4.5-10-10v-46.292c0-5.5,4.5-10,10-10h75.506c5.5,0,10,4.5,10,10V474.314z"/>
	</g>
	<g>
		<path fill="none" stroke-width="20" stroke-linecap="round" stroke-linejoin="round" stroke-miterlimit="10" d="
			M295.506,595.404c0,5.5-4.5,10-10,10H210c-5.5,0-10-4.5-10-10v-46.292c0-5.5,4.5-10,10-10h75.506c5.5,0,10,4.5,10,10V595.404z"/>
	</g>
	<g>
		<path fill="none"  stroke-width="20" stroke-linecap="round" stroke-linejoin="round" stroke-miterlimit="10" d="
			M447.753,474.314c0,5.5-4.5,10-10,10h-75.506c-5.5,0-10-4.5-10-10v-46.292c0-5.5,4.5-10,10-10h75.506c5.5,0,10,4.5,10,10V474.314z
			"/>
	</g>
	<g>
		<path fill="none" stroke-width="20" stroke-linecap="round" stroke-linejoin="round" stroke-miterlimit="10" d="
			M447.753,595.404c0,5.5-4.5,10-10,10h-75.506c-5.5,0-10-4.5-10-10v-46.292c0-5.5,4.5-10,10-10h75.506c5.5,0,10,4.5,10,10V595.404z
			"/>
	</g>
	<g>
		<path fill="none" stroke-width="20" stroke-linecap="round" stroke-linejoin="round" stroke-miterlimit="10" d="
			M600,474.314c0,5.5-4.5,10-10,10h-75.506c-5.5,0-10-4.5-10-10v-46.291c0-5.5,4.5-10,10-10H590c5.5,0,10,4.5,10,10V474.314z"/>
	</g>
	<g>
		<path fill="none" stroke-width="20" stroke-linecap="round" stroke-linejoin="round" stroke-miterlimit="10" d="
			M600,595.404c0,5.5-4.5,10-10,10h-75.506c-5.5,0-10-4.5-10-10v-46.291c0-5.5,4.5-10,10-10H590c5.5,0,10,4.5,10,10V595.404z"/>
	</g>
</g>
</svg>
