<?xml version="1.0" encoding="utf-8"?>
<!-- Generator: Adobe Illustrator 16.0.0, SVG Export Plug-In . SVG Version: 6.00 Build 0)  -->
<!DOCTYPE svg PUBLIC "-//W3C//DTD SVG 1.1//EN" "http://www.w3.org/Graphics/SVG/1.1/DTD/svg11.dtd">
<svg version="1.1" stroke="#000" id="Layer_1" xmlns="http://www.w3.org/2000/svg" xmlns:xlink="http://www.w3.org/1999/xlink" x="0px" y="0px"
	 width="800px" height="800px" viewBox="0 0 800 800" enable-background="new 0 0 800 800" xml:space="preserve">
<g>
	<g>
		<path fill="none" stroke-width="28" stroke-linecap="round" stroke-linejoin="round" stroke-miterlimit="10" d="
			M744.383,617.41c0,55-45,100-100,100H155.617c-55,0-100-45-100-100V307.298c0-55,45-100,100-100h488.766c55,0,100,45,100,100
			V617.41z"/>
	</g>
	<g>
		<path fill="none" stroke-width="28" stroke-linecap="round" stroke-linejoin="round" stroke-miterlimit="10" d="
			M439.654,177.839c3.119,16.203-7.828,29.459-24.328,29.459H210.158c-16.5,0-27.447-13.256-24.328-29.459l12.668-65.79
			c3.12-16.203,19.172-29.459,35.672-29.459h157.144c16.5,0,32.553,13.256,35.672,29.459L439.654,177.839z"/>
	</g>
	<g>
		<path fill="none" stroke-width="28" stroke-miterlimit="10" d="M526,242.017"/>
	</g>
	<g>
		<path fill="none" stroke-width="28" stroke-miterlimit="10" d="M608.247,233.747"/>
	</g>
	<g>
		<path fill="none" stroke-width="28" stroke-linecap="round" stroke-linejoin="round" stroke-miterlimit="10" d="
			M494.764,207.298v-36.404c0-16.5,13.5-30,30-30h53.483c16.5,0,30,13.5,30,30v36.404"/>
	</g>
	
		<line fill="none" stroke-width="28" stroke-linecap="round" stroke-linejoin="round" stroke-miterlimit="10" x1="198" y1="144.894" x2="322" y2="144.894"/>
	
		<line fill="none" stroke-width="28" stroke-linecap="round" stroke-linejoin="round" stroke-miterlimit="10" x1="289" y1="299.747" x2="289" y2="717.41"/>
	
		<circle fill="none"  stroke-width="28" stroke-linecap="round" stroke-linejoin="round" stroke-miterlimit="10" cx="514" cy="446.747" r="147"/>
	
		<circle fill="none"  stroke-width="28" stroke-linecap="round" stroke-linejoin="round" stroke-miterlimit="10" cx="170.484" cy="346.247" r="46.5"/>
	<path fill="none"  stroke-width="28" stroke-linecap="round" stroke-linejoin="round" stroke-miterlimit="10" d="
		M427.306,391.63"/>
	<path fill="none" stroke-width="28" stroke-linecap="round" stroke-linejoin="round" stroke-miterlimit="10" d="
		M512.494,345.747c56.334,0,102,45.667,102,102s-45.666,102-102,102c-56.333,0-102-45.667-102-102
		c0-9.084,1.188-17.892,3.416-26.274"/>
	<path fill="none" stroke-width="28" stroke-linecap="round" stroke-linejoin="round" stroke-miterlimit="10" d="
		M431.306,390.63c10.838-16.419,26.296-29.521,44.521-37.453"/>
</g>
</svg>
