<?xml version="1.0" encoding="utf-8"?>
<!-- Generator: Adobe Illustrator 16.0.0, SVG Export Plug-In . SVG Version: 6.00 Build 0)  -->
<!DOCTYPE svg PUBLIC "-//W3C//DTD SVG 1.1//EN" "http://www.w3.org/Graphics/SVG/1.1/DTD/svg11.dtd">
<svg version="1.1" stroke="#000" id="Layer_1" xmlns="http://www.w3.org/2000/svg" xmlns:xlink="http://www.w3.org/1999/xlink" x="0px" y="0px" width="800px" height="800px" viewBox="0 0 800 800" enable-background="new 0 0 800 800" xml:space="preserve">
<g>
	<path fill="none" stroke-width="28" stroke-linecap="round" stroke-linejoin="round" stroke-miterlimit="10" d="
		M384.679,193.083c64.958-71.942,175.937-77.604,247.877-12.646c71.942,64.958,77.604,175.937,12.646,247.878"/>
	<path fill="none" stroke-width="28" stroke-linecap="round" stroke-linejoin="round" stroke-miterlimit="10" d="
		M472.965,259.746c24.169-26.768,65.463-28.875,92.231-4.705c26.77,24.171,28.874,65.464,4.704,92.231"/>
	
		<line fill="none" stroke-width="28" stroke-linecap="round" stroke-linejoin="round" stroke-miterlimit="10" x1="135.515" y1="469.035" x2="385.701" y2="191.952"/>
	
		<line fill="none" stroke-width="28" stroke-linecap="round" stroke-linejoin="round" stroke-miterlimit="10" x1="647.34" y1="425.947" x2="441.99" y2="653.376"/>
	
		<line fill="none" stroke-width="28" stroke-linecap="round" stroke-linejoin="round" stroke-miterlimit="10" x1="263.26" y1="491.995" x2="472.965" y2="259.746"/>
	
		<line fill="none" stroke-width="28" stroke-linecap="round" stroke-linejoin="round" stroke-miterlimit="10" x1="569.9" y1="347.272" x2="319.379" y2="624.729"/>
	<path fill="none" stroke-width="28" stroke-linecap="round" stroke-linejoin="round" stroke-miterlimit="10" d="
		M319.703,625.021c-44.644,49.443-120.917,53.335-170.362,8.689c-49.445-44.644-53.335-120.919-8.691-170.362"/>
</g>
</svg>
