<?xml version="1.0" encoding="utf-8"?>
<!-- Generator: Adobe Illustrator 16.0.0, SVG Export Plug-In . SVG Version: 6.00 Build 0)  -->
<!DOCTYPE svg PUBLIC "-//W3C//DTD SVG 1.1//EN" "http://www.w3.org/Graphics/SVG/1.1/DTD/svg11.dtd">
<svg version="1.1" stroke="#000" xmlns="http://www.w3.org/2000/svg" xmlns:xlink="http://www.w3.org/1999/xlink" x="0px" y="0px" width="800px" height="800px" viewBox="0 0 800 800" enable-background="new 0 0 800 800" xml:space="preserve">
<g id="Layer_1" display="none">
	
		<image display="inline" overflow="visible" width="512" height="512"   transform="matrix(1.3967 0 0 1.3967 42.4478 42.4478)">
	</image>
</g>
<g id="Layer_2">
	<g>
		<path fill="none" stroke-width="28" stroke-linecap="round" stroke-linejoin="round" stroke-miterlimit="10" d="
			M630.651,626.123c72.545,0,131.354-58.81,131.354-131.354c0-64.609-46.646-118.323-108.1-129.302
			c0.145-2.984,0.223-5.986,0.223-9.006c0-100.839-81.746-182.584-182.584-182.584c-78.296,0-145.07,49.287-171.018,118.523
			c-16.058-20.122-40.788-33.019-68.534-33.019c-48.006,0-86.99,38.6-87.625,86.455C83.165,361.812,37.994,417.465,37.994,483.673
			c0,78.673,63.777,142.45,142.449,142.45"/>
		
			<line fill="none" stroke-width="28" stroke-linecap="round" stroke-linejoin="round" stroke-miterlimit="10" x1="170.404" y1="626.123" x2="629" y2="626.123"/>
	</g>
</g>
</svg>
