<?xml version="1.0" encoding="utf-8"?>
<!-- Generator: Adobe Illustrator 16.0.0, SVG Export Plug-In . SVG Version: 6.00 Build 0)  -->
<!DOCTYPE svg PUBLIC "-//W3C//DTD SVG 1.1//EN" "http://www.w3.org/Graphics/SVG/1.1/DTD/svg11.dtd">
<svg version="1.1" stroke="#000" id="Layer_1" xmlns="http://www.w3.org/2000/svg" xmlns:xlink="http://www.w3.org/1999/xlink" x="0px" y="0px" width="800px" height="800px" viewBox="0 0 800 800" enable-background="new 0 0 800 800" xml:space="preserve">
<g>
	<g>
		<path fill="none" stroke-width="20" stroke-linecap="round" stroke-miterlimit="10" d="M105.209,249.544
			c-33.211,64.855-45.52,140.985-29.996,217.965"/>
		<path fill="none" stroke-width="20" stroke-linecap="round" stroke-miterlimit="10" d="M549.353,101.716
			C485.624,70.436,411.457,59.153,336.485,74.27c-85.167,17.17-156.164,65.334-203.629,130.376"/>
		<path fill="none" stroke-width="20" stroke-linecap="round" stroke-miterlimit="10" d="M729.705,335.539
			c-17.613-87.354-67.832-159.813-135.435-207.251"/>
	</g>
</g>
<g>
	<g>
		<path fill="none" stroke-width="20" stroke-linecap="round" stroke-miterlimit="10" d="M736.475,408.24
			c0.46-23.936-1.661-48.293-6.588-72.736"/>
		<path fill="none" stroke-width="20" stroke-linecap="round" stroke-miterlimit="10" d="M75.393,467.477
			c0.968,4.793,2.031,9.541,3.191,14.243"/>
	</g>
</g>
<path fill="none" stroke-width="20" stroke-linecap="round" stroke-miterlimit="10" d="M316.275,724.082
	c74.79-85.123,110.397-202.935,86.271-322.575"/>
<path fill="none" stroke-width="20" stroke-linecap="round" stroke-miterlimit="10" d="M345.521,596.962
	c-16.354,41.909-41.024,80.164-72.402,112.337"/>
<path fill="none" stroke-width="20" stroke-linecap="round" stroke-miterlimit="10" d="M363.013,733.079
	c72.479-92.748,105.54-215.393,80.448-339.818l0.13-0.042c-4.581-22.713-26.703-37.414-49.417-32.833
	c-22.711,4.581-37.409,26.703-32.83,49.419l0.297-0.05c9.346,46.357,8.607,92.411-0.709,135.886"/>
<path fill="none" stroke-width="20" stroke-linecap="round" stroke-miterlimit="10" d="M323.9,436.805
	c13.085,96.556-22.991,189.817-90.221,252.716"/>
<path fill="none" stroke-width="20" stroke-linecap="round" stroke-miterlimit="10" d="M493.514,474.951
	c-0.082-29.664-3.062-59.754-9.146-89.938l0.093-0.035c-9.129-45.288-53.241-74.6-98.529-65.466
	c-33.828,6.821-58.745,33.162-65.374,64.935"/>
<path fill="none" stroke-width="20" stroke-linecap="round" stroke-miterlimit="10" d="M413.126,735.205
	C454.899,674.157,482,603.127,490.58,527.884"/>
<path fill="none" stroke-width="20" stroke-linecap="round" stroke-miterlimit="10" d="M412.27,276.517
	c-11.299-0.88-22.913-0.232-34.577,2.121c-67.864,13.685-111.784,79.784-98.099,147.653l0.234-0.041
	c18.508,91.794-15.7,181.975-81.78,239.203"/>
<path fill="none" stroke-width="20" stroke-linecap="round" stroke-miterlimit="10" d="M466.354,729.156
	c60.146-102.534,84.268-226.704,58.922-352.395l0.06-0.025c-7.542-37.393-30.996-67.519-61.89-84.744"/>
<path fill="none" stroke-width="20" stroke-linecap="round" stroke-miterlimit="10" d="M228.961,551.189
	c-13.043,33.585-34.622,63.427-62.609,86.353"/>
<path fill="none" stroke-width="20" stroke-linecap="round" stroke-miterlimit="10" d="M569.833,563.834
	c10.384-63.036,9.73-128.978-3.645-195.317l0.023-0.018c-18.236-90.441-106.324-148.968-196.76-130.733
	c-90.44,18.238-148.971,106.328-130.733,196.771l0.194-0.041c4.331,21.481,5.199,42.858,2.986,63.545"/>
<path fill="none" stroke-width="20" stroke-linecap="round" stroke-miterlimit="10" d="M522.234,713.152
	c15.14-31.076,27.362-63.67,36.381-97.354"/>
<path fill="none" stroke-width="20" stroke-linecap="round" stroke-miterlimit="10" d="M571.285,278.663
	c17.172,23.569,29.657,51.136,35.801,81.596l0.014,0.01c22.691,112.529,11.384,224.015-26.807,323.853"/>
<path fill="none" stroke-width="20" stroke-linecap="round" stroke-miterlimit="10" d="M315.318,211.784
	c14.371-6.587,29.721-11.634,45.889-14.893c63.892-12.881,126.846,4.895,173.616,43.2"/>
<path fill="none" stroke-width="20" stroke-linecap="round" stroke-miterlimit="10" d="M138.691,606.223
	c47.158-37.885,72.092-100.09,59.306-163.476l-0.157,0.035c-15.882-78.757,14.82-156.086,73.138-203.444"/>
<path fill="none" stroke-width="20" stroke-linecap="round" stroke-miterlimit="10" d="M152.186,411.438
	c0.536,13.098,2.106,26.324,4.78,39.585l0.127-0.032c9.361,46.422-8.221,92.015-41.966,120.611"/>
<path fill="none" stroke-width="20" stroke-linecap="round" stroke-miterlimit="10" d="M653.677,384.442
	c-1.603-10.793-3.491-21.601-5.668-32.419l-0.051-0.002C620.62,216.427,488.555,128.681,352.966,156.018
	c-104.2,21.013-180.15,103.876-197.317,202.659"/>
<path fill="none" stroke-width="20" stroke-linecap="round" stroke-miterlimit="10" d="M639.438,636.681
	c17.03-63.876,24.111-131.143,19.786-199.663"/>
<path fill="none" stroke-width="20" stroke-linecap="round" stroke-miterlimit="10" d="M441.604,111.936
	c-31.415-4.244-64.056-3.408-96.877,3.211c-158.169,31.89-260.533,185.95-228.64,344.116l0.097-0.023
	c5.536,27.444-3.056,54.446-20.74,73.524"/>
<path fill="none" stroke-width="20" stroke-linecap="round" stroke-miterlimit="10" d="M697.123,558.436
	c8.681-69.72,6.446-142-8.206-214.664l-0.083,0.005c-21.688-107.561-99.873-189.308-197.419-220.583"/>
</svg>
