<?xml version="1.0" encoding="utf-8"?>
<!-- Generator: Adobe Illustrator 16.0.0, SVG Export Plug-In . SVG Version: 6.00 Build 0)  -->
<!DOCTYPE svg PUBLIC "-//W3C//DTD SVG 1.1//EN" "http://www.w3.org/Graphics/SVG/1.1/DTD/svg11.dtd">
<svg version="1.1" stroke="#000" id="Layer_1" xmlns="http://www.w3.org/2000/svg" xmlns:xlink="http://www.w3.org/1999/xlink" x="0px" y="0px" width="800px" height="800px" viewBox="0 0 800 800" enable-background="new 0 0 800 800" xml:space="preserve">
<g>
	<path fill="none" stroke-width="28" stroke-linecap="round" stroke-linejoin="round" stroke-miterlimit="10" d="
		M711.62,450.57v-100.7l-95.14-12.41c-4.65-16.14-11.061-31.52-19.011-45.95v-0.01l58.48-76.03l-71.2-71.2l-75.96,58.42
		c-14.45-7.99-29.87-14.44-46.05-19.11L450.35,88.6h-100.7l-12.39,94.98c-16.18,4.67-31.6,11.12-46.05,19.11l-75.96-58.42
		l-71.2,71.2l58.48,76.03c-7.95,14.43-14.36,29.82-19.01,45.96l-95.14,12.41v100.7L183.65,463c4.67,16.07,11.08,31.39,19.02,45.75
		l-58.62,76.22l71.2,71.2l76.29-58.68h0.01c14.34,7.899,29.62,14.279,45.65,18.91l12.45,95.439h100.7L462.8,616.4
		c16.03-4.631,31.311-11.011,45.65-18.91h0.01l76.29,58.68l71.2-71.2l-58.62-76.22c7.939-14.36,14.35-29.68,19.02-45.75
		L711.62,450.57z M400,535.39c-74.78,0-135.39-60.609-135.39-135.39c0-74.78,60.61-135.39,135.39-135.39
		c74.78,0,135.39,60.61,135.39,135.39C535.39,474.78,474.78,535.39,400,535.39z"/>
</g>
</svg>
