<?xml version="1.0" encoding="utf-8"?>
<!-- Generator: Adobe Illustrator 16.0.0, SVG Export Plug-In . SVG Version: 6.00 Build 0)  -->
<!DOCTYPE svg PUBLIC "-//W3C//DTD SVG 1.1//EN" "http://www.w3.org/Graphics/SVG/1.1/DTD/svg11.dtd">
<svg version="1.1" stroke="#000" id="Layer_1" xmlns="http://www.w3.org/2000/svg" xmlns:xlink="http://www.w3.org/1999/xlink" x="0px" y="0px" width="800px" height="800px" viewBox="0 0 800 800" enable-background="new 0 0 800 800" xml:space="preserve">
<polygon fill="none" stroke-width="28" stroke-linecap="round" stroke-linejoin="round" stroke-miterlimit="10" points="
	399.245,455.535 227.829,644.299 572.411,644.299 "/>
<polyline fill="none" stroke-width="28" stroke-miterlimit="10" points="140.88,338.18 140.88,97.16 492.75,97.16 
	492.75,97.16 659.36,258.55 659.36,338.18 659.36,338.18 593.16,338.18 593.16,466.26 659.36,466.26 659.36,466.26 659.36,707.279 
	140.88,707.279 140.88,466.26 140.88,466.26 220.84,466.26 220.84,338.18 126.88,338.18 "/>
<line fill="none" stroke-width="12" stroke-miterlimit="10" x1="188.255" y1="146.883" x2="188.255" y2="224.411"/>
<line fill="none" stroke-width="12" stroke-miterlimit="10" x1="221.84" y1="224.411" x2="221.84" y2="146.883"/>
<line fill="none" stroke-width="12" stroke-miterlimit="10" x1="254.547" y1="146.883" x2="254.547" y2="224.411"/>
<line fill="none" stroke-width="12" stroke-miterlimit="10" x1="288.255" y1="146.883" x2="288.255" y2="224.411"/>
<line fill="none" stroke-width="12" stroke-miterlimit="10" x1="321.84" y1="224.411" x2="321.84" y2="146.883"/>
<line fill="none" stroke-width="12" stroke-miterlimit="10" x1="354.547" y1="146.883" x2="354.547" y2="224.411"/>
<line fill="none" stroke-width="12" stroke-miterlimit="10" x1="388.255" y1="146.883" x2="388.255" y2="224.411"/>
<line fill="none" stroke-width="12" stroke-miterlimit="10" x1="421.841" y1="224.411" x2="421.841" y2="146.883"/>
</svg>
