<?xml version="1.0" encoding="utf-8"?>
<!-- Generator: Adobe Illustrator 16.0.0, SVG Export Plug-In . SVG Version: 6.00 Build 0)  -->
<!DOCTYPE svg PUBLIC "-//W3C//DTD SVG 1.1//EN" "http://www.w3.org/Graphics/SVG/1.1/DTD/svg11.dtd">
<svg version="1.1" stroke="#000" id="Layer_1" xmlns="http://www.w3.org/2000/svg" xmlns:xlink="http://www.w3.org/1999/xlink" x="0px" y="0px" width="800px" height="800px" viewBox="0 0 800 800" enable-background="new 0 0 800 800" xml:space="preserve">
<g id="Layer_1_1_" display="none">
	
		<image display="inline" overflow="visible" enable-background="new    " width="512" height="512"   transform="matrix(1.467 0 0 1.467 24.4365 24.4365)">
	</image>
</g>
<g id="Layer_2">
	<g id="Layer_3">
		<g>
			<path fill="none" stroke-width="28" stroke-linejoin="round" stroke-miterlimit="10" d="M429.5,491
				l7.215,14.359c2.027,11.056,3.094,22.447,3.094,34.088c0,103.723-84.084,187.809-187.809,187.809S64.191,643.17,64.191,539.447
				S148.276,351.638,252,351.638c11.641,0,23.032,1.067,34.087,3.095l24.63,6.1"/>
			
				<polyline fill="none" stroke-width="28" stroke-linecap="round" stroke-linejoin="round" stroke-miterlimit="10" points="
				282.809,386.979 579.809,108.745 699.809,108.745 699.809,263.666 646.334,263.666 607.667,302.333 607.667,387.638 
				564.32,430.984 474.334,430.984 401.308,511.894 			"/>
		</g>
	</g>
	<g id="Layer_4">
		<path fill="none" stroke-width="13" stroke-linecap="round" stroke-linejoin="round" stroke-miterlimit="10" d="
			M697.666,139c0,0-207.847,224.049-291.333,281.333c-9.835,6.749-34.562,16.052-46,12.667C352.635,430.722,339,409,339,409
			l304.666-297.333"/>
		
			<circle fill="none" stroke-width="13" stroke-linecap="round" stroke-linejoin="round" stroke-miterlimit="10" cx="223.099" cy="567.082" r="49.498"/>
	</g>
</g>
</svg>
