<?xml version="1.0" encoding="utf-8"?>
<!-- Generator: Adobe Illustrator 16.0.0, SVG Export Plug-In . SVG Version: 6.00 Build 0)  -->
<!DOCTYPE svg PUBLIC "-//W3C//DTD SVG 1.1//EN" "http://www.w3.org/Graphics/SVG/1.1/DTD/svg11.dtd">
<svg version="1.1" stroke="#000" id="Layer_1" xmlns="http://www.w3.org/2000/svg" xmlns:xlink="http://www.w3.org/1999/xlink" x="0px" y="0px" width="800px" height="800px" viewBox="0 0 800 800" enable-background="new 0 0 800 800" xml:space="preserve">
<g>
	<path fill="none" stroke-width="28" stroke-miterlimit="10" d="M684.831,422.865c0,33-27,60-60,60H175.169
		c-33,0-60-27-60-60V208.034c0-33,27-60,60-60h449.662c33,0,60,27,60,60V422.865z"/>
</g>
<g>
	<path fill="none" stroke-width="28" stroke-miterlimit="10" d="M725.392,620.29
		c8.282,31.944-11.942,58.08-44.942,58.08H119.551c-33,0-53.224-26.136-44.943-58.08l20.571-79.345
		c8.281-31.944,42.057-58.08,75.057-58.08h459.528c33,0,66.775,26.136,75.058,58.08L725.392,620.29z"/>
</g>
<line fill="none" stroke-width="28" stroke-linecap="round" stroke-linejoin="round" stroke-miterlimit="10" x1="133.708" y1="615.449" x2="666.292" y2="615.449"/>
<line fill="none" stroke-width="28" stroke-linecap="round" stroke-linejoin="round" stroke-miterlimit="10" x1="153.067" y1="550.281" x2="226.101" y2="550.281"/>
<line fill="none" stroke-width="28" stroke-linecap="round" stroke-linejoin="round" stroke-miterlimit="10" x1="274.652" y1="550.281" x2="648.057" y2="550.281"/>
</svg>
