<?xml version="1.0" encoding="utf-8"?>
<!-- Generator: Adobe Illustrator 16.0.0, SVG Export Plug-In . SVG Version: 6.00 Build 0)  -->
<!DOCTYPE svg PUBLIC "-//W3C//DTD SVG 1.1//EN" "http://www.w3.org/Graphics/SVG/1.1/DTD/svg11.dtd">
<svg version="1.1" stroke="#000" id="Layer_1" xmlns="http://www.w3.org/2000/svg" xmlns:xlink="http://www.w3.org/1999/xlink" x="0px" y="0px" width="800px" height="800px" viewBox="0 0 800 800" enable-background="new 0 0 800 800" xml:space="preserve">
<g>
	
		<ellipse fill="none" stroke-width="28" stroke-miterlimit="10" cx="590.589" cy="374.641" rx="151.901" ry="311.857"/>
	<path fill="none" stroke-width="28" stroke-linecap="round" stroke-linejoin="round" stroke-miterlimit="10" d="
		M472.275,179.372c0,0-15.52,67.614-121.767,67.614s-235.461,0-235.461,0s-129.461,88.614,0,219.386c0,0,129.214,0,235.461,0
		s116.173,88.705,116.173,88.705"/>
	<path fill="none" stroke-width="15" stroke-linecap="round" stroke-linejoin="round" stroke-miterlimit="10" d="
		M286.104,246.986c0,0-97.495,116.534,0,219.386"/>
	<path fill="none" stroke-width="28" stroke-linecap="round" stroke-linejoin="round" stroke-miterlimit="10" d="
		M115.048,466.372c0,0,55.561-12.642,55.561,59.354s0,211.489,0,211.489h124.494c0,0,1.755-32.766,0-43.498
		c-1.322-8.082-7.862-23.388-8.998-31.498c-6.501-46.42,0-187.491,0-187.491"/>
	<g>
		<path fill="none" stroke-width="28" stroke-linecap="round" stroke-linejoin="round" stroke-miterlimit="10" d="
			M446.034,278.6c0,0,26.448,0,58.772,0c32.325,0,58.773,31.5,58.773,70v14.49c0,38.5-26.381,70-58.623,70
			c-32.243,0-58.624,0-58.624,0"/>
	</g>
</g>
</svg>
