<?xml version="1.0" encoding="utf-8"?>
<!-- Generator: Adobe Illustrator 16.0.0, SVG Export Plug-In . SVG Version: 6.00 Build 0)  -->
<!DOCTYPE svg PUBLIC "-//W3C//DTD SVG 1.1//EN" "http://www.w3.org/Graphics/SVG/1.1/DTD/svg11.dtd">
<svg version="1.1"  stroke="#000" id="Layer_1" xmlns="http://www.w3.org/2000/svg" xmlns:xlink="http://www.w3.org/1999/xlink" x="0px" y="0px" width="800px" height="800px" viewBox="0 0 800 800" enable-background="new 0 0 800 800" xml:space="preserve">
<polygon fill="none" stroke-width="28" stroke-linecap="round" stroke-miterlimit="10" points="520.754,649.487 
	460.754,709.487 400.754,649.487 340.754,709.487 280.754,649.487 220.754,709.487 150.754,639.487 150.754,90.513 650.754,90.513 
	650.754,639.487 580.754,709.487 "/>
<path fill="none" stroke-width="28" stroke-linecap="round" stroke-miterlimit="10" d="M136.473,244.405
	c-42.496,0-76.946-34.45-76.946-76.946s34.45-76.946,76.946-76.946"/>
<path fill="none" stroke-width="28" stroke-linecap="round" stroke-miterlimit="10" d="M663.527,244.405
	c42.496,0,76.946-34.45,76.946-76.946s-34.45-76.946-76.946-76.946"/>
<line fill="none" stroke-width="28" stroke-linecap="round" stroke-miterlimit="10" x1="248.455" y1="193.371" x2="553.053" y2="193.371"/>
<line fill="none" stroke-width="28" stroke-linecap="round" stroke-miterlimit="10" x1="248.455" y1="293.371" x2="411.294" y2="293.371"/>
<line fill="none" stroke-width="28" stroke-linecap="round" stroke-miterlimit="10" x1="248.455" y1="397.371" x2="553.053" y2="397.371"/>
<line fill="none" stroke-width="28" stroke-linecap="round" stroke-miterlimit="10" x1="248.455" y1="497.37" x2="411.294" y2="497.37"/>
</svg>
