<?xml version="1.0" encoding="utf-8"?>
<!-- Generator: Adobe Illustrator 16.0.0, SVG Export Plug-In . SVG Version: 6.00 Build 0)  -->
<!DOCTYPE svg PUBLIC "-//W3C//DTD SVG 1.1//EN" "http://www.w3.org/Graphics/SVG/1.1/DTD/svg11.dtd">
<svg version="1.1" stroke="#000" id="Layer_1" xmlns="http://www.w3.org/2000/svg" xmlns:xlink="http://www.w3.org/1999/xlink" x="0px" y="0px" width="800px" height="800px" viewBox="0 0 800 800" enable-background="new 0 0 800 800" xml:space="preserve">
<g>
	<g>
		<path fill="none" stroke-width="28" stroke-miterlimit="10" d="M486.152,447.309"/>
	</g>
	<g>
		<path fill="none" stroke-width="28" stroke-miterlimit="10" d="M486.152,619.809c0,0,0,22.594,0,50.208
			s-31.5,50.208-70,50.208H190.985c-38.5,0-70-31.5-70-70V339.663c0-38.5,31.5-70,70-70h225.167c38.5,0,70,19.158,70,42.573
			s0,42.573,0,42.573"/>
	</g>
	<g>
		<path fill="none" stroke-width="28" stroke-miterlimit="10" d="M486.152,550.309"/>
	</g>
	
		<rect x="188.4" y="79.775" fill="none" stroke-width="28" stroke-linecap="square" stroke-miterlimit="10" width="229.213" height="189.888"/>
	
		<rect x="232.512" y="159.309" fill="none" stroke-width="12" stroke-linecap="square" stroke-miterlimit="10" width="37.268" height="34.167"/>
	
		<rect x="338.578" y="159.309" fill="none" stroke-width="12" stroke-linecap="square" stroke-miterlimit="10" width="37.268" height="34.167"/>
	<circle fill="none" stroke-width="28" stroke-miterlimit="10" cx="533.404" cy="488.947" r="145.612"/>
	
		<line fill="none" stroke-width="12" stroke-linecap="round" stroke-linejoin="round" stroke-miterlimit="10" x1="455.691" y1="485.947" x2="610.748" y2="485.947"/>
</g>
</svg>
