<?xml version="1.0" encoding="utf-8"?>
<!-- Generator: Adobe Illustrator 16.0.0, SVG Export Plug-In . SVG Version: 6.00 Build 0)  -->
<!DOCTYPE svg PUBLIC "-//W3C//DTD SVG 1.1//EN" "http://www.w3.org/Graphics/SVG/1.1/DTD/svg11.dtd">
<svg version="1.1" stroke="#000" id="Layer_1" xmlns="http://www.w3.org/2000/svg" xmlns:xlink="http://www.w3.org/1999/xlink" x="0px" y="0px" width="800px" height="800px" viewBox="0 0 800 800" enable-background="new 0 0 800 800" xml:space="preserve">
<g>
	<path fill="none" stroke-width="28" stroke-linecap="round" stroke-miterlimit="10" d="M572.753,419.793
		c57.71,0,104.494,46.783,104.494,104.494c0,57.71-46.784,104.494-104.494,104.494H227.247c-57.71,0-104.494-46.784-104.494-104.494
		c0-57.711,46.784-104.494,104.494-104.494H572.753z"/>
	<path fill="none" stroke-width="28" stroke-linecap="round" stroke-miterlimit="10" d="M152.959,597.771
		c-40.808-40.808-38.14-110.182,2.745-151.067l244.779-244.778c40.885-40.886,107.111-40.95,147.918-0.142
		c40.808,40.807,40.744,107.034-0.142,147.919l-69.536,69.534"/>
	
		<circle fill="none" stroke-width="12" stroke-linecap="round" stroke-miterlimit="10" cx="228.965" cy="526.311" r="61.797"/>
	
		<line fill="none" stroke-width="12" stroke-linecap="round" stroke-miterlimit="10" x1="319.596" y1="628.781" x2="319.596" y2="524.287"/>
	
		<line fill="none" stroke-width="12" stroke-linecap="round" stroke-miterlimit="10" x1="361.168" y1="628.781" x2="361.168" y2="566.759"/>
	
		<line fill="none" stroke-width="12" stroke-linecap="round" stroke-miterlimit="10" x1="399.596" y1="628.781" x2="399.596" y2="524.287"/>
	
		<line fill="none" stroke-width="12" stroke-linecap="round" stroke-miterlimit="10" x1="441.168" y1="628.781" x2="441.168" y2="566.759"/>
	
		<line fill="none" stroke-width="12" stroke-linecap="round" stroke-miterlimit="10" x1="479.596" y1="628.781" x2="479.596" y2="524.287"/>
	
		<line fill="none" stroke-width="12" stroke-linecap="round" stroke-miterlimit="10" x1="521.168" y1="628.781" x2="521.168" y2="566.759"/>
	
		<line fill="none" stroke-width="12" stroke-linecap="round" stroke-miterlimit="10" x1="559.596" y1="628.781" x2="559.596" y2="524.287"/>
</g>
</svg>
