<?xml version="1.0" encoding="utf-8"?>
<!-- Generator: Adobe Illustrator 16.0.0, SVG Export Plug-In . SVG Version: 6.00 Build 0)  -->
<!DOCTYPE svg PUBLIC "-//W3C//DTD SVG 1.1//EN" "http://www.w3.org/Graphics/SVG/1.1/DTD/svg11.dtd">
<svg version="1.1" stroke="#000" id="Layer_1" xmlns="http://www.w3.org/2000/svg" xmlns:xlink="http://www.w3.org/1999/xlink" x="0px" y="0px"
	 width="800px" height="800px" viewBox="0 0 800 800" enable-background="new 0 0 800 800" xml:space="preserve">
<g>
	<g>
		<path fill="none" stroke-width="28" stroke-miterlimit="10" d="M400,428.928"/>
	</g>
	<g>
		<path fill="none" stroke-width="28" stroke-miterlimit="10" d="M400,495.533"/>
	</g>
	<g>
		<path fill="none" stroke-width="28" stroke-miterlimit="10" d="M400,495.533"/>
	</g>
	<g>
		<path fill="none" stroke-width="28" stroke-miterlimit="10" d="M400,495.533"/>
	</g>
	<g>
		<path fill="none" stroke-width="28" stroke-miterlimit="10" d="M400,373.927"/>
	</g>
	<g>
		<path fill="none" stroke-width="28" stroke-miterlimit="10" d="M400,340.427"/>
	</g>
	<g>
		<path fill="none" stroke-width="28" stroke-miterlimit="10" d="M400,339.302"/>
	</g>
	<g>
		<path fill="none" stroke-width="28" stroke-miterlimit="10" d="M400,338.427"/>
	</g>
	<g>
		<path fill="none" stroke-width="28" stroke-miterlimit="10" d="M400,337.802"/>
	</g>
	<g>
		<path fill="none" stroke-width="28" stroke-linecap="round" stroke-miterlimit="10" d="M248.013,320.614v-132.44
			c0-66,54-120,120-120h63.975c66,0,120,54,120,120v133.003"/>
	</g>
	<g>
		<path fill="none" stroke-width="28" stroke-miterlimit="10" d="M400,331.826"/>
	</g>
	<g>
		<path fill="none" stroke-width="28" stroke-linecap="round" stroke-miterlimit="10" d="M328.651,317.826V175.512
			c0-13.75,11.25-25,25-25h92.697c13.75,0,25,11.25,25,25v143.582"/>
	</g>
	<g>
		<path fill="none" stroke-width="28" stroke-miterlimit="10" d="M708.988,661.826c0,38.5-31.5,70-70,70H161.012
			c-38.5,0-70-31.5-70-70V391.714c0-38.5,31.5-70,70-70h477.977c38.5,0,70,31.5,70,70V661.826z"/>
	</g>
	
		<circle fill="none" stroke-width="28" stroke-linecap="round" stroke-miterlimit="10" cx="400" cy="524.928" r="46.342"/>
</g>
</svg>
