<?xml version="1.0" encoding="utf-8"?>
<!-- Generator: Adobe Illustrator 16.0.0, SVG Export Plug-In . SVG Version: 6.00 Build 0)  -->
<!DOCTYPE svg PUBLIC "-//W3C//DTD SVG 1.1//EN" "http://www.w3.org/Graphics/SVG/1.1/DTD/svg11.dtd">
<svg version="1.1" stroke="#000" id="Layer_1" xmlns="http://www.w3.org/2000/svg" xmlns:xlink="http://www.w3.org/1999/xlink" x="0px" y="0px"
	 width="800px" height="800px" viewBox="0 0 800 800" enable-background="new 0 0 800 800" xml:space="preserve">
<g>
	<g>
		<g>
			
				<path fill="none" stroke-width="28" stroke-linecap="round" stroke-linejoin="round" stroke-miterlimit="10" d="
				M728.09,404.943c0,49.5-40.5,90-90,90H161.91c-49.5,0-90-40.5-90-90v-9.887c0-49.5,40.5-90,90-90h476.18c49.5,0,90,40.5,90,90
				V404.943z"/>
		</g>
		
			<circle fill="none" stroke-width="12" stroke-linecap="round" stroke-linejoin="round" stroke-miterlimit="10" cx="166.225" cy="400" r="22.663"/>
		
			<circle fill="none" stroke-width="12" stroke-linecap="round" stroke-linejoin="round" stroke-miterlimit="10" cx="246.225" cy="400" r="22.663"/>
		
			<circle fill="none" stroke-width="12" stroke-linecap="round" stroke-linejoin="round" stroke-miterlimit="10" cx="326.225" cy="400" r="22.663"/>
	</g>
	<g>
		<g>
			
				<path fill="none" stroke-width="28" stroke-linecap="round" stroke-linejoin="round" stroke-miterlimit="10" d="
				M728.09,174.943c0,49.5-40.5,90-90,90H161.91c-49.5,0-90-40.5-90-90v-9.887c0-49.5,40.5-90,90-90h476.18c49.5,0,90,40.5,90,90
				V174.943z"/>
		</g>
		
			<circle fill="none" stroke-width="12" stroke-linecap="round" stroke-linejoin="round" stroke-miterlimit="10" cx="166.225" cy="170" r="22.663"/>
		
			<circle fill="none" stroke-width="12" stroke-linecap="round" stroke-linejoin="round" stroke-miterlimit="10" cx="246.225" cy="170" r="22.663"/>
		
			<circle fill="none" stroke-width="12" stroke-linecap="round" stroke-linejoin="round" stroke-miterlimit="10" cx="326.225" cy="170" r="22.663"/>
	</g>
	<g>
		<g>
			
				<path fill="none" stroke-width="28" stroke-linecap="round" stroke-linejoin="round" stroke-miterlimit="10" d="
				M728.09,634.943c0,49.5-40.5,90-90,90H161.91c-49.5,0-90-40.5-90-90v-9.887c0-49.5,40.5-90,90-90h476.18c49.5,0,90,40.5,90,90
				V634.943z"/>
		</g>
		
			<circle fill="none" stroke-width="12" stroke-linecap="round" stroke-linejoin="round" stroke-miterlimit="10" cx="166.225" cy="630" r="22.663"/>
		
			<circle fill="none" stroke-width="12" stroke-linecap="round" stroke-linejoin="round" stroke-miterlimit="10" cx="246.225" cy="630" r="22.663"/>
		
			<circle fill="none" stroke-width="12" stroke-linecap="round" stroke-linejoin="round" stroke-miterlimit="10" cx="326.225" cy="630" r="22.663"/>
	</g>
</g>
</svg>
