<?xml version="1.0" encoding="utf-8"?>
<!-- Generator: Adobe Illustrator 16.0.0, SVG Export Plug-In . SVG Version: 6.00 Build 0)  -->
<!DOCTYPE svg PUBLIC "-//W3C//DTD SVG 1.1//EN" "http://www.w3.org/Graphics/SVG/1.1/DTD/svg11.dtd">
<svg version="1.1" stroke="#000" id="Layer_1" xmlns="http://www.w3.org/2000/svg" xmlns:xlink="http://www.w3.org/1999/xlink" x="0px" y="0px" width="800px" height="800px" viewBox="0 0 800 800" enable-background="new 0 0 800 800" xml:space="preserve">
<g>
	<g>
		<g>
			
				<path fill="none" stroke-width="28" stroke-linecap="round" stroke-linejoin="round" stroke-miterlimit="10" d="
				M450.809,590.886v57.99c0,27.5-22.5,50-50,50h-1.618c-27.5,0-50-22.5-50-50v-57.99"/>
		</g>
		<g>
			
				<path fill="none" stroke-width="28" stroke-linecap="round" stroke-linejoin="round" stroke-miterlimit="10" d="
				M349.191,443.945V151.123c0-27.5,22.5-50,50-50h1.618c27.5,0,50,22.5,50,50V441.91"/>
		</g>
		<path fill="none" stroke-width="28" stroke-linecap="round" stroke-linejoin="round" stroke-miterlimit="10" d="
			M489.33,517.42c0,49.33-40,89.32-89.33,89.32s-89.33-39.99-89.33-89.32c0-49.34,40-89.33,89.33-89.33S489.33,468.08,489.33,517.42
			z"/>
	</g>
	<g>
		<g>
			
				<path fill="none" stroke-width="28" stroke-linecap="round" stroke-linejoin="round" stroke-miterlimit="10" d="
				M670.809,209.114v-57.99c0-27.5-22.5-50-50-50h-1.617c-27.5,0-50,22.5-50,50v57.99"/>
		</g>
		<g>
			
				<path fill="none" stroke-width="28" stroke-linecap="round" stroke-linejoin="round" stroke-miterlimit="10" d="
				M569.191,356.055v292.822c0,27.5,22.5,50,50,50h1.617c27.5,0,50-22.5,50-50V358.09"/>
		</g>
		<path fill="none" stroke-width="28" stroke-linecap="round" stroke-linejoin="round" stroke-miterlimit="10" d="
			M709.33,282.58c0-49.33-40-89.32-89.33-89.32s-89.33,39.99-89.33,89.32c0,49.34,40,89.33,89.33,89.33S709.33,331.92,709.33,282.58
			z"/>
	</g>
	<g>
		<g>
			
				<path fill="none" stroke-width="28" stroke-linecap="round" stroke-linejoin="round" stroke-miterlimit="10" d="
				M230.809,209.114v-57.99c0-27.5-22.5-50-50-50h-1.618c-27.5,0-50,22.5-50,50v57.99"/>
		</g>
		<g>
			
				<path fill="none" stroke-width="28" stroke-linecap="round" stroke-linejoin="round" stroke-miterlimit="10" d="
				M129.191,356.055v292.822c0,27.5,22.5,50,50,50h1.618c27.5,0,50-22.5,50-50V358.09"/>
		</g>
		<path fill="none" stroke-width="28" stroke-linecap="round" stroke-linejoin="round" stroke-miterlimit="10" d="
			M269.33,282.58c0-49.33-40-89.32-89.33-89.32s-89.33,39.99-89.33,89.32c0,49.34,40,89.33,89.33,89.33S269.33,331.92,269.33,282.58
			z"/>
	</g>
</g>
</svg>
