<?xml version="1.0" encoding="utf-8"?>
<!-- Generator: Adobe Illustrator 16.0.0, SVG Export Plug-In . SVG Version: 6.00 Build 0)  -->
<!DOCTYPE svg PUBLIC "-//W3C//DTD SVG 1.1//EN" "http://www.w3.org/Graphics/SVG/1.1/DTD/svg11.dtd">
<svg version="1.1" stroke="#000" id="Layer_1" xmlns="http://www.w3.org/2000/svg" xmlns:xlink="http://www.w3.org/1999/xlink" x="0px" y="0px"
	 width="800px" height="800px" viewBox="0 0 800 800" enable-background="new 0 0 800 800" xml:space="preserve">
<g>
	<g>
		<path fill="none" stroke-width="28" stroke-linecap="round" stroke-linejoin="round" stroke-miterlimit="10" d="
			M678.468,597.611c15.396,15.716,9.992,28.768-12.007,29.004l-267.148,2.869c-21.999,0.236-42.564-2.19-45.701-5.393
			c-3.137-3.203-18.3-18.682-33.695-34.397L219.502,487.189c-15.395-15.716-30.163-30.792-32.817-33.502s-5.02-22.927-5.256-44.926
			l-3.029-282.072c-0.236-21.999,12.167-27.139,27.562-11.423L678.468,597.611z"/>
	</g>
	<g>
		<path fill="none" stroke-width="28" stroke-linecap="round" stroke-linejoin="round" stroke-miterlimit="10" d="
			M330.768,601.453c15.556,15.557,15.556,41.012,0,56.568l-27.002,27.002c-15.556,15.557-41.012,15.557-56.568,0L121.825,559.651
			c-15.556-15.557-15.556-41.012,0-56.568l27.001-27.001c15.557-15.557,41.013-15.557,56.569,0L330.768,601.453z"/>
	</g>
	<path fill="none" stroke-width="28" stroke-linecap="round" stroke-linejoin="round" stroke-miterlimit="10" d="
		M458.141,133.002c114.897,0,208.041,93.143,208.041,208.042"/>
	<path fill="none" stroke-width="10" stroke-linecap="round" stroke-linejoin="round" stroke-miterlimit="10" d="
		M454.688,223.002c67.1,0,121.494,54.395,121.494,121.495"/>
	
		<line fill="none" stroke-width="10" stroke-linecap="round" stroke-linejoin="round" stroke-miterlimit="10" x1="179.462" y1="225.607" x2="579.059" y2="625.204"/>
</g>
</svg>
