<?xml version="1.0" encoding="utf-8"?>
<!-- Generator: Adobe Illustrator 16.0.0, SVG Export Plug-In . SVG Version: 6.00 Build 0)  -->
<!DOCTYPE svg PUBLIC "-//W3C//DTD SVG 1.1//EN" "http://www.w3.org/Graphics/SVG/1.1/DTD/svg11.dtd">
<svg version="1.1" stroke="#000" id="Layer_1" xmlns="http://www.w3.org/2000/svg" xmlns:xlink="http://www.w3.org/1999/xlink" x="0px" y="0px" width="800px" height="800px" viewBox="0 0 800 800" enable-background="new 0 0 800 800" xml:space="preserve">
<g>
	<g>
		<path fill="none" stroke-width="28" stroke-linecap="round" stroke-linejoin="round" stroke-miterlimit="10" d="
			M708.473,476.784c0.653,3.51,1.188,28.881,1.188,56.381v79.412c0,27.5-22.5,50-50,50H140.339c-27.5,0-50-22.5-50-50v-79.412
			c0-27.5,0.535-52.871,1.189-56.381c0.654-3.51,5.306-28.501,10.338-55.536l43.679-234.669
			c5.032-27.036,31.649-49.156,59.149-49.156h390.608c27.5,0,54.117,22.12,59.149,49.156l43.681,234.669
			C703.166,448.283,707.818,473.274,708.473,476.784z"/>
	</g>
	
		<polyline fill="none" stroke-width="28" stroke-linecap="round" stroke-linejoin="round" stroke-miterlimit="10" points="
		642.979,465.633 545.738,465.633 506.899,560.367 293.061,560.367 254.16,465.633 157.021,465.633 	"/>
	<g>
		<path fill="none" stroke-width="15" stroke-linecap="round" stroke-linejoin="round" stroke-miterlimit="10" d="
			M150.021,465.96l46.226-243.312C198.3,211.842,208.979,203,219.979,203h365c11,0,21.519,8.871,23.374,19.713l41.626,243.247"/>
	</g>
</g>
</svg>
