<?xml version="1.0" encoding="utf-8"?>
<!-- Generator: Adobe Illustrator 16.0.0, SVG Export Plug-In . SVG Version: 6.00 Build 0)  -->
<!DOCTYPE svg PUBLIC "-//W3C//DTD SVG 1.1//EN" "http://www.w3.org/Graphics/SVG/1.1/DTD/svg11.dtd">
<svg version="1.1" stroke="#000" id="Layer_1" xmlns="http://www.w3.org/2000/svg" xmlns:xlink="http://www.w3.org/1999/xlink" x="0px" y="0px"
	 width="800px" height="800px" viewBox="0 0 800 800" enable-background="new 0 0 800 800" xml:space="preserve">
<g>
	<path fill="none" stroke-width="28" stroke-miterlimit="10" d="M758.427,622.381c0,33-27,60-60,60H101.573
		c-33,0-60-27-60-60V294.065c0-33,27-60,60-60h596.854c33,0,60,27,60,60V622.381z"/>
</g>
<g>
	<path fill="none" stroke-width="28" stroke-miterlimit="10" d="M535.955,260.542"/>
</g>
<g>
	<path fill="none" stroke-width="28" stroke-miterlimit="10" d="M535.955,254.875"/>
</g>
<g>
	<path fill="none" stroke-width="28" stroke-miterlimit="10" d="M535.955,252.874"/>
</g>
<g>
	<path fill="none" stroke-width="28" stroke-miterlimit="10" d="M535.955,250.208"/>
</g>
<g>
	<path fill="none" stroke-width="28" stroke-linecap="round" stroke-linejoin="round" stroke-miterlimit="10" d="
		M264.045,241.208v-93.589c0-16.5,13.5-30,30-30h211.91c16.5,0,30,13.5,30,30v94.255"/>
</g>
<g>
	<path fill="none" stroke-width="28" stroke-linecap="round" stroke-linejoin="round" stroke-miterlimit="10" d="
		M475.843,441.145c0,5.5-4.5,10-10,10H334.157c-5.5,0-10-4.5-10-10v-73.259c0-5.5,4.5-10,10-10h131.686c5.5,0,10,4.5,10,10V441.145z
		"/>
</g>
<line fill="none" stroke-width="28" stroke-linecap="round" stroke-miterlimit="10" x1="477.843" y1="404.516" x2="755.304" y2="404.516"/>
<path fill="none" stroke-width="28" stroke-linecap="round" stroke-miterlimit="10" d="M435.667,424.516"/>
<line fill="none" stroke-width="28" stroke-linecap="round" stroke-miterlimit="10" x1="41.573" y1="404.516" x2="324.157" y2="404.516"/>
</svg>
