<?xml version="1.0" encoding="utf-8"?>
<!-- Generator: Adobe Illustrator 16.0.0, SVG Export Plug-In . SVG Version: 6.00 Build 0)  -->
<!DOCTYPE svg PUBLIC "-//W3C//DTD SVG 1.1//EN" "http://www.w3.org/Graphics/SVG/1.1/DTD/svg11.dtd">
<svg version="1.1" stroke="#000" id="Layer_1" xmlns="http://www.w3.org/2000/svg" xmlns:xlink="http://www.w3.org/1999/xlink" x="0px" y="0px"
	 width="800px" height="800px" viewBox="0 0 800 800" enable-background="new 0 0 800 800" xml:space="preserve">
<g>
	<path fill="none" stroke-width="4" stroke-miterlimit="10" d="M78.814,504.104
		c0.357,0.939,0.234,1.764-0.371,2.473c-2.727-3.619-0.997-9.943-1.328-14.389c-0.822-11.014-3.636-22.295-5.229-33.258
		c-2-13.773-3.902-27.611-5.624-41.367c-2.631-21.022-2.468-45.372,0.027-66.404c2.213-18.666,10.255-62.73,38.988-54.495
		c10.999,3.151,17.496,17.432,23.046,26.511c8.391,13.731,14.398,25.398,17.114,41.313c3.702,21.689,0.791,42.093-13.775,59.351
		c-17.251,20.436-41.766,11.074-57.845-3.83"/>
	<path fill="none" stroke-width="4" stroke-miterlimit="10" d="M199.547,311.765
		c-7.19,3.293-14.151,21.347-17.003,29.012c-3.325,8.933-6.604,19.866-8.059,29.297c-3.511,22.759-3.355,52.413-0.225,75.098
		c2.279,16.508,7.168,36.047,25.145,40.02c29.381,6.496,63.363-3.023,73.11-34.043c14.135-44.973-17.632-85.744-41.824-120.512
		c-6.564-9.433-8.806-17.185-20.136-18.039c-6.271-0.473-12.054,0.81-17.67,3.332"/>
	<path fill="none" stroke-width="4" stroke-miterlimit="10" d="M346.09,290.95
		c-2.52-6.059-19.519-3.996-25.276-3.21c-14.969,2.049-22.151,10.962-23.014,25.643c-0.722,12.297,2.598,19.896,8.185,30.436
		c6.362,12.004,11.812,14.626,24.695,18.944c14.796,4.959,28.137,15.087,34.434,29.88c7.637,17.939,10.625,45.759,0.621,63.035
		c-8.511,14.697-28.814,28.959-46.853,24.209c-26.759-7.043-27.695-46.531-27.745-68.205"/>
	<path fill="none" stroke-width="4" stroke-miterlimit="10" d="M425.191,454.146
		c-0.01-15.695,1.666-31.166,1.666-47.09c0-16.507,0-33.012,0-49.517c0-13.009,0-26.018,0-39.025c0-9.665-3.715-18.915,5.223-24.135
		c6.863-4.005,16.178-2.483,16.424-13.421"/>
	<path fill="none" stroke-width="4" stroke-miterlimit="10" d="M392.717,476.627
		c5.765-9.939,46.382-42.588,59.119-26.645"/>
	<path fill="none" stroke-width="4" stroke-miterlimit="10" d="M478.48,450.816
		c-0.424,0.746-1.061,1.064-1.91,0.947c-4.082-7.822-1.721-21.221-2.207-30.219c-0.506-9.348-1.352-18.666-1.732-28.014
		c-0.686-16.881,0.004-33.961,0.02-50.856c0.012-11.179-11.193-58.354-0.746-65.37c9.697,8.099,16.883,27.299,22.23,38.839
		c5.674,12.243,9.309,25.523,14.115,38.042c3.461-26.909,7.4-54.871,23.369-77.55c7.721,2.708,8.855,19.539,10.367,26.457
		c3.867,17.703,6.27,35.734,6.471,53.834c0.203,18.251-0.02,36.52-0.035,54.775c-0.016,15.613,4.17,30.166,4.162,45.773"/>
	<path fill="none" stroke-width="4" stroke-miterlimit="10" d="M553.418,277.626
		c6.779,35.173,36.607,65.417,54.787,95.009c1.164-36.313,13.748-72.269,13.674-108.34c6.473,23.035-6.887,56.4-13.094,79.172
		c-6.076,22.296-10.67,46.092-12.865,68.861c-1.049,10.879-2.59,22.549-4.203,33.492c-1.195,8.09-4.514,16.758-4.162,24.979"/>
	<path fill="none" stroke-width="4" stroke-miterlimit="10" d="M649.17,296.778c0,55.508,0,111.017,0,166.529"/>
	<path fill="none" stroke-width="4" stroke-miterlimit="10" d="M635.848,303.44
		c10.311,1.454,26.135-13.948,34.398-19.42c8.189-5.423,13.283-12.246,20.557-18.049"/>
	<path fill="none" stroke-width="4" stroke-miterlimit="10" d="M754.914,345.904
		c-4.943,4.372-10.391,9.86-16.361,13.321c-13.709,7.95-35,10.321-43.154,25.748c-8.021,15.183-0.439,34.878-0.434,50.833
		c0.002,7.238-0.613,14.209,1.666,20.838"/>
	<path fill="none" stroke-width="4" stroke-miterlimit="10" d="M754.082,254.313c0,42.252,0,84.507,0,126.761
		c0,19.32-3.732,43.451,0.832,62.248"/>
	<path fill="none" stroke-width="4" stroke-miterlimit="10" d="M682.475,295.112
		c6.777,4.35,6.826,24.491,8.188,32.585c1.9,11.292,3.51,22.811,3.471,34.225c-0.049,14.271,1.816,29.984-0.832,43.932"/>
</g>
</svg>
