<?xml version="1.0" encoding="utf-8"?>
<!-- Generator: Adobe Illustrator 16.0.0, SVG Export Plug-In . SVG Version: 6.00 Build 0)  -->
<!DOCTYPE svg PUBLIC "-//W3C//DTD SVG 1.1//EN" "http://www.w3.org/Graphics/SVG/1.1/DTD/svg11.dtd">
<svg version="1.1" stroke="#000" xmlns="http://www.w3.org/2000/svg" xmlns:xlink="http://www.w3.org/1999/xlink" x="0px" y="0px" width="800px" height="800px" viewBox="0 0 800 800" enable-background="new 0 0 800 800" xml:space="preserve">
<g id="Layer_1" display="none">
	
		<image display="inline" overflow="visible" width="512" height="512"  transform="matrix(1.276 0 0 1.276 74.3457 73.3696)">
	</image>
</g>
<g id="Layer_2">
</g>
<g id="Layer_3">
	<g>
		<g>
		<path fill="none" stroke-width="28" stroke-linecap="round" stroke-linejoin="round" stroke-miterlimit="10" d="
				M254.104,649.834c0,38.5-31.5,70-70,70h-34.157c-38.5,0-70-31.5-70-70V342.651c0-38.5,31.5-70,70-70h34.157c38.5,0,70,31.5,70,70
				V649.834z"/>
		</g>
		<path fill="none" stroke-width="28" stroke-linecap="round" stroke-linejoin="round" stroke-miterlimit="10" d="
			M254.104,664.785c0,0,153.934,37.079,180.899,37.079s123.187,3.535,164.045,0c10.909-0.944,121.992-28.256,23.596-94.382
			c0,0,104.056-33.293,27.651-106.326c0,0,93.014-37.905,18.856-100.826c0,0,103.531-66.021,15.29-100.713
			c-46.634-18.334-200.276-7.865-200.276-7.865s18.825-50.563,0-111.236c0,0-21.203-62.359-50.286-83.146
			c0,0-70.917-49.88-68.54,20.225c0,0,14.839,45.753-13.711,105.896c0,0-30.108,59.272-106.513,81.745"/>
	</g>
</g>
</svg>
