<?xml version="1.0" encoding="utf-8"?>
<!-- Generator: Adobe Illustrator 16.0.0, SVG Export Plug-In . SVG Version: 6.00 Build 0)  -->
<!DOCTYPE svg PUBLIC "-//W3C//DTD SVG 1.1//EN" "http://www.w3.org/Graphics/SVG/1.1/DTD/svg11.dtd">
<svg version="1.1" stroke="#000" id="Layer_1" xmlns="http://www.w3.org/2000/svg" xmlns:xlink="http://www.w3.org/1999/xlink" x="0px" y="0px"
	 width="800px" height="800px" viewBox="0 0 800 800" enable-background="new 0 0 800 800" xml:space="preserve">
<g>
	<g>
		<path fill="none" stroke-width="28" stroke-miterlimit="10" d="M497.226,384.494c0,38.5-31.5,70-70,70H139.135
			c-38.5,0-70-31.5-70-70V226.742c0-38.5,31.5-70,70-70h288.091c38.5,0,70,31.5,70,70V384.494z"/>
	</g>
	<circle fill="none" stroke-width="28" stroke-miterlimit="10" cx="248.91" cy="583.709" r="59.551"/>
	<circle fill="none" stroke-width="28" stroke-miterlimit="10" cx="588.911" cy="583.709" r="59.55"/>
	<g>
		<path fill="none" stroke-width="28" stroke-linecap="round" stroke-linejoin="round" stroke-miterlimit="10" d="
			M111.832,454.494v79.213c0,27.5,16.433,50,36.517,50s36.517,0,36.517,0"/>
	</g>
	
		<line fill="none" stroke-width="28" stroke-linecap="round" stroke-linejoin="round" stroke-miterlimit="10" x1="308.461" y1="583.709" x2="529.36" y2="583.709"/>
	<g>
		<path fill="none" stroke-width="28" stroke-linecap="round" stroke-linejoin="round" stroke-miterlimit="10" d="
			M497.226,236.517c0,0,21.994,0,48.876,0s60.779,19.094,75.327,42.43l82.985,133.116c14.548,23.337,26.451,64.931,26.451,92.431
			v29.213c0,27.5-16.433,50-36.518,50c-20.084,0-36.517,0-36.517,0"/>
	</g>
	<path fill="none" stroke-width="10" stroke-linecap="round" stroke-linejoin="round" stroke-miterlimit="10" d="
		M588.91,310.892c0,0,37.396,51.275,42.971,71.333c2.098,7.547,0,31.333,0,31.333h-91.333V310.892h45.666"/>
	
		<line fill="none" stroke-width="10" stroke-linecap="round" stroke-linejoin="round" stroke-miterlimit="10" x1="111.832" y1="236.517" x2="446.303" y2="236.517"/>
	
		<line fill="none" stroke-width="10" stroke-linecap="round" stroke-linejoin="round" stroke-miterlimit="10" x1="111.832" y1="296.321" x2="446.303" y2="296.321"/>
</g>
</svg>
