<?xml version="1.0" encoding="utf-8"?>
<!-- Generator: Adobe Illustrator 16.0.0, SVG Export Plug-In . SVG Version: 6.00 Build 0)  -->
<!DOCTYPE svg PUBLIC "-//W3C//DTD SVG 1.1//EN" "http://www.w3.org/Graphics/SVG/1.1/DTD/svg11.dtd">
<svg version="1.1" stroke="#000" id="Layer_1" xmlns="http://www.w3.org/2000/svg" xmlns:xlink="http://www.w3.org/1999/xlink" x="0px" y="0px"
	 width="800px" height="800px" viewBox="0 0 800 800" enable-background="new 0 0 800 800" xml:space="preserve">
<path fill="none" stroke-width="28" stroke-linecap="round" stroke-linejoin="round" stroke-miterlimit="10" d="
	M697.078,610.078c-98.302,92.161-496.093,75.732-595.471-10.499c-71.575-62.106-57.592-337.157,6-406.479
	c90.92-99.113,502.096-101.375,589.471,0C758.375,264.216,766.041,545.426,697.078,610.078z"/>
<g>
	<path fill="none" stroke-width="28" stroke-linecap="round" stroke-linejoin="round" stroke-miterlimit="10" d="
		M564.54,661.601c0,0,0,11.744,0,26.099c0,14.354-36,26.098-80,26.098H329.171c-44,0-80-12.545-80-27.877s0-27.877,0-27.877"/>
</g>
<path fill="none" stroke-width="20" stroke-linecap="round" stroke-linejoin="round" stroke-miterlimit="10" d="
	M516.089,510.167c-63.562,54.989-295.309,51.452-359.567,0c-46.281-37.057-41.119-176.858,0-218.221
	c58.789-59.138,303.07-60.488,359.567,0C555.724,334.379,560.682,471.591,516.089,510.167z"/>
<line fill="none" stroke-width="20" stroke-linecap="round" stroke-linejoin="round" stroke-miterlimit="10" x1="600.082" y1="398.589" x2="670.578" y2="398.589"/>
<line fill="none" stroke-width="20" stroke-linecap="round" stroke-linejoin="round" stroke-miterlimit="10" x1="600.082" y1="479.585" x2="670.578" y2="479.585"/>
<circle fill="none" stroke-width="20" stroke-linecap="round" stroke-linejoin="round" stroke-miterlimit="10" cx="623.581" cy="314.594" r="23.999"/>
</svg>
