<?xml version="1.0" encoding="utf-8"?>
<!-- Generator: Adobe Illustrator 16.0.0, SVG Export Plug-In . SVG Version: 6.00 Build 0)  -->
<!DOCTYPE svg PUBLIC "-//W3C//DTD SVG 1.1//EN" "http://www.w3.org/Graphics/SVG/1.1/DTD/svg11.dtd">
<svg version="1.1" stroke="#000" id="Layer_1" xmlns="http://www.w3.org/2000/svg" xmlns:xlink="http://www.w3.org/1999/xlink" x="0px" y="0px"
	 width="800px" height="800px" viewBox="0 0 800 800" enable-background="new 0 0 800 800" xml:space="preserve">
<g>
	<path fill="none" stroke-width="28" stroke-linecap="round" stroke-linejoin="round" stroke-miterlimit="10" d="
		M602.81,349.27c0,93.47-38.109,181.61-95.409,232.08C476.25,608.8,439.44,625.11,400,625.11c-36.31,0-70.39-13.82-99.87-37.431
		C238.66,538.48,197.19,446.78,197.19,349.27c0-144.28,90.8-261.24,202.81-261.24S602.81,204.99,602.81,349.27z"/>
	<path fill="none" stroke-width="28" stroke-linecap="round" stroke-linejoin="round" stroke-miterlimit="10" d="
		M728.09,711.97H71.91c82.23-66.13,158.7-104.689,228.22-124.29c29.48,23.61,63.56,37.431,99.87,37.431
		c39.44,0,76.25-16.311,107.4-43.761C647.12,613.87,728.09,711.97,728.09,711.97z"/>
</g>
</svg>
