<?xml version="1.0" encoding="utf-8"?>
<!-- Generator: Adobe Illustrator 16.0.0, SVG Export Plug-In . SVG Version: 6.00 Build 0)  -->
<!DOCTYPE svg PUBLIC "-//W3C//DTD SVG 1.1//EN" "http://www.w3.org/Graphics/SVG/1.1/DTD/svg11.dtd">
<svg version="1.1" stroke="#000" id="Layer_1" xmlns="http://www.w3.org/2000/svg" xmlns:xlink="http://www.w3.org/1999/xlink" x="0px" y="0px"
	 width="800px" height="800px" viewBox="0 0 800 800" enable-background="new 0 0 800 800" xml:space="preserve">
<g>
	<path fill="none" stroke-width="28" stroke-linecap="round" stroke-linejoin="round" stroke-miterlimit="10" d="
		M593.832,595.286c0,22-18,40-40,40H211.359c-22,0-40-18-40-40V433.714c0-22,18-40,40-40h342.473c22,0,40,18,40,40V595.286z"/>
</g>
<g>
	<path fill="none" stroke-width="28" stroke-linecap="round" stroke-linejoin="round" stroke-miterlimit="10" d="
		M720.832,570.106c0,22-17.568,36.081-39.04,31.29l-48.92-10.913c-21.472-4.791-39.04-26.71-39.04-48.71v-67.334
		c0-22,17.568-43.919,39.04-48.71l48.92-10.913c21.472-4.791,39.04,9.29,39.04,31.29V570.106z"/>
</g>
<g>
	<path fill="none" stroke-width="28" stroke-miterlimit="10" d="M202.668,446.5"/>
</g>
<g>
	<path fill="none" stroke-width="28" stroke-miterlimit="10" d="M198.668,446.5"/>
</g>
<g>
	<path fill="none" stroke-width="28" stroke-miterlimit="10" d="M197.002,446.5"/>
</g>
<g>
	<path fill="none" stroke-width="28" stroke-miterlimit="10" d="M194.835,446.5"/>
</g>
<g>
	<path fill="none" stroke-width="28" stroke-miterlimit="10" d="M193.002,446.5"/>
</g>
<g>
	<path fill="none" stroke-width="28" stroke-miterlimit="10" d="M191.335,446.5"/>
</g>
<g>
	<path fill="none" stroke-width="28" stroke-linecap="round" stroke-linejoin="round" stroke-miterlimit="10" d="
		M171.359,577.5h-52.191c-22,0-40-18-40-40v-51c0-22,18-40,40-40h52.191"/>
</g>
<line fill="none" stroke-width="28" stroke-linecap="round" stroke-linejoin="round" stroke-miterlimit="10" x1="382.595" y1="635.286" x2="382.595" y2="752.073"/>
<line fill="none" stroke-width="28" stroke-linecap="round" stroke-linejoin="round" stroke-miterlimit="10" x1="382.595" y1="635.286" x2="493.459" y2="746.149"/>
<line fill="none" stroke-width="28" stroke-linecap="round" stroke-linejoin="round" stroke-miterlimit="10" x1="369.677" y1="648.204" x2="270.775" y2="747.105"/>
<circle fill="none" stroke-width="28" stroke-linecap="round" stroke-linejoin="round" stroke-miterlimit="10" cx="524.882" cy="196.213" r="148.286"/>
<circle fill="none" stroke-width="28" stroke-linecap="round" stroke-linejoin="round" stroke-miterlimit="10" cx="232.216" cy="241.548" r="102.952"/>
</svg>
