<?xml version="1.0" encoding="utf-8"?>
<!-- Generator: Adobe Illustrator 16.0.0, SVG Export Plug-In . SVG Version: 6.00 Build 0)  -->
<!DOCTYPE svg PUBLIC "-//W3C//DTD SVG 1.1//EN" "http://www.w3.org/Graphics/SVG/1.1/DTD/svg11.dtd">
<svg version="1.1" id="Layer_1" xmlns="http://www.w3.org/2000/svg" xmlns:xlink="http://www.w3.org/1999/xlink" x="0px" y="0px"
	 width="264px" height="88px" viewBox="0 0 264 88" enable-background="new 0 0 264 88" xml:space="preserve">
<title>default-skin 2</title>
<path id="Shape" d="M67.002,59.5v3.768C60.695,64.107,57.818,69.018,57,73c2.22-2.83,5.564-5.098,10.002-5.098V71.5L73,65.585
	L67.002,59.5z"/>
<g>
	<path id="Shape_1_" d="M13,29v-5h2v3h3v2H13z M13,15h5v2h-3v3h-2V15z M31,15v5h-2v-3h-3v-2H31z M31,29h-5v-2h3v-3h2V29z"/>
</g>
<g>
	<path d="M62,24v5h-2v-3h-3v-2H62z M62,20h-5v-2h3v-3h2V20z M70,20v-5h2v3h3v2H70z M70,24h5v2h-3v3h-2V24z"/>
</g>
<path d="M20.586,66l-5.656-5.656l1.414-1.414L22,64.586l5.656-5.656l1.414,1.414L23.414,66l5.656,5.656l-1.414,1.414L22,67.414
	l-5.656,5.656l-1.414-1.414L20.586,66z"/>
<path d="M111.785,65.03L110,63.5l3-3.5h-10v-2h10l-3-3.5l1.785-1.468L117,59L111.785,65.03z"/>
<path d="M152.215,65.03L154,63.5l-3-3.5h10v-2h-10l3-3.5l-1.785-1.468L147,59L152.215,65.03z"/>
<path id="Rectangle-11" d="M160.957,28.543l-3.25-3.25l-1.413,1.414l3.25,3.25L160.957,28.543z"/>
<path d="M152.5,16c-3.038,0-5.5,2.462-5.5,5.5s2.462,5.5,5.5,5.5s5.5-2.462,5.5-5.5S155.538,16,152.5,16z M155,22h-5v-1h5V22z"/>
<g>
	<path d="M116.957,28.543l-1.414,1.414l-3.25-3.25l1.414-1.414L116.957,28.543z"/>
	<path d="M108.5,16c-3.038,0-5.5,2.462-5.5,5.5s2.462,5.5,5.5,5.5s5.5-2.462,5.5-5.5S111.538,16,108.5,16z M111,22h-2.008
		l-0.034,2.008l-1-0.017L107.992,22H106v-1h2.009l0.034-2.009l1,0.017L109.009,21H111V22z"/>
</g>
</svg>
