<svg xmlns="http://www.w3.org/2000/svg" xml:space="preserve" id="Layer_1" x="0" y="0" style="enable-background:new 0 0 180.3 228.2" version="1.1" viewBox="0 0 180.3 228.2"><style>.st0,.st1,.st2{fill:none;stroke:#334cf4;stroke-miterlimit:10}.st1,.st2{stroke-linecap:round}.st2{stroke:#403eef}.st3{fill:#334cf4}</style><path d="m76.7 2.7 55.2 16.2-16 54.8-55.4-16z" class="st0"/><path d="m66 38.9 19.2-10.1 8.9 15.5-17.2 9.8 27.8-15.7 10 17.6M91.5 119.6l-16.4 8.8-18.4-35.7 35.6-18.6 5.5 9.9-7.3 42.3 28.6 5.3" class="st1"/><path d="m97.8 84 .5-2.8 45.2 8.5-8.1 44.8h26.9l-11.8 19.8h-115v71.5h114.7l.3-71.5" class="st0"/><path d="M22.9 134.3h36.3l12 20-36.4-.5z" class="st0"/><path d="m72.5 101.5 4.6 8.5M75.5 96.5l7.6 14M81.4 97l4.5 8.5M90.5 92.2l4.5 8.5M84.3 92l7.6 14" class="st2"/><path d="m126.4 110.1-15.8 6.2 3.2-16.9zM126.5 134.7l-12.2 19.6h36.2l11.8-19.8zM175.6 225.8H13.4" class="st0"/><path d="M71.9 154.8v71H35.5v-71.5z" class="st3"/><path d="M102.9 225.7v-17h15.4V226M102.9 154.8v17.4l7.7-4.2 7.7 4.2v-17.6" class="st0"/><circle cx="31.6" cy="102.7" r="8.3" class="st3"/><circle cx="113.7" cy="27.9" r="4.9" class="st3"/><circle cx="135.4" cy="73.1" r="2.7" class="st3"/><circle cx="165.3" cy="204.6" r="4.6" class="st3"/><path d="m94.1 44.3-17.2 9.8" class="st1"/></svg>
