<svg xmlns="http://www.w3.org/2000/svg" xml:space="preserve" id="Layer_1" x="0" y="0" style="enable-background:new 0 0 228.3 228.2" version="1.1" viewBox="0 0 228.3 228.2"><style>.st0{fill:none;stroke:#334cf4;stroke-miterlimit:10}.st1{fill:#334cf4}.st2{fill:none;stroke:#334cf4;stroke-linecap:round;stroke-miterlimit:10}</style><path d="M10.3 2.9h105.4c3.8 0 6.9 3.1 6.9 6.9v175.9c0 3.8-3.1 6.9-6.9 6.9H10.3c-3.8 0-6.9-3.1-6.9-6.9V9.8c0-3.8 3.1-6.9 6.9-6.9z" class="st0"/><path d="M122.6 44.1h103v119.1h-103zM225.6 69.2h-103" class="st0"/><circle cx="174.1" cy="95" r="4" class="st1"/><circle cx="154" cy="95" r="4" class="st1"/><circle cx="194.1" cy="95" r="4" class="st1"/><circle cx="174.1" cy="114.6" r="4" class="st1"/><circle cx="154" cy="114.6" r="4" class="st1"/><circle cx="194.1" cy="114.6" r="4" class="st1"/><circle cx="174.1" cy="134.3" r="4" class="st1"/><circle cx="194.1" cy="134.3" r="4" class="st1"/><path d="m207.5 51.8 9.1 9.1M207.5 60.9l9.1-9.1M54.3 183.6h16.2M34.3 73h20.9M34.3 86.3h20.9M54.3 12.5h16.2" class="st2"/><path d="M39.2 53.7h10.3c14.9 0 27 12.1 27 27v27H39.2c-14.9 0-27-12.1-27-27s12-27 27-27z" class="st0"/><path d="M87.5 146.9H50.3v-27c0-14.9 12.1-27 27-27h10.3c14.9 0 26.9 12.1 26.9 27s-12.1 27-27 27z" class="st1"/><path d="M100.7 217.3c8.2 0 8.2 7.9 16.4 7.9s8.2-7.9 16.4-7.9 8.2 7.9 16.4 7.9 8.2-7.9 16.4-7.9M100.7 201.8c8.2 0 8.2 7.9 16.4 7.9s8.2-7.9 16.4-7.9 8.2 7.9 16.4 7.9 8.2-7.9 16.4-7.9" class="st0"/></svg>
