<svg xmlns="http://www.w3.org/2000/svg" xml:space="preserve" id="Layer_1" x="0" y="0" style="enable-background:new 0 0 154.3 228.2" version="1.1" viewBox="0 0 154.3 228.2"><style>.st0{fill:none;stroke:#334cf4;stroke-miterlimit:10}.st1{fill:#334cf4}.st2{fill:none;stroke:#334cf4;stroke-linecap:round;stroke-miterlimit:10}</style><path d="M16.7 94.5h121.2v123.6H16.7z" class="st0"/><path d="M27.1 104.3h100.2v42.5H27.1zM122.9 44.2v50.2h-22.7V44.2l4-9.7h15zM82.3 60.7l-1.3 13-2 20.7H42.5l-2-20.7-1.3-13z" class="st0"/><path d="m81 73.7-2 20.7H42.5l-2-20.7zM27.1 166.2h100.2v42.5H27.1z" class="st0"/><circle cx="77.4" cy="187.1" r="7.3" class="st1"/><circle cx="77.4" cy="125.2" r="7.3" class="st1"/><circle cx="61.1" cy="84.1" r="2.8" class="st1"/><circle cx="48.9" cy="84.1" r="2.8" class="st1"/><circle cx="60.9" cy="12" r="9.9" class="st0"/><circle cx="74.5" cy="32.8" r="5.9" class="st0"/><circle cx="39.3" cy="33.7" r="7.9" class="st0"/><circle cx="72.7" cy="84.1" r="2.8" class="st1"/><path d="M31.8 218.2h10.6v8H31.8zM112.3 218.2h10.6v8h-10.6z" class="st1"/><path d="M16.5 156.2H138" class="st0"/><path d="M61 11.1v49.7M74.7 32.4 60.4 46.7M39 33l21.9 21.6" class="st2"/><path d="M122.9 44.2h-22.7M107.6 34.5v-5.7h8.1v5.4" class="st0"/><path d="m106.5 66.8 9.2-8.8M111 73.6l4.7-4.7" class="st2"/></svg>
