<svg width="60" height="60" viewBox="0 0 60 60" fill="none" xmlns="http://www.w3.org/2000/svg">
<path d="M60 41.5V15.5H50.8475C50.2851 15.5 49.8305 15.947 49.8305 16.5C49.8305 17.053 50.2851 17.5 50.8475 17.5H57.9661V39.5H11.1864V17.5H18.3051C18.8675 17.5 19.322 17.053 19.322 16.5C19.322 15.947 18.8675 15.5 18.3051 15.5H11.1864V7.5C11.1864 6.947 10.7319 6.5 10.1695 6.5H7.99119C7.53661 4.78 5.95831 3.5 4.0678 3.5C1.82441 3.5 0 5.294 0 7.5C0 9.706 1.82441 11.5 4.0678 11.5C5.95831 11.5 7.53661 10.22 7.99119 8.5H9.15254V15.5V16.5V40.5V41.5V47.5C9.15254 48.053 9.60712 48.5 10.1695 48.5H17.3197C16.0739 49.412 15.2542 50.859 15.2542 52.5C15.2542 55.257 17.5353 57.5 20.339 57.5C23.1427 57.5 25.4237 55.257 25.4237 52.5C25.4237 50.859 24.6041 49.412 23.3583 48.5H41.7264C40.4807 49.412 39.661 50.859 39.661 52.5C39.661 55.257 41.942 57.5 44.7458 57.5C47.5495 57.5 49.8305 55.257 49.8305 52.5C49.8305 50.859 49.0108 49.412 47.7651 48.5H53.8983C54.4607 48.5 54.9153 48.053 54.9153 47.5C54.9153 46.947 54.4607 46.5 53.8983 46.5H11.1864V41.5H60ZM4.0678 9.5C2.9461 9.5 2.0339 8.603 2.0339 7.5C2.0339 6.397 2.9461 5.5 4.0678 5.5C4.81729 5.5 5.4661 5.905 5.81898 6.5H5.08475C4.52237 6.5 4.0678 6.947 4.0678 7.5C4.0678 8.053 4.52237 8.5 5.08475 8.5H5.81898C5.4661 9.095 4.81729 9.5 4.0678 9.5ZM20.339 55.5C18.6569 55.5 17.2881 54.154 17.2881 52.5C17.2881 50.846 18.6569 49.5 20.339 49.5C22.021 49.5 23.3898 50.846 23.3898 52.5C23.3898 54.154 22.021 55.5 20.339 55.5ZM44.7458 55.5C43.0637 55.5 41.6949 54.154 41.6949 52.5C41.6949 50.846 43.0637 49.5 44.7458 49.5C46.4278 49.5 47.7966 50.846 47.7966 52.5C47.7966 54.154 46.4278 55.5 44.7458 55.5Z" fill="currentColor"/>
<path d="M34.5762 30.5C42.427 30.5 48.8134 24.22 48.8134 16.5C48.8134 8.78 42.427 2.5 34.5762 2.5C26.7253 2.5 20.3389 8.78 20.3389 16.5C20.3389 24.22 26.7253 30.5 34.5762 30.5ZM34.5762 4.5C41.3053 4.5 46.7795 9.883 46.7795 16.5C46.7795 23.117 41.3053 28.5 34.5762 28.5C27.847 28.5 22.3728 23.117 22.3728 16.5C22.3728 9.883 27.847 4.5 34.5762 4.5Z" fill="currentColor"/>
<path d="M32.9074 22.269C32.9735 22.322 33.0478 22.354 33.122 22.389C33.1525 22.404 33.18 22.428 33.2115 22.439C33.3234 22.479 33.4413 22.5 33.5583 22.5C33.7007 22.5 33.843 22.469 33.9742 22.411C34.0241 22.389 34.0617 22.345 34.1085 22.315C34.1807 22.268 34.2579 22.231 34.3179 22.164L34.3373 22.142C34.3373 22.142 34.3383 22.141 34.3393 22.141C34.3393 22.141 34.3403 22.14 34.3403 22.139L42.4525 13.164C42.8257 12.752 42.7881 12.119 42.3681 11.753C41.9481 11.385 41.3054 11.422 40.9332 11.836L33.4525 20.112L28.1074 15.732C27.6732 15.379 27.0346 15.436 26.6746 15.86C26.3146 16.285 26.3735 16.916 26.8047 17.269L32.9074 22.269Z" fill="currentColor"/>
</svg>
