<svg xmlns="http://www.w3.org/2000/svg" viewBox="0 0 173.87 188.07">
  <g id="Livello_2" data-name="Livello 2">
    <g id="Layer_1" data-name="Layer 1">
      <g>
        <g>
          <path d="M41.23,167.45H35.17V20.62A20.64,20.64,0,0,1,55.79,0h97.46a20.64,20.64,0,0,1,20.62,20.62v3H132.62v-3a20.54,20.54,0,0,1,6-14.56H55.79A14.57,14.57,0,0,0,41.23,20.62ZM139,17.59h28.49a14.56,14.56,0,0,0-28.49,0Z"/>
          <path d="M135.66,170.48a3,3,0,0,1-3-3V20.62A20.65,20.65,0,0,1,153.25,0a3,3,0,1,1,0,6.06,14.58,14.58,0,0,0-14.57,14.56V167.45A3,3,0,0,1,135.66,170.48Z"/>
          <g>
            <path d="M118.07,188.07H20.62A20.64,20.64,0,0,1,0,167.45v-3H103.51v6.06H6.38A14.58,14.58,0,0,0,20.62,182h97.45a14.57,14.57,0,0,0,14.56-14.56h6.06A20.64,20.64,0,0,1,118.07,188.07Z"/>
            <path d="M118.07,188.07a20.64,20.64,0,0,1-20.62-20.62,3,3,0,0,1,6.06,0A14.57,14.57,0,0,0,118.07,182a3,3,0,0,1,0,6.06Z"/>
            <path d="M118.07,188.07a20.64,20.64,0,0,1-20.62-20.62h6.06A14.57,14.57,0,0,0,118.07,182Z"/>
          </g>
        </g>
        <g>
          <path d="M121.08,34.62H51.92a3,3,0,0,1,0-6.06h69.16a3,3,0,1,1,0,6.06Z"/>
          <path d="M121.08,55.86H51.92a3,3,0,0,1,0-6.06h69.16a3,3,0,0,1,0,6.06Z"/>
          <path d="M121.08,77.09H51.92a3,3,0,0,1,0-6.06h69.16a3,3,0,0,1,0,6.06Z"/>
          <path d="M121.08,98.33H51.92a3,3,0,0,1,0-6.06h69.16a3,3,0,0,1,0,6.06Z"/>
          <path d="M121.08,119.57H51.92a3,3,0,0,1,0-6.06h69.16a3,3,0,1,1,0,6.06Z"/>
          <path d="M121.08,141H51.92a3,3,0,1,1,0-6.05h69.16a3,3,0,1,1,0,6.05Z"/>
        </g>
      </g>
    </g>
  </g>
</svg>
