<?xml version="1.0" encoding="UTF-8"?>
<svg width="42px" height="55px" viewBox="0 0 42 55" version="1.1" xmlns="http://www.w3.org/2000/svg" xmlns:xlink="http://www.w3.org/1999/xlink">
    <title>invoice</title>
    <g id="Page-1" stroke="none" stroke-width="1" fill="none" fill-rule="evenodd">
        <g id="Invoices" transform="translate(-618.000000, -356.000000)" fill="#000000" fill-rule="nonzero">
            <g id="invoice" transform="translate(618.000000, 356.000000)">
                <path d="M41.9966937,11.4963316 C41.9966937,7.64958892 41.9926527,3.28857578 41.991918,0.64937609 C41.9918268,0.400658924 41.8471842,0.173826073 41.6194214,0.0652155995 C41.3916586,-0.0433948736 41.120763,-0.0147146607 40.9217864,0.13907548 L37.259534,2.96954768 L33.6020572,0.139436371 C33.362008,-0.0463691675 33.0236193,-0.0463691675 32.7835701,0.139436371 L29.1260933,2.96954768 L25.4686166,0.139436371 C25.2285674,-0.0463691675 24.8901787,-0.0463691675 24.6501295,0.139436371 L20.9926527,2.96954768 L17.3355433,0.139436371 C17.0954941,-0.0463691675 16.7571054,-0.0463691675 16.5170562,0.139436371 L12.8599468,2.96918679 L9.20283745,0.139436371 C8.96285854,-0.046179669 8.62469656,-0.046179669 8.38471765,0.139436371 L4.72760828,2.96918679 L1.07049892,0.139436371 C0.871525869,-0.0145749354 0.600477349,-0.0433847189 0.37257682,0.0652541384 C0.144676291,0.173892996 0,0.40088568 0,0.649736981 L0,54.3503953 C0,54.7091621 0.296054098,55 0.661255336,55 L41.3387447,55 C41.7039459,55 42,54.7091621 42,54.3503953 L42,19.1425403 C42,18.3207903 41.9985305,15.1391706 41.9966937,11.4963316 Z M40.6774893,53.7007905 L1.32251067,53.7007905 L1.32251067,1.98828363 L4.31836471,4.30665076 C4.55834361,4.4922668 4.89650559,4.4922668 5.1364845,4.30665076 L8.79396123,1.47653946 L12.4510706,4.30665076 C12.6910495,4.4922668 13.0292115,4.4922668 13.2691904,4.30665076 L16.9262998,1.47653946 L20.5837765,4.30665076 C20.8237554,4.4922668 21.1619174,4.4922668 21.4018963,4.30665076 L25.059373,1.47653946 L28.7168498,4.30665076 C28.9568287,4.4922668 29.2949907,4.4922668 29.5349696,4.30665076 L33.1928137,1.47653946 L36.8502904,4.30665076 C37.0902693,4.4922668 37.4284313,4.4922668 37.6684102,4.30665076 L40.6697747,1.98684007 C40.6697747,4.62315262 40.6727136,8.24397725 40.6741831,11.4970534 C40.6741831,15.1395315 40.6774893,18.3207903 40.6774893,19.1425403 L40.6774893,53.7007905 Z" id="Shape"></path>
                <path d="M33.357808,31 L14.642192,31 C14.2875192,31 14,31.2238576 14,31.5 C14,31.7761424 14.2875192,32 14.642192,32 L33.357808,32 C33.7124808,32 34,31.7761424 34,31.5 C34,31.2238576 33.7124808,31 33.357808,31 Z" id="Path"></path>
                <path d="M33.357808,38.5 L14.642192,38.5 C14.2875192,38.5 14,38.7238576 14,39 C14,39.2761424 14.2875192,39.5 14.642192,39.5 L33.357808,39.5 C33.7124808,39.5 34,39.2761424 34,39 C34,38.7238576 33.7124808,38.5 33.357808,38.5 Z" id="Path"></path>
                <path d="M33.357808,46.5 L14.642192,46.5 C14.2875192,46.5 14,46.7238576 14,47 C14,47.2761424 14.2875192,47.5 14.642192,47.5 L33.357808,47.5 C33.7124808,47.5 34,47.2761424 34,47 C34,46.7238576 33.7124808,46.5 33.357808,46.5 Z" id="Path"></path>
                <path d="M10,30 C8.8954305,30 8,30.8954305 8,32 C8,33.1045695 8.8954305,34 10,34 C11.1045695,34 12,33.1045695 12,32 C11.9987034,30.895968 11.104032,30.0012966 10,30 L10,30 Z M10,32.9411765 C9.48020259,32.9411765 9.05882353,32.5197974 9.05882353,32 C9.05882353,31.4802026 9.48020259,31.0588235 10,31.0588235 C10.5197974,31.0588235 10.9411765,31.4802026 10.9411765,32 C10.9411765,32.5197974 10.5197974,32.9411765 10,32.9411765 Z" id="Shape"></path>
                <path d="M10,44.5 C8.8954305,44.5 8,45.3954305 8,46.5 C8,47.6045695 8.8954305,48.5 10,48.5 C11.1045695,48.5 12,47.6045695 12,46.5 C11.9988652,45.3959009 11.1040991,44.5011348 10,44.5 Z M10,47.4411765 C9.48020259,47.4411765 9.05882353,47.0197974 9.05882353,46.5 C9.05882353,45.9802026 9.48020259,45.5588235 10,45.5588235 C10.5197974,45.5588235 10.9411765,45.9802026 10.9411765,46.5 C10.9411765,47.0197974 10.5197974,47.4411765 10,47.4411765 Z" id="Shape"></path>
                <path d="M10,37 C8.8954305,37 8,37.8954305 8,39 C8,40.1045695 8.8954305,41 10,41 C11.1045695,41 12,40.1045695 12,39 C11.9987034,37.895968 11.104032,37.0012966 10,37 L10,37 Z M10,39.9411765 C9.48020259,39.9411765 9.05882353,39.5197974 9.05882353,39 C9.05882353,38.4802026 9.48020259,38.0588235 10,38.0588235 C10.5197974,38.0588235 10.9411765,38.4802026 10.9411765,39 C10.9411765,39.5197974 10.5197974,39.9411765 10,39.9411765 Z" id="Shape"></path>
                <path d="M22.6795615,20.2912624 L22.6795615,19.5880373 C23.0049766,19.5508921 23.3240386,19.46784 23.6279902,19.3411604 C24.0443486,19.1676369 24.3984508,18.8631988 24.641033,18.4702008 C24.8749038,18.0951233 24.9995772,17.6575185 25,17.210223 C25,16.7156817 24.8998671,16.2963453 24.7022463,15.9636324 C24.499884,15.6264046 24.2138405,15.3524169 23.8743549,15.1706339 C23.5134986,14.9737624 22.9448192,14.7768908 22.184187,14.5902566 C21.3861466,14.3933851 20.8934171,14.2067509 20.677659,14.018148 C20.4947747,13.8578945 20.4018212,13.661023 20.4018212,13.4322583 C20.3967638,13.1918758 20.5090082,12.9652147 20.6999527,12.8302251 C20.9791913,12.6187851 21.3657421,12.511687 21.849403,12.511687 C22.3202166,12.511687 22.6806951,12.6132727 22.9247927,12.8136879 C23.0679216,12.9348266 23.1812655,13.0897846 23.2554202,13.265705 C23.3663281,13.5139288 23.605546,13.6723756 23.8683092,13.6716541 C23.8781335,13.6716541 23.8883358,13.6716541 23.8981601,13.6716541 L23.9359461,13.6716541 C24.1705353,13.6597948 24.3824043,13.5219037 24.4955568,13.3074417 C24.6106361,13.0977799 24.6129256,12.840875 24.5016026,12.6290224 C24.3793321,12.3970123 24.2179236,12.1898719 24.0251211,12.0175395 C23.6948714,11.7186885 23.2437065,11.5226044 22.6795615,11.4300748 L22.6795615,10.7087375 C22.6795615,10.3173126 22.3750488,10 21.9994134,10 C21.623778,10 21.3192653,10.3173126 21.3192653,10.7087375 L21.3192653,11.3977879 C20.9892784,11.4302466 20.6657224,11.513441 20.359123,11.6446648 C19.9533013,11.8249991 19.6392996,12.0903819 19.425053,12.4321509 C19.2143688,12.7613012 19.1018312,13.1480391 19.1016048,13.5436876 C19.1016048,14.1646204 19.3283208,14.6768801 19.7904436,15.1096037 C20.118804,15.4163296 20.7067542,15.6809249 21.5376684,15.8970899 C22.2095036,16.0711243 22.6289282,16.1892472 22.8223926,16.258546 C23.1159898,16.3672191 23.3185228,16.4947918 23.4420831,16.6483516 C23.5684993,16.8081056 23.6355574,17.00991 23.6310131,17.2169166 C23.6310131,17.5535669 23.4866705,17.8496617 23.2021419,18.0969324 C22.9232812,18.3394781 22.5102802,18.4623259 21.9740968,18.4623259 C21.465875,18.4623259 21.0543855,18.3249096 20.750586,18.0540144 C20.552705,17.8714489 20.4000123,17.641832 20.3054669,17.3846512 C20.2019997,17.1209966 19.9549701,16.9494916 19.6816199,16.9515338 C19.659704,16.9515338 19.6374103,16.9515338 19.6151166,16.9546837 C19.401727,16.9754439 19.2103274,17.1001335 19.0989597,17.2909403 C18.9887708,17.476822 18.9694344,17.7060552 19.0468151,17.9091169 C19.1924086,18.3062818 19.4290236,18.6603075 19.7360318,18.94033 C20.1274948,19.2923363 20.6591439,19.5104699 21.3200211,19.593156 L21.3200211,20.2912624 C21.320021,20.54447 21.4496565,20.7784434 21.6600951,20.9050472 C21.8705336,21.0316509 22.1298046,21.0316509 22.3402432,20.9050472 C22.5506817,20.7784434 22.6803172,20.54447 22.6803172,20.2912624 L22.6795615,20.2912624 Z" id="Path"></path>
                <path d="M28.2174438,22.2176715 C31.4220436,19.0131313 31.9167235,13.9911311 29.3989575,10.22292 C26.8811915,6.45470882 22.0522109,4.98978364 17.8652221,6.72403252 C13.6782332,8.45828139 11.299368,12.908693 12.1834428,17.3535782 C13.0675176,21.7984635 16.9683058,24.9999661 21.5002455,24.9999661 C24.0210075,25.0067128 26.4397442,24.0048732 28.2174438,22.2176715 Z M13.2987468,15.5004535 C13.2987468,10.9783341 16.977779,7.29893073 21.5002455,7.29893073 C26.0227121,7.29893073 29.7021046,10.9783341 29.7021046,15.5004535 C29.7021046,20.0225729 26.0227121,23.7023367 21.5002455,23.7023367 C16.977779,23.7023367 13.2987468,20.0229333 13.2987468,15.5004535 Z" id="Shape"></path>
            </g>
        </g>
    </g>
</svg>