<svg width="130" height="101" viewBox="0 0 130 101" fill="none" xmlns="http://www.w3.org/2000/svg">
<rect width="130" height="101" rx="3.5" fill="white"/>
<path d="M53 48.4318H58.5682V49.5682H53C52.6862 49.5682 52.4318 49.3138 52.4318 49C52.4318 48.6862 52.6862 48.4318 53 48.4318Z" fill="#BCD6BC" stroke="#BCD6BC" stroke-width="0.863636"/>
<path d="M52 43.5C52 42.6716 52.6716 42 53.5 42H59V45H53.5C52.6716 45 52 44.3284 52 43.5V43.5Z" fill="#437E47" fill-opacity="0.6"/>
<path d="M35 41.7273C35 40.7733 35.7733 40 36.7273 40H46.2727C47.2267 40 48 40.7733 48 41.7273V50.2727C48 51.2267 47.2267 52 46.2727 52H36.7273C35.7733 52 35 51.2267 35 50.2727V41.7273Z" fill="#437E47" fill-opacity="0.6"/>
<path d="M72 36V27.872C72 26.8381 71.1619 26 70.128 26H32.872C31.8381 26 31 26.8381 31 27.872V64.128C31 65.1619 31.8381 66 32.872 66H59" stroke="#437E47" stroke-opacity="0.1" stroke-width="0.936"/>
<rect x="72" y="61.4871" width="15.8672" height="2.38007" rx="1.19004" fill="#BCD6BC"/>
<path d="M72 49.3703C72 48.6135 72.6135 48 73.3703 48H86.4968C87.2536 48 87.8671 48.6135 87.8671 49.3703V56.1499C87.8671 56.9068 87.2536 57.5203 86.4968 57.5203H73.3703C72.6135 57.5203 72 56.9068 72 56.1499V49.3703Z" fill="#437E47" fill-opacity="0.6"/>
<rect x="59.468" y="36.468" width="40.064" height="39.064" rx="1.404" stroke="#437E47" stroke-opacity="0.1" stroke-width="0.936"/>
</svg>
