<svg width="130" height="101" viewBox="0 0 130 101" fill="none" xmlns="http://www.w3.org/2000/svg">
<rect width="130.25" height="101" rx="3.5" fill="white"/>
<rect x="17.5" y="30.5" width="96.9167" height="40.6667" rx="1.5" stroke="#437E47" stroke-opacity="0.1"/>
<rect x="25" y="58" width="20" height="3" rx="1.5" fill="#BCD6BC"/>
<path d="M25 42.7273C25 41.7733 25.7733 41 26.7273 41H43.2727C44.2267 41 45 41.7733 45 42.7273V51.2727C45 52.2267 44.2267 53 43.2727 53H26.7273C25.7733 53 25 52.2267 25 51.2727V42.7273Z" fill="#437E47" fill-opacity="0.6"/>
<rect x="56" y="58" width="20" height="3" rx="1.5" fill="#BCD6BC"/>
<path d="M56 42.7273C56 41.7733 56.7733 41 57.7273 41H74.2727C75.2267 41 76 41.7733 76 42.7273V51.2727C76 52.2267 75.2267 53 74.2727 53H57.7273C56.7733 53 56 52.2267 56 51.2727V42.7273Z" fill="#437E47" fill-opacity="0.6"/>
<rect x="87" y="58" width="20" height="3" rx="1.5" fill="#BCD6BC"/>
<path d="M87 42.7273C87 41.7733 87.7733 41 88.7273 41H105.273C106.227 41 107 41.7733 107 42.7273V51.2727C107 52.2267 106.227 53 105.273 53H88.7273C87.7733 53 87 52.2267 87 51.2727V42.7273Z" fill="#437E47" fill-opacity="0.6"/>
</svg>
