<svg version="1.1" id="Layer_1" xmlns="http://www.w3.org/2000/svg"
    xmlns:xlink="http://www.w3.org/1999/xlink" x="0px" y="0px"
    viewBox="0 0 512 512" style="enable-background:new 0 0 512 512;" xml:space="preserve">
    <g>
        <path class="st0" d="M432,433.8h39.1c22.5,0,40.9-18.3,40.9-40.9v-352C512,18.3,493.7,0,471.1,0H432c-22.5,0-40.9,18.3-40.9,40.9
            v352C391.1,415.4,409.5,433.8,432,433.8z M433.8,391.1V42.6h35.6v348.5H433.8z"/>
        <path class="st0" d="M490.2,469.4H60.4c-9.8,0-17.8-8-17.8-17.8V21.3C42.6,9.6,33.1,0,21.3,0S0,9.6,0,21.3v430.2
            C0,484.9,27.1,512,60.4,512h429.7c11.8,0,21.3-9.6,21.3-21.3S501.9,469.4,490.2,469.4z"/>
        <path class="st0" d="M119.1,433.8h39.1c22.5,0,40.9-18.3,40.9-40.9V119.1c0-22.5-18.3-40.9-40.9-40.9h-39.1
            c-22.5,0-40.9,18.3-40.9,40.9v273.8C78.2,415.4,96.6,433.8,119.1,433.8z M120.9,391.1V120.9h35.6v270.3H120.9z"/>
        <path class="st0" d="M275.6,433.8h39.1c22.5,0,40.9-18.3,40.9-40.9V197.3c0-22.5-18.3-40.9-40.9-40.9h-39.1
            c-22.5,0-40.9,18.3-40.9,40.9v195.6C234.7,415.4,253,433.8,275.6,433.8z M277.3,391.1v-192h35.6v192H277.3z"/>
    </g>
</svg>
