<?xml version="1.0" encoding="utf-8"?>
<!-- Generator: Adobe Illustrator 27.7.0, SVG Export Plug-In . SVG Version: 6.00 Build 0)  -->
<svg version="1.1" id="Layer_1" xmlns="http://www.w3.org/2000/svg" xmlns:xlink="http://www.w3.org/1999/xlink" x="0px" y="0px"
	 viewBox="0 0 200 200" style="enable-background:new 0 0 200 200;" xml:space="preserve">
<style type="text/css">
	.st0{fill:#00B682;}
</style>
<g>
	<path class="st0" d="M95.6,73.8h49.2c4.8,0,8.7-3.9,8.7-8.7c0-4.8-3.9-8.7-8.7-8.7H95.6c-4.8,0-8.7,3.9-8.7,8.7
		C86.8,69.9,90.8,73.8,95.6,73.8z"/>
	<path class="st0" d="M75.8,107.7h49.2c4.8,0,8.7-3.9,8.7-8.7c0-4.8-3.9-8.7-8.7-8.7H75.8c-4.8,0-8.7,3.9-8.7,8.7
		C67.1,103.8,71,107.7,75.8,107.7z"/>
	<path class="st0" d="M113.6,133.6c0-4.8-3.9-8.7-8.7-8.7H55.7c-4.8,0-8.7,3.9-8.7,8.7c0,4.8,3.9,8.7,8.7,8.7h49.2
		C109.7,142.3,113.6,138.4,113.6,133.6z"/>
	<path class="st0" d="M181.1,93.6c-0.3-0.7-0.7-1.2-1.1-1.8l13.1-22.6c7.2-12.3,7.2-27,0.1-39.3c-7.1-12.3-19.8-19.7-34.1-19.7H99.7
		c-13.9,0-26.9,7.5-34,19.6l-58,99.9c-7.2,12.3-7.2,27-0.1,39.3c7.1,12.3,19.8,19.7,34.1,19.7h15H101h42.4
		c18.1,0,34.7-9.2,44.3-24.5c9.7-15.3,10.7-34.3,2.9-50.6L181.1,93.6z M56.7,170.2h-15c-7.6,0-14.3-3.9-18.1-10.5
		c-3.8-6.5-3.7-14.3,0.1-20.9l58-99.9c3.7-6.4,10.7-10.4,18.1-10.4h59.4c7.6,0,14.3,3.9,18.1,10.5c3.8,6.5,3.7,14.3-0.1,20.9
		l-58.1,99.9c-3.7,6.4-10.6,10.4-18,10.4H56.7z M172.2,154.3c-6.2,9.9-17,15.9-28.7,15.9h-9.1c0.2-0.4,0.5-0.7,0.7-1.1l33.9-58.3
		l5.2,10.7C179.1,132.1,178.4,144.4,172.2,154.3z"/>
</g>
</svg>
