<svg width="220" viewBox="0 0 366 85" fill="none" xmlns="http://www.w3.org/2000/svg">
<path d="M63.0434 32.6229H44.0487C42.1891 32.6229 40.6796 31.1131 40.6796 29.2531C40.6796 27.3931 42.1891 25.8832 44.0487 25.8832H63.0434C64.903 25.8832 66.4125 27.3931 66.4125 29.2531C66.4125 31.1131 64.903 32.6229 63.0434 32.6229Z" fill="#00B682"/>
<path d="M55.3974 45.7358H36.4026C34.5431 45.7358 33.0336 44.226 33.0336 42.366C33.0336 40.506 34.5431 38.9961 36.4026 38.9961H55.3974C57.2569 38.9961 58.7665 40.506 58.7665 42.366C58.7665 44.226 57.2569 45.7358 55.3974 45.7358Z" fill="#00B682"/>
<path d="M47.6529 59.1058H28.6472C26.7877 59.1058 25.2781 57.596 25.2781 55.736C25.2781 53.876 26.7877 52.3661 28.6472 52.3661H47.6529C49.5125 52.3661 51.022 53.876 51.022 55.736C51.022 57.596 49.5125 59.1058 47.6529 59.1058Z" fill="#00B682"/>
<path d="M46.1598 77H23.2162C17.7141 77 12.7863 74.1498 10.0462 69.3795C7.30613 64.6147 7.31707 58.9308 10.0845 54.1769L32.5085 15.5658C35.2322 10.8994 40.2639 8 45.6402 8H68.5838C74.0859 8 79.0137 10.8502 81.7538 15.6205C84.4939 20.3853 84.4829 26.0692 81.7155 30.8231L59.2915 69.4342C56.6006 74.1006 51.5634 77 46.1598 77ZM45.6402 15.1227C42.7853 15.1227 40.1108 16.6653 38.6669 19.149L16.2429 57.7601C14.7771 60.282 14.7662 63.2963 16.221 65.8291C17.6759 68.362 20.2902 69.8773 23.2162 69.8773H46.1598C49.0312 69.8773 51.7002 68.3401 53.1276 65.8674L75.5571 27.2454C77.0229 24.7235 77.0338 21.7092 75.579 19.1763C74.1241 16.6435 71.5098 15.1281 68.5838 15.1281H45.6402V15.1227Z" fill="#00B682"/>
<path d="M62.5512 77H29.0246C27.0557 77 25.4641 75.4026 25.4641 73.4387C25.4641 71.4748 27.0611 69.8774 29.0246 69.8774H62.5512C67.0852 69.8774 71.2364 67.5852 73.6483 63.7449C76.0658 59.8991 76.3337 55.1616 74.3648 51.0587L70.6567 43.3343C69.8034 41.5618 70.5527 39.4338 72.3248 38.5804C74.0968 37.727 76.2244 38.4764 77.0776 40.2489L80.7803 47.9733C83.8157 54.2918 83.4 61.6059 79.67 67.536C75.9454 73.4606 69.5409 77 62.5403 77H62.5512Z" fill="#00B682"/>
<path d="M124.384 42.1533C125.82 41.4325 126.913 40.4279 127.65 39.1338C128.387 37.8397 128.758 36.3819 128.758 34.7657C128.758 33.5044 128.534 32.3359 128.081 31.2603C127.633 30.1791 126.929 29.2455 125.979 28.4537C125.023 27.662 123.822 27.045 122.364 26.5918C120.906 26.1441 119.17 25.9148 117.155 25.9148H104.433C104.127 25.9148 103.882 26.1605 103.882 26.4662V59.4183C103.882 59.6749 104.056 59.8988 104.302 59.9534C105.672 60.2646 107.212 60.5212 108.927 60.7178C110.816 60.9362 112.82 61.0399 114.944 61.0399C117.641 61.0399 119.951 60.7997 121.878 60.3137C123.8 59.8278 125.378 59.1343 126.601 58.2389C127.824 57.3379 128.725 56.235 129.299 54.9191C129.872 53.6087 130.161 52.1399 130.161 50.5237C130.161 48.4707 129.659 46.7398 128.649 45.3147C127.639 43.895 126.219 42.8412 124.384 42.1587V42.1533ZM110.516 31.9209C110.516 31.6152 110.767 31.364 111.073 31.364H116.129C118.214 31.3312 119.732 31.708 120.688 32.4997C121.638 33.2914 122.118 34.3725 122.118 35.7376C122.118 37.1791 121.643 38.2984 120.688 39.112C119.732 39.9201 118.231 40.3241 116.183 40.3241H111.078C110.772 40.3241 110.521 40.0729 110.521 39.7672V31.9264L110.516 31.9209ZM121.605 54.4004C120.328 55.2631 118.269 55.6944 115.43 55.6944C114.387 55.6944 113.486 55.6671 112.732 55.6125C112.126 55.5689 111.531 55.487 110.952 55.3614C110.701 55.3068 110.521 55.0774 110.521 54.8208V46.0464C110.521 45.7406 110.767 45.4949 111.073 45.4949H116.669C119.006 45.4949 120.732 45.9426 121.851 46.8435C122.965 47.7445 123.522 48.9839 123.522 50.5674C123.522 52.26 122.883 53.5322 121.605 54.4004Z" fill="#16342F"/>
<path d="M273.916 31.2275C272.278 29.715 270.302 28.5466 267.981 27.7221C265.66 26.8976 263.078 26.4826 260.239 26.4826H250.612C250.312 26.4826 250.066 26.7283 250.066 27.0287V60.5213C250.066 60.8216 250.312 61.0673 250.612 61.0673H260.239C263.078 61.0673 265.66 60.6523 267.981 59.8278C270.302 59.0033 272.278 57.8239 273.916 56.2951C275.554 54.7662 276.821 52.9426 277.722 50.8186C278.623 48.6946 279.071 46.3412 279.071 43.7531C279.071 41.165 278.623 38.8062 277.722 36.6877C276.821 34.5637 275.554 32.7509 273.916 31.2384V31.2275ZM271.541 48.5471C270.984 49.9504 270.176 51.1571 269.111 52.1617C268.052 53.1719 266.747 53.9527 265.202 54.5096C263.657 55.0666 261.877 55.345 259.862 55.345H257.257C256.952 55.345 256.706 55.0993 256.706 54.7935V32.7564C256.706 32.4506 256.952 32.2049 257.257 32.2049H259.862C261.877 32.2049 263.657 32.4833 265.202 33.0403C266.747 33.5972 268.052 34.3889 269.111 35.4155C270.171 36.442 270.979 37.6705 271.541 39.112C272.098 40.5535 272.376 42.1314 272.376 43.8623C272.376 45.5932 272.098 47.1548 271.541 48.558V48.5471Z" fill="#16342F"/>
<path d="M305.798 38.7516C304.581 37.5995 303.172 36.7095 301.567 36.0816C299.961 35.4537 298.225 35.137 296.358 35.137C294.49 35.137 292.797 35.4591 291.176 36.1089C289.554 36.7586 288.14 37.665 286.944 38.8335C285.743 40.002 284.793 41.3779 284.089 42.9614C283.384 44.5448 283.029 46.2538 283.029 48.0885C283.029 50.0323 283.373 51.7959 284.061 53.3739C284.749 54.9573 285.699 56.3224 286.917 57.4745C288.135 58.6266 289.554 59.5166 291.176 60.1445C292.797 60.7724 294.528 61.0891 296.358 61.0891C298.187 61.0891 299.912 60.7669 301.517 60.1172C303.123 59.4674 304.531 58.572 305.749 57.4199C306.967 56.2678 307.928 54.8918 308.632 53.292C309.336 51.6922 309.691 49.9558 309.691 48.083C309.691 46.2102 309.347 44.4301 308.659 42.8467C307.971 41.2633 307.021 39.8982 305.804 38.7461L305.798 38.7516ZM302.675 50.8895C302.342 51.7522 301.861 52.5057 301.244 53.1555C300.627 53.8052 299.901 54.3076 299.077 54.6679C298.247 55.0283 297.34 55.2085 296.352 55.2085C295.364 55.2085 294.457 55.0283 293.627 54.6679C292.798 54.3076 292.077 53.8052 291.46 53.1555C290.843 52.5057 290.368 51.7522 290.029 50.8895C289.696 50.0268 289.527 49.0931 289.527 48.083C289.527 47.0729 289.696 46.1392 290.029 45.2765C290.362 44.4138 290.843 43.6603 291.46 43.0105C292.077 42.3608 292.798 41.8584 293.627 41.498C294.457 41.1377 295.364 40.9575 296.352 40.9575C297.34 40.9575 298.247 41.1377 299.077 41.498C299.907 41.8584 300.627 42.3608 301.244 43.0105C301.861 43.6603 302.336 44.4138 302.675 45.2765C303.008 46.1392 303.177 47.0729 303.177 48.083C303.177 49.0931 303.008 50.0268 302.675 50.8895Z" fill="#16342F"/>
<path d="M331.603 54.7226C330.576 55.0447 329.31 55.2085 327.797 55.2085C326.683 55.2085 325.657 55.0283 324.723 54.668C323.789 54.3076 322.976 53.8162 322.293 53.1828C321.611 52.5549 321.081 51.7959 320.699 50.9168C320.322 50.0377 320.131 49.0931 320.131 48.083C320.131 47.0729 320.322 46.0791 320.699 45.1946C321.076 44.3155 321.605 43.5565 322.293 42.9286C322.976 42.3007 323.795 41.8038 324.75 41.4434C325.7 41.0831 326.754 40.9029 327.906 40.9029C329.31 40.9029 330.522 41.0722 331.548 41.4161C331.92 41.5417 332.264 41.6728 332.586 41.8147C332.952 41.9731 333.356 41.7165 333.356 41.3179V36.5402C333.356 36.3109 333.214 36.1034 333.001 36.027C332.264 35.7649 331.461 35.5574 330.582 35.4045C329.555 35.2243 328.414 35.137 327.158 35.137C325.253 35.137 323.473 35.47 321.818 36.1362C320.164 36.8023 318.733 37.7196 317.527 38.8881C316.32 40.0566 315.37 41.4216 314.665 42.9887C313.967 44.5557 313.612 46.2539 313.612 48.0885C313.612 49.9231 313.945 51.5775 314.611 53.161C315.277 54.7444 316.205 56.1204 317.39 57.2888C318.575 58.4573 320 59.3855 321.654 60.0681C323.309 60.7506 325.144 61.0946 327.158 61.0946C328.594 61.0946 329.79 60.9799 330.746 60.7451C331.537 60.5486 332.285 60.3356 332.99 60.1063C333.214 60.0353 333.361 59.8224 333.361 59.5876V54.8754C333.361 54.4878 332.968 54.2257 332.608 54.3731C332.296 54.4987 331.963 54.6188 331.608 54.728L331.603 54.7226Z" fill="#16342F"/>
<path d="M245.299 35.137H244.382C242.438 35.137 240.8 35.5956 239.473 36.5129C238.141 37.4303 237.207 38.5714 236.667 39.9365L236.334 35.7376C236.312 35.4373 236.044 35.208 235.739 35.2353L230.884 35.6775C230.59 35.7048 230.371 35.9615 230.388 36.2563L230.835 42.9013V60.5049C230.835 60.8106 231.081 61.0564 231.387 61.0564H236.76C237.065 61.0564 237.311 60.8106 237.311 60.5049V48.4052C237.311 46.2812 237.884 44.5558 239.036 43.2235C240.189 41.8912 241.805 41.2251 243.891 41.2251C244.338 41.2251 244.77 41.2469 245.174 41.296C245.501 41.3343 245.78 41.0776 245.78 40.75V35.4919C245.78 35.4919 245.758 35.1261 245.294 35.1261L245.299 35.137Z" fill="#16342F"/>
<path d="M223.481 54.0236C222.907 54.3458 222.296 54.6188 221.646 54.8317C220.996 55.0501 220.281 55.2194 219.489 55.345C218.698 55.4706 217.819 55.5361 216.847 55.5361C214.362 55.5361 212.424 54.9682 211.021 53.838C209.617 52.7023 208.809 51.2226 208.591 49.388C209.132 50.0377 209.978 50.5401 211.124 50.9004C212.277 51.2608 213.609 51.441 215.116 51.441C218.496 51.4082 221.111 50.6656 222.968 49.2296C224.819 47.7936 225.747 45.757 225.747 43.1306C225.747 40.8264 224.911 38.9209 223.241 37.4138C221.57 35.9014 219.113 35.1479 215.875 35.1479C213.898 35.1479 212.064 35.4919 210.371 36.1744C208.678 36.8569 207.215 37.8015 205.976 39.0082C204.736 40.2149 203.77 41.6345 203.087 43.2726C202.405 44.9106 202.061 46.6961 202.061 48.6399C202.061 50.5837 202.394 52.2709 203.06 53.8216C203.726 55.3668 204.654 56.6827 205.839 57.7584C207.024 58.8395 208.449 59.664 210.103 60.2427C211.758 60.8161 213.576 61.1054 215.553 61.1054C217.709 61.1054 219.544 60.8816 221.056 60.4284C222.422 60.0243 223.519 59.5657 224.354 59.0579C224.518 58.9596 224.606 58.7849 224.606 58.5938V54.3294C224.606 53.909 224.147 53.6414 223.781 53.8598C223.683 53.9199 223.579 53.9799 223.481 54.0345V54.0236ZM211.07 42.2898C212.435 41.1213 214.035 40.5371 215.869 40.5371C216.95 40.5371 217.813 40.7773 218.457 41.2633C219.107 41.7492 219.429 42.4426 219.429 43.3381C219.429 43.9879 219.238 44.5612 218.862 45.0635C218.485 45.5659 217.873 45.9808 217.027 46.303C216.181 46.6251 215.067 46.8599 213.68 47.0019C212.293 47.1438 210.595 47.1821 208.58 47.1111C208.869 45.0635 209.694 43.4528 211.064 42.2843L211.07 42.2898Z" fill="#16342F"/>
<path d="M355.655 48.225C354.393 46.9855 352.253 46.0409 349.234 45.3912C348.049 45.14 347.077 44.9161 346.318 44.7141C345.564 44.5175 344.975 44.3101 344.565 44.0917C344.15 43.8732 343.866 43.6494 343.702 43.4146C343.539 43.1798 343.462 42.9013 343.462 42.5792C343.462 41.105 344.975 40.3678 347.994 40.3678C349.359 40.3678 350.719 40.5316 352.067 40.8538C352.974 41.0722 353.858 41.3834 354.721 41.782C355.081 41.9458 355.491 41.6783 355.491 41.2797V36.846C355.491 36.6222 355.36 36.4201 355.158 36.3328C354.202 35.9396 353.165 35.6448 352.04 35.4537C350.779 35.2353 349.43 35.1315 347.994 35.1315C346.378 35.1315 344.909 35.3117 343.599 35.6721C342.283 36.0325 341.153 36.5457 340.197 37.2119C339.242 37.878 338.515 38.6861 338.013 39.6416C337.511 40.5972 337.26 41.6455 337.26 42.7976C337.26 44.8506 337.909 46.4777 339.203 47.679C340.497 48.8857 342.55 49.7757 345.351 50.349C346.575 50.5674 347.574 50.7803 348.344 50.9987C349.119 51.2171 349.731 51.4465 350.178 51.6976C350.626 51.9488 350.932 52.2218 351.096 52.5057C351.259 52.7951 351.336 53.1337 351.336 53.5323C351.336 55.0775 349.698 55.8528 346.427 55.8528C344.811 55.8528 343.178 55.6017 341.546 55.0993C340.465 54.7662 339.433 54.3076 338.455 53.7343C338.089 53.5213 337.636 53.7834 337.636 54.2093V58.6976C337.636 58.905 337.751 59.1016 337.937 59.1944C339.209 59.8333 340.53 60.3028 341.895 60.6031C343.369 60.9253 345.007 61.0891 346.804 61.0891C350.042 61.0891 352.641 60.3957 354.601 59.0142C356.561 57.6274 357.544 55.7327 357.544 53.3193C357.544 51.1625 356.916 49.459 355.655 48.2195V48.225Z" fill="#16342F"/>
<path d="M196.158 54.941C195.405 55.2304 194.433 55.3723 193.242 55.3723C192.052 55.3723 190.987 55.0229 190.141 54.3185C189.295 53.6196 188.874 52.402 188.874 50.6766V41.1814H196.961C197.261 41.1814 197.507 40.9357 197.507 40.6354V36.2236C197.507 35.9232 197.261 35.6775 196.961 35.6775H188.874V28.421C188.874 28.0934 188.585 27.8368 188.257 27.875L182.934 28.5466C182.661 28.5793 182.453 28.8141 182.453 29.0871L182.399 51.7522C182.399 54.8809 183.245 57.2179 184.932 58.7685C186.625 60.3138 188.869 61.0891 191.675 61.0891C193.04 61.0891 194.203 60.9635 195.154 60.7124C196.104 60.4612 196.89 60.1554 197.501 59.7951V59.7732V55.1921C197.501 54.7935 197.092 54.5315 196.732 54.6953C196.551 54.7772 196.36 54.8591 196.153 54.941H196.158Z" fill="#16342F"/>
<path d="M176.212 54.941C175.459 55.2304 174.487 55.3723 173.297 55.3723C172.106 55.3723 171.041 55.0229 170.195 54.3185C169.349 53.6196 168.928 52.402 168.928 50.6766V41.1814H176.993C177.293 41.1814 177.539 40.9357 177.539 40.6354V36.229C177.539 35.9287 177.293 35.683 176.993 35.683H168.928V28.4264C168.928 28.0988 168.639 27.8422 168.311 27.8804L162.988 28.552C162.715 28.5848 162.507 28.8196 162.507 29.0926L162.453 51.7577C162.453 54.8864 163.299 57.2233 164.986 58.774C166.679 60.3192 168.923 61.0946 171.729 61.0946C173.094 61.0946 174.257 60.969 175.208 60.7178C176.005 60.5103 176.682 60.2592 177.239 59.9752C177.419 59.8824 177.523 59.6913 177.523 59.4893V55.214C177.523 54.8154 177.113 54.5478 176.747 54.7171C176.578 54.7935 176.392 54.87 176.201 54.9464L176.212 54.941Z" fill="#16342F"/>
<path d="M155.819 54.0236C155.245 54.3458 154.634 54.6188 153.984 54.8317C153.334 55.0501 152.619 55.2194 151.827 55.345C151.035 55.4706 150.156 55.5361 149.184 55.5361C146.7 55.5361 144.762 54.9682 143.358 53.838C141.955 52.7023 141.147 51.2226 140.929 49.388C141.469 50.0377 142.316 50.5401 143.462 50.9004C144.614 51.2608 145.947 51.441 147.454 51.441C150.833 51.4082 153.449 50.6656 155.305 49.2296C157.156 47.7936 158.085 45.757 158.085 43.1306C158.085 40.8264 157.249 38.9209 155.578 37.4138C153.908 35.9014 151.45 35.1479 148.213 35.1479C146.236 35.1479 144.401 35.4919 142.709 36.1744C141.016 36.8569 139.553 37.8015 138.313 39.0082C137.074 40.2149 136.107 41.6345 135.425 43.2726C134.742 44.9106 134.398 46.6961 134.398 48.6399C134.398 50.5837 134.731 52.2709 135.398 53.8216C136.064 55.3668 136.992 56.6827 138.177 57.7584C139.362 58.8395 140.787 59.664 142.441 60.2427C144.096 60.8161 145.914 61.1054 147.89 61.1054C150.047 61.1054 151.882 60.8816 153.394 60.4284C154.765 60.0189 155.868 59.5602 156.703 59.0524C156.861 58.9541 156.954 58.7794 156.954 58.5883V54.3185C156.954 53.898 156.496 53.6305 156.135 53.8489C156.032 53.9144 155.928 53.9745 155.824 54.0345L155.819 54.0236ZM143.408 42.2898C144.773 41.1213 146.372 40.5371 148.207 40.5371C149.288 40.5371 150.151 40.7773 150.795 41.2633C151.445 41.7492 151.767 42.4426 151.767 43.3381C151.767 43.9879 151.576 44.5612 151.199 45.0635C150.823 45.5659 150.211 45.9808 149.365 46.303C148.518 46.6251 147.404 46.8599 146.018 47.0019C144.631 47.1438 142.933 47.1821 140.918 47.1111C141.207 45.0635 142.032 43.4528 143.402 42.2843L143.408 42.2898Z" fill="#16342F"/>
</svg>
