<svg width="48" height="56" viewBox="0 0 24 23.9" fill="currentColor" xmlns="http://www.w3.org/2000/svg"><path d="M4.5,4.5L4.5,4.5L4.5,4.5l0,17.2c0,0.3,0.3,0.6,0.6,0.6h13.8c0.3,0,0.6-0.3,0.6-0.6V4.5H4.5z M19,18.6
        c0,0.2-0.2,0.4-0.4,0.4H5.4C5.2,19,5,18.8,5,18.6V5.4C5,5.2,5.2,5,5.4,5h13.1C18.8,5,19,5.2,19,5.4V18.6z"></path><path d="M19.1,0.1L4.2,1.7l0.3,2.8l14.9-1.6L19.1,0.1z M6.8,3.8L4.9,4l1.7-2.1l1.9-0.2L6.8,3.8z M10.5,3.4L8.6,3.6l1.7-2.1l1.9-0.2 L10.5,3.4z M14.2,3l-1.9,0.2L14,1.1l1.9-0.2L14.2,3z M18,2.6l-1.9,0.2l1.7-2.1l0.9-0.1l0.1,0.9L18,2.6z"></path></svg>