<?xml version="1.0" encoding="utf-8"?>
<!-- Generator: Adobe Illustrator 20.0.0, SVG Export Plug-In . SVG Version: 6.00 Build 0)  -->
<svg version="1.1" id="Layer_1" xmlns="http://www.w3.org/2000/svg" xmlns:xlink="http://www.w3.org/1999/xlink" x="0px" y="0px"
	 viewBox="0 0 512 512" style="enable-background:new 0 0 512 512;" xml:space="preserve">
<style type="text/css">
	.st0{fill:#26A6D1;}
</style>
<path class="st0" d="M255.7,512C114.3,511.6-0.4,396.6,0,255.6C0.4,114.2,115.5-0.5,256.5,0C398,0.5,512.5,115.6,512,256.7
	C511.5,397.8,396.4,512.4,255.7,512z M137.9,216.7c-21.7-0.1-39.1,17.2-39.4,39.1c-0.3,21.7,17.5,39.5,39.6,39.5
	c21.3,0,39-17.6,39.2-38.8C177.5,234.6,159.9,216.8,137.9,216.7z M374,295.3c21.9,0,39.6-17.7,39.5-39.5
	c-0.2-21.7-17.7-39.1-39.3-39.1c-22,0-39.6,17.6-39.5,39.4C334.8,277.7,352.4,295.3,374,295.3z M255.9,216.7
	c-22,0.1-39.3,17.6-39.2,39.7c0.1,21.6,17.6,38.9,39.4,38.9c21.6,0,39.2-17.5,39.2-39.1C295.3,234.2,277.9,216.7,255.9,216.7z"/>
</svg>
