<svg width="372" height="261" fill="none" xmlns="http://www.w3.org/2000/svg"><path d="M335.68 34.222H54.096a5 5 0 00-5 5v203.296a5 5 0 005 5H335.68a5 5 0 005-5V39.222a5 5 0 00-5-5z" fill="#F8F8F8"/><path d="M72.715 52.704a9.414 9.414 0 009.414 9.414h14.32c2.573 1.968 6.079 4.453 7.253 4.347 1.136-.1.208-2.937-.749-5.257a9.411 9.411 0 00-4.043-17.913H82.129a9.414 9.414 0 00-9.414 9.409z" fill="#83B2DD"/><path d="M102.473 52.996a2.595 2.595 0 10-5.05-1.192 2.595 2.595 0 005.05 1.192zm-9.232-.002a2.594 2.594 0 10-5.049-1.192 2.594 2.594 0 005.05 1.192zm-8.807 0a2.594 2.594 0 10-5.049-1.192 2.594 2.594 0 005.05 1.192z" fill="#fff"/><path d="M79.765 19.671H63.371a9.2 9.2 0 00-3.953 17.507c-.936 2.266-1.842 5.035-.732 5.136 1.146.1 4.572-2.323 7.085-4.246h13.99a9.2 9.2 0 006.506-15.702 9.2 9.2 0 00-6.502-2.695z" fill="#BDDAF0"/><path d="M62.762 31.072a2.534 2.534 0 10-.812-5.003 2.534 2.534 0 00.812 5.003zm8.612.032a2.534 2.534 0 100-5.068 2.534 2.534 0 000 5.068zm8.604 0a2.534 2.534 0 100-5.068 2.534 2.534 0 000 5.068z" fill="#fff"/><path d="M13.882 187.39l4.814-3.914-3.052-3.7-2.842 6.139 1.08 1.475zm13.988-23.966c-.28-.113.072 2.12-1.08 1.962-1.152-.158-1.525-.71-1.432-1.813.021-.252-.176-.893.08-.885.9.027.135-2.292-.422-1.638-.666.781-.794 1.113-1.137.617a1.43 1.43 0 00-.7-1.208c-.685-.315-.934-.513-1.214.434-.28.947-1.079 3.237-1.8 2.922-.721-.315-1.193-3.71-1.1-4.578a4.318 4.318 0 011.415-2.217c.591-.631 1.541-1.095 1.884-1.45.343-.355 1.415-1.128 2.068-.222.653.906.98.823 1.684.723 1.537-.217 2.006-.344 2.317 1.312.311 1.656 1.231.8 1.28 3.266.019.679-.567 3.287-1.843 2.775z" fill="#EB7B31"/><path d="M42.57 244.772a17.625 17.625 0 01-3.725-1.13.782.782 0 010 .278c-.24.08-2.282 1.121-3.284 1.635a74.977 74.977 0 00-.018 1.454s7.775.213 8.307-.107.85-1.811-1.28-2.13zm-22.922-.465a11.278 11.278 0 00-1.573 3.02c.106.532 4.579-.106 5.005-.426.285-.213-.1-1.565-.38-2.441l-3.028.1-.024-.253z" fill="#062844"/><path d="M23.205 242.627l-.231 1.826a8.119 8.119 0 00.231-1.826z" fill="#203E6E"/><path d="M38.845 243.641a212.975 212.975 0 00-1.6-24.762 161.081 161.081 0 00-4.547-20.236l-.106-5.862H18.569s-.052 2.315-.184 4.953l2.826.157 7.625.214-2.095 16.563 3.865 6.483 4.4 24.684.55-.282c1-.513 3.044-1.554 3.284-1.634a.785.785 0 00.005-.278z" fill="#065C8F"/><path d="M18.086 224.508a555.448 555.448 0 001.562 19.8l.025.251s-.889-12.446-1.587-20.051z" fill="#203E6E"/><path d="M21.212 197.892l-2.826-.157-1.04-.058s-.429 17.5.215 21.907c.143.978.327 2.755.526 4.927.7 7.6 1.586 20.047 1.586 20.047l3.028-.1.274-.009.231-1.827 3.536-27.956 2.095-16.563-7.625-.211z" fill="#2376B2"/><path d="M26.961 167.417v2.862l-1.851 1.211s-3.953-1.754-3.967-1.823a19.796 19.796 0 01-.084-1.044c0-.125-.056-3.856-.056-3.856l3.02 2.533 2.938.117z" fill="#F6B0A1"/><path d="M21.553 170.019s-.418 3.538-.369 3.686c.049.148 2.654 4.079 2.875 4.693.221.614 4.2 6.585 4.2 6.585l.958-8.575s-.049-2.654-.123-2.973c-.074-.319-2.015-3.317-2.015-3.317s-1.128.882-1.412.773c-.284-.109-2.643-.675-2.716-.675-.073 0-1.398-.197-1.398-.197z" fill="#A7D6F1"/><path d="M27.898 162.756s.548-.571.617-.182c.069.389-.251 2.65-.617 2.741 0 0-.366 1.828-.937 2.1-.571.272-1.394 1.485-2.445 1.394a5.74 5.74 0 01-3.176-2.284c-.16-.571-.48-1.485-.48-1.485s-.685-.023-.823-.3c-.138-.277-.274-2.468-.023-2.49.189-.003.376.036.548.114 0 0 .137-3.678.206-3.77.069-.092 2.17-1.257 2.17-1.257l2.742.023s.091.434.206.48c.115.046 1.782.96 1.782.96l.23 3.956z" fill="#F8C0BD"/><path d="M25.636 158.3c-.433.056-1.325.434-1.394.366a1.723 1.723 0 00-1.577-.3c-.891.252-1.554 1.691-1.6 1.965-.046.274-.5 2.033-.5 2.033s-.548-.182-.571.046c-.035.21-.088.416-.16.617 0 0 .091-2.742.046-3.313a3.79 3.79 0 011.407-2.651 3.803 3.803 0 012.893-.799 4.18 4.18 0 014.158 3.176l.068 2.9s-.388.594-.457.571a18.25 18.25 0 00-.434-3.13c-.348-.704-.988-1.595-1.879-1.481z" fill="#EB7B31"/><path d="M23.684 161.378c-.153.394-.7-.013-1.13.065-.43.078-1.325.688-1.234.312a1.215 1.215 0 011.065-.909c.546.013 1.455.13 1.299.532z" fill="#EB7B31"/><path d="M22.318 162.359a.298.298 0 00.225.226.301.301 0 00.301-.104.3.3 0 00-.231-.488.334.334 0 00-.295.366z" fill="#203F6F"/><path d="M25.918 165.418c-.514.049-1.03.062-1.545.039-.221 0-1.558-.091-1.558-.091a1.522 1.522 0 001.428.831 2.144 2.144 0 001.675-.779z" fill="#fff"/><path d="M24.89 161.378c.153.394.7-.013 1.13.065.43.078 1.324.688 1.234.312a1.215 1.215 0 00-1.065-.909c-.546.013-1.455.13-1.299.532z" fill="#EB7B31"/><path d="M26.254 162.359a.3.3 0 11-.294-.365.334.334 0 01.294.365z" fill="#203F6F"/><path d="M27.312 172.812c-.111-.112-1.113-1.837-1.642-1.921l-.779-.125a20.257 20.257 0 00-1.517 1.963c-.056.236-2.324-2.645-2.422-2.784a2.216 2.216 0 01-.348-.988c.056-.209.334-.7.39-.668.056.032 3.577 2.088 3.855 2.185.278.097.626.348.947.139.321-.209 1.392-1.447 1.392-1.406.12.315.209.641.264.974-.028.195-.14 2.631-.14 2.631z" fill="#7DBBE4"/><path d="M26.31 172.31c.014-.042.084-.793.084-.793l-.654-.807a4.22 4.22 0 00-.891-.056c-.279.34-.535.698-.766 1.072l.766.7-.1 5.215 3.514 7.347.541-3.44s-1.7-6.463-1.769-6.56c-.069-.097-.688-1.671-.713-1.818-.025-.147-.012-.86-.012-.86z" fill="#065C8F"/><path d="M28.616 171.518s4.386 1.843 4.5 2.175a23.2 23.2 0 01.258 6.118c-.332 2.1-1.253 9.214-1.216 9.62.037.406 2.285 8.514 2.654 10.91a34.64 34.64 0 01.295 5.234 2.897 2.897 0 01-1.68.172 2.896 2.896 0 01-1.49-.798c-1.364-1.438-2.4-5.824-2.4-5.824s-2.138-7.113-2.211-8.072c-.073-.959 1.437-8.146 1.437-8.256 0-.11 1.253-6.929 1.143-7.187-.11-.258-1.29-4.092-1.29-4.092z" fill="#F19634"/><path d="M19.071 170.192a27.39 27.39 0 00-3.28 1.438 12.973 12.973 0 011.437 6.008c.037 3.686-.737 10.725-.737 10.725s-1.106 17.8-.184 18.06c.922.26 10.652.147 11.315-1.843.663-1.99 2.543-6.6 2.1-9.067a61.929 61.929 0 01-.233-8.539l-2.273-3.919-8.145-12.863z" fill="#F19634"/><path d="M28.028 187.625a.553.553 0 100-1.106.553.553 0 000 1.106zm.221 5.418a.553.553 0 100-1.107.553.553 0 000 1.107zm-10.968 4.972c1.511-.037 6.413-.774 6.413-.774.236.846.408 1.708.516 2.58-.11.11-6.008.074-6.008.074l-.921-1.88z" fill="#EB7B31"/><path d="M24.1 164.471h.018c.31-.047.61-.141.891-.279.237-.142.133-.5-.01-1a4.785 4.785 0 01-.228-1.126.115.115 0 00-.036-.079.11.11 0 00-.08-.03.106.106 0 00-.08.035.115.115 0 00-.03.081c.03.402.11.799.237 1.182.084.29.2.688.111.741-.256.122-.53.206-.81.249a.112.112 0 00-.098.121.112.112 0 00.037.075c.022.02.05.03.079.029l-.001.001z" fill="#ECA0A9"/><path d="M20.373 168.746a13.5 13.5 0 00-1.573 1.573c-.025.2.516 2.506.516 2.506l1.081-.123-.1 1.032s9.239 13.318 9.19 13.244c-.049-.074-2.064-6.02-3.1-7.494-1.036-1.474-2.826-5.627-4.177-7.691a35.022 35.022 0 01-1.837-3.047z" fill="#EB7B31"/><path d="M29.649 171.96c-.774-.553-2.221-2.085-2.2-1.78.021.305.65 2.037.834 3.033.184.996 0 11.426 0 11.426a9.392 9.392 0 002.175-5.566 49.626 49.626 0 00-.11-5.676l-.885-.369.479-.405-.293-.663z" fill="#EB7B31"/><path d="M17.438 183.841a4.451 4.451 0 01-.492.427c-.192.129-.278.492-.706.514-.562.081-1.12.195-1.668.342l-.043-2.781a1.188 1.188 0 00.92-1.005c.19-.701.448-1.381.77-2.032.435.347.849.718 1.241 1.113 0 .085-.086 2.866-.086 2.866l.064.556z" fill="#F6B0A1"/><path d="M43.448 163.74c-.346-.194-2.649 3.035-2.649 3.035l-.288-.71c-.4-1.55-1.324-.581-1.324-.581.435 1.029.8 2.086 1.094 3.164.051.455.075.914.071 1.372.084-.132.158-.209.217-.209l1.929 1.209a13.516 13.516 0 002.333-3.792 3.239 3.239 0 00-1.383-3.488z" fill="#F8C4C9"/><path d="M40.352 170.02c-.9 1.415-3.047 9.685-3.047 9.685-.894-1.824-2.2-5.165-4.688-6.514-.572-.309-.515.105.022 7.358.066.891.117 1.8.158 2.711 1.83 2.023 4.576 5.051 4.719 5.148 5.186 3.545 5.01-17.371 5.01-17.371l-.029-.018-1.929-1.209c-.058 0-.132.077-.216.21z" fill="#EB7B31"/><path d="M52.051 158.535l-7.358 1.484-7.245 9.6 3.509 2.763 11.606-4 2.1-6.092a3.421 3.421 0 01-2.612-3.755z" fill="#F8C694"/><path d="M52.051 158.535a3.42 3.42 0 002.611 3.757l1.586-4.6-4.197.843z" fill="#134C7D"/><path d="M11.167 196.82l33.681-31.69-.155-5.111-34.931 32.867 1.387 3.915.018.019zm-4.469 4.163l-.969-4.307-5.537 5.209.155 5.111 6.369-5.993-.018-.02z" fill="#4491BE"/><path d="M6.717 201.007l-6.369 5.992 2.623 2.788 6.37-5.993-2.624-2.787zm7.049-1.426l.036.016 33.67-31.68-2.623-2.788-33.681 31.69 2.598 2.762z" fill="#4DA5D9"/><path d="M9.341 203.795l-6.369 5.993 5.092.465 5.3-4.984-3.979-1.431-.044-.043zm38.13-35.877l-33.67 31.675 3.777 1.7 34.985-32.917-5.092-.458z" fill="#134C7D"/><path d="M6.717 201.007l4.45-4.187-.019-.02-1.387-3.915-4.032 3.794.969 4.308.019.02z" fill="#7DBBE4"/><path d="M11.167 196.82l-4.45 4.187 2.623 2.788 4.461-4.2-.036-.016-2.598-2.759z" fill="#A7D6F1"/><path d="M9.34 203.795l.041.043 3.979 1.431 4.222-3.969-3.777-1.7-4.465 4.195z" fill="#7DBBE4"/><path d="M25.415 187.684l-.046.016.778 2.554a58.63 58.63 0 001.177-.154c.273-.038.559-.08.874-.127 3.844-.581 2.721-2.18 2.721-3.1 0-.92-3.8-.436-3.8-.436s.864-1.841.561-1.986c-.141-.068-.591.612-1.032 1.357-.505.853-1 1.791-1 1.791l-.233.085z" fill="#F8C4C9"/><path d="M25.924 191.078c.238-.207.373-.33.373-.33l-.151-.494-.778-2.554-.281-.923-6.883 2.89c-.659-7.159-.971-17.077-1.936-18.157a.214.214 0 00-.238-.088.215.215 0 00-.079.044c-8.552 6.49-3.193 20.423-.861 23.91a1.939 1.939 0 001.59.862c2.898.169 7.855-3.95 9.244-5.16z" fill="#EB7B31"/><path d="M264.332 3.555a5.67 5.67 0 00-.854-2 1.32 1.32 0 01-.3.126c-.211.054-.418.12-.621.2.006 0-.306.153-.37.189-.064.036-.143.085-.214.128a.707.707 0 01.391.463c.317.807.459.788.348 1.664a7.13 7.13 0 01-1.5 3.818c-.242.316-1.3.108-1.747.186-.3.023-1.178.969-1.278 1.236-.1.267-.589 1.781-.682 2.045a8.482 8.482 0 00.214 3.2c.292.88 2.15-.857 2.676-.1.066.094.14.2.286.126a.763.763 0 00.166-.423 19.618 19.618 0 011.021-3.145c.489-1.277 1.075-2.512 1.622-3.765.397-.843.681-1.736.843-2.654a3.374 3.374 0 00-.001-1.294z" fill="#041C33"/><path d="M265.328 48.214l-1.069 3.03-1.471-.833 1.31-3.412 1.23 1.215zm12.209-2.291l1.149 3-1.66.319-1.213-3.448 1.724.129z" fill="#F8C1C0"/><path d="M262.532 48.222l3.256.7 6.194-15.388-3.831-1.6-2.266 1.158-.607.311 1.213.383-3.959 14.436z" fill="#065C8F"/><path d="M252.379 27.917c0-.061.192 6.382 2.554 6.9 4.406.958 15.771-1.149 15.771-1.149l4.661 13.409 3.256-.894s-2.937-11.685-3.639-13.026c-.702-1.341-2.043-4.023-2.873-3.831-.83.192-11.3-1.341-11.3-1.341l-.894-.958-7.536.89z" fill="#2376B2"/><path d="M259.531 14.637c-.085-.341-.681-2.724-.851-3.491a6.025 6.025 0 01.6-2.469 5.435 5.435 0 002.384 0c.6-.341 3.15-4.512 3.15-4.512l-1.979-2.524-1.256-1.307-2.554 2.809-3.15 6.555-.086 3.15 3.742 1.789z" fill="#F8C1C0"/><path d="M256.593 10.869a4.237 4.237 0 001.086 2.107 22.606 22.606 0 011.852 1.66c.432.939.63 1.968.575 3-.128 1.6-.83 4.789-.32 6.13.51 1.341 1.469 3.257 1.469 3.257a23.293 23.293 0 01-8.364 1.468l-1.661-.447c.456-1.928.734-3.895.83-5.874-.128-1.6 1.915-8.62 2.426-9.322a16.414 16.414 0 012.107-1.979z" fill="#EE7A30"/><path d="M266.555 26.96s-.255-1.852-.766-2.043a7.888 7.888 0 00-3.767-.192c-1.085.383-6.385-1.022-6.832-1.341-.447-.319.127-3.448.127-3.448l-1.469.447s-.639 4.278-.128 4.47c.511.192 7.407 1.149 7.854 1.341.749.301 1.566.39 2.362.255.383-.255.958-.958 1.214-.83s1.085 1.979 1.405 1.341z" fill="#F8C1C0"/><path d="M265.623 26.442l-9.122.438 6.755 1.3 2.77-.274-.403-1.464z" fill="#65A0D0"/><path d="M265.604 28.002l13.168 1.213a.59.59 0 00.639-.531l2.114-9.251a.59.59 0 00-.531-.639l-13.168-1.213a.59.59 0 00-.639.531l-2.114 9.252a.585.585 0 00.531.638z" fill="#2575B3"/><path d="M266.534 28.087l13.168 1.213a.59.59 0 00.639-.531l2.114-9.252a.587.587 0 00-.531-.639l-13.168-1.211a.589.589 0 00-.639.531l-2.114 9.251a.585.585 0 00.531.638z" fill="#B9DDFC"/><path d="M280.169 30.146l-23.821-2.36a.24.24 0 01-.16-.086.24.24 0 01-.052-.173l.044-.442a.236.236 0 01.259-.212l23.821 2.361a.24.24 0 01.16.086.24.24 0 01.052.173l-.044.442a.24.24 0 01-.259.211z" fill="#2575B3"/><path d="M255.615 21.171s1.4-9.066-.027-9.2c-1.427-.134-2.29 9.445-2.29 9.445l2.317-.245z" fill="#F49833"/><path d="M261.767 7.393l-.037-.015a2.982 2.982 0 01-1.124-.626.074.074 0 00-.1-.026.073.073 0 00-.026.1c.334.322.742.557 1.188.684a1.39 1.39 0 01.099-.117zm.885-.619a1.84 1.84 0 01-.424.042.074.074 0 01-.051-.023.076.076 0 01-.02-.053.075.075 0 01.076-.07 1.66 1.66 0 00.5-.07s.066-.025.021-.346a7.111 7.111 0 00-.154-.707c-.04-.158-.075-.295-.087-.379a.1.1 0 01-.001-.03.073.073 0 01.034-.048.07.07 0 01.028-.01.07.07 0 01.029.001.074.074 0 01.046.037.073.073 0 01.008.029c.011.076.045.21.084.364.17.67.272 1.151.036 1.228a.834.834 0 01-.125.035z" fill="#EBA2AB"/><path d="M261.861 4.322c.057.11-1.63.152-1.6-.026.03-.178 1.483-.204 1.6.026zm1.184-.006c-.148.174.891.739.9.65.009-.089-.716-.865-.9-.65zm-1.721.564c.023.132-.2.3-.268.172s.235-.358.268-.172zm2.064.398c.024.132-.2.3-.268.173s.235-.36.268-.173z" fill="#041C33"/><path d="M261.781.135l.264.064c.109.072.24.104.37.09l.264.064a4.32 4.32 0 012.762 3.416c.084.43.084.87 0 1.3-.162.918-.446 1.81-.843 2.654-.547 1.252-1.134 2.488-1.623 3.765a19.621 19.621 0 00-1.021 3.145.763.763 0 01-.166.423c-.146.076-.221-.032-.286-.126a9.648 9.648 0 01-1.273-2.444 2.752 2.752 0 01.06-1.809c.093-.267.188-.53.287-.789.1-.267.5-.762.806-.784.397-.115.734-.38.938-.74a7.139 7.139 0 001.5-3.818c.112-.875-.03-.856-.348-1.663-.193-.491-.472-.6-.954-.382-.664.3-2.6 1.167-2.8 1.715-.03.085-.047.175-.084.258-.125.276-.294.365-.562.228-.38-.194-.639.037-.609.479a.712.712 0 00.4.583.652.652 0 01.337.753 34.19 34.19 0 01-.322 2.036 3.53 3.53 0 01-2.085 2.605c-.446.191-.86 1.29-1.336 1.23-.494-.063-.951 1.389-1.449 1.449-.2.016-1 .028-.763-2.16.027-.251-.339-1.792.238-2.714.437-.7.776-1.453 1.157-2.183a25.417 25.417 0 012.535-3.981 10.664 10.664 0 012.21-2.076 4.197 4.197 0 011.807-.627c.197-.04.39.059.589.039z" fill="#041C33"/><path d="M261.781.426l.264.064c.109.072.24.104.37.09l.265.064a4.33 4.33 0 012.761 3.416c.084.43.084.87 0 1.3a10.53 10.53 0 01-.843 2.654c-.547 1.252-1.134 2.488-1.623 3.764a19.624 19.624 0 00-1.021 3.145.763.763 0 01-.166.423c-.146.076-.221-.032-.286-.126a9.648 9.648 0 01-1.273-2.444 2.758 2.758 0 01.06-1.809c.093-.267.188-.53.287-.789.1-.267.5-.762.806-.784.397-.115.734-.38.938-.74a7.13 7.13 0 001.5-3.818c.112-.875-.03-.856-.348-1.664-.193-.491-.471-.6-.953-.382-.664.3-2.6 1.167-2.8 1.715-.03.085-.047.175-.084.258-.125.276-.294.365-.562.228-.38-.194-.639.037-.609.479a.707.707 0 00.4.583.652.652 0 01.338.753 34.19 34.19 0 01-.322 2.036 3.533 3.533 0 01-2.085 2.6c-.446.191-.86 1.29-1.336 1.23-.494-.063-.951 1.389-1.449 1.449-.2.016-1.567.116-1.333-2.072a7.997 7.997 0 01.807-2.8c.438-.7.776-1.453 1.157-2.183a25.414 25.414 0 012.535-3.981 10.66 10.66 0 012.211-2.076 4.197 4.197 0 011.807-.627c.195-.035.388.064.587.044z" fill="#041C33"/><path d="M262.962 49.564l1.866.283a.62.62 0 01.244.093 12.818 12.818 0 003.565 1.765c1.039.08 2.078 1.039 1.039 1.2-.842.129-5.353-.161-7.036-.275a.613.613 0 01-.545-.433c-.024-.079-.033-.162-.024-.244l.189-1.841a.614.614 0 01.702-.548zm13.81-1.352l1.865-.28a.613.613 0 01.26.017 12.81 12.81 0 003.927.636c1.016-.23 2.291.38 1.345.839-.766.372-5.162 1.425-6.8 1.811a.613.613 0 01-.743-.479l-.363-1.815a.621.621 0 01.099-.473.603.603 0 01.41-.256z" fill="#EB4181"/><path d="M185.723 93.966H70.011a1 1 0 00-1 1v12.383a1 1 0 001 1h115.712a1 1 0 001-1V94.966a1 1 0 00-1-1zm131.993 0H202.004a1 1 0 00-1 1v12.383a1 1 0 001 1h115.712a1 1 0 001-1V94.966a1 1 0 00-1-1zm-131.993 28.836H70.011a1 1 0 00-1 1v12.383a1 1 0 001 1h115.712a1 1 0 001-1v-12.383a1 1 0 00-1-1zm131.993 0H202.004a1 1 0 00-1 1v12.383a1 1 0 001 1h115.712a1 1 0 001-1v-12.383a1 1 0 00-1-1zm.001 28.767H70.011a1 1 0 00-1 1v34.029a1 1 0 001 1h247.706a1 1 0 001-1v-34.029a1 1 0 00-1-1z" fill="#fff" stroke="#CCC"/><path d="M235.213 201.448h-87.467a3 3 0 00-3 3v18.565a3 3 0 003 3h87.467a3 3 0 003-3v-18.565a3 3 0 00-3-3z" fill="#CCC"/><path d="M167.91 219.71a.91.91 0 01-.441-.115c-.551-.3-1.034-1.183-.839-5.545 0-.1.008-.172.008-.2a.516.516 0 01.498-.529.511.511 0 01.483.303.505.505 0 01.045.195c0 .043 0 .093-.008.281-.158 3.551.179 4.39.294 4.57.316-.193.587-.453.791-.762.39-.492.77-1.092 1.049-1.53.172-.27.3-.464.388-.582.1-.135.21-.281.323-.436.558-.769 1.136-1.563 1.906-1.5a1.446 1.446 0 011.11.924c.195.53.31 1.086.341 1.65.052.507.134 1.01.243 1.508.145.579.288.664.29.665.531.189 1.443-1.5 1.988-2.516.784-1.455 1.4-2.6 2.3-2.66a1.21 1.21 0 011.076.614c.253.51.359 1.081.307 1.648-.022.416.031.833.157 1.23.03-.005.282-.059.8-.74.371-.512.71-1.046 1.015-1.6.118-.2.211-.366.282-.473.084-.126.17-.268.261-.419.521-.863 1.392-2.306 2.91-1.549.515.31.912.782 1.13 1.342.215.419.4.78.723.909.8.316 1.392-.163 2.293-.973 1.026-.923 2.433-2.187 4.468-.754.379.276.739.577 1.078.9a4.677 4.677 0 002 1.292c1.18.186 2.38.207 3.565.061.338-.024.657-.046.961-.061.89-.044 1.8-.166 2.674-.285a28.126 28.126 0 013.226-.31 38.709 38.709 0 018.233.783.515.515 0 01.404.603.515.515 0 01-.604.404 37.72 37.72 0 00-8.016-.764 27.445 27.445 0 00-3.108.3c-.9.122-1.828.248-2.762.294-.292.014-.606.036-.939.06a13.52 13.52 0 01-3.879-.087 5.533 5.533 0 01-2.448-1.534 9.677 9.677 0 00-.975-.822c-1.3-.916-2.025-.368-3.191.679-.9.811-1.927 1.731-3.358 1.163a2.546 2.546 0 01-1.258-1.4 1.878 1.878 0 00-.674-.89c-.569-.284-.906.057-1.572 1.159-.1.161-.189.312-.284.456-.053.08-.143.237-.248.419-.765 1.326-1.922 3.329-3.147 2.751-.7-.332-.723-1.291-.742-2.137a3.445 3.445 0 00-.117-1.074c-.113-.159-.18-.184-.182-.185-.002-.001-.169.029-.537.553a17.06 17.06 0 00-.913 1.57c-.374.75-.811 1.467-1.305 2.143-.635.8-1.286 1.082-1.934.851-.87-.31-1.04-1.683-1.205-3.012a6.372 6.372 0 00-.236-1.306c-.167-.328-.278-.369-.278-.37-.211.01-.739.737-.992 1.086-.112.154-.228.313-.342.461-.062.08-.193.286-.332.505-.771 1.203-1.778 2.788-2.754 2.788z" fill="#fff"/><path d="M357.522 244.616l.292 2.056h-2.234l-.291-2.266 2.233.21z" fill="#F8C1C0"/><path d="M355.58 246.672s-2.816.263-2.865.738c-.049.475.049 1.529.437 1.581a30.29 30.29 0 005-.263 8.149 8.149 0 00-.34-2.056h-2.232z" fill="#062844"/><path d="M370.821 243.871l.291 2.056h-2.234l-.291-2.266 2.234.21z" fill="#F8C1C0"/><path d="M368.879 245.927s-2.817.264-2.865.738c-.048.474.048 1.528.437 1.581a30.4 30.4 0 005-.263 8.149 8.149 0 00-.34-2.056h-2.232z" fill="#062844"/><path d="M353.465 206.126l-.277 21.348v.057l.791 16.443a.924.924 0 00.956.882l2.152-.072a.927.927 0 00.89-.824l1.645-14.786 2.384-14.548a.934.934 0 00-.047-.477l-3.046-8.073a.93.93 0 00-.8-.6l-3.655-.265a.922.922 0 00-.694.243.92.92 0 00-.299.672z" fill="#EB7B31"/><path d="M347.471 185.787c.669-.132 1.33-.306 1.977-.52 0 0 .728 2.809 0 2.913-.728.104-2.133.364-2.133.364l.156-2.757z" fill="#EB4181"/><path d="M354.187 185.372c-.625-.1-2.706-2.081-4.735-.1-2.029 1.981 0 2.914 0 2.914l6.035 1.56-1.3-4.374z" fill="#EB4181"/><path d="M347.628 186.151a28.845 28.845 0 00-3.122 2.237c-.884.832-.676 3.121-.364 2.809.312-.312.78-1.925 1.092-2.081.312-.156 1.3.52 2.081-.572a2.8 2.8 0 00.313-2.393zm.537-22.242l2.165 5.861 4.013 1.668 1.082 2.8 2.616-1.849-.181-3.878-.585-4.283-8.342-1.4-.768 1.081z" fill="#F8C1C0"/><path d="M353.996 173.939a.514.514 0 00-.173.218c-.221.52-.948 1.875.568 1.59 1.325-.249 3.082-2.214 3.74-3a.524.524 0 01.646-.127c.944.5 3.323 1.756 3.365 1.881.042.125 2.268 5.078 3.293 7.356a.517.517 0 00.492.31.52.52 0 00.476-.336c.563-1.463 1.415-3.91 1.2-4.833-.312-1.353-.156-5.514-1.2-5.671-1.044-.157-8.219-.052-8.635.052a43.999 43.999 0 00-3.772 2.56z" fill="#EB4181"/><path d="M354.078 175.123s-.416 9.936-.468 10.3c-.052.364-.886 13.786-.574 14.775.312.989.624.884.624.884s-.677.677-.624 1.249c.053.572-.052 2.133-.052 2.133l.573 2.185s12.107-.312 16.216-3.642a20.999 20.999 0 01-.651-3.017c.052-.468-.582-7.96-.582-7.96l-2.549-9.989s-3.433-7.907-3.8-8.064c-.367-.157-3.8-1.561-3.8-1.561l-4.313 2.707z" fill="#DF7F97"/><path d="M358.241 175.536c.793.039 7.544 10.925 7.751 11.653.207.728 1.977 7.127.26 8.22-1 .634-14.014-2.036-15.815-2.495 0 0-.468-2.552-.1-2.6 3.13.051 6.256.259 9.365.625a39.188 39.188 0 01-2.029-4.526c-1.617-4.111-4.789-11.134.568-10.877z" fill="#EB4181"/><path d="M347.94 191.458s.1 1.613.728 1.613 1.769-.154 1.769-.154l-.1-2.6-2.397 1.141z" fill="#EB4181"/><path d="M342.148 191.947s1.472 2.06 2.877 1.7a29.282 29.282 0 013.642-.572l.208-1.561-.936-.052-5.791.485z" fill="#F8C1C0"/><path d="M346.103 189.663l9.948 1.47-7.543.688-3.006-.6.601-1.558z" fill="#65A0D0"/><path d="M345.958 191.375l-14.562-.1a.653.653 0 01-.456-.193.654.654 0 01-.187-.458l-1.31-10.367a.649.649 0 01.651-.642l14.562.1a.649.649 0 01.642.651l1.311 10.367a.649.649 0 01-.651.642z" fill="#2575B3"/><path d="M344.926 191.369l-14.561-.1a.651.651 0 01-.643-.651l-1.311-10.367a.65.65 0 01.652-.642l14.56.1a.649.649 0 01.642.651l1.311 10.367a.65.65 0 01-.65.642z" fill="#65A0D0"/><path d="M330.006 192.144h25.87a.505.505 0 100-1.01h-25.87a.505.505 0 100 1.01z" fill="#2575B3"/><path d="M369.551 244.245l-.838.054a1.634 1.634 0 01-1.629-1.037c-1.412-3.62-5.759-14.884-5.71-16.179.048-1.261-1.793-14.12-2.473-18.818a1.64 1.64 0 01.335-1.247 1.65 1.65 0 011.136-.614l7.017-.633a1.639 1.639 0 011.31.478 1.641 1.641 0 01.464 1.315l-1.5 14.784c-.015.148-.01.297.015.443l-.1 1.355.471.792.005.739.34 1.262 2.659 15.4a1.64 1.64 0 01-1.502 1.906z" fill="#F19634"/><path d="M345.545 161.704c.168.532 1.4 3.292 3.607 3.247 2.207-.045 2.976-1.083 3.427-.992a12.994 12.994 0 012.254 1.8s.271 1.984-.18 2.39c-.451.406-2.3.947-2.525.541-.225-.406-2.028-.136-2.389.045-.361.181.677 5.411 1.443 5.275a9.805 9.805 0 003.787-2.66c.247-1.323.368-2.667.361-4.013 0 0 .225-2.254.721-1.8.496.454-.044 3.021-.044 3.021s1.217.541 1.443.992c.226.451.992-.721.947-1.4-.045-.679-.361-1.8-.091-2.345a3.834 3.834 0 00.541-2.57 6.937 6.937 0 01-.27-2.21c-.045-1.082-.9-2.3-1.713-1.894a4.724 4.724 0 01-3.066-.09c-.631-.27-.947-.631-1.669-.18-.722.451-1.037.992-2.254.631s-4.867.498-4.33 2.212z" fill="#062844"/><path d="M352.725 208.937c2.58.117 5.165-.075 7.7-.572 2.549-.624 9.036-2.7 9.3-3.381a5.061 5.061 0 00.052-1.977s-4.5.364-4.868.52c-.368.156-11.349 3.121-11.349 3.121l-.835 2.289z" fill="#EB4181"/><path d="M350.422 168.444c.175.038.354.056.533.053a.082.082 0 00.038-.006.083.083 0 00.032-.02.099.099 0 00.021-.032.08.08 0 00.006-.037.078.078 0 00-.009-.037.1.1 0 00-.023-.03.093.093 0 00-.072-.021 2.068 2.068 0 01-.63-.088s-.083-.032-.027-.435c.049-.299.113-.596.193-.889.051-.2.094-.37.11-.476a.096.096 0 00-.019-.065.09.09 0 00-.058-.035.092.092 0 00-.1.078c-.014.1-.057.264-.106.457-.214.843-.342 1.447-.045 1.544.051.016.103.029.156.039z" fill="#EBA2AB"/><path d="M351.211 165.847c-.071.139 2.049.191 2.015-.033-.034-.224-1.868-.255-2.015.033zm-1.488-.008c.187.219-1.12.929-1.137.817-.017-.112.906-1.088 1.137-.817zm2.164.708c-.029.166.248.383.337.217.089-.166-.296-.452-.337-.217zm-2.594.5c-.03.166.248.382.337.216.089-.166-.295-.451-.337-.216z" fill="#062844"/><path d="M252.285 185.351l-.007.034 1.6 1.554c.1-.222.439-1.569.563-1.859.077-.179.156-.366.242-.574 1.05-2.532-.324-2.436-.88-2.772-.556-.336-1.648 2.135-1.648 2.135s-.8-1.192-.994-1.062c-.092.06.154.58.443 1.117.331.616.718 1.255.718 1.255l-.037.172z" fill="#F8C4C9"/><path d="M252.194 185.604c-.857 1.353-1.3 12.1-1.3 12.1-.855-1.743-3.708-7.776-6.089-9.065-.547-.3-.492.1.021 7.035.063.852.112 1.72.15 2.591a23.151 23.151 0 004.458 3.578c4.958 3.388 4.844-15.262 4.844-15.262l-.028-.017-1.844-1.156c-.062-.004-.132.07-.212.196z" fill="#2376B2"/><path d="M232.961 189.016c.3-.371.522-.799.652-1.259a3.53 3.53 0 00.108-1.413c-.028-1.969.309-8.945.309-8.945l8.27 1.463s.14.028.169.984c.029.956.169 7.679.534 8.8.365 1.121-.506 1.125-.9 1.1-.394-.025-9.142-.73-9.142-.73z" fill="#213D6F"/><path d="M234.873 178.103c-.057.872-.057 2.5-.057 2.5s-.309-.366-.591-.2c-.282.166.31 2.026.731 2 .421-.026.253.057.253.057s.426 1.7 1.06 1.758c.408.035-.188 2.32-.188 2.32s-1.294 1.913-2.813 1.744c-1.519-.169 2.475 1.631 3.882 1.631a39.098 39.098 0 005.851-1.266 20.71 20.71 0 01-2.109-.9 2.492 2.492 0 01-.787-1.547v-1.772c.38-.337.711-.725.984-1.153.084-.309.225-.872.225-.872a1.453 1.453 0 00.759-1.265c.084-.985.113-1.351-.338-.788a18.952 18.952 0 00-.591-3.516 14.375 14.375 0 00-1.575-1.688s-1.435-.084-1.8-.084a8.512 8.512 0 00-1.744.7l-1.209 1.266.057 1.075z" fill="#F8C0BD"/><path d="M238.108 188.079l.917-.1 2.1-.387.061 4.585-1.671 8.559s-2.751-4.463-2.853-4.707c-.102-.244-1.793-7.377-1.651-7.56.142-.183.611-.856.611-.856l2.486.466z" fill="#A7D6F1"/><path d="M237.251 189.729c.367-.672.978-1.569.856-1.65-.122-.081-2.364-1.773-2.364-1.773l-.652 1.3 2.16 2.123zm1.774-1.752c.206.6.451 1.185.734 1.753.061-.041 1.365-2.078 1.365-2.139 0-.061-.285-1.427-.407-1.366-.122.061-1.692 1.752-1.692 1.752z" fill="#7DBBE4"/><path d="M237.756 239.633a40.205 40.205 0 00-.46 6.484 29.87 29.87 0 00.715 5.973 6.81 6.81 0 01.511 2.655c-.1 1.072-.306 3.165-.664 3.318a5.193 5.193 0 01-2.3-.255c0-.153.051-3.88.153-4.391.102-.511-2.093-6.994-2.144-9.036a39.713 39.713 0 00-.817-5.565l5.006.817zm1.177-.358c-.2.766-.408 1.685-.357 5.258.051 3.573.714 4.595.357 5.667a6.784 6.784 0 00-.357 1.94c.344.494.523 1.083.511 1.685-.1.817-.562 2.706.153 3.063a2.85 2.85 0 002.042.1 30.823 30.823 0 00-.306-3.267l-.153-.715s.357-1.583.357-1.787c0-.204 1.889-11.742 1.889-11.742l-4.136-.202z" fill="#F8C0BD"/><path d="M235.597 256.139a16.433 16.433 0 00-.7 2.116c0 .319-.2 1.656.619 1.776a5.629 5.629 0 002.615-.219 1.443 1.443 0 00.619-1.457 35.567 35.567 0 01-.22-3.832s-.359 3.193-.9 3.293a4.853 4.853 0 01-1.617-.18c-.576-.1-.416-1.497-.416-1.497z" fill="#213D6F"/><path d="M241.305 256.737c.139.379.559.619.519 1.117-.04.498-.139 1.238-.938 1.2-.799-.038-2.016-.14-2.016-.14s-.439-2.515-.439-2.814a37.465 37.465 0 01-.559-4.152c.128-.4.398-.741.758-.958.01.288.037.574.08.859.06.319.339.5.359 1 .02.5-.04 1.9-.06 2.255-.02.355-.32 1.117.04 1.4a1.52 1.52 0 001.237.479c.357.032.715-.055 1.019-.246z" fill="#213D6F"/><path d="M230.404 214.922c.153 2.706.715 11.283 1.021 13.631.306 2.348.97 8.679.868 9.7-.102 1.021-.1 2.246-.1 2.246s11.64.1 11.691-.051c.051-.151-.409-5.82-.358-6.177.051-.357 1.787-15.673 1.787-17.052 0-1.379-.714-6.637-.714-6.637l-1.175-6.433-8.321-.306-4.699 11.079z" fill="#E14183"/><path d="M239.233 175.402c-.45.338-2.053.394-2.447.647a4.52 4.52 0 00-1.575 2.053c-.085.675-.394 2.5-.394 2.5a6.79 6.79 0 01-.562-.816c0-.085-.169-.788-.169-.788a16.475 16.475 0 01.028-2c.246-.905.83-1.68 1.632-2.166a5.937 5.937 0 012.982-.731c.377.144.694.412.9.759a1.055 1.055 0 011.216.064c.113.09.207.202.275.33a19.56 19.56 0 011.237 3.882l-.618 1.21s-.647-2.757-.816-3.178a11.71 11.71 0 00-1.689-1.766z" fill="#213D6F"/><path d="M231.038 188.589a11.744 11.744 0 002.364-.448c.142-.02 2.017-1.487 2.017-1.487l.9 4.136s3.264 8.266 3.2 9.944c-.064 1.678-.206 6.424-.346 8.162-.14 1.738 0 5.543-2.4 6.577-2.4 1.034-7.564-.986-7.564-.986s2.3-11.04 2.3-11.181c0-.141.329-9.443.235-11.745-.094-2.302-.706-2.972-.706-2.972z" fill="#065C8F"/><path d="M241.084 186.669c-.028.25-.166 2.053-.194 2.857-.028.804-1.662 10.413-1.662 10.413s-.779 5.4.8 9.339c1.579 3.939 1.664 5.854 2.912 5.965 1.248.111 3.856-1.553 3.884-1.637.028-.084-1.165-8.267-1.137-10.209.028-1.942-.98-9.769-.745-11.7.138-1.027.201-2.064.188-3.1 0 0-2.3.141-3.007-.564a6.057 6.057 0 01-1.039-1.364z" fill="#065C8F"/><path d="M236.946 182.316c.48.035.961.041 1.442.019.166 0 1.187-.006 1.276-.038a1.338 1.338 0 01-.521.472c-.212.109-.449.16-.687.147a1.908 1.908 0 01-1.51-.6z" fill="#fff"/><path d="M238.376 181.51a1.65 1.65 0 01-.869-.183c-.185-.178-.018-.543.116-.837.028-.062.054-.118.07-.16.107-.292.166-.599.176-.91a.1.1 0 01.011-.041.103.103 0 01.062-.054c.014-.005.028-.006.042-.005a.108.108 0 01.1.115 3.122 3.122 0 01-.189.97 3.154 3.154 0 01-.075.174c-.065.142-.237.52-.162.591.234.097.487.139.74.122.029 0 .056.011.076.032.021.02.032.047.032.076a.103.103 0 01-.032.076.103.103 0 01-.076.032l-.022.002z" fill="#ECA0A9"/><path d="M236.941 179.46c0 .247-.132.447-.295.447-.163 0-.295-.2-.295-.447s.132-.448.295-.448c.163 0 .295.201.295.448zm2.974.449c.163 0 .295-.201.295-.448s-.132-.448-.295-.448c-.163 0-.295.201-.295.448s.132.448.295.448zm-.813-1.174c-.016.174.523-.1.951-.071.428.029.74.182.793.147.053-.035-.341-.435-.723-.446-.382-.011-1.003.183-1.021.37zm-1.433-.025a2.159 2.159 0 00-.916-.34c-.335-.035-.928.182-.922.27.006.088.763-.023.945.006.182.029.717.189.893.064z" fill="#203F6F"/><path d="M235.211 182.462a3.057 3.057 0 002.805 2.153l-2.177.14-.913-1.241.285-1.052zm6.104-.056s-.56 1.858-1.8 2.139c.374.033.749.04 1.124.023.39-.433.757-.886 1.1-1.357l-.424-.805z" fill="#213D6F"/><path d="M240.296 177.627a1.517 1.517 0 00-1.515 1.515c0 .048 0 .095.007.142a.98.98 0 00-.645-.2.854.854 0 00-.41.15v-.094a1.514 1.514 0 00-1.354-1.511 1.516 1.516 0 101.219 2.134.15.15 0 00.073-.061.724.724 0 01.493-.326.642.642 0 01.305.06c.178.091.336.218.463.372a1.519 1.519 0 001.283.846 1.517 1.517 0 001.592-1.475 1.513 1.513 0 00-1.515-1.553l.004.001zm-4.074 2.737a1.222 1.222 0 110-2.445 1.222 1.222 0 010 2.445zm5.3-1.222c0 .271-.09.535-.257.749a1.215 1.215 0 01-1.452.372 1.22 1.22 0 01-.585-.534.148.148 0 00-.034-.074l-.007-.008a1.215 1.215 0 01.086-1.167 1.211 1.211 0 011.027-.56 1.218 1.218 0 011.218 1.222h.004z" fill="#E14183"/><path d="M237.986 202.445l-.032.012.423 1.51c.242-.029.415.013.728-.031.193-.027.622.157.844.123 2.71-.409 2.4-1.96 2.4-2.609s-3.162.116-3.162.116.609-1.3.4-1.4c-.1-.048-.417.432-.727.957-.356.6-.7 1.263-.7 1.263l-.174.059z" fill="#F8C4C9"/><path d="M238.529 204.512l-.606-2.213-7.609.758a44.272 44.272 0 001.837-9.98 7.406 7.406 0 00-1.067-4.491.16.16 0 00-.045-.045.156.156 0 00-.059-.022.15.15 0 00-.119.036c-6.03 4.576-4.883 15.207-3.239 17.665a1.363 1.363 0 001.121.607c2.042.121 9.786-2.315 9.786-2.315z" fill="#2376B2"/><path d="M178.744 26.06l-7.512 7.362c.055-.006.111-.009.166-.009.217-.003.431.046.625.142l6.724-6.589 4.9 4.743-11.826 11.3h-7.336v-7.334L175.8 24.257l-.462-.457-11.409 11.513-.094.1v8.249h8.245l12.5-11.944-5.836-5.658z" fill="#E83568"/><path d="M176.896 33.689l1.548-1.529-.456-.462-1.748 1.726c.24.023.468.115.656.265z" fill="#E83568"/><path d="M164.225 74.921a2.07 2.07 0 01-.531-.07c-1.3-.345-1.892-1.687-1.757-3.985.124-1.453.375-2.891.751-4.3.025-.105.048-.2.068-.277.41-1.716.935-3.431 1.443-5.089.212-.693.431-1.408.638-2.111.033-.114.073-.229.114-.347a17.868 17.868 0 00-1.434 1.989c-.19.291-.369.566-.551.828a61.206 61.206 0 00-5.284 9.6.683.683 0 01-1.256-.054.686.686 0 01.011-.517 62.419 62.419 0 015.4-9.812c.171-.247.346-.515.531-.8a9.81 9.81 0 013.266-3.557.683.683 0 01.971.406c.132.738.027 1.5-.3 2.174-.062.172-.12.332-.161.471-.209.71-.429 1.43-.642 2.125-.5 1.639-1.02 3.334-1.422 5.008a17.21 17.21 0 01-.069.285c-1.331 5.418-.553 6.486.028 6.641.581.155 1.511-.564 2.546-1.975a36.2 36.2 0 002.6-4.394c.249-.476.447-.851.6-1.1.26-.438.528-.927.813-1.444 1.153-2.1 2.461-4.485 4.366-5.713a.687.687 0 01.945.2c.405.806.528 1.725.349 2.61a18 18 0 00-.032.377c-.041.562-.107 1.137-.17 1.692a13.968 13.968 0 00-.033 4.571c.135.6.406 1.353.928 1.509.568.169 1.784-.157 4.352-2.665.555-.54 1.111-1.11 1.649-1.66 1.041-1.065 2.117-2.164 3.265-3.156.074-.064.19-.17.323-.293 1.517-1.394 3.092-2.716 4.208-2.249 1.224.514 1.119 2.111 1.056 3.066-.012.183-.024.355-.024.477 0 .3-.006.607-.011.9-.033 1.629-.063 3.167.892 4.394a2.917 2.917 0 002.011 1.232c2.112.237 4.687-1.886 6.391-3.289l.087-.071c.2-.166.445-.386.7-.62 1.069-.966 2.4-2.169 3.663-2.342 1.521-.21 2.7 1.11 3.563 2.071.19.213.37.413.531.573 2.779 2.768 4.767 3.814 7.911 1.841 1-.628 1.944-1.282 2.858-1.916 3.579-2.482 6.961-4.827 12.178-4.349a.688.688 0 01.606.743.687.687 0 01-.731.621c-4.721-.431-7.758 1.673-11.274 4.111a75.34 75.34 0 01-2.91 1.95 6.188 6.188 0 01-5.3.976 11.393 11.393 0 01-4.307-3.007c-.189-.188-.38-.4-.584-.629-.693-.774-1.557-1.738-2.357-1.628-.844.115-2.1 1.25-2.931 2-.272.244-.527.476-.752.661l-.087.071c-1.771 1.459-4.395 3.618-6.937 3.618-.159 0-.317-.009-.475-.026a4.27 4.27 0 01-2.941-1.752c-1.252-1.612-1.214-3.551-1.18-5.263.006-.289.012-.587.012-.875 0-.168.012-.362.026-.568.031-.463.1-1.535-.2-1.7a2.71 2.71 0 00-1.19.64c-.549.421-1.075.87-1.578 1.346-.149.136-.266.245-.356.322-1.1.952-2.16 2.032-3.181 3.077-.544.555-1.106 1.13-1.672 1.682-1.511 1.475-3.4 3.088-5.045 3.088-.221.001-.44-.03-.652-.092a3.003 3.003 0 01-1.875-2.521 14.983 14.983 0 01.009-5.026c.064-.567.126-1.1.165-1.637.01-.131.022-.265.035-.4.035-.312.053-.625.053-.939a18.77 18.77 0 00-3.15 4.624c-.29.528-.564 1.026-.835 1.484-.132.224-.332.6-.563 1.042-1.82 3.475-3.937 7.122-6.172 7.122z" fill="#CCC"/></svg>