<?xml version="1.0" encoding="UTF-8" standalone="no"?>
<!DOCTYPE svg PUBLIC "-//W3C//DTD SVG 1.1//EN" "http://www.w3.org/Graphics/SVG/1.1/DTD/svg11.dtd">
<svg width="100%" height="100%" viewBox="0 0 978 978" version="1.1" xmlns="http://www.w3.org/2000/svg" xmlns:xlink="http://www.w3.org/1999/xlink" xml:space="preserve" xmlns:serif="http://www.serif.com/" style="fill-rule:evenodd;clip-rule:evenodd;stroke-linejoin:round;stroke-miterlimit:2;">
    <g transform="matrix(1,0,0,1,-779.851,-1185.54)">
        <path d="M1268.77,1185.54C1538.61,1185.54 1757.69,1404.62 1757.69,1674.46C1757.69,1944.3 1538.61,2163.38 1268.77,2163.38C998.929,2163.38 779.851,1944.3 779.851,1674.46C779.851,1404.62 998.929,1185.54 1268.77,1185.54ZM1268.77,1468.61C1382.38,1468.61 1474.62,1560.85 1474.62,1674.46C1474.62,1788.08 1382.38,1880.32 1268.77,1880.32C1155.16,1880.32 1062.92,1788.08 1062.92,1674.46C1062.92,1560.85 1155.16,1468.61 1268.77,1468.61Z" style="fill:white;"/>
    </g>
</svg>
