<?xml version="1.0" encoding="utf-8"?>
<!-- Generator: Adobe Illustrator 23.0.0, SVG Export Plug-In . SVG Version: 6.00 Build 0)  -->
<svg version="1.1" id="Layer_1" xmlns="http://www.w3.org/2000/svg" xmlns:xlink="http://www.w3.org/1999/xlink" x="0px" y="0px"
	 viewBox="0 0 500 500" style="enable-background:new 0 0 500 500;" xml:space="preserve">
<style type="text/css">
	.st0{fill:url(#SVGID_1_);}
	.st1{fill:url(#SVGID_2_);}
	.st2{fill:url(#SVGID_3_);}
	.st3{fill:url(#SVGID_4_);}
	.st4{fill:url(#SVGID_5_);}
	.st5{fill:url(#SVGID_6_);}
	.st6{fill:url(#SVGID_7_);}
	.st7{fill:url(#SVGID_8_);}
</style>
<g>
	<linearGradient id="SVGID_1_" gradientUnits="userSpaceOnUse" x1="26.17" y1="96.9203" x2="556.7172" y2="121.9045">
		<stop  offset="0" style="stop-color:#5725FF"/>
		<stop  offset="1" style="stop-color:#9271FF"/>
	</linearGradient>
	<path class="st0" d="M168.83,146.6c2.04-7.58-0.15-15.74-5.7-21.28L133.4,95.58c35.43-28.46,78.25-43.48,124.04-43.48
		c52.7,0,102.29,20.4,139.75,57.46l0,1.5l1.5,0c2.72,2.74,5.43,5.65,8.28,8.87c4.17,4.76,10.2,7.49,16.56,7.49c0,0,0,0,0,0
		c5.36,0,10.53-1.95,14.54-5.49c4.42-3.89,7.06-9.26,7.44-15.14c0.38-5.87-1.55-11.54-5.44-15.96c-3.35-3.81-6.79-7.49-10.23-10.94
		l-0.01-1.51h-1.48C382.58,33.01,321.93,8.03,257.45,8.03C200.63,8.03,145.56,28,102.12,64.3L70.79,32.97
		c-4.16-4.16-9.69-6.45-15.58-6.45c-1.92,0-3.83,0.25-5.7,0.75c-7.59,2.03-13.56,8-15.58,15.58L0.13,168.99
		c-2.04,7.58,0.14,15.74,5.69,21.28c4.08,4.11,9.76,6.46,15.59,6.46c1.91,0,3.83-0.25,5.7-0.75l126.14-33.8
		C160.82,160.15,166.79,154.18,168.83,146.6z"/>
	<linearGradient id="SVGID_2_" gradientUnits="userSpaceOnUse" x1="9.52" y1="450.487" x2="540.0673" y2="475.4712">
		<stop  offset="0" style="stop-color:#5725FF"/>
		<stop  offset="1" style="stop-color:#9271FF"/>
	</linearGradient>
	<path class="st1" d="M204.61,442.39c-8.58-2.37-17.08-5.34-25.26-8.82c-2.75-1.17-5.65-1.76-8.62-1.76
		c-8.86,0-16.82,5.26-20.3,13.39c-2.31,5.42-2.37,11.41-0.17,16.87c2.2,5.46,6.4,9.74,11.82,12.04c10,4.27,20.38,7.89,30.85,10.77
		c1.92,0.53,3.89,0.79,5.85,0.79c9.88,0,18.62-6.66,21.24-16.2c1.56-5.67,0.82-11.62-2.1-16.74
		C215,447.62,210.27,443.94,204.61,442.39z"/>
	<linearGradient id="SVGID_3_" gradientUnits="userSpaceOnUse" x1="9.2233" y1="456.7887" x2="539.7705" y2="481.7729">
		<stop  offset="0" style="stop-color:#5725FF"/>
		<stop  offset="1" style="stop-color:#9271FF"/>
	</linearGradient>
	<path class="st2" d="M297,445.94c-1.33,0-2.68,0.12-3.98,0.37c-8.83,1.59-17.77,2.6-26.57,2.98
		c-12.13,0.54-21.56,10.85-21.02,22.99c0.52,11.81,10.18,21.06,21.99,21.06c0.32,0,0.66-0.01,0.99-0.02
		c10.85-0.49,21.78-1.72,32.46-3.65c5.8-1.05,10.83-4.29,14.19-9.13c3.35-4.84,4.62-10.69,3.57-16.48
		C316.74,453.57,307.64,445.94,297,445.94z"/>
	<linearGradient id="SVGID_4_" gradientUnits="userSpaceOnUse" x1="23.3379" y1="157.06" x2="553.8851" y2="182.0442">
		<stop  offset="0" style="stop-color:#5725FF"/>
		<stop  offset="1" style="stop-color:#9271FF"/>
	</linearGradient>
	<path class="st3" d="M440.14,172.52c3.47,8.1,6.45,16.59,8.85,25.24c2.62,9.52,11.35,16.17,21.22,16.17c1.97,0,3.94-0.27,5.87-0.8
		c11.71-3.23,18.61-15.39,15.38-27.11c-2.9-10.49-6.54-20.87-10.8-30.84c-3.48-8.12-11.44-13.37-20.27-13.37
		c-2.98,0-5.89,0.6-8.65,1.78C440.57,148.37,435.37,161.35,440.14,172.52z"/>
	<linearGradient id="SVGID_5_" gradientUnits="userSpaceOnUse" x1="10.9495" y1="420.1311" x2="541.4968" y2="445.1153">
		<stop  offset="0" style="stop-color:#5725FF"/>
		<stop  offset="1" style="stop-color:#9271FF"/>
	</linearGradient>
	<path class="st4" d="M387.28,407.3c-4.69,0-9.17,1.46-12.96,4.23c-7.19,5.24-14.8,10.04-22.61,14.25
		c-10.7,5.76-14.71,19.16-8.95,29.86c3.85,7.14,11.3,11.58,19.43,11.58c3.61,0,7.21-0.91,10.44-2.64
		c9.53-5.15,18.83-11.01,27.66-17.43c9.81-7.16,11.97-20.97,4.82-30.79C400.97,410.69,394.31,407.3,387.28,407.3z"/>
	<linearGradient id="SVGID_6_" gradientUnits="userSpaceOnUse" x1="14.3627" y1="347.6518" x2="544.9099" y2="372.636">
		<stop  offset="0" style="stop-color:#5725FF"/>
		<stop  offset="1" style="stop-color:#9271FF"/>
	</linearGradient>
	<path class="st5" d="M462.38,335.91c-3.21-1.72-6.82-2.63-10.43-2.63c-8.12,0-15.56,4.45-19.41,11.6
		c-4.21,7.81-9,15.43-14.22,22.62c-7.15,9.83-4.98,23.64,4.84,30.78c3.79,2.76,8.27,4.22,12.96,4.22c7.02,0,13.69-3.39,17.84-9.08
		c6.36-8.75,12.22-18.05,17.4-27.67C477.09,355.04,473.07,341.66,462.38,335.91z"/>
	<linearGradient id="SVGID_7_" gradientUnits="userSpaceOnUse" x1="18.7836" y1="253.7731" x2="549.3308" y2="278.7574">
		<stop  offset="0" style="stop-color:#5725FF"/>
		<stop  offset="1" style="stop-color:#9271FF"/>
	</linearGradient>
	<path class="st6" d="M494.22,245.68c-3.97-4.34-9.4-6.88-15.35-7.14c-0.3-0.01-0.6-0.02-0.92-0.02c-11.79,0-21.45,9.25-21.99,21.07
		c-0.39,8.94-1.39,17.89-2.97,26.59c-2.14,11.95,5.84,23.43,17.8,25.59c1.31,0.23,2.62,0.35,3.91,0.35
		c10.67,0,19.78-7.63,21.67-18.14c1.92-10.62,3.13-21.54,3.62-32.45C500.24,255.65,498.19,250.02,494.22,245.68z"/>
	<linearGradient id="SVGID_8_" gradientUnits="userSpaceOnUse" x1="11.549" y1="407.4006" x2="542.0963" y2="432.3849">
		<stop  offset="0" style="stop-color:#5725FF"/>
		<stop  offset="1" style="stop-color:#9271FF"/>
	</linearGradient>
	<path class="st7" d="M126.57,400.31c-3.28-2.88-6.51-5.91-9.62-9.01c-4.16-4.16-9.7-6.45-15.58-6.45c-5.88,0-11.42,2.29-15.58,6.45
		c-4.16,4.16-6.46,9.69-6.46,15.58s2.29,11.42,6.46,15.58c3.69,3.69,7.63,7.38,11.7,10.96c4.01,3.54,9.17,5.48,14.53,5.48
		c6.36,0,12.4-2.73,16.57-7.49C136.6,422.29,135.7,408.34,126.57,400.31z"/>
</g>
</svg>
