<svg width="20px" height="20px" viewBox="0 0 20 20" version="1.1" xmlns="http://www.w3.org/2000/svg">
    <g id="Logo-&amp;-icons" stroke="none" stroke-width="1" fill="none" fill-rule="evenodd">
        <g id="Icon-Squared" transform="translate(-40.000000, -280.000000)">
            <g id="woo" transform="translate(40.000000, 280.000000)">
                <rect id="BG" fill="#9B5C8F" x="0" y="0" width="20" height="20" rx="2"></rect>
                <path d="M3.78301026,4.90776084 C3.95629631,4.67251047 4.2161659,4.54881967 4.56273799,4.52408152 C5.19403677,4.47448626 5.55297794,4.7714631 5.6395615,5.41513096 C6.02324082,8.00193361 6.44402739,10.1926879 6.88955211,11.9872748 L9.60004555,6.82615747 C9.847665,6.35577566 10.1571299,6.10827514 10.5284401,6.08353698 C11.0730364,6.04642974 11.4071205,6.3928829 11.5432993,7.12313431 C11.8527641,8.76917333 12.2488125,10.1678308 12.7190754,11.355976 C13.0409093,8.21232689 13.5855056,5.94735817 14.3528643,4.54881967 C14.5384005,4.20224759 14.8107581,4.02896154 15.1696993,4.00410445 C15.4544259,3.97948522 15.7142955,4.06606878 15.949427,4.2517239 C16.1845584,4.43737903 16.3083681,4.67251047 16.3331063,4.95723716 C16.3454754,5.17999952 16.3083681,5.36565464 16.2094155,5.55130977 C15.7266646,6.44247815 15.3304973,7.94008821 15.0087823,10.0192829 C14.6994364,12.0367511 14.5879957,13.6086945 14.6622102,14.7349944 C14.6870673,15.0442214 14.637472,15.316579 14.5137812,15.5518293 C14.3651144,15.824068 14.142471,15.9726159 13.8577443,15.9973541 C13.5359104,16.0220922 13.2018263,15.8736633 12.8799924,15.5394603 C11.7289544,14.3635652 10.8130479,12.6060855 10.1447608,10.2669023 C9.34017595,11.8510959 8.74610334,13.0392412 8.36242402,13.831338 C7.6321726,15.2299954 7.01336183,15.9478777 6.4935037,15.984985 C6.15930069,16.0097231 5.87469294,15.7249964 5.62719242,15.1310428 C4.99601257,13.509623 4.31523747,10.378224 3.58510499,5.73696489 C3.53550974,5.41513096 3.60972422,5.13040427 3.78301026,4.90776084 L3.78301026,4.90776084 Z"
                      id="Path" fill="#FFFFFF"></path>
            </g>
        </g>
    </g>
</svg>