<?xml version="1.0" encoding="utf-8"?>
<!-- Generator: Adobe Illustrator 19.2.0, SVG Export Plug-In . SVG Version: 6.00 Build 0)  -->
<svg version="1.1" id="Слой_1" xmlns="http://www.w3.org/2000/svg" xmlns:xlink="http://www.w3.org/1999/xlink" x="0px" y="0px"
	 viewBox="0 0 100 100" style="enable-background:new 0 0 100 100;" xml:space="preserve">
<style type="text/css">
	.st0{fill:#FFFFFF;}
</style>
<polygon class="st0" points="27.7,59.6 38.7,19.1 40.9,19.1 72.9,19.1 96.1,19.1 99.8,19.1 88.7,60.7 83.2,59.3 92.4,24.9 
	72.9,24.9 43.1,24.9 33.2,61.1 "/>
<path class="st0" d="M82.4,67.4c-0.1-0.1-0.2-0.1-0.2-0.2l0,0c-0.6-0.4-1.4-0.5-2.1-0.2c-1.2,0.3-2.2,1-3,2
	c-0.2,0.2-0.3,0.4-0.5,0.7c-0.9,1.4-1.5,3-1.5,4.7c-0.1,1.1,0.3,2.2,1.2,3.1l0,0c0.1,0.1,0.2,0.1,0.2,0.2l0,0
	c0.6,0.4,1.4,0.5,2.1,0.2c1.2-0.3,2.2-1,3-2l0,0c0.2-0.2,0.4-0.5,0.5-0.7c0.9-1.4,1.5-3,1.5-4.7C83.7,69.3,83.3,68.2,82.4,67.4
	L82.4,67.4L82.4,67.4z M85.5,62.5c0.2,0.2,0.5,0.3,0.6,0.5l0,0c2,1.9,3.2,4.5,3.1,7.3c0,3.4-1.2,6.6-3.4,9.1l0,0
	c-1.5,1.9-3.6,3.2-5.9,3.8s-4.8,0.2-6.7-1.1l0,0c-0.2-0.2-0.5-0.3-0.6-0.5l0,0c-2-1.9-3.2-4.5-3.1-7.3c0-2.8,0.9-5.6,2.5-8
	c0.3-0.4,0.5-0.8,0.9-1.2c1.5-1.9,3.6-3.2,5.9-3.8C81,60.8,83.5,61.2,85.5,62.5L85.5,62.5z"/>
<path class="st0" d="M32.4,66.5c-0.1-0.1-0.2-0.1-0.2-0.2c-0.6-0.4-1.4-0.5-2.1-0.2c-1.2,0.3-2.2,1-3,2c-0.2,0.2-0.4,0.5-0.5,0.7
	l0,0c-0.9,1.4-1.5,3-1.5,4.7c-0.1,1.1,0.3,2.2,1.2,3.1l0,0c0.1,0.1,0.2,0.1,0.2,0.2l0,0c0.6,0.4,1.4,0.5,2.1,0.2c1.2-0.3,2.2-1,3-2
	c0.2-0.2,0.4-0.5,0.5-0.7l0,0c0.9-1.4,1.5-3,1.5-4.7C33.6,68.3,33.2,67.2,32.4,66.5L32.4,66.5L32.4,66.5z M35.4,61.6
	c0.2,0.2,0.5,0.3,0.6,0.5l0,0c2,1.9,3.2,4.5,3.1,7.3c0,2.8-0.9,5.6-2.5,7.9l0,0c-0.3,0.4-0.5,0.8-0.9,1.2c-1.5,1.9-3.6,3.2-5.9,3.8
	s-4.8,0.2-6.7-1.1l0,0c-0.2-0.2-0.5-0.3-0.6-0.5l0,0c-2-1.9-3.2-4.5-3.1-7.3c0-2.8,0.9-5.6,2.5-7.9l0,0c0.3-0.4,0.5-0.8,0.9-1.2
	c1.5-1.9,3.6-3.2,5.9-3.8C30.9,59.9,33.4,60.3,35.4,61.6z"/>
<polygon class="st0" points="70.3,31.2 62.6,31.2 65.4,22 72.9,22 "/>
<polygon class="st0" points="41.4,70.8 68.3,70.8 67.3,74.5 40.4,74.5 "/>
<polygon class="st0" points="43.6,64.9 69.4,64.9 68.4,67.5 42.6,67.5 "/>
<path class="st0" d="M51.4,26.9c1.6,0,2.8,1.3,2.8,2.8c0,1.6-1.3,2.8-2.8,2.8H2.8c-1.6,0-2.8-1.3-2.8-2.8c0-1.6,1.3-2.8,2.8-2.8
	H51.4z"/>
<path class="st0" d="M50.1,34.7c1.6-0.1,2.9,1.2,2.9,2.7c0,1.6-1.2,2.9-2.7,2.9c-0.9,0-39.9,0-40,0c-1.6,0-2.8-1.3-2.8-2.9
	c0-1.6,1.3-2.7,2.8-2.7C10.4,34.7,49.2,34.7,50.1,34.7z"/>
<path class="st0" d="M47.4,42.3c1.6,0,2.8,1.3,2.8,2.8s-1.3,2.8-2.8,2.8H17.8c-1.6,0-2.8-1.3-2.8-2.8s1.3-2.8,2.8-2.8H47.4z"/>
</svg>
