<?xml version="1.0" encoding="utf-8"?>
<!-- Generator: Adobe Illustrator 23.0.0, SVG Export Plug-In . SVG Version: 6.00 Build 0)  -->
<svg version="1.1" id="Layer_1" xmlns="http://www.w3.org/2000/svg" xmlns:xlink="http://www.w3.org/1999/xlink" x="0px" y="0px"
	 viewBox="0 0 392 104" style="enable-background:new 0 0 392 104;" xml:space="preserve">
<style type="text/css">
	.st0{fill:url(#SVGID_1_);}
	.st1{fill:url(#SVGID_2_);}
	.st2{fill:url(#SVGID_3_);}
	.st3{fill:#1FD36E;}
	.st4{fill:#1AC660;}
	.st5{fill:#12B269;}
	.st6{fill:url(#SVGID_4_);}
	.st7{fill:url(#SVGID_5_);}
	.st8{fill:#0BB782;}
	.st9{fill:#3AC9AD;}
	.st10{fill:#1EE277;}
	.st11{fill:url(#SVGID_6_);}
	.st12{fill:url(#SVGID_7_);}
	.st13{fill:url(#SVGID_8_);}
	.st14{fill:url(#SVGID_9_);}
	.st15{fill:#13A55F;}
	.st16{fill:#FFFFFF;}
	.st17{fill:#B6FFC4;}
	.st18{fill:#14A560;}
	.st19{fill:#D7FFDF;}
	.st20{fill:#D4FFDB;}
	.st21{fill:#11A35D;}
	.st22{fill:url(#SVGID_10_);}
	.st23{fill:#003136;}
	.st24{fill:#134649;}
	.st25{fill:url(#SVGID_11_);}
	.st26{fill:#333439;}
</style>
<g>
	<g>
		<linearGradient id="SVGID_1_" gradientUnits="userSpaceOnUse" x1="89.013" y1="14.5056" x2="17.8445" y2="117.6087">
			<stop  offset="0" style="stop-color:#68FF61"/>
			<stop  offset="1" style="stop-color:#01BAB4"/>
		</linearGradient>
		<path class="st0" d="M82.6,35.9c-4.2,0-7.5-3.4-7.5-7.5V15.8H25.8c-3.2,0-5.8,2.6-5.8,5.8v13.2h-5.4c-1.6,0-2.9,1.3-2.9,2.9
			c0,1.6,1.3,2.9,2.9,2.9H20h13.1c1.6,0,2.9,1.3,2.9,2.9c0,1.6-1.3,2.9-2.9,2.9H32H20h-12c-1.6,0-2.9,1.3-2.9,2.9
			c0,1.6,1.3,2.9,2.9,2.9h12h7.7c1.6,0,2.9,1.3,2.9,2.9c0,1.6-1.3,2.9-2.9,2.9H20h-2.1c-1.6,0-2.9,1.3-2.9,2.9
			c0,1.6,1.3,2.9,2.9,2.9H20v34.6c0,3.2,2.6,5.8,5.8,5.8h63.6c3.2,0,5.8-2.6,5.8-5.8V35.9l0,0H82.6z"/>
		<g>
			<linearGradient id="SVGID_2_" gradientUnits="userSpaceOnUse" x1="6.4573" y1="33.8118" x2="1.9441" y2="41.4686">
				<stop  offset="0" style="stop-color:#68FF61"/>
				<stop  offset="1" style="stop-color:#01BAB4"/>
			</linearGradient>
			<path class="st1" d="M4.2,42.1c-2.5,0-4.4-2-4.4-4.4c0-2.5,2-4.4,4.4-4.4s4.4,2,4.4,4.4C8.6,40.1,6.7,42.1,4.2,42.1z M4.2,35.1
				c-1.4,0-2.5,1.1-2.5,2.5c0,1.4,1.1,2.5,2.5,2.5s2.5-1.1,2.5-2.5C6.7,36.3,5.6,35.1,4.2,35.1z"/>
		</g>
		<linearGradient id="SVGID_3_" gradientUnits="userSpaceOnUse" x1="26.6903" y1="29.8896" x2="5.2263" y2="66.3042">
			<stop  offset="0" style="stop-color:#68FF61"/>
			<stop  offset="1" style="stop-color:#01BAB4"/>
		</linearGradient>
		<circle class="st2" cx="8.5" cy="60.8" r="2.9"/>
		<path class="st3" d="M35.7,40.5h-2.5c1.6,0,2.9,1.3,2.9,2.9c0,1.6-1.3,2.9-2.9,2.9h2.5c1.6,0,2.9-1.3,2.9-2.9
			C38.6,41.8,37.3,40.5,35.7,40.5z"/>
		<path class="st4" d="M36.1,40.5h-2.9c1.6,0,2.9,1.3,2.9,2.9c0,1.6-1.3,2.9-2.9,2.9h2.9c1.6,0,2.9-1.3,2.9-2.9
			C39,41.8,37.7,40.5,36.1,40.5z"/>
		<path class="st5" d="M30.3,52.1h-2.5c1.6,0,2.9,1.3,2.9,2.9c0,1.6-1.3,2.9-2.9,2.9h2.5c1.6,0,2.9-1.3,2.9-2.9
			C33.2,53.4,31.9,52.1,30.3,52.1z"/>
		<polygon class="st3" points="95.2,35.9 95.2,35.9 89.9,30.6 89.9,30.6 		"/>
		<polygon class="st3" points="80,20.7 75.1,15.8 80,20.7 		"/>
		<path class="st3" d="M82.6,35.9h12.6l-5.3-5.3h-7c-1.6,0-2.8-1.3-2.8-2.8v-7l-4.9-4.9v12.6C75.1,32.5,78.5,35.9,82.6,35.9z"/>
		<linearGradient id="SVGID_4_" gradientUnits="userSpaceOnUse" x1="85.8465" y1="24.6867" x2="91.2498" y2="18.6443">
			<stop  offset="0" style="stop-color:#68FF61"/>
			<stop  offset="1" style="stop-color:#01BAB4"/>
		</linearGradient>
		<path class="st6" d="M88.5,26.3L88.5,26.3c2.5,0,4.6-2,4.6-4.6v0c0-2.5-2-4.6-4.6-4.6h0c-2.5,0-4.6,2-4.6,4.6v0
			C83.9,24.3,85.9,26.3,88.5,26.3z"/>
		<g>
			<linearGradient id="SVGID_5_" gradientUnits="userSpaceOnUse" x1="97.7082" y1="17.0379" x2="104.1474" y2="8.8224">
				<stop  offset="0" style="stop-color:#68FF61"/>
				<stop  offset="1" style="stop-color:#01BAB4"/>
			</linearGradient>
			<path class="st7" d="M103.2,17.5h-4.4c-1.4,0-2.5-1.1-2.5-2.5v-4.4c0-1.4,1.1-2.5,2.5-2.5h4.4c1.4,0,2.5,1.1,2.5,2.5V15
				C105.7,16.4,104.6,17.5,103.2,17.5z M98.8,10c-0.3,0-0.6,0.2-0.6,0.6V15c0,0.3,0.2,0.6,0.6,0.6h4.4c0.3,0,0.6-0.2,0.6-0.6v-4.4
				c0-0.3-0.2-0.6-0.6-0.6H98.8z"/>
		</g>
		<path class="st8" d="M103,26.8L103,26.8c1.4,0,2.5-1.1,2.5-2.5v0c0-1.4-1.1-2.5-2.5-2.5h0c-1.4,0-2.5,1.1-2.5,2.5v0
			C100.5,25.6,101.6,26.8,103,26.8z"/>
		<path class="st9" d="M88.5,11.2L88.5,11.2c0.8,0,1.5-0.7,1.5-1.5v0c0-0.8-0.7-1.5-1.5-1.5l0,0c-0.8,0-1.5,0.7-1.5,1.5v0
			C87,10.5,87.7,11.2,88.5,11.2z"/>
		<path class="st10" d="M95.8,3L95.8,3c0.8,0,1.5-0.7,1.5-1.5v0c0-0.8-0.7-1.5-1.5-1.5l0,0c-0.8,0-1.5,0.7-1.5,1.5v0
			C94.2,2.3,94.9,3,95.8,3z"/>
		<g>
			<linearGradient id="SVGID_6_" gradientUnits="userSpaceOnUse" x1="69.72" y1="87.3582" x2="80.9402" y2="108.0576">
				<stop  offset="0" style="stop-color:#0FB797"/>
				<stop  offset="1" style="stop-color:#2FD98F"/>
			</linearGradient>
			<polygon class="st11" points="89.6,104.1 68.6,104.1 56.6,83.1 77.6,82.3 			"/>
			<linearGradient id="SVGID_7_" gradientUnits="userSpaceOnUse" x1="51.4886" y1="83.3152" x2="62.9301" y2="104.0828">
				<stop  offset="0" style="stop-color:#0BA88A"/>
				<stop  offset="1" style="stop-color:#1DCD9D"/>
			</linearGradient>
			<polygon class="st12" points="64.9,104.1 61,104.1 49.6,83.2 52.7,82.3 			"/>
		</g>
		<linearGradient id="SVGID_8_" gradientUnits="userSpaceOnUse" x1="47.5336" y1="15.9335" x2="55.1667" y2="36.0057">
			<stop  offset="0" style="stop-color:#7DF777"/>
			<stop  offset="1" style="stop-color:#45E87D;stop-opacity:0"/>
		</linearGradient>
		<polygon class="st13" points="66.2,36.7 48.6,36.7 36.7,15.8 54.8,15.8 		"/>
		<linearGradient id="SVGID_9_" gradientUnits="userSpaceOnUse" x1="28.4003" y1="15.5283" x2="40.2162" y2="36.9755">
			<stop  offset="0" style="stop-color:#7DF777"/>
			<stop  offset="1" style="stop-color:#45E87D;stop-opacity:0"/>
		</linearGradient>
		<polygon class="st14" points="42.9,36.7 37.2,36.7 25.8,15.8 31.3,15.8 		"/>
		<path class="st15" d="M78.9,63.3H58.5c-0.8,0-1.4-0.6-1.4-1.4v0c0-0.8,0.6-1.4,1.4-1.4h20.4c0.8,0,1.4,0.6,1.4,1.4v0
			C80.3,62.7,79.7,63.3,78.9,63.3z"/>
		<circle class="st15" cx="51.5" cy="61.9" r="1.4"/>
		<path class="st16" d="M78.3,62.2h-20c-0.9,0-1.6-0.7-1.6-1.6v0c0-0.9,0.7-1.6,1.6-1.6h20c0.9,0,1.6,0.7,1.6,1.6v0
			C79.9,61.4,79.2,62.2,78.3,62.2z"/>
		<path class="st17" d="M76,84.2H58.2c-0.9,0-1.6-0.7-1.6-1.6v0c0-0.9,0.7-1.6,1.6-1.6H76c0.9,0,1.6,0.7,1.6,1.6v0
			C77.6,83.5,76.9,84.2,76,84.2z"/>
		<circle class="st16" cx="51.1" cy="60.5" r="1.6"/>
		<g>
			<path class="st18" d="M71.6,70.7H58.4c-0.8,0-1.4-0.6-1.4-1.4v0c0-0.8,0.6-1.4,1.4-1.4h13.1c0.8,0,1.4,0.6,1.4,1.4v0
				C73,70,72.4,70.7,71.6,70.7z"/>
			<circle class="st18" cx="51.5" cy="69.2" r="1.4"/>
		</g>
		<g>
			<path class="st18" d="M78,75.7l-3.4,2.5H58.4c-0.8,0-1.4-0.6-1.4-1.4l0,0c0-0.8,0.6-1.4,1.4-1.4h16.1L78,75.7z"/>
			<circle class="st18" cx="51.5" cy="76.8" r="1.4"/>
		</g>
		<path class="st19" d="M71,69.5H58.2c-0.9,0-1.6-0.7-1.6-1.6l0,0c0-0.9,0.7-1.6,1.6-1.6H71c0.9,0,1.6,0.7,1.6,1.6l0,0
			C72.6,68.8,71.9,69.5,71,69.5z"/>
		<circle class="st19" cx="51.1" cy="67.9" r="1.6"/>
		<circle class="st20" cx="51.1" cy="75.4" r="1.6"/>
		<circle class="st17" cx="51.1" cy="82.6" r="1.6"/>
		<g>
			<polygon class="st21" points="95.2,68.6 83.8,73.6 95.2,63.3 			"/>
			<g>
				<g>
					<linearGradient id="SVGID_10_" gradientUnits="userSpaceOnUse" x1="81.9212" y1="70.3232" x2="101.9542" y2="57.6915">
						<stop  offset="0" style="stop-color:#68FF61"/>
						<stop  offset="1" style="stop-color:#01BAB4"/>
					</linearGradient>
					<polygon class="st22" points="110.4,54.3 83.6,73.7 80.5,69.4 107.2,49.9 					"/>
					<g>
						<path class="st23" d="M111.9,53.1l-1.6,1.2l-3.2-4.3l1.6-1.2c1.2-0.9,2.9-0.6,3.7,0.6v0C113.4,50.6,113.1,52.2,111.9,53.1z"/>
					</g>
				</g>
				<g>
					<polygon class="st24" points="74.5,77.1 78.1,75.7 76.8,74 					"/>
				</g>
				<linearGradient id="SVGID_11_" gradientUnits="userSpaceOnUse" x1="78.7965" y1="73.6174" x2="83.6646" y2="70.4767">
					<stop  offset="0" style="stop-color:#68FF61"/>
					<stop  offset="1" style="stop-color:#01BAB4"/>
				</linearGradient>
				<polygon class="st25" points="80.6,69.3 76.8,74 78.1,75.7 83.7,73.6 				"/>
			</g>
		</g>
		<polygon class="st5" points="28.6,63.7 20,65.7 20,63.7 		"/>
		<path class="st20" d="M74.5,77.1H58.2c-0.9,0-1.6-0.7-1.6-1.6v0c0-0.9,0.7-1.6,1.6-1.6h18.8L74.5,77.1z"/>
	</g>
	<g>
		<path class="st26" d="M161.7,67.8c0,11.5-9.7,11.8-9.7,11.8h-13.2V38.3h13.2c0,0,9.7,0.4,9.7,11.8c0,4.7-1.6,6.8-3.6,8.5
			C160.1,60.4,161.7,63.1,161.7,67.8z M156.2,50.1c0-6.6-5.7-6.6-5.7-6.6h-6.2V56h6.2C150.6,56,156.2,56.7,156.2,50.1z M156.2,67.8
			c0-6.6-5.6-6.6-5.7-6.6h-6.2v13.2h6.2C150.5,74.4,156.2,74.4,156.2,67.8z"/>
		<path class="st26" d="M188.9,57.5v8h-18.4v3c0,0,0,5.7,6.6,5.7c6.6,0,6.6-5.2,6.6-5.2h5.2v1c0,0-0.3,9.7-11.8,9.7
			c-11.5,0-11.8-9.7-11.8-9.7V57.5c0,0,0.4-9.7,11.8-9.7C188.6,47.8,188.9,57.5,188.9,57.5z M183.7,60.7v-1.7c0,0,0-6.1-6.6-6.1
			c-6.6,0-6.6,6.1-6.6,6.1v1.7H183.7z"/>
		<path class="st26" d="M204,79.8c-9.4,0-8.6-7.2-8.6-7.2V52.6h-4.5v-4.9h4.5v-9.4h5.6v9.4h8.1v4.9H201v19.7c0,0-0.1,2.3,3,2.3
			c5,0,4.3-4.4,4.3-4.4h4.9C213.2,70.1,214,79.8,204,79.8z"/>
		<path class="st26" d="M226.9,79.8c-9.4,0-8.6-7.2-8.6-7.2V52.6h-4.5v-4.9h4.5v-9.4h5.6v9.4h8.1v4.9h-8.1v19.7c0,0-0.1,2.3,3,2.3
			c5,0,4.3-4.4,4.3-4.4h4.9C236.1,70.1,236.9,79.8,226.9,79.8z"/>
		<path class="st26" d="M263.2,57.5v8h-18.4v3c0,0,0,5.7,6.6,5.7c6.6,0,6.6-5.2,6.6-5.2h5.2v1c0,0-0.3,9.7-11.8,9.7
			c-11.5,0-11.8-9.7-11.8-9.7V57.5c0,0,0.4-9.7,11.8-9.7C262.9,47.8,263.2,57.5,263.2,57.5z M258.1,60.7v-1.7c0,0,0-6.1-6.6-6.1
			c-6.6,0-6.6,6.1-6.6,6.1v1.7H258.1z"/>
		<path class="st26" d="M312.6,47.1v23.7c0,0-0.3,8.8-11.8,8.8c-2.6,0-11.8,0-11.8,0V38.3c0,0,9.2,0,11.8,0
			C312.3,38.3,312.6,47.1,312.6,47.1z M307.4,48.5c0,0,0-5-6.6-5c-4.1,0-6.2,0-6.2,0v30.6c0,0,2.1,0,6.2,0c6.6,0,6.6-4.6,6.6-4.6
			V48.5z"/>
		<path class="st26" d="M339.8,57V70c0,0-0.3,9.7-11.8,9.7c-11.5,0-11.8-9.7-11.8-9.7V57c0,0,0.4-9.8,11.8-9.8
			C339.5,47.2,339.8,57,339.8,57z M334.6,58.4c0,0,0-6.1-6.6-6.1c-6.6,0-6.6,6.1-6.6,6.1v10.2c0,0,0,5.7,6.6,5.7
			c6.6,0,6.6-5.7,6.6-5.7V58.4z"/>
		<path class="st26" d="M361.8,67.6h5.2V70c0,0-0.3,9.7-11.8,9.7c-11.5,0-11.8-9.7-11.8-9.7V57.5c0,0,0.4-9.7,11.8-9.7
			c11.5,0,11.8,9.7,11.8,9.7v1.7h-5.2v-0.3c0,0,0-6.1-6.6-6.1c-6.6,0-6.6,6.1-6.6,6.1v9.6c0,0,0,5.7,6.6,5.7c6.6,0,6.6-5.7,6.6-5.7
			V67.6z"/>
		<path class="st26" d="M387,56.3c0,0,0.1-4.6-5.6-4.6c-5.6,0-5.6,3.7-5.6,5.8c0,7.1,16.5-0.8,16.5,11.1c0,5.6-1,11.2-10.9,11.2
			c-10.1,0-10.9-9-10.9-9l5.2-1.4c0,0,0.2,5.1,5.6,5.1c4.7,0,6.4-3,5.6-5.9c-1.7-6.4-15.9,0.7-16.5-11.1
			c-0.2-3.7,0.4-10.9,10.9-10.9c10.9,0,10.9,8.3,10.9,8.3L387,56.3z"/>
		<path class="st26" d="M278.6,47.8c-2.6,0-4.6,0.9-6.2,1.7v-1.7h-5.6v32h5.6V57.1c0.6-1.7,2.1-3.9,6.2-3.9c2.3,0,4.6,1,6,1.7v-6.1
			C283.4,48.4,281.3,47.8,278.6,47.8z"/>
	</g>
</g>
</svg>
