<svg xmlns="http://www.w3.org/2000/svg" viewBox="0 0 64 64" width="128" height="128"><linearGradient id="oJs3HIRJpyHGw7l9f0O6ha" x1="32" x2="32" y1="5.75" y2="21.258" gradientUnits="userSpaceOnUse" spreadMethod="reflect"><stop offset="0" stop-color="#6dc7ff"/><stop offset="1" stop-color="#e6abff"/></linearGradient><path fill="url(#oJs3HIRJpyHGw7l9f0O6ha)" d="M32.545,11.634l-1.088-3.265C31.184,7.551,30.419,7,29.557,7l-9.114,0 c-0.862,0-1.627,0.551-1.9,1.369l-1.088,3.265C17.183,12.45,16.42,13,15.56,13L12,13c-1.105,0-2,0.895-2,2l0,4l44,0l0-4 c0-1.105-0.895-2-2-2H34.44C33.58,13,32.817,12.45,32.545,11.634z"/><linearGradient id="oJs3HIRJpyHGw7l9f0O6hb" x1="32" x2="32" y1="4.75" y2="59.582" gradientUnits="userSpaceOnUse" spreadMethod="reflect"><stop offset="0" stop-color="#1a6dff"/><stop offset="1" stop-color="#c822ff"/></linearGradient><path fill="url(#oJs3HIRJpyHGw7l9f0O6hb)" d="M53,12.184V11c0-1.654-1.346-3-3-3H32.383c-0.426-1.197-1.552-2-2.826-2h-9.113 c-1.275,0-2.402,0.803-2.826,2H14c-1.654,0-3,1.346-3,3v1.184C9.839,12.599,9,13.698,9,15v4v1v27c0,1.654,1.346,3,3,3h7v5 c0,1.654,1.346,3,3,3h20c1.654,0,3-1.346,3-3v-5h7c1.654,0,3-1.346,3-3V20v-1v-4C55,13.698,54.161,12.599,53,12.184z M51,11v1H34.44 c-0.43,0-0.811-0.274-0.947-0.683L33.054,10H50C50.551,10,51,10.448,51,11z M14,10h2.946l-0.439,1.317 C16.371,11.726,15.99,12,15.56,12H13v-1C13,10.448,13.449,10,14,10z M11,15c0-0.552,0.449-1,1-1h3.56 c1.292,0,2.435-0.824,2.844-2.05l1.088-3.265C19.629,8.275,20.011,8,20.443,8h9.113c0.432,0,0.814,0.275,0.951,0.686l1.088,3.265 C32.005,13.176,33.148,14,34.44,14H52c0.551,0,1,0.448,1,1v3H11V15z M42,56H22c-0.551,0-1-0.448-1-1V29c0-0.552,0.449-1,1-1h15v3 c0,1.654,1.346,3,3,3h3v21C43,55.552,42.551,56,42,56z M39,29.414L41.586,32H40c-0.551,0-1-0.448-1-1V29.414z M52,48h-7V33.828 c0-0.801-0.312-1.555-0.879-2.121l-4.828-4.828C38.727,26.313,37.973,26,37.171,26H22c-1.654,0-3,1.346-3,3v19h-7 c-0.551,0-1-0.448-1-1V20h42v27C53,47.552,52.551,48,52,48z"/><linearGradient id="oJs3HIRJpyHGw7l9f0O6hc" x1="32" x2="32" y1="4.75" y2="59.582" gradientUnits="userSpaceOnUse" spreadMethod="reflect"><stop offset="0" stop-color="#1a6dff"/><stop offset="1" stop-color="#c822ff"/></linearGradient><path fill="url(#oJs3HIRJpyHGw7l9f0O6hc)" d="M25 38H39V40H25z"/><linearGradient id="oJs3HIRJpyHGw7l9f0O6hd" x1="32" x2="32" y1="4.75" y2="59.582" gradientUnits="userSpaceOnUse" spreadMethod="reflect"><stop offset="0" stop-color="#1a6dff"/><stop offset="1" stop-color="#c822ff"/></linearGradient><path fill="url(#oJs3HIRJpyHGw7l9f0O6hd)" d="M27 42H37V44H27z"/><linearGradient id="oJs3HIRJpyHGw7l9f0O6he" x1="32" x2="32" y1="4.75" y2="59.582" gradientUnits="userSpaceOnUse" spreadMethod="reflect"><stop offset="0" stop-color="#1a6dff"/><stop offset="1" stop-color="#c822ff"/></linearGradient><path fill="url(#oJs3HIRJpyHGw7l9f0O6he)" d="M29 46H35V48H29z"/></svg>