<?xml version="1.0" encoding="utf-8"?>
<!-- Generator: Adobe Illustrator 25.4.1, SVG Export Plug-In . SVG Version: 6.00 Build 0)  -->
<svg version="1.1" id="Layer_1" xmlns="http://www.w3.org/2000/svg" xmlns:xlink="http://www.w3.org/1999/xlink" x="0px" y="0px"
	 viewBox="0 0 1177 419.8" style="enable-background:new 0 0 1177 419.8;" xml:space="preserve">
<style type="text/css">
	.st0{fill:#344654;}
</style>
<g>
	<rect x="6.6" y="113.1" class="st0" width="53.4" height="53.9"/>
	<rect x="75.5" y="113.1" class="st0" width="53.4" height="53.9"/>
	<rect x="144.6" y="113.1" class="st0" width="53.4" height="53.9"/>
	<rect x="6.6" y="182.8" class="st0" width="53.4" height="53.9"/>
	<rect x="75.5" y="182.8" class="st0" width="53.4" height="53.9"/>
	<rect x="144.6" y="182.8" class="st0" width="53.4" height="53.9"/>
	<rect x="6.6" y="252.6" class="st0" width="53.4" height="53.9"/>
	<rect x="75.5" y="252.6" class="st0" width="53.4" height="53.9"/>
	<rect x="144.6" y="252.6" class="st0" width="53.4" height="53.9"/>
	<path class="st0" d="M340.9,179.9c-16.2,0-30.3,6.5-40.3,15.5v-82.2H287v180.5c12.2,7.1,28.6,12.6,46.3,12.6
		c31.5,0,60.8-17.5,60.8-63.5C394.1,198.3,368,179.9,340.9,179.9z M332.5,294.3c-9.8,0-20.7-2.4-31.9-8v-74.9
		c9.5-10.5,23.6-19,39.1-19c22.9,0,40.8,18.4,40.9,50.7C380.5,279.6,357.3,294.3,332.5,294.3z"/>
	<path class="st0" d="M1033.3,238.7c-18.8-7.8-33.7-12.6-33.7-25.8c0-10.4,9.1-20.2,29.3-20.2c10.9,0,20.6,3.2,28.3,7.2l5.1-10.7
		c-9.8-5.1-21.3-8.9-33.8-8.9c-24,0-42.3,13-42.3,32.6s18.1,27.2,38.8,35.5c18.7,7.3,30.4,15.9,30.4,26.9
		c0.1,12.9-15.7,18.2-28.5,18.2c-10.9,0-22.4-3.5-32.5-10.4l-5.8,11.6c12.2,7.2,25.3,11.1,38.7,11.1c23.8,0,41.6-12.1,41.6-31.3
		C1069,263.5,1062.6,250.3,1033.3,238.7z"/>
	<path class="st0" d="M904.8,180c-32.6,0-58.7,25.8-58.7,63c0,34.9,23.6,63.2,58.7,63.2c31.4,0,58.7-22.7,58.7-63.2
		C963.6,203.3,936.2,180,904.8,180z M904.8,293.5c-29.3,0-45-23.6-45-50.6c0-27.2,15.9-50.3,45-50.3c28.5,0,45.2,23.2,45.2,50.3
		C950,269.9,933.2,293.5,904.8,293.5z"/>
	<rect x="417.8" y="113.1" class="st0" width="13" height="191.2"/>
	<path class="st0" d="M1166.5,288.8c-7.2,3.3-15.3,5.1-22.9,4.7c-17.8-0.6-26.1-13.4-26.1-33.1v-66.8h40.3V182h-40.3v-41.2H1104v41
		h-21.8v11.5h21.8v67.8c0,31.5,17.4,44.9,39.4,44.9c9.7,0.1,18.9-2.4,27.1-5.4L1166.5,288.8z"/>
	<path class="st0" d="M785.3,180c-18.5,0-34.7,10.5-44.8,25.8v-92.6H727v191.1h13.5v-84c8.3-13.9,24.2-27.7,41.9-27.6
		c14.6,0.1,28.2,9.6,28.2,36.1v75.6H824v-78.5C824.2,198.5,809.8,180,785.3,180z"/>
	<path class="st0" d="M546.3,266.7c-11.3,16.8-26,26.8-42,26.8c-14.2,0-28.5-7.9-28.5-37v-74.6h-13.5v76c0,37.3,18.4,48.3,37.7,48.3
		c18.5,0,35.6-10.4,46.3-25.5v23.7h13.5V181.8h-13.5V266.7z"/>
	<path class="st0" d="M645.7,180.3c-30.4-1.1-58.9,19.8-60.2,58.4c-1.4,34.4,19.6,66.7,60.5,67.9c17.7,0.7,32.9-4.7,43.5-10.5
		l-4.7-11.4c-10.6,5.7-23.9,10-38.1,9.4c-32.1-1.1-48.1-25.2-47.9-48h97.8C700.8,207.5,678.4,181.2,645.7,180.3z M683.9,235h-84.7
		c1.7-25,20.9-43.3,45.3-42.4C669.7,193.4,684.5,213.6,683.9,235z"/>
</g>
</svg>
