<svg width="21" height="20" viewBox="0 0 21 20" fill="none" xmlns="http://www.w3.org/2000/svg">
<path d="M20.3506 10.0498C20.3506 8.33105 19.8818 6.69043 19.0225 5.20605C18.1631 3.72168 16.9912 2.5498 15.5068 1.69043C14.0225 0.831055 12.3818 0.362305 10.6631 0.362305C8.90527 0.362305 7.30371 0.831055 5.81934 1.69043C4.33496 2.5498 3.12402 3.72168 2.26465 5.20605C1.40527 6.69043 0.975586 8.33105 0.975586 10.0498C0.975586 11.8076 1.40527 13.4092 2.26465 14.8936C3.12402 16.3779 4.33496 17.5889 5.81934 18.4482C7.30371 19.3076 8.90527 19.7373 10.6631 19.7373C12.3818 19.7373 14.0225 19.3076 15.5068 18.4482C16.9912 17.5889 18.1631 16.3779 19.0225 14.8936C19.8818 13.4092 20.3506 11.8076 20.3506 10.0498ZM9.53027 15.167C9.41309 15.3232 9.25684 15.3623 9.10059 15.3623C8.90527 15.3623 8.74902 15.3232 8.6709 15.167L4.6084 11.1045C4.45215 11.0264 4.41309 10.8701 4.41309 10.6748C4.41309 10.5186 4.45215 10.3623 4.6084 10.2451L5.46777 9.34668C5.58496 9.22949 5.74121 9.15137 5.89746 9.15137C6.05371 9.15137 6.20996 9.22949 6.36621 9.34668L9.10059 12.0811L14.96 6.22168C15.0771 6.10449 15.2334 6.02637 15.3896 6.02637C15.5459 6.02637 15.7021 6.10449 15.8584 6.22168L16.7178 7.12012C16.835 7.2373 16.9131 7.39355 16.9131 7.5498C16.9131 7.74512 16.835 7.90137 16.7178 7.97949L9.53027 15.167Z" fill="#03ABA3"/>
</svg>
