<svg width="21" height="20" viewBox="0 0 21 20" fill="none" xmlns="http://www.w3.org/2000/svg">
<path d="M10.6631 0.362305C12.3818 0.362305 14.0225 0.831055 15.5068 1.69043C16.9912 2.5498 18.1631 3.72168 19.0225 5.20605C19.8818 6.69043 20.3506 8.33105 20.3506 10.0498C20.3506 11.8076 19.8818 13.4092 19.0225 14.8936C18.1631 16.3779 16.9912 17.5889 15.5068 18.4482C14.0225 19.3076 12.3818 19.7373 10.6631 19.7373C8.90527 19.7373 7.30371 19.3076 5.81934 18.4482C4.33496 17.5889 3.12402 16.3779 2.26465 14.8936C1.40527 13.4092 0.975586 11.8076 0.975586 10.0498C0.975586 8.33105 1.40527 6.69043 2.26465 5.20605C3.12402 3.72168 4.33496 2.5498 5.81934 1.69043C7.30371 0.831055 8.90527 0.362305 10.6631 0.362305ZM19.1006 10.0498C19.1006 8.52637 18.71 7.12012 17.9678 5.83105C17.1865 4.54199 16.1709 3.52637 14.8818 2.74512C13.5537 2.00293 12.1475 1.6123 10.624 1.6123C9.10059 1.6123 7.69434 2.00293 6.40527 2.74512C5.11621 3.52637 4.10059 4.54199 3.3584 5.83105C2.57715 7.15918 2.22559 8.56543 2.22559 10.0889C2.22559 11.6123 2.57715 13.0186 3.3584 14.3076C4.10059 15.5967 5.11621 16.6123 6.44434 17.3545C7.7334 18.1357 9.13965 18.4873 10.6631 18.4873C12.1865 18.4873 13.5928 18.1357 14.8818 17.3545C16.1709 16.6123 17.1865 15.5967 17.9678 14.2686C18.71 12.9795 19.1006 11.5732 19.1006 10.0498Z" fill="#CDDAEB"/>
</svg>
