<?xml version="1.0" encoding="utf-8"?>
<!-- Generator: Adobe Illustrator 25.4.1, SVG Export Plug-In . SVG Version: 6.00 Build 0)  -->
<svg version="1.1" id="Layer_1" xmlns="http://www.w3.org/2000/svg" xmlns:xlink="http://www.w3.org/1999/xlink" x="0px" y="0px"
	 viewBox="0 0 1177 419.8" style="enable-background:new 0 0 1177 419.8;" xml:space="preserve">
<style type="text/css">
	.st0{fill:#141B21;}
	.st1{fill:#99A6AE;}
</style>
<g>
	<polygon class="st0" points="657.6,99.9 642.1,99.9 619.7,184.6 619.7,341 720,341 720,306.6 657.6,306.6 	"/>
	<polygon class="st0" points="737.4,341 840.8,341 840.8,306.6 775.3,306.6 775.3,232.5 827.3,232.5 827.3,198.1 775.3,198.1 
		775.3,134.3 840.8,134.3 840.8,99.9 737.4,99.9 	"/>
	<polygon class="st0" points="944.6,274.9 919.4,99.9 866,99.9 866,341 899.1,341 899.1,158.5 927.4,341 959.1,341 987.3,158.5 
		987.3,341 1023.1,341 1023.1,99.9 969.7,99.9 	"/>
	<path class="st0" d="M1133.7,99.9h-51.3L1043.1,341h35.1l6.5-47.2h43.7l6.5,47.2h37.9L1133.7,99.9z M1089.6,261.1l16.9-121.6
		l17.2,121.6H1089.6z"/>
</g>
<g>
	<path class="st1" d="M58.8,96.4c-36.5,0-55.8,22-55.8,59.3v129.5c0,37.2,19.3,59.3,55.8,59.3c36.5,0,55.8-22,55.8-59.3v-32.4H78.8
		V288c0,15.8-7.6,22-18.9,22s-18.9-6.2-18.9-22V153.3c0-15.8,7.6-22.4,18.9-22.4s18.9,6.5,18.9,22.4v27.9h35.8v-25.5
		C114.6,118.5,95.3,96.4,58.8,96.4z"/>
	<polygon class="st1" points="217.6,198.1 177,198.1 177,99.9 139.1,99.9 139.1,341 177,341 177,232.5 217.6,232.5 217.6,341 
		255.5,341 255.5,99.9 217.6,99.9 	"/>
	<path class="st1" d="M398.5,269.4c0-27.2-6.2-45.1-25.1-51v-0.7c16.9-6.9,24.8-22.7,24.8-47.5v-14.8c0-37.2-16.9-55.5-56.2-55.5
		h-56.2V341h37.9V237.7h13.1c17.2,0,23.8,7.2,23.8,29.6v44.1c0,19.6,1.4,23.4,3.4,29.6h38.6c-3.8-9-4.1-17.6-4.1-29.3V269.4z
		 M360.3,177.7c0,19.3-8.6,25.5-22.7,25.5h-13.8v-68.9H341c13.4,0,19.3,7.6,19.3,24.8V177.7z"/>
	<rect x="426.8" y="99.9" class="st1" width="37.9" height="241.2"/>
	<path class="st1" d="M653.2,50.2L596,266c-3.7-21.1-15.4-38.1-40.6-60.3C530.6,183.9,522,171.5,522,154c0-16.5,7.2-23.1,19.3-23.1
		c12.1,0,18.9,6.5,18.9,23.8v12.4H596v-10c0-38.6-18.3-60.6-55.1-60.6c-36.9,0-56.5,22-56.5,59.9c0,27.6,10.7,47.5,42.4,75.4
		c24.8,21.7,33.1,34.1,33.1,54.1c0,17.9-7.9,24.1-20,24.1s-19.6-6.2-19.6-23.4v-16.5h-35.8v13.8c0,38.6,18.6,60.6,55.8,60.6
		c15.9,0,28.7-4.1,38.1-11.8l-9.3,35.1l3.9,1l84.2-317.6L653.2,50.2z"/>
</g>
</svg>
