<svg width="5" height="17" viewBox="0 0 5 17" fill="none" xmlns="http://www.w3.org/2000/svg">
<path d="M2.96631 4.91211C4.06631 4.91211 4.96631 4.01211 4.96631 2.91211C4.96631 1.81211 4.06631 0.912109 2.96631 0.912109C1.86631 0.912109 0.966309 1.81211 0.966309 2.91211C0.966309 4.01211 1.86631 4.91211 2.96631 4.91211ZM2.96631 6.91211C1.86631 6.91211 0.966309 7.81211 0.966309 8.91211C0.966309 10.0121 1.86631 10.9121 2.96631 10.9121C4.06631 10.9121 4.96631 10.0121 4.96631 8.91211C4.96631 7.81211 4.06631 6.91211 2.96631 6.91211ZM2.96631 12.9121C1.86631 12.9121 0.966309 13.8121 0.966309 14.9121C0.966309 16.0121 1.86631 16.9121 2.96631 16.9121C4.06631 16.9121 4.96631 16.0121 4.96631 14.9121C4.96631 13.8121 4.06631 12.9121 2.96631 12.9121Z" fill="#5B748A"/>
</svg>
