<?xml version="1.0" encoding="utf-8"?>
<!-- Generator: Adobe Illustrator 25.4.1, SVG Export Plug-In . SVG Version: 6.00 Build 0)  -->
<svg version="1.1" id="Layer_1" xmlns="http://www.w3.org/2000/svg" xmlns:xlink="http://www.w3.org/1999/xlink" x="0px" y="0px"
	 viewBox="0 0 1177 419.8" style="enable-background:new 0 0 1177 419.8;" xml:space="preserve">
<style type="text/css">
	.st0{fill:#344652;}
</style>
<path id="Path_27" class="st0" d="M237.3,101.3c-27.9-17.4-64.6-13.3-97.4,7.3c-32.7-20.6-69.4-24.7-97.3-7.3
	c-44.1,27.6-49.4,98.5-12,158.5c27.6,44.2,70.8,70.1,109.3,69.7c38.5,0.5,81.7-25.4,109.3-69.7C286.7,199.8,281.4,128.8,237.3,101.3
	z M50.9,247.1c-7.7-12.3-13.6-25.6-17.3-39.6c-3.3-12.2-4.6-24.8-3.8-37.3c1.7-22.2,10.7-39.4,25.4-48.6s34.1-9.7,54.8-1.5
	c3.1,1.2,6.2,2.7,9.2,4.3c-11.5,10.5-21.5,22.5-29.7,35.7C66.7,196.5,59.8,237,67.7,269.3C61.5,262.4,55.9,255,50.9,247.1
	L50.9,247.1z M246.3,207.5c-3.7,14-9.6,27.3-17.3,39.6c-4.9,7.9-10.6,15.4-16.9,22.2c7.1-29,2.3-64.4-15.1-97.7
	c-1.1-2.2-3.7-3-5.9-1.9c-0.1,0.1-0.3,0.1-0.4,0.2l-54.3,33.9c-2.1,1.3-2.7,4-1.4,6.1l0,0l8,12.7c1.3,2.1,4,2.7,6.1,1.4l0,0l35.2-22
	c1.1,3.4,2.3,6.8,3.1,10.2c3.3,12.1,4.6,24.7,3.8,37.3c-1.7,22.2-10.7,39.4-25.4,48.6c-7.6,4.6-16.3,7.2-25.2,7.3h-1.1
	c-8.9-0.1-17.6-2.6-25.2-7.3c-14.7-9.2-23.7-26.5-25.4-48.6c-0.8-12.6,0.4-25.2,3.8-37.3c7.6-28.1,23.4-53.3,45.3-72.5
	c9.5-8.3,20.2-15,31.9-19.7c20.6-8.2,40.1-7.7,54.8,1.5s23.7,26.4,25.4,48.6C250.9,182.7,249.6,195.3,246.3,207.5z M526.5,181
	c-28.5,0-51.6,22.3-51.6,50.6c0,28.2,23.1,50.1,51.6,50.1c28.7,0,51.8-21.9,51.8-50.1C578.3,203.3,555.3,181,526.5,181L526.5,181z
	 M526.5,255.2c-13.2,0-23.2-10.6-23.2-23.8s10-24,23.2-24c13.3,0,23.4,10.8,23.4,24S539.9,255.3,526.5,255.2L526.5,255.2z
	 M642.7,142.1h-52.5c-2.3,0-4.2,1.8-4.3,4.1c0,0.1,0,0.1,0,0.2v128c-0.2,2.3,1.6,4.4,3.9,4.5c0.1,0,0.2,0,0.3,0h52.5
	c42,0,71.2-27.9,71.2-68.6C713.9,169.5,684.7,142.1,642.7,142.1z M643.9,252h-28.7v-82.9h28.7c23.3,0,39.3,17.4,39.3,41.3
	C683.2,233.8,667.2,252,643.9,252z M818.4,183.8h-19.7c-2.3,0.2-4,2-4.1,4.3v5.9c-4.5-7.4-14.7-12.9-27.3-12.9
	c-24.6,0-47.7,19.3-47.7,50.2c0,30.7,22.9,50.4,47.5,50.4c12.7,0,23.1-5.5,27.6-12.9v6.1c0,2.3,1.8,4.1,4.1,4.1h19.7
	c2.2,0.1,4.1-1.7,4.1-3.9c0-0.1,0-0.1,0-0.2v-86.8c0.1-2.3-1.7-4.2-4-4.3C818.5,183.8,818.5,183.8,818.4,183.8z M772.5,255.4
	c-13.1,0-22.9-10-22.9-24c0-13.9,9.8-24,22.9-24c13.1,0,22.9,10,22.9,24S785.6,255.4,772.5,255.4L772.5,255.4z M929.3,142.1h-19.7
	c-2.3-0.1-4.2,1.7-4.3,4c0,0,0,0,0,0.1v47.3c-4.6-7-14.9-12.5-27.8-12.5c-24.4,0-47.1,19.3-47.1,50.2c0,30.7,22.9,50.4,47.5,50.4
	c12.7,0,22.3-5.5,27.6-12.9v6.1c0,2.3,1.8,4.1,4.1,4.1h19.7c2.2,0.1,4.1-1.7,4.1-3.9c0-0.1,0-0.1,0-0.2V146.2
	c0.1-2.2-1.7-4.1-3.9-4.1C929.4,142.1,929.4,142.1,929.3,142.1L929.3,142.1z M883.3,255.7c-13,0-22.8-10.2-22.8-24.2
	c0-14.1,9.8-24.2,22.8-24.2s22.8,10.2,22.8,24.2S896.4,255.7,883.3,255.7z M1040.1,142.1h-19.7c-2.3-0.1-4.2,1.7-4.3,4
	c0,0,0,0,0,0.1v47.3c-4.5-7-14.9-12.5-27.8-12.5c-24.4,0-47.1,19.3-47.1,50.2c0,30.7,22.9,50.4,47.5,50.4c12.7,0,22.3-5.5,27.6-12.9
	v6.1c0,2.3,1.8,4.1,4.1,4.1h19.7c2.2,0.1,4-1.7,4.1-3.9c0-0.1,0-0.1,0-0.2V146.2c0.1-2.2-1.6-4.1-3.9-4.1
	C1040.2,142.1,1040.2,142.1,1040.1,142.1z M994.2,255.7c-13,0-22.8-10.2-22.8-24.2c0-14.1,9.8-24.2,22.8-24.2s22.8,10.2,22.8,24.2
	C1016.9,245.5,1007.2,255.7,994.2,255.7L994.2,255.7z M1148.2,190.4l-29.5,101c-5.7,18-18.4,28.7-38.1,28.7c-9,0-17.1-1.8-23.6-5.5
	c-3.7-2.1-6.8-4.1-6.8-7.2c0-1.9,0.6-2.9,1.8-4.7l5.8-8.8c1.7-2.4,2.9-3.2,4.6-3.2c1.4,0,2.8,0.5,3.9,1.4c3.7,2.4,7.1,4.4,12.3,4.4
	c6.1,0,10.7-1.9,13.2-9.2l2.5-8.4h-11.9c-2.5,0.1-4.7-1.6-5.3-4.1l-26.4-84.4c-1-3.3-0.1-6.6,4.8-6.6h20.8c2.5,0,4.3,0.9,5.4,4.5
	l19.5,68l18.2-68c0.6-2.3,2.2-4.5,5.3-4.5h19.7C1148.4,183.8,1149.5,186.5,1148.2,190.4z M467.5,220.5v54c0,2.4-1.9,4.4-4.3,4.5
	h-0.1h-16.3c-2.4,0-4.4-1.9-4.5-4.3c0-0.1,0-0.1,0-0.2v-14.2c-10.3,13.1-28.3,21.3-48.7,21.3c-38.2,0-68.1-28.7-68.1-69.7
	c0-42.5,32.2-71.8,73-71.8c30.1,0,54.1,12.9,64.8,38.9c0.3,0.7,0.5,1.4,0.5,2.2c0,1.2-0.8,2.2-3.4,3.1l-19,7.3
	c-1.1,0.5-2.4,0.5-3.6,0.1c-1-0.6-1.8-1.5-2.3-2.6c-6.8-13-19-21.8-37.7-21.8c-24.3,0-41.6,18.9-41.6,43.5
	c0,23.8,14.8,43.4,42.3,43.4c14.5,0,26-6.8,31.4-14.3h-17.2c-2.4,0-4.4-1.9-4.5-4.3v-0.1v-14.7c0-2.4,1.9-4.4,4.3-4.5h0.1H463
	c2.3-0.1,4.3,1.7,4.5,4C467.5,220.3,467.5,220.4,467.5,220.5L467.5,220.5z M1148.7,163.8v-1.3c0-0.1,0-0.2,0.1-0.3s0.2-0.1,0.2-0.1
	h8.3c0.1,0,0.2,0,0.2,0.1c0.1,0.1,0.1,0.2,0.1,0.3v1.3c0,0.1,0,0.2-0.1,0.2c-0.1,0.1-0.2,0.1-0.2,0.1h-3v8.2c0,0.2-0.2,0.3-0.3,0.3
	h-1.6c-0.1,0-0.2,0-0.2-0.1c-0.1-0.1-0.1-0.1-0.1-0.2v-8.2h-3C1148.9,164.1,1148.7,164,1148.7,163.8L1148.7,163.8L1148.7,163.8z
	 M1163.3,162.4l2.3,5.3l2.3-5.3c0-0.1,0.1-0.2,0.2-0.2s0.2-0.1,0.3-0.1h2.6c0.2,0,0.3,0.1,0.3,0.3l0,0v9.9c0,0.2-0.1,0.3-0.3,0.3
	l0,0h-1.5c-0.1,0-0.2,0-0.2-0.1c-0.1-0.1-0.1-0.1-0.1-0.2v-7.5l-2.4,5.4c0,0.1-0.1,0.2-0.2,0.3s-0.2,0.1-0.3,0.1h-1.2
	c-0.1,0-0.2,0-0.3-0.1c-0.1-0.1-0.2-0.2-0.2-0.3l-2.4-5.4v7.5c0,0.2-0.1,0.3-0.3,0.3l0,0h-1.5c-0.2,0-0.3-0.1-0.3-0.3l0,0v-9.9
	c0-0.2,0.1-0.3,0.3-0.3l0,0h2.6c0.1,0,0.2,0,0.3,0.1C1163.2,162.3,1163.3,162.3,1163.3,162.4L1163.3,162.4z"/>
</svg>
