<svg width="11" height="14" viewBox="0 0 11 14" fill="none" xmlns="http://www.w3.org/2000/svg">
<path d="M5.21826 13.8015C6.10145 13.8015 6.93112 13.5874 7.68049 13.1592C8.42987 12.7309 9.01866 12.1154 9.44688 11.366C9.87509 10.6166 10.116 9.81373 10.116 8.90378C10.116 8.20793 9.95538 7.51208 9.63422 6.843C9.44688 6.46831 9.07219 5.87951 8.53692 5.07661C8.00165 4.354 7.62697 3.76521 7.3861 3.31023C6.95788 2.56085 6.60996 1.78471 6.36909 0.955049C6.26203 0.607125 6.02116 0.366255 5.7 0.205674C5.37884 0.0718573 5.03092 0.0718573 4.70976 0.205674C4.3886 0.339491 4.17449 0.580362 4.06744 0.955049C3.82656 1.75795 3.5054 2.53409 3.07719 3.28347C2.80956 3.71168 2.43487 4.30047 1.92636 5.02309C1.36433 5.82599 0.989645 6.41478 0.802301 6.81623C0.48114 7.51208 0.32056 8.20793 0.32056 8.90378C0.32056 9.81373 0.534667 10.6166 0.962881 11.366C1.3911 12.1154 2.00665 12.7309 2.75603 13.1592C3.5054 13.5874 4.30831 13.8015 5.21826 13.8015ZM1.17699 8.90378C1.17699 8.31498 1.31081 7.72619 1.6052 7.13739C1.76578 6.78947 2.11371 6.2542 2.64898 5.50483C3.15748 4.75545 3.55893 4.16666 3.82656 3.68492C4.25478 2.90878 4.62947 2.07911 4.8971 1.19592C4.92386 1.03534 5.03092 0.955049 5.21826 0.955049C5.37884 0.955049 5.4859 1.03534 5.53942 1.19592C5.80706 2.07911 6.15498 2.90878 6.60996 3.68492C6.87759 4.16666 7.25228 4.78222 7.78755 5.50483C8.29605 6.2542 8.64398 6.78947 8.83132 7.13739C9.09895 7.72619 9.25953 8.31498 9.25953 8.90378C9.25953 9.65315 9.07219 10.3222 8.6975 10.9378C8.32282 11.5534 7.84107 12.0351 7.22552 12.4098C6.60996 12.7845 5.94087 12.9451 5.21826 12.9451C4.46889 12.9451 3.7998 12.7845 3.18424 12.4098C2.56869 12.0351 2.08694 11.5534 1.71226 10.9378C1.33757 10.3222 1.17699 9.65315 1.17699 8.90378ZM4.06744 8.76996C4.14773 9.0376 4.30831 9.30523 4.52241 9.59963C4.62947 9.76021 4.68299 9.89402 4.73652 9.94755C4.79005 10.0814 4.81681 10.2152 4.81681 10.349C4.81681 10.5899 4.70976 10.804 4.54918 10.9646C4.3886 11.1519 4.17449 11.2322 3.93362 11.2322C3.66598 11.2322 3.45188 11.1519 3.2913 10.9646C3.13072 10.804 3.05043 10.5899 3.05043 10.349C3.05043 10.2152 3.07719 10.0814 3.13072 9.94755C3.15748 9.89402 3.23777 9.76021 3.34482 9.59963C3.55893 9.30523 3.69275 9.0376 3.7998 8.76996C3.7998 8.71643 3.85333 8.66291 3.93362 8.66291C3.98715 8.66291 4.04067 8.71643 4.06744 8.76996Z" fill="#06429E"/>
</svg>
