<svg width="15" height="14" viewBox="0 0 15 14" fill="none" xmlns="http://www.w3.org/2000/svg">
<path d="M2.31206 8.8172C2.33882 8.87073 2.36558 8.95102 2.36558 9.00454C2.36558 9.08483 2.33882 9.13836 2.28529 9.19189L2.12471 9.35247C2.07118 9.45952 1.99089 9.48629 1.88384 9.48629C1.77679 9.48629 1.6965 9.43276 1.64297 9.32571C1.1077 8.60309 0.866832 7.80019 0.866832 6.89024C0.866832 6.14086 1.05418 5.41825 1.42886 4.74916C1.80355 4.10684 2.33882 3.57157 3.0079 3.19689C3.65023 2.8222 4.37284 2.60809 5.14898 2.60809H9.43112V0.895235C9.43112 0.654364 9.51141 0.440257 9.69875 0.279677C9.85933 0.119096 10.0734 0.0388062 10.3143 0.0388062C10.5284 0.0388062 10.7425 0.14586 10.9299 0.333204L12.8568 2.47428C12.9907 2.63486 13.0709 2.8222 13.0709 3.03631C13.0709 3.25041 12.9907 3.43776 12.8568 3.59834L10.9299 5.73941C10.7425 5.95352 10.5284 6.03381 10.3143 6.03381C10.0734 6.03381 9.85933 5.95352 9.69875 5.79294C9.51141 5.63236 9.43112 5.44501 9.43112 5.17738V3.46452H5.14898C4.50665 3.46452 3.94462 3.6251 3.40935 3.9195C2.87409 4.24066 2.47264 4.64211 2.17824 5.17738C1.85708 5.71265 1.72326 6.27468 1.72326 6.89024C1.72326 7.58608 1.9106 8.22841 2.31206 8.8172ZM10.2875 0.895235V5.17738L12.2145 3.03631L10.2875 0.895235ZM13.7936 4.45477C14.3021 5.20414 14.5697 6.00704 14.5697 6.89024C14.5697 7.66637 14.3556 8.38899 13.9809 9.03131C13.6062 9.70039 13.0709 10.2357 12.4286 10.6103C11.7595 10.985 11.0369 11.1724 10.2875 11.1724H6.0054V12.8852C6.0054 13.1529 5.89835 13.3402 5.73777 13.5008C5.55043 13.6614 5.33632 13.7417 5.12221 13.7417C4.88134 13.7417 4.66723 13.6614 4.50665 13.4473L2.57969 11.3062C2.41911 11.1456 2.36558 10.9583 2.36558 10.7442C2.36558 10.5301 2.41911 10.3427 2.57969 10.1821L4.50665 8.04106C4.66723 7.85372 4.88134 7.74666 5.12221 7.74666C5.33632 7.74666 5.55043 7.82696 5.73777 7.98754C5.89835 8.14812 6.0054 8.36222 6.0054 8.60309V10.316H10.2875C10.9031 10.316 11.4651 10.1821 12.0004 9.86097C12.5357 9.56658 12.9371 9.16512 13.2583 8.62986C13.5527 8.09459 13.7133 7.53256 13.7133 6.89024C13.7133 6.19439 13.4992 5.55207 13.1245 4.96327C13.0709 4.90974 13.0709 4.85622 13.0709 4.77593C13.0709 4.7224 13.0977 4.64211 13.1512 4.58858L13.3118 4.428C13.3653 4.34771 13.4456 4.32095 13.5527 4.32095C13.6597 4.32095 13.74 4.37448 13.7936 4.45477ZM5.14898 12.8852V8.60309L3.22201 10.7442L5.14898 12.8852Z" fill="#06429E"/>
</svg>
