<svg width="13" height="14" viewBox="0 0 13 14" fill="none" xmlns="http://www.w3.org/2000/svg">
<path d="M6.7041 11.3993C6.83792 11.3993 6.97174 11.3458 7.07879 11.2387C7.18584 11.1317 7.23937 11.0246 7.23937 10.864V9.15118C7.23937 9.01736 7.18584 8.88355 7.07879 8.77649C6.97174 8.66944 6.83792 8.61591 6.7041 8.61591C6.54352 8.61591 6.43647 8.66944 6.32941 8.77649C6.22236 8.88355 6.16883 9.01736 6.16883 9.15118V10.864C6.16883 11.0246 6.22236 11.1317 6.32941 11.2387C6.43647 11.3458 6.54352 11.3993 6.7041 11.3993ZM12.6991 7.43832C12.6991 7.0904 12.5653 6.796 12.3244 6.52837C12.0568 6.2875 11.7624 6.15368 11.4145 6.15368H10.9862V4.46759C10.9862 3.71821 10.7721 2.9956 10.3975 2.32651C10.0228 1.68419 9.48749 1.14892 8.84517 0.747474C8.20285 0.372786 7.48024 0.158679 6.7041 0.158679C5.92796 0.158679 5.20535 0.372786 4.56303 0.747474C3.89394 1.12216 3.35868 1.65743 2.98399 2.29975C2.6093 2.96884 2.42196 3.69145 2.42196 4.44082V6.15368H1.99374C1.61906 6.15368 1.32466 6.2875 1.08379 6.52837C0.816154 6.796 0.7091 7.0904 0.7091 7.43832V12.5769C0.7091 12.9516 0.816154 13.246 1.08379 13.4869C1.32466 13.7545 1.61906 13.8615 1.99374 13.8615H11.4145C11.7624 13.8615 12.0568 13.7545 12.3244 13.4869C12.5653 13.246 12.6991 12.9516 12.6991 12.5769V7.43832ZM3.27839 6.15368V4.44082C3.27839 3.82526 3.4122 3.26323 3.73336 2.72797C4.02776 2.1927 4.42921 1.79125 4.96448 1.47009C5.49975 1.17569 6.06178 1.01511 6.7041 1.01511C7.31966 1.01511 7.88169 1.17569 8.41696 1.47009C8.95223 1.79125 9.35368 2.1927 9.67484 2.72797C9.96924 3.26323 10.1298 3.82526 10.1298 4.44082V6.15368H3.27839ZM11.8427 12.5769C11.8427 12.7107 11.7891 12.8178 11.7089 12.8981C11.6286 12.9783 11.5215 13.0051 11.4145 13.0051H1.99374C1.85993 13.0051 1.75287 12.9783 1.67258 12.8981C1.59229 12.8178 1.56553 12.7107 1.56553 12.5769V7.43832C1.56553 7.33127 1.59229 7.22422 1.67258 7.14393C1.75287 7.06364 1.85993 7.01011 1.99374 7.01011H11.4145C11.5215 7.01011 11.6286 7.06364 11.7089 7.14393C11.7891 7.22422 11.8427 7.33127 11.8427 7.43832V12.5769Z" fill="#06429E"/>
</svg>
