<svg width="17" height="13" viewBox="0 0 17 13" fill="none" xmlns="http://www.w3.org/2000/svg">
<path d="M16.3852 12.3027C16.4387 12.1154 16.412 11.928 16.3317 11.7407C16.2514 11.5801 16.1443 11.4463 15.9837 11.3392C15.7161 11.2054 15.502 11.0716 15.395 10.9378C15.2611 10.804 15.1541 10.6434 15.1006 10.4293C15.5288 10.0011 15.8499 9.5461 16.064 9.0376C16.2781 8.52909 16.412 7.99382 16.412 7.45856C16.412 6.86976 16.2781 6.28097 16.0105 5.7457C15.7429 5.21043 15.3682 4.70193 14.9132 4.27371C15.0738 4.80898 15.1273 5.34425 15.1273 5.87951C15.395 6.38802 15.5555 6.89652 15.5555 7.43179C15.5555 7.96706 15.4217 8.47556 15.1541 8.95731C14.9132 9.38552 14.592 9.78697 14.1638 10.1081C14.2174 10.5899 14.3512 10.9646 14.5385 11.2322C14.7526 11.5534 15.0738 11.8478 15.5555 12.0886C14.9667 12.0886 14.3779 11.9816 13.8427 11.7675C13.4145 11.6069 12.9595 11.366 12.4777 11.0449C11.7819 11.2857 11.0325 11.3928 10.2831 11.366C9.507 11.6336 8.7041 11.7675 7.9012 11.7942C8.59705 12.0619 9.34642 12.2224 10.1226 12.2492C10.8719 12.276 11.6213 12.1957 12.3439 11.9816C13.4145 12.6239 14.485 12.9451 15.5555 12.9451C15.7429 12.9451 15.9035 12.8915 16.064 12.7845C16.2246 12.6774 16.3317 12.5168 16.3852 12.3027ZM7.41946 1.81148C8.4097 1.81148 9.34642 1.99882 10.2029 2.34675C11.0593 2.72143 11.7284 3.20317 12.2369 3.79197C12.7186 4.38076 12.9862 5.04985 12.9862 5.7457C12.9862 6.44155 12.7186 7.11063 12.2369 7.69943C11.7284 8.31498 11.0593 8.79673 10.2029 9.14465C9.34642 9.49257 8.4097 9.65315 7.41946 9.65315C6.64332 9.65315 5.89394 9.5461 5.1981 9.33199C4.66283 9.65315 4.15432 9.89402 3.72611 10.0546C3.08379 10.2687 2.46823 10.3758 1.85267 10.3758C2.33441 10.1349 2.7091 9.8405 2.94997 9.51934C3.13731 9.2517 3.27113 8.87702 3.35142 8.39527C2.89644 8.07411 2.54852 7.67266 2.28089 7.24445C1.98649 6.76271 1.85267 6.28097 1.85267 5.7457C1.85267 5.04985 2.09354 4.38076 2.60205 3.79197C3.08379 3.20317 3.77964 2.72143 4.63607 2.34675C5.49249 1.99882 6.40245 1.81148 7.41946 1.81148ZM7.41946 0.955049C6.26863 0.955049 5.1981 1.16916 4.20785 1.59737C3.21761 2.02559 2.44147 2.61438 1.85267 3.33699C1.26388 4.08637 0.996243 4.88927 0.996243 5.7457C0.996243 6.28097 1.1033 6.81623 1.34417 7.32474C1.58504 7.86001 1.93296 8.31498 2.38794 8.71643C2.33441 8.87702 2.25412 9.0376 2.14707 9.14465C1.98649 9.30523 1.74562 9.46581 1.45122 9.62639C1.29064 9.73344 1.15682 9.86726 1.07653 10.0278C0.96948 10.2152 0.942716 10.4025 0.996243 10.5899C1.04977 10.7772 1.15682 10.9378 1.3174 11.0449C1.47798 11.1787 1.63856 11.2322 1.85267 11.2322C3.0035 11.2322 4.15432 10.911 5.30515 10.2687C5.97424 10.4293 6.67008 10.5096 7.41946 10.5096C8.57028 10.5096 9.64082 10.3222 10.6311 9.89402C11.5945 9.46581 12.3707 8.90378 12.9595 8.1544C13.5483 7.43179 13.8427 6.62889 13.8427 5.7457C13.8427 4.88927 13.5483 4.08637 12.9595 3.33699C12.3707 2.61438 11.5945 2.02559 10.6311 1.59737C9.64082 1.16916 8.57028 0.955049 7.41946 0.955049Z" fill="#06429E"/>
</svg>
