<svg width="16" height="13" viewBox="0 0 16 13" fill="none" xmlns="http://www.w3.org/2000/svg">
<path d="M14.1342 0.895235C14.4821 0.895235 14.7765 1.02905 15.0441 1.26992C15.285 1.53756 15.4188 1.83195 15.4188 2.17988V11.6006C15.4188 11.9753 15.285 12.2697 15.0441 12.5105C14.7765 12.7782 14.4821 12.8852 14.1342 12.8852H1.28772C0.913034 12.8852 0.618637 12.7782 0.377767 12.5105C0.110133 12.2697 0.00307894 11.9753 0.00307894 11.6006V2.17988C0.00307894 1.83195 0.110133 1.53756 0.377767 1.26992C0.618637 1.02905 0.913034 0.895235 1.28772 0.895235H14.1342ZM1.28772 1.75166C1.15391 1.75166 1.04685 1.80519 0.966561 1.88548C0.886271 1.96577 0.859508 2.07282 0.859508 2.17988V3.46452H14.5624V2.17988C14.5624 2.07282 14.5088 1.96577 14.4286 1.88548C14.3483 1.80519 14.2412 1.75166 14.1342 1.75166H1.28772ZM14.1342 12.0288C14.2412 12.0288 14.3483 12.002 14.4286 11.9218C14.5088 11.8415 14.5624 11.7344 14.5624 11.6006V6.03381H0.859508V11.6006C0.859508 11.7344 0.886271 11.8415 0.966561 11.9218C1.04685 12.002 1.15391 12.0288 1.28772 12.0288H14.1342ZM5.14165 9.78068C5.14165 9.70039 5.08812 9.6201 5.0346 9.56658C4.98107 9.51305 4.90078 9.45952 4.82049 9.45952H2.89353C2.78647 9.45952 2.70618 9.51305 2.65266 9.56658C2.59913 9.6201 2.57237 9.70039 2.57237 9.78068V9.99479C2.57237 10.1018 2.59913 10.1821 2.65266 10.2357C2.70618 10.2892 2.78647 10.316 2.89353 10.316H4.82049C4.90078 10.316 4.98107 10.2892 5.0346 10.2357C5.08812 10.1821 5.14165 10.1018 5.14165 9.99479V9.78068ZM10.2802 9.78068C10.2802 9.70039 10.2267 9.6201 10.1732 9.56658C10.1196 9.51305 10.0394 9.45952 9.95906 9.45952H6.31924C6.21219 9.45952 6.1319 9.51305 6.07837 9.56658C6.02484 9.6201 5.99808 9.70039 5.99808 9.78068V9.99479C5.99808 10.1018 6.02484 10.1821 6.07837 10.2357C6.1319 10.2892 6.21219 10.316 6.31924 10.316H9.95906C10.0394 10.316 10.1196 10.2892 10.1732 10.2357C10.2267 10.1821 10.2802 10.1018 10.2802 9.99479V9.78068Z" fill="#06429E"/>
</svg>
