<svg width="13" height="11" viewBox="0 0 13 11" fill="none" xmlns="http://www.w3.org/2000/svg">
<path d="M5.12431 0.361816C2.62782 1.17885 0.0859375 3.13065 0.0859375 6.12644C0.0859375 8.71371 1.67461 10.1662 3.30868 10.1662C4.76118 10.1662 5.44204 9.21301 5.44204 8.2598C5.44204 7.57894 5.12431 7.07964 4.76118 6.98886C3.35407 6.67113 2.08313 6.17183 2.08313 4.76472C2.08313 3.31221 3.17251 2.08667 5.35126 0.997287L5.12431 0.361816ZM12.0237 0.361816C9.52721 1.17885 6.98533 3.13065 6.98533 6.12644C6.98533 8.71371 8.574 10.1662 10.1627 10.1662C11.6152 10.1662 12.296 9.21301 12.296 8.2598C12.296 7.57894 12.0237 7.07964 11.6152 6.98886C10.2081 6.67113 8.98252 6.17183 8.98252 4.76472C8.98252 3.31221 10.0265 2.08667 12.2507 0.997287L12.0237 0.361816Z" fill="#06429E"/>
</svg>
