<?xml version="1.0" encoding="utf-8"?>
<!-- Generator: Adobe Illustrator 25.4.1, SVG Export Plug-In . SVG Version: 6.00 Build 0)  -->
<svg version="1.1" id="Layer_1" xmlns="http://www.w3.org/2000/svg" xmlns:xlink="http://www.w3.org/1999/xlink" x="0px" y="0px"
	 viewBox="0 0 1177 419.8" style="enable-background:new 0 0 1177 419.8;" xml:space="preserve">
<style type="text/css">
	.st0{fill:#627482;}
</style>
<path class="st0" d="M117.2,97.2C28.9,97.2-26.7,177,13.1,243.3c-28.4,32.5-1.8,79.3,46.2,79.3c19.9,0,39.7-8.9,50.4-25.2
	c3.5,0.2,11.4,0.2,14.9,0c10.7,16.3,30.5,25.2,50.4,25.2c48.3,0,74.5-47,46.2-79.3C261,177,205.5,97.2,117.2,97.2z M50.3,201.6
	c0,0,0-29.3,0-29.2h20.9v29.2H50.3z M159.6,244.8c-28,12.6-68.6,6.8-94.3-16.5l-0.1-12.5c27.8,21.7,63.9,27.6,94.4,17.1V244.8z
	 M167.3,201.6H83.8v-29.2h83.6L167.3,201.6L167.3,201.6z M456.1,174c-10.6,0-21.1,5.2-28.3,14.8h-0.4L429,176h-23.3
	c-1.1,9-3.2,23.6-5.2,34.1l-17,89.8h25.8l7.2-37.3h0.4c3.1,1.8,9.2,3.6,16.4,3.6c30.7,0,51-28.1,51-58.8
	C484.5,189.4,475.3,174,456.1,174z M432.5,246.5c-5.1,0-9-1.6-11.9-4.3l3.2-18.9c3.2-17.3,12.3-28.3,22-28.3
	c8.5,0,11.4,7.4,11.4,14.4C457.2,226.7,446.4,246.5,432.5,246.5z M371.9,176l-15,36.8c-3.8,10.3-6.9,18.9-9.7,28.7h-0.5
	c0.5-9.4,0.2-18-0.2-28.3l-2.2-37.2H323l-17.3,38.4c-3.8,8.8-7.8,17.7-10.8,27.1h-0.4c0.5-9.7,0.9-18,0.9-28.1l-0.2-37.3h-26.3
	l8.3,88.2h24.5l15-31.9c3.6-8.1,5.8-14.6,10.5-27.1h0.4c0,10.6,0.2,19.1,0.7,28.3l2.5,30.7h24.3l42.9-88.2L371.9,176L371.9,176z
	 M777.7,264.2h26l16.8-88.2h-26L777.7,264.2z M555.7,174c-10.8,0-20.7,4.7-27.2,12.4h-0.4l10.5-50.3h-26.2l-17.9,89.3
	c-1.1,5.2-2,10.6-2,16.1c0,15.7,10.5,24.7,31.4,24.7c39.7,0,58.4-32.8,58.4-61.5C582.4,189,574.1,174,555.7,174z M529.4,246.5
	c-6,0-9.7-3.4-9.9-9.7c-0.2-3.8,0.5-6.9,0.9-9.7l1.6-7.2c3.1-15.3,12.3-24.9,21.6-24.9c7.9,0,11.5,6.7,11.5,15.1
	C555.2,225.6,544.3,246.5,529.4,246.5z M988.4,174c-11.7,0-22.7,5-31,16.6H957l1.8-14.6h-23.1c-1.1,7.8-2.5,17.5-4.7,28.7
	l-11.2,59.5h26l7.4-39.1c3.6-19.5,13.5-30.1,22-30.1c6.5,0,8.7,4.3,8.7,10.5c0,3.2-0.4,6.9-0.9,9.9l-9.2,48.9h26l9.7-51.2
	c0.7-4.3,1.4-11,1.4-15C1010.9,182.9,1002.8,174,988.4,174z M1172.1,174c-12.1,0-22,8.3-28.1,20h-0.5c0.5-6.1,1.1-12.1,1.6-18h-22.5
	c-0.9,7.6-2,22.4-4.5,35.7l-9.9,52.5h26l6.1-32.8c3.2-17.3,11-32.1,27.6-32.1c1.4,0,2.9,0,4.1,0.2l5.1-25.2
	C1175.4,174,1173.8,174,1172.1,174z M890.4,174c-11.7,0-22.7,5-31,16.6H859l1.8-14.6h-23.1c-1.1,7.8-2.5,17.5-4.7,28.7l-11.2,59.5
	h26l7.4-39.1c3.6-19.5,13.5-30.1,22-30.1c6.5,0,8.7,4.3,8.7,10.5c0,3.2-0.4,6.9-0.9,9.9l-9.2,48.9h26l9.7-51.2
	c0.7-4.3,1.4-11,1.4-15C913,182.9,904.9,174,890.4,174z M1075.5,174c-31.9,0-51.4,28-51.4,54.8c0,22.9,13,37.2,38.2,37.2
	c9.7,0,22.5-1.6,32.8-6.9l-1.8-18.8c-7,3.4-15.2,5.6-24.7,5.6c-7.6,0-13.5-2.3-17-6.9c-1.8-2.5-2.7-6.5-2.7-9
	c35.3,0.9,57.2-7.2,57.2-29.8C1106.1,184,1093.3,174,1075.5,174z M1051.5,211.2c1.8-8.3,8.7-18.2,20.7-18.2c6,0,9.6,3.1,9.6,7.6
	C1081.8,208.5,1071.7,211.4,1051.5,211.2z M640.8,174c-31.9,0-51.4,28-51.4,54.8c0,22.9,13,37.2,38.2,37.2c9.7,0,22.5-1.6,32.8-6.9
	l-1.8-18.8c-7,3.4-15.2,5.6-24.7,5.6c-7.6,0-13.5-2.3-17-6.9c-1.8-2.5-2.7-6.5-2.7-9c35.4,0.9,57.2-7.2,57.2-29.8
	C671.5,184,658.7,174,640.8,174z M616.8,211.2c1.8-8.3,8.7-18.2,20.7-18.2c6,0,9.6,3.1,9.6,7.6C647.1,208.5,637,211.4,616.8,211.2z
	 M813.1,137.6c-7.9,0-14.8,6-15,14.8c0,7.8,5.4,12.6,12.6,12.6c8.3,0,15.3-5.4,15.3-14.6C826,142.7,820.6,137.6,813.1,137.6z
	 M679.8,232.1c0.2,17.1,10.8,31.4,28.3,31.4c10.5,0,18.4-4.1,25.2-13h0.4l-1.4,7.4c-3.6,17.7-13.3,23.4-26.3,23.4
	c-7.4,0-18.2-2-23.1-4.9l-6,19.8c6,3.4,17,5.6,28.7,5.6s24.5-2.3,34.1-9.9c10.6-8.5,15.5-22.9,18.6-39.1l13.3-72.7
	c-9.2-4-20.2-6.1-32.6-6.1C700.5,174,679.8,202.9,679.8,232.1z M738.9,219.1c-2.7,15-11.4,24.3-19.8,24.3c-7.9,0-11.9-6.5-11.9-15.3
	c0-16.8,11.2-34.3,26.9-34.3c3.6,0,7.4,0.7,9.4,1.6L738.9,219.1z"/>
</svg>
