<?xml version="1.0" encoding="utf-8"?>
<!-- Generator: Adobe Illustrator 18.0.0, SVG Export Plug-In . SVG Version: 6.00 Build 0)  -->
<!DOCTYPE svg PUBLIC "-//W3C//DTD SVG 1.1//EN" "http://www.w3.org/Graphics/SVG/1.1/DTD/svg11.dtd">
<svg version="1.1" id="Layer_1" xmlns="http://www.w3.org/2000/svg" xmlns:xlink="http://www.w3.org/1999/xlink" x="0px" y="0px"
	 viewBox="0 0 120 120" enable-background="new 0 0 120 120" xml:space="preserve">
<rect x="1" y="1" fill="#F4F4F4" stroke="#0088CC" stroke-miterlimit="10" width="54.9" height="32.9"/>
<rect x="1.2" y="47.6" fill="#DDDDDD" width="46.3" height="7"/>
<rect x="1.3" y="60.1" fill="#DDDDDD" width="54.9" height="4"/>
<rect x="1.2" y="68.1" fill="#DDDDDD" width="54.9" height="4"/>
<rect x="1.3" y="76.1" fill="#DDDDDD" width="54.9" height="4"/>
<rect x="1.2" y="84.1" fill="#DDDDDD" width="37.5" height="4"/>
<ellipse fill="#DDDDDD" cx="21.3" cy="39.3" rx="2.1" ry="2"/>
<ellipse fill="#0088CC" cx="28.6" cy="39.3" rx="2.1" ry="2"/>
<ellipse fill="#DDDDDD" cx="35.8" cy="39.3" rx="2.1" ry="2"/>
<rect x="65.1" y="7" fill="#F4F4F4" stroke="#0088CC" stroke-miterlimit="10" width="53.8" height="32.5"/>
<rect x="65.1" y="53.8" fill="#DDDDDD" width="45.3" height="7"/>
<rect x="65.1" y="66.3" fill="#DDDDDD" width="53.8" height="4"/>
<rect x="65.1" y="74.3" fill="#DDDDDD" width="53.8" height="4"/>
<rect x="65.1" y="82.1" fill="#DDDDDD" width="53.8" height="4"/>
<rect x="65.1" y="90.4" fill="#DDDDDD" width="36.7" height="4"/>
<ellipse fill="#DDDDDD" cx="82.3" cy="45.3" rx="2" ry="2"/>
<ellipse fill="#0088CC" cx="90.4" cy="45.3" rx="2" ry="2"/>
<ellipse fill="#DDDDDD" cx="97.5" cy="45.3" rx="2" ry="2"/>
<rect x="1.2" y="110.8" fill="#F4F4F4" stroke="#0088CC" stroke-miterlimit="10" width="54.9" height="26.7"/>
<rect x="65.1" y="102" fill="#F4F4F4" stroke="#0088CC" stroke-miterlimit="10" width="53.8" height="29.7"/>
<line fill="none" stroke="#DDDDDD" stroke-miterlimit="10" x1="60.5" y1="0" x2="60.5" y2="122"/>
<ellipse fill="#0088CC" cx="60.6" cy="4.3" rx="2.1" ry="2"/>
<ellipse fill="#0088CC" cx="60.6" cy="10.3" rx="2.1" ry="2"/>
<ellipse fill="#0088CC" cx="60.6" cy="105.3" rx="2.1" ry="2"/>
<ellipse fill="#0088CC" cx="60.6" cy="113.3" rx="2.1" ry="2"/>
</svg>
