<?xml version="1.0" encoding="utf-8"?>
<!-- Generator: Adobe Illustrator 18.0.0, SVG Export Plug-In . SVG Version: 6.00 Build 0)  -->
<!DOCTYPE svg PUBLIC "-//W3C//DTD SVG 1.1//EN" "http://www.w3.org/Graphics/SVG/1.1/DTD/svg11.dtd">
<svg version="1.1" id="Layer_1" xmlns="http://www.w3.org/2000/svg" xmlns:xlink="http://www.w3.org/1999/xlink" x="0px" y="0px"
	 viewBox="0 0 120 120" enable-background="new 0 0 120 120" xml:space="preserve">
<rect x="1.1" y="1" fill="#F4F4F4" stroke="#0088CC" stroke-miterlimit="10" width="48.7" height="40.1"/>
<rect x="54.4" y="1" fill="#DDDDDD" width="44.7" height="7"/>
<rect x="54.4" y="13" fill="#DDDDDD" width="65" height="4"/>
<rect x="54.4" y="21" fill="#DDDDDD" width="65" height="4"/>
<rect x="54.4" y="29" fill="#DDDDDD" width="65" height="4"/>
<rect x="54.4" y="37.1" fill="#DDDDDD" width="52.7" height="4"/>
<circle fill="#DDDDDD" cx="18.6" cy="47.3" r="2"/>
<circle fill="#0088CC" cx="25.6" cy="47.3" r="2"/>
<circle fill="#DDDDDD" cx="32.6" cy="47.3" r="2"/>
<rect x="1.1" y="59" fill="#F4F4F4" stroke="#0088CC" stroke-miterlimit="10" width="48.7" height="40.1"/>
<rect x="54.4" y="59" fill="#DDDDDD" width="44.7" height="7"/>
<rect x="54.4" y="71" fill="#DDDDDD" width="65" height="4"/>
<rect x="54.4" y="79" fill="#DDDDDD" width="65" height="4"/>
<rect x="54.4" y="87" fill="#DDDDDD" width="65" height="4"/>
<rect x="54.4" y="95.1" fill="#DDDDDD" width="52.7" height="4"/>
<circle fill="#DDDDDD" cx="18.6" cy="105.3" r="2"/>
<circle fill="#0088CC" cx="25.6" cy="105.3" r="2"/>
<circle fill="#DDDDDD" cx="32.6" cy="105.3" r="2"/>
</svg>
