<?xml version="1.0" encoding="utf-8"?>
<!-- Generator: Adobe Illustrator 18.0.0, SVG Export Plug-In . SVG Version: 6.00 Build 0)  -->
<!DOCTYPE svg PUBLIC "-//W3C//DTD SVG 1.1//EN" "http://www.w3.org/Graphics/SVG/1.1/DTD/svg11.dtd">
<svg version="1.1" id="Layer_1" xmlns="http://www.w3.org/2000/svg" xmlns:xlink="http://www.w3.org/1999/xlink" x="0px" y="0px"
	 viewBox="0 0 120 120" enable-background="new 0 0 120 120" xml:space="preserve">
<rect x="1.2" y="1" fill="#F4F4F4" stroke="#0088CC" stroke-miterlimit="10" width="56.9" height="32.9"/>
<rect x="1.2" y="48.6" fill="#DDDDDD" width="47.9" height="7"/>
<rect x="1.3" y="61.1" fill="#DDDDDD" width="56.9" height="4"/>
<rect x="1.2" y="69.1" fill="#DDDDDD" width="56.9" height="4"/>
<rect x="1.3" y="77.1" fill="#DDDDDD" width="56.9" height="4"/>
<rect x="1.2" y="85.1" fill="#DDDDDD" width="38.8" height="4"/>
<ellipse fill="#DDDDDD" cx="22" cy="39.3" rx="2.1" ry="2"/>
<ellipse fill="#0088CC" cx="29.5" cy="39.3" rx="2.1" ry="2"/>
<ellipse fill="#DDDDDD" cx="37.1" cy="39.3" rx="2.1" ry="2"/>
<rect x="61.9" y="1" fill="#F4F4F4" stroke="#0088CC" stroke-miterlimit="10" width="56.9" height="27"/>
<rect x="61.9" y="42.8" fill="#DDDDDD" width="47.9" height="7"/>
<rect x="62" y="55.3" fill="#DDDDDD" width="56.9" height="4"/>
<rect x="61.9" y="63.3" fill="#DDDDDD" width="56.9" height="4"/>
<rect x="62" y="71.3" fill="#DDDDDD" width="56.9" height="4"/>
<rect x="61.9" y="79.4" fill="#DDDDDD" width="38.8" height="4"/>
<ellipse fill="#DDDDDD" cx="81.8" cy="34.3" rx="2.1" ry="2"/>
<ellipse fill="#0088CC" cx="89.3" cy="34.3" rx="2.1" ry="2"/>
<ellipse fill="#DDDDDD" cx="96.8" cy="34.3" rx="2.1" ry="2"/>
<rect x="1.2" y="98.8" fill="#F4F4F4" stroke="#0088CC" stroke-miterlimit="10" width="56.9" height="26.7"/>
<rect x="61.9" y="93" fill="#F4F4F4" stroke="#0088CC" stroke-miterlimit="10" width="56.9" height="29.7"/>
</svg>
