<?xml version="1.0" encoding="utf-8"?>
<!-- Generator: Adobe Illustrator 16.0.0, SVG Export Plug-In . SVG Version: 6.00 Build 0)  -->
<!DOCTYPE svg PUBLIC "-//W3C//DTD SVG 1.1//EN" "http://www.w3.org/Graphics/SVG/1.1/DTD/svg11.dtd">
<svg version="1.1" id="Layer_1" xmlns="http://www.w3.org/2000/svg" xmlns:xlink="http://www.w3.org/1999/xlink" x="0px" y="0px"
	 width="240px" height="120px" viewBox="0 0 240 120" enable-background="new 0 0 240 120" xml:space="preserve">
<rect x="132.166" y="9.918" fill="#DDDCDC" stroke="#CCCCCC" stroke-miterlimit="10" width="106.834" height="98.417"/>
<rect x="2.667" y="15.168" fill="#CCCCCC" width="47.917" height="7.417"/>
<rect x="2.833" y="25.085" fill="#CCCCCC" width="27.667" height="5.75"/>
<rect x="2.667" y="40.001" fill="#CCCCCC" width="121" height="2.5"/>
<rect x="3" y="46.168" fill="#CCCCCC" width="121" height="2.5"/>
<rect x="2.833" y="59.418" fill="#CCCCCC" width="120.999" height="2.5"/>
<rect x="3" y="66.502" fill="#CCCCCC" width="120.998" height="2.5"/>
<rect x="3.083" y="73.669" fill="#CCCCCC" width="70.082" height="2.5"/>
<rect x="3" y="53.001" fill="#CCCCCC" width="121" height="2.5"/>
<line fill="#DDDCDC" stroke="#DDDCDC" stroke-miterlimit="10" x1="3.416" y1="85.252" x2="123.749" y2="85.335"/>
<rect x="4.082" y="91.918" fill="#CCCCCC" width="28.583" height="8"/>
<rect x="36.582" y="92.002" fill="#CCCCCC" width="28.583" height="8"/>
<circle fill="#CCCCCC" cx="92.79" cy="96.128" r="4"/>
<circle fill="#CCCCCC" cx="106.373" cy="95.961" r="4"/>
<circle fill="#CCCCCC" cx="119.457" cy="95.795" r="4"/>
</svg>
