<?xml version="1.0" encoding="utf-8"?>
<!-- Generator: Adobe Illustrator 18.0.0, SVG Export Plug-In . SVG Version: 6.00 Build 0)  -->
<!DOCTYPE svg PUBLIC "-//W3C//DTD SVG 1.1//EN" "http://www.w3.org/Graphics/SVG/1.1/DTD/svg11.dtd">
<svg version="1.1" id="Layer_1" xmlns="http://www.w3.org/2000/svg" xmlns:xlink="http://www.w3.org/1999/xlink" x="0px" y="0px"
	 viewBox="0 0 120 120" enable-background="new 0 0 120 120" xml:space="preserve">
<rect x="1" y="1" fill="#F4F4F4" stroke="#0088CC" stroke-miterlimit="10" width="46.5" height="32.9"/>
<rect x="1" y="59.1" fill="#DDDDDD" width="30" height="6"/>
<rect x="52.2" y="37" fill="#DDDDDD" width="67.8" height="4"/>
<rect x="23.4" y="70" fill="#DDDDDD" width="96.6" height="4"/>
<rect x="23.4" y="77.1" fill="#DDDDDD" width="96.6" height="4"/>
<rect x="23.4" y="84.1" fill="#DDDDDD" width="96.6" height="4"/>
<ellipse fill="#DDDDDD" cx="17" cy="39.3" rx="2.1" ry="2"/>
<ellipse fill="#0088CC" cx="24.3" cy="39.3" rx="2.1" ry="2"/>
<ellipse fill="#DDDDDD" cx="31.5" cy="39.3" rx="2.1" ry="2"/>
<rect x="52.2" y="1" fill="#DDDDDD" width="45.3" height="7"/>
<rect x="52.2" y="13.2" fill="#DDDDDD" width="67.8" height="4"/>
<rect x="52.2" y="21.2" fill="#DDDDDD" width="67.8" height="4"/>
<rect x="52.2" y="29" fill="#DDDDDD" width="67.8" height="4"/>
<rect x="52.2" y="45" fill="#DDDDDD" width="51.3" height="4"/>
<rect x="0.9" y="70.2" fill="#F4F4F4" stroke="#0088CC" stroke-miterlimit="10" width="18.2" height="17.9"/>
<rect x="1" y="95.6" fill="#DDDDDD" width="30" height="6"/>
<rect x="0.9" y="105.6" fill="#DDDDDD" width="119.1" height="4"/>
<rect x="0.9" y="113.3" fill="#DDDDDD" width="119.1" height="4"/>
</svg>
