<svg xmlns="http://www.w3.org/2000/svg" viewBox="0 0 9.9 8.41">
  <defs>
    <style>
      .cls-1 {
        fill: none;
        stroke: currentColor;
        stroke-miterlimit: 10;
        stroke-width: 0.44px;
      }
    </style>
  </defs>
  <g id="Livello_2" data-name="Livello 2">
    <g id="_ÎÓÈ_1" data-name="—ÎÓÈ_1">
      <g>
        <g>
          <rect class="cls-1" x="0.22" y="0.22" width="9.46" height="6.43"/>
          <polygon class="cls-1" points="6.53 8.19 3.35 8.19 3.73 6.65 6.14 6.65 6.53 8.19"/>
          <line class="cls-1" x1="2.59" y1="8.19" x2="7.28" y2="8.19"/>
        </g>
        <g>
          <polyline class="cls-1" points="1.92 4.74 2.84 3.82 3.75 4.73"/>
          <polyline class="cls-1" points="3.75 3.87 4.66 2.96 6.41 4.72"/>
        </g>
        <path class="cls-1" d="M3.05,2.09a.58.58,0,1,1-.58-.58A.58.58,0,0,1,3.05,2.09Z"/>
        <g>
          <line class="cls-1" x1="8.01" y1="1.33" x2="9.01" y2="1.33"/>
          <line class="cls-1" x1="8.01" y1="2" x2="9.01" y2="2"/>
          <line class="cls-1" x1="8.01" y1="2.67" x2="9.01" y2="2.67"/>
          <line class="cls-1" x1="8.01" y1="3.33" x2="9.01" y2="3.33"/>
          <line class="cls-1" x1="8.01" y1="4" x2="9.01" y2="4"/>
          <line class="cls-1" x1="8.01" y1="4.67" x2="9.01" y2="4.67"/>
          <line class="cls-1" x1="8.01" y1="5.33" x2="9.01" y2="5.33"/>
        </g>
      </g>
    </g>
  </g>
</svg>
