<svg xmlns="http://www.w3.org/2000/svg" viewBox="0 0 9.32 10.09">
  <defs>
    <style>
      .cls-1 {
        fill: none;
        stroke: currentColor;
        stroke-miterlimit: 10;
        stroke-width: 0.44px;
      }
    </style>
  </defs>
  <g id="Livello_2" data-name="Livello 2">
    <g id="_ÎÓÈ_1" data-name="—ÎÓÈ_1">
      <g>
        <g>
          <polyline class="cls-1" points="1.17 3.19 0.22 4.46 0.22 9.87 0.26 9.87 9.06 9.87 9.11 9.87 9.11 4.46 8.15 3.2"/>
          <path class="cls-1" d="M9.06,9.87H.26s0,0,0,0l4.4-2.67h0L9.07,9.85S9.08,9.87,9.06,9.87Z"/>
          <polyline class="cls-1" points="9.08 4.47 7.45 5.47 4.68 7.17 4.66 7.18 4.65 7.17 1.87 5.49 0.25 4.5"/>
        </g>
        <g>
          <polyline class="cls-1" points="1.87 4.76 1.87 0.22 7.45 0.22 7.45 4.75"/>
          <line class="cls-1" x1="3.24" y1="1.31" x2="6.08" y2="1.31"/>
          <line class="cls-1" x1="3.24" y1="2.38" x2="6.08" y2="2.38"/>
          <line class="cls-1" x1="3.24" y1="3.46" x2="6.08" y2="3.46"/>
        </g>
      </g>
    </g>
  </g>
</svg>
