<svg version="1.1" id="Layer_1" xmlns="http://www.w3.org/2000/svg" x="0px" y="0px"
	 viewBox="0 0 20 20" enable-background="new 0 0 20 20" xml:space="preserve">
<g>
	<path fill-rule="evenodd" clip-rule="evenodd" fill="#008EFF" d="M16.9,4.4c-1.1,0-1.1,0-1.1,0c0,7,0,7,0,7c0,3.2-2.7,5.9-5.8,5.9
		c-3.2,0-5.8-2.7-5.8-5.9S6.8,5.5,10,5.5c0.5,0,0.5,0,0.5,0c0,4.3,0,4.3,0,4.3c-0.5,0-0.5,0-0.5,0c-0.9,0-1.6,0.8-1.6,1.6
		S9.1,13,10,13c0.9,0,1.6-0.8,1.6-1.6c0-3.7,0-7.4,0-11.1c0-0.3,0-0.3,0-0.3c1.6,0,1.6,0,1.6,0c0,0.3,0,0.3,0,0.3
		c0,3.7,0,7.4,0,11.1c0,1.8-1.4,3.2-3.2,3.2c-1.7,0-3.2-1.5-3.2-3.2c0-1.5,1-2.8,2.4-3.1c0-1.1,0-1.1,0-1.1c-2,0.4-3.5,2.2-3.5,4.2
		c0,2.3,1.9,4.3,4.3,4.3s4.3-2,4.3-4.3c0-2.8,0-5.5,0-8.3c0-0.3,0-0.3,0-0.3c0.3,0,0.3,0,0.3,0c1.2,0,2.4,0,3.7,0c0.3,0,0.3,0,0.3,0
		c0,8.6,0,8.6,0,8.6c0,4.7-3.8,8.6-8.5,8.6s-8.5-3.9-8.5-8.6S5.4,2.8,10,2.8c0.5,0,0.5,0,0.5,0c0,1.6,0,1.6,0,1.6
		c-0.5,0-0.5,0-0.5,0c-3.8,0-6.9,3.2-6.9,7s3.1,7,6.9,7c3.8,0,6.9-3.2,6.9-7V4.4z"/>
</g>
</svg>
