<?xml version="1.0" encoding="utf-8"?>
<!-- Generator: Adobe Illustrator 21.1.0, SVG Export Plug-In . SVG Version: 6.00 Build 0)  -->
<svg version="1.1" id="Layer_1" xmlns="http://www.w3.org/2000/svg" xmlns:xlink="http://www.w3.org/1999/xlink" x="0px" y="0px"
	 width="23.3px" height="18.2px" viewBox="0 0 23.3 18.2" style="enable-background:new 0 0 23.3 18.2;" xml:space="preserve">
<style type="text/css">
	.st0{fill:#FFFFFF;}
</style>
<g>
	<g>
		<path class="st0" d="M13.3,8.8c-0.6-0.4-1.1-0.6-1.6-0.5c-0.6,0-1.2,0.4-1.8,1.2c-0.7,0.9-1.2,2-2.5,2.3c0.7,0.8,1.7,1.3,2.7,1.3
			c1.3,0,2.7-0.7,3.7-2.3C13.1,10.3,13,9.6,13.3,8.8z"/>
		<path class="st0" d="M23,5.3C23,5.3,23,5.3,23,5.3c-0.2,0-0.3,0.1-0.4,0.2c-4.4,1.7-3.5,1.3-7.9,3c-0.2,0.1-0.3,0.1-0.4,0.2
			c-0.2,0.2-0.2,0.6-0.1,0.8c0.1,0.2,0.4,0.5,0.8,0.5c0.1,0,0.1,0,0.2,0c0.4-0.1,3.4-1.9,7.8-3.9C23,6,23.1,5.9,23.2,5.8
			c0.1-0.1,0.2-0.3,0.1-0.3C23.3,5.4,23.1,5.3,23,5.3z"/>
	</g>
	<g>
		<path class="st0" d="M17,10.6c-0.2,0.7-0.5,1.4-0.8,1.9c-1.1,1.5-2.4,2.7-4.1,3.4l-0.8,0.3L10.6,16c0,0,0,0,0,0
			c0,0.1,0,0.2-0.1,0.3c-0.4,0.3-0.7,0.5-1.1,0.8c0.2,0.1,0.3,0.2,0.5,0.2l1.4,0.5l1.4-0.5c1.9-0.9,3.5-2.2,4.8-4
			c0.8-1.1,1.1-2.4,1.3-3.7c-0.6,0.3-1.2,0.6-1.6,0.9C17.1,10.6,17.1,10.6,17,10.6z"/>
		<path class="st0" d="M11.3,1.6c1.8,0.9,3.5,1.5,6.2,1.8c0.1,0.8,0.1,1.6,0.1,2.3c0.2-0.1,0.4-0.1,0.5-0.2c0.3-0.1,0.6-0.2,1-0.3
			c0-0.8-0.1-1.7-0.2-2.5c0-0.4-0.2-0.6-0.6-0.7c-2.7-0.3-4.5-0.8-6.4-1.8c0,0-0.5-0.2-0.6-0.2l-0.5,0.1C8.6,1.1,6.4,1.7,4.3,2
			C3.9,2,3.7,2.3,3.7,2.7C3.5,3.9,3.5,5.1,3.5,6.2c0.1,0,0.1-0.1,0.2-0.1c0.1,0,0.2,0,0.3,0c0.3,0.2,0.5,0.5,0.8,0.7
			C4.8,6.9,4.9,7,5,7c0-1.1,0-2.3,0.1-3.6C7.1,3.1,9.2,2.4,11.3,1.6z"/>
	</g>
	<g>
		<path class="st0" d="M9.4,7.7C9.4,7.7,9.4,7.7,9.4,7.7C9.4,7.7,9.4,7.7,9.4,7.7z"/>
		<path class="st0" d="M10.6,16C10.6,16,10.6,16,10.6,16c-0.1-0.4-0.3-0.7-0.4-1.1c0-0.1-0.1-0.1,0-0.3c-0.1,0-0.2,0-0.2,0
			c-0.8,0-1.5-0.3-2.2-0.7c0,0-0.1,0-0.1,0.1c-0.3,0.2-0.6,0.3-0.9,0.4c-0.2,0.1-0.5,0.1-0.7,0c-1.2-0.1-2.2-0.9-2.4-2.1
			c-0.1-0.7,0-1.4,0.3-1.9C4.2,10,4.7,9.5,5.2,9.3c0.1-0.1,0.3-0.1,0.4-0.1C6.5,9,7.3,9.2,7.9,9.7C8,9.6,8.1,9.4,8.3,9.1
			c0.1-0.2,0.3-0.4,0.4-0.6C9,8.3,9,8,9.4,7.7c0,0,0,0,0,0C9.1,7.9,8.6,7.6,8.6,7.3c0-0.4-0.1-0.7-0.1-1.1c0-0.2-0.1-0.3-0.3-0.3
			C7.7,5.8,7.1,5.6,6.4,5.5C6.2,5.5,6,5.6,6,5.8C5.9,6.1,5.7,6.4,5.6,6.7C5.5,6.9,5.2,7,5,7C4.9,7,4.8,6.9,4.7,6.8
			C4.4,6.6,4.2,6.4,3.9,6.2c-0.1-0.1-0.2-0.1-0.3,0c-0.1,0-0.1,0.1-0.2,0.1c-0.5,0.3-1,0.7-1.5,1C1.8,7.4,1.8,7.6,1.8,7.7
			C1.9,8,2,8.3,2.1,8.5C2.3,9,2.1,9.4,1.6,9.4c-0.3,0-0.6,0-0.9,0.1c-0.1,0-0.3,0.1-0.3,0.2c-0.1,0.7-0.3,1.4-0.4,2.1
			C0,11.9,0.1,12,0.2,12c0.3,0.2,0.6,0.3,0.9,0.4c0.4,0.2,0.5,0.6,0.2,0.9c-0.2,0.3-0.5,0.5-0.7,0.8c-0.1,0.1-0.1,0.2,0,0.3
			c0.3,0.7,0.7,1.3,1.2,1.8c0.1,0.1,0.2,0.1,0.3,0.1c0.3-0.1,0.7-0.2,1-0.4c0.3-0.1,0.7,0.2,0.7,0.5c0,0.3,0,0.7,0,1
			c0,0.2,0.1,0.3,0.3,0.3c0.7,0.1,1.3,0.2,2,0.4c0.2,0,0.3,0,0.3-0.2c0.1-0.3,0.3-0.6,0.4-0.9c0.1-0.2,0.2-0.4,0.4-0.4
			c0.2-0.1,0.4,0,0.5,0.1c0.2,0.2,0.5,0.5,0.7,0.7c0.1,0.1,0.2,0.1,0.3,0c0.2-0.1,0.4-0.3,0.6-0.5c0.4-0.3,0.7-0.5,1.1-0.8
			C10.6,16.3,10.6,16.1,10.6,16z"/>
	</g>
</g>
</svg>
