<?xml version="1.0" encoding="utf-8"?>
<!-- Generator: Adobe Illustrator 19.0.0, SVG Export Plug-In . SVG Version: 6.00 Build 0)  -->
<svg version="1.1" id="Layer_1" xmlns:sketch="http://www.bohemiancoding.com/sketch/ns"
	 xmlns="http://www.w3.org/2000/svg" xmlns:xlink="http://www.w3.org/1999/xlink" x="0px" y="0px" width="20px" height="20px"
	 viewBox="-333.2 378.7 20 20" style="enable-background:new -333.2 378.7 20 20;" xml:space="preserve">
<style type="text/css">
	.st0{fill:#909090;}
</style>
<title></title>
<desc></desc>
<g>
	<polygon class="st0" points="-332.7,398.2 -332.7,398.2 -332.8,398.2 	"/>
	<path class="st0" d="M-318.6,378.7c-3,0-5.4,2.4-5.4,5.4c0,0.9,0.2,1.7,0.6,2.5l-9.3,9.3c-0.6,0.6-0.6,1.7,0,2.3
		c0.6,0.6,1.7,0.6,2.3,0l1.4-1.4l1.9,1.9l2.3-2.3l-1.9-1.9l1.2-1.2l1.5,1.5l2.3-2.3l-1.5-1.5l2.1-2.1c0.7,0.4,1.6,0.6,2.5,0.6
		c3,0,5.4-2.4,5.4-5.4C-313.2,381.1-315.6,378.7-318.6,378.7z M-318.6,388.7c-1,0-1.9-0.3-2.6-0.8l-3.1,3.1l1.5,1.5l-1.2,1.2
		l-1.5-1.5l-2.3,2.3l1.9,1.9l-1.2,1.2l-1.9-1.9l-2,2c-0.3,0.3-0.9,0.3-1.2,0l0,0c-0.3-0.3-0.3-0.9,0-1.2l9.8-9.8
		c-0.5-0.7-0.8-1.6-0.8-2.6c0-2.5,2.1-4.6,4.6-4.6c2.5,0,4.6,2.1,4.6,4.6C-314,386.6-316,388.7-318.6,388.7z"/>
	<path class="st0" d="M-318.6,381c-1.7,0-3.1,1.4-3.1,3.1c0,1.7,1.4,3.1,3.1,3.1c1.7,0,3.1-1.4,3.1-3.1
		C-315.5,382.3-316.9,381-318.6,381z M-318.6,386.4c-1.3,0-2.3-1-2.3-2.3s1-2.3,2.3-2.3c1.3,0,2.3,1,2.3,2.3
		S-317.3,386.4-318.6,386.4z"/>
</g>
</svg>
