<?xml version="1.0" encoding="utf-8"?>
<!-- Generator: Adobe Illustrator 19.0.0, SVG Export Plug-In . SVG Version: 6.00 Build 0)  -->
<svg version="1.1" id="Layer_1" xmlns="http://www.w3.org/2000/svg" xmlns:xlink="http://www.w3.org/1999/xlink" x="0px" y="0px"
	 width="1031.7px" height="246.1px" viewBox="36 157.9 1031.7 246.1" style="enable-background:new 36 157.9 1031.7 246.1;"
	 xml:space="preserve">
<style type="text/css">
	.st0{fill:#B5D1FF;}
	.st1{fill:#1A5FA4;}
	.st2{fill:#1B62A7;}
	.st3{fill:#F4F5F5;}
	.st4{fill:#DDE9EE;}
	.st5{fill:#F9C71A;}
	.st6{fill:#F0A422;}
	.st7{fill:#448AFF;stroke:#1B62A7;stroke-width:2;stroke-miterlimit:10;}
	.st8{fill:#1B62A7;stroke:#1B62A7;stroke-miterlimit:10;}
	.st9{fill:#F0A422;stroke:#1B62A7;stroke-width:2;stroke-miterlimit:10;}
	.st10{fill:#1A61A7;}
	.st11{fill:#EFA20E;}
	.st12{fill:#DDE9EF;}
	.st13{fill:#F0A422;stroke:#1B62A7;stroke-miterlimit:10;}
	.st14{fill:#F9C50F;}
	.st15{fill:#2561A3;}
	.st16{enable-background:new    ;}
	.st17{fill:#FFFFFF;}
</style>
<path id="XMLID_13_" class="st0" d="M224.1,226.9c0,0-14-12.1-8.8-28.7c5.2-16.7,31.7-40.3-31.7-40.3S30.2,157.6,36.3,269.2
	c4.6,84,11.5,96.3,23.5,96.3c14-0.1,32.7-0.5,48.7-16.6c13.8-13.9,23.8-12.4,82.7-24.2c79.5-16,95.9-37,95.9-53
	s-24.9-24.6-37.8-30.5C236.5,235.3,224.1,226.9,224.1,226.9z"/>
<ellipse id="XMLID_23_" class="st1" cx="145.8" cy="333.4" rx="103.5" ry="3.8"/>
<g id="XMLID_18_">
	<path id="XMLID_237_" class="st2" d="M205.5,325.6H45.1c-3.2,0-5.7-2.5-5.7-5.7v-138c0-3.2,2.5-5.7,5.7-5.7h160.5
		c3.2,0,5.7,2.5,5.7,5.7V320C211.3,323.1,208.8,325.6,205.5,325.6z"/>
	<path id="XMLID_236_" class="st3" d="M200.2,324.3H45.9c-2.9,0-5-2.3-5-5V182.9c0-2.9,2.3-5,5-5h154.3c2.4,0,4.4,2,4.4,4.4V320
		C204.6,322.3,202.7,324.3,200.2,324.3z"/>
	<path id="XMLID_235_" class="st4" d="M200.5,179h-4.2L42.2,318.1c0,4,2.2,4.6,4.4,4.6h153.2c1.8,0,3.4-1.5,3.4-3.4V181.6
		C203.1,180.3,202,179,200.5,179z"/>
	<g id="XMLID_233_">
		<path id="XMLID_234_" class="st5" d="M203.1,199.7H42.3v-16.6c0-2.2,1.8-4,4-4h152.4c2.4,0,4.4,2,4.4,4.4L203.1,199.7L203.1,199.7
			z"/>
	</g>
	<g id="XMLID_229_">
		<circle id="XMLID_232_" class="st2" cx="65.1" cy="189.3" r="4.1"/>
		<circle id="XMLID_231_" class="st2" cx="52.3" cy="189.3" r="4.1"/>
		<circle id="XMLID_230_" class="st2" cx="78.1" cy="189.3" r="4.1"/>
	</g>
	<path id="XMLID_228_" class="st6" d="M200.4,179H196l-23.2,20.5H203v-17.7C203.1,180.3,202,179,200.4,179z"/>
	<rect id="XMLID_227_" x="42.3" y="199.7" class="st2" width="161" height="1.5"/>
	<path id="XMLID_2_" class="st7" d="M130.2,238.3H67.3c-6,0-10.9-4.9-10.9-10.9l0,0c0-6,4.9-10.9,10.9-10.9h62.9
		c6,0,10.9,4.9,10.9,10.9l0,0C141.1,233.4,136.2,238.3,130.2,238.3z"/>
	<path id="XMLID_3_" class="st8" d="M108.1,230.1H67c-1.5,0-2.7-1.2-2.7-2.7l0,0c0-1.5,1.2-2.7,2.7-2.7h41.1c1.5,0,2.7,1.2,2.7,2.7
		l0,0C110.8,228.9,109.6,230.1,108.1,230.1z"/>
	<path id="XMLID_4_" class="st7" d="M130.2,268.6H67.3c-6,0-10.9-4.9-10.9-10.9l0,0c0-6,4.9-10.9,10.9-10.9h62.9
		c6,0,10.9,4.9,10.9,10.9l0,0C141.1,263.7,136.2,268.6,130.2,268.6z"/>
	<path id="XMLID_5_" class="st9" d="M130.2,298.9h-37c-6,0-10.9-4.9-10.9-10.9l0,0c0-6,4.9-10.9,10.9-10.9h37
		c6,0,10.9,4.9,10.9,10.9l0,0C141.1,294,136.2,298.9,130.2,298.9z"/>
	<path id="XMLID_7_" class="st8" d="M67,260.3L67,260.3c-1.5,0-2.7-1.2-2.7-2.7l0,0c0-1.5,1.2-2.7,2.7-2.7l0,0
		c1.5,0,2.7,1.2,2.7,2.7l0,0C69.6,259.2,68.4,260.3,67,260.3z"/>
	<path id="XMLID_8_" class="st8" d="M75.5,260.3L75.5,260.3c-1.5,0-2.7-1.2-2.7-2.7l0,0c0-1.5,1.2-2.7,2.7-2.7l0,0
		c1.5,0,2.7,1.2,2.7,2.7l0,0C78.1,259.2,76.9,260.3,75.5,260.3z"/>
	<path id="XMLID_9_" class="st8" d="M83.9,260.3L83.9,260.3c-1.5,0-2.7-1.2-2.7-2.7l0,0c0-1.5,1.2-2.7,2.7-2.7l0,0
		c1.5,0,2.7,1.2,2.7,2.7l0,0C86.6,259.2,85.4,260.3,83.9,260.3z"/>
	<path id="XMLID_10_" class="st8" d="M92.4,260.3L92.4,260.3c-1.5,0-2.7-1.2-2.7-2.7l0,0c0-1.5,1.2-2.7,2.7-2.7l0,0
		c1.5,0,2.7,1.2,2.7,2.7l0,0C95.1,259.2,93.9,260.3,92.4,260.3z"/>
	<path id="XMLID_11_" class="st8" d="M100.9,260.3L100.9,260.3c-1.5,0-2.7-1.2-2.7-2.7l0,0c0-1.5,1.2-2.7,2.7-2.7l0,0
		c1.5,0,2.7,1.2,2.7,2.7l0,0C103.6,259.2,102.4,260.3,100.9,260.3z"/>
	<path id="XMLID_12_" class="st8" d="M109.4,260.3L109.4,260.3c-1.5,0-2.7-1.2-2.7-2.7l0,0c0-1.5,1.2-2.7,2.7-2.7l0,0
		c1.5,0,2.7,1.2,2.7,2.7l0,0C112.1,259.2,110.9,260.3,109.4,260.3z"/>
</g>
<g id="XMLID_22_">
	<path id="XMLID_399_" class="st10" d="M206.3,207.9L206.3,207.9c-20.7,0-37.4,13.6-36.5,30.3v20.6H190v-19.5
		c0-6.3,6.3-11.5,14.1-11.5l0,0c7.8,0,14.1,5.2,14.1,11.5V277h-12.4v11.7h37.9v-50.5C243.7,221.5,226.9,207.9,206.3,207.9z"/>
	<path id="XMLID_398_" class="st11" d="M204.2,211L204.2,211c-17.9,0-32.4,11.8-32.4,26.3V257H188v-18.1c0-7.2,7.2-13.2,16.2-13.2
		l0,0c8.9,0,16.2,5.8,16.2,13.2v18.2V277v11.7h16.3v-51.3C236.7,222.8,222.1,211,204.2,211z"/>
	<path id="XMLID_397_" class="st10" d="M256,348.8h-98.6c-2.9,0-5.3-2.3-5.3-5.3v-75.7c0,0,0-0.1,0.1-0.1h109c0,0,0.1,0,0.1,0.1
		v75.6C261.3,346.5,258.9,348.8,256,348.8z"/>
	<path id="XMLID_365_" class="st3" d="M246.5,347.7h-88c-2.9,0-5.2-2.3-5.2-5.2v-73.6h98.5v73.5
		C251.7,345.3,249.4,347.7,246.5,347.7z"/>
	<path id="XMLID_364_" class="st12" d="M154.8,339.8c0,5.1,1.6,6.7,9.1,6.7h81.7c2.7,0,4.9-2.2,4.9-4.9v-70.7H249L154.8,339.8z"/>
	<path id="XMLID_14_" class="st13" d="M225.3,316.9h-45.6c-4.3,0-7.8-3.5-7.8-7.8v-1.7c0-4.3,3.5-7.8,7.8-7.8h45.6
		c4.3,0,7.8,3.5,7.8,7.8v1.7C233,313.4,229.6,316.9,225.3,316.9z"/>
	<path id="XMLID_15_" class="st14" d="M189.1,316.3h-8.2c-4.7,0-8.5-3.6-8.5-8l0,0c0-4.4,3.8-8,8.5-8h32L189.1,316.3z"/>
	<circle id="XMLID_6_" class="st8" cx="202.4" cy="308.3" r="4.3"/>
	<circle id="XMLID_17_" class="st8" cx="186" cy="308.3" r="4.3"/>
	<circle id="XMLID_16_" class="st8" cx="219.3" cy="308.3" r="4.3"/>
</g>
<g id="XMLID_24_">
	<g id="XMLID_28_">
		<path class="st15" d="M256.2,404H54.7c-10.2,0-18.5-8.3-18.5-18.6l0,0c0-10.2,8.3-18.6,18.5-18.6h201.5c10.2,0,18.5,8.3,18.5,18.6
			l0,0C274.5,395.7,266.2,404,256.2,404z"/>
	</g>
	<g id="XMLID_27_" class="st16">
		<path class="st17" d="M76.7,393.7v-18.2h3.1v15.6h8v2.6H76.7z"/>
		<path class="st17" d="M105.5,386.8c0,2.2-0.6,4-1.8,5.3c-1.2,1.3-2.9,1.9-5,1.9c-1.3,0-2.5-0.3-3.6-0.9c-1-0.6-1.8-1.4-2.4-2.5
			c-0.6-1.1-0.8-2.3-0.8-3.8c0-2.2,0.6-4,1.8-5.2c1.2-1.3,2.9-1.9,5-1.9c2.1,0,3.7,0.6,4.9,1.9C104.8,382.9,105.5,384.6,105.5,386.8
			z M95,386.8c0,3.2,1.2,4.8,3.7,4.8c2.4,0,3.6-1.6,3.6-4.8c0-3.1-1.2-4.7-3.7-4.7c-1.3,0-2.2,0.4-2.8,1.2
			C95.3,384.1,95,385.3,95,386.8z"/>
		<path class="st17" d="M123,379.9v1.6l-2.4,0.4c0.2,0.3,0.4,0.6,0.6,1.1c0.1,0.4,0.2,0.9,0.2,1.3c0,1.4-0.5,2.5-1.5,3.3
			c-1,0.8-2.4,1.2-4.2,1.2c-0.5,0-0.9,0-1.2-0.1c-0.7,0.4-1,0.8-1,1.4c0,0.3,0.2,0.6,0.5,0.7c0.3,0.2,0.9,0.2,1.7,0.2h2.5
			c1.6,0,2.8,0.3,3.6,1s1.2,1.6,1.2,2.8c0,1.6-0.7,2.8-2,3.6c-1.3,0.8-3.3,1.3-5.8,1.3c-2,0-3.4-0.3-4.5-1c-1-0.7-1.5-1.6-1.5-2.8
			c0-0.8,0.3-1.6,0.8-2.1c0.6-0.6,1.3-1,2.3-1.2c-0.4-0.2-0.7-0.4-1-0.8c-0.3-0.4-0.4-0.8-0.4-1.2c0-0.5,0.2-1,0.5-1.3
			c0.3-0.4,0.8-0.7,1.3-1.1c-0.7-0.3-1.3-0.8-1.8-1.5c-0.5-0.7-0.7-1.5-0.7-2.4c0-1.5,0.5-2.7,1.5-3.5c1-0.8,2.4-1.2,4.2-1.2
			c0.4,0,0.8,0,1.3,0.1c0.4,0.1,0.8,0.1,1,0.2H123z M111.8,395.8c0,0.6,0.3,1.1,0.9,1.5c0.6,0.3,1.4,0.5,2.5,0.5
			c1.7,0,2.9-0.2,3.7-0.7c0.8-0.5,1.2-1.1,1.2-1.8c0-0.6-0.2-1-0.7-1.3c-0.4-0.3-1.3-0.4-2.5-0.4h-2.3c-0.9,0-1.6,0.2-2.1,0.6
			C112,394.6,111.8,395.2,111.8,395.8z M113.1,384.4c0,0.9,0.2,1.5,0.7,2c0.5,0.5,1.1,0.7,2,0.7c1.8,0,2.6-0.9,2.6-2.7
			c0-0.9-0.2-1.6-0.7-2.1c-0.4-0.5-1.1-0.7-2-0.7c-0.9,0-1.5,0.2-2,0.7C113.3,382.8,113.1,383.5,113.1,384.4z"/>
		<path class="st17" d="M127.5,376.3c0-0.5,0.1-0.9,0.4-1.2c0.3-0.3,0.7-0.4,1.3-0.4c0.5,0,1,0.1,1.3,0.4c0.3,0.3,0.4,0.7,0.4,1.2
			c0,0.5-0.1,0.9-0.4,1.2c-0.3,0.3-0.7,0.4-1.3,0.4c-0.6,0-1-0.1-1.3-0.4C127.6,377.2,127.5,376.8,127.5,376.3z M130.7,393.7h-3
			v-13.8h3V393.7z"/>
		<path class="st17" d="M149.6,393.7h-3.1v-8.5c0-1.1-0.2-1.9-0.7-2.4c-0.4-0.5-1.2-0.8-2.1-0.8c-1.3,0-2.2,0.4-2.8,1.1
			c-0.6,0.7-0.9,2-0.9,3.7v6.9h-3v-13.8h2.4l0.4,1.8h0.2c0.4-0.7,1-1.2,1.8-1.5c0.8-0.4,1.7-0.5,2.6-0.5c3.4,0,5.2,1.7,5.2,5V393.7z
			"/>
		<path class="st17" d="M168.7,381c0,1.9-0.6,3.4-1.9,4.4s-3.1,1.5-5.5,1.5h-2v6.8h-3.1v-18.2h5.5c2.4,0,4.1,0.5,5.3,1.4
			C168.1,377.8,168.7,379.2,168.7,381z M159.2,384.4h1.6c1.6,0,2.8-0.3,3.5-0.8s1.1-1.4,1.1-2.5c0-1-0.3-1.8-1-2.3s-1.7-0.8-3.1-0.8
			h-2.2V384.4z"/>
		<path class="st17" d="M181.4,379.7c0.6,0,1.1,0,1.5,0.1l-0.3,2.7c-0.4-0.1-0.9-0.1-1.3-0.1c-1.2,0-2.2,0.4-3,1.1
			c-0.8,0.8-1.1,1.8-1.1,3v7.2h-3v-13.8h2.4l0.4,2.4h0.2c0.5-0.8,1.1-1.5,1.9-2C179.7,379.9,180.5,379.7,181.4,379.7z"/>
		<path class="st17" d="M193.8,393.9c-2.2,0-4-0.6-5.2-1.9c-1.3-1.2-1.9-3-1.9-5.2c0-2.2,0.6-4,1.7-5.3c1.2-1.3,2.8-1.9,4.8-1.9
			c1.9,0,3.4,0.6,4.5,1.7s1.6,2.6,1.6,4.6v1.6h-9.6c0,1.3,0.4,2.4,1.1,3.1c0.7,0.7,1.7,1.1,3,1.1c0.8,0,1.6-0.1,2.4-0.2
			c0.7-0.2,1.5-0.4,2.4-0.8v2.4c-0.7,0.3-1.5,0.6-2.3,0.7S194.8,393.9,193.8,393.9z M193.2,381.9c-1,0-1.7,0.3-2.3,0.9
			c-0.6,0.6-0.9,1.4-1,2.6h6.5c0-1.1-0.3-2-0.9-2.6C194.9,382.2,194.2,381.9,193.2,381.9z"/>
		<path class="st17" d="M214.4,389.8c0,1.3-0.5,2.4-1.5,3.1c-1,0.7-2.5,1.1-4.4,1.1c-1.9,0-3.4-0.3-4.6-0.8v-2.5
			c1.7,0.7,3.3,1.1,4.7,1.1c1.9,0,2.8-0.5,2.8-1.6c0-0.3-0.1-0.6-0.3-0.9c-0.2-0.2-0.5-0.5-1-0.7c-0.5-0.3-1.1-0.5-2-0.8
			c-1.7-0.6-2.8-1.2-3.4-1.8c-0.6-0.6-0.9-1.4-0.9-2.4c0-1.2,0.5-2.1,1.5-2.7c1-0.7,2.3-1,4-1c1.7,0,3.3,0.3,4.8,1l-1,2.2
			c-1.5-0.6-2.8-0.9-3.9-0.9c-1.6,0-2.4,0.4-2.4,1.3c0,0.4,0.2,0.8,0.6,1.1s1.3,0.7,2.7,1.2c1.2,0.4,2,0.8,2.6,1.2
			c0.5,0.4,0.9,0.8,1.2,1.3C214.3,388.5,214.4,389.1,214.4,389.8z"/>
		<path class="st17" d="M229.3,389.8c0,1.3-0.5,2.4-1.5,3.1c-1,0.7-2.5,1.1-4.4,1.1c-1.9,0-3.4-0.3-4.6-0.8v-2.5
			c1.7,0.7,3.3,1.1,4.7,1.1c1.9,0,2.8-0.5,2.8-1.6c0-0.3-0.1-0.6-0.3-0.9c-0.2-0.2-0.5-0.5-1-0.7c-0.5-0.3-1.1-0.5-2-0.8
			c-1.7-0.6-2.8-1.2-3.4-1.8c-0.6-0.6-0.9-1.4-0.9-2.4c0-1.2,0.5-2.1,1.5-2.7c1-0.7,2.3-1,4-1c1.7,0,3.3,0.3,4.8,1l-1,2.2
			c-1.5-0.6-2.8-0.9-3.9-0.9c-1.6,0-2.4,0.4-2.4,1.3c0,0.4,0.2,0.8,0.6,1.1s1.3,0.7,2.7,1.2c1.2,0.4,2,0.8,2.6,1.2
			c0.5,0.4,0.9,0.8,1.2,1.3C229.2,388.5,229.3,389.1,229.3,389.8z"/>
	</g>
</g>
<g id="XMLID_25_">
	<path id="XMLID_38_" d="M338.5,223.6H353v99.6h47.7v12.1h-62.2V223.6z"/>
	<path id="XMLID_40_" d="M486.6,294.6c0,29.7-20.6,42.6-39.9,42.6c-21.7,0-38.5-15.9-38.5-41.3c0-26.8,17.6-42.6,39.8-42.6
		C471,253.3,486.6,270,486.6,294.6z M422.9,295.4c0,17.6,10.1,30.8,24.4,30.8c13.9,0,24.4-13.1,24.4-31.2c0-13.6-6.8-30.8-24-30.8
		C430.4,264.2,422.9,280.2,422.9,295.4z"/>
	<path id="XMLID_43_" d="M574.1,255.1c-0.3,5.8-0.7,12.3-0.7,22v46.6c0,18.4-3.6,29.7-11.4,36.6c-7.8,7.3-19.1,9.6-29.2,9.6
		c-9.6,0-20.2-2.3-26.7-6.6l3.6-11.1c5.3,3.3,13.6,6.3,23.5,6.3c14.9,0,25.9-7.8,25.9-28v-9h-0.3c-4.5,7.5-13.1,13.4-25.5,13.4
		c-19.9,0-34.1-16.9-34.1-39.1c0-27.2,17.7-42.6,36.1-42.6c13.9,0,21.5,7.3,25,13.9h0.3l0.7-12.1L574.1,255.1L574.1,255.1z
		 M559,286.8c0-2.5-0.2-4.6-0.8-6.6c-2.7-8.5-9.8-15.4-20.4-15.4c-13.9,0-23.9,11.8-23.9,30.3c0,15.7,8,28.8,23.7,28.8
		c9,0,17.1-5.6,20.2-14.9c0.8-2.5,1.2-5.3,1.2-7.8L559,286.8L559,286.8z"/>
	<path id="XMLID_46_" d="M612.9,232.6c0.2,5-3.5,9-9.3,9c-5.1,0-8.8-4-8.8-9c0-5.1,3.8-9.1,9.1-9.1
		C609.4,223.5,612.9,227.4,612.9,232.6z M596.6,335.3v-80.2h14.6v80.2H596.6z"/>
	<path id="XMLID_49_" d="M635.4,276.8c0-8.3-0.2-15.1-0.7-21.7h12.9l0.8,13.3h0.3c4-7.6,13.3-15.1,26.5-15.1
		c11.1,0,28.3,6.6,28.3,34.1v47.9h-14.6v-46.2c0-12.9-4.8-23.7-18.6-23.7c-9.6,0-17.1,6.8-19.6,14.9c-0.7,1.8-1,4.3-1,6.8v48.2
		h-14.6v-58.5H635.4z"/>
	<path id="XMLID_51_" d="M727.9,225c7-1.2,16.1-2.2,27.7-2.2c14.3,0,24.7,3.3,31.3,9.3c6.1,5.3,9.8,13.4,9.8,23.4
		c0,10.1-3,18.1-8.6,23.9c-7.6,8.1-20.1,12.3-34.1,12.3c-4.3,0-8.3-0.2-11.6-1v44.8H728V225H727.9z M742.3,278.8
		c3.1,0.8,7.1,1.2,11.9,1.2c17.4,0,28-8.5,28-23.9c0-14.8-10.4-21.9-26.4-21.9c-6.3,0-11.1,0.5-13.6,1.2L742.3,278.8L742.3,278.8z"
		/>
	<path id="XMLID_54_" d="M812.9,280.2c0-9.4-0.2-17.6-0.7-25H825l0.5,15.7h0.7c3.6-10.8,12.4-17.6,22.2-17.6c1.7,0,2.8,0.2,4.1,0.5
		v13.8c-1.5-0.3-3-0.5-5-0.5c-10.3,0-17.6,7.8-19.6,18.7c-0.3,2-0.7,4.3-0.7,6.8v42.8h-14.4v-55.2H812.9z"/>
	<path id="XMLID_56_" d="M873.6,297.9c0.3,19.7,12.9,27.8,27.5,27.8c10.4,0,16.7-1.8,22.2-4.1l2.5,10.4c-5.1,2.3-13.9,5-26.7,5
		c-24.7,0-39.4-16.2-39.4-40.4s14.3-43.3,37.6-43.3c26.2,0,33.1,23,33.1,37.8c0,3-0.3,5.3-0.5,6.8L873.6,297.9L873.6,297.9z
		 M916.3,287.4c0.2-9.3-3.8-23.7-20.2-23.7c-14.8,0-21.2,13.6-22.4,23.7H916.3z"/>
	<path id="XMLID_59_" d="M946.5,320.4c4.3,2.8,11.9,5.8,19.2,5.8c10.6,0,15.6-5.3,15.6-11.9c0-7-4.1-10.8-14.9-14.8
		c-14.4-5.1-21.2-13.1-21.2-22.7c0-12.9,10.4-23.5,27.7-23.5c8.1,0,15.2,2.3,19.7,5l-3.6,10.6c-3.1-2-9-4.6-16.4-4.6
		c-8.6,0-13.4,5-13.4,10.9c0,6.6,4.8,9.6,15.2,13.6c13.9,5.3,21,12.3,21,24.2c0,14.1-10.9,24-30,24c-8.8,0-16.9-2.2-22.5-5.5
		L946.5,320.4z"/>
	<path id="XMLID_61_" d="M1012.1,320.4c4.3,2.8,11.9,5.8,19.2,5.8c10.6,0,15.6-5.3,15.6-11.9c0-7-4.1-10.8-14.9-14.8
		c-14.4-5.1-21.2-13.1-21.2-22.7c0-12.9,10.4-23.5,27.7-23.5c8.1,0,15.2,2.3,19.7,5l-3.6,10.6c-3.1-2-9-4.6-16.4-4.6
		c-8.6,0-13.4,5-13.4,10.9c0,6.6,4.8,9.6,15.2,13.6c13.9,5.3,21,12.3,21,24.2c0,14.1-10.9,24-30,24c-8.8,0-16.9-2.2-22.5-5.5
		L1012.1,320.4z"/>
</g>
</svg>
