<svg width="282" height="184" viewBox="0 0 282 184" fill="none" xmlns="http://www.w3.org/2000/svg">
<mask id="mask0" mask-type="alpha" maskUnits="userSpaceOnUse" x="-57" y="0" width="339" height="226">
<rect x="-57" width="339" height="226" fill="white"/>
</mask>
<g mask="url(#mask0)">
<path fill-rule="evenodd" clip-rule="evenodd" d="M42.0851 53.5524C41.8847 53.1431 41.3353 53.315 41.2005 53.6674C40.6994 54.9967 40.8998 56.6154 40.9988 58.0016C41.0112 58.166 41.0817 58.2848 41.1795 58.3627C41.4467 58.6693 42.0641 58.584 42.022 58.0832C42.0158 58.009 42.0121 57.9348 42.0072 57.8618C42.2892 57.9744 42.6864 57.8346 42.6975 57.4365C42.7272 56.0849 42.6876 54.7877 42.0851 53.5524Z" fill="#00B1B2"/>
<path fill-rule="evenodd" clip-rule="evenodd" d="M45.9188 47.5208C45.8842 47.48 45.8446 47.4417 45.8013 47.4058C45.4623 47.1189 44.9142 47.2364 44.5913 47.5406C44.0766 48.0253 43.8762 48.928 43.6399 49.5735C43.3157 50.4589 43.1524 51.3925 43.0497 52.3273C42.9903 52.8652 43.7178 52.9295 43.9492 52.5314C44.1941 52.6328 44.4985 52.5648 44.5702 52.2309C44.6222 51.9922 44.6742 51.7536 44.7274 51.5161C44.8932 51.5137 45.059 51.4457 45.1443 51.2936C45.5848 50.5232 46.6983 48.4359 45.9188 47.5208Z" fill="#00B1B2"/>
<path fill-rule="evenodd" clip-rule="evenodd" d="M52.0462 39.2003C51.9719 38.9604 51.7393 38.7712 51.4647 38.8664C51.1702 38.9703 50.9858 39.1682 50.846 39.4081C50.684 39.5935 50.5442 39.8285 50.4093 40.0696C49.9008 40.9711 49.4987 41.9282 49.182 42.9113C49.0298 43.3811 49.6571 43.7088 49.9899 43.3811C50.0084 43.3638 50.0245 43.3478 50.0418 43.3304C50.0468 43.3304 50.0505 43.3304 50.0542 43.3317C50.1346 43.7373 50.7483 43.7867 50.9364 43.4405C51.5698 42.2633 52.0004 41.023 52.2095 39.7011C52.2354 39.5292 52.1959 39.3141 52.0462 39.2003Z" fill="#00B1B2"/>
<path fill-rule="evenodd" clip-rule="evenodd" d="M59.7946 37.5544C59.7884 37.5359 59.776 37.521 59.7686 37.5037C59.7847 37.3924 59.8033 37.2824 59.8169 37.1699C59.8478 36.9052 59.5694 36.6938 59.3331 36.6864C58.6526 36.6666 58.2889 37.573 58.0179 38.075C57.7928 38.4967 57.6022 38.932 57.4414 39.3784C57.236 39.6863 57.0368 39.9991 56.8475 40.3206C56.6656 40.6322 56.8698 40.9191 57.1346 41.0082C57.1816 41.0799 57.2484 41.133 57.3239 41.1726C57.3201 41.2109 57.3102 41.2456 57.3078 41.2851C57.2855 41.7785 57.9709 41.9232 58.2097 41.5287C58.6563 40.7893 59.0671 40.0325 59.4259 39.2473C59.6659 38.7205 60.0284 38.1344 59.7946 37.5544Z" fill="#00B1B2"/>
<path fill-rule="evenodd" clip-rule="evenodd" d="M196.147 73.7231C203.235 77.8372 203.657 83.8728 196.274 122.598C188.89 161.323 187.676 157.097 189.394 174.399C191.113 191.7 204.445 191.713 192.743 221.448C182.149 244.087 147.922 275.806 145.825 285.109C143.727 294.412 142.476 310.966 127.429 310.449C112.38 309.933 115.353 279.996 117.324 255.385C119.294 230.772 139.255 190.077 139.255 190.077L126.148 170.279C126.148 170.279 130.11 164.558 126.776 144.385C115.753 140.849 112.158 134.129 113.579 117.997C115 101.865 124.082 75.3047 124.082 75.3047C124.082 75.3047 157.351 51.2053 196.147 73.7231Z" fill="#345468"/>
<path fill-rule="evenodd" clip-rule="evenodd" d="M178.519 169.75C178.549 169.756 178.582 169.761 178.616 169.761C181.37 169.762 186.344 170.014 188.522 167.89C188.628 167.785 188.723 167.672 188.813 167.556C188.255 158.047 189.823 155.524 195.08 128.772L190.041 127.552C188.379 127.15 185.724 125.912 183.978 126.439C182.376 126.921 182.181 128.832 181.911 130.225C181.546 132.101 181.336 134.003 181.213 135.909C181.103 135.392 180.256 135.418 180.267 136.004C180.35 140.971 180.246 145.932 179.974 150.885C178.751 156.943 178.063 163.085 177.926 169.282C177.918 169.6 178.244 169.797 178.519 169.75Z" fill="#161C23"/>
<path fill-rule="evenodd" clip-rule="evenodd" d="M184.932 216.134C182.829 220.951 181.69 226.093 180.011 231.057C178.467 235.629 176.266 239.826 173.535 243.799C168.035 251.798 161.851 259.791 155.015 266.69C151.648 270.087 147.766 272.81 144.266 276.04C142.463 277.704 140.758 279.636 139.975 282.005C139.093 284.668 139.682 287.41 139.719 290.138C139.76 293.026 138.942 296.625 135.888 297.736C133.139 298.738 130.023 297.106 128.659 294.672C124.999 288.146 130.541 280.067 136.264 276.861C140.727 265.967 145.188 255.072 149.651 244.178C154.141 233.216 159.356 222.193 161.51 210.469C162.35 205.902 162.23 200.88 164.727 196.794C166.678 193.599 169.859 191.382 173.121 189.679C176.363 187.986 180.676 185.563 184.413 185.611C187.895 185.658 190.327 188.344 191.42 191.447C194.441 200.025 188.207 208.638 184.932 216.134ZM188.732 162.763C186.425 161.819 183.914 161.232 181.331 160.902C167.337 159.117 152.705 162.232 140.263 168.733C136.483 170.708 132.954 173.014 129.665 175.59L139.256 190.076C139.256 190.076 119.294 230.773 117.325 255.384C115.355 279.997 112.381 309.933 127.428 310.448C142.477 310.965 143.727 294.413 145.826 285.11C147.924 275.807 182.149 244.088 192.743 221.449C204.445 191.712 191.113 191.701 189.394 174.399C188.872 169.131 188.621 165.859 188.732 162.763Z" fill="#161C23"/>
<path fill-rule="evenodd" clip-rule="evenodd" d="M136.222 167.513C136.222 167.513 133.02 149.229 130.074 144.677C126.774 144.385 123.523 140.124 122.135 129.6C120.746 119.078 122.135 92.6435 122.135 92.6435L142.788 103.685L169.882 86.2319C169.882 86.2319 157.164 126.587 157.461 131.681C157.757 136.775 145.548 171.141 145.548 171.141L136.222 167.513Z" fill="#00CABC"/>
<path fill-rule="evenodd" clip-rule="evenodd" d="M156.408 111.533C156.199 111.415 156 111.468 155.863 111.593C155.735 111.576 155.599 111.607 155.478 111.722C152.838 114.237 151.831 117.65 151.291 121.168C150.945 123.437 150.764 125.74 150.191 127.969C149.529 130.54 148.144 132.502 146.83 134.747C144.619 138.52 140.536 150.789 147.64 152.107C148.583 152.281 150.068 152.369 150.857 151.737C152.074 150.76 152.426 147.825 152.761 146.41C153.873 141.722 154.807 137.016 156.126 132.375C157.38 127.967 158.834 123.586 159.395 119.019C159.837 115.424 159.682 113.375 156.408 111.533Z" fill="#00B1B2"/>
<path fill-rule="evenodd" clip-rule="evenodd" d="M130.075 144.677C130.075 144.677 133.926 144.376 134.889 144.909C135.85 145.445 140.979 150.25 152.093 149.503C153.161 156.339 152.414 165.416 151.345 165.737C150.276 166.058 144.827 165.096 144.185 161.252C143.544 157.406 138.843 151.852 135.423 149.289C132.003 146.726 130.075 144.677 130.075 144.677Z" fill="#00B1B2"/>
<path fill-rule="evenodd" clip-rule="evenodd" d="M126.148 170.28C117.22 181.341 105.398 181.337 102.275 182.799C99.1527 184.26 69.7735 193.166 21.1617 230.321C8.85373 241.732 0.27357 246.444 0.27357 246.444L-0.796631 265.121C-0.796631 265.121 16.3093 266.789 18.6798 265.121C21.0515 263.453 23.9467 262.333 31.083 260.558C38.2205 258.781 104.338 242.96 134.842 218.071C141.505 209.016 152.206 180.305 152.206 180.305L126.148 170.28Z" fill="#345468"/>
<path fill-rule="evenodd" clip-rule="evenodd" d="M102.276 182.799C99.1529 184.26 69.7725 193.166 21.1606 230.321C8.85392 241.732 0.27376 246.444 0.27376 246.444L0.00280762 251.178C7.48803 247.372 13.8894 241.861 20.3366 236.498C28.4627 229.74 36.8189 223.258 45.4214 217.117C62.3231 205.054 80.1837 194.294 98.9611 185.407C107.526 181.353 120.073 175.779 128.293 183.485C131.186 186.197 133.347 190.504 132.471 194.539C131.468 199.161 126.811 200.814 123.401 203.379C119.446 206.354 116.124 210.11 112.402 213.362C108.572 216.709 104.525 219.802 100.292 222.624C92.1353 228.063 83.2966 232.491 74.0434 235.742C62.8007 239.693 50.9456 241.482 39.672 245.329C29.0838 248.943 19.1551 254.269 10.226 260.998C10.0441 260.84 9.88701 260.65 9.7571 260.437C10.0639 259.946 10.4104 259.472 10.8112 259.026C11.2244 258.563 10.5427 257.877 10.1283 258.342C8.24397 260.444 7.33461 263.04 7.21336 265.706C12.0126 265.952 17.4217 266.006 18.68 265.121C21.0517 263.453 23.9456 262.333 31.0832 260.558C38.2207 258.781 104.338 242.96 134.842 218.071C141.506 209.016 152.205 180.305 152.205 180.305L126.148 170.28C117.221 181.341 105.398 181.337 102.276 182.799Z" fill="#161C23"/>
<path fill-rule="evenodd" clip-rule="evenodd" d="M125.105 88.6348C125.105 88.6348 113.84 102.194 102.266 115.936C90.6925 129.676 86.7186 147.361 86.7186 147.361L85.0879 165.683C85.0879 165.683 106.922 144.531 113.283 139.014C123.558 130.102 142.788 88.6348 142.788 88.6348H125.105Z" fill="#345468"/>
<path fill-rule="evenodd" clip-rule="evenodd" d="M108.744 125.774C106.123 127.433 103.794 129.517 101.489 131.578C99.4799 133.374 95.6469 137.861 92.5898 136.485C91.866 136.159 91.1781 136.348 90.6931 136.76C90.6721 136.758 90.6523 136.758 90.63 136.755C90.4704 136.74 90.3058 136.766 90.1438 136.818C89.4398 138.589 88.8608 140.21 88.3869 141.63C87.48 148.175 87.6631 154.759 88.9437 161.292C88.9771 161.468 89.0476 161.626 89.1404 161.768C95.7657 155.385 108.642 143.039 113.282 139.013C116.451 136.264 120.473 130.416 124.52 123.644C119.227 121.474 113.501 122.767 108.744 125.774Z" fill="#161C23"/>
<path fill-rule="evenodd" clip-rule="evenodd" d="M85.0885 165.682C85.0885 165.682 82.3617 167.219 75.7054 148.485C69.0479 129.75 59.1835 100.09 52.959 87.3619C46.737 74.6339 43.6885 71.7144 43.6885 71.7144L68.2041 77.5831C68.2041 77.5831 68.9242 91.3251 73.7432 98.6294C78.5634 105.934 91.9712 123.622 94.5273 130.282C97.0834 136.942 85.0885 165.682 85.0885 165.682Z" fill="#345468"/>
<path fill-rule="evenodd" clip-rule="evenodd" d="M89.6454 59.1322C89.7778 58.6227 89.6429 58.1775 89.0416 57.8931C88.2337 57.5123 86.9878 58.0502 86.2554 58.3568C85.5118 58.6684 84.819 59.0666 84.1484 59.5044C83.338 59.9112 82.6192 60.3613 82.1862 60.6309C81.747 60.9054 82.013 61.5224 82.4188 61.5323C82.5474 61.6313 82.7244 61.6609 82.9186 61.5459C83.7216 61.0686 84.5159 60.5789 85.3263 60.1152C85.5193 60.0386 85.7803 59.9409 86.0624 59.8605C85.8694 60.0608 85.69 60.2834 85.5242 60.5332C85.1803 61.0525 86.0166 61.5373 86.3606 61.0204C86.608 60.6457 86.8889 60.3551 87.218 60.1301C86.8913 60.804 86.4596 61.3988 85.888 61.9565C85.6083 62.2273 85.7469 62.5537 86.0018 62.6885C85.3819 63.2512 84.7608 63.8126 84.1398 64.3752C83.6696 64.8006 84.3488 65.4362 84.8239 65.0578C85.9337 64.1749 90.8468 61.123 89.6454 59.1322Z" fill="#00B1B2"/>
<path fill-rule="evenodd" clip-rule="evenodd" d="M88.0216 58.987C87.0034 58.2414 85.4358 58.9042 84.4188 59.2479C82.6112 59.8613 80.9039 60.738 79.4105 61.9325C78.0892 62.991 76.9843 64.2511 76.0143 65.6175C75.0444 66.9851 74.208 68.4579 73.4236 69.943C70.458 74.6197 66.5892 72.2034 64.0776 68.4047C62.8911 67.1249 61.691 65.8091 60.7371 64.7605C59.7844 63.7132 59.078 62.9317 58.8812 62.7202C57.8939 61.6592 56.5478 60.5797 56.1259 59.175C55.1708 55.997 56.7247 52.6484 57.5487 49.6188C58.4507 46.3011 59.9094 42.1759 59.4281 38.7259C59.3526 38.1942 58.5459 38.0223 58.2144 38.4056C55.5209 41.5403 53.8321 45.3304 52.2881 49.1291C51.9763 49.8958 51.7152 50.6587 51.4975 51.418C51.4938 47.8864 52.6196 44.4772 52.0901 40.927C52.0183 40.4509 51.6113 40.3272 51.2525 40.4447C51.0211 40.4484 50.7823 40.5461 50.619 40.7625C48.731 43.2369 47.3008 45.9845 46.3246 48.8707C45.9386 48.7198 45.487 48.7334 44.9934 48.9968C43.3936 49.855 43.2167 52.9167 43.0113 54.4142C42.9396 54.9459 42.8888 55.4764 42.8493 56.0069C42.827 55.9958 42.8047 55.9822 42.78 55.9723C39.5174 54.7382 41.5477 64.1299 42.0413 66.1653C42.8703 70.3053 43.9504 74.386 45.2408 78.4085C45.2606 78.4741 45.2891 78.5334 45.3225 78.5866C45.6454 79.864 46.1551 80.9645 46.7886 81.9599C47.422 82.9554 48.1792 83.8457 48.9983 84.6989C57.8853 91.5347 60.3028 102.167 66.5892 110.866C69.973 102.167 69.4892 92.9839 73.8418 84.7682C74.8093 83.3189 74.8093 80.9014 75.7768 79.4522C76.7431 76.5524 79.6444 73.6527 81.7266 70.5365C82.4195 69.5646 83.1111 68.5927 83.8039 67.6207C85.2441 65.5965 87.2991 63.451 88.3421 61.2066C88.7083 60.4177 88.8308 59.5806 88.0216 58.987Z" fill="#C68657"/>
<path fill-rule="evenodd" clip-rule="evenodd" d="M189.737 176.879C189.597 176.091 189.479 175.268 189.394 174.4C188.509 165.499 188.403 162.295 189.51 156.011C182.656 156.819 163.518 167.17 149.946 165.713C144.546 168.845 132.819 162.755 128.107 159.064C128.057 167.513 126.148 170.281 126.148 170.281C124.859 171.877 123.511 173.236 122.135 174.408C125.532 176.883 131.322 181.761 138.903 194.164C145.334 204.813 145.548 202.25 145.548 202.25C145.548 202.25 159.824 186.26 189.737 176.879Z" fill="#DAD7D0"/>
<path fill-rule="evenodd" clip-rule="evenodd" d="M172.001 92.6438C172.001 92.6438 165.541 107.004 159.622 108.79C153.702 110.575 136.095 129.294 134.768 144.677C130.682 133.83 133.316 112.74 133.316 112.74C139.142 96.3152 143.833 98.3023 148.718 87.4564C148.718 87.4564 148.035 79.2803 146.352 75.3554C150.653 66.0094 166.958 56.5386 166.958 56.5386C166.958 56.5386 177.057 77.8471 176.402 80.8371C175.746 83.8283 172.001 92.6438 172.001 92.6438Z" fill="#C68657"/>
<path fill-rule="evenodd" clip-rule="evenodd" d="M132.557 131.162C132.755 136.029 133.365 140.956 134.768 144.677C135.078 141.082 136.284 137.307 138.015 133.607C139.231 128.795 141.352 123.125 145.386 116.051C144.347 115.458 141.256 126.754 132.82 130.556C132.726 130.762 132.644 130.961 132.557 131.162Z" fill="#BB6D35"/>
<path fill-rule="evenodd" clip-rule="evenodd" d="M174.879 74.884C173.435 70.9616 171.257 65.9609 169.549 62.1721C169.469 62.1708 168.9 56.9587 168.827 57.0057C164.801 59.6581 161.262 67.535 157.235 70.1875C153.896 72.3861 150.002 74.3745 146.925 76.9688C148.192 81.1632 148.717 87.4561 148.717 87.4561C143.833 98.302 139.142 96.3161 133.316 112.741C133.316 112.741 132.467 119.547 132.481 127.413C135.36 123.467 137.988 119.368 139.475 114.652C141.452 108.383 141.97 101.746 144.047 95.521C144.05 95.5198 144.055 95.5185 144.057 95.5173C146.595 98.5048 150.204 97.4711 153.287 95.4987C157.699 92.6757 161.38 88.6927 165.017 84.9743C165.471 84.5094 165.924 84.0432 166.378 83.5782C165.62 89.259 163.31 94.6171 161.648 100.116C161.235 101.486 159.786 105.775 159.799 108.726C165.669 106.714 172.001 92.6435 172.001 92.6435C172.001 92.6435 175.746 83.828 176.401 80.8368C176.561 80.1109 176.084 78.2993 175.27 75.9771C174.832 75.8831 174.39 75.8114 173.967 75.7557C174.246 75.4812 174.582 75.1931 174.879 74.884Z" fill="#BB6D35"/>
<path fill-rule="evenodd" clip-rule="evenodd" d="M172.041 82.4977C172.041 82.4977 159.169 98.0315 155.342 119.729C152.762 134.353 144.582 176.755 143.06 180.299C141.538 183.843 135.754 189.024 121.48 251.678C119.133 261.008 119.068 265.121 119.068 265.121C119.068 265.121 120.693 272.21 122.653 276.355C126.709 271.802 140.775 261.653 141.559 258.269C142.344 254.887 139.883 254.792 143.853 244.368C147.825 233.945 158.301 209.275 159.43 202.52C160.558 195.765 158.091 186.432 161.419 182.238C164.747 178.043 185.016 140.093 191.887 118.713C198.757 97.3341 199.079 82.5138 197.951 79.1306C196.824 75.7473 184.451 63.3644 172.041 82.4977Z" fill="#345468"/>
<path fill-rule="evenodd" clip-rule="evenodd" d="M189.417 119.019C187.903 119.689 187.383 121.433 186.556 122.725C185.085 125.027 182.849 126.714 180.741 128.393C177.511 130.965 173.996 134.116 173.597 138.513C173.36 141.124 174.669 142.807 175.905 144.958C178.598 149.645 174.367 151.595 170.538 152.619C168.188 153.248 166.273 154.013 164.611 155.846C163.546 157.021 162.668 158.543 161.284 159.394C158.559 161.071 156.327 159.205 155.708 156.361C153.417 145.818 161.904 134.675 158.373 124.429C160.348 121.566 162.1 118.005 160.128 114.816C159.394 113.631 158.261 112.734 157.038 112.34C156.373 114.708 155.794 117.174 155.343 119.729C152.764 134.352 144.583 176.754 143.061 180.298C142.49 181.629 141.319 183.189 139.325 187.93C143.471 188.98 148.899 187.656 152.833 186.374C155.783 185.41 158.537 184.148 161.122 182.65C161.216 182.508 161.315 182.37 161.421 182.238C164.739 178.058 184.875 140.357 191.814 118.939C191.11 118.644 190.311 118.623 189.417 119.019Z" fill="#161C23"/>
<path fill-rule="evenodd" clip-rule="evenodd" d="M174.844 157.879C159.672 164.093 149.362 172.982 142.419 181.562C140.202 185.612 134.226 195.732 121.48 251.678C119.134 261.008 119.067 265.121 119.067 265.121C119.067 265.121 120.693 272.211 122.653 276.356C126.71 271.802 140.776 261.653 141.56 258.27C142.343 254.887 139.882 254.793 143.853 244.369C147.824 233.944 158.301 209.275 159.429 202.519C160.558 195.764 158.091 186.432 161.419 182.239C163.042 180.193 168.686 170.133 174.844 157.879Z" fill="#00CABC"/>
<path fill-rule="evenodd" clip-rule="evenodd" d="M98.9288 120.293C96.9653 123.093 95.274 125.957 93.8364 128.728C90.1383 121.198 78.2263 105.423 73.7438 98.6291C72.4818 96.7186 71.5044 94.3655 70.7448 91.9344C70.459 94.201 70.0074 96.6308 69.2873 98.6291C67.0813 98.6291 60.3805 94.3123 54.1721 89.9521C60.4077 103.771 69.4667 130.927 75.7048 148.485C82.3611 167.219 85.0879 165.682 85.0879 165.682C85.0879 165.682 90.6691 160.277 97.0086 154.219C95.7714 138.487 97.0729 127.582 98.9288 120.293Z" fill="#00CABC"/>
<path fill-rule="evenodd" clip-rule="evenodd" d="M91.4237 141.852C90.2248 144.776 90.1172 150.641 85.7077 150.484C81.125 150.321 78.679 144.821 77.4876 141.157C75.2333 134.215 74.4254 127.064 71.4276 120.324C69.2934 115.528 66.5356 111.053 63.2607 106.974C62.5604 103.608 61.2032 99.4215 57.6882 98.3481C63.5032 113.019 70.5616 134.009 75.7047 148.485C82.361 167.22 85.0878 165.682 85.0878 165.682C85.0878 165.682 90.669 160.277 97.0085 154.219C96.4258 146.817 96.406 140.483 96.7413 135.091C94.4215 136.799 92.5496 139.105 91.4237 141.852Z" fill="#00B1B2"/>
<mask id="mask1" mask-type="alpha" maskUnits="userSpaceOnUse" x="18" y="6" width="83" height="84">
<path fill-rule="evenodd" clip-rule="evenodd" d="M18.0576 47.9815C18.0576 70.6762 36.4651 89.0738 59.1719 89.0738C81.8775 89.0738 100.285 70.6762 100.285 47.9815C100.285 25.2868 81.8775 6.88916 59.1719 6.88916C36.4651 6.88916 18.0576 25.2868 18.0576 47.9815Z" fill="white"/>
</mask>
<g mask="url(#mask1)">
<path fill-rule="evenodd" clip-rule="evenodd" d="M18.0576 47.9815C18.0576 70.6762 36.4651 89.0738 59.1719 89.0738C81.8775 89.0738 100.285 70.6762 100.285 47.9815C100.285 25.2868 81.8775 6.88916 59.1719 6.88916C36.4651 6.88916 18.0576 25.2868 18.0576 47.9815Z" fill="url(#paint0_radial)" fill-opacity="0.5"/>
</g>
<path fill-rule="evenodd" clip-rule="evenodd" d="M133.306 109.243C133.306 109.243 147.49 98.9856 145.301 89.3417C141.293 70.2206 126.747 31.667 126.747 31.667C126.747 31.667 115.633 47.1451 113.628 58.4362C111.624 69.726 124.742 99.045 133.306 109.243Z" fill="#161C23"/>
<path fill-rule="evenodd" clip-rule="evenodd" d="M136.404 15.9807C130.633 18.1447 115.393 28.5999 117.918 53.1148C120.443 77.631 133.429 85.6525 135.864 88.1764C138.297 90.7002 141.003 93.8547 145.694 93.4936C150.383 93.1338 156.514 83.3093 158.318 81.5063C160.122 79.7034 166.975 67.2661 168.779 62.3087C170.583 57.3513 171.393 23.2814 158.228 15.0793C145.061 6.87836 136.404 15.9807 136.404 15.9807Z" fill="#C68657"/>
<path fill-rule="evenodd" clip-rule="evenodd" d="M161.399 76.8822C164.103 72.2946 167.571 65.6258 168.779 62.308C170.583 57.3519 171.393 23.282 158.228 15.0799C156.572 14.0486 154.986 13.2906 153.483 12.7539C151.548 13.4587 149.711 14.913 148.519 16.1742C148.264 16.4438 147.997 16.7517 147.76 17.0856C142.134 16.2806 136.836 19.2558 132.636 22.8529C127.813 26.9806 123.183 31.8304 120.314 37.5495C119.254 39.6653 118.424 41.9047 117.779 44.2084C117.563 46.9462 117.587 49.909 117.916 53.1154C119.61 69.5518 126.005 78.5738 130.77 83.4954C126.039 74.8753 122.139 65.6591 121.907 55.7073C121.835 52.6975 122.109 49.6778 122.807 46.7471C123.527 43.7175 124.568 41.117 127.526 39.7024C129.85 38.5919 132.396 37.9316 134.77 36.9238C137.131 35.921 139.433 34.7821 141.663 33.5134C145.392 31.3914 148.902 28.9096 152.153 26.1187C153.145 28.0576 154.358 29.8803 155.779 31.5584C157.307 33.3613 158.992 35.0616 159.919 37.2738C160.816 39.4167 161.115 41.7749 161.529 44.0452C162.416 48.9136 163.543 53.8054 164.08 58.727C164.613 63.5978 163.476 68.11 162.293 72.7929C161.949 74.1506 161.652 75.5133 161.399 76.8822Z" fill="#BB6D35"/>
<path fill-rule="evenodd" clip-rule="evenodd" d="M169.404 59.0095C170.141 52.5546 170.048 39.311 166.891 28.7334C158.843 30.7094 139.708 35.8041 134.691 40.6774C126.933 37.7096 122.176 36.2666 119.421 35.5667C117.91 40.3806 117.204 46.1851 117.918 53.1148C118.5 58.7795 119.644 63.5625 121.085 67.6011C122.583 68.1539 124.395 68.7153 126.305 69.0689C128.649 68.2577 133.068 66.9952 133.068 66.9952C133.068 66.9952 133.789 67.9869 135.954 69.2482C137.576 68.3468 141.946 65.0686 142.302 65.0031C142.657 64.9376 150.743 66.5451 156.243 66.8147C161.112 65.107 166.066 61.6471 169.404 59.0095Z" fill="#00CABC"/>
<path fill-rule="evenodd" clip-rule="evenodd" d="M160.892 64.7171C164.959 62.5197 168.686 59.6447 171.01 57.7045C168.711 50.1058 162.978 36.1215 160.576 30.3628C158.995 30.7906 157.306 31.2642 155.571 31.7737C155.843 32.3302 156.065 32.9744 156.011 33.5395C155.885 34.8688 145.184 39.046 144.361 41.6403C143.539 44.2346 142.524 57.3978 142.524 57.3978C142.524 57.3978 142.145 58.5998 142.335 58.7902C142.524 58.9794 145.816 57.1443 148.097 56.7016C150.375 56.259 157.784 54.2335 159.177 53.7265C160.57 53.2207 162.154 51.3857 162.09 53.4099C162.049 54.7454 161.402 60.6698 160.892 64.7171Z" fill="#00B1B2"/>
<path fill-rule="evenodd" clip-rule="evenodd" d="M135.022 40.373C134.906 40.4744 134.794 40.5758 134.69 40.6772C127.508 37.9295 122.9 36.4901 120.068 35.7358C119.287 37.8998 118.533 40.5634 117.849 43.4038C117.561 46.3629 117.555 49.5928 117.917 53.1158C118.5 58.7805 119.643 63.5623 121.085 67.6021C122.154 67.9941 123.38 68.3923 124.689 68.7163C124.155 65.8475 122.683 59.034 123.341 58.9796C124.1 58.9165 132.458 58.3477 132.711 59.2961C132.917 60.0702 129.004 66.2629 127.514 68.6668C129.907 67.8977 133.067 66.995 133.067 66.995C133.067 66.995 133.781 67.9743 135.913 69.2245C135.329 52.0721 135.104 44.0851 135.022 40.373Z" fill="#00B1B2"/>
<path fill-rule="evenodd" clip-rule="evenodd" d="M143.021 57.6327C143.021 57.6327 143.97 47.7822 145.864 44.1838C147.76 40.5841 163.111 34.9009 163.111 34.9009C163.111 34.9009 162.542 47.7822 162.165 50.0562C161.785 52.3278 150.107 55.4452 147.654 55.7704C145.205 56.0956 143.021 57.6327 143.021 57.6327Z" fill="#C68657"/>
<path fill-rule="evenodd" clip-rule="evenodd" d="M143.021 57.6327C143.021 57.6327 143.97 47.7822 145.864 44.1838C147.76 40.5841 163.111 34.9009 163.111 34.9009C163.111 34.9009 162.542 47.7822 162.165 50.0562C161.785 52.3278 150.107 55.4452 147.654 55.7704C145.205 56.0956 143.021 57.6327 143.021 57.6327Z" fill="#C68657"/>
<path fill-rule="evenodd" clip-rule="evenodd" d="M149.81 42.6127C149.815 42.6164 149.819 42.6226 149.826 42.6275C149.687 42.7821 149.555 42.9404 149.424 43.0999C149.542 42.928 149.672 42.7672 149.81 42.6127ZM145.865 44.1831C143.969 47.7827 143.021 57.632 143.021 57.632C143.021 57.632 143.665 57.1806 144.642 56.7157C145.206 56.0813 145.827 55.4964 146.492 54.9499C147.053 54.4886 147.705 54.0942 147.9 53.4635C148.092 53.1593 148.236 52.8168 148.311 52.4174C148.366 52.1181 147.907 51.9895 147.851 52.2913C147.83 52.4026 147.803 52.5101 147.769 52.6152C147.766 52.6152 147.762 52.6128 147.76 52.6128C147.698 52.5658 147.618 52.5448 147.547 52.5683C147.792 51.0646 147.734 49.5312 147.765 48.0004C147.917 47.1744 148.092 46.3162 148.338 45.4976C149.671 43.1568 151.645 41.2351 153.949 39.7785C156.726 38.0225 159.987 37.2212 162.699 35.3602C162.81 35.2848 162.823 35.1352 162.774 35.0288C160.513 35.8857 147.593 40.9 145.865 44.1831Z" fill="#BB6D35"/>
<path fill-rule="evenodd" clip-rule="evenodd" d="M132.378 58.4601C132.378 58.4601 131.108 49.4183 128.014 47.1987C124.92 44.9778 118.65 42.5986 118.65 42.5986C118.65 42.5986 121.504 53.3432 121.719 54.0802C121.918 54.7652 122.142 56.7944 124.125 57.9048C126.11 59.0153 129.918 57.1913 132.378 58.4601Z" fill="#C68657"/>
<path fill-rule="evenodd" clip-rule="evenodd" d="M128.014 47.1984C126.777 46.3105 125.031 45.3967 123.382 44.6201C122.912 44.8452 122.832 45.7355 123.491 45.9939C125.021 46.5949 126.616 47.2157 127.884 48.294C129.155 49.3759 129.935 50.8685 130.334 52.4723C130.648 53.7361 130.632 55.0493 131.442 56.135C131.637 56.3935 131.856 56.6222 132.096 56.8287C131.57 54.1194 130.283 48.8269 128.014 47.1984Z" fill="#BB6D35"/>
<path fill-rule="evenodd" clip-rule="evenodd" d="M132.288 57.8954C132.286 57.8967 132.282 57.8967 132.279 57.8992C131.942 57.7866 131.605 57.6692 131.27 57.5504C130.941 57.4342 130.581 57.3452 130.266 57.1968C129.972 57.057 129.642 56.9816 129.329 56.8864C128.985 56.7825 128.641 56.6787 128.296 56.5748C128.2 56.5451 128.104 56.5154 128.007 56.487C127.458 56.3201 126.868 56.1284 126.607 55.5682C126.388 55.0996 126.515 54.5505 126.297 54.0831C126.281 54.046 126.262 54.0102 126.241 53.9755C126.003 53.5885 125.365 53.5143 124.966 53.4055C125.232 51.7522 124.953 50.345 124.721 48.7152C124.638 48.1365 124.781 47.7457 124.849 47.1757C124.88 46.9222 125.008 46.8826 124.875 46.571C124.739 46.2569 124.32 46.0368 123.97 45.8352C124.267 45.6955 124.539 45.5199 124.788 45.3072C121.837 43.8085 118.65 42.5991 118.65 42.5991C118.65 42.5991 121.503 53.3424 121.718 54.0806C121.918 54.7657 122.142 56.7949 124.125 57.9053C126.109 59.0145 129.918 57.1906 132.377 58.4606C132.377 58.4606 132.349 58.2516 132.288 57.8954Z" fill="#BB6D35"/>
<path fill-rule="evenodd" clip-rule="evenodd" d="M133.351 69.768C132.895 69.768 133.286 69.031 133.654 69.2696C134.023 69.5083 134.393 70.3318 135.954 70.3096C137.516 70.2873 138.731 69.2907 139.728 68.6402C140.726 67.9898 142.483 67.6868 143.047 67.3394C143.612 66.9919 143.655 66.5158 143.829 66.5801C144.001 66.6456 144.848 67.2738 142.267 68.5969C139.685 69.9201 137.296 71.2333 136.671 71.5449C135.672 72.0445 133.893 69.768 133.351 69.768Z" fill="#BB6D35"/>
<path fill-rule="evenodd" clip-rule="evenodd" d="M130.707 76.9933C131.608 77.1503 132.87 80.5348 134.754 82.5442C136.637 84.5549 138.822 84.3323 142.035 83.9626C145.529 83.5607 147.962 81.2335 148.619 79.9635C149.276 78.6936 149.507 75.204 151.37 73.4048C148.47 73.9551 130.012 76.8709 130.707 76.9933Z" fill="#345468"/>
<path fill-rule="evenodd" clip-rule="evenodd" d="M132.286 76.9465C132.286 76.9465 135.998 80.9208 139.139 81.1891C139.424 81.2683 139.629 81.3004 139.754 81.3783C140.022 81.1421 143.224 80.2271 143.98 79.8809C144.737 79.5334 147.989 79.0919 149.111 74.9902C143.665 75.9214 132.286 76.9465 132.286 76.9465Z" fill="#161C23"/>
<path fill-rule="evenodd" clip-rule="evenodd" d="M133.652 76.9172C133.652 76.9172 134.986 79.138 135.663 79.7947C136.341 80.45 137.59 81.0856 139.727 80.9583C141.866 80.8309 146.522 78.7782 147.475 77.6999C148.427 76.6204 149.359 74.3154 149.359 74.3154L133.652 76.9172Z" fill="#F2F2F2"/>
<path fill-rule="evenodd" clip-rule="evenodd" d="M138.302 75.6576C138.302 75.6576 139.83 74.1935 140.647 74.1515C141.463 74.1094 144.978 73.9833 147.031 73.6074C149.082 73.2315 152.809 72.1643 153.834 71.3062C153.603 72.2682 151.216 74.4025 149.354 75.0517C147.491 75.6997 143.996 76.2858 142.468 76.5999C140.94 76.9127 139.725 77.813 139.014 77.897C138.302 77.9799 136.544 77.4148 135.436 77.353C134.325 77.2899 130.914 77.123 130.265 77.0389C129.616 76.9548 128.988 76.1386 128.988 76.1386C128.988 76.1386 132.693 75.8456 134.221 75.4066C135.75 74.9676 137.445 75.1976 138.26 75.6366" fill="#161C23"/>
<path fill-rule="evenodd" clip-rule="evenodd" d="M135.252 80.0339C134.768 80.0339 134.768 80.7486 135.252 80.7486C135.735 80.7486 135.735 80.0339 135.252 80.0339Z" fill="#F2F2F2"/>
<path fill-rule="evenodd" clip-rule="evenodd" d="M139.696 81.9065C139.586 81.9312 139.488 81.8248 139.372 81.8335C139.337 81.8372 139.267 81.8483 139.262 81.8644C139.225 81.831 139.181 81.7778 139.148 81.7581C139.011 81.6764 138.846 81.6604 138.694 81.6183C138.47 81.554 138.255 81.4712 138.043 81.3723C137.895 81.3018 137.752 81.3376 137.651 81.4205C137.626 81.3277 137.568 81.2412 137.486 81.193C137.314 81.0928 137.113 81.1583 137.004 81.3129C136.994 81.167 136.878 81.0273 136.739 80.9889C136.709 80.9803 136.68 80.9778 136.65 80.9766C136.64 80.9073 136.61 80.8418 136.553 80.7849C136.498 80.7292 136.417 80.6946 136.332 80.686C136.244 80.5957 136.112 80.5524 135.984 80.5883C135.556 80.7095 135.306 81.1769 135.299 81.5973C135.294 81.9188 135.643 82.0153 135.854 81.8867C135.916 81.9534 136.004 81.9955 136.107 81.9955C136.129 81.9955 136.154 81.9918 136.176 81.9868C136.191 82.1686 136.346 82.3195 136.53 82.3195C136.651 82.3195 136.76 82.2552 136.826 82.1612C136.849 82.2168 136.879 82.2725 136.925 82.3244C137.053 82.4679 137.298 82.4555 137.429 82.3244C137.442 82.312 137.448 82.2984 137.457 82.2861C137.5 82.3133 137.543 82.3108 137.593 82.3294C137.652 82.3529 137.714 82.3516 137.78 82.3516H137.781C137.797 82.3516 137.81 82.4134 137.83 82.4258C137.956 82.5247 138.102 82.568 138.26 82.5519C138.397 82.5396 138.529 82.4406 138.655 82.5161C138.78 82.5903 138.9 82.5866 138.997 82.5284C139.055 82.5507 139.119 82.5717 139.176 82.5742C139.237 82.5767 139.499 82.5655 139.26 82.5223C139.505 82.5668 139.614 82.6546 139.885 82.594C140.334 82.4938 140.144 81.8063 139.696 81.9065Z" fill="#F2F2F2"/>
<path fill-rule="evenodd" clip-rule="evenodd" d="M147.2 53.2847C147.2 53.2847 148.371 51.807 149.635 51.4064C150.897 51.0057 158.293 48.4806 160.112 47.526C161.928 46.5714 161.806 45.9556 161.837 45.8319C161.866 45.7095 161.405 45.8628 160.604 45.7095C160.942 44.416 161.097 41.4285 159.957 40.2266C160.018 40.9351 161.221 45.2779 158.939 47.0944C156.66 48.9122 151.021 50.3281 149.111 51.1294C147.2 51.9294 147.2 53.2847 147.2 53.2847Z" fill="#00CABC"/>
<path fill-rule="evenodd" clip-rule="evenodd" d="M147.416 52.7922C147.416 52.7922 148.957 50.3908 154.966 49.3434C157.768 48.4816 160.05 47.5257 160.573 44.5394C161.098 41.5518 159.771 40.042 159.771 40.042C159.771 40.042 154.318 43.9842 152.499 44.8164C150.683 45.6473 149.265 47.5257 148.525 49.0355C147.786 50.5441 147.416 52.7922 147.416 52.7922Z" fill="#F2F2F2"/>
<path fill-rule="evenodd" clip-rule="evenodd" d="M156.468 46.6945C156.468 48.2736 155.189 49.5534 153.609 49.5534C152.029 49.5534 150.75 48.2736 150.75 46.6945C150.75 46.3309 150.818 45.9835 150.941 45.6632C151.502 45.1327 153.929 43.8504 154.084 43.8764C155.437 44.1027 156.468 45.2774 156.468 46.6945Z" fill="black"/>
<path fill-rule="evenodd" clip-rule="evenodd" d="M152.913 46.8598C152.913 46.8598 153.818 47.4558 154.416 46.6211C155.56 46.9785 155.988 47.3358 155.988 47.3358C155.988 47.3358 155.417 49.0287 153.938 49.1004C152.46 49.1721 151.768 48.4574 151.601 48.1705C151.434 47.8849 152.913 46.8598 152.913 46.8598Z" fill="#012942"/>
<path fill-rule="evenodd" clip-rule="evenodd" d="M155.867 46.4418C155.641 46.5568 155.255 46.4962 155.006 46.5024C154.709 46.5086 154.415 46.5074 154.12 46.5024C153.813 46.4975 153.813 46.9736 154.12 46.9785C154.514 46.9847 154.907 46.9834 155.3 46.9698C155.574 46.9587 155.86 46.9797 156.107 46.8524C156.381 46.7139 156.141 46.3033 155.867 46.4418Z" fill="#627B8A"/>
<path fill-rule="evenodd" clip-rule="evenodd" d="M124.35 52.2617C124.35 52.2617 123.775 53.1483 123.149 53.2534C122.522 53.3573 122.418 53.8272 122.418 53.8272C122.418 53.8272 124.402 53.7753 125.552 53.8804C126.7 53.9843 128.947 53.2015 130.826 54.924C129.626 53.0964 127.536 53.4105 126.596 53.3573C125.657 53.3054 124.717 52.8874 124.35 52.2617Z" fill="#00B1B2"/>
<path fill-rule="evenodd" clip-rule="evenodd" d="M130.827 54.8198C130.827 54.8198 129.364 53.4101 128.32 53.4621C127.276 53.5152 125.186 53.8281 124.455 52.9922C123.724 52.1575 122.941 49.4432 124.038 47.0938C127.955 48.5554 129.782 49.3901 130.827 54.8198Z" fill="#F2F2F2"/>
<path fill-rule="evenodd" clip-rule="evenodd" d="M126.434 53.5617C125.764 51.6512 125.136 49.716 125.584 47.6942C125.107 47.4964 124.594 47.301 124.037 47.0933C122.941 49.4427 123.724 52.157 124.454 52.9929C124.847 53.4406 125.631 53.5568 126.434 53.5617Z" fill="#DAD7D0"/>
<path fill-rule="evenodd" clip-rule="evenodd" d="M128.286 53.3529C126.834 53.5409 125.505 52.5158 125.318 51.0653C125.13 49.6135 126.156 48.2855 127.607 48.0975C127.943 48.0555 130.412 51.8183 130.135 52.2215C129.723 52.8224 129.067 53.2528 128.286 53.3529Z" fill="black"/>
<path fill-rule="evenodd" clip-rule="evenodd" d="M127.284 50.8629C127.284 50.8629 128.124 51.4157 128.677 50.6416C129.737 50.973 130.006 51.5344 130.006 51.5344C130.006 51.5344 129.605 52.8736 128.235 52.9404C126.863 53.0059 126.224 52.3431 126.069 52.0785C125.914 51.8139 127.284 50.8629 127.284 50.8629Z" fill="#012942"/>
<path fill-rule="evenodd" clip-rule="evenodd" d="M128.594 51.1896C128.385 51.2959 128.027 51.2403 127.794 51.2452C127.521 51.2514 127.248 51.2502 126.973 51.2452C126.69 51.2415 126.69 51.6817 126.973 51.6867C127.339 51.6929 127.703 51.6916 128.068 51.6793C128.32 51.6694 128.586 51.6879 128.816 51.5704C129.07 51.4418 128.846 51.061 128.594 51.1896Z" fill="#627B8A"/>
<path fill-rule="evenodd" clip-rule="evenodd" d="M147.2 53.285C147.2 53.285 147.725 50.7599 148.217 49.3428C148.711 47.9269 149.419 46.1092 152.223 44.6006C155.027 43.092 161.159 38.5958 161.682 35.7319C161.99 38.1952 161.344 40.0735 158.54 41.7058C155.735 43.3381 151.391 45.4625 150.035 47.0329C148.679 48.6046 147.2 53.285 147.2 53.285Z" fill="#00CABC"/>
<path fill-rule="evenodd" clip-rule="evenodd" d="M200.685 71.4632L200.221 71.2295C200.221 71.2283 200.2 71.2283 200.2 71.2283C200.2 71.2233 200.221 71.0218 200.221 70.7077C200.221 70.7077 200.266 70.7089 200.267 70.7089C200.508 67.27 200.273 63.8348 199.16 60.4887C197.278 54.8413 193.199 50.2944 188.382 46.9001C188.381 46.91 188.387 46.9186 188.387 46.9285L188.404 46.9001L187.958 46.5761V46.5563C187.958 46.5514 187.966 46.5439 187.956 46.5378L187.958 46.0592V46.0877L187.843 46.0209L187.737 45.8601C187.801 45.9022 187.85 45.943 187.914 45.985C187.913 45.5497 187.903 45.1145 187.896 44.6792C187.812 39.3657 187.098 34.0744 184.804 29.2283C183.709 26.9147 182.356 24.7346 180.964 22.5917C179.523 20.372 178.083 18.124 176.346 16.1207C173.079 12.3517 168.547 9.59166 164.257 7.12223C160.922 5.20308 157.346 3.59431 153.56 3.04899L152.319 2.91791C152.305 2.91049 152.291 2.90431 152.276 2.89813C152.251 2.89565 152.225 2.89442 152.201 2.89318L150.919 2.3899L150.791 2.36393C150.837 2.36393 150.883 2.36269 150.927 2.36269C143.061 -0.417107 134.415 2.31199 127.522 6.65234C120.863 10.8455 115.314 16.4113 111.888 23.5475C108.439 30.7295 106.959 38.8315 106.573 46.7418C106.256 53.2177 108.734 65.2952 109.282 67.7943C107.303 70.7868 102.641 78.4869 101.431 86.2971C99.8845 96.2897 104.712 100.613 104.712 100.613C104.712 100.613 103.966 103.358 103.266 106.259C103.235 106.371 103.185 106.554 103.154 106.668C101.734 111.403 99.9575 119.676 104.942 128.586C110.001 137.628 120.832 144.468 127.617 149.167C128.332 146.787 132.735 135.843 134.579 131.382C135.27 129.477 135.806 127.598 136.213 125.772C138.591 115.114 135.741 103.991 128.808 95.549C126.552 92.8002 124.358 89.6815 123.31 86.9376C120.489 79.5491 118.913 71.666 118.979 63.7446C119.01 59.7542 119.461 55.7613 120.37 51.8748C121.202 48.3221 122.386 44.7423 124.516 41.7399C128.218 36.5228 134.299 34.0114 139.801 31.1846C142.79 29.6488 145.727 27.9608 148.198 25.6571C149.93 24.0409 155.061 16.1158 154.951 16.4014C154.434 17.7443 154.791 18.3404 154.069 19.5769C154.497 23.3682 155.712 27.6245 157.851 30.7159C160.179 34.0831 162.043 37.752 163.206 41.6781C164.355 45.5535 165.294 49.5204 166.139 53.4737C166.997 57.4851 167.041 61.515 166.868 65.6229C166.695 69.7073 166.069 73.7645 166.064 77.8563C166.06 80.0388 166.153 82.2448 166.766 84.3433C167.787 87.8403 166.478 90.2615 163.868 93.3504C149.902 109.88 152.567 130.251 154.433 130.393C156.309 128.146 158.934 126.556 161.793 125.784C169.884 123.602 178.095 128.243 183.501 133.97C186.249 136.881 188.493 140.172 190.467 143.634C191.46 142.969 192.439 142.286 193.403 141.589C197.806 138.41 202.105 134.657 204.694 129.801C206.067 127.224 206.793 124.445 206.919 121.531C207.06 118.281 206.626 115.025 206.935 111.779C207.121 109.844 207.72 107.617 209.207 106.113C214.069 101.2 206.173 74.2405 200.685 71.4632Z" fill="#012942"/>
<path fill-rule="evenodd" clip-rule="evenodd" d="M156.854 13.105C156.453 13.2385 154.177 18.055 157.924 25.9492C161.673 33.8422 171.713 43.475 168.5 67.5572C166.893 80.9368 167.161 86.0203 167.161 86.0203C167.161 86.0203 162.744 71.9717 165.823 58.5933C166.223 47.8896 160.942 35.9654 156.185 28.7587C149.767 19.0368 156.854 13.105 156.854 13.105Z" fill="#1D3650"/>
<path fill-rule="evenodd" clip-rule="evenodd" d="M188.381 46.8998C188.381 46.9097 188.386 46.9196 188.386 46.9283L188.348 46.8998L187.942 46.6401C187.255 47.8062 186.253 49.2555 184.805 50.8976C180.988 55.2281 177.997 68.5261 177.997 68.5261C177.997 68.5261 182.845 54.6098 186.455 51.6198C187.775 50.5279 189.134 49.394 190.33 48.375C189.695 47.8619 189.047 47.3685 188.381 46.8998Z" fill="#1D3650"/>
<path fill-rule="evenodd" clip-rule="evenodd" d="M200.201 71.2275C200.201 71.2275 202.34 77.5983 191.511 93.8864C186.663 103.473 198.215 126.153 203.577 128.833C206.26 120.071 202.959 108.731 206.362 104.711C203.991 85.4332 200.175 71 200.175 71" fill="#1D3650"/>
<path fill-rule="evenodd" clip-rule="evenodd" d="M130.827 54.8196C130.827 54.8196 130.148 51.4784 127.537 49.234C124.924 46.9884 123.097 47.0935 121.896 46.4147C120.695 45.7358 120.59 42.8657 120.59 42.8657C120.59 42.8657 122.68 45.3191 124.403 46.0499C126.127 46.7807 129.887 47.1455 130.827 54.8196Z" fill="#00B1B2"/>
<path fill-rule="evenodd" clip-rule="evenodd" d="M116.74 92.1436C116.74 92.1436 115.136 92.4341 111.786 96.0746C109.651 98.3944 106.571 100.063 104.616 100.969C104.393 101.801 103.817 103.982 103.266 106.259C103.236 106.371 103.187 106.554 103.156 106.668C102.743 108.048 102.299 109.731 102 111.64C108.111 106.645 116.74 92.1436 116.74 92.1436Z" fill="#1D3650"/>
<path fill-rule="evenodd" clip-rule="evenodd" d="M115.427 63.4575C114.13 64.568 111.596 66.5625 109.212 67.9042C108.119 69.5624 106.282 72.5512 104.635 76.1682C108.833 71.97 114.328 67.9623 115.427 63.4575Z" fill="#1D3650"/>
</g>
<defs>
<radialGradient id="paint0_radial" cx="0" cy="0" r="1" gradientUnits="userSpaceOnUse" gradientTransform="translate(59.1712 47.9813) scale(41.1143 41.093)">
<stop stop-color="#00CABC"/>
<stop offset="1" stop-color="#CDF4F2"/>
</radialGradient>
</defs>
</svg>
