<svg width="32" height="32" viewBox="0 0 32 32" fill="none" xmlns="http://www.w3.org/2000/svg">
<path d="M30 5.33H2C0.895431 5.33 0 6.22543 0 7.33V24.6633C0 25.7679 0.895431 26.6633 2 26.6633H30C31.1046 26.6633 32 25.7679 32 24.6633V7.33C32 6.22543 31.1046 5.33 30 5.33Z" fill="#73AF00"/>
<path d="M23.2345 15.6998C23.0469 15.9012 22.7917 16.1008 22.4688 16.2988C22.1459 16.4967 21.7449 16.6772 21.2657 16.8404C20.7865 17.0036 20.2292 17.1408 19.5938 17.2519C18.9584 17.363 18.2344 17.4324 17.422 17.4602C17.3456 17.6755 17.2674 17.9064 17.1876 18.1529C17.1077 18.3995 17.0296 18.6686 16.9532 18.9602H16.9011C16.8664 18.9255 16.8369 18.8821 16.8126 18.83C16.7883 18.7779 16.7657 18.7033 16.7449 18.6061C16.7796 18.4116 16.8178 18.2206 16.8595 18.0331C16.9011 17.8456 16.9463 17.6547 16.9949 17.4602C16.6407 17.4602 16.3074 17.4151 15.9949 17.3248C15.974 18.672 15.6511 19.9081 15.0261 21.0331C14.3456 22.2623 12.9254 22.8769 10.7657 22.8769C9.89765 22.8769 9.18932 22.6234 8.64071 22.1165C8.08515 21.6026 7.80737 20.9602 7.80737 20.1894C7.80737 19.3769 8.18932 18.3804 8.95321 17.1998L9.15112 17.2727C8.63723 18.2241 8.38029 18.9915 8.38029 19.5748C8.38029 19.8804 8.45494 20.1529 8.60425 20.3925C8.75355 20.6321 8.96536 20.837 9.23966 21.0071C9.51397 21.1772 9.85077 21.3074 10.2501 21.3977C10.6494 21.488 11.099 21.5331 11.599 21.5331C12.3629 21.5331 13.0713 21.4012 13.724 21.1373C14.3768 20.8804 14.8213 20.5505 15.0574 20.1477C15.2726 19.7588 15.3803 19.1859 15.3803 18.429C15.3803 18.0192 15.316 17.6113 15.1876 17.205C15.0591 16.7988 14.8838 16.4394 14.6615 16.1269L15.2345 14.8977C15.3525 15.0644 15.4636 15.2467 15.5678 15.4446C15.6719 15.6425 15.7518 15.8109 15.8074 15.9498C16.0088 16.0401 16.2101 16.1026 16.4115 16.1373C16.6129 16.172 16.8247 16.1894 17.047 16.1894C17.1233 16.1894 17.2032 16.1894 17.2865 16.1894C17.3699 16.1894 17.4567 16.1824 17.547 16.1686C17.9289 15.5366 18.3403 14.9602 18.7813 14.4394C19.2223 13.9186 19.6824 13.4637 20.1615 13.0748C20.5713 12.7415 20.9671 12.4811 21.349 12.2936C21.731 12.1061 22.0435 12.0123 22.2865 12.0123C22.5365 12.0123 22.7761 12.0592 23.0053 12.1529C23.2344 12.2467 23.4376 12.3613 23.6147 12.4967C23.7917 12.6321 23.9324 12.7745 24.0365 12.9238C24.1407 13.0731 24.1928 13.2068 24.1928 13.3248C24.1928 13.6095 24.165 13.8699 24.1095 14.1061C24.0539 14.3422 23.981 14.5557 23.8907 14.7467C23.8004 14.9377 23.698 15.1113 23.5834 15.2675C23.4688 15.4238 23.3525 15.5679 23.2345 15.6998ZM21.9115 13.3977C21.7171 13.3977 21.4723 13.4602 21.1772 13.5852C20.882 13.7102 20.5626 13.889 20.2188 14.1217C19.8751 14.3543 19.5226 14.6425 19.1615 14.9863C18.8004 15.33 18.4567 15.7206 18.1303 16.1581C18.2483 16.1581 18.3612 16.1547 18.4688 16.1477C18.5765 16.1408 18.7032 16.1304 18.849 16.1165C19.349 16.0817 19.8403 16.0071 20.323 15.8925C20.8056 15.7779 21.3247 15.613 21.8803 15.3977C22.3178 15.2311 22.6719 15.0557 22.9428 14.8717C23.2136 14.6877 23.3872 14.5331 23.4636 14.4081C23.3803 14.2901 23.2796 14.1703 23.1615 14.0488C23.0435 13.9272 22.915 13.8179 22.7761 13.7206C22.6372 13.6234 22.4931 13.5453 22.3438 13.4863C22.1945 13.4272 22.0504 13.3977 21.9115 13.3977ZM20.047 9.92897L19.3074 11.0227L18.3178 10.1894L19.047 9.11647L20.047 9.92897Z" fill="#F0F0F0"/>
</svg>
