<svg width="32" height="32" viewBox="0 0 32 32" fill="none" xmlns="http://www.w3.org/2000/svg">
<path d="M30 5.33356H2C0.895431 5.33356 0 6.22898 0 7.33355V24.6664C0 25.771 0.895431 26.6664 2 26.6664H30C31.1046 26.6664 32 25.771 32 24.6664V7.33356C32 6.22899 31.1046 5.33356 30 5.33356Z" fill="#FF4B55"/>
<path d="M30 5.33356H2C0.895431 5.33356 0 6.22899 0 7.33355V12.4445H32V7.33356C32 6.22899 31.1046 5.33356 30 5.33356Z" fill="#82AFFF"/>
<path d="M32 19.5555H0V24.6664C0 25.771 0.895431 26.6664 2 26.6664H30C31.1046 26.6664 32 25.771 32 24.6664V19.5555Z" fill="#73AF00"/>
<path d="M16.1875 18.4375C14.8413 18.4375 13.75 17.3462 13.75 16C13.75 14.6538 14.8413 13.5625 16.1875 13.5625C16.6073 13.5625 17.0022 13.6686 17.347 13.8555C16.8061 13.3265 16.0664 13 15.25 13C13.5932 13 12.25 14.3431 12.25 16C12.25 17.6569 13.5932 19 15.25 19C16.0664 19 16.8061 18.6735 17.347 18.1446C17.0022 18.3314 16.6073 18.4375 16.1875 18.4375Z" fill="#F0F0F0"/>
<path d="M18.0625 14.3125L18.3854 15.2205L19.2558 14.8067L18.842 15.6771L19.75 16L18.842 16.3229L19.2558 17.1933L18.3854 16.7795L18.0625 17.6875L17.7397 16.7795L16.8692 17.1933L17.283 16.3229L16.375 16L17.283 15.6771L16.8692 14.8067L17.7397 15.2205L18.0625 14.3125Z" fill="#F0F0F0"/>
</svg>
