<svg width="32" height="32" viewBox="0 0 32 32" fill="none" xmlns="http://www.w3.org/2000/svg">
<path d="M30 5.33339H2C0.895431 5.33339 0 6.22882 0 7.33339V24.667C0 25.7715 0.895431 26.667 2 26.667H30C31.1046 26.667 32 25.7715 32 24.6669V7.33339C32 6.22882 31.1046 5.33339 30 5.33339Z" fill="#0052B4"/>
<path d="M6.24414 5.33306H27.5775V26.6664" fill="#FFE15A"/>
<path d="M2.28516 6.2903L3.21284 5.61486L4.14203 6.28949L3.83084 5.33311H2.59541L2.28516 6.2903Z" fill="#F0F0F0"/>
<path d="M5.52083 6.47697L5.16564 5.38497L4.81114 6.47697L3.66333 6.47772L4.59252 7.15247L4.23871 8.24378L5.16639 7.56841L6.09552 8.2431L5.74027 7.15097L6.66864 6.47628L5.52083 6.47697Z" fill="#F0F0F0"/>
<path d="M7.47457 8.43061L7.11932 7.33849L6.76476 8.43061L5.61694 8.4313L6.54613 9.10599L6.19232 10.1974L7.12007 9.52192L8.04919 10.1967L7.69388 9.10455L8.62238 8.42992L7.47457 8.43061Z" fill="#F0F0F0"/>
<path d="M9.42806 10.3841L9.07287 9.29203L8.71831 10.3841L7.57056 10.3848L8.49968 11.0595L8.14587 12.1508L9.07356 11.4755L10.0027 12.1502L9.6475 11.058L10.5759 10.3834L9.42806 10.3841Z" fill="#F0F0F0"/>
<path d="M11.3815 12.3377L11.0263 11.2455L10.6718 12.3377L9.52393 12.3384L10.4531 13.013L10.0993 14.1044L11.027 13.429L11.9561 14.1037L11.6009 13.0117L12.5293 12.337L11.3815 12.3377Z" fill="#F0F0F0"/>
<path d="M13.335 14.2912L12.9799 13.1992L12.6254 14.2912L11.4775 14.2919L12.4067 14.9666L12.0529 16.058L12.9805 15.3826L13.9097 16.0572L13.5545 14.9652L14.4829 14.2905L13.335 14.2912Z" fill="#F0F0F0"/>
<path d="M15.2885 16.2447L14.9333 15.1527L14.5788 16.2447L13.4309 16.2455L14.3601 16.9202L14.0063 18.0116L14.934 17.3361L15.8631 18.0107L15.5078 16.9187L16.4363 16.2441L15.2885 16.2447Z" fill="#F0F0F0"/>
<path d="M17.242 18.1983L16.8869 17.1063L16.5323 18.1983L15.3845 18.199L16.3137 18.8737L15.9599 19.965L16.8876 19.2897L17.8167 19.9643L17.4615 18.8722L18.3898 18.1976L17.242 18.1983Z" fill="#F0F0F0"/>
<path d="M19.1957 20.1519L18.8405 19.0597L18.4859 20.1519L17.3381 20.1526L18.2673 20.8272L17.9134 21.9186L18.8412 21.2432L19.7703 21.9179L19.4151 20.8258L20.3435 20.1512L19.1957 20.1519Z" fill="#F0F0F0"/>
<path d="M21.1492 22.1054L20.7941 21.0134L20.4396 22.1054L19.2917 22.1061L20.2209 22.7808L19.8671 23.8722L20.7947 23.1967L21.7239 23.8714L21.3687 22.7794L22.2971 22.1047L21.1492 22.1054Z" fill="#F0F0F0"/>
<path d="M23.1027 24.0589L22.7475 22.9669L22.393 24.0589L21.2451 24.0597L22.1742 24.7343L21.8205 25.8257L22.7482 25.1503L23.6773 25.825L23.3221 24.7329L24.2505 24.0582L23.1027 24.0589Z" fill="#F0F0F0"/>
<path d="M24.701 24.9204L24.3465 26.0124L23.1987 26.0132L24.0984 26.6665H25.3032L26.2041 26.0117L25.0562 26.0124L24.701 24.9204Z" fill="#F0F0F0"/>
</svg>
