<svg width="32" height="32" viewBox="0 0 32 32" fill="none" xmlns="http://www.w3.org/2000/svg">
<path d="M30 5.33359H2C0.895431 5.33359 0 6.22902 0 7.33359V24.6665C0 25.771 0.895431 26.6665 2 26.6665H30C31.1046 26.6665 32 25.771 32 24.6665V7.33359C32 6.22902 31.1046 5.33359 30 5.33359Z" fill="#F0F0F0"/>
<path d="M32 16H0V24.6664C0 25.771 0.895431 26.6664 2 26.6664H30C31.1046 26.6664 32 25.771 32 24.6664V16Z" fill="#73AF00"/>
<path d="M24.3728 11.6697C24.3728 11.6697 24.7542 12.7158 24.7868 12.7703L24.8304 12.6831L25.0919 11.321L25.7675 10.057L25.5713 10.0788L24.0349 10.8198C24.0349 10.8198 23.1196 11.8223 23.1087 11.855C23.0978 11.8876 24.3728 11.6697 24.3728 11.6697Z" fill="#FF4B55"/>
<path d="M24.914 21.6728C24.8631 21.6655 24.1076 21.7019 24.1076 21.7019L23.8606 20.8738L23.719 19.3083L23.986 19.2375L24.3183 19.3955L24.4382 18.7689C24.4382 18.7689 24.1495 18.4529 24.095 18.4311C24.0405 18.4093 23.3867 18.2623 23.3867 18.2623L22.5095 17.1018L23.5556 16.5189L24.3728 15.3965L24.569 14.3831L24.4055 13.5441L24.0338 12.9218C24.0283 12.9041 24.0241 12.8903 24.0241 12.8903C24.0215 12.887 24.0123 12.8808 24.0065 12.8759L23.937 12.7595L23.9358 12.8274C23.7746 12.7267 23.4447 12.5516 23.3594 12.5089C23.2505 12.4544 22.6729 12.3563 22.553 12.4435C22.4331 12.5307 21.8775 12.7922 21.7794 12.9774C21.6813 13.1627 21.616 13.8274 21.616 13.8274C21.616 13.8274 21.7794 14.1979 21.9865 14.285C22.1935 14.3722 22.5966 14.4703 22.662 14.4484C22.7185 14.4296 23.3581 14.2406 23.5326 14.1611L23.61 14.3177L23.5773 14.7644L23.2178 15.0151L22.5531 15.2766C22.5531 15.2766 21.5397 14.9933 21.4961 15.0041C21.4526 15.015 20.1995 14.6336 20.1995 14.6336L19.0226 14.3612L19.4149 14.1651L20.4828 14.0888C20.4828 14.0888 20.6898 12.8793 20.7225 12.8575C20.7552 12.8357 21.4526 12.28 21.4526 12.28L22.0301 12.1384L21.6814 10.66L22.2045 9.04731L20.8387 9.43956L18.674 9.97713L17.2938 9.88994L16.0733 10.2822L15.2888 10.9941L14.8383 11.6043L14.6785 12.5778L14.5768 13.8709L14.199 14.5828L13.771 14.9183C13.723 14.7916 13.4981 14.3068 13.4981 14.3068L14.0429 14.1761L13.9013 13.8165L13.5199 13.5332L13.6398 13.0973L14.0756 13.3371L14.1955 13.4243L14.2718 12.9775L13.7923 12.3019L13.8686 11.9641L14.4461 12.2693L14.3807 11.4847L13.8686 11.1687L13.9013 10.7328L14.4606 10.8999L14.4025 10.4858L13.7923 10.0426L14.388 9.08375L13.6615 9.12013L13.6034 8.80769L13.4146 8.735C13.4146 8.735 12.4048 9.16363 12.3321 9.14906C12.2595 9.13456 11.4532 9.02563 11.3587 9.04744C11.2643 9.06925 10.9301 9.15638 10.9301 9.15638L10.8356 9.52688L10.2181 9.42525L9.30283 9.349L9.02677 9.68681L9.46264 9.86119C9.46264 9.86119 9.36102 10.6312 9.39002 10.6893C9.41908 10.7474 9.68058 11.1252 9.68058 11.1252L9.08495 11.9388L9.69514 12.0259L10.5378 11.8952L10.5087 12.0986L11.6275 11.9824L11.3804 12.1131L11.0608 13.072L10.131 14.9608L9.80408 16.6388L9.28102 16.094L8.93233 14.6556L8.40927 13.2391C8.40927 13.2391 8.30033 12.8032 8.23489 12.7923C8.16952 12.7814 7.8862 12.7269 7.8862 12.7269L7.52664 13.0211L7.06902 12.9558L6.80752 13.3153L7.1017 13.7729C7.1017 13.7729 6.61133 13.9691 6.61133 14.0236C6.61133 14.0781 6.64402 14.3941 6.6767 14.4049C6.70939 14.4158 7.45033 14.3941 7.45033 14.3941L7.89708 15.1895L7.54839 16.1048L7.72277 16.4535L8.02789 16.4971L8.3112 16.1702L9.29189 19.1014C9.29189 19.1014 9.21564 19.4828 9.16114 19.5154C9.10664 19.5481 8.84514 19.8423 8.91052 19.8423C8.97589 19.8423 9.37908 19.8968 9.42264 19.875C9.4662 19.8532 10.0328 19.4174 10.0328 19.4174C10.0328 19.4174 10.9263 18.7309 10.9808 18.7854C11.0353 18.8399 11.8853 19.3629 11.8853 19.3629L11.493 20.7141L10.5668 22.0653L9.98933 21.7166L9.57527 21.1281L9.27014 21.2262L9.1612 21.4114L9.20477 21.8037C9.20477 21.8037 8.88877 22.0543 8.88877 22.1088C8.88877 22.1633 8.92145 22.5556 8.92145 22.5556C8.92145 22.5556 9.12852 22.6536 9.13939 22.7081C9.15027 22.7626 9.25927 23.1549 9.25927 23.1549L9.4772 23.2311L9.89127 22.9805H10.5778L11.0027 23.0459L11.9071 22.7626L13.2256 22.828L13.1058 22.5773C13.1058 22.5773 12.5718 22.3049 12.3866 22.2505C12.2013 22.196 12.0161 22.1524 12.0161 22.1524L11.9398 21.771L13.2365 20.2346L13.716 20.1365L13.8794 20.5397C13.8794 20.5397 14.417 20.4089 14.417 20.3653C14.417 20.3218 14.417 19.8568 14.417 19.8132C14.417 19.7696 14.3007 19.4064 14.3007 19.4064C14.3007 19.4064 14.2991 19.3931 14.2968 19.3731L14.7075 19.3047L16.1313 18.6219L16.6326 19.2248L17.2573 19.5226L16.48 20.9174L15.8117 21.3678L15.3323 21.1499L14.6639 20.6559L14.4024 20.8158L14.4605 21.3098L14.0683 21.2807L13.8939 21.6294L14.1845 22.0507L14.0827 22.3849C14.0827 22.3849 14.1554 22.69 14.228 22.69C14.3006 22.69 14.7365 22.5301 14.7365 22.5301L16.0151 22.4285L16.945 22.1234L17.9184 22.1961C17.9184 22.1961 18.1073 21.5423 18.0637 21.5423C18.0201 21.5423 18.0056 21.5277 17.8893 21.5277C17.7731 21.5277 17.3663 21.5423 17.3663 21.5423L17.3516 21.3968L17.6713 20.8156L18.9062 19.784L19.2695 19.8567L19.4002 20.0455L19.7635 19.7695L19.7489 19.3046L19.4293 18.9704L19.1096 18.5926L19.2114 18.026L19.7635 18.2875C19.7635 18.2875 20.6352 18.8977 20.7078 18.9268C20.7805 18.9559 22.4658 19.3917 22.4658 19.3917L22.8145 20.2198L22.6401 21.5274L22.1025 21.3676L21.594 20.7138C21.594 20.7138 21.4487 20.6411 21.3761 20.6556C21.3035 20.6702 21.1291 20.9608 21.1291 20.9608L21.3035 21.3676L21.071 21.4402L20.8531 21.5855L20.8095 21.8906L21.0129 22.0795C21.0129 22.0795 21.0129 22.4281 21.0129 22.4717C21.0129 22.5153 21.1291 22.6751 21.1728 22.6896C21.2163 22.7041 21.5505 22.7477 21.6304 22.7405C21.7103 22.7332 22.306 22.4863 22.306 22.4863C22.306 22.4863 23.4246 22.5081 23.4538 22.5008C23.4829 22.4935 24.449 22.2829 24.449 22.2829L24.9938 22.3701C24.9938 22.3701 25.3571 22.094 25.3425 22.0576C25.328 22.0215 24.9648 21.6801 24.914 21.6728ZM22.8254 13.8054C22.5312 13.8381 22.3786 13.9253 22.3568 13.7619C22.335 13.5984 22.335 13.2715 22.3677 13.2606C22.4004 13.2498 22.7382 13.0536 22.7491 13.0863C22.76 13.1189 23.0978 13.2824 23.0978 13.2824L23.3035 13.6982C23.195 13.7559 23.0275 13.7829 22.8254 13.8054Z" fill="#FF4B55"/>
<path d="M7.97326 11.1358C7.97326 11.1358 8.09313 10.5147 8.12582 10.5147C8.15851 10.5147 8.60526 10.3513 8.60526 10.3513L7.27588 9.49045C7.27588 9.49045 7.50469 10.5474 7.52651 10.6346C7.54826 10.7217 7.97326 11.1358 7.97326 11.1358Z" fill="#FF4B55"/>
<path d="M11.3547 9.8575C11.3593 9.85856 11.3858 9.86444 11.4263 9.87244L11.4163 9.916C11.4 9.98612 11.4439 10.0566 11.5144 10.0726C11.5243 10.0751 11.5341 10.076 11.5438 10.076C11.6033 10.076 11.6572 10.0351 11.671 9.97456L11.685 9.91369C11.7792 9.92531 11.8829 9.93437 11.9831 9.93437C12.0677 9.93437 12.1495 9.92825 12.2198 9.91187C12.2901 9.8955 12.334 9.82537 12.3177 9.75525C12.3013 9.68475 12.2317 9.63981 12.1609 9.65718C11.954 9.70587 11.5507 9.634 11.4131 9.60268C11.3441 9.58631 11.2728 9.63025 11.2565 9.70075C11.2405 9.77131 11.2844 9.8415 11.3547 9.8575Z" fill="#464655"/>
<path d="M24.3003 11.9685L24.6298 12.9746C24.6475 13.0284 24.6977 13.0646 24.754 13.0646C24.7559 13.0646 24.7578 13.0646 24.7598 13.0646C24.8184 13.0618 24.8681 13.0206 24.8814 12.9634C25.1225 11.9303 25.6049 10.2961 25.946 10.0292C25.9935 9.99206 26.0093 9.92775 25.9846 9.87256C25.9601 9.81806 25.9018 9.78675 25.8418 9.79768C25.772 9.81062 24.1179 10.1328 22.9671 11.8589C22.9377 11.9031 22.9378 11.9607 22.9675 12.0046C22.9973 12.0486 23.0504 12.069 23.1026 12.0594L24.0608 11.8613C23.9266 12.1848 23.8411 12.4694 23.8114 12.574C23.3751 12.3084 22.8829 12.2612 22.5416 12.3496C22.1521 12.4517 21.8247 12.7 21.6431 13.0309C21.504 13.2846 21.4673 13.5631 21.5422 13.7951C21.6293 14.0644 21.8614 14.3995 22.2526 14.5312C22.5117 14.6192 22.9304 14.6387 23.4824 14.2971C23.4824 14.2997 23.4828 14.3022 23.4828 14.3047C23.479 14.5227 23.3672 14.7004 23.1499 14.8336C22.7181 15.0981 21.9611 15.1158 21.4627 14.8721C20.8055 14.5512 19.8174 14.3686 19.2654 14.2858C19.6077 14.1767 20.0215 14.1459 20.5188 14.2599C20.5255 14.2616 20.5321 14.2589 20.5388 14.2594C20.5421 14.2597 20.5447 14.2633 20.5481 14.2633C20.5517 14.2633 20.5545 14.2594 20.5581 14.2592C20.5882 14.2567 20.6173 14.2476 20.6394 14.2262C20.6398 14.2259 20.6398 14.2254 20.6401 14.2251C20.6402 14.2249 20.6404 14.225 20.6404 14.225C20.6411 14.2244 20.6409 14.2235 20.6413 14.223C20.6624 14.2011 20.6718 14.1729 20.6744 14.1434C20.675 14.1363 20.6758 14.1309 20.6753 14.1239C20.6749 14.1179 20.6774 14.1123 20.6761 14.1064C20.6746 14.0989 20.5297 13.3566 20.9286 12.8451C21.1684 12.5376 21.5605 12.3697 22.0941 12.3456C22.1025 12.3452 22.1094 12.3404 22.1174 12.3384C22.129 12.3357 22.1405 12.334 22.1509 12.3282C22.1604 12.3229 22.1671 12.3147 22.1751 12.3071C22.1817 12.3009 22.1899 12.2972 22.1953 12.2894C22.1964 12.2878 22.1965 12.2858 22.1975 12.2841C22.1984 12.2826 22.2001 12.282 22.201 12.2805C22.2034 12.2764 22.2029 12.2717 22.2048 12.2674C22.2106 12.2544 22.2148 12.2412 22.2161 12.2274C22.2168 12.2208 22.2168 12.2147 22.2164 12.2081C22.2156 12.1934 22.2123 12.1795 22.2066 12.1659C22.2053 12.1624 22.2059 12.1586 22.2042 12.1552C22.1936 12.1345 21.1676 10.0828 22.8393 8.71287C22.8936 8.66825 22.9029 8.58862 22.8606 8.53275C22.818 8.47725 22.7392 8.46431 22.6813 8.50481C21.0308 9.66356 18.7496 9.78856 17.8455 9.78856C16.2329 9.78856 15.2141 10.3957 14.7306 11.6444C14.6804 11.7742 14.6448 11.9281 14.615 12.0928C14.6311 11.8617 14.5889 11.6592 14.4846 11.4899C14.3358 11.2484 14.1082 11.1472 14.0059 11.1121C14.0059 11.0529 14.0054 10.9942 14.0038 10.9366C14.1804 10.9094 14.39 11.0466 14.4591 11.1047C14.4833 11.1252 14.5135 11.1361 14.5439 11.1361C14.5639 11.1361 14.5843 11.1313 14.6028 11.1218C14.6497 11.0979 14.678 11.0486 14.6743 10.9962C14.6315 10.3881 14.219 10.0926 13.936 9.99262C14.1855 9.79437 14.4514 9.46993 14.6144 8.94081C14.63 8.88969 14.6132 8.83425 14.5716 8.80087C14.5301 8.76712 14.4722 8.76206 14.4259 8.78794C14.4214 8.79044 14.1553 8.93456 13.7551 9.05337L13.7917 8.57819C13.7953 8.53019 13.7723 8.48381 13.7314 8.458C13.6908 8.43181 13.6387 8.43075 13.5969 8.45462C13.5902 8.45837 12.9207 8.83412 12.2379 9.0325C11.7225 8.90293 11.0518 8.80206 10.7974 9.06694C10.7361 9.13056 10.6791 9.23412 10.6933 9.3945C10.2545 9.30294 9.24725 9.15306 8.63582 9.54843C8.58763 9.57937 8.56544 9.63831 8.581 9.6935C8.59663 9.74868 8.64638 9.7875 8.70375 9.78887C8.89782 9.79362 9.19782 9.83825 9.323 9.921C9.26782 10.0698 9.17657 10.3851 9.25625 10.6892C8.99088 10.7661 8.71244 10.7779 8.37382 10.5947L8.669 10.5223C8.72194 10.5094 8.76125 10.4648 8.76775 10.4106C8.774 10.3564 8.74613 10.304 8.69775 10.2791C8.69025 10.2751 7.94588 9.88787 7.32682 9.23712C7.29169 9.20068 7.23844 9.18737 7.18957 9.20375C7.14119 9.22044 7.107 9.26368 7.10207 9.31443C7.09675 9.36687 6.98582 10.6039 7.92525 11.3375C7.94875 11.3556 7.97719 11.3651 8.00582 11.3651C8.02369 11.3651 8.04157 11.3613 8.05857 11.3538C8.1025 11.3344 8.13244 11.2925 8.13619 11.2445L8.17263 10.7772C8.64132 11.0578 9.02938 11.031 9.36225 10.9298C9.404 10.9934 9.45707 11.0541 9.524 11.1096C9.53475 11.1186 9.5495 11.1282 9.56444 11.1381C9.3505 11.6389 8.92569 11.768 8.9075 11.773C8.85457 11.7883 8.81663 11.835 8.81282 11.8898C8.80888 11.9446 8.83957 11.996 8.88975 12.0185C8.92138 12.0324 9.60569 12.3284 10.3727 12.0552L10.3606 12.1427C10.3555 12.1795 10.3664 12.2169 10.3908 12.2452C10.4149 12.2739 10.4502 12.2906 10.4874 12.2912C10.4907 12.2912 10.4994 12.2916 10.5129 12.2916C10.601 12.2916 10.8931 12.2849 11.2243 12.2089C11.1743 12.6767 10.8892 13.2343 10.5859 13.8226C10.1754 14.6196 9.71794 15.5184 9.72525 16.426C9.56863 16.2232 9.37363 15.9071 9.27719 15.4874C9.24382 15.3417 9.22169 15.2109 9.20163 15.0914C9.15275 14.8023 9.1105 14.5524 8.93963 14.3174C8.74638 14.0519 8.47313 13.4589 8.485 13.1352C8.49625 12.8359 8.30013 12.6598 8.10088 12.6179C8.0865 12.615 8.07294 12.6187 8.05869 12.617C8.0115 12.5219 7.88375 12.3399 7.59013 12.3189C7.51944 12.3094 7.45544 12.368 7.45032 12.4402C7.44519 12.5121 7.49938 12.5747 7.57138 12.5797C7.67382 12.587 7.73732 12.6261 7.77632 12.6651C7.68038 12.7144 7.60275 12.7967 7.54869 12.902C7.37363 12.8011 7.19675 12.7759 7.06144 12.8068C7.02638 12.8147 6.99994 12.8337 6.96963 12.848C6.88107 12.8018 6.64519 12.7139 6.36094 12.8946C6.3 12.9331 6.28188 13.0141 6.32075 13.0751C6.34557 13.1143 6.388 13.1357 6.43125 13.1357C6.45513 13.1357 6.47944 13.1292 6.50125 13.1153C6.60275 13.0509 6.68944 13.0424 6.75307 13.0506C6.70644 13.1369 6.68 13.2321 6.6845 13.3207C6.69357 13.4967 6.79532 13.6333 6.95263 13.6912C6.765 13.7269 6.606 13.8141 6.52107 13.9319C6.50732 13.9511 6.5045 13.9728 6.49463 13.993C6.37513 14.0054 6.19132 14.0857 6.07513 14.3314C6.04419 14.3965 6.07207 14.4745 6.13725 14.5054C6.15544 14.5139 6.17438 14.5181 6.19313 14.5181C6.24219 14.5181 6.28913 14.4905 6.3115 14.4432C6.36332 14.3338 6.42419 14.2905 6.46969 14.2707C6.59388 14.6803 6.99769 14.5871 7.24125 14.53L7.33882 14.5079C7.47538 14.4806 7.71613 14.8794 7.78082 15.1381C7.82575 15.3179 7.74882 15.5379 7.50632 15.9227C7.35907 16.1569 7.40144 16.3266 7.46307 16.4276C7.46432 16.4297 7.46632 16.4308 7.46757 16.4327C7.42844 16.4445 7.38025 16.4529 7.31513 16.4443C7.24475 16.4301 7.17757 16.4845 7.16788 16.5561C7.15813 16.6276 7.20825 16.6936 7.27975 16.7032C7.31313 16.7079 7.34463 16.71 7.37444 16.71C7.5265 16.71 7.62782 16.6581 7.68869 16.6156C7.77375 16.6519 7.86125 16.6656 7.92594 16.6606C8.10619 16.6457 8.22838 16.4877 8.31088 16.2915C8.55144 17.6179 9.10425 18.8495 9.20032 19.0572C9.18094 19.5272 8.67369 19.6375 8.65175 19.6423C8.59538 19.6539 8.55319 19.7009 8.54788 19.7584C8.54257 19.8156 8.57513 19.8695 8.62825 19.8912C8.84894 19.9814 9.042 20.0176 9.20969 20.0176C9.72694 20.0176 10.0004 19.6764 10.0865 19.545C10.4685 19.4119 10.9163 19.1004 11.0911 18.973C11.3826 19.1914 11.6249 19.3125 11.7059 19.3504C11.5651 20.7369 10.7521 21.6734 10.5143 21.919C10.3533 21.8268 9.99757 21.599 9.88013 21.3275C9.769 21.071 9.56294 20.9988 9.39488 21.0138C9.33844 20.9409 9.21175 20.8049 9.03413 20.7854C8.94682 20.7762 8.81432 20.7922 8.67963 20.927C8.6285 20.9781 8.6285 21.0608 8.67963 21.1119C8.7305 21.163 8.81325 21.1633 8.8645 21.1122C8.93838 21.0384 8.98863 21.0428 9.005 21.0451C9.05538 21.0505 9.10407 21.0869 9.1425 21.1244C9.04719 21.2057 8.98813 21.3194 8.99769 21.4435C9.00444 21.5307 9.03713 21.6127 9.08319 21.6889C8.98794 21.7385 8.87319 21.8198 8.79763 21.9484C8.79494 21.953 8.79182 21.9604 8.789 21.9655C8.63288 21.9754 8.35188 22.0856 8.30813 22.4494C8.29963 22.5212 8.35069 22.5862 8.42238 22.5947C8.42782 22.5954 8.43294 22.5958 8.43825 22.5958C8.5035 22.5958 8.56 22.5471 8.568 22.4807C8.58363 22.3504 8.64669 22.2877 8.70588 22.2564C8.70438 22.31 8.70882 22.3659 8.72807 22.4242C8.77325 22.5614 8.87988 22.6727 9.03913 22.7593C9.02232 22.8129 9.01132 22.87 9.00988 22.9319C8.92582 22.9743 8.80182 23.0534 8.73832 23.188C8.69082 23.2885 8.68788 23.4008 8.72963 23.5132C8.74919 23.5659 8.79907 23.5983 8.85225 23.5983C8.86744 23.5983 8.88288 23.5955 8.89788 23.5902C8.96569 23.565 9 23.4897 8.97482 23.422C8.952 23.361 8.96375 23.3232 8.97469 23.3C8.994 23.2589 9.03244 23.2242 9.07163 23.1974C9.12013 23.2844 9.19338 23.3507 9.29138 23.3831C9.33613 23.3977 9.38263 23.4049 9.42932 23.4049C9.58488 23.4049 9.74263 23.3262 9.84375 23.1894C9.96482 23.0253 10.2016 23.1193 10.217 23.1258C10.7121 23.3056 11.3811 23.17 11.7859 22.9426C12.0105 22.8162 12.8018 22.8844 13.2479 22.9575C13.2828 22.9623 13.3199 22.9538 13.3488 22.9324C13.3774 22.9102 13.3956 22.8775 13.3992 22.8415C13.4443 22.39 12.8601 22.2701 12.3908 22.1737C12.2629 22.1475 12.1412 22.1226 12.0264 22.0736C11.9806 21.8087 12.6689 20.8444 13.3248 20.3622C13.4856 20.244 13.6149 20.1967 13.6798 20.2314C13.7724 20.2822 13.8018 20.5185 13.7924 20.6622C13.7922 20.666 13.7944 20.6692 13.7944 20.673C13.7946 20.6872 13.7973 20.701 13.8023 20.7148C13.8044 20.7207 13.806 20.7261 13.8089 20.7315C13.8107 20.735 13.8109 20.7389 13.813 20.7422C13.8205 20.7537 13.8306 20.7621 13.8408 20.7704C13.8428 20.772 13.8434 20.7747 13.8456 20.7762C13.8461 20.7766 13.8467 20.7765 13.8467 20.7765C13.8636 20.7885 13.8823 20.7957 13.9019 20.7989C13.907 20.7997 13.9118 20.799 13.9168 20.7992C13.9314 20.7999 13.9456 20.7984 13.9599 20.794C13.9633 20.7931 13.9669 20.7941 13.9702 20.7929C13.9808 20.7887 13.9923 20.7829 14.0031 20.7784C14.0729 20.7427 14.1911 20.7825 14.2738 20.8249C14.2584 20.8726 14.2491 20.9224 14.2535 20.9764C14.2589 21.0438 14.2799 21.1109 14.3126 21.1752C14.1831 21.1606 14.0619 21.1752 13.9741 21.2427C13.9428 21.2667 13.9181 21.2969 13.8932 21.3268C13.7091 21.345 13.4789 21.461 13.4243 21.735C13.4101 21.8059 13.4559 21.8746 13.5268 21.889C13.5354 21.8907 13.5441 21.8914 13.5526 21.8914C13.6136 21.8914 13.6682 21.8485 13.6807 21.7862C13.6938 21.7207 13.7273 21.6811 13.7642 21.6513C13.7631 21.699 13.7682 21.7464 13.7823 21.7909C13.8079 21.8718 13.877 21.9924 14.0528 22.0599C14.0369 22.0867 14.0233 22.1154 14.0113 22.1446C13.8804 22.1867 13.6833 22.3224 13.6833 22.6105C13.6833 22.6827 13.7418 22.7412 13.814 22.7412C13.8862 22.7412 13.9448 22.6827 13.9448 22.6105C13.9448 22.5596 13.9574 22.5227 13.974 22.4921C13.9782 22.511 13.9813 22.5304 13.988 22.5481C14.0196 22.6309 14.1148 22.7861 14.3814 22.7861C14.4693 22.7861 14.5755 22.7694 14.7043 22.7275C15.0163 22.6264 15.2375 22.6158 15.4514 22.6053C15.7071 22.593 15.9487 22.5811 16.2881 22.4238C16.777 22.1967 17.3827 22.2737 17.7 22.34C17.8719 22.3754 18.0402 22.2909 18.1094 22.1333C18.1333 22.0795 18.1488 22.0325 18.1653 21.9847C18.3132 22.0024 18.3438 22.1462 18.3478 22.1779C18.3551 22.2446 18.4117 22.2944 18.4776 22.2944C18.482 22.2944 18.4866 22.294 18.4911 22.2937C18.563 22.2862 18.6153 22.2218 18.6078 22.1499C18.5936 22.0133 18.4924 21.7682 18.2214 21.7255C18.2249 21.6328 18.2068 21.5564 18.1614 21.5002C18.1116 21.4389 18.0128 21.3745 17.8189 21.4144C17.6184 21.4559 17.5261 21.4641 17.4845 21.4604C17.4908 21.4349 17.5056 21.3895 17.5401 21.3122C17.6569 21.0494 18.4325 20.3561 18.9403 19.941C19.0628 19.9134 19.2181 19.9117 19.2539 19.9525C19.2665 19.9665 19.2665 20.0146 19.2379 20.0905C19.2174 20.1443 19.2346 20.2049 19.2799 20.24C19.3251 20.2751 19.3881 20.2767 19.4351 20.2441C19.4553 20.2298 19.9297 19.8929 19.9202 19.4827C19.9153 19.2753 19.7944 19.0952 19.5608 18.9474C19.3628 18.8224 19.249 18.6776 19.2225 18.5176C19.1948 18.3502 19.2661 18.2017 19.3138 18.1226C19.5011 18.2124 19.6891 18.3284 19.8763 18.4832C20.9805 19.3962 21.9202 19.5416 22.4278 19.5392C22.5343 19.7745 22.8469 20.5771 22.58 21.4014C22.438 21.3762 22.1591 21.2856 21.9678 20.9666C21.7817 20.6567 21.5584 20.5791 21.4037 20.5689C21.1631 20.5501 20.9079 20.687 20.7073 20.9376C20.6644 20.9914 20.6704 21.069 20.7208 21.1154C20.7713 21.162 20.8494 21.1617 20.899 21.1147C20.9324 21.083 20.9945 21.0445 21.0213 21.0653L21.0484 21.1409C21.0629 21.1827 21.0777 21.225 21.0953 21.2658C20.9913 21.2811 20.8912 21.3237 20.8131 21.4122C20.7616 21.4706 20.7291 21.538 20.7057 21.6074C20.4662 21.6502 20.3357 21.8319 20.3302 21.8402C20.2903 21.8998 20.3066 21.9798 20.3658 22.02C20.388 22.0354 20.4136 22.0429 20.4388 22.0429C20.4806 22.0429 20.5216 22.0231 20.5471 21.9863C20.5496 21.9829 20.5979 21.9174 20.6843 21.8807C20.6951 21.93 20.7128 21.9776 20.7396 22.021C20.7848 22.0937 20.8488 22.1424 20.9215 22.1684C20.9117 22.2062 20.9033 22.2474 20.8979 22.2918C20.8951 22.2927 20.8923 22.2923 20.8894 22.2934C20.5763 22.4252 20.6402 22.8143 20.7176 23.0016C20.7386 23.052 20.7871 23.0823 20.8383 23.0823C20.855 23.0823 20.8718 23.0789 20.8881 23.0724C20.9548 23.0449 20.9866 22.9685 20.9594 22.9018C20.9584 22.8993 20.8849 22.7071 20.9322 22.5977C20.9334 22.6006 20.9338 22.6037 20.935 22.6066C20.9891 22.7289 21.0935 22.816 21.2368 22.859C21.3073 22.8801 21.3747 22.889 21.4392 22.889C21.6532 22.889 21.8348 22.7899 21.9878 22.7062C22.1068 22.6411 22.2193 22.5815 22.308 22.5877C22.3726 22.5938 22.4464 22.6054 22.5274 22.6179C22.8333 22.6656 23.2524 22.7303 23.6683 22.5965C23.7458 22.5717 23.8159 22.5474 23.8801 22.5253C24.2181 22.4095 24.3444 22.3662 24.5509 22.4838C24.8011 22.6269 25.1235 22.5307 25.2897 22.3555C25.3418 22.3005 25.3718 22.2393 25.3879 22.1772C25.4732 22.2112 25.5423 22.2479 25.5534 22.2684C25.529 22.3365 25.5644 22.411 25.6326 22.4355C25.6471 22.4407 25.6619 22.443 25.6765 22.443C25.7302 22.443 25.7805 22.4097 25.7996 22.3562C25.8242 22.2878 25.8182 22.2173 25.7828 22.1526C25.6964 21.9952 25.4434 21.9107 25.3167 21.8772C25.1074 21.5929 24.7884 21.5043 24.2614 21.5877C24.2404 21.5907 24.2241 21.587 24.2061 21.572C24.0136 21.4165 23.9713 20.608 23.9461 20.1255C23.9258 19.7394 23.912 19.5153 23.8528 19.4077C23.883 19.3829 24.0486 19.3797 24.1517 19.455C24.2014 19.4917 24.2063 19.5248 24.1944 19.5622C24.1924 19.5677 24.1905 19.5728 24.1886 19.5779C24.1631 19.6446 24.1961 19.7199 24.2627 19.746C24.3293 19.7715 24.4047 19.7402 24.4318 19.6739C24.4357 19.6647 24.4391 19.6551 24.4422 19.6459C24.4888 19.5134 24.6798 18.9134 24.4548 18.5334C24.3537 18.3628 24.189 18.261 23.9652 18.2307C23.3948 18.1539 22.9601 17.7894 22.6679 17.1543C23.1107 16.9987 24.4144 16.4078 24.6581 14.7768C24.8201 13.6926 24.4315 13.0854 24.0769 12.7671C24.0599 12.7518 24.0416 12.7402 24.0243 12.7259C24.0345 12.7126 24.0476 12.7016 24.0522 12.6844C24.0538 12.6786 24.1434 12.3487 24.3003 11.9685ZM23.377 11.7354C24.1223 10.7656 25.0362 10.3339 25.5304 10.1595C25.2063 10.7435 24.8974 11.8359 24.7364 12.4597L24.4643 11.6288C24.4633 11.6256 24.4599 11.6242 24.4587 11.6211C24.5384 11.4637 24.6281 11.3113 24.727 11.1827C24.7709 11.1255 24.7602 11.0434 24.703 10.9995C24.6456 10.9552 24.5638 10.9661 24.5196 11.0234C24.3962 11.1839 24.2874 11.3742 24.1936 11.5665L23.377 11.7354ZM7.89632 10.9577C7.4935 10.531 7.38857 9.97731 7.36457 9.64093C7.70919 9.96031 8.05682 10.1994 8.29125 10.3451L8.08288 10.3963C8.04307 10.3644 8.004 10.3349 7.96238 10.2975C7.90907 10.2495 7.8265 10.2542 7.77782 10.3074C7.72944 10.3612 7.73388 10.4439 7.78769 10.4922C7.83438 10.5342 7.87875 10.5664 7.92388 10.6024L7.89632 10.9577ZM17.7596 15.2711C17.5152 14.6189 16.7776 13.0577 14.9708 11.7514C14.9722 11.7476 14.9731 11.7426 14.9746 11.7389C14.9978 11.679 15.028 11.6274 15.0539 11.5708C17.7897 12.2699 19.4548 13.4072 20.1199 13.9367C18.7609 13.8366 18.0421 14.7726 17.7596 15.2711ZM20.7211 12.6855C20.4323 13.0567 20.3819 13.5089 20.3876 13.8142C19.7877 13.3121 18.1015 12.0897 15.1689 11.3313C15.2068 11.2655 15.2523 11.2082 15.2947 11.1476C15.3041 11.1497 15.3133 11.1531 15.3233 11.1537C18.9314 10.9987 20.9444 11.7735 21.6817 12.1386C21.268 12.2225 20.9421 12.4014 20.7211 12.6855ZM17.8456 10.0499C18.6431 10.0499 20.4843 9.95425 22.0723 9.16725C21.3907 10.1939 21.6357 11.3464 21.8283 11.9157C21.097 11.5412 19.1165 10.7632 15.5042 10.8877C16.0253 10.3296 16.7958 10.0499 17.8456 10.0499ZM14.7788 12.836C14.8113 12.5404 14.8438 12.2593 14.8951 12.0225C16.6316 13.3097 17.331 14.8657 17.5379 15.4299C17.1114 15.3343 16.7251 15.3653 16.3921 15.537C16.1196 15.6777 15.9294 15.8844 15.7991 16.0737C15.7411 15.4157 15.5238 14.2416 14.7304 13.3171C14.7278 13.3142 14.7243 13.3129 14.7215 13.3102C14.7428 13.1512 14.7616 12.9918 14.7788 12.836ZM14.6136 16.8279C14.0059 16.6863 13.7507 16.074 13.7389 16.0451C13.7229 16.0056 13.6888 15.976 13.6471 15.9664C13.6373 15.9644 13.6274 15.9631 13.6175 15.9631C13.5856 15.9631 13.5546 15.975 13.5302 15.9968C13.0936 16.3894 12.5596 16.4929 12.2929 16.5202C12.5036 15.8582 13.0963 15.5143 13.8936 15.0515L13.9304 15.0301C14.1291 14.9147 14.2725 14.7396 14.3846 14.5336C14.3845 14.8626 14.4021 15.2292 14.4626 15.5377C14.4748 15.6001 14.5294 15.6433 14.5908 15.6433C14.5991 15.6433 14.6076 15.6426 14.6161 15.6409C14.6869 15.6269 14.7331 15.5581 14.7193 15.4873C14.5885 14.82 14.6713 13.8162 14.6833 13.6811C15.4438 14.7076 15.5445 16.0031 15.5559 16.4256C15.1098 16.3484 14.8612 16.0017 14.8586 15.9982C14.8342 15.9627 14.7942 15.9416 14.7514 15.9416H14.7509C14.7084 15.9416 14.6685 15.9621 14.6441 15.9968C14.4508 16.2705 14.5263 16.6079 14.6136 16.8279ZM14.1504 13.2504C14.0491 13.1257 13.9129 12.9886 13.7779 12.9283C13.8084 12.8065 13.837 12.6769 13.863 12.5407C14.0029 12.6556 14.2147 12.8923 14.1504 13.2504ZM13.5614 13.7178C13.6006 13.7236 13.8389 13.7696 13.9379 14.0756C13.827 14.0564 13.6965 14.0665 13.5648 14.1374C13.5438 14.0148 13.5396 13.8749 13.5614 13.7178ZM14.0284 14.3884C14.0662 14.4175 14.1164 14.4211 14.1594 14.4024C14.0836 14.5432 13.9883 14.6597 13.8709 14.7472C13.8069 14.6825 13.7126 14.5667 13.6415 14.3991C13.8353 14.258 14.009 14.3744 14.0284 14.3884ZM14.4791 12.4607C14.5247 12.449 14.56 12.4128 14.5719 12.3671C14.5528 12.5094 14.5354 12.6557 14.5187 12.8074C14.4639 13.3046 14.4042 13.843 14.2348 14.2517C14.1867 13.7022 13.8281 13.5 13.6181 13.4635C13.6293 13.4256 13.6394 13.3882 13.6536 13.3486C13.6722 13.297 13.6905 13.2414 13.7084 13.1828C13.8279 13.2582 13.9931 13.4622 14.0856 13.6043C14.11 13.6417 14.1511 13.6639 14.1953 13.6639C14.1983 13.6639 14.2014 13.6639 14.2044 13.6635C14.2519 13.6601 14.2938 13.6311 14.3138 13.5882C14.6267 12.9151 14.2054 12.4351 13.9122 12.2541C13.9196 12.2061 13.9269 12.1582 13.9336 12.1096C14.1036 12.1894 14.285 12.3539 14.3504 12.4237C14.3754 12.4506 14.4102 12.4652 14.4459 12.4652C14.4569 12.4652 14.468 12.4638 14.4791 12.4607ZM14.262 11.6268C14.3366 11.7481 14.3679 11.8972 14.356 12.0722C14.2498 11.9841 14.1096 11.8888 13.966 11.8381C13.9814 11.6894 13.9931 11.5402 13.9998 11.393C14.0791 11.4326 14.1861 11.5037 14.262 11.6268ZM14.3564 10.7384C14.2491 10.6915 14.1199 10.6597 13.9874 10.6742C13.9741 10.5287 13.9528 10.3934 13.9232 10.2709C14.0607 10.3355 14.2582 10.4706 14.3564 10.7384ZM13.5127 8.79475L13.4875 9.12212C13.2846 9.16731 13.0615 9.20125 12.825 9.20675C12.7896 9.1945 12.7402 9.17794 12.6828 9.15944C13.0194 9.03494 13.3217 8.89187 13.5127 8.79475ZM9.69157 10.9083C9.66469 10.8858 9.641 10.8619 9.62038 10.8371C9.64613 10.8269 9.67163 10.8167 9.69663 10.8069C9.87813 10.734 10.0494 10.6652 10.2142 10.6561C10.5846 10.6332 10.6926 10.7796 10.7168 10.8246C10.7415 10.8706 10.7376 10.9111 10.7229 10.9312C10.6613 11.015 10.5625 11.0653 10.4292 11.0817C10.1247 11.1164 9.76219 10.9672 9.69157 10.9083ZM10.6103 11.7379C10.5708 11.7092 10.5187 11.7048 10.4756 11.7273C10.0269 11.9514 9.5805 11.9231 9.297 11.8666C9.46719 11.7506 9.66682 11.556 9.80025 11.2488C9.95313 11.3042 10.1431 11.3489 10.3309 11.3489C10.3745 11.3489 10.418 11.3462 10.4607 11.3411C10.6653 11.3162 10.8288 11.228 10.9335 11.0864C11.0123 10.9791 11.0174 10.831 10.9468 10.7002C10.892 10.5988 10.7096 10.3649 10.1999 10.3951C9.99207 10.4064 9.7925 10.4864 9.59944 10.564C9.5685 10.5762 9.53744 10.5888 9.50669 10.6007C9.43657 10.2912 9.59319 9.95 9.59538 9.94556C9.61475 9.90406 9.61125 9.85537 9.58588 9.81718C9.51319 9.70787 9.36844 9.63981 9.21625 9.59718C9.92113 9.44975 10.8261 9.69318 10.8371 9.69631C10.8855 9.70893 10.9363 9.69493 10.9693 9.6575C11.0023 9.62075 11.0117 9.56825 10.9934 9.522C10.9408 9.3895 10.9385 9.29725 10.9863 9.2475C11.1896 9.03569 12.1466 9.24506 12.7607 9.461C12.7753 9.46612 12.7916 9.46475 12.8061 9.4685C13.4113 9.459 13.9401 9.28593 14.2532 9.15656C13.8998 9.92406 13.2986 10.032 13.2703 10.0368C13.1994 10.0481 13.1508 10.1144 13.1617 10.1856C13.1726 10.2571 13.2395 10.3072 13.3109 10.2952C13.3247 10.2931 13.4524 10.2708 13.6264 10.1871C13.8854 10.9035 13.6826 12.496 13.4076 13.2598C13.0998 14.1149 13.4412 14.6579 13.6502 14.8909C12.8243 15.3714 12.1787 15.7797 11.9979 16.6184C11.9977 16.6191 11.9971 16.6197 11.9968 16.6204C11.9924 16.6341 11.9483 16.7811 11.8973 17.0432C11.5772 16.8305 10.9808 15.9574 11.3018 14.9341C11.3893 14.6549 11.4922 14.3817 11.5916 14.1176C11.8871 13.3331 12.1655 12.5914 11.9583 11.8969C12.0391 11.8389 12.1149 11.7738 12.1804 11.6975C12.4084 11.4319 12.488 11.0924 12.4172 10.6882C12.4049 10.6167 12.3373 10.5683 12.2658 10.582C12.1949 10.5942 12.1471 10.662 12.1598 10.7332C12.2171 11.0611 12.1591 11.3206 11.9822 11.5269C11.6403 11.9261 10.9451 12.0084 10.6413 12.0251L10.6638 11.8617C10.6702 11.8138 10.6496 11.7661 10.6103 11.7379ZM11.7841 17.7C11.5589 17.9753 11.1018 18.3414 10.9243 18.4798C10.7604 18.3236 10.5963 18.1381 10.4517 17.9207C11.1208 17.8073 11.5223 17.392 11.6729 17.1995C11.723 17.2421 11.7708 17.2764 11.8129 17.2989C11.8251 17.3054 11.8382 17.3061 11.8511 17.3084C11.8335 17.4204 11.8168 17.5473 11.801 17.6862C11.7954 17.6909 11.7889 17.6941 11.7841 17.7ZM10.1927 15.3167C10.298 15.3464 10.5711 15.4161 10.8231 15.4161C10.8693 15.4161 10.9106 15.4076 10.9539 15.4022C10.9446 15.5632 10.9525 15.7182 10.9751 15.8656C10.7666 16.0014 10.2807 16.0128 10.0183 16.0016C10.0534 15.7726 10.1136 15.5438 10.1927 15.3167ZM10.52 14.5364C10.6164 14.5594 10.8053 14.5978 10.9961 14.5978C11.0456 14.5978 11.0949 14.5949 11.1428 14.5886C11.1121 14.6773 11.0806 14.7652 11.0521 14.8559C11.0221 14.9516 11.0014 15.0455 10.9847 15.1384C10.9838 15.1386 10.9828 15.1383 10.9818 15.1385C10.7878 15.1864 10.4547 15.1172 10.2846 15.0709C10.3568 14.8905 10.4356 14.7118 10.52 14.5364ZM10.8188 13.942C10.8526 13.8764 10.8859 13.8114 10.9191 13.7466C11.0329 13.7739 11.2573 13.8254 11.4144 13.8449C11.3919 13.9049 11.3698 13.9645 11.3468 14.0258C11.3121 14.118 11.2772 14.2129 11.2423 14.3073C11.2261 14.3059 11.2093 14.3072 11.1929 14.3125C11.0379 14.3604 10.7958 14.3277 10.639 14.2951C10.699 14.1756 10.7594 14.0574 10.8188 13.942ZM11.2336 13.0887C11.3278 13.1244 11.4784 13.1718 11.6306 13.1718C11.6353 13.1718 11.6397 13.1697 11.6445 13.1697C11.6051 13.3064 11.5578 13.4474 11.5066 13.5911C11.4338 13.5903 11.2203 13.5479 11.0399 13.5061C11.11 13.3646 11.1748 13.2255 11.2336 13.0887ZM11.4143 12.589C11.4883 12.5942 11.5568 12.5976 11.6146 12.5976C11.6716 12.5976 11.7171 12.5939 11.7584 12.5888C11.7493 12.6904 11.7348 12.7934 11.7124 12.8987C11.6131 12.9281 11.4509 12.8901 11.3308 12.8456C11.3628 12.7588 11.3908 12.6732 11.4143 12.589ZM10.1861 16.2668C10.4366 16.2668 10.7869 16.2382 11.0288 16.1259C11.0628 16.2496 11.1055 16.3662 11.1543 16.4747C10.7051 16.7869 10.2032 16.8587 10.0256 16.8734C10.0061 16.7653 9.992 16.6534 9.98525 16.5369C9.98 16.4456 9.9835 16.3539 9.98882 16.2622C10.0397 16.2645 10.1066 16.2668 10.1861 16.2668ZM11.2759 16.7079C11.3434 16.8226 11.4153 16.9252 11.4875 17.0111C11.3763 17.1585 10.9843 17.6091 10.3089 17.6822C10.2189 17.5144 10.1429 17.3305 10.0863 17.131C10.3142 17.1087 10.8116 17.0205 11.2759 16.7079ZM11.7219 12.037C11.7453 12.1316 11.7588 12.2279 11.7637 12.3256C11.7305 12.3362 11.6064 12.3372 11.4725 12.3302C11.4833 12.2631 11.4894 12.1971 11.4921 12.1321C11.5696 12.1054 11.6468 12.0735 11.7219 12.037ZM9.96107 19.3103C9.92719 19.3212 9.89894 19.345 9.88307 19.3767C9.87232 19.3982 9.65088 19.8286 9.0665 19.7446C9.27319 19.6084 9.4625 19.3792 9.4625 19.0287C9.4625 19.0094 9.45825 18.9902 9.44988 18.9729C9.44138 18.9548 8.59075 17.1405 8.47407 15.5176C8.46913 15.4495 8.41263 15.3967 8.34432 15.3964H8.34363C8.27569 15.3964 8.219 15.4484 8.21338 15.5162C8.1795 15.9245 8.04432 16.3876 7.90419 16.3992C7.85263 16.4046 7.73194 16.3658 7.68663 16.2912C7.65288 16.2357 7.66688 16.1584 7.72782 16.0617C7.96569 15.6837 8.10888 15.3716 8.03463 15.0742C7.9725 14.8254 7.68188 14.1709 7.285 14.2512L7.1815 14.2747C6.84419 14.3547 6.75738 14.3376 6.7155 14.1851C6.70507 14.147 6.71075 14.116 6.73357 14.0843C6.79082 14.0047 6.93719 13.9451 7.09813 13.9358C7.4 13.9194 7.52038 14.0482 7.52357 14.0519C7.56344 14.1003 7.63138 14.1132 7.68619 14.0843C7.741 14.055 7.76775 13.991 7.74982 13.9314C7.74469 13.9147 7.62113 13.5218 7.09557 13.4578C6.97757 13.4436 6.94913 13.3676 6.94594 13.307C6.94082 13.2065 7.00438 13.0874 7.11957 13.0611C7.32625 13.0151 7.71194 13.1905 7.87907 13.859C7.89657 13.9295 7.96913 13.9701 8.03757 13.9544C8.10769 13.9366 8.15025 13.8658 8.13275 13.7957C8.04719 13.4536 7.90857 13.219 7.75357 13.0609C7.75625 13.0561 7.76032 13.0525 7.76244 13.0472C7.82513 12.8878 7.95419 12.8547 8.0475 12.8736C8.13657 12.8923 8.22988 12.9682 8.22407 13.1252C8.20788 13.5584 8.55025 14.2261 8.72832 14.4709C8.86313 14.6562 8.89707 14.8567 8.94382 15.1346C8.96475 15.2585 8.98775 15.394 9.0225 15.5456C9.19588 16.3002 9.65157 16.7574 9.75875 16.8567C9.90025 17.7643 10.4115 18.3981 10.8803 18.8014C10.6784 18.9446 10.2771 19.2117 9.96107 19.3103ZM11.1229 18.6567C11.2738 18.5379 11.5398 18.3206 11.7628 18.1032C11.744 18.3579 11.7303 18.6377 11.729 18.9554C11.7289 18.9926 11.7258 19.028 11.7246 19.0646C11.5954 18.9952 11.3714 18.862 11.1229 18.6567ZM19.1998 17.7852L19.4275 17.1107C19.6502 17.1898 19.8601 17.2803 20.0573 17.3793L19.6224 17.9865C19.4841 17.9056 19.3433 17.8385 19.1998 17.7852ZM18.9497 17.7078C18.8276 17.6764 18.7039 17.6534 18.5788 17.6412L18.6634 16.9034C18.6938 16.9092 18.7249 16.9124 18.7551 16.9188C18.9012 16.9503 19.0414 16.9886 19.1786 17.0299L18.9497 17.7078ZM18.3168 17.6302C18.1878 17.6314 18.0574 17.643 17.9258 17.664L17.8539 16.8377C18.0387 16.8352 18.2231 16.8431 18.4047 16.8635L18.3168 17.6302ZM17.5924 16.8486L17.6678 17.7166C17.5329 17.7508 17.3966 17.7969 17.2596 17.8515L17.0289 16.91C17.2139 16.8816 17.4022 16.8604 17.5924 16.8486ZM17.19 19.3605C17.0851 19.3236 16.9868 19.2735 16.8939 19.2179L17.3613 18.3307C17.3723 18.3432 17.3841 18.3539 17.3933 18.3691C17.4398 18.4474 17.4467 18.5506 17.414 18.6759C17.3706 18.8426 17.2926 19.0879 17.19 19.3605ZM16.6106 18.491C16.7724 18.3831 16.9504 18.2796 17.1402 18.1896L16.676 19.0707C16.4974 18.9324 16.3589 18.7881 16.2806 18.6981C16.3896 18.6331 16.4998 18.5648 16.6106 18.491ZM16.7704 16.954L17.0166 17.9584C16.8905 18.0192 16.7636 18.0885 16.6361 18.1662L16.2574 17.0677C16.4209 17.0259 16.5934 16.9877 16.7704 16.954ZM16.0044 17.1361L16.4035 18.2939C16.4053 18.2991 16.4104 18.3014 16.4128 18.3061C16.2533 18.4104 16.0956 18.5037 15.9406 18.5896L15.554 17.2771C15.6918 17.2306 15.842 17.1827 16.0044 17.1361ZM15.3068 17.3641L15.7043 18.7134C15.7045 18.7143 15.7056 18.7147 15.7058 18.7156C15.5322 18.8045 15.3658 18.883 15.2126 18.9494L14.7803 17.5999C14.7858 17.5905 14.7918 17.5784 14.7972 17.5696C14.8689 17.5373 15.05 17.4586 15.3068 17.3641ZM14.6139 17.9368L14.9705 19.0499C14.6983 19.1579 14.4857 19.2267 14.3799 19.2584C14.3119 18.8256 14.454 18.3135 14.6139 17.9368ZM14.5368 20.3288C14.6254 20.116 14.5992 19.8537 14.4568 19.5282C14.4543 19.5224 14.4517 19.5167 14.4493 19.5105C14.6688 19.4464 15.3106 19.2369 16.0491 18.8292C16.181 18.989 16.5713 19.4158 17.0946 19.6032C16.7974 20.3299 16.3539 21.1445 15.907 21.2168C15.5324 21.276 15.3296 21.0527 15.1338 20.835C14.9631 20.6457 14.7691 20.4312 14.4939 20.5762C14.4725 20.5876 14.4564 20.602 14.4377 20.615C14.4164 20.6025 14.387 20.5872 14.3523 20.5714C14.4274 20.5058 14.4949 20.4296 14.5368 20.3288ZM18.9641 18.5567C19.0023 18.7947 19.1561 19.0005 19.4213 19.1683C19.576 19.2661 19.6559 19.3736 19.6588 19.4881C19.6618 19.6103 19.582 19.7376 19.4916 19.8408C19.4791 19.8153 19.464 19.7942 19.4484 19.7772C19.2816 19.5919 18.9188 19.6754 18.8476 19.694C18.8296 19.6985 18.8128 19.7074 18.7983 19.7189C18.6643 19.8278 17.483 20.7966 17.3011 21.2055C17.233 21.3588 17.1743 21.5178 17.2663 21.6319C17.3621 21.7511 17.5455 21.7379 17.8724 21.67C17.9004 21.6642 17.9207 21.6625 17.9344 21.6625C17.95 21.6625 17.9577 21.6625 17.9577 21.6643C17.9688 21.683 17.9761 21.7882 17.8702 22.0272C17.8509 22.0705 17.8023 22.0933 17.7534 22.0834C17.4045 22.0112 16.7354 21.9281 16.1779 22.1862C15.8849 22.3221 15.6781 22.332 15.4387 22.3435C15.2183 22.3541 14.9688 22.3664 14.6235 22.4784C14.544 22.5039 14.2803 22.5792 14.2321 22.4539C14.1918 22.3485 14.2703 22.1643 14.3535 22.1102C14.8681 22.1302 15.0779 22.1304 15.0779 22.1304C15.1501 22.1304 15.2086 22.0719 15.2086 21.9997C15.2086 21.9275 15.1501 21.8689 15.0779 21.8689C15.0757 21.8689 14.8588 21.8689 14.3204 21.8471C14.2274 21.8434 14.0662 21.8209 14.0315 21.7112C14.0056 21.6299 14.0513 21.5124 14.1333 21.4497C14.2045 21.3945 14.4444 21.4552 14.6788 21.5563C14.7533 21.6032 14.8307 21.641 14.9058 21.6659C14.9694 21.6887 15.0398 21.6564 15.0668 21.5944C15.0941 21.5324 15.0696 21.4603 15.0103 21.4276C14.9638 21.4017 14.8878 21.3619 14.7963 21.321C14.6441 21.2179 14.5235 21.0701 14.5141 20.9546C14.5108 20.9131 14.5191 20.8586 14.6158 20.8079C14.6997 20.7639 14.7598 20.8116 14.9394 21.0105C15.1479 21.2417 15.4328 21.5557 15.9487 21.475C16.9533 21.3122 17.6603 18.7676 17.6669 18.7419C17.7178 18.5468 17.7015 18.3766 17.6181 18.2359C17.5699 18.1546 17.5079 18.1018 17.4487 18.0614C17.9419 17.8839 18.498 17.8232 19.0689 18.021C19.0037 18.1409 18.9284 18.3354 18.9641 18.5567ZM19.8428 18.1279L20.2898 17.5039C20.4527 17.5953 20.6056 17.6913 20.7493 17.7906L20.1758 18.3832C20.1313 18.3485 20.088 18.3186 20.0429 18.2812C19.9769 18.2267 19.9102 18.1756 19.8428 18.1279ZM20.9636 18.8929L21.5379 18.4353C21.6486 18.5422 21.7494 18.6466 21.8386 18.7452L21.3741 19.0752C21.2437 19.0265 21.1068 18.9661 20.9636 18.8929ZM20.7139 18.7576C20.6069 18.6939 20.4971 18.6227 20.3848 18.5434L20.9638 17.945C21.0999 18.0479 21.2275 18.1521 21.3439 18.2556L20.7139 18.7576ZM21.6853 19.1749L22.0101 18.944C22.1166 19.0724 22.2027 19.1863 22.2648 19.2739C22.1033 19.2644 21.9063 19.2341 21.6853 19.1749ZM24.3994 14.7378C24.1684 16.2847 22.9288 16.7976 22.5596 16.9172C22.2494 16.2192 21.7349 15.632 21.3926 15.4546C21.3289 15.4219 21.2498 15.4467 21.2164 15.5104C21.1832 15.5748 21.2083 15.6535 21.2724 15.6869C21.5332 15.8221 22.0613 16.372 22.3663 17.1235C22.6954 17.9342 23.2217 18.394 23.9302 18.49C24.0727 18.5091 24.1706 18.5669 24.2298 18.6664C24.3166 18.8129 24.3123 19.0329 24.2804 19.2262C24.1136 19.1203 23.8419 19.0863 23.694 19.1997C23.6018 19.2702 23.5753 19.3822 23.6232 19.4993C23.6556 19.5786 23.6705 19.8633 23.685 20.1388C23.7268 20.936 23.7797 21.5629 24.0416 21.775C24.1171 21.8363 24.2083 21.8615 24.3024 21.8455C24.8193 21.7637 25.0079 21.8734 25.131 22.0637C25.1385 22.0753 25.1613 22.1104 25.1001 22.1755C25.0071 22.2735 24.8121 22.331 24.6809 22.2569C24.3715 22.0797 24.1544 22.1544 23.7954 22.278C23.7326 22.2994 23.6638 22.3229 23.588 22.3478C23.2314 22.4629 22.8638 22.4057 22.5678 22.3594C22.481 22.346 22.4019 22.3339 22.3331 22.3274C22.1645 22.3114 22.0109 22.3952 21.8623 22.4765C21.6824 22.575 21.5124 22.6693 21.3122 22.6084C21.2193 22.5804 21.1891 22.5338 21.1743 22.5008C21.1303 22.4025 21.1628 22.2599 21.1941 22.1692C21.3063 22.1495 21.4071 22.1532 21.5181 22.1647C21.6781 22.1807 21.8603 22.1999 22.0898 22.1154C22.1576 22.0905 22.1922 22.0152 22.1673 21.9475C22.1422 21.8797 22.0674 21.846 21.9992 21.8702C21.8267 21.9331 21.6956 21.9206 21.5449 21.9046C21.4076 21.8907 21.2526 21.875 21.0663 21.9244C21.0379 21.9319 20.995 21.9363 20.9621 21.8832C20.9189 21.8137 20.9208 21.6853 21.0093 21.5852C21.0774 21.5079 21.2094 21.5104 21.3313 21.5362C21.3995 21.5743 21.4864 21.6056 21.5986 21.627C21.6626 21.6406 21.7261 21.6022 21.7471 21.5405C21.768 21.4785 21.7401 21.4108 21.6817 21.3815C21.6718 21.3767 21.569 21.3263 21.4319 21.2916C21.3597 21.2392 21.3339 21.1652 21.2953 21.0545L21.2662 20.9732C21.2488 20.9268 21.2266 20.8918 21.2022 20.8652C21.265 20.838 21.3264 20.8257 21.3863 20.8295C21.5208 20.8387 21.6409 20.93 21.7434 21.1012C22.0828 21.6665 22.6455 21.673 22.6693 21.673C22.7237 21.673 22.7724 21.6392 22.7916 21.5885C23.2144 20.4709 22.6491 19.3904 22.6248 19.3449C22.6243 19.3442 22.6236 19.3437 22.6233 19.343C22.6229 19.3424 22.6231 19.3417 22.6227 19.3411C22.5725 19.2542 21.3656 17.2142 18.8104 16.6636C16.9698 16.2655 14.7455 17.3041 14.6517 17.3487C14.6296 17.3589 14.611 17.3752 14.5977 17.3956C14.3331 17.8046 13.8919 18.8898 14.2171 19.6332C14.3279 19.8865 14.3544 20.0867 14.2955 20.2287C14.256 20.3238 14.179 20.4 14.0481 20.4705C14.0306 20.3071 13.9743 20.0943 13.806 20.0017C13.6415 19.9118 13.4276 19.9618 13.1699 20.1512C12.5599 20.5997 11.6895 21.659 11.7689 22.1177C11.7883 22.2304 11.8589 22.3104 11.9676 22.3431C12.0726 22.3744 12.202 22.4013 12.3382 22.4292C12.6076 22.4847 12.9253 22.5498 13.0662 22.6665C12.6858 22.6179 11.9489 22.5504 11.6576 22.7139C11.3141 22.9073 10.7234 23.0305 10.3123 22.8817C10.1628 22.8194 9.82807 22.77 9.63344 23.0336C9.56088 23.132 9.447 23.1589 9.37344 23.1341C9.288 23.1062 9.27007 23.0173 9.27007 22.9479C9.27007 22.6445 9.56207 22.621 9.65144 22.621C9.72363 22.621 9.78219 22.5624 9.78219 22.4902C9.78219 22.418 9.72363 22.3595 9.65144 22.3595C9.45119 22.3595 9.28638 22.4247 9.17332 22.5357C9.06875 22.4811 9.00125 22.4165 8.97675 22.342C8.94325 22.2402 8.99138 22.1347 9.02325 22.0809C9.08382 21.978 9.191 21.9234 9.25663 21.8969C9.40507 22.0363 9.57782 22.1361 9.6645 22.1741C9.72988 22.2024 9.80732 22.1727 9.83675 22.1067C9.86569 22.0406 9.83538 21.9633 9.76932 21.9344C9.59425 21.8578 9.274 21.6215 9.25888 21.4233C9.25332 21.3507 9.32019 21.2955 9.38932 21.2782C9.43919 21.2656 9.56482 21.2557 9.64044 21.4304C9.83163 21.8728 10.4534 22.184 10.4798 22.1969C10.4983 22.2061 10.5179 22.2106 10.5377 22.2106C10.5696 22.2106 10.6009 22.199 10.6256 22.1769C10.6809 22.1264 11.9832 20.9237 11.9908 18.9562C11.9953 17.7669 12.1606 17.0249 12.2221 16.7889C12.4532 16.7778 13.044 16.7067 13.5746 16.2998C13.7281 16.5719 14.1179 17.1 14.8352 17.1181C14.8363 17.1181 14.8374 17.1181 14.8384 17.1181C14.8854 17.1181 14.9289 17.0926 14.9522 17.0516C14.9761 17.0094 14.9747 16.9576 14.9488 16.9171C14.9463 16.9131 14.7454 16.5916 14.7912 16.3144C14.956 16.4735 15.2561 16.6886 15.6839 16.704H15.6839H15.684C15.6855 16.704 15.6871 16.704 15.6886 16.704C15.7113 16.704 15.7316 16.6966 15.7503 16.6862C15.7588 16.6815 15.7663 16.6779 15.7734 16.6712C15.7901 16.6567 15.8023 16.6381 15.8101 16.6167C15.8108 16.6147 15.8128 16.6137 15.8134 16.6116C15.8152 16.6058 15.9961 16.0362 16.5126 15.7695C16.8424 15.5989 17.2401 15.5883 17.6962 15.7386C17.7074 15.7422 17.7188 15.7421 17.73 15.7426C17.7326 15.7427 17.7345 15.7451 17.7371 15.7451C17.7391 15.7451 17.7411 15.7444 17.7431 15.7442C17.7465 15.7441 17.7497 15.7434 17.7531 15.7429C17.7589 15.7422 17.7646 15.7422 17.7704 15.7407C17.7744 15.7396 17.7773 15.7368 17.7812 15.7354C17.7898 15.7322 17.7976 15.7283 17.8054 15.7234C17.8122 15.7192 17.8185 15.7147 17.8243 15.7094C17.8305 15.7038 17.8356 15.6975 17.8407 15.6907C17.8458 15.6839 17.8501 15.6771 17.8538 15.6694C17.8556 15.6659 17.8584 15.6634 17.8598 15.6596C17.8772 15.612 18.1477 14.9058 18.8221 14.4891C18.8245 14.4895 18.8264 14.491 18.8289 14.4912C18.8451 14.4929 20.4564 14.6713 21.3482 15.1068C21.6201 15.2396 21.9519 15.3054 22.2804 15.3054C22.6512 15.3054 23.0174 15.2216 23.2869 15.0565C23.5811 14.8764 23.7394 14.6176 23.7446 14.3091C23.7553 13.6764 23.3659 13.1894 22.9941 13.0529C22.7608 12.9674 22.5362 13.0188 22.3943 13.1921C22.2175 13.4074 22.2279 13.6862 22.4191 13.8554C22.6174 14.0312 22.9838 14.0591 23.3504 13.7349C23.3933 13.8181 23.4276 13.9101 23.4507 14.0082C23.0372 14.2941 22.6514 14.3893 22.3365 14.2831C22.0373 14.1823 21.8589 13.9232 21.7916 13.7144C21.7386 13.5506 21.7684 13.347 21.8729 13.1563C22.0201 12.8879 22.2881 12.6861 22.6081 12.6027C22.9419 12.5152 23.4893 12.5904 23.9026 12.9616C24.2091 13.2372 24.5443 13.7687 24.3994 14.7378ZM23.2022 13.516C22.9453 13.7578 22.7088 13.7632 22.5921 13.6597C22.5063 13.5838 22.5079 13.4653 22.5961 13.3584C22.6483 13.2947 22.713 13.2732 22.7759 13.2732C22.8212 13.2732 22.8656 13.2845 22.9038 13.2984C23.0073 13.3366 23.1113 13.4122 23.2022 13.516Z" fill="#464655"/>
</svg>
