<svg width="32" height="32" viewBox="0 0 32 32" fill="none" xmlns="http://www.w3.org/2000/svg">
<path d="M30 5.33H2C0.895431 5.33 0 6.22543 0 7.33V24.6633C0 25.7679 0.895431 26.6633 2 26.6633H30C31.1046 26.6633 32 25.7679 32 24.6633V7.33C32 6.22543 31.1046 5.33 30 5.33Z" fill="#0052B4"/>
<path fill-rule="evenodd" clip-rule="evenodd" d="M7.11093 12.4409V17.182H32V19.552H0V17.182H4.74093V12.4409H0V10.0709H4.74093V5.33H7.11093V10.0709H11.8519V12.4409H7.11093ZM11.8519 7.70056H32V10.0706H11.8519V7.70056ZM11.8519 12.4413H32V14.8113H11.8519V12.4413ZM32 24.2928H0V21.9228H32V24.2928Z" fill="#F0F0F0"/>
</svg>
