<svg width="32" height="32" viewBox="0 0 32 32" fill="none" xmlns="http://www.w3.org/2000/svg">
<path d="M30 5.33319H2C0.895431 5.33319 0 6.22862 0 7.33319V24.6668C0 25.7713 0.895431 26.6668 2 26.6668H30C31.1046 26.6668 32 25.7713 32 24.6668V7.33319C32 6.22862 31.1046 5.33319 30 5.33319Z" fill="#FFE15A"/>
<path d="M30 5.33319H2C0.895431 5.33319 0 6.22862 0 7.33319V12.4441H32V7.33319C32 6.22862 31.1046 5.33319 30 5.33319Z" fill="#FF4B55"/>
<path d="M32 19.5551H0V24.6661C0 25.7706 0.895431 26.6661 2 26.6661H30C31.1046 26.6661 32 25.7706 32 24.6661V19.5551Z" fill="#FF4B55"/>
</svg>
