<svg width="32" height="32" viewBox="0 0 32 32" fill="none" xmlns="http://www.w3.org/2000/svg">
<path d="M30 5.33331H2C0.895431 5.33331 0 6.22874 0 7.33331V24.6669C0 25.7714 0.895431 26.6669 2 26.6669H30C31.1046 26.6669 32 25.7714 32 24.6669V7.33331C32 6.22874 31.1046 5.33331 30 5.33331Z" fill="#FF4B55"/>
<path d="M18.8284 15.9997L32 7.21867C32 6.17731 31.1558 5.33311 30.1144 5.33311H29.1716L16 14.1141L2.82844 5.33311H1.88556C0.844195 5.33311 0 6.17731 0 7.21867L13.1716 15.9997L0 24.7808C0 25.8222 0.844194 26.6664 1.88556 26.6664H2.82844L16 17.8854L29.1716 26.6664H30.1144C31.1558 26.6664 32 25.8222 32 24.7808L18.8284 15.9997Z" fill="#73AF00"/>
<path d="M17.3913 14.6084V12.6409V5.33311H14.6087V12.6409L14.6088 14.6084H12.6411H0V17.391H12.6411H14.6087V19.3586V26.6664H17.3913V19.3587V17.3911L19.3589 17.391H32V14.6084H19.3589H17.3913Z" fill="#F0F0F0"/>
</svg>
