<svg width="32" height="32" viewBox="0 0 32 32" fill="none" xmlns="http://www.w3.org/2000/svg">
<mask id="mask0" mask-type="alpha" maskUnits="userSpaceOnUse" x="0" y="5" width="32" height="22">
<path d="M30 5.33H2C0.895431 5.33 0 6.22543 0 7.33V24.6636C0 25.7681 0.895431 26.6636 2 26.6636H30C31.1046 26.6636 32 25.7681 32 24.6636V7.33C32 6.22543 31.1046 5.33 30 5.33Z" fill="#FF4B55"/>
</mask>
<g mask="url(#mask0)">
<path d="M-16 5.33H47.99V26.66H-16V5.33Z" fill="#F0F0F0"/>
<path d="M-16 5.33H47.99V12.44H-16V5.33Z" fill="#73AF00"/>
<path d="M-16 19.55H47.99V26.66H-16V19.55Z" fill="#FF4B55"/>
<path d="M12.4775 16.1091C12.4775 16.1091 12.3874 15.063 12.5811 14.4214C12.7149 13.977 12.9216 13.6154 13.2559 13.3195C13.7781 12.8573 14.5843 12.7348 15.1505 13.0126C14.6546 13.0405 13.9916 13.2202 13.6322 13.5427C13.3526 13.7964 13.1457 14.13 13.0353 14.5049C12.8543 15.1313 12.945 16.137 12.945 16.137L12.4775 16.1091Z" fill="#FF9811"/>
<path d="M12.979 16.1725L12.4489 16.1408L12.4462 16.1119C12.4429 16.0681 12.3579 15.0522 12.5513 14.4109C12.6954 13.9347 12.9128 13.5795 13.2359 13.2935C13.7654 12.8249 14.5758 12.6938 15.1632 12.982L15.152 13.0455C14.6794 13.0719 14.0099 13.2468 13.6523 13.5678C13.3777 13.818 13.1742 14.1463 13.0652 14.5151C12.888 15.1274 12.9745 16.1236 12.9766 16.1341L12.979 16.1725ZM12.5064 16.0773L12.9104 16.1014C12.8957 15.9078 12.8431 15.0582 13.0058 14.4951C13.1186 14.1143 13.3287 13.7752 13.6121 13.5167C13.9491 13.2138 14.535 13.0398 15.0123 12.9887C14.4653 12.79 13.7424 12.9319 13.2758 13.3452C12.9621 13.6236 12.751 13.9681 12.611 14.4316C12.4391 15.0005 12.4937 15.9049 12.5061 16.0773H12.5064Z" fill="#464655"/>
<path d="M12.8304 14.3986C12.6633 14.9414 12.6633 15.5414 12.6798 16.0544L12.7421 16.0519C12.7253 15.5398 12.7294 14.9494 12.8898 14.4195C13.0502 13.8897 13.3665 13.4208 13.9816 13.1411C13.2474 13.3189 12.917 14.1189 12.8304 14.3986Z" fill="#464655"/>
<path d="M12.4724 16.0138H12.9201V17.09H12.4724V16.0138Z" fill="#FF9811"/>
<path d="M12.9514 17.1236H12.4429V15.9808H12.9514V17.1236ZM12.5049 17.0563H12.8888V16.0475H12.5049V17.0563Z" fill="#464655"/>
<path d="M14.4837 17.9376C14.2156 17.857 13.9713 17.9795 13.4347 17.202C13.4347 17.202 13.1999 17.2792 13.078 17.2843C13.014 17.287 12.95 17.2778 12.889 17.257C12.7788 17.2179 12.5883 17.0789 12.5883 17.0789L12.5393 16.6268C12.5393 16.6268 12.443 16.61 12.4135 16.5652C12.4013 16.5448 12.3948 16.521 12.3948 16.4967C12.3948 16.4723 12.4013 16.4485 12.4135 16.4281C12.4495 16.3732 12.505 16.3598 12.5744 16.3392C12.7072 16.3028 12.8461 16.3004 12.9799 16.3322C13.098 16.3582 13.1866 16.4189 13.3018 16.4554C13.6538 16.5684 14.3922 16.6395 14.3922 16.6395L14.4837 17.9376Z" fill="#FF9811"/>
<path d="M14.4952 17.9525L14.481 17.9481C14.4315 17.9341 14.3812 17.9235 14.3304 17.9163C14.1124 17.8817 13.8656 17.8424 13.4305 17.2144C13.3901 17.2275 13.1898 17.29 13.0782 17.2948C13.013 17.2976 12.9478 17.2882 12.8857 17.2668C12.7755 17.2278 12.5903 17.0932 12.5824 17.0875L12.5785 17.0846L12.5298 16.6363C12.5056 16.6309 12.4314 16.6125 12.4049 16.5729C12.3913 16.5506 12.384 16.5246 12.384 16.4979C12.384 16.4713 12.3913 16.4453 12.4049 16.423C12.4406 16.3687 12.4935 16.3525 12.557 16.3341L12.5714 16.3297C12.7059 16.2928 12.8465 16.2904 12.9819 16.3227C13.0462 16.3389 13.1088 16.3619 13.1689 16.3913C13.2132 16.4121 13.2586 16.4305 13.3047 16.4462C13.6503 16.5573 14.3862 16.63 14.3936 16.6306H14.4025L14.4952 17.9525ZM13.4385 17.189L13.4429 17.1954C13.8756 17.8221 14.1186 17.862 14.3333 17.8938C14.3801 17.9004 14.4266 17.9096 14.4724 17.9214L14.3839 16.6494C14.2994 16.6408 13.6266 16.5703 13.2997 16.4649C13.2507 16.449 13.2055 16.4287 13.1618 16.4094C13.103 16.3803 13.0417 16.3577 12.9787 16.3417C12.8464 16.3105 12.7092 16.3128 12.5779 16.3484L12.5611 16.3538C12.5003 16.3719 12.4521 16.3856 12.4208 16.4341C12.4097 16.4527 12.4037 16.4743 12.4037 16.4963C12.4037 16.5184 12.4097 16.54 12.4208 16.5586C12.4424 16.5922 12.5141 16.6109 12.5389 16.6154H12.5466L12.5959 17.0709C12.6237 17.0906 12.7912 17.21 12.8913 17.2446C12.951 17.2652 13.0137 17.2743 13.0764 17.2716C13.1946 17.2668 13.4282 17.1906 13.4308 17.19L13.4385 17.189Z" fill="#464655"/>
<path d="M12.4483 16.9966C12.4483 16.9966 12.6281 16.9985 12.7141 16.9897C12.7767 16.9833 12.829 16.9481 12.896 16.976C12.9359 16.9928 12.9731 17.0789 12.9731 17.0789C12.9731 17.0789 12.9125 17.1576 12.8679 17.1741C12.7445 17.2217 12.5726 17.2319 12.4624 17.1604C12.4488 17.1494 12.4378 17.135 12.4305 17.1184C12.4232 17.1018 12.4198 17.0836 12.4205 17.0652C12.4251 17.0405 12.4346 17.0171 12.4483 16.9966Z" fill="#FF9811"/>
<path d="M12.6632 17.224C12.5911 17.2264 12.5197 17.208 12.4565 17.1706C12.4412 17.1586 12.429 17.1426 12.4208 17.1242C12.4126 17.1059 12.4087 17.0856 12.4095 17.0653C12.4138 17.0381 12.4239 17.0125 12.4391 16.9903L12.442 16.9856H12.4476C12.4494 16.9856 12.6278 16.9875 12.7134 16.9786C12.7324 16.9762 12.7511 16.9724 12.7695 16.9672C12.8118 16.9514 12.8578 16.9514 12.9001 16.9672C12.9432 16.9853 12.981 17.0716 12.9825 17.0754L12.9854 17.0818L12.9813 17.0872C12.9786 17.0903 12.9184 17.1684 12.8717 17.1865C12.8047 17.2115 12.7342 17.2241 12.6632 17.224ZM12.4538 17.0078C12.4424 17.0248 12.4345 17.0443 12.4308 17.0649C12.4299 17.0815 12.4328 17.0981 12.4393 17.1132C12.4457 17.1283 12.4555 17.1415 12.4677 17.1516C12.5787 17.223 12.7471 17.2097 12.8643 17.1643C12.9015 17.1424 12.9342 17.1127 12.9606 17.077C12.9485 17.051 12.9193 16.9976 12.8921 16.9865C12.8536 16.9729 12.812 16.9736 12.774 16.9884C12.7546 16.9941 12.7348 16.9982 12.7149 17.0008C12.6381 17.0087 12.4848 17.0081 12.4538 17.0078Z" fill="#464655"/>
<path d="M12.4429 16.8256C12.4429 16.8256 12.6228 16.8275 12.7087 16.8186C12.771 16.8122 12.8585 16.763 12.9255 16.7913C12.9654 16.8078 13.0023 16.8938 13.0023 16.8938C13.0023 16.8938 12.9432 16.9725 12.8974 16.989C12.7737 17.037 12.5679 17.0608 12.4568 16.989C12.4428 16.9782 12.4316 16.9638 12.424 16.9471C12.4164 16.9304 12.4128 16.912 12.4134 16.8935C12.4186 16.8688 12.4286 16.8456 12.4429 16.8256Z" fill="#FF9811"/>
<path d="M12.6498 17.0462C12.5808 17.0495 12.5123 17.0333 12.451 16.9992C12.4355 16.9872 12.4231 16.9713 12.4147 16.9528C12.4064 16.9344 12.4024 16.914 12.4032 16.8935C12.4076 16.8664 12.4177 16.8408 12.4327 16.8186L12.4359 16.8135H12.443C12.4448 16.8135 12.6235 16.8154 12.7088 16.8065C12.7316 16.8033 12.754 16.798 12.7759 16.7906C12.8258 16.7764 12.8825 16.7589 12.9306 16.7798C12.9737 16.7979 13.0115 16.8846 13.013 16.8881L13.0157 16.8948L13.0115 16.9002C13.0092 16.9033 12.9489 16.9814 12.9023 16.9992C12.8211 17.0298 12.7358 17.0457 12.6498 17.0462ZM12.4478 16.8367C12.4362 16.8536 12.4284 16.8732 12.4247 16.8938C12.4239 16.9103 12.4268 16.9268 12.4333 16.9419C12.4397 16.9569 12.4494 16.9701 12.4616 16.9802C12.5724 17.0519 12.7809 17.0227 12.8934 16.9802C12.9302 16.9583 12.9626 16.9288 12.9888 16.8935C12.9764 16.8671 12.9474 16.8141 12.9203 16.8027C12.8786 16.7852 12.8278 16.8002 12.7788 16.8145C12.7559 16.8216 12.7325 16.8268 12.7088 16.83C12.6315 16.8376 12.4782 16.837 12.4469 16.8367H12.4478Z" fill="#464655"/>
<path d="M12.4429 16.6335C12.4429 16.6335 12.6227 16.6357 12.7087 16.6268C12.771 16.6205 12.8584 16.5712 12.9255 16.5995C12.9653 16.616 13.0022 16.702 13.0022 16.702C13.0022 16.702 12.9432 16.7808 12.8974 16.7973C12.7737 16.8452 12.5678 16.869 12.4568 16.7973C12.443 16.7865 12.4318 16.7723 12.4242 16.7559C12.4167 16.7395 12.4129 16.7213 12.4134 16.703C12.4181 16.6782 12.4276 16.6549 12.4414 16.6344L12.4429 16.6335Z" fill="#FF9811"/>
<path d="M12.6497 16.8544C12.5808 16.8576 12.5123 16.8414 12.451 16.8074C12.4357 16.7955 12.4233 16.7798 12.415 16.7616C12.4066 16.7434 12.4026 16.7233 12.4031 16.703C12.4075 16.6758 12.4176 16.6501 12.4327 16.6277L12.4359 16.623H12.443C12.4448 16.623 12.6234 16.6249 12.7088 16.6163C12.7315 16.6131 12.7539 16.6078 12.7758 16.6004C12.8257 16.5858 12.8824 16.5687 12.9306 16.5897C12.9737 16.6077 13.0115 16.6944 13.013 16.6979L13.0156 16.7043L13.0115 16.7097C13.0091 16.7131 12.9489 16.7909 12.9022 16.809C12.821 16.8391 12.7356 16.8544 12.6497 16.8544ZM12.4477 16.6449C12.4362 16.6619 12.4283 16.6814 12.4247 16.702C12.4239 16.7186 12.4268 16.7351 12.4332 16.7501C12.4397 16.7651 12.4494 16.7783 12.4616 16.7884C12.5723 16.8598 12.7808 16.8309 12.8934 16.7884C12.9305 16.7665 12.9632 16.7369 12.9896 16.7014C12.9772 16.6751 12.9483 16.622 12.9211 16.6106C12.8795 16.5931 12.8287 16.6081 12.7797 16.6224C12.7565 16.6301 12.7328 16.6358 12.7088 16.6395C12.6314 16.6458 12.4781 16.6449 12.4468 16.6449H12.4477Z" fill="#464655"/>
<path d="M12.9618 16.1544H13.1933L13.3383 16.05L13.1939 15.9433H12.9624L12.7054 15.8557L12.4485 15.9433H12.1998L12.0554 16.05L12.2004 16.1544H12.4491L12.7054 16.2554L12.9618 16.1544Z" fill="#FF9811"/>
<path d="M12.7055 16.2903L12.443 16.1881H12.1911L12 16.0503L12.1902 15.9094H12.443L12.7046 15.8202L12.9672 15.9094H13.2035L13.3936 16.05L13.2026 16.1878H12.9663L12.7055 16.2903ZM12.2103 16.1208H12.4548L12.7055 16.2195L12.9563 16.1208H13.1837L13.2826 16.0497L13.1843 15.9767H12.953L12.7055 15.8922L12.4486 15.9779H12.2097L12.1113 16.051L12.2103 16.1208Z" fill="#464655"/>
<path d="M16.6872 13.0268C16.65 13.0268 16.6128 13.0268 16.5756 13.0297L16.6098 15.1884L16.3118 13.7506C16.2343 13.7642 16.1576 13.7818 16.0818 13.8036L16.4639 15.2773L15.64 13.2347C15.5636 13.2654 15.4885 13.2996 15.4146 13.3373L16.3233 15.3919L15.4802 14.0754C15.4144 14.1177 15.3507 14.1631 15.2891 14.2116L16.0951 15.3427L14.6536 13.8852C14.5945 13.9424 14.5405 14.0024 14.4873 14.0643L16.0251 15.523L14.8057 14.7287C14.7621 14.792 14.7216 14.8576 14.6843 14.9252L16.1346 15.7719L16.1902 15.6766L16.2161 15.7027L16.336 15.5849L16.3951 15.5449V15.5481L16.5221 15.4966V15.4995L16.6331 15.4709H16.7442L16.8582 15.4995V15.4966L16.9869 15.5484V15.5452L17.046 15.5852L17.1659 15.703L17.1916 15.677L17.233 15.7487L17.2034 15.7601L17.2648 15.9093L17.3 16.0551L18.9603 15.7341C18.9499 15.6583 18.9359 15.583 18.9184 15.5087L17.2911 15.9036L19.4612 15.0627C19.4355 14.9862 19.4066 14.9119 19.3752 14.8386L17.4341 15.663L18.6936 14.9268C18.6568 14.8591 18.6167 14.7935 18.5734 14.7303L17.3552 15.5239L18.8909 14.0668C18.8381 14.0052 18.7825 13.9455 18.7252 13.8887L17.2864 15.3455L18.0897 14.2132C18.0283 14.1649 17.9648 14.1179 17.8992 14.077L17.1387 15.2633L17.1184 15.2519L17.9657 13.3379C17.8915 13.3005 17.8156 13.2665 17.7386 13.2354L16.9615 15.163L16.9497 15.156L17.2991 13.8046C17.2228 13.7824 17.1455 13.7644 17.0676 13.7506L16.7914 15.0678L16.826 13.0306C16.7799 13.0281 16.7336 13.0268 16.6872 13.0268Z" fill="#FF9811"/>
<path d="M17.2769 16.0938L17.2353 15.9208L17.1632 15.7468L17.0265 15.6125L16.9825 15.5808L16.976 15.5789L16.8617 15.5332L16.8514 15.5313L16.7406 15.5037H16.6367L16.5129 15.5354L16.3948 15.5821L16.3526 15.611L16.2149 15.7506L16.1954 15.7313L16.1441 15.8179L14.6408 14.9376L14.6574 14.9078C14.695 14.8392 14.7359 14.7728 14.7799 14.7087L14.7968 14.684L15.7418 15.2995L14.4424 14.0681L14.4642 14.043C14.5215 13.976 14.5768 13.916 14.6323 13.8617L14.6535 13.8405L15.8366 15.0364L15.246 14.2062L15.2717 14.1859C15.3343 14.1364 15.3995 14.0906 15.4654 14.0478L15.4905 14.0319L16.1278 15.0265L15.3735 13.3217L15.4031 13.3075C15.4775 13.2697 15.5543 13.2351 15.6311 13.204L15.6588 13.1925L16.3118 14.8148L16.0433 13.7795L16.0729 13.7706C16.1491 13.7487 16.2273 13.7306 16.3056 13.7167L16.3351 13.7116L16.5714 14.8579L16.5419 12.9973H16.5714C16.6154 12.9954 16.6511 12.9944 16.6842 12.9944C16.7291 12.9944 16.7764 12.9944 16.8245 12.9983H16.854L16.8245 14.7392L17.0401 13.7119L17.0696 13.717C17.1467 13.7306 17.2255 13.7487 17.3038 13.7719L17.3333 13.7808L17.0705 14.7967L17.7173 13.1935L17.7468 13.2046C17.8298 13.2383 17.9048 13.2722 17.976 13.3084L18.0055 13.3227L17.2524 15.0271L17.89 14.0322L17.9151 14.0481C17.9786 14.0887 18.0433 14.1351 18.108 14.1862L18.1337 14.2065L17.5415 15.0398L18.7258 13.8417L18.7474 13.863C18.8049 13.9202 18.8614 13.9808 18.9148 14.0433L18.9367 14.0684L17.6372 15.2998L18.5823 14.6856L18.5991 14.7103C18.643 14.7745 18.6838 14.841 18.7214 14.9097L18.7376 14.9398L17.8989 15.4297L19.3912 14.7948L19.4036 14.8237C19.4355 14.8976 19.4647 14.9738 19.4907 15.0503L19.5013 15.0821L17.7757 15.7506L18.9402 15.469L18.9476 15.5008C18.9655 15.5763 18.9798 15.6529 18.9904 15.73L18.9948 15.7617L17.2769 16.0938ZM17.3032 15.9351L17.323 16.0164L18.9249 15.7068C18.9166 15.6532 18.9068 15.6002 18.8953 15.5481L17.3032 15.9351ZM17.2441 15.7798L17.2819 15.871L19.4198 15.0427C19.4006 14.9884 19.38 14.9344 19.3578 14.8817L17.4456 15.6944L17.4193 15.6335L18.6502 14.9141C18.6227 14.8652 18.5941 14.8189 18.5648 14.7748L17.3714 15.5519L17.3345 15.4967L18.8472 14.0624C18.8079 14.0179 18.7674 13.9744 18.7261 13.9325L17.3068 15.3697L17.2604 15.3246L18.0454 14.2198C17.9993 14.1846 17.9535 14.1516 17.9083 14.1217L17.1491 15.3062L17.0773 15.2659L17.9237 13.3538C17.8705 13.3278 17.815 13.3027 17.7551 13.2779L16.9757 15.211L16.9119 15.1738L17.2604 13.8294C17.204 13.8138 17.1476 13.8008 17.0918 13.79L16.8218 15.076L16.7601 15.0681L16.7941 13.0637C16.7574 13.0637 16.7217 13.0614 16.6872 13.0614C16.6629 13.0614 16.637 13.0614 16.6074 13.0614L16.6411 15.1884L16.5794 15.1964L16.2873 13.7894C16.2312 13.8002 16.1751 13.8129 16.1201 13.8281L16.4937 15.2684L16.4347 15.291L15.6225 13.2779C15.5664 13.3014 15.5106 13.3268 15.4556 13.3538L16.3511 15.3776L16.297 15.4113L15.4701 14.1214C15.4232 14.1532 15.3771 14.1849 15.3322 14.2195L16.1198 15.3224L16.0738 15.3671L14.6532 13.9313C14.6131 13.9719 14.5732 14.0151 14.5319 14.0621L16.046 15.4967L16.0091 15.5506L14.8136 14.7732C14.7835 14.8187 14.7549 14.8649 14.728 14.9119L16.1225 15.7275L16.1816 15.6259L16.214 15.6576L16.3168 15.557L16.4237 15.4843V15.5002L16.5522 15.4487V15.4573L16.6319 15.4376H16.7501L16.826 15.4564V15.4503L16.8679 15.4646L16.9544 15.4992V15.4865L17.0026 15.516L17.0667 15.5602L17.1653 15.6573L17.1981 15.6256L17.2793 15.7665L17.2441 15.7798ZM17.1836 15.7297L17.1801 15.7335L17.1845 15.7316L17.1836 15.7297Z" fill="#464655"/>
<path d="M16.6869 14.9129C16.0393 14.9129 15.5056 15.4275 15.5056 16.0691C15.5056 16.7106 16.0372 17.2281 16.6869 17.2281C17.3366 17.2281 17.8706 16.7113 17.8706 16.0691C17.8706 15.4268 17.3346 14.9129 16.6869 14.9129Z" fill="#FF9811"/>
<path d="M16.6869 17.2617C16.0189 17.2617 15.4761 16.7268 15.4761 16.069C15.4761 15.4113 16.0198 14.8795 16.6869 14.8795C17.3541 14.8795 17.9019 15.4132 17.9019 16.0681C17.9019 16.723 17.357 17.2617 16.6869 17.2617ZM16.6869 14.9465C16.0534 14.9465 15.5378 15.45 15.5378 16.069C15.5378 16.6881 16.0534 17.1944 16.6869 17.1944C17.3204 17.1944 17.8387 16.6897 17.8387 16.069C17.8387 15.4484 17.3225 14.9465 16.6869 14.9465Z" fill="#464655"/>
<path d="M16.9855 18.0973C16.8449 18.3512 17.0402 18.575 16.9341 18.7681C16.9341 18.7681 16.7085 18.7246 16.5913 18.7192C16.51 18.7154 16.3901 18.715 16.3207 18.7509C16.1967 18.8125 16.0895 18.896 16.0334 18.9893C15.9309 19.1595 16.0561 19.3166 16.2401 19.2331C16.4058 19.3966 16.6007 19.2919 16.8396 19.2014C16.8886 19.183 16.9607 19.203 17.0207 19.216C17.0806 19.229 17.1541 19.2408 17.2135 19.216C17.3544 19.1576 17.4498 18.9852 17.5384 18.7081L17.6772 18.7715C17.6786 18.6531 17.6299 18.563 17.5658 18.4811L17.7315 18.5411C17.7296 18.44 17.6913 18.3437 17.6246 18.2725L17.7838 18.336C17.7743 18.286 17.7691 18.2352 17.7681 18.1842C17.7664 18.1252 17.7793 18.0392 17.7681 18.0001C17.7495 17.9328 17.725 17.9049 17.7091 17.8566C17.6964 17.8173 17.6795 17.736 17.6795 17.736C17.1996 17.51 17.303 16.9776 17.3913 16.7519L16.4776 17.4293C16.2927 17.5585 16.5464 18.0233 16.9817 18.0982L16.9855 18.0973Z" fill="#FF9811"/>
<path d="M16.4444 19.3287C16.368 19.3306 16.2939 19.3005 16.2377 19.2449C16.1491 19.2827 16.0644 19.2693 16.0171 19.2087C15.9699 19.148 15.974 19.0636 16.0233 18.982C16.0774 18.8922 16.181 18.8058 16.3148 18.7395C16.3694 18.7125 16.4625 18.7017 16.5903 18.7077C16.6949 18.7125 16.8874 18.748 16.9273 18.7553C16.9701 18.6709 16.9551 18.5779 16.9391 18.4798C16.9205 18.3665 16.8995 18.2385 16.9686 18.1052C16.6748 18.048 16.4533 17.808 16.4152 17.6144C16.3978 17.5274 16.419 17.4579 16.4743 17.4188L17.417 16.7204L17.4034 16.7553C17.3738 16.8277 17.1432 17.469 17.6863 17.7249L17.6913 17.7271V17.7328C17.6987 17.7731 17.7079 17.8129 17.7191 17.8522C17.7255 17.871 17.7333 17.8893 17.7424 17.9068C17.7574 17.9349 17.7693 17.9649 17.7778 17.996C17.7836 18.033 17.7844 18.0708 17.7802 18.108C17.7787 18.1341 17.777 18.1607 17.7778 18.1827C17.7787 18.233 17.784 18.2832 17.7935 18.3325L17.7976 18.3528L17.6574 18.2969C17.7111 18.3649 17.7408 18.4512 17.7412 18.5404V18.556L17.5956 18.5033C17.6539 18.5785 17.6861 18.673 17.6869 18.7709V18.7874L17.5439 18.7239C17.4468 19.0214 17.3484 19.1722 17.2161 19.2271C17.1547 19.2525 17.0812 19.2417 17.0174 19.2271L16.9979 19.2227C16.9441 19.2103 16.883 19.1966 16.842 19.2119L16.7637 19.242C16.65 19.2871 16.5431 19.3287 16.4444 19.3287ZM16.2433 19.2188L16.2483 19.2236C16.3907 19.3646 16.5531 19.3011 16.759 19.2207L16.8375 19.1906C16.8839 19.1731 16.948 19.1877 17.0047 19.2004L17.0239 19.2049C17.0847 19.2182 17.1544 19.229 17.2108 19.2049C17.3387 19.1519 17.4344 19.002 17.5304 18.7039L17.5342 18.6928L17.6686 18.7534C17.6619 18.6538 17.6234 18.5597 17.5596 18.4871L17.536 18.4569L17.7226 18.5242C17.7166 18.4316 17.6797 18.3443 17.6187 18.2785L17.6299 18.2607L17.7719 18.3173C17.7649 18.2729 17.7607 18.228 17.7595 18.183C17.7595 18.1598 17.7595 18.1325 17.7619 18.1061C17.7664 18.0715 17.7664 18.0363 17.7619 18.0017C17.7537 17.9721 17.7424 17.9435 17.7282 17.9166C17.7185 17.8981 17.7102 17.8788 17.7034 17.8588C17.6925 17.8249 17.6798 17.7617 17.676 17.7423C17.1712 17.5007 17.3216 16.9366 17.3747 16.7801L16.4887 17.4369C16.4406 17.4709 16.4223 17.5322 16.4377 17.6093C16.4752 17.7998 16.6967 18.0353 16.989 18.0855L17.0041 18.0884L16.9961 18.1023C16.9229 18.2338 16.943 18.3563 16.9624 18.4757C16.9799 18.5807 16.9961 18.6798 16.9447 18.7731L16.9412 18.7798L16.9341 18.7782C16.9317 18.7782 16.7076 18.735 16.5927 18.7296C16.4678 18.7236 16.3783 18.7338 16.3269 18.7592C16.1967 18.8227 16.0963 18.9071 16.044 18.9934C16 19.0665 15.9973 19.1433 16.0366 19.1938C16.0759 19.2442 16.1565 19.2573 16.2392 19.2207L16.2433 19.2188Z" fill="#464655"/>
<path d="M17.004 17.6503C16.9399 17.6249 16.8443 17.5687 16.8233 17.4684L16.8927 17.3125C16.8632 17.4884 16.9721 17.6173 17.004 17.6503ZM16.8992 17.7455C16.8351 17.7201 16.7394 17.6636 16.7185 17.5636L16.7879 17.4078C16.7583 17.5836 16.8673 17.7122 16.8992 17.7455ZM16.8106 17.8573C16.7462 17.8319 16.6505 17.7754 16.6296 17.6754L16.699 17.5195C16.6694 17.6954 16.7787 17.8243 16.8106 17.8573ZM16.6978 18.9049C16.6247 18.9006 16.5514 18.9025 16.4786 18.9106C16.4242 18.9195 16.3723 18.9412 16.3266 18.9741C16.2746 19.0122 16.2123 19.0608 16.1951 19.1344C16.1903 19.1653 16.1932 19.197 16.2037 19.2262C16.2111 19.2519 16.2185 19.2719 16.2185 19.2719L16.2799 19.2462C16.2739 19.2343 16.269 19.2219 16.2651 19.209C16.2593 19.1896 16.2573 19.169 16.2595 19.1487C16.2699 19.103 16.3162 19.0611 16.3647 19.0259C16.4801 18.9281 16.5921 18.9573 16.6978 18.9055V18.9049ZM17.1768 18.8789C17.2255 18.8087 17.3085 18.7281 17.3375 18.6303C17.3664 18.5325 17.3767 18.4297 17.344 18.3465C17.2813 18.3754 17.1538 18.8598 17.1768 18.8789ZM17.5282 18.0998C17.512 18.1995 17.3608 18.1951 17.2952 18.1716C17.2781 18.1651 17.2623 18.1549 17.2488 18.1418C17.2354 18.1286 17.2245 18.1127 17.2169 18.0949C17.2093 18.0771 17.205 18.0579 17.2044 18.0384C17.2038 18.0188 17.2069 17.9994 17.2134 17.9811C17.2397 18.0887 17.4045 18.1395 17.5282 18.0998ZM17.5525 17.8551C17.5362 17.9547 17.385 17.9519 17.3194 17.9265C17.3023 17.92 17.2865 17.9099 17.273 17.8967C17.2595 17.8836 17.2486 17.8676 17.241 17.8499C17.2334 17.8321 17.2291 17.8129 17.2286 17.7933C17.228 17.7738 17.2311 17.7543 17.2376 17.736C17.2639 17.8436 17.4278 17.8944 17.5522 17.8538L17.5525 17.8551Z" fill="#464655"/>
<path d="M19.8185 13.9757C19.8465 14.1122 19.7907 14.2058 19.7175 14.2433C19.6076 14.2998 19.5054 14.2617 19.4136 14.1773C19.294 14.0678 19.2131 13.9233 19.1064 13.8252C18.9832 13.7176 18.8261 13.6653 18.6679 13.6792C18.5339 13.6867 18.407 13.7468 18.3114 13.8481C18.1304 14.0436 18.084 14.3935 18.2733 14.6811C18.4505 14.9519 18.9877 15.1443 19.1912 15.3081C19.374 15.4551 19.4546 15.5522 19.4895 15.6605C19.5321 15.7826 19.53 15.9176 19.4836 16.0382C19.4183 16.197 19.2627 16.2658 19.0303 16.2706C18.7216 16.2773 18.4304 15.9966 18.1325 15.9497C17.5743 15.8617 17.416 16.0947 16.8974 16.1014C15.8706 16.1144 15.4503 15.7808 15.4503 15.7808L14.3384 17.1662C13.9982 17.3027 13.9805 17.8055 14.3384 18.0766C14.2302 18.1502 14.1439 18.2555 14.0897 18.3801C14.0452 18.4951 13.9872 18.6036 13.9173 18.703C13.9173 18.703 13.6922 18.6598 13.5753 18.6544C13.4941 18.6506 13.373 18.6512 13.3033 18.6862C13.1796 18.7474 13.0732 18.8306 13.0168 18.9236C12.9144 19.0938 13.0393 19.2506 13.2236 19.1671C13.3892 19.3309 13.5839 19.2281 13.8228 19.1385C13.8718 19.1201 13.9442 19.1385 14.0041 19.1528C14.0641 19.1671 14.1385 19.1789 14.197 19.1528C14.3349 19.0916 14.3969 18.9338 14.4952 18.8236C14.5416 18.7716 14.6326 18.6649 14.6326 18.6649L14.7232 18.7881C14.7844 18.6858 14.7873 18.5836 14.7731 18.4817L14.8871 18.6131C14.9111 18.5708 14.9271 18.5237 14.9341 18.4747C14.9411 18.4256 14.939 18.3756 14.9279 18.3274L15.0363 18.4589C15.0526 18.4112 15.0731 18.3653 15.0974 18.3217C15.1269 18.2697 15.1807 18.2005 15.191 18.1614C15.2031 18.1107 15.2109 18.059 15.2143 18.0068C15.277 18.0652 15.3242 18.0957 15.4045 18.0839C15.4161 17.9617 15.4243 17.9252 15.4542 17.8751C15.8517 17.8544 16.222 17.7862 16.5563 17.6487C16.8096 17.5474 17.0449 17.4003 17.2521 17.2138C17.3034 17.1726 17.3527 17.1286 17.3998 17.082C17.45 17.0268 17.6576 17.0547 17.7621 17.0963C17.8129 17.1163 17.8761 17.1995 17.8761 17.1995C17.9603 17.4293 18.1582 17.9779 18.703 18.0954C18.5622 18.3478 18.7565 18.5751 18.6505 18.7681C18.5374 18.7447 18.4232 18.7276 18.3085 18.7166C18.227 18.7128 18.1088 18.7138 18.0394 18.7484C17.9154 18.81 17.8061 18.8928 17.75 18.9862C17.6475 19.156 17.7725 19.3157 17.9567 19.2322C18.1221 19.396 18.317 19.2903 18.556 19.2005C18.605 19.182 18.6773 19.2005 18.7373 19.2147C18.7972 19.229 18.8711 19.2395 18.9301 19.2147C19.071 19.1563 19.1682 18.9846 19.2577 18.7068L19.395 18.7668C19.3965 18.6487 19.3477 18.5595 19.2839 18.4779L19.4505 18.5379C19.4485 18.4365 19.4097 18.3399 19.3424 18.2687L19.5031 18.3322C19.4925 18.2824 19.4867 18.2315 19.4856 18.1804C19.4839 18.1217 19.4963 18.036 19.4856 17.9973C19.467 17.9297 19.4428 17.902 19.4266 17.8541C19.4157 17.8146 19.407 17.7744 19.4003 17.7338C19.1129 17.5912 19.0494 17.3563 19.0459 17.1439C19.0421 16.8639 18.9987 16.7052 18.8179 16.5357C18.8792 16.5298 18.9409 16.5298 19.0022 16.5357C19.3474 16.5398 19.6304 16.3665 19.7148 16.1116C19.7712 15.9417 19.7718 15.7509 19.7033 15.6036C19.605 15.3951 19.5013 15.3052 19.3031 15.1458C19.0799 14.9658 18.5648 14.7649 18.426 14.556C18.2784 14.3316 18.3212 14.1014 18.4437 13.969C18.5663 13.8366 18.7606 13.7785 18.973 13.9576C19.1002 14.0652 19.1776 14.2179 19.2828 14.3125C19.4053 14.423 19.6191 14.5141 19.8031 14.3985C19.9939 14.2785 20.0193 14.1014 20.0007 13.9506C20.0326 13.8268 20.1427 13.7211 20.3353 13.7112C20.2742 13.5843 19.9933 13.4573 19.8737 13.7214C19.7305 13.5119 19.4564 13.6138 19.4053 13.8131C19.4814 13.7953 19.5607 13.8011 19.6339 13.8298C19.707 13.8586 19.7711 13.9092 19.8185 13.9757Z" fill="#FF9811"/>
<path d="M18.1629 19.33C18.0872 19.3313 18.014 19.3013 17.9583 19.2462C17.8697 19.284 17.7858 19.2703 17.7388 19.2097C17.6919 19.149 17.6948 19.063 17.7441 18.9811C17.7976 18.8929 17.9019 18.8068 18.038 18.7395C18.0935 18.7119 18.1857 18.7008 18.3118 18.7078C18.4246 18.7182 18.5369 18.735 18.6481 18.7579C18.6913 18.6735 18.6762 18.5802 18.6602 18.4817C18.6419 18.3678 18.6213 18.2392 18.6898 18.1056C18.1523 17.9808 17.9547 17.4408 17.8703 17.2087C17.862 17.1983 17.8056 17.1278 17.7616 17.1103C17.6553 17.0681 17.4553 17.0437 17.4101 17.0932C17.3817 17.1237 17.351 17.1518 17.3183 17.177C17.2997 17.1916 17.2808 17.2071 17.2592 17.2256C17.051 17.4127 16.8147 17.5605 16.5605 17.6627C16.2433 17.7929 15.8833 17.8668 15.4604 17.8894C15.4341 17.9344 15.4261 17.9703 15.4152 18.0887V18.0973H15.4069C15.3316 18.1081 15.2823 18.083 15.2241 18.0313C15.2204 18.0769 15.2131 18.1222 15.2023 18.1665C15.1882 18.2021 15.1697 18.2355 15.1473 18.2659C15.1329 18.2875 15.1178 18.31 15.1078 18.3294C15.0841 18.3724 15.0643 18.4178 15.0487 18.4649L15.0428 18.483L14.9465 18.3659C14.9598 18.4546 14.9427 18.5455 14.8984 18.6217L14.8913 18.6338L14.79 18.517C14.8029 18.6142 14.7833 18.7132 14.7348 18.7964L14.7268 18.8097L14.6347 18.6827C14.6113 18.71 14.5434 18.7884 14.5053 18.831C14.4736 18.8679 14.444 18.907 14.4167 18.9478C14.3576 19.0325 14.2986 19.1202 14.2029 19.1627C14.1415 19.1903 14.0679 19.1773 14.0038 19.1627L13.9861 19.1589C13.9315 19.1465 13.8698 19.1325 13.8281 19.1481L13.7534 19.1767C13.5505 19.2554 13.3748 19.3237 13.2218 19.1792C13.1332 19.217 13.0485 19.2037 13.0015 19.1433C12.9545 19.083 12.9587 18.9983 13.0077 18.9167C13.0632 18.83 13.1654 18.7427 13.2995 18.6764C13.3686 18.6421 13.4882 18.6398 13.5759 18.6446C13.6816 18.6494 13.8757 18.6852 13.9132 18.6922C13.981 18.5948 14.0372 18.4887 14.0806 18.3764C14.1338 18.255 14.2165 18.1514 14.3198 18.0764C14.1409 17.9344 14.0455 17.7208 14.0703 17.5148C14.0785 17.4346 14.1075 17.3586 14.154 17.2954C14.2005 17.2321 14.2625 17.1842 14.3331 17.157L15.4509 15.7659L15.4586 15.7719C15.4628 15.7751 15.8721 16.0894 16.8407 16.0894H16.8998C17.0787 16.0852 17.2563 16.0548 17.4276 15.9989C17.6275 15.9414 17.8168 15.8875 18.1363 15.9379C18.2704 15.9589 18.4048 16.0278 18.5347 16.0941C18.6963 16.1767 18.8625 16.2624 19.0324 16.2586C19.271 16.2538 19.4163 16.1798 19.4753 16.0329C19.5208 15.9148 19.5228 15.7826 19.481 15.663C19.4464 15.5564 19.3628 15.4589 19.1856 15.316C19.0862 15.245 18.9818 15.1823 18.8735 15.1284C18.6428 15.004 18.3815 14.863 18.2654 14.6865C18.0622 14.3776 18.1313 14.0265 18.3047 13.8395C18.402 13.7361 18.5313 13.6748 18.6679 13.6671C18.8289 13.6529 18.9887 13.7063 19.1139 13.816C19.1677 13.8674 19.2171 13.9238 19.2615 13.9846C19.31 14.0505 19.3636 14.1118 19.4216 14.1681C19.5226 14.2608 19.6186 14.2817 19.7146 14.2316C19.7786 14.1998 19.8374 14.1151 19.8105 13.9776C19.764 13.915 19.7021 13.8676 19.6317 13.8409C19.5614 13.8142 19.4856 13.8092 19.4127 13.8265L19.3959 13.83L19.4006 13.8125C19.4162 13.7588 19.4452 13.7107 19.4846 13.6735C19.5239 13.6363 19.572 13.6115 19.6236 13.6017C19.6705 13.5918 19.719 13.596 19.7637 13.6139C19.8085 13.6318 19.8478 13.6626 19.8773 13.703C19.8964 13.66 19.9263 13.6236 19.9637 13.598C20.0011 13.5724 20.0444 13.5586 20.0887 13.5583H20.092C20.2063 13.5583 20.3144 13.6357 20.3495 13.7084L20.3572 13.7237H20.341C20.1732 13.7322 20.0521 13.8189 20.0161 13.9525C20.0406 14.1557 19.9724 14.3094 19.8135 14.4094C19.6363 14.5208 19.4184 14.4459 19.2819 14.3224C19.232 14.2741 19.1863 14.221 19.1455 14.1637C19.0947 14.0917 19.0367 14.0262 18.9724 13.9681C18.709 13.7459 18.5114 13.9198 18.4571 13.9786C18.3425 14.1021 18.2932 14.3278 18.4405 14.55C18.5229 14.6751 18.7429 14.7973 18.9559 14.9154C19.0953 14.9929 19.227 15.0659 19.3153 15.1376C19.5117 15.2964 19.6189 15.3878 19.7184 15.5995C19.7854 15.7421 19.7902 15.9344 19.7305 16.1144C19.6437 16.3767 19.3522 16.5513 19.0078 16.5459C18.9922 16.5459 18.9757 16.5459 18.9588 16.544C18.9218 16.541 18.8845 16.541 18.8475 16.544C19.0247 16.717 19.0586 16.8837 19.0622 17.1443C19.066 17.424 19.1768 17.6081 19.4101 17.724L19.4148 17.7265V17.7322C19.4148 17.7322 19.4287 17.8125 19.4408 17.8506C19.4471 17.8695 19.4549 17.8878 19.4641 17.9052C19.4789 17.9335 19.4907 17.9634 19.4993 17.9944C19.5053 18.0316 19.5062 18.0694 19.5019 18.1068C19.5005 18.1322 19.4993 18.1586 19.4999 18.1805C19.5011 18.2307 19.5068 18.2807 19.517 18.3297L19.522 18.35L19.3797 18.2944C19.4338 18.3625 19.464 18.449 19.4647 18.5386V18.5538L19.3171 18.5011C19.3759 18.5756 19.4082 18.6701 19.4083 18.7678V18.784L19.2671 18.7205C19.1703 19.0167 19.0713 19.1671 18.9373 19.223C18.8758 19.2484 18.8023 19.2376 18.7385 19.223L18.7208 19.2192C18.6662 19.2068 18.6027 19.1929 18.5628 19.2084C18.5353 19.2186 18.5085 19.229 18.4825 19.2402C18.3676 19.2884 18.261 19.33 18.1629 19.33ZM17.9627 19.2202L17.9674 19.2252C18.1095 19.3656 18.2713 19.3024 18.476 19.2224C18.5022 19.2119 18.5291 19.2014 18.5563 19.1906C18.6033 19.1729 18.6682 19.1878 18.7255 19.2008L18.7432 19.2046C18.8041 19.2179 18.8738 19.2284 18.9305 19.2046C19.0581 19.1513 19.1573 18.9973 19.2518 18.7043L19.2553 18.6935L19.3885 18.7516C19.3823 18.6522 19.3438 18.5583 19.2798 18.4862L19.2562 18.4544L19.4437 18.5221C19.4374 18.4291 19.4 18.3418 19.3386 18.276L19.3498 18.2579L19.4928 18.3141C19.4849 18.2699 19.4803 18.2251 19.4792 18.1802C19.4792 18.1573 19.4792 18.1306 19.4813 18.1046C19.485 18.0696 19.4844 18.0343 19.4795 17.9995C19.4712 17.97 19.4599 17.9416 19.4458 17.9148C19.4363 17.8962 19.4281 17.8769 19.4213 17.857C19.4106 17.8188 19.402 17.78 19.3956 17.7408C19.1608 17.6224 19.0448 17.4271 19.0412 17.1437C19.0377 16.8817 19.0019 16.717 18.8168 16.5433L18.8002 16.5278L18.8218 16.524C18.8674 16.5179 18.9135 16.5168 18.9594 16.5205C18.9762 16.5205 18.9925 16.5224 19.0078 16.5224H19.0197C19.351 16.5224 19.6277 16.3557 19.7107 16.1056C19.7683 15.9313 19.7642 15.7452 19.6998 15.6078C19.6023 15.4008 19.4966 15.3097 19.3026 15.1538C19.2155 15.0837 19.0846 15.011 18.9461 14.9338C18.7311 14.8144 18.5085 14.691 18.4234 14.5614C18.2689 14.3268 18.3215 14.0906 18.442 13.9602C18.5625 13.8297 18.7651 13.7624 18.9848 13.9481C19.0506 14.0071 19.1101 14.0739 19.162 14.1471C19.2017 14.2044 19.246 14.2578 19.2946 14.3065C19.4263 14.4249 19.6348 14.497 19.8032 14.3913C19.955 14.296 20.0196 14.1487 19.9957 13.9541V13.9519V13.9497C20.0323 13.8087 20.1537 13.7176 20.3229 13.7037C20.2949 13.6657 20.2593 13.6349 20.2188 13.6136C20.1783 13.5923 20.1338 13.581 20.0887 13.5805C20.0273 13.5805 19.9429 13.6081 19.8882 13.7287L19.8805 13.7452L19.8705 13.7303C19.8439 13.689 19.8067 13.6569 19.7635 13.638C19.7202 13.619 19.6727 13.6141 19.6269 13.6237C19.5819 13.6322 19.5398 13.653 19.5045 13.684C19.4693 13.7151 19.442 13.7554 19.4254 13.8011C19.5001 13.7876 19.5768 13.796 19.6473 13.8256C19.7179 13.8551 19.7797 13.9045 19.8262 13.9687L19.8283 13.9732C19.8593 14.1237 19.7902 14.2183 19.7217 14.2532C19.6189 14.3062 19.5129 14.2849 19.4065 14.1859C19.3476 14.1289 19.2932 14.0667 19.2441 13.9998C19.2004 13.9402 19.1521 13.8847 19.0997 13.8338C18.9786 13.728 18.8241 13.6765 18.6685 13.6903C18.5374 13.698 18.4135 13.757 18.32 13.856C18.1514 14.0364 18.0838 14.376 18.2816 14.6748C18.395 14.8465 18.6538 14.9862 18.882 15.1094C18.9916 15.164 19.097 15.2277 19.1974 15.2998C19.3785 15.4456 19.4632 15.5459 19.4993 15.6573C19.5429 15.7821 19.5407 15.9202 19.4931 16.0433C19.429 16.1992 19.2778 16.2773 19.0306 16.2824H19.02C18.8496 16.2824 18.6839 16.1976 18.5235 16.1154C18.395 16.0497 18.2619 15.9817 18.131 15.9611C17.8153 15.9113 17.629 15.9649 17.4305 16.0217C17.258 16.078 17.0792 16.1086 16.8989 16.1129C15.9565 16.1249 15.5174 15.8405 15.4545 15.7954L14.3444 17.1757H14.342C14.2746 17.2013 14.2152 17.2468 14.1707 17.307C14.1262 17.3672 14.0984 17.4396 14.0904 17.516C14.0662 17.7186 14.1633 17.9287 14.3444 18.0665L14.3576 18.0767L14.3435 18.0852C14.2373 18.1577 14.1526 18.2613 14.0992 18.3837C14.0542 18.4996 13.9959 18.609 13.9256 18.7094L13.9217 18.7148H13.9155C13.9132 18.7148 13.6899 18.6719 13.5747 18.6665C13.4519 18.6605 13.3597 18.6713 13.3089 18.6983C13.179 18.7617 13.0786 18.8456 13.0269 18.9316C12.9829 19.0046 12.9799 19.0814 13.0192 19.1319C13.0585 19.1824 13.1388 19.1954 13.2218 19.1589L13.2277 19.156L13.2327 19.1608C13.376 19.3027 13.5396 19.2392 13.7466 19.1586L13.8216 19.13C13.8686 19.1122 13.9336 19.1268 13.9908 19.1398L14.0083 19.144C14.0694 19.1573 14.1391 19.1694 14.1952 19.144C14.2838 19.1037 14.3429 19.017 14.4005 18.9364C14.4276 18.8947 14.4572 18.8549 14.4891 18.8173C14.5354 18.7652 14.6264 18.6586 14.6264 18.6586L14.6347 18.649L14.7233 18.77C14.7678 18.6829 14.7821 18.5817 14.7637 18.4843L14.7587 18.449L14.8863 18.5964C14.9278 18.5152 14.9394 18.4202 14.9188 18.3303L14.9117 18.2903L15.0333 18.4386C15.0492 18.3965 15.0679 18.3557 15.0895 18.3167C15.1004 18.2964 15.1154 18.2735 15.1302 18.2513C15.151 18.2229 15.1685 18.1919 15.1822 18.1589C15.194 18.1089 15.2016 18.0579 15.2049 18.0065V17.9843L15.2206 17.9989C15.2796 18.0548 15.3245 18.0821 15.3945 18.0748C15.4058 17.9564 15.4152 17.9189 15.445 17.8697L15.4477 17.8649H15.4554C15.8786 17.843 16.238 17.7697 16.5546 17.6395C16.8065 17.5381 17.0406 17.3916 17.2471 17.2062C17.2681 17.1871 17.2873 17.1716 17.3062 17.1567C17.3377 17.1321 17.3674 17.1048 17.3948 17.0751C17.4512 17.0132 17.6688 17.0475 17.7684 17.0868C17.8209 17.1078 17.8841 17.1897 17.8865 17.1932L17.8892 17.1995C17.9733 17.43 18.1703 17.9697 18.7078 18.0856L18.7223 18.0887L18.7146 18.1021C18.6413 18.2335 18.6611 18.356 18.6803 18.4767C18.6972 18.5821 18.7134 18.6814 18.662 18.7748L18.6582 18.7814H18.6511C18.5385 18.7579 18.4248 18.7407 18.3106 18.73C18.1895 18.7243 18.0982 18.7348 18.0466 18.7617C17.9137 18.8275 17.8124 18.9106 17.7613 18.9954C17.717 19.0687 17.7143 19.1462 17.7542 19.1976C17.7941 19.249 17.8738 19.2611 17.9562 19.2252L17.9627 19.2202Z" fill="#464655"/>
<path d="M18.4179 16.3614C18.5414 16.3382 18.6781 16.4214 18.8113 16.4741C18.8907 16.5059 18.9622 16.4951 18.9885 16.5144L18.868 16.5379L19.0183 16.8217C18.9469 16.6802 18.5517 16.3925 18.4176 16.3614H18.4179ZM18.1182 17.1551C18.1495 17.3982 18.2236 17.5852 18.3544 17.7265C18.4853 17.8678 18.6695 17.9557 18.9099 18.0122C18.8267 17.8811 18.5493 17.783 18.4247 17.6655C18.257 17.5065 18.2251 17.2376 18.1182 17.1548V17.1551ZM18.8337 18.7294C18.8701 18.6522 18.9383 18.5592 18.9504 18.4582C18.9625 18.3573 18.9554 18.2538 18.9091 18.1773C18.8515 18.2157 18.8078 18.7138 18.8337 18.729V18.7294ZM18.0068 17.0294C18.0585 16.9417 17.9392 16.8506 17.8722 16.8297C17.8353 16.8189 17.796 16.8229 17.7616 16.8409C17.7273 16.859 17.7002 16.8898 17.6855 16.9278C17.7765 16.8589 17.9363 16.9205 18.0068 17.0294ZM16.4711 16.9535C16.5175 17.1309 17.0269 17.3614 17.1303 17.3075L17.278 17.217C17.094 17.317 16.6126 17.1262 16.4714 16.9535H16.4711ZM16.2186 16.9929C16.211 17.137 16.7892 17.483 16.9242 17.4589L17.076 17.3757C16.8763 17.4881 16.2237 17.0836 16.2195 16.9929H16.2186ZM16.0851 17.164C16.1105 17.3455 16.578 17.6309 16.6867 17.589L16.8435 17.5154C16.5996 17.577 16.1802 17.3417 16.0851 17.164ZM15.9395 17.33C15.9277 17.4687 16.2296 17.69 16.3716 17.7173L16.5352 17.6598C16.3285 17.6944 15.9983 17.4732 15.9395 17.33ZM15.7092 17.3697C15.6927 17.4878 15.9478 17.7859 16.0621 17.7967L16.2319 17.7605C16.0674 17.8055 15.726 17.4567 15.7092 17.3697ZM15.5733 17.55C15.5666 17.6135 15.6427 17.789 15.7576 17.8455L15.9307 17.829C15.7104 17.804 15.5937 17.5932 15.5733 17.55ZM15.3666 17.6522C15.3666 17.7201 15.3861 17.8278 15.4738 17.8833L15.6475 17.877C15.5881 17.8643 15.5321 17.8375 15.4835 17.7986C15.4349 17.7597 15.395 17.7097 15.3666 17.6522ZM14.5258 17.8963C14.5421 17.996 14.6933 17.9916 14.7588 17.9678C14.776 17.9613 14.7918 17.9512 14.8053 17.938C14.8187 17.9249 14.8296 17.9089 14.8372 17.8911C14.8448 17.8734 14.849 17.8541 14.8495 17.8346C14.8501 17.815 14.847 17.7955 14.8403 17.7773C14.8167 17.8862 14.6528 17.937 14.5282 17.8963H14.5258ZM14.5297 18.1281C14.5459 18.2278 14.6971 18.2249 14.7627 18.1998C14.7798 18.1933 14.7956 18.1832 14.809 18.17C14.8225 18.1568 14.8333 18.1409 14.8409 18.1231C14.8485 18.1054 14.8527 18.0861 14.8533 18.0666C14.8539 18.0471 14.8508 18.0276 14.8442 18.0094C14.8206 18.1182 14.6578 18.1687 14.532 18.1281H14.5297ZM14.1262 18.8322C14.1971 18.7833 14.3034 18.737 14.3661 18.6551C14.4287 18.5732 14.4747 18.4808 14.4741 18.3916C14.4036 18.3973 14.11 18.8062 14.1262 18.8322ZM18.4153 18.8986C18.3422 18.8942 18.2689 18.8961 18.1961 18.9043C18.1417 18.9132 18.0898 18.9348 18.044 18.9678C17.9921 19.0059 17.9295 19.0544 17.9126 19.1281C17.9078 19.1589 17.9107 19.1906 17.9212 19.2198C17.9286 19.2452 17.936 19.2655 17.936 19.2655L17.9974 19.2398C17.9913 19.228 17.9863 19.2156 17.9826 19.2027C17.9768 19.1832 17.9748 19.1627 17.9767 19.1424C17.9873 19.0967 18.0337 19.0547 18.0821 19.0195C18.1976 18.9217 18.3095 18.9509 18.4153 18.8992V18.8986ZM13.6936 18.8351C13.6204 18.8307 13.5471 18.8326 13.4742 18.8408C13.4198 18.8497 13.368 18.8714 13.3224 18.9043C13.2704 18.9424 13.2078 18.9909 13.1907 19.063C13.1859 19.0939 13.189 19.1256 13.1995 19.1547C13.2069 19.1801 13.214 19.2005 13.214 19.2005L13.2754 19.1747C13.2695 19.1629 13.2646 19.1505 13.2609 19.1376C13.2551 19.1181 13.2531 19.0976 13.255 19.0773C13.2657 19.0316 13.3117 18.9897 13.3602 18.9544C13.4756 18.8567 13.5876 18.8859 13.6936 18.8341V18.8351Z" fill="#464655"/>
<path d="M15.6029 16.5656L15.5181 16.6132C14.9402 16.8313 14.4951 16.8243 13.9139 16.6132L13.8312 16.8418C13.769 17.0646 13.7902 17.3047 13.8903 17.511C13.9455 17.4852 14.0004 17.4297 14.0557 17.376C14.0828 17.4652 14.0707 17.5922 14.1658 17.6935C14.2513 17.6464 14.325 17.5779 14.3808 17.4938C14.3994 17.616 14.4467 17.7084 14.5421 17.7745C14.6377 17.7084 14.685 17.6157 14.7036 17.4938C14.7435 17.5532 14.8105 17.6557 14.9186 17.716C15.0137 17.6138 15.0125 17.5516 15.0423 17.4497C15.0908 17.5557 15.1522 17.6084 15.2603 17.6691C15.3554 17.5668 15.3433 17.4399 15.3704 17.3516C15.4162 17.4237 15.4741 17.4741 15.5358 17.4865C15.588 17.4084 15.6164 17.3148 15.617 17.2186C15.6836 17.2713 15.7624 17.3035 15.8447 17.3116C15.865 17.2018 15.865 17.0887 15.8447 16.9789C15.9286 17.0071 15.9446 17.0329 16.0476 17.0329C16.1164 16.7856 16.0346 16.5176 15.7951 16.3278L15.6029 16.5656Z" fill="#FF9811"/>
<path d="M14.5425 17.7887L14.5369 17.7849C14.4943 17.7558 14.4578 17.7172 14.43 17.6719C14.4021 17.6265 14.3835 17.5754 14.3754 17.5217C14.3207 17.5982 14.2509 17.6607 14.171 17.7046L14.1645 17.7081L14.1592 17.7024C14.0892 17.6271 14.0753 17.5402 14.0632 17.4633C14.0594 17.4395 14.0558 17.417 14.0508 17.3963C14.0051 17.4462 13.9525 17.4883 13.8949 17.5211L13.886 17.5252L13.8816 17.5163C13.7802 17.3075 13.7582 17.0645 13.8202 16.8386L13.9067 16.5995L13.9161 16.6027C14.5024 16.8154 14.9498 16.8154 15.5136 16.6027L15.5954 16.5567L15.7932 16.3119L15.8009 16.3179C16.0348 16.5033 16.1305 16.7716 16.057 17.0354L16.0549 17.0433H16.046C15.9958 17.0449 15.9459 17.0341 15.9001 17.0116C15.8874 17.0059 15.8733 16.9998 15.8564 16.9935C15.8741 17.0985 15.8733 17.2062 15.8541 17.311L15.8523 17.3208H15.8431C15.7655 17.3133 15.6908 17.2845 15.6264 17.2373C15.6216 17.3287 15.5928 17.4168 15.5434 17.4913L15.5396 17.4967H15.5333C15.4682 17.479 15.4114 17.436 15.3739 17.376C15.3694 17.3954 15.3662 17.416 15.3627 17.4395C15.3505 17.5163 15.3367 17.6033 15.267 17.6786L15.2616 17.6843L15.2549 17.6808C15.1609 17.629 15.0948 17.5783 15.0443 17.4808C15.0416 17.491 15.0393 17.5008 15.0366 17.5103C15.0214 17.5929 14.9823 17.6682 14.925 17.7256L14.9197 17.7313L14.9132 17.7278C14.831 17.6781 14.7608 17.6083 14.7085 17.524C14.7003 17.5775 14.6817 17.6286 14.6539 17.6738C14.626 17.7191 14.5896 17.7575 14.547 17.7865L14.5425 17.7887ZM14.3875 17.4665L14.3916 17.4932C14.397 17.5472 14.4133 17.5992 14.4393 17.6457C14.4654 17.6923 14.5006 17.7321 14.5425 17.7624C14.5845 17.7321 14.6197 17.6923 14.6459 17.6458C14.672 17.5993 14.6883 17.5472 14.6937 17.4932L14.6976 17.4665L14.7156 17.4932C14.754 17.5503 14.8178 17.6456 14.917 17.7024C14.9687 17.6483 15.0039 17.5787 15.018 17.5027C15.0224 17.4852 15.0272 17.4665 15.0331 17.4465L15.041 17.4198L15.0523 17.4449C15.1007 17.5513 15.1624 17.6021 15.259 17.6554C15.3198 17.5865 15.3325 17.5059 15.3438 17.4332C15.3477 17.4038 15.3536 17.3747 15.3615 17.3462L15.368 17.3249L15.3798 17.3433C15.4141 17.4051 15.4683 17.4511 15.5322 17.4725C15.5804 17.3972 15.6066 17.3081 15.6075 17.2167V17.1948L15.624 17.2075C15.6864 17.257 15.7598 17.2881 15.8369 17.2976C15.8549 17.1926 15.8541 17.0849 15.8346 16.9802L15.8316 16.9624L15.8479 16.9678C15.873 16.9764 15.8925 16.9846 15.9093 16.9919C15.9503 17.0118 15.9949 17.0218 16.0398 17.0211C16.1057 16.7722 16.015 16.5195 15.7965 16.3424L15.6069 16.576L15.5218 16.6237C14.9554 16.8376 14.5053 16.8389 13.9188 16.6278L13.8396 16.8462C13.7805 17.0627 13.8005 17.2954 13.8955 17.4967C13.9474 17.4638 13.9953 17.4239 14.0378 17.3779L14.0597 17.3563L14.0647 17.3725C14.0726 17.401 14.0785 17.4301 14.0824 17.4595C14.0936 17.531 14.1063 17.6119 14.1672 17.6817C14.2483 17.6355 14.3184 17.5696 14.3718 17.4894L14.3875 17.4665Z" fill="#464655"/>
<path d="M16.0106 17.0246L15.8736 17.0157L15.829 17.1046C15.8266 16.984 15.7605 16.8751 15.7478 16.8097C15.7773 16.8786 15.8733 16.9573 16.0106 17.0246ZM15.7507 17.2846L15.6355 17.2405L15.58 17.323C15.593 17.203 15.5735 17.0056 15.5691 16.9399C15.5909 17.0122 15.6488 17.2002 15.7507 17.2846ZM15.4471 17.4192L15.3792 17.3748L15.3237 17.4576C15.3367 17.3373 15.3127 17.0989 15.3083 17.0322C15.3311 17.1046 15.4064 17.3379 15.448 17.4192H15.4471ZM15.1169 17.5243L15.0487 17.4799L14.9932 17.5627C15.0061 17.4298 15.0112 17.296 15.0083 17.1624C15.031 17.2348 15.0762 17.4437 15.1178 17.5243H15.1169ZM14.7779 17.564L14.71 17.5195L14.6545 17.6024C14.6672 17.4695 14.6721 17.3359 14.6692 17.2024C14.692 17.2745 14.7372 17.4837 14.7788 17.564H14.7779ZM14.2986 17.5767L14.3665 17.5322L14.4217 17.6151C14.4091 17.5033 14.4041 17.3906 14.4067 17.2779C14.3782 17.3804 14.3424 17.4802 14.2995 17.5767H14.2986ZM13.9788 17.4449L14.047 17.4005L14.1025 17.4833C14.09 17.3719 14.0851 17.2597 14.0877 17.1475C14.0587 17.2496 14.0223 17.349 13.9788 17.4449Z" fill="#464655"/>
<path d="M13.7524 15.8512C13.7524 15.8512 13.5392 16.2179 13.4967 16.4071C13.4786 16.5103 13.4705 16.6152 13.4724 16.7201C13.5488 16.7197 13.6224 16.6891 13.6792 16.6341C13.6863 16.7385 13.6756 16.843 13.7433 16.9474C13.7902 16.9335 13.8342 16.9097 13.8726 16.8775C13.911 16.8452 13.9432 16.8051 13.9671 16.7595C13.9724 16.8893 13.9966 16.9658 14.0708 17.0881C14.1617 17.0598 14.2329 16.9541 14.3026 16.8846C14.3026 16.9798 14.3283 17.0852 14.4145 17.2214C14.5279 17.1547 14.5938 16.9992 14.6213 16.9135C14.6508 16.996 14.7134 17.1547 14.828 17.2214C14.9142 17.0852 14.9384 16.9792 14.9399 16.8846C15.0096 16.9541 15.0811 17.0598 15.1717 17.0881C15.2459 16.9658 15.2704 16.8893 15.2757 16.7595C15.2996 16.8052 15.3317 16.8453 15.3701 16.8776C15.4085 16.9098 15.4525 16.9336 15.4996 16.9474C15.5669 16.843 15.5563 16.7385 15.5634 16.6341C15.6328 16.7011 15.7276 16.7589 15.797 16.7633C15.8105 16.7497 15.8649 16.5668 15.8386 16.4573C15.9201 16.5265 15.9898 16.5725 16.11 16.5693C16.1245 16.4712 16.1187 16.3708 16.0929 16.2754C16.2234 16.3236 16.3652 16.337 16.4662 16.2849C16.2299 15.8557 15.8575 15.7855 15.4479 15.7116C14.9839 16.1243 14.4275 16.2017 13.7536 15.8512H13.7524Z" fill="#FF9811"/>
<path d="M14.8301 17.2357L14.8219 17.2309C14.7427 17.1846 14.6742 17.0887 14.6219 16.9452C14.5965 17.0189 14.5333 17.1646 14.4208 17.2309L14.4125 17.2357L14.4072 17.2274C14.3432 17.1348 14.3043 17.0249 14.2947 16.91C14.282 16.9233 14.2696 16.9373 14.2566 16.9522C14.2017 17.0138 14.145 17.0773 14.075 17.0992L14.0676 17.1014L14.0635 17.0944C13.9949 16.9811 13.9684 16.9062 13.9598 16.7947C13.9092 16.8741 13.8341 16.9315 13.7478 16.957L13.7404 16.9595L13.7359 16.9525C13.6792 16.8649 13.6769 16.777 13.673 16.6919C13.673 16.6798 13.673 16.6678 13.673 16.656C13.6164 16.7037 13.5466 16.7299 13.4746 16.7303H13.4639V16.7189C13.4618 16.6124 13.47 16.506 13.4882 16.4014C13.5289 16.2157 13.7348 15.8605 13.7424 15.8458L13.7475 15.8373L13.7557 15.8417C14.4054 16.1792 14.9556 16.1341 15.4391 15.7033L15.4426 15.7001H15.4474C15.8514 15.7732 16.2329 15.842 16.4727 16.2785L16.4783 16.289L16.4683 16.2941C16.3773 16.3411 16.2456 16.3401 16.1047 16.2916C16.1277 16.3826 16.1322 16.4779 16.118 16.5709L16.1163 16.5795H16.108C16.0145 16.5835 15.923 16.5495 15.8517 16.4843C15.8649 16.5982 15.8177 16.756 15.8014 16.7719L15.7982 16.7751H15.7941C15.7241 16.7706 15.6343 16.7154 15.5702 16.6579C15.5702 16.6697 15.5702 16.6814 15.5687 16.6935C15.5655 16.7785 15.5622 16.8665 15.5058 16.9541L15.5011 16.9611L15.4937 16.9585C15.4073 16.9327 15.3322 16.8748 15.2817 16.7951C15.2734 16.9065 15.2468 16.9814 15.178 17.0947L15.1739 17.1017L15.1665 17.0995C15.0968 17.0776 15.0401 17.0141 14.9852 16.9522L14.9471 16.9103C14.9372 17.0252 14.8982 17.135 14.8343 17.2278L14.8301 17.2357ZM14.3139 16.8595V16.8846C14.3157 16.9928 14.3482 17.0925 14.4187 17.2065C14.5369 17.1309 14.5959 16.9614 14.6113 16.9103L14.6204 16.8785L14.6308 16.9084C14.6825 17.0566 14.7471 17.1563 14.8233 17.2052C14.8876 17.1117 14.9241 16.9995 14.9282 16.8833V16.8582L14.9453 16.8754C14.9636 16.8935 14.9816 16.9138 15.0005 16.9351C15.0516 16.9922 15.1042 17.0516 15.1656 17.0738C15.2279 16.9814 15.2622 16.8705 15.2637 16.7563V16.7189L15.2814 16.7506C15.3268 16.8382 15.4026 16.903 15.4922 16.9309C15.5413 16.8509 15.5442 16.7722 15.5472 16.6887C15.5472 16.669 15.5472 16.6497 15.5498 16.6303L15.5516 16.6078L15.5673 16.6227C15.6393 16.6925 15.7273 16.7424 15.7887 16.7497C15.8041 16.7211 15.8478 16.5592 15.8257 16.4582L15.818 16.4265L15.8419 16.4471C15.9151 16.5106 15.9804 16.5566 16.095 16.5566H16.0983C16.1103 16.4628 16.1038 16.3673 16.0793 16.2763L16.0752 16.2566L16.0929 16.2633C16.23 16.3141 16.3587 16.3192 16.4473 16.2782C16.2128 15.8617 15.8407 15.7932 15.4468 15.722C14.966 16.1478 14.3963 16.1954 13.7534 15.8643C13.7215 15.9201 13.5419 16.2389 13.5038 16.4081C13.4863 16.5065 13.4783 16.6066 13.4799 16.7068C13.5506 16.7045 13.6182 16.6753 13.6707 16.6243L13.6863 16.6093V16.6319C13.6863 16.6512 13.6884 16.6706 13.689 16.6903C13.6922 16.7735 13.6952 16.8525 13.7442 16.9325C13.8336 16.9043 13.9092 16.8396 13.9548 16.7522L13.9725 16.7205L13.9743 16.7579C13.9756 16.872 14.0098 16.9829 14.072 17.0754C14.1334 17.0532 14.186 16.9938 14.2371 16.9366C14.256 16.9154 14.274 16.8951 14.2926 16.877L14.3139 16.8595Z" fill="#464655"/>
<path d="M16.2042 16.3151L16.123 16.3065L16.1127 16.4049C16.0698 16.2924 16.0205 16.1829 15.965 16.077C15.9993 16.1436 16.1756 16.2951 16.3002 16.3151H16.2042ZM15.9529 16.5297L15.8445 16.4633L15.8563 16.6144C15.8196 16.4998 15.7762 16.3877 15.7264 16.2789C15.7766 16.336 15.8811 16.4731 15.9529 16.5297ZM15.6703 16.7347L15.5752 16.6509L15.5604 16.802C15.5443 16.6829 15.5212 16.565 15.4913 16.449C15.5306 16.5125 15.6097 16.6668 15.6703 16.7347ZM15.3623 16.8458L15.289 16.8103L15.2447 16.8992C15.2437 16.7794 15.2355 16.6598 15.2202 16.5411C15.2497 16.61 15.3106 16.7712 15.3623 16.8458ZM14.6874 16.9995L14.6245 16.9481L14.5601 17.0246C14.5878 16.9052 14.6085 16.784 14.6219 16.6617C14.6343 16.7347 14.6535 16.9151 14.6874 16.9995ZM15.0259 16.9512L14.9526 16.9157L14.9083 17.0049C14.9072 16.8851 14.8989 16.7655 14.8835 16.6468C14.9131 16.7154 14.9739 16.8766 15.0259 16.9512ZM14.2167 16.969L14.2899 16.9335L14.3342 17.0227C14.3353 16.9028 14.3435 16.783 14.3587 16.6643C14.3292 16.7331 14.2684 16.8944 14.2167 16.969ZM13.8815 16.85L13.9547 16.8144L13.999 16.9036C14.005 16.7687 14.0192 16.6343 14.0416 16.5014C14.012 16.57 13.9332 16.7754 13.8815 16.8506V16.85ZM13.5947 16.682L13.6718 16.6554L13.7049 16.7506C13.7203 16.6378 13.7436 16.5264 13.7746 16.4173C13.7208 16.5098 13.6607 16.5979 13.5947 16.6808V16.682Z" fill="#464655"/>
<path d="M15.5735 15.4868C15.6479 15.5087 15.6783 15.483 15.7642 15.4954C15.7182 15.3049 15.7052 15.2354 15.5495 15.1059C15.6641 15.1376 15.6816 15.1081 15.7545 15.1157C15.5927 14.8268 15.6222 14.5344 15.3806 14.3855C15.4562 14.189 15.4069 14.1494 15.3413 13.9713C15.3312 13.9249 15.3284 13.877 15.3331 13.8297C15.3331 13.8297 15.1263 13.8713 15.0519 13.9614C15.0091 14.0132 14.9548 14.0865 14.9548 14.0865C14.9719 13.977 14.9604 13.9278 14.8744 13.8582C14.8381 13.9065 14.7971 14.0154 14.7539 14.0576C14.7392 13.9589 14.7191 13.8741 14.6358 13.8106C14.6007 13.8402 14.5719 13.8775 14.5515 13.9202C14.5311 13.9628 14.5196 14.0097 14.5177 14.0576C14.4746 14.0154 14.4335 13.9065 14.3972 13.8582C14.3109 13.929 14.2997 13.977 14.3168 14.0865C14.3168 14.0865 14.2625 14.0132 14.2197 13.9614C14.1453 13.8713 13.9382 13.8297 13.9382 13.8297C13.9397 13.877 13.937 13.9244 13.9303 13.9713C13.9066 14.0779 13.7891 14.2163 13.8901 14.3855C13.5971 14.5849 13.6609 14.8522 13.4991 15.1408C13.572 15.1335 13.5859 15.1725 13.7005 15.1408C13.5452 15.2703 13.5342 15.2963 13.4885 15.49C13.5449 15.4681 13.5927 15.4855 13.7026 15.4557C13.6651 15.5411 13.5844 15.604 13.5401 15.6443C13.4472 15.7246 13.3824 15.8366 13.3564 15.9617C13.4305 15.9572 13.5036 15.9424 13.5741 15.9176C13.5436 16.0125 13.541 16.1151 13.5667 16.2116C13.6495 16.176 13.7282 16.1305 13.8015 16.076C13.7926 16.1617 13.7879 16.2621 13.8166 16.3478C13.9002 16.321 13.9755 16.2702 14.0342 16.2008C14.0331 16.2941 14.0565 16.3859 14.1019 16.4655C14.1682 16.4281 14.231 16.3838 14.2894 16.3332C14.3109 16.4125 14.3163 16.4814 14.3942 16.5976C14.5124 16.5455 14.5383 16.4706 14.5821 16.3992C14.5986 16.4646 14.6281 16.5363 14.7155 16.6363C14.8298 16.5554 14.8239 16.4744 14.8561 16.3935C14.8821 16.4516 14.9376 16.5541 15.0239 16.597C15.0888 16.5246 15.0989 16.4262 15.1175 16.3671C15.1758 16.4434 15.2515 16.5023 15.3372 16.5379C15.3764 16.4596 15.3928 16.3705 15.3842 16.2821C15.4666 16.3751 15.5492 16.4014 15.6319 16.4262C15.6497 16.3398 15.6497 16.2503 15.6319 16.164C15.7205 16.2309 15.8062 16.263 15.8933 16.2427C15.8977 16.1475 15.8688 16.0738 15.8396 15.9932C15.9188 16.0126 16.0008 16.0149 16.0808 15.9998C16.0546 15.9368 16.0183 15.8791 15.9736 15.8294C15.8968 15.7573 15.7932 15.7049 15.717 15.6328C15.6727 15.5909 15.5732 15.4868 15.5732 15.4868H15.5735Z" fill="#FF9811"/>
<path d="M14.7129 16.6506L14.7067 16.644C14.6485 16.5829 14.6042 16.5083 14.5773 16.4259L14.5685 16.4411C14.5327 16.5177 14.4716 16.5773 14.3972 16.6081L14.3895 16.6113L14.3848 16.6043C14.3381 16.5376 14.3055 16.4608 14.2891 16.3792C14.287 16.3703 14.2846 16.3617 14.2826 16.3528C14.2291 16.3969 14.1724 16.4363 14.1131 16.4706L14.0968 16.4808L14.0918 16.4713C14.0501 16.3973 14.0264 16.3132 14.023 16.2268C13.966 16.2884 13.8955 16.3336 13.818 16.3582L13.8089 16.3608L13.8056 16.3513C13.7828 16.269 13.7768 16.1823 13.7879 16.0973L13.7584 16.116C13.6996 16.158 13.6365 16.1925 13.5703 16.2189L13.5593 16.2233L13.5564 16.2109C13.5318 16.1191 13.5328 16.0215 13.5593 15.9303L13.5413 15.9354C13.482 15.9553 13.4206 15.9668 13.3585 15.9694H13.3452L13.3485 15.9557C13.3753 15.8286 13.4412 15.7149 13.5357 15.6332L13.5552 15.6157C13.6056 15.5753 13.649 15.5257 13.6834 15.469C13.6464 15.4777 13.6089 15.4829 13.5711 15.4846C13.5445 15.4846 13.518 15.489 13.4926 15.4976L13.474 15.5049L13.479 15.4846C13.5221 15.3062 13.5357 15.2681 13.6603 15.1601C13.6289 15.1657 13.5968 15.1647 13.5658 15.157C13.5448 15.1514 13.523 15.1496 13.5014 15.1516L13.4811 15.1538L13.4914 15.1347C13.5421 15.0391 13.5809 14.9366 13.6066 14.83C13.6526 14.6652 13.6952 14.5097 13.8771 14.3827C13.8059 14.2557 13.8523 14.1455 13.8895 14.056C13.902 14.0278 13.912 13.9985 13.9196 13.9684C13.9264 13.9225 13.9289 13.8761 13.9273 13.8297V13.816L13.94 13.8182C13.9486 13.8201 14.1512 13.8617 14.2271 13.9535C14.2522 13.9852 14.2814 14.0217 14.3012 14.0487C14.2929 13.9636 14.3109 13.9154 14.3898 13.8497L14.3978 13.843L14.404 13.8516C14.4222 13.8785 14.4386 13.9068 14.453 13.9363C14.4691 13.9695 14.4874 14.0013 14.5079 14.0316C14.5179 13.9416 14.5603 13.8594 14.626 13.8027L14.6322 13.797L14.639 13.802C14.72 13.8633 14.7433 13.9462 14.7572 14.0341C14.7787 14.0033 14.7977 13.9706 14.8142 13.9363C14.8284 13.9068 14.8448 13.8784 14.8632 13.8516L14.8694 13.843L14.8774 13.8497C14.9571 13.9154 14.9751 13.9636 14.966 14.0487C14.9858 14.0224 15.015 13.9852 15.0401 13.9535C15.116 13.8617 15.3186 13.8201 15.3271 13.8182L15.3404 13.8157V13.8303C15.336 13.8759 15.3385 13.922 15.3478 13.9668C15.3593 13.9986 15.3703 14.0249 15.3803 14.049C15.4267 14.163 15.4503 14.2211 15.3906 14.3805C15.5383 14.4757 15.5826 14.6214 15.6346 14.79C15.6648 14.9015 15.707 15.0087 15.7604 15.1097L15.7707 15.1287L15.7503 15.1265C15.729 15.1246 15.7075 15.1253 15.6863 15.1287C15.6534 15.1339 15.62 15.1333 15.5873 15.1268C15.7105 15.2376 15.7276 15.31 15.7684 15.4798L15.7752 15.5087L15.7598 15.5065C15.7304 15.5027 15.7006 15.5027 15.6712 15.5065C15.6489 15.509 15.6264 15.509 15.6042 15.5065C15.6366 15.5401 15.6928 15.5976 15.7223 15.6255C15.7625 15.6615 15.8052 15.6941 15.8499 15.7233C15.895 15.7529 15.9381 15.7859 15.9789 15.822C16.0248 15.8729 16.062 15.932 16.0888 15.9967L16.0938 16.0087L16.0817 16.0119C16.0064 16.0264 15.9292 16.0253 15.8543 16.0087C15.8866 16.0824 15.9029 16.1629 15.9021 16.2443V16.2528L15.8945 16.2547C15.8153 16.2732 15.7338 16.2516 15.6452 16.189C15.6596 16.2689 15.6582 16.3511 15.6411 16.4303L15.6384 16.4414L15.6284 16.4382C15.5413 16.4189 15.4606 16.3751 15.3945 16.3113C15.399 16.3925 15.3819 16.4734 15.3452 16.5446L15.341 16.5532L15.3328 16.55C15.2507 16.5166 15.1775 16.4621 15.1195 16.3913C15.1175 16.3995 15.1154 16.4084 15.113 16.4176C15.1011 16.488 15.0721 16.5537 15.0289 16.6081L15.0236 16.6138L15.0171 16.6103C14.9415 16.5732 14.8886 16.4928 14.8552 16.4243C14.8514 16.4357 14.8481 16.4471 14.8449 16.4586C14.8369 16.4978 14.8216 16.5349 14.8 16.5677C14.7783 16.6004 14.7507 16.6281 14.7188 16.649L14.7129 16.6506ZM14.5847 16.3728L14.5906 16.3963C14.6134 16.4819 14.6566 16.5596 14.7158 16.6217C14.7439 16.6022 14.7681 16.5769 14.7871 16.5472C14.806 16.5176 14.8194 16.4842 14.8263 16.449C14.8317 16.4289 14.8381 16.4091 14.8455 16.3897L14.8543 16.3671L14.8644 16.3894C14.8889 16.4443 14.9415 16.5411 15.0203 16.584C15.0577 16.5335 15.0831 16.474 15.0941 16.4106C15.0983 16.3938 15.1021 16.3789 15.1065 16.3643L15.1121 16.3462L15.124 16.3605C15.1795 16.4331 15.2512 16.4896 15.3325 16.5246C15.3677 16.4501 15.3822 16.3662 15.3741 16.283V16.2532L15.3933 16.2747C15.4564 16.3447 15.5374 16.3929 15.626 16.4132C15.641 16.3316 15.6402 16.2477 15.6237 16.1665L15.6189 16.1395L15.6396 16.1554C15.7282 16.2233 15.8082 16.2506 15.885 16.2341C15.8838 16.1572 15.8674 16.0815 15.8369 16.0119L15.8251 15.9801L15.8431 15.9836C15.9168 16.0008 15.9928 16.004 16.0675 15.9932C16.0431 15.936 16.0096 15.8838 15.9686 15.8389C15.9285 15.804 15.8862 15.7721 15.8419 15.7436C15.7964 15.7139 15.7529 15.6806 15.712 15.644C15.668 15.6024 15.5687 15.4989 15.5678 15.4976L15.5776 15.4789C15.6086 15.488 15.6411 15.4904 15.673 15.4859C15.6992 15.4833 15.7256 15.4833 15.7518 15.4859C15.7096 15.3087 15.6928 15.2417 15.5451 15.1179L15.554 15.0986C15.5976 15.1129 15.6437 15.117 15.6889 15.1103C15.7051 15.1079 15.7214 15.1067 15.7376 15.1068C15.6886 15.0093 15.649 14.9067 15.6195 14.8005C15.5681 14.6335 15.5238 14.4887 15.3774 14.3982L15.3694 14.3935L15.3729 14.3843C15.432 14.2255 15.4122 14.1751 15.3661 14.0617C15.3561 14.037 15.3449 14.01 15.3333 13.9786C15.3229 13.9356 15.3196 13.891 15.3236 13.8468C15.2772 13.8576 15.1219 13.8986 15.0614 13.9719C15.0191 14.023 14.9651 14.0957 14.9645 14.0966L14.9397 14.13L14.9462 14.0878C14.9621 13.9868 14.9547 13.9427 14.878 13.877C14.8653 13.8963 14.8517 13.9224 14.8372 13.95C14.8177 13.9933 14.7925 14.0334 14.7625 14.069L14.7483 14.083L14.7454 14.0627C14.7318 13.9706 14.7141 13.8893 14.6384 13.8281C14.6061 13.8565 14.5797 13.8919 14.561 13.9321C14.5423 13.9723 14.5318 14.0162 14.5301 14.0611V14.0852L14.5103 14.0655C14.4801 14.0299 14.4549 13.9898 14.4353 13.9465C14.4229 13.9214 14.4094 13.8971 14.3948 13.8735C14.318 13.9392 14.3106 13.9833 14.3263 14.0843L14.3331 14.1265L14.3083 14.0932C14.3083 14.0932 14.2536 14.0195 14.2114 13.9684C14.1503 13.8944 13.9938 13.8535 13.9483 13.843C13.9497 13.8864 13.9471 13.9299 13.9406 13.9728C13.9324 14.0041 13.9217 14.0345 13.9084 14.0636C13.8703 14.1547 13.8272 14.2582 13.8998 14.3786L13.9054 14.3878L13.8966 14.3938C13.7153 14.5176 13.6742 14.6646 13.6264 14.8347C13.6016 14.9367 13.5655 15.0351 13.5189 15.1278C13.5361 15.1283 13.5532 15.1305 13.57 15.1344C13.6127 15.1447 13.6573 15.1425 13.699 15.1281L13.7082 15.1474C13.5605 15.2709 13.5457 15.2986 13.5041 15.4703C13.5259 15.4651 13.5482 15.4623 13.5705 15.4617C13.6146 15.4598 13.6583 15.453 13.7011 15.4414L13.7223 15.4354L13.7129 15.457C13.6795 15.5335 13.6146 15.5906 13.5673 15.6322L13.5478 15.6494C13.4599 15.7247 13.3976 15.8291 13.3706 15.9465C13.4269 15.9421 13.4826 15.9308 13.5366 15.9128L13.572 15.903L13.5897 15.8979L13.5847 15.9167C13.5558 16.0056 13.5523 16.1018 13.5747 16.1928C13.6355 16.1678 13.6936 16.1359 13.748 16.0976C13.7634 16.0874 13.7776 16.0773 13.7944 16.0659L13.8124 16.0544L13.8101 16.0767C13.7975 16.1622 13.8014 16.2496 13.8213 16.3335C13.8993 16.306 13.9695 16.2575 14.0251 16.1925L14.0431 16.1725V16.2005C14.0419 16.2878 14.0632 16.3738 14.1045 16.449C14.1672 16.4136 14.2265 16.3717 14.2817 16.324L14.2938 16.3122L14.2982 16.329C14.3024 16.344 14.3059 16.3582 14.3092 16.3725C14.3245 16.4486 14.3547 16.5204 14.3978 16.583C14.4647 16.5532 14.5193 16.4984 14.5516 16.4287C14.5587 16.4163 14.5655 16.4043 14.5732 16.3922L14.5847 16.3728Z" fill="#464655"/>
<path d="M14.0198 13.9855C14.0232 14.019 14.0222 14.0527 14.0169 14.0858C13.9991 14.1493 13.9675 14.2049 13.9643 14.2719C13.9619 14.3176 14.0083 14.4036 14.0083 14.4036C14.0083 14.4036 14.0378 14.2982 14.0872 14.2766C14.1365 14.2551 14.2348 14.3052 14.2348 14.3052C14.2324 14.2601 14.2257 14.2153 14.215 14.1716C14.1855 14.0881 14.0198 13.9855 14.0198 13.9855ZM15.2416 13.9855C15.2416 13.9855 15.0771 14.0881 15.0458 14.1716C15.0348 14.2156 15.028 14.2607 15.0254 14.3062C15.0254 14.3062 15.1258 14.2573 15.1731 14.2776C15.2203 14.2979 15.2519 14.4046 15.2519 14.4046C15.2519 14.4046 15.298 14.3185 15.2959 14.2728C15.2924 14.2058 15.2637 14.1516 15.246 14.0868C15.2407 14.0534 15.2392 14.0194 15.2416 13.9855ZM13.9699 14.5497C13.9375 14.5685 13.912 14.5985 13.8976 14.6349C13.8831 14.6712 13.8805 14.7118 13.8902 14.75C13.9052 14.8049 13.9531 14.8474 14.016 14.8731L14.0101 14.8789C13.9806 14.9043 13.9583 14.938 13.9457 14.9763C13.9011 15.1452 13.9303 15.3103 14.0275 15.417C13.9572 15.5232 13.8941 15.6347 13.8385 15.7506C13.9232 15.6766 14.0104 15.5427 14.0747 15.4617C14.1046 15.484 14.137 15.5022 14.171 15.516C14.1176 15.6355 14.0731 15.7594 14.0378 15.8865C14.1146 15.7912 14.1822 15.6233 14.2336 15.5373C14.2597 15.5439 14.2861 15.5486 14.3128 15.5516C14.3027 15.5812 14.2994 15.613 14.3029 15.6443C14.3064 15.6757 14.3168 15.7057 14.3332 15.7319C14.2771 15.8537 14.2302 15.9801 14.1929 16.11C14.2652 16.022 14.329 15.8731 14.3798 15.7836C14.4118 15.8105 14.4486 15.8299 14.4879 15.8408C14.4672 15.9656 14.4549 16.0918 14.4513 16.2185C14.4988 16.1157 14.5242 15.9544 14.5505 15.8551C14.5689 15.8581 14.5874 15.86 14.606 15.8608C14.6176 15.8608 14.6273 15.8585 14.6382 15.8579C14.6565 15.9592 14.6678 16.1176 14.7085 16.2214C14.7147 16.0974 14.7127 15.9731 14.7026 15.8493C14.7335 15.8424 14.7633 15.8308 14.7912 15.8151C14.8326 15.9084 14.8798 16.0722 14.9433 16.17C14.9212 16.0358 14.889 15.9037 14.847 15.7751C14.8553 15.7679 14.8631 15.7602 14.8704 15.7519C14.8871 15.73 14.8995 15.7045 14.9065 15.6772C14.9136 15.6498 14.9153 15.6212 14.9114 15.5932C14.9982 15.6697 15.1409 15.8052 15.2363 15.8652C15.1494 15.7505 15.0548 15.6428 14.9533 15.543C15.0239 15.5291 15.0908 15.4989 15.1494 15.4544C15.2321 15.5281 15.4002 15.7401 15.5038 15.8036C15.4076 15.6657 15.3042 15.5337 15.194 15.4084C15.2859 15.3014 15.3122 15.1414 15.2702 14.9763C15.2575 14.9381 15.2352 14.9044 15.2058 14.8789L15.1999 14.8731C15.2628 14.8474 15.3107 14.8049 15.3257 14.75C15.3355 14.7119 15.333 14.6714 15.3186 14.635C15.3042 14.5986 15.2789 14.5686 15.2466 14.5497C15.2673 14.6131 15.2823 14.6627 15.2643 14.7357C15.2525 14.7824 15.2106 14.823 15.1356 14.8331L15.0538 14.8446L15.1211 14.8903C15.1211 14.8903 15.1379 14.9039 15.1589 14.9246C15.18 14.9434 15.197 14.9669 15.2088 14.9935C15.2282 15.0578 15.2305 15.1267 15.2156 15.1924C15.2006 15.2581 15.1689 15.3181 15.124 15.3655C15.0754 15.4168 15.0163 15.4553 14.9515 15.4781C14.8867 15.5008 14.8179 15.5072 14.7505 15.4966C14.6453 15.4811 14.6424 15.4551 14.6424 15.362C14.6657 15.3597 14.6885 15.3529 14.7097 15.342C14.7243 15.3341 14.7369 15.3226 14.7466 15.3084C14.7519 15.301 14.7578 15.2942 14.7643 15.2881C14.7872 15.2801 14.8113 15.2772 14.8352 15.2795L14.8704 15.2881L14.8733 15.2509C14.8806 15.215 14.8755 15.1774 14.8588 15.1452C14.8428 15.1113 14.8185 15.0826 14.7886 15.0624C14.7782 15.0551 14.7723 15.0519 14.7682 15.0481C14.764 15.0443 14.7629 15.0424 14.7623 15.0395C14.7354 14.9322 14.7271 14.8395 14.7534 14.75C14.7653 14.7196 14.7847 14.6934 14.8096 14.6742C14.8344 14.6549 14.8637 14.6435 14.8943 14.6411C14.965 14.6368 15.036 14.6436 15.1048 14.6614C15.0764 14.628 15.0406 14.6029 15.0008 14.5884C14.9609 14.5739 14.9183 14.5704 14.8769 14.5782C14.7915 14.5931 14.7144 14.65 14.6896 14.7328C14.6601 14.8351 14.6707 14.9433 14.6985 15.0538C14.7024 15.0693 14.7105 15.0832 14.7218 15.0938C14.7313 15.102 14.7411 15.1096 14.7513 15.1166C14.7728 15.1288 14.7902 15.1478 14.8013 15.1709C14.8131 15.1973 14.8083 15.1963 14.8069 15.2195C14.7859 15.2195 14.7732 15.2011 14.7398 15.2166C14.7223 15.2258 14.7071 15.2395 14.6958 15.2566C14.6864 15.269 14.6778 15.2785 14.6813 15.2766C14.6673 15.2828 14.6525 15.2868 14.6373 15.2884C14.6275 15.2893 14.6176 15.2893 14.6078 15.2884C14.598 15.2893 14.5881 15.2893 14.5783 15.2884C14.5633 15.2868 14.5485 15.2828 14.5346 15.2766C14.5381 15.2785 14.5296 15.269 14.5198 15.2566C14.5087 15.2395 14.4936 15.2257 14.4761 15.2166C14.4427 15.2011 14.4297 15.2166 14.4088 15.2195C14.4088 15.1963 14.4026 15.1973 14.4147 15.1709C14.4254 15.1475 14.4427 15.1282 14.464 15.1157C14.4743 15.1088 14.4842 15.1012 14.4935 15.0928C14.5048 15.0822 14.5129 15.0683 14.5169 15.0528C14.5446 14.9424 14.5561 14.8341 14.5257 14.7319C14.5012 14.649 14.4238 14.5922 14.3388 14.5773C14.2973 14.5694 14.2546 14.5729 14.2147 14.5875C14.1748 14.602 14.139 14.6271 14.1105 14.6605C14.1794 14.6427 14.2503 14.6359 14.321 14.6401C14.3515 14.6426 14.3808 14.654 14.4055 14.6732C14.4303 14.6925 14.4496 14.7187 14.4613 14.749C14.4879 14.8385 14.4796 14.9312 14.4528 15.0385C14.4518 15.0421 14.4497 15.0451 14.4469 15.0471C14.4427 15.0509 14.4365 15.0541 14.4265 15.0614C14.3964 15.0816 14.3721 15.1102 14.3562 15.1443C14.3397 15.1765 14.3344 15.214 14.3414 15.25L14.3444 15.2871L14.3795 15.2785C14.4032 15.2765 14.4271 15.2794 14.4498 15.2871C14.4563 15.2932 14.4621 15.3 14.4672 15.3074C14.4772 15.322 14.4903 15.3337 14.5053 15.3417C14.5264 15.3526 14.5491 15.3594 14.5724 15.3617C14.5789 15.4605 14.5626 15.4789 14.4643 15.4963C14.3971 15.5074 14.3285 15.5013 14.2639 15.4784C14.1994 15.4555 14.1409 15.4165 14.0931 15.3646C14.0483 15.3173 14.0167 15.2575 14.0017 15.1919C13.9867 15.1264 13.989 15.0577 14.0083 14.9935C14.02 14.9672 14.0368 14.9439 14.0576 14.9252C14.0789 14.9039 14.0969 14.8903 14.0969 14.8903L14.1642 14.8446L14.0821 14.8331C14.0071 14.823 13.964 14.7824 13.9537 14.7357C13.9354 14.6627 13.9507 14.6125 13.9711 14.5497H13.9699ZM14.2974 14.7128C14.2659 14.7148 14.2351 14.7235 14.2068 14.7385C14.2189 14.8116 14.2977 14.9084 14.4318 14.8303C14.4105 14.7741 14.3733 14.7119 14.2974 14.7128ZM14.9176 14.7128C14.8417 14.7128 14.8045 14.7741 14.7829 14.8303C14.9173 14.9084 14.9962 14.8116 15.008 14.7385C14.9797 14.7235 14.9488 14.7148 14.9173 14.7128H14.9176ZM14.6072 15.5087C14.6196 15.5161 14.6323 15.5228 14.6453 15.5287C14.6768 15.544 14.7104 15.5537 14.7448 15.5573C14.7759 15.5604 14.807 15.5614 14.8382 15.5601C14.8486 15.581 14.8522 15.605 14.8485 15.6283C14.8448 15.6517 14.834 15.673 14.8178 15.689C14.7806 15.737 14.7118 15.7722 14.6072 15.7722C14.5027 15.7722 14.43 15.737 14.394 15.689C14.3781 15.6727 14.3678 15.6512 14.3645 15.6278C14.3613 15.6045 14.3655 15.5807 14.3763 15.5601C14.4075 15.5614 14.4388 15.5604 14.4699 15.5573C14.5043 15.5535 14.5379 15.5438 14.5694 15.5284C14.5824 15.5227 14.595 15.5161 14.6072 15.5087ZM13.7915 15.6462C13.6817 15.7293 13.5848 15.8884 13.4702 15.9265L13.5724 15.9122L13.5842 16.0182C13.6383 15.79 13.7478 15.8017 13.7915 15.6462ZM13.9935 15.6919C13.897 15.79 13.796 16.07 13.6893 16.1243L13.7889 16.0925L13.8152 16.1954C13.8346 15.962 13.9732 15.8522 13.9935 15.6919ZM15.578 15.7319C15.6075 15.8627 15.8024 15.9084 15.8526 16.11L15.8644 16.0068L15.9843 16.0125C15.7679 15.9093 15.7687 15.8874 15.578 15.7319ZM15.3529 15.7433C15.3576 15.8773 15.6128 16.0747 15.6246 16.283L15.6568 16.1855L15.7507 16.2268C15.6326 16.1205 15.4418 15.8211 15.3529 15.7433ZM14.1309 15.9122C14.0532 16.0252 14.0216 16.1932 13.9262 16.2646L14.0169 16.2185L14.0635 16.316C14.0417 16.0827 14.1391 16.0735 14.1309 15.9122ZM15.2212 15.9208C15.2162 16.0547 15.3857 16.1668 15.3529 16.3989L15.4025 16.3036L15.4932 16.3551C15.4014 16.2805 15.3045 16.0046 15.2212 15.9208ZM15.0165 15.9611C14.9835 16.1198 15.1235 16.2468 15.0662 16.4735L15.1252 16.3817L15.2103 16.442C15.1261 16.3573 15.0762 16.0839 15.0165 15.9611ZM14.3332 16.0525C14.2741 16.1754 14.2821 16.3382 14.1985 16.422L14.2835 16.3617L14.3426 16.4506C14.2856 16.223 14.3671 16.2109 14.334 16.0525H14.3332ZM14.795 16.0725C14.7499 16.2281 14.8698 16.2795 14.795 16.502L14.8624 16.4192L14.9383 16.4827C14.8609 16.3916 14.8441 16.1995 14.7945 16.0725H14.795ZM14.5927 16.1633C14.5428 16.2903 14.5786 16.3906 14.5021 16.4808L14.5809 16.4173L14.6453 16.503C14.5706 16.2808 14.6379 16.3205 14.5927 16.1652V16.1633Z" fill="#464655"/>
</g>
</svg>
