<svg width="32" height="32" viewBox="0 0 32 32" fill="none" xmlns="http://www.w3.org/2000/svg">
<g clip-path="url(#clip0)">
<path d="M30 5.33319H2C0.895431 5.33319 0 6.22862 0 7.33319V24.6668C0 25.7713 0.895431 26.6668 2 26.6668H30C31.1046 26.6668 32 25.7713 32 24.6668V7.33319C32 6.22862 31.1046 5.33319 30 5.33319Z" fill="#F0F0F0"/>
<path d="M10.6664 5.33319H2C0.895431 5.33319 0 6.22862 0 7.33319V24.6668C0 25.7713 0.895429 26.6668 2 26.6668H10.6664V5.33319Z" fill="#0052B4"/>
<path d="M30 5.33319H21.3335V26.6668H30C31.1045 26.6668 32 25.7713 32 24.6668V7.33319C32 6.22862 31.1045 5.33319 30 5.33319Z" fill="#FF4B55"/>
</g>
<defs>
<clipPath id="clip0">
<rect width="32" height="32" fill="white"/>
</clipPath>
</defs>
</svg>
