<svg width="32" height="32" viewBox="0 0 32 32" fill="none" xmlns="http://www.w3.org/2000/svg">
<mask id="mask0" mask-type="alpha" maskUnits="userSpaceOnUse" x="0" y="5" width="32" height="22">
<path d="M30 5.33331H2C0.895431 5.33331 0 6.22874 0 7.33331V24.6669C0 25.7714 0.895431 26.6669 2 26.6669H30C31.1046 26.6669 32 25.7714 32 24.6669V7.33331C32 6.22874 31.1046 5.33331 30 5.33331Z" fill="#F0F0F0"/>
</mask>
<g mask="url(#mask0)">
<path d="M30 5.33331H2C0.895431 5.33331 0 6.22874 0 7.33331V24.6669C0 25.7714 0.895431 26.6669 2 26.6669H30C31.1046 26.6669 32 25.7714 32 24.6669V7.33331C32 6.22874 31.1046 5.33331 30 5.33331Z" fill="#F0F0F0"/>
<path d="M18 5.33313H14V13.9997H0V17.9997H14V26.6664H18V17.9997H32V13.9997H18V5.33313Z" fill="#FF4B55"/>
<path d="M24.6116 19.7099L32 23.8146V19.7099H24.6116Z" fill="#0052B4"/>
<path d="M19.4783 19.7099L32 26.6664V24.6992L23.0192 19.7099H19.4783Z" fill="#0052B4"/>
<path d="M28.6646 26.6664L19.4783 21.5624V26.6664H28.6646Z" fill="#0052B4"/>
<path d="M19.4783 19.7099L32 26.6664V24.6992L23.0192 19.7099H19.4783Z" fill="#F0F0F0"/>
<path d="M19.4783 19.7099L32 26.6664V24.6992L23.0192 19.7099H19.4783Z" fill="#FF4B55"/>
<path d="M5.64631 19.7097L0 22.8466V19.7097H5.64631Z" fill="#0052B4"/>
<path d="M12.5218 20.5944V26.6663H1.59326L12.5218 20.5944Z" fill="#0052B4"/>
<path d="M8.98081 19.7099L0 24.6992V26.6664L12.5218 19.7099H8.98081Z" fill="#FF4B55"/>
<path d="M7.38844 12.2896L0 8.18488V12.2896H7.38844Z" fill="#0052B4"/>
<path d="M12.5218 12.2896L0 5.33313V7.30025L8.98081 12.2896H12.5218Z" fill="#0052B4"/>
<path d="M3.33545 5.33313L12.5218 10.4371V5.33313H3.33545Z" fill="#0052B4"/>
<path d="M12.5218 12.2896L0 5.33313V7.30025L8.98081 12.2896H12.5218Z" fill="#F0F0F0"/>
<path d="M12.5218 12.2896L0 5.33313V7.30025L8.98081 12.2896H12.5218Z" fill="#FF4B55"/>
<path d="M26.3538 12.2898L32.0001 9.15288V12.2898H26.3538Z" fill="#0052B4"/>
<path d="M19.4783 11.4051V5.33319H30.4068L19.4783 11.4051Z" fill="#0052B4"/>
<path d="M23.0192 12.2896L32 7.30025V5.33313L19.4783 12.2896H23.0192Z" fill="#FF4B55"/>
</g>
</svg>
