<svg width="32" height="32" viewBox="0 0 32 32" fill="none" xmlns="http://www.w3.org/2000/svg">
<path d="M30 5.33H2C0.895431 5.33 0 6.2255 0 7.33016V24.6632C0 25.7678 0.89543 26.6633 2 26.6633H30C31.1046 26.6633 32 25.7678 32 24.6631V7.33015C32 6.2255 31.1046 5.33 30 5.33Z" fill="#F0F0F0"/>
<path d="M32 23.5584L4.58827 5.33042H2C0.89543 5.33042 0 6.22592 0 7.33057V8.36719L27.5145 26.6637H30C31.1046 26.6637 32 25.7682 32 24.6636V23.5584Z" fill="#82AFFF"/>
<path d="M15.8192 21.6079C12.6121 21.6079 12.7162 18.5904 12.7162 18.5904V13.9589H18.9221V18.5904C18.9221 18.5904 19.0307 21.6079 15.8192 21.6079Z" fill="#0052B4"/>
<path d="M15.7919 11.0441C15.7919 11.0441 15.1302 10.7222 14.5043 11.1962C14.5043 11.1962 13.378 11.0336 13.2951 12.1125C13.2918 12.1562 13.285 12.2367 13.3051 12.2601C13.3252 12.2836 13.3453 12.3272 13.3453 12.3572C13.3453 12.3875 13.3654 12.4042 13.3722 12.4176C13.3789 12.431 13.3957 12.4511 13.399 12.5081C13.4023 12.5651 13.3923 12.5919 13.446 12.6489C13.4996 12.7059 13.5029 12.8703 13.5029 12.9172C13.5029 12.9641 13.5365 13.0949 13.5599 13.1218C13.5833 13.1485 13.6236 13.2155 13.6236 13.2725C13.6236 13.3296 13.647 13.4871 13.6369 13.5272C13.6269 13.5675 13.6972 13.6178 13.761 13.6379C13.8247 13.658 14.616 13.9162 15.7694 13.896C16.9228 13.8759 17.3382 13.8146 17.8147 13.6412C17.8884 13.6145 17.9018 13.5541 17.8952 13.5206C17.8884 13.4871 17.8952 13.3799 17.9153 13.353C17.9354 13.3262 18.0695 13.1116 18.0426 13.0714C18.0158 13.0312 18.0158 12.944 18.0426 12.9105C18.0695 12.877 18.1534 12.7157 18.17 12.6489C18.1866 12.5821 18.1888 12.5033 18.2195 12.4799C18.2504 12.4566 18.2608 12.3811 18.2667 12.3653C18.2727 12.3494 18.2951 12.3002 18.3264 12.2778C18.3264 12.2778 18.3845 12.0052 18.3487 11.8712C18.313 11.7371 18.1118 11.1603 17.2937 11.2811C17.2937 11.2811 16.6857 10.8206 15.7916 11.0441" fill="#FF4B55"/>
<path d="M18.0056 13.0526C15.4932 12.2568 13.5569 13.0131 13.5569 13.0131C13.5569 13.0131 13.5748 13.1009 13.5971 13.1276C13.6195 13.1544 13.6508 13.2171 13.6508 13.2641C13.6508 13.311 13.6553 13.3781 13.6553 13.4138C13.6553 13.4494 13.6279 13.6098 13.7712 13.6079C13.7712 13.6079 15.5174 12.9229 17.7913 13.6431C17.7913 13.6431 17.8536 13.5873 17.8559 13.5068C17.8581 13.4264 17.8714 13.3414 17.9028 13.2967C17.934 13.252 18.0055 13.1124 18.0055 13.0526" fill="#FFE15A"/>
<path d="M15.6763 17.2403H14.5855C14.5855 17.2403 14.4781 18.2148 15.3187 18.5099V18.5993H15.4975V18.7155C15.4975 18.7155 15.189 18.9926 15.4571 19.3101V19.4085H15.502V19.5649H15.551V19.8196C15.551 19.8196 15.5108 20.7294 14.6189 21.1652V21.2189H17.0003V21.1652C16.1086 20.7294 16.0682 19.8196 16.0682 19.8196V19.5649H16.1173V19.4085H16.162V19.3101C16.4302 18.9926 16.1218 18.7155 16.1218 18.7155V18.5993H16.3006V18.5099C17.1411 18.2148 17.0338 17.2403 17.0338 17.2403H15.6762" fill="#FFE15A"/>
<path d="M15.8188 17.1827C16.2028 17.1827 16.5143 16.8713 16.5143 16.4873C16.5143 16.1032 16.2028 15.7918 15.8188 15.7918C15.4347 15.7918 15.1233 16.1032 15.1233 16.4873C15.1233 16.8713 15.4347 17.1827 15.8188 17.1827Z" fill="#F0F0F0"/>
<path d="M14.2002 15.1392H13.7666V14.7054H13.3821V15.1392H12.9485V15.5235H13.3821V15.9571H13.7666V15.5235H14.2002V15.1392Z" fill="#F0F0F0"/>
<path d="M18.7073 15.1392H18.2737V14.7054H17.8891V15.1392H17.4556V15.5235H17.8891V15.9571H18.2737V15.5235H18.7073V15.1392Z" fill="#F0F0F0"/>
<path d="M16.4234 14.5942H15.9897V14.1606H15.6053V14.5942H15.1716V14.9787H15.6053V15.4123H15.9897V14.9787H16.4234V14.5942Z" fill="#F0F0F0"/>
<path d="M14.2002 17.0167H13.7666V16.5831H13.3821V17.0167H12.9485V17.4012H13.3821V17.8348H13.7666V17.4012H14.2002V17.0167Z" fill="#F0F0F0"/>
<path d="M18.7073 17.0167H18.2737V16.5831H17.8891V17.0167H17.4556V17.4012H17.8891V17.8348H18.2737V17.4012H18.7073V17.0167Z" fill="#F0F0F0"/>
<path d="M14.2002 18.9128H13.7666V18.479H13.3821V18.9128H12.9485V19.2973H13.3821V19.7308H13.7666V19.2973H14.2002V18.9128Z" fill="#F0F0F0"/>
<path d="M18.7073 18.9128H18.2737V18.479H17.8891V18.9128H17.4556V19.2973H17.8891V19.7308H18.2737V19.2973H18.7073V18.9128Z" fill="#F0F0F0"/>
<path d="M15.813 10.1157C16.0435 10.1157 16.2304 9.92896 16.2304 9.69849C16.2304 9.46803 16.0435 9.28125 15.813 9.28125C15.5825 9.28125 15.3958 9.46803 15.3958 9.69849C15.3958 9.92896 15.5825 10.1157 15.813 10.1157Z" fill="#0052B4"/>
<path d="M16.2021 9.62471H15.86V9.07154H15.9907V8.96086H15.86V8.83006H15.7493V8.96086H15.6185V9.07154H15.7493V9.62471H15.4241V9.6985H15.7493V9.70183H15.86V9.6985H16.2021V9.62471Z" fill="#FFE15A"/>
<path d="M16.2021 9.62471H15.86V9.07154H15.9907V8.96086H15.86V8.83006H15.7493V8.96086H15.6185V9.07154H15.7493V9.62471H15.4241V9.6985H15.7493V9.70183H15.86V9.6985H16.2021V9.62471Z" fill="#FFE15A"/>
<path d="M14.1423 10.615C14.1423 10.615 14.4508 10.5792 14.6295 10.6507C14.6295 10.6507 14.4246 10.8837 14.4686 11.1916C14.491 11.3481 14.5222 11.4286 14.5669 11.5045C14.6117 11.5806 14.6607 11.7371 14.6339 11.8622H14.6921C14.6921 11.8622 14.7503 11.6074 14.6519 11.4643C14.5535 11.3214 14.5043 11.1246 14.6027 10.919C14.7009 10.7134 14.844 10.6329 14.844 10.6329C15.0094 10.6999 15.3583 10.6373 15.4565 10.5658C15.5548 10.4942 15.604 10.3959 15.4208 10.3869C15.2376 10.378 14.9246 10.3825 14.71 10.5435C14.71 10.5435 14.5982 10.4137 14.0394 10.4764C13.4806 10.539 13.0767 10.7777 12.9531 11.2811C12.8905 11.5359 13.1274 12.0723 13.3465 12.202C13.3465 12.202 13.3398 12.1148 13.3621 12.0522C13.3621 12.0522 12.9888 11.6342 13.1006 11.2453C13.2123 10.8563 13.6594 10.6015 14.1423 10.615Z" fill="#FFE15A"/>
<path d="M14.1423 10.615C14.1423 10.615 14.4508 10.5792 14.6295 10.6507C14.6295 10.6507 14.4246 10.8837 14.4686 11.1916C14.491 11.3481 14.5222 11.4286 14.5669 11.5045C14.6117 11.5806 14.6607 11.7371 14.6339 11.8622H14.6921C14.6921 11.8622 14.7503 11.6074 14.6519 11.4643C14.5535 11.3214 14.5043 11.1246 14.6027 10.919C14.7009 10.7134 14.844 10.6329 14.844 10.6329C15.0094 10.6999 15.3583 10.6373 15.4565 10.5658C15.5548 10.4942 15.604 10.3959 15.4208 10.3869C15.2376 10.378 14.9246 10.3825 14.71 10.5435C14.71 10.5435 14.5982 10.4137 14.0394 10.4764C13.4806 10.539 13.0767 10.7777 12.9531 11.2811C12.8905 11.5359 13.1274 12.0723 13.3465 12.202C13.3465 12.202 13.3398 12.1148 13.3621 12.0522C13.3621 12.0522 12.9888 11.6342 13.1006 11.2453C13.2123 10.8563 13.6594 10.6015 14.1423 10.615Z" fill="#FFE15A"/>
<path d="M15.1924 10.538C15.289 10.5302 15.3664 10.5134 15.3654 10.5002C15.3644 10.4872 15.2852 10.4829 15.1886 10.4907C15.092 10.4985 15.0146 10.5154 15.0156 10.5285C15.0167 10.5416 15.0958 10.5458 15.1924 10.538Z" fill="#F0F0F0"/>
<path d="M17.4771 10.6484C17.4771 10.6484 17.1688 10.6128 16.9899 10.6843C16.9899 10.6843 17.1949 10.9172 17.1508 11.2251C17.1285 11.3817 17.0973 11.4621 17.0526 11.5381C17.0077 11.6139 16.9587 11.7706 16.9855 11.8958H16.9273C16.9273 11.8958 16.8693 11.641 16.9675 11.4979C17.0659 11.3548 17.1151 11.1581 17.0167 10.9525C16.9185 10.7468 16.7754 10.6663 16.7754 10.6663C16.61 10.7335 16.2613 10.6708 16.1629 10.5993C16.0648 10.5277 16.0154 10.4295 16.1986 10.4205C16.3819 10.4115 16.6949 10.416 16.9095 10.5769C16.9095 10.5769 17.0212 10.4473 17.58 10.5099C18.1389 10.5724 18.5427 10.8112 18.6663 11.3146C18.729 11.5694 18.492 12.1059 18.2729 12.2355C18.2729 12.2355 18.2797 12.1484 18.2573 12.0858C18.2573 12.0858 18.6306 11.6678 18.5189 11.2788C18.407 10.8899 17.9601 10.6351 17.4771 10.6484Z" fill="#FFE15A"/>
<path d="M17.4771 10.6484C17.4771 10.6484 17.1688 10.6128 16.9899 10.6843C16.9899 10.6843 17.1949 10.9172 17.1508 11.2251C17.1285 11.3817 17.0973 11.4621 17.0526 11.5381C17.0077 11.6139 16.9587 11.7706 16.9855 11.8958H16.9273C16.9273 11.8958 16.8693 11.641 16.9675 11.4979C17.0659 11.3548 17.1151 11.1581 17.0167 10.9525C16.9185 10.7468 16.7754 10.6663 16.7754 10.6663C16.61 10.7335 16.2613 10.6708 16.1629 10.5993C16.0648 10.5277 16.0154 10.4295 16.1986 10.4205C16.3819 10.4115 16.6949 10.416 16.9095 10.5769C16.9095 10.5769 17.0212 10.4473 17.58 10.5099C18.1389 10.5724 18.5427 10.8112 18.6663 11.3146C18.729 11.5694 18.492 12.1059 18.2729 12.2355C18.2729 12.2355 18.2797 12.1484 18.2573 12.0858C18.2573 12.0858 18.6306 11.6678 18.5189 11.2788C18.407 10.8899 17.9601 10.6351 17.4771 10.6484Z" fill="#FFE15A"/>
<path d="M16.4269 10.5715C16.3304 10.5637 16.2529 10.5468 16.2539 10.5337C16.2551 10.5207 16.3341 10.5164 16.4307 10.5243C16.5273 10.5321 16.6048 10.549 16.6038 10.5621C16.6026 10.5751 16.5234 10.5793 16.4269 10.5715Z" fill="#F0F0F0"/>
<path d="M15.5238 10.3065V11.4957C15.5103 11.6119 15.6667 11.7773 15.7786 11.8265C15.7786 11.8265 16.0423 11.737 16.0601 11.4957V10.2393H15.9707V11.3257C15.9664 11.4375 15.8947 11.6387 15.7964 11.67C15.7964 11.67 15.6042 11.6387 15.5952 11.3302V10.2709L15.5238 10.3065Z" fill="#FFE15A"/>
<path d="M15.5238 10.3065V11.4957C15.5103 11.6119 15.6667 11.7773 15.7786 11.8265C15.7786 11.8265 16.0423 11.737 16.0601 11.4957V10.2393H15.9707V11.3257C15.9664 11.4375 15.8947 11.6387 15.7964 11.67C15.7964 11.67 15.6042 11.6387 15.5952 11.3302V10.2709L15.5238 10.3065Z" fill="#FFE15A"/>
<path d="M12.8927 11.9329C12.9712 11.9329 13.0349 11.8693 13.0349 11.7907C13.0349 11.7123 12.9712 11.6485 12.8927 11.6485C12.8142 11.6485 12.7505 11.7122 12.7505 11.7907C12.7505 11.8693 12.8142 11.9329 12.8927 11.9329Z" fill="#F0F0F0"/>
<path d="M12.8038 11.606C12.8825 11.606 12.9461 11.5423 12.9461 11.4638C12.9461 11.3854 12.8825 11.3216 12.8038 11.3216C12.7253 11.3216 12.6616 11.3853 12.6616 11.4638C12.6616 11.5423 12.7253 11.606 12.8038 11.606Z" fill="#F0F0F0"/>
<path d="M12.8509 11.2104C12.9295 11.2104 12.9931 11.1467 12.9931 11.0681C12.9931 10.9896 12.9295 10.9259 12.8509 10.9259C12.7724 10.9259 12.7087 10.9896 12.7087 11.0681C12.7087 11.1467 12.7724 11.2104 12.8509 11.2104Z" fill="#F0F0F0"/>
<path d="M13.0721 10.8818C13.1508 10.8818 13.2145 10.8182 13.2145 10.7396C13.2145 10.661 13.1508 10.5973 13.0721 10.5973C12.9936 10.5973 12.9299 10.661 12.9299 10.7396C12.9299 10.8182 12.9936 10.8818 13.0721 10.8818Z" fill="#F0F0F0"/>
<path d="M13.3337 10.6421C13.4123 10.6421 13.4759 10.5785 13.4759 10.4998C13.4759 10.4213 13.4123 10.3576 13.3337 10.3576C13.2552 10.3576 13.1914 10.4213 13.1914 10.4998C13.1914 10.5785 13.2552 10.6421 13.3337 10.6421Z" fill="#F0F0F0"/>
<path d="M13.6705 10.508C13.749 10.508 13.8127 10.4443 13.8127 10.3657C13.8127 10.2871 13.749 10.2235 13.6705 10.2235C13.592 10.2235 13.5283 10.2871 13.5283 10.3657C13.5283 10.4443 13.592 10.508 13.6705 10.508Z" fill="#F0F0F0"/>
<path d="M14.0226 10.4443C14.1011 10.4443 14.1648 10.3805 14.1648 10.302C14.1648 10.2235 14.1011 10.1598 14.0226 10.1598C13.944 10.1598 13.8804 10.2235 13.8804 10.302C13.8804 10.3805 13.944 10.4443 14.0226 10.4443Z" fill="#F0F0F0"/>
<path d="M14.3579 10.4242C14.4364 10.4242 14.5001 10.3604 14.5001 10.2819C14.5001 10.2034 14.4364 10.1397 14.3579 10.1397C14.2792 10.1397 14.2156 10.2034 14.2156 10.2819C14.2156 10.3604 14.2792 10.4242 14.3579 10.4242Z" fill="#F0F0F0"/>
<path d="M14.6598 10.451C14.7383 10.451 14.802 10.3873 14.802 10.3088C14.802 10.2301 14.7383 10.1665 14.6598 10.1665C14.5812 10.1665 14.5176 10.2301 14.5176 10.3088C14.5176 10.3873 14.5812 10.451 14.6598 10.451Z" fill="#F0F0F0"/>
<path d="M15.5199 10.3436C15.5984 10.3436 15.6622 10.28 15.6622 10.2014C15.6622 10.123 15.5984 10.0592 15.5199 10.0592C15.4414 10.0592 15.3777 10.1229 15.3777 10.2014C15.3777 10.28 15.4414 10.3436 15.5199 10.3436Z" fill="#F0F0F0"/>
<path d="M15.7948 10.4174C15.8733 10.4174 15.9371 10.3538 15.9371 10.2752C15.9371 10.1967 15.8733 10.133 15.7948 10.133C15.7163 10.133 15.6526 10.1967 15.6526 10.2752C15.6526 10.3538 15.7163 10.4174 15.7948 10.4174Z" fill="#F0F0F0"/>
<path d="M15.7948 11.4702C15.8733 11.4702 15.9371 11.4065 15.9371 11.328C15.9371 11.2495 15.8733 11.1858 15.7948 11.1858C15.7163 11.1858 15.6526 11.2495 15.6526 11.328C15.6526 11.4065 15.7163 11.4702 15.7948 11.4702Z" fill="#F0F0F0"/>
<path d="M18.7353 12.0235C18.8139 12.0235 18.8775 11.9598 18.8775 11.8812C18.8775 11.8026 18.8139 11.739 18.7353 11.739C18.6567 11.739 18.593 11.8026 18.593 11.8812C18.593 11.9598 18.6567 12.0235 18.7353 12.0235Z" fill="#F0F0F0"/>
<path d="M18.8089 11.6697C18.8876 11.6697 18.9512 11.606 18.9512 11.5275C18.9512 11.4489 18.8876 11.3853 18.8089 11.3853C18.7304 11.3853 18.6667 11.4489 18.6667 11.5275C18.6667 11.606 18.7304 11.6697 18.8089 11.6697Z" fill="#F0F0F0"/>
<path d="M18.7486 11.301C18.8273 11.301 18.891 11.2373 18.891 11.1587C18.891 11.0801 18.8273 11.0165 18.7486 11.0165C18.6701 11.0165 18.6064 11.0801 18.6064 11.1587C18.6064 11.2373 18.6701 11.301 18.7486 11.301Z" fill="#F0F0F0"/>
<path d="M18.5944 10.9523C18.673 10.9523 18.7367 10.8885 18.7367 10.8099C18.7367 10.7315 18.673 10.6677 18.5944 10.6677C18.5158 10.6677 18.4521 10.7314 18.4521 10.8099C18.4521 10.8885 18.5158 10.9523 18.5944 10.9523Z" fill="#F0F0F0"/>
<path d="M18.333 10.7108C18.4115 10.7108 18.4752 10.6471 18.4752 10.5686C18.4752 10.4901 18.4115 10.4264 18.333 10.4264C18.2545 10.4264 18.1907 10.4901 18.1907 10.5686C18.1907 10.6471 18.2545 10.7108 18.333 10.7108Z" fill="#F0F0F0"/>
<path d="M18.0178 10.5566C18.0964 10.5566 18.16 10.4929 18.16 10.4144C18.16 10.3358 18.0964 10.2722 18.0178 10.2722C17.9392 10.2722 17.8755 10.3358 17.8755 10.4144C17.8755 10.4929 17.9392 10.5566 18.0178 10.5566Z" fill="#F0F0F0"/>
<path d="M17.659 10.4744C17.7377 10.4744 17.8014 10.4108 17.8014 10.3322C17.8014 10.2538 17.7377 10.19 17.659 10.19C17.5805 10.19 17.5168 10.2537 17.5168 10.3322C17.5168 10.4108 17.5805 10.4744 17.659 10.4744Z" fill="#F0F0F0"/>
<path d="M17.3304 10.4477C17.4091 10.4477 17.4728 10.384 17.4728 10.3053C17.4728 10.2269 17.4091 10.1631 17.3304 10.1631C17.2519 10.1631 17.1882 10.2268 17.1882 10.3053C17.1882 10.384 17.2519 10.4477 17.3304 10.4477Z" fill="#F0F0F0"/>
<path d="M17.0326 10.4085C17.1113 10.4085 17.1749 10.3448 17.1749 10.2663C17.1749 10.1877 17.1113 10.1241 17.0326 10.1241C16.9541 10.1241 16.8904 10.1877 16.8904 10.2663C16.8904 10.3448 16.9541 10.4085 17.0326 10.4085Z" fill="#F0F0F0"/>
<path d="M17.2249 11.5726C17.3035 11.5726 17.3671 11.5088 17.3671 11.4302C17.3671 11.3518 17.3035 11.288 17.2249 11.288C17.1464 11.288 17.0828 11.3517 17.0828 11.4302C17.0828 11.5088 17.1464 11.5726 17.2249 11.5726Z" fill="#F0F0F0"/>
<path d="M17.2988 11.2975C17.3773 11.2975 17.441 11.2339 17.441 11.1553C17.441 11.0768 17.3773 11.0131 17.2988 11.0131C17.2202 11.0131 17.1565 11.0768 17.1565 11.1553C17.1565 11.2339 17.2202 11.2975 17.2988 11.2975Z" fill="#F0F0F0"/>
<path d="M16.1034 10.3873C16.182 10.3873 16.2457 10.3235 16.2457 10.245C16.2457 10.1665 16.182 10.1028 16.1034 10.1028C16.0249 10.1028 15.9612 10.1665 15.9612 10.245C15.9612 10.3235 16.0249 10.3873 16.1034 10.3873Z" fill="#F0F0F0"/>
<path d="M15.4073 10.3488C15.486 10.3488 15.5497 10.2851 15.5497 10.2064C15.5497 10.128 15.486 10.0644 15.4073 10.0644C15.3288 10.0644 15.2651 10.1279 15.2651 10.2064C15.2651 10.2851 15.3288 10.3488 15.4073 10.3488Z" fill="#F0F0F0"/>
<path d="M15.2399 10.342C15.3184 10.342 15.3821 10.2783 15.3821 10.1998C15.3821 10.1212 15.3184 10.0576 15.2399 10.0576C15.1613 10.0576 15.0977 10.1212 15.0977 10.1998C15.0977 10.2783 15.1613 10.342 15.2399 10.342Z" fill="#F0F0F0"/>
<path d="M14.336 11.5759C14.4146 11.5759 14.4784 11.5122 14.4784 11.4336C14.4784 11.355 14.4146 11.2914 14.336 11.2914C14.2575 11.2914 14.1938 11.355 14.1938 11.4336C14.1938 11.5122 14.2575 11.5759 14.336 11.5759Z" fill="#F0F0F0"/>
<path d="M14.2943 11.2355C14.3728 11.2355 14.4366 11.1719 14.4366 11.0933C14.4366 11.0148 14.3728 10.9511 14.2943 10.9511C14.2158 10.9511 14.1521 11.0148 14.1521 11.0933C14.1521 11.1719 14.2158 11.2355 14.2943 11.2355Z" fill="#F0F0F0"/>
<path d="M14.3949 10.9069C14.4735 10.9069 14.5372 10.8433 14.5372 10.7647C14.5372 10.6862 14.4735 10.6225 14.3949 10.6225C14.3164 10.6225 14.2527 10.6862 14.2527 10.7647C14.2527 10.8433 14.3164 10.9069 14.3949 10.9069Z" fill="#F0F0F0"/>
<path d="M15.0201 10.3739C15.0988 10.3739 15.1625 10.3102 15.1625 10.2317C15.1625 10.153 15.0988 10.0894 15.0201 10.0894C14.9416 10.0894 14.8779 10.153 14.8779 10.2317C14.8779 10.3102 14.9416 10.3739 15.0201 10.3739Z" fill="#F0F0F0"/>
<path d="M14.7838 10.4711C14.8625 10.4711 14.9261 10.4074 14.9261 10.3289C14.9261 10.2503 14.8625 10.1866 14.7838 10.1866C14.7053 10.1866 14.6416 10.2503 14.6416 10.3289C14.6416 10.4074 14.7053 10.4711 14.7838 10.4711Z" fill="#F0F0F0"/>
<path d="M14.5576 10.6622C14.6361 10.6622 14.6998 10.5984 14.6998 10.5199C14.6998 10.4414 14.6361 10.3777 14.5576 10.3777C14.479 10.3777 14.4153 10.4414 14.4153 10.5199C14.4153 10.5984 14.479 10.6622 14.5576 10.6622Z" fill="#F0F0F0"/>
<path d="M15.7948 10.5784C15.8733 10.5784 15.9371 10.5147 15.9371 10.4361C15.9371 10.3577 15.8733 10.2939 15.7948 10.2939C15.7163 10.2939 15.6526 10.3576 15.6526 10.4361C15.6526 10.5147 15.7163 10.5784 15.7948 10.5784Z" fill="#F0F0F0"/>
<path d="M15.7948 10.8466C15.8733 10.8466 15.9371 10.7829 15.9371 10.7044C15.9371 10.6259 15.8733 10.5622 15.7948 10.5622C15.7163 10.5622 15.6526 10.6259 15.6526 10.7044C15.6526 10.7829 15.7163 10.8466 15.7948 10.8466Z" fill="#F0F0F0"/>
<path d="M15.7948 11.1349C15.8733 11.1349 15.9371 11.0713 15.9371 10.9927C15.9371 10.9143 15.8733 10.8506 15.7948 10.8506C15.7163 10.8506 15.6526 10.9142 15.6526 10.9927C15.6526 11.0713 15.7163 11.1349 15.7948 11.1349Z" fill="#F0F0F0"/>
<path d="M16.2878 10.3504C16.3664 10.3504 16.43 10.2866 16.43 10.2081C16.43 10.1297 16.3664 10.0659 16.2878 10.0659C16.2092 10.0659 16.1455 10.1296 16.1455 10.2081C16.1455 10.2866 16.2092 10.3504 16.2878 10.3504Z" fill="#F0F0F0"/>
<path d="M16.4822 10.3102C16.5607 10.3102 16.6243 10.2464 16.6243 10.1679C16.6243 10.0895 16.5607 10.0257 16.4822 10.0257C16.4035 10.0257 16.3398 10.0893 16.3398 10.1679C16.3398 10.2464 16.4035 10.3102 16.4822 10.3102Z" fill="#F0F0F0"/>
<path d="M16.7018 10.3454C16.7803 10.3454 16.844 10.2816 16.844 10.2031C16.844 10.1246 16.7803 10.0609 16.7018 10.0609C16.6232 10.0609 16.5596 10.1246 16.5596 10.2031C16.5596 10.2816 16.6232 10.3454 16.7018 10.3454Z" fill="#F0F0F0"/>
<path d="M17.2516 10.9488C17.3301 10.9488 17.3939 10.8852 17.3939 10.8066C17.3939 10.7281 17.3301 10.6644 17.2516 10.6644C17.173 10.6644 17.1094 10.7281 17.1094 10.8066C17.1094 10.8852 17.173 10.9488 17.2516 10.9488Z" fill="#F0F0F0"/>
<path d="M16.9229 10.4728C17.0016 10.4728 17.0653 10.4091 17.0653 10.3306C17.0653 10.2519 17.0016 10.1882 16.9229 10.1882C16.8444 10.1882 16.7808 10.2519 16.7808 10.3306C16.7808 10.4091 16.8444 10.4728 16.9229 10.4728Z" fill="#F0F0F0"/>
<path d="M17.1243 10.6672C17.2028 10.6672 17.2665 10.6036 17.2665 10.5249C17.2665 10.4464 17.2028 10.3827 17.1243 10.3827C17.0456 10.3827 16.9819 10.4464 16.9819 10.5249C16.9819 10.6036 17.0456 10.6672 17.1243 10.6672Z" fill="#F0F0F0"/>
<path d="M15.7859 12.7974L15.4104 12.9852L15.7484 13.198L16.149 12.9977L15.7859 12.7974Z" fill="#F0F0F0"/>
<path d="M14.9649 12.8369L14.4016 12.924C14.4016 12.924 14.3949 13.2258 14.4218 13.2996L14.9984 13.219C14.9984 13.219 15.0253 12.9374 14.9649 12.8369Z" fill="#F0F0F0"/>
<path d="M14.9022 12.9441C14.9022 12.9441 14.5625 12.9753 14.4775 13.0067L14.482 13.2123C14.482 13.2123 14.7056 13.1721 14.9112 13.1542L14.9022 12.9441Z" fill="#73AF00"/>
<path d="M16.571 12.853L17.1342 12.9402C17.1342 12.9402 17.141 13.2419 17.1141 13.3157L16.5375 13.2353C16.5375 13.2353 16.5106 12.9536 16.571 12.853Z" fill="#F0F0F0"/>
<path d="M16.6335 12.9604C16.6335 12.9604 16.9732 12.9916 17.0582 13.0229L17.0537 13.2285C17.0537 13.2285 16.8301 13.1883 16.6245 13.1704L16.6335 12.9604Z" fill="#73AF00"/>
<path d="M13.655 13.4224L13.8741 13.2391L13.6238 13.1899C13.6238 13.1899 13.6579 13.2286 13.6508 13.2641C13.6439 13.2996 13.6529 13.3912 13.655 13.4224Z" fill="#FF4B55"/>
<path d="M17.8818 13.4337L17.7275 13.2727L17.9487 13.2526C17.9487 13.2526 17.8884 13.2928 17.8884 13.3263C17.8884 13.3599 17.8952 13.4068 17.8818 13.4337Z" fill="#FF4B55"/>
<path d="M13.5207 12.5284C13.5207 12.5284 13.5297 12.9128 13.78 12.8591C14.0303 12.8055 14.0036 12.4925 14.0215 12.4747C14.0393 12.4567 14.0661 12.4567 14.0661 12.4567C14.0661 12.4567 14.1018 12.7607 14.3342 12.725C14.5667 12.6893 14.5577 12.3138 14.531 12.2511L14.5846 12.2332C14.5846 12.2332 14.6739 12.6713 14.9422 12.6088C15.2104 12.5462 15.1837 12.2691 15.1837 12.2691H15.2043C15.2043 12.2691 15.2641 12.5641 15.4787 12.5462C15.6932 12.5284 15.738 12.4567 15.7111 12.1617L15.8542 12.1349C15.8542 12.1349 15.8005 12.5641 16.0597 12.5551C16.3191 12.5462 16.3279 12.3406 16.3459 12.3048H16.3849C16.3849 12.3048 16.3995 12.6088 16.6141 12.6088C16.8287 12.6088 16.8733 12.3495 16.8733 12.2511L17.0829 12.2605C17.0829 12.2605 16.8644 12.6625 17.1864 12.7162C17.5082 12.7697 17.5171 12.4567 17.5171 12.4567H17.5796C17.5796 12.4567 17.5707 12.8591 17.7495 12.8681C17.9282 12.8771 18.0356 12.8144 18.0534 12.5194L18.1518 12.5551C18.1518 12.5551 18.0665 13.0321 17.7316 12.9484C17.5527 12.9038 17.4991 12.6982 17.508 12.6446C17.508 12.6446 17.383 12.868 17.1415 12.7965C16.9002 12.725 16.9269 12.5551 16.9269 12.5015C16.9269 12.5015 16.7818 12.768 16.5782 12.7069C16.3995 12.6534 16.3279 12.5907 16.3279 12.4656C16.3279 12.4656 16.2385 12.6712 16.0597 12.6624C15.8808 12.6534 15.7915 12.546 15.7826 12.4478C15.7826 12.4478 15.7471 12.6399 15.5053 12.6534C15.3444 12.6624 15.255 12.582 15.2193 12.4746C15.2193 12.4746 15.173 12.6693 14.9422 12.6981C14.7992 12.716 14.6561 12.6356 14.6203 12.5015C14.6203 12.5015 14.5846 12.7606 14.3521 12.7965C14.1196 12.8322 14.0659 12.6713 14.0659 12.6713C14.0659 12.6713 14.0214 12.8771 13.8336 12.9216C13.6458 12.9664 13.5206 12.886 13.4759 12.6982C13.4312 12.5104 13.4491 12.43 13.4491 12.43L13.5206 12.5282" fill="#FFE15A"/>
<path d="M13.5207 12.5284C13.5207 12.5284 13.5297 12.9128 13.78 12.8591C14.0303 12.8055 14.0036 12.4925 14.0215 12.4747C14.0393 12.4567 14.0661 12.4567 14.0661 12.4567C14.0661 12.4567 14.1018 12.7607 14.3342 12.725C14.5667 12.6893 14.5577 12.3138 14.531 12.2511L14.5846 12.2332C14.5846 12.2332 14.6739 12.6713 14.9422 12.6088C15.2104 12.5462 15.1837 12.2691 15.1837 12.2691H15.2043C15.2043 12.2691 15.2641 12.5641 15.4787 12.5462C15.6932 12.5284 15.738 12.4567 15.7111 12.1617L15.8542 12.1349C15.8542 12.1349 15.8005 12.5641 16.0597 12.5551C16.3191 12.5462 16.3279 12.3406 16.3459 12.3048H16.3849C16.3849 12.3048 16.3995 12.6088 16.6141 12.6088C16.8287 12.6088 16.8733 12.3495 16.8733 12.2511L17.0829 12.2605C17.0829 12.2605 16.8644 12.6625 17.1864 12.7162C17.5082 12.7697 17.5171 12.4567 17.5171 12.4567H17.5796C17.5796 12.4567 17.5707 12.8591 17.7495 12.8681C17.9282 12.8771 18.0356 12.8144 18.0534 12.5194L18.1518 12.5551C18.1518 12.5551 18.0665 13.0321 17.7316 12.9484C17.5527 12.9038 17.4991 12.6982 17.508 12.6446C17.508 12.6446 17.383 12.868 17.1415 12.7965C16.9002 12.725 16.9269 12.5551 16.9269 12.5015C16.9269 12.5015 16.7818 12.768 16.5782 12.7069C16.3995 12.6534 16.3279 12.5907 16.3279 12.4656C16.3279 12.4656 16.2385 12.6712 16.0597 12.6624C15.8808 12.6534 15.7915 12.546 15.7826 12.4478C15.7826 12.4478 15.7471 12.6399 15.5053 12.6534C15.3444 12.6624 15.255 12.582 15.2193 12.4746C15.2193 12.4746 15.173 12.6693 14.9422 12.6981C14.7992 12.716 14.6561 12.6356 14.6203 12.5015C14.6203 12.5015 14.5846 12.7606 14.3521 12.7965C14.1196 12.8322 14.0659 12.6713 14.0659 12.6713C14.0659 12.6713 14.0214 12.8771 13.8336 12.9216C13.6458 12.9664 13.5206 12.886 13.4759 12.6982C13.4312 12.5104 13.4491 12.43 13.4491 12.43L13.5206 12.5282L13.5207 12.5284Z" fill="#FFE15A"/>
<path d="M14.0394 12.5453C14.0884 12.5453 14.128 12.5057 14.128 12.4568C14.128 12.4079 14.0884 12.3682 14.0394 12.3682C13.9905 12.3682 13.9509 12.4079 13.9509 12.4568C13.9509 12.5057 13.9905 12.5453 14.0394 12.5453Z" fill="#FFE15A"/>
<path d="M14.0394 12.5453C14.0884 12.5453 14.128 12.5057 14.128 12.4568C14.128 12.4079 14.0884 12.3682 14.0394 12.3682C13.9905 12.3682 13.9509 12.4079 13.9509 12.4568C13.9509 12.5057 13.9905 12.5453 14.0394 12.5453Z" fill="#FFE15A"/>
<path d="M15.2045 12.3588C15.2534 12.3588 15.293 12.3191 15.293 12.2702C15.293 12.2213 15.2534 12.1817 15.2045 12.1817C15.1556 12.1817 15.116 12.2213 15.116 12.2702C15.116 12.3191 15.1556 12.3588 15.2045 12.3588Z" fill="#FFE15A"/>
<path d="M15.2045 12.3588C15.2534 12.3588 15.293 12.3191 15.293 12.2702C15.293 12.2213 15.2534 12.1817 15.2045 12.1817C15.1556 12.1817 15.116 12.2213 15.116 12.2702C15.116 12.3191 15.1556 12.3588 15.2045 12.3588Z" fill="#FFE15A"/>
<path d="M16.3854 12.3934C16.4344 12.3934 16.4739 12.3536 16.4739 12.3048C16.4739 12.2559 16.4344 12.2163 16.3854 12.2163C16.3365 12.2163 16.2969 12.2559 16.2969 12.3048C16.2969 12.3536 16.3365 12.3934 16.3854 12.3934Z" fill="#FFE15A"/>
<path d="M16.3854 12.3934C16.4344 12.3934 16.4739 12.3536 16.4739 12.3048C16.4739 12.2559 16.4344 12.2163 16.3854 12.2163C16.3365 12.2163 16.2969 12.2559 16.2969 12.3048C16.2969 12.3536 16.3365 12.3934 16.3854 12.3934Z" fill="#FFE15A"/>
<path d="M17.5571 12.5817C17.6061 12.5817 17.6457 12.5419 17.6457 12.4931C17.6457 12.4442 17.6061 12.4046 17.5571 12.4046C17.5083 12.4046 17.4688 12.4442 17.4688 12.4931C17.4688 12.5419 17.5083 12.5817 17.5571 12.5817Z" fill="#FFE15A"/>
<path d="M17.5571 12.5817C17.6061 12.5817 17.6457 12.5419 17.6457 12.4931C17.6457 12.4442 17.6061 12.4046 17.5571 12.4046C17.5083 12.4046 17.4688 12.4442 17.4688 12.4931C17.4688 12.5419 17.5083 12.5817 17.5571 12.5817Z" fill="#FFE15A"/>
<path d="M15.7428 12.2601H15.6624C15.6423 12.3406 15.4712 12.3909 15.4712 12.3909C15.4511 12.3272 15.4947 12.2367 15.4947 12.2367C15.2969 12.1863 15.2969 12.1159 15.2969 12.1159C15.327 12.0489 15.5081 12.0389 15.5081 12.0389C15.4611 11.9785 15.4712 11.8813 15.4712 11.8813C15.5919 11.8881 15.6925 12.0086 15.6925 12.0086C15.6925 12.0086 15.5718 11.9484 15.5852 11.7337C15.5852 11.7337 15.6522 11.7305 15.6925 11.774C15.6925 11.774 15.6925 11.5427 15.7897 11.516H15.7997C15.8969 11.5427 15.8969 11.774 15.8969 11.774C15.9372 11.7305 16.0042 11.7337 16.0042 11.7337C16.0176 11.9483 15.8969 12.0086 15.8969 12.0086C15.8969 12.0086 15.9975 11.8881 16.1182 11.8813C16.1182 11.8813 16.1283 11.9784 16.0813 12.0389C16.0813 12.0389 16.2624 12.0489 16.2925 12.1159C16.2925 12.1159 16.2925 12.1863 16.0947 12.2367C16.0947 12.2367 16.1383 12.3272 16.1182 12.3909C16.1182 12.3909 15.9471 12.3406 15.927 12.2601H15.7427" fill="#FFE15A"/>
<path d="M15.7428 12.2601H15.6624C15.6423 12.3406 15.4712 12.3909 15.4712 12.3909C15.4511 12.3272 15.4947 12.2367 15.4947 12.2367C15.2969 12.1863 15.2969 12.1159 15.2969 12.1159C15.327 12.0489 15.5081 12.0389 15.5081 12.0389C15.4611 11.9785 15.4712 11.8813 15.4712 11.8813C15.5919 11.8881 15.6925 12.0086 15.6925 12.0086C15.6925 12.0086 15.5718 11.9484 15.5852 11.7337C15.5852 11.7337 15.6522 11.7305 15.6925 11.774C15.6925 11.774 15.6925 11.5427 15.7897 11.516H15.7997C15.8969 11.5427 15.8969 11.774 15.8969 11.774C15.9372 11.7305 16.0042 11.7337 16.0042 11.7337C16.0176 11.9483 15.8969 12.0086 15.8969 12.0086C15.8969 12.0086 15.9975 11.8881 16.1182 11.8813C16.1182 11.8813 16.1283 11.9784 16.0813 12.0389C16.0813 12.0389 16.2624 12.0489 16.2925 12.1159C16.2925 12.1159 16.2925 12.1863 16.0947 12.2367C16.0947 12.2367 16.1383 12.3272 16.1182 12.3909C16.1182 12.3909 15.9471 12.3406 15.927 12.2601H15.7427H15.7428Z" fill="#FFE15A"/>
<path d="M15.7884 12.3058C15.8779 12.3058 15.9504 12.2333 15.9504 12.1438C15.9504 12.0544 15.8779 11.9819 15.7884 11.9819C15.699 11.9819 15.6265 12.0544 15.6265 12.1438C15.6265 12.2333 15.699 12.3058 15.7884 12.3058Z" fill="#F0F0F0"/>
<path d="M15.7886 12.2323C15.8375 12.2323 15.8772 12.1927 15.8772 12.1438C15.8772 12.095 15.8375 12.0554 15.7886 12.0554C15.7398 12.0554 15.7002 12.095 15.7002 12.1438C15.7002 12.1927 15.7398 12.2323 15.7886 12.2323Z" fill="#F0F0F0"/>
<path d="M17.017 12.365L17.0956 12.3821C17.0981 12.465 17.2549 12.5502 17.2549 12.5502C17.2878 12.4921 17.2643 12.3945 17.2643 12.3945C17.4683 12.3871 17.483 12.3183 17.483 12.3183C17.4678 12.2463 17.2929 12.1982 17.2929 12.1982C17.3515 12.1492 17.3622 12.0519 17.3622 12.0519C17.2428 12.0331 17.1189 12.1298 17.1189 12.1298C17.1189 12.1298 17.2497 12.0964 17.2819 11.8837C17.2819 11.8837 17.2169 11.8665 17.1686 11.9004C17.1686 11.9004 17.2173 11.6743 17.128 11.6277L17.1182 11.6255C17.0175 11.6312 16.9687 11.8574 16.9687 11.8574C16.9386 11.8062 16.8723 11.7954 16.8723 11.7954C16.8139 12.0022 16.9192 12.0868 16.9192 12.0868C16.9192 12.0868 16.8463 11.9475 16.7298 11.9155C16.7298 11.9155 16.6994 12.0084 16.7326 12.0773C16.7326 12.0773 16.5535 12.049 16.5098 12.1082C16.5098 12.1082 16.4951 12.177 16.6778 12.2679C16.6778 12.2679 16.616 12.3472 16.6223 12.4137C16.6223 12.4137 16.8001 12.4007 16.8367 12.3262L16.9153 12.3431L17.017 12.365Z" fill="#FFE15A"/>
<path d="M17.017 12.365L17.0956 12.3821C17.0981 12.465 17.2549 12.5502 17.2549 12.5502C17.2878 12.4921 17.2643 12.3945 17.2643 12.3945C17.4683 12.3871 17.483 12.3183 17.483 12.3183C17.4678 12.2463 17.2929 12.1982 17.2929 12.1982C17.3515 12.1492 17.3622 12.0519 17.3622 12.0519C17.2428 12.0331 17.1189 12.1298 17.1189 12.1298C17.1189 12.1298 17.2497 12.0964 17.2819 11.8837C17.2819 11.8837 17.2169 11.8665 17.1686 11.9004C17.1686 11.9004 17.2173 11.6743 17.128 11.6277L17.1182 11.6255C17.0175 11.6312 16.9687 11.8574 16.9687 11.8574C16.9386 11.8062 16.8723 11.7954 16.8723 11.7954C16.8139 12.0022 16.9192 12.0868 16.9192 12.0868C16.9192 12.0868 16.8463 11.9475 16.7298 11.9155C16.7298 11.9155 16.6994 12.0084 16.7326 12.0773C16.7326 12.0773 16.5535 12.049 16.5098 12.1082C16.5098 12.1082 16.4951 12.177 16.6778 12.2679C16.6778 12.2679 16.616 12.3472 16.6223 12.4137C16.6223 12.4137 16.8001 12.4007 16.8367 12.3262L16.9153 12.3431L17.017 12.365Z" fill="#FFE15A"/>
<path d="M16.9625 12.4001C16.8752 12.3813 16.8195 12.2951 16.8384 12.2076C16.8572 12.1202 16.9434 12.0645 17.0309 12.0834C17.1184 12.1023 17.174 12.1885 17.1552 12.276C17.1362 12.3634 17.05 12.4191 16.9625 12.4001Z" fill="#F0F0F0"/>
<path d="M16.9781 12.3283C16.9302 12.318 16.8999 12.2709 16.9102 12.2231C16.9205 12.1754 16.9676 12.1449 17.0154 12.1553C17.0632 12.1656 17.0936 12.2128 17.0833 12.2605C17.0729 12.3083 17.0258 12.3387 16.9781 12.3283Z" fill="#F0F0F0"/>
<path d="M14.5188 12.3493L14.439 12.3598C14.4296 12.4423 14.2667 12.5147 14.2667 12.5147C14.2384 12.4542 14.2696 12.3588 14.2696 12.3588C14.067 12.3349 14.0576 12.2651 14.0576 12.2651C14.0788 12.1948 14.2568 12.1608 14.2568 12.1608C14.2024 12.1073 14.1996 12.0095 14.1996 12.0095C14.3201 12.0004 14.4358 12.1066 14.4358 12.1066C14.4358 12.1066 14.3082 12.0627 14.2932 11.8483C14.2932 11.8483 14.3593 11.8361 14.4049 11.874C14.4049 11.874 14.3744 11.6447 14.467 11.6052L14.477 11.6041C14.577 11.6177 14.6074 11.8471 14.6074 11.8471C14.6416 11.7987 14.7085 11.793 14.7085 11.793C14.7502 12.004 14.6384 12.0796 14.6384 12.0796C14.6384 12.0796 14.7222 11.9469 14.841 11.9243C14.841 11.9243 14.8638 12.0193 14.8252 12.0852C14.8252 12.0852 15.006 12.0713 15.0448 12.1338C15.0448 12.1338 15.054 12.2036 14.8646 12.2796C14.8646 12.2796 14.9198 12.3635 14.9082 12.4293C14.9082 12.4293 14.7321 12.4021 14.7015 12.3249L14.6217 12.3356L14.5188 12.3493Z" fill="#FFE15A"/>
<path d="M14.5188 12.3493L14.439 12.3598C14.4296 12.4423 14.2667 12.5147 14.2667 12.5147C14.2384 12.4542 14.2696 12.3588 14.2696 12.3588C14.067 12.3349 14.0576 12.2651 14.0576 12.2651C14.0788 12.1948 14.2568 12.1608 14.2568 12.1608C14.2024 12.1073 14.1996 12.0095 14.1996 12.0095C14.3201 12.0004 14.4358 12.1066 14.4358 12.1066C14.4358 12.1066 14.3082 12.0627 14.2932 11.8483C14.2932 11.8483 14.3593 11.8361 14.4049 11.874C14.4049 11.874 14.3744 11.6447 14.467 11.6052L14.477 11.6041C14.577 11.6177 14.6074 11.8471 14.6074 11.8471C14.6416 11.7987 14.7085 11.793 14.7085 11.793C14.7502 12.004 14.6384 12.0796 14.6384 12.0796C14.6384 12.0796 14.7222 11.9469 14.841 11.9243C14.841 11.9243 14.8638 12.0193 14.8252 12.0852C14.8252 12.0852 15.006 12.0713 15.0448 12.1338C15.0448 12.1338 15.054 12.2036 14.8646 12.2796C14.8646 12.2796 14.9198 12.3635 14.9082 12.4293C14.9082 12.4293 14.7321 12.4021 14.7015 12.3249L14.6217 12.3356L14.5188 12.3493Z" fill="#FFE15A"/>
<path d="M14.5701 12.3886C14.6588 12.3768 14.7212 12.2954 14.7093 12.2066C14.6975 12.1179 14.616 12.0555 14.5274 12.0675C14.4386 12.0792 14.3764 12.1607 14.3882 12.2494C14.3999 12.338 14.4814 12.4004 14.5701 12.3886Z" fill="#F0F0F0"/>
<path d="M14.5604 12.3157C14.6088 12.3093 14.6429 12.2649 14.6364 12.2163C14.63 12.1679 14.5855 12.1339 14.5371 12.1402C14.4886 12.1467 14.4545 12.1912 14.461 12.2396C14.4674 12.2882 14.512 12.3221 14.5604 12.3157Z" fill="#F0F0F0"/>
<path d="M18.1399 12.6936C18.1399 12.6936 18.0993 12.587 18.0096 12.6254C17.9199 12.6637 17.9292 12.6776 17.849 12.6728C17.849 12.6728 17.8177 12.5769 17.8572 12.5355C17.8572 12.5355 17.7291 12.4876 17.7021 12.3752C17.7021 12.3752 17.7708 12.2955 17.9335 12.3252C17.9335 12.3252 17.9284 12.2444 17.9507 12.2087C17.9507 12.2087 18.1254 12.2628 18.1263 12.3603C18.1263 12.3603 18.0739 12.169 18.1662 12.0302C18.1662 12.0302 18.248 12.0653 18.2428 12.1524C18.2428 12.1524 18.2804 11.9732 18.5227 12.0213C18.5227 12.0213 18.3914 12.1378 18.3848 12.1911C18.3783 12.2444 18.2688 12.3352 18.2668 12.3654C18.2652 12.3955 18.2519 12.4484 18.2197 12.4801C18.1875 12.5117 18.1843 12.5654 18.1869 12.5822C18.1891 12.5992 18.1814 12.6726 18.1399 12.6936Z" fill="#FFE15A"/>
<path d="M18.1399 12.6936C18.1399 12.6936 18.0993 12.587 18.0096 12.6254C17.9199 12.6637 17.9292 12.6776 17.849 12.6728C17.849 12.6728 17.8177 12.5769 17.8572 12.5355C17.8572 12.5355 17.7291 12.4876 17.7021 12.3752C17.7021 12.3752 17.7708 12.2955 17.9335 12.3252C17.9335 12.3252 17.9284 12.2444 17.9507 12.2087C17.9507 12.2087 18.1254 12.2628 18.1263 12.3603C18.1263 12.3603 18.0739 12.169 18.1662 12.0302C18.1662 12.0302 18.248 12.0653 18.2428 12.1524C18.2428 12.1524 18.2804 11.9732 18.5227 12.0213C18.5227 12.0213 18.3914 12.1378 18.3848 12.1911C18.3783 12.2444 18.2688 12.3352 18.2668 12.3654C18.2652 12.3955 18.2519 12.4484 18.2197 12.4801C18.1875 12.5117 18.1843 12.5654 18.1869 12.5822C18.1891 12.5992 18.1814 12.6726 18.1399 12.6936Z" fill="#FFE15A"/>
<path d="M18.0086 12.481C18.0257 12.3932 18.1108 12.3358 18.1986 12.353C18.2235 12.3577 18.2458 12.3682 18.2648 12.3826C18.2599 12.4129 18.2463 12.4538 18.2197 12.4801C18.1875 12.5117 18.1843 12.5654 18.1868 12.5822C18.1886 12.5955 18.1838 12.6434 18.1618 12.6738C18.1535 12.6734 18.145 12.6726 18.1367 12.6709C18.0491 12.6539 17.9917 12.5688 18.0086 12.481Z" fill="#F0F0F0"/>
<path d="M18.081 12.4951C18.0902 12.4472 18.1367 12.4158 18.1848 12.4251C18.2066 12.4293 18.2246 12.4415 18.2374 12.4579C18.2323 12.4659 18.2266 12.4735 18.2199 12.4801C18.1877 12.5117 18.1845 12.5654 18.187 12.5822C18.1873 12.5856 18.1873 12.5915 18.1867 12.5985C18.1753 12.6009 18.1631 12.6013 18.151 12.5988C18.1029 12.5895 18.0716 12.5431 18.081 12.4951Z" fill="#F0F0F0"/>
<path d="M13.446 12.649C13.446 12.649 13.4929 12.5451 13.58 12.5887C13.6673 12.6323 13.6572 12.6457 13.7377 12.6457C13.7377 12.6457 13.7745 12.5518 13.7377 12.5083C13.7377 12.5083 13.8684 12.468 13.902 12.3573C13.902 12.3573 13.8383 12.2736 13.6739 12.2937C13.6739 12.2937 13.6841 12.2131 13.664 12.1763C13.664 12.1763 13.4863 12.2199 13.4795 12.3171C13.4795 12.3171 13.5433 12.1293 13.4594 11.9852C13.4594 11.9852 13.3756 12.0153 13.3756 12.1025C13.3756 12.1025 13.3488 11.9214 13.104 11.955C13.104 11.955 13.228 12.0791 13.2315 12.1326C13.2348 12.1863 13.3387 12.2836 13.3387 12.3138C13.3387 12.3439 13.3488 12.3976 13.3789 12.4311C13.4092 12.4647 13.4092 12.5182 13.4057 12.535C13.4024 12.5517 13.4057 12.6255 13.446 12.649Z" fill="#FFE15A"/>
<path d="M13.446 12.649C13.446 12.649 13.4929 12.5451 13.58 12.5887C13.6673 12.6323 13.6572 12.6457 13.7377 12.6457C13.7377 12.6457 13.7745 12.5518 13.7377 12.5083C13.7377 12.5083 13.8684 12.468 13.902 12.3573C13.902 12.3573 13.8383 12.2736 13.6739 12.2937C13.6739 12.2937 13.6841 12.2131 13.664 12.1763C13.664 12.1763 13.4863 12.2199 13.4795 12.3171C13.4795 12.3171 13.5433 12.1293 13.4594 11.9852C13.4594 11.9852 13.3756 12.0153 13.3756 12.1025C13.3756 12.1025 13.3488 11.9214 13.104 11.955C13.104 11.955 13.228 12.0791 13.2315 12.1326C13.2348 12.1863 13.3387 12.2836 13.3387 12.3138C13.3387 12.3439 13.3488 12.3976 13.3789 12.4311C13.4092 12.4647 13.4092 12.5182 13.4057 12.535C13.4024 12.5517 13.4057 12.6255 13.446 12.649Z" fill="#FFE15A"/>
<path d="M13.5894 12.4447C13.5776 12.3559 13.4963 12.2937 13.4075 12.3055C13.3824 12.3088 13.3595 12.3179 13.3396 12.3311C13.3427 12.3617 13.3537 12.4032 13.3788 12.4311C13.409 12.4647 13.409 12.5182 13.4056 12.535C13.403 12.5481 13.4048 12.5963 13.4252 12.6278C13.4334 12.6279 13.4418 12.6278 13.4503 12.6266C13.5389 12.6148 13.6013 12.5334 13.5894 12.4447Z" fill="#F0F0F0"/>
<path d="M13.5168 12.4543C13.5104 12.4059 13.4658 12.3718 13.4174 12.3782C13.3952 12.3813 13.3765 12.3923 13.3628 12.4078C13.3675 12.4161 13.3727 12.4241 13.3789 12.4311C13.4092 12.4647 13.4092 12.5182 13.4057 12.535C13.4051 12.5383 13.4048 12.5441 13.4049 12.5512C13.4162 12.5544 13.4284 12.5554 13.4407 12.5538C13.4891 12.5473 13.5232 12.5029 13.5168 12.4543Z" fill="#F0F0F0"/>
<path d="M15.783 12.8905L15.5818 12.9911L15.7629 13.1051L15.9775 12.9978L15.783 12.8905Z" fill="#FF4B55"/>
</svg>
