<svg width="32" height="32" viewBox="0 0 32 32" fill="none" xmlns="http://www.w3.org/2000/svg">
<mask id="mask0" mask-type="alpha" maskUnits="userSpaceOnUse" x="0" y="5" width="32" height="22">
<path d="M30 5.33319H2C0.895431 5.33319 0 6.22862 0 7.33319V24.6668C0 25.7713 0.895431 26.6668 2 26.6668H30C31.1046 26.6668 32 25.7713 32 24.6668V7.33319C32 6.22862 31.1046 5.33319 30 5.33319Z" fill="#F0F0F0"/>
</mask>
<g mask="url(#mask0)">
<path d="M32 5.33319H0V26.6668H32V5.33319Z" fill="#F0F0F0"/>
<path d="M20 13.6903H17.3333L16 11.3809L14.6667 13.6903H12L13.3334 15.9997L12 18.309H14.6667L16 20.6184L17.3333 18.3091H20L18.6666 15.9996L20 13.6903ZM17.6381 15.9996L16.8191 17.4183H15.181L14.3619 15.9996L15.181 14.5809H16.8191L17.6381 15.9996ZM16 13.1623L16.3048 13.6903H15.6952L16 13.1623ZM13.5428 14.5809H14.1525L13.8477 15.1089L13.5428 14.5809ZM13.5428 17.4184L13.8476 16.8904L14.1524 17.4184H13.5428ZM16 18.837L15.6952 18.309H16.3049L16 18.837ZM18.4572 17.4184H17.8475L18.1523 16.8904L18.4572 17.4184ZM17.8475 14.5809H18.4572L18.1524 15.1089L17.8475 14.5809Z" fill="#0052B4"/>
<path d="M32 6.66608H0V9.33251H32V6.66608Z" fill="#0052B4"/>
<path d="M32 22.6661H0V25.3325H32V22.6661Z" fill="#0052B4"/>
</g>
</svg>
