<svg width="32" height="32" viewBox="0 0 32 32" fill="none" xmlns="http://www.w3.org/2000/svg">
<path d="M30 5.33356H2C0.895431 5.33356 0 6.22899 0 7.33356V24.6664C0 25.771 0.895431 26.6664 2 26.6664H30C31.1046 26.6664 32 25.771 32 24.6664V7.33356C32 6.22899 31.1046 5.33356 30 5.33356Z" fill="#F0F0F0"/>
<path d="M30 5.33356H2C0.895431 5.33356 0 6.22899 0 7.33356V12.4445H32V7.33356C32 6.22899 31.1046 5.33356 30 5.33356Z" fill="#FF9811"/>
<path d="M32 19.5555H0V24.6664C0 25.771 0.895431 26.6664 2 26.6664H30C31.1046 26.6664 32 25.771 32 24.6664V19.5555Z" fill="#73AF00"/>
<path d="M15.9655 18.931C14.3302 18.931 13 17.6007 13 15.9655C13 14.3302 14.3302 13 15.9655 13C17.6007 13 18.931 14.3302 18.931 15.9655C18.931 17.6007 17.6007 18.931 15.9655 18.931ZM15.9655 13.5517C14.6344 13.5517 13.5517 14.6344 13.5517 15.9655C13.5517 17.2966 14.6344 18.3793 15.9655 18.3793C17.2966 18.3793 18.3793 17.2966 18.3793 15.9655C18.3793 14.6344 17.2966 13.5517 15.9655 13.5517Z" fill="#0052B4"/>
<path d="M15.9656 16.3017C16.1513 16.3017 16.3018 16.1512 16.3018 15.9655C16.3018 15.7798 16.1513 15.6293 15.9656 15.6293C15.7799 15.6293 15.6294 15.7798 15.6294 15.9655C15.6294 16.1512 15.7799 16.3017 15.9656 16.3017Z" fill="#0052B4"/>
<path d="M15.9655 16.0159L15.1111 16.1022L13.2759 16.0159V15.9151L15.1111 15.8288L15.9655 15.9151V16.0159Z" fill="#0052B4"/>
<path d="M15.9656 16.0159L16.82 16.1022L18.6552 16.0159V15.9151L16.82 15.8288L15.9656 15.9151V16.0159Z" fill="#0052B4"/>
<path d="M15.9151 15.9655L15.8289 15.1111L15.9151 13.2759H16.016L16.1022 15.1111L16.016 15.9655H15.9151Z" fill="#0052B4"/>
<path d="M15.9151 15.9655L15.8289 16.8199L15.9151 18.6551H16.016L16.1022 16.8199L16.016 15.9655H15.9151Z" fill="#0052B4"/>
<path d="M15.9299 16.0011L15.2648 15.4581L14.0281 14.0993L14.0994 14.028L15.4581 15.2648L16.0012 15.9299L15.9299 16.0011Z" fill="#0052B4"/>
<path d="M15.9299 16.0011L16.473 16.6663L17.8317 17.903L17.9031 17.8317L16.6663 16.4729L16.0012 15.9299L15.9299 16.0011Z" fill="#0052B4"/>
<path d="M15.9299 15.9299L16.473 15.2648L17.8317 14.028L17.9031 14.0993L16.6663 15.4581L16.0012 16.0011L15.9299 15.9299Z" fill="#0052B4"/>
<path d="M15.9299 15.9299L15.2648 16.4729L14.0281 17.8317L14.0994 17.903L15.4581 16.6663L16.0012 16.0011L15.9299 15.9299Z" fill="#0052B4"/>
<path d="M15.9849 16.0121L15.2286 16.4187L13.5001 17.0414L13.4614 16.9482L15.124 16.1662L15.9463 15.9189L15.9849 16.0121Z" fill="#0052B4"/>
<path d="M15.9849 16.0121L16.8072 15.7648L18.4698 14.9828L18.4311 14.8896L16.7027 15.5122L15.9463 15.9189L15.9849 16.0121Z" fill="#0052B4"/>
<path d="M15.9189 15.9848L15.5123 15.2284L14.8896 13.4999L14.9828 13.4613L15.7648 15.1239L16.0122 15.9462L15.9189 15.9848Z" fill="#0052B4"/>
<path d="M15.9189 15.9848L16.1663 16.8071L16.9483 18.4697L17.0414 18.431L16.4188 16.7026L16.0122 15.9462L15.9189 15.9848Z" fill="#0052B4"/>
<path d="M15.9463 16.0121L15.124 15.7648L13.4614 14.9828L13.5001 14.8896L15.2286 15.5122L15.9849 15.9189L15.9463 16.0121Z" fill="#0052B4"/>
<path d="M15.9463 16.0121L16.7027 16.4187L18.4311 17.0414L18.4698 16.9482L16.8072 16.1662L15.9849 15.9189L15.9463 16.0121Z" fill="#0052B4"/>
<path d="M15.9189 15.9462L16.1663 15.1239L16.9483 13.4613L17.0414 13.4999L16.4188 15.2284L16.0122 15.9848L15.9189 15.9462Z" fill="#0052B4"/>
<path d="M15.9189 15.9462L15.5123 16.7026L14.8896 18.431L14.9828 18.4697L15.7648 16.8071L16.0122 15.9848L15.9189 15.9462Z" fill="#0052B4"/>
<path d="M15.9655 16.419C16.2159 16.419 16.419 16.216 16.419 15.9655C16.419 15.715 16.2159 15.512 15.9655 15.512C15.715 15.512 15.512 15.715 15.512 15.9655C15.512 16.216 15.715 16.419 15.9655 16.419Z" fill="#F0F0F0"/>
<path d="M15.9655 16.2374C16.1157 16.2374 16.2375 16.1157 16.2375 15.9655C16.2375 15.8153 16.1157 15.6935 15.9655 15.6935C15.8154 15.6935 15.6936 15.8153 15.6936 15.9655C15.6936 16.1157 15.8154 16.2374 15.9655 16.2374Z" fill="#0052B4"/>
</svg>
