<svg width="32" height="32" viewBox="0 0 32 32" fill="none" xmlns="http://www.w3.org/2000/svg">
<path d="M30 5.33356H2C0.895431 5.33356 0 6.22899 0 7.33356V24.6664C0 25.771 0.895431 26.6664 2 26.6664H30C31.1046 26.6664 32 25.771 32 24.6664V7.33356C32 6.22899 31.1046 5.33356 30 5.33356Z" fill="#F0F0F0"/>
<path d="M30 5.33356H2C0.895431 5.33356 0 6.229 0 7.33356V12.4445H32V7.33356C32 6.22899 31.1046 5.33356 30 5.33356Z" fill="#FF4B55"/>
<path d="M32 19.5555H0V24.6664C0 25.771 0.895431 26.6664 2 26.6664H30C31.1046 26.6664 32 25.771 32 24.6664V19.5555Z" fill="#0052B4"/>
<path d="M18.7826 12.7537H16.9275L17.2367 10.4348L18.4734 9.50725L19.7101 10.4348V12.2899L18.7826 12.7537Z" fill="#82AFFF"/>
<path d="M13.2173 12.7537H15.0724L14.7632 10.4348L13.5265 9.50725L12.2898 10.4348V12.2899L13.2173 12.7537Z" fill="#82AFFF"/>
<path d="M17.2367 12.7537H14.7632V10.4348L15.9999 9.50725L17.2367 10.4348V12.7537Z" fill="#0052B4"/>
<path d="M12.2898 12.2899V17.3913C12.2898 18.6061 12.8766 19.6863 13.7815 20.3635L14.4308 20.201L15.2501 21.0252C15.4924 21.0751 15.743 21.1014 15.9999 21.1014C16.2553 21.1014 16.5047 21.0755 16.7457 21.0261L17.681 20.2474L18.2182 20.3621C19.1228 19.6849 19.7099 18.6057 19.7099 17.3914V12.2899L12.2898 12.2899Z" fill="#F0F0F0"/>
<path d="M13.7741 12.2901H12.29V13.7741H13.7741V12.2901Z" fill="#FF4B55"/>
<path d="M16.7419 12.2901H15.2578V13.7741H16.7419V12.2901Z" fill="#FF4B55"/>
<path d="M19.7101 12.2901H18.2261V13.7741H19.7101V12.2901Z" fill="#FF4B55"/>
<path d="M15.258 13.7739H13.7739V15.258H15.258V13.7739Z" fill="#FF4B55"/>
<path d="M18.2262 13.7739H16.7422V15.258H18.2262V13.7739Z" fill="#FF4B55"/>
<path d="M13.7741 15.2577H12.29V16.7418H13.7741V15.2577Z" fill="#FF4B55"/>
<path d="M15.258 16.7416H13.7739V18.2256H15.258V16.7416Z" fill="#FF4B55"/>
<path d="M16.7419 15.2577H15.2578V16.7418H16.7419V15.2577Z" fill="#FF4B55"/>
<path d="M19.7101 15.2577H18.2261V16.7418H19.7101V15.2577Z" fill="#FF4B55"/>
<path d="M18.2262 16.7416H16.7422V18.2256H18.2262V16.7416Z" fill="#FF4B55"/>
<path d="M16.7419 18.2261H15.2578V19.7101H16.7419V18.2261Z" fill="#FF4B55"/>
<path d="M13.774 18.2258H12.3857C12.5131 18.7774 12.7634 19.2823 13.1067 19.7099H13.774V18.2258Z" fill="#FF4B55"/>
<path d="M18.2261 19.7098H18.8934C19.2367 19.2822 19.487 18.7774 19.6144 18.2257H18.2261V19.7098Z" fill="#FF4B55"/>
<path d="M13.7739 19.7098V20.3574C14.2056 20.6821 14.7099 20.9151 15.258 21.0268V19.7098H13.7739Z" fill="#FF4B55"/>
<path d="M16.7419 19.7098V21.0268C17.29 20.9151 17.7944 20.6821 18.226 20.3574V19.7098H16.7419Z" fill="#FF4B55"/>
</svg>
