<svg width="32" height="32" viewBox="0 0 32 32" fill="none" xmlns="http://www.w3.org/2000/svg">
<g clip-path="url(#clip0)">
<path d="M21.3334 5.33311H10.6666H2C0.89543 5.33311 0 6.22855 0 7.33311V24.6664C0 25.7709 0.895431 26.6664 2 26.6664H10.6666H21.3334H30C31.1046 26.6664 32 25.7709 32 24.6664V7.33311C32 6.22854 31.1046 5.33311 30 5.33311H21.3334Z" fill="#F0F0F0"/>
<path d="M10.6664 5.33331H2C0.895431 5.33331 0 6.22874 0 7.33331V24.6669C0 25.7714 0.895429 26.6669 2 26.6669H10.6664V5.33331Z" fill="#73AF00"/>
<path d="M30 5.33331H21.3335V26.6669H30C31.1045 26.6669 32 25.7714 32 24.6669V7.33331C32 6.22874 31.1045 5.33331 30 5.33331Z" fill="#FF4B55"/>
</g>
<defs>
<clipPath id="clip0">
<rect width="32" height="32" fill="white"/>
</clipPath>
</defs>
</svg>
