<svg width="32" height="32" viewBox="0 0 32 32" fill="none" xmlns="http://www.w3.org/2000/svg">
<path d="M30 5.33319H2C0.895431 5.33319 0 6.22862 0 7.33319V24.6668C0 25.7713 0.895431 26.6668 2 26.6668H30C31.1046 26.6668 32 25.7713 32 24.6668V7.33319C32 6.22862 31.1046 5.33319 30 5.33319Z" fill="#F0F0F0"/>
<path d="M18.2962 12.5698C16.4069 11.301 13.855 11.8197 12.5962 13.7197C11.9649 14.668 12.2215 15.9566 13.1661 16.591C14.11 17.2254 15.3851 16.9678 16.0149 16.0161C16.6447 15.0645 17.9206 14.8101 18.8645 15.4412C19.8099 16.0756 20.0642 17.3642 19.4335 18.3125C20.6931 16.4094 20.1839 13.8387 18.2962 12.5698Z" fill="#FF4B55"/>
<path d="M12.5659 13.6875C11.9345 14.6356 12.1912 15.9238 13.1359 16.5581C14.0798 17.1923 15.355 16.9347 15.9848 15.9833C16.6146 15.032 17.8906 14.7776 18.8345 15.4085C19.78 16.0428 20.0343 17.331 19.4036 18.2791C18.1456 20.1851 15.5944 20.6972 13.705 19.4287C11.8173 18.1603 11.3064 15.5902 12.5659 13.6875Z" fill="#0052B4"/>
<path d="M21.1651 18.4105L20.1321 19.4435L20.8207 20.1321L21.8537 19.0991L21.1651 18.4105Z" fill="#464655"/>
<path d="M19.4434 20.1314L18.4104 21.1644L19.099 21.853L20.132 20.8201L19.4434 20.1314Z" fill="#464655"/>
<path d="M23.231 20.4753L22.198 21.5082L22.8866 22.1969L23.9196 21.1639L23.231 20.4753Z" fill="#464655"/>
<path d="M21.5093 22.1976L20.4763 23.2305L21.1649 23.9192L22.1979 22.8862L21.5093 22.1976Z" fill="#464655"/>
<path d="M22.198 19.4429L21.165 20.4759L21.8537 21.1645L22.8867 20.1315L22.198 19.4429Z" fill="#464655"/>
<path d="M20.4763 21.1645L19.4434 22.1975L20.132 22.8861L21.165 21.8531L20.4763 21.1645Z" fill="#464655"/>
<path d="M19.4439 9.80142L22.1985 12.556L22.8871 11.8674L20.1325 9.1128L19.4439 9.80142Z" fill="#464655"/>
<path d="M18.4106 10.8346L19.4436 11.8676L20.1322 11.179L19.0992 10.146L18.4106 10.8346Z" fill="#464655"/>
<path d="M20.1316 12.5565L21.1646 13.5895L21.8531 12.9009L20.8201 11.8679L20.1316 12.5565Z" fill="#464655"/>
<path d="M20.4756 8.76856L21.5085 9.80155L22.1972 9.11292L21.1642 8.07994L20.4756 8.76856Z" fill="#464655"/>
<path d="M22.198 10.4904L23.231 11.5234L23.9196 10.8348L22.8866 9.80177L22.198 10.4904Z" fill="#464655"/>
<path d="M11.5239 23.2303L8.76929 20.4757L8.08066 21.1643L10.8353 23.9189L11.5239 23.2303Z" fill="#464655"/>
<path d="M12.5559 22.1977L11.5229 21.1647L10.8344 21.8532L11.8674 22.8862L12.5559 22.1977Z" fill="#464655"/>
<path d="M10.835 20.4759L9.802 19.4429L9.11337 20.1316L10.1464 21.1645L10.835 20.4759Z" fill="#464655"/>
<path d="M13.5898 21.1648L10.8352 18.4102L10.1466 19.0989L12.9012 21.8535L13.5898 21.1648Z" fill="#464655"/>
<path d="M8.76932 11.5225L11.5239 8.76795L10.8353 8.07933L8.0807 10.8339L8.76932 11.5225Z" fill="#464655"/>
<path d="M9.80132 12.556L12.5559 9.80145L11.8673 9.11282L9.11269 11.8674L9.80132 12.556Z" fill="#464655"/>
<path d="M10.8345 13.5891L13.5891 10.8345L12.9005 10.1459L10.1459 12.9005L10.8345 13.5891Z" fill="#464655"/>
</svg>
