<svg width="32" height="32" viewBox="0 0 32 32" fill="none" xmlns="http://www.w3.org/2000/svg">
<path d="M32 15.9967H0V24.6633C0 25.7679 0.895431 26.6633 2 26.6633H30C31.1046 26.6633 32 25.7679 32 24.6633V15.9967Z" fill="#73AF00"/>
<path d="M30 5.33H2C0.895431 5.33 0 6.22543 0 7.33V15.9967H32V7.33C32 6.22543 31.1046 5.33 30 5.33Z" fill="#FF4B55"/>
<path d="M32 12.4447H0V19.5487H32V12.4447Z" fill="#F0F0F0"/>
<path d="M18.6156 16.194L21.3186 15.5988L18.5569 15.4143L20.9655 14.0489L18.2721 14.6868L20.1708 12.6719L17.7847 14.0756L19.0049 11.5903L17.1393 13.634L17.5735 10.9001L16.3916 13.4036L16.0012 10.6633L15.6108 13.4036L14.4289 10.9001L14.863 13.634L12.9963 11.5892L14.2177 14.0735L11.8305 12.6708L13.7291 14.6847L11.0358 14.0468L13.4433 15.4121L10.6816 15.5967L13.3846 16.1919L10.8 17.1828L13.5585 16.9535L11.3803 18.6623H11.3814H11.3803L13.9489 17.6308L12.3713 19.906L14.5217 18.1631L13.6854 20.8009L15.2257 18.5023L15.2044 21.2703L15.999 18.6196L16.7937 21.2703L16.7724 18.5033L18.3127 20.802L17.4764 18.1641L19.6268 19.9071L18.0492 17.6329L20.6188 18.6644H20.6178H20.6188L18.4407 16.9556L21.1991 17.1839L18.6156 16.194Z" fill="#FFE15A"/>
</svg>
