<svg width="32" height="32" viewBox="0 0 32 32" fill="none" xmlns="http://www.w3.org/2000/svg">
<path d="M30 5.33319H2C0.895431 5.33319 0 6.22862 0 7.33319V24.6668C0 25.7713 0.895431 26.6668 2 26.6668H30C31.1046 26.6668 32 25.7713 32 24.6668V7.33319C32 6.22862 31.1046 5.33319 30 5.33319Z" fill="#0052B4"/>
<path d="M10.6664 5.33319H2C0.895431 5.33319 0 6.22862 0 7.33319V24.6668C0 25.7713 0.895429 26.6668 2 26.6668H10.6664V5.33319Z" fill="#FF4B55"/>
<path d="M30 5.33319H21.3335V26.6668H30C31.1045 26.6668 32 25.7713 32 24.6668V7.33319C32 6.22862 31.1045 5.33319 30 5.33319Z" fill="#FF4B55"/>
<path d="M5.51679 14.9367C4.84296 14.9367 4.26539 14.5308 4.01093 13.9509C4.01078 13.9597 4.0083 13.9679 4.0083 13.9768C4.0083 14.8099 4.6837 15.4853 5.51679 15.4853C6.34988 15.4853 7.02523 14.8099 7.02523 13.9768C7.02523 13.9679 7.02275 13.9597 7.0226 13.9509C6.76814 14.5308 6.19058 14.9367 5.51679 14.9367Z" fill="#FFE15A"/>
<path d="M5.51697 14.6626C6.12285 14.6626 6.61401 14.1714 6.61401 13.5656C6.61401 12.9597 6.12285 12.4685 5.51697 12.4685C4.91109 12.4685 4.41992 12.9597 4.41992 13.5656C4.41992 14.1714 4.91109 14.6626 5.51697 14.6626Z" fill="#FFE15A"/>
<path d="M4.8313 11.5085C4.8313 11.8872 5.13829 12.1941 5.51695 12.1941C5.89561 12.1941 6.2026 11.8872 6.2026 11.5085C6.2026 11.2342 6.03118 11.1999 6.03118 11.0971C6.03118 10.9943 6.13401 10.8571 5.92834 10.6857C6.03118 10.8571 5.8598 10.8914 5.8598 11.0628C5.8598 11.2342 5.92834 11.2342 5.92834 11.3714C5.92834 11.4471 5.86692 11.5084 5.79126 11.5084C5.7155 11.5084 5.65418 11.447 5.65418 11.3714C5.65418 11.2343 5.79126 11.0971 5.79126 10.8914C5.79126 10.6857 5.75697 10.6171 5.65418 10.4457C5.55135 10.2743 5.37992 10.1371 5.5171 10C5.31138 10.0685 5.41427 10.3428 5.41427 10.5143C5.41427 10.6857 5.27719 10.7885 5.27719 10.9943C5.27719 11.2 5.38002 11.2342 5.38002 11.3714C5.38002 11.4471 5.3186 11.5084 5.24294 11.5084C5.16728 11.5084 5.10586 11.447 5.10586 11.3714C5.10586 11.2343 5.1744 11.2343 5.1744 11.0628C5.1744 10.8913 5.00298 10.8571 5.10586 10.6857C4.90014 10.8571 5.00303 10.9943 5.00303 11.0971C5.00272 11.1999 4.8313 11.2342 4.8313 11.5085Z" fill="#FFE15A"/>
<path d="M2.5 15.8727V22.2286C2.5 22.2912 2.55071 22.3418 2.61319 22.3418H3.75806C3.82059 22.3418 3.87125 22.2911 3.87125 22.2286V15.8727C3.87125 15.8102 3.82054 15.7596 3.75806 15.7596H2.61319C2.55071 15.7595 2.5 15.8102 2.5 15.8727Z" fill="#FFE15A"/>
<path d="M7.1626 15.8727V22.2286C7.1626 22.2912 7.21331 22.3418 7.27579 22.3418H8.42066C8.48319 22.3418 8.53385 22.2911 8.53385 22.2286V15.8727C8.53385 15.8102 8.48314 15.7596 8.42066 15.7596H7.27579C7.21326 15.7595 7.1626 15.8102 7.1626 15.8727Z" fill="#FFE15A"/>
<path d="M4.14551 16.9698V17.2919C4.14551 17.3544 4.19622 17.4051 4.2587 17.4051H6.77488C6.83741 17.4051 6.88807 17.3544 6.88807 17.2919V16.9698C6.88807 16.9073 6.83736 16.8566 6.77488 16.8566H4.2587C4.19617 16.8566 4.14551 16.9073 4.14551 16.9698Z" fill="#FFE15A"/>
<path d="M4.14551 20.8095V21.1316C4.14551 21.1941 4.19622 21.2448 4.2587 21.2448H6.77488C6.83741 21.2448 6.88807 21.1941 6.88807 21.1316V20.8095C6.88807 20.747 6.83736 20.6963 6.77488 20.6963H4.2587C4.19617 20.6963 4.14551 20.747 4.14551 20.8095Z" fill="#FFE15A"/>
<path d="M4.34989 15.7595H6.6838C6.74122 15.7595 6.76214 15.8351 6.71294 15.8647L5.60428 16.5299C5.55048 16.5622 5.48326 16.5622 5.42957 16.5299L4.3208 15.8647C4.27156 15.8351 4.29252 15.7595 4.34989 15.7595Z" fill="#FFE15A"/>
<path d="M4.34991 21.5191H6.68381C6.74124 21.5191 6.76215 21.5947 6.71295 21.6243L5.60419 22.2895C5.55039 22.3218 5.48317 22.3218 5.42948 22.2895L4.32076 21.6242C4.27157 21.5947 4.29253 21.5191 4.34991 21.5191Z" fill="#FFE15A"/>
<path d="M5.65088 17.6901C5.60765 17.6859 5.56577 17.677 5.52148 17.677C4.76734 17.677 4.15381 18.2905 4.15381 19.0447C4.15381 19.4923 4.37246 19.8863 4.70652 20.1348C4.74496 20.1634 4.79577 20.1221 4.77708 20.0779C4.73703 19.983 4.7145 19.879 4.7145 19.7695C4.7145 19.3237 5.07781 18.9612 5.52395 18.9626C5.75846 18.9633 5.98328 18.8475 6.08707 18.6372C6.30178 18.2022 6.0398 17.7699 5.65088 17.6901ZM5.52148 18.5933C5.37046 18.5933 5.24792 18.4709 5.24792 18.3198C5.24792 18.1688 5.37041 18.0463 5.52148 18.0463C5.6725 18.0463 5.79498 18.1687 5.79498 18.3198C5.79493 18.4709 5.6725 18.5933 5.52148 18.5933Z" fill="#FFE15A"/>
<path d="M6.33628 17.9545C6.29784 17.9259 6.24703 17.9673 6.26572 18.0114C6.30582 18.1063 6.3283 18.2103 6.3283 18.3198C6.3283 18.7656 5.96494 19.1281 5.51885 19.1267C5.28434 19.126 5.05947 19.2418 4.95573 19.4521C4.74112 19.8871 5.00311 20.3195 5.39202 20.3992C5.43526 20.4034 5.47713 20.4123 5.52142 20.4123C6.27552 20.4123 6.8891 19.7988 6.8891 19.0446C6.889 18.5971 6.67034 18.2031 6.33628 17.9545ZM5.52142 20.043C5.3704 20.043 5.24787 19.9206 5.24787 19.7695C5.24787 19.6185 5.37035 19.496 5.52142 19.496C5.67245 19.496 5.79493 19.6184 5.79493 19.7695C5.79488 19.9206 5.67245 20.043 5.52142 20.043Z" fill="#FFE15A"/>
</svg>
