<svg width="32" height="32" viewBox="0 0 32 32" fill="none" xmlns="http://www.w3.org/2000/svg">
<mask id="mask0" mask-type="alpha" maskUnits="userSpaceOnUse" x="0" y="5" width="32" height="22">
<rect y="5" width="32" height="21.33" rx="2" fill="#C4C4C4"/>
</mask>
<g mask="url(#mask0)">
<path d="M31.9999 6.52359H0V5.56134C0 5.25136 0.247062 5 0.551749 5H31.4483C31.7529 5 32 5.25136 32 5.56134L31.9999 6.52359Z" fill="#FF4B55"/>
<path d="M31.9999 6.5232H0V8.04674H31.9999V6.5232Z" fill="#F0F0F0"/>
<path d="M31.9999 8.04737H0V9.5709H31.9999V8.04737Z" fill="#FF4B55"/>
<path d="M31.9999 9.57027H0V11.0938H31.9999V9.57027Z" fill="#F0F0F0"/>
<path d="M31.9999 11.0944H0V12.618H31.9999V11.0944Z" fill="#FF4B55"/>
<path d="M31.9999 12.618H0V14.1415H31.9999V12.618Z" fill="#F0F0F0"/>
<path d="M31.9999 14.1415H0V15.665H31.9999V14.1415Z" fill="#FF4B55"/>
<path d="M31.9999 15.665H0V17.1886H31.9999V15.665Z" fill="#F0F0F0"/>
<path d="M31.9999 18.7122H0V16.2264H0.551749L0.551874 17.1886H31.9999V18.7122Z" fill="#FF4B55"/>
<path d="M31.9999 18.7121H0V20.2356H31.9999V18.7121Z" fill="#F0F0F0"/>
<path d="M31.9999 20.2356H0V21.7592H31.9999V20.2356Z" fill="#FF4B55"/>
<path d="M31.9999 21.7598H0V23.2833H31.9999V21.7598Z" fill="#F0F0F0"/>
<path d="M31.9999 23.2827H0V24.8062H31.9999V23.2827Z" fill="#FF4B55"/>
<path d="M31.4482 26.33H0.551749C0.247062 26.33 0 26.0786 0 25.7687V24.8064H31.9999V25.7687C31.9999 26.0787 31.7529 26.33 31.4482 26.33Z" fill="#F0F0F0"/>
<path d="M19.4444 17.2028H0.55558C0.248778 17.2028 0 16.9512 0 16.6409V5.56463C0 5.25435 0.248778 5.00276 0.55558 5.00276H19.4444C19.7512 5.00276 20 5.25435 20 5.56463V16.6409C19.9999 16.9513 19.7512 17.2028 19.4444 17.2028Z" fill="#0052B4"/>
<path d="M5.58353 10.9842C5.58353 9.05891 7.14625 7.49718 9.06972 7.49718C9.5537 7.49718 10.0139 7.59624 10.433 7.77478C10.4874 7.79796 10.5284 7.72224 10.4795 7.68891C9.78609 7.21687 8.93807 6.95824 8.02847 7.00553C6.02871 7.10949 4.3935 8.72025 4.26422 10.7186C4.11389 13.0429 5.95317 14.9684 8.24073 14.9684C9.06742 14.9684 9.83586 14.7137 10.474 14.2819C10.5232 14.2486 10.4825 14.1728 10.4278 14.1959C10.0101 14.373 9.5518 14.4713 9.06984 14.4713C7.14625 14.4712 5.58353 12.9095 5.58353 10.9842Z" fill="#FFE15A"/>
<path d="M13.5528 10.9842L15.0266 10.4139C15.0994 10.3857 15.0746 10.2769 14.9967 10.2831L13.422 10.4093L14.5042 9.2525C14.5576 9.19547 14.488 9.10834 14.4205 9.14767L13.0528 9.94552L13.5249 8.43608C13.5482 8.36158 13.4477 8.3132 13.4041 8.3779L12.5187 9.68949L12.2916 8.124C12.2804 8.04667 12.1687 8.04661 12.1574 8.12394L12.0123 9.11451L11.9521 9.53373L11.929 9.68954L11.0436 8.37905C10.9999 8.31435 10.8993 8.36279 10.9228 8.43729L11.3965 9.94546L10.029 9.14761C9.96148 9.10822 9.89194 9.19541 9.94534 9.25244L11.0274 10.4092L9.4523 10.2831C9.3744 10.2769 9.34954 10.3857 9.42243 10.4139L10.8976 10.9841L9.42237 11.5545C9.34943 11.5827 9.37434 11.6915 9.45224 11.6853L11.0274 11.5592L9.94528 12.7188C9.89194 12.7759 9.96166 12.863 10.0291 12.8235L11.3966 12.0228L10.9228 13.531C10.8994 13.6055 10.9999 13.654 11.0436 13.5893L11.929 12.2788L11.9522 12.4383L12.0124 12.8538L12.1575 13.847C12.1688 13.9244 12.2805 13.9243 12.2917 13.847L12.5188 12.2789L13.4042 13.5905C13.4479 13.6552 13.5484 13.6069 13.525 13.5323L13.053 12.0228L14.4205 12.8235C14.4879 12.863 14.5576 12.7759 14.5043 12.7188L13.4221 11.5592L14.9968 11.6853C15.0748 11.6915 15.0996 11.5827 15.0267 11.5545L13.5528 10.9842Z" fill="#FFE15A"/>
</g>
</svg>
