<svg width="32" height="32" viewBox="0 0 32 32" fill="none" xmlns="http://www.w3.org/2000/svg">
<path d="M30 5.33319H2C0.895431 5.33319 0 6.22862 0 7.33319V24.6661C0 25.7706 0.895431 26.6661 2 26.6661H30C31.1046 26.6661 32 25.7706 32 24.6661V7.33319C32 6.22863 31.1046 5.33319 30 5.33319Z" fill="#F0F0F0"/>
<path d="M30 5.33319H16V26.6668H30C31.1046 26.6668 32 25.7713 32 24.6668V7.33319C32 6.22863 31.1046 5.33319 30 5.33319Z" fill="#FF4B55"/>
<path d="M5.24431 7.49644V8.97269C5.32563 8.97588 5.41631 9.01275 5.49169 9.08813C5.56706 9.1635 5.60406 9.25419 5.60713 9.3355H7.08337V10.8068H5.60706C5.60387 10.8881 5.567 10.9787 5.49163 11.0541C5.41625 11.1295 5.32556 11.1664 5.24425 11.1696V12.6458H3.773V11.1696C3.69169 11.1664 3.601 11.1295 3.52562 11.0541C3.45025 10.9787 3.41337 10.8881 3.41019 10.8068H1.93394V9.33556H3.41019C3.41337 9.25425 3.45025 9.16356 3.52562 9.08819C3.601 9.01281 3.69169 8.97594 3.773 8.97275V7.4965H5.24431V7.49644ZM5.42812 7.3125H5.24419H3.77294H3.58906V7.49644V8.82788C3.51888 8.85663 3.453 8.90069 3.39556 8.95806C3.33812 9.0155 3.29413 9.08138 3.26531 9.15156H1.93394H1.75V9.3355V10.8068V10.9907H1.93394H3.26538C3.29419 11.0609 3.33819 11.1268 3.39562 11.1842C3.453 11.2416 3.51888 11.2856 3.58906 11.3144V12.6458V12.8297H3.773H5.24425H5.42819V12.6458V11.3143C5.49837 11.2856 5.56425 11.2415 5.62169 11.1841C5.67906 11.1267 5.72312 11.0608 5.75187 10.9906H7.08331H7.26719V10.8067V9.33544V9.1515H7.08325H5.75194C5.72319 9.08131 5.67912 9.01544 5.62169 8.958C5.56431 8.90063 5.49844 8.85656 5.42819 8.82781V7.49644L5.42812 7.3125Z" fill="#FF4B55"/>
<path d="M7.08321 9.33543H5.24421V7.49644H3.7729V9.33543H1.93384V10.8067H3.7729V12.6458H5.24421V10.8067H7.08321V9.33543Z" fill="#DDDDDD"/>
<path d="M4.50882 10.8068C4.91509 10.8068 5.24444 10.4775 5.24444 10.0712C5.24444 9.66491 4.91509 9.33556 4.50882 9.33556C4.10254 9.33556 3.77319 9.66491 3.77319 10.0712C3.77319 10.4775 4.10254 10.8068 4.50882 10.8068Z" fill="#AEAEAE"/>
<path d="M3.84953 10.7304C3.72178 10.6026 3.54575 10.5715 3.45634 10.6609C3.36694 10.7504 3.39802 10.9264 3.52577 11.0541C3.65352 11.1819 3.82956 11.213 3.91896 11.1236C4.00837 11.0342 3.97728 10.8581 3.84953 10.7304Z" fill="#AEAEAE"/>
<path d="M5.49184 11.0535C5.61959 10.9258 5.65067 10.7498 5.56127 10.6604C5.47186 10.571 5.29583 10.602 5.16808 10.7298C5.04033 10.8575 5.00924 11.0336 5.09865 11.123C5.18805 11.2124 5.36409 11.1813 5.49184 11.0535Z" fill="#AEAEAE"/>
<path d="M5.16731 9.41215C5.29506 9.5399 5.4711 9.57098 5.56051 9.48157C5.64991 9.39217 5.61883 9.21613 5.49108 9.08838C5.36333 8.96064 5.18729 8.92955 5.09788 9.01896C5.00848 9.10836 5.03956 9.2844 5.16731 9.41215Z" fill="#AEAEAE"/>
<path d="M3.52549 9.08811C3.39774 9.21586 3.36666 9.3919 3.45606 9.48131C3.54547 9.57071 3.72151 9.53963 3.84926 9.41188C3.97701 9.28413 4.00809 9.10809 3.91868 9.01868C3.82928 8.92928 3.65324 8.96036 3.52549 9.08811Z" fill="#AEAEAE"/>
<path d="M4.50877 11.0782C3.95346 11.0782 3.50171 10.6265 3.50171 10.0711C3.50171 9.51567 3.95346 9.06404 4.50877 9.06404C5.06408 9.06404 5.51583 9.5158 5.51583 10.0711C5.51583 10.6264 5.06408 11.0782 4.50877 11.0782ZM4.50877 9.15604C4.00427 9.15604 3.59371 9.56661 3.59371 10.0711C3.59371 10.5756 4.00427 10.9862 4.50877 10.9862C5.01327 10.9862 5.42383 10.5756 5.42383 10.0711C5.42383 9.56661 5.01327 9.15604 4.50877 9.15604Z" fill="#AEAEAE"/>
</svg>
