<svg width="32" height="32" viewBox="0 0 32 32" fill="none" xmlns="http://www.w3.org/2000/svg">
<path d="M30 5.33339H2C0.895431 5.33339 0 6.22882 0 7.33339V24.667C0 25.7715 0.895431 26.667 2 26.667H30C31.1046 26.667 32 25.7715 32 24.6669V7.33339C32 6.22882 31.1046 5.33339 30 5.33339Z" fill="#FF4B55"/>
<path d="M32 18.4927H12.6372V26.6666H11.4782H8.81112H7.65219V18.4927H0V17.3331V14.6666V13.5069H7.65219V5.33306H8.81112H11.4782H12.6372V13.5069H32V14.6666V17.3331V18.4927Z" fill="#F0F0F0"/>
<path d="M32 14.6666V17.3331H11.4782V26.6666H8.81112V17.3331H0V14.6666H8.81112V5.33306H11.4782V14.6666H32Z" fill="#0052B4"/>
</svg>
