<svg width="32" height="32" viewBox="0 0 32 32" fill="none" xmlns="http://www.w3.org/2000/svg">
<mask id="mask0" mask-type="alpha" maskUnits="userSpaceOnUse" x="0" y="5" width="32" height="22">
<path d="M30 5.33356H2C0.895431 5.33356 0 6.22899 0 7.33356V24.6664C0 25.771 0.895431 26.6664 2 26.6664H30C31.1046 26.6664 32 25.771 32 24.6664V7.33356C32 6.22899 31.1046 5.33356 30 5.33356Z" fill="#F0F0F0"/>
</mask>
<g mask="url(#mask0)">
<path d="M32 5.33356H0V26.6664H32V5.33356Z" fill="#F0F0F0"/>
<path d="M0 26.6664V5.33356L17.5262 16.2554H5.47563L16.9491 26.6664H0Z" fill="#0052B4"/>
<path d="M15.2981 15.618L0.637451 6.48187V15.618V26.029H15.2981L3.82458 15.618H15.2981Z" fill="#FF4B55"/>
<path d="M6.12524 20.2771L5.21343 19.8482L5.69905 18.965L4.7088 19.1544L4.5833 18.1541L3.89362 18.8898L3.20387 18.1541L3.07837 19.1544L2.08818 18.965L2.5738 19.8482L1.66187 20.2771L2.5738 20.706L2.08818 21.5891L3.07843 21.3998L3.20387 22.4L3.89362 21.6643L4.5833 22.4L4.7088 21.3998L5.69899 21.5892L5.21343 20.706L6.12524 20.2771Z" fill="#F0F0F0"/>
<path d="M5.5167 11.9789L4.85345 11.6669L5.20664 11.0246L4.48645 11.1624L4.39514 10.4348L3.89352 10.9699L3.39189 10.4348L3.30064 11.1624L2.58033 11.0246L2.93358 11.6669L2.27026 11.9789L3.89352 12.3035L5.5167 11.9789Z" fill="#F0F0F0"/>
<path d="M5.84142 11.9789C5.84142 13.0546 4.96936 13.9267 3.89361 13.9267C2.81786 13.9267 1.9458 13.0546 1.9458 11.9789" fill="#F0F0F0"/>
</g>
</svg>
