<svg width="32" height="32" viewBox="0 0 32 32" fill="none" xmlns="http://www.w3.org/2000/svg">
<path d="M30 5.33356H2C0.895431 5.33356 0 6.22899 0 7.33356V24.6664C0 25.771 0.895431 26.6664 2 26.6664H30C31.1046 26.6664 32 25.771 32 24.6664V7.33356C32 6.22899 31.1046 5.33356 30 5.33356Z" fill="#F0F0F0"/>
<path d="M30 5.33356H2C0.895431 5.33356 0 6.229 0 7.33356V12.4445H32V7.33356C32 6.22899 31.1046 5.33356 30 5.33356Z" fill="#FF4B55"/>
<path d="M32 19.5555H0V24.6664C0 25.771 0.895431 26.6664 2 26.6664H30C31.1046 26.6664 32 25.771 32 24.6664V19.5555Z" fill="#0052B4"/>
</svg>
