<svg width="32" height="32" viewBox="0 0 32 32" fill="none" xmlns="http://www.w3.org/2000/svg">
<path d="M30 5.33319H2C0.895431 5.33319 0 6.22863 0 7.3332V24.6668C0 25.7713 0.895431 26.6668 2 26.6668H30C31.1046 26.6668 32 25.7713 32 24.6668V7.33319C32 6.22863 31.1046 5.33319 30 5.33319Z" fill="#FF9811"/>
<path d="M15.9401 10.1737C15.6081 10.6123 15.4998 10.7189 14.9494 11.1575C14.7705 11.2985 14.6261 11.4224 14.6261 11.4327C14.6261 11.4447 14.6501 11.5032 14.6777 11.5634C14.7413 11.6993 14.7482 11.7509 14.7035 11.7835C14.6845 11.7973 14.5796 11.8575 14.4695 11.9194C13.8745 12.2548 13.3895 12.7708 13.0868 13.3968C12.8081 13.9695 12.729 14.5405 12.8374 15.1855C12.932 15.7479 13.2295 16.3103 13.6784 16.7798C13.9587 17.0739 14.1686 17.2304 14.5229 17.4162C14.7465 17.5331 14.7808 17.5538 14.7808 17.5761C14.7808 17.5847 14.731 17.7051 14.6691 17.841C14.6089 17.9786 14.5607 18.0921 14.5624 18.0938C14.5641 18.0938 14.6708 18.1454 14.798 18.2073C15.0543 18.3295 15.2366 18.4378 15.4912 18.6184L15.658 18.7388V19.0948C15.658 19.2909 15.6511 19.4612 15.6425 19.4749C15.6253 19.5024 15.5273 19.4526 15.1007 19.198C13.8951 18.4757 12.9543 17.5933 12.5209 16.7764C12.189 16.1486 11.9912 15.3712 11.9877 14.6781C11.9877 14.3118 12.0135 14.1449 12.1081 13.899C12.2388 13.5602 12.3334 13.4192 12.7789 12.9066C13.1555 12.4715 13.2054 12.4096 13.1917 12.3958C13.1607 12.3631 12.7032 12.5712 12.4693 12.7226C12.1649 12.9221 11.7401 13.3314 11.5457 13.6152C11.3393 13.9162 11.1742 14.2997 11.0624 14.7383C11.0126 14.9292 11.0091 14.9722 11.0022 15.3128C10.985 16.0506 11.0642 16.4909 11.3428 17.2253C11.6094 17.9322 11.7212 18.1248 12.3816 19.0123C12.8907 19.6968 13.0162 19.8808 13.085 20.0304C13.1607 20.1955 13.2226 20.3951 13.257 20.5774C13.2725 20.6582 13.2931 20.7304 13.3017 20.739C13.3189 20.7562 13.3585 20.7253 13.8607 20.285C14.227 19.9634 14.4781 19.7518 14.571 19.6847L14.6278 19.6452L14.7602 19.6916C14.989 19.7725 15.4172 20.0012 15.388 20.027C15.3811 20.0339 15.2899 20.0769 15.185 20.1216C14.7293 20.3177 14.5676 20.4157 14.3526 20.6204C14.074 20.8869 13.988 21.0538 13.9845 21.3376C13.9811 21.4958 13.9828 21.5061 14.0327 21.5766C14.0619 21.6162 14.1135 21.6729 14.1496 21.7022C14.2391 21.7727 14.3973 21.7847 14.5435 21.7297C14.7293 21.6609 14.884 21.4752 14.884 21.3238C14.884 21.286 14.8634 21.1776 14.8393 21.0847L14.7946 20.9127L14.8359 20.8818C14.8582 20.8629 14.9666 20.8027 15.0801 20.7459C15.2745 20.6479 15.4344 20.5946 15.6116 20.5688L15.6924 20.5567V20.9919C15.6924 21.2326 15.6838 21.4562 15.6752 21.4889C15.6666 21.5233 15.6305 21.5766 15.5961 21.6093C15.498 21.7022 15.4344 21.8535 15.4344 21.9877C15.4344 22.1958 15.5875 22.4228 15.7956 22.5191C15.8781 22.5587 15.9125 22.5638 16.0622 22.5638C16.2015 22.5621 16.2531 22.5552 16.3339 22.5226C16.4681 22.4693 16.5936 22.3626 16.671 22.2388C16.7261 22.1459 16.7329 22.1253 16.7329 22.0152C16.7329 21.9103 16.7243 21.8759 16.6745 21.7744C16.6435 21.7091 16.5885 21.6248 16.5541 21.5869L16.4921 21.5181L16.487 21.0607C16.4835 20.7872 16.4887 20.5928 16.499 20.5791C16.5128 20.5584 16.53 20.5567 16.616 20.5756C16.8378 20.6255 17.3315 20.8525 17.3555 20.9162C17.3624 20.9317 17.3452 21.0263 17.3211 21.126C17.2627 21.3548 17.2644 21.3737 17.3263 21.482C17.3865 21.5887 17.4587 21.6523 17.5843 21.7108C17.6617 21.7469 17.7047 21.7555 17.8182 21.7555C17.942 21.7555 17.9627 21.7503 18.016 21.7108C18.1587 21.6007 18.2241 21.3513 18.1622 21.1398C18.1003 20.9282 17.8113 20.598 17.5155 20.4019C17.3624 20.3005 17.1061 20.1697 16.9049 20.0872C16.8396 20.0597 16.7776 20.0322 16.7708 20.027C16.7536 20.0115 16.9789 19.8774 17.1388 19.8069C17.2007 19.7793 17.3177 19.7346 17.4003 19.7071L17.5482 19.6589L17.6806 19.7621C17.7546 19.8172 17.9283 19.9616 18.0693 20.082C18.2086 20.2041 18.4408 20.4037 18.5835 20.5258C18.7263 20.6479 18.8501 20.7494 18.857 20.7494C18.8776 20.7494 18.8897 20.7081 18.9086 20.5516C18.9568 20.1612 19.1219 19.8808 19.9061 18.8557C20.1211 18.5754 20.3258 18.2985 20.3602 18.24C20.4599 18.0784 20.6646 17.6398 20.7884 17.3268C21.4575 15.643 21.2614 14.1983 20.2243 13.1543C19.8975 12.8275 19.5088 12.5695 19.1356 12.4354C19.0032 12.3872 18.9602 12.3803 18.9602 12.4061C18.9602 12.4337 19.1477 12.6658 19.3902 12.941C20.03 13.6668 20.1211 13.868 20.1418 14.6024C20.1572 15.1167 20.116 15.4314 19.9749 15.9027C19.7943 16.5046 19.5604 16.9518 19.1666 17.4472C18.9963 17.6621 18.5405 18.1214 18.298 18.3226C17.9953 18.5754 17.5998 18.8626 17.3263 19.0329C16.8568 19.3236 16.5248 19.5059 16.5025 19.4852C16.4973 19.4784 16.4904 19.3098 16.487 19.1103L16.4835 18.7457L16.659 18.6236C16.9032 18.4533 17.1199 18.3243 17.3796 18.1936C17.5017 18.1334 17.6015 18.0749 17.6015 18.0663C17.6015 18.056 17.5499 17.9459 17.4862 17.8204C17.4226 17.6965 17.3676 17.5882 17.3641 17.5796C17.3607 17.5727 17.3813 17.5589 17.4123 17.5486C17.5206 17.5091 17.7821 17.3749 17.9179 17.2855C18.2275 17.0843 18.6076 16.7368 18.8123 16.4703C19.1167 16.0712 19.3334 15.5604 19.4005 15.0771C19.4349 14.8329 19.4263 14.3531 19.3833 14.1243C19.2474 13.3848 18.7676 12.6504 18.1003 12.1567C17.8698 11.9865 17.6187 11.8368 17.4914 11.7956C17.4432 11.7801 17.402 11.7646 17.3985 11.7629C17.3968 11.7612 17.4295 11.6803 17.4708 11.5857L17.5482 11.4103L17.3727 11.2865C16.8894 10.9442 16.5541 10.6192 16.1929 10.141C16.1344 10.0636 16.0828 10 16.0794 10C16.0742 10 16.0123 10.0774 15.9401 10.1737ZM17.3968 12.4784C17.7253 12.6418 18.2258 13.1182 18.4219 13.4536C18.5921 13.7442 18.7538 14.3273 18.7538 14.6506C18.7538 14.8639 18.6523 15.2663 18.5371 15.5174C18.415 15.784 18.1174 16.1916 17.8818 16.4152C17.7494 16.5425 17.3177 16.8796 17.199 16.9484L17.1388 16.9845L17.089 16.8245C17.0356 16.6577 16.9496 16.3464 16.8241 15.8648L16.7501 15.5811V14.8931C16.7501 14.1639 16.7553 14.1002 16.8482 13.6634C16.9376 13.2386 17.1079 12.5781 17.1629 12.4474C17.1921 12.3769 17.1973 12.3786 17.3968 12.4784ZM14.9941 12.4371C14.9976 12.4543 15.0285 12.5609 15.0629 12.6744C15.3725 13.7373 15.5015 14.6489 15.4361 15.3076C15.4086 15.569 15.357 15.901 15.3123 16.0884C15.2779 16.2363 15.0681 16.8865 15.0423 16.9277C15.0234 16.957 14.86 16.8727 14.5693 16.6784C14.3113 16.5081 14.0895 16.2965 13.9226 16.0626C13.785 15.8666 13.6079 15.5071 13.5528 15.3059C13.4376 14.8965 13.4548 14.3376 13.5958 13.9128C13.7919 13.3194 14.2425 12.7845 14.798 12.487C14.9614 12.3993 14.9804 12.3941 14.9941 12.4371Z" fill="#464655"/>
</svg>
