<svg width="32" height="32" viewBox="0 0 32 32" fill="none" xmlns="http://www.w3.org/2000/svg">
<path d="M30 5.33358H2C0.895431 5.33358 0 6.22901 0 7.33358V24.6665C0 25.771 0.895431 26.6665 2 26.6665H30C31.1046 26.6665 32 25.771 32 24.6665V7.33358C32 6.22901 31.1046 5.33358 30 5.33358Z" fill="#F0F0F0"/>
<path d="M30 5.33358H2C0.895431 5.33358 0 6.22901 0 7.33358V16H32V7.33358C32 6.22901 31.1046 5.33358 30 5.33358Z" fill="#F0F0F0"/>
<path d="M32 16H0V24.6664C0 25.771 0.895431 26.6664 2 26.6664H30C31.1046 26.6664 32 25.771 32 24.6664V16Z" fill="#FF4B55"/>
</svg>
