<svg width="32" height="32" viewBox="0 0 32 32" fill="none" xmlns="http://www.w3.org/2000/svg">
<path d="M30 5.33319H2C0.895431 5.33319 0 6.22863 0 7.3332V24.6668C0 25.7713 0.895431 26.6668 2 26.6668H30C31.1046 26.6668 32 25.7713 32 24.6668V7.33319C32 6.22863 31.1046 5.33319 30 5.33319Z" fill="#73AF00"/>
<path d="M15.7059 8.45544L4.07739 15.5336C3.7242 15.7486 3.7242 16.2612 4.07739 16.4762L15.7059 23.5544C15.8821 23.6617 16.1034 23.6617 16.2796 23.5544L27.9082 16.4762C28.2614 16.2613 28.2614 15.7487 27.9082 15.5337L16.2796 8.45544C16.1035 8.34819 15.8821 8.34819 15.7059 8.45544Z" fill="#FFE15A"/>
<path d="M15.9929 20.4187C18.4305 20.4187 20.4066 18.4426 20.4066 16.0049C20.4066 13.5673 18.4305 11.5912 15.9929 11.5912C13.5552 11.5912 11.5791 13.5673 11.5791 16.0049C11.5791 18.4426 13.5552 20.4187 15.9929 20.4187Z" fill="#0052B4"/>
<path d="M12.2053 13.747C11.997 14.0956 11.8362 14.4745 11.73 14.8768C14.1768 14.6927 17.7963 15.3772 20.1001 17.6126C20.2505 17.2288 20.3497 16.8199 20.387 16.3925C18.0082 14.3904 14.7195 13.6785 12.2053 13.747Z" fill="#F0F0F0"/>
<path d="M16.1756 17.5111L16.2931 17.8635L16.6645 17.8664C16.7126 17.8668 16.7325 17.9281 16.6939 17.9567L16.3951 18.1774L16.5072 18.5315C16.5217 18.5774 16.4694 18.6153 16.4303 18.5873L16.1282 18.3713L15.826 18.5873C15.7868 18.6153 15.7347 18.5774 15.7492 18.5315L15.8612 18.1774L15.5624 17.9567C15.5237 17.9281 15.5437 17.8668 15.5917 17.8664L15.9632 17.8635L16.0807 17.5111C16.0958 17.4655 16.1603 17.4655 16.1756 17.5111Z" fill="#F0F0F0"/>
<path d="M17.6193 18.4227L17.6698 18.5743L17.8297 18.5756C17.8504 18.5757 17.859 18.6021 17.8423 18.6144L17.7137 18.7094L17.7619 18.8618C17.7682 18.8816 17.7457 18.8979 17.7288 18.8858L17.5988 18.7929L17.4687 18.8858C17.4519 18.8979 17.4294 18.8816 17.4356 18.8618L17.4838 18.7094L17.3552 18.6144C17.3386 18.6022 17.3471 18.5758 17.3678 18.5756L17.5277 18.5743L17.5783 18.4227C17.5849 18.403 17.6127 18.403 17.6193 18.4227Z" fill="#F0F0F0"/>
<path d="M15.5514 16.8418L15.602 16.9934L15.7618 16.9946C15.7825 16.9947 15.7911 17.0212 15.7745 17.0335L15.6458 17.1284L15.694 17.2809C15.7003 17.3006 15.6778 17.3169 15.661 17.3049L15.5309 17.2119L15.4008 17.3049C15.384 17.3169 15.3615 17.3006 15.3678 17.2809L15.416 17.1284L15.2873 17.0335C15.2707 17.0212 15.2793 16.9948 15.3 16.9946L15.4598 16.9934L15.5104 16.8418C15.517 16.8221 15.5448 16.8221 15.5514 16.8418Z" fill="#F0F0F0"/>
<path d="M12.7509 16.6579L12.8014 16.8095L12.9613 16.8107C12.982 16.8109 12.9906 16.8373 12.9739 16.8496L12.8453 16.9446L12.8935 17.097C12.8997 17.1167 12.8773 17.1331 12.8604 17.121L12.7304 17.0281L12.6003 17.121C12.5835 17.1331 12.561 17.1167 12.5672 17.097L12.6154 16.9446L12.4868 16.8496C12.4702 16.8374 12.4787 16.8109 12.4994 16.8107L12.6593 16.8095L12.7099 16.6579C12.7165 16.6383 12.7443 16.6383 12.7509 16.6579Z" fill="#F0F0F0"/>
<path d="M15.0936 18.3703L15.1442 18.5219L15.3041 18.5232C15.3248 18.5233 15.3334 18.5498 15.3167 18.5621L15.1881 18.657L15.2363 18.8094C15.2425 18.8292 15.2201 18.8455 15.2032 18.8334L15.0731 18.7405L14.9431 18.8334C14.9263 18.8455 14.9038 18.8292 14.91 18.8094L14.9582 18.657L14.8296 18.5621C14.8129 18.5498 14.8215 18.5234 14.8422 18.5232L15.0021 18.5219L15.0526 18.3703C15.0593 18.3507 15.0871 18.3507 15.0936 18.3703Z" fill="#F0F0F0"/>
<path d="M13.8046 16.5521L13.846 16.6761L13.9767 16.6771C13.9936 16.6773 14.0006 16.6989 13.9871 16.7089L13.8819 16.7866L13.9213 16.9112C13.9265 16.9273 13.9081 16.9407 13.8943 16.9308L13.7879 16.8548L13.6815 16.9308C13.6677 16.9407 13.6494 16.9273 13.6545 16.9112L13.6939 16.7866L13.5887 16.7089C13.5751 16.6989 13.5821 16.6773 13.5991 16.6771L13.7298 16.6761L13.7712 16.5521C13.7765 16.536 13.7992 16.536 13.8046 16.5521Z" fill="#F0F0F0"/>
<path d="M17.7314 13.992L17.7831 14.1471L17.9466 14.1484C17.9678 14.1485 17.9766 14.1756 17.9595 14.1881L17.828 14.2852L17.8773 14.4412C17.8838 14.4614 17.8607 14.4781 17.8435 14.4657L17.7105 14.3706L17.5774 14.4657C17.5601 14.4781 17.5372 14.4613 17.5436 14.4412L17.5929 14.2852L17.4614 14.1881C17.4443 14.1756 17.4531 14.1486 17.4743 14.1484L17.6378 14.1471L17.6895 13.992C17.6963 13.9719 17.7247 13.9719 17.7314 13.992Z" fill="#F0F0F0"/>
<path d="M12.931 15.7934L12.9724 15.9174L13.1032 15.9185C13.1201 15.9186 13.1271 15.9403 13.1136 15.9503L13.0084 16.0279L13.0478 16.1526C13.0529 16.1687 13.0346 16.1821 13.0207 16.1722L12.9144 16.0962L12.808 16.1722C12.7942 16.1821 12.7759 16.1687 12.7809 16.1526L12.8204 16.0279L12.7152 15.9503C12.7016 15.9403 12.7085 15.9187 12.7255 15.9185L12.8563 15.9174L12.8977 15.7934C12.903 15.7774 12.9257 15.7774 12.931 15.7934Z" fill="#F0F0F0"/>
<path d="M13.5622 17.5412L13.6249 17.7291L13.8229 17.7306C13.8485 17.7308 13.8591 17.7634 13.8385 17.7787L13.6792 17.8963L13.7389 18.0851C13.7467 18.1095 13.7189 18.1298 13.698 18.1148L13.5369 17.9997L13.3757 18.1148C13.3549 18.1297 13.3271 18.1095 13.3348 18.0851L13.3946 17.8963L13.2352 17.7787C13.2146 17.7634 13.2252 17.7308 13.2509 17.7306L13.4489 17.7291L13.5115 17.5412C13.5198 17.5169 13.5542 17.5169 13.5622 17.5412Z" fill="#F0F0F0"/>
<path d="M18.4242 18.4621L18.4636 18.5802L18.5882 18.5812C18.6043 18.5813 18.611 18.6019 18.5981 18.6114L18.4979 18.6854L18.5354 18.8042C18.5403 18.8196 18.5228 18.8322 18.5096 18.8229L18.4083 18.7504L18.3069 18.8229C18.2938 18.8322 18.2763 18.8196 18.2811 18.8042L18.3187 18.6854L18.2185 18.6114C18.2056 18.6019 18.2122 18.5813 18.2284 18.5812L18.3529 18.5802L18.3923 18.4621C18.3975 18.4467 18.4192 18.4467 18.4242 18.4621Z" fill="#F0F0F0"/>
<path d="M18.86 17.5602L18.9106 17.7118L19.0704 17.7131C19.0911 17.7132 19.0997 17.7396 19.0831 17.7519L18.9544 17.8469L19.0026 17.9993C19.0089 18.0191 18.9864 18.0354 18.9696 18.0233L18.8395 17.9304L18.7094 18.0233C18.6926 18.0354 18.6701 18.0191 18.6764 17.9993L18.7246 17.8469L18.5959 17.7519C18.5793 17.7397 18.5879 17.7133 18.6086 17.7131L18.7684 17.7118L18.819 17.5602C18.8256 17.5405 18.8534 17.5405 18.86 17.5602Z" fill="#F0F0F0"/>
</svg>
