<svg width="32" height="32" viewBox="0 0 32 32" fill="none" xmlns="http://www.w3.org/2000/svg">
<path d="M30 5.33356H2C0.895431 5.33356 0 6.22898 0 7.33355V24.6664C0 25.771 0.895431 26.6664 2 26.6664H30C31.1046 26.6664 32 25.771 32 24.6664V7.33356C32 6.22899 31.1046 5.33356 30 5.33356Z" fill="#FF4B55"/>
<path d="M12.2901 5.33356V16.3478V26.6664H2C0.89543 26.6664 0 25.771 0 24.6664V7.33355C0 6.22898 0.895431 5.33356 2 5.33356H12.2901Z" fill="#73AF00"/>
<path d="M12.3362 20.985C15.0763 20.985 17.2975 18.7638 17.2975 16.0238C17.2975 13.2837 15.0763 11.0625 12.3362 11.0625C9.59623 11.0625 7.375 13.2837 7.375 16.0238C7.375 18.7638 9.59623 20.985 12.3362 20.985Z" fill="#FFE15A"/>
<path d="M13.9913 14.3686V16.5754C13.9913 17.4881 13.2488 18.2306 12.3361 18.2306C11.4234 18.2306 10.6809 17.4881 10.6809 16.5754V14.3686H13.9913ZM14.543 13.2651H10.1291C9.82446 13.2651 9.57739 13.5122 9.57739 13.8169V16.5755C9.57739 18.099 10.8125 19.3341 12.336 19.3341C13.8595 19.3341 15.0946 18.099 15.0946 16.5755V13.8169C15.0947 13.5122 14.8476 13.2651 14.543 13.2651Z" fill="#FF4B55"/>
<path d="M13.9913 14.3686V16.5754C13.9913 17.4881 13.2488 18.2306 12.3361 18.2306C11.4234 18.2306 10.6809 17.4881 10.6809 16.5754V14.3686H13.9913Z" fill="#F0F0F0"/>
<path d="M10.125 14.0928C10.2774 14.0928 10.4009 13.9692 10.4009 13.8169C10.4009 13.6645 10.2774 13.541 10.125 13.541C9.97263 13.541 9.84912 13.6645 9.84912 13.8169C9.84912 13.9692 9.97263 14.0928 10.125 14.0928Z" fill="#FFE15A"/>
<path d="M14.5388 14.0928C14.6912 14.0928 14.8147 13.9692 14.8147 13.8169C14.8147 13.6645 14.6912 13.541 14.5388 13.541C14.3865 13.541 14.2629 13.6645 14.2629 13.8169C14.2629 13.9692 14.3865 14.0928 14.5388 14.0928Z" fill="#FFE15A"/>
<path d="M10.125 16.2996C10.2774 16.2996 10.4009 16.1761 10.4009 16.0238C10.4009 15.8714 10.2774 15.7479 10.125 15.7479C9.97263 15.7479 9.84912 15.8714 9.84912 16.0238C9.84912 16.1761 9.97263 16.2996 10.125 16.2996Z" fill="#FFE15A"/>
<path d="M14.5388 16.2996C14.6912 16.2996 14.8147 16.1761 14.8147 16.0238C14.8147 15.8714 14.6912 15.7479 14.5388 15.7479C14.3865 15.7479 14.2629 15.8714 14.2629 16.0238C14.2629 16.1761 14.3865 16.2996 14.5388 16.2996Z" fill="#FFE15A"/>
<path d="M12.3318 14.0928C12.4841 14.0928 12.6077 13.9692 12.6077 13.8169C12.6077 13.6645 12.4841 13.541 12.3318 13.541C12.1794 13.541 12.0559 13.6645 12.0559 13.8169C12.0559 13.9692 12.1794 14.0928 12.3318 14.0928Z" fill="#FFE15A"/>
<path d="M13.988 18.334C14.1404 18.334 14.2639 18.2105 14.2639 18.0581C14.2639 17.9058 14.1404 17.7823 13.988 17.7823C13.8357 17.7823 13.7122 17.9058 13.7122 18.0581C13.7122 18.2105 13.8357 18.334 13.988 18.334Z" fill="#FFE15A"/>
<path d="M10.708 18.334C10.8604 18.334 10.9839 18.2105 10.9839 18.0581C10.9839 17.9058 10.8604 17.7823 10.708 17.7823C10.5556 17.7823 10.4321 17.9058 10.4321 18.0581C10.4321 18.2105 10.5556 18.334 10.708 18.334Z" fill="#FFE15A"/>
<path d="M12.6925 15.8839V16.359C12.6925 16.5555 12.5326 16.7154 12.3361 16.7154C12.1396 16.7154 11.9797 16.5555 11.9797 16.359V15.8839H12.6925Z" fill="#0052B4"/>
<path d="M12.6925 14.7575V15.2326C12.6925 15.4291 12.5326 15.589 12.3361 15.589C12.1396 15.589 11.9797 15.4291 11.9797 15.2326V14.7575H12.6925Z" fill="#0052B4"/>
<path d="M12.6925 17.0218V17.4969C12.6925 17.6934 12.5326 17.8533 12.3361 17.8533C12.1396 17.8533 11.9797 17.6934 11.9797 17.4969V17.0218H12.6925Z" fill="#0052B4"/>
<path d="M13.6522 15.8839V16.359C13.6522 16.5555 13.4923 16.7154 13.2958 16.7154C13.0993 16.7154 12.9395 16.5555 12.9395 16.359V15.8839H13.6522Z" fill="#0052B4"/>
<path d="M11.7328 15.8839V16.359C11.7328 16.5555 11.5729 16.7154 11.3764 16.7154C11.1799 16.7154 11.02 16.5555 11.02 16.359V15.8839H11.7328Z" fill="#0052B4"/>
</svg>
