<svg width="32" height="32" viewBox="0 0 32 32" fill="none" xmlns="http://www.w3.org/2000/svg">
<path d="M2 5.33311C0.895431 5.33311 0 6.22855 0 7.33311V12.4442V19.5553V24.6664C0 25.7709 0.895431 26.6664 2 26.6664H30C31.1046 26.6664 32 25.7709 32 24.6664V19.5553V12.4442V7.33311C32 6.22854 31.1046 5.33311 30 5.33311H2Z" fill="#F0F0F0"/>
<path d="M30 5.33331H2C0.895431 5.33331 0 6.22874 0 7.33331V24.6669C0 25.7714 0.895431 26.6669 2 26.6669H30C31.1046 26.6669 32 25.7714 32 24.6669V7.33331C32 6.22874 31.1046 5.33331 30 5.33331Z" fill="#0052B4"/>
<path d="M30 5.33331H2C0.895431 5.33331 0 6.22874 0 7.3333V12.4442H32V7.33331C32 6.22874 31.1046 5.33331 30 5.33331Z" fill="#F0F0F0"/>
<path d="M32 19.5553H0V24.6662C0 25.7708 0.895431 26.6662 2 26.6662H30C31.1046 26.6662 32 25.7708 32 24.6662V19.5553Z" fill="#FF4B55"/>
</svg>
