<svg width="32" height="32" viewBox="0 0 32 32" fill="none" xmlns="http://www.w3.org/2000/svg">
<path d="M30 5.33356H2C0.895431 5.33356 0 6.22899 0 7.33356V24.6664C0 25.771 0.895431 26.6664 2 26.6664H30C31.1046 26.6664 32 25.771 32 24.6664V7.33356C32 6.22899 31.1046 5.33356 30 5.33356Z" fill="#F0F0F0"/>
<path d="M32 12.2901H0V19.7099H32V12.2901Z" fill="#0052B4"/>
<path d="M32 19.7099H0V24.6664C0 25.771 0.895431 26.6664 2 26.6664H30C31.1046 26.6664 32 25.771 32 24.6664V19.7099Z" fill="#FF4B55"/>
<path d="M11.4645 21.1601C11.3012 21.0663 7.46338 18.8341 7.46338 15.403V10.7134H15.7393V15.403C15.7393 18.8341 11.9014 21.0663 11.7381 21.1601L11.6013 21.2381L11.4645 21.1601Z" fill="#FF4B55"/>
<path d="M13.7688 14.5754L12.4683 14.7468H12.0348V13.9706H12.2949L13.3353 14.1419L13.1944 13.5371L13.3353 12.9323L12.2949 13.1036H12.0348V12.8414L12.2061 11.5409L11.6013 11.7171L10.9966 11.5409L11.1678 12.8414V13.1036H10.9077L9.86734 12.9323L10.0082 13.5371L9.86734 14.1419L10.9077 13.9706H11.1678V14.7468H10.7343L9.43384 14.5754L9.60996 15.1802L9.43384 15.785L10.7343 15.6137H11.1678V17.6099H12.0348V15.6137H12.4683L13.7688 15.785L13.5927 15.1802L13.7688 14.5754Z" fill="#F0F0F0"/>
<path d="M11.6014 16.7823C11.0315 16.7823 10.5428 17.1281 10.3325 17.621C10.2954 17.6179 10.2599 17.6099 10.2221 17.6099C9.48764 17.6099 8.89296 18.1855 8.85083 18.9093C9.96802 20.2846 11.3673 21.1041 11.4646 21.16L11.6014 21.2381L11.7382 21.16C11.8355 21.1041 13.2348 20.2846 14.352 18.9093C14.3098 18.1855 13.7151 17.6099 12.9807 17.6099C12.9429 17.6099 12.9074 17.6179 12.8703 17.621C12.66 17.1281 12.1713 16.7823 11.6014 16.7823Z" fill="#0052B4"/>
<path d="M15.4634 10.9892C15.4634 10.9892 15.4634 14.2996 15.4634 15.4031C15.4634 18.7134 11.6013 20.9203 11.6013 20.9203C11.6013 20.9203 7.73925 18.7134 7.73925 15.4031C7.73925 14.2996 7.73925 10.9892 7.73925 10.9892H15.4634ZM16.0151 10.4375H15.4633H7.73925H7.1875V10.9892V15.4031C7.1875 18.9923 11.1586 21.3027 11.3276 21.3993L11.6013 21.5557L11.8751 21.3993C12.0441 21.3027 16.0151 18.9922 16.0151 15.4031V10.9892V10.4375H16.0151Z" fill="#F0F0F0"/>
</svg>
