<svg width="32" height="32" viewBox="0 0 32 32" fill="none" xmlns="http://www.w3.org/2000/svg">
<path d="M30 5.33356H2C0.895431 5.33356 0 6.22899 0 7.33356V24.6664C0 25.771 0.895431 26.6664 2 26.6664H30C31.1046 26.6664 32 25.771 32 24.6664V7.33356C32 6.229 31.1046 5.33356 30 5.33356Z" fill="#F0F0F0"/>
<path d="M32 12.4445H0V19.5554H32V12.4445Z" fill="#0052B4"/>
<path d="M32 19.5555H0V24.6664C0 25.771 0.895431 26.6664 2 26.6664H30C31.1046 26.6664 32 25.771 32 24.6664V19.5555Z" fill="#FF4B55"/>
<path d="M12.4578 9.84423C12.4578 9.84423 12.3466 13.3835 11.85 14.3774C11.2352 15.5989 10.6172 15.9553 9.69762 16.2845C8.77819 15.9554 8.16013 15.5992 7.54525 14.3774C7.04869 13.3834 6.93744 9.84461 6.9375 9.84423C8.69231 9.05192 10.7029 9.05192 12.4578 9.84423Z" fill="#0052B4"/>
<path d="M10.4967 14.7522C10.4295 14.7091 10.381 14.6782 10.2706 14.6782C10.1605 14.6782 10.112 14.709 10.0451 14.7522C9.96839 14.801 9.87302 14.8621 9.6957 14.8621C9.51827 14.8621 9.42289 14.801 9.3462 14.7519C9.27927 14.7091 9.23089 14.6783 9.12083 14.6783C9.01077 14.6783 8.96239 14.7091 8.89545 14.7519C8.82302 14.7984 8.73145 14.8537 8.57227 14.8599C8.90739 15.2685 9.2587 15.4624 9.69714 15.6307C10.1354 15.4623 10.4866 15.2686 10.8218 14.86C10.6615 14.8542 10.5694 14.7985 10.4967 14.7522Z" fill="#F0F0F0"/>
<path d="M8.32128 14.0984C8.38822 14.1412 8.43647 14.172 8.54615 14.172C8.65622 14.172 8.70459 14.1412 8.77153 14.0984C8.84822 14.0493 8.94359 13.9882 9.1209 13.9882C9.29822 13.9882 9.39359 14.0494 9.47028 14.0982C9.53722 14.1413 9.58571 14.1722 9.69578 14.1722C9.80584 14.1722 9.85421 14.1414 9.92115 14.0985C9.99784 14.0494 10.0932 13.9884 10.2707 13.9884C10.4482 13.9884 10.5438 14.0495 10.6205 14.0983C10.6877 14.1414 10.736 14.1723 10.8465 14.1723C10.9569 14.1723 11.0053 14.1415 11.0726 14.0983C11.1367 14.0575 11.2171 14.0102 11.3445 13.9951C11.3778 13.9082 11.4103 13.8092 11.4405 13.6889L10.6173 12.317L10.3107 12.9304L9.69728 11.7037L9.0839 12.9304L8.77722 12.317L7.95459 13.688C7.98465 13.8083 8.01703 13.9078 8.05047 13.9952C8.17734 14.0102 8.2574 14.0574 8.32128 14.0984Z" fill="#F0F0F0"/>
<path d="M11.1963 14.2922C11.1196 14.341 11.0241 14.4021 10.8465 14.4021C10.669 14.4021 10.5735 14.341 10.4969 14.2922C10.4296 14.2491 10.3811 14.2182 10.2707 14.2182C10.1607 14.2182 10.1122 14.249 10.0452 14.2922C9.96854 14.341 9.87317 14.4021 9.69585 14.4021C9.51842 14.4021 9.42304 14.341 9.34635 14.2919C9.27942 14.2491 9.23104 14.2183 9.12098 14.2183C9.01092 14.2183 8.96254 14.2491 8.8956 14.2919C8.81892 14.3411 8.72354 14.4021 8.54623 14.4021C8.36904 14.4021 8.27379 14.341 8.19735 14.2919C8.19698 14.2917 8.19666 14.2915 8.19629 14.2912C8.25641 14.4004 8.31648 14.5006 8.37635 14.5914C8.4211 14.616 8.46791 14.6321 8.54623 14.6321C8.65629 14.6321 8.70467 14.6013 8.7716 14.5585C8.84829 14.5094 8.94367 14.4483 9.12098 14.4483C9.29829 14.4483 9.39367 14.5094 9.47035 14.5582C9.53729 14.6014 9.58579 14.6322 9.69585 14.6322C9.80592 14.6322 9.85429 14.6014 9.92123 14.5586C9.99792 14.5095 10.0933 14.4484 10.2707 14.4484C10.4483 14.4484 10.5439 14.5096 10.6205 14.5584C10.6878 14.6015 10.7361 14.6324 10.8465 14.6324C10.926 14.6324 10.9732 14.616 11.0187 14.5909C11.0785 14.5002 11.1385 14.4 11.1986 14.291C11.1978 14.2913 11.1971 14.2917 11.1963 14.2922Z" fill="#F0F0F0"/>
<path d="M9.70977 10.6475L9.76358 10.8234L9.94277 10.7821C9.95489 10.7792 9.96339 10.7939 9.95489 10.803L9.82952 10.9376L9.95489 11.0721C9.96339 11.0812 9.95495 11.0959 9.94277 11.0931L9.76358 11.0517L9.70977 11.2276C9.70614 11.2396 9.6892 11.2396 9.68558 11.2276L9.63177 11.0517L9.45258 11.0931C9.44046 11.0959 9.43196 11.0812 9.44046 11.0721L9.56583 10.9376L9.44046 10.803C9.43196 10.7939 9.4404 10.7792 9.45258 10.7821L9.63177 10.8234L9.68558 10.6475C9.68927 10.6356 9.70614 10.6356 9.70977 10.6475Z" fill="#FFE15A"/>
<path d="M8.82818 9.80249L8.88199 9.97836L9.06117 9.93705C9.0733 9.93424 9.0818 9.94892 9.0733 9.95799L8.94792 10.0925L9.0733 10.2271C9.0818 10.2362 9.07336 10.2509 9.06117 10.248L8.88199 10.2067L8.82818 10.3826C8.82455 10.3945 8.80761 10.3945 8.80399 10.3826L8.75018 10.2067L8.57099 10.248C8.55887 10.2509 8.55037 10.2362 8.55887 10.2271L8.68424 10.0925L8.55887 9.95799C8.55037 9.94886 8.5588 9.93417 8.57099 9.93705L8.75018 9.97836L8.80399 9.80249C8.80761 9.79055 8.82449 9.79055 8.82818 9.80249Z" fill="#FFE15A"/>
<path d="M10.598 9.80249L10.6518 9.97836L10.8309 9.93705C10.8431 9.93424 10.8516 9.94892 10.8431 9.95799L10.7177 10.0925L10.8431 10.2271C10.8516 10.2362 10.8431 10.2509 10.8309 10.248L10.6518 10.2067L10.598 10.3826C10.5943 10.3945 10.5774 10.3945 10.5738 10.3826L10.52 10.2067L10.3408 10.248C10.3286 10.2509 10.3201 10.2362 10.3286 10.2271L10.454 10.0925L10.3286 9.95799C10.3201 9.94886 10.3286 9.93417 10.3408 9.93705L10.52 9.97836L10.5738 9.80249C10.5775 9.79055 10.5943 9.79055 10.598 9.80249Z" fill="#FFE15A"/>
<path d="M12.1402 9.71098C12.142 9.8088 12.1436 9.90748 12.1436 10.014C12.0994 11.1205 11.9347 13.5302 11.576 14.2559C11.047 15.3182 10.5587 15.6693 9.69754 15.9929C8.83641 15.6694 8.3481 15.3183 7.81954 14.2567C7.45948 13.5282 7.29366 11.0776 7.25135 10.0141C7.25135 9.90742 7.2531 9.80986 7.2546 9.71123C7.14848 9.7528 7.04298 9.79673 6.93848 9.84392C6.94585 10.0588 6.99935 11.4684 7.16004 12.7079C7.25066 13.3998 7.37541 14.0375 7.54523 14.3774C8.16004 15.5993 8.7781 15.9554 9.6976 16.2846C10.6172 15.9553 11.2352 15.5991 11.85 14.3774C12.0199 14.0375 12.1446 13.3998 12.2353 12.7079C12.3959 11.4684 12.4494 10.0588 12.4568 9.84392C12.3521 9.79661 12.2465 9.75255 12.1402 9.71098Z" fill="#FF4B55"/>
</svg>
