<svg width="32" height="32" viewBox="0 0 32 32" fill="none" xmlns="http://www.w3.org/2000/svg">
<path d="M30 5.33319H2C0.895431 5.33319 0 6.22862 0 7.33319V24.6668C0 25.7713 0.895431 26.6668 2 26.6668H30C31.1046 26.6668 32 25.7713 32 24.6668V7.33319C32 6.22862 31.1046 5.33319 30 5.33319Z" fill="#0052B4"/>
<path d="M30 5.33319H2C0.895431 5.33319 0 6.22862 0 7.33319V12.4441H32V7.33319C32 6.22862 31.1046 5.33319 30 5.33319Z" fill="#FF4B55"/>
<path d="M32 19.5551H0V24.6661C0 25.7706 0.895431 26.6661 2 26.6661H30C31.1046 26.6661 32 25.7706 32 24.6661V19.5551Z" fill="#F0F0F0"/>
<path d="M12.4841 12.1856H8.51169L8.34619 11.1925H12.6496L12.4841 12.1856Z" fill="#FFE15A"/>
<path d="M8.47021 11.9373L8.51159 12.1856H12.484L12.5254 11.9373H8.47021Z" fill="#FF9811"/>
<path d="M10.5808 8.875H10.4153V9.53706H10.5808V8.875Z" fill="#FFE15A"/>
<path d="M10.7461 9.0406H10.2495V9.2061H10.7461V9.0406Z" fill="#FFE15A"/>
<path d="M12.4969 11.5235C12.4782 11.5235 12.4592 11.5202 12.4405 11.5136C12.3546 11.4824 12.3101 11.3876 12.3413 11.3016L12.6919 10.334C12.7093 10.286 12.7052 10.2332 12.6807 10.1891C12.6676 10.1656 12.6373 10.1244 12.5792 10.1119C12.1518 10.0211 11.3232 9.86837 10.5778 9.86837H10.4179C9.67244 9.86837 8.84388 10.0211 8.41626 10.1121C8.35838 10.1244 8.32788 10.1656 8.31488 10.1891C8.29038 10.2332 8.28626 10.286 8.3037 10.334L8.6542 11.3016C8.68538 11.3876 8.64094 11.4824 8.55501 11.5136C8.46913 11.5443 8.37407 11.5002 8.34301 11.4144L7.99238 10.4468C7.94238 10.3087 7.95432 10.1563 8.02526 10.0284C8.09382 9.90481 8.21107 9.81719 8.34707 9.78825C8.78751 9.6945 9.64195 9.53719 10.4178 9.53719H10.5776C11.3534 9.53719 12.2079 9.69443 12.6481 9.788C12.7843 9.81712 12.9016 9.90469 12.9701 10.0284C13.0411 10.1562 13.053 10.3086 13.0031 10.4467L12.6524 11.4143C12.6282 11.4817 12.5646 11.5235 12.4969 11.5235Z" fill="#FFE15A"/>
<path d="M10.4985 11.3787C10.4071 11.3787 10.333 11.3047 10.333 11.2132V9.86839C10.333 9.77689 10.4071 9.70289 10.4985 9.70289C10.5899 9.70289 10.664 9.77689 10.664 9.86839V11.2132C10.6641 11.3046 10.5899 11.3787 10.4985 11.3787Z" fill="#FFE15A"/>
<path d="M11.6427 11.5235C11.6315 11.5235 11.6202 11.5224 11.6089 11.5201C11.5194 11.5015 11.4618 11.4139 11.4804 11.3244L11.6812 10.3568C11.7073 10.2307 11.6664 10.1203 11.6432 10.1009C11.4137 10.0167 10.9533 9.86829 10.5436 9.86829H10.452C10.0424 9.86829 9.58194 10.0167 9.34388 10.1052C9.32919 10.1203 9.28832 10.2307 9.31438 10.3567L9.51513 11.3243C9.53376 11.4138 9.47626 11.5015 9.38669 11.52C9.29707 11.5374 9.20944 11.4811 9.19107 11.3915L8.99032 10.424C8.94032 10.1828 9.01707 9.87392 9.22832 9.79504C9.54476 9.67742 10.0136 9.53723 10.4519 9.53723H10.5435C10.9819 9.53723 11.4508 9.67736 11.767 9.79486C11.9784 9.87392 12.0552 10.1828 12.0052 10.424L11.8044 11.3915C11.7883 11.4699 11.7194 11.5235 11.6427 11.5235Z" fill="#FFE15A"/>
<path d="M8.38757 11.4407H12.6082L12.6496 11.1925H8.34619L8.38757 11.4407Z" fill="#FF9811"/>
<path d="M7.353 12.1856C7.26163 12.1856 7.1875 12.2597 7.1875 12.3511V18.1315C7.1875 19.9668 8.66956 21.4546 10.4979 21.4546C12.3262 21.4546 13.8082 19.9668 13.8082 18.1315V12.3511C13.8082 12.2597 13.7341 12.1856 13.6427 12.1856H7.353Z" fill="#FF4B55"/>
<path d="M10.8289 17.6478L11.16 16.8202L10.4979 16.9857L9.83586 16.8202L10.1669 17.6478L9.33936 20.4616C9.33936 20.4616 9.83592 20.7926 10.498 20.7926C11.16 20.7926 11.6566 20.4616 11.6566 20.4616L10.8289 17.6478Z" fill="#F0F0F0"/>
<path d="M9.29897 18.3147L9.00691 18.3877L9.64935 17.2314L9.35998 17.0707L8.57966 18.4752H7.84947V18.8063H8.2051L7.74609 19.1735L7.95284 19.4321L8.34278 19.1201L8.18897 19.5815L8.50303 19.6862L8.80535 18.7792L9.37929 18.6357L9.29897 18.3147Z" fill="#FFE15A"/>
<path d="M9.33925 13.8408L8.58368 13.4629C8.44493 13.3936 8.37293 13.2371 8.41056 13.0866L8.45331 12.9156C8.48293 12.797 8.39324 12.6821 8.27093 12.6821C8.21381 12.6821 8.15981 12.7081 8.12418 12.7527C7.73212 13.2428 7.51855 13.8516 7.51855 14.4793V17.9787C7.51855 17.9787 8.20974 17.8405 8.83406 16.9323C8.94868 16.7656 9.13737 16.6669 9.33856 16.6566L9.00818 17.6476L9.67031 17.8132L10.2496 17.1238L9.33925 13.8408Z" fill="#F0F0F0"/>
<path d="M11.6966 18.3147L11.9886 18.3877L11.3462 17.2314L11.6356 17.0707L12.4158 18.4752H13.1461V18.8063H12.7904L13.2494 19.1735L13.0427 19.4321L12.6528 19.1201L12.8066 19.5815L12.4924 19.6862L12.1902 18.7792L11.6163 18.6357L11.6966 18.3147Z" fill="#FFE15A"/>
<path d="M11.6564 13.8408L12.412 13.4629C12.5507 13.3936 12.6227 13.2371 12.5851 13.0866L12.5423 12.9156C12.5127 12.797 12.6024 12.6821 12.7247 12.6821C12.7818 12.6821 12.8358 12.7081 12.8715 12.7527C13.2635 13.2428 13.4771 13.8516 13.4771 14.4793V17.9787C13.4771 17.9787 12.7859 17.8405 12.1616 16.9323C12.047 16.7656 11.8583 16.6669 11.6571 16.6566L11.9875 17.6476L11.3254 17.8131L10.7461 17.1238L11.6564 13.8408Z" fill="#F0F0F0"/>
<path d="M9.50487 12.6821H8.67725L8.92556 13.0132L9.50487 13.1787L9.17381 13.3442H9.67037L9.50487 12.6821Z" fill="#FFE15A"/>
<path d="M11.4912 12.6821H12.3187L12.0705 13.0132L11.4912 13.1787L11.8222 13.3442H11.3257L11.4912 12.6821Z" fill="#FFE15A"/>
<path d="M11.6076 12.5524L10.829 12.6821L10.4979 13.3442L10.1668 12.6821L9.38821 12.5524C9.29896 12.5375 9.23046 12.6302 9.27096 12.7111L9.67034 13.5098L9.33927 13.8408H10.4979H11.6565L11.3255 13.5098L11.7248 12.7111C11.7653 12.6301 11.6968 12.5374 11.6076 12.5524Z" fill="#F0F0F0"/>
<path d="M10.4978 11.5132C10.6349 11.5132 10.746 11.4021 10.746 11.265C10.746 11.1279 10.6349 11.0167 10.4978 11.0167C10.3607 11.0167 10.2495 11.1279 10.2495 11.265C10.2495 11.4021 10.3607 11.5132 10.4978 11.5132Z" fill="#FF9811"/>
<path d="M10.4945 11.9954C10.6029 11.9954 10.6907 11.9337 10.6907 11.8575C10.6907 11.7813 10.6029 11.7196 10.4945 11.7196C10.3862 11.7196 10.2983 11.7813 10.2983 11.8575C10.2983 11.9337 10.3862 11.9954 10.4945 11.9954Z" fill="#0052B4"/>
<path d="M9.51528 11.9954C9.62363 11.9954 9.71147 11.9337 9.71147 11.8575C9.71147 11.7813 9.62363 11.7196 9.51528 11.7196C9.40693 11.7196 9.31909 11.7813 9.31909 11.8575C9.31909 11.9337 9.40693 11.9954 9.51528 11.9954Z" fill="#FF4B55"/>
<path d="M8.53579 11.9954C8.64414 11.9954 8.73197 11.9337 8.73197 11.8575C8.73197 11.7813 8.64414 11.7196 8.53579 11.7196C8.42744 11.7196 8.3396 11.7813 8.3396 11.8575C8.3396 11.9337 8.42744 11.9954 8.53579 11.9954Z" fill="#0052B4"/>
<path d="M12.4528 11.9954C12.5611 11.9954 12.649 11.9337 12.649 11.8575C12.649 11.7813 12.5611 11.7196 12.4528 11.7196C12.3444 11.7196 12.2566 11.7813 12.2566 11.8575C12.2566 11.9337 12.3444 11.9954 12.4528 11.9954Z" fill="#0052B4"/>
<path d="M11.4733 11.9954C11.5816 11.9954 11.6695 11.9337 11.6695 11.8575C11.6695 11.7813 11.5816 11.7196 11.4733 11.7196C11.3649 11.7196 11.2771 11.7813 11.2771 11.8575C11.2771 11.9337 11.3649 11.9954 11.4733 11.9954Z" fill="#FF4B55"/>
<path d="M11.6484 11.5132C11.7855 11.5132 11.8966 11.4021 11.8966 11.265C11.8966 11.1279 11.7855 11.0167 11.6484 11.0167C11.5113 11.0167 11.4001 11.1279 11.4001 11.265C11.4001 11.4021 11.5113 11.5132 11.6484 11.5132Z" fill="#FF9811"/>
<path d="M12.5559 11.5132C12.693 11.5132 12.8041 11.4021 12.8041 11.265C12.8041 11.1279 12.693 11.0167 12.5559 11.0167C12.4188 11.0167 12.3076 11.1279 12.3076 11.265C12.3076 11.4021 12.4188 11.5132 12.5559 11.5132Z" fill="#FF9811"/>
<path d="M9.34908 11.5132C9.48618 11.5132 9.59733 11.4021 9.59733 11.265C9.59733 11.1279 9.48618 11.0167 9.34908 11.0167C9.21198 11.0167 9.10083 11.1279 9.10083 11.265C9.10083 11.4021 9.21198 11.5132 9.34908 11.5132Z" fill="#FF9811"/>
<path d="M8.44088 11.5132C8.57798 11.5132 8.68913 11.4021 8.68913 11.265C8.68913 11.1279 8.57798 11.0167 8.44088 11.0167C8.30377 11.0167 8.19263 11.1279 8.19263 11.265C8.19263 11.4021 8.30377 11.5132 8.44088 11.5132Z" fill="#FF9811"/>
<path d="M10.7829 9.86839C10.8114 9.81958 10.8289 9.76351 10.8289 9.70289C10.8289 9.52008 10.6807 9.37183 10.4978 9.37183C10.3149 9.37183 10.1667 9.52001 10.1667 9.70289C10.1667 9.76351 10.1842 9.81958 10.2127 9.86839H10.7829Z" fill="#0052B4"/>
<path d="M10.4977 17.2339C9.81316 17.2339 9.25635 16.6771 9.25635 15.9925V13.758H11.7391V15.9925C11.7391 16.6771 11.1823 17.2339 10.4977 17.2339Z" fill="#FF4B55"/>
<path d="M11.6565 13.8407V15.9925C11.6565 16.6324 11.1378 17.1511 10.4979 17.1511C9.85802 17.1511 9.33927 16.6324 9.33927 15.9925V13.8407H11.6565ZM11.8221 13.6752H11.6566H9.33933H9.17383V13.8407V15.9925C9.17383 16.7226 9.76783 17.3166 10.498 17.3166C11.2281 17.3166 11.8221 16.7226 11.8221 15.9925V13.8407V13.6752Z" fill="#FF4B55"/>
<path d="M10.2496 17.1237C10.3296 17.1412 10.4125 17.1511 10.4978 17.1511C10.5831 17.1511 10.666 17.1412 10.7461 17.1237V13.8407H10.2495C10.2496 13.8407 10.2496 17.1237 10.2496 17.1237Z" fill="#F0F0F0"/>
<path d="M11.6566 15.2062H9.33911V15.7028H11.6566V15.2062Z" fill="#F0F0F0"/>
</svg>
