<svg width="32" height="32" viewBox="0 0 32 32" fill="none" xmlns="http://www.w3.org/2000/svg">
<path d="M30 5.33339H2C0.895431 5.33339 0 6.22882 0 7.33339V24.6663C0 25.7708 0.895431 26.6663 2 26.6663H30C31.1046 26.6663 32 25.7708 32 24.6663V7.33339C32 6.22882 31.1046 5.33339 30 5.33339Z" fill="#F0F0F0"/>
<path d="M32 12.1285H0V19.8711H32V12.1285Z" fill="#0052B4"/>
<path d="M30 5.33339H2C0.895431 5.33339 0 6.22882 0 7.33339V8.74101H32V7.33339C32 6.22882 31.1046 5.33339 30 5.33339Z" fill="#FF4B55"/>
<path d="M32 23.259H0V24.6666C0 25.7712 0.895431 26.6666 2 26.6666H30C31.1046 26.6666 32 25.7712 32 24.6666V23.259Z" fill="#FF4B55"/>
</svg>
