<svg width="32" height="32" viewBox="0 0 32 32" fill="none" xmlns="http://www.w3.org/2000/svg">
<path d="M30 5.33356H2C0.895431 5.33356 0 6.22899 0 7.33356V24.6664C0 25.771 0.895431 26.6664 2 26.6664H30C31.1046 26.6664 32 25.771 32 24.6664V7.33356C32 6.22899 31.1046 5.33356 30 5.33356Z" fill="#FF4B55"/>
<path d="M15.4508 13.5492L16.5504 15.0646L18.3312 14.4871L17.2299 16.0011L18.3294 17.5164L16.5491 16.9368L15.4478 18.4508L15.449 16.5786L13.6687 15.9989L15.4496 15.4215L15.4508 13.5492Z" fill="#F0F0F0"/>
<path d="M12.4502 19.7876C10.3583 19.7876 8.66254 18.0918 8.66254 16C8.66254 13.9082 10.3583 12.2124 12.4502 12.2124C13.1024 12.2124 13.716 12.3773 14.2519 12.6676C13.4114 11.8456 12.2618 11.3383 10.9934 11.3383C8.41885 11.3383 6.33179 13.4254 6.33179 15.9999C6.33179 18.5744 8.41891 20.6616 10.9934 20.6616C12.2618 20.6616 13.4114 20.1542 14.2519 19.3322C13.7161 19.6227 13.1024 19.7876 12.4502 19.7876Z" fill="#F0F0F0"/>
</svg>
