<svg width="32" height="32" viewBox="0 0 32 32" fill="none" xmlns="http://www.w3.org/2000/svg">
<path d="M24.5941 10.6572L25.6886 11.8369L27.1488 11.1606L26.365 12.566L27.4596 13.7458L25.8806 13.4347L25.0969 14.8402L24.9049 13.2424L23.3259 12.9313L24.7861 12.255L24.5941 10.6572Z" fill="#F0F0F0"/>
<path d="M30 5.33392H2C0.895431 5.33392 0 6.22935 0 7.33392V24.6668C0 25.7714 0.895431 26.6668 2 26.6668H30C31.1046 26.6668 32 25.7714 32 24.6668V7.33392C32 6.22935 31.1046 5.33392 30 5.33392Z" fill="#F0F0F0"/>
<path d="M30 5.33319H8V26.6668H30C31.1046 26.6668 32 25.7713 32 24.6668V7.33319C32 6.22862 31.1046 5.33319 30 5.33319Z" fill="#73AF00"/>
<path d="M22.6194 18.6746C20.6796 20.0762 17.9708 19.6399 16.5692 17.7001C15.1675 15.7602 15.6038 13.0514 17.5437 11.6498C18.1485 11.2128 18.8281 10.9545 19.5195 10.8646C18.1893 10.6657 16.7835 10.9654 15.6072 11.8153C13.2197 13.5404 12.6827 16.8743 14.4077 19.2619C16.1328 21.6493 19.4667 22.1864 21.8543 20.4612C23.0305 19.6113 23.7565 18.3707 23.9853 17.0452C23.6828 17.6734 23.2243 18.2375 22.6194 18.6746Z" fill="#F0F0F0"/>
<path d="M22.5364 10.8055L23.6292 11.9832L25.0868 11.308L24.3044 12.711L25.3971 13.8887L23.8209 13.5782L23.0384 14.9814L22.8468 13.3863L21.2705 13.0757L22.7282 12.4006L22.5364 10.8055Z" fill="#F0F0F0"/>
</svg>
