<svg width="32" height="32" viewBox="0 0 32 32" fill="none" xmlns="http://www.w3.org/2000/svg">
<path d="M30 5.33359H2C0.895431 5.33359 0 6.22902 0 7.33359V24.6665C0 25.771 0.895431 26.6665 2 26.6665H30C31.1046 26.6665 32 25.771 32 24.6665V7.33359C32 6.22902 31.1046 5.33359 30 5.33359Z" fill="#FF4B55"/>
<path d="M32 20.174H0V24.6665C0 25.771 0.895431 26.6665 2 26.6665H30C31.1046 26.6665 32 25.771 32 24.6665V20.174Z" fill="#73AF00"/>
<path d="M30 5.33359H2C0.895431 5.33359 0 6.22902 0 7.33359V11.8658H32V7.33359C32 6.22902 31.1046 5.33359 30 5.33359Z" fill="#82AFFF"/>
<path d="M32 13.1798H0V18.7833H32V13.1798Z" fill="#F0F0F0"/>
<path d="M30 5.33359H2C0.895431 5.33359 0 6.22902 0 7.33359V11.8658H32V7.33359C32 6.22902 31.1046 5.33359 30 5.33359Z" fill="#82AFFF"/>
<path d="M5.74526 10.6811C4.61576 10.6811 3.7002 9.76775 3.7002 8.64231C3.7002 7.51275 4.6157 6.59525 5.74526 6.59525C5.74964 6.59525 5.75389 6.59525 5.75814 6.59531C5.82464 6.59619 5.84795 6.50788 5.78932 6.47644C5.44151 6.29 5.04457 6.1845 4.62257 6.18756C3.27108 6.19719 2.17326 7.31713 2.18764 8.66863C2.20176 10.0062 3.29526 11.0889 4.64026 11.0889C5.05645 11.0889 5.44782 10.9836 5.79132 10.7997C5.84976 10.7684 5.82614 10.6801 5.75989 10.681C5.75489 10.6811 5.75007 10.6811 5.74526 10.6811Z" fill="#F0F0F0"/>
<path d="M7.34665 10.1173L7.25534 10.3912L6.96665 10.3934C6.92928 10.3936 6.91378 10.4414 6.94384 10.4636L7.17609 10.6351L7.08896 10.9103C7.07771 10.9459 7.11828 10.9754 7.14871 10.9537L7.38359 10.7858L7.61846 10.9537C7.6489 10.9754 7.6894 10.9459 7.67821 10.9103L7.59109 10.6351L7.82327 10.4636C7.85334 10.4414 7.83784 10.3936 7.80046 10.3934L7.51178 10.3912L7.42046 10.1173C7.40865 10.0819 7.35853 10.0819 7.34665 10.1173Z" fill="#F0F0F0"/>
<path d="M9.38059 10.1173L9.28927 10.3912L9.00059 10.3934C8.96321 10.3936 8.94771 10.4414 8.97777 10.4636L9.20996 10.6351L9.12284 10.9103C9.11159 10.9459 9.15215 10.9754 9.18259 10.9537L9.41746 10.7858L9.65234 10.9537C9.68277 10.9754 9.72327 10.9459 9.71209 10.9103L9.62496 10.6351L9.85715 10.4636C9.88721 10.4414 9.87171 10.3936 9.83433 10.3934L9.54565 10.3912L9.45434 10.1173C9.44252 10.0819 9.39234 10.0819 9.38059 10.1173Z" fill="#F0F0F0"/>
<path d="M11.4145 10.1173L11.3232 10.3912L11.0345 10.3934C10.9971 10.3936 10.9816 10.4414 11.0117 10.4636L11.244 10.6351L11.1568 10.9103C11.1456 10.9459 11.1861 10.9754 11.2166 10.9537L11.4515 10.7858L11.6863 10.9537C11.7168 10.9754 11.7573 10.9459 11.7461 10.9103L11.659 10.6351L11.8912 10.4636C11.9212 10.4414 11.9057 10.3936 11.8683 10.3934L11.5796 10.3912L11.4883 10.1173C11.4765 10.0819 11.4263 10.0819 11.4145 10.1173Z" fill="#F0F0F0"/>
<path d="M13.4482 10.1173L13.3569 10.3912L13.0682 10.3934C13.0308 10.3936 13.0153 10.4414 13.0454 10.4636L13.2776 10.6351L13.1905 10.9103C13.1792 10.9459 13.2198 10.9754 13.2502 10.9537L13.4851 10.7858L13.72 10.9537C13.7504 10.9754 13.7909 10.9459 13.7797 10.9103L13.6926 10.6351L13.9248 10.4636C13.9548 10.4414 13.9393 10.3936 13.902 10.3934L13.6133 10.3912L13.522 10.1173C13.5102 10.0819 13.46 10.0819 13.4482 10.1173Z" fill="#F0F0F0"/>
<path d="M15.4824 10.1173L15.3911 10.3912L15.1024 10.3934C15.065 10.3936 15.0495 10.4414 15.0796 10.4636L15.3118 10.6351L15.2247 10.9103C15.2135 10.9459 15.254 10.9754 15.2845 10.9537L15.5193 10.7858L15.7542 10.9537C15.7846 10.9754 15.8251 10.9459 15.814 10.9103L15.7268 10.6351L15.9591 10.4636C15.9891 10.4414 15.9736 10.3936 15.9363 10.3934L15.6476 10.3912L15.5563 10.1173C15.5443 10.0819 15.4942 10.0819 15.4824 10.1173Z" fill="#F0F0F0"/>
<path d="M9.38059 8.21905L9.28927 8.49293L9.00059 8.49512C8.96321 8.49537 8.94771 8.54312 8.97777 8.56531L9.20996 8.73681L9.12284 9.01206C9.11159 9.04768 9.15215 9.07718 9.18259 9.05543L9.41746 8.88756L9.65234 9.05543C9.68277 9.07718 9.72327 9.04768 9.71209 9.01206L9.62496 8.73681L9.85715 8.56531C9.88721 8.54312 9.87171 8.49537 9.83433 8.49512L9.54565 8.49293L9.45434 8.21905C9.44252 8.18349 9.39234 8.18349 9.38059 8.21905Z" fill="#F0F0F0"/>
<path d="M11.4145 8.21905L11.3232 8.49293L11.0345 8.49512C10.9971 8.49537 10.9816 8.54312 11.0117 8.56531L11.244 8.73681L11.1568 9.01206C11.1456 9.04768 11.1861 9.07718 11.2166 9.05543L11.4515 8.88756L11.6863 9.05543C11.7168 9.07718 11.7573 9.04768 11.7461 9.01206L11.659 8.73681L11.8912 8.56531C11.9212 8.54312 11.9057 8.49537 11.8683 8.49512L11.5796 8.49293L11.4883 8.21905C11.4765 8.18349 11.4263 8.18349 11.4145 8.21905Z" fill="#F0F0F0"/>
<path d="M13.4482 8.21905L13.3569 8.49293L13.0682 8.49512C13.0308 8.49537 13.0153 8.54312 13.0454 8.56531L13.2776 8.73681L13.1905 9.01206C13.1792 9.04768 13.2198 9.07718 13.2502 9.05543L13.4851 8.88756L13.72 9.05543C13.7504 9.07718 13.7909 9.04768 13.7797 9.01206L13.6926 8.73681L13.9248 8.56531C13.9548 8.54312 13.9393 8.49537 13.902 8.49512L13.6133 8.49293L13.522 8.21905C13.5102 8.18349 13.46 8.18349 13.4482 8.21905Z" fill="#F0F0F0"/>
<path d="M15.4824 8.21905L15.3911 8.49293L15.1024 8.49512C15.065 8.49537 15.0495 8.54312 15.0796 8.56531L15.3118 8.73681L15.2247 9.01206C15.2135 9.04768 15.254 9.07718 15.2845 9.05543L15.5193 8.88756L15.7542 9.05543C15.7846 9.07718 15.8251 9.04768 15.814 9.01206L15.7268 8.73681L15.9591 8.56531C15.9891 8.54312 15.9736 8.49537 15.9363 8.49512L15.6476 8.49293L15.5563 8.21905C15.5443 8.18349 15.4942 8.18349 15.4824 8.21905Z" fill="#F0F0F0"/>
<path d="M11.4145 10.1173L11.3232 10.3912L11.0345 10.3934C10.9971 10.3936 10.9816 10.4414 11.0117 10.4636L11.244 10.6351L11.1568 10.9103C11.1456 10.9459 11.1861 10.9754 11.2166 10.9537L11.4515 10.7858L11.6863 10.9537C11.7168 10.9754 11.7573 10.9459 11.7461 10.9103L11.659 10.6351L11.8912 10.4636C11.9212 10.4414 11.9057 10.3936 11.8683 10.3934L11.5796 10.3912L11.4883 10.1173C11.4765 10.0819 11.4263 10.0819 11.4145 10.1173Z" fill="#F0F0F0"/>
<path d="M11.4145 6.32067L11.3232 6.59454L11.0345 6.59673C10.9971 6.59698 10.9816 6.64473 11.0117 6.66692L11.244 6.83842L11.1568 7.11367C11.1456 7.14929 11.1861 7.17879 11.2166 7.15704L11.4515 6.98917L11.6863 7.15704C11.7168 7.17879 11.7573 7.14929 11.7461 7.11367L11.659 6.83842L11.8912 6.66692C11.9212 6.64473 11.9057 6.59698 11.8683 6.59673L11.5796 6.59454L11.4883 6.32067C11.4765 6.28523 11.4263 6.28523 11.4145 6.32067Z" fill="#F0F0F0"/>
<path d="M13.4482 10.1173L13.3569 10.3912L13.0682 10.3934C13.0308 10.3936 13.0153 10.4414 13.0454 10.4636L13.2776 10.6351L13.1905 10.9103C13.1792 10.9459 13.2198 10.9754 13.2502 10.9537L13.4851 10.7858L13.72 10.9537C13.7504 10.9754 13.7909 10.9459 13.7797 10.9103L13.6926 10.6351L13.9248 10.4636C13.9548 10.4414 13.9393 10.3936 13.902 10.3934L13.6133 10.3912L13.522 10.1173C13.5102 10.0819 13.46 10.0819 13.4482 10.1173Z" fill="#F0F0F0"/>
<path d="M15.4824 10.1173L15.3911 10.3912L15.1024 10.3934C15.065 10.3936 15.0495 10.4414 15.0796 10.4636L15.3118 10.6351L15.2247 10.9103C15.2135 10.9459 15.254 10.9754 15.2845 10.9537L15.5193 10.7858L15.7542 10.9537C15.7846 10.9754 15.8251 10.9459 15.814 10.9103L15.7268 10.6351L15.9591 10.4636C15.9891 10.4414 15.9736 10.3936 15.9363 10.3934L15.6476 10.3912L15.5563 10.1173C15.5443 10.0819 15.4942 10.0819 15.4824 10.1173Z" fill="#F0F0F0"/>
<path d="M13.4482 6.32067L13.3569 6.59454L13.0682 6.59673C13.0308 6.59698 13.0153 6.64473 13.0454 6.66692L13.2776 6.83842L13.1905 7.11367C13.1792 7.14929 13.2198 7.17879 13.2502 7.15704L13.4851 6.98917L13.72 7.15704C13.7504 7.17879 13.7909 7.14929 13.7797 7.11367L13.6926 6.83842L13.9248 6.66692C13.9548 6.64473 13.9393 6.59698 13.902 6.59673L13.6133 6.59454L13.522 6.32067C13.5102 6.28523 13.46 6.28523 13.4482 6.32067Z" fill="#F0F0F0"/>
<path d="M15.4824 6.32067L15.3911 6.59454L15.1024 6.59673C15.065 6.59698 15.0495 6.64473 15.0796 6.66692L15.3118 6.83842L15.2247 7.11367C15.2135 7.14929 15.254 7.17879 15.2845 7.15704L15.5193 6.98917L15.7542 7.15704C15.7846 7.17879 15.8251 7.14929 15.814 7.11367L15.7268 6.83842L15.9591 6.66692C15.9891 6.64473 15.9736 6.59698 15.9363 6.59673L15.6476 6.59454L15.5563 6.32067C15.5443 6.28523 15.4942 6.28523 15.4824 6.32067Z" fill="#F0F0F0"/>
</svg>
