<svg width="32" height="32" viewBox="0 0 32 32" fill="none" xmlns="http://www.w3.org/2000/svg">
<path d="M30 5.33002H2C0.895431 5.33002 0 6.22545 0 7.33002V24.66C0 25.7646 0.89543 26.66 2 26.66H30C31.1046 26.66 32 25.7646 32 24.66V7.33002C32 6.22545 31.1046 5.33002 30 5.33002Z" fill="#F0F0F0"/>
<path d="M32 7.32971H0V10.6625H32V7.32971Z" fill="#464655"/>
<path d="M32 21.3275H0V24.6603H32V21.3275Z" fill="#464655"/>
<path d="M11.3557 12.9292C11.3555 15.5884 13.511 17.7442 16.1702 17.7444C18.8294 17.7446 20.9852 15.5891 20.9854 12.9299C20.9854 12.9297 20.9854 12.9295 20.9854 12.9292H20.527C20.527 15.3352 18.5765 17.2856 16.1706 17.2856C13.7646 17.2856 11.8141 15.3352 11.8141 12.9292H11.3557Z" fill="#464655"/>
<path d="M12.7405 12.95C12.7393 14.8444 14.274 16.381 16.1683 16.3822C18.0627 16.3834 19.5993 14.8487 19.6005 12.9544C19.6005 12.9529 19.6005 12.9515 19.6005 12.95H19.1389C19.1397 14.5894 17.8113 15.9191 16.1719 15.9198C14.5325 15.9206 13.2029 14.5923 13.2021 12.9529C13.2021 12.9519 13.2021 12.951 13.2021 12.95H12.7405Z" fill="#464655"/>
<path d="M14.1418 12.9292C14.141 14.0497 15.0486 14.9586 16.1691 14.9595C17.2895 14.9603 18.1985 14.0527 18.1994 12.9323C18.1994 12.9312 18.1994 12.9302 18.1994 12.9292H17.7409C17.7409 13.7965 17.0379 14.4995 16.1706 14.4995C15.3033 14.4995 14.6003 13.7965 14.6003 12.9292H14.1418Z" fill="#464655"/>
<path d="M13.6765 19.9574V20.2712H18.6644V19.9574L16.3997 19.4526V12.5761H15.9413V19.4526L13.6765 19.9574Z" fill="#464655"/>
<path d="M11 12.3521H12.17L11.8142 12.8329H11.3558L11 12.3521Z" fill="#464655"/>
<path d="M12.3931 12.3521H13.5631L13.2073 12.8329H12.7489L12.3931 12.3521Z" fill="#464655"/>
<path d="M13.7859 12.3521H14.9559L14.6001 12.8329H14.1417L13.7859 12.3521Z" fill="#464655"/>
<path d="M15.5854 12H16.7555L16.3997 12.4808H15.9413L15.5854 12Z" fill="#464655"/>
<path d="M17.385 12.3521H18.555L18.1993 12.8329H17.7408L17.385 12.3521Z" fill="#464655"/>
<path d="M18.7781 12.3521H19.9481L19.5923 12.8329H19.1339L18.7781 12.3521Z" fill="#464655"/>
<path d="M20.1709 12.3521H21.3409L20.9852 12.8329H20.5267L20.1709 12.3521Z" fill="#464655"/>
</svg>
