<svg width="32" height="32" viewBox="0 0 32 32" fill="none" xmlns="http://www.w3.org/2000/svg">
<path d="M30 5.33319H2C0.895431 5.33319 0 6.22862 0 7.33319V24.6668C0 25.7713 0.895431 26.6668 2 26.6668H30C31.1046 26.6668 32 25.7713 32 24.6668V7.33319C32 6.22862 31.1046 5.33319 30 5.33319Z" fill="#FF4B55"/>
<path d="M6.55701 8.98376L7.39668 11.568H10.114L7.91563 13.1652L8.75535 15.7496L6.55701 14.1523L4.35867 15.7496L5.19834 13.1652L3 11.568H5.71729L6.55701 8.98376Z" fill="#FFE15A"/>
<path d="M11.8495 17.579L11.025 16.98L10.2007 17.5789L10.5155 16.6099L9.69116 16.0109H10.7102L11.025 15.0418L11.34 16.0109H12.3589L11.5346 16.6098L11.8495 17.579Z" fill="#FFE15A"/>
<path d="M14 14.619H12.9811L12.6662 15.588L12.3513 14.619L11.3323 14.619L12.1568 14.02L11.8418 13.0509L12.6662 13.6498L13.4906 13.0509L13.1757 14.02L14 14.619Z" fill="#FFE15A"/>
<path d="M14 10.9601L13.1757 11.5591L13.4905 12.5281L12.6662 11.9292L11.8418 12.5282L12.1568 11.559L11.3323 10.9602L12.3514 10.9601L12.6662 9.99094L12.9811 10.9601H14Z" fill="#FFE15A"/>
<path d="M11.8494 8.00006L11.5346 8.9692L12.3589 9.56807L11.34 9.56813L11.025 10.5373L10.7101 9.56807L9.69116 9.56819L10.5155 8.96915L10.2007 8L11.025 8.59898L11.8494 8.00006Z" fill="#FFE15A"/>
</svg>
