<svg width="32" height="32" viewBox="0 0 32 32" fill="none" xmlns="http://www.w3.org/2000/svg">
<mask id="mask0" mask-type="alpha" maskUnits="userSpaceOnUse" x="0" y="5" width="32" height="22">
<rect y="5.33002" width="32" height="21.33" rx="2" fill="#C4C4C4"/>
</mask>
<g mask="url(#mask0)">
<path d="M6.41016 26.6633H32V19.5522H17.0768L6.41016 26.6633Z" fill="#0052B4"/>
<path d="M6.41016 5.33L17.0768 12.4411H32V5.33H6.41016Z" fill="#FF4B55"/>
<path d="M3.84595 26.6633H6.41009L17.0768 19.5522H32V18.13H16.646L3.84595 26.6633Z" fill="#F0F0F0"/>
<path d="M6.41009 5.33H3.84595L16.646 13.8633H32V12.4411H17.0768L6.41009 5.33Z" fill="#F0F0F0"/>
<path d="M0 15.9967V22.3899L9.58986 15.9967H0Z" fill="#464655"/>
<path d="M0 9.60343V15.9967H9.58986L0 9.60343Z" fill="#464655"/>
<path d="M12.154 15.9967H9.58986L0 22.3899V24.0993L12.154 15.9967Z" fill="#FFE15A"/>
<path d="M12.154 15.9967L0 7.894V9.60343L9.58986 15.9967H12.154Z" fill="#FFE15A"/>
<path d="M0 26.6633H3.84599L16.646 18.13H32V15.9967H16L0 26.6633Z" fill="#73AF00"/>
<path d="M3.84599 5.33H0L16 15.9967H32V13.8633H16.646L3.84599 5.33Z" fill="#73AF00"/>
<path d="M12.154 15.9967L0 24.0993V26.6633L16 15.9967H12.154Z" fill="#73AF00"/>
<path d="M12.154 15.9967H16L0 5.33V7.89399L12.154 15.9967Z" fill="#73AF00"/>
</g>
</svg>
