<?xml version="1.0" encoding="UTF-8"?>
<svg width="43px" height="26px" viewBox="0 0 43 26" version="1.1" xmlns="http://www.w3.org/2000/svg" xmlns:xlink="http://www.w3.org/1999/xlink">
    <title>Group 2</title>
    <g id="Page-1" stroke="none" stroke-width="1" fill="none" fill-rule="evenodd">
        <g id="SEO" transform="translate(-510.000000, -182.000000)" fill="#343333">
            <g id="Group-2" transform="translate(510.000000, 182.000000)">
                <g id="Group" fill-rule="nonzero">
                    <g id="Risorsa-1">
                        <path d="M32.2339833,11.7281771 L28.7256267,11.7281771 C28.3695355,10.1334526 26.959686,9 25.3321727,9 C23.7046594,9 22.2948099,10.1334526 21.9387187,11.7281771 L0.766016713,11.7281771 C0.342957364,11.7281771 0,12.0725694 0,12.4973988 C0,12.9222282 0.342957364,13.2666204 0.766016713,13.2666204 L21.9233983,13.2666204 C22.2759513,14.8635192 23.6860807,16 25.3149373,16 C26.9437939,16 28.3539234,14.8635192 28.7064763,13.2666204 L32.2339833,13.2666204 C32.6570426,13.2666204 33,12.9222282 33,12.4973988 C33,12.0725694 32.6570426,11.7281771 32.2339833,11.7281771 Z M25.3130223,14.4550679 C24.5245181,14.4550679 23.8136551,13.9780971 23.5119076,13.2465663 C23.2101601,12.5150355 23.3769521,11.6730071 23.9345088,11.1131177 C24.4920654,10.5532282 25.3305855,10.3857384 26.0590684,10.6887483 C26.7875513,10.9917583 27.2625348,11.7055955 27.2625348,12.4973988 C27.2604274,13.5777118 26.3888342,14.4529517 25.3130223,14.4550679 Z" id="Shape"></path>
                        <path d="M0.766016713,4.26979377 L4.91016713,4.26979377 C5.26625834,5.86570441 6.67610787,7 8.30362117,7 C9.93113447,7 11.340984,5.86570441 11.6970752,4.26979377 L32.2339833,4.26979377 C32.6570426,4.26979377 33,3.92514536 33,3.5 C33,3.07485464 32.6570426,2.73020623 32.2339833,2.73020623 L11.6970752,2.73020623 C11.340984,1.13429559 9.93113447,0 8.30362117,0 C6.67610787,0 5.26625834,1.13429559 4.91016713,2.73020623 L0.766016713,2.73020623 C0.342957364,2.73020623 0,3.07485464 0,3.5 C0,3.92514536 0.342957364,4.26979377 0.766016713,4.26979377 Z M8.30362117,1.54087484 C9.38030721,1.54087484 10.2531337,2.41800505 10.2531337,3.5 C10.2531337,4.58199495 9.38030721,5.45912516 8.30362117,5.45912516 C7.22693513,5.45912516 6.35410864,4.58199495 6.35410864,3.5 C6.35621601,2.41888348 7.22780924,1.54299261 8.30362117,1.54087484 L8.30362117,1.54087484 Z" id="Shape"></path>
                        <path d="M32.2339833,21.7313496 L20.5828691,21.7313496 C20.2303161,20.1356368 18.8201867,19 17.1913301,19 C15.5624735,19 14.1523441,20.1356368 13.7997911,21.7313496 L0.766016713,21.7313496 C0.342957364,21.7313496 0,22.0754861 0,22.5 C0,22.9245139 0.342957364,23.2686504 0.766016713,23.2686504 L13.7883008,23.2686504 C14.1408538,24.8643632 15.5509832,26 17.1798398,26 C18.8086964,26 20.2188259,24.8643632 20.5713788,23.2686504 L32.2339833,23.2686504 C32.6570426,23.2686504 33,22.9245139 33,22.5 C33,22.0754861 32.6570426,21.7313496 32.2339833,21.7313496 Z M17.189415,24.4562303 C16.1142475,24.4498564 15.2471893,23.5712333 15.2513924,22.4923588 C15.2556263,21.4134842 16.1295287,20.5417153 17.2047128,20.5438187 C18.279897,20.5459296 19.1504178,21.4211172 19.1504178,22.5 C19.1494047,23.020508 18.9421069,23.5192365 18.5742364,23.8862089 C18.2063658,24.2531813 17.7081366,24.4582574 17.189415,24.4562303 L17.189415,24.4562303 Z" id="Shape"></path>
                    </g>
                </g>
                <rect id="Rectangle" stroke="#343333" stroke-width="0.5" x="36" y="12" width="1" height="11" rx="0.5"></rect>
                <rect id="Rectangle" stroke="#343333" stroke-width="0.5" transform="translate(36.500000, 17.500000) rotate(90.000000) translate(-36.500000, -17.500000) " x="36" y="12" width="1" height="11" rx="0.5"></rect>
            </g>
        </g>
    </g>
</svg>