<svg xmlns="http://www.w3.org/2000/svg" viewBox="0 0 640 620">
  <defs>
    <style>
      .cls-1 {
        fill: #505058;
      }
    </style>
  </defs>
  <g id="Livello_2" data-name="Livello 2">
    <g id="ICON">
      <g>
        <path class="cls-1" d="M514.15,70H630a10,10,0,0,0,0-20H514.15a60,60,0,0,0-118.3,0H10a10,10,0,0,0,0,20H395.85a60,60,0,0,0,118.3,0Zm-97.9,0a40.63,40.63,0,0,1,0-20,40,40,0,0,1,77.5,0,40.63,40.63,0,0,1,0,20,40,40,0,0,1-77.5,0Z"/>
        <path class="cls-1" d="M219.15,320H630a10,10,0,0,0,0-20H219.15a60,60,0,0,0-118.3,0H10a10,10,0,0,0,0,20h90.85a60,60,0,0,0,118.3,0Zm-97.9,0a40.63,40.63,0,0,1,0-20,40,40,0,0,1,77.5,0,40.63,40.63,0,0,1,0,20,40,40,0,0,1-77.5,0Z"/>
        <path class="cls-1" d="M429.15,570H630a10,10,0,0,0,0-20H429.15a60,60,0,0,0-118.3,0H10a10,10,0,0,0,0,20H310.85a60,60,0,0,0,118.3,0Zm-97.9,0a40.63,40.63,0,0,1,0-20,40,40,0,0,1,77.5,0,40.63,40.63,0,0,1,0,20,40,40,0,0,1-77.5,0Z"/>
      </g>
    </g>
  </g>
</svg>
