<svg xmlns="http://www.w3.org/2000/svg" xmlns:xlink="http://www.w3.org/1999/xlink" width="33" height="29" viewBox="0 0 32.13 28.567"><g fill="none" stroke="#293f54" stroke-width=".567" stroke-miterlimit="10"><path d="M31.846 27.284a1 1 0 0 1-1 1H1.284a1 1 0 0 1-1-1v-26a1 1 0 0 1 1-1h29.563a1 1 0 0 1 1 1v26z"/><path d="M.096 7.22h31.688"/></g><g fill="#00b1cc"><circle cx="2.846" cy="3.846" r=".813"/><circle cx="6.846" cy="3.846" r=".813"/><circle cx="10.846" cy="3.846" r=".813"/></g><g fill="#293f54"><circle cx="16.221" cy="3.846" r=".5"/><circle cx="18.747" cy="3.846" r=".5"/><circle cx="21.272" cy="3.846" r=".5"/><circle cx="23.797" cy="3.846" r=".5"/><circle cx="26.322" cy="3.846" r=".5"/><circle cx="28.846" cy="3.846" r=".5"/></g><path fill="#fff" stroke="#ffc500" stroke-width=".454" stroke-linejoin="round" stroke-miterlimit="10" d="M28.57 18.648c0 .552-.525 1-1.174 1h-21.7c-.648 0-1.174-.448-1.174-1V13.32c0-.552.525-1 1.174-1h21.7c.648 0 1.174.448 1.174 1v5.327z"/><path fill="#ffc500" d="M26.934 17.647c0 .33-.44.597-.99.597H7.647c-.547 0-1-.267-1-.597v-3.182c0-.33.443-.597 1-.597h18.298c.548 0 .99.267.99.597v3.182z"/><path fill="#fff" d="M23.37 19.867c-.125-.472-.293-1.426.445-1.448.58-.017.857.838 1.013 1.267l.04-2.915c-.005-.57.333-2.44 1.03-1.227.262.456.16 1.188.094 1.682.386-.186.855.01 1.045.386.613-.178 1.165.038 1.3.695 1.59-.086 1.013 2.002.374 2.778-.97 1.18-3.068.943-4.31.275-.598-.322-.816-.928-1.064-1.535"/><g fill="#293f54"><path d="M26.037 18.85c-.104 0-.188-.084-.188-.188v-1.425c0-.104.084-.188.188-.188h.558c.412 0 .746.334.746.746 0 .104-.084.188-.188.188s-.188-.084-.188-.188a.37.37 0 0 0-.371-.371h-.37v1.238c0 .103-.084.188-.187.188zm2.663 4.824h-2.397c-.104 0-.188-.084-.188-.188s.083-.188.188-.188h2.246l.128-.452a10.6 10.6 0 0 0 .518-3.06c.002-.104.093-.2.192-.182.104.002.186.1.183.192a11.26 11.26 0 0 1-.535 3.166 5.15 5.15 0 0 0-.149.56.19.19 0 0 1-.186.153z"/><path d="M25.12 23.674c-.1 0-.17-.064-.185-.155-.002-.01-.182-.998-.822-1.713-.177-.197-.343-.427-.497-.683a3.93 3.93 0 0 1-.546-2 .85.85 0 0 1 .85-.849c.35 0 .667.22.792.544l.022.057v-3.12c0-.412.334-.746.746-.746s.745.334.745.746v1.482c0 .104-.084.188-.188.188s-.188-.084-.188-.188v-1.482a.37.37 0 1 0-.74 0v4.132a.18.18 0 0 1-.154.184c-.09.016-.177-.032-.2-.117l-.385-1c-.07-.182-.248-.304-.442-.304-.262 0-.475.213-.475.474 0 .644.17 1.27.493 1.8.142.236.294.447.454.625.714.797.904 1.854.912 1.898.02.102-.05.2-.15.217-.01.002-.022.003-.032.003zm3.15-3.924c-.104 0-.188-.084-.188-.188v-1.35a.37.37 0 0 0-.371-.37h-.37v1.237c0 .104-.084.188-.188.188s-.188-.084-.188-.188v-1.425c0-.104.084-.188.188-.188h.558c.412 0 .746.334.746.746v1.35c.001.105-.083.188-.187.188z"/><path d="M29.385 19.98c-.104 0-.188-.084-.188-.188v-.868a.37.37 0 0 0-.37-.37h-.56c-.104 0-.188-.084-.188-.188s.084-.188.188-.188h.56a.75.75 0 0 1 .746.746v.868c.001.104-.084.188-.188.188zm-.377 6.162H24.68c-.104 0-.188-.084-.188-.188v-1.718c0-.104.084-.188.188-.188h4.328c.104 0 .188.084.188.188v1.718c0 .104-.084.188-.188.188zm-4.14-.375h3.952v-1.342h-3.95v1.342zm3.178-.322a.35.35 0 0 1-.35-.35.35.35 0 0 1 .35-.349.35.35 0 0 1 .349.349.35.35 0 0 1-.349.35zm0-.376c-.015 0-.026.012-.026.026 0 .03.052.03.052 0 0-.014-.01-.026-.026-.026zm-17.442-8.566c0 .242-.192.382-.56.382H9.32v-1.4h.684c.35 0 .53.146.53.364 0 .14-.07.248-.186.308.157.05.256.17.256.345zm-.96-.773v.33h.322c.158 0 .244-.056.244-.166s-.086-.164-.244-.164h-.322zm.635.74c0-.118-.1-.174-.258-.174h-.377v.346h.378c.167 0 .257-.053.257-.172z"/><use xlink:href="#B"/><use xlink:href="#B" x="1.686"/><path d="M14.736 16.335l-.188.196v.354h-.32v-1.4h.32v.654l.62-.654h.36l-.58.624.613.775h-.378l-.447-.55zm2.82-.85v1.4h-.266l-.698-.85v.85h-.32v-1.4h.268l.695.85v-.85h.32z"/><use xlink:href="#B" x="7.038"/><path d="M21.646 15.486l-.457 1.4h-.348l-.3-.947-.317.947h-.345l-.46-1.4h.336l.315.984.33-.984h.3l.32.992.325-.992h.3zm.154 1.234c0-.102.08-.178.192-.178s.2.076.2.178-.08.182-.2.182-.192-.082-.192-.182zm.005-1.233h.372l-.062.914h-.248l-.062-.914z"/></g><defs ><path id="B" d="M10.764 16.186c0-.416.323-.724.766-.724s.766.306.766.724-.326.724-.766.724-.766-.308-.766-.724zm1.203 0c0-.266-.188-.448-.438-.448s-.438.182-.438.448.188.448.438.448.438-.182.438-.448z"/></defs></svg>