<svg xmlns="http://www.w3.org/2000/svg" width="33" height="29" viewBox="0 0 32.129 28.567"><style><![CDATA[.B{stroke-miterlimit:10}.C{stroke-width:.454}.D{stroke-linejoin:round}.E{stroke-linecap:round}]]></style><g fill="none" stroke="#293f54" stroke-width=".567" class="B"><path d="M31.846 27.284a1 1 0 0 1-1 1H1.283a1 1 0 0 1-1-1v-26a1 1 0 0 1 1-1h29.563a1 1 0 0 1 1 1v26z"/><path d="M.096 7.22h31.687"/></g><g fill="#00b1cc"><circle cx="2.846" cy="3.846" r=".813"/><circle cx="6.846" cy="3.846" r=".813"/><circle cx="10.846" cy="3.846" r=".813"/></g><g fill="#293f54"><circle cx="16.221" cy="3.846" r=".5"/><circle cx="18.745" cy="3.846" r=".5"/><circle cx="21.27" cy="3.846" r=".5"/><circle cx="23.795" cy="3.846" r=".5"/><circle cx="26.32" cy="3.846" r=".5"/><circle cx="28.846" cy="3.846" r=".5"/></g><text transform="translate(12.039 18.358)" fill="#ffc500" font-family="'Montserrat-Bold'" font-size="6.026">$</text><g fill="none" stroke="#293f54" class="C D"><g class="B E"><path d="M18.77 21.342l-1.263-.793.3-.494c.17-.273.53-.356.804-.185m3.012-.863c.922.612 1.754 1.352 2.466 2.2l.322.395m-5.187 1.4l-1.102-.216c-.28-.056-.566.068-.72.3a.69.69 0 0 0 .218.955 3.89 3.89 0 0 0 1.978.6 4.38 4.38 0 0 0 .845-.058c1.06-.18 1.977.17 1.977.17m-4.922-4.223l-1.313-.825c-.272-.17-.634-.1-.806.184s-.1.634.184.806l2.083 1.307"/><path d="M19.762 20.585l-1.263-.793.3-.494c.172-.273.53-.355.805-.184l1.198.752m-1.05-.666l.3-.495c.172-.273.53-.355.805-.184l.77.483m2.405 7.336l-1.077-.695 2.4-3.834 1.076.694"/></g><circle cx="23.236" cy="25.246" r=".112"/><path d="M14.58 22.7a6.25 6.25 0 0 1-2.006-12.309 6.25 6.25 0 0 1 7.483 4.699c.077.34.127.682.146 1.02" class="B E"/></g><path fill="#ffc500" d="M8.38 16.322c0 1.998 1.078 3.775 2.708 4.738-.907-1.237-1.424-2.658-1.424-4.17 0-2.313 1.208-4.414 3.18-5.968-2.54.486-4.463 2.72-4.463 5.4z"/></svg>