<svg xmlns="http://www.w3.org/2000/svg" width="33" height="29" viewBox="0 0 32.13 28.566"><g fill="none" stroke="#293f54" stroke-width=".567" stroke-miterlimit="10"><path d="M31.846 27.283a1 1 0 0 1-1 1H1.284a1 1 0 0 1-1-1v-26a1 1 0 0 1 1-1h29.563a1 1 0 0 1 1 1v26z"/><path d="M.096 7.22h31.688"/></g><g fill="#00b1cc"><circle cx="2.846" cy="3.846" r=".813"/><circle cx="6.846" cy="3.846" r=".813"/><circle cx="10.846" cy="3.846" r=".813"/></g><g fill="#293f54"><circle cx="16.221" cy="3.846" r=".5"/><circle cx="18.747" cy="3.846" r=".5"/><circle cx="21.272" cy="3.846" r=".5"/><circle cx="23.797" cy="3.846" r=".5"/><circle cx="26.322" cy="3.846" r=".5"/><circle cx="28.846" cy="3.846" r=".5"/></g><path fill="#ffc500" d="M25.063 11.633v1.608l-8.733 4.472-8.735-4.472v-1.608a.47.47 0 0 1 .187-.374l8.548 4.374 8.547-4.374a.47.47 0 0 1 .186.374z"/><g fill="#293f54"><path d="M24.592 24.493H8.066a.7.7 0 0 1-.7-.7v-12.16a.7.7 0 0 1 .7-.7h16.526a.7.7 0 0 1 .7.7v12.16a.7.7 0 0 1-.7.7zm-16.526-13.1c-.134 0-.242.108-.242.242v12.16c0 .133.108.242.242.242h16.526c.133 0 .242-.11.242-.242v-12.16c0-.134-.11-.242-.242-.242H8.066z"/><path d="M16.33 17.97L7.5 13.446l.2-.408 8.63 4.418 8.63-4.418.208.408zm0 1.336c-.197 0-.395-.048-.57-.138l-2.176-1.113a.23.23 0 0 1-.099-.309.23.23 0 0 1 .308-.1l2.175 1.114c.223.113.5.113.724 0l2.175-1.114c.112-.058.25-.013.308.1a.23.23 0 0 1-.099.309L16.9 19.168a1.14 1.14 0 0 1-.57.138z"/></g></svg>