<?xml version="1.0" encoding="utf-8"?>
<!-- Generator: Adobe Illustrator 16.0.0, SVG Export Plug-In . SVG Version: 6.00 Build 0)  -->
<!DOCTYPE svg PUBLIC "-//W3C//DTD SVG 1.1//EN" "http://www.w3.org/Graphics/SVG/1.1/DTD/svg11.dtd">
<svg version="1.1" xmlns="http://www.w3.org/2000/svg" xmlns:xlink="http://www.w3.org/1999/xlink" x="0px" y="0px" width="32.13px"
	 height="28.567px" viewBox="0 0 32.13 28.567" enable-background="new 0 0 32.13 28.567" xml:space="preserve">
<g id="Layer_1">
	<g>
		<g>
			<path fill="none" stroke="#293F54" stroke-width="0.5669" stroke-miterlimit="10" d="M31.846,27.284c0,0.552-0.448,1-1,1H1.284
				c-0.552,0-1-0.448-1-1v-26c0-0.552,0.448-1,1-1h29.563c0.552,0,1,0.448,1,1V27.284z"/>
			
				<line fill="none" stroke="#293F54" stroke-width="0.5669" stroke-miterlimit="10" x1="0.096" y1="7.221" x2="31.784" y2="7.221"/>
			<circle fill="#00B1CC" cx="2.846" cy="3.846" r="0.813"/>
			<circle fill="#00B1CC" cx="6.846" cy="3.846" r="0.813"/>
			<circle fill="#00B1CC" cx="10.846" cy="3.846" r="0.813"/>
			<circle fill="#293F54" cx="16.221" cy="3.846" r="0.5"/>
			<circle fill="#293F54" cx="18.746" cy="3.846" r="0.5"/>
			<circle fill="#293F54" cx="21.271" cy="3.846" r="0.5"/>
			<circle fill="#293F54" cx="23.796" cy="3.846" r="0.5"/>
			<circle fill="#293F54" cx="26.321" cy="3.846" r="0.5"/>
			<circle fill="#293F54" cx="28.846" cy="3.846" r="0.5"/>
		</g>
	</g>
	<g>
		
			<path fill="none" stroke="#293F54" stroke-width="0.454" stroke-linecap="round" stroke-linejoin="round" stroke-miterlimit="10" d="
			M25.065,12.307c0,0.534-0.436,0.966-0.973,0.966H8.038c-0.537,0-0.973-0.433-0.973-0.966V9.812c0-0.534,0.436-0.966,0.973-0.966
			h16.054c0.537,0,0.973,0.433,0.973,0.966V12.307z"/>
		<g>
			<path fill="#293F54" d="M12.828,11.915v-0.146c-0.169-0.027-0.325-0.104-0.468-0.23l0.186-0.226
				c0.104,0.09,0.198,0.148,0.282,0.174v-0.298c-0.14-0.036-0.243-0.084-0.308-0.145s-0.098-0.148-0.098-0.262
				c0-0.114,0.038-0.208,0.112-0.282c0.075-0.074,0.172-0.119,0.294-0.133v-0.098h0.212v0.102c0.133,0.019,0.266,0.074,0.398,0.166
				l-0.164,0.236c-0.084-0.06-0.162-0.1-0.234-0.12v0.288c0.144,0.037,0.25,0.087,0.319,0.15c0.069,0.063,0.103,0.151,0.103,0.266
				s-0.038,0.209-0.115,0.284c-0.077,0.075-0.179,0.12-0.307,0.134v0.14H12.828z M12.828,10.645c-0.058,0.02-0.086,0.057-0.086,0.11
				s0.028,0.094,0.086,0.122V10.645z M13.142,11.373c0-0.028-0.007-0.051-0.022-0.07c-0.015-0.019-0.042-0.036-0.08-0.052v0.246
				C13.107,11.475,13.142,11.434,13.142,11.373z"/>
			<path fill="#293F54" d="M14.219,11.309v-0.266h0.712v0.266H14.219z"/>
			<path fill="#293F54" d="M16.136,11.416c0.052,0.064,0.122,0.097,0.21,0.097s0.158-0.032,0.209-0.097
				c0.051-0.065,0.077-0.153,0.077-0.265v-0.772h0.312v0.782c0,0.203-0.056,0.358-0.168,0.467c-0.112,0.108-0.255,0.163-0.43,0.163
				s-0.318-0.055-0.431-0.164c-0.112-0.109-0.169-0.265-0.169-0.466v-0.782h0.312v0.772C16.058,11.262,16.084,11.351,16.136,11.416z
				"/>
			<path fill="#293F54" d="M17.595,10.657c-0.03,0.025-0.045,0.058-0.045,0.098s0.018,0.073,0.055,0.097
				c0.037,0.024,0.122,0.052,0.254,0.085c0.132,0.033,0.235,0.082,0.309,0.147c0.074,0.065,0.11,0.161,0.11,0.286
				c0,0.125-0.047,0.227-0.141,0.305c-0.094,0.078-0.218,0.117-0.371,0.117c-0.221,0-0.42-0.082-0.598-0.246l0.186-0.228
				c0.151,0.132,0.29,0.198,0.418,0.198c0.058,0,0.103-0.013,0.135-0.037c0.033-0.025,0.049-0.058,0.049-0.1s-0.017-0.075-0.052-0.1
				c-0.035-0.024-0.104-0.05-0.206-0.075c-0.163-0.039-0.282-0.089-0.357-0.151c-0.076-0.062-0.113-0.159-0.113-0.292
				c0-0.132,0.048-0.235,0.143-0.307c0.095-0.072,0.214-0.108,0.357-0.108c0.093,0,0.187,0.016,0.28,0.048
				c0.093,0.032,0.174,0.077,0.244,0.136l-0.158,0.228c-0.122-0.092-0.247-0.138-0.376-0.138
				C17.666,10.621,17.625,10.633,17.595,10.657z"/>
			<path fill="#293F54" d="M19.612,10.562c0.133,0.122,0.2,0.292,0.2,0.509s-0.065,0.389-0.195,0.516
				c-0.13,0.126-0.329,0.19-0.595,0.19h-0.478v-1.398h0.494C19.287,10.378,19.478,10.439,19.612,10.562z M19.383,11.393
				c0.077-0.072,0.115-0.177,0.115-0.314c0-0.137-0.038-0.243-0.115-0.317c-0.077-0.074-0.194-0.111-0.353-0.111h-0.174v0.85h0.198
				C19.196,11.5,19.306,11.464,19.383,11.393z"/>
		</g>
		<g>
			<path fill="#293F54" d="M12.877,16.073v0.218h0.312v0.252h-0.312v0.28h0.556v0.266h-1.022v-0.266h0.152v-0.28h-0.16v-0.252h0.16
				v-0.206c0-0.166,0.042-0.286,0.127-0.361c0.085-0.075,0.196-0.113,0.333-0.113c0.184,0,0.324,0.084,0.42,0.252l-0.222,0.18
				c-0.021-0.049-0.049-0.088-0.082-0.116c-0.033-0.028-0.07-0.042-0.11-0.042s-0.076,0.015-0.106,0.045
				C12.893,15.96,12.877,16.007,12.877,16.073z"/>
			<path fill="#293F54" d="M14.206,16.621v-0.266h0.712v0.266H14.206z"/>
			<path fill="#293F54" d="M16.66,16.377h0.314v0.496c-0.139,0.154-0.331,0.232-0.576,0.232c-0.205,0-0.377-0.068-0.517-0.204
				c-0.139-0.136-0.209-0.308-0.209-0.515c0-0.207,0.071-0.38,0.213-0.519c0.142-0.139,0.313-0.208,0.514-0.208
				s0.375,0.066,0.523,0.198l-0.162,0.234c-0.063-0.055-0.121-0.092-0.173-0.113c-0.053-0.021-0.109-0.031-0.171-0.031
				c-0.119,0-0.219,0.041-0.3,0.121c-0.082,0.081-0.122,0.187-0.122,0.319c0,0.132,0.039,0.238,0.117,0.317
				c0.078,0.079,0.171,0.119,0.279,0.119s0.198-0.021,0.27-0.062V16.377z"/>
			<path fill="#293F54" d="M18.214,15.816c0.098,0.083,0.147,0.211,0.147,0.384c0,0.173-0.051,0.299-0.151,0.379
				c-0.101,0.08-0.254,0.12-0.461,0.12h-0.186v0.39h-0.312v-1.398h0.494C17.96,15.691,18.117,15.732,18.214,15.816z M17.985,16.366
				c0.038-0.042,0.056-0.103,0.056-0.184c0-0.081-0.024-0.138-0.073-0.172c-0.049-0.034-0.125-0.051-0.227-0.051h-0.178v0.47h0.21
				C17.877,16.429,17.948,16.408,17.985,16.366z"/>
			<path fill="#293F54" d="M19.218,17.089h-0.612v-1.398h0.544c0.095,0,0.176,0.011,0.245,0.034
				c0.069,0.022,0.121,0.053,0.155,0.092c0.063,0.072,0.094,0.153,0.094,0.244c0,0.109-0.035,0.19-0.106,0.244
				c-0.024,0.019-0.041,0.031-0.05,0.035c-0.01,0.005-0.026,0.012-0.05,0.023c0.087,0.019,0.156,0.058,0.207,0.117
				c0.051,0.059,0.077,0.133,0.077,0.221c0,0.098-0.033,0.184-0.1,0.258C19.544,17.045,19.41,17.089,19.218,17.089z M18.917,16.257
				h0.148c0.087,0,0.151-0.009,0.193-0.028s0.063-0.059,0.063-0.121s-0.02-0.103-0.058-0.123s-0.104-0.03-0.196-0.03h-0.15V16.257z
				 M18.917,16.825h0.214c0.089,0,0.156-0.011,0.201-0.033c0.045-0.022,0.067-0.065,0.067-0.13c0-0.065-0.023-0.107-0.071-0.128
				c-0.047-0.021-0.123-0.031-0.227-0.031h-0.184V16.825z"/>
		</g>
		<g>
			<path fill="#00B1CC" d="M12.828,20.852v-0.146c-0.169-0.027-0.325-0.104-0.468-0.23l0.186-0.226
				c0.104,0.09,0.198,0.148,0.282,0.174v-0.298c-0.14-0.036-0.243-0.084-0.308-0.145s-0.098-0.148-0.098-0.262
				c0-0.114,0.038-0.208,0.112-0.282c0.075-0.074,0.172-0.119,0.294-0.133v-0.098h0.212v0.102c0.133,0.019,0.266,0.074,0.398,0.166
				l-0.164,0.236c-0.084-0.06-0.162-0.1-0.234-0.12v0.288c0.144,0.037,0.25,0.087,0.319,0.15c0.069,0.063,0.103,0.151,0.103,0.266
				s-0.038,0.209-0.115,0.284c-0.077,0.075-0.179,0.12-0.307,0.134v0.14H12.828z M12.828,19.582c-0.058,0.02-0.086,0.057-0.086,0.11
				s0.028,0.094,0.086,0.122V19.582z M13.142,20.31c0-0.028-0.007-0.051-0.022-0.07c-0.015-0.019-0.042-0.036-0.08-0.052v0.246
				C13.107,20.413,13.142,20.371,13.142,20.31z"/>
			<path fill="#00B1CC" d="M14.219,20.246V19.98h0.712v0.266H14.219z"/>
			<path fill="#00B1CC" d="M16.136,20.353c0.052,0.064,0.122,0.097,0.21,0.097s0.158-0.032,0.209-0.097
				c0.051-0.065,0.077-0.153,0.077-0.265v-0.772h0.312v0.782c0,0.203-0.056,0.358-0.168,0.467c-0.112,0.108-0.255,0.163-0.43,0.163
				s-0.318-0.055-0.431-0.164c-0.112-0.109-0.169-0.265-0.169-0.466v-0.782h0.312v0.772C16.058,20.2,16.084,20.288,16.136,20.353z"
				/>
			<path fill="#00B1CC" d="M17.595,19.595c-0.03,0.025-0.045,0.058-0.045,0.098s0.018,0.073,0.055,0.097
				c0.037,0.024,0.122,0.052,0.254,0.085c0.132,0.033,0.235,0.082,0.309,0.147c0.074,0.065,0.11,0.161,0.11,0.286
				c0,0.125-0.047,0.227-0.141,0.305c-0.094,0.078-0.218,0.117-0.371,0.117c-0.221,0-0.42-0.082-0.598-0.246l0.186-0.228
				c0.151,0.132,0.29,0.198,0.418,0.198c0.058,0,0.103-0.013,0.135-0.037c0.033-0.025,0.049-0.058,0.049-0.1s-0.017-0.075-0.052-0.1
				c-0.035-0.024-0.104-0.05-0.206-0.075c-0.163-0.039-0.282-0.089-0.357-0.151c-0.076-0.062-0.113-0.159-0.113-0.292
				c0-0.132,0.048-0.235,0.143-0.307c0.095-0.072,0.214-0.108,0.357-0.108c0.093,0,0.187,0.016,0.28,0.048
				c0.093,0.032,0.174,0.077,0.244,0.136l-0.158,0.228c-0.122-0.092-0.247-0.138-0.376-0.138
				C17.666,19.558,17.625,19.57,17.595,19.595z"/>
			<path fill="#00B1CC" d="M19.612,19.499c0.133,0.122,0.2,0.292,0.2,0.509s-0.065,0.389-0.195,0.516
				c-0.13,0.126-0.329,0.19-0.595,0.19h-0.478v-1.398h0.494C19.287,19.316,19.478,19.377,19.612,19.499z M19.383,20.33
				c0.077-0.072,0.115-0.177,0.115-0.314c0-0.137-0.038-0.243-0.115-0.317c-0.077-0.074-0.194-0.111-0.353-0.111h-0.174v0.85h0.198
				C19.196,20.438,19.306,20.402,19.383,20.33z"/>
		</g>
		<g>
			<path fill="#293F54" d="M12.379,23.329v-0.168h0.194c0.04-0.152,0.116-0.273,0.229-0.365c0.112-0.091,0.25-0.137,0.411-0.137
				c0.2,0,0.372,0.081,0.514,0.242l-0.178,0.232c-0.098-0.119-0.212-0.178-0.344-0.178c-0.149,0-0.252,0.068-0.31,0.206h0.466v0.168
				h-0.502c-0.001,0.013-0.002,0.033-0.002,0.06c0,0.027,0.001,0.046,0.002,0.058h0.502v0.168h-0.456
				c0.032,0.063,0.076,0.111,0.131,0.144s0.116,0.05,0.183,0.05c0.132,0,0.24-0.053,0.324-0.158l0.184,0.204
				c-0.072,0.084-0.155,0.146-0.249,0.188c-0.094,0.041-0.188,0.062-0.281,0.062c-0.151,0-0.282-0.044-0.394-0.133
				c-0.112-0.088-0.189-0.208-0.23-0.357h-0.194v-0.168h0.168c-0.001-0.012-0.002-0.031-0.002-0.058c0-0.026,0.001-0.046,0.002-0.06
				H12.379z"/>
			<path fill="#293F54" d="M14.481,23.621v-0.266h0.712v0.266H14.481z"/>
			<path fill="#293F54" d="M17.036,22.691v0.278h-0.696v0.288h0.626v0.266h-0.626v0.29h0.718v0.276h-1.03v-1.398H17.036z"/>
			<path fill="#293F54" d="M17.706,23.728c0.052,0.064,0.122,0.097,0.21,0.097s0.158-0.032,0.209-0.097
				c0.051-0.065,0.077-0.153,0.077-0.265v-0.772h0.312v0.782c0,0.203-0.056,0.358-0.168,0.467c-0.112,0.108-0.255,0.163-0.43,0.163
				s-0.318-0.055-0.431-0.164c-0.112-0.109-0.169-0.265-0.169-0.466v-0.782h0.312v0.772C17.627,23.575,17.654,23.663,17.706,23.728z
				"/>
			<path fill="#293F54" d="M19.972,23.155c0,0.224-0.089,0.369-0.266,0.434l0.354,0.5h-0.384l-0.31-0.446h-0.216v0.446h-0.312
				v-1.398h0.53c0.217,0,0.372,0.037,0.465,0.11S19.972,22.992,19.972,23.155z M19.596,23.321c0.039-0.035,0.058-0.089,0.058-0.165
				c0-0.075-0.02-0.127-0.06-0.155c-0.04-0.028-0.11-0.042-0.21-0.042h-0.234v0.414h0.228
				C19.484,23.373,19.557,23.355,19.596,23.321z"/>
			<path fill="#293F54" d="M21.454,23.896c-0.142,0.138-0.315,0.207-0.522,0.207c-0.207,0-0.381-0.069-0.522-0.207
				c-0.142-0.138-0.212-0.31-0.212-0.515c0-0.205,0.071-0.377,0.212-0.515c0.141-0.138,0.315-0.207,0.522-0.207
				c0.207,0,0.38,0.069,0.522,0.207c0.141,0.138,0.212,0.31,0.212,0.515C21.666,23.586,21.595,23.758,21.454,23.896z M21.348,23.382
				c0-0.125-0.04-0.231-0.12-0.319s-0.178-0.132-0.295-0.132s-0.215,0.044-0.295,0.132c-0.08,0.088-0.12,0.194-0.12,0.319
				s0.04,0.231,0.12,0.318c0.08,0.087,0.178,0.131,0.295,0.131s0.215-0.044,0.295-0.131C21.308,23.613,21.348,23.506,21.348,23.382z
				"/>
		</g>
		<g>
			<rect x="8.646" y="10.246" fill="#F0F0F0" width="2.52" height="1.68"/>
			<g>
				<rect x="8.646" y="10.448" fill="#D80027" width="2.52" height="0.21"/>
				<rect x="8.646" y="10.868" fill="#D80027" width="2.52" height="0.21"/>
				<rect x="8.646" y="11.289" fill="#D80027" width="2.52" height="0.21"/>
				<rect x="8.646" y="11.708" fill="#D80027" width="2.52" height="0.209"/>
			</g>
			<rect x="8.646" y="10.238" fill="#2E52B2" width="1.26" height="0.905"/>
			<g>
				<polygon fill="#F0F0F0" points="9.138,10.609 9.118,10.671 9.052,10.671 9.105,10.71 9.085,10.772 9.138,10.734 9.191,10.772 
					9.171,10.71 9.224,10.671 9.158,10.671 				"/>
				<polygon fill="#F0F0F0" points="9.158,10.897 9.138,10.834 9.118,10.897 9.052,10.897 9.105,10.935 9.085,10.998 9.138,10.959 
					9.191,10.998 9.171,10.935 9.224,10.897 				"/>
				<polygon fill="#F0F0F0" points="8.88,10.897 8.86,10.834 8.84,10.897 8.774,10.897 8.828,10.935 8.807,10.998 8.86,10.959 
					8.914,10.998 8.894,10.935 8.946,10.897 				"/>
				<polygon fill="#F0F0F0" points="8.86,10.609 8.84,10.671 8.774,10.671 8.828,10.71 8.807,10.772 8.86,10.734 8.914,10.772 
					8.894,10.71 8.946,10.671 8.88,10.671 				"/>
				<polygon fill="#F0F0F0" points="9.138,10.384 9.118,10.446 9.052,10.446 9.105,10.485 9.085,10.547 9.138,10.509 9.191,10.547 
					9.171,10.485 9.224,10.446 9.158,10.446 				"/>
				<polygon fill="#F0F0F0" points="8.86,10.384 8.84,10.446 8.774,10.446 8.828,10.485 8.807,10.547 8.86,10.509 8.914,10.547 
					8.894,10.485 8.946,10.446 8.88,10.446 				"/>
				<polygon fill="#F0F0F0" points="9.416,10.609 9.395,10.671 9.33,10.671 9.382,10.71 9.362,10.772 9.416,10.734 9.468,10.772 
					9.448,10.71 9.501,10.671 9.436,10.671 				"/>
				<polygon fill="#F0F0F0" points="9.436,10.897 9.416,10.834 9.395,10.897 9.33,10.897 9.382,10.935 9.362,10.998 9.416,10.959 
					9.468,10.998 9.448,10.935 9.501,10.897 				"/>
				<polygon fill="#F0F0F0" points="9.713,10.897 9.693,10.834 9.673,10.897 9.607,10.897 9.66,10.935 9.64,10.998 9.693,10.959 
					9.746,10.998 9.726,10.935 9.778,10.897 				"/>
				<polygon fill="#F0F0F0" points="9.693,10.609 9.673,10.671 9.607,10.671 9.66,10.71 9.64,10.772 9.693,10.734 9.746,10.772 
					9.726,10.71 9.778,10.671 9.713,10.671 				"/>
				<polygon fill="#F0F0F0" points="9.416,10.384 9.395,10.446 9.33,10.446 9.382,10.485 9.362,10.547 9.416,10.509 9.468,10.547 
					9.448,10.485 9.501,10.446 9.436,10.446 				"/>
				<polygon fill="#F0F0F0" points="9.693,10.384 9.673,10.446 9.607,10.446 9.66,10.485 9.64,10.547 9.693,10.509 9.746,10.547 
					9.726,10.485 9.778,10.446 9.713,10.446 				"/>
			</g>
		</g>
		<g>
			<rect x="8.688" y="19.032" fill="#F0F0F0" width="2.52" height="1.68"/>
			<g>
				<rect x="8.688" y="19.234" fill="#D80027" width="2.52" height="0.21"/>
				<rect x="8.688" y="19.654" fill="#D80027" width="2.52" height="0.21"/>
				<rect x="8.688" y="20.074" fill="#D80027" width="2.52" height="0.21"/>
				<rect x="8.688" y="20.494" fill="#D80027" width="2.52" height="0.21"/>
			</g>
			<rect x="8.688" y="19.024" fill="#2E52B2" width="1.26" height="0.904"/>
			<g>
				<polygon fill="#F0F0F0" points="9.18,19.394 9.16,19.457 9.094,19.457 9.147,19.496 9.127,19.558 9.18,19.519 9.233,19.558 
					9.213,19.496 9.266,19.457 9.2,19.457 				"/>
				<polygon fill="#F0F0F0" points="9.2,19.682 9.18,19.62 9.16,19.682 9.094,19.682 9.147,19.72 9.127,19.784 9.18,19.745 
					9.233,19.784 9.213,19.72 9.266,19.682 				"/>
				<polygon fill="#F0F0F0" points="8.922,19.682 8.902,19.62 8.882,19.682 8.816,19.682 8.87,19.72 8.849,19.784 8.902,19.745 
					8.956,19.784 8.936,19.72 8.988,19.682 				"/>
				<polygon fill="#F0F0F0" points="8.902,19.394 8.882,19.457 8.816,19.457 8.87,19.496 8.849,19.558 8.902,19.519 8.956,19.558 
					8.936,19.496 8.988,19.457 8.922,19.457 				"/>
				<polygon fill="#F0F0F0" points="9.18,19.169 9.16,19.232 9.094,19.232 9.147,19.27 9.127,19.333 9.18,19.294 9.233,19.333 
					9.213,19.27 9.266,19.232 9.2,19.232 				"/>
				<polygon fill="#F0F0F0" points="8.902,19.169 8.882,19.232 8.816,19.232 8.87,19.27 8.849,19.333 8.902,19.294 8.956,19.333 
					8.936,19.27 8.988,19.232 8.922,19.232 				"/>
				<polygon fill="#F0F0F0" points="9.458,19.394 9.437,19.457 9.372,19.457 9.424,19.496 9.404,19.558 9.458,19.519 9.51,19.558 
					9.49,19.496 9.543,19.457 9.478,19.457 				"/>
				<polygon fill="#F0F0F0" points="9.478,19.682 9.458,19.62 9.437,19.682 9.372,19.682 9.424,19.72 9.404,19.784 9.458,19.745 
					9.51,19.784 9.49,19.72 9.543,19.682 				"/>
				<polygon fill="#F0F0F0" points="9.755,19.682 9.735,19.62 9.715,19.682 9.649,19.682 9.702,19.72 9.682,19.784 9.735,19.745 
					9.788,19.784 9.768,19.72 9.82,19.682 				"/>
				<polygon fill="#F0F0F0" points="9.735,19.394 9.715,19.457 9.649,19.457 9.702,19.496 9.682,19.558 9.735,19.519 9.788,19.558 
					9.768,19.496 9.82,19.457 9.755,19.457 				"/>
				<polygon fill="#F0F0F0" points="9.458,19.169 9.437,19.232 9.372,19.232 9.424,19.27 9.404,19.333 9.458,19.294 9.51,19.333 
					9.49,19.27 9.543,19.232 9.478,19.232 				"/>
				<polygon fill="#F0F0F0" points="9.735,19.169 9.715,19.232 9.649,19.232 9.702,19.27 9.682,19.333 9.735,19.294 9.788,19.333 
					9.768,19.27 9.82,19.232 9.755,19.232 				"/>
			</g>
		</g>
		
			<polyline fill="none" stroke="#293F54" stroke-width="0.1831" stroke-linecap="round" stroke-linejoin="round" stroke-miterlimit="10" points="
			23.532,11.586 22.605,10.605 21.754,11.596 		"/>
		
			<path fill="none" stroke="#00B1CC" stroke-width="0.454" stroke-linecap="round" stroke-linejoin="round" stroke-miterlimit="10" d="
			M25.065,25.313c0,0.572-0.467,1.036-1.043,1.036H8.108c-0.576,0-1.043-0.463-1.043-1.036V15.277c0-0.572,0.467-1.036,1.043-1.036
			h15.913c0.576,0,1.043,0.463,1.043,1.036V25.313z"/>
		<path fill="#41479B" d="M11.128,17.145H8.695c-0.024,0-0.043-0.02-0.043-0.043v-1.564c0-0.024,0.019-0.043,0.043-0.043h2.433
			c0.024,0,0.043,0.02,0.043,0.043v1.564C11.171,17.125,11.152,17.145,11.128,17.145z"/>
		<path fill="#F5F5F5" d="M11.171,15.537c0-0.024-0.019-0.043-0.043-0.043h-0.194l-0.805,0.527v-0.527H9.694v0.527L8.89,15.493
			H8.695c-0.024,0-0.043,0.02-0.043,0.043v0.112l0.69,0.453h-0.69v0.435h0.69l-0.69,0.453v0.112c0,0.024,0.019,0.043,0.043,0.043
			H8.89l0.805-0.527v0.527h0.435v-0.527l0.805,0.527h0.194c0.024,0,0.043-0.02,0.043-0.043v-0.112l-0.69-0.453h0.69v-0.435h-0.69
			l0.69-0.453V15.537z"/>
		<g>
			<polygon fill="#FF4B55" points="11.171,16.188 10.042,16.188 10.042,15.493 9.781,15.493 9.781,16.188 8.652,16.188 
				8.652,16.449 9.781,16.449 9.781,17.145 10.042,17.145 10.042,16.449 11.171,16.449 			"/>
			<path fill="#FF4B55" d="M9.532,16.536l-0.879,0.571c0.003,0.021,0.021,0.038,0.042,0.038h0.06l0.937-0.608H9.532L9.532,16.536z"
				/>
			<path fill="#FF4B55" d="M10.356,16.536h-0.16l0.936,0.607c0.021-0.002,0.039-0.02,0.039-0.042v-0.036L10.356,16.536z"/>
			<path fill="#FF4B55" d="M8.652,15.585l0.796,0.517h0.16l-0.931-0.604c-0.015,0.007-0.025,0.022-0.025,0.039V15.585z"/>
			<path fill="#FF4B55" d="M10.289,16.102l0.881-0.572c-0.003-0.021-0.021-0.036-0.042-0.036h-0.062l-0.937,0.608H10.289z"/>
		</g>
		<g>
			<path fill="#41479B" d="M11.121,24.242H8.688c-0.024,0-0.043-0.02-0.043-0.043v-1.564c0-0.024,0.019-0.043,0.043-0.043h2.433
				c0.024,0,0.043,0.02,0.043,0.043v1.564C11.165,24.223,11.146,24.242,11.121,24.242z"/>
			<g>
				<path fill="#FFE15A" d="M9.912,22.783l0.017,0.052l0.055,0c0.007,0,0.01,0.009,0.004,0.013L9.944,22.88l0.017,0.052
					c0.002,0.007-0.006,0.012-0.011,0.008l-0.044-0.032l-0.044,0.032c-0.006,0.004-0.014-0.001-0.012-0.008l0.017-0.052
					l-0.044-0.032c-0.005-0.004-0.002-0.013,0.004-0.013l0.055,0l0.017-0.052C9.9,22.776,9.91,22.776,9.912,22.783z"/>
				<path fill="#FFE15A" d="M9.912,23.895l0.017,0.052h0.055c0.007,0,0.01,0.009,0.004,0.014l-0.044,0.032l0.017,0.052
					c0.002,0.007-0.006,0.012-0.011,0.008l-0.044-0.032l-0.044,0.032c-0.006,0.004-0.014-0.001-0.012-0.008l0.017-0.052
					l-0.044-0.032c-0.005-0.004-0.002-0.013,0.004-0.014h0.055l0.017-0.052C9.9,23.889,9.91,23.889,9.912,23.895z"/>
				<path fill="#FFE15A" d="M10.468,23.339l0.018,0.052l0.054,0c0.007,0,0.01,0.009,0.004,0.013L10.5,23.437l0.017,0.052
					c0.002,0.007-0.005,0.013-0.011,0.008l-0.044-0.032l-0.044,0.032c-0.006,0.004-0.014-0.001-0.011-0.008l0.016-0.052
					l-0.044-0.033c-0.005-0.004-0.002-0.013,0.004-0.013l0.055,0l0.018-0.052C10.457,23.332,10.466,23.332,10.468,23.339z"/>
				<path fill="#FFE15A" d="M9.356,23.339l0.017,0.052l0.055,0c0.007,0,0.01,0.009,0.004,0.013l-0.044,0.033l0.016,0.052
					c0.002,0.007-0.005,0.013-0.011,0.008l-0.044-0.032l-0.044,0.032c-0.006,0.004-0.013-0.001-0.011-0.008l0.017-0.052
					l-0.044-0.033C9.26,23.4,9.263,23.391,9.27,23.391l0.055,0l0.017-0.052C9.344,23.332,9.354,23.332,9.356,23.339z"/>
				<path fill="#FFE15A" d="M9.439,23.048L9.457,23.1l0.055,0c0.007,0,0.01,0.009,0.004,0.013l-0.044,0.033l0.016,0.052
					c0.002,0.006-0.005,0.012-0.011,0.008l-0.044-0.032l-0.044,0.032c-0.005,0.004-0.013-0.001-0.011-0.008l0.017-0.052
					l-0.044-0.033c-0.006-0.004-0.003-0.013,0.004-0.013l0.055,0l0.017-0.052C9.428,23.042,9.437,23.042,9.439,23.048z"/>
				<path fill="#FFE15A" d="M10.403,23.605l0.017,0.052h0.055c0.007,0,0.01,0.009,0.004,0.014l-0.044,0.032l0.017,0.052
					c0.002,0.007-0.006,0.012-0.011,0.008l-0.044-0.032l-0.044,0.032c-0.006,0.004-0.014-0.001-0.011-0.008l0.016-0.052
					l-0.044-0.032c-0.005-0.004-0.002-0.013,0.004-0.014h0.055l0.017-0.052C10.391,23.598,10.4,23.598,10.403,23.605z"/>
				<path fill="#FFE15A" d="M10.199,22.845l0.017,0.052l0.055,0c0.007,0,0.01,0.009,0.004,0.013l-0.044,0.033l0.017,0.052
					c0.002,0.007-0.006,0.013-0.011,0.008l-0.044-0.032l-0.044,0.032c-0.006,0.004-0.014-0.001-0.012-0.008l0.017-0.052
					l-0.044-0.033c-0.005-0.004-0.002-0.013,0.004-0.013l0.055,0l0.017-0.052C10.188,22.838,10.197,22.838,10.199,22.845z"/>
				<path fill="#FFE15A" d="M9.643,23.809L9.66,23.86l0.055,0c0.007,0,0.01,0.009,0.004,0.013l-0.044,0.032l0.016,0.052
					c0.002,0.007-0.005,0.012-0.011,0.008l-0.044-0.032l-0.044,0.032c-0.005,0.004-0.013-0.001-0.011-0.008l0.017-0.052
					l-0.044-0.032c-0.006-0.004-0.003-0.013,0.004-0.013l0.055,0l0.017-0.052C9.631,23.802,9.641,23.802,9.643,23.809z"/>
				<path fill="#FFE15A" d="M10.389,23.048L10.372,23.1l-0.055,0c-0.007,0-0.01,0.009-0.004,0.013l0.044,0.033l-0.016,0.052
					c-0.002,0.006,0.005,0.012,0.011,0.008l0.044-0.032l0.044,0.032c0.005,0.004,0.013-0.001,0.011-0.008l-0.017-0.052l0.044-0.033
					c0.006-0.004,0.003-0.013-0.004-0.013l-0.055,0l-0.017-0.052C10.4,23.042,10.391,23.042,10.389,23.048z"/>
				<path fill="#FFE15A" d="M9.425,23.605l-0.017,0.052H9.354c-0.007,0-0.01,0.009-0.004,0.014l0.044,0.032l-0.017,0.052
					c-0.002,0.007,0.006,0.012,0.011,0.008l0.044-0.032l0.044,0.032c0.006,0.004,0.014-0.001,0.011-0.008l-0.016-0.052l0.044-0.032
					c0.005-0.004,0.002-0.013-0.004-0.014H9.457l-0.017-0.052C9.437,23.598,9.428,23.598,9.425,23.605z"/>
				<path fill="#FFE15A" d="M9.629,22.845l-0.017,0.052l-0.055,0c-0.007,0-0.01,0.009-0.004,0.013l0.044,0.033L9.58,22.995
					c-0.002,0.007,0.006,0.013,0.011,0.008l0.044-0.032l0.044,0.032c0.006,0.004,0.014-0.001,0.011-0.008l-0.016-0.052l0.044-0.033
					c0.005-0.004,0.002-0.013-0.004-0.013l-0.055,0l-0.017-0.052C9.641,22.838,9.631,22.838,9.629,22.845z"/>
				<path fill="#FFE15A" d="M10.185,23.809l-0.017,0.052l-0.055,0c-0.007,0-0.01,0.009-0.004,0.013l0.044,0.032l-0.017,0.052
					c-0.002,0.007,0.006,0.012,0.012,0.008l0.044-0.032l0.044,0.032c0.005,0.004,0.013-0.001,0.011-0.008l-0.017-0.052l0.044-0.032
					c0.006-0.004,0.003-0.013-0.004-0.013l-0.055,0l-0.017-0.052C10.197,23.802,10.188,23.802,10.185,23.809z"/>
			</g>
		</g>
	</g>
</g>
<g id="txt">
</g>
</svg>
