<svg xmlns="http://www.w3.org/2000/svg" width="33" height="29" viewBox="0 0 32.129 28.566"><style><![CDATA[.B{stroke-miterlimit:10}.C{stroke-linecap:round}.D{stroke-width:.454}.E{stroke-linejoin:round}]]></style><g fill="none" stroke="#293f54" stroke-width=".567" class="B"><path d="M31.846 27.283a1 1 0 0 1-1 1H1.283a1 1 0 0 1-1-1v-26a1 1 0 0 1 1-1h29.563a1 1 0 0 1 1 1v26z"/><path d="M.44 7.22h31.688"/></g><g fill="#00b1cc"><circle cx="3.189" cy="3.846" r=".813"/><circle cx="7.189" cy="3.846" r=".813"/><circle cx="11.189" cy="3.846" r=".813"/></g><g fill="#293f54"><circle cx="16.564" cy="3.846" r=".5"/><circle cx="19.09" cy="3.846" r=".5"/><circle cx="21.614" cy="3.846" r=".5"/><circle cx="24.14" cy="3.846" r=".5"/></g><g stroke="#293f54" fill="#fff" class="D E"><circle cx="11.411" cy="19.017" r=".869"/><path d="M11.4 20.64v1.492m1.393 2.355v-2.082m-2.783 0v2.08m-1.112.001v-2.7c0-.64.343-1.158.982-1.158h3.04m.002.002c.64 0 .982.52.982 1.158v1.488" class="B C"/><circle cx="16.417" cy="19.017" r=".869"/><path d="M16.416 20.64v1.492m1.394 2.355v-2.082m-2.786 0v2.082m-1.1-1.202v-1.488c0-.64.342-1.158.982-1.158h3.04m.001.001c.64 0 .982.52.982 1.158v1.488" class="B C"/><circle cx="21.422" cy="19.017" r=".869"/><g class="B"><path d="M21.422 20.64v1.492m1.39 2.355v-2.082m-2.783 0v2.082m-1.1-1.202v-1.488c0-.64.343-1.158.982-1.158h3.04m0 .001c.64 0 .982.52.982 1.158v2.7" class="C"/><path d="M11.197 10.8h10.438v5.402H11.197z"/><path d="M21.762 10.8h-10.7c-.213 0-.385-.21-.385-.466s.172-.466.385-.466h10.7c.213 0 .385.21.385.466s-.172.466-.385.466z"/><path d="M16.822 16.212v.96m-.812.001v-.96m-6 8.273l12.793.001" class="C"/></g></g><path fill="#fff" stroke="#00b1cc" d="M13.012 14.6l1.87-1.435.886.902 1.502-1.174.74.765 1.812-1.356" class="B C D E"/></svg>