<svg xmlns="http://www.w3.org/2000/svg" width="33" height="29" viewBox="0 0 32.13 28.566"><g fill="none" stroke="#293f54" stroke-width=".567" stroke-miterlimit="10"><path d="M31.846 27.283a1 1 0 0 1-1 1H1.284a1 1 0 0 1-1-1v-26a1 1 0 0 1 1-1h29.563a1 1 0 0 1 1 1v26z"/><path d="M.096 7.22h31.688"/></g><g fill="#00b1cc"><circle cx="2.846" cy="3.846" r=".813"/><circle cx="6.846" cy="3.846" r=".813"/><circle cx="10.846" cy="3.846" r=".813"/></g><g fill="#293f54"><circle cx="16.221" cy="3.846" r=".5"/><circle cx="18.747" cy="3.846" r=".5"/><circle cx="21.272" cy="3.846" r=".5"/><circle cx="23.797" cy="3.846" r=".5"/><circle cx="26.322" cy="3.846" r=".5"/><circle cx="28.846" cy="3.846" r=".5"/></g><path fill="#00b1cc" d="M3.71 12.1h24.402v13.452H3.71z"/><path fill="#fff" stroke="#293f54" stroke-width=".454" stroke-linejoin="round" stroke-miterlimit="10" d="M3.05 10.766h23.847v13.452H3.05z"/><circle fill="#ffc500" cx="26.896" cy="10.766" r="2.002"/><path fill="#fff" d="M26.057 9.55l.843.842.808-.807.363.363-.808.807.85.85-.38.377-.85-.85-.808.807-.363-.363.808-.805-.843-.842.38-.38z"/><path fill="#ffc500" d="M12.245 14.2H8.4l-3.006 2.434.813 1.82 2.193-1.82v4.03l1.27.034v.007l.137-.005.137.005v-.007l2.302-.034v-4.03l2.193 1.82.813-1.82z"/><path fill="none" stroke="#293f54" stroke-width=".384" stroke-linejoin="round" stroke-miterlimit="10" d="M24.75 16.37c0 .474-.532.857-1.188.857H17.81c-.656 0-1.188-.384-1.188-.857v-.69c0-.474.532-.857 1.188-.857h5.753c.656 0 1.188.384 1.188.857v.69z"/><path fill="#00b1cc" d="M24.75 20.026c0 .474-.532.857-1.188.857H17.81c-.656 0-1.188-.384-1.188-.857v-.7c0-.474.532-.857 1.188-.857h5.753c.656 0 1.188.384 1.188.857v.7z"/></svg>