<svg xmlns="http://www.w3.org/2000/svg" width="33" height="29" viewBox="0 0 32.13 28.566"><style><![CDATA[.B{stroke:#293f54}.C{stroke-miterlimit:10}.D{stroke-width:.454}.E{stroke-linejoin:round}.F{stroke-linecap:round}]]></style><g fill="none" class="B C"><path d="M22.248 15.554l-6.527-4.36-6.527 4.36v7.217a1.02 1.02 0 0 0 1.02 1.02H21.23a1.02 1.02 0 0 0 1.02-1.02v-7.217z" class="D E"/><g stroke-width=".567"><path d="M31.846 27.283a1 1 0 0 1-1 1H1.284a1 1 0 0 1-1-1v-26a1 1 0 0 1 1-1h29.563a1 1 0 0 1 1 1v26z"/><path d="M.096 7.22h31.688"/></g></g><g fill="#00b1cc"><circle cx="2.846" cy="3.846" r=".813"/><circle cx="6.846" cy="3.846" r=".813"/><circle cx="10.846" cy="3.846" r=".813"/></g><g fill="#293f54"><circle cx="16.221" cy="3.846" r=".5"/><circle cx="18.747" cy="3.846" r=".5"/><circle cx="21.272" cy="3.846" r=".5"/><circle cx="23.797" cy="3.846" r=".5"/><circle cx="26.322" cy="3.846" r=".5"/><circle cx="28.846" cy="3.846" r=".5"/></g><path d="M24.256 10.396l.496 1.005 1.1.162-.803.784.2 1.105-.994-.52-.993.52.2-1.105-.804-.784 1.1-.162zM5.63 21.654l.496 1.006 1.1.16-.803.784.2 1.106-.993-.522-.993.522.2-1.106-.803-.784 1.1-.16zm21.192-2.1l.496 1.006 1.1.16-.804.784.2 1.105-.993-.52-.993.52.2-1.105-.803-.784 1.1-.16zM6.005 11.822l.232.47.52.075-.375.366.088.518-.464-.244-.464.244.088-.518-.376-.366.52-.075zM18.36 8.966l.232.47.52.075-.375.366.088.518-.464-.245-.465.245.1-.518-.376-.366.52-.075zm8.462 3.77l.232.47.52.075-.375.366.088.518-.464-.244-.465.244.1-.518-.376-.366.52-.075zm-11.102 2.48l.467.944 1.04.15-.753.732.174 1.04-.928-.488-.928.488.175-1.04-.754-.732 1.04-.15z" fill="#ffc500"/><path fill="#fff" d="M19.38 18.92v-7.127h-7.317v7.127" class="B C D E F"/><path d="M15.72 13.57l.467.945 1.04.148-.753.733.174 1.04-.928-.5-.928.5.175-1.04-.754-.733 1.04-.148zm1.975 1.6l.206.417.46.066-.333.324.077.46-.4-.216-.4.216.077-.46-.333-.324.46-.066zm-4.147 0l.207.417.46.066-.333.324.077.46-.4-.216-.4.216.077-.46-.333-.324.46-.066z" fill="#ffc500"/><g class="B C D E F"><path fill="#fff" d="M22.255 19.098v-3.482l-6.526 3.34-6.527-3.34v3.71"/><path fill="none" d="M13.748 18.998l1.625.832a.76.76 0 0 0 .348.083.76.76 0 0 0 .348-.083l1.625-.832"/></g><path fill="#00b1cc" d="M9.802 21.737v1.033c0 .228.185.412.412.412H21.23c.228 0 .412-.185.412-.412v-1.033H9.802z"/></svg>