<svg xmlns="http://www.w3.org/2000/svg" xmlns:xlink="http://www.w3.org/1999/xlink" width="33" height="29" viewBox="0 0 32.129 28.567"><style><![CDATA[.B{stroke-width:.454}.C{stroke-linejoin:round}.D{stroke-miterlimit:10}.E{stroke:#293f54}.F{stroke-linecap:round}]]></style><g fill="none" stroke-width=".567" class="D E"><path d="M31.846 27.284a1 1 0 0 1-1 1H1.283a1 1 0 0 1-1-1v-26a1 1 0 0 1 1-1h29.563a1 1 0 0 1 1 1v26z"/><path d="M.096 7.22h31.687"/></g><g fill="#00b1cc"><circle cx="2.846" cy="3.846" r=".813"/><circle cx="6.846" cy="3.846" r=".813"/><circle cx="10.846" cy="3.846" r=".813"/></g><g fill="#293f54"><circle cx="16.221" cy="3.846" r=".5"/><circle cx="18.745" cy="3.846" r=".5"/><circle cx="21.27" cy="3.846" r=".5"/><circle cx="23.795" cy="3.846" r=".5"/><circle cx="26.32" cy="3.846" r=".5"/><circle cx="28.846" cy="3.846" r=".5"/></g><g fill="none" class="E B C"><g class="D F"><path d="M22.51 22.58H17.08"/><path d="M18.677 13.625h3.994a.52.52 0 0 1 .521.521v10.146a.52.52 0 0 1-.521.521h-5.754a.52.52 0 0 1-.52-.521v-6.865"/></g><circle cx="19.795" cy="23.707" r=".11"/><path d="M19.122 14.757h1.346" class="D F"/></g><path fill="#ffc500" d="M15.928 19.38l2.058 1.997V12.73c0-1.176-.955-2.13-2.134-2.13H8.578a2.13 2.13 0 0 0-2.131 2.131v4.52a2.13 2.13 0 0 0 2.131 2.131h7.35z" class="B C D E"/><use xlink:href="#B" fill="none" class="B C D E F"/><use xlink:href="#B" fill="#fff"/><g fill="none" class="E C"><g class="D F"><use xlink:href="#B" stroke-width=".256"/><path d="M10.33 13.634l-.18-.475a.44.44 0 0 0-.41-.282h-.237" class="B"/></g><circle cx="11.844" cy="17.446" r=".36" class="B"/><circle cx="13.613" cy="17.446" r=".36" class="B"/><path d="M11.38 16.64h2.696" class="B D F"/></g><path fill="#00b1cc" d="M11.28 15.634h1.965c-.385-.174-.766-.356-1.123-.58-.104-.065-.206-.135-.278-.234s-.105-.233-.058-.345c.053-.125.186-.192.297-.27a1.13 1.13 0 0 0 .289-.288h-1.65l.56 1.716z"/><defs ><path id="B" d="M14.93 13.635h-2.2l-2.4-.001.746 2.284 1.653-.001h1.653l.53-2.24"/></defs></svg>