<svg class="menu-snip" xmlns="http://www.w3.org/2000/svg" width="1151px" height="450px" viewBox="0 0 1150 448">
    <path fill-rule="evenodd" fill="#fff" d="M1118.251,365.606 C1096.815,392.962 1066.362,406.640 1026.876,406.640 C1008.984,406.640 995.316,403.260 985.872,396.508 L985.872,448.687 L835.015,448.687 L835.015,102.180 L962.079,102.180 L967.141,139.161 C973.216,121.264 986.710,108.766 1007.640,101.673 C1016.412,98.634 1026.196,97.114 1037.001,97.114 C1074.794,97.114 1103.143,111.552 1122.048,140.427 C1140.944,169.303 1150.397,207.218 1150.397,254.157 C1150.397,301.103 1139.679,338.251 1118.251,365.606 ZM1007.133,248.078 C1007.133,244.025 1005.694,240.566 1002.830,237.693 C999.959,234.827 996.503,233.387 992.453,233.387 C988.403,233.387 985.025,234.827 982.328,237.693 C979.623,240.566 978.278,244.025 978.278,248.078 L978.278,290.631 C978.278,295.024 979.544,298.570 982.075,301.270 C984.606,303.977 987.976,305.322 992.200,305.322 C996.416,305.322 999.959,303.977 1002.830,301.270 C1005.694,298.570 1007.133,295.024 1007.133,290.631 L1007.133,248.078 ZM650.196,138.654 L801.053,138.654 L801.053,401.574 L650.196,401.574 L650.196,138.654 ZM725.119,127.003 C699.467,127.003 680.570,121.937 668.421,111.805 C656.271,101.673 650.196,85.462 650.196,63.173 C650.196,40.883 656.350,24.846 668.674,15.046 C680.990,5.255 699.807,0.355 725.119,0.355 C775.742,0.355 801.053,20.793 801.053,61.653 C801.053,84.956 794.804,101.673 782.323,111.805 C769.833,121.937 750.762,127.003 725.119,127.003 ZM473.674,240.985 C473.674,236.933 472.234,233.474 469.371,230.600 C466.500,227.735 463.043,226.294 458.993,226.294 C454.943,226.294 451.566,227.735 448.869,230.600 C446.163,233.474 444.819,236.933 444.819,240.985 L444.819,401.574 L301.556,401.574 L301.556,102.180 L428.619,102.180 L433.682,139.161 C435.026,135.449 438.064,130.889 442.794,125.483 C447.516,120.085 452.578,115.525 457.981,111.805 C472.828,102.014 492.571,97.114 517.210,97.114 C550.281,97.114 575.173,106.233 591.879,124.470 C608.584,142.707 616.937,169.224 616.937,204.004 L616.937,401.574 L473.674,401.574 L473.674,240.985 ZM249.217,258.210 C264.736,268.682 272.504,287.766 272.504,315.454 C272.504,343.150 262.205,365.274 241.624,381.817 C221.034,398.369 185.092,406.640 133.797,406.640 C106.460,406.640 82.161,405.120 60.899,402.081 C39.638,399.041 25.123,396.002 17.364,392.962 L5.720,388.403 L5.720,278.473 C15.165,283.207 29.766,287.513 49.509,291.391 C69.252,295.278 89.581,297.217 110.510,297.217 L110.510,285.059 C74.394,281.687 47.057,273.407 28.501,260.236 C9.936,247.065 0.658,225.709 0.658,196.152 C0.658,166.604 11.961,142.707 34.575,124.470 C57.182,106.233 91.606,97.114 137.847,97.114 C164.503,97.114 188.549,98.634 209.984,101.673 C231.412,104.713 246.180,107.752 254.280,110.792 L265.923,115.351 L265.923,241.999 C242.968,230.181 208.719,224.268 163.158,224.268 L163.158,236.426 C205.001,240.479 233.690,247.745 249.217,258.210 Z"></path>
    <path fill-rule="evenodd" fill="#fff" d="M6.358,435.134 L801.140,435.134 L801.140,449.066 L6.358,449.066 L6.358,435.134 Z"></path>
</svg>
