<svg xmlns="http://www.w3.org/2000/svg" width="18" height="18" viewBox="0 0 169.34 169.34"><defs><style>.cls-1{fill:#1e1e1e;}</style></defs><g id="Layer_2" data-name="Layer 2"><g id="Layer_1-2" data-name="Layer 1"><g id="Layer_2-2" data-name="Layer 2"><g id="Layer_1-2-2" data-name="Layer 1-2"><g id="dEMO"><path class="cls-1" d="M84.67,169.34a84.67,84.67,0,1,1,84.67-84.67A84.76,84.76,0,0,1,84.67,169.34ZM84.67,12a72.67,72.67,0,1,0,72.67,72.67A72.75,72.75,0,0,0,84.67,12Z"/><path class="cls-1" d="M84.67,145.83a61.16,61.16,0,1,1,61.16-61.16A61.23,61.23,0,0,1,84.67,145.83Zm0-110.32a49.16,49.16,0,1,0,49.16,49.16A49.22,49.22,0,0,0,84.67,35.51Z"/><path class="cls-1" d="M74.18,107.67a4.81,4.81,0,0,1-4.81-4.81V66.49a4.8,4.8,0,0,1,7.21-4.17l31.5,18.18a4.82,4.82,0,0,1,0,8.34L76.58,107A4.82,4.82,0,0,1,74.18,107.67Z"/></g></g></g></g></g></svg>