<svg xmlns="http://www.w3.org/2000/svg" width="18" height="18" viewBox="0 0 124.99 169.34"><defs><style>.cls-1{fill:#1e1e1e;}</style></defs><g id="Layer_2" data-name="Layer 2"><g id="Layer_1-2" data-name="Layer 1"><g id="Layer_2-2" data-name="Layer 2"><g id="Layer_1-2-2" data-name="Layer 1-2"><g id="Documentation_filled" data-name="Documentation filled"><g id="Docs"><path class="cls-1" d="M19,169.34a19.05,19.05,0,0,1-19-19V19.06A19,19,0,0,1,19,0H79.87a6,6,0,0,1,6,6V36.42a2.72,2.72,0,0,0,2.72,2.69H119a6,6,0,0,1,6,6v105.2a19.06,19.06,0,0,1-19,19H19ZM19.06,12A7,7,0,0,0,12,19.05V150.31a7,7,0,0,0,7,7h86.9a7,7,0,0,0,7-7V51.11H88.57a14.76,14.76,0,0,1-14.7-14.67V12Z"/><path class="cls-1" d="M119,51.11H88.57a14.76,14.76,0,0,1-14.7-14.67V6a6,6,0,0,1,6-6h0a10.11,10.11,0,0,1,7.36,3.19l34.63,34.62a10.19,10.19,0,0,1,3.12,7.3,6,6,0,0,1-6,6Zm-5.4-4.61h0ZM85.87,18.79V36.42a2.72,2.72,0,0,0,2.72,2.69H106.2Z"/></g><path class="cls-1" d="M82.28,86.39H37.86a6.25,6.25,0,0,1-6.26-6.25h0a6.25,6.25,0,0,1,6.26-6.25H82.28a6.25,6.25,0,0,1,6.26,6.25h0A6.25,6.25,0,0,1,82.28,86.39Z"/><path class="cls-1" d="M82.28,116.06H37.86a6.25,6.25,0,0,1-6.26-6.25h0a6.25,6.25,0,0,1,6.26-6.25H82.28a6.25,6.25,0,0,1,6.26,6.25h0A6.25,6.25,0,0,1,82.28,116.06Z"/></g></g></g></g></g></svg>