<?xml version="1.0" encoding="UTF-8"?><svg id="Layer_1" xmlns="http://www.w3.org/2000/svg" viewBox="0 0 200 200"><defs><style>.cls-1{fill:#1e1e1e;}</style></defs><g id="Services"><path class="cls-1" d="M174.64,50.44c-4.53,4.53-8.86,8.86-13.09,13.19-1.31,1.41-2.62,1.71-4.43,1.11-4.63-1.71-9.46-3.12-14.09-4.93-1.11-.4-2.42-1.51-2.82-2.72-1.81-4.73-3.22-9.56-4.93-14.29-.5-1.71-.2-3.02,1.01-4.23,2.72-2.62,5.33-5.34,8.05-7.95,1.71-1.61,3.52-3.12,5.33-4.73-.2-.3-.4-.6-.6-.91-2.21,.3-4.53,.3-6.74,.81-14.5,3.72-22.85,16.51-20.13,31.2,.4,2.01-.1,3.42-1.61,4.93-7.65,7.55-15.1,15.1-22.75,22.65-10.02,9.89-19.94,19.89-29.85,29.88-1.5,1.51-2.99,3.02-4.49,4.54-1.25,1.27-2.53,2.87-4.45,3.01-1.45,.1-2.87-.55-4.32-.6-1.21-.04-2.43-.14-3.64-.12-2.45,.04-4.88,.44-7.21,1.17-4.54,1.43-8.64,4.11-11.83,7.63-5.69,6.27-8.27,15.02-6.47,23.34,3.22,14.7,17.41,24.06,31.91,21.04,14.29-3.02,23.65-16.91,20.84-31.51-.5-2.42,.1-3.83,1.71-5.34,19.23-19.23,38.45-38.35,57.58-57.58,1.91-2.01,3.72-2.62,6.34-2.01,12.58,2.42,25.57-5.23,29.59-17.51,1.01-3.12,1.71-6.34,1.11-10.07ZM52.34,162.08c-7.55,0-13.69-6.14-13.69-13.69s6.14-13.69,13.69-13.69,13.59,6.14,13.59,13.69-6.04,13.69-13.59,13.69Zm20.03-31.51c-.91-.91-2.11-2.01-3.12-3.02l58.58-58.58c1.01,1.11,2.11,2.21,3.12,3.12-19.43,19.43-38.96,38.96-58.58,58.48Z"/><path class="cls-1" d="M139.92,117.28c-4.23,2.21-7.85,2.01-10.77-.81-3.02-2.82-3.22-6.34-1.01-11.17-1.31-1.41-2.62-2.82-3.52-3.93-7.75,7.65-15.3,15.2-22.75,22.65,1.11,1.21,2.42,2.52,3.72,3.93,4.43-2.42,7.95-2.32,10.97,.5,3.32,3.12,3.52,6.95,1.21,11.17,10.27,10.27,20.53,20.53,30.4,30.5,7.45-7.45,15-14.9,22.35-22.25-10.07-10.07-20.33-20.33-30.6-30.6Zm-11.78,13.59c1.01-.91,2.11-2.01,3.22-3.02,8.66,8.76,17.52,17.62,26.37,26.47-.91,.91-2.01,2.11-3.12,3.12-8.86-8.86-17.62-17.72-26.47-26.57Z"/><path class="cls-1" d="M32.09,44.18c1.79,4.08,4.51,6.44,9.01,6.79,3.18,.25,5.5,2.08,7.72,4.33,9.79,9.96,19.72,19.78,29.59,29.67,1.87,1.87,3.65,3.83,5.48,5.76,2.58-2.52,4.81-4.69,7.1-6.92-.62-.66-1.19-1.29-1.8-1.89-11.25-11.25-22.46-22.55-33.81-33.71-2.16-2.13-3.57-4.42-4.1-7.35-.26-1.45-.53-2.93-1.03-4.31-.32-.88-.89-1.89-1.65-2.35-4.41-2.65-8.88-5.19-13.4-7.64-.57-.31-1.81-.11-2.31,.33-1.99,1.75-3.76,3.74-5.7,5.54-.94,.87-.89,1.58-.28,2.6,1.8,3.01,3.78,5.96,5.18,9.15Z"/><path class="cls-1" d="M174.03,153.51c-6.79,6.73-13.55,13.43-20.26,20.08,5.27,2.19,12.15,.62,16.56-3.85,4.57-4.65,5.75-12.01,3.71-16.23Z"/></g></svg>