<svg xmlns="http://www.w3.org/2000/svg" width="18" height="18" viewBox="0 0 177.04 169.03"><defs><style>.cls-1{fill:#1e1e1e;}</style></defs><g id="Layer_2" data-name="Layer 2"><g id="Layer_1-2" data-name="Layer 1"><g id="Layer_2-2" data-name="Layer 2"><g id="Layer_1-2-2" data-name="Layer 1-2"><g id="Support"><path class="cls-1" d="M106.85,158.44v-8.8h20.44c5.46,0,12.11-4.43,14.2-9.48l.52-1.24c2.64-6.33,4.31-10.53,4.79-11.81v-3.06l3.07,1h5.7v3c0,1,0,1.31-5.4,14.31l-.52,1.25c-3.48,8.36-13.29,14.9-22.34,14.9Z"/><path class="cls-1" d="M144.55,78.18V65.1A50.8,50.8,0,0,0,94,14.2H83.09A50.79,50.79,0,0,0,32.5,65.1V78.18H18.34V65.1C18.34,29.2,47.39,0,83.09,0H94c35.71,0,64.75,29.2,64.75,65.1V78.18Z"/><path class="cls-1" d="M154.58,141.69a16.13,16.13,0,0,1-4.42-.59c-6.82-1.89-11.24-8.11-11.24-15.85V83.76c0-7.74,4.4-14,11.24-15.85a16.51,16.51,0,0,1,4.42-.58,18.84,18.84,0,0,1,4.36.52c1.5.15,9.1,1.19,14,7.28,5.49,6.87,5.49,51.88,0,58.75-4.88,6.13-12.48,7.15-14,7.28A18.32,18.32,0,0,1,154.58,141.69Z"/><path class="cls-1" d="M22.46,141.69a18.32,18.32,0,0,1-4.36-.53C16.6,141,9,140,4.11,133.88-1.37,127-1.37,82,4.11,75.14,9,69,16.61,68,18.1,67.85a18.84,18.84,0,0,1,4.36-.52,16.51,16.51,0,0,1,4.42.58C33.7,69.81,38.12,76,38.12,83.76v41.49c0,7.74-4.41,13.95-11.24,15.85A16.52,16.52,0,0,1,22.46,141.69Z"/><path class="cls-1" d="M87.12,169a15.91,15.91,0,0,1,0-31.82H100A15.91,15.91,0,0,1,100,169H87.12Z"/></g></g></g></g></g></svg>