<svg id="yith-wcms-info-icon" class="yith-wcms-icon" data-name="yith-wcms-info-icon" xmlns="http://www.w3.org/2000/svg" viewBox="0 0 24.2 20.09">
  <defs>
  </defs>
  <g>
    <path class="cls-1" d="M4.76,11.84H16.47a.34.34,0,0,0,0-.68H4.76a.34.34,0,1,0,0,.68Z" transform="translate(-1.92 -4.12)"/>
    <path class="cls-1" d="M4.76,14.93H16.47a.34.34,0,1,0,0-.68H4.76a.34.34,0,0,0,0,.68Z" transform="translate(-1.92 -4.12)"/>
    <path class="cls-1" d="M4.76,18H16.47a.34.34,0,0,0,0-.68H4.76a.34.34,0,0,0,0,.68Z" transform="translate(-1.92 -4.12)"/>
    <path class="cls-1" d="M16.47,20.43h-5a.34.34,0,0,0-.34.34.34.34,0,0,0,.34.34h5a.35.35,0,0,0,.34-.34A.34.34,0,0,0,16.47,20.43Z" transform="translate(-1.92 -4.12)"/>
    <path class="cls-1" d="M4.76,8.75H16.47a.34.34,0,0,0,.34-.34.35.35,0,0,0-.34-.34H4.76a.34.34,0,0,0-.34.34A.34.34,0,0,0,4.76,8.75Z" transform="translate(-1.92 -4.12)"/>
    <path class="cls-1" d="M18.9,4.12H2.33a.41.41,0,0,0-.41.41V23.81a.4.4,0,0,0,.41.4H18.9a.4.4,0,0,0,.4-.4V4.53A.4.4,0,0,0,18.9,4.12Zm-.28,19.41H2.6V4.8h16Z" transform="translate(-1.92 -4.12)"/>
    <path class="cls-1" d="M25.1,8.22h-.38V7.57a.41.41,0,0,0-.41-.41h-.62v-2a1.12,1.12,0,0,0-2.23,0v2h-.62a.41.41,0,0,0-.41.41V20.12h0a.31.31,0,0,0,.06.19l1.74,2.54v1a.34.34,0,0,0,.34.34.34.34,0,0,0,.34-.34v-1l1.75-2.54a.31.31,0,0,0,.06-.19h0V8.9h.35a.37.37,0,0,1,.37.37v4.92a.34.34,0,0,0,.68,0V9.27A1.05,1.05,0,0,0,25.1,8.22ZM22.57,22.15l-1.16-1.69h2.32Zm-.43-17c0-.17.2-.32.43-.32S23,5,23,5.12v2h-.87Zm-1,2.72H24V19.78H21.11Z" transform="translate(-1.92 -4.12)"/>
  </g>
</svg>
