<svg id="yith-wcms-login-icon" class="yith-wcms-icon" data-name="yith-wcms-login-icon" xmlns="http://www.w3.org/2000/svg" viewBox="0 0 25 20">
  <defs>
  </defs>
  <g>
    <path class="cls-1" d="M10.67,11.8V9.93a1,1,0,0,0-1-.93h-3a1,1,0,0,0-1,.93V11.8a1,1,0,0,0,1,.93h3A1,1,0,0,0,10.67,11.8Zm-4-1.87h3V11.8h-3Z" transform="translate(-1.67 -5.28)"/>
    <rect class="cls-1" x="13.5" y="4.65" width="7" height="0.93"/>
    <rect class="cls-1" x="9" y="10.7" width="3" height="0.93"/>
    <rect class="cls-1" x="4" y="10.7" width="3" height="0.93"/>
    <path class="cls-1" d="M25.17,5.28h-22a1.46,1.46,0,0,0-1.5,1.4v13a1.46,1.46,0,0,0,1.5,1.4h9.5v-.93H3.17a.49.49,0,0,1-.5-.47v-13a.49.49,0,0,1,.5-.47h22a.48.48,0,0,1,.5.47v13a.48.48,0,0,1-.5.47h-.5v.93h.5a1.45,1.45,0,0,0,1.5-1.4v-13A1.45,1.45,0,0,0,25.17,5.28Z" transform="translate(-1.67 -5.28)"/>
    <path class="cls-1" d="M22.17,17.84V16a3.39,3.39,0,0,0-3.5-3.25A3.39,3.39,0,0,0,15.17,16v1.86a1.46,1.46,0,0,0-1.5,1.4v4.65a1.45,1.45,0,0,0,1.5,1.39h7a1.45,1.45,0,0,0,1.5-1.39V19.24A1.45,1.45,0,0,0,22.17,17.84Zm-6-1.86a2.51,2.51,0,0,1,5,0v1.86h-5Zm6.5,7.91a.48.48,0,0,1-.5.46h-7a.49.49,0,0,1-.5-.46V19.24a.49.49,0,0,1,.5-.47h7a.48.48,0,0,1,.5.47Z" transform="translate(-1.67 -5.28)"/>
  </g>
</svg>
