<?xml version="1.0" encoding="utf-8"?>
<!-- Generator: Adobe Illustrator 16.0.0, SVG Export Plug-In . SVG Version: 6.00 Build 0)  -->
<!DOCTYPE svg PUBLIC "-//W3C//DTD SVG 1.1//EN" "http://www.w3.org/Graphics/SVG/1.1/DTD/svg11.dtd">
<svg version="1.1" id="yith-wcms-order2-icon" class="yith-wcms-icon" data-name="yith-wcms-order2-icon" xmlns="http://www.w3.org/2000/svg" xmlns:xlink="http://www.w3.org/1999/xlink" x="0px" y="0px"
	  viewBox="0 0 23.639 23.639" enable-background="new 0 0 23.639 23.639" xml:space="preserve">
<g>
	<g>
		<path d="M11.819,23.639C5.302,23.639,0,18.336,0,11.819S5.302,0,11.819,0c6.518,0,11.82,5.302,11.82,11.819
			S18.336,23.639,11.819,23.639z M11.819,1.306c-5.797,0-10.513,4.716-10.513,10.514s4.716,10.514,10.513,10.514
			c5.797,0,10.514-4.716,10.514-10.514S17.616,1.306,11.819,1.306z"/>
	</g>
	<g>
		<g>
			<path d="M11.819,20.139c-0.361,0-0.653-0.292-0.653-0.653v-9.75c0-0.361,0.292-0.653,0.653-0.653s0.653,0.292,0.653,0.653v9.75
				C12.472,19.847,12.18,20.139,11.819,20.139z"/>
		</g>
		<g>
			<path d="M11.819,7.64c-0.361,0-0.653-0.292-0.653-0.653v-1.5c0-0.361,0.292-0.653,0.653-0.653s0.653,0.292,0.653,0.653v1.5
				C12.472,7.348,12.18,7.64,11.819,7.64z"/>
		</g>
	</g>
</g>
</svg>
