<?xml version="1.0" encoding="utf-8"?>
<!-- Generator: Adobe Illustrator 16.0.0, SVG Export Plug-In . SVG Version: 6.00 Build 0)  -->
<!DOCTYPE svg PUBLIC "-//W3C//DTD SVG 1.1//EN" "http://www.w3.org/Graphics/SVG/1.1/DTD/svg11.dtd">
<svg version="1.1" id="yith-wcms-payment2-icon" class="yith-wcms-icon" data-name="yith-wcms-payment2-icon" xmlns="http://www.w3.org/2000/svg" xmlns:xlink="http://www.w3.org/1999/xlink" x="0px" y="0px"
	  viewBox="0 0 23.39 21.806" enable-background="new 0 0 23.39 21.806" xml:space="preserve">
<g>
	<g>
		<path d="M22.736,21.806H0.653C0.293,21.806,0,21.514,0,21.153v-12.5C0,8.292,0.293,8,0.653,8h22.083
			c0.36,0,0.653,0.292,0.653,0.653v12.5C23.39,21.514,23.097,21.806,22.736,21.806z M1.307,20.5h20.776V9.306H1.307V20.5z"/>
	</g>
	<g>
		<path d="M22.736,17.722h-7.583c-0.36,0-0.653-0.292-0.653-0.653v-4.917c0-0.361,0.293-0.653,0.653-0.653h7.583
			c0.36,0,0.653,0.292,0.653,0.653v4.917C23.39,17.43,23.097,17.722,22.736,17.722z M15.807,16.417h6.276v-3.611h-6.276V16.417z"/>
	</g>
	<circle cx="17.237" cy="14.653" r="0.5"/>
	<g>
		<path d="M19.403,9.306c-0.142,0-0.283-0.045-0.402-0.139c-0.284-0.222-0.334-0.632-0.112-0.917l1.119-1.429l-4.907-4.276
			L8.615,9.031c-0.256,0.255-0.668,0.255-0.924,0c-0.255-0.255-0.255-0.668,0-0.924l6.917-6.917c0.243-0.242,0.633-0.255,0.891-0.03
			l5.833,5.083c0.262,0.228,0.3,0.621,0.086,0.895l-1.5,1.917C19.789,9.22,19.597,9.306,19.403,9.306z"/>
	</g>
	<g>
		<path d="M6.234,8.889C6.118,8.889,6,8.857,5.894,8.792C5.586,8.603,5.49,8.201,5.68,7.894l4.667-7.583
			c0.185-0.3,0.575-0.401,0.883-0.223l3.167,1.833c0.313,0.181,0.419,0.58,0.238,0.892c-0.18,0.312-0.577,0.422-0.893,0.238
			l-2.617-1.515L6.791,8.578C6.668,8.778,6.454,8.889,6.234,8.889z"/>
	</g>
</g>
</svg>
