<svg id="yith-wcms-payment-icon" class="yith-wcms-icon" data-name="yith-wcms-payment-icon" xmlns="http://www.w3.org/2000/svg" viewBox="0 0 22.15 14.77">
  <defs>
  </defs>
  <g>
    <path class="cls-1" d="M9.46,14.15v-.82A1.23,1.23,0,0,0,8.23,12.1H6.59a1.23,1.23,0,0,0-1.23,1.23v.82a1.24,1.24,0,0,0,1.23,1.23H8.23A1.24,1.24,0,0,0,9.46,14.15Zm-.82,0a.41.41,0,0,1-.41.41H6.59a.41.41,0,0,1-.41-.41v-.82a.41.41,0,0,1,.41-.41H8.23a.41.41,0,0,1,.41.41Z" transform="translate(-2.9 -7.17)"/>
    <rect class="cls-1" x="10.66" y="5.74" width="4.1" height="0.82"/>
    <rect class="cls-1" x="9.02" y="10.66" width="2.05" height="0.82"/>
    <rect class="cls-1" x="12.3" y="10.66" width="2.05" height="0.82"/>
    <rect class="cls-1" x="5.74" y="10.66" width="2.05" height="0.82"/>
    <rect class="cls-1" x="2.46" y="10.66" width="2.05" height="0.82"/>
    <path class="cls-1" d="M23.82,7.17H9.05A1.24,1.24,0,0,0,7.82,8.4V9.63H4.13A1.24,1.24,0,0,0,2.9,10.87v9.84a1.23,1.23,0,0,0,1.23,1.23H18.89a1.23,1.23,0,0,0,1.23-1.23V19.48h3.7a1.24,1.24,0,0,0,1.23-1.23V8.4A1.24,1.24,0,0,0,23.82,7.17ZM8.64,8.4A.41.41,0,0,1,9.05,8H23.82a.42.42,0,0,1,.41.41v2H20.05a1.24,1.24,0,0,0-1.16-.82H8.64Zm11.48,2.88h4.11v.82H20.12Zm-.82,9.43a.41.41,0,0,1-.41.41H4.13a.41.41,0,0,1-.41-.41V10.87a.41.41,0,0,1,.41-.42H18.89a.41.41,0,0,1,.41.42Zm4.52-2.05h-3.7V12.92h4.11v5.33A.42.42,0,0,1,23.82,18.66Z" transform="translate(-2.9 -7.17)"/>
  </g>
</svg>
