<svg id="yith-wcms-shipping-icon" class="yith-wcms-icon" data-name="yith-wcms-shipping-icon" xmlns="http://www.w3.org/2000/svg" viewBox="0 0 20.83 20.83">
  <defs>
  </defs>
  <g id="package">
    <path class="cls-1" d="M17.43,9.57l-1.3-5.3A.32.32,0,0,0,15.74,4a.33.33,0,0,0-.24.4l1.3,5.26v3.43l-1.15-.36a.37.37,0,0,0-.21,0l-1.25.45L13,12.76a.37.37,0,0,0-.21,0l-1.15.36V9.69l1.29-5.26a.33.33,0,0,0-.24-.4.33.33,0,0,0-.39.24L11,9.57a.22.22,0,0,0,0,.08v3.91a.32.32,0,0,0,.42.31l1.47-.45,1.25.45a.41.41,0,0,0,.22,0l1.26-.45,1.46.45h.1a.36.36,0,0,0,.2-.06.33.33,0,0,0,.13-.26V9.65A.24.24,0,0,0,17.43,9.57Z" transform="translate(-3.78 -3.96)"/>
    <path class="cls-1" d="M24.56,10,21.13,4.43l0-.07a.73.73,0,0,0-.71-.4H8a.65.65,0,0,0-.65.36L3.83,10a.33.33,0,0,0,.56.34L7.83,4.79l.09-.12s0-.06,0-.06H20.47l.08.12L24,10.31a.3.3,0,0,0,.27.16.27.27,0,0,0,.17-.06A.31.31,0,0,0,24.56,10Z" transform="translate(-3.78 -3.96)"/>
    <g>
      <path class="cls-1" d="M22.65,22.5h-5.2a.34.34,0,0,0-.33.33.33.33,0,0,0,.33.33h5.2a.33.33,0,0,0,.33-.33A.34.34,0,0,0,22.65,22.5Z" transform="translate(-3.78 -3.96)"/>
      <path class="cls-1" d="M17.68,18.93l.37-.38v3.31h.66V18.55l.37.38a.32.32,0,0,0,.23.09.35.35,0,0,0,.23-.09.32.32,0,0,0,0-.46l-.94-.94a.33.33,0,0,0-.45,0l-.93.94a.32.32,0,0,0,0,.46A.34.34,0,0,0,17.68,18.93Z" transform="translate(-3.78 -3.96)"/>
      <path class="cls-1" d="M21,18.93l.37-.38v3.31h.66V18.55l.38.38a.31.31,0,0,0,.22.09.32.32,0,0,0,.23-.09.32.32,0,0,0,0-.46L22,17.53a.34.34,0,0,0-.46,0l-.94.94a.33.33,0,0,0,.46.46Z" transform="translate(-3.78 -3.96)"/>
    </g>
    <path class="cls-1" d="M23.31,9.17H5.08a1.3,1.3,0,0,0-1.3,1.3v13a1.3,1.3,0,0,0,1.3,1.3H23.31a1.3,1.3,0,0,0,1.3-1.3v-13A1.3,1.3,0,0,0,23.31,9.17ZM24,23.48a.65.65,0,0,1-.64.66H5.08a.66.66,0,0,1-.65-.66v-13a.66.66,0,0,1,.65-.66H23.31a.65.65,0,0,1,.64.66Z" transform="translate(-3.78 -3.96)"/>
  </g>
</svg>
