<svg xmlns="http://www.w3.org/2000/svg" viewBox="0 0 4080 400" preserveAspectRatio="none">
<g>
	<path class="elementor-shape-fill ha-shape-divider" d="M3988.8,289.2v-0.7C3985.5,289,3985.5,288.8,3988.8,289.2z"/>
	<path class="elementor-shape-fill ha-shape-divider" d="M2814.1,170.1c-0.7-0.3-1-0.3-2.5,0.4c-0.9,0.5-0.5,1.9,0.5,1.8c0.7-0.1,1.3-0.2,2-0.5
		C2814.9,171.5,2814.9,170.4,2814.1,170.1z"/>
	<path class="elementor-shape-fill ha-shape-divider" d="M2754.7,212c0.1,3,12.9,4.8,14.5-2.4c0.1-0.6-0.3-1.1-0.9-1.1C2762.5,208.1,2754.5,207,2754.7,212z"/>
	<path class="elementor-shape-fill ha-shape-divider" d="M2654.2,209.4c-1.5,0.2-2.6,1.5-3.8,2.6c-0.5,0.5-0.3,1.3,0.4,1.5c10.8,3.3,58.1,0.4,82.7-0.1c0.3,0,8.2-1.4,5.8-5.1
		c-0.2-0.2-0.4-0.4-0.7-0.4C2709,205.8,2678.5,206.2,2654.2,209.4z"/>
	<path class="elementor-shape-fill ha-shape-divider" d="M2728.6,192.3c0.2,0,0.4-1.4,0.3-1.4c-2.1-0.4-4.4-1.2-6.5-1c-3.8,0.4-4.1,1.9-0.6,2.8
		C2723.8,193.1,2726.3,192.5,2728.6,192.3z"/>
	<path class="elementor-shape-fill ha-shape-divider" d="M2894.8,32.8c-0.7-0.2-1.2-0.2-3.6,0.1c-1,0.1-1.1,1.6-0.1,1.8c2.4,0.6,2.6,0.5,3.8-0.2C2895.7,34.1,2895.6,33,2894.8,32.8
		z"/>
	<path class="elementor-shape-fill ha-shape-divider" d="M3160.8,149.3c3.4,0.8,3.5,0.8,4.7,0.4c0.8-0.3,0.8-1.4,0-1.7c-1.5-0.6-3-0.7-4.6-0.4
		C3159.9,147.6,3159.8,149,3160.8,149.3z"/>
	<path class="elementor-shape-fill ha-shape-divider" d="M2884.3,170.7c1.1-0.2,0.9-1.8-0.2-1.8c-31.8-0.1-27.3-0.6-27.7,2C2874.6,170.9,2880.6,171.5,2884.3,170.7z"/>
	<path class="elementor-shape-fill ha-shape-divider" d="M2725.4,25.6c1.4,0.8,3.7,1,5.7,1.2c0.4,0,0.7-0.2,0.9-0.5c0.1-0.2,0.2-0.4,0.3-0.6c0.2-0.5,0-1-0.4-1.2
		c-1.5-0.8-3-1.7-4.6-1.8C2723.6,22.4,2722.7,24,2725.4,25.6z"/>
	<path class="elementor-shape-fill ha-shape-divider" d="M2875.2,149.6c8.2,1,7.3,0.9,10.9-0.5c0.9-0.3,0.8-1.6-0.1-1.8c-3.7-0.8-7.2-0.5-10.8,0.4
		C2874.1,148,2874.2,149.5,2875.2,149.6z"/>
	<path class="elementor-shape-fill ha-shape-divider" d="M2805.7,49.4c-0.2,1.5-1.9,1,10.3,1.8C2816.2,49.8,2817.7,50.2,2805.7,49.4z"/>
	<path class="elementor-shape-fill ha-shape-divider" d="M3124.6,31.5c0.1-0.4-0.5-1-1-1.5c-0.3-0.3-0.8-0.4-1.2-0.1c-0.7,0.5-1.4,1-1.4,1.4C3121.7,34.1,3123.3,34.2,3124.6,31.5z"
		/>
	<path class="elementor-shape-fill ha-shape-divider" d="M2743,50c-4.4-2.2-9-1.5-13.6-0.4c-0.9,0.2-1,1.5-0.1,1.8c4.5,1.5,9,2.3,13.7,0.3C2743.7,51.4,2743.7,50.3,2743,50z"/>
	<path class="elementor-shape-fill ha-shape-divider" d="M1730.5,137.4c-22.3,0.2-44.6-2.4-66.9,1.4c-17.8,3.1-56.9-2.6-82.5-0.3c-22.8,2.1-57.9,1.2-72.1,4.2
		c-1.1,0.2-0.9,1.8,0.2,1.8c76.6,3.4,151.4,2,232-1.1c1,0,1.2-1.4,0.4-1.8C1736,139.1,1733.3,137.4,1730.5,137.4z"/>
	<path class="elementor-shape-fill ha-shape-divider" d="M1578.2,247.8c25.3,0,33.5,0.3,38.4-0.5c1.1-0.2,1-1.8-0.2-1.8C1573.4,244.8,1577.6,244.9,1578.2,247.8z"/>
	<path class="elementor-shape-fill ha-shape-divider" d="M2000.1,142.1c-0.2-0.5-1.7-0.6-2.9-0.8c-0.2,0-0.3,0-0.5,0c-0.5,0.2-1,0.3-1.5,0.5c-0.6,0.2-0.8,1-0.3,1.5
		c0.3,0.3,0.6,0.6,1,0.6C1999,144.4,2000.7,143.7,2000.1,142.1z"/>
	<path class="elementor-shape-fill ha-shape-divider" d="M1469.5,208.8c3.1,0.3,8.3,0.3,19.2,0.2c1.2,0,1.3-1.7,0.1-1.9c-7.3-0.8-13.4-0.7-19.3-0.2
		C1468.4,207.1,1468.4,208.7,1469.5,208.8z"/>
	<path class="elementor-shape-fill ha-shape-divider" d="M2022,159.2c-3.7-0.7-2.6-0.7-3.8,0.8C2021.9,160.7,2020.8,160.8,2022,159.2z"/>
	<path class="elementor-shape-fill ha-shape-divider" d="M1853.2,182.8c160,15,70.9-10.4,212,6.4c0.3,0,0.7-0.1,0.9-0.4c2.6-3.9,1.8-2.7,4.4-6.9c0.2-0.3,0.2-0.6,0-0.9
		c-1-2.3-0.6-4-1.6-4.4c-16.5-8.3-35.6-9.6-55.3-9.6c-0.4,0-0.9,0.1-1.3,0.2c-9.2,2.4-18.4,4.7-26.4,6.7c-0.6,0.2-1.2,0.2-1.8,0.1
		c-4.8-0.7-9.5-0.4-13.6-1c-4.2-0.5-5.7-6-2.4-8.9c0-0.5,0.1-0.8,0.1-1.3c-1.2-1.3-2.2-3-3.9-3.5c-3.5-1-8.3-2.3-11.2-1.4
		c-18.3,5.6-40.4-5.2-52.5,4.4l0.7-0.6c-12.2,3.9-23.1-4.5-34.5-1.9c-4,0.9-19,8-17.5,9.9c1.5,2,1.1,3.7,0.1,5.4
		C1847.6,178.4,1849.5,182.5,1853.2,182.8z M1902.1,162.4c0,0-0.1,0-0.1,0c4.6,0.1,9.2,0.1,14.8,0.2c1,0,1.3,1.4,0.4,1.8
		c-9,4-12.7-0.5-14.9-1.8c-0.1-0.1-0.3-0.1-0.5-0.1l-1,0C1901.1,162.1,1901.5,162.2,1902.1,162.4z"/>
	<path class="elementor-shape-fill ha-shape-divider" d="M2536.8,168.7c0-0.4-0.4-0.8-0.8-0.8c-10.1-1.1-20.3-2.3-30.4-0.4c-9.4,1.7-18.3-1.5-27.2-0.5c-8.8,1-18.2-2.3-32.6,3.3
		c-1,0.4-0.7,1.8,0.3,1.8C2536.2,172.1,2537.3,173.4,2536.8,168.7z"/>
	<path class="elementor-shape-fill ha-shape-divider" d="M2529,148.5c-2.5-13.2-28.9-1.7-87.4-9.3c-1.2-0.2-2.5,0.1-3.5,0.8c-12.9,8.4-29.7,6.5-45.3,7.3c-0.3,0-0.5,0.1-0.7,0.3
		c-1.8,2.1-1.1,3.4,1.5,4.5c7.5,3,15.4-1.7,22.8,0.5c8.8,2.5,18,2,27.1,2.1C2524.8,154.4,2530.3,155.3,2529,148.5z"/>
	<path class="elementor-shape-fill ha-shape-divider" d="M2215.1,139.8c-5.7,0.3-7,8.4-1.5,10c5.4,1.5,11.1,1,17.6-1.2c0.6-0.2,0.8-0.9,0.4-1.5c-1.6-2.1-2.7-4.2-4.9-5.2
		C2223,140.4,2219.2,139.6,2215.1,139.8z"/>
	<path class="elementor-shape-fill ha-shape-divider" d="M2141.2,141.9c-6.8-3.9-13.5-3.1-20.3,0.2c-0.7,0.3-0.7,1.3-0.1,1.7c6.8,3.9,13.6,2.9,20.3-0.2
		C2141.8,143.2,2141.9,142.2,2141.2,141.9z"/>
	<path class="elementor-shape-fill ha-shape-divider" d="M3238.5,61.8v-1C3234,61.4,3234,61.1,3238.5,61.8z"/>
	<path class="elementor-shape-fill ha-shape-divider" d="M3897.8,35.7c-4.7,0.4-5.9,6.7-1.8,9c0,0,0.1,0.1,0.2,0.1c0.7,0.4,1.4,0.6,2.2,0.6C3919.5,45.8,3928,33,3897.8,35.7z"/>
	<path class="elementor-shape-fill ha-shape-divider" d="M3934.7,49.9c5.4,2,3.4,2.7,11.6-2.2c0.7-0.4,0.6-1.5-0.2-1.7c-8.8-2.5-8.4-2.3-11.8,2.5
		C3933.9,49,3934.1,49.7,3934.7,49.9z"/>
	<path class="elementor-shape-fill ha-shape-divider" d="M3743.3,33.1c-3.8-0.5-7.6-0.4-11.4,0.1c-1.1,0.1-1.1,1.7,0,1.9c3.8,0.4,7.6,0.6,11.4-0.1
		C3744.3,34.7,3744.3,33.2,3743.3,33.1z"/>
	<path class="elementor-shape-fill ha-shape-divider" d="M3663.3,128.5c-1.7,0.5,0.2,4.4,2.5,4.2c22.1-2.5,8.8-4.3,40.6,1.2c0.6,0.1,1.4,0.1,2,0
		C3743.6,126.6,3713.6,112.9,3663.3,128.5z"/>
	<path class="elementor-shape-fill ha-shape-divider" d="M3593,31.7c-4.7,0.4-5.9,6.7-1.8,9c0,0,0.1,0.1,0.2,0.1c0.7,0.4,1.4,0.6,2.2,0.6C3614.7,41.8,3623.2,29,3593,31.7z"/>
	<path class="elementor-shape-fill ha-shape-divider" d="M4079.8,0c0,0,0.2,1.9,0.2,5.1V0H4079.8z"/>
	<path class="elementor-shape-fill ha-shape-divider" d="M4032.5,62.7c-53.5,8.3,45.2,42.9-7.5,48.2c-31.3,3.1-37-6.7-48.5-15.3c-0.2-0.1-0.4-0.2-0.6-0.2
		c-165.3,1.5-223.9,0.2-246.4,2.5c-5.9,0.6-6.2,9.1-0.3,10.1c48.5,8.3,21.5,2.8,42.2,2.7c6.4,0,12.9,0.7,19.2,1.7
		c1.3,0.2,2.1,1.8,3,3.2c0.3,0.5,0.1,1.2-0.5,1.4c-16.1,5.7-23.7-1.4-48.6,5.6c-3.1,0.9-5.2,5.3-3.5,7c4.5,4.3,1.6,3.3,32.2,6.5
		c0.7,0.1,1.1,0.9,0.6,1.5c-2.1,2.6-3.3,5-5.6,5.8c-18.6,6.4-19.1-1-16,11.1c0.6,2.4-0.6,4.9-2.8,6c-7.7,3.8-15.1,7.3-22,10.7
		c-0.1,0.1-0.3,0.1-0.4,0.1c-5.1,0.1-7.3-1.5-8-4.7c-1.4-6.9-16.1-3-26.8-1.2c-0.6,0.1-1.2,0.1-1.8,0c-5.5-1.1-10.5-2.6-15.1-6
		c-0.7-0.5-0.3-1.6,0.5-1.7c17.3-0.5,25.1-0.6,30-1.2c6.4-0.8,5.7-10.3-0.7-10.2c-12.7,0.1-37.9,0.1-90.5-2
		c-11.8-0.5-23.3-2.6-35.2,0.9c-4.4,1.2-10.7,0.7-15.6-0.2c-37.9-7.2-91.1,0.4-122.2-5.1c-28.3-4.9-26.2,6.5-61.4,7.2
		c-59.4,1.2-49.6-0.3-63,2.7c-3.4,0.7-4.3,5.4,0.9,5.3c31.6-0.6,63.2,1.1,97.1,2.5c2,0.1,2,3.1,0,3.2
		c-152.5,9.3-102.5-8.8-219.4,17.5c-1.5,0.3-2.7,1.2-4,2.2c-0.7,0.5-0.4,1.6,0.5,1.7c30.6,3.2,61.3,0.6,93.5,2c0,0,0.1,0,0.1,0
		c0.7,0.1,1.5,0.3,2,0.6c23.9,12.3,46.3,5.3,73.7,8.4c2.1,0.2,3.8,2.2,5.7,3.9c0.5,0.5,0.4,1.3-0.3,1.6c-10.3,3.5-33.6,3-46.1,6.2
		c-25,6.4-51.5,7.7-77.1,11.9c-30.2,4.9-29.2-1-46.7,1.1c-11.7,1.4-22.8,4.2-35.1,3.5c-57.1-3.1-79.6,10.8-109.3,9.5
		c-49.1-2.2-79.9,6.3-156-4.1c-0.8-0.1-1.1-1.1-0.5-1.6c1.5-1.3,2.5-2.3,3.7-2.5c6.8-1,11.6-1.5,15.1-1.9c6.1-0.6,6.1-9.5-0.3-10.9
		c-32.9-3.7-49.1,9.3-98.5,15.9c0,0-0.1,0-0.1,0c-0.7,0-1.2,0-1.8-0.1c-21.4-4.3-14.8-3-29.5-5.8c-0.7-0.1-1.5-0.1-2.2,0
		c-10.4,1.9-17.1,7.9-28.1,8.4c-9.1,0.4-18,3.1-27.1,4c-66,6.7-7.3-1,19.3,10.5c2.9,1.3,4.3,6-1.2,9c-3.9,2.2,0.9,2.4-114.4,3
		c-24.5,0.1-38-12.2-73.1-10.1c-31.7,1.9-52.6-13.5-133-12.9c-41.6,0.4-15.1-6.1-51,3.8c-0.5,0.2-1.1,0.2-1.7,0.2
		c-45.9-2-8.8-3.3-134.9,3.1c-2.7,0.2-4.8,2.4-4.8,5.1v3.7c0,2.8-2.2,5-4.9,5.1c-27.8,1-55.2,2.4-82.7,1.7
		c-12.2-0.4-18.7,2.5-20.9,4c-0.6,0.4-1.2,0.7-1.9,0.8c-51.6,9.9-87.5-12.8-138.8,1.2c-19.1,5.2-75,10.9-101.5,7.5
		c-2.5-0.3-3.5-3.6-1.5-5.1c1.7-1.3,4-2,6.5-2.5c3.4-0.7,2.9-5.8-0.6-5.8c-170-0.9-198.1,0.5-268.8,3.2c-1.3,0-2.6,0.6-3.5,1.5
		c-10.3,10.5-7,11.4-44.7,11.6c-416.4,1.7-334.6,5.3-392.8-2.1c-0.9-0.1-1.1-1.4-0.3-1.8c6.8-3.3,11.6,0,51.9-3
		c9.9-0.8,20.4,2.2,30.3-2.2c0.6-0.3,0.8-1,0.3-1.5c-1.1-1.3-2.3-2.6-3.4-3.8c-0.9-1-2.1-1.6-3.5-1.6c-108.2-3.3-94-1.1-122.3-11.7
		c-0.6-0.2-1.4-0.3-2.1-0.3c-25.8,1.1-35.1-2.4-42.4,1.2c-0.7,0.3-0.7,1.3,0,1.7c7.7,3.8,17.2-0.1,25.1,2.2
		c40.5,11.3-342.6,3-394.3,7.2c-1.2,0.1-2.4,0.7-3.3,1.6c-11.6,12.3-9.8,13.4-41.2,13.4c-68,0-73.6,3.4-83.1,1.9
		c-17.3-2.7-32.8,0.3-48.3,5.3c-1,0.3-0.8,1.8,0.3,1.8c71.1,0.8,141.6,1.7,212.9,2.5c0.7,0,1.2,0.8,0.8,1.4
		c-4.7,7.2-57.4-0.8-272.4,9.9c-1.1,0.1-1.2,1.7-0.1,1.9c40.3,6.5,93.9-1.7,123.8,3.6c0.8,0.1,1,1.1,0.5,1.6c-1.1,1-1.9,1.9-2.9,2
		c-57.8,2.9-82.4-2.8-118.8,1.6c-3.9,0.5-8.4,0.2-22.8-0.9c-4-0.3-6.2-5.1-3.6-8.2c1.3-1.4,1.2-3.2-0.7-5.8
		c-0.2-0.2-0.4-0.4-0.7-0.4c-126.7-3.7-118.2,6.9-204.6,4c-22.1-0.7-40.6-12.4,6.8-12.1c196.8,1.3,182.7,6.8,168.7-19.6
		c-6.4-11.9-92.4-2-171-7.5c-0.7,0-1.1-0.8-0.8-1.4c1.3-2.4,4.4-2.3,6.5-2.4c60.3-1.4,74,0.6,98.4-2.4c0.2,0,0.5-0.1,0.6-0.3
		c2.5-2.8,1.7-5.6-2.6-5.8c-69.7-3.8-64.1,5.5-98.8-0.8c-2.2-0.3-3.7-2.7-5.9-5.2c-0.5-0.5-0.2-1.4,0.5-1.5
		c17.6-3.5,7.9,0.9,108.1-5.8c0.5,0,1,0,1.4,0.1c25.8,5,33.5,3.8,210.4,3.2c19.9-0.1,17.2-5.9,13.2-6.7c-16-3.4-32.2-6.6-48.5-9.9
		c-1-0.2-1-1.7,0-1.8c5.6-1,11.1-2,16.2-2.8c0.2,0,0.3-0.1,0.5-0.2c2.2-2.1,1.3-3.3-2.3-3.8c-15.8-1.9-31.3-2.5-46.7,2.3
		c-23.1,7.3-53.6,3.5,5.9,8c0.4,0,0.7,0.3,0.8,0.7c0.5,1.5,0.8,2.7,1.1,3.7c0.2,0.6-0.3,1.2-0.9,1.2c-150.5,5.5-88.7-12.4-82.1-21.9
		c0.2-0.3,0.2-0.6,0.1-0.9c-0.3-0.8-0.6-1.8-1.1-1.9c-23.4-3.9-51.6-4.8-82.6-1.2c-23.9,2.8-47.4-0.5-71-1.9c-2-0.1-3.8-1.2-5.6-2
		c-0.5-0.2-0.7-0.8-0.4-1.3c2.7-4.9-3.1-1.5,30.7-13.2c0.7-0.3,1.2-0.8,1.9-1.5c0.5-0.5,0.3-1.3-0.4-1.5
		c-26.7-7.9-33.1-4.7,45.3-8.7c2.6-0.8,2.2-3.1-1.2-3.1c-15.9-0.1-30.1-4.1-43.2-8.4c-0.8-0.2-1.6-0.3-2.4-0.2
		c-48.2,6.8-27.3,7.2-86.9,2c-0.1,0-0.2,0-0.3-0.1c-9.8-4.3-7.5-10.9-11-16.8c-0.8-1.3-2.1-2.2-3.5-2.5c-23.5-5.2-48-5.9-71.8,1.3
		c-0.5,0.2-1,0.2-1.6,0.2c-7.6-0.6-25.3-1.3-40-2.6c-6.4-0.6-6-10.1,0.4-10.2c26.2-0.5,68.2,9.8,99.7,1.1c16-4.4,33-3.4,50-4.4
		c0.6,0,1.1-0.7,0.8-1.3c-4.8-11.5-37.5-1-90.5-2.7c-5.4-0.2-6.9-7.5-2-9.8c56.6-26.5-75.3-15.3-129.2-17.9c-0.5,0-1.1-0.1-1.5-0.3
		c-1.1-0.4-2.3-0.7-3.4-0.7H5.6c-1.6,0-3.2-0.7-4.2-1.9L0,85.7V400h4080V5.1C4080,18.8,4075.9,56,4032.5,62.7z M346.2,213.4
		c2.3,1.1,3.4,1.9,4.1,2.4c0,0-0.1,0-0.1,0c0.6,0,1.3,0,1.8,0.1c0.1,0,0.2,0.1,0.3,0.1c0.2,0.1,0.5,0.3,0.7,0.4
		c0.2,0.1,0.3,0.2,0.5,0.2c33.7,0.6,36.1,0.3,37.4,1.5c0.6,0.5,0.3,1.5-0.5,1.6c-11.1,1.8-21.8,1.3-32.4-0.5
		c-1.7-0.3-3.1-1.4-4.6-2.4c-0.2-0.1-0.4-0.2-0.6-0.2l-1.7,0l0.2-0.1c-0.3,0.2-0.5,0-1-0.5c-0.2-0.2-0.4-0.2-0.6-0.2
		c-1.8,0-3.5,0.1-4.9-0.6c-0.8-0.4-0.7-1.5,0.1-1.7C345.5,213.3,346,213.2,346.2,213.4z M381.4,268.6c-10.8,3.2-23.9,1.1-56.8,0.6
		c-1.2,0-1.2-1.7-0.1-1.9c19.8-2,34.3-2.1,56.7-0.6C382.2,266.8,382.4,268.3,381.4,268.6z M283.7,269c-16.4,2.1-21,2.1-32.7,0.2
		c-1-0.2-1-1.7,0-1.8c12.8-2.1,19.1-2.2,32.7-0.2C284.8,267.3,284.8,268.9,283.7,269z M307.2,217c1.5,0.1,2.8,0.8,4.2,1.5
		c0.7,0.4,0.7,1.4-0.1,1.7c-3.3,1.2-5.3,0.8-46.6,0.3c-0.3,0-0.5-0.1-0.7-0.3C258.9,214,265.7,214.9,307.2,217z M220.3,167.9
		c42-0.4,39.9-0.3,41.8,0.9c0.4,0.3,0.6,0.8,0.4,1.2c-0.2,0.5-0.5,0.9-0.9,1c-16,2.4-13.1,0.6-22.9,0.2c-11-0.4-3.5,1.3-19.9-0.8
		c-0.9-0.1-1.1-1.3-0.4-1.7C219.1,168.2,219.7,167.9,220.3,167.9z M210.4,191.4c-0.1,0.5,0.1,1.4-0.2,1.4c-2.2,0.7-3.3,0.5-4.3,0
		c-0.7-0.4-0.7-1.4,0.1-1.7C207.5,190.5,207.2,190.8,210.4,191.4z M226.5,238.8c1.5,0.1,2.8,0.8,4.2,1.5c0.7,0.4,0.7,1.4-0.1,1.7
		c-3.3,1.2-5.3,0.8-46.6,0.3c-0.3,0-0.5-0.1-0.7-0.3C178.3,235.9,185.1,236.8,226.5,238.8z M131.3,229.4
		c-12.3,3.6-27.6,0.5-71.9,0.5c28.5-3.6,44.1-4.2,71.7-2.3C132.2,227.6,132.3,229.1,131.3,229.4z M74,141.8c0,1.8,0.7,1.5-2.6,0.7
		L74,141.8z M75.2,163.9c2.2,1.6,4.7,2.5,4.7,3.5c0,1.2-1.7,3.1-3.2,3.4c-1.9,0.3-4.3-0.7-6.4-1.2C71.9,167.8,73.5,165.9,75.2,163.9
		z M41,131.1c4.2,3.2-12,0.9-15.6,0.6C35.2,130.6,39.2,129.7,41,131.1z M37.9,197.7c22.3-0.5,44.9-2.6,66.9,1.9
		c1.1,0.2,1,1.7-0.1,1.8c-34.2,3.2-47.5,3-101.6-0.7C15.8,196.7,27.3,197.9,37.9,197.7z M55.8,242.5c-24.6,3.3-26.7,3.3-44.5,0.1
		C30,239.2,35.4,239.2,55.8,242.5z M11.3,284.5c28.5-3.6,44-4.2,71.7-2.3c1,0.1,1.2,1.5,0.2,1.8C70.9,287.6,55.6,284.5,11.3,284.5z
		 M77,262.8c12.7-4,24.2-2.8,34.8-3c22.3-0.5,45-2.6,66.9,1.9c1,0.2,1,1.7-0.1,1.8C144.4,266.8,131.1,266.6,77,262.8z M225.8,301
		c-1.1-0.1-1.2-1.6-0.1-1.8c10.5-2.2,20.2-1.4,29.3-1.6c22.3-0.5,45-2.6,66.9,1.9c1,0.2,1,1.7-0.1,1.8
		C288.8,304.4,275.3,304.4,225.8,301z M373.3,301.6c-0.6-0.2-0.6-1-0.9-1.6C382.2,298,379.3,303.8,373.3,301.6z M1695.2,273.1
		c9-0.1,7.5-0.3,7.6,0.9C1693.8,274,1695.3,274.3,1695.2,273.1z M1669,274.5c-1.9,0.7-3.6,0.1-5.3-0.5c-0.6-0.2-0.8-0.9-0.4-1.4
		c0.6-0.9,0.7-0.8,5.5,0.1C1669.8,272.9,1669.9,274.2,1669,274.5z M1146,297.9c-0.1-0.1-0.3-0.2-0.4-0.3c-0.1-0.1-0.3-0.1-0.5-0.1
		c-10.2-0.2-20.6-0.3-35.7-0.6c-1.1,0-1.3-1.7-0.1-1.9c12.5-1.9,27.2-3,35.9,2.4c0.1,0.1,0.2,0.1,0.4,0.1c0.5,0.1,1.1,0.1,1.6,0.1
		c0.1,0,0.2,0.1,0.3,0.2c-0.2,0.1-0.4,0.1-0.6,0.2C1146.6,298.1,1146.3,298.1,1146,297.9z M1743.2,291.9
		c-15.4,0.5-48.3,1.8-62.9-1.6c-21.2-5-29.7-3.4-154-0.7c-0.9,0-1.3,1.2-0.5,1.7c1.3,0.8,2.4,1.6,3,2.5c6.1,9.7-52.2,3-70.4,4.2
		c-6.2,0.4-11.3,4.7-18.3,2.9c-0.2,0-0.4-0.2-0.5-0.3c-1.7-2-3.4-4.1-5.1-6.1c-0.1-0.2-0.3-0.3-0.5-0.3c-8.2-2-16.2-2.8-24.2,0
		c-0.7,0.2-0.9,1.2-0.3,1.6c9.6,7.7,11,7.9-47.3,8.1c-203.1,0.7-205.6,1.8-213.5-4.9c-0.5-0.5-0.4-1.3,0.3-1.6
		c17.1-6.6,13.9-4,17.3-13.5c0.1-0.3,0.4-0.5,0.7-0.6c30.1-5.9,115.8,2.2,151.9-5.9c16.5-3.7,33.6,1.6,50.5-0.3c0.1,0,0.2,0,0.2,0
		c31.1,5.6,63,2.8,94.5,4.8c24.1,1.5,113.2-7.7,130-4.1c40.5,8.6,139.1,4.6,165-0.5c4.1-0.8,9,0.1,15.1,0.5c0.8,0.1,1.2,1.1,0.6,1.6
		C1766,287.1,1756.2,291.4,1743.2,291.9z M1999.7,267.2c10.7-2.6,20.6-1.5,31.2,0c1,0.2,1.1,1.7,0,1.8c-15.2,2.7-17.7,2.7-31.2-0.1
		C1998.7,268.8,1998.7,267.4,1999.7,267.2z M2123.8,259.8c0.2-0.1,0.4-0.1,0.7-0.1C2123.7,260.2,2123.4,260.2,2123.8,259.8z
		 M2125.3,261.6c-0.3-0.3-0.5-0.6-0.5-0.9c-0.4-0.1-0.7-0.3-1.1-0.5c1.2-0.8,0.8-0.3,1.1,0.5c0.9,0.4,1.7,0.9,2.6,1.3
		C2126.7,261.9,2125.6,261.9,2125.3,261.6z M2262.8,262c4.9-2,10.2-1.2,15.4-0.3c0.9,0.2,1,1.4,0.2,1.8c-4.5,1.8-6.3,1.7-15.3,0.3
		C2262.1,263.7,2262,262.4,2262.8,262z M2307.5,284.6c-0.2,0.3-0.5,0.4-0.8,0.4c-34.3,0-30.6,0.4-30.8-1.5
		C2301.2,280.8,2311.4,278.4,2307.5,284.6z M2393.5,293.9c-25.4,6.9-71.5-5.5-67.6-13.9c1.7-3.7,7.2-2.7,19-4.8c0.7-0.1,1-1,0.5-1.5
		c-2.4-2.7,0.8-1.2-25.3-5.2c-3.2-0.5-7.4-4.9-5.7-5.7c13.2-6.4,23.8,8.4,34.9-3.2c3.3-3.3,7.8-3.2,12.5-2.8
		c0.7,0.1,1.1,0.8,0.7,1.4c-0.6,1-1.2,2-1.8,3c-0.2,0.4-0.1,0.9,0.2,1.2c12.1,9.5,25.4-0.4,28.9,10.7c0.1,0.5-0.1,0.9-0.5,1.1
		c-5.3,2.5-10.7,5-17,7.9c-0.8,0.4-0.7,1.6,0.2,1.8c8,1.8,15,3.3,21.9,4.8c0.5,0.1,0.8,0.6,0.7,1.2
		C2394.6,291.7,2394.5,293.6,2393.5,293.9z M2700.8,268.4c-1.9,2.1-4.9,4.7-8,5.1c-23.2,2.7-46.5,3.1-73.6,1.4
		c-1-0.1-1.2-1.4-0.3-1.8c11.5-4.4,20.9-6.9,31.7-7.6c8.9-0.5,17.4-3.3,26.3-4.5C2697.6,258.2,2703,266,2700.8,268.4z M2727.7,262.2
		c8.5-0.8,6.5-0.9,8.1,0.5C2727.3,263.6,2729.4,263.7,2727.7,262.2z M3937.9,115.3c0,1.4,0.7,1.2-2.8,0.5L3937.9,115.3z
		 M3856.2,115.3l2.2,0.8C3855,116.2,3855.6,116.5,3856.2,115.3z M3833.3,115.2c3.3,0.8,3.2,1.4-0.3,1.5c-0.1,0-0.3,0-0.4-0.1
		c-0.7-0.4-1.5-0.6-2.2-1C3831.3,115.4,3832.5,115,3833.3,115.2z M3781.7,160.2c2.2,3.3,2.4,2.8,0.5,4.2c-0.4,0.3-1,0.2-1.3-0.2
		c-2.5-3.7-2.4-3.1-0.4-4.2C3780.9,159.7,3781.4,159.8,3781.7,160.2z M3710.6,220.2c9.8-5.1,21.3-7.7,33-5.4c9.2,1.8,18.5,0,27.1,2
		c8.1,1.8,15.3,1.6,23-0.3c26.4-6.6,31.1,3.2,38,1.6c15.8-3.6,31.1,1.6,46.7,0.8c12-0.6,69.6-1.2,89.5,2c0.7,0.1,1,0.9,0.6,1.4
		c-2.7,4-17.6,3.1-250.8,1.4c-2.2,0-4.6-0.6-6.8-1c-0.4-0.1-0.8-0.5-0.8-0.9C3710.1,221.1,3710.1,220.4,3710.6,220.2z M3770.2,236.3
		c26.8,0,50.1,0,70.5-0.1c0.3,0,0.6-0.1,0.7-0.4c0.1-0.2,0.3-0.4,0.4-0.5c4.5-5.1,12.1-5.7,18.9-5.5c17.7,0.5,35.4,3.5,53.1,2.7
		c21.5-0.9,43.7-7.2,64-0.2c2,0.7,4.1,1.6,5.5,3.2c0.8,0.9,1.4,2,1.7,3.2c0,0.2,0.1,0.3,0.2,0.4c0.1,0.1,0.3,0.3,0.5,0.4
		c0.4,0.3,0.5,0.9,0.1,1.3c-0.2,0.2-0.3,0.4-0.4,0.6c-0.1,0.1-0.2,0.3-0.2,0.5c-0.1,1.7-0.6,3.3-1.4,4.7c-1.9,3.4-5.3,5.7-8.8,7.5
		c-8.2,4.2-17.4,5.7-26.4,7c-25.1,3.5-50.6,4.9-76,4.2c-9.1-0.2-18.7-0.9-26-6.2c-0.6-0.4-1.1-0.9-1.6-1.4c-0.2-0.2-0.4-0.3-0.6-0.3
		c-13.4-0.6-14.4-0.6-2-0.8c0.8,0,1.2-0.9,0.7-1.5c-2.5-3.2-4-7-4.2-10.8c0-0.5-0.4-0.9-0.9-0.9c-91.4-0.5-201.6-0.6-217.7,1.4
		c-0.4,0-0.7,0.3-0.8,0.7c-0.8,2.7-1.4,4.8-1.9,6.8c-0.1,0.4-0.5,0.7-0.9,0.7c-14.9,0.5-15.2,0.4-24.5-8.1c-0.1-0.1-0.2-0.2-0.3-0.2
		c-13-4.5-27.7,0.9-41.3-3.1c-0.6-0.2-0.9-0.9-0.5-1.5C3553.2,236.2,3551.2,236.6,3770.2,236.3z M3561.8,252.2
		c-1.2,0.7-1.4,0.9-3.7,0.3c-1-0.3-0.9-1.7,0.1-1.8c2.1-0.3,2.7-0.3,3.3-0.1C3562.3,250.7,3562.5,251.8,3561.8,252.2z M3619,173.2
		h-0.1c-0.2-0.1-0.5-0.3-0.7-0.5C3621.8,171.3,3621.6,171.1,3619,173.2z M3594.2,160.2c-9.6,1.6-19.4,2.7-30.1,0
		c-0.9-0.2-0.9-1.5,0-1.8c10.7-3.1,20.5-1.3,30.1,0C3595.2,158.5,3595.2,160,3594.2,160.2z M3539,159.9l-3.2-0.9
		C3540.4,158.6,3539.6,158.3,3539,159.9z M3574.1,185.9c4.2-0.9,4.2-6.9,0-7.8c-0.3-0.1-0.5-0.1-0.8-0.2c-3.8-0.8-4.2-6.1-0.6-7.6
		c11-4.4,28.7,0.1,45.5,2.8c0.6,0.1,1.1,0.4,1.6,0.7c11.7,7.6,42.2,1.8,55.9,10.2c0.8,0.6,1.4,1.4,1.7,2.3c0.1,0.3,0.1,0.5-0.1,0.6
		c-32.9,17.8-18,10-45,13.7c-14.2,1.9-28.5,1.7-42.9,1.9c-47.4,0.5-81.6,4.7-110.9,3.6c-4.6-0.1-5.3-6.7-0.7-7.8
		c18.2-4.8,26.6-2.5,41.3-5.8c0,0,0.1,0,0.1,0c0.7-0.2,2.4-1.3,3.5-2.3c0.6-0.6,1.5-0.9,2.3-0.9
		C3548.3,188.4,3562.4,188.3,3574.1,185.9z M3524.2,188.8c0,0.1-0.1,0.1-0.2,0.2c-0.1,0.1-0.2,0.3-0.4,0.4c-0.1,0-0.1,0-0.2,0
		c-0.2-0.3-0.5-0.6-0.8-0.8C3523.6,188.7,3524.1,188.7,3524.2,188.8z M3519.9,188.5c-2.8-0.1-7.4-0.3-14.6-0.5c-1,0-1.2-1.5-0.3-1.8
		c7.9-2.7,11.1-2.6,15.4,0.7C3521.2,187.4,3520.8,188.6,3519.9,188.5z M3477.9,157.2c5.9,0,12-0.6,18.4,1.6c1,0.3,0.8,1.8-0.3,1.8
		c-19.3,0.6-16.4,0.9-19.9-1.2c-0.6-0.4-0.6-1.3,0-1.6C3476.8,157.4,3477.4,157.2,3477.9,157.2z M3477.2,187.2
		c-5.3,2.7-9.9,1.5-16,0.8c-1-0.1-1.1-1.5-0.2-1.8c6.5-2.2,11.2-2.3,16.1-0.7C3477.8,185.8,3477.9,186.8,3477.2,187.2z
		 M3441.5,217.3c108.9-3.1,124.7-4.8,126.8-5.2c0.2,0,0.3,0,0.5,0c1.5,0.5,14,2,104.8,4.9c0.3,0,0.7,0.2,0.8,0.5
		c2,3.9-2,4.3-4.9,4.7c-79.9,10.5-83.3,0.3-228.1-1.7C3439.3,220.5,3439.4,217.4,3441.5,217.3z M3218.9,247.5
		c-13.8,0.2-20,0.5-24.7-0.7c-1-0.3-0.8-1.8,0.3-1.8c21.7,0,23.5-0.3,25,0.9C3220.1,246.4,3219.8,247.5,3218.9,247.5z M3153.3,246.4
		c-4.2,0.8-2.6,0.9-6-0.6C3151.4,245,3149.8,244.9,3153.3,246.4z M3110.3,245.3c11.7,0.6,10.2,0.2,10,1.7
		C3108.6,246.3,3110.1,246.8,3110.3,245.3z M2938.7,240c15.2,3.1,30.6-0.8,46.3,1.8c13.3,2.2,27.1,2.9,43,3.7c1.2,0.1,1.2,1.8,0,1.9
		c-106.1,3-98.1,4.2-113.2,0c-0.9-0.2-0.9-1.5,0-1.8C2926.2,242,2935.1,239.2,2938.7,240z M2955.5,278c25.4-2.2,37.9-2.3,70.3-0.1
		c1.2,0.1,1.2,1.8,0,1.9c-25.6,1.9-47.2,1.8-70.2,0.1C2954.4,279.8,2954.3,278.1,2955.5,278z M3101.9,279.6c0.1-2.3-0.8-2,3.5-0.8
		L3101.9,279.6z M3192.2,278.1c1.4-0.2,2.8,0,4.2,0.5c0.8,0.3,0.7,1.4,0,1.7c-1.1,0.5-1.3,0.4-4.3-0.4
		C3191,279.6,3191.1,278.2,3192.2,278.1z M3230.7,278.9c6.3-1.3,11.4-0.7,16.2-0.3c1,0.1,1.2,1.6,0.1,1.8c-4.8,1.1-10,1.6-16.3,0.3
		C3229.7,280.5,3229.7,279.1,3230.7,278.9z M2901.5,263.8c-1.1-0.1-1.2-1.7-0.1-1.8c50.2-6.7,390.1,6.5,430.5-8.8
		c18.8-7.1,38-5.4,56.4,1.6c0,0-0.1-0.1-0.1-0.1c0,0,0.1,0.1,0.1,0.1c0,0,0-0.1-0.1-0.1c-0.7-0.4-0.5-0.4,0,0
		c-0.2-0.4,0.2-0.7,1.3-0.8c5.3-4.7,12-5.6,20.7-3.5c0.9,0.2,1,1.6,0,1.8c-7.3,1.8-16.7,1.2-20.5,1.6c-0.2,0-0.3,0.1-0.5,0.2
		c-0.3,0.2-0.6,0.5-0.9,0.8c1.7,1.3,5.8,4.3,7.7,4.5c18.2,2.2,36.5,1.7,54.4,0.3c0.1,0,0.3-0.1,0.4-0.1c5.3-3.3,10-6.1,14.7-9
		c0.1-0.1,0.3-0.1,0.4-0.1c37.3-2.8,34.6,0.5,37.9,8.9c0.1,0.3,0.5,0.6,0.8,0.6c81.7,3.6,109-2.9,114.4,8.6c0.2,0.5,0,1.1-0.5,1.3
		c-19.3,6.5-120.4,0.7-252.1,1.7C3242.1,272.6,3029.9,272.4,2901.5,263.8z M3278.6,281.4c-0.3,0.1-0.6,0.3-0.8,0.4c0,0-0.1,0-0.1,0
		c-3.4,1.3-3.1,1.5-0.8-0.6l0.3,0.2c-0.8-0.6-0.1-0.6,1.4-0.3c0.2,0,0.4,0,0.6-0.1c11.4-5.3,14.5-5.2,22.2,0.7
		c0.6,0.5,0.4,1.4-0.3,1.6c-7.2,2-17.3-0.9-21.9-2.1C3279,281.3,3278.8,281.3,3278.6,281.4z M3319.6,282.4c-2.4-2.4,2.3-4.2,3-1.2
		c0.1,0.5-0.2,1-0.7,1.2c-0.6,0.1-1.2,0.3-1.6,0.3C3320.1,282.7,3319.8,282.6,3319.6,282.4z M3372.1,327.7l2.3,0.8
		C3370.9,328.7,3371.5,329,3372.1,327.7z M3568.2,303.2c-1,0-105.6,0.7-125.2-1.2c-0.2,0-0.3-0.1-0.5-0.2c-3.1-2.2-4.6-6.1-0.9-6.1
		c31.4-1,62.9-3.7,94.3,0.3c7.1,0.9,9.5-2.1,31-0.6C3581.6,296.4,3577,302.9,3568.2,303.2z M3760.9,325.8
		c-1.1,0.1-123.7,2.1-142.7,0.2c-3.2-2.3,12.3-7.6,16.1-7.7c31.4-1,62.9-3.7,94.3,0.3c7.1,0.9,9.5-2.1,31-0.6
		C3774.3,319.1,3769.7,325.5,3760.9,325.8z M4033,277.2c8.3,7.3,4.4,6.6-18,10.8c-0.8,0.2-1,1.2-0.3,1.7c2.3,1.5,4.2,2.7,6.1,3.9
		c0.7,0.4,0.5,1.5-0.3,1.7c-31.2,8.6-54-2.4-100.7,4c-15.3,2.2-30.1-2.2-45.3-4.1c-1-0.1-1.1-1.6-0.1-1.8c9.2-2.1,18.6-1.8,27.9-2.8
		c11.4-1.2,22.8,2.4,34-0.5c0.8-0.2,0.9-1.4,0.1-1.7c-0.6-0.3-1.6-0.5-3.2-0.5c-46.7-0.9-82.7-1.7-110.1-2.2c-0.1,0-0.1,0-0.2,0
		c-3.2,0.5-7.4,1.3-12.7,2.3c-0.8,0.2-1,1.2-0.3,1.7c2.3,1.5,4.2,2.7,6.1,3.9c0.7,0.4,0.5,1.5-0.3,1.7c-31.2,8.6-54-2.4-100.7,4
		c-16.7,2.4-57.1,5.3-50.4-4.3c0.1-0.2,0.3-0.3,0.5-0.4c10.5-3.4,21.6-2.9,32.4-4c11.4-1.2,22.8,2.4,34-0.5c0.8-0.2,0.9-1.4,0.1-1.7
		c-0.6-0.3-1.6-0.5-3.2-0.5c-58.6-1.2-100.2-2-129.3-2.6c-0.2,0-0.3,0.1-0.5,0.1c-5.2,2.9-34.4,2.1-249.8,0.6c-2.2,0-4.6-0.6-6.8-1
		c-0.4-0.1-0.8-0.5-0.8-0.9c0-0.7,0-1.4,0.5-1.6c9.8-5.1,21.3-7.7,33-5.4c9.2,1.8,18.5,0,27.1,2c8.1,1.8,15.3,1.6,23-0.3
		c26.4-6.6,31.1,3.2,38,1.6c15.8-3.6,31.1,1.6,46.7,0.8c7.2-0.3,30.3-0.6,52.1-0.2c0.1,0,0.1,0,0.2,0c7.1-1.3,13.8-4.4,21.6-1.7
		c0.2,0.1,0.3,0.1,0.5,0c14-3.3,28.2-2.5,42.4-0.8c0.8,0.1,161.2-6.1,200.9-2.3c0.2,0,0.4,0.1,0.5,0.2c0.8,0.7,1.5,1.4,2.2,2
		c0.4,0,0.9,0.2,1.3,0.1c18.9-4.9,292.9-41.9,202.1-2.7C4032.6,276,4032.5,276.8,4033,277.2z M4066.1,206.5
		c-4.6,0.4-9.1,0.4-13.7,0.3c-5.5-0.2-11.1-1.1-16-3.6c-0.3-0.1-0.6-0.1-0.9,0c-1.5,0.9-3.6,1.4-6.2,1.5c-0.6,0-46.4,0.3-83.1,0
		c0,0.1-0.1,0.1-0.2,0.2c-3.7,2.3-8.2,2.4-12.5,2.4c-20.7,0.1-41.3,0.2-62,0.3c-2.9,0-6,0-8.6-1.2c-2.6-1.2-4.8-4-4.3-6.9
		c0.4-2.5,2.5-4.2,4.5-5.7c4.1-3.2,8.2-6.3,12.4-9.4c0.7-0.5,0.4-1.7-0.5-1.7c-28.1-0.4-63.5-1.4-114.4-2.1c-0.9,0,8.9-4.6,9.8-7.5
		c0.3-1.1,1.1-1.9,2.2-1.9c109.9-3,128.5-4.8,131.5-5.3c0.3-0.1,0.6-0.1,0.9,0c2.3,0.5,16.9,2.1,103.5,4.8c1.3,0,2.5,1,2.5,2.3
		c0,2.2-3.1,2.6-5.4,2.9c-2.7,0.3-5.3,0.7-7.9,1c6.1,0,19.7-0.7,33-1.4c15.3-0.8,30.3,5,41,15.9c0.1,0.1,0.2,0.2,0.2,0.2
		C4077,197.1,4073.5,206,4066.1,206.5z M3803.9,140.9c-2.6,0,17.7-9,15.2-9.4c0.1-0.8-0.2-2.1,0.5-2.4c9.8-5.1,21.3-7.7,33-5.4
		c9.2,1.8,18.5,0,27.1,2c8.1,1.8,15.3,1.6,23-0.3c26.4-6.6,31.1,3.2,38,1.6c15.8-3.6,31.1,1.6,46.7,0.8c12.4-0.6,72.2-1.1,90.7,2.2
		C4075.7,135.3,4058.2,142.8,3803.9,140.9z"/>
	<path class="elementor-shape-fill ha-shape-divider" d="M3783.9,289.2v-0.7C3780.5,289,3780.5,288.8,3783.9,289.2z"/>
	<path class="elementor-shape-fill ha-shape-divider" d="M3594.1,130.8c5.4,2,3.4,2.7,11.6-2.2c0.7-0.4,0.6-1.5-0.2-1.7c-8.8-2.5-8.4-2.3-11.8,2.5
		C3593.3,129.9,3593.5,130.6,3594.1,130.8z"/>
	<path class="elementor-shape-fill ha-shape-divider" d="M3163.6,181.6c0.6-0.2,0.8-0.9,0.5-1.4c-4.8-7.7-29.3,2.4-117.4-4.7c-19.7-1.6-39.8-0.4-61.8-0.3c-0.9,0-1.3,1.2-0.5,1.7
		c4.5,2.8,8.8,5.5,26.7,5.7C3170.1,183.7,3157.6,183.6,3163.6,181.6z"/>
	<path class="elementor-shape-fill ha-shape-divider" d="M3388.5,254.9c-0.1-0.1-0.1-0.1-0.2-0.1c0,0,0,0,0,0.1C3388.4,254.8,3388.4,254.9,3388.5,254.9z"/>
	<path class="elementor-shape-fill ha-shape-divider" d="M3388.3,254.8C3388.3,254.8,3388.3,254.8,3388.3,254.8C3388.3,254.8,3388.3,254.8,3388.3,254.8
		C3388.3,254.9,3388.3,254.8,3388.3,254.8z"/>
	<path class="elementor-shape-fill ha-shape-divider" d="M3934.9,189.4c0.4-3.8,22.8-4.4,31.2-7.1c1.1-0.3,0.7-1.9-0.4-1.8c-24.9,2.2-46,2.8-74.2,2.5c-0.6,0-1,0.5-0.9,1.1
		c0,0.2,0.1,0.3,0.1,0.5c0.1,0.4,0.4,0.8,0.9,0.8c19.3,0.5,38.8,3.3,57.4,8.5c0.2,0.1,0.4,0.2,0.5,0.4c0.2,0.2,0.3,0.5,0.4,0.7
		c0.1,0.4,0.5,0.6,0.9,0.6c11.3-0.2,22.7-0.1,33.9,0.8C3959.6,193.7,3934.7,191.1,3934.9,189.4z"/>
	<path class="elementor-shape-fill ha-shape-divider" d="M2946,147.5c0.2,2.3,4.2,5.9,7.3,5.7c14.4-0.8,27.1,3.3,41.5,4.2c6.4,0.4,7.6-8.9,1.3-10.1c-7.4-1.3-17.5-3.2-31.7-5.7
		C2956.6,140.2,2945.6,142,2946,147.5z"/>
	<path class="elementor-shape-fill ha-shape-divider" d="M1459,263.6c11.3,0.7,19.3,1.9,27.1-0.5c0.9-0.3,0.8-1.7-0.2-1.8c-8.3-1.1-16.3-1-27,0.4
		C1457.8,261.9,1457.9,263.5,1459,263.6z"/>
	<path class="elementor-shape-fill ha-shape-divider" d="M3174.8,33.2c0,1.5-2.2,1.2,14.5,1.1C3188.3,32.8,3190.7,33.2,3174.8,33.2z"/>
	<path class="elementor-shape-fill ha-shape-divider" d="M3015.1,163.2c-10.6-1.4-20.1-2.8-29.6,0.3c-0.9,0.3-0.9,1.6,0,1.8c9.6,2.3,19.1,1.4,29.6-0.2
		C3016.2,164.9,3016.2,163.3,3015.1,163.2z"/>
	<path class="elementor-shape-fill ha-shape-divider" d="M2967.8,34.4c-3-2.4-5.6-1.4-8.6-0.6C2961.1,35.4,2958.8,35.3,2967.8,34.4z"/>
	<path class="elementor-shape-fill ha-shape-divider" d="M3578,24.2c18.2,1.2,36.6,1.7,56.7,0.1c1.1-0.1,1.1-1.7,0-1.9c-19.9-2-38.5-1.2-56.7-0.1
		C3576.9,22.4,3576.9,24.1,3578,24.2z"/>
	<path class="elementor-shape-fill ha-shape-divider" d="M3557.7,55.8c-6.8-3.9-13.5-3.1-20.3,0.2c-0.7,0.3-0.7,1.3-0.1,1.7c6.8,3.9,13.6,2.9,20.3-0.2
		C3558.3,57.1,3558.3,56.2,3557.7,55.8z"/>
	<path class="elementor-shape-fill ha-shape-divider" d="M3630,63.7c5.4,1.5,11.1,1,17.6-1.2c0.6-0.2,0.8-0.9,0.4-1.5c-1.6-2.1-2.7-4.2-4.9-5.2c-3.7-1.6-7.5-2.4-11.6-2.2
		C3625.8,54,3624.5,62.1,3630,63.7z"/>
	<path class="elementor-shape-fill ha-shape-divider" d="M3438.7,59.8c-3.8-0.5-7.6-0.4-11.4,0.1c-1.1,0.1-1.1,1.7,0,1.9c3.8,0.4,7.6,0.6,11.4-0.1
		C3439.7,61.5,3439.7,59.9,3438.7,59.8z"/>
	<path class="elementor-shape-fill ha-shape-divider" d="M3442.1,129.3c-9.9-2.3-8-2.3-10.9,0.9c-0.4,0.4-0.3,1.1,0.2,1.4c1.4,0.8,2.8,1.7,4.2,1.8c3.2,0.2,5.6-0.8,6.9-2.6
		C3443.1,130.2,3442.8,129.5,3442.1,129.3z"/>
	<path class="elementor-shape-fill ha-shape-divider" d="M3273.4,151.3c-2.6-6.8-33.4-2.8-46.8,1.1c-0.9,0.3-0.9,1.6,0.1,1.8C3243.4,157.2,3275.8,157.7,3273.4,151.3z"/>
	<path class="elementor-shape-fill ha-shape-divider" d="M2805.1,173.4c0.5-0.5,0.3-1.3-0.4-1.6c-37.5-12.1-19-2.8-45.4-7.5c-5.1-1-10.1-3-15.1-2.9c-19.8,0.3-39.7-0.1-59.4,2.1
		c-55.1,6.1-40.6,2-53.2,6.1c-0.7,0.2-0.9,1.1-0.3,1.6c2.3,1.8,4.3,3.9,6.8,4.2c20.4,2.8,42,0.6,61.2,7.5c0.4,0.2,1,0.3,1.5,0.3
		c63.3,1.1,45.5,3.4,100.4-7.4C2802.8,175.7,2803.9,174.5,2805.1,173.4z"/>
	<path class="elementor-shape-fill ha-shape-divider" d="M1174.5,210.8c0.7-0.1,1.4-0.9,2.1-1.8c0.4-0.6,0.1-1.4-0.6-1.5c-17.3-2.1-18.7-2.2-28.4,0.9c-0.8,0.2-0.9,1.3-0.2,1.7
		C1150.1,211.8,1150.7,212.6,1174.5,210.8z"/>
	<path class="elementor-shape-fill ha-shape-divider" d="M1209.4,29c8.4,1.1,6.2,1.1,8.2-0.3C1209.3,27.7,1211.6,27.6,1209.4,29z"/>
	<path class="elementor-shape-fill ha-shape-divider" d="M1158.5,181.2c-2.6,0.4-11.2,5.2,0.8,6c0,0,0.1,0,0.1,0c10.8-0.7,9.2,0.2,12.6-4.7C1173.5,180.5,1161.6,180.7,1158.5,181.2
		z"/>
	<path class="elementor-shape-fill ha-shape-divider" d="M1144.7,44.1c-9-1.6-11.5-1.8-26.6,0c-1.1,0.1-1.1,1.8,0,1.9c10,0.8,18.1,1.6,26.5-0.1
		C1145.7,45.8,1145.7,44.3,1144.7,44.1z"/>
	<path class="elementor-shape-fill ha-shape-divider" d="M558.7,196.3c-0.9,0.2-0.9,1.4-0.1,1.8c29.6,12,27.5,0.2,23.8-0.6C574.7,195.7,566.7,193.9,558.7,196.3z"/>
	<path class="elementor-shape-fill ha-shape-divider" d="M1408.8,143.8c1.1,1.7,4.4,1.2,12.4,0c1.1-0.2,1.1-1.7,0-1.8C1414.3,141,1406.7,140.3,1408.8,143.8z"/>
	<path class="elementor-shape-fill ha-shape-divider" d="M598.9,180.2c1.8-1-0.8-5.6-3.8-7.1c-10.4-4.8-10.2-0.7-34-14.5c-0.7-0.4-1.6-0.7-2.4-0.7c-55.7-2.7-59.7-0.5-53.8,3.4
		c3.8,2.5,2.8,8.4-1.7,9.3c-7,1.3-18.2,0.7-39.9,1.3c-28,0.8-23.1,1-44.5,7.2c-0.6,0.2-1.3,0.3-1.9,0.2c-51.6-4.2-46.3-4.4-49.4-1.7
		c-0.4,0.4-0.4,1.1,0.1,1.5c11.4,8.9,30.3,2.1,71.9,3.5c49.3,1.7,83.4,2.2,153.5,0.3C595,182.9,597.1,181.3,598.9,180.2z"/>
	<path class="elementor-shape-fill ha-shape-divider" d="M1166.4,33.1c1.6-0.3,2.8-1.5,4-2.7c0.5-0.5,0.4-1.3-0.3-1.6c-1.8-0.7-3.7-1.4-5.5-1.4c-11.8,0.4-23.8,0.3-35.3,1.8
		c-12.1,1.5-23-3.6-34.9-1.7c-8.7,1.4-4.5-2-13.7,5.7c-0.7,0.6-0.3,1.6,0.6,1.6C1154.9,35,1142.6,38.2,1166.4,33.1z"/>
	<path class="elementor-shape-fill ha-shape-divider" d="M1089.8,188c0.1,0,0.3-0.1,0.4-0.2c7.4-7.6-9.9-5.9-41.8-3.9c-1.2,0.1-2.3,1-3.9,2.3c-0.7,0.5-0.3,1.6,0.5,1.7
		C1080.3,189.5,1084.1,189.9,1089.8,188z"/>
	<path class="elementor-shape-fill ha-shape-divider" d="M1013.7,147.2c-3.6-1.2-7.1-2.1-11.1-0.5c-0.7,0.3-0.8,1.3-0.1,1.7c3.4,2,7.2,1.2,11,0.6
		C1014.5,148.8,1014.6,147.5,1013.7,147.2z"/>
	<path class="elementor-shape-fill ha-shape-divider" d="M1074.4,163.9c0.9-1.1-11.3-4.7-17.2,0.4c-0.5,0.4-0.4,1.3,0.2,1.6c4.1,2,8.8,2,13.2,1.3
		C1072.3,166.8,1073.4,165.1,1074.4,163.9z"/>
	<path class="elementor-shape-fill ha-shape-divider" d="M1100.1,143.5c0.3,0,0.5-0.1,0.7-0.3c2.4-2.9,1.5-6.1-2.5-5.7c-34.1,3.5-20.1-1.1-53.6,3.5c-0.8,0.2-1.3,1.5-1.8,2.9
		c-0.3,0.6,0.1,1.2,0.7,1.3C1063,147.9,1081.6,143.2,1100.1,143.5z"/>
	<path class="elementor-shape-fill ha-shape-divider" d="M390.5,15.8c-53.9-0.4-52,4.9,9.9,2.9c1.1,0,1.2-1.6,0.2-1.8C397.2,16.1,393.8,15.8,390.5,15.8z"/>
	<path class="elementor-shape-fill ha-shape-divider" d="M232.3,136.4c-4.1-2.2-3.2-2.2-7.6-0.2c-0.7,0.3-0.7,1.3,0,1.7c3.9,2,3.3,1.9,7.6,0.2C232.9,137.8,233,136.8,232.3,136.4z"
		/>
	<path class="elementor-shape-fill ha-shape-divider" d="M157.5,60.2c1.5-0.4,3-0.9,4.5-1.3C160.1,59.3,158.6,59.8,157.5,60.2z"/>
	<path class="elementor-shape-fill ha-shape-divider" d="M321.4,139.7c-1.2,4.7,6.2,8.9,12.1,8.2c31.8-4,75.3,3.6,112.2,3.7c6.4,0,6.9-9.5,0.5-10.2c-12.3-1.4-29.5-3.7-56.2-16.1
		c-7.3-3.3-14.9-6.4-22.8-9.8c-0.6-0.3-1.3-0.4-2-0.4c-29.3,0-48.5,0-61.1,0.2c-6.4,0.2-6.7,9.6-0.3,10.2
		c14.9,1.5,15.1,1.7,17.6,3.5c2,1.4,2.8,4.1,1.7,6.3C322.4,136.9,321.8,138.3,321.4,139.7z M340.6,128.6c3.1,1.1,3.7,1.3,3.5,1.9
		c-0.3,0.8-1.2,1.2-2,0.9c-3.7-1.3-4-1.3-3.5-2.1C339,128.6,339.8,128.3,340.6,128.6z"/>
	<path class="elementor-shape-fill ha-shape-divider" d="M475.2,158.8c-4-0.7-5.8-0.7-9.2-0.1c-1,0.2-1,1.7,0,1.8c3.2,0.5,6.2,0.6,9.2,0.1C476.2,160.5,476.2,159,475.2,158.8z"/>
	<path class="elementor-shape-fill ha-shape-divider" d="M575.2,247.3c1.1-0.1,1.2-1.7,0-1.9c-37.5-3.8-119.1,3.4-148-4c-12.9-3.3-26-2.4-38.8,0.7c-1.6,0.4-2.8,1.5-4.3,2.7
		c-0.6,0.5-0.4,1.4,0.4,1.6c3,0.8,5.7,1.7,8.5,1.7c10.6,0.4,21.2,0.9,31.7,0.4C478,246,526.3,250.3,575.2,247.3z"/>
	<path class="elementor-shape-fill ha-shape-divider" d="M477.8,277.7c-12.6-3.5-18.5-5.1-21.3-5.9c-0.6-0.2-1.3,0.3-1.2,1c0.8,8.5,9.2,8.3,22.3,6.8
		C478.7,279.4,478.8,278,477.8,277.7z"/>
	<path class="elementor-shape-fill ha-shape-divider" d="M543.7,146.7c1.5-5.3-7.7-3.1-26.4,0c-0.5,0.1-0.9,0.6-1.2,1.2c-0.3,0.5-0.1,1.1,0.5,1.3
		C527.3,153.3,543,149.7,543.7,146.7z"/>
	<path class="elementor-shape-fill ha-shape-divider" d="M434.1,30.9c19-0.4,38.1-0.9,57.1-1.4C471.6,28.5,451.9,26.7,434.1,30.9z"/>
	<path class="elementor-shape-fill ha-shape-divider" d="M382.4,28.3v0.9C386,28.6,386,28.9,382.4,28.3z"/>
	<path class="elementor-shape-fill ha-shape-divider" d="M1014.3,31.5c1.6-4.3-9.3-4.4-16.9-3.2c-0.9,0.1-1.1,1.4-0.3,1.8C1004.9,33.9,1013,35,1014.3,31.5z"/>
	<path class="elementor-shape-fill ha-shape-divider" d="M262,40c-9.3,1.5-19.2,3.2-29.1,4.9c-0.7,0.1-1.3,0.7-1.5,1.4c-1.3,5.8,0.6,6-19.9,13c-1.8,0.6-1.6,3.3,0.3,3.6
		c2.4,0.5,4.4,0.7,6.3,0.6c73.7-6.5,78.2-9,97.9-4.1c39.4,9.8,55.3-1.3,125.7-2c14.9-0.2,20.3,0.3,22.8,0.2c2.4-0.1,2.3-3.7-0.1-3.8
		c-23.7-0.3-46.3,0.6-70-1.2c-2.6-0.2-3.7-3.4-1.8-5.1l0.1-0.1c1.8-1.8,0.7-4.9-1.8-5.1c-55.5-5-75.9,2.4-128.4-2.5
		C262.3,40,262.1,40,262,40z"/>
	<path class="elementor-shape-fill ha-shape-divider" d="M350.5,29l3.4-0.3C350.2,27.6,351.1,27.4,350.5,29z"/>
	<path class="elementor-shape-fill ha-shape-divider" d="M1362.8,296.6c4.9,0.2,9.7,0.1,15.8-0.5c1.1-0.1,1.1-1.7,0-1.9c-6.4-0.8-11.4-1.6-16.1,0.6
		C1361.6,295.3,1361.8,296.6,1362.8,296.6z"/>
	<path class="elementor-shape-fill ha-shape-divider" d="M1389.4,204.6c0-1.7-9-1.7-14.8,2.8c-0.6,0.5-0.4,1.4,0.3,1.6c4.4,1.5,9,1.3,13.3-0.2
		C1389.3,208.5,1389.3,206.1,1389.4,204.6z"/>
	<path class="elementor-shape-fill ha-shape-divider" d="M1318.5,28.1c-0.3,0-0.6,0.8-1,1.2C1321.7,30.9,1323.3,28,1318.5,28.1z"/>
	<path class="elementor-shape-fill ha-shape-divider" d="M1386.1,181.1c0.6-0.3,0.7-1,0.3-1.5c-0.2-0.3-0.5-0.5-0.8-0.6c-3.3-0.7-6.7,2.4-1,2.5
		C1385,181.6,1385.6,181.4,1386.1,181.1z"/>
	<path class="elementor-shape-fill ha-shape-divider" d="M1382.2,230.9c0.9-0.1,1.2-1.2,0.5-1.7c-4.9-3.7-10.2-5.3-15.9-5.4c-20.9-0.3-41.8-0.4-62.2,3.5c-1.4,0.3-2.6,1-4.1,1.8
		c-0.8,0.5-0.5,1.7,0.4,1.7C1325.7,231.4,1357.5,232.6,1382.2,230.9z"/>
	<path class="elementor-shape-fill ha-shape-divider" d="M1177.2,143.3c13.8,3.4,22.5,3.5,42.7,0.5c1-0.2,1.1-1.7,0-1.8c-20.6-3.7-29-3.8-42.7-0.5
		C1176.3,141.7,1176.3,143.1,1177.2,143.3z"/>
	<path class="elementor-shape-fill ha-shape-divider" d="M1300.4,141.7c-18.1-4.2-22.4-4.1-32.6,0.6c-0.8,0.4-0.7,1.6,0.2,1.8c11.6,2,13.9,2,32.3-0.5
		C1301.3,143.4,1301.4,142,1300.4,141.7z"/>
	<path class="elementor-shape-fill ha-shape-divider" d="M1427.1,209.2c4.1-0.1,8.4-0.5,12.8-0.8c0.7,0,1.1-0.8,0.7-1.4c-4.4-6.5-17.3-6.1-20.6-2.5
		C1418.5,206.3,1422.5,209.2,1427.1,209.2z"/>
	<path class="elementor-shape-fill ha-shape-divider" d="M1405.6,178.3c1.3,2,4.4,5.7,8.1,2.2c0.3-0.3,0.4-0.8,0.1-1.2c-3.1-4.6-1.9-3.9-7.7-2.4
		C1405.6,177,1405.3,177.8,1405.6,178.3z"/>
	<path class="elementor-shape-fill ha-shape-divider" d="M1205.8,247.1c0.3,0.4,1.6,0.5,2.5,0.7c0.2,0,0.3,0,0.5,0c0.3-0.1,0.6-0.2,0.9-0.3c0.8-0.2,0.9-1.3,0.2-1.7
		c-0.2-0.1-0.5-0.2-0.7-0.3C1206.3,245.1,1204.9,245.8,1205.8,247.1z"/>
	<path class="elementor-shape-fill ha-shape-divider" d="M1287.7,27.3c-19.8,0-20.4-0.1-28.6,0.4c-1.2,0.1-1.2,1.8,0,1.9c9.7,0.8,19.4,1.3,28.8-0.4
		C1289,28.9,1288.9,27.3,1287.7,27.3z"/>
	<path class="elementor-shape-fill ha-shape-divider" d="M1266.1,208h-2.8C1266.3,209,1265.5,209.1,1266.1,208z"/>
	<path class="elementor-shape-fill ha-shape-divider" d="M1067.1,206.2c-19.8,1-39.5,1-59.2-1c-10.6-1.1-1.1,0.3-86.9-2c-60.1-1.6-75.5,3.8-105.9,0.2c-46.7-5.6-63.3-0.5-93.9-7.3
		c-11.4-2.6-21.2-2.7-33.1-1.9c-6.4,0.4-6.4,9.8,0,10.2c10.8,0.6,25.8,1.3,46.8,2.4c63.8,3.4,27.6,3.5,94.3,4.2
		c64.7,0.7,56.3,3.8,66.6,2.1c24.4-4,32.7,0.4,70.9-0.5c24.7-0.6,8-0.8,107.1-3.1c1.1,0,1.3-1.5,0.2-1.8
		C1070.3,206.6,1068.7,206.1,1067.1,206.2z"/>
	<path class="elementor-shape-fill ha-shape-divider" d="M956,28.2c-0.3-0.1-0.6,0-1,0.1c-0.8,0.2-0.9,1.4-0.2,1.7c0.2,0.1,0.3,0.2,0.5,0.2c0.2,0.1,0.4,0.1,0.5,0.1
		C959.7,30,959.8,29.1,956,28.2z"/>
	<path class="elementor-shape-fill ha-shape-divider" d="M903.4,141.1c-12.2,1.2-22.6-4.6-34.4-2.2c-0.7,0.2-1.2,0.9-2.4,2c-0.5,0.5-0.3,1.3,0.3,1.6c17.1,5.7,33.9,4.8,49.6,7.6
		c12,2.1,25.1,1.6,35.9,2.1c0.6,0,1.2-0.1,1.8-0.3c0.3-0.1,0.5-0.2,0.8-0.3c5.4-1.8,4.2-9.7-1.5-9.9
		C915.7,140.5,912.4,140.3,903.4,141.1z"/>
	<path class="elementor-shape-fill ha-shape-divider" d="M953.3,166.5c-1.5-0.7-3.1-1.3-4.7-2C948.1,166.5,947,166.2,953.3,166.5z"/>
	<path class="elementor-shape-fill ha-shape-divider" d="M740.3,144.6c1,0,1.3-1.5,0.3-1.8c-10-3.5-25.7-6.4-28.2-1.9C709.9,145.4,717.8,144.7,740.3,144.6z"/>
	<path class="elementor-shape-fill ha-shape-divider" d="M840.4,160c-4.6,0-4.8,6.9-0.2,7.2c12.3,0.7,24,1.4,35.5,3.8c13.3,2.9,28.6,1.9,42.9,0c0.1,0,0.3-0.1,0.4-0.1
		c3.4-1,3.1-5.9-0.2-6.8c-8.3-2.3-16.6-4.6-25.6-7.1c-0.6-0.2-1.3-0.2-2-0.1c-10.2,1.5-21.6-2.3-32.9,1.6
		C852.9,160.4,846.8,160,840.4,160z"/>
	<path class="elementor-shape-fill ha-shape-divider" d="M887.7,186.3c6.4,1,8.4,0.2,11.8-4c0.4-0.5,0.1-1.3-0.5-1.5C882,177,877.4,184.8,887.7,186.3z"/>
	<path class="elementor-shape-fill ha-shape-divider" d="M718.8,240.9c-3.6,0.1-4.2,1.7-5.9,4.4c-0.3,0.6,0,1.3,0.7,1.4c7.9,1,33.4,0.8,45.5-1c14.3-2.3,27.9,4.6,42.7,3.2
		c5.9-0.5,12,0.4,18.6-1.7c0.8-0.3,0.9-1.3,0.1-1.7c-2.4-1.3-4.5-2.6-6.9-3C782.2,238.5,750.5,239.7,718.8,240.9z"/>
	<path class="elementor-shape-fill ha-shape-divider" d="M702.3,187.1c5.8-0.3,6.3-9,0.5-10.1c-22-4.3-50.2-6.2-50.7,1.2c-0.1,1.4,1.8,2.9,3.5,5c0.2,0.2,0.4,0.3,0.7,0.3
		C688.8,185,697.6,187.3,702.3,187.1z"/>
	<path class="elementor-shape-fill ha-shape-divider" d="M862,246.7l-3-0.8C858.7,247.4,858,247.1,862,246.7z"/>
	<path class="elementor-shape-fill ha-shape-divider" d="M983,228.9c0.4-1.3,0.8-2.5,1.2-3.6c0.2-0.5-0.1-1.1-0.7-1.2c-24.9-5.4-150.1,2.6-226.6-6.6c-6.8-0.8-13.1,0.4-19,2.5
		c-1.7,0.6-2.7,2-5,4.2c-0.6,0.6-0.2,1.5,0.6,1.6c45.4,4.4,75.2,0.5,103.8,3c43.6,3.7,132.2,2.3,144.9,0.7
		C982.6,229.5,982.9,229.3,983,228.9z"/>
	<path class="elementor-shape-fill ha-shape-divider" d="M1080.1,43.8c-30.9-0.6-60.8-0.8-93.2,0.2c-1.2,0-1.2,1.8,0,1.9c43.7,1.9,73.1,2.2,93.4-0.2
		C1081.3,45.5,1081.2,43.8,1080.1,43.8z"/>
</g>
</svg>
