<svg xmlns="http://www.w3.org/2000/svg" viewBox="0 0 4080 380" preserveAspectRatio="none">
<g>
	<path class="elementor-shape-fill ha-shape-divider" d="M785.8,271.6c-0.1-0.5-0.5-0.8-1-0.8c-8.3,0-14.1-1.6-17.4-2.8c-2.9-1.1-4.4-2.2-4.8-2.5c-0.1-0.1-0.1-0.1-0.1-0.1l-3.3-3
		c0.4-0.6,0.8-1.3,1.1-2.1l0.1-0.3c0.3-0.8,0.5-1.5,0.6-2.3h4.5c0,0,0,0,0.1,0c0.5,0.1,2.4,0.3,5.3,1.4c3.3,1.3,8.6,4,14.7,9.6
		c0.1,0.1,0.2,0.2,0.3,0.2c0.3,0.1,0.7,0.1,1-0.1l6.5-4.3c0.3-0.2,0.5-0.5,0.5-0.8s-0.1-0.7-0.4-0.9c-3.9-3.6-7.3-5.4-9.5-6.2
		c2.3-1.1,5.4-3.1,8.3-7.1c0.1-0.3,0.2-0.6,0.2-0.8c-0.1-0.3-0.2-0.6-0.5-0.7l-7.4-4.9c-0.5-0.3-1.1-0.2-1.5,0.3
		c-7.7,10.7-16.5,12-17.7,12.2c-0.1,0-0.1,0-0.1,0h-0.1h-4.4c-0.1-1-0.3-2-0.7-3c-0.5-1-1-1.8-1.7-2.5l2.9-3.2h0.1c0,0,0,0,0.1-0.1
		c0.9-0.8,7.7-6.4,20.9-4.8c0.6,0,1.1-0.4,1.2-0.9l1.3-8.8c0-0.3-0.1-0.6-0.2-0.8c-0.2-0.2-0.5-0.4-0.8-0.4
		c-4.9-0.6-8.5,0.3-10.8,1.4c0.9-2.4,1.8-6.1,1.8-11.2c0-0.3-0.1-0.6-0.4-0.8c-0.2-0.2-0.6-0.3-0.9-0.2l-7.6,1.9
		c-0.5,0.1-0.8,0.6-0.8,1.1c0,13.6-4.1,20.4-5.2,22c-0.1,0.1-0.1,0.1-0.2,0.2c0,0.1-0.1,0.1-0.1,0.1l-3,3.3
		c-0.6-0.5-1.3-0.8-2.1-1.1l-0.3-0.1c-0.8-0.3-1.5-0.5-2.3-0.6V243l0,0v-1c0.2-1.5,1.5-9.5,11-19.9c0.4-0.4,0.4-0.9,0.1-1.3
		l-4.3-6.5c-0.2-0.3-0.5-0.5-0.8-0.5s-0.6,0.1-0.9,0.4c-3.5,3.8-5.3,7.1-6.2,9.5c-1-2.4-3.1-5.5-7.1-8.3c-0.3-0.2-0.5-0.2-0.8-0.2
		c-0.3,0.1-0.6,0.2-0.7,0.5l-4.9,7.4c-0.3,0.5-0.2,1.1,0.3,1.5c10.4,7.5,11.9,15.9,12.2,17.5c0,0.2,0,0.3,0,0.3v4.4
		c-1,0.1-2,0.3-3,0.7c-0.9,0.4-1.8,1-2.5,1.7l-3.1-2.8c-0.1-0.1-0.2-0.2-0.3-0.3c-0.8-0.9-6.4-7.7-4.9-20.9c0-0.6-0.4-1.1-0.9-1.2
		l-8.8-1.3c-0.3,0-0.6,0.1-0.8,0.2c-0.2,0.2-0.3,0.4-0.4,0.7c-0.6,4.9,0.3,8.5,1.3,10.8c-2.2-0.8-5.9-1.8-11.2-1.8
		c-0.3,0-0.6,0.1-0.8,0.4c-0.2,0.2-0.2,0.6-0.2,0.9l1.9,7.6c0.1,0.3,0.3,0.6,0.7,0.8c0.1,0,0.3,0.1,0.4,0.1c8.3,0,14,1.5,17.4,2.8
		c2.8,1.1,4.4,2.2,4.8,2.5c0.1,0.1,0.1,0.1,0.1,0.1l3.3,3c-0.5,0.6-0.8,1.3-1.1,2.1l-0.1,0.3c-0.3,0.8-0.5,1.5-0.6,2.3H737
		c0,0,0,0-0.2,0c-0.5-0.1-2.4-0.3-5.2-1.4c-3.3-1.3-8.6-4-14.7-9.6c-0.4-0.3-0.9-0.4-1.3-0.1l-6.5,4.3c-0.3,0.2-0.5,0.5-0.5,0.8
		c0,0.4,0.1,0.7,0.3,0.9c3.9,3.6,7.3,5.4,9.5,6.2c-2.4,1.1-5.5,3.1-8.3,7.1c-0.2,0.3-0.3,0.5-0.2,0.8s0.2,0.5,0.4,0.7l7.4,4.9
		l0.2,0.1c0.4,0.2,0.9,0,1.2-0.4c7.7-10.7,16.5-12,17.7-12.2c0.1,0,0.1,0,0.1,0h0.1h4.3c0.1,1,0.3,2,0.7,3c0.4,0.9,1,1.8,1.7,2.5
		l-3,3.3c0,0-0.1,0.1-0.2,0.2c-1.3,1.1-8.1,6.2-20.8,4.8c-0.6,0-1.1,0.3-1.2,0.9l-1.4,8.8c0,0.3,0.1,0.6,0.2,0.8
		c0.2,0.2,0.5,0.4,0.7,0.4c4.9,0.6,8.5-0.3,10.8-1.4c-0.9,2.4-1.8,6.1-1.8,11.2c0,0.3,0.2,0.6,0.4,0.8c0.1,0,0.2,0.1,0.3,0.1
		c0.2,0.1,0.4,0.1,0.7,0l7.6-1.9c0.5-0.1,0.8-0.6,0.8-1.1c0-13.5,4.1-20.4,5.2-22c0.1-0.1,0.1-0.1,0.2-0.2c0.1-0.1,0.1-0.1,0.1-0.1
		l3-3.3c0.7,0.5,1.4,0.9,2.2,1.2l0.2,0.1c0.8,0.3,1.5,0.5,2.3,0.6v4.5c0,0,0,0.1,0,0.2s0,0.2,0,0.3c-0.3,1.9-1.8,9.7-11,19.7
		c-0.3,0.4-0.4,0.9-0.1,1.3l4.3,6.5c0.1,0.2,0.3,0.3,0.5,0.4c0.1,0,0.2,0,0.3,0.1c0.4,0,0.7-0.1,0.9-0.4c3.5-3.8,5.3-7.1,6.2-9.5
		c1,2.4,3.1,5.4,7,8.3c0.3,0.1,0.6,0.2,0.8,0.2c0.3-0.1,0.5-0.3,0.7-0.5l4.9-7.4c0.3-0.5,0.2-1.1-0.3-1.5
		c-10.8-7.8-12-16.5-12.2-17.7c0-0.1,0-0.1,0-0.1v-0.1v-4.4c1-0.1,2.1-0.3,3-0.7c0.9-0.4,1.8-1,2.5-1.7l3.2,2.9v0.1c0,0,0,0,0.1,0.1
		c0.8,0.8,6.4,7.7,4.9,20.9c-0.1,0.5,0.2,1,0.7,1.1l0.2,0.1l8.8,1.3c0.3,0,0.6-0.1,0.8-0.2c0.2-0.2,0.3-0.4,0.4-0.7
		c0.6-4.9-0.3-8.5-1.3-10.8c2.2,0.8,5.9,1.8,11.2,1.8c0.3,0,0.6-0.1,0.8-0.4c0.2-0.2,0.3-0.6,0.2-0.9L785.8,271.6z M791.2,263.4
		l-4.7,3.1c-5.3-4.7-10-7.4-13.3-8.9h7c0,0,0.1,0,0.2,0l0,0C781.4,257.7,785.3,258.4,791.2,263.4z M784.5,245.3l5.6,3.7
		c-4.2,5.3-8.5,6.2-9.7,6.4c-0.1,0-0.2,0-0.2,0c-0.1,0-0.1,0-0.1,0h-7.5C776.1,253.8,780.3,250.8,784.5,245.3z M782.9,232.9l-1,6.7
		c-6.8-0.6-11.9,0.5-15.5,1.9l5-5.6c0,0,0.1,0,0.1-0.1h0.1C772.2,235.2,775.8,232.3,782.9,232.9z M767.6,223.8l5.5-1.4
		c-0.3,7.9-2.9,11.6-3.2,12l0,0l-4.7,5.1C766.4,235.9,767.6,230.7,767.6,223.8z M758.1,216.6l3.1,4.7c-4.6,5.1-7.3,9.7-8.9,13.3
		v-6.9l0,0C752.4,227.1,753,222.6,758.1,216.6z M740.1,223.3l3.7-5.6c5.3,4.2,6.2,8.5,6.4,9.7c0,0.1,0,0.1,0,0.2c0,0.1,0,0.1,0,0.1
		v7.5C748.5,231.7,745.5,227.4,740.1,223.3z M727.6,224.8l6.7,1c-0.7,6.8,0.5,11.9,1.9,15.5l-5.6-5c0,0,0,0-0.1-0.1l-0.1-0.1
		C729.7,235.2,727.1,231.6,727.6,224.8z M718.5,240.1l-1.4-5.5c7.7,0.3,11.1,2.5,11.8,3l0,0c0.1,0.1,0.2,0.2,0.2,0.2l5.2,4.7
		C730.9,241.4,725.6,240.2,718.5,240.1z M711.3,249.6l4.7-3.1c5.3,4.8,10,7.4,13.4,8.9h-7c0,0-0.1,0-0.2,0l0,0
		C721.1,255.3,717.2,254.6,711.3,249.6z M718,267.7l-5.6-3.7c4.2-5.3,8.5-6.2,9.7-6.4c0.1,0,0.1,0,0.2,0c0.1,0,0.1,0,0.1,0h7.5
		C726.4,259.2,722.1,262.2,718,267.7z M719.6,280.1l1.1-6.6c6.8,0.7,11.9-0.5,15.5-1.9l-5,5.6c0,0,0,0-0.1,0.1l-0.1,0.1
		C729.9,278.1,726.3,280.6,719.6,280.1z M734.9,289.2l-5.5,1.4c0.3-7.9,2.9-11.6,3.2-12l0,0l4.7-5.1
		C736,277.1,734.9,282.3,734.9,289.2z M744.4,296.4l-3.1-4.7c4.7-5.2,7.3-9.8,8.9-13.3v7l0,0C750,285.9,749.5,290.4,744.4,296.4z
		 M762.4,289.7l-3.7,5.6c-5.6-4.4-6.3-8.9-6.4-9.8v-0.1v-0.1v-7.5C753.9,281.3,757,285.6,762.4,289.7z M756.2,262.4
		c-0.5,0.5-1.1,0.9-1.7,1.2c-0.7,0.3-1.4,0.5-2.1,0.5c-0.7,0.1-1.4,0.1-2.1,0c-0.5-0.1-1.1-0.2-1.5-0.4l-0.3-0.1
		c-0.5-0.2-1-0.4-1.4-0.7c-0.6-0.4-1.1-0.9-1.6-1.4s-0.9-1.1-1.2-1.7c-0.3-0.7-0.5-1.4-0.5-2.1c-0.1-0.7-0.1-1.5,0.1-2.1
		c0.1-0.5,0.2-1.1,0.4-1.5l0.1-0.3c0.2-0.5,0.4-1,0.7-1.4c0.4-0.6,0.9-1.1,1.4-1.6s1.1-0.9,1.7-1.2c0.7-0.3,1.4-0.5,2.1-0.5
		c0.7-0.1,1.5-0.1,2.1,0c0.5,0.1,1.1,0.2,1.5,0.4l0.3,0.1c0.5,0.2,1,0.4,1.4,0.7c0.6,0.4,1.1,0.9,1.6,1.4s0.9,1.1,1.2,1.7
		c0.3,0.7,0.5,1.4,0.5,2.1c0.1,0.7,0.1,1.5,0,2.1c-0.1,0.5-0.2,1.1-0.4,1.5l-0.1,0.3c-0.2,0.5-0.4,1-0.7,1.4
		C757.2,261.4,756.8,262,756.2,262.4z M774.9,288.2l-6.6-1c0.6-6.8-0.5-11.9-2-15.5l5.6,5c0,0,0,0,0.1,0.1l0.1,0.1
		C772.8,277.8,775.4,281.4,774.9,288.2z M776.2,276.6c-1.8-0.7-2.7-1.3-2.9-1.5l0,0l-5.1-4.7c3.5,1.2,8.7,2.4,15.8,2.4l1.4,5.5
		C781,278.2,778.1,277.3,776.2,276.6z"/>
	<rect class="elementor-shape-fill ha-shape-divider" x="750.8" y="0" width="1.2" height="226.2"/>
	<polygon class="elementor-shape-fill ha-shape-divider" points="805.4,216 797.8,209.1 788,212.2 792.2,202.9 786.3,194.5 796.5,195.6 802.5,187.4 804.6,197.4 814.3,200.7
		805.5,205.8 	"/>
</g>
<g>
	<polygon class="elementor-shape-fill ha-shape-divider" points="610.2,178.4 601.3,177.3 595.8,184.3 594.2,175.6 585.8,172.5 593.6,168.2 593.9,159.3 600.4,165.4 609,163
		605.1,171 	"/>
	<path class="elementor-shape-fill ha-shape-divider" d="M584.9,23.3c-25,0-45.2,20.2-45.2,45.2s20.2,45.2,45.2,45.2s45.2-20.2,45.2-45.2C630.1,43.5,609.9,23.3,584.9,23.3z
		 M584.9,106.7c-21.1,0-38.2-17.1-38.2-38.2s17.1-38.2,38.2-38.2c21.1,0,38.2,17.1,38.2,38.2C623.1,89.6,606,106.7,584.9,106.7z"/>
	<path class="elementor-shape-fill ha-shape-divider" d="M611.7,73.9c-1.8,0-3.4,1-4.3,2.4l-2-0.8c0-0.1,0-0.1,0-0.2c0-1.9-1.5-3.4-3.3-3.4c-1,0-2,0.5-2.6,1.2l-12.2-4.7l12.2-4.7
		c0.6,0.7,1.5,1.2,2.6,1.2c1.9,0,3.3-1.5,3.3-3.4c0-0.1,0-0.1,0-0.2l2-0.8c0.9,1.4,2.5,2.4,4.3,2.4c2.8,0,5.1-2.3,5.1-5.1
		s-2.3-5.1-5.1-5.1s-5.1,2.3-5.1,5.1c0,0.4,0,0.7,0.1,1.1l-1.9,0.7c-0.6-0.9-1.6-1.5-2.8-1.5c-1.9,0-3.4,1.5-3.4,3.4
		c0,0.2,0,0.3,0.1,0.5l-12.3,5l4.8-12.4c0.2,0.1,0.4,0.1,0.5,0.1c1.9,0,3.4-1.5,3.4-3.4c0-1.2-0.6-2.2-1.5-2.8l0.7-1.8
		c0.3,0.1,0.7,0.1,1.1,0.1c2.8,0,5.1-2.3,5.1-5.1s-2.3-5.1-5.1-5.1s-5.1,2.3-5.1,5.1c0,1.8,1,3.4,2.4,4.3l-0.8,2c-0.1,0-0.1,0-0.2,0
		c-1.9,0-3.4,1.5-3.4,3.4c0,1.1,0.5,2,1.2,2.6l-4.6,12l-4.7-12.2c0.7-0.6,1.2-1.5,1.2-2.6c0-1.9-1.5-3.4-3.4-3.4c-0.1,0-0.1,0-0.2,0
		l-0.8-2c1.4-0.9,2.4-2.5,2.4-4.3c0-2.8-2.3-5.1-5.1-5.1s-5.1,2.3-5.1,5.1s2.3,5.1,5.1,5.1c0.4,0,0.7,0,1.1-0.1l0.7,1.8
		c-0.9,0.6-1.5,1.6-1.5,2.8c0,1.9,1.5,3.4,3.4,3.4c0.2,0,0.3,0,0.5-0.1l4.8,12.4L571,62.1c0.1-0.2,0.1-0.3,0.1-0.5
		c0-1.9-1.5-3.4-3.4-3.4c-1.2,0-2.2,0.6-2.8,1.5L563,59c0.1-0.4,0.1-0.7,0.1-1.1c0-2.8-2.3-5.1-5.1-5.1s-5.1,2.3-5.1,5.1
		s2.3,5.1,5.1,5.1c1.8,0,3.4-1,4.3-2.4l2,0.8c0,0.1,0,0.1,0,0.2c0,1.9,1.5,3.4,3.3,3.4c1,0,2-0.5,2.6-1.2l12.2,4.7l-12.2,4.7
		c-0.6-0.7-1.5-1.2-2.6-1.2c-1.9,0-3.3,1.5-3.3,3.4c0,0.1,0,0.1,0,0.2l-2,0.8c-0.9-1.4-2.5-2.4-4.3-2.4c-2.8,0-5.1,2.3-5.1,5.1
		c0,2.8,2.3,5.1,5.1,5.1s5.1-2.3,5.1-5.1c0-0.4,0-0.7-0.1-1.1l1.9-0.7c0.6,0.9,1.6,1.5,2.8,1.5c1.9,0,3.4-1.5,3.4-3.4
		c0-0.2,0-0.3-0.1-0.5l12.4-4.8l-4.8,12.4c-0.2-0.1-0.3-0.1-0.5-0.1c-1.9,0-3.4,1.5-3.4,3.4c0,1.2,0.6,2.2,1.5,2.8l-0.7,1.8
		c-0.3-0.1-0.7-0.1-1.1-0.1c-2.8,0-5.1,2.3-5.1,5.1c0,2.8,2.3,5.1,5.1,5.1s5.1-2.3,5.1-5.1c0-1.8-1-3.4-2.4-4.3l0.8-2
		c0.1,0,0.1,0,0.2,0c1.8,0,3.4-1.5,3.4-3.4c0-1-0.5-2-1.2-2.6l4.7-12.2l4.7,12.2c-0.7,0.6-1.2,1.5-1.2,2.6c0,1.9,1.5,3.4,3.4,3.4
		c0.1,0,0.1,0,0.2,0l0.8,2c-1.4,0.9-2.4,2.5-2.4,4.3c0,2.8,2.3,5.1,5.1,5.1s5.1-2.3,5.1-5.1c0-2.8-2.3-5.1-5.1-5.1
		c-0.4,0-0.7,0-1.1,0.1l-0.7-1.8c0.9-0.6,1.5-1.6,1.5-2.8c0-1.9-1.5-3.4-3.4-3.4c-0.2,0-0.4,0-0.5,0.1l-5-12.5l12.4,4.8
		c-0.1,0.2-0.1,0.4-0.1,0.5c0,1.9,1.5,3.4,3.4,3.4c1.2,0,2.2-0.6,2.8-1.5l1.9,0.7c-0.1,0.4-0.1,0.7-0.1,1.1c0,2.8,2.3,5.1,5.1,5.1
		s5.1-2.3,5.1-5.1C616.9,76.2,614.5,73.9,611.7,73.9 M611.7,54.6c1.9,0,3.4,1.5,3.4,3.4s-1.5,3.4-3.4,3.4c-1.1,0-2-0.5-2.7-1.3
		c-0.4-0.5-0.6-1-0.7-1.6c0-0.1,0-0.3,0-0.4C608.4,56.1,609.9,54.6,611.7,54.6 M600.5,61.5c0-0.8,0.7-1.5,1.6-1.5
		c0.4,0,0.8,0.2,1,0.5c0.3,0.2,0.5,0.7,0.5,1.2c0,0.2,0,0.3-0.1,0.5l0,0c-0.2,0.6-0.8,1.1-1.5,1.1c-0.3,0-0.5-0.1-0.7-0.2
		c-0.5-0.2-0.9-0.8-0.9-1.4C600.5,61.6,600.5,61.5,600.5,61.5 M592,41.6c0-1.9,1.5-3.3,3.4-3.3s3.4,1.5,3.4,3.3
		c0,1.9-1.5,3.4-3.4,3.4c-0.1,0-0.3,0-0.4,0c-0.6-0.1-1.2-0.3-1.6-0.7C592.5,43.7,592,42.7,592,41.6 M591.2,49.7
		c0.2-0.1,0.4-0.1,0.5-0.1c0.5,0,0.9,0.2,1.2,0.6c0.3,0.3,0.5,0.7,0.5,1c0,0.9-0.7,1.5-1.5,1.6h-0.1c-0.6,0-1.2-0.4-1.4-0.9
		c-0.1-0.2-0.2-0.5-0.2-0.7C590.2,50.5,590.6,50,591.2,49.7 M574.8,44.9c-0.1,0-0.3,0-0.4,0c-1.9,0-3.4-1.5-3.4-3.4s1.5-3.3,3.4-3.3
		s3.4,1.5,3.4,3.3c0,1.1-0.5,2-1.3,2.7C576,44.6,575.5,44.9,574.8,44.9 M579.4,52c-0.2,0.5-0.8,0.9-1.4,0.9h-0.1
		c-0.8,0-1.5-0.7-1.5-1.6c0-0.4,0.1-0.8,0.5-1c0.2-0.3,0.7-0.6,1.2-0.6c0.2,0,0.3,0,0.5,0.1c0.6,0.2,1.1,0.8,1.1,1.5
		C579.7,51.5,579.6,51.8,579.4,52 M561.4,58.4c-0.1,0.6-0.3,1.2-0.7,1.6c-0.6,0.8-1.6,1.3-2.7,1.3c-1.9,0-3.4-1.5-3.4-3.4
		s1.5-3.4,3.4-3.4s3.4,1.5,3.4,3.4C561.4,58.1,561.4,58.2,561.4,58.4 M568.4,63c-0.2,0.1-0.5,0.2-0.7,0.2c-0.7,0-1.3-0.5-1.5-1.1
		l0,0c-0.1-0.2-0.1-0.3-0.1-0.5c0-0.5,0.2-0.9,0.5-1.2s0.6-0.5,1.1-0.5c0.9,0,1.5,0.7,1.6,1.5v0.1C569.3,62.2,568.9,62.8,568.4,63
		 M558.1,82.3c-1.9,0-3.4-1.5-3.4-3.4s1.5-3.4,3.4-3.4c1.1,0,2,0.5,2.7,1.3c0.4,0.5,0.6,1,0.7,1.6c0,0.1,0,0.3,0,0.4
		C561.4,80.8,559.9,82.3,558.1,82.3 M569.3,75.5c0,0.8-0.7,1.5-1.6,1.5c-0.4,0-0.8-0.2-1.1-0.5c-0.3-0.2-0.5-0.7-0.5-1.2
		c0-0.2,0-0.3,0.1-0.5l0,0c0.2-0.6,0.8-1,1.5-1c0.3,0,0.5,0.1,0.7,0.2C568.9,74.2,569.3,74.8,569.3,75.5
		C569.3,75.4,569.3,75.4,569.3,75.5 M577.8,95.3c0,1.9-1.5,3.3-3.4,3.3s-3.4-1.5-3.4-3.3c0-1.9,1.5-3.4,3.4-3.4c0.1,0,0.3,0,0.4,0
		c0.6,0.1,1.2,0.3,1.6,0.7C577.3,93.3,577.8,94.2,577.8,95.3 M578.6,87.2c-0.2,0.1-0.3,0.1-0.5,0.1c-0.5,0-0.9-0.2-1.2-0.6
		c-0.3-0.3-0.5-0.7-0.5-1c0-0.9,0.7-1.5,1.5-1.6h0.1c0.6,0,1.2,0.3,1.4,0.9c0.1,0.2,0.2,0.5,0.2,0.7C579.7,86.4,579.2,87,578.6,87.2
		 M595,92c0.1,0,0.3,0,0.4,0c1.9,0,3.4,1.5,3.4,3.4s-1.5,3.3-3.4,3.3s-3.4-1.5-3.4-3.3c0-1.1,0.5-2,1.3-2.7
		C593.8,92.3,594.4,92,595,92 M590.4,84.9c0.2-0.5,0.8-0.9,1.4-0.9h0.1c0.8,0,1.5,0.7,1.5,1.6c0,0.4-0.1,0.8-0.5,1
		c-0.2,0.3-0.7,0.6-1.2,0.6c-0.2,0-0.4,0-0.5-0.1c-0.6-0.2-1.1-0.8-1.1-1.5C590.2,85.4,590.2,85.2,590.4,84.9 M603.2,76.5
		c-0.3,0.3-0.6,0.5-1,0.5c-0.9,0-1.5-0.7-1.6-1.5v-0.1c0-0.6,0.4-1.2,0.9-1.4c0.2-0.1,0.5-0.2,0.7-0.2c0.7,0,1.3,0.5,1.5,1l0,0
		c0.1,0.2,0.1,0.3,0.1,0.5C603.7,75.8,603.5,76.2,603.2,76.5 M611.7,82.3c-1.9,0-3.4-1.5-3.4-3.4c0-0.1,0-0.3,0-0.4
		c0.1-0.6,0.3-1.2,0.7-1.6c0.6-0.8,1.6-1.3,2.7-1.3c1.9,0,3.4,1.5,3.4,3.4C615.1,80.8,613.6,82.3,611.7,82.3"/>
	<path class="elementor-shape-fill ha-shape-divider" d="M594.4,18c-0.6-0.2-1.4-0.3-2.3-0.5c-0.9-0.1-2-0.2-3.1-0.3c0.6-0.8,1-1.8,1-2.9c0-2.5-1.8-4.6-4.2-4.9V0h-1.6v9.3
		c-2.4,0.4-4.2,2.4-4.2,4.9c0,1.1,0.4,2.1,1,2.9c-3.8,0.2-6.5,0.8-6.5,1.5v8.5h21.1v-8.5v-0.1C595.3,18.4,594.9,18.2,594.4,18z
		 M586.8,17.1c-0.6,0-1.3,0-1.9,0c-0.7,0-1.3,0-2,0c-0.9-0.6-1.5-1.7-1.5-2.9c0-1.9,1.5-3.5,3.5-3.5c1.9,0,3.5,1.5,3.5,3.5
		C588.3,15.5,587.7,16.5,586.8,17.1z"/>
</g>
<g>
	<polygon class="elementor-shape-fill ha-shape-divider" points="1182.4,86 1173.9,81.5 1165.7,86.4 1167.4,77 1160.2,70.8 1169.7,69.5 1173.4,60.6 1177.5,69.2 1187.1,70
		1180.2,76.7 	"/>
	<circle class="elementor-shape-fill ha-shape-divider" cx="1183" cy="196.3" r="5.2"/>
	<path class="elementor-shape-fill ha-shape-divider" d="M1135.5,106.1c-25,0-45.2,20.2-45.2,45.2s20.2,45.2,45.2,45.2s45.2-20.2,45.2-45.2S1160.5,106.1,1135.5,106.1z
		 M1135.5,189.5c-21.1,0-38.2-17.1-38.2-38.2s17.1-38.2,38.2-38.2s38.2,17.1,38.2,38.2S1156.6,189.5,1135.5,189.5z"/>
	<path class="elementor-shape-fill ha-shape-divider" d="M1162.4,156.7c-1.8,0-3.4,1-4.3,2.4l-2-0.8c0-0.1,0-0.1,0-0.2c0-1.9-1.5-3.4-3.3-3.4c-1,0-2,0.5-2.6,1.2l-12.2-4.7
		l12.2-4.7c0.6,0.7,1.5,1.2,2.6,1.2c1.9,0,3.3-1.5,3.3-3.4c0-0.1,0-0.1,0-0.2l2-0.8c0.9,1.4,2.5,2.4,4.3,2.4c2.8,0,5.1-2.3,5.1-5.1
		s-2.3-5.1-5.1-5.1c-2.8,0-5.1,2.3-5.1,5.1c0,0.4,0,0.7,0.1,1.1l-1.9,0.7c-0.6-0.9-1.6-1.5-2.8-1.5c-1.9,0-3.4,1.5-3.4,3.4
		c0,0.2,0,0.3,0.1,0.5l-12.4,4.8l4.8-12.4c0.2,0.1,0.4,0.1,0.5,0.1c1.9,0,3.4-1.5,3.4-3.4c0-1.2-0.6-2.2-1.5-2.8l0.7-1.8
		c0.3,0.1,0.7,0.1,1.1,0.1c2.8,0,5.1-2.3,5.1-5.1c0-2.8-2.3-5.1-5.1-5.1c-2.8,0-5.1,2.3-5.1,5.1c0,1.8,1,3.4,2.4,4.3l-0.8,2
		c-0.1,0-0.1,0-0.2,0c-1.9,0-3.4,1.5-3.4,3.4c0,1.1,0.5,2,1.2,2.6l-4.7,12.2l-4.7-12.2c0.7-0.6,1.2-1.5,1.2-2.6
		c0-1.9-1.5-3.4-3.4-3.4c-0.1,0-0.1,0-0.2,0l-0.8-2c1.4-0.9,2.4-2.5,2.4-4.3c0-2.8-2.3-5.1-5.1-5.1c-2.8,0-5.1,2.3-5.1,5.1
		c0,2.8,2.3,5.1,5.1,5.1c0.4,0,0.7,0,1.1-0.1l0.7,1.8c-0.9,0.6-1.5,1.6-1.5,2.8c0,1.9,1.5,3.4,3.4,3.4c0.2,0,0.3,0,0.5-0.1l4.8,12.4
		l-12.4-4.8c0.1-0.2,0.1-0.3,0.1-0.5c0-1.9-1.5-3.4-3.4-3.4c-1.2,0-2.2,0.6-2.8,1.5l-1.9-0.7c0.1-0.4,0.1-0.7,0.1-1.1
		c0-2.8-2.3-5.1-5.1-5.1c-2.8,0-5.1,2.3-5.1,5.1s2.3,5.1,5.1,5.1c1.8,0,3.4-1,4.3-2.4l2,0.8c0,0.1,0,0.1,0,0.2
		c0,1.9,1.5,3.4,3.3,3.4c1,0,2-0.5,2.6-1.2l12.2,4.7l-12.2,4.7c-0.6-0.7-1.5-1.2-2.6-1.2c-1.9,0-3.3,1.5-3.3,3.4c0,0.1,0,0.1,0,0.2
		l-2,0.8c-0.9-1.4-2.5-2.4-4.3-2.4c-2.8,0-5.1,2.3-5.1,5.1s2.3,5.1,5.1,5.1c2.8,0,5.1-2.3,5.1-5.1c0-0.4,0-0.7-0.1-1.1l1.9-0.7
		c0.6,0.9,1.6,1.5,2.8,1.5c1.9,0,3.4-1.5,3.4-3.4c0-0.2,0-0.3-0.1-0.5l12.4-4.8l-4.8,12.4c-0.2-0.1-0.3-0.1-0.5-0.1
		c-1.9,0-3.4,1.5-3.4,3.4c0,1.2,0.6,2.2,1.5,2.8l-0.7,1.8c-0.3-0.1-0.7-0.1-1.1-0.1c-2.8,0-5.1,2.3-5.1,5.1s2.3,5.1,5.1,5.1
		c2.8,0,5.1-2.3,5.1-5.1c0-1.8-1-3.4-2.4-4.3l0.8-2c0.1,0,0.1,0,0.2,0c1.8,0,3.4-1.5,3.4-3.4c0-1-0.5-2-1.2-2.6l4.7-12.2l4.7,12.2
		c-0.7,0.6-1.2,1.5-1.2,2.6c0,1.9,1.5,3.4,3.4,3.4c0.1,0,0.1,0,0.2,0l0.8,2c-1.4,0.9-2.4,2.5-2.4,4.3c0,2.8,2.3,5.1,5.1,5.1
		c2.8,0,5.1-2.3,5.1-5.1s-2.3-5.1-5.1-5.1c-0.4,0-0.7,0-1.1,0.1l-0.7-1.8c0.9-0.6,1.5-1.6,1.5-2.8c0-1.9-1.5-3.4-3.4-3.4
		c-0.2,0-0.4,0-0.5,0.1l-4.8-12.4l12.4,4.8c-0.1,0.2-0.1,0.4-0.1,0.5c0,1.9,1.5,3.4,3.4,3.4c1.2,0,2.2-0.6,2.8-1.5l1.9,0.7
		c-0.1,0.4-0.1,0.7-0.1,1.1c0,2.8,2.3,5.1,5.1,5.1c2.8,0,5.1-2.3,5.1-5.1S1165.2,156.7,1162.4,156.7 M1162.4,137.4
		c1.9,0,3.4,1.5,3.4,3.4s-1.5,3.4-3.4,3.4c-1.1,0-2-0.5-2.7-1.3c-0.4-0.5-0.6-1-0.7-1.6c0-0.1,0-0.3,0-0.4
		C1159,138.9,1160.5,137.4,1162.4,137.4 M1151.2,144.3c0-0.8,0.7-1.5,1.6-1.5c0.4,0,0.8,0.2,1,0.5c0.3,0.2,0.5,0.7,0.5,1.2
		c0,0.2,0,0.3-0.1,0.5l0,0c-0.2,0.6-0.8,1.1-1.5,1.1c-0.3,0-0.5-0.1-0.7-0.2c-0.5-0.2-0.9-0.8-0.9-1.4
		C1151.1,144.4,1151.1,144.3,1151.2,144.3 M1142.7,124.5c0-1.9,1.5-3.3,3.4-3.3s3.4,1.5,3.4,3.3c0,1.9-1.5,3.4-3.4,3.4
		c-0.1,0-0.3,0-0.4,0c-0.6-0.1-1.2-0.3-1.6-0.7C1143.2,126.5,1142.7,125.5,1142.7,124.5 M1141.9,132.6c0.2-0.1,0.4-0.1,0.5-0.1
		c0.5,0,0.9,0.2,1.2,0.6c0.3,0.3,0.5,0.7,0.5,1c0,0.9-0.7,1.5-1.5,1.6h-0.1c-0.6,0-1.2-0.4-1.4-0.9c-0.1-0.2-0.2-0.5-0.2-0.7
		C1140.8,133.4,1141.2,132.8,1141.9,132.6 M1125.5,127.8c-0.1,0-0.3,0-0.4,0c-1.9,0-3.4-1.5-3.4-3.4s1.5-3.3,3.4-3.3
		s3.4,1.5,3.4,3.3c0,1.1-0.5,2-1.3,2.7C1126.6,127.5,1126.1,127.7,1125.5,127.8 M1130.1,134.8c-0.2,0.5-0.8,0.9-1.4,0.9h-0.1
		c-0.8,0-1.5-0.7-1.5-1.6c0-0.4,0.1-0.8,0.5-1c0.2-0.3,0.7-0.6,1.2-0.6c0.2,0,0.3,0,0.5,0.1c0.6,0.2,1.1,0.8,1.1,1.5
		C1130.3,134.4,1130.2,134.6,1130.1,134.8 M1112,141.2c-0.1,0.6-0.3,1.2-0.7,1.6c-0.6,0.8-1.6,1.3-2.7,1.3c-1.9,0-3.4-1.5-3.4-3.4
		s1.5-3.4,3.4-3.4s3.4,1.5,3.4,3.4C1112.1,140.9,1112.1,141.1,1112,141.2 M1119,145.8c-0.2,0.1-0.5,0.2-0.7,0.2
		c-0.7,0-1.3-0.5-1.5-1.1l0,0c-0.1-0.2-0.1-0.3-0.1-0.5c0-0.5,0.2-0.9,0.5-1.2s0.6-0.5,1.1-0.5c0.9,0,1.5,0.7,1.6,1.5v0.1
		C1119.9,145.1,1119.6,145.6,1119,145.8 M1108.7,165.2c-1.9,0-3.4-1.5-3.4-3.4s1.5-3.4,3.4-3.4c1.1,0,2,0.5,2.7,1.3
		c0.4,0.5,0.6,1,0.7,1.6c0,0.1,0,0.3,0,0.4C1112.1,163.6,1110.5,165.2,1108.7,165.2 M1119.9,158.3c0,0.8-0.7,1.5-1.6,1.5
		c-0.4,0-0.8-0.2-1.1-0.5c-0.3-0.2-0.5-0.7-0.5-1.2c0-0.2,0-0.3,0.1-0.5l0,0c0.2-0.6,0.8-1,1.5-1c0.3,0,0.5,0.1,0.7,0.2
		c0.5,0.2,0.9,0.8,0.9,1.4V158.3 M1128.4,178.1c0,1.9-1.5,3.3-3.4,3.3s-3.4-1.5-3.4-3.3c0-1.9,1.5-3.4,3.4-3.4c0.1,0,0.3,0,0.4,0
		c0.6,0.1,1.2,0.3,1.6,0.7C1127.9,176.1,1128.4,177.1,1128.4,178.1 M1129.2,170c-0.2,0.1-0.3,0.1-0.5,0.1c-0.5,0-0.9-0.2-1.2-0.6
		c-0.3-0.3-0.5-0.7-0.5-1c0-0.9,0.7-1.5,1.5-1.6h0.1c0.6,0,1.2,0.3,1.4,0.9c0.1,0.2,0.2,0.5,0.2,0.7
		C1130.3,169.2,1129.8,169.8,1129.2,170 M1145.6,174.8c0.1,0,0.3,0,0.4,0c1.9,0,3.4,1.5,3.4,3.4s-1.5,3.3-3.4,3.3s-3.4-1.5-3.4-3.3
		c0-1.1,0.5-2,1.3-2.7C1144.4,175.1,1145,174.9,1145.6,174.8 M1141,167.8c0.2-0.5,0.8-0.9,1.4-0.9h0.1c0.8,0,1.5,0.7,1.5,1.6
		c0,0.4-0.1,0.8-0.5,1c-0.2,0.3-0.7,0.6-1.2,0.6c-0.2,0-0.4,0-0.5-0.1c-0.6-0.2-1.1-0.8-1.1-1.5C1140.8,168.2,1140.8,168,1141,167.8
		 M1153.8,159.3c-0.3,0.3-0.6,0.5-1,0.5c-0.9,0-1.5-0.7-1.6-1.5v-0.1c0-0.6,0.4-1.2,0.9-1.4c0.2-0.1,0.5-0.2,0.7-0.2
		c0.7,0,1.3,0.5,1.5,1l0,0c0.1,0.2,0.1,0.3,0.1,0.5C1154.3,158.6,1154.1,159.1,1153.8,159.3 M1162.4,165.2c-1.9,0-3.4-1.5-3.4-3.4
		c0-0.1,0-0.3,0-0.4c0.1-0.6,0.3-1.2,0.7-1.6c0.6-0.8,1.6-1.3,2.7-1.3c1.9,0,3.4,1.5,3.4,3.4
		C1165.7,163.6,1164.2,165.2,1162.4,165.2"/>
	<path class="elementor-shape-fill ha-shape-divider" d="M1145,100.9c-0.6-0.2-1.4-0.3-2.3-0.5c-0.9-0.1-2-0.2-3.1-0.3c0.6-0.8,1-1.8,1-2.9c0-2.5-1.8-4.6-4.2-4.9V0h-1.6v92.2
		c-2.4,0.4-4.2,2.4-4.2,4.9c0,1.1,0.4,2.1,1,2.9c-3.8,0.2-6.5,0.8-6.5,1.5v8.5h21.1v-8.5v-0.1C1145.9,101.2,1145.6,101,1145,100.9z
		 M1137.5,100c-0.6,0-1.3,0-1.9,0c-0.7,0-1.3,0-2,0c-0.9-0.6-1.5-1.7-1.5-2.9c0-1.9,1.5-3.5,3.5-3.5c1.9,0,3.5,1.5,3.5,3.5
		C1139,98.3,1138.4,99.3,1137.5,100z"/>
</g>
<g>
	<path class="elementor-shape-fill ha-shape-divider" d="M963.7,244.6c3.8,5.4-2.1,11.3-7.5,7.5c-0.2-0.1-0.3-0.3-0.4-0.4c-3.8-5.4,2.1-11.3,7.5-7.5
		C963.4,244.2,963.5,244.4,963.7,244.6z"/>
	<path class="elementor-shape-fill ha-shape-divider" d="M941.9,69.6c-17.4,0.4-1.2,28.6,0.5,28.4C944.1,97.9,957.8,69.2,941.9,69.6z M942.3,97.4c0,0-11.3-26.6-0.5-27.1
		C951,69.9,944.9,90.4,942.3,97.4z"/>
	<path class="elementor-shape-fill ha-shape-divider" d="M967.1,82.3c-8.7-12.9-27,15.7-26.1,16.9C942,100.4,975.1,94,967.1,82.3z M941.6,98.8c0,0,19.2-24.1,24.8-16.2
		C971.2,89.3,949.4,96.6,941.6,98.8z"/>
	<path class="elementor-shape-fill ha-shape-divider" d="M917.7,81.1c-8.3,11.3,24,18.8,25,17.6C943.7,97.6,926.8,68.7,917.7,81.1z M918.4,81.4c5.8-7.5,23.8,16.9,23.8,16.9
		C934.6,95.8,913.4,87.9,918.4,81.4z"/>
	<path class="elementor-shape-fill ha-shape-divider" d="M905.8,122.9h27.5c3.3,0,6-2.7,6-6v-11c0-3.3-2.7-6-6-6h-27.6c-3.3,0-6,2.7-6,6v11C899.8,120.3,902.5,122.9,905.8,122.9z"
		/>
	<path class="elementor-shape-fill ha-shape-divider" d="M908.7,187.6h24.5c3.3,0,6-2.7,6-6l0.1-47.3c0-3.3-2.7-6-6-6h-24.7c-3.3,0-6,2.7-6,6v47.3
		C902.7,184.9,905.4,187.6,908.7,187.6z"/>
	<path class="elementor-shape-fill ha-shape-divider" d="M944.8,105.9v11c0,3.3,2.7,6,6,6h27.7c3.3,0,6-2.7,6-6v-11c0-3.3-2.7-6-6-6h-27.6C947.5,99.9,944.9,102.6,944.8,105.9z"/>
	<path class="elementor-shape-fill ha-shape-divider" d="M950.6,187.6h25c3.3,0,6-2.7,6-6v-47.3c0-3.3-2.7-6-6-6h-24.9c-3.3,0-6,2.7-6,6l-0.1,47.3
		C944.5,184.9,947.2,187.6,950.6,187.6z"/>
	<path class="elementor-shape-fill ha-shape-divider" d="M942.1,95c-1.7,0-3.1,1.4-3.1,3.1s1.4,3.1,3.1,3.1c1.7,0,3.1-1.4,3.1-3.1C945.3,96.4,943.9,95,942.1,95z"/>
	<rect class="elementor-shape-fill ha-shape-divider" x="941" y="0" width="1.6" height="69.9"/>
</g>
<g>
	<polygon class="elementor-shape-fill ha-shape-divider" points="349.7,42.9 342.7,35.8 333,38.3 337.5,29.4 332.2,20.9 342.1,22.5 348.5,14.8 350,24.7 359.3,28.4 350.3,32.9 	"/>
	<path class="elementor-shape-fill ha-shape-divider" d="M354.6,123.1c3.8,5.4-2.1,11.3-7.5,7.5c-0.2-0.1-0.3-0.3-0.4-0.4c-3.8-5.4,2.1-11.3,7.5-7.5
		C354.3,122.8,354.4,123,354.6,123.1z"/>
	<path class="elementor-shape-fill ha-shape-divider" d="M424.8,109.9c6.4,0.8,7.6-2.1,7.8-2.6c0.7-2.7-5.9-13.6-12.3-23c4,0.2,5-1.7,5.2-2.2c0.7-3.1-9.8-18.6-14.4-24.5
		c-4.8-6.1-6-6.1-6.7-6.1s-1.9,0-6.7,6.1c-4.7,5.9-15.2,21.4-14.4,24.6c0.2,0.5,1.1,2.2,5.1,2c-6.4,9.4-13,20.4-12.3,23.2
		c0.2,0.4,1.4,3.1,7.8,2.4c-8.8,12.8-18,28.1-17.1,31.6c0.2,0.6,2.4,5.4,15.8,1.9c5.1-1.3,7.1-0.5,9.8,0.6c1.4,0.6,3.1,1.3,5.4,1.8
		v13.6c0,0.1,0,0.2,0,0.3h12.9c0-0.1,0-0.2,0-0.3v-13.7c2-0.5,3.5-1.2,4.7-1.8c2.6-1.3,4.4-2.2,10.6-0.5c13.4,3.8,15.6-1.3,15.9-2
		C442.7,137.9,433.6,122.7,424.8,109.9z"/>
	<rect class="elementor-shape-fill ha-shape-divider" x="403.5" y="0" width="1.6" height="60.7"/>
</g>
<g>
	<path class="elementor-shape-fill ha-shape-divider" d="M1528.7,279.2c-0.1,0.3,0,0.7,0.2,0.9c0.2,0.3,0.5,0.4,0.8,0.4c5.3,0,9-1,11.2-1.8c-1,2.4-1.9,6-1.3,10.8
		c0.1,0.3,0.2,0.6,0.4,0.7c0.3,0.2,0.6,0.2,0.8,0.2l8.8-1.3l0.2-0.1c0.5-0.2,0.8-0.6,0.7-1.1c-1.6-13.2,4.1-20.1,4.9-20.9
		c0.1-0.1,0.1-0.1,0.1-0.1v-0.1l3.2-2.9c0.7,0.7,1.6,1.3,2.5,1.7c1,0.4,2,0.6,3,0.7v4.4v0.1c0,0,0,0,0,0.1
		c-0.1,1.2-1.4,9.9-12.2,17.7c-0.5,0.4-0.6,1-0.3,1.5l4.9,7.4c0.2,0.2,0.4,0.4,0.7,0.5c0.3,0,0.6,0,0.8-0.2c4-2.9,6-6,7-8.3
		c1,2.4,2.8,5.7,6.2,9.5c0.2,0.2,0.5,0.4,0.9,0.4c0.1,0,0.2,0,0.3-0.1c0.2-0.1,0.4-0.2,0.5-0.4l4.3-6.5c0.3-0.4,0.2-1-0.1-1.3
		c-9.2-10-10.7-17.8-11-19.7c0-0.1,0-0.2,0-0.3c0-0.1,0-0.2,0-0.2v-4.5c0.8-0.1,1.5-0.3,2.3-0.6l0.2-0.1c0.8-0.3,1.5-0.7,2.2-1.2
		l3,3.3c0,0,0.1,0,0.1,0.1s0.1,0.1,0.2,0.2c1.1,1.6,5.1,8.4,5.2,22c0,0.5,0.3,0.9,0.8,1.1l7.6,1.9c0.2,0,0.5,0,0.7,0
		c0.1,0,0.2-0.1,0.3-0.1c0.2-0.2,0.4-0.5,0.4-0.8c0-5.1-0.9-8.8-1.8-11.2c2.4,1,6,1.9,10.8,1.4c0.3,0,0.5-0.2,0.7-0.4
		c0.2-0.3,0.2-0.6,0.2-0.8l-1.4-8.8c-0.1-0.6-0.6-1-1.2-0.9c-12.7,1.5-19.5-3.7-20.8-4.8c-0.1-0.1-0.2-0.2-0.2-0.2l-3-3.3
		c0.7-0.7,1.3-1.6,1.7-2.5c0.4-1,0.7-2,0.7-3h4.3c0.1,0,0.1,0.1,0.1,0c0,0,0,0,0.1,0c1.1,0.1,9.9,1.4,17.7,12.2
		c0.3,0.4,0.8,0.6,1.2,0.4l0.2-0.1l7.4-4.9c0.2-0.2,0.4-0.4,0.4-0.7c0-0.2,0-0.5-0.2-0.8c-2.8-4-5.9-6-8.3-7.1
		c2.2-0.8,5.6-2.6,9.5-6.2c0.2-0.2,0.4-0.5,0.3-0.9c0-0.3-0.2-0.6-0.5-0.8l-6.5-4.3c-0.4-0.3-1-0.2-1.3,0.1
		c-6.1,5.6-11.4,8.3-14.7,9.6c-2.8,1.1-4.7,1.3-5.2,1.4c-0.1,0-0.2,0-0.2,0h-4.5c-0.1-0.8-0.3-1.5-0.6-2.3l-0.1-0.3
		c-0.3-0.8-0.7-1.4-1.1-2.1l3.3-3c0,0,0,0,0.1-0.1c0.4-0.3,2-1.4,4.8-2.5c3.3-1.3,9.1-2.8,17.4-2.8c0.1,0,0.3,0,0.4-0.1
		c0.3-0.1,0.6-0.4,0.7-0.8l1.9-7.6c0.1-0.3,0-0.7-0.2-0.9c-0.2-0.3-0.5-0.4-0.8-0.4c-5.3,0-9,1-11.2,1.8c1-2.4,1.9-6,1.3-10.8
		c0-0.3-0.2-0.6-0.4-0.7c-0.3-0.2-0.6-0.2-0.8-0.2l-8.8,1.3c-0.5,0.1-0.9,0.6-0.9,1.2c1.5,13.2-4.1,20-4.9,20.9
		c-0.1,0.1-0.2,0.2-0.3,0.3l-3.1,2.8c-0.7-0.7-1.6-1.3-2.5-1.7c-1-0.4-2-0.6-3-0.7v-4.4c0,0,0-0.1,0-0.3c0.2-1.6,1.8-10.1,12.2-17.5
		c0.5-0.4,0.6-1,0.3-1.5l-4.9-7.4c-0.2-0.2-0.4-0.4-0.7-0.5c-0.3,0-0.5,0-0.8,0.2c-4,2.9-6,6-7.1,8.3c-0.9-2.4-2.7-5.7-6.2-9.5
		c-0.2-0.2-0.5-0.3-0.9-0.4c-0.3,0-0.6,0.2-0.8,0.5l-4.3,6.5c-0.3,0.4-0.2,1,0.1,1.3c9.5,10.3,10.8,18.3,11,19.9v0.6l0,0v4.1
		c-0.8,0.1-1.5,0.3-2.3,0.6l-0.3,0.1c-0.8,0.3-1.4,0.7-2.1,1.1l-3-3.3c0,0-0.1,0-0.1-0.1s-0.1-0.1-0.2-0.2c-1.1-1.6-5.2-8.4-5.2-22
		c0-0.5-0.3-0.9-0.8-1.1l-7.6-1.9c-0.3-0.1-0.6,0-0.9,0.2s-0.4,0.5-0.4,0.8c0,5.1,0.9,8.8,1.8,11.2c-2.3-1.1-5.9-2-10.8-1.4
		c-0.3,0.1-0.6,0.2-0.8,0.4c-0.1,0.2-0.2,0.5-0.2,0.8l1.3,8.8c0.1,0.6,0.6,1,1.2,0.9c13.3-1.6,20,4.1,20.9,4.8
		c0.1,0.1,0.1,0.1,0.1,0.1s0,0,0.1,0l2.9,3.2c-0.7,0.7-1.3,1.6-1.7,2.5c-0.4,1-0.6,2-0.7,3h-4.4h-0.1c0,0,0,0-0.1,0
		c-1.1-0.1-9.9-1.4-17.7-12.2c-0.4-0.5-1-0.6-1.5-0.3l-7.4,4.9c-0.2,0.2-0.4,0.4-0.5,0.7c0,0.2,0,0.5,0.2,0.8c2.9,4,6,6,8.3,7.1
		c-2.2,0.8-5.5,2.6-9.5,6.2c-0.3,0.2-0.4,0.5-0.4,0.9c0,0.3,0.2,0.6,0.5,0.8l6.5,4.3c0.3,0.2,0.6,0.3,1,0.1c0.1,0,0.2-0.1,0.3-0.2
		c6.2-5.6,11.4-8.3,14.7-9.6c2.9-1.1,4.8-1.4,5.3-1.4c0.1,0,0.1,0,0.1,0h4.5c0.1,0.8,0.3,1.5,0.6,2.3l0.1,0.3
		c0.3,0.8,0.7,1.4,1.1,2.1l-3.3,3c0,0,0,0-0.1,0.1c-0.4,0.3-1.9,1.4-4.8,2.5c-3.3,1.3-9,2.8-17.4,2.8c-0.5,0-0.9,0.3-1,0.8
		L1528.7,279.2z M1536.1,257.6L1536.1,257.6c0.2,0,0.3,0,0.3,0h7c-3.4,1.5-8.1,4.1-13.3,8.9l-4.7-3.1
		C1531.2,258.4,1535.1,257.7,1536.1,257.6z M1543.9,255.5h-7.5c0,0,0,0-0.1,0c0,0-0.1,0-0.2,0c-1.2-0.2-5.5-1.1-9.7-6.4l5.6-3.7
		C1536.1,250.8,1540.4,253.8,1543.9,255.5z M1544.9,235.8L1544.9,235.8c0.1,0.1,0.1,0.1,0.1,0.1l5,5.6c-3.6-1.4-8.7-2.5-15.5-1.9
		l-1-6.7C1540.7,232.3,1544.2,235.2,1544.9,235.8z M1551.3,239.6l-4.7-5.1l0,0c-0.3-0.4-2.9-4.1-3.2-12l5.5,1.4
		C1548.9,230.7,1550,235.9,1551.3,239.6z M1564.1,227.6L1564.1,227.6v7c-1.6-3.6-4.3-8.2-8.9-13.3l3.1-4.7
		C1563.5,222.6,1564,227.1,1564.1,227.6z M1566.3,235.2v-7.5c0,0,0,0,0-0.1c0,0,0-0.1,0-0.2c0.2-1.2,1.1-5.5,6.4-9.7l3.7,5.6
		C1570.9,227.4,1567.9,231.7,1566.3,235.2z M1586,236.1c-0.1,0.1-0.1,0.1-0.1,0.1c0,0.1-0.1,0.1-0.1,0.1l-5.6,5
		c1.5-3.6,2.6-8.7,1.9-15.5l6.7-1C1589.4,231.6,1586.8,235.2,1586,236.1z M1582.1,242.6l5.2-4.7c0,0,0.1-0.1,0.2-0.2l0,0
		c0.8-0.6,4.1-2.8,11.8-3l-1.4,5.5C1590.8,240.2,1585.6,241.4,1582.1,242.6z M1594.3,255.4L1594.3,255.4c-0.2,0-0.3,0-0.3,0h-7
		c3.4-1.5,8.1-4.1,13.4-8.9l4.7,3.1C1599.3,254.6,1595.4,255.3,1594.3,255.4z M1586.6,257.5h7.5c0,0,0,0,0.1,0c0,0,0.1,0,0.2,0
		c1.2,0.2,5.5,1.1,9.7,6.4l-5.6,3.7C1594.3,262.2,1590.1,259.2,1586.6,257.5z M1585.6,277.3c-0.1,0-0.1-0.1-0.1-0.1
		c-0.1,0-0.1-0.1-0.1-0.1l-5-5.6c3.6,1.4,8.7,2.6,15.5,1.9l1.1,6.6C1590.2,280.6,1586.6,278.1,1585.6,277.3z M1579.2,273.4l4.7,5.1
		l0,0c0.3,0.4,2.9,4.1,3.2,12l-5.5-1.4C1581.5,282.3,1580.4,277.1,1579.2,273.4z M1566.4,285.4L1566.4,285.4v-7
		c1.6,3.6,4.2,8.2,8.9,13.3l-3.1,4.7C1567,290.4,1566.4,285.9,1566.4,285.4z M1564.2,277.8v7.5v0.1v0.1c-0.1,0.9-0.8,5.4-6.4,9.8
		l-3.7-5.6C1559.5,285.6,1562.5,281.3,1564.2,277.8z M1558.9,260.8c-0.3-0.4-0.5-0.9-0.7-1.4l-0.1-0.3c-0.2-0.5-0.3-1-0.4-1.5
		c-0.1-0.7-0.2-1.4,0-2.1c0.1-0.7,0.2-1.4,0.5-2.1c0.3-0.6,0.7-1.2,1.2-1.7c0.5-0.6,1-1,1.6-1.4c0.4-0.3,0.9-0.5,1.4-0.7l0.3-0.1
		c0.5-0.2,1-0.3,1.5-0.4c0.7-0.1,1.4-0.1,2.1,0c0.7,0,1.4,0.2,2.1,0.5c0.6,0.3,1.2,0.7,1.7,1.2c0.6,0.5,1,1,1.4,1.6
		c0.3,0.4,0.5,0.9,0.7,1.4l0.1,0.3c0.2,0.5,0.4,1,0.4,1.5c0.1,0.7,0.1,1.4,0.1,2.1s-0.2,1.4-0.5,2.1c-0.3,0.6-0.7,1.2-1.2,1.7
		c-0.5,0.6-1,1-1.6,1.4c-0.4,0.3-0.9,0.5-1.4,0.7l-0.3,0.1c-0.5,0.2-1,0.3-1.5,0.4c-0.7,0.1-1.4,0.1-2.1,0c-0.7,0-1.4-0.2-2.1-0.5
		s-1.2-0.7-1.7-1.2C1559.7,262,1559.3,261.4,1558.9,260.8z M1544.4,276.9c0-0.1,0.1-0.1,0.1-0.1c0-0.1,0.1-0.1,0.1-0.1l5.6-5
		c-1.4,3.6-2.6,8.7-2,15.5l-6.6,1C1541.1,281.4,1543.7,277.8,1544.4,276.9z M1531.1,278.3l1.4-5.5c7.1,0,12.3-1.3,15.8-2.4l-5.1,4.7
		l0,0c-0.2,0.2-1.2,0.8-2.9,1.5C1538.4,277.3,1535.4,278.2,1531.1,278.3z"/>
	<rect class="elementor-shape-fill ha-shape-divider" x="1564.5" y="0" width="1.2" height="226.2"/>
	<polygon class="elementor-shape-fill ha-shape-divider" points="1511.1,216 1518.7,209.1 1528.4,212.2 1524.3,202.9 1530.2,194.5 1520,195.6 1513.9,187.4 1511.8,197.4
		1502.1,200.7 1511,205.8 	"/>
</g>
<g>
	<polygon class="elementor-shape-fill ha-shape-divider" points="1706.3,178.4 1715.2,177.3 1720.6,184.3 1722.3,175.6 1730.7,172.5 1722.8,168.2 1722.6,159.3 1716.1,165.4
		1707.5,163 1711.3,171 	"/>
	<g>
		<path class="elementor-shape-fill ha-shape-divider" d="M1704.7,54.6c-1.9,0-3.4,1.5-3.4,3.4s1.5,3.4,3.4,3.4c1.1,0,2-0.5,2.7-1.3c0.4-0.5,0.6-1,0.7-1.6c0-0.1,0-0.3,0-0.4
			C1708.1,56.1,1706.6,54.6,1704.7,54.6z"/>
		<path class="elementor-shape-fill ha-shape-divider" d="M1707.4,76.9c-0.6-0.8-1.6-1.3-2.7-1.3c-1.9,0-3.4,1.5-3.4,3.4s1.5,3.4,3.4,3.4s3.4-1.5,3.4-3.4c0-0.1,0-0.3,0-0.4
			C1708,77.9,1707.7,77.4,1707.4,76.9z"/>
		<path class="elementor-shape-fill ha-shape-divider" d="M1725.2,49.7c-0.2-0.1-0.4-0.1-0.5-0.1c-0.5,0-0.9,0.2-1.2,0.6c-0.3,0.3-0.5,0.7-0.5,1c0,0.9,0.7,1.5,1.5,1.6h0.1
			c0.6,0,1.2-0.4,1.4-0.9c0.1-0.2,0.2-0.5,0.2-0.7C1726.3,50.5,1725.9,50,1725.2,49.7z"/>
		<path class="elementor-shape-fill ha-shape-divider" d="M1714.3,60c-0.4,0-0.8,0.2-1,0.5c-0.3,0.2-0.5,0.7-0.5,1.2c0,0.2,0,0.3,0.1,0.5l0,0c0.2,0.6,0.8,1.1,1.5,1.1
			c0.3,0,0.5-0.1,0.7-0.2c0.5-0.2,0.9-0.8,0.9-1.4v-0.1C1715.9,60.7,1715.2,60,1714.3,60z"/>
		<path class="elementor-shape-fill ha-shape-divider" d="M1724.4,41.6c0-1.9-1.5-3.3-3.4-3.3s-3.4,1.5-3.4,3.3c0,1.9,1.5,3.4,3.4,3.4c0.1,0,0.3,0,0.4,0c0.6-0.1,1.2-0.3,1.6-0.7
			C1723.9,43.7,1724.4,42.7,1724.4,41.6z"/>
		<path class="elementor-shape-fill ha-shape-divider" d="M1755.7,60c0.6,0.8,1.6,1.3,2.7,1.3c1.9,0,3.4-1.5,3.4-3.4s-1.5-3.4-3.4-3.4s-3.4,1.5-3.4,3.4c0,0.1,0,0.3,0,0.4
			C1755.1,59,1755.4,59.6,1755.7,60z"/>
		<path class="elementor-shape-fill ha-shape-divider" d="M1740,44.3c0.5,0.4,1,0.6,1.6,0.7c0.1,0,0.3,0,0.4,0c1.9,0,3.4-1.5,3.4-3.4s-1.5-3.3-3.4-3.3s-3.4,1.5-3.4,3.3
			C1738.7,42.7,1739.2,43.7,1740,44.3z"/>
		<path class="elementor-shape-fill ha-shape-divider" d="M1738.4,52.9L1738.4,52.9c0.9,0,1.6-0.7,1.6-1.6c0-0.4-0.1-0.8-0.5-1c-0.2-0.3-0.7-0.6-1.2-0.6c-0.2,0-0.3,0-0.5,0.1
			c-0.6,0.2-1.1,0.8-1.1,1.5c0,0.3,0.1,0.5,0.2,0.7C1737.3,52.5,1737.8,52.9,1738.4,52.9z"/>
		<path class="elementor-shape-fill ha-shape-divider" d="M1715.1,73.9c-0.2-0.1-0.5-0.2-0.7-0.2c-0.7,0-1.3,0.5-1.5,1l0,0c-0.1,0.2-0.1,0.3-0.1,0.5c0,0.5,0.2,0.9,0.5,1.2
			c0.3,0.3,0.6,0.5,1,0.5c0.9,0,1.5-0.7,1.6-1.5v-0.1C1716,74.7,1715.6,74.2,1715.1,73.9z"/>
		<path class="elementor-shape-fill ha-shape-divider" d="M1723.1,92.6c-0.5-0.4-1-0.6-1.6-0.7c-0.1,0-0.3,0-0.4,0c-1.9,0-3.4,1.5-3.4,3.4s1.5,3.3,3.4,3.3s3.4-1.5,3.4-3.3
			C1724.4,94.2,1723.9,93.3,1723.1,92.6z"/>
		<path class="elementor-shape-fill ha-shape-divider" d="M1758.4,82.3c1.9,0,3.4-1.5,3.4-3.4s-1.5-3.4-3.4-3.4c-1.1,0-2,0.5-2.7,1.3c-0.4,0.5-0.6,1-0.7,1.6c0,0.1,0,0.3,0,0.4
			C1755,80.8,1756.5,82.3,1758.4,82.3z"/>
		<path class="elementor-shape-fill ha-shape-divider" d="M1748.8,60c-0.9,0-1.5,0.7-1.6,1.5v0.1c0,0.6,0.4,1.2,0.9,1.4c0.2,0.1,0.5,0.2,0.7,0.2c0.7,0,1.3-0.5,1.5-1.1l0,0
			c0.1-0.2,0.1-0.3,0.1-0.5c0-0.5-0.2-0.9-0.5-1.2C1749.5,60.2,1749.2,60,1748.8,60z"/>
		<path class="elementor-shape-fill ha-shape-divider" d="M1731.6,23.3c-25,0-45.2,20.2-45.2,45.2s20.2,45.2,45.2,45.2s45.2-20.2,45.2-45.2C1776.8,43.5,1756.5,23.3,1731.6,23.3z
			 M1752.1,61.6c0,1.9-1.5,3.4-3.3,3.4c-1,0-2-0.5-2.6-1.2l-12.2,4.7l12.2,4.7c0.6-0.7,1.5-1.2,2.6-1.2c1.9,0,3.3,1.5,3.3,3.4
			c0,0.1,0,0.1,0,0.2l2,0.8c0.9-1.4,2.5-2.4,4.3-2.4c2.8,0,5.1,2.3,5.1,5.1c0,2.8-2.3,5.1-5.1,5.1c-2.8,0-5.1-2.3-5.1-5.1
			c0-0.4,0-0.7,0.1-1.1l-1.9-0.7c-0.6,0.9-1.6,1.5-2.8,1.5c-1.9,0-3.4-1.5-3.4-3.4c0-0.2,0-0.3,0.1-0.5l-12.4-4.8l4.8,12.4
			c0.2-0.1,0.3-0.1,0.5-0.1c1.9,0,3.4,1.5,3.4,3.4c0,1.2-0.6,2.2-1.5,2.8l0.7,1.8c0.3-0.1,0.7-0.1,1.1-0.1c2.8,0,5.1,2.3,5.1,5.1
			c0,2.8-2.3,5.1-5.1,5.1c-2.8,0-5.1-2.3-5.1-5.1c0-1.8,1-3.4,2.4-4.3l-0.8-2c-0.1,0-0.1,0-0.2,0c-1.8,0-3.4-1.5-3.4-3.4
			c0-1,0.5-2,1.2-2.6l-4.7-12.2l-4.7,12.2c0.7,0.6,1.2,1.5,1.2,2.6c0,1.9-1.5,3.4-3.4,3.4c-0.1,0-0.1,0-0.2,0l-0.8,2
			c1.4,0.9,2.4,2.5,2.4,4.3c0,2.8-2.3,5.1-5.1,5.1c-2.8,0-5.1-2.3-5.1-5.1c0-2.8,2.3-5.1,5.1-5.1c0.4,0,0.7,0,1.1,0.1l0.7-1.8
			c-0.9-0.6-1.5-1.6-1.5-2.8c0-1.9,1.5-3.4,3.4-3.4c0.2,0,0.4,0,0.5,0.1l4.8-12.4l-12.4,4.8c0.1,0.2,0.1,0.4,0.1,0.5
			c0,1.9-1.5,3.4-3.4,3.4c-1.2,0-2.2-0.6-2.8-1.5l-1.9,0.7c0.1,0.4,0.1,0.7,0.1,1.1c0,2.8-2.3,5.1-5.1,5.1c-2.8,0-5.1-2.3-5.1-5.1
			c0-2.8,2.3-5.1,5.1-5.1c1.8,0,3.4,1,4.3,2.4l2-0.8c0-0.1,0-0.1,0-0.2c0-1.9,1.5-3.4,3.3-3.4c1,0,2,0.5,2.6,1.2l12.2-4.7l-12.2-4.7
			c-0.6,0.7-1.5,1.2-2.6,1.2c-1.9,0-3.3-1.5-3.3-3.4c0-0.1,0-0.1,0-0.2l-2-0.8c-0.9,1.4-2.5,2.4-4.3,2.4c-2.8,0-5.1-2.3-5.1-5.1
			s2.3-5.1,5.1-5.1c2.8,0,5.1,2.3,5.1,5.1c0,0.4,0,0.7-0.1,1.1l1.9,0.7c0.6-0.9,1.6-1.5,2.8-1.5c1.9,0,3.4,1.5,3.4,3.4
			c0,0.2,0,0.3-0.1,0.5l12.4,4.8l-4.8-12.4c-0.2,0.1-0.4,0.1-0.5,0.1c-1.9,0-3.4-1.5-3.4-3.4c0-1.2,0.6-2.2,1.5-2.8l-0.7-1.8
			c-0.3,0.1-0.7,0.1-1.1,0.1c-2.8,0-5.1-2.3-5.1-5.1s2.3-5.1,5.1-5.1c2.8,0,5.1,2.3,5.1,5.1c0,1.8-1,3.4-2.4,4.3l0.8,2
			c0.1,0,0.1,0,0.2,0c1.9,0,3.4,1.5,3.4,3.4c0,1.1-0.5,2-1.2,2.6l4.7,12.2l4.7-12.2c-0.7-0.6-1.2-1.5-1.2-2.6c0-1.9,1.5-3.4,3.4-3.4
			c0.1,0,0.1,0,0.2,0l0.8-2c-1.4-0.9-2.4-2.5-2.4-4.3c0-2.8,2.3-5.1,5.1-5.1c2.8,0,5.1,2.3,5.1,5.1s-2.3,5.1-5.1,5.1
			c-0.4,0-0.7,0-1.1-0.1l-0.7,1.8c0.9,0.6,1.5,1.6,1.5,2.8c0,1.9-1.5,3.4-3.4,3.4c-0.2,0-0.3,0-0.5-0.1l-4.8,12.4l12.4-4.8
			c-0.1-0.2-0.1-0.3-0.1-0.5c0-1.9,1.5-3.4,3.4-3.4c1.2,0,2.2,0.6,2.8,1.5l1.9-0.7c-0.1-0.4-0.1-0.7-0.1-1.1c0-2.8,2.3-5.1,5.1-5.1
			c2.8,0,5.1,2.3,5.1,5.1s-2.3,5.1-5.1,5.1c-1.8,0-3.4-1-4.3-2.4l-2,0.8C1752.1,61.5,1752.1,61.5,1752.1,61.6z"/>
		<path class="elementor-shape-fill ha-shape-divider" d="M1748.8,76.9c0.4,0,0.8-0.2,1.1-0.5c0.3-0.2,0.5-0.7,0.5-1.2c0-0.2,0-0.3-0.1-0.5l0,0c-0.2-0.6-0.8-1-1.5-1
			c-0.3,0-0.5,0.1-0.7,0.2c-0.5,0.2-0.9,0.8-0.9,1.4v0.1C1747.2,76.3,1747.9,76.9,1748.8,76.9z"/>
		<path class="elementor-shape-fill ha-shape-divider" d="M1724.7,84.1L1724.7,84.1c-0.9,0-1.6,0.7-1.6,1.6c0,0.4,0.1,0.8,0.5,1c0.2,0.3,0.7,0.6,1.2,0.6c0.2,0,0.4,0,0.5-0.1
			c0.6-0.2,1.1-0.8,1.1-1.5c0-0.3-0.1-0.5-0.2-0.7C1725.9,84.4,1725.3,84.1,1724.7,84.1z"/>
		<path class="elementor-shape-fill ha-shape-divider" d="M1737.9,87.2c0.2,0.1,0.3,0.1,0.5,0.1c0.5,0,0.9-0.2,1.2-0.6c0.3-0.3,0.5-0.7,0.5-1c0-0.9-0.7-1.5-1.5-1.6h-0.1
			c-0.6,0-1.2,0.3-1.4,0.9c-0.1,0.2-0.2,0.5-0.2,0.7C1736.8,86.4,1737.3,87,1737.9,87.2z"/>
		<path class="elementor-shape-fill ha-shape-divider" d="M1738.7,95.3c0,1.9,1.5,3.3,3.4,3.3s3.4-1.5,3.4-3.3c0-1.9-1.5-3.4-3.4-3.4c-0.1,0-0.3,0-0.4,0c-0.6,0.1-1.2,0.3-1.6,0.7
			C1739.2,93.3,1738.7,94.2,1738.7,95.3z"/>
	</g>
	<path class="elementor-shape-fill ha-shape-divider" d="M1721.1,18.6v0.1v8.5h21.1v-8.5c0-0.7-2.7-1.3-6.5-1.5c0.6-0.8,1-1.8,1-2.9c0-2.5-1.8-4.6-4.2-4.9V0h-1.6v9.3
		c-2.4,0.4-4.2,2.4-4.2,4.9c0,1.1,0.4,2.1,1,2.9c-1.2,0.1-2.2,0.2-3.1,0.3c-0.9,0.1-1.7,0.3-2.3,0.5
		C1721.5,18.2,1721.2,18.4,1721.1,18.6z M1728.1,14.3c0-1.9,1.5-3.5,3.5-3.5c1.9,0,3.5,1.5,3.5,3.5c0,1.2-0.6,2.2-1.5,2.9
		c-0.6,0-1.3,0-2,0s-1.3,0-1.9,0C1728.7,16.5,1728.1,15.5,1728.1,14.3z"/>
</g>
<g>
	<path class="elementor-shape-fill ha-shape-divider" d="M1352.8,244.6c-3.8,5.4,2.1,11.3,7.5,7.5c0.2-0.1,0.3-0.3,0.4-0.4c3.8-5.4-2.1-11.3-7.5-7.5
		C1353.1,244.2,1352.9,244.4,1352.8,244.6z"/>
	<g>
		<path class="elementor-shape-fill ha-shape-divider" d="M1348.2,67.1c-8.8-1-9.3,9.2-7.8,18c-3.7-7.7-10-15.3-17-8c-7.1,7.3,2.8,13.7,11.1,17.1c-9.4-0.7-21.1,0.7-19,9.9
			c2.6,11,20.2,0.7,27.2-4.8c1.2,0.6,2.7,0.4,3.7-0.7c1.1-1.2,1.1-3,0.1-4.2C1351,87.3,1359.4,68.4,1348.2,67.1z M1348,67.9
			c7.2,0.6,1.3,17.2-2.5,26c-0.6-0.3-1.2-0.4-1.8-0.3C1342.5,85.9,1340.4,67.2,1348,67.9z M1324,77.5c6.3-6.2,15.3,10.3,18.4,16.5
			c-0.2,0.1-0.4,0.3-0.6,0.5s-0.3,0.4-0.5,0.7c-0.2,0-0.4-0.1-0.5-0.1C1332.6,91.3,1318.1,83.3,1324,77.5z M1316.2,103.9
			c-1.5-7.3,16.5-7.6,24.8-7.4c0,0.7,0.2,1.5,0.7,2.1C1333.2,103.5,1317.7,111,1316.2,103.9z"/>
		<path class="elementor-shape-fill ha-shape-divider" d="M1370.1,71.2l-18.7,20.2c-2.3,2.4-2.1,6.2,0.3,8.5l8.1,7.5c2.4,2.2,6.2,2.1,8.5-0.3l18.7-20.2c2.3-2.4,2.1-6.2-0.3-8.5
			l-8.1-7.5C1376.2,68.6,1372.4,68.8,1370.1,71.2z"/>
		<path class="elementor-shape-fill ha-shape-divider" d="M1389,92.6l-16.8,18.1c-2.3,2.4-2.1,6.2,0.3,8.5l34.8,32c2.4,2.2,6.2,2.1,8.5-0.3l16.7-18c2.3-2.4,2.1-6.2-0.3-8.5
			l-34.7-32.1C1395.1,90,1391.3,90.2,1389,92.6z"/>
		<path class="elementor-shape-fill ha-shape-divider" d="M1356.4,119.9c2.3-2.4,2.1-6.2-0.3-8.5l-8.1-7.5c-2.4-2.2-6.2-2.1-8.5,0.3l-18.8,20.3c-2.3,2.4-2.1,6.2,0.3,8.5l8.1,7.5
			c2.4,2.3,6.2,2.1,8.5-0.3L1356.4,119.9z"/>
		<path class="elementor-shape-fill ha-shape-divider" d="M1360.5,123.4l-16.9,18.3c-2.3,2.4-2.1,6.2,0.3,8.5l34.7,32.1c2.4,2.3,6.2,2.1,8.5-0.3l17-18.4c2.3-2.4,2.1-6.2-0.3-8.5
			l-34.8-32C1366.5,120.9,1362.7,121,1360.5,123.4z"/>
	</g>
	<rect class="elementor-shape-fill ha-shape-divider" x="1373.9" y="0" width="1.6" height="69.9"/>
</g>
<g>
	<path class="elementor-shape-fill ha-shape-divider" d="M2474,271.6c-0.1-0.5-0.5-0.8-1-0.8c-8.3,0-14.1-1.6-17.4-2.8c-2.9-1.1-4.4-2.2-4.8-2.5c-0.1-0.1-0.1-0.1-0.1-0.1l-3.3-3
		c0.4-0.6,0.8-1.3,1.1-2.1l0.1-0.3c0.3-0.8,0.5-1.5,0.6-2.3h4.5c0,0,0,0,0.1,0c0.5,0.1,2.4,0.3,5.3,1.4c3.3,1.3,8.6,4,14.7,9.6
		c0.1,0.1,0.2,0.2,0.3,0.2c0.3,0.1,0.7,0.1,1-0.1l6.5-4.3c0.3-0.2,0.5-0.5,0.5-0.8s-0.1-0.7-0.4-0.9c-3.9-3.6-7.3-5.4-9.5-6.2
		c2.3-1.1,5.4-3.1,8.3-7.1c0.1-0.3,0.2-0.6,0.2-0.8c-0.1-0.3-0.2-0.6-0.5-0.7l-7.4-4.9c-0.5-0.3-1.1-0.2-1.5,0.3
		c-7.7,10.7-16.5,12-17.7,12.2c-0.1,0-0.1,0-0.1,0h-0.1h-4.4c-0.1-1-0.3-2-0.7-3c-0.5-1-1-1.8-1.7-2.5l2.9-3.2h0.1c0,0,0,0,0.1-0.1
		c0.9-0.8,7.7-6.4,20.9-4.8c0.6,0,1.1-0.4,1.2-0.9l1.3-8.8c0-0.3-0.1-0.6-0.2-0.8c-0.2-0.2-0.5-0.4-0.8-0.4
		c-4.9-0.6-8.5,0.3-10.8,1.4c0.9-2.4,1.8-6.1,1.8-11.2c0-0.3-0.1-0.6-0.4-0.8c-0.2-0.2-0.6-0.3-0.9-0.2l-7.6,1.9
		c-0.5,0.1-0.8,0.6-0.8,1.1c0,13.6-4.1,20.4-5.2,22c-0.1,0.1-0.1,0.1-0.2,0.2c0,0.1-0.1,0.1-0.1,0.1l-3,3.3
		c-0.6-0.5-1.3-0.8-2.1-1.1l-0.3-0.1c-0.8-0.3-1.5-0.5-2.3-0.6V243l0,0v-1c0.2-1.5,1.5-9.5,11-19.9c0.4-0.4,0.4-0.9,0.1-1.3
		l-4.3-6.5c-0.2-0.3-0.5-0.5-0.8-0.5s-0.6,0.1-0.9,0.4c-3.5,3.8-5.3,7.1-6.2,9.5c-1-2.4-3.1-5.5-7.1-8.3c-0.3-0.2-0.5-0.2-0.8-0.2
		c-0.3,0.1-0.6,0.2-0.7,0.5l-4.9,7.4c-0.3,0.5-0.2,1.1,0.3,1.5c10.4,7.5,11.9,15.9,12.2,17.5c0,0.2,0,0.3,0,0.3v4.4
		c-1,0.1-2,0.3-3,0.7c-0.9,0.4-1.8,1-2.5,1.7l-3.1-2.8c-0.1-0.1-0.2-0.2-0.3-0.3c-0.8-0.9-6.4-7.7-4.9-20.9c0-0.6-0.4-1.1-0.9-1.2
		l-8.8-1.3c-0.3,0-0.6,0.1-0.8,0.2c-0.2,0.2-0.3,0.4-0.4,0.7c-0.6,4.9,0.3,8.5,1.3,10.8c-2.2-0.8-5.9-1.8-11.2-1.8
		c-0.3,0-0.6,0.1-0.8,0.4c-0.2,0.2-0.2,0.6-0.2,0.9l1.9,7.6c0.1,0.3,0.3,0.6,0.7,0.8c0.1,0,0.3,0.1,0.4,0.1c8.3,0,14,1.5,17.4,2.8
		c2.8,1.1,4.4,2.2,4.8,2.5c0.1,0.1,0.1,0.1,0.1,0.1l3.3,3c-0.5,0.6-0.8,1.3-1.1,2.1l-0.1,0.3c-0.3,0.8-0.5,1.5-0.6,2.3h-4.5
		c0,0,0,0-0.2,0c-0.5-0.1-2.4-0.3-5.2-1.4c-3.3-1.3-8.6-4-14.7-9.6c-0.4-0.3-0.9-0.4-1.3-0.1l-6.5,4.3c-0.3,0.2-0.5,0.5-0.5,0.8
		c0,0.4,0.1,0.7,0.3,0.9c3.9,3.6,7.3,5.4,9.5,6.2c-2.4,1.1-5.5,3.1-8.3,7.1c-0.2,0.3-0.3,0.5-0.2,0.8s0.2,0.5,0.4,0.7l7.4,4.9
		l0.2,0.1c0.4,0.2,0.9,0,1.2-0.4c7.7-10.7,16.5-12,17.7-12.2c0.1,0,0.1,0,0.1,0h0.1h4.3c0.1,1,0.3,2,0.7,3c0.4,0.9,1,1.8,1.7,2.5
		l-3,3.3c0,0-0.1,0.1-0.2,0.2c-1.3,1.1-8.1,6.2-20.8,4.8c-0.6,0-1.1,0.3-1.2,0.9l-1.4,8.8c0,0.3,0.1,0.6,0.2,0.8
		c0.2,0.2,0.5,0.4,0.7,0.4c4.9,0.6,8.5-0.3,10.8-1.4c-0.9,2.4-1.8,6.1-1.8,11.2c0,0.3,0.2,0.6,0.4,0.8c0.1,0,0.2,0.1,0.3,0.1
		c0.2,0.1,0.4,0.1,0.7,0l7.6-1.9c0.5-0.1,0.8-0.6,0.8-1.1c0-13.5,4.1-20.4,5.2-22c0.1-0.1,0.1-0.1,0.2-0.2c0.1-0.1,0.1-0.1,0.1-0.1
		l3-3.3c0.7,0.5,1.4,0.9,2.2,1.2l0.2,0.1c0.8,0.3,1.5,0.5,2.3,0.6v4.5c0,0,0,0.1,0,0.2s0,0.2,0,0.3c-0.3,1.9-1.8,9.7-11,19.7
		c-0.3,0.4-0.4,0.9-0.1,1.3l4.3,6.5c0.1,0.2,0.3,0.3,0.5,0.4c0.1,0,0.2,0,0.3,0.1c0.4,0,0.7-0.1,0.9-0.4c3.5-3.8,5.3-7.1,6.2-9.5
		c1,2.4,3.1,5.4,7,8.3c0.3,0.1,0.6,0.2,0.8,0.2c0.3-0.1,0.5-0.3,0.7-0.5l4.9-7.4c0.3-0.5,0.2-1.1-0.3-1.5
		c-10.8-7.8-12-16.5-12.2-17.7c0-0.1,0-0.1,0-0.1v-0.1v-4.4c1-0.1,2.1-0.3,3-0.7c0.9-0.4,1.8-1,2.5-1.7l3.2,2.9v0.1c0,0,0,0,0.1,0.1
		c0.8,0.8,6.4,7.7,4.9,20.9c-0.1,0.5,0.2,1,0.7,1.1l0.2,0.1l8.8,1.3c0.3,0,0.6-0.1,0.8-0.2c0.2-0.2,0.3-0.4,0.4-0.7
		c0.6-4.9-0.3-8.5-1.3-10.8c2.2,0.8,5.9,1.8,11.2,1.8c0.3,0,0.6-0.1,0.8-0.4c0.2-0.2,0.3-0.6,0.2-0.9L2474,271.6z M2479.3,263.4
		l-4.7,3.1c-5.3-4.7-10-7.4-13.3-8.9h7c0,0,0.1,0,0.2,0l0,0C2469.5,257.7,2473.4,258.4,2479.3,263.4z M2472.6,245.3l5.6,3.7
		c-4.2,5.3-8.5,6.2-9.7,6.4c-0.1,0-0.2,0-0.2,0c-0.1,0-0.1,0-0.1,0h-7.5C2464.2,253.8,2468.5,250.8,2472.6,245.3z M2471,232.9
		l-1,6.7c-6.8-0.6-11.9,0.5-15.5,1.9l5-5.6c0,0,0.1,0,0.1-0.1h0.1C2460.4,235.2,2463.9,232.3,2471,232.9z M2455.7,223.8l5.5-1.4
		c-0.3,7.9-2.9,11.6-3.2,12l0,0l-4.7,5.1C2454.5,235.9,2455.7,230.7,2455.7,223.8z M2446.2,216.6l3.1,4.7c-4.6,5.1-7.3,9.7-8.9,13.3
		v-6.9l0,0C2440.6,227.1,2441.1,222.6,2446.2,216.6z M2428.2,223.3l3.7-5.6c5.3,4.2,6.2,8.5,6.4,9.7c0,0.1,0,0.1,0,0.2
		c0,0.1,0,0.1,0,0.1v7.5C2436.7,231.7,2433.7,227.4,2428.2,223.3z M2415.7,224.8l6.7,1c-0.7,6.8,0.5,11.9,1.9,15.5l-5.6-5
		c0,0,0,0-0.1-0.1l-0.1-0.1C2417.8,235.2,2415.2,231.6,2415.7,224.8z M2406.6,240.1l-1.4-5.5c7.7,0.3,11.1,2.5,11.8,3l0,0
		c0.1,0.1,0.2,0.2,0.2,0.2l5.2,4.7C2419,241.4,2413.7,240.2,2406.6,240.1z M2399.5,249.6l4.7-3.1c5.3,4.8,10,7.4,13.4,8.9h-7
		c0,0-0.1,0-0.2,0l0,0C2409.2,255.3,2405.3,254.6,2399.5,249.6z M2406.2,267.7l-5.6-3.7c4.2-5.3,8.5-6.2,9.7-6.4c0.1,0,0.1,0,0.2,0
		c0.1,0,0.1,0,0.1,0h7.5C2414.5,259.2,2410.2,262.2,2406.2,267.7z M2407.7,280.1l1.1-6.6c6.8,0.7,11.9-0.5,15.5-1.9l-5,5.6
		c0,0,0,0-0.1,0.1l-0.1,0.1C2418,278.1,2414.4,280.6,2407.7,280.1z M2423,289.2l-5.5,1.4c0.3-7.9,2.9-11.6,3.2-12l0,0l4.7-5.1
		C2424.2,277.1,2423.1,282.3,2423,289.2z M2432.5,296.4l-3.1-4.7c4.7-5.2,7.3-9.8,8.9-13.3v7l0,0
		C2438.2,285.9,2437.6,290.4,2432.5,296.4z M2450.5,289.7l-3.7,5.6c-5.6-4.4-6.3-8.9-6.4-9.8v-0.1v-0.1v-7.5
		C2442.1,281.3,2445.1,285.6,2450.5,289.7z M2444.3,262.4c-0.5,0.5-1.1,0.9-1.7,1.2c-0.7,0.3-1.4,0.5-2.1,0.5
		c-0.7,0.1-1.4,0.1-2.1,0c-0.5-0.1-1.1-0.2-1.5-0.4l-0.3-0.1c-0.5-0.2-1-0.4-1.4-0.7c-0.6-0.4-1.1-0.9-1.6-1.4s-0.9-1.1-1.2-1.7
		c-0.3-0.7-0.5-1.4-0.5-2.1c-0.1-0.7-0.1-1.5,0.1-2.1c0.1-0.5,0.2-1.1,0.4-1.5l0.1-0.3c0.2-0.5,0.4-1,0.7-1.4
		c0.4-0.6,0.9-1.1,1.4-1.6s1.1-0.9,1.7-1.2c0.7-0.3,1.4-0.5,2.1-0.5c0.7-0.1,1.5-0.1,2.1,0c0.5,0.1,1.1,0.2,1.5,0.4l0.3,0.1
		c0.5,0.2,1,0.4,1.4,0.7c0.6,0.4,1.1,0.9,1.6,1.4s0.9,1.1,1.2,1.7c0.3,0.7,0.5,1.4,0.5,2.1c0.1,0.7,0.1,1.5,0,2.1
		c-0.1,0.5-0.2,1.1-0.4,1.5l-0.1,0.3c-0.2,0.5-0.4,1-0.7,1.4C2445.3,261.4,2444.9,262,2444.3,262.4z M2463,288.2l-6.6-1
		c0.6-6.8-0.5-11.9-2-15.5l5.6,5c0,0,0,0,0.1,0.1l0.1,0.1C2460.9,277.8,2463.5,281.4,2463,288.2z M2464.4,276.6
		c-1.8-0.7-2.7-1.3-2.9-1.5l0,0l-5.1-4.7c3.5,1.2,8.7,2.4,15.8,2.4l1.4,5.5C2469.2,278.2,2466.2,277.3,2464.4,276.6z"/>
	<rect class="elementor-shape-fill ha-shape-divider" x="2438.9" y="0" width="1.2" height="226.2"/>
	<polygon class="elementor-shape-fill ha-shape-divider" points="2493.5,216 2485.9,209.1 2476.2,212.2 2480.3,202.9 2474.4,194.5 2484.6,195.6 2490.7,187.4 2492.8,197.4
		2502.5,200.7 2493.6,205.8 	"/>
</g>
<g>
	<polygon class="elementor-shape-fill ha-shape-divider" points="2298.3,178.4 2289.4,177.3 2284,184.3 2282.3,175.6 2273.9,172.5 2281.8,168.2 2282,159.3 2288.5,165.4
		2297.1,163 2293.3,171 	"/>
	<path class="elementor-shape-fill ha-shape-divider" d="M2273,23.3c-25,0-45.2,20.2-45.2,45.2s20.2,45.2,45.2,45.2s45.2-20.2,45.2-45.2S2298,23.3,2273,23.3z M2273,106.7
		c-21.1,0-38.2-17.1-38.2-38.2s17.1-38.2,38.2-38.2c21.1,0,38.2,17.1,38.2,38.2S2294.1,106.7,2273,106.7z"/>
	<path class="elementor-shape-fill ha-shape-divider" d="M2299.9,73.9c-1.8,0-3.4,1-4.3,2.4l-2-0.8c0-0.1,0-0.1,0-0.2c0-1.9-1.5-3.4-3.3-3.4c-1,0-2,0.5-2.6,1.2l-12.2-4.7l12.2-4.7
		c0.6,0.7,1.5,1.2,2.6,1.2c1.9,0,3.3-1.5,3.3-3.4c0-0.1,0-0.1,0-0.2l2-0.8c0.9,1.4,2.5,2.4,4.3,2.4c2.8,0,5.1-2.3,5.1-5.1
		s-2.3-5.1-5.1-5.1s-5.1,2.3-5.1,5.1c0,0.4,0,0.7,0.1,1.1l-1.9,0.7c-0.6-0.9-1.6-1.5-2.8-1.5c-1.9,0-3.4,1.5-3.4,3.4
		c0,0.2,0,0.3,0.1,0.5l-12.4,4.8l4.8-12.4c0.2,0.1,0.4,0.1,0.5,0.1c1.9,0,3.4-1.5,3.4-3.4c0-1.2-0.6-2.2-1.5-2.8l0.7-1.8
		c0.3,0.1,0.7,0.1,1.1,0.1c2.8,0,5.1-2.3,5.1-5.1s-2.3-5.1-5.1-5.1s-5.1,2.3-5.1,5.1c0,1.8,1,3.4,2.4,4.3l-0.8,2c-0.1,0-0.1,0-0.2,0
		c-1.9,0-3.4,1.5-3.4,3.4c0,1.1,0.5,2,1.2,2.6L2273,66l-4.7-12.2c0.7-0.6,1.2-1.5,1.2-2.6c0-1.9-1.5-3.4-3.4-3.4c-0.1,0-0.1,0-0.2,0
		l-0.8-2c1.4-0.9,2.4-2.5,2.4-4.3c0-2.8-2.3-5.1-5.1-5.1s-5.1,2.3-5.1,5.1s2.3,5.1,5.1,5.1c0.4,0,0.7,0,1.1-0.1l0.7,1.8
		c-0.9,0.6-1.5,1.6-1.5,2.8c0,1.9,1.5,3.4,3.4,3.4c0.2,0,0.3,0,0.5-0.1l4.8,12.4L2259,62c0.1-0.2,0.1-0.3,0.1-0.5
		c0-1.9-1.5-3.4-3.4-3.4c-1.2,0-2.2,0.6-2.8,1.5l-1.9-0.7c0.1-0.4,0.1-0.7,0.1-1.1c0-2.8-2.3-5.1-5.1-5.1s-5.1,2.3-5.1,5.1
		s2.3,5.1,5.1,5.1c1.8,0,3.4-1,4.3-2.4l2,0.8c0,0.1,0,0.1,0,0.2c0,1.9,1.5,3.4,3.3,3.4c1,0,2-0.5,2.6-1.2l12.2,4.7l-12.2,4.7
		c-0.6-0.7-1.5-1.2-2.6-1.2c-1.9,0-3.3,1.5-3.3,3.4c0,0.1,0,0.1,0,0.2l-2,0.8c-0.9-1.4-2.5-2.4-4.3-2.4c-2.8,0-5.1,2.3-5.1,5.1
		c0,2.8,2.3,5.1,5.1,5.1s5.1-2.3,5.1-5.1c0-0.4,0-0.7-0.1-1.1l1.9-0.7c0.6,0.9,1.6,1.5,2.8,1.5c1.9,0,3.4-1.5,3.4-3.4
		c0-0.2,0-0.3-0.1-0.5l12.4-4.8l-4.8,12.4c-0.2-0.1-0.3-0.1-0.5-0.1c-1.9,0-3.4,1.5-3.4,3.4c0,1.2,0.6,2.2,1.5,2.8l-0.7,1.8
		c-0.3-0.1-0.7-0.1-1.1-0.1c-2.8,0-5.1,2.3-5.1,5.1c0,2.8,2.3,5.1,5.1,5.1s5.1-2.3,5.1-5.1c0-1.8-1-3.4-2.4-4.3l0.8-2
		c0.1,0,0.1,0,0.2,0c1.8,0,3.4-1.5,3.4-3.4c0-1-0.5-2-1.2-2.6l4.7-12.2l4.7,12.2c-0.7,0.6-1.2,1.5-1.2,2.6c0,1.9,1.5,3.4,3.4,3.4
		c0.1,0,0.1,0,0.2,0l0.8,2c-1.4,0.9-2.4,2.5-2.4,4.3c0,2.8,2.3,5.1,5.1,5.1s5.1-2.3,5.1-5.1c0-2.8-2.3-5.1-5.1-5.1
		c-0.4,0-0.7,0-1.1,0.1l-0.7-1.8c0.9-0.6,1.5-1.6,1.5-2.8c0-1.9-1.5-3.4-3.4-3.4c-0.2,0-0.4,0-0.5,0.1l-4.8-12.4l12.4,4.8
		c-0.1,0.2-0.1,0.4-0.1,0.5c0,1.9,1.5,3.4,3.4,3.4c1.2,0,2.2-0.6,2.8-1.5l1.9,0.7c-0.1,0.4-0.1,0.7-0.1,1.1c0,2.8,2.3,5.1,5.1,5.1
		s5.1-2.3,5.1-5.1C2305,76.2,2302.7,73.9,2299.9,73.9 M2299.9,54.6c1.9,0,3.4,1.5,3.4,3.4s-1.5,3.4-3.4,3.4c-1.1,0-2-0.5-2.7-1.3
		c-0.4-0.5-0.6-1-0.7-1.6c0-0.1,0-0.3,0-0.4C2296.5,56.1,2298,54.6,2299.9,54.6 M2288.7,61.5c0-0.8,0.7-1.5,1.6-1.5
		c0.4,0,0.8,0.2,1,0.5c0.3,0.2,0.5,0.7,0.5,1.2c0,0.2,0,0.3-0.1,0.5l0,0c-0.2,0.6-0.8,1.1-1.5,1.1c-0.3,0-0.5-0.1-0.7-0.2
		c-0.5-0.2-0.9-0.8-0.9-1.4C2288.6,61.6,2288.6,61.5,2288.7,61.5 M2280.2,41.6c0-1.9,1.5-3.3,3.4-3.3s3.4,1.5,3.4,3.3
		c0,1.9-1.5,3.4-3.4,3.4c-0.1,0-0.3,0-0.4,0c-0.6-0.1-1.2-0.3-1.6-0.7C2280.7,43.7,2280.2,42.7,2280.2,41.6 M2279.4,49.7
		c0.2-0.1,0.4-0.1,0.5-0.1c0.5,0,0.9,0.2,1.2,0.6c0.3,0.3,0.5,0.7,0.5,1c0,0.9-0.7,1.5-1.5,1.6h-0.1c-0.6,0-1.2-0.4-1.4-0.9
		c-0.1-0.2-0.2-0.5-0.2-0.7C2278.3,50.5,2278.7,50,2279.4,49.7 M2263,44.9c-0.1,0-0.3,0-0.4,0c-1.9,0-3.4-1.5-3.4-3.4
		s1.5-3.3,3.4-3.3s3.4,1.5,3.4,3.3c0,1.1-0.5,2-1.3,2.7C2264.1,44.6,2263.6,44.9,2263,44.9 M2267.6,52c-0.2,0.5-0.8,0.9-1.4,0.9
		h-0.1c-0.8,0-1.5-0.7-1.5-1.6c0-0.4,0.1-0.8,0.5-1c0.2-0.3,0.7-0.6,1.2-0.6c0.2,0,0.3,0,0.5,0.1c0.6,0.2,1.1,0.8,1.1,1.5
		C2267.8,51.5,2267.7,51.8,2267.6,52 M2249.5,58.4c-0.1,0.6-0.3,1.2-0.7,1.6c-0.6,0.8-1.6,1.3-2.7,1.3c-1.9,0-3.4-1.5-3.4-3.4
		s1.5-3.4,3.4-3.4s3.4,1.5,3.4,3.4C2249.6,58.1,2249.6,58.2,2249.5,58.4 M2256.6,63c-0.2,0.1-0.5,0.2-0.7,0.2
		c-0.7,0-1.3-0.5-1.5-1.1l0,0c-0.1-0.2-0.1-0.3-0.1-0.5c0-0.5,0.2-0.9,0.5-1.2s0.6-0.5,1.1-0.5c0.9,0,1.5,0.7,1.6,1.5v0.1
		C2257.4,62.2,2257.1,62.8,2256.6,63 M2246.2,82.3c-1.9,0-3.4-1.5-3.4-3.4s1.5-3.4,3.4-3.4c1.1,0,2,0.5,2.7,1.3
		c0.4,0.5,0.6,1,0.7,1.6c0,0.1,0,0.3,0,0.4C2249.6,80.8,2248.1,82.3,2246.2,82.3 M2257.4,75.5c0,0.8-0.7,1.5-1.6,1.5
		c-0.4,0-0.8-0.2-1.1-0.5c-0.3-0.2-0.5-0.7-0.5-1.2c0-0.2,0-0.3,0.1-0.5l0,0c0.2-0.6,0.8-1,1.5-1c0.3,0,0.5,0.1,0.7,0.2
		C2257,74.2,2257.4,74.8,2257.4,75.5C2257.4,75.4,2257.4,75.4,2257.4,75.5 M2265.9,95.3c0,1.9-1.5,3.3-3.4,3.3s-3.4-1.5-3.4-3.3
		c0-1.9,1.5-3.4,3.4-3.4c0.1,0,0.3,0,0.4,0c0.6,0.1,1.2,0.3,1.6,0.7C2265.4,93.3,2265.9,94.2,2265.9,95.3 M2266.7,87.2
		c-0.2,0.1-0.3,0.1-0.5,0.1c-0.5,0-0.9-0.2-1.2-0.6c-0.3-0.3-0.5-0.7-0.5-1c0-0.9,0.7-1.5,1.5-1.6h0.1c0.6,0,1.2,0.3,1.4,0.9
		c0.1,0.2,0.2,0.5,0.2,0.7C2267.8,86.4,2267.3,87,2266.7,87.2 M2283.1,92c0.1,0,0.3,0,0.4,0c1.9,0,3.4,1.5,3.4,3.4s-1.5,3.3-3.4,3.3
		s-3.4-1.5-3.4-3.3c0-1.1,0.5-2,1.3-2.7C2281.9,92.3,2282.5,92,2283.1,92 M2278.5,84.9c0.2-0.5,0.8-0.9,1.4-0.9h0.1
		c0.8,0,1.5,0.7,1.5,1.6c0,0.4-0.1,0.8-0.5,1c-0.2,0.3-0.7,0.6-1.2,0.6c-0.2,0-0.4,0-0.5-0.1c-0.6-0.2-1.1-0.8-1.1-1.5
		C2278.3,85.4,2278.4,85.2,2278.5,84.9 M2291.3,76.5c-0.3,0.3-0.6,0.5-1,0.5c-0.9,0-1.5-0.7-1.6-1.5v-0.1c0-0.6,0.4-1.2,0.9-1.4
		c0.2-0.1,0.5-0.2,0.7-0.2c0.7,0,1.3,0.5,1.5,1l0,0c0.1,0.2,0.1,0.3,0.1,0.5C2291.8,75.8,2291.6,76.2,2291.3,76.5 M2299.9,82.3
		c-1.9,0-3.4-1.5-3.4-3.4c0-0.1,0-0.3,0-0.4c0.1-0.6,0.3-1.2,0.7-1.6c0.6-0.8,1.6-1.3,2.7-1.3c1.9,0,3.4,1.5,3.4,3.4
		C2303.2,80.8,2301.7,82.3,2299.9,82.3"/>
	<path class="elementor-shape-fill ha-shape-divider" d="M2282.5,18c-0.6-0.2-1.4-0.3-2.3-0.5c-0.9-0.1-2-0.2-3.1-0.3c0.6-0.8,1-1.8,1-2.9c0-2.5-1.8-4.6-4.2-4.9V0h-1.6v9.3
		c-2.4,0.4-4.2,2.4-4.2,4.9c0,1.1,0.4,2.1,1,2.9c-3.8,0.2-6.5,0.8-6.5,1.5v8.5h21.1v-8.5v-0.1C2283.4,18.4,2283.1,18.2,2282.5,18z
		 M2275,17.1c-0.6,0-1.3,0-1.9,0c-0.7,0-1.3,0-2,0c-0.9-0.6-1.5-1.7-1.5-2.9c0-1.9,1.5-3.5,3.5-3.5c1.9,0,3.5,1.5,3.5,3.5
		C2276.5,15.5,2275.9,16.5,2275,17.1z"/>
</g>
<g>
	<polygon class="elementor-shape-fill ha-shape-divider" points="2124.3,258.5 2116.9,253.5 2108.8,257.4 2111.3,248.8 2105.2,242.3 2114.1,242 2118.4,234.2 2121.4,242.6
		2130.2,244.2 2123.2,249.7 	"/>
	<path class="elementor-shape-fill ha-shape-divider" d="M2044.7,251.9c3.1,4.5-1.8,9.4-6.3,6.3c-0.1-0.1-0.3-0.2-0.4-0.4c-3.1-4.5,1.8-9.4,6.3-6.3
		C2044.5,251.6,2044.6,251.7,2044.7,251.9z"/>
	<path class="elementor-shape-fill ha-shape-divider" d="M2086.9,282.9c-25,0-45.2,20.2-45.2,45.2s20.2,45.2,45.2,45.2s45.2-20.2,45.2-45.2C2132.1,303.1,2111.9,282.9,2086.9,282.9
		z M2086.9,366.3c-21.1,0-38.2-17.1-38.2-38.2s17.1-38.2,38.2-38.2c21.1,0,38.2,17.1,38.2,38.2
		C2125.1,349.2,2108,366.3,2086.9,366.3z"/>
	<path class="elementor-shape-fill ha-shape-divider" d="M2113.8,333.5c-1.8,0-3.4,1-4.3,2.4l-2-0.8c0-0.1,0-0.1,0-0.2c0-1.9-1.5-3.4-3.3-3.4c-1,0-2,0.5-2.6,1.2l-12.2-4.7
		l12.2-4.7c0.6,0.7,1.5,1.2,2.6,1.2c1.9,0,3.3-1.5,3.3-3.4c0-0.1,0-0.1,0-0.2l2-0.8c0.9,1.4,2.5,2.4,4.3,2.4c2.8,0,5.1-2.3,5.1-5.1
		c0-2.8-2.3-5.1-5.1-5.1s-5.1,2.3-5.1,5.1c0,0.4,0,0.7,0.1,1.1l-1.9,0.7c-0.6-0.9-1.6-1.5-2.8-1.5c-1.9,0-3.4,1.5-3.4,3.4
		c0,0.2,0,0.3,0.1,0.5l-12.4,4.8l4.8-12.4c0.2,0.1,0.4,0.1,0.5,0.1c1.9,0,3.4-1.5,3.4-3.4c0-1.2-0.6-2.2-1.5-2.8l0.7-1.8
		c0.3,0.1,0.7,0.1,1.1,0.1c2.8,0,5.1-2.3,5.1-5.1c0-2.8-2.3-5.1-5.1-5.1s-5.1,2.3-5.1,5.1c0,1.8,1,3.4,2.4,4.3l-0.8,2
		c-0.1,0-0.1,0-0.2,0c-1.9,0-3.4,1.5-3.4,3.4c0,1.1,0.5,2,1.2,2.6l-4.7,12.2l-4.7-12.2c0.7-0.6,1.2-1.5,1.2-2.6
		c0-1.9-1.5-3.4-3.4-3.4c-0.1,0-0.1,0-0.2,0l-0.8-2c1.4-0.9,2.4-2.5,2.4-4.3c0-2.8-2.3-5.1-5.1-5.1s-5.1,2.3-5.1,5.1
		c0,2.8,2.3,5.1,5.1,5.1c0.4,0,0.7,0,1.1-0.1l0.7,1.8c-0.9,0.6-1.5,1.6-1.5,2.8c0,1.9,1.5,3.4,3.4,3.4c0.2,0,0.3,0,0.5-0.1l4.8,12.4
		l-12.4-4.8c0.1-0.2,0.1-0.3,0.1-0.5c0-1.9-1.5-3.4-3.4-3.4c-1.2,0-2.2,0.6-2.8,1.5l-1.9-0.7c0.1-0.4,0.1-0.7,0.1-1.1
		c0-2.8-2.3-5.1-5.1-5.1s-5.1,2.3-5.1,5.1c0,2.8,2.3,5.1,5.1,5.1c1.8,0,3.4-1,4.3-2.4l2,0.8c0,0.1,0,0.1,0,0.2
		c0,1.9,1.5,3.4,3.3,3.4c1,0,2-0.5,2.6-1.2l12.2,4.7l-12.2,4.7c-0.6-0.7-1.5-1.2-2.6-1.2c-1.9,0-3.3,1.5-3.3,3.4c0,0.1,0,0.1,0,0.2
		l-2,0.8c-0.9-1.4-2.5-2.4-4.3-2.4c-2.8,0-5.1,2.3-5.1,5.1c0,2.8,2.3,5.1,5.1,5.1s5.1-2.3,5.1-5.1c0-0.4,0-0.7-0.1-1.1l1.9-0.7
		c0.6,0.9,1.6,1.5,2.8,1.5c1.9,0,3.4-1.5,3.4-3.4c0-0.2,0-0.3-0.1-0.5l12.4-4.8l-4.8,12.4c-0.2-0.1-0.3-0.1-0.5-0.1
		c-1.9,0-3.4,1.5-3.4,3.4c0,1.2,0.6,2.2,1.5,2.8l-0.7,1.8c-0.3-0.1-0.7-0.1-1.1-0.1c-2.8,0-5.1,2.3-5.1,5.1c0,2.8,2.3,5.1,5.1,5.1
		s5.1-2.3,5.1-5.1c0-1.8-1-3.4-2.4-4.3l0.8-2c0.1,0,0.1,0,0.2,0c1.8,0,3.4-1.5,3.4-3.4c0-1-0.5-2-1.2-2.6l4.7-12.2l4.7,12.2
		c-0.7,0.6-1.2,1.5-1.2,2.6c0,1.9,1.5,3.4,3.4,3.4c0.1,0,0.1,0,0.2,0l0.8,2c-1.4,0.9-2.4,2.5-2.4,4.3c0,2.8,2.3,5.1,5.1,5.1
		s5.1-2.3,5.1-5.1c0-2.8-2.3-5.1-5.1-5.1c-0.4,0-0.7,0-1.1,0.1l-0.7-1.8c0.9-0.6,1.5-1.6,1.5-2.8c0-1.9-1.5-3.4-3.4-3.4
		c-0.2,0-0.4,0-0.5,0.1l-4.8-12.4l12.4,4.8c-0.1,0.2-0.1,0.4-0.1,0.5c0,1.9,1.5,3.4,3.4,3.4c1.2,0,2.2-0.6,2.8-1.5l1.9,0.7
		c-0.1,0.4-0.1,0.7-0.1,1.1c0,2.8,2.3,5.1,5.1,5.1s5.1-2.3,5.1-5.1C2118.9,335.8,2116.6,333.5,2113.8,333.5 M2113.8,314.2
		c1.9,0,3.4,1.5,3.4,3.4s-1.5,3.4-3.4,3.4c-1.1,0-2-0.5-2.7-1.3c-0.4-0.5-0.6-1-0.7-1.6c0-0.1,0-0.3,0-0.4
		C2110.4,315.7,2111.9,314.2,2113.8,314.2 M2102.6,321.1c0-0.8,0.7-1.5,1.6-1.5c0.4,0,0.8,0.2,1,0.5c0.3,0.2,0.5,0.7,0.5,1.2
		c0,0.2,0,0.3-0.1,0.5l0,0c-0.2,0.6-0.8,1.1-1.5,1.1c-0.3,0-0.5-0.1-0.7-0.2c-0.5-0.2-0.9-0.8-0.9-1.4
		C2102.5,321.2,2102.5,321.1,2102.6,321.1 M2094.1,301.2c0-1.9,1.5-3.3,3.4-3.3s3.4,1.5,3.4,3.3c0,1.9-1.5,3.4-3.4,3.4
		c-0.1,0-0.3,0-0.4,0c-0.6-0.1-1.2-0.3-1.6-0.7C2094.6,303.3,2094.1,302.3,2094.1,301.2 M2093.3,309.3c0.2-0.1,0.4-0.1,0.5-0.1
		c0.5,0,0.9,0.2,1.2,0.6c0.3,0.3,0.5,0.7,0.5,1c0,0.9-0.7,1.5-1.5,1.6h-0.1c-0.6,0-1.2-0.4-1.4-0.9c-0.1-0.2-0.2-0.5-0.2-0.7
		C2092.2,310.1,2092.6,309.6,2093.3,309.3 M2076.8,304.5c-0.1,0-0.3,0-0.4,0c-1.9,0-3.4-1.5-3.4-3.4s1.5-3.3,3.4-3.3
		s3.4,1.5,3.4,3.3c0,1.1-0.5,2-1.3,2.7C2078,304.2,2077.5,304.5,2076.8,304.5 M2081.5,311.6c-0.2,0.5-0.8,0.9-1.4,0.9h-0.1
		c-0.8,0-1.5-0.7-1.5-1.6c0-0.4,0.1-0.8,0.5-1c0.2-0.3,0.7-0.6,1.2-0.6c0.2,0,0.3,0,0.5,0.1c0.6,0.2,1.1,0.8,1.1,1.5
		C2081.7,311.1,2081.6,311.4,2081.5,311.6 M2063.4,318c-0.1,0.6-0.3,1.2-0.7,1.6c-0.6,0.8-1.6,1.3-2.7,1.3c-1.9,0-3.4-1.5-3.4-3.4
		s1.5-3.4,3.4-3.4s3.4,1.5,3.4,3.4C2063.4,317.7,2063.4,317.8,2063.4,318 M2070.4,322.6c-0.2,0.1-0.5,0.2-0.7,0.2
		c-0.7,0-1.3-0.5-1.5-1.1l0,0c-0.1-0.2-0.1-0.3-0.1-0.5c0-0.5,0.2-0.9,0.5-1.2c0.3-0.3,0.6-0.5,1.1-0.5c0.9,0,1.5,0.7,1.6,1.5v0.1
		C2071.3,321.8,2071,322.4,2070.4,322.6 M2060.1,341.9c-1.9,0-3.4-1.5-3.4-3.4s1.5-3.4,3.4-3.4c1.1,0,2,0.5,2.7,1.3
		c0.4,0.5,0.6,1,0.7,1.6c0,0.1,0,0.3,0,0.4C2063.4,340.4,2061.9,341.9,2060.1,341.9 M2071.3,335.1c0,0.8-0.7,1.5-1.6,1.5
		c-0.4,0-0.8-0.2-1.1-0.5c-0.3-0.2-0.5-0.7-0.5-1.2c0-0.2,0-0.3,0.1-0.5l0,0c0.2-0.6,0.8-1,1.5-1c0.3,0,0.5,0.1,0.7,0.2
		c0.5,0.2,0.9,0.8,0.9,1.4C2071.3,335,2071.3,335,2071.3,335.1 M2079.8,354.9c0,1.9-1.5,3.3-3.4,3.3s-3.4-1.5-3.4-3.3
		c0-1.9,1.5-3.4,3.4-3.4c0.1,0,0.3,0,0.4,0c0.6,0.1,1.2,0.3,1.6,0.7C2079.3,352.9,2079.8,353.8,2079.8,354.9 M2080.6,346.8
		c-0.2,0.1-0.3,0.1-0.5,0.1c-0.5,0-0.9-0.2-1.2-0.6c-0.3-0.3-0.5-0.7-0.5-1c0-0.9,0.7-1.5,1.5-1.6h0.1c0.6,0,1.2,0.3,1.4,0.9
		c0.1,0.2,0.2,0.5,0.2,0.7C2081.7,346,2081.2,346.6,2080.6,346.8 M2097,351.6c0.1,0,0.3,0,0.4,0c1.9,0,3.4,1.5,3.4,3.4
		s-1.5,3.3-3.4,3.3s-3.4-1.5-3.4-3.3c0-1.1,0.5-2,1.3-2.7C2095.8,351.9,2096.4,351.7,2097,351.6 M2092.4,344.5
		c0.2-0.5,0.8-0.9,1.4-0.9h0.1c0.8,0,1.5,0.7,1.5,1.6c0,0.4-0.1,0.8-0.5,1c-0.2,0.3-0.7,0.6-1.2,0.6c-0.2,0-0.4,0-0.5-0.1
		c-0.6-0.2-1.1-0.8-1.1-1.5C2092.2,345,2092.2,344.8,2092.4,344.5 M2105.2,336.1c-0.3,0.3-0.6,0.5-1,0.5c-0.9,0-1.5-0.7-1.6-1.5V335
		c0-0.6,0.4-1.2,0.9-1.4c0.2-0.1,0.5-0.2,0.7-0.2c0.7,0,1.3,0.5,1.5,1l0,0c0.1,0.2,0.1,0.3,0.1,0.5
		C2105.7,335.4,2105.5,335.8,2105.2,336.1 M2113.8,341.9c-1.9,0-3.4-1.5-3.4-3.4c0-0.1,0-0.3,0-0.4c0.1-0.6,0.3-1.2,0.7-1.6
		c0.6-0.8,1.6-1.3,2.7-1.3c1.9,0,3.4,1.5,3.4,3.4C2117.1,340.4,2115.6,341.9,2113.8,341.9"/>
	<path class="elementor-shape-fill ha-shape-divider" d="M2096.4,277.6c-0.6-0.2-1.4-0.3-2.3-0.5c-0.9-0.1-2-0.2-3.1-0.3c0.6-0.8,1-1.8,1-2.9c0-2.5-1.8-4.6-4.2-4.9V0h-1.6v268.9
		c-2.4,0.4-4.2,2.4-4.2,4.9c0,1.1,0.4,2.1,1,2.9c-3.8,0.2-6.5,0.8-6.5,1.5v8.5h21.1v-8.5v-0.1C2097.3,278,2097,277.8,2096.4,277.6z
		 M2088.9,276.7c-0.6,0-1.3,0-1.9,0c-0.7,0-1.3,0-2,0c-0.9-0.6-1.5-1.7-1.5-2.9c0-1.9,1.5-3.5,3.5-3.5c1.9,0,3.5,1.5,3.5,3.5
		C2090.4,275.1,2089.8,276.1,2088.9,276.7z"/>
</g>
<g>
	<polygon class="elementor-shape-fill ha-shape-divider" points="2738.6,54.2 2724.4,48.4 2712.3,57.7 2713.4,42.4 2700.8,33.7 2715.7,30.1 2720.1,15.4 2728.2,28.4 2743.5,28.1
		2733.6,39.8 	"/>
	<polygon class="elementor-shape-fill ha-shape-divider" points="2870.5,86 2862.1,81.5 2853.9,86.4 2855.6,77 2848.3,70.8 2857.8,69.5 2861.5,60.6 2865.7,69.2 2875.2,70
		2868.3,76.7 	"/>
	<circle class="elementor-shape-fill ha-shape-divider" cx="2871.1" cy="196.3" r="5.2"/>
	<g>
		<path class="elementor-shape-fill ha-shape-divider" d="M2806.4,142.8c-0.4,0-0.8,0.2-1.1,0.5c-0.3,0.2-0.5,0.7-0.5,1.2c0,0.2,0,0.3,0.1,0.5l0,0c0.2,0.6,0.8,1.1,1.5,1.1
			c0.3,0,0.5-0.1,0.7-0.2c0.5-0.2,0.9-0.8,0.9-1.4v-0.1C2808,143.5,2807.3,142.8,2806.4,142.8z"/>
		<path class="elementor-shape-fill ha-shape-divider" d="M2817.3,132.6c-0.2-0.1-0.3-0.1-0.5-0.1c-0.5,0-0.9,0.2-1.2,0.6c-0.3,0.3-0.5,0.7-0.5,1c0,0.9,0.7,1.5,1.5,1.6h0.1
			c0.6,0,1.2-0.4,1.4-0.9c0.1-0.2,0.2-0.5,0.2-0.7C2818.4,133.4,2818,132.8,2817.3,132.6z"/>
		<path class="elementor-shape-fill ha-shape-divider" d="M2796.8,137.4c-1.9,0-3.4,1.5-3.4,3.4s1.5,3.4,3.4,3.4c1.1,0,2-0.5,2.7-1.3c0.4-0.5,0.6-1,0.7-1.6c0-0.1,0-0.3,0-0.4
			C2800.2,138.9,2798.7,137.4,2796.8,137.4z"/>
		<path class="elementor-shape-fill ha-shape-divider" d="M2807.2,156.8c-0.2-0.1-0.5-0.2-0.7-0.2c-0.7,0-1.3,0.5-1.5,1l0,0c-0.1,0.2-0.1,0.3-0.1,0.5c0,0.5,0.2,0.9,0.5,1.2
			s0.6,0.5,1.1,0.5c0.9,0,1.5-0.7,1.6-1.5v-0.1C2808.1,157.5,2807.7,157,2807.2,156.8z"/>
		<path class="elementor-shape-fill ha-shape-divider" d="M2799.5,159.7c-0.6-0.8-1.6-1.3-2.7-1.3c-1.9,0-3.4,1.5-3.4,3.4s1.5,3.4,3.4,3.4s3.4-1.5,3.4-3.4c0-0.1,0-0.3,0-0.4
			C2800.1,160.7,2799.8,160.2,2799.5,159.7z"/>
		<path class="elementor-shape-fill ha-shape-divider" d="M2816.5,124.5c0-1.9-1.5-3.3-3.4-3.3s-3.4,1.5-3.4,3.3c0,1.9,1.5,3.4,3.4,3.4c0.1,0,0.3,0,0.4,0c0.6-0.1,1.2-0.3,1.6-0.7
			C2816,126.5,2816.5,125.5,2816.5,124.5z"/>
		<path class="elementor-shape-fill ha-shape-divider" d="M2832.1,127.1c0.5,0.3,1,0.6,1.6,0.7c0.1,0,0.3,0,0.4,0c1.9,0,3.4-1.5,3.4-3.4s-1.5-3.3-3.4-3.3s-3.4,1.5-3.4,3.3
			C2830.8,125.5,2831.3,126.5,2832.1,127.1z"/>
		<path class="elementor-shape-fill ha-shape-divider" d="M2847.8,142.9c0.6,0.8,1.6,1.3,2.7,1.3c1.9,0,3.4-1.5,3.4-3.4s-1.5-3.4-3.4-3.4s-3.4,1.5-3.4,3.4c0,0.1,0,0.3,0,0.4
			C2847.3,141.8,2847.5,142.4,2847.8,142.9z"/>
		<path class="elementor-shape-fill ha-shape-divider" d="M2830.5,135.7h0.1c0.8,0,1.5-0.7,1.5-1.6c0-0.4-0.1-0.8-0.5-1c-0.2-0.3-0.7-0.6-1.2-0.6c-0.2,0-0.4,0-0.5,0.1
			c-0.6,0.2-1.1,0.8-1.1,1.5c0,0.3,0.1,0.5,0.2,0.7C2829.4,135.3,2829.9,135.7,2830.5,135.7z"/>
		<path class="elementor-shape-fill ha-shape-divider" d="M2850.5,165.2c1.9,0,3.4-1.5,3.4-3.4s-1.5-3.4-3.4-3.4c-1.1,0-2,0.5-2.7,1.3c-0.4,0.5-0.6,1-0.7,1.6c0,0.1,0,0.3,0,0.4
			C2847.1,163.6,2848.7,165.2,2850.5,165.2z"/>
		<path class="elementor-shape-fill ha-shape-divider" d="M2840.9,159.8c0.4,0,0.8-0.2,1-0.5c0.3-0.2,0.5-0.7,0.5-1.2c0-0.2,0-0.3-0.1-0.5l0,0c-0.2-0.6-0.8-1-1.5-1
			c-0.3,0-0.5,0.1-0.7,0.2c-0.5,0.2-0.9,0.8-0.9,1.4v0.1C2839.3,159.1,2840,159.8,2840.9,159.8z"/>
		<path class="elementor-shape-fill ha-shape-divider" d="M2815.2,175.5c-0.5-0.4-1-0.6-1.6-0.7c-0.1,0-0.3,0-0.4,0c-1.9,0-3.4,1.5-3.4,3.4s1.5,3.3,3.4,3.3s3.4-1.5,3.4-3.3
			C2816.5,177.1,2816,176.1,2815.2,175.5z"/>
		<path class="elementor-shape-fill ha-shape-divider" d="M2840.9,142.8c-0.9,0-1.5,0.7-1.6,1.5v0.1c0,0.6,0.4,1.2,0.9,1.4c0.2,0.1,0.5,0.2,0.7,0.2c0.7,0,1.3-0.5,1.5-1.1l0,0
			c0.1-0.2,0.1-0.3,0.1-0.5c0-0.5-0.2-0.9-0.5-1.2C2841.7,143,2841.3,142.8,2840.9,142.8z"/>
		<path class="elementor-shape-fill ha-shape-divider" d="M2823.7,106.1c-25,0-45.2,20.2-45.2,45.2s20.2,45.2,45.2,45.2s45.2-20.2,45.2-45.2S2848.6,106.1,2823.7,106.1z
			 M2844.2,144.4c0,1.9-1.5,3.4-3.3,3.4c-1,0-2-0.5-2.6-1.2l-12.2,4.7l12.2,4.7c0.6-0.7,1.5-1.2,2.6-1.2c1.9,0,3.3,1.5,3.3,3.4
			c0,0.1,0,0.1,0,0.2l2,0.8c0.9-1.4,2.5-2.4,4.3-2.4c2.8,0,5.1,2.3,5.1,5.1s-2.3,5.1-5.1,5.1s-5.1-2.3-5.1-5.1c0-0.4,0-0.7,0.1-1.1
			l-1.9-0.7c-0.6,0.9-1.6,1.5-2.8,1.5c-1.9,0-3.4-1.5-3.4-3.4c0-0.2,0-0.3,0.1-0.5l-12.4-4.8l4.8,12.4c0.2-0.1,0.4-0.1,0.5-0.1
			c1.9,0,3.4,1.5,3.4,3.4c0,1.2-0.6,2.2-1.5,2.8l0.7,1.8c0.3-0.1,0.7-0.1,1.1-0.1c2.8,0,5.1,2.3,5.1,5.1s-2.3,5.1-5.1,5.1
			s-5.1-2.3-5.1-5.1c0-1.8,1-3.4,2.4-4.3l-0.8-2c-0.1,0-0.1,0-0.2,0c-1.9,0-3.4-1.5-3.4-3.4c0-1,0.5-2,1.2-2.6l-4.7-12.2l-4.7,12.2
			c0.7,0.6,1.2,1.5,1.2,2.6c0,1.9-1.5,3.4-3.4,3.4c-0.1,0-0.1,0-0.2,0l-0.8,2c1.4,0.9,2.4,2.5,2.4,4.3c0,2.8-2.3,5.1-5.1,5.1
			s-5.1-2.3-5.1-5.1s2.3-5.1,5.1-5.1c0.4,0,0.7,0,1.1,0.1l0.7-1.8c-0.9-0.6-1.5-1.6-1.5-2.8c0-1.9,1.5-3.4,3.4-3.4
			c0.2,0,0.3,0,0.5,0.1l4.8-12.4l-12.4,4.8c0.1,0.2,0.1,0.4,0.1,0.5c0,1.9-1.5,3.4-3.4,3.4c-1.2,0-2.2-0.6-2.8-1.5l-1.9,0.7
			c0.1,0.4,0.1,0.7,0.1,1.1c0,2.8-2.3,5.1-5.1,5.1s-5.1-2.3-5.1-5.1s2.3-5.1,5.1-5.1c1.8,0,3.4,1,4.3,2.4l2-0.8c0-0.1,0-0.1,0-0.2
			c0-1.9,1.5-3.4,3.3-3.4c1,0,2,0.5,2.6,1.2l12.2-4.7l-12.2-4.7c-0.6,0.7-1.5,1.2-2.6,1.2c-1.9,0-3.3-1.5-3.3-3.4c0-0.1,0-0.1,0-0.2
			l-2-0.8c-0.9,1.4-2.5,2.4-4.3,2.4c-2.8,0-5.1-2.3-5.1-5.1s2.3-5.1,5.1-5.1s5.1,2.3,5.1,5.1c0,0.4,0,0.7-0.1,1.1l1.9,0.7
			c0.6-0.9,1.6-1.5,2.8-1.5c1.9,0,3.4,1.5,3.4,3.4c0,0.2,0,0.3-0.1,0.5l12.4,4.8l-4.8-12.4c-0.2,0.1-0.3,0.1-0.5,0.1
			c-1.9,0-3.4-1.5-3.4-3.4c0-1.2,0.6-2.2,1.5-2.8l-0.7-1.8c-0.3,0.1-0.7,0.1-1.1,0.1c-2.8,0-5.1-2.3-5.1-5.1c0-2.8,2.3-5.1,5.1-5.1
			s5.1,2.3,5.1,5.1c0,1.8-1,3.4-2.4,4.3l0.8,2c0.1,0,0.1,0,0.2,0c1.8,0,3.4,1.5,3.4,3.4c0,1.1-0.5,2-1.2,2.6l4.7,12.2l4.7-12.2
			c-0.7-0.6-1.2-1.5-1.2-2.6c0-1.9,1.5-3.4,3.4-3.4c0.1,0,0.1,0,0.2,0l0.8-2c-1.4-0.9-2.4-2.5-2.4-4.3c0-2.8,2.3-5.1,5.1-5.1
			s5.1,2.3,5.1,5.1c0,2.8-2.3,5.1-5.1,5.1c-0.4,0-0.7,0-1.1-0.1l-0.7,1.8c0.9,0.6,1.5,1.6,1.5,2.8c0,1.9-1.5,3.4-3.4,3.4
			c-0.2,0-0.4,0-0.5-0.1l-4.8,12.4l12.4-4.8c-0.1-0.2-0.1-0.3-0.1-0.5c0-1.9,1.5-3.4,3.4-3.4c1.2,0,2.2,0.6,2.8,1.5l1.9-0.7
			c-0.1-0.4-0.1-0.7-0.1-1.1c0-2.8,2.3-5.1,5.1-5.1s5.1,2.3,5.1,5.1s-2.3,5.1-5.1,5.1c-1.8,0-3.4-1-4.3-2.4l-2,0.8
			C2844.2,144.3,2844.2,144.4,2844.2,144.4z"/>
		<path class="elementor-shape-fill ha-shape-divider" d="M2830,170c0.2,0.1,0.4,0.1,0.5,0.1c0.5,0,0.9-0.2,1.2-0.6c0.3-0.3,0.5-0.7,0.5-1c0-0.9-0.7-1.5-1.5-1.6h-0.1
			c-0.6,0-1.2,0.3-1.4,0.9c-0.1,0.2-0.2,0.5-0.2,0.7C2828.9,169.2,2829.4,169.8,2830,170z"/>
		<path class="elementor-shape-fill ha-shape-divider" d="M2816.8,166.9h-0.1c-0.8,0-1.5,0.7-1.5,1.6c0,0.4,0.1,0.8,0.5,1c0.2,0.3,0.7,0.6,1.2,0.6c0.2,0,0.3,0,0.5-0.1
			c0.6-0.2,1.1-0.8,1.1-1.5c0-0.3-0.1-0.5-0.2-0.7C2818,167.3,2817.4,166.9,2816.8,166.9z"/>
		<path class="elementor-shape-fill ha-shape-divider" d="M2830.8,178.1c0,1.9,1.5,3.3,3.4,3.3s3.4-1.5,3.4-3.3c0-1.9-1.5-3.4-3.4-3.4c-0.1,0-0.3,0-0.4,0c-0.6,0.1-1.2,0.3-1.6,0.7
			C2831.3,176.1,2830.8,177.1,2830.8,178.1z"/>
	</g>
	<path class="elementor-shape-fill ha-shape-divider" d="M2833.1,100.9c-0.6-0.2-1.4-0.3-2.3-0.5c-0.9-0.1-2-0.2-3.1-0.3c0.6-0.8,1-1.8,1-2.9c0-2.5-1.8-4.6-4.2-4.9V0h-1.6v92.2
		c-2.4,0.4-4.2,2.4-4.2,4.9c0,1.1,0.4,2.1,1,2.9c-3.8,0.2-6.5,0.8-6.5,1.5v8.5h21.1v-8.5v-0.1C2834.1,101.2,2833.7,101,2833.1,100.9
		z M2825.6,100c-0.6,0-1.3,0-1.9,0c-0.7,0-1.3,0-2,0c-0.9-0.6-1.5-1.7-1.5-2.9c0-1.9,1.5-3.5,3.5-3.5c1.9,0,3.5,1.5,3.5,3.5
		C2827.1,98.3,2826.5,99.3,2825.6,100z"/>
</g>
<g>
	<path class="elementor-shape-fill ha-shape-divider" d="M2651.8,244.6c3.8,5.4-2.1,11.3-7.5,7.5c-0.2-0.1-0.3-0.3-0.4-0.4c-3.8-5.4,2.1-11.3,7.5-7.5
		C2651.5,244.2,2651.7,244.4,2651.8,244.6z"/>
	<path class="elementor-shape-fill ha-shape-divider" d="M2630.1,69.6c-17.4,0.4-1.2,28.6,0.5,28.4C2632.2,97.9,2645.9,69.2,2630.1,69.6z M2630.4,97.4c0,0-11.3-26.6-0.5-27.1
		C2639.1,69.9,2633,90.4,2630.4,97.4z"/>
	<path class="elementor-shape-fill ha-shape-divider" d="M2655.3,82.3c-8.7-12.9-27,15.7-26.1,16.9C2630.2,100.4,2663.2,94,2655.3,82.3z M2629.7,98.8c0,0,19.2-24.1,24.8-16.2
		C2659.3,89.3,2637.5,96.6,2629.7,98.8z"/>
	<path class="elementor-shape-fill ha-shape-divider" d="M2605.8,81.1c-8.3,11.3,24,18.8,25,17.6C2631.8,97.6,2614.9,68.7,2605.8,81.1z M2606.5,81.4c5.8-7.5,23.8,16.9,23.8,16.9
		C2622.7,95.8,2601.5,87.9,2606.5,81.4z"/>
	<path class="elementor-shape-fill ha-shape-divider" d="M2593.9,122.9h27.5c3.3,0,6-2.7,6-6v-11c0-3.3-2.7-6-6-6h-27.6c-3.3,0-6,2.7-6,6v11
		C2587.9,120.3,2590.6,122.9,2593.9,122.9z"/>
	<path class="elementor-shape-fill ha-shape-divider" d="M2596.8,187.6h24.5c3.3,0,6-2.7,6-6l0.1-47.3c0-3.3-2.7-6-6-6h-24.7c-3.3,0-6,2.7-6,6v47.3
		C2590.8,184.9,2593.5,187.6,2596.8,187.6z"/>
	<path class="elementor-shape-fill ha-shape-divider" d="M2633,105.9v11c0,3.3,2.7,6,6,6h27.7c3.3,0,6-2.7,6-6v-11c0-3.3-2.7-6-6-6H2639C2635.7,99.9,2633,102.6,2633,105.9z"/>
	<path class="elementor-shape-fill ha-shape-divider" d="M2638.7,187.6h25c3.3,0,6-2.7,6-6v-47.3c0-3.3-2.7-6-6-6h-24.9c-3.3,0-6,2.7-6,6l-0.1,47.3
		C2632.7,184.9,2635.4,187.6,2638.7,187.6z"/>
	<path class="elementor-shape-fill ha-shape-divider" d="M2630.3,95c-1.7,0-3.1,1.4-3.1,3.1s1.4,3.1,3.1,3.1c1.7,0,3.1-1.4,3.1-3.1C2633.4,96.4,2632,95,2630.3,95z"/>
	<rect class="elementor-shape-fill ha-shape-divider" x="2629.1" y="0" width="1.6" height="69.9"/>
</g>
<g>
	<circle class="elementor-shape-fill ha-shape-divider" cx="1894.5" cy="249.6" r="3.9"/>
	<path class="elementor-shape-fill ha-shape-divider" d="M1928.3,151.3c6.4,0.8,7.6-2.1,7.8-2.6c0.7-2.7-5.9-13.6-12.3-23c4,0.2,5-1.7,5.2-2.2c0.7-3.1-9.8-18.6-14.4-24.5
		c-4.8-6.1-6-6.1-6.7-6.1s-1.9,0-6.7,6.1c-4.7,5.9-15.2,21.4-14.4,24.6c0.2,0.5,1.1,2.2,5.1,2c-6.4,9.4-13,20.4-12.3,23.2
		c0.2,0.4,1.4,3.1,7.8,2.4c-8.8,12.8-18,28.1-17.1,31.6c0.2,0.6,2.4,5.4,15.8,1.9c5.1-1.3,7.1-0.5,9.8,0.6c1.4,0.6,3.1,1.3,5.4,1.8
		v13.6c0,0.1,0,0.2,0,0.3h12.9c0-0.1,0-0.2,0-0.3V187c2-0.5,3.5-1.2,4.7-1.8c2.6-1.3,4.4-2.2,10.6-0.5c13.4,3.8,15.6-1.3,15.9-2
		C1946.2,179.3,1937.1,164.1,1928.3,151.3z"/>
	<rect class="elementor-shape-fill ha-shape-divider" x="1907" y="0" width="1.6" height="102.1"/>
</g>
<g>
	<path class="elementor-shape-fill ha-shape-divider" d="M3356.9,279.2c-0.1,0.3,0,0.7,0.2,0.9c0.2,0.3,0.5,0.4,0.8,0.4c5.3,0,9-1,11.2-1.8c-1,2.4-1.9,6-1.3,10.8
		c0.1,0.3,0.2,0.6,0.4,0.7c0.3,0.2,0.6,0.2,0.8,0.2l8.8-1.3l0.2-0.1c0.5-0.2,0.8-0.6,0.7-1.1c-1.6-13.2,4.1-20.1,4.9-20.9
		c0.1-0.1,0.1-0.1,0.1-0.1v-0.1l3.2-2.9c0.7,0.7,1.6,1.3,2.5,1.7c1,0.4,2,0.6,3,0.7v4.4v0.1c0,0,0,0,0,0.1
		c-0.1,1.2-1.4,9.9-12.2,17.7c-0.5,0.4-0.6,1-0.3,1.5l4.9,7.4c0.2,0.2,0.4,0.4,0.7,0.5c0.3,0,0.6,0,0.8-0.2c4-2.9,6-6,7-8.3
		c1,2.4,2.8,5.7,6.2,9.5c0.2,0.2,0.5,0.4,0.9,0.4c0.1,0,0.2,0,0.3-0.1c0.2-0.1,0.4-0.2,0.5-0.4l4.3-6.5c0.3-0.4,0.2-1-0.1-1.3
		c-9.2-10-10.7-17.8-11-19.7c0-0.1,0-0.2,0-0.3c0-0.1,0-0.2,0-0.2v-4.5c0.8-0.1,1.5-0.3,2.3-0.6l0.2-0.1c0.8-0.3,1.5-0.7,2.2-1.2
		l3,3.3c0,0,0.1,0,0.1,0.1s0.1,0.1,0.2,0.2c1.1,1.6,5.1,8.4,5.2,22c0,0.5,0.3,0.9,0.8,1.1l7.6,1.9c0.2,0,0.5,0,0.7,0
		c0.1,0,0.2-0.1,0.3-0.1c0.2-0.2,0.4-0.5,0.4-0.8c0-5.1-0.9-8.8-1.8-11.2c2.4,1,6,1.9,10.8,1.4c0.3,0,0.5-0.2,0.7-0.4
		c0.2-0.3,0.2-0.6,0.2-0.8l-1.4-8.8c-0.1-0.6-0.6-1-1.2-0.9c-12.7,1.5-19.5-3.7-20.8-4.8c-0.1-0.1-0.2-0.2-0.2-0.2l-3-3.3
		c0.7-0.7,1.3-1.6,1.7-2.5c0.4-1,0.7-2,0.7-3h4.3c0.1,0,0.1,0.1,0.1,0c0,0,0,0,0.1,0c1.1,0.1,9.9,1.4,17.7,12.2
		c0.3,0.4,0.8,0.6,1.2,0.4l0.2-0.1l7.4-4.9c0.2-0.2,0.4-0.4,0.4-0.7c0-0.2,0-0.5-0.2-0.8c-2.8-4-5.9-6-8.3-7.1
		c2.2-0.8,5.6-2.6,9.5-6.2c0.2-0.2,0.4-0.5,0.3-0.9c0-0.3-0.2-0.6-0.5-0.8l-6.5-4.3c-0.4-0.3-1-0.2-1.3,0.1
		c-6.1,5.6-11.4,8.3-14.7,9.6c-2.8,1.1-4.7,1.3-5.2,1.4c-0.1,0-0.2,0-0.2,0h-4.5c-0.1-0.8-0.3-1.5-0.6-2.3l-0.1-0.3
		c-0.3-0.8-0.7-1.4-1.1-2.1l3.3-3c0,0,0,0,0.1-0.1c0.4-0.3,2-1.4,4.8-2.5c3.3-1.3,9.1-2.8,17.4-2.8c0.1,0,0.3,0,0.4-0.1
		c0.3-0.1,0.6-0.4,0.7-0.8l1.9-7.6c0.1-0.3,0-0.7-0.2-0.9c-0.2-0.3-0.5-0.4-0.8-0.4c-5.3,0-9,1-11.2,1.8c1-2.4,1.9-6,1.3-10.8
		c0-0.3-0.2-0.6-0.4-0.7c-0.3-0.2-0.6-0.2-0.8-0.2l-8.8,1.3c-0.5,0.1-0.9,0.6-0.9,1.2c1.5,13.2-4.1,20-4.9,20.9
		c-0.1,0.1-0.2,0.2-0.3,0.3l-3.1,2.8c-0.7-0.7-1.6-1.3-2.5-1.7c-1-0.4-2-0.6-3-0.7v-4.4c0,0,0-0.1,0-0.3c0.2-1.6,1.8-10.1,12.2-17.5
		c0.5-0.4,0.6-1,0.3-1.5l-4.9-7.4c-0.2-0.2-0.4-0.4-0.7-0.5c-0.3,0-0.5,0-0.8,0.2c-4,2.9-6,6-7.1,8.3c-0.9-2.4-2.7-5.7-6.2-9.5
		c-0.2-0.2-0.5-0.3-0.9-0.4c-0.3,0-0.6,0.2-0.8,0.5l-4.3,6.5c-0.3,0.4-0.2,1,0.1,1.3c9.5,10.3,10.8,18.3,11,19.9v0.6l0,0v4.1
		c-0.8,0.1-1.5,0.3-2.3,0.6l-0.3,0.1c-0.8,0.3-1.4,0.7-2.1,1.1l-3-3.3c0,0-0.1,0-0.1-0.1s-0.1-0.1-0.2-0.2c-1.1-1.6-5.2-8.4-5.2-22
		c0-0.5-0.3-0.9-0.8-1.1l-7.6-1.9c-0.3-0.1-0.6,0-0.9,0.2c-0.3,0.2-0.4,0.5-0.4,0.8c0,5.1,0.9,8.8,1.8,11.2c-2.3-1.1-5.9-2-10.8-1.4
		c-0.3,0.1-0.6,0.2-0.8,0.4c-0.1,0.2-0.2,0.5-0.2,0.8l1.3,8.8c0.1,0.6,0.6,1,1.2,0.9c13.3-1.6,20,4.1,20.9,4.8
		c0.1,0.1,0.1,0.1,0.1,0.1s0,0,0.1,0l2.9,3.2c-0.7,0.7-1.3,1.6-1.7,2.5c-0.4,1-0.6,2-0.7,3h-4.4h-0.1c0,0,0,0-0.1,0
		c-1.1-0.1-9.9-1.4-17.7-12.2c-0.4-0.5-1-0.6-1.5-0.3l-7.4,4.9c-0.2,0.2-0.4,0.4-0.5,0.7c0,0.2,0,0.5,0.2,0.8c2.9,4,6,6,8.3,7.1
		c-2.2,0.8-5.5,2.6-9.5,6.2c-0.3,0.2-0.4,0.5-0.4,0.9c0,0.3,0.2,0.6,0.5,0.8l6.5,4.3c0.3,0.2,0.6,0.3,1,0.1c0.1,0,0.2-0.1,0.3-0.2
		c6.2-5.6,11.4-8.3,14.7-9.6c2.9-1.1,4.8-1.4,5.3-1.4c0.1,0,0.1,0,0.1,0h4.5c0.1,0.8,0.3,1.5,0.6,2.3l0.1,0.3
		c0.3,0.8,0.7,1.4,1.1,2.1l-3.3,3c0,0,0,0-0.1,0.1c-0.4,0.3-1.9,1.4-4.8,2.5c-3.3,1.3-9,2.8-17.4,2.8c-0.5,0-0.9,0.3-1,0.8
		L3356.9,279.2z M3364.2,257.6L3364.2,257.6c0.2,0,0.3,0,0.3,0h7c-3.4,1.5-8.1,4.1-13.3,8.9l-4.7-3.1
		C3359.3,258.4,3363.2,257.7,3364.2,257.6z M3372,255.5h-7.5c0,0,0,0-0.1,0c0,0-0.1,0-0.2,0c-1.2-0.2-5.5-1.1-9.7-6.4l5.6-3.7
		C3364.3,250.8,3368.5,253.8,3372,255.5z M3373,235.8L3373,235.8c0.1,0.1,0.1,0.1,0.1,0.1l5,5.6c-3.6-1.4-8.7-2.5-15.5-1.9l-1-6.7
		C3368.8,232.3,3372.4,235.2,3373,235.8z M3379.4,239.6l-4.7-5.1l0,0c-0.3-0.4-2.9-4.1-3.2-12l5.5,1.4
		C3377,230.7,3378.2,235.9,3379.4,239.6z M3392.2,227.6L3392.2,227.6v7c-1.6-3.6-4.3-8.2-8.9-13.3l3.1-4.7
		C3391.6,222.6,3392.2,227.1,3392.2,227.6z M3394.4,235.2v-7.5c0,0,0,0,0-0.1c0,0,0-0.1,0-0.2c0.2-1.2,1.1-5.5,6.4-9.7l3.7,5.6
		C3399.1,227.4,3396.1,231.7,3394.4,235.2z M3414.2,236.1c-0.1,0.1-0.1,0.1-0.1,0.1c0,0.1-0.1,0.1-0.1,0.1l-5.6,5
		c1.5-3.6,2.6-8.7,1.9-15.5l6.7-1C3417.5,231.6,3414.9,235.2,3414.2,236.1z M3410.2,242.6l5.2-4.7c0,0,0.1-0.1,0.2-0.2l0,0
		c0.8-0.6,4.1-2.8,11.8-3l-1.4,5.5C3419,240.2,3413.7,241.4,3410.2,242.6z M3422.5,255.4L3422.5,255.4c-0.2,0-0.3,0-0.3,0h-7
		c3.4-1.5,8.1-4.1,13.4-8.9l4.7,3.1C3427.4,254.6,3423.5,255.3,3422.5,255.4z M3414.7,257.5h7.5c0,0,0,0,0.1,0c0,0,0.1,0,0.2,0
		c1.2,0.2,5.5,1.1,9.7,6.4l-5.6,3.7C3422.5,262.2,3418.2,259.2,3414.7,257.5z M3413.8,277.3c-0.1,0-0.1-0.1-0.1-0.1
		c-0.1,0-0.1-0.1-0.1-0.1l-5-5.6c3.6,1.4,8.7,2.6,15.5,1.9l1.1,6.6C3418.3,280.6,3414.7,278.1,3413.8,277.3z M3407.3,273.4l4.7,5.1
		l0,0c0.3,0.4,2.9,4.1,3.2,12l-5.5-1.4C3409.7,282.3,3408.6,277.1,3407.3,273.4z M3394.5,285.4L3394.5,285.4v-7
		c1.6,3.6,4.2,8.2,8.9,13.3l-3.1,4.7C3395.1,290.4,3394.6,285.9,3394.5,285.4z M3392.3,277.8v7.5v0.1v0.1c-0.1,0.9-0.8,5.4-6.4,9.8
		l-3.7-5.6C3387.6,285.6,3390.7,281.3,3392.3,277.8z M3387,260.8c-0.3-0.4-0.5-0.9-0.7-1.4l-0.1-0.3c-0.2-0.5-0.3-1-0.4-1.5
		c-0.1-0.7-0.2-1.4,0-2.1c0.1-0.7,0.2-1.4,0.5-2.1c0.3-0.6,0.7-1.2,1.2-1.7c0.5-0.6,1-1,1.6-1.4c0.4-0.3,0.9-0.5,1.4-0.7l0.3-0.1
		c0.5-0.2,1-0.3,1.5-0.4c0.7-0.1,1.4-0.1,2.1,0c0.7,0,1.4,0.2,2.1,0.5c0.6,0.3,1.2,0.7,1.7,1.2c0.6,0.5,1,1,1.4,1.6
		c0.3,0.4,0.5,0.9,0.7,1.4l0.1,0.3c0.2,0.5,0.4,1,0.4,1.5c0.1,0.7,0.1,1.4,0.1,2.1s-0.2,1.4-0.5,2.1c-0.3,0.6-0.7,1.2-1.2,1.7
		c-0.5,0.6-1,1-1.6,1.4c-0.4,0.3-0.9,0.5-1.4,0.7l-0.3,0.1c-0.5,0.2-1,0.3-1.5,0.4c-0.7,0.1-1.4,0.1-2.1,0c-0.7,0-1.4-0.2-2.1-0.5
		c-0.7-0.3-1.2-0.7-1.7-1.2C3387.8,262,3387.4,261.4,3387,260.8z M3372.6,276.9c0-0.1,0.1-0.1,0.1-0.1c0-0.1,0.1-0.1,0.1-0.1l5.6-5
		c-1.4,3.6-2.6,8.7-2,15.5l-6.6,1C3369.2,281.4,3371.8,277.8,3372.6,276.9z M3359.2,278.3l1.4-5.5c7.1,0,12.3-1.3,15.8-2.4l-5.1,4.7
		l0,0c-0.2,0.2-1.2,0.8-2.9,1.5C3366.5,277.3,3363.6,278.2,3359.2,278.3z"/>
	<rect class="elementor-shape-fill ha-shape-divider" x="3392.6" y="0" width="1.2" height="226.2"/>
	<polygon class="elementor-shape-fill ha-shape-divider" points="3339.2,216 3346.8,209.1 3356.6,212.2 3352.4,202.9 3358.3,194.5 3348.1,195.6 3342.1,187.4 3339.9,197.4
		3330.3,200.7 3339.1,205.8 	"/>
</g>
<g>
	<polygon class="elementor-shape-fill ha-shape-divider" points="3534.4,178.4 3543.3,177.3 3548.8,184.3 3550.4,175.6 3558.8,172.5 3551,168.2 3550.7,159.3 3544.2,165.4
		3535.6,163 3539.4,171 	"/>
	<path class="elementor-shape-fill ha-shape-divider" d="M3514.5,68.5c0,25,20.2,45.2,45.2,45.2s45.2-20.2,45.2-45.2s-20.2-45.2-45.2-45.2S3514.5,43.5,3514.5,68.5z M3521.5,68.5
		c0-21.1,17.1-38.2,38.2-38.2c21.1,0,38.2,17.1,38.2,38.2s-17.1,38.2-38.2,38.2S3521.5,89.6,3521.5,68.5z"/>
	<path class="elementor-shape-fill ha-shape-divider" d="M3532.9,73.9c-2.8,0-5.1,2.3-5.1,5.1c0,2.8,2.3,5.1,5.1,5.1s5.1-2.3,5.1-5.1c0-0.4,0-0.7-0.1-1.1l1.9-0.7
		c0.6,0.9,1.6,1.5,2.8,1.5c1.9,0,3.4-1.5,3.4-3.4c0-0.2,0-0.3-0.1-0.5l12.4-4.8l-4.8,12.4c-0.2-0.1-0.4-0.1-0.5-0.1
		c-1.9,0-3.4,1.5-3.4,3.4c0,1.2,0.6,2.2,1.5,2.8l-0.7,1.8c-0.3-0.1-0.7-0.1-1.1-0.1c-2.8,0-5.1,2.3-5.1,5.1c0,2.8,2.3,5.1,5.1,5.1
		s5.1-2.3,5.1-5.1c0-1.8-1-3.4-2.4-4.3l0.8-2c0.1,0,0.1,0,0.2,0c1.9,0,3.4-1.5,3.4-3.4c0-1-0.5-2-1.2-2.6l4.7-12.2l4.7,12.2
		c-0.7,0.6-1.2,1.5-1.2,2.6c0,1.9,1.5,3.4,3.4,3.4c0.1,0,0.1,0,0.2,0l0.8,2c-1.4,0.9-2.4,2.5-2.4,4.3c0,2.8,2.3,5.1,5.1,5.1
		s5.1-2.3,5.1-5.1c0-2.8-2.3-5.1-5.1-5.1c-0.4,0-0.7,0-1.1,0.1l-0.7-1.8c0.9-0.6,1.5-1.6,1.5-2.8c0-1.9-1.5-3.4-3.4-3.4
		c-0.2,0-0.3,0-0.5,0.1l-4.8-12.4l12.4,4.8c-0.1,0.2-0.1,0.4-0.1,0.5c0,1.9,1.5,3.4,3.4,3.4c1.2,0,2.2-0.6,2.8-1.5l1.9,0.7
		c-0.1,0.4-0.1,0.7-0.1,1.1c0,2.8,2.3,5.1,5.1,5.1s5.1-2.3,5.1-5.1c0-2.8-2.3-5.1-5.1-5.1c-1.8,0-3.4,1-4.3,2.4l-2-0.8
		c0-0.1,0-0.1,0-0.2c0-1.9-1.5-3.4-3.3-3.4c-1,0-2,0.5-2.6,1.2l-12.2-4.7l12.2-4.7c0.6,0.7,1.5,1.2,2.6,1.2c1.9,0,3.3-1.5,3.3-3.4
		c0-0.1,0-0.1,0-0.2l2-0.8c0.9,1.4,2.5,2.4,4.3,2.4c2.8,0,5.1-2.3,5.1-5.1s-2.3-5.1-5.1-5.1s-5.1,2.3-5.1,5.1c0,0.4,0,0.7,0.1,1.1
		l-1.9,0.7c-0.6-0.9-1.6-1.5-2.8-1.5c-1.9,0-3.4,1.5-3.4,3.4c0,0.2,0,0.3,0.1,0.5l-12.4,4.8l4.8-12.4c0.2,0.1,0.3,0.1,0.5,0.1
		c1.9,0,3.4-1.5,3.4-3.4c0-1.2-0.6-2.2-1.5-2.8l0.7-1.8c0.3,0.1,0.7,0.1,1.1,0.1c2.8,0,5.1-2.3,5.1-5.1s-2.3-5.1-5.1-5.1
		s-5.1,2.3-5.1,5.1c0,1.8,1,3.4,2.4,4.3l-0.8,2c-0.1,0-0.1,0-0.2,0c-1.8,0-3.4,1.5-3.4,3.4c0,1.1,0.5,2,1.2,2.6l-4.7,12.2l-4.7-12.2
		c0.7-0.6,1.2-1.5,1.2-2.6c0-1.9-1.5-3.4-3.4-3.4c-0.1,0-0.1,0-0.2,0l-0.8-2c1.4-0.9,2.4-2.5,2.4-4.3c0-2.8-2.3-5.1-5.1-5.1
		s-5.1,2.3-5.1,5.1s2.3,5.1,5.1,5.1c0.4,0,0.7,0,1.1-0.1l0.7,1.8c-0.9,0.6-1.5,1.6-1.5,2.8c0,1.9,1.5,3.4,3.4,3.4
		c0.2,0,0.4,0,0.5-0.1l4.8,12.4l-12.4-4.8c0.1-0.2,0.1-0.3,0.1-0.5c0-1.9-1.5-3.4-3.4-3.4c-1.2,0-2.2,0.6-2.8,1.5l-1.9-0.7
		c0.1-0.4,0.1-0.7,0.1-1.1c0-2.8-2.3-5.1-5.1-5.1s-5.1,2.3-5.1,5.1s2.3,5.1,5.1,5.1c1.8,0,3.4-1,4.3-2.4l2,0.8c0,0.1,0,0.1,0,0.2
		c0,1.9,1.5,3.4,3.3,3.4c1,0,2-0.5,2.6-1.2l12.2,4.7l-12.2,4.7c-0.6-0.7-1.5-1.2-2.6-1.2c-1.9,0-3.3,1.5-3.3,3.4c0,0.1,0,0.1,0,0.2
		l-2,0.8C3536.3,74.8,3534.7,73.9,3532.9,73.9 M3532.9,54.6c1.9,0,3.4,1.5,3.4,3.4c0,0.1,0,0.3,0,0.4c-0.1,0.6-0.3,1.2-0.7,1.6
		c-0.6,0.8-1.6,1.3-2.7,1.3c-1.9,0-3.4-1.5-3.4-3.4C3529.5,56.1,3531,54.6,3532.9,54.6 M3544.1,61.5L3544.1,61.5
		c0,0.7-0.4,1.3-0.9,1.5c-0.2,0.1-0.5,0.2-0.7,0.2c-0.7,0-1.3-0.5-1.5-1.1l0,0c-0.1-0.2-0.1-0.3-0.1-0.5c0-0.5,0.2-0.9,0.5-1.2
		s0.6-0.5,1-0.5C3543.4,60,3544,60.7,3544.1,61.5 M3552.6,41.6c0,1.1-0.5,2-1.3,2.7c-0.5,0.4-1,0.6-1.6,0.7c-0.1,0-0.3,0-0.4,0
		c-1.9,0-3.4-1.5-3.4-3.4s1.5-3.3,3.4-3.3C3551,38.3,3552.6,39.8,3552.6,41.6 M3553.4,49.7c0.6,0.2,1.1,0.8,1.1,1.5
		c0,0.3-0.1,0.5-0.2,0.7c-0.2,0.5-0.8,0.9-1.4,0.9h-0.1c-0.8,0-1.5-0.7-1.5-1.6c0-0.4,0.1-0.8,0.5-1c0.2-0.3,0.7-0.6,1.2-0.6
		C3553,49.6,3553.2,49.7,3553.4,49.7 M3569.8,44.9c-0.6-0.1-1.2-0.3-1.6-0.7c-0.8-0.6-1.3-1.6-1.3-2.7c0-1.9,1.5-3.3,3.4-3.3
		s3.4,1.5,3.4,3.3c0,1.9-1.5,3.4-3.4,3.4C3570.1,45,3569.9,45,3569.8,44.9 M3565.2,52c-0.1-0.2-0.2-0.5-0.2-0.7
		c0-0.7,0.5-1.3,1.1-1.5c0.2-0.1,0.3-0.1,0.5-0.1c0.5,0,0.9,0.2,1.2,0.6c0.3,0.3,0.5,0.7,0.5,1c0,0.9-0.7,1.5-1.5,1.6h-0.1
		C3566,52.9,3565.4,52.5,3565.2,52 M3583.2,58.4c0-0.1,0-0.3,0-0.4c0-1.9,1.5-3.4,3.4-3.4s3.4,1.5,3.4,3.4s-1.5,3.4-3.4,3.4
		c-1.1,0-2-0.5-2.7-1.3C3583.5,59.6,3583.3,59,3583.2,58.4 M3576.2,63c-0.5-0.2-0.9-0.8-0.9-1.4v-0.1c0-0.8,0.7-1.5,1.6-1.5
		c0.4,0,0.8,0.2,1.1,0.5c0.3,0.2,0.5,0.7,0.5,1.2c0,0.2,0,0.3-0.1,0.5l0,0c-0.2,0.6-0.8,1.1-1.5,1.1
		C3576.6,63.2,3576.4,63.1,3576.2,63 M3586.5,82.3c-1.9,0-3.4-1.5-3.4-3.4c0-0.1,0-0.3,0-0.4c0.1-0.6,0.3-1.2,0.7-1.6
		c0.6-0.8,1.6-1.3,2.7-1.3c1.9,0,3.4,1.5,3.4,3.4C3589.9,80.8,3588.4,82.3,3586.5,82.3 M3575.3,75.5L3575.3,75.5
		c0-0.7,0.4-1.3,0.9-1.5c0.2-0.1,0.5-0.2,0.7-0.2c0.7,0,1.3,0.5,1.5,1l0,0c0.1,0.2,0.1,0.3,0.1,0.5c0,0.5-0.2,0.9-0.5,1.2
		c-0.3,0.3-0.6,0.5-1.1,0.5C3576,76.9,3575.4,76.3,3575.3,75.5 M3566.8,95.3c0-1.1,0.5-2,1.3-2.7c0.5-0.4,1-0.6,1.6-0.7
		c0.1,0,0.3,0,0.4,0c1.9,0,3.4,1.5,3.4,3.4s-1.5,3.3-3.4,3.3C3568.3,98.6,3566.8,97.2,3566.8,95.3 M3566,87.2
		c-0.6-0.2-1.1-0.8-1.1-1.5c0-0.3,0.1-0.5,0.2-0.7c0.2-0.5,0.8-0.9,1.4-0.9h0.1c0.8,0,1.5,0.7,1.5,1.6c0,0.4-0.1,0.8-0.5,1
		c-0.2,0.3-0.7,0.6-1.2,0.6C3566.4,87.3,3566.2,87.3,3566,87.2 M3549.6,92c0.6,0.1,1.2,0.3,1.6,0.7c0.8,0.6,1.3,1.6,1.3,2.7
		c0,1.9-1.5,3.3-3.4,3.3s-3.4-1.5-3.4-3.3c0-1.9,1.5-3.4,3.4-3.4C3549.3,91.9,3549.5,91.9,3549.6,92 M3554.2,84.9
		c0.1,0.2,0.2,0.5,0.2,0.7c0,0.7-0.5,1.3-1.1,1.5c-0.2,0.1-0.4,0.1-0.5,0.1c-0.5,0-0.9-0.2-1.2-0.6c-0.3-0.3-0.5-0.7-0.5-1
		c0-0.9,0.7-1.5,1.5-1.6h0.1C3553.4,84.1,3554,84.4,3554.2,84.9 M3541.4,76.5c-0.3-0.2-0.5-0.7-0.5-1.2c0-0.2,0-0.3,0.1-0.5l0,0
		c0.2-0.6,0.8-1,1.5-1c0.3,0,0.5,0.1,0.7,0.2c0.5,0.2,0.9,0.8,0.9,1.4v0.1c0,0.8-0.7,1.5-1.6,1.5
		C3542.1,76.9,3541.7,76.8,3541.4,76.5 M3532.9,82.3c-1.9,0-3.4-1.5-3.4-3.4s1.5-3.4,3.4-3.4c1.1,0,2,0.5,2.7,1.3
		c0.4,0.5,0.6,1,0.7,1.6c0,0.1,0,0.3,0,0.4C3536.2,80.8,3534.7,82.3,3532.9,82.3"/>
	<path class="elementor-shape-fill ha-shape-divider" d="M3549.2,18.6v0.1v8.5h21.1v-8.5c0-0.7-2.7-1.3-6.5-1.5c0.6-0.8,1-1.8,1-2.9c0-2.5-1.8-4.6-4.2-4.9V0h-1.6v9.3
		c-2.4,0.4-4.2,2.4-4.2,4.9c0,1.1,0.4,2.1,1,2.9c-1.2,0.1-2.2,0.2-3.1,0.3c-0.9,0.1-1.7,0.3-2.3,0.5
		C3549.7,18.2,3549.3,18.4,3549.2,18.6z M3556.3,14.3c0-1.9,1.5-3.5,3.5-3.5c1.9,0,3.5,1.5,3.5,3.5c0,1.2-0.6,2.2-1.5,2.9
		c-0.6,0-1.3,0-2,0s-1.3,0-1.9,0C3556.9,16.5,3556.3,15.5,3556.3,14.3z"/>
</g>
<g>
	<path class="elementor-shape-fill ha-shape-divider" d="M3040.9,244.6c-3.8,5.4,2.1,11.3,7.5,7.5c0.2-0.1,0.3-0.3,0.4-0.4c3.8-5.4-2.1-11.3-7.5-7.5
		C3041.2,244.2,3041,244.4,3040.9,244.6z"/>
	<g>
		<path class="elementor-shape-fill ha-shape-divider" d="M3119.8,76.1c-1.2-8.7-11.2-6.7-19.4-3.1c6.6-5.5,12.3-13.4,3.5-18.5c-8.8-5-12.6,6.1-13.9,15
			c-1.7-9.3-5.9-20.3-14.3-15.9c-10,5.2,4.3,19.7,11.4,25.2c-0.3,1.3,0.3,2.7,1.6,3.4c1.4,0.8,3.1,0.3,4-1
			C3101,83.7,3121.4,87.3,3119.8,76.1z M3119.1,76c1.2,7.1-16.4,5.5-25.8,4.1c0.1-0.6,0.1-1.3-0.1-1.9
			C3100.3,75.2,3117.8,68.6,3119.1,76z M3103.8,55.2c7.6,4.5-6.1,17.4-11.4,21.9c-0.2-0.2-0.4-0.3-0.6-0.5c-0.3-0.1-0.5-0.2-0.8-0.3
			c0-0.2,0-0.4,0-0.5C3092.5,67,3096.7,51,3103.8,55.2z M3076.3,54.2c6.7-3.3,11.5,14.1,13.3,22.1c-0.7,0.2-1.4,0.6-1.9,1.2
			C3080.9,70.5,3069.8,57.4,3076.3,54.2z"/>
		<path class="elementor-shape-fill ha-shape-divider" d="M3121.3,98.3l-24.2-13.1c-2.9-1.6-6.6-0.5-8.1,2.4l-5.2,9.7c-1.6,2.9-0.5,6.5,2.4,8.1l24.2,13.1c2.9,1.6,6.6,0.5,8.1-2.4
			l5.2-9.7C3125.3,103.5,3124.2,99.9,3121.3,98.3z"/>
		<path class="elementor-shape-fill ha-shape-divider" d="M3105.3,121.9l-21.7-11.8c-2.9-1.6-6.6-0.5-8.1,2.4l-22.4,41.7c-1.6,2.9-0.5,6.5,2.4,8.1l21.6,11.7
			c2.9,1.6,6.6,0.5,8.1-2.4l22.5-41.6C3109.3,127.1,3108.2,123.5,3105.3,121.9z"/>
		<path class="elementor-shape-fill ha-shape-divider" d="M3070.8,97.1c2.9,1.6,6.6,0.5,8.1-2.4l5.2-9.7c1.6-2.9,0.5-6.5-2.4-8.1l-24.3-13.2c-2.9-1.6-6.6-0.5-8.1,2.4l-5.2,9.7
			c-1.6,2.9-0.5,6.6,2.4,8.1L3070.8,97.1z"/>
		<path class="elementor-shape-fill ha-shape-divider" d="M3068.3,101.9l-21.9-11.8c-2.9-1.6-6.6-0.5-8.1,2.4l-22.5,41.6c-1.6,2.9-0.5,6.6,2.4,8.1l22,11.9c2.9,1.6,6.6,0.5,8.1-2.4
			l22.4-41.7C3072.3,107.1,3071.2,103.5,3068.3,101.9z"/>
	</g>
	<rect class="elementor-shape-fill ha-shape-divider" x="3062" y="0" width="1.6" height="69.9"/>
</g>
<g>
	<polygon class="elementor-shape-fill ha-shape-divider" points="3762.6,256.9 3769.6,249.8 3779.3,252.3 3774.7,243.4 3780.1,235 3770.2,236.6 3763.8,228.9 3762.3,238.7
		3753,242.4 3761.9,246.9 	"/>
	<circle class="elementor-shape-fill ha-shape-divider" cx="3733.2" cy="202.5" r="2.6"/>
	<path class="elementor-shape-fill ha-shape-divider" d="M3757.7,337.2c-3.8,5.4,2.1,11.3,7.5,7.5c0.2-0.1,0.3-0.3,0.4-0.4c3.8-5.4-2.1-11.3-7.5-7.5
		C3758,336.8,3757.8,337,3757.7,337.2z"/>
	<path class="elementor-shape-fill ha-shape-divider" d="M3687.5,123.9c-6.4,0.8-7.6-2.1-7.8-2.6c-0.7-2.7,5.9-13.6,12.3-23c-4,0.2-5-1.7-5.2-2.2c-0.7-3.1,9.8-18.6,14.4-24.5
		c4.8-6.1,6-6.1,6.7-6.1s1.9,0,6.7,6.1c4.7,5.9,15.2,21.4,14.4,24.6c-0.2,0.5-1.1,2.2-5.1,2c6.4,9.4,13,20.4,12.3,23.2
		c-0.2,0.4-1.4,3.1-7.8,2.4c8.8,12.8,18,28.1,17.1,31.6c-0.2,0.6-2.4,5.4-15.8,1.9c-5.1-1.3-7.1-0.5-9.8,0.6
		c-1.4,0.6-3.1,1.3-5.4,1.8v13.6c0,0.1,0,0.2,0,0.3h-12.9c0-0.1,0-0.2,0-0.3v-13.7c-2-0.5-3.5-1.2-4.7-1.8
		c-2.6-1.3-4.4-2.2-10.6-0.5c-13.4,3.8-15.6-1.3-15.9-2C3669.6,151.9,3678.7,136.7,3687.5,123.9z"/>
	<rect class="elementor-shape-fill ha-shape-divider" x="3707.2" y="0" width="1.6" height="74.7"/>
</g>
<g>
	<circle class="elementor-shape-fill ha-shape-divider" cx="3262.2" cy="170" r="3.9"/>
	<path class="elementor-shape-fill ha-shape-divider" d="M3228.4,71.6c-6.4,0.8-7.6-2.1-7.8-2.6c-0.7-2.7,5.9-13.6,12.3-23c-4,0.2-5-1.7-5.2-2.2c-0.7-3.1,9.8-18.6,14.4-24.5
		c4.8-6.1,6-6.1,6.7-6.1s1.9,0,6.7,6.1c4.7,5.9,15.2,21.4,14.4,24.6c-0.2,0.5-1.1,2.2-5.1,2c6.4,9.4,13,20.4,12.3,23.2
		c-0.2,0.4-1.4,3.1-7.8,2.4c8.8,12.8,18,28.1,17.1,31.6c-0.2,0.6-2.4,5.4-15.8,1.9c-5.1-1.3-7.1-0.5-9.8,0.6
		c-1.4,0.6-3.1,1.3-5.4,1.8V121c0,0.1,0,0.2,0,0.3h-12.9c0-0.1,0-0.2,0-0.3v-13.7c-2-0.5-3.5-1.2-4.7-1.8c-2.6-1.3-4.4-2.2-10.6-0.5
		c-13.4,3.8-15.6-1.3-15.9-2C3210.5,99.6,3219.6,84.4,3228.4,71.6z"/>
	<rect class="elementor-shape-fill ha-shape-divider" x="3248.1" width="1.6" height="22.5"/>
</g>
<rect class="elementor-shape-fill ha-shape-divider" display="none" fill="#D41E1E" width="4080" height="380"/>
</svg>
