<svg  xmlns="http://www.w3.org/2000/svg" viewBox="0 0 4080 380" preserveAspectRatio="none">
<g>
	<polygon class="elementor-shape-fill ha-shape-divider" points="2439.8,262.9 2432.5,264.6 2441.2,269.6 2443.4,269 	"/>
	<polygon class="elementor-shape-fill ha-shape-divider" points="2429.5,286.2 2423.7,289.6 2436,292.5 2438.4,288.4 	"/>
	<polygon class="elementor-shape-fill ha-shape-divider" points="2433.6,275.7 2431.4,282.7 2440.1,277.8 2440.8,275.5 	"/>
	<polygon class="elementor-shape-fill ha-shape-divider" points="2439.5,286.4 2443.1,280.2 2441,279.7 2432.3,284.7 	"/>
	<polygon class="elementor-shape-fill ha-shape-divider" points="2431.5,266.5 2433.6,273.5 2440.7,273.4 2440.1,271.5 	"/>
	<polygon class="elementor-shape-fill ha-shape-divider" points="1365.6,233.8 1366.2,235.6 1372.8,239.4 1371.2,233.8 	"/>
	<polygon class="elementor-shape-fill ha-shape-divider" points="2438.7,260.9 2436.3,256.8 2424,259.7 2429.8,263 	"/>
	<polygon class="elementor-shape-fill ha-shape-divider" points="2428.7,264.9 2423,261.6 2426.6,273.6 2431.3,273.5 	"/>
	<polygon class="elementor-shape-fill ha-shape-divider" points="1362.2,238.3 1361,239.6 1360.9,247.3 1364.9,243.1 	"/>
	<polygon class="elementor-shape-fill ha-shape-divider" points="1365.8,244.7 1360.9,249.8 1360.9,255 1367.6,247.9 	"/>
	<polygon class="elementor-shape-fill ha-shape-divider" points="1372.9,226.8 1366.2,230.7 1365.7,232.1 1371.3,232.1 	"/>
	<polygon class="elementor-shape-fill ha-shape-divider" points="1376.7,232.2 1379.5,223 1375,225.6 1373,232.1 	"/>
	<polygon class="elementor-shape-fill ha-shape-divider" points="1363.6,228.8 1365.3,229.2 1372,225.3 1366.4,224 	"/>
	<polygon class="elementor-shape-fill ha-shape-divider" points="2440.5,259.8 2446.7,253.3 2446.7,246.7 2438.1,255.7 	"/>
	<polygon class="elementor-shape-fill ha-shape-divider" points="1364.9,223.1 1361,219 1361,226.7 1362.1,227.9 	"/>
	<polygon class="elementor-shape-fill ha-shape-divider" points="1374.2,224.1 1378.7,221.5 1369.1,219.3 1367.3,222.5 	"/>
	<polygon class="elementor-shape-fill ha-shape-divider" points="1365.8,221.6 1367.7,218.4 1361,211.3 1361,216.5 	"/>
	<polygon class="elementor-shape-fill ha-shape-divider" points="2426.5,275.8 2422.9,287.5 2428.7,284.2 2431.3,275.7 	"/>
	<polygon class="elementor-shape-fill ha-shape-divider" points="2465.8,263.1 2471.6,259.8 2459.3,256.9 2456.9,261 	"/>
	<polygon class="elementor-shape-fill ha-shape-divider" points="2453.9,261.8 2448.9,256.5 2448.9,266.5 2450.3,268 	"/>
	<polygon class="elementor-shape-fill ha-shape-divider" points="2455.1,259.9 2457.5,255.8 2448.9,246.7 2448.9,253.3 	"/>
	<polygon class="elementor-shape-fill ha-shape-divider" points="2450.4,281.4 2448.8,283 2448.8,293 2453.9,287.6 	"/>
	<circle class="elementor-shape-fill ha-shape-divider" cx="2881" cy="202.3" r="0.7"/>
	<polygon class="elementor-shape-fill ha-shape-divider" points="2445.3,267.9 2446.7,266.5 2446.7,256.5 2441.7,261.7 	"/>
	<circle class="elementor-shape-fill ha-shape-divider" cx="2907" cy="197.5" r="1.2"/>
	<circle class="elementor-shape-fill ha-shape-divider" cx="2909.8" cy="202.4" r="0.7"/>
	<circle class="elementor-shape-fill ha-shape-divider" cx="2883.8" cy="197.4" r="1.2"/>
	<polygon class="elementor-shape-fill ha-shape-divider" points="2466.8,284.4 2472.5,287.7 2469,275.6 2464.2,275.6 	"/>
	<polygon class="elementor-shape-fill ha-shape-divider" points="2437.9,293.5 2446.6,302.8 2446.6,296.2 2440.3,289.4 	"/>
	<polygon class="elementor-shape-fill ha-shape-divider" points="2441.5,287.4 2446.6,293 2446.6,283 2445,281.2 	"/>
	<polygon class="elementor-shape-fill ha-shape-divider" points="2456.9,288.5 2459.3,292.6 2471.7,289.7 2465.9,286.4 	"/>
	<polygon class="elementor-shape-fill ha-shape-divider" points="2452.2,269.1 2454.5,269.7 2463.1,264.7 2455.8,262.9 	"/>
	<polygon class="elementor-shape-fill ha-shape-divider" points="2455.8,286.5 2463.1,284.8 2454.4,279.8 2452.3,280.3 	"/>
	<polygon class="elementor-shape-fill ha-shape-divider" points="2464.2,266.6 2455.5,271.6 2455,273.4 2462.1,273.4 	"/>
	<polygon class="elementor-shape-fill ha-shape-divider" points="2454.8,275.6 2455.5,277.9 2464,282.8 2462,275.6 	"/>
	<polygon class="elementor-shape-fill ha-shape-divider" points="2455,289.6 2448.8,296.2 2448.8,302.8 2457.4,293.7 	"/>
	<circle class="elementor-shape-fill ha-shape-divider" cx="150.4" cy="197.3" r="0.7"/>
	<path class="elementor-shape-fill ha-shape-divider" d="M132.7,220.4l-7-4l1.5,5.2c0,0.1,0,0.3,0,0.4l-1.6,5.2l7-4c-0.2-0.5-0.3-0.9-0.3-1.4C132.3,221.3,132.4,220.8,132.7,220.4z
		"/>
	<path class="elementor-shape-fill ha-shape-divider" d="M135.7,217.9l0-8.1l-3.7,3.9c-0.1,0.1-0.3,0.2-0.4,0.2l-5.3,1.3l7,4C133.9,218.5,134.7,218,135.7,217.9z"/>
	<circle class="elementor-shape-fill ha-shape-divider" cx="124.5" cy="202.2" r="1.2"/>
	<circle class="elementor-shape-fill ha-shape-divider" cx="147.6" cy="202.2" r="1.2"/>
	<path class="elementor-shape-fill ha-shape-divider" d="M132,230l3.7,3.9l0-8.1c-1-0.2-1.8-0.7-2.4-1.4l-7,4l5.3,1.2C131.7,229.7,131.8,229.8,132,230z"/>
	<path class="elementor-shape-fill ha-shape-divider" d="M139.5,219.1l7-4l-5.3-1.3c-0.2,0-0.3-0.1-0.4-0.2l-3.7-3.9l0,8.1C138,218,138.8,218.5,139.5,219.1z"/>
	<path class="elementor-shape-fill ha-shape-divider" d="M140.3,223l6.9,3.9l-1.5-5c0-0.1,0-0.3,0-0.4l1.5-5.1l-7,4c0.1,0.5,0.2,0.9,0.2,1.4C140.4,222.2,140.3,222.7,140.3,223z"/>
	<path class="elementor-shape-fill ha-shape-divider" d="M137,225.6l0,8.1l3.7-3.9c0.1-0.1,0.3-0.2,0.4-0.2l5.4-1.3l-7.1-4C138.9,225.1,138,225.6,137,225.6z"/>
	<circle class="elementor-shape-fill ha-shape-divider" cx="147.4" cy="241.5" r="1.2"/>
	<circle class="elementor-shape-fill ha-shape-divider" cx="150.2" cy="246.4" r="0.7"/>
	<path class="elementor-shape-fill ha-shape-divider" d="M619.2,38.9c0,0,11.5-23.8,8.8-32l-1.4-1.8c-1.2-1.5-1-3.9,0.4-5.2h-0.7l-56.4,0l0,18.6l2.8,6c0.5,1.3,0.9,2.6,1,3.9
		c1.3,14.2,4.4,19,4.4,19c3.4,2.7,6.6,5.4,9.8,8.2c4-1.8,8.9-3.6,14.7-5.3L619.2,38.9z"/>
	<polygon class="elementor-shape-fill ha-shape-divider" points="1366.4,242.3 1372.1,241 1365.4,237.1 1363.7,237.5 	"/>
	<path class="elementor-shape-fill ha-shape-divider" d="M500,0c-4.5,13.5-3.8,31.7-3.8,31.7S510.5,8,514.3,0H500z"/>
	<circle class="elementor-shape-fill ha-shape-divider" cx="121.7" cy="197.3" r="0.7"/>
	<circle class="elementor-shape-fill ha-shape-divider" cx="121.5" cy="246.4" r="0.7"/>
	<circle class="elementor-shape-fill ha-shape-divider" cx="124.3" cy="241.5" r="1.2"/>
	<path class="elementor-shape-fill ha-shape-divider" d="M165.5,222.3c-0.2-0.4-0.6-0.5-0.9-0.3c-0.4,0.2-0.5,0.6-0.3,0.9c0.1,0.1,0.2,0.2,0.4,0.3c0.1,0,0.1,0,0.2,0s0.2,0,0.3-0.1
		l0,0C165.5,222.9,165.6,222.5,165.5,222.3z"/>
	<path class="elementor-shape-fill ha-shape-divider" d="M560.7,49.7c-1.2-7.5,4.3-25.8,4.3-25.8L563.3,0h-42c-1.2,1-2.1,2.1-2.8,3.5L508,23.9c-1.7,3.3-1.9,7.1-0.6,10.6l8.6,22.4
		C528,43.2,560.7,49.6,560.7,49.7z"/>
	<path class="elementor-shape-fill ha-shape-divider" d="M160.4,221.7c-0.2-0.3-0.4-0.5-0.7-0.6c-0.3-0.1-0.6,0-0.9,0.1c-0.3,0.2-0.5,0.4-0.6,0.7c-0.1,0.3,0,0.6,0.1,0.9
		c0.2,0.3,0.4,0.5,0.7,0.6c0.1,0.1,0.2,0.1,0.3,0.1c0.1,0,0.3,0,0.5-0.1C160.3,223.1,160.5,222.4,160.4,221.7z"/>
	<polygon class="elementor-shape-fill ha-shape-divider" points="1354.5,221.6 1359.3,216.5 1359.3,211.3 1352.7,218.4 	"/>
	<polygon class="elementor-shape-fill ha-shape-divider" points="1353.1,222.5 1351.2,219.2 1341.7,221.4 1346.2,224 	"/>
	<polygon class="elementor-shape-fill ha-shape-divider" points="1355.2,243.1 1359.2,247.3 1359.3,239.6 1358.1,238.3 	"/>
	<polygon class="elementor-shape-fill ha-shape-divider" points="1345.4,225.5 1340.9,222.9 1343.7,232.2 1347.4,232.2 	"/>
	<polygon class="elementor-shape-fill ha-shape-divider" points="1352.5,247.8 1359.2,255 1359.2,249.8 1354.3,244.6 	"/>
	<polygon class="elementor-shape-fill ha-shape-divider" points="1367.2,243.8 1369,247 1378.7,244.8 1374.2,242.2 	"/>
	<polygon class="elementor-shape-fill ha-shape-divider" points="1375,240.6 1379.3,243.2 1376.7,233.8 1372.9,233.8 	"/>
	<polygon class="elementor-shape-fill ha-shape-divider" points="1358.2,227.9 1359.3,226.7 1359.3,219 1355.4,223.1 	"/>
	<polygon class="elementor-shape-fill ha-shape-divider" points="1345.9,242.1 1341.4,244.6 1351,246.9 1352.8,243.8 	"/>
	<path class="elementor-shape-fill ha-shape-divider" d="M112.5,221.6c-0.3,0.6-0.1,1.3,0.5,1.6c0.3,0.2,0.6,0.2,0.9,0.1c0.3-0.1,0.6-0.3,0.7-0.6c0.2-0.3,0.2-0.6,0.1-0.9
		c-0.1-0.3-0.3-0.6-0.6-0.7C113.5,220.8,112.8,221.1,112.5,221.6z"/>
	<polygon class="elementor-shape-fill ha-shape-divider" points="1347.5,226.7 1349.1,232.1 1354.6,232.2 1354.2,230.7 	"/>
	<path class="elementor-shape-fill ha-shape-divider" d="M107.3,222c-0.2,0.3,0,0.7,0.3,0.9c0.1,0.1,0.2,0.1,0.3,0.1c0.2,0,0.5-0.2,0.6-0.4c0.2-0.3,0-0.7-0.3-0.9
		c-0.1-0.1-0.3-0.2-0.5-0.1C107.5,221.7,107.4,221.8,107.3,222z"/>
	<polygon class="elementor-shape-fill ha-shape-divider" points="1353.7,242.3 1356.6,237.5 1355,237.1 1348.2,240.8 	"/>
	<polygon class="elementor-shape-fill ha-shape-divider" points="1349.1,233.8 1347.5,239.3 1354.2,235.6 1354.7,233.8 	"/>
	<polygon class="elementor-shape-fill ha-shape-divider" points="1343.6,233.9 1340.8,243 1345.4,240.5 1347.4,233.9 	"/>
	<polygon class="elementor-shape-fill ha-shape-divider" points="1354,224 1348.3,225.2 1355,229.2 1356.8,228.8 	"/>
	<polygon class="elementor-shape-fill ha-shape-divider" points="2469.1,273.5 2472.7,261.7 2466.9,265 2464.4,273.5 	"/>
	<path class="elementor-shape-fill ha-shape-divider" d="M3957.1,142.1l-2.6,2.8l0,4c4.1-0.2,7.7-2.4,9.8-5.7l-3.4-1.9L3957.1,142.1z"/>
	<path class="elementor-shape-fill ha-shape-divider" d="M3461.7,203.8c5.7-1,11.4-2.2,17.1-3.3c-7.9-2.4-13.7-4.4-13.7-4.4l0,0c-9.5-0.2-19.1-0.2-28.6,0.3
		c-0.1,2.4-0.5,4.5-0.9,6.2c4.8,0.9,9.7,1.7,14.5,2.6C3453.9,205,3457.8,204.5,3461.7,203.8z"/>
	<path class="elementor-shape-fill ha-shape-divider" d="M3469.1,208.3c9.6-0.5,19.2-1.4,28.8-2.5c-5.9-1.4-11.9-3.1-17.2-4.7c-5.3,1-10.6,2.1-15.9,3.1c-3.9,0.7-7.7,1.3-11.5,1.7
		c3.5,0.7,6.9,1.3,10.4,1.9c1.3,0.2,2.5,0.5,3.8,0.7C3468,208.4,3468.5,208.4,3469.1,208.3z"/>
	<path class="elementor-shape-fill ha-shape-divider" d="M3430.7,199.8c0.3-1,0.5-2,0.7-3.1c-1.2,0.1-2.5,0.2-3.8,0.3C3429.7,198.6,3430.8,199.8,3430.7,199.8z"/>
	<path class="elementor-shape-fill ha-shape-divider" d="M3435.8,203.7c-0.2,0-0.4-0.1-0.6-0.1c-0.5,1.7-2.2,2.7-3.9,2.2l-8.4-2.4c1.6,0.8,2.7,1.8,3.5,2.9c0.4,0,0.9,0,1.3,0
		c6.3-0.1,12.5-0.3,18.7-0.6C3442.9,205,3439.4,204.3,3435.8,203.7z"/>
	<path class="elementor-shape-fill ha-shape-divider" d="M3529.1,202.8c2.2-0.1,4.3-0.2,6.4-0.3c-1.7-0.4-3.4-0.4-5.2-0.5c-0.5,0-1-0.1-1.5-0.1
		C3528.9,202.2,3529.1,202.5,3529.1,202.8z"/>
	<path class="elementor-shape-fill ha-shape-divider" d="M3517.6,210c0-0.6,0-1,0-1c-4.6-0.1-10.7-1.1-17.1-2.5c-9.5,1.1-18.8,2.1-27.7,2.6c-0.5,0.1-0.9,0.1-1.4,0.1
		c9.9,1.7,19.8,3.3,29.8,2.7C3506.7,211.6,3512.1,210.9,3517.6,210z"/>
	<path class="elementor-shape-fill ha-shape-divider" d="M3546.8,208.4c-2.7-2-5.5-3.8-8.6-5c-2.9,0.1-5.9,0.2-8.8,0.4c0.3,1.6,0.3,3.3,0,4.9c2.5-0.2,5-0.4,7.5-0.5
		C3540.2,208,3543.5,208.2,3546.8,208.4z"/>
	<path class="elementor-shape-fill ha-shape-divider" d="M3528.2,200.9c0.7,0,1.5,0.1,2.2,0.1c-0.8-0.1-1.7-0.3-2.5-0.5C3528,200.6,3528.1,200.8,3528.2,200.9z"/>
	<path class="elementor-shape-fill ha-shape-divider" d="M3246.1,144.7l13,9.9c1.6,0.1,3.1,0.3,4.5,0.5l10.1-7.1L3246.1,144.7z"/>
	<path class="elementor-shape-fill ha-shape-divider" d="M3224.5,150.5c9,0.9,19.3,2.2,28.2,3.3l-11.7-8.9L3224.5,150.5z"/>
	<path class="elementor-shape-fill ha-shape-divider" d="M3267.9,200.5c-3-0.9-5.9-1.9-8.7-3.1c-1.3,0.3-3.1-0.3-5-2.9c-2.7-3.6-8.7-3.5-13-2.9c-0.2,0.1-0.3,0.3-0.5,0.4
		c4.7,1.5,9.3,5.7,11.5,8.3C3257.5,199.6,3262.7,199.8,3267.9,200.5z"/>
	<path class="elementor-shape-fill ha-shape-divider" d="M3360.5,216.5c11.3-0.4,22-3,32.9-5.8c-7.2-1.8-14.4-4-20-5.8c-8.2,1.9-16.5,3.9-24.8,5.4c-8.4,1.6-16.8,2.1-25.1,1.6
		c0.7,0.2,1.5,0.4,2.3,0.6C3337.1,215.4,3348.8,217,3360.5,216.5z"/>
	<path class="elementor-shape-fill ha-shape-divider" d="M3561.5,211.8c-6.5-3-13.1-5.5-19.9-7.7c1.1,0.6,2,1.2,3,1.8c1.3,0.8,2.6,1.7,3.8,2.7c2.6,0.3,5.2,0.7,7.7,1.3
		C3558,210.5,3559.8,211,3561.5,211.8z"/>
	<path class="elementor-shape-fill ha-shape-divider" d="M3298.1,207.1c1-0.2,2.1-0.3,3.1-0.5c-14.1-4.7-28-10.3-41.9-15.5c1.3,1.4,2.2,2.5,2.3,3c0.2,0.8-0.3,2.1-1.3,2.8
		c5.4,2.2,10.9,3.7,16.5,5.2c2.5,0.5,4.9,1.1,7.3,1.7C3288.8,204.9,3293.5,206.1,3298.1,207.1z"/>
	<path class="elementor-shape-fill ha-shape-divider" d="M3307.4,208.6c-1.4-0.5-2.9-0.9-4.3-1.4c-0.7,0.2-1.5,0.3-2.2,0.4C3303.1,207.9,3305.2,208.3,3307.4,208.6z"/>
	<path class="elementor-shape-fill ha-shape-divider" d="M3342.8,210.5c9.7-1.4,19.2-3.7,28.8-6c-0.6-0.2-1.2-0.3-1.7-0.5c-2.1,0.6-4.2,1.1-6.3,1.6c-11.5,2.7-23.3,4.4-35.1,4.9
		c-4.1,0.2-8,0.1-12-0.1c0.8,0.2,1.6,0.4,2.4,0.6C3326.8,211.6,3334.8,211.7,3342.8,210.5z"/>
	<path class="elementor-shape-fill ha-shape-divider" d="M3356.1,206.3c4.1-0.8,8.2-1.8,12.2-2.9c-3-1-4.8-1.6-4.8-1.6c0-0.6,0-1.3,0.1-1.9c-0.2-0.1-0.5-0.1-0.7-0.1
		c-12.4-0.9-24.6,0.8-36.7,3.1c-6.9,1.3-13.9,2.8-21,3.9c2.4,0.8,4.9,1.6,7.4,2.3c2.3,0.2,4.5,0.3,6.8,0.4
		C3331.6,210,3343.9,208.6,3356.1,206.3z"/>
	<path class="elementor-shape-fill ha-shape-divider" d="M3944.8,121.5l-2.3-4c-0.8,0.8-0.9,1.9-0.4,2.9S3943.7,121.8,3944.8,121.5z"/>
	<path class="elementor-shape-fill ha-shape-divider" d="M3965.7,117.7l-2.3,4c0.1,0.1,0.3,0.1,0.5,0.1c0.8,0,1.6-0.4,2.1-1.2c0.3-0.5,0.4-1.2,0.2-1.8
		C3966.1,118.4,3965.9,118.1,3965.7,117.7z"/>
	<path class="elementor-shape-fill ha-shape-divider" d="M3946.3,152.9c-0.1-0.4-0.3-0.7-0.6-1l-2.3,4c0.1,0.1,0.3,0.1,0.5,0.1c0.2,0,0.4,0,0.6-0.1c0.6-0.1,1.2-0.5,1.5-1.1
		C3946.3,154.2,3946.4,153.5,3946.3,152.9z"/>
	<path class="elementor-shape-fill ha-shape-divider" d="M3946.7,141.4l-3.4,1.9c2.1,3.2,5.7,5.5,9.8,5.7l0-4.1l-2.5-2.7L3946.7,141.4z"/>
	<path class="elementor-shape-fill ha-shape-divider" d="M3942.2,155.3l2.3-4c-0.4-0.1-0.8-0.1-1.2,0c-0.6,0.1-1.2,0.5-1.5,1.1c-0.4,0.5-0.5,1.2-0.3,1.8
		C3941.6,154.5,3941.8,154.9,3942.2,155.3z"/>
	<path class="elementor-shape-fill ha-shape-divider" d="M3946.3,132.7l-3.4-2c-0.9,1.7-1.4,3.6-1.4,5.7c0,2,0.5,3.8,1.3,5.5l3.6-2l1-3.5L3946.3,132.7z"/>
	<path class="elementor-shape-fill ha-shape-divider" d="M3953.2,127.9l0-4c-4,0.2-7.5,2.4-9.6,5.5l3.5,2.1l3.6-0.8L3953.2,127.9z"/>
	<path class="elementor-shape-fill ha-shape-divider" d="M3971.4,136l4.6,0.1c-0.1-0.4-0.3-0.7-0.6-1c-0.4-0.4-1-0.7-1.7-0.7l0,0c-0.6,0-1.2,0.2-1.7,0.7
		C3971.7,135.4,3971.5,135.8,3971.4,136z"/>
	<path class="elementor-shape-fill ha-shape-divider" d="M3945.9,120.9c0.8-0.8,0.9-1.9,0.4-2.9c-0.5-1-1.6-1.4-2.6-1.2L3945.9,120.9z"/>
	<path class="elementor-shape-fill ha-shape-divider" d="M3216.6,149.5l18.7-6.3l-26.9-3.4l7.8,9.7C3216.3,149.6,3216.5,149.6,3216.6,149.5z"/>
	<path class="elementor-shape-fill ha-shape-divider" d="M3931.8,135.7l4.6,0c-0.3-1-1.2-1.7-2.3-1.7C3933,134,3932.1,134.7,3931.8,135.7z"/>
	<path class="elementor-shape-fill ha-shape-divider" d="M3961.5,120c0.1,0.4,0.3,0.7,0.6,1l2.3-4c-0.4-0.1-0.8-0.1-1.2,0c-0.6,0.1-1.2,0.5-1.5,1.1l0,0
		C3961.4,118.7,3961.3,119.3,3961.5,120z"/>
	<path class="elementor-shape-fill ha-shape-divider" d="M3960.9,131.5l3.5-2c-2.1-3.2-5.6-5.4-9.7-5.6l0,4l2.6,2.8L3960.9,131.5z"/>
	<path class="elementor-shape-fill ha-shape-divider" d="M3961.9,152c-0.8,0.8-0.9,1.9-0.4,2.9c0.4,0.8,1.3,1.2,2.1,1.2c0.2,0,0.3-0.1,0.5-0.1L3961.9,152z"/>
	<path class="elementor-shape-fill ha-shape-divider" d="M3570.8,224.7c0.6-2.4,1.8-4.3,3.2-5.8c-4-2.4-8.1-4.6-12.4-6.2c-3.8-1.4-7.8-2.4-11.8-2.9c6.3,5,12.2,10.7,19.4,14.3
		C3569.7,224.2,3570.3,224.4,3570.8,224.7z"/>
	<path class="elementor-shape-fill ha-shape-divider" d="M3542.5,203.4c10.8,3.3,21.3,7.9,31.2,13.4c-0.7-3.1-4.7-5.7-8.7-10.4c-0.3-0.4-0.6-0.9-0.8-1.4
		C3557.2,203.8,3549.9,203.4,3542.5,203.4z"/>
	<path class="elementor-shape-fill ha-shape-divider" d="M3975.9,137.7l-4.6-0.1c0.1,0.4,0.3,0.7,0.6,1c0.5,0.4,1.1,0.7,1.8,0.7l0,0C3974.8,139.3,3975.7,138.6,3975.9,137.7z"/>
	<path class="elementor-shape-fill ha-shape-divider" d="M3936.4,137.2l-4.6,0c0.3,1,1.2,1.7,2.3,1.7C3935.2,138.9,3936.2,138.2,3936.4,137.2z"/>
	<path class="elementor-shape-fill ha-shape-divider" d="M3963,151.3l2.3,4c0.3-0.3,0.5-0.6,0.6-1c0.2-0.7,0.1-1.3-0.2-1.9C3965.2,151.6,3964.1,151.1,3963,151.3z"/>
	<path class="elementor-shape-fill ha-shape-divider" d="M3432,207c-1.7,0-3.3,0.1-5,0.1c0.1,0.2,0.2,0.4,0.3,0.6c11.9,0.8,23.9,1.2,35.8,0.8c-4.4-0.7-8.8-1.5-13.2-2.3
		C3444,206.8,3438,207.1,3432,207z"/>
	<path class="elementor-shape-fill ha-shape-divider" d="M4079.5,385.8L4080.5,0H3078.4c-1.9,1.9-5.6,6.7-7.3,8.6c2.3,0.3,4.6,0.5,7.1,0.8c-3.5,3.2-6.5,6.2-9.2,9.3
		c1.2,0.1,2.4,0.3,3.7,0.4c-3.6,2.9-6.6,5.6-9.2,8.6c2.1,0.2,4.3,0.4,6.8,0.7c-6.8,6.1-11,11.4-15.5,20.1
		c-4.6-8.9-8.7-14.8-15.3-20.1c2.6-0.3,4.9-0.5,7.1-0.7c-2.7-3.2-5.7-6-9.4-8.6c1.5-0.1,2.9-0.3,4.2-0.4c-2.8-3.3-5.9-6.3-9.6-9.2
		c2.6-0.3,5.1-0.6,7.5-0.8c-1.7-1.9-3.5-6.8-5.4-8.6h-22.5c-3,2.9-7,8.8-9.6,11.8c2,0.2,4.1,0.4,6.2,0.6c-6,4.8-10.8,9.4-15.2,14.3
		c3.5,0.2,7.2,0.6,11.3,1.1c-11.3,10.2-18.3,19-25.6,33.3c-7.7-14.8-14.3-24.7-25.4-33.5c4.2-0.5,8-0.9,11.7-1.2
		c-4.5-5.3-9.5-10-15.6-14.3c2.4-0.3,4.7-0.5,6.9-0.7c-2.6-3.1-5.4-7.7-8.4-11.5H2915c-1.1,2.1-2.1,4.9-3.1,6
		c4.9,0.5,10,1.1,15.5,1.7c-7.7,7-14.3,13.6-20.4,20.3c2.6,0.2,5.4,0.5,8.2,0.8c-7.8,6.4-14.3,12.5-20.2,18.9
		c4.7,0.4,9.6,0.9,15,1.5c-14.9,13.6-24.2,25.2-33.9,44.2c-10-19.6-19-32.8-33.7-44.4c5.6-0.7,10.7-1.2,15.6-1.6
		c-6-7-12.6-13.1-20.6-19c3.1-0.3,6.2-0.6,9.1-0.9c-6.3-7.3-13.2-14-21.1-20.4c5.8-0.7,11.3-1.3,16.6-1.8c-0.9-1.1-2.1-4.6-3.1-5.7
		h-8.8c-3.6,3.3-7.7,9-10.9,12.3c2.8,0.3,5.8,0.6,8.8,1c-6.6,6-12.4,11.6-17.6,17.5c4,0.3,8.1,0.8,12.4,1.3
		c-6,5.5-11.3,10.8-16.1,16.2c2.1,0.2,4.2,0.5,6.5,0.7c-6.2,5.1-11.4,9.9-16,15.1c3.8,0.3,7.7,0.7,12,1.2
		c-11.9,10.8-19.2,20-27,35.2c-8-15.6-15.1-26.1-26.8-35.4c4.4-0.6,8.5-1,12.4-1.3c-4.8-5.6-10-10.5-16.5-15.1
		c2.5-0.2,5-0.5,7.3-0.7c-5-5.8-10.5-11.1-16.9-16.1c4.6-0.5,9-1,13.2-1.4c-5.4-6.2-11.4-12-18.4-17.5c3.4-0.4,6.6-0.8,9.8-1.1
		c-2.7-2.8-5.5-5.4-8.4-8c-4.7,4.4-9.1,8.8-13.3,13.1c3.5,0.4,7.1,0.8,10.8,1.2c-8.1,7.3-15.1,14.3-21.6,21.3
		c4.8,0.4,9.8,1,15.1,1.6c-7.4,6.7-13.9,13.2-19.8,19.7c2.6,0.2,5.2,0.5,8,0.8c-7.7,6.3-14,12.1-19.7,18.4c4.5,0.4,9.3,0.9,14.6,1.5
		c-14.5,13.2-23.5,24.5-33,43c-9.8-19.1-18.5-31.9-32.8-43.2c5.5-0.6,10.4-1.1,15.2-1.5c-5.8-6.8-12.2-12.8-20-18.5
		c3.1-0.3,6-0.6,8.9-0.9c-6.1-7.1-12.8-13.6-20.5-19.8c5.6-0.6,11-1.2,16.1-1.7c-6.7-7.6-14-14.6-22.4-21.3c4.2-0.5,8.1-0.9,12-1.3
		c-5-5.2-10.4-10.1-16.3-14.9c-4.7,4.6-9.2,9.1-13.6,13.7c5.3,0.5,10.8,1.1,16.4,1.8c-12.3,11.1-23.1,21.5-32.8,32.4
		c7.3,0.7,14.9,1.5,23,2.6c-11.3,10.2-21.1,19.9-30,30c3.9,0.4,7.9,0.8,12.1,1.2c-11.7,9.5-21.4,18.3-29.9,28
		c6.9,0.5,14.2,1.3,22.2,2.3c-22.2,20-35.7,37.3-50.2,65.4c-14.9-29-28.2-48.5-49.8-65.6c8.2-1,15.8-1.7,23-2.2
		c-8.8-10.4-18.5-19.6-30.5-28.1c4.7-0.6,9.2-1,13.5-1.4c-9.2-10.7-19.3-20.7-31.2-30c8.6-1,16.7-1.9,24.5-2.5
		c-10.1-11.6-21.2-22.3-34.1-32.4c6.3-0.7,12.3-1.4,18.2-1.9c-4.5-4.7-9.1-9.1-14-15.1l-4.6,0c-6.8,8.1-13.3,14.5-19.6,21
		c7.4,0.7,15,1.6,22.9,2.6c-17.2,15.4-32.2,30.1-45.7,45.2c10.2,0.9,20.8,2.2,32,3.5c-15.7,14.3-29.4,27.8-41.8,41.9
		c5.4,0.5,11.1,1.1,16.9,1.7c-16.3,13.3-29.7,25.6-41.6,39.1c9.7,0.8,19.9,1.9,31,3.2c-30.9,27.9-49.7,52-70,91.1
		c-20.8-40.5-39.2-67.6-69.4-91.5c11.5-1.3,22-2.3,32.1-3.1c-12.3-14.5-25.8-27.2-42.5-39.1c6.5-0.7,12.7-1.3,18.8-1.8
		c-12.9-15.1-27-28.9-43.6-41.9c12-1.5,23.3-2.6,34.2-3.6c-14.1-16.1-29.6-31-47.6-45.1c8.8-1,17.2-2,25.4-2.7
		c-6.4-6.6-13-13-19.9-19.3l-0.3,0c-18.1,16.4-34.8,32.4-50.1,48.4c10,1,20.4,2.2,31.1,3.5c-23.4,20.8-43.7,40.9-62.2,61.4
		c13.9,1.3,28.3,3,43.6,4.8c-21.5,19.3-40.1,37.9-57,56.9c7.4,0.7,15.1,1.5,23,2.4c-22.2,17.9-40.4,34.8-56.7,53.1
		c13.2,1,27.1,2.5,42.2,4.3c-42.1,38-67.8,70.7-95.3,124c-28.3-55.1-53.3-92-94.5-124.6c15.6-1.9,30-3.2,43.7-4.3
		c-16.6-19.8-35.1-37.1-57.8-53.3c8.9-1,17.4-1.8,25.6-2.5c-17.4-20.4-36.7-39.2-59.2-57c16.3-1.9,31.7-3.5,46.5-4.9
		c-19.1-22.1-40.3-42.2-64.7-61.5c11.9-1.5,23.4-2.6,34.5-3.8c-16.2-16.8-33.7-32.8-53.2-48.3l-7.9,0c-10.7,9.9-20.7,19.5-30,29.3
		c7.7,0.8,15.6,1.6,23.8,2.7c-17.8,15.9-33.4,31.3-47.5,47c10.6,1,21.6,2.3,33.3,3.7c-16.4,14.8-30.6,28.9-43.5,43.5
		c5.7,0.6,11.5,1.2,17.6,1.8c-16.9,13.7-30.9,26.6-43.3,40.6c10,0.8,20.6,1.9,32.2,3.3c-32.2,28.9-51.8,54-72.8,94.7
		c-21.7-42-40.8-70.2-72.2-95.1c12-1.5,22.9-2.5,33.4-3.3c-12.8-15.1-26.8-28.4-44.2-40.7c6.8-0.8,13.3-1.4,19.6-1.9
		c-13.4-15.6-28.1-30-45.3-43.5c12.4-1.5,24.2-2.6,35.5-3.7c-14.7-16.8-30.8-32.3-49.5-46.9c9.1-1.1,17.9-2,26.4-2.9
		c-9.7-10.1-18.9-18.8-30.1-28.2h-36.8c-4.8,4.6-8.9,8-13.3,12.6c5.3,0.5,10.8,1.1,16.4,1.8c-12.3,11.1-23.1,21.5-32.8,32.4
		c7.3,0.7,14.9,1.5,23,2.6c-11.3,10.2-21.1,19.9-30,30c3.9,0.4,7.9,0.8,12.1,1.2c-11.7,9.5-21.4,18.3-29.9,28
		c6.9,0.5,14.2,1.3,22.2,2.3c-22.2,20-35.7,37.3-50.2,65.4c-14.9-29-28.2-48.5-49.8-65.6c8.2-1,15.8-1.7,23-2.2
		c-8.8-10.4-18.5-19.6-30.5-28.1c4.7-0.6,9.2-1,13.5-1.4c-9.2-10.7-19.3-20.7-31.2-30c8.6-1,16.7-1.9,24.5-2.5
		c-10.1-11.6-21.2-22.3-34.1-32.4c6.3-0.7,12.3-1.4,18.2-1.9c-4.5-4.7-7.5-7.7-12.4-12.1h-36.5c-6.3,5.7-10.5,9.8-15.8,15.3
		c3.5,0.4,7.1,0.8,10.8,1.2c-8.1,7.3-15.1,14.3-21.6,21.3c4.8,0.4,9.8,1,15.1,1.6c-7.4,6.7-13.9,13.2-19.8,19.7
		c2.6,0.2,5.2,0.5,8,0.8c-7.7,6.3-14,12.1-19.7,18.4c4.5,0.4,9.3,0.9,14.6,1.5c-14.5,13.2-23.5,24.5-33,43
		c-9.8-19.1-18.5-31.9-32.8-43.2c5.5-0.6,10.4-1.1,15.2-1.5c-5.8-6.8-12.2-12.8-20-18.5c3.1-0.3,6-0.6,8.9-0.9
		c-6.1-7.1-12.8-13.6-20.5-19.8c5.6-0.6,11-1.2,16.1-1.7c-6.7-7.6-14-14.6-22.4-21.3c4.2-0.5,8.1-0.9,12-1.3
		c-5.7-5.9-9.7-9.8-16.5-15.2h-32.4c-4.8,4.5-7.5,7-11.6,11.3c2.8,0.3,5.8,0.6,8.8,1c-6.6,6-12.4,11.6-17.6,17.5
		c4,0.3,8.1,0.8,12.4,1.3c-6,5.5-11.3,10.8-16.1,16.2c2.1,0.2,4.2,0.5,6.5,0.7c-6.2,5.1-11.4,9.9-16,15.1c3.8,0.3,7.7,0.7,12,1.2
		c-11.9,10.8-19.2,20-27,35.2c-8-15.6-15.1-26.1-26.8-35.4c4.4-0.6,8.5-1,12.4-1.3c-4.8-5.6-10-10.5-16.5-15.1
		c2.5-0.2,5-0.5,7.3-0.7c-5-5.8-10.5-11.1-16.9-16.1c4.6-0.5,9-1,13.2-1.4c-5.4-6.2-11.4-12-18.4-17.5c3.4-0.4,6.6-0.8,9.8-1.1
		c-4.4-4.5-6.7-6.9-11.9-11h-43.4c-3,2.9-3.7,3.7-6.3,6.7c2,0.2,4.1,0.4,6.2,0.6c-6,4.8-10.8,9.4-15.2,14.3
		c3.5,0.2,7.2,0.6,11.3,1.1c-11.3,10.2-18.3,19-25.6,33.3c-7.7-14.8-14.3-24.7-25.4-33.5c4.2-0.5,8-0.9,11.7-1.2
		c-4.5-5.3-9.5-10-15.6-14.3c2.4-0.3,4.7-0.5,6.9-0.7c-2.6-3.1-2.9-3.6-5.9-6.4h-25c-2.3,2.2-1.5,1.9-3.5,4.1
		c2.3,0.2,4.8,0.5,7.4,0.8c-3.7,3.3-6.8,6.4-9.7,9.7c1.2,0.1,2.5,0.3,3.9,0.4c-3.8,3.1-6.8,6-9.6,9.1c2.3,0.2,4.6,0.4,7.2,0.7
		c-7.1,6.4-11.4,12-16.2,21.1c-4.8-9.3-9.1-15.6-16-21.1c2.6-0.4,5.1-0.6,7.4-0.8c-2.9-3.3-6-6.3-9.9-9c1.6-0.1,3-0.3,4.4-0.4
		c-3-3.5-6.3-6.7-10.1-9.7c2.8-0.4,5.4-0.7,7.9-0.9c-2-2.3-1.4-1.8-3.7-3.9H632.3c0.1,1.7,0,0.2-0.4,2.7c0,0,2.6,18.4-6.6,34.6
		c-6.1,10.8-16.2,21.8-23.9,28.4c3.1,2.9,6.2,5.8,8.7,9.3c2.1,3,3.8,6.3,4.8,9.8c1.2,4.1,1.6,8.4,2.3,12.5c1.1,6.8,2,13.8,1.1,20.7
		c-0.4,3.7-1,7.5-2.3,11c-0.7,7.8,3.4,1.8,13.2,6c9.8,4.2,6.6,11,6.6,11c-7.4-3.1-16.6,1.4-21.8-6.4c-0.2,0.7-0.6,1.2-1.1,1.7
		c0.8,0.5,1.7,1,2.6,1.4c1,0.5,2,0.8,3.1,1.2c2.1,0.7,4.5,1.3,6.9,2.3c2.3,0.9,4.6,2.1,6.8,3.4c2.2,1.3,4.3,2.8,6.2,4.5
		c1,0.8,1.9,1.7,2.8,2.6c0.9,0.9,1.8,1.9,2.6,2.9c0.7,0.9,1.3,1.8,1.9,2.8c0.9,0.2,1.8,0.4,2.7,0.7c1.3,0.4,2.5,0.8,3.7,1.4
		c2.4,1,4.7,2.5,6.7,4.4s3.6,4.1,4.8,6.4c1.1,2.3,1.9,4.8,2.3,7.3c0.1,0.1,0,0.2-0.1,0.3c-0.1,0.1-0.3,0-0.4-0.1
		c-1.3-2.1-2.7-4.1-4.3-5.8c-1.6-1.7-3.3-3.2-5.2-4.4c-1.9-1.2-3.9-2.1-6-2.9c-0.5-0.2-1-0.4-1.5-0.6c0.2,0.6,0.3,1.3,0.3,1.9
		c0.1,1.5,0,3-0.3,4.5c-0.5,2.3-1.5,4.4-2.8,6.3l0,0c0.9,0.9,1.7,1.9,2.4,2.9c0.7,1,1.4,2,2,3.2c1.3,2.2,2.1,4.8,2.5,7.4
		c0.4,2.6,0.3,5.2-0.3,7.7c-0.5,2.5-1.5,4.8-2.7,6.9c-0.1,0-0.2,0.1-0.3,0.1c-0.2,0-0.3-0.1-0.3-0.3c0.2-2.4,0.3-4.7,0.2-7
		c-0.1-2.2-0.5-4.4-1.2-6.4c-0.7-2-1.7-3.8-2.8-5.7c-0.6-0.9-1.2-1.9-1.8-2.8c-0.5-0.7-1-1.4-1.4-2.1c-1.1,0.9-2.3,1.8-3.5,2.6
		c-2.6,1.6-5.3,2.7-8,3.7c0.1,0.5,0,1-0.2,1.4l0,0.1c-0.6,1.3-1.2,2.5-1.7,3.7c-0.5,1.3-1,2.5-1.3,3.9c-0.3,1.3-0.5,2.7-0.6,4.2
		c-0.1,1.5,0,3,0.1,4.6c0,0.1,0,0.1-0.1,0.2c-0.2,0-0.3,0-0.4-0.1c-1-1.3-1.7-2.8-2.2-4.4s-0.8-3.3-0.8-5c0-1.7,0.3-3.4,0.8-5.1
		c0.2-0.5,0.4-1,0.6-1.5c-2.2,0.7-4.4,1.5-6.4,2.4c-2,1-3.9,2.1-5.5,3.5c-0.8,0.7-1.5,1.5-2.1,2.4c-0.6,0.9-1.1,1.9-1.4,2.9
		c-0.7,2-0.7,4.4,0.2,6.5l-0.5,0.3c-0.8-1-1.3-2.1-1.6-3.4c-0.3-1.3-0.4-2.6-0.2-3.9c0.2-1.3,0.6-2.6,1.1-3.8
		c0.5-1.2,1.3-2.3,2.1-3.3c1.7-2,3.7-3.6,5.9-4.9c1.1-0.7,2.2-1.3,3.3-1.8c1.1-0.5,2.2-1,3.3-1.5c4.4-1.9,8.7-3.7,12.2-6.1
		c3.4-2.4,6.2-5.8,6.9-9.3c0.3-1.7,0.2-3.5-0.4-5.3c-0.6-1.8-1.6-3.6-2.9-5.3c-1.3-1.7-2.9-3.3-4.5-4.8c-1.7-1.5-3.4-2.8-5.3-4
		c-0.2-0.1-0.3-0.2-0.5-0.3c-0.3,0.7-0.5,1.3-0.8,1.9c-0.5,1.3-1,2.5-1.3,3.9c-0.3,1.3-0.5,2.7-0.6,4.2c-0.1,1.5,0,3,0.1,4.6
		c0,0.1,0,0.1-0.1,0.2c-0.2,0-0.3,0-0.4-0.1c-1-1.3-1.7-2.8-2.2-4.4c-0.5-1.6-0.8-3.3-0.8-5c0-1.7,0.3-3.4,0.8-5.1
		c0.3-0.9,0.6-1.7,1.1-2.5c-0.4-0.2-0.8-0.4-1.2-0.6c-2-0.9-4.3-1.6-6.6-2.5c-1.1-0.5-2.3-1-3.5-1.6c-1.2-0.6-2.4-1.3-3.5-2.2
		c-0.8-0.7-1.6-1.4-2.3-2.2c-1.9,0.3-3.5,0.2-3.5,0.2c-0.6,0.4-1.1,0.8-1.7,1.1c-0.4,1.5-1,2.9-1.7,4.1c-0.5,0.9-1,1.6-1.6,2.3
		c0.3,1.3,0.5,2.6,0.9,3.9c0.4,1.4,0.9,2.8,1.5,4.2c0.6,1.4,1.3,2.8,2.2,4.1s1.9,2.6,3,3.9c0.1,0.1,0.1,0.2,0.1,0.3
		c0,0.2-0.2,0.2-0.3,0.2c-1.6-0.6-3.2-1.4-4.6-2.5c-1.4-1-2.7-2.3-3.8-3.8c-1.1-1.4-2-3.1-2.6-4.8c-0.1-0.5-0.3-0.9-0.4-1.4
		c-1.2,0.9-2.5,1.8-3.7,2.5c-1.3,0.7-2.6,1.4-3.8,2.1c-0.1,2.5-0.2,5-0.2,7.5c0.1,2.6,0.2,5.2,0.7,7.7l0.4,1.9
		c0.2,0.6,0.3,1.3,0.5,1.9c0.2,0.7,0.4,1.3,0.6,1.9s0.4,1.2,0.7,1.8c1,2.5,2.3,4.8,3.8,7.2c0.1,0.1,0.1,0.2,0,0.3s-0.3,0.1-0.4,0
		c-2.2-1.8-4.1-3.8-5.8-6.2c-1.7-2.4-3.1-5-4-7.8c-1-2.8-1.5-5.7-1.7-8.6c0-1.6,0-3.2,0.1-4.8c-3.2,1.7-6.2,3.5-9.2,5.5l0,0.1
		c-0.2,2-0.6,3.9-0.7,5.8c-0.2,1.9-0.2,3.8,0.1,5.7c0.2,1.9,0.8,3.8,1.5,5.6c0.8,1.8,1.7,3.6,2.8,5.4c0.1,0,0.1,0.1,0,0.2
		c-0.1,0.1-0.2,0.1-0.3,0c-1.7-1.4-3.1-2.9-4.4-4.7c-1.3-1.7-2.3-3.8-2.9-5.9c-0.7-2.1-1-4.4-0.9-6.6c0-0.7,0.1-1.5,0.2-2.3
		c-0.1,0.1-0.3,0.2-0.4,0.3c-2.3,1.8-4.5,3.9-6.4,6.1c0,1.8-0.1,3.5-0.1,5.2c0,1.7,0.1,3.5,0.3,5.2c0.3,1.7,0.6,3.5,1.2,5.2
		s1.2,3.4,2,5.2c0.1,0.1,0.1,0.2,0,0.3c-0.1,0.1-0.2,0.1-0.3,0c-1.4-1.3-2.6-2.8-3.7-4.5c-1.1-1.7-2-3.5-2.6-5.4
		c-0.6-1.6-0.9-3.2-1.1-4.9c-0.7,1.3-1.3,2.6-1.8,4c-1.1,3.2-1.7,6.8-1.5,10.3c0.1,1.7,0.4,3.5,0.9,5.2c0.5,1.7,1.3,3.3,2.2,4.9
		l-0.4,0.3c-1.2-1.4-2.3-3-3.1-4.7s-1.3-3.6-1.7-5.5c-0.7-3.8-0.6-7.8,0.4-11.6c0.9-3.9,2.7-7.4,4.8-10.7c2.1-3.3,4.7-6.2,7.5-8.9
		c1.3-1.3,2.8-2.5,4.2-3.7c-0.9,0-1.8,0-2.7,0c-1.7,0.1-3.4,0.3-5.1,0.6c-1.7,0.4-3.4,0.8-5.2,1.4c-0.1,0-0.2,0-0.3-0.1
		c-0.1-0.1-0.1-0.3,0-0.4c1.3-1.4,2.8-2.5,4.5-3.5c1.7-1,3.5-1.7,5.4-2.2c1.9-0.5,3.9-0.7,5.9-0.7c0.5,0,1,0.1,1.5,0.1
		c0.5,0,1,0.1,1.5,0.2c0.2,0,0.4,0.1,0.6,0.1c2.7-1.9,5.3-3.6,7.9-5.3c1.5-1,3.1-2,4.5-3c1.4-1,2.7-2,3.8-3.1
		c0.4-0.3,0.8-0.7,1.1-1.1c-4.2-0.2-7.9-1-11,1.2c1.3-9.6,11.6-10.8,11.6-10.8c-0.8-2.8-5.3-5.1-11-4.9c-5.7,0.2-6-2.9-6-2.9
		c-1.8-7.9,3.2-8.2,3.2-8.2c1.1-3.9,4.9-2.6,4.9-2.6c4.2,1.2,11,2.1,12.3-3.4c0.4-1.4,0.2-3,0-4.5c-1-5.8-3.1-9.3-9.2-9.4
		c-5.5-0.1-10.9,1.5-16.5,1.2c-11.3-0.6-24.4-1.9-34.5-0.6c-6.8,0.9-13.6,2-20.4,3.2c-15.3,3-24.4-1.6-29.7-6.7
		c-3-0.5-6.9-4.9-8.5-7c-2.7-3.5-4.3-7.9-4.4-12.3c-0.1-5.2,1.7-10.3,3.7-15.2c0.1-0.4,0.7-0.4,0.9-0.1c0.5,0.9,1.4,2.3,2.8,4.8
		c0.5,1,1,1.9,1.5,2.9c6.6-11.1,19.4-13.2,6.3-32.1c-1.5-2.1-1.8-4.8-0.9-7.2c3.9-10,5.9-24.3,6.8-31.7C487.2,0,0,0,0,0v380
		L4079.5,385.8z M148.1,246.4c0-1.2,0.9-2.1,2.1-2.1s2.1,0.9,2.1,2.1c0,1.2-0.9,2.1-2.1,2.1C149.1,248.5,148.1,247.6,148.1,246.4z
		 M144.8,241.5c0-1.4,1.2-2.6,2.6-2.6c1.4,0,2.6,1.2,2.6,2.6c0,1.4-1.2,2.6-2.6,2.6C146,244.1,144.9,242.9,144.8,241.5z
		 M141.1,239.3l1.3-5.2c0.1-0.4,0.4-0.6,0.8-0.6c0.1,0,0.1,0,0.2,0l5.3,1.3c0.4,0.1,0.7,0.5,0.6,0.9c-0.1,0.4-0.5,0.7-0.9,0.6
		l-4.5-1.1l-1.1,4.5c-0.1,0.4-0.5,0.7-0.9,0.6C141.5,240.2,141.2,239.7,141.1,239.3z M127.9,235.3l-4.5,1.1
		c-0.4,0.1-0.8-0.2-0.9-0.6c-0.1-0.4,0.2-0.8,0.6-0.9l5.2-1.3c0.1,0,0.1,0,0.2,0c0.4,0,0.7,0.2,0.8,0.6l1.3,5.2
		c0.1,0.4-0.2,0.8-0.6,0.9c-0.4,0.1-0.8-0.2-0.9-0.6L127.9,235.3z M124.3,244.1c-1.4,0-2.6-1.2-2.6-2.6c0-1.4,1.2-2.6,2.6-2.6
		s2.6,1.2,2.6,2.6C126.9,242.9,125.7,244.1,124.3,244.1z M119.4,246.4c0-1.2,0.9-2.1,2.1-2.1c1.2,0,2.1,0.9,2.1,2.1
		c0,1.2-0.9,2.1-2.1,2.1C120.3,248.5,119.4,247.6,119.4,246.4z M123.8,197.3c0,1.2-0.9,2.1-2.1,2.1c-1.2,0-2.1-0.9-2.1-2.1
		c0-1.2,0.9-2.1,2.1-2.1C122.9,195.2,123.8,196.2,123.8,197.3z M127.1,202.3c0,1.4-1.2,2.6-2.6,2.6s-2.6-1.2-2.6-2.6
		c0-1.4,1.2-2.6,2.6-2.6C125.9,199.7,127.1,200.8,127.1,202.3z M130.8,204.5l-1.3,5.2c-0.1,0.4-0.4,0.6-0.8,0.6c-0.1,0-0.1,0-0.2,0
		l-5.2-1.3c-0.4-0.1-0.7-0.5-0.6-0.9c0.1-0.4,0.5-0.7,0.9-0.6l4.5,1.1l1.1-4.5c0.1-0.4,0.5-0.7,0.9-0.6
		C130.5,203.6,130.8,204,130.8,204.5z M143.9,208.6l4.7-1.2c0.4-0.1,0.8,0.2,0.9,0.6c0.1,0.4-0.2,0.8-0.6,0.9l-5.3,1.3
		c-0.1,0-0.1,0-0.2,0c-0.4,0-0.7-0.2-0.8-0.6l-1.3-5.2c-0.1-0.4,0.2-0.8,0.6-0.9c0.4-0.1,0.8,0.2,0.9,0.6L143.9,208.6z M147.7,199.6
		c1.4,0,2.6,1.2,2.6,2.6c0,1.4-1.2,2.6-2.6,2.6s-2.6-1.2-2.6-2.6S146.2,199.7,147.7,199.6z M152.5,197.4c0,1.2-0.9,2.1-2.1,2.1
		s-2.1-0.9-2.1-2.1c0-1.2,0.9-2.1,2.1-2.1C151.6,195.3,152.5,196.3,152.5,197.4z M169.9,235.8l-4.5,1.2l3.9,2.2
		c0.4,0.2,0.5,0.7,0.3,1c-0.2,0.4-0.7,0.5-1,0.3l-3.9-2.2l1.2,4.5c0.1,0.4-0.1,0.8-0.5,0.9c-0.4,0.1-0.8-0.1-0.9-0.5l-1.6-5.8
		l-3.1-1.7l1.2,4.5c0.1,0.4-0.1,0.8-0.5,0.9c-0.4,0.1-0.8-0.1-0.9-0.5l-1.6-5.8l-3.1-1.7l1.2,4.5c0.1,0.4-0.1,0.8-0.5,0.9
		c-0.4,0.1-0.8-0.1-0.9-0.5l-1.6-5.8l-4.8-2.7l-6.7,1.6l-4.6,4.9l0,5.7l4.3,4.3c0.3,0.3,0.3,0.7,0,1c-0.3,0.3-0.7,0.3-1,0l-3.3-3.3
		l0,3.5l4.3,4.3c0.3,0.3,0.3,0.7,0,1c-0.3,0.3-0.7,0.3-1,0l-3.3-3.3l0,3.5l4.3,4.3c0.3,0.3,0.3,0.7,0,1c-0.3,0.3-0.7,0.3-1,0
		l-3.3-3.3l0,4.4c0,0.4-0.3,0.7-0.7,0.7s-0.7-0.3-0.7-0.7l0-4.4l-3.3,3.3c-0.3,0.3-0.7,0.3-1,0c-0.3-0.3-0.3-0.7,0-1l4.3-4.3l0-3.5
		l-3.3,3.3c-0.3,0.3-0.7,0.3-1,0c-0.3-0.3-0.3-0.7,0-1l4.3-4.3l0-3.5l-3.3,3.3c-0.3,0.3-0.7,0.3-1,0s-0.3-0.7,0-1l4.3-4.3l0-5.6
		l-4.6-4.9l-6.5-1.5l-4.9,2.9l-1.6,5.9c-0.1,0.4-0.5,0.6-0.9,0.5c-0.4-0.1-0.6-0.5-0.5-0.9l1.2-4.5l-3,1.8l-1.6,5.9
		c-0.1,0.4-0.5,0.6-0.9,0.5c-0.4-0.1-0.6-0.5-0.5-0.9l1.2-4.5l-3,1.8l-1.6,5.9c-0.1,0.4-0.5,0.6-0.9,0.5c-0.4-0.1-0.6-0.5-0.5-0.9
		l1.2-4.5l-3.8,2.2c-0.4,0.2-0.8,0-1-0.3c-0.2-0.4,0-0.8,0.3-1l3.8-2.2l-4.5-1.2c-0.4-0.1-0.6-0.5-0.5-0.9c0.1-0.3,0.4-0.5,0.7-0.5
		c0.1,0,0.1,0,0.2,0l5.9,1.6l3-1.8l-4.5-1.2c-0.4-0.1-0.6-0.5-0.5-0.9c0.1-0.3,0.4-0.5,0.7-0.5c0.1,0,0.1,0,0.2,0l5.9,1.6l3-1.8
		l-4.5-1.2c-0.4-0.1-0.6-0.5-0.5-0.9c0.1-0.3,0.4-0.5,0.7-0.5c0.1,0,0.1,0,0.2,0l5.9,1.6l4.9-2.8l1.9-6.5l-1.9-6.4l-5-2.9l-5.9,1.6
		c-0.4,0.1-0.8-0.1-0.9-0.5c-0.1-0.4,0.1-0.8,0.5-0.9l4.5-1.2l-3-1.7l-5.9,1.6c-0.4,0.1-0.8-0.1-0.9-0.5c-0.1-0.4,0.1-0.8,0.5-0.9
		l4.5-1.2l-3-1.7l-5.9,1.6c-0.4,0.1-0.8-0.1-0.9-0.5c-0.1-0.4,0.1-0.8,0.5-0.9l4.5-1.2l-3.8-2.2c-0.4-0.2-0.5-0.7-0.3-1
		c0.1-0.3,0.4-0.4,0.6-0.4c0.2,0,0.3,0,0.4,0.1l3.8,2.2l-1.2-4.5c-0.1-0.4,0.1-0.8,0.5-0.9c0.1,0,0.1,0,0.2,0c0.3,0,0.6,0.2,0.7,0.5
		l1.6,5.9l3,1.7l-1.2-4.5c-0.1-0.4,0.1-0.8,0.5-0.9c0.1,0,0.1,0,0.2,0c0.3,0,0.6,0.2,0.7,0.5l1.6,5.9l3,1.7l-1.2-4.5
		c-0.1-0.4,0.1-0.8,0.5-0.9c0.1,0,0.1,0,0.2,0c0.3,0,0.6,0.2,0.7,0.5l1.6,5.9l4.9,2.8l6.6-1.6l4.6-4.9l0-5.8l-4.3-4.3
		c-0.3-0.3-0.3-0.7,0-1c0.1-0.1,0.3-0.2,0.5-0.2s0.4,0.1,0.5,0.2l3.3,3.3l0-3.5l-4.3-4.3c-0.3-0.3-0.3-0.7,0-1
		c0.1-0.1,0.3-0.2,0.5-0.2c0.2,0,0.4,0.1,0.5,0.2l3.3,3.3l0-3.5l-4.3-4.3c-0.3-0.3-0.3-0.7,0-1c0.1-0.1,0.3-0.2,0.5-0.2
		s0.4,0.1,0.5,0.2l3.3,3.3l0-4.4c0-0.4,0.3-0.7,0.7-0.7s0.7,0.3,0.7,0.7l0,4.4l3.3-3.3c0.1-0.1,0.3-0.2,0.5-0.2s0.4,0.1,0.5,0.2
		c0.3,0.3,0.3,0.7,0,1l-4.3,4.3l0,3.5l3.3-3.3c0.1-0.1,0.3-0.2,0.5-0.2c0.2,0,0.4,0.1,0.5,0.2c0.3,0.3,0.3,0.7,0,1l-4.3,4.3l0,3.5
		l3.3-3.3c0.1-0.1,0.3-0.2,0.5-0.2s0.4,0.1,0.5,0.2c0.3,0.3,0.3,0.7,0,1l-4.3,4.3l0,5.7l4.6,4.9l6.6,1.6l4.9-2.8l1.6-5.9
		c0.1-0.3,0.4-0.5,0.7-0.5c0.1,0,0.1,0,0.2,0c0.4,0.1,0.6,0.5,0.5,0.9l-1.2,4.5l3-1.7l1.6-5.9c0.1-0.3,0.4-0.5,0.7-0.5
		c0.1,0,0.1,0,0.2,0c0.4,0.1,0.6,0.5,0.5,0.9l-1.2,4.5l3-1.7l1.6-5.9c0.1-0.3,0.4-0.5,0.7-0.5c0.1,0,0.1,0,0.2,0
		c0.4,0.1,0.6,0.5,0.5,0.9l-1.2,4.5l3.8-2.2c0.2-0.1,0.3-0.1,0.4-0.1c0.2,0,0.5,0.2,0.6,0.4c0.2,0.4,0,0.8-0.3,1l-3.8,2.2l4.5,1.2
		c0.4,0.1,0.6,0.5,0.5,0.9c-0.1,0.4-0.5,0.6-0.9,0.5l-5.8-1.6l-3,1.7l4.5,1.2c0.4,0.1,0.6,0.5,0.5,0.9c-0.1,0.4-0.5,0.6-0.9,0.5
		l-5.9-1.6l-3,1.7l4.5,1.2c0.4,0.1,0.6,0.5,0.5,0.9c-0.1,0.4-0.5,0.6-0.9,0.5l-5.9-1.6l-5,2.9l-1.9,6.4l1.9,6.2l5.1,2.9l5.8-1.6
		c0.1,0,0.1,0,0.2,0c0.3,0,0.6,0.2,0.7,0.5c0.1,0.4-0.1,0.8-0.5,0.9l-4.5,1.2l3.1,1.7l5.8-1.6c0.1,0,0.1,0,0.2,0
		c0.3,0,0.6,0.2,0.7,0.5c0.1,0.4-0.1,0.8-0.5,0.9l-4.5,1.2l3.1,1.7l5.8-1.6c0.1,0,0.1,0,0.2,0c0.3,0,0.6,0.2,0.7,0.5
		C170.4,235.7,170.2,236,169.9,235.8z M165.7,224.3c-0.5,0.3-1.1,0.4-1.6,0.2c-0.5-0.1-0.9-0.5-1.2-1c-0.5-1.1-0.1-2.4,0.9-2.9
		c0.3-0.1,0.7-0.2,1-0.2c0.8,0,1.5,0.4,1.9,1.1C167.3,222.5,166.9,223.8,165.7,224.3z M160.4,224.6c-0.6,0.3-1.3,0.4-2,0.2
		c-0.6-0.2-1.2-0.7-1.5-1.3c-0.3-0.6-0.4-1.3-0.2-2c0.2-0.6,0.7-1.2,1.3-1.5c0.4-0.2,0.8-0.3,1.2-0.3c0.3,0,0.6,0,0.8,0.1
		c0.6,0.2,1.2,0.7,1.5,1.3C162.2,222.4,161.7,224,160.4,224.6z M152,222l3.1,3.5c0.3,0.3,0.2,0.8-0.1,1.1c-0.3,0.2-0.8,0.2-1.1-0.1
		l-3.6-4l-0.1-0.1c-0.1-0.3-0.1-0.7,0.2-0.9l4-3.6c0.3-0.2,0.8-0.2,1.1,0.1c0.3,0.3,0.2,0.8-0.1,1.1L152,222z M106.1,221.3
		c0.2-0.5,0.7-0.8,1.2-1c0.2-0.1,0.4-0.1,0.6-0.1c0.4,0,0.7,0,1,0.2c1.1,0.6,1.4,1.9,0.9,2.9c-0.6,1.1-1.9,1.4-2.9,0.9
		C105.8,223.6,105.5,222.3,106.1,221.3z M111.2,220.9c0.3-0.7,0.8-1.1,1.5-1.3c0.3-0.1,0.5-0.1,0.8-0.1c0.4,0,0.8,0.1,1.2,0.3
		c0.7,0.3,1.1,0.8,1.3,1.5c0.2,0.7,0.1,1.4-0.2,2c-0.3,0.7-0.8,1.1-1.5,1.3s-1.4,0.1-2-0.2C111,223.8,110.6,222.2,111.2,220.9z
		 M120.9,222.2l-3.5-3.1c-0.4-0.3-0.4-0.8-0.1-1.1c0.3-0.4,0.8-0.4,1.1-0.1l4,3.6c0.3,0.2,0.4,0.6,0.2,0.9l-0.1,0.1l-3.6,4
		c-0.3,0.4-0.8,0.4-1.1,0.1c-0.4-0.3-0.4-0.8-0.1-1.1L120.9,222.2z M1404.1,233.3c0,0.4-0.3,0.8-0.8,0.8l0,0l-5,0l3.3,3.3
		c0.3,0.3,0.3,0.9,0,1.2c-0.3,0.3-0.9,0.3-1.2,0l-4.4-4.5l-5.9,0l3.3,3.3c0.3,0.3,0.3,0.9,0,1.2c-0.3,0.3-0.9,0.3-1.2,0l-4.4-4.5
		l-5.8,0l3.3,3.3c0.3,0.3,0.3,0.9,0,1.2c-0.3,0.3-0.9,0.3-1.2,0l-4.4-4.5l-2.1,0l3.2,10.5l0.9,0.5l2.6-0.7c0.1,0,0.1,0,0.2,0
		c0.4,0,0.7,0.2,0.8,0.6l0.7,2.6l0.6,0.3l4.6-1.3c0.1,0,0.1,0,0.2,0c0.4,0,0.7,0.2,0.8,0.6l1.3,4.6l0.6,0.3l2.6-0.7
		c0.1,0,0.1,0,0.2,0c0.4,0,0.7,0.2,0.8,0.6l0.8,2.9l0,0l0,0l0,0.1c0,0.1,0,0.1,0,0.2c0,0.1-0.1,0.2-0.1,0.3l0,0l0,0
		c-0.1,0.1-0.1,0.1-0.2,0.2c0,0.1-0.1,0.1-0.1,0.1c0,0.1,0,0.1-0.1,0.1l-3,0.8c-0.4,0.1-0.9-0.2-1-0.6l-0.7-2.6l-0.6-0.3l-4.6,1.3
		c-0.4,0.1-0.9-0.2-1-0.6l-1.3-4.6l-0.6-0.3l-2.6,0.7c-0.4,0.1-0.9-0.2-1-0.6l-0.7-2.6l-0.7-0.4l-10.9,2.6l0.9,1.6l6.1,1.7
		c0.5,0.1,0.7,0.6,0.6,1c-0.1,0.5-0.6,0.7-1,0.6l-4.5-1.2l2.9,5.1l6.1,1.7c0.5,0.1,0.7,0.6,0.6,1c-0.1,0.5-0.6,0.7-1,0.6l-4.5-1.2
		l2.9,5.1l6.1,1.7c0.5,0.1,0.7,0.6,0.6,1c-0.1,0.5-0.6,0.7-1,0.6l-4.5-1.2l2.5,4.3c0.2,0.4,0.1,0.9-0.3,1.1
		c-0.4,0.3-0.9,0.1-1.1-0.3l-2.5-4.3l-1.2,4.5c-0.1,0.5-0.6,0.7-1,0.6c-0.5-0.1-0.7-0.6-0.6-1l1.7-6.1l-2.9-5.1l-1.2,4.5
		c-0.1,0.5-0.6,0.7-1,0.6c-0.5-0.1-0.7-0.6-0.6-1l1.7-6.1l-2.9-5.1l-1.2,4.5c-0.1,0.5-0.6,0.7-1,0.6c-0.5-0.1-0.7-0.6-0.6-1l1.7-6.1
		l-0.9-1.6l-7.5,8l0,0.9l1.9,1.9c0.3,0.4,0.3,0.9,0,1.2l-1.9,1.9l0,0.7l3.4,3.4c0.3,0.4,0.3,0.9,0,1.2l-3.4,3.4l0,0.7l1.9,1.9
		c0.3,0.4,0.3,0.9,0,1.2l-2.2,2.2l0,0l0,0c0,0.1-0.1,0.1-0.1,0.1c-0.1,0-0.1,0.1-0.2,0.1c-0.2,0.1-0.4,0.1-0.6,0l-0.1-0.1
		c0-0.1-0.1-0.1-0.1-0.1l0,0l0,0l-2.2-2.2c-0.3-0.4-0.3-0.9,0-1.2l1.9-1.9l0-0.7l-3.4-3.4c-0.3-0.4-0.3-0.9,0-1.2l3.4-3.4l0-0.7
		l-1.9-1.9c-0.3-0.4-0.3-0.9,0-1.2l1.9-1.9l0-0.9l-7.6-8.1l-0.9,1.6l1.6,6.1c0.1,0.4-0.2,0.9-0.6,1c-0.4,0.1-0.9-0.1-1-0.6l-1.2-4.5
		l-2.9,5.1l1.6,6.1c0.1,0.4-0.2,0.9-0.6,1c-0.4,0.1-0.9-0.1-1-0.6l-1.2-4.5l-2.9,5.1l1.6,6.1c0.1,0.4-0.2,0.9-0.6,1
		c-0.4,0.1-0.9-0.1-1-0.6l-1.2-4.5l-2.5,4.3c-0.2,0.4-0.7,0.5-1.1,0.3c-0.4-0.2-0.5-0.7-0.3-1.1l2.5-4.3l-4.5,1.2
		c-0.4,0.1-0.9-0.1-1-0.6c-0.1-0.4,0.2-0.9,0.6-1l6.1-1.6l2.9-5.1l-4.5,1.2c-0.4,0.1-0.9-0.1-1-0.6c-0.1-0.4,0.2-0.9,0.6-1l6.1-1.6
		l2.9-5.1l-4.5,1.2c-0.4,0.1-0.9-0.1-1-0.6c-0.1-0.4,0.2-0.9,0.6-1l6.1-1.6l0.9-1.6l-10.9-2.6l-0.6,0.4l-0.7,2.6
		c-0.1,0.5-0.6,0.7-1,0.6l-2.6-0.7l-0.6,0.3l-1.3,4.6c-0.1,0.5-0.6,0.7-1,0.6l-4.6-1.3l-0.6,0.3l-0.7,2.6c-0.1,0.5-0.6,0.7-1,0.6
		l-3-0.8c-0.1,0-0.1-0.1-0.2-0.1c0-0.1-0.1-0.1-0.1-0.1c-0.2-0.2-0.3-0.4-0.3-0.6c0-0.1,0-0.1,0-0.2l0-0.1l0,0l0,0l0.8-2.9
		c0.1-0.4,0.4-0.6,0.8-0.6c0.1,0,0.1,0,0.2,0l2.6,0.7l0.6-0.3l1.3-4.6c0.1-0.4,0.4-0.6,0.8-0.6c0.1,0,0.1,0,0.2,0l4.6,1.3l0.6-0.3
		l0.7-2.6c0.1-0.4,0.4-0.6,0.8-0.6c0.1,0,0.1,0,0.2,0l2.6,0.7l0.9-0.5l3.1-10.3l-2,0l-4.4,4.5c-0.3,0.3-0.9,0.3-1.2,0
		c-0.3-0.3-0.3-0.9,0-1.2l3.2-3.3l-5.8,0.1l-4.4,4.5c-0.3,0.3-0.9,0.3-1.2,0c-0.3-0.3-0.3-0.9,0-1.2l3.2-3.3l-5.8,0.1l-4.4,4.5
		c-0.3,0.3-0.9,0.3-1.2,0s-0.3-0.9,0-1.2l3.2-3.3l-5,0.1c-0.5,0.1-0.9-0.3-0.9-0.8c0-0.5,0.3-0.9,0.8-0.9l5-0.1l-3.3-3.2
		c-0.3-0.3-0.3-0.9,0-1.2c0.2-0.2,0.4-0.3,0.6-0.3s0.4,0,0.6,0.2l4.5,4.4l5.9-0.1l-3.3-3.2c-0.3-0.3-0.3-0.9,0-1.2
		c0.2-0.2,0.4-0.3,0.6-0.3s0.4,0,0.6,0.2l4.5,4.4l5.9-0.1l-3.3-3.2c-0.3-0.3-0.3-0.9,0-1.2c0.2-0.2,0.4-0.3,0.6-0.3s0.4,0,0.6,0.2
		l4.5,4.4l2.1,0l-3.2-10.6l-0.8-0.5l-2.6,0.7c-0.4,0.1-0.9-0.2-1-0.6l-0.7-2.6l-0.6-0.3l-4.6,1.2c-0.4,0.1-0.9-0.2-1-0.6l-1.3-4.6
		l-0.6-0.3l-2.6,0.7c-0.4,0.1-0.9-0.2-1-0.6l-0.8-2.9l0,0l0,0l0-0.1c0-0.1,0-0.1,0-0.2c0-0.1,0-0.2,0.1-0.3l0,0
		c0.1-0.1,0.2-0.2,0.3-0.3c0-0.1,0.1-0.1,0.1-0.1c0-0.1,0.1-0.1,0.1-0.1l3-0.8c0.1,0,0.1,0,0.2,0c0.4,0,0.7,0.2,0.8,0.6l0.7,2.6
		l0.6,0.3l4.6-1.2c0.1,0,0.1,0,0.2,0c0.4,0,0.7,0.2,0.8,0.6l1.2,4.6l0.6,0.3l2.6-0.7c0.1,0,0.1,0,0.2,0c0.4,0,0.7,0.2,0.8,0.6
		l0.7,2.6l0.8,0.4l10.8-2.6l-1.1-1.9l-6.1-1.6c-0.4-0.1-0.7-0.5-0.6-1c0.1-0.4,0.4-0.6,0.8-0.6c0.1,0,0.1,0,0.2,0l4.5,1.2l-3-5.1
		l-6.1-1.6c-0.4-0.1-0.7-0.6-0.6-1c0.1-0.3,0.4-0.6,0.8-0.6c0.1,0,0.1,0,0.2,0l4.5,1.2l-3-5.1l-6.1-1.6c-0.4-0.1-0.7-0.6-0.6-1
		c0.1-0.4,0.4-0.6,0.8-0.6c0.1,0,0.1,0,0.2,0l4.5,1.2l-2.5-4.3c-0.2-0.4-0.1-1,0.3-1.2c0.1-0.1,0.3-0.1,0.4-0.1
		c0.3,0,0.5,0.1,0.7,0.4l2.5,4.3l1.2-4.5c0.1-0.4,0.4-0.6,0.8-0.6c0.1,0,0.1,0,0.2,0c0.4,0.1,0.7,0.5,0.6,1l-1.6,6.1l3,5l1.2-4.5
		c0.1-0.4,0.4-0.6,0.8-0.6c0.1,0,0.1,0,0.2,0c0.4,0.1,0.7,0.5,0.6,1l-1.6,6.1l3,5l1.2-4.5c0.1-0.4,0.4-0.6,0.8-0.6
		c0.1,0,0.1,0,0.2,0c0.4,0.1,0.7,0.5,0.6,1l-1.6,6.1l1.1,1.9l7.6-8l0-0.9l-1.9-1.9c-0.3-0.4-0.3-0.9,0-1.2l1.9-1.9l0-0.7l-3.4-3.4
		c-0.3-0.4-0.3-0.9,0-1.2l3.4-3.4l0-0.7l-1.9-1.9c-0.3-0.4-0.3-0.9,0-1.2l2.2-2.2l0,0l0,0c0-0.1,0.1-0.1,0.1-0.1
		c0.1,0,0.1-0.1,0.2-0.1c0.1-0.1,0.2-0.1,0.3-0.1c0.1,0,0.2,0.1,0.3,0.1c0.1,0,0.2,0.1,0.2,0.1c0,0.1,0.1,0.1,0.1,0.1l2.2,2.2
		c0.3,0.4,0.3,0.9,0,1.2l-1.9,1.9l0,0.7l3.4,3.4c0.3,0.4,0.3,0.9,0,1.2l-3.4,3.4l0,0.7l1.9,1.9c0.3,0.4,0.3,0.9,0,1.2l-1.9,1.9
		l0,0.9l7.5,8l1.1-1.9l-1.6-6.1c-0.1-0.4,0.2-0.9,0.6-1c0.1,0,0.1,0,0.2,0c0.4,0,0.7,0.2,0.8,0.6l1.2,4.5l2.9-5.1l-1.6-6.1
		c-0.1-0.4,0.2-0.9,0.6-1c0.1,0,0.1,0,0.2,0c0.4,0,0.7,0.2,0.8,0.6l1.2,4.5l2.9-5.1l-1.6-6.1c-0.1-0.4,0.2-0.9,0.6-1
		c0.1,0,0.1,0,0.2,0c0.4,0,0.7,0.2,0.8,0.6l1.2,4.5l2.5-4.3c0.1-0.3,0.4-0.4,0.7-0.4c0.1,0,0.3,0,0.4,0.1c0.4,0.3,0.5,0.8,0.3,1.2
		l-2.5,4.3l4.5-1.2c0.1,0,0.1,0,0.2,0c0.4,0,0.7,0.2,0.8,0.6c0.1,0.4-0.2,0.9-0.6,1l-6.1,1.6l-3,5.1l4.5-1.2c0.1,0,0.1,0,0.2,0
		c0.4,0,0.7,0.2,0.8,0.6c0.1,0.4-0.2,0.9-0.6,1l-6.1,1.6l-2.9,5.1l4.5-1.2c0.1,0,0.1,0,0.2,0c0.4,0,0.7,0.2,0.8,0.6
		c0.1,0.4-0.2,0.9-0.6,1l-6.1,1.6l-1.1,1.9l10.8,2.6l0.8-0.4l0.7-2.6c0.1-0.4,0.4-0.6,0.8-0.6c0.1,0,0.1,0,0.2,0l2.6,0.7l0.6-0.3
		l1.2-4.6c0.1-0.4,0.4-0.6,0.8-0.6c0.1,0,0.1,0,0.2,0l4.6,1.2l0.6-0.3l0.7-2.6c0.1-0.4,0.4-0.6,0.8-0.6c0.1,0,0.1,0,0.2,0l3,0.8
		c0,0.1,0.1,0.1,0.1,0.1c0,0.1,0.1,0.1,0.1,0.1c0.1,0.1,0.2,0.2,0.3,0.3l0,0c0.1,0.1,0.1,0.2,0.1,0.3c0,0.1,0,0.1,0,0.2l0,0.1l0,0
		l0,0l-0.8,2.9c-0.1,0.5-0.6,0.7-1,0.6l-2.6-0.7l-0.6,0.3l-1.2,4.6c-0.1,0.5-0.6,0.7-1,0.6l-4.6-1.2l-0.6,0.3l-0.7,2.6
		c-0.1,0.5-0.6,0.7-1,0.6l-2.6-0.7l-0.8,0.5l-3.1,10.4l2,0l4.5-4.4c0.2-0.1,0.4-0.2,0.6-0.2c0.2,0,0.4,0,0.6,0.2
		c0.3,0.3,0.3,0.9,0,1.2l-3.3,3.3l5.9,0l4.5-4.4c0.2-0.1,0.4-0.2,0.6-0.2s0.4,0,0.6,0.2c0.3,0.3,0.3,0.9,0,1.2l-3.3,3.3l5.8,0
		l4.5-4.4c0.2-0.1,0.4-0.2,0.6-0.2c0.2,0,0.4,0.1,0.6,0.3c0.3,0.3,0.3,0.9,0,1.2l-3.3,3.3l5,0
		C1404.8,232.4,1405.2,232.8,1404.1,233.3z M2505.3,274.3c0,0.6-0.5,1.1-1.1,1.1l0,0l-6.4,0l4.2,4.2c0.4,0.4,0.4,1.1,0,1.5
		c-0.4,0.4-1.1,0.4-1.5,0l-5.7-5.8l-7.5,0l4.2,4.2c0.4,0.4,0.4,1.1,0,1.5c-0.4,0.4-1.1,0.4-1.5,0l-5.7-5.8l-7.5,0l4.2,4.2
		c0.4,0.4,0.4,1.1,0,1.5s-1.1,0.4-1.5,0l-5.7-5.8l-2.7,0l4.1,13.6l1.1,0.7l3.4-0.9c0.1,0,0.2,0,0.3,0c0.4,0,0.9,0.3,1,0.8l0.9,3.4
		l0.7,0.4l6-1.6c0.1,0,0.2,0,0.3,0c0.4,0,0.9,0.3,1,0.8l1.6,6l0.7,0.4l3.4-0.9c0.1,0,0.2,0,0.3,0c0.4,0,0.9,0.3,1,0.8l1,3.8l0,0l0,0
		l0,0.1c0,0.1,0,0.2,0,0.3c0,0.2,0,0.3-0.1,0.4l0,0l0,0c-0.1,0.1-0.2,0.2-0.3,0.3c-0.1,0-0.1,0.1-0.2,0.1c-0.1,0-0.1,0.1-0.2,0.1
		l-3.8,1c-0.6,0.1-1.1-0.2-1.3-0.8l-0.9-3.4l-0.7-0.4l-6,1.6c-0.6,0.1-1.1-0.2-1.3-0.8l-1.6-6l-0.7-0.4l-3.4,0.9
		c-0.6,0.1-1.1-0.2-1.3-0.8l-0.9-3.4l-0.9-0.5l-14.1,3.3l1.2,2.1l7.8,2.2c0.6,0.1,1,0.7,0.8,1.3c-0.1,0.6-0.7,1-1.3,0.8l-5.8-1.6
		l3.7,6.6l7.8,2.2c0.6,0.1,1,0.7,0.8,1.3c-0.1,0.6-0.7,1-1.3,0.8l-5.8-1.6l3.7,6.6l7.8,2.2c0.6,0.1,1,0.7,0.8,1.3
		c-0.1,0.6-0.7,1-1.3,0.8l-5.8-1.6l3.2,5.6c0.3,0.5,0.1,1.2-0.4,1.5c-0.5,0.3-1.2,0.1-1.5-0.4l-3.2-5.6l-1.6,5.8
		c-0.1,0.6-0.7,1-1.3,0.8c-0.6-0.1-1-0.7-0.8-1.3l2.2-7.8l-3.7-6.6l-1.6,5.8c-0.1,0.6-0.7,1-1.3,0.8c-0.6-0.1-1-0.7-0.8-1.3l2.2-7.8
		l-3.7-6.6l-1.6,5.8c-0.1,0.6-0.7,1-1.3,0.8c-0.6-0.1-1-0.7-0.8-1.3l2.2-7.8l-1.2-2l-9.7,10.3l0,1.2l2.5,2.5c0.4,0.4,0.4,1.1,0,1.5
		l-2.5,2.5l0,0.9l4.4,4.4c0.4,0.4,0.4,1.1,0,1.5l-4.4,4.4l0,0.9l2.5,2.5c0.4,0.4,0.4,1.1,0,1.5l-2.8,2.8l0,0l0,0l-0.1,0.1
		c-0.1,0-0.1,0.1-0.2,0.1c-0.2,0.1-0.5,0.1-0.8,0c-0.1,0-0.1-0.1-0.2-0.1l-0.1-0.1l0,0l0,0l-2.8-2.8c-0.4-0.4-0.4-1.1,0-1.5l2.5-2.5
		l0-0.9l-4.4-4.4c-0.4-0.4-0.4-1.1,0-1.5l4.4-4.4l0-0.9l-2.5-2.5c-0.4-0.4-0.4-1.1,0-1.5l2.5-2.5l0-0.7l-9.8-10.4l-1.2,2.1l2.1,7.9
		c0.1,0.6-0.2,1.1-0.8,1.3c-0.6,0.1-1.1-0.2-1.3-0.8l-1.6-5.8l-3.8,6.5l2.1,7.9c0.1,0.6-0.2,1.1-0.8,1.3c-0.6,0.1-1.1-0.2-1.3-0.8
		l-1.6-5.8l-3.8,6.5l2.1,7.9c0.1,0.6-0.2,1.1-0.8,1.3c-0.6,0.1-1.1-0.2-1.3-0.8l-1.6-5.8l-3.2,5.6c-0.3,0.5-1,0.7-1.5,0.4
		c-0.5-0.3-0.7-1-0.4-1.5l3.2-5.6l-5.8,1.6c-0.6,0.1-1.1-0.2-1.3-0.8c-0.1-0.6,0.2-1.1,0.8-1.3l7.9-2.1l3.8-6.5l-5.8,1.6
		c-0.5,0.1-1.1-0.2-1.3-0.8c-0.1-0.6,0.2-1.1,0.8-1.3l7.9-2.1l3.8-6.5l-5.8,1.6c-0.5,0.1-1.1-0.2-1.3-0.8c-0.1-0.6,0.2-1.1,0.8-1.3
		l7.9-2.1l1.2-2l-14-3.3l-0.8,0.5l-0.9,3.4c-0.1,0.5-0.7,0.8-1.3,0.7l-3.4-0.9l-0.7,0.4l-1.6,6c-0.1,0.5-0.7,0.8-1.3,0.7l-6-1.6
		l-0.7,0.4l-0.9,3.4c-0.1,0.5-0.7,0.8-1.3,0.7l-3.8-1c-0.1,0-0.1-0.1-0.2-0.1c-0.1,0-0.1-0.1-0.2-0.1c-0.2-0.2-0.4-0.4-0.4-0.7
		c0-0.1,0-0.2,0-0.3c0-0.1,0-0.1,0-0.2l0,0l0,0l1-3.8c0.1-0.5,0.5-0.8,1-0.8c0.1,0,0.2,0,0.3,0l3.4,0.9l0.7-0.4l1.6-6
		c0.1-0.5,0.5-0.8,1-0.8c0.1,0,0.2,0,0.3,0l6,1.6l0.7-0.4l0.9-3.4c0.1-0.5,0.5-0.8,1-0.8c0.1,0,0.2,0,0.3,0l3.4,0.9l1.2-0.7l4-13.3
		l-2.6,0l-5.7,5.8c-0.4,0.4-1.1,0.4-1.5,0c-0.4-0.4-0.4-1.1,0-1.5l4.2-4.3l-7.5,0.1l-5.7,5.8c-0.4,0.4-1.1,0.4-1.5,0
		c-0.4-0.4-0.4-1.1,0-1.5l4.2-4.3l-7.5,0.1l-5.7,5.8c-0.4,0.4-1.1,0.4-1.5,0c-0.4-0.4-0.4-1.1,0-1.5l4.2-4.3l-6.4,0.1
		c-0.6,0.1-1.1-0.5-1.1-1.1c0-0.6,0.5-1.1,1.1-1.1l6.4-0.1l-4.3-4.2c-0.4-0.4-0.4-1.1,0-1.5c0.2-0.2,0.5-0.3,0.8-0.3
		c0.3,0,0.6,0.1,0.8,0.3l5.8,5.7l7.5-0.1l-4.3-4.2c-0.4-0.4-0.4-1.1,0-1.5c0.2-0.2,0.5-0.3,0.8-0.3c0.3,0,0.6,0.1,0.8,0.3l5.8,5.7
		l7.5-0.1l-4.3-4.2c-0.4-0.4-0.4-1.1,0-1.5c0.2-0.2,0.5-0.3,0.8-0.3s0.6,0.1,0.8,0.3l5.8,5.7l2.6,0l-4.1-13.6l-1-0.6l-3.4,0.9
		c-0.6,0.1-1.1-0.2-1.3-0.8l-0.9-3.4l-0.7-0.4l-6,1.6c-0.5,0.1-1.1-0.2-1.3-0.8l-1.6-6l-0.7-0.4l-3.4,0.9c-0.6,0.1-1.1-0.2-1.3-0.8
		l-1-3.8l0,0l0,0l0-0.1c0-0.1,0-0.2,0-0.3c0-0.1,0-0.3,0.1-0.4l0,0c0.1-0.2,0.3-0.3,0.4-0.4c0-0.1,0.1-0.1,0.1-0.1
		c0.1,0,0.1-0.1,0.2-0.1l3.8-1c0.1,0,0.2,0,0.3,0c0.4,0,0.9,0.3,1,0.8l0.9,3.4l0.7,0.4l6-1.6c0.1,0,0.2,0,0.3,0c0.4,0,0.9,0.3,1,0.8
		l1.6,6l0.7,0.4l3.4-0.9c0.1,0,0.2,0,0.3,0c0.4,0,0.9,0.3,1,0.8l0.9,3.4l1,0.6l13.9-3.3l-1.4-2.5l-7.9-2.1c-0.6-0.1-1-0.7-0.8-1.3
		c0.1-0.5,0.5-0.8,1-0.8c0.1,0,0.2,0,0.3,0l5.8,1.5l-3.8-6.5l-7.9-2.1c-0.6-0.1-1-0.7-0.8-1.3c0.1-0.5,0.5-0.8,1-0.8
		c0.1,0,0.2,0,0.3,0l5.8,1.5l-3.8-6.5l-7.9-2.1c-0.6-0.1-1-0.7-0.8-1.3c0.1-0.5,0.5-0.8,1-0.8c0.1,0,0.2,0,0.3,0l5.8,1.5l-3.2-5.5
		c-0.3-0.5-0.1-1.2,0.4-1.5c0.1-0.1,0.3-0.1,0.5-0.1c0.3,0,0.7,0.2,0.9,0.5l3.2,5.5l1.5-5.8c0.1-0.5,0.5-0.8,1-0.8
		c0.1,0,0.2,0,0.3,0c0.6,0.1,1,0.7,0.8,1.3l-2.1,7.9l3.8,6.5l1.5-5.8c0.1-0.5,0.5-0.8,1-0.8c0.1,0,0.2,0,0.3,0
		c0.6,0.1,1,0.7,0.8,1.3l-2.1,7.9l3.8,6.5l1.5-5.8c0.1-0.5,0.5-0.8,1-0.8c0.1,0,0.2,0,0.3,0c0.6,0.1,1,0.7,0.8,1.3l-2.1,7.9l1.5,2.5
		l9.7-10.3l0-1.2l-2.5-2.5c-0.4-0.4-0.4-1.1,0-1.5l2.5-2.5l0-0.9l-4.4-4.4c-0.4-0.4-0.4-1.1,0-1.5l4.4-4.4l0-0.9l-2.5-2.5
		c-0.4-0.4-0.4-1.1,0-1.5l2.8-2.8l0,0l0,0c0-0.1,0.1-0.1,0.1-0.1c0.1,0,0.1-0.1,0.2-0.1c0.1-0.1,0.3-0.1,0.4-0.1
		c0.1,0,0.3,0,0.4,0.1c0.1,0,0.1,0.1,0.2,0.1c0.1,0,0.2,0.1,0.2,0.1l2.8,2.8c0.4,0.4,0.4,1.1,0,1.5l-2.5,2.5l0,0.9l4.4,4.4
		c0.4,0.4,0.4,1.1,0,1.5l-4.4,4.4l0,0.9l2.5,2.5c0.4,0.4,0.4,1.1,0,1.5l-2.5,2.5l0,1.2l9.7,10.3l1.4-2.5l-2.1-7.9
		c-0.1-0.6,0.2-1.1,0.8-1.3c0.1,0,0.2,0,0.3,0c0.4,0,0.9,0.3,1,0.8l1.5,5.8l3.8-6.5l-2.1-7.9c-0.1-0.6,0.2-1.1,0.8-1.3
		c0.1,0,0.2,0,0.3,0c0.4,0,0.9,0.3,1,0.8l1.5,5.8l3.8-6.5l-2.1-7.9c-0.1-0.6,0.2-1.1,0.8-1.3c0.1,0,0.2,0,0.3,0c0.4,0,0.9,0.3,1,0.8
		l1.5,5.8l3.2-5.5c0.2-0.3,0.5-0.5,0.9-0.5c0.1,0,0.3,0,0.5,0.1c0.5,0.3,0.7,1,0.4,1.5l-3.2,5.5l5.8-1.5c0.1,0,0.2,0,0.3,0
		c0.4,0,0.9,0.3,1,0.8c0.1,0.6-0.2,1.1-0.8,1.3l-7.9,2.1l-3.8,6.5l5.8-1.5c0.1,0,0.2,0,0.3,0c0.4,0,0.9,0.3,1,0.8
		c0.1,0.6-0.2,1.1-0.8,1.3l-7.9,2.1l-3.8,6.5l5.8-1.5c0.1,0,0.2,0,0.3,0c0.4,0,0.9,0.3,1,0.8c0.1,0.6-0.2,1.1-0.8,1.3l-7.9,2.1
		l-1.4,2.5l13.9,3.3l1-0.6l0.9-3.4c0.1-0.5,0.5-0.8,1-0.8c0.1,0,0.2,0,0.3,0l3.4,0.9l0.7-0.4l1.6-6c0.1-0.5,0.5-0.8,1-0.8
		c0.1,0,0.2,0,0.3,0l6,1.6l0.7-0.4l0.9-3.4c0.1-0.5,0.5-0.8,1-0.8c0.1,0,0.2,0,0.3,0l3.8,1c0.1,0,0.1,0.1,0.2,0.1
		c0,0.1,0.1,0.1,0.1,0.1c0.2,0.1,0.3,0.3,0.4,0.4l0,0c0,0.1,0.1,0.3,0.1,0.4s0,0.2,0,0.3l0,0.1l0,0l0,0l-1,3.8
		c-0.1,0.6-0.7,0.9-1.3,0.8l-3.4-0.9l-0.7,0.4l-1.6,6c-0.1,0.6-0.7,0.9-1.3,0.8l-6-1.6l-0.7,0.4l-0.9,3.4c-0.1,0.6-0.7,0.9-1.3,0.8
		l-3.4-0.9l-1,0.6l-4,13.4l2.6,0l5.8-5.7c0.2-0.2,0.5-0.3,0.8-0.3s0.6,0.1,0.8,0.3c0.4,0.4,0.4,1.1,0,1.5l-4.2,4.2l7.5,0l5.8-5.7
		c0.2-0.2,0.5-0.3,0.8-0.3s0.6,0.1,0.8,0.3c0.4,0.4,0.4,1.1,0,1.5l-4.2,4.2l7.5,0l5.8-5.7c0.2-0.2,0.5-0.3,0.8-0.3s0.6,0.1,0.8,0.3
		c0.4,0.4,0.4,1.1,0,1.5l-4.2,4.2l6.4,0C2505.2,273.8,2505.7,274.2,2505.3,274.3z M2907.7,202.4c0-1.2,0.9-2.1,2.1-2.1
		c1.2,0,2.1,0.9,2.1,2.1c0,1.2-0.9,2.1-2.1,2.1S2907.7,203.6,2907.7,202.4z M2904.4,197.4c0-1.4,1.2-2.6,2.6-2.6s2.6,1.2,2.6,2.6
		c0,1.4-1.2,2.6-2.6,2.6S2904.4,198.8,2904.4,197.4z M2900.7,195.1l1.3-5.2c0.1-0.4,0.4-0.6,0.8-0.6c0.1,0,0.1,0,0.2,0l5.2,1.3
		c0.4,0.1,0.7,0.5,0.6,0.9c-0.1,0.4-0.5,0.7-0.9,0.6l-4.5-1.1l-1.1,4.5c-0.1,0.4-0.5,0.7-0.9,0.6S2900.7,195.6,2900.7,195.1z
		 M2887.3,191.2l-4.5,1.1c-0.4,0.1-0.8-0.2-0.9-0.6c-0.1-0.4,0.2-0.8,0.6-0.9l5.2-1.3c0.1,0,0.1,0,0.2,0c0.4,0,0.7,0.2,0.8,0.6
		l1.3,5.2c0.1,0.4-0.2,0.8-0.6,0.9c-0.4,0.1-0.8-0.2-0.9-0.6L2887.3,191.2z M2883.8,200c-1.4,0-2.6-1.2-2.6-2.6s1.2-2.6,2.6-2.6
		c1.4,0,2.6,1.2,2.6,2.6C2886.4,198.8,2885.3,200,2883.8,200z M2878.9,202.3c0-1.2,0.9-2.1,2.1-2.1c1.2,0,2.1,0.9,2.1,2.1
		s-0.9,2.1-2.1,2.1C2879.9,204.4,2878.9,203.5,2878.9,202.3z M2883.2,153.2c0,1.2-0.9,2.1-2.1,2.1s-2.1-0.9-2.1-2.1
		c0-1.2,0.9-2.1,2.1-2.1S2883.3,152,2883.2,153.2z M2886.5,158.1c0,1.4-1.2,2.6-2.6,2.6c-1.4,0-2.6-1.2-2.6-2.6
		c0-1.4,1.2-2.6,2.6-2.6C2885.4,155.5,2886.5,156.7,2886.5,158.1z M2890.3,160.4l-1.3,5.2c-0.1,0.4-0.4,0.6-0.8,0.6
		c-0.1,0-0.1,0-0.2,0l-5.2-1.3c-0.4-0.1-0.7-0.5-0.6-0.9c0.1-0.4,0.5-0.7,0.9-0.6l4.5,1.1l1.1-4.5c0.1-0.4,0.5-0.7,0.9-0.6
		S2890.2,159.9,2890.3,160.4z M2903.6,164.3l4.5-1.1c0.4-0.1,0.8,0.2,0.9,0.6c0.1,0.4-0.2,0.8-0.6,0.9l-5.2,1.3c-0.1,0-0.1,0-0.2,0
		c-0.4,0-0.7-0.2-0.8-0.6l-1.3-5.2c-0.1-0.4,0.2-0.8,0.6-0.9c0.4-0.1,0.8,0.2,0.9,0.6L2903.6,164.3z M2907.1,155.6
		c1.4,0,2.6,1.2,2.6,2.6c0,1.4-1.2,2.6-2.6,2.6s-2.6-1.2-2.6-2.6C2904.5,156.7,2905.7,155.6,2907.1,155.6z M2912,153.3
		c0,1.2-0.9,2.1-2.1,2.1c-1.2,0-2.1-0.9-2.1-2.1s0.9-2.1,2.1-2.1S2912,152.1,2912,153.3z M2929.4,191.7l-4.5,1.2l3.9,2.2
		c0.4,0.2,0.5,0.7,0.3,1c-0.2,0.4-0.7,0.5-1,0.3l-3.9-2.2l1.2,4.5c0.1,0.4-0.1,0.8-0.5,0.9c-0.4,0.1-0.8-0.1-0.9-0.5l-1.6-5.8
		l-3.1-1.7l1.2,4.5c0.1,0.4-0.1,0.8-0.5,0.9c-0.4,0.1-0.8-0.1-0.9-0.5l-1.6-5.8l-3.1-1.7l1.2,4.5c0.1,0.4-0.1,0.8-0.5,0.9
		c-0.4,0.1-0.8-0.1-0.9-0.5l-1.6-5.8l-4.8-2.7l-6.7,1.6l-4.6,4.9l0,5.7l4.3,4.3c0.3,0.3,0.3,0.7,0,1c-0.3,0.3-0.7,0.3-1,0l-3.3-3.3
		l0,3.5l4.3,4.3c0.3,0.3,0.3,0.7,0,1c-0.3,0.3-0.7,0.3-1,0l-3.3-3.3l0,3.5l4.3,4.3c0.3,0.3,0.3,0.7,0,1c-0.3,0.3-0.7,0.3-1,0
		l-3.3-3.3l0,4.4c0,0.4-0.3,0.7-0.7,0.7c-0.4,0-0.7-0.3-0.7-0.7l0-4.4l-3.3,3.3c-0.3,0.3-0.7,0.3-1,0c-0.3-0.3-0.3-0.7,0-1l4.3-4.3
		l0-3.5l-3.3,3.3c-0.3,0.3-0.7,0.3-1,0c-0.3-0.3-0.3-0.7,0-1l4.3-4.3l0-3.5l-3.3,3.3c-0.3,0.3-0.7,0.3-1,0c-0.3-0.3-0.3-0.7,0-1
		l4.3-4.3l0-5.7l-4.6-4.9l-6.5-1.5l-4.9,2.9l-1.6,5.9c-0.1,0.4-0.5,0.6-0.9,0.5c-0.4-0.1-0.6-0.5-0.5-0.9l1.2-4.5l-3,1.8l-1.6,5.9
		c-0.1,0.4-0.5,0.6-0.9,0.5c-0.4-0.1-0.6-0.5-0.5-0.9l1.2-4.5l-3,1.8l-1.6,5.9c-0.1,0.4-0.5,0.6-0.9,0.5c-0.4-0.1-0.6-0.5-0.5-0.9
		l1.2-4.5l-3.8,2.2c-0.4,0.2-0.8,0-1-0.3c-0.2-0.4,0-0.8,0.3-1l3.8-2.2l-4.5-1.2c-0.4-0.1-0.6-0.5-0.5-0.9c0.1-0.3,0.4-0.5,0.7-0.5
		c0.1,0,0.1,0,0.2,0l5.9,1.6l3-1.8l-4.5-1.2c-0.4-0.1-0.6-0.5-0.5-0.9c0.1-0.3,0.4-0.5,0.7-0.5c0.1,0,0.1,0,0.2,0l5.9,1.6l3-1.8
		l-4.5-1.2c-0.4-0.1-0.6-0.5-0.5-0.9c0.1-0.3,0.4-0.5,0.7-0.5c0.1,0,0.1,0,0.2,0l5.9,1.6l4.9-2.8l1.9-6.5l-1.9-6.4l-5-2.9l-5.9,1.6
		c-0.4,0.1-0.8-0.1-0.9-0.5c-0.1-0.4,0.1-0.8,0.5-0.9l4.5-1.2l-3-1.7l-5.9,1.6c-0.4,0.1-0.8-0.1-0.9-0.5c-0.1-0.4,0.1-0.8,0.5-0.9
		l4.5-1.2l-3-1.7l-5.9,1.6c-0.4,0.1-0.8-0.1-0.9-0.5c-0.1-0.4,0.1-0.8,0.5-0.9l4.5-1.2l-3.8-2.2c-0.4-0.2-0.5-0.7-0.3-1
		c0.1-0.3,0.4-0.4,0.6-0.4s0.3,0,0.4,0.1l3.8,2.2l-1.2-4.5c-0.1-0.4,0.1-0.8,0.5-0.9c0.1,0,0.1,0,0.2,0c0.3,0,0.6,0.2,0.7,0.5
		l1.6,5.9l3,1.7l-1.2-4.5c-0.1-0.4,0.1-0.8,0.5-0.9c0.1,0,0.1,0,0.2,0c0.3,0,0.6,0.2,0.7,0.5l1.6,5.9l3,1.7l-1.2-4.5
		c-0.1-0.4,0.1-0.8,0.5-0.9c0.1,0,0.1,0,0.2,0c0.3,0,0.6,0.2,0.7,0.5l1.6,5.9l4.9,2.8l6.6-1.6l4.6-4.9l0-5.7l-4.3-4.3
		c-0.3-0.3-0.3-0.7,0-1c0.1-0.1,0.3-0.2,0.5-0.2s0.4,0.1,0.5,0.2l3.3,3.3l0-3.5l-4.3-4.3c-0.3-0.3-0.3-0.7,0-1
		c0.1-0.1,0.3-0.2,0.5-0.2c0.2,0,0.4,0.1,0.5,0.2l3.3,3.3l0-3.5l-4.3-4.3c-0.3-0.3-0.3-0.7,0-1c0.1-0.1,0.3-0.2,0.5-0.2
		s0.4,0.1,0.5,0.2l3.3,3.3l0-4.4c0-0.4,0.3-0.7,0.7-0.7c0.4,0,0.7,0.3,0.7,0.7l0,4.4l3.3-3.3c0.1-0.1,0.3-0.2,0.5-0.2
		s0.4,0.1,0.5,0.2c0.3,0.3,0.3,0.7,0,1l-4.3,4.3l0,3.5l3.3-3.3c0.1-0.1,0.3-0.2,0.5-0.2s0.4,0.1,0.5,0.2c0.3,0.3,0.3,0.7,0,1
		l-4.3,4.3l0,3.5l3.3-3.3c0.1-0.1,0.3-0.2,0.5-0.2s0.4,0.1,0.5,0.2c0.3,0.3,0.3,0.7,0,1l-4.3,4.3l0,5.7l4.6,4.9l6.6,1.6l4.9-2.8
		l1.6-5.9c0.1-0.3,0.4-0.5,0.7-0.5c0.1,0,0.1,0,0.2,0c0.4,0.1,0.6,0.5,0.5,0.9l-1.2,4.5l3-1.7l1.6-5.9c0.1-0.3,0.4-0.5,0.7-0.5
		c0.1,0,0.1,0,0.2,0c0.4,0.1,0.6,0.5,0.5,0.9l-1.2,4.5l3-1.7l1.6-5.9c0.1-0.3,0.4-0.5,0.7-0.5c0.1,0,0.1,0,0.2,0
		c0.4,0.1,0.6,0.5,0.5,0.9l-1.2,4.5l3.8-2.2c0.2-0.1,0.3-0.1,0.4-0.1c0.2,0,0.5,0.2,0.6,0.4c0.2,0.4,0,0.8-0.3,1l-3.8,2.2l4.5,1.2
		c0.4,0.1,0.6,0.5,0.5,0.9c-0.1,0.4-0.5,0.6-0.9,0.5l-5.8-1.6l-3,1.7l4.5,1.2c0.4,0.1,0.6,0.5,0.5,0.9c-0.1,0.4-0.5,0.6-0.9,0.5
		l-5.9-1.6l-3,1.7l4.5,1.2c0.4,0.1,0.6,0.5,0.5,0.9c-0.1,0.4-0.5,0.6-0.9,0.5l-5.9-1.6l-5,2.9l-1.9,6.4l1.9,6.2l5.1,2.9l5.8-1.6
		c0.1,0,0.1,0,0.2,0c0.3,0,0.6,0.2,0.7,0.5c0.1,0.4-0.1,0.8-0.5,0.9l-4.5,1.2l3.1,1.7l5.8-1.6c0.1,0,0.1,0,0.2,0
		c0.3,0,0.6,0.2,0.7,0.5c0.1,0.4-0.1,0.8-0.5,0.9l-4.5,1.2l3.1,1.7l5.8-1.6c0.1,0,0.1,0,0.2,0c0.3,0,0.6,0.2,0.7,0.5
		C2929.9,191.5,2929.6,191.9,2929.4,191.7z M2925.2,180.2c-0.5,0.3-1.1,0.4-1.6,0.2c-0.5-0.1-0.9-0.5-1.2-1
		c-0.5-1.1-0.1-2.4,0.9-2.9c0.3-0.1,0.7-0.2,1-0.2c0.8,0,1.5,0.4,1.9,1.1C2926.7,178.4,2926.3,179.7,2925.2,180.2z M2919.9,180.5
		c-0.6,0.3-1.3,0.4-2,0.2c-0.6-0.2-1.2-0.7-1.5-1.3c-0.3-0.6-0.4-1.3-0.2-2c0.2-0.6,0.7-1.2,1.3-1.5c0.4-0.2,0.8-0.3,1.2-0.3
		c0.3,0,0.6,0,0.8,0.1c0.6,0.2,1.2,0.7,1.5,1.3C2921.6,178.3,2921.1,179.8,2919.9,180.5z M2911.4,177.8l3.1,3.5
		c0.3,0.3,0.2,0.8-0.1,1.1c-0.3,0.2-0.8,0.2-1.1-0.1l-3.6-4l-0.1-0.1c-0.1-0.3-0.1-0.7,0.2-0.9l4-3.6c0.3-0.2,0.8-0.2,1.1,0.1
		c0.3,0.3,0.2,0.8-0.1,1.1L2911.4,177.8z M2865.5,177.1c0.2-0.5,0.7-0.8,1.2-1c0.2-0.1,0.4-0.1,0.6-0.1c0.4,0,0.7,0,1,0.2
		c1.1,0.6,1.4,1.9,0.9,2.9c-0.6,1.1-1.9,1.4-2.9,0.9C2865.3,179.5,2864.9,178.2,2865.5,177.1z M2870.7,176.9
		c0.3-0.7,0.8-1.1,1.5-1.3c0.3-0.1,0.5-0.1,0.8-0.1c0.4,0,0.8,0.1,1.2,0.3c0.7,0.3,1.1,0.8,1.3,1.5c0.2,0.7,0.1,1.4-0.2,2
		c-0.3,0.7-0.8,1.1-1.5,1.3c-0.7,0.2-1.4,0.1-2-0.2C2870.5,179.7,2870,178.2,2870.7,176.9z M2880.4,178.1l-3.5-3.1
		c-0.4-0.3-0.4-0.8-0.1-1.1c0.3-0.4,0.8-0.4,1.1-0.1l4,3.6c0.3,0.2,0.4,0.6,0.2,0.9l-0.1,0.1l-3.6,4c-0.3,0.4-0.8,0.4-1.1,0.1
		c-0.4-0.3-0.4-0.8-0.1-1.1L2880.4,178.1z M3642.5,230.5c-0.5,1.8-2.2,2.8-4,2.3l-8.4-2.4c11.5,5.9-0.3,22.6-0.3,22.6
		c6.6,0.6,10.5,3.4,12.5,5.6c0.9,0.9,0.2,2.6-1.1,2.6c-3.5,0.1-8.7,1-11.4,3.6c-1.1,1-2.3,1.4-3.4,1.5c1.2,1.2,2.1,2.7,1.8,4.5
		l-1.6-0.3c0.3-2-2.1-3.8-3.7-4.7c-0.6,1.1-1.8,3.4-2.7,6.3c1.1,1.9,3.2,5,4.8,5.2l-0.2,1.6c-2.1-0.2-4.1-2.9-5.2-4.6
		c-0.5,2.3-0.8,4.7-0.6,7.2c0.6-0.2,1.6-0.5,2.8-0.3c1.2,0.1,2.7,0.6,4.3,1.9l-1,1.3c-3.2-2.6-5.6-1.3-5.8-1.2
		c0.6,3.2,2.2,6.4,5.5,9l-1,1.3c-5.2-4.1-6.6-9.3-6.5-14.3l0,0c-0.3-0.1-1.8-0.6-2.6,1.1l-1.5-0.7c0.9-2,2.6-2.4,3.8-2.2
		c0.1,0,0.3,0.1,0.4,0.1c0.5-5.3,2.6-10,3.7-12.1c-6.4,0.2-11.3,3.3-14.6,9.4c0.9,0.7,4.7,3.9,3.2,8l-1.6-0.6
		c0.9-2.7-1.5-5.1-2.5-5.9c-2.7,5.6-3.1,11.3-3.1,11.4l-1.7-0.1c0-0.2,0.9-11.5,7.7-18.5c-0.2-0.3-2.2-2.4-5-0.6l-0.9-1.4
		c1.4-0.9,2.7-1.1,3.8-1c1.6,0.2,2.8,1.1,3.4,1.8c1.6-1.4,3.5-2.6,5.7-3.3l-2.1,0.1c-0.4,0.1-0.6-0.4-0.3-0.7c1.4-1.3,4.3-4,6.7-6.4
		c3.4-3.3,3.1-15.9,3.1-15.9c-16.3-0.2-52.6-12.9-52.6-12.9c0-1.1,0.1-2.1,0.3-3c-8-2.9-14.6-9.8-21.1-15c-0.4-0.4-0.9-0.7-1.4-1.1
		c-1.5-0.2-3.1-0.3-4.6-0.4c-4.9-0.2-9.6,0-14.4,0.5c-1.2,5.6-4.8,10.7-4.8,10.7c6.6,0.6,10.5,3.4,12.5,5.6c0.9,0.9,0.2,2.6-1.1,2.6
		c-3.5,0.1-8.7,1-11.4,3.6c-1.1,1-2.3,1.4-3.4,1.5c1.2,1.2,2.1,2.7,1.8,4.5l-1.6-0.3c0.3-2-2.1-3.8-3.7-4.7
		c-0.6,1.1-1.8,3.4-2.7,6.3c1.1,1.9,3.2,5,4.8,5.2l-0.2,1.6c-2.1-0.2-4.1-2.9-5.2-4.6c-0.5,2.3-0.8,4.7-0.6,7.2
		c0.6-0.2,1.6-0.5,2.8-0.3c1.2,0.1,2.7,0.6,4.3,1.9l-1,1.3c-3.2-2.6-5.6-1.3-5.8-1.2c0.6,3.2,2.2,6.4,5.5,9l-1,1.3
		c-5.2-4.1-6.6-9.3-6.5-14.3l0,0c-0.3-0.1-1.8-0.6-2.6,1.1l-1.5-0.7c0.9-2,2.6-2.4,3.8-2.2c0.1,0,0.3,0.1,0.4,0.1
		c0.5-5.3,2.6-10,3.7-12.1c-6.4,0.2-11.3,3.3-14.6,9.4c0.9,0.7,4.7,3.9,3.2,8l-1.6-0.6c0.9-2.7-1.5-5.1-2.5-5.9
		c-2.7,5.6-3.1,11.3-3.1,11.4l-1.7-0.1c0-0.2,0.9-11.5,7.7-18.5c-0.2-0.3-2.2-2.4-5-0.6l-0.9-1.4c1.4-0.9,2.7-1.1,3.8-1
		c1.6,0.2,2.8,1.1,3.4,1.8c1.6-1.4,3.5-2.6,5.7-3.3l-2.1,0.1c-0.4,0.1-0.6-0.4-0.3-0.7c1.4-1.3,4.3-4,6.7-6.4c2.6-2.5,3-10.3,3.1-14
		c-3.3,0.5-6.6,0.9-10,1.3c-11.9,1.2-23.4,0-35.1-2c-1.7-0.3-3.4-0.6-5.1-0.9c-13.3,0.6-26.6,0.3-39.8-0.6c2,7.3-4.9,17.2-4.9,17.2
		c6.6,0.6,10.5,3.4,12.5,5.6c0.9,0.9,0.2,2.6-1.1,2.6c-3.5,0.1-8.7,1-11.4,3.6c-1.1,1-2.3,1.4-3.4,1.5c1.2,1.2,2.1,2.7,1.8,4.5
		l-1.6-0.3c0.3-2-2.1-3.8-3.7-4.7c-0.6,1-1.8,3.4-2.7,6.3c1.1,1.9,3.2,5,4.8,5.2l-0.2,1.6c-2.1-0.3-4.1-2.9-5.2-4.6
		c-0.5,2.2-0.8,4.6-0.6,7.1c0.6-0.2,1.6-0.5,2.8-0.3c1.2,0.1,2.7,0.6,4.3,1.9l-1,1.3c-3.2-2.6-5.5-1.4-5.8-1.2
		c0.6,3.2,2.2,6.4,5.5,9l-1,1.3c-5.2-4.1-6.6-9.3-6.5-14.3l0,0c-0.3-0.1-1.8-0.6-2.6,1.1l-1.5-0.7c0.9-2,2.6-2.4,3.8-2.2
		c0.1,0,0.3,0.1,0.4,0.1c0.5-5.3,2.6-10,3.7-12.1c-6.4,0.2-11.3,3.3-14.6,9.4c0.9,0.7,4.7,3.9,3.2,8l-1.6-0.6
		c0.9-2.7-1.5-5.1-2.5-5.9c-2.7,5.6-3.1,11.3-3.1,11.4l-1.7-0.1c0-0.2,0.9-11.5,7.7-18.5c-0.2-0.3-2.2-2.4-5-0.6l-0.9-1.4
		c1.4-0.9,2.7-1.1,3.8-1c1.6,0.2,2.8,1.1,3.4,1.8c1.6-1.4,3.5-2.6,5.7-3.3l-2.1,0.1c-0.4,0.1-0.6-0.4-0.3-0.7c1.4-1.3,4.3-4,6.7-6.4
		c3.4-3.3,3.1-15.9,3.1-15.9c-5.3,0-12.9-1.4-20.6-3.4c-10.1,2.5-20.2,5.2-30.6,6c-11,0.8-22.1-0.3-32.9-2.4
		c-4.5-0.9-9-1.9-13.5-3.1c-5.5-0.4-11.1-1.3-16.6-2.4c-1.7-0.3-3.5-0.7-5.2-1.1c-14.7,1.9-29.5,1.8-43.4-4.2
		c-0.9,1.8-3.7,3.1-7-1.3c-2.4-3.3-7.6-3.5-11.7-3.1c-1.3,2.7-4,7-8,7.7c0,0-0.7,5.2-2,6.2c-1.3,1-10.5,9.5-15.4,7.2
		s-9.8-8.2-8.8-10.2s7.2,2.6,7.2,2.6s-2.6-6.5,0.7-9.8c0,0-1.1-4.9,1.7-8.5c-0.3-2.5,0-5,0-5c-0.6-0.3-0.9-1.1-1.1-2.3
		c-7.2,7.5-16.4,14-26.2,12.4c-16.8-2.5-15-15.4-6.8-19.5c5-2.5,8.9-6.7,10.7-12c3.1-9.1,9.1-20.2,18.7-19.6c1.8,0.1,4,0.3,6.6,0.5
		l-7.9-9.8l-17.9-2.3l0.3-2.7l19.4,2.5l0.2-0.2l0.2,0.2l35.4,4.4l0.3-0.1l0.2,0.2l48.8,6.1c9.6,1.2,16.5,10,15.2,19.6
		c-0.7,5.5-3.9,10.4-8.7,13.1l-0.2,0.1l-1.4-2.4l0.2-0.1c4-2.3,6.7-6.4,7.3-11c1-8.1-4.8-15.5-12.9-16.5l-11.7-1.4l-10.1,7.1
		c4.3,0.6,6.9,0.9,6.9,0.9c8.7,1,14.7,9.2,13,17.9c-1.4,7.4-8.1,12.7-15.6,12.4c-5.7-0.3-10.4-3.6-12.8-8.2l-0.5,0.7
		c0,0-0.5-1.7-1.8-3.8c-2,2.6-4.9,5.6-8.1,8.5c3.1,1.2,6.2,3.6,8.5,5.7c0.1-0.1,0.2-0.2,0.4-0.1c14.8,5.5,29.6,11.5,44.7,16.4
		c6.3-1.1,12.6-2.4,18.7-3.5c11.4-2.3,22.9-4.3,34.5-4.2c2.4,0,4.8,0.1,7.2,0.3c0.6-3.2,2-5.5,3.8-7.3l-0.7,0c0.9-4-4-6.6-8.7-12.2
		c-3.3-3.9,0.2-15.2,2.7-21.7c0.4-1.1,2-0.8,2,0.3l0.1,13.5c0,0.8,0.5,1.6,1.3,1.9c2.2,1,4.1,1.9,5.7,2.9c-0.1-3.2,1.4-7.9,2.5-11
		c0.3-0.7,1.3-0.5,1.3,0.2l0.1,8.6c0,0.5,0.3,1,0.8,1.2c8.2,3.5,10.2,7.7,10.7,9.9c15.3-1.7,27.1,2.3,34.8,6.5
		c0.2-2.7-0.1-6.3-2.2-9.3c-0.3-0.3-0.2-0.8,0.1-1.1l0.9-0.8c0.4-0.4,1-0.3,1.3,0.1c1.4,2.1,5.1,8,3.8,13.4c1,0.7,2,1.4,2.8,2
		c0.4,0,0.7-0.1,1.1-0.1c1.3-0.1,2.6-0.2,3.9-0.3c0.6-6-1-13.3-2.4-18.2c-0.4-1.3,1.5-2.3,2.3-1.1c4.6,6.3,5.5,13.4,5.1,19.1
		c9.5-0.5,19.1-0.5,28.6-0.3c0.3-4,2-7,4.1-9.1l-0.7,0c0.9-4-4-6.6-8.7-12.2c-3.3-3.9,0.2-15.2,2.7-21.7c0.4-1.1,2-0.8,2,0.3
		l0.1,13.5c0,0.8,0.5,1.6,1.3,1.9c2.2,1,4.1,1.9,5.7,2.9c-0.1-3.2,1.4-7.9,2.5-11c0.3-0.7,1.3-0.5,1.3,0.2l0.1,8.6
		c0,0.5,0.3,1,0.8,1.2c8.2,3.5,10.2,7.7,10.7,9.9c15.3-1.7,27.1,2.3,34.8,6.5c0.2-2.7-0.1-6.3-2.2-9.3c-0.3-0.3-0.2-0.8,0.1-1.1
		l0.9-0.8c0.4-0.4,1-0.3,1.3,0.1c1.4,2.1,5.1,8,3.8,13.4c4.6,3,7,5.6,7,5.6c2.2-6.4,0.1-16.1-1.6-22.2c-0.4-1.3,1.5-2.3,2.3-1.1
		c7,9.7,5.3,21.4,3.9,26.9c-0.5,1.8-2.2,2.8-4,2.3l-8.4-2.4c0.9,0.5,1.7,1,2.3,1.6c0.1,0.1,0.2,0.1,0.3,0.1
		c4.2,0.9,8.4,1.9,12.5,3.1c0.4,0,0.7,0,1.1,0c7.7-0.1,15.6,0.4,23.3,1.7c-1.3-4.9,1.5-13.9,3.7-19.5c0.4-1,2-0.7,2,0.4l0.1,13.5
		c0,0.8,0.5,1.6,1.3,1.9c2.2,1,4.1,1.9,5.7,2.9c-0.1-3.2,1.4-7.9,2.5-11c0.3-0.7,1.3-0.5,1.3,0.2l0.1,8.6c0,0.5,0.3,1,0.8,1.2
		c8.2,3.5,10.2,7.7,10.7,9.9c15.3-1.7,27.1,2.3,34.8,6.5c0.2-2.7-0.1-6.3-2.2-9.3c-0.3-0.3-0.2-0.8,0.1-1.1l0.9-0.8
		c0.4-0.4,1-0.3,1.3,0.1c1.4,2.1,5.1,8,3.8,13.4c4.6,3,7,5.6,7,5.6c2.2-6.4,0.1-16.1-1.6-22.2c-0.4-1.3,1.5-2.3,2.3-1.1
		C3645.2,213,3643.6,224.7,3642.5,230.5z M3979.9,150.8l3.2,1.8c0.6-0.5,1.4-0.6,2.1-0.2c0.9,0.5,1.2,1.7,0.7,2.6s-1.7,1.2-2.6,0.7
		c-0.6-0.4-1-1.2-0.9-1.9l-3.2-1.8l0.7,2.5c0.1,0.4-0.1,0.8-0.5,0.9c-0.4,0.1-0.8-0.1-0.9-0.5l-1.1-3.9l-2.9-1.6l1.6,5.6
		c0.1,0.4-0.1,0.8-0.5,0.9s-0.8-0.1-0.9-0.5l-1.9-7l-2.8-1.6l0.7,2.5c0.1,0.4-0.1,0.8-0.5,0.9s-0.8-0.1-0.9-0.5l-1.1-3.9l-3-1.7
		c-1.1,1.7-2.6,3.2-4.3,4.3l1,1.8c0.4-0.1,0.8-0.2,1.2-0.2c1.4,0,2.7,0.7,3.4,2c0.5,0.9,0.7,1.9,0.4,2.9c-0.2,0.7-0.6,1.4-1.2,1.9
		l1.1,1.9c0.8-0.1,1.5,0.2,1.9,0.9c0.5,0.9,0.2,2.1-0.7,2.6c-0.9,0.5-2.1,0.2-2.6-0.7c-0.3-0.7-0.3-1.5,0.2-2.1l-1.1-1.9
		c-1.7,0.6-3.7-0.1-4.6-1.7c-0.9-1.7-0.5-3.7,0.9-4.9l-1-1.8c-1.6,0.8-3.5,1.3-5.5,1.4l0,3.5l2.9,2.9c0.3,0.3,0.3,0.7,0,1
		c-0.3,0.3-0.7,0.3-1,0l-1.9-1.9l0,3.2l5.1,5.1c0.3,0.3,0.3,0.7,0,1c-0.3,0.3-0.7,0.3-1,0l-4.1-4.1l0,3.3l2.9,2.9
		c0.3,0.3,0.3,0.7,0,1c-0.3,0.3-0.7,0.3-1,0l-1.9-1.9l0,3.7c0.7,0.2,1.2,0.9,1.2,1.7c0,1.1-0.8,1.9-1.9,1.9s-1.9-0.9-1.9-1.9
		c0-0.7,0.5-1.4,1.2-1.7l0-3.7l-1.9,1.9c-0.3,0.3-0.7,0.3-1,0c-0.3-0.3-0.3-0.7,0-1l2.9-2.9l0-3.7l-4.1,4.1c-0.3,0.3-0.7,0.3-1,0
		c-0.3-0.3-0.3-0.7,0-1l5.1-5.1l0-3.2l-1.9,1.9c-0.3,0.3-0.7,0.3-1,0c-0.3-0.3-0.3-0.7,0-1l2.9-2.9l0-3.5c-2.1-0.1-4-0.6-5.7-1.5
		l-1.1,1.8c0.6,0.5,1,1.1,1.2,1.9c0.3,1,0.1,2-0.4,2.9c-0.6,0.9-1.4,1.5-2.4,1.8c-0.8,0.2-1.6,0.2-2.3-0.1l-1.1,1.9
		c0.4,0.6,0.5,1.4,0.1,2.1c-0.5,0.9-1.7,1.2-2.6,0.7s-1.2-1.7-0.7-2.6c0.4-0.7,1.2-1,1.9-0.9l1.1-1.9c-0.6-0.5-1-1.1-1.2-1.9
		c-0.3-1-0.1-2,0.4-2.9c0.7-1.2,2-1.9,3.3-1.9c0.5,0,0.9,0.1,1.3,0.2l1.1-1.8c-1.6-1.1-3-2.5-4.1-4.2l-3.1,1.8l-1.1,3.9
		c-0.1,0.4-0.5,0.6-0.9,0.5c-0.4-0.1-0.6-0.5-0.5-0.9l0.7-2.5l-2.8,1.6l-1.9,7c-0.1,0.4-0.5,0.6-0.9,0.5c-0.4-0.1-0.6-0.5-0.5-0.9
		l1.6-5.6l-2.9,1.6l-1.1,3.9c-0.1,0.4-0.5,0.6-0.9,0.5c-0.4-0.1-0.6-0.5-0.5-0.9l0.7-2.5l-3.2,1.8c0.1,0.8-0.2,1.5-0.9,1.9
		c-0.9,0.5-2.1,0.2-2.6-0.7c-0.5-0.9-0.2-2.1,0.7-2.6c0.7-0.4,1.5-0.3,2.1,0.2l3.2-1.8l-2.5-0.7c-0.4-0.1-0.6-0.5-0.5-0.9
		c0.1-0.3,0.4-0.5,0.7-0.5c0.1,0,0.1,0,0.2,0l3.9,1.1l2.9-1.6l-5.6-1.6c-0.4-0.1-0.6-0.5-0.5-0.9c0.1-0.3,0.4-0.5,0.7-0.5
		c0.1,0,0.1,0,0.2,0l7,1.9l2.8-1.6l-2.5-0.7c-0.4-0.1-0.6-0.5-0.5-0.9c0.1-0.3,0.4-0.5,0.7-0.5c0.1,0,0.1,0,0.2,0l3.9,1.1l3.1-1.8
		c-0.8-1.7-1.3-3.5-1.4-5.5l-2.1,0c-0.3,1.8-1.9,3.2-3.8,3.2c-1.9,0-3.5-1.4-3.8-3.2l-2.2,0c-0.2,0.7-0.9,1.2-1.7,1.2
		c-1.1,0-1.9-0.8-1.9-1.9c0-1.1,0.9-1.9,1.9-1.9c0.7,0,1.4,0.5,1.7,1.2l2.2,0c0.3-1.8,1.9-3.2,3.8-3.2c1.9,0,3.5,1.4,3.8,3.2l2.1,0
		c0.1-2,0.7-4,1.6-5.7l-3.1-1.8l-3.9,1c-0.4,0.1-0.8-0.1-0.9-0.5c-0.1-0.4,0.1-0.8,0.5-0.9l2.6-0.7l-2.8-1.6l-7,1.8
		c-0.4,0.1-0.8-0.1-0.9-0.5c-0.1-0.4,0.1-0.8,0.5-0.9l5.6-1.4l-2.8-1.7l-3.9,1c-0.4,0.1-0.8-0.1-0.9-0.5c-0.1-0.4,0.1-0.8,0.5-0.9
		l2.6-0.7l-3.2-1.9c-0.6,0.4-1.4,0.5-2.1,0.1c-0.9-0.5-1.2-1.7-0.7-2.6c0.5-0.9,1.7-1.2,2.6-0.7c0.7,0.4,1,1.2,0.9,1.9l3.2,1.9
		l-0.7-2.6c-0.1-0.4,0.1-0.8,0.5-0.9c0.1,0,0.1,0,0.2,0c0.3,0,0.6,0.2,0.7,0.5l1,3.9l2.8,1.7l-1.4-5.6c-0.1-0.4,0.1-0.8,0.5-0.9
		c0.1,0,0.1,0,0.2,0c0.3,0,0.6,0.2,0.7,0.5l1.8,7l2.8,1.6l-0.7-2.6c-0.1-0.4,0.1-0.8,0.5-0.9c0.1,0,0.1,0,0.2,0
		c0.3,0,0.6,0.2,0.7,0.5l1,3.9l3.1,1.8c1-1.6,2.5-3,4.1-4l-1-1.8c-1.7,0.5-3.7-0.2-4.6-1.8c-0.9-1.7-0.5-3.7,0.9-4.9l-1.1-1.9
		c-0.8,0.1-1.5-0.2-1.9-0.9c-0.5-0.9-0.2-2.1,0.7-2.6c0.9-0.5,2.1-0.2,2.6,0.7c0.4,0.7,0.3,1.5-0.2,2.1l1.1,1.9
		c0.4-0.1,0.8-0.2,1.2-0.2c1.4,0,2.7,0.7,3.4,2c0.9,1.7,0.5,3.7-0.9,4.9l1,1.8c1.7-0.8,3.5-1.3,5.5-1.4l0-3.5l-2.9-2.9
		c-0.3-0.3-0.3-0.7,0-1c0.1-0.1,0.3-0.2,0.5-0.2s0.4,0.1,0.5,0.2l1.9,1.9l0-3.2l-5.1-5.1c-0.3-0.3-0.3-0.7,0-1
		c0.1-0.1,0.3-0.2,0.5-0.2s0.4,0.1,0.5,0.2l4.1,4.1l0-3.3l-2.9-2.9c-0.3-0.3-0.3-0.7,0-1c0.1-0.1,0.3-0.2,0.5-0.2
		c0.2,0,0.4,0.1,0.5,0.2l1.9,1.9l0-3.7c-0.7-0.2-1.2-0.9-1.2-1.7c0-1.1,0.9-1.9,1.9-1.9c1.1,0,1.9,0.9,1.9,1.9
		c0,0.7-0.5,1.4-1.2,1.7l0,3.7l1.9-1.9c0.1-0.1,0.3-0.2,0.5-0.2c0.2,0,0.4,0.1,0.5,0.2c0.3,0.3,0.3,0.7,0,1l-2.9,2.9l0,3.3l4.1-4.1
		c0.1-0.1,0.3-0.2,0.5-0.2s0.4,0.1,0.5,0.2c0.3,0.3,0.3,0.7,0,1l-5.1,5.1l0,3.2l1.9-1.9c0.1-0.1,0.3-0.2,0.5-0.2s0.4,0.1,0.5,0.2
		c0.3,0.3,0.3,0.7,0,1l-2.9,2.9l0,3.5c2,0.1,3.9,0.6,5.6,1.5l1-1.8c-0.6-0.5-1-1.1-1.2-1.9c-0.3-1-0.1-2,0.4-2.9
		c0.5-0.9,1.3-1.5,2.3-1.8c0.3-0.1,0.7-0.1,1-0.1c0.5,0,0.9,0.1,1.3,0.2l1.1-1.9c-0.4-0.6-0.5-1.4-0.1-2.1c0.5-0.9,1.7-1.2,2.6-0.7
		c0.9,0.5,1.2,1.7,0.7,2.6c-0.4,0.7-1.2,1-1.9,0.9l-1.1,1.9c1.4,1.2,1.7,3.3,0.8,4.9s-2.9,2.3-4.6,1.7l-1,1.8c1.6,1.1,3,2.5,4.1,4.1
		l3-1.7l1.1-3.9c0.1-0.3,0.4-0.5,0.7-0.5c0.1,0,0.1,0,0.2,0c0.4,0.1,0.6,0.5,0.5,0.9l-0.7,2.6l2.8-1.6l1.9-7
		c0.1-0.3,0.4-0.5,0.7-0.5c0.1,0,0.1,0,0.2,0c0.4,0.1,0.6,0.5,0.5,0.9l-1.5,5.6l2.9-1.7l1.1-3.9c0.1-0.3,0.4-0.5,0.7-0.5
		c0.1,0,0.1,0,0.2,0c0.4,0.1,0.6,0.5,0.5,0.9l-0.7,2.6l3.2-1.8c-0.1-0.7,0.2-1.5,0.9-1.9c0.9-0.5,2.1-0.2,2.6,0.7
		c0.5,0.9,0.2,2.1-0.7,2.6c-0.7,0.4-1.5,0.4-2.1-0.1l-3.2,1.8l2.6,0.7c0.4,0.1,0.6,0.5,0.5,0.9c-0.1,0.4-0.5,0.6-0.9,0.5l-3.9-1
		l-2.9,1.7l5.6,1.5c0.4,0.1,0.6,0.5,0.5,0.9s-0.5,0.6-0.9,0.5l-7-1.9l-2.8,1.6l2.6,0.7c0.4,0.1,0.6,0.5,0.5,0.9
		c-0.1,0.4-0.5,0.6-0.9,0.5l-3.9-1.1l-3,1.7c0.9,1.8,1.4,3.8,1.5,5.9l2,0c0.2-0.8,0.5-1.5,1.1-2c0.7-0.7,1.7-1.1,2.7-1.1
		c0.1,0,0.1,0,0.1,0c1,0,2,0.5,2.7,1.2c0.5,0.5,0.9,1.2,1,2l2.2,0c0.3-0.6,1-1.1,1.8-1.1c1.1,0,1.9,0.9,1.9,1.9
		c0,1.1-0.9,1.9-1.9,1.9c-0.8,0-1.4-0.5-1.7-1.2l-2.2,0c-0.4,1.8-2,3.1-3.9,3.1c-1,0-2-0.5-2.7-1.2c-0.5-0.5-0.9-1.2-1-2l-2,0
		c-0.1,1.9-0.6,3.7-1.4,5.3l3,1.7l3.9-1.1c0.1,0,0.1,0,0.2,0c0.3,0,0.6,0.2,0.7,0.5c0.1,0.4-0.1,0.8-0.5,0.9l-2.5,0.7l2.8,1.6l7-1.9
		c0.1,0,0.1,0,0.2,0c0.3,0,0.6,0.2,0.7,0.5c0.1,0.4-0.1,0.8-0.5,0.9l-5.6,1.6l2.9,1.6l3.9-1.1c0.1,0,0.1,0,0.2,0
		c0.3,0,0.6,0.2,0.7,0.5c0.1,0.4-0.1,0.8-0.5,0.9L3979.9,150.8z"/>
	<path class="elementor-shape-fill ha-shape-divider" d="M2924.9,178.2c-0.2-0.4-0.6-0.5-0.9-0.3c-0.4,0.2-0.5,0.6-0.3,0.9c0.1,0.1,0.2,0.2,0.4,0.3c0.1,0,0.1,0,0.2,0
		c0.1,0,0.2,0,0.3-0.1l0,0C2925,178.8,2925.1,178.4,2924.9,178.2z"/>
	<circle class="elementor-shape-fill ha-shape-divider" cx="2881.1" cy="153.2" r="0.7"/>
	<path class="elementor-shape-fill ha-shape-divider" d="M2892.2,176.2l-7-4l1.5,5.2c0,0.1,0,0.3,0,0.4l-1.6,5.2l7-4c-0.2-0.5-0.3-0.9-0.3-1.4
		C2891.8,177.2,2891.9,176.7,2892.2,176.2z"/>
	<path class="elementor-shape-fill ha-shape-divider" d="M2899.7,178.8l6.9,3.9l-1.5-5c0-0.1,0-0.3,0-0.4l1.5-5.1l-7,4c0.1,0.5,0.2,0.9,0.2,1.4
		C2899.8,178.1,2899.8,178.5,2899.7,178.8z"/>
	<path class="elementor-shape-fill ha-shape-divider" d="M2895.1,173.7l0-8.1l-3.7,3.9c-0.1,0.1-0.3,0.2-0.4,0.2l-5.3,1.3l7,4C2893.3,174.3,2894.1,173.8,2895.1,173.7z"/>
	<path class="elementor-shape-fill ha-shape-divider" d="M2891.4,185.9l3.7,3.9l0-8.1c-1-0.2-1.8-0.7-2.4-1.4l-7,4l5.3,1.2C2891.1,185.6,2891.3,185.6,2891.4,185.9z"/>
	<path class="elementor-shape-fill ha-shape-divider" d="M2896.5,181.5l0,8.1l3.7-3.9c0.1-0.1,0.3-0.2,0.4-0.2l5.4-1.3l-7.1-4C2898.3,180.9,2897.5,181.4,2896.5,181.5z"/>
	<path class="elementor-shape-fill ha-shape-divider" d="M2898.9,175l7-4l-5.3-1.3c-0.2,0-0.3-0.1-0.4-0.2l-3.7-3.9l0,8.1C2897.5,173.8,2898.3,174.3,2898.9,175z"/>
	<path class="elementor-shape-fill ha-shape-divider" d="M2919.8,177.5c-0.2-0.3-0.4-0.5-0.7-0.6s-0.6,0-0.9,0.1c-0.3,0.2-0.5,0.4-0.6,0.7c-0.1,0.3,0,0.6,0.1,0.9
		c0.2,0.3,0.4,0.5,0.7,0.6c0.1,0.1,0.2,0.1,0.3,0.1c0.1,0,0.3,0,0.5-0.1C2919.8,179,2920,178.3,2919.8,177.5z"/>
	<path class="elementor-shape-fill ha-shape-divider" d="M3311.9,210c-1-0.1-2-0.2-3-0.3c1.4,0.2,2.7,0.4,4.1,0.6C3312.6,210.2,3312.3,210.1,3311.9,210z"/>
	<path class="elementor-shape-fill ha-shape-divider" d="M2871.9,177.6c-0.3,0.6-0.1,1.3,0.5,1.6c0.3,0.2,0.6,0.2,0.9,0.1c0.3-0.1,0.6-0.3,0.7-0.6c0.2-0.3,0.2-0.6,0.1-0.9
		c-0.1-0.3-0.3-0.6-0.6-0.7C2873,176.8,2872.3,177,2871.9,177.6z"/>
	<path class="elementor-shape-fill ha-shape-divider" d="M3965,142c0.8-1.6,1.3-3.5,1.3-5.5c0-2-0.5-3.9-1.4-5.6l-3.4,2l-1.1,3.7l1.1,3.5L3965,142z"/>
	<path class="elementor-shape-fill ha-shape-divider" d="M3252.9,201.1c0.3,0.4,0.5,0.8,0.6,1c0.1,0.3,0.1,0.6,0,0.9c12.9,5.6,26.7,6.1,40.5,4.5c-5-1.2-10-2.5-14.9-3.8
		c-0.8-0.3-1.7-0.5-2.5-0.7C3268.8,201.3,3260.9,200.2,3252.9,201.1z"/>
	<circle class="elementor-shape-fill ha-shape-divider" cx="2883.9" cy="158.1" r="1.2"/>
	<circle class="elementor-shape-fill ha-shape-divider" cx="2909.9" cy="153.3" r="0.7"/>
	<path class="elementor-shape-fill ha-shape-divider" d="M2866.7,177.9c-0.2,0.3,0,0.7,0.3,0.9c0.1,0.1,0.2,0.1,0.3,0.1c0.2,0,0.5-0.2,0.6-0.4c0.2-0.3,0-0.7-0.3-0.9
		c-0.1-0.1-0.3-0.2-0.5-0.1C2867,177.6,2866.8,177.7,2866.7,177.9z"/>
	<circle class="elementor-shape-fill ha-shape-divider" cx="2907.1" cy="158.2" r="1.2"/>
</g>
</svg>
