<svg xmlns="http://www.w3.org/2000/svg" viewBox="0 0 4080 380" preserveAspectRatio="none">
<g>
	<path class="elementor-shape-fill ha-shape-divider" d="M1581.6,289.1l5.5,1.4c-0.3-7.9-2.9-11.6-3.2-12l-4.7-5.1C1580.4,277.1,1581.5,282.3,1581.6,289.1z"/>
	<path class="elementor-shape-fill ha-shape-divider" d="M1585.5,277.2c0,0,0,0.1,0.1,0.1c1,0.8,4.6,3.3,11.4,2.7l-1.1-6.6c-6.8,0.7-11.9-0.5-15.5-1.9L1585.5,277.2
		C1585.4,277.1,1585.4,277.2,1585.5,277.2z"/>
	<path class="elementor-shape-fill ha-shape-divider" d="M1554.1,289.7l3.7,5.6c5.6-4.4,6.3-8.9,6.4-9.8v-0.2v-7.5C1562.5,281.3,1559.5,285.6,1554.1,289.7z"/>
	<path class="elementor-shape-fill ha-shape-divider" d="M1575.3,291.7c-4.7-5.1-7.3-9.7-8.9-13.3v7c0,0.5,0.6,5,5.8,11L1575.3,291.7z"/>
	<path class="elementor-shape-fill ha-shape-divider" d="M1598.5,267.6l5.6-3.7c-4.2-5.3-8.5-6.2-9.7-6.4c-0.1,0-0.2,0-0.2,0c-0.1,0-0.1,0-0.1,0h-7.5
		C1590.1,259.2,1594.3,262.2,1598.5,267.6z"/>
	<path class="elementor-shape-fill ha-shape-divider" d="M558,54.5c-1.9,0-3.4,1.5-3.4,3.4c0,1.9,1.5,3.4,3.4,3.4c1.1,0,2.1-0.5,2.7-1.3c0.4-0.4,0.6-1,0.7-1.6c0-0.2,0-0.3,0-0.5
		C561.4,56,559.9,54.5,558,54.5z"/>
	<path class="elementor-shape-fill ha-shape-divider" d="M1572.7,217.7c-5.3,4.2-6.2,8.5-6.4,9.7c0,0.1,0,0.2,0,0.2c0,0.1,0,0.1,0,0.1v7.5c1.6-3.5,4.6-7.8,10.1-11.9L1572.7,217.7z
		"/>
	<path class="elementor-shape-fill ha-shape-divider" d="M1532.5,272.8l-1.4,5.5c4.3-0.1,7.3-1,9.2-1.7c1.7-0.7,2.7-1.3,2.9-1.5l5.1-4.7C1544.8,271.5,1539.6,272.8,1532.5,272.8z"
		/>
	<path class="elementor-shape-fill ha-shape-divider" d="M1582.1,242.6c3.5-1.2,8.7-2.4,15.8-2.4l1.4-5.5c-7.7,0.2-11,2.4-11.8,3c-0.1,0.1-0.2,0.2-0.2,0.2L1582.1,242.6z"/>
	<path class="elementor-shape-fill ha-shape-divider" d="M1605.1,249.6l-4.7-3.1c-5.3,4.8-10,7.4-13.4,8.9h7c0,0,0.1,0,0.3,0C1595.4,255.3,1599.3,254.6,1605.1,249.6z"/>
	<path class="elementor-shape-fill ha-shape-divider" d="M1585.8,236.3C1585.8,236.3,1585.9,236.3,1585.8,236.3c0.1-0.1,0.1-0.1,0.2-0.2c0.8-0.9,3.4-4.5,2.8-11.3l-6.7,1
		c0.7,6.8-0.4,11.9-1.9,15.5L1585.8,236.3z"/>
	<path class="elementor-shape-fill ha-shape-divider" d="M1555.2,221.3c4.6,5.1,7.3,9.7,8.9,13.3v-7c-0.1-0.5-0.6-5-5.8-11L1555.2,221.3z"/>
	<path class="elementor-shape-fill ha-shape-divider" d="M1142.5,135.7L1142.5,135.7c0.9-0.1,1.6-0.7,1.6-1.6c0-0.3-0.2-0.7-0.5-1c-0.3-0.4-0.7-0.6-1.2-0.6c-0.1,0-0.3,0-0.5,0.1
		c-0.7,0.2-1.1,0.8-1,1.5c0,0.2,0.1,0.5,0.2,0.7C1141.3,135.3,1141.9,135.7,1142.5,135.7z"/>
	<path class="elementor-shape-fill ha-shape-divider" d="M1097.3,151.3c0,21.1,17.1,38.2,38.2,38.2s38.2-17.1,38.2-38.2s-17.1-38.2-38.2-38.2S1097.3,130.2,1097.3,151.3z
		 M1142.3,130.6c0.1,0,0.1,0,0.2,0l0.8-2c-1.4-0.9-2.4-2.5-2.4-4.3c0-2.8,2.3-5.1,5.1-5.1c2.8,0,5.1,2.3,5.1,5.1s-2.3,5.1-5.1,5.1
		c-0.4,0-0.8,0-1.1-0.1l-0.7,1.8c0.9,0.6,1.5,1.6,1.5,2.8c0,1.9-1.5,3.4-3.4,3.4c-0.1,0-0.3,0-0.5-0.1l-4.8,12.4l12.4-4.8
		c-0.1-0.2-0.1-0.3-0.1-0.5c0-1.9,1.5-3.4,3.4-3.4c1.2,0,2.2,0.6,2.8,1.5l1.9-0.7c-0.1-0.4-0.1-0.7-0.1-1.1c0-2.8,2.3-5.1,5.1-5.1
		c2.8,0,5.1,2.3,5.1,5.1s-2.3,5.1-5.1,5.1c-1.8,0-3.4-1-4.3-2.4l-2,0.8c0,0.1,0,0.1,0,0.2c0,1.9-1.4,3.4-3.3,3.4
		c-1.1,0-2-0.5-2.6-1.2l-12.2,4.7l12.2,4.7c0.6-0.7,1.6-1.2,2.6-1.2c1.8,0,3.3,1.5,3.3,3.4c0,0.1,0,0.1,0,0.2l2,0.8
		c0.9-1.4,2.5-2.4,4.3-2.4c2.8,0,5.1,2.3,5.1,5.1s-2.3,5.1-5.1,5.1c-2.8,0-5.1-2.3-5.1-5.1c0-0.4,0-0.7,0.1-1.1l-1.9-0.7
		c-0.6,0.9-1.6,1.5-2.8,1.5c-1.9,0-3.4-1.5-3.4-3.4c0-0.1,0-0.3,0.1-0.5l-12.4-4.8l4.8,12.4c0.1-0.1,0.3-0.1,0.5-0.1
		c1.9,0,3.4,1.5,3.4,3.4c0,1.2-0.6,2.2-1.5,2.8l0.7,1.8c0.4-0.1,0.7-0.1,1.1-0.1c2.8,0,5.1,2.3,5.1,5.1s-2.3,5.1-5.1,5.1
		c-2.8,0-5.1-2.3-5.1-5.1c0-1.8,1-3.4,2.4-4.3l-0.8-2c-0.1,0-0.1,0-0.2,0c-1.9,0-3.4-1.5-3.4-3.4c0-1.1,0.5-2,1.2-2.6l-4.7-12.2
		l-4.7,12.2c0.7,0.6,1.2,1.6,1.2,2.6c0,1.9-1.6,3.4-3.4,3.4c-0.1,0-0.1,0-0.2,0l-0.8,2c1.4,0.9,2.4,2.5,2.4,4.3
		c0,2.8-2.3,5.1-5.1,5.1c-2.8,0-5.1-2.3-5.1-5.1s2.3-5.1,5.1-5.1c0.4,0,0.8,0,1.1,0.1l0.7-1.8c-0.9-0.6-1.5-1.6-1.5-2.8
		c0-1.9,1.5-3.4,3.4-3.4c0.2,0,0.3,0,0.5,0.1l4.8-12.4l-12.4,4.8c0.1,0.2,0.1,0.3,0.1,0.5c0,1.9-1.5,3.4-3.4,3.4
		c-1.2,0-2.2-0.6-2.8-1.5l-1.9,0.7c0.1,0.4,0.1,0.7,0.1,1.1c0,2.8-2.3,5.1-5.1,5.1c-2.8,0-5.1-2.3-5.1-5.1s2.3-5.1,5.1-5.1
		c1.8,0,3.4,1,4.3,2.4l2-0.8c0-0.1,0-0.1,0-0.2c0-1.9,1.4-3.4,3.3-3.4c1.1,0,2,0.5,2.6,1.2l12.2-4.7l-12.2-4.7
		c-0.6,0.7-1.6,1.2-2.6,1.2c-1.8,0-3.3-1.5-3.3-3.4c0-0.1,0-0.1,0-0.2l-2-0.8c-0.9,1.4-2.5,2.4-4.3,2.4c-2.8,0-5.1-2.3-5.1-5.1
		s2.3-5.1,5.1-5.1c2.8,0,5.1,2.3,5.1,5.1c0,0.4,0,0.7-0.1,1.1l1.9,0.7c0.6-0.9,1.6-1.5,2.8-1.5c1.9,0,3.4,1.5,3.4,3.4
		c0,0.2,0,0.3-0.1,0.5l12.4,4.8l-4.8-12.4c-0.2,0.1-0.3,0.1-0.5,0.1c-1.9,0-3.4-1.5-3.4-3.4c0-1.2,0.6-2.2,1.5-2.8l-0.7-1.8
		c-0.4,0.1-0.7,0.1-1.1,0.1c-2.8,0-5.1-2.3-5.1-5.1s2.3-5.1,5.1-5.1c2.8,0,5.1,2.3,5.1,5.1c0,1.8-1,3.4-2.4,4.3l0.8,2
		c0.1,0,0.1,0,0.2,0c1.9,0,3.4,1.5,3.4,3.4c0,1.1-0.5,2-1.2,2.6l4.7,12.2l4.7-12.2c-0.7-0.6-1.2-1.5-1.2-2.6
		C1138.9,132.1,1140.4,130.6,1142.3,130.6z"/>
	<path class="elementor-shape-fill ha-shape-divider" d="M1144.1,127.2c0.4,0.4,1,0.6,1.6,0.7c0.1,0,0.3,0,0.4,0c1.9,0,3.4-1.5,3.4-3.4c0-1.8-1.5-3.3-3.4-3.3s-3.4,1.4-3.4,3.3
		C1142.7,125.5,1143.2,126.5,1144.1,127.2z"/>
	<path class="elementor-shape-fill ha-shape-divider" d="M1152,145.9c0.2,0.1,0.4,0.2,0.7,0.2c0.7,0,1.3-0.5,1.5-1.1c0.1-0.2,0.1-0.3,0.1-0.5c0-0.5-0.2-1-0.5-1.2
		c-0.2-0.3-0.6-0.5-1-0.5c-0.9,0-1.6,0.7-1.6,1.5c-0.1,0-0.1,0.1-0.1,0.2C1151.1,145.1,1151.5,145.7,1152,145.9z"/>
	<path class="elementor-shape-fill ha-shape-divider" d="M1562.4,249.6c-0.5,0.2-1,0.4-1.4,0.7c-0.6,0.4-1.1,0.8-1.6,1.4c-0.5,0.5-0.9,1.1-1.2,1.7c-0.3,0.7-0.4,1.4-0.5,2.1
		c-0.2,0.7-0.1,1.4,0,2.1c0.1,0.5,0.2,1,0.4,1.5l0.1,0.3c0.2,0.5,0.4,1,0.7,1.4c0.4,0.6,0.8,1.2,1.5,1.6c0.5,0.5,1,0.9,1.7,1.2
		s1.4,0.5,2.1,0.5c0.7,0.1,1.4,0.1,2.1,0c0.5-0.1,1-0.2,1.5-0.4l0.3-0.1c0.5-0.2,1-0.4,1.4-0.7c0.6-0.4,1.1-0.8,1.6-1.4
		c0.5-0.5,0.9-1.1,1.2-1.7c0.3-0.7,0.5-1.4,0.5-2.1s0-1.4-0.1-2.1c0-0.5-0.2-1-0.4-1.5l-0.1-0.3c-0.2-0.5-0.4-1-0.7-1.4
		c-0.4-0.6-0.8-1.1-1.4-1.6c-0.5-0.5-1.1-0.9-1.7-1.2c-0.7-0.3-1.4-0.5-2.1-0.5c-0.7-0.1-1.4-0.1-2.1,0c-0.5,0.1-1,0.2-1.5,0.4
		L1562.4,249.6z"/>
	<path class="elementor-shape-fill ha-shape-divider" d="M578.6,49.8c-0.2-0.1-0.3-0.1-0.5-0.1c-0.5,0-1,0.3-1.2,0.6c-0.4,0.2-0.5,0.6-0.5,1c0,0.9,0.7,1.6,1.5,1.6h0.1
		c0.6,0,1.2-0.4,1.4-0.9c0.2-0.2,0.3-0.5,0.3-0.7C579.7,50.6,579.2,50,578.6,49.8z"/>
	<path class="elementor-shape-fill ha-shape-divider" d="M1532,245.4l-5.6,3.7c4.2,5.3,8.5,6.2,9.7,6.4c0.1,0,0.2,0,0.3,0h7.5C1540.4,253.8,1536.1,250.8,1532,245.4z"/>
	<path class="elementor-shape-fill ha-shape-divider" d="M1536.1,257.6c-1,0.1-4.9,0.8-10.7,5.8l4.7,3.1c5.2-4.8,9.9-7.4,13.3-8.9h-7C1536.4,257.6,1536.3,257.6,1536.1,257.6z"/>
	<path class="elementor-shape-fill ha-shape-divider" d="M1544.6,276.7C1544.6,276.7,1544.5,276.7,1544.6,276.7c-0.1,0.1-0.2,0.1-0.2,0.2c-0.7,0.9-3.3,4.5-2.8,11.3l6.6-1
		c-0.6-6.8,0.6-11.9,2-15.5L1544.6,276.7z"/>
	<path class="elementor-shape-fill ha-shape-divider" d="M1159.7,142.9c0.7,0.8,1.6,1.3,2.7,1.3c1.9,0,3.4-1.5,3.4-3.4c0-1.9-1.5-3.4-3.4-3.4s-3.4,1.5-3.4,3.5c0,0.1,0,0.3,0,0.4
		C1159.1,141.9,1159.3,142.4,1159.7,142.9z"/>
	<path class="elementor-shape-fill ha-shape-divider" d="M1548.9,223.9l-5.5-1.4c0.3,7.9,2.9,11.6,3.2,12l4.7,5.1C1550,235.9,1548.9,230.7,1548.9,223.9z"/>
	<path class="elementor-shape-fill ha-shape-divider" d="M1544.9,235.8c-0.7-0.6-4.2-3.5-11.4-2.9l1,6.7c6.8-0.6,11.9,0.5,15.5,1.9l-5-5.6C1545,235.9,1545,235.9,1544.9,235.8z"/>
	<path class="elementor-shape-fill ha-shape-divider" d="M2094,355c0,1.8,1.5,3.3,3.4,3.3s3.4-1.4,3.4-3.3c0-1.9-1.5-3.4-3.4-3.4c-0.1,0-0.3,0-0.4,0c-0.6,0.1-1.2,0.3-1.7,0.7
		C2094.5,353,2094,353.9,2094,355z"/>
	<path class="elementor-shape-fill ha-shape-divider" d="M2093.2,346.7c0.1,0.1,0.3,0.1,0.5,0.1c0.5,0,1-0.3,1.2-0.6c0.4-0.2,0.5-0.6,0.5-1c0-0.9-0.7-1.6-1.5-1.6h-0.1
		c-0.6,0-1.2,0.4-1.4,0.9c-0.2,0.3-0.2,0.5-0.3,0.7C2092.1,345.9,2092.6,346.5,2093.2,346.7z"/>
	<path class="elementor-shape-fill ha-shape-divider" d="M2076.8,351.5c-0.1,0-0.3,0-0.4,0c-1.9,0-3.4,1.5-3.4,3.4c0,1.8,1.5,3.3,3.4,3.3s3.4-1.4,3.4-3.3c0-1.1-0.5-2-1.4-2.7
		C2078,351.8,2077.4,351.6,2076.8,351.5z"/>
	<path class="elementor-shape-fill ha-shape-divider" d="M2080,343.7h-0.1c-0.8,0.1-1.5,0.7-1.5,1.6c0,0.3,0.2,0.7,0.5,1c0.3,0.4,0.7,0.6,1.2,0.6c0.2,0,0.3,0,0.5-0.1
		c0.6-0.2,1.1-0.8,1-1.5c0-0.2-0.1-0.5-0.2-0.7C2081.2,344,2080.6,343.7,2080,343.7z"/>
	<path class="elementor-shape-fill ha-shape-divider" d="M2113.8,341.9c1.8,0,3.3-1.5,3.4-3.3c0-1.9-1.5-3.4-3.4-3.4c-1.1,0-2.1,0.5-2.7,1.3c-0.4,0.4-0.6,1-0.7,1.6
		c0,0.1,0,0.3,0,0.4C2110.4,340.4,2111.9,341.9,2113.8,341.9z"/>
	<path class="elementor-shape-fill ha-shape-divider" d="M2070.4,333.6c-0.2-0.1-0.4-0.2-0.7-0.2c-0.7,0-1.3,0.4-1.5,1c-0.1,0.2-0.1,0.3-0.1,0.5c0,0.5,0.2,1,0.5,1.2
		c0.3,0.3,0.7,0.5,1.1,0.5c0.9,0,1.6-0.7,1.6-1.5c0-0.1,0-0.1,0-0.1C2071.3,334.4,2070.9,333.8,2070.4,333.6z"/>
	<path class="elementor-shape-fill ha-shape-divider" d="M2093.9,312.4h0.1c0.8-0.1,1.5-0.7,1.5-1.6c0-0.3-0.2-0.7-0.5-1c-0.3-0.4-0.7-0.6-1.2-0.6c-0.1,0-0.3,0-0.5,0.1
		c-0.7,0.3-1.1,0.8-1,1.5c0,0.2,0.1,0.5,0.2,0.7C2092.7,312,2093.3,312.4,2093.9,312.4z"/>
	<path class="elementor-shape-fill ha-shape-divider" d="M2095.5,303.9c0.4,0.4,1,0.6,1.6,0.7c0.1,0,0.3,0,0.4,0c1.9,0,3.4-1.5,3.4-3.4c0-1.8-1.5-3.3-3.4-3.3s-3.4,1.4-3.4,3.3
		C2094.1,302.3,2094.6,303.3,2095.5,303.9z"/>
	<path class="elementor-shape-fill ha-shape-divider" d="M2113.8,321c1.9,0,3.4-1.5,3.4-3.4c0-1.9-1.5-3.4-3.4-3.4s-3.4,1.5-3.4,3.5c0,0.1,0,0.3,0,0.4c0.1,0.6,0.3,1.1,0.7,1.6
		C2111.8,320.5,2112.7,321,2113.8,321z"/>
	<path class="elementor-shape-fill ha-shape-divider" d="M577.8,41.5c0-1.8-1.5-3.3-3.4-3.3c-1.9,0-3.4,1.4-3.4,3.3s1.5,3.4,3.4,3.4c0.1,0,0.3,0,0.4,0c0.7,0,1.2-0.3,1.7-0.7
		C577.3,43.5,577.8,42.6,577.8,41.5z"/>
	<path class="elementor-shape-fill ha-shape-divider" d="M2103.4,322.7c0.2,0.1,0.4,0.2,0.7,0.2c0.7,0,1.3-0.5,1.5-1.1c0.1-0.2,0.1-0.3,0.1-0.5c0-0.5-0.2-1-0.5-1.2
		c-0.2-0.3-0.6-0.5-1-0.5c-0.9,0-1.6,0.7-1.6,1.5c-0.1,0-0.1,0.1-0.1,0.2C2102.5,321.9,2102.9,322.5,2103.4,322.7z"/>
	<path class="elementor-shape-fill ha-shape-divider" d="M2104.2,336.6c0.4,0,0.7-0.2,1-0.5c0.3-0.3,0.5-0.7,0.6-1.2c0-0.2,0-0.3-0.1-0.5c-0.2-0.5-0.8-1-1.5-1
		c-0.2,0-0.5,0.1-0.7,0.2c-0.5,0.2-0.9,0.8-0.9,1.4C2102.7,335.9,2103.3,336.6,2104.2,336.6z"/>
	<path class="elementor-shape-fill ha-shape-divider" d="M1731.6,10.8c-2,0-3.5,1.6-3.5,3.5c0,1.2,0.6,2.2,1.6,2.9c0.6,0,1.2,0,1.9,0s1.4,0,2,0c0.9-0.7,1.5-1.7,1.5-2.9
		C1735.1,12.3,1733.5,10.8,1731.6,10.8z"/>
	<path class="elementor-shape-fill ha-shape-divider" d="M1738.3,47.9c-1.9,0-3.4,1.5-3.4,3.4c0,1.1,0.5,2,1.2,2.6l-4.7,12.2l-4.7-12.2c0.7-0.6,1.2-1.5,1.2-2.6
		c0-1.9-1.5-3.4-3.4-3.4c-0.1,0-0.1,0-0.2,0l-0.8-2c1.4-0.9,2.4-2.5,2.4-4.3c0-2.8-2.3-5.1-5.1-5.1c-2.8,0-5.1,2.3-5.1,5.1
		c0,2.8,2.3,5.1,5.1,5.1c0.4,0,0.8,0,1.1-0.1l0.7,1.8c-0.9,0.6-1.5,1.6-1.5,2.8c0,1.9,1.5,3.4,3.4,3.4c0.1,0,0.3,0,0.5-0.1l4.8,12.4
		l-12.4-4.8c0.1-0.2,0.1-0.3,0.1-0.5c0-1.9-1.5-3.4-3.4-3.4c-1.2,0-2.2,0.6-2.8,1.5l-1.9-0.7c0.1-0.4,0.1-0.7,0.1-1.1
		c0-2.8-2.3-5.1-5.1-5.1c-2.8,0-5.1,2.3-5.1,5.1c0,2.8,2.3,5.1,5.1,5.1c1.8,0,3.4-1,4.3-2.4l2,0.8c0,0.1,0,0.1,0,0.2
		c0,1.9,1.4,3.4,3.3,3.4c1.1,0,2-0.5,2.6-1.2l12.2,4.7l-12.2,4.7c-0.6-0.7-1.6-1.2-2.6-1.2c-1.8,0-3.3,1.5-3.3,3.4
		c0,0.1,0,0.1,0,0.2l-2,0.8c-0.9-1.4-2.5-2.4-4.3-2.4c-2.8,0-5.1,2.3-5.1,5.1s2.3,5.1,5.1,5.1c2.8,0,5.1-2.3,5.1-5.1
		c0-0.4,0-0.7-0.1-1.1l1.9-0.7c0.6,0.9,1.6,1.5,2.8,1.5c1.9,0,3.4-1.5,3.4-3.4c0-0.1,0-0.3-0.1-0.5l12.4-4.8l-4.8,12.4
		c-0.1-0.1-0.3-0.1-0.5-0.1c-1.9,0-3.4,1.5-3.4,3.4c0,1.2,0.6,2.2,1.5,2.8l-0.7,1.8c-0.4-0.1-0.7-0.1-1.1-0.1
		c-2.8,0-5.1,2.3-5.1,5.1c0,2.8,2.3,5.1,5.1,5.1c2.8,0,5.1-2.3,5.1-5.1c0-1.8-1-3.4-2.4-4.3l0.8-2c0.1,0,0.1,0,0.2,0
		c1.9,0,3.4-1.5,3.4-3.4c0-1.1-0.5-2-1.2-2.6l4.7-12.2l4.7,12.2c-0.7,0.6-1.2,1.6-1.2,2.6c0,1.9,1.6,3.4,3.4,3.4c0.1,0,0.1,0,0.2,0
		l0.8,2c-1.4,0.9-2.4,2.5-2.4,4.3c0,2.8,2.3,5.1,5.1,5.1c2.8,0,5.1-2.3,5.1-5.1s-2.3-5.1-5.1-5.1c-0.4,0-0.8,0-1.1,0.1l-0.7-1.8
		c0.9-0.6,1.5-1.6,1.5-2.8c0-1.9-1.5-3.4-3.4-3.4c-0.2,0-0.3,0-0.5,0.1l-4.8-12.4l12.4,4.8c-0.1,0.2-0.1,0.3-0.1,0.5
		c0,1.9,1.5,3.4,3.4,3.4c1.2,0,2.2-0.6,2.8-1.5l1.9,0.7c-0.1,0.4-0.1,0.7-0.1,1.1c0,2.8,2.3,5.1,5.1,5.1c2.8,0,5.1-2.3,5.1-5.1
		c0-2.8-2.3-5.1-5.1-5.1c-1.8,0-3.4,1-4.3,2.4l-2-0.8c0-0.1,0-0.1,0-0.2c0-1.9-1.4-3.4-3.3-3.4c-1.1,0-2,0.5-2.6,1.2l-12.2-4.7
		l12.2-4.7c0.6,0.7,1.6,1.2,2.6,1.2c1.8,0,3.3-1.5,3.3-3.4c0-0.1,0-0.1,0-0.2l2-0.8c0.9,1.4,2.5,2.4,4.3,2.4c2.8,0,5.1-2.3,5.1-5.1
		c0-2.8-2.3-5.1-5.1-5.1c-2.8,0-5.1,2.3-5.1,5.1c0,0.4,0,0.7,0.1,1.1l-1.9,0.7c-0.6-0.9-1.6-1.5-2.8-1.5c-1.9,0-3.4,1.5-3.4,3.4
		c0,0.2,0,0.3,0.1,0.5l-12.4,4.8l4.8-12.4c0.2,0.1,0.3,0.1,0.5,0.1c1.9,0,3.4-1.5,3.4-3.4c0-1.2-0.6-2.2-1.5-2.8l0.7-1.8
		c0.4,0.1,0.7,0.1,1.1,0.1c2.8,0,5.1-2.3,5.1-5.1c0-2.8-2.3-5.1-5.1-5.1c-2.8,0-5.1,2.3-5.1,5.1c0,1.8,1,3.4,2.4,4.3l-0.8,2
		C1738.4,47.9,1738.4,47.9,1738.3,47.9z M1721.4,45c-0.1,0-0.3,0-0.4,0c-1.9,0-3.4-1.5-3.4-3.4c0-1.8,1.5-3.3,3.4-3.3
		s3.4,1.4,3.4,3.3c0,1.1-0.5,2.1-1.4,2.7C1722.6,44.7,1722,44.9,1721.4,45z M1726,51.9c-0.2,0.5-0.8,0.9-1.4,0.9h-0.1
		c-0.8-0.1-1.5-0.7-1.5-1.6c0-0.3,0.2-0.7,0.5-1c0.3-0.4,0.7-0.6,1.2-0.6c0.1,0,0.3,0,0.5,0.1c0.7,0.3,1.1,0.8,1,1.5
		C1726.2,51.4,1726.1,51.7,1726,51.9z M1708.1,58.5c-0.1,0.6-0.3,1.1-0.7,1.6c-0.7,0.8-1.6,1.3-2.7,1.3c-1.9,0-3.4-1.5-3.4-3.4
		s1.5-3.4,3.4-3.4s3.4,1.5,3.4,3.5C1708.1,58.2,1708.1,58.4,1708.1,58.5z M1716,61.7c0,0.6-0.4,1.2-0.9,1.4
		c-0.2,0.1-0.4,0.2-0.7,0.2c-0.7,0-1.3-0.5-1.5-1.1c-0.1-0.2-0.1-0.3-0.1-0.5c0-0.5,0.2-1,0.5-1.2c0.2-0.3,0.6-0.5,1-0.5
		c0.9,0,1.6,0.7,1.7,1.6V61.7z M1708.1,79c0,1.9-1.5,3.4-3.4,3.4s-3.4-1.5-3.4-3.4s1.5-3.4,3.4-3.4c1.1,0,2.1,0.5,2.7,1.3
		c0.3,0.5,0.6,1,0.7,1.7C1708.1,78.7,1708.1,78.9,1708.1,79z M1715.9,75.4c-0.1,0.8-0.7,1.5-1.6,1.5c-0.4,0-0.7-0.2-1-0.5
		c-0.3-0.3-0.5-0.7-0.5-1.2c0-0.2,0-0.3,0.1-0.5c0.2-0.5,0.8-1,1.5-1c0.2,0,0.5,0.1,0.7,0.2c0.5,0.3,0.9,0.8,0.8,1.4V75.4z
		 M1724.5,95.3c0,1.8-1.5,3.3-3.4,3.3s-3.4-1.4-3.4-3.3c0-1.9,1.5-3.4,3.4-3.4c0.1,0,0.3,0,0.4,0c0.6,0.1,1.1,0.3,1.6,0.7
		C1723.9,93.3,1724.4,94.2,1724.5,95.3z M1725.3,87.2c-0.1,0.1-0.3,0.1-0.5,0.1c-0.5,0-1-0.3-1.2-0.6c-0.4-0.2-0.5-0.6-0.5-1
		c0-0.9,0.7-1.6,1.6-1.6c0.6,0,1.2,0.3,1.5,0.9c0.1,0.2,0.2,0.4,0.2,0.7C1726.4,86.4,1725.9,87,1725.3,87.2z M1741.7,91.9
		c0.1,0,0.3,0,0.4,0c1.9,0,3.4,1.5,3.4,3.4c0,1.8-1.5,3.3-3.4,3.3s-3.4-1.4-3.4-3.3c0-1.1,0.5-2,1.4-2.7
		C1740.5,92.2,1741.1,92,1741.7,91.9z M1737.1,85c0.2-0.6,0.8-0.9,1.4-0.9h0.1c0.8,0.1,1.5,0.7,1.5,1.6c0,0.3-0.2,0.7-0.5,1
		c-0.3,0.4-0.7,0.6-1.2,0.6c-0.2,0-0.3,0-0.5-0.1c-0.6-0.2-1.1-0.8-1-1.5C1736.9,85.5,1737,85.2,1737.1,85z M1755,78.4
		c0.1-0.6,0.3-1.1,0.7-1.6c0.7-0.8,1.6-1.3,2.7-1.3c1.9,0,3.4,1.5,3.4,3.4c0,1.9-1.5,3.4-3.4,3.4s-3.4-1.5-3.4-3.5
		C1755,78.7,1755,78.5,1755,78.4z M1747.2,75.3c0-0.6,0.4-1.2,0.9-1.4c0.2-0.1,0.4-0.2,0.7-0.2c0.7,0,1.3,0.4,1.5,1
		c0.1,0.2,0.1,0.3,0.1,0.5c0,0.5-0.2,1-0.5,1.2c-0.3,0.3-0.7,0.5-1.1,0.5c-0.9,0-1.6-0.6-1.6-1.5V75.3z M1755,57.9
		c0-1.9,1.5-3.4,3.4-3.4s3.4,1.5,3.4,3.4c0,1.9-1.5,3.4-3.4,3.4c-1.1,0-2.1-0.5-2.7-1.3c-0.3-0.4-0.6-1-0.7-1.7
		C1755,58.2,1755,58,1755,57.9z M1747.2,61.5c0.1-0.8,0.7-1.5,1.6-1.5c0.4,0,0.7,0.2,1.1,0.4c0.3,0.3,0.5,0.7,0.5,1.2
		c0,0.2,0,0.3-0.1,0.5c-0.2,0.6-0.8,1.1-1.5,1.1c-0.2,0-0.5-0.1-0.7-0.2C1747.6,62.8,1747.2,62.2,1747.2,61.5L1747.2,61.5z
		 M1738.6,41.6c0-1.8,1.5-3.3,3.4-3.3s3.4,1.4,3.4,3.3c0,1.9-1.5,3.4-3.4,3.4c-0.1,0-0.3,0-0.4,0c-0.6-0.1-1.1-0.3-1.6-0.7
		C1739.2,43.7,1738.7,42.7,1738.6,41.6z M1739.5,50.3c0.4,0.2,0.5,0.6,0.5,1c0,0.9-0.7,1.6-1.6,1.6c-0.6,0-1.1-0.4-1.5-0.9
		c-0.1-0.2-0.2-0.4-0.2-0.7c0-0.7,0.5-1.3,1.1-1.5c0.2-0.1,0.3-0.1,0.5-0.1C1738.8,49.7,1739.3,50,1739.5,50.3z"/>
	<path class="elementor-shape-fill ha-shape-divider" d="M584.9,10.7c-2,0-3.5,1.6-3.5,3.5c0,1.2,0.6,2.3,1.5,2.9c0.7,0,1.3,0,2,0c0.6,0,1.3,0,1.9,0c0.9-0.6,1.5-1.6,1.6-2.9
		C588.4,12.2,586.8,10.7,584.9,10.7z"/>
	<path class="elementor-shape-fill ha-shape-divider" d="M2060.1,335.1c-1.9,0-3.4,1.5-3.4,3.4c0,1.9,1.5,3.4,3.4,3.4c1.8,0,3.3-1.5,3.4-3.5c0-0.1,0-0.3,0-0.4
		c-0.1-0.6-0.3-1.1-0.7-1.6C2062.1,335.6,2061.2,335.1,2060.1,335.1z"/>
	<path class="elementor-shape-fill ha-shape-divider" d="M2087,270.3c-2,0-3.5,1.6-3.5,3.5c0,1.2,0.6,2.3,1.5,2.9c0.7,0,1.3,0,2,0c0.6,0,1.3,0,1.9,0c0.9-0.6,1.5-1.6,1.6-2.9
		C2090.5,271.8,2088.9,270.3,2087,270.3z"/>
	<path class="elementor-shape-fill ha-shape-divider" d="M3708.8,0v65.7c0.9,0.4,2.5,1.7,5.8,5.9c4.7,5.9,15.2,21.4,14.4,24.6c-0.2,0.5-1.1,2.2-5.1,2c6.4,9.4,13,20.4,12.3,23.2
		c-0.2,0.4-1.4,3.1-7.8,2.4c8.8,12.8,18,28.1,17.1,31.6c-0.2,0.6-2.4,5.4-15.8,1.9c-5.1-1.3-7.1-0.5-9.8,0.6
		c-1.4,0.6-3.1,1.3-5.4,1.8v13.6c0,0.1,0,0.2,0,0.3h-12.9c0-0.1,0-0.2,0-0.3v-13.7c-2-0.5-3.5-1.2-4.7-1.8
		c-2.6-1.3-4.4-2.2-10.6-0.5c-13.4,3.8-15.6-1.3-15.9-2c-0.8-3.4,8.3-18.6,17.1-31.4c-6.4,0.8-7.6-2.1-7.8-2.6
		c-0.7-2.7,5.9-13.6,12.3-23c-4,0.2-5-1.7-5.2-2.2c-0.7-3.1,9.8-18.6,14.4-24.5c3.6-4.5,5.1-5.7,6-6V0h-146.6v9.4
		c2.4,0.3,4.2,2.4,4.2,4.9c0,1.1-0.4,2.1-1,2.9c3.8,0.2,6.5,0.8,6.5,1.5v5.9c19.9,4.7,34.6,22.6,34.6,43.9c0,25-20.2,45.2-45.2,45.2
		s-45.2-20.2-45.2-45.2c0-21.4,14.8-39.3,34.7-44v-5.8v-0.1c0.1-0.2,0.5-0.4,1.2-0.7c0.6-0.2,1.4-0.4,2.3-0.5
		c0.9-0.1,1.9-0.2,3.1-0.3c-0.6-0.8-1-1.8-1-2.9c0-2.5,1.8-4.5,4.2-4.9V0h-165.2v222.5c1.2-2.1,3.1-4.6,6.4-7
		c0.3-0.2,0.5-0.2,0.8-0.2c0.3,0.1,0.5,0.3,0.7,0.5l4.9,7.4c0.3,0.5,0.2,1.1-0.3,1.5c-10.4,7.4-12,15.9-12.2,17.5c0,0.2,0,0.3,0,0.3
		v4.4c1,0.1,2,0.3,3,0.7c0.9,0.4,1.8,1,2.5,1.7l3.1-2.8c0.1-0.1,0.2-0.2,0.3-0.3c0.8-0.9,6.4-7.7,4.9-20.9c0-0.6,0.4-1.1,0.9-1.2
		l8.8-1.3c0.2,0,0.5,0,0.8,0.2c0.2,0.1,0.4,0.4,0.4,0.7c0.6,4.8-0.3,8.4-1.3,10.8c2.2-0.8,5.9-1.8,11.2-1.8c0.3,0,0.6,0.1,0.8,0.4
		c0.2,0.2,0.3,0.6,0.2,0.9l-1.9,7.6c-0.1,0.4-0.4,0.7-0.7,0.8c-0.1,0.1-0.3,0.1-0.4,0.1c-8.3,0-14.1,1.5-17.4,2.8
		c-2.8,1.1-4.4,2.2-4.8,2.5c-0.1,0.1-0.1,0.1-0.1,0.1l-3.3,3c0.4,0.7,0.8,1.3,1.1,2.1l0.1,0.3c0.3,0.8,0.5,1.5,0.6,2.3h4.5
		c0,0,0.1,0,0.2,0c0.5-0.1,2.4-0.3,5.2-1.4c3.3-1.3,8.6-4,14.7-9.6c0.3-0.3,0.9-0.4,1.3-0.1l6.5,4.3c0.3,0.2,0.5,0.5,0.5,0.8
		c0.1,0.4-0.1,0.7-0.3,0.9c-3.9,3.6-7.3,5.4-9.5,6.2c2.4,1.1,5.5,3.1,8.3,7.1c0.2,0.3,0.2,0.6,0.2,0.8c0,0.3-0.2,0.5-0.4,0.7
		l-7.4,4.9l-0.2,0.1c-0.4,0.2-0.9,0-1.2-0.4c-7.8-10.8-16.6-12.1-17.7-12.2c-0.1,0-0.1,0-0.1,0c0,0.1,0,0-0.1,0h-4.3
		c0,1-0.3,2-0.7,3c-0.4,0.9-1,1.8-1.7,2.5l3,3.3c0,0,0.1,0.1,0.2,0.2c1.3,1.1,8.1,6.3,20.8,4.8c0.6-0.1,1.1,0.3,1.2,0.9l1.4,8.8
		c0,0.2,0,0.5-0.2,0.8c-0.2,0.2-0.4,0.4-0.7,0.4c-4.8,0.5-8.4-0.4-10.8-1.4c0.9,2.4,1.8,6.1,1.8,11.2c0,0.3-0.2,0.6-0.4,0.8
		c-0.1,0-0.2,0.1-0.3,0.1c-0.2,0-0.5,0-0.7,0l-7.6-1.9c-0.5-0.2-0.8-0.6-0.8-1.1c-0.1-13.6-4.1-20.4-5.2-22
		c-0.1-0.1-0.2-0.1-0.2-0.2c0-0.1-0.1-0.1-0.1-0.1l-3-3.3c-0.7,0.5-1.4,0.9-2.2,1.2l-0.2,0.1c-0.8,0.3-1.5,0.5-2.3,0.6v4.5
		c0,0,0,0.1,0,0.2s0,0.2,0,0.3c0.3,1.9,1.8,9.7,11,19.7c0.3,0.3,0.4,0.9,0.1,1.3l-4.3,6.5c-0.1,0.2-0.3,0.3-0.5,0.4
		c-0.1,0.1-0.2,0.1-0.3,0.1c-0.4,0-0.7-0.2-0.9-0.4c-3.4-3.8-5.2-7.1-6.2-9.5c-1,2.3-3,5.4-7,8.3c-0.2,0.2-0.5,0.2-0.8,0.2
		c-0.3-0.1-0.5-0.3-0.7-0.5l-4.9-7.4c-0.3-0.5-0.2-1.1,0.3-1.5c10.8-7.8,12.1-16.5,12.2-17.7c0-0.1,0-0.1,0-0.1v-0.1v-4.4
		c-1-0.1-2-0.3-3-0.7c-0.9-0.4-1.8-1-2.5-1.7l-3.2,2.9v0.1c0,0,0,0-0.1,0.1c-0.8,0.8-6.5,7.7-4.9,20.9c0.1,0.5-0.2,0.9-0.7,1.1
		l-0.2,0.1l-8.8,1.3c-0.2,0-0.5,0-0.8-0.2c-0.2-0.1-0.3-0.4-0.4-0.7c-0.6-4.8,0.3-8.4,1.3-10.8c-2.2,0.8-5.9,1.8-11.2,1.8
		c-0.3,0-0.6-0.1-0.8-0.4c-0.2-0.2-0.3-0.6-0.2-0.9l1.3-7.9c0.1-0.5,0.5-0.8,1-0.8c8.4,0,14.1-1.5,17.4-2.8c2.9-1.1,4.4-2.2,4.8-2.5
		c0.1-0.1,0.1-0.1,0.1-0.1l3.3-3c-0.4-0.7-0.8-1.3-1.1-2.1l-0.1-0.3c-0.3-0.8-0.5-1.5-0.6-2.3h-4.5c0,0,0,0-0.1,0
		c-0.5,0-2.4,0.3-5.3,1.4c-3.3,1.3-8.5,4-14.7,9.6c-0.1,0.1-0.2,0.2-0.3,0.2c-0.4,0.2-0.7,0.1-1-0.1l-6.5-4.3
		c-0.3-0.2-0.5-0.5-0.5-0.8c0-0.4,0.1-0.7,0.4-0.9c4-3.6,7.3-5.4,9.5-6.2c-2.3-1.1-5.4-3.1-8.3-7.1c-0.2-0.3-0.2-0.6-0.2-0.8
		c0.1-0.3,0.3-0.5,0.5-0.7l7.4-4.9c0.5-0.3,1.1-0.2,1.5,0.3c7.8,10.8,16.6,12.1,17.7,12.2c0.1,0,0.1,0,0.1,0h0.1h4.4
		c0.1-1,0.3-2,0.7-3c0.4-0.9,1-1.8,1.7-2.5l-2.9-3.2c-0.1,0-0.1,0-0.1,0s0,0-0.1-0.1c-0.9-0.7-7.6-6.4-20.9-4.8
		c-0.6,0.1-1.1-0.3-1.2-0.9l-1.3-8.8c0-0.3,0.1-0.6,0.2-0.8c0.2-0.2,0.5-0.3,0.8-0.4c4.9-0.6,8.5,0.3,10.8,1.4
		c-0.9-2.4-1.8-6.1-1.8-11.2c0-0.3,0.1-0.6,0.4-0.8c0.3-0.2,0.6-0.3,0.9-0.2l7.6,1.9c0.5,0.2,0.8,0.6,0.8,1.1
		c0,13.6,4.1,20.4,5.2,22c0.1,0.1,0.2,0.1,0.2,0.2c0,0.1,0.1,0.1,0.1,0.1l3,3.3c0.7-0.4,1.3-0.8,2.1-1.1l0.3-0.1
		c0.8-0.3,1.5-0.5,2.3-0.6v-4.1v-0.6c-0.2-1.6-1.5-9.6-11-19.9c-0.3-0.3-0.4-0.9-0.1-1.3l4.3-6.5c0.2-0.3,0.5-0.5,0.8-0.5
		c0.4,0.1,0.7,0.2,0.9,0.4c3,3.2,4.7,6,5.7,8.3V0h-142.9v13.4c0.9,0.4,2.5,1.7,5.8,5.9c4.7,5.9,15.2,21.4,14.4,24.6
		c-0.2,0.5-1.1,2.2-5.1,2c6.4,9.4,13,20.4,12.3,23.2c-0.2,0.4-1.4,3.1-7.8,2.4c8.8,12.8,18,28.1,17.1,31.6
		c-0.2,0.6-2.4,5.4-15.8,1.9c-5.1-1.3-7.1-0.5-9.8,0.6c-1.4,0.6-3.1,1.3-5.4,1.8V121c0,0.1,0,0.2,0,0.3h-12.9c0-0.1,0-0.2,0-0.3
		v-13.7c-2-0.5-3.5-1.2-4.7-1.8c-2.6-1.3-4.4-2.2-10.6-0.5c-13.4,3.8-15.6-1.3-15.9-2c-0.8-3.4,8.3-18.6,17.1-31.4
		c-6.4,0.8-7.6-2.1-7.8-2.6c-0.7-2.7,5.9-13.6,12.3-23c-4,0.2-5-1.7-5.2-2.2c-0.7-3.1,9.8-18.6,14.4-24.5c3.6-4.5,5.1-5.7,6-6V0
		h-184.5v67.1l18.1,9.8c2.9,1.6,4,5.2,2.4,8.1l-5.2,9.7c-1.5,2.9-5.2,4-8.1,2.4l-24.3-13.2c-2.9-1.5-4-5.2-2.4-8.1l5.2-9.7
		c1.5-2.9,5.2-4,8.1-2.4l4.6,2.5V0h-237.5v92.3c2.4,0.3,4.2,2.4,4.2,4.9c0,1.1-0.4,2.1-1,2.9c1.1,0.1,2.2,0.2,3.1,0.3
		c0.9,0.2,1.7,0.3,2.3,0.5c0.6,0.1,1,0.3,1.2,0.5v0.1v5.9c19.8,4.7,34.6,22.6,34.6,43.9c0,25-20.2,45.2-45.2,45.2
		s-45.2-20.2-45.2-45.2c0-21.4,14.8-39.3,34.7-44v-5.8c0-0.7,2.7-1.3,6.5-1.5c-0.6-0.8-1-1.8-1-2.9c0-2.5,1.8-4.5,4.2-4.9V0h-192.2
		v69.6c9.4,0.3,7.4,11.7,4.3,20c6-7.5,14.9-15.2,20.3-7.3c6.3,9.3-13.2,15.2-22,16.7c-0.4,1.3-1.6,2.2-3,2.2c-1.6,0-2.9-1.2-3.1-2.7
		c-8.4-1.6-28.1-8.3-21.4-17.4c5.3-7.2,13.2-0.5,18.7,6.6c-3.1-7.7-4.5-17.1,4.6-18V0h-189v221.5c1.1-2.1,2.7-4.6,5.2-7.3
		c0.3-0.3,0.6-0.4,0.9-0.4s0.6,0.2,0.8,0.5l4.3,6.5c0.3,0.4,0.3,0.9-0.1,1.3c-9.5,10.4-10.8,18.4-11,19.9v1v4.1
		c0.8,0.1,1.5,0.3,2.3,0.6l0.3,0.1c0.8,0.3,1.5,0.6,2.1,1.1l3-3.3c0,0,0.1,0,0.1-0.1c0.1-0.1,0.1-0.1,0.2-0.2
		c1.1-1.6,5.2-8.4,5.2-22c0-0.5,0.3-1,0.8-1.1l7.6-1.9c0.3-0.1,0.7,0,0.9,0.2c0.3,0.2,0.4,0.5,0.4,0.8c0,5.1-0.9,8.8-1.8,11.2
		c2.3-1.1,5.9-2,10.8-1.4c0.3,0,0.6,0.2,0.8,0.4c0.1,0.2,0.2,0.5,0.2,0.8l-1.3,8.8c-0.1,0.5-0.6,0.9-1.2,0.9
		c-13.2-1.6-20,4-20.9,4.8c-0.1,0.1-0.1,0.1-0.1,0.1h-0.1l-2.9,3.2c0.7,0.7,1.2,1.5,1.7,2.5c0.4,1,0.6,2,0.7,3h4.4h0.1
		c0,0,0,0,0.1,0c1.2-0.2,10-1.5,17.7-12.2c0.4-0.5,1-0.6,1.5-0.3l7.4,4.9c0.3,0.1,0.4,0.4,0.5,0.7c0,0.2-0.1,0.5-0.2,0.8
		c-2.9,4-6,6-8.3,7.1c2.2,0.8,5.6,2.6,9.5,6.2c0.3,0.2,0.4,0.6,0.4,0.9s-0.2,0.6-0.5,0.8l-6.5,4.3c-0.3,0.2-0.7,0.2-1,0.1
		c-0.1,0-0.2-0.1-0.3-0.2c-6.1-5.6-11.4-8.3-14.7-9.6c-2.9-1.1-4.8-1.3-5.3-1.4c-0.1,0-0.1,0-0.1,0h-4.5c-0.1,0.8-0.3,1.5-0.6,2.3
		l-0.1,0.3c-0.3,0.8-0.7,1.5-1.1,2.1l3.3,3c0,0,0,0,0.1,0.1c0.4,0.3,1.9,1.4,4.8,2.5c3.3,1.2,9.1,2.8,17.4,2.8c0.5,0,0.9,0.3,1,0.8
		l1.3,7.5c0.1,0.3,0,0.7-0.2,0.9c-0.2,0.3-0.5,0.4-0.8,0.4c-5.3,0-9-1-11.2-1.8c1,2.3,1.9,5.9,1.3,10.8c-0.1,0.3-0.2,0.5-0.4,0.7
		c-0.2,0.1-0.5,0.2-0.8,0.2l-8.8-1.3l-0.2-0.1c-0.5-0.1-0.8-0.6-0.7-1.1c1.5-13.2-4.1-20.1-4.9-20.9c-0.1-0.1-0.1-0.1-0.1-0.1v-0.1
		l-3.2-2.9c-0.7,0.7-1.6,1.3-2.5,1.7c-0.9,0.4-2,0.6-3,0.7v4.4v0.1c0,0,0,0,0,0.1c0.2,1.2,1.4,9.9,12.2,17.7c0.5,0.4,0.6,1,0.3,1.5
		l-4.9,7.4c-0.2,0.2-0.4,0.4-0.7,0.5c-0.2,0-0.5-0.1-0.8-0.2c-3.9-2.9-6-5.9-7-8.3c-0.9,2.4-2.7,5.7-6.2,9.5
		c-0.2,0.3-0.5,0.4-0.9,0.4c-0.1-0.1-0.2-0.1-0.3-0.1c-0.2-0.1-0.4-0.2-0.5-0.4l-4.3-6.5c-0.3-0.4-0.2-0.9,0.1-1.3
		c9.2-10,10.7-17.8,11-19.7c0-0.1,0-0.2,0-0.3c0-0.1,0-0.2,0-0.2v-4.5c-0.8-0.1-1.5-0.3-2.3-0.6l-0.2-0.1c-0.8-0.3-1.5-0.7-2.2-1.2
		l-3,3.3c0,0,0,0-0.1,0.1c-0.1,0.1-0.1,0.1-0.2,0.2c-1.1,1.6-5.2,8.5-5.2,22c0,0.5-0.3,1-0.8,1.1l-7.6,1.9c-0.3,0.1-0.5,0.1-0.7,0
		c-0.1,0-0.2-0.1-0.3-0.1c-0.2-0.2-0.4-0.5-0.4-0.8c0-5.1,0.9-8.8,1.8-11.2c-2.3,1.1-5.9,2-10.8,1.4c-0.2,0-0.5-0.2-0.7-0.4
		c-0.1-0.2-0.2-0.5-0.2-0.8l1.4-8.8c0.1-0.6,0.6-0.9,1.2-0.9c12.7,1.4,19.5-3.7,20.8-4.8c0.1-0.1,0.2-0.2,0.2-0.2l3-3.3
		c-0.7-0.7-1.3-1.6-1.7-2.5c-0.4-1-0.6-2-0.7-3h-4.3h-0.1c0,0,0,0-0.1,0c-1.2,0.2-10,1.5-17.7,12.2c-0.3,0.4-0.8,0.6-1.2,0.4
		l-0.2-0.1l-7.4-4.9c-0.2-0.2-0.3-0.4-0.4-0.7s0-0.5,0.2-0.8c2.8-4,5.9-6,8.3-7.1c-2.2-0.8-5.6-2.6-9.5-6.2
		c-0.2-0.2-0.3-0.5-0.3-0.9c0-0.3,0.2-0.6,0.5-0.8l6.5-4.3c0.4-0.3,0.9-0.2,1.3,0.1c6.1,5.6,11.4,8.3,14.7,9.6
		c2.8,1.1,4.7,1.3,5.2,1.4c0.2,0,0.2,0,0.2,0h4.5c0.1-0.8,0.3-1.5,0.6-2.3l0.1-0.3c0.3-0.8,0.6-1.5,1.1-2.1l-3.3-3c0,0,0,0-0.1-0.1
		c-0.4-0.3-2-1.4-4.8-2.5c-3.4-1.3-9.1-2.8-17.4-2.8c-0.1,0-0.3-0.1-0.4-0.1c-0.4-0.2-0.6-0.5-0.7-0.8l-1.9-7.6c0-0.3,0-0.7,0.2-0.9
		c0.2-0.3,0.5-0.4,0.8-0.4c5.3,0,9,1,11.2,1.8c-1-2.3-1.9-5.9-1.3-10.8c0.1-0.3,0.2-0.5,0.4-0.7c0.2-0.1,0.5-0.2,0.8-0.2l8.8,1.3
		c0.5,0.1,0.9,0.6,0.9,1.2c-1.5,13.2,4.1,20,4.9,20.9c0.1,0.1,0.2,0.2,0.3,0.3l3.1,2.8c0.7-0.7,1.6-1.3,2.5-1.7c1-0.4,2-0.6,3-0.7
		v-4.4c0,0,0-0.1,0-0.3c-0.3-1.6-1.8-10-12.2-17.5c-0.5-0.4-0.6-1-0.3-1.5l4.9-7.4c0.1-0.3,0.4-0.4,0.7-0.5c0.3,0,0.5,0,0.8,0.2
		c3.8,2.7,5.8,5.6,6.9,7.9V0h-165v9.4c2.4,0.3,4.2,2.4,4.2,4.9c0,1.1-0.4,2.1-1,2.9c1.1,0.1,2.2,0.2,3.1,0.3
		c0.9,0.2,1.7,0.3,2.3,0.5s0.9,0.4,1.2,0.5v0.1v6c19.8,4.8,34.5,22.6,34.5,43.9c0,25-20.2,45.2-45.2,45.2s-45.2-20.2-45.2-45.2
		c0-21.4,14.8-39.3,34.8-44v-5.9c0-0.7,2.7-1.3,6.5-1.5c-0.6-0.8-1-1.8-1-2.9c0-2.5,1.8-4.5,4.2-4.9V0h-184.5v269
		c2.4,0.3,4.2,2.4,4.2,4.9c0,1.1-0.4,2.1-1,2.9c1.1,0.1,2.2,0.2,3.1,0.3c0.9,0.2,1.7,0.3,2.3,0.5s0.9,0.4,1.2,0.5v0.1v6
		c19.8,4.8,34.5,22.6,34.5,43.9c0,25-20.2,45.2-45.2,45.2s-45.2-20.2-45.2-45.2c0-21.4,14.8-39.3,34.8-44v-5.9
		c0-0.7,2.7-1.3,6.5-1.5c-0.6-0.8-1-1.8-1-2.9c0-2.5,1.8-4.5,4.2-4.9V0h-177.6v93c0.9,0.3,2.4,1.5,6,6c4.6,5.9,15.1,21.4,14.4,24.5
		c-0.2,0.5-1.2,2.4-5.2,2.2c6.4,9.4,13,20.3,12.3,23c-0.2,0.5-1.4,3.4-7.8,2.6c8.8,12.8,17.9,28,17.1,31.4c-0.3,0.7-2.5,5.8-15.9,2
		c-6.2-1.7-8-0.8-10.6,0.5c-1.2,0.6-2.7,1.3-4.7,1.8v13.7c0,0.1,0,0.2,0,0.3h-12.9c0-0.1,0-0.2,0-0.3v-13.6c-2.3-0.5-4-1.2-5.4-1.8
		c-2.7-1.1-4.7-1.9-9.8-0.6c-13.4,3.5-15.6-1.3-15.8-1.9c-0.9-3.5,8.3-18.8,17.1-31.6c-6.4,0.7-7.6-2-7.8-2.4
		c-0.7-2.8,5.9-13.8,12.3-23.2c-4,0.2-4.9-1.5-5.1-2c-0.8-3.2,9.7-18.7,14.4-24.6c3.3-4.2,4.9-5.5,5.8-5.9V0h-174.5v9.4
		c2.4,0.3,4.2,2.4,4.2,4.9c0,1.1-0.4,2.1-1,2.9c3.8,0.2,6.5,0.8,6.5,1.5v5.9c19.8,4.7,34.6,22.6,34.6,43.9c0,25-20.2,45.2-45.2,45.2
		s-45.2-20.2-45.2-45.2c0-21.4,14.8-39.3,34.7-44v-5.8v-0.1c0.1-0.2,0.4-0.4,1.2-0.7c0.6-0.2,1.4-0.4,2.3-0.5
		c0.9-0.1,1.9-0.2,3.1-0.3c-0.6-0.8-1-1.8-1-2.9c0-2.5,1.8-4.5,4.2-4.9V0h-165.2v222.3c1.2-2.1,3.1-4.5,6.3-6.8
		c0.3-0.2,0.5-0.2,0.8-0.2c0.3,0.1,0.5,0.3,0.7,0.5l4.9,7.4c0.3,0.5,0.2,1.1-0.3,1.5c-10.4,7.4-12,15.9-12.2,17.5c0,0.2,0,0.3,0,0.3
		v4.4c1,0.1,2,0.3,3,0.7c0.9,0.4,1.8,1,2.5,1.7l3.1-2.8c0.1-0.1,0.2-0.2,0.3-0.3c0.8-0.9,6.4-7.7,4.9-20.9c0-0.6,0.4-1.1,0.9-1.2
		l8.8-1.3c0.2,0,0.5,0,0.8,0.2c0.2,0.1,0.4,0.4,0.4,0.7c0.6,4.8-0.3,8.4-1.3,10.8c2.2-0.8,5.9-1.8,11.2-1.8c0.3,0,0.6,0.1,0.8,0.4
		c0.2,0.2,0.3,0.6,0.2,0.9l-1.9,7.6c-0.1,0.4-0.4,0.7-0.7,0.8c-0.1,0.1-0.3,0.1-0.4,0.1c-8.3,0-14.1,1.5-17.4,2.8
		c-2.8,1.1-4.4,2.2-4.8,2.5c-0.1,0.1-0.1,0.1-0.1,0.1l-3.3,3c0.4,0.7,0.8,1.3,1.1,2.1l0.1,0.3c0.3,0.8,0.5,1.5,0.6,2.3h4.5
		c0,0,0.1,0,0.2,0c0.5-0.1,2.4-0.3,5.2-1.4c3.3-1.3,8.6-4,14.7-9.6c0.3-0.3,0.9-0.4,1.3-0.1l6.5,4.3c0.3,0.2,0.5,0.5,0.5,0.8
		c0.1,0.4-0.1,0.7-0.3,0.9c-3.9,3.6-7.3,5.4-9.5,6.2c2.4,1.1,5.5,3.1,8.3,7.1c0.2,0.3,0.2,0.6,0.2,0.8c0,0.3-0.2,0.5-0.4,0.7
		l-7.4,4.9l-0.2,0.1c-0.4,0.2-0.9,0-1.2-0.4c-7.8-10.8-16.6-12.1-17.7-12.2c-0.1,0-0.1,0-0.1,0c0,0.1,0,0-0.1,0h-4.3
		c0,1-0.3,2-0.7,3c-0.4,0.9-1,1.8-1.7,2.5l3,3.3c0,0,0.1,0.1,0.2,0.2c1.3,1.1,8.1,6.3,20.8,4.8c0.6-0.1,1.1,0.3,1.2,0.9l1.4,8.8
		c0,0.2,0,0.5-0.2,0.8c-0.2,0.2-0.4,0.4-0.7,0.4c-4.8,0.5-8.4-0.4-10.8-1.4c0.9,2.4,1.8,6.1,1.8,11.2c0,0.3-0.2,0.6-0.4,0.8
		c-0.1,0-0.2,0.1-0.3,0.1c-0.2,0-0.5,0-0.7,0l-7.6-1.9c-0.5-0.2-0.8-0.6-0.8-1.1c-0.1-13.6-4.1-20.4-5.2-22
		c-0.1-0.1-0.2-0.1-0.2-0.2c0-0.1-0.1-0.1-0.1-0.1l-3-3.3c-0.7,0.5-1.4,0.9-2.2,1.2l-0.2,0.1c-0.8,0.3-1.5,0.5-2.3,0.6v4.5
		c0,0,0,0.1,0,0.2s0,0.2,0,0.3c0.3,1.9,1.8,9.7,11,19.7c0.3,0.3,0.4,0.9,0.1,1.3l-4.3,6.5c-0.1,0.2-0.3,0.3-0.5,0.4
		c-0.1,0.1-0.2,0.1-0.3,0.1c-0.4,0-0.7-0.2-0.9-0.4c-3.4-3.8-5.2-7.1-6.2-9.5c-1,2.3-3,5.4-7,8.3c-0.2,0.2-0.5,0.2-0.8,0.2
		c-0.3-0.1-0.5-0.3-0.7-0.5l-4.9-7.4c-0.3-0.5-0.2-1.1,0.3-1.5c10.8-7.8,12.1-16.5,12.2-17.7c0-0.1,0-0.1,0-0.1v-0.1v-4.4
		c-1-0.1-2-0.3-3-0.7c-0.9-0.4-1.8-1-2.5-1.7l-3.2,2.9v0.1c0,0,0,0-0.1,0.1c-0.8,0.8-6.5,7.7-4.9,20.9c0.1,0.5-0.2,0.9-0.7,1.1
		l-0.2,0.1l-8.8,1.3c-0.2,0-0.5,0-0.8-0.2c-0.2-0.1-0.3-0.4-0.4-0.7c-0.6-4.8,0.3-8.4,1.3-10.8c-2.2,0.8-5.9,1.8-11.2,1.8
		c-0.3,0-0.6-0.1-0.8-0.4c-0.2-0.2-0.3-0.6-0.2-0.9l1.3-7.9c0.1-0.5,0.5-0.8,1-0.8c8.4,0,14.1-1.5,17.4-2.8c2.9-1.1,4.4-2.2,4.8-2.5
		c0.1-0.1,0.1-0.1,0.1-0.1l3.3-3c-0.4-0.7-0.8-1.3-1.1-2.1l-0.1-0.3c-0.3-0.8-0.5-1.5-0.6-2.3h-4.5c0,0,0,0-0.1,0
		c-0.5,0-2.4,0.3-5.3,1.4c-3.3,1.3-8.5,4-14.7,9.6c-0.1,0.1-0.2,0.2-0.3,0.2c-0.4,0.2-0.7,0.1-1-0.1l-6.5-4.3
		c-0.3-0.2-0.5-0.5-0.5-0.8c0-0.4,0.1-0.7,0.4-0.9c4-3.6,7.3-5.4,9.5-6.2c-2.3-1.1-5.4-3.1-8.3-7.1c-0.2-0.3-0.2-0.6-0.2-0.8
		c0.1-0.3,0.3-0.5,0.5-0.7l7.4-4.9c0.5-0.3,1.1-0.2,1.5,0.3c7.8,10.8,16.6,12.1,17.7,12.2c0.1,0,0.1,0,0.1,0h0.1h4.4
		c0.1-1,0.3-2,0.7-3c0.4-0.9,1-1.8,1.7-2.5l-2.9-3.2c-0.1,0-0.1,0-0.1,0s0,0-0.1-0.1c-0.9-0.7-7.6-6.4-20.9-4.8
		c-0.6,0.1-1.1-0.3-1.2-0.9l-1.3-8.8c0-0.3,0.1-0.6,0.2-0.8c0.2-0.2,0.5-0.3,0.8-0.4c4.9-0.6,8.5,0.3,10.8,1.4
		c-0.9-2.4-1.8-6.1-1.8-11.2c0-0.3,0.1-0.6,0.4-0.8s0.6-0.3,0.9-0.2l7.6,1.9c0.5,0.2,0.8,0.6,0.8,1.1c0,13.6,4.1,20.4,5.2,22
		c0.1,0.1,0.2,0.1,0.2,0.2c0,0.1,0.1,0.1,0.1,0.1l3,3.3c0.7-0.4,1.3-0.8,2.1-1.1l0.3-0.1c0.8-0.3,1.5-0.5,2.3-0.6v-4.1v-0.6
		c-0.2-1.6-1.5-9.6-11-19.9c-0.3-0.3-0.4-0.9-0.1-1.3l4.3-6.5c0.2-0.3,0.5-0.5,0.8-0.5c0.4,0.1,0.7,0.2,0.9,0.4
		c3,3.3,4.8,6.2,5.8,8.5V0h-189v69.4c1.1,0.1,2.2,0.6,3.1,1.5l8.1,7.5c2.4,2.3,2.6,6.1,0.3,8.5l-18.7,20.2c-2.3,2.4-6.1,2.5-8.5,0.3
		l-8.1-7.5c-2.4-2.3-2.6-6.1-0.3-8.5l18.7-20.2c1-1.1,2.4-1.7,3.8-1.9V0h-237.5v92.3c2.4,0.3,4.2,2.4,4.2,4.9c0,1.1-0.4,2.1-1,2.9
		c1.1,0.1,2.2,0.2,3.1,0.3c0.9,0.2,1.7,0.3,2.3,0.5c0.6,0.1,0.9,0.3,1.2,0.5v0.1v5.9c19.8,4.8,34.5,22.6,34.5,43.9
		c0,25-20.2,45.2-45.2,45.2s-45.2-20.2-45.2-45.2c0-21.4,14.8-39.3,34.8-44v-5.8c0-0.7,2.7-1.3,6.5-1.5c-0.6-0.8-1-1.8-1-2.9
		c0-2.5,1.8-4.5,4.2-4.9V0H942.6v69.6c9.4,0.3,7.5,11.6,4.4,19.8c5.9-7.4,14.8-15,20.1-7.1c6.4,9.3-13.2,15.2-22,16.7
		c-0.4,1.3-1.6,2.2-3,2.2c-1.6,0-2.9-1.3-3.1-2.8c-8.4-1.6-28-8.2-21.3-17.3c5.2-7.1,13-0.6,18.5,6.4c-3.1-7.7-4.3-17,4.8-17.8V0
		H752v221.3c1.1-2.1,2.7-4.5,5.1-7.1c0.3-0.3,0.6-0.4,0.9-0.4s0.6,0.2,0.8,0.5l4.3,6.5c0.3,0.4,0.3,0.9-0.1,1.3
		c-9.5,10.4-10.8,18.4-11,19.9v1v4.1c0.8,0.1,1.5,0.3,2.3,0.6l0.3,0.1c0.8,0.3,1.5,0.6,2.1,1.1l3-3.3c0,0,0.1,0,0.1-0.1
		c0.1-0.1,0.1-0.1,0.2-0.2c1.1-1.6,5.2-8.4,5.2-22c0-0.5,0.3-1,0.8-1.1l7.6-1.9c0.3-0.1,0.7,0,0.9,0.2c0.3,0.2,0.4,0.5,0.4,0.8
		c0,5.1-0.9,8.8-1.8,11.2c2.3-1.1,5.9-2,10.8-1.4c0.3,0,0.6,0.2,0.8,0.4c0.1,0.2,0.2,0.5,0.2,0.8l-1.3,8.8c-0.1,0.5-0.6,0.9-1.2,0.9
		c-13.2-1.6-20,4-20.9,4.8c-0.1,0.1-0.1,0.1-0.1,0.1h-0.1l-2.9,3.2c0.7,0.7,1.2,1.5,1.7,2.5c0.4,1,0.6,2,0.7,3h4.4h0.1
		c0,0,0,0,0.1,0c1.2-0.2,10-1.5,17.7-12.2c0.4-0.5,1-0.6,1.5-0.3l7.4,4.9c0.3,0.1,0.4,0.4,0.5,0.7c0,0.2-0.1,0.5-0.2,0.8
		c-2.9,4-6,6-8.3,7.1c2.2,0.8,5.6,2.6,9.5,6.2c0.3,0.2,0.4,0.6,0.4,0.9s-0.2,0.6-0.5,0.8l-6.5,4.3c-0.3,0.2-0.7,0.2-1,0.1
		c-0.1,0-0.2-0.1-0.3-0.2c-6.1-5.6-11.4-8.3-14.7-9.6c-2.9-1.1-4.8-1.3-5.3-1.4c-0.1,0-0.1,0-0.1,0H761c-0.1,0.8-0.3,1.5-0.6,2.3
		l-0.1,0.3c-0.3,0.8-0.7,1.5-1.1,2.1l3.3,3c0,0,0,0,0.1,0.1c0.4,0.3,1.9,1.4,4.8,2.5c3.3,1.2,9.1,2.8,17.4,2.8c0.5,0,0.9,0.3,1,0.8
		l1.7,7.5c0.1,0.3,0,0.7-0.2,0.9c-0.2,0.3-0.5,0.4-0.8,0.4c-5.3,0-9-1-11.2-1.8c1,2.3,1.9,5.9,1.3,10.8c-0.1,0.3-0.2,0.5-0.4,0.7
		c-0.2,0.1-0.5,0.2-0.8,0.2l-8.8-1.3l-0.2-0.1c-0.5-0.1-0.8-0.6-0.7-1.1c1.5-13.2-4.1-20.1-4.9-20.9c-0.1-0.1-0.1-0.1-0.1-0.1v-0.1
		l-3.2-2.9c-0.7,0.7-1.6,1.3-2.5,1.7c-0.9,0.4-2,0.6-3,0.7v4.4v0.1c0,0,0,0,0,0.1c0.2,1.2,1.4,9.9,12.2,17.7c0.5,0.4,0.6,1,0.3,1.5
		l-4.9,7.4c-0.2,0.2-0.4,0.4-0.7,0.5c-0.2,0-0.5-0.1-0.8-0.2c-3.9-2.9-6-5.9-7-8.3c-0.9,2.4-2.7,5.7-6.2,9.5
		c-0.2,0.3-0.5,0.4-0.9,0.4c-0.1-0.1-0.2-0.1-0.3-0.1c-0.2-0.1-0.4-0.2-0.5-0.4l-4.3-6.5c-0.3-0.4-0.2-0.9,0.1-1.3
		c9.2-10,10.7-17.8,11-19.7c0-0.1,0-0.2,0-0.3c0-0.1,0-0.2,0-0.2v-4.5c-0.8-0.1-1.5-0.3-2.3-0.6l-0.2-0.1c-0.8-0.3-1.5-0.7-2.2-1.2
		l-3,3.3c0,0,0,0-0.1,0.1c-0.1,0.1-0.1,0.1-0.2,0.2c-1.1,1.6-5.2,8.5-5.2,22c0,0.5-0.3,1-0.8,1.1l-7.6,1.9c-0.3,0.1-0.5,0.1-0.7,0
		c-0.1,0-0.2-0.1-0.3-0.1c-0.2-0.2-0.4-0.5-0.4-0.8c0-5.1,0.9-8.8,1.8-11.2c-2.3,1.1-5.9,2-10.8,1.4c-0.2,0-0.5-0.2-0.7-0.4
		c-0.1-0.2-0.2-0.5-0.2-0.8l1.4-8.8c0.1-0.6,0.6-0.9,1.2-0.9c12.7,1.4,19.5-3.7,20.8-4.8c0.1-0.1,0.2-0.2,0.2-0.2l3-3.3
		c-0.7-0.7-1.3-1.6-1.7-2.5c-0.4-1-0.6-2-0.7-3H737h-0.1c0,0,0,0-0.1,0c-1.2,0.2-10,1.5-17.7,12.2c-0.3,0.4-0.8,0.6-1.2,0.4
		l-0.2-0.1l-7.4-4.9c-0.2-0.2-0.3-0.4-0.4-0.7c-0.1-0.3,0-0.5,0.2-0.8c2.8-4,5.9-6,8.3-7.1c-2.2-0.8-5.6-2.6-9.5-6.2
		c-0.2-0.2-0.3-0.5-0.3-0.9c0-0.3,0.2-0.6,0.5-0.8l6.5-4.3c0.4-0.3,0.9-0.2,1.3,0.1c6.1,5.6,11.4,8.3,14.7,9.6
		c2.8,1.1,4.7,1.3,5.2,1.4c0.2,0,0.2,0,0.2,0h4.1c0.1-0.8,0.3-1.5,0.6-2.3l0.1-0.3c0.3-0.8,0.6-1.5,1.1-2.1l-3.3-3c0,0,0,0-0.1-0.1
		c-0.4-0.3-2-1.4-4.8-2.5c-3.4-1.3-9.1-2.8-17.4-2.8c-0.1,0-0.3-0.1-0.4-0.1c-0.4-0.2-0.6-0.5-0.7-0.8l-1.9-7.6c0-0.3,0-0.7,0.2-0.9
		c0.2-0.3,0.5-0.4,0.8-0.4c5.3,0,9,1,11.2,1.8c-1-2.3-1.9-5.9-1.3-10.8c0.1-0.3,0.2-0.5,0.4-0.7c0.2-0.1,0.5-0.2,0.8-0.2l8.8,1.3
		c0.5,0.1,0.9,0.6,0.9,1.2c-1.5,13.2,4.1,20,4.9,20.9c0.1,0.1,0.2,0.2,0.3,0.3l3.1,2.8c0.7-0.7,1.6-1.3,2.5-1.7c1-0.4,2-0.6,3-0.7
		v-4.4c0,0,0-0.1,0-0.3c-0.3-1.6-1.8-10-12.2-17.5c-0.5-0.4-0.6-1-0.3-1.5l4.9-7.4c0.1-0.3,0.4-0.4,0.7-0.5c0.3,0,0.5,0,0.8,0.2
		c3.9,2.7,6,5.7,7,8.1V0h-165v9.4c2.4,0.3,4.2,2.4,4.2,4.9c0,1.1-0.4,2.1-1,2.9c1.1,0.1,2.2,0.2,3.1,0.3c0.9,0.2,1.7,0.3,2.3,0.5
		c0.5,0.2,0.9,0.4,1.2,0.5v0.1v6c19.8,4.8,34.5,22.6,34.5,43.9c0,25-20.2,45.2-45.2,45.2s-45.2-20.2-45.2-45.2
		c0-21.4,14.8-39.3,34.8-44v-5.9c0-0.7,2.7-1.3,6.5-1.5c-0.6-0.8-1-1.8-1-2.9c0-2.5,1.8-4.5,4.2-4.9V0H405.1v51.6
		c0.9,0.3,2.4,1.5,6,6c4.6,5.9,15.1,21.4,14.4,24.5c-0.2,0.5-1.2,2.4-5.2,2.2c6.4,9.4,13,20.3,12.3,23c-0.2,0.5-1.4,3.4-7.8,2.6
		c8.8,12.8,17.9,28,17.1,31.4c-0.3,0.7-2.5,5.8-15.9,2c-6.2-1.7-8-0.8-10.6,0.5c-1.2,0.6-2.7,1.3-4.7,1.8v13.7c0,0.1,0,0.2,0,0.3
		h-12.9c0-0.1,0-0.2,0-0.3v-13.6c-2.3-0.5-4-1.2-5.4-1.8c-2.7-1.1-4.7-1.9-9.8-0.6c-13.4,3.5-15.6-1.3-15.8-1.9
		c-0.9-3.5,8.3-18.8,17.1-31.6c-6.4,0.7-7.6-2-7.8-2.4c-0.7-2.8,5.9-13.8,12.3-23.2c-4,0.2-4.9-1.5-5.1-2
		c-0.8-3.2,9.7-18.7,14.4-24.6c3.3-4.2,4.9-5.5,5.8-5.9V0H0v380h4080V0H3708.8z M2124.3,258.5l-7.4-5l-8.1,3.9l2.5-8.6l-6.1-6.5
		l8.9-0.3l4.3-7.8l3,8.4l8.8,1.6l-7,5.5L2124.3,258.5z M347.1,130.6c-0.2-0.1-0.3-0.3-0.4-0.4c-3.8-5.4,2.1-11.3,7.5-7.5
		c0.1,0.1,0.2,0.3,0.4,0.4C358.4,128.5,352.5,134.4,347.1,130.6z M350.3,32.9l-0.6,10l-7-7.1l-9.7,2.5l4.5-8.9l-5.3-8.5l9.9,1.6
		l6.4-7.7l1.5,9.9l9.3,3.7L350.3,32.9z M601.3,177.3l-5.5,7l-1.6-8.7l-8.4-3.1l7.8-4.3l0.3-8.9l6.5,6.1l8.6-2.4l-3.9,8l5.1,7.4
		L601.3,177.3z M805.5,205.8l-0.1,10.2l-7.6-6.9l-9.8,3.1l4.2-9.3l-5.9-8.4l10.2,1.1l6-8.2l2.1,10l9.7,3.3L805.5,205.8z
		 M939.2,181.6c0,3.3-2.7,6-6,6h-24.5c-3.3,0-6-2.7-6.1-6v-47.3c0-3.3,2.7-6,6-6h24.7c3.3,0,6,2.7,6,6L939.2,181.6z M939.3,116.9
		c0,3.3-2.7,6-6,6h-27.5c-3.3,0-6-2.6-6.1-6v-11c0-3.3,2.7-6,6-6h27.6c3.3,0,6,2.7,6,6V116.9z M956.2,252.1
		c-0.2-0.1-0.3-0.3-0.4-0.4c-3.8-5.4,2.1-11.3,7.5-7.5c0.1,0,0.2,0.2,0.4,0.4C967.5,250,961.6,255.9,956.2,252.1z M981.6,181.6
		c0,3.3-2.7,6-6,6h-25c-3.4,0-6.1-2.7-6-6l0.1-47.3c0-3.3,2.7-6,6-6h24.9c3.3,0,6,2.7,6,6V181.6z M984.5,116.9c0,3.3-2.7,6-6,6
		h-27.7c-3.3,0-6-2.7-6-6v-11c0.1-3.3,2.7-6,6.1-6h27.6c3.3,0,6,2.7,6,6V116.9z M1173.9,81.5l-8.2,4.9l1.7-9.4l-7.2-6.2l9.5-1.3
		l3.7-8.9l4.1,8.6l9.6,0.8l-6.9,6.7l2.2,9.3L1173.9,81.5z M1183,201.5c-2.9,0-5.2-2.3-5.2-5.2s2.3-5.2,5.2-5.2s5.2,2.3,5.2,5.2
		S1185.9,201.5,1183,201.5z M1315.5,104.1c-2.1-9.2,9.6-10.6,19-9.9c-8.3-3.4-18.2-9.8-11.1-17.1c7-7.3,13.3,0.3,17,8
		c-1.5-8.8-1-19,7.8-18c11.2,1.3,2.8,20.2-1.7,27.3c1,1.2,1,3-0.1,4.2c-1,1.1-2.5,1.3-3.7,0.7
		C1335.7,104.8,1318.1,115.1,1315.5,104.1z M1329.1,140.5l-8.1-7.5c-2.4-2.3-2.6-6.1-0.3-8.5l18.8-20.3c2.3-2.4,6.1-2.5,8.5-0.3
		l8.1,7.5c2.4,2.3,2.6,6.1,0.3,8.5l-18.8,20.3C1335.3,142.6,1331.5,142.8,1329.1,140.5z M1360.7,251.7c-0.1,0.1-0.2,0.3-0.4,0.4
		c-5.4,3.8-11.3-2.1-7.5-7.5c0.1-0.2,0.3-0.4,0.4-0.4C1358.6,240.4,1364.5,246.3,1360.7,251.7z M1404.1,163.6l-17,18.4
		c-2.3,2.4-6.1,2.6-8.5,0.3l-34.7-32.1c-2.4-2.3-2.6-6.1-0.3-8.5l16.9-18.3c2.2-2.4,6-2.5,8.5-0.3l34.8,32
		C1406.2,157.4,1406.4,161.2,1404.1,163.6z M1432.5,132.9l-16.7,18c-2.3,2.4-6.1,2.5-8.5,0.3l-34.8-32c-2.4-2.3-2.6-6.1-0.3-8.5
		l16.8-18.1c2.3-2.4,6.1-2.6,8.5-0.3l34.7,32.1C1434.6,126.7,1434.8,130.5,1432.5,132.9z M1511.1,216l-0.1-10.2l-8.9-5.1l9.7-3.3
		l2.1-10l6.1,8.2l10.2-1.1l-5.9,8.4l4.1,9.3l-9.7-3.1L1511.1,216z M1722.3,175.6l-1.7,8.7l-5.4-7l-8.9,1.1l5-7.4l-3.8-8l8.6,2.4
		l6.5-6.1l0.2,8.9l7.9,4.3L1722.3,175.6z M1894.5,253.5c-2.2,0-3.9-1.7-3.9-3.9c0-2.2,1.7-3.9,3.9-3.9s3.9,1.7,3.9,3.9
		C1898.4,251.8,1896.7,253.5,1894.5,253.5z M2038,257.8c-3.1-4.5,1.8-9.4,6.3-6.3c0.2,0.1,0.3,0.2,0.4,0.4c3.1,4.5-1.8,9.4-6.3,6.3
		C2038.3,258.1,2038.1,258,2038,257.8z M2289.4,177.3l-5.4,7l-1.7-8.7l-8.4-3.1l7.9-4.3l0.2-8.9l6.5,6.1l8.6-2.4l-3.8,8l5,7.4
		L2289.4,177.3z M2493.6,205.8l-0.1,10.2l-7.6-6.9l-9.7,3.1l4.1-9.3l-5.9-8.4l10.2,1.1l6.1-8.2l2.1,10l9.7,3.3L2493.6,205.8z
		 M2587.8,116.9v-11c0-3.3,2.7-6,6-6h27.6c3.3,0,6,2.7,6,6v11c0,3.3-2.7,6-6,6h-27.5C2590.6,122.9,2587.9,120.3,2587.8,116.9z
		 M2627.3,181.6c0,3.3-2.7,6-6,6h-24.5c-3.3,0-6-2.7-6.1-6v-47.3c0-3.3,2.7-6,6-6h24.7c3.3,0,6,2.7,6,6L2627.3,181.6z M2644.3,252.1
		c-0.2-0.1-0.3-0.3-0.4-0.4c-3.8-5.4,2.1-11.3,7.5-7.5c0.1,0,0.3,0.2,0.4,0.4C2655.6,250,2649.7,255.9,2644.3,252.1z M2669.7,181.6
		c0,3.3-2.7,6-6,6h-25c-3.3,0-6-2.7-6-6l0.1-47.3c0-3.3,2.7-6,6-6h24.9c3.3,0,6,2.7,6,6V181.6z M2672.7,116.9c0,3.3-2.7,6-6,6H2639
		c-3.3,0-6-2.7-6-6v-11c0-3.3,2.7-6,6-6h27.7c3.3,0,6,2.7,6,6V116.9z M2738.6,54.2l-14.2-5.8l-12.1,9.3l1.1-15.3l-12.6-8.7l14.9-3.6
		l4.4-14.7l8.1,13l15.3-0.3l-9.9,11.7L2738.6,54.2z M3075.7,53.6c8.4-4.4,12.6,6.6,14.3,15.9c1.3-8.9,5.1-20,13.9-15
		c8.8,5.1,3.1,13-3.5,18.5c8.2-3.6,18.2-5.6,19.4,3.1c1.6,11.2-18.8,7.6-27.1,5.1c-0.9,1.3-2.6,1.8-4,1c-1.3-0.7-1.9-2.1-1.6-3.4
		C3080,73.3,3065.7,58.8,3075.7,53.6z M2862.1,81.5l-8.2,4.9l1.7-9.4l-7.3-6.2l9.5-1.3l3.7-8.9l4.2,8.6l9.5,0.8l-6.9,6.7l2.2,9.3
		L2862.1,81.5z M2871.1,201.5c-2.9,0-5.2-2.3-5.2-5.2s2.3-5.2,5.2-5.2s5.2,2.3,5.2,5.2S2874,201.5,2871.1,201.5z M3015.8,134.1
		l22.5-41.6c1.5-2.9,5.2-4,8.1-2.4l21.9,11.8c2.9,1.6,4,5.2,2.4,8.1l-22.4,41.7c-1.5,2.9-5.2,4-8.1,2.4l-22-11.9
		C3015.3,140.7,3014.2,137,3015.8,134.1z M3048.8,251.7c-0.1,0.1-0.2,0.3-0.4,0.4c-5.4,3.8-11.3-2.1-7.5-7.5
		c0.1-0.2,0.3-0.4,0.4-0.4C3046.7,240.4,3052.6,246.3,3048.8,251.7z M3107.7,130l-22.5,41.6c-1.5,2.9-5.2,4-8.1,2.4l-21.6-11.7
		c-2.9-1.6-4-5.2-2.4-8.1l22.4-41.7c1.5-2.9,5.2-4,8.1-2.4l21.7,11.8C3108.2,123.5,3109.3,127.1,3107.7,130z M3123.7,106.4l-5.2,9.7
		c-1.5,2.9-5.2,4-8.1,2.4l-24.2-13.1c-2.9-1.6-4-5.2-2.4-8.1l5.2-9.7c1.5-2.9,5.2-4,8.1-2.4l24.2,13.1
		C3124.2,99.9,3125.3,103.5,3123.7,106.4z M3262.2,173.9c-2.2,0-3.9-1.7-3.9-3.9s1.7-3.9,3.9-3.9s3.9,1.7,3.9,3.9
		S3264.4,173.9,3262.2,173.9z M3339.2,216l-0.1-10.2l-8.8-5.1l9.6-3.3l2.2-10l6,8.2l10.2-1.1l-5.9,8.4l4.2,9.3l-9.8-3.1L3339.2,216z
		 M3550.4,175.6l-1.6,8.7l-5.5-7l-8.9,1.1l5-7.4l-3.8-8l8.6,2.4l6.5-6.1l0.3,8.9l7.8,4.3L3550.4,175.6z M3733.2,205.1
		c-1.4,0-2.6-1.2-2.6-2.6c0-1.4,1.2-2.6,2.6-2.6s2.6,1.2,2.6,2.6C3735.8,203.9,3734.6,205.1,3733.2,205.1z M3765.6,344.3
		c-0.1,0.1-0.2,0.3-0.4,0.4c-5.4,3.8-11.3-2.1-7.5-7.5c0.1-0.2,0.3-0.4,0.4-0.4C3763.5,333,3769.4,338.9,3765.6,344.3z
		 M3779.3,252.3l-9.7-2.5l-7,7.1l-0.7-10l-8.9-4.5l9.3-3.7l1.5-9.8l6.4,7.7l9.9-1.6l-5.4,8.4L3779.3,252.3z"/>
	<path class="elementor-shape-fill ha-shape-divider" d="M2060,314.1c-1.9,0-3.4,1.5-3.4,3.4c0,1.9,1.5,3.4,3.4,3.4c1.1,0,2.1-0.5,2.7-1.3c0.4-0.4,0.6-1,0.7-1.6c0-0.2,0-0.3,0-0.5
		C2063.4,315.6,2061.9,314.1,2060,314.1z"/>
	<path class="elementor-shape-fill ha-shape-divider" d="M2079.8,301.1c0-1.8-1.5-3.3-3.4-3.3s-3.4,1.4-3.4,3.3c0,1.9,1.5,3.4,3.4,3.4c0.1,0,0.3,0,0.4,0c0.7,0,1.2-0.3,1.7-0.7
		C2079.3,303.1,2079.8,302.2,2079.8,301.1z"/>
	<path class="elementor-shape-fill ha-shape-divider" d="M2069.7,319.5c-0.5,0-0.8,0.2-1.1,0.5c-0.3,0.3-0.5,0.7-0.5,1.2c0,0.2,0,0.3,0.1,0.5c0.2,0.6,0.8,1.1,1.5,1.1
		c0.2,0,0.5-0.1,0.7-0.2c0.6-0.2,0.9-0.8,0.9-1.5C2071.2,320.2,2070.6,319.5,2069.7,319.5z"/>
	<path class="elementor-shape-fill ha-shape-divider" d="M2080.7,309.4c-0.2-0.1-0.3-0.1-0.5-0.1c-0.5,0-1,0.3-1.2,0.6c-0.4,0.2-0.5,0.6-0.5,1c0,0.9,0.7,1.6,1.5,1.6h0.1
		c0.6,0,1.2-0.4,1.4-0.9c0.1-0.2,0.2-0.5,0.3-0.7C2081.8,310.2,2081.3,309.6,2080.7,309.4z"/>
	<path class="elementor-shape-fill ha-shape-divider" d="M767.6,223.8c0,6.9-1.2,12.1-2.4,15.7l4.7-5.1c0.3-0.4,2.9-4.1,3.2-12L767.6,223.8z"/>
	<path class="elementor-shape-fill ha-shape-divider" d="M734.3,225.8l-6.7-1c-0.5,6.8,2.1,10.4,2.8,11.3l0.1,0.1c0.1,0.1,0.1,0.1,0.1,0.1l5.6,5
		C734.8,237.7,733.6,232.6,734.3,225.8z"/>
	<path class="elementor-shape-fill ha-shape-divider" d="M728.9,237.6c-0.7-0.5-4.1-2.7-11.8-3l1.4,5.5c7.1,0.1,12.4,1.3,15.8,2.4l-5.2-4.7C729.1,237.8,729,237.7,728.9,237.6z"/>
	<path class="elementor-shape-fill ha-shape-divider" d="M591.8,52.8L591.8,52.8c0.9-0.1,1.6-0.7,1.6-1.6c0-0.3-0.2-0.7-0.5-1c-0.3-0.4-0.7-0.6-1.2-0.6c-0.1,0-0.3,0-0.5,0.1
		c-0.6,0.3-1,0.8-1,1.5c0,0.2,0.1,0.5,0.2,0.7C590.6,52.4,591.2,52.8,591.8,52.8z"/>
	<path class="elementor-shape-fill ha-shape-divider" d="M546.7,68.5c0,21.1,17.1,38.2,38.2,38.2s38.2-17.1,38.2-38.2c0-21.1-17.1-38.2-38.2-38.2S546.7,47.4,546.7,68.5z M591.7,48
		c0.1,0,0.1,0,0.2,0l0.8-2c-1.4-0.9-2.4-2.5-2.4-4.3c0-2.8,2.3-5.1,5.1-5.1s5.1,2.3,5.1,5.1s-2.3,5.1-5.1,5.1c-0.4,0-0.8,0-1.1-0.1
		l-0.7,1.8c0.9,0.6,1.5,1.6,1.5,2.8c0,1.9-1.5,3.4-3.4,3.4c-0.1,0-0.3,0-0.5-0.1L586.4,67l12.3-5c-0.1-0.2-0.1-0.3-0.1-0.5
		c0-1.9,1.5-3.4,3.4-3.4c1.2,0,2.2,0.6,2.8,1.5l1.9-0.7c-0.1-0.4-0.1-0.7-0.1-1.1c0-2.8,2.3-5.1,5.1-5.1c2.8,0,5.1,2.3,5.1,5.1
		s-2.3,5.1-5.1,5.1c-1.8,0-3.4-1-4.3-2.4l-2,0.8c0,0.1,0,0.1,0,0.2c0,1.9-1.4,3.4-3.3,3.4c-1.1,0-2-0.5-2.6-1.2l-12.2,4.7l12.2,4.7
		c0.6-0.7,1.6-1.2,2.6-1.2c1.8,0,3.3,1.5,3.3,3.4c0,0.1,0,0.1,0,0.2l2,0.8c0.9-1.4,2.5-2.4,4.3-2.4c2.8,0,5.2,2.3,5.2,5.1
		s-2.3,5.1-5.1,5.1c-2.8,0-5.1-2.3-5.1-5.1c0-0.4,0-0.7,0.1-1.1l-1.9-0.7c-0.6,0.9-1.6,1.5-2.8,1.5c-1.9,0-3.4-1.5-3.4-3.4
		c0-0.1,0-0.3,0.1-0.5L586.4,70l5,12.5c0.1-0.1,0.3-0.1,0.5-0.1c1.9,0,3.4,1.5,3.4,3.4c0,1.2-0.6,2.2-1.5,2.8l0.7,1.8
		c0.4-0.1,0.7-0.1,1.1-0.1c2.8,0,5.1,2.3,5.1,5.1c0,2.8-2.3,5.1-5.1,5.1c-2.8,0-5.1-2.3-5.1-5.1c0-1.8,1-3.4,2.4-4.3l-0.8-2
		c-0.1,0-0.1,0-0.2,0c-1.9,0-3.4-1.5-3.4-3.4c0-1.1,0.5-2,1.2-2.6L585,70.9l-4.7,12.2c0.7,0.6,1.2,1.6,1.2,2.6
		c0,1.9-1.6,3.4-3.4,3.4c-0.1,0-0.1,0-0.2,0l-0.8,2c1.4,0.9,2.4,2.5,2.4,4.3c0,2.8-2.3,5.1-5.1,5.1c-2.8,0-5.1-2.3-5.1-5.1
		s2.3-5.1,5.1-5.1c0.4,0,0.8,0,1.1,0.1l0.7-1.8c-0.9-0.6-1.5-1.6-1.5-2.8c0-1.9,1.5-3.4,3.4-3.4c0.2,0,0.3,0,0.5,0.1l4.8-12.4
		L571,74.9c0.1,0.2,0.1,0.3,0.1,0.5c0,1.9-1.5,3.4-3.4,3.4c-1.2,0-2.2-0.6-2.8-1.5L563,78c0.1,0.4,0.1,0.7,0.1,1.1
		c0,2.8-2.3,5.1-5.1,5.1s-5.1-2.3-5.1-5.1c0-2.8,2.3-5.1,5.1-5.1c1.8,0,3.4,1,4.3,2.4l2-0.8c0-0.1,0-0.1,0-0.2
		c0-1.9,1.4-3.4,3.3-3.4c1.1,0,2,0.5,2.6,1.2l12.2-4.7l-12.2-4.7c-0.6,0.7-1.6,1.2-2.6,1.2c-1.8,0-3.3-1.5-3.3-3.4
		c0-0.1,0-0.1,0-0.2l-2-0.8c-0.9,1.4-2.5,2.4-4.3,2.4c-2.8,0-5.1-2.3-5.1-5.1c0-2.8,2.3-5.1,5.1-5.1s5.1,2.3,5.1,5.1
		c0,0.4,0,0.7-0.1,1.1l1.9,0.7c0.6-0.9,1.6-1.5,2.8-1.5c1.9,0,3.4,1.5,3.4,3.4c0,0.2,0,0.3-0.1,0.5l12.3,4.7l-4.8-12.4
		c-0.2,0.1-0.3,0.1-0.5,0.1c-1.9,0-3.4-1.5-3.4-3.4c0-1.2,0.6-2.2,1.5-2.8l-0.7-1.8c-0.4,0.1-0.7,0.1-1.1,0.1
		c-2.8,0-5.1-2.3-5.1-5.1s2.3-5.1,5.1-5.1c2.8,0,5.1,2.3,5.1,5.1c0,1.8-1,3.4-2.4,4.3l0.8,2c0.1,0,0.1,0,0.2,0
		c1.9,0,3.4,1.5,3.4,3.4c0,1.1-0.5,2-1.2,2.6l4.7,12.2l4.6-12c-0.7-0.6-1.2-1.5-1.2-2.6C588.3,49.5,589.8,48,591.7,48z"/>
	<path class="elementor-shape-fill ha-shape-divider" d="M746.5,250.8c-0.5,0.5-1,1-1.4,1.6c-0.3,0.4-0.5,0.9-0.7,1.4l-0.1,0.3c-0.2,0.4-0.3,1-0.4,1.5c-0.2,0.6-0.2,1.4-0.1,2.1
		c0,0.7,0.2,1.4,0.5,2.1c0.3,0.6,0.7,1.2,1.2,1.7s1,1,1.6,1.4c0.4,0.3,0.9,0.5,1.4,0.7l0.3,0.1c0.4,0.2,1,0.3,1.5,0.4
		c0.7,0.1,1.4,0.1,2.1,0c0.7,0,1.4-0.2,2.1-0.5c0.6-0.3,1.2-0.7,1.7-1.2c0.6-0.4,1-1,1.5-1.6c0.3-0.4,0.5-0.9,0.7-1.4l0.1-0.3
		c0.2-0.4,0.3-1,0.4-1.5c0.1-0.6,0.1-1.4,0-2.1c0-0.7-0.2-1.4-0.5-2.1c-0.3-0.6-0.7-1.2-1.2-1.7s-1-1-1.6-1.4
		c-0.4-0.3-0.9-0.5-1.4-0.7l-0.3-0.1c-0.4-0.2-1-0.3-1.5-0.4c-0.6-0.1-1.4-0.1-2.1,0c-0.7,0-1.4,0.2-2.1,0.5
		C747.6,249.9,747,250.3,746.5,250.8z"/>
	<path class="elementor-shape-fill ha-shape-divider" d="M750.2,227.4c-0.2-1.2-1.1-5.5-6.4-9.7l-3.7,5.6c5.4,4.1,8.4,8.4,10.1,11.9v-7.5c0,0,0,0,0-0.1
		C750.2,227.5,750.2,227.5,750.2,227.4z"/>
	<path class="elementor-shape-fill ha-shape-divider" d="M744.4,296.4c5.1-6,5.6-10.5,5.8-11h0v-7c-1.6,3.5-4.2,8.1-8.9,13.3L744.4,296.4z"/>
	<path class="elementor-shape-fill ha-shape-divider" d="M712.4,264l5.6,3.7c4.1-5.5,8.4-8.5,11.9-10.1h-7.5c0,0,0,0-0.1,0c-0.1,0-0.1,0-0.2,0C720.9,257.8,716.6,258.7,712.4,264z"
		/>
	<path class="elementor-shape-fill ha-shape-divider" d="M731.2,277.2l5-5.6c-3.6,1.4-8.7,2.6-15.5,1.9l-1.1,6.6c6.7,0.5,10.3-2,11.4-2.7L731.2,277.2
		C731.2,277.2,731.2,277.2,731.2,277.2z"/>
	<path class="elementor-shape-fill ha-shape-divider" d="M737.3,273.5l-4.7,5.1c-0.3,0.4-2.9,4.1-3.2,12l5.5-1.4C734.9,282.3,736,277.1,737.3,273.5z"/>
	<path class="elementor-shape-fill ha-shape-divider" d="M729.4,255.4c-3.4-1.5-8.1-4.1-13.4-8.9l-4.7,3.1c5.9,5,9.8,5.7,10.9,5.8c0.1,0,0.2,0,0.2,0H729.4z"/>
	<path class="elementor-shape-fill ha-shape-divider" d="M611.7,82.3c1.9,0,3.4-1.5,3.4-3.3c0-1.9-1.5-3.4-3.4-3.4c-1.1,0-2.1,0.5-2.7,1.3c-0.4,0.4-0.6,1-0.7,1.6
		c0,0.1,0,0.3,0,0.4C608.3,80.8,609.8,82.3,611.7,82.3z"/>
	<path class="elementor-shape-fill ha-shape-divider" d="M576.4,92.6c-0.4-0.4-1-0.6-1.6-0.7c-0.1,0-0.3,0-0.4,0c-1.9,0-3.4,1.5-3.4,3.4c0,1.8,1.5,3.3,3.4,3.3
		c1.9,0,3.4-1.4,3.4-3.3C577.8,94.2,577.3,93.3,576.4,92.6z"/>
	<path class="elementor-shape-fill ha-shape-divider" d="M578,84.1h-0.1c-0.8,0.1-1.5,0.7-1.5,1.6c0,0.3,0.2,0.7,0.5,1c0.3,0.4,0.7,0.6,1.2,0.6c0.2,0,0.3,0,0.5-0.1
		c0.6-0.2,1.1-0.8,1-1.5c0-0.2-0.1-0.5-0.2-0.7C579.2,84.4,578.6,84.1,578,84.1z"/>
	<path class="elementor-shape-fill ha-shape-divider" d="M558.1,75.5c-1.9,0-3.4,1.5-3.4,3.4c0,1.9,1.5,3.4,3.4,3.4c1.8,0,3.3-1.5,3.4-3.5c0-0.1,0-0.3,0-0.4
		c-0.1-0.6-0.3-1.1-0.7-1.6C560.1,76,559.2,75.5,558.1,75.5z"/>
	<path class="elementor-shape-fill ha-shape-divider" d="M568.4,74c-0.2-0.1-0.4-0.2-0.7-0.2c-0.7,0-1.3,0.4-1.5,1c-0.1,0.2-0.1,0.3-0.1,0.5c0,0.5,0.2,1,0.5,1.2
		c0.3,0.3,0.7,0.5,1.1,0.5c0.9,0,1.6-0.7,1.6-1.5C569.3,74.8,568.9,74.2,568.4,74z"/>
	<path class="elementor-shape-fill ha-shape-divider" d="M592,95.4c0,1.8,1.5,3.3,3.4,3.3s3.4-1.4,3.4-3.3c0-1.9-1.5-3.4-3.4-3.4c-0.1,0-0.3,0-0.4,0c-0.6,0-1.2,0.3-1.7,0.7
		C592.5,93.4,592,94.3,592,95.4z"/>
	<path class="elementor-shape-fill ha-shape-divider" d="M611.7,61.4c1.9,0,3.4-1.5,3.4-3.4s-1.5-3.4-3.4-3.4c-1.8,0-3.3,1.5-3.4,3.5c0,0.1,0,0.3,0,0.4c0.1,0.6,0.3,1.1,0.7,1.6
		C609.7,60.9,610.6,61.4,611.7,61.4z"/>
	<path class="elementor-shape-fill ha-shape-divider" d="M591.2,87.1c0.1,0.1,0.3,0.1,0.5,0.1c0.5,0,1-0.3,1.2-0.6c0.4-0.2,0.5-0.6,0.5-1c0-0.9-0.7-1.6-1.5-1.6h-0.1
		c-0.6,0-1.2,0.4-1.4,0.9c-0.2,0.3-0.2,0.5-0.3,0.7C590.1,86.3,590.6,86.9,591.2,87.1z"/>
	<path class="elementor-shape-fill ha-shape-divider" d="M601.3,63.1c0.2,0.1,0.4,0.2,0.7,0.2c0.7,0,1.3-0.5,1.5-1.1c0.1-0.2,0.1-0.3,0.1-0.5c0-0.5-0.2-1-0.5-1.2
		c-0.2-0.3-0.6-0.5-1-0.5c-0.9,0-1.6,0.7-1.6,1.5c0,0,0,0.1-0.1,0.2C600.4,62.3,600.8,62.9,601.3,63.1z"/>
	<path class="elementor-shape-fill ha-shape-divider" d="M593.4,44.3c0.4,0.4,1,0.6,1.6,0.7c0.1,0,0.3,0,0.4,0c1.9,0,3.4-1.5,3.4-3.4c0-1.8-1.5-3.3-3.4-3.3s-3.4,1.4-3.4,3.3
		C592,42.7,592.5,43.7,593.4,44.3z"/>
	<path class="elementor-shape-fill ha-shape-divider" d="M758.7,295.3l3.7-5.6c-5.4-4.1-8.5-8.4-10.1-11.9v7.5v0.1C752.4,286.4,753.1,290.9,758.7,295.3z"/>
	<path class="elementor-shape-fill ha-shape-divider" d="M602.2,77c0.4,0,0.7-0.2,1-0.5c0.3-0.3,0.5-0.7,0.6-1.2c0-0.2,0-0.3-0.1-0.5c-0.2-0.5-0.8-1-1.5-1c-0.2,0-0.5,0.1-0.7,0.2
		c-0.5,0.2-0.9,0.8-0.9,1.4C600.7,76.3,601.3,77,602.2,77z"/>
	<path class="elementor-shape-fill ha-shape-divider" d="M1125.4,174.7c-0.1,0-0.3,0-0.4,0c-1.9,0-3.4,1.5-3.4,3.4c0,1.8,1.5,3.3,3.4,3.3s3.4-1.4,3.4-3.3c0-1-0.5-2-1.4-2.7
		C1126.6,175,1126,174.8,1125.4,174.7z"/>
	<path class="elementor-shape-fill ha-shape-divider" d="M1111.4,159.7c-0.7-0.8-1.6-1.3-2.7-1.3c-1.9,0-3.4,1.5-3.4,3.4c0,1.9,1.5,3.4,3.4,3.4c1.8,0,3.4-1.6,3.4-3.5
		c0-0.1,0-0.3,0-0.4C1112,160.7,1111.8,160.2,1111.4,159.7z"/>
	<path class="elementor-shape-fill ha-shape-divider" d="M1119,156.8c-0.2-0.1-0.4-0.2-0.7-0.2c-0.7,0-1.3,0.4-1.5,1c-0.1,0.2-0.1,0.3-0.1,0.5c0,0.5,0.2,1,0.5,1.2
		c0.3,0.3,0.7,0.5,1.1,0.5c0.9,0,1.6-0.7,1.6-1.5C1119.9,157.6,1119.5,157,1119,156.8z"/>
	<path class="elementor-shape-fill ha-shape-divider" d="M1118.3,142.7c-0.5,0-0.8,0.2-1.1,0.5c-0.3,0.3-0.5,0.7-0.5,1.2c0,0.2,0,0.3,0.1,0.5c0.2,0.6,0.8,1.1,1.5,1.1
		c0.2,0,0.5-0.1,0.7-0.2c0.6-0.2,0.9-0.7,0.9-1.5C1119.8,143.4,1119.2,142.7,1118.3,142.7z"/>
	<path class="elementor-shape-fill ha-shape-divider" d="M1108.6,137.3c-1.9,0-3.4,1.5-3.4,3.4c0,1.9,1.5,3.4,3.4,3.4c1.1,0,2.1-0.5,2.7-1.3c0.4-0.4,0.6-1,0.7-1.6
		c0.1-0.1,0.1-0.3,0-0.5C1112,138.8,1110.5,137.3,1108.6,137.3z"/>
	<path class="elementor-shape-fill ha-shape-divider" d="M1129.3,132.6c-0.2-0.1-0.3-0.1-0.5-0.1c-0.5,0-1,0.3-1.2,0.6c-0.4,0.2-0.5,0.6-0.5,1c0,0.9,0.7,1.6,1.5,1.6h0.1
		c0.6,0,1.2-0.4,1.4-0.9c0.1-0.2,0.2-0.4,0.3-0.7C1130.4,133.4,1129.9,132.8,1129.3,132.6z"/>
	<path class="elementor-shape-fill ha-shape-divider" d="M1141.8,170c0.1,0.1,0.3,0.1,0.5,0.1c0.5,0,1-0.3,1.2-0.6c0.4-0.2,0.5-0.6,0.5-1c0-0.9-0.7-1.6-1.5-1.6h-0.1
		c-0.6,0-1.2,0.4-1.4,0.9c-0.2,0.2-0.2,0.4-0.3,0.7C1140.7,169.2,1141.2,169.8,1141.8,170z"/>
	<path class="elementor-shape-fill ha-shape-divider" d="M1162.4,165.2c1.8,0,3.3-1.6,3.4-3.3c0-1.9-1.5-3.4-3.4-3.4c-1.1,0-2.1,0.5-2.7,1.3c-0.4,0.4-0.6,1-0.7,1.6
		c0,0.1,0,0.3,0,0.4C1159,163.7,1160.5,165.2,1162.4,165.2z"/>
	<path class="elementor-shape-fill ha-shape-divider" d="M1152.8,159.8c0.4,0,0.7-0.2,1-0.5c0.3-0.2,0.5-0.7,0.6-1.2c0-0.2,0-0.3-0.1-0.5c-0.2-0.5-0.8-1-1.5-1
		c-0.2,0-0.5,0.1-0.7,0.2c-0.5,0.2-0.9,0.8-0.9,1.4v0.1C1151.3,159.1,1151.9,159.8,1152.8,159.8z"/>
	<path class="elementor-shape-fill ha-shape-divider" d="M1128.5,124.4c0-1.8-1.5-3.3-3.4-3.3s-3.4,1.4-3.4,3.3c0,1.9,1.5,3.4,3.4,3.4c0.1,0,0.3,0,0.4,0c0.6-0.1,1.1-0.3,1.7-0.7
		C1128,126.4,1128.5,125.5,1128.5,124.4z"/>
	<path class="elementor-shape-fill ha-shape-divider" d="M1128.6,166.9L1128.6,166.9c-0.9,0.1-1.6,0.7-1.6,1.6c0,0.3,0.2,0.7,0.5,1c0.3,0.4,0.7,0.6,1.2,0.6c0.2,0,0.3,0,0.5-0.1
		c0.6-0.2,1.1-0.8,1-1.5c0-0.2-0.1-0.5-0.2-0.7C1129.8,167.2,1129.2,166.9,1128.6,166.9z"/>
	<path class="elementor-shape-fill ha-shape-divider" d="M1142.6,178.2c0,1.8,1.5,3.3,3.4,3.3s3.4-1.4,3.4-3.3c0-1.9-1.5-3.4-3.4-3.4c-0.1,0-0.3,0-0.4,0c-0.6,0.1-1.2,0.3-1.7,0.7
		C1143.1,176.2,1142.6,177.1,1142.6,178.2z"/>
	<path class="elementor-shape-fill ha-shape-divider" d="M771.4,235.9l-5,5.6c3.6-1.4,8.7-2.5,15.5-1.9l1-6.7c-7.1-0.6-10.7,2.3-11.3,2.9L771.4,235.9
		C771.5,235.9,771.4,235.9,771.4,235.9z"/>
	<path class="elementor-shape-fill ha-shape-divider" d="M773.2,257.6c3.3,1.5,8,4.2,13.3,8.9l4.7-3.1c-5.9-5-9.8-5.7-10.8-5.8c-0.1,0-0.2,0-0.2,0H773.2z"/>
	<path class="elementor-shape-fill ha-shape-divider" d="M3089.6,76.3c-1.8-8-6.6-25.4-13.3-22.1c-6.5,3.2,4.6,16.3,11.4,23.3C3088.2,76.9,3088.9,76.5,3089.6,76.3z"/>
	<path class="elementor-shape-fill ha-shape-divider" d="M1135.6,93.6c-2,0-3.5,1.6-3.5,3.5c0,1.2,0.6,2.3,1.5,2.9c0.7,0,1.3,0,2,0c0.6,0,1.3,0,1.9,0c0.9-0.7,1.5-1.7,1.6-2.9
		C1139.1,95.1,1137.5,93.6,1135.6,93.6z"/>
	<path class="elementor-shape-fill ha-shape-divider" d="M776.2,276.6c1.9,0.7,4.8,1.6,9.2,1.7l-1.4-5.5c-7.1,0-12.3-1.2-15.8-2.4l5.1,4.7C773.5,275.3,774.4,275.9,776.2,276.6z"/>
	<path class="elementor-shape-fill ha-shape-divider" d="M790.1,249l-5.6-3.7c-4.2,5.5-8.4,8.5-11.9,10.1h7.5c0,0,0,0,0.1,0c0,0,0.1,0,0.2,0C781.6,255.2,785.9,254.3,790.1,249z"/>
	<path class="elementor-shape-fill ha-shape-divider" d="M768.3,287.2l6.6,1c0.5-6.8-2.1-10.4-2.8-11.3l-0.2-0.2l-5.6-5C767.8,275.3,768.9,280.4,768.3,287.2z"/>
	<path class="elementor-shape-fill ha-shape-divider" d="M966.4,82.6c-4.3-6.1-16.8,6.9-22.2,13.1c0.6,0.5,0.9,1.2,1,2C954.5,94.7,970.6,88.4,966.4,82.6z"/>
	<path class="elementor-shape-fill ha-shape-divider" d="M918.4,81.4c-4.4,5.8,11.7,12.6,20.8,15.9c0.1-0.7,0.5-1.2,1-1.6C935.3,89.6,923,75.4,918.4,81.4z"/>
	<path class="elementor-shape-fill ha-shape-divider" d="M941.8,70.3c-8.8,0.4-2.9,18.3-0.4,24.8c0.2-0.1,0.5-0.1,0.7-0.1c0.3,0,0.5,0,0.8,0.1c0.1-0.2,0.3-0.4,0.4-0.6
		C946.1,86,949.9,69.9,941.8,70.3z"/>
	<path class="elementor-shape-fill ha-shape-divider" d="M752.3,227.7L752.3,227.7l0,6.9c1.6-3.6,4.3-8.2,8.9-13.3l-3.1-4.7C753,222.6,752.4,227.1,752.3,227.7z"/>
	<path class="elementor-shape-fill ha-shape-divider" d="M3586.5,82.3c1.9,0,3.4-1.5,3.4-3.3c0-1.9-1.5-3.4-3.4-3.4c-1.1,0-2.1,0.5-2.7,1.3c-0.4,0.4-0.6,1-0.7,1.6
		c0,0.1,0,0.3,0,0.4C3583.1,80.8,3584.6,82.3,3586.5,82.3z"/>
	<path class="elementor-shape-fill ha-shape-divider" d="M3360.1,245.4l-5.6,3.7c4.2,5.3,8.5,6.2,9.7,6.4c0.1,0,0.2,0,0.2,0c0.1,0,0.1,0,0.1,0h7.5
		C3368.5,253.8,3364.3,250.8,3360.1,245.4z"/>
	<path class="elementor-shape-fill ha-shape-divider" d="M3372.8,276.7c0,0-0.1,0-0.1,0.1c0,0-0.1,0-0.1,0.1c-0.8,0.9-3.4,4.5-2.8,11.3l6.6-1c-0.6-6.8,0.6-11.9,2-15.5
		L3372.8,276.7z"/>
	<path class="elementor-shape-fill ha-shape-divider" d="M3364.2,257.6c-1,0.1-4.9,0.8-10.7,5.8l4.7,3.1c5.2-4.8,9.9-7.4,13.3-8.9h-7C3364.5,257.6,3364.4,257.6,3364.2,257.6z"/>
	<path class="elementor-shape-fill ha-shape-divider" d="M3377,223.9l-5.5-1.4c0.3,7.9,2.9,11.6,3.2,12l4.7,5.1C3378.2,235.9,3377,230.7,3377,223.9z"/>
	<path class="elementor-shape-fill ha-shape-divider" d="M3373,235.8c-0.6-0.6-4.2-3.5-11.4-2.9l1,6.7c6.8-0.6,11.9,0.5,15.5,1.9l-5-5.6C3373.1,235.9,3373.1,235.9,3373,235.8z"/>
	<path class="elementor-shape-fill ha-shape-divider" d="M3385.9,295.3c5.6-4.4,6.3-8.9,6.4-9.8v-0.2h0v-7.5c-1.6,3.5-4.7,7.8-10.1,11.9L3385.9,295.3z"/>
	<path class="elementor-shape-fill ha-shape-divider" d="M3413.7,277.2c0,0,0,0.1,0.1,0.1c0.9,0.8,4.5,3.3,11.4,2.7l-1.1-6.6c-6.8,0.7-11.9-0.5-15.5-1.9l5,5.6
		C3413.6,277.1,3413.6,277.2,3413.7,277.2z"/>
	<path class="elementor-shape-fill ha-shape-divider" d="M3409.7,289.1l5.5,1.4c-0.3-7.9-2.9-11.6-3.2-12l-4.7-5.1C3408.6,277.1,3409.7,282.3,3409.7,289.1z"/>
	<path class="elementor-shape-fill ha-shape-divider" d="M3426.6,267.6l5.6-3.7c-4.2-5.3-8.5-6.2-9.7-6.4c-0.1,0-0.2,0-0.2,0c-0.1,0-0.1,0-0.1,0h-7.5
		C3418.2,259.2,3422.5,262.2,3426.6,267.6z"/>
	<path class="elementor-shape-fill ha-shape-divider" d="M3360.6,272.8l-1.4,5.5c4.4-0.1,7.3-1,9.2-1.7c1.7-0.7,2.7-1.3,2.9-1.5l5.1-4.7C3372.9,271.5,3367.7,272.8,3360.6,272.8z"
		/>
	<path class="elementor-shape-fill ha-shape-divider" d="M3383.3,221.3c4.6,5.1,7.3,9.7,8.9,13.3v-7c0-0.5-0.6-5-5.8-11L3383.3,221.3z"/>
	<path class="elementor-shape-fill ha-shape-divider" d="M3403.4,291.7c-4.7-5.1-7.3-9.7-8.9-13.3h0v7c0.1,0.5,0.6,5,5.8,11L3403.4,291.7z"/>
	<path class="elementor-shape-fill ha-shape-divider" d="M1341,96.5c-8.3-0.2-26.3,0.1-24.8,7.4c1.5,7.1,17-0.4,25.5-5.3C1341.2,98,1341,97.2,1341,96.5z"/>
	<path class="elementor-shape-fill ha-shape-divider" d="M2048.7,328.1c0,21.1,17.1,38.2,38.2,38.2s38.2-17.1,38.2-38.2c0-21.1-17.1-38.2-38.2-38.2
		C2065.8,289.9,2048.7,307,2048.7,328.1z M2093.7,307.4c0.1,0,0.1,0,0.2,0l0.8-2c-1.4-0.9-2.4-2.5-2.4-4.3c0-2.8,2.3-5.1,5.1-5.1
		s5.1,2.3,5.1,5.1c0,2.8-2.3,5.1-5.1,5.1c-0.4,0-0.8,0-1.1-0.1l-0.7,1.8c0.9,0.6,1.5,1.6,1.5,2.8c0,1.9-1.5,3.4-3.4,3.4
		c-0.1,0-0.3,0-0.5-0.1l-4.8,12.4l12.4-4.8c-0.1-0.2-0.1-0.3-0.1-0.5c0-1.9,1.5-3.4,3.4-3.4c1.2,0,2.2,0.6,2.8,1.5l1.9-0.7
		c-0.1-0.4-0.1-0.7-0.1-1.1c0-2.8,2.3-5.1,5.1-5.1s5.1,2.3,5.1,5.1c0,2.8-2.3,5.1-5.1,5.1c-1.8,0-3.4-1-4.3-2.4l-2,0.8
		c0,0.1,0,0.1,0,0.2c0,1.9-1.4,3.4-3.3,3.4c-1.1,0-2-0.5-2.6-1.2l-12.2,4.7l12.2,4.7c0.6-0.7,1.6-1.2,2.6-1.2c1.8,0,3.3,1.5,3.3,3.4
		c0,0.1,0,0.1,0,0.2l2,0.8c0.9-1.4,2.5-2.4,4.3-2.4c2.8,0,5.1,2.3,5.1,5.1c0,2.8-2.3,5.1-5.1,5.1s-5.1-2.3-5.1-5.1
		c0-0.4,0-0.7,0.1-1.1l-1.9-0.7c-0.6,0.9-1.6,1.5-2.8,1.5c-1.9,0-3.4-1.5-3.4-3.4c0-0.1,0-0.3,0.1-0.5l-12.4-4.8l4.8,12.4
		c0.1-0.1,0.3-0.1,0.5-0.1c1.9,0,3.4,1.5,3.4,3.4c0,1.2-0.6,2.2-1.5,2.8l0.7,1.8c0.4-0.1,0.7-0.1,1.1-0.1c2.8,0,5.1,2.3,5.1,5.1
		c0,2.8-2.3,5.1-5.1,5.1s-5.1-2.3-5.1-5.1c0-1.8,1-3.4,2.4-4.3l-0.8-2c-0.1,0-0.1,0-0.2,0c-1.9,0-3.4-1.5-3.4-3.4
		c0-1.1,0.5-2,1.2-2.6l-4.7-12.2l-4.7,12.2c0.7,0.6,1.2,1.6,1.2,2.6c0,1.9-1.6,3.4-3.4,3.4c-0.1,0-0.1,0-0.2,0l-0.8,2
		c1.4,0.9,2.4,2.5,2.4,4.3c0,2.8-2.3,5.1-5.1,5.1s-5.1-2.3-5.1-5.1c0-2.8,2.3-5.1,5.1-5.1c0.4,0,0.8,0,1.1,0.1l0.7-1.8
		c-0.9-0.6-1.5-1.6-1.5-2.8c0-1.9,1.5-3.4,3.4-3.4c0.2,0,0.3,0,0.5,0.1l4.8-12.4l-12.4,4.8c0.1,0.2,0.1,0.3,0.1,0.5
		c0,1.9-1.5,3.4-3.4,3.4c-1.2,0-2.2-0.6-2.8-1.5l-1.9,0.7c0.1,0.4,0.1,0.7,0.1,1.1c0,2.8-2.3,5.1-5.1,5.1s-5.1-2.3-5.1-5.1
		c0-2.8,2.3-5.1,5.1-5.1c1.8,0,3.4,1,4.3,2.4l2-0.8c0-0.1,0-0.1,0-0.2c0-1.9,1.4-3.4,3.3-3.4c1.1,0,2,0.5,2.6,1.2l12.2-4.7
		l-12.2-4.7c-0.6,0.7-1.6,1.2-2.6,1.2c-1.8,0-3.3-1.5-3.3-3.4c0-0.1,0-0.1,0-0.2l-2-0.8c-0.9,1.4-2.5,2.4-4.3,2.4
		c-2.8,0-5.1-2.3-5.1-5.1c0-2.8,2.3-5.1,5.1-5.1s5.1,2.3,5.1,5.1c0,0.4,0,0.7-0.1,1.1l1.9,0.7c0.6-0.9,1.6-1.5,2.8-1.5
		c1.9,0,3.4,1.5,3.4,3.4c0,0.2,0,0.3-0.1,0.5l12.4,4.8l-4.8-12.4c-0.2,0.1-0.3,0.1-0.5,0.1c-1.9,0-3.4-1.5-3.4-3.4
		c0-1.2,0.6-2.2,1.5-2.8l-0.7-1.8c-0.4,0.1-0.7,0.1-1.1,0.1c-2.8,0-5.1-2.3-5.1-5.1c0-2.8,2.3-5.1,5.1-5.1s5.1,2.3,5.1,5.1
		c0,1.8-1,3.4-2.4,4.3l0.8,2c0.1,0,0.1,0,0.2,0c1.9,0,3.4,1.5,3.4,3.4c0,1.1-0.5,2-1.2,2.6l4.7,12.2l4.7-12.2
		c-0.7-0.6-1.2-1.5-1.2-2.6C2090.3,308.9,2091.8,307.4,2093.7,307.4z"/>
	<path class="elementor-shape-fill ha-shape-divider" d="M3093.3,80.1c9.4,1.4,27,3,25.8-4.1c-1.3-7.4-18.8-0.8-25.9,2.2C3093.4,78.8,3093.4,79.5,3093.3,80.1z"/>
	<path class="elementor-shape-fill ha-shape-divider" d="M2633.4,97.7c9.3-3,25.3-9.3,21.1-15.1c-4.3-6.1-16.8,6.9-22.2,13.1C2632.9,96.2,2633.3,96.9,2633.4,97.7z"/>
	<path class="elementor-shape-fill ha-shape-divider" d="M2629.9,70.3c-8.9,0.4-2.8,18.4-0.4,24.8c0.3-0.1,0.5-0.1,0.8-0.1s0.5,0,0.8,0.1c0.1-0.1,0.1-0.2,0.2-0.3
		C2634.1,86.4,2638.1,69.9,2629.9,70.3z"/>
	<path class="elementor-shape-fill ha-shape-divider" d="M2823.7,93.6c-2,0-3.5,1.6-3.5,3.5c0,1.2,0.6,2.3,1.5,2.9c0.7,0,1.3,0,2,0c0.6,0,1.3,0,1.9,0c0.9-0.7,1.5-1.7,1.6-2.9
		C2827.2,95.1,2825.6,93.6,2823.7,93.6z"/>
	<path class="elementor-shape-fill ha-shape-divider" d="M1341.3,95.2c0.2-0.3,0.3-0.5,0.5-0.7s0.4-0.4,0.6-0.5c-3.1-6.2-12.1-22.7-18.4-16.5c-5.9,5.8,8.6,13.8,16.8,17.6
		C1340.9,95.1,1341.1,95.2,1341.3,95.2z"/>
	<path class="elementor-shape-fill ha-shape-divider" d="M3390.5,249.6c-0.5,0.2-1,0.4-1.4,0.7c-0.6,0.4-1.1,0.8-1.6,1.4c-0.5,0.5-0.9,1.1-1.2,1.7c-0.3,0.7-0.4,1.4-0.5,2.1
		c-0.2,0.7-0.1,1.4,0,2.1c0.1,0.5,0.2,1,0.4,1.5l0.1,0.3c0.2,0.5,0.4,1,0.7,1.4c0.4,0.6,0.8,1.2,1.5,1.6c0.5,0.5,1,0.9,1.7,1.2
		c0.7,0.3,1.4,0.5,2.1,0.5c0.7,0.1,1.4,0.1,2.1,0c0.5-0.1,1-0.2,1.5-0.4l0.3-0.1c0.5-0.2,1-0.4,1.4-0.7c0.6-0.4,1.1-0.8,1.6-1.4
		c0.5-0.5,0.9-1.1,1.2-1.7c0.3-0.7,0.5-1.4,0.5-2.1s0-1.4-0.1-2.1c0-0.5-0.2-1-0.4-1.5l-0.1-0.3c-0.2-0.5-0.4-1-0.7-1.4
		c-0.4-0.6-0.8-1.1-1.4-1.6c-0.5-0.5-1.1-0.9-1.7-1.2c-0.7-0.3-1.4-0.5-2.1-0.5c-0.7-0.1-1.4-0.1-2.1,0c-0.5,0.1-1,0.2-1.5,0.4
		L3390.5,249.6z"/>
	<path class="elementor-shape-fill ha-shape-divider" d="M2449.3,221.3l-3.1-4.7c-5.1,6-5.6,10.5-5.8,11.1h0v6.9C2442,231,2444.7,226.4,2449.3,221.3z"/>
	<path class="elementor-shape-fill ha-shape-divider" d="M1345.5,93.9c3.8-8.8,9.7-25.4,2.5-26c-7.6-0.7-5.5,18-4.3,25.7C1344.3,93.5,1344.9,93.6,1345.5,93.9z"/>
	<path class="elementor-shape-fill ha-shape-divider" d="M2830.4,130.7c-1.9,0-3.4,1.5-3.4,3.4c0,1.1,0.5,2,1.2,2.6l-4.7,12.2l-4.7-12.2c0.7-0.6,1.2-1.5,1.2-2.6
		c0-1.9-1.6-3.4-3.4-3.4c-0.1,0-0.1,0-0.2,0l-0.8-2c1.4-0.9,2.4-2.5,2.4-4.3c0-2.8-2.3-5.1-5.1-5.1s-5.1,2.3-5.1,5.1
		s2.3,5.1,5.1,5.1c0.4,0,0.8,0,1.1-0.1l0.7,1.8c-0.9,0.6-1.5,1.6-1.5,2.8c0,1.9,1.5,3.4,3.4,3.4c0.2,0,0.3,0,0.5-0.1l4.8,12.4
		l-12.4-4.8c0.1-0.2,0.1-0.3,0.1-0.5c0-1.9-1.5-3.4-3.4-3.4c-1.2,0-2.2,0.6-2.8,1.5l-1.9-0.7c0.1-0.4,0.1-0.7,0.1-1.1
		c0-2.8-2.3-5.1-5.1-5.1s-5.1,2.3-5.1,5.1c0,2.8,2.3,5.1,5.1,5.1c1.8,0,3.4-1,4.3-2.4l2,0.8c0,0.1,0,0.1,0,0.2
		c0,1.9,1.4,3.4,3.3,3.4c1.1,0,2-0.5,2.6-1.2l12.2,4.7l-12.2,4.7c-0.6-0.7-1.6-1.2-2.6-1.2c-1.8,0-3.3,1.5-3.3,3.4
		c0,0.1,0,0.1,0,0.2l-2,0.8c-0.9-1.4-2.5-2.4-4.3-2.4c-2.8,0-5.1,2.3-5.1,5.1c0,2.8,2.3,5.1,5.1,5.1s5.1-2.3,5.1-5.1
		c0-0.4,0-0.7-0.1-1.1l1.9-0.7c0.6,0.9,1.6,1.5,2.8,1.5c1.9,0,3.4-1.5,3.4-3.4c0-0.1,0-0.3-0.1-0.5l12.4-4.8l-4.8,12.4
		c-0.2-0.1-0.3-0.1-0.5-0.1c-1.9,0-3.4,1.5-3.4,3.4c0,1.2,0.6,2.2,1.5,2.8l-0.7,1.8c-0.4-0.1-0.7-0.1-1.1-0.1
		c-2.8,0-5.1,2.3-5.1,5.1c0,2.8,2.3,5.1,5.1,5.1s5.1-2.3,5.1-5.1c0-1.8-1-3.4-2.4-4.3l0.8-2c0.1,0,0.1,0,0.2,0
		c1.9,0,3.4-1.5,3.4-3.4c0-1.1-0.5-2-1.2-2.6l4.7-12.2l4.7,12.2c-0.7,0.6-1.2,1.6-1.2,2.6c0,1.9,1.5,3.4,3.4,3.4c0.1,0,0.1,0,0.2,0
		l0.8,2c-1.4,0.9-2.4,2.5-2.4,4.3c0,2.8,2.3,5.1,5.1,5.1s5.1-2.3,5.1-5.1c0-2.8-2.3-5.1-5.1-5.1c-0.4,0-0.8,0-1.1,0.1l-0.7-1.8
		c0.9-0.6,1.5-1.6,1.5-2.8c0-1.9-1.5-3.4-3.4-3.4c-0.1,0-0.3,0-0.5,0.1l-4.8-12.4l12.4,4.8c-0.1,0.2-0.1,0.3-0.1,0.5
		c0,1.9,1.5,3.4,3.4,3.4c1.2,0,2.2-0.6,2.8-1.5l1.9,0.7c-0.1,0.4-0.1,0.7-0.1,1.1c0,2.8,2.3,5.1,5.1,5.1s5.1-2.3,5.1-5.1
		c0-2.8-2.3-5.1-5.1-5.1c-1.8,0-3.4,1-4.3,2.4l-2-0.8c0-0.1,0-0.1,0-0.2c0-1.9-1.4-3.4-3.3-3.4c-1.1,0-2,0.5-2.6,1.2l-12.2-4.7
		l12.2-4.7c0.6,0.7,1.6,1.2,2.6,1.2c1.8,0,3.3-1.5,3.3-3.4c0,0,0-0.1,0-0.2l2-0.8c0.9,1.4,2.5,2.4,4.3,2.4c2.8,0,5.1-2.3,5.1-5.1
		c0-2.8-2.3-5.1-5.1-5.1s-5.1,2.3-5.1,5.1c0,0.4,0,0.7,0.1,1.1l-1.9,0.7c-0.6-0.9-1.6-1.5-2.8-1.5c-1.9,0-3.4,1.5-3.4,3.4
		c0,0.2,0,0.3,0.1,0.5l-12.4,4.8l4.8-12.4c0.1,0.1,0.3,0.1,0.5,0.1c1.9,0,3.4-1.5,3.4-3.4c0-1.2-0.6-2.2-1.5-2.8l0.7-1.8
		c0.4,0.1,0.7,0.1,1.1,0.1c2.8,0,5.1-2.3,5.1-5.1s-2.3-5.1-5.1-5.1s-5.1,2.3-5.1,5.1c0,1.8,1,3.4,2.4,4.3l-0.8,2
		C2830.5,130.7,2830.5,130.7,2830.4,130.7z M2813.5,127.9c-0.1,0-0.3,0-0.4,0c-1.9,0-3.4-1.5-3.4-3.4c0-1.8,1.5-3.3,3.4-3.3
		s3.4,1.4,3.4,3.3c0,1-0.5,2-1.4,2.7C2814.7,127.6,2814.1,127.8,2813.5,127.9z M2818.1,134.8c-0.2,0.5-0.8,0.9-1.4,0.9h-0.1
		c-0.8-0.1-1.5-0.7-1.5-1.6c0-0.3,0.2-0.7,0.5-1c0.3-0.4,0.7-0.6,1.2-0.6c0.2,0,0.3,0,0.5,0.1c0.7,0.2,1.1,0.8,1,1.5
		C2818.3,134.3,2818.2,134.6,2818.1,134.8z M2800.2,141.3c-0.1,0.6-0.3,1.1-0.7,1.6c-0.7,0.8-1.6,1.3-2.7,1.3
		c-1.9,0-3.4-1.5-3.4-3.4c0-1.9,1.5-3.4,3.4-3.4s3.4,1.5,3.4,3.5C2800.2,141,2800.2,141.2,2800.2,141.3z M2808,144.5
		c0,0.6-0.4,1.2-0.9,1.4c-0.2,0.1-0.4,0.2-0.7,0.2c-0.7,0-1.3-0.5-1.5-1.1c-0.1-0.2-0.1-0.3-0.1-0.5c0-0.5,0.2-1,0.5-1.2
		c0.3-0.3,0.7-0.5,1.1-0.5C2807.3,142.8,2808,143.5,2808,144.5L2808,144.5z M2800.2,161.8c0,1.9-1.5,3.4-3.4,3.4s-3.4-1.5-3.4-3.4
		c0-1.9,1.5-3.4,3.4-3.4c1.1,0,2.1,0.5,2.7,1.3c0.3,0.5,0.6,1,0.7,1.7C2800.2,161.5,2800.2,161.7,2800.2,161.8z M2808.1,158.3
		c-0.1,0.8-0.7,1.5-1.6,1.5c-0.5,0-0.8-0.2-1.1-0.5s-0.5-0.7-0.5-1.2c0-0.2,0-0.3,0.1-0.5c0.2-0.5,0.8-1,1.5-1
		c0.2,0,0.5,0.1,0.7,0.2C2807.7,157,2808.1,157.5,2808.1,158.3L2808.1,158.3z M2816.6,178.2c0,1.8-1.5,3.3-3.4,3.3s-3.4-1.4-3.4-3.3
		c0-1.9,1.5-3.4,3.4-3.4c0.1,0,0.3,0,0.4,0c0.6,0.1,1.1,0.3,1.6,0.7C2816,176.1,2816.5,177.1,2816.6,178.2z M2817.4,170
		c-0.2,0.1-0.3,0.1-0.5,0.1c-0.5,0-1-0.3-1.2-0.6c-0.4-0.2-0.5-0.6-0.5-1c0-0.9,0.7-1.6,1.5-1.6h0.1c0.6,0,1.2,0.4,1.5,0.9
		c0.1,0.2,0.2,0.4,0.2,0.7C2818.5,169.2,2818,169.8,2817.4,170z M2833.8,174.7c0.1,0,0.3,0,0.4,0c1.9,0,3.4,1.5,3.4,3.4
		c0,1.8-1.5,3.3-3.4,3.3s-3.4-1.4-3.4-3.3c0-1,0.5-2,1.4-2.7C2832.6,175,2833.2,174.8,2833.8,174.7z M2829.2,167.8
		c0.2-0.6,0.8-0.9,1.4-0.9h0.1c0.8,0.1,1.5,0.7,1.5,1.6c0,0.3-0.2,0.7-0.5,1c-0.3,0.4-0.7,0.6-1.2,0.6c-0.1,0-0.3,0-0.5-0.1
		c-0.6-0.2-1.1-0.8-1-1.5C2829,168.3,2829.1,168,2829.2,167.8z M2847.1,161.3c0.1-0.6,0.3-1.1,0.7-1.6c0.7-0.8,1.6-1.3,2.7-1.3
		c1.9,0,3.4,1.5,3.4,3.4c0,1.9-1.5,3.4-3.4,3.4c-1.8,0-3.4-1.6-3.4-3.5C2847.1,161.6,2847.1,161.4,2847.1,161.3z M2839.2,158.2
		c0-0.6,0.4-1.2,0.9-1.4c0.2-0.1,0.4-0.2,0.7-0.2c0.7,0,1.3,0.4,1.5,1c0.1,0.2,0.1,0.3,0.1,0.5c0,0.5-0.2,1-0.5,1.2
		c-0.2,0.3-0.6,0.5-1,0.5C2840,159.8,2839.3,159.1,2839.2,158.2L2839.2,158.2z M2847.1,140.8c0-1.9,1.5-3.4,3.4-3.4s3.4,1.5,3.4,3.4
		c0,1.9-1.5,3.4-3.4,3.4c-1.1,0-2.1-0.5-2.7-1.3c-0.3-0.5-0.5-1.1-0.7-1.7C2847.1,141.1,2847.1,140.9,2847.1,140.8z M2839.3,144.3
		c0.1-0.8,0.7-1.5,1.6-1.5c0.4,0,0.8,0.2,1.1,0.4c0.3,0.3,0.5,0.7,0.5,1.2c0,0.2,0,0.3-0.1,0.5c-0.2,0.6-0.8,1.1-1.5,1.1
		c-0.2,0-0.5-0.1-0.7-0.2c-0.5-0.2-0.9-0.8-0.9-1.4V144.3z M2830.7,124.4c0-1.8,1.5-3.3,3.4-3.3s3.4,1.4,3.4,3.3
		c0,1.9-1.5,3.4-3.4,3.4c-0.1,0-0.3,0-0.4,0c-0.6-0.1-1.1-0.4-1.6-0.7C2831.3,126.5,2830.8,125.5,2830.7,124.4z M2831.6,133.1
		c0.4,0.2,0.5,0.6,0.5,1c0,0.9-0.7,1.6-1.5,1.6h-0.1c-0.6,0-1.1-0.4-1.5-0.9c-0.1-0.2-0.2-0.4-0.2-0.7c0-0.7,0.5-1.3,1.1-1.5
		c0.1-0.1,0.3-0.1,0.5-0.1C2830.9,132.5,2831.4,132.8,2831.6,133.1z"/>
	<path class="elementor-shape-fill ha-shape-divider" d="M3566,87.2c0.2,0.1,0.4,0.1,0.4,0.1c0.5,0,1-0.3,1.2-0.6c0.4-0.2,0.5-0.6,0.5-1c0-0.9-0.7-1.6-1.5-1.6h-0.1
		c-0.6,0-1.2,0.4-1.4,0.9c-0.1,0.2-0.2,0.4-0.2,0.7C3564.9,86.4,3565.4,87,3566,87.2z"/>
	<path class="elementor-shape-fill ha-shape-divider" d="M567.7,59.9c-0.5,0-0.8,0.2-1.1,0.5c-0.3,0.3-0.5,0.7-0.5,1.2c0,0.2,0,0.3,0.1,0.5c0.2,0.6,0.8,1.1,1.5,1.1
		c0.2,0,0.5-0.1,0.7-0.2c0.5-0.2,0.9-0.8,0.9-1.5C569.2,60.6,568.6,59.9,567.7,59.9z"/>
	<path class="elementor-shape-fill ha-shape-divider" d="M3552.7,84h-0.1c-0.8,0.1-1.5,0.7-1.5,1.6c0,0.3,0.2,0.7,0.5,1c0.3,0.4,0.7,0.6,1.2,0.6c0.1,0,0.3,0,0.5-0.1
		c0.6-0.2,1.1-0.8,1.1-1.5c0-0.2-0.1-0.5-0.2-0.7C3554,84.4,3553.4,84.1,3552.7,84z"/>
	<path class="elementor-shape-fill ha-shape-divider" d="M3576.9,77c0.5,0,0.8-0.2,1.1-0.5s0.5-0.7,0.5-1.2c0-0.2,0-0.3-0.1-0.5c-0.2-0.5-0.8-1-1.5-1c-0.2,0-0.5,0.1-0.7,0.2
		c-0.5,0.2-0.9,0.8-0.9,1.5C3575.4,76.3,3576,76.9,3576.9,77z"/>
	<path class="elementor-shape-fill ha-shape-divider" d="M3551.2,92.7c-0.4-0.4-1-0.6-1.6-0.7c-0.1-0.1-0.3-0.1-0.5,0c-1.9,0-3.4,1.5-3.4,3.4c0,1.8,1.5,3.3,3.4,3.3
		s3.4-1.4,3.4-3.3C3552.5,94.3,3552,93.3,3551.2,92.7z"/>
	<path class="elementor-shape-fill ha-shape-divider" d="M3566.8,95.3c0,1.9,1.5,3.3,3.3,3.3c1.9,0,3.4-1.4,3.4-3.3c0-1.9-1.5-3.4-3.4-3.4c-0.1,0-0.3,0-0.4,0
		c-0.6,0.1-1.1,0.3-1.6,0.7C3567.3,93.3,3566.8,94.2,3566.8,95.3z"/>
	<path class="elementor-shape-fill ha-shape-divider" d="M3586.6,61.4c1.9,0,3.4-1.5,3.4-3.4s-1.5-3.4-3.4-3.4c-1.9,0-3.4,1.5-3.4,3.4c0,0.1,0,0.3,0,0.4c0.1,0.6,0.3,1.2,0.7,1.7
		C3584.6,60.9,3585.5,61.4,3586.6,61.4z"/>
	<path class="elementor-shape-fill ha-shape-divider" d="M3566.7,52.9h0.1c0.8-0.1,1.5-0.7,1.5-1.6c0-0.3-0.2-0.7-0.5-1c-0.3-0.4-0.7-0.6-1.2-0.6c-0.2,0-0.3,0-0.5,0.1
		c-0.6,0.2-1.1,0.8-1.1,1.5c0,0.2,0.1,0.5,0.2,0.7C3565.4,52.5,3566,52.9,3566.7,52.9z"/>
	<path class="elementor-shape-fill ha-shape-divider" d="M3521.5,68.5c0,21.1,17.1,38.2,38.2,38.2s38.2-17.1,38.2-38.2s-17.1-38.2-38.2-38.2C3538.6,30.3,3521.5,47.4,3521.5,68.5z
		 M3563.4,51.2c0-1.9,1.6-3.4,3.4-3.4c0.1,0,0.1,0,0.2,0l0.8-2c-1.4-0.9-2.4-2.5-2.4-4.3c0-2.8,2.3-5.1,5.1-5.1s5.1,2.3,5.1,5.1
		s-2.3,5.1-5.1,5.1c-0.4,0-0.8,0-1.1-0.1l-0.7,1.8c0.9,0.6,1.5,1.6,1.5,2.8c0,1.9-1.5,3.4-3.4,3.4c-0.2,0-0.3,0-0.5-0.1l-4.8,12.4
		l12.4-4.8c-0.1-0.2-0.1-0.3-0.1-0.5c0-1.9,1.5-3.4,3.4-3.4c1.2,0,2.2,0.6,2.8,1.5l1.9-0.7c-0.1-0.4-0.1-0.7-0.1-1.1
		c0-2.8,2.3-5.1,5.1-5.1s5.1,2.3,5.1,5.1s-2.3,5.1-5.1,5.1c-1.8,0-3.4-1-4.3-2.4l-2,0.8c0,0.1,0,0.1,0,0.2c0,1.9-1.4,3.4-3.3,3.4
		c-1.1,0-2-0.5-2.6-1.2l-12.2,4.7l12.2,4.7c0.6-0.7,1.6-1.2,2.6-1.2c1.8,0,3.3,1.5,3.3,3.4c0,0.1,0,0.1,0,0.2l2,0.8
		c0.9-1.4,2.5-2.4,4.3-2.4c2.8,0,5.1,2.3,5.1,5.1s-2.3,5.1-5.1,5.1s-5.1-2.3-5.1-5.1c0-0.4,0-0.7,0.1-1.1l-1.9-0.7
		c-0.6,0.9-1.6,1.5-2.8,1.5c-1.9,0-3.4-1.5-3.4-3.4c0-0.1,0-0.3,0.1-0.5l-12.4-4.8l4.8,12.4c0.2-0.1,0.3-0.1,0.5-0.1
		c1.9,0,3.4,1.5,3.4,3.4c0,1.2-0.6,2.2-1.5,2.8l0.7,1.8c0.4-0.1,0.7-0.1,1.1-0.1c2.8,0,5.1,2.3,5.1,5.1s-2.3,5.1-5.1,5.1
		s-5.1-2.3-5.1-5.1c0-1.8,1-3.4,2.4-4.3l-0.8-2c-0.1,0-0.1,0-0.2,0c-1.9,0-3.4-1.5-3.4-3.4c0-1.1,0.5-2,1.2-2.6l-4.7-12.2l-4.7,12.2
		c0.7,0.6,1.2,1.6,1.2,2.6c0,1.9-1.5,3.4-3.4,3.4c-0.1,0-0.1,0-0.2,0l-0.8,2c1.4,0.9,2.4,2.5,2.4,4.3c0,2.8-2.3,5.1-5.1,5.1
		s-5.1-2.3-5.1-5.1c0-2.8,2.3-5.1,5.1-5.1c0.4,0,0.8,0,1.1,0.1l0.7-1.8c-0.9-0.6-1.5-1.6-1.5-2.8c0-1.9,1.5-3.4,3.4-3.4
		c0.1,0,0.3,0,0.5,0.1l4.8-12.4l-12.4,4.8c0.1,0.2,0.1,0.3,0.1,0.5c0,1.9-1.5,3.4-3.4,3.4c-1.2,0-2.2-0.6-2.8-1.5l-1.9,0.7
		c0.1,0.4,0.1,0.7,0.1,1.1c0,2.8-2.3,5.1-5.1,5.1s-5.1-2.3-5.1-5.1s2.3-5.1,5.1-5.1c1.8,0,3.4,0.9,4.3,2.4l2-0.8c0-0.1,0-0.1,0-0.2
		c0-1.9,1.4-3.4,3.3-3.4c1.1,0,2,0.5,2.6,1.2l12.2-4.7l-12.2-4.7c-0.6,0.7-1.6,1.2-2.6,1.2c-1.8,0-3.3-1.5-3.3-3.4
		c0-0.1,0-0.1,0-0.2l-2-0.8c-0.9,1.4-2.5,2.4-4.3,2.4c-2.8,0-5.1-2.3-5.1-5.1s2.3-5.1,5.1-5.1s5.1,2.3,5.1,5.1c0,0.4,0,0.7-0.1,1.1
		l1.9,0.7c0.6-0.9,1.6-1.5,2.8-1.5c1.9,0,3.4,1.5,3.4,3.4c0,0.2,0,0.3-0.1,0.5l12.4,4.8l-4.8-12.4c-0.1,0.1-0.3,0.1-0.5,0.1
		c-1.9,0-3.4-1.5-3.4-3.4c0-1.2,0.6-2.2,1.5-2.8l-0.7-1.8c-0.4,0.1-0.7,0.1-1.1,0.1c-2.8,0-5.1-2.3-5.1-5.1s2.3-5.1,5.1-5.1
		s5.1,2.3,5.1,5.1c0,1.8-1,3.4-2.4,4.3l0.8,2c0.1,0,0.1,0,0.2,0c1.9,0,3.4,1.5,3.4,3.4c0,1.1-0.5,2-1.2,2.6l4.7,12.2l4.7-12.2
		C3563.9,53.2,3563.4,52.3,3563.4,51.2z"/>
	<path class="elementor-shape-fill ha-shape-divider" d="M3569.8,44.9c0.1,0.1,0.3,0.1,0.5,0c1.9,0,3.4-1.5,3.4-3.4c0-1.8-1.5-3.3-3.4-3.3s-3.4,1.4-3.4,3.3c0,1.1,0.5,2.1,1.3,2.7
		C3568.6,44.6,3569.2,44.8,3569.8,44.9z"/>
	<path class="elementor-shape-fill ha-shape-divider" d="M3576.2,63c0.2,0.1,0.4,0.2,0.7,0.3c0.7,0,1.3-0.5,1.5-1.1c0.1-0.2,0.1-0.3,0.1-0.5c0-0.5-0.2-1-0.5-1.2
		c-0.3-0.3-0.7-0.5-1.1-0.5c-0.9,0-1.6,0.7-1.6,1.5v0.1C3575.3,62.2,3575.7,62.8,3576.2,63z"/>
	<path class="elementor-shape-fill ha-shape-divider" d="M3400.8,217.7c-5.3,4.2-6.2,8.5-6.4,9.7c0,0.1,0,0.2,0,0.2c0,0.1,0,0.1,0,0.1h0v7.5c1.7-3.5,4.7-7.8,10.1-11.9
		L3400.8,217.7z"/>
	<path class="elementor-shape-fill ha-shape-divider" d="M3422.5,255.4c1-0.1,4.9-0.8,10.8-5.8l-4.7-3.1c-5.3,4.8-10,7.4-13.4,8.9h7C3422.2,255.4,3422.3,255.4,3422.5,255.4z"/>
	<path class="elementor-shape-fill ha-shape-divider" d="M3559.8,10.8c-2,0-3.5,1.6-3.5,3.5c0,1.2,0.6,2.2,1.6,2.9c0.6,0,1.2,0,1.9,0s1.4,0,2,0c0.9-0.7,1.5-1.7,1.5-2.9
		C3563.3,12.3,3561.7,10.8,3559.8,10.8z"/>
	<path class="elementor-shape-fill ha-shape-divider" d="M3415.4,237.9l-5.2,4.7c3.5-1.2,8.8-2.4,15.8-2.4l1.4-5.5c-7.7,0.2-11,2.4-11.8,3C3415.5,237.8,3415.4,237.9,3415.4,237.9z
		"/>
	<path class="elementor-shape-fill ha-shape-divider" d="M3414,236.3c0,0,0.1,0,0.1-0.1c0,0,0,0,0.1-0.1c0.7-0.9,3.3-4.5,2.8-11.3l-6.7,1c0.7,6.8-0.4,11.9-1.9,15.5L3414,236.3z"/>
	<path class="elementor-shape-fill ha-shape-divider" d="M3543.2,74c-0.2-0.1-0.4-0.2-0.7-0.2c-0.7,0-1.3,0.4-1.5,1c-0.1,0.2-0.1,0.3-0.1,0.5c0,0.5,0.2,1,0.5,1.2
		c0.3,0.3,0.7,0.4,1.1,0.5c0.9,0,1.6-0.7,1.6-1.5C3544.1,74.8,3543.7,74.2,3543.2,74z"/>
	<path class="elementor-shape-fill ha-shape-divider" d="M3552.6,41.6c0-1.8-1.6-3.3-3.3-3.3c-1.9,0-3.4,1.4-3.4,3.3c0,1.9,1.5,3.4,3.4,3.4c0.1,0,0.3,0,0.4,0
		c0.6-0.1,1.1-0.3,1.6-0.7C3552.1,43.6,3552.6,42.7,3552.6,41.6z"/>
	<path class="elementor-shape-fill ha-shape-divider" d="M3542.4,59.9c-0.4,0-0.7,0.2-1,0.5c-0.3,0.3-0.5,0.7-0.5,1.2c0,0.2,0,0.3,0.1,0.5c0.2,0.6,0.8,1.1,1.5,1.1
		c0.2,0,0.5-0.1,0.7-0.2c0.5-0.2,0.9-0.8,0.9-1.5C3544,60.7,3543.4,60,3542.4,59.9z"/>
	<path class="elementor-shape-fill ha-shape-divider" d="M3532.9,75.5c-1.9,0-3.4,1.5-3.4,3.4c0,1.9,1.5,3.4,3.4,3.4c1.8,0,3.3-1.5,3.4-3.5c0-0.1,0-0.3,0-0.4
		c-0.1-0.6-0.3-1.1-0.7-1.6C3534.9,76,3534,75.5,3532.9,75.5z"/>
	<path class="elementor-shape-fill ha-shape-divider" d="M3532.9,54.6c-1.9,0-3.4,1.5-3.4,3.3c0,1.9,1.5,3.4,3.4,3.4c1.1,0,2.1-0.5,2.7-1.3c0.4-0.4,0.6-1,0.7-1.6
		c0-0.1,0-0.3,0-0.4C3536.3,56.1,3534.8,54.6,3532.9,54.6z"/>
	<path class="elementor-shape-fill ha-shape-divider" d="M3553.4,49.7c-0.2,0-0.4-0.1-0.4-0.1c-0.5,0-1,0.3-1.2,0.6c-0.4,0.2-0.5,0.6-0.5,1c0,0.9,0.7,1.6,1.5,1.6h0.1
		c0.6,0,1.2-0.4,1.4-0.9c0.1-0.2,0.2-0.4,0.2-0.7C3554.5,50.5,3554,49.9,3553.4,49.7z"/>
	<path class="elementor-shape-fill ha-shape-divider" d="M2606.5,81.4c-4.4,5.8,11.8,12.7,20.8,15.8c0.2-0.6,0.5-1.1,1-1.5C2623.5,89.7,2611.1,75.4,2606.5,81.4z"/>
	<path class="elementor-shape-fill ha-shape-divider" d="M2234.8,68.5c0,21.1,17.1,38.2,38.2,38.2s38.2-17.1,38.2-38.2s-17.1-38.2-38.2-38.2C2251.9,30.3,2234.8,47.4,2234.8,68.5z
		 M2279.8,47.8c0.1,0,0.1,0,0.2,0l0.8-2c-1.4-0.9-2.4-2.5-2.4-4.3c0-2.8,2.3-5.1,5.1-5.1s5.1,2.3,5.1,5.1s-2.3,5.1-5.1,5.1
		c-0.4,0-0.8,0-1.1-0.1l-0.7,1.8c0.9,0.6,1.5,1.6,1.5,2.8c0,1.9-1.5,3.4-3.4,3.4c-0.1,0-0.3,0-0.5-0.1l-4.8,12.4l12.4-4.8
		c-0.1-0.2-0.1-0.3-0.1-0.5c0-1.9,1.5-3.4,3.4-3.4c1.2,0,2.2,0.6,2.8,1.5l1.9-0.7c-0.1-0.4-0.1-0.7-0.1-1.1c0-2.8,2.3-5.1,5.1-5.1
		s5.1,2.3,5.1,5.1s-2.3,5.1-5.1,5.1c-1.8,0-3.4-1-4.3-2.4l-2,0.8c0,0.1,0,0.1,0,0.2c0,1.9-1.4,3.4-3.3,3.4c-1.1,0-2-0.5-2.6-1.2
		l-12.2,4.7l12.2,4.7c0.6-0.7,1.6-1.2,2.6-1.2c1.8,0,3.3,1.5,3.3,3.4c0,0.1,0,0.1,0,0.2l2,0.8c0.9-1.4,2.5-2.4,4.3-2.4
		c2.8,0,5.1,2.3,5.2,5.1c0,2.8-2.3,5.1-5.1,5.1s-5.1-2.3-5.1-5.1c0-0.4,0-0.7,0.1-1.1l-1.9-0.7c-0.6,0.9-1.6,1.5-2.8,1.5
		c-1.9,0-3.4-1.5-3.4-3.4c0-0.1,0-0.3,0.1-0.5l-12.4-4.8l4.8,12.4c0.1-0.1,0.3-0.1,0.5-0.1c1.9,0,3.4,1.5,3.4,3.4
		c0,1.2-0.6,2.2-1.5,2.8l0.7,1.8c0.4-0.1,0.7-0.1,1.1-0.1c2.8,0,5.1,2.3,5.1,5.1s-2.3,5.1-5.1,5.1s-5.1-2.3-5.1-5.1
		c0-1.8,1-3.4,2.4-4.3l-0.8-2c-0.1,0-0.1,0-0.2,0c-1.9,0-3.4-1.5-3.4-3.4c0-1.1,0.5-2,1.2-2.6l-4.7-12.2l-4.7,12.2
		c0.7,0.6,1.2,1.6,1.2,2.6c0,1.9-1.6,3.4-3.4,3.4c-0.1,0-0.1,0-0.2,0l-0.8,2c1.4,0.9,2.4,2.5,2.4,4.3c0,2.8-2.3,5.1-5.1,5.1
		s-5.1-2.3-5.1-5.1s2.3-5.1,5.1-5.1c0.4,0,0.8,0,1.1,0.1l0.7-1.8c-0.9-0.6-1.5-1.6-1.5-2.8c0-1.9,1.5-3.4,3.4-3.4
		c0.2,0,0.3,0,0.5,0.1l4.8-12.4l-12.4,4.8c0.1,0.2,0.1,0.3,0.1,0.5c0,1.9-1.5,3.4-3.4,3.4c-1.2,0-2.2-0.6-2.8-1.5l-1.9,0.7
		c0.1,0.4,0.1,0.7,0.1,1.1c0,2.8-2.3,5.1-5.1,5.1s-5.1-2.3-5.1-5.1s2.3-5.1,5.1-5.1c1.8,0,3.4,1,4.3,2.4l2-0.8c0-0.1,0-0.1,0-0.2
		c0-1.9,1.4-3.4,3.3-3.4c1.1,0,2,0.5,2.6,1.2l12.2-4.7l-12.2-4.7c-0.6,0.7-1.6,1.2-2.6,1.2c-1.8,0-3.3-1.5-3.3-3.4
		c0-0.1,0-0.1,0-0.2l-2-0.8c-0.9,1.4-2.5,2.4-4.3,2.4c-2.8,0-5.1-2.3-5.1-5.1s2.3-5.1,5.1-5.1s5.1,2.3,5.1,5.1c0,0.4,0,0.7-0.1,1.1
		l1.9,0.7c0.6-0.9,1.6-1.5,2.8-1.5c1.9,0,3.4,1.5,3.4,3.4c0,0.2,0,0.3-0.1,0.5l12.4,4.8l-4.8-12.4c-0.2,0.1-0.3,0.1-0.5,0.1
		c-1.9,0-3.4-1.5-3.4-3.4c0-1.2,0.6-2.2,1.5-2.8l-0.7-1.8c-0.4,0.1-0.7,0.1-1.1,0.1c-2.8,0-5.1-2.3-5.1-5.1s2.3-5.1,5.1-5.1
		s5.1,2.3,5.1,5.1c0,1.8-1,3.4-2.4,4.3l0.8,2c0.1,0,0.1,0,0.2,0c1.9,0,3.4,1.5,3.4,3.4c0,1.1-0.5,2-1.2,2.6L2273,66l4.6-12.2
		c-0.7-0.6-1.2-1.5-1.2-2.6C2276.4,49.3,2277.9,47.8,2279.8,47.8z"/>
	<path class="elementor-shape-fill ha-shape-divider" d="M2281.6,44.3c0.4,0.4,1,0.6,1.6,0.7c0.1,0,0.3,0,0.4,0c1.9,0,3.4-1.5,3.4-3.4c0-1.8-1.5-3.3-3.4-3.3s-3.4,1.4-3.4,3.3
		C2280.2,42.7,2280.7,43.7,2281.6,44.3z"/>
	<path class="elementor-shape-fill ha-shape-divider" d="M3092.4,77.1c5.3-4.5,19-17.4,11.4-21.9c-7.1-4.2-11.3,11.8-12.8,20.6c0,0.1,0,0.3,0,0.5c0.3,0.1,0.5,0.2,0.8,0.3
		C3092,76.8,3092.2,76.9,3092.4,77.1z"/>
	<path class="elementor-shape-fill ha-shape-divider" d="M2280,52.8h0.1c0.8-0.1,1.5-0.7,1.5-1.6c0-0.3-0.2-0.7-0.5-1c-0.3-0.4-0.7-0.6-1.2-0.6c-0.1,0-0.3,0-0.5,0.1
		c-0.7,0.3-1.1,0.8-1,1.5c0,0.2,0.1,0.5,0.2,0.7C2278.8,52.4,2279.4,52.8,2280,52.8z"/>
	<path class="elementor-shape-fill ha-shape-divider" d="M2459.5,235.9l-5,5.6c3.6-1.4,8.7-2.5,15.5-1.9l1-6.7c-7.1-0.6-10.6,2.3-11.3,2.9h-0.1
		C2459.6,235.9,2459.5,235.9,2459.5,235.9z"/>
	<path class="elementor-shape-fill ha-shape-divider" d="M2299.9,61.4c1.9,0,3.4-1.5,3.4-3.4s-1.5-3.4-3.4-3.4s-3.4,1.5-3.4,3.5c0,0.1,0,0.3,0,0.4c0.1,0.6,0.3,1.1,0.7,1.6
		C2297.9,60.9,2298.8,61.4,2299.9,61.4z"/>
	<path class="elementor-shape-fill ha-shape-divider" d="M2440.5,264.1c0.7,0,1.4-0.2,2.1-0.5c0.6-0.3,1.2-0.7,1.7-1.2c0.6-0.4,1-1,1.5-1.6c0.3-0.4,0.5-0.9,0.7-1.4l0.1-0.3
		c0.2-0.4,0.3-1,0.4-1.5c0.1-0.6,0.1-1.4,0-2.1c0-0.7-0.2-1.4-0.5-2.1c-0.3-0.6-0.7-1.2-1.2-1.7s-1-1-1.6-1.4
		c-0.4-0.3-0.9-0.5-1.4-0.7l-0.3-0.1c-0.4-0.2-1-0.3-1.5-0.4c-0.6-0.1-1.4-0.1-2.1,0c-0.7,0-1.4,0.2-2.1,0.5
		c-0.6,0.3-1.2,0.7-1.7,1.2s-1,1-1.4,1.6c-0.3,0.4-0.5,0.9-0.7,1.4l-0.1,0.3c-0.2,0.4-0.3,1-0.4,1.5c-0.2,0.6-0.2,1.4-0.1,2.1
		c0,0.7,0.2,1.4,0.5,2.1c0.3,0.6,0.7,1.2,1.2,1.7s1,1,1.6,1.4c0.4,0.3,0.9,0.5,1.4,0.7l0.3,0.1c0.4,0.2,1,0.3,1.5,0.4
		C2439.1,264.2,2439.8,264.2,2440.5,264.1z"/>
	<path class="elementor-shape-fill ha-shape-divider" d="M2422.4,225.8l-6.7-1c-0.5,6.8,2.1,10.4,2.8,11.3l0.1,0.1c0.1,0.1,0.1,0.1,0.1,0.1l5.6,5
		C2422.9,237.7,2421.7,232.6,2422.4,225.8z"/>
	<path class="elementor-shape-fill ha-shape-divider" d="M2429.4,291.7l3.1,4.7c5.1-6,5.7-10.5,5.8-11h0v-7C2436.7,281.9,2434.1,286.5,2429.4,291.7z"/>
	<path class="elementor-shape-fill ha-shape-divider" d="M2417,237.6c-0.7-0.5-4.1-2.7-11.8-3l1.4,5.5c7.1,0.1,12.4,1.3,15.8,2.4l-5.2-4.7C2417.2,237.8,2417.1,237.7,2417,237.6z"
		/>
	<path class="elementor-shape-fill ha-shape-divider" d="M2438.3,227.4c-0.2-1.2-1.1-5.5-6.4-9.7l-3.7,5.6c5.5,4.1,8.5,8.4,10.1,11.9v-7.5c0,0,0,0,0-0.1
		C2438.3,227.5,2438.3,227.5,2438.3,227.4z"/>
	<path class="elementor-shape-fill ha-shape-divider" d="M2290.3,77c0.4,0,0.7-0.2,1-0.5s0.5-0.7,0.6-1.2c0-0.2,0-0.3-0.1-0.5c-0.2-0.5-0.8-1-1.5-1c-0.2,0-0.5,0.1-0.7,0.2
		c-0.5,0.2-0.9,0.8-0.9,1.4C2288.8,76.3,2289.4,77,2290.3,77z"/>
	<path class="elementor-shape-fill ha-shape-divider" d="M2264.5,92.6c-0.4-0.4-1-0.6-1.6-0.7c-0.1,0-0.3,0-0.4,0c-1.9,0-3.4,1.5-3.4,3.4c0,1.8,1.5,3.3,3.4,3.3s3.4-1.4,3.4-3.3
		C2265.9,94.2,2265.4,93.3,2264.5,92.6z"/>
	<path class="elementor-shape-fill ha-shape-divider" d="M2246.1,54.5c-1.9,0-3.4,1.5-3.4,3.4c0,1.9,1.5,3.4,3.4,3.4c1.1,0,2.1-0.5,2.7-1.3c0.4-0.4,0.6-1,0.7-1.6
		c0.1-0.2,0.1-0.3,0-0.5C2249.5,56,2248,54.5,2246.1,54.5z"/>
	<path class="elementor-shape-fill ha-shape-divider" d="M2299.9,82.3c1.8,0,3.3-1.5,3.4-3.3c0-1.9-1.5-3.4-3.4-3.4c-1.1,0-2.1,0.5-2.7,1.3c-0.4,0.4-0.6,1-0.7,1.6
		c0,0.1,0,0.3,0,0.4C2296.5,80.8,2298,82.3,2299.9,82.3z"/>
	<path class="elementor-shape-fill ha-shape-divider" d="M2255.9,59.9c-0.5,0-0.8,0.2-1.1,0.5c-0.3,0.3-0.5,0.7-0.5,1.2c0,0.2,0,0.3,0.1,0.5c0.2,0.6,0.8,1.1,1.5,1.1
		c0.2,0,0.5-0.1,0.7-0.2c0.5-0.2,0.8-0.8,0.9-1.5C2257.4,60.6,2256.8,59.9,2255.9,59.9z"/>
	<path class="elementor-shape-fill ha-shape-divider" d="M2246.2,75.5c-1.9,0-3.4,1.5-3.4,3.4c0,1.9,1.5,3.4,3.4,3.4s3.4-1.5,3.4-3.5c0-0.1,0-0.3,0-0.4c-0.1-0.6-0.3-1.1-0.7-1.6
		C2248.2,76,2247.3,75.5,2246.2,75.5z"/>
	<path class="elementor-shape-fill ha-shape-divider" d="M2273.1,10.7c-2,0-3.5,1.6-3.5,3.5c0,1.2,0.6,2.3,1.5,2.9c0.7,0,1.3,0,2,0c0.6,0,1.3,0,1.9,0c0.9-0.6,1.5-1.6,1.6-2.9
		C2276.6,12.2,2275,10.7,2273.1,10.7z"/>
	<path class="elementor-shape-fill ha-shape-divider" d="M2266,41.5c0-1.8-1.5-3.3-3.4-3.3s-3.4,1.4-3.4,3.3s1.5,3.4,3.4,3.4c0.1,0,0.3,0,0.4,0c0.6,0,1.1-0.3,1.7-0.7
		C2265.5,43.5,2266,42.6,2266,41.5z"/>
	<path class="elementor-shape-fill ha-shape-divider" d="M2266.8,49.8c-0.2-0.1-0.3-0.1-0.5-0.1c-0.5,0-1,0.3-1.2,0.6c-0.4,0.2-0.5,0.6-0.5,1c0,0.9,0.7,1.6,1.5,1.6h0.1
		c0.6,0,1.2-0.4,1.4-0.9c0.1-0.2,0.2-0.5,0.3-0.7C2267.9,50.6,2267.4,50,2266.8,49.8z"/>
	<path class="elementor-shape-fill ha-shape-divider" d="M2279.3,87.1c0.1,0.1,0.3,0.1,0.5,0.1c0.5,0,1-0.3,1.2-0.6c0.4-0.2,0.5-0.6,0.5-1c0-0.9-0.7-1.6-1.5-1.6h-0.1
		c-0.6,0-1.2,0.4-1.4,0.9c-0.1,0.3-0.2,0.5-0.3,0.7C2278.2,86.3,2278.7,86.9,2279.3,87.1z"/>
	<path class="elementor-shape-fill ha-shape-divider" d="M2280.1,95.4c0,1.8,1.5,3.3,3.4,3.3s3.4-1.4,3.4-3.3c0-1.9-1.5-3.4-3.4-3.4c-0.1,0-0.3,0-0.4,0c-0.6,0-1.2,0.3-1.7,0.7
		C2280.6,93.4,2280.1,94.3,2280.1,95.4z"/>
	<path class="elementor-shape-fill ha-shape-divider" d="M2256.5,74c-0.2-0.1-0.4-0.2-0.7-0.2c-0.7,0-1.3,0.4-1.5,1c-0.1,0.2-0.1,0.3-0.1,0.5c0,0.5,0.2,1,0.5,1.2
		c0.3,0.3,0.7,0.5,1.1,0.5c0.9,0,1.6-0.7,1.6-1.5C2257.4,74.8,2257,74.2,2256.5,74z"/>
	<path class="elementor-shape-fill ha-shape-divider" d="M2400.6,264l5.6,3.7c4-5.5,8.3-8.5,11.9-10.1h-7.5c0,0,0,0-0.1,0c-0.1,0-0.1,0-0.2,0C2409.1,257.8,2404.8,258.7,2400.6,264
		z"/>
	<path class="elementor-shape-fill ha-shape-divider" d="M2266.1,84.1h-0.1c-0.8,0.1-1.5,0.7-1.5,1.6c0,0.3,0.2,0.7,0.5,1c0.3,0.4,0.7,0.6,1.2,0.6c0.2,0,0.3,0,0.5-0.1
		c0.6-0.2,1.1-0.8,1-1.5c0-0.2-0.1-0.5-0.2-0.7C2267.3,84.4,2266.7,84.1,2266.1,84.1z"/>
	<path class="elementor-shape-fill ha-shape-divider" d="M2289.5,63.1c0.2,0.1,0.4,0.2,0.7,0.2c0.7,0,1.3-0.5,1.5-1.1c0.1-0.2,0.1-0.3,0.1-0.5c0-0.5-0.2-1-0.5-1.2
		c-0.2-0.3-0.6-0.5-1-0.5c-0.9,0-1.6,0.7-1.6,1.5c-0.1,0-0.1,0.1-0.1,0.2C2288.6,62.3,2289,62.9,2289.5,63.1z"/>
	<path class="elementor-shape-fill ha-shape-divider" d="M2425.4,273.5l-4.7,5.1c-0.3,0.4-2.9,4.1-3.2,12l5.5-1.4C2423.1,282.3,2424.2,277.1,2425.4,273.5z"/>
	<path class="elementor-shape-fill ha-shape-divider" d="M2417.6,255.4c-3.4-1.5-8.1-4.1-13.4-8.9l-4.7,3.1c5.8,5,9.7,5.7,10.9,5.8c0.1,0,0.2,0,0.2,0H2417.6z"/>
	<path class="elementor-shape-fill ha-shape-divider" d="M2446.8,295.3l3.7-5.6c-5.4-4.1-8.4-8.4-10.1-11.9v7.5v0.1C2440.5,286.4,2441.2,290.9,2446.8,295.3z"/>
	<path class="elementor-shape-fill ha-shape-divider" d="M2456.4,287.2l6.6,1c0.5-6.8-2.1-10.4-2.8-11.3l-0.1-0.1c-0.1-0.1-0.1-0.1-0.1-0.1l-5.6-5
		C2455.9,275.3,2457,280.4,2456.4,287.2z"/>
	<path class="elementor-shape-fill ha-shape-divider" d="M2419.3,277.2l5-5.6c-3.6,1.4-8.7,2.6-15.5,1.9l-1.1,6.6c6.7,0.5,10.3-2,11.4-2.7l0.1-0.1
		C2419.3,277.2,2419.3,277.2,2419.3,277.2z"/>
	<path class="elementor-shape-fill ha-shape-divider" d="M2464.4,276.6c1.8,0.7,4.8,1.6,9.2,1.7l-1.4-5.5c-7.1,0-12.3-1.2-15.8-2.4l5.1,4.7C2461.7,275.3,2462.6,275.9,2464.4,276.6
		z"/>
	<path class="elementor-shape-fill ha-shape-divider" d="M2461.3,257.6c3.3,1.5,8,4.2,13.3,8.9l4.7-3.1c-5.9-5-9.8-5.7-10.8-5.8c-0.1,0-0.2,0-0.2,0H2461.3z"/>
	<path class="elementor-shape-fill ha-shape-divider" d="M2453.3,239.5l4.7-5.1c0.3-0.4,2.9-4.1,3.2-12l-5.5,1.4C2455.7,230.7,2454.5,235.9,2453.3,239.5z"/>
	<path class="elementor-shape-fill ha-shape-divider" d="M2478.2,249l-5.6-3.7c-4.1,5.5-8.4,8.5-11.9,10.1h7.5c0,0,0,0,0.1,0c0,0,0.1,0,0.2,0C2469.7,255.2,2474,254.3,2478.2,249z"
		/>
</g>
<rect class="elementor-shape-fill ha-shape-divider" display="none" fill="#D41E1E" width="4080" height="380"/>
</svg>
