<svg xmlns="http://www.w3.org/2000/svg" viewBox="0 0 4080 380" preserveAspectRatio="none">
<rect display="none" fill="#EE546E" width="4080" height="380"/>
<g>
	<path class="elementor-shape-fill ha-shape-divider" d="M1226.7,161.2l-4.5-1.2l3.8-2.2c0.3-0.2,0.5-0.6,0.3-1c-0.1-0.2-0.4-0.4-0.6-0.4c-0.1,0-0.2,0-0.4,0.1l-3.8,2.2l1.2-4.5
		c0.1-0.4-0.1-0.8-0.5-0.9c-0.1,0-0.1,0-0.2,0c-0.3,0-0.6,0.2-0.7,0.5l-1.6,5.9l-3,1.7l1.2-4.5c0.1-0.4-0.1-0.8-0.5-0.9
		c-0.1,0-0.1,0-0.2,0c-0.3,0-0.6,0.2-0.7,0.5l-1.6,5.9l-3,1.7l1.2-4.5c0.1-0.4-0.1-0.8-0.5-0.9c-0.1,0-0.1,0-0.2,0
		c-0.3,0-0.6,0.2-0.7,0.5l-1.6,5.9l-4.9,2.8l-6.6-1.6l-4.6-4.9v-5.7l4.3-4.3c0.3-0.3,0.3-0.7,0-1c-0.1-0.1-0.3-0.2-0.5-0.2
		s-0.4,0.1-0.5,0.2l-3.3,3.3v-3.5l4.3-4.3c0.3-0.3,0.3-0.7,0-1c-0.1-0.1-0.3-0.2-0.5-0.2s-0.4,0.1-0.5,0.2l-3.3,3.3v-3.5l4.3-4.3
		c0.3-0.3,0.3-0.7,0-1c-0.1-0.1-0.3-0.2-0.5-0.2s-0.4,0.1-0.5,0.2l-3.3,3.3v-4.4c0-0.4-0.3-0.7-0.7-0.7s-0.7,0.3-0.7,0.7v4.4
		l-3.3-3.3c-0.1-0.1-0.3-0.2-0.5-0.2s-0.4,0.1-0.5,0.2c-0.3,0.3-0.3,0.7,0,1l4.3,4.3v3.5l-3.3-3.3c-0.1-0.1-0.3-0.2-0.5-0.2
		s-0.4,0.1-0.5,0.2c-0.3,0.3-0.3,0.7,0,1l4.3,4.3v3.5l-3.3-3.3c-0.1-0.1-0.3-0.2-0.5-0.2s-0.4,0.1-0.5,0.2c-0.3,0.3-0.3,0.7,0,1
		l4.3,4.3v5.7l-4.6,4.9l-6.6,1.6l-4.9-2.8l-1.6-5.9c-0.1-0.3-0.4-0.5-0.7-0.5c-0.1,0-0.1,0-0.2,0c-0.4,0.1-0.6,0.5-0.5,0.9l1.2,4.5
		l-3-1.7l-1.6-5.9c-0.1-0.3-0.4-0.5-0.7-0.5c-0.1,0-0.1,0-0.2,0c-0.4,0.1-0.6,0.5-0.5,0.9l1.2,4.5l-3-1.7l-1.6-5.9
		c-0.1-0.3-0.4-0.5-0.7-0.5c-0.1,0-0.1,0-0.2,0c-0.4,0.1-0.6,0.5-0.5,0.9l1.2,4.5l-3.8-2.2c-0.1-0.1-0.2-0.1-0.4-0.1
		s-0.5,0.1-0.6,0.4c-0.2,0.3-0.1,0.8,0.3,1l3.8,2.2l-4.5,1.2c-0.4,0.1-0.6,0.5-0.5,0.9c0.1,0.4,0.5,0.6,0.9,0.5l5.8-1.6l3,1.7
		l-4.5,1.2c-0.4,0.1-0.6,0.5-0.5,0.9c0.1,0.4,0.5,0.6,0.9,0.5l5.9-1.6l3,1.7l-4.5,1.2c-0.4,0.1-0.6,0.5-0.5,0.9
		c0.1,0.4,0.5,0.6,0.9,0.5l5.9-1.6l5,2.9l1.9,6.4l-1.9,6.2l-5.1,2.9l-5.8-1.6c-0.1,0-0.1,0-0.2,0c-0.3,0-0.6,0.2-0.7,0.5
		c-0.1,0.4,0.1,0.8,0.5,0.9l4.5,1.2l-3.1,1.7l-5.8-1.6c-0.1,0-0.1,0-0.2,0c-0.3,0-0.6,0.2-0.7,0.5c-0.1,0.4,0.1,0.8,0.5,0.9l4.5,1.2
		l-3.1,1.7l-5.8-1.6c-0.1-0.4-0.2-0.4-0.3-0.4c-0.3,0-0.6,0.2-0.7,0.5c-0.1,0.4,0.1,0.8,0.5,0.9l4.5,1.2l-3.9,2.2
		c-0.3,0.2-0.5,0.6-0.3,1c0.2,0.3,0.6,0.5,1,0.3l3.9-2.2l-1.2,4.5c-0.1,0.4,0.1,0.8,0.5,0.9c0.4,0.1,0.8-0.1,0.9-0.5l1.6-5.8
		l3.1-1.7l-1.2,4.5c-0.1,0.4,0.1,0.8,0.5,0.9c0.4,0.1,0.8-0.1,0.9-0.5l1.6-5.8l3.1-1.7l-1.2,4.5c-0.1,0.4,0.1,0.8,0.5,0.9
		c0.4,0.1,0.8-0.1,0.9-0.5l1.6-5.8l4.8-2.7l6.7,1.6l4.6,4.9v5.7l-4.3,4.3c-0.3,0.3-0.3,0.7,0,1c0.3,0.3,0.7,0.3,1,0l3.3-3.3v3.5
		l-4.3,4.3c-0.3,0.3-0.3,0.7,0,1c0.3,0.3,0.7,0.3,1,0l3.3-3.3v3.5l-4.3,4.3c-0.3,0.3-0.3,0.7,0,1c0.3,0.3,0.7,0.3,1,0l3.3-3.3v4.4
		c0,0.4,0.3,0.7,0.7,0.7s0.7-0.3,0.7-0.7v-4.4l3.3,3.3c0.3,0.3,0.7,0.3,1,0c0.3-0.3,0.3-0.7,0-1l-4.3-4.3V203l3.3,3.3
		c0.3,0.3,0.7,0.3,1,0s0.3-0.7,0-1l-4.3-4.3v-3.5l3.3,3.3c0.3,0.3,0.7,0.3,1,0s0.3-0.7,0-1l-4.3-4.3v-5.7l4.6-4.9l6.5-1.5l4.9,2.9
		l1.6,5.9c0.1,0.4,0.5,0.6,0.9,0.5c0.4-0.1,0.6-0.5,0.5-0.9l-1.2-4.5l3,1.8l1.6,5.9c0.1,0.4,0.5,0.6,0.9,0.5
		c0.4-0.1,0.6-0.5,0.5-0.9l-1.2-4.5l3,1.8l1.6,5.9c0.1,0.4,0.5,0.6,0.9,0.5c0.4-0.1,0.6-0.5,0.5-0.9l-1.2-4.5l3.8,2.2
		c0.3,0.2,0.8,0.1,1-0.3c0.2-0.3,0.1-0.8-0.3-1l-3.8-2.2l4.5-1.2c0.4-0.1,0.6-0.5,0.5-0.9c-0.1-0.3-0.4-0.5-0.7-0.5
		c-0.1,0-0.1,0-0.2,0l-5.9,1.6l-3-1.8l4.5-1.2c0.4-0.1,0.6-0.5,0.5-0.9c-0.1-0.3-0.4-0.5-0.7-0.5c-0.1,0-0.1,0-0.2,0l-5.9,1.6
		l-3-1.8l4.5-1.2c0.4-0.1,0.6-0.5,0.5-0.9c-0.1-0.3-0.4-0.5-0.7-0.5c-0.1,0-0.1,0-0.2,0l-5.9,1.6l-4.9-2.8l-1.9-6.5l1.9-6.4l5-2.9
		l5.9,1.6c0.4,0.1,0.8-0.1,0.9-0.5c0.1-0.4-0.1-0.8-0.5-0.9l-4.5-1.2l3-1.7l5.9,1.6c0.4,0.1,0.8-0.1,0.9-0.5
		c0.1-0.4-0.1-0.8-0.5-0.9l-4.5-1.2l3-1.7l5.9,1.6c0.4,0.1,0.8-0.1,0.9-0.5C1227.3,161.7,1227.1,161.3,1226.7,161.2z M1184,175.5
		c0-0.1,0-0.3,0-0.4l-1.5-5.1l7,4c-0.2,0.4-0.2,0.9-0.2,1.4s0.1,0.9,0.2,1.3l-6.9,3.9L1184,175.5z M1192.5,187.4l-3.7-4
		c-0.1-0.1-0.2-0.2-0.4-0.2l-5.4-1.3l7.1-4c0.6,0.7,1.4,1.2,2.4,1.4V187.4z M1192.5,171.4c-1,0.2-1.8,0.7-2.4,1.4l-7-4l5.3-1.4
		c0.1,0,0.3-0.1,0.4-0.2l3.7-3.9V171.4z M1193.9,163.2l3.7,4c0.1,0.1,0.2,0.2,0.4,0.2l5.3,1.3l-7,4c-0.6-0.7-1.4-1.2-2.4-1.4V163.2z
		 M1198,183.2c-0.1,0-0.3,0.1-0.4,0.2l-3.7,3.9v-8.1c0.9-0.2,1.8-0.7,2.4-1.4l7,4L1198,183.2z M1202.4,175.1c0,0.1,0,0.3,0,0.4
		l1.6,5.2l-7-4c0.2-0.4,0.3-0.9,0.3-1.4s-0.1-0.9-0.3-1.4l7-4L1202.4,175.1z"/>
	<path class="elementor-shape-fill ha-shape-divider" d="M1188.2,192.9l-1.3-5.3c-0.1-0.4-0.4-0.6-0.8-0.6c-0.1,0-0.1,0-0.2,0l-5.2,1.3c-0.4,0.1-0.7,0.5-0.6,0.9
		c0.1,0.4,0.5,0.7,0.9,0.6l4.5-1.1l1.1,4.5c0.1,0.4,0.5,0.7,0.9,0.6C1188,193.7,1188.3,193.3,1188.2,192.9z"/>
	<path class="elementor-shape-fill ha-shape-divider" d="M1182,192.5c-1.4,0-2.6,1.2-2.6,2.6c0,1.4,1.2,2.6,2.6,2.6s2.6-1.2,2.6-2.6C1184.6,193.7,1183.4,192.5,1182,192.5z
		 M1182,196.2c-0.6,0-1.2-0.5-1.2-1.2c0-0.6,0.5-1.2,1.2-1.2c0.6,0,1.2,0.5,1.2,1.2C1183.1,195.7,1182.6,196.2,1182,196.2z"/>
	<path class="elementor-shape-fill ha-shape-divider" d="M1179.2,197.9c-1.2,0-2.1,0.9-2.1,2.1s0.9,2.1,2.1,2.1s2.1-0.9,2.1-2.1C1181.3,198.9,1180.4,197.9,1179.2,197.9z
		 M1179.2,200.7c-0.4,0-0.7-0.3-0.7-0.7c0-0.4,0.3-0.7,0.7-0.7s0.7,0.3,0.7,0.7C1179.9,200.4,1179.6,200.7,1179.2,200.7z"/>
	<path class="elementor-shape-fill ha-shape-divider" d="M1207,189.3c0.1-0.4-0.2-0.8-0.6-0.9l-5.2-1.3c-0.1,0-0.1,0-0.2,0c-0.4,0-0.7,0.2-0.8,0.6l-1.3,5.3
		c-0.1,0.4,0.2,0.8,0.6,0.9c0.4,0.1,0.8-0.2,0.9-0.6l1.1-4.5l4.5,1.1C1206.5,190,1206.9,189.7,1207,189.3z"/>
	<path class="elementor-shape-fill ha-shape-divider" d="M1207.7,195.1c0-1.4-1.2-2.6-2.6-2.6s-2.6,1.2-2.6,2.6c0,1.4,1.2,2.6,2.6,2.6C1206.6,197.7,1207.7,196.5,1207.7,195.1z
		 M1205.2,196.2c-0.6,0-1.2-0.5-1.2-1.2c0-0.6,0.5-1.2,1.2-1.2s1.2,0.5,1.2,1.2C1206.3,195.7,1205.8,196.2,1205.2,196.2z"/>
	<path class="elementor-shape-fill ha-shape-divider" d="M1208,197.9c-1.2,0-2.1,0.9-2.1,2.1s0.9,2.1,2.1,2.1s2.1-0.9,2.1-2.1C1210.1,198.9,1209.1,197.9,1208,197.9z M1208,200.7
		c-0.4,0-0.7-0.3-0.7-0.7c0-0.4,0.3-0.7,0.7-0.7s0.7,0.3,0.7,0.7C1208.7,200.4,1208.3,200.7,1208,200.7z"/>
	<path class="elementor-shape-fill ha-shape-divider" d="M1200.5,157.7c-0.1-0.4-0.5-0.7-0.9-0.6c-0.4,0.1-0.7,0.5-0.6,0.9l1.2,5.3c0.1,0.4,0.4,0.6,0.8,0.6c0.1,0,0.1,0,0.2,0
		l5.2-1.3c0.4-0.1,0.7-0.5,0.6-0.9c-0.1-0.4-0.5-0.7-0.9-0.6l-4.5,1.1L1200.5,157.7z"/>
	<path class="elementor-shape-fill ha-shape-divider" d="M1202.6,155.8c0,1.4,1.1,2.6,2.6,2.6c1.4,0,2.6-1.2,2.6-2.6s-1.2-2.6-2.6-2.6S1202.6,154.4,1202.6,155.8z M1206.4,155.9
		c0,0.6-0.5,1.2-1.2,1.2s-1.2-0.5-1.2-1.2c0-0.7,0.5-1.2,1.2-1.2C1205.8,154.7,1206.4,155.2,1206.4,155.9z"/>
	<path class="elementor-shape-fill ha-shape-divider" d="M1210.1,150.9c0-1.2-0.9-2.1-2.1-2.1s-2.1,0.9-2.1,2.1c-0.1,1.2,0.9,2.1,2.1,2.1S1210.1,152.1,1210.1,150.9z M1207.3,150.9
		c0-0.4,0.3-0.7,0.7-0.7s0.7,0.3,0.7,0.7c0,0.4-0.3,0.7-0.7,0.7S1207.3,151.3,1207.3,150.9z"/>
	<path class="elementor-shape-fill ha-shape-divider" d="M1180.2,161.6c-0.1,0.4,0.2,0.8,0.6,0.9l5.2,1.3c0.1,0,0.1,0,0.2,0c0.4,0,0.7-0.2,0.8-0.6l1.3-5.2c0.1-0.4-0.2-0.8-0.6-0.9
		c-0.4-0.1-0.8,0.2-0.9,0.6l-1.1,4.5l-4.5-1.1C1180.7,161,1180.3,161.2,1180.2,161.6z"/>
	<path class="elementor-shape-fill ha-shape-divider" d="M1182,153.2c-1.4,0-2.6,1.2-2.6,2.6s1.2,2.6,2.6,2.6s2.6-1.2,2.6-2.6C1184.6,154.4,1183.4,153.2,1182,153.2z M1182,157.1
		c-0.6,0-1.2-0.5-1.2-1.2c0-0.7,0.6-1.2,1.2-1.2s1.2,0.5,1.2,1.2C1183.2,156.5,1182.7,157.1,1182,157.1z"/>
	<path class="elementor-shape-fill ha-shape-divider" d="M1179.2,148.8c-1.2,0-2.1,0.9-2.1,2.1s0.9,2.1,2.1,2.1s2.1-0.9,2.1-2.1C1181.3,149.7,1180.4,148.8,1179.2,148.8z
		 M1179.2,151.6c-0.4,0-0.7-0.3-0.7-0.7c0-0.4,0.3-0.7,0.7-0.7c0.4,0,0.7,0.3,0.7,0.7C1179.9,151.3,1179.6,151.6,1179.2,151.6z"/>
	<path class="elementor-shape-fill ha-shape-divider" d="M1174.6,180.2c0.3,0.3,0.8,0.3,1.1-0.1l3.6-4l0.1-0.1c0.2-0.3,0.1-0.7-0.2-0.9l-4-3.6c-0.3-0.3-0.8-0.3-1.1,0.1
		c-0.3,0.3-0.3,0.8,0.1,1.1l3.5,3.1l-3.1,3.5C1174.2,179.4,1174.3,179.9,1174.6,180.2z"/>
	<path class="elementor-shape-fill ha-shape-divider" d="M1171.1,178.3c0.7-0.2,1.2-0.6,1.5-1.3c0.3-0.6,0.4-1.3,0.2-2s-0.6-1.2-1.3-1.5c-0.4-0.2-0.8-0.3-1.2-0.3
		c-0.3,0-0.5,0-0.8,0.1c-0.7,0.2-1.2,0.6-1.5,1.3c-0.7,1.3-0.2,2.8,1.1,3.5C1169.7,178.4,1170.4,178.5,1171.1,178.3z M1169.3,175.3
		c0.1-0.3,0.4-0.5,0.7-0.6c0.3-0.1,0.6-0.1,0.9,0.1c0.3,0.1,0.5,0.4,0.6,0.7s0.1,0.6-0.1,0.9c-0.1,0.3-0.4,0.5-0.7,0.6
		c-0.1,0-0.2,0.1-0.3,0.1c-0.2,0-0.4,0-0.5-0.1C1169.2,176.6,1169,175.9,1169.3,175.3z"/>
	<path class="elementor-shape-fill ha-shape-divider" d="M1165.3,178c0.5-0.2,1-0.5,1.2-1c0.5-1,0.2-2.3-0.9-2.9c-0.3-0.2-0.7-0.2-1-0.2c-0.8,0-1.5,0.4-1.9,1.1
		c-0.5,1-0.2,2.3,0.9,2.9C1164.2,178.1,1164.7,178.2,1165.3,178z M1164.1,175.7c0.2-0.3,0.6-0.5,0.9-0.3c0.3,0.2,0.5,0.6,0.3,0.9
		c-0.1,0.2-0.2,0.3-0.4,0.3c-0.1,0-0.1,0-0.2,0s-0.2,0-0.3-0.1C1164,176.4,1163.9,176,1164.1,175.7z"/>
	<path class="elementor-shape-fill ha-shape-divider" d="M1212.3,171.5c-0.3-0.3-0.8-0.3-1.1-0.1l-4,3.6c-0.3,0.2-0.3,0.6-0.2,0.9l0.1,0.1l3.6,4c0.3,0.3,0.8,0.3,1.1,0.1
		c0.3-0.2,0.4-0.8,0.1-1.1l-3.1-3.5l3.5-3.1C1212.5,172.3,1212.5,171.8,1212.3,171.5z"/>
	<path class="elementor-shape-fill ha-shape-divider" d="M1216.8,173.4c-0.2-0.1-0.5-0.1-0.8-0.1c-0.4,0-0.8,0.1-1.2,0.3c-0.6,0.3-1.1,0.9-1.3,1.5c-0.2,0.7-0.1,1.4,0.2,2
		c0.3,0.6,0.9,1.1,1.5,1.3c0.7,0.2,1.4,0.1,2-0.2c1.3-0.7,1.7-2.2,1.1-3.5C1218,174,1217.4,173.6,1216.8,173.4z M1216.6,176.8
		c-0.3,0.1-0.6,0.2-0.9,0.1c-0.3-0.1-0.5-0.3-0.7-0.6c-0.1-0.3-0.2-0.6-0.1-0.9c0.1-0.3,0.3-0.5,0.6-0.7c0.6-0.3,1.3-0.1,1.6,0.5
		C1217.3,175.9,1217.1,176.6,1216.6,176.8z"/>
	<path class="elementor-shape-fill ha-shape-divider" d="M1222.3,174c-0.2-0.1-0.4-0.1-0.6-0.1c-0.3,0-0.7,0.1-1,0.2c-1,0.5-1.4,1.8-0.9,2.9c0.5,1,1.8,1.4,2.9,0.9
		c1-0.5,1.4-1.8,0.9-2.9C1223.3,174.5,1222.8,174.1,1222.3,174z M1222,176.6c-0.1,0.1-0.2,0.1-0.3,0.1c-0.2,0-0.5-0.1-0.6-0.4
		c-0.2-0.3-0.1-0.7,0.3-0.9c0.2-0.1,0.3-0.1,0.5-0.1c0.2,0.1,0.3,0.2,0.4,0.3C1222.5,176,1222.3,176.4,1222,176.6z"/>
	<path class="elementor-shape-fill ha-shape-divider" d="M3986.6,213.7c0.1-0.4-0.1-0.8-0.5-0.9l-4.5-1.2l3.8-2.2c0.3-0.2,0.5-0.6,0.3-1c-0.1-0.2-0.4-0.4-0.6-0.4
		c-0.1,0-0.2,0-0.4,0.1l-3.8,2.2l1.2-4.5c0.1-0.4-0.1-0.8-0.5-0.9c-0.1,0-0.1,0-0.2,0c-0.3,0-0.6,0.2-0.7,0.5l-1.6,5.9l-3,1.7
		l1.2-4.5c0.1-0.4-0.1-0.8-0.5-0.9c-0.1,0-0.1,0-0.2,0c-0.3,0-0.6,0.2-0.7,0.5l-1.6,5.9l-3,1.7l1.2-4.5c0.1-0.4-0.1-0.8-0.5-0.9
		c-0.1,0-0.1,0-0.2,0c-0.3,0-0.6,0.2-0.7,0.5l-1.6,5.9l-4.9,2.8l-6.6-1.6l-4.6-4.9v-5.7l4.3-4.3c0.3-0.3,0.3-0.7,0-1
		c-0.1-0.1-0.3-0.2-0.5-0.2s-0.4,0.1-0.5,0.2l-3.3,3.3v-3.5l4.3-4.3c0.3-0.3,0.3-0.7,0-1c-0.1-0.1-0.3-0.2-0.5-0.2s-0.4,0.1-0.5,0.2
		l-3.3,3.3v-3.5l4.3-4.3c0.3-0.3,0.3-0.7,0-1c-0.1-0.1-0.3-0.2-0.5-0.2s-0.4,0.1-0.5,0.2l-3.3,3.3v-4.4c0-0.4-0.3-0.7-0.7-0.7
		s-0.7,0.3-0.7,0.7v4.4l-3.3-3.3c-0.1-0.1-0.3-0.2-0.5-0.2s-0.4,0.1-0.5,0.2c-0.3,0.3-0.3,0.7,0,1l4.3,4.3v3.5l-3.3-3.3
		c-0.1-0.1-0.3-0.2-0.5-0.2s-0.4,0.1-0.5,0.2c-0.3,0.3-0.3,0.7,0,1l4.3,4.3v3.5l-3.3-3.3c-0.1-0.1-0.3-0.2-0.5-0.2s-0.4,0.1-0.5,0.2
		c-0.3,0.3-0.3,0.7,0,1l4.3,4.3v5.8l-4.6,4.9l-6.6,1.6l-4.9-2.8l-1.6-5.9c-0.1-0.3-0.4-0.5-0.7-0.5c-0.1,0-0.1,0-0.2,0
		c-0.4,0.1-0.6,0.5-0.5,0.9l1.2,4.5l-3-1.7l-1.6-5.9c-0.1-0.3-0.4-0.5-0.7-0.5c-0.1,0-0.1,0-0.2,0c-0.4,0.1-0.6,0.5-0.5,0.9l1.2,4.5
		l-3-1.7l-1.6-5.9c-0.1-0.3-0.4-0.5-0.7-0.5c-0.1,0-0.1,0-0.2,0c-0.4,0.1-0.6,0.5-0.5,0.9l1.2,4.5l-3.8-2.2
		c-0.1-0.1-0.2-0.1-0.4-0.1s-0.5,0.1-0.6,0.4c-0.2,0.3-0.1,0.8,0.3,1l3.8,2.2l-4.5,1.2c-0.4,0.1-0.6,0.5-0.5,0.9
		c0.1,0.4,0.5,0.6,0.9,0.5l5.8-1.6l3,1.7l-4.5,1.2c-0.4,0.1-0.6,0.5-0.5,0.9c0.1,0.4,0.5,0.6,0.9,0.5l5.9-1.6l3,1.7l-4.5,1.2
		c-0.4,0.1-0.6,0.5-0.5,0.9c0.1,0.4,0.5,0.6,0.9,0.5l5.9-1.6l5,2.9l1.9,6.4l-1.9,6.2l-5.1,2.9l-5.8-1.6c-0.1,0-0.1,0-0.2,0
		c-0.3,0-0.6,0.2-0.7,0.5c-0.1,0.4,0.1,0.8,0.5,0.9l4.5,1.2l-3.1,1.7l-5.8-1.6c-0.1,0-0.1,0-0.2,0c-0.3,0-0.6,0.2-0.7,0.5
		c-0.1,0.4,0.1,0.8,0.5,0.9l4.5,1.2l-3.1,1.7l-5.8-1.6c-0.2-0.1-0.3-0.1-0.3-0.1c-0.3,0-0.6,0.2-0.7,0.5c-0.1,0.4,0.1,0.8,0.5,0.9
		l4.5,1.2l-3.9,2.2c-0.3,0.2-0.5,0.6-0.3,1c0.2,0.3,0.6,0.5,1,0.3l3.9-2.2l-1.2,4.5c-0.1,0.4,0.1,0.8,0.5,0.9
		c0.4,0.1,0.8-0.1,0.9-0.5l1.6-5.8l3.1-1.7l-1.2,4.5c-0.1,0.4,0.1,0.8,0.5,0.9c0.4,0.1,0.8-0.1,0.9-0.5l1.6-5.8l3.1-1.7l-1.2,4.5
		c-0.1,0.4,0.1,0.8,0.5,0.9c0.4,0.1,0.8-0.1,0.9-0.5l1.6-5.8l4.8-2.7l6.7,1.6l4.6,4.9v5.3l-4.3,4.3c-0.3,0.3-0.3,0.7,0,1
		s0.7,0.3,1,0l3.3-3.3v3.5l-4.3,4.3c-0.3,0.3-0.3,0.7,0,1s0.7,0.3,1,0l3.3-3.3v3.5l-4.3,4.3c-0.3,0.3-0.3,0.7,0,1s0.7,0.3,1,0
		l3.3-3.3v4.4c0,0.4,0.3,0.7,0.7,0.7s0.7-0.3,0.7-0.7v-4.4l3.3,3.3c0.3,0.3,0.7,0.3,1,0s0.3-0.7,0-1l-4.3-4.3v-3.5l3.3,3.3
		c0.3,0.3,0.7,0.3,1,0s0.3-0.7,0-1l-4.3-4.3v-3.5l3.3,3.3c0.3,0.3,0.7,0.3,1,0s0.3-0.7,0-1l-4.3-4.3v-5.7l4.6-4.9l6.5-1.5l4.9,2.9
		l1.6,5.9c0.1,0.4,0.5,0.6,0.9,0.5c0.4-0.1,0.6-0.5,0.5-0.9l-1.2-4.5l3,1.8l1.6,5.9c0.1,0.4,0.5,0.6,0.9,0.5
		c0.4-0.1,0.6-0.5,0.5-0.9l-1.2-4.5l3,1.8l1.6,5.9c0.1,0.4,0.5,0.6,0.9,0.5c0.4-0.1,0.6-0.5,0.5-0.9l-1.2-4.5l3.8,2.2
		c0.3,0.2,0.8,0.1,1-0.3c0.2-0.3,0.1-0.8-0.3-1l-3.8-2.2l4.5-1.2c0.4-0.1,0.6-0.5,0.5-0.9c-0.1-0.3-0.4-0.5-0.7-0.5
		c-0.1,0-0.1,0-0.2,0l-5.9,1.6l-3-1.8l4.5-1.2c0.4-0.1,0.6-0.5,0.5-0.9c-0.1-0.3-0.4-0.5-0.7-0.5c-0.1,0-0.1,0-0.2,0l-5.9,1.6
		l-3-1.8l4.5-1.2c0.4-0.1,0.6-0.5,0.5-0.9c-0.1-0.3-0.4-0.5-0.7-0.5c-0.1,0-0.1,0-0.2,0l-5.9,1.6l-4.9-2.8l-1.9-6.5l1.9-6.4l5-2.9
		l5.9,1.6c0.4,0.1,0.8-0.1,0.9-0.5c0.1-0.4-0.1-0.8-0.5-0.9l-4.5-1.2l3-1.7l5.9,1.6c0.4,0.1,0.8-0.1,0.9-0.5
		c0.1-0.4-0.1-0.8-0.5-0.9l-4.5-1.2l3-1.7l5.9,1.6C3986.1,214.3,3986.5,214.1,3986.6,213.7z M3943.3,227.5c0-0.1,0-0.3,0-0.4
		l-1.5-5.1l7,4c-0.2,0.4-0.2,0.9-0.2,1.4s0.1,0.9,0.2,1.3l-6.9,3.9L3943.3,227.5z M3951.8,239.4l-3.7-4c-0.1-0.1-0.2-0.2-0.4-0.2
		l-5.4-1.3l7.1-4c0.6,0.7,1.4,1.2,2.4,1.4V239.4z M3951.9,223.4c-1,0.2-1.8,0.7-2.4,1.4l-7-4l5.3-1.4c0.1,0,0.3-0.1,0.4-0.2l3.7-3.9
		V223.4z M3953.3,215.2l3.7,4c0.1,0.1,0.2,0.2,0.4,0.2l5.3,1.3l-7,4c-0.6-0.7-1.4-1.2-2.4-1.4V215.2z M3957.3,235.1
		c-0.1,0-0.3,0.1-0.4,0.2l-3.7,3.9v-8.1c0.9-0.2,1.8-0.7,2.4-1.4l7,4L3957.3,235.1z M3961.8,227.1c0,0.1,0,0.3,0,0.4l1.6,5.2l-7-4
		c0.2-0.4,0.3-0.9,0.3-1.4s-0.1-0.9-0.3-1.4l7-4L3961.8,227.1z"/>
	<path class="elementor-shape-fill ha-shape-divider" d="M3947.6,244.8l-1.3-5.3c-0.1-0.4-0.4-0.6-0.8-0.6c-0.1,0-0.1,0-0.2,0l-5.3,1.3c-0.4,0.1-0.7,0.5-0.6,0.9
		c0.1,0.4,0.5,0.7,0.9,0.6l4.5-1.1l1.1,4.5c0.1,0.4,0.5,0.7,0.9,0.6C3947.4,245.7,3947.7,245.2,3947.6,244.8z"/>
	<path class="elementor-shape-fill ha-shape-divider" d="M3941.4,244.4c-1.4,0-2.6,1.2-2.6,2.6c0,1.4,1.2,2.6,2.6,2.6c1.4,0,2.6-1.2,2.6-2.6
		C3943.9,245.6,3942.8,244.4,3941.4,244.4z M3941.4,248.2c-0.6,0-1.2-0.5-1.2-1.2c0-0.6,0.5-1.2,1.2-1.2c0.6,0,1.2,0.5,1.2,1.2
		C3942.5,247.7,3942,248.2,3941.4,248.2z"/>
	<path class="elementor-shape-fill ha-shape-divider" d="M3938.6,249.8c-1.2,0-2.1,0.9-2.1,2.1c0,1.2,0.9,2.1,2.1,2.1s2.1-0.9,2.1-2.1C3940.7,250.8,3939.7,249.8,3938.6,249.8z
		 M3938.6,252.6c-0.4,0-0.7-0.3-0.7-0.7c0-0.4,0.3-0.7,0.7-0.7s0.7,0.3,0.7,0.7C3939.2,252.3,3938.9,252.6,3938.6,252.6z"/>
	<path class="elementor-shape-fill ha-shape-divider" d="M3966.3,241.2c0.1-0.4-0.2-0.8-0.6-0.9l-5.2-1.3c-0.1,0-0.1,0-0.2,0c-0.4,0-0.7,0.2-0.8,0.6l-1.3,5.3
		c-0.1,0.4,0.2,0.8,0.6,0.9c0.4,0.1,0.8-0.2,0.9-0.6l1.1-4.5l4.5,1.1C3965.8,241.9,3966.2,241.6,3966.3,241.2z"/>
	<path class="elementor-shape-fill ha-shape-divider" d="M3967.1,247c0-1.4-1.2-2.6-2.6-2.6c-1.4,0-2.6,1.2-2.6,2.6c0,1.4,1.2,2.6,2.6,2.6C3965.9,249.6,3967.1,248.4,3967.1,247z
		 M3964.5,248.2c-0.6,0-1.2-0.5-1.2-1.2c0-0.6,0.5-1.2,1.2-1.2s1.2,0.5,1.2,1.2S3965.2,248.2,3964.5,248.2z"/>
	<path class="elementor-shape-fill ha-shape-divider" d="M3967.3,249.8c-1.2,0-2.1,0.9-2.1,2.1c0,1.2,0.9,2.1,2.1,2.1s2.1-0.9,2.1-2.1C3969.4,250.8,3968.5,249.8,3967.3,249.8z
		 M3967.3,252.6c-0.4,0-0.7-0.3-0.7-0.7c0-0.4,0.3-0.7,0.7-0.7s0.7,0.3,0.7,0.7C3968,252.3,3967.7,252.6,3967.3,252.6z"/>
	<path class="elementor-shape-fill ha-shape-divider" d="M3959.6,215.2c0.1,0.4,0.4,0.6,0.8,0.6c0.1,0,0.1,0,0.2,0l5.2-1.3c0.4-0.1,0.7-0.5,0.6-0.9c-0.1-0.4-0.5-0.7-0.9-0.6
		l-4.5,1.1l-1.1-4.5c-0.1-0.4-0.5-0.7-0.9-0.6s-0.7,0.5-0.6,0.9L3959.6,215.2z"/>
	<path class="elementor-shape-fill ha-shape-divider" d="M3964.5,210.3c1.4,0,2.6-1.2,2.6-2.6c0-1.4-1.2-2.6-2.6-2.6c-1.4,0-2.6,1.2-2.6,2.6
		C3961.9,209.2,3963.1,210.3,3964.5,210.3z M3964.5,206.6c0.6,0,1.2,0.5,1.2,1.2c0,0.6-0.5,1.2-1.2,1.2s-1.2-0.5-1.2-1.2
		C3963.4,207.1,3963.9,206.6,3964.5,206.6z"/>
	<path class="elementor-shape-fill ha-shape-divider" d="M3967.3,204.9c1.2,0,2.1-0.9,2.1-2.1s-0.9-2.1-2.1-2.1s-2.1,0.9-2.1,2.1S3966.1,204.9,3967.3,204.9z M3967.3,202.1
		c0.4,0,0.7,0.3,0.7,0.7c0,0.4-0.3,0.7-0.7,0.7s-0.7-0.3-0.7-0.7C3966.6,202.4,3966.9,202.1,3967.3,202.1z"/>
	<path class="elementor-shape-fill ha-shape-divider" d="M3939.5,213.6c-0.1,0.4,0.2,0.8,0.6,0.9l5.3,1.3c0.1,0,0.1,0,0.2,0c0.4,0,0.7-0.2,0.8-0.6l1.3-5.2c0.1-0.4-0.2-0.8-0.6-0.9
		c-0.4-0.1-0.8,0.2-0.9,0.6l-1.1,4.5l-4.5-1.1C3940.1,212.9,3939.6,213.1,3939.5,213.6z"/>
	<path class="elementor-shape-fill ha-shape-divider" d="M3938.8,207.7c0,1.4,1.2,2.6,2.6,2.6c1.4,0,2.6-1.2,2.6-2.6c0-1.4-1.2-2.6-2.6-2.6C3939.9,205.2,3938.8,206.3,3938.8,207.7
		z M3941.4,206.6c0.6,0,1.2,0.5,1.2,1.2c0,0.6-0.5,1.2-1.2,1.2c-0.6,0-1.2-0.5-1.2-1.2S3940.7,206.6,3941.4,206.6z"/>
	<path class="elementor-shape-fill ha-shape-divider" d="M3938.6,204.9c1.2,0,2.1-0.9,2.1-2.1s-0.9-2.1-2.1-2.1s-2.1,0.9-2.1,2.1S3937.4,204.9,3938.6,204.9z M3938.6,202.1
		c0.4,0,0.7,0.3,0.7,0.7c0,0.4-0.3,0.7-0.7,0.7s-0.7-0.3-0.7-0.7C3937.9,202.4,3938.2,202.1,3938.6,202.1z"/>
	<path class="elementor-shape-fill ha-shape-divider" d="M3934,232.1c0.3,0.3,0.8,0.3,1.1-0.1l3.6-4l0.1-0.1c0.2-0.3,0.1-0.7-0.2-0.9l-4-3.6c-0.3-0.3-0.8-0.3-1.1,0.1
		c-0.3,0.3-0.3,0.8,0.1,1.1l3.5,3.1l-3.1,3.5C3933.6,231.3,3933.6,231.8,3934,232.1z"/>
	<path class="elementor-shape-fill ha-shape-divider" d="M3930.4,230.2c0.7-0.2,1.2-0.6,1.5-1.3c0.3-0.6,0.4-1.3,0.2-2c-0.2-0.7-0.6-1.2-1.3-1.5c-0.4-0.2-0.8-0.3-1.2-0.3
		c-0.3,0-0.5,0-0.8,0.1c-0.7,0.2-1.2,0.6-1.5,1.3c-0.7,1.3-0.2,2.8,1.1,3.5C3929.1,230.4,3929.8,230.4,3930.4,230.2z M3928.7,227.2
		c0.1-0.3,0.4-0.5,0.7-0.6c0.3-0.1,0.6-0.1,0.9,0.1c0.3,0.1,0.5,0.4,0.6,0.7c0.1,0.3,0.1,0.6-0.1,0.9c-0.1,0.3-0.4,0.5-0.7,0.6
		c-0.1,0-0.2,0.1-0.3,0.1c-0.2,0-0.4,0-0.5-0.1C3928.6,228.5,3928.4,227.8,3928.7,227.2z"/>
	<path class="elementor-shape-fill ha-shape-divider" d="M3924.6,229.9c0.5-0.2,1-0.5,1.2-1c0.5-1,0.2-2.3-0.9-2.9c-0.3-0.2-0.7-0.2-1-0.2c-0.8,0-1.5,0.4-1.9,1.1
		c-0.5,1-0.2,2.3,0.9,2.9C3923.5,230,3924.1,230.1,3924.6,229.9z M3923.4,227.6c0.2-0.3,0.6-0.5,0.9-0.3s0.5,0.6,0.3,0.9
		c-0.1,0.2-0.2,0.3-0.4,0.3c-0.1,0-0.1,0-0.2,0c-0.1,0-0.2,0-0.3-0.1C3923.4,228.3,3923.3,227.9,3923.4,227.6z"/>
	<path class="elementor-shape-fill ha-shape-divider" d="M3971.6,223.4c-0.3-0.3-0.8-0.3-1.1-0.1l-4,3.6c-0.3,0.2-0.3,0.6-0.2,0.9l0.1,0.1l3.6,4c0.3,0.3,0.8,0.3,1.1,0.1
		s0.4-0.8,0.1-1.1l-3.1-3.5l3.5-3.1C3971.9,224.2,3971.9,223.7,3971.6,223.4z"/>
	<path class="elementor-shape-fill ha-shape-divider" d="M3976.1,225.3c-0.2-0.1-0.5-0.1-0.8-0.1c-0.4,0-0.8,0.1-1.2,0.3c-0.6,0.3-1.1,0.9-1.3,1.5c-0.2,0.7-0.1,1.4,0.2,2
		c0.3,0.6,0.9,1.1,1.5,1.3c0.7,0.2,1.4,0.1,2-0.2c1.3-0.7,1.7-2.2,1.1-3.5C3977.3,225.9,3976.8,225.5,3976.1,225.3z M3975.9,228.8
		c-0.3,0.1-0.6,0.2-0.9,0.1c-0.3-0.1-0.5-0.3-0.7-0.6c-0.1-0.3-0.2-0.6-0.1-0.9c0.1-0.3,0.3-0.5,0.6-0.7c0.6-0.3,1.3-0.1,1.6,0.5
		C3976.7,227.8,3976.5,228.5,3975.9,228.8z"/>
	<path class="elementor-shape-fill ha-shape-divider" d="M3981.6,225.9c-0.2-0.1-0.4-0.1-0.6-0.1c-0.3,0-0.7,0.1-1,0.2c-1,0.5-1.4,1.8-0.9,2.9c0.5,1,1.8,1.4,2.9,0.9
		c1-0.5,1.4-1.8,0.9-2.9C3982.6,226.4,3982.2,226,3981.6,225.9z M3981.4,228.5c-0.1,0.1-0.2,0.1-0.3,0.1c-0.2,0-0.5-0.1-0.6-0.4
		c-0.2-0.3-0.1-0.7,0.3-0.9c0.2-0.1,0.3-0.1,0.5-0.1c0.2,0.1,0.3,0.2,0.4,0.3C3981.8,227.9,3981.7,228.3,3981.4,228.5z"/>
	<path class="elementor-shape-fill ha-shape-divider" d="M2767.7,218l-5.3-1.4l4.5-2.6c0.4-0.2,0.6-0.7,0.4-1.2c-0.1-0.2-0.5-0.5-0.7-0.5c-0.1,0-0.2,0-0.5,0.1l-4.5,2.6l1.4-5.3
		c0.1-0.5-0.1-1-0.6-1.1c-0.1,0-0.1,0-0.2,0c-0.4,0-0.7,0.2-0.8,0.6l-1.9,7l-3.6,2l1.4-5.3c0.1-0.5-0.1-1-0.6-1.1
		c-0.1,0-0.1,0-0.2,0c-0.4,0-0.7,0.2-0.8,0.6l-1.9,7l-3.6,2l1.4-5.3c0.1-0.5-0.1-1-0.6-1.1c-0.1,0-0.1,0-0.2,0
		c-0.4,0-0.7,0.2-0.8,0.6l-1.9,7l-5.8,3.3l-7.8-1.9l-5.5-5.8v-6.8l5.1-5.1c0.4-0.4,0.4-0.8,0-1.2c-0.1-0.1-0.4-0.2-0.6-0.2
		c-0.2,0-0.5,0.1-0.6,0.2l-3.9,3.9V205l5.1-5.1c0.4-0.4,0.4-0.8,0-1.2c-0.1-0.1-0.4-0.2-0.6-0.2c-0.2,0-0.5,0.1-0.6,0.2l-3.9,3.9
		v-4.2l5.1-5.1c0.4-0.4,0.4-0.8,0-1.2c-0.1-0.1-0.4-0.2-0.6-0.2c-0.2,0-0.5,0.1-0.6,0.2l-3.9,3.9v-5.2c0-0.5-0.4-0.8-0.8-0.8
		s-0.8,0.4-0.8,0.8v5.2l-3.9-3.9c-0.1-0.1-0.4-0.2-0.6-0.2s-0.5,0.1-0.6,0.2c-0.4,0.4-0.4,0.8,0,1.2l5.1,5.1v4.2l-3.9-3.9
		c-0.1-0.1-0.4-0.2-0.6-0.2s-0.5,0.1-0.6,0.2c-0.4,0.4-0.4,0.8,0,1.2l5.1,5.1v4.2l-3.9-3.9c-0.1-0.1-0.4-0.2-0.6-0.2
		s-0.5,0.1-0.6,0.2c-0.4,0.4-0.4,0.8,0,1.2l5.1,5.1v6.9l-5.5,5.8l-7.8,1.9l-5.8-3.3l-1.9-7c-0.1-0.4-0.5-0.6-0.8-0.6
		c-0.1,0-0.1,0-0.2,0c-0.5,0.1-0.7,0.6-0.6,1.1l1.4,5.3l-3.6-2l-1.9-7c-0.1-0.4-0.5-0.6-0.8-0.6c-0.1,0-0.1,0-0.2,0
		c-0.5,0.1-0.7,0.6-0.6,1.1l1.4,5.3l-3.6-2l-1.9-7c-0.1-0.4-0.5-0.6-0.8-0.6c-0.1,0-0.1,0-0.2,0c-0.5,0.1-0.7,0.6-0.6,1.1l1.4,5.3
		l-4.5-2.6c-0.1-0.1-0.2-0.1-0.5-0.1s-0.6,0.1-0.7,0.5c-0.2,0.4-0.1,1,0.4,1.2l4.5,2.6l-5.3,1.4c-0.5,0.1-0.7,0.6-0.6,1.1
		c0.1,0.5,0.6,0.7,1.1,0.6l6.9-1.9l3.6,2l-5.3,1.4c-0.5,0.1-0.7,0.6-0.6,1.1c0.1,0.5,0.6,0.7,1.1,0.6l7-1.9l3.6,2l-5.3,1.4
		c-0.5,0.1-0.7,0.6-0.6,1.1c0.1,0.5,0.6,0.7,1.1,0.6l7-1.9l5.9,3.4l2.3,7.6l-2.3,7.4l-6.1,3.4l-6.9-1.9c-0.1,0-0.1,0-0.2,0
		c-0.4,0-0.7,0.2-0.8,0.6c-0.1,0.5,0.1,1,0.6,1.1l5.3,1.4l-3.7,2l-6.9-1.9c-0.1,0-0.1,0-0.2,0c-0.4,0-0.7,0.2-0.8,0.6
		c-0.1,0.5,0.1,1,0.6,1.1l5.3,1.4l-3.7,2l-6.9-1.9c-0.2-0.1-0.4-0.1-0.4-0.1c-0.4,0-0.7,0.2-0.8,0.6c-0.1,0.5,0.1,1,0.6,1.1l5.3,1.4
		l-4.6,2.6c-0.4,0.2-0.6,0.7-0.4,1.2c0.2,0.4,0.7,0.6,1.2,0.4l4.6-2.6l-1.4,5.3c-0.1,0.5,0.1,1,0.6,1.1c0.5,0.1,1-0.1,1.1-0.6
		l1.9-6.9l3.7-2l-1.4,5.3c-0.1,0.5,0.1,1,0.6,1.1s1-0.1,1.1-0.6l1.9-6.9l3.7-2l-1.4,5.3c-0.1,0.5,0.1,1,0.6,1.1
		c0.5,0.1,1-0.1,1.1-0.6l1.9-6.9l5.7-3.2l8,1.9l5.5,5.8v6.3l-5.1,5.1c-0.4,0.4-0.4,0.8,0,1.2c0.4,0.4,0.8,0.4,1.2,0l3.9-3.9v4.2
		l-5.1,5.1c-0.4,0.4-0.4,0.8,0,1.2c0.4,0.4,0.8,0.4,1.2,0l3.9-3.9v4.2l-5.1,5.1c-0.4,0.4-0.4,0.8,0,1.2c0.4,0.4,0.8,0.4,1.2,0
		l3.9-3.9v5.2c0,0.5,0.4,0.8,0.8,0.8s0.8-0.4,0.8-0.8v-5.2l3.9,3.9c0.4,0.4,0.8,0.4,1.2,0c0.4-0.4,0.4-0.8,0-1.2l-5.1-5.1v-4.2
		l3.9,3.9c0.4,0.4,0.8,0.4,1.2,0s0.4-0.8,0-1.2l-5.1-5.1v-4.2l3.9,3.9c0.4,0.4,0.8,0.4,1.2,0s0.4-0.8,0-1.2l-5.1-5.1V252l5.5-5.8
		l7.7-1.8l5.8,3.4l1.9,7c0.1,0.5,0.6,0.7,1.1,0.6c0.5-0.1,0.7-0.6,0.6-1.1l-1.4-5.3l3.6,2.1l1.9,7c0.1,0.5,0.6,0.7,1.1,0.6
		s0.7-0.6,0.6-1.1l-1.4-5.3l3.6,2.1l1.9,7c0.1,0.5,0.6,0.7,1.1,0.6c0.5-0.1,0.7-0.6,0.6-1.1l-1.4-5.3l4.5,2.6c0.4,0.2,1,0.1,1.2-0.4
		c0.2-0.4,0.1-1-0.4-1.2l-4.5-2.6l5.3-1.4c0.5-0.1,0.7-0.6,0.6-1.1c-0.1-0.4-0.5-0.6-0.8-0.6c-0.1,0-0.1,0-0.2,0l-7,1.9l-3.6-2.1
		l5.3-1.4c0.5-0.1,0.7-0.6,0.6-1.1c-0.1-0.4-0.5-0.6-0.8-0.6c-0.1,0-0.1,0-0.2,0l-7,1.9l-3.6-2.1l5.3-1.4c0.5-0.1,0.7-0.6,0.6-1.1
		c-0.1-0.4-0.5-0.6-0.8-0.6c-0.1,0-0.1,0-0.2,0l-7,1.9l-5.8-3.3l-2.3-7.7l2.3-7.6l5.9-3.4l7,1.9c0.5,0.1,1-0.1,1.1-0.6
		c0.1-0.5-0.1-1-0.6-1.1l-5.3-1.4l3.6-2l7,1.9c0.5,0.1,1-0.1,1.1-0.6c0.1-0.5-0.1-1-0.6-1.1l-5.3-1.4l3.6-2l7,1.9
		c0.5,0.1,1-0.1,1.1-0.6C2768.4,218.6,2768.2,218.2,2767.7,218z M2716.8,235.5c0-0.1,0-0.4,0-0.5l-1.8-6.1l8.3,4.8
		c-0.2,0.5-0.2,1.1-0.2,1.7s0.1,1.1,0.2,1.5l-8.2,4.6L2716.8,235.5z M2726.9,249.6l-4.4-4.8c-0.1-0.1-0.2-0.2-0.5-0.2l-6.4-1.5
		l8.4-4.8c0.7,0.8,1.7,1.4,2.9,1.7V249.6z M2727.1,230.6c-1.2,0.2-2.1,0.8-2.9,1.7l-8.3-4.8l6.3-1.7c0.1,0,0.4-0.1,0.5-0.2l4.4-4.6
		V230.6z M2728.7,220.9l4.4,4.8c0.1,0.1,0.2,0.2,0.5,0.2l6.3,1.5l-8.3,4.8c-0.7-0.8-1.7-1.4-2.9-1.7V220.9z M2733.5,244.5
		c-0.1,0-0.4,0.1-0.5,0.2l-4.4,4.6v-9.6c1.1-0.2,2.1-0.8,2.9-1.7l8.3,4.8L2733.5,244.5z M2738.8,235c0,0.1,0,0.4,0,0.5l1.9,6.2
		l-8.3-4.8c0.2-0.5,0.4-1.1,0.4-1.7c0-0.6-0.1-1.1-0.4-1.7l8.3-4.8L2738.8,235z"/>
	<path class="elementor-shape-fill ha-shape-divider" d="M2722,256.1l-1.5-6.3c-0.1-0.5-0.5-0.7-1-0.7c-0.1,0-0.1,0-0.2,0l-6.3,1.5c-0.5,0.1-0.8,0.6-0.7,1.1
		c0.1,0.5,0.6,0.8,1.1,0.7l5.3-1.3l1.3,5.3c0.1,0.5,0.6,0.8,1.1,0.7C2721.7,257.1,2722.1,256.5,2722,256.1z"/>
	<path class="elementor-shape-fill ha-shape-divider" d="M2714.6,255.6c-1.7,0-3.1,1.4-3.1,3.1c0,1.7,1.4,3.1,3.1,3.1c1.7,0,3.1-1.4,3.1-3.1C2717.6,257,2716.3,255.6,2714.6,255.6z
		 M2714.6,260.1c-0.7,0-1.4-0.6-1.4-1.4c0-0.7,0.6-1.4,1.4-1.4c0.7,0,1.4,0.6,1.4,1.4C2715.9,259.5,2715.3,260.1,2714.6,260.1z"/>
	<path class="elementor-shape-fill ha-shape-divider" d="M2711.3,262c-1.4,0-2.5,1.1-2.5,2.5c0,1.4,1.1,2.5,2.5,2.5s2.5-1.1,2.5-2.5C2713.8,263.2,2712.6,262,2711.3,262z
		 M2711.3,265.3c-0.5,0-0.8-0.4-0.8-0.8c0-0.5,0.4-0.8,0.8-0.8s0.8,0.4,0.8,0.8C2712,265,2711.6,265.3,2711.3,265.3z"/>
	<path class="elementor-shape-fill ha-shape-divider" d="M2744.2,251.8c0.1-0.5-0.2-1-0.7-1.1l-6.2-1.5c-0.1,0-0.1,0-0.2,0c-0.5,0-0.8,0.2-1,0.7l-1.5,6.3c-0.1,0.5,0.2,1,0.7,1.1
		c0.5,0.1,1-0.2,1.1-0.7l1.3-5.3l5.3,1.3C2743.6,252.6,2744.1,252.3,2744.2,251.8z"/>
	<path class="elementor-shape-fill ha-shape-divider" d="M2745.1,258.7c0-1.7-1.4-3.1-3.1-3.1c-1.7,0-3.1,1.4-3.1,3.1c0,1.7,1.4,3.1,3.1,3.1
		C2743.7,261.8,2745.1,260.3,2745.1,258.7z M2742,260.1c-0.7,0-1.4-0.6-1.4-1.4c0-0.7,0.6-1.4,1.4-1.4c0.8,0,1.4,0.6,1.4,1.4
		S2742.9,260.1,2742,260.1z"/>
	<path class="elementor-shape-fill ha-shape-divider" d="M2745.4,262c-1.4,0-2.5,1.1-2.5,2.5c0,1.4,1.1,2.5,2.5,2.5s2.5-1.1,2.5-2.5C2747.9,263.2,2746.8,262,2745.4,262z
		 M2745.4,265.3c-0.5,0-0.8-0.4-0.8-0.8c0-0.5,0.4-0.8,0.8-0.8s0.8,0.4,0.8,0.8C2746.2,265,2745.8,265.3,2745.4,265.3z"/>
	<path class="elementor-shape-fill ha-shape-divider" d="M2736.6,214.2c-0.1-0.5-0.6-0.8-1.1-0.7c-0.5,0.1-0.8,0.6-0.7,1.1l1.4,6.3c0.1,0.5,0.5,0.7,1,0.7c0.1,0,0.1,0,0.2,0
		l6.2-1.5c0.5-0.1,0.8-0.6,0.7-1.1s-0.6-0.8-1.1-0.7l-5.3,1.3L2736.6,214.2z"/>
	<path class="elementor-shape-fill ha-shape-divider" d="M2738.9,212c0,1.8,1.4,3.1,3.1,3.1s3.1-1.4,3.1-3.1c0-1.7-1.4-3.1-3.1-3.1C2740.4,208.9,2738.9,210.3,2738.9,212z
		 M2743.5,212.1c0,0.7-0.6,1.4-1.4,1.4c-0.8,0-1.4-0.6-1.4-1.4c0.1-0.8,0.7-1.4,1.4-1.4C2742.8,210.7,2743.5,211.3,2743.5,212.1z"/>
	<path class="elementor-shape-fill ha-shape-divider" d="M2747.9,206.2c0-1.4-1.1-2.5-2.5-2.5s-2.5,1.1-2.5,2.5c0,1.4,1.1,2.5,2.5,2.5S2747.9,207.6,2747.9,206.2z M2744.5,206.2
		c0-0.5,0.4-0.8,0.8-0.8c0.5,0,0.8,0.4,0.8,0.8c0,0.5-0.4,0.8-0.8,0.8S2744.5,206.6,2744.5,206.2z"/>
	<path class="elementor-shape-fill ha-shape-divider" d="M2712.3,219c-0.1,0.5,0.2,1,0.7,1.1l6.3,1.5c0.1,0,0.1,0,0.2,0c0.5,0,0.8-0.2,1-0.7l1.5-6.2c0.1-0.5-0.2-1-0.7-1.1
		c-0.5-0.1-1,0.2-1.1,0.7l-1.3,5.3l-5.3-1.3C2713,218.2,2712.5,218.4,2712.3,219z"/>
	<path class="elementor-shape-fill ha-shape-divider" d="M2711.5,212c0,1.7,1.4,3.1,3.1,3.1c1.7,0,3.1-1.4,3.1-3.1c0-1.7-1.4-3.1-3.1-3.1C2712.8,209,2711.5,210.3,2711.5,212z
		 M2714.6,210.7c0.7,0,1.4,0.6,1.4,1.4c0,0.7-0.6,1.4-1.4,1.4c-0.7,0-1.4-0.6-1.4-1.4C2713.2,211.3,2713.8,210.7,2714.6,210.7z"/>
	<path class="elementor-shape-fill ha-shape-divider" d="M2711.3,208.7c1.4,0,2.5-1.1,2.5-2.5s-1.1-2.5-2.5-2.5s-2.5,1.1-2.5,2.5C2708.8,207.6,2709.8,208.7,2711.3,208.7z
		 M2711.3,205.3c0.5,0,0.8,0.4,0.8,0.8c0,0.5-0.4,0.8-0.8,0.8s-0.8-0.4-0.8-0.8C2710.4,205.7,2710.8,205.3,2711.3,205.3z"/>
	<path class="elementor-shape-fill ha-shape-divider" d="M2705.8,241c0.4,0.4,1,0.4,1.3-0.1l4.3-4.8l0.1-0.1c0.2-0.4,0.1-0.8-0.2-1.1l-4.8-4.3c-0.4-0.4-1-0.4-1.3,0.1
		c-0.4,0.4-0.4,1,0.1,1.3l4.2,3.7l-3.7,4.2C2705.3,240,2705.3,240.6,2705.8,241z"/>
	<path class="elementor-shape-fill ha-shape-divider" d="M2701.5,238.7c0.8-0.2,1.4-0.7,1.8-1.5c0.4-0.7,0.5-1.5,0.2-2.4c-0.2-0.8-0.7-1.4-1.5-1.8c-0.5-0.2-1-0.4-1.4-0.4
		c-0.4,0-0.6,0-1,0.1c-0.8,0.2-1.4,0.7-1.8,1.5c-0.8,1.5-0.2,3.3,1.3,4.2C2700,239,2700.8,239,2701.5,238.7z M2699.5,235.2
		c0.1-0.4,0.5-0.6,0.8-0.7c0.4-0.1,0.7-0.1,1.1,0.1c0.4,0.1,0.6,0.5,0.7,0.8s0.1,0.7-0.1,1.1c-0.1,0.4-0.5,0.6-0.8,0.7
		c-0.1,0-0.2,0.1-0.4,0.1c-0.2,0-0.5,0-0.6-0.1C2699.4,236.7,2699.1,235.9,2699.5,235.2z"/>
	<path class="elementor-shape-fill ha-shape-divider" d="M2694.6,238.4c0.6-0.2,1.2-0.6,1.4-1.2c0.6-1.2,0.2-2.7-1.1-3.4c-0.4-0.2-0.8-0.2-1.2-0.2c-1,0-1.8,0.5-2.3,1.3
		c-0.6,1.2-0.2,2.7,1.1,3.4C2693.3,238.5,2694,238.6,2694.6,238.4z M2693.2,235.6c0.2-0.4,0.7-0.6,1.1-0.4c0.4,0.2,0.6,0.7,0.4,1.1
		c-0.1,0.2-0.2,0.4-0.5,0.4c-0.1,0-0.1,0-0.2,0c-0.1,0-0.2,0-0.4-0.1C2693.2,236.5,2693.1,236,2693.2,235.6z"/>
	<path class="elementor-shape-fill ha-shape-divider" d="M2750.5,230.6c-0.4-0.4-1-0.4-1.3-0.1l-4.8,4.3c-0.4,0.2-0.4,0.7-0.2,1.1l0.1,0.1l4.3,4.8c0.4,0.4,1,0.4,1.3,0.1
		c0.4-0.2,0.5-1,0.1-1.3l-3.7-4.2l4.2-3.7C2750.8,231.6,2750.8,231,2750.5,230.6z"/>
	<path class="elementor-shape-fill ha-shape-divider" d="M2755.8,232.9c-0.2-0.1-0.6-0.1-1-0.1c-0.5,0-1,0.1-1.4,0.4c-0.7,0.4-1.3,1.1-1.5,1.8c-0.2,0.8-0.1,1.7,0.2,2.4
		s1.1,1.3,1.8,1.5c0.8,0.2,1.7,0.1,2.4-0.2c1.5-0.8,2-2.6,1.3-4.2C2757.2,233.6,2756.7,233.1,2755.8,232.9z M2755.6,237.1
		c-0.4,0.1-0.7,0.2-1.1,0.1c-0.4-0.1-0.6-0.4-0.8-0.7c-0.1-0.4-0.2-0.7-0.1-1.1c0.1-0.4,0.4-0.6,0.7-0.8c0.7-0.4,1.5-0.1,1.9,0.6
		C2756.5,235.9,2756.3,236.7,2755.6,237.1z"/>
	<path class="elementor-shape-fill ha-shape-divider" d="M2762.4,233.6c-0.2-0.1-0.5-0.1-0.7-0.1c-0.4,0-0.8,0.1-1.2,0.2c-1.2,0.6-1.7,2.1-1.1,3.4c0.6,1.2,2.1,1.7,3.4,1.1
		c1.2-0.6,1.7-2.1,1.1-3.4C2763.5,234.2,2763.1,233.7,2762.4,233.6z M2762.1,236.7c-0.1,0.1-0.2,0.1-0.4,0.1c-0.2,0-0.6-0.1-0.7-0.5
		c-0.2-0.4-0.1-0.8,0.4-1.1c0.2-0.1,0.4-0.1,0.6-0.1c0.2,0.1,0.4,0.2,0.5,0.4C2762.6,236,2762.5,236.5,2762.1,236.7z"/>
	<path class="elementor-shape-fill ha-shape-divider" d="M1692.5,251.5l-7-1.9l5.9-3.4c0.5-0.3,0.8-0.9,0.5-1.6c-0.2-0.3-0.6-0.6-0.9-0.6c-0.2,0-0.3,0-0.6,0.2l-5.9,3.4l1.9-7
		c0.2-0.6-0.2-1.2-0.8-1.4c-0.2,0-0.2,0-0.3,0c-0.5,0-0.9,0.3-1.1,0.8l-2.5,9.2l-4.7,2.6l1.9-7c0.2-0.6-0.2-1.2-0.8-1.4
		c-0.2,0-0.2,0-0.3,0c-0.5,0-0.9,0.3-1.1,0.8l-2.5,9.2l-4.7,2.6l1.9-7c0.2-0.6-0.2-1.2-0.8-1.4c-0.2,0-0.2,0-0.3,0
		c-0.5,0-0.9,0.3-1.1,0.8l-2.5,9.2l-7.6,4.3l-10.2-2.5l-7.1-7.6V243l6.7-6.7c0.5-0.5,0.5-1.1,0-1.6c-0.2-0.2-0.5-0.3-0.8-0.3
		c-0.3,0-0.6,0.2-0.8,0.3l-5.1,5.1v-5.4l6.7-6.7c0.5-0.5,0.5-1.1,0-1.6c-0.2-0.2-0.5-0.3-0.8-0.3c-0.3,0-0.6,0.2-0.8,0.3l-5.1,5.1
		v-5.4l6.7-6.7c0.5-0.5,0.5-1.1,0-1.6c-0.2-0.2-0.5-0.3-0.8-0.3c-0.3,0-0.6,0.2-0.8,0.3l-5.1,5.1V216c0-0.6-0.5-1.1-1.1-1.1
		s-1.1,0.5-1.1,1.1v6.8l-5.1-5.1c-0.2-0.2-0.5-0.3-0.8-0.3s-0.6,0.2-0.8,0.3c-0.5,0.5-0.5,1.1,0,1.6l6.7,6.7v5.4l-5.1-5.1
		c-0.2-0.2-0.5-0.3-0.8-0.3s-0.6,0.2-0.8,0.3c-0.5,0.5-0.5,1.1,0,1.6l6.7,6.7v5.4l-5.1-5.1c-0.2-0.2-0.5-0.3-0.8-0.3
		s-0.6,0.2-0.8,0.3c-0.5,0.5-0.5,1.1,0,1.6l6.7,6.7v9l-7.1,7.6l-10.2,2.5l-7.6-4.3l-2.5-9.2c-0.2-0.5-0.6-0.8-1.1-0.8
		c-0.2,0-0.2,0-0.3,0c-0.6,0.2-0.9,0.8-0.8,1.4l1.9,7l-4.7-2.6l-2.5-9.2c-0.2-0.5-0.6-0.8-1.1-0.8c-0.2,0-0.2,0-0.3,0
		c-0.6,0.2-0.9,0.8-0.8,1.4l1.9,7l-4.7-2.6l-2.5-9.2c-0.2-0.5-0.6-0.8-1.1-0.8c-0.2,0-0.2,0-0.3,0c-0.6,0.2-0.9,0.8-0.8,1.4l1.9,7
		l-5.9-3.4c-0.2-0.2-0.3-0.2-0.6-0.2s-0.8,0.2-0.9,0.6c-0.3,0.5-0.2,1.2,0.5,1.6l5.9,3.4l-7,1.9c-0.6,0.2-0.9,0.8-0.8,1.4
		s0.8,0.9,1.4,0.8l9-2.5l4.7,2.6l-7,1.9c-0.6,0.2-0.9,0.8-0.8,1.4s0.8,0.9,1.4,0.8l9.2-2.5l4.7,2.6l-7,1.9c-0.6,0.2-0.9,0.8-0.8,1.4
		s0.8,0.9,1.4,0.8l9.2-2.5l7.8,4.5l2.9,9.9l-2.9,9.6l-7.9,4.5l-9-2.5c-0.2,0-0.2,0-0.3,0c-0.5,0-0.9,0.3-1.1,0.8
		c-0.2,0.6,0.2,1.2,0.8,1.4l7,1.9l-4.8,2.6l-9-2.5c-0.2,0-0.2,0-0.3,0c-0.5,0-0.9,0.3-1.1,0.8c-0.2,0.6,0.2,1.2,0.8,1.4l7,1.9
		l-4.8,2.6l-9-2.5c-0.3-0.2-0.5-0.2-0.5-0.2c-0.5,0-0.9,0.3-1.1,0.8c-0.2,0.6,0.2,1.2,0.8,1.4l7,1.9l-6,3.4
		c-0.5,0.3-0.8,0.9-0.5,1.6c0.3,0.5,0.9,0.8,1.6,0.5l6-3.4l-1.9,7c-0.2,0.6,0.2,1.2,0.8,1.4c0.6,0.2,1.2-0.2,1.4-0.8l2.5-9l4.8-2.6
		l-1.9,7c-0.2,0.6,0.2,1.2,0.8,1.4c0.6,0.2,1.2-0.2,1.4-0.8l2.5-9l4.8-2.6l-1.9,7c-0.2,0.6,0.2,1.2,0.8,1.4c0.6,0.2,1.2-0.2,1.4-0.8
		l2.5-9l7.4-4.2l10.4,2.5l7.1,7.6v8.2l-6.7,6.7c-0.5,0.5-0.5,1.1,0,1.6c0.5,0.5,1.1,0.5,1.6,0l5.1-5.1v5.4l-6.7,6.7
		c-0.5,0.5-0.5,1.1,0,1.6c0.5,0.5,1.1,0.5,1.6,0l5.1-5.1v5.4l-6.7,6.7c-0.5,0.5-0.5,1.1,0,1.6c0.5,0.5,1.1,0.5,1.6,0l5.1-5.1v6.8
		c0,0.6,0.5,1.1,1.1,1.1s1.1-0.5,1.1-1.1v-6.8l5.1,5.1c0.5,0.5,1.1,0.5,1.6,0c0.5-0.5,0.5-1.1,0-1.6l-6.7-6.7v-5.4l5.1,5.1
		c0.5,0.5,1.1,0.5,1.6,0c0.5-0.5,0.5-1.1,0-1.6l-6.7-6.7v-5.4l5.1,5.1c0.5,0.5,1.1,0.5,1.6,0s0.5-1.1,0-1.6l-6.7-6.7v-8.8l7.1-7.6
		l10.1-2.3l7.6,4.5l2.5,9.2c0.2,0.6,0.8,0.9,1.4,0.8c0.6-0.2,0.9-0.8,0.8-1.4l-1.9-7l4.7,2.8l2.5,9.2c0.2,0.6,0.8,0.9,1.4,0.8
		c0.6-0.2,0.9-0.8,0.8-1.4l-1.9-7l4.7,2.8l2.5,9.2c0.2,0.6,0.8,0.9,1.4,0.8c0.6-0.2,0.9-0.8,0.8-1.4l-1.9-7l5.9,3.4
		c0.5,0.3,1.2,0.2,1.6-0.5c0.3-0.5,0.2-1.2-0.5-1.6l-5.9-3.4l7-1.9c0.6-0.2,0.9-0.8,0.8-1.4c-0.2-0.5-0.6-0.8-1.1-0.8
		c-0.2,0-0.2,0-0.3,0l-9.2,2.5l-4.7-2.8l7-1.9c0.6-0.2,0.9-0.8,0.8-1.4c-0.2-0.5-0.6-0.8-1.1-0.8c-0.2,0-0.2,0-0.3,0l-9.2,2.5
		l-4.7-2.8l7-1.9c0.6-0.2,0.9-0.8,0.8-1.4c-0.2-0.5-0.6-0.8-1.1-0.8c-0.2,0-0.2,0-0.3,0l-9.2,2.5l-7.6-4.3l-2.9-10.1l2.9-9.9
		l7.8-4.5l9.2,2.5c0.6,0.2,1.2-0.2,1.4-0.8c0.2-0.6-0.2-1.2-0.8-1.4l-7-1.9l4.7-2.6l9.2,2.5c0.6,0.2,1.2-0.2,1.4-0.8
		c0.2-0.6-0.2-1.2-0.8-1.4l-7-1.9l4.7-2.6l9.2,2.5c0.6,0.2,1.2-0.2,1.4-0.8C1693.4,252.3,1693.1,251.7,1692.5,251.5z M1626.1,274.3
		c0-0.2,0-0.5,0-0.6l-2.3-7.9l10.9,6.2c-0.3,0.6-0.3,1.4-0.3,2.2s0.2,1.4,0.3,2l-10.7,6L1626.1,274.3z M1639.3,292.8l-5.7-6.2
		c-0.2-0.2-0.3-0.3-0.6-0.3l-8.4-2l11-6.2c0.9,1.1,2.2,1.9,3.7,2.2V292.8z M1639.4,268c-1.6,0.3-2.8,1.1-3.7,2.2l-10.9-6.2l8.2-2.2
		c0.2,0,0.5-0.2,0.6-0.3l5.7-6V268z M1641.6,255.2l5.7,6.2c0.2,0.2,0.3,0.3,0.6,0.3l8.2,2l-10.9,6.2c-0.9-1.1-2.2-1.9-3.7-2.2V255.2
		z M1647.8,286.1c-0.2,0-0.5,0.2-0.6,0.3l-5.7,6v-12.6c1.4-0.3,2.8-1.1,3.7-2.2l10.9,6.2L1647.8,286.1z M1654.8,273.7
		c0,0.2,0,0.5,0,0.6l2.5,8.1l-10.9-6.2c0.3-0.6,0.5-1.4,0.5-2.2c0-0.8-0.2-1.4-0.5-2.2l10.9-6.2L1654.8,273.7z"/>
	<path class="elementor-shape-fill ha-shape-divider" d="M1632.7,301.1l-2-8.2c-0.2-0.6-0.6-0.9-1.2-0.9c-0.2,0-0.2,0-0.3,0l-8.2,2c-0.6,0.2-1.1,0.8-0.9,1.4
		c0.2,0.6,0.8,1.1,1.4,0.9l7-1.7l1.7,7c0.2,0.6,0.8,1.1,1.4,0.9C1632.4,302.5,1632.9,301.8,1632.7,301.1z"/>
	<path class="elementor-shape-fill ha-shape-divider" d="M1623.1,300.5c-2.2,0-4,1.9-4,4c0,2.2,1.9,4,4,4c2.2,0,4-1.9,4-4C1627,302.4,1625.3,300.5,1623.1,300.5z M1623.1,306.4
		c-0.9,0-1.9-0.8-1.9-1.9c0-0.9,0.8-1.9,1.9-1.9c0.9,0,1.9,0.8,1.9,1.9C1624.8,305.6,1624.1,306.4,1623.1,306.4z"/>
	<path class="elementor-shape-fill ha-shape-divider" d="M1618.8,308.9c-1.9,0-3.3,1.4-3.3,3.3c0,1.9,1.4,3.3,3.3,3.3c1.9,0,3.3-1.4,3.3-3.3C1622,310.5,1620.5,308.9,1618.8,308.9z
		 M1618.8,313.2c-0.6,0-1.1-0.5-1.1-1.1s0.5-1.1,1.1-1.1c0.6,0,1.1,0.5,1.1,1.1C1619.7,312.8,1619.2,313.2,1618.8,313.2z"/>
	<path class="elementor-shape-fill ha-shape-divider" d="M1661.8,295.6c0.2-0.6-0.3-1.2-0.9-1.4l-8.1-2c-0.2,0-0.2,0-0.3,0c-0.6,0-1.1,0.3-1.2,0.9l-2,8.2c-0.2,0.6,0.3,1.2,0.9,1.4
		c0.6,0.2,1.2-0.3,1.4-0.9l1.7-7l7,1.7C1661,296.6,1661.6,296.2,1661.8,295.6z"/>
	<path class="elementor-shape-fill ha-shape-divider" d="M1663,304.6c0-2.2-1.9-4-4-4c-2.2,0-4,1.9-4,4c0,2.2,1.9,4,4,4C1661.1,308.6,1663,306.7,1663,304.6z M1659,306.4
		c-0.9,0-1.9-0.8-1.9-1.9c0-0.9,0.8-1.9,1.9-1.9c1.1,0,1.9,0.8,1.9,1.9S1660,306.4,1659,306.4z"/>
	<path class="elementor-shape-fill ha-shape-divider" d="M1663.3,308.9c-1.9,0-3.3,1.4-3.3,3.3c0,1.9,1.4,3.3,3.3,3.3c1.9,0,3.3-1.4,3.3-3.3
		C1666.6,310.5,1665.2,308.9,1663.3,308.9z M1663.3,313.2c-0.6,0-1.1-0.5-1.1-1.1s0.5-1.1,1.1-1.1c0.6,0,1.1,0.5,1.1,1.1
		S1663.9,313.2,1663.3,313.2z"/>
	<path class="elementor-shape-fill ha-shape-divider" d="M1651.8,246.5c-0.2-0.6-0.8-1.1-1.4-0.9c-0.6,0.2-1.1,0.8-0.9,1.4l1.9,8.2c0.2,0.6,0.6,0.9,1.2,0.9c0.2,0,0.2,0,0.3,0
		l8.1-2c0.6-0.2,1.1-0.8,0.9-1.4c-0.2-0.6-0.8-1.1-1.4-0.9l-7,1.7L1651.8,246.5z"/>
	<path class="elementor-shape-fill ha-shape-divider" d="M1654.9,243.6c0,2.3,1.9,4,4,4c2.2,0,4-1.9,4-4s-1.9-4-4-4C1656.8,239.6,1654.9,241.4,1654.9,243.6z M1660.8,243.8
		c0,0.9-0.8,1.9-1.9,1.9c-1.1,0-1.9-0.8-1.9-1.9c0.2-1.1,0.9-1.9,1.9-1.9C1659.9,241.9,1660.8,242.7,1660.8,243.8z"/>
	<path class="elementor-shape-fill ha-shape-divider" d="M1666.6,236c0-1.9-1.4-3.3-3.3-3.3c-1.9,0-3.3,1.4-3.3,3.3c0,1.9,1.4,3.3,3.3,3.3C1665.2,239.3,1666.6,237.9,1666.6,236z
		 M1662.2,236c0-0.6,0.5-1.1,1.1-1.1c0.6,0,1.1,0.5,1.1,1.1s-0.5,1.1-1.1,1.1C1662.7,237.1,1662.2,236.6,1662.2,236z"/>
	<path class="elementor-shape-fill ha-shape-divider" d="M1621.1,254.1l8.2,2c0.2,0,0.2,0,0.3,0c0.6,0,1.1-0.3,1.2-0.9l2-8.1c0.2-0.6-0.3-1.2-0.9-1.4c-0.6-0.2-1.2,0.3-1.4,0.9
		l-1.7,7l-7-1.7c-0.8-0.3-1.6,0-1.7,0.8C1620,253.4,1620.5,254,1621.1,254.1z"/>
	<path class="elementor-shape-fill ha-shape-divider" d="M1623.1,247.6c2.2,0,4-1.9,4-4s-1.9-4-4-4c-2.3,0.2-4,1.9-4,4C1619.1,245.8,1621,247.6,1623.1,247.6z M1623.1,241.9
		c0.9,0,1.9,0.8,1.9,1.9c0,0.9-0.8,1.9-1.9,1.9c-0.9,0-1.9-0.8-1.9-1.9C1621.3,242.7,1622,241.9,1623.1,241.9z"/>
	<path class="elementor-shape-fill ha-shape-divider" d="M1622,236c0-1.9-1.4-3.3-3.3-3.3c-1.9,0-3.3,1.4-3.3,3.3c0,1.9,1.4,3.3,3.3,3.3C1620.6,239.3,1622,237.9,1622,236z
		 M1618.8,237.1c-0.6,0-1.1-0.5-1.1-1.1s0.5-1.1,1.1-1.1c0.6,0,1.1,0.5,1.1,1.1S1619.4,237.1,1618.8,237.1z"/>
	<path class="elementor-shape-fill ha-shape-divider" d="M1611.6,281.4c0.5,0.5,1.2,0.5,1.7-0.2l5.6-6.2l0.2-0.2c0.3-0.5,0.2-1.1-0.3-1.4l-6.2-5.6c-0.5-0.5-1.2-0.5-1.7,0.2
		c-0.5,0.5-0.5,1.2,0.2,1.7l5.4,4.8l-4.8,5.4C1611,280.2,1611,281,1611.6,281.4z"/>
	<path class="elementor-shape-fill ha-shape-divider" d="M1606.1,278.5c1.1-0.3,1.9-0.9,2.3-2c0.5-0.9,0.6-2,0.3-3.1c-0.3-1.1-0.9-1.9-2-2.3c-0.6-0.3-1.2-0.5-1.9-0.5
		c-0.5,0-0.8,0-1.2,0.2c-1.1,0.3-1.9,0.9-2.3,2c-1.1,2-0.3,4.3,1.7,5.4C1604,278.8,1605.1,278.8,1606.1,278.5z M1603.4,273.8
		c0.2-0.5,0.6-0.8,1.1-0.9c0.5-0.2,0.9-0.2,1.4,0.2c0.5,0.2,0.8,0.6,0.9,1.1s0.2,0.9-0.2,1.4c-0.2,0.5-0.6,0.8-1.1,0.9
		c-0.2,0-0.3,0.2-0.5,0.2c-0.3,0-0.6,0-0.8-0.2C1603.3,275.9,1603,274.8,1603.4,273.8z"/>
	<path class="elementor-shape-fill ha-shape-divider" d="M1597.1,278c0.8-0.3,1.6-0.8,1.9-1.6c0.8-1.6,0.3-3.6-1.4-4.5c-0.5-0.3-1.1-0.3-1.6-0.3c-1.2,0-2.3,0.6-2.9,1.7
		c-0.8,1.6-0.3,3.6,1.4,4.5C1595.4,278.2,1596.3,278.3,1597.1,278z M1595.2,274.5c0.3-0.5,0.9-0.8,1.4-0.5s0.8,0.9,0.5,1.4
		c-0.2,0.3-0.3,0.5-0.6,0.5c-0.2,0-0.2,0-0.3,0c-0.2,0-0.3,0-0.5-0.2C1595.2,275.6,1595,274.9,1595.2,274.5z"/>
	<path class="elementor-shape-fill ha-shape-divider" d="M1670,268c-0.5-0.5-1.2-0.5-1.7-0.2l-6.2,5.6c-0.5,0.3-0.5,0.9-0.3,1.4l0.2,0.2l5.6,6.2c0.5,0.5,1.2,0.5,1.7,0.2
		c0.5-0.3,0.6-1.2,0.2-1.7l-4.8-5.4l5.4-4.8C1670.4,269.2,1670.4,268.4,1670,268z"/>
	<path class="elementor-shape-fill ha-shape-divider" d="M1677,270.9c-0.3-0.2-0.8-0.2-1.2-0.2c-0.6,0-1.2,0.2-1.9,0.5c-0.9,0.5-1.7,1.4-2,2.3c-0.3,1.1-0.2,2.2,0.3,3.1
		c0.5,0.9,1.4,1.7,2.3,2c1.1,0.3,2.2,0.2,3.1-0.3c2-1.1,2.6-3.4,1.7-5.4C1678.8,271.8,1678,271.2,1677,270.9z M1676.6,276.3
		c-0.5,0.2-0.9,0.3-1.4,0.2c-0.5-0.2-0.8-0.5-1.1-0.9c-0.2-0.5-0.3-0.9-0.2-1.4c0.2-0.5,0.5-0.8,0.9-1.1c0.9-0.5,2-0.2,2.5,0.8
		C1677.9,274.8,1677.6,275.9,1676.6,276.3z"/>
	<path class="elementor-shape-fill ha-shape-divider" d="M1685.5,271.8c-0.3-0.2-0.6-0.2-0.9-0.2c-0.5,0-1.1,0.2-1.6,0.3c-1.6,0.8-2.2,2.8-1.4,4.5c0.8,1.6,2.8,2.2,4.5,1.4
		c1.6-0.8,2.2-2.8,1.4-4.5C1687,272.6,1686.4,272,1685.5,271.8z M1685.2,275.9c-0.2,0.2-0.3,0.2-0.5,0.2c-0.3,0-0.8-0.2-0.9-0.6
		c-0.3-0.5-0.2-1.1,0.5-1.4c0.3-0.2,0.5-0.2,0.8-0.2c0.3,0.2,0.5,0.3,0.6,0.5C1685.8,274.9,1685.6,275.6,1685.2,275.9z"/>
	<path class="elementor-shape-fill ha-shape-divider" d="M166.9,147.1c-0.7-0.4-1.5-0.3-2.1,0.2l-3.2-1.8l2.5-0.7c0.4-0.1,0.6-0.5,0.5-0.9c-0.1-0.3-0.4-0.5-0.7-0.5
		c-0.1,0-0.1,0-0.2,0l-3.9,1.1l-2.9-1.6l5.6-1.6c0.4-0.1,0.6-0.5,0.5-0.9c-0.1-0.3-0.4-0.5-0.7-0.5c-0.1,0-0.1,0-0.2,0l-7,1.9
		l-2.8-1.6l2.5-0.7c0.4-0.1,0.6-0.5,0.5-0.9c-0.1-0.3-0.4-0.5-0.7-0.5c-0.1,0-0.1,0-0.2,0l-3.9,1.1l-3.1-1.8
		c0.8-1.7,1.3-3.5,1.4-5.5h2.1c0.3,1.8,1.9,3.2,3.8,3.2s3.5-1.4,3.8-3.2h2.2c0.3,0.7,1,1.2,1.7,1.2c1,0,1.9-0.8,1.9-1.9
		c0-1.1-0.8-1.9-1.9-1.9c-0.8,0-1.5,0.5-1.7,1.2h-2.2c-0.3-1.8-1.9-3.2-3.8-3.2s-3.5,1.4-3.8,3.2h-2.1c-0.1-2.1-0.7-4-1.6-5.7
		l3.1-1.8l3.9,1c0.4,0.1,0.8-0.1,0.9-0.5c0.1-0.4-0.1-0.8-0.5-0.9l-2.6-0.7l2.8-1.6l7,1.8c0.4,0.1,0.8-0.1,0.9-0.5
		c0.1-0.4-0.1-0.8-0.5-0.9l-5.6-1.4l2.8-1.7l3.9,1c0.4,0.1,0.8-0.1,0.9-0.5c0.1-0.4-0.1-0.8-0.5-0.9l-2.6-0.7l3.2-1.9
		c0.6,0.4,1.4,0.5,2.1,0.1c0.9-0.5,1.2-1.7,0.7-2.6c-0.5-0.9-1.7-1.2-2.6-0.7c-0.7,0.4-1,1.2-0.9,1.9l-3.2,1.9l0.7-2.6
		c0.1-0.4-0.1-0.8-0.5-0.9c-0.1,0-0.1,0-0.2,0c-0.3,0-0.6,0.2-0.7,0.5l-1,3.9l-2.8,1.7l1.4-5.6c0.1-0.4-0.1-0.8-0.5-0.9
		c-0.1,0-0.1,0-0.2,0c-0.3,0-0.6,0.2-0.7,0.5l-1.8,7l-2.8,1.6l0.7-2.6c0.1-0.4-0.1-0.8-0.5-0.9c-0.1,0-0.1,0-0.2,0
		c-0.3,0-0.6,0.2-0.7,0.5l-1,3.9l-3.1,1.8c-1.1-1.6-2.5-3-4.1-4l1-1.8c1.7,0.6,3.7-0.1,4.6-1.8c0.9-1.6,0.5-3.7-0.9-4.9l1.1-1.9
		c0.7,0.1,1.5-0.3,1.9-0.9c0.5-0.9,0.2-2.1-0.7-2.6s-2.1-0.2-2.6,0.7c-0.4,0.7-0.3,1.5,0.2,2.1l-1.1,1.9c-0.4-0.1-0.8-0.2-1.2-0.2
		c-1.4,0-2.7,0.7-3.4,2c-0.9,1.6-0.5,3.7,0.9,4.9l-1,1.8c-1.7-0.8-3.5-1.3-5.5-1.4v-3.5l2.9-2.9c0.3-0.3,0.3-0.7,0-1
		c-0.1-0.1-0.3-0.2-0.5-0.2c-0.2,0-0.4,0.1-0.5,0.2l-1.9,1.9v-3.2l5.1-5.1c0.3-0.3,0.3-0.7,0-1c-0.1-0.1-0.3-0.2-0.5-0.2
		s-0.4,0.1-0.5,0.2l-4.1,4.1V103l2.9-2.9c0.3-0.3,0.3-0.7,0-1c-0.1-0.1-0.3-0.2-0.5-0.2c-0.2,0-0.4,0.1-0.5,0.2l-1.9,1.9v-3.7
		c0.7-0.3,1.2-1,1.2-1.7c0-1-0.8-1.9-1.9-1.9c-1,0-1.9,0.8-1.9,1.9c0,0.8,0.5,1.5,1.2,1.7v3.7l-1.9-1.9c-0.1-0.1-0.3-0.2-0.5-0.2
		s-0.4,0.1-0.5,0.2c-0.3,0.3-0.3,0.7,0,1l2.9,2.9v3.3l-4.1-4.1c-0.1-0.1-0.3-0.2-0.5-0.2c-0.2,0-0.4,0.1-0.5,0.2
		c-0.3,0.3-0.3,0.7,0,1l5.1,5.1v3.2l-1.9-1.9c-0.1-0.1-0.3-0.2-0.5-0.2s-0.4,0.1-0.5,0.2c-0.3,0.3-0.3,0.7,0,1l2.9,2.9v3.5
		c-2,0.1-3.9,0.6-5.6,1.5l-1-1.8c0.6-0.5,1-1.2,1.2-1.9c0.3-1,0.1-2-0.4-2.9c-0.5-0.9-1.4-1.5-2.3-1.8c-0.3-0.1-0.7-0.1-1-0.1
		c-0.4,0-0.9,0.1-1.3,0.2l-1.1-1.9c0.5-0.6,0.5-1.4,0.1-2.1c-0.5-0.9-1.7-1.2-2.6-0.7c-0.9,0.5-1.2,1.7-0.7,2.6
		c0.4,0.7,1.2,1,1.9,0.9l1.1,1.9c-1.4,1.2-1.8,3.2-0.8,4.9c0.9,1.6,2.9,2.3,4.6,1.7l1,1.8c-1.6,1.1-3,2.5-4.1,4.1l-3-1.7l-1.1-3.9
		c-0.1-0.3-0.4-0.5-0.7-0.5c-0.1,0-0.1,0-0.2,0c-0.4,0.1-0.6,0.5-0.5,0.9l0.7,2.6l-2.8-1.6l-1.9-7c-0.1-0.3-0.4-0.5-0.7-0.5
		c-0.1,0-0.1,0-0.2,0c-0.4,0.1-0.6,0.5-0.5,0.9l1.5,5.6l-2.9-1.7l-1.1-3.9c-0.1-0.3-0.4-0.5-0.7-0.5c-0.1,0-0.1,0-0.2,0
		c-0.4,0.1-0.6,0.5-0.5,0.9l0.7,2.6l-3.2-1.8c0.1-0.7-0.2-1.5-0.9-1.9c-0.9-0.5-2.1-0.2-2.6,0.7c0,0.7,0.3,1.9,1.2,2.4
		c0.7,0.4,1.5,0.3,2.1-0.1l3.2,1.8l-2.6,0.7c-0.4,0.1-0.6,0.5-0.5,0.9c0.1,0.4,0.5,0.6,0.9,0.5l3.9-1l2.9,1.7L108,121
		c-0.4,0.1-0.6,0.5-0.5,0.9c0.1,0.4,0.5,0.6,0.9,0.5l7-1.9l2.8,1.6l-2.6,0.7c-0.4,0.1-0.6,0.5-0.5,0.9c0.1,0.4,0.5,0.6,0.9,0.5
		l3.9-1.1l3,1.7c-0.9,1.8-1.5,3.8-1.5,5.9h-2c-0.2-0.8-0.5-1.5-1.1-2c-0.7-0.7-1.7-1.1-2.7-1.1c0,0,0,0-0.1,0c-1,0-2,0.4-2.7,1.2
		c-0.5,0.6-0.9,1.3-1,2h-2.2c-0.3-0.7-1-1.2-1.8-1.1c-1,0-1.9,0.9-1.9,1.9s0.9,1.9,1.9,1.9c0.8,0,1.5-0.5,1.7-1.2h2.2
		c0.4,1.8,1.9,3.1,3.9,3.1c1,0,2-0.4,2.7-1.2c0.5-0.6,0.9-1.3,1-2h2c0.1,1.9,0.6,3.7,1.4,5.3l-3,1.7l-3.9-1.1c-0.1,0-0.1,0-0.2,0
		c-0.3,0-0.6,0.2-0.7,0.5c-0.1,0.4,0.1,0.8,0.5,0.9l2.5,0.7l-2.8,1.6l-7-1.9c-0.1,0-0.1,0-0.2,0c-0.3,0-0.6,0.2-0.7,0.5
		c-0.1,0.4,0.1,0.8,0.5,0.9l5.6,1.6l-2.9,1.6l-3.9-1.1c-0.1,0-0.1,0-0.2,0c-0.3,0-0.6,0.2-0.7,0.5c-0.1,0.4,0.1,0.8,0.5,0.9l2.5,0.7
		l-3.2,1.8c-0.6-0.5-1.4-0.6-2.1-0.2c-0.9,0.5-1.2,1.7-0.7,2.6c0.5,0.9,1.7,1.2,2.6,0.7c0.7-0.4,1-1.1,0.9-1.9l3.2-1.8l-0.7,2.5
		c-0.1,0.4,0.1,0.8,0.5,0.9c0.4,0.1,0.8-0.1,0.9-0.5l1.1-3.9l2.9-1.6l-1.6,5.6c-0.1,0.4,0.1,0.8,0.5,0.9c0.4,0.1,0.8-0.1,0.9-0.5
		l1.9-7l2.8-1.6l-0.7,2.5c-0.1,0.4,0.1,0.8,0.5,0.9c0.4,0.1,0.8-0.1,0.9-0.5l1.1-3.9l3-1.7c1.1,1.7,2.6,3.2,4.3,4.3l-1,1.8
		c-0.4-0.1-0.8-0.2-1.2-0.2c-1.3,0-2.7,0.7-3.4,2c-0.5,0.9-0.6,1.9-0.4,2.9c0.2,0.8,0.6,1.4,1.2,1.9l-1.1,1.9
		c-0.7-0.1-1.5,0.2-1.9,0.9c-0.5,0.9-0.2,2.1,0.7,2.6c0.9,0.5,2.1,0.2,2.6-0.7c0.4-0.7,0.3-1.5-0.2-2.1l1.1-1.9
		c1.7,0.6,3.7-0.1,4.6-1.7c0.9-1.6,0.5-3.7-0.9-4.9l1-1.8c1.7,0.8,3.6,1.4,5.5,1.4v3.5l-2.9,2.9c-0.3,0.3-0.3,0.7,0,1s0.7,0.3,1,0
		l1.9-1.9v3.2l-5.1,5.1c-0.3,0.3-0.3,0.7,0,1c0.3,0.3,0.7,0.3,1,0l4.1-4.1v3.2l-2.9,2.9c-0.3,0.3-0.3,0.7,0,1c0.3,0.3,0.7,0.3,1,0
		l1.9-1.9v3.7c-0.7,0.3-1.2,1-1.2,1.7c0,1,0.8,1.9,1.9,1.9c1,0,1.9-0.8,1.9-1.9c0-0.8-0.5-1.5-1.2-1.7v-3.7l1.9,1.9
		c0.3,0.3,0.7,0.3,1,0c0.3-0.3,0.3-0.7,0-1l-2.9-2.9v-3.3l4.1,4.1c0.3,0.3,0.7,0.3,1,0c0.3-0.3,0.3-0.7,0-1l-5.1-5.1v-3.2l1.9,1.9
		c0.3,0.3,0.7,0.3,1,0c0.3-0.3,0.3-0.7,0-1l-2.9-2.9v-3.5c2-0.1,3.9-0.6,5.7-1.5l1.1,1.8c-0.6,0.5-1,1.2-1.2,1.9
		c-0.3,1-0.1,2,0.4,2.9c0.5,0.9,1.4,1.5,2.4,1.8c0.8,0.2,1.6,0.2,2.3-0.1l1.1,1.9c-0.5,0.6-0.5,1.4-0.1,2.1c0.5,0.9,1.7,1.2,2.6,0.7
		s1.2-1.7,0.7-2.6c-0.4-0.7-1.2-1-1.9-0.9l-1.1-1.9c0.6-0.5,1-1.2,1.2-1.9c0.3-1,0.1-2-0.4-2.9c-0.7-1.2-2-1.9-3.3-1.9
		c-0.4,0-0.9,0.1-1.3,0.2l-1.1-1.8c1.7-1.1,3-2.5,4.1-4.2l3.1,1.8l1.1,3.9c0.1,0.4,0.5,0.6,0.9,0.5c0.4-0.1,0.6-0.5,0.5-0.9
		l-0.7-2.5l2.8,1.6l1.9,7c0.1,0.4,0.5,0.6,0.9,0.5c0.4-0.1,0.6-0.5,0.5-0.9l-1.6-5.6l2.9,1.6l1.1,3.9c0.1,0.4,0.5,0.6,0.9,0.5
		c0.4-0.1,0.6-0.5,0.5-0.9l-0.7-2.5l3.2,1.8c-0.1,0.7,0.3,1.5,0.9,1.9c0.9,0.5,2.1,0.2,2.6-0.7C168.1,148.8,167.8,147.6,166.9,147.1
		z M155.1,128.7c1.1,0,2,0.7,2.3,1.7h-4.6C153,129.4,154,128.7,155.1,128.7z M157.4,131.9c-0.3,1-1.2,1.7-2.3,1.7
		c-1.1,0-2-0.7-2.3-1.7H157.4z M146.8,112.3c0.7,0.7,0.8,1.9,0.3,2.8c-0.5,1-1.6,1.4-2.6,1.2L146.8,112.3z M142.9,112.7
		c0.5-1,1.6-1.4,2.6-1.2l-2.3,4C142.5,114.8,142.3,113.7,142.9,112.7z M113.8,129.8c0.5-0.5,1.1-0.7,1.7-0.7c0.7,0,1.3,0.2,1.7,0.7
		c0.3,0.3,0.5,0.6,0.6,1l-4.6,0.1C113.3,130.4,113.5,130.1,113.8,129.8z M117.3,133.2c-0.5,0.5-1.1,0.7-1.7,0.7
		c-1.1,0-2-0.7-2.3-1.7l4.6-0.1C117.7,132.6,117.5,132.9,117.3,133.2z M125.4,116.5c-0.8,0-1.7-0.4-2.1-1.2
		c-0.3-0.6-0.4-1.2-0.2-1.9c0.1-0.4,0.3-0.7,0.6-1l2.3,4C125.7,116.4,125.6,116.5,125.4,116.5z M127.1,115.6l-2.3-4
		c0.4,0,0.8,0,1.2,0.1c0.6,0.2,1.2,0.6,1.5,1.1c0.3,0.6,0.4,1.2,0.2,1.8C127.6,115,127.4,115.3,127.1,115.6z M122.7,131.1
		c0-2,0.5-3.9,1.4-5.6l3.4,2l1.1,3.7l-1.1,3.5l-3.5,2C123.2,135,122.7,133.1,122.7,131.1z M123.7,149.9c-0.2-0.2-0.4-0.5-0.5-0.9
		c-0.2-0.6-0.1-1.3,0.2-1.9c0.5-1,1.6-1.4,2.6-1.2L123.7,149.9z M127.6,149.5c-0.4,0.8-1.3,1.2-2.1,1.2c-0.2,0-0.3,0-0.5-0.1l2.3-4
		C128,147.4,128.2,148.6,127.6,149.5z M134.5,143.7c-4-0.3-7.6-2.5-9.8-5.8l3.4-1.9l3.8,0.9l2.6,2.8V143.7z M134.6,122.7l-2.6,2.8
		l-3.6,0.9l-3.5-2c2-3.3,5.6-5.5,9.7-5.7V122.7z M145.9,145.9c0.6,0.2,1.2,0.6,1.5,1.1c0.3,0.6,0.4,1.2,0.3,1.8
		c-0.1,0.4-0.3,0.7-0.6,1l-2.3-4C145.1,145.8,145.5,145.8,145.9,145.9z M142.8,147.7c0.1-0.4,0.3-0.7,0.6-1l2.3,4
		c-0.1-0.1-0.3,0-0.5,0c-0.2,0-0.4,0-0.6-0.1c-0.6-0.2-1.2-0.6-1.5-1.1C142.8,148.9,142.7,148.3,142.8,147.7z M135.9,118.8
		c4.1,0.1,7.6,2.2,9.7,5.4l-3.5,2.1l-3.6-0.8l-2.6-2.7V118.8z M136,143.6v-4.1l2.5-2.7l3.8-0.9l3.4,1.9
		C143.7,141.1,140.1,143.4,136,143.6z M146.4,136.6l-3.6-2l-1-3.5l1.1-3.7l3.4-2c0.9,1.7,1.4,3.7,1.4,5.7S147.2,134.9,146.4,136.6z"
		/>
	<path class="elementor-shape-fill ha-shape-divider" d="M3611.7,78.6c-0.6,0.9-1.5,2.2-2.8,4.8c-0.5,1-1,1.9-1.5,2.9c-6.6-11.1-19.4-13.4-6.2-32.1c1.5-2.1,1.9-4.8,0.9-7.2
		c-3.9-10-5.9-23.7-6.8-31.1c-0.4-3.5-1.6-6.8-3.6-9.8l-0.9-1.4c-4.2-3.3-12.5-1-12.5-1l8.2,7.8c1.3,1.2,2.3,2.7,2.8,4.4
		c4.6,13.5,3.6,31,3.6,31s-14.4-24.1-18.2-32C3572,9.3,3563,11,3563,11l4.8,4.1c1.2,1,2.2,2.2,2.9,3.6l10.5,20.4
		c1.7,3.3,1.9,7.2,0.6,10.6l-8.7,22.4c-12-13.7-44.7-7.4-44.7-7.4c1.3-7.4-4.2-25.8-4.2-25.8l2-29.1c0.1-1.4-0.1-2.7-0.6-4l-0.5-1.3
		c-1-2.6-3.5-4.3-6.3-4.4l-5.1-0.1l3.6,4.9c1.2,1.7,1.9,3.8,1.9,5.9l-0.1,19.7l-2.8,6c-0.6,1.2-0.9,2.5-1,3.9
		c-1.3,14.2-4.5,19-4.5,19c-3.3,2.6-6.6,5.4-9.8,8.2c-4-1.8-8.9-3.6-14.7-5.3l-16.5-11.6c0,0-11.4-23.7-8.7-32l1.4-1.8
		c1.2-1.5,1-3.7-0.3-5l-5.4-5.3c0,0-1.2,3.9,0,10.7c0,0-2.7,18.4,6.5,34.6c6.1,10.8,16.1,21.7,23.8,28.5c-3.1,2.9-6.2,5.8-8.7,9.3
		c-2.1,3-3.7,6.3-4.8,9.8c-1.2,4-1.6,8.3-2.3,12.5c-1.2,6.8-2,13.8-1.2,20.7c0.4,3.7,1,7.5,2.3,11c0.7,7.8-3.4,1.7-13.2,6
		c-9.8,4.2-6.6,11-6.6,11c7.4-3.1,16.6,1.4,21.8-6.3c0.2,0.7,0.6,1.2,1.1,1.7c-0.8,0.6-1.6,1-2.6,1.4c-1,0.4-2,0.8-3.1,1.2
		c-2.1,0.7-4.5,1.4-6.9,2.3c-2.4,1-4.7,2.1-6.8,3.4c-2.2,1.3-4.2,2.8-6.2,4.5c-1,0.8-1.9,1.7-2.8,2.6c-0.9,0.9-1.8,1.9-2.6,2.9
		c-0.7,0.9-1.3,1.8-1.9,2.8c-0.9,0.2-1.8,0.4-2.7,0.7c-1.2,0.4-2.5,0.8-3.7,1.4c-2.4,1.1-4.7,2.6-6.7,4.4c-2,1.9-3.6,4.1-4.8,6.4
		s-1.9,4.8-2.3,7.3c0.4,0.4,0.5,0.5,0.6,0.6c0.1,0.1,0.3,0.1,0.4-0.1c1.4-2.1,2.8-4.1,4.3-5.8c1.6-1.7,3.3-3.2,5.2-4.4
		c1.9-1.2,3.9-2.1,6-2.9c0.5-0.2,1-0.4,1.5-0.6c-0.1,0.6-0.2,1.3-0.3,1.9c-0.1,1.5,0,3,0.3,4.5c0.5,2.3,1.5,4.4,2.8,6.3
		c-0.9,0.9-1.6,1.8-2.4,2.9c-0.7,1-1.4,2.1-2,3.2c-1.2,2.3-2.1,4.8-2.5,7.4c-0.4,2.6-0.3,5.3,0.3,7.7c0.6,2.5,1.5,4.8,2.7,6.9
		c0.1,0.1,0.2,0.2,0.3,0.1c0.2,0,0.3-0.2,0.3-0.3c-0.2-2.4-0.4-4.7-0.2-7c0.1-2.3,0.5-4.4,1.2-6.4s1.7-3.9,2.8-5.7
		c0.6-0.9,1.2-1.8,1.8-2.8c0.4-0.7,0.9-1.4,1.4-2.1c1.1,1,2.3,1.9,3.5,2.6c2.6,1.6,5.3,2.8,8,3.7c-0.1,0.4,0,0.9,0.2,1.4v0.1
		c0.6,1.2,1.2,2.4,1.7,3.7c0.5,1.2,1,2.5,1.3,3.9c0.3,1.4,0.5,2.8,0.6,4.2c0.1,1.5,0,3-0.1,4.6c0,0.1,0,0.2,0.1,0.2
		c0.1,0.1,0.3,0.1,0.4-0.1c1-1.3,1.7-2.8,2.2-4.4s0.8-3.3,0.8-5s-0.2-3.5-0.8-5.1c-0.2-0.5-0.4-1-0.6-1.5c2.2,0.8,4.4,1.5,6.4,2.4
		c2,0.9,3.9,2,5.5,3.5c0.8,0.7,1.5,1.5,2.1,2.4c0.6,0.9,1.1,1.9,1.4,2.9c0.7,2.1,0.7,4.4-0.2,6.5l0.5,0.3c0.8-1,1.3-2.2,1.6-3.4
		c0.3-1.3,0.3-2.6,0.2-3.9c-0.2-1.3-0.5-2.6-1.1-3.8c-0.5-1.2-1.3-2.3-2.1-3.3c-1.7-2-3.8-3.6-5.9-4.9c-1.1-0.7-2.2-1.2-3.3-1.8
		c-1.1-0.5-2.2-1-3.3-1.5c-4.4-1.9-8.7-3.7-12.2-6.1c-3.4-2.4-6.2-5.7-6.9-9.3c-0.3-1.7-0.2-3.5,0.4-5.3c0.6-1.8,1.7-3.6,2.9-5.3
		c1.3-1.7,2.8-3.3,4.5-4.8c1.6-1.5,3.4-2.8,5.3-4c0.2-0.1,0.3-0.2,0.5-0.3c0.3,0.6,0.6,1.2,0.8,1.9c0.5,1.2,1,2.5,1.3,3.9
		c0.3,1.4,0.5,2.8,0.6,4.2c0.1,1.5,0,3-0.1,4.6c0,0.1,0,0.2,0.1,0.2c0.1,0.1,0.3,0.1,0.4-0.1c1-1.3,1.7-2.8,2.2-4.4
		c0.5-1.6,0.8-3.3,0.8-5c0-1.7-0.2-3.5-0.8-5.1c-0.3-0.9-0.7-1.7-1.1-2.5c0.4-0.2,0.8-0.4,1.2-0.6c2-0.9,4.2-1.6,6.6-2.5
		c1.2-0.5,2.4-1,3.5-1.6c1.2-0.6,2.4-1.3,3.5-2.2c0.8-0.6,1.6-1.4,2.3-2.2c1.9,0.2,3.5,0.2,3.5,0.2c0.6,0.4,1.2,0.8,1.7,1.1
		c0.4,1.5,1,2.8,1.7,4.1c0.5,0.8,1,1.5,1.6,2.3c-0.3,1.3-0.5,2.6-0.9,3.9c-0.4,1.4-0.9,2.8-1.5,4.2c-0.6,1.4-1.3,2.8-2.2,4.1
		s-1.9,2.6-3,3.9c-0.1,0.1-0.1,0.2-0.1,0.3c0,0.1,0.2,0.2,0.3,0.2c1.6-0.6,3.2-1.4,4.6-2.5c1.4-1.1,2.7-2.4,3.8-3.8
		c1.1-1.5,2-3.1,2.6-4.8c0.2-0.5,0.3-0.9,0.4-1.4c1.2,0.9,2.5,1.7,3.7,2.5c1.3,0.8,2.5,1.5,3.8,2.1c0.1,2.5,0.2,5,0.2,7.5
		c0,2.6-0.2,5.2-0.7,7.7l-0.4,1.9c-0.2,0.6-0.3,1.3-0.5,1.9s-0.4,1.2-0.6,1.9c-0.2,0.6-0.4,1.2-0.7,1.8c-1,2.5-2.3,4.8-3.8,7.2
		c-0.1,0.1-0.1,0.2,0,0.3c0.1,0.1,0.3,0.1,0.4,0c2.2-1.8,4.2-3.8,5.8-6.2c1.7-2.4,3-5,4-7.8c1-2.8,1.5-5.7,1.7-8.6
		c0.1-1.6,0.1-3.2-0.1-4.8c3.2,1.8,6.3,3.6,9.2,5.5c0,0,0,0,0,0.1c0.3,2,0.6,3.9,0.7,5.8c0.1,1.9,0.1,3.8-0.1,5.7
		c-0.3,1.9-0.8,3.8-1.5,5.6s-1.7,3.6-2.8,5.4c0,0.1,0,0.2,0,0.2c0.1,0.1,0.2,0.1,0.3,0c1.7-1.3,3.1-2.9,4.4-4.7
		c1.2-1.8,2.3-3.8,2.9-5.9c0.7-2.1,1-4.4,0.9-6.6c0-0.8-0.1-1.6-0.2-2.3c0.1,0.1,0.3,0.2,0.4,0.3c2.3,1.8,4.5,3.9,6.4,6.1
		c0,1.8,0.2,3.5,0.1,5.2c0,1.7-0.1,3.5-0.3,5.2c-0.3,1.7-0.6,3.5-1.2,5.2c-0.5,1.7-1.2,3.5-2,5.2c0,0.1,0,0.2,0,0.3
		c0.1,0.1,0.2,0.1,0.3,0c1.4-1.3,2.7-2.8,3.7-4.5c1.1-1.7,2-3.5,2.6-5.4c0.5-1.6,0.9-3.3,1.1-4.9c0.7,1.3,1.3,2.6,1.8,4
		c1.2,3.3,1.7,6.8,1.5,10.3c-0.1,1.8-0.4,3.5-0.9,5.2s-1.2,3.4-2.2,4.9l0.4,0.3c1.3-1.4,2.3-3,3.1-4.7s1.4-3.6,1.7-5.5
		c0.7-3.8,0.6-7.8-0.4-11.6c-1-3.8-2.7-7.4-4.8-10.7c-2.2-3.3-4.7-6.2-7.5-8.9c-1.4-1.3-2.8-2.5-4.2-3.7c0.9,0,1.8-0.1,2.7,0
		c1.7,0,3.4,0.2,5.1,0.6c1.7,0.3,3.4,0.8,5.2,1.4c0.1,0,0.2,0,0.3-0.1c0.1-0.1,0.1-0.3,0-0.4c-1.3-1.4-2.8-2.6-4.5-3.5
		c-1.7-1-3.5-1.7-5.4-2.2s-3.9-0.8-5.9-0.7c-0.5,0-1,0.1-1.5,0.1c-0.5,0.1-1,0.1-1.5,0.2c-0.2,0-0.4,0.1-0.6,0.1
		c-2.6-1.8-5.3-3.6-7.9-5.3c-1.5-1-3.1-2-4.5-3s-2.7-2-3.8-3.1c-0.4-0.4-0.7-0.8-1.1-1.1c4.2-0.2,7.9-1,11,1.2
		c-1.3-9.6-11.6-10.8-11.6-10.8c0.8-2.7,5.3-5,11-4.9c5.7,0.2,6-2.9,6-2.9c1.9-8-3.2-8.2-3.2-8.2c-1.1-3.9-4.9-2.6-4.9-2.6
		c-4.2,1.2-11,2.1-12.3-3.4c-0.3-1.5-0.2-3,0-4.5c0.9-5.7,3.1-9.3,9.2-9.4c5.5,0,11,1.5,16.5,1.2c11.3-0.6,24.4-1.9,34.5-0.5
		c6.8,0.9,13.6,2,20.4,3.3c15.3,2.9,24.5-1.6,29.7-6.6c3.1-0.5,7-4.9,8.5-7c2.7-3.5,4.3-7.9,4.4-12.3c0.1-5.3-1.8-10.3-3.7-15.2
		C3612.4,78.3,3611.9,78.3,3611.7,78.6z"/>
	<path class="elementor-shape-fill ha-shape-divider" d="M914.1,176.7c-5-2.5-8.9-6.7-10.7-12c-3.1-9-9-20.2-18.6-19.7c-1.8,0.1-4,0.3-6.6,0.5l7.9-9.8l17.9-2.2l-0.3-2.7l-19.4,2.4
		l-0.2-0.2l-0.2,0.2l-35.4,4.3l-0.3-0.1l-0.2,0.2l-48.8,6c-9.6,1.2-16.5,10-15.3,19.6c0.7,5.5,3.9,10.4,8.7,13.1l0.2,0.1l1.4-2.4
		l-0.2-0.1c-4-2.3-6.8-6.4-7.3-11c-1-8.1,4.8-15.5,12.9-16.5l11.7-1.4l10.1,7.1c-4.3,0.5-6.9,0.9-6.9,0.9
		c-8.7,1.1-14.7,9.2-13.1,17.9c1.4,7.4,8.1,12.7,15.6,12.4c5.7-0.3,10.4-3.6,12.8-8.2l0.5,0.7c0,0,0.5-1.6,1.8-3.8
		c2,2.6,4.9,5.6,8.1,8.5c-3.2,1.2-6.3,3.6-8.5,5.7c-0.1-0.1-0.3-0.1-0.4-0.1c-14.8,5.5-29.7,11.4-44.7,16.3
		c-6.3-1-12.6-2.3-18.7-3.6c-11.4-2.3-22.9-4.4-34.5-4.3c-2.4,0-4.8,0.2-7.2,0.3c-0.6-3.1-2-5.5-3.8-7.3h0.7c-0.9-4,4-6.6,8.7-12.2
		c3.3-3.9-0.2-15.1-2.6-21.7c-0.4-1.1-2-0.8-2,0.3l-0.1,13.5c0,0.8-0.5,1.6-1.3,1.9c-2.2,0.9-4,1.9-5.7,2.9c0.1-3.3-1.4-8-2.5-11
		c-0.2-0.7-1.2-0.5-1.3,0.2l-0.1,8.6c0,0.5-0.3,1-0.8,1.2c-8.2,3.5-10.2,7.7-10.7,9.9c-15.4-1.7-27.1,2.2-34.8,6.4
		c-0.2-2.7,0.2-6.2,2.2-9.3c0.2-0.3,0.2-0.8-0.1-1.1l-0.9-0.8c-0.4-0.3-1-0.3-1.3,0.1c-1.4,2.1-5.1,7.9-3.8,13.4
		c-1.1,0.7-2,1.4-2.8,2c-0.4,0-0.7-0.1-1.1-0.1c-1.3-0.1-2.6-0.2-3.9-0.3c-0.6-6,1.1-13.3,2.5-18.2c0.4-1.4-1.4-2.3-2.3-1.1
		c-4.5,6.2-5.5,13.3-5.2,19.1c-9.5-0.5-19.1-0.6-28.6-0.4c-0.3-4.1-1.9-7-4.1-9.1h0.7c-0.9-4,4-6.6,8.7-12.2
		c3.3-3.9-0.2-15.1-2.6-21.7c-0.4-1.1-2-0.8-2,0.3l-0.1,13.5c0,0.8-0.5,1.6-1.3,1.9c-2.2,0.9-4,1.9-5.7,2.9c0.1-3.3-1.4-8-2.5-11
		c-0.2-0.7-1.2-0.5-1.3,0.2l-0.1,8.6c0,0.5-0.3,1-0.8,1.2c-8.2,3.5-10.2,7.7-10.7,9.9c-15.4-1.7-27.1,2.2-34.8,6.4
		c-0.2-2.7,0.2-6.2,2.2-9.3c0.2-0.3,0.2-0.8-0.1-1.1l-0.9-0.8c-0.4-0.3-1-0.3-1.3,0.1c-1.4,2.1-5.1,7.9-3.8,13.4c-4.6,3-7,5.6-7,5.6
		c-2.2-6.4-0.1-16.1,1.7-22.2c0.4-1.4-1.4-2.3-2.3-1.1c-7,9.7-5.4,21.4-4,26.9c0.4,1.8,2.2,2.8,4,2.3l8.4-2.4
		c-0.9,0.5-1.7,1-2.3,1.6c-0.1,0-0.2,0-0.3,0.1c-4.2,0.8-8.4,1.9-12.5,3.1c-0.4,0-0.7,0-1.1,0c-7.7-0.1-15.6,0.4-23.3,1.6
		c1.2-4.9-1.6-13.9-3.6-19.5c-0.4-1.1-2-0.8-2,0.4l-0.1,13.5c0,0.8-0.5,1.6-1.3,1.9c-2.2,0.9-4,1.9-5.7,2.9c0.1-3.3-1.4-8-2.5-11
		c-0.3-0.7-1.2-0.5-1.3,0.2l-0.1,8.6c0,0.5-0.3,1-0.8,1.2c-8.2,3.5-10.2,7.7-10.7,9.9c-15.4-1.7-27.1,2.2-34.8,6.4
		c-0.2-2.7,0.2-6.2,2.2-9.3c0.2-0.3,0.2-0.8-0.1-1.1l-0.9-0.8c-0.4-0.3-1-0.3-1.3,0.1c-1.4,2.1-5.1,7.9-3.8,13.4c-4.6,3-7,5.6-7,5.6
		c-2.2-6.4-0.1-16.1,1.7-22.2c0.4-1.4-1.4-2.3-2.3-1.1c-7.3,10-5.7,21.7-4.3,27.2c0.4,1.8,2.2,2.8,4,2.3l8.4-2.4
		c-11.5,5.9,0.2,22.6,0.2,22.6c-6.6,0.6-10.5,3.4-12.5,5.6c-0.9,1-0.3,2.6,1.1,2.6c3.5,0.1,8.7,1.1,11.4,3.6c1.1,1,2.3,1.4,3.4,1.5
		c-1.2,1.2-2.1,2.7-1.8,4.5l1.6-0.3c-0.4-2,2.1-3.8,3.7-4.7c0.6,1.1,1.7,3.4,2.7,6.3c-1,1.9-3.2,5-4.8,5.2l0.2,1.6
		c2.1-0.3,4.1-2.9,5.2-4.6c0.5,2.2,0.8,4.7,0.6,7.2c-0.6-0.2-1.6-0.5-2.8-0.3c-1.2,0.1-2.7,0.7-4.3,1.9l1,1.3
		c3.3-2.6,5.6-1.4,5.8-1.2c-0.6,3.3-2.2,6.4-5.5,9l1,1.3c5.1-4,6.6-9.3,6.5-14.3c0.3-0.1,1.8-0.6,2.6,1.1l1.5-0.7
		c-0.9-2-2.5-2.3-3.8-2.2c-0.2,0-0.3,0.1-0.4,0.1c-0.5-5.3-2.6-9.9-3.7-12.1c6.4,0.1,11.3,3.3,14.6,9.4c-0.9,0.7-4.7,3.9-3.2,8
		l1.6-0.6c-1-2.7,1.5-5.1,2.5-5.9c2.6,5.6,3.1,11.4,3.1,11.4l1.7-0.1c0-0.2-0.9-11.5-7.6-18.5c0.3-0.3,2.2-2.4,5-0.6l0.9-1.4
		c-1.4-0.9-2.7-1.1-3.8-1c-1.5,0.2-2.7,1-3.4,1.8c-1.6-1.4-3.5-2.5-5.7-3.3l2.1,0.1c0.4,0,0.6-0.5,0.3-0.7c-1.4-1.3-4.3-4-6.7-6.4
		c-3.4-3.3-3.1-15.9-3.1-15.9c16.3-0.1,52.6-12.8,52.6-12.8c0-1.1-0.1-2.1-0.3-3c8-2.9,14.6-9.8,21.1-14.9c0.5-0.4,1-0.7,1.4-1.1
		c1.5-0.2,3.1-0.3,4.6-0.4c4.8-0.2,9.6,0,14.4,0.5c1.2,5.6,4.8,10.7,4.8,10.7c-6.6,0.6-10.5,3.4-12.5,5.6c-0.9,1-0.3,2.6,1.1,2.6
		c3.5,0.1,8.7,1.1,11.4,3.6c1.1,1,2.3,1.4,3.4,1.5c-1.2,1.2-2.1,2.7-1.8,4.5l1.6-0.3c-0.3-2,2.1-3.8,3.7-4.7
		c0.6,1.1,1.7,3.4,2.7,6.3c-1,1.9-3.2,5-4.8,5.2l0.2,1.6c2.1-0.3,4.1-2.9,5.2-4.6c0.5,2.2,0.8,4.7,0.6,7.2c-0.6-0.2-1.6-0.5-2.8-0.3
		c-1.2,0.1-2.7,0.7-4.3,1.9l1,1.3c3.3-2.6,5.6-1.4,5.8-1.2c-0.6,3.3-2.2,6.4-5.5,9l1,1.3c5.1-4,6.6-9.3,6.5-14.3
		c0.3-0.1,1.8-0.6,2.6,1.1l1.5-0.7c-0.9-2-2.5-2.3-3.8-2.2c-0.2,0-0.3,0.1-0.4,0.1c-0.5-5.3-2.6-9.9-3.7-12.1
		c6.4,0.1,11.3,3.3,14.6,9.4c-0.9,0.7-4.7,3.9-3.2,8l1.6-0.6c-1-2.7,1.5-5.1,2.5-5.9c2.6,5.6,3.1,11.4,3.1,11.4l1.7-0.1
		c0-0.2-0.9-11.5-7.6-18.5c0.3-0.3,2.2-2.4,5-0.6l0.9-1.4c-1.4-0.9-2.7-1.1-3.8-1c-1.5,0.2-2.7,1-3.4,1.8c-1.6-1.4-3.5-2.5-5.7-3.3
		l2.1,0.1c0.4,0,0.6-0.5,0.3-0.7c-1.4-1.3-4.3-4-6.7-6.4c-2.5-2.5-3-10.3-3.1-14c3.3,0.5,6.7,0.9,10,1.3c11.8,1.3,23.4,0.1,35.1-1.9
		c1.7-0.3,3.4-0.6,5.1-0.9c13.3,0.6,26.5,0.4,39.8-0.5c-2.1,7.2,4.9,17.2,4.9,17.2c-6.6,0.6-10.5,3.4-12.5,5.6
		c-0.9,1-0.3,2.6,1.1,2.6c3.5,0.1,8.7,1.1,11.4,3.6c1.1,1,2.3,1.4,3.4,1.5c-1.2,1.2-2.1,2.7-1.8,4.5l1.6-0.3c-0.4-2,2.1-3.8,3.7-4.7
		c0.6,1.1,1.7,3.4,2.7,6.3c-1,1.9-3.2,5-4.8,5.2l0.2,1.6c2.1-0.3,4.1-2.9,5.2-4.6c0.5,2.2,0.8,4.7,0.6,7.1c-0.6-0.2-1.6-0.5-2.8-0.3
		c-1.2,0.1-2.7,0.7-4.3,1.9l1,1.3c3.2-2.6,5.5-1.4,5.8-1.2c-0.6,3.3-2.2,6.4-5.5,9l1,1.3c5.1-4,6.6-9.3,6.5-14.3
		c0.3-0.1,1.8-0.6,2.6,1.1l1.5-0.7c-0.9-2-2.5-2.3-3.8-2.2c-0.2,0-0.3,0.1-0.4,0.1c-0.5-5.3-2.6-9.9-3.7-12.1
		c6.4,0.1,11.3,3.3,14.6,9.4c-0.9,0.7-4.7,3.9-3.2,8l1.6-0.6c-1-2.7,1.5-5.1,2.5-5.9c2.6,5.6,3.1,11.4,3.1,11.4l1.7-0.1
		c0-0.2-0.9-11.5-7.6-18.5c0.3-0.3,2.2-2.4,5-0.6l0.9-1.4c-1.4-0.9-2.7-1.1-3.8-1c-1.5,0.2-2.7,1-3.4,1.8c-1.6-1.4-3.5-2.5-5.7-3.3
		l2.1,0.1c0.4,0,0.6-0.5,0.3-0.7c-1.4-1.3-4.3-4-6.7-6.4c-3.4-3.3-3.1-15.9-3.1-15.9c5.4,0,12.9-1.5,20.6-3.3
		c10.1,2.5,20.1,5.4,30.6,6.1c11,0.8,22.1-0.2,32.9-2.3c4.5-0.9,9-1.9,13.5-3.1c5.5-0.5,11.1-1.3,16.6-2.4c1.8-0.4,3.5-0.7,5.2-1.1
		c14.7,1.9,29.5,1.9,43.4-4.1c1,1.8,3.7,3.1,7-1.3c2.4-3.3,7.6-3.5,11.7-3.1c1.3,2.7,3.9,7,8,7.7c0,0,0.7,5.2,2,6.2
		s10.5,9.5,15.4,7.2c4.9-2.3,9.8-8.2,8.8-10.2s-7.2,2.6-7.2,2.6s2.6-6.6-0.7-9.8c0,0,1.1-4.9-1.7-8.5c0.3-2.5,0-5,0-5
		c0.6-0.3,0.9-1.1,1.1-2.3c7.1,7.4,16.4,13.9,26.2,12.5C924,193.7,922.2,180.7,914.1,176.7z M523.9,202.1c0.3-0.4,0.6-0.9,0.8-1.4
		c7.1-1.1,14.4-1.5,21.7-1.5c-10.8,3.3-21.3,7.8-31.2,13.3C515.9,209.4,519.9,206.8,523.9,202.1z M519.7,219.8
		c-0.5,0.3-1.1,0.5-1.6,0.7c-0.6-2.4-1.8-4.2-3.2-5.8c4-2.4,8-4.6,12.4-6.2c3.8-1.4,7.8-2.3,11.8-2.9
		C532.8,210.6,526.9,216.3,519.7,219.8z M540.5,204.4c-2.6,0.3-5.2,0.7-7.7,1.3c-1.9,0.5-3.7,1-5.4,1.7c6.4-2.8,13.1-5.4,19.9-7.5
		c-1,0.6-2,1.2-3,1.8C543,202.6,541.7,203.5,540.5,204.4z M559.7,204.6c-2.6-0.3-5.1-0.5-7.6-0.6c-3.3-0.1-6.6,0-9.8,0.3
		c2.7-2,5.5-3.8,8.6-5c2.9,0.1,5.8,0.2,8.8,0.4C559.4,201.3,559.4,202.9,559.7,204.6z M559.8,198.8c-2.1-0.1-4.2-0.2-6.4-0.3
		c1.7-0.4,3.4-0.4,5.2-0.5c0.5,0,1-0.1,1.5-0.1C560.1,198.1,559.9,198.4,559.8,198.8z M560.8,196.8c-0.7,0-1.5,0.1-2.2,0.1
		c0.8-0.2,1.7-0.4,2.5-0.5C561,196.5,560.9,196.7,560.8,196.8z M661.4,193.2c-2.1,1.7-3.1,2.8-3.1,2.8c-0.3-1-0.6-2-0.7-3.1
		C658.8,193,660.1,193.1,661.4,193.2z M624,192.2c9.5-0.2,19-0.1,28.6,0.4c0.2,2.4,0.5,4.5,0.9,6.2c-4.8,0.9-9.7,1.7-14.5,2.6
		c-3.9-0.3-7.7-0.8-11.6-1.5c-5.7-1-11.4-2.2-17.1-3.3C618.2,194.2,624,192.2,624,192.2z M587.7,207.8c-5.5-0.3-10.9-1.1-16.3-1.8
		c0-0.6,0-1,0-1c4.5,0,10.6-1.1,17.1-2.5c9.5,1.1,18.8,2.2,27.7,2.7c0.5,0,0.9,0,1.4,0.1C607.6,207,597.7,208.4,587.7,207.8z
		 M621.5,204.5c-0.5,0-1,0-1.5-0.1c-9.6-0.5-19.2-1.5-28.8-2.6c5.9-1.4,11.9-3.1,17.2-4.7c5.3,1,10.6,2.1,15.9,3.1
		c3.8,0.7,7.6,1.3,11.5,1.7c-3.5,0.6-6.9,1.2-10.4,1.9C624,204.1,622.8,204.3,621.5,204.5z M661.8,204c-12,0.8-23.9,1.1-35.9,0.7
		c4.4-0.8,8.8-1.6,13.2-2.3c5.9,0.6,11.9,0.8,18,0.9c1.7,0,3.3,0.1,5,0.1C662,203.6,661.9,203.8,661.8,204z M662.5,202.4
		c-0.4,0-0.9,0-1.3,0c-6.3-0.1-12.5-0.2-18.7-0.7c3.5-0.6,7-1.3,10.5-1.9c0.3,0,0.5-0.1,0.7-0.1c0.5,1.7,2.2,2.7,3.9,2.2l8.4-2.4
		C664.4,200.3,663.3,201.3,662.5,202.4z M830,151.2c-1.6,0.2-3.1,0.4-4.5,0.5l-10.1-7l27.6-3.4L830,151.2z M725.7,198
		c0-0.7-0.1-1.3-0.1-1.9c0.1,0,0.3,0,0.6,0c12.4-0.9,24.6,0.9,36.7,3.2c6.8,1.3,13.9,2.8,21,4c-2.5,0.8-4.9,1.6-7.4,2.3
		c-2.2,0.2-4.5,0.4-6.8,0.4c-12.3,0.3-24.6-1.1-36.6-3.5c-4.1-0.8-8.1-1.8-12.2-2.9C723.9,198.6,725.7,198,725.7,198z M763.1,209.1
		c-11.3,2.6-23,4.2-34.6,3.8c-11.3-0.4-22-3.1-32.9-5.9c7.2-1.8,14.5-4,20-5.7c8.3,1.9,16.5,3.9,24.8,5.5c8.4,1.6,16.7,2.1,25.1,1.7
		C764.7,208.8,763.9,209,763.1,209.1z M770,207.4c-7.9,0.7-15.9,0.6-23.8-0.5c-9.7-1.4-19.3-3.8-28.8-6.1c0.5-0.2,1.1-0.4,1.6-0.5
		c2.1,0.6,4.2,1.1,6.3,1.6c11.5,2.7,23.2,4.6,35.1,5c4,0.2,8,0.1,12-0.1C771.6,207,770.8,207.2,770,207.4z M775.9,206.8
		c0.4-0.1,0.7-0.2,1.1-0.3c1-0.1,2-0.2,3-0.3C778.6,206.4,777.3,206.6,775.9,206.8z M781.6,205.1c1.4-0.4,2.9-0.9,4.3-1.4
		c0.7,0.1,1.5,0.2,2.2,0.4C785.9,204.4,783.8,204.8,781.6,205.1z M790.8,203.6c-1-0.1-2.1-0.3-3.1-0.5c14.2-4.7,28.1-10.2,42-15.4
		c-1.3,1.4-2.1,2.5-2.3,3c-0.2,0.8,0.3,2.1,1.3,2.8c-5.3,2.1-10.9,3.7-16.5,5.2c-2.4,0.5-4.9,1.1-7.3,1.7
		C800.2,201.6,795.5,202.6,790.8,203.6z M835.5,198.8c-0.1,0.3-0.1,0.6,0,0.9c-12.9,5.6-26.7,5.9-40.5,4.4c5-1.2,9.9-2.5,14.9-3.8
		c0.8-0.2,1.6-0.4,2.5-0.7c7.8-1.7,15.7-2.8,23.7-1.8C835.8,198.2,835.6,198.6,835.5,198.8z M836.8,197c-5.2-0.7-10.5-0.5-15.6,0.2
		c2.9-0.9,5.8-1.9,8.7-3.1c1.2,0.3,2.9-0.3,4.9-2.9c2.7-3.6,8.7-3.5,13-2.9c0.2,0.1,0.3,0.3,0.5,0.4
		C843.6,190.2,839,194.4,836.8,197z M836.4,150.4l11.7-8.9l16.5,5.6C855.6,148.1,845.4,149.3,836.4,150.4z M872.5,146.4l-18.7-6.4
		l26.9-3.3l-7.8,9.7C872.8,146.4,872.6,146.4,872.5,146.4z"/>
	<path class="elementor-shape-fill ha-shape-divider" d="M1055.5,0H1013c1.9,2,3.7,3.8,5.4,5.7c-2.2,0.2-4.6,0.5-7.1,0.8c3.5,3.2,6.5,6.2,9.2,9.3c-1.2,0.1-2.4,0.2-3.7,0.4
		c3.6,2.9,6.5,5.7,9.2,8.6c-2.1,0.2-4.4,0.4-6.8,0.7c6.8,6.2,10.9,11.5,15.4,20.1c4.6-8.9,8.7-14.9,15.4-20.1
		c-2.5-0.3-4.9-0.5-7.1-0.7c2.7-3.2,5.7-6,9.4-8.6c-1.4-0.2-2.8-0.3-4.2-0.4c2.8-3.3,6-6.3,9.6-9.2c-2.6-0.3-5.1-0.6-7.5-0.8
		C1051.8,3.7,1053.6,1.9,1055.5,0z"/>
	<path class="elementor-shape-fill ha-shape-divider" d="M1141.4,0h-62.3c3,3,5.8,6,8.4,8.9c-2,0.2-4,0.4-6.2,0.6c5.9,4.8,10.8,9.4,15.2,14.3c-3.5,0.3-7.3,0.7-11.3,1.1
		c11.3,10.2,18.1,19,25.5,33.4c7.6-14.8,14.4-24.6,25.5-33.4c-4.2-0.5-8.1-0.9-11.7-1.2c4.3-5.2,9.3-9.8,15.4-14.1
		c-2.4-0.3-4.7-0.5-6.9-0.7C1135.6,5.8,1138.4,2.9,1141.4,0z"/>
	<path class="elementor-shape-fill ha-shape-divider" d="M1251.7,26.4c-3.2-0.3-6.2-0.6-9.1-0.9c6.2-7.4,13.1-14,21.1-20.3c-5.8-0.7-11.3-1.3-16.6-1.8c1-1.1,1.9-2.2,2.9-3.4h-75.8
		c1,1.2,2.1,2.4,3.1,3.5c-4.9,0.5-10.1,1-15.5,1.7c7.6,6.9,14.3,13.5,20.3,20.4c-2.6,0.2-5.4,0.5-8.2,0.8c7.9,6.4,14.4,12.5,20.1,19
		c-4.7,0.4-9.6,0.9-15,1.5c14.9,13.6,24.1,25.3,33.8,44.3c10.2-19.6,19.1-32.7,33.8-44.3c-5.6-0.7-10.7-1.2-15.6-1.6
		C1237,38.2,1243.6,32.1,1251.7,26.4z"/>
	<path class="elementor-shape-fill ha-shape-divider" d="M1349.2,0h-89.5c3.6,3.5,7,6.8,10.2,10.1c-2.9,0.3-5.8,0.6-8.8,1c6.6,6,12.4,11.7,17.6,17.5c-3.9,0.4-8,0.8-12.4,1.3
		c6.1,5.5,11.4,10.8,16.1,16.2c-2.1,0.2-4.3,0.4-6.5,0.7c6.3,5.1,11.4,9.9,16,15.1c-3.7,0.3-7.7,0.7-12,1.2
		c11.9,10.8,19.2,20.1,26.9,35.3c8.1-15.6,15.2-26.1,26.9-35.3c-4.5-0.5-8.5-1-12.4-1.3c4.7-5.6,10-10.5,16.5-15.1
		c-2.5-0.3-4.9-0.5-7.3-0.7c5-5.8,10.5-11.1,16.9-16.1c-4.6-0.6-9-1-13.2-1.4c5.5-6.2,11.5-11.9,18.5-17.4c-3.4-0.4-6.6-0.8-9.8-1.1
		c2.6-2.7,5.4-5.4,8.4-8c4.7,4.5,9.2,8.9,13.3,13.1c-3.5,0.4-7.1,0.8-10.8,1.2c8.1,7.3,15.1,14.2,21.5,21.4c-4.8,0.5-9.8,1-15.1,1.6
		c7.4,6.7,13.9,13.2,19.7,19.8c-2.6,0.2-5.2,0.5-8,0.8c7.7,6.3,14,12.1,19.6,18.5c-4.6,0.4-9.4,0.8-14.6,1.5
		c14.5,13.2,23.4,24.6,32.9,43.1c9.9-19,18.6-31.8,32.9-43.1c-5.4-0.7-10.4-1.2-15.2-1.5c5.8-6.9,12.2-12.8,20.1-18.4
		c-3.1-0.3-6-0.6-8.9-0.9c6.1-7.1,12.8-13.6,20.6-19.7c-5.7-0.7-11-1.3-16.1-1.7c6.7-7.7,14-14.7,22.5-21.4c-4.1-0.5-8.1-0.9-12-1.3
		c5-5.2,10.4-10.1,16.3-15h-116.5H1349.2z"/>
	<path class="elementor-shape-fill ha-shape-divider" d="M1579.4,109.9c8.8-10.4,18.6-19.5,30.6-28c-4.7-0.5-9.2-1-13.5-1.4c9.2-10.8,19.4-20.6,31.3-29.9c-8.6-1-16.7-1.9-24.5-2.6
		c9.9-11.7,21.1-22.3,34-32.4c-6.3-0.8-12.3-1.4-18.2-2c4.5-4.6,9.1-9.1,14-13.6H1470c4.8,4.7,9.3,9.2,13.7,13.8
		c-5.3,0.5-10.7,1.1-16.4,1.8c12.3,11,22.9,21.6,32.7,32.5c-7.3,0.7-14.9,1.5-23,2.5c11.3,10.2,21.1,20,29.9,30.1
		c-3.9,0.4-7.9,0.8-12.1,1.2c11.7,9.5,21.2,18.4,29.8,28.1c-6.9,0.6-14.3,1.3-22.2,2.2c22.1,20,35.6,37.3,50,65.5
		c15-28.9,28.2-48.4,50-65.5C1594.1,111.2,1586.6,110.4,1579.4,109.9z"/>
	<path class="elementor-shape-fill ha-shape-divider" d="M1871.5,22.1c-8.8-1.1-17.2-2-25.4-2.8c6.4-6.6,13-13,20-19.3h-228.4c6.8,6.6,13.3,13.1,19.5,19.6
		c-7.4,0.8-15,1.6-22.9,2.5c17.1,15.4,32,30.1,45.6,45.3c-10.2,1-20.8,2.1-32,3.4c15.7,14.3,29.4,27.9,41.7,42
		c-5.4,0.5-11.1,1.1-16.9,1.7c16.2,13.3,29.6,25.7,41.5,39.2c-9.7,0.8-19.9,1.8-31,3.1c30.8,27.9,49.6,52.1,69.7,91.3
		c20.9-40.4,39.4-67.4,69.7-91.3c-11.5-1.4-22.1-2.5-32.1-3.2c12.3-14.5,25.9-27.2,42.6-39c-6.5-0.7-12.8-1.3-18.8-1.9
		c12.9-15,27.1-28.7,43.7-41.8c-12-1.5-23.3-2.7-34.2-3.7C1837.9,51,1853.4,36.2,1871.5,22.1z"/>
	<path class="elementor-shape-fill ha-shape-divider" d="M2226.9,0h-360.5c18.1,16.5,34.7,32.5,50,48.5c-10.1,1-20.4,2.2-31.1,3.4c23.3,21,43.6,41,62,61.6
		c-13.9,1.3-28.3,2.9-43.6,4.7c21.4,19.4,40,38,56.8,57.1c-7.4,0.7-15.1,1.4-23,2.3c22.1,18,40.3,35,56.5,53.3
		c-13.2,1-27.1,2.4-42.2,4.2c41.9,38,67.5,70.9,94.9,124.3c28.5-54.9,53.6-91.8,94.9-124.3c-15.7-1.9-30-3.4-43.7-4.4
		c16.7-19.8,35.2-37,58-53.1c-8.9-1-17.4-1.8-25.6-2.6c17.6-20.5,36.9-39.1,59.4-56.8c-16.3-2-31.7-3.6-46.5-5
		c19.2-21.9,40.3-42,64.9-61.2c-11.9-1.4-23.4-2.7-34.5-3.9C2189.9,31.3,2207.5,15.4,2226.9,0z"/>
	<path class="elementor-shape-fill ha-shape-divider" d="M2492.4,0h-257.7c10.6,9.9,20.6,19.6,29.9,29.4c-7.7,0.8-15.6,1.7-23.8,2.6c17.8,16,33.3,31.3,47.4,47.1
		c-10.6,1-21.6,2.2-33.3,3.6c16.4,14.8,30.5,29,43.4,43.6c-5.7,0.5-11.5,1.1-17.6,1.8c16.9,13.8,30.8,26.7,43.2,40.7
		c-10.1,0.8-20.7,1.9-32.2,3.2c32,29.1,51.6,54.1,72.5,94.9c21.8-42,41-70.1,72.5-94.9c-12-1.4-22.9-2.6-33.4-3.4
		c12.8-15.1,26.9-28.3,44.3-40.6c-6.8-0.7-13.3-1.4-19.6-2c13.4-15.6,28.2-29.9,45.4-43.4c-12.5-1.5-24.2-2.8-35.5-3.8
		c14.7-16.6,30.9-32,49.6-46.7c-9.1-1.1-17.9-2.1-26.4-3C2470.9,19,2481.2,9.4,2492.4,0z"/>
	<path class="elementor-shape-fill ha-shape-divider" d="M2685.4,50.6c-8.6-1-16.7-1.9-24.5-2.6c10-11.7,21.1-22.3,34-32.4c-6.3-0.8-12.3-1.4-18.2-2c4.5-4.6,9.1-9.1,14-13.6
		h-163.1c4.8,4.7,9.3,9.2,13.7,13.8c-5.3,0.5-10.7,1.1-16.4,1.8c12.3,11,23,21.6,32.7,32.5c-7.3,0.7-14.9,1.5-23,2.5
		c11.3,10.2,21.1,20,29.9,30.1c-3.9,0.4-7.9,0.8-12.1,1.2c11.6,9.5,21.2,18.4,29.8,28.1c-6.9,0.6-14.3,1.3-22.2,2.2
		c22.1,20,35.6,37.3,50,65.5c15-28.9,28.2-48.4,50-65.5c-8.3-1-15.8-1.8-23-2.3c8.8-10.4,18.6-19.5,30.6-28c-4.7-0.5-9.2-1-13.5-1.4
		C2663.3,69.7,2673.5,59.9,2685.4,50.6z"/>
	<path class="elementor-shape-fill ha-shape-divider" d="M2849.2,0H2724c6.3,5.8,12.1,11.4,17.4,17c-3.5,0.4-7.1,0.8-10.8,1.2c8.1,7.3,15.1,14.2,21.5,21.4c-4.8,0.5-9.8,1-15.1,1.6
		c7.4,6.7,13.9,13.2,19.7,19.8c-2.6,0.2-5.2,0.5-8,0.8c7.7,6.3,14,12.1,19.6,18.5c-4.6,0.4-9.4,0.8-14.6,1.5
		c14.5,13.2,23.4,24.6,32.9,43.1c9.9-19,18.6-31.8,32.9-43.1c-5.4-0.7-10.4-1.2-15.2-1.5c5.8-6.9,12.2-12.8,20.1-18.4
		c-3.1-0.3-6-0.6-8.9-0.9c6.1-7.1,12.8-13.6,20.6-19.7c-5.7-0.7-11-1.3-16.1-1.7c6.7-7.8,14.1-14.8,22.6-21.4
		c-4.1-0.5-8.1-0.9-12-1.3C2836.3,11,2842.4,5.5,2849.2,0z"/>
	<path class="elementor-shape-fill ha-shape-divider" d="M2877.7,0c4.8,4.5,9.3,8.8,13.4,13.2c-2.9,0.3-5.8,0.6-8.8,1c6.6,6,12.4,11.7,17.6,17.5c-3.9,0.4-8,0.8-12.4,1.3
		c6.1,5.5,11.4,10.8,16.1,16.2c-2.1,0.2-4.3,0.4-6.5,0.7c6.3,5.1,11.4,9.9,16,15.1c-3.7,0.3-7.7,0.7-12,1.2
		c11.9,10.8,19.2,20.1,26.9,35.3c8.1-15.6,15.2-26.1,26.9-35.3c-4.5-0.5-8.5-1-12.4-1.3c4.7-5.6,10-10.5,16.5-15.1
		c-2.5-0.3-4.9-0.5-7.3-0.7c5-5.8,10.5-11.1,16.9-16.1c-4.6-0.6-9-1-13.2-1.4c5.6-6.3,11.6-12,18.5-17.5c-3.4-0.4-6.6-0.8-9.8-1.1
		c4.4-4.5,9.1-8.8,14.3-13H2877.7z"/>
	<path class="elementor-shape-fill ha-shape-divider" d="M3079.6,0h-62.3c3,3,5.8,6,8.4,8.9c-2,0.2-4,0.4-6.2,0.6c5.9,4.8,10.8,9.4,15.2,14.3c-3.5,0.3-7.3,0.7-11.3,1.1
		c11.3,10.2,18.1,19,25.5,33.4c7.6-14.8,14.4-24.6,25.5-33.4c-4.2-0.5-8.1-0.9-11.7-1.2c4.3-5.2,9.3-9.8,15.4-14.1
		c-2.4-0.3-4.7-0.5-6.9-0.7C3073.8,5.8,3076.6,2.9,3079.6,0z"/>
	<path class="elementor-shape-fill ha-shape-divider" d="M3145.4,0h-46.2c2.3,2.3,4.4,4.5,6.4,6.7c-2.4,0.2-4.8,0.5-7.4,0.8c3.6,3.3,6.8,6.5,9.7,9.7c-1.3,0.1-2.6,0.2-3.9,0.4
		c3.8,3.1,6.9,6,9.6,9.1c-2.2,0.2-4.6,0.4-7.2,0.7c7.1,6.5,11.5,12.1,16.1,21.1c4.8-9.3,9.1-15.6,16.1-21.1
		c-2.7-0.3-5.1-0.6-7.4-0.8c2.8-3.4,6-6.3,9.9-9c-1.5-0.2-3-0.3-4.4-0.4c3-3.5,6.3-6.7,10.1-9.7c-2.8-0.3-5.4-0.6-7.9-0.9
		C3140.9,4.4,3143,2.2,3145.4,0z"/>
</g>
</svg>
