<svg xmlns="http://www.w3.org/2000/svg" viewBox="0 0 4185.6 400" preserveAspectRatio="none">
<g>
	<path class="elementor-shape-fill ha-shape-divider" d="M728.8,358.2c-6,0-10.9,4.9-10.9,10.9s4.9,10.9,10.9,10.9s10.9-4.9,10.9-10.9S734.8,358.2,728.8,358.2z"/>
	<path class="elementor-shape-fill ha-shape-divider" d="M1163.9,358.2c-6,0-10.9,4.9-10.9,10.9s4.9,10.9,10.9,10.9s10.9-4.9,10.9-10.9S1169.9,358.2,1163.9,358.2z"/>
	<path class="elementor-shape-fill ha-shape-divider" d="M1338,347.3c-6,0-10.9,4.9-10.9,10.9s4.9,10.9,10.9,10.9s10.8-4.8,10.9-10.9C1348.9,352.2,1344,347.3,1338,347.3z"/>
	<path class="elementor-shape-fill ha-shape-divider" d="M380.7,336.4c-6,0-10.9,4.9-10.9,10.9s4.9,10.9,10.9,10.9s10.9-4.8,10.9-10.9C391.6,341.3,386.7,336.4,380.7,336.4z"/>
	<path class="elementor-shape-fill ha-shape-divider" d="M76.1,358.2c-6,0-10.9,4.9-10.9,10.9S70.1,380,76.1,380c6.1,0,10.9-4.9,10.9-10.9S82.1,358.2,76.1,358.2z"/>
	<path class="elementor-shape-fill ha-shape-divider" d="M989.9,212.3c-6,0-10.9,4.9-10.9,10.9s4.9,10.9,10.9,10.9s10.9-4.8,10.9-10.9C1000.8,217.2,995.9,212.3,989.9,212.3z"/>
	<path class="elementor-shape-fill ha-shape-divider" d="M1775.9,336.4c-6,0-10.9,4.9-10.9,10.9s4.9,10.9,10.9,10.9s10.9-4.8,10.9-10.9C1786.8,341.3,1781.9,336.4,1775.9,336.4z"/>
	<path class="elementor-shape-fill ha-shape-divider" d="M1471.3,358.2c-6,0-10.9,4.9-10.9,10.9s4.9,10.9,10.9,10.9c6.1,0,10.9-4.9,10.9-10.9S1477.3,358.2,1471.3,358.2z"/>
	<path class="elementor-shape-fill ha-shape-divider" d="M2124,358.2c-6,0-10.9,4.9-10.9,10.9S2118,380,2124,380s10.9-4.9,10.9-10.9S2130,358.2,2124,358.2z"/>
	<path class="elementor-shape-fill ha-shape-divider" d="M2733.2,347.3c-6,0-10.9,4.9-10.9,10.9s4.9,10.9,10.9,10.9s10.8-4.8,10.9-10.9C2744.1,352.2,2739.2,347.3,2733.2,347.3z"/>
	<path class="elementor-shape-fill ha-shape-divider" d="M2559.1,358.2c-6,0-10.9,4.9-10.9,10.9s4.9,10.9,10.9,10.9s10.9-4.9,10.9-10.9S2565.1,358.2,2559.1,358.2z"/>
	<path class="elementor-shape-fill ha-shape-divider" d="M2385.1,212.3c-6,0-10.9,4.9-10.9,10.9s4.9,10.9,10.9,10.9s10.9-4.8,10.9-10.9C2396,217.2,2391.1,212.3,2385.1,212.3z"/>
	<path class="elementor-shape-fill ha-shape-divider" d="M4128.4,347.3c-6,0-10.9,4.9-10.9,10.9s4.9,10.9,10.9,10.9s10.8-4.8,10.9-10.9C4139.3,352.2,4134.4,347.3,4128.4,347.3z"/>
	<path class="elementor-shape-fill ha-shape-divider" d="M0,0v162c0-6,4.9-10.9,10.9-10.9S21.8,156,21.8,162v113.4c0,6,4.9,10.9,10.9,10.9s10.9-4.9,10.9-10.9v-21.5
		c0-6,4.9-10.9,10.9-10.9s10.9,4.9,10.9,10.9v83.9c0,6,4.9,10.9,10.9,10.9s10.9-4.9,10.9-10.9V223.2c0-6,4.9-10.9,10.9-10.9
		s10.9,4.9,10.9,10.9v49.1c0,6,4.9,10.9,10.9,10.9s10.9-4.9,10.9-10.9v-49.1c0-6,4.9-10.9,10.9-10.9s10.9,4.9,10.9,10.9v111.9
		c0,6,4.9,10.9,10.9,10.9s10.9-4.9,10.9-10.9V315c0-6,4.9-10.9,10.9-10.9s10.9,4.9,10.9,10.9v12.3c0,6,4.9,10.9,10.9,10.9
		s10.9-4.9,10.9-10.9v-23.5c0-6,4.9-10.9,10.9-10.9s10.9,4.9,10.9,10.9v23.5c0,6,4.9,10.9,10.9,10.9s10.9-4.9,10.9-10.9v-77.4
		c0-6,4.9-10.9,10.9-10.9s10.9,4.9,10.9,10.9v77.4c0,6,4.9,10.9,10.9,10.9s10.9-4.9,10.9-10.9V134.7c0-6,4.9-10.9,10.9-10.9
		s10.9,4.9,10.9,10.9v77.7c0,6,4.9,10.9,10.9,10.9s10.9-4.9,10.9-10.9v-23.1c0-6,4.9-10.9,10.9-10.9s10.9,4.9,10.9,10.9v126.3
		c0,6,4.9,10.9,10.9,10.9s10.9-4.9,10.9-10.9V200.8c0-6,4.9-10.9,10.9-10.9s10.9,4.9,10.9,10.9v19c0,6,4.9,10.9,10.9,10.9
		s10.9-4.9,10.9-10.9V107.3c0-6,4.9-10.9,10.9-10.9s10.9,4.9,10.9,10.9v50.8c0,6,4.9,10.9,10.9,10.9s10.9-4.9,10.9-10.9v-44.8
		c0-6,4.9-10.9,10.9-10.9s10.9,4.9,10.9,10.9V222c0,6,4.9,10.9,10.9,10.9s10.9-4.9,10.9-10.9v-81.4c0-6,4.9-10.9,10.9-10.9
		s10.9,4.9,10.9,10.9v20.5c0,6,4.9,10.9,10.9,10.9s10.9-4.9,10.9-10.9V47c0-6,4.9-10.9,10.9-10.9S588.6,41,588.6,47v20.5
		c0,6,4.9,10.9,10.9,10.9s10.9-4.9,10.9-10.9v-8.3c0-6,4.9-10.9,10.9-10.9s10.9,4.9,10.9,10.9v108.4c0,6,4.9,10.9,10.9,10.9
		s10.9-4.9,10.9-10.9v-54.2c0-6,4.9-10.9,10.9-10.9s10.9,4.9,10.9,10.9v122.3c0,6,4.9,10.9,10.9,10.9s10.9-4.9,10.9-10.9V211
		c0-6,4.9-10.9,10.9-10.9s10.9,4.9,10.9,10.9v124.4c0,6,4.9,10.9,10.9,10.9s10.9-4.9,10.9-10.9V221.5c0-6,4.9-10.9,10.9-10.9
		s10.9,4.9,10.9,10.9v20.3c0,6,4.9,10.9,10.9,10.9s10.9-4.9,10.9-10.9V129.4c0-6,4.9-10.9,10.9-10.9s10.9,4.9,10.9,10.9v52.4
		c0,6,4.9,10.9,10.9,10.9s10.9-4.9,10.9-10.9v-46.7c0-6,4.9-10.9,10.9-10.9s10.9,4.9,10.9,10.9v109c0,6,4.9,10.9,10.9,10.9
		s10.9-4.9,10.9-10.9v-82.9c0-6,4.9-10.9,10.9-10.9s10.9,4.9,10.9,10.9v20.6c0,6,4.9,10.9,10.9,10.9s10.9-4.9,10.9-10.9V68.4
		c0-6,4.9-10.9,10.9-10.9s10.9,4.9,10.9,10.9v19.8c0,6,4.9,10.9,10.9,10.9s10.9-4.9,10.9-10.9v-9.9h0.1c0.5-5.5,5.2-9.8,10.8-9.8
		c6,0,10.9,4.9,10.9,10.9v111.2c0,6,4.9,10.9,10.9,10.9s10.9-4.9,10.9-10.9V135c0-6,4.9-10.9,10.9-10.9s10.9,4.9,10.9,10.9v146.5
		c0,6,4.9,10.9,10.9,10.9s10.9-4.9,10.9-10.9V173c0-6,4.9-10.9,10.9-10.9s10.9,4.9,10.9,10.9v8.8c0,6,4.9,10.9,10.9,10.9
		s10.9-4.9,10.9-10.9V162c0-6,4.9-10.9,10.9-10.9s10.9,4.9,10.9,10.9v113.4c0,6,4.9,10.9,10.9,10.9s10.9-4.9,10.9-10.9v-21.5
		c0-6,4.9-10.9,10.9-10.9s10.9,4.9,10.9,10.9v83.9c0,6,4.9,10.9,10.9,10.9s10.9-4.9,10.9-10.9V223.2c0-6,4.9-10.9,10.9-10.9
		s10.9,4.9,10.9,10.9v49.1c0,6,4.9,10.9,10.9,10.9s10.9-4.9,10.9-10.9v-49.1c0-6,4.9-10.9,10.9-10.9s10.9,4.9,10.9,10.9v111.9
		c0,6,4.9,10.9,10.9,10.9s10.9-4.9,10.9-10.9V315c0-6,4.9-10.9,10.9-10.9s10.9,4.9,10.9,10.9v12.3c0,6,4.9,10.9,10.9,10.9
		s10.9-4.9,10.9-10.9v-23.5c0-6,4.9-10.9,10.9-10.9s10.9,4.9,10.9,10.9v23.5c0,6,4.9,10.9,10.9,10.9s10.9-4.9,10.9-10.9v-77.4
		c0-6,4.9-10.9,10.9-10.9s10.9,4.9,10.9,10.9v77.4c0,6,4.9,10.9,10.9,10.9s10.9-4.9,10.9-10.9V162c0-6,4.9-10.9,10.9-10.9
		S1417,156,1417,162v113.4c0,6,4.9,10.9,10.9,10.9s10.9-4.9,10.9-10.9v-21.5c0-6,4.9-10.9,10.9-10.9s10.9,4.9,10.9,10.9v83.9
		c0,6,4.9,10.9,10.9,10.9s10.9-4.9,10.9-10.9V223.2c0-6,4.9-10.9,10.9-10.9s10.9,4.9,10.9,10.9v49.1c0,6,4.9,10.9,10.9,10.9
		s10.9-4.9,10.9-10.9v-49.1c0-6,4.9-10.9,10.9-10.9s10.9,4.9,10.9,10.9v111.9c0,6,4.9,10.9,10.9,10.9s10.9-4.9,10.9-10.9V315
		c0-6,4.9-10.9,10.9-10.9s10.9,4.9,10.9,10.9v12.3c0,6,4.9,10.9,10.9,10.9s10.9-4.9,10.9-10.9v-23.5c0-6,4.9-10.9,10.9-10.9
		s10.9,4.9,10.9,10.9v23.5c0,6,4.9,10.9,10.9,10.9s10.9-4.9,10.9-10.9v-77.4c0-6,4.9-10.9,10.9-10.9s10.9,4.9,10.9,10.9v77.4
		c0,6,4.9,10.9,10.9,10.9s10.9-4.9,10.9-10.9V134.7c0-6,4.9-10.9,10.9-10.9s10.9,4.9,10.9,10.9v77.7c0,6,4.9,10.9,10.9,10.9
		s10.9-4.9,10.9-10.9v-23.1c0-6,4.9-10.9,10.9-10.9s10.9,4.9,10.9,10.9v126.3c0,6,4.9,10.9,10.9,10.9s10.9-4.9,10.9-10.9V200.8
		c0-6,4.9-10.9,10.9-10.9s10.9,4.9,10.9,10.9v19c0,6,4.9,10.9,10.9,10.9s10.9-4.9,10.9-10.9V107.3c0-6,4.9-10.9,10.9-10.9
		s10.9,4.9,10.9,10.9v50.8c0,6,4.9,10.9,10.9,10.9s10.9-4.9,10.9-10.9v-44.8c0-6,4.9-10.9,10.9-10.9s10.9,4.9,10.9,10.9V222
		c0,6,4.9,10.9,10.9,10.9s10.9-4.9,10.9-10.9v-81.4c0-6,4.9-10.9,10.9-10.9s10.9,4.9,10.9,10.9v20.5c0,6,4.9,10.9,10.9,10.9
		s10.9-4.9,10.9-10.9V47c0-6,4.9-10.9,10.9-10.9s10.9,4.9,10.9,10.9v20.5c0,6,4.9,10.9,10.9,10.9s10.9-4.9,10.9-10.9v-8.3
		c0-6,4.9-10.9,10.9-10.9s10.9,4.9,10.9,10.9v108.4c0,6,4.9,10.9,10.9,10.9s10.9-4.9,10.9-10.9v-54.2c0-6,4.9-10.9,10.9-10.9
		s10.9,4.9,10.9,10.9v122.3c0,6,4.9,10.9,10.9,10.9s10.9-4.9,10.9-10.9V211c0-6,4.9-10.9,10.9-10.9s10.9,4.9,10.9,10.9v124.4
		c0,6,4.9,10.9,10.9,10.9s10.9-4.9,10.9-10.9V221.5c0-6,4.9-10.9,10.9-10.9s10.9,4.9,10.9,10.9v20.3c0,6,4.9,10.9,10.9,10.9
		s10.9-4.9,10.9-10.9V129.4c0-6,4.9-10.9,10.9-10.9s10.9,4.9,10.9,10.9v52.4c0,6,4.9,10.9,10.9,10.9s10.9-4.9,10.9-10.9v-46.7
		c0-6,4.9-10.9,10.9-10.9s10.9,4.9,10.9,10.9v109c0,6,4.9,10.9,10.9,10.9s10.9-4.9,10.9-10.9v-82.9c0-6,4.9-10.9,10.9-10.9
		s10.9,4.9,10.9,10.9v20.6c0,6,4.9,10.9,10.9,10.9s10.9-4.9,10.9-10.9V68.4c0-6,4.9-10.9,10.9-10.9s10.9,4.9,10.9,10.9v19.8
		c0,6,4.9,10.9,10.9,10.9s10.9-4.9,10.9-10.9v-9.9h0.1c0.5-5.5,5.2-9.8,10.8-9.8c6,0,10.9,4.9,10.9,10.9v111.2
		c0,6,4.9,10.9,10.9,10.9s10.9-4.9,10.9-10.9V135c0-6,4.9-10.9,10.9-10.9s10.9,4.9,10.9,10.9v146.5c0,6,4.9,10.9,10.9,10.9
		s10.9-4.9,10.9-10.9V173c0-6,4.9-10.9,10.9-10.9s10.9,4.9,10.9,10.9v8.8c0,6,4.9,10.9,10.9,10.9s10.9-4.9,10.9-10.9V162
		c0-6,4.9-10.9,10.9-10.9S2507,156,2507,162v113.4c0,6,4.9,10.9,10.9,10.9s10.9-4.9,10.9-10.9v-21.5c0-6,4.9-10.9,10.9-10.9
		s10.9,4.9,10.9,10.9v83.9c0,6,4.9,10.9,10.9,10.9s10.9-4.9,10.9-10.9V223.2c0-6,4.9-10.9,10.9-10.9s10.9,4.9,10.9,10.9v49.1
		c0,6,4.9,10.9,10.9,10.9s10.9-4.9,10.9-10.9v-49.1c0-6,4.9-10.9,10.9-10.9s10.9,4.9,10.9,10.9v111.9c0,6,4.9,10.9,10.9,10.9
		s10.9-4.9,10.9-10.9V315c0-6,4.9-10.9,10.9-10.9s10.9,4.9,10.9,10.9v12.3c0,6,4.9,10.9,10.9,10.9s10.9-4.9,10.9-10.9v-23.5
		c0-6,4.9-10.9,10.9-10.9s10.9,4.9,10.9,10.9v23.5c0,6,4.9,10.9,10.9,10.9s10.9-4.9,10.9-10.9v-77.4c0-6,4.9-10.9,10.9-10.9
		s10.9,4.9,10.9,10.9v77.4c0,6,4.9,10.9,10.9,10.9s10.9-4.9,10.9-10.9V162c0-6,4.9-10.9,10.9-10.9s10.9,4.9,10.9,10.9v113.4
		c0,6,4.9,10.9,10.9,10.9s10.9-4.9,10.9-10.9v-21.5c0-6,4.9-10.9,10.9-10.9s10.9,4.9,10.9,10.9v83.9c0,6,4.9,10.9,10.9,10.9
		s10.9-4.9,10.9-10.9V223.2c0-6,4.9-10.9,10.9-10.9s10.9,4.9,10.9,10.9v49.1c0,6,4.9,10.9,10.9,10.9s10.9-4.9,10.9-10.9v-49.1
		c0-6,4.9-10.9,10.9-10.9s10.9,4.9,10.9,10.9v111.9c0,6,4.9,10.9,10.9,10.9s10.9-4.9,10.9-10.9V315c0-6,4.9-10.9,10.9-10.9
		s10.9,4.9,10.9,10.9v12.3c0,6,4.9,10.9,10.9,10.9s10.9-4.9,10.9-10.9v-23.5c0-6,4.9-10.9,10.9-10.9s10.9,4.9,10.9,10.9v23.5
		c0,6,4.9,10.9,10.9,10.9s10.9-4.9,10.9-10.9v-77.4c0-6,4.9-10.9,10.9-10.9s10.9,4.9,10.9,10.9v77.4c0,6,4.9,10.9,10.9,10.9
		s10.9-4.9,10.9-10.9V134.7c0-6,4.9-10.9,10.9-10.9s10.9,4.9,10.9,10.9v77.7c0,6,4.9,10.9,10.9,10.9s10.9-4.9,10.9-10.9v-23.1
		c0-6,4.9-10.9,10.9-10.9s10.9,4.9,10.9,10.9v126.3c0,6,4.9,10.9,10.9,10.9s10.9-4.9,10.9-10.9V200.8c0-6,4.9-10.9,10.9-10.9
		s10.9,4.9,10.9,10.9v19c0,6,4.9,10.9,10.9,10.9s10.9-4.9,10.9-10.9V107.3c0-6,4.9-10.9,10.9-10.9s10.9,4.9,10.9,10.9v50.8
		c0,6,4.9,10.9,10.9,10.9s10.9-4.9,10.9-10.9v-44.8c0-6,4.9-10.9,10.9-10.9s10.9,4.9,10.9,10.9V222c0,6,4.9,10.9,10.9,10.9
		s10.9-4.9,10.9-10.9v-81.4c0-6,4.9-10.9,10.9-10.9s10.9,4.9,10.9,10.9v20.5c0,6,4.9,10.9,10.9,10.9s10.9-4.9,10.9-10.9V47
		c0-6,4.9-10.9,10.9-10.9S3379,41,3379,47v20.5c0,6,4.9,10.9,10.9,10.9s10.9-4.9,10.9-10.9v-8.3c0-6,4.9-10.9,10.9-10.9
		s10.9,4.9,10.9,10.9v108.4c0,6,4.9,10.9,10.9,10.9s10.9-4.9,10.9-10.9v-54.2c0-6,4.9-10.9,10.9-10.9s10.9,4.9,10.9,10.9v122.3
		c0,6,4.9,10.9,10.9,10.9s10.9-4.9,10.9-10.9V211c0-6,4.9-10.9,10.9-10.9s10.9,4.9,10.9,10.9v124.4c0,6,4.9,10.9,10.9,10.9
		s10.9-4.9,10.9-10.9V221.5c0-6,4.9-10.9,10.9-10.9s10.9,4.9,10.9,10.9v20.3c0,6,4.9,10.9,10.9,10.9s10.9-4.9,10.9-10.9V129.4
		c0-6,4.9-10.9,10.9-10.9s10.9,4.9,10.9,10.9v52.4c0,6,4.9,10.9,10.9,10.9s10.9-4.9,10.9-10.9v-46.7c0-6,4.9-10.9,10.9-10.9
		s10.9,4.9,10.9,10.9v109c0,6,4.9,10.9,10.9,10.9s10.9-4.9,10.9-10.9v-82.9c0-6,4.9-10.9,10.9-10.9s10.9,4.9,10.9,10.9v20.6
		c0,6,4.9,10.9,10.9,10.9s10.9-4.9,10.9-10.9V68.4c0-6,4.9-10.9,10.9-10.9s10.9,4.9,10.9,10.9v19.8c0,6,4.9,10.9,10.9,10.9
		s10.9-4.9,10.9-10.9v-9.9h0.1c0.5-5.5,5.2-9.8,10.8-9.8c6,0,10.9,4.9,10.9,10.9v111.2c0,6,4.9,10.9,10.9,10.9s10.9-4.9,10.9-10.9
		V135c0-6,4.9-10.9,10.9-10.9S3815,129,3815,135v146.5c0,6,4.9,10.9,10.9,10.9s10.9-4.9,10.9-10.9V173c0-6,4.9-10.9,10.9-10.9
		s10.9,4.9,10.9,10.9v8.8c0,6,4.9,10.9,10.9,10.9s10.9-4.9,10.9-10.9V162c0-6,4.9-10.9,10.9-10.9s10.9,4.9,10.9,10.9v113.4
		c0,6,4.9,10.9,10.9,10.9s10.9-4.9,10.9-10.9v-21.5c0-6,4.9-10.9,10.9-10.9s10.9,4.9,10.9,10.9v83.9c0,6,4.9,10.9,10.9,10.9
		s10.9-4.9,10.9-10.9V223.2c0-6,4.9-10.9,10.9-10.9s10.9,4.9,10.9,10.9v49.1c0,6,4.9,10.9,10.9,10.9s10.9-4.9,10.9-10.9v-49.1
		c0-6,4.9-10.9,10.9-10.9s10.9,4.9,10.9,10.9v111.9c0,6,4.9,10.9,10.9,10.9s10.9-4.9,10.9-10.9V315c0-6,4.9-10.9,10.9-10.9
		s10.9,4.9,10.9,10.9v12.3c0,6,4.9,10.9,10.9,10.9s10.9-4.9,10.9-10.9v-23.5c0-6,4.9-10.9,10.9-10.9s10.9,4.9,10.9,10.9v23.5
		c0,6,4.9,10.9,10.9,10.9s10.9-4.9,10.9-10.9v-77.4c0-6,4.9-10.9,10.9-10.9s10.9,4.9,10.9,10.9v77.4c0,6,4.9,10.9,10.9,10.9
		s10.9-4.9,10.9-10.9V0H0z M141.4,196.1c-6,0-10.9-4.9-10.9-10.9s4.9-10.9,10.9-10.9s10.9,4.9,10.9,10.9
		C152.3,191.3,147.4,196.1,141.4,196.1z M228.4,283.2c-6,0-10.9-4.9-10.9-10.9s4.9-10.9,10.9-10.9s10.9,4.9,10.9,10.9
		S234.4,283.2,228.4,283.2z M250.2,189.1c-6,0-10.9-4.9-10.9-10.9s4.9-10.9,10.9-10.9s10.9,4.9,10.9,10.9
		C261.1,184.3,256.2,189.1,250.2,189.1z M359,170c-6,0-10.9-4.9-10.9-10.9s4.9-10.9,10.9-10.9s10.9,4.9,10.9,10.9
		C369.8,165.1,365,170,359,170z M533,114.6c-6,0-10.9-4.9-10.9-10.9S527,92.8,533,92.8s10.9,4.9,10.9,10.9
		C543.9,109.8,539,114.6,533,114.6z M707.1,192.6c-6,0-10.9-4.9-10.9-10.9s4.9-10.9,10.9-10.9s10.9,4.9,10.9,10.9
		C717.9,187.8,713.1,192.6,707.1,192.6z M924.6,41c-6,0-10.9-4.9-10.9-10.9s4.9-10.9,10.9-10.9s10.9,4.9,10.9,10.9
		S930.6,41,924.6,41z M1229.2,196.1c-6,0-10.9-4.9-10.9-10.9s4.9-10.9,10.9-10.9s10.9,4.9,10.9,10.9
		C1240.1,191.3,1235.2,196.1,1229.2,196.1z M1316.2,283.2c-6,0-10.9-4.9-10.9-10.9s4.9-10.9,10.9-10.9s10.9,4.9,10.9,10.9
		S1322.2,283.2,1316.2,283.2z M1536.6,196.1c-6,0-10.9-4.9-10.9-10.9s4.9-10.9,10.9-10.9s10.9,4.9,10.9,10.9
		C1547.5,191.3,1542.6,196.1,1536.6,196.1z M1623.6,283.2c-6,0-10.9-4.9-10.9-10.9s4.9-10.9,10.9-10.9s10.9,4.9,10.9,10.9
		S1629.6,283.2,1623.6,283.2z M1645.4,189.1c-6,0-10.9-4.9-10.9-10.9s4.9-10.9,10.9-10.9s10.9,4.9,10.9,10.9
		C1656.3,184.3,1651.4,189.1,1645.4,189.1z M1754.2,170c-6,0-10.9-4.9-10.9-10.9s4.9-10.9,10.9-10.9s10.9,4.9,10.9,10.9
		C1765,165.1,1760.2,170,1754.2,170z M1928.2,114.6c-6,0-10.9-4.9-10.9-10.9s4.9-10.9,10.9-10.9s10.9,4.9,10.9,10.9
		C1939.1,109.8,1934.2,114.6,1928.2,114.6z M2102.3,192.6c-6,0-10.9-4.9-10.9-10.9s4.9-10.9,10.9-10.9s10.9,4.9,10.9,10.9
		C2113.1,187.8,2108.3,192.6,2102.3,192.6z M2319.8,41c-6,0-10.9-4.9-10.9-10.9s4.9-10.9,10.9-10.9s10.9,4.9,10.9,10.9
		S2325.8,41,2319.8,41z M2624.4,196.1c-6,0-10.9-4.9-10.9-10.9s4.9-10.9,10.9-10.9s10.9,4.9,10.9,10.9
		C2635.3,191.3,2630.4,196.1,2624.4,196.1z M2711.4,283.2c-6,0-10.9-4.9-10.9-10.9s4.9-10.9,10.9-10.9s10.9,4.9,10.9,10.9
		S2717.4,283.2,2711.4,283.2z M2931.8,196.1c-6,0-10.9-4.9-10.9-10.9s4.9-10.9,10.9-10.9s10.9,4.9,10.9,10.9
		C2942.7,191.3,2937.8,196.1,2931.8,196.1z M3018.8,283.2c-6,0-10.9-4.9-10.9-10.9s4.9-10.9,10.9-10.9s10.9,4.9,10.9,10.9
		S3024.8,283.2,3018.8,283.2z M3040.6,189.1c-6,0-10.9-4.9-10.9-10.9s4.9-10.9,10.9-10.9s10.9,4.9,10.9,10.9
		C3051.5,184.3,3046.6,189.1,3040.6,189.1z M3149.4,170c-6,0-10.9-4.9-10.9-10.9s4.9-10.9,10.9-10.9s10.9,4.9,10.9,10.9
		C3160.2,165.1,3155.4,170,3149.4,170z M3323.4,114.6c-6,0-10.9-4.9-10.9-10.9s4.9-10.9,10.9-10.9s10.9,4.9,10.9,10.9
		C3334.3,109.8,3329.4,114.6,3323.4,114.6z M3497.5,192.6c-6,0-10.9-4.9-10.9-10.9s4.9-10.9,10.9-10.9s10.9,4.9,10.9,10.9
		C3508.3,187.8,3503.5,192.6,3497.5,192.6z M3715,41c-6,0-10.9-4.9-10.9-10.9s4.9-10.9,10.9-10.9s10.9,4.9,10.9,10.9
		S3721,41,3715,41z M4019.6,196.1c-6,0-10.9-4.9-10.9-10.9s4.9-10.9,10.9-10.9s10.9,4.9,10.9,10.9
		C4030.5,191.3,4025.6,196.1,4019.6,196.1z M4106.6,283.2c-6,0-10.9-4.9-10.9-10.9s4.9-10.9,10.9-10.9s10.9,4.9,10.9,10.9
		S4112.6,283.2,4106.6,283.2z"/>
	<path class="elementor-shape-fill ha-shape-divider" d="M3954.3,358.2c-6,0-10.9,4.9-10.9,10.9s4.9,10.9,10.9,10.9s10.9-4.9,10.9-10.9S3960.3,358.2,3954.3,358.2z"/>
	<path class="elementor-shape-fill ha-shape-divider" d="M3171.1,336.4c-6,0-10.9,4.9-10.9,10.9s4.9,10.9,10.9,10.9s10.9-4.8,10.9-10.9C3182,341.3,3177.1,336.4,3171.1,336.4z"/>
	<path class="elementor-shape-fill ha-shape-divider" d="M2866.5,358.2c-6,0-10.9,4.9-10.9,10.9s4.9,10.9,10.9,10.9c6.1,0,10.9-4.9,10.9-10.9S2872.5,358.2,2866.5,358.2z"/>
	<path class="elementor-shape-fill ha-shape-divider" d="M3780.3,212.3c-6,0-10.9,4.9-10.9,10.9s4.9,10.9,10.9,10.9s10.9-4.8,10.9-10.9C3791.2,217.2,3786.3,212.3,3780.3,212.3z"/>
	<path class="elementor-shape-fill ha-shape-divider" d="M3519.2,358.2c-6,0-10.9,4.9-10.9,10.9s4.9,10.9,10.9,10.9s10.9-4.9,10.9-10.9S3525.2,358.2,3519.2,358.2z"/>
</g>
</svg>
