<svg xmlns="http://www.w3.org/2000/svg" viewBox="0 0 4080 400" preserveAspectRatio="none">
<g>
	<path class="elementor-shape-fill ha-shape-divider" d="M0.2,12.9c6.2,64.8,108,80.3,177.6,91.9c4.5,0.8,9.1,1.2,13.7,1.2c4.8,0.1,9.5,0.3,14.1,0.5c0.8,10.6,0.8,26,0.6,40.1
		c-3.2,0.2-8.8,1.6-12.3,8.3c-1.4,2.7,0.6,5.9,3.6,5.9c1.9,0,3.5-1.3,4-3.1c0.5-2.2,1.8-5,4.5-6.6c-0.2,9.7-0.5,18.6-0.7,24.3
		c-0.1,3.8,2.9,7,6.7,7c3.5,0,6.5-2.7,6.7-6.2c0.8-11.4,0.4-23.3-0.6-34.1c6.2,1.7,8.4,8,9.2,12.4c0.5,2.7,2.8,4.6,5.5,4.6h0
		c3.4,0,6-3,5.5-6.4c-2.1-13.3-16.4-17.2-21-18.2c-1.3-11.7-3.1-21.6-4.4-27.5c103,8.4,128.6,61.6,198.9,66.5
		c72.9,5.1,112.5-51.4,206.8-38.6c0,1.7-0.1,3.3-0.3,4.9c-3.4,1.6-6.7,3.4-10,5.3l0,0c0,0-12.9,6.2-27.6,4.6c0,0,9.4,2.4,23.2-1.9
		l0,0c-1.5,0.9-3,1.9-4.4,2.9c0,0,0,0,0,0l0,0C585.6,160.2,575,170,575,170c7.1-6.3,14.9-11.8,22-16.2c-2.5,5.4-2.4,10.4-2.4,10.4
		c0.8-4.8,2.6-9,3.9-11.3c8.3-5.1,15.6-8.8,19.6-10.7c-0.9,5.2-2.8,9.9-5.2,14.2c-1,1.4-7.9,11-25.2,15.8c0,0,11.6-2.4,19.3-7.3
		c-9.8,11.8-22.1,18.4-22.1,18.4c9.3-3.8,16.4-8.6,21.7-13.7c-2.4,13.1,5.2,22.5,5.2,22.5c-6.2-11.1-3.2-22.3-1.8-26.2
		c5.4-6.3,8.6-12.8,10.4-18.2c0.8,5,1.9,9.9,3.1,14.8c-0.4,4.8-1.7,11-4.7,17.7c0,0,4.4-5,5.8-13.5c0.9,3.5,1.9,7,2.9,10.3
		c0.2,7.1,0,20.9-4.1,34.8c0,0,6.3-11.7,7.3-25c3.5,10.3,6.9,18.8,9,23.8c-3.4-8.8-6.4-21.1-8.9-33.3c10.4,17.4,26.3,19.8,25.4,19.2
		c-17.4-12-25.1-26.1-27.8-32.2c-1.4-8.1-2.5-15.5-3.3-20.9c1.7,1.3,3.4,2.6,5.1,3.8c0.2,4.3,1.8,13.3,7.8,19.5
		c0.4,0.4-4.6-8.3-4.9-17.1c16.8,13.6,27.8,26.7,27.8,26.7c-4.3-6.6-11.4-14.3-18.3-21.1c14.2,4.6,19.2,8.9,19.2,8.9
		c-5.6-6-18-10.8-23.1-12.6c-6.2-5.8-11.7-10.6-14.2-12.7c-0.2-1.3-0.3-2.3-0.4-3c4.2,0.7,8.4,1.5,12.8,2.4
		c69,14.9,122.8-28.1,195-36.8c0,0.1-0.1,0.1-0.1,0.2c-0.2,0.9,0.5,1.9,0.3,2.8c-0.2,0.9-1.2,1.3-1.7,2.1c-0.6,1-0.2,2.2,0.3,3.1
		c0.6,0.9,1.4,1.8,1.9,2.7c0.7,1.3,0.7,2.9,0.7,4.4c0,3.8,0,7.5,0.1,11.3c0,2,0,4,0.7,5.8c0.5,1.5,1.5,2.8,2.3,4.2
		c1.1,2,1.9,4.2,2.4,6.4c-0.2,2.5-0.5,5.1-0.8,7.6c-0.3,2.6-0.7,5.1-1,7.7c-0.6,4.5-1.2,9.1-0.7,13.6c0.5,4.5,2.3,9.1,5.7,12.1
		c0.7,0.6,1.4,1.1,2.2,1.5c1.1,2.2,2.7,4.2,4.2,6.1c0.3,0.4,0.7,0.8,1,1.2c-3.9,8.5-4.4,18.5-1.4,27.3c0.4,1.1,0.8,2.1,1.5,2.9
		c0.7,0.7,1.6,1.2,2.4,1.7c2.3,1.4,4.5,3,6.5,4.8c0.1,0.1,0.2,0.2,0.3,0.3c-0.4,0.6-0.7,1.3-0.9,2.1c-0.1-0.1-0.3-0.1-0.4-0.1
		c-0.1,0.1-0.3,0.2-0.4,0.3c-0.4,0.6-0.7,1.3-0.6,2c0.1,0.6,0.5,1.1,1,1.6c1.5,1.7,3.1,3.5,5.3,4.4c1.9,0.8,4.4,0.7,5.9-0.8
		c1.2-1.3,1.6-4.8-0.1-5.8c-0.3-0.2-0.6-0.2-0.9-0.3c0.1-1.4-0.1-2.9-0.4-4.3c-0.2-0.6-0.3-1.6-0.7-2.3c1.4-1.3,2.8-2.5,4.3-3.7
		c0.5-0.4,1-0.8,1.3-1.3c0.2-0.4,0.4-0.9,0.5-1.4c0.8-3.4,1.7-6.7,2.5-10.1c0.3-0.3,0.6-0.7,0.8-0.9c0.5-0.5,1.2-1.1,1.9-1.1
		c0.6-0.1,1.2,0.2,1.8,0.4c0.6,0.1,1.3,0.1,1.7-0.4c0.1-0.2,0.2-0.4,0.3-0.6c0.2-0.2,0.5-0.3,0.7-0.5c0.5-0.3,0.7-0.9,0.8-1.5
		c0.1-0.6-0.1-1.2-0.2-1.7c-0.1-0.3-0.1-0.5-0.3-0.8c-0.2-0.2-0.4-0.3-0.7-0.4c-0.2-0.1-0.4-0.1-0.6-0.2c1.8-2,3.5-4.3,5.9-5.5
		c3.1-1.6,7.2-1.2,9.5-3.8c1.1-1.2,1.5-2.8,2-4.3c0.5-1.5,1-3.1,2.2-4.2c0.9-0.8,2.3-1.2,3.4-0.8c1,0.8,1.6,2,2.2,3.2
		c1.1,2.2,2.1,4.4,2.4,6.8c0.3,2.5-0.2,5,0.1,7.5c0.2,1.1,0.5,2.2,0.7,3.3c0.2,1.1,0.1,2.2,0.1,3.3c0,1.3-0.1,2.5-0.1,3.8
		c0,0.7,0,1.3-0.4,1.9c-0.3,0.5-0.8,0.9-1.2,1.4c-0.9,1-1.3,2.3-1.3,3.6c0,0.2,0.1,0.5,0.2,0.7c0.2,0.2,0.5,0.2,0.8,0.2
		c1.3-0.1,2.2-1.1,2.6-2.3c1.5,0.9,2.6,2.3,4.5,2.8c1.8,0.5,4,0.3,5.4-1c0.4-0.4,0.9-0.8,1.4-0.6c0.5,0.2,0.6,0.9,1.1,1.2
		c0.4,0.2,0.9-0.1,1.1-0.4c0.2-0.4,0.2-0.8,0.2-1.3c0-1.5,0-3.1-0.7-4.5c-0.3-0.6-0.7-1.1-0.9-1.8c-0.4-1.3-0.1-2.7-0.1-4.1
		c0-1.4-0.3-2.9-1.6-3.5c-0.3-0.1-0.6-0.2-0.8-0.4c-0.4-0.3-0.5-0.9-0.6-1.4c-0.8-6.6-1.6-13.2-2.4-19.8c-0.2-1.5-0.4-2.9-0.6-4.4
		c-0.4-2-0.9-4-1.6-5.9c-0.9-2.2-2-4.4-3.8-6c-1.3-1.2-2.9-2.1-4.4-2.9c-0.3-0.2-0.7-0.4-1-0.6c-1.4-1.9-3.1-3.6-4.2-5.6
		c-2-3.7-3.3-7.8-5.3-11.5c-1.2-2.3-2.7-4.6-3.8-7c0.8-3,1.9-6,3-8.9c1.3-3.3,2.6-6.8,1.9-10.3c-0.1-0.5-0.2-0.9-0.5-1.3
		c0,0-0.1-0.1-0.1-0.1c0.4-2.3,0.8-4.7,1.4-7c0.8-3.5,2.1-7,3.9-10.1c54.9,5,119.4,16.1,167.6,21.3c58.1,6.3,115.2,11.2,170.9,15
		l91.2,105.1c1.2,1.4,3.4,0.9,4-0.8l33.6-97.3c1.7,0.1,3.5,0.1,5.2,0.2l-30.3,87.8c-0.8,2.4,2.3,4.2,4,2.3l76.7-88.4
		c60.8,1.8,119.2,2.3,174.4,1.9c-2.6,6.5-5.2,12.4-6.6,13.8c-3,3.7,0.6,12.8,1.8,19.5c1.2,6.7-2.4,20.7-2.4,20.7
		c-0.6-3.7-3.7,0-2.4-5.5c0.6-4.9,0-9.7,0-9.7s0,7.3-1.8,7.3c-1.8,0.6-1.2-6.1-1.2-6.1c-2.4,0.6-1.2,14.6-2.4,15.2s-0.6-9.7-0.6-9.7
		s-6.1,15.8-2.4,17.7c3,1.8,3.7,6.1,2.4,9.1c-1.8,2.4,0.6,10.4,0.6,10.4c0,3.7,0,12.8,1.8,17.7c1.8,4.9,19.5,23.8,26.8,24.4
		c7.3,0.6,21.9,19.5,30.5,23.8c8.5,4.3,19.5,6.1,26.2-1.8c6.7-7.9,12.8-15.2,29.9-17.7c17.1-3,27.4-28,41.4-28s19.5,18.3,18.9,20.7
		c-0.6,2.4-3-2.4-3-2.4c0,2.4,4.3,10.4,6.7,12.8c2.4,3,1.8,4.9,3.7,5.5c1.2,0.6,1.8,5.5,3,6.7s0,3.7,1.8,4.3
		c1.8,0.6,3.7-2.4,3.7-2.4c7.3,0,6.1-1.2,9.7-1.8c3.7,0,4.9-1.8,7.3-1.2c2.4,1.2,10.4,0.6,13.4,0.6s3.7-3.7,4.3-4.9
		c0.6-0.6,3-2.4,3.7-4.9s-3-0.6-1.2-2.4c1.2-1.8,1.8-1.2-1.2-2.4c-3-1.2-6.1,2.4-8.5,0.6c-3-1.8-11.6-4.9-14.6-5.5
		c-3-0.6-3.7-3.7-3.7-3.7c-2.4,2.4-4.9-1.8-3-5.5c1.8-3.7-1.8-4.3,0-7.3c1.8-3,0.6-6.1,0.6-6.1l-1.8,0.6c0.6-1.8-2.4-3-2.4-3
		c1.2,4.3-3.7,6.1-3.7,6.1s0-7.9-13.4-22.5c-13.4-14.6-42.6-11.6-42.6-11.6c-1.2-3.7-12.8-8.5-12.8-8.5
		c-0.6-5.5-13.4-35.3-13.4-39.6s-4.3-9.7-4.9-11.6c-0.4-1.1-0.3-7.2-0.1-12.8c62.1-1.7,119.1-4.4,170.1-7.9v16.9
		c-10.8,2.2-18.7,11.6-18.7,23.1v15c0,2.7,2.2,4.9,4.9,4.9c2.7,0,4.9-2.2,4.9-4.9v-15c0-6,3.6-11,8.9-12.9V205
		c0,2.7,2.2,4.9,4.9,4.9s4.9-2.2,4.9-4.9v-24.2c6.4,2.1,11.1,8.1,11.1,15.3v4.5c0,2.7,2.2,4.9,4.9,4.9s4.9-2.2,4.9-4.9V196
		c0-12.6-9-23.1-20.9-25.4v-31c78.4-5.4,141.8-12.3,186.1-18.6l165.3,191c2,2.3,5.7,1.6,6.8-1.2l76.7-201.2c0.4-1,1.3-1.6,2.3-1.6
		c0.3,0,0.6,0.1,0.9,0.2c1.3,0.5,1.9,1.9,1.4,3.2l-70.2,184c-1.6,4.2,3.8,7.4,6.8,4l118.3-136.7l60.4,69.9c2,2.3,5.8,1.6,6.8-1.3
		l44.2-127.9c0-0.1,0.1-0.2,0.1-0.3c1.5,0,3,0.1,4.5,0.1c0.3,0.6,0.3,1.2,0.1,1.9l-37.4,108.4c-1.4,4.2,3.9,7.3,6.8,3.9l98.1-113.1
		c80.5,1.2,177.1,2,285.3,2.7l3.9,12.5l6.4,0.8l3.2-4.6l3.2,0.8l2.7,12.3l5.5,5.4l25.7,11.5l18-3.5l0,0l21.9-4.2l5-6.1l3.2-11.5
		l3.2,0.8l3.2-3.1l1.9,15.5l6.7,29.3l0.9,89.7l15.7,7.3l16.5-3.1l0.5-8.4l6.9-2.3l3.2-13.8l12.8-3.8l6.4-0.8l8.7-10l0.5-12.3h4.6
		l5.5,34.5l3.7-1.5l6-13l1.8-23.8l6-3.1l3.7,12.3l4.1-3.1l1.4-6.1l3.7,3.1l2.7-1.5v-8.4l4.1,0.8l11.9-49.1l3.1-38.2
		c4.6,0,9.2,0,13.8,0c34.9,0.1,74.7,13.7,115.2,30.4c0.6,0.4,1,1,1,1l0.1,0.1l-0.4,0.4c-3.5-1.5-9.5-2.5-12.3-2.5l0.1-2.8l0.1,0
		l0.2-0.6c-1.4-0.7-2.9,0.4-2.9,0.4c1-0.2,2.1,0.2,2.1,0.2l0.1,0l-0.6,2.9c-0.2,0-0.3,0.1-0.4,0.1c0,0-4.5,17.2-5.9,26.3l-0.1,0
		c-0.4-0.8-4,7.1-3.3,8c0.6,0.8,2.9,1.7,5.2,0.6c2.1-1,7.9-10,5.3-9.5c2.4-2.5,5.3-8.3,5.3-8.3s-0.3,0.4-0.9,0.9
		c1.9-3.1,3.7-6.3,5.2-8.9c0,0,0,0,0.1,0l0,0.3c2.8,0.4,4.8,1.8,6,4c4.7,8.5-3.2,26.9-3.2,27.1l0.5,0.2c-2-0.6-3.9-0.8-4,0
		c-0.2,0-0.3,0-0.4,0c-0.1,0-0.1,0-0.2,0.1c0,0,0,0,0,0c0,0-0.1,0.1-0.1,0.1c0,0,0,0,0,0c0,0-0.1,0.1-0.1,0.1c0,0,0,0,0,0
		c-0.2,0.3-0.2,0.8-0.2,1.3c-0.3,0.5,0.4,2,1,2.2c0.4,0.1,1.6,0.3,2.4,0.4c0.8,0.4,1.5,0.9,2,1.3c0,0,0,0,0,0
		c0.5,0.4,0.9,0.8,1.2,1.2c0,0,0,0,0,0c0,0,0,0,0,0c0.3,0.5,1.8,1.3,3.2,1.7c-0.3,0.5-0.5,1-0.5,1.3c-0.2,0.9,0.4,1.5,1.2,1.1
		c0.7-0.4,1.1-0.8,0.8-2.2c0.1,0,0.2,0,0.3,0c0,0.5,0.1,1.1,0.2,1.4c0.4,0.9,1.4,1.2,2.1,0.4c0.7-0.8,0.8-1.5-1-2.9
		c0-0.1,0.1-0.1,0.1-0.2c0.7-1,1.4-2.4,1.7-3.7c1.9-2.5,4.4-3.2,7.2-2.1c2.3,0.9,4.1,2.4,5.3,4.2c-0.3,1.2-0.5,2.4-0.5,3.6
		c0,1.1,0.2,1.8,0.6,2.4c0.1,0.5,0.2,0.9,0.3,1.4c0.2-0.2,0.5-0.4,0.7-0.6c0.1,0,0.2,0.1,0.3,0.1c-0.1,0.5-0.2,1-0.4,1.6
		c0,0.1-0.1,0.1-0.1,0.2c0,0,0,0.1,0,0.1l1-1.2c0,0.1,0.1,0.3,0.1,0.4c0.3,1.1,1,2.2,2,2.8c0,0,0,0,0,0c0.2,1.6,2,13.4,4.9,14.3
		c2.6,0.7,10.2-4.3,13.3-6.8c0.7,1.2,2.4,1.6,4.4,0.8c0,0,0,0,0,0c0.1,0,0.2-0.1,0.3-0.2c0.4-0.2,0.9-0.4,1.3-0.7c2-0.8,4-2,4.7-2.6
		c1.4-1.2,7.6-5.1,9-8.2c0,0-5.5,2.4-9.3,7c-0.7,0.9-1.5,1.6-2.2,2.1c2.4-2.6,4.9-11.6,8.2-16.4c0,0,0,0,0,0c0.5-0.7,1-1.3,1.5-1.8
		c0.1,0,0.1-0.1,0.2-0.1c0,0,0.1-0.1,0.1-0.1c0.1-0.1,0.2-0.2,0.4-0.3c0.1-0.2,0.2-0.4,0.3-0.6c0.4-1.1,1.1-2.8,1.7-4.7
		c2.4,10.3-1.7,28.5-1.8,29c-1.9-0.5-3.6-0.6-3.8,0.1c-0.2,0-0.3,0-0.4,0c-0.1,0-0.1,0-0.2,0.1c0,0,0,0,0,0c0,0-0.1,0.1-0.1,0.1
		c0,0,0,0,0,0c0,0-0.1,0.1-0.1,0.1c0,0,0,0,0,0c-0.2,0.3-0.2,0.8-0.2,1.3c-0.3,0.5,0.4,2,1,2.2c0.4,0.1,1.6,0.3,2.4,0.4
		c0.8,0.4,1.5,0.9,2,1.3c0,0,0,0,0,0c0.5,0.4,0.9,0.8,1.2,1.2c0,0,0,0,0,0c0,0,0,0,0,0c0.3,0.5,1.8,1.3,3.2,1.7
		c-0.3,0.5-0.5,1-0.5,1.3c-0.2,0.9,0.4,1.5,1.2,1.1c0.7-0.4,1.1-0.8,0.8-2.2c0.1,0,0.2,0,0.3,0c0,0.5,0.1,1.1,0.2,1.4
		c0.4,0.9,1.4,1.2,2.1,0.4c0.7-0.8,0.8-1.5-1-2.9c0-0.1,0.1-0.1,0.1-0.2c0.7-1,1.4-2.4,1.7-3.7c1.9-2.5,4.4-3.2,7.2-2.1
		c2.3,0.9,4.1,2.4,5.3,4.2c-0.3,1.2-0.5,2.4-0.5,3.6c0,1.1,0.2,1.8,0.6,2.4c0.1,0.5,0.2,0.9,0.3,1.4c0.2-0.2,0.5-0.4,0.7-0.6
		c0.1,0,0.2,0.1,0.3,0.1c-0.1,0.5-0.2,1-0.4,1.6c0,0.1-0.1,0.1-0.1,0.2c0,0,0,0.1,0,0.1l1-1.2c0,0.1,0.1,0.3,0.1,0.4
		c0.3,1.1,1,2.2,2,2.8c0,0,0,0,0,0c0.2,1.6,2,13.4,4.9,14.3c2.6,0.7,10.2-4.3,13.3-6.8c0.7,1.2,2.4,1.6,4.4,0.8c0,0,0,0,0,0
		c0.1,0,0.2-0.1,0.3-0.2c0.4-0.2,0.9-0.4,1.3-0.7c2-0.8,4-2,4.7-2.6c1.4-1.2,7.6-5.1,9-8.2c0,0-5.5,2.4-9.3,7
		c-0.7,0.9-1.5,1.6-2.2,2.1c2.4-2.6,4.9-11.6,8.2-16.4c0,0,0,0,0,0c0.5-0.7,1-1.3,1.5-1.8c0.1,0,0.1-0.1,0.2-0.1
		c0,0,0.1-0.1,0.1-0.1c0.1-0.1,0.2-0.2,0.4-0.3c0.1-0.2,0.2-0.4,0.3-0.6c1.3-3.2,4.5-12.8,5.4-15.3c0.1-0.4,0.2-0.6,0.2-0.6
		l-0.2-0.1c17.2,4.9,33.6,7.9,48.6,7.9c28.5,0,63.9-9.2,101.1-21.8v22.5c-10,1.6-17.7,10.2-17.7,20.6v13.7c0,1.8,1.4,3.2,3.2,3.2
		c1.8,0,3.2-1.4,3.2-3.2v-13.7c0-7,4.7-12.7,11.2-14.1v36.9c0,1.8,1.4,3.2,3.2,3.2s3.2-1.4,3.2-3.2v-24.3c7.3,1.5,12.8,8,12.8,15.7
		v4.3c0,1.8,1.4,3.2,3.2,3.2s3.2-1.4,3.2-3.2v-4.3c0-11.3-8.4-20.7-19.2-22.2V176c77.9-27,162.4-67.2,208.1-67.3
		c45.5-0.1,85.2-0.2,117.4-0.3l2.5,31l-10.4,29.7l0,0.2l-14.7,12.2l-34.2,4.4l-22.4,12.7c-0.6,0-1.1,0.1-1.7,0.1
		c-1.8,0.1-3.5,0.3-5.2,0.5c-1.6,0.2-3,0.4-4.3,0.6c-18.6,2.9-16.5,7.7-13.4,10.5c0.1,0,0.1,0.1,0.2,0.1c0.1,0.1,0.3,0.2,0.4,0.4
		c1.3,1,2.5,1.6,2.5,1.6c0,0-26.9,8.3-35.3,15.6c-9.5,8.2,15.8,22.7,70.9,5.9c0,0,18.6,9.2,57.3-5.8c0,0,0,0,0,0c0,0,0,0,0,0
		c3.1-1.2,6.2-2.5,9.6-4c0,0,42.9-1.8,64.3-13.7c9.9-5.5,10.2-8.8,10.2-8.8s71.3-11.3,74.8-14.8c9.2-9.5-64.1,1.7-64.1,1.7
		s-2.4-5.3-21.5-4.1l-9.3-5.2l-26.4-8.9l-3.6-5.8l-11.3-22.5l-9.7-3.2l0.3-30.4c38.1-0.1,64.9-0.3,77.4-0.5
		c76.8-1.8,135.9-42.6,174.2-107.8L0.2,0C0.2,3-0.2,9,0.2,12.9z M3766.8,187l34.2-4.3l13.1-9.5l-5,17.8l-7.7,6.2
		c-14.8,0.8-28.3,0.7-40.1,0.8l4-10.1L3766.8,187z M3849.5,180.3l0.9-11.7l11.1,17.7l2.2,1.8c-2.1,0.5-4.3,1-6.7,1.5
		c-4.5,1.1-9,2-13.5,2.8L3849.5,180.3z M3763.7,188.8l-4.9,9.2c-4.1,0.1-8,0.2-11.7,0.3L3763.7,188.8z M3878.3,179.9l7.4,4.6
		c-5.5,0.5-12.1,1.5-20.3,3.2l-3.1-2.1l-8.2-13.3L3878.3,179.9z M3848,164.7l0.1,15.3l-6.4,12.8c-13.1,2.3-25.6,3.6-37.3,4.2
		l6.1-5.7l5.6-21.9l11.8-28.5l8.8,1.7L3848,164.7z M3233.3,178.5c-1.1-0.8-2.3-1.5-3.6-2.1c-5.5-2.4-12.3,0.3-14.3,2.1
		c-1.4,0.1-2.9,0.5-3.7,0.9c-0.6-0.3-1.4-0.6-2.2-0.9c0.5-1.1,8-19.1,3.2-28c-1-1.9-2.6-3.2-4.5-4c-0.6-0.2-1.3-0.4-2-0.5
		c1.9-3.4,3.1-5.8,3.1-5.8c-0.1-0.1-0.2-0.1-0.3-0.2l0.3-0.4l0.1,0l0.5-0.4c0,0-0.1-0.1-0.1-0.1c11,4.6,22.1,9.4,33.2,14.2
		c-1,4.6-2.8,13.5-2.8,13.9C3240,167.8,3236,172.8,3233.3,178.5z M3240.1,176.3c0.4-3.8,0.7-7.3,0.7-7.8c0-0.9,2.4-9.8,3.6-14.2
		c1.4,0.6,2.8,1.2,4.2,1.8c-1.2,4.3-3.8,13.6-3.9,14c0,0,0,0,0,0c0,0,0,0,0,0.1c0,0,0,0.1-0.1,0.1c0,0,0,0,0,0c0,0-0.1,0.1-0.1,0.2
		c0,0,0,0,0,0c0,0.1-0.1,0.1-0.2,0.2c0,0,0,0,0,0c-0.4,0.5-1,1.3-1.8,2.3c0,0,0,0,0,0C3241.8,173.9,3241,175,3240.1,176.3z
		 M3247.8,196.9c0,0-0.1,0-0.1,0c0.1,0,0.1-0.1,0.2-0.2C3247.8,196.8,3247.8,196.9,3247.8,196.9z M3244.1,178.2
		c0.7-3.5,1.2-6.7,1.3-7.2c0-0.2,0.1-0.6,0.3-1.3c0.8-2.4,2.7-7.7,4-11.3c0,0,0,0,0-0.1c0.1-0.1,0.1-0.3,0.1-0.4
		c0-0.1,0.1-0.2,0.1-0.2c0-0.1,0.1-0.2,0.1-0.2c0-0.1,0.1-0.2,0.1-0.3c0-0.1,0.1-0.1,0.1-0.2c0,0,0-0.1,0.1-0.1
		c5.4,2.4,10.8,4.7,16.2,7c-0.1,1.4-0.3,3-0.5,4.7c-4.5,0.8-10.4,4.7-17.7,11.6C3247,179.3,3245.5,178.6,3244.1,178.2z
		 M3254.8,185.4c-1.7-1.7-3.6-3.3-5.6-4.7c6.1-5.7,12-10.2,16.7-11.1c-0.4,3.7-1,7.4-1.4,8C3262,181.3,3258.5,182.2,3254.8,185.4z
		 M3271.7,179.4c-0.2,0.6-0.5,1.1-0.6,1.4c0,0.1-0.1,0.1-0.1,0.2c-1,1.4-2.1,2.4-3.1,3.2c-0.3,0.2-0.5,0.4-0.8,0.6
		c-0.5,0.4-1.1,0.8-1.7,1.2c-0.7,0.5-1.5,1.1-2.4,1.8c-0.2,0.1-0.3,0.3-0.5,0.4c-0.9,0.7-1.8,1.6-2.9,2.7c-0.2-0.3-0.4-0.5-0.6-0.8
		c2.2-5,4.6-10.1,6.6-11.5c0.5-1.3,1.1-5.4,1.7-9.2c1.1,0,2,0.1,2.9,0.5c1.5,0.8,2.6,2.3,3.4,4.2
		C3272.9,176.2,3272.2,178.1,3271.7,179.4z M3274,172.8c-0.8-1.7-1.9-3-3.4-3.7c-0.2-0.1-0.4-0.2-0.6-0.2c-0.8-0.3-1.7-0.4-2.6-0.4
		c0.2-1.5,0.4-2.8,0.5-4c2.5,1.1,5.1,2.2,7.6,3.2C3275.1,169.1,3274.5,171,3274,172.8z M3296.9,205.5c-1.1-0.8-2.3-1.5-3.6-2.1
		c-5.5-2.4-12.3,0.3-14.3,2.1c-1.4,0.1-2.9,0.5-3.7,0.9c-0.7-0.4-1.6-0.7-2.5-1l0,0l0.5,0.1c0.2-1,4.6-20.5,1.4-30.8
		c0.8-2.3,1.6-4.7,2.3-6.5c10,4.2,19.8,8.2,29.5,11.9c-0.9,4.5-2.9,13.8-2.9,14.2C3303.6,194.8,3299.6,199.7,3296.9,205.5z
		 M3303.7,203.2c0.4-3.8,0.7-7.3,0.7-7.8c0-0.9,2.5-10.3,3.7-14.6c1.4,0.5,2.9,1.1,4.3,1.6c0,0.1-0.1,0.2-0.1,0.4
		c-1.2,4.2-3.9,13.8-4,14.3c0,0,0,0,0,0c0,0,0,0,0,0.1c0,0,0,0.1-0.1,0.1c0,0,0,0,0,0c0,0-0.1,0.1-0.1,0.2c0,0,0,0,0,0
		c0,0.1-0.1,0.1-0.2,0.2c0,0,0,0,0,0c-0.4,0.5-1,1.3-1.8,2.3c0,0,0,0,0,0C3305.5,200.9,3304.6,202,3303.7,203.2z M3318.4,212.4
		c-3.1-3.1-6.9-6.1-10.7-7.2c0.7-3.5,1.2-6.7,1.3-7.2c0-0.2,0.1-0.6,0.3-1.3c0.8-2.4,2.7-7.7,4-11.3c0,0,0,0,0-0.1
		c0.1-0.1,0.1-0.3,0.1-0.4c0-0.1,0.1-0.2,0.1-0.2c0-0.1,0.1-0.2,0.1-0.2c0-0.1,0.1-0.2,0.1-0.3c0-0.1,0.1-0.1,0.1-0.2
		c0.1-0.3,0.2-0.6,0.3-0.8c5.4,2,10.8,3.9,16.1,5.6c-0.3,3.6-1.5,14.7-2.3,15.9C3325.7,208.3,3322.1,209.2,3318.4,212.4z
		 M3335.3,206.3c-0.2,0.6-0.5,1.1-0.6,1.4c0,0.1-0.1,0.1-0.1,0.2c-1,1.4-2.1,2.4-3.1,3.2c-0.3,0.2-0.5,0.4-0.8,0.6
		c-0.5,0.4-1.1,0.8-1.7,1.2c-0.7,0.5-1.5,1.1-2.4,1.8c-0.2,0.1-0.3,0.3-0.5,0.4c-0.9,0.7-1.8,1.6-2.9,2.7c-0.2-0.3-0.4-0.5-0.6-0.8
		c2.2-5,4.6-10.1,6.6-11.5c0.8-2.4,2.3-13.5,2.7-16.5c2.8,0.9,5.5,1.7,8.2,2.5C3339.6,192.9,3336.9,202.4,3335.3,206.3z
		 M2888.6,121.5c-2.7,0-4.9-2.2-4.9-4.9v-9.2c3.3,0,6.6,0,9.9,0.1v9.2C2893.5,119.3,2891.3,121.5,2888.6,121.5z M2973,212.6h-9.9
		v-10h9.9V212.6z M2973,152h-9.9v-9.9h9.9V152z M3018.9,182.5h-9.9v-10h9.9V182.5z M3023.9,123.5c0,5.5-4.4,9.9-9.9,9.9
		s-9.9-4.4-9.9-9.9v-15.5c6.6,0,13.2,0,19.9,0.1V123.5z M1606.1,149.7c0.2,0,0.4,0,0.6,0c-0.7,1.7-1.1,2.9-1.1,2.9
		C1605.8,151.5,1605.9,150.6,1606.1,149.7z M1679.9,160.4c0.6,3-0.6,8.5,0.6,15.8c0.6,6.7,6.1,32.3,6.1,32.3c-3-1.2-11,1.2-11,1.2
		c-26.8-6.1-52.4,10.4-52.4,10.4c-0.6-9.7-8.5-9.7-5.5-12.8c-0.6-3.7-7.3-14.6-7.3-14.6c-1.2-6.7-0.6-16.4-1.2-24.4
		c-0.3-4.6,2-12.2,4.8-18.8c22.3-0.2,44-0.6,65.2-1.2C1679.5,153.9,1679.7,159.2,1679.9,160.4z M841.9,106.9c-0.4,0.5-0.8,0.9-1,1.5
		c-0.2,0.7,0.1,1.5,0.4,2.2c1.7,5.1-1.3,10.4-2.3,15.7c-0.1,0.4-0.1,0.9-0.1,1.6c-0.4,0.2-0.7,0.5-1,0.8c-0.1-0.4-0.3-0.7-0.4-1.1
		c-0.4-1.4-0.5-2.8-0.5-4.2c-0.2-5,0.1-10-0.6-14.9c-0.1-0.8-0.3-1.5-0.2-2.3c0.2-1.9,1.8-3.4,1.9-5.3c1.7-0.2,3.4-0.3,5.1-0.4
		c0,0.2,0.1,0.4,0.1,0.6C843.8,103,843.2,105.2,841.9,106.9z M892.4,118.9c-0.2,0.8-0.6,1.9-0.9,3c-0.7,1-1.4,2.1-1.6,3.3
		c-0.2,1.2,0,2.4,0,3.6c0,0,0,0.1,0,0.1c-0.6-1.2-1.4-2.4-2.1-3.6c-1.5-2.7-2.5-5.6-3.4-8.6c-1.3-4.1-2.4-9,0.1-12.5
		c0.8-1.1,1.9-2,2.8-3c2.4,0.2,4.8,0.4,7.3,0.6C894.7,107.6,894,113.4,892.4,118.9z M859.2,100c6.3,0.1,13,0.4,19.8,0.8
		c-0.1,1-0.2,1.9-0.5,2.8c-0.2,0.6-0.5,1.2-0.6,1.8c-0.1,1.1,0.3,2.2,0.7,3.3c1.6,4.4,2.4,9.1,2.4,13.8c0,2.1-0.2,4.2,0.4,6.1
		c0.5,1.6,1.4,3.1,2.2,4.6c1.4,2.8,2.3,5.9,2.5,9c-0.3,0.8-0.5,1.7-0.8,2.5c-0.6,1.7-1.2,3.5-2.5,4.8c-1.9,1.8-4.9,2.2-6.5,4.3
		c0,0.1-0.1,0.1-0.1,0.2c-2.6,1.5-5.2,2.8-7.9,3.9c-1.5,0.6-2.9,1.2-4.4,1.9c0-1-0.1-1.9-0.1-2.8c-0.1-2.2-0.3-4.6-1.4-6.5
		c-1-1.7-2.6-3-4.2-4.2c-3.3-2.5-6.5-5.1-10.2-7c-0.9-0.5-1.8-0.9-2.7-1.4c-0.1-1.8-0.2-3.6-0.4-5.4c-0.1-1.1-0.4-2.4-0.9-3.4
		c0.5-2.4,0.5-5.6,0.8-7c1-4.8,2.1-9.5,3.3-14.3c0.6-2.3,1.3-4.8,3.2-6.2c0.7-0.5,1.6-1,1.8-1.8C855.1,100,857.1,100,859.2,100z"/>
	<path class="elementor-shape-fill ha-shape-divider" d="M639.6,210.6c0.7,1.9,1.5,3.6,2.2,5.1C641.8,215.6,641,213.8,639.6,210.6z"/>
</g>
</svg>
