<svg xmlns="http://www.w3.org/2000/svg" viewBox="0 0 4080 400" preserveAspectRatio="none">
<path class="elementor-shape-fill ha-shape-divider" d="M3837.5,142.4c-65-31.9-111.5-24.1-145.5,5.4c-4.2,3.7-17.6,8.1-17.2,39.8c0.5,31.6,4.1,164.4,3.2,169.8
	c-0.9,5.4-4.1,8.1-8.6,7.7c-4.5-0.5-7.7-3.6-6.8-13.1c0.9-9.5,1.5-135.4-0.2-153.1c-1.7-17.6,7.5-45.2-13.8-60.5
	c-21.2-15.4-47.1-9.5-45.7,11.7c1.4,21.2,1.7,27.9-0.1,33c-2.2,6.5-12.1,5-11.2-8.1c0.9-13.1,4.1-39.3-6.3-45.7
	c-10.4-6.3-31.2-6.3-46.1-5s-85,1.4-99,1.8c-14,0.5-43,6.6-73.7,20.8c-90.9,42-178.6,37.1-178.6,37.1c-36.9,4.4-56.8-3.4-86.4-3.4
	c-29.6,0-29.1,22.3-29.1,22.3v34c0,2.8-2.4,5.1-5.3,4.8c-2.5-0.2-4.4-2.5-4.4-5V203c0-14.6-14.1-22.8-38.8-6.3
	c-24.7,16.5-23.8,42.2-23.8,42.2v143.7c0,4.4-3.3,8.2-7.7,8.4c-4.8,0.3-8.7-3.6-8.6-8.3l3.9-119.6c0.5-14.8-1-29.6-4.2-44.1
	c0-6.6-5.3-11.9-11.9-11.9h-0.9c-7.1,0-12.8,5.7-12.8,12.8v14.6c0,4.6-3.9,8.3-8.5,7.9c-4.2-0.3-7.4-4-7.3-8.3
	c0.1-6.9-0.6-16.8-4.5-25.4c-6.8-15-22.8-12.1-44.6-8.7c-21.8,3.4-23.3-9.7-42.2-17.5c-18.9-7.8-34,4.4-61.1,7.3
	c-27.2,2.9-47.6-9.7-76.7-20.9c-29.1-11.2-54.6-4.3-93.2,2.4c-96,16.6-168.8,5-168.8,5c-47.1-2.4-72.3-14.1-108.7-11.2
	c-36.4,2.9-35.7,59.7-35.7,59.7l4.7,143.7c0,5.1-3.9,9.4-9,9.9c-5.8,0.6-10.9-4-10.9-9.9V233.2c0-17.5,0-34-16-32
	c-16,1.9-24.3,14.6-26.7,20.4c-1.4,3.3-1.2,11.9-0.8,18.8c0.3,5.4-4,10-9.5,9.8c-5-0.1-8.9-4.3-9.1-9.3c-0.2-5.4-0.7-12.6-2-20.8
	c-2.9-17.5-29.6-6.3-45.6,10.2c-16,16.5-16,36.4-16,36.4v111.2c0,5.4-4.3,10.9-9.5,12.2c-6.6,0.9-12.4-4.2-12.4-10.8
	c-0.1-27.6,4-87.9,4.4-107.2c0.5-24.7-19.4-38.3-33-39.3c-0.1,0-0.3,0-0.4,0c-9.2-0.6-17,6.7-17.2,15.9
	c-0.6,29.4-1.9,101.3-0.4,116.5c1.9,18.9-0.5,26.7-9.2,26.7c-2.2,0-4-0.5-5.4-1.3c-3.8-2-5.8-6.1-5.6-10.4
	c1.1-18.9,6.6-104.6,7.1-116.8c0.5-13.6-2.4-34.5-18.9-34.5c-16.5,0-20.4,29.6-20.4,37.9s-1,10.7-7.3,10.7s-7.3-5.3-7.3-5.3
	s0-13.6,0-17.5c0.1-8.5-6.9-13.9-17-21.8c-17.4-13.7-82.6-22.3-91.4,26.7c-2,11.3-1.3,83.8-0.3,100.3c1,16.5-0.2,24.6-10.2,23.8
	c-10.7-0.9-8.6-12.6-8.6-12.6s-1.1-67.8-0.1-92.5s-3.9-77.6-42.7-77.6s-39.2,48-39.2,48l3.7,114.9c0,0,2.4,21.8-10.7,21.8
	s-11.6-20.4-11.6-20.4s2.9-86.2,0-119.2c-2.9-33-21.6-49.3-34.9-45.1c-14.2,4.4-12.6,46.1-12.1,55.8c0.5,9.7-4.4,11.2-9.7,11.2
	c-2.9,0-4.6-2.6-5.4-5c-0.7-1.8-0.9-3.8-0.8-5.7c0.4-6.1,1-25.5-2.6-45.6c-4.4-24.3-42.2-21.4-59.2-11.2c-17,10.2-60,8.4-93-9
	l-53.4-37.5c-5.6-3.9-11.9-6.9-18.6-8.4c-16.8-3.7-37.5-1.1-40.5,15.9c-4.1,22.6-2.3,44.3-2.3,44.3s0.7,8-5.9,8.1
	c-5,0.1-9.3-1.3-9-10.4c1.5-57.9-96.2-14.9-118.2-10.5c-7.9,1.6-15.6,11.2-15.6,19.3l2,159.9c0,5.8-4.7,10.4-10.4,10.4
	s-10.4-4.7-10.4-10.4l3.8-127.3c0-41.2-20.3-54-37.3-54s-15.5,18-15.5,18v34.7c0,5.4-4.6,9.8-10.1,9.4c-5-0.3-8.8-4.7-8.8-9.8v-42.6
	c0-44.6-89-4.1-155.4-4.1c0,0-51.5,5.4-124.4-1.8c-48.9-3-51.1,7.9-53,24c-0.3,2.5-3.8,43.7-3.9,47.5c-0.1,3.7-0.9,7.3-6,7.3
	c-11.6,0-5.9-28.9-7.1-52.4c-2.4-47.5-64.5-54.6-88.6-60.3c-123.4-29.3-185.2-28.5-214.9-27.1c-16.1,0.7-38.3-1.5-49.5,5.3
	c-11.2,6.8-7.8,34.9-6.8,49c1,14.1-9.5,14.4-12,8.7c-2.3-5.3-1.5-12.6-0.1-35.4s-16-29.1-38.8-12.6s-23.3,46.1-25.1,65
	c-1.8,18.9-1.1,113.6-0.2,123.7c1,10.2-2.4,13.6-7.3,14.1c-4.9,0.5-8.2-2.4-9.2-8.2s2.9-107.7,3.4-141.7c0.5-34-12.6-41.2-18.4-42.7
	c-5.8-1.5-11.6,3.4-11.6,17c0,13.6-2.3,26.6-11.2,21.4c-6.9-4.1-1.9-27.7-11.6-43.7s-68.9-3.3-121.8-0.4
	c-27.7,1.5-97.9-1.5-158.4-4.7C44.8,145.2,0,98,0,40.7V400h4080V37.9C4080,91.2,4008,226.2,3837.5,142.4z"/>
</svg>
