<svg xmlns="http://www.w3.org/2000/svg" viewBox="0 0 4080 400" preserveAspectRatio="none">
<path class="elementor-shape-fill ha-shape-divider" d="M0,0l0,40.7C0,98,44.8,145.2,101.9,148.2c60.5,3.2,130.7,6.2,158.4,4.7c52.9-2.9,112.1-15.7,121.8,0.4s4.8,39.7,11.6,43.7
	c8.9,5.3,11.2-7.8,11.2-21.4c0-13.6,5.8-18.4,11.6-17c5.8,1.5,18.9,8.7,18.4,42.7c-0.5,34-4.4,135.9-3.4,141.7s4.4,8.7,9.2,8.2
	c4.9-0.5,8.2-3.9,7.3-14.1c-1-10.2-1.6-104.8,0.2-123.7c1.8-18.9,2.3-48.5,25.1-65s40.3-10.2,38.8,12.6s-2.3,30.2,0.1,35.4
	c2.5,5.6,13,5.3,12-8.7c-1-14.1-4.4-42.2,6.8-49c11.2-6.8,33.4-4.6,49.5-5.3c29.7-1.3,91.5-2.2,214.9,27.1
	c24,5.7,86.2,12.8,88.6,60.3c1.2,23.6-4.5,52.4,7.1,52.4c5.1,0,5.9-3.7,6-7.3c0.1-3.8,3.6-45,3.9-47.5c1.9-16.1,4.1-27,53-24
	c72.9,7.2,124.4,1.8,124.4,1.8c66.5,0,155.4-40.5,155.4,4.1v42.6c0,5,3.8,9.4,8.8,9.8c5.5,0.4,10.1-4,10.1-9.4v-34.7
	c0,0-1.5-18,15.5-18s37.3,12.7,37.3,54l-3.8,127.3c0,5.8,4.7,10.4,10.4,10.4s10.4-4.7,10.4-10.4l-2-159.9c0-8.1,7.7-17.7,15.6-19.3
	c22-4.3,119.7-47.3,118.2,10.5c-0.2,9,4.1,10.5,9,10.4c6.6-0.2,5.9-8.1,5.9-8.1s-1.8-21.7,2.3-44.3c3.1-17,23.7-19.7,40.5-15.9
	c6.7,1.5,13,4.4,18.6,8.4l53.4,37.5c33,17.4,76,19.2,93,9c17-10.2,54.8-13.1,59.2,11.2c3.6,20,2.9,39.4,2.6,45.6
	c-0.1,1.9,0.1,3.9,0.8,5.7c0.9,2.4,2.5,5,5.4,5c5.3,0,10.2-1.5,9.7-11.2c-0.5-9.7-2-51.4,12.1-55.8c13.3-4.2,32,12.1,34.9,45.1
	c2.9,33,0,119.2,0,119.2s-1.5,20.4,11.6,20.4s10.7-21.8,10.7-21.8l-3.7-114.9c0,0,0.4-48,39.2-48s43.7,52.9,42.7,77.6
	s0.1,92.5,0.1,92.5s-2.1,11.8,8.6,12.6c10,0.8,11.2-7.3,10.2-23.8c-1-16.5-1.7-89,0.3-100.3c8.8-48.9,74-40.4,91.4-26.7
	c10.1,7.9,17.1,13.3,17,21.8c0,3.9,0,17.5,0,17.5s1,5.3,7.3,5.3s7.3-2.4,7.3-10.7s3.9-37.9,20.4-37.9c16.5,0,19.4,20.9,18.9,34.5
	c-0.4,12.2-5.9,97.9-7.1,116.8c-0.3,4.2,1.8,8.4,5.6,10.4c1.5,0.8,3.3,1.3,5.4,1.3c8.7,0,11.2-7.8,9.2-26.7
	c-1.6-15.2-0.2-87.1,0.4-116.5c0.2-9.2,8-16.4,17.2-15.9c0.1,0,0.3,0,0.4,0c13.6,1,33.5,14.6,33,39.3c-0.4,19.3-4.5,79.6-4.4,107.2
	c0,6.6,5.8,11.7,12.4,10.8l0,0c5.2-1.3,9.5-6.8,9.5-12.2V266.7c0,0,0-19.9,16-36.4c16-16.5,42.7-27.7,45.6-10.2
	c1.4,8.2,1.9,15.4,2,20.8c0.1,5,4.1,9.2,9.1,9.3c5.5,0.1,9.8-4.5,9.5-9.8c-0.4-6.8-0.6-15.5,0.8-18.8c2.4-5.8,10.7-18.4,26.7-20.4
	c16-1.9,16,14.6,16,32v135.4c0,5.9,5.1,10.5,10.9,9.9l0,0c5.1-0.5,9-4.8,9-9.9l-4.7-143.7c0,0-0.7-56.8,35.7-59.7
	c36.4-2.9,61.6,8.7,108.7,11.2c0,0,72.7,11.7,168.8-5c38.6-6.7,64.1-13.6,93.2-2.4c29.1,11.2,49.5,23.8,76.7,20.9
	c27.2-2.9,42.2-15,61.1-7.3c18.9,7.8,20.4,20.9,42.2,17.5c21.8-3.4,37.9-6.3,44.6,8.7c3.9,8.6,4.6,18.5,4.5,25.4
	c-0.1,4.2,3.1,8,7.3,8.3c4.7,0.3,8.5-3.4,8.5-7.9v-14.6c0-7.1,5.7-12.8,12.8-12.8h0.9c6.6,0,11.9,5.3,11.9,11.9v0
	c3.3,14.4,4.7,29.3,4.2,44.1l-3.9,119.6c-0.1,4.7,3.8,8.6,8.6,8.3c4.4-0.2,7.7-4.1,7.7-8.4V238.9c0,0-1-25.7,23.8-42.2
	c24.7-16.5,38.8-8.2,38.8,6.3v33.8c0,2.5,1.9,4.8,4.4,5c2.9,0.3,5.3-2,5.3-4.8v-34c0,0-0.5-22.3,29.1-22.3c29.6,0,49.5,7.8,86.4,3.4
	c0,0,87.7,4.8,178.6-37.1c30.7-14.2,59.7-20.3,73.7-20.8c14-0.5,84.1-0.5,99-1.8s35.7-1.4,46.1,5c10.4,6.3,7.2,32.5,6.3,45.7
	c-0.9,13.1,9,14.6,11.2,8.1c1.7-5.1,1.4-11.8,0.1-33c-1.4-21.2,24.5-27.1,45.7-11.7c21.2,15.4,12.1,42.9,13.8,60.5
	c1.7,17.6,1.1,143.6,0.2,153.1c-0.9,9.5,2.3,12.7,6.8,13.1c4.5,0.5,7.7-2.3,8.6-7.7c0.9-5.4-2.7-138.1-3.2-169.8
	c-0.5-31.6,13-36.1,17.2-39.8c34.1-29.6,80.6-37.4,145.5-5.4C4008,226.2,4080,91.2,4080,37.9V0L0,0z"/>
</svg>
