<svg xmlns="http://www.w3.org/2000/svg" viewBox="0 0 4080 400" preserveAspectRatio="none">
<path class="elementor-shape-fill ha-shape-divider" opacity="0.2" d="M0,0v181.3c9.9,5.5,24.8,19.8,34.1,62.3c9.3,42.4,49,72.2,49,72.2c-24.2-32-34.1-103.6,0-104.7
	s23,40.2,23,40.2c15.5-11.6,9.9-42.4,9.9-42.4c28.5,24.8,14.9,64.5,14.9,64.5c13-17.1,18.6-38,6.8-82.1
	c-11.8-44.1,65-62.3,70.7-25.9c5.1,32.8-18,36.4-26.7,68.9c-8.7,32.5,32.3,53.5,32.3,53.5c-20.5-51.8,18.6-70,18.6-70
	c1.9,25.4,24.8,38.6,24.8,38.6c-13.6-24.3,0.7-50,16.7-54c15.7-3.9,45.3,0.6,36,38.6c-9.3,38,4.3,60.6,4.3,60.6
	c-1.2-18.7,11.2-32,11.2-32c-2.5,35.8,3.7,41.3,17.4,62.3c13.6,20.9,0,43.5,0,43.5c81.3-27,66.4-106.4,66.4-106.4
	c31,28.1,6.2,72.8,6.2,72.8c26.7-20.4,29.2-43,21.7-105.8c-7.4-62.8,27.9-60.6,27.9-60.6c-13,63.9,40.3,86,40.3,86
	c-42.2-42.4-6.2-90.9,21.1-90.9c27.3,0,37.9,19.8,37.8,46.3c0,29.2,24.2,39.1,24.2,39.1c-10.5-10.5-18.6-57.3,10.5-55.7
	c29.2,1.7,14.9,48-0.6,86.5c-15.5,38.6,23,63.9,23,63.9s-40.3-61.7,9.9-59.5c50.2,2.2,19,78.3,19,78.3c43.8-48,17.6-93.7,6.5-116.3
	c-11.2-22.6-13-93.7,37.8-93.7c50.9,0,50.2,68.9,44,91.5s8.7,39.1,8.7,39.1c-9.3-27,14.9-43,32.9-16.5c18,26.5,1.9,78.3,1.9,78.3
	c45.3-49.6,4.3-100.3-4.3-125.1c-8.7-24.8,3.1-55.1,26.7-55.1c23.6,0,34.7,14.9,30.4,34.7c-4.3,19.8,6.8,35.3,6.8,35.3
	c-2.5-8.8,0.6-39.1,20.5-39.1c19.9,0,32.3,23.7,23,59.5c-9.3,35.8-0.6,45.7,16.7,67.8s-12.4,50.2-12.4,50.2s38.5-17.6,65.1-46.8
	c26.7-29.2-9.3-73.3-8.1-97c1.2-23.7,22.3-24.3,34.7-3.3s-5,55.7-5,55.7c15.5-9.4,23-33.6,18-60.1s6.5-49.6,21.7-49.6
	c13.9,0,24.8,6.6,27.3,29.8c2.5,23.1,30.4,35.8,30.4,35.8c-25.4-38-0.4-54,13-54c12.4,0,22.3,11,22.3,32.5c0,21.5-14.9,40.4-29.8,63
	c-14.9,22.6,12.4,40,12.4,40c-19.2-38.6,25.4-58.4,45.3-30.9c19.9,27.6,5.6,70,5.6,70c31-36.9,4.3-75-6.8-99.2
	c-11.2-24.3-3.1-59.5,27.3-54c30.4,5.5,15.5,44.1,15.5,44.1s19.9-14.3,13.6-56.2s57.7-52.4,54.6-25.4c-3.1,27,10.5,39.1,10.5,39.1
	c-4.3-27,11.8-35.8,11.8-35.8c-5.6,33.6,18.6,52.4,18.6,52.4c-13.6-23.7,1.2-46.3,16.1-46.3c14.9,0,28.5,5,34.1,17.6
	c5.6,12.7,3.7,28.7-11.2,61.2c-15,32.5,0.1,52.9,0.1,52.9c-1.2-14.3,14.3-29.8,14.3-29.8c-1.2,36.4,17.4,46.8,37.2,62.3
	c19.9,15.4,10.5,46.3,10.5,46.3c69.5-32.5,27.9-117.4,27.9-117.4c34.1,22,35.4,71.1,35.4,71.1c14.9-41.3-1.9-68.3-16.7-95.3
	c-14.9-27-5-52.9,3.7-62.8c8.7-9.9,40.3-14.3,44.7,12.7c4.3,27-16.1,49.6-16.1,49.6c14.1-3.3,27.3-19.7,27.3-41.3
	c0-20.5,3.1-39.1,20.5-39.1c17.4,0,27.9,9.9,22.3,40.2s17.4,46.3,17.4,46.3c-10.5-39.1,33.5-22,45.3,9.4
	c11.8,31.4-13.6,71.1-13.6,71.1c27.9-6.6,29.2-33.1,29.2-33.1c29.8,29.8,18.7,68.9,18.7,68.9c29.9-25.9,5.4-77.2,2.3-86.5
	c-3.1-9.4-8.7-56.8,26.1-55.1c34.7,1.7,25.4,44.1,12.4,69.4c31.6-20.4,22-62.8,22-62.8c12.7,5.5,20.8,32.5,20.8,32.5
	c5-20.4-1.2-28.7-16.1-61.2c-14.9-32.5,9.3-50.2,21.7-50.2c12.4,0,36.6,1.1,29.8,39.7s27.9,50.2,27.9,50.2
	c-42.2-45.2,9.9-79.9,32.5-61.5c40.5,33-1.5,89-1.5,89c26.1-11,33.5-31.4,32.9-62.8c-0.6-31.4,15.5-46.3,45.9-46.3s36,34.7,21.7,70
	c-14.3,35.3,4.3,60.1,4.3,60.1c-0.6-29.2,19.2-43.3,19.2-43.3c9.3,64.2,58.9,82.9,58.9,82.9c-56.5-120.2-9.3-165.4,13-165.9
	c31.3-0.7,56.1,28.7,65.4,71.1c9.3,42.4,49,72.2,49,72.2c-24.2-32-34.1-103.6,0-104.7c34.1-1.1,23,40.2,23,40.2
	c15.5-11.6,9.9-42.4,9.9-42.4c28.5,24.8,14.9,64.5,14.9,64.5c13-17.1,18.6-38,6.8-82.1c-11.8-44.1,65-62.3,70.7-25.9
	c5.1,32.8-18,36.4-26.7,68.9c-8.7,32.5,32.3,53.5,32.3,53.5c-20.5-51.8,18.6-70,18.6-70c1.9,25.4,24.8,38.6,24.8,38.6
	c-13.6-24.3,0.7-50,16.7-54c15.7-3.9,45.3,0.6,36,38.6c-9.3,38,4.3,60.6,4.3,60.6c-1.2-18.7,11.2-32,11.2-32
	c-2.5,35.8,3.7,41.3,17.4,62.3s0,43.5,0,43.5c81.3-27,66.4-106.4,66.4-106.4c31,28.1,6.2,72.8,6.2,72.8
	c26.7-20.4,29.2-43,21.7-105.8c-7.4-62.8,27.9-60.6,27.9-60.6c-13,63.9,40.3,86,40.3,86c-42.2-42.4-6.2-90.9,21.1-90.9
	c27.3,0,37.9,19.8,37.8,46.3c0,29.2,24.2,39.1,24.2,39.1c-10.5-10.5-18.6-57.3,10.5-55.7c29.2,1.7,14.9,48-0.6,86.5
	c-15.5,38.6,23,63.9,23,63.9s-40.3-61.7,9.9-59.5c50.2,2.2,19,78.3,19,78.3c43.8-48,17.6-93.7,6.5-116.3
	c-11.2-22.6-13-93.7,37.8-93.7c50.9,0,50.2,68.9,44,91.5s8.7,39.1,8.7,39.1c-9.3-27,14.9-43,32.9-16.5c18,26.5,1.9,78.3,1.9,78.3
	c45.3-49.6,4.3-100.3-4.3-125.1c-8.7-24.8,3.1-55.1,26.7-55.1c23.6,0,34.7,14.9,30.4,34.7c-4.3,19.8,6.8,35.3,6.8,35.3
	c-2.5-8.8,0.6-39.1,20.5-39.1s32.3,23.7,23,59.5c-9.3,35.8-0.6,45.7,16.7,67.8s-12.4,50.2-12.4,50.2s38.5-17.6,65.1-46.8
	c26.7-29.2-9.3-73.3-8.1-97c1.2-23.7,22.3-24.3,34.7-3.3s-5,55.7-5,55.7c15.5-9.4,23-33.6,18-60.1c-5-26.5,6.5-49.6,21.7-49.6
	c13.9,0,24.8,6.6,27.3,29.8c2.5,23.1,30.4,35.8,30.4,35.8c-25.4-38-0.4-54,13-54c12.4,0,22.3,11,22.3,32.5c0,21.5-14.9,40.4-29.8,63
	c-14.9,22.6,12.4,40,12.4,40c-19.2-38.6,25.4-58.4,45.3-30.9c19.9,27.6,5.6,70,5.6,70c31-36.9,4.3-75-6.8-99.2
	c-11.2-24.3-3.1-59.5,27.3-54c30.4,5.5,15.5,44.1,15.5,44.1s19.9-14.3,13.6-56.2c-6.2-41.9,57.7-52.4,54.6-25.4
	c-3.1,27,10.5,39.1,10.5,39.1c-4.3-27,11.8-35.8,11.8-35.8c-5.6,33.6,18.6,52.4,18.6,52.4c-13.6-23.7,1.2-46.3,16.1-46.3
	s28.5,5,34.1,17.6c5.6,12.7,3.7,28.7-11.2,61.2c-15,32.5,0.1,52.9,0.1,52.9c-1.2-14.3,14.3-29.8,14.3-29.8
	c-1.2,36.4,17.4,46.8,37.2,62.3c19.9,15.4,10.5,46.3,10.5,46.3c69.5-32.5,27.9-117.4,27.9-117.4c34.1,22,35.4,71.1,35.4,71.1
	c14.9-41.3-1.9-68.3-16.8-95.3c-14.9-27-5-52.9,3.7-62.8c8.7-9.9,40.3-14.3,44.7,12.7c4.3,27-16.1,49.6-16.1,49.6
	c14.1-3.3,27.3-19.7,27.3-41.3c0-20.5,3.1-39.1,20.5-39.1s27.9,9.9,22.3,40.2s17.4,46.3,17.4,46.3c-10.5-39.1,33.5-22,45.3,9.4
	c11.8,31.4-13.6,71.1-13.6,71.1c27.9-6.6,29.2-33.1,29.2-33.1c29.8,29.8,18.7,68.9,18.7,68.9c29.9-25.9,5.4-77.2,2.3-86.5
	c-3.1-9.4-8.7-56.8,26.1-55.1c34.7,1.7,25.4,44.1,12.4,69.4c31.6-20.4,22-62.8,22-62.8c12.7,5.5,20.8,32.5,20.8,32.5
	c5-20.4-1.2-28.7-16.1-61.2c-14.9-32.5,9.3-50.2,21.7-50.2s36.6,1.1,29.8,39.7s27.9,50.2,27.9,50.2c-42.2-45.2,9.9-79.9,32.5-61.5
	c40.5,33-1.5,89-1.5,89c26.1-11,33.5-31.4,32.9-62.8c-0.6-31.4,15.5-46.3,45.9-46.3c30.4,0,36,34.7,21.7,70
	c-14.3,35.3,4.3,60.1,4.3,60.1c-0.6-29.2,19.2-43.3,19.2-43.3c9.3,64.2,58.9,82.9,58.9,82.9c-56.5-120.2-9.3-165.9,13-165.9
	s31.3,8.8,31.3,8.8V0H0z"/>
<path class="elementor-shape-fill ha-shape-divider" opacity="0.5" d="M0,0v118.9c0,0,29.4,14,33.8,39.7c4.4,25.7-11.3,46.4,13.2,68.8c0,0,0,0,0,0c0-0.1-9.4-43.1,27.7-54.3
	c37.1-11.2,47.2,21.3,47.2,21.3s-12-48.7,18.3-71c30.2-22.4,83.1-28,83.7,22.9c0,0,0,0,0,0c19.5-25.2,32.7-13.4,30.8,6.7
	c-1.9,20.1-17.9,19.5-18.9,47.5c0,0,32.1-20.1,63.6-19c31.5,1.1,50.4,36.4,52.9,62.6c2.5,26.3,6.3,39.7,12.6,50.3
	c6.3,10.6,5,33-3.1,48.1c0,0,20.8-17.3,16.4-52c-4.4-34.7,6.9-46.4,21.4-47.5s23.9,12.3,23.9,12.3s-1.3-20.9-5-30.6
	c-3.8-9.7-10.7-50.5,17.6-70.1c28.3-19.6,57.7-8.3,46.6,33c0,0,0,0,0,0c24.5-22.4,19.4-50.3,47.8-56.5c24-5.2,52.2,9.5,52.2,29.6
	c0,20.1-10.8,15.8-6.3,47c0,0,0,0,0,0c12.6-26.8,28.1-28.9,40.3-20.1c16.9,12.3-2.5,61,33.4,82.2c0,0-30.2-67.1,0-107.9
	c30.2-40.8,79.9-29.6,93.8-7.3c13.8,22.4-3.1,35.8,17,64.9c0,0,0,0,0,0c0-0.2-11.3-63.2,37.8-69.9c49.1-6.7,49.1,35.8,48.5,44.7
	c0,0,12-16.2,34.6-10.1s28.3,28,26.4,44.2c-1.9,16.2-4.5,52.3,6.9,71.6c14.1,23.9,3.8,50.9,3.8,50.9s33.4-22.4,21.4-62.6
	c-12-40.3-21.9-79.9,2.6-90.3c24.5-10.4,38.3-0.3,41.5,8.1c3.1-14.5-7-49.7,18.9-59.3c19.9-7.4,39.3-2.3,44.7,16.8
	c4.8,17.2,8.9,21.9,15.1,27.4c0,0-12-43.6,21.4-54.8c33.4-11.2,49.1,11.2,46.6,33.6c-2.5,22.4-10.7,47-10.7,47s19.5-16.2,23.9-36.9
	c4.4-20.7,39.7-19.6,42.2,2.8c0,0,0,0,0,0c0.6-28.5,18.1-56.2,53.5-53.1c39.1,3.4,52.2,29.6,52.2,29.6s17.6-16.8,42.8-3.9
	c25.2,12.9,22,40.8,19.5,54.3s-12,52.6,5,69.4c17,16.8,33.4,27.4,35.9,63.2c0,0,8.8-36.4-6.9-58.7c-15.7-22.4-27.1-51.5-1.9-62.6
	c25.2-11.2,36.5,44.2,36.5,44.2c0,0,0,0,0,0c0,0,2.1-21.4-5.3-38.6c-14-32.6,19.1-113.5,66.3-73.2c0,0,18.3-30.2,51-20.7
	c32.7,9.5,35.9,31.3,33.4,48.7s-13.8,22.4-9.4,43.6c0,0,11.3-14.5,30.8-10.1c19.5,4.5,12.6,28,12,35.2c-0.6,7.3,4.4,16.8,17,26.8
	c12.6,10.1,7.6,27.4,7.6,27.4s10.8-20-5.7-45.3c-17.3-26.5,19.5-76.7,57.3-47.5c0,0-43.6-98.6,32.1-104.2
	c40.8-3,44.1,44.4,65.5,58.3c0,0-0.3-41.1,28.7-33.8c29,7.3,12.9,36.6,32.4,50c0,0-13.8-55.4,23.9-69.4c37.8-14,69.9,2.2,76.2,27.4
	s-17,71,0,100.1c0,0-3.8-26.8,11.3-41.6c0,0,6.2,9.9,14.5,14.8c-8.4-36.9,12.2-113.4,74.5-94.9c1.9,0.6,3.8,1.4,5.6,2.4
	c7.4,4.2,27.5,17.3,31.1,38.3c4.4,25.7-11.3,46.4,13.2,68.8c0,0,0,0,0,0c0-0.1-9.4-43.1,27.7-54.3c37.1-11.2,47.2,21.3,47.2,21.3
	s-12-48.7,18.3-71c30.2-22.4,83.1-28,83.7,22.9c0,0,0,0,0,0c19.5-25.2,32.7-13.4,30.8,6.7c-1.9,20.1-17.9,19.5-18.9,47.5
	c0,0,32.1-20.1,63.6-19c31.5,1.1,50.4,36.4,52.9,62.6c2.5,26.3,6.3,39.7,12.6,50.3c6.3,10.6,5,33-3.1,48.1c0,0,20.8-17.3,16.4-52
	c-4.4-34.7,6.9-46.4,21.4-47.5c14.5-1.1,23.9,12.3,23.9,12.3s-1.3-20.9-5-30.6c-3.8-9.7-10.7-50.5,17.6-70.1
	c28.3-19.6,57.7-8.3,46.6,33c0,0,0,0,0,0c24.5-22.4,19.4-50.3,47.8-56.5c24-5.2,52.2,9.5,52.2,29.6c0,20.1-10.8,15.8-6.3,47
	c0,0,0,0,0,0c12.6-26.8,28.1-28.9,40.3-20.1c16.9,12.3-2.5,61,33.4,82.2c0,0-30.2-67.1,0-107.9c30.2-40.8,79.9-29.6,93.8-7.3
	c13.8,22.4-3.1,35.8,17,64.9c0,0,0,0,0,0c0-0.2-11.3-63.2,37.8-69.9c49.1-6.7,49.1,35.8,48.5,44.7c0,0,12-16.2,34.6-10.1
	c22.7,6.2,28.3,28,26.4,44.2c-1.9,16.2-4.5,52.3,6.9,71.6c14.1,23.9,3.8,50.9,3.8,50.9s33.4-22.4,21.4-62.6s-21.9-79.9,2.6-90.3
	c24.5-10.4,38.3-0.3,41.5,8.1c3.1-14.5-7-49.7,18.9-59.3c19.9-7.4,39.3-2.3,44.7,16.8c4.8,17.2,8.9,21.9,15.1,27.4
	c0,0-12-43.6,21.4-54.8c33.4-11.2,49.1,11.2,46.6,33.6c-2.5,22.4-10.7,47-10.7,47s19.5-16.2,23.9-36.9c4.4-20.7,39.7-19.6,42.2,2.8
	c0,0,0,0,0,0c0.6-28.5,18.1-56.2,53.5-53.1c39.1,3.4,52.2,29.6,52.2,29.6s17.6-16.8,42.8-3.9c25.2,12.9,22,40.8,19.5,54.3
	s-12,52.6,5,69.4c17,16.8,33.4,27.4,35.9,63.2c0,0,8.8-36.4-6.9-58.7c-15.7-22.4-27.1-51.5-1.9-62.6c25.2-11.2,36.5,44.2,36.5,44.2
	c0,0,0,0,0,0c0,0,2.1-21.4-5.3-38.6c-14-32.6,19.1-113.5,66.3-73.2c0,0,18.3-30.2,51-20.7c32.7,9.5,35.9,31.3,33.4,48.7
	s-13.8,22.4-9.4,43.6c0,0,11.3-14.5,30.8-10.1c19.5,4.5,12.6,28,12,35.2c-0.6,7.3,4.4,16.8,17,26.8c12.6,10.1,7.6,27.4,7.6,27.4
	s10.8-20-5.7-45.3c-17.3-26.5,19.5-76.7,57.3-47.5c0,0-43.6-98.6,32.1-104.2c40.8-3,44.1,44.4,65.5,58.3c0,0-0.3-41.1,28.7-33.8
	c29,7.3,12.9,36.6,32.4,50c0,0,0,0,0,0c0,0-13.8-55.4,23.9-69.4c37.8-14,69.9,2.2,76.2,27.4c6.3,25.2-17,71,0,100.1
	c0,0-3.8-26.8,11.3-41.6c0,0,6.2,9.9,14.5,14.8c-8.5-37.5,12.8-115.8,77.4-94V0H0z"/>
<path class="elementor-shape-fill ha-shape-divider" d="M0,0v53.2c0,0,45.6,9,39.5,48.1s23,58.3,23,58.3c-19.6-25.9-16.9-59.5,14.2-59.5c31.1,0,25.7,45.5,25.7,45.5
	c40.6-18.2,2-85.2,66.3-85.2s73.1,48.1,73.1,48.1c60.9-4.2,38.6,55.3,38.6,55.3c17.6-1.8,16.9-33.7,20.3-46.9
	c3.4-13.2,12.9-26.5,34.5-24.7c21.7,1.8,25.7,17.4,16.9,70.3c-8.8,52.9,14.2,90.8,14.2,90.8c-12.3-42.1-5.4-76.9,12.2-76.9
	s16.2,26.4,16.2,26.4c14.1-11.4,10.2-33.1,2.8-45.1c-7.4-12-2-55.9,42-55.9s45.3,42.1,45.3,42.1c14.7-2.6,16.2-18.6,21-36.7
	c4.7-18,18.9-28.9,18.9-28.9c-7.4,17.4,8.1,39.1,8.1,39.1s-2.7-54.1,35.9-45.7c38.6,8.4,18.3,80.6,18.3,80.6c23-5.4,25-45.1,25-45.1
	c16.9,29.5-8.8,66.1-8.8,66.1c30.5-13.8,29.1-45.1,27.1-77.6c-2-32.5,37.2-39.1,38.6-16.2c1.4,22.8,20.3,35.5,20.3,35.5
	s-7.4-54.7,29.1-49.9c36.5,4.8,14.9,37.9,29.1,52.9c14.2,15,6.8,33.7,6.8,33.7c29.1-7.8,28.4-60.1,28.4-60.1
	c6.8,4.2,8.8,27.1,8.8,27.1c23.7-18.6-6.6-51.4,33-46.4c48,6,29.3,94.5,29.3,94.5s13-0.1,18.4-32.5s49.2-15.6,45.2,12.7
	s6.1,54.1,6.1,54.1c4.1-58.9,45.3-28.3,45.3-28.3C943.9,82.3,990.6,56.6,1020,57.5c7.3,0.2,19.7,3.6,26.5,31.3
	c6.8,27.7,32.5,38.6,32.5,38.6c-14.2-14.9-11.5-66.3,14.2-66.3c25.7,0,33.8,52.9,33.8,52.9c8.9-24.1,0-56.5,0-56.5
	c40.6,27.7,21.7,92.6,21.7,92.6c33.2-6.6,34.5-60.1,34.5-60.1c16.9,7.2,12.9,31.3,12.9,31.3c29.8-9,23.2-53.8,36.5-61.3
	c19.9-11.2,47-2.7,49.4,20.4c2.2,21.3,13.5,36.7,13.5,36.7c8.1-76.8,56.2-49.3,79.2-0.6c23,48.7-7.4,100.4-7.4,100.4
	c39.9-17.4,31.1-46.3,38.6-87.2c7.4-40.9,53.1-54.4,53.1-54.4c-6.8,38.8,24,53.2,24,53.2c-11.8-12.8-12.8-50.1-1.8-55
	c40.5-18,45.8,43.1,45.8,43.1c30.8-28.1-31.5-63.3,13.9-60.3c45.3,3,42.6,42.9,42.6,73.6c0,40.4,33.6,65.3,33.6,65.3
	s-37.3-91.6,0.5-91.5c45.7,0.1,24.2,59.9,24.2,59.9c24.4-16.5,17.3-43.9,17.9-67.3c0.7-23.4,9.6-44.6,29.1-53.7
	c17.9-8.3,102.5-18.3,98.5,20.3c-3.1,29.6,6.8,42.1,6.8,42.1c-1.4-30.1,18.9-46.3,18.9-46.3c-8.8,44.8,15.2,70,15.2,70
	s-0.7-45.4,43.3-64c44-18.6,76.2,2.7,82.2,27.1c4.8,19.4-10.5,40.3-10.5,40.3c47.7-19.5,32.1-72.1,32.1-72.1
	c34.9,5.7,21.7,38.9,21.7,38.9c23.3-6,18.8-16.6,18.8-30.1c0-25.4,69.8-6.5,63.7,32.6s23,58.3,23,58.3
	c-19.6-25.9-16.9-59.5,14.2-59.5c31.1,0,25.7,45.5,25.7,45.5c40.6-18.2,2-85.2,66.3-85.2c64.3,0,73.1,48.1,73.1,48.1
	c60.9-4.2,38.6,55.3,38.6,55.3c17.6-1.8,16.9-33.7,20.3-46.9s12.9-26.5,34.5-24.7c21.7,1.8,25.7,17.4,16.9,70.3
	c-8.8,52.9,14.2,90.8,14.2,90.8c-12.3-42.1-5.4-76.9,12.2-76.9s16.2,26.4,16.2,26.4c14.1-11.4,10.2-33.1,2.8-45.1
	c-7.4-12-2-55.9,42-55.9c44,0,45.3,42.1,45.3,42.1c14.7-2.6,16.2-18.6,21-36.7c4.7-18,18.9-28.9,18.9-28.9
	c-7.4,17.4,8.1,39.1,8.1,39.1s-2.7-54.1,35.9-45.7c38.6,8.4,18.3,80.6,18.3,80.6c23-5.4,25-45.1,25-45.1
	c16.9,29.5-8.8,66.1-8.8,66.1c30.5-13.8,29.1-45.1,27.1-77.6c-2-32.5,37.2-39.1,38.6-16.2c1.4,22.8,20.3,35.5,20.3,35.5
	s-7.4-54.7,29.1-49.9c36.5,4.8,14.9,37.9,29.1,52.9c14.2,15,6.8,33.7,6.8,33.7c29.1-7.8,28.4-60.1,28.4-60.1
	c6.8,4.2,8.8,27.1,8.8,27.1c23.7-18.6-6.6-51.4,33-46.4c48,6,29.3,94.5,29.3,94.5s13-0.1,18.4-32.5s49.2-15.6,45.2,12.7
	s6.1,54.1,6.1,54.1c4.1-58.9,45.3-28.3,45.3-28.3c-24.7-90.6,21.9-116.3,51.3-115.4c7.3,0.2,19.7,3.6,26.5,31.3
	c6.8,27.7,32.5,38.6,32.5,38.6c-14.2-14.9-11.5-66.3,14.2-66.3c25.7,0,33.8,52.9,33.8,52.9c8.9-24.1,0-56.5,0-56.5
	c40.6,27.7,21.7,92.6,21.7,92.6c33.2-6.6,34.5-60.1,34.5-60.1c16.9,7.2,12.9,31.3,12.9,31.3c29.8-9,23.2-53.8,36.5-61.3
	c19.9-11.2,47-2.7,49.4,20.4c2.2,21.3,13.5,36.7,13.5,36.7c8.1-76.8,56.2-49.3,79.2-0.6c23,48.7-7.4,100.4-7.4,100.4
	c39.9-17.4,31.1-46.3,38.6-87.2c7.4-40.9,53.1-54.4,53.1-54.4c-6.8,38.8,24,53.2,24,53.2c-11.8-12.8-12.8-50.1-1.8-55
	c40.5-18,45.8,43.1,45.8,43.1c30.8-28.1-31.5-63.3,13.9-60.3c45.3,3,42.6,42.9,42.6,73.6c0,40.4,33.6,65.3,33.6,65.3
	s-37.3-91.6,0.5-91.5c45.7,0.1,24.2,59.9,24.2,59.9c24.4-16.5,17.3-43.9,17.9-67.3c0.7-23.4,9.6-44.6,29.1-53.7
	c17.9-8.3,102.5-18.3,98.5,20.3c-3.1,29.6,6.8,42.1,6.8,42.1c-1.4-30.1,18.9-46.3,18.9-46.3c-8.8,44.8,15.2,70,15.2,70
	s-0.7-45.4,43.3-64c44-18.6,76.2,2.7,82.2,27.1c4.8,19.4-10.5,40.3-10.5,40.3c47.7-19.5,32.1-72.1,32.1-72.1
	c34.9,5.7,21.7,38.9,21.7,38.9c23.3-6,18.8-16.6,18.8-30.1c0-25.4,24.2-15.4,24.2-15.4V0H0z"/>
</svg>
