<svg xmlns="http://www.w3.org/2000/svg" viewBox="0 0 3990.2 400" preserveAspectRatio="none">
<path class="elementor-shape-fill ha-shape-divider" d="M0,21c0,1.8,0.8,3.7,2.2,5.1l63.2,63.2c2.9,2.9,2.9,7.6,0,10.5l-60,60c-2.9,2.9-2.9,7.6,0,10.6l64.7,64.7
	c2.9,2.9,7.6,2.9,10.6,0l60-60c2.9-2.9,7.6-2.9,10.5,0l60,60c2.9,2.9,7.6,2.9,10.6,0l60.6-60.6c2.9-2.9,7.6-2.9,10.5,0l60.6,60.6
	c2.9,2.9,7.6,2.9,10.6,0l60.6-60.6c2.9-2.9,7.6-2.9,10.5,0l56.6,56.6c2.9,2.9,2.9,7.6,0,10.5C476,257.2,431,302.1,431,302.1
	c-2.9,2.9-2.9,7.6,0,10.6l64.7,64.7c2.9,2.9,7.6,2.9,10.6,0L709,174.8c2.9-2.9,7.6-2.9,10.5,0l60.5,60.5c2.9,2.9,7.6,2.9,10.6,0
	l60.6-60.6c2.9-2.9,7.6-2.9,10.5,0l56.6,56.6c2.9,2.9,2.9,7.6,0,10.5l-60.7,60.7c-2.9,2.9-2.9,7.6,0,10.6l64.7,64.7
	c2.9,2.9,7.6,2.9,10.6,0l60.7-60.7c2.9-2.9,7.6-2.9,10.5,0l60.5,60.5c2.9,2.9,7.6,2.9,10.6,0L1278.7,175c2.1-2.1,5.2-2.7,7.9-1.7
	c0.7,0.4,1.4,0.8,2,1.4c15.6,15.7,60.5,60.8,60.5,60.8c1.5,1.5,3.6,2.3,5.6,2.2c2,0.1,4-0.6,5.6-2.2c0,0,45-45.1,60.5-60.8
	c0.6-0.6,1.3-1.1,2-1.4c2.7-1,5.8-0.4,7.9,1.7l203.6,202.7c2.9,2.9,7.6,2.9,10.6,0l60.5-60.5c2.9-2.9,7.6-2.9,10.5,0l60.7,60.7
	c2.9,2.9,7.6,2.9,10.6,0l64.7-64.7c2.9-2.9,2.9-7.6,0-10.6l-60.7-60.7c-2.9-2.9-2.9-7.6,0-10.5l56.6-56.6c2.9-2.9,7.6-2.9,10.5,0
	l60.6,60.6c2.9,2.9,7.6,2.9,10.6,0l60.5-60.5c2.9-2.9,7.6-2.9,10.5,0l202.7,202.6c2.9,2.9,7.6,2.9,10.6,0l64.7-64.7
	c2.9-2.9,2.9-7.6,0-10.6c0,0-45-44.9-60.7-60.5c-2.9-2.9-2.9-7.6,0-10.5l56.6-56.6c2.9-2.9,7.6-2.9,10.5,0l60.6,60.6
	c2.9,2.9,7.6,2.9,10.6,0l60.6-60.6c2.9-2.9,7.6-2.9,10.5,0l60.6,60.6c1.5,1.5,3.4,2.2,5.3,2.2c1.9,0,3.8-0.7,5.3-2.2l60-60
	c1.5-1.5,3.4-2.2,5.3-2.2c1.9,0,3.8,0.7,5.3,2.2l60,60c1.5,1.5,3.4,2.2,5.3,2.2c1.9,0,3.8-0.7,5.3-2.2l60.6-60.6
	c2.9-2.9,7.6-2.9,10.5,0l60.6,60.6c2.9,2.9,7.6,2.9,10.6,0l60.6-60.6c2.9-2.9,7.6-2.9,10.5,0l56.6,56.6c2.9,2.9,2.9,7.6,0,10.5
	c-15.7,15.6-60.7,60.5-60.7,60.5c-2.9,2.9-2.9,7.6,0,10.6l64.7,64.7c2.9,2.9,7.6,2.9,10.6,0l202.7-202.6c2.9-2.9,7.6-2.9,10.5,0
	l60.5,60.5c2.9,2.9,7.6,2.9,10.6,0l60.6-60.6c2.9-2.9,7.6-2.9,10.5,0l56.6,56.6c2.9,2.9,2.9,7.6,0,10.5l-60.7,60.7
	c-2.9,2.9-2.9,7.6,0,10.6l64.7,64.7c2.9,2.9,7.6,2.9,10.6,0l60.7-60.7c2.9-2.9,7.6-2.9,10.5,0l60.5,60.5c2.9,2.9,7.6,2.9,10.6,0
	l203-203c2.9-2.9,7.6-2.9,10.5,0c15.6,15.7,60.5,60.8,60.5,60.8c2.9,2.9,7.6,2.9,10.6,0l60.5-60.5c2.9-2.9,7.6-2.9,10.5,0l60.5,60.5
	c2.9,2.9,7.6,2.9,10.6,0l64.7-64.7c2.9-2.9,2.9-7.6,0-10.6l-60.6-60.6c-2.9-2.9-2.9-7.6,0-10.5l64.6-64.6c1.4-1.4,2.1-3.2,2.2-5.1
	l0,0v-0.1c0,0,0,0,0-0.1V0L0,0l0,20.8c0,0,0,0,0,0.1L0,21L0,21z M3919.3,103.8l56.4,56.4c2.9,2.9,2.9,7.6,0,10.6l-56.4,56.4
	c-2.9,2.9-7.6,2.9-10.6,0l-56.4-56.4c-2.7-2.7-2.9-6.9-0.6-9.9l57.7-57.7C3912.4,100.9,3916.6,101.1,3919.3,103.8z M3781.3,89.1
	l56.4-56.4c2.5-2.5,6.5-2.9,9.4-1c0.4,0.3,0.8,0.6,1.1,0.9l56.4,56.4c2.9,2.9,2.9,7.5,0.1,10.4l-56.8,56.8c-2.6,2.4-6.5,2.7-9.3,0.7
	l-58.2-58.2C3778.4,95.8,3778.7,91.8,3781.3,89.1z M3051.4,241.6L2995,298c-2.9,2.9-7.6,2.9-10.6,0l-56.4-56.4
	c-2.9-2.9-2.9-7.6,0-10.6l56.4-56.4c2.7-2.7,6.9-2.9,9.8-0.6l57.8,57.8C3054.3,234.7,3054.1,238.9,3051.4,241.6z M3406.8,313.1
	l-56.4,56.4c-2.9,2.9-7.6,2.9-10.6,0l-56.4-56.4c-2.9-2.9-2.9-7.6,0-10.6l56.4-56.4c2.9-2.9,7.6-2.9,10.6,0l56.4,56.4
	C3409.7,305.5,3409.7,310.2,3406.8,313.1z M3549.1,312.9l-56.4,56.4c-2.9,2.9-7.6,2.9-10.6,0l-56.4-56.4c-2.9-2.9-2.9-7.6,0-10.6
	l56.4-56.4c2.9-2.9,7.6-2.9,10.6,0l56.4,56.4C3552,305.3,3552,310,3549.1,312.9z M3620.2,241.8l-57.4,57.4c-2.4,2.4-6.2,2.4-8.6,0
	l-57.4-57.4c-2.9-2.9-2.9-7.6,0-10.6l56.4-56.4c2.9-2.9,7.6-2.9,10.6,0l56.4,56.4C3623.1,234.2,3623.1,238.9,3620.2,241.8z
	 M3639.3,88.8l56.4-56.4c0.2-0.2,0.4-0.3,0.6-0.5c2.7-2.2,6.8-1.8,9.3,0.7l57,57c2.5,2.5,2.9,6.6,0.7,9.3c-0.2,0.2-0.3,0.4-0.5,0.6
	l-56.4,56.4c-2.9,2.9-7.5,2.9-10.4,0.1l-56.7-56.7C3636.4,96.2,3636.4,91.6,3639.3,88.8z M3635,103.3l56.7,56.7
	c2.8,2.9,2.7,7.5-0.1,10.4l-56.4,56.4c-2.9,2.9-7.6,2.9-10.6,0l-56.4-56.4c-2.9-2.9-2.9-7.6,0-10.5l56.5-56.5
	C3627.5,100.6,3632.1,100.5,3635,103.3z M3496.8,89l56.4-56.4c2.9-2.9,7.6-2.9,10.6,0l56.4,56.4c2.9,2.9,2.9,7.6,0,10.5l-56.5,56.5
	c-2.9,2.9-7.6,2.9-10.5,0l-56.4-56.4C3493.8,96.6,3493.8,91.9,3496.8,89z M3492.5,103.6l56.4,56.4c2.9,2.9,2.9,7.6,0,10.6
	l-56.4,56.4c-2.8,2.8-7.3,2.9-10.2,0.3l-57.1-57.1c-2.6-2.9-2.5-7.4,0.3-10.2l56.4-56.4C3484.9,100.7,3489.6,100.7,3492.5,103.6z
	 M3353,90.5l59.4-59.4c2.8-1.6,6.5-1.2,8.9,1.2l56.4,56.4c2.9,2.9,2.9,7.6,0,10.6l-56.4,56.4c-2.7,2.7-7,2.9-10,0.5l-57.5-57.5
	C3351.9,96.3,3351.6,93.1,3353,90.5z M3349.8,103.1l57.5,57.5c2.4,2.9,2.2,7.2-0.5,10l-56.4,56.4c-2.9,2.9-7.6,2.9-10.6,0
	l-56.4-56.4c-2.9-2.9-2.9-7.6,0-10.6l56.4-56.4C3342.6,100.8,3346.9,100.7,3349.8,103.1z M3210.9,90.3l59.1-59.1
	c2.7-1.6,6.2-1.3,8.7,0.9l57,57c2.6,2.9,2.5,7.4-0.3,10.2l-56.4,56.4c-2.9,2.9-7.5,2.9-10.4,0.1L3212,99.1
	C3209.7,96.7,3209.3,93.1,3210.9,90.3z M3208,103.4l56.7,56.7c2.8,2.9,2.7,7.5-0.1,10.4l-56.4,56.4c-2.9,2.9-7.6,2.9-10.6,0
	l-56.4-56.4c-2.9-2.9-2.9-7.6,0-10.6l56.4-56.4C3200.4,100.7,3205,100.7,3208,103.4z M3069.6,89.4l56.9-56.9c2.6-2.6,6.9-3,9.7-0.7
	c0.2,0.1,0.4,0.3,0.5,0.5l56.4,56.4c2.9,2.9,2.9,7.6,0,10.6l-56.4,56.4c-2.4,2.4-5.9,2.8-8.7,1.3l-58.4-58.4c-1.2-1.2-2-2.8-2-4.6
	c0,0,0,0,0-0.1C3067.5,92.3,3068.3,90.6,3069.6,89.4z M3065.8,103.7l57.9,57.9c0.6,1.1,1,2.4,1,3.6c0,1.9-0.7,3.8-2.2,5.2
	l-57.2,57.2c-2.7,2.1-6.4,2.1-9.1,0l-57.2-57.2c-1.4-1.4-2.2-3.3-2.2-5.2c0-1.9,0.7-3.8,2.2-5.2l56.4-56.4c0.7-0.7,1.5-1.2,2.3-1.6
	C3060.6,100.8,3063.8,101.7,3065.8,103.7z M2928,88.8l56.4-56.4c2.9-2.9,7.6-2.9,10.6,0l56.4,56.4c2.9,2.9,2.9,7.6,0,10.6
	l-56.4,56.4c-2.9,2.9-7.6,2.9-10.6,0L2928,99.3C2925.1,96.4,2925.1,91.7,2928,88.8z M2923.8,245.7l56.4,56.4c2.9,2.9,2.9,7.6,0,10.6
	l-56.4,56.4c-2.9,2.9-7.6,2.9-10.6,0l-56.4-56.4c-2.9-2.9-2.9-7.6,0-10.6l56.4-56.4C2916.2,242.8,2920.9,242.8,2923.8,245.7z
	 M2502.3,88.8l55.4-55.4c0.2-0.2,0.5-0.5,0.9-0.9c2.8-2.6,7.1-2.5,9.8,0.1c0,0,0,0,0,0l56.1,56.1c2.9,2.9,2.9,7.6,0,10.5l-55.7,55.7
	c-3,3-7.8,3-10.8,0l-55.7-55.7C2499.4,96.4,2499.4,91.7,2502.3,88.8z M2695.8,170.4l-56.4,56.4c-1.5,1.5-3.4,2.2-5.3,2.2
	c-1.9,0-3.8-0.7-5.3-2.2l-56.4-56.4c-2.9-2.9-2.9-7.6,0-10.6l56.4-56.4c1.5-1.5,3.4-2.2,5.3-2.2c1.9,0,3.8,0.7,5.3,2.2l56.4,56.4
	C2698.7,162.8,2698.7,167.5,2695.8,170.4z M2554.7,159.9c2.9,2.9,2.9,7.6,0,10.6l-56.4,56.4c-1.5,1.5-3.4,2.2-5.3,2.2
	c-1.9,0-3.8-0.7-5.3-2.2l-56.4-56.4c-2.9-2.9-2.9-7.6,0-10.6l56.4-56.4c1.5-1.5,3.4-2.2,5.3-2.2c1.9,0,3.8,0.7,5.3,2.2L2554.7,159.9
	z M2785.7,88.8l56.4-56.4c2.9-2.9,7.6-2.9,10.6,0l56.4,56.4c2.9,2.9,2.9,7.6,0,10.6l-56.4,56.4c-2.9,2.9-7.6,2.9-10.6,0l-56.4-56.4
	C2782.8,96.4,2782.8,91.7,2785.7,88.8z M2781.6,103.4l56.4,56.4c2.9,2.9,2.9,7.6,0,10.6l-56.4,56.4c-2.9,2.9-7.6,2.9-10.6,0
	l-56.4-56.4c-2.9-2.9-2.9-7.6,0-10.6l56.4-56.4C2773.9,100.5,2778.7,100.5,2781.6,103.4z M2710.4,32.3l56.4,56.4
	c2.9,2.9,2.9,7.6,0,10.6l-50.1,50.1l-6.4,6.4c-2.9,2.9-7.6,2.9-10.5,0L2644,99.9c-2.9-2.9-2.9-7.6,0-10.5l56.9-56.9
	C2703.5,29.9,2707.8,29.7,2710.4,32.3C2710.4,32.3,2710.4,32.3,2710.4,32.3z M2360.1,88.8l56.4-56.4c0,0,0,0,0.1-0.1
	c2.6-2.6,6.9-2.4,9.5,0.2l56.9,56.9c2.9,2.9,2.9,7.6,0,10.5l-55.9,55.9c-2.9,2.9-7.6,2.9-10.5,0l-6.4-6.4l-50.1-50.1
	C2357.2,96.4,2357.2,91.7,2360.1,88.8z M2356,103.4l56.4,56.4c2.9,2.9,2.9,7.6,0,10.6l-56.4,56.4c-2.9,2.9-7.6,2.9-10.6,0
	l-56.4-56.4c-2.9-2.9-2.9-7.6,0-10.6l56.4-56.4C2348.3,100.5,2353,100.5,2356,103.4z M2217.8,88.8l56.4-56.4c2.9-2.9,7.6-2.9,10.6,0
	l56.4,56.4c2.9,2.9,2.9,7.6,0,10.6l-56.4,56.4c-2.9,2.9-7.6,2.9-10.6,0l-56.4-56.4C2214.9,96.4,2214.9,91.7,2217.8,88.8z
	 M633.9,241.6L577.4,298c-2.9,2.9-7.6,2.9-10.6,0l-56.4-56.4c-2.9-2.9-2.9-7.6,0-10.6l56.4-56.4c2.7-2.7,6.9-2.9,9.8-0.6l57.8,57.8
	C636.7,234.7,636.5,238.9,633.9,241.6z M989.3,313.1l-56.4,56.4c-2.9,2.9-7.6,2.9-10.6,0l-56.4-56.4c-2.9-2.9-2.9-7.6,0-10.6
	l56.4-56.4c2.9-2.9,7.6-2.9,10.6,0l56.4,56.4C992.2,305.5,992.2,310.2,989.3,313.1z M1131.5,312.9l-56.4,56.4
	c-2.9,2.9-7.6,2.9-10.6,0l-56.4-56.4c-2.9-2.9-2.9-7.6,0-10.6l56.4-56.4c2.9-2.9,7.6-2.9,10.6,0l56.4,56.4
	C1134.5,305.3,1134.5,310,1131.5,312.9z M1202.7,241.8l-56.6,56.6c-2.8,2.8-7.4,2.8-10.2,0l-56.6-56.6c-2.9-2.9-2.9-7.6,0-10.6
	l56.4-56.4c2.9-2.9,7.6-2.9,10.6,0l56.4,56.4C1205.6,234.2,1205.6,238.9,1202.7,241.8z M1216.5,102.5c0.3,0.2,0.7,0.5,1,0.8
	l56.7,56.7c2.8,2.9,2.7,7.5-0.1,10.4l-56.4,56.4c-2.4,2.4-5.9,2.8-8.7,1.4c-0.4-0.3-0.9-0.6-1.3-1l-56.4-56.4
	c-2.9-2.9-2.9-7.6,0-10.6l56.4-56.4C1210,101.4,1213.6,101,1216.5,102.5z M1279.9,31.7C1279.9,31.7,1279.9,31.7,1279.9,31.7
	c2.7-1.7,6.2-1.2,8.4,1l56.7,56.7c2.5,2.5,2.9,6.6,0.7,9.3c-0.2,0.2-0.3,0.4-0.5,0.6l-56.4,56.4c-2.3,2.3-5.7,2.8-8.5,1.4
	c-0.4-0.3-0.9-0.6-1.3-0.9l-56.8-56.8c-2.8-2.9-2.7-7.5,0.1-10.4l56.4-56.4C1279.1,32.3,1279.5,32,1279.9,31.7z M1362.6,91.3
	l58.6-58.6c2.2-2.2,5.7-2.7,8.3-1.1c0,0,0,0,0.1,0c0.4,0.3,0.8,0.6,1.1,0.9l56.4,56.4c2.9,2.9,2.9,7.5,0.1,10.4l-56.8,56.8
	c-0.4,0.4-0.8,0.7-1.3,0.9c-2.8,1.4-6.2,0.9-8.5-1.4l-56.4-56.4C1362.1,97.2,1361.6,94,1362.6,91.3z M1493,102.5
	c2.8-1.5,6.4-1.1,8.8,1.3l56.4,56.4c2.9,2.9,2.9,7.6,0,10.6l-56.4,56.4c-0.4,0.4-0.8,0.7-1.3,1c-2.8,1.4-6.3,1-8.7-1.4l-56.4-56.4
	c-2.9-2.9-2.9-7.5-0.1-10.4l56.7-56.7C1492.3,103,1492.6,102.8,1493,102.5z M1506.8,241.8c-2.9-2.9-2.9-7.6,0-10.6l56.4-56.4
	c2.9-2.9,7.6-2.9,10.6,0l56.4,56.4c2.9,2.9,2.9,7.6,0,10.6l-56.1,56.1c-3.1,3.1-8.2,3.1-11.3,0L1506.8,241.8z M1701.3,312.9
	l-56.4,56.4c-2.9,2.9-7.6,2.9-10.6,0l-56.4-56.4c-2.9-2.9-2.9-7.6,0-10.6l56.4-56.4c2.9-2.9,7.6-2.9,10.6,0l56.4,56.4
	C1704.2,305.3,1704.2,310,1701.3,312.9z M1843.6,302.6c2.9,2.9,2.9,7.6,0,10.6l-56.4,56.4c-2.9,2.9-7.6,2.9-10.6,0l-56.4-56.4
	c-2.9-2.9-2.9-7.6,0-10.6l56.4-56.4c2.9-2.9,7.6-2.9,10.6,0L1843.6,302.6z M2132,298l-56.4-56.4c-2.7-2.7-2.9-6.9-0.6-9.8l57.8-57.8
	c2.9-2.3,7.1-2.1,9.8,0.6L2199,231c2.9,2.9,2.9,7.6,0,10.6l-56.4,56.4C2139.7,300.9,2134.9,300.9,2132,298z M2213.7,245.7l56.4,56.4
	c2.9,2.9,2.9,7.6,0,10.6l-56.4,56.4c-2.9,2.9-7.6,2.9-10.6,0l-56.4-56.4c-2.9-2.9-2.9-7.6,0-10.6l56.4-56.4
	C2206.1,242.8,2210.8,242.8,2213.7,245.7z M2075.6,88.8l56.4-56.4c2.9-2.9,7.6-2.9,10.6,0l56.4,56.4c2.9,2.9,2.9,7.6,0,10.6
	l-56.4,56.4c-2.9,2.9-7.6,2.9-10.6,0l-56.4-56.4C2072.7,96.4,2072.7,91.7,2075.6,88.8z M2071.4,103.6l56.4,56.4
	c1.4,1.4,2.2,3.3,2.2,5.2c0,1.9-0.7,3.8-2.2,5.2l-57.2,57.2c-2.7,2.1-6.4,2.1-9.1,0l-57.2-57.2c-1.4-1.4-2.2-3.3-2.2-5.2
	c0-1.3,0.4-2.5,1-3.6l59.2-59.2C2065.3,100.8,2069,101.1,2071.4,103.6z M1933.9,88.8l56.4-56.4c0.2-0.2,0.3-0.3,0.5-0.5
	c2.8-2.4,7.1-1.9,9.7,0.7l58.1,58.1c1.1,2.1,1.1,4.7,0,6.8l-59.6,59.6c-2.8,1.5-6.3,1-8.7-1.3l-56.4-56.4
	C1930.9,96.4,1930.9,91.7,1933.9,88.8z M1929.4,103.6l56.4,56.4c2.9,2.9,2.9,7.6,0,10.6l-56.4,56.4c-2.9,2.9-7.6,2.9-10.6,0
	l-56.4-56.4c-2.9-2.9-2.9-7.5-0.1-10.4l56.7-56.7C1921.9,100.7,1926.5,100.7,1929.4,103.6z M1791.2,89.1l57-57
	c2.4-2.2,5.9-2.5,8.7-0.9l59.1,59.1c1.6,2.8,1.3,6.4-1,8.9l-56.7,56.7c-2.9,2.8-7.5,2.7-10.4-0.1l-56.4-56.4
	C1788.6,96.5,1788.6,92,1791.2,89.1z M1787.1,103.6l56.4,56.4c2.9,2.9,2.9,7.6,0,10.6l-56.4,56.4c-2.9,2.9-7.6,2.9-10.6,0
	l-56.4-56.4c-2.7-2.7-2.9-7-0.5-10l57.5-57.5C1780.1,100.7,1784.4,100.8,1787.1,103.6z M1649.3,88.8l56.4-56.4
	c2.4-2.4,6-2.8,8.9-1.2l59.4,59.4c1.4,2.6,1.2,5.9-0.8,8.3l-57.5,57.5c-2.9,2.4-7.2,2.2-10-0.5l-56.4-56.4
	C1646.3,96.4,1646.3,91.7,1649.3,88.8z M1645,103.6l56.4,56.4c2.8,2.8,2.9,7.3,0.3,10.2l-57.1,57.1c-2.9,2.6-7.4,2.5-10.2-0.3
	l-56.4-56.4c-2.9-2.9-2.9-7.6,0-10.6l56.4-56.4C1637.4,100.7,1642.1,100.7,1645,103.6z M1573.8,32.6l56.4,56.4
	c2.9,2.9,2.9,7.6,0,10.6l-56.4,56.4c-2.9,2.9-7.6,2.9-10.5,0l-56.5-56.5c-2.9-2.9-2.8-7.6,0-10.5l56.4-56.4
	C1566.1,29.6,1570.9,29.6,1573.8,32.6z M1079.2,89l56.4-56.4c2.9-2.9,7.6-2.9,10.6,0l56.4,56.4c2.9,2.9,2.9,7.6,0,10.5l-56.5,56.5
	c-2.9,2.9-7.6,2.9-10.5,0l-56.4-56.4C1076.3,96.6,1076.3,91.9,1079.2,89z M1074.9,103.6l56.4,56.4c2.9,2.9,2.9,7.6,0,10.6
	l-56.4,56.4c-2.8,2.8-7.3,2.9-10.2,0.3l-57.1-57.1c-2.6-2.9-2.5-7.4,0.3-10.2l56.4-56.4C1067.3,100.7,1072,100.7,1074.9,103.6z
	 M937,89l56.5-56.5c2.1-2.1,5.2-2.9,7.9-1.7c0.8,0.4,1.6,0.9,2.3,1.6l56.4,56.4c2.9,2.9,2.9,7.6,0,10.6l-56.4,56.4
	c-2.7,2.7-7,2.9-10,0.5l-57.5-57.5c-0.2-0.2-0.3-0.4-0.4-0.6C933.9,95.3,934.5,91.4,937,89z M932.3,103.1l57.5,57.5
	c2.4,2.9,2.2,7.2-0.5,10L932.8,227c-2.9,2.9-7.6,2.9-10.6,0l-56.4-56.4c-2.9-2.9-2.9-7.6,0-10.6l56.4-56.4
	C925,100.8,929.3,100.7,932.3,103.1z M793.4,90.3l57.8-57.8c2.5-2.5,6.6-3.1,9.5-0.9c0.2,0.1,0.4,0.3,0.5,0.4l57,57
	c2.6,2.9,2.5,7.4-0.3,10.2l-56.4,56.4c-2.9,2.9-7.5,2.9-10.4,0.1l-56.7-56.7C792.1,96.7,791.8,93.1,793.4,90.3z M790.4,103.4
	l56.7,56.7c2.8,2.9,2.7,7.5-0.1,10.4L790.6,227c-2.9,2.9-7.6,2.9-10.6,0l-56.4-56.4c-2.9-2.9-2.9-7.6,0-10.6l56.4-56.4
	C782.9,100.7,787.5,100.7,790.4,103.4z M652,89.4l56.9-56.9c2.6-2.6,6.9-3,9.7-0.7c0.2,0.1,0.4,0.3,0.5,0.5l56.4,56.4
	c2.9,2.9,2.9,7.6,0,10.6l-56.4,56.4c-2.4,2.4-5.9,2.8-8.7,1.3L652,98.6c-1.2-1.2-2-2.8-2-4.6c0,0,0,0,0-0.1
	C650,92.3,650.8,90.6,652,89.4z M648.3,103.7l57.9,57.9c0.6,1.1,1,2.4,1,3.6c0,1.9-0.7,3.8-2.2,5.2l-57.2,57.2
	c-2.7,2.1-6.4,2.1-9.1,0l-57.2-57.2c-1.4-1.4-2.2-3.3-2.2-5.2c0-1.9,0.7-3.8,2.2-5.2l56.4-56.4c0.7-0.7,1.5-1.2,2.3-1.6
	C643.1,100.8,646.2,101.7,648.3,103.7z M510.4,88.8l56.4-56.4c2.9-2.9,7.6-2.9,10.6,0l56.4,56.4c2.9,2.9,2.9,7.6,0,10.6l-56.4,56.4
	c-2.9,2.9-7.6,2.9-10.6,0l-56.4-56.4C507.5,96.4,507.5,91.7,510.4,88.8z M506.3,245.7l56.4,56.4c2.9,2.9,2.9,7.6,0,10.6l-56.4,56.4
	c-2.9,2.9-7.6,2.9-10.6,0l-56.4-56.4c-2.9-2.9-2.9-7.6,0-10.6l56.4-56.4C498.7,242.8,503.4,242.8,506.3,245.7z M368.2,88.8
	l56.4-56.4c2.9-2.9,7.6-2.9,10.6,0l56.4,56.4c2.9,2.9,2.9,7.6,0,10.6l-56.4,56.4c-2.9,2.9-7.6,2.9-10.6,0l-56.4-56.4
	C365.2,96.4,365.3,91.7,368.2,88.8z M364,103.4l56.4,56.4c2.9,2.9,2.9,7.6,0,10.6L364,226.9c-2.9,2.9-7.6,2.9-10.6,0L297,170.4
	c-2.9-2.9-2.9-7.6,0-10.6l56.4-56.4C356.4,100.5,361.1,100.5,364,103.4z M225.9,88.8l56.4-56.4c2.9-2.9,7.6-2.9,10.6,0l56.4,56.4
	c2.9,2.9,2.9,7.6,0,10.6l-50.1,50.1l-6.4,6.4c-2.9,2.9-7.6,2.9-10.6,0l-56.4-56.4C223,96.4,223,91.7,225.9,88.8z M221.8,103.4
	l56.4,56.4c2.9,2.9,2.9,7.6,0,10.6l-56.4,56.4c-2.9,2.9-7.6,2.9-10.6,0l-56.4-56.4c-2.9-2.9-2.9-7.6,0-10.6l56.4-56.4
	C214.1,100.5,218.9,100.5,221.8,103.4z M82.1,86.1L138,30.2c2.9-2.9,7.6-2.9,10.5,0l58.5,58.5c2.9,2.9,2.9,7.6,0,10.5l-55.6,55.6
	c-3.1,3.1-8.1,3.1-11.2,0L82.1,96.7C79.2,93.8,79.2,89,82.1,86.1z M80.7,103.4l56.4,56.4c2.9,2.9,2.9,7.6,0,10.6l-56.4,56.4
	c-2.9,2.9-7.6,2.9-10.6,0l-56.4-56.4c-2.9-2.9-2.9-7.6,0-10.6l56.4-56.4C73,100.5,77.7,100.5,80.7,103.4z"/>
</svg>
