<svg xmlns="http://www.w3.org/2000/svg" viewBox="0 0 3990.2 400" preserveAspectRatio="none">
<g>
	<path class="elementor-shape-fill ha-shape-divider" d="M3706.3,155.8l56.4-56.4c2.2-2.2,2.7-5.3,1.7-8l-58.8-58.8c-2.5-2.5-6.6-2.9-9.3-0.7c-0.2,0.2-0.4,0.3-0.6,0.5l-56.4,56.4
		c-2.9,2.9-2.9,7.5-0.1,10.4l56.7,56.7C3698.8,158.7,3703.4,158.6,3706.3,155.8z"/>
	<path class="elementor-shape-fill ha-shape-divider" d="M2487.7,226.9c1.5,1.5,3.4,2.2,5.3,2.2c1.9,0,3.8-0.7,5.3-2.2l56.4-56.4c2.9-2.9,2.9-7.6,0-10.6l-56.4-56.4
		c-1.5-1.5-3.4-2.2-5.3-2.2c-1.9,0-3.8,0.7-5.3,2.2l-56.4,56.4c-2.9,2.9-2.9,7.6,0,10.6L2487.7,226.9z"/>
	<path class="elementor-shape-fill ha-shape-divider" d="M2624.6,99.3c2.9-2.9,2.9-7.6,0-10.5L2568,32.1l0,0c-2.4-2.4-6.3-2.4-8.8-0.1c-0.3,0.2-0.5,0.4-0.6,0.6l-56.2,56.2
		c-2.9,2.9-2.9,7.6,0,10.5l61.2,61.2L2624.6,99.3z"/>
	<path class="elementor-shape-fill ha-shape-divider" d="M2628.8,226.9c1.5,1.5,3.4,2.2,5.3,2.2c1.9,0,3.8-0.7,5.3-2.2l56.4-56.4c2.9-2.9,2.9-7.6,0-10.6l-56.4-56.4
		c-1.5-1.5-3.4-2.2-5.3-2.2c-1.9,0-3.8,0.7-5.3,2.2l-56.4,56.4c-2.9,2.9-2.9,7.6,0,10.6L2628.8,226.9z"/>
	<path class="elementor-shape-fill ha-shape-divider" d="M2427,155.8l55.9-55.9c2.9-2.9,2.9-7.6,0-10.5L2426,32.5c-2.6-2.6-6.9-2.8-9.5-0.2c0,0,0,0-0.1,0.1L2360,88.8
		c-2.9,2.9-2.9,7.6,0,10.6l50.1,50.1l6.4,6.4C2419.4,158.7,2424.1,158.7,2427,155.8z"/>
	<path class="elementor-shape-fill ha-shape-divider" d="M3635.1,226.9l56.4-56.4c2.9-2.9,2.9-7.5,0.1-10.4l-56.7-56.7c-2.9-2.7-7.5-2.7-10.3,0.1l-56.5,56.5
		c-2.9,2.9-2.9,7.6,0,10.5l56.4,56.4C3627.5,229.8,3632.2,229.8,3635.1,226.9z"/>
	<path class="elementor-shape-fill ha-shape-divider" d="M2710.4,155.8l6.4-6.4l50.1-50.1c2.9-2.9,2.9-7.6,0-10.6l-56.4-56.4c0,0,0,0-0.1-0.1c-2.6-2.6-6.9-2.4-9.5,0.2L2644,89.3
		c-2.9,2.9-2.9,7.6,0,10.5l55.9,55.9C2702.9,158.7,2707.5,158.7,2710.4,155.8z"/>
	<path class="elementor-shape-fill ha-shape-divider" d="M2345.4,226.9c2.9,2.9,7.6,2.9,10.6,0l56.4-56.4c2.9-2.9,2.9-7.6,0-10.6l-56.4-56.4c-2.9-2.9-7.6-2.9-10.6,0l-56.4,56.4
		c-2.9,2.9-2.9,7.6,0,10.6L2345.4,226.9z"/>
	<path class="elementor-shape-fill ha-shape-divider" d="M2341.3,88.8l-56.4-56.4c-2.9-2.9-7.6-2.9-10.6,0l-56.4,56.4c-2.9,2.9-2.9,7.6,0,10.6l56.4,56.4c2.9,2.9,7.6,2.9,10.6,0
		l56.4-56.4C2344.2,96.4,2344.2,91.7,2341.3,88.8z"/>
	<path class="elementor-shape-fill ha-shape-divider" d="M1568.5,303.5l61.7-61.7c2.9-2.9,2.9-7.6,0-10.6l-56.4-56.4c-2.9-2.9-7.6-2.9-10.6,0l-56.4,56.4c-2.9,2.9-2.9,7.6,0,10.6
		L1568.5,303.5z"/>
	<path class="elementor-shape-fill ha-shape-divider" d="M1573.8,156l56.4-56.4c2.9-2.9,2.9-7.6,0-10.6l-56.4-56.4c-2.9-2.9-7.6-2.9-10.6,0L1506.8,89c-2.9,2.9-2.9,7.6,0,10.5
		l56.5,56.5C1566.2,158.9,1570.9,158.9,1573.8,156z"/>
	<path class="elementor-shape-fill ha-shape-divider" d="M1634.3,369.4c2.9,2.9,7.6,2.9,10.6,0l56.4-56.4c2.9-2.9,2.9-7.6,0-10.6l-56.4-56.4c-2.9-2.9-7.6-2.9-10.6,0l-56.4,56.4
		c-2.9,2.9-2.9,7.6,0,10.6L1634.3,369.4z"/>
	<path class="elementor-shape-fill ha-shape-divider" d="M2852.7,155.8l56.4-56.4c2.9-2.9,2.9-7.6,0-10.6l-56.4-56.4c-2.9-2.9-7.6-2.9-10.6,0l-56.4,56.4c-2.9,2.9-2.9,7.6,0,10.6
		l56.4,56.4C2845.1,158.7,2849.8,158.7,2852.7,155.8z"/>
	<path class="elementor-shape-fill ha-shape-divider" d="M2771,226.9c2.9,2.9,7.6,2.9,10.6,0l56.4-56.4c2.9-2.9,2.9-7.6,0-10.6l-56.4-56.4c-2.9-2.9-7.6-2.9-10.6,0l-56.4,56.4
		c-2.9,2.9-2.9,7.6,0,10.6L2771,226.9z"/>
	<path class="elementor-shape-fill ha-shape-divider" d="M1491.8,226.9c2.4,2.4,5.9,2.8,8.7,1.4c0.4-0.3,0.9-0.6,1.3-1l56.4-56.4c2.9-2.9,2.9-7.6,0-10.6l-56.4-56.4
		c-2.4-2.4-6-2.8-8.8-1.3c-0.3,0.2-0.7,0.5-1,0.8l-56.7,56.7c-2.8,2.9-2.7,7.5,0.1,10.4L1491.8,226.9z"/>
	<path class="elementor-shape-fill ha-shape-divider" d="M1487.1,89.1l-56.4-56.4c-0.4-0.3-0.7-0.7-1.1-0.9c0,0,0,0-0.1,0c-2.6-1.7-6.1-1.2-8.3,1.1l-56.7,56.7
		c-2.5,2.5-2.9,6.6-0.7,9.3c0.2,0.2,0.3,0.4,0.5,0.6l56.4,56.4c2.3,2.3,5.7,2.8,8.5,1.4c0.4-0.3,0.9-0.6,1.3-0.9l56.8-56.8
		C1490,96.6,1490,92,1487.1,89.1z"/>
	<path class="elementor-shape-fill ha-shape-divider" d="M3421.3,155.8l56.4-56.4c2.9-2.9,2.9-7.6,0-10.6l-56.4-56.4c-0.7-0.7-1.5-1.2-2.3-1.6c-2.7-1.2-5.9-0.4-7.9,1.7l-58,58
		c-1.4,2.6-1.2,5.9,0.8,8.3l57.5,57.5C3414.2,158.6,3418.5,158.5,3421.3,155.8z"/>
	<path class="elementor-shape-fill ha-shape-divider" d="M3197.6,227c2.9,2.9,7.6,2.9,10.6,0l56.4-56.4c2.9-2.9,2.9-7.5,0.1-10.4l-56.7-56.7c-2.9-2.8-7.5-2.7-10.4,0.1l-56.4,56.4
		c-2.9,2.9-2.9,7.6,0,10.6L3197.6,227z"/>
	<path class="elementor-shape-fill ha-shape-divider" d="M3065.4,227.6l57.2-57.2c1.4-1.4,2.2-3.3,2.2-5.2c0-1.3-0.4-2.5-1-3.6l-59.2-59.2c-2.9-1.6-6.5-1.3-9,1.2l-56.4,56.4
		c-1.4,1.4-2.2,3.3-2.2,5.2s0.7,3.8,2.2,5.2l57.2,57.2C3059,229.7,3062.7,229.7,3065.4,227.6z"/>
	<path class="elementor-shape-fill ha-shape-divider" d="M2913.3,245.7l-56.4,56.4c-2.9,2.9-2.9,7.6,0,10.6l56.4,56.4c2.9,2.9,7.6,2.9,10.6,0l56.4-56.4c2.9-2.9,2.9-7.6,0-10.6
		l-56.4-56.4C2920.9,242.8,2916.2,242.8,2913.3,245.7z"/>
	<path class="elementor-shape-fill ha-shape-divider" d="M3136.7,155.8l56.4-56.4c2.9-2.9,2.9-7.6,0-10.6l-56.4-56.4c-0.2-0.2-0.3-0.3-0.5-0.5c-2.8-2.4-7.1-1.9-9.7,0.7l-58.1,58.1
		c-1.1,2.1-1.1,4.7,0,6.8l59.6,59.6C3130.8,158.5,3134.3,158.1,3136.7,155.8z"/>
	<path class="elementor-shape-fill ha-shape-divider" d="M2984.4,155.8c2.9,2.9,7.6,2.9,10.6,0l56.4-56.4c2.9-2.9,2.9-7.6,0-10.6L2995,32.3c-2.9-2.9-7.6-2.9-10.6,0L2928,88.8
		c-2.9,2.9-2.9,7.6,0,10.6L2984.4,155.8z"/>
	<path class="elementor-shape-fill ha-shape-divider" d="M2995,298l56.4-56.4c2.7-2.7,2.9-6.9,0.6-9.8l-57.8-57.8c-2.9-2.3-7.1-2.1-9.8,0.6L2928,231c-2.9,2.9-2.9,7.6,0,10.6
		l56.4,56.4C2987.3,300.9,2992.1,300.9,2995,298z"/>
	<path class="elementor-shape-fill ha-shape-divider" d="M3908.8,227.2c2.9,2.9,7.6,2.9,10.6,0l56.4-56.4c2.9-2.9,2.9-7.6,0-10.6l-56.4-56.4c-2.7-2.7-6.9-2.9-9.9-0.6l-57.7,57.7
		c-2.3,2.9-2.1,7.2,0.6,9.9L3908.8,227.2z"/>
	<path class="elementor-shape-fill ha-shape-divider" d="M3904.7,89.1l-56.4-56.4c-0.3-0.3-0.7-0.7-1.1-0.9c-2.9-1.9-6.8-1.6-9.4,1l-56.4,56.4c-2.6,2.6-2.9,6.7-0.8,9.6l58.2,58.2
		c2.8,2,6.7,1.7,9.3-0.7l56.8-56.8C3907.6,96.6,3907.5,92,3904.7,89.1z"/>
	<path class="elementor-shape-fill ha-shape-divider" d="M3563.7,156.1l56.5-56.5c2.9-2.9,2.8-7.6,0-10.5l-56.4-56.4c-2.9-2.9-7.6-2.9-10.6,0L3496.8,89c-2.9,2.9-2.9,7.6,0,10.6
		l56.4,56.4C3556.1,158.9,3560.8,158.9,3563.7,156.1z"/>
	<path class="elementor-shape-fill ha-shape-divider" d="M3620.2,241.8c2.9-2.9,2.9-7.6,0-10.6l-56.4-56.4c-2.9-2.9-7.6-2.9-10.6,0l-56.4,56.4c-2.9,2.9-2.9,7.6,0,10.6l61.7,61.7
		L3620.2,241.8z"/>
	<path class="elementor-shape-fill ha-shape-divider" d="M3482.1,369.4c2.9,2.9,7.6,2.9,10.6,0l56.4-56.4c2.9-2.9,2.9-7.6,0-10.6l-56.4-56.4c-2.9-2.9-7.6-2.9-10.6,0l-56.4,56.4
		c-2.9,2.9-2.9,7.6,0,10.6L3482.1,369.4z"/>
	<path class="elementor-shape-fill ha-shape-divider" d="M3482.3,227.3c2.9,2.6,7.4,2.5,10.2-0.3l56.4-56.4c2.9-2.9,2.9-7.6,0-10.6l-56.4-56.4c-2.9-2.9-7.6-2.9-10.6,0l-56.4,56.4
		c-2.8,2.8-2.9,7.3-0.3,10.2L3482.3,227.3z"/>
	<path class="elementor-shape-fill ha-shape-divider" d="M3339.8,227c2.9,2.9,7.6,2.9,10.6,0l56.4-56.4c2.7-2.7,2.9-7,0.5-10l-57.5-57.5c-2.9-2.4-7.2-2.2-10,0.5l-56.4,56.4
		c-2.9,2.9-2.9,7.6,0,10.6L3339.8,227z"/>
	<path class="elementor-shape-fill ha-shape-divider" d="M3279.1,155.8l56.4-56.4c2.8-2.8,2.9-7.3,0.3-10.2l-57-57c-0.2-0.2-0.4-0.3-0.5-0.4c-2.9-2.1-7-1.6-9.5,0.9L3211,90.5
		c-1.6,2.8-1.3,6.4,1,8.9l56.7,56.7C3271.6,158.7,3276.2,158.6,3279.1,155.8z"/>
	<path class="elementor-shape-fill ha-shape-divider" d="M1701.5,160l-56.4-56.4c-2.9-2.9-7.6-2.9-10.6,0L1578,160c-2.9,2.9-2.9,7.6,0,10.6l56.4,56.4c2.8,2.8,7.3,2.9,10.2,0.3
		l57.1-57.1C1704.4,167.3,1704.3,162.8,1701.5,160z"/>
	<path class="elementor-shape-fill ha-shape-divider" d="M3283.4,313.1l56.4,56.4c2.9,2.9,7.6,2.9,10.6,0l56.4-56.4c2.9-2.9,2.9-7.6,0-10.6l-56.4-56.4c-2.9-2.9-7.6-2.9-10.6,0
		l-56.4,56.4C3280.5,305.5,3280.5,310.2,3283.4,313.1z"/>
	<path class="elementor-shape-fill ha-shape-divider" d="M435.2,155.8l56.4-56.4c2.9-2.9,2.9-7.6,0-10.6l-56.4-56.4c-2.9-2.9-7.6-2.9-10.6,0l-56.4,56.4c-2.9,2.9-2.9,7.6,0,10.6
		l56.4,56.4C427.5,158.7,432.2,158.7,435.2,155.8z"/>
	<path class="elementor-shape-fill ha-shape-divider" d="M1064.5,369.4c2.9,2.9,7.6,2.9,10.6,0l56.4-56.4c2.9-2.9,2.9-7.6,0-10.6l-56.4-56.4c-2.9-2.9-7.6-2.9-10.6,0l-56.4,56.4
		c-2.9,2.9-2.9,7.6,0,10.6L1064.5,369.4z"/>
	<path class="elementor-shape-fill ha-shape-divider" d="M1146.1,156.1l56.5-56.5c2.9-2.9,2.8-7.6,0-10.5l-56.4-56.4c-2.9-2.9-7.6-2.9-10.6,0L1079.2,89c-2.9,2.9-2.9,7.6,0,10.6
		l56.4,56.4C1138.5,158.9,1143.2,158.9,1146.1,156.1z"/>
	<path class="elementor-shape-fill ha-shape-divider" d="M1202.7,241.8c2.9-2.9,2.9-7.6,0-10.6l-56.4-56.4c-2.9-2.9-7.6-2.9-10.6,0l-56.4,56.4c-2.9,2.9-2.9,7.6,0,10.6l61.7,61.7
		L1202.7,241.8z"/>
	<path class="elementor-shape-fill ha-shape-divider" d="M861.5,155.8L918,99.3c2.8-2.8,2.9-7.3,0.3-10.2l-57-57c-0.7-0.6-1.5-1.1-2.3-1.4c-2.7-1-5.7-0.2-7.7,1.8L794.7,89
		c-2,2-2.9,5.1-1.8,7.8c0.3,0.8,0.8,1.6,1.5,2.3l56.7,56.7C854.1,158.7,858.7,158.6,861.5,155.8z"/>
	<path class="elementor-shape-fill ha-shape-divider" d="M1208.9,228.2c2.8,1.4,6.3,1,8.7-1.4l56.4-56.4c2.9-2.9,2.9-7.5,0.1-10.4l-56.7-56.7c-0.3-0.3-0.6-0.5-1-0.8
		c-2.8-1.5-6.4-1.1-8.8,1.3l-56.4,56.4c-2.9,2.9-2.9,7.6,0,10.6l56.4,56.4C1208,227.6,1208.5,227.9,1208.9,228.2z"/>
	<path class="elementor-shape-fill ha-shape-divider" d="M922.3,227c2.9,2.9,7.6,2.9,10.6,0l56.4-56.4c2.7-2.7,2.9-7,0.5-10l-57.5-57.5c-2.9-2.4-7.2-2.2-10,0.5L865.8,160
		c-2.9,2.9-2.9,7.6,0,10.6L922.3,227z"/>
	<path class="elementor-shape-fill ha-shape-divider" d="M1003.7,155.8l56.4-56.4c2.9-2.9,2.9-7.6,0-10.6l-56.4-56.4c-0.7-0.7-1.5-1.2-2.3-1.6c-2.7-1.2-5.9-0.4-7.9,1.7L937,89
		c-2.4,2.4-3,6.3-1.2,9.1c0.1,0.2,0.3,0.4,0.4,0.6l57.5,57.5C996.7,158.6,1001,158.5,1003.7,155.8z"/>
	<path class="elementor-shape-fill ha-shape-divider" d="M865.8,313.1l56.4,56.4c2.9,2.9,7.6,2.9,10.6,0l56.4-56.4c2.9-2.9,2.9-7.6,0-10.6l-56.4-56.4c-2.9-2.9-7.6-2.9-10.6,0
		l-56.4,56.4C862.9,305.5,862.9,310.2,865.8,313.1z"/>
	<path class="elementor-shape-fill ha-shape-divider" d="M1064.7,227.3c2.9,2.6,7.4,2.5,10.2-0.3l56.4-56.4c2.9-2.9,2.9-7.6,0-10.6l-56.4-56.4c-2.9-2.9-7.6-2.9-10.6,0l-56.4,56.4
		c-2.8,2.8-2.9,7.3-0.3,10.2L1064.7,227.3z"/>
	<path class="elementor-shape-fill ha-shape-divider" d="M353.5,226.9c2.9,2.9,7.6,2.9,10.6,0l56.4-56.4c2.9-2.9,2.9-7.6,0-10.6L364,103.4c-2.9-2.9-7.6-2.9-10.6,0L297,159.9
		c-2.9,2.9-2.9,7.6,0,10.6L353.5,226.9z"/>
	<path class="elementor-shape-fill ha-shape-divider" d="M1280.2,157.2c2.8,1.4,6.2,0.9,8.5-1.4l56.4-56.4c0.2-0.2,0.3-0.4,0.5-0.6c2.2-2.7,1.8-6.8-0.7-9.3l-56.7-56.7
		c-2.2-2.2-5.7-2.7-8.3-1.1c0,0,0,0-0.1,0c-0.4,0.3-0.8,0.6-1.1,0.9L1222.3,89c-2.9,2.9-2.9,7.5-0.1,10.4l56.8,56.8
		C1279.3,156.6,1279.7,156.9,1280.2,157.2z"/>
	<path class="elementor-shape-fill ha-shape-divider" d="M292.9,155.8l6.4-6.4l50.1-50.1c2.9-2.9,2.9-7.6,0-10.6L293,32.3c-2.9-2.9-7.6-2.9-10.6,0L226,88.7
		c-2.9,2.9-2.9,7.6,0,10.6l56.4,56.4C285.3,158.7,290,158.7,292.9,155.8z"/>
	<path class="elementor-shape-fill ha-shape-divider" d="M3988,24.5l-64.6,64.6c-2.9,2.9-2.9,7.6,0,10.5l60.6,60.6c2.9,2.9,2.9,7.6,0,10.6l-64.7,64.7c-2.9,2.9-7.6,2.9-10.6,0
		l-60.5-60.5c-2.9-2.9-7.6-2.9-10.5,0l-60.5,60.5c-2.9,2.9-7.6,2.9-10.6,0c0,0-45-45.1-60.5-60.8c-2.9-2.9-7.6-2.9-10.5,0l-203,203
		c-2.9,2.9-7.6,2.9-10.6,0l-60.5-60.5c-2.9-2.9-7.6-2.9-10.5,0l-60.7,60.7c-2.9,2.9-7.6,2.9-10.6,0l-64.7-64.7
		c-2.9-2.9-2.9-7.6,0-10.6l60.7-60.7c2.9-2.9,2.9-7.6,0-10.5l-56.6-56.6c-2.9-2.9-7.6-2.9-10.5,0l-60.6,60.6
		c-2.9,2.9-7.6,2.9-10.6,0l-60.5-60.5c-2.9-2.9-7.6-2.9-10.5,0l-202.7,202.6c-2.9,2.9-7.6,2.9-10.6,0l-64.7-64.7
		c-2.9-2.9-2.9-7.6,0-10.6c0,0,45-44.9,60.7-60.5c2.9-2.9,2.9-7.6,0-10.5l-56.6-56.6c-2.9-2.9-7.6-2.9-10.5,0l-60.6,60.6
		c-2.9,2.9-7.6,2.9-10.6,0l-60.6-60.6c-2.9-2.9-7.6-2.9-10.5,0l-60.6,60.6c-1.5,1.5-3.4,2.2-5.3,2.2c-1.9,0-3.8-0.7-5.3-2.2l-60-60
		c-1.5-1.5-3.4-2.2-5.3-2.2c-1.9,0-3.8,0.7-5.3,2.2l-60,60c-1.5,1.5-3.4,2.2-5.3,2.2c-1.9,0-3.8-0.7-5.3-2.2l-60.6-60.6
		c-2.9-2.9-7.6-2.9-10.5,0l-60.6,60.6c-2.9,2.9-7.6,2.9-10.6,0l-60.6-60.6c-2.9-2.9-7.6-2.9-10.5,0l-56.6,56.6
		c-2.9,2.9-2.9,7.6,0,10.5c15.7,15.6,60.7,60.5,60.7,60.5c2.9,2.9,2.9,7.6,0,10.6l-64.7,64.7c-2.9,2.9-7.6,2.9-10.6,0L2000,174.9
		c-2.9-2.9-7.6-2.9-10.5,0l-60.5,60.5c-2.9,2.9-7.6,2.9-10.6,0l-60.6-60.6c-2.9-2.9-7.6-2.9-10.5,0l-56.6,56.6
		c-2.9,2.9-2.9,7.6,0,10.5l60.7,60.7c2.9,2.9,2.9,7.6,0,10.6l-64.7,64.7c-2.9,2.9-7.6,2.9-10.6,0l-60.7-60.7
		c-2.9-2.9-7.6-2.9-10.5,0l-60.5,60.5c-2.9,2.9-7.6,2.9-10.6,0l-140.4-140.4c-1-0.4-1.9-0.9-2.7-1.7l-60.5-60.5
		c-2.1-2.1-5.2-2.7-7.9-1.7c-0.7,0.4-1.4,0.8-2,1.4c-15.6,15.7-60.5,60.8-60.5,60.8c-1.5,1.5-3.6,2.3-5.6,2.2c-2,0.1-4-0.6-5.6-2.2
		c0,0-45-45.1-60.5-60.8c-0.6-0.6-1.3-1.1-2-1.4c-2.7-1-5.8-0.4-7.9,1.7l-60.5,60.5c-0.8,0.8-1.7,1.3-2.7,1.7l-140.4,140.4
		c-2.9,2.9-7.6,2.9-10.6,0l-60.5-60.5c-2.9-2.9-7.6-2.9-10.5,0l-60.7,60.7c-2.9,2.9-7.6,2.9-10.6,0L857,313.2
		c-2.9-2.9-2.9-7.6,0-10.6l60.7-60.7c2.9-2.9,2.9-7.6,0-10.5l-56.6-56.6c-2.9-2.9-7.6-2.9-10.5,0L790,235.4c-2.9,2.9-7.6,2.9-10.6,0
		l-60.5-60.5c-2.9-2.9-7.6-2.9-10.5,0L506.3,377.4c-2.9,2.9-7.6,2.9-10.6,0L431,312.7c-2.9-2.9-2.9-7.6,0-10.6
		c0,0,45-44.9,60.7-60.5c2.9-2.9,2.9-7.6,0-10.5l-56.6-56.6c-2.9-2.9-7.6-2.9-10.5,0L364,235.1c-2.9,2.9-7.6,2.9-10.6,0l-60.6-60.6
		c-2.9-2.9-7.6-2.9-10.5,0l-60.6,60.6c-2.9,2.9-7.6,2.9-10.6,0l-60-60c-2.9-2.9-7.6-2.9-10.5,0l-60,60c-2.9,2.9-7.6,2.9-10.6,0
		L5.4,170.4c-2.9-2.9-2.9-7.6,0-10.6l60-60c2.9-2.9,2.9-7.6,0-10.5L2.2,26.1C0.8,24.7,0.1,22.9,0,21l0,0v379h3990.2V19.4l0,0
		C3990.2,21.2,3989.5,23.1,3988,24.5z"/>
	<path class="elementor-shape-fill ha-shape-divider" d="M207.1,99.3c2.9-2.9,2.9-7.6,0-10.5l-58.5-58.5c-2.9-2.9-7.6-2.9-10.5,0l-56,55.8c-2.9,2.9-2.9,7.6,0,10.5l58.4,58.4
		c3,3,7.8,3,10.7,0L207.1,99.3z"/>
	<path class="elementor-shape-fill ha-shape-divider" d="M70.1,103.4l-56.4,56.4c-2.9,2.9-2.9,7.6,0,10.6l56.4,56.4c2.9,2.9,7.6,2.9,10.6,0l56.4-56.4c2.9-2.9,2.9-7.6,0-10.6
		l-56.4-56.4C77.7,100.5,73,100.5,70.1,103.4z"/>
	<path class="elementor-shape-fill ha-shape-divider" d="M211.2,226.9c2.9,2.9,7.6,2.9,10.6,0l56.4-56.4c2.9-2.9,2.9-7.6,0-10.6l-56.4-56.4c-2.9-2.9-7.6-2.9-10.6,0l-56.4,56.4
		c-2.9,2.9-2.9,7.6,0,10.6L211.2,226.9z"/>
	<path class="elementor-shape-fill ha-shape-divider" d="M2132,298c2.9,2.9,7.6,2.9,10.6,0l56.4-56.4c2.9-2.9,2.9-7.6,0-10.6l-56.4-56.4c-2.7-2.7-6.9-2.9-9.8-0.6l-57.8,57.8
		c-2.3,2.9-2.1,7.1,0.6,9.8L2132,298z"/>
	<path class="elementor-shape-fill ha-shape-divider" d="M1918.9,227c2.9,2.9,7.6,2.9,10.6,0l56.4-56.4c2.9-2.9,2.9-7.6,0-10.6l-56.4-56.4c-2.9-2.9-7.5-2.9-10.4-0.1l-56.7,56.7
		c-2.8,2.9-2.7,7.5,0.1,10.4L1918.9,227z"/>
	<path class="elementor-shape-fill ha-shape-divider" d="M1999,157.1l58.4-58.4c1.2-1.2,2-2.8,2-4.6c0,0,0,0,0-0.1c0-1.7-0.8-3.3-2-4.6l-56.9-56.9c-2.6-2.6-6.9-3-9.7-0.7
		c-0.2,0.1-0.4,0.3-0.5,0.5l-56.4,56.4c-2.9,2.9-2.9,7.6,0,10.6l56.4,56.4C1992.7,158.1,1996.2,158.5,1999,157.1z"/>
	<path class="elementor-shape-fill ha-shape-divider" d="M2061.6,227.6c2.7,2.1,6.4,2.1,9.1,0l57.2-57.2c1.4-1.4,2.2-3.3,2.2-5.2s-0.7-3.8-2.2-5.2l-56.4-56.4
		c-2.4-2.4-6.1-2.8-9-1.2l-59.2,59.2c-0.6,1.1-1,2.4-1,3.6c0,1.9,0.7,3.8,2.2,5.2L2061.6,227.6z"/>
	<path class="elementor-shape-fill ha-shape-divider" d="M1858.3,155.9l56.7-56.7c0.7-0.7,1.2-1.5,1.5-2.3c1.1-2.7,0.3-5.8-1.8-7.8l-56.4-56.4c-2.5-2.5-6.6-3.1-9.5-0.9
		c-0.2,0.1-0.4,0.3-0.5,0.4l-57,57c-2.6,2.9-2.5,7.4,0.3,10.2l56.4,56.4C1850.7,158.6,1855.4,158.7,1858.3,155.9z"/>
	<path class="elementor-shape-fill ha-shape-divider" d="M1843.6,160l-56.4-56.4c-2.7-2.7-7-2.9-10-0.5l-57.5,57.5c-2.4,2.9-2.2,7.2,0.5,10l56.4,56.4c2.9,2.9,7.6,2.9,10.6,0
		l56.4-56.4C1846.5,167.7,1846.5,162.9,1843.6,160z"/>
	<path class="elementor-shape-fill ha-shape-divider" d="M2142.6,155.8l56.4-56.4c2.9-2.9,2.9-7.6,0-10.6l-56.4-56.4c-2.9-2.9-7.6-2.9-10.6,0l-56.4,56.4c-2.9,2.9-2.9,7.6,0,10.6
		l56.4,56.4C2134.9,158.7,2139.7,158.7,2142.6,155.8z"/>
	<path class="elementor-shape-fill ha-shape-divider" d="M780,227c2.9,2.9,7.6,2.9,10.6,0l56.4-56.4c2.9-2.9,2.9-7.5,0.1-10.4l-56.7-56.7c-2.9-2.8-7.5-2.7-10.4,0.1L723.6,160
		c-2.9,2.9-2.9,7.6,0,10.6L780,227z"/>
	<path class="elementor-shape-fill ha-shape-divider" d="M1776.6,246.1l-56.4,56.4c-2.9,2.9-2.9,7.6,0,10.6l56.4,56.4c2.9,2.9,7.6,2.9,10.6,0l56.4-56.4c2.9-2.9,2.9-7.6,0-10.6
		l-56.4-56.4C1784.2,243.2,1779.5,243.2,1776.6,246.1z"/>
	<path class="elementor-shape-fill ha-shape-divider" d="M1715.7,156.2l57.5-57.5c1.9-2.4,2.2-5.6,0.8-8.3l-58-58c-2.1-2.1-5.2-2.9-7.9-1.7c-0.8,0.4-1.6,0.9-2.3,1.6l-56.4,56.4
		c-2.9,2.9-2.9,7.6,0,10.6l56.4,56.4C1708.4,158.5,1712.7,158.6,1715.7,156.2z"/>
	<path class="elementor-shape-fill ha-shape-divider" d="M647.8,227.6l57.2-57.2c1.4-1.4,2.2-3.3,2.2-5.2l0,0c0-1.8-0.8-3.4-2.1-4.7L647,102.4c-2.9-1.6-6.5-1.3-9,1.2L581.6,160
		c-1.4,1.4-2.2,3.3-2.2,5.2s0.7,3.8,2.2,5.2l57.2,57.2C641.4,229.7,645.1,229.7,647.8,227.6z"/>
	<path class="elementor-shape-fill ha-shape-divider" d="M719.1,155.8l56.4-56.4c2.9-2.9,2.9-7.6,0-10.6l-56.4-56.4c-0.2-0.2-0.3-0.3-0.5-0.5c-2.8-2.4-7.1-1.9-9.7,0.7L652,89.4
		c-1.2,1.2-2,2.8-2,4.6c0,0,0,0,0,0.1c0,1.7,0.8,3.3,2,4.6l56.9,56.9c2.6,2.6,6.9,3,9.7,0.7C718.8,156.1,719,155.9,719.1,155.8z"/>
	<path class="elementor-shape-fill ha-shape-divider" d="M566.9,155.8c2.9,2.9,7.6,2.9,10.6,0l56.4-56.4c2.9-2.9,2.9-7.6,0-10.6l-56.4-56.4c-2.9-2.9-7.6-2.9-10.6,0l-56.4,56.4
		c-2.9,2.9-2.9,7.6,0,10.6L566.9,155.8z"/>
	<path class="elementor-shape-fill ha-shape-divider" d="M2203.1,369.1c2.9,2.9,7.6,2.9,10.6,0l56.4-56.4c2.9-2.9,2.9-7.6,0-10.6l-56.4-56.4c-2.9-2.9-7.6-2.9-10.6,0l-56.4,56.4
		c-2.9,2.9-2.9,7.6,0,10.6L2203.1,369.1z"/>
	<path class="elementor-shape-fill ha-shape-divider" d="M577.4,298l56.4-56.4c2.7-2.7,2.9-6.9,0.6-9.8L576.7,174c-2.9-2.3-7.1-2.1-9.8,0.6L510.4,231c-2.9,2.9-2.9,7.6,0,10.6
		l56.4,56.4C569.8,300.9,574.5,300.9,577.4,298z"/>
	<path class="elementor-shape-fill ha-shape-divider" d="M495.7,245.7l-56.4,56.4c-2.9,2.9-2.9,7.6,0,10.6l56.4,56.4c2.9,2.9,7.6,2.9,10.6,0l56.4-56.4c2.9-2.9,2.9-7.6,0-10.6
		l-56.4-56.4C503.4,242.8,498.7,242.8,495.7,245.7z"/>
</g>
</svg>
