<svg xmlns="http://www.w3.org/2000/svg" viewBox="0 0 16383 400" preserveAspectRatio="none">
<path class="elementor-shape-fill ha-shape-divider" d="M35919,202c-92,0-167.7-80.9-167.7-182.3c0,100.1-75.7,182.3-167.7,182.3s-167.7-80.9-167.7-182.3
	c0,100.1-74.4,182.3-167.7,182.3c-92,0-167.7-80.9-167.7-182.3c0,100.1-74.4,182.3-167.7,182.3c-92,0-167.7-80.9-167.7-182.3
	c0,100.1-75.7,182.3-167.7,182.3s-167.7-80.9-167.7-182.3c0,100.1-74.4,182.3-167.7,182.3c-92,0-167.7-80.9-167.7-182.3
	c0,100.1-74.4,182.3-167.7,182.3c-92,0-167.7-80.9-167.7-182.3c0,100.1-75.7,182.3-167.7,182.3s-167.7-80.9-167.7-182.3
	c0,100.1-74.4,182.3-167.7,182.3c-92,0-167.7-80.9-167.7-182.3c0,100.1-74.4,182.3-167.7,182.3c-92,0-167.7-80.9-167.7-182.3
	c0,100.1-75.7,182.3-167.7,182.3s-167.7-80.9-167.7-182.3c0,100.1-74.4,182.3-167.7,182.3c-92,0-167.7-80.9-167.7-182.3
	c0,100.1-74.4,182.3-167.7,182.3c-92,0-167.7-80.9-167.7-182.3c0,100.1-74.4,182.3-167.7,182.3c-92,0-167.7-80.9-167.7-182.3
	c0,100.1-74.4,182.3-167.7,182.3c-92,0-167.7-80.9-167.7-182.3c0,101.5-75.7,182.3-180.3,182.3c-92,0-167.7-80.9-167.7-182.3
	c0,100.1-75.7,182.3-167.7,182.3s-167.7-80.9-167.7-182.3c0,100.1-74.4,182.3-167.7,182.3c-92,0-167.7-80.9-167.7-182.3
	c0,100.1-74.4,182.3-167.7,182.3c-92,0-167.7-80.9-167.7-182.3c0,100.1-75.7,182.3-167.7,182.3s-167.7-80.9-167.7-182.3
	c0,100.1-74.4,182.3-167.7,182.3c-92,0-167.7-80.9-167.7-182.3c0,100.1-74.4,182.3-167.7,182.3c-92,0-167.7-80.9-167.7-182.3
	c0,100.1-75.7,182.3-167.7,182.3S28360,121.1,28360,19.7c0,100.1-74.4,182.3-167.7,182.3c-92,0-167.7-80.9-167.7-182.3
	c0,100.1-74.4,182.3-167.7,182.3c-92,0-167.7-80.9-167.7-182.3c0,100.1-75.6,182.3-167.6,182.3s-167.7-80.9-167.7-182.3
	c0,100.1-74.4,182.3-167.7,182.3c-92,0-167.7-80.9-167.7-182.3c0,100.1-74.4,182.3-167.7,182.3c-92,0-167.7-80.9-167.7-182.3
	c0,100.1-74.4,182.3-167.7,182.3c-92,0-167.7-80.9-167.7-182.3c0,100.1-74.4,182.3-167.7,182.3c-92,0-167.7-80.9-167.7-182.3
	c0,101.5-75.7,182.3-180.3,182.3c-92,0-167.7-80.9-167.7-182.3c0,100.1-75.7,182.3-167.7,182.3s-167.7-80.9-167.7-182.3
	c0,100.1-74.4,182.3-167.7,182.3c-92,0-167.7-80.9-167.7-182.3c0,100.1-74.4,182.3-167.7,182.3c-92,0-167.7-80.9-167.7-182.3
	c0,100.1-75.7,182.3-167.7,182.3s-167.7-80.9-167.7-182.3c0,100.1-74.4,182.3-167.7,182.3c-92,0-167.7-80.9-167.7-182.3
	c0,100.1-74.4,182.3-167.7,182.3c-92,0-167.7-80.9-167.7-182.3c0,100.1-75.7,182.3-167.7,182.3s-167.7-80.9-167.7-182.3
	c0,100.1-74.4,182.3-167.7,182.3c-92,0-167.7-80.9-167.7-182.3c0,100.1-74.4,182.3-167.7,182.3c-92,0-167.7-80.9-167.7-182.3
	c0,100.1-75.7,182.3-167.7,182.3s-167.7-80.9-167.7-182.3c0,100.1-74.4,182.3-167.7,182.3c-92,0-167.7-80.9-167.7-182.3
	c0,100.1-74.4,182.3-167.7,182.3c-92,0-167.7-80.9-167.7-182.3c0,100.1-74.4,182.3-167.7,182.3c-92,0-167.7-80.9-167.7-182.3
	c0,100.1-74.4,182.3-167.7,182.3c-88.4,0-161.7-74.7-167.3-170.5c-5.6,95.9-79.4,170.5-179.9,170.5c-92,0-167.7-80.9-167.7-182.3
	c0,100.1-75.7,182.3-167.7,182.3s-167.7-80.9-167.7-182.3c0,100.1-74.4,182.3-167.7,182.3c-92,0-167.7-80.9-167.7-182.3
	c0,100.1-74.4,182.3-167.7,182.3c-92,0-167.7-80.9-167.7-182.3c0,100.1-75.7,182.3-167.7,182.3s-167.7-80.9-167.7-182.3
	c0,100.1-74.4,182.3-167.7,182.3c-92,0-167.7-80.9-167.7-182.3c0,100.1-74.4,182.3-167.7,182.3c-92,0-167.7-80.9-167.7-182.3
	c0,100.1-75.7,182.3-167.7,182.3s-167.7-80.9-167.7-182.3c0,100.1-74.4,182.3-167.7,182.3c-92,0-167.7-80.9-167.7-182.3
	c0,100.1-74.4,182.3-167.7,182.3c-92,0-167.7-80.9-167.7-182.3c0,100.1-75.7,182.3-167.7,182.3s-167.7-80.9-167.7-182.3
	c0,100.1-74.4,182.3-167.7,182.3c-92,0-167.7-80.9-167.7-182.3c0,100.1-74.4,182.3-167.7,182.3c-92,0-167.7-80.9-167.7-182.3
	c0,100.1-74.4,182.3-167.7,182.3c-92,0-167.7-80.9-167.7-182.3c0,100.1-74.4,182.3-167.7,182.3c-92,0-167.7-80.9-167.7-182.3
	c0,101.5-75.7,182.3-180.3,182.3c-92,0-167.7-80.9-167.7-182.3c0,100.1-75.7,182.3-167.7,182.3s-167.7-80.9-167.7-182.3
	c0,100.1-74.4,182.3-167.7,182.3c-92,0-167.7-80.9-167.7-182.3c0,100.1-74.4,182.3-167.7,182.3c-92,0-167.7-80.9-167.7-182.3
	c0,100.1-75.7,182.3-167.7,182.3s-167.7-80.9-167.7-182.3c0,100.1-74.4,182.3-167.7,182.3c-92,0-167.7-80.9-167.7-182.3
	c0,100.1-74.4,182.3-167.7,182.3c-92,0-167.7-80.9-167.7-182.3c0,100.1-75.7,182.3-167.7,182.3s-167.7-80.9-167.7-182.3
	c0,100.1-74.4,182.3-167.7,182.3c-92,0-167.7-80.9-167.7-182.3c0,100.1-74.4,182.3-167.7,182.3c-92,0-167.7-80.9-167.7-182.3
	c0,100.1-75.6,182.3-167.6,182.3S12224,121.1,12224,19.7c0,100.1-74.4,182.3-167.7,182.3c-92,0-167.7-80.9-167.7-182.3
	c0,100.1-74.4,182.3-167.7,182.3c-92,0-167.7-80.9-167.7-182.3c0,100.1-74.4,182.3-167.7,182.3c-92,0-167.7-80.9-167.7-182.3
	c0,100.1-74.4,182.3-167.7,182.3c-92,0-167.7-80.9-167.7-182.3c0,101.5-75.7,182.3-180.3,182.3c-79.8,0-147.2-60.8-163.8-143
	c-14.1,69.4-65.4,123.5-135.5,138.7c-11.6,2.8-23.7,4.3-36.1,4.3c-0.7,0-1.5,0-2.2,0c-0.8,0-1.7,0-2.5,0
	c-82.6,0-151.9-65.1-165.4-151.6c-13.3,85.6-81.7,151.6-165.3,151.6c-0.8,0-1.6,0-2.4,0c-0.7,0-1.5,0-2.3,0
	c-82.5,0-151.9-65.1-165.3-151.6C9848,136,9779.6,202,9696,202c-0.8,0-1.6,0-2.4,0s-1.6,0-2.4,0c-82.6,0-151.9-65.1-165.3-151.7
	C9512.4,136,9443.1,202,9360.6,202c-0.8,0-1.6,0-2.4,0c-0.8,0-1.6,0-2.4,0c-82.5,0-151.9-65-165.3-151.6
	C9177.2,136,9108.8,202,9025.2,202c-0.8,0-1.6,0-2.4,0c-0.7,0-1.5,0-2.3,0c-82.6,0-151.9-65.1-163.6-151.6
	C8843.5,136,8775.1,202,8691.5,202c-0.8,0-1.6,0-2.4,0c-0.8,0-1.6,0-2.4,0c-82.5,0-151.9-65.2-165.3-151.8
	C8507.9,136,8438.6,202,8356.1,202c-0.8,0-1.6,0-2.4,0s-1.6,0-2.4,0c-82.5,0-151.9-65-165.3-151.6C8172.7,136,8104.3,202,8020.7,202
	c-0.8,0-1.6,0-2.4,0c-0.7,0-1.5,0-2.3,0c-82.5,0-151.9-65-165.3-151.6C7837.4,136,7769,202,7685.4,202c-0.8,0-1.6,0-2.4,0
	c-0.8,0-1.6,0-2.4,0c-82.5,0-151.9-65.2-165.3-151.8C7501.8,136,7432.5,202,7350,202c-0.8,0-1.6,0-2.4,0s-1.6,0-2.4,0
	c-82.5,0-151.9-65-165.3-151.6C7166.6,136,7098.2,202,7014.6,202c-0.8,0-1.6,0-2.4,0c-0.7,0-1.5,0-2.3,0
	c-82.5,0-151.9-65-165.3-151.6C6831.3,136,6762.9,202,6679.3,202c-0.8,0-1.6,0-2.4,0c-0.8,0-1.6,0-2.4,0
	c-82.5,0-151.9-65-165.3-151.6C6495.9,136,6427.5,202,6343.9,202c-0.8,0-1.6,0-2.4,0s-1.6,0-2.4,0c-82.5,0-151.9-65-165.3-151.6
	C6160.5,136,6092.1,202,6008.5,202c-0.8,0-1.6,0-2.4,0c-0.8,0-1.6,0-2.4,0c-92,0-167.7-80.9-167.7-182.3
	c0,100.1-74.4,182.3-167.7,182.3c-92,0-167.7-80.9-167.7-182.3c0,101.5-75.7,182.3-180.3,182.3c-92,0-167.7-80.9-167.7-182.3
	c0,100.1-75.7,182.3-167.7,182.3s-167.7-80.9-167.7-182.3c0,100.1-74.4,182.3-167.7,182.3c-92,0-167.7-80.9-167.7-182.3
	c0,100.1-74.4,182.3-167.7,182.3c-92,0-167.7-80.9-167.7-182.3c0,100.1-75.7,182.3-167.7,182.3S3811,121.1,3811,19.7
	c0,100.1-74.4,182.3-167.7,182.3c-92,0-167.7-80.9-167.7-182.3c0,100.1-74.4,182.3-167.7,182.3c-92,0-167.7-80.9-167.7-182.3
	c0,100.1-75.7,182.3-167.7,182.3s-167.7-80.9-167.7-182.3c0,100.1-74.4,182.3-167.7,182.3c-92,0-167.7-80.9-167.7-182.3
	c0,100.1-74.4,182.3-167.7,182.3c-92,0-167.7-80.9-167.7-182.3c0,100.1-75.6,182.3-167.6,182.3s-167.7-80.9-167.7-182.3
	c0,100.1-74.4,182.3-167.7,182.3c-92,0-167.7-80.9-167.7-182.3c0,100.1-74.4,182.3-167.7,182.3c-92,0-167.7-80.9-167.7-182.3
	c0,100.1-74.4,182.3-167.7,182.3c-92,0-167.7-80.9-167.7-182.3c0,100.1-74.4,182.3-167.7,182.3c-92,0-167.7-80.9-167.7-182.3
	c0,101.5-75.7,182.3-180.3,182.3c-92,0-167.7-80.9-167.7-182.3C109.1,119.8,33.4,202-58.6,202s-167.7-80.9-167.7-182.3
	c0,100.1-74.4,182.3-167.7,182.3c-92,0-167.7-80.9-167.7-182.3c0,100.1-74.4,182.3-167.7,182.3c-92,0-167.7-80.9-167.7-182.3
	c0,100.1-75.7,182.3-167.7,182.3s-167.7-80.9-167.7-182.3c0,100.1-74.4,182.3-167.7,182.3c-92,0-167.7-80.9-167.7-182.3
	c0,100.1-74.4,182.3-167.7,182.3c-92,0-167.7-80.9-167.7-182.3c0,100.1-75.7,182.3-167.7,182.3s-167.7-80.9-167.7-182.3
	c0,100.1-74.4,182.3-167.7,182.3c-92,0-167.7-80.9-167.7-182.3c0,100.1-74.4,182.3-167.7,182.3c-92,0-167.7-80.9-167.7-182.3
	c0,100.1-75.7,182.3-167.7,182.3s-167.7-80.9-167.7-182.3c0,100.1-74.4,182.3-167.7,182.3c-92,0-167.7-80.9-167.7-182.3
	c0,100.1-74.4,182.3-167.7,182.3c-92,0-167.7-80.9-167.7-182.3c0,100.1-74.4,182.3-167.7,182.3c-92,0-167.7-80.9-167.7-182.3
	c0,100.1-74.4,182.3-167.7,182.3c-88.4,0-161.7-74.7-167.3-170.5c-5.6,95.9-79.4,170.5-179.9,170.5c-92,0-167.7-80.9-167.7-182.3
	c0,100.1-75.7,182.3-167.7,182.3s-167.7-80.9-167.7-182.3c0,100.1-74.4,182.3-167.7,182.3c-92,0-167.7-80.9-167.7-182.3
	c0,100.1-74.4,182.3-167.7,182.3c-92,0-167.7-80.9-167.7-182.3c0,100.1-75.7,182.3-167.7,182.3s-167.7-80.9-167.7-182.3
	c0,100.1-74.4,182.3-167.7,182.3c-92,0-167.7-80.9-167.7-182.3c0,100.1-74.4,182.3-167.7,182.3c-92,0-167.7-80.9-167.7-182.3
	c0,100.1-75.7,182.3-167.7,182.3s-167.7-80.9-167.7-182.3c0,100.1-74.4,182.3-167.7,182.3c-92,0-167.7-80.9-167.7-182.3
	c0,100.1-74.4,182.3-167.7,182.3c-92,0-167.7-80.9-167.7-182.3c0,100.1-75.7,182.3-167.7,182.3s-167.7-80.9-167.7-182.3
	c0,100.1-74.4,182.3-167.7,182.3c-92,0-167.7-80.9-167.7-182.3c0,100.1-74.4,182.3-167.7,182.3c-92,0-167.7-80.9-167.7-182.3
	c0,100.1-74.4,182.3-167.7,182.3c-92,0-167.7-80.9-167.7-182.3c0,100.1-74.4,182.3-167.7,182.3c-92,0-167.7-80.9-167.7-182.3
	c0,101.5-75.7,182.3-180.3,182.3c-92,0-167.7-80.9-167.7-182.3c0,100.1-75.7,182.3-167.7,182.3c-92,0-167.7-80.9-167.7-182.3
	c0,100.1-74.4,182.3-167.7,182.3c-92,0-167.7-80.9-167.7-182.3c0,100.1-74.4,182.3-167.7,182.3c-92,0-167.7-80.9-167.7-182.3
	c0,100.1-75.7,182.3-167.7,182.3s-167.7-80.9-167.7-182.3c0,100.1-74.4,182.3-167.7,182.3c-92,0-167.7-80.9-167.7-182.3
	c0,100.1-74.4,182.3-167.7,182.3c-92,0-167.7-80.9-167.7-182.3c0,100.1-75.7,182.3-167.7,182.3s-167.7-80.9-167.7-182.3
	c0,100.1-74.4,182.3-167.7,182.3c-92,0-167.7-80.9-167.7-182.3c0,100.1-74.4,182.3-167.7,182.3c-92,0-167.7-80.9-167.7-182.3
	c0,100.1-75.6,182.3-167.6,182.3s-167.7-80.9-167.7-182.3c0,100.1-74.4,182.3-167.7,182.3c-92,0-167.7-80.9-167.7-182.3
	c0,100.1-74.4,182.3-167.7,182.3c-92,0-167.7-80.9-167.7-182.3c0,100.1-74.4,182.3-167.7,182.3c-92,0-167.7-80.9-167.7-182.3
	c0,100.1-74.4,182.3-167.7,182.3c-92,0-167.7-80.9-167.7-182.3c0,101.5-75.7,182.3-180.3,182.3c-92,0-167.7-80.9-167.7-182.3
	c0,100.1-75.7,182.3-167.7,182.3s-167.7-80.9-167.7-182.3c0,100.1-74.4,182.3-167.7,182.3c-92,0-167.7-80.9-167.7-182.3
	c0,100.1-74.4,182.3-167.7,182.3c-92,0-167.7-80.9-167.7-182.3c0,100.1-75.7,182.3-167.7,182.3s-167.7-80.9-167.7-182.3
	c0,100.1-74.4,182.3-167.7,182.3c-92,0-167.7-80.9-167.7-182.3c0,100.1-74.4,182.3-167.7,182.3c-92,0-167.7-80.9-167.7-182.3
	c0,100.1-75.7,182.3-167.7,182.3s-167.7-80.9-167.7-182.3c0,100.1-74.4,182.3-167.7,182.3c-92,0-167.7-80.9-167.7-182.3
	c0,100.1-74.4,182.3-167.7,182.3c-92,0-167.7-80.9-167.7-182.3c0,100.1-75.7,182.3-167.7,182.3s-167.7-80.9-167.7-182.3
	c0,100.1-74.4,182.3-167.7,182.3c-92,0-167.7-80.9-167.7-182.3c0,100.1-74.4,182.3-167.7,182.3c-92,0-167.7-80.9-167.7-182.3
	c0,100.1-74.4,182.3-167.7,182.3c-92,0-167.7-80.9-167.7-182.3c0,100.1-74.4,182.3-167.7,182.3c-42.9,0-82.3-17.6-112.1-46.8V400
	h55707.5V150.6C36014.8,182.5,35970.4,202,35919,202z"/>
</svg>
