<svg xmlns="http://www.w3.org/2000/svg" viewBox="-6151.5 0 16383 400" preserveAspectRatio="none">
<path class="elementor-shape-fill ha-shape-divider" d="M11247.1,0h-0.7h-25554.7h-0.7h-15128.9v19.7c0,101.4,75.7,182.3,167.7,182.3c93.3,0,167.7-82.2,167.7-182.3  c0,101.4,75.7,182.3,167.7,182.3c93.3,0,167.7-82.2,167.7-182.3c0,101.4,75.7,182.3,167.7,182.3c93.3,0,167.7-82.2,167.7-182.3  c0,101.4,75.7,182.3,167.7,182.3c93.3,0,167.7-82.2,167.7-182.3c0,101.4,75.7,182.3,167.7,182.3s167.7-82.2,167.7-182.3  c0,101.4,75.7,182.3,167.7,182.3c93.3,0,167.7-82.2,167.7-182.3c0,101.4,75.7,182.3,167.7,182.3c93.3,0,167.7-82.2,167.7-182.3  c0,101.4,75.7,182.3,167.7,182.3c92,0,167.7-82.2,167.7-182.3c0,101.4,75.7,182.3,167.7,182.3c93.3,0,167.7-82.2,167.7-182.3  c0,101.4,75.7,182.3,167.7,182.3c93.3,0,167.7-82.2,167.7-182.3c0,101.4,75.7,182.3,167.7,182.3c92,0,167.7-82.2,167.7-182.3  c0,101.4,75.7,182.3,167.7,182.3c93.3,0,167.7-82.2,167.7-182.3c0,101.4,75.7,182.3,167.7,182.3c93.3,0,167.7-82.2,167.7-182.3  c0,101.4,75.7,182.3,167.7,182.3c92,0,167.7-82.2,167.7-182.3c0,101.4,75.7,182.3,167.7,182.3c104.6,0,180.3-80.8,180.3-182.3  c0,101.4,75.7,182.3,167.7,182.3c93.3,0,167.7-82.2,167.7-182.3c0,101.4,75.7,182.3,167.7,182.3c93.3,0,167.7-82.2,167.7-182.3  c0,101.4,75.7,182.3,167.7,182.3c93.3,0,167.7-82.2,167.7-182.3c0,101.4,75.7,182.3,167.7,182.3c93.3,0,167.7-82.2,167.7-182.3  c0,101.4,75.7,182.3,167.7,182.3c92,0,167.6-82.2,167.6-182.3c0,101.4,75.7,182.3,167.7,182.3c93.3,0,167.7-82.2,167.7-182.3  c0,101.4,75.7,182.3,167.7,182.3c93.3,0,167.7-82.2,167.7-182.3c0,101.4,75.7,182.3,167.7,182.3c92,0,167.7-82.2,167.7-182.3  c0,101.4,75.7,182.3,167.7,182.3c93.3,0,167.7-82.2,167.7-182.3c0,101.4,75.7,182.3,167.7,182.3c93.3,0,167.7-82.2,167.7-182.3  c0,101.4,75.7,182.3,167.7,182.3c92,0,167.7-82.2,167.7-182.3c0,101.4,75.7,182.3,167.7,182.3c93.3,0,167.7-82.2,167.7-182.3  c0,101.4,75.7,182.3,167.7,182.3c93.3,0,167.7-82.2,167.7-182.3c0,101.4,75.7,182.3,167.7,182.3c92,0,167.7-82.2,167.7-182.3  c0,101.4,75.7,182.3,167.7,182.3c104.6,0,180.3-80.8,180.3-182.3c0,101.4,75.7,182.3,167.7,182.3c93.3,0,167.7-82.2,167.7-182.3  c0,101.4,75.7,182.3,167.7,182.3c93.3,0,167.7-82.2,167.7-182.3c0,101.4,75.7,182.3,167.7,182.3c93.3,0,167.7-82.2,167.7-182.3  c0,101.4,75.7,182.3,167.7,182.3c93.3,0,167.7-82.2,167.7-182.3c0,101.4,75.7,182.3,167.7,182.3c92,0,167.7-82.2,167.7-182.3  c0,101.4,75.7,182.3,167.7,182.3c93.3,0,167.7-82.2,167.7-182.3c0,101.4,75.7,182.3,167.7,182.3c93.3,0,167.7-82.2,167.7-182.3  c0,101.4,75.7,182.3,167.7,182.3c92,0,167.7-82.2,167.7-182.3c0,101.4,75.7,182.3,167.7,182.3c93.3,0,167.7-82.2,167.7-182.3  c0,101.4,75.7,182.3,167.7,182.3c93.3,0,167.7-82.2,167.7-182.3c0,101.4,75.7,182.3,167.7,182.3c92,0,167.7-82.2,167.7-182.3  c0,101.4,75.7,182.3,167.7,182.3c93.3,0,167.7-82.2,167.7-182.3c0,101.4,75.7,182.3,167.7,182.3c93.3,0,167.7-82.2,167.7-182.3  c0,101.4,75.7,182.3,167.7,182.3s167.7-82.2,167.7-182.3c0,101.4,75.7,182.3,167.7,182.3c100.5,0,174.3-74.6,179.9-170.5  c5.6,95.8,78.9,170.5,167.3,170.5c93.3,0,167.7-82.2,167.7-182.3c0,101.4,75.7,182.3,167.7,182.3c93.3,0,167.7-82.2,167.7-182.3  c0,101.4,75.7,182.3,167.7,182.3c93.3,0,167.7-82.2,167.7-182.3c0,101.4,75.7,182.3,167.7,182.3c93.3,0,167.7-82.2,167.7-182.3  c0,101.4,75.7,182.3,167.7,182.3s167.7-82.2,167.7-182.3c0,101.4,75.7,182.3,167.7,182.3c93.3,0,167.7-82.2,167.7-182.3  c0,101.4,75.7,182.3,167.7,182.3c93.3,0,167.7-82.2,167.7-182.3c0,101.4,75.7,182.3,167.7,182.3s167.7-82.2,167.7-182.3  c0,101.4,75.7,182.3,167.7,182.3c93.3,0,167.7-82.2,167.7-182.3c0,101.4,75.7,182.3,167.7,182.3c93.3,0,167.7-82.2,167.7-182.3  c0,101.4,75.7,182.3,167.7,182.3s167.7-82.2,167.7-182.3c0,101.4,75.7,182.3,167.7,182.3c93.3,0,167.7-82.2,167.7-182.3  c0,101.4,75.7,182.3,167.7,182.3c93.3,0,167.7-82.2,167.7-182.3c0,101.4,75.7,182.3,167.7,182.3s167.7-82.2,167.7-182.3  c0,101.4,75.7,182.3,167.7,182.3c104.6,0,180.3-80.8,180.3-182.3c0,101.4,75.7,182.3,167.7,182.3c93.3,0,167.7-82.2,167.7-182.3  c0,101.4,75.7,182.3,167.7,182.3c93.3,0,167.7-82.2,167.7-182.3c0,101.4,75.7,182.3,167.7,182.3c93.3,0,167.7-82.2,167.7-182.3  c0,101.4,75.7,182.3,167.7,182.3c93.3,0,167.7-82.2,167.7-182.3c0,101.4,75.7,182.3,167.7,182.3s167.6-82.2,167.6-182.3  c0,101.4,75.7,182.3,167.7,182.3c93.3,0,167.7-82.2,167.7-182.3c0,101.4,75.7,182.3,167.7,182.3c93.3,0,167.7-82.2,167.7-182.3  c0,101.4,75.7,182.3,167.7,182.3c92,0,167.7-82.2,167.7-182.3c0,101.4,75.7,182.3,167.7,182.3c93.3,0,167.7-82.2,167.7-182.3  c0,101.4,75.7,182.3,167.7,182.3c93.3,0,167.7-82.2,167.7-182.3c0,101.4,75.7,182.3,167.7,182.3c92,0,167.7-82.2,167.7-182.3  c0,101.4,75.7,182.3,167.7,182.3c93.3,0,167.7-82.2,167.7-182.3c0,101.4,75.7,182.3,167.7,182.3c93.3,0,167.7-82.2,167.7-182.3  c0,101.4,75.7,182.3,167.7,182.3c92,0,167.7-82.2,167.7-182.3c0,101.4,75.7,182.3,167.7,182.3c104.6,0,180.3-80.8,180.3-182.3  c0,101.4,75.7,182.3,167.7,182.3c93.3,0,167.7-82.2,167.7-182.3c0,101.4,75.7,182.3,167.7,182.3c0.8,0,1.6,0,2.4,0  c0.8,0,1.6,0,2.4,0c83.6,0,152-66,165.3-151.6c13.4,86.6,82.8,151.6,165.3,151.6c0.8,0,1.6,0,2.4,0c0.8,0,1.6,0,2.4,0  c83.6,0,152-66,165.3-151.6c13.4,86.6,82.8,151.6,165.3,151.6c0.8,0,1.6,0,2.4,0c0.8,0,1.6,0,2.4,0c83.6,0,152-66,165.3-151.6  c13.4,86.6,82.8,151.6,165.3,151.6c0.8,0,1.6,0,2.3,0c0.8,0,1.6,0,2.4,0c83.6,0,152-66,165.3-151.6  c13.4,86.6,82.8,151.6,165.3,151.6c0.8,0,1.6,0,2.4,0c0.8,0,1.6,0,2.4,0c82.5,0,151.8-66,165.3-151.8  c13.4,86.6,82.8,151.8,165.3,151.8c0.8,0,1.6,0,2.4,0c0.8,0,1.6,0,2.4,0c83.6,0,152-66,165.3-151.6  c13.4,86.6,82.8,151.6,165.3,151.6c0.8,0,1.6,0,2.3,0c0.8,0,1.6,0,2.4,0c83.6,0,152-66,165.3-151.6  c13.4,86.6,82.8,151.6,165.3,151.6c0.8,0,1.6,0,2.4,0c0.8,0,1.6,0,2.4,0c82.5,0,151.8-66,165.3-151.8  c13.4,86.6,82.8,151.8,165.3,151.8c0.8,0,1.6,0,2.4,0c0.8,0,1.6,0,2.4,0c83.6,0,152-66,165.3-151.6C-853,136.9-783.7,202-701.1,202  c0.8,0,1.6,0,2.3,0c0.8,0,1.6,0,2.4,0c83.6,0,152-66,165.3-151.6c13.4,86.6,82.8,151.6,165.3,151.6c0.8,0,1.6,0,2.4,0  c0.8,0,1.6,0,2.4,0c82.5,0,151.8-66,165.3-151.7C-182.3,136.9-113,202-30.4,202c0.8,0,1.6,0,2.4,0c0.8,0,1.6,0,2.4,0  c83.6,0,152-66,165.3-151.6C153.1,136.9,222.5,202,305,202c0.8,0,1.6,0,2.3,0c0.8,0,1.6,0,2.4,0c83.6,0,152-66,165.3-151.6  C488.5,136.9,557.8,202,640.4,202c0.8,0,1.7,0,2.5,0c0.7,0,1.5,0,2.2,0c12.4,0,24.5-1.5,36.1-4.3c70.1-15.2,121.4-69.3,135.5-138.7  c16.6,82.2,84,143,163.8,143c104.6,0,180.3-80.8,180.3-182.3c0,101.4,75.7,182.3,167.7,182.3c93.3,0,167.7-82.2,167.7-182.3  c0,101.4,75.7,182.3,167.7,182.3c93.3,0,167.7-82.2,167.7-182.3c0,101.4,75.7,182.3,167.7,182.3c93.3,0,167.7-82.2,167.7-182.3  c0,101.4,75.7,182.3,167.7,182.3c93.3,0,167.7-82.2,167.7-182.3c0,101.4,75.7,182.3,167.7,182.3c92,0,167.6-82.2,167.6-182.3  c0,101.4,75.7,182.3,167.7,182.3c93.3,0,167.7-82.2,167.7-182.3c0,101.4,75.7,182.3,167.7,182.3c93.3,0,167.7-82.2,167.7-182.3  c0,101.4,75.7,182.3,167.7,182.3s167.7-82.2,167.7-182.3c0,101.4,75.7,182.3,167.7,182.3c93.3,0,167.7-82.2,167.7-182.3  c0,101.4,75.7,182.3,167.7,182.3c93.3,0,167.7-82.2,167.7-182.3c0,101.4,75.7,182.3,167.7,182.3s167.7-82.2,167.7-182.3  c0,101.4,75.7,182.3,167.7,182.3c93.3,0,167.7-82.2,167.7-182.3c0,101.4,75.7,182.3,167.7,182.3c93.3,0,167.7-82.2,167.7-182.3  c0,101.4,75.7,182.3,167.7,182.3c92,0,167.7-82.2,167.7-182.3c0,101.4,75.7,182.3,167.7,182.3c104.6,0,180.3-80.8,180.3-182.3  c0,101.4,75.7,182.3,167.7,182.3c93.3,0,167.7-82.2,167.7-182.3c0,101.4,75.7,182.3,167.7,182.3c93.3,0,167.7-82.2,167.7-182.3  c0,101.4,75.7,182.3,167.7,182.3c93.3,0,167.7-82.2,167.7-182.3c0,101.4,75.7,182.3,167.7,182.3c93.3,0,167.7-82.2,167.7-182.3  c0,101.4,75.7,182.3,167.7,182.3c92,0,167.7-82.2,167.7-182.3c0,101.4,75.7,182.3,167.7,182.3c93.3,0,167.7-82.2,167.7-182.3  c0,101.4,75.7,182.3,167.7,182.3c93.3,0,167.7-82.2,167.7-182.3c0,101.4,75.7,182.3,167.7,182.3s167.7-82.2,167.7-182.3  c0,101.4,75.7,182.3,167.7,182.3c93.3,0,167.7-82.2,167.7-182.3c0,101.4,75.7,182.3,167.7,182.3c93.3,0,167.7-82.2,167.7-182.3  c0,101.4,75.7,182.3,167.7,182.3s167.7-82.2,167.7-182.3c0,101.4,75.7,182.3,167.7,182.3c93.3,0,167.7-82.2,167.7-182.3  c0,101.4,75.7,182.3,167.7,182.3c93.3,0,167.7-82.2,167.7-182.3c0,101.4,75.7,182.3,167.7,182.3s167.7-82.2,167.7-182.3  c0,101.4,75.7,182.3,167.7,182.3c100.5,0,174.3-74.6,179.9-170.5c5.6,95.8,78.9,170.5,167.3,170.5c93.3,0,167.7-82.2,167.7-182.3  c0,101.4,75.7,182.3,167.7,182.3c93.3,0,167.7-82.2,167.7-182.3c0,101.4,75.7,182.3,167.7,182.3c93.3,0,167.7-82.2,167.7-182.3  c0,101.4,75.7,182.3,167.7,182.3c93.3,0,167.7-82.2,167.7-182.3c0,101.4,75.7,182.3,167.7,182.3c92,0,167.7-82.2,167.7-182.3  c0,101.4,75.7,182.3,167.7,182.3c93.3,0,167.7-82.2,167.7-182.3c0,101.4,75.7,182.3,167.7,182.3c93.3,0,167.7-82.2,167.7-182.3  c0,101.4,75.7,182.3,167.7,182.3s167.7-82.2,167.7-182.3c0,101.4,75.7,182.3,167.7,182.3c93.3,0,167.7-82.2,167.7-182.3  c0,101.4,75.7,182.3,167.7,182.3c93.3,0,167.7-82.2,167.7-182.3c0,101.4,75.7,182.3,167.7,182.3s167.7-82.2,167.7-182.3  c0,101.4,75.7,182.3,167.7,182.3c93.3,0,167.7-82.2,167.7-182.3c0,101.4,75.7,182.3,167.7,182.3c93.3,0,167.7-82.2,167.7-182.3  c0,101.4,75.7,182.3,167.7,182.3s167.7-82.2,167.7-182.3c0,101.4,75.7,182.3,167.7,182.3c104.6,0,180.3-80.8,180.3-182.3  c0,101.4,75.7,182.3,167.7,182.3c93.3,0,167.7-82.2,167.7-182.3c0,101.4,75.7,182.3,167.7,182.3c93.3,0,167.7-82.2,167.7-182.3  c0,101.4,75.7,182.3,167.7,182.3c93.3,0,167.7-82.2,167.7-182.3c0,101.4,75.7,182.3,167.7,182.3c93.3,0,167.7-82.2,167.7-182.3  c0,101.4,75.7,182.3,167.7,182.3c92,0,167.6-82.2,167.6-182.3c0,101.4,75.7,182.3,167.7,182.3c93.3,0,167.7-82.2,167.7-182.3  c0,101.4,75.7,182.3,167.7,182.3c93.3,0,167.7-82.2,167.7-182.3c0,101.4,75.7,182.3,167.7,182.3c92,0,167.7-82.2,167.7-182.3  c0,101.4,75.7,182.3,167.7,182.3c93.3,0,167.7-82.2,167.7-182.3c0,101.4,75.7,182.3,167.7,182.3c93.3,0,167.7-82.2,167.7-182.3  c0,101.4,75.7,182.3,167.7,182.3c92,0,167.7-82.2,167.7-182.3c0,101.4,75.7,182.3,167.7,182.3c93.3,0,167.7-82.2,167.7-182.3  c0,101.4,75.7,182.3,167.7,182.3c93.3,0,167.7-82.2,167.7-182.3c0,101.4,75.7,182.3,167.7,182.3c92,0,167.7-82.2,167.7-182.3  c0,101.4,75.7,182.3,167.7,182.3c104.6,0,180.3-80.8,180.3-182.3c0,101.4,75.7,182.3,167.7,182.3c93.3,0,167.7-82.2,167.7-182.3  c0,101.4,75.7,182.3,167.7,182.3c93.3,0,167.7-82.2,167.7-182.3c0,101.4,75.7,182.3,167.7,182.3c93.3,0,167.7-82.2,167.7-182.3  c0,101.4,75.7,182.3,167.7,182.3c93.3,0,167.7-82.2,167.7-182.3c0,101.4,75.7,182.3,167.7,182.3s167.7-82.2,167.7-182.3  c0,101.4,75.7,182.3,167.7,182.3c93.3,0,167.7-82.2,167.7-182.3c0,101.4,75.7,182.3,167.7,182.3c93.3,0,167.7-82.2,167.7-182.3  c0,101.4,75.7,182.3,167.7,182.3c92,0,167.7-82.2,167.7-182.3c0,101.4,75.7,182.3,167.7,182.3c93.3,0,167.7-82.2,167.7-182.3  c0,101.4,75.7,182.3,167.7,182.3c93.3,0,167.7-82.2,167.7-182.3c0,101.4,75.7,182.3,167.7,182.3c92,0,167.7-82.2,167.7-182.3  c0,101.4,75.7,182.3,167.7,182.3c93.3,0,167.7-82.2,167.7-182.3c0,101.4,75.7,182.3,167.7,182.3c93.3,0,167.7-82.2,167.7-182.3  c0,101.4,75.7,182.3,167.7,182.3c92,0,167.7-82.2,167.7-182.3c0,101.4,75.7,182.3,167.7,182.3c104.6,0,180.3-80.8,180.3-182.3V0  H11247.1z"/>
</svg>
