<svg xmlns="http://www.w3.org/2000/svg" viewBox="0 0 4080 400" preserveAspectRatio="none">
<path class="elementor-shape-fill ha-shape-divider" d="M1412,60.3c2.6,0.4,5.6,0.7,9,1.1c0,0,0,0,0,0c177.3,22.9,254.6,47.3,271.9,53.4c2.1,0.7,3.3,2.7,3.3,4.9
	c0,0,0,0,0,0c0,5.1,3.3,9.4,7.8,11.1c0,0.1,0,0.1,0,0.2c0,1.7,1.1,3.2,2.7,3.8l0.6,1.7c-0.1,0.2-0.2,0.3-0.2,0.5
	c0,0.4,0.2,0.7,0.6,0.9l0.4,5.4c0,0,0,0,0,0c0,0,0.1,0,0.1,0l0.4-5.4c0.3-0.2,0.6-0.5,0.6-0.9c0-0.2-0.1-0.4-0.2-0.5l0.6-1.7
	c1.6-0.6,2.7-2,2.7-3.8c0-0.1,0-0.1,0-0.2c3.5-1.3,6.3-4.2,7.3-7.8v13.7h-0.2c-0.5,0-0.9,0.4-0.9,0.9v0.5c0,0.5,0.4,0.9,0.9,0.9h1.3
	c-0.1,0.3-0.1,0.7-0.1,1.1c0,2.5,1.3,4.7,3.3,5.9c1.2,0.8,2.3,1.7,3.1,2.9c-0.2,0.1-0.3,0.4-0.3,0.6c0,0.3,0.2,0.6,0.5,0.7l0.2,3.2
	h0.2l0.2-3.2c0.3-0.1,0.5-0.4,0.5-0.7c0-0.2-0.1-0.4-0.3-0.6c0.8-1.2,1.9-2.1,3.1-2.9c2-1.2,3.3-3.4,3.3-5.9c0-0.4,0-0.7-0.1-1.1
	h1.2c0.5,0,0.9-0.4,0.9-0.9v-0.5c0-0.5-0.4-0.9-0.9-0.9h-0.2v-13.1h3c-0.8,1.5-1.2,3-1.2,4.7c0,5.7,5.2,10.6,12.9,13.4
	c5,1.8,9.3,4.2,12.7,7.1c-0.1,0.2-0.2,0.5-0.2,0.8c0,0.7,0.4,1.4,1.1,1.7l0.5,7.2h0.5l0.5-7.2c0.6-0.3,1.1-0.9,1.1-1.7
	c0-0.3-0.1-0.6-0.2-0.8c3.3-2.9,7.6-5.3,12.7-7.1c3.5-1.2,6.3-2.9,8.5-4.9v3.3h-0.5v2.5h-0.9v3.2h1.4v24.8h-0.5v2.5h-0.9v3.2h1.5
	c0.1,2.7,0.2,5.5,0.6,8.1c0,0,3.3,21.8,4,21.8c0.6,0,4.1-21.6,4.1-21.6c0.4-2.7,0.6-5.6,0.7-8.4h1.5V173h-0.9v-2.5h-0.5v-24.8h1.4v0
	c4.1,11.9,15,20.5,28.1,21.3v1.1c0,0.4,0.3,0.7,0.7,0.7l0.6,0l0.5,11.9c-1.3-0.4-2.7-0.6-4.2-0.4c-2.4,0.4-4.3,1.8-5.6,3.6
	c1-0.6,2.2-1.1,3.5-1.2c4.1-0.5,8.1,2.1,9.2,6.1c0.8,2.6,0.2,5.3-1.2,7.3c2.9-1.8,4.5-5.2,3.9-8.8c-0.5-3-2.6-5.3-5.2-6.4l0.5-12
	h0.6c0.2,0,0.4-0.1,0.5-0.2c0.1-0.1,0.2-0.3,0.2-0.5v-1.2c13.1-0.9,23.9-9.8,27.8-21.8v25.5h-0.7v3.2h-1.2v4.1h1.9v31.8h-0.7v3.2
	h-1.2v4.1h1.9c0.1,3.5,0.3,7,0.8,10.4c0,0,4.3,28,5.1,28c0.8,0,5.2-27.6,5.2-27.6c0.5-3.5,0.7-7.1,0.8-10.8h2v-4.1h-1.2v-3.2h-0.7
	v-31.8h1.9v-4.1h-1.2v-3.2h-0.7v-12c8.4,16.5,23.6,28.2,41.5,30.3v2.4c0,1.2,0.6,2.1,1.3,2.1h2.5l1.8,18h0.8l1.8-18h2.5
	c0.7,0,1.3-1,1.3-2.1V189c13.9-1.7,26.3-9.2,35-20.2c2.3,21.5,14.7,39.3,47.5,52.5c21.4,8.6,28.6,21.3,30.9,27.3
	c-3.4,0.4-6,2.1-6,4.1c0,1.9,2.3,3.5,5.4,4l0.5,13.6c-1,0.3-1.7,0.9-1.7,1.6c0,0.7,0.8,1.3,1.9,1.7l0.5,13.3
	c-4.8-1-9.9-0.9-14.9,0.8c-7.5,2.5-13.2,7.9-16.4,14.4c2.7-2.3,5.8-4.1,9.3-5.3c14.8-5,30.8,3,35.8,17.7c2.5,7.3,1.8,14.9-1.3,21.3
	c8.5-7.3,12.2-19.2,8.4-30.5c-3.2-9.4-10.7-16-19.6-18.3l0.8-13.5c1.4-0.2,2.4-0.9,2.4-1.8c0-0.8-0.9-1.5-2.1-1.7l0.8-13.5
	c3.2-0.5,5.5-2.1,5.5-4c0-2.1-2.8-3.8-6.4-4.1c2.3-6,9.5-18.7,30.9-27.3c34.9-14,46.7-33.3,47.8-56.7c8.8,13.3,22.4,22.5,38.1,24.4
	v2.4c0,1.2,0.6,2.1,1.3,2.1h2.5l1.8,18h0.8l1.8-18h2.5c0.7,0,1.3-1,1.3-2.1V189c19.7-2.4,36.2-16.3,43.8-35.6v17.2h-0.7v3.2h-1.2
	v4.1h1.9v31.8h-0.7v3.2h-1.2v4.1h1.9c0.1,3.5,0.3,7,0.8,10.4c0,0,4.3,28,5.1,28c0.8,0,5.2-27.6,5.2-27.6c0.5-3.5,0.7-7.1,0.8-10.8h2
	v-4.1h-1.2v-3.2h-0.7v-31.8h1.9v-4.1h-1.2v-3.2h-0.7v-21.8c4.8,10.2,14.9,17.4,26.8,18.1v1.1c0,0.4,0.3,0.7,0.7,0.7l0.6,0l0.5,11.9
	c-1.3-0.4-2.7-0.6-4.2-0.4c-2.4,0.4-4.3,1.8-5.6,3.6c1-0.6,2.2-1.1,3.5-1.2c4.1-0.5,8.1,2.1,9.2,6.1c0.7,2.6,0.2,5.2-1.2,7.3
	c2.9-1.8,4.5-5.2,3.9-8.8c-0.5-3-2.6-5.3-5.2-6.4l0.5-12h0.6c0.2,0,0.4-0.1,0.5-0.2c0.1-0.1,0.2-0.3,0.2-0.5v-1.2
	c12.9-0.9,23.6-9.5,27.6-21.2h1.1v24.8h-0.5v2.5h-0.9v3.2h1.5c0.1,2.7,0.2,5.5,0.6,8.1c0,0,3.3,21.8,4,21.8c0.6,0,4.1-21.6,4.1-21.6
	c0.4-2.7,0.6-5.6,0.7-8.4h1.5V173h-0.9v-2.5h-0.5v-24.8h1.4v-3.2h-0.9v-2.5h-0.5v-2.9c2.1,1.8,4.9,3.4,8.1,4.5
	c5.1,1.8,9.3,4.2,12.7,7.1c-0.1,0.2-0.2,0.5-0.2,0.8c0,0.7,0.5,1.4,1.1,1.7l0.5,7.2h0.5l0.5-7.2c0.6-0.3,1.1-0.9,1.1-1.7
	c0-0.3-0.1-0.6-0.2-0.8c3.3-2.8,7.6-5.3,12.7-7.1c7.7-2.8,12.9-7.7,12.9-13.4c0-1.6-0.4-3.2-1.2-4.7h3v13.1h-0.2
	c-0.5,0-0.9,0.4-0.9,0.9v0.5c0,0.5,0.4,0.9,0.9,0.9h1.2c-0.1,0.3-0.1,0.7-0.1,1.1c0,2.5,1.3,4.7,3.3,5.9c1.2,0.8,2.3,1.7,3.1,2.9
	c-0.2,0.1-0.3,0.4-0.3,0.6c0,0.3,0.2,0.6,0.5,0.7l0.2,3.2h0.2l0.2-3.2c0.3-0.1,0.5-0.4,0.5-0.7c0-0.2-0.1-0.4-0.3-0.6
	c0.8-1.2,1.9-2.1,3.1-2.9c2-1.2,3.3-3.4,3.3-5.9c0-0.4,0-0.7-0.1-1.1h1.3c0.5,0,0.9-0.4,0.9-0.9v-0.5c0-0.5-0.4-0.9-0.9-0.9h-0.2
	V123c1,3.6,3.8,6.5,7.3,7.8c0,0.1,0,0.1,0,0.2c0,1.7,1.1,3.2,2.7,3.8l0.6,1.7c-0.1,0.2-0.2,0.3-0.2,0.5c0,0.4,0.2,0.7,0.6,0.9
	l0.4,5.4c0,0,0,0,0.1,0c0,0,0,0,0,0l0.4-5.4c0.3-0.2,0.6-0.5,0.6-0.9c0-0.2-0.1-0.4-0.2-0.5l0.6-1.7c1.5-0.6,2.7-2,2.7-3.8
	c0-0.1,0-0.1,0-0.2c4.5-1.6,7.8-6,7.8-11.1c0,0,0,0,0,0c0-2.1,1.3-3.9,3.3-4.3c17.8-3.7,95.5-19.6,211.1-39.8
	c15.4-2.4,30.3-4.7,44.7-6.7C3423.5-42.8,4001.1,65,4080,97.3V0L0,0l0,114.3C150.5,40.5,891.4-2.2,1412,60.3z M1723.1,130.7
	c0,1.8-0.5,3.4-1.3,3.9c-0.7-0.5-1.3-2-1.3-3.9v-7.2h2.6V130.7z M1730.6,131.5c0,2-1.4,3.7-3.2,4.3c-1.9-0.5-3.2-2.2-3.2-4.3v-8h4.9
	v0.1h1.6V131.5z M1734.3,130.7c0,1.8-0.5,3.4-1.3,3.9c-0.7-0.5-1.3-2-1.3-3.9v-7.1h2.6V130.7z M2348.3,130.7c0,1.8-0.5,3.4-1.3,3.9
	c-0.7-0.5-1.3-2-1.3-3.9v-7.1h2.6V130.7z M2355.8,131.5c0,2-1.4,3.7-3.2,4.3c-1.9-0.5-3.2-2.2-3.2-4.3v-7.9h1.6v-0.1h4.9V131.5z
	 M2359.5,130.7c0,1.8-0.5,3.4-1.3,3.9c-0.7-0.5-1.3-2-1.3-3.9v-7.2h2.6V130.7z"/>
</svg>
