<svg xmlns="http://www.w3.org/2000/svg" viewBox="0 0 4080 400" preserveAspectRatio="none">
<path class="elementor-shape-fill ha-shape-divider" opacity="0.25" d="M0,0v279.3c15.2,7.6,33.3,11.6,52.4,10.3c0.8,0,1.5-0.2,2.3-0.2c5.7,39.3,47.3,68.1,94.8,64.9
	c30.3-2,55.9-16.7,69.9-37.3c21.4,38.4,69.6,63.5,123,59.9c42.8-2.9,78.8-23.6,98.5-52.7c7.5,41.4,52,71.4,102.6,68
	c32.4-2.3,59.9-17.8,75.2-39.7c12.1,3.5,25.3,5,38.9,4.1c24.5-1.7,46-10.9,61.7-24.7c9.7,39.2,52.9,67.1,101.7,63.8
	c30.3-2,56.1-15.7,71.9-35.3c21,9.6,45.5,14.3,71.2,12.6c49.3-3.4,89.8-29.7,107.7-65.4c0.7,0,1.4,0,2.2-0.1
	c22.7-1.6,42.9-9.6,58.3-21.8c14.6,32.9,53.9,55.1,97.6,52.1c13.1-0.9,25.3-4,36.4-8.7c19.4,42.1,69.9,70.2,126.3,66.5
	c33.3-2.3,62.6-15.4,83.2-34.9c20.9,21.8,53.9,34.9,89.7,32.4c47.7-3.2,85.3-33,93.9-70.5c11.9,5.6,25.8,8.3,40.3,7.4
	c16.9-1.1,31.9-7.1,43.3-16.3c16.8,23.3,48.2,38,82.8,35.7c36.1-2.4,65.3-22.7,76.5-49.6c13.4,10.1,31.6,15.7,51,14.4
	c26.3-1.8,47.8-15.8,57.5-34.7c8.8,5.2,18.7,9,29.2,11.2c18.1,3.3,33.3,0.1,52.4-1.2c0.8,0,1.5-0.2,2.3-0.2
	c5.7,39.3,47.3,68.1,94.8,64.9c30.3-2,55.9-16.7,69.9-37.3c21.4,38.4,69.6,63.5,123,59.9c42.8-2.9,78.8-23.6,98.5-52.7
	c7.5,41.4,52,71.4,102.6,68c32.4-2.3,59.9-17.8,75.2-39.7c12.1,3.5,25.3,5,38.9,4.1c24.5-1.7,46-10.9,61.7-24.7
	c9.7,39.2,52.9,67.1,101.7,63.8c30.3-2,56.1-15.7,71.9-35.3c21,9.6,45.5,14.3,71.2,12.6c49.3-3.4,89.8-29.7,107.7-65.4
	c0.7,0,1.4,0,2.2-0.1c22.7-1.6,42.9-9.6,58.3-21.8c14.6,32.9,53.9,55.1,97.6,52.1c13.1-0.9,25.3-4,36.4-8.7
	c19.4,42.1,69.9,70.2,126.3,66.5c33.3-2.3,62.6-15.4,83.2-34.9c20.9,21.8,53.9,34.9,89.7,32.4c47.7-3.2,85.3-33,93.9-70.5
	c11.9,5.6,25.8,8.3,40.3,7.4c16.9-1.1,31.9-7.1,43.3-16.3c16.8,23.3,48.2,38,82.8,35.7c36.1-2.4,65.3-22.7,76.5-49.6
	c13.4,10.1,31.6,15.7,51,14.4c26.3-1.8,47.8-15.8,57.5-34.7c8.8,5.2,18.7,9,29.2,11.2V0H0z"/>
<path class="elementor-shape-fill ha-shape-divider" opacity="0.3" d="M4080,0H0v228.3c8.9,1.7,18.1,2.6,27.7,2.6c31.6,0,60.3-10,82.2-26.4c12.9,55.1,70.7,96.7,140.1,96.7
	c40.1,0,76.3-13.9,102.3-36.2c25.5,19.9,59.6,32.2,97.2,32.2c78.9,0,142.8-53.6,142.8-119.7c0-4.3-0.2-8.4-0.8-12.6
	c22.7,23.5,57.3,38.5,96.1,38.5c42.9,0,80.6-18.2,102.9-46c22.5,19.7,54.3,32,89.5,32c33.9,0,64.5-11.4,86.8-29.9
	c8.1-1.2,16-3,23.5-5.4c19.2,39.3,63.2,68.9,116.7,73.1c34.3,2.7,66.5-5.6,91.8-21.4c11.7,44,56.4,79,112.5,83.4
	c50.2,4,95.3-17.8,117.5-52.3c20.9,21.2,51.2,35.7,86,38.5c26.4,2.1,51.2-3,72.2-13.1c14.6,26.6,45.3,46.3,82.2,49.2
	c39.7,3.1,75.3-14.1,92.8-41.4c11.3,17.9,32.8,31,58.4,33c37.4,2.9,69.8-18.7,75.3-49.1c8.4,3.6,17.7,5.5,27.4,5.5
	c28.6,0,53.3-17.2,64.2-41.7c0.2,0,0.3,0.1,0.5,0.1c18.3,23,46.5,37.8,78.2,37.8c35.9,0,67.4-19,85-47.5
	c14.5,53.3,71.3,93.1,139.2,93.1c40.1,0,76.3-13.9,102.3-36.2c25.5,19.9,59.6,32.2,97.2,32.2c78.9,0,142.8-53.6,142.8-119.7
	c0-4.3-0.2-8.4-0.8-12.6c22.7,23.5,57.3,38.5,96.1,38.5c42.9,0,80.6-18.2,102.9-46c22.5,19.7,54.3,32,89.5,32
	c33.9,0,64.5-11.4,86.8-29.9c8.1-1.2,16-3,23.5-5.4c19.2,39.3,63.2,68.9,116.7,73.1c34.3,2.7,66.5-5.6,91.8-21.4
	c11.7,44,56.4,79,112.5,83.4c50.2,4,95.3-17.8,117.5-52.3c20.9,21.2,51.2,35.7,86,38.5c26.4,2.1,51.2-3,72.2-13.1
	c14.6,26.6,45.3,46.3,82.2,49.2c39.7,3.1,75.3-14.1,92.8-41.4c11.3,17.9,32.8,31,58.4,33c38.7,3,72.1-20.2,75.8-52.4
	c73.5,0.8,135.1-45.9,140.1-108.5c1.5-18.7-2.4-36.8-10.3-53.3c4.9-0.7,9.6-1.7,14.3-2.9V0z"/>
<path class="elementor-shape-fill ha-shape-divider" d="M0,0v47.2c15.2,7.6,33.3,11.6,52.4,10.3c0.8,0,1.5-0.2,2.3-0.2c5.7,39.3,47.3,68.1,94.8,64.9c30.3-2,55.9-16.7,69.9-37.3
	c21.4,38.4,69.6,63.5,123,59.9c42.8-2.9,78.8-23.6,98.5-52.7c7.5,41.4,52,71.4,102.6,68c32.4-2.3,59.9-17.8,75.2-39.7
	c12.1,3.5,25.3,5,38.9,4.1c24.5-1.7,46-10.9,61.7-24.7C729,139,772.2,167,821,163.7c30.3-2,56.1-15.7,71.9-35.3
	c21,9.6,45.5,14.3,71.2,12.6c49.3-3.4,89.8-29.7,107.7-65.4c0.7,0,1.4,0,2.2-0.1c22.7-1.6,42.9-9.6,58.3-21.8
	c14.6,32.9,53.9,55.1,97.6,52.1c13.1-0.9,25.3-4,36.4-8.7c19.4,42.1,69.9,70.2,126.3,66.5c33.3-2.3,62.6-15.4,83.2-34.9
	c20.9,21.8,53.9,34.9,89.7,32.4c47.7-3.2,85.3-33,93.9-70.5c11.9,5.6,25.8,8.3,40.3,7.4c16.9-1.1,31.9-7.1,43.3-16.3
	c16.8,23.3,48.2,38,82.8,35.7c36.1-2.4,65.3-22.7,76.5-49.6c13.4,10.1,31.6,15.7,51,14.4c25.2-1.7,46-14.6,56.2-32.3
	c11.3,14.2,28.8,23.2,48.3,23.2c14.1,0,27.1-4.7,37.5-12.6c7.4,37.6,48.1,64.8,94.2,61.7c30.3-2,55.9-16.7,69.9-37.3
	c21.4,38.4,69.6,63.5,123,59.9c42.8-2.9,78.8-23.6,98.5-52.7c7.5,41.4,52,71.4,102.6,68c32.4-2.3,59.9-17.8,75.2-39.7
	c12.1,3.5,25.3,5,38.9,4.1c24.5-1.7,46-10.9,61.7-24.7c9.7,39.2,52.9,67.1,101.7,63.8c30.3-2,56.1-15.7,71.9-35.3
	c21,9.6,45.5,14.3,71.2,12.6c49.3-3.4,89.8-29.7,107.7-65.4c0.7,0,1.4,0,2.2-0.1c22.7-1.6,42.9-9.6,58.3-21.8
	c14.6,32.9,53.9,55.1,97.6,52.1c13.1-0.9,25.3-4,36.4-8.7c19.4,42.1,69.9,70.2,126.3,66.5c33.3-2.3,62.6-15.4,83.2-34.9
	c20.9,21.8,53.9,34.9,89.7,32.4c47.7-3.2,85.3-33,93.9-70.5c11.9,5.6,25.8,8.3,40.3,7.4c16.9-1.1,31.9-7.1,43.3-16.3
	c16.8,23.3,48.2,38,82.8,35.7c36.1-2.4,65.3-22.7,76.5-49.6c13.4,10.1,31.6,15.7,51,14.4c26.3-1.8,47.8-15.8,57.5-34.7
	c8.8,5.2,18.7,9,29.2,11.2V0H0z"/>
</svg>
