<svg xmlns="http://www.w3.org/2000/svg" viewBox="0 0 4080 400" preserveAspectRatio="none">
<path class="elementor-shape-fill ha-shape-divider" opacity="0.2" enable-background="new    " d="M4080,79.3V0L1179.4,0v79.3c0,0,694.9,437.4,1471.3,275.6
	S3575.7-152.5,4080,79.3z"/>
<path class="elementor-shape-fill ha-shape-divider" opacity="0.2" enable-background="new    " d="M2249,79.3V0L0,0l0,79.3c0,0,43.3,437.4,819.8,275.6S1744.7-152.5,2249,79.3z"/>
<path class="elementor-shape-fill ha-shape-divider" opacity="0.2" enable-background="new    " d="M2631.6,49.8c0,0-596.3,547.3-1468.8,230.2S0,95.6,0,95.6L0,0l2631.6,0V49.8z"/>
<path class="elementor-shape-fill ha-shape-divider" opacity="0.2" enable-background="new    " d="M4080,95.6c0,0-428.4,501.5-1208.9,184.4S1831,95.6,1831,95.6V0l2249,0V95.6z"/>
<path class="elementor-shape-fill ha-shape-divider" d="M4080,0v192.6c-392.4,177-703.2,95.6-1075-34.1c-214.6-74.8-508-126-839.1,6.1c-149.2,59.5-447.2,203.4-1026.2,10.8
	C313.2-99.5,0,95.6,0,95.6L0,0l2249,0L4080,0z"/>
</svg>
