<svg xmlns="http://www.w3.org/2000/svg" viewBox="0 0 4080 400" preserveAspectRatio="none">
<polygon class="elementor-shape-fill ha-shape-divider" opacity="0.8" enable-background="new    " points="0,102.1 94.6,102.1 26.3,245.4 0,187.5 "/>
<polygon class="elementor-shape-fill ha-shape-divider" opacity="0.5" enable-background="new    " points="1398.3,169.1 1635.8,182.7 1570.6,379.9 1515.4,195.9
	1499.9,234.6 1482.3,217.3 1459.7,278.5 1434.2,233.1 1409.1,245.9 1388,190.7 "/>
<path class="elementor-shape-fill ha-shape-divider" opacity="0.2" enable-background="new    " d="M1579.3,156.6c0,65.7,53.2,118.9,118.9,118.9
	c49.7,0,92.2-30.5,110-73.8c15.5,17.5,38.3,28.6,63.6,28.6c46.9,0,85-38,85-85L1579.3,156.6z"/>
<path class="elementor-shape-fill ha-shape-divider" opacity="0.2" enable-background="new    " d="M2073,147.1c16,38.5,53.9,65.6,98.2,65.6c24,0,46.2-8,64-21.5
	c4.4,42.9,40.6,76.3,84.6,76.3c44.3,0,80.7-33.8,84.7-77.1C2299,191.1,2184,180.2,2073,147.1z"/>
<path class="elementor-shape-fill ha-shape-divider" opacity="0.2" enable-background="new    " d="M2285.7,75.1l-114.5-75c-58.7,0-106.3,47.6-106.3,106.3
	c0,0.3,0,0.6,0,0.9L2285.7,75.1z"/>
<path class="elementor-shape-fill ha-shape-divider" opacity="0.3" enable-background="new    " d="M4080,68.6V0L2818.6,9l-827.5,109
	c122.5,50.8,254.3,69.7,375.9,72.1l46.8,127.3l36.9-114.6l14.3,52.5l17.6-10.9l18.5,42l14.3-62.1l14.3,20.2l8.4-41.6l42,173.4
	l46.6-203.5c115.6-17,191.9-40.3,191.9-40.3s235.8-66.8,476.8-84.1c169-12.1,367.7,31.9,367.7,31.9S3890.5,191.4,4080,68.6z"/>
<path class="elementor-shape-fill ha-shape-divider" opacity="0.2" enable-background="new    " d="M4080.1,216.8V68.7c0,0,0,0-0.1,0c-61.7,40-127.4,55.1-188,57.4
	l43.7,66.4l36.1-60.5l36.9,55l32.7-7.1l30.2,36.9H4080.1z"/>
<path class="elementor-shape-fill ha-shape-divider" opacity="0.8" enable-background="new    " d="M3496.3,54.2c12.1,39.7,47,70.3,90.9,74.8
	c23.9,2.4,46.8-3.3,65.9-14.9c0,43.1,32.6,80,76.4,84.5c44.1,4.5,83.7-25.5,92.1-68.1c-104.6-10-217.4-32.3-324.1-76.2
	C3497.1,54.3,3496.6,54.3,3496.3,54.2z"/>
<path class="elementor-shape-fill ha-shape-divider" opacity="0.7" enable-background="new    " d="M2867.3,119.7l22.9,33.1l27.1-8.7l28.1,29.6l22.1-43.1l20.6,14.5
	l34.5-59.5C2958,98,2903.6,110.7,2867.3,119.7z"/>
<path class="elementor-shape-fill ha-shape-divider" d="M4080,0H0v132.6c0,0,117.6-52.2,398-71.7l16.4,34.2l28.1-4.4l23.2,33.6l28.5-39.2l18.1,17.6l39-48.3
	c20.9-0.4,42.5-0.6,64.7-0.6c8.5,0,16.9,0.1,25.4,0.2v63.1c-26.2,1.8-47.1,29.8-47.1,64.1c0,35.5,22.4,64.3,50,64.3s50-28.8,50-64.3
	c0-34.2-20.8-62.2-47.1-64.1v-63c30,0.6,59.9,2,89.3,4v25c-11.9,1.9-21.2,15.1-21.2,31c0,17.2,10.9,31.2,24.3,31.2
	c13.4,0,24.3-13.9,24.3-31.2c0-15.9-9.2-29.1-21.2-31V58.5c305.5,22.2,564.6,114.9,564.6,114.9c317,85.5,690.4-28.9,1012.6-89.4
	c227.1-42.7,498.7-61.8,498.7-61.8s302.5-21.1,522.8,0C3561.7,43.2,3839.8,272.8,4080,0z"/>
</svg>
