<svg xmlns="http://www.w3.org/2000/svg" viewBox="0 0 4080 400" preserveAspectRatio="none">
<path class="elementor-shape-fill ha-shape-divider" d="M7364.6,0.3V0l-43815,0.4V380c66.8,0,100.2-39.8,130.9-77.8c30.7-36,58.5-72.1,117-72.1c58.5,0,86.3,36,117,72.1
	c30.6,37.9,64.1,77.8,130.9,77.8s100.2-39.8,130.9-77.8c30.7-36,58.5-72.1,117-72.1c58.5,0,86.3,34.2,117,72.1
	c30.7,37.9,64.1,77.8,130.9,77.8s97.5-39.8,117-77.8c30.7-37.9,58.5-72.1,117-72.1c58.5,0,86.4,34.2,117,72.1
	c30.6,37.9,64.1,77.8,130.9,77.8s100.2-39.9,130.9-77.8c30.7-37.9,58.5-72.1,117-72.1c58.5,0,86.3,34.2,117,72.1
	c30.7,37.9,64.1,77.8,130.9,77.8c66.8,0,100.2-39.9,130.9-77.8c30.7-37.9,58.5-72.1,117-72.1c58.5,0,86.4,34.2,117,72.1
	c30.6,37.9,64.1,77.8,130.9,77.8s100.2-39.8,130.9-77.8c30.7-37.9,58.5-72.1,117-72.1c58.5,0,86.3,34.1,117,72.1
	c30.7,37.9,64.1,77.8,130.9,77.8c66.8,0,189.4-149.9,247.9-149.9c58.5,0,86.3,34.1,117,72.1c30.7,37.9,64.1,77.8,130.9,77.8
	c66.8,0,100.2-39.8,130.9-77.8c30.7-37.9,58.5-72.1,117-72.1c58.5,0,86.3,34.1,117,72.1c30.6,37.9,64.1,77.8,130.9,77.8
	c66.8,0,100.2-39.9,130.9-77.8c30.7-37.9,58.5-72.1,117-72.1s86.3,34.1,117,72.1c30.7,37.9,64.1,77.8,130.9,77.8
	s189.4-149.9,247.9-149.9c58.5,0,86.3,34.1,117,72.1c30.7,37.9,64.1,77.8,130.9,77.8c66.8,0,100.2-39.9,130.9-77.8
	s58.5-72.1,117-72.1s86.3,34.1,117,72.1c30.6,37.9,64.1,77.8,130.9,77.8s100.2-39.8,130.9-77.8c30.7-37.9,58.5-72.1,117-72.1
	s86.3,34.1,117,72.1c30.7,37.9,64.1,77.8,130.9,77.8s100.2-39.8,130.9-77.8c30.7-37.9,58.5-72.1,117-72.1s86.3,34.1,117,72.1
	c30.7,37.9,64.1,77.8,130.9,77.8c66.8,0,100.2-39.9,130.9-77.8s58.5-72.1,117-72.1c58.5,0,86.3,34.1,117,72.1
	c30.6,37.9,64.1,77.8,130.9,77.8c66.8,0,100.2-39.8,130.9-77.8c30.7-37.9,58.5-72.1,117-72.1s86.3,34.2,117,72.1
	s64.1,77.8,130.9,77.8c66.8,0,100.2-39.9,130.9-77.8c30.7-37.9,58.5-72.1,117-72.1c58.5,0,86.3,34.2,117,72.1
	c30.7,37.9,64.1,77.8,130.9,77.8c66.8,0,100.2-39.8,130.9-77.8c30.7-37.9,58.5-72.1,117-72.1s86.3,34.1,117,72.1
	c30.7,37.9,64.1,77.8,130.9,77.8c66.8,0,100.2-39.8,130.9-77.8c30.7-37.9,58.5-72.1,117-72.1c58.5,0,86.3,34.2,117,72.1
	c30.7,37.9,64.1,77.8,130.9,77.8c66.8,0,100.2-39.8,130.9-77.8c30.7-37.9,58.5-72.1,117-72.1s86.3,34.2,117,72.1
	c30.7,37.9,64.1,77.8,130.9,77.8c66.8,0,100.2-39.8,130.9-77.8c30.7-37.9,58.5-72.1,117-72.1s86.3,34.1,117,72.1
	c30.6,37.9,64.1,77.8,130.9,77.8s100.2-39.9,130.9-77.8c30.7-37.9,58.5-72.1,117-72.1s86.3,34.1,117,72.1
	c30.6,37.9,64.1,77.8,130.9,77.8c66.8,0,100.2-39.9,130.9-77.8s58.5-72.1,117-72.1c58.5,0,86.3,34.1,117,72.1
	c30.6,37.9,64.1,77.8,130.9,77.8c66.8,0,100.2-39.9,130.9-77.8s58.5-72.1,117-72.1v-0.4c57.9,0.4,85.6,36.2,116.1,72.1
	c30.7,37.9,64.1,77.8,130.9,77.8s100.2-39.8,130.9-77.8c30.7-36,58.5-72.1,117-72.1s86.3,34.1,117,72.1
	c30.7,37.9,64.1,77.8,130.9,77.8c66.8,0,97.5-39.8,117-77.8c30.7-37.9,58.5-72.1,117-72.1s86.3,34.1,117,72.1
	c30.7,37.9,64.1,77.8,130.9,77.8c66.8,0,100.2-39.8,130.9-77.8c30.7-37.9,58.5-72.1,117-72.1s86.3,34.1,117,72.1
	c30.7,37.9,64.1,77.8,130.9,77.8s100.2-39.8,130.9-77.8c30.7-37.9,58.5-72.1,117-72.1s86.3,34.1,117,72.1
	c30.7,37.9,64.1,77.8,130.9,77.8s100.2-39.8,130.9-77.8c30.7-37.9,58.5-72.1,117-72.1s86.3,34.1,117,72.1
	c30.7,37.9,64.1,77.8,130.9,77.8c66.8,0,189.4-149.9,247.9-149.9s86.3,34.1,117,72.1c30.7,37.9,64.1,77.8,130.9,77.8
	c66.8,0,100.2-39.8,130.9-77.8c30.7-37.9,58.5-72.1,117-72.1c58.5,0,86.3,34.1,117,72.1c30.7,37.9,64.1,77.8,130.9,77.8
	c66.8,0,100.2-39.8,130.9-77.8c30.7-37.9,58.5-72.1,117-72.1c58.5,0,86.3,34.1,117,72.1c30.7,37.9,64.1,77.8,130.9,77.8
	c66.8,0,189.4-149.9,247.9-149.9s86.3,34.1,117,72.1c30.7,37.9,64.1,77.8,130.9,77.8s100.2-39.8,130.9-77.8
	c30.7-37.9,58.5-72.1,117-72.1s86.3,34.1,117,72.1c30.7,37.9,64.1,77.8,130.9,77.8c66.8,0,100.2-39.8,130.9-77.8
	c30.7-37.9,58.5-72.1,117-72.1s86.3,34.1,117,72.1c30.7,37.9,64.1,77.8,130.9,77.8c66.8,0,100.2-39.8,130.9-77.8
	c30.7-37.9,58.5-72.1,117-72.1s86.3,34.1,117,72.1c30.7,37.9,64.1,77.8,130.9,77.8s100.2-39.8,130.9-77.8
	c30.7-37.9,58.5-72.1,117-72.1c58.5,0,86.3,34.1,117,72.1c30.7,37.9,64.1,77.8,130.9,77.8c66.8,0,100.2-39.8,130.9-77.8
	c30.7-37.9,58.5-72.1,117-72.1s86.3,34.1,117,72.1c30.7,37.9,64.1,77.8,130.9,77.8c66.8,0,100.2-39.8,130.9-77.8
	c30.7-37.9,58.5-72.1,117-72.1s86.3,34.1,117,72.1c30.7,37.9,64.1,77.8,130.9,77.8c66.8,0,100.2-39.8,130.9-77.8
	c30.7-37.9,58.5-72.1,117-72.1s86.3,34.1,117,72.1c30.7,37.9,64.1,77.8,130.9,77.8s100.2-39.8,130.9-77.8
	c30.7-37.9,58.5-72.1,117-72.1s86.3,34.1,117,72.1c30.7,37.9,64.1,77.8,130.9,77.8c66.8,0,100.2-39.8,130.9-77.8
	c30.7-37.9,58.5-72.1,117-72.1c58.5,0,86.3,34.1,117,72.1c30.7,37.9,64.1,77.8,130.9,77.8c66.8,0,100.2-39.8,130.9-77.8
	c30.7-37.9,58.5-72.1,117-72.1s86.3,34.1,117,72.1c30.7,37.9,64.1,77.8,130.9,77.8s100.2-39.8,130.9-77.8
	c30.7-37.9,58.5-72.1,117-72.1s86.3,34.1,117,72.1c30.7,37.9,64.1,77.8,130.9,77.8c66.8,0,100.2-39.8,130.9-77.8
	c30.7-37.9,58.5-72.1,117-72.1s86.3,34.1,117,72.1c30.1,37.3,63,76.6,127.6,77.8c0.5,0,1.1,0,1.6,0c0.5,0,1.1,0,1.6,0
	c66.8,0,100.2-39.8,130.9-77.8c30.5-37.7,58.2-71.6,115.9-72.1c57.1,0.9,84.6,36.5,114.8,72.1c30.7,37.9,64.1,77.8,130.9,77.8
	c66.8,0,100.2-39.8,130.9-77.8c30.7-36,58.5-72.1,117-72.1s86.3,34.1,117,72.1c30.7,37.9,64.1,77.8,130.9,77.8s97.5-39.8,117-77.8
	c30.7-37.9,58.5-72.1,117-72.1s86.3,34.1,117,72.1c30.7,37.9,64.1,77.8,130.9,77.8s100.2-39.8,130.9-77.8
	c30.7-37.9,58.5-72.1,117-72.1s86.3,34.1,117,72.1c30.7,37.9,64.1,77.8,130.9,77.8c66.8,0,100.2-39.8,130.9-77.8
	c30.7-37.9,58.5-72.1,117-72.1s86.3,34.1,117,72.1c30.7,37.9,64.1,77.8,130.9,77.8c66.8,0,100.2-39.8,130.9-77.8
	c30.7-37.9,58.5-72.1,117-72.1c58.5,0,86.3,34.1,117,72.1c30.7,37.9,64.1,77.8,130.9,77.8c66.8,0,189.4-149.9,247.9-149.9
	s86.3,34.1,117,72.1c30.7,37.9,64.1,77.8,130.9,77.8c66.8,0,100.2-39.8,130.9-77.8c30.7-37.9,58.5-72.1,117-72.1s86.3,34.1,117,72.1
	c30.7,37.9,64.1,77.8,130.9,77.8c66.8,0,100.2-39.8,130.9-77.8c30.7-37.9,58.5-72.1,117-72.1c58.5,0,86.3,34.1,117,72.1
	c30.7,37.9,64.1,77.8,130.9,77.8c66.8,0,191.6-150,250.1-150s86.3,34.1,117,72.1c30.7,37.9,64.1,77.8,130.9,77.8
	c66.8,0,100.2-39.8,130.9-77.8c30.7-37.9,58.5-72.1,117-72.1c58.5,0,86.3,34.1,117,72.1c30.7,37.9,64.1,77.8,130.9,77.8
	c66.8,0,100.2-39.8,130.9-77.8c30.7-37.9,58.5-72.1,117-72.1c58.5,0,86.3,34.1,117,72.1c30.7,37.9,64.1,77.8,130.9,77.8
	c66.8,0,100.2-39.8,130.9-77.8c30.7-37.9,58.5-72.1,117-72.1s86.3,34.1,117,72.1c30.7,37.9,64.1,77.8,130.9,77.8
	s100.2-39.8,130.9-77.8c30.7-37.9,58.5-72.1,117-72.1c58.5,0,86.3,34.1,117,72.1c30.6,37.9,64.1,77.8,130.9,77.8
	c66.8,0,100.2-39.8,130.9-77.8c30.7-37.9,58.5-72.1,117-72.1c58.5,0,86.3,34.1,117,72.1c30.6,37.9,64.1,77.8,130.9,77.8
	c66.8,0,100.2-39.8,130.9-77.8c30.7-37.9,58.5-72.1,117-72.1c58.5,0,86.3,34.1,117,72.1c30.7,37.9,64.1,77.8,130.9,77.8
	c66.8,0,100.2-39.8,130.9-77.8c30.7-37.9,58.5-72.1,117-72.1c58.5,0,86.3,34.1,117,72.1c30.7,37.9,64.1,77.8,130.9,77.8
	s100.2-39.8,130.9-77.8c30.7-37.9,58.5-72.1,117-72.1c58.5,0,86.3,34.1,117,72.1c30.7,37.9,64.1,77.8,130.9,77.8
	c66.8,0,100.2-39.8,130.9-77.8c30.7-37.9,58.5-72.1,117-72.1c58.5,0,86.3,34.1,117,72.1c30.7,37.9,64.1,77.8,130.9,77.8
	c66.8,0,100.2-39.8,130.9-77.8c30.7-37.9,58.5-72.1,117-72.1c58.5,0,86.3,34.1,117,72.1c30.7,37.9,64.1,77.8,130.9,77.8
	c66.8,0,100.2-39.8,130.9-77.8c30.7-37.9,58.5-72.1,117-72.1c58.5,0,86.3,34.1,117,72.1c30.7,37.9,64.1,77.8,130.9,77.8
	c66.8,0,100.2-39.8,130.9-77.8c30.7-37.9,58.5-72.1,117-72.1c58.5,0,86.3,34.1,117,72.1c30,37.2,62.7,76.2,126.7,77.8v0.1
	c0.6,0,1.3,0,2,0c0.6,0,1.3,0,2,0c66.8,0,100.2-39.8,130.9-77.8c30.4-37.6,58.1-71.5,115.6-72.1c56.7,1.1,84.1,36.6,114.2,72.1
	c30.7,37.9,64.1,77.8,130.9,77.8c66.8,0,100.2-39.8,130.9-77.8c30.7-36,58.5-72.1,117-72.1c58.5,0,86.3,34.2,117,72.1
	c30.7,37.9,64.1,77.8,130.9,77.8c66.8,0,97.5-39.8,117-77.8c30.7-37.9,58.5-72.1,117-72.1c58.5,0,86.3,34.1,117,72.1
	c30.7,37.9,64.1,77.8,130.9,77.8c66.8,0,100.2-39.8,130.9-77.8c30.7-37.9,58.5-72.1,117-72.1c58.5,0,86.3,34.1,117,72.1
	c30.7,37.9,64.1,77.8,130.9,77.8c66.8,0,100.2-39.8,130.9-77.8c30.7-37.9,58.5-72.1,117-72.1s86.3,34.1,117,72.1
	c30.7,37.9,64.1,77.8,130.9,77.8c66.8,0,100.2-39.8,130.9-77.8c30.7-37.9,58.5-72.1,117-72.1c58.5,0,86.3,34.1,117,72.1
	c30.6,37.9,64.1,77.8,130.9,77.8s189.4-149.9,247.9-149.9c58.5,0,86.3,34.1,117,72.1c30.7,37.9,64.1,77.8,130.9,77.8
	c66.8,0,100.2-39.8,130.9-77.8c30.7-37.9,58.5-72.1,117-72.1s86.3,34.1,117,72.1c30.7,37.9,64.1,77.8,130.9,77.8
	s100.2-39.8,130.9-77.8c30.7-37.9,58.5-72.1,117-72.1s86.3,34.1,117,72.1c30.7,37.9,64.1,77.8,130.9,77.8s189.4-149.9,247.9-149.9
	c58.5,0,86.3,34.1,117,72.1c30.6,37.9,64.1,77.8,130.9,77.8c66.8,0,100.2-39.8,130.9-77.8c30.7-37.9,58.5-72.1,117-72.1
	s86.3,34.1,117,72.1c30.7,37.9,64.1,77.8,130.9,77.8c66.8,0,100.2-39.8,130.9-77.8c30.7-37.9,58.5-72.1,117-72.1
	c57.6,0.5,85.3,34.8,115.7,72.5c30.6,37.9,64.1,77.8,130.9,77.8c15,0,28.3-2,40.2-5.5c42.2-12,67.9-42.9,91.9-72.6
	c23.8-29.4,45.9-56.5,81.8-67.3c10.1-2.9,21.3-4.5,33.9-4.5c58.5,0,86.3,34.1,117,72.1c30.7,37.9,64.1,77.8,130.9,77.8
	c15,0,28.3-2,40.2-5.5c42.2-12,67.9-42.9,91.9-72.6c23.8-29.4,45.9-56.5,81.8-67.3c10.1-2.9,21.3-4.5,33.9-4.5
	c58.5,0,86.3,34.1,117,72.1c30.7,37.9,64.1,77.8,130.9,77.8c14.9,0,28.1-2,40-5.5c42.3-11.9,68.1-42.9,92.2-72.7
	c23.8-29.4,45.8-56.5,81.8-67.3c10.1-2.9,21.3-4.5,33.9-4.5c58.5,0,86.3,34.1,117,72.1c30.6,37.9,64.1,77.8,130.9,77.8
	c15,0,28.3-2,40.3-5.6c42.2-12,67.9-42.9,91.9-72.6c23.8-29.4,45.8-56.5,81.8-67.3c10.1-2.9,21.3-4.5,33.9-4.5
	c58.5,0,86.3,34.2,117,72.1c30.7,37.9,64.1,77.8,130.9,77.8c14.9,0,28.1-2,40-5.5c42.3-11.9,68.1-42.9,92.1-72.7
	c23.8-29.4,45.8-56.5,81.8-67.2c10.1-2.9,21.3-4.5,33.9-4.5c58.5,0,86.3,34.2,117,72.1c30.7,37.9,64.1,77.8,130.9,77.8
	c15,0,28.3-2,40.3-5.6c42.1-12,67.9-42.9,91.9-72.6c23.8-29.4,45.8-56.5,81.8-67.2c10.1-2.9,21.3-4.5,33.9-4.5
	c58.5,0,86.3,34.1,117,72.1c30.7,37.9,64.1,77.8,130.9,77.8c15,0,28.3-2,40.3-5.6c42.1-12,67.8-42.9,91.9-72.6
	c23.8-29.4,45.8-56.5,81.8-67.2c10.1-2.9,21.3-4.5,33.9-4.5c58.5,0,86.3,34.2,117,72.1c30.7,37.9,64.1,77.8,130.9,77.8
	c15,0,28.3-2,40.3-5.6c42.1-12,67.8-42.8,91.8-72.6c23.8-29.4,45.8-56.5,81.8-67.2c10.1-2.9,21.3-4.5,33.9-4.5
	c58.5,0,86.3,34.2,117,72.1c30.7,37.9,64.1,77.8,130.9,77.8c15,0,28.3-2,40.3-5.6c42.1-12,67.8-42.8,91.8-72.6
	c23.8-29.4,45.8-56.5,81.7-67.2c10.1-2.9,21.3-4.5,34-4.5c58.5,0,86.3,34.1,117,72.1c30.6,37.9,64.1,77.8,130.9,77.8
	c14.9,0,28.2-2,40.1-5.5c42.3-11.9,68-42.9,92.1-72.7c23.8-29.4,45.8-56.5,81.7-67.2c10.1-2.9,21.3-4.5,34-4.5
	c58.5,0,86.3,34.1,117,72.1c30.6,37.9,64.1,77.8,130.9,77.8c14.9,0,28.2-2,40.1-5.5c42.2-11.9,68-42.9,92.1-72.7
	c27.6-34.2,53-65.3,102.8-71.1c4.1-0.4,8.4-0.6,12.9-0.6c58.5,0,86.3,34.1,117,72.1c30.6,37.9,64.1,77.8,130.9,77.8
	c66.8,0,100.2-39.9,130.9-77.8c30.7-37.9,58.5-72.1,117-72.1v-0.4c57.9,0.4,85.6,36.2,116.1,72.1c30.7,37.9,64.1,77.8,130.9,77.8
	s100.2-39.8,130.9-77.8c30.7-36,58.5-72.1,117-72.1s86.3,34.1,117,72.1c30.7,37.9,64.1,77.8,130.9,77.8s97.5-39.8,117-77.8
	c30.7-37.9,58.5-72.1,117-72.1c58.5,0,86.3,34.1,117,72.1c30.7,37.9,64.1,77.8,130.9,77.8c66.8,0,100.2-39.8,130.9-77.8
	c30.7-37.9,58.5-72.1,117-72.1c58.5,0,86.3,34.1,117,72.1c30.7,37.9,64.1,77.8,130.9,77.8c66.8,0,100.2-39.8,130.9-77.8
	c30.7-37.9,58.5-72.1,117-72.1c58.5,0,86.3,34.1,117,72.1c30.7,37.9,64.1,77.8,130.9,77.8c66.8,0,100.2-39.8,130.9-77.8
	c30.7-37.9,58.5-72.1,117-72.1s86.3,34.1,117,72.1c30.7,37.9,64.1,77.8,130.9,77.8s189.4-149.9,247.9-149.9
	c58.5,0,86.3,34.1,117,72.1c30.7,37.9,64.1,77.8,130.9,77.8c66.8,0,100.2-39.8,130.9-77.8c30.7-37.9,58.5-72.1,117-72.1
	c58.5,0,86.3,34.1,117,72.1c30.7,37.9,64.1,77.8,130.9,77.8c66.8,0,100.2-39.8,130.9-77.8c30.7-37.9,58.5-72.1,117-72.1
	s86.3,34.1,117,72.1c30.7,37.9,64.1,77.8,130.9,77.8s189.4-149.9,247.9-149.9c58.5,0,86.3,34.1,117,72.1
	c30.7,37.9,64.1,77.8,130.9,77.8c66.8,0,100.2-39.8,130.9-77.8c30.7-37.9,58.5-72.1,117-72.1c58.5,0,86.3,34.1,117,72.1
	c30.7,37.9,64.1,77.8,130.9,77.8c66.8,0,100.2-39.8,130.9-77.8c30.7-37.9,58.5-72.1,117-72.1s86.3,34.1,117,72.1
	c30.7,37.9,64.1,77.8,130.9,77.8c66.8,0,100.2-39.8,130.9-77.8c30.7-37.9,58.5-72.1,117-72.1s86.3,34.1,117,72.1
	c30.7,37.9,64.1,77.8,130.9,77.8c66.8,0,100.2-39.8,130.9-77.8c30.7-37.9,58.5-72.1,117-72.1s86.3,34.1,117,72.1
	c30.7,37.9,64.1,77.8,130.9,77.8s100.2-39.8,130.9-77.8c30.7-37.9,58.5-72.1,117-72.1c58.5,0,86.3,34.1,117,72.1
	c30.7,37.9,64.1,77.8,130.9,77.8c66.8,0,100.2-39.8,130.9-77.8c30.7-37.9,58.5-72.1,117-72.1s86.3,34.1,117,72.1
	c30.7,37.9,64.1,77.8,130.9,77.8c66.8,0,100.2-39.8,130.9-77.8c30.7-37.9,58.5-72.1,117-72.1c58.5,0,86.3,34.1,117,72.1
	c30.7,37.9,64.1,77.8,130.9,77.8c66.8,0,100.2-39.8,130.9-77.8c30.7-37.9,58.5-72.1,117-72.1s86.3,34.1,117,72.1
	c30.7,37.9,64.1,77.8,130.9,77.8s100.2-39.8,130.9-77.8c30.7-37.9,58.5-72.1,117-72.1s86.3,34.1,117,72.1
	c30.7,37.9,64.1,77.8,130.9,77.8c66.8,0,100.2-39.8,130.9-77.8c30.7-37.9,58.5-72.1,117-72.1s86.3,34.1,117,72.1
	c30.7,37.9,64.1,77.8,130.9,77.8c66.8,0,100.2-39.8,130.9-77.8c30.7-37.9,58.5-72.1,117-72.1c58.5,0,86.3,34.1,117,72.1
	c30.7,37.9,64.1,77.8,130.9,77.8c66.8,0,100.2-39.8,130.9-77.8c30.7-37.9,58.5-72.1,117-72.1s86.3,34.1,117,72.1
	c30.1,37.3,63,76.6,127.6,77.8c0.5,0,1.1,0,1.6,0s1.1,0,1.6,0c66.8,0,100.2-39.8,130.9-77.8c30.5-37.7,58.2-71.6,115.9-72.1
	c57.1,0.9,84.6,36.5,114.8,72.1c30.7,37.9,64.1,77.8,130.9,77.8c66.8,0,100.2-39.8,130.9-77.8c30.7-36,58.5-72.1,117-72.1
	s86.3,34.1,117,72.1c30.7,37.9,64.1,77.8,130.9,77.8c66.8,0,97.5-39.8,117-77.8c30.7-37.9,58.5-72.1,117-72.1s86.3,34.1,117,72.1
	c30.7,37.9,64.1,77.8,130.9,77.8c66.8,0,100.2-39.8,130.9-77.8c30.7-37.9,58.5-72.1,117-72.1s86.3,34.1,117,72.1
	c30.7,37.9,64.1,77.8,130.9,77.8s100.2-39.8,130.9-77.8c30.7-37.9,58.5-72.1,117-72.1c58.5,0,86.3,34.1,117,72.1
	c30.7,37.9,64.1,77.8,130.9,77.8s100.2-39.8,130.9-77.8c30.7-37.9,58.5-72.1,117-72.1c58.5,0,86.3,34.1,117,72.1
	c30.7,37.9,64.1,77.8,130.9,77.8c66.8,0,189.4-149.9,247.9-149.9s86.3,34.1,117,72.1c30.7,37.9,64.1,77.8,130.9,77.8
	c66.8,0,100.2-39.8,130.9-77.8c30.7-37.9,58.5-72.1,117-72.1c58.5,0,86.3,34.1,117,72.1c30.7,37.9,64.1,77.8,130.9,77.8
	s100.2-39.8,130.9-77.8c30.7-37.9,58.5-72.1,117-72.1s86.3,34.1,117,72.1c30.7,37.9,64.1,77.8,130.9,77.8
	c66.8,0,191.6-150,250.1-150s86.3,34.1,117,72.1c30.7,37.9,64.1,77.8,130.9,77.8c66.8,0,100.2-39.8,130.9-77.8
	c30.7-37.9,58.5-72.1,117-72.1s86.3,34.1,117,72.1c30.7,37.9,64.1,77.8,130.9,77.8s100.2-39.8,130.9-77.8
	c30.7-37.9,58.5-72.1,117-72.1s86.3,34.1,117,72.1c30.7,37.9,64.1,77.8,130.9,77.8s100.2-39.8,130.9-77.8
	c30.7-37.9,58.5-72.1,117-72.1s86.3,34.1,117,72.1c30.7,37.9,64.1,77.8,130.9,77.8s100.2-39.8,130.9-77.8
	c30.7-37.9,58.5-72.1,117-72.1s86.3,34.1,117,72.1c30.6,37.9,64.1,77.8,130.9,77.8c66.8,0,100.2-39.8,130.9-77.8
	c30.7-37.9,58.5-72.1,117-72.1s86.3,34.1,117,72.1c30.6,37.9,64.1,77.8,130.9,77.8c66.8,0,100.2-39.8,130.9-77.8
	c30.7-37.9,58.5-72.1,117-72.1c58.5,0,86.3,34.1,117,72.1c30.7,37.9,64.1,77.8,130.9,77.8c66.8,0,100.2-39.8,130.9-77.8
	c30.7-37.9,58.5-72.1,117-72.1s86.3,34.1,117,72.1c30.7,37.9,64.1,77.8,130.9,77.8c66.8,0,100.2-39.8,130.9-77.8
	c30.7-37.9,58.5-72.1,117-72.1s86.3,34.1,117,72.1c30.7,37.9,64.1,77.8,130.9,77.8c66.8,0,100.2-39.8,130.9-77.8
	c30.7-37.9,58.5-72.1,117-72.1s86.3,34.1,117,72.1c30.7,37.9,64.1,77.8,130.9,77.8c66.8,0,100.2-39.8,130.9-77.8
	c30.7-37.9,58.5-72.1,117-72.1c58.5,0,86.3,34.1,117,72.1c30.7,37.9,64.1,77.8,130.9,77.8c66.8,0,100.2-39.8,130.9-77.8
	c30.7-37.9,58.5-72.1,117-72.1s86.3,34.1,117,72.1c30.7,37.9,64.1,77.8,130.9,77.8c66.8,0,100.2-39.8,130.9-77.8
	c30.7-37.9,58.5-72.1,117-72.1s86.3,34.1,117,72.1c30,37.2,62.7,76.2,126.7,77.8v0.1c0.6,0,1.3,0,2,0c0.6,0,1.3,0,2,0
	c66.8,0,100.2-39.8,130.9-77.8c30.4-37.6,58.1-71.5,115.6-72.1c56.7,1.1,84.1,36.6,114.2,72.1c30.7,37.9,64.1,77.8,130.9,77.8
	c66.8,0,100.2-39.8,130.9-77.8c30.7-36,58.5-72.1,117-72.1c58.5,0,86.3,34.2,117,72.1c30.7,37.9,64.1,77.8,130.9,77.8
	c66.8,0,97.5-39.8,117-77.8c30.7-37.9,58.5-72.1,117-72.1s86.3,34.1,117,72.1c30.7,37.9,64.1,77.8,130.9,77.8
	c66.8,0,100.2-39.8,130.9-77.8c30.7-37.9,58.5-72.1,117-72.1c58.5,0,86.3,34.1,117,72.1c30.7,37.9,64.1,77.8,130.9,77.8
	c66.8,0,100.2-39.8,130.9-77.8c30.7-37.9,58.5-72.1,117-72.1c58.5,0,86.3,34.1,117,72.1c30.7,37.9,64.1,77.8,130.9,77.8
	c66.8,0,100.2-39.8,130.9-77.8c30.7-37.9,58.5-72.1,117-72.1s86.3,34.1,117,72.1c30.6,37.9,64.1,77.8,130.9,77.8
	s189.4-149.9,247.9-149.9s86.3,34.1,117,72.1c30.7,37.9,64.1,77.8,130.9,77.8s100.2-39.8,130.9-77.8c30.7-37.9,58.5-72.1,117-72.1
	c58.5,0,86.3,34.1,117,72.1c30.7,37.9,64.1,77.8,130.9,77.8c66.8,0,100.2-39.8,130.9-77.8c30.7-37.9,58.5-72.1,117-72.1
	c58.5,0,86.3,34.1,117,72.1c30.7,37.9,64.1,77.8,130.9,77.8c66.8,0,189.4-149.9,247.9-149.9c58.5,0,86.3,34.1,117,72.1
	c30.6,37.9,64.1,77.8,130.9,77.8c66.8,0,100.2-39.8,130.9-77.8c30.7-37.9,58.5-72.1,117-72.1s86.3,34.1,117,72.1
	c30.7,37.9,64.1,77.8,130.9,77.8c66.8,0,100.2-39.8,130.9-77.8c30.7-37.9,58.5-72.1,117-72.1c58.5,0,86.3,34.1,117,72.1
	c30.6,37.9,64.1,77.8,130.9,77.8s100.2-39.8,130.9-77.8c30.7-37.9,58.5-72.1,117-72.1s86.3,34.1,117,72.1
	c30.6,37.9,64.1,77.8,130.9,77.8c66.8,0,100.2-39.8,130.9-77.8c30.7-37.9,58.5-72.1,117-72.1c58.5,0,86.3,34.1,117,72.1
	c30.7,37.9,64.1,77.8,130.9,77.8s100.2-39.8,130.9-77.8c30.7-37.9,58.5-72.1,117-72.1c58.5,0,86.3,34.1,117,72.1
	c30.6,37.9,64.1,77.8,130.9,77.8s100.2-39.8,130.9-77.8c30.7-37.9,58.5-72.1,117-72.1c58.5,0,86.3,34.1,117,72.1
	c30.7,37.9,64.1,77.8,130.9,77.8s100.2-39.8,130.9-77.8c30.7-37.9,58.5-72.1,117-72.1c58.5,0,86.3,34.1,117,72.1
	c30.6,37.9,64.1,77.8,130.9,77.8s100.2-39.8,130.9-77.8c30.7-37.9,58.5-72.1,117-72.1c58.5,0,86.3,34.1,117,72.1
	c30.6,37.9,64.1,77.8,130.9,77.8s100.2-39.8,130.9-77.8c30.7-37.9,58.5-72.1,117-72.1c58.5,0,86.3,34.1,117,72.1
	c30.6,37.9,64.1,77.8,130.9,77.8c66.8,0,100.2-39.8,130.9-77.8c30.7-37.9,58.5-72.1,117-72.1s86.3,34.1,117,72.1
	c30.6,37.9,64.1,77.8,130.9,77.8c66.8,0,100.2-39.8,130.9-77.8c30.7-37.9,58.5-72.1,117-72.1c58.5,0,86.3,34.1,117,72.1
	c30.6,37.9,64.1,77.8,130.9,77.8c66.8,0,100.2-39.8,130.9-77.8c30.7-37.9,58.5-72.1,117-72.1c58.5,0,86.3,34.1,117,72.1
	c30.7,37.9,64.1,77.8,130.9,77.8c66.8,0,100.2-39.8,130.9-77.8s58.5-72.1,120.2-72.1V0L7364.6,0.3z"/>
</svg>
