<svg xmlns="http://www.w3.org/2000/svg" viewBox="0 0 4080 400" preserveAspectRatio="none">
<path class="elementor-shape-fill ha-shape-divider" d="M3078.6,103.6c0,0-0.1,0.1-0.1,0.1c-7.8,10.1-13.8,22.9-36.1,26.6c-11.7,2.2-27.7,2.2-48.2-4.7
	c-23.4-7.8-33.6-19.5-60.1-23.4c-25-3.9-54.6-5.5-80.4-7c-21.8-0.8-42.1-0.8-57.7,9.4c-14.8,7.8-12.5,18.7-31.2,25.7
	c-70,23.6-121.4-20.3-181.7-37c-4.2-1.1-8.7,0.5-10.8,4.3c-2.8,5.1,0.3,10.5,2.9,15.8c2.3,4.8,2.7,10.4,0.6,15.3
	c-9.9,24.2-57.4-7.1-80.9-16.4c-9.8-4-17.9-6.4-24.6-7.3c-3.2-0.5-6.5-0.4-9.7,0c-0.6,0.1-1.3,0.2-1.9,0.2
	c-3.7,0.4-7.2,1.6-10.4,3.4c0,0,0,0,0,0c-0.5,0.3-0.8,0.9-0.7,1.5c0.7,3.7-2.4,7.7-8.9,8.4h-0.8c-5.5,7-10.1,16.4-17.9,22.6
	c-15.6,12.5-46,14.8-74.9,5.5c-2.3-0.9-4.6-1.8-6.5-2.7c-3.2-1.5-6.7-2.5-10.2-2.6c-3.9-0.1-7.5,0.5-10.5,3
	c-11.7,10.9,40.6,28.9,0.8,36.7c-8.6,1.6-21.8,0.8-18.7,12.5c2.3,8.6,17.2,5.5,19.5,14.8c2.3,10.9-15.6,10.9-5.5,24.2
	c6.2,7,22.6,7.8,25.7,17.2c3.9,13.3-9.4,10.1-16.4,6.2c-10.1-4.7-17.9-18.7-28.9-22.6c-9.4-3.9-17.9,0.8-25-10.9
	c-0.8-2.3-1.6-5.5-2.3-9.4c-1.6,0.8-3.9,0.8-5.5-0.8c-4.7-5.5-2.3-9.4,2.3-10.9c-1.6-2.3-3.1-3.9-5.5-4.7c-18.7-3.1,13.3,46.8-14,39
	c-14.8-4.7-12.5-34.3-19.5-45.3c-4.7-6.2-13.3-18.7-23.4-12.5c-9.4,6.2,4.7,17.2-2.3,23.4c-6.2,6.2-21.8-6.2-25.7-10.9
	c-12.5-11.7-14-36.7-31.2-49.2c-5.5-3.9-21.8-13.3-28.9-7c-10.9-18.8-20.4-38.3-29.2-58.5c-1.3-3-3.7-5.3-6.7-6.6c0,0,0,0,0,0
	c-0.5-0.2-1.1-0.4-1.7-0.4c-1.8,0-3.5,1.1-4.1,2.8c-3.1,8.2-4.2,18.8-3.5,30c2.3,28.1,69.4,88.9,86.6,102.2
	c14,10.9,10.9,31.2,16.4,45.3c14.8,35.9,54.6,18.7,56.2,42.9c0.8,10.9-10.1,16.4-17.2,17.2c-17.2,1.6-35.1-22.6-45.3-21.8
	c-3.9,0.8-7,3.9-10.9,3.9c-13.3,0.8-5.5-22.6-19.5-21.8c0,0-7.8,1.6-14,2.3c-38.2,2.3-28.1-32-42.9-31.2c-5.5,0.8-29.6,30.4-47.6,32
	c-35.1,2.3-6.2-111.6-74.1-106.9c-55.4,3.9-61.6,108.5-86.6,110c-4.7,0-9.4,0-10.1-8.6c-0.8-11.7,5.5-22.6,4.7-33.6
	c-0.8-10.9-8.6-17.9-14-17.2c-19.5,1.6-42.9,99.1-98.3,103c-11.7,0.8-17.2-4.7-16.4-8.6c2.3-11.7,56.2-39,53.8-75.7
	c0-4.7-1.6-10.9-1.6-10.9c-1.6-27.3,90.5-82.7,87.4-126.4c-0.5-5.5-2.6-11-5.9-15.9c-3.1-4.7-9.4-5.9-14.1-2.8c0,0-0.1,0-0.1,0.1
	c-2.1,1.4-3.6,3.5-4.2,5.9c-3.5,13.1-7.5,25.8-12.2,38.1c-1.8,4.6-6,7.8-10.9,8.6c-7.7,1.2-16.9,8.7-20.4,12.2
	c-15.6,14.8-13.3,39.8-24.2,53.1c-0.8,0.8-1.6,1.6-2.3,3.1c0,0.8-0.8,0.8-1.6,1.6c-5.5,6.2-14,13.3-19.5,9.4
	c-5.6-3.2-2.1-9.8-1.5-15.4c-0.3-1.2-0.7-3-0.9-4.2c-0.6-1-1.5-2.1-3.1-3.1c-10.1-4.7-17.2,8.6-21.1,15.6
	c-5.5,10.9,0.8,40.6-13.3,47.6c-25.7,10.9-0.8-42.9-19.5-36.7c-8.6,3.1-5.5,20.3-7.8,26.5c-5.5,12.5-14.8,8.6-23.4,14
	c-10.9,5.5-16.4,20.3-25.7,26.5c-6.2,3.9-19.5,9.4-17.2-3.9c2.3-9.4,17.9-12.5,23.4-20.3c8.6-14.8-9.4-12.5-8.6-23.4
	c1.6-10.1,16.4-9.4,17.2-17.9c1.6-11.7-11.7-9.4-20.3-9.4c-41.4-2.3,8.6-28.1-4.7-36.7c-9.4-6.2-25.7,7-34.3-1.6
	c-4.7-4.7-0.8-13.3,3.1-21.8c-24.2,6.2-48.4,4.7-64-4.7c-0.8,1.6-1.6,2.3-2.3,3.1c-5.5,4.7-17.2,15.6-25.7,15.6
	c-11.7,0-13.3-10.1-5.5-17.2c6.2-5.5,14.8-7.8,22.6-10.9c-9.4-10.9-14.8-24.2-28.1-28.9c-4.2-1.5-6.7-1.6-10.9-1.6
	c-7.8,0-17.9,2.3-31.2,7.8c-25.7,10.1-80.4,46.8-82.7,7.8c0.6-7.4,9.1-15.3,5.2-22.5c-2-3.8-6.5-5.5-10.6-4.3
	c-60.4,16.7-111.1,60.6-181.8,37c-17.9-6.2-16.4-17.2-31.2-25.7c-15.6-10.1-35.9-10.1-57.7-9.4c-25.7,1.6-55.4,3.1-80.4,7
	c-26.5,3.9-35.9,12.3-59.4,20.1c-14.8,3.1-31.2,19.2-50.5,13.2c-21-7.2-26.7-21.7-34.5-31.8c-0.8-0.8-2-3.2-9.5-1.8
	C588.6,118.4,3.9,138.1,0,138.1V400h4080V141.2c0,0-642.1-23.8-985.4-43.9C3088.6,96.9,3082.8,99.3,3078.6,103.6z M1737.3,267.6
	c0-3.1,1.6-5.5,4.7-5.5c3.9-0.8,9.4,2.3,9.4,6.2c0,2.3-0.8,4.7-3.1,4.7C1743.5,273.1,1736.5,271.5,1737.3,267.6z M1801.2,327.7
	c-2.3,13.3-15.6,28.9-33.6,30.4c-7,0.8-10.9,0-10.9-4.7c-0.8-3.9,3.1-15.6,21.8-23.4c6.2-2.3,8.6-6.2,14-10.9
	C1798.9,313.7,1802.8,319.1,1801.2,327.7z M1819.2,377.6c-5.5,0-7.8-5.5-8.6-10.9c-0.8-10.9,7.8-19.5,10.9-19.5
	c4.7-0.8,8.6,8.6,9.4,17.2C1831.7,372.2,1823.9,377.6,1819.2,377.6z M1823.9,290.2c-2.3,0-3.9,0-3.9-3.9
	c-0.8-9.4,6.2-18.7,11.7-17.9c1.6,0,3.1,7.8,3.1,10.1C1834.8,284,1830.1,289.5,1823.9,290.2z M1862.1,324.6c-3.1,0-7-3.1-7.8-9.4
	c0-6.2,6.2-16.4,12.5-17.2c3.9,0,5.5,8.6,4.7,10.9C1872.2,319.9,1866,324.6,1862.1,324.6z M2023.6,372.2c-3.9,0-9.4-5.5-9.4-8.6
	c-0.8-5.5,5.5-5.5,5.5-5.5c4.7,0.8,7.8,4.7,7.8,8.6C2027.5,369.8,2026,372.2,2023.6,372.2z M2022.8,319.1c-0.8-3.9-0.8-14,4.7-12.5
	c6.2,0.8,7,16.4,7.8,21.8C2036.1,341,2023.6,329.3,2022.8,319.1z M2086.8,337.8c-5.5,0.8-19.5-40.6-19.5-42.9
	c-0.8-2.3,0-4.7,1.6-6.2c3.1-3.9,26.5,28.1,27.3,35.1S2093.8,337.1,2086.8,337.8z M2171.9,330c-4.7,0.8-10.1-3.9-10.9-11.7
	c-0.8-7.8,5.5-15.6,7.8-15.6c3.1,0,7.8,3.9,8.6,11.7C2178.1,319.9,2175.8,330,2171.9,330z M2217.1,341.7c-6.2,0.8-11.7-7-12.5-14
	c0-4.7,3.1-5.5,7-5.5c7-0.8,10.9,6.2,10.9,13.3C2222.6,339.4,2221.8,341.7,2217.1,341.7z M2250.7,291.8c-3.9,0-8.6-3.1-8.6-7.8
	c0-2.3-0.8-4.7,1.6-5.5C2251.4,276.2,2260,290.2,2250.7,291.8z M2268.6,251.2c-13.3,14.8-21.8-5.5-4.7-10.1
	C2270.9,238.8,2272.5,245,2268.6,251.2z M2373.2,253.6c-13.3,17.2-24.2-17.9-3.9-15.6C2376.3,238.8,2378.6,247.3,2373.2,253.6z
	 M2377.8,320.7c-6.2-5.5,7.8-19.5,13.3-10.9C2391.9,312.1,2384.1,326.1,2377.8,320.7z M2398.9,225.5c-5.5-6.2-3.1-14.8,3.9-15.6
	C2423.1,207.5,2412.2,242.7,2398.9,225.5z M2508.1,180.2c-3.1,3.1-9.4,0-12.5-2.3C2477.7,164.6,2522.2,165.4,2508.1,180.2z
	 M2503.5,223.1c-3.9-5.5-1.6-11.7,4.7-10.1C2525.3,217.7,2516.7,237.2,2503.5,223.1z"/>
</svg>
