<svg xmlns="http://www.w3.org/2000/svg" viewBox="0 0 4080 400" preserveAspectRatio="none">
<path class="elementor-shape-fill ha-shape-divider" d="M0,0v35.2c0,0,54.1,202.3,175,95.8c68-60,215.7-117.8,360.4-33.3S686-18.5,760.2,48.9c53.5,48.6,88.3,75.5,111.7,88.1
	c32.5,19.8,73.7,33.5,125.3,33.5c143.5,0,187.5-96.1,258.9-96.1c71.5,0,96.7,23.4,178.1,90.2c81.4,66.8,117.2,11.1,117.2,11.1
	s57.4-80.8,90.2-24s87.3-8.8,119.5-31c32.2-22.3,81.4-46.3,126.5-23.4c45.1,22.9,38.1,79.1,10.5,103.7c-27.5,24.6-33.4,50.4-26.4,65
	c7,14.6,28.7,30.5,59.8,7c31-23.4,57.4-19.9,63.3,4.1c5.9,24,41.2,131.8,98.6,96.3c48.2-29.9-2.7-94.1-53.5-140.9
	c-24.2-22.3-9.9-62.3,30.4-65.5c36.7-2.9,118.7,87.8,164,23.4c28.2-40-89.6-64.4-33.4-105.4c56.2-41,100.8,0,147,0
	c34.9,0,59.6-13.8,76.4-29.2c11.4-10.5,25.7-17.9,41.2-19.1c21.6-1.7,40.4,5.7,53.6,31.5c19,37,38,49,82,28s56-3,111.1,36
	c33.9,24,76.3-8.1,104.6-37c18.9-19.4,46.7-27,73-20.6c120.4,29.5,147.5-89.1,254.4-14.3c62.9,44,108.8,53.2,195-11.5
	c78.9-59.1,78,133.3,219,48.8s183-44.5,336-8.5S4080,35.2,4080,35.2V0H0z M1261.3,202.5c-18.7,0-33.8-15.1-33.8-33.8
	s15.1-33.8,33.8-33.8s33.8,15.1,33.8,33.8S1280,202.5,1261.3,202.5z M1928.4,349.4c-14.5,0-26.3-11.8-26.3-26.3s11.8-26.3,26.3-26.3
	s26.3,11.8,26.3,26.3S1942.9,349.4,1928.4,349.4z M2227,238.5c17.7,0,32,14.3,32,32s-14.3,32-32,32s-32-14.3-32-32
	S2209.3,238.5,2227,238.5z M2534.6,164.4c-9.8,0-17.7-7.9-17.7-17.7s7.9-17.7,17.7-17.7s17.7,7.9,17.7,17.7
	S2544.4,164.4,2534.6,164.4z"/>
</svg>
