<svg xmlns="http://www.w3.org/2000/svg" viewBox="0 0 4080 400" preserveAspectRatio="none">
<path class="elementor-shape-fill ha-shape-divider" d="M3894.2,89.1c-153-36-195-76-336,8.5s-140.1-107.9-219-48.8c-86.2,64.7-132.1,55.5-195,11.5
	c-106.9-74.8-134,43.8-254.4,14.3c-26.3-6.4-54.1,1.2-73,20.6c-28.3,28.9-70.7,61-104.6,37c-55.1-39-67.1-57-111.1-36s-63,9-82-28
	c-13.2-25.8-32-33.2-53.6-31.5c-15.5,1.2-29.8,8.6-41.2,19.1c-16.8,15.4-41.5,29.2-76.4,29.2c-46.2,0-90.8-41-147,0
	c-56.2,41,61.6,65.4,33.4,105.4c-45.3,64.4-127.3-26.3-164-23.4c-40.3,3.2-54.6,43.2-30.4,65.5c50.8,46.8,101.7,111,53.5,140.9
	c-57.4,35.5-92.7-72.3-98.6-96.3c-5.9-24-32.3-27.5-63.3-4.1c-31.1,23.5-52.8,7.6-59.8-7c-7-14.6-1.1-40.4,26.4-65
	c27.6-24.6,34.6-80.8-10.5-103.7c-45.1-22.9-94.3,1.1-126.5,23.4c-32.2,22.2-86.7,87.8-119.5,31s-90.2,24-90.2,24
	s-35.8,55.7-117.2-11.1c-81.4-66.8-106.6-90.2-178.1-90.2c-71.4,0-115.4,96.1-258.9,96.1c-51.6,0-92.8-13.7-125.3-33.5
	c-23.4-12.6-58.2-39.5-111.7-88.1C686-18.5,680.1,182.2,535.4,97.7S243,71,175,131C54.1,237.5,0,35.2,0,35.2V400h4080V35.2
	C4080,35.2,4047.2,125.1,3894.2,89.1z M1261.3,202.5c-18.7,0-33.8-15.1-33.8-33.8s15.1-33.8,33.8-33.8s33.8,15.1,33.8,33.8
	S1280,202.5,1261.3,202.5z M1928.4,349.4c-14.5,0-26.3-11.8-26.3-26.3s11.8-26.3,26.3-26.3s26.3,11.8,26.3,26.3
	S1942.9,349.4,1928.4,349.4z M2227,302.5c-17.7,0-32-14.3-32-32s14.3-32,32-32s32,14.3,32,32S2244.7,302.5,2227,302.5z
	 M2534.6,164.4c-9.8,0-17.7-7.9-17.7-17.7s7.9-17.7,17.7-17.7s17.7,7.9,17.7,17.7S2544.4,164.4,2534.6,164.4z"/>
</svg>
