<svg xmlns="http://www.w3.org/2000/svg" viewBox="0 0 4080 400" preserveAspectRatio="none">
<g>
	<path class="elementor-shape-fill ha-shape-divider" d="M672.5,182.4l0.4-0.9l-59.3-29.4c2.3,0.1,6,0.4,8.4,1.5c3.7,1.7,16.6,4.2,24.7-0.7c7.1,4.2,14.3,7.9,16.8,5.8   c3.7-3.2-21.7-22.8-29.7-27.6c-8.8-5.3-22.4-9.8-19.4-1c0.1,0.3,4.6,4.2,10,8.5c-0.1,0-0.2,0.1-0.2,0.1s-5.6,5.4-9.3,3.5   s-5.1-6.7-10.1-3.5c-5.1,3.2-11.3,15.8-8.8,24.3c1.2,1.3,1.7,1.8,1.9,2c-0.4,0.9-2.4,5.7-0.6,8.4c2,3,9.3,1,7.9-6.6l1.5-7.4l2-1.4   l0,43.3h0.9c-1.1,0.1-2.2,0.2-3,0.2c-1.9,0.1-3.3,1.7-3.1,3.6c1,12,4.5,34.5,35.3,33c34.1-1.7,52.2-26.6,56.2-31.7   c4-5.1-7.9-21.4-10.1-24.4C683.4,179.8,681.2,178.7,672.5,182.4z M628.9,141.9c2.7,2,5.5,3.8,7.9,5.2s5.2,3.1,8,4.8   c-4.4-1-12,1.7-21.7-0.5C612.8,148.8,623.4,143.5,628.9,141.9z M611.4,152.1L611.4,152.1L611.4,152.1L611.4,152.1z M658.2,189.3   c-15,8-36.4,10.9-47.5,11.8l0-43.9l0.7-1.2v-3l59.9,29.7C667.9,184.3,663.7,186.4,658.2,189.3z"/>
	<path class="elementor-shape-fill ha-shape-divider" d="M135.9,99.3c-0.5,0.2-0.8,0.6-0.9,1.1c-0.1,0.6-0.3,1.2-0.5,1.9c0,0.6,0,1.1,0,1.7c0,0.1,0.1,0.1,0.1,0.2   c0.1,0.8,0.2,1.6,0.2,2.4c0.1,0.9,0.3,1.9,0.3,2.8c0,1.2,0,2.4,0.2,3.5c0.2,0.9,0.5,1.8,1,2.5c0.3,0.4,0.4,0.4,0.8,0.1   c0.3-0.2,0.6-0.4,1-0.5c0.6-0.1,1.1-0.3,1.6-0.5c0.6-0.2,1.2-0.5,1.8-0.7c0.1,0,0.2,0,0.3,0c1.2,0,2.4,0.4,3.4,1   c0.5,0.3,1,0.6,1.5,0.8c1.7,0.8,3.4,1.6,5,2.7c0.4,0.3,0.8,0.6,1.2,0.7c1.3,0.5,2.6,0.6,4,0.5c1.2-0.1,2.4-0.2,3.5-0.4   c0.4,0,0.7,0.1,0.9,0.5c0.2,0.5,0.4,1,0.6,1.5c0.2,0.5,0.3,1,0.5,1.6c0.1,0.4,0.2,0.8,0.2,1.2c0,1.1-0.1,2.2-0.1,3.2   c0,1.9,0.2,3.8,0.7,5.7c0,0.1,0,0.3-0.1,0.5c-0.3,0.5-0.7,1.1-1,1.6c-0.6,1-0.9,2.1-1,3.3c-0.2,2,0.2,3.9,0.7,5.8   c0.3,1.1,0.8,2.2,1.2,3.3c0,0.1,0,0.4,0,0.4c-0.4,0.4-0.9,0.7-1.4,1.1c-1.8,1.2-3.5,2.5-4.8,4.2c-0.9,1.1-1.7,2.2-2.6,3.3   c-0.4,0.5-0.3,1,0,1.5c0.8,1.5,1.6,3,2.4,4.5c0.9,1.7,2.2,3.2,3.5,4.7c0.9,1,1.6,2.1,2.7,2.9c0.3,0.2,0.6,0.4,1,0.5   c0.3,0.2,0.7,0.3,1,0.5c1,0.6,1.9,1.2,2.9,1.8c0.1,0.1,0.2,0.1,0.3,0.2c0.9,0.3,1.5,1.2,1.3,2.1c-0.1,0.5-0.3,1.1-0.5,1.5   c-0.5,0.7-0.8,1.5-0.8,2.3c0,0,0,0.1,0,0.2c-0.2-0.1-0.3-0.2-0.5-0.3c-0.2,0.3-0.3,0.6-0.4,0.8c0.1,0.1,0.2,0.1,0.3,0.2   c-0.1,0.1-0.2,0.3-0.2,0.3c-0.3,0-0.3,0.3-0.3,0.5c-0.2,1-0.1,1.9,0.2,2.8c0.8,2.3,2.2,3.9,4.7,4.4c0.4,0.1,0.8,0.1,1.2,0.2   c0.3,0,0.7,0,1,0c0.3-0.1,0.6-0.3,0.9-0.4c0.8-0.2,1.4-0.6,2-1.1c0.2-0.2,0.6-0.4,0.9-0.5c0.1,0,0.2,0,0.2-0.1   c0.4-0.5,1-0.5,1.6-0.4c1,0,2,0,3.1,0.1c0.3,0,0.4-0.1,0.4-0.4c-0.2-0.7-0.4-1.5-0.7-2.2c-0.5-1-1.4-1.2-2.4-1.4   c-0.2,0-0.3-0.1-0.4-0.1c0.1-0.2,0.1-0.3,0.3-0.5c0.2-0.3,0.5-0.5,0.7-0.8s0.1-0.5-0.2-0.6c-0.5-0.3-0.6-0.5-0.4-1.1   c0-0.1,0-0.4-0.1-0.5c-0.2-0.2-0.3-0.4,0-0.6c0.2-0.2,0.2-0.4,0.1-0.6c-0.1-0.3-0.1-0.6,0-0.9c0.3-0.8,0-1.4-0.9-1.6   c-0.4-0.1-0.9-0.1-1.4-0.2c-1-0.2-1.6-0.8-1.7-1.9c0-0.3,0-0.5,0-0.8c0.5-0.4,1.1-0.7,1.5-1.1c0.5-0.4,0.8-0.8,1-1.4   c0.7-1.6,1.3-3.1,1.7-4.8c0.4-1.8,0.3-3.5-0.7-5.1c-0.3-0.4-0.5-0.9-0.8-1.4c-0.5-1-0.8-2-0.9-3.1c0-0.4,0.1-0.5,0.4-0.5   c0.5-0.1,0.9-0.2,1.5-0.4c0.2,0.2,0.4,0.1,0.7-0.1c0.4-0.5,0.9-0.4,1.5-0.3c0.4,0.1,0.8,0.2,1.2,0.2c0.8,0.1,1.1-0.3,1-1   c0-0.4,0-0.6,0.3-0.9c0.1-0.1,0.1-0.4,0.1-0.6c0-0.3,0-0.6-0.1-0.9c-0.1-0.5-0.2-1.1-0.4-1.6s-1.1-0.8-1.8-0.5s-1.3,0.6-1.9,1   c-0.4,0.3-0.8,0.5-1.3,0.5c-0.6,0-1.2,0.1-1.8,0.1c-0.3,0-0.5-0.1-0.5-0.3c-0.1-0.5-0.1-1-0.1-1.5c0-0.8,0.1-1.5,0.2-2.3   c0.1-1.2-0.3-2.3-0.7-3.3c-0.1-0.4-0.3-0.7-0.4-1.2c0.3,0,0.4,0.1,0.7,0.1c0.3-1.1,0.6-2.2,0.8-3.2c0.3-1.5,0.5-2.9,0.8-4.4   c0-0.1,0.1-0.3,0.2-0.4c1.2-1.4,1.9-3.1,2.5-4.8c0.3-0.8,0.5-1.5,1.1-2.2c0.3-0.3,0.5-0.7,0.6-1c0.5-1.3,1-2.6,1.5-3.8   c0.5-1.4,0.5-2.8,0.1-4.2c-0.8-2.3-0.6-4.7-0.2-7c0.4-2.4,0.6-4.8,0.7-7.2c0-1.1,0.2-2.1,0.6-3.2c0.3-0.9,0.6-1.8,0.9-2.6   c0.1-0.2,0.2-0.3,0.4-0.3c0.3,0,0.7-0.2,1,0.1c0.1,0,0.3-0.1,0.4-0.1c0.1-0.2,0.3-0.4,0.3-0.7c0.3-0.8,0.9-1.2,1.6-1.6   c0.1-0.1,0.2-0.1,0.3-0.2c0.4-0.4,0.9-0.6,1.4-0.2c0.1,0,0.2,0,0.3,0c0.8-0.4,1.6-0.1,2.3,0.1c0.6,0.1,1.2,0.3,1.8,0.4   c0.2,0,0.5,0.1,0.7,0c0.6,0,0.7-0.1,0.8-0.7c0-0.3,0.2-0.5,0.4-0.6c0-0.1,0-0.3,0-0.4c-0.9-1.6-2.4-2.6-3.9-3.5   c-2.2-1.3-4.5-1.9-7-2.4c-0.3,0-0.6-0.1-0.9-0.2c208.3-50.7,300.2-47.3,438.8-42.3c174.1,6.3,257.1,30.2,334.8,16.1   c70.1-12.7,111.5-11.7,208.8-11.4c-5,2.2-9.2,6-11.8,11c-5.2,10.3-2.3,22.1,7.3,29.3c1.5,1.1,1.8,2,0.6,3.6   c-5.8-6-11.4-12.1-17.2-18c-2.3-2.4-5.2-4.4-3.2-8.3c0-0.1,0-0.2,0-0.3c-0.2-2.8,1.3-4.2,3.9-4.9c1.3-0.3,2.3-1.5,4.1-2.7   c-3-1.1-5.4-1.5-7.1-2.8c-2-1.6-2.7-1.3-3.3,1c-0.5,1.7-1.5,2.6-3.7,2.3c-1.6-0.2-3.5,0.3-4.9,1.2c-2,1.2-3,1.2-4.3-1   c-6.5-11.3-20.6-13.1-30-6.1c-4,2.9-6.9,6.6-8.8,11.2c-3.4,8.5-2.4,16.4,4,23c6.3,6.7,14.2,8.1,22.8,5c2.1-0.7,3.4-0.3,4.5,1.3   c2.3,3.2,3.8,6.6,1.9,10.7c-0.9,1.9-1.3,4-1.9,6.1c-0.7,2.5-2.2,4.1-4.8,4.9c-2.3,0.7-4.4,2-6.5,3c0.7,1.3,1.3,2,1.6,2.8   c1.4,4.4,2.5,9,4.3,13.3c1.7,4,5.7,5.9,9,8.6c6.9,5.8,14.8,8.1,23.4,10c-0.4,0.5-0.7,1-1,1.4c-2.1,2.5-2.1,3.7,0.2,5.9   c3.7,3.7,8.2,4.6,12,2.2c1.6-1,2.9-2.8,4.1-4.3c1.4-1.8-0.7-3.5-0.7-4.8c0.1-3.4-1.4-5.8-3.1-8.3c-0.7-1-1.8-1.7-2.8-2.5   c-0.4,0.2-0.7,0.3-1.1,0.5c0.4-1.8,0.5-3.7,1.1-5.5c1.6-4.8,3.9-9,8.2-12.2c3.3-2.5,5.8-5.9,8.8-8.7c2.3-2.1,5.1-3.2,8.4-2.4   c0.7,0.2,2.4-1.2,2.4-1.3c-1.5-3.3,0.7-6.1,1.1-9.2c-1.6,0.9-3.5,1.5-1.9,4.3c-2.8-2.1-4-5-3.7-8c-4.6,1.3-6.9-2.4-10.2-4.2   c0.7-1.3,1.3-2.3,1.9-3.4c1.2,0.1,2.3,0.1,3.5,0.2c9.2,0.2,16.2-3.7,21-11.5c7.3-11.6,2.8-27-8.6-32.5c4.5,0,9,0,13.7,0   c122.3,0,184.3,16.3,234.5,31.2c50.2,14.9,60.4,1.6,183.5,21.2c3.7,0.6,7.4,1.2,11.1,1.9c64.6,11.4,122.3,46.6,163.7,97.5l0,0   c0.1,1,0.1,1.7,0.2,2.4c0,0.3,0.1,0.5,0.2,0.8c0.4,1.1,0.2,2.1-0.7,2.7c-1.1,0.8-1.7,1.8-2.2,3c-0.8,2.2-1.7,4.3-2.6,6.5   c-0.1,0.2-0.4,0.4-0.7,0.5c-1.1,0.4-1.5,0.8-1.6,2c0,0.1,0,0.3,0,0.4c0.3,2.7-0.8,5-2.4,7c-0.5,0.6-0.9,1.2-1.4,1.8   c-1-1.3-1.9-2.5-2.6-4c-2.8-6.5-5.7-13-8.6-19.5c-0.2-0.4-0.3-0.9-1-0.4c2.9,6.5,5.8,13,8.7,19.5c-0.1,0.1-0.1,0.1-0.2,0.2   c-0.1-0.1-0.2-0.3-0.4-0.4c-0.9-0.6-1.3-0.3-1.4,0.7c-0.1,0.8-0.2,1.7-0.4,2.5c0,0.3-0.2,0.5-0.4,0.9c-0.2-0.4-0.4-0.6-0.4-0.8   c-0.2-1.8-0.4-3.6-0.6-5.4c0-0.3-0.4-0.6-0.6-0.9c-0.2,0.3-0.6,0.6-0.6,1c0,1.3,0,2.7,0.1,4c0.1,1.5,0.4,3,0.6,4.5   c0.1,1.4-0.4,2.8-1.3,3.8c-1.4,1.5-1.6,3.5-0.1,5.3c0.8,1,1.9,1.9,2.9,2.8c0.3,0.2,0.5,0.6,0.6,0.9c0.6,2.4,1.2,4.8,1.8,7.2   c0.1,0.5,0,1.2-0.1,1.6c-0.4,0.9-0.7,0.9-1.4,0.2c-0.2-0.2-0.6-0.2-0.9-0.3c-0.1,0.3-0.3,0.6-0.2,0.8c0.4,1.1,0.8,2.3,1.4,3.4   c1.6,3.2,3.7,6.1,6.2,8.7c3.7,3.8,8.4,5.6,13.6,6.1c2,0.2,4,0.1,5.8-0.7c0.6-0.2,1.2-0.8,1.5-1.3c0.3-0.7,0.5-1.5,0.5-2.3   c0.1-1.1,0.4-1.4,1.6-1.3c0.9,0.1,1.9,0.3,2.8,0.4c1.5,0.2,3.1,0.2,4.5-0.6c0.6-0.4,1.3-1,1.5-1.6c0.6-1.8,0.9-3.7,0.6-5.6   c-0.3-1.5-1.1-2.6-2.5-3.4c-0.2-0.1-0.5-0.2-0.6-0.4c-0.5-1.1-1.4-1.6-2.6-1.7c-0.3,0-0.7-0.3-1-0.5c-0.5-0.4-0.6-0.8-0.3-1.5   c1.6-2.7,3-5.6,5.8-7.3c0.9-0.6,2-1,3-1.4c1.8-0.7,3.7-1.2,5.4-2.1c1.1-0.5,2.1-0.5,3.1,0.1c0.6,0.4,1.1,0.4,1.7,0.1   c0.2-0.1,0.5-0.1,0.7,0c1,0.6,2,1.1,3,1.8c0.3,0.2,0.4,0.5,0.6,0.8c0.5,0.7,0.9,1.5,1.5,2.2c0.3,0.4,0.9,0.6,1.3,0.8   c1,0.4,13.8,3.8,30.8,28.5c0.5,1.2,1.1,2.5,1.6,3.7c91.2,213.6,261.5,25.9,316.4-43.6c17.1-21.6,36.6-41.3,58.3-58.3   c31.7-24.8,66.1-45,110.1-58.8c0.3,11-3.4,35.9-4.6,39.5c-1.3,4-3.6,6.2-2.9,11.6c0.9,6.5,10.5,15,10.5,15l-17.6,11l-7.5-0.4   l0.5-3.7l-2-0.3l-0.5,3.9l-1.8-0.1v4.3h1.2l-4.5,33.4l2,0.3l4.6-33.7h8.7l8-2.7c0,0,14.3-6.6,20.3-9c1,6.3,10.3,6.7,11.6,1.7   c1.3-5-5-8.6-5-8.6l2.6-1.7c4.3-4,4.7-17,7.4-22.3s9.3-9,3.7-10.3l1,0.2l6.4-38.6c8.6-1.7,17.5-3.2,26.8-4.4   c143.8-19.6,155.7-24.3,214.3-39.2c27.2-6.9,57.4-14.1,96.2-19.9c3.5,3.1,14.2,6.6,25.6,9.5c-12.6,3.8-38.3,17.4-51.9,27.7   c-15.6,11.7-2,25.7-2,25.7s-6.4,12.7,1.6,14.1c8.1,1.4,9.4-9.3,9.4-9.3l22.3,8.3c-17,36.9-35.8,88-46.6,148.9   c0,0,113.5-40.8,82.8-211.8c6.4,1.3,11.8,2.2,14.7,2.4c11.4,0.9,16.6-21.4,16.6-21.4c0.3-0.7,0.4-1.3,0.4-1.9   c30.2-2.2,64.7-3.4,104.7-3.4c142.9,0,97.3-1.6,202.1,12.8c61.8,8.5,163.1-3.5,215.3,2.7c-23.4,5.1-24.4,13.6-26.1,17.3   c-0.9,2,14.4,3.2,33.4,3.8l-24.7,13.5l102.9,167l-27.4-150.5c0,0,40.4,34.5,31,140.8c0,0,46.5-30.6,34.5-104.3   c-5-30.7-31-53.5-48-65.3c0.3,0,0.4,0,0.4,0s31.5-3.3,47.6-2.3c0,0-6.1-6-19.1-11.9c43,1.6,104.9-13.9,164.3-16.6   c75-3.3,133.5,10.7,198.7,11.3c-9.3,3.6-16.7,8-21,12.1c-1.1,1.1-0.4,3,1.2,3.1c11.3,0.4,23.3,0.3,34.9-0.1l8.1,8.3   c-0.4,0.2-0.8,0.5-0.9,1c-0.1,0.6,0.3,1.5,0.7,2c0.1,0.1,0.2,0.2,0.3,0.2c0.6,0.4,1.5-0.1,2.2-0.2c0.2,0,0.4-0.1,0.6-0.1l21,21.5   c-0.2,0.2-0.4,0.4-0.6,0.5c-0.6,0.5-0.7,1.3-0.3,1.9c0.4,0.7,1.4,0.9,2,0.4c0.3-0.2,0.6-0.4,0.9-0.6l4.6,4.7l17.9,25.2   c1.4,2,4.6,1.4,5.2-1l1.5-6.5c0.3-1.1-0.2-2.3-1.1-3l-21.1-15.2l-5.2-5.3c14.7-11.5,14.5-28.9,13.7-35.8c-0.1-0.8-0.4-1.4-0.9-2   c17.9-2.4,29-5.2,25.6-6.9c-1.1-0.7-2.2-1.3-3.3-1.9c75.7,3.2,142.7,0.7,199.3,10.6V0L0.1,0l0,137.2   C50.2,122.5,95.2,110,135.9,99.3z M162,159c-0.4-0.2-0.8-0.4-1.1-0.6c-0.2-0.1-0.2-0.3-0.1-0.6c0.4-0.6,0.7-1.3,1-2   c0.1-0.2,0.2-0.3,0.3-0.5C162.3,156.5,162.3,157.7,162,159z M1781.9,249.3c-0.5,0.4-1.2,0.7-1.9,1c-0.6-2.5-1.2-4.8-1.8-7.3   c0.9,0,1.7,0.3,2,0.9c0.8,1.4,1.4,2.8,2,4.3C1782.5,248.5,1782.2,249.1,1781.9,249.3z M3852.2,82.7l-0.6,1.5c0,0,0.1-1.8-0.7-2.6   C3850.9,81.6,3852.3,81.1,3852.2,82.7z M3846.9,91.7c-1.3,1.6-2.4,2.9-3.5,4l-20-20.4c1.6-0.1,3.1-0.1,4.7,0.2   c1.7,0.3,2.9,1.2,4.3,2.1c0.6,0.4,1.2,0.7,1.9,1c4.2,2,6.7,2.4,8.1,2.1c-1,1.1-2,2.7-2,5.2C3840.5,89.5,3844.6,91.1,3846.9,91.7z    M3833,63c3.8,2,7.5,1,7.5,1s1,6,1,9.2c0,3.3-3.8-0.4-13.6-1c-2-0.1-4.1-0.2-6.1-0.1c-0.4,0-0.9,0-1.3,0.1l-7.8-8   C3819.6,64,3826.4,63.5,3833,63z M2740,113l-24.9-7.2v-3.3c0,0,21.7,1.9,30,0C2743.4,105.9,2741.7,109.4,2740,113z M2771.9,55.3   L2771.9,55.3L2771.9,55.3c-3.5,5.3-13.5,20.9-25.6,44.9c-9.7-3.1-28.8-2.9-28.8-2.9s-1.9-4.5,1.9-14.1s16.1-9.3,24.2-10.8   c8.1-1.5,9-6.7,11.9-12.1C2758.3,54.9,2771.9,55.3,2771.9,55.3z M2376.5,110.2c5.4-1.3,10.9-2.5,16.6-3.7l-6.3,37.9l1,0.2   c-5.7-1.3-12.3,23.9-16.2,26.6c-3.9,2.7-8-9-8-15s6.3-18.6,8.6-28.6C2373.3,122.8,2375,116,2376.5,110.2z M2357.3,115.4   c4.7-1.4,9.4-2.7,14.3-4c-5.3,16.9-12.1,33.7-15.8,42.4c-0.4,1-1.9,0.6-1.8-0.5l4.6-35.7C2358.6,117.6,2358.1,116.6,2357.3,115.4z    M1822,234.8c-0.8,0.3-1.6,0.6-2.4,0.8c-1,0.2-2.1,0.2-3.1,0.4c-4.1,0.6-7.2,2.8-9.6,6.1c-0.9,1.2-1.7,2.5-2.8,3.5   c-1.4,1.3-4.8,0.2-5.4-1.7c0-0.1-0.1-0.2-0.1-0.4c-0.2-2.1,1.8-5.1,3.9-5.7c3.1-0.8,6.2-1.5,9.3-2.3c0-0.1,0-0.1,0-0.2   c3.2-0.8,6.3-1.5,9.5-2.3c0.8-0.2,0.9,0.5,1.2,0.9C1822.5,234.1,1822.2,234.7,1822,234.8z M1810.2,224c1.3,0.9,2.6,1.7,3.8,2.5   c0.8,0.5,1.5,1.2,1.9,2.1c0.2,0.7,0.7,1.2,1.1,1.8c0.1,0.2,0.1,0.4,0.1,0.6c0,0.4-0.1,0.7-0.2,1.2c-3.3,0.8-6.6,1.6-10,2.5   c0.9-0.8,1.7-1.5,2.4-2.3c0.8-0.8,1.2-1.7,1.1-2.9C1810.3,227.7,1810.3,225.9,1810.2,224z M1814.8,222.1c0.1,0,0.1-0.1,0.2-0.1   c1.5,2.3,3,4.6,4.6,6.9c-1.2-0.8-2.2-1.6-3.3-2.5c-0.1-0.1-0.3-0.3-0.4-0.5C1815.5,224.7,1815.2,223.4,1814.8,222.1z M1826.9,231.9   c0.6,0.9,1.2,1.9,2,2.7c1,1,1.7,2.1,2.3,3.2c-0.1,0.1-0.1,0.2-0.2,0.3c-0.5-0.4-1-0.7-1.5-1.1c-0.7-0.5-1.4-0.9-1.9-1.6   c-0.6-0.8-1.3-1.3-2.2-1.6c-0.4-0.1-0.9-0.2-1.3-0.3c-0.3-1.4-0.3-1.4,0.9-1.7c0.3-0.1,0.7-0.2,1-0.3   C1826.4,231.4,1826.6,231.5,1826.9,231.9z M1813.6,213c4.7,4.9,8.5,10.5,12,16.5c-0.6,0.2-1.1,0.3-1.6,0.4c-0.2,0-0.5-0.1-0.5-0.2   c-0.7-1.1-1.6-1.5-2.9-1c-1.9-3.2-3.8-6.3-5.7-9.3c-0.6-0.9-1-1.9-1.1-2.9c-0.1-1.1-0.3-2.2-0.5-3.3   C1813.4,213.1,1813.5,213.1,1813.6,213z M1805.5,211.4c0.6-0.2,1.2-0.4,1.8-0.6c1.8,2.6,3.5,5.2,5.3,7.7c0,0.1,0.1,0.1,0.1,0.2   c0.5,2,1,4,1.5,6c-0.2-0.1-0.4-0.3-0.6-0.4c-1.1-0.7-2.2-1.4-3.3-2.1c-0.3-0.2-0.6-0.6-0.7-1c-0.3-1.3-0.4-2.7-0.7-4   c-0.4-1.8-0.4-2.2-2.4-1.7c-0.2,0.1-0.5,0.1-0.8,0.1s-0.6-0.1-0.8-0.3C1803.9,214,1804.3,211.8,1805.5,211.4z M1802.6,206.8   c0.4,0.3,0.8,0.5,1.1,0.7c-0.4,0-0.8,0-1.3,0.1C1802.5,207.3,1802.6,207,1802.6,206.8z M1800.5,213.6c0.5,1.1,0.6,2.3,0.5,3.5   c-0.1,0.5,0.1,1.1,0.3,1.6c0.1,0.3,0.4,0.6,0.4,0.9c0.5,1.8,0.9,3.7,1.3,5.6c0.2,0.8-0.4,1.5-1.1,1.9c-0.5,0.2-1,0.4-1.4,0.5   c-1.7,0.3-3.4,0.6-5,1C1797,223.6,1798.7,218.6,1800.5,213.6z M1143.8,84.6c0.8,0.7,1.4,1.7,2.2,2.2c1.2,0.7,2.5,1.5,3.8,1.6   c0.5,0,1-1.9,1.6-3.1c5,4,11.1,12,10.8,14.5c-5.8,0-11.7,0.3-17.5-0.2c-1.4-0.1-3.4-2.7-3.7-4.4c-0.8-4.3-0.8-8.7-1.1-13.1   c0.2-0.1,0.5-0.3,0.7-0.4C1141.7,82.7,1142.8,83.6,1143.8,84.6z M1143.1,76.4c-0.8,0.9-1.5,1.8-2.2,2.6c-0.2-0.1-0.4-0.1-0.7-0.2   c-0.1-1.7-0.2-3.3-0.3-6C1141.3,74.4,1142.1,75.3,1143.1,76.4z M1138.2,105.4c1.4,1.1,2.5,2.1,4.1,3.5c-2.4,0.5-4.1,0.9-6.1,1.4   C1137,108.5,1137.6,107,1138.2,105.4z M1125,72.4c-3,0-6.1,0.3-9.3-0.2c3.8-1.2,7.6-2.5,11.6-3.8C1128,71,1127.6,72.4,1125,72.4z    M1099.4,87c-6.1-4.3-8.8-12.7-6.5-20.1c2.7-8.4,9.8-14,17.8-14c6.8,0,12.6,3.6,14.2,9c-2.9,0.6-5.8,1.1-8.7,1.7   c0,0.1,0,0.2,0.1,0.4c2.2-0.3,4.4-0.4,6.5-0.9c2.5-0.6,3.9,0,3.9,3.2c-5.6-0.1-11.3,4.4-17-0.8c0.5-0.3,0.9-0.5,1.4-0.8   c-4,0.1-5,1.2-5.6,6.2c-0.3,2.5,1,3.7,4.7,4.4c0.5,0.1,1.1,0.5,1.3,0.9c2.3,3.5,4.6,7.1,6.8,10.6C1113,91.1,1105.2,91.1,1099.4,87z    M1123.6,82.3c-0.5,1.1-1.5,1.9-2.6,3.1c-2.7-3.7-5.3-7.1-8.2-11.1c5.1-0.5,9.6-0.9,14.3-1.4C1125.9,76.3,1124.9,79.4,1123.6,82.3z    M1127.2,98.7c0.5-1.6,1.1-3.3,1.8-5.6c1.1,1.3,1.8,2.1,2.9,3.4c-1.4,1.1-2.6,2-3.8,3C1127.8,99.1,1127.5,98.9,1127.2,98.7z    M1146.6,134.4c-3.6-4-7.9-4.4-11.9-5.7c-1.9-0.6-3.6-1.8-5.4-2.8c1.6-1.2,3.2-2.5,4.9-3.4c4.5-2.2,9.2-3.9,13.6-6.3   c5.3-2.9,5.7-6.2,1.8-11c-0.5-0.7-1.1-1.3-1.8-2.1c4.7,0,9.2,0,14.2,0c-0.3,1.6-0.4,2.8-0.7,3.9c-0.9,2.6-0.6,3,2.1,2.7   c0.7-0.1,1.4,0,2.4,0.4C1156.9,116.2,1149.9,123.6,1146.6,134.4z M1165.9,117.8c1.1-3.4,3.1-5.3,7.5-5.1   C1170.5,114.7,1168.2,116.3,1165.9,117.8z M1172.8,101.6c1.2,2.3,0,4.4-2.6,4.8c-1,0.1-2,0.5-3,0.7c-0.9,0.1-1.8,0-2.9,0   c1-3.2,1.8-5.9,2.6-8.7C1169.3,98.5,1171.5,99.2,1172.8,101.6z M1186.5,53.2c8.8,4.3,12.3,15.1,8,24.3c-4.2,9-15.4,14.1-23.8,10.5   c2.3-5.3,3.4-11.2,7.8-15.6c0.7-0.7,0.7-3,0.1-3.8c-0.7-0.8-2.6-1.2-3.8-0.9c-1.3,0.3-2.4,1.4-3.9,2.4c1,0.3,1.7,0.5,2.8,0.8   c-2.3,5.1-4.6,10.3-6.9,15.4c-8.1-4.4-11.3-15.5-7-24.1C1164.4,53,1177.4,48.7,1186.5,53.2z M181.7,88.4c-0.2,0.8-0.5,1.5-0.4,2.4   c0,0.1,0,0.1,0,0.2c0,0.4-0.2,0.9-0.1,1.3c0.2,0.8,0,1.5-0.1,2.2c-0.1,0.4-0.1,0.8-0.1,1.2c0,0.1-0.1,0.2-0.1,0.3   c-0.2,0.5-0.4,0.9-0.6,1.4c-0.2,0.6-0.3,1.3-0.5,1.9c-0.5,1.5-1.1,2.9-1.7,4.4c-1.1,2.4-1.4,5-1.1,7.6c0.1,1.5,0.3,2.9,0.5,4.4   c0.1,0.9,0,1.6-0.6,2.3c-1.2,1.7-2.8,3-4.4,4.3c-1.4-2.3-2.7-4.6-4.1-6.8c-0.4-0.7-0.7-1.4-1.3-2c-0.4-0.4-0.8-0.6-1.4-0.6   c-0.8-0.1-1.7-0.1-2.5-0.1c-2.1,0-4.1-0.3-6.1-0.9c-1.7-0.5-3.6-0.6-5.4-0.8c-1.5-0.1-3.1-0.1-4.5-0.7c-1.3-0.5-2.8-0.8-4-1.7   c-0.1-0.1-0.2-0.1-0.3-0.2c0.3-0.5,0.4-1,0.4-1.6c-0.1-0.9-0.5-1.3-1.6-0.8c-0.2,0.1-0.5,0.3-0.7,0.4c-0.1,0-0.2,0-0.3,0   c-0.6-0.6-1.1-1.2-1.6-1.9c-0.8-1.1-1.3-2.3-1.5-3.7c0-0.3-0.1-0.7-0.2-1c-0.2-0.5-0.6-0.7-1.1-0.7c15.7-4.1,30.8-7.9,45.4-11.5   C181.8,87.9,181.8,88.2,181.7,88.4z"/>
</g>
</svg>
