<svg width="38" height="38" viewBox="0 0 6 6" xmlns="http://www.w3.org/2000/svg"><circle cx="5.5" cy="4.5" r="0.5"></circle>
	<path d="M5.8,0.2C5.7,0.2,5.6,0.1,5.5,0.1c-0.2,0-0.4,0.2-0.4,0.4s0.2,0.4,0.4,0.4c0.1,0,0.2,0,0.3-0.1
		C5.8,0.7,5.9,0.7,6,0.7V0.3C5.9,0.3,5.8,0.3,5.8,0.2z"></path>
	<path d="M3.9,4.5c0-0.2-0.2-0.4-0.4-0.4c-0.1,0-0.2,0-0.3,0.1C3.2,4.3,3.1,4.3,3,4.3c-0.1,0-0.2,0-0.2-0.1 C2.7,4.2,2.6,4.1,2.5,4.1c-0.2,0-0.4,0.2-0.4,0.4c0,0.1,0,0.2,0.1,0.3C2.3,4.8,2.3,4.9,2.3,5c0,0.2-0.1,0.3-0.3,0.3c0,0,0,0-0.1,0
		C1.9,5.1,1.7,5,1.5,5S1.1,5.1,1.1,5.3c0,0,0,0-0.1,0v0c-0.1,0-0.2,0-0.2-0.1c0,0,0,0,0,0C0.7,5.2,0.7,5.1,0.7,5c0,0,0,0,0-0.1 C0.9,4.9,1,4.7,1,4.5S0.9,4.1,0.7,4.1c0,0,0,0,0-0.1h0c0-0.1,0-0.2,0.1-0.2c0.1-0.1,0.1-0.2,0.1-0.3c0-0.2-0.2-0.4-0.4-0.4 S0.1,3.3,0.1,3.5c0,0.1,0,0.2,0.1,0.3C0.3,3.8,0.3,3.9,0.3,4c0,0,0,0,0,0.1C0.1,4.1,0,4.3,0,4.5s0.1,0.4,0.3,0.4c0,0,0,0,0,0 c0,0,0,0,0,0c0,0.1,0,0.2-0.1,0.2C0.2,5.3,0.1,5.4,0.1,5.5c0,0.2,0.2,0.4,0.4,0.4c0.1,0,0.2,0,0.3-0.1C0.8,5.7,0.9,5.7,1,5.7v0 c0,0,0,0,0.1,0C1.1,5.9,1.3,6,1.5,6s0.4-0.1,0.4-0.3c0,0,0,0,0.1,0c0.2,0,0.3,0.1,0.3,0.3h0.3c0-0.2,0.1-0.3,0.3-0.3h0 c0,0,0,0,0.1,0c0.1,0,0.1,0,0.2,0.1c0,0,0,0,0,0C3.3,5.8,3.3,5.9,3.3,6h0.3c0-0.1,0-0.2,0.1-0.2c0,0,0,0,0,0 c0.1-0.1,0.1-0.2,0.1-0.3c0-0.1,0-0.2-0.1-0.3c0,0,0,0,0,0C3.7,5.2,3.7,5.1,3.7,5h0c0-0.1,0-0.2,0.1-0.2C3.8,4.7,3.9,4.6,3.9,4.5z M3.2,5.2C3.2,5.2,3.2,5.2,3.2,5.2c0,0-0.1,0.1-0.2,0.1c0,0,0,0-0.1,0h0C2.8,5.3,2.7,5.2,2.7,5c0-0.1,0-0.2,0.1-0.2c0,0,0,0,0,0 C2.8,4.7,2.9,4.7,3,4.7s0.2,0,0.2,0.1c0,0,0,0,0,0C3.3,4.8,3.3,4.9,3.3,5h0C3.3,5.1,3.3,5.2,3.2,5.2z"></path>
	<path d="M5.2,2.8c0.1,0.1,0.2,0.1,0.3,0.1c0.2,0,0.4-0.2,0.4-0.4S5.7,2.1,5.5,2.1c-0.1,0-0.2,0-0.3,0.1 C5.2,2.3,5.1,2.3,5,2.3c0,0,0,0,0,0v0c0,0,0,0-0.1,0C4.9,2.1,4.7,2,4.5,2C4.3,2,4.1,2.1,4.1,2.3c0,0,0,0-0.1,0 c-0.1,0-0.2,0-0.2-0.1c0,0,0,0,0,0C3.7,2.2,3.7,2.1,3.7,2c0-0.1,0-0.2,0.1-0.2c0,0,0,0,0,0c0.1-0.1,0.1-0.2,0.1-0.3 c0-0.1,0-0.2-0.1-0.3c0,0,0,0,0,0C3.7,1.2,3.7,1.1,3.7,1c0-0.1,0-0.2,0.1-0.2c0.1-0.1,0.1-0.2,0.1-0.3c0-0.2-0.2-0.4-0.4-0.4 c-0.2,0-0.4,0.2-0.4,0.4c0,0.1,0,0.2,0.1,0.3C3.3,0.8,3.3,0.9,3.3,1c0,0.1,0,0.2-0.1,0.2c0,0,0,0,0,0C3.2,1.3,3.1,1.4,3.1,1.5 c0,0.1,0,0.2,0.1,0.3c0,0,0,0,0,0C3.3,1.8,3.3,1.9,3.3,2c0,0.1,0,0.2-0.1,0.2C3.2,2.3,3.1,2.4,3.1,2.5c0,0.2,0.2,0.4,0.4,0.4 c0.1,0,0.2,0,0.3-0.1C3.8,2.7,3.9,2.7,4,2.7c0,0,0,0,0,0l0,0c0,0,0,0,0,0c0,0,0,0,0.1,0C4.1,2.9,4.3,3,4.5,3c0.2,0,0.4-0.1,0.4-0.3 c0,0,0,0,0.1,0c0,0,0,0,0,0C5.1,2.7,5.2,2.7,5.2,2.8z"></path>
	<path d="M0.5,0.9c0.1,0,0.2,0,0.3-0.1C0.8,0.7,0.9,0.7,1,0.7c0,0,0,0,0.1,0c0.1,0,0.1,0,0.2,0.1c0,0,0,0,0,0 C1.3,0.8,1.3,0.9,1.3,1h0c0,0,0,0,0,0.1C1.1,1.1,1,1.3,1,1.5s0.1,0.4,0.3,0.4c0,0,0,0,0,0.1c0,0,0,0,0,0c0,0.1,0,0.2-0.1,0.2 C1.2,2.3,1.1,2.4,1.1,2.5c0,0.2,0.2,0.4,0.4,0.4c0.2,0,0.4-0.2,0.4-0.4c0-0.1,0-0.2-0.1-0.3C1.7,2.2,1.7,2.1,1.7,2c0,0,0,0,0,0 c0,0,0,0,0,0C1.9,1.9,2,1.7,2,1.5S1.9,1.1,1.7,1.1c0,0,0,0,0-0.1v0c0-0.1,0-0.2,0.1-0.2c0,0,0,0,0,0c0.1-0.1,0.1-0.2,0.1-0.3 c0-0.1,0-0.2-0.1-0.3c0,0,0,0,0,0C1.7,0.2,1.7,0.1,1.7,0H1.3c0,0.1,0,0.2-0.1,0.2c0,0,0,0,0,0c0,0-0.1,0.1-0.2,0.1c0,0,0,0-0.1,0 c-0.1,0-0.2,0-0.2-0.1C0.7,0.2,0.6,0.1,0.5,0.1c-0.2,0-0.4,0.2-0.4,0.4S0.3,0.9,0.5,0.9z"></path></svg>