<svg width="38" height="38" viewBox="0 0 6 6" xmlns="http://www.w3.org/2000/svg"><path d="M5.2,4C5,4,4.9,4.3,5.1,4.5C5.3,4.8,5.6,5,5.8,5C6,5,6.1,4.7,5.9,4.5C5.7,4.2,5.4,4,5.2,4z"></path>
	<path d="M5,0.9C5,0.9,5.1,1,5.1,1H6V0C5.8,0,5,0.6,5,0.9z"></path>
	<path d="M5.9,2H4l0,0h0V1l0,0h0c0-0.2-0.6-1-0.9-1C3.1,0,3,0.1,3,0.1v2.5C3,2.9,3.1,3,3.3,3L5,3v0l0,0c0.2,0,1-0.6,1-0.9 C6,2.1,5.9,2,5.9,2z"></path>
	<path d="M3.7,4H2.3C2.1,4,2,4.1,2,4.3V5h0l0,0H1v0V4h0l0,0c0-0.2-0.6-1-0.9-1C0.1,3,0,3.1,0,3.1v2.5C0,5.9,0.1,6,0.3,6L4,6V4.3 C4,4.1,3.9,4,3.7,4z"></path>
	<path d="M0.1,1H1v0v1h0l0,0c0,0.2,0.6,1,0.9,1C1.9,3,2,2.9,2,2.9L2,0H1v0C0.8,0,0,0.6,0,0.9C0,0.9,0.1,1,0.1,1z"></path></svg>