<svg width="38" height="38" viewBox="0 0 6 6" xmlns="http://www.w3.org/2000/svg"><path d="M0.8,0C0.7,0,0.6,0,0.5,0.1C0.4,0,0.4,0,0.3,0C0.1,0,0,0.1,0,0.3c0,0.1,0,0.1,0,0.2l0,0L0.5,1l0.4-0.5 C1,0.4,1,0.3,1,0.3C1,0.1,0.9,0,0.8,0z"></path>
<path d="M2.8,0C2.7,0,2.6,0,2.5,0.1C2.4,0,2.4,0,2.3,0C2.1,0,2,0.1,2,0.3c0,0.1,0,0.1,0,0.2l0,0L2.5,1l0.4-0.5 C3,0.4,3,0.3,3,0.3C3,0.1,2.9,0,2.8,0z"></path>
<path d="M4.8,0C4.7,0,4.6,0,4.5,0.1C4.4,0,4.4,0,4.3,0C4.1,0,4,0.1,4,0.3c0,0.1,0,0.1,0,0.2l0,0L4.5,1l0.4-0.5 C5,0.4,5,0.3,5,0.3C5,0.1,4.9,0,4.8,0z"></path>
<path d="M5,0.5L5.5,1l0.4-0.5C6,0.4,6,0.3,6,0.3C6,0.1,5.9,0,5.8,0C5.7,0,5.6,0,5.5,0.1C5.4,0,5.4,0,5.3,0 C5.1,0,5,0.1,5,0.3C5,0.3,5,0.4,5,0.5L5,0.5z"></path>
<path d="M4.8,1C4.7,1,4.6,1,4.5,1.1C4.4,1,4.4,1,4.3,1C4.1,1,4,1.1,4,1.3c0,0.1,0,0.1,0,0.2l0,0L4.5,2l0.4-0.5 C5,1.4,5,1.3,5,1.3C5,1.1,4.9,1,4.8,1z"></path>
<path d="M3.8,1C3.7,1,3.6,1,3.5,1.1C3.4,1,3.4,1,3.3,1C3.1,1,3,1.1,3,1.3c0,0.1,0,0.1,0,0.2l0,0L3.5,2l0.4-0.5 C4,1.4,4,1.3,4,1.3C4,1.1,3.9,1,3.8,1z"></path>
<path d="M2.8,2C2.7,2,2.6,2,2.5,2.1C2.4,2,2.4,2,2.3,2C2.1,2,2,2.1,2,2.3c0,0.1,0,0.1,0,0.2l0,0L2.5,3l0.4-0.5 C3,2.4,3,2.3,3,2.3C3,2.1,2.9,2,2.8,2z"></path>
<path d="M0.8,1C0.7,1,0.6,1,0.5,1.1C0.4,1,0.4,1,0.3,1C0.1,1,0,1.1,0,1.3c0,0.1,0,0.1,0,0.2l0,0L0.5,2l0.4-0.5 C1,1.4,1,1.3,1,1.3C1,1.1,0.9,1,0.8,1z"></path>
<path d="M0.8,3C0.7,3,0.6,3,0.5,3.1C0.4,3,0.4,3,0.3,3C0.1,3,0,3.1,0,3.3c0,0.1,0,0.1,0,0.2l0,0L0.5,4l0.4-0.5 C1,3.4,1,3.3,1,3.3C1,3.1,0.9,3,0.8,3z"></path>
<path d="M1.8,3C1.7,3,1.6,3,1.5,3.1C1.4,3,1.4,3,1.3,3C1.1,3,1,3.1,1,3.3c0,0.1,0,0.1,0,0.2l0,0L1.5,4l0.4-0.5 C2,3.4,2,3.3,2,3.3C2,3.1,1.9,3,1.8,3z"></path>
<path d="M4.8,3C4.7,3,4.6,3,4.5,3.1C4.4,3,4.4,3,4.3,3C4.1,3,4,3.1,4,3.3c0,0.1,0,0.1,0,0.2l0,0L4.5,4l0.4-0.5 C5,3.4,5,3.3,5,3.3C5,3.1,4.9,3,4.8,3z"></path>
<path d="M5.8,4C5.7,4,5.6,4,5.5,4.1C5.4,4,5.4,4,5.3,4C5.1,4,5,4.1,5,4.3c0,0.1,0,0.1,0,0.2l0,0L5.5,5l0.4-0.5 C6,4.4,6,4.3,6,4.3C6,4.1,5.9,4,5.8,4z"></path>
<path d="M3.8,5C3.7,5,3.6,5,3.5,5.1C3.4,5,3.4,5,3.3,5C3.1,5,3,5.1,3,5.3c0,0.1,0,0.1,0,0.2l0,0L3.5,6l0.4-0.5 C4,5.4,4,5.3,4,5.3C4,5.1,3.9,5,3.8,5z"></path>
<path d="M2.8,5C2.7,5,2.6,5,2.5,5.1C2.4,5,2.4,5,2.3,5C2.1,5,2,5.1,2,5.3c0,0.1,0,0.1,0,0.2l0,0L2.5,6l0.4-0.5 C3,5.4,3,5.3,3,5.3C3,5.1,2.9,5,2.8,5z"></path>
<path d="M0.8,5C0.7,5,0.6,5,0.5,5.1C0.4,5,0.4,5,0.3,5C0.1,5,0,5.1,0,5.3c0,0.1,0,0.1,0,0.2l0,0L0.5,6l0.4-0.5 C1,5.4,1,5.3,1,5.3C1,5.1,0.9,5,0.8,5z"></path></svg>