<svg width="38" height="38" viewBox="0 0 6 6" xmlns="http://www.w3.org/2000/svg"><path d="M5.5,4C5.2,4,5,4.2,5,4.5S5.2,5,5.5,5C5.8,5,6,4.8,6,4.5S5.8,4,5.5,4z"></path>
<path d="M0,2c0.6,0,1-0.4,1-1l1,0v0l0.2-0.1c0.2-0.1,0.4-0.1,0.6,0L3,1c0,0,0,0,0,0v0l0,0c0-0.6-0.4-1-1-1v0H0l0,1h0l0.1,0.2 c0.1,0.2,0.1,0.4,0,0.6L0,2z"></path>
<path d="M4.5,3C4.2,3,4,3.2,4,3.5S4.2,4,4.5,4C4.8,4,5,3.8,5,3.5S4.8,3,4.5,3z"></path>
<path d="M3,2L3,2L3,2l0.1,0.2c0.1,0.2,0.1,0.4,0,0.6L3,3c0.6,0,1-0.4,1-1l0,0h0h0.5C4.8,2,5,1.8,5,1.5V1l0.2-0.1 c0.2-0.1,0.4-0.1,0.6,0L6,1c0-0.6-0.4-1-1-1l0,0h0H4.5C4.2,0,4,0.2,4,0.5V1h0H3.5C3.2,1,3,1.2,3,1.5V2z"></path>
<path d="M4,5L4,5L3,5v0h0l0-1.5C3,3.2,2.8,3,2.5,3l-1,0C1.2,3,1,3.2,1,3.5L1,4l0,0L0.8,4.1c-0.2,0.1-0.4,0.1-0.6,0L0,4 c0,0.6,0.4,1,1,1l0,0l1,0l0,0.5C2,5.8,2.2,6,2.5,6L4,6l0,0v0l0.2-0.1c0.2-0.1,0.4-0.1,0.6,0L5,6C5,5.4,4.6,5,4,5z"></path></svg>