<svg width="38" height="38" viewBox="0 0 6 6" xmlns="http://www.w3.org/2000/svg"><path d="M0.4,0.9L0.4,0.9L0.4,0.9h0.1c0-0.2,0.2-0.3,0.4-0.4l0.1,0l0.1,0c0.2,0,0.3,0.2,0.4,0.4v0.1c0,0.2-0.2,0.3-0.4,0.4L1,1.5 v0.1l0.1,0c0.2,0,0.3,0.2,0.4,0.4v0.1c0,0.2-0.2,0.3-0.4,0.4L1,2.5v0.1l0.1,0c0.2,0,0.3,0.2,0.4,0.4l0,0.1h0.1l0-0.1 c0-0.2,0.2-0.3,0.4-0.4l0.1,0V2.5l-0.1,0c-0.2,0-0.3-0.2-0.4-0.4V1.9c0-0.2,0.2-0.3,0.4-0.4l0.1,0V1.5l-0.1,0 c-0.2,0-0.3-0.2-0.4-0.4V0.9c0-0.2,0.2-0.3,0.4-0.4l0.1,0V0.5l-0.1,0c-0.2,0-0.3-0.2-0.4-0.4l0-0.1H1.5l0,0.1 c0,0.2-0.2,0.3-0.4,0.4L1,0.5l-0.1,0c-0.2,0-0.3-0.2-0.4-0.4l0-0.1H0.5l0,0.1c0,0.2-0.2,0.3-0.4,0.4L0,0.5v0.1l0.1,0 C0.3,0.6,0.4,0.7,0.4,0.9z"></path>
	<path d="M3.6,4.1L3.6,4.1L3.6,4.1H3.4c0,0.2-0.2,0.3-0.4,0.4H2.9c-0.2,0-0.3-0.2-0.4-0.4l0-0.1H2.5l0,0.1c0,0.2-0.2,0.3-0.4,0.4 L2,4.5v0.1l0.1,0c0.2,0,0.3,0.2,0.4,0.4v0.1c0,0.2-0.2,0.3-0.4,0.4H1.9c-0.2,0-0.3-0.2-0.4-0.4l0-0.1H1.5l0,0.1 c0,0.2-0.2,0.3-0.4,0.4H0.9c-0.2,0-0.3-0.2-0.4-0.4V4.9c0-0.2,0.2-0.3,0.4-0.4l0.1,0V4.5l-0.1,0c-0.2,0-0.3-0.2-0.4-0.4V3.9 c0-0.2,0.2-0.3,0.4-0.4l0.1,0V3.5l-0.1,0c-0.2,0-0.3-0.2-0.4-0.4l0-0.1H0.5l0,0.1c0,0.2-0.2,0.3-0.4,0.4L0,3.5v0.1l0.1,0 c0.2,0,0.3,0.2,0.4,0.4v0.1c0,0.2-0.2,0.3-0.4,0.4L0,4.5v0.1l0.1,0c0.2,0,0.3,0.2,0.4,0.4v0.1c0,0.2-0.2,0.3-0.4,0.4L0,5.5v0.1 l0.1,0c0.2,0,0.3,0.2,0.4,0.4l0,0.1h0.1l0-0.1c0-0.2,0.2-0.3,0.4-0.4h0.1c0.2,0,0.3,0.2,0.4,0.4l0,0.1h0.1l0-0.1 c0-0.2,0.2-0.3,0.4-0.4h0.1c0.2,0,0.3,0.2,0.4,0.4l0,0.1h0.1l0-0.1c0-0.2,0.2-0.3,0.4-0.4h0.1c0.2,0,0.3,0.2,0.4,0.4l0,0.1h0.1 l0-0.1c0-0.2,0.2-0.3,0.4-0.4l0.1,0V5.5l-0.1,0c-0.2,0-0.3-0.2-0.4-0.4V4.9c0-0.2,0.2-0.3,0.4-0.4l0.1,0V4.5l-0.1,0 C3.7,4.4,3.6,4.3,3.6,4.1z M3.4,5.1c0,0.2-0.2,0.3-0.4,0.4H2.9c-0.2,0-0.3-0.2-0.4-0.4V4.9c0-0.2,0.2-0.3,0.4-0.4h0.1 c0.2,0,0.3,0.2,0.4,0.4V5.1z"></path>
	<path d="M5.6,4.1L5.6,4.1L5.6,4.1H5.4c0,0.2-0.2,0.3-0.4,0.4L5,4.5v0.1l0.1,0c0.2,0,0.3,0.2,0.4,0.4l0,0.1h0.1l0-0.1 c0-0.2,0.2-0.3,0.4-0.4l0.1,0V4.5l-0.1,0C5.7,4.4,5.6,4.3,5.6,4.1z"></path>
	<path d="M5.6,2.1L5.6,2.1L5.6,2.1H5.4c0,0.2-0.2,0.3-0.4,0.4H4.9c-0.2,0-0.3-0.2-0.4-0.4l0-0.1H4.5l0,0.1c0,0.2-0.2,0.3-0.4,0.4 H3.9c-0.2,0-0.3-0.2-0.4-0.4V1.9c0-0.2,0.2-0.3,0.4-0.4l0.1,0V1.5l-0.1,0c-0.2,0-0.3-0.2-0.4-0.4V0.9c0-0.2,0.2-0.3,0.4-0.4l0.1,0 V0.5l-0.1,0c-0.2,0-0.3-0.2-0.4-0.4l0-0.1H3.5l0,0.1c0,0.2-0.2,0.3-0.4,0.4L3,0.5v0.1l0.1,0c0.2,0,0.3,0.2,0.4,0.4v0.1 c0,0.2-0.2,0.3-0.4,0.4L3,1.5v0.1l0.1,0c0.2,0,0.3,0.2,0.4,0.4v0.1c0,0.2-0.2,0.3-0.4,0.4L3,2.5v0.1l0.1,0c0.2,0,0.3,0.2,0.4,0.4 l0,0.1h0.1l0-0.1c0-0.2,0.2-0.3,0.4-0.4h0.1c0.2,0,0.3,0.2,0.4,0.4l0,0.1h0.1l0-0.1c0-0.2,0.2-0.3,0.4-0.4h0.1 c0.2,0,0.3,0.2,0.4,0.4l0,0.1h0.1l0-0.1c0-0.2,0.2-0.3,0.4-0.4l0.1,0V2.5l-0.1,0C5.7,2.4,5.6,2.3,5.6,2.1z"></path>
	<path d="M5.9,0.4c-0.2,0-0.3-0.2-0.4-0.4l0-0.1H5.5l0,0.1c0,0.2-0.2,0.3-0.4,0.4L5,0.5v0.1l0.1,0c0.2,0,0.3,0.2,0.4,0.4l0,0.1h0.1 l0-0.1c0-0.2,0.2-0.3,0.4-0.4V0.4L5.9,0.4L5.9,0.4z"></path></svg>