<svg width="38" height="38" viewBox="0 0 6 6" xmlns="http://www.w3.org/2000/svg"><path d="M0.5,4.1c-0.2,0-0.4,0.2-0.4,0.4l0,1c0,0.2,0.2,0.4,0.4,0.4s0.4-0.2,0.4-0.4l0-1C0.9,4.3,0.7,4.1,0.5,4.1z"></path>
	<path d="M1.5,2.1c-0.2,0-0.4,0.2-0.4,0.4l0,2c0,0.2,0.2,0.4,0.4,0.4s0.4-0.2,0.4-0.4l0-2C1.9,2.3,1.7,2.1,1.5,2.1z"></path>
	<path d="M0.5,2.9c0.2,0,0.4-0.2,0.4-0.4S0.7,2.1,0.5,2.1c-0.2,0-0.4,0.2-0.4,0.4S0.3,2.9,0.5,2.9z"></path>
	<path d="M2.5,1.1c-0.2,0-0.4,0.2-0.4,0.4l0,3c0,0.2,0.2,0.4,0.4,0.4s0.4-0.2,0.4-0.4l0-3C2.9,1.3,2.7,1.1,2.5,1.1z"></path>
	<path d="M3.5,4.1c-0.2,0-0.4,0.2-0.4,0.4V6h0.8V4.5C3.9,4.3,3.7,4.1,3.5,4.1z"></path>
	<path d="M3.5,1.1c-0.2,0-0.4,0.2-0.4,0.4s0.2,0.4,0.4,0.4s0.4-0.2,0.4-0.4S3.7,1.1,3.5,1.1z"></path>
	<path d="M4.5,1.9c0.2,0,0.4-0.2,0.4-0.4l0-1c0-0.2-0.2-0.4-0.4-0.4c-0.2,0-0.4,0.2-0.4,0.4l0,1 C4.1,1.7,4.3,1.9,4.5,1.9z"></path>
	<path d="M4.5,2.1c-0.2,0-0.4,0.2-0.4,0.4l0,2c0,0.2,0.2,0.4,0.4,0.4s0.4-0.2,0.4-0.4l0-2C4.9,2.3,4.7,2.1,4.5,2.1z"></path>
	<path d="M5.5,3.1c-0.2,0-0.4,0.2-0.4,0.4l0,2c0,0.2,0.2,0.4,0.4,0.4c0.2,0,0.4-0.2,0.4-0.4l0-2 C5.9,3.3,5.7,3.1,5.5,3.1z"></path>
	<path d="M0.1,0l0,1.5c0,0.2,0.2,0.4,0.4,0.4s0.4-0.2,0.4-0.4l0-1.5v0L0.1,0L0.1,0z"></path>
	<path d="M5.5,0.9c0.2,0,0.4-0.2,0.4-0.4V0H5.1v0.5C5.1,0.7,5.3,0.9,5.5,0.9z"></path></svg>