<svg width="38" height="38" viewBox="0 0 6 6" xmlns="http://www.w3.org/2000/svg"><path d="M0.5,0.9L0.5,0.9C0.6,1,0.7,1,0.7,1s0.1,0,0.2-0.1C1,0.8,1,0.7,0.9,0.6L0.9,0.5l0.1-0.1C1,0.3,1,0.2,0.9,0.1 S0.7,0,0.6,0.1L0.5,0.1L0.4,0.1C0.3,0,0.2,0,0.1,0.1C0,0.2,0,0.3,0.1,0.4l0.1,0.1L0.1,0.6C0,0.7,0,0.8,0.1,0.9C0.1,1,0.2,1,0.3,1 C0.3,1,0.4,1,0.5,0.9L0.5,0.9z"></path>
<path d="M2.1,0.9C2.1,1,2.2,1,2.3,1c0.1,0,0.1,0,0.2-0.1l0.1-0.1l0.1,0.1C2.6,1,2.7,1,2.7,1s0.1,0,0.2-0.1 C3,0.8,3,0.7,2.9,0.6L2.9,0.5l0.1-0.1C3,0.3,3,0.2,2.9,0.1S2.7,0,2.6,0.1L2.5,0.1L2.4,0.1C2.3,0,2.2,0,2.1,0.1S2,0.3,2.1,0.4 l0.1,0.1L2.1,0.6C2,0.7,2,0.8,2.1,0.9z"></path>
<path d="M4.9,0.5L4.9,0.5C5,0.4,5,0.3,5,0.3s0-0.1-0.1-0.2C4.8,0,4.7,0,4.6,0.1L4.5,0.1L4.4,0.1C4.3,0,4.2,0,4.1,0.1 S4,0.3,4.1,0.4l0.1,0.1L4.1,0.6C4,0.7,4,0.8,4.1,0.9C4.1,1,4.2,1,4.3,1c0.1,0,0.1,0,0.2-0.1l0.1-0.1l0.1,0.1C4.6,1,4.7,1,4.7,1 s0.1,0,0.2-0.1C5,0.9,5,0.8,5,0.7C5,0.7,5,0.6,4.9,0.5L4.9,0.5z"></path>
<path d="M5.9,0.5L5.9,0.5C6,0.3,6,0.2,5.9,0.1S5.7,0,5.6,0.1L5.5,0.1L5.4,0.1C5.3,0,5.2,0,5.1,0.1C5,0.1,5,0.2,5,0.3 s0,0.1,0.1,0.2l0.1,0.1L5.1,0.6C5,0.6,5,0.7,5,0.7c0,0.1,0,0.1,0.1,0.2C5.1,1,5.2,1,5.3,1c0.1,0,0.1,0,0.2-0.1l0.1-0.1l0.1,0.1 C5.6,1,5.7,1,5.7,1s0.1,0,0.2-0.1C6,0.8,6,0.7,5.9,0.5L5.9,0.5z"></path>
<path d="M4.5,1.1L4.5,1.1C4.4,1,4.3,1,4.3,1S4.1,1,4.1,1.1C4,1.1,4,1.2,4,1.3s0,0.1,0.1,0.2l0.1,0.1L4.1,1.6 C4,1.6,4,1.7,4,1.7c0,0.1,0,0.1,0.1,0.2C4.1,2,4.2,2,4.3,2c0.1,0,0.1,0,0.2-0.1l0.1-0.1l0.1,0.1C4.6,2,4.7,2,4.7,2s0.1,0,0.2-0.1 C5,1.8,5,1.7,4.9,1.6L4.9,1.5l0.1-0.1C5,1.3,5,1.2,4.9,1.1C4.9,1,4.8,1,4.7,1C4.7,1,4.6,1,4.5,1.1L4.5,1.1z"></path>
<path d="M3.9,1.5L3.9,1.5C4,1.4,4,1.3,4,1.3s0-0.1-0.1-0.2C3.8,1,3.7,1,3.6,1.1L3.5,1.1L3.4,1.1C3.3,1,3.2,1,3.1,1.1 C3,1.2,3,1.3,3.1,1.4l0.1,0.1L3.1,1.6C3,1.7,3,1.8,3.1,1.9C3.1,2,3.2,2,3.3,2c0.1,0,0.1,0,0.2-0.1l0.1-0.1l0.1,0.1 C3.6,2,3.7,2,3.7,2s0.1,0,0.2-0.1C4,1.9,4,1.8,4,1.7C4,1.7,4,1.6,3.9,1.5L3.9,1.5z"></path>
<path d="M2.1,2.9C2.1,3,2.2,3,2.3,3c0.1,0,0.1,0,0.2-0.1l0.1-0.1l0.1,0.1C2.6,3,2.7,3,2.7,3s0.1,0,0.2-0.1 C3,2.8,3,2.7,2.9,2.6L2.9,2.5l0.1-0.1C3,2.3,3,2.2,2.9,2.1C2.8,2,2.7,2,2.6,2.1L2.5,2.1L2.4,2.1C2.3,2,2.2,2,2.1,2.1 C2,2.2,2,2.3,2.1,2.4l0.1,0.1L2.1,2.6C2,2.7,2,2.8,2.1,2.9z"></path>
<path d="M0.1,1.9C0.1,2,0.2,2,0.3,2c0.1,0,0.1,0,0.2-0.1l0.1-0.1l0.1,0.1C0.6,2,0.7,2,0.7,2s0.1,0,0.2-0.1 C1,1.8,1,1.7,0.9,1.6L0.9,1.5l0.1-0.1C1,1.3,1,1.2,0.9,1.1C0.9,1,0.8,1,0.7,1C0.7,1,0.6,1,0.6,1.1L0.5,1.1L0.4,1.1 C0.4,1,0.3,1,0.3,1S0.1,1,0.1,1.1C0,1.2,0,1.3,0.1,1.4l0.1,0.1L0.1,1.6C0,1.7,0,1.8,0.1,1.9z"></path>
<path d="M0.9,3.5L0.9,3.5C1,3.4,1,3.3,1,3.3s0-0.1-0.1-0.2C0.8,3,0.7,3,0.6,3.1L0.5,3.1L0.4,3.1C0.3,3,0.2,3,0.1,3.1 C0,3.2,0,3.3,0.1,3.4l0.1,0.1L0.1,3.6C0,3.7,0,3.8,0.1,3.9C0.1,4,0.2,4,0.3,4c0.1,0,0.1,0,0.2-0.1l0.1-0.1l0.1,0.1 C0.6,4,0.7,4,0.7,4s0.1,0,0.2-0.1C1,3.9,1,3.8,1,3.7C1,3.7,1,3.6,0.9,3.5L0.9,3.5z"></path>
<path d="M1.9,3.6L1.9,3.6V3.4C2,3.3,2,3.2,1.9,3.1C1.8,3,1.7,3,1.6,3.1L1.5,3.1L1.4,3.1C1.3,3,1.2,3,1.1,3.1 C1,3.1,1,3.2,1,3.3s0,0.1,0.1,0.2l0.1,0.1L1.1,3.6C1,3.6,1,3.7,1,3.7c0,0.1,0,0.1,0.1,0.2C1.1,4,1.2,4,1.3,4c0.1,0,0.1,0,0.2-0.1 l0.1-0.1l0.1,0.1C1.6,4,1.7,4,1.7,4s0.1,0,0.2-0.1C2,3.8,2,3.7,1.9,3.6z"></path>
<path d="M4.9,3.6L4.9,3.6V3.4C5,3.3,5,3.2,4.9,3.1C4.8,3,4.7,3,4.6,3.1L4.5,3.1L4.4,3.1C4.3,3,4.2,3,4.1,3.1 C4,3.2,4,3.3,4.1,3.4l0.1,0.1L4.1,3.6C4,3.7,4,3.8,4.1,3.9C4.1,4,4.2,4,4.3,4c0.1,0,0.1,0,0.2-0.1l0.1-0.1l0.1,0.1 C4.6,4,4.7,4,4.7,4s0.1,0,0.2-0.1C5,3.8,5,3.7,4.9,3.6z"></path>
<path d="M5.9,4.1C5.8,4,5.7,4,5.6,4.1L5.5,4.1L5.4,4.1C5.3,4,5.2,4,5.1,4.1C5,4.2,5,4.3,5.1,4.4l0.1,0.1L5.1,4.6 C5,4.7,5,4.8,5.1,4.9C5.1,5,5.2,5,5.3,5c0.1,0,0.1,0,0.2-0.1l0.1-0.1l0.1,0.1C5.6,5,5.7,5,5.7,5s0.1,0,0.2-0.1C6,4.8,6,4.7,5.9,4.6 L5.9,4.5l0.1-0.1C6,4.3,6,4.2,5.9,4.1z"></path>
<path d="M3.9,5.1C3.8,5,3.7,5,3.6,5.1L3.5,5.1L3.4,5.1C3.3,5,3.2,5,3.1,5.1C3,5.1,3,5.2,3,5.3s0,0.1,0.1,0.2l0.1,0.1 L3.1,5.6C3,5.6,3,5.7,3,5.7c0,0.1,0,0.1,0.1,0.2C3.1,6,3.2,6,3.3,6c0.1,0,0.1,0,0.2-0.1l0.1-0.1l0.1,0.1C3.6,6,3.7,6,3.7,6 s0.1,0,0.2-0.1C4,5.8,4,5.7,3.9,5.6L3.9,5.5l0.1-0.1C4,5.3,4,5.2,3.9,5.1z"></path>
<path d="M2.9,5.5L2.9,5.5C3,5.4,3,5.3,3,5.3s0-0.1-0.1-0.2C2.8,5,2.7,5,2.6,5.1L2.5,5.1L2.4,5.1C2.3,5,2.2,5,2.1,5.1 C2,5.2,2,5.3,2.1,5.4l0.1,0.1L2.1,5.6C2,5.7,2,5.8,2.1,5.9C2.1,6,2.2,6,2.3,6c0.1,0,0.1,0,0.2-0.1l0.1-0.1l0.1,0.1 C2.6,6,2.7,6,2.7,6s0.1,0,0.2-0.1C3,5.9,3,5.8,3,5.7C3,5.7,3,5.6,2.9,5.5L2.9,5.5z"></path>
<path d="M0.9,5.1C0.8,5,0.7,5,0.6,5.1L0.5,5.1L0.4,5.1C0.3,5,0.2,5,0.1,5.1C0,5.2,0,5.3,0.1,5.4l0.1,0.1L0.1,5.6 C0,5.7,0,5.8,0.1,5.9C0.1,6,0.2,6,0.3,6c0.1,0,0.1,0,0.2-0.1l0.1-0.1l0.1,0.1C0.6,6,0.7,6,0.7,6s0.1,0,0.2-0.1C1,5.8,1,5.7,0.9,5.6 L0.9,5.5l0.1-0.1C1,5.3,1,5.2,0.9,5.1z"></path></svg>