<?xml version="1.0" encoding="iso-8859-1"?>
<!-- Generator: Adobe Illustrator 18.0.0, SVG Export Plug-In . SVG Version: 6.00 Build 0)  -->
<!DOCTYPE svg PUBLIC "-//W3C//DTD SVG 1.1//EN" "http://www.w3.org/Graphics/SVG/1.1/DTD/svg11.dtd">
<svg xmlns="http://www.w3.org/2000/svg" xmlns:xlink="http://www.w3.org/1999/xlink" version="1.1" id="Capa_1" x="0px" y="0px" viewBox="0 0 204.376 204.376" style="enable-background:new 0 0 204.376 204.376;" xml:space="preserve" width="512px" height="512px">
<path d="M110.397,47.736V0H33.13c-2.485,0-4.5,2.015-4.5,4.5v195.376c0,2.485,2.015,4.5,4.5,4.5h138.117c2.485,0,4.5-2.015,4.5-4.5  V61.35h-51.744C116.501,61.35,110.397,55.243,110.397,47.736z M108.499,168.626h-46.5v-10h46.5V168.626z M143.499,143.626h-81.5v-10  h81.5V143.626z M143.499,118.627h-81.5v-10h81.5V118.627z M143.499,93.627h-81.5v-10h81.5V93.627z M120.397,47.736v-37.34  L164.2,51.35h-40.197C122.014,51.35,120.397,49.729,120.397,47.736z" fill="#3a81f7"/>
<g>
</g>
<g>
</g>
<g>
</g>
<g>
</g>
<g>
</g>
<g>
</g>
<g>
</g>
<g>
</g>
<g>
</g>
<g>
</g>
<g>
</g>
<g>
</g>
<g>
</g>
<g>
</g>
<g>
</g>
</svg>
