<?xml version="1.0" encoding="utf-8"?>
<!-- Generator: Adobe Illustrator 20.0.0, SVG Export Plug-In . SVG Version: 6.00 Build 0)  -->
<svg version="1.1" id="Layer_1" xmlns="http://www.w3.org/2000/svg" xmlns:xlink="http://www.w3.org/1999/xlink" x="0px" y="0px"
	 viewBox="0 0 512 512" style="enable-background:new 0 0 512 512;" xml:space="preserve">
<style type="text/css">
	.st0{fill:#EFC75E;}
	.st1{fill:#3DB39E;}
	.st2{fill:#26A6D1;}
</style>
<g>
	<path class="st0" d="M362.6,318l1.4,2.4h2.8l136.7-0.6l8.4-0.1l-4.2-7.3L346,34.1l-1.4-2.4h-2.8l-136.7,0.6l-8.4,0l4.3,7.3
		C200.9,39.6,362.6,318,362.6,318z"/>
	<path class="st1" d="M243.4,177l-1.4-2.4L171.6,54.2l-4.3-7.3l-4.2,7.3L1.4,333.6L0,336l1.4,2.4l70.4,120.4l4.3,7.3l4.2-7.3
		L242,179.4C242,179.4,243.4,177,243.4,177z"/>
	<path class="st2" d="M182,351.6h-2.8l-1.4,2.4l-69.4,119l-4.2,7.3H437l1.4-2.5l69.4-119l4.2-7.3H182z"/>
</g>
</svg>
