<?xml version="1.0" encoding="utf-8"?>
<!-- Generator: Adobe Illustrator 20.0.0, SVG Export Plug-In . SVG Version: 6.00 Build 0)  -->
<svg version="1.1" id="Capa_1" xmlns="http://www.w3.org/2000/svg" xmlns:xlink="http://www.w3.org/1999/xlink" x="0px" y="0px"
	 viewBox="0 0 512 512" style="enable-background:new 0 0 512 512;" xml:space="preserve">
<style type="text/css">
	.st0{fill:#22379D;}
</style>
<g>
	<path class="st0" d="M324.9,399.1c-47.3,0-94.7,0.7-142-0.3c-27.1-0.5-48.7-12.3-58.9-36.9c-8.2-19.7-9.9-40.2,1.1-59.8
		c8-14.2,21.1-22.8,37.3-27.3c6.5-1.8,13.2-3.4,19.9-4.4c4.2-0.6,5.1-2.5,5.9-6c5.3-24.6,15.7-46.5,38.7-61.1
		c16.4-10.4,34.8-13.2,54.1-13.1c29,0.2,50.6,13.3,68,33.8c2.7,3.3,4.8,3.7,8.9,2.2c22.9-8.7,46-9,68.2,1.6
		c17.5,8.3,30,21.5,34.7,39.9c1.8,6.8,2.2,13.9,2.7,20.8c0.3,3.6,1.5,5.1,5.3,6c29.9,7,46.4,30.4,42.8,59.4
		c-1.7,13.5-6,25.6-16.9,34.9c-8,6.8-17.6,10.3-28.3,10.4C419.2,399.3,372.1,399.2,324.9,399.1C324.9,399.2,324.9,399.1,324.9,399.1
		z"/>
	<path class="st0" d="M109.9,377.5c0.1,0-1,0.6-2.1,0.6c-15.8,0-31.9,1.4-47.5-0.6c-26.9-3.4-45.6-18-55.3-42.2
		c-10.1-25-4.9-47.7,12.9-67.8c9.5-10.7,22.7-16.3,37.1-18.9c5.6-1,7.1-3.3,6.9-8.7c-0.9-34.1,20.7-68.5,57.5-79.7
		c20.8-6.3,41.7-5.9,61.7,3.3c4.2,1.9,6.9,1.5,9.7-2.6c10.9-16,24.7-29.1,43-37.9c21-10,42.7-12.9,65.9-9
		c20.1,3.4,38.2,10.7,53.5,23.2c17.4,14.2,30,31.7,35.3,53.1c3.3,13.3,3.3,13.1-10.9,14.7c-5.5,0.6-10.9,2.4-16.1,4.3
		c-3.5,1.2-5.7,1-8.1-1.8c-21.7-25.9-50.8-35.5-84.9-32.9c-25.7,2-48.4,10.7-66.5,28.4c-14.2,13.9-23.7,30.3-28.4,49.2
		c-0.4,1.8-2.7,3.8-4.6,4.6c-10.8,4.5-22.3,7.7-32.5,13.1c-29.3,15.3-41.5,45.2-35.8,75C103,356,106.8,366.5,109.9,377.5z"/>
</g>
</svg>
