<svg width="26" height="23" viewBox="0 0 26 23" fill="none" xmlns="http://www.w3.org/2000/svg">
<path fill-rule="evenodd" clip-rule="evenodd" d="M11.2788 2.19553C8.78754 0.0662287 5.08978 -0.175666 2.55359 1.99162C-0.560254 4.66063 -0.708532 9.40554 2.05933 12.2722L11.648 22.1575C12.2411 22.8 13.279 22.8 13.8722 22.1575L23.4608 12.2722C26.2287 9.40554 26.0804 4.66063 22.9666 1.99162C20.4377 -0.16937 16.7969 0.0648435 14.2721 2.17702C14.0827 2.33539 13.8997 2.50432 13.7239 2.68359L12.7848 3.67211L11.7963 2.68359C11.6306 2.51128 11.4578 2.34853 11.2788 2.19553ZM15.2403 4.14918L12.8235 6.6932L10.2905 4.16015L10.2761 4.14525C8.47995 2.27721 5.6896 2.08683 3.92476 3.59385C1.74803 5.46086 1.63947 8.79937 3.5748 10.8058C3.57535 10.8063 3.57589 10.8069 3.57644 10.8075L12.7601 20.2751L21.9437 10.8075C21.9443 10.8069 21.9448 10.8063 21.9453 10.8058C23.8806 8.79942 23.7721 5.46103 21.5956 3.59399C19.8423 2.09667 17.0989 2.26441 15.2403 4.14918Z" fill="#CF3200"/>
</svg>
