<svg width="15" height="14" viewBox="0 0 15 14" fill="none" xmlns="http://www.w3.org/2000/svg">
<path d="M14.195 6.20721C14.4359 6.47484 14.5697 6.76924 14.5697 7.11716C14.5697 7.49185 14.4359 7.78625 14.195 8.02712L8.73527 13.4869C8.46764 13.7545 8.17324 13.8615 7.82532 13.8615C7.45063 13.8615 7.15623 13.7545 6.91536 13.4869L1.24152 7.81301C0.973885 7.57214 0.866832 7.27774 0.866832 6.90306V1.44332C0.866832 1.0954 0.973885 0.801001 1.24152 0.533367C1.48239 0.292496 1.77679 0.158679 2.15147 0.158679H7.61121C7.95913 0.158679 8.25353 0.292496 8.52116 0.533367L14.195 6.20721ZM13.5794 7.41156C13.6597 7.35803 13.7133 7.25098 13.7133 7.11716C13.7133 7.01011 13.6597 6.90306 13.5794 6.82277L7.90561 1.14892C7.82532 1.06863 7.71826 1.01511 7.61121 1.01511H2.15147C2.01766 1.01511 1.9106 1.06863 1.83031 1.14892C1.75002 1.22922 1.72326 1.33627 1.72326 1.44332V6.90306C1.72326 7.03687 1.75002 7.14393 1.85708 7.19745L7.53092 12.8713C7.58444 12.9783 7.6915 13.0051 7.82532 13.0051C7.93237 13.0051 8.03942 12.9783 8.11971 12.8713L13.5794 7.41156ZM4.72076 3.47734C4.56018 3.47734 4.45313 3.53087 4.34607 3.63792C4.23902 3.74497 4.18549 3.87879 4.18549 4.01261C4.18549 4.17319 4.23902 4.28024 4.34607 4.3873C4.45313 4.49435 4.56018 4.54788 4.72076 4.54788C4.85458 4.54788 4.9884 4.49435 5.09545 4.3873C5.2025 4.28024 5.25603 4.17319 5.25603 4.01261C5.25603 3.87879 5.2025 3.74497 5.09545 3.63792C4.9884 3.53087 4.85458 3.47734 4.72076 3.47734ZM4.72076 2.72797C5.06869 2.72797 5.36308 2.86178 5.63072 3.10265C5.87159 3.37029 6.0054 3.66468 6.0054 4.01261C6.0054 4.3873 5.87159 4.68169 5.63072 4.92256C5.36308 5.1902 5.06869 5.29725 4.72076 5.29725C4.34607 5.29725 4.05168 5.1902 3.81081 4.92256C3.54317 4.68169 3.43612 4.3873 3.43612 4.01261C3.43612 3.66468 3.54317 3.37029 3.81081 3.10265C4.05168 2.86178 4.34607 2.72797 4.72076 2.72797Z" fill="#06429E"/>
</svg>
