<svg width="13" height="14" viewBox="0 0 13 14" fill="none" xmlns="http://www.w3.org/2000/svg">
<path d="M12.6991 11.1724C12.6991 10.4765 12.4315 9.86097 11.9497 9.35247C11.4412 8.87073 10.8257 8.60309 10.1298 8.60309C9.75513 8.60309 9.38044 8.68338 9.05928 8.84396C8.73812 9.00454 8.44372 9.19189 8.20285 9.45952L5.66033 7.88048C5.76738 7.55932 5.84767 7.23816 5.84767 6.89024C5.84767 6.56908 5.76738 6.22115 5.66033 5.89999L8.20285 4.32095C8.44372 4.58858 8.73812 4.80269 9.05928 4.96327C9.38044 5.12385 9.75513 5.17738 10.1298 5.17738C10.8257 5.17738 11.4412 4.93651 11.9497 4.428C12.4315 3.94626 12.6991 3.3307 12.6991 2.60809C12.6991 1.91224 12.4315 1.29669 11.9497 0.788181C11.4412 0.30644 10.8257 0.0388062 10.1298 0.0388062C9.4072 0.0388062 8.79165 0.30644 8.30991 0.788181C7.8014 1.29669 7.56053 1.91224 7.56053 2.60809C7.56053 2.95602 7.61406 3.27718 7.74787 3.59834L5.20535 5.17738C4.93772 4.90974 4.64332 4.7224 4.32216 4.56182C4.001 4.40124 3.65307 4.32095 3.27839 4.32095C2.55577 4.32095 1.94022 4.58858 1.45848 5.07033C0.949971 5.57883 0.7091 6.19439 0.7091 6.89024C0.7091 7.61285 0.949971 8.22841 1.45848 8.71015C1.94022 9.21865 2.55577 9.45952 3.27839 9.45952C3.65307 9.45952 4.001 9.406 4.32216 9.24542C4.64332 9.08483 4.93772 8.87073 5.20535 8.60309L7.74787 10.1821C7.61406 10.5033 7.56053 10.8512 7.56053 11.1724C7.56053 11.895 7.8014 12.5105 8.30991 12.9923C8.79165 13.5008 9.4072 13.7417 10.1298 13.7417C10.8257 13.7417 11.4412 13.5008 11.9497 12.9923C12.4315 12.5105 12.6991 11.895 12.6991 11.1724ZM10.1298 0.895235C10.5848 0.895235 10.9862 1.08258 11.3342 1.40374C11.6553 1.75166 11.8427 2.15311 11.8427 2.60809C11.8427 3.08983 11.6553 3.49128 11.3342 3.81245C10.9862 4.16037 10.5848 4.32095 10.1298 4.32095C9.64808 4.32095 9.24662 4.16037 8.92546 3.81245C8.57754 3.49128 8.41696 3.08983 8.41696 2.60809C8.41696 2.15311 8.57754 1.75166 8.92546 1.40374C9.24662 1.08258 9.64808 0.895235 10.1298 0.895235ZM3.27839 5.17738C3.73336 5.17738 4.13482 5.36472 4.48274 5.68588C4.8039 6.03381 4.99124 6.43526 4.99124 6.89024C4.99124 7.37198 4.8039 7.77343 4.48274 8.09459C4.13482 8.44251 3.73336 8.60309 3.27839 8.60309C2.79665 8.60309 2.39519 8.44251 2.07403 8.09459C1.72611 7.77343 1.56553 7.37198 1.56553 6.89024C1.56553 6.43526 1.72611 6.03381 2.07403 5.68588C2.39519 5.36472 2.79665 5.17738 3.27839 5.17738ZM10.1298 9.45952C10.5848 9.45952 10.9862 9.64687 11.3342 9.96803C11.6553 10.316 11.8427 10.7174 11.8427 11.1724C11.8427 11.6541 11.6553 12.0556 11.3342 12.3767C10.9862 12.7247 10.5848 12.8852 10.1298 12.8852C9.64808 12.8852 9.24662 12.7247 8.92546 12.3767C8.57754 12.0556 8.41696 11.6541 8.41696 11.1724C8.41696 10.7174 8.57754 10.316 8.92546 9.96803C9.24662 9.64687 9.64808 9.45952 10.1298 9.45952Z" fill="#06429E"/>
</svg>
