<?xml version="1.0" encoding="utf-8"?>
<!-- Generator: Adobe Illustrator 25.4.1, SVG Export Plug-In . SVG Version: 6.00 Build 0)  -->
<svg version="1.1" id="Layer_1" xmlns="http://www.w3.org/2000/svg" xmlns:xlink="http://www.w3.org/1999/xlink" x="0px" y="0px"
	 viewBox="0 0 1177 419.8" style="enable-background:new 0 0 1177 419.8;" xml:space="preserve">
<style type="text/css">
	.st0{fill:#07080C;}
	.st1{fill:#A8B2BB;}
</style>
<g>
	<path class="st0" d="M267.2,138.2h35.3l-32.3,151.5h-35.3L267.2,138.2z M298.2,77c12.1,0,19.7,9.7,17,21.5
		c-2.5,11.9-14.3,21.3-26.1,21.3c-12.1,0-19.4-9.4-17-21.3C274.7,86.7,286.3,77,298.2,77z"/>
	<path class="st0" d="M305.2,238.7h35.3c-3.5,16.7,5.1,23.7,18.6,23.7c15.9,0,23.2-7.5,25.1-16.2c2.3-10.9-9.2-14.7-23-19.2
		c-19.7-6.5-44-14.3-39.5-46c3.7-28.1,27-44.8,60.6-44.8c36.6,0,56.1,17.2,48.8,51.7h-34.8c4.1-17-4.6-21.5-17.5-21.5
		c-12.4,0-20.5,5.4-22.4,14.6c-2.7,12.3,10.4,15.9,25.4,20.5c19.5,6.1,42.4,13.9,38,45c-4.1,29.7-27.2,45.8-64.2,45.8
		C319.2,292.4,298.2,272.4,305.2,238.7z"/>
	<path class="st0" d="M473.4,138.2h35.3l-32.4,151.5H441L473.4,138.2z M504.4,77c12.1,0,19.7,9.7,17,21.5
		c-2.5,11.9-14.3,21.3-26.1,21.3c-12.1,0-19.4-9.4-17-21.3C481,86.7,492.5,77,504.4,77z"/>
	<path class="st0" d="M526.5,233.6l13.5-64.2h-14.6l5.9-28.6c19.7,0,28.3-8.4,33.7-33.4h23.8l-6.5,30.7h28.1l-7,31.3h-28.1l-13.7,65
		c-4.6,21.5,0.6,28.8,23.2,25.1l-7,31.5C535.2,296,517.7,275.6,526.5,233.6z"/>
</g>
<path class="st1" d="M622.2,138.2h35.6l1.9,97.9l42.8-97.9h31l1.9,98.1l43.2-98.1h37.2l-72.6,151.5h-34.5l-1.9-94.4l-41.3,94.4
	h-36.1L622.2,138.2z"/>
<path class="st1" d="M837.1,138.2h33.2l-3.5,16.4c3.2-5.1,14.3-18.9,37.7-18.9c24.3,0,43.4,21.5,36.1,55.8l-9.4,44.2
	c-8.3,38.6-27.2,55.5-54.7,55.5c-23.7,0-33.2-15.4-33.2-15.4L829,342.6h-35.9L837.1,138.2z M869.7,259.7c13.5,0,22.1-8.7,26.1-27
	l8.6-38.6c4.1-18.5-4.8-27.2-17.8-27.2s-22.2,8.6-26.1,27.2l-8.4,39.3C848.3,251.7,857.3,259.7,869.7,259.7z"/>
</svg>
