<?xml version="1.0" encoding="utf-8"?>
<!-- Generator: Adobe Illustrator 25.4.1, SVG Export Plug-In . SVG Version: 6.00 Build 0)  -->
<svg version="1.1" id="Layer_1" xmlns="http://www.w3.org/2000/svg" xmlns:xlink="http://www.w3.org/1999/xlink" x="0px" y="0px"
	 viewBox="0 0 1177 419.8" style="enable-background:new 0 0 1177 419.8;" xml:space="preserve">
<style type="text/css">
	.st0{fill:#1A232A;}
</style>
<g>
	<path class="st0" d="M22,196.6c0.2-1.7,1.8-2.9,3.3-2.9h2.9c0.9,0,2.6,0.7,3.1,1.8L74.1,275h0.4l42.7-79.5c0.6-1.1,2.2-1.8,3.1-1.8
		h2.9c1.5,0,3.1,1.3,3.3,2.9l20.8,123.6c0.4,2.4-1.3,4-3.5,4h-21.7c-1.7,0-3.3-1.5-3.5-2.9l-8.3-56.9H110L79,324.1
		c-0.6,1.1-2.2,2-3.1,2h-3.3c-1.1,0-2.6-0.9-3.1-2l-31.1-59.6H38l-8.1,56.9c-0.2,1.5-1.7,2.9-3.5,2.9H4.7c-2.2,0-3.9-1.7-3.5-4
		L22,196.6z"/>
	<path class="st0" d="M170.9,199c0-1.8,1.5-3.5,3.5-3.5h76.2c2,0,3.5,1.7,3.5,3.5v20.1c0,1.8-1.5,3.5-3.5,3.5h-51v22.8h41.9
		c1.8,0,3.5,1.7,3.5,3.5v20.1c0,2-1.7,3.5-3.5,3.5h-41.9v24.8h51c2,0,3.5,1.7,3.5,3.5v20c0,1.8-1.5,3.5-3.5,3.5h-76.2
		c-2,0-3.5-1.7-3.5-3.5V199z"/>
	<path class="st0" d="M291.4,196.6c0.2-1.7,1.8-2.9,3.3-2.9h2.9c0.9,0,2.6,0.7,3.1,1.8l42.7,79.5h0.4l42.7-79.5
		c0.5-1.1,2.2-1.8,3.1-1.8h2.9c1.5,0,3.1,1.3,3.3,2.9l20.8,123.6c0.4,2.4-1.3,4-3.5,4h-21.7c-1.7,0-3.3-1.5-3.5-2.9l-8.3-56.9h-0.4
		l-30.9,59.6c-0.5,1.1-2.2,2-3.1,2H342c-1.1,0-2.6-0.9-3.1-2l-31.1-59.6h-0.4l-8.1,56.9c-0.2,1.5-1.7,2.9-3.5,2.9h-21.7
		c-2.2,0-3.9-1.7-3.5-4L291.4,196.6z"/>
	<path class="st0" d="M440.2,199c0-1.8,1.5-3.5,3.5-3.5h42.9c21.7,0,39.6,14.9,39.6,34.2c0,14.2-12.7,24.5-21.3,29.1
		c9.8,4,24.6,13.1,24.6,30c0,20.6-18.2,35.5-40.1,35.5h-45.6c-2,0-3.5-1.7-3.5-3.5L440.2,199L440.2,199z M483.3,247.8
		c7,0,12.9-5.9,12.9-13.2s-5.9-12.5-12.9-12.5h-14.4v25.8H483.3z M485.7,298c7.2,0,13.2-5.9,13.2-13.4c0-7.4-7.9-12.9-15.1-12.9
		h-14.9V298H485.7z"/>
	<path class="st0" d="M552.8,199c0-1.8,1.5-3.5,3.5-3.5h76.2c2,0,3.5,1.7,3.5,3.5v20.1c0,1.8-1.5,3.5-3.5,3.5h-51v22.8h42
		c1.8,0,3.5,1.7,3.5,3.5v20.1c0,2-1.7,3.5-3.5,3.5h-42v24.8h51c2,0,3.5,1.7,3.5,3.5v20c0,1.8-1.5,3.5-3.5,3.5h-76.2
		c-2,0-3.5-1.7-3.5-3.5V199z"/>
	<path class="st0" d="M660.6,199c0-1.8,1.5-3.5,3.5-3.5h55c22.1,0,40.1,17.9,40.1,39.7c0,16.9-11.2,30.5-27.2,37l25.2,46.7
		c1.3,2.4,0,5.3-3.1,5.3h-24.5c-1.5,0-2.6-0.9-2.9-1.7l-24.5-48.8h-12.7v46.9c0,1.8-1.7,3.5-3.5,3.5h-21.9c-2,0-3.5-1.7-3.5-3.5
		L660.6,199L660.6,199z M716.7,250.5c7.5,0,14-7,14-14.7s-6.4-14-14-14h-27.2v28.7H716.7z"/>
	<path class="st0" d="M776.5,306.8l8.7-15.3c1.5-2.4,5-2,6.3-1.1c0.7,0.4,14,10.1,26.1,10.1c7.4,0,12.7-4.6,12.7-11
		c0-7.7-6.4-13.6-19-18.6c-15.8-6.3-35.7-18.6-35.7-40.7c0-18.2,14.2-36.6,42.5-36.6c19.1,0,33.8,9.8,39.4,13.8
		c2.2,1.3,1.8,4.6,1.1,5.9l-9.4,14.2c-1.3,2-4.6,3.7-6.3,2.4c-1.7-0.9-15.1-11-26.3-11c-6.6,0-11.6,4.4-11.6,9.4
		c0,6.8,5.5,12,20,17.9c14.3,5.7,37.2,16.9,37.2,42c0,19-16.4,38.1-43.4,38.1c-23.9,0-37.2-9.9-41.4-14.2
		C775.6,310.1,775.1,309.4,776.5,306.8z"/>
	<path class="st0" d="M884.7,199c0-1.8,1.7-3.5,3.5-3.5h21.9c2,0,3.5,1.7,3.5,3.5v46.4h52.6V199c0-1.8,1.5-3.5,3.5-3.5h21.9
		c1.8,0,3.5,1.7,3.5,3.5v121.8c0,1.8-1.7,3.5-3.5,3.5h-21.9c-2,0-3.5-1.7-3.5-3.5v-48.4h-52.6v48.4c0,1.8-1.5,3.5-3.5,3.5h-21.9
		c-1.8,0-3.5-1.7-3.5-3.5L884.7,199L884.7,199z"/>
	<path class="st0" d="M1026.8,199c0-1.8,1.7-3.5,3.5-3.5h22.1c1.8,0,3.5,1.7,3.5,3.5v121.8c0,1.8-1.7,3.5-3.5,3.5h-22.1
		c-1.8,0-3.5-1.7-3.5-3.5V199z"/>
	<path class="st0" d="M1087.5,199c0-1.8,1.5-3.5,3.5-3.5h44.3c22.6,0,41.2,18.4,41.2,40.7c0,22.8-18.6,41.4-41,41.4h-19.3v43.2
		c0,1.8-1.7,3.5-3.5,3.5h-21.7c-2,0-3.5-1.7-3.5-3.5L1087.5,199L1087.5,199z M1133.6,250.7c7.9,0,14.5-6.2,14.5-14.5
		c0-7.7-6.6-13.6-14.5-13.6h-17.5v28.1L1133.6,250.7L1133.6,250.7z"/>
</g>
<path class="st0" d="M518,0h21.7l48.8,38.4L637.2,0H659v64.8h-21.8V27l-48.7,37.8L539.8,27v51.3h97.5H659c-0.7,3-3,11.1-8.3,21.8
	c-9.1,18.3-27.2,44.3-62.3,65.8c-22.4-13.7-37.8-29.3-48.5-43.5c-3.3-4.5-6.2-8.8-8.6-12.9h9.3h14.8h33.6h17.6
	c-3.2,4.2-7,8.5-11.5,12.9h-6.2H567c5.9,5.6,13,11.3,21.5,16.5c20.2-12.4,32.3-27,39.4-38.8h-78.8h-22.9
	c-5.3-10.7-7.6-18.8-8.3-21.8h0L518,0L518,0z"/>
<g>
	<path class="st0" d="M369.9,417.7l28.3-64c0.2-0.4,0.6-0.6,1.1-0.6h0.3c0.5,0,0.9,0.1,1.2,0.6l28.1,64c0.2,0.5,0.2,1.1-0.8,1.1
		h-2.4c-0.6,0-1.1-0.5-1.3-0.8l-7.5-16.9h-35.1l-7.4,16.9c-0.2,0.4-0.6,0.8-1.3,0.8h-2.6C369.9,418.9,369.6,418.5,369.9,417.7z
		 M415.3,397.5l-15.7-37.1h-0.2l-16,37.1H415.3z"/>
	<path class="st0" d="M467.5,353.5c9.4,0,16.4,3.1,22.4,8.6c0.5,0.5,0.5,1.2,0.1,1.7l-1.5,1.6c-0.5,0.5-1,0.5-1.6-0.1
		c-5.2-4.7-11.9-7.5-19.4-7.5c-16.1,0-28.7,13.2-28.7,29.1c0,15.8,12.6,28.9,28.7,28.9c7.9,0,13.9-3.1,19.4-7.7
		c0.5-0.5,1.1-0.5,1.5-0.2l1.6,1.6c0.5,0.4,0.5,1.1,0,1.6c-6.3,6.1-14.3,8.9-22.5,8.9c-18.4,0-33.3-14.5-33.3-33
		C434.2,368.3,449.1,353.5,467.5,353.5z"/>
	<path class="st0" d="M495.6,417.7l28.3-64c0.2-0.4,0.6-0.6,1.1-0.6h0.3c0.5,0,0.9,0.1,1.2,0.6l28.1,64c0.2,0.5,0.2,1.1-0.8,1.1
		h-2.4c-0.6,0-1.1-0.5-1.3-0.8l-7.5-16.9h-35.1l-7.4,16.9c-0.2,0.4-0.6,0.8-1.3,0.8h-2.6C495.6,418.9,495.4,418.5,495.6,417.7z
		 M541.1,397.5l-15.7-37.1h-0.2l-16,37.1H541.1z"/>
	<path class="st0" d="M564.9,355.6c0-0.6,0.5-1.2,1.1-1.2h19.5c17.8,0,32.4,14.4,32.4,32.1c0,17.9-14.5,32.3-32.4,32.3H566
		c-0.5,0-1.1-0.5-1.1-1.2V355.6z M584.8,414.9c16.1,0,28.5-12.2,28.5-28.3c0-15.9-12.4-28.1-28.5-28.1h-15.5v56.5L584.8,414.9
		L584.8,414.9z"/>
	<path class="st0" d="M632.8,355.6c0-0.6,0.5-1.2,1.2-1.2h36.9c0.6,0,1.2,0.5,1.2,1.2v1.6c0,0.6-0.5,1.2-1.2,1.2h-33.7v25.4h29.2
		c0.6,0,1.2,0.5,1.2,1.2v1.6c0,0.6-0.5,1.2-1.2,1.2h-29.2V415h33.7c0.6,0,1.2,0.5,1.2,1.2v1.5c0,0.6-0.5,1.2-1.2,1.2H634
		c-0.6,0-1.2-0.5-1.2-1.2L632.8,355.6L632.8,355.6z"/>
	<path class="st0" d="M695.7,354.2c0.1-0.4,0.5-0.6,0.8-0.6h1c0.5,0,0.7,0.2,0.9,0.6l19,56.5c0.1,0,0.1,0,0.2,0l19-56.5
		c0.2-0.5,0.5-0.6,0.9-0.6h1c0.4,0,0.7,0.3,0.8,0.6l13.1,63.5c0.2,0.9-0.2,1.2-1,1.2h-2.2c-0.5,0-1-0.5-1.1-1l-10.4-53.9
		c-0.1,0-0.2,0-0.2,0L719,419c-0.2,0.5-0.7,0.7-1.3,0.7h-0.4c-0.5,0-1-0.1-1.2-0.7l-18.6-55.1c0,0-0.1,0-0.2,0L687,417.8
		c-0.1,0.5-0.5,1-1.1,1h-2.2c-0.8,0-1.2-0.3-1-1.2L695.7,354.2z"/>
	<path class="st0" d="M778.7,387.6l-23.5-31.7c-0.5-0.7-0.2-1.4,0.7-1.4h2.8c0.5,0,0.9,0.2,1.2,0.5l21,28.6l21.3-28.6
		c0.3-0.4,0.7-0.5,1.2-0.5h2.8c0.9,0,1.3,0.6,0.7,1.4L783,387.5v30.2c0,0.6-0.5,1.2-1.2,1.2c-1.2,0-3.1,0.3-3.1-1.2V387.6z"/>
</g>
<rect x="844" y="390" class="st0" width="333" height="3"/>
<rect y="390" class="st0" width="333" height="3"/>
</svg>
