<svg width="84" height="14" viewBox="0 0 84 14" fill="none" xmlns="http://www.w3.org/2000/svg">
<path d="M16.8291 5.12016L11.072 4.69489L8.82203 0.154053L6.57204 4.70175L0.814941 5.12016L5.18681 8.3646L3.87365 13.1867L8.82203 10.6282L13.7704 13.1867L12.4653 8.3646L16.8291 5.12016Z" fill="#FFA500"/>
<path d="M32.8433 5.12016L27.446 4.69489L25.3367 0.154053L23.2273 4.70175L17.83 5.12016L21.9286 8.3646L20.6976 13.1867L25.3367 10.6282L29.9758 13.1867L28.7522 8.3646L32.8433 5.12016Z" fill="#FFA500"/>
<path d="M49.8584 5.12016L44.8209 4.69489L42.8522 0.154053L40.8834 4.70175L35.846 5.12016L39.6714 8.3646L38.5223 13.1867L42.8522 10.6282L47.182 13.1867L46.04 8.3646L49.8584 5.12016Z" fill="#FFA500"/>
<path d="M65.8726 5.12016L60.8351 4.69489L58.8664 0.154053L56.8976 4.70175L51.8602 5.12016L55.6855 8.3646L54.5365 13.1867L58.8664 10.6282L63.1962 13.1867L62.0542 8.3646L65.8726 5.12016Z" fill="#FFA500"/>
<path d="M83.8885 5.12016L78.4912 4.69489L76.3819 0.154053L74.2725 4.70175L68.8752 5.12016L72.9739 8.3646L71.7428 13.1867L76.3819 10.6282L81.021 13.1867L79.7974 8.3646L83.8885 5.12016Z" fill="#FFA500"/>
</svg>
