<svg width="17" height="16" viewBox="0 0 17 16" fill="none" xmlns="http://www.w3.org/2000/svg">
<path d="M9.49219 8.18994L15.9141 14.6118C16.0078 14.7524 16.0547 14.8931 16.0547 15.0337C16.0547 15.2212 16.0078 15.3149 15.9141 15.4087L15.4922 15.8306C15.3984 15.9243 15.2578 15.9712 15.1172 15.9712C14.9297 15.9712 14.7891 15.9243 14.6953 15.8306L8.27344 9.36182L1.85156 15.8306C1.71094 15.9243 1.57031 15.9712 1.42969 15.9712C1.24219 15.9712 1.14844 15.9243 1.05469 15.8306L0.632812 15.4087C0.539062 15.3149 0.492188 15.2212 0.492188 15.0337C0.492188 14.8931 0.539062 14.7524 0.632812 14.6118L7.10156 8.18994L0.632812 1.76807C0.539062 1.67432 0.492188 1.53369 0.492188 1.34619C0.492188 1.20557 0.539062 1.06494 0.632812 0.971191L1.05469 0.549316C1.14844 0.455566 1.24219 0.408691 1.42969 0.408691C1.57031 0.408691 1.71094 0.455566 1.85156 0.549316L8.27344 6.97119L14.6953 0.549316C14.7891 0.455566 14.9297 0.408691 15.1172 0.408691C15.2578 0.408691 15.3984 0.455566 15.4922 0.549316L15.9141 0.971191C16.0078 1.06494 16.0547 1.20557 16.0547 1.34619C16.0547 1.53369 16.0078 1.67432 15.9141 1.76807L9.49219 8.18994Z" fill="#333333"/>
</svg>
