<?xml version="1.0" encoding="utf-8"?>
<!-- Generator: Adobe Illustrator 25.4.1, SVG Export Plug-In . SVG Version: 6.00 Build 0)  -->
<svg version="1.1" id="Layer_1" xmlns="http://www.w3.org/2000/svg" xmlns:xlink="http://www.w3.org/1999/xlink" x="0px" y="0px"
	 viewBox="0 0 1177 419.8" style="enable-background:new 0 0 1177 419.8;" xml:space="preserve">
<style type="text/css">
	.st0{fill:#141B21;}
	.st1{fill:#82909B;}
</style>
<path class="st0" d="M986.3,156.2c-15.2,0-27.3,7.4-32.5,19.5h-0.4v-14.8c0-1.3-0.9-2.2-2.2-2.2H949c-1.3,0-2.2,0.9-2.2,2.2v101.3
	c0,1.3,0.9,2.2,2.2,2.2h2.2c1.3,0,2.2-0.9,2.2-2.2v-66.7c0-20.8,14.8-32.9,32.5-32.9c20.3,0,30.8,10.8,30.8,36v63.3
	c0,1.3,0.9,2.2,2.2,2.2h2.6c1.3,0,2.2-0.9,2.2-2.2v-65C1023.6,169.6,1010.2,156.2,986.3,156.2z M908.8,158.7h-2.2
	c-1.3,0-2.2,0.9-2.2,2.2v101c0,1.3,0.9,2.2,2.2,2.2h2.2c1.3,0,2.2-0.9,2.2-2.2v-101C911,159.6,910.1,158.7,908.8,158.7z
	 M910.1,112.8h-5.2c-1.3,0-2.2,0.9-2.2,2.2v8.7c0,1.3,0.9,2.2,2.2,2.2v0.5h5.2c1.3,0,2.2-0.9,2.2-2.2V115
	C912.3,113.7,911.4,112.8,910.1,112.8z M1090.4,155.8c-17.8,0-31.6,9.1-37.3,26.8c-1.7,6-3,13.9-3,28.2c0,14.7,0.8,22.1,3,28.2
	c5.6,18.2,19.1,27.3,38.6,27.4c16.5,0,29-7.4,36.4-17.8c0.9-0.8,0.9-2.1-0.4-3l-1.3-1.3c-0.8-0.9-2.1-0.9-3,0.4
	c-6.5,8.7-17.3,15.2-32.1,15.2c-15.6,0-27.3-6.9-32.5-23c-1.7-5.6-2.6-12.1-2.6-23.8c0-0.8,0.4-1.7,1.3-1.7h70.6
	c1.7,0,2.6-0.9,2.6-2.2c0-13.4-0.8-20.4-3-26.4C1122,164.9,1108.6,155.8,1090.4,155.8z M1122.9,205.1h-65.1c-0.9,0-1.3-0.4-1.3-1.3
	c0-7.8,0.9-13.4,2.6-18.6c4.8-15.6,16.1-23,31.2-23c15.2,0,26.5,7.8,31.2,23c1.7,5.2,2.6,11.3,2.6,18.6
	C1124.2,204.7,1123.7,205.1,1122.9,205.1z M501,154h-45.1c-0.8,0-1.7,0.8-1.7,1.7v109.2c0,0.8,0.8,1.7,1.7,1.7v-0.4h26
	c0.8,0,1.7-0.8,1.7-1.7v-34.7c0-0.5,0-0.9,0.9-0.9H501c27.3,0,41.6-16,41.6-37.7S528.3,154,501,154z M499.2,204.3h-14.8
	c-0.5,0-0.9,0-0.9-0.9V180c0-0.5,0-0.9,0.9-0.9h14.8c9.1,0,14.3,4.7,14.3,12.6C513.5,199,508.3,204.3,499.2,204.3z M1156.7,156.2
	c-7.4,0-13,5.6-13,13s5.6,13,13,13s13-5.6,13-13S1164,156.2,1156.7,156.2z M1156.7,180c-6.1,0-10.8-4.3-10.8-10.8
	c0-6.1,4.3-10.8,10.8-10.8c6.1,0,10.8,4.3,10.8,10.8C1167.5,175.6,1162.8,180,1156.7,180z M1159.3,170.5c2.1-0.4,3-2.2,3-3.9
	c0-2.6-1.7-4.3-4.7-4.3h-5.2c-0.4,0-0.4,0-0.4,0.4v13.4c0,0.4,0,0.4,0.4,0.4l0,0h0.9c0,0,0.4,0,0.4-0.4v-5.2h3l3,5.6
	c0.5,0,0.5,0.4,0.9,0.4h1.3c0.4,0,0.8-0.5,0.4-0.9L1159.3,170.5z M1154,168.2v-4.3h3.5c1.7,0,2.6,0.9,2.6,2.2s-0.8,2.2-2.6,2.1H1154
	z M866.3,159.1h-2.2c-1.3,0-2.2,0.9-2.2,2.2v15.2h-0.4c-5.2-11.7-14.3-19.9-32.9-19.9c-17.7,0-29.9,9.5-35.1,25.1
	c-2.2,7.4-3.5,16.9-3.5,29.9s0.9,22.6,3.5,29.9c5.2,15.6,17.3,25.1,35.1,25.1c18.7,0,27.7-8.2,32.9-19.9h0.4v17.8
	c0,26-13,36-32.9,36c-13,0-22.1-4.7-28.2-12.6c-0.8-1.3-1.7-1.8-3-0.9l-1.7,1.3c-1.3,0.4-1.3,1.7-0.4,3c5.2,8.2,17.7,15.2,32.9,15.5
	c24.3,0,39.9-13,39.9-42V161.3C868.5,160,867.6,159.1,866.3,159.1z M858.9,238.9c-4.7,15.6-16.4,21.2-29.5,20.4
	c-14.3,0-24.3-6.9-29-20.8c-2.2-6.5-3.5-15.6-3.5-27.7c0-12.1,1.3-21.2,3.5-27.7c4.3-13.9,14.8-20.8,29-20.8
	c13,0,24.2,5.6,29.5,21.2c2.1,6.5,3,14.8,3,27.7C862,224.6,861.1,232.4,858.9,238.9z M432.9,154h-27.3c-1.3,0-2.2,0.8-2.2,1.7
	l-13.9,65.4h-0.4l-18.2-65.4c-0.5-1.3-0.9-1.7-2.2-1.7h-16.9c-1.3,0-1.8,0.4-2.2,1.7l-17.4,65.4h-0.4l-14.3-65.4
	c0-0.8-0.9-1.7-2.2-1.7H288c-1.3,0-1.3,0.8-1.3,1.7L317,264.9c0.5,1.3,0.9,1.7,2.2,1.7H340c1.3,0,1.8-0.4,2.2-1.7l17.8-62.8h0.4
	l17.8,62.8c0.5,1.3,0.9,1.7,2.2,1.7h21.2c1.3,0,1.8-0.4,2.2-1.7l30.3-109.2C434.2,154.9,433.8,154,432.9,154z M726.7,156.2
	c-15.2,0-27.3,7.4-32.5,19.5h-0.4v-14.8c0-1.3-0.9-2.2-2.2-2.2h-2.2c-1.3,0-2.2,0.9-2.2,2.2v101.3c0,1.3,0.9,2.2,2.2,2.2h2.2
	c1.3,0,2.2-0.9,2.2-2.2v-66.7c0-20.8,14.8-32.9,32.5-32.9c20.3,0,30.8,10.8,30.8,36v63.3c0,1.3,0.9,2.2,2.2,2.2l0,0h2.6
	c1.3,0,2.2-0.9,2.2-2.2v-65C764,169.6,750.6,156.2,726.7,156.2z M618.4,155.8c-17.8,0-31.6,9.1-37.3,26.8c-1.7,6-3,13.9-3,28.2
	c0,14.7,0.8,22.1,3,28.2c6.1,18.2,19.1,27.3,38.6,27.4c16.5,0,29-7.4,36.4-17.8c0.9-0.8,0.9-2.1-0.4-3l-1.3-1.3
	c-0.8-0.9-2.1-0.9-3,0.4c-6.5,8.7-17.3,15.2-32.1,15.2c-15.6,0-27.3-6.9-32.5-23c-1.7-5.6-2.6-12.1-2.6-23.8c0-0.8,0.4-1.7,1.3-1.7
	h70.6c1.7,0,2.6-0.9,2.6-2.2c0-13.4-0.8-20.4-3-26.4C650,164.9,636.6,155.8,618.4,155.8z M651.3,205.1h-65.1c-0.9,0-1.3-0.4-1.3-1.3
	c0-7.8,0.9-13.4,2.6-18.6c4.8-15.6,16.1-23,31.2-23c15.2,0,26.5,7.8,31.2,23c1.7,5.2,2.6,11.3,2.6,18.6
	C652.6,204.7,652.2,205.1,651.3,205.1z"/>
<polygon class="st1" points="82.3,153.5 99.2,170.4 136,170.4 153.4,153.5 153.4,99.4 82.3,99.4 "/>
<polygon class="st1" points="157.3,191.2 157.3,228.5 174.2,245.4 228.4,245.4 228.4,174.3 174.2,174.3 "/>
<polygon class="st1" points="157.3,249.3 157.3,320.4 228.4,320.4 228.4,266.7 211.5,249.3 157.3,249.3 "/>
<polygon class="st1" points="7.3,174.3 7.3,245.4 61,245.4 78.4,228.5 78.4,174.3 78.4,174.3 "/>
<polygon class="st1" points="61.1,249.3 7.3,249.3 7.3,320.4 61,320.4 78.4,303.5 78.4,266.6 78.4,266.6 "/>
<polygon class="st1" points="78.4,99.4 24.2,99.4 7.3,116.3 7.3,170.5 78.4,170.5 "/>
<circle class="st1" cx="117.8" cy="210.4" r="10"/>
<polygon class="st1" points="99.1,249.3 82.2,266.7 82.2,320.4 82.2,320.4 153.3,320.4 153.3,266.7 136,249.3 "/>
<polygon class="st1" points="228.4,170.4 228.4,99.4 157.3,99.4 157.3,153.6 174.2,170.5 228.4,170.5 "/>
</svg>
