<?xml version="1.0" encoding="utf-8"?>
<!-- Generator: Adobe Illustrator 25.4.1, SVG Export Plug-In . SVG Version: 6.00 Build 0)  -->
<svg version="1.1" id="Layer_1" xmlns="http://www.w3.org/2000/svg" xmlns:xlink="http://www.w3.org/1999/xlink" x="0px" y="0px"
	 viewBox="0 0 1177 419.8" style="enable-background:new 0 0 1177 419.8;" xml:space="preserve">
<style type="text/css">
	.st0{fill:#28353E;}
	.st1{fill:#748491;}
</style>
<path class="st0" d="M1048.1,211.3c11.2-4.8,17-15.7,17-27.8v-3.7c0-27.8-23.4-37.4-56.8-37.4c-14.4,0-26,1.1-30.8,1.8
	c-5.9,0.9-8.3,3.3-8.3,10v116.2c0,6.8,2.8,8.8,8.8,10c5.7,1.1,17,2,31.9,2c34.3,0,56.1-10.5,56.1-39.8v-3.1
	C1066,225.5,1059.3,216.1,1048.1,211.3z M994.8,163.9c3.9-0.2,9-0.4,13.5-0.4c23.6,0,31.9,4.8,31.9,17.7v2.6
	c0,9.4-4.8,17.5-21.9,17.5h-23.4L994.8,163.9L994.8,163.9z M1040.9,242.1c0,12.9-7.4,19-31,19c-3.9,0-10.7-0.4-15.1-0.4v-40.6h23.4
	c17.3,0,22.7,9.4,22.7,19.5V242.1z M1129.1,164.3h37.6c2,0,3.7-1.7,3.7-3.7v-11.8c0-2.6-0.9-3.5-3.7-3.9c-5.9-0.9-13.1-2.6-35-2.6
	c-24,0-42.6,6.5-42.6,37.8v64.3c0,31.3,18.6,37.8,42.6,37.8c21.9,0,29.1-1.7,35-2.6c2.8-0.4,3.7-1.3,3.7-3.9v-11.8
	c0-2-1.7-3.7-3.7-3.7h-37.6c-10.7,0-14.6-3.7-14.6-15.9v-23.8h50c2,0,3.7-1.7,3.7-3.7v-13.3c0-2-1.7-3.7-3.7-3.7h-50v-19.9
	C1114.5,168,1118.4,164.3,1129.1,164.3z M824.9,146.2c0-1.3-1.1-2.2-3.5-2.2h-21c-2,0-3.3,0.2-4.2,1.5L751,206.2v-58.6
	c0-2-1.7-3.5-3.7-3.5h-18.2c-2,0-3.7,1.5-3.7,3.5v129.6c0,2,1.7,3.7,3.7,3.7h18.2c2,0,3.7-1.7,3.7-3.7V216l42.2,62.9
	c0.9,1.5,2,2,4.2,2h24.7c1.8,0,2.8-0.6,2.8-1.7c0-0.6-0.4-1.3-0.9-2.2l-47.6-66.7l47.2-61C824.4,148.3,824.9,147.2,824.9,146.2z
	 M588.5,143.8H569c-1.5,0-3,1.3-3.1,3.3l-13.3,110.1c-0.2,1.7-0.2,2.8-0.9,2.8s-0.7-1.1-1.1-2.8l-15.9-64.7
	c-1.1-4.4-3.7-8.3-11.6-8.3h-12.7c-7.9,0-10.5,3.9-11.6,8.3l-15.9,64.7c-0.4,1.7-0.4,2.8-1.1,2.8s-0.7-1.1-0.9-2.8l-13.3-110.1
	c-0.2-2-1.7-3.3-3.1-3.3H445c-1.7,0-3.1,0.9-3.1,2.6c0,0.2,0,0.4,0,0.6L459,267.4c1.7,11.6,7,14.9,16.6,14.9h10
	c8.3,0,12.7-4.1,15.3-14.8l14.6-60.8c0.4-1.7,0.6-2,1.3-2s0.7,0.4,1.1,2l14.6,60.8c2.6,10.7,7,14.8,15.3,14.8h10
	c9.6,0,14.9-3.3,16.6-14.9L591.6,147c0-0.2,0-0.4,0-0.6C591.6,144.8,590.1,143.8,588.5,143.8z M651.9,142.4
	c-13.5,0-26.6,0.9-36.1,2.4c-3.7,0.6-5.9,1.8-5.9,5.5v126.8c0,2,1.7,3.7,3.7,3.7H632c2,0,3.5-1.7,3.5-3.7V229
	c4.2,0.2,11.6,0.7,16.4,0.7c28.4,0,53.1-10.5,53.1-43.1V185C705,152.3,680.3,142.4,651.9,142.4z M679.6,186.6
	c0,14.7-7.7,22.1-27.7,22.1c-3.1,0-13.5-0.4-16.4-0.6v-43.9c3.3-0.4,12.5-0.7,16.4-0.7c18.4,0,27.7,5.9,27.7,21.4V186.6z
	 M938.7,143.8h-18.3c-2,0-3.7,1.5-3.7,3.5v82.8c0,21-5.2,31-25.1,31c-19.9,0-25.1-10-25.1-31v-82.8c0-2-1.7-3.5-3.7-3.5h-18.2
	c-2,0-3.7,1.5-3.7,3.5v82.8c0,39.3,21,52.2,50.7,52.2s50.7-12.9,50.7-52.2v-82.8C942.4,145.3,940.8,143.8,938.7,143.8z"/>
<path class="st1" d="M187.4,6.6L6.6,103.4v213.1l180.8,96.7l180.8-96.7V103.4L187.4,6.6z M187.5,34.9l142.9,76.4l-40.8,24
	L187.4,80.6L85.3,135.3l-40.7-24L187.5,34.9z M277.4,157.1V250l-77.5-39.2v-95.2L277.4,157.1z M174.9,115.5v95.2l-77.5,39.2V157
	L174.9,115.5z M175,378.2L31.6,301.5V132.6l40.9,24.1v120.9L175,332.5V378.2z M112,270.5l75.4-38.1l75.4,38.1l-75.4,40.3L112,270.5z
	 M343.3,301.5l-143.4,76.7v-45.7l102.5-54.8v-121l40.9-24.1V301.5z"/>
</svg>
