<?xml version="1.0" encoding="utf-8"?>
<!-- Svg Vector Icons : http://www.onlinewebfonts.com/icon -->
<!DOCTYPE svg PUBLIC "-//W3C//DTD SVG 1.1//EN" "http://www.w3.org/Graphics/SVG/1.1/DTD/svg11.dtd">
<svg version="1.1" xmlns="http://www.w3.org/2000/svg" xmlns:xlink="http://www.w3.org/1999/xlink" x="0px" y="0px" viewBox="0 0 1000 1000" enable-background="new 0 0 1000 1000" xml:space="preserve">
<metadata> Svg Vector Icons : http://www.onlinewebfonts.com/icon </metadata>
<g><g><path d="M500,10C229.4,10,10,229.4,10,500c0,270.7,219.4,490,490,490c270.6,0,490-219.4,490-490C990,229.4,770.6,10,500,10z M112.1,500c0-214.2,173.6-387.9,387.9-387.9c93.3,0,178.9,33,245.9,87.9L200,745.8C145.1,678.9,112.1,593.3,112.1,500L112.1,500z M500,887.8c-93.3,0-178.9-33-245.8-87.9L800,254.2c54.9,67,87.9,152.5,87.9,245.8C887.9,714.2,714.2,887.8,500,887.8L500,887.8z"/></g></g>
</svg>