<?xml version="1.0" encoding="UTF-8"?>
<svg xmlns="http://www.w3.org/2000/svg" xmlns:xlink="http://www.w3.org/1999/xlink" width="50pt" height="50pt" viewBox="0 0 50 50" version="1.1">
<g id="surface1">
<path style=" stroke:none;fill-rule:nonzero;fill:#595959;fill-opacity:1;" d="M 22.203125 2 C 21.714844 2 21.296875 2.355469 21.21875 2.835938 L 20.246094 8.792969 C 19.078125 9.132813 17.960938 9.59375 16.910156 10.164063 L 11.996094 6.65625 C 11.597656 6.371094 11.054688 6.414063 10.707031 6.757813 L 6.820313 10.644531 C 6.476563 10.988281 6.429688 11.53125 6.707031 11.925781 L 10.164063 16.875 C 9.582031 17.929688 9.113281 19.050781 8.765625 20.234375 L 2.835938 21.21875 C 2.355469 21.300781 2 21.714844 2 22.203125 L 2 27.703125 C 2 28.191406 2.347656 28.605469 2.828125 28.691406 L 8.757813 29.742188 C 9.105469 30.921875 9.574219 32.042969 10.15625 33.101563 L 6.65625 38 C 6.371094 38.394531 6.414063 38.9375 6.757813 39.285156 L 10.648438 43.175781 C 10.992188 43.519531 11.53125 43.566406 11.925781 43.289063 L 16.882813 39.820313 C 17.9375 40.394531 19.054688 40.859375 20.230469 41.203125 L 21.21875 47.164063 C 21.300781 47.644531 21.714844 48 22.203125 48 L 27.703125 48 C 28.191406 48 28.605469 47.652344 28.691406 47.171875 L 29.75 41.1875 C 30.921875 40.839844 32.035156 40.371094 33.082031 39.792969 L 38.070313 43.292969 C 38.46875 43.570313 39.007813 43.523438 39.351563 43.179688 L 43.238281 39.285156 C 43.585938 38.941406 43.628906 38.394531 43.34375 37.996094 L 39.785156 33.058594 C 40.355469 32.015625 40.8125 30.910156 41.15625 29.75 L 47.171875 28.691406 C 47.648438 28.609375 48 28.191406 48 27.707031 L 48 22.207031 C 47.996094 21.71875 47.644531 21.300781 47.160156 21.21875 L 41.152344 20.238281 C 40.808594 19.078125 40.351563 17.976563 39.78125 16.933594 L 43.289063 11.933594 C 43.566406 11.535156 43.519531 10.996094 43.175781 10.652344 L 39.285156 6.765625 C 38.941406 6.417969 38.394531 6.375 37.996094 6.660156 L 33.074219 10.203125 C 32.023438 9.625 30.910156 9.15625 29.738281 8.8125 L 28.691406 2.828125 C 28.609375 2.347656 28.191406 2 27.703125 2 Z M 23.058594 4 L 26.863281 4 L 27.859375 9.6875 C 27.929688 10.074219 28.21875 10.386719 28.605469 10.484375 C 30.066406 10.847656 31.441406 11.425781 32.691406 12.1875 C 33.035156 12.394531 33.46875 12.375 33.796875 12.140625 L 38.472656 8.78125 L 41.167969 11.472656 L 37.835938 16.21875 C 37.609375 16.542969 37.59375 16.972656 37.796875 17.3125 C 38.546875 18.5625 39.117188 19.925781 39.484375 21.378906 C 39.578125 21.769531 39.898438 22.058594 40.292969 22.125 L 46 23.058594 L 46 26.867188 L 40.28125 27.871094 C 39.890625 27.941406 39.578125 28.234375 39.484375 28.617188 C 39.121094 30.070313 38.550781 31.433594 37.800781 32.6875 C 37.59375 33.027344 37.613281 33.460938 37.84375 33.785156 L 41.222656 38.472656 L 38.53125 41.171875 L 33.792969 37.84375 C 33.464844 37.617188 33.035156 37.601563 32.699219 37.808594 C 31.449219 38.566406 30.074219 39.148438 28.617188 39.515625 C 28.234375 39.613281 27.945313 39.925781 27.875 40.3125 L 26.867188 46 L 23.050781 46 L 22.109375 40.339844 C 22.046875 39.945313 21.753906 39.628906 21.363281 39.53125 C 19.902344 39.171875 18.523438 38.59375 17.261719 37.835938 C 16.921875 37.632813 16.496094 37.648438 16.171875 37.875 L 11.46875 41.171875 L 8.773438 38.46875 L 12.097656 33.824219 C 12.328125 33.5 12.347656 33.066406 12.140625 32.722656 C 11.371094 31.457031 10.792969 30.078125 10.425781 28.609375 C 10.332031 28.226563 10.019531 27.9375 9.632813 27.867188 L 4 26.867188 L 4 23.050781 L 9.628906 22.117188 C 10.023438 22.050781 10.339844 21.757813 10.4375 21.375 C 10.804688 19.898438 11.382813 18.519531 12.144531 17.253906 C 12.351563 16.917969 12.339844 16.488281 12.109375 16.164063 L 8.828125 11.46875 L 11.523438 8.773438 L 16.1875 12.105469 C 16.507813 12.335938 16.941406 12.351563 17.28125 12.148438 C 18.535156 11.394531 19.917969 10.820313 21.386719 10.464844 C 21.773438 10.367188 22.070313 10.046875 22.132813 9.652344 Z M 25 17 C 20.59375 17 17 20.59375 17 25 C 17 29.40625 20.59375 33 25 33 C 29.40625 33 33 29.40625 33 25 C 33 20.59375 29.40625 17 25 17 Z M 25 19 C 28.324219 19 31 21.675781 31 25 C 31 28.324219 28.324219 31 25 31 C 21.675781 31 19 28.324219 19 25 C 19 21.675781 21.675781 19 25 19 Z "/>
</g>
</svg>
