<?xml version="1.0" encoding="UTF-8" standalone="no"?>
<svg
   xmlns:dc="http://purl.org/dc/elements/1.1/"
   xmlns:cc="http://creativecommons.org/ns#"
   xmlns:rdf="http://www.w3.org/1999/02/22-rdf-syntax-ns#"
   xmlns:svg="http://www.w3.org/2000/svg"
   xmlns="http://www.w3.org/2000/svg"
   viewBox="0 0 58.666668 50.666668"
   height="50.666668"
   width="58.666668"
   xml:space="preserve"
   id="svg2"
   version="1.1"><metadata
     id="metadata8"><rdf:RDF><cc:Work
         rdf:about=""><dc:format>image/svg+xml</dc:format><dc:type
           rdf:resource="http://purl.org/dc/dcmitype/StillImage" /></cc:Work></rdf:RDF></metadata><defs
     id="defs6" /><g
     transform="matrix(1.3333333,0,0,-1.3333333,0,50.666667)"
     id="g10"><g
       transform="scale(0.1)"
       id="g12"><path
         id="path14"
         style="fill:#ffffff;fill-opacity:1;fill-rule:nonzero;stroke:none"
         d="m 438.75,205.629 c 0,-28.051 -21.871,-50.789 -48.828,-50.789 v 101.57 c 26.957,0 48.828,-22.738 48.828,-50.781" /><path
         id="path16"
         style="fill:none;stroke:#ffffff;stroke-width:31.25;stroke-linecap:square;stroke-linejoin:miter;stroke-miterlimit:10;stroke-dasharray:none;stroke-opacity:1"
         d="M 110.629,268.121 H 48.1289 c -17.2695,0 -31.25,-13.98 -31.25,-31.25 v -62.5 L 45.6289,30.6992 C 47.0703,23.3594 53.5195,18.1211 60.9414,18.1211 H 95 c 9.879,0 17.27,9.0273 15.309,18.6797 L 89.0586,143.121 h 21.5704 z" /><path
         id="path18"
         style="fill:none;stroke:#ffffff;stroke-width:31.25;stroke-linecap:butt;stroke-linejoin:round;stroke-miterlimit:10;stroke-dasharray:none;stroke-opacity:1"
         d="M 118.441,268.121 H 157.5 c 156.25,0 234.379,93.75 234.379,93.75 V 49.3711 c 0,0 -78.129,93.7499 -234.379,93.7499 h -46.871" /></g></g></svg>