<?xml version="1.0" encoding="UTF-8" standalone="no"?>
<svg
   xmlns:dc="http://purl.org/dc/elements/1.1/"
   xmlns:cc="http://creativecommons.org/ns#"
   xmlns:rdf="http://www.w3.org/1999/02/22-rdf-syntax-ns#"
   xmlns:svg="http://www.w3.org/2000/svg"
   xmlns="http://www.w3.org/2000/svg"
   viewBox="0 0 58.666668 58.666668"
   height="58.666668"
   width="58.666668"
   xml:space="preserve"
   id="svg2"
   version="1.1"><metadata
     id="metadata8"><rdf:RDF><cc:Work
         rdf:about=""><dc:format>image/svg+xml</dc:format><dc:type
           rdf:resource="http://purl.org/dc/dcmitype/StillImage" /></cc:Work></rdf:RDF></metadata><defs
     id="defs6" /><g
     transform="matrix(1.3333333,0,0,-1.3333333,0,58.666667)"
     id="g10"><g
       transform="scale(0.1)"
       id="g12"><path
         id="path14"
         style="fill:none;stroke:#ffffff;stroke-width:31.25;stroke-linecap:butt;stroke-linejoin:miter;stroke-miterlimit:10;stroke-dasharray:none;stroke-opacity:1"
         d="m 391.879,220 c 0,17.578 -2.66,34.57 -7.578,50.551 l 27.5,23.551 -31.723,54.918 -34.379,-12.071 c -23,24.731 -53.16,42.66 -87.258,50.473 l -6.722,35.699 h -63.438 l -6.679,-35.699 C 147.5,379.609 117.34,361.68 94.3008,336.949 l -34.3789,12.071 -31.7227,-54.918 27.5,-23.551 C 50.7813,254.57 48.1289,237.578 48.1289,220 c 0,-17.578 2.6524,-34.57 7.5703,-50.551 l -27.5,-23.551 31.7227,-54.9175 34.3789,12.0705 C 117.301,78.3203 147.461,60.3906 181.559,52.5781 l 6.722,-35.707 h 63.438 l 6.679,35.707 c 34.102,7.8125 64.262,25.7422 87.301,50.4729 l 34.34,-12.0705 31.723,54.9175 -27.461,23.551 c 4.918,15.981 7.578,32.973 7.578,50.551 z M 220,141.871 c -43.16,0 -78.121,34.969 -78.121,78.129 0,43.16 34.961,78.121 78.121,78.121 43.16,0 78.129,-34.961 78.129,-78.121 0,-43.16 -34.969,-78.129 -78.129,-78.129 z" /></g></g></svg>