<svg width="16" height="16" viewBox="0 0 18 18" fill="none" xmlns="http://www.w3.org/2000/svg">
<g clip-path="url(#clip0)">
<path d="M11.236 17.1272H8.54757C8.15091 17.1272 7.82952 16.8058 7.82952 16.4083C7.82952 16.0116 8.15172 15.6894 8.54757 15.6894H11.236C14.1074 15.6894 16.4437 13.3532 16.4437 10.481C16.4437 7.60959 14.1074 5.27249 11.236 5.27249H2.85791L5.35714 7.77173C5.49719 7.91259 5.56762 8.09554 5.56762 8.28011C5.56762 8.46388 5.49719 8.64764 5.35714 8.78768C5.07705 9.06859 4.6221 9.06859 4.342 8.78768L0.615524 5.06364L0.613905 5.06283L0.613096 5.06121L0.611477 5.0604L0.609858 5.05878L0.609048 5.05797L0.608239 5.05716L0.60662 5.05554C0.518381 4.96488 0.457667 4.85397 0.426905 4.73578C0.41962 4.70745 0.413953 4.6783 0.409905 4.64835V4.64673C0.394524 4.5253 0.409905 4.39821 0.458477 4.28002C0.497334 4.19016 0.551572 4.11002 0.619572 4.04364L4.342 0.321209C4.62291 0.0411136 5.07705 0.0411136 5.35714 0.321209C5.63805 0.602114 5.63805 1.05626 5.35714 1.33716L2.85791 3.83721H11.236C14.8999 3.83721 17.8806 6.81868 17.8806 10.4818C17.8806 14.1465 14.8999 17.1272 11.236 17.1272Z" fill="#46AB88"/>
</g>
<defs>
<clipPath id="clip0">
<rect width="18" height="18" fill="white" transform="translate(0 18) rotate(-90)"/>
</clipPath>
</defs>
</svg>
