<svg width="100" height="100" viewBox="0 0 100 100" fill="none" xmlns="http://www.w3.org/2000/svg">
<path opacity="0.6" d="M96 0H4C1.79086 0 0 1.79086 0 4V96C0 98.2091 1.79086 100 4 100H96C98.2091 100 100 98.2091 100 96V4C100 1.79086 98.2091 0 96 0Z" fill="black"/>
<path d="M82.7048 62.8361H81.5573C80.2898 62.8361 79.2622 63.8636 79.2622 65.1312V83.4918C79.2622 84.7594 80.2898 85.7869 81.5573 85.7869H82.7048C83.9724 85.7869 84.9999 84.7594 84.9999 83.4918V65.1312C84.9999 63.8636 83.9724 62.8361 82.7048 62.8361Z" fill="white"/>
<path d="M82.7051 80.0492H64.3444C63.0769 80.0492 62.0493 81.0767 62.0493 82.3443V83.4918C62.0493 84.7593 63.0769 85.7869 64.3444 85.7869H82.7051C83.9726 85.7869 85.0001 84.7593 85.0001 83.4918V82.3443C85.0001 81.0767 83.9726 80.0492 82.7051 80.0492Z" fill="white"/>
<path d="M35.7 39H17.3C16.0297 39 15 40.0745 15 41.4V42.6C15 43.9255 16.0297 45 17.3 45H35.7C36.9703 45 38 43.9255 38 42.6V41.4C38 40.0745 36.9703 39 35.7 39Z" fill="white"/>
<path d="M82.7 50H17.3C16.0297 50 15 51.0745 15 52.4V53.6C15 54.9255 16.0297 56 17.3 56H82.7C83.9703 56 85 54.9255 85 53.6V52.4C85 51.0745 83.9703 50 82.7 50Z" fill="white"/>
<path d="M82.7 61H17.3C16.0297 61 15 62.0745 15 63.4V83.6C15 84.9255 16.0297 86 17.3 86H82.7C83.9703 86 85 84.9255 85 83.6V63.4C85 62.0745 83.9703 61 82.7 61Z" fill="white"/>
<path d="M82.7 39H64.3C63.0297 39 62 40.0745 62 41.4V42.6C62 43.9255 63.0297 45 64.3 45H82.7C83.9703 45 85 43.9255 85 42.6V41.4C85 40.0745 83.9703 39 82.7 39Z" fill="white"/>
<path d="M29.4 28H16.6C15.7163 28 15 29.0745 15 30.4V31.6C15 32.9255 15.7163 34 16.6 34H29.4C30.2837 34 31 32.9255 31 31.6V30.4C31 29.0745 30.2837 28 29.4 28Z" fill="white"/>
<path d="M83.4 28H70.6C69.7163 28 69 29.0745 69 30.4V31.6C69 32.9255 69.7163 34 70.6 34H83.4C84.2837 34 85 32.9255 85 31.6V30.4C85 29.0745 84.2837 28 83.4 28Z" fill="white"/>
<path d="M60.8375 27.287C60.6055 27.0435 60.3266 26.8496 60.0174 26.7171C59.7083 26.5846 59.3755 26.5163 59.0392 26.5163C58.7029 26.5163 58.3701 26.5846 58.061 26.7171C57.7519 26.8496 57.4729 27.0435 57.241 27.287L52.3601 32.1679V17.782C52.3587 17.1011 52.0875 16.4485 51.6061 15.9671C51.1246 15.4856 50.4721 15.2145 49.7912 15.2131C49.4484 15.1924 49.1052 15.2447 48.7841 15.3665C48.4631 15.4882 48.1715 15.6768 47.9287 15.9196C47.6859 16.1624 47.4974 16.4539 47.3757 16.775C47.2539 17.096 47.2016 17.4393 47.2223 17.782V31.911L42.3413 27.287C41.8644 26.8101 41.2176 26.5422 40.5431 26.5422C39.8686 26.5422 39.2218 26.8101 38.7449 27.287C38.2679 27.7639 38 28.4108 38 29.0852C38 29.7597 38.2679 30.4066 38.7449 30.8835L48.2498 40.1315C48.7358 40.5982 49.3749 40.8721 50.048 40.9022C50.3857 40.9116 50.7214 40.8476 51.0319 40.7145C51.3424 40.5815 51.6202 40.3826 51.8463 40.1315L60.8374 30.8835C61.081 30.6515 61.2748 30.3726 61.4073 30.0635C61.5398 29.7543 61.6081 29.4216 61.6081 29.0852C61.6081 28.7489 61.5398 28.4161 61.4073 28.107C61.2749 27.7979 61.081 27.5189 60.8375 27.287V27.287Z" fill="white"/>
</svg>
