<svg id="Layer_1" data-name="Layer 1" xmlns="http://www.w3.org/2000/svg" viewBox="0 0 100 100">
  <defs>
    <style>
      .cls-1 {
        opacity: 0.6;
      }

      .cls-2 {
        fill: #fff;
      }
    </style>
  </defs>
  <title>editor</title>
  <rect class="cls-1" width="100" height="100" rx="4" ry="4"/>
  <g>
    <path class="cls-2" d="M34.96557,74.40614v0.046l-0.41392.4138a0.68131,0.68131,0,0,0-.18952.28757L28.37736,90.51481c-0.01744.01744-.03471,0.02307-0.04619,0.03454L26.6409,94.89561A0.8412,0.8412,0,0,0,27.7333,95.988L32.028,94.30939c0.0113-.01147.02278-0.02892,0.03431-0.04045l15.33849-6.071a1.06167,1.06167,0,0,0,.28746-0.19548l0.40835-.41375h0.05158l36.246-36.2505L71.579,37.78855ZM33.54,91.92336c0.45976-1.14983.47124-2.179-.10362-2.75358-0.58071-.57492-1.61534-0.56941-2.77108-0.09777,1.79946-4.65672,4.2428-10.98088,4.87521-12.61922,1.11547-.00591,3.59318-0.01744,4.54771-0.023l0.023,0.023-0.09771.09772-0.47715,6.47333,6.46754-.483,0.09209-.09772c0,0.943.00557,3.35174,0.00557,4.50749C44.07222,87.75526,38.01275,90.15282,33.54,91.92336Z" transform="translate(-11 -11)"/>
    <path class="cls-2" d="M93.68535,33.67521L88.8791,28.88044a5.94174,5.94174,0,0,0-8.3934,0L74.62734,34.7395,87.439,48.2927l6.23488-6.23562a5.92273,5.92273,0,0,0,.01733-8.376Z" transform="translate(-11 -11)"/>
  </g>
  <rect class="cls-2" x="15" y="15.21311" width="5.7377" height="22.95082" rx="2.29508" ry="2.29508"/>
  <rect class="cls-2" x="15" y="15.21311" width="22.95082" height="5.7377" rx="2.29508" ry="2.29508"/>
  <rect class="cls-2" x="79.2623" y="62.83607" width="5.7377" height="22.95082" rx="2.29508" ry="2.29508"/>
  <rect class="cls-2" x="62.04918" y="80.04918" width="22.95082" height="5.7377" rx="2.29508" ry="2.29508"/>
</svg>
