<svg width="11" height="14" viewBox="0 0 11 14" fill="none" xmlns="http://www.w3.org/2000/svg">
<path d="M10.375 8.86667C10.375 11.3166 8.2337 13.375 5.5 13.375C2.7663 13.375 0.625 11.3166 0.625 8.86667C0.625 6.97293 1.52694 5.2493 2.83804 3.80312C3.81896 2.72113 5.00599 1.8213 6.14366 1.15587C6.06158 1.98852 6.1633 2.67818 6.41765 3.27213C6.78963 4.14076 7.45045 4.70682 8.05342 5.17653C8.15743 5.25755 8.25929 5.33553 8.35881 5.41172C8.86553 5.79965 9.3115 6.14108 9.67211 6.60127C10.0758 7.11646 10.375 7.79444 10.375 8.86667Z" fill="#FF5B42" stroke="#FF5B42" stroke-width="1.25"/>
<path d="M7.625 11.2622C7.625 12.4264 6.67623 13.375 5.5 13.375C4.32377 13.375 3.375 12.4264 3.375 11.2622C3.375 9.7666 4.30542 8.47991 5.37447 7.66074C5.42051 7.86723 5.49224 8.05969 5.5871 8.24061C5.83525 8.71386 6.21878 9.05542 6.52389 9.32475C6.53665 9.33601 6.5493 9.34717 6.56185 9.35824C6.87327 9.63295 7.12096 9.85143 7.30962 10.1318C7.49038 10.4003 7.625 10.7425 7.625 11.2622Z" fill="white" stroke="white" stroke-width="1.25"/>
</svg>
