<svg width="14" height="14" viewBox="0 0 14 14" fill="none" xmlns="http://www.w3.org/2000/svg">
<path d="M14 7.00001C14 5.72985 13.6572 4.57259 13.0286 3.50001C12.4 2.42743 11.5429 1.58065 10.4571 0.95968C9.37141 0.338711 8.17144 0 6.9143 0C5.94287 0 5.00001 0.197581 4.14286 0.564517C3.28572 0.931451 2.51429 1.43952 1.88572 2.06049L0.600001 0.818549C0.485715 0.705647 0.342858 0.677421 0.2 0.733872C0.0571432 0.790324 0 0.903232 0 1.04436V4.62904C0 4.74194 0.0285716 4.82662 0.0857148 4.88307C0.142858 4.93953 0.228572 4.96775 0.342858 4.96775H4.02858C4.17144 4.96775 4.28572 4.9113 4.34286 4.77017C4.40001 4.62904 4.37144 4.48791 4.25715 4.37501L2.85714 3.02017C3.37144 2.5121 4.00001 2.08871 4.68572 1.80646C5.37144 1.5242 6.1143 1.35484 6.9143 1.35484C7.94287 1.35484 8.88573 1.60888 9.77146 2.11694C10.6286 2.625 11.3429 3.33065 11.8572 4.17742C12.3714 5.05243 12.6286 5.98388 12.6286 7.00001C12.6286 8.01615 12.3714 8.97582 11.8572 9.82261C11.3429 10.6976 10.6286 11.375 9.77146 11.8831C8.88573 12.3911 7.94287 12.6452 6.9143 12.6452C6.17144 12.6452 5.48573 12.5323 4.85715 12.2782C4.20001 12.0242 3.62858 11.6573 3.1143 11.2056C3.02857 11.1492 2.94286 11.1209 2.85714 11.1209C2.77143 11.1209 2.68572 11.1774 2.62858 11.2339L2.14286 11.7138C2.08572 11.7702 2.05715 11.8549 2.05715 11.9677C2.05715 12.0806 2.08572 12.1371 2.17143 12.1935C2.8 12.7581 3.51429 13.2097 4.34286 13.5202C5.14286 13.8589 6.00001 14 6.9143 14C8.17144 14 9.37141 13.6896 10.4571 13.0685C11.5429 12.4476 12.4 11.5726 13.0286 10.5C13.6572 9.42743 14 8.27018 14 7.00001ZM9.22859 9.54032C9.17144 9.62501 9.08573 9.68147 9.00001 9.68147C8.88573 9.68147 8.80001 9.65324 8.74287 9.59678L6.22859 7.79033V3.04839C6.22859 2.96372 6.25715 2.87904 6.3143 2.82258C6.37144 2.76614 6.45715 2.70969 6.57144 2.70969H7.25715C7.34287 2.70969 7.42858 2.76614 7.48573 2.82258C7.54287 2.87904 7.60001 2.96372 7.60001 3.04839V7.11292L9.54286 8.52421C9.60001 8.58066 9.65716 8.63711 9.68573 8.72179C9.68573 8.8347 9.68573 8.91937 9.62859 8.97582L9.22859 9.54032Z" fill="#1DAEEA"/>
</svg>
