<?xml version="1.0" encoding="utf-8"?>
<!-- Generator: Adobe Illustrator 19.2.0, SVG Export Plug-In . SVG Version: 6.00 Build 0)  -->
<svg version="1.1" id="Layer_1" xmlns="http://www.w3.org/2000/svg" xmlns:xlink="http://www.w3.org/1999/xlink" x="0px" y="0px"
	 viewBox="0 0 90 90" style="enable-background:new 0 0 90 90;" xml:space="preserve">
<style type="text/css">
	.st0{fill:#1BCEA2;}
	.st1{fill:#FFFFFF;}
</style>
<circle class="st0" cx="45" cy="45" r="45"/>
<g>
	<g>
		<g>
			<path class="st1" d="M64.1,24.5c-10.8-10.8-28.3-10.8-39.1,0c-0.9,0.9-0.9,2.5,0,3.4c0.9,0.9,2.5,0.9,3.4,0
				c8.9-8.9,23.4-8.9,32.3,0c8.9,8.9,8.9,23.4,0,32.3c-8.5,8.5-22,8.9-31,1.2l1-1c1-1,0.5-2.7-0.8-3l-7.5-2
				c-1.3-0.4-2.6,0.9-2.2,2.2l2,7.5c0.4,1.3,2,1.8,3,0.8l1.1-1.1c10.8,9.5,27.4,9.1,37.8-1.2C74.9,52.8,74.9,35.2,64.1,24.5z"/>
		</g>
	</g>
	<g>
		<g>
			<path class="st1" d="M51.5,43.5h-5.9v-10c0-1-0.8-1.8-1.8-1.8S42,32.4,42,33.4v11.8c0,1,0.8,1.8,1.8,1.8h7.7c1,0,1.8-0.8,1.8-1.8
				S52.5,43.5,51.5,43.5z"/>
		</g>
	</g>
</g>
</svg>
