<svg width="13" height="13" viewBox="0 0 13 13" fill="none" xmlns="http://www.w3.org/2000/svg">
<path d="M6.50002 0C7.65325 0 8.75406 0.314522 9.75001 0.891135C10.746 1.46775 11.5323 2.25404 12.109 3.25002C12.6855 4.24599 13 5.3468 13 6.50002C13 7.67946 12.6855 8.7541 12.109 9.75001C11.5323 10.746 10.746 11.5585 9.75001 12.1351C8.75406 12.7118 7.65325 13 6.50002 13C5.32058 13 4.24599 12.7118 3.25002 12.1351C2.25404 11.5585 1.44154 10.746 0.864919 9.75001C0.288307 8.7541 0 7.67946 0 6.50002C0 5.3468 0.288307 4.24599 0.864919 3.25002C1.44154 2.25404 2.25404 1.46775 3.25002 0.891135C4.24599 0.314522 5.32058 0 6.50002 0ZM6.50002 11.742C7.44358 11.742 8.3085 11.5061 9.12101 11.0343C9.90731 10.5626 10.5626 9.93347 11.0343 9.12103C11.5061 8.33471 11.742 7.44358 11.742 6.50002C11.742 5.55647 11.5061 4.69155 11.0343 3.87904C10.5626 3.09275 9.90731 2.43751 9.12101 1.96573C8.3085 1.49395 7.44358 1.25807 6.50002 1.25807C5.55647 1.25807 4.66534 1.49395 3.87904 1.96573C3.06654 2.43751 2.43751 3.09275 1.96573 3.87904C1.49395 4.69155 1.25807 5.55647 1.25807 6.50002C1.25807 7.44358 1.49395 8.33471 1.96573 9.12103C2.43751 9.93347 3.06654 10.5626 3.87904 11.0343C4.66534 11.5061 5.55647 11.742 6.50002 11.742ZM8.12503 9.01616C8.17745 9.06859 8.25608 9.09476 8.36092 9.06859C8.43955 9.06859 8.51818 9.01616 8.5706 8.93756L9.04237 8.25608C9.09479 8.20366 9.09479 8.12503 9.09479 8.02019C9.09479 7.94157 9.04237 7.86294 8.98996 7.81052L7.23389 6.55245V2.83066C7.23389 2.75202 7.18148 2.67339 7.12906 2.62097C7.07664 2.56856 6.99801 2.51614 6.91938 2.51614H6.08067C5.97582 2.51614 5.8972 2.56856 5.84478 2.62097C5.79236 2.67339 5.76615 2.75202 5.76615 2.83066V7.12906C5.76615 7.23389 5.79236 7.33874 5.8972 7.39116L8.12503 9.01616Z" fill="#46AB88"/>
</svg>
