<svg width="10" height="10" viewBox="0 0 10 10" fill="none" xmlns="http://www.w3.org/2000/svg">
<path d="M6.0625 5L9.9375 8.87499C9.96875 8.9375 10 9 10 9.0625C10 9.12501 9.96875 9.1875 9.9375 9.21875L9.21875 9.9375C9.15625 10 9.09375 10 9.03125 10C8.96875 10 8.90625 10 8.87499 9.9375L5 6.0625L1.125 9.9375C1.0625 10 1 10 0.937499 10C0.875 10 0.812501 10 0.78125 9.9375L0.0625 9.21875C0 9.1875 0 9.12501 0 9.0625C0 9 0 8.9375 0.0625 8.87499L3.9375 5L0.0625 1.12501C0 1.09375 0 1.03125 0 0.968754C0 0.906251 0 0.843749 0.0625 0.781246L0.78125 0.0625006C0.812501 0.0312503 0.875 0 0.937499 0C1 0 1.0625 0.0312503 1.125 0.0625006L5 3.9375L8.87499 0.0625006C8.90625 0.0312503 8.96875 0 9.03125 0C9.09375 0 9.15625 0.0312503 9.21875 0.0625006L9.9375 0.781246C9.96875 0.843749 10 0.906251 10 0.968754C10 1.03125 9.96875 1.09375 9.9375 1.12501L9.28125 1.78125L6.0625 5Z" fill="#FF5B42"/>
</svg>
