<svg id="Layer_1" data-name="Layer 1" xmlns="http://www.w3.org/2000/svg" viewBox="0 0 100 100">
  <defs>
    <style>
      .cls-1 {
        opacity: 0.6;
        isolation: isolate;
      }

      .cls-2 {
        fill: #fff;
      }
    </style>
  </defs>
  <title>Gallery</title>
  <rect class="cls-1" width="100" height="100" rx="4" ry="4"/>
  <rect class="cls-2" x="15" y="15.21311" width="5.7377" height="22.95082" rx="2.29508" ry="2.29508"/>
  <rect class="cls-2" x="15" y="15.21311" width="22.95082" height="5.7377" rx="2.29508" ry="2.29508"/>
  <rect class="cls-2" x="79.2623" y="62.83607" width="5.7377" height="22.95082" rx="2.29508" ry="2.29508"/>
  <rect class="cls-2" x="62.04918" y="80.04918" width="22.95082" height="5.7377" rx="2.29508" ry="2.29508"/>
  <path class="cls-2" d="M62.32214,27.287a2.48327,2.48327,0,0,0-3.59647,0l-4.88092,4.88092V17.782a2.57426,2.57426,0,0,0-2.5689-2.5689A2.427,2.427,0,0,0,48.707,17.782V31.911h0L43.826,27.287a2.54308,2.54308,0,0,0-3.59647,3.59647l9.50495,9.24805a2.775,2.775,0,0,0,1.79823.77067,2.33213,2.33213,0,0,0,1.79823-.77067l8.99116-9.24805A2.48328,2.48328,0,0,0,62.32214,27.287Z"/>
  <path class="cls-2" d="M37.47241,40.138"/>
  <g>
    <polygon class="cls-2" points="45.624 58.114 41.771 54.004 33.807 61.967 33.807 66.848 68.744 66.848 68.744 55.545 58.469 45.269 45.624 58.114"/>
    <path class="cls-2" d="M38.43134,50.92088a4.90954,4.90954,0,0,0,3.59647-8.22049,4.72287,4.72287,0,0,0-6.67915,6.67915A3.662,3.662,0,0,0,38.43134,50.92088Z"/>
    <path class="cls-2" d="M71.05642,38.07636c0.77067,0,.77067.25689,0.77067,0.77067V69.16011a0.68118,0.68118,0,0,1-.77067.77067H31.2384a0.68118,0.68118,0,0,1-.77067-0.77067V38.847a0.68118,0.68118,0,0,1,.77067-0.77067H39.4589l-3.33958-3.08268H31.2384c-2.312,0-3.85336,1.79823-4.11025,4.11025V69.417c0,2.312,1.79823,3.85336,4.11025,4.11025h39.818c2.312,0,3.85336-1.79824,4.11025-4.11025V38.847a4.42012,4.42012,0,0,0-4.11025-4.11025h-4.624l-3.33957,3.08268Z"/>
    <path class="cls-2" d="M24.55925,76.353a0.51281,0.51281,0,0,1-.25689-0.51378V45.52618H21.21968V75.83925c0,2.312,1.79823,3.85336,4.11025,4.11025h29.5424V76.86681H25.073A0.55251,0.55251,0,0,0,24.55925,76.353Z"/>
  </g>
</svg>
