<svg width="12" height="14" viewBox="0 0 12 14" fill="none" xmlns="http://www.w3.org/2000/svg">
<path d="M10.7664 6.25001C10.8281 6.1875 10.859 6.125 10.859 6C10.859 5.90625 10.7973 5.8125 10.7356 5.71875L10.1494 5.09375C10.0569 5.03125 9.96434 5 9.87179 5C9.74839 5 9.6867 5.0625 9.62499 5.125L6.72516 8.15625V0.374997C6.72516 0.281248 6.66346 0.1875 6.60176 0.125001C6.54007 0.0625002 6.44752 0 6.35497 0H5.49118C5.36779 0 5.27524 0.0625002 5.21354 0.125001C5.15184 0.1875 5.12099 0.281248 5.12099 0.374997V8.15625L2.22116 5.125C2.15945 5.0625 2.06691 5 1.97436 5C1.85096 5 1.75841 5.03125 1.69672 5.09375L1.07973 5.71875C1.01803 5.8125 0.987179 5.90625 0.987179 6C0.987179 6.125 1.01803 6.1875 1.11058 6.25001L5.64543 10.875C5.70713 10.9687 5.79968 11 5.92308 11C6.01562 11 6.10817 10.9687 6.20072 10.875L10.7664 6.25001ZM11.4759 12.375C11.5685 12.375 11.661 12.4375 11.7227 12.4999C11.7844 12.5625 11.8462 12.6562 11.8462 12.75V13.625C11.8462 13.75 11.7844 13.8437 11.7227 13.9062C11.661 13.9687 11.5685 14 11.4759 14H0.370192C0.246795 14 0.154246 13.9687 0.092548 13.9062C0.0308494 13.8437 0 13.75 0 13.625V12.75C0 12.6562 0.0308494 12.5625 0.092548 12.4999C0.154246 12.4375 0.246795 12.375 0.370192 12.375H11.4759Z" fill="#46AB88"/>
</svg>
