<svg width="11" height="11" viewBox="0 0 11 11" fill="none" xmlns="http://www.w3.org/2000/svg">
<path d="M10.538 4.58171C10.6525 4.58171 10.767 4.63897 10.8529 4.72488C10.9388 4.8108 10.9961 4.92533 10.9961 5.03988V5.95622C10.9961 6.09939 10.9388 6.21394 10.8529 6.29984C10.767 6.38575 10.6525 6.41439 10.538 6.41439H6.41439V10.5379C6.41439 10.6811 6.35711 10.7956 6.27121 10.8815C6.1853 10.9675 6.07076 10.9961 5.95622 10.9961H5.03988C4.8967 10.9961 4.78215 10.9675 4.69624 10.8815C4.61034 10.7956 4.58171 10.6811 4.58171 10.5379V6.41439H0.458174C0.314991 6.41439 0.200446 6.38575 0.114539 6.29984C0.0286358 6.21394 0 6.09939 0 5.95622V5.03988C0 4.92533 0.0286358 4.8108 0.114539 4.72488C0.200446 4.63897 0.314991 4.58171 0.458174 4.58171H4.58171V0.458171C4.58171 0.343627 4.61034 0.229085 4.69624 0.143178C4.78215 0.0572716 4.8967 0 5.03988 0H5.95622C6.07076 0 6.1853 0.0572716 6.27121 0.143178C6.35711 0.229085 6.41439 0.343627 6.41439 0.458171V4.58171H10.538Z" fill="white"/>
</svg>
