<?xml version="1.0" encoding="utf-8"?>
<!-- Generator: Adobe Illustrator 16.0.0, SVG Export Plug-In . SVG Version: 6.00 Build 0)  -->
<!DOCTYPE svg PUBLIC "-//W3C//DTD SVG 1.1//EN" "http://www.w3.org/Graphics/SVG/1.1/DTD/svg11.dtd">
<svg version="1.1" id="Layer_1" xmlns="http://www.w3.org/2000/svg" xmlns:xlink="http://www.w3.org/1999/xlink" x="0px" y="0px"
	 width="27px" height="38px" viewBox="0 0 27 38" enable-background="new 0 0 27 38" xml:space="preserve">
<title>Risorsa 2</title>
<path fill="#505050" d="M12,0H0v11h12V0z M10,9H2V2h8V9z M0,38h12V27H0V38z M2,29h8v7H2V29z M12.208,12.39l-2.746,3.57V14H0v11h12
	v-5.5h-2V23H6.569l7.223-9.39L12.208,12.39z M2,23v-7h7.431l-3.43,4.459l-2.272-2.417l-1.457,1.37L5.645,23H2z M27,4.5v2H17v-2H27z
	 M17,18.5h10v2H17V18.5z M17,31.5h10v2H17V31.5z"/>
</svg>
