<?xml version="1.0" encoding="utf-8"?>
<!-- Generator: Adobe Illustrator 16.0.0, SVG Export Plug-In . SVG Version: 6.00 Build 0)  -->
<!DOCTYPE svg PUBLIC "-//W3C//DTD SVG 1.1//EN" "http://www.w3.org/Graphics/SVG/1.1/DTD/svg11.dtd">
<svg version="1.1" id="Layer_1" xmlns="http://www.w3.org/2000/svg" xmlns:xlink="http://www.w3.org/1999/xlink" x="0px" y="0px"
	 width="33px" height="33px" viewBox="0 0 33 33" enable-background="new 0 0 33 33" xml:space="preserve">
<g>
	<path d="M31.258,23.684L27.488,20l-3.746,3.684c-1.133,0.996-1.77,2.428-1.741,3.922c0.013,2.975,2.462,5.383,5.487,5.395
		c3.035,0,5.498-2.412,5.511-5.395C33.027,26.111,32.391,24.68,31.258,23.684z M27.5,30.902c-1.898,0-3.479-1.437-3.625-3.297
		c-0.029-1,0.409-1.958,1.189-2.601l2.424-2.405l2.447,2.405c0.78,0.643,1.219,1.601,1.189,2.601
		C30.979,29.466,29.398,30.902,27.5,30.902z"/>
	<path d="M26.595,17.314c0.649-0.012,1.208-0.454,1.364-1.076c0.154-0.623-0.134-1.271-0.703-1.578L16,8.234V5.016
		C15.829,2.195,13.642,0,11,0S6.171,2.195,6,5.016v7.443l-5.779,9.946c-0.225,0.366-0.281,0.81-0.154,1.218
		c0.118,0.422,0.416,0.771,0.815,0.958l12.603,7.201c0.25,0.138,0.529,0.212,0.815,0.218c0.557-0.067,1.04-0.412,1.278-0.914
		l6.609-11.139C23.102,18.381,24.766,17.387,26.595,17.314z M7.782,5.016C7.917,3.221,9.318,1.839,11,1.839s3.083,1.382,3.218,3.177
		v2.202L10.334,5L7.782,9.393V5.016z M20.58,19.186l-6.368,10.878l-12.185-6.94l9.056-15.49l3.135,1.795v5.303
		C14.083,14.957,14,15.218,14,15.5c0,0.829,0.671,1.5,1.5,1.5s1.5-0.671,1.5-1.5c0-0.652-0.419-1.202-1-1.408v-3.644l9.295,5.322
		C23.303,16.196,21.59,17.438,20.58,19.186z"/>
</g>
</svg>
