<?xml version="1.0" encoding="utf-8"?>
<!-- Generator: Adobe Illustrator 16.0.0, SVG Export Plug-In . SVG Version: 6.00 Build 0)  -->
<!DOCTYPE svg PUBLIC "-//W3C//DTD SVG 1.1//EN" "http://www.w3.org/Graphics/SVG/1.1/DTD/svg11.dtd">
<svg version="1.1" id="Layer_1" xmlns="http://www.w3.org/2000/svg" xmlns:xlink="http://www.w3.org/1999/xlink" x="0px" y="0px"
	 width="32.501px" height="40.5px" viewBox="0 0 32.501 40.5" enable-background="new 0 0 32.501 40.5" xml:space="preserve">
<path fill="#020203" d="M5.484,37.166c-0.03-0.305-0.102-0.598-0.204-0.844c-0.337-1.301-1.04-3.68-1.953-5.014
	c-0.266-0.389-0.878-0.387-1.143,0c-0.915,1.332-1.621,3.709-1.95,4.979c-0.107,0.266-0.177,0.544-0.211,0.859
	c-0.019,0.078-0.026,0.154-0.022,0.219v0.131c0.002,1.652,1.235,3.001,2.748,3.004h0.005c0.513,0,1.013-0.157,1.447-0.454
	c0.811-0.551,1.295-1.503,1.296-2.547l-0.001-0.106C5.504,37.314,5.5,37.238,5.484,37.166z M4.079,37.383
	c0.001,0.035,0.001,0.069,0,0.11c-0.018,0.805-0.616,1.459-1.333,1.459c-0.718,0-1.316-0.654-1.333-1.453
	c0-0.037,0-0.073,0.005-0.151c0.014-0.166,0.054-0.328,0.119-0.481c0.015-0.036,0.027-0.072,0.036-0.108
	c0.175-0.675,0.614-2.254,1.177-3.503c0.538,1.187,0.959,2.668,1.175,3.503c0.009,0.038,0.022,0.077,0.037,0.11
	c0.064,0.153,0.104,0.315,0.12,0.432L4.08,37.363L4.079,37.383z M32.501,4.968c0-1.231-0.479-2.389-1.352-3.26L30.793,1.35
	C29.922,0.479,28.765,0,27.533,0c-1.232,0-2.39,0.479-3.261,1.35l-3.406,3.406c-0.579-0.538-1.323-0.84-2.117-0.84
	c-0.833,0-1.617,0.325-2.206,0.914c-1.189,1.188-1.208,3.101-0.075,4.323l-5.822,5.822l0.001,0.001L3.89,21.732
	c-1.095,1.091-1.569,2.686-1.256,4.191c-0.916,1.037-0.832,2.68,0.214,3.725C3.384,30.189,4.1,30.492,4.864,30.5h0.024
	c0.625,0,1.219-0.225,1.686-0.635c0.304,0.062,0.616,0.092,0.949,0.092c1.208,0,2.391-0.49,3.243-1.346l7.881-7.882l0,0l4.699-4.699
	c0.57,0.53,1.327,0.839,2.106,0.839h0.009c1.266,0,2.396-0.757,2.881-1.926c0.471-1.132,0.23-2.416-0.599-3.31l3.405-3.405
	C32.022,7.356,32.501,6.199,32.501,4.968z M9.639,27.484c-0.784,0.789-1.982,1.082-3.056,0.738l-0.462-0.147l-0.552,0.552
	c-0.184,0.182-0.426,0.28-0.698,0.28l0,0c-0.333-0.005-0.66-0.144-0.896-0.382c-0.468-0.469-0.515-1.184-0.106-1.594l0.554-0.554
	l-0.148-0.462c-0.35-1.083-0.066-2.256,0.74-3.061l6.758-6.756l4.626,4.626L9.639,27.484z M17.522,19.603l-4.629-4.629l4.689-4.689
	l4.629,4.629L17.522,19.603z M26.522,14.813c-0.568,0.567-1.556,0.573-2.131,0.03L17.66,8.11c-0.431-0.439-0.56-1.085-0.322-1.653
	c0.237-0.574,0.792-0.944,1.413-0.944l0.098-0.002c0.369,0.023,0.723,0.183,0.983,0.445l6.71,6.713
	C27.117,13.265,27.108,14.227,26.522,14.813z M30.026,7.103l-3.399,3.399l-2.313-2.314l-2.314-2.315l3.398-3.399
	c0.57-0.57,1.328-0.884,2.137-0.884c0.807,0,1.564,0.314,2.136,0.884l0.356,0.358C31.203,4.009,31.203,5.925,30.026,7.103z"/>
</svg>
