<?xml version="1.0" encoding="utf-8"?>
<!-- Generator: Adobe Illustrator 16.0.0, SVG Export Plug-In . SVG Version: 6.00 Build 0)  -->
<!DOCTYPE svg PUBLIC "-//W3C//DTD SVG 1.1//EN" "http://www.w3.org/Graphics/SVG/1.1/DTD/svg11.dtd">
<svg version="1.1" id="Layer_1" xmlns="http://www.w3.org/2000/svg" xmlns:xlink="http://www.w3.org/1999/xlink" x="0px" y="0px"
	 width="40px" height="37px" viewBox="0 0 40 37" enable-background="new 0 0 40 37" xml:space="preserve">
<title>Risorsa 1</title>
<path id="Add-option---modal-window" transform="translate(-780.000000, -657.000000)" d="M780,694h40v-37h-40V694z
	 M781.539,686.745h4.615v5.804h-4.615V686.745z M818.461,658.451v7.255h-36.922v-7.255H818.461z M791.539,667.157v5.804h-4.616
	v-5.804H791.539z M805.385,677.18l1.923,2.311h-3.847L805.385,677.18z M803.077,678.797v-4.418l1.819,2.209L803.077,678.797z
	 M805.873,676.588l1.819-2.209v4.418L805.873,676.588z M805.385,675.997l-1.924-2.311h3.847L805.385,675.997z M802.308,679.49
	h-4.615v-5.804h4.615V679.49z M796.923,679.49h-4.615v-5.804h4.615V679.49z M796.923,680.216v5.804h-4.615v-5.804H796.923z
	 M797.692,680.216h4.615v5.804h-4.615V680.216z M803.077,680.216h4.615v5.804h-4.615V680.216z M808.461,680.216h4.616v5.804h-4.616
	V680.216z M808.461,679.49v-5.804h4.616v5.804H808.461z M808.461,672.961v-5.804h4.616v5.804H808.461z M807.692,672.961h-4.615
	v-5.804h4.615V672.961z M802.308,672.961h-4.615v-5.804h4.615V672.961z M796.923,672.961h-4.615v-5.804h4.615V672.961z
	 M791.539,673.687v5.804h-4.616v-5.804H791.539z M791.539,680.216v5.804h-4.616v-5.804H791.539z M791.539,686.745v5.804h-4.616
	v-5.804H791.539z M792.308,686.745h4.615v5.804h-4.615V686.745z M797.692,686.745h4.615v5.804h-4.615V686.745z M803.077,686.745
	h4.615v5.804h-4.615V686.745z M808.461,686.745h4.616v5.804h-4.616V686.745z M813.846,686.745h4.615v5.804h-4.615V686.745z
	 M813.846,686.02v-5.804h4.615v5.804H813.846z M813.846,679.49v-5.804h4.615v5.804H813.846z M813.846,672.961v-5.804h4.615v5.804
	H813.846z M786.154,667.157v5.804h-4.615v-5.804H786.154z M786.154,673.687v5.804h-4.615v-5.804H786.154z M786.154,680.216v5.804
	h-4.615v-5.804H786.154z"/>
</svg>
