<?xml version="1.0" encoding="utf-8"?>
<!-- Generator: Adobe Illustrator 16.0.0, SVG Export Plug-In . SVG Version: 6.00 Build 0)  -->
<!DOCTYPE svg PUBLIC "-//W3C//DTD SVG 1.1//EN" "http://www.w3.org/Graphics/SVG/1.1/DTD/svg11.dtd">
<svg version="1.1" id="Layer_1" xmlns="http://www.w3.org/2000/svg" xmlns:xlink="http://www.w3.org/1999/xlink" x="0px" y="0px"
	 width="36px" height="33px" viewBox="0 0 36 33" enable-background="new 0 0 36 33" xml:space="preserve">
<title>Risorsa 1</title>
<path fill="#505050" d="M36,23.553v0.168C36,28.846,31.854,33,26.739,33H26.57c-2.499,0.005-4.896-0.993-6.656-2.771L2.127,12.424
	c-1.835-1.839-2.551-4.518-1.88-7.03c0.672-2.511,2.629-4.473,5.136-5.146c2.506-0.673,5.181,0.045,7.016,1.884L29.91,19.676
	c0.977,0.952,1.529,2.258,1.532,3.623c0.015,1.351-0.513,2.65-1.463,3.608s-2.245,1.494-3.593,1.487h-0.1
	c-1.342-0.003-2.628-0.538-3.577-1.488l-9.958-9.978l1.08-1.082l9.958,9.978c0.662,0.663,1.561,1.036,2.497,1.036h0.1
	c1.924-0.005,3.48-1.565,3.485-3.492c0.019-0.976-0.357-1.916-1.042-2.609L11.319,3.214C9.066,1.051,5.5,1.09,3.294,3.301
	c-2.207,2.21-2.245,5.783-0.086,8.041l17.771,17.82c1.482,1.484,3.496,2.314,5.592,2.303h0.169c4.269,0,7.729-3.467,7.729-7.744
	v-0.168c0.011-2.101-0.815-4.117-2.298-5.604L21.982,7.757l1.08-1.082l10.172,10.208C35.009,18.646,36.004,21.049,36,23.553z"/>
</svg>
