<?xml version="1.0" encoding="utf-8"?>
<!-- Generator: Adobe Illustrator 16.0.0, SVG Export Plug-In . SVG Version: 6.00 Build 0)  -->
<!DOCTYPE svg PUBLIC "-//W3C//DTD SVG 1.1//EN" "http://www.w3.org/Graphics/SVG/1.1/DTD/svg11.dtd">
<svg version="1.1" id="Layer_1" xmlns="http://www.w3.org/2000/svg" xmlns:xlink="http://www.w3.org/1999/xlink" x="0px" y="0px"
	 width="41px" height="16px" viewBox="0 0 41 16" enable-background="new 0 0 41 16" xml:space="preserve">
<title>Text</title>
<path fill="#505050" d="M0.154,0.45h12.674v3.948H12.12c-0.062-0.246-0.172-0.538-0.333-0.877c-0.16-0.338-0.34-0.658-0.538-0.958
	c-0.205-0.314-0.429-0.589-0.672-0.826C10.334,1.501,10.1,1.366,9.875,1.332c-0.212-0.027-0.479-0.048-0.8-0.062
	S8.456,1.25,8.183,1.25H7.588v11.638c0,0.226,0.048,0.433,0.144,0.62c0.096,0.188,0.263,0.334,0.502,0.436
	c0.123,0.049,0.381,0.113,0.774,0.195c0.393,0.082,0.699,0.127,0.917,0.133V15h-6.87v-0.729c0.191-0.014,0.484-0.041,0.876-0.082
	c0.394-0.041,0.665-0.092,0.815-0.153c0.226-0.089,0.392-0.217,0.497-0.385c0.106-0.167,0.159-0.392,0.159-0.671V1.25H4.809
	c-0.212,0-0.475,0.005-0.79,0.015C3.705,1.275,3.404,1.297,3.117,1.332C2.892,1.359,2.658,1.494,2.415,1.736
	C2.172,1.979,1.948,2.254,1.743,2.562S1.357,3.196,1.2,3.541C1.042,3.887,0.933,4.172,0.872,4.397H0.154V0.45z M21.994,12.18
	l0.719,0.441c-0.424,0.807-0.992,1.449-1.703,1.928c-0.71,0.479-1.527,0.718-2.45,0.718c-0.813,0-1.526-0.144-2.138-0.431
	c-0.611-0.287-1.116-0.677-1.512-1.169s-0.692-1.066-0.887-1.723c-0.194-0.656-0.292-1.351-0.292-2.081
	c0-0.656,0.104-1.301,0.313-1.934c0.209-0.632,0.515-1.201,0.918-1.707c0.39-0.485,0.873-0.877,1.451-1.174
	c0.577-0.298,1.225-0.446,1.943-0.446c0.738,0,1.371,0.116,1.897,0.349s0.954,0.55,1.282,0.954c0.314,0.383,0.549,0.834,0.703,1.354
	c0.152,0.52,0.23,1.083,0.23,1.692v0.677h-6.696c0,0.663,0.063,1.265,0.19,1.805c0.126,0.54,0.326,1.016,0.6,1.426
	c0.267,0.396,0.615,0.709,1.046,0.938c0.431,0.229,0.943,0.344,1.538,0.344c0.608,0,1.133-0.142,1.574-0.426
	C21.158,13.43,21.584,12.918,21.994,12.18z M15.771,8.766h4.676c0-0.383-0.033-0.793-0.097-1.23
	c-0.065-0.438-0.169-0.803-0.313-1.097c-0.157-0.314-0.373-0.571-0.646-0.769s-0.625-0.297-1.056-0.297
	c-0.718,0-1.314,0.299-1.79,0.897C16.07,6.867,15.812,7.699,15.771,8.766z M31.961,13.309c-0.396-0.596-0.789-1.173-1.179-1.733
	s-0.896-1.278-1.518-2.153c0.561-0.738,0.997-1.313,1.308-1.723s0.579-0.755,0.805-1.036c0.205-0.246,0.455-0.463,0.748-0.651
	c0.295-0.188,0.705-0.351,1.23-0.487V4.89h-3.732v0.656c0.213,0.034,0.436,0.094,0.672,0.18c0.236,0.085,0.354,0.2,0.354,0.343
	c0,0.068-0.014,0.138-0.041,0.21c-0.027,0.071-0.055,0.131-0.082,0.179c-0.266,0.396-0.559,0.813-0.877,1.251
	c-0.316,0.438-0.596,0.82-0.835,1.148c-0.369-0.54-0.712-1.052-1.03-1.538S27.23,6.476,27.08,6.243
	c-0.061-0.089-0.112-0.171-0.153-0.246s-0.062-0.144-0.062-0.205c0-0.096,0.105-0.157,0.318-0.185
	c0.211-0.027,0.427-0.041,0.646-0.041V4.89H23.43v0.677c0.418,0,0.74,0.08,0.969,0.241c0.23,0.16,0.434,0.371,0.611,0.63
	c0.328,0.479,0.742,1.079,1.246,1.799c0.502,0.722,0.928,1.331,1.275,1.831c-0.602,0.82-1.092,1.469-1.471,1.947
	s-0.676,0.855-0.887,1.129c-0.24,0.287-0.502,0.527-0.785,0.723c-0.283,0.194-0.658,0.36-1.123,0.497V15h3.743v-0.656
	c-0.39-0.034-0.683-0.101-0.876-0.2c-0.195-0.099-0.293-0.224-0.293-0.374c0-0.062,0.025-0.144,0.076-0.246
	c0.053-0.103,0.102-0.188,0.149-0.256c0.328-0.473,0.643-0.918,0.943-1.339c0.301-0.42,0.629-0.853,0.984-1.297
	c0.431,0.622,0.794,1.157,1.093,1.604c0.297,0.448,0.531,0.805,0.701,1.072c0.068,0.109,0.137,0.229,0.205,0.358
	s0.104,0.226,0.104,0.287c0,0.144-0.107,0.232-0.324,0.267c-0.215,0.034-0.477,0.068-0.783,0.103V15h4.635v-0.677
	c-0.424-0.027-0.758-0.128-1-0.303C32.381,13.847,32.16,13.609,31.961,13.309z M40.025,13.929c-0.33,0.03-0.582,0.046-0.753,0.046
	c-0.369,0-0.663-0.051-0.882-0.154c-0.219-0.102-0.383-0.252-0.492-0.451c-0.116-0.211-0.189-0.459-0.221-0.743
	c-0.031-0.283-0.046-0.638-0.046-1.062V5.915h2.882V4.931h-2.902V1.783h-1.866v3.148h-1.866v0.984h1.825v6.85
	c0,0.779,0.173,1.383,0.519,1.81c0.344,0.428,0.941,0.641,1.789,0.641c0.574,0,1.059-0.063,1.455-0.189
	c0.396-0.126,0.817-0.281,1.262-0.467v-0.748C40.592,13.858,40.357,13.897,40.025,13.929z"/>
</svg>
