<?xml version="1.0" encoding="utf-8"?>
<!-- Generator: Adobe Illustrator 16.0.0, SVG Export Plug-In . SVG Version: 6.00 Build 0)  -->
<!DOCTYPE svg PUBLIC "-//W3C//DTD SVG 1.1//EN" "http://www.w3.org/Graphics/SVG/1.1/DTD/svg11.dtd">
<svg version="1.1" id="Layer_1" xmlns="http://www.w3.org/2000/svg" xmlns:xlink="http://www.w3.org/1999/xlink" x="0px" y="0px"
	 width="32px" height="32px" viewBox="0 0 32 32" enable-background="new 0 0 32 32" xml:space="preserve">
<title>Risorsa 3</title>
<g id="Block-Creation">
	<g id="Add-option---modal-window" transform="translate(-316.000000, -293.000000)">
		<g id="Group" transform="translate(268.000000, 270.000000)">
			<g id="Risorsa-3" transform="translate(48.000000, 23.000000)">
				<path id="Shape" d="M24.811,32H7.232v-3.989h0.917c2.326,0.134,4.331-1.622,4.501-3.946V5.888H8.128
					C5.786,5.742,3.765,7.515,3.605,9.856v0.811H0V0h32v10.667h-3.563V9.856c-0.16-2.333-2.168-4.102-4.502-3.968h-4.543v18.176
					c0.17,2.332,2.188,4.093,4.521,3.946h0.896V32z M9.045,30.187h13.953v-0.319c-2.981-0.285-5.295-2.727-5.42-5.718V4.075h6.4
					c2.981-0.091,5.606,1.952,6.251,4.864l0,0V1.813H1.813v7.125C2.454,5.997,5.12,3.943,8.128,4.075h6.4v19.99
					c-0.077,3.051-2.441,5.553-5.482,5.803V30.187z"/>
			</g>
		</g>
	</g>
</g>
</svg>
