<?xml version="1.0" encoding="utf-8"?>
<!-- Generator: Adobe Illustrator 16.0.0, SVG Export Plug-In . SVG Version: 6.00 Build 0)  -->
<!DOCTYPE svg PUBLIC "-//W3C//DTD SVG 1.1//EN" "http://www.w3.org/Graphics/SVG/1.1/DTD/svg11.dtd">
<svg version="1.1" id="Layer_1" xmlns="http://www.w3.org/2000/svg" xmlns:xlink="http://www.w3.org/1999/xlink" x="0px" y="0px"
	 width="66px" height="23px" viewBox="0 0 66 23" enable-background="new 0 0 66 23" xml:space="preserve">
<title>Risorsa 5</title>
<path fill="#181716" d="M63,0H3C1.346,0,0,1.346,0,3v17c0,1.654,1.346,3,3,3h60c1.654,0,3-1.346,3-3V3C66,1.346,64.654,0,63,0z
	 M64,20c0,0.552-0.448,1-1,1H3c-0.551,0-1-0.448-1-1V3c0-0.551,0.449-1,1-1h60c0.552,0,1,0.449,1,1V20z"/>
</svg>
