<?xml version="1.0" encoding="utf-8"?>
<!-- Generator: Adobe Illustrator 16.0.0, SVG Export Plug-In . SVG Version: 6.00 Build 0)  -->
<!DOCTYPE svg PUBLIC "-//W3C//DTD SVG 1.1//EN" "http://www.w3.org/Graphics/SVG/1.1/DTD/svg11.dtd">
<svg version="1.1" id="Layer_1" xmlns="http://www.w3.org/2000/svg" xmlns:xlink="http://www.w3.org/1999/xlink" x="0px" y="0px"
	 width="63px" height="35px" viewBox="0 0 63 35" enable-background="new 0 0 63 35" xml:space="preserve">
<path d="M35,0v23h0.567h13.769H52h11v-4.438V0H35z M61.361,21.386H50.353l-2.828-2.769l6.63-6.388l7.207,7.002V21.386z
	 M47.661,21.386H37.557l5.253-5.145l2.419,2.36L45,18.821L47.661,21.386z M54.154,10l-7.776,7.494l-2.981-2.919h0.094L42.904,14
	l-0.567,0.574l-5.751,5.559V1.614h24.865v15.448L54.154,10z M43.835,4.265c-1.311-0.541-2.817-0.237-3.817,0.768
	c-0.999,1.005-1.293,2.514-0.745,3.821c0.548,1.307,1.83,2.154,3.247,2.146C44.445,10.989,46,9.425,46,7.5
	C46,6.083,45.145,4.805,43.835,4.265z M43.155,9.157c-0.674,0.275-1.446,0.114-1.956-0.406c-0.508-0.521-0.651-1.297-0.361-1.964
	c0.289-0.667,0.955-1.093,1.682-1.077c0.974,0.021,1.751,0.817,1.75,1.79C44.27,8.228,43.829,8.883,43.155,9.157z M29,9H3
	c-1.654,0-3,1.346-3,3v20c0,1.654,1.346,3,3,3h26c1.654,0,3-1.346,3-3V12C32,10.346,30.654,9,29,9z M30,32c0,0.552-0.449,1-1,1H3
	c-0.551,0-1-0.448-1-1V12c0-0.551,0.449-1,1-1h26c0.551,0,1,0.449,1,1V32z M14.46,22.512L17.532,27H15l-1.86-3l-1.788,3H8.904
	l2.976-4.488l-2.736-4.008h2.472l1.584,2.641l1.56-2.641h2.388L14.46,22.512z M20.719,25.212h3.288V27h-5.352v-8.496h2.064V25.212z"
	/>
</svg>
