<?xml version="1.0" encoding="utf-8"?>
<!-- Generator: Adobe Illustrator 16.0.0, SVG Export Plug-In . SVG Version: 6.00 Build 0)  -->
<!DOCTYPE svg PUBLIC "-//W3C//DTD SVG 1.1//EN" "http://www.w3.org/Graphics/SVG/1.1/DTD/svg11.dtd">
<svg version="1.1" id="Layer_1" xmlns="http://www.w3.org/2000/svg" xmlns:xlink="http://www.w3.org/1999/xlink" x="0px" y="0px"
	 width="48px" height="23px" viewBox="0 0 48 23" enable-background="new 0 0 48 23" xml:space="preserve">
<title>Risorsa 3</title>
<path d="M44,0H4C1.794,0,0,1.794,0,4v15c0,2.206,1.794,4,4,4h40c2.206,0,4-1.794,4-4V4C48,1.794,46.206,0,44,0z M30,21H4
	c-1.103,0-2-0.896-2-2V4c0-1.103,0.897-2,2-2h26V21z M46,19c0,1.104-0.896,2-2,2H32V2h12c1.104,0,2,0.897,2,2V19z M34.293,9.293
	l1.414,1.414L39,7.414l3.293,3.293l1.414-1.414L39,4.586L34.293,9.293z M39,16.586l-3.293-3.293l-1.414,1.414L39,19.414l4.707-4.707
	l-1.414-1.414L39,16.586z"/>
</svg>
