<?xml version="1.0" encoding="UTF-8"?>
<svg width="105px" height="40px" viewBox="0 0 105 40" version="1.1" xmlns="http://www.w3.org/2000/svg" xmlns:xlink="http://www.w3.org/1999/xlink">
    <title>Group 2</title>
    <defs>
        <filter x="-19.8%" y="-100.0%" width="139.5%" height="300.0%" filterUnits="objectBoundingBox" id="filter-1">
            <feOffset dx="2" dy="1" in="SourceAlpha" result="shadowOffsetOuter1"></feOffset>
            <feGaussianBlur stdDeviation="3" in="shadowOffsetOuter1" result="shadowBlurOuter1"></feGaussianBlur>
            <feColorMatrix values="0 0 0 0 0.674203807   0 0 0 0 0.781782183   0 0 0 0 0.902400362  0 0 0 0 0" type="matrix" in="shadowBlurOuter1" result="shadowMatrixOuter1"></feColorMatrix>
            <feMerge>
                <feMergeNode in="shadowMatrixOuter1"></feMergeNode>
                <feMergeNode in="SourceGraphic"></feMergeNode>
            </feMerge>
        </filter>
    </defs>
    <g id="Page-1" stroke="none" stroke-width="1" fill="none" fill-rule="evenodd">
        <g id="Add-option---free" transform="translate(-765.000000, -486.000000)">
            <g id="modal" transform="translate(15.000000, -9.000000)">
                <g id="Group" transform="translate(268.000000, 270.000000)">
                    <g id="Group-2" filter="url(#filter-1)" transform="translate(494.000000, 237.000000)">
                        <rect id="Rectangle" x="2" y="0" width="79" height="16"></rect>
                        <g id="crown" transform="translate(0.000000, 2.000000)" fill="#D3B94F" fill-rule="nonzero">
                            <path d="M11.0086947,5.6679822 L8,0 L4.99130526,5.6679822 L0,1.91241918 L1.94649664,10 L14.0535034,10 L16,1.91241918 L11.0086947,5.6679822 Z M13.2663048,9.00593389 L2.73369517,9.00593389 L1.61950431,4.37680186 L5.3257452,7.1654491 L8,2.1272427 L10.6743953,7.1654491 L14.3803552,4.37708176 L13.2663048,9.00593389 Z" id="Shape"></path>
                        </g>
                        <path d="M26.196,12 L26.196,9.597 L26.961,9.597 C27.435,9.597 27.8535,9.5355 28.2165,9.4125 C28.5795,9.2895 28.8825,9.072 29.1255,8.76 C29.3685,8.448 29.49,8.058 29.49,7.59 C29.49,6.9 29.2635,6.4005 28.8105,6.0915 C28.3575,5.7825 27.753,5.628 26.997,5.628 L26.997,5.628 L24.657,5.628 L24.657,12 L26.196,12 Z M26.844,8.373 L26.196,8.373 L26.196,6.87 L26.871,6.87 C27.591,6.87 27.951,7.113 27.951,7.599 C27.951,8.115 27.582,8.373 26.844,8.373 L26.844,8.373 Z M33.0744545,12 L33.0744545,9.471 L33.5964545,9.471 L34.9734545,12 L36.7734545,12 L35.1084545,9.273 C35.5224545,9.147 35.8464545,8.934 36.0804545,8.634 C36.3144545,8.334 36.4314545,7.974 36.4314545,7.554 C36.4314545,7.206 36.3639545,6.903 36.2289545,6.645 C36.0939545,6.387 35.9064545,6.186 35.6664545,6.042 C35.4264545,5.898 35.1684545,5.793 34.8924545,5.727 C34.6164545,5.661 34.3164545,5.628 33.9924545,5.628 L33.9924545,5.628 L31.5624545,5.628 L31.5624545,12 L33.0744545,12 Z M33.7944545,8.355 L33.0654545,8.355 L33.0654545,6.87 L33.8844545,6.87 C34.5684545,6.87 34.9104545,7.107 34.9104545,7.581 C34.9104545,8.097 34.5384545,8.355 33.7944545,8.355 L33.7944545,8.355 Z M43.1209091,12 L43.1209091,10.686 L40.1599091,10.686 L40.1599091,9.363 L42.8059091,9.363 L42.8059091,8.13 L40.1599091,8.13 L40.1599091,6.933 L42.9589091,6.933 L42.9589091,5.628 L38.6749091,5.628 L38.6749091,12 L43.1209091,12 Z M46.7323636,12 L46.6963636,7.491 L46.7233636,7.491 L48.3343636,12 L49.4143636,12 L51.0703636,7.491 L51.0973636,7.491 L51.0613636,12 L52.5643636,12 L52.5643636,5.628 L50.3413636,5.628 L48.9553636,9.714 L48.9193636,9.714 L47.4703636,5.628 L45.2833636,5.628 L45.2833636,12 L46.7323636,12 Z M56.5718182,12 L56.5718182,5.628 L55.0238182,5.628 L55.0238182,12 L56.5718182,12 Z M61.6862727,12.171 C62.5142727,12.171 63.1787727,11.934 63.6797727,11.46 C64.1807727,10.986 64.4312727,10.365 64.4312727,9.597 L64.4312727,9.597 L64.4312727,5.628 L62.8922727,5.628 L62.8922727,9.471 C62.8922727,9.849 62.7947727,10.1625 62.5997727,10.4115 C62.4047727,10.6605 62.1032727,10.785 61.6952727,10.785 C61.2932727,10.785 60.9932727,10.6605 60.7952727,10.4115 C60.5972727,10.1625 60.4982727,9.849 60.4982727,9.471 L60.4982727,9.471 L60.4982727,5.628 L58.9682727,5.628 L58.9682727,9.597 C58.9682727,10.371 59.2142727,10.9935 59.7062727,11.4645 C60.1982727,11.9355 60.8582727,12.171 61.6862727,12.171 Z M68.2677273,12 L68.2317273,7.491 L68.2587273,7.491 L69.8697273,12 L70.9497273,12 L72.6057273,7.491 L72.6327273,7.491 L72.5967273,12 L74.0997273,12 L74.0997273,5.628 L71.8767273,5.628 L70.4907273,9.714 L70.4547273,9.714 L69.0057273,5.628 L66.8187273,5.628 L66.8187273,12 L68.2677273,12 Z" id="PREMIUM" fill="#D0B648" fill-rule="nonzero"></path>
                    </g>
                </g>
            </g>
        </g>
    </g>
</svg>