<?xml version="1.0" encoding="utf-8"?>
<!-- Generator: Adobe Illustrator 16.0.0, SVG Export Plug-In . SVG Version: 6.00 Build 0)  -->
<!DOCTYPE svg PUBLIC "-//W3C//DTD SVG 1.1//EN" "http://www.w3.org/Graphics/SVG/1.1/DTD/svg11.dtd">
<svg version="1.1" id="Layer_1" xmlns="http://www.w3.org/2000/svg" xmlns:xlink="http://www.w3.org/1999/xlink" x="0px" y="0px"
	 width="38px" height="34px" viewBox="0 0 38 34" enable-background="new 0 0 38 34" xml:space="preserve">
<title>Group 4</title>
<path d="M35,0H3C1.346,0,0,1.346,0,3v28c0,1.654,1.346,3,3,3h32c1.654,0,3-1.346,3-3V3C38,1.346,36.654,0,35,0z M36,31
	c0,0.552-0.448,1-1,1H3c-0.551,0-1-0.448-1-1V3c0-0.551,0.449-1,1-1h32c0.552,0,1,0.449,1,1V31z M26.802,5.418
	C26.539,5.152,26.175,5,25.801,5h-3.248c-0.376,0-0.741,0.153-0.992,0.409c-0.266,0.263-0.418,0.628-0.417,1.055
	c0.022,0.433-0.139,0.857-0.442,1.164c-0.284,0.287-0.662,0.446-1.138,0.446c-0.003,0-0.006,0-0.009,0l-0.128-0.001l-0.051,0.003
	c-0.404,0-0.785-0.159-1.072-0.447C18,7.322,17.838,6.897,17.861,6.412c0-0.779-0.632-1.412-1.41-1.412h-3.25
	c-0.374,0-0.738,0.152-0.998,0.416L8.412,9.23c-0.547,0.549-0.548,1.443-0.001,1.994l2.669,2.685c0.452,0.454,1.2,0.535,1.73,0.209
	c0.361,1.274,0.747,3.003,0.658,4.327c-0.138,2.052-1.25,5.793-1.888,7.686c-0.146,0.429-0.078,0.904,0.184,1.273
	C12.027,27.777,12.457,28,12.913,28H26.09l0.008-0.001c0.452-0.003,0.878-0.226,1.143-0.598c0.258-0.368,0.327-0.842,0.181-1.276
	c-0.441-1.282-1.736-5.445-1.886-7.684c-0.09-1.314,0.285-3.017,0.656-4.323c0.532,0.324,1.281,0.244,1.732-0.211l2.664-2.683
	c0.548-0.549,0.548-1.443,0.002-1.993L26.802,5.418z M26.924,12.076l-1.622-1.632l-0.524,1.513c-0.527,1.52-1.39,4.399-1.238,6.62
	c0.152,2.279,1.233,5.861,1.735,7.424H13.728c0.53-1.653,1.584-5.172,1.735-7.421c0.151-2.246-0.711-5.113-1.238-6.623l-0.526-1.506
	l-1.621,1.626l-1.837-1.849L13.449,7h2.439c0.1,0.765,0.448,1.485,0.999,2.039c0.666,0.668,1.55,1.037,2.49,1.037l0.129-0.003
	l0.126,0.003c0.941,0,1.826-0.369,2.49-1.039C22.676,8.477,23.024,7.748,23.12,7h2.434l3.206,3.228L26.924,12.076z"/>
</svg>
