<?xml version="1.0" encoding="utf-8"?>
<!-- Generator: Adobe Illustrator 16.0.0, SVG Export Plug-In . SVG Version: 6.00 Build 0)  -->
<!DOCTYPE svg PUBLIC "-//W3C//DTD SVG 1.1//EN" "http://www.w3.org/Graphics/SVG/1.1/DTD/svg11.dtd">
<svg version="1.1" id="Layer_1" xmlns="http://www.w3.org/2000/svg" xmlns:xlink="http://www.w3.org/1999/xlink" x="0px" y="0px"
	 width="25px" height="38px" viewBox="0 0 25 38" enable-background="new 0 0 25 38" xml:space="preserve">
<title>Risorsa 1</title>
<path d="M5.5,0C2.467,0,0,2.467,0,5.5S2.467,11,5.5,11S11,8.533,11,5.5S8.533,0,5.5,0z M5.5,9C3.57,9,2,7.43,2,5.5S3.57,2,5.5,2
	S9,3.57,9,5.5S7.43,9,5.5,9z M5.5,13C2.467,13,0,15.467,0,18.5C0,21.532,2.467,24,5.5,24s5.5-2.468,5.5-5.5
	C11,15.467,8.533,13,5.5,13z M5.5,22C3.57,22,2,20.43,2,18.5C2,16.57,3.57,15,5.5,15S9,16.57,9,18.5C9,20.43,7.43,22,5.5,22z
	 M5.5,27C2.467,27,0,29.468,0,32.5S2.467,38,5.5,38s5.5-2.468,5.5-5.5S8.533,27,5.5,27z M5.5,36C3.57,36,2,34.43,2,32.5
	S3.57,29,5.5,29S9,30.57,9,32.5S7.43,36,5.5,36z M5.5,16C4.122,16,3,17.122,3,18.5C3,19.879,4.122,21,5.5,21S8,19.879,8,18.5
	C8,17.122,6.878,16,5.5,16z M5.5,19C5.224,19,5,18.776,5,18.5S5.224,18,5.5,18S6,18.224,6,18.5S5.776,19,5.5,19z M15,4.5h10v2H15
	V4.5z M15,17.5h10v2H15V17.5z M15,31.5h10v2H15V31.5z"/>
</svg>
