<?xml version="1.0" encoding="utf-8"?>
<!-- Generator: Adobe Illustrator 16.0.0, SVG Export Plug-In . SVG Version: 6.00 Build 0)  -->
<!DOCTYPE svg PUBLIC "-//W3C//DTD SVG 1.1//EN" "http://www.w3.org/Graphics/SVG/1.1/DTD/svg11.dtd">
<svg version="1.1" id="Layer_1" xmlns="http://www.w3.org/2000/svg" xmlns:xlink="http://www.w3.org/1999/xlink" x="0px" y="0px"
	 width="44px" height="16px" viewBox="0 0 44 16" enable-background="new 0 0 44 16" xml:space="preserve">
<title>Risorsa 4</title>
<path d="M41,0H3C1.346,0,0,1.346,0,3v10c0,1.654,1.346,3,3,3h38c1.654,0,3-1.346,3-3V3C44,1.346,42.654,0,41,0z M42,13
	c0,0.552-0.448,1-1,1H3c-0.551,0-1-0.448-1-1V3c0-0.551,0.449-1,1-1h38c0.552,0,1,0.449,1,1V13z M37.293,5.293l1.414,1.414
	L34,11.414l-4.707-4.707l1.414-1.414L34,8.586L37.293,5.293z"/>
</svg>
