<?xml version="1.0" encoding="utf-8"?>
<!-- Generator: Adobe Illustrator 16.0.0, SVG Export Plug-In . SVG Version: 6.00 Build 0)  -->
<!DOCTYPE svg PUBLIC "-//W3C//DTD SVG 1.1//EN" "http://www.w3.org/Graphics/SVG/1.1/DTD/svg11.dtd">
<svg version="1.1" id="Layer_1" xmlns="http://www.w3.org/2000/svg" xmlns:xlink="http://www.w3.org/1999/xlink" x="0px" y="0px"
	 width="48px" height="34px" viewBox="0 0 48 34" enable-background="new 0 0 48 34" xml:space="preserve">
<title>Risorsa 5</title>
<path fill="#505050" d="M45,0H3C1.346,0,0,1.346,0,3v28c0,1.654,1.346,3,3,3h42c1.654,0,3-1.346,3-3V3C48,1.346,46.654,0,45,0z
	 M46,31c0,0.552-0.448,1-1,1H3c-0.551,0-1-0.448-1-1V3c0-0.551,0.449-1,1-1h42c0.552,0,1,0.449,1,1V31z"/>
</svg>
