<?xml version="1.0" encoding="utf-8"?>
<!-- Generator: Adobe Illustrator 16.0.0, SVG Export Plug-In . SVG Version: 6.00 Build 0)  -->
<!DOCTYPE svg PUBLIC "-//W3C//DTD SVG 1.1//EN" "http://www.w3.org/Graphics/SVG/1.1/DTD/svg11.dtd">
<svg version="1.1" id="Layer_1" xmlns="http://www.w3.org/2000/svg" xmlns:xlink="http://www.w3.org/1999/xlink" x="0px" y="0px"
	 width="696px" height="556px" viewBox="0 0 696 556" enable-background="new 0 0 696 556" xml:space="preserve">
<g>
	<rect x="461.165" y="349.369" fill="#2E3851" width="0.003" height="0.001"/>
	<path fill="#2E3851" d="M316.458,395.965h99.847c2.408,0,4.36,1.953,4.36,4.36c0,2.408-1.952,4.36-4.36,4.36h-99.847
		c-2.408,0-4.36-1.952-4.36-4.36C312.098,397.918,314.05,395.965,316.458,395.965L316.458,395.965z"/>
	<path fill="#2E3851" d="M588.617,282.741c-2.09-0.884-4.395-1.372-6.791-1.372h-4.959h-8.793h-10.38c-0.008,0-0.016,0-0.023,0
		h-6.506H392.36c-2.408,0-4.36,1.952-4.36,4.36s1.952,4.36,4.36,4.36h158.805c0.001,0,0.001,0,0.001,0h1.043l-14.434,65.798
		c-0.629-3.917-1.459-8.198-2.566-12.535c-1.562-6.097-3.647-12.29-6.571-17.739c-1.954-3.631-4.285-6.948-7.193-9.632
		c-1.662-1.531-3.52-2.85-5.583-3.845c-2.354-1.139-4.98-1.839-7.76-1.969c-1.119-0.053-2.226-0.079-3.318-0.079
		c-6.594,0-12.727,0.969-18.242,2.938c-5.514,1.965-10.409,4.946-14.43,8.892c-7.002,6.872-10.956,16.297-10.959,26.066
		c0,0.335,0.004,0.671,0.014,1.01c0.027,0.994,0.376,2.474,1.541,4.394c1.17,1.926,3.145,4.318,6.614,7.323
		c2.315,2.003,5.303,4.275,9.188,6.848c3.291,2.179,7.232,4.573,11.954,7.19l-194.46-48.371V298.81
		c0.002-1.821,0.547-3.476,1.486-4.872c0.941-1.395,2.281-2.506,3.841-3.164c1.041-0.439,2.177-0.684,3.394-0.684l55.765-0.851
		c2.408,0,4.361-1.952,4.361-4.36s-2.804-3.51-5.212-3.51h-54.914c-0.089,0-0.177,0.004-0.266,0.006l0.001-0.148
		c-1.577,0.229-6.68,0.048-9.71,2.773c-2.496,2.245-4.767,4.885-6.094,8.02c-0.884,2.09-1.373,4.395-1.372,6.79v33.704h-0.001
		c0,0.008,0.002,0.014,0.002,0.021v135.447c-0.002,3.597,1.101,6.977,2.98,9.753c1.879,2.782,4.534,4.987,7.669,6.315
		c2.089,0.884,4.394,1.372,6.79,1.372h204.477c0,0,0,0,0.001,0h5.497c0.023,0,0.048,0,0.072,0l67.055,0.001
		c3.598,0.001,6.977-1.102,9.755-2.981c2.781-1.88,4.986-4.534,6.313-7.669c0.885-2.089,1.373-4.395,1.373-6.79v-62.761V298.81
		c0.002-3.597-1.102-6.976-2.981-9.754C594.406,286.275,591.752,284.068,588.617,282.741z M479.498,357.64
		c-5.054-3.675-7.576-6.342-8.735-7.895c-0.539-0.718-0.784-1.185-0.886-1.411c-0.001-0.116-0.005-0.232-0.005-0.349
		c-0.003-7.405,3.021-14.625,8.345-19.841c3.069-3.006,6.816-5.317,11.256-6.905c4.437-1.585,9.57-2.431,15.311-2.431
		c0.952,0,1.92,0.023,2.903,0.07c1.357,0.066,2.575,0.348,3.743,0.825c1.167,0.479,2.287,1.161,3.383,2.061
		c2.188,1.79,4.25,4.482,6.045,7.792c1.197,2.203,2.279,4.666,3.237,7.27c1.278,3.472,2.339,7.189,3.201,10.873
		c1.152,4.912,1.957,9.762,2.508,13.905c0.464,3.487,0.695,6.979,0.695,10.468c0,3.924-0.3,7.844-0.884,11.75
		c-7.202-3.045-16.798-7.303-26.282-12.121C492.122,366.008,484.55,361.317,479.498,357.64z M491.079,390.961
		c6.197-0.752,12.432-0.998,17.852-0.997c2.591,0,4.992,0.056,7.12,0.138l11.125,2.767c-3.81,6.659-9.004,15.382-14.723,23.996
		c-7.133,10.749-12.801,17.922-17.139,22.654c-4.336,4.735-7.344,7.017-9.066,8.037c-0.896,0.534-1.432,0.726-1.637,0.786
		c-3.215-0.028-6.401-0.783-9.377-2.209c-3.03-1.452-5.836-3.598-8.191-6.355c-2.459-2.881-4.357-6.313-5.654-10.248
		c-1.295-3.936-1.98-8.374-1.98-13.201c0-2.874,0.243-5.884,0.74-9c0.165-1.023,0.449-1.953,0.846-2.83
		c0.396-0.876,0.908-1.703,1.541-2.501c1.261-1.591,3.031-3.064,5.23-4.37c1.464-0.869,3.111-1.661,4.885-2.368
		c2.365-0.944,4.955-1.735,7.627-2.386C483.839,392.006,487.547,391.39,491.079,390.961z M511.274,476.701h-2.072H304.725
		c-1.821-0.001-3.476-0.545-4.873-1.486c-1.394-0.941-2.505-2.28-3.164-3.84c-0.438-1.041-0.682-2.177-0.684-3.393l0.001-132.617
		l190.586,47.408c-3.331,0.502-6.769,1.174-10.149,2.08c-4.559,1.227-9.014,2.865-12.967,5.182
		c-2.633,1.546-5.049,3.402-7.053,5.684c-1.145,1.303-2.149,2.744-2.959,4.326c-0.925,1.805-1.588,3.791-1.925,5.907
		c-0.566,3.544-0.851,7.011-0.851,10.376c0.001,5.649,0.801,11.011,2.418,15.927c1.616,4.913,4.058,9.383,7.307,13.187
		c3.126,3.66,6.898,6.564,11.054,8.557c4.153,1.99,8.696,3.069,13.327,3.069h0.035h0.006c0.725-0.001,1.672-0.142,2.832-0.553
		c1.162-0.412,2.543-1.091,4.197-2.195c3.308-2.216,7.738-6.128,13.728-13.331c3.991-4.804,8.668-11.076,14.128-19.302
		c1.904-2.868,3.744-5.738,5.496-8.539L511.274,476.701z M590.547,467.983c-0.002,1.82-0.546,3.476-1.486,4.872
		c-0.941,1.395-2.281,2.506-3.841,3.164c-1.041,0.439-2.177,0.684-3.394,0.684l-61.624-0.002L538,395.562l52.547,13.07V467.983z
		 M543.535,387.281c2.012-2.969,4.281-6.21,6.679-9.445c6.419-8.665,11.096-13.695,14.206-16.535
		c1.867-1.709,3.163-2.615,3.914-3.072c3.419,0.889,6.475,3.014,8.486,5.967c0.945,1.385,1.67,2.941,2.166,4.699
		c0.496,1.756,0.762,3.715,0.762,5.869c0,2.199-0.277,4.599-0.863,7.166c-0.065,0.283-0.159,0.531-0.296,0.781
		s-0.318,0.506-0.568,0.776c-0.494,0.538-1.279,1.129-2.343,1.674c-0.707,0.364-1.53,0.708-2.438,1.018
		c-1.212,0.413-2.573,0.767-4.008,1.054c-1.914,0.384-3.958,0.652-5.969,0.829c-2.683,0.236-5.306,0.313-7.514,0.312
		c-1.696,0-3.149-0.043-4.202-0.09C548.84,388.163,546.167,387.824,543.535,387.281z M590.547,399.646l-17.47-4.347
		c0.96-0.239,1.908-0.51,2.839-0.82c2.258-0.763,4.42-1.749,6.35-3.159c1.1-0.808,2.123-1.762,2.986-2.901
		c0.987-1.298,1.752-2.852,2.135-4.552c0.714-3.131,1.081-6.174,1.081-9.104c0.001-2.869-0.354-5.633-1.089-8.238
		c-0.735-2.604-1.855-5.05-3.357-7.248c-3.608-5.277-9.217-8.864-15.503-9.92c-0.654-0.109-1.333-0.066-1.97,0.124
		c-0.66,0.198-1.556,0.572-2.752,1.299c-1.195,0.728-2.692,1.808-4.557,3.452c-3.726,3.29-8.932,8.832-16.033,18.412
		c-0.086,0.115-0.17,0.23-0.256,0.347l18.186-82.901h20.689c1.821,0.002,3.477,0.546,4.873,1.486
		c1.395,0.941,2.506,2.281,3.164,3.842c0.439,1.041,0.684,2.176,0.684,3.392V399.646z"/>
	<path fill="#2E3851" d="M320.82,426.389l91.541-0.025l0.016,15.694l-91.552,0.022L320.82,426.389L320.82,426.389z M316.457,417.671
		c-1.148,0-2.271,0.465-3.083,1.277s-1.276,1.937-1.275,3.084l0.009,24.409c0.001,2.408,1.951,4.359,4.359,4.359h0.017
		l100.259-0.023c1.165-0.001,2.261-0.455,3.084-1.279s1.276-1.921,1.275-3.086l-0.023-24.414c-0.003-2.408-1.953-4.356-4.361-4.356
		L316.457,417.671L316.457,417.671z"/>
	<path fill="#2E3851" d="M376.892,290.465c-2.408,0-4.359-1.952-4.359-4.36s1.951-4.36,4.359-4.36s4.36,1.952,4.36,4.36
		S379.3,290.465,376.892,290.465L376.892,290.465z"/>
</g>
<path fill="none" stroke="#2E3851" stroke-width="5.6693" stroke-linecap="round" stroke-linejoin="round" stroke-miterlimit="10" d="
	M262.441,287.002c0,0-10-14.668-40-15.334"/>
<path fill="none" stroke="#2E3851" stroke-width="5.6693" stroke-linecap="round" stroke-linejoin="round" stroke-miterlimit="10" d="
	M265.441,270.002c0,0-10-14.668-40-15.334"/>
<path fill="none" stroke="#2E3851" stroke-width="5.6693" stroke-linecap="round" stroke-linejoin="round" stroke-miterlimit="10" d="
	M499.68,188.153c0,0-1.176-17.714-26.688-33.51"/>
<path fill="none" stroke="#2E3851" stroke-width="5.6693" stroke-linecap="round" stroke-linejoin="round" stroke-miterlimit="10" d="
	M510.891,175.027c0,0-1.174-17.714-26.687-33.511"/>
<g>
	<defs>
		<path id="SVGID_1_" d="M-1,52v504h720V52H-1z M546,481l-248.065,3.426c0,0-6.935-8.426-6.935-11.426s-3.716-173.815-3.716-173.815
			l12.451-16.908L581,293l8.863,2.793L546,481z"/>
	</defs>
	<clipPath id="SVGID_2_">
		<use xlink:href="#SVGID_1_"  overflow="visible"/>
	</clipPath>
	<g clip-path="url(#SVGID_2_)">
		<path fill="#2E3851" d="M73.27,293.616c1.075,1.542,2.268,2.966,3.564,4.283c-0.004,0.024-0.013,0.047-0.016,0.071
			c-0.08,0.708-1.84,17.478,9.35,28.378c2.846,2.771,6.242,4.887,10.169,6.349c0.407,3.967,2.443,15.913,12.378,22.226
			c3.01,1.91,6.443,3.085,10.259,3.574c0.655,4.313,3.016,13.463,11.458,18.521c4.818,2.885,10.766,3.904,17.763,3.104
			c1.249,5.654,5.082,17.5,15.931,23.241c5.336,2.825,11.564,3.753,18.625,2.788c0.746-0.102,1.504-0.232,2.269-0.376
			c1.059,2.491,3.257,6.033,7.78,8.915c10.918,6.951,29.084,6.539,53.986-1.22c26.219-8.175,38.385-4.812,43.977-0.556
			c6.23,4.746,6.07,11.777,6.061,12.074c-0.051,1.521,1.045,2.85,2.549,3.079c0.293,0.044,0.584,0.046,0.867,0.007
			c1.16-0.158,2.156-0.986,2.48-2.168c0.578-2.096,13.854-51.756-10.828-91.066c-13.998-22.293-37.398-36.574-69.553-42.445
			c-19.84-3.623-38.105-5.891-54.221-7.893c-43.063-5.346-74.176-9.21-95.244-33.123c-0.736-0.838-1.889-1.195-2.957-0.936
			c-1.084,0.262-1.934,1.102-2.207,2.182C67.457,253.614,61.697,277.015,73.27,293.616z M82.727,302.637
			c5.303,3.358,11.793,5.463,19.438,6.267c1.656,0.176,3.127-1.023,3.301-2.672c0.174-1.65-1.023-3.129-2.672-3.302
			c-11.236-1.182-19.506-5.464-24.578-12.726c-6.854-9.813-6.543-23.018-5.646-30.435c22.297,21.694,53.117,25.52,94.809,30.696
			c16.035,1.992,34.211,4.248,53.883,7.84c30.41,5.554,52.453,18.91,65.52,39.695c16.502,26.254,14.777,58.406,12.324,75.08
			c-1.145-1.688-2.641-3.354-4.592-4.861c-9.752-7.521-26.408-7.684-49.514-0.485c-28.596,8.915-42.301,6.015-48.768,2.017
			c-2.898-1.792-4.457-3.875-5.291-5.457c4.443-1.368,9.156-3.363,14.137-5.998c1.467-0.775,2.025-2.594,1.252-4.06
			c-0.777-1.466-2.594-2.022-4.061-1.251c-14.885,7.875-26.762,9.586-35.301,5.085c-8.495-4.477-11.728-14.225-12.836-18.993
			c5.417-1.288,11.367-3.512,17.844-6.68c1.49-0.729,2.105-2.527,1.379-4.02c-0.729-1.488-2.525-2.104-4.02-1.377
			c-6.988,3.42-13.303,5.652-18.836,6.691c-0.069,0.002-0.137-0.006-0.207,0.002c-0.138,0.021-0.268,0.061-0.399,0.098
			c-6.692,1.161-12.215,0.547-16.333-1.904c-5.672-3.374-7.715-9.583-8.44-13.186c1.09-0.061,2.197-0.154,3.339-0.311
			c5.156-0.705,10.838-2.377,17.025-5.018c1.527-0.652,2.236-2.418,1.584-3.942c-0.65-1.524-2.418-2.234-3.941-1.585
			c-13.604,5.809-24.088,6.489-31.154,2.025c-6.266-3.959-8.512-11.258-9.306-15.469c5.318,0.955,11.379,0.977,18.161,0.051
			c0.1-0.014,0.199-0.027,0.301-0.042c1.643-0.229,2.787-1.749,2.557-3.392c-0.229-1.639-1.742-2.783-3.381-2.56
			c-0.078-0.01-0.195,0.025-0.293,0.04c-13.375,1.827-23.34-0.334-29.619-6.426C84.255,316.124,82.935,307.596,82.727,302.637z"/>
		<path fill="#2E3851" d="M300.165,102.053c0.507,1.81,1.164,3.546,1.954,5.218c-0.012,0.022-0.027,0.04-0.038,0.063
			c-0.309,0.641-7.495,15.896-0.521,29.873c1.773,3.556,4.284,6.671,7.509,9.345c-0.922,3.881-2.936,15.83,4.365,25.063
			c2.212,2.795,5.067,5.036,8.508,6.754c-0.802,4.289-1.588,13.705,4.716,21.264c3.599,4.31,8.878,7.232,15.749,8.781
			c-0.684,5.75-0.967,18.198,7.384,27.193c4.107,4.425,9.683,7.352,16.667,8.768c0.738,0.15,1.497,0.275,2.266,0.393
			c0.179,2.7,1.087,6.769,4.409,10.98c8.018,10.16,25.307,15.756,51.375,16.633c27.449,0.92,37.828,8.104,41.705,13.965
			c4.319,6.533,1.852,13.119,1.744,13.396c-0.549,1.421,0.049,3.036,1.393,3.747c0.263,0.139,0.536,0.236,0.816,0.293
			c1.147,0.233,2.361-0.221,3.057-1.229c1.236-1.79,30.131-44.303,19.777-89.551c-5.871-25.66-23.261-46.853-51.687-62.989
			c-17.539-9.957-34.037-18.115-48.594-25.315c-38.897-19.233-67-33.132-79.014-62.651c-0.419-1.034-1.39-1.751-2.484-1.857
			c-1.11-0.11-2.189,0.403-2.803,1.333C307.855,62.369,294.708,82.566,300.165,102.053z M306.122,113.686
			c3.9,4.917,9.335,9.042,16.288,12.319c1.506,0.712,3.29,0.064,3.997-1.434c0.708-1.502,0.065-3.292-1.435-3.998
			c-10.22-4.818-16.617-11.585-19.014-20.113c-3.238-11.522,1.406-23.888,4.695-30.596c13.905,27.829,41.745,41.595,79.403,60.217
			c14.484,7.163,30.901,15.282,48.292,25.153c26.883,15.263,43.294,35.136,48.785,59.064c6.931,30.226-5.29,60.016-13.1,74.949
			c-0.524-1.971-1.388-4.037-2.733-6.102c-6.729-10.315-22.403-15.956-46.59-16.771c-29.937-1.004-41.921-8.256-46.709-14.163
			c-2.146-2.646-2.932-5.127-3.198-6.895c4.646,0.172,9.753-0.159,15.323-1.006c1.641-0.249,2.767-1.782,2.52-3.42
			c-0.251-1.642-1.783-2.765-3.422-2.521c-16.648,2.533-28.426,0.234-35.005-6.827c-6.546-7.026-6.387-17.294-5.863-22.162
			c5.54,0.567,11.89,0.429,19.048-0.429c1.647-0.197,2.821-1.693,2.626-3.341c-0.197-1.646-1.691-2.817-3.341-2.624
			c-7.725,0.928-14.422,0.955-19.989,0.111c-0.066-0.02-0.127-0.049-0.196-0.065c-0.137-0.026-0.272-0.03-0.409-0.04
			c-6.701-1.107-11.713-3.506-14.793-7.179c-4.244-5.053-4.127-11.589-3.625-15.229c1.049,0.302,2.125,0.578,3.255,0.807
			c5.101,1.033,11.016,1.326,17.729,0.871c1.656-0.113,2.907-1.545,2.793-3.199c-0.111-1.654-1.546-2.908-3.199-2.795
			c-14.758,1.002-24.88-1.811-30.082-8.352c-4.612-5.803-4.328-13.435-3.69-17.672c4.707,2.654,10.422,4.672,17.13,6.031
			c0.099,0.02,0.197,0.04,0.298,0.059c1.626,0.325,3.208-0.731,3.531-2.359c0.324-1.621-0.728-3.201-2.349-3.529
			c-0.071-0.036-0.193-0.042-0.29-0.059c-13.23-2.682-21.927-8.006-25.849-15.826C303.122,126.924,304.685,118.436,306.122,113.686z
			"/>
	</g>
</g>
<path fill="#2E3851" d="M297.633,282.776"/>
</svg>
