<svg xmlns="http://www.w3.org/2000/svg" viewBox="0 0 889 512">
    <path fill="#33B7FF" d="m831.9 494.8c-54 31.4-123.1 12.7-154.3-41.6L515.8 170.7c-31.2-54.4-12.6-124 41.3-155.4c54-31.5 123.1-12.8 154.3 41.6l161.9 282.4c31.2 54.4 12.6 123.9-41.3 155.4zM380.3 56.9C349.2 2.5 280.1-16.2 226.1 15.3c-54 31.4-72.5 101-41.3 155.4l161.9 282.4c31.2 54.4 100.3 73 154.3 41.6c54-31.5 72.5-101 41.3-155.4L380.3 56.9zM113.2 286.1C50.9 286.1 .3 336.7 .3 399.1S50.9 512 113.2 512 226.1 461.4 226.1 399.1 175.5 286.1 113.2 286.1z"></path>
</svg>
