<svg version="1.1" xmlns="http://www.w3.org/2000/svg" xmlns:xlink="http://www.w3.org/1999/xlink" x="0px" y="0px" width="39px"
	 height="41px" viewBox="0 0 39 41" enable-background="new 0 0 39 41" xml:space="preserve">
<g id="Layer_1">
	<g>
		<path fill="#000" d="M37.637,13.941c-0.154-0.201-0.394-0.319-0.646-0.319H8.669l-1.2-4.512C7.33,8.59,6.858,8.228,6.319,8.228
			H2.266c-0.657,0-1.189,0.532-1.189,1.189s0.532,1.189,1.189,1.189h3.14l4.83,18.158c-0.523,0.849-0.791,1.732-0.797,2.634
			c-0.008,1.087,0.367,2.183,1.113,3.257c0.223,0.32,0.588,0.511,0.977,0.511h0.893c-0.264,0.482-0.404,1.025-0.404,1.589
			c0,0.886,0.346,1.719,0.972,2.346c0.627,0.626,1.46,0.971,2.346,0.971s1.72-0.345,2.346-0.971c0.627-0.627,0.972-1.46,0.972-2.346
			c0-0.564-0.141-1.107-0.404-1.589h7.919c-0.264,0.482-0.404,1.025-0.404,1.589c0,0.886,0.345,1.719,0.972,2.346
			c0.626,0.626,1.46,0.971,2.346,0.971s1.719-0.345,2.346-0.971c0.627-0.627,0.972-1.46,0.972-2.346
			c0-0.564-0.141-1.107-0.404-1.589h0.664c0.656,0,1.189-0.533,1.189-1.189s-0.533-1.189-1.189-1.189H12.191
			c-0.56-1.054-0.489-1.999,0.212-2.992h20.678c0.368,0,0.69-0.247,0.785-0.603l3.91-14.546
			C37.842,14.403,37.79,14.142,37.637,13.941 M29.079,35.316c0.794,0,1.439,0.646,1.439,1.439c0,0.794-0.646,1.44-1.439,1.44
			s-1.439-0.646-1.439-1.44C27.64,35.962,28.285,35.316,29.079,35.316 M15.334,35.316c0.794,0,1.439,0.646,1.439,1.439
			c0,0.794-0.646,1.44-1.439,1.44s-1.439-0.646-1.439-1.44C13.895,35.962,14.54,35.316,15.334,35.316 M32.457,28.169H12.538
			L9.102,15.25H35.93L32.457,28.169z"/>
		<g>
			<path fill="#000" d="M19.112,26.221c-0.037,0-0.075-0.005-0.113-0.016c-0.225-0.063-0.356-0.296-0.294-0.521
				c0.206-0.74,1.144-2.142,3.217-2.156c2.327,0.011,3.087,1.54,3.255,2.017L24.786,25.7l0.073,0.427
				c-0.211,0.03-0.411-0.107-0.479-0.301c-0.155-0.44-0.689-1.445-2.452-1.452c-1.961,0.014-2.404,1.523-2.408,1.538
				C19.468,26.099,19.298,26.221,19.112,26.221z"/>
		</g>
		<circle fill="#000" cx="18.458" cy="20.663" r="1.4"/>
		<circle fill="#000" cx="25.428" cy="20.649" r="1.4"/>
		<g>
			<path fill="#000" d="M15.578,19.087c-0.154,0-0.294-0.105-0.331-0.262c-0.044-0.183,0.069-0.367,0.253-0.41
				c1.897-0.45,2.446-1.379,2.451-1.389c0.092-0.162,0.296-0.222,0.462-0.131c0.163,0.09,0.225,0.293,0.136,0.458
				c-0.026,0.049-0.67,1.198-2.893,1.725C15.63,19.083,15.604,19.087,15.578,19.087z"/>
		</g>
		<g>
			<path fill="#000" d="M28.13,18.956c-0.03,0-0.061-0.004-0.091-0.013c-2.201-0.609-2.801-1.782-2.825-1.832
				c-0.083-0.168-0.014-0.373,0.155-0.456c0.165-0.081,0.37-0.015,0.454,0.152c0.014,0.025,0.534,0.963,2.397,1.479
				c0.182,0.05,0.287,0.238,0.237,0.419C28.416,18.857,28.279,18.956,28.13,18.956z"/>
		</g>
		<g>
			<path fill="#000" d="M17.299,11.176c-0.115,0-0.23-0.047-0.314-0.139L13.2,6.893c-0.158-0.173-0.146-0.442,0.027-0.601
				c0.174-0.159,0.443-0.146,0.602,0.027l3.784,4.145c0.158,0.173,0.146,0.442-0.027,0.601
				C17.504,11.14,17.401,11.176,17.299,11.176z"/>
		</g>
		<g>
			<path fill="#000" d="M22.695,9.499c-0.234,0-0.424-0.189-0.425-0.424l-0.029-7.657c-0.001-0.236,0.238-0.441,0.425-0.427
				c0.234,0,0.424,0.189,0.425,0.424l0.029,7.657c0.001,0.235-0.188,0.426-0.423,0.427C22.696,9.499,22.696,9.499,22.695,9.499z"/>
		</g>
		<g>
			<path fill="#000" d="M27.464,11.353c-0.135,0-0.268-0.064-0.35-0.184c-0.134-0.193-0.085-0.458,0.108-0.591l5.227-3.604
				c0.191-0.132,0.458-0.085,0.591,0.109c0.134,0.193,0.085,0.458-0.108,0.591l-5.227,3.604
				C27.632,11.328,27.548,11.353,27.464,11.353z"/>
		</g>
	</g>
</g>
</svg>
