<svg version="1.1" id="Layer_1" xmlns="http://www.w3.org/2000/svg" xmlns:xlink="http://www.w3.org/1999/xlink" x="0px" y="0px"
	 viewBox="0 0 120 120" style="enable-background:new 0 0 120 120;" xml:space="preserve">
<style type="text/css">
	.st0{fill:#008FB3;}
	.st1{fill:#636363;stroke:#FFFFFF;stroke-miterlimit:10;}
	.st2{fill:#FFFFFF;stroke:#FFFFFF;stroke-miterlimit:10;}
</style>
<circle class="st0" cx="60" cy="60" r="50"/>
<g>
	<g>
		<g>
			<path class="st1" d="M65,79.7c-0.2,0-0.3-0.2-0.3-0.3v-1.6c0-2.2-1.8-3.9-3.9-3.9c-2.2,0-3.9,1.8-3.9,3.9v1.6
				c0,0.2-0.2,0.3-0.3,0.3c-0.2,0-0.3-0.2-0.3-0.3v-1.6c0-2.5,2.1-4.6,4.6-4.6c2.5,0,4.6,2.1,4.6,4.6v1.6
				C65.4,79.5,65.2,79.7,65,79.7z"/>
		</g>
		<g>
			<path class="st1" d="M68,94.6H53.6c-0.2,0-0.3-0.2-0.3-0.3V79.4c0-0.2,0.2-0.3,0.3-0.3H68c0.2,0,0.3,0.2,0.3,0.3v14.9
				C68.3,94.4,68.1,94.6,68,94.6z M53.9,93.9h13.7V79.7H53.9V93.9z"/>
		</g>
		<g>
			<path class="st1" d="M60.8,87.9c-1.3,0-2.3-1-2.3-2.3c0-1.3,1-2.3,2.3-2.3s2.3,1,2.3,2.3C63.1,86.9,62,87.9,60.8,87.9z M60.8,84
				c-0.9,0-1.6,0.7-1.6,1.6c0,0.9,0.7,1.6,1.6,1.6s1.6-0.7,1.6-1.6C62.4,84.7,61.7,84,60.8,84z"/>
		</g>
		<g>
			<path class="st1" d="M60.8,90.1c-0.2,0-0.3-0.2-0.3-0.3v-2.2c0-0.2,0.2-0.3,0.3-0.3c0.2,0,0.3,0.2,0.3,0.3v2.2
				C61.1,89.9,60.9,90.1,60.8,90.1z"/>
		</g>
	</g>
	<g>
		<g>
			<path class="st1" d="M66.6,58.7c-0.2,0-0.3-0.2-0.3-0.3V42.9c0-2.3,1.8-4.1,4.1-4.1h13.6c0.2,0,0.3,0.2,0.3,0.3s-0.2,0.3-0.3,0.3
				H70.3c-1.9,0-3.4,1.5-3.4,3.4v15.5C66.9,58.6,66.7,58.7,66.6,58.7z"/>
		</g>
		<g>
			<path class="st1" d="M83.9,58.7c-0.2,0-0.3-0.2-0.3-0.3V47.5c0-0.2,0.2-0.3,0.3-0.3s0.3,0.2,0.3,0.3v10.9
				C84.2,58.6,84.1,58.7,83.9,58.7z"/>
		</g>
		<g>
			<path class="st1" d="M86.1,44.7H69.9c-0.1,0-0.3-0.1-0.3-0.2c-0.1-0.1,0-0.3,0.1-0.4c0.5-0.5,0.8-1.2,0.8-1.9
				c0-0.2,0-0.5-0.1-0.7c0-0.2,0.1-0.4,0.2-0.4c0.2,0,0.4,0.1,0.4,0.2c0.1,0.2,0.1,0.5,0.1,0.8c0,0.7-0.2,1.3-0.5,1.8h15.4
				c0.5-0.5,0.7-1.1,0.7-1.8c0-1.5-1.2-2.8-2.8-2.8c-0.2,0-0.3-0.2-0.3-0.3s0.2-0.3,0.3-0.3c1.9,0,3.4,1.5,3.4,3.4
				c0,0.9-0.4,1.8-1,2.4C86.3,44.7,86.2,44.7,86.1,44.7z"/>
		</g>
	</g>
	<g>
		<g>
			<path class="st1" d="M43.4,54.4h-1.9c-0.2,0-0.3-0.2-0.3-0.3s0.2-0.3,0.3-0.3h1.9c0.2,0,0.3,0.2,0.3,0.3S43.6,54.4,43.4,54.4z"/>
		</g>
		<g>
			<path class="st1" d="M48.4,54.4h-1.9c-0.2,0-0.3-0.2-0.3-0.3s0.2-0.3,0.3-0.3h1.9c0.2,0,0.3,0.2,0.3,0.3S48.6,54.4,48.4,54.4z"/>
		</g>
		<g>
			<path class="st1" d="M53.3,54.4h-1.9c-0.2,0-0.3-0.2-0.3-0.3s0.2-0.3,0.3-0.3h1.9c0.2,0,0.3,0.2,0.3,0.3S53.5,54.4,53.3,54.4z"/>
		</g>
		<g>
			<path class="st1" d="M43.4,58.7h-1.9c-0.2,0-0.3-0.2-0.3-0.3s0.2-0.3,0.3-0.3h1.9c0.2,0,0.3,0.2,0.3,0.3S43.6,58.7,43.4,58.7z"/>
		</g>
		<g>
			<path class="st1" d="M48.4,58.7h-1.9c-0.2,0-0.3-0.2-0.3-0.3s0.2-0.3,0.3-0.3h1.9c0.2,0,0.3,0.2,0.3,0.3S48.6,58.7,48.4,58.7z"/>
		</g>
		<g>
			<path class="st1" d="M53.3,58.7h-1.9c-0.2,0-0.3-0.2-0.3-0.3s0.2-0.3,0.3-0.3h1.9c0.2,0,0.3,0.2,0.3,0.3S53.5,58.7,53.3,58.7z"/>
		</g>
		<g>
			<path class="st1" d="M43.4,63.1h-1.9c-0.2,0-0.3-0.2-0.3-0.3c0-0.2,0.2-0.3,0.3-0.3h1.9c0.2,0,0.3,0.2,0.3,0.3
				C43.7,63,43.6,63.1,43.4,63.1z"/>
		</g>
		<g>
			<path class="st1" d="M48.4,63.1h-1.9c-0.2,0-0.3-0.2-0.3-0.3c0-0.2,0.2-0.3,0.3-0.3h1.9c0.2,0,0.3,0.2,0.3,0.3
				C48.7,63,48.6,63.1,48.4,63.1z"/>
		</g>
		<g>
			<path class="st1" d="M53.3,63.1h-1.9c-0.2,0-0.3-0.2-0.3-0.3c0-0.2,0.2-0.3,0.3-0.3h1.9c0.2,0,0.3,0.2,0.3,0.3
				C53.6,63,53.5,63.1,53.3,63.1z"/>
		</g>
	</g>
	<g>
		<g>
			<path class="st1" d="M47.4,41c-1.6,0-3-1.3-3-3c0-0.2,0.2-0.3,0.3-0.3s0.3,0.2,0.3,0.3c0,1.3,1,2.3,2.3,2.3c1.3,0,2.3-1,2.3-2.3
				c0-1.1-0.6-1.7-2.4-2.3c-0.7-0.2-2.8-0.9-2.8-2.9c0-1.6,1.3-3,3-3c1.6,0,3,1.3,3,3c0,0.2-0.2,0.3-0.3,0.3c-0.2,0-0.3-0.2-0.3-0.3
				c0-1.3-1-2.3-2.3-2.3c-1.3,0-2.3,1-2.3,2.3c0,1,0.7,1.8,2.4,2.3c1.5,0.5,2.8,1.2,2.8,2.9C50.4,39.6,49.1,41,47.4,41z"/>
		</g>
		<g>
			<path class="st1" d="M47.4,30.5c-0.2,0-0.3-0.2-0.3-0.3v-1.5c0-0.2,0.2-0.3,0.3-0.3c0.2,0,0.3,0.2,0.3,0.3v1.5
				C47.8,30.4,47.6,30.5,47.4,30.5z"/>
		</g>
		<g>
			<path class="st1" d="M47.4,42.4c-0.2,0-0.3-0.2-0.3-0.3v-1.5c0-0.2,0.2-0.3,0.3-0.3c0.2,0,0.3,0.2,0.3,0.3v1.5
				C47.8,42.3,47.6,42.4,47.4,42.4z"/>
		</g>
	</g>
	<g>
		<path class="st1" d="M93.6,69.5H26.4c-0.1,0-0.2-0.1-0.3-0.1c-0.1-0.1-0.1-0.2,0-0.3l9.6-24.1c0.1-0.1,0.2-0.2,0.3-0.2h25.5
			c0.2,0,0.3,0.2,0.3,0.3s-0.2,0.3-0.3,0.3H36.3l-9.4,23.4h66.1L89,58.5c-0.1-0.2,0-0.4,0.2-0.4c0.2-0.1,0.4,0,0.4,0.2L93.9,69
			c0,0.1,0,0.2,0,0.3C93.8,69.4,93.7,69.5,93.6,69.5z"/>
	</g>
	<g>
		<path class="st1" d="M93.6,81.7H71.7c-0.2,0-0.3-0.2-0.3-0.3s0.2-0.3,0.3-0.3h21.6V69.1c0-0.2,0.2-0.3,0.3-0.3s0.3,0.2,0.3,0.3
			v12.2C93.9,81.5,93.7,81.7,93.6,81.7z"/>
	</g>
	<g>
		<path class="st1" d="M50.3,81.7H26.4c-0.2,0-0.3-0.2-0.3-0.3V69.1c0-0.2,0.2-0.3,0.3-0.3s0.3,0.2,0.3,0.3V81h23.5
			c0.2,0,0.3,0.2,0.3,0.3S50.5,81.7,50.3,81.7z"/>
	</g>
	<g>
		<path class="st1" d="M58.8,45.4c-0.2,0-0.3-0.2-0.3-0.3v-19H36.4v19c0,0.2-0.2,0.3-0.3,0.3s-0.3-0.2-0.3-0.3V25.7
			c0-0.2,0.2-0.3,0.3-0.3h22.7c0.2,0,0.3,0.2,0.3,0.3V45C59.1,45.2,59,45.4,58.8,45.4z"/>
	</g>
	<g>
		<path class="st1" d="M89.3,58.7H60c-0.2,0-0.3-0.2-0.3-0.3s0.2-0.3,0.3-0.3h29.3c0.2,0,0.3,0.2,0.3,0.3S89.4,58.7,89.3,58.7z"/>
	</g>
	<g>
		<g>
			<path class="st2" d="M80.7,50.3H69.9c-0.4,0-0.8-0.4-0.8-0.8c0-0.5,0.4-0.8,0.8-0.8h10.8c0.4,0,0.8,0.4,0.8,0.8
				C81.5,49.9,81.1,50.3,80.7,50.3z"/>
			<path class="st2" d="M80.7,50.4H69.9c-0.5,0-0.9-0.4-0.9-0.9c0-0.5,0.4-0.9,0.9-0.9h10.8c0.5,0,0.9,0.4,0.9,0.9
				C81.6,49.9,81.2,50.4,80.7,50.4z M69.9,48.7c-0.4,0-0.7,0.3-0.7,0.7c0,0.4,0.3,0.7,0.7,0.7h10.8c0.4,0,0.7-0.3,0.7-0.7
				c0-0.4-0.3-0.7-0.7-0.7H69.9z"/>
		</g>
	</g>
	<g>
		<g>
			<path class="st2" d="M80.7,54.8H69.9c-0.4,0-0.8-0.4-0.8-0.8c0-0.4,0.4-0.8,0.8-0.8h10.8c0.4,0,0.8,0.4,0.8,0.8
				C81.5,54.5,81.1,54.8,80.7,54.8z"/>
			<path class="st2" d="M80.7,55H69.9c-0.5,0-0.9-0.4-0.9-0.9c0-0.5,0.4-0.9,0.9-0.9h10.8c0.5,0,0.9,0.4,0.9,0.9
				C81.6,54.5,81.2,55,80.7,55z M69.9,53.3c-0.4,0-0.7,0.3-0.7,0.7s0.3,0.7,0.7,0.7h10.8c0.4,0,0.7-0.3,0.7-0.7
				c0-0.4-0.3-0.7-0.7-0.7H69.9z"/>
		</g>
	</g>
</g>
</svg>
