<svg version="1.1" id="Layer_1" xmlns="http://www.w3.org/2000/svg" xmlns:xlink="http://www.w3.org/1999/xlink" x="0px" y="0px"
	 viewBox="0 0 600 600" style="height: 1em; width: 1em; enable-background:new 0 0 600 600;" xml:space="preserve">
<style type="text/css">
	.register_st0{fill:none;stroke:currentcolor;stroke-width:10;stroke-linecap:round;stroke-linejoin:round;stroke-miterlimit:10;}
	.register_st1{fill:currentcolor;stroke:currentcolor;stroke-miterlimit:10;}
</style>
<g>
	<g>
		<path class="register_st0" d="M322.5,386.5v-7.1c0-10.5-8.5-19.1-19.1-19.1l0,0c-10.5,0-19.1,8.5-19.1,19.1v7.1"/>
		<rect x="271.2" y="386.5" class="register_st0" width="64.4" height="66.6"/>
		<circle class="register_st0" cx="303.4" cy="414.4" r="8.8"/>
		<line class="register_st0" x1="303.4" y1="423.2" x2="303.4" y2="432.9"/>
	</g>
	<g>
		<path class="register_st0" d="M329.3,292.8v-69.5c0-9.3,7.5-16.8,16.8-16.8h60.7"/>
		<line class="register_st0" x1="406.8" y1="243.9" x2="406.8" y2="292.8"/>
		<path class="register_st0" d="M406.8,206.5c7.6,0,13.8,6.2,13.8,13.8c0,3.8-1.5,7.2-4,9.7h-72.5c2.5-2.5,4-5.9,4-9.7c0-1.1-0.1-2.2-0.4-3.3
			"/>
	</g>
	<g>
		<line class="register_st0" x1="217.5" y1="273.2" x2="225.8" y2="273.2"/>
		<line class="register_st0" x1="239.6" y1="273.2" x2="248" y2="273.2"/>
		<line class="register_st0" x1="261.8" y1="273.2" x2="270.1" y2="273.2"/>
		<line class="register_st0" x1="217.5" y1="292.8" x2="225.8" y2="292.8"/>
		<line class="register_st0" x1="239.6" y1="292.8" x2="248" y2="292.8"/>
		<line class="register_st0" x1="261.8" y1="292.8" x2="270.1" y2="292.8"/>
		<line class="register_st0" x1="217.5" y1="312.4" x2="225.8" y2="312.4"/>
		<line class="register_st0" x1="239.6" y1="312.4" x2="248" y2="312.4"/>
		<line class="register_st0" x1="261.8" y1="312.4" x2="270.1" y2="312.4"/>
	</g>
	<g>
		<path class="register_st0" d="M232.1,201.6c0,6.4,5.2,11.7,11.7,11.7s11.7-5.2,11.7-11.7s-4.8-9.4-11.7-11.7c-6.1-2-11.7-5.2-11.7-11.7
			c0-6.4,5.2-11.7,11.7-11.7s11.7,5.2,11.7,11.7"/>
		<line class="register_st0" x1="243.8" y1="160.1" x2="243.8" y2="166.7"/>
		<line class="register_st0" x1="243.8" y1="213.3" x2="243.8" y2="219.9"/>
	</g>
	<polyline class="register_st0" points="307.2,233.1 300,233.1 193,233.1 150,340.8 300,340.8 450,340.8 430.8,292.8 	"/>
	<polyline class="register_st0" points="450,340.8 450,395.3 352.1,395.3 	"/>
	<polyline class="register_st0" points="256.5,395.3 150,395.3 150,340.8 	"/>
	<polyline class="register_st0" points="294.6,233.1 294.6,146.8 193,146.8 193,233.1 	"/>
	<line class="register_st0" x1="300" y1="292.8" x2="430.8" y2="292.8"/>
	<g>
		<path class="register_st1" d="M392.4,256.4h-48.3c-2,0-3.7-1.6-3.7-3.7s1.6-3.7,3.7-3.7h48.3c2,0,3.7,1.6,3.7,3.7S394.4,256.4,392.4,256.4z
			"/>
	</g>
	<g>
		<path class="register_st1" d="M392.4,276.9h-48.3c-2,0-3.7-1.6-3.7-3.7c0-2,1.6-3.7,3.7-3.7h48.3c2,0,3.7,1.6,3.7,3.7
			C396,275.2,394.4,276.9,392.4,276.9z"/>
	</g>
</g>
</svg>
