<svg version="1.1" xmlns="http://www.w3.org/2000/svg" xmlns:xlink="http://www.w3.org/1999/xlink" x="0px" y="0px"
	 viewBox="0 0 157.25 50.5" enable-background="new 0 0 157.25 50.5" xml:space="preserve">
<g id="Layer_1">
	<path fill="#293F54" d="M82.548,34.558c-2.548-0.042-4.171-2.489-4.238-2.594c-0.28-0.396-0.563-0.614-0.809-0.618
		c-0.395-0.006-0.72,0.529-0.762,0.604c-0.571,1.308-1.339,1.573-1.883,1.564c-0.28-0.005-0.569-0.081-0.854-0.227
		c-0.442-0.228-0.654-0.743-0.505-1.227l0.457-1.481c0.233-0.754,0.782-1.362,1.512-1.668l1.65-0.694
		c0.321-0.135,0.653-0.198,1.015-0.192c0.353,0.006,0.716,0.076,1.055,0.151l4.443,1.129l1.751,4.284l-0.252,0.165
		C84.281,34.301,83.413,34.572,82.548,34.558z M77.513,30.618c0.495,0.008,0.966,0.323,1.399,0.937
		c0.022,0.034,1.491,2.24,3.646,2.275c0.635,0.011,1.278-0.168,1.917-0.532l-1.381-3.378l-4.077-1.036
		c-0.289-0.064-0.608-0.127-0.897-0.132c-0.263-0.004-0.49,0.04-0.723,0.136l-1.648,0.693c-0.528,0.223-0.929,0.665-1.099,1.212
		l-0.458,1.48c-0.045,0.144,0.017,0.3,0.142,0.364c0.711,0.364,1.297,0.044,1.743-0.994l0.011-0.026
		C76.111,31.577,76.635,30.604,77.513,30.618z"/>
	<path fill="#293F54" d="M82.822,36.843l-2.6-3.75l1.171,0.507c0.004,0.002,0.565,0.238,1.304,0.25c0.77,0.013,1.442-0.216,2-0.682
		l0.382-0.32l1.206,2.956L82.822,36.843z M82.105,34.531l1.013,1.462l2.19-0.656l-0.539-1.321c-0.607,0.386-1.307,0.576-2.083,0.563
		C82.479,34.575,82.283,34.557,82.105,34.531z"/>
	<polygon fill="#293F54" points="68.659,35.757 65.234,34.36 65.509,33.686 68.283,34.818 70.924,28.912 68.094,27.664 
		68.387,26.998 71.888,28.54 	"/>
	<path fill="#9C5C8F" d="M106.5,17.459c0.162-0.19,0.267,12.819-0.25,13.25c-3.75,3.125-16.493,5.634-16.493,5.634l-3.531-8.912
		C86.226,27.432,102.25,22.459,106.5,17.459z"/>
	<path fill="#FFC500" d="M48.609,17.084c-0.162-0.19-0.267,12.819,0.25,13.25c3.75,3.125,16.493,5.634,16.493,5.634l3.531-8.912
		C68.884,27.057,52.859,22.084,48.609,17.084z"/>
	<polygon fill="#293F54" points="85.878,36.729 82.887,29.41 86.438,27.982 86.71,28.658 83.839,29.813 86.285,35.802 
		89.096,34.762 89.349,35.444 	"/>
	<path fill="#293F54" d="M82.59,38.831c-0.366-0.006-0.716-0.162-0.972-0.441l-3.271-3.587c-0.134-0.148-0.124-0.378,0.024-0.514
		c0.148-0.136,0.379-0.125,0.515,0.023l3.271,3.588c0.149,0.164,0.36,0.233,0.578,0.192c0.219-0.043,0.388-0.187,0.465-0.396
		c0.06-0.162,0.032-0.341-0.073-0.479l-2.376-3.08c-0.123-0.16-0.092-0.388,0.066-0.511c0.159-0.124,0.388-0.094,0.512,0.066
		l2.374,3.08c0.261,0.338,0.327,0.777,0.181,1.176c-0.165,0.446-0.543,0.766-1.009,0.857C82.779,38.824,82.685,38.833,82.59,38.831z
		"/>
	<path fill="#293F54" d="M80.908,40.005c-0.492-0.008-0.959-0.214-1.305-0.586l-2.754-2.977c-0.137-0.148-0.127-0.378,0.02-0.515
		c0.147-0.136,0.378-0.127,0.516,0.021l2.753,2.977c0.266,0.287,0.654,0.409,1.038,0.328c0.372-0.08,0.667-0.34,0.789-0.697
		l0.014-0.042c0.062-0.192,0.267-0.297,0.459-0.235c0.19,0.062,0.296,0.267,0.234,0.458l-0.017,0.052
		c-0.206,0.603-0.702,1.042-1.328,1.175C81.188,39.993,81.047,40.007,80.908,40.005z"/>
	<path fill="#293F54" d="M79.09,41.049c-0.035,0-0.067-0.001-0.1-0.004c-0.466-0.032-0.904-0.261-1.236-0.644l-2.277-2.611
		c-0.132-0.151-0.116-0.381,0.035-0.513c0.153-0.133,0.381-0.117,0.516,0.035l2.273,2.612c0.203,0.232,0.474,0.376,0.74,0.396
		c0.437,0.033,0.819-0.209,1.139-0.713c0.107-0.17,0.331-0.22,0.502-0.112c0.17,0.107,0.221,0.333,0.113,0.502
		C80.242,40.867,79.58,41.058,79.09,41.049z"/>
	<path fill="#293F54" d="M75.947,29.42c-1.995-0.492-4.492-0.333-4.517-0.331l-0.049-0.727c0.108-0.006,2.636-0.168,4.74,0.351
		L75.947,29.42z"/>
	<path fill="#293F54" d="M77.308,41.583c-0.337-0.005-0.664-0.139-0.911-0.383l-1.068-1.06c-3.372-3.415-6.523-5.684-6.554-5.707
		l0.424-0.591c0.032,0.022,3.231,2.328,6.646,5.783l1.066,1.057c0.16,0.16,0.387,0.213,0.605,0.145
		c0.099-0.031,0.331-0.135,0.382-0.428l0.724,0.085l-0.007,0.04c-0.082,0.477-0.412,0.849-0.878,0.997
		C77.595,41.565,77.451,41.586,77.308,41.583z"/>
	<path fill="#293F54" d="M71.086,37.48c-0.264-0.004-0.527-0.097-0.744-0.282c-0.232-0.195-0.368-0.469-0.387-0.771
		c-0.02-0.302,0.084-0.591,0.289-0.813l0.291-0.315l0.535,0.495l-0.293,0.314c-0.067,0.076-0.102,0.173-0.095,0.274
		c0.005,0.102,0.053,0.195,0.13,0.261c0.186,0.157,0.461,0.14,0.626-0.04l0.284-0.31l0.535,0.491l-0.282,0.311
		C71.737,37.355,71.411,37.486,71.086,37.48z"/>
	<path fill="#293F54" d="M72.125,39.15c-0.296-0.005-0.592-0.113-0.83-0.327c-0.254-0.228-0.406-0.541-0.426-0.882
		c-0.018-0.341,0.099-0.668,0.325-0.923l0.596-0.663l0.541,0.486l-0.595,0.663c-0.098,0.109-0.146,0.25-0.139,0.396
		s0.073,0.282,0.184,0.378c0.222,0.2,0.558,0.186,0.763-0.031l0.639-0.672l0.527,0.501l-0.637,0.673
		C72.815,39.021,72.469,39.156,72.125,39.15z"/>
	<path fill="#293F54" d="M73.67,40.154c-0.312-0.005-0.618-0.123-0.859-0.354c-0.5-0.482-0.52-1.285-0.041-1.789l0.413-0.436
		l0.527,0.501l-0.413,0.435c-0.202,0.215-0.195,0.558,0.019,0.763c0.214,0.207,0.556,0.2,0.765-0.012l0.431-0.442l0.52,0.508
		l-0.429,0.442C74.348,40.031,74.008,40.16,73.67,40.154z"/>
	<path fill="#293F54" d="M75.143,41.119c-0.303-0.005-0.605-0.122-0.837-0.35c-0.477-0.469-0.485-1.24-0.018-1.72l0.163-0.167
		l0.521,0.508l-0.163,0.167c-0.188,0.194-0.185,0.505,0.008,0.695c0.19,0.189,0.501,0.188,0.691,0l0.227-0.226l0.512,0.518
		l-0.226,0.223C75.778,41.007,75.46,41.125,75.143,41.119z"/>
	<g>
		<g>
			<path fill="none" stroke="#293F54" stroke-width="0.7389" stroke-miterlimit="10" d="M147.691,42.522
				c0,0.72-0.583,1.304-1.304,1.304h-38.53c-0.719,0-1.303-0.584-1.303-1.304V8.636c0-0.72,0.584-1.304,1.303-1.304h38.53
				c0.721,0,1.304,0.584,1.304,1.304V42.522z"/>
			
				<line fill="none" stroke="#293F54" stroke-width="0.7389" stroke-miterlimit="10" x1="106.311" y1="16.374" x2="147.609" y2="16.374"/>
			<circle fill="#9C5C8F" cx="109.894" cy="11.976" r="1.059"/>
			<circle fill="#9C5C8F" cx="115.108" cy="11.976" r="1.059"/>
			<circle fill="#9C5C8F" cx="120.321" cy="11.976" r="1.059"/>
			<circle fill="#293F54" cx="127.327" cy="11.976" r="0.652"/>
			<circle fill="#293F54" cx="130.618" cy="11.976" r="0.651"/>
			<circle fill="#293F54" cx="133.91" cy="11.976" r="0.652"/>
			<circle fill="#293F54" cx="137.201" cy="11.976" r="0.652"/>
			<circle fill="#293F54" cx="140.491" cy="11.976" r="0.651"/>
			<circle fill="#293F54" cx="143.781" cy="11.976" r="0.651"/>
		</g>
	</g>
	<g>
		<g>
			<g>
				<g>
					<path fill="none" stroke="#293F54" stroke-width="0.7389" stroke-miterlimit="10" d="M48.529,42.522
						c0,0.72-0.582,1.304-1.303,1.304H8.696c-0.719,0-1.304-0.584-1.304-1.304V8.636c0-0.72,0.585-1.304,1.304-1.304h38.53
						c0.721,0,1.303,0.584,1.303,1.304V42.522z"/>
					
						<line fill="none" stroke="#293F54" stroke-width="0.7389" stroke-miterlimit="10" x1="7.148" y1="16.374" x2="48.448" y2="16.374"/>
					<circle fill="#00B1CC" cx="10.733" cy="11.976" r="1.059"/>
					<circle fill="#00B1CC" cx="15.946" cy="11.976" r="1.059"/>
					<circle fill="#00B1CC" cx="21.16" cy="11.976" r="1.059"/>
					<circle fill="#293F54" cx="28.165" cy="11.976" r="0.651"/>
					<circle fill="#293F54" cx="31.457" cy="11.976" r="0.652"/>
					<circle fill="#293F54" cx="34.748" cy="11.976" r="0.652"/>
					<circle fill="#293F54" cx="38.04" cy="11.976" r="0.652"/>
					<circle fill="#293F54" cx="41.33" cy="11.976" r="0.652"/>
					<circle fill="#293F54" cx="44.62" cy="11.976" r="0.652"/>
				</g>
			</g>
			<g id="XMLID_163_">
				
					<path id="XMLID_184_" fill="none" stroke="#293F54" stroke-width="0.6314" stroke-linecap="round" stroke-linejoin="round" stroke-miterlimit="10" d="
					M28.812,24.801h-9.134c-0.395,0-0.715,0.32-0.715,0.714v3.772"/>
				
					<path id="XMLID_183_" fill="none" stroke="#293F54" stroke-width="0.6314" stroke-linecap="round" stroke-linejoin="round" stroke-miterlimit="10" d="
					M35.106,29.288v-3.772c0-0.395-0.32-0.714-0.715-0.714h-1.813"/>
				
					<polygon id="XMLID_182_" fill="none" stroke="#293F54" stroke-width="0.6314" stroke-linecap="round" stroke-linejoin="round" stroke-miterlimit="10" points="
					37.83,35.513 35.106,29.288 18.963,29.288 16.24,35.513 				"/>
				
					<polyline id="XMLID_181_" fill="none" stroke="#293F54" stroke-width="0.6314" stroke-linecap="round" stroke-linejoin="round" stroke-miterlimit="10" points="
					27.166,34.352 35.883,34.352 34.259,30.449 19.777,30.449 18.15,34.352 27.166,34.352 				"/>
				
					<path id="XMLID_180_" fill="none" stroke="#293F54" stroke-width="0.6314" stroke-linecap="round" stroke-linejoin="round" stroke-miterlimit="10" d="
					M37.83,35.513v3.233c0,0.229-0.186,0.416-0.417,0.416H16.656c-0.229,0-0.416-0.186-0.416-0.416v-3.233"/>
				
					<line id="XMLID_179_" fill="none" stroke="#293F54" stroke-width="0.6314" stroke-linecap="round" stroke-linejoin="round" stroke-miterlimit="10" x1="33.426" y1="31.768" x2="32.378" y2="31.768"/>
				
					<line id="XMLID_178_" fill="none" stroke="#293F54" stroke-width="0.6314" stroke-linecap="round" stroke-linejoin="round" stroke-miterlimit="10" x1="31.741" y1="31.768" x2="30.695" y2="31.768"/>
				
					<line id="XMLID_177_" fill="none" stroke="#293F54" stroke-width="0.6314" stroke-linecap="round" stroke-linejoin="round" stroke-miterlimit="10" x1="30.059" y1="31.768" x2="29.012" y2="31.768"/>
				
					<line id="XMLID_176_" fill="none" stroke="#293F54" stroke-width="0.6314" stroke-linecap="round" stroke-linejoin="round" stroke-miterlimit="10" x1="33.426" y1="33.032" x2="32.378" y2="33.032"/>
				
					<line id="XMLID_175_" fill="none" stroke="#293F54" stroke-width="0.6314" stroke-linecap="round" stroke-linejoin="round" stroke-miterlimit="10" x1="31.741" y1="33.032" x2="30.695" y2="33.032"/>
				
					<line id="XMLID_174_" fill="none" stroke="#293F54" stroke-width="0.6314" stroke-linecap="round" stroke-linejoin="round" stroke-miterlimit="10" x1="30.059" y1="33.032" x2="29.012" y2="33.032"/>
				
					<line id="XMLID_173_" fill="none" stroke="#293F54" stroke-width="0.6314" stroke-linecap="round" stroke-linejoin="round" stroke-miterlimit="10" x1="25.443" y1="37.336" x2="28.628" y2="37.336"/>
				
					<line id="XMLID_172_" fill="none" stroke="#293F54" stroke-width="0.6314" stroke-linecap="round" stroke-linejoin="round" stroke-miterlimit="10" x1="21.371" y1="24.801" x2="21.371" y2="23.277"/>
				
					<path id="XMLID_171_" fill="none" stroke="#293F54" stroke-width="0.6314" stroke-linecap="round" stroke-linejoin="round" stroke-miterlimit="10" d="
					M23.452,23.277h-4.161c-0.181,0-0.328-0.147-0.328-0.328v-1.851c0-0.181,0.147-0.328,0.328-0.328h4.161
					c0.181,0,0.327,0.147,0.327,0.328v1.851C23.779,23.13,23.633,23.277,23.452,23.277z"/>
				
					<polygon id="XMLID_170_" fill="none" stroke="#293F54" stroke-width="0.6314" stroke-linecap="round" stroke-linejoin="round" stroke-miterlimit="10" points="
					28.812,22.027 29.231,22.027 30.141,22.74 30.695,22.027 32.578,22.027 32.578,27.474 28.812,27.474 				"/>
				
					<line id="XMLID_169_" fill="none" stroke="#293F54" stroke-width="0.6314" stroke-linecap="round" stroke-linejoin="round" stroke-miterlimit="10" x1="32.578" y1="27.474" x2="33.519" y2="27.474"/>
				
					<line id="XMLID_168_" fill="none" stroke="#293F54" stroke-width="0.6314" stroke-linecap="round" stroke-linejoin="round" stroke-miterlimit="10" x1="28.812" y1="27.474" x2="27.902" y2="27.474"/>
				
					<line id="XMLID_167_" fill="none" stroke="#293F54" stroke-width="0.6314" stroke-linecap="round" stroke-linejoin="round" stroke-miterlimit="10" x1="31.273" y1="23.856" x2="31.741" y2="23.856"/>
				
					<line id="XMLID_166_" fill="none" stroke="#293F54" stroke-width="0.6314" stroke-linecap="round" stroke-linejoin="round" stroke-miterlimit="10" x1="29.637" y1="23.856" x2="30.979" y2="23.856"/>
				
					<line id="XMLID_165_" fill="none" stroke="#293F54" stroke-width="0.6314" stroke-linecap="round" stroke-linejoin="round" stroke-miterlimit="10" x1="30.426" y1="25.639" x2="31.741" y2="25.639"/>
				
					<line id="XMLID_164_" fill="none" stroke="#293F54" stroke-width="0.6314" stroke-linecap="round" stroke-linejoin="round" stroke-miterlimit="10" x1="29.637" y1="25.639" x2="30.133" y2="25.639"/>
			</g>
		</g>
		<path fill="#00B1CC" d="M26.302,31.387c0,0-3.65,0.767-6.601,2.085l0.608-2.085H26.302z"/>
		<path fill="#00B1CC" d="M27.083,25.829c0,0-5.124,0.348-7.035,2.605l-0.086-2.605H27.083z"/>
		<rect x="19.962" y="21.661" fill="#FFC500" width="2.691" height="0.608"/>
	</g>
	<g id="XMLID_162_">
		<path fill="#293F54" stroke="#293F54" stroke-width="0.2835" stroke-miterlimit="10" d="M77.267,21.742
			c-0.08,0-0.157-0.035-0.21-0.096c-0.631-0.735-1.383-1.344-2.11-1.934c-1.614-1.307-3.138-2.541-2.94-4.838
			c0.126-1.443,1.418-2.617,2.882-2.617c1.04,0,1.944,0.601,2.379,1.475c0.436-0.874,1.337-1.475,2.378-1.475
			c1.464,0,2.758,1.173,2.882,2.617c0.198,2.297-1.326,3.531-2.939,4.838c-0.727,0.589-1.479,1.198-2.11,1.934
			C77.424,21.707,77.348,21.742,77.267,21.742z M74.888,12.811c-1.185,0-2.229,0.947-2.33,2.111
			c-0.173,2.004,1.175,3.096,2.736,4.36c0.669,0.542,1.36,1.101,1.973,1.768c0.613-0.667,1.303-1.226,1.972-1.768
			c1.562-1.264,2.909-2.356,2.736-4.36c-0.1-1.165-1.146-2.111-2.33-2.111c-1.159,0-2.102,0.943-2.102,2.102
			c0,0.153-0.124,0.276-0.276,0.276s-0.277-0.124-0.277-0.276C76.989,13.753,76.047,12.811,74.888,12.811z"/>
	</g>
	<g>
		<path fill="#9C5C8F" d="M117.656,21.296l-0.996,3.044h-0.757l-0.669-2.062l-0.691,2.062h-0.753l-1-3.044h0.73l0.688,2.14
			l0.717-2.14h0.652l0.696,2.156l0.709-2.156H117.656z"/>
		<path fill="#9C5C8F" d="M117.822,22.817c0-0.904,0.704-1.574,1.665-1.574c0.957,0,1.666,0.665,1.666,1.574
			s-0.709,1.574-1.666,1.574C118.526,24.392,117.822,23.722,117.822,22.817z M120.439,22.817c0-0.578-0.408-0.974-0.952-0.974
			c-0.543,0-0.952,0.396-0.952,0.974s0.409,0.975,0.952,0.975C120.031,23.792,120.439,23.396,120.439,22.817z"/>
		<path fill="#9C5C8F" d="M121.493,22.817c0-0.904,0.704-1.574,1.665-1.574c0.957,0,1.666,0.665,1.666,1.574
			s-0.709,1.574-1.666,1.574C122.197,24.392,121.493,23.722,121.493,22.817z M124.11,22.817c0-0.578-0.408-0.974-0.952-0.974
			c-0.543,0-0.952,0.396-0.952,0.974s0.409,0.975,0.952,0.975C123.702,23.792,124.11,23.396,124.11,22.817z"/>
		<path fill="#293F54" d="M127.315,23.688h-1.413l-0.27,0.652h-0.722l1.356-3.044h0.696l1.361,3.044h-0.739L127.315,23.688z
			 M127.094,23.152l-0.482-1.165l-0.482,1.165H127.094z"/>
		<path fill="#293F54" d="M128.643,21.296h1.383c0.995,0,1.679,0.6,1.679,1.521s-0.684,1.522-1.679,1.522h-1.383V21.296z
			 M129.99,23.761c0.604,0,1-0.36,1-0.943s-0.396-0.943-1-0.943h-0.644v1.887H129.99z"/>
		<path fill="#293F54" d="M135.004,24.34L135,22.513l-0.896,1.505h-0.317l-0.892-1.465v1.787h-0.66v-3.044h0.582l1.14,1.892
			l1.122-1.892h0.578l0.009,3.044H135.004z"/>
		<path fill="#293F54" d="M136.388,21.296h0.704v3.044h-0.704V21.296z"/>
		<path fill="#293F54" d="M140.606,21.296v3.044h-0.579l-1.518-1.849v1.849h-0.695v-3.044h0.582l1.514,1.848v-1.848H140.606z"/>
	</g>
	<g>
		<g>
			<g>
				<g>
					<g>
						<path fill="#293F54" d="M120.743,39.308h-2.568v-8.955h2.568V39.308z M118.876,38.625h1.166v-7.59h-1.166V38.625z"/>
					</g>
				</g>
			</g>
		</g>
		<g>
			<g>
				<g>
					<g>
						<path fill="#293F54" d="M125.82,39.308h-2.568v-5.154h2.568V39.308z M123.953,38.625h1.167v-3.789h-1.167V38.625z"/>
					</g>
				</g>
			</g>
		</g>
		<g>
			<g>
				<g>
					<g>
						<path fill="#293F54" d="M130.897,39.308h-2.567v-8.955h2.567V39.308z M129.03,38.625h1.167v-7.59h-1.167V38.625z"/>
					</g>
				</g>
			</g>
		</g>
		<g>
			<g>
				<g>
					<g>
						<path fill="#293F54" d="M135.976,39.308h-2.568v-5.793h2.568V39.308z M134.108,38.625h1.166v-4.427h-1.166V38.625z"/>
					</g>
				</g>
			</g>
		</g>
		<g>
			<g>
				<g>
					<g>
						<path fill="#9C5C8F" d="M124.536,31.826c-0.075,0-0.149-0.023-0.214-0.071l-5.077-3.801c-0.153-0.114-0.183-0.329-0.064-0.479
							c0.117-0.15,0.338-0.178,0.491-0.063l4.864,3.641l4.864-3.641c0.117-0.088,0.277-0.095,0.402-0.017l5.078,3.162
							c0.162,0.101,0.21,0.313,0.105,0.471c-0.104,0.159-0.32,0.206-0.483,0.104l-4.87-3.033l-4.883,3.654
							C124.688,31.803,124.611,31.826,124.536,31.826z"/>
					</g>
				</g>
			</g>
		</g>
	</g>
</g>
<g id="txt">
</g>
</svg>
