<svg width="32" height="32" viewBox="0 0 14 14" fill="currentColor" xmlns="http://www.w3.org/2000/svg"><path d="M14,3.1c0-0.4-0.3-0.8-0.6-1c0.4-0.2,0.6-0.5,0.6-1C14,0.5,13.5,0,12.9,0c-0.4,0-0.8,0.3-1,0.6 c-0.2-0.4-0.5-0.6-1-0.6s-0.8,0.3-1,0.6C9.8,0.3,9.4,0,9,0C8.5,0,8.2,0.3,8,0.6C7.8,0.3,7.4,0,7,0S6.2,0.3,6,0.6C5.8,0.3,5.5,0,5,0 C4.6,0,4.2,0.3,4,0.6C3.9,0.3,3.5,0,3.1,0s-0.8,0.3-1,0.6C1.9,0.3,1.5,0,1.1,0C0.5,0,0,0.5,0,1.1c0,0.4,0.3,0.8,0.6,1 C0.3,2.2,0,2.6,0,3.1s0.3,0.8,0.6,1C0.3,4.2,0,4.6,0,5c0,0.4,0.3,0.8,0.6,1C0.3,6.2,0,6.6,0,7s0.3,0.8,0.6,1C0.3,8.2,0,8.5,0,9 c0,0.4,0.3,0.8,0.6,1c-0.4,0.2-0.6,0.5-0.6,1s0.3,0.8,0.6,1c-0.4,0.2-0.6,0.5-0.6,1C0,13.5,0.5,14,1.1,14c0.4,0,0.8-0.3,1-0.6 c0.2,0.4,0.5,0.6,1,0.6s0.8-0.3,1-0.6C4.2,13.7,4.6,14,5,14c0.4,0,0.8-0.3,1-0.6C6.2,13.7,6.6,14,7,14s0.8-0.3,1-0.6 C8.2,13.7,8.5,14,9,14c0.4,0,0.8-0.3,1-0.6c0.2,0.4,0.5,0.6,1,0.6s0.8-0.3,1-0.6c0.2,0.4,0.5,0.6,1,0.6c0.6,0,1.1-0.5,1.1-1.1 c0-0.4-0.3-0.8-0.6-1c0.4-0.2,0.6-0.5,0.6-1s-0.3-0.8-0.6-1C13.7,9.8,14,9.4,14,9c0-0.4-0.3-0.8-0.6-1C13.7,7.8,14,7.4,14,7 s-0.3-0.8-0.6-1C13.7,5.8,14,5.5,14,5c0-0.4-0.3-0.8-0.6-1C13.7,3.9,14,3.5,14,3.1z M11.9,12.5c-0.2-0.4-0.5-0.6-1-0.6 s-0.8,0.3-1,0.6c-0.2-0.4-0.5-0.6-1-0.6c-0.4,0-0.8,0.3-1,0.6c-0.2-0.4-0.5-0.6-1-0.6s-0.8,0.3-1,0.6c-0.2-0.4-0.5-0.6-1-0.6 c-0.4,0-0.8,0.3-1,0.6c-0.2-0.4-0.5-0.6-1-0.6s-0.8,0.3-1,0.6C2,12.2,1.8,12,1.5,11.9c0.4-0.2,0.6-0.5,0.6-1s-0.3-0.8-0.6-1 c0.4-0.2,0.6-0.5,0.6-1c0-0.4-0.3-0.8-0.6-1c0.4-0.2,0.6-0.5,0.6-1S1.9,6.2,1.5,6c0.4-0.2,0.6-0.5,0.6-1c0-0.4-0.3-0.8-0.6-1 c0.4-0.2,0.6-0.5,0.6-1s-0.3-0.8-0.6-1C1.8,2,2,1.8,2.1,1.5c0.2,0.4,0.5,0.6,1,0.6s0.8-0.3,1-0.6c0.2,0.4,0.5,0.6,1,0.6 c0.4,0,0.8-0.3,1-0.6c0.2,0.4,0.5,0.6,1,0.6s0.8-0.3,1-0.6c0.2,0.4,0.5,0.6,1,0.6c0.4,0,0.8-0.3,1-0.6c0.2,0.4,0.5,0.6,1,0.6 s0.8-0.3,1-0.6C12,1.8,12.2,2,12.5,2.1c-0.4,0.2-0.6,0.5-0.6,1s0.3,0.8,0.6,1c-0.4,0.2-0.6,0.5-0.6,1c0,0.4,0.3,0.8,0.6,1 c-0.4,0.2-0.6,0.5-0.6,1s0.3,0.8,0.6,1c-0.4,0.2-0.6,0.5-0.6,1c0,0.4,0.3,0.8,0.6,1c-0.4,0.2-0.6,0.5-0.6,1s0.3,0.8,0.6,1 C12.2,12,12,12.2,11.9,12.5z"></path></svg>