<?xml version="1.0" encoding="utf-8"?>
<!-- Generator: Adobe Illustrator 24.2.1, SVG Export Plug-In . SVG Version: 6.00 Build 0)  -->
<svg version="1.1" id="Layer_1" xmlns="http://www.w3.org/2000/svg" xmlns:xlink="http://www.w3.org/1999/xlink" x="0px" y="0px"
	 viewBox="0 0 852 384" style="enable-background:new 0 0 852 384;" xml:space="preserve">
<style type="text/css">
	.st0{fill:#06429E;}
	.st1{fill:#03ABA3;}
	.st2{fill:#008C9D;}
	.st3{fill:#20D1CC;}
	.st4{fill:#0282C9;}
	.st5{fill:#016BB1;}
	.st6{fill:#01569A;}
	.st7{fill:#FFFFFF;}
</style>
<g>
	<g>
		<g>
			<path class="st0" d="M541.1,252c-3.5,0-6.9,1.6-8.7,5.4c-1.2-3.9-4.3-5.4-8.3-5.4c-2.8,0-5.8,1.2-7.2,4.1c0,0,0-1.5,0-1.6
				c0-1.1-0.9-2.1-2.1-2.1s-2.1,0.9-2.1,2.1c0,0,0,21,0,21c0,1.1,0.9,2.1,2.1,2.1s2.1-0.9,2.1-2.1h0v-12.4c0-4,2.6-7.2,6.6-7.2
				c4.4,0,6.7,3,6.7,7.2v12.5h0c0,1.1,0.9,2,2,2c1.1,0,2-0.9,2-2v-12.5c0-4,2.7-7.2,6.7-7.2c4.4,0,6.4,2.9,6.4,7.1v12.6h0
				c0,1.1,0.9,2,2,2c1.1,0,2-0.9,2-2V263C551.5,256.3,548,252,541.1,252z"/>
			<path class="st0" d="M612.9,252c-3.5,0-6.9,1.6-8.7,5.4c-1.2-3.9-4.3-5.4-8.3-5.4c-2.8,0-5.8,1.2-7.2,4.1c0,0,0-1.5,0-1.6
				c0-1.1-0.9-2.1-2.1-2.1s-2.1,0.9-2.1,2.1c0,0,0,21,0,21c0,1.1,0.9,2.1,2.1,2.1s2.1-0.9,2.1-2.1h0v-12.4c0-4,2.6-7.2,6.6-7.2
				c4.4,0,6.7,3,6.7,7.2v12.5h0c0,1.1,0.9,2,2,2c1.1,0,2-0.9,2-2v-12.5c0-4,2.7-7.2,6.7-7.2c4.4,0,6.4,2.9,6.4,7.1v12.6h0
				c0,1.1,0.9,2,2,2c1.1,0,2-0.9,2-2V263C623.3,256.3,619.8,252,612.9,252z"/>
			<path class="st0" d="M578.6,266.4c1,0,1.8-0.8,1.8-1.8c0-8.7-5.4-12.6-12.4-12.6c-7.4,0-12.8,5.3-12.8,12.8
				c0,7.8,5.3,12.9,13,12.9c3.6,0,7.7-1.3,10.1-3.8c0.4-0.4,0.5-0.8,0.5-1.3c0-1-0.8-1.8-1.8-1.8c-0.5,0-1,0.2-1.3,0.6
				c-1.8,1.7-4.8,2.6-7.4,2.6c-4.7,0-8.5-2.8-8.9-7.4L578.6,266.4z M559.3,263c0.7-4.7,4.4-7.3,8.7-7.3c4.8,0,8.1,2.6,8.3,7.3H559.3
				z"/>
			<path class="st0" d="M680.4,266.4c1,0,1.8-0.8,1.8-1.8c0-8.7-5.4-12.6-12.4-12.6c-7.4,0-12.8,5.3-12.8,12.8
				c0,7.8,5.3,12.9,13,12.9c3.6,0,7.7-1.3,10.1-3.8c0.4-0.4,0.5-0.8,0.5-1.3c0-1-0.8-1.8-1.8-1.8c-0.5,0-1,0.2-1.3,0.6
				c-1.8,1.7-4.8,2.6-7.4,2.6c-4.7,0-8.5-2.8-8.9-7.4L680.4,266.4z M661.1,263c0.7-4.7,4.4-7.3,8.7-7.3c4.8,0,8.1,2.6,8.3,7.3H661.1
				z"/>
			<path class="st0" d="M779.6,266.4c1,0,1.8-0.8,1.8-1.8c0-8.7-5.4-12.6-12.4-12.6c-7.4,0-12.8,5.3-12.8,12.8
				c0,7.8,5.3,12.9,13,12.9c3.6,0,7.7-1.3,10.1-3.8c0.4-0.4,0.5-0.8,0.5-1.3c0-1-0.8-1.8-1.8-1.8c-0.5,0-1,0.2-1.3,0.6
				c-1.8,1.7-4.8,2.6-7.4,2.6c-4.7,0-8.5-2.8-8.9-7.4L779.6,266.4z M760.4,263c0.7-4.7,4.4-7.3,8.7-7.3c4.8,0,8.1,2.6,8.3,7.3H760.4
				z"/>
			<path class="st0" d="M641.7,252c-3.4,0-7.5,1.5-9.2,4.9l0-12.7c0-1.1-0.9-2-2-2s-2,0.9-2,2v31.3c0,1.1,0.9,2,2,2s2-0.9,2-2l0-2.7
				c1.8,3.2,5.5,4.7,9.1,4.7c7.1,0,12.6-4.6,12.6-12.7C654.2,256.5,648.8,252,641.7,252z M641.4,273.7c-4.9,0-8.7-3.6-8.7-8.9
				c0-5.3,3.8-8.9,8.7-8.9c4.8,0,8.7,3.1,8.7,9C650.1,270.4,646.2,273.7,641.4,273.7z"/>
			<path class="st0" d="M720.6,252c-3.6,0-7.3,1.4-9.1,4.7l0-2.7c0-1.1-0.9-2-2-2c-1.1,0-2,0.9-2,2.1c0,0,0,31.7,0,32.8s0.9,2,2,2
				c1.1,0,2-0.9,2-2c0-1.1,0-14.2,0-14.2c1.7,3.3,5.7,4.9,9.2,4.9c7,0,12.5-4.4,12.5-12.8C733.2,256.6,727.7,252,720.6,252z
				 M720.3,273.7c-4.8,0-8.7-3.6-8.7-8.9c0-5.3,3.8-8.9,8.7-8.9c4.8,0,8.7,3.2,8.7,8.9C729,270.6,725.1,273.7,720.3,273.7z"/>
			<path class="st0" d="M702.7,253c-1.4-0.7-2.8-1-4.4-1c-3,0-6.1,1.1-7.7,3.8V254c0-1.1-0.9-2-2-2s-2,0.9-2,2c0,0,0,20.4,0,21.6
				c0,1.1,0.9,2,2,2c1.1,0,2-0.9,2-2c0-1.1,0-12.2,0-12.2c0-4.7,2.6-7.3,7.3-7.4c1.1,0,2.1,0.2,3,0.6c0.3,0.1,0.5,0.2,0.8,0.2
				c1.1,0,2-0.9,2-2C703.9,254,703.4,253.3,702.7,253z"/>
			<path class="st0" d="M753.8,253c-1.4-0.7-2.8-1-4.4-1c-3,0-6.1,1.1-7.7,3.8V254c0-1.1-0.9-2-2-2c-1.1,0-2,0.9-2,2
				c0,0,0,20.4,0,21.6c0,1.1,0.9,2,2,2s2-0.9,2-2c0-1.1,0-12.2,0-12.2c0-4.7,2.6-7.3,7.3-7.4c1.1,0,2.1,0.2,3,0.6
				c0.3,0.1,0.5,0.2,0.8,0.2c1.1,0,2-0.9,2-2C755,254,754.5,253.3,753.8,253z"/>
			<path class="st0" d="M795.2,262.7c-3.1-0.3-6.1-1-6.2-3.5c0-2.6,2.7-4,6.1-3.9c1.5,0,4.2,0.3,5.5,1l1.1,0.5l0,0
				c0.2,0.1,0.5,0.2,0.8,0.2c1,0,1.9-0.8,1.9-1.9c0-0.8-0.5-1.5-1.2-1.8c-0.4-0.2-0.8-0.3-1.2-0.5c-2.2-0.8-4.7-1.2-7-1.2
				c-4.7,0-10.1,2.1-10.1,7.4c0,5.2,5.2,6.4,9.9,7c3.8,0.4,6.9,1.2,6.8,3.9c-0.1,3.2-4,3.8-6.4,3.8c-2.2,0-4.5-0.5-6.5-1.5l0,0
				c-0.3-0.1-0.6-0.2-0.9-0.2c-1.1,0-2,0.9-2,2c0,0.8,0.5,1.5,1.1,1.8l0,0c0,0,0,0,0,0c0,0,0,0,0.1,0c2.6,1.2,5,1.7,8.1,1.7
				c5.6,0,10.4-2.3,10.5-7.4C805.9,264.1,799.7,263.3,795.2,262.7z"/>
			<path class="st0" d="M819.3,262.7c-3.1-0.3-6.1-1-6.2-3.5c-0.1-2.6,2.7-4,6.1-3.9c1.5,0,4.2,0.3,5.5,1l1.1,0.5l0,0
				c0.2,0.1,0.5,0.2,0.8,0.2c1,0,1.9-0.8,1.9-1.9c0-0.8-0.5-1.5-1.2-1.8c-0.4-0.2-0.8-0.3-1.2-0.5c-2.2-0.8-4.7-1.2-7-1.2
				c-4.7,0-10.1,2.1-10.1,7.4c0,5.2,5.2,6.4,9.9,7c3.8,0.4,6.9,1.2,6.8,3.9c-0.1,3.2-4,3.8-6.4,3.8c-2.2,0-4.5-0.5-6.5-1.5l0,0
				c-0.3-0.1-0.6-0.2-0.9-0.2c-1.1,0-2,0.9-2,2c0,0.8,0.5,1.5,1.1,1.8l0,0c0,0,0,0,0,0c0,0,0,0,0.1,0c2.6,1.2,5,1.7,8.1,1.7
				c5.6,0,10.4-2.3,10.5-7.4C830,264.1,823.9,263.3,819.3,262.7z"/>
		</g>
		<g>
			<path class="st1" d="M473.8,274.5v2.2c0,0.5-0.3,0.8-0.8,0.8h-0.7c-0.5,0-0.8-0.3-0.8-0.8v-20.4c0-0.5,0.3-0.8,0.8-0.8h0.7
				c0.5,0,0.8,0.3,0.8,0.8v9c1.4-2.3,3.5-3.3,5.9-3.3c4.6,0,7.6,3.6,7.6,8c0,4.4-3,7.9-7.6,7.9C477.3,277.8,475.2,276.8,473.8,274.5
				z M485,269.9c0-3.2-2-5.9-5.5-5.9c-3.4,0-5.7,2.4-5.8,5.9c0,3.4,2.4,5.9,5.8,5.9C483,275.8,485,273.1,485,269.9z"/>
			<path class="st1" d="M492.9,283.4l2.4-6.1l-6.1-14c-0.2-0.6,0-1,0.6-1h0.9c0.5,0,0.8,0.2,0.9,0.6l4.9,11.7l4.6-11.6
				c0.2-0.5,0.5-0.7,0.9-0.7h1c0.6,0,0.9,0.4,0.6,1l-8.7,20.4c-0.2,0.5-0.5,0.6-0.9,0.6h-0.6C492.9,284.3,492.7,284,492.9,283.4z"/>
		</g>
		<path class="st0" d="M503.1,234.4c8.5,0,17.6-3.6,22-12.4c0,0,0,4.7,0,4.7c0,3.5,2.8,6.3,6.3,6.3c3.5,0,6.3-2.8,6.3-6.3
			c0,0,0-63.7,0-63.7c0-3.5-2.8-6.3-6.3-6.3c-3.5,0-6.3,2.8-6.3,6.3h0v37.7c0,12.1-7.9,21.9-20.2,21.9c-13.4,0-20.3-9.3-20.3-21.9
			v-37.9h0c0-3.4-2.7-6.1-6.1-6.1s-6.1,2.7-6.1,6.1v37.9C472.3,226.9,491.1,234.4,503.1,234.4z"/>
		<path class="st0" d="M752.8,200.4c3.1,0,5.6-2.5,5.6-5.6c0-26.3-16.4-38.4-37.8-38.4c-22.6,0-38.9,16.2-38.9,38.9
			c0,23.8,16.2,39.2,39.5,39.2c10.9,0,23.3-4,30.8-11.6c1.1-1.1,1.6-2.4,1.6-4c0-3.1-2.5-5.6-5.6-5.6c-1.6,0-3,0.6-4,1.7
			c-5.4,5.2-14.7,8-22.5,8c-14.4,0-25.8-8.7-27.2-22.5L752.8,200.4z M694.3,190c2.1-14.4,13.5-22.3,26.6-22.3
			c14.7,0,24.7,7.8,25.3,22.3H694.3z"/>
		<path class="st0" d="M599.7,159.6c-4.3-2-8.4-3-13.3-3c-9.3,0-18.5,3.3-23.4,11.5v-5.5c0-3.3-2.7-6.1-6.1-6.1
			c-3.4,0-6.1,2.7-6.1,6.1c0,0,0,62.2,0,65.6c0,3.4,2.8,6.2,6.2,6.2c3.4,0,6.2-2.8,6.2-6.2c0-3.4,0-37,0-37
			c0-14.3,7.9-22.2,22.2-22.5c3.4,0,6.3,0.7,9.1,2c0.8,0.3,1.6,0.5,2.5,0.5c3.4,0,6.1-2.7,6.1-6.1
			C603.2,162.7,601.7,160.5,599.7,159.6z"/>
		<path class="st0" d="M640.7,189.1c-9.4-1.1-18.7-3-18.8-10.6c-0.2-8,8.2-12.1,18.7-12c4.6,0,12.9,1.1,16.9,3.2l3.3,1.6l0,0
			c0.8,0.4,1.6,0.6,2.5,0.6c3.2,0,5.7-2.6,5.7-5.7c0-2.4-1.5-4.5-3.7-5.3c-1.2-0.5-2.4-1-3.6-1.4c-6.8-2.4-14.3-3.6-21.3-3.6
			c-14.4-0.2-30.8,6.5-30.7,22.6c0,15.9,15.8,19.4,30.2,21.4c11.7,1.2,20.9,3.6,20.8,12c-0.3,9.9-12.1,11.5-19.6,11.5
			c-6.7,0-13.7-1.6-19.9-4.7l0,0c-0.8-0.4-1.8-0.7-2.7-0.7c-3.3,0-6,2.7-6,6c0,2.4,1.4,4.5,3.4,5.4l0,0c0,0,0.1,0,0.1,0
			c0.1,0,0.1,0.1,0.2,0.1c7.8,3.6,15.2,5.3,24.6,5.3c17,0,31.7-7.1,32-22.6C673.2,193.5,654.6,190.9,640.7,189.1z"/>
		<path class="st0" d="M798.1,189.1c-9.4-1.1-18.7-3-18.8-10.6c-0.2-8,8.2-12.1,18.7-12c4.6,0,12.9,1.1,16.9,3.2l3.3,1.6l0,0
			c0.8,0.4,1.6,0.6,2.5,0.6c3.2,0,5.7-2.6,5.7-5.7c0-2.4-1.5-4.5-3.7-5.3c-1.2-0.5-2.4-1-3.6-1.4c-6.8-2.4-14.3-3.6-21.3-3.6
			c-14.4-0.2-30.8,6.5-30.7,22.6c0,15.9,15.8,19.4,30.2,21.4c11.7,1.2,20.9,3.6,20.8,12c-0.3,9.9-12.1,11.5-19.6,11.5
			c-6.7,0-13.7-1.6-19.9-4.7l0,0c-0.8-0.4-1.8-0.7-2.7-0.7c-3.3,0-6,2.7-6,6c0,2.4,1.4,4.5,3.4,5.4l0,0c0,0,0.1,0,0.1,0
			c0.1,0,0.1,0.1,0.2,0.1c7.8,3.6,15.2,5.3,24.6,5.3c17,0,31.7-7.1,32-22.6C830.6,193.5,811.9,190.9,798.1,189.1z"/>
		<path class="st0" d="M369.2,213.2c-1.6,0-3,0.6-4,1.7c-5.4,5.2-14.7,8-22.5,8c-13.2,0-23.8-7.2-26.6-19c-1-2.7-1.5-5.7-1.5-8.7
			c0-3.1,0.6-6,1.5-8.7c2.8-11.8,13.4-19,26.6-19c7.8,0,17.2,2.8,22.5,8c1,1,2.4,1.7,4,1.7c3.1,0,5.6-2.5,5.6-5.6
			c0-1.5-0.5-2.8-1.6-4c-7.4-7.6-19.8-11.6-30.8-11.6c-23.2,0-39.5,15.3-39.5,39.2c0,0,0,0.2,0,0.2c0,23.8,16.2,39.2,39.5,39.2
			c10.9,0,23.3-4,30.8-11.6c1.1-1.1,1.6-2.4,1.6-4C374.8,215.7,372.3,213.2,369.2,213.2z"/>
		<path class="st0" d="M424,156.7c-0.2,0-0.5,0-0.7,0c-0.3,0-0.5,0-0.8,0c-21.4,0-38.1,13.5-38.1,38.9c0,24.7,16.7,38.7,38.3,38.7
			c0.2,0,0.4,0,0.6,0c0.2,0,0.4,0,0.6,0c21.6,0,38.3-14,38.3-38.7C462.1,170.2,445.4,156.7,424,156.7z M444.5,212.3
			c-0.3,0.4-0.5,0.7-0.8,1.1c-2,2.5-4.5,4.5-7.3,6c-0.1,0.1-0.3,0.2-0.4,0.2c-0.4,0.2-0.9,0.4-1.4,0.6c-0.4,0.2-0.7,0.3-1.1,0.5
			c-0.2,0.1-0.4,0.2-0.7,0.2c-3,1.1-6.2,1.6-9.6,1.6c-3.4,0-6.6-0.6-9.6-1.6c-0.2-0.1-0.4-0.1-0.7-0.2c-0.4-0.1-0.7-0.3-1.1-0.5
			c-0.5-0.2-0.9-0.4-1.4-0.6c-0.1-0.1-0.3-0.2-0.4-0.2c-2.8-1.5-5.3-3.6-7.3-6c-0.3-0.4-0.6-0.7-0.8-1.1c-0.2-0.2-0.3-0.5-0.5-0.7
			c-2.8-4.2-4.5-9.6-4.5-16c0-5.3,1.1-9.9,3-13.7c3.6-6.8,9.9-11.4,17.5-13c0.1,0,0.3-0.1,0.4-0.1c0.4-0.1,0.8-0.1,1.2-0.2
			c0.5-0.1,1.1-0.2,1.6-0.2c0.1,0,0.3,0,0.5,0c0.7,0,1.4-0.1,2.1-0.1c0.7,0,1.4,0,2.1,0.1c0.2,0,0.3,0,0.5,0c0.5,0,1.1,0.1,1.6,0.2
			c0.4,0.1,0.8,0.1,1.2,0.2c0.1,0,0.3,0.1,0.4,0.1c7.6,1.6,13.9,6.2,17.5,13c1.9,3.8,3,8.4,3,13.7c0,6.4-1.6,11.8-4.5,16
			C444.9,211.8,444.7,212,444.5,212.3z"/>
	</g>
	<g>
		<g>
			<polygon class="st2" points="192.5,220.1 136.1,117.4 126.8,117.5 80.8,207 150.6,242.9 150.9,242.9 			"/>
			<polygon class="st2" points="140.7,117.3 196.1,218.2 197.8,221.3 196.6,125.1 180.3,116.8 			"/>
			<polygon class="st2" points="200.7,127.2 202.2,242.1 202.2,245.7 250.1,152.7 			"/>
			<polygon class="st2" points="197.9,221.8 194.5,223.7 159.8,242.7 198.1,242.2 			"/>
			<polygon class="st2" points="198.2,246.2 158.3,246.8 192.6,264.5 202,246.2 			"/>
			<polygon class="st2" points="138.5,113.3 172.6,112.8 138.3,95.1 133.6,104.3 135.5,107.9 			"/>
			<polygon class="st2" points="133.9,113.3 131.9,109.8 130.3,110.7 128.9,113.4 			"/>
		</g>
		<g>
			<polygon class="st3" points="151.9,146.1 105.6,178.3 150.4,242.8 150.6,242.9 150.9,242.9 192.5,220.1 			"/>
			<polygon class="st3" points="155.3,143.8 196.1,218.2 197.8,221.3 196.6,125.3 188.2,120.9 			"/>
			<polygon class="st3" points="197.9,221.8 194.5,223.7 159.8,242.7 198.1,242.2 			"/>
			<polygon class="st3" points="202.2,242.1 202.2,245.7 246.2,160.3 236.1,145.7 200.7,127.4 			"/>
			<polygon class="st3" points="200.5,116.5 200.6,122.8 231.1,138.5 208.9,106.5 200.4,112.4 200.5,112.4 			"/>
			<polygon class="st3" points="196.5,120.6 196.4,116.6 194.4,116.6 192,118.3 			"/>
			<polygon class="st3" points="190.7,268.1 155.3,249.9 177.3,281.5 194.1,269.9 			"/>
			<polygon class="st3" points="280.6,209.8 248.8,164.1 196.2,266.4 194.5,269.6 			"/>
			<polygon class="st3" points="202,246.2 198.2,246.2 158.2,246.8 192.5,264.5 			"/>
		</g>
		<g>
			<polygon class="st1" points="192.5,220.1 151.9,146.1 105.6,178.3 150.4,242.8 150.6,242.9 150.9,242.9 			"/>
			<polygon class="st1" points="202.2,242.1 202.2,245.7 246.2,160.3 235.8,145.3 200.7,127.2 			"/>
			<polygon class="st1" points="198.2,246.2 158.3,246.8 192.6,264.5 202,246.2 			"/>
			<polygon class="st1" points="155.3,143.8 196.1,218.2 197.8,221.3 196.6,125.1 188.3,120.9 			"/>
			<polygon class="st1" points="197.9,221.8 194.5,223.7 159.8,242.7 198.1,242.2 			"/>
		</g>
		<g>
			<polygon class="st4" points="136.1,117.3 117.8,117.6 71,143.3 72.3,244 150.9,242.9 192.5,220.1 			"/>
			<polygon class="st4" points="196.1,218.2 197.8,221.2 196.5,116.5 140.7,117.3 			"/>
			<polygon class="st4" points="109.1,117.7 70.6,118.2 70.9,138.7 			"/>
			<polygon class="st4" points="194.5,223.7 159.8,242.8 198.1,242.2 197.8,221.9 			"/>
		</g>
		<g>
			<polygon class="st5" points="196.2,218.2 197.9,221.3 196.6,125.1 180.4,116.8 140.7,117.3 			"/>
			<polygon class="st5" points="194.5,223.7 159.7,242.8 198.1,242.2 197.9,221.8 			"/>
			<polygon class="st5" points="136.1,117.3 126.8,117.5 80.8,207 150.6,242.9 150.9,242.9 192.5,220.1 			"/>
		</g>
		<g>
			
				<rect x="44.2" y="132.3" transform="matrix(0.8765 -0.4814 0.4814 0.8765 -80.7434 75.6554)" class="st6" width="125.7" height="125.7"/>
		</g>
		<polygon class="st0" points="71,143.3 72.3,244 150.9,242.9 192.5,220.1 136.1,117.4 117.8,117.6 		"/>
		<path class="st7" d="M149.8,169.2c-6.6-11.9-21.6-16.2-33.4-9.6c-6,3.3-10,8.8-11.8,14.9c-6.1-1.8-12.9-1.3-18.9,2.1
			c-6,3.3-10,8.8-11.8,14.9c-6.1-1.8-12.9-1.2-18.9,2.1c0,0,0,0,0,0c0,0,0,0,0,0c-3.4,1.9-4.7,6.2-2.8,9.6c0,0,0,0,0,0c0,0,0,0,0,0
			c1.9,3.4,6.2,4.7,9.6,2.8c5-2.8,11.3-1,14.1,4c0,0,0,0,0,0l11.9,21.5c0,0,0,0,0,0c1.9,3.4,6.2,4.7,9.6,2.8c0,0,0,0,0.1,0
			c0.2-0.1,0.3-0.2,0.5-0.3c0,0,0.1-0.1,0.1-0.1c0.2-0.1,0.3-0.2,0.5-0.4c0,0,0,0,0.1-0.1c0.2-0.1,0.3-0.3,0.4-0.4c0,0,0,0,0,0
			c0.2-0.2,0.3-0.3,0.4-0.5c0,0,0,0,0,0c0.1-0.2,0.3-0.4,0.4-0.5c0.1-0.2,0.2-0.4,0.3-0.6c0,0,0,0,0,0c1-2,1.1-4.5-0.1-6.7l-12-21.6
			c0,0,0,0,0,0c-2.7-5-0.9-11.3,4.1-14.1c5-2.8,11.4-1,14.2,4.1l0,0l12,21.6c0,0,0,0,0,0s0,0,0,0c1.9,3.4,6.2,4.7,9.6,2.8
			c0.6-0.4,1.2-0.8,1.7-1.3c2.1-2.2,2.6-5.6,1.1-8.3l-12-21.6l0,0c-2.8-5-1-11.4,4.1-14.2c5-2.8,11.4-1,14.2,4.1l12,21.6
			c1.5,2.8,4.7,4.1,7.6,3.5c0.7-0.1,1.4-0.4,2-0.7c3.4-1.9,4.7-6.2,2.8-9.6c0,0,0,0,0,0c0,0,0,0,0,0L149.8,169.2z"/>
	</g>
</g>
</svg>
