<svg width="16" height="19" viewBox="0 0 16 19" fill="none" xmlns="http://www.w3.org/2000/svg">
<g clip-path="url(#clip0_302:78)">
<path d="M13.609 4.49566C13.491 4.46136 13.3704 4.42969 13.2446 4.40067C13.1187 4.37165 12.9824 4.3479 12.8566 4.32679C12.3542 4.25016 11.8467 4.21311 11.3386 4.21597H6.74025C6.6303 4.21603 6.52182 4.24129 6.42303 4.28985C6.31538 4.34129 6.22185 4.41842 6.15057 4.51452C6.07929 4.61063 6.03243 4.72281 6.01405 4.8413L5.03617 11.092L5.00732 11.274C5.03803 11.0752 5.13847 10.8941 5.29044 10.7634C5.44242 10.6327 5.63588 10.5611 5.83577 10.5616H7.55558C10.9375 10.5616 13.5854 9.17903 14.3719 5.17903C14.3955 5.0603 14.4138 4.94684 14.4322 4.83339C14.2271 4.72875 14.014 4.64053 13.7951 4.56954L13.609 4.49566Z" fill="#1F264F"/>
<path d="M15.2554 5.47427C15.0171 5.20971 14.7339 4.98992 14.4191 4.8252C14.4008 4.93865 14.3824 5.05211 14.3588 5.17084C13.5723 9.17084 10.9375 10.5534 7.5425 10.5534H5.82269C5.62279 10.5529 5.42933 10.6245 5.27736 10.7552C5.12538 10.8859 5.02494 11.067 4.99424 11.2658L5.02307 11.0838L4.11336 16.8885L3.8643 18.4848C3.85252 18.55 3.85538 18.6169 3.87268 18.6808C3.88998 18.7447 3.92128 18.8039 3.96428 18.854C4.00728 18.9041 4.06089 18.9439 4.12117 18.9704C4.18144 18.9969 4.24686 19.0095 4.31261 19.0073H7.36422C7.53952 19.0075 7.70909 18.9445 7.84229 18.8298C7.97548 18.7151 8.0635 18.5563 8.09042 18.3819L8.11926 18.2263L8.69603 14.5561L8.73273 14.3529C8.76022 14.1791 8.84848 14.0208 8.98162 13.9066C9.11476 13.7925 9.28402 13.7299 9.45893 13.7302H9.9151C12.8723 13.7302 15.1899 12.5191 15.8663 9.02309C16.1494 7.55343 16.0026 6.34235 15.2554 5.47427Z" fill="white"/>
<path d="M6.01487 4.84639C6.03325 4.72789 6.08011 4.61572 6.15139 4.51961C6.22267 4.4235 6.3162 4.34637 6.42385 4.29494C6.52264 4.24638 6.63112 4.22111 6.74106 4.22106H11.3395C11.8475 4.21819 12.3551 4.25524 12.8574 4.33188C12.9911 4.35298 13.1196 4.37937 13.2454 4.40575C13.3712 4.43214 13.4918 4.46644 13.6098 4.50074L13.7828 4.55615C14.0017 4.62714 14.2148 4.71537 14.4199 4.82C14.6506 3.34243 14.4199 2.33715 13.6334 1.42686C12.7604 0.421583 11.1795 -0.0058558 9.15824 -0.0058558H3.29096C3.09076 -0.00644149 2.89695 0.065046 2.74454 0.195693C2.59213 0.32634 2.49117 0.507532 2.45989 0.706545L0.0191209 16.3002C0.00777487 16.3724 0.012085 16.4462 0.031746 16.5165C0.0514069 16.5869 0.0859561 16.6521 0.133027 16.7078C0.180097 16.7634 0.238574 16.8082 0.304441 16.8389C0.370308 16.8697 0.442007 16.8857 0.514619 16.886H4.13776L5.04747 11.0812L6.01487 4.84639Z" fill="#27346A"/>
</g>
<defs>
<clipPath id="clip0_302:78">
<rect width="16" height="19" fill="white" transform="translate(0 -0.000488281)"/>
</clipPath>
</defs>
</svg>
