<svg width="324" height="95" viewBox="0 0 324 95" fill="none" xmlns="http://www.w3.org/2000/svg">
<path fill-rule="evenodd" clip-rule="evenodd" d="M216.031 23.6566C216.031 15.8322 212.241 9.6582 204.997 9.6582C197.723 9.6582 193.322 15.8322 193.322 23.5954C193.322 32.7952 198.518 37.441 205.975 37.441C209.612 37.441 212.363 36.6158 214.441 35.4543V29.3415C212.363 30.3807 209.979 31.0225 206.953 31.0225C203.989 31.0225 201.36 29.9834 201.024 26.3768H215.97C215.97 25.9795 216.031 24.3901 216.031 23.6566ZM200.932 20.753C200.932 17.2992 203.041 15.8627 204.967 15.8627C206.831 15.8627 208.818 17.2992 208.818 20.753H200.932Z" fill="#0A2540"/>
<path fill-rule="evenodd" clip-rule="evenodd" d="M181.524 9.6582C178.528 9.6582 176.603 11.0642 175.533 12.0422L175.136 10.1472H168.412V45.785L176.053 44.1651L176.083 35.5155C177.184 36.3101 178.803 37.441 181.493 37.441C186.964 37.441 191.946 33.0398 191.946 23.3509C191.915 14.4873 186.872 9.6582 181.524 9.6582ZM179.69 30.7169C177.886 30.7169 176.817 30.075 176.083 29.2804L176.053 17.9411C176.847 17.0547 177.948 16.4434 179.69 16.4434C182.471 16.4434 184.397 19.561 184.397 23.5649C184.397 27.6605 182.502 30.7169 179.69 30.7169Z" fill="#0A2540"/>
<path fill-rule="evenodd" clip-rule="evenodd" d="M157.897 7.85498L165.569 6.20452V0L157.897 1.6199V7.85498Z" fill="#0A2540"/>
<path d="M165.569 10.1777H157.897V36.9213H165.569V10.1777Z" fill="#0A2540"/>
<path fill-rule="evenodd" clip-rule="evenodd" d="M149.676 12.44L149.187 10.1782H142.585V36.9218H150.226V18.7973C152.029 16.4439 155.085 16.8718 156.033 17.208V10.1782C155.055 9.81146 151.479 9.13905 149.676 12.44Z" fill="#0A2540"/>
<path fill-rule="evenodd" clip-rule="evenodd" d="M134.393 3.54492L126.936 5.13426L126.905 29.6161C126.905 34.1396 130.298 37.4711 134.821 37.4711C137.328 37.4711 139.161 37.0126 140.17 36.4625V30.258C139.192 30.6553 134.363 32.0613 134.363 27.5378V16.6875H140.17V10.1773H134.363L134.393 3.54492Z" fill="#0A2540"/>
<path fill-rule="evenodd" clip-rule="evenodd" d="M113.733 17.9411C113.733 16.7491 114.711 16.2906 116.331 16.2906C118.654 16.2906 121.588 16.9936 123.911 18.2467V11.0642C121.374 10.0555 118.867 9.6582 116.331 9.6582C110.126 9.6582 106 12.898 106 18.3079C106 26.7436 117.614 25.3987 117.614 29.0359C117.614 30.4418 116.392 30.9003 114.68 30.9003C112.143 30.9003 108.904 29.8611 106.336 28.4551V35.7294C109.179 36.952 112.052 37.4716 114.68 37.4716C121.038 37.4716 125.408 34.3235 125.408 28.8525C125.378 19.7444 113.733 21.3643 113.733 17.9411Z" fill="#0A2540"/>
<path d="M13.6593 64.6943C13.6593 62.7461 14.1617 61.2029 15.1666 60.0647C16.1715 58.9163 17.4686 58.342 19.058 58.342C20.0834 58.342 20.9601 58.624 21.6881 59.188C22.4264 59.752 22.975 60.4492 23.3339 61.2798L21.5958 61.8489C20.9396 60.6697 20.0834 60.0801 19.0272 60.0801C18.0223 60.0801 17.2225 60.5005 16.6278 61.3413C16.0433 62.1719 15.7511 63.2896 15.7511 64.6943C15.7511 66.1196 16.0485 67.2476 16.6432 68.0781C17.2379 68.9087 18.0326 69.324 19.0272 69.324C19.6732 69.324 20.2423 69.1292 20.7345 68.7395C21.2369 68.3499 21.601 67.873 21.8265 67.3091L23.6415 67.8782C23.4877 68.2473 23.2877 68.6062 23.0416 68.9548C22.8058 69.2932 22.5033 69.6316 22.1342 69.97C21.7753 70.2981 21.3292 70.5647 20.796 70.7698C20.2628 70.9646 19.6835 71.062 19.058 71.062C17.4994 71.062 16.2074 70.498 15.182 69.3701C14.1669 68.2319 13.6593 66.6733 13.6593 64.6943ZM26.5331 66.3555C26.5331 67.3809 26.7433 68.1448 27.1637 68.6472C27.5841 69.1497 28.0763 69.4009 28.6403 69.4009C29.194 69.4009 29.681 69.1497 30.1014 68.6472C30.5219 68.1448 30.7321 67.3809 30.7321 66.3555C30.7321 65.3096 30.5219 64.5405 30.1014 64.0483C29.681 63.5459 29.194 63.2947 28.6403 63.2947C28.0865 63.2947 27.5944 63.5459 27.1637 64.0483C26.7433 64.5405 26.5331 65.3096 26.5331 66.3555ZM24.5336 66.3555C24.5336 65.0327 24.8822 63.915 25.5795 63.0024C26.2767 62.0898 27.297 61.6335 28.6403 61.6335C29.9733 61.6335 30.9884 62.0898 31.6857 63.0024C32.3829 63.915 32.7316 65.0327 32.7316 66.3555C32.7316 66.7656 32.6906 67.1758 32.6085 67.5859C32.5367 67.9961 32.4034 68.4165 32.2086 68.8472C32.0138 69.2676 31.7677 69.6418 31.4703 69.97C31.173 70.2878 30.7782 70.5493 30.286 70.7544C29.8041 70.9595 29.2555 71.062 28.6403 71.062C28.0353 71.062 27.4867 70.9646 26.9945 70.7698C26.5126 70.5647 26.1178 70.3083 25.8102 70.0007C25.5128 69.6829 25.2616 69.3137 25.0565 68.8933C24.8617 68.4626 24.7233 68.0422 24.6412 67.6321C24.5695 67.2117 24.5336 66.7861 24.5336 66.3555ZM34.3312 70.7852V61.9104H36.223V63.0332H36.2384C36.3922 62.7051 36.6742 62.3923 37.0844 62.095C37.5048 61.7874 38.0431 61.6335 38.6993 61.6335C39.5812 61.6335 40.2836 61.9053 40.8065 62.4487C41.3295 62.9922 41.5909 63.8689 41.5909 65.0789V70.7852H39.6376V65.3403C39.6376 63.9766 39.1761 63.2947 38.2533 63.2947C37.6893 63.2947 37.2177 63.5203 36.8383 63.9714C36.4691 64.4226 36.2845 64.9814 36.2845 65.6479V70.7852H34.3312ZM43.5905 70.7852V61.9104H45.4823V63.0332H45.4977C45.6515 62.7051 45.9335 62.3923 46.3436 62.095C46.764 61.7874 47.3024 61.6335 47.9586 61.6335C48.8405 61.6335 49.5428 61.9053 50.0658 62.4487C50.5887 62.9922 50.8502 63.8689 50.8502 65.0789V70.7852H48.8969V65.3403C48.8969 63.9766 48.4354 63.2947 47.5126 63.2947C46.9486 63.2947 46.4769 63.5203 46.0975 63.9714C45.7284 64.4226 45.5438 64.9814 45.5438 65.6479V70.7852H43.5905ZM52.3422 66.3093C52.3422 64.884 52.7318 63.751 53.5111 62.9102C54.3007 62.0591 55.2902 61.6335 56.4796 61.6335C57.6486 61.6335 58.6124 62.0591 59.3712 62.9102C60.13 63.7612 60.5094 64.8687 60.5094 66.2324C60.5094 66.499 60.494 66.7605 60.4633 67.0168H54.3109C54.3109 67.6936 54.5109 68.2781 54.9108 68.7703C55.3209 69.2522 55.8798 69.4932 56.5873 69.4932C57.0795 69.4932 57.5101 69.3752 57.8793 69.1394C58.2587 68.8933 58.5458 68.5806 58.7406 68.2012L60.371 68.7549C60.0839 69.4111 59.6173 69.9597 58.9713 70.4006C58.3253 70.8416 57.5204 71.062 56.5565 71.062C55.3158 71.062 54.3007 70.6313 53.5111 69.77C52.7318 68.9087 52.3422 67.7551 52.3422 66.3093ZM54.3417 65.6479H58.5253C58.5253 64.9712 58.3458 64.397 57.9869 63.9253C57.6281 63.4434 57.1256 63.2024 56.4796 63.2024C55.8336 63.2024 55.3158 63.4485 54.9261 63.9407C54.5468 64.4226 54.3519 64.9917 54.3417 65.6479ZM61.5861 66.3555C61.5861 64.9302 61.9655 63.7869 62.7242 62.9255C63.4933 62.0642 64.4828 61.6335 65.6927 61.6335C66.5746 61.6335 67.318 61.9001 67.923 62.4333C68.528 62.9666 68.9073 63.5767 69.0612 64.2637L67.4 64.7251C67.277 64.3354 67.0668 64.0022 66.7694 63.7253C66.472 63.4382 66.1183 63.2947 65.7081 63.2947C65.0416 63.2947 64.5187 63.5869 64.1393 64.1714C63.7701 64.7559 63.5856 65.4839 63.5856 66.3555C63.5856 67.3193 63.7855 68.0679 64.1854 68.6011C64.5853 69.1343 65.0929 69.4009 65.7081 69.4009C66.1593 69.4009 66.5541 69.2471 66.8925 68.9395C67.2411 68.6216 67.4821 68.2627 67.6154 67.8628L69.2765 68.3396C69.0817 69.0574 68.6561 69.6931 67.9999 70.2468C67.3436 70.7903 66.5746 71.062 65.6927 71.062C64.4828 71.062 63.4933 70.6365 62.7242 69.7854C61.9655 68.9241 61.5861 67.7808 61.5861 66.3555ZM69.8456 63.5715V61.9104H71.2145V59.2803H73.1525V61.9104H75.1827V63.5715H73.1525V67.9397C73.1525 68.3601 73.2345 68.6626 73.3986 68.8472C73.5729 69.0317 73.8344 69.124 74.183 69.124H75.1981V70.7852H73.9369C72.1219 70.7852 71.2145 69.8828 71.2145 68.0781V63.5715H69.8456ZM79.6432 61.9104H81.735L82.6578 66.3708C82.7194 66.7195 82.8732 67.5603 83.1193 68.8933H83.1808C83.2321 68.6062 83.3141 68.1653 83.4269 67.5706C83.5499 66.9758 83.632 66.5759 83.673 66.3708L84.6112 61.9104H86.6569L87.6105 66.4016C87.6515 66.6375 87.7284 67.0374 87.8412 67.6013C87.9642 68.1653 88.0514 68.5959 88.1027 68.8933H88.1642C88.2155 68.6062 88.2975 68.1448 88.4103 67.509C88.5333 66.8733 88.6051 66.4939 88.6256 66.3708L89.5331 61.9104H91.6249L89.2255 70.7852H87.0568L86.1185 66.4631C85.9852 65.8069 85.8365 64.9917 85.6725 64.0176H85.611C85.5597 64.3354 85.4777 64.7866 85.3649 65.3711C85.2521 65.9556 85.1803 66.3196 85.1495 66.4631L84.2113 70.7852H82.0426L79.6432 61.9104ZM92.9169 60.5876V58.4497H95.0087V60.5876H92.9169ZM93.0092 70.7852V61.9104H94.9318V70.7852H93.0092ZM96.4545 63.5715V61.9104H97.8234V59.2803H99.7614V61.9104H101.792V63.5715H99.7614V67.9397C99.7614 68.3601 99.8434 68.6626 100.007 68.8472C100.182 69.0317 100.443 69.124 100.792 69.124H101.807V70.7852H100.546C98.7308 70.7852 97.8234 69.8828 97.8234 68.0781V63.5715H96.4545ZM103.422 70.7852V58.219H105.345V62.8179H105.391C105.627 62.4795 105.95 62.1975 106.36 61.9719C106.78 61.7463 107.221 61.6335 107.682 61.6335C108.534 61.6335 109.241 61.9104 109.805 62.4641C110.369 63.0076 110.651 63.8792 110.651 65.0789V70.7852H108.713V65.325C108.713 63.9714 108.252 63.2947 107.329 63.2947C106.765 63.2947 106.293 63.5356 105.914 64.0176C105.534 64.4995 105.345 65.0635 105.345 65.7095V70.7852H103.422ZM115.727 63.5715V61.9104H117.096V59.2803H119.034V61.9104H121.064V63.5715H119.034V67.9397C119.034 68.3601 119.116 68.6626 119.28 68.8472C119.454 69.0317 119.715 69.124 120.064 69.124H121.079V70.7852H119.818C118.003 70.7852 117.096 69.8828 117.096 68.0781V63.5715H115.727ZM122.694 70.7852V58.219H124.617V62.8179H124.663C124.899 62.4795 125.222 62.1975 125.632 61.9719C126.052 61.7463 126.493 61.6335 126.955 61.6335C127.806 61.6335 128.513 61.9104 129.077 62.4641C129.641 63.0076 129.923 63.8792 129.923 65.0789V70.7852H127.985V65.325C127.985 63.9714 127.524 63.2947 126.601 63.2947C126.037 63.2947 125.565 63.5356 125.186 64.0176C124.807 64.4995 124.617 65.0635 124.617 65.7095V70.7852H122.694ZM131.431 66.3093C131.431 64.884 131.82 63.751 132.599 62.9102C133.389 62.0591 134.379 61.6335 135.568 61.6335C136.737 61.6335 137.701 62.0591 138.46 62.9102C139.218 63.7612 139.598 64.8687 139.598 66.2324C139.598 66.499 139.582 66.7605 139.552 67.0168H133.399C133.399 67.6936 133.599 68.2781 133.999 68.7703C134.409 69.2522 134.968 69.4932 135.676 69.4932C136.168 69.4932 136.599 69.3752 136.968 69.1394C137.347 68.8933 137.634 68.5806 137.829 68.2012L139.459 68.7549C139.172 69.4111 138.706 69.9597 138.06 70.4006C137.414 70.8416 136.609 71.062 135.645 71.062C134.404 71.062 133.389 70.6313 132.599 69.77C131.82 68.9087 131.431 67.7551 131.431 66.3093ZM133.43 65.6479H137.614C137.614 64.9712 137.434 64.397 137.075 63.9253C136.716 63.4434 136.214 63.2024 135.568 63.2024C134.922 63.2024 134.404 63.4485 134.015 63.9407C133.635 64.4226 133.44 64.9917 133.43 65.6479ZM144.104 61.9104H146.196L147.119 66.3708C147.181 66.7195 147.334 67.5603 147.58 68.8933H147.642C147.693 68.6062 147.775 68.1653 147.888 67.5706C148.011 66.9758 148.093 66.5759 148.134 66.3708L149.072 61.9104H151.118L152.072 66.4016C152.113 66.6375 152.19 67.0374 152.302 67.6013C152.425 68.1653 152.513 68.5959 152.564 68.8933H152.625C152.677 68.6062 152.759 68.1448 152.871 67.509C152.995 66.8733 153.066 66.4939 153.087 66.3708L153.994 61.9104H156.086L153.687 70.7852H151.518L150.58 66.4631C150.446 65.8069 150.298 64.9917 150.134 64.0176H150.072C150.021 64.3354 149.939 64.7866 149.826 65.3711C149.713 65.9556 149.641 66.3196 149.611 66.4631L148.672 70.7852H146.504L144.104 61.9104ZM158.762 66.3555C158.762 67.3809 158.973 68.1448 159.393 68.6472C159.813 69.1497 160.306 69.4009 160.87 69.4009C161.423 69.4009 161.91 69.1497 162.331 68.6472C162.751 68.1448 162.961 67.3809 162.961 66.3555C162.961 65.3096 162.751 64.5405 162.331 64.0483C161.91 63.5459 161.423 63.2947 160.87 63.2947C160.316 63.2947 159.824 63.5459 159.393 64.0483C158.973 64.5405 158.762 65.3096 158.762 66.3555ZM156.763 66.3555C156.763 65.0327 157.111 63.915 157.809 63.0024C158.506 62.0898 159.526 61.6335 160.87 61.6335C162.203 61.6335 163.218 62.0898 163.915 63.0024C164.612 63.915 164.961 65.0327 164.961 66.3555C164.961 66.7656 164.92 67.1758 164.838 67.5859C164.766 67.9961 164.633 68.4165 164.438 68.8472C164.243 69.2676 163.997 69.6418 163.7 69.97C163.402 70.2878 163.007 70.5493 162.515 70.7544C162.033 70.9595 161.485 71.062 160.87 71.062C160.265 71.062 159.716 70.9646 159.224 70.7698C158.742 70.5647 158.347 70.3083 158.039 70.0007C157.742 69.6829 157.491 69.3137 157.286 68.8933C157.091 68.4626 156.953 68.0422 156.87 67.6321C156.799 67.2117 156.763 66.7861 156.763 66.3555ZM166.56 70.7852V61.9104H168.437V62.864C168.632 62.5359 168.909 62.2488 169.267 62.0027C169.637 61.7566 170.072 61.6335 170.575 61.6335C171.047 61.6335 171.431 61.7002 171.728 61.8335V63.6023C171.339 63.4792 170.954 63.4177 170.575 63.4177C169.908 63.4177 169.396 63.6792 169.037 64.2021C168.688 64.7148 168.514 65.4019 168.514 66.2632V70.7852H166.56ZM172.913 70.7852V58.219H174.851V70.7852H172.913ZM176.62 66.3401C176.62 64.884 176.973 63.7356 177.681 62.8948C178.399 62.054 179.306 61.6335 180.403 61.6335C180.926 61.6335 181.377 61.7617 181.757 62.0181C182.146 62.2642 182.444 62.5564 182.649 62.8948V58.219H184.587V70.7852H182.71V69.6316C182.526 70.0212 182.218 70.3596 181.787 70.6467C181.367 70.9236 180.901 71.062 180.388 71.062C179.926 71.062 179.48 70.9749 179.05 70.8005C178.619 70.6262 178.214 70.3596 177.835 70.0007C177.465 69.6418 177.168 69.1497 176.943 68.5242C176.727 67.8884 176.62 67.1604 176.62 66.3401ZM178.619 66.3401C178.619 67.304 178.804 68.0576 179.173 68.6011C179.552 69.1343 180.049 69.4009 180.665 69.4009C181.259 69.4009 181.741 69.1292 182.11 68.5857C182.49 68.032 182.68 67.2834 182.68 66.3401C182.68 65.4275 182.495 64.6943 182.126 64.1406C181.767 63.5767 181.28 63.2947 180.665 63.2947C180.019 63.2947 179.516 63.5715 179.157 64.1252C178.798 64.679 178.619 65.4172 178.619 66.3401ZM187.217 59.5264V57.2654H189.939V58.9727C189.939 60.6646 189.355 61.936 188.186 62.7871L187.171 61.9412C187.591 61.6233 187.883 61.29 188.047 60.9414C188.222 60.5825 188.309 60.1108 188.309 59.5264H187.217ZM191.97 68.9395L193.369 68.1243C193.984 69.0266 194.784 69.4778 195.769 69.4778C196.251 69.4778 196.63 69.3855 196.907 69.2009C197.194 69.0061 197.338 68.7498 197.338 68.4319C197.338 68.1755 197.22 67.95 196.984 67.7551C196.758 67.5603 196.517 67.4167 196.261 67.3245C196.005 67.2219 195.62 67.0886 195.107 66.9246C195.015 66.8938 194.948 66.8733 194.907 66.863C194.538 66.74 194.225 66.6221 193.969 66.5093C193.723 66.3862 193.462 66.2273 193.185 66.0325C192.908 65.8274 192.698 65.5762 192.554 65.2788C192.411 64.9712 192.339 64.6174 192.339 64.2175C192.339 63.4382 192.667 62.8127 193.323 62.3411C193.979 61.8694 194.795 61.6335 195.769 61.6335C196.497 61.6335 197.184 61.8284 197.83 62.218C198.476 62.5974 198.958 63.0845 199.276 63.6792L197.984 64.4636C197.379 63.6331 196.645 63.2178 195.784 63.2178C195.312 63.2178 194.948 63.3152 194.692 63.51C194.446 63.6946 194.323 63.9407 194.323 64.2483C194.323 64.5046 194.431 64.7354 194.646 64.9404C194.871 65.1353 195.102 65.2788 195.338 65.3711C195.574 65.4634 195.907 65.5813 196.338 65.7249C196.451 65.7556 196.533 65.7812 196.584 65.8018C198.409 66.3862 199.322 67.2681 199.322 68.4473C199.322 69.1753 199.014 69.7957 198.399 70.3083C197.794 70.8108 196.932 71.062 195.815 71.062C194.953 71.062 194.184 70.8723 193.508 70.4929C192.841 70.1135 192.328 69.5957 191.97 68.9395ZM204.69 70.7852V61.9104H206.581V62.9409C206.735 62.6436 207.012 62.3513 207.412 62.0642C207.812 61.7771 208.294 61.6335 208.858 61.6335C209.832 61.6335 210.55 62.1616 211.011 63.2178C211.083 63.0742 211.175 62.9307 211.288 62.7871C211.411 62.6436 211.575 62.4744 211.78 62.2795C211.995 62.0847 212.267 61.9309 212.595 61.8181C212.934 61.6951 213.298 61.6335 213.687 61.6335C215.502 61.6335 216.41 62.782 216.41 65.0789V70.7852H214.441V65.1404C214.441 64.5251 214.354 64.0637 214.18 63.7561C214.005 63.4485 213.698 63.2947 213.257 63.2947C212.734 63.2947 212.308 63.5151 211.98 63.9561C211.662 64.3867 211.503 64.9199 211.503 65.5557V70.7852H209.581V65.0942C209.581 63.8945 209.181 63.2947 208.381 63.2947C207.827 63.2947 207.397 63.4998 207.089 63.9099C206.792 64.3201 206.643 64.8584 206.643 65.5249V70.7852H204.69ZM219.901 66.3555C219.901 67.3809 220.111 68.1448 220.532 68.6472C220.952 69.1497 221.444 69.4009 222.008 69.4009C222.562 69.4009 223.049 69.1497 223.47 68.6472C223.89 68.1448 224.1 67.3809 224.1 66.3555C224.1 65.3096 223.89 64.5405 223.47 64.0483C223.049 63.5459 222.562 63.2947 222.008 63.2947C221.455 63.2947 220.963 63.5459 220.532 64.0483C220.111 64.5405 219.901 65.3096 219.901 66.3555ZM217.902 66.3555C217.902 65.0327 218.25 63.915 218.948 63.0024C219.645 62.0898 220.665 61.6335 222.008 61.6335C223.341 61.6335 224.357 62.0898 225.054 63.0024C225.751 63.915 226.1 65.0327 226.1 66.3555C226.1 66.7656 226.059 67.1758 225.977 67.5859C225.905 67.9961 225.772 68.4165 225.577 68.8472C225.382 69.2676 225.136 69.6418 224.839 69.97C224.541 70.2878 224.146 70.5493 223.654 70.7544C223.172 70.9595 222.624 71.062 222.008 71.062C221.403 71.062 220.855 70.9646 220.363 70.7698C219.881 70.5647 219.486 70.3083 219.178 70.0007C218.881 69.6829 218.63 69.3137 218.425 68.8933C218.23 68.4626 218.091 68.0422 218.009 67.6321C217.938 67.2117 217.902 66.7861 217.902 66.3555ZM227.038 68.9395L228.438 68.1243C229.053 69.0266 229.853 69.4778 230.837 69.4778C231.319 69.4778 231.698 69.3855 231.975 69.2009C232.262 69.0061 232.406 68.7498 232.406 68.4319C232.406 68.1755 232.288 67.95 232.052 67.7551C231.827 67.5603 231.586 67.4167 231.329 67.3245C231.073 67.2219 230.688 67.0886 230.176 66.9246C230.083 66.8938 230.017 66.8733 229.976 66.863C229.607 66.74 229.294 66.6221 229.037 66.5093C228.791 66.3862 228.53 66.2273 228.253 66.0325C227.976 65.8274 227.766 65.5762 227.622 65.2788C227.479 64.9712 227.407 64.6174 227.407 64.2175C227.407 63.4382 227.735 62.8127 228.391 62.3411C229.048 61.8694 229.863 61.6335 230.837 61.6335C231.565 61.6335 232.252 61.8284 232.898 62.218C233.544 62.5974 234.026 63.0845 234.344 63.6792L233.052 64.4636C232.447 63.6331 231.714 63.2178 230.852 63.2178C230.381 63.2178 230.017 63.3152 229.76 63.51C229.514 63.6946 229.391 63.9407 229.391 64.2483C229.391 64.5046 229.499 64.7354 229.714 64.9404C229.94 65.1353 230.171 65.2788 230.406 65.3711C230.642 65.4634 230.975 65.5813 231.406 65.7249C231.519 65.7556 231.601 65.7812 231.652 65.8018C233.477 66.3862 234.39 67.2681 234.39 68.4473C234.39 69.1753 234.082 69.7957 233.467 70.3083C232.862 70.8108 232.001 71.062 230.883 71.062C230.022 71.062 229.253 70.8723 228.576 70.4929C227.91 70.1135 227.397 69.5957 227.038 68.9395ZM235.128 63.5715V61.9104H236.497V59.2803H238.435V61.9104H240.465V63.5715H238.435V67.9397C238.435 68.3601 238.517 68.6626 238.681 68.8472C238.856 69.0317 239.117 69.124 239.466 69.124H240.481V70.7852H239.22C237.405 70.7852 236.497 69.8828 236.497 68.0781V63.5715H235.128ZM247.864 66.3401C247.864 67.2732 248.038 68.0166 248.387 68.5703C248.745 69.124 249.243 69.4009 249.879 69.4009C250.484 69.4009 250.976 69.1343 251.355 68.6011C251.734 68.0576 251.924 67.304 251.924 66.3401C251.924 65.407 251.74 64.6687 251.37 64.1252C251.012 63.5715 250.514 63.2947 249.879 63.2947C249.253 63.2947 248.761 63.5767 248.402 64.1406C248.043 64.7046 247.864 65.4377 247.864 66.3401ZM245.941 74.415V61.9104H247.818V63.064C248.361 62.1104 249.14 61.6335 250.155 61.6335C251.232 61.6335 252.124 62.0591 252.832 62.9102C253.549 63.751 253.908 64.8943 253.908 66.3401C253.908 67.1501 253.796 67.873 253.57 68.5088C253.344 69.1343 253.042 69.6265 252.662 69.9854C252.293 70.3442 251.893 70.6108 251.463 70.7852C251.042 70.9697 250.607 71.062 250.155 71.062C249.581 71.062 249.099 70.9338 248.71 70.6775C248.33 70.4109 248.053 70.1033 247.879 69.7546V74.415H245.941ZM257.015 66.3555C257.015 67.3809 257.225 68.1448 257.646 68.6472C258.066 69.1497 258.558 69.4009 259.122 69.4009C259.676 69.4009 260.163 69.1497 260.584 68.6472C261.004 68.1448 261.214 67.3809 261.214 66.3555C261.214 65.3096 261.004 64.5405 260.584 64.0483C260.163 63.5459 259.676 63.2947 259.122 63.2947C258.569 63.2947 258.077 63.5459 257.646 64.0483C257.225 64.5405 257.015 65.3096 257.015 66.3555ZM255.016 66.3555C255.016 65.0327 255.364 63.915 256.062 63.0024C256.759 62.0898 257.779 61.6335 259.122 61.6335C260.455 61.6335 261.471 62.0898 262.168 63.0024C262.865 63.915 263.214 65.0327 263.214 66.3555C263.214 66.7656 263.173 67.1758 263.091 67.5859C263.019 67.9961 262.886 68.4165 262.691 68.8472C262.496 69.2676 262.25 69.6418 261.953 69.97C261.655 70.2878 261.26 70.5493 260.768 70.7544C260.286 70.9595 259.738 71.062 259.122 71.062C258.517 71.062 257.969 70.9646 257.477 70.7698C256.995 70.5647 256.6 70.3083 256.292 70.0007C255.995 69.6829 255.744 69.3137 255.539 68.8933C255.344 68.4626 255.205 68.0422 255.123 67.6321C255.052 67.2117 255.016 66.7861 255.016 66.3555ZM263.891 61.9104H265.982L266.905 66.3708C266.967 66.7195 267.12 67.5603 267.367 68.8933H267.428C267.479 68.6062 267.561 68.1653 267.674 67.5706C267.797 66.9758 267.879 66.5759 267.92 66.3708L268.859 61.9104H270.904L271.858 66.4016C271.899 66.6375 271.976 67.0374 272.089 67.6013C272.212 68.1653 272.299 68.5959 272.35 68.8933H272.411C272.463 68.6062 272.545 68.1448 272.658 67.509C272.781 66.8733 272.852 66.4939 272.873 66.3708L273.78 61.9104H275.872L273.473 70.7852H271.304L270.366 66.4631C270.233 65.8069 270.084 64.9917 269.92 64.0176H269.858C269.807 64.3354 269.725 64.7866 269.612 65.3711C269.499 65.9556 269.428 66.3196 269.397 66.4631L268.459 70.7852H266.29L263.891 61.9104ZM276.549 66.3093C276.549 64.884 276.939 63.751 277.718 62.9102C278.507 62.0591 279.497 61.6335 280.686 61.6335C281.855 61.6335 282.819 62.0591 283.578 62.9102C284.337 63.7612 284.716 64.8687 284.716 66.2324C284.716 66.499 284.701 66.7605 284.67 67.0168H278.518C278.518 67.6936 278.718 68.2781 279.118 68.7703C279.528 69.2522 280.087 69.4932 280.794 69.4932C281.286 69.4932 281.717 69.3752 282.086 69.1394C282.465 68.8933 282.753 68.5806 282.947 68.2012L284.578 68.7549C284.291 69.4111 283.824 69.9597 283.178 70.4006C282.532 70.8416 281.727 71.062 280.763 71.062C279.523 71.062 278.507 70.6313 277.718 69.77C276.939 68.9087 276.549 67.7551 276.549 66.3093ZM278.548 65.6479H282.732C282.732 64.9712 282.553 64.397 282.194 63.9253C281.835 63.4434 281.332 63.2024 280.686 63.2024C280.04 63.2024 279.523 63.4485 279.133 63.9407C278.754 64.4226 278.559 64.9917 278.548 65.6479ZM286.3 70.7852V61.9104H288.177V62.864C288.372 62.5359 288.649 62.2488 289.007 62.0027C289.377 61.7566 289.812 61.6335 290.315 61.6335C290.786 61.6335 291.171 61.7002 291.468 61.8335V63.6023C291.079 63.4792 290.694 63.4177 290.315 63.4177C289.648 63.4177 289.136 63.6792 288.777 64.2021C288.428 64.7148 288.254 65.4019 288.254 66.2632V70.7852H286.3ZM292.007 63.5715V61.9104H293.36V60.9568C293.36 60.0442 293.586 59.3623 294.037 58.9111C294.498 58.4497 295.144 58.219 295.975 58.219H297.375V59.8647H296.252C295.934 59.8647 295.698 59.9622 295.544 60.157C295.401 60.3518 295.329 60.6646 295.329 61.0952V61.9104H297.175V63.5715H295.329V70.7852H293.36V63.5715H292.007ZM298.328 67.5706V61.9104H300.282V67.3245C300.282 68.7087 300.769 69.4009 301.743 69.4009C302.327 69.4009 302.784 69.1548 303.112 68.6626C303.44 68.1602 303.604 67.5654 303.604 66.8784V61.9104H305.542V70.7852H303.665V69.7546H303.65C303.506 70.0725 303.23 70.3699 302.819 70.6467C302.42 70.9236 301.917 71.062 301.312 71.062C300.953 71.062 300.61 71.0056 300.282 70.8928C299.964 70.7903 299.651 70.6211 299.343 70.3853C299.036 70.1392 298.79 69.7751 298.605 69.2932C298.421 68.8113 298.328 68.2371 298.328 67.5706ZM307.834 70.7852V58.219H309.772V70.7852H307.834ZM33.4698 88.2935C33.4698 88.6216 33.598 88.8984 33.8544 89.124C34.121 89.3394 34.4696 89.447 34.9003 89.447C35.5155 89.447 36.0385 89.2419 36.4691 88.8318C36.91 88.4216 37.1305 87.8833 37.1305 87.2168V86.4016C36.6588 86.5144 36.0897 86.6221 35.4232 86.7246C34.121 86.9297 33.4698 87.4526 33.4698 88.2935ZM31.5011 88.4626C31.5011 86.7913 32.7418 85.771 35.2233 85.4019C36.1256 85.2686 36.7614 85.1455 37.1305 85.0327V84.5559C37.1305 84.1252 36.9767 83.7869 36.6691 83.5408C36.3615 83.2947 35.9513 83.1716 35.4386 83.1716C34.4645 83.1716 33.6237 83.5715 32.9161 84.3713L31.7318 83.3562C32.1932 82.8127 32.7418 82.3923 33.3776 82.095C34.0236 81.7874 34.7003 81.6335 35.4078 81.6335C36.7306 81.6335 37.674 81.9565 38.2379 82.6025C38.8019 83.2383 39.0839 84.1304 39.0839 85.2788V90.7852H37.192V89.6777C37.0074 90.0571 36.6844 90.3853 36.223 90.6621C35.7719 90.9287 35.2386 91.062 34.6234 91.062C33.6493 91.062 32.8854 90.821 32.3317 90.3391C31.778 89.8572 31.5011 89.2317 31.5011 88.4626ZM41.0834 90.7852V81.9104H42.9752V83.0332H42.9906C43.1444 82.7051 43.4264 82.3923 43.8365 82.095C44.257 81.7874 44.7953 81.6335 45.4515 81.6335C46.3334 81.6335 47.0358 81.9053 47.5587 82.4487C48.0817 82.9922 48.3431 83.8689 48.3431 85.0789V90.7852H46.3898V85.3403C46.3898 83.9766 45.9283 83.2947 45.0055 83.2947C44.4415 83.2947 43.9698 83.5203 43.5905 83.9714C43.2213 84.4226 43.0367 84.9814 43.0367 85.6479V90.7852H41.0834ZM49.8351 86.3401C49.8351 84.884 50.1888 83.7356 50.8964 82.8948C51.6141 82.054 52.5216 81.6335 53.6188 81.6335C54.1417 81.6335 54.5929 81.7617 54.9723 82.0181C55.3619 82.2642 55.6593 82.5564 55.8644 82.8948V78.219H57.8024V90.7852H55.9259V89.6316C55.7413 90.0212 55.4337 90.3596 55.0031 90.6467C54.5826 90.9236 54.1161 91.062 53.6034 91.062C53.142 91.062 52.6959 90.9749 52.2653 90.8005C51.8346 90.6262 51.4296 90.3596 51.0502 90.0007C50.681 89.6418 50.3837 89.1497 50.1581 88.5242C49.9427 87.8884 49.8351 87.1604 49.8351 86.3401ZM51.8346 86.3401C51.8346 87.304 52.0192 88.0576 52.3883 88.6011C52.7677 89.1343 53.265 89.4009 53.8802 89.4009C54.475 89.4009 54.9569 89.1292 55.326 88.5857C55.7054 88.032 55.8951 87.2834 55.8951 86.3401C55.8951 85.4275 55.7106 84.6943 55.3414 84.1406C54.9825 83.5767 54.4955 83.2947 53.8802 83.2947C53.2343 83.2947 52.7318 83.5715 52.3729 84.1252C52.014 84.679 51.8346 85.4172 51.8346 86.3401ZM63.3549 86.3093C63.3549 84.884 63.7445 83.751 64.5238 82.9102C65.3134 82.0591 66.3029 81.6335 67.4923 81.6335C68.6613 81.6335 69.6251 82.0591 70.3839 82.9102C71.1427 83.7612 71.5221 84.8687 71.5221 86.2324C71.5221 86.499 71.5067 86.7605 71.476 87.0168H65.3236C65.3236 87.6936 65.5236 88.2781 65.9235 88.7703C66.3336 89.2522 66.8925 89.4932 67.6 89.4932C68.0922 89.4932 68.5228 89.3752 68.892 89.1394C69.2714 88.8933 69.5585 88.5806 69.7533 88.2012L71.3837 88.7549C71.0966 89.4111 70.63 89.9597 69.984 90.4006C69.338 90.8416 68.5331 91.062 67.5692 91.062C66.3285 91.062 65.3134 90.6313 64.5238 89.77C63.7445 88.9087 63.3549 87.7551 63.3549 86.3093ZM65.3544 85.6479H69.538C69.538 84.9712 69.3585 84.397 68.9996 83.9253C68.6407 83.4434 68.1383 83.2024 67.4923 83.2024C66.8463 83.2024 66.3285 83.4485 65.9388 83.9407C65.5594 84.4226 65.3646 84.9917 65.3544 85.6479ZM74.5521 88.2935C74.5521 88.6216 74.6803 88.8984 74.9366 89.124C75.2032 89.3394 75.5519 89.447 75.9825 89.447C76.5978 89.447 77.1207 89.2419 77.5514 88.8318C77.9923 88.4216 78.2128 87.8833 78.2128 87.2168V86.4016C77.7411 86.5144 77.172 86.6221 76.5055 86.7246C75.2032 86.9297 74.5521 87.4526 74.5521 88.2935ZM72.5834 88.4626C72.5834 86.7913 73.8241 85.771 76.3055 85.4019C77.2079 85.2686 77.8436 85.1455 78.2128 85.0327V84.5559C78.2128 84.1252 78.059 83.7869 77.7513 83.5408C77.4437 83.2947 77.0336 83.1716 76.5209 83.1716C75.5468 83.1716 74.7059 83.5715 73.9984 84.3713L72.8141 83.3562C73.2755 82.8127 73.8241 82.3923 74.4598 82.095C75.1058 81.7874 75.7826 81.6335 76.4901 81.6335C77.8129 81.6335 78.7562 81.9565 79.3202 82.6025C79.8842 83.2383 80.1661 84.1304 80.1661 85.2788V90.7852H78.2743V89.6777C78.0897 90.0571 77.7667 90.3853 77.3053 90.6621C76.8541 90.9287 76.3209 91.062 75.7057 91.062C74.7316 91.062 73.9677 90.821 73.4139 90.3391C72.8602 89.8572 72.5834 89.2317 72.5834 88.4626ZM81.5043 88.9395L82.9039 88.1243C83.5192 89.0266 84.319 89.4778 85.3033 89.4778C85.7853 89.4778 86.1647 89.3855 86.4415 89.2009C86.7286 89.0061 86.8722 88.7498 86.8722 88.4319C86.8722 88.1755 86.7543 87.95 86.5184 87.7551C86.2928 87.5603 86.0519 87.4167 85.7955 87.3245C85.5392 87.2219 85.1547 87.0886 84.642 86.9246C84.5497 86.8938 84.483 86.8733 84.442 86.863C84.0729 86.74 83.7601 86.6221 83.5038 86.5093C83.2577 86.3862 82.9962 86.2273 82.7194 86.0325C82.4425 85.8274 82.2323 85.5762 82.0887 85.2788C81.9452 84.9712 81.8734 84.6174 81.8734 84.2175C81.8734 83.4382 82.2015 82.8127 82.8578 82.3411C83.514 81.8694 84.3292 81.6335 85.3033 81.6335C86.0314 81.6335 86.7184 81.8284 87.3644 82.218C88.0104 82.5974 88.4923 83.0845 88.8102 83.6792L87.5182 84.4636C86.9132 83.6331 86.1801 83.2178 85.3187 83.2178C84.847 83.2178 84.483 83.3152 84.2267 83.51C83.9806 83.6946 83.8575 83.9407 83.8575 84.2483C83.8575 84.5046 83.9652 84.7354 84.1805 84.9404C84.4061 85.1353 84.6368 85.2788 84.8727 85.3711C85.1085 85.4634 85.4418 85.5813 85.8724 85.7249C85.9852 85.7556 86.0673 85.7812 86.1185 85.8018C87.9437 86.3862 88.8563 87.2681 88.8563 88.4473C88.8563 89.1753 88.5487 89.7957 87.9335 90.3083C87.3285 90.8108 86.4672 91.062 85.3495 91.062C84.4882 91.062 83.7191 90.8723 83.0424 90.4929C82.3759 90.1135 81.8632 89.5957 81.5043 88.9395ZM89.4254 81.9104H91.5634L93.0861 86.4785C93.3424 87.3193 93.5372 88.0012 93.6705 88.5242H93.7321C93.7833 88.3396 93.973 87.6577 94.3011 86.4785L95.7008 81.9104H97.8234L94.1473 91.9541C93.8192 92.8564 93.3937 93.4922 92.8707 93.8613C92.358 94.2305 91.7172 94.415 90.9481 94.415H90.3483V92.7847H90.6251C91.0865 92.7847 91.4608 92.6821 91.7479 92.4771C92.0453 92.2822 92.2811 91.9387 92.4554 91.4465L92.7477 90.5698L89.4254 81.9104ZM102.053 83.5715V81.9104H103.422V79.2803H105.36V81.9104H107.39V83.5715H105.36V87.9397C105.36 88.3601 105.442 88.6626 105.606 88.8472C105.78 89.0317 106.042 89.124 106.391 89.124H107.406V90.7852H106.144C104.329 90.7852 103.422 89.8828 103.422 88.0781V83.5715H102.053ZM110.42 86.3555C110.42 87.3809 110.63 88.1448 111.051 88.6472C111.471 89.1497 111.964 89.4009 112.527 89.4009C113.081 89.4009 113.568 89.1497 113.989 88.6472C114.409 88.1448 114.619 87.3809 114.619 86.3555C114.619 85.3096 114.409 84.5405 113.989 84.0483C113.568 83.5459 113.081 83.2947 112.527 83.2947C111.974 83.2947 111.482 83.5459 111.051 84.0483C110.63 84.5405 110.42 85.3096 110.42 86.3555ZM108.421 86.3555C108.421 85.0327 108.769 83.915 109.467 83.0024C110.164 82.0898 111.184 81.6335 112.527 81.6335C113.86 81.6335 114.876 82.0898 115.573 83.0024C116.27 83.915 116.619 85.0327 116.619 86.3555C116.619 86.7656 116.578 87.1758 116.496 87.5859C116.424 87.9961 116.291 88.4165 116.096 88.8472C115.901 89.2676 115.655 89.6418 115.358 89.97C115.06 90.2878 114.665 90.5493 114.173 90.7544C113.691 90.9595 113.143 91.062 112.527 91.062C111.922 91.062 111.374 90.9646 110.882 90.7698C110.4 90.5647 110.005 90.3083 109.697 90.0007C109.4 89.6829 109.149 89.3137 108.944 88.8933C108.749 88.4626 108.61 88.0422 108.528 87.6321C108.457 87.2117 108.421 86.7861 108.421 86.3555ZM121.956 87.5706V81.9104H123.909V87.3245C123.909 88.7087 124.396 89.4009 125.37 89.4009C125.955 89.4009 126.411 89.1548 126.739 88.6626C127.068 88.1602 127.232 87.5654 127.232 86.8784V81.9104H129.17V90.7852H127.293V89.7546H127.278C127.134 90.0725 126.857 90.3699 126.447 90.6467C126.047 90.9236 125.545 91.062 124.94 91.062C124.581 91.062 124.237 91.0056 123.909 90.8928C123.591 90.7903 123.279 90.6211 122.971 90.3853C122.663 90.1392 122.417 89.7751 122.233 89.2932C122.048 88.8113 121.956 88.2371 121.956 87.5706ZM130.631 88.9395L132.03 88.1243C132.646 89.0266 133.445 89.4778 134.43 89.4778C134.912 89.4778 135.291 89.3855 135.568 89.2009C135.855 89.0061 135.999 88.7498 135.999 88.4319C135.999 88.1755 135.881 87.95 135.645 87.7551C135.419 87.5603 135.178 87.4167 134.922 87.3245C134.666 87.2219 134.281 87.0886 133.768 86.9246C133.676 86.8938 133.609 86.8733 133.568 86.863C133.199 86.74 132.887 86.6221 132.63 86.5093C132.384 86.3862 132.123 86.2273 131.846 86.0325C131.569 85.8274 131.359 85.5762 131.215 85.2788C131.072 84.9712 131 84.6174 131 84.2175C131 83.4382 131.328 82.8127 131.984 82.3411C132.641 81.8694 133.456 81.6335 134.43 81.6335C135.158 81.6335 135.845 81.8284 136.491 82.218C137.137 82.5974 137.619 83.0845 137.937 83.6792L136.645 84.4636C136.04 83.6331 135.307 83.2178 134.445 83.2178C133.974 83.2178 133.609 83.3152 133.353 83.51C133.107 83.6946 132.984 83.9407 132.984 84.2483C132.984 84.5046 133.092 84.7354 133.307 84.9404C133.533 85.1353 133.763 85.2788 133.999 85.3711C134.235 85.4634 134.568 85.5813 134.999 85.7249C135.112 85.7556 135.194 85.7812 135.245 85.8018C137.07 86.3862 137.983 87.2681 137.983 88.4473C137.983 89.1753 137.675 89.7957 137.06 90.3083C136.455 90.8108 135.594 91.062 134.476 91.062C133.615 91.062 132.846 90.8723 132.169 90.4929C131.502 90.1135 130.99 89.5957 130.631 88.9395ZM138.998 86.3093C138.998 84.884 139.388 83.751 140.167 82.9102C140.956 82.0591 141.946 81.6335 143.135 81.6335C144.304 81.6335 145.268 82.0591 146.027 82.9102C146.786 83.7612 147.165 84.8687 147.165 86.2324C147.165 86.499 147.15 86.7605 147.119 87.0168H140.967C140.967 87.6936 141.167 88.2781 141.567 88.7703C141.977 89.2522 142.536 89.4932 143.243 89.4932C143.735 89.4932 144.166 89.3752 144.535 89.1394C144.914 88.8933 145.202 88.5806 145.396 88.2012L147.027 88.7549C146.74 89.4111 146.273 89.9597 145.627 90.4006C144.981 90.8416 144.176 91.062 143.212 91.062C141.972 91.062 140.956 90.6313 140.167 89.77C139.388 88.9087 138.998 87.7551 138.998 86.3093ZM140.997 85.6479H145.181C145.181 84.9712 145.002 84.397 144.643 83.9253C144.284 83.4434 143.781 83.2024 143.135 83.2024C142.489 83.2024 141.972 83.4485 141.582 83.9407C141.203 84.4226 141.008 84.9917 140.997 85.6479ZM152.902 90.7852V78.6189H157.655C158.926 78.6189 159.916 78.9624 160.623 79.6494C161.341 80.3262 161.7 81.2234 161.7 82.3411C161.7 83.4895 161.331 84.397 160.593 85.0635C159.865 85.73 158.896 86.0632 157.686 86.0632H154.932V90.7852H152.902ZM154.932 84.3406H157.409C158.106 84.3406 158.65 84.1714 159.039 83.833C159.429 83.4946 159.624 82.9973 159.624 82.3411C159.624 81.6951 159.434 81.2029 159.055 80.8645C158.675 80.5261 158.121 80.3569 157.393 80.3569H154.932V84.3406ZM164.053 88.2935C164.053 88.6216 164.182 88.8984 164.438 89.124C164.704 89.3394 165.053 89.447 165.484 89.447C166.099 89.447 166.622 89.2419 167.053 88.8318C167.494 88.4216 167.714 87.8833 167.714 87.2168V86.4016C167.242 86.5144 166.673 86.6221 166.007 86.7246C164.704 86.9297 164.053 87.4526 164.053 88.2935ZM162.085 88.4626C162.085 86.7913 163.325 85.771 165.807 85.4019C166.709 85.2686 167.345 85.1455 167.714 85.0327V84.5559C167.714 84.1252 167.56 83.7869 167.253 83.5408C166.945 83.2947 166.535 83.1716 166.022 83.1716C165.048 83.1716 164.207 83.5715 163.5 84.3713L162.315 83.3562C162.777 82.8127 163.325 82.3923 163.961 82.095C164.607 81.7874 165.284 81.6335 165.991 81.6335C167.314 81.6335 168.257 81.9565 168.821 82.6025C169.385 83.2383 169.667 84.1304 169.667 85.2788V90.7852H167.776V89.6777C167.591 90.0571 167.268 90.3853 166.807 90.6621C166.355 90.9287 165.822 91.062 165.207 91.062C164.233 91.062 163.469 90.821 162.915 90.3391C162.361 89.8572 162.085 89.2317 162.085 88.4626ZM170.713 81.9104H172.851L174.374 86.4785C174.63 87.3193 174.825 88.0012 174.958 88.5242H175.02C175.071 88.3396 175.261 87.6577 175.589 86.4785L176.989 81.9104H179.111L175.435 91.9541C175.107 92.8564 174.682 93.4922 174.159 93.8613C173.646 94.2305 173.005 94.415 172.236 94.415H171.636V92.7847H171.913C172.374 92.7847 172.749 92.6821 173.036 92.4771C173.333 92.2822 173.569 91.9387 173.743 91.4465L174.036 90.5698L170.713 81.9104ZM180.28 90.7852V81.9104H182.172V82.9409C182.326 82.6436 182.603 82.3513 183.003 82.0642C183.402 81.7771 183.884 81.6335 184.448 81.6335C185.422 81.6335 186.14 82.1616 186.602 83.2178C186.673 83.0742 186.766 82.9307 186.879 82.7871C187.002 82.6436 187.166 82.4744 187.371 82.2795C187.586 82.0847 187.858 81.9309 188.186 81.8181C188.524 81.6951 188.888 81.6335 189.278 81.6335C191.093 81.6335 192 82.782 192 85.0789V90.7852H190.032V85.1404C190.032 84.5251 189.944 84.0637 189.77 83.7561C189.596 83.4485 189.288 83.2947 188.847 83.2947C188.324 83.2947 187.899 83.5151 187.571 83.9561C187.253 84.3867 187.094 84.9199 187.094 85.5557V90.7852H185.171V85.0942C185.171 83.8945 184.771 83.2947 183.972 83.2947C183.418 83.2947 182.987 83.4998 182.68 83.9099C182.382 84.3201 182.234 84.8584 182.234 85.5249V90.7852H180.28ZM193.492 86.3093C193.492 84.884 193.882 83.751 194.661 82.9102C195.451 82.0591 196.44 81.6335 197.63 81.6335C198.799 81.6335 199.763 82.0591 200.521 82.9102C201.28 83.7612 201.66 84.8687 201.66 86.2324C201.66 86.499 201.644 86.7605 201.613 87.0168H195.461C195.461 87.6936 195.661 88.2781 196.061 88.7703C196.471 89.2522 197.03 89.4932 197.737 89.4932C198.23 89.4932 198.66 89.3752 199.029 89.1394C199.409 88.8933 199.696 88.5806 199.891 88.2012L201.521 88.7549C201.234 89.4111 200.767 89.9597 200.121 90.4006C199.475 90.8416 198.671 91.062 197.707 91.062C196.466 91.062 195.451 90.6313 194.661 89.77C193.882 88.9087 193.492 87.7551 193.492 86.3093ZM195.492 85.6479H199.675C199.675 84.9712 199.496 84.397 199.137 83.9253C198.778 83.4434 198.276 83.2024 197.63 83.2024C196.984 83.2024 196.466 83.4485 196.076 83.9407C195.697 84.4226 195.502 84.9917 195.492 85.6479ZM203.244 90.7852V81.9104H205.136V83.0332H205.151C205.305 82.7051 205.587 82.3923 205.997 82.095C206.417 81.7874 206.956 81.6335 207.612 81.6335C208.494 81.6335 209.196 81.9053 209.719 82.4487C210.242 82.9922 210.504 83.8689 210.504 85.0789V90.7852H208.55V85.3403C208.55 83.9766 208.089 83.2947 207.166 83.2947C206.602 83.2947 206.13 83.5203 205.751 83.9714C205.382 84.4226 205.197 84.9814 205.197 85.6479V90.7852H203.244ZM211.642 83.5715V81.9104H213.011V79.2803H214.949V81.9104H216.979V83.5715H214.949V87.9397C214.949 88.3601 215.031 88.6626 215.195 88.8472C215.369 89.0317 215.63 89.124 215.979 89.124H216.994V90.7852H215.733C213.918 90.7852 213.011 89.8828 213.011 88.0781V83.5715H211.642ZM221.947 84.6943C221.947 82.8384 222.444 81.3157 223.439 80.1262C224.433 78.9368 225.766 78.342 227.438 78.342C228.063 78.342 228.638 78.4446 229.161 78.6497C229.694 78.8547 230.135 79.1213 230.483 79.4495C230.832 79.7673 231.109 80.075 231.314 80.3723C231.529 80.6594 231.703 80.9517 231.837 81.249L230.099 81.8181C229.883 81.49 229.683 81.2183 229.499 81.0029C229.325 80.7876 229.053 80.5825 228.684 80.3877C228.315 80.1826 227.904 80.0801 227.453 80.0801C226.387 80.0801 225.551 80.5005 224.946 81.3413C224.341 82.1821 224.039 83.2998 224.039 84.6943C224.039 86.1196 224.346 87.2476 224.962 88.0781C225.577 88.9087 226.377 89.324 227.361 89.324C228.212 89.324 228.879 89.0779 229.36 88.5857C229.842 88.0935 230.114 87.468 230.176 86.7092C230.206 86.2478 230.222 85.9146 230.222 85.7095H227.238V83.9868H232.191V90.7852H230.791L230.606 89.5393C229.94 90.5544 228.838 91.062 227.299 91.062C225.761 91.062 224.485 90.4878 223.47 89.3394C222.454 88.1807 221.947 86.6323 221.947 84.6943ZM235.544 88.2935C235.544 88.6216 235.672 88.8984 235.928 89.124C236.195 89.3394 236.543 89.447 236.974 89.447C237.589 89.447 238.112 89.2419 238.543 88.8318C238.984 88.4216 239.204 87.8833 239.204 87.2168V86.4016C238.733 86.5144 238.163 86.6221 237.497 86.7246C236.195 86.9297 235.544 87.4526 235.544 88.2935ZM233.575 88.4626C233.575 86.7913 234.816 85.771 237.297 85.4019C238.199 85.2686 238.835 85.1455 239.204 85.0327V84.5559C239.204 84.1252 239.05 83.7869 238.743 83.5408C238.435 83.2947 238.025 83.1716 237.512 83.1716C236.538 83.1716 235.697 83.5715 234.99 84.3713L233.806 83.3562C234.267 82.8127 234.816 82.3923 235.451 82.095C236.097 81.7874 236.774 81.6335 237.482 81.6335C238.804 81.6335 239.748 81.9565 240.312 82.6025C240.876 83.2383 241.158 84.1304 241.158 85.2788V90.7852H239.266V89.6777C239.081 90.0571 238.758 90.3853 238.297 90.6621C237.846 90.9287 237.312 91.062 236.697 91.062C235.723 91.062 234.959 90.821 234.405 90.3391C233.852 89.8572 233.575 89.2317 233.575 88.4626ZM242.373 83.5715V81.9104H243.742V79.2803H245.68V81.9104H247.71V83.5715H245.68V87.9397C245.68 88.3601 245.762 88.6626 245.926 88.8472C246.1 89.0317 246.361 89.124 246.71 89.124H247.725V90.7852H246.464C244.649 90.7852 243.742 89.8828 243.742 88.0781V83.5715H242.373ZM248.74 86.3093C248.74 84.884 249.13 83.751 249.909 82.9102C250.699 82.0591 251.688 81.6335 252.878 81.6335C254.047 81.6335 255.011 82.0591 255.769 82.9102C256.528 83.7612 256.908 84.8687 256.908 86.2324C256.908 86.499 256.892 86.7605 256.861 87.0168H250.709C250.709 87.6936 250.909 88.2781 251.309 88.7703C251.719 89.2522 252.278 89.4932 252.985 89.4932C253.478 89.4932 253.908 89.3752 254.277 89.1394C254.657 88.8933 254.944 88.5806 255.139 88.2012L256.769 88.7549C256.482 89.4111 256.016 89.9597 255.37 90.4006C254.724 90.8416 253.919 91.062 252.955 91.062C251.714 91.062 250.699 90.6313 249.909 89.77C249.13 88.9087 248.74 87.7551 248.74 86.3093ZM250.74 85.6479H254.923C254.923 84.9712 254.744 84.397 254.385 83.9253C254.026 83.4434 253.524 83.2024 252.878 83.2024C252.232 83.2024 251.714 83.4485 251.324 83.9407C250.945 84.4226 250.75 84.9917 250.74 85.6479ZM257.63 81.9104H259.722L260.645 86.3708C260.707 86.7195 260.86 87.5603 261.107 88.8933H261.168C261.219 88.6062 261.301 88.1653 261.414 87.5706C261.537 86.9758 261.619 86.5759 261.66 86.3708L262.599 81.9104H264.644L265.598 86.4016C265.639 86.6375 265.716 87.0374 265.828 87.6013C265.952 88.1653 266.039 88.5959 266.09 88.8933H266.151C266.203 88.6062 266.285 88.1448 266.398 87.509C266.521 86.8733 266.592 86.4939 266.613 86.3708L267.52 81.9104H269.612L267.213 90.7852H265.044L264.106 86.4631C263.973 85.8069 263.824 84.9917 263.66 84.0176H263.598C263.547 84.3354 263.465 84.7866 263.352 85.3711C263.239 85.9556 263.168 86.3196 263.137 86.4631L262.199 90.7852H260.03L257.63 81.9104ZM272.042 88.2935C272.042 88.6216 272.171 88.8984 272.427 89.124C272.693 89.3394 273.042 89.447 273.473 89.447C274.088 89.447 274.611 89.2419 275.042 88.8318C275.483 88.4216 275.703 87.8833 275.703 87.2168V86.4016C275.231 86.5144 274.662 86.6221 273.996 86.7246C272.693 86.9297 272.042 87.4526 272.042 88.2935ZM270.074 88.4626C270.074 86.7913 271.314 85.771 273.796 85.4019C274.698 85.2686 275.334 85.1455 275.703 85.0327V84.5559C275.703 84.1252 275.549 83.7869 275.242 83.5408C274.934 83.2947 274.524 83.1716 274.011 83.1716C273.037 83.1716 272.196 83.5715 271.489 84.3713L270.304 83.3562C270.766 82.8127 271.314 82.3923 271.95 82.095C272.596 81.7874 273.273 81.6335 273.98 81.6335C275.303 81.6335 276.246 81.9565 276.81 82.6025C277.374 83.2383 277.656 84.1304 277.656 85.2788V90.7852H275.765V89.6777C275.58 90.0571 275.257 90.3853 274.796 90.6621C274.344 90.9287 273.811 91.062 273.196 91.062C272.222 91.062 271.458 90.821 270.904 90.3391C270.35 89.8572 270.074 89.2317 270.074 88.4626ZM278.702 81.9104H280.84L282.363 86.4785C282.619 87.3193 282.814 88.0012 282.947 88.5242H283.009C283.06 88.3396 283.25 87.6577 283.578 86.4785L284.978 81.9104H287.1L283.424 91.9541C283.096 92.8564 282.671 93.4922 282.148 93.8613C281.635 94.2305 280.994 94.415 280.225 94.415H279.625V92.7847H279.902C280.363 92.7847 280.738 92.6821 281.025 92.4771C281.322 92.2822 281.558 91.9387 281.732 91.4465L282.025 90.5698L278.702 81.9104ZM288.838 90.7852V88.4165H291.422V90.7852H288.838Z" fill="#0A2540"/>
</svg>
