<?xml version="1.0" encoding="iso-8859-1"?>
<!-- Generator: Adobe Illustrator 19.0.0, SVG Export Plug-In . SVG Version: 6.00 Build 0)  -->
<svg version="1.1" id="Layer_1" xmlns="http://www.w3.org/2000/svg" xmlns:xlink="http://www.w3.org/1999/xlink" x="0px" y="0px"
	 viewBox="0 0 496 496" style="enable-background:new 0 0 496 496;" xml:space="preserve">
<g>
	<g>
		<g>
			<path d="M0,0v496h496V0H0z M480,480H16V80h464V480z M480,64H16V16h464V64z"/>
			<rect x="32" y="32" width="16" height="16"/>
			<rect x="64" y="32" width="16" height="16"/>
			<rect x="96" y="32" width="16" height="16"/>
			<path d="M160,96H32v128h128V96z M144,128h-16v16h16v64H48v-64h64v-16H48v-16h96V128z"/>
			<path d="M312,96H184v128h128V96z M296,128h-16v16h16v64h-96v-64h64v-16h-64v-16h96V128z"/>
			<path d="M464,96H336v128h128V96z M448,128h-16v16h16v64h-96v-64h64v-16h-64v-16h96V128z"/>
			<rect x="32" y="240" width="432" height="16"/>
			<path d="M424.568,330.744l2.744-2.744l19.88-19.88l-11.312-11.312l-22.624,22.624l8.576,8.568H320v101.832l-8.568-8.568
				l-22.624,22.624L300.12,455.2L320,435.312l2.744-2.744L344,411.312l48,48L451.312,400l-48-48L424.568,330.744z M428.688,400
				L392,436.688l-48-48l-8,8V344h52.688l-8,8L428.688,400z"/>
			<rect x="360" y="272" width="16" height="32"/>
			<rect x="289.752" y="305.777" transform="matrix(0.7071 0.7071 -0.7071 0.7071 311.4265 -124.2964)" width="32" height="16"/>
			<rect x="264" y="368" width="32" height="16"/>
			<rect x="112" y="176" width="16" height="16"/>
			<rect x="264" y="176" width="16" height="16"/>
			<rect x="416" y="176" width="16" height="16"/>
			<rect x="32" y="432" width="152" height="16"/>
			<rect x="232" y="432" width="16" height="16"/>
			<rect x="32" y="384" width="216" height="16"/>
			<rect x="32" y="336" width="216" height="16"/>
			<rect x="32" y="288" width="216" height="16"/>
			<rect x="200" y="432" width="16" height="16"/>
		</g>
	</g>
</g>
<g>
</g>
<g>
</g>
<g>
</g>
<g>
</g>
<g>
</g>
<g>
</g>
<g>
</g>
<g>
</g>
<g>
</g>
<g>
</g>
<g>
</g>
<g>
</g>
<g>
</g>
<g>
</g>
<g>
</g>
</svg>
