<?xml version="1.0" encoding="iso-8859-1"?>
<!-- Generator: Adobe Illustrator 19.0.0, SVG Export Plug-In . SVG Version: 6.00 Build 0)  -->
<svg version="1.1" id="Capa_1" xmlns="http://www.w3.org/2000/svg" xmlns:xlink="http://www.w3.org/1999/xlink" x="0px" y="0px"
	 viewBox="0 0 496 496" style="enable-background:new 0 0 496 496;" xml:space="preserve">
<g>
	<g>
		<g>
			<path d="M0,0v496h496V0H0z M480,480H16V80h464V480z M480,64H16V16h464V64z"/>
			<rect x="32" y="32" width="16" height="16"/>
			<rect x="64" y="32" width="16" height="16"/>
			<rect x="96" y="32" width="16" height="16"/>
			<path d="M240,448h208V160H288v-48H48v288h192V448z M288,176h144v32H288V176z M288,224h144v208H256v-32h32V224z M112,128h160v32
				H112V128z M96,384H64V176h32V384z M96,160H64v-32h32V160z M112,384V176h160v208H112z"/>
			<rect x="160" y="192" width="96" height="16"/>
			<rect x="128" y="224" width="128" height="16"/>
			<rect x="128" y="256" width="128" height="16"/>
			<rect x="128" y="288" width="128" height="16"/>
			<rect x="128" y="320" width="128" height="16"/>
			<rect x="240" y="352" width="16" height="16"/>
			<rect x="128" y="352" width="96" height="16"/>
			<rect x="128" y="192" width="16" height="16"/>
			<rect x="336" y="240" width="80" height="16"/>
			<rect x="304" y="240" width="16" height="16"/>
			<rect x="304" y="272" width="112" height="16"/>
			<rect x="304" y="304" width="112" height="16"/>
			<rect x="304" y="336" width="112" height="16"/>
			<rect x="304" y="368" width="112" height="16"/>
			<rect x="400" y="400" width="16" height="16"/>
			<rect x="304" y="400" width="80" height="16"/>
		</g>
	</g>
</g>
<g>
</g>
<g>
</g>
<g>
</g>
<g>
</g>
<g>
</g>
<g>
</g>
<g>
</g>
<g>
</g>
<g>
</g>
<g>
</g>
<g>
</g>
<g>
</g>
<g>
</g>
<g>
</g>
<g>
</g>
</svg>
