<svg id="Layer_5" enable-background="new 0 0 64 64" height="512" viewBox="0 0 64 64" width="512" xmlns="http://www.w3.org/2000/svg"><g><path d="m29 57h2v2h-2z"/><path d="m33 57h2v2h-2z"/><path d="m37 57h2v2h-2z"/><path d="m29 53h10v2h-10z"/><path d="m43 21h-14v14h14zm-2 12h-10v-10h10z"/><path d="m40.707 25.707-1.414-1.414-4.293 4.293-1.293-1.293-1.414 1.414 2.707 2.707z"/><path d="m43 5h-14v14h14zm-2 12h-10v-10h10z"/><path d="m40.707 9.707-1.414-1.414-4.293 4.293-1.293-1.293-1.414 1.414 2.707 2.707z"/><path d="m45 5h2v2h-2z"/><path d="m49 5h10v2h-10z"/><path d="m45 21h2v2h-2z"/><path d="m49 21h10v2h-10z"/><path d="m45 25h2v2h-2z"/><path d="m49 25h10v2h-10z"/><path d="m45 29h2v2h-2z"/><path d="m49 29h10v2h-10z"/><path d="m45 33h2v2h-2z"/><path d="m49 33h10v2h-10z"/><path d="m45 9h14v2h-14z"/><path d="m45 13h14v2h-14z"/><path d="m45 17h14v2h-14z"/><path d="m25 1v26h-21c-1.654 0-3 1.346-3 3v30c0 1.654 1.346 3 3 3h36c1.654 0 3-1.346 3-3v-21h20v-38zm-8 28h8v10h2v4h-10zm24 31c0 .551-.449 1-1 1h-36c-.551 0-1-.449-1-1v-30c0-.551.449-1 1-1h11v16h14v-6h12zm20-23h-34v-34h34z"/></g></svg>