<?xml version="1.0" encoding="iso-8859-1"?>
<!-- Generator: Adobe Illustrator 19.0.0, SVG Export Plug-In . SVG Version: 6.00 Build 0)  -->
<svg version="1.1" id="Capa_1" xmlns="http://www.w3.org/2000/svg" xmlns:xlink="http://www.w3.org/1999/xlink" x="0px" y="0px"
	 viewBox="0 0 496 496" style="enable-background:new 0 0 496 496;" xml:space="preserve">
<g>
	<g>
		<g>
			<path d="M0,408c0,22.056,17.944,40,40,40h120v32h-32v16h240v-16h-32v-32h120c22.056,0,40-17.944,40-40v-24H0V408z M320,480H176
				v-32h144V480z M16,400h464v8c0,13.232-10.768,24-24,24H40c-13.232,0-24-10.768-24-24V400z"/>
			<path d="M456,72h-72v16h72c13.232,0,24,10.768,24,24v256h16V112C496,89.944,478.056,72,456,72z"/>
			<path d="M16,112c0-13.232,10.768-24,24-24h72V72H40C17.944,72,0,89.944,0,112v256h16V112z"/>
			<path d="M248,240c66.168,0,120-53.832,120-120S314.168,0,248,0S128,53.832,128,120S181.832,240,248,240z M248,16
				c57.344,0,104,46.656,104,104s-46.656,104-104,104s-104-46.656-104-104S190.656,16,248,16z"/>
			<path d="M216,208h64c13.232,0,24-10.768,24-24v-64c0-13.232-10.768-24-24-24h-56V72c0-13.232,10.768-24,24-24s24,10.768,24,24v8
				h16v-8c0-22.056-17.944-40-40-40c-22.056,0-40,17.944-40,40v25.472c-9.288,3.312-16,12.112-16,22.528v64
				C192,197.232,202.768,208,216,208z M208,120c0-4.408,3.592-8,8-8h64c4.408,0,8,3.592,8,8v64c0,4.408-3.592,8-8,8h-64
				c-4.408,0-8-3.592-8-8V120z"/>
			<path d="M240,166.528V184h16v-17.472c9.288-3.312,16-12.112,16-22.528c0-13.232-10.768-24-24-24s-24,10.768-24,24
				C224,154.416,230.712,163.216,240,166.528z M248,136c4.408,0,8,3.592,8,8s-3.592,8-8,8c-4.408,0-8-3.592-8-8S243.592,136,248,136
				z"/>
			<path d="M64,280v64c0,13.232,10.768,24,24,24h320c13.232,0,24-10.768,24-24v-64c0-13.232-10.768-24-24-24H88
				C74.768,256,64,266.768,64,280z M416,280v64c0,4.408-3.592,8-8,8H88c-4.408,0-8-3.592-8-8v-64c0-4.408,3.592-8,8-8h320
				C412.408,272,416,275.592,416,280z"/>
			<rect x="128" y="288" width="16" height="16"/>
			<rect x="128" y="320" width="16" height="16"/>
			<rect x="160" y="304" width="16" height="16"/>
			<rect x="96" y="304" width="16" height="16"/>
			<rect x="240" y="288" width="16" height="16"/>
			<rect x="240" y="320" width="16" height="16"/>
			<rect x="272" y="304" width="16" height="16"/>
			<rect x="208" y="304" width="16" height="16"/>
			<rect x="352" y="288" width="16" height="16"/>
			<rect x="352" y="320" width="16" height="16"/>
			<rect x="384" y="304" width="16" height="16"/>
			<rect x="320" y="304" width="16" height="16"/>
		</g>
	</g>
</g>
<g>
</g>
<g>
</g>
<g>
</g>
<g>
</g>
<g>
</g>
<g>
</g>
<g>
</g>
<g>
</g>
<g>
</g>
<g>
</g>
<g>
</g>
<g>
</g>
<g>
</g>
<g>
</g>
<g>
</g>
</svg>
