<svg id="Layer_5" enable-background="new 0 0 64 64" height="512" viewBox="0 0 64 64" width="512" xmlns="http://www.w3.org/2000/svg"><g><path d="m42 9c-7.168 0-13 5.832-13 13s5.832 13 13 13 13-5.832 13-13-5.832-13-13-13zm0 24c-1.075 0-2.22-1.527-3.009-4h6.018c-.789 2.473-1.934 4-3.009 4zm-3.519-6c-.244-1.209-.408-2.553-.46-4h7.958c-.052 1.447-.217 2.791-.46 4zm-7.43-4h4.971c.046 1.419.184 2.763.409 4h-4.217c-.626-1.221-1.034-2.57-1.163-4zm10.949-12c1.075 0 2.22 1.527 3.009 4h-6.018c.789-2.473 1.934-4 3.009-4zm3.519 6c.244 1.209.408 2.553.46 4h-7.958c.052-1.447.217-2.791.46-4zm-9.497 4h-4.971c.13-1.43.537-2.779 1.164-4h4.217c-.226 1.237-.365 2.581-.41 4zm11.956 2h4.971c-.13 1.43-.537 2.779-1.164 4h-4.217c.226-1.237.365-2.581.41-4zm0-2c-.046-1.419-.184-2.763-.409-4h4.217c.626 1.221 1.034 2.57 1.164 4zm2.501-6h-3.374c-.368-1.295-.838-2.422-1.391-3.341 1.874.675 3.518 1.834 4.765 3.341zm-12.193-3.341c-.553.919-1.023 2.046-1.391 3.341h-3.374c1.247-1.507 2.891-2.666 4.765-3.341zm-4.765 17.341h3.374c.368 1.295.838 2.422 1.391 3.341-1.874-.675-3.518-1.834-4.765-3.341zm12.193 3.341c.553-.919 1.023-2.046 1.391-3.341h3.374c-1.247 1.507-2.891 2.666-4.765 3.341z"/><path d="m57 5h-50c-1.103 0-2 .897-2 2v30c0 1.103.897 2 2 2h34v4h14v-4h2c1.103 0 2-.897 2-2v-30c0-1.103-.897-2-2-2zm-14 34h2v2h-2zm6 0v2h-2v-2zm4 2h-2v-2h2zm-46-4v-30h50l.001 30z"/><path d="m9 9h2v2h-2z"/><path d="m13 9h12v2h-12z"/><path d="m9 13h16v2h-16z"/><path d="m58 1h-52c-2.757 0-5 2.243-5 5v36c0 2.757 2.243 5 5 5h15.421c.261.923.639 1.791 1.115 2.593-4.68.624-9.536 1.879-9.536 4.407v4c0 3.947 11.943 5 19 5s19-1.053 19-5v-4c0-2.528-4.856-3.783-9.535-4.407.476-.802.854-1.671 1.115-2.593h15.42c2.757 0 5-2.243 5-5v-36c0-2.757-2.243-5-5-5zm-26 60c-10.605 0-16.706-1.965-17-3v-1.542c3.7 1.952 11.718 2.542 17 2.542 5.283 0 13.302-.59 17.001-2.542l.001 1.525c-.296 1.052-6.397 3.017-17.002 3.017zm17.002-7.018c-.296 1.053-6.397 3.018-17.002 3.018-10.594 0-16.692-1.961-17-2.979v-.007c.157-.519 2.624-1.855 8.916-2.575 2.032 2.2 4.931 3.561 8.084 3.561s6.052-1.361 8.084-3.561c6.305.721 8.771 2.061 8.918 2.543zm-17.002-.982c-3.841 0-7.225-2.462-8.479-6h2.181c1.151 2.413 3.587 4 6.298 4s5.147-1.587 6.298-4h2.181c-1.254 3.538-4.638 6-8.479 6zm-3.99-6h7.98c-.928 1.234-2.396 2-3.99 2s-3.062-.766-3.99-2zm32.99-5c0 1.654-1.346 3-3 3h-52c-1.654 0-3-1.346-3-3v-36c0-1.654 1.346-3 3-3h52c1.654 0 3 1.346 3 3z"/><circle cx="8" cy="42" r="1"/><circle cx="12" cy="42" r="1"/></g></svg>