<svg xmlns="http://www.w3.org/2000/svg" viewBox="0 0 18 18"><path fill="#a0a5ab" d="M8.81,17a.45.45,0,0,0,.36,0l.24-.11A15,15,0,0,0,13,14.26a.37.37,0,0,0-.16-.6l-.41-.12a6.54,6.54,0,0,0-.81-.18.41.41,0,0,0-.37.12,8.76,8.76,0,0,1-2,1.48.42.42,0,0,1-.42,0,12.94,12.94,0,0,1-2.22-1.66.37.37,0,0,1,.2-.63,19,19,0,0,1,2.36-.34,11.54,11.54,0,0,1,4.15.51l.42.14a.42.42,0,0,0,.48-.16l.23-.35A18.55,18.55,0,0,0,16,9.41l.19-.48A.36.36,0,0,0,16,8.45l-.52-.16a21,21,0,0,0-6-.76,27,27,0,0,0-5.59.83.4.4,0,0,1-.5-.29L3.18,7.3a.37.37,0,0,1,.29-.43,25,25,0,0,1,8.31-.72,19.4,19.4,0,0,1,3.9.69l.63.21a.4.4,0,0,0,.53-.3l.09-.62a19.29,19.29,0,0,0,0-3.15l0-.33a.37.37,0,0,0-.27-.32l-.34-.11A29.1,29.1,0,0,0,9,1,24.84,24.84,0,0,0,1.6,2.24l-.32.11A.4.4,0,0,0,1,2.69,13.35,13.35,0,0,0,1,4.25a.39.39,0,0,0,.51.33l1-.27A.38.38,0,0,0,2.84,4h0l.29-.35A22.72,22.72,0,0,1,9,2.73a25.53,25.53,0,0,1,5.84.89.41.41,0,0,1,.29.35v.36a.47.47,0,0,1-.58.44,26.51,26.51,0,0,0-12.73.76l-.38.12A.36.36,0,0,0,1.16,6v.37A11.12,11.12,0,0,0,2,9.84l.19.43a.41.41,0,0,0,.5.21l.47-.14A29,29,0,0,1,9.46,9.26a20.46,20.46,0,0,1,3.92.33.37.37,0,0,1,.28.53l-.19.34a.82.82,0,0,1-.88.39A13.39,13.39,0,0,0,9,10.59a18.8,18.8,0,0,0-4.8,1l-.61.24a.35.35,0,0,0-.18.55l.38.51a14.24,14.24,0,0,0,4.79,4Z"/><path opacity="0" d="M1,1H0V0H1ZM18,17H17v1h1Z"/></svg>