<svg xmlns="http://www.w3.org/2000/svg" viewBox="0 0 24 24"><path fill="#56b601" d="M11.71,23.94a.66.66,0,0,0,.55,0l.36-.17a22.26,22.26,0,0,0,5.32-3.88.54.54,0,0,0-.25-.89l-.61-.2a9.39,9.39,0,0,0-1.22-.26.62.62,0,0,0-.54.18,13.1,13.1,0,0,1-3,2.22.64.64,0,0,1-.64,0,19.92,19.92,0,0,1-3.32-2.5.54.54,0,0,1,.3-.93A25.53,25.53,0,0,1,12.2,17a17.8,17.8,0,0,1,6.23.76l.62.21a.62.62,0,0,0,.72-.23l.35-.52a28.39,28.39,0,0,0,2.44-4.59l.29-.72a.55.55,0,0,0-.38-.72l-.78-.24a31.66,31.66,0,0,0-9-1.14A40.65,40.65,0,0,0,4.26,11a.61.61,0,0,1-.75-.43L3.27,9.45a.55.55,0,0,1,.43-.64A37.29,37.29,0,0,1,16.17,7.73a28.11,28.11,0,0,1,5.85,1l.95.31a.62.62,0,0,0,.8-.46l.12-.92a27.84,27.84,0,0,0,0-4.73l0-.49A.57.57,0,0,0,23.44,2l-.51-.15A43.13,43.13,0,0,0,12,0,37,37,0,0,0,.9,1.86L.42,2a.56.56,0,0,0-.39.5C0,3,0,4,0,4.87a.6.6,0,0,0,.77.5L2.33,5a.56.56,0,0,0,.43-.53h0l.43-.53A34,34,0,0,1,12,2.6a37.85,37.85,0,0,1,8.74,1.33.57.57,0,0,1,.44.52l0,.54a.7.7,0,0,1-.87.67A39.77,39.77,0,0,0,1.22,6.79L.65,7a.55.55,0,0,0-.41.55l0,.56a16.16,16.16,0,0,0,1.26,5.17l.28.65a.6.6,0,0,0,.74.33L3.26,14a43.22,43.22,0,0,1,9.43-1.62,30.63,30.63,0,0,1,5.88.5.55.55,0,0,1,.42.79l-.28.51a1.24,1.24,0,0,1-1.33.59,20.23,20.23,0,0,0-5.4-.39,28.14,28.14,0,0,0-7.2,1.48l-.92.36a.54.54,0,0,0-.26.83l.56.75a21.34,21.34,0,0,0,7.19,6Z"/></svg>