<svg width="15" height="15" viewBox="0 0 15 15" fill="none" xmlns="http://www.w3.org/2000/svg">
<path d="M11.3086 6.73828C11.6322 6.73828 11.8945 6.47595 11.8945 6.15234C11.8945 5.82874 11.6322 5.56641 11.3086 5.56641C10.985 5.56641 10.7227 5.82874 10.7227 6.15234C10.7227 6.47595 10.985 6.73828 11.3086 6.73828Z" fill="#808E9B"/>
<path d="M12.6562 1.17188H11.8945V0.585938C11.8945 0.262324 11.6322 0 11.3086 0C10.985 0 10.7227 0.262324 10.7227 0.585938V1.17188H8.05664V0.585938C8.05664 0.262324 7.79432 0 7.4707 0C7.14709 0 6.88477 0.262324 6.88477 0.585938V1.17188H4.24805V0.585938C4.24805 0.262324 3.98572 0 3.66211 0C3.3385 0 3.07617 0.262324 3.07617 0.585938V1.17188H2.34375C1.05141 1.17188 0 2.22328 0 3.51562V12.6562C0 13.9486 1.05141 15 2.34375 15H6.82617C7.14979 15 7.41211 14.7377 7.41211 14.4141C7.41211 14.0904 7.14979 13.8281 6.82617 13.8281H2.34375C1.69758 13.8281 1.17188 13.3024 1.17188 12.6562V3.51562C1.17188 2.86945 1.69758 2.34375 2.34375 2.34375H3.07617V2.92969C3.07617 3.2533 3.3385 3.51562 3.66211 3.51562C3.98572 3.51562 4.24805 3.2533 4.24805 2.92969V2.34375H6.88477V2.92969C6.88477 3.2533 7.14709 3.51562 7.4707 3.51562C7.79432 3.51562 8.05664 3.2533 8.05664 2.92969V2.34375H10.7227V2.92969C10.7227 3.2533 10.985 3.51562 11.3086 3.51562C11.6322 3.51562 11.8945 3.2533 11.8945 2.92969V2.34375H12.6562C13.3024 2.34375 13.8281 2.86945 13.8281 3.51562V6.85547C13.8281 7.17908 14.0904 7.44141 14.4141 7.44141C14.7377 7.44141 15 7.17908 15 6.85547V3.51562C15 2.22328 13.9486 1.17188 12.6562 1.17188Z" fill="#808E9B"/>
<path d="M11.4551 7.91016C9.50039 7.91016 7.91016 9.50039 7.91016 11.4551C7.91016 13.4098 9.50039 15 11.4551 15C13.4098 15 15 13.4098 15 11.4551C15 9.50039 13.4098 7.91016 11.4551 7.91016ZM11.4551 13.8281C10.1466 13.8281 9.08203 12.7636 9.08203 11.4551C9.08203 10.1466 10.1466 9.08203 11.4551 9.08203C12.7636 9.08203 13.8281 10.1466 13.8281 11.4551C13.8281 12.7636 12.7636 13.8281 11.4551 13.8281Z" fill="#808E9B"/>
<path d="M12.3047 10.8691H12.041V10.2539C12.041 9.93029 11.7787 9.66797 11.4551 9.66797C11.1315 9.66797 10.8691 9.93029 10.8691 10.2539V11.4551C10.8691 11.7787 11.1315 12.041 11.4551 12.041H12.3047C12.6283 12.041 12.8906 11.7787 12.8906 11.4551C12.8906 11.1315 12.6283 10.8691 12.3047 10.8691Z" fill="#808E9B"/>
<path d="M8.75977 6.73828C9.08337 6.73828 9.3457 6.47595 9.3457 6.15234C9.3457 5.82874 9.08337 5.56641 8.75977 5.56641C8.43616 5.56641 8.17383 5.82874 8.17383 6.15234C8.17383 6.47595 8.43616 6.73828 8.75977 6.73828Z" fill="#808E9B"/>
<path d="M6.21094 9.28711C6.53454 9.28711 6.79688 9.02478 6.79688 8.70117C6.79688 8.37757 6.53454 8.11523 6.21094 8.11523C5.88733 8.11523 5.625 8.37757 5.625 8.70117C5.625 9.02478 5.88733 9.28711 6.21094 9.28711Z" fill="#808E9B"/>
<path d="M3.66211 6.73828C3.98571 6.73828 4.24805 6.47595 4.24805 6.15234C4.24805 5.82874 3.98571 5.56641 3.66211 5.56641C3.33851 5.56641 3.07617 5.82874 3.07617 6.15234C3.07617 6.47595 3.33851 6.73828 3.66211 6.73828Z" fill="#808E9B"/>
<path d="M3.66211 9.28711C3.98571 9.28711 4.24805 9.02478 4.24805 8.70117C4.24805 8.37757 3.98571 8.11523 3.66211 8.11523C3.33851 8.11523 3.07617 8.37757 3.07617 8.70117C3.07617 9.02478 3.33851 9.28711 3.66211 9.28711Z" fill="#808E9B"/>
<path d="M3.66211 11.8359C3.98571 11.8359 4.24805 11.5736 4.24805 11.25C4.24805 10.9264 3.98571 10.6641 3.66211 10.6641C3.33851 10.6641 3.07617 10.9264 3.07617 11.25C3.07617 11.5736 3.33851 11.8359 3.66211 11.8359Z" fill="#808E9B"/>
<path d="M6.21094 11.8359C6.53454 11.8359 6.79688 11.5736 6.79688 11.25C6.79688 10.9264 6.53454 10.6641 6.21094 10.6641C5.88733 10.6641 5.625 10.9264 5.625 11.25C5.625 11.5736 5.88733 11.8359 6.21094 11.8359Z" fill="#808E9B"/>
<path d="M6.21094 6.73828C6.53454 6.73828 6.79688 6.47595 6.79688 6.15234C6.79688 5.82874 6.53454 5.56641 6.21094 5.56641C5.88733 5.56641 5.625 5.82874 5.625 6.15234C5.625 6.47595 5.88733 6.73828 6.21094 6.73828Z" fill="#808E9B"/>
</svg>
