<svg width="15" height="15" viewBox="0 0 15 15" fill="none" xmlns="http://www.w3.org/2000/svg">
<path d="M14.2873 2.58777C14.2287 2.52931 14.1538 2.49993 14.0628 2.49993H11.0451L10.3615 0.869156C10.2638 0.628214 10.088 0.423119 9.83425 0.253837C9.58025 0.0845896 9.32296 0 9.06262 0H5.93752C5.67719 0 5.41996 0.0845896 5.16606 0.253837C4.91212 0.423119 4.73634 0.62818 4.63865 0.869156L3.95505 2.49993H0.937465C0.84624 2.49993 0.771467 2.52931 0.712839 2.58777C0.654382 2.64636 0.625 2.72127 0.625 2.81239V3.43746C0.625 3.52858 0.654246 3.60349 0.712839 3.66198C0.771467 3.72054 0.846376 3.74982 0.937465 3.74982H1.87489V13.0468C1.87489 13.5874 2.02789 14.0479 2.33386 14.4286C2.6399 14.8096 3.00774 15 3.43746 15H11.5626C11.9925 15 12.3603 14.8031 12.6663 14.4093C12.9722 14.0153 13.1251 13.5482 13.1251 13.0079V3.74982H14.0627C14.1538 3.74982 14.2287 3.72054 14.2872 3.66198C14.3457 3.60352 14.3751 3.52858 14.3751 3.43746V2.81239C14.3752 2.72127 14.3457 2.64636 14.2873 2.58777ZM5.79109 1.3572C5.83662 1.29864 5.892 1.26272 5.95709 1.24979H9.0528C9.11789 1.26282 9.17337 1.29871 9.21883 1.3572L9.68775 2.49979H5.31256L5.79109 1.3572ZM11.8752 13.008C11.8752 13.1511 11.8525 13.283 11.8069 13.4034C11.7612 13.5237 11.7139 13.6116 11.6652 13.667C11.6163 13.7225 11.5823 13.75 11.5627 13.75H3.43749C3.41796 13.75 3.38396 13.7225 3.33501 13.667C3.28614 13.6116 3.2389 13.5237 3.1933 13.4034C3.14778 13.283 3.12499 13.151 3.12499 13.008V3.74982H11.8752V13.008H11.8752Z" fill="#57606F"/>
<path d="M4.68795 11.8751H5.31292C5.40414 11.8751 5.47909 11.8458 5.53754 11.7873C5.596 11.7285 5.62538 11.6538 5.62538 11.5626V5.93736C5.62538 5.84627 5.596 5.77136 5.53754 5.71274C5.47892 5.65428 5.40418 5.625 5.31292 5.625H4.68795C4.59673 5.625 4.52192 5.65425 4.46333 5.71274C4.4048 5.77136 4.37549 5.84627 4.37549 5.93736V11.5626C4.37549 11.6538 4.4047 11.7286 4.46333 11.7873C4.52192 11.8458 4.59673 11.8751 4.68795 11.8751Z" fill="#57606F"/>
<path d="M7.18796 11.8751H7.81293C7.90412 11.8751 7.97903 11.8458 8.03746 11.7873C8.09622 11.7285 8.12533 11.6538 8.12533 11.5626V5.93736C8.12533 5.84627 8.09619 5.77136 8.03746 5.71274C7.97903 5.65428 7.90412 5.625 7.81293 5.625H7.18796C7.09683 5.625 7.02192 5.65425 6.96333 5.71274C6.9047 5.77136 6.87549 5.84627 6.87549 5.93736V11.5626C6.87549 11.6538 6.9047 11.7286 6.96333 11.7873C7.02189 11.8458 7.09683 11.8751 7.18796 11.8751Z" fill="#57606F"/>
<path d="M9.68729 11.8751H10.3122C10.4034 11.8751 10.4784 11.8458 10.5369 11.7873C10.5954 11.7285 10.6245 11.6538 10.6245 11.5626V5.93736C10.6245 5.84627 10.5954 5.77136 10.5369 5.71274C10.4784 5.65428 10.4034 5.625 10.3122 5.625H9.68729C9.59596 5.625 9.52129 5.65425 9.46253 5.71274C9.404 5.77136 9.37476 5.84627 9.37476 5.93736V11.5626C9.37476 11.6538 9.404 11.7286 9.46253 11.7873C9.52129 11.8458 9.59596 11.8751 9.68729 11.8751Z" fill="#57606F"/>
</svg>
