<?xml version="1.0" encoding="UTF-8"?>
<svg width="73px" height="57px" viewBox="0 0 73 57" version="1.1" xmlns="http://www.w3.org/2000/svg" xmlns:xlink="http://www.w3.org/1999/xlink">
    <g id="Page-1" stroke="none" stroke-width="1" fill="none" fill-rule="evenodd">
        <g id="Configuration-&gt;-Costs" transform="translate(-1078.000000, -449.000000)" stroke="#333333" stroke-width="2">
            <g id="log" transform="translate(1079.000000, 450.000000)">
                <g id="Group">
                    <rect id="Rectangle" x="0" y="0" width="71" height="55"></rect>
                    <line x1="0" y1="9.26229508" x2="71" y2="9.26229508" id="Path"></line>
                    <line x1="49.5520833" y1="4.26229508" x2="52.3460648" y2="4.26229508" id="Path"></line>
                    <line x1="55.9618056" y1="4.26229508" x2="58.755787" y2="4.26229508" id="Path"></line>
                    <line x1="62.3715278" y1="4.26229508" x2="65.1655093" y2="4.26229508" id="Path"></line>
                </g>
                <g id="Group" transform="translate(10.000000, 15.000000)">
                    <line x1="0" y1="4.5" x2="12.75" y2="4.5" id="Path"></line>
                    <line x1="17.1096774" y1="4.5" x2="30.6822581" y2="4.5" id="Path"></line>
                    <line x1="36.3580645" y1="4.5" x2="51" y2="4.5" id="Path"></line>
                </g>
                <g id="Group" transform="translate(10.000000, 40.000000)">
                    <line x1="0" y1="4.5" x2="12.75" y2="4.5" id="Path"></line>
                    <line x1="17.1096774" y1="4.5" x2="30.6822581" y2="4.5" id="Path"></line>
                    <line x1="36.3580645" y1="4.5" x2="51" y2="4.5" id="Path"></line>
                </g>
                <g id="Group" transform="translate(10.000000, 22.000000)">
                    <line x1="0" y1="4.5" x2="15.0532258" y2="4.5" id="Path"></line>
                    <line x1="19.5774194" y1="4.5" x2="33.8080645" y2="4.5" id="Path"></line>
                    <line x1="39.566129" y1="4.5" x2="51" y2="4.5" id="Path"></line>
                </g>
                <g id="Group" transform="translate(10.000000, 31.000000)">
                    <line x1="0.326923077" y1="4.5" x2="7.84615385" y2="4.5" id="Path"></line>
                    <line x1="10.9519231" y1="4.5" x2="28.6875" y2="4.5" id="Path"></line>
                    <line x1="33.0192308" y1="4.5" x2="51" y2="4.5" id="Path"></line>
                </g>
            </g>
        </g>
    </g>
</svg>