<?xml version="1.0" encoding="UTF-8"?>
<svg width="98px" height="78px" viewBox="0 0 98 78" version="1.1" xmlns="http://www.w3.org/2000/svg" xmlns:xlink="http://www.w3.org/1999/xlink">
    <!-- Generator: Sketch 58 (84663) - https://sketch.com -->
    <title>symbol</title>
    <desc>Created with Sketch.</desc>
    <g id="WPB-Branding" stroke="none" stroke-width="1" fill="none" fill-rule="evenodd">
        <g id="Artboard" transform="translate(-1000.000000, -190.000000)" fill="#FFFFFF">
            <g id="wpbakery-logo-horizontal-white" transform="translate(1000.000000, 190.000000)">
                <g id="symbol">
                    <path d="M35.5555556,0 C48.8745657,0 60.4831062,7.32339085 66.5741114,18.1631068 C68.0484509,17.909459 69.5644031,17.7777778 71.1111111,17.7777778 C85.8387044,17.7777778 97.7777778,29.7168511 97.7777778,44.4444444 C97.7777778,59.0247618 86.076292,70.8720508 71.5520932,71.1075385 L71.1111111,71.1111111 L69,71.111 L69,73 C69,75.7614237 66.7614237,78 64,78 L34,78 C31.2385763,78 29,75.7614237 29,73 L29.0004604,70.5081089 C12.4949819,67.4319408 0,52.9529279 0,35.5555556 C0,15.9187645 15.9187645,0 35.5555556,0 Z M20.4826583,20.4830074 C20.0780613,20.8878971 19.9148761,21.470646 20.0425933,22.0213904 L20.0846749,22.1706422 L26.3213925,40.9025734 C26.5613135,41.5790694 27.2110059,42.0225135 27.9279445,41.9991169 C28.5958122,41.9877059 29.185536,41.5748479 29.4298555,40.9625556 L29.4768255,40.8283712 L31.7177597,33.3586838 C31.9402649,32.6246285 32.4891763,32.0387922 33.198935,31.7668537 L33.3655054,31.7097462 L40.8297935,29.4671911 C41.5147469,29.2595991 41.9874758,28.6332799 41.999693,27.9171898 C42.0125281,27.2491184 41.6219362,26.6445505 41.0196876,26.3778449 L40.8874646,26.325965 L22.1690733,20.0847362 C21.5769296,19.8871196 20.9240368,20.0413096 20.4826583,20.4830074 Z" id="Shape"></path>
                </g>
            </g>
        </g>
    </g>
</svg>