<?xml version="1.0" encoding="utf-8"?>
<!-- Generator: Adobe Illustrator 18.0.0, SVG Export Plug-In . SVG Version: 6.00 Build 0)  -->
<!DOCTYPE svg PUBLIC "-//W3C//DTD SVG 1.1//EN" "http://www.w3.org/Graphics/SVG/1.1/DTD/svg11.dtd">
<svg version="1.1" id="Layer_1" xmlns="http://www.w3.org/2000/svg" xmlns:xlink="http://www.w3.org/1999/xlink" x="0px" y="0px"
	 width="32px" height="32px" viewBox="0 0 32 32" style="enable-background:new 0 0 32 32;" xml:space="preserve">
<style type="text/css">
	.st0{fill:#FFFFFF;}
</style>
<g>
	<g>
		<path class="st0" d="M10.7,10.2L9.9,10c0.2-0.8,0.8-1.2,1.7-1.2c0.5,0,0.9,0.1,1.1,0.3c0.3,0.2,0.4,0.5,0.4,0.9
			c0,0.5-0.3,0.9-0.8,1.1c0.7,0.2,1,0.5,1,1.2c0,0.4-0.2,0.8-0.5,1c-0.3,0.3-0.7,0.4-1.2,0.4c-0.5,0-0.8-0.1-1.2-0.3
			c-0.3-0.2-0.5-0.5-0.6-1l0.8-0.2c0.1,0.5,0.5,0.8,1,0.8c0.2,0,0.4-0.1,0.6-0.2s0.3-0.4,0.3-0.6c0-0.2-0.1-0.4-0.2-0.6
			c-0.2-0.1-0.4-0.2-0.8-0.2h-0.3v-0.6h0.3c0.2,0,0.4,0,0.5-0.1c0.1,0,0.2-0.1,0.3-0.2c0.1-0.1,0.1-0.3,0.1-0.5
			c0-0.2-0.1-0.4-0.2-0.5c-0.1-0.1-0.3-0.2-0.5-0.2C11.1,9.5,10.8,9.7,10.7,10.2z"/>
		<path class="st0" d="M17.5,10l-0.7,0.2c-0.1-0.5-0.4-0.8-0.8-0.8c-0.3,0-0.6,0.2-0.7,0.5c-0.2,0.3-0.2,0.8-0.3,1.4
			c0.2-0.5,0.6-0.7,1.1-0.7c0.4,0,0.8,0.1,1,0.4c0.3,0.3,0.4,0.7,0.4,1.1c0,0.5-0.2,0.9-0.5,1.2s-0.7,0.4-1.2,0.4
			c-0.5,0-1-0.2-1.3-0.6c-0.3-0.4-0.5-1-0.5-1.8c0-0.8,0.2-1.5,0.5-2C15,9,15.4,8.8,16,8.8c0.4,0,0.7,0.1,1,0.3
			C17.2,9.3,17.5,9.6,17.5,10z M16.7,12.2c0-0.3-0.1-0.6-0.2-0.7c-0.1-0.2-0.3-0.2-0.6-0.2c-0.3,0-0.5,0.1-0.6,0.3
			c-0.1,0.2-0.2,0.4-0.2,0.7c0,0.3,0.1,0.5,0.2,0.7c0.2,0.2,0.4,0.3,0.6,0.3C16.5,13.2,16.7,12.9,16.7,12.2z"/>
		<path class="st0" d="M21.7,11.3c0,0.9-0.1,1.5-0.4,2c-0.3,0.4-0.7,0.6-1.3,0.6c-1.2,0-1.7-0.8-1.7-2.5c0-0.9,0.1-1.5,0.4-2
			c0.3-0.4,0.7-0.6,1.3-0.6C21.1,8.9,21.7,9.7,21.7,11.3z M20.7,11.3c0-0.7-0.1-1.2-0.2-1.5c-0.1-0.3-0.3-0.4-0.6-0.4
			c-0.3,0-0.5,0.1-0.6,0.4c-0.2,0.3-0.2,0.8-0.2,1.5c0,0.8,0.1,1.3,0.2,1.5c0.2,0.3,0.4,0.4,0.6,0.4c0.3,0,0.5-0.1,0.6-0.4
			C20.7,12.6,20.7,12.1,20.7,11.3z"/>
		<path class="st0" d="M24.3,10c0,0.3-0.1,0.6-0.3,0.8c-0.2,0.2-0.5,0.3-0.8,0.3c-0.3,0-0.6-0.1-0.8-0.3c-0.2-0.2-0.3-0.5-0.3-0.8
			c0-0.3,0.1-0.6,0.3-0.8c0.2-0.2,0.5-0.3,0.8-0.3c0.3,0,0.6,0.1,0.8,0.3C24.2,9.4,24.3,9.7,24.3,10z M23.8,10
			c0-0.2-0.1-0.3-0.2-0.5c-0.1-0.1-0.2-0.2-0.4-0.2s-0.3,0.1-0.4,0.2c-0.1,0.1-0.1,0.2-0.1,0.4c0,0.2,0.1,0.3,0.2,0.5
			c0.1,0.1,0.2,0.2,0.4,0.2c0.1,0,0.3-0.1,0.4-0.2C23.8,10.3,23.8,10.2,23.8,10z"/>
		<path class="st0" d="M12.1,15.6h0.6l0.5,1.8l0.5-1.8h0.5l-0.8,2.6h-0.5L12.1,15.6z"/>
		<path class="st0" d="M15.2,15.2h-0.6v-0.6h0.6V15.2z M14.6,15.6h0.6v2.6h-0.6V15.6z"/>
		<path class="st0" d="M18,17h-1.7c0,0.3,0.1,0.6,0.2,0.7c0.1,0.1,0.2,0.2,0.4,0.2c0.3,0,0.4-0.2,0.5-0.5l0.5,0.1
			c-0.1,0.5-0.5,0.8-1.1,0.8c-0.3,0-0.6-0.1-0.8-0.3c-0.2-0.2-0.3-0.5-0.3-1s0.1-0.8,0.3-1c0.2-0.3,0.5-0.4,0.8-0.4
			c0.2,0,0.4,0.1,0.6,0.2c0.2,0.1,0.3,0.3,0.4,0.5C17.9,16.4,18,16.6,18,17z M17.4,16.6c0-0.5-0.2-0.7-0.5-0.7
			c-0.3,0-0.5,0.2-0.5,0.7H17.4z"/>
		<path class="st0" d="M18.1,15.6h0.6l0.4,1.8l0.4-1.8h0.5l0.4,1.8l0.5-1.8h0.5l-0.7,2.6h-0.5l-0.4-1.8l-0.4,1.8h-0.5L18.1,15.6z"/>
	</g>
	<path class="st0" d="M8.7,14.1v1.5c0,0-4.4,1.7,1.5,3.8c0,0,3.2,0.9,6.4,0.9V19l4.4,2l-4.4,2.3v-1.5c0,0-11.3,0-11.3-4.4
		C5.2,17.5,5.2,15.2,8.7,14.1z"/>
	<path class="st0" d="M21.5,19c0.3,0,3.5-0.9,3.5-2.3s-1.2-1.7-1.2-1.7v-0.9c0,0,2.9,0.6,2.9,3.2c0,0,0,2.2-3.2,3.2L21.5,19z"/>
</g>
</svg>
