<?xml version="1.0" standalone="no"?>
<!DOCTYPE svg PUBLIC "-//W3C//DTD SVG 1.1//EN" "http://www.w3.org/Graphics/SVG/1.1/DTD/svg11.dtd" >
<svg xmlns="http://www.w3.org/2000/svg">
<metadata>Generated by IcoMoon</metadata>
<defs>
<font id="crb" horiz-adv-x="512">
<font-face units-per-em="512" ascent="368.64" descent="-143.36" />
<missing-glyph horiz-adv-x="512" />
<glyph unicode="&#x20;" horiz-adv-x="256" d="" />
<glyph unicode="&#xe200;" glyph-name="bx-bell" d="M279.339 323.52l-21.611 1.75c-0.514 0.041-1.113 0.064-1.717 0.064s-1.203-0.023-1.796-0.069l0.078 0.005-22.678-1.856c-83.392-11.99-146.282-84.544-146.282-168.746v-81.878l-20.224-60.714c-0.693-2.012-1.093-4.33-1.093-6.741 0-11.776 9.542-21.324 21.317-21.334h96.001c0-41.173 33.493-74.666 74.666-74.666s74.666 33.493 74.666 74.666h96c0.128-0.003 0.279-0.005 0.432-0.005 11.782 0 21.334 9.551 21.334 21.334 0 3.886-1.039 7.529-2.854 10.667l0.055-0.103-18.966 56.896v81.877c0 84.053-62.762 156.587-147.328 168.853zM256-48c-17.941 0-32 14.058-32 32h64c0-17.942-14.058-32-32-32zM114.944 26.666l11.968 35.925c0.68 2.012 1.078 4.328 1.088 6.736v85.339c0 63.125 47.168 117.526 108.374 126.358l19.648 1.578 18.517-1.45c62.4-9.088 109.462-63.466 109.462-126.486v-85.334c0-2.283 0.384-4.565 1.11-6.741l11.947-35.925h-282.112z" />
<glyph unicode="&#xe201;" glyph-name="bx-briefcase-alt" d="M64-58.666h384c11.782 0 21.334 9.551 21.334 21.334v0 256c0 11.782-9.551 21.334-21.334 21.334v0h-106.666v64c0 11.782-9.551 21.334-21.334 21.334v0h-128c-11.782 0-21.334-9.552-21.334-21.334v0-64h-106.666c-11.782 0-21.334-9.552-21.334-21.334v0-256c0-11.782 9.552-21.334 21.334-21.334v0zM384 197.333h42.666v-213.333h-42.666v213.333zM213.333 282.666h85.333v-42.666h-85.334v42.666zM170.667 197.333h170.667v-213.333h-170.667v213.333zM85.334 197.333h42.666v-213.333h-42.666v213.333z" />
<glyph unicode="&#xe202;" glyph-name="bx-bulb" d="M192-58.666h128v-42.666h-128zM360.661 75.478c21.974 25.728 44.672 52.331 44.672 100.522 0 82.326-67.008 149.333-149.333 149.333s-149.333-67.008-149.333-149.333c0-48.746 22.762-75.264 44.822-100.906 7.637-8.918 15.552-18.154 23.125-28.779 4.31-6.208 12.587-37.056 17.728-66.048l3.114-17.6h121.066l3.136 17.579c5.184 29.014 13.504 59.947 17.792 66.154 7.531 10.731 15.51 20.053 23.211 29.077zM302.55 70.933c-9.259-13.163-16.981-44.267-21.462-65.6h-50.154c-4.458 21.376-12.202 52.544-21.568 65.707-8.74 11.961-17.106 22.33-25.918 32.294l0.403-0.464c-20.779 24.192-34.517 40.192-34.517 73.13 0 58.816 47.851 106.666 106.666 106.666s106.666-47.85 106.666-106.666c0-32.448-13.717-48.512-34.454-72.81-7.957-9.344-16.981-19.904-25.664-32.256z" />
<glyph unicode="&#xe203;" glyph-name="bx-cog" d="M256 26.666c47.062 0 85.334 38.272 85.334 85.334s-38.272 85.334-85.334 85.334-85.334-38.272-85.334-85.334 38.272-85.334 85.334-85.334zM256 154.667c23.125 0 42.666-19.542 42.666-42.667s-19.541-42.666-42.666-42.666-42.666 19.541-42.666 42.666 19.541 42.666 42.666 42.666zM47.872 58.411c-1.45-5.462-0.682-11.286 2.133-16.192l42.666-73.814c5.888-10.176 18.965-13.675 29.142-7.808l29.781 17.195c12.374-9.75 26.048-17.75 40.427-23.723v-34.070c0-11.782 9.552-21.334 21.334-21.334v0h85.334c11.782 0 21.334 9.551 21.334 21.334v0 34.091c15.441 6.51 28.762 14.47 40.786 23.997l-0.359-0.274 29.781-17.195c3.055-1.783 6.726-2.834 10.643-2.834 7.856 0 14.723 4.233 18.443 10.543l0.055 0.1 42.666 73.813c2.816 4.885 3.584 10.709 2.134 16.192s-5.034 10.134-9.942 12.95l-29.248 16.896c1.085 7.085 1.704 15.259 1.704 23.577 0 8.422-0.635 16.696-1.861 24.775l0.113-0.907 29.248 16.896c6.413 3.769 10.651 10.636 10.651 18.49 0 3.92-1.055 7.594-2.897 10.752l0.055-0.101-42.666 73.814c-3.764 6.417-10.628 10.658-18.483 10.658-3.923 0-7.601-1.058-10.76-2.905l0.101 0.055-29.781-17.195c-11.655 9.267-24.971 17.228-39.283 23.299l-1.123 0.423v34.090c0 11.782-9.551 21.334-21.334 21.334v0h-85.334c-11.782 0-21.334-9.551-21.334-21.334v0-34.090c-15.441-6.511-28.762-14.47-40.786-23.997l0.359 0.275-29.76 17.195c-3.060 1.797-6.739 2.858-10.666 2.858-7.855 0-14.718-4.244-18.421-10.565l-0.055-0.1-42.666-73.814c-2.816-4.886-3.584-10.709-2.133-16.192s5.035-10.112 9.941-12.95l29.248-16.896c-1.099-7.129-1.726-15.352-1.726-23.723s0.627-16.594 1.838-24.626l-0.112 0.904-29.248-16.896c-4.845-2.835-8.419-7.397-9.907-12.821l-0.035-0.149zM131.626 82.603c-2.389 9.664-3.626 19.563-3.626 29.397s1.238 19.734 3.626 29.398c0.405 1.554 0.638 3.338 0.638 5.175 0 7.851-4.244 14.709-10.564 18.407l-0.101 0.054-23.978 13.867 21.312 36.886 24.426-14.101c3.058-1.799 6.737-2.863 10.663-2.863 5.696 0 10.869 2.237 14.689 5.879l-0.008-0.008c13.976 13.336 31.014 23.59 49.945 29.595l0.913 0.25c8.815 2.738 15.104 10.821 15.104 20.372 0 0.008 0 0.016 0 0.024v-0.001 27.733h42.666v-27.733c0-0.004 0-0.008 0-0.012 0-9.56 6.288-17.651 14.953-20.363l0.151-0.041c19.844-6.255 36.883-16.51 50.909-29.893l-0.050 0.048c3.817-3.629 8.991-5.861 14.687-5.861 3.923 0 7.599 1.059 10.758 2.907l-0.101-0.054 24.426 14.101 21.312-36.886-23.978-13.845c-6.42-3.752-10.664-10.612-10.664-18.462 0-1.838 0.233-3.622 0.67-5.323l-0.032 0.148c2.389-9.664 3.627-19.563 3.627-29.398s-1.238-19.733-3.627-29.397c-0.406-1.553-0.638-3.337-0.638-5.175 0-7.851 4.245-14.709 10.564-18.407l0.101-0.055 23.978-13.866-21.312-36.885-24.426 14.101c-3.058 1.8-6.736 2.863-10.663 2.863-5.695 0-10.868-2.236-14.689-5.879l0.009 0.008c-13.976-13.336-31.014-23.591-49.945-29.595l-0.913-0.25c-8.815-2.738-15.104-10.82-15.104-20.372 0-0.008 0-0.016 0-0.024v0.001-27.733h-42.666v27.733c0 0.003 0 0.008 0 0.012 0 9.56-6.287 17.651-14.953 20.363l-0.151 0.041c-19.844 6.255-36.883 16.51-50.91 29.894l0.050-0.048c-3.817 3.628-8.992 5.861-14.687 5.861-3.923 0-7.6-1.059-10.758-2.907l0.101 0.055-24.427-14.101-21.312 36.885 23.978 13.866c6.42 3.741 10.666 10.594 10.666 18.438 0 1.839-0.233 3.623-0.672 5.325l0.032-0.147z" />
<glyph unicode="&#xe204;" glyph-name="bx-dashboard" d="M256.214 325.334c-0.103 0-0.226 0-0.35 0-58.842 0-112.087-23.964-150.507-62.665l-0.013-0.013c-83.178-83.157-83.178-218.517 0-301.696 40.426-40.426 93.995-62.678 150.87-62.678s110.442 22.25 150.827 62.656c83.178 83.158 83.178 218.518 0 301.738-38.421 38.7-91.649 62.656-150.472 62.656-0.125 0-0.249 0-0.374-0h0.019zM376.875-8.896c-32.341-32.341-75.178-50.154-120.661-50.154-0.094 0-0.204-0-0.315-0-53.762 0-101.68 25.014-132.753 64.040l-0.265 0.345h266.646c-3.947-4.906-8.106-9.685-12.651-14.229zM425.322 90.666c-1.933-15.845-5.75-30.259-11.267-43.8l0.409 1.133h-316.544c-5.109 12.408-8.925 26.822-10.776 41.844l-0.082 0.822h40.939v42.666h-40.874c4.061 31.737 16.337 60.026 34.607 83.404l-0.282-0.375 28.95-28.95 30.166 30.166-28.971 28.971c22.985 18.117 51.291 30.492 82.221 34.512l0.851 0.091v-41.152h42.666v41.216c35.396-4.497 66.69-19.352 91.455-41.386l-0.171 0.149-94.976-67.84c-5.125 2.421-11.13 3.842-17.465 3.862h-0.007c-23.47 0-42.496-19.026-42.496-42.496s19.026-42.496 42.496-42.496c23.47 0 42.496 19.026 42.496 42.496 0 0.015 0 0.030 0 0.045v-0.002c0 1.302-0.277 2.518-0.384 3.798l98.816 70.592c14.547-21.091 24.557-46.397 28.051-73.739l0.088-0.843h-41.238v-42.666h41.322z" />
<glyph unicode="&#xe205;" glyph-name="bx-error" d="M234.667 176h42.667v-106.666h-42.666zM234.667 26.666h42.667v-42.666h-42.666zM274.858 313.984c-7.382 13.952-30.336 13.952-37.718 0l-192-362.666c-1.571-2.897-2.495-6.344-2.495-10.005 0-11.771 9.541-21.312 21.312-21.312 0.014 0 0.029 0 0.043 0h383.998c0.013 0 0.029 0 0.044 0 11.759 0 21.291 9.532 21.291 21.291 0 3.662-0.925 7.108-2.553 10.118l0.055-0.113-191.978 362.688zM99.434-37.334l156.565 295.723 156.565-295.723h-313.13z" />
<glyph unicode="&#xe206;" glyph-name="bx-error-circle" d="M254.998 325.334c-117.077 0-212.331-95.702-212.331-213.334s95.701-213.333 213.333-213.333 213.333 95.702 213.333 213.333-96.149 213.334-214.336 213.334zM256-58.666c-94.101 0-170.667 76.565-170.667 170.666s76.096 170.667 169.664 170.667c94.677 0 171.669-76.565 171.669-170.667s-76.565-170.666-170.666-170.666zM234.667 218.667h42.667v-128h-42.666zM234.667 48h42.667v-42.666h-42.666z" />
<glyph unicode="&#xe207;" glyph-name="bx-group" d="M63.658-80h277.334c11.798 0 21.334 9.536 21.334 21.334 0 63.786-37.611 118.805-91.733 144.49 19.733 18.368 32.298 44.352 32.298 73.387 0 55.466-45.099 100.587-100.565 100.587s-100.544-45.12-100.544-100.565c0-29.035 12.566-55.019 32.299-73.387-54.123-25.685-91.734-80.704-91.734-144.49-0.022-11.818 9.536-21.355 21.312-21.355zM144.448 159.232c0 31.936 25.984 57.92 57.898 57.92s57.899-25.984 57.899-57.92c0-31.915-25.984-57.899-57.899-57.899s-57.899 25.984-57.899 57.899zM202.326 58.666c57.408 0 105.344-41.45 115.392-96h-230.784c10.070 54.55 57.984 96 115.392 96zM330.666 101.397c-0.022-5.696 2.219-11.115 6.25-15.147 46.358-46.358 68.416-83.072 68.416-166.25h42.666c0 79.786-17.43 128.171-67.819 182.784 10.666 17.173 16.384 38.464 16.086 60.928-0.469 34.774-15.19 68.245-40.363 91.84l-29.163-31.125c16.747-15.702 26.538-38.037 26.858-61.291 0.256-18.944-5.781-35.968-16.598-46.656-4.053-3.989-6.315-9.408-6.336-15.083z" />
<glyph unicode="&#xe208;" glyph-name="bx-idea" d="M234.667 325.334h42.667v-42.666h-42.666zM121.749 216.085l-30.165 30.166 30.166 30.166 30.166-30.166zM390.25 276.416l30.166-30.166-30.166-30.166-30.166 30.166zM320-16v31.552c31.125 22.89 64 58.56 64 107.115 0 66.901-55.019 117.334-128 117.334s-128-50.432-128-117.334c0-48.534 32.875-84.202 64-107.115v-31.552c0-11.782 9.552-21.334 21.334-21.334v0h85.334c11.782 0 21.334 9.551 21.334 21.334v0zM277.334 26.666v-21.334h-42.666v21.334c0 7.125-3.563 13.781-9.494 17.75-24.853 16.576-54.506 43.606-54.506 78.25 0 43.264 35.904 74.666 85.334 74.666s85.334-31.403 85.334-74.666c0-34.646-29.654-61.675-54.507-78.25-5.755-3.884-9.49-10.38-9.493-17.749v-0zM213.333-58.666h85.333v-42.666h-85.334z" />
<glyph unicode="&#xe209;" glyph-name="bx-key" d="M149.333 5.334c51.329 0.071 94.167 36.335 104.368 84.636l0.123 0.697h44.843v-42.666h42.666v42.666h42.666v-64h42.666v64h42.666v42.666h-215.51c-10.323 48.999-53.162 85.262-104.483 85.334h-0.008c-58.816 0-106.666-47.851-106.666-106.666s47.85-106.666 106.666-106.666zM149.333 176c35.285 0 64-28.714 64-64s-28.715-64-64-64-64 28.714-64 64 28.715 64 64 64z" />
<glyph unicode="&#xe210;" glyph-name="bx-layer" d="M269.099 320.832c-3.579 2.805-8.147 4.498-13.109 4.498s-9.53-1.693-13.156-4.532l0.047 0.035-192-149.333c-5.005-3.949-8.189-10.014-8.189-16.823 0-6.819 3.193-12.892 8.164-16.805l0.045-0.035 192-149.333c3.569-2.824 8.135-4.529 13.099-4.529s9.53 1.706 13.143 4.563l-0.045-0.034 192 149.333c5.026 3.941 8.226 10.012 8.226 16.832s-3.2 12.892-8.18 16.797l-0.046 0.035-192 149.333zM256 32.363l-157.248 122.304 157.248 122.304 157.248-122.304-157.248-122.304zM256-101.334c4.63 0 9.259 1.493 13.099 4.502l183.466 142.678-34.731 27.050-161.834-125.867-161.216 125.397-34.752-27.029 182.848-142.229c3.575-2.807 8.139-4.502 13.1-4.502 0.007 0 0.014 0 0.021 0h-0.001z" />
<glyph unicode="&#xe211;" glyph-name="bx-lock" d="M256 325.334c-58.816 0-106.666-47.851-106.666-106.667v-64h-42.666c-11.782 0-21.334-9.552-21.334-21.333v0-213.334c0-11.782 9.552-21.334 21.334-21.334v0h298.666c11.782 0 21.334 9.551 21.334 21.334v0 213.333c0 11.782-9.551 21.333-21.334 21.333v0h-42.666v64c0 58.816-47.851 106.666-106.666 106.666zM192 218.667c0 35.285 28.714 64 64 64s64-28.715 64-64v-64h-128v64zM384 112v-170.667h-106.666v48.597c12.694 7.402 21.334 21.014 21.334 36.736 0 23.531-19.136 42.666-42.666 42.666s-42.666-19.136-42.666-42.666c0-15.702 8.64-29.334 21.334-36.736v-48.597h-106.666v170.667h256z" />
<glyph unicode="&#xe212;" glyph-name="bx-pulse" d="M359.082 187.84c-3.887 5.75-10.382 9.481-17.75 9.481-7.879 0-14.762-4.268-18.462-10.617l-0.055-0.101-61.675-107.904-70.25 210.709c-2.815 8.539-10.72 14.594-20.040 14.594-0.35 0-0.698-0.008-1.043-0.026l0.048 0.002c-9.603-0.376-17.548-7.044-19.851-15.98l-0.032-0.148-38.635-154.518h-68.672v-42.667h85.334c9.792 0 18.304 6.678 20.694 16.149l24.917 99.584 62.166-186.496c2.905-8.546 10.858-14.584 20.222-14.584 7.891 0 14.781 4.288 18.464 10.663l0.055 0.103 68.202 119.36 23.531-35.286c3.968-5.93 10.624-9.493 17.75-9.493h85.334v42.666h-73.92l-36.331 54.507z" />
<glyph unicode="&#xe213;" glyph-name="bx-radar" d="M256 325.334c-115.648 0-213.333-97.707-213.333-213.334s97.686-213.333 213.333-213.333 213.333 97.707 213.333 213.333-97.685 213.334-213.333 213.334zM256-58.666c-92.522 0-170.667 78.166-170.667 170.666 0 85.291 66.453 158.23 149.333 169.11v-43.029c-60.438-10.219-106.666-62.784-106.666-126.080 0-70.592 57.408-128 128-128 34.026 0 66.134 13.354 90.389 37.611l-30.166 30.187c-15.358-15.52-36.661-25.13-60.21-25.13-0.005 0-0.010 0-0.014 0h0c-47.061 0-85.334 38.272-85.334 85.334 0 39.637 27.286 72.768 64 82.304v-45.781c-12.587-7.53-21.334-21.184-21.334-36.523 0-23.062 19.606-42.666 42.666-42.666s42.666 19.606 42.666 42.666c0 15.339-8.747 28.992-21.334 36.523v132.587c82.88-10.88 149.334-83.819 149.334-169.11 0-92.501-78.144-170.667-170.667-170.667z" />
<glyph unicode="&#xe214;" glyph-name="bx-shield" d="M267.307 322.091c-3.212 2.039-7.123 3.249-11.317 3.249s-8.106-1.21-11.405-3.301l0.087 0.052-170.667-106.667c-6.046-3.843-10.001-10.505-10.005-18.090v-0c0-7.466 2.070-183.766 180.693-295.424 3.21-2.030 7.118-3.235 11.306-3.235s8.097 1.205 11.395 3.287l-0.088-0.052c178.624 111.659 180.694 287.957 180.694 295.424 0 0 0 0 0 0 0 7.592-3.966 14.258-9.939 18.039l-0.087 0.052-170.666 106.667zM256-54.592c-125.056 84.202-145.387 203.2-148.694 240.49l148.694 92.928 148.693-92.906c-3.328-37.376-23.68-156.31-148.694-240.512z" />
<glyph unicode="&#xe215;" glyph-name="bx-shield-alt" d="M244.694-98.091c3.21-2.030 7.118-3.235 11.306-3.235s8.096 1.205 11.395 3.287l-0.088-0.052c178.624 111.659 180.694 287.957 180.694 295.424 0 0 0 0 0 0 0 7.592-3.966 14.258-9.939 18.039l-0.087 0.052-170.666 106.667c-3.212 2.039-7.123 3.25-11.317 3.25s-8.106-1.211-11.405-3.301l0.087 0.052-170.667-106.667c-6.046-3.843-10.001-10.505-10.005-18.090v-0c0-7.466 2.070-183.766 180.693-295.424zM256 278.827l148.693-92.906c-3.307-37.376-23.659-156.31-148.694-240.49-125.056 84.202-145.387 203.2-148.694 240.49l148.694 92.906zM256 240v-256c106.666 109.334 106.666 192 106.666 192l-106.666 64z" />
<glyph unicode="&#xe216;" glyph-name="bx-show" d="M256 176c-35.249-0.24-63.76-28.751-64-63.977v-0.023c0-35.029 28.971-64 64-64 35.008 0 64 28.971 64 64 0 35.008-28.992 64-64 64zM256 261.334c-162.838 0-211.776-141.163-212.224-142.592-0.7-2.014-1.103-4.336-1.103-6.752s0.404-4.738 1.148-6.901l-0.044 0.149c0.448-1.408 49.386-142.571 212.224-142.571s211.776 141.163 212.224 142.592c0.7 2.014 1.103 4.336 1.103 6.752s-0.404 4.738-1.149 6.901l0.045-0.149c-0.448 1.408-49.387 142.571-212.224 142.571zM256 5.334c-114.154 0-158.379 82.048-169.088 106.666 10.752 24.704 54.998 106.666 169.088 106.666 114.154 0 158.379-82.048 169.088-106.666-10.752-24.704-54.998-106.666-169.088-106.666z" />
<glyph unicode="&#xe217;" glyph-name="bx-slider" d="M106.666 325.334h42.666v-192h-42.666zM362.666 325.334h42.666v-277.334h-42.666zM234.667 325.334h42.667v-64h-42.666zM64 48h42.666v-149.333h42.666v149.333h42.667v42.666h-128zM192.256 176h42.41v-277.334h42.666v277.334h42.666v42.666h-127.744zM320-37.334h42.666v-64h42.666v64h42.666v42.666h-128z" />
<glyph unicode="&#xe218;" glyph-name="bx-slider-alt" d="M352 186.667c-33.707 0-61.93-22.613-71.19-53.333h-238.144v-42.666h238.144c9.259-30.72 37.483-53.334 71.19-53.334s61.93 22.613 71.19 53.334h46.144v42.666h-46.144c-9.259 30.72-37.483 53.334-71.19 53.334zM352 80c-17.642 0-32 14.358-32 32s14.358 32 32 32 32-14.357 32-32-14.358-32-32-32zM234.667 314.666c-33.707 0-61.93-22.613-71.189-53.334h-120.811v-42.666h120.811c9.258-30.72 37.483-53.334 71.19-53.334s61.93 22.613 71.19 53.334h163.478v42.666h-163.477c-9.259 30.72-37.483 53.334-71.19 53.334zM234.667 208c-17.643 0-32 14.357-32 32s14.357 32 32 32 32-14.358 32-32-14.357-32-32-32zM160 58.666c-33.707 0-61.93-22.613-71.189-53.334h-46.144v-42.666h46.144c9.258-30.72 37.483-53.334 71.189-53.334s61.93 22.613 71.19 53.334h238.144v42.666h-238.144c-9.258 30.72-37.483 53.334-71.19 53.334zM160-48c-17.642 0-32 14.358-32 32s14.357 32 32 32 32-14.358 32-32-14.357-32-32-32z" />
<glyph unicode="&#xe219;" glyph-name="bx-time" d="M256 325.334c-117.632 0-213.333-95.702-213.333-213.334s95.701-213.333 213.333-213.333 213.333 95.702 213.333 213.333-95.702 213.334-213.333 213.334zM256-58.666c-94.101 0-170.667 76.565-170.667 170.666s76.566 170.667 170.667 170.667 170.667-76.565 170.667-170.667-76.565-170.666-170.667-170.666zM277.334 218.667h-42.666v-115.499l70.25-70.25 30.166 30.166-57.75 57.75z" />
<glyph unicode="&#xe220;" glyph-name="bx-wrench" d="M55.978 8.747c0-5.675 2.24-11.094 6.251-15.082l75.434-75.435c3.853-3.875 9.188-6.272 15.083-6.272s11.23 2.398 15.082 6.272l80.961 80.961c14.096-4.507 30.31-7.104 47.131-7.104 0.058 0 0.116 0 0.174 0h-0.009c0.144-0 0.315-0 0.486-0 44.014 0 83.848 17.901 112.617 46.82l0.007 0.007c28.987 28.909 46.921 68.887 46.921 113.054 0 22-4.45 42.962-12.498 62.032l0.393-1.049c-3.267 7.834-10.865 13.24-19.724 13.24-5.896 0-11.233-2.394-15.091-6.263l-67.904-67.883-45.248 45.269 67.882 67.882c3.856 3.86 6.241 9.19 6.241 15.078 0 8.863-5.404 16.463-13.098 19.685l-0.14 0.052c-17.939 7.596-38.799 12.011-60.69 12.011-0.084 0-0.167 0-0.25 0h0.013c-42.731 0-82.901-16.64-113.088-46.848-28.989-28.889-46.927-68.853-46.927-113.006 0-16.921 2.635-33.226 7.516-48.529l-0.311 1.13-80.96-80.938c-3.861-3.848-6.251-9.171-6.251-15.052 0-0.011 0-0.022 0-0.033v0.002zM182.912 84.16c3.862 3.861 6.25 9.195 6.25 15.086 0 2.923-0.588 5.707-1.651 8.244l0.053-0.14c-5.625 13.224-8.894 28.606-8.894 44.751 0 32.383 13.152 61.694 34.405 82.883l0.003 0.003c21.285 21.216 50.653 34.334 83.085 34.334 3.894 0 7.744-0.189 11.541-0.558l-0.482 0.038-56.448-56.448c-3.864-3.858-6.255-9.191-6.255-15.083s2.391-11.225 6.255-15.083l75.414-75.435c3.853-3.875 9.188-6.272 15.082-6.272s11.229 2.398 15.082 6.272l56.492 56.492c0.348-3.386 0.546-7.316 0.546-11.293 0-32.391-13.149-61.71-34.399-82.912l-0.002-0.002c-33.067-33.067-84.565-43.243-127.659-25.514-2.393 1.007-5.175 1.591-8.093 1.591-5.893 0-11.23-2.385-15.096-6.243l-75.391-75.392-45.269 45.269 75.435 75.413z" />
<glyph unicode="&#xe221;" glyph-name="bxs-bell" d="M256-90.666c29.589 0 53.334 23.744 53.334 53.334h-106.666c0-29.589 23.744-53.334 53.334-53.334zM279.339 323.52l-21.611 1.75c-1.152 0.086-2.282 0.086-3.435 0l-22.678-1.856c-83.392-11.99-146.282-84.544-146.282-168.746v-81.878l-20.224-60.714c-2.197-6.507-1.088-13.675 2.922-19.221 4.011-5.568 10.454-8.853 17.302-8.853h341.334c0.171-0.022 0.341-0.022 0.426 0 11.798 0 21.334 9.536 21.334 21.334 0 3.84-1.002 7.445-2.795 10.56l-18.966 56.896v81.877c0 84.053-62.762 156.587-147.328 168.853z" />
<glyph unicode="&#xe222;" glyph-name="bxs-dashboard" d="M256.022 325.526c-56.875 0-110.464-22.272-150.869-62.678-83.178-83.158-83.178-218.518 0-301.696 40.427-40.426 93.994-62.678 150.869-62.678s110.442 22.25 150.827 62.656c83.178 83.158 83.178 218.518 0 301.738-40.406 40.406-93.974 62.656-150.827 62.656zM425.13 90.858h-41.322v42.666h41.259c1.792-14.166 1.813-28.502 0.064-42.666zM298.112 137.514c0.106-1.28 0.384-2.496 0.384-3.798 0-23.488-19.050-42.517-42.496-42.517s-42.475 19.050-42.475 42.517c0 23.424 19.050 42.453 42.475 42.453 6.25 0 12.139-1.429 17.472-3.862l94.976 67.84c2.795-2.432 5.611-4.843 8.256-7.488 7.659-7.659 14.336-15.936 20.224-24.576l-98.816-70.57zM234.475 281.322c7.104 0.896 14.272 1.514 21.547 1.514 7.125 0 14.144-0.576 21.12-1.45v-41.216h-42.666v41.152zM151.424 246.72l28.95-28.95-30.166-30.166-28.928 28.928c4.331 5.568 8.917 11.008 14.037 16.128 5.099 5.12 10.518 9.685 16.107 14.058zM86.933 133.525h40.874v-42.667h-40.939c-1.749 14.166-1.728 28.501 0.064 42.666zM376.683-8.704c-32.341-32.341-75.178-50.154-120.661-50.154s-88.363 17.813-120.704 50.176c-16.704 16.704-29.206 36.032-37.525 56.683h316.416c-8.32-20.651-20.822-40-37.526-56.704z" />
<glyph unicode="&#xe223;" glyph-name="bxs-error-circle" d="M254.998 325.334c-117.077 0-212.331-95.702-212.331-213.334s95.701-213.333 213.333-213.333 213.333 95.702 213.333 213.333-96.149 213.334-214.336 213.334zM277.334 5.334h-42.666v42.666h42.666v-42.666zM277.334 90.666h-42.666v128h42.666v-128z" />
<glyph unicode="&#xe224;" glyph-name="bxs-rocket" d="M461.803 302.293c-1.899 7.637-7.872 13.611-15.531 15.531-1.344 0.341-33.195 8.171-73.046 8.171-55.147 0-99.478-15.19-128.234-43.968-31.722-31.744-56.042-56.554-67.712-68.522-25.92 2.944-86.976 4.331-128.363-37.056-4.011-4.011-6.251-9.429-6.251-15.104s2.24-11.094 6.251-15.083l241.344-241.344c4.010-4.010 9.43-6.25 15.082-6.25s11.094 2.24 15.082 6.25c41.685 41.664 40.406 102.698 37.696 128.214l67.925 67.904c68.075 68.075 37.12 195.862 35.755 201.258zM365.696 161.344c-16.661-16.661-43.648-16.661-60.331 0-16.661 16.683-16.661 43.669 0 60.331 16.683 16.683 43.669 16.683 60.331 0 16.683-16.661 16.683-43.626 0-60.331zM106.666 27.328c-42.666-21.334-42.666-106.666-42.666-106.666s64 0 106.666 42.666l-64 64z" />
<glyph unicode="&#xe225;" glyph-name="bxs-shield" d="M267.307 322.091c-6.912 4.33-15.702 4.33-22.635 0l-170.667-106.667c-6.208-3.904-10.005-10.731-10.005-18.090 0-7.466 2.070-183.766 180.694-295.424 3.456-2.154 7.381-3.243 11.306-3.243s7.851 1.088 11.307 3.243c178.624 111.659 180.693 287.957 180.693 295.424 0 7.36-3.798 14.186-10.026 18.090l-170.666 106.667z" />
<glyph unicode="&#xe226;" glyph-name="bxs-shield-alt" d="M244.694-98.091c3.456-2.154 7.381-3.243 11.306-3.243s7.851 1.088 11.307 3.243c178.624 111.659 180.693 287.957 180.693 295.424 0 7.36-3.798 14.186-10.026 18.090l-170.666 106.667c-6.912 4.33-15.702 4.33-22.635 0l-170.667-106.667c-6.208-3.904-10.005-10.731-10.005-18.090 0-7.466 2.070-183.765 180.694-295.424zM256 261.334l128-74.667c0 0-3.541-117.333-128-224v298.666z" />
<glyph unicode="&#xe227;" glyph-name="bxs-slider-alt" d="M362.666 176c-27.776 0-51.221-17.877-60.053-42.666h-259.947v-42.666h259.947c8.832-24.768 32.298-42.666 60.053-42.666s51.221 17.899 60.053 42.666h46.613v42.666h-46.613c-8.832 24.79-32.277 42.666-60.053 42.666zM149.333 48c-27.776 0-51.221-17.899-60.053-42.666h-46.614v-42.666h46.614c8.832-24.768 32.278-42.666 60.053-42.666s51.221 17.899 60.054 42.666h259.947v42.666h-259.947c-8.832 24.768-32.278 42.666-60.053 42.666zM273.387 261.334c-8.832 24.789-32.278 42.666-60.053 42.666s-51.221-17.877-60.053-42.666h-110.614v-42.667h110.614c8.832-24.79 32.278-42.667 60.053-42.667s51.221 17.877 60.053 42.666h195.946v42.666h-195.947z" />
<glyph unicode="&#xe228;" glyph-name="bxs-world" d="M256 325.334c-117.632 0-213.333-95.702-213.333-213.334s95.701-213.333 213.333-213.333 213.333 95.702 213.333 213.333-95.702 213.334-213.333 213.334zM192-46.101v30.101l-64 64v42.666l-21.334 42.666h-19.861c9.664 77.034 70.827 138.197 147.862 147.861v-19.861l-21.333-42.666-42.666-42.666-21.334-42.666 21.334-42.666h21.334l21.334-21.334h42.666v-42.666l-40.192-80.363c-8.171 1.984-16.149 4.48-23.808 7.594zM376.618-8.618l-13.952 13.952-21.334 42.666-21.334 21.334-21.334 20.992 21.334 21.674 42.666 21.334v21.334l-21.334 21.334 21.334 42.666v26.346c38.954-31.296 64-79.254 64-133.014 0-47.040-19.136-89.707-50.048-120.618z" />
<glyph unicode="&#xe908;" glyph-name="bxl-google" d="M432.704 147.072h-177.643v-73.621h102.23c-9.514-46.784-49.344-73.664-102.23-73.664-62.357 0-112.619 50.262-112.619 112.64 0 62.358 50.262 112.618 112.618 112.618 26.858 0 51.136-9.536 70.186-25.131l55.466 55.446c-33.792 29.462-77.12 47.637-125.654 47.637-105.685 0-190.592-84.885-190.592-190.592s84.886-190.592 190.592-190.592c95.296 0 181.952 69.312 181.952 190.592 0 11.264-1.728 23.403-4.31 34.667z" />
<glyph unicode="&#xe937;" glyph-name="bx-bell-off" d="M426.666-16c0.149-0.022 0.32-0.022 0.426 0 11.798 0 21.334 9.536 21.334 21.334 0 3.84-1.002 7.445-2.795 10.56l-18.966 56.896v81.877c0 84.053-62.762 156.587-147.328 168.853l-21.611 1.75c-1.152 0.085-2.282 0.085-3.435 0l-22.678-1.856c-40.49-5.824-76.053-26.048-102.037-54.827l-50.496 50.496-30.166-30.166 384-384 30.166 30.166-48.918 48.918h12.502zM236.374 281.024l19.648 1.579 18.517-1.451c62.4-9.088 109.462-63.466 109.462-126.486v-85.334c0-2.283 0.384-4.565 1.11-6.741l11.947-35.925h-25.558l-211.669 211.669c19.37 22.422 46.102 38.294 76.544 42.688zM128 69.334v82.752l-38.614 38.613c-2.56-11.669-4.053-23.702-4.053-36.032v-81.877l-20.224-60.714c-2.197-6.507-1.088-13.675 2.922-19.221 4.011-5.568 10.454-8.853 17.302-8.853h96c0-41.173 33.494-74.666 74.667-74.666 30.954 0 57.579 18.966 68.885 45.866l-71.466 71.466h-138.475l11.968 35.925c0.704 2.176 1.088 4.459 1.088 6.741zM288-16c0-17.942-14.058-32-32-32s-32 14.058-32 32h64z" />
<glyph unicode="&#xe93d;" glyph-name="bx-bolt" d="M207.147-100.416c1.855-0.584 3.987-0.921 6.198-0.921 7.368 0 13.862 3.738 17.689 9.421l0.048 0.076 170.667 256c2.247 3.327 3.587 7.427 3.587 11.84 0 11.782-9.551 21.333-21.334 21.333-0.001 0-0.002 0-0.003 0h-102.805l17.195 103.147c0.187 1.059 0.294 2.279 0.294 3.523 0 5.271-1.919 10.093-5.097 13.807l0.024-0.029c-3.93 4.632-9.757 7.552-16.264 7.552-0.005 0-0.009 0-0.014 0h-128c0 0 0 0-0 0-11.030 0-20.106-8.372-21.219-19.108l-0.007-0.091-21.334-213.334c-0.068-0.639-0.107-1.382-0.107-2.134 0-11.782 9.552-21.334 21.334-21.334 0 0 0 0 0.001 0h64v-149.333c0-9.575 6.309-17.676 14.995-20.375l0.151-0.041zM151.573 112l17.066 170.667h83.499l-17.195-103.147c-0.187-1.059-0.294-2.279-0.294-3.523 0-5.271 1.919-10.094 5.097-13.807l-0.024 0.029c4.054-4.8 10.006-7.552 16.278-7.552h88.149l-109.483-164.202v100.202c0 11.782-9.552 21.334-21.334 21.334v0h-61.76z" />
<glyph unicode="&#xe949;" glyph-name="bx-bug" d="M422.4 101.334c0 10.923-0.918 21.547-2.262 32h47.914v42.666h-57.493c-8.389 25.751-20.612 48.074-36.209 67.58l0.327-0.422 45.76 45.76-30.166 30.165-46.166-46.144c-25.579 19.563-55.723 31.062-88.106 31.062s-62.528-11.499-88.106-31.062l-46.144 46.144-30.166-30.165 45.76-45.76c-15.27-19.083-27.493-41.405-35.457-65.659l-0.426-1.498h-58.794v-42.666h49.216c-1.365-10.453-2.282-21.077-2.282-32 0-10.986 0.918-21.718 2.304-32.234h-49.237v-42.666h58.859c4.864-14.784 11.094-28.714 18.517-41.558l-49.792-49.792 30.165-30.166 45.184 45.184c29.418-31.872 68.032-51.435 110.4-51.435s80.981 19.563 110.4 51.435l45.184-45.184 30.166 30.166-49.792 49.792c7.445 12.842 13.675 26.774 18.517 41.558h58.858v42.666h-49.259c1.408 10.517 2.325 21.248 2.325 32.234zM256 261.334c47.382 0 88.555-34.646 109.355-85.334h-218.709c20.8 50.688 61.974 85.334 109.355 85.334zM277.334-56.106v146.774h-42.666v-146.774c-58.090 13.12-102.4 78.656-102.4 157.44 0 10.965 0.853 21.654 2.496 32h242.453c1.642-10.346 2.496-21.035 2.496-32 0.022-78.805-44.288-144.32-102.379-157.44z" />
<glyph unicode="&#xe970;" glyph-name="bx-chip" d="M426.666 261.334c0 11.782-9.551 21.334-21.334 21.334v0h-42.666v42.666h-42.666v-42.666h-42.666v42.666h-42.666v-42.666h-42.666v42.666h-42.666v-42.666h-42.666c-11.782 0-21.334-9.552-21.334-21.334v0-42.667h-42.666v-42.667h42.666v-42.666h-42.666v-42.666h42.666v-42.666h-42.666v-42.666h42.666v-42.666c0-11.782 9.552-21.334 21.334-21.334v0h42.666v-42.666h42.666v42.666h42.666v-42.666h42.666v42.666h42.666v-42.666h42.666v42.666h42.666c11.782 0 21.334 9.551 21.334 21.334v0 42.666h42.666v42.666h-42.666v42.666h42.666v42.666h-42.666v42.666h42.666v42.666h-42.666v42.666zM384-16h-256v256h256v-256zM213.333 154.667h85.333v-85.333h-85.334z" />
<glyph unicode="&#xe980;" glyph-name="bx-collection" d="M426.666 154.667h-341.334c-11.782 0-21.334-9.552-21.334-21.333v0-213.334c0-11.782 9.552-21.334 21.334-21.334v0h341.334c11.782 0 21.334 9.551 21.334 21.334v0 213.333c0 11.782-9.551 21.333-21.334 21.333v0zM405.334-58.666h-298.666v170.666h298.666v-170.666zM106.666 240h298.666v-42.666h-298.666zM149.333 325.334h213.333v-42.666h-213.333z" />
<glyph unicode="&#xe9c2;" glyph-name="bx-flask" d="M341.334 158.422v124.246h21.334v42.666h-213.333v-42.666h21.333v-124.246l-84.032-231.125c-0.815-2.17-1.287-4.678-1.287-7.296 0-11.777 9.543-21.325 21.317-21.334h298.668c0.005 0 0.010 0 0.015 0 11.771 0 21.312 9.541 21.312 21.312 0 2.626-0.475 5.142-1.344 7.464l0.048-0.147-84.032 231.125zM298.666 282.666v-128c0-2.475 0.448-4.95 1.301-7.296l12.842-35.37h-113.621l12.864 35.37c0.832 2.346 1.28 4.822 1.28 7.296v128h85.333zM137.131-58.666l46.549 128h144.661l46.55-128h-237.76z" />
<glyph unicode="&#xe9db;" glyph-name="bx-hide" d="M256-37.334c20.182 0 38.613 2.197 55.424 5.995l-37.483 37.483c-5.824-0.448-11.733-0.81-17.941-0.81-114.155 0-158.379 82.048-169.088 106.666 4.352 10.026 14.379 29.462 32.171 49.002l-29.824 29.824c-32.81-35.563-45.248-71.382-45.483-72.085-1.472-4.374-1.472-9.131 0-13.504 0.448-1.408 49.386-142.57 212.224-142.57zM468.224 105.259c1.472 4.373 1.472 9.131 0 13.504-0.448 1.408-49.387 142.571-212.224 142.571-39.19 0-71.382-8.448-98.219-20.928l-78.698 78.678-30.166-30.166 384-384 30.166 30.166-70.805 70.805c55.765 41.642 75.669 98.475 75.947 99.37zM313.408 84.757c4.075 8.298 6.592 17.45 6.592 27.243 0 35.008-28.992 64-64 64-9.792 0-18.944-2.518-27.243-6.592l-38.571 38.571c18.794 6.571 40.512 10.688 65.814 10.688 114.154 0 158.379-82.048 169.088-106.666-6.442-14.762-24.875-49.962-63.019-75.904l-48.661 48.661z" />
<glyph unicode="&#xe9dc;" glyph-name="bx-history" d="M234.667 197.333v-106.667h106.667v42.666h-64v64zM426.666 112c0 92.501-78.144 170.667-170.667 170.667-92.501 0-170.667-78.166-170.667-170.667h-42.666l64-84.8 64 84.8h-42.666c0 69.376 58.624 128 128 128s128-58.624 128-128-58.624-128-128-128v-42.666c92.522 0 170.667 78.166 170.667 170.666z" />
<glyph unicode="&#xe9e9;" glyph-name="bx-info-circle" d="M256 325.334c-117.632 0-213.333-95.702-213.333-213.334s95.701-213.333 213.333-213.333 213.333 95.702 213.333 213.333-95.702 213.334-213.333 213.334zM256-58.666c-94.101 0-170.667 76.565-170.667 170.666s76.566 170.667 170.667 170.667 170.667-76.565 170.667-170.667-76.565-170.666-170.667-170.666zM234.667 133.333h42.667v-128h-42.666zM234.667 218.667h42.667v-42.667h-42.666z" />
<glyph unicode="&#xe9ff;" glyph-name="bx-list-check" d="M64 261.334h384v-42.667h-384zM64 176h384v-42.666h-384zM64 90.666h192v-42.666h-192zM64 5.334h192v-42.666h-192zM341.205-7.104l-27.563 27.541-30.166-30.187 57.728-57.685 121.856 121.664-30.123 30.208z" />
<glyph unicode="&#xea5c;" glyph-name="bx-search" d="M213.333-16c39.574 0.009 75.98 13.566 104.832 36.286l-0.363-0.275 93.781-93.781 30.166 30.166-93.781 93.781c22.457 28.493 36.022 64.907 36.032 104.488v0.002c0 94.101-76.565 170.667-170.667 170.667s-170.667-76.566-170.667-170.667 76.566-170.667 170.667-170.667zM213.333 282.666c70.592 0 128-57.408 128-128s-57.408-128-128-128-128 57.408-128 128 57.408 128 128 128z" />
<glyph unicode="&#xea98;" glyph-name="bx-trash" d="M106.666-80c0-11.782 9.552-21.334 21.334-21.334v0h256c11.782 0 21.334 9.551 21.334 21.334v0 277.334h42.666v42.666h-106.666v64c0 11.782-9.551 21.334-21.334 21.334v0h-128c-11.782 0-21.334-9.551-21.334-21.334v0-64h-106.666v-42.666h42.666v-277.334zM213.333 282.666h85.333v-42.666h-85.334v42.666zM192 197.333h170.667v-256h-213.333v256h42.667zM192 154.667h42.666v-170.667h-42.666zM277.334 154.667h42.666v-170.667h-42.666z" />
<glyph unicode="&#xeaa1;" glyph-name="bx-umbrella" d="M256 325.334c-117.654 0-213.355-86.144-213.355-192 0-11.782 9.552-21.334 21.334-21.334v0h170.667v-138.667c0-17.642-14.357-32-32-32s-32 14.358-32 32h-42.666c0-41.173 33.493-74.666 74.666-74.666s74.666 33.493 74.666 74.666v138.667h170.667c11.782 0 21.334 9.552 21.334 21.334v0c0 105.856-95.68 192-213.312 192zM87.040 154.667c11.883 72.278 83.136 128 168.96 128 85.803 0 157.034-55.723 168.918-128h-337.877z" />
<glyph unicode="&#xeaac;" glyph-name="bx-user-detail" d="M298.666 133.333h170.666v-42.667h-170.667zM341.334 48h128v-42.666h-128zM298.666 218.667h170.666v-42.667h-170.667zM85.334-16c0 52.63 32.682 85.334 85.334 85.334s85.333-32.704 85.333-85.334v-21.334h42.666v21.334c0 52.48-24.555 92.65-64.427 113.046 13.504 15 21.763 34.954 21.763 56.837 0 0.275-0.002 0.551-0.004 0.827l0.001-0.042c0 48.64-36.694 85.333-85.334 85.333s-85.334-36.693-85.334-85.333c0-22.72 8.256-42.645 21.76-57.621-39.872-20.394-64.427-60.565-64.427-113.046v-21.334h42.666v21.334zM128 154.667c0 25.131 17.536 42.667 42.666 42.667s42.666-17.536 42.666-42.666-17.536-42.666-42.666-42.666-42.666 17.536-42.666 42.666z" />
<glyph unicode="&#xeacf;" glyph-name="bxs-archive-out" d="M42.666-37.334c0-11.798 9.536-21.334 21.334-21.334h192l-85.334 85.334h64v85.334h42.666v-85.334h64l-85.334-85.334h192c11.798 0 21.334 9.536 21.334 21.334v213.333h-426.666v-213.333zM456.256 218.667l-30.678 92.074c-2.901 8.726-11.050 14.592-20.245 14.592h-298.666c-9.195 0-17.323-5.867-20.224-14.592l-30.698-92.074h400.512z" />
<glyph unicode="&#xead9;" glyph-name="bxs-bell-off" d="M256-90.666c29.589 0 53.334 23.744 53.334 53.334h-106.666c0-29.589 23.744-53.334 53.334-53.334zM426.666-16c0.149-0.022 0.32-0.022 0.426 0 11.798 0 21.334 9.536 21.334 21.334 0 3.84-1.002 7.445-2.795 10.56l-18.966 56.896v81.877c0 84.053-62.762 156.587-147.328 168.853l-21.611 1.75c-1.152 0.085-2.282 0.085-3.435 0l-22.678-1.856c-40.49-5.824-76.053-26.048-102.037-54.827l-50.496 50.496-30.166-30.166 384-384 30.166 30.166-48.918 48.918h12.502zM85.334 154.667v-81.878l-20.224-60.714c-2.197-6.507-1.088-13.675 2.922-19.221 4.010-5.568 10.454-8.853 17.302-8.853h210.752l-206.698 206.678c-2.56-11.648-4.053-23.68-4.053-36.011z" />
<glyph unicode="&#xeb1c;" glyph-name="bxs-down-arrow-circle" d="M256 325.334c-117.632 0-213.333-95.702-213.333-213.334s95.701-213.333 213.333-213.333c117.632 0 213.333 95.702 213.333 213.333s-95.702 213.334-213.333 213.334zM256 26.666l-85.334 85.334h64v85.334h42.666v-85.334h64l-85.334-85.334z" />
<glyph unicode="&#xeb25;" glyph-name="bxs-error" d="M274.858 313.984c-7.382 13.952-30.336 13.952-37.718 0l-192-362.666c-3.498-6.613-3.285-14.592 0.576-20.971 3.861-6.421 10.794-10.346 18.282-10.346h384c7.488 0 14.421 3.925 18.262 10.325 3.882 6.4 4.075 14.378 0.576 20.971l-191.978 362.688zM277.334-16h-42.666v42.666h42.666v-42.666zM277.334 69.334h-42.666v106.666h42.666v-106.666z" />
<glyph unicode="&#xeb44;" glyph-name="bxs-info-circle" d="M256 325.334c-117.632 0-213.333-95.702-213.333-213.334s95.701-213.333 213.333-213.333 213.333 95.702 213.333 213.333-95.702 213.334-213.333 213.334zM277.334 5.334h-42.666v128h42.666v-128zM277.334 176h-42.666v42.666h42.666v-42.666z" />
</font>
</defs>
</svg>
