<svg xmlns="http://www.w3.org/2000/svg" width="102" height="17" viewBox="0 0 102 17"><g><g><g><path fill="#ffb11a" d="M9 0l2.966 5.343L18 6.493l-4.2 4.453.763 6.054L9 14.409l-5.562 2.59.763-6.053L0 6.493l6.033-1.15L9 0"/></g><g><path fill="#ffb11a" d="M30 0l2.966 5.343 6.033 1.15-4.2 4.453.763 6.054L30 14.409l-5.562 2.59.763-6.053L21 6.493l6.033-1.15L30 0"/></g><g><path fill="#ffb11a" d="M51 0l2.966 5.343 6.033 1.15-4.2 4.453.763 6.054L51 14.409l-5.562 2.59.763-6.053L42 6.493l6.033-1.15L51 0"/></g><g><path fill="#ffb11a" d="M72 0l2.966 5.343L81 6.493l-4.2 4.453.763 6.054L72 14.409l-5.562 2.59.762-6.053-4.199-4.453 6.033-1.15L72 0"/></g><g><path fill="#ffb11a" d="M93 0l2.966 5.343L102 6.493l-4.2 4.453.763 6.054L93 14.409l-5.562 2.59.762-6.053-4.199-4.453 6.033-1.15L93 0"/></g></g></g></svg>
