<?xml version="1.0" encoding="utf-8"?>
<!-- Generator: Adobe Illustrator 21.0.2, SVG Export Plug-In . SVG Version: 6.00 Build 0)  -->
<svg version="1.1" id="Layer_1" xmlns="http://www.w3.org/2000/svg" xmlns:xlink="http://www.w3.org/1999/xlink" x="0px" y="0px"
	 width="512px" height="512px" viewBox="0 0 512 512" style="enable-background:new 0 0 512 512;" xml:space="preserve">
<style type="text/css">
	.st0{fill:#B3B3B3;}
	.st1{fill:#E6E6E6;}
	.st2{fill:#808080;}
	.st3{fill:#FDB62F;}
</style>
<path class="st0" d="M53.3,281C37.7,281,25,268.3,25,252.7c0-7.5,3-14.7,8.3-20L232.7,33.3c5.3-5.3,12.5-8.3,20-8.3
	c15.6,0,28.3,12.7,28.3,28.3l0,0c0,7.5-3,14.7-8.3,20L73.3,272.7C68,278,60.8,281,53.3,281L53.3,281z"/>
<path class="st1" d="M81,265L265,81l108.1,108.1c37.5,37.5,37.5,98.3,0,135.8l0,0l-48.2,48.2c-37.5,37.5-98.3,37.5-135.8,0l0,0
	L81,265z"/>
<path class="st0" d="M321,377l56-56l28.7,28.7c6.2,6.2,6.2,16.4,0,22.6l-33.4,33.4c-6.2,6.2-16.4,6.2-22.6,0L321,377z"/>
<path class="st2" d="M377,401l24-24l88,88v24h-24L377,401z"/>
<g>
	<path class="st1" d="M81,185l-51-51c-3.2-3.2-5-7.5-5-12c0-9.4,7.6-17,17-17l0,0c4.5,0,8.8,1.8,12,5l51,51L81,185z"/>
	<path class="st1" d="M185,81l-51-51c-3.2-3.2-7.5-5-12-5c-9.4,0-17,7.6-17,17l0,0c0,4.5,1.8,8.8,5,12l51,51L185,81z"/>
</g>
<path class="st3" d="M305,313l-24-128l-32,32l-16-40l-40,40l32,80l32-32L305,313z"/>
<path d="M412.2,376.9c8.4-9.5,8.1-23.9-0.9-32.9l-23.7-23.7c31.8-41.4,28-99.9-8.8-136.8L276.3,81l2.1-2.1
	c14.2-14.2,14.2-37.1,0-51.3s-37.1-14.2-51.3,0L185,69.7l-45.4-45.4c-9.8-9.8-25.6-9.8-35.3,0s-9.8,25.6,0,35.3l0,0l45.4,45.4
	L105,149.7l-45.4-45.4c-9.8-9.8-25.6-9.8-35.3,0s-9.8,25.6,0,35.3l0,0L69.7,185l-42.1,42.1c-14.2,14.2-14.2,37.1,0,51.3
	s37.1,14.2,51.3,0l2.1-2.1l102.5,102.5c36.9,36.9,95.5,40.7,136.8,8.8l23.7,23.7c9,9,23.4,9.4,32.9,0.9l84.8,84.8H497v-35.3
	L412.2,376.9z M115.6,48.3c-3.5-3.5-3.5-9.2,0-12.7s9.2-3.5,12.7,0L173.7,81L161,93.7L115.6,48.3z M35.6,128.3
	c-3.5-3.5-3.5-9.2,0-12.7s9.2-3.5,12.7,0L93.7,161L81,173.7L35.6,128.3z M67.6,267.1c-8,7.8-20.9,7.6-28.7-0.5
	c-7.6-7.9-7.6-20.4,0-28.2L81,196.3l35.3-35.3l44.7-44.7L196.3,81l42.1-42.1c8-7.8,20.9-7.6,28.7,0.5c7.6,7.9,7.6,20.4,0,28.2
	l-2.1,2.1L69.7,265L67.6,267.1z M194.8,367.5L92.3,265L265,92.3l102.5,102.5c34.3,34.4,34.3,90.1,0,124.5l-48.2,48.2
	C284.8,401.8,229.2,401.8,194.8,367.5z M355.3,400l-23-23l44.7-44.7l23,23c3.1,3.1,3.1,8.2,0,11.3L366.7,400
	C363.5,403.2,358.5,403.2,355.3,400L355.3,400z M481,481h-12.7l-80-80l12.7-12.7l80,80V481z"/>
<path d="M288.9,183.5c-0.8-4.3-5-7.2-9.3-6.4c-1.6,0.3-3,1.1-4.2,2.2L252,202.7L240.4,174c-1-2.5-3.2-4.3-5.8-4.9
	c-2.6-0.6-5.4,0.3-7.3,2.2l-40,40c-2.3,2.3-3,5.7-1.8,8.6l32,80c1.6,4.1,6.3,6.1,10.4,4.5c1-0.4,1.9-1,2.7-1.8l26.4-26.3l42.3,42.3
	c3.1,3.1,8.2,3.1,11.3,0c1.9-1.9,2.7-4.5,2.2-7.1L288.9,183.5z M262.7,259.3c-3.1-3.1-8.2-3.1-11.3,0L228,282.7l-25.5-63.8
	l27.7-27.7l11.5,28.7c1.6,4.1,6.3,6.1,10.4,4.5c1-0.4,1.9-1,2.7-1.8l21.3-21.3l16.4,87.7L262.7,259.3z"/>
</svg>
