<?xml version="1.0" encoding="utf-8"?>
<!-- Generator: Adobe Illustrator 21.0.2, SVG Export Plug-In . SVG Version: 6.00 Build 0)  -->
<svg version="1.1" id="Layer_1" xmlns="http://www.w3.org/2000/svg" xmlns:xlink="http://www.w3.org/1999/xlink" x="0px" y="0px"
	 width="112px" height="30px" viewBox="0 0 112 30" style="enable-background:new 0 0 112 30;" xml:space="preserve">
<style type="text/css">
	.st0{fill:#7C868B;}
	.st1{font-family:'Montserrat-Regular';}
	.st2{font-size:18.2051px;}
</style>
<g>
	<text transform="matrix(1 0 0 1 31.042 23.3289)"><tspan x="0" y="0" class="st0 st1 st2">G</tspan><tspan x="13.7" y="0" class="st0 st1 st2">ROOVY</tspan></text>
</g>
<path class="st0" d="M0,17.2C0,24.2,5.6,30,12.6,30c7,0,12.5-5.6,12.5-12.7L25,4.4H20v12.8c0,4.1-3.3,7.4-7.4,7.4
	c-4.1,0-7.4-3.3-7.4-7.4c0-3.5,2.5-6.6,5.9-7.1l0.5-0.1v2.9L11.4,13c-1.9,0.4-3.3,2.1-3.3,4.2c0,2.3,2.1,4.4,4.4,4.4
	c2.5,0,4.4-2,4.4-4.4V0h-1.3v17.2c0,1.7-1.5,3.1-3.1,3.1s-3.1-1.5-3.1-3.1c0-1.7,1.5-3.1,3.1-3.1h0.2V8.6h-0.2
	c-4.6,0-8.4,3.8-8.4,8.6s3.8,8.6,8.4,8.6c4.6,0,8.4-3.9,8.4-8.6V5.6H24v11.6c0,6.3-5.2,11.6-11.4,11.6c-6.2,0-11.4-5.3-11.4-11.5
	c0-6.3,5.2-11.6,11.4-11.6h0.2V4.4h-0.2C5.7,4.4,0,10.2,0,17.2z"/>
</svg>
