<?xml version="1.0" encoding="utf-8"?>
<!-- Generator: Adobe Illustrator 21.0.2, SVG Export Plug-In . SVG Version: 6.00 Build 0)  -->
<svg version="1.1" id="Layer_1" xmlns="http://www.w3.org/2000/svg" xmlns:xlink="http://www.w3.org/1999/xlink" x="0px" y="0px"
	 width="16px" height="16px" viewBox="0 0 16 16" style="enable-background:new 0 0 16 16;" xml:space="preserve">
<style type="text/css">
	.st0{fill:url(#SVGID_1_);}
</style>
<g>
	<linearGradient id="SVGID_1_" gradientUnits="userSpaceOnUse" x1="4.6799" y1="3.5389" x2="14.3089" y2="13.7766">
		<stop  offset="0" style="stop-color:#B928D1"/>
		<stop  offset="1" style="stop-color:#7728DE"/>
	</linearGradient>
	<path class="st0" d="M13.4,3.5c-0.9,0-0.9,0-0.9,0c0,5.6,0,5.6,0,5.6c0,2.6-2.2,4.7-4.6,4.7c-2.6,0-4.6-2.2-4.6-4.7s2-4.7,4.6-4.7
		c0.4,0,0.4,0,0.4,0c0,3.4,0,3.4,0,3.4c-0.4,0-0.4,0-0.4,0c-0.7,0-1.3,0.6-1.3,1.3s0.6,1.3,1.3,1.3s1.3-0.6,1.3-1.3c0-3,0-5.9,0-8.9
		c0-0.2,0-0.2,0-0.2c1.3,0,1.3,0,1.3,0c0,0.2,0,0.2,0,0.2c0,3,0,5.9,0,8.9c0,1.4-1.1,2.6-2.6,2.6c-1.4,0-2.6-1.2-2.6-2.6
		c0-1.2,0.8-2.2,1.9-2.5c0-0.9,0-0.9,0-0.9C5.6,6,4.4,7.4,4.4,9.1c0,1.9,1.5,3.4,3.4,3.4s3.4-1.6,3.4-3.4c0-2.2,0-4.4,0-6.6
		c0-0.2,0-0.2,0-0.2c0.2,0,0.2,0,0.2,0c0.9,0,1.9,0,3,0c0.2,0,0.2,0,0.2,0c0,6.9,0,6.9,0,6.9c0,3.8-3,6.9-6.8,6.9s-6.8-3.2-6.8-6.9
		s3-6.9,6.7-6.9c0.4,0,0.4,0,0.4,0c0,1.3,0,1.3,0,1.3c-0.4,0-0.4,0-0.4,0c-3,0-5.5,2.6-5.5,5.6s2.5,5.6,5.5,5.6s5.5-2.6,5.5-5.6V3.5
		z"/>
</g>
</svg>
