<?xml version="1.0" encoding="utf-8"?>
<!-- Generator: Adobe Illustrator 21.0.2, SVG Export Plug-In . SVG Version: 6.00 Build 0)  -->
<svg version="1.1" id="Layer_1" xmlns="http://www.w3.org/2000/svg" xmlns:xlink="http://www.w3.org/1999/xlink" x="0px" y="0px"
	 width="28px" height="28px" viewBox="0 0 28 28" style="enable-background:new 0 0 28 28;" xml:space="preserve">
<style type="text/css">
	.st0{fill:#556068;}
</style>
<path class="st0" d="M3,15.9C3,22,7.9,27,13.9,27c6.1,0,10.9-4.8,10.9-11L24.7,4.8h-4.4v11.1c0,3.5-2.9,6.4-6.4,6.4
	c-3.5,0-6.4-2.9-6.4-6.4c0-3,2.2-5.7,5.1-6.2l0.4-0.1v2.5l-0.3,0.1c-1.7,0.3-2.9,1.8-2.9,3.7c0,2,1.8,3.9,3.9,3.9
	c2.2,0,3.9-1.7,3.9-3.9V1h-1.1v14.9c0,1.4-1.3,2.7-2.7,2.7s-2.7-1.3-2.7-2.7c0-1.4,1.3-2.7,2.7-2.7h0.2V8.5h-0.2
	c-4,0-7.3,3.3-7.3,7.5s3.3,7.5,7.3,7.5c4,0,7.3-3.4,7.3-7.5V5.8h2.5v10c0,5.4-4.5,10-9.9,10c-5.4,0-9.9-4.6-9.9-10
	c0-5.4,4.5-10,9.9-10h0.2V4.8h-0.2C8,4.8,3,9.9,3,15.9z"/>
</svg>
