<?xml version="1.0" encoding="utf-8"?>
<!-- Generator: Adobe Illustrator 21.0.2, SVG Export Plug-In . SVG Version: 6.00 Build 0)  -->
<svg version="1.1" id="Layer_1" xmlns="http://www.w3.org/2000/svg" xmlns:xlink="http://www.w3.org/1999/xlink" x="0px" y="0px"
	 width="112px" height="30px" viewBox="0 0 112 30" style="enable-background:new 0 0 112 30;" xml:space="preserve">
<style type="text/css">
	.st0{enable-background:new    ;}
	.st1{fill:#7C868B;}
</style>
<g>
	<g class="st0">
		<path class="st1" d="M42.1,17h1.3v4.9c-0.6,0.5-1.3,0.9-2.1,1.2c-0.8,0.3-1.7,0.4-2.6,0.4c-1.3,0-2.4-0.3-3.4-0.8
			c-1-0.6-1.8-1.3-2.4-2.3c-0.6-1-0.9-2.1-0.9-3.3c0-1.2,0.3-2.3,0.9-3.3s1.4-1.8,2.4-2.3c1-0.6,2.2-0.8,3.5-0.8
			c1,0,1.9,0.2,2.7,0.5c0.8,0.3,1.5,0.8,2.1,1.4l-0.8,0.9c-1-1-2.3-1.5-3.8-1.5c-1,0-2,0.2-2.8,0.7c-0.8,0.5-1.5,1.1-2,1.9
			c-0.5,0.8-0.7,1.7-0.7,2.7s0.2,1.9,0.7,2.7c0.5,0.8,1.1,1.4,1.9,1.9c0.8,0.5,1.8,0.7,2.8,0.7c1.3,0,2.4-0.3,3.3-1V17z"/>
	</g>
	<g class="st0">
		<path class="st1" d="M55.5,23.3l-2.9-4.1c-0.3,0-0.7,0.1-1,0.1h-3.4v4h-1.3V10.6h4.8c1.6,0,2.9,0.4,3.8,1.2
			c0.9,0.8,1.4,1.8,1.4,3.2c0,1-0.3,1.8-0.8,2.5c-0.5,0.7-1.2,1.2-2.2,1.5l3.1,4.4H55.5z M54.4,17.3c0.7-0.6,1-1.3,1-2.3
			c0-1-0.3-1.8-1-2.4c-0.7-0.6-1.6-0.8-2.9-0.8h-3.4v6.4h3.4C52.8,18.1,53.8,17.9,54.4,17.3z"/>
		<path class="st1" d="M62.1,22.6c-1-0.6-1.8-1.3-2.4-2.3c-0.6-1-0.9-2.1-0.9-3.3c0-1.2,0.3-2.3,0.9-3.3c0.6-1,1.4-1.8,2.4-2.3
			c1-0.6,2.2-0.8,3.4-0.8c1.3,0,2.4,0.3,3.4,0.8c1,0.6,1.8,1.3,2.4,2.3c0.6,1,0.9,2.1,0.9,3.3c0,1.2-0.3,2.3-0.9,3.3
			c-0.6,1-1.4,1.8-2.4,2.3c-1,0.6-2.2,0.8-3.4,0.8C64.3,23.4,63.1,23.2,62.1,22.6z M68.3,21.6c0.8-0.5,1.5-1.1,1.9-1.9
			c0.5-0.8,0.7-1.7,0.7-2.7s-0.2-1.9-0.7-2.7c-0.5-0.8-1.1-1.4-1.9-1.9c-0.8-0.5-1.7-0.7-2.7-0.7c-1,0-1.9,0.2-2.7,0.7
			s-1.5,1.1-1.9,1.9c-0.5,0.8-0.7,1.7-0.7,2.7s0.2,1.9,0.7,2.7c0.5,0.8,1.1,1.4,1.9,1.9s1.7,0.7,2.7,0.7
			C66.6,22.2,67.5,22,68.3,21.6z"/>
		<path class="st1" d="M77.4,22.6c-1-0.6-1.8-1.3-2.4-2.3s-0.9-2.1-0.9-3.3c0-1.2,0.3-2.3,0.9-3.3c0.6-1,1.4-1.8,2.4-2.3
			c1-0.6,2.2-0.8,3.4-0.8c1.3,0,2.4,0.3,3.4,0.8c1,0.6,1.8,1.3,2.4,2.3c0.6,1,0.9,2.1,0.9,3.3c0,1.2-0.3,2.3-0.9,3.3
			c-0.6,1-1.4,1.8-2.4,2.3c-1,0.6-2.2,0.8-3.4,0.8C79.6,23.4,78.4,23.2,77.4,22.6z M83.6,21.6c0.8-0.5,1.5-1.1,1.9-1.9
			c0.5-0.8,0.7-1.7,0.7-2.7s-0.2-1.9-0.7-2.7c-0.5-0.8-1.1-1.4-1.9-1.9s-1.7-0.7-2.7-0.7c-1,0-1.9,0.2-2.7,0.7s-1.5,1.1-1.9,1.9
			c-0.5,0.8-0.7,1.7-0.7,2.7s0.2,1.9,0.7,2.7c0.5,0.8,1.1,1.4,1.9,1.9s1.7,0.7,2.7,0.7C81.8,22.2,82.7,22,83.6,21.6z"/>
		<path class="st1" d="M100.7,10.6l-5.6,12.7h-1.3l-5.6-12.7h1.5l4.9,11.1l4.9-11.1H100.7z"/>
		<path class="st1" d="M106.9,18.9v4.4h-1.3v-4.4l-5.1-8.3h1.4l4.4,7.2l4.4-7.2h1.3L106.9,18.9z"/>
	</g>
</g>
<path class="st1" d="M0,17.2C0,24.2,5.6,30,12.6,30s12.5-5.6,12.5-12.7L25,4.4h-5v12.8c0,4.1-3.3,7.4-7.4,7.4s-7.4-3.3-7.4-7.4
	c0-3.5,2.5-6.6,5.9-7.1l0.5-0.1v2.9L11.4,13c-1.9,0.4-3.3,2.1-3.3,4.2c0,2.3,2.1,4.4,4.4,4.4c2.5,0,4.4-2,4.4-4.4V0h-1.3v17.2
	c0,1.7-1.5,3.1-3.1,3.1s-3.1-1.5-3.1-3.1c0-1.7,1.5-3.1,3.1-3.1h0.2V8.6h-0.2c-4.6,0-8.4,3.8-8.4,8.6s3.8,8.6,8.4,8.6
	s8.4-3.9,8.4-8.6V5.6H24v11.6c0,6.3-5.2,11.6-11.4,11.6S1.2,23.5,1.2,17.3C1.2,11,6.4,5.7,12.6,5.7h0.2V4.4h-0.2
	C5.7,4.4,0,10.2,0,17.2z"/>
</svg>
