<svg xmlns="http://www.w3.org/2000/svg" id="Layer_1" viewBox="0 0 210 66">
  <style>
    .st1{fill:#333}
  </style>
  <linearGradient id="SVGID_1_" x1="51.93" x2="14.255" y1="26.781" y2="39.952" gradientTransform="matrix(1 0 0 -1 0 67)" gradientUnits="userSpaceOnUse">
    <stop offset="0" stop-color="#620ea0"/>
    <stop offset="1" stop-color="#ce203a"/>
  </linearGradient>
  <path fill="url(#SVGID_1_)" d="M50.7 14.4h-3.6v23.1c0 10.5-8.9 19.4-19.1 19.4-10.6 0-19.2-8.9-19.2-19.4s8.6-19.4 19.1-19.4h1.7v14.2h-1.7c-3 0-5.3 2.6-5.3 5.3 0 2.6 2.3 5.2 5.3 5.2s5.3-2.6 5.3-5.3V1 0h5.3v37.5C38.5 43.4 33.9 48 28 48c-5.6 0-10.5-4.9-10.5-10.5 0-4.9 3.3-9.2 7.9-10.2v-3.6c-6.6 1.4-11.6 7.3-11.6 13.8 0 7.6 6.2 14.2 14.2 14.2S42.1 45 42.1 37.5V10.2v-1h14.2v28.4C56.3 53 43.8 66 28.3 66S.3 53 .3 37.4 12.8 9.1 27.9 9.1h1.7v5.3l-1.7-.1c-12.5 0-22.7 10.5-22.7 23.1s10.2 23.1 22.7 23.1S50.6 50 50.6 37.4l.1-23z"/>
  <g>
    <path d="M93.8 39.3v8.5c-2.3 1.7-6 2.8-9 2.8-6.6 0-11.6-4.8-11.6-11.1s5.2-11 12-11c3.3 0 6.6 1.2 8.9 3.3L91 35.6c-1.6-1.5-3.8-2.3-5.8-2.3-3.6 0-6.3 2.8-6.3 6.5s2.8 6.5 6.3 6.5c1.1 0 2.5-.4 3.8-1v-5.8l4.8-.2zM106.8 44.3h-4.3v6.1H97V28.7h9.7c5.7 0 9 2.8 9 7.6 0 3.3-1.4 5.7-3.9 7l4.6 7.2H110l-3.2-6.2zm-.1-4.4c2.4 0 3.8-1.2 3.8-3.5 0-2.2-1.4-3.4-3.8-3.4h-4.2v7l4.2-.1zM141.4 39.5c0 6.3-5 11.1-11.8 11.1-6.7 0-11.8-4.8-11.8-11.1s5-11 11.8-11 11.8 4.7 11.8 11zm-17.8.1c0 3.6 2.8 6.5 6.2 6.5 3.3 0 6-2.8 6-6.5 0-3.6-2.6-6.5-6-6.5s-6.2 2.8-6.2 6.5zM165.9 39.5c0 6.3-5 11.1-11.8 11.1s-11.8-4.8-11.8-11.1 5-11 11.8-11c6.9 0 11.8 4.7 11.8 11zm-17.7.1c0 3.6 2.8 6.5 6.2 6.5 3.3 0 6-2.8 6-6.5 0-3.6-2.6-6.5-6-6.5-3.5 0-6.2 2.8-6.2 6.5zM174.8 50.4l-8.4-21.7h5.9l5.5 15.9 5.5-15.9h5.7l-8.6 21.7h-5.6z" class="st1"/>
    <path d="M202.4 50.4h-5.5v-6.9l-8-14.8h5.5l5.2 9.5 5.2-9.5h5.5l-7.9 14.7v7z" class="st1"/>
  </g>
</svg>
