<svg version="1.1" id="Layer_1" xmlns="http://www.w3.org/2000/svg" x="0px" y="0px" width="139px" height="43px"
	 viewBox="0 0 139 43" style="enable-background:new 0 0 139 43;" xml:space="preserve">
<style type="text/css">
	.st0{fill:#ffffff;}
	.st1{fill:#ffffff;}
</style>
<g>
	<path class="st0" d="M32.6,9.7c-2.3,0-2.3,0-2.3,0c0,14.8,0,14.8,0,14.8c0,6.8-5.7,12.5-12.2,12.5c-6.8,0-12.2-5.7-12.2-12.5
		S11.3,12,18,12c1.1,0,1.1,0,1.1,0c0,9.1,0,9.1,0,9.1c-1.1,0-1.1,0-1.1,0c-1.9,0-3.4,1.7-3.4,3.4s1.5,3.4,3.4,3.4
		c1.9,0,3.4-1.7,3.4-3.4c0-7.8,0-15.6,0-23.4c0-0.6,0-0.6,0-0.6c3.4,0,3.4,0,3.4,0c0,0.6,0,0.6,0,0.6c0,7.8,0,15.6,0,23.4
		c0,3.8-3,6.8-6.8,6.8c-3.6,0-6.8-3.2-6.8-6.8c0-3.2,2.1-5.9,5.1-6.5c0-2.3,0-2.3,0-2.3C12.1,16.4,9,20.2,9,24.5
		c0,4.9,4,9.1,9.1,9.1s9.1-4.2,9.1-9.1c0-5.9,0-11.6,0-17.5c0-0.6,0-0.6,0-0.6c0.6,0,0.6,0,0.6,0c2.5,0,5.1,0,7.8,0
		c0.6,0,0.6,0,0.6,0c0,18.2,0,18.2,0,18.2c0,9.9-8,18.2-17.9,18.2S0.3,34.4,0.3,24.5S8.3,6.3,18,6.3c1.1,0,1.1,0,1.1,0
		c0,3.4,0,3.4,0,3.4c-1.1,0-1.1,0-1.1,0c-8,0-14.6,6.8-14.6,14.8S10,39.2,18,39.2s14.6-6.8,14.6-14.8V9.7z"/>
</g>
<g>
		<path class="st1" d="M59.3,25.1v5.6c-1.5,1.1-4,1.9-6,1.9c-4.4,0-7.7-3.2-7.7-7.3c0-4.2,3.4-7.3,7.9-7.3c2.1,0,4.4,0.8,5.9,2.1
			l-2.1,2.5c-1-1-2.5-1.6-3.8-1.6c-2.4,0-4.2,1.8-4.2,4.2c0,2.4,1.8,4.3,4.2,4.3c0.7,0,1.7-0.3,2.5-0.7v-3.7H59.3z"/>
		<path class="st1" d="M68,28.4h-0.1h-2.8v4h-3.7V18.1h6.4c3.8,0,6,1.8,6,5c0,2.2-0.9,3.8-2.6,4.6l3,4.7h-4.1L68,28.4z M67.9,25.5
			c1.6,0,2.5-0.8,2.5-2.3c0-1.5-0.9-2.3-2.5-2.3h-2.8v4.6H67.9z"/>
		<path class="st1" d="M90.9,25.2c0,4.2-3.3,7.4-7.8,7.4c-4.4,0-7.8-3.2-7.8-7.4c0-4.2,3.3-7.3,7.8-7.3C87.6,17.9,90.9,21,90.9,25.2
			z M79.1,25.2c0,2.4,1.9,4.3,4.1,4.3c2.2,0,4-1.9,4-4.3s-1.8-4.2-4-4.2S79.1,22.8,79.1,25.2z"/>
		<path class="st1" d="M107.2,25.2c0,4.2-3.3,7.4-7.8,7.4c-4.4,0-7.8-3.2-7.8-7.4c0-4.2,3.3-7.3,7.8-7.3
			C103.9,17.9,107.2,21,107.2,25.2z M95.4,25.2c0,2.4,1.9,4.3,4.1,4.3c2.2,0,4-1.9,4-4.3s-1.8-4.2-4-4.2S95.4,22.8,95.4,25.2z"/>
		<path class="st1" d="M113,32.4l-5.6-14.4h3.9l3.7,10.6l3.7-10.6h3.8l-5.6,14.4H113z"/>
		<path class="st1" d="M131.3,32.4h-3.6v-4.5l-5.3-9.8h3.7l3.5,6.3l3.4-6.3h3.7l-5.2,9.7V32.4z"/>
</g>
</svg>
