<?xml version="1.0" encoding="utf-8"?>
<!-- Generator: Adobe Illustrator 21.0.2, SVG Export Plug-In . SVG Version: 6.00 Build 0)  -->
<svg version="1.1" id="Layer_1" xmlns="http://www.w3.org/2000/svg" xmlns:xlink="http://www.w3.org/1999/xlink" x="0px" y="0px"
	 width="120px" height="120px" viewBox="0 0 120 120" style="enable-background:new 0 0 120 120;" xml:space="preserve">
<style type="text/css">
	.st0{fill:#FADBB7;}
	.st1{fill:#FDB62F;}
	.st2{fill:#FBBD75;}
	.st3{fill:#763A02;}
	.st4{fill:#6CBBC7;}
	.st5{fill:#FF8800;}
	.st6{fill:#F29706;}
</style>
<g id="filled_outline">
	<path class="st0" d="M102.9,54.9h-7.4v-7.4c0-2.1-1.6-3.7-3.7-3.7c-2.1,0-3.7,1.6-3.7,3.7v11.1h-3.7c-2.1,0-3.7,1.6-3.7,3.7
		c0,2.1,1.6,3.7,3.7,3.7h3.7c0,2.1,1.6,3.7,3.7,3.7v18.4c0,2.1-1.6,3.7-3.7,3.7H66.1v11.1h25.8c6.1,0,11.1-4.9,11.1-11.1V69.7
		c2.1,0,3.7-1.6,3.7-3.7v-7.4C106.6,56.6,104.9,54.9,102.9,54.9z"/>
	<path class="st1" d="M56.8,88.1H42.2H27.4h-9.2H7.1v25.8h59v-7.4h11.1V88.1H56.8z"/>
	<path class="st2" d="M49.4,58.6h9.2c2.1,0,3.7,1.6,3.7,3.7c0,2.1-1.6,3.7-3.7,3.7h-9.2V58.6z"/>
	<path class="st2" d="M20,58.6h-9.3c-2.1,0-3.7,1.6-3.7,3.7c0,2.1,1.6,3.7,3.7,3.7h7.4L20,58.6z"/>
	<path class="st3" d="M55,60.5H14.5v-7.4c0-8.1,6.6-14.7,14.7-14.7h12.5c5,0,9.8-2,13.3-5.5C55,32.9,55,60.5,55,60.5z"/>
	<path class="st0" d="M14.5,54.9C27.1,48,42.4,48,55,54.9V66c0,8.3-5.1,15.8-12.9,18.9v6.9c0,4.1-3.3,7.4-7.4,7.4s-7.4-3.3-7.4-7.4
		v-6.9c-7.8-3-12.9-10.5-12.9-18.9L14.5,54.9L14.5,54.9z"/>
	<path class="st4" d="M88.2,27.3v5.5c0,2.1,1.6,3.7,3.7,3.7c2.1,0,3.7-1.6,3.7-3.7v-5.5C95.6,27.3,88.2,27.3,88.2,27.3z"/>
	<path class="st5" d="M40.3,71.6H29.2v1.8c0,3,2.5,5.5,5.5,5.5c3,0,5.5-2.5,5.5-5.5L40.3,71.6L40.3,71.6z"/>
	<path class="st1" d="M101.1,16.3c0-5.1-4.1-9.3-9.2-9.3c-5.1,0-9.3,4.1-9.3,9.2c0,2.6,1.1,5.2,3.2,7c1.5,1.3,2.4,3.4,2.4,5.4V29
		h7.4v-0.6c0-2.2,1-4.2,2.6-5.7C100,21.3,101.1,18.8,101.1,16.3z"/>
	<path class="st6" d="M25.5,113.9h40.6v-7.4h11.1V88.1h-9.9C56,100.3,41.5,109.3,25.5,113.9z"/>
	<path class="st0" d="M14.5,66c0,0.7,0,1.2,0.1,1.9C14.6,67.3,14.5,66.6,14.5,66z"/>
	<path class="st0" d="M55,66c0,0.7,0,1.2-0.1,1.9C55,67.3,55,66.6,55,66z"/>
	<path class="st2" d="M27.4,84.9v2.2c4.8,1.3,9.9,1.3,14.7,0v-2.2C37.3,86.8,32.1,86.8,27.4,84.9z"/>
	<path class="st6" d="M88.2,28.5L88.2,28.5v0.6h7.4v-0.6c0-2.2,1-4.2,2.6-5.7c2.9-2.7,3.8-7.1,2-10.8C98.3,19,94.1,24.9,88.2,28.5z"
		/>
	<path d="M102.9,53.1h-5.5v-5.5c0-3-2.5-5.5-5.5-5.5s-5.5,2.5-5.5,5.5v9.2h-1.8c-3,0-5.5,2.5-5.5,5.5c0,3,2.5,5.5,5.5,5.5h2.2
		c0.6,1.6,1.8,2.8,3.4,3.4v16.9c0,1-0.9,1.8-1.8,1.8h-9.5v-1.8c0-1-0.9-1.8-1.8-1.8H44v-0.2c7.3-3.3,12.2-10.3,12.9-18.2h1.9
		c3,0,5.5-2.5,5.5-5.5c0-3-2.5-5.5-5.5-5.5h-1.8v-24c0-1-0.9-1.8-1.8-1.8c-0.5,0-0.9,0.2-1.3,0.6c-3.2,3.2-7.6,5-12,5H29.2
		c-9.2,0-16.5,7.5-16.5,16.5v3.7h-1.9c-3,0-5.5,2.5-5.5,5.5s2.5,5.5,5.5,5.5h1.9c0.7,7.9,5.6,14.9,12.9,18.2v0.2H7.1
		c-1,0-1.8,0.9-1.8,1.8v25.8c0,1,0.9,1.8,1.8,1.8h59c1,0,1.8-0.9,1.8-1.8v-5.5H77c1,0,1.8-0.9,1.8-1.8v-1.8h12.9
		c7.1,0,12.9-5.8,12.9-12.9V71.2c2.2-0.8,3.7-2.8,3.7-5.2v-7.4C108.4,55.6,106,53.1,102.9,53.1z M58.7,60.5c1,0,1.8,0.9,1.8,1.8
		c0,1-0.9,1.8-1.8,1.8h-1.8v-3.7L58.7,60.5L58.7,60.5z M29.2,40.2h12.5c4.1,0,8.1-1.2,11.5-3.5v15.2c-11.6-5.4-25.1-5.4-36.8,0
		C17,45.3,22.6,40.3,29.2,40.2z M9,62.3c0-1,0.9-1.8,1.8-1.8h1.8v3.7h-1.8C9.7,64.2,9,63.3,9,62.3z M16.4,66v-9.9
		c11.5-6,25.2-6,36.9,0V66c0,7.6-4.6,14.4-11.7,17.1c-0.7,0.3-1.1,0.9-1.1,1.7v6.9c0,3-2.5,5.5-5.5,5.5s-5.5-2.5-5.5-5.5v-6.9
		c0-0.8-0.5-1.4-1.1-1.7C21,80.4,16.3,73.6,16.4,66z M75.2,104.7h-9.2c-1,0-1.8,0.9-1.8,1.8v5.5H9V90h16.5v1.8
		c0,5.1,4.2,9.2,9.2,9.2c5.1,0,9.2-4.2,9.2-9.2V90h31.3L75.2,104.7L75.2,104.7z M104.7,66c0,1-0.9,1.8-1.8,1.8c-1,0-1.8,0.9-1.8,1.8
		v22.1c0,5.1-4.2,9.2-9.2,9.2h-13v-7.4h9.2c3,0,5.5-2.5,5.5-5.5V69.7c0-1-0.9-1.8-1.8-1.8c-1,0-1.8-0.9-1.8-1.8c0-1-0.9-1.8-1.8-1.8
		h-3.7c-1,0-1.8-0.9-1.8-1.8c0-1,0.9-1.8,1.8-1.8h3.7c1,0,1.8-0.9,1.8-1.8V47.5c0-1,0.9-1.8,1.8-1.8s1.8,0.9,1.8,1.8v7.4
		c0,1,0.9,1.8,1.8,1.8h7.4c1,0,1.8,0.9,1.8,1.8V66H104.7z"/>
	<path d="M84.6,24.7c1,0.9,1.7,2.4,1.7,4.1v4.2c0,3,2.5,5.5,5.5,5.5s5.5-2.5,5.5-5.5v-4.3c0-1.5,0.8-3,2.1-4.3
		c4.4-4.2,4.6-11.2,0.5-15.6S88.8,4.1,84.3,8.2c-4.4,4.2-4.7,11.2-0.6,15.6C84,24.1,84.3,24.4,84.6,24.7L84.6,24.7z M93.7,32.9
		c0,1-0.9,1.8-1.8,1.8s-1.8-0.9-1.8-1.8v-1.8h3.7L93.7,32.9L93.7,32.9z M84.6,14.9c0.8-4,4.5-6.6,8.6-6c3.5,0.7,6,3.7,6,7.3
		c0,2-0.9,4-2.4,5.4c-1.7,1.6-2.8,3.6-3.1,5.7h-3.9c-0.3-2.1-1.3-4.1-2.8-5.5C85.1,20.1,84.1,17.5,84.6,14.9z"/>
	<path d="M106.6,16.3h9.2v3.7h-9.2V16.3z"/>
	<path d="M67.9,16.3H77v3.7h-9.2V16.3z"/>
	<path d="M104.5,10.2l8.3-3.9l1.5,3.3l-8.3,3.9L104.5,10.2z"/>
	<path d="M69.4,26.6l8.3-3.9l1.5,3.3l-8.3,3.9L69.4,26.6z"/>
	<path d="M104.5,26.1l1.5-3.3l8.3,3.9l-1.5,3.3L104.5,26.1z"/>
	<path d="M69.4,9.6l1.5-3.3l8.3,3.9l-1.5,3.3L69.4,9.6z"/>
	<path d="M42.2,64.2c0-1,0.9-1.8,1.8-1.8c1,0,1.8,0.9,1.8,1.8V66h3.7v-1.8c0-3-2.5-5.5-5.5-5.5c-3,0-5.5,2.5-5.5,5.5V66h3.7
		C42.2,66,42.2,64.2,42.2,64.2z"/>
	<path d="M27.4,66h3.7v-1.8c0-3-2.5-5.5-5.5-5.5s-5.5,2.5-5.5,5.5V66h3.7v-1.8c0-1,0.9-1.8,1.8-1.8c0.9,0,1.8,0.9,1.8,1.8
		C27.4,64.2,27.4,66,27.4,66z"/>
	<path d="M34.8,80.7c4.1,0,7.4-3.3,7.4-7.4v-1.8c0-1-0.9-1.8-1.8-1.8H29.2c-1,0-1.8,0.9-1.8,1.8v1.8C27.4,77.4,30.7,80.7,34.8,80.7z
		 M38.5,73.4c0,2.1-1.6,3.7-3.7,3.7s-3.7-1.6-3.7-3.7H38.5z"/>
</g>
</svg>
