<?xml version="1.0" encoding="utf-8"?>
<!-- Generator: Adobe Illustrator 21.0.2, SVG Export Plug-In . SVG Version: 6.00 Build 0)  -->
<svg version="1.1" id="Layer_1" xmlns="http://www.w3.org/2000/svg" xmlns:xlink="http://www.w3.org/1999/xlink" x="0px" y="0px"
	 width="120px" height="120px" viewBox="0 0 120 120" style="enable-background:new 0 0 120 120;" xml:space="preserve">
<style type="text/css">
	.st0{fill:#A7D6DD;}
	.st1{fill:#6CBBC7;}
	.st2{fill:#E6E6E6;}
</style>
<g id="Filled_Outline">
	<path class="st0" d="M18.7,17.8h83.6c4,0,7.3,3.3,7.3,7.3v69l0,0H11.4l0,0v-69C11.4,21.1,14.7,17.8,18.7,17.8z"/>
	<path class="st1" d="M7.8,94.1h105.4c0,4-3.3,7.3-7.3,7.3H15.1C11.1,101.4,7.8,98.1,7.8,94.1z"/>
	<rect x="18.7" y="28.7" class="st2" width="83.6" height="58.1"/>
	<path d="M111.4,25.1c0-5-4.1-9.1-9.1-9.1H18.7c-5,0-9.1,4.1-9.1,9.1v67.2H6v1.8c0,5,4.1,9.1,9.1,9.1h90.8c5,0,9.1-4.1,9.1-9.1v-1.8
		h-3.6V25.1z M13.3,25.1c0-3,2.4-5.5,5.5-5.5h83.6c3,0,5.4,2.4,5.4,5.5v67.2H13.3V25.1z M105.9,99.6H15.1c-2.3,0-4.4-1.5-5.1-3.6
		h101.1C110.3,98.1,108.2,99.6,105.9,99.6z"/>
	<path d="M16.9,88.7h87.2V26.9H16.9V88.7z M20.5,30.5h79.9V85H20.5V30.5z"/>
	<path d="M60.5,25.1c1,0,1.8-0.8,1.8-1.8c0,0,0,0,0,0c0-0.2-0.1-0.5-0.1-0.7c-0.1-0.2-0.2-0.4-0.4-0.6c-0.7-0.7-1.9-0.7-2.6,0
		c-0.2,0.2-0.3,0.4-0.4,0.6c-0.1,0.2-0.1,0.5-0.1,0.7c0,0.5,0.2,0.9,0.5,1.3C59.6,24.9,60,25.1,60.5,25.1z"/>
	<polygon points="32,34.7 25.2,41.4 32,48.2 34.5,45.6 30.4,41.4 34.5,37.3 	"/>
	<polygon points="49.1,48.2 55.8,41.4 49.1,34.7 46.5,37.3 50.7,41.4 46.5,45.6 	"/>
	<polygon points="32,67.4 25.2,74.1 32,80.9 34.5,78.3 30.4,74.1 34.5,70 	"/>
	<polygon points="46.5,70 50.7,74.1 46.5,78.3 49.1,80.9 55.8,74.1 49.1,67.4 	"/>
	<rect x="36.9" y="39.6" width="7.3" height="3.6"/>
	<rect x="34.8" y="72.3" transform="matrix(0.3165 -0.9486 0.9486 0.3165 -42.6281 89.1007)" width="11.5" height="3.6"/>
	<rect x="40.5" y="52.3" width="7.3" height="3.6"/>
	<rect x="51.4" y="52.3" width="41.8" height="3.6"/>
	<rect x="40.5" y="59.6" width="7.3" height="3.6"/>
	<rect x="51.4" y="59.6" width="41.8" height="3.6"/>
</g>
</svg>
