<?xml version="1.0" encoding="utf-8"?>
<!-- Generator: Adobe Illustrator 21.0.2, SVG Export Plug-In . SVG Version: 6.00 Build 0)  -->
<svg version="1.1" id="Capa_1" xmlns="http://www.w3.org/2000/svg" xmlns:xlink="http://www.w3.org/1999/xlink" x="0px" y="0px"
	 width="19px" height="19px" viewBox="0 0 19 19" style="enable-background:new 0 0 19 19;" xml:space="preserve">
<style type="text/css">
	.st0{fill:#F2F2F2;}
	.st1{fill:#F2705B;}
	.st2{fill:#CDD5DF;}
	.st3{fill:#F05540;}
</style>
<g>
	<path class="st0" d="M9.5,15c-0.6,0-1.2-0.1-1.8-0.3l-1.9,2.6c1.1,0.5,2.4,0.8,3.7,0.8s2.6-0.3,3.7-0.8l-1.9-2.6
		C10.7,14.9,10.1,15,9.5,15z"/>
	<path class="st0" d="M15,9.5c0,0.6-0.1,1.2-0.3,1.8l2.6,1.9c0.5-1.1,0.8-2.4,0.8-3.7c0-1.3-0.3-2.6-0.8-3.7l-2.6,1.9
		C14.9,8.3,15,8.9,15,9.5z"/>
	<path class="st0" d="M4,9.5c0-0.6,0.1-1.2,0.3-1.8L1.7,5.8C1.1,6.9,0.8,8.2,0.8,9.5s0.3,2.6,0.8,3.7l2.6-1.9C4.1,10.7,4,10.1,4,9.5
		z"/>
	<path class="st0" d="M9.5,4c0.6,0,1.2,0.1,1.8,0.3l1.9-2.6c-1.1-0.5-2.4-0.8-3.7-0.8c-1.3,0-2.6,0.3-3.7,0.8l1.9,2.6
		C8.3,4.1,8.9,4,9.5,4z"/>
</g>
<g>
	<path class="st1" d="M14.7,7.7l2.6-1.9C16.5,4,15,2.5,13.2,1.7l-1.9,2.6C12.9,4.9,14.1,6.1,14.7,7.7z"/>
	<path class="st1" d="M4.3,11.3l-2.6,1.9C2.5,15,4,16.5,5.8,17.3l1.9-2.6C6.1,14.1,4.9,12.9,4.3,11.3z"/>
	<path class="st1" d="M14.7,11.3c-0.5,1.6-1.8,2.8-3.4,3.4l1.9,2.6c1.8-0.9,3.2-2.3,4.1-4.1L14.7,11.3z"/>
	<path class="st1" d="M7.7,4.3L5.8,1.7C4,2.5,2.5,4,1.7,5.8l2.6,1.9C4.9,6.1,6.1,4.9,7.7,4.3z"/>
</g>
<g>
	<path class="st2" d="M1,5.3C0.4,6.5,0,8,0,9.5s0.4,3,1,4.2l0.7-0.5c-0.5-1.1-0.8-2.4-0.8-3.7c0-1.3,0.3-2.6,0.8-3.7L1,5.3z"/>
	<path class="st2" d="M9.5,18.2c-1.3,0-2.6-0.3-3.7-0.8L5.3,18c1.3,0.6,2.7,1,4.2,1c1.5,0,3-0.4,4.2-1l-0.5-0.7
		C12.1,17.9,10.8,18.2,9.5,18.2z"/>
	<path class="st2" d="M5.3,1l0.5,0.7c1.1-0.5,2.4-0.8,3.7-0.8s2.6,0.3,3.7,0.8L13.7,1C12.5,0.4,11,0,9.5,0S6.5,0.4,5.3,1z"/>
	<path class="st2" d="M18,5.3l-0.7,0.5c0.5,1.1,0.8,2.4,0.8,3.7c0,1.3-0.3,2.6-0.8,3.7l0.7,0.5c0.6-1.3,1-2.7,1-4.2S18.6,6.5,18,5.3
		z"/>
	<path class="st2" d="M9.5,4C8.9,4,8.3,4.1,7.7,4.3L8.2,5c0.4-0.1,0.8-0.2,1.3-0.2c0.4,0,0.9,0.1,1.3,0.2l0.5-0.7
		C10.7,4.1,10.1,4,9.5,4z"/>
	<path class="st2" d="M4.3,7.7C4.1,8.3,4,8.9,4,9.5c0,0.6,0.1,1.2,0.3,1.8L5,10.8c-0.1-0.4-0.2-0.8-0.2-1.3c0-0.4,0.1-0.9,0.2-1.3
		L4.3,7.7z"/>
	<path class="st2" d="M9.5,14.1c-0.4,0-0.9-0.1-1.3-0.2l-0.5,0.7C8.3,14.9,8.9,15,9.5,15c0.6,0,1.2-0.1,1.8-0.3L10.8,14
		C10.4,14.1,9.9,14.1,9.5,14.1z"/>
	<path class="st2" d="M14,8.2c0.1,0.4,0.2,0.8,0.2,1.3c0,0.4-0.1,0.9-0.2,1.3l0.7,0.5c0.2-0.6,0.3-1.2,0.3-1.8s-0.1-1.2-0.3-1.8
		L14,8.2z"/>
</g>
<g>
	<path class="st3" d="M17.3,5.8L18,5.3c-0.9-1.8-2.4-3.3-4.3-4.3l-0.5,0.7C15,2.5,16.5,4,17.3,5.8z"/>
	<path class="st3" d="M1.7,13.2L1,13.7c0.9,1.8,2.4,3.3,4.3,4.3l0.5-0.7C4,16.5,2.5,15,1.7,13.2z"/>
	<path class="st3" d="M13.2,17.3l0.5,0.7c1.8-0.9,3.3-2.4,4.3-4.3l-0.7-0.5C16.5,15,15,16.5,13.2,17.3z"/>
	<path class="st3" d="M5.8,1.7L5.3,1C3.4,1.9,1.9,3.4,1,5.3l0.7,0.5C2.5,4,4,2.5,5.8,1.7z"/>
	<path class="st3" d="M14,8.2l0.7-0.5c-0.5-1.6-1.8-2.8-3.4-3.4L10.8,5C12.3,5.5,13.5,6.7,14,8.2z"/>
	<path class="st3" d="M5,10.8l-0.7,0.5c0.5,1.6,1.8,2.8,3.4,3.4L8.2,14C6.7,13.5,5.5,12.3,5,10.8z"/>
	<path class="st3" d="M14.7,11.3L14,10.8c-0.4,1.5-1.7,2.8-3.2,3.2l0.5,0.7C12.9,14.1,14.1,12.9,14.7,11.3z"/>
	<path class="st3" d="M4.3,7.7L5,8.3C5.5,6.7,6.7,5.5,8.2,5L7.7,4.3C6.1,4.9,4.9,6.1,4.3,7.7z"/>
</g>
</svg>
