<?xml version="1.0" encoding="utf-8"?>
<!-- Generator: Adobe Illustrator 21.0.2, SVG Export Plug-In . SVG Version: 6.00 Build 0)  -->
<svg version="1.1" id="Layer_1" xmlns="http://www.w3.org/2000/svg" xmlns:xlink="http://www.w3.org/1999/xlink" x="0px" y="0px"
	 width="120px" height="120px" viewBox="0 0 120 120" style="enable-background:new 0 0 120 120;" xml:space="preserve">
<style type="text/css">
	.st0{fill:#FF8800;}
	.st1{fill:#B3B3B3;}
	.st2{fill:#FDB62F;}
</style>
<circle class="st0" cx="101.2" cy="101.7" r="5.6"/>
<path class="st1" d="M93.8,66.5V55.4h-8c-0.7-3-1.8-5.8-3.5-8.4l5.7-5.7l-7.9-7.9l-5.7,5.7c-2.6-1.7-5.4-2.8-8.4-3.5v-8H54.9v8
	c-3,0.7-5.8,1.8-8.4,3.5l-5.7-5.7l-7.9,7.9l5.7,5.7c-1.7,2.6-2.8,5.4-3.5,8.4h-8v11.1h8c0.7,3,1.8,5.8,3.5,8.4l-5.7,5.7l7.9,7.9
	l5.7-5.7c2.6,1.7,5.4,2.8,8.4,3.5v8H66v-8c3-0.7,5.8-1.8,8.4-3.5l5.7,5.7l7.9-7.9l-5.7-5.7c1.7-2.6,2.8-5.4,3.5-8.4H93.8z
	 M60.4,77.6c-9.2,0-16.7-7.5-16.7-16.7s7.5-16.7,16.7-16.7s16.7,7.5,16.7,16.7S69.6,77.6,60.4,77.6z"/>
<path class="st2" d="M19.7,33.1c3.5,0,6.8-1.4,9.3-3.9c-7.1-4.1-9.5-13.1-5.5-20.1c0.2-0.4,0.4-0.7,0.7-1.1
	C17.5,5.5,10,8.9,7.5,15.6c-0.4,1-0.6,2.1-0.8,3.2c0,0.4-0.1,0.9-0.1,1.3s0,0.9,0.1,1.3C7.4,28.1,13,33.1,19.7,33.1z"/>
<path d="M93.8,101.7c0,4.1,3.3,7.4,7.4,7.4c4.1,0,7.4-3.3,7.4-7.4s-3.3-7.4-7.4-7.4C97.1,94.3,93.8,97.6,93.8,101.7z M101.2,98
	c2,0,3.7,1.7,3.7,3.7c0,2-1.7,3.7-3.7,3.7c-2,0-3.7-1.7-3.7-3.7C97.5,99.7,99.2,98,101.2,98z"/>
<rect x="99.4" y="86.9" width="3.7" height="3.7"/>
<rect x="99.4" y="112.8" width="3.7" height="3.7"/>
<rect x="90.2" y="90.7" transform="matrix(0.7071 -0.7071 0.7071 0.7071 -38.4793 92.1847)" width="3.7" height="3.7"/>
<rect x="108.5" y="109" transform="matrix(0.7071 -0.7071 0.7071 0.7071 -46.0808 110.5355)" width="3.7" height="3.7"/>
<rect x="86.4" y="99.9" width="3.7" height="3.7"/>
<rect x="112.3" y="99.9" width="3.7" height="3.7"/>
<rect x="90.2" y="109" transform="matrix(0.7071 -0.7071 0.7071 0.7071 -51.4559 97.5603)" width="3.7" height="3.7"/>
<rect x="108.5" y="90.7" transform="matrix(0.7071 -0.7071 0.7071 0.7071 -33.1043 105.1599)" width="3.7" height="3.7"/>
<path d="M41.9,60.9c0,10.2,8.3,18.5,18.5,18.5S79,71.2,79,60.9s-8.3-18.5-18.5-18.5C50.2,42.4,41.9,50.7,41.9,60.9z M75.3,60.9
	c0,8.2-6.6,14.8-14.8,14.8s-14.8-6.6-14.8-14.8s6.6-14.8,14.8-14.8C68.6,46.1,75.3,52.8,75.3,60.9z"/>
<path d="M66,25.7H54.9c-1,0-1.9,0.8-1.9,1.9v6.6c-2.2,0.6-4.3,1.5-6.3,2.6l-4.7-4.7c-0.7-0.7-1.9-0.7-2.6,0L31.6,40
	c-0.7,0.7-0.7,1.9,0,2.6l4.7,4.7c-1.1,2-2,4.1-2.6,6.3h-6.6c-1,0-1.9,0.8-1.9,1.9v11.1c0,1,0.8,1.9,1.9,1.9h6.6
	c0.6,2.2,1.5,4.3,2.6,6.3l-4.7,4.7c-0.7,0.7-0.7,1.9,0,2.6l7.9,7.9c0.7,0.7,1.9,0.7,2.6,0l4.7-4.7c2,1.1,4.1,2,6.3,2.6v6.6
	c0,1,0.8,1.9,1.9,1.9H66c1,0,1.9-0.8,1.9-1.9v-6.6c2.2-0.6,4.3-1.5,6.3-2.6l4.7,4.7c0.7,0.7,1.9,0.7,2.6,0l7.9-7.9
	c0.7-0.7,0.7-1.9,0-2.6l-4.7-4.7c1.1-2,2-4.1,2.6-6.3h6.6c1,0,1.9-0.8,1.9-1.9V55.4c0-1-0.8-1.9-1.9-1.9h-6.6
	c-0.6-2.2-1.5-4.3-2.6-6.3l4.7-4.7c0.7-0.7,0.7-1.9,0-2.6l-7.9-7.9c-0.7-0.7-1.9-0.7-2.6,0l-4.7,4.7c-2-1.1-4.1-2-6.3-2.6v-6.6
	C67.8,26.5,67,25.7,66,25.7z M73.4,40.7c0.7,0.5,1.7,0.4,2.3-0.3l4.4-4.4l5.2,5.2L81,45.6c-0.6,0.6-0.7,1.6-0.3,2.3
	c1.5,2.4,2.6,5,3.2,7.8c0.2,0.9,0.9,1.5,1.8,1.5h6.2v7.4h-6.2c-0.9,0-1.6,0.6-1.8,1.5c-0.6,2.8-1.7,5.4-3.2,7.8
	c-0.5,0.7-0.4,1.7,0.3,2.3l4.4,4.4l-5.2,5.2l-4.4-4.4c-0.6-0.6-1.6-0.7-2.3-0.3c-2.4,1.5-5,2.6-7.8,3.2c-0.9,0.2-1.5,0.9-1.5,1.8
	v6.2h-7.4v-6.2c0-0.9-0.6-1.6-1.5-1.8c-2.8-0.6-5.4-1.7-7.8-3.2c-0.7-0.5-1.7-0.4-2.3,0.3l-4.4,4.4l-5.2-5.2l4.4-4.4
	c0.6-0.6,0.7-1.6,0.3-2.3c-1.5-2.4-2.6-5-3.2-7.8c-0.2-0.9-0.9-1.5-1.8-1.5h-6.2v-7.4h6.2c0.9,0,1.6-0.6,1.8-1.5
	c0.6-2.8,1.7-5.4,3.2-7.8c0.5-0.7,0.4-1.7-0.3-2.3l-4.4-4.4l5.2-5.2l4.4,4.4c0.6,0.6,1.6,0.7,2.3,0.3c2.4-1.5,5-2.6,7.8-3.2
	c0.9-0.2,1.5-0.9,1.5-1.8v-6.2h7.4v6.2c0,0.9,0.6,1.6,1.5,1.8C68.4,38,71,39.1,73.4,40.7z"/>
<path d="M19.7,35c4,0,7.8-1.6,10.6-4.4l1.7-1.7l-2.1-1.2c-6.2-3.5-8.3-11.4-4.8-17.6c0.2-0.3,0.4-0.7,0.6-1l1.4-2l-2.2-0.8
	c-7.7-2.9-16.2,1-19,8.7c-0.4,1.2-0.7,2.5-0.9,3.7c0,0.5-0.1,1-0.1,1.5s0,1,0.1,1.5C5.7,29.2,12,35,19.7,35z M8.6,19
	c0.6-5.7,5.4-10,11.1-10c0.6,0,1.1,0,1.7,0.1c-3.4,7-1.5,15.4,4.5,20.2c-5.1,3.4-12,2.1-15.4-3c-1-1.5-1.6-3.2-1.8-5.1
	c0-0.4-0.1-0.8-0.1-1.2S8.6,19.4,8.6,19z"/>
<path d="M112.3,60.9C112.3,32.3,89.1,9,60.4,9c-8.7,0-17.3,2.2-25,6.4l1.8,3.2c23.3-12.8,52.7-4.3,65.5,19.1
	c5.4,9.8,7.2,21.2,5.1,32.2l-2.8-5.3l-1.5,5.1l4.2,7.8l7.8-4.2l1.5-5.1l-5.7,3.1C112,67.9,112.3,64.4,112.3,60.9z"/>
<path d="M8.5,60.9c0,28.7,23.3,51.9,52,51.9c5.9,0,11.7-1,17.2-3l-1.2-3.5c-25.1,8.9-52.7-4.3-61.5-29.5c-1.8-5.1-2.7-10.5-2.7-16
	c0-3,0.3-6,0.8-9l2.8,5.3l1.5-5.1l-4.2-7.8l-7.8,4.2l-1.5,5.1l5.7-3.1C8.9,53.9,8.5,57.4,8.5,60.9z"/>
</svg>
