<?xml version="1.0" encoding="utf-8"?>
<!-- Generator: Adobe Illustrator 21.0.2, SVG Export Plug-In . SVG Version: 6.00 Build 0)  -->
<svg version="1.1" id="Layer_1" xmlns="http://www.w3.org/2000/svg" xmlns:xlink="http://www.w3.org/1999/xlink" x="0px" y="0px"
	 width="24px" height="17px" viewBox="0 0 24 17" style="enable-background:new 0 0 24 17;" xml:space="preserve">
<style type="text/css">
	.st0{fill:#F44336;}
	.st1{fill:#FAFAFA;}
</style>
<g>
	<path class="st0" d="M23,1.9c-0.7-1.2-1.4-1.4-2.8-1.5c-1.4-0.1-5.1-0.1-8.2-0.1c-3.1,0-6.8,0-8.2,0.1C2.4,0.5,1.7,0.7,1,1.9
		C0.3,3.1,0,5.1,0,8.6c0,0,0,0,0,0c0,0,0,0,0,0v0c0,3.5,0.3,5.5,1,6.6c0.7,1.2,1.4,1.4,2.8,1.5c1.4,0.1,5.1,0.1,8.2,0.1
		c3.1,0,6.7,0,8.2-0.1c1.4-0.1,2.1-0.3,2.8-1.5c0.7-1.1,1-3.2,1-6.6c0,0,0,0,0,0c0,0,0,0,0,0C24,5.1,23.7,3.1,23,1.9z"/>
	<polygon class="st1" points="9,13.1 9,4.1 16.5,8.6 	"/>
</g>
</svg>
