<svg width="15" height="14" viewBox="0 0 15 14" fill="none" xmlns="http://www.w3.org/2000/svg">
<path fill-rule="evenodd" clip-rule="evenodd" d="M0.833252 6.99998C0.833252 3.31998 3.81992 0.333313 7.49992 0.333313C11.1799 0.333313 14.1666 3.31998 14.1666 6.99998C14.1666 10.68 11.1799 13.6666 7.49992 13.6666C3.81992 13.6666 0.833252 10.68 0.833252 6.99998ZM8.16659 9.66665V11H6.83325V9.66665H8.16659ZM7.49992 12.3333C4.55992 12.3333 2.16659 9.93998 2.16659 6.99998C2.16659 4.05998 4.55992 1.66665 7.49992 1.66665C10.4399 1.66665 12.8333 4.05998 12.8333 6.99998C12.8333 9.93998 10.4399 12.3333 7.49992 12.3333ZM4.83325 5.66665C4.83325 4.19331 6.02659 2.99998 7.49992 2.99998C8.97325 2.99998 10.1666 4.19331 10.1666 5.66665C10.1666 6.52192 9.6399 6.98219 9.12709 7.43034C8.6406 7.85549 8.16659 8.26973 8.16659 8.99998H6.83325C6.83325 7.7858 7.46133 7.30437 8.01355 6.8811C8.44674 6.54905 8.83325 6.25279 8.83325 5.66665C8.83325 4.93331 8.23325 4.33331 7.49992 4.33331C6.76659 4.33331 6.16659 4.93331 6.16659 5.66665H4.83325Z" fill="#0E2121" fill-opacity="0.6"/>
</svg>
