<svg width="16" height="16" viewBox="0 0 16 16" fill="none" xmlns="http://www.w3.org/2000/svg">
<path d="M15.1667 4V14.6667C15.1667 14.7993 15.114 14.9265 15.0202 15.0202C14.9265 15.114 14.7993 15.1667 14.6667 15.1667H4C3.86739 15.1667 3.74021 15.114 3.64645 15.0202C3.55268 14.9265 3.5 14.7993 3.5 14.6667V4C3.5 3.86739 3.55268 3.74021 3.64645 3.64645C3.74021 3.55268 3.86739 3.5 4 3.5H14.6667C14.7993 3.5 14.9265 3.55268 15.0202 3.64645C15.114 3.74021 15.1667 3.86739 15.1667 4V4Z" stroke="#0E2121" stroke-linecap="round" stroke-linejoin="round"/>
<path d="M12.6667 1H1.5C1.36739 1 1.24021 1.05268 1.14645 1.14645C1.05268 1.24021 1 1.36739 1 1.5V12.6667M8.42417 7.2875C8.34826 7.24189 8.2616 7.21727 8.17305 7.21614C8.0845 7.21501 7.99724 7.23741 7.9202 7.28106C7.84315 7.32472 7.77908 7.38805 7.73453 7.46458C7.68999 7.54112 7.66657 7.62811 7.66667 7.71667V10.95C7.66657 11.0386 7.68999 11.1255 7.73453 11.2021C7.77908 11.2786 7.84315 11.342 7.9202 11.3856C7.99724 11.4293 8.0845 11.4517 8.17305 11.4505C8.2616 11.4494 8.34826 11.4248 8.42417 11.3792L11.1183 9.7625C11.1926 9.71813 11.254 9.65526 11.2967 9.58004C11.3394 9.50482 11.3618 9.41982 11.3618 9.33333C11.3618 9.24685 11.3394 9.16185 11.2967 9.08663C11.254 9.01141 11.1926 8.94854 11.1183 8.90417L8.42417 7.2875Z" stroke="#0E2121" stroke-linecap="round" stroke-linejoin="round"/>
</svg>
