<svg width="18" height="17" viewBox="0 0 18 17" fill="none" xmlns="http://www.w3.org/2000/svg">
<path d="M7.1875 16.875C6.93886 16.875 6.7004 16.7762 6.52459 16.6004C6.34877 16.4246 6.25 16.1861 6.25 15.9375C6.25 15.6889 6.34877 15.4504 6.52459 15.2746C6.7004 15.0988 6.93886 15 7.1875 15C7.43614 15 7.6746 15.0988 7.85041 15.2746C8.02623 15.4504 8.125 15.6889 8.125 15.9375C8.125 16.1861 8.02623 16.4246 7.85041 16.6004C7.6746 16.7762 7.43614 16.875 7.1875 16.875ZM13.4375 16.875C13.1889 16.875 12.9504 16.7762 12.7746 16.6004C12.5988 16.4246 12.5 16.1861 12.5 15.9375C12.5 15.6889 12.5988 15.4504 12.7746 15.2746C12.9504 15.0988 13.1889 15 13.4375 15C13.6861 15 13.9246 15.0988 14.1004 15.2746C14.2762 15.4504 14.375 15.6889 14.375 15.9375C14.375 16.1861 14.2762 16.4246 14.1004 16.6004C13.9246 16.7762 13.6861 16.875 13.4375 16.875ZM0.625 1.25C0.45924 1.25 0.300268 1.18415 0.183058 1.06694C0.065848 0.949732 0 0.79076 0 0.625C0 0.45924 0.065848 0.300268 0.183058 0.183058C0.300268 0.065848 0.45924 0 0.625 0H3.75C3.89443 8.72276e-05 4.03438 0.0501951 4.14604 0.141804C4.2577 0.233413 4.33419 0.360869 4.3625 0.5025L5.0125 3.75H16.875C16.9682 3.74997 17.0603 3.7708 17.1444 3.81097C17.2286 3.85113 17.3027 3.90961 17.3613 3.98212C17.4199 4.05463 17.4615 4.13933 17.4831 4.23002C17.5048 4.32072 17.5058 4.4151 17.4862 4.50625L15.6112 13.2562C15.5812 13.3961 15.5042 13.5213 15.3929 13.6112C15.2817 13.701 15.143 13.75 15 13.75H6.25C6.10557 13.7499 5.96562 13.6998 5.85396 13.6082C5.7423 13.5166 5.66581 13.3891 5.6375 13.2475L3.2375 1.25H0.625ZM6.7625 12.5H14.495L16.1025 5H5.2625L6.7625 12.5Z" fill="black"/>
</svg>
