<svg width="16" height="18" viewBox="0 0 16 18" fill="none" xmlns="http://www.w3.org/2000/svg">
<path d="M1.33337 16.8333V1.16663C1.33337 1.03402 1.38605 0.906841 1.47982 0.813073C1.57359 0.719304 1.70077 0.666626 1.83337 0.666626H11.5434C11.6759 0.666743 11.803 0.719498 11.8967 0.813293L14.52 3.43663C14.5667 3.48321 14.6037 3.53856 14.6288 3.59948C14.654 3.66041 14.6669 3.72571 14.6667 3.79163V16.8333C14.6667 16.899 14.6538 16.964 14.6286 17.0246C14.6035 17.0853 14.5667 17.1404 14.5203 17.1868C14.4738 17.2333 14.4187 17.2701 14.358 17.2952C14.2974 17.3204 14.2324 17.3333 14.1667 17.3333H1.83337C1.76771 17.3333 1.7027 17.3204 1.64203 17.2952C1.58137 17.2701 1.52625 17.2333 1.47982 17.1868C1.43339 17.1404 1.39656 17.0853 1.37143 17.0246C1.34631 16.964 1.33337 16.899 1.33337 16.8333V16.8333Z" stroke="#0E2121" stroke-linecap="round" stroke-linejoin="round"/>
<path d="M11.3334 3.49992V0.961589C11.3335 0.90332 11.3508 0.846387 11.3833 0.797971C11.4157 0.749555 11.4617 0.711825 11.5156 0.68954C11.5694 0.667256 11.6286 0.661415 11.6858 0.672754C11.7429 0.684093 11.7955 0.712105 11.8367 0.753256L14.58 3.49659C14.6216 3.53769 14.65 3.59023 14.6615 3.64752C14.6731 3.70482 14.6674 3.76426 14.645 3.81826C14.6227 3.87227 14.5847 3.91839 14.536 3.95074C14.4874 3.9831 14.4302 4.00022 14.3717 3.99992H11.8334C11.7008 3.99992 11.5736 3.94724 11.4798 3.85348C11.3861 3.75971 11.3334 3.63253 11.3334 3.49992V3.49992Z" stroke="#0E2121" stroke-linecap="round" stroke-linejoin="round"/>
<path d="M4.66675 10.6666H8.00008M4.66675 7.33325H11.3334H4.66675ZM4.66675 13.9999H11.3334H4.66675Z" stroke="#0E2121" stroke-linecap="round" stroke-linejoin="round"/>
</svg>
