<svg width="14" height="14" viewBox="0 0 14 14" fill="none" xmlns="http://www.w3.org/2000/svg">
<circle cx="7" cy="7" r="7" fill="#2B66D1"/>
<path d="M6.99998 4.84616C7.55225 4.84616 7.99996 4.43288 7.99996 3.92308C7.99996 3.41328 7.55225 3 6.99998 3C6.44771 3 6 3.41328 6 3.92308C6 4.43288 6.44771 4.84616 6.99998 4.84616Z" fill="white"/>
<path d="M8 6.3846C8 5.87479 7.55229 5.46152 7.00002 5.46152C6.44775 5.46152 6.00004 5.87479 6.00004 6.3846L6.00004 10.0769C6.00004 10.5867 6.44775 11 7.00002 11C7.55229 11 8 10.5867 8 10.0769L8 6.3846Z" fill="white"/>
</svg>
