<svg width="9" height="14" viewBox="0 0 9 14" fill="none" xmlns="http://www.w3.org/2000/svg">
<path d="M1.66667 13.6673C1.20833 13.6673 0.816111 13.5043 0.49 13.1782C0.163333 12.8515 0 12.459 0 12.0007C0 11.5423 0.163333 11.1498 0.49 10.8232C0.816111 10.497 1.20833 10.334 1.66667 10.334C2.125 10.334 2.5175 10.497 2.84417 10.8232C3.17028 11.1498 3.33333 11.5423 3.33333 12.0007C3.33333 12.459 3.17028 12.8515 2.84417 13.1782C2.5175 13.5043 2.125 13.6673 1.66667 13.6673ZM6.66667 13.6673C6.20833 13.6673 5.81611 13.5043 5.49 13.1782C5.16333 12.8515 5 12.459 5 12.0007C5 11.5423 5.16333 11.1498 5.49 10.8232C5.81611 10.497 6.20833 10.334 6.66667 10.334C7.125 10.334 7.5175 10.497 7.84417 10.8232C8.17028 11.1498 8.33333 11.5423 8.33333 12.0007C8.33333 12.459 8.17028 12.8515 7.84417 13.1782C7.5175 13.5043 7.125 13.6673 6.66667 13.6673ZM1.66667 8.66732C1.20833 8.66732 0.816111 8.50398 0.49 8.17732C0.163333 7.85121 0 7.45898 0 7.00065C0 6.54232 0.163333 6.14982 0.49 5.82315C0.816111 5.49704 1.20833 5.33398 1.66667 5.33398C2.125 5.33398 2.5175 5.49704 2.84417 5.82315C3.17028 6.14982 3.33333 6.54232 3.33333 7.00065C3.33333 7.45898 3.17028 7.85121 2.84417 8.17732C2.5175 8.50398 2.125 8.66732 1.66667 8.66732ZM6.66667 8.66732C6.20833 8.66732 5.81611 8.50398 5.49 8.17732C5.16333 7.85121 5 7.45898 5 7.00065C5 6.54232 5.16333 6.14982 5.49 5.82315C5.81611 5.49704 6.20833 5.33398 6.66667 5.33398C7.125 5.33398 7.5175 5.49704 7.84417 5.82315C8.17028 6.14982 8.33333 6.54232 8.33333 7.00065C8.33333 7.45898 8.17028 7.85121 7.84417 8.17732C7.5175 8.50398 7.125 8.66732 6.66667 8.66732ZM1.66667 3.66732C1.20833 3.66732 0.816111 3.50398 0.49 3.17732C0.163333 2.85121 0 2.45898 0 2.00065C0 1.54232 0.163333 1.1501 0.49 0.823984C0.816111 0.497318 1.20833 0.333984 1.66667 0.333984C2.125 0.333984 2.5175 0.497318 2.84417 0.823984C3.17028 1.1501 3.33333 1.54232 3.33333 2.00065C3.33333 2.45898 3.17028 2.85121 2.84417 3.17732C2.5175 3.50398 2.125 3.66732 1.66667 3.66732ZM6.66667 3.66732C6.20833 3.66732 5.81611 3.50398 5.49 3.17732C5.16333 2.85121 5 2.45898 5 2.00065C5 1.54232 5.16333 1.1501 5.49 0.823984C5.81611 0.497318 6.20833 0.333984 6.66667 0.333984C7.125 0.333984 7.5175 0.497318 7.84417 0.823984C8.17028 1.1501 8.33333 1.54232 8.33333 2.00065C8.33333 2.45898 8.17028 2.85121 7.84417 3.17732C7.5175 3.50398 7.125 3.66732 6.66667 3.66732Z" fill="#0E2121" fill-opacity="0.4"/>
</svg>
