<svg width="22" height="28" viewBox="0 0 22 28" fill="none" xmlns="http://www.w3.org/2000/svg">
<path d="M19.0002 9.33333H17.6668V6.66667C17.6668 2.98667 14.6802 0 11.0002 0C7.32016 0 4.3335 2.98667 4.3335 6.66667V9.33333H3.00016C1.5335 9.33333 0.333496 10.5333 0.333496 12V25.3333C0.333496 26.8 1.5335 28 3.00016 28H19.0002C20.4668 28 21.6668 26.8 21.6668 25.3333V12C21.6668 10.5333 20.4668 9.33333 19.0002 9.33333ZM7.00016 6.66667C7.00016 4.45333 8.78683 2.66667 11.0002 2.66667C13.2135 2.66667 15.0002 4.45333 15.0002 6.66667V9.33333H7.00016V6.66667ZM19.0002 25.3333H3.00016V12H19.0002V25.3333ZM11.0002 21.3333C12.4668 21.3333 13.6668 20.1333 13.6668 18.6667C13.6668 17.2 12.4668 16 11.0002 16C9.5335 16 8.3335 17.2 8.3335 18.6667C8.3335 20.1333 9.5335 21.3333 11.0002 21.3333Z" fill="#0E2121" fill-opacity="0.6"/>
</svg>
