<svg width="17" height="17" viewBox="0 0 17 17" fill="none" xmlns="http://www.w3.org/2000/svg">
<path fill-rule="evenodd" clip-rule="evenodd" d="M0 8.50008C0 3.90008 3.73333 0.166748 8.33333 0.166748C12.9333 0.166748 16.6667 3.90008 16.6667 8.50008C16.6667 13.1001 12.9333 16.8334 8.33333 16.8334C3.73333 16.8334 0 13.1001 0 8.50008ZM9.16667 11.8334V13.5001H7.5V11.8334H9.16667ZM8.33334 15.1667C4.65834 15.1667 1.66667 12.1751 1.66667 8.50008C1.66667 4.82508 4.65834 1.83341 8.33334 1.83341C12.0083 1.83341 15 4.82508 15 8.50008C15 12.1751 12.0083 15.1667 8.33334 15.1667ZM5 6.83342C5 4.99175 6.49167 3.50008 8.33333 3.50008C10.175 3.50008 11.6667 4.99175 11.6667 6.83342C11.6667 7.90251 11.0083 8.47785 10.3673 9.03803C9.75918 9.56947 9.16667 10.0873 9.16667 11.0001H7.5C7.5 9.48235 8.2851 8.88057 8.97537 8.35148C9.51686 7.93642 10 7.56609 10 6.83342C10 5.91675 9.25 5.16675 8.33333 5.16675C7.41667 5.16675 6.66667 5.91675 6.66667 6.83342H5Z" fill="#0E2121" fill-opacity="0.3"/>
</svg>
