<svg width="15" height="16" viewBox="0 0 15 16" fill="none" xmlns="http://www.w3.org/2000/svg">
<path fill-rule="evenodd" clip-rule="evenodd" d="M13.3333 0.5H1.66667C0.75 0.5 0 1.25 0 2.16667V13.8333C0 14.75 0.741667 15.5 1.66667 15.5H13.3333C14.25 15.5 15 14.75 15 13.8333V2.16667C15 1.25 14.25 0.5 13.3333 0.5ZM13.3333 13.8333H1.66667V11.3333H4.63333C5.20833 12.325 6.275 13 7.50833 13C8.74167 13 9.8 12.325 10.3833 11.3333H13.3333V13.8333ZM9.175 9.66667H13.3333V2.16667H1.66667V9.66667H5.84167C5.84167 10.5833 6.59167 11.3333 7.50833 11.3333C8.425 11.3333 9.175 10.5833 9.175 9.66667Z" fill="#0E2121" fill-opacity="0.6"/>
</svg>
