<svg width="15" height="15" viewBox="0 0 15 15" fill="none" xmlns="http://www.w3.org/2000/svg">
<path d="M6.06786 12.1357C7.3777 12.1357 8.60074 11.7096 9.59495 10.9995L13.3351 14.7396C13.5087 14.9132 13.7375 15 13.9742 15C14.4871 15 14.858 14.6055 14.858 14.1005C14.858 13.8638 14.7791 13.6428 14.6055 13.4692L10.889 9.74487C11.6702 8.7191 12.1357 7.44871 12.1357 6.06786C12.1357 2.73014 9.40558 0 6.06786 0C2.72225 0 0 2.73014 0 6.06786C0 9.40558 2.72225 12.1357 6.06786 12.1357ZM6.06786 10.8259C3.45608 10.8259 1.30984 8.67175 1.30984 6.06786C1.30984 3.46397 3.45608 1.30984 6.06786 1.30984C8.67175 1.30984 10.8259 3.46397 10.8259 6.06786C10.8259 8.67175 8.67175 10.8259 6.06786 10.8259Z" fill="#CFCFCF"/>
</svg>
