<?xml version="1.0" encoding="utf-8"?>
<!-- Generator: Adobe Illustrator 16.0.0, SVG Export Plug-In . SVG Version: 6.00 Build 0)  -->
<!DOCTYPE svg PUBLIC "-//W3C//DTD SVG 1.1//EN" "http://www.w3.org/Graphics/SVG/1.1/DTD/svg11.dtd">
<svg version="1.1" id="Layer_1" xmlns="http://www.w3.org/2000/svg" xmlns:xlink="http://www.w3.org/1999/xlink" x="0px" y="0px"
	 width="246.999px" height="51.258px" viewBox="0 1.371 246.999 51.258" enable-background="new 0 1.371 246.999 51.258"
	 xml:space="preserve">
<g>
	<linearGradient id="SVGID_1_" gradientUnits="userSpaceOnUse" x1="9.0596" y1="46.5938" x2="41.9401" y2="7.4082">
		<stop  offset="0" style="stop-color:#5124B3"/>
		<stop  offset="1" style="stop-color:#964EBE"/>
	</linearGradient>
	<path fill="url(#SVGID_1_)" d="M25.5,1.371C11.415,1.371,0,12.847,0,27c0,14.154,11.415,25.629,25.5,25.629
		C39.584,52.629,51,41.154,51,27C51,12.847,39.583,1.371,25.5,1.371L25.5,1.371z"/>
</g>
<path fill="#F9FAFC" d="M25.009,31.689c-0.311,1.088-0.777,2.049-1.417,2.873c-0.623,0.814-1.437,1.463-2.412,1.932
	c-0.984,0.467-2.142,0.701-3.496,0.701c-1.403,0-2.59-0.25-3.582-0.746c-0.987-0.49-1.784-1.152-2.414-1.984
	c-0.609-0.824-1.066-1.783-1.35-2.875c-0.292-1.1-0.431-2.244-0.431-3.441v-9.293h4.049v9.293c0,0.705,0.067,1.373,0.196,2
	c0.132,0.639,0.338,1.197,0.642,1.695c0.3,0.496,0.673,0.891,1.153,1.178c0.461,0.291,1.04,0.436,1.737,0.436
	c0.696,0,1.271-0.146,1.75-0.447c0.479-0.299,0.873-0.695,1.158-1.189c0.299-0.496,0.51-1.066,0.635-1.709
	c0.121-0.635,0.186-1.287,0.186-1.963v-9.292h4.049v9.292h0.002C25.462,29.42,25.309,30.596,25.009,31.689z"/>
<rect x="28.829" y="33.396" fill="#F9FAFC" width="12.264" height="3.799"/>
<rect x="28.829" y="26.125" fill="#F9FAFC" width="12.264" height="3.801"/>
<rect x="28.829" y="18.855" fill="#F9FAFC" width="12.264" height="3.801"/>
<g>
	<g>
		<path fill="#1C0D44" d="M59.935,17.18V9.277h3.21v7.902c0,0.792,0.193,1.402,0.581,1.83c0.388,0.427,0.957,0.641,1.708,0.641
			c0.75,0,1.326-0.214,1.727-0.641c0.399-0.428,0.601-1.038,0.601-1.83V9.277h3.208v7.902c0,1.17-0.271,2.179-0.815,3.027
			c-0.544,0.848-1.232,1.467-2.064,1.856c-0.833,0.39-1.736,0.585-2.712,0.585c-1.526,0-2.814-0.479-3.865-1.434
			C60.46,20.26,59.935,18.914,59.935,17.18z"/>
		<path fill="#1C0D44" d="M74.271,9.277h3.209v10.788h3.998v2.452h-7.206L74.271,9.277L74.271,9.277z"/>
		<path fill="#1C0D44" d="M82.922,11.729V9.277h10.395v2.452h-3.603v10.788h-3.209V11.729H82.922z"/>
		<path fill="#1C0D44" d="M95.795,22.518V9.277h3.209v13.24H95.795z"/>
		<path fill="#1C0D44" d="M117.299,9.277v13.24h-3.209v-7.469l-3.058,7.469h-2.384l-3.059-7.469v7.469h-3.209V9.277h3.678
			l3.791,9.129l3.772-9.129H117.299z"/>
		<path fill="#1C0D44" d="M129.047,22.518l-0.73-2.227h-4.729l-0.73,2.227h-3.417L124.02,9.24h3.903l4.56,13.277H129.047z
			 M124.393,17.84h3.115l-1.558-4.715L124.393,17.84z"/>
		<path fill="#1C0D44" d="M133.719,11.729V9.277h10.396v2.452h-3.604v10.788h-3.209V11.729H133.719z"/>
		<path fill="#1C0D44" d="M154.566,9.24v2.451H149.8v2.85h4.203v2.451H149.8v3.073h4.767v2.452h-7.977V9.24H154.566z"/>
		<path fill="#1C0D44" d="M172.449,22.518l-0.731-2.227h-4.729l-0.729,2.227h-3.417l4.58-13.277h3.903l4.56,13.277H172.449z
			 M167.795,17.84h3.115l-1.557-4.715L167.795,17.84z"/>
		<path fill="#1C0D44" d="M182.657,9.277c2.101,0,3.827,0.613,5.179,1.84c1.35,1.227,2.027,2.816,2.027,4.771
			c0,1.956-0.678,3.549-2.027,4.78c-1.352,1.232-3.078,1.85-5.179,1.85h-4.636V9.277H182.657z M181.23,20.065h1.427
			c1.226,0,2.19-0.377,2.891-1.132c0.699-0.754,1.05-1.766,1.05-3.036s-0.351-2.282-1.05-3.036c-0.7-0.755-1.665-1.132-2.891-1.132
			h-1.427V20.065z"/>
		<path fill="#1C0D44" d="M197.088,9.277c2.102,0,3.828,0.613,5.18,1.84c1.35,1.227,2.026,2.816,2.026,4.771
			c0,1.956-0.678,3.549-2.026,4.78c-1.352,1.232-3.078,1.85-5.18,1.85h-4.635V9.277H197.088z M195.662,20.065h1.426
			c1.227,0,2.189-0.377,2.891-1.132c0.701-0.754,1.051-1.766,1.051-3.036s-0.35-2.282-1.051-3.036
			c-0.699-0.755-1.664-1.132-2.891-1.132h-1.426V20.065z"/>
		<path fill="#1C0D44" d="M208.073,20.726c-1.308-1.282-1.962-2.904-1.962-4.866c0-1.961,0.654-3.58,1.962-4.855
			s2.909-1.914,4.805-1.914s3.491,0.639,4.786,1.914c1.294,1.275,1.941,2.896,1.941,4.855c0,1.962-0.65,3.584-1.951,4.866
			c-1.303,1.282-2.896,1.924-4.786,1.924S209.382,22.008,208.073,20.726z M215.395,18.631c0.631-0.69,0.946-1.614,0.946-2.771
			c0-1.156-0.315-2.08-0.946-2.771c-0.633-0.69-1.478-1.037-2.535-1.037c-1.059,0-1.901,0.347-2.532,1.037
			c-0.632,0.691-0.947,1.615-0.947,2.771c0,1.157,0.315,2.081,0.947,2.771c0.631,0.693,1.475,1.039,2.532,1.039
			C213.917,19.668,214.762,19.324,215.395,18.631z"/>
		<path fill="#1C0D44" d="M230.809,9.24h3.211v13.277h-3.211l-5.367-8.355v8.355h-3.209V9.24h3.209l5.367,8.354V9.24z"/>
		<path fill="#1C0D44" d="M241.859,11.635c-0.398,0-0.728,0.107-0.984,0.32c-0.257,0.215-0.385,0.521-0.385,0.924
			c0,0.404,0.117,0.728,0.355,0.973c0.237,0.245,0.547,0.434,0.93,0.564s0.808,0.258,1.274,0.377
			c0.472,0.121,0.937,0.266,1.398,0.435c0.464,0.17,0.885,0.381,1.267,0.632c0.383,0.252,0.691,0.607,0.93,1.066
			c0.236,0.459,0.354,1.009,0.354,1.648c0,1.12-0.453,2.078-1.358,2.877c-0.906,0.799-2.103,1.197-3.584,1.197
			c-1.483,0-2.679-0.357-3.586-1.074c-0.906-0.718-1.359-1.736-1.359-3.057h3.416c0.086,1.057,0.625,1.585,1.613,1.585
			c0.463,0,0.824-0.123,1.09-0.368c0.262-0.244,0.394-0.557,0.394-0.934s-0.118-0.686-0.356-0.924
			c-0.235-0.239-0.545-0.428-0.93-0.566c-0.382-0.139-0.807-0.268-1.273-0.387c-0.472-0.119-0.937-0.268-1.399-0.442
			c-0.462-0.175-0.884-0.387-1.267-0.632c-0.381-0.245-0.69-0.598-0.928-1.057c-0.238-0.459-0.357-1.002-0.357-1.631
			c0-1.232,0.457-2.221,1.371-2.961c0.912-0.742,2.08-1.113,3.498-1.113c1.42,0,2.569,0.324,3.443,0.972
			c0.876,0.647,1.333,1.669,1.37,3.063h-3.489c-0.051-0.478-0.205-0.846-0.459-1.104C242.591,11.765,242.264,11.635,241.859,11.635z
			"/>
	</g>
	<g>
		<path fill="#1C0D44" d="M61.019,42.793V32.602h6.279v1.576h-4.229v2.674h3.226v1.576h-3.226v4.365H61.019z"/>
		<path fill="#1C0D44" d="M79.345,42.896c-1.463,0-2.694-0.49-3.691-1.477c-0.998-0.982-1.497-2.23-1.497-3.746
			c0-1.514,0.5-2.762,1.503-3.746c1.003-0.982,2.234-1.475,3.691-1.475s2.686,0.49,3.683,1.475c0.998,0.984,1.497,2.232,1.497,3.746
			c0,1.516-0.499,2.764-1.497,3.746C82.038,42.406,80.809,42.896,79.345,42.896z M81.583,40.1c0.573-0.605,0.858-1.418,0.858-2.434
			c0-1.012-0.286-1.818-0.858-2.424c-0.571-0.604-1.317-0.904-2.238-0.904c-0.921,0-1.669,0.305-2.245,0.912
			c-0.577,0.607-0.865,1.416-0.865,2.426c0,1.008,0.287,1.814,0.865,2.424c0.577,0.607,1.325,0.914,2.245,0.914
			C80.266,41.014,81.012,40.707,81.583,40.1z"/>
		<path fill="#1C0D44" d="M94.009,38.734v4.061h-2.05V32.602h3.736c1.171,0,2.076,0.295,2.71,0.885
			c0.634,0.588,0.953,1.314,0.953,2.184c0,0.643-0.195,1.242-0.582,1.797c-0.388,0.557-0.998,0.936-1.831,1.141l2.587,4.189h-2.427
			l-2.427-4.061h-0.669V38.734z M94.009,34.178v2.979h1.686c0.514,0,0.906-0.135,1.177-0.4c0.271-0.27,0.407-0.633,0.407-1.09
			c0-0.459-0.135-0.818-0.407-1.088c-0.271-0.27-0.664-0.4-1.177-0.4H94.009z"/>
		<path fill="#1C0D44" d="M123.234,32.57v1.578h-3.808v2.672h3.37v1.578h-3.37v2.818h3.808v1.576h-5.856V32.568h5.856V32.57z"/>
		<path fill="#1C0D44" d="M131.143,32.602h2.051v8.633h3.254v1.563h-5.305V32.602L131.143,32.602z"/>
		<path fill="#1C0D44" d="M149.495,32.57v1.578h-3.806v2.672h3.369v1.578h-3.369v2.818h3.806v1.576h-5.856V32.568h5.856V32.57z"/>
		<path fill="#1C0D44" d="M168.463,32.602v10.191h-2.035v-6.439l-2.76,6.439h-1.471l-2.746-6.41v6.41h-2.049V32.602h2.281
			l3.254,7.551l3.256-7.551H168.463z"/>
		<path fill="#1C0D44" d="M182.313,32.57v1.578h-3.808v2.672h3.372v1.578h-3.372v2.818h3.808v1.576h-5.857V32.568h5.857V32.57z"/>
		<path fill="#1C0D44" d="M196.859,32.57h2.05v10.225h-2.05l-4.594-7.068v7.068h-2.05V32.57h2.05l4.594,7.07V32.57z"/>
		<path fill="#1C0D44" d="M206.307,34.178v-1.576h7.512v1.576h-2.744v8.615h-2.036v-8.615H206.307z"/>
		<path fill="#1C0D44" d="M225.824,42.896c-1.463,0-2.695-0.49-3.691-1.477c-0.998-0.982-1.498-2.23-1.498-3.746
			c0-1.514,0.502-2.762,1.506-3.746c1.002-0.982,2.231-1.475,3.69-1.475c1.458,0,2.687,0.49,3.685,1.475
			c0.996,0.984,1.496,2.232,1.496,3.746c0,1.516-0.5,2.764-1.496,3.746C228.518,42.406,227.287,42.896,225.824,42.896z
			 M228.063,40.1c0.569-0.605,0.856-1.418,0.856-2.434c0-1.012-0.287-1.818-0.856-2.424c-0.572-0.604-1.318-0.904-2.237-0.904
			c-0.925,0-1.671,0.305-2.247,0.912s-0.863,1.416-0.863,2.426c0,1.008,0.287,1.814,0.863,2.424
			c0.576,0.607,1.322,0.914,2.247,0.914C226.743,41.014,227.488,40.707,228.063,40.1z"/>
		<path fill="#1C0D44" d="M240.488,38.734v4.061h-2.053V32.602h3.734c1.174,0,2.078,0.295,2.713,0.885
			c0.635,0.588,0.95,1.314,0.95,2.184c0,0.643-0.192,1.242-0.58,1.797c-0.39,0.557-0.997,0.936-1.832,1.141l2.588,4.189h-2.426
			l-2.429-4.061h-0.666V38.734z M240.488,34.178v2.979h1.683c0.517,0,0.907-0.135,1.181-0.4c0.271-0.268,0.405-0.633,0.405-1.09
			c0-0.459-0.136-0.818-0.405-1.088c-0.271-0.27-0.664-0.4-1.181-0.4H240.488z"/>
	</g>
</g>
</svg>
