<?xml version="1.0" encoding="utf-8"?>
<!-- Generator: Adobe Illustrator 23.0.1, SVG Export Plug-In . SVG Version: 6.00 Build 0)  -->
<svg version="1.1" id="Layer_1" xmlns="http://www.w3.org/2000/svg" xmlns:xlink="http://www.w3.org/1999/xlink" x="0px" y="0px"
	 viewBox="0 0 1125 1125" style="enable-background:new 0 0 1125 1125;" xml:space="preserve">
<style type="text/css">
	.st0{fill:#FFFFFF;}
</style>
<g>
	<g>
		<path class="st0" d="M476.8,165.1c-13.1-29.4-43.6-48.4-77.8-48.4c-11.1,0-21.9,2-32.2,6c-42.9,16.5-63.3,62.5-45.5,102.4
			c13.1,29.4,43.6,48.4,77.8,48.4c1.5,0,2.9,0,4.4-0.1l14,31.6c16.5-8.1,33.8-14.8,51.8-20l-14-31.6
			C481.1,231.7,490.8,196.5,476.8,165.1z"/>
	</g>
</g>
<g>
	<g>
		<path class="st0" d="M252,414.5c0.7-11.5-1.4-23.2-6.3-34.1c-8.6-19.3-24.8-34.4-45.5-42.4c-10.3-4-21.1-6-32.2-6
			c-34.2,0-64.7,19-77.8,48.4c-8.6,19.3-8.6,40.6,0,60c8.6,19.3,24.8,34.4,45.5,42.4c10.3,4,21.1,6,32.2,6
			c24.4,0,46.9-9.7,62.6-25.9l33.8,13.1c5.6-16.8,12.9-32.9,21.5-48.3L252,414.5z"/>
	</g>
</g>
<g>
	<g>
		<path class="st0" d="M285.8,697.5c-8.6-15.3-15.9-31.5-21.5-48.3l-33.8,13c-15.7-16.3-38.2-26-62.6-26c-11.1,0-21.9,2-32.2,6
			c-42.9,16.5-63.3,62.5-45.5,102.4c13.1,29.4,43.6,48.4,77.8,48.4c11.1,0,21.9-2,32.2-6c33.8-13,53.6-44.3,51.8-76.5L285.8,697.5z"
			/>
	</g>
</g>
<g>
	<g>
		<path class="st0" d="M476.8,899.9c-4.9-11-12.2-20.6-21.4-28.3l14-31.5c-18-5.2-35.4-12-51.8-20l-14,31.5
			c-1.5-0.1-2.9-0.1-4.4-0.1c-34.2,0-64.7,19-77.8,48.4c-8.6,19.3-8.6,40.6,0,60c8.6,19.3,24.8,34.4,45.5,42.4c10.3,4,21.1,6,32.2,6
			c34.2,0,64.7-19,77.8-48.4C485.4,940.6,485.4,919.3,476.8,899.9z"/>
	</g>
</g>
<g>
	<g>
		<path class="st0" d="M803.7,899.9c-13.1-29.4-43.6-48.4-77.8-48.4c-1.5,0-2.9,0-4.4,0.1l-14-31.5c-16.5,8.1-33.8,14.8-51.8,20
			l14,31.5c-25.7,21.6-35.5,56.8-21.5,88.2c13.1,29.4,43.6,48.4,77.8,48.4c11.1,0,21.9-2,32.2-6C801,985.8,821.4,939.9,803.7,899.9z
			"/>
	</g>
</g>
<g>
	<g>
		<path class="st0" d="M1034.8,380.3c-13.1-29.4-43.6-48.4-77.8-48.4c-11.1,0-21.9,2-32.2,6c-33.8,13-53.6,44.3-51.8,76.5
			l-33.9,13.1c8.6,15.3,15.9,31.5,21.5,48.3l33.8-13.1c15.7,16.3,38.2,26,62.6,26c11.1,0,21.9-2,32.2-6
			C1032.1,466.2,1052.6,420.2,1034.8,380.3z"/>
	</g>
</g>
<g>
	<g>
		<path class="st0" d="M803.7,165.1c-8.6-19.3-24.8-34.4-45.5-42.4c-10.3-4-21.1-6-32.2-6c-34.2,0-64.7,19-77.8,48.4
			c-8.6,19.3-8.6,40.6,0,60c4.9,11,12.2,20.6,21.4,28.3l-14,31.5c18,5.2,35.4,12,51.8,20l14-31.6c1.5,0.1,2.9,0.1,4.4,0.1
			c34.2,0,64.7-19,77.8-48.4C812.3,205.7,812.3,184.4,803.7,165.1z"/>
	</g>
</g>
<g>
	<g>
		<path class="st0" d="M1034.8,684.7c-8.6-19.3-24.8-34.4-45.5-42.4c-10.3-4-21.1-6-32.2-6c-24.4,0-46.9,9.7-62.6,25.9l-33.8-13
			c-5.6,16.8-12.9,32.9-21.5,48.3l33.9,13.1c-0.7,11.5,1.4,23.2,6.3,34.1c8.6,19.3,24.8,34.4,45.5,42.4c10.3,4,21.1,6,32.2,6
			c34.2,0,64.7-19,77.8-48.4C1043.4,725.3,1043.4,704.1,1034.8,684.7z"/>
	</g>
</g>
<g>
	<g>
		<path class="st0" d="M562.5,454.6c-51,0-92.6,38.7-92.6,86.2c0,47.5,41.5,86.2,92.6,86.2s92.6-38.7,92.6-86.2
			C655.1,493.2,613.5,454.6,562.5,454.6z"/>
	</g>
</g>
<g>
	<g>
		<path class="st0" d="M562.5,323.9c-141.5,0-256.2,106.8-256.2,238.6c0,69.1,31.6,131.4,82.1,175c6.9-41.4,34.7-76.4,73-95.3
			c-29.2-25.3-47.6-61.4-47.6-101.4c0-76.3,66.7-138.4,148.7-138.4c82,0,148.7,62.1,148.7,138.4c0,40-18.3,76.1-47.6,101.4
			c38.3,19,66.2,54,73.1,95.3c50.5-43.6,82.1-105.8,82.1-175C818.7,430.8,704,323.9,562.5,323.9z"/>
	</g>
</g>
<g>
	<g>
		<path class="st0" d="M598,679.2H527c-46.4,0-84.1,35.1-84.2,78.3v16c35.7,17.6,76.4,27.6,119.7,27.6c43.2,0,84-10,119.7-27.6v-16
			C682.1,714.3,644.4,679.2,598,679.2z"/>
	</g>
</g>
</svg>
