<?xml version="1.0" encoding="utf-8"?>
<!-- Generator: Adobe Illustrator 23.0.1, SVG Export Plug-In . SVG Version: 6.00 Build 0)  -->
<svg version="1.1" id="Layer_1" xmlns="http://www.w3.org/2000/svg" xmlns:xlink="http://www.w3.org/1999/xlink" x="0px" y="0px"
	 viewBox="0 0 1125 1125" style="enable-background:new 0 0 1125 1125;" xml:space="preserve">
<style type="text/css">
	.st0{fill:none;stroke:#FFFFFF;stroke-width:23;stroke-miterlimit:10;}
	.st1{fill:none;stroke:#FFFFFF;stroke-width:31;stroke-miterlimit:10;}
	.st2{fill:#FFFFFF;}
</style>
<rect x="427.4" y="660.2" class="st0" width="292.4" height="283.1"/>
<rect x="513.9" y="660.2" class="st0" width="115.2" height="82.5"/>
<rect x="721.8" y="660.2" class="st0" width="292.4" height="283.1"/>
<rect x="808.3" y="660.2" class="st0" width="115.2" height="82.5"/>
<rect x="573.6" y="377.1" class="st0" width="292.4" height="283.1"/>
<rect x="660.1" y="377.1" class="st0" width="115.2" height="82.5"/>
<polygon class="st1" points="300.9,98.7 88.6,494.6 513.1,494.6 "/>
<g>
	<path class="st2" d="M273.3,416.4c0-11.4,12.5-19.6,29.5-19.6c18,0,29.5,8.2,29.5,19.6c0,11.1-11.5,19.6-29.5,19.6
		C285.3,436,273.3,427.5,273.3,416.4z M285.8,371.1l-7-151.9h48l-7,151.9H285.8z"/>
</g>
</svg>
