<?xml version="1.0" encoding="utf-8"?>
<!-- Generator: Adobe Illustrator 23.0.1, SVG Export Plug-In . SVG Version: 6.00 Build 0)  -->
<svg version="1.1" id="Layer_1" xmlns="http://www.w3.org/2000/svg" xmlns:xlink="http://www.w3.org/1999/xlink" x="0px" y="0px"
	 viewBox="0 0 1125 1125" style="enable-background:new 0 0 1125 1125;" xml:space="preserve">
<style type="text/css">
	.st0{fill:#FFFFFF;}
</style>
<path class="st0" d="M482.04,894.88c0,33.35-27.04,60.35-60.35,60.35s-60.35-27-60.35-60.35c0-33.31,27.04-60.35,60.35-60.35
	S482.04,861.57,482.04,894.88z M622.85,834.54c-33.31,0-60.35,27-60.35,60.35c0,33.35,27.04,60.35,60.35,60.35s60.35-27,60.35-60.35
	C683.2,861.57,656.16,834.54,622.85,834.54z M676.6,633.38l79.54-281.62H79.72l118.2,281.62
	C197.92,633.38,676.6,633.38,676.6,633.38z M876.51,231.06L738.43,713.84h-506.8l33.75,80.46h532.63l139.77-482.78h77.61
	l29.89-80.46H876.51z"/>
</svg>
