<?xml version="1.0" encoding="utf-8"?>
<!-- Generator: Adobe Illustrator 23.0.1, SVG Export Plug-In . SVG Version: 6.00 Build 0)  -->
<svg version="1.1" id="Layer_1" xmlns="http://www.w3.org/2000/svg" xmlns:xlink="http://www.w3.org/1999/xlink" x="0px" y="0px"
	 viewBox="0 0 122.6 122.9" style="enable-background:new 0 0 122.6 122.9;" xml:space="preserve">
<style type="text/css">
	.st0{fill:#FFFFFF;}
</style>
<g>
	<path class="st0" d="M95.2,95.1h-3.4c-1.3-12.5-8.9-28.3-19.8-35c10.9-6.7,18.5-22.5,19.8-35h3.4c1.9,0,3.5-1.6,3.5-3.5
		s-1.6-3.5-3.5-3.5H27.5c-1.9,0-3.5,1.6-3.5,3.5s1.6,3.5,3.5,3.5h3.4c1.3,12.5,8.9,28.3,19.8,35c-10.9,6.7-18.5,22.5-19.8,35h-3.4
		c-1.9,0-3.5,1.6-3.5,3.5s1.6,3.5,3.5,3.5h67.7c1.9,0,3.5-1.6,3.5-3.5C98.7,96.7,97.1,95.1,95.2,95.1z M37.9,25.1h46.8
		c-1.6,13.1-11.9,31.2-23.4,31.2S39.5,38.2,37.9,25.1z M61.3,63.9c11.5,0,21.8,18.1,23.4,31.2H37.9C39.5,82,49.8,63.9,61.3,63.9z"/>
</g>
</svg>
