<?xml version="1.0" encoding="utf-8"?>
<!-- Generator: Adobe Illustrator 23.0.1, SVG Export Plug-In . SVG Version: 6.00 Build 0)  -->
<svg version="1.1" id="Layer_1" xmlns="http://www.w3.org/2000/svg" xmlns:xlink="http://www.w3.org/1999/xlink" x="0px" y="0px"
	 viewBox="0 0 1125 1125" style="enable-background:new 0 0 1125 1125;" xml:space="preserve">
<style type="text/css">
	.st0{fill-rule:evenodd;clip-rule:evenodd;fill:#FFFFFF;}
</style>
<g>
	<path class="st0" d="M356.2,515.2l100.9-1.3c39,22.5,73.8,51.5,103.9,88.3C638.7,473.4,727.9,367.9,825.9,280h76.9
		C765.7,432.4,653.7,595.4,564.2,768.2C516.4,665.6,449.5,579.2,356.2,515.2L356.2,515.2L356.2,515.2L356.2,515.2z M920.4,435.1
		l-60.6,23.2c2.8,7.8,5.4,16,7.7,25.3c8,31.2,11.1,63,9.5,94.5c-1.5,31.8-7.8,63-18.6,92.7c-10.7,29.3-25.7,57-44.8,81.9
		c-18.5,24.2-40.9,45.9-67,64.1h-0.1c-9.7,6.8-19.4,12.9-29.4,18.5c-10.1,5.6-20.3,10.8-30.7,15.4c-23.2,10.2-46.8,17.6-70.5,22.1
		c-24.2,4.6-48.4,6.3-72.3,5.1l-7.8-0.4l-17,63.7l11.6,0.9c30.5,2.4,61.5,0.8,92.4-4.6c30.2-5.3,60.4-14.4,89.9-27.4
		c12.1-5.4,24.2-11.4,36.1-18.1c11.6-6.6,23.2-13.9,34.8-22c31.8-22.2,59-48.6,81.6-77.9c23.4-30.3,41.5-63.9,54.3-99.2
		c13-35.8,20.6-73.5,22.4-111.7c1.9-37.8-1.9-76.1-11.6-113.7C927.6,456.4,924.2,445.9,920.4,435.1L920.4,435.1z M332.9,865.6
		c22.2,17.3,46.1,31.9,71,43.5l10.5,4.9l17-63.5l-7.1-3.6c-18.1-9-35.5-19.9-51.8-32.7c-16.1-12.5-31.2-26.9-44.9-42.9l-5.3-6.1
		L265.4,798l7.3,8.9C290.8,828.9,311,848.5,332.9,865.6L332.9,865.6L332.9,865.6z M186.2,612.7c3.8,27.7,10.8,55,21,81.4l4.1,10.7
		l56.8-32.8l-2.7-7.6c-7-19.6-12-39.8-14.9-60.2c-2.9-20.4-3.7-41.1-2.4-61.7l0.5-8l-63.4-17.1l-1.1,11.5
		C181.6,556.8,182.3,584.8,186.2,612.7L186.2,612.7L186.2,612.7z M234.6,373.8c-5.6,9.6-10.8,19.3-15.5,29.1l-5.1,10.5l63.5,17
		l3.6-7c3.6-7,7.4-13.8,11.4-20.4c4-6.7,8.4-13.3,12.9-19.6c7.5-10.6,15.6-20.8,24.2-30.5c8.5-9.7,17.4-18.8,26.6-27.1l5.8-5.3
		l-32.9-57l-8.9,7.7c-12.3,10.8-24.2,22.4-35.6,35c-11.3,12.6-22,25.8-31.9,39.7C246.2,355.1,240.1,364.4,234.6,373.8L234.6,373.8
		L234.6,373.8z M495.1,186.8c-21.7,3.7-42.8,9.4-63,17l-10.8,4l32.8,56.9l7.6-2.7c15.4-5.3,31.4-9.4,47.8-11.9
		c16.1-2.5,32.6-3.6,49.4-3.2c7.5,0.2,15.4,0.7,23.5,1.6c7.8,0.9,15.5,2,23.2,3.6c7.9,1.6,15.8,3.5,23.5,5.8
		c7.7,2.3,15.5,5,23.5,8.1h0.1c8.4,3.2,17.2,2.8,24.8-0.6c7.6-3.3,13.9-9.6,17.2-18c3.2-8.4,2.8-17.2-0.6-24.8
		c-3.3-7.6-9.6-13.9-18-17.2c-9.5-3.7-19.1-6.9-28.9-9.8c-9.8-2.8-19.3-5.3-28.8-7.1c-9.6-1.9-19.1-3.4-28.6-4.5
		c-9.6-1.1-19.4-1.7-29.4-2C538.2,181.6,516.4,183.2,495.1,186.8L495.1,186.8L495.1,186.8z"/>
</g>
</svg>
