<?xml version="1.0" encoding="utf-8"?>
<!-- Generator: Adobe Illustrator 23.0.1, SVG Export Plug-In . SVG Version: 6.00 Build 0)  -->
<svg version="1.1" id="Layer_1" xmlns="http://www.w3.org/2000/svg" xmlns:xlink="http://www.w3.org/1999/xlink" x="0px" y="0px"
	 viewBox="0 0 1125 1125" style="enable-background:new 0 0 1125 1125;" xml:space="preserve">
<style type="text/css">
	.st0{fill-rule:evenodd;clip-rule:evenodd;fill:#FFFFFF;}
</style>
<g>
	<path class="st0" d="M356.2,515.2L356.2,515.2L356.2,515.2L356.2,515.2l98.2-1.3c1.7,0,3.5,0.4,5,1.3 M573.1,751.3
		c-3.7,6.9-13.6,6.8-17.1-0.2 M823.2,282.5 M920.4,435.1l-52,19.9c-4.8,1.8-7.3,7-5.7,11.9c1.7,5.3,3.3,10.8,4.8,16.7
		c8,31.2,11.1,63,9.5,94.5c-1.5,31.8-7.8,63-18.6,92.7c-10.7,29.3-25.7,57-44.8,81.9c-18.5,24.2-40.9,45.9-67,64.1h-0.1
		c-9.7,6.8-19.4,12.9-29.4,18.5c-10.1,5.6-20.3,10.8-30.7,15.4c-23.2,10.2-46.8,17.6-70.5,22.1c-24.2,4.6-48.4,6.3-72.3,5.1l0,0
		c-4.5-0.3-8.6,2.7-9.8,7.1l-12,44.9c-1.6,5.8,2.6,11.6,8.6,12.1l0.1,0c30.5,2.4,61.5,0.8,92.4-4.6c30.2-5.3,60.4-14.4,89.9-27.4
		c12.1-5.4,24.2-11.4,36.1-18.1c11.6-6.6,23.2-13.9,34.8-22c31.8-22.2,59-48.6,81.6-77.9c23.4-30.3,41.5-63.9,54.3-99.2
		c13-35.8,20.6-73.5,22.4-111.7c1.9-37.8-1.9-76.1-11.6-113.7C927.6,456.4,924.2,445.9,920.4,435.1L920.4,435.1z M332.9,865.6
		c22.2,17.3,46.1,31.9,71,43.5l0.1,0c5.4,2.5,11.8-0.4,13.4-6.2l12-44.9c1.2-4.4-0.9-9-5-11.1l-0.1-0.1c-18.1-9-35.5-19.9-51.8-32.7
		c-16.1-12.5-31.2-26.9-44.9-42.9l-0.1-0.1c-3-3.5-8.1-4.3-12.1-2l-40.1,23.1c-5.2,3-6.4,9.9-2.6,14.5l0.1,0.1
		C290.8,828.9,311,848.5,332.9,865.6L332.9,865.6L332.9,865.6z M186.2,612.7c3.8,27.7,10.8,55,21,81.4l0.1,0.1
		c2.1,5.5,8.7,7.8,13.8,4.9l40.1-23.1c4-2.3,5.8-7.2,4.2-11.6l0-0.1c-7-19.6-12-39.8-14.9-60.2c-2.9-20.4-3.7-41.1-2.4-61.7l0-0.2
		c0.3-4.6-2.7-8.7-7.1-9.9l-44.8-12.1c-5.8-1.6-11.5,2.5-12.1,8.4l0,0.1C181.6,556.8,182.3,584.8,186.2,612.7L186.2,612.7
		L186.2,612.7z M234.6,373.8c-5.6,9.6-10.8,19.3-15.5,29.1l0,0.1c-2.6,5.4,0.3,11.9,6.2,13.5l44.8,12c4.4,1.2,9-0.9,11-4.9l0-0.1
		c3.6-7,7.4-13.8,11.4-20.4c4-6.7,8.4-13.3,12.9-19.6c7.5-10.6,15.6-20.8,24.2-30.5c8.5-9.7,17.4-18.8,26.6-27.1l0.1-0.1
		c3.3-3,4-8,1.8-11.9l-23.2-40.3c-3-5.2-10.1-6.4-14.6-2.5l-0.1,0.1c-12.3,10.8-24.2,22.4-35.6,35c-11.3,12.6-22,25.8-31.9,39.7
		C246.2,355.1,240.1,364.4,234.6,373.8L234.6,373.8L234.6,373.8z M495.1,186.8c-21.7,3.7-42.8,9.4-63,17l-0.1,0
		c-5.6,2.1-7.9,8.7-5,13.8l23.2,40.1c2.3,4,7.2,5.8,11.5,4.3l0,0c15.4-5.3,31.4-9.4,47.8-11.9c16.1-2.5,32.6-3.6,49.4-3.2
		c7.5,0.2,15.4,0.7,23.5,1.6c7.8,0.9,15.5,2,23.2,3.6c7.9,1.6,15.8,3.5,23.5,5.8c7.7,2.3,15.5,5,23.5,8.1h0.1
		c8.4,3.2,17.2,2.8,24.8-0.6c7.6-3.3,13.9-9.6,17.2-18c3.2-8.4,2.8-17.2-0.6-24.8c-3.3-7.6-9.6-13.9-18-17.2
		c-9.5-3.7-19.1-6.9-28.9-9.8c-9.8-2.8-19.3-5.3-28.8-7.1c-9.6-1.9-19.1-3.4-28.6-4.5c-9.6-1.1-19.4-1.7-29.4-2
		C538.2,181.6,516.4,183.2,495.1,186.8L495.1,186.8L495.1,186.8z"/>
</g>
</svg>
