<?xml version="1.0" encoding="utf-8"?>
<!-- Generator: Adobe Illustrator 23.0.1, SVG Export Plug-In . SVG Version: 6.00 Build 0)  -->
<svg version="1.1" id="Capa_1" xmlns="http://www.w3.org/2000/svg" xmlns:xlink="http://www.w3.org/1999/xlink" x="0px" y="0px"
	 viewBox="0 0 512 512" style="enable-background:new 0 0 512 512;" xml:space="preserve">
<style type="text/css">
	.st0{fill:#FFFFFF;}
</style>
<g>
	<path class="st0" d="M75.1,282.3l25.5,0.2c0.2,0,0.4,0.2,0.5,0.4c3.9,19.6,11.4,38.7,22.8,56.1c0.1,0.2,0.1,0.5-0.1,0.6l-18.1,17.9
		c-6.6,6.5-6.6,17.1-0.2,23.7l19.8,20.1c6.5,6.6,17.1,6.6,23.7,0.2l18.1-17.9c0.2-0.2,0.4-0.2,0.6-0.1
		c17.2,11.6,36.2,19.4,55.9,23.5c0.2,0,0.4,0.3,0.4,0.5L224,433c-0.1,9.3,7.4,16.8,16.7,16.9l28.2,0.2c9.3,0.1,16.8-7.4,16.9-16.7
		l0.2-25.5c0-0.2,0.2-0.4,0.4-0.5c19.6-3.9,38.7-11.4,56.1-22.8c0.2-0.1,0.5-0.1,0.6,0.1l17.9,18.1c6.5,6.6,17.1,6.6,23.7,0.2
		l20.1-19.8c6.6-6.5,6.6-17.1,0.2-23.7L387,341.2c-0.2-0.2-0.2-0.4-0.1-0.6c11.6-17.2,19.4-36.2,23.5-55.9c0-0.2,0.3-0.4,0.5-0.4
		l25.5,0.2c9.3,0.1,16.8-7.4,16.9-16.7l0.2-28.2c0.1-9.3-7.4-16.8-16.7-16.9l-25.5-0.2c-0.2,0-0.4-0.2-0.5-0.4
		c-3.9-19.6-11.4-38.7-22.8-56.1c-0.1-0.2-0.1-0.5,0.1-0.6l18.1-17.9c6.6-6.5,6.6-17.1,0.2-23.7l-19.8-20.1
		c-6.5-6.6-17.1-6.6-23.7-0.2l-18.1,17.9c-0.2,0.2-0.4,0.2-0.6,0.1c-17.2-11.6-36.2-19.4-55.9-23.5c-0.2,0-0.4-0.3-0.4-0.5l0.2-25.5
		c0.1-9.3-7.4-16.8-16.7-16.9L242.9,55c-9.3-0.1-16.8,7.4-16.9,16.7l-0.2,25.5c0,0.2-0.2,0.4-0.4,0.5c-19.7,3.9-38.8,11.4-56.1,22.8
		c-0.2,0.1-0.5,0.1-0.6-0.1l-17.9-18.1c-6.5-6.6-17.1-6.6-23.7-0.2L107,122c-6.6,6.5-6.6,17.1-0.2,23.7l17.9,18.1
		c0.2,0.2,0.2,0.4,0.1,0.6c-11.6,17.2-19.4,36.2-23.5,55.9c0,0.2-0.3,0.4-0.5,0.4l-25.5-0.2c-9.3-0.1-16.8,7.4-16.9,16.7l-0.2,28.2
		C58.3,274.7,65.8,282.3,75.1,282.3z M208.2,194.4c31.1-25.6,77.7-22.4,104.9,9.4c24.1,28.2,23.8,70.2-0.6,98
		c-27.5,31.4-74.2,34.1-105,8.1C171.8,279.8,172.1,224,208.2,194.4z"/>
</g>
</svg>
