<svg width="60" height="60" viewBox="0 0 60 60" fill="none" xmlns="http://www.w3.org/2000/svg">
<g clip-path="url(#clip0_7904_84930)">
<path d="M8 16H23C23.552 16 24 15.553 24 15C24 14.447 23.552 14 23 14H8C7.448 14 7 14.447 7 15C7 15.553 7.448 16 8 16Z" fill="currentColor" fill-opacity="0.87"/>
<path d="M8 13H17C17.552 13 18 12.553 18 12C18 11.447 17.552 11 17 11H8C7.448 11 7 11.447 7 12C7 12.553 7.448 13 8 13Z" fill="currentColor" fill-opacity="0.87"/>
<path d="M24 18C24 17.447 23.552 17 23 17H8C7.448 17 7 17.447 7 18C7 18.553 7.448 19 8 19H23C23.552 19 24 18.553 24 18Z" fill="currentColor" fill-opacity="0.87"/>
<path d="M60 4H31V1C31 0.447 30.552 0 30 0C29.448 0 29 0.447 29 1V4H0V46H27.586L15.293 58.293C14.902 58.684 14.902 59.316 15.293 59.707C15.488 59.902 15.744 60 16 60C16.256 60 16.512 59.902 16.707 59.707L29 47.414V57C29 57.553 29.448 58 30 58C30.552 58 31 57.553 31 57V47.414L43.293 59.707C43.488 59.902 43.744 60 44 60C44.256 60 44.512 59.902 44.707 59.707C45.098 59.316 45.098 58.684 44.707 58.293L32.414 46H60V4ZM58 44H2V6H58V44Z" fill="currentColor" fill-opacity="0.87"/>
<path d="M41 20H45.586L33.6 31.986L25.307 23.693C24.916 23.302 24.284 23.302 23.893 23.693L11.293 36.293C10.902 36.684 10.902 37.316 11.293 37.707C11.488 37.902 11.744 38 12 38C12.256 38 12.512 37.902 12.707 37.707L24.6 25.814L32.893 34.107C33.088 34.302 33.344 34.4 33.6 34.4C33.856 34.4 34.112 34.302 34.307 34.107L47 21.414V26C47 26.553 47.447 27 48 27C48.553 27 49 26.553 49 26V19C49 18.87 48.974 18.74 48.923 18.618C48.822 18.373 48.627 18.178 48.382 18.077C48.26 18.026 48.13 18 48 18H41C40.448 18 40 18.447 40 19C40 19.553 40.448 20 41 20Z" fill="currentColor" fill-opacity="0.87"/>
</g>
<defs>
<clipPath id="clip0_7904_84930">
<rect width="60" height="60" fill="white"/>
</clipPath>
</defs>
</svg>
