<?xml version="1.0" ?><!DOCTYPE svg  PUBLIC '-//W3C//DTD SVG 1.1//EN'  'http://www.w3.org/Graphics/SVG/1.1/DTD/svg11.dtd'><svg enable-background="new 0 0 48 48" height="48px" version="1.1" viewBox="0 0 48 48" width="48px" xml:space="preserve" xmlns="http://www.w3.org/2000/svg" xmlns:xlink="http://www.w3.org/1999/xlink"><g id="Expanded"><g><g><path d="M44,48H4c-2.206,0-4-1.794-4-4V14c0-2.206,1.794-4,4-4h20c0.552,0,1,0.448,1,1s-0.448,1-1,1H4c-1.103,0-2,0.897-2,2v30     c0,1.103,0.897,2,2,2h40c1.103,0,2-0.897,2-2V14c0-1.103-0.897-2-2-2c-0.552,0-1-0.448-1-1s0.448-1,1-1c2.206,0,4,1.794,4,4v30     C48,46.206,46.206,48,44,48z"/></g><g><path d="M44,44H10V14h10c0.552,0,1,0.448,1,1s-0.448,1-1,1h-8v26h30V16h-2c-0.552,0-1-0.448-1-1s0.448-1,1-1h4V44z"/></g><g><path d="M8,42H0V16h8V42z M2,40h4V18H2V40z"/></g><g><path d="M17.44,27.56l2.639-8.297L38.071,1.272c1.511-1.512,4.146-1.512,5.657,0c1.56,1.56,1.56,4.097,0,5.656L25.737,24.92     L17.44,27.56z M21.838,20.333l-1.32,4.148l4.148-1.32L42.314,5.515c0.78-0.78,0.78-2.048,0-2.828     c-0.756-0.756-2.073-0.756-2.829,0L21.838,20.333z"/></g><g><rect height="2" width="6" x="1" y="24"/></g><g><rect height="2" width="6" x="1" y="32"/></g><g><path d="M41.606,8.636c-0.256,0-0.512-0.098-0.707-0.293l-4.243-4.243c-0.391-0.391-0.391-1.023,0-1.414s1.023-0.391,1.414,0     l4.243,4.243c0.391,0.391,0.391,1.023,0,1.414C42.118,8.539,41.862,8.636,41.606,8.636z"/></g><g><path d="M35.95,14.293c-0.256,0-0.512-0.098-0.707-0.293L31,9.757c-0.391-0.391-0.391-1.023,0-1.414s1.023-0.391,1.414,0     l4.243,4.243c0.391,0.391,0.391,1.023,0,1.414C36.461,14.195,36.206,14.293,35.95,14.293z"/></g><g><path d="M25.202,25.041c-0.256,0-0.512-0.098-0.707-0.293l-4.243-4.243c-0.391-0.391-0.391-1.023,0-1.414s1.023-0.391,1.414,0     l4.243,4.243c0.391,0.391,0.391,1.023,0,1.414C25.713,24.943,25.458,25.041,25.202,25.041z"/></g><g><path d="M17,29c-0.256,0-0.512-0.098-0.707-0.293c-0.391-0.391-0.391-1.023,0-1.414l1.979-1.979c0.391-0.391,1.023-0.391,1.414,0     s0.391,1.023,0,1.414l-1.979,1.979C17.512,28.902,17.256,29,17,29z"/></g></g></g></svg>