<svg id="Layer_3" enable-background="new 0 0 64 64" height="512" viewBox="0 0 64 64" width="512" xmlns="http://www.w3.org/2000/svg"><path d="m32 61v2c13.902 0 26.191-9.349 29.885-22.734l-1.928-.532c-3.456 12.521-14.952 21.266-27.957 21.266z"/><path d="m60.42 37.801 1.96.397c.139-.682.255-1.377.347-2.066l-1.982-.265c-.086.646-.196 1.296-.325 1.934z"/><path d="m61 32c0 .65-.021 1.295-.063 1.935l1.996.131c.044-.683.067-1.378.067-2.066z"/><path d="m32 3v-2c-13.902 0-26.191 9.349-29.885 22.734l1.928.532c3.456-12.521 14.952-21.266 27.957-21.266z"/><path d="m1.273 27.868 1.982.265c.086-.645.195-1.295.325-1.934l-1.96-.397c-.139.681-.255 1.377-.347 2.066z"/><path d="m1 32h2c0-.65.021-1.295.063-1.935l-1.996-.131c-.044.683-.067 1.378-.067 2.066z"/><path d="m40.707 40.707 6.707-6.707-1.878-1.878c-.346-.346-.536-.805-.536-1.293 0-1.009.82-1.829 1.829-1.829.488 0 .947.19 1.293.536l1.878 1.878 7.414-7.414-6-6 .464-.464c.724-.724 1.122-1.685 1.122-2.707 0-2.112-1.717-3.829-3.829-3.829-1.022 0-1.984.398-2.707 1.122l-.464.464-6-6-7.414 7.414 1.878 1.878c.346.346.536.805.536 1.293 0 1.009-.82 1.829-1.829 1.829-.488 0-.947-.19-1.293-.536l-1.878-1.878-6.707 6.707-.707.707-4.586 4.586-.464-.464c-.724-.724-1.685-1.122-2.707-1.122-2.112 0-3.829 1.717-3.829 3.829 0 1.022.398 1.984 1.122 2.707l.464.464-6 6 17.414 17.414 16-16zm-10.707-21.293.464.464c.724.724 1.685 1.122 2.707 1.122 2.112 0 3.829-1.717 3.829-3.829 0-1.022-.398-1.984-1.122-2.707l-.464-.464 4.586-4.586 6 6 1.878-1.878c.346-.346.805-.536 1.293-.536 1.009 0 1.829.82 1.829 1.829 0 .488-.19.947-.536 1.293l-1.878 1.878 6 6-4.586 4.586-.464-.464c-.724-.724-1.685-1.122-2.707-1.122-2.112 0-3.829 1.717-3.829 3.829 0 1.022.398 1.984 1.122 2.707l.464.464-4.586 4.586-6-6-1.878 1.878c-.346.346-.805.536-1.293.536-1.009 0-1.829-.82-1.829-1.829 0-.488.19-.947.536-1.293l1.878-1.878-6-6zm-6 35.172-14.586-14.586 6-6-1.878-1.878c-.346-.346-.536-.805-.536-1.293 0-1.009.82-1.829 1.829-1.829.488 0 .947.19 1.293.536l1.878 1.878 6-6 4.586 4.586-.464.464c-.724.724-1.122 1.685-1.122 2.707 0 2.112 1.717 3.829 3.829 3.829 1.022 0 1.984-.398 2.707-1.122l.464-.464 4.586 4.586z"/><path d="m32 59c.693 0 1.392-.026 2.076-.079l-.152-1.994c-.634.049-1.281.073-1.924.073z"/><path d="m36.153 58.683c.695-.107 1.394-.244 2.077-.405l-.46-1.946c-.632.149-1.279.275-1.923.375z"/><path d="m39.692 55.794.615 1.903c11.181-3.612 18.693-13.939 18.693-25.697h-2c0 10.888-6.955 20.45-17.308 23.794z"/><path d="m32 7v-2c-.693 0-1.392.026-2.076.079l.152 1.994c.634-.049 1.281-.073 1.924-.073z"/><path d="m26.23 7.669c.632-.149 1.279-.275 1.923-.375l-.306-1.977c-.695.107-1.394.244-2.077.405z"/><path d="m24.308 8.206-.615-1.903c-11.181 3.612-18.693 13.939-18.693 25.697h2c0-10.888 6.955-20.45 17.308-23.794z"/><path d="m26.464 46.536h2v2h-2z" transform="matrix(.707 -.707 .707 .707 -25.569 33.343)"/><path d="m29.293 43.707h2v2h-2z" transform="matrix(.707 -.707 .707 .707 -22.74 34.515)"/><path d="m23.722 49.328h1.9v2h-1.9z" transform="matrix(.707 -.707 .707 .707 -28.361 32.186)"/></svg>