<?xml version="1.0" ?><!DOCTYPE svg  PUBLIC '-//W3C//DTD SVG 1.1//EN'  'http://www.w3.org/Graphics/SVG/1.1/DTD/svg11.dtd'><svg enable-background="new 0 0 48 48" height="48px" version="1.1" viewBox="0 0 48 48" width="48px" xml:space="preserve" xmlns="http://www.w3.org/2000/svg" xmlns:xlink="http://www.w3.org/1999/xlink"><g id="Expanded"><g><g><path d="M41,37H7c-0.553,0-1-0.448-1-1V14c0-0.552,0.447-1,1-1h3v2H8v20h32v-4h2v5C42,36.552,41.553,37,41,37z"/></g><g><path d="M47,29H13c-0.553,0-1-0.448-1-1V6c0-0.552,0.447-1,1-1h34c0.553,0,1,0.448,1,1v22C48,28.552,47.553,29,47,29z M14,27h32     V7H14V27z"/></g><g><path d="M35,45H1c-0.553,0-1-0.448-1-1V22c0-0.552,0.447-1,1-1h3v2H2v20h32v-4h2v5C36,44.552,35.553,45,35,45z"/></g></g></g></svg>