<?xml version="1.0" encoding="utf-8"?>
<!-- Generator: Adobe Illustrator 23.0.1, SVG Export Plug-In . SVG Version: 6.00 Build 0)  -->
<svg version="1.1" id="Layer_1" xmlns="http://www.w3.org/2000/svg" xmlns:xlink="http://www.w3.org/1999/xlink" x="0px" y="0px"
	 width="600px" height="600px" viewBox="0 0 600 600" style="enable-background:new 0 0 600 600;" xml:space="preserve">
<style type="text/css">
	.st0{fill:#757575;}
	.st1{display:none;}
	.st2{display:inline;fill:#757575;}
	.st3{display:inline;fill:#FFFFFF;}
	.st4{display:inline;fill:#757575;stroke:#757575;stroke-miterlimit:10;}
</style>
<g>
	<path class="st0" d="M300,454.5c86.6,0,169.3-48.4,239.2-140l10.2-13.4l-10.2-13.4C469.3,196,386.6,147.6,300,147.6
		c-86.6,0-169.4,48.4-239.2,140.1l-10.2,13.4l10.2,13.4C130.6,406.1,213.4,454.5,300,454.5z M300,191.8
		c68.2,0,134.8,37.7,193.6,109.3C434.8,372.6,368.1,410.3,300,410.3c-68.2,0-134.8-37.7-193.6-109.3
		C165.1,229.5,231.8,191.8,300,191.8z"/>
	<path class="st0" d="M299,390.4c48.7,0,88.3-39.6,88.3-88.3s-39.6-88.3-88.3-88.3c-48.7,0-88.3,39.6-88.3,88.3
		S250.3,390.4,299,390.4z M299,258c24.3,0,44.1,19.8,44.1,44.1c0,24.3-19.8,44.1-44.1,44.1c-24.3,0-44.1-19.8-44.1-44.1
		C254.8,277.8,274.6,258,299,258z"/>
</g>
<g class="st1">
	<line class="st2" x1="77.8" y1="482.6" x2="481.5" y2="83"/>
	<polygon class="st3" points="91.5,496.2 64.2,469.1 467.8,69.5 495.2,96.5 	"/>
</g>
<g class="st1">
	<line class="st4" x1="109.7" y1="499" x2="488.3" y2="120.4"/>
	
		<rect x="31.3" y="291.5" transform="matrix(0.7071 -0.7071 0.7071 0.7071 -131.4113 302.1112)" class="st4" width="535.4" height="36.3"/>
</g>
</svg>
