<?xml version="1.0" encoding="UTF-8"?>
<!-- Generated by Pixelmator Pro 3.4.3 -->
<svg width="1200" height="354" viewBox="0 0 1200 354" xmlns="http://www.w3.org/2000/svg">
    <path id="Trazado" fill="#05c0c7" fill-rule="evenodd" stroke="none" d="M 588.811462 126.11937 C 578.634094 126.11937 570.414124 134.338074 570.414124 144.122253 L 570.414124 279.93335 C 570.414124 290.108887 578.634094 298.328583 588.811462 298.328583 C 598.988892 298.328583 607.208862 290.108887 607.208862 279.93335 L 607.208862 144.122253 C 607.208862 134.338074 598.988892 126.11937 588.811462 126.11937 Z M 588.810486 58.410889 C 577.459656 58.410889 568.065247 67.804077 568.065247 79.154297 C 568.065247 90.504425 577.459656 100.289185 588.810486 100.289185 C 600.162292 100.289185 609.556702 90.895813 609.556702 79.154297 C 609.556702 67.804077 600.162292 58.410889 588.810486 58.410889 Z M 768.088501 144.123245 C 768.088501 132.772614 759.085571 128.467575 750.86554 128.467575 L 659.660645 128.467575 C 650.657715 128.467575 643.612122 135.512177 643.612122 144.123245 C 643.612122 153.124649 650.657715 160.170242 659.660645 160.170242 L 719.550476 160.170242 L 642.046204 268.192383 C 639.697327 271.323303 638.523987 275.628357 638.523987 279.150635 C 638.523987 290.501251 647.526917 296.763123 655.355408 296.763123 L 752.039978 296.763123 C 761.042969 296.763123 768.088501 289.718506 768.088501 280.716095 C 768.088501 271.714661 761.042969 264.670074 752.039978 264.670074 L 687.060974 264.670074 L 762.99939 158.995178 C 766.914063 153.516037 768.088501 148.819641 768.088501 144.123245 Z M 499.563934 229.446075 C 499.563934 251.754959 489.778046 265.453796 467.465912 265.453796 C 445.154755 265.453796 435.760315 251.754959 435.760315 229.446075 L 435.760315 160.170242 L 469.031799 160.170242 C 496.04068 160.170242 499.563934 175.043167 499.563934 191.481552 L 499.563934 229.446075 Z M 536.358704 190.698822 C 536.358704 152.734268 516.395386 128.077194 469.814758 128.077194 L 436.151794 128.077194 L 436.151794 76.806 C 436.151794 66.629974 427.931824 58.410889 418.145905 58.410889 C 407.968506 58.410889 399.748535 66.629974 399.748535 76.806 L 399.748535 229.446075 C 399.748535 267.410614 420.102295 298.329559 468.248871 298.329559 C 516.003906 298.329559 536.750183 267.019226 536.750183 229.446075 L 536.750183 190.698822 L 536.358704 190.698822 Z M 911.744263 126.11937 C 901.567871 126.11937 893.346863 134.338074 893.346863 144.513626 L 893.346863 229.445099 C 893.346863 251.753998 883.560974 265.451813 861.249878 265.451813 C 838.937683 265.451813 829.543274 251.753998 829.543274 229.445099 L 829.543274 144.513626 C 829.543274 134.338074 821.323242 126.11937 811.537415 126.11937 C 801.360046 126.11937 793.140015 134.338074 793.140015 144.513626 L 793.140015 229.445099 C 793.140015 267.40863 813.494751 298.328583 861.641296 298.328583 C 909.396362 298.328583 930.141663 267.017273 930.141663 229.445099 L 930.141663 144.513626 C 929.751099 134.338074 921.530212 126.11937 911.744263 126.11937 Z M 1190.832764 195.396194 C 1190.832764 157.431671 1173.226196 126.511734 1125.472046 126.511734 C 1103.94104 126.511734 1088.675415 132.774567 1078.101685 143.341476 C 1067.53772 133.165955 1052.272217 126.511734 1030.740967 126.511734 C 982.984924 126.511734 965.370544 157.823044 965.370544 195.396194 L 965.370544 280.326691 C 965.370544 290.502228 973.590454 298.721924 983.376404 298.721924 C 993.550842 298.721924 1001.773743 290.502228 1001.773743 280.326691 L 1001.773743 195.396194 C 1001.773743 173.087326 1008.816406 159.388489 1030.740967 159.388489 C 1053.049194 159.388489 1059.708252 173.087326 1059.708252 195.396194 L 1059.708252 280.326691 C 1059.708252 290.502228 1067.931152 298.721924 1077.708252 298.721924 C 1087.88855 298.721924 1096.11145 290.502228 1096.11145 280.326691 L 1096.11145 195.396194 C 1096.11145 173.087326 1103.154053 159.388489 1125.078735 159.388489 C 1147.386841 159.388489 1154.045898 173.087326 1154.045898 195.396194 L 1154.045898 280.326691 C 1154.045898 290.502228 1162.259033 298.721924 1172.045898 298.721924 C 1182.226196 298.721924 1190.449219 290.502228 1190.449219 280.326691 L 1190.832764 195.396194 Z M 65.072166 126.510757 C 77.989571 135.904541 95.995468 133.164963 105.389503 120.248871 L 139.053452 73.673981 C 148.447876 60.758301 145.707535 42.754639 132.790817 33.361359 C 119.873116 23.96814 101.86721 26.707825 92.472588 39.623505 L 58.41777 86.198303 C 49.414818 99.11409 52.154854 117.117966 65.072166 126.510757 Z M 219.297058 60.758301 C 206.379333 51.365112 188.373444 54.104767 178.979004 67.020447 L 43.542786 253.319443 C 34.148361 266.235535 36.888393 284.23938 49.805706 293.632202 C 62.723019 303.02597 80.729019 300.286407 90.123444 287.3703 L 225.559677 101.070938 C 235.345566 88.155334 232.213776 70.151581 219.297058 60.758301 Z M 52.154755 45.885986 C 61.549183 32.970276 58.809048 14.966522 45.891735 5.573334 C 32.974426 -3.819916 14.968427 -1.0802 5.574029 11.83548 C -3.820397 24.75119 -1.080354 42.754944 11.837017 52.148132 C 24.754328 61.541412 42.76033 58.801666 52.154755 45.885986 Z M 257.657715 301.851868 C 244.740982 292.458099 226.735077 295.198639 217.340652 308.113708 C 207.946228 321.029785 210.685577 339.033661 223.603271 348.426483 C 236.520996 357.820251 254.526886 355.079681 263.921326 342.164581 C 273.315735 329.248505 270.575409 311.244659 257.657715 301.851868 Z M 204.814423 227.879639 C 191.897705 218.486832 173.891815 221.22641 164.497375 234.142487 L 130.441956 280.717102 C 121.047546 293.632202 123.787872 311.636017 136.70459 321.029785 C 149.622299 330.422607 167.628204 327.683044 177.022614 314.766968 L 211.078033 268.192383 C 220.472458 255.277252 217.732132 237.273407 204.814423 227.879639 Z"/>
</svg>
