<?xml version="1.0" encoding="UTF-8"?>
<!DOCTYPE svg PUBLIC "-//W3C//DTD SVG 1.1//EN" "http://www.w3.org/Graphics/SVG/1.1/DTD/svg11.dtd">
<svg xmlns="http://www.w3.org/2000/svg" version="1.1" width="4088px" height="2000px" style="shape-rendering:geometricPrecision; text-rendering:geometricPrecision; image-rendering:optimizeQuality; fill-rule:evenodd; clip-rule:evenodd" xmlns:xlink="http://www.w3.org/1999/xlink">
<g><path style="opacity:1" fill="#fefefe" d="M -0.5,-0.5 C 1362.17,-0.5 2724.83,-0.5 4087.5,-0.5C 4087.5,666.167 4087.5,1332.83 4087.5,1999.5C 2724.83,1999.5 1362.17,1999.5 -0.5,1999.5C -0.5,1332.83 -0.5,666.167 -0.5,-0.5 Z"/></g>
<g><path style="opacity:1" fill="#fdf9e2" d="M 831.5,650.5 C 826.167,650.5 820.833,650.5 815.5,650.5C 799.5,649.167 783.5,649.167 767.5,650.5C 757.358,650.092 747.358,651.092 737.5,653.5C 736.287,653.747 735.62,654.414 735.5,655.5C 731.833,655.5 728.167,655.5 724.5,655.5C 722.833,655.5 721.167,655.5 719.5,655.5C 721.598,654.065 723.931,652.898 726.5,652C 733.997,651.943 741.331,650.943 748.5,649C 744.323,649.111 739.989,648.944 735.5,648.5C 735.5,647.5 735.5,646.5 735.5,645.5C 740.812,646.109 746.146,646.609 751.5,647C 778.165,647.5 804.831,647.667 831.5,647.5C 831.5,648.5 831.5,649.5 831.5,650.5 Z"/></g>
<g><path style="opacity:1" fill="#fddadd" d="M 383.5,649.5 C 362.118,649.056 340.784,649.723 319.5,651.5C 320.589,649.883 322.256,649.05 324.5,649C 344.338,648.171 364.004,648.338 383.5,649.5 Z"/></g>
<g><path style="opacity:1" fill="#bc2636" d="M 383.5,649.5 C 386.167,650.167 388.833,650.833 391.5,651.5C 367.491,651.357 343.491,651.691 319.5,652.5C 319.5,652.167 319.5,651.833 319.5,651.5C 340.784,649.723 362.118,649.056 383.5,649.5 Z"/></g>
<g><path style="opacity:1" fill="#e2af60" d="M 767.5,650.5 C 757.045,651.915 746.379,653.582 735.5,655.5C 735.62,654.414 736.287,653.747 737.5,653.5C 747.358,651.092 757.358,650.092 767.5,650.5 Z"/></g>
<g><path style="opacity:1" fill="#f9bfbf" d="M 319.5,651.5 C 319.5,651.833 319.5,652.167 319.5,652.5C 314.167,652.833 308.833,653.167 303.5,653.5C 308.583,651.922 313.916,651.255 319.5,651.5 Z"/></g>
<g><path style="opacity:1" fill="#ba2936" d="M 391.5,651.5 C 395.167,651.5 398.833,651.5 402.5,651.5C 409.556,652.543 416.556,653.877 423.5,655.5C 412.597,654.957 401.931,653.624 391.5,651.5 Z"/></g>
<g><path style="opacity:1" fill="#fbd0d7" d="M 402.5,651.5 C 409.507,651.834 416.507,652.334 423.5,653C 432.906,655.825 442.573,657.825 452.5,659C 454.973,659.22 456.64,660.386 457.5,662.5C 454.167,661.833 450.833,661.167 447.5,660.5C 440.709,658.431 433.709,656.764 426.5,655.5C 425.5,655.5 424.5,655.5 423.5,655.5C 416.556,653.877 409.556,652.543 402.5,651.5 Z"/></g>
<g><path style="opacity:1" fill="#f5e4b5" d="M 831.5,651.5 C 839.253,651.104 846.92,651.604 854.5,653C 855.252,653.671 855.586,654.504 855.5,655.5C 852.833,655.5 850.167,655.5 847.5,655.5C 847.03,654.307 846.03,653.64 844.5,653.5C 839.993,653.024 835.66,652.357 831.5,651.5 Z"/></g>
<g><path style="opacity:1" fill="#e9001b" d="M 391.5,651.5 C 401.931,653.624 412.597,654.957 423.5,655.5C 424.5,655.5 425.5,655.5 426.5,655.5C 426.414,656.496 426.748,657.329 427.5,658C 434.136,659.16 440.803,659.994 447.5,660.5C 452.381,662.901 457.714,664.567 463.5,665.5C 465.199,665.34 466.866,665.506 468.5,666C 472.225,667.563 475.892,669.063 479.5,670.5C 479.5,670.833 479.5,671.167 479.5,671.5C 479.137,673.911 480.137,675.411 482.5,676C 488.901,676.924 495.235,678.09 501.5,679.5C 501.953,680.458 502.619,681.292 503.5,682C 514.42,687.46 525.42,692.96 536.5,698.5C 538.87,701.939 542.203,703.606 546.5,703.5C 546.833,703.5 547.167,703.5 547.5,703.5C 547.511,705.017 548.177,706.184 549.5,707C 551.844,707.837 553.844,709.171 555.5,711C 556.793,711.49 558.127,711.657 559.5,711.5C 564.828,715.165 570.162,718.832 575.5,722.5C 575.833,723.167 576.167,723.833 576.5,724.5C 568.153,732.765 559.153,740.431 549.5,747.5C 537.843,760.326 526.343,773.326 515,786.5C 512.85,790.63 510.517,794.63 508,798.5C 506.989,799.337 505.822,799.67 504.5,799.5C 501.088,807.431 496.588,814.765 491,821.5C 488.318,826.206 486.151,831.206 484.5,836.5C 481.391,839.58 479.725,843.246 479.5,847.5C 476.303,850.856 473.803,854.856 472,859.5C 468.161,871.812 463.827,883.812 459,895.5C 456.649,904.244 454.315,912.911 452,921.5C 450.144,931.572 448.31,941.572 446.5,951.5C 445.778,951.082 445.278,950.416 445,949.5C 442.36,974.937 440.86,1000.44 440.5,1026C 442.19,1035.77 443.523,1045.61 444.5,1055.5C 445.5,1055.5 446.5,1055.5 447.5,1055.5C 447.334,1059.51 447.501,1063.51 448,1067.5C 450.289,1075.37 451.955,1083.37 453,1091.5C 455.799,1099.03 458.132,1106.7 460,1114.5C 462.131,1122.01 465.298,1129.01 469.5,1135.5C 471.48,1140.76 473.147,1146.09 474.5,1151.5C 475.5,1151.5 476.5,1151.5 477.5,1151.5C 480.646,1155.88 483.313,1160.71 485.5,1166C 489.054,1169.89 492.22,1174.05 495,1178.5C 499.077,1187.59 504.411,1195.92 511,1203.5C 511.333,1204.83 511.667,1206.17 512,1207.5C 522.028,1218.69 531.861,1230.03 541.5,1241.5C 551.416,1251.82 562.082,1261.32 573.5,1270C 575.037,1271.11 575.703,1272.61 575.5,1274.5C 575.5,1274.83 575.5,1275.17 575.5,1275.5C 573.167,1276.83 570.833,1278.17 568.5,1279.5C 566.712,1279.21 565.045,1279.55 563.5,1280.5C 562.233,1282.32 560.9,1283.98 559.5,1285.5C 555.047,1288.36 550.047,1290.19 544.5,1291C 544.088,1292.56 543.755,1294.06 543.5,1295.5C 542.022,1295.24 540.689,1295.57 539.5,1296.5C 535.044,1299.04 531.044,1302.04 527.5,1305.5C 525.143,1305.34 522.81,1305.5 520.5,1306C 518.9,1307.82 516.9,1308.98 514.5,1309.5C 513.066,1310.59 512.066,1311.92 511.5,1313.5C 506.66,1312.76 502.993,1314.42 500.5,1318.5C 499.07,1319.54 497.403,1320.2 495.5,1320.5C 490.555,1321.72 485.721,1323.38 481,1325.5C 479.97,1325.84 479.47,1326.5 479.5,1327.5C 476.482,1327.34 473.482,1327.5 470.5,1328C 467.728,1329.06 465.395,1330.56 463.5,1332.5C 460.15,1332.33 456.817,1332.5 453.5,1333C 451.111,1333.74 449.111,1334.91 447.5,1336.5C 435.529,1337.11 423.862,1338.94 412.5,1342C 413.737,1342.23 414.737,1342.73 415.5,1343.5C 386.891,1345.24 358.225,1345.91 329.5,1345.5C 320.88,1344.53 312.214,1343.86 303.5,1343.5C 302.77,1341.95 301.437,1341.12 299.5,1341C 294.233,1339.81 288.899,1339.31 283.5,1339.5C 283.67,1338.18 283.337,1337.01 282.5,1336C 277.5,1335.67 272.5,1335.33 267.5,1335C 264.011,1332.56 260.344,1330.39 256.5,1328.5C 255.554,1328.99 254.554,1329.32 253.5,1329.5C 251.423,1328.06 249.09,1327.4 246.5,1327.5C 245.167,1327.5 243.833,1327.5 242.5,1327.5C 241.209,1327.74 240.209,1327.4 239.5,1326.5C 236.757,1324.14 233.423,1322.81 229.5,1322.5C 227.898,1320.93 225.898,1320.26 223.5,1320.5C 223.5,1320.17 223.5,1319.83 223.5,1319.5C 218.539,1316.35 213.206,1313.69 207.5,1311.5C 201.336,1310.97 196.003,1308.63 191.5,1304.5C 190.514,1302.59 188.848,1301.59 186.5,1301.5C 184.239,1298.2 181.239,1296.2 177.5,1295.5C 175.181,1295.01 173.181,1294.01 171.5,1292.5C 166.655,1286.67 160.655,1282.33 153.5,1279.5C 151.73,1276.8 150.064,1273.97 148.5,1271C 141.934,1269.89 137.601,1266.23 135.5,1260C 127.048,1258.23 120.882,1253.4 117,1245.5C 109.78,1240.61 103.947,1234.45 99.5,1227C 98.2068,1226.51 96.8734,1226.34 95.5,1226.5C 95.5,1226.17 95.5,1225.83 95.5,1225.5C 95.6495,1224.45 95.4828,1223.45 95,1222.5C 91.5829,1219.49 89.7496,1215.99 89.5,1212C 90.448,1211.52 91.448,1211.35 92.5,1211.5C 92.5,1210.17 92.5,1208.83 92.5,1207.5C 89.5794,1207.15 87.2461,1208.15 85.5,1210.5C 83.9309,1209.29 83.0976,1207.62 83,1205.5C 81.9887,1204.66 80.8221,1204.33 79.5,1204.5C 77.5545,1201.09 76.0545,1197.43 75,1193.5C 71.3696,1189.88 69.0363,1185.55 68,1180.5C 63.3734,1177.69 59.8734,1173.69 57.5,1168.5C 57.0431,1167.7 56.3764,1167.37 55.5,1167.5C 55.1667,1167.5 54.8333,1167.5 54.5,1167.5C 54.3286,1161.16 51.9952,1155.83 47.5,1151.5C 46.3734,1145.25 43.7067,1139.91 39.5,1135.5C 39.7205,1131.17 38.7205,1127.17 36.5,1123.5C 36.2431,1120.71 35.9098,1117.87 35.5,1115C 34.9019,1113.7 33.9019,1112.87 32.5,1112.5C 29.8866,1108.47 29.5532,1104.47 31.5,1100.5C 31.3333,1099.5 31.1667,1098.5 31,1097.5C 30.3333,1098.83 29.6667,1098.83 29,1097.5C 26.8729,1094.24 25.0396,1090.91 23.5,1087.5C 22.1589,1077.63 20.4922,1067.79 18.5,1058C 18.3158,1056.62 17.6491,1055.79 16.5,1055.5C 16.1667,1055.5 15.8333,1055.5 15.5,1055.5C 15.5,1052.83 15.5,1050.17 15.5,1047.5C 15.6662,1041.49 15.4995,1035.49 15,1029.5C 14.9977,1026.95 14.1644,1024.95 12.5,1023.5C 11.5036,1007.68 11.1703,991.675 11.5,975.5C 11.8333,975.5 12.1667,975.5 12.5,975.5C 15.2594,966.935 16.2594,957.935 15.5,948.5C 15.5,947.833 15.5,947.167 15.5,946.5C 15.5,946.167 15.5,945.833 15.5,945.5C 16.4959,945.586 17.3292,945.252 18,944.5C 19.094,933.412 20.594,922.412 22.5,911.5C 23.5862,911.38 24.2528,910.713 24.5,909.5C 25.8204,904.887 26.8204,900.221 27.5,895.5C 27.5,894.833 27.5,894.167 27.5,893.5C 30.1992,890.409 31.5326,886.742 31.5,882.5C 31.2627,881.209 31.596,880.209 32.5,879.5C 33.5906,876.11 35.4239,873.11 38,870.5C 38.4966,868.19 38.6633,865.857 38.5,863.5C 39.3764,863.631 40.0431,863.298 40.5,862.5C 41.5379,859.531 43.0379,856.864 45,854.5C 45.4966,852.19 45.6633,849.857 45.5,847.5C 47.1765,846.817 47.8432,845.483 47.5,843.5C 49.5329,841.837 51.3662,839.837 53,837.5C 53.49,836.207 53.6567,834.873 53.5,833.5C 54.6745,829.817 56.3412,826.484 58.5,823.5C 62.53,822.494 64.1967,819.827 63.5,815.5C 64.8221,815.67 65.9887,815.337 67,814.5C 69.1902,809.637 72.1902,805.304 76,801.5C 76.4922,800.451 76.3256,799.451 75.5,798.5C 77.2776,796.736 78.6109,794.736 79.5,792.5C 84.6467,790.175 87.8134,786.175 89,780.5C 90.8153,778.595 92.8153,776.928 95,775.5C 95.49,774.207 95.6567,772.873 95.5,771.5C 96.552,771.649 97.552,771.483 98.5,771C 99.7274,768.438 101.394,766.272 103.5,764.5C 106.162,761.345 109.495,759.178 113.5,758C 115.768,756.442 116.934,754.276 117,751.5C 122.066,746.761 127.399,742.427 133,738.5C 133.959,735.412 135.459,732.745 137.5,730.5C 138.873,730.657 140.207,730.49 141.5,730C 143.493,728.001 145.827,726.501 148.5,725.5C 150.503,723.867 151.836,721.867 152.5,719.5C 153.552,719.649 154.552,719.483 155.5,719C 159.403,716.256 162.736,713.09 165.5,709.5C 167.859,708.824 170.192,707.991 172.5,707C 173.823,706.184 174.489,705.017 174.5,703.5C 174.833,703.5 175.167,703.5 175.5,703.5C 177.527,703.662 179.527,703.495 181.5,703C 183.389,698.611 186.722,696.444 191.5,696.5C 191.5,695.5 191.5,694.5 191.5,693.5C 198.191,693.193 203.525,690.526 207.5,685.5C 213.682,684.409 219.016,681.742 223.5,677.5C 229.519,677.15 234.852,675.15 239.5,671.5C 247.564,668.607 255.898,666.774 264.5,666C 266.49,664.249 268.823,663.249 271.5,663C 274.833,662.667 278.167,662.333 281.5,662C 288.833,659.18 296.166,656.68 303.5,654.5C 303.5,654.167 303.5,653.833 303.5,653.5C 308.833,653.167 314.167,652.833 319.5,652.5C 343.491,651.691 367.491,651.357 391.5,651.5 Z"/></g>
<g><path style="opacity:1" fill="#e1a647" d="M 815.5,650.5 C 820.833,650.5 826.167,650.5 831.5,650.5C 831.5,650.833 831.5,651.167 831.5,651.5C 835.66,652.357 839.993,653.024 844.5,653.5C 846.03,653.64 847.03,654.307 847.5,655.5C 838.261,654.124 828.927,653.124 819.5,652.5C 817.667,652.415 816.334,651.748 815.5,650.5 Z"/></g>
<g><path style="opacity:1" fill="#f79e1a" d="M 815.5,650.5 C 816.334,651.748 817.667,652.415 819.5,652.5C 828.927,653.124 838.261,654.124 847.5,655.5C 850.167,655.5 852.833,655.5 855.5,655.5C 855.833,655.5 856.167,655.5 856.5,655.5C 856.953,656.458 857.619,657.292 858.5,658C 866.364,660.178 874.364,661.511 882.5,662C 884.5,663.333 886.5,664.667 888.5,666C 896.064,667.974 903.731,669.474 911.5,670.5C 912.919,671.451 914.585,671.784 916.5,671.5C 916.682,674.094 917.682,676.261 919.5,678C 926.365,677.76 932.365,679.76 937.5,684C 941.438,685.474 945.438,686.641 949.5,687.5C 949.833,687.5 950.167,687.5 950.5,687.5C 951.83,691.918 954.83,693.585 959.5,692.5C 959.5,693.5 959.5,694.5 959.5,695.5C 963.691,696.262 967.358,698.096 970.5,701C 972.134,701.494 973.801,701.66 975.5,701.5C 976.183,703.176 977.517,703.843 979.5,703.5C 980.52,706.843 982.854,708.843 986.5,709.5C 987.374,711.747 987.708,714.08 987.5,716.5C 988.833,716.5 990.167,716.5 991.5,716.5C 991.272,714.645 991.939,713.812 993.5,714C 994.376,716.376 996.042,717.876 998.5,718.5C 999.246,719.736 999.579,721.07 999.5,722.5C 1002.17,722.833 1004.83,723.167 1007.5,723.5C 1007.5,723.833 1007.5,724.167 1007.5,724.5C 1007.5,725.5 1007.5,726.5 1007.5,727.5C 1008.55,727.351 1009.55,727.517 1010.5,728C 1011.94,730.643 1014.1,732.477 1017,733.5C 1017.73,735.899 1018.9,738.065 1020.5,740C 1018.52,740.605 1018.19,741.605 1019.5,743C 1022.19,743.537 1024.69,743.037 1027,741.5C 1027.33,742.833 1027.67,744.167 1028,745.5C 1034.1,746.753 1036.93,750.42 1036.5,756.5C 1039.43,757.461 1042.43,758.127 1045.5,758.5C 1048.21,762.205 1051.54,765.205 1055.5,767.5C 1055.5,768.167 1055.5,768.833 1055.5,769.5C 1055.24,770.978 1055.57,772.311 1056.5,773.5C 1061.21,777.038 1064.04,781.704 1065,787.5C 1066.79,789.229 1068.96,789.896 1071.5,789.5C 1071.34,791.527 1071.5,793.527 1072,795.5C 1073.78,797.945 1075.11,800.611 1076,803.5C 1077.99,804.218 1079.82,805.218 1081.5,806.5C 1083.6,809.572 1085.6,812.572 1087.5,815.5C 1088.5,815.5 1089.5,815.5 1090.5,815.5C 1090.68,818.216 1091.18,820.883 1092,823.5C 1095.29,827.941 1098.29,832.608 1101,837.5C 1101.67,838.252 1102.5,838.586 1103.5,838.5C 1103.5,839.167 1103.5,839.833 1103.5,840.5C 1104.68,844.423 1105.68,848.423 1106.5,852.5C 1110.19,857.206 1112.69,862.54 1114,868.5C 1115.37,871.266 1117.2,873.599 1119.5,875.5C 1119.16,877.483 1119.82,878.817 1121.5,879.5C 1121.34,882.187 1121.5,884.854 1122,887.5C 1127.17,902.024 1130.5,917.024 1132,932.5C 1133,933.5 1134,934.5 1135,935.5C 1136.33,946.464 1138,957.464 1140,968.5C 1140.5,989.497 1140.67,1010.5 1140.5,1031.5C 1137.51,1041.16 1135.84,1051.16 1135.5,1061.5C 1134.54,1061.95 1133.71,1062.62 1133,1063.5C 1131.87,1067.75 1131.21,1072.08 1131,1076.5C 1128.4,1078.97 1127.9,1081.8 1129.5,1085C 1126.57,1090.8 1125.24,1096.97 1125.5,1103.5C 1121.93,1108.02 1119.93,1113.35 1119.5,1119.5C 1119.5,1121.5 1119.5,1123.5 1119.5,1125.5C 1116.33,1127.99 1114.66,1131.33 1114.5,1135.5C 1113.5,1135.5 1112.5,1135.5 1111.5,1135.5C 1111.41,1140.01 1109.91,1144.01 1107,1147.5C 1106.51,1148.79 1106.34,1150.13 1106.5,1151.5C 1105.45,1154.19 1104.45,1156.86 1103.5,1159.5C 1103.5,1159.83 1103.5,1160.17 1103.5,1160.5C 1101.61,1160.3 1100.11,1160.96 1099,1162.5C 1098.59,1165.23 1097.92,1167.9 1097,1170.5C 1092.9,1174.05 1090.4,1178.39 1089.5,1183.5C 1088.17,1183.5 1087.5,1184.17 1087.5,1185.5C 1083.96,1186.39 1082.3,1188.72 1082.5,1192.5C 1077.3,1193.27 1074.97,1196.27 1075.5,1201.5C 1073.88,1201.36 1072.71,1202.03 1072,1203.5C 1071.51,1202.21 1071.34,1200.87 1071.5,1199.5C 1070.45,1199.35 1069.45,1199.52 1068.5,1200C 1068.83,1201.67 1069.17,1203.33 1069.5,1205C 1067.73,1208.27 1066.73,1211.77 1066.5,1215.5C 1066.17,1215.5 1065.83,1215.5 1065.5,1215.5C 1063.09,1218.41 1060.43,1221.24 1057.5,1224C 1054.27,1225.31 1050.94,1226.31 1047.5,1227C 1044.7,1229.6 1045.03,1231.1 1048.5,1231.5C 1048.65,1232.55 1048.48,1233.55 1048,1234.5C 1045.17,1236 1043,1238.17 1041.5,1241C 1039.74,1241.2 1038.08,1241.7 1036.5,1242.5C 1035.52,1245.1 1034.85,1247.76 1034.5,1250.5C 1032.94,1250.52 1031.44,1250.85 1030,1251.5C 1028.03,1255.46 1024.86,1257.96 1020.5,1259C 1018.62,1261.13 1017.62,1263.63 1017.5,1266.5C 1014.63,1269.02 1011.3,1270.69 1007.5,1271.5C 1007.5,1272.5 1007.5,1273.5 1007.5,1274.5C 1003.72,1274.3 1001.39,1275.96 1000.5,1279.5C 992.756,1284.03 985.423,1289.2 978.5,1295C 977.552,1295.48 976.552,1295.65 975.5,1295.5C 972.593,1295.58 969.927,1296.41 967.5,1298C 964.866,1300.45 962.2,1302.61 959.5,1304.5C 959.5,1305.17 959.5,1305.83 959.5,1306.5C 954.755,1305.54 951.422,1307.21 949.5,1311.5C 947.5,1311.5 945.5,1311.5 943.5,1311.5C 943.5,1312.5 943.5,1313.5 943.5,1314.5C 941.94,1314.52 940.44,1314.85 939,1315.5C 936.57,1317.46 934.07,1319.13 931.5,1320.5C 930.167,1320.5 928.833,1320.5 927.5,1320.5C 921.914,1320.95 916.58,1322.28 911.5,1324.5C 911.5,1325.5 911.5,1326.5 911.5,1327.5C 909.833,1327.5 908.167,1327.5 906.5,1327.5C 890.333,1332.16 874,1336.33 857.5,1340C 855.273,1340.94 853.273,1342.11 851.5,1343.5C 844.87,1344.5 838.203,1345.16 831.5,1345.5C 799.475,1345.72 767.475,1345.05 735.5,1343.5C 727.144,1340.69 718.477,1338.19 709.5,1336C 701.535,1336.01 694.202,1334.01 687.5,1330C 683.546,1328.85 679.546,1328.01 675.5,1327.5C 673.282,1327.39 671.282,1326.72 669.5,1325.5C 666.298,1324.14 663.298,1322.3 660.5,1320C 656.535,1318.93 652.535,1318.1 648.5,1317.5C 647.29,1317.07 646.29,1316.4 645.5,1315.5C 644.194,1314.53 643.527,1313.2 643.5,1311.5C 642.167,1311.5 640.833,1311.5 639.5,1311.5C 638.5,1311.5 637.5,1311.5 636.5,1311.5C 633.115,1308.08 629.449,1304.91 625.5,1302C 620.732,1301.71 616.732,1299.87 613.5,1296.5C 611.604,1295.53 609.604,1295.2 607.5,1295.5C 607.5,1294.5 607.5,1293.5 607.5,1292.5C 603.783,1291.47 600.45,1289.64 597.5,1287C 595.482,1286.5 593.482,1286 591.5,1285.5C 591.5,1284.83 591.5,1284.17 591.5,1283.5C 591.179,1281.95 590.179,1281.29 588.5,1281.5C 588.67,1280.18 588.337,1279.01 587.5,1278C 584.176,1275.75 580.509,1274.59 576.5,1274.5C 577.954,1271.88 579.954,1269.71 582.5,1268C 585.438,1266.17 588.438,1264.67 591.5,1263.5C 593.19,1258.64 596.524,1255.14 601.5,1253C 602.87,1251.56 603.87,1249.89 604.5,1248C 605.448,1247.52 606.448,1247.35 607.5,1247.5C 607.5,1246.17 607.5,1244.83 607.5,1243.5C 608.552,1243.65 609.552,1243.48 610.5,1243C 613.36,1240.14 616.194,1237.31 619,1234.5C 619.483,1233.55 619.649,1232.55 619.5,1231.5C 620.833,1231.5 622.167,1231.5 623.5,1231.5C 623.238,1230.02 623.571,1228.69 624.5,1227.5C 629.109,1223.63 633.276,1219.3 637,1214.5C 638.718,1212.1 639.885,1209.44 640.5,1206.5C 645.549,1200.77 650.382,1194.77 655,1188.5C 655.494,1186.87 655.66,1185.2 655.5,1183.5C 657.592,1183.44 659.092,1182.44 660,1180.5C 662.807,1173.69 666.474,1167.35 671,1161.5C 671.333,1159.83 671.667,1158.17 672,1156.5C 673.713,1155.12 675.047,1153.46 676,1151.5C 680.275,1140.26 684.941,1129.26 690,1118.5C 694.123,1106.35 697.789,1094.02 701,1081.5C 702.481,1075.58 703.314,1069.58 703.5,1063.5C 704.808,1054.2 706.641,1044.86 709,1035.5C 710.967,1010.16 710.8,984.824 708.5,959.5C 707.477,951.229 705.81,943.229 703.5,935.5C 704.036,932.302 703.369,929.635 701.5,927.5C 701.215,920.764 700.381,914.097 699,907.5C 695.266,897.632 691.933,887.632 689,877.5C 686.23,873.022 684.063,868.355 682.5,863.5C 679.4,854.847 675.733,846.514 671.5,838.5C 667.402,830.04 662.402,822.04 656.5,814.5C 655.855,811.772 655.021,809.105 654,806.5C 650.798,803.242 648.131,799.576 646,795.5C 641.389,793.276 638.889,789.61 638.5,784.5C 637.675,783.614 636.675,783.281 635.5,783.5C 635.649,782.448 635.483,781.448 635,780.5C 632.625,778.286 630.125,776.286 627.5,774.5C 622.216,766.549 615.883,759.549 608.5,753.5C 607.571,752.311 607.238,750.978 607.5,749.5C 606.448,749.649 605.448,749.483 604.5,749C 600.864,744.529 596.697,740.696 592,737.5C 591.506,735.866 591.34,734.199 591.5,732.5C 586.467,731.321 582.467,728.655 579.5,724.5C 582.833,724.5 584.5,722.833 584.5,719.5C 588.099,718.897 590.432,716.897 591.5,713.5C 592.873,713.657 594.207,713.49 595.5,713C 599.947,709.443 604.947,706.943 610.5,705.5C 611.763,703.971 612.763,702.305 613.5,700.5C 615.041,699.333 616.375,698 617.5,696.5C 619.364,694.986 621.364,693.653 623.5,692.5C 627.316,691.091 630.983,689.424 634.5,687.5C 638.37,686.756 642.204,685.756 646,684.5C 649.154,682.348 652.32,680.348 655.5,678.5C 661.919,678.283 667.253,675.95 671.5,671.5C 674.518,671.665 677.518,671.498 680.5,671C 698.342,664.912 716.676,660.745 735.5,658.5C 735.5,657.5 735.5,656.5 735.5,655.5C 746.379,653.582 757.045,651.915 767.5,650.5C 783.5,649.167 799.5,649.167 815.5,650.5 Z"/></g>
<g><path style="opacity:1" fill="#fef2d0" d="M 719.5,655.5 C 714.358,658.074 709.024,660.074 703.5,661.5C 697.775,661.707 692.441,663.04 687.5,665.5C 682.435,667.771 677.102,669.437 671.5,670.5C 675.107,669.117 678.441,666.95 681.5,664C 690.115,661.744 698.782,659.744 707.5,658C 708.167,657.333 708.833,656.667 709.5,656C 712.817,655.502 716.15,655.335 719.5,655.5 Z"/></g>
<g><path style="opacity:1" fill="#fae9b9" d="M 861.5,655.5 C 869.529,657.242 877.863,658.408 886.5,659C 889.324,661.079 892.324,662.579 895.5,663.5C 887.027,661.173 878.36,659.673 869.5,659C 866.689,658.017 864.023,656.851 861.5,655.5 Z"/></g>
<g><path style="opacity:1" fill="#c22337" d="M 426.5,655.5 C 433.709,656.764 440.709,658.431 447.5,660.5C 440.803,659.994 434.136,659.16 427.5,658C 426.748,657.329 426.414,656.496 426.5,655.5 Z"/></g>
<g><path style="opacity:1" fill="#eaa22c" d="M 724.5,655.5 C 728.167,655.5 731.833,655.5 735.5,655.5C 735.5,656.5 735.5,657.5 735.5,658.5C 716.676,660.745 698.342,664.912 680.5,671C 677.518,671.498 674.518,671.665 671.5,671.5C 671.5,671.167 671.5,670.833 671.5,670.5C 677.102,669.437 682.435,667.771 687.5,665.5C 693.032,664.532 698.366,663.199 703.5,661.5C 706.187,661.664 708.854,661.497 711.5,661C 714.569,659.154 717.902,658.154 721.5,658C 722.942,657.623 723.942,656.79 724.5,655.5 Z"/></g>
<g><path style="opacity:1" fill="#dfae53" d="M 719.5,655.5 C 721.167,655.5 722.833,655.5 724.5,655.5C 723.942,656.79 722.942,657.623 721.5,658C 717.902,658.154 714.569,659.154 711.5,661C 708.854,661.497 706.187,661.664 703.5,661.5C 709.024,660.074 714.358,658.074 719.5,655.5 Z"/></g>
<g><path style="opacity:1" fill="#e3a847" d="M 856.5,655.5 C 858.167,655.5 859.833,655.5 861.5,655.5C 864.023,656.851 866.689,658.017 869.5,659C 878.36,659.673 887.027,661.173 895.5,663.5C 895.5,663.833 895.5,664.167 895.5,664.5C 901.028,666.04 906.361,668.04 911.5,670.5C 903.731,669.474 896.064,667.974 888.5,666C 886.5,664.667 884.5,663.333 882.5,662C 874.364,661.511 866.364,660.178 858.5,658C 857.619,657.292 856.953,656.458 856.5,655.5 Z"/></g>
<g><path style="opacity:1" fill="#c92a35" d="M 303.5,654.5 C 296.166,656.68 288.833,659.18 281.5,662C 278.167,662.333 274.833,662.667 271.5,663C 268.823,663.249 266.49,664.249 264.5,666C 255.898,666.774 247.564,668.607 239.5,671.5C 243.31,669.602 247.31,667.769 251.5,666C 268.641,660.98 285.974,657.147 303.5,654.5 Z"/></g>
<g><path style="opacity:1" fill="#bb4048" d="M 447.5,660.5 C 450.833,661.167 454.167,661.833 457.5,662.5C 459.75,663.13 461.75,664.13 463.5,665.5C 457.714,664.567 452.381,662.901 447.5,660.5 Z"/></g>
<g><path style="opacity:1" fill="#e9c079" d="M 703.5,661.5 C 698.366,663.199 693.032,664.532 687.5,665.5C 692.441,663.04 697.775,661.707 703.5,661.5 Z"/></g>
<g><path style="opacity:1" fill="#fcf4dc" d="M 921.5,673.5 C 919.716,673.107 918.05,672.441 916.5,671.5C 914.585,671.784 912.919,671.451 911.5,670.5C 906.361,668.04 901.028,666.04 895.5,664.5C 901.182,664.38 906.516,663.38 911.5,661.5C 911.5,662.5 911.5,663.5 911.5,664.5C 910.167,664.5 908.833,664.5 907.5,664.5C 907.5,665.5 907.5,666.5 907.5,667.5C 910.176,666.992 912.843,666.825 915.5,667C 917.413,669.393 919.413,671.559 921.5,673.5 Z"/></g>
<g><path style="opacity:1" fill="#f3bbc7" d="M 479.5,671.5 C 479.5,671.167 479.5,670.833 479.5,670.5C 485.73,669.801 491.063,671.468 495.5,675.5C 490.315,673.665 484.982,672.331 479.5,671.5 Z"/></g>
<g><path style="opacity:1" fill="#e8b056" d="M 671.5,671.5 C 667.253,675.95 661.919,678.283 655.5,678.5C 655.5,678.167 655.5,677.833 655.5,677.5C 658.64,675.67 661.974,673.837 665.5,672C 667.473,671.505 669.473,671.338 671.5,671.5 Z"/></g>
<g><path style="opacity:1" fill="#c74549" d="M 239.5,671.5 C 234.852,675.15 229.519,677.15 223.5,677.5C 223.611,676.883 223.944,676.383 224.5,676C 229.537,674.473 234.537,672.973 239.5,671.5 Z"/></g>
<g><path style="opacity:1" fill="#d01d29" d="M 479.5,671.5 C 484.982,672.331 490.315,673.665 495.5,675.5C 497.5,676.833 499.5,678.167 501.5,679.5C 495.235,678.09 488.901,676.924 482.5,676C 480.137,675.411 479.137,673.911 479.5,671.5 Z"/></g>
<g><path style="opacity:1" fill="#fad6df" d="M 215.5,680.5 C 212.833,682.167 210.167,683.833 207.5,685.5C 205.282,685.614 203.282,686.28 201.5,687.5C 202.234,686.292 202.567,684.959 202.5,683.5C 204.167,683.5 205.833,683.5 207.5,683.5C 207.215,681.712 207.548,680.045 208.5,678.5C 210.618,679.946 212.951,680.613 215.5,680.5 Z"/></g>
<g><path style="opacity:1" fill="#c0313d" d="M 223.5,677.5 C 219.016,681.742 213.682,684.409 207.5,685.5C 210.167,683.833 212.833,682.167 215.5,680.5C 218.193,679.448 220.86,678.448 223.5,677.5 Z"/></g>
<g><path style="opacity:1" fill="#fef3d0" d="M 921.5,673.5 C 924.85,673.335 928.183,673.502 931.5,674C 935.441,676.146 939.441,677.979 943.5,679.5C 943.5,680.5 943.5,681.5 943.5,682.5C 935.764,680.261 928.431,677.261 921.5,673.5 Z"/></g>
<g><path style="opacity:1" fill="#dfaa56" d="M 655.5,678.5 C 652.32,680.348 649.154,682.348 646,684.5C 642.204,685.756 638.37,686.756 634.5,687.5C 634.953,686.542 635.619,685.708 636.5,685C 642.855,682.819 649.188,680.652 655.5,678.5 Z"/></g>
<g><path style="opacity:1" fill="#fcf7dd" d="M 655.5,677.5 C 655.5,677.833 655.5,678.167 655.5,678.5C 649.188,680.652 642.855,682.819 636.5,685C 635.619,685.708 634.953,686.542 634.5,687.5C 630.983,689.424 627.316,691.091 623.5,692.5C 623.821,690.952 624.821,690.285 626.5,690.5C 626.5,689.5 626.5,688.5 626.5,687.5C 625.325,687.719 624.325,687.386 623.5,686.5C 626.441,685.478 629.441,684.645 632.5,684C 639.691,680.45 647.357,678.283 655.5,677.5 Z"/></g>
<g><path style="opacity:1" fill="#e6a541" d="M 916.5,671.5 C 918.05,672.441 919.716,673.107 921.5,673.5C 928.431,677.261 935.764,680.261 943.5,682.5C 945.168,684.513 947.168,686.18 949.5,687.5C 945.438,686.641 941.438,685.474 937.5,684C 932.365,679.76 926.365,677.76 919.5,678C 917.682,676.261 916.682,674.094 916.5,671.5 Z"/></g>
<g><path style="opacity:1" fill="#c12d3a" d="M 501.5,679.5 C 513.391,683.78 524.725,689.114 535.5,695.5C 539.241,698.027 542.908,700.694 546.5,703.5C 542.203,703.606 538.87,701.939 536.5,698.5C 525.42,692.96 514.42,687.46 503.5,682C 502.619,681.292 501.953,680.458 501.5,679.5 Z"/></g>
<g><path style="opacity:1" fill="#daa94f" d="M 950.5,687.5 C 951.5,687.5 952.5,687.5 953.5,687.5C 955.131,689.643 957.131,691.31 959.5,692.5C 954.83,693.585 951.83,691.918 950.5,687.5 Z"/></g>
<g><path style="opacity:1" fill="#c33440" d="M 207.5,685.5 C 203.525,690.526 198.191,693.193 191.5,693.5C 194.503,691.209 197.836,689.209 201.5,687.5C 203.282,686.28 205.282,685.614 207.5,685.5 Z"/></g>
<g><path style="opacity:1" fill="#fceec9" d="M 953.5,687.5 C 960.576,690.371 967.242,693.704 973.5,697.5C 975.465,698.292 977.465,698.959 979.5,699.5C 980.705,700.577 981.372,701.91 981.5,703.5C 980.833,703.5 980.167,703.5 979.5,703.5C 977.517,703.843 976.183,703.176 975.5,701.5C 974.652,699.907 973.319,698.74 971.5,698C 967.271,696.459 963.271,694.626 959.5,692.5C 957.131,691.31 955.131,689.643 953.5,687.5 Z"/></g>
<g><path style="opacity:1" fill="#e1aa44" d="M 959.5,692.5 C 963.271,694.626 967.271,696.459 971.5,698C 973.319,698.74 974.652,699.907 975.5,701.5C 973.801,701.66 972.134,701.494 970.5,701C 967.358,698.096 963.691,696.262 959.5,695.5C 959.5,694.5 959.5,693.5 959.5,692.5 Z"/></g>
<g><path style="opacity:1" fill="#fcdde1" d="M 535.5,695.5 C 540.081,697.817 545.081,699.317 550.5,700C 552.763,703.399 555.096,706.566 557.5,709.5C 553.922,707.925 550.589,705.925 547.5,703.5C 547.167,703.5 546.833,703.5 546.5,703.5C 542.908,700.694 539.241,698.027 535.5,695.5 Z"/></g>
<g><path style="opacity:1" fill="#d0363f" d="M 191.5,693.5 C 191.5,694.5 191.5,695.5 191.5,696.5C 186.722,696.444 183.389,698.611 181.5,703C 179.527,703.495 177.527,703.662 175.5,703.5C 175.414,702.504 175.748,701.671 176.5,701C 181.285,697.941 186.285,695.441 191.5,693.5 Z"/></g>
<g><path style="opacity:1" fill="#f0ca85" d="M 617.5,696.5 C 616.375,698 615.041,699.333 613.5,700.5C 611.5,701.167 609.5,701.833 607.5,702.5C 609.903,699.224 613.237,697.224 617.5,696.5 Z"/></g>
<g><path style="opacity:1" fill="#e7a338" d="M 613.5,700.5 C 612.763,702.305 611.763,703.971 610.5,705.5C 604.947,706.943 599.947,709.443 595.5,713C 594.207,713.49 592.873,713.657 591.5,713.5C 591.5,713.167 591.5,712.833 591.5,712.5C 597.152,709.482 602.485,706.149 607.5,702.5C 609.5,701.833 611.5,701.167 613.5,700.5 Z"/></g>
<g><path style="opacity:1" fill="#fbf3cd" d="M 623.5,692.5 C 621.364,693.653 619.364,694.986 617.5,696.5C 613.237,697.224 609.903,699.224 607.5,702.5C 602.485,706.149 597.152,709.482 591.5,712.5C 591.5,711.167 591.5,709.833 591.5,708.5C 592.978,708.762 594.311,708.429 595.5,707.5C 603.654,700.421 612.988,695.421 623.5,692.5 Z"/></g>
<g><path style="opacity:1" fill="#c23c42" d="M 174.5,703.5 C 174.489,705.017 173.823,706.184 172.5,707C 170.192,707.991 167.859,708.824 165.5,709.5C 165.369,708.624 165.702,707.957 166.5,707.5C 168.955,705.703 171.622,704.37 174.5,703.5 Z"/></g>
<g><path style="opacity:1" fill="#b72637" d="M 547.5,703.5 C 550.589,705.925 553.922,707.925 557.5,709.5C 558.167,710.167 558.833,710.833 559.5,711.5C 558.127,711.657 556.793,711.49 555.5,711C 553.844,709.171 551.844,707.837 549.5,707C 548.177,706.184 547.511,705.017 547.5,703.5 Z"/></g>
<g><path style="opacity:1" fill="#e7aa42" d="M 979.5,703.5 C 980.167,703.5 980.833,703.5 981.5,703.5C 987.308,706.922 992.641,711.089 997.5,716C 1000,716.955 1002.34,718.122 1004.5,719.5C 1005.79,720.637 1006.79,721.97 1007.5,723.5C 1004.83,723.167 1002.17,722.833 999.5,722.5C 999.579,721.07 999.246,719.736 998.5,718.5C 996.042,717.876 994.376,716.376 993.5,714C 991.939,713.812 991.272,714.645 991.5,716.5C 990.167,716.5 988.833,716.5 987.5,716.5C 987.708,714.08 987.374,711.747 986.5,709.5C 982.854,708.843 980.52,706.843 979.5,703.5 Z"/></g>
<g><path style="opacity:1" fill="#eaa84d" d="M 591.5,713.5 C 590.432,716.897 588.099,718.897 584.5,719.5C 584.5,722.833 582.833,724.5 579.5,724.5C 578.5,724.5 577.5,724.5 576.5,724.5C 576.167,723.833 575.833,723.167 575.5,722.5C 576.552,722.649 577.552,722.483 578.5,722C 582.42,718.589 586.753,715.755 591.5,713.5 Z"/></g>
<g><path style="opacity:1" fill="#ca3039" d="M 165.5,709.5 C 162.736,713.09 159.403,716.256 155.5,719C 154.552,719.483 153.552,719.649 152.5,719.5C 151.836,721.867 150.503,723.867 148.5,725.5C 145.827,726.501 143.493,728.001 141.5,730C 140.207,730.49 138.873,730.657 137.5,730.5C 144.831,723.842 152.498,717.509 160.5,711.5C 162.075,710.544 163.742,709.877 165.5,709.5 Z"/></g>
<g><path style="opacity:1" fill="#fceec6" d="M 1004.5,719.5 C 1006.2,719.34 1007.87,719.506 1009.5,720C 1012.85,725.52 1017.51,729.354 1023.5,731.5C 1023.5,732.833 1023.5,734.167 1023.5,735.5C 1019.74,733.949 1016.74,731.449 1014.5,728C 1012.03,727.011 1009.7,725.845 1007.5,724.5C 1007.5,724.167 1007.5,723.833 1007.5,723.5C 1006.79,721.97 1005.79,720.637 1004.5,719.5 Z"/></g>
<g><path style="opacity:1" fill="#fe5f02" d="M 576.5,724.5 C 577.5,724.5 578.5,724.5 579.5,724.5C 582.467,728.655 586.467,731.321 591.5,732.5C 591.34,734.199 591.506,735.866 592,737.5C 596.697,740.696 600.864,744.529 604.5,749C 605.448,749.483 606.448,749.649 607.5,749.5C 607.238,750.978 607.571,752.311 608.5,753.5C 615.883,759.549 622.216,766.549 627.5,774.5C 627.5,776.167 627.5,777.833 627.5,779.5C 631.713,779.699 633.046,781.699 631.5,785.5C 632.363,789.113 634.697,791.113 638.5,791.5C 639.897,793.933 641.397,796.266 643,798.5C 647.18,802.181 649.847,806.848 651,812.5C 657.13,819.664 662.13,827.664 666,836.5C 667.725,837.464 669.559,838.131 671.5,838.5C 675.733,846.514 679.4,854.847 682.5,863.5C 682.375,868.333 683.208,873 685,877.5C 688.958,888.054 693.291,898.387 698,908.5C 698.333,913.833 698.667,919.167 699,924.5C 699.377,925.942 700.21,926.942 701.5,927.5C 703.369,929.635 704.036,932.302 703.5,935.5C 705.614,953.214 707.281,971.047 708.5,989C 707.877,997.414 707.877,1005.75 708.5,1014C 706.599,1024.79 705.099,1035.62 704,1046.5C 703.501,1052.16 703.334,1057.82 703.5,1063.5C 703.314,1069.58 702.481,1075.58 701,1081.5C 697.789,1094.02 694.123,1106.35 690,1118.5C 684.941,1129.26 680.275,1140.26 676,1151.5C 675.047,1153.46 673.713,1155.12 672,1156.5C 671.667,1158.17 671.333,1159.83 671,1161.5C 666.474,1167.35 662.807,1173.69 660,1180.5C 659.092,1182.44 657.592,1183.44 655.5,1183.5C 655.66,1185.2 655.494,1186.87 655,1188.5C 650.382,1194.77 645.549,1200.77 640.5,1206.5C 639.885,1209.44 638.718,1212.1 637,1214.5C 633.276,1219.3 629.109,1223.63 624.5,1227.5C 623.571,1228.69 623.238,1230.02 623.5,1231.5C 622.167,1231.5 620.833,1231.5 619.5,1231.5C 619.649,1232.55 619.483,1233.55 619,1234.5C 616.194,1237.31 613.36,1240.14 610.5,1243C 609.552,1243.48 608.552,1243.65 607.5,1243.5C 607.5,1244.83 607.5,1246.17 607.5,1247.5C 606.448,1247.35 605.448,1247.52 604.5,1248C 603.87,1249.89 602.87,1251.56 601.5,1253C 596.524,1255.14 593.19,1258.64 591.5,1263.5C 588.438,1264.67 585.438,1266.17 582.5,1268C 579.954,1269.71 577.954,1271.88 576.5,1274.5C 576.167,1274.5 575.833,1274.5 575.5,1274.5C 575.703,1272.61 575.037,1271.11 573.5,1270C 562.082,1261.32 551.416,1251.82 541.5,1241.5C 531.861,1230.03 522.028,1218.69 512,1207.5C 511.667,1206.17 511.333,1204.83 511,1203.5C 504.411,1195.92 499.077,1187.59 495,1178.5C 492.22,1174.05 489.054,1169.89 485.5,1166C 483.313,1160.71 480.646,1155.88 477.5,1151.5C 474.749,1144.31 472.249,1136.98 470,1129.5C 468.523,1125.21 466.523,1121.21 464,1117.5C 463.505,1115.53 463.338,1113.53 463.5,1111.5C 460.477,1098.24 457.311,1084.9 454,1071.5C 453.297,1068.29 453.464,1065.12 454.5,1062C 452.482,1059.83 452.149,1057.5 453.5,1055C 450.898,1050.19 449.898,1045.02 450.5,1039.5C 449.5,1039.5 448.5,1039.5 447.5,1039.5C 444.668,1012.8 444.834,986.129 448,959.5C 450,956.833 452,954.167 454,951.5C 454.497,948.854 454.664,946.187 454.5,943.5C 453.5,943.5 452.5,943.5 451.5,943.5C 451.849,937.16 452.349,930.827 453,924.5C 454.997,919.766 456.164,914.766 456.5,909.5C 457.866,907.63 459.033,905.63 460,903.5C 460.481,899.469 461.147,895.469 462,891.5C 464.949,890.056 467.782,888.389 470.5,886.5C 469.975,885.808 469.308,885.308 468.5,885C 469.719,882.717 469.719,880.384 468.5,878C 472.702,870.223 475.036,870.723 475.5,879.5C 476.833,879.5 478.167,879.5 479.5,879.5C 479.5,874.167 479.5,868.833 479.5,863.5C 478.5,863.5 477.5,863.5 476.5,863.5C 476.335,860.482 476.502,857.482 477,854.5C 479.103,852.697 479.936,850.364 479.5,847.5C 479.725,843.246 481.391,839.58 484.5,836.5C 486.151,831.206 488.318,826.206 491,821.5C 496.588,814.765 501.088,807.431 504.5,799.5C 505.822,799.67 506.989,799.337 508,798.5C 510.517,794.63 512.85,790.63 515,786.5C 526.343,773.326 537.843,760.326 549.5,747.5C 559.153,740.431 568.153,732.765 576.5,724.5 Z"/></g>
<g><path style="opacity:1" fill="#e9a22e" d="M 1007.5,724.5 C 1009.7,725.845 1012.03,727.011 1014.5,728C 1016.74,731.449 1019.74,733.949 1023.5,735.5C 1025.45,738.118 1027.79,740.452 1030.5,742.5C 1032.9,745.903 1035.9,748.57 1039.5,750.5C 1039.5,751.167 1039.83,751.5 1040.5,751.5C 1041.75,754.093 1043.42,756.427 1045.5,758.5C 1042.43,758.127 1039.43,757.461 1036.5,756.5C 1036.93,750.42 1034.1,746.753 1028,745.5C 1027.67,744.167 1027.33,742.833 1027,741.5C 1024.69,743.037 1022.19,743.537 1019.5,743C 1018.19,741.605 1018.52,740.605 1020.5,740C 1018.9,738.065 1017.73,735.899 1017,733.5C 1014.1,732.477 1011.94,730.643 1010.5,728C 1009.55,727.517 1008.55,727.351 1007.5,727.5C 1007.5,726.5 1007.5,725.5 1007.5,724.5 Z"/></g>
<g><path style="opacity:1" fill="#f8d897" d="M 1030.5,742.5 C 1034.15,744.482 1037.15,747.149 1039.5,750.5C 1035.9,748.57 1032.9,745.903 1030.5,742.5 Z"/></g>
<g><path style="opacity:1" fill="#da6b75" d="M 119.5,746.5 C 118.167,748.5 116.5,750.167 114.5,751.5C 115.167,748.833 116.833,747.167 119.5,746.5 Z"/></g>
<g><path style="opacity:1" fill="#c8494d" d="M 114.5,751.5 C 114.291,752.922 113.791,754.255 113,755.5C 109.537,757.476 106.37,759.81 103.5,762.5C 103.369,761.761 103.536,761.094 104,760.5C 107.519,757.384 111.019,754.384 114.5,751.5 Z"/></g>
<g><path style="opacity:1" fill="#d01e2c" d="M 137.5,730.5 C 135.459,732.745 133.959,735.412 133,738.5C 127.399,742.427 122.066,746.761 117,751.5C 116.934,754.276 115.768,756.442 113.5,758C 109.495,759.178 106.162,761.345 103.5,764.5C 103.5,763.833 103.5,763.167 103.5,762.5C 106.37,759.81 109.537,757.476 113,755.5C 113.791,754.255 114.291,752.922 114.5,751.5C 116.5,750.167 118.167,748.5 119.5,746.5C 124.88,740.453 130.88,735.12 137.5,730.5 Z"/></g>
<g><path style="opacity:1" fill="#fae1b3" d="M 1040.5,751.5 C 1045.13,755.926 1049.97,760.259 1055,764.5C 1055.48,765.448 1055.65,766.448 1055.5,767.5C 1051.54,765.205 1048.21,762.205 1045.5,758.5C 1043.42,756.427 1041.75,754.093 1040.5,751.5 Z"/></g>
<g><path style="opacity:1" fill="#c2444c" d="M 103.5,762.5 C 103.5,763.167 103.5,763.833 103.5,764.5C 101.394,766.272 99.7274,768.438 98.5,771C 97.552,771.483 96.552,771.649 95.5,771.5C 97.7954,768.203 100.462,765.203 103.5,762.5 Z"/></g>
<g><path style="opacity:1" fill="#e4a63c" d="M 1055.5,769.5 C 1057.72,770.203 1059.55,771.536 1061,773.5C 1064.29,779.119 1067.79,784.453 1071.5,789.5C 1068.96,789.896 1066.79,789.229 1065,787.5C 1064.04,781.704 1061.21,777.038 1056.5,773.5C 1055.57,772.311 1055.24,770.978 1055.5,769.5 Z"/></g>
<g><path style="opacity:1" fill="#c6363e" d="M 95.5,771.5 C 95.6567,772.873 95.49,774.207 95,775.5C 92.8153,776.928 90.8153,778.595 89,780.5C 87.8134,786.175 84.6467,790.175 79.5,792.5C 79.3505,791.448 79.5172,790.448 80,789.5C 85.0796,783.457 90.2462,777.457 95.5,771.5 Z"/></g>
<g><path style="opacity:1" fill="#eaa63a" d="M 1071.5,789.5 C 1073.75,791.244 1075.92,793.244 1078,795.5C 1082.74,801.754 1086.91,808.421 1090.5,815.5C 1089.5,815.5 1088.5,815.5 1087.5,815.5C 1085.6,812.572 1083.6,809.572 1081.5,806.5C 1079.82,805.218 1077.99,804.218 1076,803.5C 1075.11,800.611 1073.78,797.945 1072,795.5C 1071.5,793.527 1071.34,791.527 1071.5,789.5 Z"/></g>
<g><path style="opacity:1" fill="#c93a3f" d="M 79.5,792.5 C 78.6109,794.736 77.2776,796.736 75.5,798.5C 76.3256,799.451 76.4922,800.451 76,801.5C 72.1902,805.304 69.1902,809.637 67,814.5C 65.9887,815.337 64.8221,815.67 63.5,815.5C 66.812,808.88 70.6453,802.547 75,796.5C 76.3712,794.959 77.8712,793.625 79.5,792.5 Z"/></g>
<g><path style="opacity:1" fill="#f56902" d="M 627.5,774.5 C 630.125,776.286 632.625,778.286 635,780.5C 635.483,781.448 635.649,782.448 635.5,783.5C 636.675,783.281 637.675,783.614 638.5,784.5C 638.889,789.61 641.389,793.276 646,795.5C 648.131,799.576 650.798,803.242 654,806.5C 655.021,809.105 655.855,811.772 656.5,814.5C 662.402,822.04 667.402,830.04 671.5,838.5C 669.559,838.131 667.725,837.464 666,836.5C 662.13,827.664 657.13,819.664 651,812.5C 649.847,806.848 647.18,802.181 643,798.5C 641.397,796.266 639.897,793.933 638.5,791.5C 634.697,791.113 632.363,789.113 631.5,785.5C 633.046,781.699 631.713,779.699 627.5,779.5C 627.5,777.833 627.5,776.167 627.5,774.5 Z"/></g>
<g><path style="opacity:1" fill="#010101" d="M 2415.5,813.5 C 2415.5,836.833 2415.5,860.167 2415.5,883.5C 2443.17,883.5 2470.83,883.5 2498.5,883.5C 2498.5,898.833 2498.5,914.167 2498.5,929.5C 2470.83,929.5 2443.17,929.5 2415.5,929.5C 2415.17,965.337 2415.5,1001 2416.5,1036.5C 2417.74,1067.14 2433.4,1078.97 2463.5,1072C 2474.06,1069.55 2484.06,1065.72 2493.5,1060.5C 2495.09,1063.42 2496.59,1066.42 2498,1069.5C 2501.03,1079.63 2504.36,1089.63 2508,1099.5C 2508.8,1101.26 2508.63,1102.93 2507.5,1104.5C 2475.89,1122.58 2442.56,1126.42 2407.5,1116C 2392.93,1110.76 2382.1,1101.26 2375,1087.5C 2369.51,1075.06 2366.18,1062.06 2365,1048.5C 2364.5,1008.83 2364.33,969.168 2364.5,929.5C 2349.5,929.5 2334.5,929.5 2319.5,929.5C 2318.52,914.245 2318.18,898.911 2318.5,883.5C 2333.83,883.5 2349.17,883.5 2364.5,883.5C 2365.5,860.339 2365.83,837.006 2365.5,813.5C 2382.17,813.5 2398.83,813.5 2415.5,813.5 Z"/></g>
<g><path style="opacity:1" fill="#404040" d="M 2415.5,812.5 C 2415.5,812.833 2415.5,813.167 2415.5,813.5C 2398.83,813.5 2382.17,813.5 2365.5,813.5C 2365.83,837.006 2365.5,860.339 2364.5,883.5C 2364.5,859.833 2364.5,836.167 2364.5,812.5C 2381.5,812.5 2398.5,812.5 2415.5,812.5 Z"/></g>
<g><path style="opacity:1" fill="#c94b55" d="M 63.5,815.5 C 64.1967,819.827 62.53,822.494 58.5,823.5C 59.3833,820.296 61.0499,817.629 63.5,815.5 Z"/></g>
<g><path style="opacity:1" fill="#e2ae4e" d="M 1090.5,815.5 C 1095.3,822.425 1099.64,829.758 1103.5,837.5C 1103.5,837.833 1103.5,838.167 1103.5,838.5C 1102.5,838.586 1101.67,838.252 1101,837.5C 1098.29,832.608 1095.29,827.941 1092,823.5C 1091.18,820.883 1090.68,818.216 1090.5,815.5 Z"/></g>
<g><path style="opacity:1" fill="#f8e5ba" d="M 1103.5,837.5 C 1104.5,837.414 1105.33,837.748 1106,838.5C 1108.89,843.797 1110.72,849.463 1111.5,855.5C 1109.16,851.482 1107.33,847.149 1106,842.5C 1105.29,841.619 1104.46,840.953 1103.5,840.5C 1103.5,839.833 1103.5,839.167 1103.5,838.5C 1103.5,838.167 1103.5,837.833 1103.5,837.5 Z"/></g>
<g><path style="opacity:1" fill="#cc5055" d="M 53.5,833.5 C 53.6567,834.873 53.49,836.207 53,837.5C 51.3662,839.837 49.5329,841.837 47.5,843.5C 48.4977,839.495 50.4977,836.161 53.5,833.5 Z"/></g>
<g><path style="opacity:1" fill="#c83642" d="M 45.5,847.5 C 45.6633,849.857 45.4966,852.19 45,854.5C 43.0379,856.864 41.5379,859.531 40.5,862.5C 40.0431,863.298 39.3764,863.631 38.5,863.5C 40.242,857.794 42.5753,852.461 45.5,847.5 Z"/></g>
<g><path style="opacity:1" fill="#f6daa4" d="M 1112.5,857.5 C 1113.48,858.141 1114.48,858.807 1115.5,859.5C 1116.25,863.756 1117.59,867.756 1119.5,871.5C 1118.54,871.047 1117.71,870.381 1117,869.5C 1116.23,865.132 1114.73,861.132 1112.5,857.5 Z"/></g>
<g><path style="opacity:1" fill="#e5a846" d="M 1103.5,840.5 C 1104.46,840.953 1105.29,841.619 1106,842.5C 1107.33,847.149 1109.16,851.482 1111.5,855.5C 1112.34,855.842 1112.67,856.508 1112.5,857.5C 1114.73,861.132 1116.23,865.132 1117,869.5C 1117.71,870.381 1118.54,871.047 1119.5,871.5C 1119.5,872.5 1119.5,873.5 1119.5,874.5C 1119.5,874.833 1119.5,875.167 1119.5,875.5C 1117.2,873.599 1115.37,871.266 1114,868.5C 1112.69,862.54 1110.19,857.206 1106.5,852.5C 1105.68,848.423 1104.68,844.423 1103.5,840.5 Z"/></g>
<g><path style="opacity:1" fill="#c44f54" d="M 38.5,863.5 C 38.6633,865.857 38.4966,868.19 38,870.5C 35.4239,873.11 33.5906,876.11 32.5,879.5C 32.523,877.073 33.023,874.74 34,872.5C 35.8009,869.563 37.3009,866.563 38.5,863.5 Z"/></g>
<g><path style="opacity:1" fill="#010101" d="M 1742.5,957.5 C 1742.5,1010.17 1742.5,1062.83 1742.5,1115.5C 1725.83,1115.5 1709.17,1115.5 1692.5,1115.5C 1692.67,1068.83 1692.5,1022.17 1692,975.5C 1691.22,954.4 1681.72,938.9 1663.5,929C 1649.27,924.743 1634.94,924.409 1620.5,928C 1598.51,937.119 1586.68,953.619 1585,977.5C 1584.5,1023.5 1584.33,1069.5 1584.5,1115.5C 1567.5,1115.5 1550.5,1115.5 1533.5,1115.5C 1533.67,1070.17 1533.5,1024.83 1533,979.5C 1533.06,967.347 1530.06,956.014 1524,945.5C 1513.41,931.458 1499.25,924.791 1481.5,925.5C 1448.8,927.031 1430.3,944.031 1426,976.5C 1425.5,1022.83 1425.33,1069.17 1425.5,1115.5C 1408.5,1115.5 1391.5,1115.5 1374.5,1115.5C 1374.5,1038.17 1374.5,960.833 1374.5,883.5C 1391.5,883.5 1408.5,883.5 1425.5,883.5C 1425.33,892.839 1425.5,902.173 1426,911.5C 1442.21,887.727 1464.88,876.394 1494,877.5C 1526.36,878.095 1551.86,891.428 1570.5,917.5C 1589.7,890.023 1616.2,876.69 1650,877.5C 1676.34,877.143 1699.34,885.476 1719,902.5C 1732.85,918.205 1740.68,936.539 1742.5,957.5 Z"/></g>
<g><path style="opacity:1" fill="#020202" d="M 2027.5,883.5 C 2027.5,960.833 2027.5,1038.17 2027.5,1115.5C 2010.83,1115.5 1994.17,1115.5 1977.5,1115.5C 1977.83,1106.81 1977.5,1098.14 1976.5,1089.5C 1961.39,1106.73 1942.39,1117.23 1919.5,1121C 1854.16,1124.98 1811.66,1095.81 1792,1033.5C 1780.1,983.558 1792.27,940.725 1828.5,905C 1860.07,879.45 1895.73,871.784 1935.5,882C 1952.53,887.576 1966.37,897.41 1977,911.5C 1977.5,902.173 1977.67,892.839 1977.5,883.5C 1994.17,883.5 2010.83,883.5 2027.5,883.5 Z"/></g>
<g><path style="opacity:1" fill="#030303" d="M 2167.5,877.5 C 2197.71,876.108 2227.04,880.275 2255.5,890C 2263.12,893.477 2270.46,897.477 2277.5,902C 2270.58,914.594 2264.08,927.427 2258,940.5C 2257.31,941.357 2256.48,942.023 2255.5,942.5C 2228.18,927.172 2198.84,921.005 2167.5,924C 2154.88,925.719 2145.71,932.219 2140,943.5C 2138.24,951.662 2140.41,958.496 2146.5,964C 2151.32,966.496 2156.32,968.496 2161.5,970C 2187.85,973.21 2213.85,978.21 2239.5,985C 2253.05,990.898 2264.55,999.398 2274,1010.5C 2282.7,1024.64 2285.7,1039.97 2283,1056.5C 2278.9,1078.53 2267.07,1095.03 2247.5,1106C 2224.95,1117.48 2200.95,1122.65 2175.5,1121.5C 2143.63,1122.12 2113.96,1114.45 2086.5,1098.5C 2083.1,1096.47 2080.1,1093.97 2077.5,1091C 2084.89,1077.69 2092.89,1064.86 2101.5,1052.5C 2124.57,1069.52 2150.57,1077.52 2179.5,1076.5C 2195.45,1077.21 2210.12,1073.37 2223.5,1065C 2230.14,1058.5 2232.3,1050.67 2230,1041.5C 2224.23,1034.03 2216.73,1029.2 2207.5,1027C 2189.9,1023.92 2172.23,1021.26 2154.5,1019C 2133.39,1015.38 2115.22,1006.21 2100,991.5C 2085.12,970.031 2082.46,947.031 2092,922.5C 2102.57,902.611 2118.73,889.445 2140.5,883C 2149.6,880.948 2158.6,879.114 2167.5,877.5 Z"/></g>
<g><path style="opacity:1" fill="#020202" d="M 2766.5,1010.5 C 2765.53,1012.95 2765.19,1015.61 2765.5,1018.5C 2708,1018.17 2650.66,1018.5 2593.5,1019.5C 2598.06,1048.23 2614.4,1066.4 2642.5,1074C 2667.89,1077.98 2691.89,1073.98 2714.5,1062C 2719.16,1058.33 2724.16,1055.17 2729.5,1052.5C 2730.67,1052.92 2731.67,1053.59 2732.5,1054.5C 2739.65,1066.14 2746.98,1077.64 2754.5,1089C 2735.19,1105.65 2712.86,1115.82 2687.5,1119.5C 2675.88,1120.94 2664.22,1121.6 2652.5,1121.5C 2595.87,1117.37 2559.71,1088.04 2544,1033.5C 2535.91,997.792 2540.25,963.792 2557,931.5C 2585.26,889.469 2624.76,871.969 2675.5,879C 2722.46,889.298 2751.63,917.798 2763,964.5C 2766.03,979.683 2767.19,995.016 2766.5,1010.5 Z"/></g>
<g><path style="opacity:1" fill="#010101" d="M 2869.5,977.5 C 2868.5,1023.33 2868.17,1069.33 2868.5,1115.5C 2851.83,1115.5 2835.17,1115.5 2818.5,1115.5C 2818.5,1038.17 2818.5,960.833 2818.5,883.5C 2835.17,883.5 2851.83,883.5 2868.5,883.5C 2868.33,892.506 2868.5,901.506 2869,910.5C 2870.04,909.627 2870.88,908.627 2871.5,907.5C 2884.42,887.87 2902.75,877.87 2926.5,877.5C 2939.99,877.359 2952.99,879.692 2965.5,884.5C 2960.19,900.11 2955.19,915.776 2950.5,931.5C 2935.65,925.77 2920.32,924.27 2904.5,927C 2889.29,931.208 2878.79,940.708 2873,955.5C 2870.99,962.711 2869.82,970.044 2869.5,977.5 Z"/></g>
<g><path style="opacity:1" fill="#020202" d="M 3060.5,1090.5 C 3060.63,1089.62 3060.3,1088.96 3059.5,1088.5C 3058.5,1125.49 3058.17,1162.49 3058.5,1199.5C 3041.83,1199.5 3025.17,1199.5 3008.5,1199.5C 3008.5,1094.17 3008.5,988.833 3008.5,883.5C 3025.17,883.5 3041.83,883.5 3058.5,883.5C 3058.5,891.5 3058.5,899.5 3058.5,907.5C 3058.37,908.376 3058.7,909.043 3059.5,909.5C 3073.87,891.48 3092.53,880.98 3115.5,878C 3161.53,873.443 3198.7,889.276 3227,925.5C 3254.19,971.259 3255.53,1017.93 3231,1065.5C 3204.83,1105.48 3167.66,1123.98 3119.5,1121C 3095.79,1118.41 3076.12,1108.24 3060.5,1090.5 Z"/></g>
<g><path style="opacity:1" fill="#020202" d="M 3391.5,877.5 C 3415.4,875.973 3437.4,881.473 3457.5,894C 3463.53,898.939 3469.03,904.439 3474,910.5C 3474.5,901.506 3474.67,892.506 3474.5,883.5C 3491.5,883.5 3508.5,883.5 3525.5,883.5C 3525.5,960.833 3525.5,1038.17 3525.5,1115.5C 3508.5,1115.5 3491.5,1115.5 3474.5,1115.5C 3474.67,1106.49 3474.5,1097.49 3474,1088.5C 3458.99,1107.26 3439.49,1118.09 3415.5,1121C 3350.63,1124.44 3308.46,1095.27 3289,1033.5C 3279.17,991.436 3286.84,953.103 3312,918.5C 3333.03,894.07 3359.53,880.404 3391.5,877.5 Z"/></g>
<g><path style="opacity:1" fill="#030303" d="M 3659.5,878.5 C 3697.85,874.66 3734.18,881.16 3768.5,898C 3770.81,899.314 3772.81,900.981 3774.5,903C 3768.86,913.78 3763.36,924.613 3758,935.5C 3756.33,938.001 3754.49,940.334 3752.5,942.5C 3726.07,927.98 3697.74,921.813 3667.5,924C 3657.06,924.917 3648.23,929.083 3641,936.5C 3634.2,947.013 3635.37,956.513 3644.5,965C 3649.14,967.818 3654.14,969.818 3659.5,971C 3685.27,973.387 3710.61,978.054 3735.5,985C 3779.35,1004.48 3791.51,1036.31 3772,1080.5C 3757.61,1100.63 3738.11,1113.13 3713.5,1118C 3668.51,1127.55 3625.84,1121.55 3585.5,1100C 3581.43,1097.64 3577.77,1094.81 3574.5,1091.5C 3581.59,1078.3 3589.43,1065.63 3598,1053.5C 3631.27,1075.18 3667.43,1081.68 3706.5,1073C 3715.74,1070.42 3722.58,1064.92 3727,1056.5C 3730.48,1046.93 3727.98,1039.43 3719.5,1034C 3715.06,1031.44 3710.39,1029.44 3705.5,1028C 3685.16,1024.74 3664.82,1021.41 3644.5,1018C 3621.38,1012.88 3603.21,1000.72 3590,981.5C 3579.46,956.117 3581.8,932.117 3597,909.5C 3608.6,896.576 3622.76,887.742 3639.5,883C 3646.3,881.496 3652.97,879.996 3659.5,878.5 Z"/></g>
<g><path style="opacity:1" fill="#030303" d="M 3903.5,878.5 C 3934.7,876.358 3965.04,880.192 3994.5,890C 4001.99,893.271 4009.16,897.104 4016,901.5C 4015.87,905.797 4014.53,909.797 4012,913.5C 4006.48,922.547 4001.48,931.88 3997,941.5C 3996.44,942.022 3995.77,942.355 3995,942.5C 3968.94,928.51 3941.11,922.343 3911.5,924C 3900.11,924.613 3890.61,929.113 3883,937.5C 3876.43,949.778 3878.93,959.612 3890.5,967C 3894.71,968.71 3899.04,970.043 3903.5,971C 3927.75,974.031 3951.75,978.364 3975.5,984C 4015.59,999.35 4030.43,1027.85 4020,1069.5C 4014.14,1082.37 4005.64,1093.2 3994.5,1102C 3970.57,1116.36 3944.57,1123.19 3916.5,1122.5C 3885.67,1122.37 3856.67,1115.21 3829.5,1101C 3825.02,1098.34 3821.02,1095.18 3817.5,1091.5C 3824.75,1078 3832.75,1065 3841.5,1052.5C 3853.48,1062.45 3867.15,1069.29 3882.5,1073C 3904.52,1077.57 3926.52,1077.57 3948.5,1073C 3957.18,1070.74 3964.02,1065.91 3969,1058.5C 3972.43,1049.28 3970.6,1041.45 3963.5,1035C 3954.87,1029.84 3945.54,1026.5 3935.5,1025C 3912.93,1023.24 3890.93,1018.91 3869.5,1012C 3836.93,998.739 3822.77,974.572 3827,939.5C 3829.54,922.909 3837.38,909.409 3850.5,899C 3866.41,887.532 3884.07,880.699 3903.5,878.5 Z"/></g>
<g><path style="opacity:1" fill="#a5a5a5" d="M 2415.5,812.5 C 2416.5,835.661 2416.83,858.994 2416.5,882.5C 2444.01,882.169 2471.34,882.502 2498.5,883.5C 2470.83,883.5 2443.17,883.5 2415.5,883.5C 2415.5,860.167 2415.5,836.833 2415.5,813.5C 2415.5,813.167 2415.5,812.833 2415.5,812.5 Z"/></g>
<g><path style="opacity:1" fill="#afafaf" d="M 2868.5,883.5 C 2868.85,891.719 2869.85,899.719 2871.5,907.5C 2870.88,908.627 2870.04,909.627 2869,910.5C 2868.5,901.506 2868.33,892.506 2868.5,883.5 Z"/></g>
<g><path style="opacity:1" fill="#c24c52" d="M 31.5,882.5 C 31.5326,886.742 30.1992,890.409 27.5,893.5C 28.0249,889.467 29.3582,885.8 31.5,882.5 Z"/></g>
<g><path style="opacity:1" fill="#3f3f3f" d="M 2318.5,883.5 C 2318.18,898.911 2318.52,914.245 2319.5,929.5C 2318.17,922.197 2317.5,914.53 2317.5,906.5C 2317.5,898.659 2317.83,890.993 2318.5,883.5 Z"/></g>
<g><path style="opacity:1" fill="#7e7e7e" d="M 3058.5,907.5 C 3058.5,899.5 3058.5,891.5 3058.5,883.5C 3041.83,883.5 3025.17,883.5 3008.5,883.5C 3008.5,988.833 3008.5,1094.17 3008.5,1199.5C 3007.5,1094 3007.17,988.335 3007.5,882.5C 3024.83,882.5 3042.17,882.5 3059.5,882.5C 3059.83,891.017 3059.49,899.35 3058.5,907.5 Z"/></g>
<g><path style="opacity:1" fill="#f46c03" d="M 682.5,863.5 C 684.063,868.355 686.23,873.022 689,877.5C 691.933,887.632 695.266,897.632 699,907.5C 700.381,914.097 701.215,920.764 701.5,927.5C 700.21,926.942 699.377,925.942 699,924.5C 698.667,919.167 698.333,913.833 698,908.5C 693.291,898.387 688.958,888.054 685,877.5C 683.208,873 682.375,868.333 682.5,863.5 Z"/></g>
<g><path style="opacity:1" fill="#fcf5d1" d="M 1119.5,874.5 C 1121.58,874.624 1123.08,875.624 1124,877.5C 1124.33,880.167 1124.67,882.833 1125,885.5C 1128.08,891.342 1130.75,897.342 1133,903.5C 1134.81,911.396 1135.64,919.396 1135.5,927.5C 1133.11,921.238 1131.61,914.572 1131,907.5C 1127.89,898.014 1124.73,888.68 1121.5,879.5C 1119.82,878.817 1119.16,877.483 1119.5,875.5C 1119.5,875.167 1119.5,874.833 1119.5,874.5 Z"/></g>
<g><path style="opacity:1" fill="#c14250" d="M 27.5,895.5 C 26.8204,900.221 25.8204,904.887 24.5,909.5C 24.2528,910.713 23.5862,911.38 22.5,911.5C 23.7124,906.897 24.7124,902.231 25.5,897.5C 25.7472,896.287 26.4138,895.62 27.5,895.5 Z"/></g>
<g><path style="opacity:1" fill="#fdfdfd" d="M 2713.5,978.5 C 2673.83,978.5 2634.17,978.5 2594.5,978.5C 2594.83,975.833 2595.17,973.167 2595.5,970.5C 2605.25,934.966 2628.58,919.466 2665.5,924C 2684.67,926.993 2698.5,937.16 2707,954.5C 2710.42,962.173 2712.58,970.173 2713.5,978.5 Z"/></g>
<g><path style="opacity:1" fill="#fdfdfd" d="M 1897.5,925.5 C 1938.17,921.893 1965,939.227 1978,977.5C 1985.31,1009.22 1977.48,1036.39 1954.5,1059C 1934.13,1073.18 1911.79,1077.18 1887.5,1071C 1863.04,1061.19 1847.87,1043.36 1842,1017.5C 1835.31,985.57 1844.14,959.07 1868.5,938C 1873.17,935.333 1877.83,932.667 1882.5,930C 1887.71,928.705 1892.71,927.205 1897.5,925.5 Z"/></g>
<g><path style="opacity:1" fill="#fdfdfd" d="M 3059.5,1024.5 C 3059.59,1021.85 3058.92,1019.51 3057.5,1017.5C 3051.33,985.981 3059.99,959.481 3083.5,938C 3099.77,926.611 3117.77,922.611 3137.5,926C 3166.77,931.597 3185.6,948.764 3194,977.5C 3199.03,1001.4 3195.37,1023.73 3183,1044.5C 3160.9,1071.61 3133.06,1079.78 3099.5,1069C 3079.69,1060.03 3066.36,1045.19 3059.5,1024.5 Z"/></g>
<g><path style="opacity:1" fill="#fdfdfd" d="M 3396.5,925.5 C 3438.01,922.555 3464.51,940.888 3476,980.5C 3480.11,1003.28 3476.44,1024.62 3465,1044.5C 3444.53,1070.43 3418.03,1079.27 3385.5,1071C 3358.34,1060.83 3342.51,1041.33 3338,1012.5C 3333.99,985.076 3341.49,961.576 3360.5,942C 3371.11,933.304 3383.11,927.804 3396.5,925.5 Z"/></g>
<g><path style="opacity:1" fill="#fdedbc" d="M 1135.5,927.5 C 1136.69,927.97 1137.36,928.97 1137.5,930.5C 1138.3,934.798 1138.63,939.132 1138.5,943.5C 1137.22,938.344 1136.22,933.011 1135.5,927.5 Z"/></g>
<g><path style="opacity:1" fill="#8c8c8c" d="M 2498.5,929.5 C 2471.34,930.498 2444.01,930.831 2416.5,930.5C 2416.5,965.833 2416.5,1001.17 2416.5,1036.5C 2415.5,1001 2415.17,965.337 2415.5,929.5C 2443.17,929.5 2470.83,929.5 2498.5,929.5 Z"/></g>
<g><path style="opacity:1" fill="#c6323d" d="M 22.5,911.5 C 20.594,922.412 19.094,933.412 18,944.5C 17.3292,945.252 16.4959,945.586 15.5,945.5C 16.3775,933.726 18.7109,922.392 22.5,911.5 Z"/></g>
<g><path style="opacity:1" fill="#e2a846" d="M 1121.5,879.5 C 1124.73,888.68 1127.89,898.014 1131,907.5C 1131.61,914.572 1133.11,921.238 1135.5,927.5C 1136.22,933.011 1137.22,938.344 1138.5,943.5C 1138.25,949.084 1138.92,954.417 1140.5,959.5C 1140.5,960.167 1140.5,960.833 1140.5,961.5C 1141.44,984.814 1141.77,1008.15 1141.5,1031.5C 1141.17,1031.5 1140.83,1031.5 1140.5,1031.5C 1140.67,1010.5 1140.5,989.497 1140,968.5C 1138,957.464 1136.33,946.464 1135,935.5C 1134,934.5 1133,933.5 1132,932.5C 1130.5,917.024 1127.17,902.024 1122,887.5C 1121.5,884.854 1121.34,882.187 1121.5,879.5 Z"/></g>
<g><path style="opacity:1" fill="#fbd0d5" d="M 15.5,946.5 C 15.5,947.167 15.5,947.833 15.5,948.5C 13.5723,957.251 12.5723,966.251 12.5,975.5C 12.1667,975.5 11.8333,975.5 11.5,975.5C 11.4024,967.464 11.9024,959.464 13,951.5C 13.0995,949.347 13.9328,947.681 15.5,946.5 Z"/></g>
<g><path style="opacity:1" fill="#f7d8a2" d="M 1138.5,943.5 C 1140.08,948.583 1140.75,953.916 1140.5,959.5C 1138.92,954.417 1138.25,949.084 1138.5,943.5 Z"/></g>
<g><path style="opacity:1" fill="#c0293b" d="M 15.5,948.5 C 16.2594,957.935 15.2594,966.935 12.5,975.5C 12.5723,966.251 13.5723,957.251 15.5,948.5 Z"/></g>
<g><path style="opacity:1" fill="#7d7d7d" d="M 2595.5,970.5 C 2595.17,973.167 2594.83,975.833 2594.5,978.5C 2634.17,978.5 2673.83,978.5 2713.5,978.5C 2673.67,979.499 2633.67,979.832 2593.5,979.5C 2593.22,976.171 2593.88,973.171 2595.5,970.5 Z"/></g>
<g><path style="opacity:1" fill="#f8e8bb" d="M 1140.5,961.5 C 1141.6,963.277 1142.43,965.277 1143,967.5C 1143.9,989.024 1143.4,1010.36 1141.5,1031.5C 1141.77,1008.15 1141.44,984.814 1140.5,961.5 Z"/></g>
<g><path style="opacity:1" fill="#f46e03" d="M 703.5,935.5 C 705.81,943.229 707.477,951.229 708.5,959.5C 710.8,984.824 710.967,1010.16 709,1035.5C 706.641,1044.86 704.808,1054.2 703.5,1063.5C 703.334,1057.82 703.501,1052.16 704,1046.5C 705.099,1035.62 706.599,1024.79 708.5,1014C 707.877,1005.75 707.877,997.414 708.5,989C 707.281,971.047 705.614,953.214 703.5,935.5 Z"/></g>
<g><path style="opacity:1" fill="#4b4b4b" d="M 2766.5,1010.5 C 2766.5,1013.5 2766.5,1016.5 2766.5,1019.5C 2708.83,1019.5 2651.17,1019.5 2593.5,1019.5C 2650.66,1018.5 2708,1018.17 2765.5,1018.5C 2765.19,1015.61 2765.53,1012.95 2766.5,1010.5 Z"/></g>
<g><path style="opacity:1" fill="#616161" d="M 3057.5,1017.5 C 3058.92,1019.51 3059.59,1021.85 3059.5,1024.5C 3058.08,1022.49 3057.41,1020.15 3057.5,1017.5 Z"/></g>
<g><path style="opacity:1" fill="#e20f08" d="M 446.5,951.5 C 444.703,967.425 443.703,983.425 443.5,999.5C 443.84,1018.28 445.173,1036.94 447.5,1055.5C 446.5,1055.5 445.5,1055.5 444.5,1055.5C 443.523,1045.61 442.19,1035.77 440.5,1026C 440.86,1000.44 442.36,974.937 445,949.5C 445.278,950.416 445.778,951.082 446.5,951.5 Z"/></g>
<g><path style="opacity:1" fill="#ba1d32" d="M 12.5,1023.5 C 14.1644,1024.95 14.9977,1026.95 15,1029.5C 15.4995,1035.49 15.6662,1041.49 15.5,1047.5C 15.1667,1047.5 14.8333,1047.5 14.5,1047.5C 14.3028,1040.97 13.6361,1034.64 12.5,1028.5C 12.5,1026.83 12.5,1025.17 12.5,1023.5 Z"/></g>
<g><path style="opacity:1" fill="#fac0c9" d="M 12.5,1028.5 C 13.6361,1034.64 14.3028,1040.97 14.5,1047.5C 13.8826,1047.39 13.3826,1047.06 13,1046.5C 12.5005,1040.51 12.3338,1034.51 12.5,1028.5 Z"/></g>
<g><path style="opacity:1" fill="#e4b15a" d="M 1140.5,1031.5 C 1140.87,1042.61 1139.21,1053.28 1135.5,1063.5C 1135.5,1062.83 1135.5,1062.17 1135.5,1061.5C 1135.84,1051.16 1137.51,1041.16 1140.5,1031.5 Z"/></g>
<g><path style="opacity:1" fill="#fd560f" d="M 479.5,847.5 C 479.936,850.364 479.103,852.697 477,854.5C 476.502,857.482 476.335,860.482 476.5,863.5C 477.5,863.5 478.5,863.5 479.5,863.5C 479.5,868.833 479.5,874.167 479.5,879.5C 478.167,879.5 476.833,879.5 475.5,879.5C 475.036,870.723 472.702,870.223 468.5,878C 469.719,880.384 469.719,882.717 468.5,885C 469.308,885.308 469.975,885.808 470.5,886.5C 467.782,888.389 464.949,890.056 462,891.5C 461.147,895.469 460.481,899.469 460,903.5C 459.033,905.63 457.866,907.63 456.5,909.5C 456.164,914.766 454.997,919.766 453,924.5C 452.349,930.827 451.849,937.16 451.5,943.5C 452.5,943.5 453.5,943.5 454.5,943.5C 454.664,946.187 454.497,948.854 454,951.5C 452,954.167 450,956.833 448,959.5C 444.834,986.129 444.668,1012.8 447.5,1039.5C 448.5,1039.5 449.5,1039.5 450.5,1039.5C 449.898,1045.02 450.898,1050.19 453.5,1055C 452.149,1057.5 452.482,1059.83 454.5,1062C 453.464,1065.12 453.297,1068.29 454,1071.5C 457.311,1084.9 460.477,1098.24 463.5,1111.5C 462.685,1110.57 461.852,1109.57 461,1108.5C 456.193,1094.21 452.86,1079.55 451,1064.5C 450.246,1061.18 449.08,1058.18 447.5,1055.5C 445.173,1036.94 443.84,1018.28 443.5,999.5C 443.703,983.425 444.703,967.425 446.5,951.5C 448.31,941.572 450.144,931.572 452,921.5C 454.315,912.911 456.649,904.244 459,895.5C 463.827,883.812 468.161,871.812 472,859.5C 473.803,854.856 476.303,850.856 479.5,847.5 Z"/></g>
<g><path style="opacity:1" fill="#fdf6d3" d="M 1140.5,1031.5 C 1140.83,1031.5 1141.17,1031.5 1141.5,1031.5C 1141.83,1043.26 1141,1054.93 1139,1066.5C 1137.99,1067.34 1136.82,1067.67 1135.5,1067.5C 1135.5,1066.17 1135.5,1064.83 1135.5,1063.5C 1139.21,1053.28 1140.87,1042.61 1140.5,1031.5 Z"/></g>
<g><path style="opacity:1" fill="#ba2332" d="M 16.5,1055.5 C 17.6491,1055.79 18.3158,1056.62 18.5,1058C 20.4922,1067.79 22.1589,1077.63 23.5,1087.5C 22.8333,1086.83 22.1667,1086.17 21.5,1085.5C 19.6692,1075.52 18.0025,1065.52 16.5,1055.5 Z"/></g>
<g><path style="opacity:1" fill="#e8a235" d="M 1135.5,1061.5 C 1135.5,1062.17 1135.5,1062.83 1135.5,1063.5C 1135.5,1064.83 1135.5,1066.17 1135.5,1067.5C 1135.5,1068.83 1135.5,1070.17 1135.5,1071.5C 1131.95,1082.23 1128.62,1092.89 1125.5,1103.5C 1125.24,1096.97 1126.57,1090.8 1129.5,1085C 1127.9,1081.8 1128.4,1078.97 1131,1076.5C 1131.21,1072.08 1131.87,1067.75 1133,1063.5C 1133.71,1062.62 1134.54,1061.95 1135.5,1061.5 Z"/></g>
<g><path style="opacity:1" fill="#faced4" d="M 15.5,1055.5 C 15.8333,1055.5 16.1667,1055.5 16.5,1055.5C 18.0025,1065.52 19.6692,1075.52 21.5,1085.5C 19.8828,1083.88 18.7162,1081.88 18,1079.5C 17.6845,1071.39 16.8512,1063.39 15.5,1055.5 Z"/></g>
<g><path style="opacity:1" fill="#b8b8b8" d="M 3060.5,1090.5 C 3059.83,1126.83 3059.17,1163.17 3058.5,1199.5C 3058.17,1162.49 3058.5,1125.49 3059.5,1088.5C 3060.3,1088.96 3060.63,1089.62 3060.5,1090.5 Z"/></g>
<g><path style="opacity:1" fill="#e8868b" d="M 27.5,1103.5 C 28.9238,1105.51 29.5905,1107.85 29.5,1110.5C 28.0762,1108.49 27.4095,1106.15 27.5,1103.5 Z"/></g>
<g><path style="opacity:1" fill="#fce8b2" d="M 1135.5,1071.5 C 1134.3,1078.72 1133.13,1086.05 1132,1093.5C 1129.66,1097.52 1128.33,1101.85 1128,1106.5C 1126.45,1107.59 1125.28,1108.92 1124.5,1110.5C 1124.67,1108.14 1125.01,1105.81 1125.5,1103.5C 1128.62,1092.89 1131.95,1082.23 1135.5,1071.5 Z"/></g>
<g><path style="opacity:1" fill="#e31c08" d="M 447.5,1055.5 C 449.08,1058.18 450.246,1061.18 451,1064.5C 452.86,1079.55 456.193,1094.21 461,1108.5C 461.852,1109.57 462.685,1110.57 463.5,1111.5C 463.338,1113.53 463.505,1115.53 464,1117.5C 466.523,1121.21 468.523,1125.21 470,1129.5C 472.249,1136.98 474.749,1144.31 477.5,1151.5C 476.5,1151.5 475.5,1151.5 474.5,1151.5C 473.147,1146.09 471.48,1140.76 469.5,1135.5C 465.298,1129.01 462.131,1122.01 460,1114.5C 458.132,1106.7 455.799,1099.03 453,1091.5C 451.955,1083.37 450.289,1075.37 448,1067.5C 447.501,1063.51 447.334,1059.51 447.5,1055.5 Z"/></g>
<g><path style="opacity:1" fill="#8c8c8c" d="M 4044.5,1104.5 C 4046.17,1104.5 4047.83,1104.5 4049.5,1104.5C 4049.5,1108.17 4049.5,1111.83 4049.5,1115.5C 4048.52,1112.38 4048.19,1109.04 4048.5,1105.5C 4046.9,1105.77 4045.57,1105.43 4044.5,1104.5 Z"/></g>
<g><path style="opacity:1" fill="#0e0e0e" d="M 4049.5,1115.5 C 4049.5,1111.83 4049.5,1108.17 4049.5,1104.5C 4047.83,1104.5 4046.17,1104.5 4044.5,1104.5C 4046.05,1103.21 4048.05,1102.54 4050.5,1102.5C 4052.5,1102.83 4054.5,1103.17 4056.5,1103.5C 4054.95,1104.45 4053.29,1104.79 4051.5,1104.5C 4052.08,1108.65 4051.41,1112.32 4049.5,1115.5 Z"/></g>
<g><path style="opacity:1" fill="#232323" d="M 4058.5,1102.5 C 4060.17,1102.5 4061.83,1102.5 4063.5,1102.5C 4063.99,1105.01 4064.99,1107.34 4066.5,1109.5C 4067.63,1107.21 4068.96,1105.04 4070.5,1103C 4071.79,1102.51 4073.13,1102.34 4074.5,1102.5C 4074.5,1106.83 4074.5,1111.17 4074.5,1115.5C 4073.5,1115.5 4072.5,1115.5 4071.5,1115.5C 4071.9,1105.42 4070.9,1105.09 4068.5,1114.5C 4067.17,1114.5 4065.83,1114.5 4064.5,1114.5C 4063.97,1111.76 4063.14,1109.1 4062,1106.5C 4061.5,1109.82 4061.33,1113.15 4061.5,1116.5C 4060.5,1116.5 4059.5,1116.5 4058.5,1116.5C 4058.5,1111.83 4058.5,1107.17 4058.5,1102.5 Z"/></g>
<g><path style="opacity:1" fill="#e3a644" d="M 1125.5,1103.5 C 1125.01,1105.81 1124.67,1108.14 1124.5,1110.5C 1123.57,1114.05 1121.9,1117.05 1119.5,1119.5C 1119.93,1113.35 1121.93,1108.02 1125.5,1103.5 Z"/></g>
<g><path style="opacity:1" fill="#cf1422" d="M 23.5,1087.5 C 25.0396,1090.91 26.8729,1094.24 29,1097.5C 29.6667,1098.83 30.3333,1098.83 31,1097.5C 31.1667,1098.5 31.3333,1099.5 31.5,1100.5C 29.5532,1104.47 29.8866,1108.47 32.5,1112.5C 33.9019,1112.87 34.9019,1113.7 35.5,1115C 35.9098,1117.87 36.2431,1120.71 36.5,1123.5C 35.1429,1122.41 34.1429,1121.08 33.5,1119.5C 32.0229,1116.64 30.6896,1113.64 29.5,1110.5C 29.5905,1107.85 28.9238,1105.51 27.5,1103.5C 25.565,1098.43 24.2317,1093.09 23.5,1087.5 Z"/></g>
<g><path style="opacity:1" fill="#616161" d="M 1742.5,957.5 C 1743.5,1010.33 1743.83,1063.33 1743.5,1116.5C 1726.33,1116.83 1709.33,1116.5 1692.5,1115.5C 1709.17,1115.5 1725.83,1115.5 1742.5,1115.5C 1742.5,1062.83 1742.5,1010.17 1742.5,957.5 Z"/></g>
<g><path style="opacity:1" fill="#646464" d="M 2027.5,883.5 C 2028.5,960.998 2028.83,1038.66 2028.5,1116.5C 2011.33,1116.83 1994.33,1116.5 1977.5,1115.5C 1994.17,1115.5 2010.83,1115.5 2027.5,1115.5C 2027.5,1038.17 2027.5,960.833 2027.5,883.5 Z"/></g>
<g><path style="opacity:1" fill="#646464" d="M 2869.5,977.5 C 2869.5,1023.83 2869.5,1070.17 2869.5,1116.5C 2852.33,1116.83 2835.33,1116.5 2818.5,1115.5C 2835.17,1115.5 2851.83,1115.5 2868.5,1115.5C 2868.17,1069.33 2868.5,1023.33 2869.5,977.5 Z"/></g>
<g><path style="opacity:1" fill="#cbcbcb" d="M 2687.5,1119.5 C 2683.43,1121.02 2679.1,1121.85 2674.5,1122C 2666.99,1122.82 2659.65,1122.66 2652.5,1121.5C 2664.22,1121.6 2675.88,1120.94 2687.5,1119.5 Z"/></g>
<g><path style="opacity:1" fill="#f1d08e" d="M 1119.5,1125.5 C 1118.36,1129.11 1116.7,1132.44 1114.5,1135.5C 1114.66,1131.33 1116.33,1127.99 1119.5,1125.5 Z"/></g>
<g><path style="opacity:1" fill="#c43543" d="M 33.5,1119.5 C 34.1429,1121.08 35.1429,1122.41 36.5,1123.5C 38.7205,1127.17 39.7205,1131.17 39.5,1135.5C 38.8826,1135.39 38.3826,1135.06 38,1134.5C 36.4735,1129.46 34.9735,1124.46 33.5,1119.5 Z"/></g>
<g><path style="opacity:1" fill="#c02e37" d="M 39.5,1135.5 C 43.7067,1139.91 46.3734,1145.25 47.5,1151.5C 46.5041,1151.59 45.6708,1151.25 45,1150.5C 43.716,1145.27 41.8826,1140.27 39.5,1135.5 Z"/></g>
<g><path style="opacity:1" fill="#e9c06e" d="M 1114.5,1135.5 C 1113.94,1137.8 1113.44,1140.13 1113,1142.5C 1111.42,1145.84 1109.59,1148.84 1107.5,1151.5C 1107.17,1151.5 1106.83,1151.5 1106.5,1151.5C 1106.34,1150.13 1106.51,1148.79 1107,1147.5C 1109.91,1144.01 1111.41,1140.01 1111.5,1135.5C 1112.5,1135.5 1113.5,1135.5 1114.5,1135.5 Z"/></g>
<g><path style="opacity:1" fill="#fbe6b6" d="M 1106.5,1151.5 C 1106.83,1151.5 1107.17,1151.5 1107.5,1151.5C 1107.48,1153.93 1106.98,1156.26 1106,1158.5C 1105.33,1159.25 1104.5,1159.59 1103.5,1159.5C 1104.45,1156.86 1105.45,1154.19 1106.5,1151.5 Z"/></g>
<g><path style="opacity:1" fill="#c4343d" d="M 47.5,1151.5 C 51.9952,1155.83 54.3286,1161.16 54.5,1167.5C 53.0578,1165.46 52.0578,1163.13 51.5,1160.5C 48.6349,1158.26 47.3016,1155.26 47.5,1151.5 Z"/></g>
<g><path style="opacity:1" fill="#e0b45c" d="M 1103.5,1160.5 C 1103.57,1162.03 1102.91,1163.03 1101.5,1163.5C 1099.54,1169.67 1096.04,1175 1091,1179.5C 1090.79,1181.06 1090.29,1182.39 1089.5,1183.5C 1090.4,1178.39 1092.9,1174.05 1097,1170.5C 1097.92,1167.9 1098.59,1165.23 1099,1162.5C 1100.11,1160.96 1101.61,1160.3 1103.5,1160.5 Z"/></g>
<g><path style="opacity:1" fill="#fbf2d3" d="M 1101.5,1163.5 C 1101.44,1167.45 1102.11,1171.28 1103.5,1175C 1103.33,1176.17 1103.17,1177.33 1103,1178.5C 1101.68,1176.75 1101.18,1174.75 1101.5,1172.5C 1099.61,1172.3 1098.11,1172.96 1097,1174.5C 1094.45,1178.54 1092.62,1182.88 1091.5,1187.5C 1090.31,1188.43 1088.98,1188.76 1087.5,1188.5C 1087.5,1187.5 1087.5,1186.5 1087.5,1185.5C 1087.5,1184.17 1088.17,1183.5 1089.5,1183.5C 1090.29,1182.39 1090.79,1181.06 1091,1179.5C 1096.04,1175 1099.54,1169.67 1101.5,1163.5 Z"/></g>
<g><path style="opacity:1" fill="#d01c2a" d="M 55.5,1167.5 C 56.3764,1167.37 57.0431,1167.7 57.5,1168.5C 59.8734,1173.69 63.3734,1177.69 68,1180.5C 69.0363,1185.55 71.3696,1189.88 75,1193.5C 76.0545,1197.43 77.5545,1201.09 79.5,1204.5C 80.8221,1204.33 81.9887,1204.66 83,1205.5C 83.0976,1207.62 83.9309,1209.29 85.5,1210.5C 87.2461,1208.15 89.5794,1207.15 92.5,1207.5C 92.5,1208.83 92.5,1210.17 92.5,1211.5C 91.448,1211.35 90.448,1211.52 89.5,1212C 89.7496,1215.99 91.5829,1219.49 95,1222.5C 95.4828,1223.45 95.6495,1224.45 95.5,1225.5C 88.8888,1218.71 82.7221,1211.37 77,1203.5C 70.902,1193.63 64.5687,1183.96 58,1174.5C 56.8822,1172.23 56.0488,1169.9 55.5,1167.5 Z"/></g>
<g><path style="opacity:1" fill="#e8a736" d="M 1087.5,1185.5 C 1087.5,1186.5 1087.5,1187.5 1087.5,1188.5C 1085.74,1189.26 1084.74,1190.6 1084.5,1192.5C 1080.61,1195.27 1077.95,1198.94 1076.5,1203.5C 1074.82,1206.19 1073.16,1208.86 1071.5,1211.5C 1069.73,1212.37 1068.39,1213.7 1067.5,1215.5C 1067.17,1215.5 1066.83,1215.5 1066.5,1215.5C 1066.73,1211.77 1067.73,1208.27 1069.5,1205C 1069.17,1203.33 1068.83,1201.67 1068.5,1200C 1069.45,1199.52 1070.45,1199.35 1071.5,1199.5C 1071.34,1200.87 1071.51,1202.21 1072,1203.5C 1072.71,1202.03 1073.88,1201.36 1075.5,1201.5C 1074.97,1196.27 1077.3,1193.27 1082.5,1192.5C 1082.3,1188.72 1083.96,1186.39 1087.5,1185.5 Z"/></g>
<g><path style="opacity:1" fill="#f0da9b" d="M 1084.5,1192.5 C 1082.61,1194.89 1081.11,1197.56 1080,1200.5C 1078.96,1201.71 1077.79,1202.71 1076.5,1203.5C 1077.95,1198.94 1080.61,1195.27 1084.5,1192.5 Z"/></g>
<g><path style="opacity:1" fill="#fefae3" d="M 1087.5,1188.5 C 1086.69,1192.68 1084.69,1196.18 1081.5,1199C 1083.5,1200.15 1083.83,1201.65 1082.5,1203.5C 1079.03,1205.14 1076.36,1207.64 1074.5,1211C 1073.55,1211.48 1072.55,1211.65 1071.5,1211.5C 1073.16,1208.86 1074.82,1206.19 1076.5,1203.5C 1077.79,1202.71 1078.96,1201.71 1080,1200.5C 1081.11,1197.56 1082.61,1194.89 1084.5,1192.5C 1084.74,1190.6 1085.74,1189.26 1087.5,1188.5 Z"/></g>
<g><path style="opacity:1" fill="#fbf8e6" d="M 1115.5,1201.5 C 1115.5,1206.17 1115.5,1210.83 1115.5,1215.5C 1117.18,1215.71 1118.18,1215.05 1118.5,1213.5C 1119.15,1211.91 1119.65,1210.25 1120,1208.5C 1121.21,1215.38 1123.71,1216.05 1127.5,1210.5C 1128.45,1212.05 1128.79,1213.71 1128.5,1215.5C 1129.5,1215.5 1130.5,1215.5 1131.5,1215.5C 1131.77,1210.74 1131.44,1206.07 1130.5,1201.5C 1131.5,1201.41 1132.33,1201.75 1133,1202.5C 1134.49,1209.11 1135.16,1215.78 1135,1222.5C 1134.08,1220.63 1133.58,1218.63 1133.5,1216.5C 1131.4,1217.62 1131.07,1219.12 1132.5,1221C 1131.29,1222.58 1129.96,1222.74 1128.5,1221.5C 1129.59,1220.39 1129.59,1219.39 1128.5,1218.5C 1119.25,1218.38 1110.92,1219.05 1103.5,1220.5C 1103.23,1218.18 1103.9,1216.18 1105.5,1214.5C 1103.98,1212.45 1103.15,1210.12 1103,1207.5C 1100.28,1205.78 1099.11,1203.12 1099.5,1199.5C 1101.45,1199.23 1102.95,1199.89 1104,1201.5C 1104.96,1200.11 1106.29,1199.44 1108,1199.5C 1110.36,1200.78 1112.86,1201.45 1115.5,1201.5 Z"/></g>
<g><path style="opacity:1" fill="#ddb258" d="M 1130.5,1201.5 C 1131.44,1206.07 1131.77,1210.74 1131.5,1215.5C 1130.5,1215.5 1129.5,1215.5 1128.5,1215.5C 1128.79,1213.71 1128.45,1212.05 1127.5,1210.5C 1123.71,1216.05 1121.21,1215.38 1120,1208.5C 1119.65,1210.25 1119.15,1211.91 1118.5,1213.5C 1116.59,1210.32 1115.92,1206.65 1116.5,1202.5C 1117.55,1202.35 1118.55,1202.52 1119.5,1203C 1120.13,1204.89 1121.13,1206.56 1122.5,1208C 1123.82,1208.53 1124.48,1208.03 1124.5,1206.5C 1125.95,1205.38 1126.95,1203.88 1127.5,1202C 1128.45,1201.52 1129.45,1201.35 1130.5,1201.5 Z"/></g>
<g><path style="opacity:1" fill="#efca90" d="M 1115.5,1201.5 C 1119.16,1200.64 1121.33,1201.97 1122,1205.5C 1122.67,1206.25 1123.5,1206.59 1124.5,1206.5C 1124.48,1208.03 1123.82,1208.53 1122.5,1208C 1121.13,1206.56 1120.13,1204.89 1119.5,1203C 1118.55,1202.52 1117.55,1202.35 1116.5,1202.5C 1115.92,1206.65 1116.59,1210.32 1118.5,1213.5C 1118.18,1215.05 1117.18,1215.71 1115.5,1215.5C 1115.5,1210.83 1115.5,1206.17 1115.5,1201.5 Z"/></g>
<g><path style="opacity:1" fill="#dfaf6a" d="M 1105.5,1201.5 C 1107.66,1201.12 1109.33,1201.78 1110.5,1203.5C 1109.57,1207.43 1109.23,1211.43 1109.5,1215.5C 1108.5,1215.5 1107.5,1215.5 1106.5,1215.5C 1106.66,1212.48 1106.5,1209.48 1106,1206.5C 1105.36,1205.35 1104.52,1204.35 1103.5,1203.5C 1104.24,1202.82 1104.91,1202.15 1105.5,1201.5 Z"/></g>
<g><path style="opacity:1" fill="#fce8c1" d="M 1065.5,1215.5 C 1065.83,1215.5 1066.17,1215.5 1066.5,1215.5C 1066.83,1215.5 1067.17,1215.5 1067.5,1215.5C 1064.88,1219.95 1062.05,1224.29 1059,1228.5C 1058.52,1229.45 1058.35,1230.45 1058.5,1231.5C 1057.5,1231.5 1056.5,1231.5 1055.5,1231.5C 1057.18,1226.29 1060.34,1221.96 1065,1218.5C 1065.48,1217.55 1065.65,1216.55 1065.5,1215.5 Z"/></g>
<g><path style="opacity:1" fill="#eaa231" d="M 1065.5,1215.5 C 1065.65,1216.55 1065.48,1217.55 1065,1218.5C 1060.34,1221.96 1057.18,1226.29 1055.5,1231.5C 1054.83,1231.5 1054.17,1231.5 1053.5,1231.5C 1049.7,1235.13 1046.03,1238.97 1042.5,1243C 1041.55,1243.48 1040.55,1243.65 1039.5,1243.5C 1039.5,1244.83 1039.5,1246.17 1039.5,1247.5C 1037.34,1247.72 1035.67,1248.72 1034.5,1250.5C 1034.85,1247.76 1035.52,1245.1 1036.5,1242.5C 1038.08,1241.7 1039.74,1241.2 1041.5,1241C 1043,1238.17 1045.17,1236 1048,1234.5C 1048.48,1233.55 1048.65,1232.55 1048.5,1231.5C 1045.03,1231.1 1044.7,1229.6 1047.5,1227C 1050.94,1226.31 1054.27,1225.31 1057.5,1224C 1060.43,1221.24 1063.09,1218.41 1065.5,1215.5 Z"/></g>
<g><path style="opacity:1" fill="#f9bfc7" d="M 95.5,1227.5 C 97.0174,1227.51 98.1841,1228.18 99,1229.5C 101.054,1232.05 102.887,1234.71 104.5,1237.5C 102.988,1235.68 100.988,1234.68 98.5,1234.5C 98.8504,1231.55 97.8504,1229.21 95.5,1227.5 Z"/></g>
<g><path style="opacity:1" fill="#f8e7b8" d="M 1053.5,1231.5 C 1053.66,1232.87 1053.49,1234.21 1053,1235.5C 1049.27,1238.72 1046.11,1242.39 1043.5,1246.5C 1042.31,1247.43 1040.98,1247.76 1039.5,1247.5C 1039.5,1246.17 1039.5,1244.83 1039.5,1243.5C 1040.55,1243.65 1041.55,1243.48 1042.5,1243C 1046.03,1238.97 1049.7,1235.13 1053.5,1231.5 Z"/></g>
<g><path style="opacity:1" fill="#fceec0" d="M 1039.5,1247.5 C 1037.46,1253.2 1033.46,1256.87 1027.5,1258.5C 1029.94,1256.02 1032.28,1253.35 1034.5,1250.5C 1035.67,1248.72 1037.34,1247.72 1039.5,1247.5 Z"/></g>
<g><path style="opacity:1" fill="#e3aa4c" d="M 1034.5,1250.5 C 1032.28,1253.35 1029.94,1256.02 1027.5,1258.5C 1026.71,1260.1 1025.38,1260.77 1023.5,1260.5C 1023.5,1261.5 1023.5,1262.5 1023.5,1263.5C 1020.92,1263.46 1018.92,1264.46 1017.5,1266.5C 1017.62,1263.63 1018.62,1261.13 1020.5,1259C 1024.86,1257.96 1028.03,1255.46 1030,1251.5C 1031.44,1250.85 1032.94,1250.52 1034.5,1250.5 Z"/></g>
<g><path style="opacity:1" fill="#e37c8b" d="M 127.5,1259.5 C 129.749,1260.08 131.415,1261.41 132.5,1263.5C 130.251,1262.92 128.585,1261.59 127.5,1259.5 Z"/></g>
<g><path style="opacity:1" fill="#cd2c36" d="M 95.5,1227.5 C 95.5,1227.17 95.5,1226.83 95.5,1226.5C 96.8734,1226.34 98.2068,1226.51 99.5,1227C 103.947,1234.45 109.78,1240.61 117,1245.5C 120.882,1253.4 127.048,1258.23 135.5,1260C 137.601,1266.23 141.934,1269.89 148.5,1271C 150.064,1273.97 151.73,1276.8 153.5,1279.5C 145.592,1275.38 138.592,1270.04 132.5,1263.5C 131.415,1261.41 129.749,1260.08 127.5,1259.5C 119.381,1252.55 111.714,1245.21 104.5,1237.5C 102.887,1234.71 101.054,1232.05 99,1229.5C 98.1841,1228.18 97.0174,1227.51 95.5,1227.5 Z"/></g>
<g><path style="opacity:1" fill="#eac482" d="M 1017.5,1266.5 C 1014.82,1270.15 1011.48,1272.82 1007.5,1274.5C 1007.5,1273.5 1007.5,1272.5 1007.5,1271.5C 1011.3,1270.69 1014.63,1269.02 1017.5,1266.5 Z"/></g>
<g><path style="opacity:1" fill="#e5b357" d="M 1007.5,1274.5 C 1006.79,1276.03 1005.79,1277.36 1004.5,1278.5C 1003.17,1278.83 1001.83,1279.17 1000.5,1279.5C 1001.39,1275.96 1003.72,1274.3 1007.5,1274.5 Z"/></g>
<g><path style="opacity:1" fill="#e9a747" d="M 575.5,1275.5 C 575.5,1275.17 575.5,1274.83 575.5,1274.5C 575.833,1274.5 576.167,1274.5 576.5,1274.5C 580.509,1274.59 584.176,1275.75 587.5,1278C 588.337,1279.01 588.67,1280.18 588.5,1281.5C 590.179,1281.29 591.179,1281.95 591.5,1283.5C 588.45,1284.08 586.45,1282.91 585.5,1280C 582.48,1277.82 579.147,1276.32 575.5,1275.5 Z"/></g>
<g><path style="opacity:1" fill="#bc293a" d="M 568.5,1279.5 C 566.049,1282.28 563.049,1284.28 559.5,1285.5C 560.9,1283.98 562.233,1282.32 563.5,1280.5C 565.045,1279.55 566.712,1279.21 568.5,1279.5 Z"/></g>
<g><path style="opacity:1" fill="#ecc278" d="M 591.5,1285.5 C 593.482,1286 595.482,1286.5 597.5,1287C 600.45,1289.64 603.783,1291.47 607.5,1292.5C 607.5,1293.5 607.5,1294.5 607.5,1295.5C 601.748,1292.64 596.415,1289.3 591.5,1285.5 Z"/></g>
<g><path style="opacity:1" fill="#c8444d" d="M 153.5,1279.5 C 160.655,1282.33 166.655,1286.67 171.5,1292.5C 169.407,1291.96 167.407,1291.12 165.5,1290C 161.2,1286.71 157.2,1283.21 153.5,1279.5 Z"/></g>
<g><path style="opacity:1" fill="#c91425" d="M 559.5,1285.5 C 554.942,1290.06 549.608,1293.39 543.5,1295.5C 543.755,1294.06 544.088,1292.56 544.5,1291C 550.047,1290.19 555.047,1288.36 559.5,1285.5 Z"/></g>
<g><path style="opacity:1" fill="#c1444a" d="M 177.5,1295.5 C 181.239,1296.2 184.239,1298.2 186.5,1301.5C 182.402,1301.06 179.402,1299.06 177.5,1295.5 Z"/></g>
<g><path style="opacity:1" fill="#e1a445" d="M 975.5,1295.5 C 971.162,1300.15 965.829,1303.15 959.5,1304.5C 962.2,1302.61 964.866,1300.45 967.5,1298C 969.927,1296.41 972.593,1295.58 975.5,1295.5 Z"/></g>
<g><path style="opacity:1" fill="#d25466" d="M 186.5,1301.5 C 188.848,1301.59 190.514,1302.59 191.5,1304.5C 189.067,1304.73 187.401,1303.73 186.5,1301.5 Z"/></g>
<g><path style="opacity:1" fill="#c02835" d="M 543.5,1295.5 C 541.576,1297.48 539.576,1299.48 537.5,1301.5C 536.127,1301.34 534.793,1301.51 533.5,1302C 531.937,1303.95 529.937,1305.11 527.5,1305.5C 531.044,1302.04 535.044,1299.04 539.5,1296.5C 540.689,1295.57 542.022,1295.24 543.5,1295.5 Z"/></g>
<g><path style="opacity:1" fill="#e6a94f" d="M 607.5,1295.5 C 609.604,1295.2 611.604,1295.53 613.5,1296.5C 616.732,1299.87 620.732,1301.71 625.5,1302C 629.449,1304.91 633.115,1308.08 636.5,1311.5C 632.286,1309.23 627.953,1307.23 623.5,1305.5C 621.03,1304.75 619.03,1303.25 617.5,1301C 613.266,1300.56 609.933,1298.72 607.5,1295.5 Z"/></g>
<g><path style="opacity:1" fill="#f8d4d0" d="M 537.5,1301.5 C 534.472,1306.74 529.805,1309.08 523.5,1308.5C 524.833,1307.5 526.167,1306.5 527.5,1305.5C 529.937,1305.11 531.937,1303.95 533.5,1302C 534.793,1301.51 536.127,1301.34 537.5,1301.5 Z"/></g>
<g><path style="opacity:1" fill="#e4b15e" d="M 959.5,1306.5 C 956.205,1308.15 952.872,1309.81 949.5,1311.5C 951.422,1307.21 954.755,1305.54 959.5,1306.5 Z"/></g>
<g><path style="opacity:1" fill="#c51d2f" d="M 527.5,1305.5 C 526.167,1306.5 524.833,1307.5 523.5,1308.5C 519.755,1310.7 515.755,1312.37 511.5,1313.5C 512.066,1311.92 513.066,1310.59 514.5,1309.5C 516.9,1308.98 518.9,1307.82 520.5,1306C 522.81,1305.5 525.143,1305.34 527.5,1305.5 Z"/></g>
<g><path style="opacity:1" fill="#b72935" d="M 207.5,1311.5 C 213.206,1313.69 218.539,1316.35 223.5,1319.5C 218.269,1318.31 213.269,1316.31 208.5,1313.5C 207.702,1313.04 207.369,1312.38 207.5,1311.5 Z"/></g>
<g><path style="opacity:1" fill="#f9eec5" d="M 1004.5,1278.5 C 1002.04,1281.46 999.371,1284.3 996.5,1287C 990.481,1289.39 984.814,1292.23 979.5,1295.5C 979.5,1296.83 979.5,1298.17 979.5,1299.5C 973.934,1299.95 969.601,1302.45 966.5,1307C 963.431,1308.85 960.098,1309.85 956.5,1310C 953.102,1313.86 948.769,1315.69 943.5,1315.5C 943.5,1316.5 943.5,1317.5 943.5,1318.5C 939.524,1319.3 935.524,1319.96 931.5,1320.5C 934.07,1319.13 936.57,1317.46 939,1315.5C 940.44,1314.85 941.94,1314.52 943.5,1314.5C 943.5,1313.5 943.5,1312.5 943.5,1311.5C 945.5,1311.5 947.5,1311.5 949.5,1311.5C 952.872,1309.81 956.205,1308.15 959.5,1306.5C 959.5,1305.83 959.5,1305.17 959.5,1304.5C 965.829,1303.15 971.162,1300.15 975.5,1295.5C 976.552,1295.65 977.552,1295.48 978.5,1295C 985.423,1289.2 992.756,1284.03 1000.5,1279.5C 1001.83,1279.17 1003.17,1278.83 1004.5,1278.5 Z"/></g>
<g><path style="opacity:1" fill="#ecb769" d="M 639.5,1311.5 C 640.833,1311.5 642.167,1311.5 643.5,1311.5C 643.527,1313.2 644.194,1314.53 645.5,1315.5C 642.031,1316.11 640.031,1314.78 639.5,1311.5 Z"/></g>
<g><path style="opacity:1" fill="#fdf2cd" d="M 623.5,1305.5 C 627.953,1307.23 632.286,1309.23 636.5,1311.5C 637.5,1311.5 638.5,1311.5 639.5,1311.5C 640.031,1314.78 642.031,1316.11 645.5,1315.5C 646.29,1316.4 647.29,1317.07 648.5,1317.5C 650.612,1319.21 652.945,1320.54 655.5,1321.5C 651.096,1321.66 647.429,1320.16 644.5,1317C 641.471,1316.46 638.471,1315.79 635.5,1315C 632.802,1311.37 629.135,1309.21 624.5,1308.5C 623.614,1307.68 623.281,1306.68 623.5,1305.5 Z"/></g>
<g><path style="opacity:1" fill="#bc323b" d="M 511.5,1313.5 C 510.965,1315.45 509.632,1316.45 507.5,1316.5C 505.254,1317.46 502.921,1318.12 500.5,1318.5C 502.993,1314.42 506.66,1312.76 511.5,1313.5 Z"/></g>
<g><path style="opacity:1" fill="#c95d5f" d="M 223.5,1320.5 C 225.898,1320.26 227.898,1320.93 229.5,1322.5C 227.102,1322.74 225.102,1322.07 223.5,1320.5 Z"/></g>
<g><path style="opacity:1" fill="#f0a9b4" d="M 507.5,1316.5 C 507.53,1317.5 507.03,1318.16 506,1318.5C 502.6,1319.96 499.1,1320.96 495.5,1321.5C 495.5,1321.17 495.5,1320.83 495.5,1320.5C 497.403,1320.2 499.07,1319.54 500.5,1318.5C 502.921,1318.12 505.254,1317.46 507.5,1316.5 Z"/></g>
<g><path style="opacity:1" fill="#e6b365" d="M 648.5,1317.5 C 652.535,1318.1 656.535,1318.93 660.5,1320C 663.298,1322.3 666.298,1324.14 669.5,1325.5C 664.731,1324.35 660.065,1323.02 655.5,1321.5C 652.945,1320.54 650.612,1319.21 648.5,1317.5 Z"/></g>
<g><path style="opacity:1" fill="#c63c4c" d="M 229.5,1322.5 C 233.423,1322.81 236.757,1324.14 239.5,1326.5C 235.703,1326.13 232.37,1324.79 229.5,1322.5 Z"/></g>
<g><path style="opacity:1" fill="#ba2934" d="M 495.5,1320.5 C 495.5,1320.83 495.5,1321.17 495.5,1321.5C 490.335,1324.01 485.001,1326.01 479.5,1327.5C 479.47,1326.5 479.97,1325.84 481,1325.5C 485.721,1323.38 490.555,1321.72 495.5,1320.5 Z"/></g>
<g><path style="opacity:1" fill="#e3a94e" d="M 927.5,1320.5 C 927.5,1321.17 927.5,1321.83 927.5,1322.5C 922.195,1324.11 916.862,1325.78 911.5,1327.5C 911.5,1326.5 911.5,1325.5 911.5,1324.5C 916.58,1322.28 921.914,1320.95 927.5,1320.5 Z"/></g>
<g><path style="opacity:1" fill="#fdf5da" d="M 927.5,1322.5 C 924.469,1324.33 921.469,1326.49 918.5,1329C 919.731,1330.18 919.731,1331.35 918.5,1332.5C 917.914,1332.29 917.414,1331.96 917,1331.5C 915.601,1332.23 914.101,1332.73 912.5,1333C 918.903,1334.42 918.569,1335.26 911.5,1335.5C 911.5,1334.5 911.5,1333.5 911.5,1332.5C 900.807,1334.18 890.141,1335.84 879.5,1337.5C 886.48,1335.29 893.647,1333.29 901,1331.5C 903.287,1330.7 905.12,1329.37 906.5,1327.5C 908.167,1327.5 909.833,1327.5 911.5,1327.5C 916.862,1325.78 922.195,1324.11 927.5,1322.5 Z"/></g>
<g><path style="opacity:1" fill="#ca2c3b" d="M 479.5,1327.5 C 474.435,1329.77 469.102,1331.44 463.5,1332.5C 465.395,1330.56 467.728,1329.06 470.5,1328C 473.482,1327.5 476.482,1327.34 479.5,1327.5 Z"/></g>
<g><path style="opacity:1" fill="#db7f87" d="M 242.5,1327.5 C 243.833,1327.5 245.167,1327.5 246.5,1327.5C 248.19,1329.34 250.19,1330.68 252.5,1331.5C 248.525,1331.51 245.192,1330.18 242.5,1327.5 Z"/></g>
<g><path style="opacity:1" fill="#c31927" d="M 463.5,1332.5 C 463.5,1332.83 463.5,1333.17 463.5,1333.5C 458.233,1334.82 452.9,1335.82 447.5,1336.5C 449.111,1334.91 451.111,1333.74 453.5,1333C 456.817,1332.5 460.15,1332.33 463.5,1332.5 Z"/></g>
<g><path style="opacity:1" fill="#cb212e" d="M 246.5,1327.5 C 249.09,1327.4 251.423,1328.06 253.5,1329.5C 254.554,1329.32 255.554,1328.99 256.5,1328.5C 260.344,1330.39 264.011,1332.56 267.5,1335C 272.5,1335.33 277.5,1335.67 282.5,1336C 283.337,1337.01 283.67,1338.18 283.5,1339.5C 288.899,1339.31 294.233,1339.81 299.5,1341C 301.437,1341.12 302.77,1341.95 303.5,1343.5C 286.163,1340.92 269.163,1336.92 252.5,1331.5C 250.19,1330.68 248.19,1329.34 246.5,1327.5 Z"/></g>
<g><path style="opacity:1" fill="#e1aa51" d="M 675.5,1327.5 C 679.546,1328.01 683.546,1328.85 687.5,1330C 694.202,1334.01 701.535,1336.01 709.5,1336C 718.477,1338.19 727.144,1340.69 735.5,1343.5C 733.5,1343.5 731.5,1343.5 729.5,1343.5C 728.158,1342.21 726.491,1341.37 724.5,1341C 717.354,1340.56 710.354,1339.39 703.5,1337.5C 696.368,1335.07 689.035,1332.9 681.5,1331C 679.273,1330.06 677.273,1328.89 675.5,1327.5 Z"/></g>
<g><path style="opacity:1" fill="#e2a541" d="M 906.5,1327.5 C 905.12,1329.37 903.287,1330.7 901,1331.5C 893.647,1333.29 886.48,1335.29 879.5,1337.5C 879.5,1337.83 879.5,1338.17 879.5,1338.5C 870.072,1339.65 860.739,1341.32 851.5,1343.5C 853.273,1342.11 855.273,1340.94 857.5,1340C 874,1336.33 890.333,1332.16 906.5,1327.5 Z"/></g>
<g><path style="opacity:1" fill="#d31727" d="M 447.5,1336.5 C 437.24,1340.11 426.573,1342.44 415.5,1343.5C 414.737,1342.73 413.737,1342.23 412.5,1342C 423.862,1338.94 435.529,1337.11 447.5,1336.5 Z"/></g>
<g><path style="opacity:1" fill="#fbe6b4" d="M 703.5,1337.5 C 710.354,1339.39 717.354,1340.56 724.5,1341C 726.491,1341.37 728.158,1342.21 729.5,1343.5C 723.604,1342.1 717.604,1341.27 711.5,1341C 708.399,1340.36 705.732,1339.2 703.5,1337.5 Z"/></g>
<g><path style="opacity:1" fill="#ba2832" d="M 303.5,1343.5 C 312.214,1343.86 320.88,1344.53 329.5,1345.5C 329.5,1345.83 329.5,1346.17 329.5,1346.5C 326.167,1346.5 322.833,1346.5 319.5,1346.5C 315.036,1345.36 310.37,1344.69 305.5,1344.5C 304.508,1344.67 303.842,1344.34 303.5,1343.5 Z"/></g>
<g><path style="opacity:1" fill="#fbdee2" d="M 463.5,1333.5 C 460.665,1334.52 457.998,1336.02 455.5,1338C 450.771,1338.27 446.104,1338.94 441.5,1340C 434.303,1341.84 427.303,1344.17 420.5,1347C 416.852,1347.06 413.185,1346.9 409.5,1346.5C 411.5,1345.83 413.5,1345.17 415.5,1344.5C 415.5,1344.17 415.5,1343.83 415.5,1343.5C 426.573,1342.44 437.24,1340.11 447.5,1336.5C 452.9,1335.82 458.233,1334.82 463.5,1333.5 Z"/></g>
<g><path style="opacity:1" fill="#fbe6a7" d="M 735.5,1344.5 C 741.051,1344.53 746.384,1345.19 751.5,1346.5C 745.931,1346.62 740.598,1345.96 735.5,1344.5 Z"/></g>
<g><path style="opacity:1" fill="#fbc1c3" d="M 305.5,1344.5 C 310.37,1344.69 315.036,1345.36 319.5,1346.5C 315.818,1346.67 312.152,1346.5 308.5,1346C 307.263,1345.77 306.263,1345.27 305.5,1344.5 Z"/></g>
<g><path style="opacity:1" fill="#c5222f" d="M 415.5,1343.5 C 415.5,1343.83 415.5,1344.17 415.5,1344.5C 407.283,1344.86 399.283,1345.86 391.5,1347.5C 388.615,1347.19 385.948,1347.53 383.5,1348.5C 365.397,1348.93 347.397,1348.26 329.5,1346.5C 329.5,1346.17 329.5,1345.83 329.5,1345.5C 358.225,1345.91 386.891,1345.24 415.5,1343.5 Z"/></g>
<g><path style="opacity:1" fill="#f6b1b6" d="M 415.5,1344.5 C 413.5,1345.17 411.5,1345.83 409.5,1346.5C 403.516,1347.07 397.516,1347.41 391.5,1347.5C 399.283,1345.86 407.283,1344.86 415.5,1344.5 Z"/></g>
<g><path style="opacity:1" fill="#e4a33b" d="M 735.5,1344.5 C 735.5,1344.17 735.5,1343.83 735.5,1343.5C 767.475,1345.05 799.475,1345.72 831.5,1345.5C 831.5,1345.83 831.5,1346.17 831.5,1346.5C 826.167,1346.83 820.833,1347.17 815.5,1347.5C 796.824,1347.57 778.157,1347.23 759.5,1346.5C 756.833,1346.5 754.167,1346.5 751.5,1346.5C 746.384,1345.19 741.051,1344.53 735.5,1344.5 Z"/></g>
<g><path style="opacity:1" fill="#fdf4d2" d="M 879.5,1338.5 C 879.5,1339.5 879.5,1340.5 879.5,1341.5C 870.517,1341.59 861.85,1343.09 853.5,1346C 846.174,1346.5 838.841,1346.67 831.5,1346.5C 831.5,1346.17 831.5,1345.83 831.5,1345.5C 838.203,1345.16 844.87,1344.5 851.5,1343.5C 860.739,1341.32 870.072,1339.65 879.5,1338.5 Z"/></g>
<g><path style="opacity:1" fill="#fed4db" d="M 319.5,1346.5 C 322.833,1346.5 326.167,1346.5 329.5,1346.5C 347.397,1348.26 365.397,1348.93 383.5,1348.5C 367.672,1349.66 351.672,1349.83 335.5,1349C 329.975,1348.48 324.642,1347.65 319.5,1346.5 Z"/></g>
<g><path style="opacity:1" fill="#fff5ce" d="M 751.5,1346.5 C 754.167,1346.5 756.833,1346.5 759.5,1346.5C 769.951,1348.06 780.618,1348.72 791.5,1348.5C 799.674,1348.5 807.674,1348.17 815.5,1347.5C 820.833,1347.17 826.167,1346.83 831.5,1346.5C 831.5,1347.5 831.5,1348.5 831.5,1349.5C 804.833,1349.5 778.167,1349.5 751.5,1349.5C 751.5,1348.5 751.5,1347.5 751.5,1346.5 Z"/></g>
<g><path style="opacity:1" fill="#e1ba72" d="M 759.5,1346.5 C 778.157,1347.23 796.824,1347.57 815.5,1347.5C 807.674,1348.17 799.674,1348.5 791.5,1348.5C 780.618,1348.72 769.951,1348.06 759.5,1346.5 Z"/></g>
</svg>
