<?xml version="1.0" encoding="UTF-8"?>
<!DOCTYPE svg PUBLIC "-//W3C//DTD SVG 1.1//EN" "http://www.w3.org/Graphics/SVG/1.1/DTD/svg11.dtd">
<svg xmlns="http://www.w3.org/2000/svg" version="1.1" width="100px" height="27px" style="shape-rendering:geometricPrecision; text-rendering:geometricPrecision; image-rendering:optimizeQuality; fill-rule:evenodd; clip-rule:evenodd" xmlns:xlink="http://www.w3.org/1999/xlink">
<g><path style="opacity:0.95" fill="#fa7a07" d="M 10.5,-0.5 C 13.8333,-0.5 17.1667,-0.5 20.5,-0.5C 23.8864,1.22125 26.2197,3.88792 27.5,7.5C 23.7727,5.74762 19.7727,5.08095 15.5,5.5C 14.1547,3.30851 12.1547,1.97518 9.5,1.5C 9.86273,0.816537 10.1961,0.14987 10.5,-0.5 Z"/></g>
<g><path style="opacity:0.998" fill="#f5f5f5" d="M 65.5,7.5 C 66.4293,8.31491 67.4293,9.14825 68.5,10C 66.4432,10.3052 64.4432,10.3052 62.5,10C 59.6736,12.8641 60.1736,15.0308 64,16.5C 66.9427,15.7597 67.1093,14.7597 64.5,13.5C 65.6888,12.5713 67.0222,12.238 68.5,12.5C 67.6854,18.7863 64.5188,20.1196 59,16.5C 58.5065,14.8659 58.3398,13.1992 58.5,11.5C 59.855,8.48233 62.1884,7.149 65.5,7.5 Z"/></g>
<g><path style="opacity:0.999" fill="#fb7605" d="M 9.5,11.5 C 8.16338,13.3495 7.49671,15.5161 7.5,18C 7.82085,20.8045 8.82085,23.3045 10.5,25.5C 2.9349,22.3708 0.101568,16.7041 2,8.5C 2.68722,6.4453 3.85389,4.77863 5.5,3.5C 5.16303,6.82801 6.49636,9.49468 9.5,11.5 Z"/></g>
<g><path style="opacity:1" fill="#feb412" d="M 27.5,7.5 C 30.5587,15.6469 28.2253,21.9802 20.5,26.5C 17.8333,26.5 15.1667,26.5 12.5,26.5C 9.61518,19.0633 11.6152,13.5633 18.5,10C 21.992,10.0704 24.992,9.23711 27.5,7.5 Z"/></g>
<g><path style="opacity:0.996" fill="#eaeaea" d="M 57.5,11.5 C 55.9348,13.5093 54.9348,15.8427 54.5,18.5C 53.5207,21.1567 51.854,21.8234 49.5,20.5C 51.7323,17.6454 51.7323,14.6454 49.5,11.5C 50.0016,10.479 50.6683,10.3123 51.5,11C 52.8324,15.5337 53.8324,15.367 54.5,10.5C 55.791,10.2627 56.791,10.596 57.5,11.5 Z"/></g>
<g><path style="opacity:0.98" fill="#fda00e" d="M 15.5,5.5 C 19.7727,5.08095 23.7727,5.74762 27.5,7.5C 24.992,9.23711 21.992,10.0704 18.5,10C 11.6152,13.5633 9.61518,19.0633 12.5,26.5C 11.8333,26.5 11.1667,26.5 10.5,26.5C 10.5,26.1667 10.5,25.8333 10.5,25.5C 8.82085,23.3045 7.82085,20.8045 7.5,18C 7.49671,15.5161 8.16338,13.3495 9.5,11.5C 13.1667,11.1667 15.1667,9.16667 15.5,5.5 Z"/></g>
<g><path style="opacity:0.688" fill="#4d4d4d" d="M 56.5,18.5 C 55.8333,18.5 55.1667,18.5 54.5,18.5C 54.9348,15.8427 55.9348,13.5093 57.5,11.5C 57.8333,11.5 58.1667,11.5 58.5,11.5C 58.3398,13.1992 58.5065,14.8659 59,16.5C 64.5188,20.1196 67.6854,18.7863 68.5,12.5C 67.0222,12.238 65.6888,12.5713 64.5,13.5C 67.1093,14.7597 66.9427,15.7597 64,16.5C 60.1736,15.0308 59.6736,12.8641 62.5,10C 64.4432,10.3052 66.4432,10.3052 68.5,10C 67.4293,9.14825 66.4293,8.31491 65.5,7.5C 66.1667,7.5 66.8333,7.5 67.5,7.5C 68.7564,7.90384 69.9231,8.57051 71,9.5C 73.1849,8.24153 75.3516,8.24153 77.5,9.5C 78.4287,8.31116 78.762,6.97782 78.5,5.5C 80.5,5.5 82.5,5.5 84.5,5.5C 84.3433,6.87344 84.51,8.20677 85,9.5C 86.0113,8.66337 87.1779,8.33003 88.5,8.5C 88.5,7.5 88.5,6.5 88.5,5.5C 90.5,5.5 92.5,5.5 94.5,5.5C 94.5,10.1667 94.5,14.8333 94.5,19.5C 87.8669,19.577 81.2002,19.9103 74.5,20.5C 72.7257,20.1132 71.059,19.4465 69.5,18.5C 64.7493,21.5167 60.5826,20.85 57,16.5C 56.5357,17.0944 56.369,17.7611 56.5,18.5 Z"/></g>
<g><path style="opacity:0.998" fill="#f7f7f7" d="M 72.5,10.5 C 78.4877,10.664 79.821,13.164 76.5,18C 70.4034,18.1475 69.0701,15.6475 72.5,10.5 Z"/></g>
<g><path style="opacity:0.999" fill="#f5f5f5" d="M 90.5,7.5 C 91.7868,8.87135 92.4535,10.7047 92.5,13C 92.1667,14.8333 91.8333,16.6667 91.5,18.5C 89.6565,18.2448 87.6565,18.0781 85.5,18C 84.4086,15.9361 84.2419,13.7695 85,11.5C 86.6667,10.1667 88.3333,10.1667 90,11.5C 90.49,10.2068 90.6567,8.87344 90.5,7.5 Z"/></g>
<g><path style="opacity:1" fill="#fefffe" d="M 80.5,7.5 C 81.7868,8.87135 82.4535,10.7047 82.5,13C 82.1667,14.8333 81.8333,16.6667 81.5,18.5C 80.5108,14.8927 80.1774,11.226 80.5,7.5 Z"/></g>
<g><path style="opacity:0.68" fill="#515151" d="M 87.5,12.5 C 90.8606,13.2032 91.1939,14.5365 88.5,16.5C 86.3576,15.5629 86.0243,14.2296 87.5,12.5 Z"/></g>
<g><path style="opacity:0.831" fill="#4a4a4a" d="M 67.5,7.5 C 66.8333,7.5 66.1667,7.5 65.5,7.5C 62.1884,7.149 59.855,8.48233 58.5,11.5C 58.1667,11.5 57.8333,11.5 57.5,11.5C 56.791,10.596 55.791,10.2627 54.5,10.5C 53.8324,15.367 52.8324,15.5337 51.5,11C 50.6683,10.3123 50.0016,10.479 49.5,11.5C 51.7323,14.6454 51.7323,17.6454 49.5,20.5C 51.854,21.8234 53.5207,21.1567 54.5,18.5C 55.1667,18.5 55.8333,18.5 56.5,18.5C 55.8561,21.144 54.1894,22.8106 51.5,23.5C 49.4501,22.9234 48.4501,21.5901 48.5,19.5C 46.9397,19.5191 45.4397,19.8524 44,20.5C 41.316,19.2691 38.816,17.9358 36.5,16.5C 36.5,17.5 36.5,18.5 36.5,19.5C 34.8333,19.5 33.1667,19.5 31.5,19.5C 31.5,15.1667 31.5,10.8333 31.5,6.5C 35.6034,5.7691 39.1034,6.7691 42,9.5C 45.563,9.03986 49.2296,9.03986 53,9.5C 56.856,8.63301 60.5227,7.29968 64,5.5C 65.3024,6.0848 66.469,6.75147 67.5,7.5 Z"/></g>
<g><path style="opacity:0.996" fill="#e3e3e3" d="M 42.5,10.5 C 47.8155,10.4974 49.8155,13.164 48.5,18.5C 46.1667,18.5 43.8333,18.5 41.5,18.5C 40.7904,15.1405 42.1238,13.3071 45.5,13C 44.1667,12.6667 42.8333,12.3333 41.5,12C 42.056,11.6174 42.3893,11.1174 42.5,10.5 Z"/></g>
<g><path style="opacity:1" fill="#efefef" d="M 32.5,7.5 C 36.0982,7.13458 38.7648,8.46791 40.5,11.5C 39.5711,13.6378 37.9045,14.8045 35.5,15C 34.9288,16.2051 34.2621,17.3717 33.5,18.5C 32.5108,14.8927 32.1774,11.226 32.5,7.5 Z"/></g>
<g><path style="opacity:0.829" fill="#5b5b5b" d="M 34.5,9.5 C 38.31,10.7542 38.31,11.7542 34.5,12.5C 34.5,11.5 34.5,10.5 34.5,9.5 Z"/></g>
<g><path style="opacity:0.571" fill="#4e4e4e" d="M 73.5,12.5 C 76.8606,13.2032 77.1939,14.5365 74.5,16.5C 72.3576,15.5629 72.0243,14.2296 73.5,12.5 Z"/></g>
<g><path style="opacity:0.196" fill="#fd880b" d="M 72.5,26.5 C 73.8333,25.1667 75.1667,25.1667 76.5,26.5C 75.1667,26.5 73.8333,26.5 72.5,26.5 Z"/></g>
</svg>
