<?xml version="1.0" encoding="utf-8"?>
<!-- Generator: Adobe Illustrator 18.0.0, SVG Export Plug-In . SVG Version: 6.00 Build 0)  -->
<!DOCTYPE svg PUBLIC "-//W3C//DTD SVG 1.1//EN" "http://www.w3.org/Graphics/SVG/1.1/DTD/svg11.dtd">
<svg version="1.1" id="Layer_1" xmlns="http://www.w3.org/2000/svg" xmlns:xlink="http://www.w3.org/1999/xlink" x="0px" y="0px"
	 width="32px" height="32px" viewBox="0 0 32 32" style="enable-background:new 0 0 32 32;" xml:space="preserve">
<style type="text/css">
	.st0{fill:url(#SVGID_1_);}
	.st1{fill:url(#SVGID_2_);}
	.st2{fill:url(#SVGID_3_);}
	.st3{fill:url(#SVGID_4_);}
	.st4{fill:url(#SVGID_5_);}
	.st5{fill:url(#SVGID_6_);}
	.st6{fill:url(#SVGID_7_);}
	.st7{fill:url(#SVGID_8_);}
	.st8{fill:url(#SVGID_9_);}
</style>
<g>
	<linearGradient id="SVGID_1_" gradientUnits="userSpaceOnUse" x1="6.3749" y1="-6.1251" x2="38.4574" y2="25.9574">
		<stop  offset="0" style="stop-color:#E2498A"/>
		<stop  offset="1" style="stop-color:#5A2ED2"/>
	</linearGradient>
	<path class="st0" d="M12.7,7.9C12.8,8,13,8,13.1,8s0.3,0,0.4-0.1l3.1-3.1l3.1,3.1C19.8,8,20,8,20.1,8s0.3,0,0.4-0.1
		c0.2-0.2,0.2-0.5,0-0.7L17.3,4l3.1-3.1c0.2-0.2,0.2-0.5,0-0.7s-0.5-0.2-0.7,0l-3.1,3.1l-3.1-3.1C13.3,0,13,0,12.8,0.2
		s-0.2,0.5,0,0.7L15.9,4l-3.1,3.1C12.5,7.3,12.5,7.7,12.7,7.9z"/>
	<linearGradient id="SVGID_2_" gradientUnits="userSpaceOnUse" x1="-6.1001" y1="6.3499" x2="25.9824" y2="38.4324">
		<stop  offset="0" style="stop-color:#E2498A"/>
		<stop  offset="1" style="stop-color:#5A2ED2"/>
	</linearGradient>
	<path class="st1" d="M0.1,20.3c0.1,0.1,0.2,0.1,0.4,0.1s0.3,0,0.4-0.1L4,17.1l3.1,3.1c0.1,0.1,0.2,0.1,0.4,0.1s0.3,0,0.4-0.1
		c0.2-0.2,0.2-0.5,0-0.7l-3.1-3.1l3.1-3.1c0.2-0.2,0.2-0.5,0-0.7s-0.5-0.2-0.7,0L4,15.7l-3.1-3.1c-0.2-0.2-0.5-0.2-0.7,0
		s-0.2,0.5,0,0.7l3.1,3.1l-3.1,3.1C0,19.8,0,20.1,0.1,20.3z"/>
	<linearGradient id="SVGID_3_" gradientUnits="userSpaceOnUse" x1="5.8749" y1="-5.6251" x2="37.9574" y2="26.4574">
		<stop  offset="0" style="stop-color:#E2498A"/>
		<stop  offset="1" style="stop-color:#5A2ED2"/>
	</linearGradient>
	<path class="st2" d="M24.1,20.3c0.1,0.1,0.2,0.1,0.4,0.1s0.3,0,0.4-0.1l3.1-3.1l3.1,3.1c0.1,0.1,0.2,0.1,0.4,0.1s0.3,0,0.4-0.1
		c0.2-0.2,0.2-0.5,0-0.7l-3.1-3.1l3.1-3.1c0.2-0.2,0.2-0.5,0-0.7s-0.5-0.2-0.7,0l-3.2,3l-3.1-3.1c-0.2-0.2-0.5-0.2-0.7,0
		s-0.2,0.5,0,0.7l3.1,3.1l-3.1,3.1C24,19.8,24,20.1,24.1,20.3z"/>
	<linearGradient id="SVGID_4_" gradientUnits="userSpaceOnUse" x1="0.1249" y1="0.1249" x2="32.2074" y2="32.2074">
		<stop  offset="0" style="stop-color:#E2498A"/>
		<stop  offset="1" style="stop-color:#5A2ED2"/>
	</linearGradient>
	<path class="st3" d="M4,8c2.2,0,4-1.8,4-4S6.2,0,4,0S0,1.8,0,4S1.8,8,4,8z M4,1c1.7,0,3,1.3,3,3S5.7,7,4,7S1,5.7,1,4S2.3,1,4,1z"/>
	<linearGradient id="SVGID_5_" gradientUnits="userSpaceOnUse" x1="12.1249" y1="-11.8751" x2="44.2074" y2="20.2074">
		<stop  offset="0" style="stop-color:#E2498A"/>
		<stop  offset="1" style="stop-color:#5A2ED2"/>
	</linearGradient>
	<path class="st4" d="M28,8c2.2,0,4-1.8,4-4s-1.8-4-4-4s-4,1.8-4,4S25.8,8,28,8z M28,1c1.7,0,3,1.3,3,3s-1.3,3-3,3s-3-1.3-3-3
		S26.3,1,28,1z"/>
	<linearGradient id="SVGID_6_" gradientUnits="userSpaceOnUse" x1="-5.6251" y1="5.8749" x2="26.4574" y2="37.9574">
		<stop  offset="0" style="stop-color:#E2498A"/>
		<stop  offset="1" style="stop-color:#5A2ED2"/>
	</linearGradient>
	<path class="st5" d="M12.7,31.9C12.8,32,13,32,13.1,32s0.3,0,0.4-0.1l3.1-3.1l3.1,3.1C19.8,32,20,32,20.1,32s0.3,0,0.4-0.1
		c0.2-0.2,0.2-0.5,0-0.7L17.3,28l3.1-3.1c0.2-0.2,0.2-0.5,0-0.7s-0.5-0.2-0.7,0l-3.1,3.1l-3.1-3.1c-0.2-0.2-0.5-0.2-0.7,0
		s-0.2,0.5,0,0.7l3.1,3.1l-3.1,3.1C12.5,31.3,12.5,31.7,12.7,31.9z"/>
	<linearGradient id="SVGID_7_" gradientUnits="userSpaceOnUse" x1="0.1249" y1="0.1249" x2="32.2074" y2="32.2074">
		<stop  offset="0" style="stop-color:#E2498A"/>
		<stop  offset="1" style="stop-color:#5A2ED2"/>
	</linearGradient>
	<path class="st6" d="M28,32c2.2,0,4-1.8,4-4s-1.8-4-4-4s-4,1.8-4,4S25.8,32,28,32z M28,25c1.7,0,3,1.3,3,3s-1.3,3-3,3s-3-1.3-3-3
		S26.3,25,28,25z"/>
	<linearGradient id="SVGID_8_" gradientUnits="userSpaceOnUse" x1="-11.8751" y1="12.1249" x2="20.2074" y2="44.2074">
		<stop  offset="0" style="stop-color:#E2498A"/>
		<stop  offset="1" style="stop-color:#5A2ED2"/>
	</linearGradient>
	<path class="st7" d="M4,32c2.2,0,4-1.8,4-4s-1.8-4-4-4s-4,1.8-4,4S1.8,32,4,32z M4,25c1.7,0,3,1.3,3,3s-1.3,3-3,3s-3-1.3-3-3
		S2.3,25,4,25z"/>
	<linearGradient id="SVGID_9_" gradientUnits="userSpaceOnUse" x1="0.2249" y1="2.485667e-02" x2="32.3074" y2="32.1074">
		<stop  offset="0" style="stop-color:#E2498A"/>
		<stop  offset="1" style="stop-color:#5A2ED2"/>
	</linearGradient>
	<path class="st8" d="M16.6,20.4c2.2,0,4-1.8,4-4s-1.8-4-4-4s-4,1.8-4,4S14.4,20.4,16.6,20.4z M16.6,13.4c1.7,0,3,1.3,3,3
		s-1.3,3-3,3s-3-1.3-3-3S14.9,13.4,16.6,13.4z"/>
</g>
</svg>
