<?xml version="1.0" encoding="utf-8"?>
<!-- Generator: Adobe Illustrator 18.0.0, SVG Export Plug-In . SVG Version: 6.00 Build 0)  -->
<!DOCTYPE svg PUBLIC "-//W3C//DTD SVG 1.1//EN" "http://www.w3.org/Graphics/SVG/1.1/DTD/svg11.dtd">
<svg version="1.1" id="Layer_1" xmlns="http://www.w3.org/2000/svg" xmlns:xlink="http://www.w3.org/1999/xlink" x="0px" y="0px"
	 width="32px" height="32px" viewBox="0 0 32 32" style="enable-background:new 0 0 32 32;" xml:space="preserve">
<style type="text/css">
	.st0{fill:url(#SVGID_1_);}
	.st1{fill:url(#SVGID_2_);}
</style>
<g>
	<linearGradient id="SVGID_1_" gradientUnits="userSpaceOnUse" x1="-0.2893" y1="-7.907179e-02" x2="32.2041" y2="31.9951">
		<stop  offset="0" style="stop-color:#E2498A"/>
		<stop  offset="1" style="stop-color:#5A2ED2"/>
	</linearGradient>
	<path class="st0" d="M1.5,32h29c0.8,0,1.5-0.7,1.5-1.5V26v-1v-5v-1v-6v-1V7V6V1.5C32,0.7,31.3,0,30.5,0h-29C0.7,0,0,0.7,0,1.5v29
		C0,31.3,0.7,32,1.5,32z M27,1h3.5C30.8,1,31,1.2,31,1.5V6h-4V1z M27,7h4v5h-4V7z M27,13h4v6h-4V13z M27,20h4v5h-4V20z M27,26h4v4.5
		c0,0.3-0.2,0.5-0.5,0.5H27V26z M6,26v-1v-5v-1v-6v-1V7V6V1h20v30H6V26z M1,1.5C1,1.2,1.2,1,1.5,1H5v5H1V1.5z M1,7h4v5H1V7z M1,13h4
		v6H1V13z M1,20h4v5H1V20z M1,26h4v5H1.5C1.2,31,1,30.8,1,30.5V26z"/>
	<linearGradient id="SVGID_2_" gradientUnits="userSpaceOnUse" x1="0.1341" y1="-0.5079" x2="32.6275" y2="31.5662">
		<stop  offset="0" style="stop-color:#E2498A"/>
		<stop  offset="1" style="stop-color:#5A2ED2"/>
	</linearGradient>
	<path class="st1" d="M19.8,14l-3.5-2.2c-0.2-0.2-0.5-0.2-0.8-0.2c-0.8,0-1.5,0.7-1.5,1.5v4.4c0,0.8,0.7,1.5,1.5,1.5
		c0.3,0,0.6-0.1,0.8-0.2l3.5-2.2c0.4-0.3,0.7-0.8,0.7-1.3S20.2,14.3,19.8,14z M19.3,15.7l-3.5,2.2c-0.3,0.2-0.8,0-0.8-0.4v-4.4
		c0-0.3,0.3-0.5,0.5-0.5c0.1,0,0.2,0,0.3,0.1l3.5,2.2c0.2,0.1,0.2,0.3,0.2,0.4S19.5,15.5,19.3,15.7z"/>
</g>
</svg>
