<?xml version="1.0" encoding="utf-8"?>
<!-- Generator: Adobe Illustrator 18.0.0, SVG Export Plug-In . SVG Version: 6.00 Build 0)  -->
<!DOCTYPE svg PUBLIC "-//W3C//DTD SVG 1.1//EN" "http://www.w3.org/Graphics/SVG/1.1/DTD/svg11.dtd">
<svg version="1.1" id="Layer_1" xmlns="http://www.w3.org/2000/svg" xmlns:xlink="http://www.w3.org/1999/xlink" x="0px" y="0px"
	 width="288px" height="140px" viewBox="0 0 288 140" enable-background="new 0 0 288 140" xml:space="preserve">
<g>
	<path fill="#FFFFFF" d="M281.6,21.4c0.7,0,1.3-0.1,2-0.2c1.2-0.1,2.1-1.3,1.9-2.5c-0.1-1.2-1.3-2.1-2.5-1.9
		c-8.8,1-17.1-4.3-19.9-12.7c-0.4-1.2-1.6-1.8-2.8-1.4c-1.2,0.4-1.8,1.6-1.4,2.8C262.1,15.4,271.5,21.8,281.6,21.4z"/>
	<path fill="#FFFFFF" d="M284.8,30c-0.7-1.6-2.3-2.6-4-2.5c-2.3,0.1-4.7,0-7.1-0.5c-9.9-2-17.5-9-20.9-17.7
		c-0.6-1.6-2.2-2.7-3.9-2.6C230.4,7,214.3,20.8,212,40.2c-2.1,17.7,8.9,34.8,25.8,40.3c21.9,7.1,44.5-6.5,49-28.4
		C288.5,44.4,287.6,36.8,284.8,30z M255.8,32.9c0.2-1.2,1.4-2,2.6-1.7l9.4,1.9c1.2,0.2,2,1.4,1.7,2.6s-1.4,2-2.6,1.7l-9.4-1.9
		C256.4,35.3,255.6,34.1,255.8,32.9z M235.1,30c0.6-2.9,3.4-4.7,6.3-4.1c2.9,0.6,4.7,3.4,4.1,6.3c-0.6,2.9-3.4,4.7-6.3,4.1
		C236.3,35.6,234.5,32.8,235.1,30z M271.4,56.3c-4.6,11.1-17.2,17.4-29.4,13.4c-9.1-3-15.5-11.3-16.3-20.6c-0.2-2.4,1.9-4.4,4.3-4
		l38.6,6.1C270.9,51.6,272.3,54.1,271.4,56.3z"/>
	<path fill="#FFFFFF" d="M252.4,59.4c-4.7-1-9.3,0.8-11.8,4.2c-0.5,0.7-0.2,1.8,0.6,2.2c1.5,0.7,3.1,1.3,4.8,1.7
		c4.6,1,9.2,0.2,12.8-1.8c0.8-0.4,1-1.6,0.4-2.3C257.6,61.4,255.2,60,252.4,59.4z"/>
</g>
<g>
	<path fill="#FFFFFF" d="M1.3,40.9h9.2c0.7,0,1.2,0.6,1.2,1.2v14.4h14V42.2c0-0.7,0.6-1.2,1.2-1.2h9.2c0.7,0,1.2,0.6,1.2,1.2v36.9
		c0,0.7-0.6,1.2-1.2,1.2H27c-0.7,0-1.2-0.6-1.2-1.2V65.7h-14v13.4c0,0.7-0.6,1.2-1.2,1.2H1.3c-0.7,0-1.2-0.6-1.2-1.2V42.2
		C0,41.5,0.6,40.9,1.3,40.9z"/>
	<path fill="#FFFFFF" d="M72.6,79.5l-2-5.5H54.7l-2.1,5.5c-0.2,0.5-0.6,0.8-1.2,0.8h-9.3c-0.9,0-1.5-0.9-1.1-1.7l15.8-36.9
		c0.2-0.5,0.6-0.8,1.1-0.8h10.4c0.5,0,1,0.3,1.1,0.8l15.2,36.9c0.3,0.8-0.3,1.7-1.1,1.7h-9.8C73.2,80.4,72.8,80,72.6,79.5z
		 M57.9,65.5h9.6l-4.7-12.9L57.9,65.5z"/>
	<path fill="#FFFFFF" d="M118,44.6c2.8,2.4,4.2,5.9,4.2,10.3c0,4.7-1.4,8.3-4.2,10.9c-2.8,2.6-6.7,3.9-11.8,3.9l-6.2,0.1v9.3
		c0,0.7-0.6,1.2-1.2,1.2h-9.2c-0.7,0-1.2-0.6-1.2-1.2V42.2c0-0.7,0.6-1.2,1.2-1.2h16.6C111.2,40.9,115.2,42.1,118,44.6z M109.6,59.3
		c1-0.9,1.4-2.3,1.4-4c0-1.7-0.5-3-1.4-4c-1-0.9-2.3-1.4-4.1-1.4h-5.6v10.8h5.6C107.3,60.7,108.7,60.3,109.6,59.3z"/>
	<path fill="#FFFFFF" d="M156.4,44.6c2.8,2.4,4.2,5.9,4.2,10.3c0,4.7-1.4,8.3-4.2,10.9c-2.8,2.6-6.7,3.9-11.8,3.9l-6.2,0.1v9.3
		c0,0.7-0.6,1.2-1.2,1.2h-9.2c-0.7,0-1.2-0.6-1.2-1.2V42.2c0-0.7,0.6-1.2,1.2-1.2h16.6C149.6,40.9,153.6,42.1,156.4,44.6z
		 M148.1,59.3c1-0.9,1.4-2.3,1.4-4c0-1.7-0.5-3-1.4-4c-1-0.9-2.3-1.4-4.1-1.4h-5.6v10.8h5.6C145.7,60.7,147.1,60.3,148.1,59.3z"/>
	<path fill="#FFFFFF" d="M200.7,42.7l-13.2,25.1v11.2c0,0.7-0.6,1.2-1.2,1.2H177c-0.7,0-1.2-0.6-1.2-1.2v-11l-13.5-25.3
		c-0.4-0.8,0.2-1.8,1.1-1.8h8.9c0.5,0,0.9,0.3,1.1,0.7l8.3,15.4l8-15.4c0.2-0.4,0.6-0.7,1.1-0.7h8.8
		C200.5,40.9,201.1,41.9,200.7,42.7z"/>
	<path fill="#FFFFFF" d="M31.7,135.9l-2-5.5H13.8l-2.1,5.5c-0.2,0.5-0.6,0.8-1.2,0.8H1.2c-0.9,0-1.5-0.9-1.1-1.7L15.9,98
		c0.2-0.5,0.6-0.8,1.1-0.8h10.4c0.5,0,1,0.3,1.1,0.8L43.8,135c0.3,0.8-0.3,1.7-1.1,1.7h-9.8C32.3,136.7,31.9,136.3,31.7,135.9z
		 M17,121.8h9.6l-4.7-12.9L17,121.8z"/>
	<path fill="#FFFFFF" d="M75.7,99.7c3.2,1.6,5.7,3.9,7.5,6.9c1.8,3,2.6,6.4,2.6,10.3c0,3.9-0.9,7.3-2.7,10.3c-1.8,3-4.3,5.3-7.6,6.9
		c-3.3,1.6-7,2.4-11.3,2.4H48.6c-0.7,0-1.2-0.6-1.2-1.2V98.5c0-0.7,0.6-1.2,1.2-1.2h16C68.8,97.2,72.5,98.1,75.7,99.7z M71.4,124.6
		c1.6-1.9,2.5-4.4,2.5-7.6c0-3.1-0.9-5.7-2.6-7.6c-1.8-1.9-4-2.9-6.9-2.9H59v21h5.9C67.6,127.5,69.8,126.5,71.4,124.6z"/>
	<path fill="#FFFFFF" d="M118.6,99.7c3.2,1.6,5.7,3.9,7.5,6.9c1.8,3,2.6,6.4,2.6,10.3c0,3.9-0.9,7.3-2.7,10.3
		c-1.8,3-4.3,5.3-7.6,6.9c-3.3,1.6-7,2.4-11.3,2.4H91.4c-0.7,0-1.2-0.6-1.2-1.2V98.5c0-0.7,0.6-1.2,1.2-1.2h16
		C111.7,97.2,115.4,98.1,118.6,99.7z M114.3,124.6c1.6-1.9,2.5-4.4,2.5-7.6c0-3.1-0.9-5.7-2.6-7.6c-1.8-1.9-4-2.9-6.9-2.9h-5.3v21
		h5.9C110.5,127.5,112.6,126.5,114.3,124.6z"/>
	<path fill="#FFFFFF" d="M205.8,97.2h8.2c0.7,0,1.2,0.6,1.2,1.2v36.9c0,0.7-0.6,1.2-1.2,1.2h-8.1c-0.4,0-0.8-0.2-1-0.5l-16.3-21.4
		v20.7c0,0.7-0.6,1.2-1.2,1.2H179c-0.7,0-1.2-0.6-1.2-1.2V98.5c0-0.7,0.6-1.2,1.2-1.2h8.2c0.4,0,0.8,0.2,1,0.5l16.3,21.5V98.5
		C204.5,97.8,205.1,97.2,205.8,97.2z"/>
	<path fill="#FFFFFF" d="M243.3,106.8c-2.5-0.9-4.6-1.3-6.2-1.3c-1,0-1.8,0.2-2.4,0.6c-0.6,0.4-0.9,1-0.9,1.7c0,1.1,0.6,1.9,1.7,2.4
		c1.1,0.6,2.9,1.2,5.3,1.9c2.8,0.8,5.1,1.6,6.9,2.4c1.8,0.8,3.4,2,4.7,3.7c1.3,1.7,2,3.8,2,6.5c0,2.7-0.7,5.1-2.2,6.9
		c-1.4,1.9-3.4,3.3-5.8,4.2c-2.5,0.9-5.2,1.4-8.2,1.4c-3.4,0-6.8-0.6-10.2-1.7c-3-1-5.7-2.4-8-4.1c-0.5-0.4-0.6-1-0.4-1.5l3.2-6.6
		c0.3-0.7,1.2-0.9,1.8-0.5c1.8,1.3,3.8,2.5,6.1,3.4c2.9,1.2,5.3,1.8,7.4,1.8c1.3,0,2.3-0.2,3-0.7c0.7-0.5,1.1-1.2,1.1-2.1
		c0-1.1-0.6-1.9-1.7-2.5c-1.2-0.6-3-1.2-5.4-1.8c-2.7-0.7-5-1.5-6.8-2.2c-1.8-0.8-3.4-2-4.7-3.6c-1.3-1.6-2-3.7-2-6.4
		c0-2.5,0.7-4.8,2-6.7c1.4-1.9,3.3-3.3,5.7-4.4c2.5-1,5.3-1.5,8.6-1.5c3,0,5.9,0.4,8.8,1.3c2.5,0.7,4.7,1.6,6.7,2.8
		c0.6,0.3,0.8,1,0.5,1.6l-3.3,6.8c-0.3,0.6-1.1,0.9-1.7,0.5C247.3,108.3,245.3,107.5,243.3,106.8z"/>
</g>
<path fill="#FFFFFF" d="M170.3,109.2c-0.4-0.9-1.2-1.4-2.2-1.4c-1.3,0.1-2.5,0-3.8-0.3c-5.3-1.1-9.4-4.8-11.3-9.5
	c-0.3-0.9-1.2-1.4-2.1-1.4c-9.9,0.2-18.6,7.6-19.8,18.1c-1.1,9.5,4.8,18.7,13.9,21.7c11.8,3.8,23.9-3.5,26.4-15.3
	C172.3,116.9,171.8,112.8,170.3,109.2z M151.5,126.3c-5.2,0-9.4-4.2-9.4-9.4c0-5.2,4.2-9.4,9.4-9.4s9.4,4.2,9.4,9.4
	C160.9,122.1,156.7,126.3,151.5,126.3z"/>
</svg>
