<?xml version="1.0" encoding="utf-8"?>
<!-- Generator: Adobe Illustrator 18.0.0, SVG Export Plug-In . SVG Version: 6.00 Build 0)  -->
<!DOCTYPE svg PUBLIC "-//W3C//DTD SVG 1.1//EN" "http://www.w3.org/Graphics/SVG/1.1/DTD/svg11.dtd">
<svg version="1.1" id="Layer_1" xmlns="http://www.w3.org/2000/svg" xmlns:xlink="http://www.w3.org/1999/xlink" x="0px" y="0px"
	 width="32px" height="32px" viewBox="0 0 32 32" style="enable-background:new 0 0 32 32;" xml:space="preserve">
<style type="text/css">
	.st0{fill:url(#SVGID_1_);}
	.st1{fill:url(#SVGID_2_);}
	.st2{fill:url(#SVGID_3_);}
	.st3{fill:url(#SVGID_4_);}
	.st4{fill:url(#SVGID_5_);}
</style>
<g>
	<linearGradient id="SVGID_1_" gradientUnits="userSpaceOnUse" x1="3.5418" y1="-3.0418" x2="35.2244" y2="28.6408">
		<stop  offset="0" style="stop-color:#E2498A"/>
		<stop  offset="1" style="stop-color:#5A2ED2"/>
	</linearGradient>
	<path class="st0" d="M29.1,16.9c-1.4,0-2.6,1-2.8,2.4h-2.3l-3.1-3.1H18v-2.1H20l3-3h1.7c0.2,1.3,1.4,2.4,2.8,2.4
		c1.6,0,2.9-1.3,2.9-2.9c0-1.6-1.3-2.9-2.9-2.9c-1.4,0-2.6,1-2.8,2.4h-2.1l-3,3H18V5.4L19.5,4c0.4,1,1.5,1.7,2.6,1.7
		c1.6,0,2.9-1.3,2.9-2.9S23.7,0,22.1,0c-1.6,0-2.8,1.3-2.9,2.8L17,5v21.2l3.2,2.1c-0.1,0.2-0.1,0.5-0.1,0.8c0,1.6,1.3,2.9,2.9,2.9
		c1.6,0,2.9-1.3,2.9-2.9s-1.3-2.9-2.9-2.9c-0.9,0-1.8,0.5-2.3,1.2L18,25.7v-8.5h2.4l3.1,3.1h2.7c0.2,1.3,1.4,2.3,2.8,2.3
		c1.6,0,2.9-1.3,2.9-2.9S30.7,16.9,29.1,16.9z M27.5,8.7c1,0,1.9,0.8,1.9,1.9s-0.8,1.9-1.9,1.9s-1.9-0.8-1.9-1.9S26.5,8.7,27.5,8.7z
		 M22.1,1c1,0,1.9,0.8,1.9,1.9s-0.8,1.9-1.9,1.9s-1.9-0.8-1.9-1.9S21.1,1,22.1,1z M23,27.2c1,0,1.9,0.8,1.9,1.9S24,30.9,23,30.9
		s-1.9-0.8-1.9-1.9S22,27.2,23,27.2z M29.1,21.7c-1,0-1.9-0.8-1.9-1.9s0.8-1.9,1.9-1.9s1.9,0.8,1.9,1.9S30.1,21.7,29.1,21.7z"/>
	<linearGradient id="SVGID_2_" gradientUnits="userSpaceOnUse" x1="-2.736" y1="3.236" x2="28.9466" y2="34.9186">
		<stop  offset="0" style="stop-color:#E2498A"/>
		<stop  offset="1" style="stop-color:#5A2ED2"/>
	</linearGradient>
	<path class="st1" d="M10.6,0C8.1,0,6.2,2,6.2,4.4c0,0.6,0.1,1.3,0.4,1.8c0,0,0,0,0,0c-2.8,0-5.1,2.3-5.1,5.1C1.5,12.7,2,14,3,14.9
		c-1.9,1.2-3,3.3-3,5.5c0,2.9,1.9,5.5,4.7,6.3c0,0,0,0.1,0,0.1C4.7,29.7,7,32,9.8,32s5.1-2.3,5.1-5.1V4.4C14.9,2,13,0,10.6,0z
		 M13.9,8.3C13.5,8,13,7.8,12.7,7.7c-0.2-1.1-1.2-2-2.4-2C10,5.8,9.8,6,9.8,6.3s0.2,0.5,0.5,0.5c0.8,0,1.4,0.6,1.4,1.4
		c0,0.8-0.6,1.4-1.4,1.4c-0.3,0-0.5,0.2-0.5,0.5s0.2,0.5,0.5,0.5c1.1,0,2.1-0.8,2.4-1.8c0.4,0.1,1,0.5,1.3,1.2v8
		c-0.8-0.8-1.9-1.1-2.6-1.1c0,0,0,0,0,0c-0.3,0-0.5,0.2-0.5,0.5c0,0.3,0.2,0.5,0.5,0.5c0,0,2,0.1,2.6,2v7c0,2.3-1.8,4.1-4.1,4.1
		c-2.3,0-4.1-1.8-4.1-4.1c0-0.1,0-0.2,0-0.3l0-0.2c0,0,0,0,0,0c0,0,0,0,0,0c0-0.1,0.2-3.3,3.7-3.7c0.2,0.8,1,1.4,1.9,1.4
		c1.1,0,2-0.9,2-2c0-1.1-0.9-2-2-2c-0.9,0-1.7,0.6-1.9,1.5c-1.6,0.1-2.6,0.7-3.3,1.5c-0.7-0.3-2.2-1.2-2.1-2.7
		c0-0.3-0.2-0.5-0.5-0.6c-0.3,0-0.5,0.2-0.6,0.5c-0.2,2.1,1.5,3.2,2.4,3.7c-0.4,0.6-0.6,1.3-0.7,1.7c-2.2-0.8-3.8-2.9-3.8-5.3
		c0-2.1,1.2-4,3.1-5c0,0,0,0,0,0c0,0,1-0.5,2.2-0.6c0.2,1,1.1,1.7,2.2,1.7c0.3,0,0.5-0.2,0.5-0.5s-0.2-0.5-0.5-0.5
		c-0.7,0-1.2-0.5-1.2-1.2s0.5-1.2,1.2-1.2c0.3,0,0.5-0.2,0.5-0.5s-0.2-0.5-0.5-0.5c-1.1,0-2,0.8-2.2,1.8c-1,0.1-1.9,0.4-2.4,0.6
		c-0.9-0.8-1.5-1.9-1.5-3.1c0-2.2,1.8-4.1,4.1-4.1c0.3,0,0.6,0,0.9,0.1c0.2,0,0.4,0,0.6-0.2c0.1-0.2,0.1-0.4,0-0.6
		C7.5,5.9,7.2,5.1,7.2,4.4C7.2,2.5,8.7,1,10.6,1c1.8,0,3.4,1.5,3.4,3.4V8.3z M11.3,21.3c0.5,0,0.9,0.4,0.9,0.9s-0.4,0.9-0.9,0.9
		s-0.9-0.4-0.9-0.9S10.8,21.3,11.3,21.3z"/>
	<linearGradient id="SVGID_3_" gradientUnits="userSpaceOnUse" x1="-2.0483" y1="2.5484" x2="29.6343" y2="34.2309">
		<stop  offset="0" style="stop-color:#E2498A"/>
		<stop  offset="1" style="stop-color:#5A2ED2"/>
	</linearGradient>
	<path class="st2" d="M6.7,8.4c-1.6,0-2.8,1.3-2.8,2.8c0,0.3,0.2,0.5,0.5,0.5s0.5-0.2,0.5-0.5c0-1,0.8-1.8,1.8-1.8
		C7,9.5,7.2,9.2,7.2,9S7,8.4,6.7,8.4z"/>
	<linearGradient id="SVGID_4_" gradientUnits="userSpaceOnUse" x1="3.3198" y1="-2.8198" x2="35.0024" y2="28.8628">
		<stop  offset="0" style="stop-color:#E2498A"/>
		<stop  offset="1" style="stop-color:#5A2ED2"/>
	</linearGradient>
	<path class="st3" d="M10.7,2.2c-1.3,0-2.4,1.1-2.4,2.4c0,0.3,0.2,0.5,0.5,0.5s0.5-0.2,0.5-0.5c0-0.8,0.6-1.4,1.4-1.4
		c0.3,0,0.5-0.2,0.5-0.5S11,2.2,10.7,2.2z"/>
	<linearGradient id="SVGID_5_" gradientUnits="userSpaceOnUse" x1="-8.2617" y1="8.7617" x2="23.4209" y2="40.4443">
		<stop  offset="0" style="stop-color:#E2498A"/>
		<stop  offset="1" style="stop-color:#5A2ED2"/>
	</linearGradient>
	<path class="st4" d="M12,26.3c-0.3,0-0.5,0.2-0.5,0.5c0,1-0.8,1.8-1.8,1.8c-0.3,0-0.5,0.2-0.5,0.5s0.2,0.5,0.5,0.5
		c1.6,0,2.8-1.3,2.8-2.8C12.6,26.5,12.3,26.3,12,26.3z"/>
</g>
</svg>
