<?xml version="1.0" encoding="utf-8"?>
<!-- Generator: Adobe Illustrator 18.0.0, SVG Export Plug-In . SVG Version: 6.00 Build 0)  -->
<!DOCTYPE svg PUBLIC "-//W3C//DTD SVG 1.1//EN" "http://www.w3.org/Graphics/SVG/1.1/DTD/svg11.dtd">
<svg version="1.1" id="Layer_1" xmlns="http://www.w3.org/2000/svg" xmlns:xlink="http://www.w3.org/1999/xlink" x="0px" y="0px"
	 width="32px" height="32px" viewBox="0 0 32 32" style="enable-background:new 0 0 32 32;" xml:space="preserve">
<style type="text/css">
	.st0{fill:url(#SVGID_1_);}
	.st1{fill:url(#SVGID_2_);}
	.st2{fill:url(#SVGID_3_);}
	.st3{fill:url(#SVGID_4_);}
	.st4{fill:url(#SVGID_5_);}
</style>
<g>
	<linearGradient id="SVGID_1_" gradientUnits="userSpaceOnUse" x1="3.0147" y1="-2.0591" x2="34.4473" y2="29.5948">
		<stop  offset="0" style="stop-color:#E2498A"/>
		<stop  offset="1" style="stop-color:#5A2ED2"/>
	</linearGradient>
	<path class="st0" d="M21.5,12c0.3,0,0.5-0.2,0.5-0.5v-6C22,5.2,21.8,5,21.5,5h-16C5.2,5,5,5.2,5,5.5v6C5,11.8,5.2,12,5.5,12H21.5z
		 M6,6h15v5H6V6z"/>
	<linearGradient id="SVGID_2_" gradientUnits="userSpaceOnUse" x1="-1.2369" y1="2.1628" x2="30.1957" y2="33.8168">
		<stop  offset="0" style="stop-color:#E2498A"/>
		<stop  offset="1" style="stop-color:#5A2ED2"/>
	</linearGradient>
	<path class="st1" d="M4.5,16.5C4.5,16.8,4.7,17,5,17h16c0.3,0,0.5-0.2,0.5-0.5S21.3,16,21,16H5C4.7,16,4.5,16.2,4.5,16.5z"/>
	<linearGradient id="SVGID_3_" gradientUnits="userSpaceOnUse" x1="-3.7369" y1="4.6452" x2="27.6957" y2="36.2992">
		<stop  offset="0" style="stop-color:#E2498A"/>
		<stop  offset="1" style="stop-color:#5A2ED2"/>
	</linearGradient>
	<path class="st2" d="M5,22h16c0.3,0,0.5-0.2,0.5-0.5S21.3,21,21,21H5c-0.3,0-0.5,0.2-0.5,0.5S4.7,22,5,22z"/>
	<linearGradient id="SVGID_4_" gradientUnits="userSpaceOnUse" x1="-5.7368" y1="6.6312" x2="25.6958" y2="38.2852">
		<stop  offset="0" style="stop-color:#E2498A"/>
		<stop  offset="1" style="stop-color:#5A2ED2"/>
	</linearGradient>
	<path class="st3" d="M5,26h16c0.3,0,0.5-0.2,0.5-0.5S21.3,25,21,25H5c-0.3,0-0.5,0.2-0.5,0.5S4.7,26,5,26z"/>
	<linearGradient id="SVGID_5_" gradientUnits="userSpaceOnUse" x1="-0.9117" y1="1.8022" x2="30.5209" y2="33.4561">
		<stop  offset="0" style="stop-color:#E2498A"/>
		<stop  offset="1" style="stop-color:#5A2ED2"/>
	</linearGradient>
	<path class="st4" d="M30.5,7h-2.1c-0.3,0-0.5,0.2-0.5,0.5S28.1,8,28.4,8h2.1C30.8,8,31,8.2,31,8.5v22c0,0.3-0.2,0.5-0.5,0.5H26V1.5
		C26,0.7,25.3,0,24.5,0h-23C0.7,0,0,0.7,0,1.5v28.4C0,31,1,32,2.1,32H21c0.3,0,0.5-0.2,0.5-0.5S21.3,31,21,31H2.1
		C1.5,31,1,30.5,1,29.9V1.5C1,1.2,1.2,1,1.5,1h23C24.8,1,25,1.2,25,1.5v30c0,0.3,0.2,0.5,0.5,0.5h5c0.8,0,1.5-0.7,1.5-1.5v-22
		C32,7.7,31.3,7,30.5,7z"/>
</g>
</svg>
