<?xml version="1.0" encoding="utf-8"?>
<!-- Generator: Adobe Illustrator 18.0.0, SVG Export Plug-In . SVG Version: 6.00 Build 0)  -->
<!DOCTYPE svg PUBLIC "-//W3C//DTD SVG 1.1//EN" "http://www.w3.org/Graphics/SVG/1.1/DTD/svg11.dtd">
<svg version="1.1" id="Layer_1" xmlns="http://www.w3.org/2000/svg" xmlns:xlink="http://www.w3.org/1999/xlink" x="0px" y="0px"
	 width="32px" height="32px" viewBox="0 0 32 32" style="enable-background:new 0 0 32 32;" xml:space="preserve">
<style type="text/css">
	.st0{fill:url(#SVGID_1_);}
	.st1{fill:url(#SVGID_2_);}
</style>
<g>
	
		<linearGradient id="SVGID_1_" gradientUnits="userSpaceOnUse" x1="16" y1="28.2207" x2="16" y2="1.1999" gradientTransform="matrix(1 0 0 -1 0 34)">
		<stop  offset="0" style="stop-color:#E2498A"/>
		<stop  offset="1" style="stop-color:#5A2ED2"/>
	</linearGradient>
	<path class="st0" d="M31.1,18.4c-0.1-0.3-0.2-0.6-0.4-0.9l0,0l-2.6-5.8c-0.2-0.3-0.4-0.5-0.6-0.8l0,0l-4.2-4.7l0,0l0,0l-5.5-3.8
		c-0.5-0.2-1-0.4-1.5-0.4l-5.6-1.8C10.3,0,9.9,0,9.4,0.1C9.4,0,9.3,0,9.2,0H3.5C1.6,0,0,1.6,0,3.5v21v4v1C0,30.9,1.1,32,2.5,32h27
		c1.4,0,2.5-1.1,2.5-2.5v-5c0-0.3-0.1-0.6-0.2-0.9L31.1,18.4z M30.1,18.6l0.5,3.7c-0.3-0.2-0.7-0.3-1.1-0.3H7.3L27,16.9
		C28.4,16.5,29.7,17.3,30.1,18.6z M27.2,12.2l1.7,3.9c-0.7-0.3-1.4-0.3-2.1-0.1l-20,5.2l17-9.8C25,10.6,26.6,11,27.2,12.2z
		 M22.1,6.7L22.6,7l2.7,3c-0.7,0-1.3,0.1-1.9,0.5l-17,9.8l12.9-13C20,6.4,21.2,6.2,22.1,6.7z M17.2,3.3l3.2,2.2
		c-0.7,0.1-1.4,0.4-1.9,1L3.9,21.3l9.8-17c0.3-0.6,0.9-1,1.5-1.2C16,2.9,16.6,3,17.2,3.3z M8.5,1.4C9.1,1,9.8,1,10.4,1.1l3.9,1.3
		c-0.6,0.3-1.1,0.8-1.4,1.3L2.3,22H2.2L7.4,2.9C7.5,2.2,8,1.7,8.5,1.4z M1,3.5C1,2.1,2.1,1,3.5,1h3.9c-0.5,0.4-0.8,1-1,1.6L1.1,22.4
		c0,0,0,0,0,0.1L1,22.6V3.5z M31,29.5c0,0.8-0.7,1.5-1.5,1.5h-27C1.7,31,1,30.3,1,29.5v-1v-4C1,23.7,1.7,23,2.5,23h27
		c0.8,0,1.5,0.7,1.5,1.5V29.5z"/>
	
		<linearGradient id="SVGID_2_" gradientUnits="userSpaceOnUse" x1="5" y1="28.2207" x2="5" y2="1.1999" gradientTransform="matrix(1 0 0 -1 0 34)">
		<stop  offset="0" style="stop-color:#E2498A"/>
		<stop  offset="1" style="stop-color:#5A2ED2"/>
	</linearGradient>
	<path class="st1" d="M5,24.9c-1.1,0-2,0.9-2,2s0.9,2,2,2s2-0.9,2-2S6.1,24.9,5,24.9z M5,27.9c-0.6,0-1-0.4-1-1s0.4-1,1-1s1,0.4,1,1
		S5.6,27.9,5,27.9z"/>
</g>
</svg>
