<?xml version="1.0" encoding="utf-8"?>
<!-- Generator: Adobe Illustrator 18.0.0, SVG Export Plug-In . SVG Version: 6.00 Build 0)  -->
<!DOCTYPE svg PUBLIC "-//W3C//DTD SVG 1.1//EN" "http://www.w3.org/Graphics/SVG/1.1/DTD/svg11.dtd">
<svg version="1.1" id="Layer_1" xmlns="http://www.w3.org/2000/svg" xmlns:xlink="http://www.w3.org/1999/xlink" x="0px" y="0px"
	 width="32px" height="32px" viewBox="0 0 32 32" style="enable-background:new 0 0 32 32;" xml:space="preserve">
<style type="text/css">
	.st0{fill:url(#SVGID_1_);}
	.st1{fill:#FFFFFF;}
</style>
<linearGradient id="SVGID_1_" gradientUnits="userSpaceOnUse" x1="-1.7601" y1="-1.7601" x2="39.042" y2="39.042">
	<stop  offset="0" style="stop-color:#E2498A"/>
	<stop  offset="1" style="stop-color:#5A2ED2"/>
</linearGradient>
<circle class="st0" cx="16" cy="16" r="16"/>
<g>
	<circle class="st1" cx="9.1" cy="22.9" r="0.4"/>
	<path class="st1" d="M21,7.2h-9.6c-2.1,0-3.8,1.7-3.8,3.8s1.7,3.8,3.8,3.8c0.2,0.1,0.3-0.1,0.3-0.2c0-0.2-0.2-0.3-0.3-0.3
		c-1.8,0-3.2-1.5-3.2-3.2s1.5-3.2,3.2-3.2H21c1.8,0,3.2,1.5,3.2,3.2s-1.4,3.2-3.2,3.2h-0.6L19,15.6l-1.3-1.3h-1.9
		c-0.2-0.5-0.5-0.9-1-1.1l-0.7-0.3c-0.1-0.1-0.2-0.1-0.2,0s-0.1,0.1-0.2,0.2l-0.4,1c-0.5,1.3-1.4,2.4-2.6,3.1
		c-0.2-0.2-0.4-0.3-0.7-0.3H8.1c-0.4,0-0.8,0.4-0.8,0.8v6c0,0.4,0.4,0.8,0.8,0.8h2.2c0.4,0,0.7-0.2,0.8-0.5c1,0.5,2.1,0.8,3.2,0.8
		h3.4c0.7,0,1.2-0.5,1.2-1.2c0-0.3-0.1-0.5-0.2-0.7c0.5-0.2,0.8-0.6,0.8-1.2c0-0.3-0.1-0.5-0.2-0.7c0.5-0.1,0.9-0.6,0.9-1.2
		c0-0.6-0.4-1-0.9-1.2c0.1-0.2,0.2-0.4,0.2-0.7c0-0.7-0.5-1.2-1.2-1.2h-2.7l0.4-1.3C16,15.3,16,15.1,16,15h1.5l1.4,1.5l1.6-1.5H21
		c2.1,0,3.8-1.7,3.8-3.8S23.1,7.2,21,7.2z M10.5,23.7c0,0.2-0.1,0.3-0.3,0.3H8.1c-0.2,0-0.3-0.1-0.3-0.3v-6c0-0.2,0.1-0.3,0.3-0.3
		h0.8v4.1c0,0.2,0.1,0.3,0.3,0.3c0.2,0,0.3-0.1,0.3-0.3v-4.1h0.9c0.2,0,0.3,0.1,0.3,0.3V23.7z M18.3,17.3c0.4,0,0.7,0.3,0.7,0.7
		c0,0.4-0.3,0.7-0.7,0.7h-1.9c-0.2,0-0.3,0.1-0.3,0.3c0,0.2,0.1,0.3,0.3,0.3h1.9H19c0.4,0,0.7,0.3,0.7,0.7s-0.3,0.7-0.7,0.7h-0.7
		h-1.9c-0.2,0-0.3,0.1-0.3,0.3s0.1,0.3,0.3,0.3h1.9c0.4,0,0.7,0.3,0.7,0.7s-0.3,0.7-0.7,0.7h-0.6h-1.3c-0.2,0-0.3,0.1-0.3,0.3
		c0,0.2,0.1,0.3,0.3,0.3h1.3c0.4,0,0.7,0.3,0.7,0.7s-0.3,0.7-0.7,0.7h-3.4c-1.1,0-2.2-0.3-3.2-0.8v-5.7c1.4-0.8,2.4-2,2.9-3.4
		l0.3-0.8l0.4,0.2c0.6,0.3,0.9,0.9,0.7,1.6L14.9,17c0,0.1,0,0.2,0.1,0.2s0.1,0.1,0.2,0.1H18.3z"/>
	<path class="st1" d="M10.4,12.2c-0.1,0.1,0,0.2,0.1,0.3c0.1,0.1,0.2,0.1,0.3,0l0.3-0.3c0.3-0.2,0.7-0.2,1,0l0.4,0.3
		c0.1,0.1,0.1,0.1,0.2,0.1c0.1,0,0.1,0,0.2-0.1c0.1-0.1,0.2-0.2,0.1-0.3l-0.2-0.4c-0.1-0.4,0-0.8,0.3-0.9l0.4-0.2
		c0.1-0.1,0.2-0.2,0.1-0.3c-0.1-0.1-0.2-0.2-0.3-0.2h-0.5c-0.4,0-0.7-0.2-0.8-0.6L12,8.9c-0.1-0.2-0.4-0.2-0.5,0l-0.2,0.5
		c-0.1,0.4-0.4,0.6-0.8,0.6H10c-0.1,0-0.2,0.1-0.3,0.2c-0.1,0.2,0,0.2,0.1,0.3l0.3,0.2c0.3,0.2,0.4,0.5,0.3,0.9L10.4,12.2z
		 M11.7,9.9c0.2,0.4,0.5,0.6,0.9,0.7c-0.3,0.3-0.4,0.6-0.4,1c-0.2-0.1-0.4-0.1-0.6-0.1c-0.2,0-0.4,0.1-0.5,0.1
		c0.1-0.4-0.1-0.7-0.3-1C11.1,10.5,11.5,10.2,11.7,9.9z"/>
	<path class="st1" d="M17.5,10.8l0.4-0.2c0.1-0.1,0.2-0.2,0.1-0.3c-0.1-0.1-0.2-0.2-0.3-0.2h-0.5c-0.4,0-0.7-0.2-0.8-0.6l-0.2-0.5
		c-0.1-0.2-0.4-0.2-0.5,0l-0.2,0.5c-0.1,0.3-0.4,0.6-0.8,0.6h-0.5c-0.1,0-0.2,0.1-0.3,0.2c-0.1,0.2,0,0.2,0.1,0.3l0.3,0.2
		c0.3,0.2,0.4,0.6,0.3,0.9l-0.2,0.4c-0.1,0.1,0,0.2,0.1,0.3c0.1,0.1,0.2,0.1,0.3,0l0.3-0.3c0.3-0.2,0.7-0.2,1,0l0.4,0.3
		c0.1,0.1,0.1,0.1,0.2,0.1s0.1,0,0.2-0.1c0.1-0.1,0.2-0.2,0.1-0.3l-0.2-0.5C17.1,11.4,17.2,11,17.5,10.8z M16.6,11.6
		c-0.2-0.1-0.4-0.1-0.6-0.1s-0.4,0.1-0.5,0.1c0.1-0.4-0.1-0.7-0.3-1c0.4-0.1,0.7-0.3,0.9-0.7c0.2,0.4,0.5,0.6,0.9,0.7
		C16.7,10.9,16.5,11.2,16.6,11.6z"/>
	<path class="st1" d="M21.8,10.8l0.4-0.2c0.1-0.1,0.2-0.2,0.1-0.3c-0.1-0.1-0.2-0.2-0.3-0.2h-0.5c-0.4,0-0.7-0.2-0.8-0.6l-0.2-0.5
		c-0.1-0.1-0.2-0.2-0.3-0.2S20.1,8.8,20,9l-0.2,0.5c-0.1,0.3-0.4,0.6-0.8,0.6h-0.5c-0.1,0-0.2,0.1-0.3,0.2c-0.1,0.2,0,0.2,0.1,0.3
		l0.3,0.2c0.3,0.2,0.4,0.6,0.3,0.9l-0.2,0.4c-0.1,0.1,0,0.2,0.1,0.3c0.1,0.1,0.2,0.1,0.3,0l0.3-0.3c0.3-0.2,0.7-0.2,1,0l0.4,0.3
		c0.1,0.1,0.1,0.1,0.2,0.1s0.1,0,0.2-0.1c0.2-0.1,0.2-0.3,0.2-0.4l-0.2-0.5C21.3,11.4,21.5,11,21.8,10.8z M20.9,11.6
		c-0.2-0.1-0.4-0.1-0.6-0.1c-0.2,0-0.4,0.1-0.5,0.1c0.1-0.4-0.1-0.7-0.3-1c0.4-0.1,0.7-0.3,0.9-0.7c0.2,0.4,0.5,0.6,0.9,0.7
		C21,10.9,20.9,11.2,20.9,11.6z"/>
</g>
</svg>
