<?xml version="1.0" encoding="utf-8"?>
<!-- Generator: Adobe Illustrator 18.0.0, SVG Export Plug-In . SVG Version: 6.00 Build 0)  -->
<!DOCTYPE svg PUBLIC "-//W3C//DTD SVG 1.1//EN" "http://www.w3.org/Graphics/SVG/1.1/DTD/svg11.dtd">
<svg version="1.1" id="Layer_1" xmlns="http://www.w3.org/2000/svg" xmlns:xlink="http://www.w3.org/1999/xlink" x="0px" y="0px"
	 width="40px" height="32px" viewBox="0 0 40 32" style="enable-background:new 0 0 40 32;" xml:space="preserve">
<style type="text/css">
	.st0{fill:url(#SVGID_1_);}
</style>
<g>
	<linearGradient id="SVGID_1_" gradientUnits="userSpaceOnUse" x1="4.1576" y1="2.804" x2="35.2535" y2="33.8998">
		<stop  offset="0" style="stop-color:#E2498A"/>
		<stop  offset="1" style="stop-color:#5A2ED2"/>
	</linearGradient>
	<path class="st0" d="M34.9,14.7c-0.1-3.5-1.4-6.9-3.7-9.5C28.4,1.9,24.3,0,20,0S11.6,1.9,8.8,5.1c-2.4,2.7-3.6,6.1-3.7,9.7
		C2.2,15.3,0,17.7,0,20.7v0.1C0,24.2,2.8,27,6.1,27h4.5c2.1,3,5.5,5,9.4,5c5.6,0,10.5-4.2,11.2-9.8l0.8-5.6c0.5-3.5-0.6-6.9-2.9-9.6
		S23.5,2.8,20,2.8S13.2,4.3,10.9,7S7.5,13.1,8,16.5l0.8,5.6c0.2,1.4,0.6,2.7,1.2,3.8H7.9c-0.5-1.1-0.8-2.3-1-3.6l-0.8-5.6
		C6,16.2,6,15.8,6,15.3c0-0.1,0.1-0.2,0.1-0.3s0-0.1,0-0.2c0-3.4,1.2-6.6,3.4-9.2C12.1,2.7,16,1,20,1s7.8,1.7,10.5,4.8
		c2.2,2.5,3.4,5.8,3.4,9.1c0,0.1,0,0.1,0,0.2c0,0.1,0,0.2,0,0.2c0,0.5-0.1,1-0.1,1.5L33,22.5c-0.2,1.5-0.6,2.9-1.1,3.8
		c-0.1,0.2-0.1,0.3,0,0.5s0.3,0.2,0.4,0.2h1.6c3.3,0,6.1-2.8,6.1-6.3C40,17.7,37.8,15.1,34.9,14.7z M9.7,22L9,16.4
		c-0.4-3.2,0.5-6.4,2.6-8.8s5.2-3.8,8.4-3.8s6.2,1.4,8.4,3.8c2.1,2.4,3.1,5.6,2.6,8.8L30.2,22c-0.7,5.1-5.1,9-10.2,9
		c-3.3,0-6.2-1.6-8.1-4H15l0,0c0.2,1.1,1.2,2,2.5,2h4c1.4,0,2.5-1.1,2.5-2.5S22.9,24,21.5,24h-4c-1.2,0-2.2,0.9-2.5,2l0,0h-3.9
		C10.4,24.8,9.9,23.5,9.7,22z M16,26.5c0-0.8,0.7-1.5,1.5-1.5h4c0.8,0,1.5,0.7,1.5,1.5S22.3,28,21.5,28h-4C16.7,28,16,27.3,16,26.5z
		 M6.8,26H6.1C3.3,26,1,23.7,1,20.9v-0.1c0-2.5,1.8-4.5,4.1-5c0,0.4,0,0.8,0.1,1.2L6,22.6C6.1,23.8,6.4,24.9,6.8,26z M33.9,26h-0.8
		c0.4-0.9,0.7-2.1,0.8-3.4l0.8-5.7c0.1-0.4,0.1-0.9,0.1-1.3c2.4,0.5,4.1,2.5,4.1,5.1C39,23.7,36.7,26,33.9,26z"/>
</g>
</svg>
