<svg fill="none" height="100" viewBox="0 0 130 100" width="130" xmlns="http://www.w3.org/2000/svg">
    <mask id="a" height="7" maskUnits="userSpaceOnUse" width="7" x="107" y="27">
        <path d="M107 27h7v7h-7z" fill="#437e47"/>
    </mask>
    <g filter="url(#a)">
        <path fill="#fff" d="M0 0h130v100H0z"/>
    </g>
    <rect fill="#437e47" fill-opacity=".07" height="14" rx="7" width="103" x="16" y="23"/>
    <g mask="url(#a)">
        <path d="m113.456 34-2.45-2.45a2.37 2.37 0 0 1-1.478.506 2.44 2.44 0 0 1-1.794-.734c-.489-.49-.734-1.088-.734-1.794s.245-1.305.734-1.794a2.44 2.44 0 0 1 1.794-.734c.706 0 1.304.245 1.794.734.489.49.734 1.087.734 1.794a2.364 2.364 0 0 1-.506 1.478l2.45 2.45zm-3.928-2.722c.486 0 .899-.17 1.24-.51.34-.34.51-.754.51-1.24s-.17-.9-.51-1.24c-.341-.34-.754-.51-1.24-.51s-.9.17-1.24.51c-.34.34-.51.754-.51 1.24s.17.9.51 1.24c.34.34.754.51 1.24.51z" fill="#437e47" fill-opacity=".5"/>
    </g>
    <g fill="#437e47" fill-opacity=".5">
        <rect height="2.222" rx="1.111" width="53.333" x="16" y="13"/>
        <rect height="3" rx="1.5" width="15" x="16" y="44"/>
        <rect height="3" rx="1.5" width="5" x="37" y="44"/>
        <rect height="3" rx="1.5" width="5" x="48" y="44"/>
        <rect height="3" rx="1.5" width="5" x="59" y="44"/>
        <rect height="3" rx="1.5" width="5" x="70" y="44"/>
        <rect height="3" rx="1.5" width="5" x="81" y="44"/>
    </g>
</svg>
