<svg fill="none" height="100" viewBox="0 0 130 100" width="130" xmlns="http://www.w3.org/2000/svg" xmlns:xlink="http://www.w3.org/1999/xlink">
    <mask id="b" height="8" maskUnits="userSpaceOnUse" width="7" x="107" y="26">
        <path d="m107 26.7779h7v7h-7z" fill="#437e47"/>
    </mask>
    <g filter="url(#a)">
        <rect fill="#fff" height="100" rx="0" width="130" x="0"/>
    </g>
    <rect fill="#437e47" fill-opacity=".07" height="14" rx="7" width="103" x="16" y="22.7779"/>
    <g mask="url(#b)">
        <path d="m113.456 33.7779-2.45-2.45c-.195.1555-.419.2787-.671.3694-.253.0908-.522.1361-.807.1361-.707 0-1.305-.2446-1.794-.7338-.489-.4895-.734-1.0875-.734-1.7939 0-.7065.245-1.3045.734-1.794.489-.4892 1.087-.7338 1.794-.7338.706 0 1.304.2446 1.794.7338.489.4895.734 1.0875.734 1.794 0 .2851-.046.5541-.137.8069-.09.2528-.213.4764-.369.6708l2.45 2.45zm-3.928-2.7222c.486 0 .899-.1701 1.24-.5103.34-.3404.51-.7536.51-1.2397s-.17-.8994-.51-1.2398c-.341-.3402-.754-.5102-1.24-.5102s-.9.17-1.24.5102c-.34.3404-.51.7537-.51 1.2398s.17.8993.51 1.2397c.34.3402.754.5103 1.24.5103z" fill="#437e47" fill-opacity=".5"/>
    </g>
    <g fill="#437e47" fill-opacity=".5">
        <rect height="2.22222" rx="1.11111" width="53.3333" x="16" y="13.0001"/>
        <rect height="3" rx="1.5" width="21" x="98" y="43.7779"/>
    </g>
</svg>