<svg width="16" height="16" viewBox="0 0 16 16" fill="none" xmlns="http://www.w3.org/2000/svg">
    <mask id="mask0_6_2769" style="mask-type:alpha" maskUnits="userSpaceOnUse" x="0" y="0" width="16" height="16">
        <rect width="16" height="16" fill="#D9D9D9"/>
    </mask>
    <g mask="url(#mask0_6_2769)">
        <path d="M3.33333 12.6665H4.26667L10.0167 6.91652L9.08333 5.98319L3.33333 11.7332V12.6665ZM12.8667 5.94986L10.0333 3.14986L10.9667 2.21652C11.2222 1.96097 11.5362 1.83319 11.9087 1.83319C12.2807 1.83319 12.5944 1.96097 12.85 2.21652L13.7833 3.14986C14.0389 3.40541 14.1722 3.71386 14.1833 4.07519C14.1944 4.43608 14.0722 4.7443 13.8167 4.99986L12.8667 5.94986ZM11.9 6.93319L4.83333 13.9999H2V11.1665L9.06667 4.09986L11.9 6.93319Z" fill="#0E2121" fill-opacity="0.7"/>
    </g>
</svg>