<svg fill="none" height="100" viewBox="0 0 130 100" width="130" xmlns="http://www.w3.org/2000/svg" xmlns:xlink="http://www.w3.org/1999/xlink"><filter id="a" color-interpolation-filters="sRGB" filterUnits="userSpaceOnUse" height="100" width="130" x="0" y="0"><feBlend in="SourceGraphic" in2="effect1_dropShadow_369_4654" mode="normal" result="shape"/></filter><mask id="b" height="7" maskUnits="userSpaceOnUse" width="7" x="107" y="28"><path d="m107 28h7v7h-7z" fill="#437e47"/></mask><g filter="url(#a)"><rect fill="#fff" height="102" rx="4" width="131" x="2"/></g><rect fill="#437e47" fill-opacity=".07" height="14" rx="7" width="103" x="16" y="24"/><rect fill="#437e47" fill-opacity=".5" height="2.5" rx="1.25" width="60" x="16" y="14"/><g mask="url(#b)"><path d="m113.728 34.7278c-.151.1503-.394.1503-.545 0l-2.177-2.1778c-.195.1556-.418.2787-.671.3694-.253.0908-.522.1362-.807.1362-.707 0-1.305-.2447-1.794-.7339-.489-.4895-.734-1.0874-.734-1.7939s.245-1.3045.734-1.794c.489-.4892 1.087-.7338 1.794-.7338.706 0 1.304.2446 1.794.7338.489.4895.734 1.0875.734 1.794 0 .2852-.046.5541-.137.8069-.09.2528-.213.4764-.369.6709l2.178 2.1777c.15.1504.15.3941 0 .5445zm-4.2-2.45c.486 0 .899-.1701 1.24-.5102.34-.3405.51-.7537.51-1.2398s-.17-.8994-.51-1.2398c-.341-.3401-.754-.5102-1.24-.5102s-.9.1701-1.24.5102c-.34.3404-.51.7537-.51 1.2398s.17.8993.51 1.2398c.34.3401.754.5102 1.24.5102z" fill="#437e47" fill-opacity=".5"/></g></svg>