<svg width="94" height="94" viewBox="0 0 94 94" fill="none" xmlns="http://www.w3.org/2000/svg"><g filter="url(#filter0_d_6_4356)"><path fill="#fff" d="M0 0h94v94H0z"/></g><mask id="a" style="mask-type:alpha" maskUnits="userSpaceOnUse" x="22" y="40" width="12" height="11"><path fill="#437E47" d="M22 40h11.504v11H22z"/></mask><g mask="url(#a)"><path d="m33.266 51-4.033-3.85a3.87 3.87 0 0 1-1.105.58 4.072 4.072 0 0 1-1.328.214c-1.163 0-2.147-.384-2.953-1.153-.805-.769-1.208-1.709-1.208-2.819 0-1.11.403-2.05 1.209-2.819C24.652 40.384 25.637 40 26.8 40s2.147.384 2.953 1.153c.805.77 1.208 1.709 1.208 2.82a3.596 3.596 0 0 1-.832 2.322l4.033 3.85-.896.855ZM26.8 46.722c.8 0 1.48-.267 2.04-.802s.84-1.184.84-1.948-.28-1.413-.84-1.948c-.56-.535-1.24-.802-2.04-.802s-1.48.267-2.04.802-.84 1.184-.84 1.948.28 1.413.84 1.948c.56.535 1.24.802 2.04.802Z" fill="#0E2121" fill-opacity=".2"/></g><rect x="13.5" y="29.5" width="67" height="31" rx="7.5" stroke="#437E47"/></svg>