<svg width="94" height="94" viewBox="0 0 94 94" fill="none" xmlns="http://www.w3.org/2000/svg"><g filter="url(#filter0_d_6_4395)"><path fill="#fff" d="M0 0h94v94H0z"/></g><rect x="15" y="52" width="64" height="1" rx=".5" fill="#437E47"/><mask id="a" style="mask-type:alpha" maskUnits="userSpaceOnUse" x="18" y="38" width="8" height="8"><path fill="#437E47" d="M18 38h7.778v7.778H18z"/></mask><g mask="url(#a)"><path d="m25.988 45.778-2.727-2.722a2.64 2.64 0 0 1-1.645.562c-.786 0-1.452-.273-1.996-.816-.545-.544-.817-1.208-.817-1.993 0-.785.272-1.45.817-1.994.544-.543 1.21-.815 1.996-.815s1.452.272 1.997.815c.544.544.816 1.209.816 1.994a2.63 2.63 0 0 1-.562 1.642l2.726 2.722-.605.605Zm-4.372-3.025c.541 0 1.001-.189 1.38-.567.379-.378.568-.837.568-1.377s-.19-1-.568-1.378a1.881 1.881 0 0 0-1.38-.567c-.541 0-1 .19-1.38.567a1.875 1.875 0 0 0-.568 1.378c0 .54.19.999.568 1.377.38.378.839.567 1.38.567Z" fill="#0E2121" fill-opacity=".2"/></g></svg>