<svg version="1.1" xmlns="http://www.w3.org/2000/svg" viewBox="0 0 150 50"><path d="M137,10.3c2.7,5.7,4.5,12.2,6.5,18.2c0.4,1.3-1,2.6-2.2,2.2c-6.7-2.3-13.5-4.5-20.3-6.8c-1.8-0.6-1.1-3.4,0.7-2.8c3.2,0.9,6.5,1.9,9.7,2.9c0-0.1-0.1-0.1-0.1-0.2c-3.7-6.4-13.1-18.6-20.2-7.5c-2.3,3.7-2.6,8.7-3.8,12.8c-1.5,5-4.3,9.8-10,10.3c-6.2,0.5-10.7-4.9-13.6-9.6c-2.6-4.4-4.6-9.3-6.8-13.9c-0.7-1.6-1.5-3.2-2.3-4.8c-2.8-4.2-6.4-4.2-8.5-4.1c-4.3,0.2-8.4,5.4-10.7,8.6c-6.2,8.6-9.8,41.1-27.6,32.9C12.2,41.2,6.5,16.6,7.9,1.1c0.1-1.2,1.9-1.2,1.9,0c-0.1,11.7,2.5,23.1,8.8,33c3.8,6.1,9.8,14,18.2,11c5.3-1.9,7.1-11.7,8.6-16.3c3.1-9.7,16.7-35.6,30.3-23c6.8,6.4,7.8,17.8,13.8,25c11.8,14.2,14.5-6.5,17.4-13.9c2.1-5.2,5.9-9.1,11.9-8.7c7.9,0.4,12.6,7.3,15.8,13.7c0.6,1.1-0.1,2.1-1,2.5c1.8,0.5,3.6,1.1,5.3,1.6c-1.9-4.8-3.8-9.6-5-14.5C133.4,9.7,136.2,8.4,137,10.3z"/></svg>