<svg version="1.1" xmlns="http://www.w3.org/2000/svg" viewBox="0 0 150 50"><path d="M4.3,12.3c2.9,6.7,5.6,14.2,11.3,19.2c9.3,8.1,20.4,2,29-3.8c12.7-8.5,23.8-20,39-24c26.5-7.1,55,9.2,61.4,35.8c0.7-3.1,1.2-6.2,1.7-9.4c0.2-1.2,2-0.9,2.1,0.3c0.2,5.5-1.1,11.2-2.4,16.5c-0.3,1.2-2,1.7-2.8,0.7c-4-4.8-8.4-9.2-12.4-14c-1.4-1.7,0.7-3.7,2.4-2.4c3.6,2.8,6.8,6.5,9.7,10.3c-5.2-16.6-17.2-30.3-34.7-34.5c-19-4.6-34.8,3.5-49.5,14.7C49.1,29.1,35.7,41.7,22.2,39C10.7,36.7,4.3,23.8,1.4,13.5C0.9,11.9,3.5,10.6,4.3,12.3z"/></svg>