<svg version="1.1" xmlns="http://www.w3.org/2000/svg" viewBox="0 0 150 50"><path d="M145.2,26.8c0.3,5.3,0.7,10.5,1.1,15.8c-10.5-10.1-19.1-22.4-31-30.9C104.7,4.1,91.9,0.9,79,1.4C48.2,2.5,22.3,22.7,0.4,42.5c-0.8,0.7,0.2,2,1.1,1.3c23.4-18.3,47.6-39.2,79-39.8c13.4-0.2,26,3.8,36.5,12.2c10,8.1,17.7,18.5,26.8,27.5C137,42,130.5,40,124,37.8c-1.1-0.4-1.7,1.2-0.6,1.7c7.8,3.4,15.9,5.9,24.2,7.9c0.1,0,0.1,0,0.2,0c0.1,0.1,0.2,0.2,0.2,0.2c1.3,1.2,2.9-1.1,1.6-2.2c-0.1-0.1-0.2-0.2-0.3-0.2c-0.4-6.3-0.8-12.6-1.4-18.9C147.7,24.6,145.1,25,145.2,26.8z"/></svg>