<svg version="1.1" xmlns="http://www.w3.org/2000/svg" viewBox="0 0 150 50"><g><path class="st0" d="M5.7,40.9c-0.8-0.1-1.5,0.5-1.5,1.3c-0.1,0.8,0.5,1.5,1.3,1.5C6.3,43.8,7,43.2,7,42.5    C7.1,41.7,6.5,41,5.7,40.9z"/><circle class="st0" cx="10.4" cy="36.6" r="1.7"/><path class="st0" d="M15.8,29c-1.1-0.1-2,0.7-2.1,1.8c-0.1,1.1,0.7,2,1.8,2.1c1.1,0.1,2-0.7,2.1-1.8S16.8,29,15.8,29z"/><path class="st0" d="M21.8,22.9c-1.1-0.1-2.1,0.8-2.2,1.9c-0.1,1.1,0.8,2.1,1.9,2.2c1.1,0.1,2.1-0.8,2.2-1.9    C23.8,24,22.9,23,21.8,22.9z"/><circle class="st0" cx="28.3" cy="19.9" r="2"/><path class="st0" d="M36.2,12.7c-1.1-0.1-2.1,0.8-2.2,1.9c-0.1,1.1,0.8,2.1,1.9,2.2c1.1,0.1,2.1-0.8,2.2-1.9    C38.2,13.7,37.4,12.8,36.2,12.7z"/><path class="st0" d="M55.4,5.8c-1.2-0.1-2.2,0.8-2.3,2c-0.1,1.2,0.8,2.2,2,2.3c1.2,0.1,2.2-0.8,2.3-2C57.5,6.9,56.6,5.8,55.4,5.8z"    /><path class="st0" d="M45.5,8.8c-1.2-0.1-2.3,0.8-2.3,2c-0.1,1.2,0.8,2.3,2,2.3c1.2,0.1,2.3-0.8,2.3-2C47.6,9.9,46.7,8.9,45.5,8.8z"    /><circle class="st0" cx="65.9" cy="6" r="2.4"/><circle class="st0" cx="76.8" cy="4.8" r="2.4"/><circle class="st0" cx="88.7" cy="6.1" r="2.4"/><circle class="st0" cx="99.9" cy="9.4" r="2.4"/><circle class="st0" cx="109.7" cy="13.4" r="2.4"/><circle class="st0" cx="119.6" cy="19.1" r="2.4"/><circle class="st0" cx="128.5" cy="25.6" r="2.4"/><circle class="st0" cx="135.3" cy="32.5" r="2.4"/><circle class="st0" cx="142.6" cy="41.8" r="2.4"/><circle class="st0" cx="143.1" cy="34.7" r="2.4"/><circle class="st0" cx="143.6" cy="27.9" r="2.4"/><circle class="st0" cx="144.1" cy="21" r="2.4"/><circle class="st0" cx="120.9" cy="40.3" r="2.4"/><circle class="st0" cx="127.8" cy="40.8" r="2.4"/><circle class="st0" cx="134.6" cy="41.3" r="2.4"/></g></svg>