<svg version="1.1" xmlns="http://www.w3.org/2000/svg" viewBox="0 0 150 50"><path d="M128,27.9c-1.2,6.2-1.9,11.7-4.4,17.3c-0.6-0.7-1.1-1.4-1.7-2.1c2.6-21.9-14.6-42.5-37.3-40.7c-2.1,0.2-4.4,0.7-6.6,1.4C67-1.4,52.2-1,41.8,3.5c-9.7,4.3-17.6,12.1-22,21.8c-3.5,7.6-6.2,18.8,1.7,24.5c1,0.7,2.2-0.6,1.3-1.4c-10.1-8,0.1-25.4,6.5-32.4C36,8.7,45.3,4.1,55.2,3.1c6.1-0.6,12.7,0.1,18.5,2.5C61.2,11.5,51,25,61.5,37.7c12.3,14.9,33.9,1.1,30.4-16.3c-1.4-6.7-5.1-11.7-10.1-15.2c1.6-0.3,3.2-0.4,4.7-0.5c19.2-0.4,32.2,15.8,32.3,33.8c-2.8-3.4-5.6-6.8-8.5-10c-0.8-0.9-2.3,0.4-1.6,1.4c3.2,4.5,6.6,8.8,10,13.2c0.1,0.5,0.4,0.9,0.8,1.1c1,1.3,2,2.6,3,3.9c0.7,1,2.1,1,2.8-0.1c3.4-6,6.2-13.7,5.2-20.7C130.3,26.8,128.3,26.4,128,27.9z M80.1,39.5c-14.7,5.8-24.2-11.8-15.8-23.1c3.2-4.3,7.9-7.4,13-9.1c2.1,1.2,4,2.6,5.8,4.4C90.9,19.5,91.9,34.9,80.1,39.5z"/></svg>