<svg version="1.1" id="Layer_1" xmlns="http://www.w3.org/2000/svg" xmlns:xlink="http://www.w3.org/1999/xlink" x="0px" y="0px"
	 viewBox="0 0 52 52" style="enable-background:new 0 0 52 52;" xml:space="preserve">
<g>
	<path d="M28.4,3.4c-1-0.6-2.1-0.5-3.1,0c0,0-0.1,0.1-0.1,0.1L11.6,15H1c-0.6,0-1,0.4-1,1v19c0,0.3,0.1,0.5,0.3,0.7S0.7,36,1,36
		l10.6,0l13.5,12.4c0,0,0.1,0.1,0.2,0.1c0.5,0.3,1,0.4,1.6,0.4c0.5,0,1-0.1,1.5-0.4c1-0.6,1.6-1.6,1.6-2.8V6.2C30,5,29.4,4,28.4,3.4
		z M28,45.9c0,0.4-0.2,0.8-0.6,1c-0.2,0.1-0.5,0.3-1,0L13,34.6V30c0-0.6-0.4-1-1-1s-1,0.4-1,1v4l-9,0V17h9v4c0,0.6,0.4,1,1,1
		s1-0.4,1-1v-4.5L26.4,5.1c0.5-0.2,0.9-0.1,1,0c0.4,0.2,0.6,0.6,0.6,1V45.9z"/>
	<path d="M38.8,7.1c-0.5-0.2-1.1,0.1-1.3,0.6c-0.2,0.5,0.1,1.1,0.6,1.3C45.3,11.4,50,18,50,25.5c0,7.5-4.8,14.1-11.8,16.6
		c-0.5,0.2-0.8,0.7-0.6,1.3c0.1,0.4,0.5,0.7,0.9,0.7c0.1,0,0.2,0,0.3-0.1C46.7,41.3,52,33.9,52,25.5C52,17.2,46.7,9.8,38.8,7.1z"/>
	<path d="M43,25.5c0-6-4-11.3-9.7-13c-0.5-0.2-1.1,0.2-1.2,0.7c-0.2,0.5,0.2,1.1,0.7,1.2c4.9,1.4,8.3,6,8.3,11s-3.4,9.6-8.3,11
		c-0.5,0.2-0.8,0.7-0.7,1.2c0.1,0.4,0.5,0.7,1,0.7c0.1,0,0.2,0,0.3,0C39,36.8,43,31.5,43,25.5z"/>
</g>
</svg>
