<svg version="1.1" id="Layer_1" xmlns="http://www.w3.org/2000/svg" xmlns:xlink="http://www.w3.org/1999/xlink" x="0px" y="0px"
	 viewBox="0 0 54 54" style="enable-background:new 0 0 54 54;" xml:space="preserve">
<g>
	<path d="M46.4,26l7.3-7.3c0.4-0.4,0.4-1,0-1.4s-1-0.4-1.4,0L45,24.6l-7.3-7.3c-0.4-0.4-1-0.4-1.4,0s-0.4,1,0,1.4l7.3,7.3l-7.3,7.3
		c-0.4,0.4-0.4,1,0,1.4c0.2,0.2,0.5,0.3,0.7,0.3s0.5-0.1,0.7-0.3l7.3-7.3l7.3,7.3c0.2,0.2,0.5,0.3,0.7,0.3s0.5-0.1,0.7-0.3
		c0.4-0.4,0.4-1,0-1.4L46.4,26z"/>
	<path d="M28.4,4.4c-1-0.6-2.1-0.5-3.1,0c0,0-0.1,0.1-0.1,0.1L11.6,16H1c-0.6,0-1,0.4-1,1v19c0,0.3,0.1,0.5,0.3,0.7S0.7,37,1,37
		l10.6,0l13.5,12.4c0,0,0.1,0.1,0.2,0.1c0.5,0.3,1,0.4,1.6,0.4c0.5,0,1-0.1,1.5-0.4c1-0.6,1.6-1.6,1.6-2.8V7.2C30,6,29.4,5,28.4,4.4
		z M28,46.8c0,0.4-0.2,0.8-0.6,1c-0.2,0.1-0.5,0.3-1,0L13,35.6V31c0-0.6-0.4-1-1-1s-1,0.4-1,1v4l-9,0V18h9v4c0,0.6,0.4,1,1,1
		s1-0.4,1-1v-4.5L26.4,6.1c0.5-0.2,0.9-0.1,1,0c0.4,0.2,0.6,0.6,0.6,1V46.8z"/>
</g>
</svg>
