<svg enable-background="new 0 0 64 64" viewBox="0 0 64 64" xmlns="http://www.w3.org/2000/svg"><path d="m45 38h-30c-.6 0-1-.4-1-1s.4-1 1-1h30c.6 0 1 .4 1 1s-.4 1-1 1zm1-5h-35c-.6 0-1-.4-1-1s.4-1 1-1h35c.6 0 1 .4 1 1s-.4 1-1 1zm2-5h-40c-.6 0-1-.4-1-1s.4-1 1-1h40c.6 0 1 .4 1 1s-.4 1-1 1z" fill="#f7b957"/><path d="m63 12h-8.5c-1.3 0-2.4.8-2.8 2.1l-2 5.9h-46.7c-1.7 0-3 1.3-3 3v.6c0 .4.1.7.2 1l6.4 17.2c.4 1.4 1.6 2.2 2.9 2.2h32.3l-.7 2.1c-.4 1.2-1.6 1.9-2.8 1.9h-28.3c-1.7 0-3 1.3-3 3v5c0 .6.4 1 1 1s1-.4 1-1v-5c0-.6.4-1 1-1h22.2c-.1.3-.2.7-.2 1v5c0 .6.4 1 1 1s1-.4 1-1v-5c0-.6.4-1 1-1h3.3c2.1 0 3.9-1.3 4.7-3.2l10.6-32.1c.1-.4.6-.7 1-.7h8.4c.6 0 1-.4 1-1s-.4-1-1-1zm-20.6 30h-32.9c-.5 0-.9-.3-1-.7l-6.4-17.3c-.1-.1-.1-.2-.1-.4v-.6c0-.6.4-1 1-1h46z" fill="#f7b957"/><circle cx="11" cy="56" fill="#a8b7d4" r="3"/><circle cx="36" cy="56" fill="#a8b7d4" r="3"/><path d="m11 60c-2.2 0-4-1.8-4-4s1.8-4 4-4 4 1.8 4 4-1.8 4-4 4zm0-6c-1.1 0-2 .9-2 2s.9 2 2 2 2-.9 2-2-.9-2-2-2zm25 6c-2.2 0-4-1.8-4-4s1.8-4 4-4 4 1.8 4 4-1.8 4-4 4zm0-6c-1.1 0-2 .9-2 2s.9 2 2 2 2-.9 2-2-.9-2-2-2z" fill="#404040"/><path d="m39.1 21c.7-.6 1.9-1.2 1.9-2 0-1-2.2-1.8-2.4-2.7s1.4-2.6 1-3.5-2.7-.6-3.3-1.4.2-3-.6-3.6-2.6.6-3.5.2-1.1-2.8-2.1-3-2.1 1.8-3.1 1.8-2.2-2-3.1-1.8-1.2 2.5-2 3-2.9-.8-3.6-.2 0 2.8-.6 3.6-2.9.5-3.3 1.4 1.2 2.5 1 3.5-2.4 1.7-2.4 2.7c0 .8 1.2 1.4 1.9 2 .2.2.4.4.5.7.2 1-1.4 2.6-1 3.5s2.7.6 3.3 1.4-.2 3 .6 3.6 2.7-.6 3.5-.2 1.1 2.8 2.1 3 2.1-1.8 3.1-1.8 2.2 2 3.1 1.8 1.2-2.5 2-3c.9-.5 2.8.8 3.6.2s0-2.8.6-3.6 2.9-.5 3.3-1.4-1.2-2.5-1-3.5c.1-.3.3-.5.5-.7z" fill="#d23b54"/><path d="m37.4 20.7c.6-.5 1.6-1.1 1.6-1.7 0-.9-1.8-1.5-2-2.3s1.2-2.2.8-3-2.3-.5-2.8-1.2.1-2.6-.5-3.1-2.3.6-3 .2-1-2.4-1.8-2.6-1.8 1.5-2.7 1.5-1.9-1.7-2.7-1.5-1 2.2-1.8 2.6-2.4-.7-3-.2 0 2.4-.5 3.1-2.5.4-2.8 1.2 1 2.2.9 3-2 1.5-2 2.3c0 .6 1 1.2 1.6 1.7.2.2.4.4.4.6.2.8-1.2 2.2-.9 3s2.3.5 2.8 1.2-.1 2.5.5 3.1 2.3-.5 3-.2 1 2.4 1.8 2.5 1.8-1.5 2.7-1.5 1.9 1.7 2.7 1.5 1-2.2 1.8-2.5 2.4.7 3 .2 0-2.4.5-3.1 2.5-.4 2.8-1.2-1-2.2-.8-3c0-.2.2-.4.4-.6z" fill="#d23b54"/><path d="m21 26c-.3 0-.5-.1-.7-.3-.4-.4-.4-1 0-1.4l12-12c.4-.4 1-.4 1.4 0s.4 1 0 1.4l-12 12c-.2.2-.4.3-.7.3zm9 1c-1.7 0-3-1.3-3-3s1.3-3 3-3 3 1.3 3 3-1.3 3-3 3zm0-4c-.6 0-1 .4-1 1s.4 1 1 1 1-.4 1-1-.4-1-1-1zm-6-6c-1.7 0-3-1.3-3-3s1.3-3 3-3 3 1.3 3 3-1.3 3-3 3zm0-4c-.6 0-1 .4-1 1s.4 1 1 1 1-.4 1-1-.4-1-1-1z" fill="#fbfbfb"/></svg>
