<svg id="Layer_1" xmlns="http://www.w3.org/2000/svg" viewBox="0 0 64 64"><style>.st0{fill:#ffd180}.st1{fill:#bf3f49}.st2{fill:#d23b54}.st3{fill:#f7b957}.st4{fill:#edf4fa}.st5{fill:#2b2b37}.st6{fill:#b9c6de}.st7{fill:#d6e0eb}.st8{fill:#5c6979}.st9{fill:#393d48}</style><path class="st0" d="M63 7.2v33.5c0 1.2-.9 2.2-2.1 2.2H23V5h37.9C62.1 5 63 6 63 7.2z"/><path class="st1" d="M23 5v38H3c-1.1 0-2-.9-2-2V7c0-1.1.9-2 2-2h20z"/><path class="st2" d="M5 5H3c-1.1 0-2 .9-2 2v34c0 1.1.9 2 2 2h20V27.4C11.9 21.8 5 13.8 5 5z"/><path class="st3" d="M49.6 35.2c-.8-.1-1.7-.2-2.5-.4-.3 0-.7-.1-1-.2-3.6-.6-7.1-1.4-10.5-2.3-4.3-1.2-8.5-2.8-12.5-4.9V43H61c1.2 0 2.1-1 2.1-2.2V36c-4.6 0-9.1-.3-13.5-.8z"/><path class="st2" d="M56 24c0-1.1-2-1.9-2.3-2.9s1.1-2.7.6-3.6-2.7-.6-3.4-1.3c-.8-.7-.4-2.9-1.3-3.4s-2.6.8-3.6.6-1.9-2.4-3-2.4-1.9 2-2.9 2.3-2.7-1.1-3.6-.6-.6 2.7-1.3 3.4c-.7.8-2.9.4-3.4 1.3s.8 2.6.6 3.6-2.4 1.9-2.4 3 2 1.9 2.3 2.9-1.1 2.7-.6 3.6c.5.9 2.7.6 3.4 1.3.7.7.4 2.9 1.3 3.4s2.6-.8 3.6-.5 1.9 2.3 3 2.3 1.9-2 2.9-2.3 2.7 1.1 3.6.6.6-2.7 1.3-3.4 2.9-.4 3.4-1.3-.8-2.6-.5-3.6 2.3-1.9 2.3-3z"/><path class="st1" d="M54 24c0-.9-1.7-1.6-1.9-2.4s.9-2.3.5-3.1-2.3-.5-2.9-1.1-.4-2.4-1.1-2.9-2.2.7-3.1.5-1.6-2-2.5-2-1.6 1.7-2.4 1.9-2.3-.9-3.1-.5-.5 2.3-1.1 2.9-2.5.4-2.9 1.1.7 2.2.5 3.1-2 1.6-2 2.5 1.7 1.6 1.9 2.4-.9 2.3-.5 3.1 2.3.5 2.9 1.1.4 2.4 1.1 2.9 2.2-.7 3.1-.5 1.6 2 2.5 2 1.6-1.7 2.4-1.9 2.3.9 3.1.5.5-2.3 1.1-2.9 2.5-.4 2.9-1.1-.7-2.2-.5-3.1 2-1.6 2-2.5z"/><path class="st4" d="M13.5 23h-3C9.1 23 8 21.9 8 20.5S9.1 18 10.5 18H15c.6 0 1-.4 1-1s-.4-1-1-1h-2v-1c0-.6-.4-1-1-1s-1 .4-1 1v1h-.5C8 16 6 18 6 20.5S8 25 10.5 25h3c1.4 0 2.5 1.1 2.5 2.5S14.9 30 13.5 30H9c-.6 0-1 .4-1 1s.4 1 1 1h2v1c0 .6.4 1 1 1s1-.4 1-1v-1h.5c2.5 0 4.5-2 4.5-4.5S16 23 13.5 23zm36.2-5.7c-.4-.4-1-.4-1.4 0l-12 12c-.4.4-.4 1 0 1.4.4.4 1 .4 1.4 0l12-12c.4-.4.4-1 0-1.4zM46 26c-1.7 0-3 1.3-3 3s1.3 3 3 3 3-1.3 3-3-1.3-3-3-3zm0 4c-.6 0-1-.4-1-1s.4-1 1-1 1 .4 1 1-.4 1-1 1zm-6-8c1.7 0 3-1.3 3-3s-1.3-3-3-3-3 1.3-3 3 1.3 3 3 3zm0-4c.6 0 1 .4 1 1s-.4 1-1 1-1-.4-1-1 .4-1 1-1z"/><path class="st5" d="M22.3 5h1.4v4h-1.4V5zm0 6h1.4v4h-1.4v-4zm0 6h1.4v4h-1.4v-4zm0 6h1.4v4h-1.4v-4zm0 6h1.4v4h-1.4v-4zm0 6h1.4v4h-1.4v-4zm0 6h1.4v2h-1.4v-2z"/><path class="st6" d="M26.7 43l-1.6 3.4-1.8-3.4h3.4zm-5.4 4.2l1.7 3.6-2 4.2c0-1.4-.7-2.6-1.8-3.4l2.1-4.4z"/><path class="st4" d="M23.3 43l1.8 3.4 2.5 4.8C26 51.8 25 53.3 25 55l-2-4.2-1.7-3.6L16 36l2-3 5.3 10z"/><path class="st7" d="M25.9 49c-.4.4-1.1.3-1.4-.1 0-.1-.1-.1-.1-.2l-7.2-14.4L16 36l5.3 11.2 1.7 3.6 2 4.2c0-1.7 1-3.2 2.6-3.7l-1.3-2.5c-.2 0-.3.1-.4.2z"/><path class="st8" d="M29 60c-2.8 0-5-2.2-5-5s2.2-5 5-5 5 2.2 5 5-2.2 5-5 5zm0-8c-1.7 0-3 1.3-3 3s1.3 3 3 3 3-1.3 3-3-1.3-3-3-3z"/><path class="st9" d="M17 60c-2.8 0-5-2.2-5-5s2.2-5 5-5 5 2.2 5 5-2.2 5-5 5zm0-8c-1.7 0-3 1.3-3 3s1.3 3 3 3 3-1.3 3-3-1.3-3-3-3z"/></svg>