<svg enable-background="new 0 0 64 64" viewBox="0 0 64 64" xmlns="http://www.w3.org/2000/svg"><path d="m9 52v-8h44c1.1 0 2-.9 2-2v-22h6c1.1 0 2 .9 2 2v30c0 1.1-.9 2-2 2h-50c-1.1 0-2-.9-2-2z" fill="#e9edf5"/><path d="m12 52v-8h-3v8c0 1.1.9 2 2 2h3c-1.1 0-2-.9-2-2zm46-10v-22h-3v22c0 1.1-.9 2-2 2h3c1.1 0 2-.9 2-2z" fill="#cdd2e1"/><path d="m14.5 34.5-5.5 5.5v-5h-4l4-4 2.4-2.4c.5.8 1.4 1.4 2.4 1.4-1 1.2-1 3 .1 4.1.2.2.4.3.6.4zm22.5.5h-4v5l-5.5-5.5c.2-.1.4-.3.6-.4 1.1-1.1 1.2-2.9.1-4.1 1-.1 1.8-.6 2.4-1.4l2.4 2.4z" fill="#f25a6b"/><path d="m1 23h12.2c.1.4.3.7.6 1-1.6.1-2.8 1.4-2.8 3 0 .6.1 1.1.4 1.6l-2.4 2.4h-8zm24 11.8v9.2h-8v-9.2c.4-.1.7-.3 1-.6 0 1.7 1.3 3 3 3s3-1.3 3-3c.3.3.6.5 1 .6zm3.8-11.8h26.2v8h-22l-2.4-2.4c.3-.5.4-1 .4-1.6 0-1.6-1.2-2.9-2.8-3 .3-.3.5-.6.6-1zm-3.8-13v9.2c-.4.1-.7.3-1 .6 0-1.7-1.3-3-3-3s-3 1.3-3 3c-.3-.3-.6-.5-1-.6v-9.2z" fill="#ff808c"/><circle cx="21" cy="27" fill="#f2f6fc" r="4"/><path d="m20 27c0-1.6 1-3.1 2.5-3.7-.5-.2-1-.3-1.5-.3-2.2 0-4 1.8-4 4s1.8 4 4 4c.5 0 1-.1 1.5-.3-1.5-.6-2.5-2.1-2.5-3.7z" fill="#dce1eb"/><path d="m11.4 28.6c-.3-.5-.4-1-.4-1.6 0-1.6 1.2-2.9 2.8-3-.3-.3-.5-.6-.6-1-.5-1.6.4-3.3 1.9-3.8.6-.2 1.3-.2 1.9 0 .4.1.7.3 1 .6 0-1.7 1.3-3 3-3s3 1.3 3 3c.3-.3.6-.5 1-.6 1.6-.5 3.3.4 3.8 1.9.2.6.2 1.3 0 1.9-.1.4-.3.7-.6 1 1.6.1 2.8 1.4 2.8 3 0 .6-.1 1.1-.4 1.6-.5.8-1.4 1.4-2.4 1.4 1 1.2 1 3-.1 4.1-.8.8-2 1.1-3.1.7-.4-.1-.7-.3-1-.6 0 1.7-1.3 3-3 3s-3-1.3-3-3c-.3.3-.6.5-1 .6-1.1.4-2.3.1-3.1-.7-1.1-1.1-1.2-2.9-.1-4.1-1-.1-1.9-.6-2.4-1.4zm13.6-1.6c0-2.2-1.8-4-4-4s-4 1.8-4 4 1.8 4 4 4 4-1.8 4-4z" fill="#d6475c"/><path d="m55 31v11c0 1.1-.9 2-2 2h-28v-9.2c.8.3 1.8.2 2.5-.3l5.5 5.5v-5h4l-4-4zm-38 3.8v9.2h-14c-1.1 0-2-.9-2-2v-11h8l-4 4h4v5l5.5-5.5c.7.5 1.7.6 2.5.3zm0-24.8v9.2c-1.6-.5-3.3.4-3.8 1.9-.2.6-.2 1.3 0 1.9h-12.2v-11c0-1.1.9-2 2-2zm38 13h-26.2c.5-1.6-.4-3.3-1.9-3.8-.6-.2-1.3-.2-1.9 0v-9.2h28c1.1 0 2 .9 2 2z" fill="#9196aa"/><path d="m1 23h3v8h-3z" fill="#f25a6b"/><path d="m1 31v11c0 1.1.9 2 2 2h1v-13zm3-21h-1c-1.1 0-2 .9-2 2v11h3z" fill="#636978"/><path d="m38 44h21v6h-21z" fill="#ff808c"/><path d="m38 44h4v6h-4z" fill="#d6475c"/><g fill="none" stroke="#404040" stroke-linejoin="round"><path d="m9 44v8c0 1.1.9 2 2 2h50c1.1 0 2-.9 2-2v-30c0-1.1-.9-2-2-2h-6"/><path d="m55 31v11c0 1.1-.9 2-2 2h-50c-1.1 0-2-.9-2-2v-30c0-1.1.9-2 2-2h50c1.1 0 2 .9 2 2z"/><path d="m17 19.2v-9.2"/><path d="m25 19.2v-9.2"/><path d="m17 44v-9.2"/><path d="m25 44v-9.2"/><path d="m28.8 23h26.2"/><path d="m33 31h22"/><path d="m1 23h12.2"/><path d="m1 31h8"/><circle cx="21" cy="27" r="4"/><path d="m27.5 34.5 5.5 5.5v-5h4l-4-4-2.4-2.4"/><path d="m14.5 34.5-5.5 5.5v-5h-4l4-4 2.4-2.4"/><path d="m57 44h2v6h-21v-4"/><path d="m35 50h-2"/><path d="m31 50h-19"/><path d="m30.6 28.6c.3-.5.4-1 .4-1.6 0-1.6-1.2-2.9-2.8-3 .3-.3.5-.6.6-1 .5-1.6-.4-3.3-1.9-3.8-.6-.2-1.3-.2-1.9 0-.4.1-.7.3-1 .6 0-1.7-1.3-3-3-3s-3 1.3-3 3c-.3-.3-.6-.5-1-.6-1.6-.5-3.3.4-3.8 1.9-.2.6-.2 1.3 0 1.9.1.4.3.7.6 1-1.6.1-2.8 1.4-2.8 3 0 .6.1 1.1.4 1.6.5.8 1.4 1.4 2.4 1.4-1 1.2-1 3 .1 4.1.8.8 2 1.1 3.1.7.4-.1.7-.3 1-.6 0 1.7 1.3 3 3 3s3-1.3 3-3c.3.3.6.5 1 .6 1.1.4 2.3.1 3.1-.7 1.1-1.1 1.2-2.9.1-4.1 1-.1 1.9-.6 2.4-1.4z"/></g></svg>