<svg enable-background="new 0 0 64 64" viewBox="0 0 64 64" xmlns="http://www.w3.org/2000/svg"><path d="m46.3 42 .7 2-35.6 12-4.9-14h30.5c1.1 0 2-.9 2-2v-1h3c0 1.6 1.3 3 2.9 3h.1z" fill="#e9edf5"/><path d="m63 24v18h-6v-3-13-2z" fill="#80dbff"/><path d="m60 24v18h-3v-3-13-2z" fill="#19cffc"/><path d="m39 33v-14h4l10 7h4v13h-4c0 1.6-1.3 3-2.9 3h-.1-5c-1.6 0-3-1.3-3-2.9v-.1h-6c-1.7 0-3-1.3-3-3 0-.7.3-1.5.8-2l.1-.1c.6-.6 1.3-.9 2.1-.9z" fill="#ffcdbe"/><path d="m42 30v-8-3h-3v3 8 3h3z" fill="#ffbeaa"/><path d="m36 36c0-.7.3-1.5.8-2l.1-.1c.6-.6 1.3-.9 2.1-.9h-3c-.8 0-1.6.3-2.1.9l-.1.1c-.5.5-.8 1.3-.8 2 0 1.7 1.3 3 3 3h3c-1.7 0-3-1.3-3-3z" fill="#ffbeaa"/><path d="m45 39h-3c0 1.6 1.3 3 2.9 3h.1 3c-1.6 0-3-1.3-3-3z" fill="#ffbeaa"/><path d="m39 39v1c0 1.1-.9 2-2 2h-15v-8h11.8c-.5.5-.8 1.3-.8 2 0 1.7 1.3 3 3 3z" fill="#e9edf5"/><path d="m39 30v3h-3c-.8 0-1.6.3-2.1.9l-.1.1h-11.8v-4z" fill="#d6475c"/><path d="m39 22v8h-17v-8h2z" fill="#e9edf5"/><path d="m39 19v3h-15v-6h13c1.1 0 2 .9 2 2z" fill="#9196aa"/><path d="m23 13c0-.6-.3-1.2-.8-1.6.7-2 2.6-3.4 4.8-3.4 4 0 4 1 4 3 0 1.1-.9 2-2 2 1.1.6 1.9 1.7 2 3h-8z" fill="#d6475c"/><path d="m24.2 11.4c.7-1.8 2.3-3.1 4.2-3.4-.4 0-.9 0-1.4 0-2.2 0-4.1 1.4-4.8 3.4.5.4.8 1 .8 1.6v3h2v-3c0-.6-.3-1.2-.8-1.6z" fill="#f25a6b"/><path d="m24 16v6h-2-4-2v-6h1 6z" fill="#d6475c"/><path d="m22.2 11.4c.5.4.8 1 .8 1.6v3h-6v-3c0-1.1.9-2 2-2h2c.4 0 .9.1 1.2.4z" fill="#ff808c"/><path d="m19.8 11.4c.3-.3.8-.4 1.2-.4h-2c-1.1 0-2 .9-2 2v3h2v-3c0-.6.3-1.2.8-1.6z" fill="#f25a6b"/><path d="m22 34v8h-4v-8-4-8h4v8z" fill="#f25a6b"/><path d="m18 34v8h-15c-1.1 0-2-.9-2-2v-6z" fill="#e9edf5"/><path d="m1 30h17v4h-17z" fill="#d6475c"/><path d="m1 30h3v4h-3z" fill="#ba4259"/><path d="m18 22v8h-17v-8h15z" fill="#e9edf5"/><path d="m17 13v3h-8c.1-1.3.9-2.4 2-3-1.1 0-2-.9-2-2 0-2 0-3 4-3 2.2 0 4.1 1.4 4.8 3.4-.5.4-.8 1-.8 1.6z" fill="#d6475c"/><path d="m13 13c-1.1 0-2-.9-2-2 0-1.7 0-2.7 2.6-2.9-.2-.1-.4-.1-.6-.1-4 0-4 1-4 3 0 1.1.9 2 2 2-1.1.6-1.9 1.7-2 3h2c.1-1.3.9-2.4 2-3z" fill="#f25a6b"/><path d="m16 16v6h-15v-4c0-1.1.9-2 2-2z" fill="#9196aa"/><path d="m4 40v-6h-3v6c0 1.1.9 2 2 2h3c-1.1 0-2-.9-2-2z" fill="#cdd2e1"/><path d="m1 22h3v8h-3z" fill="#cdd2e1"/><path d="m6 16h-3c-1.1 0-2 .9-2 2v4h3v-4c0-1.1.9-2 2-2z" fill="#636978"/><g fill="none" stroke="#404040" stroke-linejoin="round"><path d="m57 39h-4c0 1.6-1.3 3-2.9 3h-.1-5c-1.6 0-3-1.3-3-2.9v-.1h-6c-1.7 0-3-1.3-3-3s1.3-3 3-3h6l4-4"/><path d="m57 24h6v18h-6z"/><path d="m57 26h-4l-10-7h-4"/><path d="m39 33v-15c0-1.1-.9-2-2-2h-34c-1.1 0-2 .9-2 2v22c0 1.1.9 2 2 2h34c1.1 0 2-.9 2-2v-1"/><path d="m46.3 42 .7 2-35.6 12-4.9-14"/><path d="m1 22h38"/><path d="m16 16h8v6h-8z"/><path d="m18 22v20"/><path d="m22 22v20"/><path d="m1 30h17"/><path d="m22 30h17"/><path d="m1 34h17"/><path d="m22 34h12"/><path d="m17 16v-3c0-1.1.9-2 2-2h2c1.1 0 2 .9 2 2v3"/><path d="m22.2 11.4s.8-3.4 4.8-3.4 4 1 4 3c0 1.1-.9 2-2 2 1.1.6 1.9 1.7 2 3"/><path d="m17.8 11.4s-.8-3.4-4.8-3.4-4 1-4 3c0 1.1.9 2 2 2-1.1.6-1.9 1.7-2 3"/><path d="m23 13s4 0 4-2"/><path d="m17 13s-4 0-4-2"/><path d="m44 15v-6"/><path d="m56 20h-6"/><path d="m47 17.5 4.9-4.9"/></g></svg>